<svg xmlns="http://www.w3.org/2000/svg" role="img" xmlns:xlink="http://www.w3.org/1999/xlink" viewBox="-4.27 -4.27 222.04 55.04"><defs><path id="a" d="M0 46.625h213.521V0H0z"/></defs><g fill="none" fill-rule="evenodd"><path fill="#333" d="M70.29071 43.30151c.9408 0 1.6765-.2527 2.2064-.7616.5299-.5068.7952-1.2089.7952-2.1056 0-.5222-.0973-.9555-.2912-1.2985-.1939-.343-.4515-.6167-.7728-.8176-.3213-.2016-.6909-.343-1.1088-.4263-.4186-.0812-.8512-.1225-1.2992-.1225h-4.8608v5.5321h5.3312zm-1.0752-7.3241c1.2096 0 2.0797-.2135 2.6096-.6384.5299-.4256.7952-1.0647.7952-1.9152 0-.5677-.0896-1.0164-.2688-1.344-.1792-.3283-.4256-.5824-.7392-.7616-.3136-.1792-.6755-.2954-1.0864-.3472-.4109-.0518-.8477-.0791-1.3104-.0791h-4.256v5.0855h4.256zm-.5824-6.8768c.3437 0 .7133.0042 1.1088.0112.3955.0077.7875.0294 1.176.0665.3885.0378.7504.0938 1.0864.168.336.0756.6237.1876.8624.3367.5229.3129.9667.7462 1.3328 1.2985.3654.5523.5488 1.232.5488 2.0384 0 .8512-.2051 1.5876-.616 2.2071-.4109.6195-.9968 1.0787-1.7584 1.3776v.0441c.9856.2093 1.7395.658 2.2624 1.344.5229.6874.784 1.5239.784 2.5088 0 .5824-.1043 1.1508-.3136 1.7031-.2093.553-.5187 1.0409-.9296 1.4665-.4109.4263-.9184.7693-1.5232 1.0304-.6048.2618-1.3027.3927-2.0944.3927h-7.728v-15.9936h5.8016z"/><mask id="b" fill="#fff"><use xlink:href="#a"/></mask><path fill="#333" d="M77.824 45.094h1.904V29.101h-1.904zm6.42842-3.90894c.1869.5453.4438 1.001.7728 1.3664.3283.3661.7133.6461 1.1536.84.4403.1946.9072.2912 1.4.2912.4928 0 .9597-.0966 1.4-.2912.4403-.1939.8246-.4739 1.1536-.84.3283-.3654.5859-.8211.7728-1.3664.1869-.5446.28-1.1683.28-1.8704 0-.7014-.0931-1.3244-.28-1.8704-.1869-.5453-.4445-1.0038-.7728-1.3776-.329-.3738-.7133-.6566-1.1536-.8505-.4403-.1946-.9072-.2912-1.4-.2912-.4928 0-.9597.0966-1.4.2912-.4403.1939-.8253.4767-1.1536.8505-.329.3738-.5859.8323-.7728 1.3776-.1869.546-.28 1.169-.28 1.8704 0 .7021.0931 1.3258.28 1.8704m-1.9376-4.256c.2387-.7399.5971-1.3811 1.0752-1.9264.4774-.5446 1.0675-.9751 1.7696-1.288.7014-.3136 1.5078-.4704 2.4192-.4704.9254 0 1.736.1568 2.4304.4704.6944.3129 1.2803.7434 1.7584 1.288.4774.5453.8358 1.1865 1.0752 1.9264.2387.7399.3584 1.5337.3584 2.3856 0 .8512-.1197 1.6429-.3584 2.3751-.2394.7315-.5978 1.3699-1.0752 1.9145-.4781.5446-1.064.9709-1.7584 1.2761-.6944.3066-1.505.4599-2.4304.4599-.9114 0-1.7178-.1533-2.4192-.4599-.7021-.3052-1.2922-.7315-1.7696-1.2761-.4781-.5446-.8365-1.183-1.0752-1.9145-.2394-.7322-.3584-1.5239-.3584-2.3751 0-.8519.119-1.6457.3584-2.3856m20.02994-1.4c-.4781-.4032-1.12-.6041-1.9264-.6041-.6867 0-1.2621.126-1.7248.3801-.4627.2541-.833.5901-1.1088 1.008-.2765.4186-.4746.9002-.5936 1.4448-.1197.5453-.1792 1.1088-.1792 1.6912 0 .5376.0637 1.0605.1904 1.568.1267.5075.3248.9597.5936 1.3545.2688.3969.6195.714 1.0528.9534.4326.2387.9485.3577 1.5456.3577.9408 0 1.6758-.2464 2.2064-.7392.5299-.4921.8547-1.1872.9744-2.0832h1.9488c-.2093 1.4336-.7434 2.5389-1.6016 3.3152-.8589.7763-2.0272 1.1648-3.5056 1.1648-.8813 0-1.6618-.1421-2.3408-.4256-.6797-.2835-1.2474-.686-1.7024-1.2096-.4557-.5222-.7994-1.1459-1.0304-1.8704-.2317-.7238-.3472-1.519-.3472-2.3856 0-.8659.112-1.6765.336-2.4304.224-.7539.5635-1.4112 1.0192-1.9712.455-.56 1.0269-1.0003 1.7136-1.3216.6867-.3213 1.4861-.4816 2.3968-.4816.6566 0 1.2726.0784 1.848.2352.5747.1568 1.0822.3997 1.5232.728.4403.329.8022.7434 1.0864 1.2439.2835.5005.4627 1.0934.5376 1.7801h-1.9712c-.1498-.7315-.4627-1.2992-.9408-1.7024M109.311 29.101v9.474l5.287-5.062h2.553l-4.592 4.212 4.928 7.369h-2.419l-3.965-6.049-1.792 1.659v4.39h-1.904V29.101z" mask="url(#b)"/><path fill="#CD040B" d="M119.02 45.094h3.516V29.101h-3.516zm13.26649-2.95736c.5082 0 1.001-.0812 1.4791-.2464.4774-.1638.9023-.4368 1.2768-.8176.3731-.3801.6713-.8764.896-1.4889.224-.6118.336-1.3587.336-2.2407 0-.8064-.0791-1.5337-.2359-2.1833-.1561-.6503-.4137-1.2054-.7728-1.6695-.3584-.462-.833-.8176-1.4217-1.0633-.5908-.2471-1.3181-.3696-2.1847-.3696h-2.5081v10.0793h3.1353zm.2471-13.0361c1.0297 0 1.9894.1638 2.8784.4921.8876.3297 1.6569.8218 2.3072 1.4784.6489.658 1.1571 1.4791 1.5232 2.4647.3654.9856.5488 2.142.5488 3.472 0 1.1641-.1498 2.24-.4487 3.2256-.2982.9849-.7497 1.8361-1.3545 2.5536-.6048.7168-1.3594 1.2803-2.2631 1.6912-.9037.4109-1.967.616-3.1913.616h-6.8999v-15.9936h6.8999zM30.675 15.906h15.354V.552H30.675zM20.331 7.952h7.399v-7.4h-7.399zm0 18.283h7.399v-7.4h-7.399zm18.299 0h7.399v-7.4H38.63z" mask="url(#b)"/><path fill="#333" d="M69.81562.13972c-.168-.0679-.231-.105-.6251-.1393-.595-.0133-1.4168.5026-1.4168.5026l-6.5779 5.964 2.6201 2.8903 3.3173-3.0072v17.2704h3.9018V1.94782c-.0035-.1141-.0014-.1428-.0168-.2562-.091-.6853-.5684-1.2957-1.2026-1.5519M95.761.494h-6.386l-9.244 8.028V.494H76.23v23.159h3.901v-8.01l10.277 8.01h6.647L82.352 12.128zm38.2106 9.83674c-2.1441-.8386-4.7544-.448-7.2436-.4634-.8113-.0161-1.5988-.4144-2.0902-1.0647-1.3132-1.736.1589-4.3239 2.0923-4.3603 3.3929-.021 6.7872 0 10.1801 0v-3.955h-10.1528c-2.6551.0161-5.1331 1.7388-6.1005 4.1909-1.3132 3.3271.5292 7.462 3.7695 8.7108 2.1049.8106 4.6781.4186 7.1281.434.6706.0126 1.3265.2569 1.8368.6909 2.0972 1.7864.4459 5.1695-1.8368 5.2129-3.514.0217-7.0287 0-10.5427 0v3.955h10.5119c2.7678-.0175 5.3193-1.8018 6.321-4.3414 1.3601-3.4461-.5404-7.7056-3.8731-9.0097m75.23292 0c-2.1441-.8386-4.7544-.448-7.2429-.4634-.8113-.0161-1.5988-.4144-2.0909-1.0647-1.3132-1.736.1603-4.3239 2.093-4.3603 3.3929-.021 6.7865 0 10.1794 0v-3.955h-10.1528c-2.6698.0168-5.1338 1.7395-6.1005 4.1909-1.3006 3.2963.4879 7.3997 3.6946 8.6814 2.1273.8505 4.7271.448 7.203.4634.9646.0182 1.8872.5334 2.4059 1.344 1.225 1.9124-.3626 4.5213-2.4059 4.5598-3.514.0217-7.028 0-10.5427 0v3.955h10.5126c2.7664-.0175 5.3186-1.8025 6.3203-4.3414 1.3601-3.4461-.5425-7.7063-3.8731-9.0097m-19.2213 3.76488c-.7154 2.8728-3.1353 5.2619-6.0102 5.7932-5.6903 1.0521-9.9225-4.8944-8.6632-9.8203.8379-3.2774 3.9312-5.8331 7.2821-5.8667.0651-.0007.1302 0 .1953.0014 4.9539.1127 8.3181 5.3942 7.196 9.8924M182.71512.29996c-1.652-.00554-3.318.35076-4.8237 1.05426-4.9189 2.3002-7.6552 8.2929-6.4134 13.5436.8666 3.6652 3.5616 6.8621 7.0623 8.2383 3.9606 1.5575 8.6646.6048 11.7446-2.2197 3.1612-2.8994 4.5206-7.5873 3.4839-11.7439-1.2453-4.998-6.0046-8.8221-11.0537-8.87256" mask="url(#b)"/><path fill="#333" d="M114.62794 14.09562c-.7154 2.8728-3.1353 5.2619-6.0102 5.7932-5.6903 1.0521-9.9225-4.8944-8.6632-9.8203.8379-3.2774 3.9312-5.8331 7.2821-5.8667.0651-.0007.1302 0 .1953.0014 4.9539.1127 8.3181 5.3942 7.196 9.8924M107.35984.29996c-1.652-.00554-3.318.35076-4.8237 1.05426-4.9189 2.3002-7.6552 8.2929-6.4134 13.5436.8659 3.6652 3.5616 6.8621 7.0623 8.2383 3.9606 1.5575 8.6646.6048 11.7446-2.2197 3.1612-2.8994 4.5206-7.5873 3.4839-11.7439-1.2453-4.998-6.0046-8.8221-11.0537-8.87256m51.92726 20.08061l4.7117-16.0139c.0588-.2016.2142-.3416.3773-.3416.2177 0 .4025.2387.4025.5201v19.0582h3.857V4.54517c0-2.4136-1.911-4.3778-4.2595-4.3778-1.8921 0-3.5301 1.2502-4.0782 3.1101l-4.7117 16.0146c-.1351.4599-.5082.7686-.9282.7686-.5411 0-.9814-.5054-.9814-1.127V4.54517c0-2.4136-1.9103-4.3778-4.2595-4.3778-1.8914 0-3.5301 1.2502-4.0775 3.1108l-5.9773 20.3252h4.0201l5.6581-19.2367c.0588-.2009.2135-.3416.3766-.3416.2184 0 .4025.2387.4025.5201v14.3885c0 2.7482 2.1707 4.9847 4.8384 4.9847 2.1462 0 4.0061-1.4217 4.6291-3.5378M39.94123 29.18734c-2.3975 6.9272-8.9747 11.9049-16.7174 11.9049-9.7706 0-17.6911-7.9205-17.6911-17.6911 0-7.7035 4.9266-14.2541 11.7992-16.6817V.93394c-9.9722 2.6082-17.332 11.6774-17.332 22.4672 0 12.8268 10.3978 23.2239 23.2239 23.2239 10.8283 0 19.9255-7.4109 22.4966-17.4377h-5.7792z" mask="url(#b)"/></g></svg>