<?xml version="1.0" encoding="UTF-8"?>
<svg id="Layer_1" xmlns="http://www.w3.org/2000/svg" viewBox="0 0 244.36 44.54">
  <defs>
    <style>
      .cls-1 {
        fill: #003778;
      }

      .cls-2 {
        fill: #0094ff;
      }
    </style>
  </defs>
  <g>
    <path class="cls-1" d="M100.48,11.94l-2.1-1.27c-1.32-.8-2.25-1.59-2.81-2.37-.56-.78-.84-1.67-.84-2.68,0-1.52.53-2.75,1.58-3.7,1.05-.95,2.42-1.42,4.11-1.42s3.09.45,4.43,1.36v3.13c-1.39-1.34-2.88-2-4.49-2-.9,0-1.64.21-2.22.63-.58.42-.87.95-.87,1.6,0,.58.21,1.12.64,1.62.43.5,1.11,1.03,2.06,1.59l2.11,1.25c2.35,1.4,3.53,3.19,3.53,5.36,0,1.55-.52,2.8-1.55,3.77-1.04.97-2.38,1.45-4.04,1.45-1.9,0-3.64-.59-5.2-1.76v-3.51c1.49,1.89,3.22,2.83,5.18,2.83.86,0,1.58-.24,2.16-.72.57-.48.86-1.08.86-1.81,0-1.17-.85-2.29-2.54-3.34Z"/>
    <path class="cls-1" d="M122.02.74h2.77v10.94c0,1.48-.11,2.6-.32,3.35-.22.75-.48,1.38-.8,1.88-.32.5-.71.95-1.17,1.35-1.53,1.32-3.52,1.97-5.99,1.97s-4.53-.65-6.04-1.96c-.46-.4-.85-.86-1.17-1.36-.32-.5-.58-1.12-.79-1.84-.21-.73-.31-1.87-.31-3.42V.74h2.77v10.94c0,1.81.21,3.07.62,3.78.41.71,1.04,1.28,1.89,1.7.85.43,1.84.64,2.99.64,1.64,0,2.97-.43,4-1.28.54-.46.93-1,1.17-1.63.24-.63.36-1.7.36-3.22V.74Z"/>
    <path class="cls-1" d="M128.56,20.02V.71h6.11c1.84,0,3.31.5,4.4,1.49,1.09.99,1.64,2.33,1.64,4,0,1.12-.28,2.12-.84,2.98-.56.87-1.33,1.49-2.3,1.88-.98.39-2.37.59-4.2.59h-2.04v8.36h-2.77ZM134.19,3.17h-2.86v6.03h3.02c1.12,0,1.99-.26,2.59-.79.61-.53.91-1.29.91-2.27,0-1.98-1.22-2.97-3.67-2.97Z"/>
    <path class="cls-1" d="M142.65.74h10.93v2.46h-8.17v5.88h7.89v2.47h-7.89v5.99h8.43v2.46h-11.19V.74Z"/>
    <path class="cls-1" d="M156.69,20.02V.74h4.83c1.95,0,3.5.48,4.64,1.45,1.15.97,1.72,2.27,1.72,3.92,0,1.12-.28,2.09-.84,2.91-.56.82-1.37,1.43-2.42,1.84.62.41,1.22.96,1.81,1.66.59.7,1.42,1.92,2.48,3.66.67,1.1,1.21,1.92,1.61,2.47l1.02,1.38h-3.28l-.84-1.27s-.08-.12-.17-.24l-.54-.76-.85-1.41-.92-1.51c-.57-.79-1.09-1.42-1.57-1.89-.47-.47-.9-.81-1.29-1.01-.38-.21-1.02-.31-1.93-.31h-.72v8.39h-2.76ZM160.28,3.09h-.83v6.09h1.05c1.4,0,2.36-.12,2.88-.36.52-.24.92-.6,1.21-1.08.29-.48.43-1.03.43-1.65s-.16-1.16-.48-1.65c-.32-.49-.78-.84-1.36-1.04-.58-.2-1.55-.3-2.91-.3Z"/>
    <path class="cls-1" d="M102.24,44.32h-6.53v-19.28h5.05c1.59,0,2.83.21,3.73.64.89.43,1.57,1.02,2.04,1.77.47.75.7,1.62.7,2.6,0,1.9-.98,3.25-2.94,4.07,1.41.27,2.53.85,3.36,1.74.83.89,1.25,1.96,1.25,3.2,0,.98-.25,1.86-.76,2.64-.51.77-1.25,1.4-2.23,1.89-.98.49-2.21.73-3.68.73ZM100.84,27.5h-2.37v5.8h1.84c1.47,0,2.52-.28,3.14-.84s.93-1.29.93-2.18c0-1.85-1.18-2.77-3.53-2.77ZM101.05,35.75h-2.58v6.11h2.72c1.51,0,2.53-.12,3.07-.35.54-.23.97-.6,1.3-1.1.33-.5.49-1.03.49-1.6s-.17-1.13-.52-1.61c-.35-.49-.83-.85-1.47-1.09-.63-.24-1.64-.36-3.01-.36Z"/>
    <path class="cls-1" d="M111.6,25.04h2.76v16.77h8.68v2.51h-11.44v-19.28Z"/>
    <path class="cls-1" d="M137.91,25.04h2.77v10.94c0,1.48-.11,2.6-.32,3.35-.22.75-.48,1.38-.8,1.88-.32.5-.71.95-1.17,1.35-1.53,1.32-3.52,1.97-5.99,1.97s-4.53-.65-6.04-1.96c-.46-.4-.85-.86-1.17-1.36-.32-.5-.58-1.12-.79-1.84-.21-.73-.31-1.87-.31-3.42v-10.92h2.77v10.94c0,1.81.21,3.07.62,3.78.41.71,1.04,1.28,1.89,1.7.85.43,1.84.64,2.99.64,1.64,0,2.97-.43,4-1.28.54-.46.93-1,1.17-1.63.24-.63.36-1.7.36-3.22v-10.94Z"/>
    <path class="cls-1" d="M144.51,25.04h10.93v2.46h-8.17v5.88h7.89v2.47h-7.89v5.99h8.43v2.46h-11.19v-19.25Z"/>
    <path class="cls-1" d="M158.45,44.32v-19.31h6.11c1.84,0,3.31.5,4.4,1.49,1.09.99,1.64,2.33,1.64,4,0,1.12-.28,2.12-.84,2.98-.56.87-1.33,1.49-2.3,1.88-.98.39-2.37.59-4.2.59h-2.04v8.36h-2.77ZM164.08,27.47h-2.86v6.03h3.02c1.12,0,1.99-.26,2.59-.79.61-.53.91-1.29.91-2.27,0-1.98-1.22-2.97-3.67-2.97Z"/>
    <path class="cls-1" d="M172.57,44.32v-19.28h4.83c1.95,0,3.5.48,4.64,1.45s1.72,2.27,1.72,3.92c0,1.12-.28,2.09-.84,2.91-.56.82-1.37,1.43-2.42,1.84.62.41,1.22.96,1.81,1.66.59.7,1.42,1.92,2.48,3.66.67,1.1,1.21,1.92,1.61,2.47l1.02,1.38h-3.28l-.84-1.27s-.08-.12-.17-.24l-.54-.76-.85-1.41-.92-1.51c-.57-.79-1.09-1.42-1.57-1.89-.47-.47-.9-.81-1.28-1.01-.38-.21-1.02-.31-1.93-.31h-.72v8.39h-2.76ZM176.16,27.38h-.83v6.09h1.05c1.4,0,2.36-.12,2.88-.36.52-.24.92-.6,1.21-1.08s.43-1.03.43-1.65-.16-1.16-.48-1.65c-.32-.49-.78-.84-1.36-1.04-.58-.2-1.55-.3-2.91-.3Z"/>
    <path class="cls-1" d="M189.27,25.04h2.76v19.28h-2.76v-19.28Z"/>
    <path class="cls-1" d="M211.39,25.04h2.62v19.28h-2.37l-12.89-14.85v14.85h-2.59v-19.28h2.24l13,14.97v-14.97Z"/>
    <path class="cls-1" d="M215.98,25.01h16.11v2.46h-6.72v16.85h-2.77v-16.85h-6.61v-2.46Z"/>
    <path class="cls-1" d="M239.22,36.24l-2.1-1.27c-1.32-.8-2.25-1.59-2.81-2.37-.56-.78-.83-1.67-.83-2.68,0-1.52.53-2.75,1.58-3.7s2.42-1.42,4.11-1.42,3.09.45,4.43,1.36v3.13c-1.39-1.34-2.88-2-4.49-2-.9,0-1.64.21-2.22.63-.58.42-.87.95-.87,1.6,0,.58.21,1.12.64,1.62.43.5,1.11,1.03,2.06,1.59l2.11,1.25c2.35,1.4,3.53,3.19,3.53,5.36,0,1.55-.52,2.8-1.55,3.77-1.04.97-2.38,1.45-4.04,1.45-1.9,0-3.64-.59-5.2-1.76v-3.51c1.49,1.89,3.22,2.83,5.18,2.83.86,0,1.58-.24,2.16-.72.58-.48.86-1.08.86-1.81,0-1.17-.85-2.29-2.54-3.34Z"/>
  </g>
  <g>
    <path class="cls-2" d="M29.7,30.23c0,2.47-.58,4.78-1.73,6.94-1.15,2.16-2.89,3.89-5.2,5.18-2.31,1.3-5.13,1.95-8.45,1.95-2.66,0-5.2-.34-7.63-1.03-2.43-.68-4.66-1.72-6.69-3.11v-9.31c1.33,1,3.2,2,5.62,3.02,2.42,1.02,4.52,1.53,6.3,1.53,2.12,0,3.6-.56,4.45-1.67.85-1.11,1.28-2.26,1.28-3.44,0-.98-.25-1.9-.75-2.77s-1.35-1.59-2.57-2.16c-1.21-.57-2.85-.86-4.9-.86-2.26,0-4.43.42-6.51,1.25V.59h25v9.09h-15.44v7.41c.33-.04.68-.08,1.04-.11.36-.03.62-.05.78-.06.16-.01.46-.02.92-.02,2.91,0,5.46.61,7.66,1.84,2.2,1.22,3.89,2.85,5.06,4.87,1.17,2.02,1.76,4.23,1.76,6.62Z"/>
    <path class="cls-2" d="M76.35,40.69c-.93.35-1.73.64-2.4.87-.66.23-1.3.44-1.91.62-.61.19-1.5.43-2.66.72-1.97.46-3.94.8-5.9,1.04-1.96.24-4.03.36-6.21.36-4.38,0-8.43-.8-12.14-2.4-3.72-1.6-6.69-4.08-8.92-7.44-2.23-3.36-3.35-7.49-3.35-12.39,0-3.15.58-6.25,1.73-9.29,1.15-3.04,2.91-5.47,5.28-7.3,1.95-1.51,3.93-2.67,5.93-3.47,2-.8,3.96-1.33,5.87-1.6,1.91-.27,4.02-.4,6.32-.4,3.8,0,6.93.29,9.4.86,2.47.57,5.18,1.32,8.13,2.26v10.21c-1.95-1.14-4.02-2.1-6.2-2.86-2.18-.77-4.9-1.15-8.16-1.15-3.76,0-6.76.71-9.01,2.13-2.25,1.42-3.82,3.12-4.7,5.09-.88,1.97-1.32,3.88-1.32,5.73,0,2.18.51,4.19,1.53,6.02,1.02,1.84,2.55,3.31,4.61,4.42,2.05,1.11,4.53,1.67,7.44,1.67,1.66,0,3.42-.22,5.29-.65v-5.07h-5.85v-8.69h17.22v20.73Z"/>
  </g>
</svg>