<svg xmlns="http://www.w3.org/2000/svg" role="img" viewBox="-2.37 -2.24 129.61 43.48"><title>8base logo</title><g fill-rule="nonzero" fill="none"><path d="M48.02026 16.1153c1.28299-2.17075 3.95894-3.31132 6.74487-3.31132 5.31525 0 9.67742 3.8632 9.67742 10.00755 0 6.10755-4.47215 10.04434-9.75074 10.04434-2.67595 0-5.42522-1.17736-6.7082-3.3849v1.28773c0 1.03019-.80646 1.9132-1.90617 1.9132-1.02639 0-1.83284-.88301-1.83284-1.9132V8.09455c0-1.0302.80645-1.91321 1.83284-1.91321 1.06305 0 1.90616.88302 1.90616 1.9132v8.02076h.03666zm6.3783 13.09812c3.44574 0 6.19501-2.64906 6.19501-6.43868 0-3.82642-2.74926-6.29151-6.19501-6.29151-3.07918 0-6.3783 2.17075-6.3783 6.2915.03665 4.12076 2.9692 6.43869 6.3783 6.43869zm28.739.29433c-1.283 2.17076-4.06891 3.38491-6.74487 3.38491-5.24193 0-9.75073-3.97358-9.75073-10.04434 0-6.14434 4.47214-10.00755 9.75073-10.00755 2.67596 0 5.46188 1.10378 6.74487 3.31132v-1.17735c0-1.0302.80645-1.91321 1.83284-1.91321 1.06305 0 1.90616.88302 1.90616 1.9132v15.85755c0 1.0302-.80645 1.91321-1.90616 1.91321-1.02639 0-1.83284-.88302-1.83284-1.9132v-1.32454zm-6.3783-13.02452c-3.44575 0-6.23167 2.4651-6.23167 6.2915 0 3.78963 2.78592 6.43869 6.23167 6.43869 3.4091 0 6.3783-2.35472 6.3783-6.43868-.03666-4.08397-3.29912-6.29151-6.3783-6.29151zm20.2346 13.09811c1.94282 0 3.37244-1.03019 3.37244-2.53868 0-1.39811-1.0997-2.09717-2.52933-2.4283l-2.6393-.62547c-3.2258-.88302-5.16861-2.4651-5.16861-5.51887 0-3.16415 2.82258-5.62925 6.7082-5.62925 2.49268 0 4.91203.91981 6.0484 3.12736.14662.29434.21994.62547.21994.88302 0 1.25094-1.17303 1.69245-1.75954 1.69245-.54985 0-.95307-.29434-1.3563-.80943-.87977-1.14057-1.83284-1.61887-3.04252-1.61887-1.79619 0-3.00587 1.06698-3.00587 2.50189 0 1.25094 1.17302 1.95 2.41936 2.20755l2.82258.69905c3.9956.9934 4.98534 3.4217 4.98534 5.59246 0 3.56886-3.44575 5.77641-7.44135 5.77641-2.96921 0-6.01173-1.65566-6.8915-4.59906-.03666-.22075-.07331-.40471-.07331-.58868 0-.9934.95308-1.4717 1.79618-1.4717.65983 0 1.31965.33114 1.6129 1.06699.47655 1.39811 1.97948 2.28113 3.9223 2.28113zm26.31965-5.29811h-14.1129c.43988 3.20094 2.9692 5.22452 6.19501 5.22452 2.30939 0 3.55572-.58867 4.87537-2.02358.69648-.77264 1.75953-1.03019 2.49267-.4783.73314.58868.91642 1.69245.32991 2.35471-1.83284 2.39151-4.72874 3.53208-7.84457 3.53208-5.46188 0-9.82405-4.01038-9.82405-10.08113 0-6.10755 4.36217-9.97076 9.82405-9.97076 5.46187 0 9.53079 3.86321 9.53079 9.97076 0 .84622-.69648 1.4717-1.46628 1.4717zm-2.19941-2.9434c-.43988-3.20094-2.74927-5.15094-5.82845-5.15094-3.15249 0-5.6085 1.95-6.08504 5.15094h11.91349z" fill="#2C3339"/><ellipse cx="19.391" cy="19.574" fill="#EA4235" rx="19.208" ry="19.279"/><path fill="#FFF" d="M19.35484 32.83521c-4.52595 0-8.5044-3.66345-8.5044-8.2794 0-2.82087 1.31398-5.0922 3.79595-6.41105-1.42348-1.39211-2.26297-2.78423-2.26297-4.83576 0-3.95653 3.02947-7.03383 6.97142-7.03383 3.94195 0 7.00792 3.0773 7.00792 7.03383 0 2.05153-.876 3.44365-2.29948 4.83576 2.48197 1.31884 3.79596 3.59018 3.79596 6.41104-.0365 4.61596-3.97846 8.27941-8.5044 8.27941zm0-12.1993c-2.15348 0-3.90545 1.75846-3.90545 3.9199 0 2.16143 1.75197 3.91989 3.90545 3.91989 2.15347 0 3.90545-1.75846 3.90545-3.9199 0-2.16143-1.75198-3.9199-3.90545-3.9199zm0-10.00123c-1.49648 0-2.66447 1.2822-2.66447 2.74759 0 1.46538 1.20449 2.71095 2.66447 2.71095s2.70097-1.24557 2.70097-2.71095c0-1.50202-1.20449-2.7476-2.70097-2.7476z"/></g></svg>