<?xml version="1.0" encoding="UTF-8"?>
<svg width="80px" height="43px" viewBox="0 0 80 43" version="1.1" xmlns="http://www.w3.org/2000/svg" xmlns:xlink="http://www.w3.org/1999/xlink">
    <!-- Generator: Sketch 44.1 (41455) - http://www.bohemiancoding.com/sketch -->
    <title>A10_logo-all-white</title>
    <desc>Created with Sketch.</desc>
    <defs>
        <polygon id="path-1" points="0.0436363636 32.5792552 0.0436363636 0.700363636 75.1541719 0.700363636 75.1541719 32.5792552 0.0436363636 32.5792552"/>
        <polygon id="path-3" points="60.4589091 0.504954793 60.4589091 37.316171 0.689297139 37.316171 0.689297139 0.504954793"/>
    </defs>
    <g id="Homepage" stroke="none" stroke-width="1" fill="#00B7F0" fill-rule="evenodd">
        <g id="Roll-Down-Menu" transform="translate(-60.000000, -49.000000)">
            <g id="A10_logo-all-white" transform="translate(60.000000, 49.000000)">
                <g id="Group-4" transform="translate(0.000000, 8.000000)">
                    <mask id="mask-2" fill="#00B7F0">
                        <use xlink:href="#path-1"/>
                    </mask>
                    <g id="Clip-2"/>
                    <path d="M75.1381818,24.88 C74.6247273,20.9825455 61.8392727,18.1018182 46.5803636,18.4421818 C35.024,18.7003636 25.3665455,20.7345455 21.5854545,23.4014545 C21.3970909,23.8909091 21.2850909,24.3469091 21.248,24.7614545 C23.3490909,21.8770909 33.336,19.5243636 45.6349091,19.2458182 C59.7781818,18.9323636 71.6145455,21.4865455 72.0741818,24.9490909 C72.5287273,28.4130909 61.4349091,31.4785455 47.2901818,31.7927273 C39.1272727,31.9774545 31.7367273,31.2036364 26.8545455,29.8516364 C26.5207273,29.8669091 26.1970909,29.8778182 25.8836364,29.8778182 C25.4923636,29.8778182 25.1294545,29.8618182 24.784,29.8341818 C29.9556364,31.6741818 38.696,32.7716364 48.4443636,32.5512727 C63.7025455,32.2123636 75.6523636,28.7774545 75.1381818,24.88" id="Fill-1" fill="#00B7F0" mask="url(#mask-2)"/>
                    <path d="M17.8545455,6.98690909 L22.1876364,15.8894545 L22.2225455,15.9570909 L22.2436364,15.9403636 C22.2465455,15.9490909 22.248,15.9534545 22.2538182,15.9629091 L13.0967273,15.9629091 C13.2101818,15.8 13.2843636,15.6450909 13.3861818,15.4669091 C14.9367273,12.5949091 16.3061818,9.768 17.8545455,6.98690909 M25.9083636,27.8058182 L41.5316364,27.8058182 C40.3876364,26.7534545 39.5338182,25.4690909 38.8174545,24.0858182 C37.1490909,20.896 29.864,5.32072727 27.6705455,0.700363636 L13.5301818,0.700363636 L14.9083636,2.12945455 C11.0989091,9.32218182 7.19054545,16.2741818 3.14254545,23.5614545 C2.28290909,25.1345455 1.23781818,26.5141818 0,27.8058182 L8.71418182,27.8058182 C8.19127273,27.1810909 7.90690909,26.4181818 8.09309091,25.5629091 C8.47490909,23.6567273 9.76218182,22.2334545 10.6203636,20.5134545 L24.288,20.5134545 C25.0545455,21.8007273 25.816,23.1352727 26.3381818,24.5163636 C26.624,25.1345455 26.6698182,25.8050909 26.5301818,26.5141818 C26.4370909,26.9912727 26.1949091,27.4196364 25.9083636,27.8058182" id="Fill-3" fill="#00B7F0" mask="url(#mask-2)"/>
                </g>
                <path d="M62.6283636,30.6887273 C62.6283636,31.424 62.032,32.0181818 61.2989091,32.0181818 L58.8276364,32.0181818 C58.0916364,32.0181818 57.4974545,31.424 57.4974545,30.6887273 L57.4974545,17.6378182 C57.4974545,16.9054545 58.0916364,16.312 58.8276364,16.312 L61.2989091,16.312 C62.032,16.312 62.6283636,16.9054545 62.6283636,17.6378182 L62.6283636,30.6887273 Z M68.6858182,15.1192727 C67.5927273,12.096 64.4690909,12.4945455 64.4690909,12.4945455 L55.6581818,12.4945455 C55.6581818,12.4945455 52.5301818,12.096 51.4385455,15.1192727 C50.3454545,18.1418182 50.7098182,31.6356364 51.4385455,33.0414545 C52.1665455,34.4501818 52.9490909,35.8058182 55.6087273,35.8058182 L64.5185455,35.8058182 C67.1752727,35.8058182 67.9563636,34.4501818 68.6858182,33.0414545 C69.4152727,31.6356364 69.7810909,18.1418182 68.6858182,15.1192727 L68.6858182,15.1192727 Z" id="Fill-5" fill="#00B7F0"/>
                <g id="Group-9" transform="translate(18.909091, 0.000000)">
                    <mask id="mask-4" fill="#00B7F0">
                        <use xlink:href="#path-3"/>
                    </mask>
                    <g id="Clip-7"/>
                    <path d="M29.9163636,34.5010909 C29.8829091,35.2225455 30.0370909,35.336 30.3876364,35.8058182 C30.3309091,35.8058182 22.8770909,35.7927273 22.8618182,35.8058182 C23.1490909,35.4232727 23.3098182,35.0312727 23.2916364,34.5665455 C23.3098182,34.616 23.2916364,20.5010909 23.2916364,20.5010909 L21.0530909,20.5010909 C21.0247273,20.5636364 21.0530909,16.36 21.0530909,16.36 L28.1483636,12.5112727 L29.9163636,12.5112727 L29.9163636,34.5010909" id="Fill-6" fill="#00B7F0" mask="url(#mask-4)"/>
                    <path d="M60.2225455,3.09309091 C58.1665455,-2.10181818 43.2218182,0.768727273 26.8465455,9.50909091 C22.0763636,12.0501818 17.7214545,14.8109091 13.9832727,17.5767273 L14.4225455,18.4254545 C17.848,15.9425455 21.8087273,13.4581818 26.1338182,11.1498182 C41.3156364,3.05163636 55.1061818,0.227636364 56.9352727,4.84509091 C58.7672727,9.46254545 47.944,19.7730909 32.76,27.8727273 C17.5796364,35.9730909 3.78981818,38.7970909 1.95709091,34.1781818 C1.47490909,32.9549091 1.88072727,31.3316364 3.01890909,29.4538182 L2.01818182,29.4538182 C0.799272727,31.5374545 0.377454545,33.3483636 0.925818182,34.7309091 C2.984,39.9214545 17.928,37.0516364 34.3054545,28.312 C50.68,19.5789091 62.2821818,8.288 60.2225455,3.09309091" id="Fill-8" fill="#00B7F0" mask="url(#mask-4)"/>
                </g>
                <path d="M71.3709091,40.2349091 L71.576,40.2349091 C71.8130909,40.2349091 72.0065455,40.1541818 72.0065455,39.9621818 C72.0065455,39.7956364 71.8829091,39.6821818 71.6109091,39.6821818 C71.496,39.6821818 71.4174545,39.6901818 71.3709091,39.704 L71.3709091,40.2349091 Z M71.3607273,41.2749091 L70.9316364,41.2749091 L70.9316364,39.4210909 C71.1010909,39.3985455 71.3396364,39.3643636 71.6429091,39.3643636 C71.9956364,39.3643636 72.1534545,39.4210909 72.2763636,39.5112727 C72.3898182,39.5912727 72.4705455,39.7243636 72.4705455,39.9069091 C72.4705455,40.1345455 72.3003636,40.2814545 72.0858182,40.3512727 L72.0858182,40.3716364 C72.2661818,40.4269091 72.3570909,40.5752727 72.4109091,40.8218182 C72.4705455,41.1061818 72.5134545,41.208 72.5483636,41.2749091 L72.096,41.2749091 C72.0392727,41.208 72.0065455,41.0501818 71.9483636,40.8218182 C71.9149091,40.6305455 71.8021818,40.5389091 71.5650909,40.5389091 L71.3607273,40.5389091 L71.3607273,41.2749091 Z M71.6429091,38.8312727 C70.84,38.8312727 70.2181818,39.4996364 70.2181818,40.3134545 C70.2181818,41.1410909 70.84,41.7985455 71.6676364,41.7985455 C72.4705455,41.8094545 73.0792727,41.1410909 73.0792727,40.3250909 C73.0792727,39.4996364 72.4705455,38.8312727 71.656,38.8312727 L71.6429091,38.8312727 Z M71.6676364,38.4603636 C72.7185455,38.4603636 73.5556364,39.2756364 73.5556364,40.3134545 C73.5556364,41.3527273 72.7185455,42.1818182 71.656,42.1818182 C70.592,42.1818182 69.7425455,41.3527273 69.7425455,40.3134545 C69.7425455,39.2756364 70.592,38.4603636 71.656,38.4603636 L71.6676364,38.4603636 L71.6676364,38.4603636 Z" id="Fill-10" fill="#00B7F0"/>
            </g>
        </g>
    </g>
</svg>
