<svg xmlns="http://www.w3.org/2000/svg" role="img" viewBox="-2.60 -2.60 135.07 135.07"><title>Accessibility Theme Builder logo</title><mask id="a" fill="#fff"><path fill-rule="evenodd" d="M106 41.5C106 64.4198 87.4198 83 64.5 83c-5.0323 0-9.8554-.8957-14.3185-2.5364C48.1319 75.5495 47 70.1569 47 64.5 47 41.5802 65.5802 23 88.5 23c5.0323 0 9.8554.8957 14.319 2.5364C104.868 30.4505 106 35.8431 106 41.5zM64.5 81c-4.4837 0-8.7892-.7463-12.8014-2.12C49.9569 74.4262 49 69.5771 49 64.5c0-4.6438.8005-9.0965 2.2696-13.2304C55.4035 49.8005 59.8562 49 64.5 49c5.0771 0 9.9262.9569 14.38 2.6986C80.2537 55.7108 81 60.0163 81 64.5c0 4.9189-.8982 9.6236-2.5379 13.9621C74.1236 80.1018 69.4189 81 64.5 81z" clip-rule="evenodd"/></mask><path fill="#C0DB90" fill-rule="evenodd" d="M106 41.5C106 64.4198 87.4198 83 64.5 83c-5.0323 0-9.8554-.8957-14.3185-2.5364C48.1319 75.5495 47 70.1569 47 64.5 47 41.5802 65.5802 23 88.5 23c5.0323 0 9.8554.8957 14.319 2.5364C104.868 30.4505 106 35.8431 106 41.5zM64.5 81c-4.4837 0-8.7892-.7463-12.8014-2.12C49.9569 74.4262 49 69.5771 49 64.5c0-4.6438.8005-9.0965 2.2696-13.2304C55.4035 49.8005 59.8562 49 64.5 49c5.0771 0 9.9262.9569 14.38 2.6986C80.2537 55.7108 81 60.0163 81 64.5c0 4.9189-.8982 9.6236-2.5379 13.9621C74.1236 80.1018 69.4189 81 64.5 81z" clip-rule="evenodd"/><path fill="#fff" fill-opacity=".6" d="M50.1815 80.4636l-1.8459.7699.3362.806.8196.3013.6901-1.8772zm52.6375-54.9272l1.845-.7699-.336-.806-.819-.3013-.69 1.8772zM51.6986 78.88l-1.8627.7284.3377.8635.8771.3003.6479-1.8922zm-.429-27.6104l-.6697-1.8845-.8963.3185-.3185.8963 1.8845.6697zm27.6104.429l1.8922-.6479-.3003-.8771-.8635-.3377-.7284 1.8627zm-.4179 26.7635l.7071 1.8708.8445-.3192.3192-.8445-1.8708-.7071zM64.5 85C88.5244 85 108 65.5244 108 41.5h-4C104 63.3152 86.3152 81 64.5 81v4zm-15.0086-2.6592C54.1723 84.0615 59.2288 85 64.5 85v-4c-4.7934 0-9.3831-.8529-13.6285-2.4135l-1.3801 3.7543zM45 64.5c0 5.9259 1.186 11.5798 3.3356 16.7335l3.6917-1.5397C50.0777 75.0192 49 69.888 49 64.5h-4zM88.5 21C64.4756 21 45 40.4756 45 64.5h4C49 42.6848 66.6848 25 88.5 25v-4zm15.009 2.6592C98.8277 21.9385 93.7712 21 88.5 21v4c4.7934 0 9.3831.8529 13.628 2.4135l1.381-3.7543zM108 41.5c0-5.9259-1.186-11.5798-3.336-16.7335l-3.691 1.5397C102.922 30.9808 104 36.112 104 41.5h4zM51.0507 80.7722C55.2687 82.2163 59.793 83 64.5 83v-4c-4.2604 0-8.3471-.7089-12.1536-2.0121l-1.2957 3.7843zM47 64.5c0 5.3303 1.0049 10.4262 2.8359 15.1084l3.7253-1.4568C51.9088 73.9262 51 69.3239 51 64.5h-4zm2.3851-13.9001C47.8406 54.9457 47 59.6248 47 64.5h4c0-4.4124.7604-8.6388 2.1542-12.5606l-3.7691-1.3395zM64.5 47c-4.8752 0-9.5543.8406-13.9001 2.3851l1.3395 3.7691C55.8612 51.7604 60.0876 51 64.5 51v-4zm15.1084 2.8359C74.9262 48.0049 69.8303 47 64.5 47v4c4.8239 0 9.4262.9088 13.6516 2.5612l1.4568-3.7253zM83 64.5c0-4.707-.7837-9.2313-2.2278-13.4493l-3.7843 1.2957C78.2911 56.1529 79 60.2396 79 64.5h4zm-2.6671 14.6692C82.0568 74.6082 83 69.6641 83 64.5h-4c0 4.6736-.8531 9.139-2.4087 13.255l3.7416 1.4142zM64.5 83c5.1641 0 10.1082-.9432 14.6692-2.6671l-1.4142-3.7416C73.639 78.1469 69.1736 79 64.5 79v4z" mask="url(#a)"/><path fill="#29BDEC" fill-opacity=".5" fill-rule="evenodd" d="M88.5 106c22.92 0 41.5-18.5802 41.5-41.5S111.42 23 88.5 23C65.5802 23 47 41.5802 47 64.5S65.5802 106 88.5 106zm-24-25c-4.4837 0-8.7892-.7463-12.8014-2.12C49.9569 74.4262 49 69.5771 49 64.5c0-4.6438.8005-9.0965 2.2696-13.2304C55.4035 49.8005 59.8562 49 64.5 49c5.0771 0 9.9262.9569 14.38 2.6986C80.2537 55.7108 81 60.0163 81 64.5c0 4.9189-.8982 9.6236-2.5379 13.9621C74.1236 80.1018 69.4189 81 64.5 81z" clip-rule="evenodd"/><mask id="b" fill="#fff"><path fill-rule="evenodd" d="M83 64.5C83 87.4198 64.4198 106 41.5 106c-5.6569 0-11.0495-1.132-15.9636-3.181C23.8957 98.3554 23 93.5323 23 88.5 23 65.5802 41.5802 47 64.5 47c5.6569 0 11.0495 1.1319 15.9636 3.1815C82.1043 54.6446 83 59.4677 83 64.5zM64.5 81c-4.4837 0-8.7892-.7463-12.8014-2.12C49.9569 74.4262 49 69.5771 49 64.5c0-4.6438.8005-9.0965 2.2696-13.2304C55.4035 49.8005 59.8562 49 64.5 49c5.0771 0 9.9262.9569 14.38 2.6986C80.2537 55.7108 81 60.0163 81 64.5c0 4.9189-.8982 9.6236-2.5379 13.9621C74.1236 80.1018 69.4189 81 64.5 81z" clip-rule="evenodd"/></mask><path fill="#F16F76" fill-rule="evenodd" d="M83 64.5C83 87.4198 64.4198 106 41.5 106c-5.6569 0-11.0495-1.132-15.9636-3.181C23.8957 98.3554 23 93.5323 23 88.5 23 65.5802 41.5802 47 64.5 47c5.6569 0 11.0495 1.1319 15.9636 3.1815C82.1043 54.6446 83 59.4677 83 64.5zM64.5 81c-4.4837 0-8.7892-.7463-12.8014-2.12C49.9569 74.4262 49 69.5771 49 64.5c0-4.6438.8005-9.0965 2.2696-13.2304C55.4035 49.8005 59.8562 49 64.5 49c5.0771 0 9.9262.9569 14.38 2.6986C80.2537 55.7108 81 60.0163 81 64.5c0 4.9189-.8982 9.6236-2.5379 13.9621C74.1236 80.1018 69.4189 81 64.5 81z" clip-rule="evenodd"/><path fill="#fff" fill-opacity=".6" d="M25.5364 102.819l-1.8772.69.3013.819.806.336.7699-1.845zm54.9272-52.6375l1.8772-.6901-.3013-.8196-.806-.3362-.7699 1.8459zM51.6986 78.88l-1.8627.7284.3377.8635.8771.3003.6479-1.8922zm-.429-27.6104l-.6697-1.8845-.8963.3185-.3185.8963 1.8845.6697zm27.6104.429l1.8922-.6479-.3003-.8771-.8635-.3377-.7284 1.8627zm-.4179 26.7635l.7071 1.8708.8445-.3192.3192-.8445-1.8708-.7071zM41.5 108C65.5244 108 85 88.5244 85 64.5h-4C81 86.3152 63.3152 104 41.5 104v4zm-16.7335-3.336C29.9202 106.814 35.5741 108 41.5 108v-4c-5.388 0-10.5192-1.078-15.1938-3.027l-1.5397 3.691zM21 88.5c0 5.2712.9385 10.3277 2.6592 15.009l3.7543-1.381C25.8529 97.8831 25 93.2934 25 88.5h-4zM64.5 45C40.4756 45 21 64.4756 21 88.5h4C25 66.6848 42.6848 49 64.5 49v-4zm16.7335 3.3356C76.0798 46.186 70.4259 45 64.5 45v4c5.388 0 10.5192 1.0777 15.1938 3.0273l1.5397-3.6917zM85 64.5c0-5.2712-.9385-10.3277-2.6592-15.0086l-3.7543 1.3801C80.1471 55.1169 81 59.7066 81 64.5h4zM51.0507 80.7722C55.2687 82.2163 59.793 83 64.5 83v-4c-4.2604 0-8.3471-.7089-12.1536-2.0121l-1.2957 3.7843zM47 64.5c0 5.3303 1.0049 10.4262 2.8359 15.1084l3.7253-1.4568C51.9088 73.9262 51 69.3239 51 64.5h-4zm2.3851-13.9001C47.8406 54.9457 47 59.6248 47 64.5h4c0-4.4124.7604-8.6388 2.1542-12.5606l-3.7691-1.3395zM64.5 47c-4.8752 0-9.5543.8406-13.9001 2.3851l1.3395 3.7691C55.8612 51.7604 60.0876 51 64.5 51v-4zm15.1084 2.8359C74.9262 48.0049 69.8303 47 64.5 47v4c4.8239 0 9.4262.9088 13.6516 2.5612l1.4568-3.7253zM83 64.5c0-4.707-.7837-9.2313-2.2278-13.4493l-3.7843 1.2957C78.2911 56.1529 79 60.2396 79 64.5h4zm-2.6671 14.6692C82.0568 74.6082 83 69.6641 83 64.5h-4c0 4.6736-.8531 9.139-2.4087 13.255l3.7416 1.4142zM64.5 83c5.1641 0 10.1082-.9432 14.6692-2.6671l-1.4142-3.7416C73.639 78.1469 69.1736 79 64.5 79v4z" mask="url(#b)"/><path fill="#F1C75F" fill-rule="evenodd" d="M41.5 23c-5.4819 0-10.7156 1.0629-15.5061 2.9939C24.0629 30.7844 23 36.0181 23 41.5 23 64.4198 41.5802 83 64.5 83c5.4819 0 10.7156-1.0629 15.5061-2.9939C81.9371 75.2156 83 69.9819 83 64.5 83 41.5802 64.4198 23 41.5 23zm23 58c-4.4837 0-8.7892-.7463-12.8014-2.12C49.9569 74.4262 49 69.5771 49 64.5c0-4.6438.8005-9.0965 2.2696-13.2304C55.4035 49.8005 59.8562 49 64.5 49c5.0771 0 9.9262.9569 14.38 2.6986C80.2537 55.7108 81 60.0163 81 64.5c0 4.9189-.8982 9.6236-2.5379 13.9621C74.1236 80.1018 69.4189 81 64.5 81z" clip-rule="evenodd"/><path fill="#fff" fill-opacity=".6" fill-rule="evenodd" d="M51.6983 78.8794l.0003.0006c3.7072 1.2693 7.6647 2.0029 11.7819 2.1071.3388.0086.6786.0129 1.0195.0129 4.9188 0 9.6236-.8982 13.9621-2.5379.1167-.3088.2297-.6195.3388-.932C80.2251 73.4527 81 69.0687 81 64.5c0-.5406-.0109-1.0786-.0324-1.6139-.1567-3.9039-.8795-7.6591-2.0876-11.1875l-.0006-.0003C74.4257 49.9568 69.5769 49 64.5 49c-4.6438 0-9.0965.8005-13.2304 2.2696C49.8005 55.4035 49 59.8562 49 64.5c0 5.0769.9568 9.9257 2.6983 14.3794zm26.2393-29.6556C73.723 47.7822 69.2027 47 64.5 47c-4.8752 0-9.5543.8406-13.9001 2.3851l-.8963.3185-.3185.8963C47.8406 54.9457 47 59.6248 47 64.5c0 4.7027.7822 9.223 2.2238 13.4376C34.994 71.9648 25 57.8995 25 41.5c0-4.9189.8982-9.6236 2.5379-13.9621C31.8764 25.8982 36.5811 25 41.5 25c16.3995 0 30.4648 9.994 36.4376 24.2238zm2.5213.9447c.1069.2905.2106.5825.3111.8759a.15724.15724 0 0 1 .0022.0063C82.2163 55.2687 83 59.793 83 64.5c0 5.1641-.9432 10.1082-2.6671 14.6692-.0023.0063-.0047.0125-.0071.0188a40.6394 40.6394 0 0 1-.3197.8181 40.5307 40.5307 0 0 1-.823.3216c-.0047.0017-.0093.0035-.0139.0052C74.6082 82.0568 69.6641 83 64.5 83c-4.707 0-9.2313-.7837-13.4493-2.2278a.62508.62508 0 0 0-.0146-.005 41.27606 41.27606 0 0 1-.8676-.3083C34.3108 74.6236 23 59.3827 23 41.5c0-5.4819 1.0629-10.7156 2.9939-15.5061C30.7844 24.0629 36.0181 23 41.5 23c17.8827 0 33.1236 11.3108 38.9589 27.1685z" clip-rule="evenodd"/><path fill="#EC2958" fill-opacity=".5" fill-rule="evenodd" d="M64.5 130c22.9198 0 41.5-18.58 41.5-41.5C106 65.5802 87.4198 47 64.5 47S23 65.5802 23 88.5c0 22.92 18.5802 41.5 41.5 41.5zm0-49c-4.4837 0-8.7892-.7463-12.8014-2.12C49.9569 74.4262 49 69.5771 49 64.5c0-4.6438.8005-9.0965 2.2696-13.2304C55.4035 49.8005 59.8562 49 64.5 49c5.0771 0 9.9262.9569 14.38 2.6986C80.2537 55.7108 81 60.0163 81 64.5c0 4.9189-.8982 9.6236-2.5379 13.9621C74.1236 80.1018 69.4189 81 64.5 81z" clip-rule="evenodd"/><path fill="#EC6B29" fill-opacity=".5" fill-rule="evenodd" d="M106 41.5C106 64.4198 87.4198 83 64.5 83c-5.0323 0-9.8554-.8957-14.3185-2.5364C48.1319 75.5495 47 70.1569 47 64.5 47 41.5802 65.5802 23 88.5 23c5.0323 0 9.8554.8957 14.319 2.5364C104.868 30.4505 106 35.8431 106 41.5zM64.5 81c-4.4837 0-8.7892-.7463-12.8014-2.12C49.9569 74.4262 49 69.5771 49 64.5c0-4.6438.8005-9.0965 2.2696-13.2304C55.4035 49.8005 59.8562 49 64.5 49c5.0771 0 9.9262.9569 14.38 2.6986C80.2537 55.7108 81 60.0163 81 64.5c0 4.9189-.8982 9.6236-2.5379 13.9621C74.1236 80.1018 69.4189 81 64.5 81z" clip-rule="evenodd"/><path fill="#fff" fill-opacity=".6" fill-rule="evenodd" d="M49.839 79.6162c.1111.284.2253.5665.3425.8474.285.1048.5715.2066.8594.3052.0033.0011.0066.0023.0098.0034C55.2687 82.2163 59.793 83 64.5 83c5.1641 0 10.1082-.9432 14.6692-2.6671.005-.0018.01-.0037.015-.0056.2795-.1058.5577-.2145.8343-.3261C95.2507 73.8557 106 58.9332 106 41.5c0-5.6569-1.132-11.0495-3.181-15.9636C98.3554 23.8957 93.5323 23 88.5 23c-17.7056 0-32.8215 11.0879-38.7828 26.6988a41.2919 41.2919 0 0 0-.3289.8922c-.0011.0029-.0021.0059-.0032.0089C47.8406 54.9457 47 59.6248 47 64.5c0 5.3303 1.0049 10.4262 2.8359 15.1084a.25271.25271 0 0 1 .0031.0078zm1.4313-28.3468c-.0002.0001-.0005.0001-.0007.0002-1.3612 3.8304-2.1485 7.9346-2.2567 12.2109-.0086.3388-.0129.6786-.0129 1.0195 0 5.0771.9569 9.9262 2.6986 14.38.259.0887.5193.1748.7808.2582C56.2675 80.347 60.3058 81 64.5 81c.5413 0 1.08-.0109 1.6159-.0325 4.334-.1742 8.4851-1.0461 12.3462-2.5054.0001-.0002.0002-.0004.0003-.0007C80.1019 74.1231 81 69.4186 81 64.5c0-4.4837-.7463-8.7892-2.12-12.8014C74.4262 49.9569 69.5771 49 64.5 49c-4.6436 0-9.0961.8004-13.2297 2.2694zm29.6781 26.1535C82.28 73.3557 83 69.0118 83 64.5c0-4.707-.7837-9.2313-2.2278-13.4493l-.3003-.8771-.8635-.3377C74.9262 48.0049 69.8303 47 64.5 47c-4.2737 0-8.3967.646-12.2766 1.8458C58.2852 34.8173 72.2461 25 88.5 25c4.4837 0 8.7892.7463 12.801 2.12C103.043 31.5738 104 36.4229 104 41.5c0 15.9454-9.4482 29.684-23.0516 35.9229z" clip-rule="evenodd"/><path fill="#ECD929" fill-opacity=".5" fill-rule="evenodd" d="M64.5 83C87.4198 83 106 64.4198 106 41.5S87.4198 0 64.5 0 23 18.5802 23 41.5 41.5802 83 64.5 83zm0-2c-4.4837 0-8.7892-.7463-12.8014-2.12C49.9569 74.4262 49 69.5771 49 64.5c0-4.6438.8005-9.0965 2.2696-13.2304C55.4035 49.8005 59.8562 49 64.5 49c5.0771 0 9.9262.9569 14.38 2.6986C80.2537 55.7108 81 60.0163 81 64.5c0 4.9189-.8982 9.6236-2.5379 13.9621C74.1236 80.1018 69.4189 81 64.5 81z" clip-rule="evenodd"/><mask id="c" fill="#fff"><path fill-rule="evenodd" d="M83 64.5c0 5.4819-1.0629 10.7156-2.9939 15.5061C75.2156 81.9371 69.9819 83 64.5 83c-14.196 0-26.7273-7.1279-34.21-18 7.4827-10.8721 20.014-18 34.21-18 5.6569 0 11.0495 1.1319 15.9636 3.1815C82.1043 54.6446 83 59.4677 83 64.5zM64.5 81c-4.4837 0-8.7892-.7463-12.8014-2.12C49.9569 74.4262 49 69.5771 49 64.5c0-4.6438.8005-9.0965 2.2696-13.2304C55.4035 49.8005 59.8562 49 64.5 49c5.0771 0 9.9262.9569 14.38 2.6986C80.2537 55.7108 81 60.0163 81 64.5c0 4.9189-.8982 9.6236-2.5379 13.9621C74.1236 80.1018 69.4189 81 64.5 81z" clip-rule="evenodd"/></mask><path fill="#EC6B29" fill-opacity=".5" fill-rule="evenodd" d="M83 64.5c0 5.4819-1.0629 10.7156-2.9939 15.5061C75.2156 81.9371 69.9819 83 64.5 83c-14.196 0-26.7273-7.1279-34.21-18 7.4827-10.8721 20.014-18 34.21-18 5.6569 0 11.0495 1.1319 15.9636 3.1815C82.1043 54.6446 83 59.4677 83 64.5zM64.5 81c-4.4837 0-8.7892-.7463-12.8014-2.12C49.9569 74.4262 49 69.5771 49 64.5c0-4.6438.8005-9.0965 2.2696-13.2304C55.4035 49.8005 59.8562 49 64.5 49c5.0771 0 9.9262.9569 14.38 2.6986C80.2537 55.7108 81 60.0163 81 64.5c0 4.9189-.8982 9.6236-2.5379 13.9621C74.1236 80.1018 69.4189 81 64.5 81z" clip-rule="evenodd"/><path fill="#fff" fill-opacity=".6" d="M80.0061 80.0061l.7477 1.855.7892-.3181.3181-.7892-1.855-.7477zM30.29 65l-1.6475-1.1339L27.8621 65l.7804 1.1339L30.29 65zm50.1736-14.8185l1.8772-.6901-.3013-.8196-.806-.3362-.7699 1.8459zM51.6986 78.88l-1.8627.7284.3377.8635.8771.3003.6479-1.8922zm-.429-27.6104l-.6697-1.8845-.8963.3185-.3185.8963 1.8845.6697zm27.6104.429l1.8922-.6479-.3003-.8771-.8635-.3377-.7284 1.8627zm-.4179 26.7635l.7071 1.8708.8445-.3192.3192-.8445-1.8708-.7071zm3.399 2.2917C83.8862 75.7296 85 70.2424 85 64.5h-4c0 5.2214-1.0121 10.2015-2.8488 14.7585l3.7099 1.4953zM64.5 85c5.7424 0 11.2296-1.1138 16.2538-3.1389l-1.4954-3.7099C74.7015 79.9879 69.7214 81 64.5 81v4zM28.6425 66.1339C36.4824 77.525 49.618 85 64.5 85v-4c-13.5101 0-25.437-6.7808-32.5625-17.1339l-3.295 2.2678zM64.5 45c-14.882 0-28.0176 7.475-35.8575 18.8661l3.295 2.2678C39.063 55.7808 50.9899 49 64.5 49v-4zm16.7335 3.3356C76.0798 46.186 70.4259 45 64.5 45v4c5.388 0 10.5192 1.0777 15.1938 3.0273l1.5397-3.6917zM85 64.5c0-5.2712-.9385-10.3277-2.6592-15.0086l-3.7543 1.3801C80.1471 55.1169 81 59.7066 81 64.5h4zM51.0507 80.7722C55.2687 82.2163 59.793 83 64.5 83v-4c-4.2604 0-8.3471-.7089-12.1536-2.0121l-1.2957 3.7843zM47 64.5c0 5.3303 1.0049 10.4262 2.8359 15.1084l3.7253-1.4568C51.9088 73.9262 51 69.3239 51 64.5h-4zm2.3851-13.9001C47.8406 54.9457 47 59.6248 47 64.5h4c0-4.4124.7604-8.6388 2.1542-12.5606l-3.7691-1.3395zM64.5 47c-4.8752 0-9.5543.8406-13.9001 2.3851l1.3395 3.7691C55.8612 51.7604 60.0876 51 64.5 51v-4zm15.1084 2.8359C74.9262 48.0049 69.8303 47 64.5 47v4c4.8239 0 9.4262.9088 13.6516 2.5612l1.4568-3.7253zM83 64.5c0-4.707-.7837-9.2313-2.2278-13.4493l-3.7843 1.2957C78.2911 56.1529 79 60.2396 79 64.5h4zm-2.6671 14.6692C82.0568 74.6082 83 69.6641 83 64.5h-4c0 4.6736-.8531 9.139-2.4087 13.255l3.7416 1.4142zM64.5 83c5.1641 0 10.1082-.9432 14.6692-2.6671l-1.4142-3.7416C73.639 78.1469 69.1736 79 64.5 79v4z" mask="url(#c)"/><mask id="d" fill="#fff"><path fill-rule="evenodd" d="M83 64.5c0 5.4819-1.0629 10.7156-2.9939 15.5061C75.2156 81.9371 69.9819 83 64.5 83c-14.196 0-26.7273-7.1279-34.21-18 7.4827-10.8721 20.014-18 34.21-18 5.6569 0 11.0495 1.1319 15.9636 3.1815C82.1043 54.6446 83 59.4677 83 64.5zM64.5 81c-4.4837 0-8.7892-.7463-12.8014-2.12C49.9569 74.4262 49 69.5771 49 64.5c0-4.6438.8005-9.0965 2.2696-13.2304C55.4035 49.8005 59.8562 49 64.5 49c5.0771 0 9.9262.9569 14.38 2.6986C80.2537 55.7108 81 60.0163 81 64.5c0 4.9189-.8982 9.6236-2.5379 13.9621C74.1236 80.1018 69.4189 81 64.5 81z" clip-rule="evenodd"/></mask><path fill="#EC6B29" fill-opacity=".5" fill-rule="evenodd" d="M83 64.5c0 5.4819-1.0629 10.7156-2.9939 15.5061C75.2156 81.9371 69.9819 83 64.5 83c-14.196 0-26.7273-7.1279-34.21-18 7.4827-10.8721 20.014-18 34.21-18 5.6569 0 11.0495 1.1319 15.9636 3.1815C82.1043 54.6446 83 59.4677 83 64.5zM64.5 81c-4.4837 0-8.7892-.7463-12.8014-2.12C49.9569 74.4262 49 69.5771 49 64.5c0-4.6438.8005-9.0965 2.2696-13.2304C55.4035 49.8005 59.8562 49 64.5 49c5.0771 0 9.9262.9569 14.38 2.6986C80.2537 55.7108 81 60.0163 81 64.5c0 4.9189-.8982 9.6236-2.5379 13.9621C74.1236 80.1018 69.4189 81 64.5 81z" clip-rule="evenodd"/><path fill="#fff" fill-opacity=".6" d="M80.0061 80.0061l.7477 1.855.7892-.3181.3181-.7892-1.855-.7477zM30.29 65l-1.6475-1.1339L27.8621 65l.7804 1.1339L30.29 65zm50.1736-14.8185l1.8772-.6901-.3013-.8196-.806-.3362-.7699 1.8459zM51.6986 78.88l-1.8627.7284.3377.8635.8771.3003.6479-1.8922zm-.429-27.6104l-.6697-1.8845-.8963.3185-.3185.8963 1.8845.6697zm27.6104.429l1.8922-.6479-.3003-.8771-.8635-.3377-.7284 1.8627zm-.4179 26.7635l.7071 1.8708.8445-.3192.3192-.8445-1.8708-.7071zm3.399 2.2917C83.8862 75.7296 85 70.2424 85 64.5h-4c0 5.2214-1.0121 10.2015-2.8488 14.7585l3.7099 1.4953zM64.5 85c5.7424 0 11.2296-1.1138 16.2538-3.1389l-1.4954-3.7099C74.7015 79.9879 69.7214 81 64.5 81v4zM28.6425 66.1339C36.4824 77.525 49.618 85 64.5 85v-4c-13.5101 0-25.437-6.7808-32.5625-17.1339l-3.295 2.2678zM64.5 45c-14.882 0-28.0176 7.475-35.8575 18.8661l3.295 2.2678C39.063 55.7808 50.9899 49 64.5 49v-4zm16.7335 3.3356C76.0798 46.186 70.4259 45 64.5 45v4c5.388 0 10.5192 1.0777 15.1938 3.0273l1.5397-3.6917zM85 64.5c0-5.2712-.9385-10.3277-2.6592-15.0086l-3.7543 1.3801C80.1471 55.1169 81 59.7066 81 64.5h4zM51.0507 80.7722C55.2687 82.2163 59.793 83 64.5 83v-4c-4.2604 0-8.3471-.7089-12.1536-2.0121l-1.2957 3.7843zM47 64.5c0 5.3303 1.0049 10.4262 2.8359 15.1084l3.7253-1.4568C51.9088 73.9262 51 69.3239 51 64.5h-4zm2.3851-13.9001C47.8406 54.9457 47 59.6248 47 64.5h4c0-4.4124.7604-8.6388 2.1542-12.5606l-3.7691-1.3395zM64.5 47c-4.8752 0-9.5543.8406-13.9001 2.3851l1.3395 3.7691C55.8612 51.7604 60.0876 51 64.5 51v-4zm15.1084 2.8359C74.9262 48.0049 69.8303 47 64.5 47v4c4.8239 0 9.4262.9088 13.6516 2.5612l1.4568-3.7253zM83 64.5c0-4.707-.7837-9.2313-2.2278-13.4493l-3.7843 1.2957C78.2911 56.1529 79 60.2396 79 64.5h4zm-2.6671 14.6692C82.0568 74.6082 83 69.6641 83 64.5h-4c0 4.6736-.8531 9.139-2.4087 13.255l3.7416 1.4142zM64.5 83c5.1641 0 10.1082-.9432 14.6692-2.6671l-1.4142-3.7416C73.639 78.1469 69.1736 79 64.5 79v4z" mask="url(#d)"/><mask id="e" fill="#fff"><path fill-rule="evenodd" d="M64.5 83c14.196 0 26.7273-7.1279 34.21-18-7.4827-10.8721-20.014-18-34.21-18-5.2092 0-10.1942.9598-14.7879 2.7121C47.9598 54.3058 47 59.2908 47 64.5c0 5.6569 1.1319 11.0495 3.1815 15.9636C54.6446 82.1043 59.4677 83 64.5 83zm0-2c-4.4837 0-8.7892-.7463-12.8014-2.12C49.9569 74.4262 49 69.5771 49 64.5c0-4.6438.8005-9.0965 2.2696-13.2304C55.4035 49.8005 59.8562 49 64.5 49c5.0771 0 9.9262.9569 14.38 2.6986C80.2537 55.7108 81 60.0163 81 64.5c0 4.9189-.8982 9.6236-2.5379 13.9621C74.1236 80.1018 69.4189 81 64.5 81z" clip-rule="evenodd"/></mask><path fill="#EC6B29" fill-opacity=".5" fill-rule="evenodd" d="M64.5 83c14.196 0 26.7273-7.1279 34.21-18-7.4827-10.8721-20.014-18-34.21-18-5.2092 0-10.1942.9598-14.7879 2.7121C47.9598 54.3058 47 59.2908 47 64.5c0 5.6569 1.1319 11.0495 3.1815 15.9636C54.6446 82.1043 59.4677 83 64.5 83zm0-2c-4.4837 0-8.7892-.7463-12.8014-2.12C49.9569 74.4262 49 69.5771 49 64.5c0-4.6438.8005-9.0965 2.2696-13.2304C55.4035 49.8005 59.8562 49 64.5 49c5.0771 0 9.9262.9569 14.38 2.6986C80.2537 55.7108 81 60.0163 81 64.5c0 4.9189-.8982 9.6236-2.5379 13.9621C74.1236 80.1018 69.4189 81 64.5 81z" clip-rule="evenodd"/><path fill="#fff" fill-opacity=".6" d="M98.71 65l1.647 1.1339.781-1.1339-.781-1.1339L98.71 65zM49.7121 49.7121l-.7128-1.8686-.8367.3191-.3191.8367 1.8686.7128zm.4694 30.7515l-1.8459.7699.3362.806.8196.3013.6901-1.8772zm1.5171-1.5836l-1.8627.7284.3377.8635.8771.3003.6479-1.8922zm-.429-27.6104l-.6697-1.8845-.8963.3185-.3185.8963 1.8845.6697zm27.6104.429l1.8922-.6479-.3003-.8771-.8635-.3377-.7284 1.8627zm-.4179 26.7635l.7071 1.8708.8445-.3192.3192-.8445-1.8708-.7071zm18.6003-14.596C89.937 74.2192 78.0101 81 64.5 81v4c14.882 0 28.0176-7.475 35.857-18.8661l-3.2946-2.2678zM64.5 49c13.5101 0 25.437 6.7808 32.5624 17.1339l3.2946-2.2678C92.5176 52.475 79.382 45 64.5 45v4zm-14.075 2.5808C54.7946 49.9139 59.5382 49 64.5 49v-4c-5.4566 0-10.683 1.0056-15.5007 2.8435l1.4257 3.7373zM49 64.5c0-4.9618.9139-9.7054 2.5808-14.075l-3.7373-1.4257C46.0056 53.817 45 59.0434 45 64.5h4zm3.0273 15.1938C50.0777 75.0192 49 69.888 49 64.5h-4c0 5.9259 1.186 11.5798 3.3356 16.7335l3.6917-1.5397zM64.5 81c-4.7934 0-9.3831-.8529-13.6285-2.4135l-1.3801 3.7543C54.1723 84.0615 59.2288 85 64.5 85v-4zm-13.4493-.2278C55.2687 82.2163 59.793 83 64.5 83v-4c-4.2604 0-8.3471-.7089-12.1536-2.0121l-1.2957 3.7843zM47 64.5c0 5.3303 1.0049 10.4262 2.8359 15.1084l3.7253-1.4568C51.9088 73.9262 51 69.3239 51 64.5h-4zm2.3851-13.9001C47.8406 54.9457 47 59.6248 47 64.5h4c0-4.4124.7604-8.6388 2.1542-12.5606l-3.7691-1.3395zM64.5 47c-4.8752 0-9.5543.8406-13.9001 2.3851l1.3395 3.7691C55.8612 51.7604 60.0876 51 64.5 51v-4zm15.1084 2.8359C74.9262 48.0049 69.8303 47 64.5 47v4c4.8239 0 9.4262.9088 13.6516 2.5612l1.4568-3.7253zM83 64.5c0-4.707-.7837-9.2313-2.2278-13.4493l-3.7843 1.2957C78.2911 56.1529 79 60.2396 79 64.5h4zm-2.6671 14.6692C82.0568 74.6082 83 69.6641 83 64.5h-4c0 4.6736-.8531 9.139-2.4087 13.255l3.7416 1.4142zM64.5 83c5.1641 0 10.1082-.9432 14.6692-2.6671l-1.4142-3.7416C73.639 78.1469 69.1736 79 64.5 79v4z" mask="url(#e)"/><path fill="#EC6B29" fill-opacity=".5" fill-rule="evenodd" d="M41.5 106C64.4198 106 83 87.4198 83 64.5S64.4198 23 41.5 23 0 41.5802 0 64.5 18.5802 106 41.5 106zm23-25c-4.4837 0-8.7892-.7463-12.8014-2.12C49.9569 74.4262 49 69.5771 49 64.5c0-4.6438.8005-9.0965 2.2696-13.2304C55.4035 49.8005 59.8562 49 64.5 49c5.0771 0 9.9262.9569 14.38 2.6986C80.2537 55.7108 81 60.0163 81 64.5c0 4.9189-.8982 9.6236-2.5379 13.9621C74.1236 80.1018 69.4189 81 64.5 81z" clip-rule="evenodd"/><mask id="f" fill="#fff"><path fill-rule="evenodd" d="M64.5 47c-5.2092 0-10.1942.9598-14.7879 2.7121C47.9598 54.3058 47 59.2908 47 64.5 47 87.4198 65.5802 106 88.5 106c5.2092 0 10.1942-.96 14.788-2.712C105.04 98.6942 106 93.7092 106 88.5 106 65.5802 87.4198 47 64.5 47zm0 34c-4.4837 0-8.7892-.7463-12.8014-2.12C49.9569 74.4262 49 69.5771 49 64.5c0-4.6438.8005-9.0965 2.2696-13.2304C55.4035 49.8005 59.8562 49 64.5 49c5.0771 0 9.9262.9569 14.38 2.6986C80.2537 55.7108 81 60.0163 81 64.5c0 4.9189-.8982 9.6236-2.5379 13.9621C74.1236 80.1018 69.4189 81 64.5 81z" clip-rule="evenodd"/></mask><path fill="#C083A7" fill-rule="evenodd" d="M64.5 47c-5.2092 0-10.1942.9598-14.7879 2.7121C47.9598 54.3058 47 59.2908 47 64.5 47 87.4198 65.5802 106 88.5 106c5.2092 0 10.1942-.96 14.788-2.712C105.04 98.6942 106 93.7092 106 88.5 106 65.5802 87.4198 47 64.5 47zm0 34c-4.4837 0-8.7892-.7463-12.8014-2.12C49.9569 74.4262 49 69.5771 49 64.5c0-4.6438.8005-9.0965 2.2696-13.2304C55.4035 49.8005 59.8562 49 64.5 49c5.0771 0 9.9262.9569 14.38 2.6986C80.2537 55.7108 81 60.0163 81 64.5c0 4.9189-.8982 9.6236-2.5379 13.9621C74.1236 80.1018 69.4189 81 64.5 81z" clip-rule="evenodd"/><path fill="#fff" fill-opacity=".6" d="M49.7121 49.7121l-.7128-1.8686-.8367.3191-.3191.8367 1.8686.7128zm53.5759 53.5759l.713 1.869.836-.32.32-.836-1.869-.713zM51.6986 78.88l-1.8627.7284.3377.8635.8771.3003.6479-1.8922zm-.429-27.6104l-.6697-1.8845-.8963.3185-.3185.8963 1.8845.6697zm27.6104.429l1.8922-.6479-.3003-.8771-.8635-.3377-.7284 1.8627zm-.4179 26.7635l.7071 1.8708.8445-.3192.3192-.8445-1.8708-.7071zM50.425 51.5808C54.7946 49.9139 59.5382 49 64.5 49v-4c-5.4566 0-10.683 1.0056-15.5007 2.8435l1.4257 3.7373zM49 64.5c0-4.9618.9139-9.7054 2.5808-14.075l-3.7373-1.4257C46.0056 53.817 45 59.0434 45 64.5h4zM88.5 104C66.6848 104 49 86.3152 49 64.5h-4C45 88.5244 64.4756 108 88.5 108v-4zm14.075-2.581C98.2054 103.086 93.4618 104 88.5 104v4c5.4566 0 10.683-1.006 15.501-2.843l-1.426-3.738zM104 88.5c0 4.9618-.914 9.7055-2.581 14.075l3.738 1.426C106.994 99.183 108 93.9566 108 88.5h-4zM64.5 49C86.3152 49 104 66.6848 104 88.5h4C108 64.4756 88.5244 45 64.5 45v4zM51.0507 80.7722C55.2687 82.2163 59.793 83 64.5 83v-4c-4.2604 0-8.3471-.7089-12.1536-2.0121l-1.2957 3.7843zM47 64.5c0 5.3303 1.0049 10.4262 2.8359 15.1084l3.7253-1.4568C51.9088 73.9262 51 69.3239 51 64.5h-4zm2.3851-13.9001C47.8406 54.9457 47 59.6248 47 64.5h4c0-4.4124.7604-8.6388 2.1542-12.5606l-3.7691-1.3395zM64.5 47c-4.8752 0-9.5543.8406-13.9001 2.3851l1.3395 3.7691C55.8612 51.7604 60.0876 51 64.5 51v-4zm15.1084 2.8359C74.9262 48.0049 69.8303 47 64.5 47v4c4.8239 0 9.4262.9088 13.6516 2.5612l1.4568-3.7253zM83 64.5c0-4.707-.7837-9.2313-2.2278-13.4493l-3.7843 1.2957C78.2911 56.1529 79 60.2396 79 64.5h4zm-2.6671 14.6692C82.0568 74.6082 83 69.6641 83 64.5h-4c0 4.6736-.8531 9.139-2.4087 13.255l3.7416 1.4142zM64.5 83c5.1641 0 10.1082-.9432 14.6692-2.6671l-1.4142-3.7416C73.639 78.1469 69.1736 79 64.5 79v4z" mask="url(#f)"/><mask id="g" fill="#fff"><path fill-rule="evenodd" d="M47 64.5c0-5.2092.9598-10.1942 2.7121-14.7879.1724-.0657.3453-.1304.5188-.1939C54.6802 47.8891 59.4863 47 64.5 47c5.6569 0 11.0495 1.1319 15.9636 3.1815C82.1043 54.6446 83 59.4677 83 64.5c0 14.196-7.1279 26.7273-18 34.21-10.8721-7.4827-18-20.014-18-34.21zM64.5 81c-4.4837 0-8.7892-.7463-12.8014-2.12C49.9569 74.4262 49 69.5771 49 64.5c0-4.6438.8005-9.0965 2.2696-13.2304C55.4035 49.8005 59.8562 49 64.5 49c5.0771 0 9.9262.9569 14.38 2.6986C80.2537 55.7108 81 60.0163 81 64.5c0 4.9189-.8982 9.6236-2.5379 13.9621C74.1236 80.1018 69.4189 81 64.5 81z" clip-rule="evenodd"/></mask><path fill="#EC6B29" fill-opacity=".5" fill-rule="evenodd" d="M47 64.5c0-5.2092.9598-10.1942 2.7121-14.7879.1724-.0657.3453-.1304.5188-.1939C54.6802 47.8891 59.4863 47 64.5 47c5.6569 0 11.0495 1.1319 15.9636 3.1815C82.1043 54.6446 83 59.4677 83 64.5c0 14.196-7.1279 26.7273-18 34.21-10.8721-7.4827-18-20.014-18-34.21zM64.5 81c-4.4837 0-8.7892-.7463-12.8014-2.12C49.9569 74.4262 49 69.5771 49 64.5c0-4.6438.8005-9.0965 2.2696-13.2304C55.4035 49.8005 59.8562 49 64.5 49c5.0771 0 9.9262.9569 14.38 2.6986C80.2537 55.7108 81 60.0163 81 64.5c0 4.9189-.8982 9.6236-2.5379 13.9621C74.1236 80.1018 69.4189 81 64.5 81z" clip-rule="evenodd"/><path fill="#fff" fill-opacity=".6" d="M49.7121 49.7121l-.7128-1.8686-.8367.3191-.3191.8367 1.8686.7128zm.5188-.1939l-.6876-1.8781.6876 1.8781zm30.2327.6633l1.8772-.6901-.3013-.8196-.806-.3362-.7699 1.8459zM65 98.71l-1.1339 1.647 1.1339.781 1.1339-.781L65 98.71zM51.6986 78.88l-1.8627.7284.3377.8635.8771.3003.6479-1.8922zm-.429-27.6104l-.6697-1.8845-.8963.3185-.3185.8963 1.8845.6697zm27.6104.429l1.8922-.6479-.3003-.8771-.8635-.3377-.7284 1.8627zm-.4179 26.7635l.7071 1.8708.8445-.3192.3192-.8445-1.8708-.7071zM47.8435 48.9993C46.0056 53.817 45 59.0434 45 64.5h4c0-4.9618.9139-9.7054 2.5808-14.075l-3.7373-1.4257zm1.6998-1.3592c-.1819.0666-.3633.1344-.544.2034l1.4257 3.7373c.164-.0626.3285-.1241.4936-.1845l-1.3753-3.7562zM64.5 45c-5.2517 0-10.2904.9315-14.9567 2.6401l1.3753 3.7562C55.1508 49.8466 59.7243 49 64.5 49v-4zm16.7335 3.3356C76.0798 46.186 70.4259 45 64.5 45v4c5.388 0 10.5192 1.0777 15.1938 3.0273l1.5397-3.6917zM85 64.5c0-5.2712-.9385-10.3277-2.6592-15.0086l-3.7543 1.3801C80.1471 55.1169 81 59.7066 81 64.5h4zm-18.8661 35.857C77.525 92.5176 85 79.382 85 64.5h-4c0 13.5101-6.7808 25.437-17.1339 32.5624l2.2678 3.2946zM45 64.5c0 14.882 7.475 28.0176 18.8661 35.857l2.2678-3.2946C55.7808 89.937 49 78.0101 49 64.5h-4zm6.0507 16.2722C55.2687 82.2163 59.793 83 64.5 83v-4c-4.2604 0-8.3471-.7089-12.1536-2.0121l-1.2957 3.7843zM47 64.5c0 5.3303 1.0049 10.4262 2.8359 15.1084l3.7253-1.4568C51.9088 73.9262 51 69.3239 51 64.5h-4zm2.3851-13.9001C47.8406 54.9457 47 59.6248 47 64.5h4c0-4.4124.7604-8.6388 2.1542-12.5606l-3.7691-1.3395zM64.5 47c-4.8752 0-9.5543.8406-13.9001 2.3851l1.3395 3.7691C55.8612 51.7604 60.0876 51 64.5 51v-4zm15.1084 2.8359C74.9262 48.0049 69.8303 47 64.5 47v4c4.8239 0 9.4262.9088 13.6516 2.5612l1.4568-3.7253zM83 64.5c0-4.707-.7837-9.2313-2.2278-13.4493l-3.7843 1.2957C78.2911 56.1529 79 60.2396 79 64.5h4zm-2.6671 14.6692C82.0568 74.6082 83 69.6641 83 64.5h-4c0 4.6736-.8531 9.139-2.4087 13.255l3.7416 1.4142zM64.5 83c5.1641 0 10.1082-.9432 14.6692-2.6671l-1.4142-3.7416C73.639 78.1469 69.1736 79 64.5 79v4z" mask="url(#g)"/><mask id="h" fill="#fff"><path fill-rule="evenodd" d="M64.5 83c14.196 0 26.7273-7.1279 34.21-18-7.4827-10.8721-20.014-18-34.21-18-5.2092 0-10.1942.9598-14.7879 2.7121C47.9598 54.3058 47 59.2908 47 64.5c0 5.6569 1.1319 11.0495 3.1815 15.9636C54.6446 82.1043 59.4677 83 64.5 83zm0-2c-4.4837 0-8.7892-.7463-12.8014-2.12C49.9569 74.4262 49 69.5771 49 64.5c0-4.6438.8005-9.0965 2.2696-13.2304C55.4035 49.8005 59.8562 49 64.5 49c5.0771 0 9.9262.9569 14.38 2.6986C80.2537 55.7108 81 60.0163 81 64.5c0 4.9189-.8982 9.6236-2.5379 13.9621C74.1236 80.1018 69.4189 81 64.5 81z" clip-rule="evenodd"/></mask><path fill="#EC6B29" fill-opacity=".5" fill-rule="evenodd" d="M64.5 83c14.196 0 26.7273-7.1279 34.21-18-7.4827-10.8721-20.014-18-34.21-18-5.2092 0-10.1942.9598-14.7879 2.7121C47.9598 54.3058 47 59.2908 47 64.5c0 5.6569 1.1319 11.0495 3.1815 15.9636C54.6446 82.1043 59.4677 83 64.5 83zm0-2c-4.4837 0-8.7892-.7463-12.8014-2.12C49.9569 74.4262 49 69.5771 49 64.5c0-4.6438.8005-9.0965 2.2696-13.2304C55.4035 49.8005 59.8562 49 64.5 49c5.0771 0 9.9262.9569 14.38 2.6986C80.2537 55.7108 81 60.0163 81 64.5c0 4.9189-.8982 9.6236-2.5379 13.9621C74.1236 80.1018 69.4189 81 64.5 81z" clip-rule="evenodd"/><path fill="#fff" fill-opacity=".6" d="M98.71 65l1.647 1.1339.781-1.1339-.781-1.1339L98.71 65zM49.7121 49.7121l-.7128-1.8686-.8367.3191-.3191.8367 1.8686.7128zm.4694 30.7515l-1.8459.7699.3362.806.8196.3013.6901-1.8772zm1.5171-1.5836l-1.8627.7284.3377.8635.8771.3003.6479-1.8922zm-.429-27.6104l-.6697-1.8845-.8963.3185-.3185.8963 1.8845.6697zm27.6104.429l1.8922-.6479-.3003-.8771-.8635-.3377-.7284 1.8627zm-.4179 26.7635l.7071 1.8708.8445-.3192.3192-.8445-1.8708-.7071zm18.6003-14.596C89.937 74.2192 78.0101 81 64.5 81v4c14.882 0 28.0176-7.475 35.857-18.8661l-3.2946-2.2678zM64.5 49c13.5101 0 25.437 6.7808 32.5624 17.1339l3.2946-2.2678C92.5176 52.475 79.382 45 64.5 45v4zm-14.075 2.5808C54.7946 49.9139 59.5382 49 64.5 49v-4c-5.4566 0-10.683 1.0056-15.5007 2.8435l1.4257 3.7373zM49 64.5c0-4.9618.9139-9.7054 2.5808-14.075l-3.7373-1.4257C46.0056 53.817 45 59.0434 45 64.5h4zm3.0273 15.1938C50.0777 75.0192 49 69.888 49 64.5h-4c0 5.9259 1.186 11.5798 3.3356 16.7335l3.6917-1.5397zM64.5 81c-4.7934 0-9.3831-.8529-13.6285-2.4135l-1.3801 3.7543C54.1723 84.0615 59.2288 85 64.5 85v-4zm-13.4493-.2278C55.2687 82.2163 59.793 83 64.5 83v-4c-4.2604 0-8.3471-.7089-12.1536-2.0121l-1.2957 3.7843zM47 64.5c0 5.3303 1.0049 10.4262 2.8359 15.1084l3.7253-1.4568C51.9088 73.9262 51 69.3239 51 64.5h-4zm2.3851-13.9001C47.8406 54.9457 47 59.6248 47 64.5h4c0-4.4124.7604-8.6388 2.1542-12.5606l-3.7691-1.3395zM64.5 47c-4.8752 0-9.5543.8406-13.9001 2.3851l1.3395 3.7691C55.8612 51.7604 60.0876 51 64.5 51v-4zm15.1084 2.8359C74.9262 48.0049 69.8303 47 64.5 47v4c4.8239 0 9.4262.9088 13.6516 2.5612l1.4568-3.7253zM83 64.5c0-4.707-.7837-9.2313-2.2278-13.4493l-3.7843 1.2957C78.2911 56.1529 79 60.2396 79 64.5h4zm-2.6671 14.6692C82.0568 74.6082 83 69.6641 83 64.5h-4c0 4.6736-.8531 9.139-2.4087 13.255l3.7416 1.4142zM64.5 83c5.1641 0 10.1082-.9432 14.6692-2.6671l-1.4142-3.7416C73.639 78.1469 69.1736 79 64.5 79v4z" mask="url(#h)"/><mask id="i" fill="#fff"><path fill-rule="evenodd" d="M50.2309 80.4818l-.0494-.0182C48.1319 75.5495 47 70.1569 47 64.5c0-14.196 7.1279-26.7273 18-34.21 10.8721 7.4827 18 20.014 18 34.21 0 5.4819-1.0629 10.7156-2.9939 15.5061C75.2156 81.9371 69.9819 83 64.5 83c-5.0137 0-9.8198-.8891-14.2691-2.5182zM64.5 81c-4.4837 0-8.7892-.7463-12.8014-2.12C49.9569 74.4262 49 69.5771 49 64.5c0-4.6438.8005-9.0965 2.2696-13.2304C55.4035 49.8005 59.8562 49 64.5 49c5.0771 0 9.9262.9569 14.38 2.6986C80.2537 55.7108 81 60.0163 81 64.5c0 4.9189-.8982 9.6236-2.5379 13.9621C74.1236 80.1018 69.4189 81 64.5 81z" clip-rule="evenodd"/></mask><path fill="#EC6B29" fill-opacity=".5" fill-rule="evenodd" d="M50.2309 80.4818l-.0494-.0182C48.1319 75.5495 47 70.1569 47 64.5c0-14.196 7.1279-26.7273 18-34.21 10.8721 7.4827 18 20.014 18 34.21 0 5.4819-1.0629 10.7156-2.9939 15.5061C75.2156 81.9371 69.9819 83 64.5 83c-5.0137 0-9.8198-.8891-14.2691-2.5182zM64.5 81c-4.4837 0-8.7892-.7463-12.8014-2.12C49.9569 74.4262 49 69.5771 49 64.5c0-4.6438.8005-9.0965 2.2696-13.2304C55.4035 49.8005 59.8562 49 64.5 49c5.0771 0 9.9262.9569 14.38 2.6986C80.2537 55.7108 81 60.0163 81 64.5c0 4.9189-.8982 9.6236-2.5379 13.9621C74.1236 80.1018 69.4189 81 64.5 81z" clip-rule="evenodd"/><path fill="#fff" fill-opacity=".6" d="M50.1815 80.4636l-1.8459.7699.3364.8067.8205.301.689-1.8776zm.0494.0182l-.6889 1.8776.0013.0005.6876-1.8781zM65 30.29l1.1339-1.6475L65 27.8621l-1.1339.7804L65 30.29zm15.0061 49.7161l.7477 1.855.7892-.3181.3181-.7892-1.855-.7477zM51.6986 78.88l-1.8627.7284.3377.8635.8771.3003.6479-1.8922zm-.429-27.6104l-.6697-1.8845-.8963.3185-.3185.8963 1.8845.6697zm27.6104.429l1.8922-.6479-.3003-.8771-.8635-.3377-.7284 1.8627zm-.4179 26.7635l.7071 1.8708.8445-.3192.3192-.8445-1.8708-.7071zm-28.9696 3.8791l.0495.0182 1.3778-3.7552-.0494-.0181-1.3779 3.7551zM45 64.5c0 5.9259 1.186 11.5798 3.3356 16.7335l3.6917-1.5397C50.0777 75.0192 49 69.888 49 64.5h-4zm18.8661-35.8575C52.475 36.4824 45 49.618 45 64.5h4c0-13.5101 6.7808-25.437 17.1339-32.5625l-2.2678-3.295zM85 64.5c0-14.882-7.475-28.0176-18.8661-35.8575l-2.2678 3.295C74.2192 39.063 81 50.9899 81 64.5h4zm-3.1389 16.2538C83.8862 75.7296 85 70.2424 85 64.5h-4c0 5.2214-1.0121 10.2015-2.8488 14.7584l3.7099 1.4954zM64.5 85c5.7424 0 11.2296-1.1138 16.2538-3.1389l-1.4954-3.7099C74.7015 79.9879 69.7214 81 64.5 81v4zm-14.9567-2.6401C54.2096 84.0685 59.2483 85 64.5 85v-4c-4.7757 0-9.3492-.8466-13.5814-2.3963l-1.3753 3.7562zm1.5074-1.5877C55.2687 82.2163 59.793 83 64.5 83v-4c-4.2604 0-8.3471-.7089-12.1536-2.0121l-1.2957 3.7843zM47 64.5c0 5.3303 1.0049 10.4262 2.8359 15.1084l3.7253-1.4568C51.9088 73.9262 51 69.3239 51 64.5h-4zm2.3851-13.9001C47.8406 54.9457 47 59.6248 47 64.5h4c0-4.4124.7604-8.6388 2.1542-12.5606l-3.7691-1.3395zM64.5 47c-4.8752 0-9.5543.8406-13.9001 2.3851l1.3395 3.7691C55.8612 51.7604 60.0876 51 64.5 51v-4zm15.1084 2.8359C74.9262 48.0049 69.8303 47 64.5 47v4c4.8239 0 9.4262.9088 13.6516 2.5612l1.4568-3.7253zM83 64.5c0-4.707-.7837-9.2313-2.2278-13.4493l-3.7843 1.2957C78.2911 56.1529 79 60.2396 79 64.5h4zm-2.6671 14.6692C82.0568 74.6082 83 69.6641 83 64.5h-4c0 4.6736-.8531 9.139-2.4087 13.255l3.7416 1.4142zM64.5 83c5.1641 0 10.1082-.9432 14.6692-2.6671l-1.4142-3.7416C73.639 78.1469 69.1736 79 64.5 79v4z" mask="url(#i)"/><path fill="#fff" fill-opacity=".6" fill-rule="evenodd" d="M49.8399 79.6186c.1126.2875.2282.5735.3469.8578C56.4445 95.4657 71.242 106 88.5 106c22.92 0 41.5-18.5802 41.5-41.5S111.42 23 88.5 23c-17.7056 0-32.8215 11.0879-38.7828 26.6988a41.2919 41.2919 0 0 0-.3289.8922c-.0011.0029-.0021.0059-.0032.0089C47.8406 54.9457 47 59.6248 47 64.5c0 5.3303 1.0049 10.4262 2.8359 15.1084.0014.0034.0027.0068.004.0102zm1.4304-28.3492c-.0002.0001-.0005.0001-.0007.0002-1.3612 3.8304-2.1485 7.9346-2.2567 12.2109a40.31692 40.31692 0 0 0 .0183 2.6051c.1776 4.5017 1.1079 8.8065 2.6674 12.7944.0002.0001.0004.0002.0006.0002C55.7113 80.2538 60.0165 81 64.5 81c4.9189 0 9.6236-.8982 13.9621-2.5379C80.1018 74.1236 81 69.4189 81 64.5c0-4.4837-.7463-8.7892-2.12-12.8014C74.4262 49.9569 69.5771 49 64.5 49c-4.6436 0-9.0961.8004-13.2297 2.2694zm1.4758 30.0426C56.4729 82.4106 60.4177 83 64.5 83c5.1641 0 10.1082-.9432 14.6692-2.6671l.8445-.3192.3192-.8445C82.0568 74.6082 83 69.6641 83 64.5c0-4.707-.7837-9.2313-2.2278-13.4493l-.3003-.8771-.8635-.3377C74.9262 48.0049 69.8303 47 64.5 47c-4.2737 0-8.3967.646-12.2766 1.8458C58.2852 34.8173 72.2461 25 88.5 25c21.815 0 39.5 17.6848 39.5 39.5S110.315 104 88.5 104c-15.8029 0-29.4384-9.2801-35.7539-22.688z" clip-rule="evenodd"/><path fill="#fff" fill-opacity=".6" fill-rule="evenodd" d="M50.1736 80.4719l-.3377-.8635C48.0049 74.9262 47 69.8303 47 64.5c0-4.2737.646-8.3967 1.8458-12.2766C34.8173 58.2852 25 72.2461 25 88.5c0 21.815 17.6848 39.5 39.5 39.5S104 110.315 104 88.5c0-15.8029-9.2801-29.4384-22.688-35.7539C82.4106 56.4729 83 60.4177 83 64.5c0 5.1641-.9432 10.1082-2.6671 14.6692l-.3192.8445-.8445.3192C74.6082 82.0568 69.6641 83 64.5 83c-4.707 0-9.2313-.7837-13.4493-2.2278l-.8771-.3003zm28.7066-28.7727c0-.0002-.0001-.0004-.0002-.0006-4.1548-1.6248-8.6535-2.5666-13.3605-2.6857A40.17314 40.17314 0 0 0 64.5 49c-.5113 0-1.0203.0097-1.5269.029-4.0936.1554-8.0248.9333-11.7035 2.2406-.0001.0002-.0001.0005-.0002.0007C49.8004 55.4039 49 59.8564 49 64.5c0 5.0771.9569 9.9262 2.6986 14.38C55.7108 80.2537 60.0163 81 64.5 81c4.9189 0 9.6236-.8982 13.9621-2.5379C80.1018 74.1236 81 69.4189 81 64.5c0-4.4835-.7462-8.7887-2.1198-12.8008zm1.5962-1.5124C95.4657 56.4445 106 71.242 106 88.5c0 22.92-18.5802 41.5-41.5 41.5S23 111.42 23 88.5c0-17.7056 11.0879-32.8215 26.6988-38.7828.297-.1134.5956-.2235.8959-.3302a.07968.07968 0 0 1 .0052-.0019C54.9457 47.8406 59.6248 47 64.5 47c5.3303 0 10.4262 1.0049 15.1084 2.8359.0049.0019.0097.0038.0146.0057.286.112.5705.2271.8534.3452z" clip-rule="evenodd"/><path fill="#fff" fill-opacity=".6" fill-rule="evenodd" d="M51.6983 78.8794l.0003.0006c3.4021 1.1648 7.015 1.8785 10.7687 2.0686.6733.0341 1.351.0514 2.0327.0514.789 0 1.5727-.0231 2.3503-.0688 4.0687-.2385 7.9693-1.0924 11.6118-2.4691.0001-.0002.0002-.0004.0003-.0007C80.1019 74.1231 81 69.4186 81 64.5c0-4.4837-.7463-8.7892-2.12-12.8014C74.4262 49.9569 69.5771 49 64.5 49c-4.6438 0-9.0965.8005-13.2304 2.2696C49.8005 55.4035 49 59.8562 49 64.5c0 5.0769.9568 9.9257 2.6983 14.3794zm29.2501-1.4565C82.28 73.3557 83 69.0118 83 64.5c0-4.707-.7837-9.2313-2.2278-13.4493l-.3003-.8771-.8635-.3377C74.9262 48.0049 69.8303 47 64.5 47c-4.8752 0-9.5543.8406-13.9001 2.3851l-.8963.3185-.3185.8963C47.8406 54.9457 47 59.6248 47 64.5c0 4.7027.7822 9.223 2.2238 13.4376C34.994 71.9648 25 57.8995 25 41.5 25 19.6848 42.6848 2 64.5 2S104 19.6848 104 41.5c0 15.9454-9.4482 29.684-23.0516 35.9229zm-.9299 2.5783C95.2507 73.8557 106 58.9332 106 41.5 106 18.5802 87.4198 0 64.5 0S23 18.5802 23 41.5c0 17.8827 11.3108 33.1236 27.1685 38.9589.2859.1052.5732.2073.862.3064.0067.0023.0135.0046.0202.0069C55.2687 82.2163 59.793 83 64.5 83c5.1641 0 10.1082-.9432 14.6692-2.6671.2846-.1075.5677-.2181.8493-.3317z" clip-rule="evenodd"/><path fill="#fff" fill-opacity=".6" fill-rule="evenodd" d="M50.1736 80.4719l-.3377-.8635C48.0049 74.9262 47 69.8303 47 64.5c0-4.8752.8406-9.5543 2.3851-13.9001l.3185-.8963.8963-.3185C54.9457 47.8406 59.6248 47 64.5 47c4.7027 0 9.223.7822 13.4376 2.2238C71.9648 34.994 57.8995 25 41.5 25 19.6848 25 2 42.6848 2 64.5S19.6848 104 41.5 104c15.9454 0 29.684-9.4482 35.9229-23.0516C73.3557 82.28 69.0118 83 64.5 83c-4.707 0-9.2313-.7837-13.4493-2.2278l-.8771-.3003zm28.2878-2.0095c.0002-.0001.0005-.0002.0007-.0003 1.4124-3.7371 2.2746-7.746 2.4865-11.9294.0341-.6733.0514-1.351.0514-2.0327 0-.789-.0231-1.5727-.0688-2.3503-.2134-3.6399-.9193-7.1451-2.0512-10.4511l-.0006-.0003C74.4257 49.9568 69.5769 49 64.5 49c-4.6438 0-9.0965.8005-13.2304 2.2696C49.8005 55.4035 49 59.8562 49 64.5c0 5.0771.9569 9.9262 2.6986 14.38C55.7108 80.2537 60.0163 81 64.5 81c4.9186 0 9.6231-.8981 13.9614-2.5376zm1.5398 1.5561C73.8557 95.2507 58.9332 106 41.5 106 18.5802 106 0 87.4198 0 64.5S18.5802 23 41.5 23c17.8827 0 33.1236 11.3108 38.9589 27.1685.1049.2852.2068.5718.3056.8599.0026.0074.0051.0149.0077.0223C82.2163 55.2687 83 59.793 83 64.5c0 5.1641-.9432 10.1082-2.6671 14.6692-.0018.0049-.0037.0098-.0055.0147a41.8157 41.8157 0 0 1-.3262.8346z" clip-rule="evenodd"/></svg>