<?xml version="1.0" encoding="UTF-8"?>
<svg id="_レイヤー_1" data-name="レイヤー_1" xmlns="http://www.w3.org/2000/svg" viewBox="0 0 1000 447.92">
  <defs>
    <style>
      .cls-1 {
        fill: none;
      }

      .cls-2 {
        fill: #c81c37;
      }

      .cls-3 {
        fill: #cfe1ec;
      }

      .cls-4 {
        fill: #231e19;
      }

      .cls-5 {
        fill: #f4d2d7;
      }
    </style>
  </defs>
  <rect class="cls-1" width="1000" height="447.92"/>
  <g>
    <rect class="cls-1" width="1000" height="447.92"/>
    <g>
      <g>
        <g>
          <polygon class="cls-3" points="869.09 214.1 843.12 211.18 880.38 266.63 754.73 351.05 640.7 181.31 766.35 96.9 803.23 151.8 810.71 127.21 772.1 69.73 613.38 176.37 748.98 378.23 907.7 271.59 869.09 214.1"/>
          <polygon class="cls-3" points="833.56 196.96 827.91 188.55 850.11 185.86 855.76 194.28 833.56 196.96"/>
          <polygon class="cls-3" points="843.11 211.17 835.15 199.32 860.54 201.39 865.31 208.49 843.11 211.17"/>
        </g>
        <g>
          <polygon class="cls-5" points="736.59 317.7 732.19 144.33 856.17 237.04 800.58 274.54 800.28 248.95 819.24 236.02 754.67 187.8 759.34 302.35 736.59 317.7"/>
          <polygon class="cls-5" points="786.94 283.74 786.65 258.14 793.83 253.23 793.99 278.98 786.94 283.74"/>
        </g>
      </g>
      <g>
        <path class="cls-4" d="M280.91,270.14c-.55,1.56-1.45,2.99-2.7,4.28-1.25,1.29-2.76,2.44-4.51,3.46-1.76,1.02-3.75,1.8-5.98,2.35-2.23.55-4.56.82-6.98.82-5.16,0-9.6-.72-13.31-2.17-3.71-1.45-6.78-3.52-9.21-6.21-2.42-2.7-4.22-5.94-5.39-9.73-1.17-3.79-1.76-7.99-1.76-12.61,0-9.93,2.71-17.53,8.15-22.81,5.43-5.28,13.15-7.91,23.16-7.91,3.83,0,7.35.41,10.55,1.23,3.2.82,5.86,1.78,7.97,2.87-.16,1.33-.37,2.8-.65,4.4-.27,1.6-.59,3.21-.94,4.81-.35,1.6-.76,3.17-1.23,4.69-.47,1.52-.94,2.8-1.41,3.81h-5.75l-4.93-13.95c-.55-.39-1.13-.68-1.76-.88-.63-.19-1.56-.29-2.81-.29-2.03,0-3.79.37-5.28,1.11-1.49.74-2.76,2.01-3.81,3.81-1.06,1.8-1.84,4.18-2.35,7.15-.51,2.97-.76,6.65-.76,11.02,0,3.21.35,6.16,1.06,8.85.7,2.7,1.78,5.04,3.22,7.04,1.45,1.99,3.26,3.56,5.45,4.69,2.19,1.13,4.77,1.7,7.74,1.7,2.74,0,5.12-.39,7.15-1.17,2.03-.78,3.75-1.72,5.16-2.81l1.88,2.46Z"/>
        <path class="cls-4" d="M287.82,250.32c0-4.77.72-9.05,2.17-12.84,1.45-3.79,3.52-7.02,6.21-9.67,2.7-2.66,5.96-4.69,9.79-6.1,3.83-1.41,8.17-2.11,13.01-2.11,5.47,0,10.18.76,14.13,2.29,3.95,1.52,7.19,3.64,9.73,6.33,2.54,2.7,4.4,5.94,5.57,9.73,1.17,3.79,1.76,7.91,1.76,12.37,0,4.77-.7,9.05-2.11,12.84-1.41,3.79-3.46,7.02-6.16,9.67-2.7,2.66-5.98,4.69-9.85,6.1-3.87,1.41-8.23,2.11-13.08,2.11-5.32,0-9.93-.76-13.84-2.29-3.91-1.52-7.15-3.64-9.73-6.33-2.58-2.7-4.5-5.94-5.75-9.73-1.25-3.79-1.88-7.91-1.88-12.37ZM306,250.32c0,3.52.21,6.74.64,9.67.43,2.93,1.19,5.41,2.29,7.45,1.09,2.03,2.58,3.62,4.46,4.75,1.87,1.13,4.3,1.7,7.27,1.7,1.72,0,3.28-.41,4.69-1.23,1.4-.82,2.62-2.15,3.63-3.99,1.01-1.84,1.78-4.26,2.29-7.27.51-3.01.76-6.7.76-11.08,0-3.59-.21-6.84-.64-9.73-.43-2.89-1.17-5.35-2.23-7.39-1.06-2.03-2.48-3.61-4.28-4.75-1.8-1.13-4.06-1.7-6.8-1.7-2.03,0-3.79.41-5.28,1.23-1.49.82-2.74,2.15-3.75,3.99-1.02,1.84-1.78,4.26-2.29,7.27-.51,3.01-.76,6.7-.76,11.08Z"/>
        <path class="cls-4" d="M423.49,279.64h-29.31v-4.46c.78-.47,1.66-.96,2.64-1.47.98-.51,2.05-.96,3.22-1.35v-23.39c0-3.61-.1-6.66-.29-9.17-.2-2.51-.61-4.56-1.23-6.17-.63-1.61-1.49-2.78-2.58-3.53-1.09-.74-2.5-1.12-4.22-1.12-2.5,0-4.67.96-6.51,2.88-1.84,1.92-3.19,4.45-4.05,7.58v32.92c2.11.63,4.06,1.57,5.86,2.82v4.46h-30.49v-4.46c1.09-.55,2.31-1.06,3.64-1.53,1.33-.47,2.7-.9,4.1-1.3v-43.13l-7.74-.94v-4.46c1.25-.55,2.79-1.06,4.63-1.52,1.84-.47,3.73-.88,5.69-1.23,1.95-.35,3.85-.65,5.69-.88,1.84-.23,3.38-.43,4.63-.59h3.99v13.25h.12c1.25-3.67,3.46-6.8,6.62-9.38,3.17-2.58,6.98-3.87,11.43-3.87,1.88,0,3.71.2,5.51.59,1.8.39,3.46,1.11,4.98,2.17,1.52,1.06,2.83,2.52,3.93,4.4,1.09,1.88,1.88,4.3,2.35,7.27,1.41-4.3,3.75-7.78,7.04-10.44,3.28-2.66,7.27-3.99,11.96-3.99,2.89,0,5.45.37,7.68,1.12,2.23.74,4.1,2.06,5.63,3.94,1.53,1.88,2.68,4.43,3.46,7.64.78,3.21,1.17,7.28,1.17,12.22v27.85c2.66.47,5.24,1.41,7.74,2.82v4.46h-30.49v-4.46c1.8-1.17,3.75-2.11,5.86-2.82v-25.51c0-6.11-.57-10.62-1.7-13.52-1.13-2.9-3.58-4.35-7.33-4.35-2.81,0-5.02,1.06-6.62,3.17-1.6,2.12-2.8,4.94-3.58,8.46v31.74c1.33.39,2.52.82,3.58,1.29,1.06.47,2.05.98,2.99,1.53v4.46Z"/>
        <path class="cls-4" d="M497.01,303.09h-32.36v-4.46c2.66-1.26,5.24-2.2,7.74-2.82v-66.59l-7.74-.94v-4.46c1.25-.55,2.79-1.06,4.63-1.52,1.84-.47,3.73-.88,5.69-1.23,1.95-.35,3.85-.65,5.69-.88,1.84-.23,3.38-.43,4.63-.59h3.99v13.13h.12c1.33-3.75,3.42-6.88,6.27-9.38,2.85-2.5,6.82-3.75,11.9-3.75,3.44,0,6.55.57,9.32,1.7,2.77,1.13,5.12,2.89,7.04,5.28,1.91,2.39,3.4,5.43,4.46,9.15,1.06,3.71,1.58,8.15,1.58,13.31s-.68,9.38-2.05,13.37c-1.37,3.99-3.32,7.35-5.86,10.08-2.54,2.74-5.63,4.85-9.26,6.33-3.64,1.48-7.76,2.23-12.37,2.23-2.66,0-4.75-.18-6.27-.53-1.52-.35-3.15-.96-4.87-1.82v17.1c1.25.16,2.5.45,3.75.88,1.25.43,2.58,1.08,3.99,1.95v4.46ZM500.76,228.98c-2.66,0-5.02.94-7.09,2.81-2.07,1.88-3.54,4.77-4.4,8.68v31.19c1.25.94,2.58,1.62,3.99,2.05,1.41.43,3.24.65,5.51.65,4.46,0,7.74-2.15,9.85-6.45,2.11-4.3,3.17-10.59,3.17-18.88,0-6.41-.8-11.35-2.4-14.83-1.6-3.48-4.48-5.22-8.62-5.22Z"/>
        <path class="cls-4" d="M588.7,262.63c0,1.72.02,3.21.06,4.46.04,1.25.14,2.58.29,3.99l8.09,1.17v4.1c-.94.47-2.21.94-3.81,1.41-1.6.47-3.28.92-5.04,1.35-1.76.43-3.5.78-5.22,1.06-1.72.27-3.25.49-4.57.65h-3.99c-.78-1.8-1.25-3.59-1.41-5.39-.16-1.8-.27-3.99-.35-6.57h-.59c-.39,1.56-1.06,3.07-1.99,4.51-.94,1.45-2.13,2.74-3.58,3.87-1.45,1.13-3.15,2.05-5.1,2.76-1.95.7-4.14,1.06-6.57,1.06-2.58,0-4.97-.39-7.15-1.17-2.19-.78-4.1-1.88-5.75-3.28-1.64-1.41-2.93-3.11-3.87-5.1-.94-1.99-1.41-4.24-1.41-6.74,0-3.52.66-6.41,1.99-8.68,1.33-2.27,3.42-4.12,6.27-5.57,2.85-1.45,6.53-2.52,11.02-3.22,4.49-.7,9.95-1.21,16.36-1.52.62-6.72.35-11.65-.82-14.77-1.17-3.13-3.71-4.69-7.62-4.69-2.42,0-4.65.39-6.68,1.17l-5.51,14.07h-5.16c-.63-.94-1.23-2.01-1.82-3.22-.59-1.21-1.13-2.5-1.64-3.87-.51-1.37-.94-2.76-1.29-4.16-.35-1.41-.61-2.77-.76-4.1,2.97-2.03,6.8-3.63,11.49-4.81,4.69-1.17,9.65-1.76,14.89-1.76,4.46,0,8.09.49,10.91,1.47,2.81.98,5.02,2.31,6.62,3.99,1.6,1.68,2.71,3.66,3.34,5.92.62,2.27.94,4.69.94,7.27,0,4.69-.1,8.93-.29,12.72-.2,3.79-.29,7.68-.29,11.67ZM562.32,271.66c1.64,0,3.05-.31,4.22-.94,1.17-.62,2.17-1.37,2.99-2.23.82-.86,1.45-1.8,1.88-2.81.43-1.02.76-1.91,1-2.7v-11.73c-3.67.08-6.68.31-9.03.7-2.35.39-4.18,1.04-5.51,1.94-1.33.9-2.25,2.03-2.76,3.4-.51,1.37-.76,3.03-.76,4.98,0,2.97.7,5.28,2.11,6.92,1.41,1.64,3.36,2.46,5.86,2.46Z"/>
        <path class="cls-4" d="M673.01,279.64h-31.07v-4.46c1.01-.55,2.01-1.04,2.99-1.47.98-.43,2.13-.88,3.46-1.35v-27.62c0-4.94-.7-8.8-2.11-11.58-1.41-2.78-3.91-4.17-7.5-4.17-2.97,0-5.53.96-7.68,2.88-2.15,1.92-3.77,4.53-4.87,7.82v32.68c1.25.32,2.36.69,3.34,1.12.98.43,2.01,1,3.11,1.7v4.46h-31.07v-4.46c1.95-1.02,4.53-1.96,7.74-2.83v-43.13l-7.74-.94v-4.46c1.02-.47,2.35-.92,3.99-1.35,1.64-.43,3.42-.84,5.33-1.23,1.91-.39,3.87-.72,5.86-1,1.99-.27,3.81-.49,5.45-.65h3.99v12.08h.12c1.64-3.28,4.1-6.12,7.39-8.5,3.28-2.38,7.27-3.58,11.96-3.58,3.05,0,5.78.37,8.21,1.12,2.42.74,4.48,2.06,6.16,3.94,1.68,1.88,2.97,4.41,3.87,7.58.9,3.17,1.35,7.19,1.35,12.04v28.09c3.13.55,5.71,1.49,7.74,2.82v4.46Z"/>
        <path class="cls-4" d="M678.87,228.28c-1.17-.31-2.25-.7-3.22-1.17-.98-.47-1.97-1.02-2.99-1.65v-4.46h30.84v4.34c-1.64,1.1-3.87,2.08-6.68,2.94l11.84,29.52,1.99,7.53h.24l1.88-7.64,9.15-29.4c-2.35-.47-4.5-1.41-6.45-2.82v-4.46h22.63v4.46c-1.64,1.1-3.87,2.04-6.68,2.82l-19.11,51.35c-1.87,5-3.75,9.09-5.63,12.25-1.88,3.17-3.75,5.69-5.63,7.56-1.88,1.88-3.75,3.18-5.63,3.93-1.88.74-3.75,1.23-5.63,1.47-.78-.7-1.49-1.58-2.11-2.64s-1.17-2.19-1.64-3.4c-.47-1.21-.86-2.44-1.17-3.69-.31-1.25-.51-2.42-.59-3.52l1.53-2.81h14.3c.7-1.1,1.31-2.27,1.82-3.52.51-1.25,1.11-3.13,1.82-5.63l-24.86-51.35Z"/>
      </g>
      <g>
        <polygon class="cls-2" points="92.09 281.04 180.12 143.11 228.18 281.04 164.91 281.04 178.18 260.87 199.83 260.76 174.77 188.97 117.98 281.04 92.09 281.04"/>
        <polygon class="cls-2" points="149.39 281.04 162.67 260.87 170.88 260.81 157.42 281.04 149.39 281.04"/>
      </g>
    </g>
  </g>
</svg>