<?xml version="1.0" encoding="utf-8"?>
<!-- Generator: Adobe Illustrator 23.0.6, SVG Export Plug-In . SVG Version: 6.00 Build 0)  -->
<svg version="1.1" id="Capa_1" xmlns="http://www.w3.org/2000/svg" xmlns:xlink="http://www.w3.org/1999/xlink" x="0px" y="0px"
	 viewBox="0 0 260.58 55.86" style="enable-background:new 0 0 260.58 55.86;" xml:space="preserve">
<style type="text/css">
	.st0{fill:#FDFDFD;}
	.st1{fill:#5F6C76;}
	.st2{fill:#09A13E;}
</style>
<g>
	<g>
		<path class="st0" d="M130.24,55.84c-43,0-86,0-129,0.02c-0.9,0-1.1-0.2-1.1-1.1C0.17,36.88,0.17,19,0.14,1.12
			c0-0.82,0.16-0.98,0.98-0.98c86.16,0.02,172.32,0.02,258.48,0c0.82,0,0.98,0.16,0.98,0.98c-0.03,17.92-0.03,35.84,0,53.76
			c0,0.82-0.16,0.98-0.98,0.98C216.48,55.84,173.36,55.84,130.24,55.84z M94.23,55.56c30.88,0,61.76-0.01,92.64,0.02
			c1.02,0,1.43-0.29,1.69-1.29c4.68-17.59,9.39-35.17,14.13-52.74c0.29-1.06,0.05-1.22-0.98-1.22c-61.8,0.02-123.6,0.02-185.4,0
			c-0.91,0-1.3,0.22-1.54,1.14C10.11,19,5.41,36.5,0.72,54c-0.42,1.56-0.42,1.56,1.23,1.56C32.71,55.56,63.47,55.56,94.23,55.56z
			 M217.14,19.4c-5.55,0-10.98,0.01-16.41-0.01c-0.64,0-0.78,0.31-0.92,0.83c-1.35,5.12-2.7,10.25-4.13,15.35
			c-0.26,0.93,0.07,0.97,0.8,0.96c5.03-0.02,10.07-0.03,15.1,0.01c0.81,0.01,1.07-0.28,1.26-1.03c0.56-2.28,1.22-4.54,1.82-6.81
			C215.49,25.63,216.3,22.56,217.14,19.4z M223.16,36.53c2.48,0,4.96-0.03,7.43,0.02c0.78,0.02,1.09-0.23,1.29-1
			c1.31-5.05,2.66-10.1,4.05-15.13c0.22-0.79,0.16-1.04-0.74-1.04c-5.07,0.04-10.15,0.04-15.22,0c-0.7-0.01-0.97,0.22-1.14,0.86
			c-1.34,5.09-2.7,10.17-4.09,15.25c-0.24,0.89,0.02,1.07,0.87,1.06C218.12,36.5,220.64,36.53,223.16,36.53z M217.96,55.56
			c2.56,0,5.11-0.02,7.67,0.01c0.6,0.01,0.93-0.11,1.1-0.77c1.36-5.2,2.74-10.4,4.17-15.59c0.2-0.73-0.03-0.8-0.64-0.79
			c-5.15,0.01-10.3,0.02-15.46-0.01c-0.64,0-0.89,0.22-1.05,0.83c-1.34,5.13-2.7,10.25-4.12,15.35c-0.25,0.89,0.01,0.98,0.78,0.97
			C212.93,55.54,215.44,55.56,217.96,55.56z M228.47,55.43c0.16,0.06,0.23,0.11,0.3,0.11c5.36,0.01,10.71,0,16.07,0.03
			c0.75,0.01,0.82-0.44,0.96-0.95c1.36-5.09,2.71-10.17,4.1-15.25c0.21-0.78,0.04-0.97-0.74-0.96c-5.08,0.03-10.15,0.03-15.23-0.01
			c-0.79-0.01-1.02,0.33-1.19,0.98c-0.47,1.86-0.97,3.7-1.47,5.55C230.35,48.44,229.41,51.94,228.47,55.43z M200.56,17.44
			c5.41,0,10.73-0.02,16.04,0.02c0.84,0.01,1.16-0.24,1.37-1.05c1.3-5.02,2.62-10.03,4.01-15.02c0.26-0.94,0.03-1.05-0.82-1.05
			c-4.84,0.03-9.68,0.05-14.51-0.01c-1.13-0.01-1.64,0.25-1.93,1.42C203.41,6.97,201.98,12.16,200.56,17.44z M219.62,17.44
			c5.62,0,11.08-0.01,16.55,0.02c0.67,0,0.67-0.44,0.78-0.83c1.38-5.11,2.74-10.24,4.13-15.35c0.21-0.77,0-0.94-0.77-0.94
			c-5.07,0.03-10.14,0.03-15.22,0c-0.76-0.01-1.02,0.28-1.19,0.96c-0.72,2.82-1.48,5.62-2.23,8.43
			C221,12.27,220.32,14.8,219.62,17.44z M260.34,0.36c-5.58,0-11.06,0.01-16.53-0.01c-0.61,0-0.68,0.37-0.8,0.82
			c-0.5,1.93-1.04,3.85-1.56,5.78c-0.93,3.46-1.85,6.92-2.8,10.49c4.39,0,8.66,0,12.94,0c1.36,0,3.05,0.45,3.98-0.19
			c1-0.68,0.9-2.52,1.27-3.86C258.02,9.09,259.16,4.78,260.34,0.36z M198.88,55.56c2.56,0,5.12-0.03,7.68,0.02
			c0.69,0.01,0.98-0.19,1.15-0.85c1.34-5.09,2.71-10.18,4.09-15.26c0.21-0.76,0.08-1.05-0.8-1.04c-5.04,0.04-10.08,0.03-15.12,0
			c-0.74,0-1.03,0.22-1.22,0.94c-1.33,5.09-2.7,10.18-4.09,15.26c-0.21,0.77-0.04,0.96,0.74,0.95
			C193.84,55.53,196.36,55.56,198.88,55.56z M246.68,19.4c-2.48,0-4.96,0.05-7.44-0.02c-0.9-0.03-1.23,0.28-1.45,1.12
			c-1.29,4.98-2.61,9.95-3.98,14.92c-0.23,0.84-0.16,1.12,0.79,1.12c5.04-0.04,10.08-0.04,15.12,0c0.77,0.01,1.03-0.31,1.2-0.97
			c1.34-5.05,2.68-10.1,4.06-15.14c0.24-0.88-0.02-1.07-0.87-1.05C251.64,19.43,249.16,19.4,246.68,19.4z"/>
		<path class="st1" d="M94.23,55.56c-30.76,0-61.52,0-92.28,0c-1.65,0-1.65,0-1.23-1.56c4.69-17.5,9.39-35,14.05-52.52
			c0.25-0.92,0.64-1.14,1.54-1.14c61.8,0.02,123.6,0.02,185.4,0c1.03,0,1.26,0.16,0.98,1.22c-4.74,17.57-9.45,35.15-14.13,52.74
			c-0.26,0.99-0.67,1.29-1.69,1.29C155.99,55.56,125.11,55.56,94.23,55.56z M127.14,46.33c2.86,0,5.41-0.03,7.96,0.02
			c0.74,0.01,1.15-0.27,1.53-0.87c1.43-2.22,2.91-4.4,4.34-6.61c0.33-0.5,0.64-0.81,1.32-0.8c2.96,0.04,5.92,0.03,8.88,0.01
			c0.63-0.01,0.9,0.11,0.93,0.83c0.09,2.15,0.32,4.3,0.4,6.46c0.03,0.81,0.3,1,1.06,0.98c2.12-0.05,4.24-0.02,6.36-0.02
			c1.62,0,1.64,0,1.5-1.62c-0.37-4.26-0.78-8.51-1.16-12.77c-0.58-6.57-1.17-13.13-1.73-19.7c-0.06-0.66-0.29-0.91-0.96-0.89
			c-1.72,0.03-3.44,0.06-5.16-0.01c-0.87-0.03-1.35,0.28-1.84,0.99c-5.92,8.64-11.88,17.25-17.82,25.87
			C130.95,40.81,129.14,43.43,127.14,46.33z M18.25,46.33c2.83,0,5.39-0.03,7.94,0.02c0.74,0.01,1.15-0.26,1.54-0.86
			c1.44-2.25,2.95-4.47,4.41-6.71c0.31-0.48,0.64-0.71,1.25-0.7c2.96,0.03,5.92,0.05,8.88-0.01c0.79-0.02,0.93,0.31,0.96,0.96
			c0.11,2.11,0.27,4.23,0.36,6.34c0.03,0.69,0.2,1,0.96,0.99c2.44-0.04,4.88-0.03,7.32,0c0.66,0.01,0.78-0.21,0.72-0.84
			c-0.29-2.86-0.54-5.73-0.79-8.59c-0.73-8.24-1.47-16.47-2.17-24.71c-0.06-0.71-0.35-0.86-0.97-0.85
			c-1.68,0.02-3.36,0.06-5.04-0.01c-0.91-0.04-1.44,0.26-1.95,1.01c-6.3,9.2-12.64,18.37-18.98,27.55
			C21.26,41.95,19.84,44.02,18.25,46.33z M74.99,40.04c-4.37,0.01-7.01-1.85-7.93-5.64c-0.73-3-0.21-5.89,1.09-8.62
			C71.62,18.45,80,15.44,87.4,18.87c0.89,0.41,1.13,0.14,1.37-0.65c0.46-1.49,0.92-2.98,1.54-4.41c0.44-1.02,0.16-1.37-0.81-1.67
			c-5.3-1.62-10.56-1.43-15.79,0.26C63.1,15.83,56.5,25.78,57.75,36.42c0.6,5.08,4.09,9.03,9.09,10.06
			c5.18,1.06,10.16,0.2,14.99-1.8c0.55-0.23,0.7-0.55,0.66-1.1c-0.1-1.31-0.22-2.63-0.23-3.95c-0.01-0.96-0.18-1.29-1.21-0.85
			C79.12,39.6,77.1,40.09,74.99,40.04z M122.25,11.44c-9.63,0-19.02,0-28.41-0.01c-0.57,0-0.74,0.25-0.89,0.73
			c-0.52,1.67-1.03,3.35-1.65,4.99c-0.34,0.91,0.02,0.98,0.77,0.97c2.52-0.03,5.04-0.01,7.56-0.01c1.67,0,1.68,0.01,1.14,1.63
			c-2.8,8.45-5.59,16.89-8.42,25.33c-0.32,0.96-0.28,1.33,0.88,1.28c1.91-0.09,3.84-0.08,5.75,0c1.01,0.04,1.43-0.28,1.75-1.26
			c2.84-8.72,5.75-17.42,8.61-26.14c0.21-0.64,0.51-0.86,1.18-0.85c2.52,0.04,5.04,0.01,7.55,0.02c0.49,0,0.91,0.01,1.18-0.56
			C120.19,15.58,121.18,13.63,122.25,11.44z M118.76,46.33c1.08,0,2.16-0.03,3.24,0.01c0.62,0.02,0.9-0.2,1.1-0.81
			c3.66-11.09,7.34-22.17,11.05-33.25c0.26-0.78,0.03-0.86-0.65-0.85c-2.16,0.03-4.32,0.05-6.47-0.01
			c-0.76-0.02-1.02,0.28-1.24,0.95c-0.92,2.89-1.89,5.76-2.84,8.64c-2.67,8.02-5.34,16.04-8.02,24.05
			c-0.42,1.27-0.42,1.27,0.95,1.27C116.85,46.33,117.81,46.33,118.76,46.33z M173.35,25.15c3.71,0.02,6.91-2.38,7.93-5.94
			c1.52-5.29-2.33-9.53-7.75-8.53c-3.78,0.7-6.51,4.07-6.52,8.05C166.99,22.59,169.51,25.14,173.35,25.15z"/>
		<path class="st2" d="M217.14,19.4c-0.84,3.16-1.65,6.23-2.47,9.3c-0.61,2.27-1.27,4.53-1.82,6.81c-0.18,0.75-0.45,1.04-1.26,1.03
			c-5.03-0.04-10.07-0.03-15.1-0.01c-0.74,0-1.06-0.03-0.8-0.96c1.42-5.1,2.77-10.23,4.13-15.35c0.14-0.52,0.28-0.84,0.92-0.83
			C206.16,19.41,211.59,19.4,217.14,19.4z"/>
		<path class="st2" d="M223.16,36.53c-2.52,0-5.04-0.03-7.55,0.02c-0.85,0.02-1.11-0.17-0.87-1.06c1.39-5.07,2.74-10.16,4.09-15.25
			c0.17-0.64,0.44-0.87,1.14-0.86c5.07,0.04,10.15,0.04,15.22,0c0.9-0.01,0.96,0.24,0.74,1.04c-1.39,5.03-2.74,10.08-4.05,15.13
			c-0.2,0.76-0.51,1.01-1.29,1C228.12,36.5,225.64,36.53,223.16,36.53z"/>
		<path class="st2" d="M217.96,55.56c-2.52,0-5.03-0.02-7.55,0.01c-0.77,0.01-1.03-0.08-0.78-0.97c1.42-5.11,2.77-10.23,4.12-15.35
			c0.16-0.61,0.41-0.84,1.05-0.83c5.15,0.02,10.3,0.02,15.46,0.01c0.61,0,0.84,0.06,0.64,0.79c-1.42,5.19-2.81,10.38-4.17,15.59
			c-0.17,0.65-0.5,0.77-1.1,0.77C223.07,55.55,220.51,55.56,217.96,55.56z"/>
		<path class="st2" d="M228.47,55.43c0.93-3.49,1.87-6.99,2.81-10.49c0.49-1.85,0.99-3.7,1.47-5.55c0.16-0.64,0.4-0.98,1.19-0.98
			c5.08,0.04,10.15,0.03,15.23,0.01c0.78,0,0.95,0.19,0.74,0.96c-1.39,5.08-2.74,10.17-4.1,15.25c-0.14,0.51-0.21,0.95-0.96,0.95
			c-5.36-0.04-10.71-0.02-16.07-0.03C228.71,55.55,228.64,55.49,228.47,55.43z"/>
		<path class="st2" d="M200.56,17.44c1.41-5.28,2.85-10.47,4.16-15.68c0.3-1.18,0.8-1.44,1.93-1.42c4.84,0.06,9.68,0.04,14.51,0.01
			c0.85-0.01,1.08,0.11,0.82,1.05c-1.39,4.99-2.72,10.01-4.01,15.02c-0.21,0.81-0.53,1.05-1.37,1.05
			C211.29,17.42,205.97,17.44,200.56,17.44z"/>
		<path class="st2" d="M219.62,17.44c0.71-2.64,1.38-5.17,2.06-7.71c0.75-2.81,1.51-5.61,2.23-8.43c0.17-0.68,0.43-0.96,1.19-0.96
			c5.07,0.04,10.14,0.03,15.22,0c0.77,0,0.98,0.16,0.77,0.94c-1.39,5.11-2.75,10.23-4.13,15.35c-0.1,0.39-0.11,0.83-0.78,0.83
			C230.7,17.43,225.23,17.44,219.62,17.44z"/>
		<path class="st2" d="M260.34,0.36c-1.18,4.42-2.32,8.73-3.5,13.03c-0.37,1.34-0.27,3.18-1.27,3.86c-0.93,0.64-2.62,0.18-3.98,0.19
			c-4.27,0.01-8.55,0-12.94,0c0.95-3.56,1.87-7.03,2.8-10.49c0.52-1.93,1.05-3.85,1.56-5.78c0.12-0.45,0.19-0.82,0.8-0.82
			C249.28,0.37,254.76,0.36,260.34,0.36z"/>
		<path class="st2" d="M198.88,55.56c-2.52,0-5.04-0.03-7.56,0.02c-0.79,0.01-0.95-0.18-0.74-0.95c1.39-5.08,2.76-10.16,4.09-15.26
			c0.19-0.72,0.48-0.95,1.22-0.94c5.04,0.03,10.08,0.04,15.12,0c0.87-0.01,1,0.28,0.8,1.04c-1.38,5.08-2.75,10.17-4.09,15.26
			c-0.17,0.66-0.47,0.86-1.15,0.85C204,55.53,201.44,55.56,198.88,55.56z"/>
		<path class="st2" d="M246.68,19.4c2.48,0,4.96,0.03,7.44-0.02c0.85-0.02,1.11,0.17,0.87,1.05c-1.38,5.04-2.72,10.09-4.06,15.14
			c-0.17,0.66-0.43,0.97-1.2,0.97c-5.04-0.04-10.08-0.04-15.12,0c-0.95,0.01-1.02-0.28-0.79-1.12c1.36-4.96,2.69-9.93,3.98-14.92
			c0.22-0.84,0.55-1.15,1.45-1.12C241.72,19.44,244.2,19.4,246.68,19.4z"/>
		<path class="st0" d="M127.14,46.33c2-2.9,3.81-5.52,5.62-8.14c5.95-8.62,11.9-17.23,17.82-25.87c0.49-0.71,0.97-1.02,1.84-0.99
			c1.72,0.07,3.44,0.04,5.16,0.01c0.66-0.01,0.9,0.24,0.96,0.89c0.56,6.57,1.14,13.13,1.73,19.7c0.38,4.26,0.78,8.51,1.16,12.77
			c0.14,1.62,0.12,1.62-1.5,1.62c-2.12,0-4.24-0.03-6.36,0.02c-0.76,0.02-1.03-0.18-1.06-0.98c-0.08-2.15-0.31-4.3-0.4-6.46
			c-0.03-0.72-0.3-0.84-0.93-0.83c-2.96,0.03-5.92,0.03-8.88-0.01c-0.67-0.01-0.99,0.3-1.32,0.8c-1.44,2.21-2.92,4.39-4.34,6.61
			c-0.38,0.6-0.79,0.88-1.53,0.87C132.55,46.3,130,46.33,127.14,46.33z M145.95,31.57c1.89,0,3.55-0.02,5.22,0.01
			c0.61,0.01,0.59-0.36,0.59-0.78c0-2.77,0-5.55,0-8.32c-0.1-0.01-0.2-0.01-0.3-0.02C149.65,25.43,147.86,28.4,145.95,31.57z"/>
		<path class="st0" d="M18.25,46.33c1.59-2.31,3.01-4.38,4.43-6.44c6.33-9.18,12.67-18.35,18.98-27.55
			c0.52-0.75,1.05-1.05,1.95-1.01c1.68,0.07,3.36,0.04,5.04,0.01c0.62-0.01,0.91,0.13,0.97,0.85c0.7,8.24,1.44,16.47,2.17,24.71
			c0.25,2.86,0.5,5.73,0.79,8.59c0.06,0.63-0.06,0.85-0.72,0.84c-2.44-0.03-4.88-0.04-7.32,0c-0.76,0.01-0.93-0.3-0.96-0.99
			c-0.09-2.12-0.25-4.23-0.36-6.34c-0.03-0.65-0.17-0.97-0.96-0.96c-2.96,0.06-5.92,0.04-8.88,0.01c-0.6-0.01-0.93,0.22-1.25,0.7
			c-1.45,2.25-2.96,4.46-4.41,6.71c-0.39,0.6-0.8,0.87-1.54,0.86C23.64,46.3,21.08,46.33,18.25,46.33z M37.05,31.56
			c1.89,0,3.56,0,5.23,0c0.37,0,0.6-0.09,0.6-0.53c-0.01-2.81-0.01-5.62-0.01-8.43c-0.13-0.01-0.26-0.02-0.38-0.03
			C40.72,25.5,38.95,28.42,37.05,31.56z"/>
		<path class="st0" d="M74.99,40.04c2.12,0.05,4.14-0.44,6.06-1.25c1.04-0.44,1.21-0.11,1.21,0.85c0.01,1.32,0.13,2.63,0.23,3.95
			c0.04,0.54-0.11,0.87-0.66,1.1c-4.83,2-9.82,2.86-14.99,1.8c-5-1.03-8.49-4.98-9.09-10.06C56.5,25.78,63.1,15.83,73.7,12.4
			c5.23-1.69,10.49-1.87,15.79-0.26c0.97,0.3,1.25,0.65,0.81,1.67c-0.62,1.42-1.08,2.92-1.54,4.41c-0.24,0.79-0.48,1.07-1.37,0.65
			c-7.4-3.43-15.78-0.42-19.26,6.91c-1.29,2.73-1.82,5.62-1.09,8.62C67.98,38.19,70.62,40.05,74.99,40.04z"/>
		<path class="st0" d="M122.25,11.44c-1.07,2.19-2.05,4.14-2.98,6.12c-0.27,0.57-0.69,0.56-1.18,0.56
			c-2.52-0.01-5.04,0.02-7.55-0.02c-0.68-0.01-0.97,0.21-1.18,0.85c-2.86,8.71-5.77,17.41-8.61,26.14c-0.32,0.98-0.74,1.3-1.75,1.26
			c-1.92-0.08-3.84-0.09-5.75,0c-1.16,0.05-1.2-0.32-0.88-1.28c2.83-8.43,5.62-16.88,8.42-25.33c0.54-1.62,0.52-1.63-1.14-1.63
			c-2.52,0-5.04-0.02-7.56,0.01c-0.76,0.01-1.12-0.06-0.77-0.97c0.62-1.64,1.13-3.32,1.65-4.99c0.15-0.48,0.32-0.73,0.89-0.73
			C103.23,11.44,112.62,11.44,122.25,11.44z"/>
		<path class="st0" d="M118.76,46.33c-0.96,0-1.92,0-2.88,0c-1.37,0-1.37-0.01-0.95-1.27c2.67-8.02,5.35-16.03,8.02-24.05
			c0.96-2.88,1.93-5.75,2.84-8.64c0.21-0.67,0.47-0.97,1.24-0.95c2.16,0.06,4.31,0.04,6.47,0.01c0.68-0.01,0.91,0.08,0.65,0.85
			c-3.71,11.07-7.39,22.16-11.05,33.25c-0.2,0.61-0.49,0.83-1.1,0.81C120.92,46.3,119.84,46.33,118.76,46.33z"/>
		<path class="st0" d="M173.35,25.15c-3.84-0.02-6.36-2.56-6.35-6.41c0.01-3.98,2.74-7.35,6.52-8.05c5.42-1,9.27,3.24,7.75,8.53
			C180.26,22.77,177.06,25.17,173.35,25.15z M173.52,23.68c3.41,0.02,6.23-2.89,6.3-6.51c0.06-2.94-2.08-5.17-4.95-5.16
			c-3.39,0.01-6.22,3.01-6.23,6.59C168.64,21.55,170.66,23.66,173.52,23.68z"/>
		<path class="st1" d="M145.95,31.57c1.91-3.16,3.7-6.14,5.5-9.11c0.1,0.01,0.2,0.01,0.3,0.02c0,2.77,0,5.55,0,8.32
			c0,0.42,0.02,0.79-0.59,0.78C149.5,31.55,147.84,31.57,145.95,31.57z"/>
		<path class="st1" d="M37.05,31.56c1.9-3.15,3.67-6.07,5.43-8.98c0.13,0.01,0.26,0.02,0.38,0.03c0,2.81-0.01,5.62,0.01,8.43
			c0,0.44-0.22,0.53-0.6,0.53C40.61,31.56,38.94,31.56,37.05,31.56z"/>
		<path class="st1" d="M173.52,23.68c-2.85-0.02-4.88-2.13-4.87-5.08c0-3.58,2.84-6.58,6.23-6.59c2.88-0.01,5.02,2.22,4.95,5.16
			C179.74,20.79,176.92,23.7,173.52,23.68z M177.08,21.7c-0.47-0.93-0.86-1.85-1.39-2.68c-0.42-0.66-0.46-1.01,0.3-1.45
			c0.86-0.5,1.2-1.39,0.97-2.39c-0.22-0.94-0.95-1.36-1.84-1.46c-0.67-0.08-1.36-0.01-2.03-0.09c-0.82-0.1-1.02,0.31-1.09,1.02
			c-0.2,2.07-0.46,4.13-0.67,6.19c-0.04,0.37-0.34,0.91,0.42,1c0.67,0.08,1.07-0.1,1.1-0.85c0.02-0.56,0.09-1.11,0.16-1.67
			c0.03-0.26-0.02-0.61,0.33-0.7c0.34-0.08,0.48,0.22,0.61,0.46c0.28,0.53,0.63,1.04,0.8,1.6C175.12,21.91,175.91,22.04,177.08,21.7
			z"/>
		<path class="st0" d="M177.08,21.7c-1.17,0.34-1.96,0.21-2.33-1.01c-0.17-0.56-0.52-1.08-0.8-1.6c-0.13-0.24-0.28-0.54-0.61-0.46
			c-0.34,0.08-0.29,0.44-0.33,0.7c-0.07,0.55-0.14,1.11-0.16,1.67c-0.02,0.75-0.42,0.93-1.1,0.85c-0.76-0.09-0.46-0.64-0.42-1
			c0.21-2.07,0.47-4.13,0.67-6.19c0.07-0.71,0.27-1.12,1.09-1.02c0.67,0.08,1.36,0.01,2.03,0.09c0.89,0.1,1.62,0.52,1.84,1.46
			c0.23,1-0.11,1.89-0.97,2.39c-0.76,0.44-0.72,0.79-0.3,1.45C176.22,19.85,176.61,20.77,177.08,21.7z M174.15,17.22
			c0.57-0.1,1.18-0.41,1.21-1.3c0.02-0.93-0.76-1.02-1.34-0.96c-1.1,0.13-0.41,1.15-0.68,1.72
			C173.11,17.19,173.56,17.25,174.15,17.22z"/>
		<path class="st1" d="M174.15,17.22c-0.59,0.03-1.05-0.03-0.81-0.53c0.27-0.57-0.42-1.6,0.68-1.72c0.58-0.07,1.36,0.03,1.34,0.96
			C175.34,16.81,174.72,17.12,174.15,17.22z"/>
	</g>
</g>
</svg>
