<?xml version="1.0" encoding="UTF-8"?>
<svg version="1.1" viewBox="0 0 2048 963" width="2550" height="1200" xmlns="http://www.w3.org/2000/svg">
<path transform="translate(0)" d="m0 0h2048v963h-2048z" fill="#FCFCFC"/>
<path transform="translate(1699,326)" d="m0 0h23l19 2 22 5 16 6 13 7 13 10 7 7 10 14 7 16 4 20v12l-1 1h-64l-2-7-3-12-6-10-7-7-12-6-12-3-8-1h-20l-14 3-10 5-7 6-5 9-1 4v14l4 9 6 5 15 7 24 7 66 17 15 6 13 7 12 9 10 10 9 13 5 11 3 14v28l-3 14-5 13-7 12-9 11-10 9-14 9-16 7-16 5-24 4-16 1h-15l-22-2-20-4-21-7-15-8-11-8-11-10-9-12-7-12-6-18-2-12v-17h65l1 1 2 16 5 12 6 8 9 8 12 6 14 4 8 1h24l17-3 12-5 8-6 6-7 3-7v-17l-3-7-7-8-13-8-17-6-26-7-37-10-21-7-19-9-11-8-10-9-9-13-5-10-4-18v-21l3-15 5-13 7-11 11-13 14-11 17-9 18-6 20-4z" fill="#002E57"/>
<path transform="translate(1300,333)" d="m0 0h67l1 202 3 20 5 12 8 10 9 6 8 4 11 3 9 1h20l14-2 12-4 10-6 7-9 4-8 4-15 1-7 1-206 1-1h67v210l-3 20-5 17-8 17-9 12-12 12-10 7-12 7-19 7-16 4-14 2-15 1h-17l-23-2-20-4-19-7-15-8-14-11-10-11-8-13-7-16-5-21-2-17v-205z" fill="#002D57"/>
<path transform="translate(877,326)" d="m0 0h24l17 2 20 5 15 6 15 8 11 8 10 9 10 11 9 14 8 17 5 18 1 5v8h-65l-3-9-4-9-7-11-8-8-14-9-18-6-8-1h-12l-15 2-12 4-11 6-11 9-9 11-9 17-6 20-3 20v31l3 19 5 17 8 16 8 11 8 8 11 7 11 5 11 3 8 1h18l15-3 12-5 9-7 7-7 7-11 5-11 4-14 2-10h66l-1 13-4 18-5 15-8 16-6 10-7 9-9 10-9 8-15 10-18 8-16 5-17 3-13 1h-15l-21-2-18-4-15-5-16-8-16-10-13-12-9-9-12-17-10-19-7-19-4-16-3-21v-37l3-21 5-19 7-19 9-17 9-13 12-14 11-10 13-9 14-8 21-8 24-5z" fill="#002D57"/>
<path transform="translate(1030,333)" d="m0 0h252v58h-92v251h-68v-251h-92z" fill="#002E57"/>
<path transform="translate(605,324)" d="m0 0h37l5 4v40l-5 4h-37l-5-4v-40z" fill="#002E58"/>
<path transform="translate(490,549)" d="m0 0h40l4 5v37l-5 5h-39l-4-5v-37z" fill="#002F59"/>
<path transform="translate(548,324)" d="m0 0h37l5 4v40l-5 4h-37l-5-5v-38z" fill="#002E58"/>
<path transform="translate(606,380)" d="m0 0h35l5 3 1 2v38l-5 5h-37l-5-4v-39l3-4z" fill="#00528A"/>
<path transform="translate(491,605)" d="m0 0h38l4 3 1 3v26l-4 14-1 1h-39l-3-3-1-3v-35l3-5z" fill="#00528A"/>
<path transform="translate(660,549)" d="m0 0h40l3 3v40l-4 4h-39l-4-4v-39z" fill="#002E57"/>
<path transform="translate(378,549)" d="m0 0h39l4 4v38l-4 5h-39l-4-4v-39z" fill="#CFD0D2"/>
<path transform="translate(377,605)" d="m0 0h39l4 3v40l-4 4h-39l-3-3-1-3v-36z" fill="#CFD0D2"/>
<path transform="translate(547,549)" d="m0 0h39l4 4v39l-4 4h-38l-5-5v-37z" fill="#005289"/>
<path transform="translate(604,549)" d="m0 0h39l4 4v39l-5 4h-37l-5-4v-39z" fill="#0069AA"/>
<path transform="translate(660,493)" d="m0 0h39l4 4v39l-5 4h-37l-5-5v-38z" fill="#0069AA"/>
<path transform="translate(547,381)" d="m0 0h40l3 4v38l-3 4-3 1h-35l-5-3-1-2v-38z" fill="#0069AA"/>
<path transform="translate(435,437)" d="m0 0h39l4 5v37l-5 5h-37l-5-4v-39z" fill="#CFD0D2"/>
<path transform="translate(379,380)" d="m0 0h37l5 4v39l-4 4h-39l-4-5v-37z" fill="#CFD0D2"/>
<path transform="translate(266,380)" d="m0 0h37l5 5v37l-4 5h-39l-4-4v-39z" fill="#CFD0D2"/>
<path transform="translate(606,268)" d="m0 0h35l5 3 1 2v38l-4 4h-40l-3-4v-38l3-4z" fill="#CFD0D2"/>
<path transform="translate(265,549)" d="m0 0h39l4 4v38l-5 5h-37l-5-5v-37z" fill="#CFD0D2"/>
<path transform="translate(322,437)" d="m0 0h39l4 4v39l-5 4h-37l-4-3-1-3v-36z" fill="#CFD0D2"/>
<path transform="translate(435,380)" d="m0 0h38l4 4 1 2v35l-3 5-2 1h-38l-4-4v-39z" fill="#CFD0D2"/>
<path transform="translate(435,493)" d="m0 0h38l4 3 1 3v36l-4 4-2 1h-37l-4-4v-39z" fill="#CFD0D2"/>
<path transform="translate(265,437)" d="m0 0h39l4 4v39l-5 4h-37l-5-5v-37z" fill="#CFD0D2"/>
<path transform="translate(323,380)" d="m0 0h37l5 5v37l-4 5h-39l-4-4v-39z" fill="#CFD0D2"/>
<path transform="translate(380,324)" d="m0 0h36l5 5v38l-4 4h-39l-4-5v-37l3-4z" fill="#CFD0D2"/>
<path transform="translate(494,268)" d="m0 0h35l5 3 1 2v37l-2 4-2 1h-40l-3-4v-38l3-4z" fill="#CFD0D2"/>
<path transform="translate(547,213)" d="m0 0h40l3 3v40l-5 4h-36l-4-2-2-4v-35l3-5z" fill="#CFD0D2"/>
<path transform="translate(549,605)" d="m0 0h37l5 5v37l-4 5h-39l-4-5v-37z" fill="#CFD0D2"/>
<path transform="translate(210,380)" d="m0 0h37l5 5v37l-4 5h-39l-4-5v-37z" fill="#CFD0D2"/>
<path transform="translate(549,268)" d="m0 0h36l5 4v40l-3 3h-40l-3-3-1-3v-35l4-5z" fill="#CFD0D2"/>
<path transform="translate(436,324)" d="m0 0h36l5 4v40l-3 3h-40l-3-3-1-3v-34l3-5z" fill="#CFD0D2"/>
<path transform="translate(434,549)" d="m0 0h39l4 3v40l-5 5h-24l-13-1-4-3v-41z" fill="#CFD0D2"/>
<path transform="translate(661,605)" d="m0 0h38l4 4v39l-4 4h-39l-3-8-1-3v-31z" fill="#0069AA"/>
<path transform="translate(493,380)" d="m0 0h36l5 5v38l-5 5h-23l-14-1-4-4v-39z" fill="#CFD0D2"/>
<path transform="translate(490,493)" d="m0 0h40l3 3v40l-2 3-3 1h-36l-4-2-1-2v-40z" fill="#0069AA"/>
<path transform="translate(379,437)" d="m0 0h38l4 3v40l-4 4h-38l-4-4v-39z" fill="#CFD0D2"/>
<path transform="translate(322,493)" d="m0 0h40l3 4v39l-3 3h-40l-3-3-1-2v-36z" fill="#CFD0D2"/>
<path transform="translate(324,268)" d="m0 0h34l5 3 1 1v40l-3 3h-40l-3-3v-40l3-3z" fill="#CFD0D2"/>
<path transform="translate(378,493)" d="m0 0h40l3 3v40l-3 3h-40l-3-3v-40z" fill="#CFD0D2"/>
<path transform="translate(604,437)" d="m0 0h39l4 4v38l-5 5h-31l-11-37v-6z" fill="#0069AA"/>
<path transform="translate(717,604)" d="m0 0h28l5 12 10 30-2 4-4 2h-37l-5-5v-38z" fill="#00315B"/>
<path transform="translate(546,437)" d="m0 0h41l3 3-1 9-10 35h-31l-5-5v-38z" fill="#002E58"/>
<path transform="translate(445,605)" d="m0 0h28l4 3v41l-4 3h-39l-3-3 1-7 12-35z" fill="#005289"/>
<path transform="translate(686,436)" d="m0 0 2 1 14 40v5l-3 2h-38l-5-4v-39l3-4z" fill="#002F59"/>
<path transform="translate(503,437)" d="m0 0h27l3 3 1 2v37l-5 5h-37l-4-2 1-5 13-38z" fill="#00538A"/>
<path transform="translate(547,493)" d="m0 0h29l-6 23-7 24h-15l-5-4v-39z" fill="#002E58"/>
<path transform="translate(614,493)" d="m0 0h29l4 4v39l-5 4h-14l-3-8-11-38z" fill="#00528A"/>
<path transform="translate(862,685)" d="m0 0h8l8 4 4 5 2 7v8l-3 8-7 6-3 1h-11l-8-5-4-8v-13l3-6 7-6z" fill="#FAFAFA"/>
<path transform="translate(550,685)" d="m0 0h8l8 4 4 5 2 5v12l-3 6-7 6-3 1h-10l-6-3-5-6-2-5v-11l4-8 5-4z" fill="#FAFAFA"/>
<path transform="translate(1662,686)" d="m0 0h20l6 3 5 8v15l-3 6-4 4-8 2h-16z" fill="#F8F9F9"/>
<path transform="translate(1773,686)" d="m0 0h20l7 4 4 8v13l-4 8-6 4-5 1h-16z" fill="#003966"/>
<path transform="translate(1474,686)" d="m0 0h20l7 4 4 9v11l-3 8-5 4-8 2h-15z" fill="#003663"/>
<path transform="translate(716,549)" d="m0 0h10l4 10 12 35v2h-25l-5-5v-37z" fill="#00538A"/>
<path transform="translate(464,549)" d="m0 0h9l4 3v40l-4 4h-24l2-9z" fill="#0069AA"/>
<path transform="translate(661,380)" d="m0 0h7l7 19 9 26v3h-23l-5-5v-38z" fill="#00315C"/>
<path transform="translate(523,380)" d="m0 0h6l5 5v38l-5 5h-22l1-7 14-40z" fill="#00335F"/>
<path transform="translate(578,686)" d="m0 0h24l6 5 1 7-3 6-6 3 7 8 4 7v2h-6l-10-15-2-1-9-1v16l-1 1h-5z" fill="#003967"/>
<path transform="translate(1735,686)" d="m0 0h23l5 3 2 3v8l-4 5-4 2 6 7 5 8v2h-6l-7-10-5-6-10-1v17h-5z" fill="#003561"/>
<path transform="translate(960,686)" d="m0 0h23l5 3 2 3v8l-4 5-4 2 6 7 5 8v2h-6l-7-10-4-5-2-1-9-1v17h-5z" fill="#00345F"/>
<path transform="translate(701,686)" d="m0 0h7l4 10 6 18 1 1 10-29h7l1 37-5 1-1-1-1-24-9 25h-5l-9-26-1 25-5 1-1-1v-36z" fill="#003A69"/>
<path transform="translate(1182,686)" d="m0 0h22l5 3 2 4v8l-3 5-4 2-16 1-1 15-5-1z" fill="#003764"/>
<path transform="translate(1624,686)" d="m0 0h6l18 27 1-27h5v38h-5l-8-11-10-15v-2h-2v28h-5z" fill="#003765"/>
<path transform="translate(890,686)" d="m0 0h6l18 27 1-27h5v38h-6l-18-27-1 27h-5z" fill="#003764"/>
<path transform="translate(443,686)" d="m0 0h6l14 34v4h-5l-5-11-15-1-3 10-1 2h-5l2-9 11-28z" fill="#003764"/>
<path transform="translate(1710,686)" d="m0 0h6l10 23 5 13v2h-6l-4-10v-2l-15 1-4 10-1 1h-5l3-10 10-26z" fill="#003764"/>
<path transform="translate(1008,686)" d="m0 0h6l15 36v2h-6l-4-10v-2h-16l-3 11-1 1h-5l1-6 12-31z" fill="#003764"/>
<path transform="translate(1599,686)" d="m0 0h6l4 8 11 27v3h-5l-4-8-1-3h-15l-4 10-1 1h-5l3-9z" fill="#003764"/>
<path transform="translate(510,685)" d="m0 0h8l7 3 4 5 1 4-5 1-4-6-2-1h-10l-5 4-2 4v11l3 6 9 3 8-2 2-1 1-7h-11v-5h16v15l-7 4-2 1h-12l-8-4-4-5-1-3v-15l5-8z" fill="#003967"/>
<path transform="translate(1662,686)" d="m0 0h20l6 3 5 8v15l-3 6-4 4-8 2h-16zm5 5v28h13l5-3 3-6v-11l-3-6-3-2z" fill="#003663"/>
<path transform="translate(1778,691)" d="m0 0h15l5 6 1 4v7l-3 8-5 3h-13z" fill="#FBFBFB"/>
<path transform="translate(1217,686)" d="m0 0h28l-1 5h-21v11h20v4h-20v13h23l-1 5h-27l-1-1z" fill="#003A68"/>
<path transform="translate(1479,691)" d="m0 0h14l5 4 2 7-1 10-3 5-4 2h-13z" fill="#F8F8F9"/>
<path transform="translate(862,685)" d="m0 0h8l8 4 4 5 2 7v8l-3 8-7 6-3 1h-11l-8-5-4-8v-13l3-6 7-6zm-1 5-6 5-2 5v10l4 7 6 3 8-1 5-4 2-4v-13l-4-6-4-2z" fill="#003764"/>
<path transform="translate(1340,686)" d="m0 0h5l8 11 10 15v2h2v-28h4v38h-5l-18-27-1 26-5 1z" fill="#003460"/>
<path transform="translate(550,685)" d="m0 0h8l8 4 4 5 2 5v12l-3 6-7 6-3 1h-10l-6-3-5-6-2-5v-11l4-8 5-4zm0 5-6 4-2 3-1 11 3 7 5 4 2 1 9-1 6-7 1-4v-7l-4-8-4-3z" fill="#003764"/>
<path transform="translate(1820,685)" d="m0 0h8l6 3 4 5v4h-5l-3-5-2-1h-9l-3 5 3 3 13 4 6 4 1 2v7l-3 5-5 3h-12l-6-3-4-6v-4h5l2 5 8 3 8-2 1-1v-5l-5-3-13-4-4-4-1-6 3-5 4-3z" fill="#003865"/>
<path transform="translate(1535,685)" d="m0 0h8l7 3 3 4v5h-5l-2-5-2-1h-9l-3 2v6l16 4 6 5 1 6-3 6-6 4h-12l-7-4-3-8 5-1 4 6 9 2 5-2 1-1v-6l-18-6-4-5v-7l4-5z" fill="#003765"/>
<path transform="translate(1439,686)" d="m0 0h27v5h-22v11h21v4h-21v13h23v5h-28z" fill="#00335F"/>
<path transform="translate(1262,685)" d="m0 0h7l7 3 3 4v5l-5-1-2-4-2-1h-9l-3 2v6l16 4 6 5 1 7-3 5-6 4h-12l-6-4-3-4v-5h5l2 5 7 3 7-1 3-4-1-4-16-5-5-4-1-2v-6l4-6z" fill="#003764"/>
<path transform="translate(663,686)" d="m0 0h5v15h19v-15h5l1 37-5 1-1-1v-17h-19v18h-5z" fill="#003B6A"/>
<path transform="translate(1302,686)" d="m0 0h5l1 27 2 4 7 2 7-2 1-2 1-29h6v25l-3 9-6 4h-12l-6-3-3-7z" fill="#003967"/>
<path transform="translate(1045,685)" d="m0 0h8l6 3 4 4 1 4-5 1-4-5-2-1h-9l-5 5-1 2v13l2 6 6 2 8-1 3-1 2-6 2-1 3 1-1 6-5 5-4 2h-11l-7-4-4-7-1-5v-7l3-9 6-5z" fill="#003865"/>
<path transform="translate(771,685)" d="m0 0h8l6 3 5 6v3h-5l-4-5-2-1h-8l-5 3-2 5v12l4 6 4 2 8-1 4-4 2-4 5 1-2 6-4 5-4 2h-12l-6-4-4-5-2-12 2-9 5-6z" fill="#003865"/>
<path transform="translate(824,685)" d="m0 0h7l7 3 4 5 1 3-1 1h-5l-3-5-2-1h-9l-5 4-2 6v8l4 8 5 2 7-1 4-3 2-5 5 1-1 5-5 6-4 2h-12l-6-4-4-6-1-3v-13l3-6 6-5z" fill="#003765"/>
<path transform="translate(1392,686)" d="m0 0h26l-1 5h-19v11h17v5h-17v16l-5 1-1-1z" fill="#003E6E"/>
<path transform="translate(492,436)" d="m0 0h38v1h-27l-3 11-11 31h-2v-39z" fill="#CFD0D2"/>
<path transform="translate(925,686)" d="m0 0h30v5h-12v32l-5 1-1-1v-32h-11z" fill="#003D6D"/>
<path transform="translate(628,686)" d="m0 0h30l-1 5h-11v32l-5 1-1-1v-32h-12z" fill="#003D6D"/>
<path transform="translate(1144,686)" d="m0 0h6l11 16 10-15 1-1h6l-7 11-7 10-1 17h-5l-1-17-13-19z" fill="#003561"/>
<path transform="translate(434,605)" d="m0 0h11l-3 11-10 28-1 5h-1v-40z" fill="#CFD0D2"/>
<path transform="translate(1113,686)" d="m0 0h29l1 4-1 1h-12v33h-5v-33h-12l-1-4z" fill="#00335F"/>
<path transform="translate(1558,686)" d="m0 0h30v5h-12v33h-5v-33h-12z" fill="#003764"/>
<path transform="translate(1068,686)" d="m0 0h30l-1 5h-12v33h-5v-33h-12z" fill="#003764"/>
<path transform="translate(467,686)" d="m0 0h5v33h19v5h-23l-1-1z" fill="#003A68"/>
<path transform="translate(1187,691)" d="m0 0h16l3 4-1 6-5 3h-12l-1-1z" fill="#F6F6F6"/>
<path transform="translate(1378,686)" d="m0 0h6v37l-5 1-1-1z" fill="#004172"/>
<path transform="translate(1740,690)" d="m0 0h15l5 4-1 6-3 2h-16z" fill="#F6F6F6"/>
<path transform="translate(965,690)" d="m0 0h15l5 4-1 6-3 2h-16z" fill="#F5F6F6"/>
<path transform="translate(584,690)" d="m0 0h14l4 2 1 7-3 3h-17z" fill="#F8F9F9"/>
<path transform="translate(617,686)" d="m0 0h5v38h-5z" fill="#003562"/>
<path transform="translate(1425,686)" d="m0 0h5v38h-5z" fill="#002E58"/>
<path transform="translate(745,686)" d="m0 0h5v38h-5z" fill="#003562"/>
<path transform="translate(712,510)" d="m0 0 2 2 9 26v2h-6l-5-5z" fill="#005891"/>
<path transform="translate(476,514)" d="m0 0h1v22l-3 3-6 1 3-11z" fill="#0069AA"/>
<path transform="translate(445,692)" d="m0 0 3 4 4 12h-12l1-5z" fill="#F0F0F1"/>
<path transform="translate(1010,692)" d="m0 0 2 1 5 13v2h-12l3-10z" fill="#F1F1F2"/>
<path transform="translate(1712,692)" d="m0 0h2l5 14v2h-12z" fill="#F1F1F2"/>
<path transform="translate(1602,692)" d="m0 0 2 2 4 11v3h-11l2-9z" fill="#F2F2F2"/>
<path transform="translate(656,348)" d="m0 0 2 2 7 21h-6l-3-4z" fill="#00548C"/>
<path transform="translate(533,351)" d="m0 0h1v15l-3 5-5 1 3-11z" fill="#004273"/>
</svg>
