<?xml version="1.0" encoding="utf-8"?>
<!-- Generator: Adobe Illustrator 21.0.0, SVG Export Plug-In . SVG Version: 6.00 Build 0)  -->
<svg version="1.1" id="Layer_1" xmlns="http://www.w3.org/2000/svg" xmlns:xlink="http://www.w3.org/1999/xlink" x="0px" y="0px"
	 viewBox="0 0 164.992 163.492" enable-background="new 0 0 164.992 163.492" xml:space="preserve">
<g>
	<g>
		<path fill="#FFFFFF" d="M57.543,28.936c0.915-0.736,1.862-1.435,2.837-2.095C59.404,27.499,58.459,28.2,57.543,28.936z"/>
		<path fill="#FFFFFF" d="M60.38,26.841c0.002-0.001,0.004-0.003,0.006-0.004C60.384,26.838,60.382,26.839,60.38,26.841z"/>
		<path fill="#FFFFFF" d="M57.306,29.128c0.079-0.064,0.158-0.128,0.237-0.192C57.464,28.999,57.385,29.063,57.306,29.128z"/>
		<path fill="#FFFFFF" d="M56.015,30.22c0.422-0.373,0.854-0.735,1.291-1.092C56.869,29.484,56.437,29.846,56.015,30.22z"/>
		<path fill="#556CB2" d="M126.564,62.024c0,0.364-0.005,0.733-0.016,1.091c-0.005,0.364-0.021,0.733-0.037,1.091v0.005
			c-0.021,0.358-0.043,0.717-0.07,1.08c-0.021,0.235-0.037,0.476-0.064,0.717c-0.027,0.294-0.059,0.594-0.096,0.888
			c-0.016,0.203-0.037,0.401-0.07,0.604c-0.037,0.326-0.086,0.658-0.134,0.984V68.5c-0.059,0.348-0.112,0.69-0.176,1.032
			c-0.059,0.316-0.112,0.626-0.176,0.936c-0.053,0.273-0.118,0.546-0.176,0.813c-0.043,0.214-0.091,0.417-0.144,0.626
			c-0.011,0.075-0.032,0.144-0.048,0.214c-0.043,0.176-0.086,0.358-0.134,0.535c-0.027,0.107-0.059,0.225-0.086,0.337
			c-0.064,0.214-0.123,0.433-0.182,0.647c-0.091,0.337-0.193,0.669-0.294,1c-0.005,0.011-0.011,0.027-0.011,0.032
			c-0.102,0.326-0.209,0.642-0.316,0.963c-0.086,0.251-0.176,0.508-0.267,0.754c-0.15,0.439-0.316,0.877-0.487,1.305
			c-0.118,0.283-0.23,0.567-0.353,0.85c-0.091,0.23-0.187,0.449-0.289,0.674c-0.07,0.155-0.139,0.31-0.214,0.471
			c-0.112,0.246-0.225,0.492-0.348,0.738c0,0.011-0.011,0.027-0.016,0.037c-0.128,0.267-0.262,0.535-0.396,0.802
			c-0.385,0.754-0.792,1.497-1.219,2.225h-0.005l-13.771-9.627c1.84-3.546,2.877-7.578,2.877-11.841
			c0-14.205-11.504-25.725-25.725-25.725c-2.134,0-4.204,0.257-6.182,0.743l-6.14-15.633l-0.005-0.011
			c0.481-0.15,0.968-0.283,1.46-0.412c0.214-0.053,0.428-0.112,0.647-0.166c0.096-0.027,0.187-0.048,0.283-0.07
			c0.187-0.048,0.374-0.091,0.562-0.128c0.642-0.15,1.284-0.278,1.941-0.396c0.283-0.048,0.562-0.096,0.845-0.139
			c0.091-0.016,0.182-0.032,0.278-0.043c0.305-0.048,0.604-0.091,0.904-0.128c0.353-0.043,0.711-0.086,1.064-0.118
			c0.358-0.037,0.717-0.07,1.075-0.096c0.358-0.027,0.722-0.054,1.08-0.07c0.316-0.016,0.631-0.027,0.952-0.037
			c0.406-0.016,0.818-0.016,1.235-0.016c12.087,0,22.986,5.049,30.72,13.156c0.471,0.492,0.925,0.995,1.374,1.508
			c1.326,1.54,2.556,3.177,3.664,4.904c0.412,0.642,0.808,1.3,1.187,1.968c0.128,0.225,0.251,0.444,0.374,0.669
			c0.326,0.604,0.636,1.214,0.936,1.834c0.299,0.615,0.583,1.246,0.85,1.883c0.401,0.952,0.77,1.925,1.107,2.904
			c0.225,0.663,0.433,1.326,0.62,1.995c0.283,1.005,0.535,2.032,0.749,3.065c0.209,1.038,0.385,2.091,0.519,3.15
			c0.091,0.706,0.16,1.423,0.219,2.139C126.521,59.836,126.564,60.922,126.564,62.024z"/>
		<path fill="#FEC018" d="M118.911,86.347c-0.053,0.07-0.107,0.144-0.16,0.219c-0.187,0.267-0.38,0.535-0.578,0.792
			c-0.513,0.695-1.048,1.369-1.604,2.027c-0.176,0.209-0.348,0.412-0.529,0.615c0,0.005-0.005,0.011-0.011,0.011
			c-0.118,0.139-0.241,0.278-0.364,0.412l-0.016,0.016c-0.225,0.251-0.46,0.508-0.695,0.754c-0.225,0.241-0.455,0.481-0.695,0.717
			c-0.299,0.31-0.61,0.61-0.925,0.904c-0.134,0.128-0.267,0.257-0.401,0.374c0,0.011-0.005,0.011-0.005,0.011
			c-0.166,0.15-0.326,0.299-0.487,0.444c-0.005,0.005-0.016,0.011-0.016,0.011c-0.144,0.128-0.283,0.257-0.428,0.374
			c-0.465,0.417-0.941,0.808-1.423,1.193c-0.139,0.107-0.278,0.225-0.422,0.332c-0.428,0.337-0.866,0.669-1.316,0.984
			c-0.08,0.064-0.171,0.123-0.251,0.176c-0.166,0.123-0.332,0.241-0.503,0.353c-0.166,0.112-0.326,0.219-0.487,0.326
			c-0.209,0.144-0.417,0.283-0.636,0.417c-0.246,0.155-0.492,0.31-0.738,0.46c-0.358,0.219-0.722,0.433-1.086,0.642
			c-0.326,0.187-0.652,0.369-0.989,0.551c-1.145,0.615-2.326,1.177-3.54,1.685c-0.16,0.075-0.332,0.139-0.497,0.209
			c-0.166,0.07-0.332,0.134-0.497,0.198c-0.166,0.064-0.326,0.128-0.492,0.193c-0.487,0.187-0.989,0.364-1.492,0.529
			c-0.305,0.102-0.61,0.203-0.92,0.299c-0.84,0.257-1.69,0.492-2.551,0.701c-0.198,0.053-0.401,0.096-0.599,0.144
			c-0.241,0.053-0.487,0.112-0.727,0.155c-0.487,0.102-0.979,0.193-1.471,0.283c-0.209,0.037-0.417,0.07-0.631,0.102
			c-0.396,0.064-0.797,0.118-1.203,0.171c-0.246,0.032-0.497,0.059-0.743,0.086c-0.166,0.021-0.332,0.037-0.492,0.054
			c-0.273,0.027-0.551,0.048-0.824,0.07c-0.027,0-0.053,0.005-0.075,0.005c-0.289,0.027-0.567,0.043-0.856,0.059
			c-0.487,0.027-0.984,0.043-1.476,0.053c-0.31,0.011-0.62,0.016-0.936,0.016c-0.364,0-0.727-0.005-1.096-0.016
			c-0.294-0.011-0.588-0.016-0.882-0.032c-1.594-0.075-3.166-0.235-4.706-0.476c-0.358-0.059-0.711-0.118-1.07-0.182
			c-0.84-0.16-1.685-0.337-2.508-0.546c-0.396-0.096-0.786-0.203-1.182-0.31c-0.059-0.016-0.118-0.037-0.176-0.048
			c-0.358-0.102-0.706-0.209-1.059-0.321c-0.016-0.005-0.021-0.005-0.037-0.011c-0.396-0.123-0.786-0.251-1.177-0.39
			c-0.267-0.091-0.535-0.187-0.797-0.289c-0.086-0.027-0.166-0.059-0.251-0.091c-0.091-0.032-0.182-0.07-0.278-0.107
			c-0.064-0.021-0.134-0.048-0.198-0.075c-0.273-0.102-0.546-0.214-0.818-0.332c-0.385-0.155-0.765-0.321-1.145-0.492
			c-0.759-0.342-1.508-0.706-2.241-1.091l9.621-13.916c3.054,1.31,6.45,2.022,10.001,2.022c8.739,0,16.44-4.348,21.093-10.996
			L118.911,86.347z"/>
		<path fill="#6E6F72" d="M84.121,45.444c-2.161,0-4.193,0.406-6.075,1.15c-6.161,2.428-10.525,8.418-10.525,15.429
			c0,9.167,7.45,16.617,16.601,16.617c5.616,0,10.605-2.818,13.595-7.113c1.899-2.701,3-5.974,3-9.504
			C100.717,52.878,93.267,45.444,84.121,45.444z M90.888,60.874c-1.577,0-2.856-1.279-2.856-2.856s1.279-2.856,2.856-2.856
			s2.856,1.279,2.856,2.856S92.465,60.874,90.888,60.874z"/>
		<path fill="#E8282B" d="M58.37,62.024c0,6.904,2.733,13.173,7.145,17.788l-9.611,13.921l-0.011,0.011
			c-3.407-3.032-6.316-6.61-8.594-10.595c-0.171-0.294-0.337-0.594-0.503-0.893c-0.16-0.289-0.31-0.583-0.465-0.877
			c-0.021-0.032-0.037-0.07-0.054-0.107c-0.144-0.278-0.283-0.562-0.417-0.845c-0.15-0.31-0.299-0.62-0.439-0.936
			c-0.139-0.31-0.278-0.626-0.406-0.941c-0.016-0.011-0.021-0.027-0.027-0.043c-0.128-0.305-0.251-0.61-0.374-0.92
			c-0.267-0.669-0.513-1.348-0.738-2.038c-0.209-0.61-0.401-1.23-0.572-1.85c-0.016-0.027-0.021-0.053-0.027-0.08
			c-0.075-0.267-0.15-0.535-0.214-0.802c-0.027-0.086-0.054-0.171-0.07-0.262c-0.064-0.251-0.128-0.503-0.187-0.749
			c-0.027-0.102-0.048-0.209-0.075-0.321c-0.043-0.193-0.086-0.39-0.128-0.588c-0.037-0.193-0.08-0.38-0.112-0.572
			c-0.048-0.219-0.091-0.433-0.128-0.652c-0.016-0.075-0.032-0.15-0.037-0.23c-0.059-0.283-0.102-0.572-0.144-0.856
			c-0.021-0.086-0.027-0.166-0.043-0.257c-0.043-0.262-0.075-0.519-0.107-0.786c-0.016-0.118-0.037-0.235-0.043-0.358
			c-0.032-0.257-0.064-0.513-0.091-0.775c-0.005-0.07-0.016-0.139-0.016-0.209c-0.032-0.273-0.059-0.551-0.075-0.829
			c-0.048-0.519-0.075-1.032-0.091-1.562c-0.016-0.23-0.027-0.46-0.027-0.695c-0.011-0.364-0.016-0.727-0.016-1.091
			c0-0.316,0.005-0.626,0.016-0.936c0-0.128,0-0.257,0.005-0.385c0.005-0.225,0.016-0.449,0.027-0.669
			c0.048-1.064,0.139-2.118,0.267-3.161c0.011-0.16,0.032-0.31,0.053-0.46c0.037-0.289,0.08-0.572,0.118-0.856
			c0.059-0.353,0.112-0.701,0.176-1.048c0.048-0.273,0.096-0.54,0.155-0.808c0.027-0.144,0.053-0.283,0.086-0.423
			c0.054-0.283,0.123-0.567,0.187-0.84c0.075-0.348,0.16-0.685,0.246-1.027c0.08-0.316,0.166-0.631,0.257-0.947
			c0.011-0.048,0.027-0.107,0.043-0.155c0.091-0.305,0.176-0.61,0.273-0.909c0.187-0.61,0.39-1.209,0.604-1.802
			c0.075-0.203,0.15-0.401,0.225-0.604c0.021-0.059,0.043-0.118,0.07-0.171c0.075-0.219,0.166-0.433,0.251-0.642
			c0.086-0.23,0.182-0.46,0.278-0.679c0.112-0.273,0.23-0.54,0.348-0.808c0.032-0.064,0.064-0.128,0.091-0.193
			c0.112-0.262,0.241-0.519,0.358-0.775c0.086-0.171,0.166-0.342,0.251-0.508c0.107-0.219,0.214-0.439,0.332-0.658
			c0.246-0.481,0.508-0.957,0.775-1.428c0.096-0.182,0.198-0.358,0.31-0.529c0.112-0.209,0.235-0.417,0.364-0.62
			c0.112-0.193,0.241-0.39,0.364-0.588c0.182-0.299,0.38-0.594,0.578-0.888c0.112-0.171,0.23-0.348,0.348-0.519
			c0.054-0.075,0.107-0.155,0.16-0.23c0.128-0.182,0.251-0.358,0.38-0.535c0.155-0.214,0.305-0.423,0.465-0.631
			c0.337-0.449,0.679-0.888,1.032-1.321c0.134-0.166,0.273-0.332,0.412-0.497c0.011-0.016,0.021-0.032,0.032-0.048
			c0.166-0.187,0.326-0.38,0.487-0.562c0.342-0.39,0.69-0.781,1.048-1.161c0.15-0.166,0.31-0.326,0.465-0.487
			c0.053-0.059,0.118-0.123,0.171-0.176c0.15-0.15,0.299-0.305,0.449-0.449c0.578-0.578,1.177-1.134,1.786-1.674
			c0.497-0.439,1.005-0.872,1.524-1.284c0.23-0.182,0.46-0.364,0.695-0.546c0.23-0.176,0.465-0.353,0.701-0.529
			c0.225-0.166,0.455-0.332,0.685-0.497c0.011-0.011,0.021-0.016,0.032-0.021c0.241-0.171,0.481-0.337,0.727-0.503h0.004
			c2.547-1.728,5.292-3.184,8.195-4.321l0.005,0.016l6.113,15.547C65.13,41.829,58.37,51.146,58.37,62.024z"/>
	</g>
	<g>
		<path fill="#2A2A2A" d="M28.8,143.559l-0.828-2.714h-0.141c-0.94,1.187-1.886,1.994-2.837,2.423
			c-0.952,0.429-2.174,0.644-3.666,0.644c-1.915,0-3.41-0.517-4.485-1.551c-1.075-1.034-1.613-2.496-1.613-4.388
			c0-2.01,0.746-3.525,2.238-4.547c1.492-1.022,3.765-1.58,6.82-1.674l3.366-0.106v-1.039c0-1.245-0.291-2.177-0.872-2.794
			c-0.582-0.616-1.483-0.925-2.705-0.925c-0.999,0-1.956,0.147-2.873,0.44c-0.917,0.294-1.797,0.641-2.644,1.04l-1.339-2.961
			c1.058-0.552,2.215-0.972,3.472-1.26c1.257-0.288,2.444-0.432,3.56-0.432c2.479,0,4.35,0.54,5.613,1.621
			c1.263,1.081,1.894,2.778,1.894,5.093v13.129H28.8z M22.632,140.739c1.504,0,2.711-0.42,3.622-1.261
			c0.91-0.84,1.366-2.018,1.366-3.533v-1.691l-2.502,0.105c-1.95,0.07-3.369,0.396-4.256,0.979c-0.887,0.581-1.331,1.472-1.331,2.67
			c0,0.869,0.258,1.542,0.775,2.018S21.598,140.739,22.632,140.739z"/>
		<path fill="#2A2A2A" d="M44.114,143.911c-2.432,0-4.329-0.881-5.692-2.644c-1.363-1.762-2.044-4.235-2.044-7.419
			c0-3.195,0.69-5.684,2.071-7.463c1.38-1.78,3.292-2.67,5.736-2.67c2.561,0,4.511,0.945,5.851,2.837h0.211
			c-0.2-1.397-0.3-2.502-0.3-3.313v-7.103h4.159v27.421h-3.243l-0.723-2.556h-0.194C48.619,142.941,46.675,143.911,44.114,143.911z
			 M45.224,140.562c1.703,0,2.943-0.479,3.718-1.436c0.775-0.958,1.175-2.512,1.198-4.661v-0.582c0-2.455-0.399-4.2-1.198-5.233
			c-0.799-1.034-2.05-1.551-3.753-1.551c-1.457,0-2.579,0.59-3.366,1.771c-0.787,1.181-1.181,2.863-1.181,5.049
			c0,2.162,0.382,3.81,1.146,4.943S43.697,140.562,45.224,140.562z"/>
		<path fill="#2A2A2A" d="M68.539,143.911c-3.031,0-5.401-0.884-7.11-2.652c-1.709-1.768-2.564-4.203-2.564-7.305
			c0-3.184,0.793-5.686,2.379-7.507c1.586-1.821,3.765-2.731,6.538-2.731c2.573,0,4.605,0.781,6.098,2.344
			c1.492,1.563,2.238,3.713,2.238,6.449v2.238H63.128c0.059,1.892,0.57,3.346,1.533,4.362c0.963,1.016,2.32,1.523,4.071,1.523
			c1.151,0,2.223-0.108,3.216-0.325c0.993-0.218,2.059-0.579,3.198-1.084v3.365c-1.01,0.482-2.033,0.823-3.066,1.022
			C71.047,143.811,69.866,143.911,68.539,143.911z M67.781,126.853c-1.316,0-2.37,0.417-3.163,1.251
			c-0.793,0.834-1.266,2.051-1.418,3.648h8.846c-0.023-1.61-0.411-2.829-1.163-3.657C70.13,127.267,69.097,126.853,67.781,126.853z"
			/>
		<path fill="#2A2A2A" d="M84.963,143.559h-4.142v-27.421h4.142V143.559z"/>
		<path fill="#2A2A2A" d="M99.396,143.911c-3.031,0-5.401-0.884-7.111-2.652c-1.709-1.768-2.564-4.203-2.564-7.305
			c0-3.184,0.792-5.686,2.379-7.507c1.586-1.821,3.765-2.731,6.538-2.731c2.572,0,4.604,0.781,6.097,2.344s2.238,3.713,2.238,6.449
			v2.238H93.986c0.059,1.892,0.569,3.346,1.533,4.362c0.963,1.016,2.319,1.523,4.07,1.523c1.151,0,2.224-0.108,3.216-0.325
			c0.993-0.218,2.06-0.579,3.199-1.084v3.365c-1.011,0.482-2.033,0.823-3.066,1.022C101.904,143.811,100.723,143.911,99.396,143.911
			z M98.638,126.853c-1.316,0-2.37,0.417-3.164,1.251c-0.793,0.834-1.266,2.051-1.418,3.648h8.847
			c-0.024-1.61-0.412-2.829-1.163-3.657C100.988,127.267,99.954,126.853,98.638,126.853z"/>
		<path fill="#2A2A2A" d="M123.874,143.559l-0.828-2.714h-0.141c-0.94,1.187-1.886,1.994-2.838,2.423
			c-0.951,0.429-2.174,0.644-3.665,0.644c-1.915,0-3.41-0.517-4.485-1.551s-1.612-2.496-1.612-4.388c0-2.01,0.746-3.525,2.238-4.547
			c1.492-1.022,3.765-1.58,6.819-1.674l3.366-0.106v-1.039c0-1.245-0.291-2.177-0.872-2.794c-0.582-0.616-1.483-0.925-2.705-0.925
			c-0.999,0-1.956,0.147-2.872,0.44c-0.917,0.294-1.798,0.641-2.644,1.04l-1.34-2.961c1.058-0.552,2.215-0.972,3.472-1.26
			s2.443-0.432,3.56-0.432c2.479,0,4.35,0.54,5.613,1.621c1.263,1.081,1.895,2.778,1.895,5.093v13.129H123.874z M117.706,140.739
			c1.504,0,2.711-0.42,3.622-1.261c0.91-0.84,1.365-2.018,1.365-3.533v-1.691l-2.502,0.105c-1.951,0.07-3.369,0.396-4.256,0.979
			c-0.888,0.581-1.331,1.472-1.331,2.67c0,0.869,0.259,1.542,0.775,2.018S116.671,140.739,117.706,140.739z"/>
		<path fill="#2A2A2A" d="M149.761,143.559h-4.159v-11.983c0-1.504-0.303-2.626-0.907-3.366c-0.605-0.74-1.565-1.109-2.882-1.109
			c-1.75,0-3.03,0.517-3.842,1.551c-0.811,1.033-1.216,2.767-1.216,5.198v9.71h-4.141v-19.49h3.242l0.582,2.555h0.211
			c0.587-0.928,1.422-1.645,2.503-2.149c1.08-0.505,2.278-0.758,3.595-0.758c4.676,0,7.014,2.379,7.014,7.137V143.559z"/>
	</g>
</g>
</svg>
