<svg xmlns="http://www.w3.org/2000/svg" role="img" viewBox="34.05 145.55 491.40 108.40"><title>Aetna Inc. logo</title><path fill="#7d3f98" d="M481.6267 223.80865c0-6.23267.74793-15.20772.74793-25.67862 0-19.44594-7.97783-26.67585-29.66754-26.67585-10.47089 0-19.69525 1.49584-25.42931 3.98891l.74792 15.45704c4.98614-2.74238 12.21604-5.23545 19.19664-5.23545 9.97228 0 12.71466 3.98891 12.71466 13.71189v1.49584h-3.241c-24.43208 0-35.9002 7.4792-35.9002 21.1911 0 14.2105 6.9806 22.43762 27.17446 22.43762 10.7202 0 20.94179-1.49584 34.65367-1.49584-.99722-5.23545-.99722-13.46258-.99722-19.19664zm-28.421 7.47921c-7.4792 0-10.7202-2.49307-10.7202-8.72574 0-5.98337 3.98892-9.47367 14.2105-9.47367h2.99169c0 5.73406-.2493 12.71466.2493 17.4515-1.74514.4986-4.23821.74791-6.73128.74791zm-188.47608-.74792c-12.21605 0-18.69803-6.23267-18.69803-16.20495v-.49862c2.24376 0 6.48198.24931 8.97505.24931 21.68971 0 32.65922-6.73129 32.65922-21.4404 0-12.71466-9.22436-20.94179-28.91961-20.94179-24.18278 0-33.65645 10.7202-35.90021 29.91684-3.4903-.2493-7.47921-.2493-12.71466-.2493v-3.241c0-19.44594-7.97782-26.67585-29.66753-26.67585-10.4709 0-19.69525 1.49584-25.42931 3.98891l.74792 15.45704c4.98614-2.74238 12.21604-5.23545 19.19664-5.23545 9.97228 0 12.96396 3.98891 12.96396 13.71189v1.49584h-3.241c-24.43208 0-35.9002 7.4792-35.9002 21.1911 0 14.2105 6.9806 22.43762 27.17446 22.43762 10.7202 0 20.9418-1.49584 34.65368-1.49584-.99723-5.73406-.99723-13.96119-.99723-19.44594 0-2.99169.2493-6.48199.2493-10.4709 5.73407 0 9.97229.2493 12.71466.2493 1.99446 22.93625 13.9612 31.16338 38.39328 31.16338 8.97505 0 18.19941-1.49584 23.18555-3.7396l-.74792-15.45704c-4.73683 2.99169-11.46812 5.23545-18.69802 5.23545zm-83.51785.74792c-7.4792 0-10.7202-2.49307-10.7202-8.72574 0-5.98337 3.98891-9.47367 14.2105-9.47367h2.99168c0 5.73406-.2493 12.71466.24931 17.4515-1.74515.4986-4.48753.74791-6.73129.74791zm64.57051-29.66753c0-9.72297 2.99169-16.95288 11.96674-16.95288 4.98614 0 8.47644 2.74238 8.47644 7.47921 0 6.7313-4.48753 9.97228-13.9612 9.97228-2.24376 0-4.73683 0-6.48198-.2493zm166.03847 9.22436V197.1328c0-17.7008-7.72852-25.42931-29.66754-25.42931-12.21604 0-20.94178 2.24376-34.65367 2.24376.74792 12.46535.74792 27.67308.74792 37.14675 0 9.72297-.2493 26.92515-.74792 32.4099h23.43486c-.49862-5.48475-.99723-21.6897-.99723-32.4099 0-6.23268 0-13.71189.2493-23.68417 2.24377-.74792 5.23545-1.49584 8.47645-1.49584 8.22713 0 10.9695 3.7396 10.9695 14.4598v10.4709c0 9.72297-.2493 26.92515-.74792 32.4099h23.43486c0-5.48475-.49861-21.4404-.49861-32.4099zm-73.79488 16.95287l.99723 15.45704c-1.74515.49861-7.4792 1.49584-14.95842 1.49584-15.45703 0-23.68416-6.48198-23.68416-22.43763 0-12.46535.2493-26.17723.2493-33.65644H292.652c.2493-3.4903 0-8.22713 0-11.71743 11.96674-1.99446 15.70634-8.72575 17.7008-21.93902h13.21327c-.49862 5.48475-.74792 13.21327-.99723 18.69803h13.9612v14.95842h-14.2105v27.17446c0 10.4709 2.24376 13.46258 9.22435 13.46258 2.49307 0 5.23545-.49862 6.48198-1.49584zM71.26738 165.22151c2.99169 0 5.73407.99723 7.97783 3.24099l12.96396 12.96396 12.96397-12.96396c2.24376-2.24376 4.98614-3.241 7.97782-3.241 2.74238 0 5.73406.99724 7.97782 3.241l15.95565 15.95565c4.48753 4.48752 4.48753 11.46812 0 15.95565l-44.87526 44.62595-44.87526-44.87526c-4.48752-4.48753-4.48752-11.46812 0-15.95565l15.95565-15.95565c2.24376-1.99445 4.98614-2.99168 7.97782-2.99168m414.84685 6.48198h12.21605v2.49307h-4.73684v12.46535h-2.99168v-12.46535h-4.73683zm14.95842 0h3.98891l1.99446 6.48198c.49861 1.99446 1.49584 5.73406 1.49584 5.73406s.99723-3.7396 1.49584-5.73406l1.99446-6.48198h3.98891v14.95842h-2.74237v-5.48475c0-2.74238.2493-6.7313.2493-6.7313s-.99723 3.4903-1.74515 6.48199l-1.74515 5.73406h-2.74237l-1.74515-5.73406c-.99723-2.99169-1.74515-6.48198-1.74515-6.48198s.2493 4.23822.2493 6.73129v5.48475h-2.74237v-14.95842z"/></svg>