<svg width="1108" height="560" viewBox="0 0 1108 560" fill="none" xmlns="http://www.w3.org/2000/svg">
<path fill-rule="evenodd" clip-rule="evenodd" d="M224.329 195.175C242.869 174.198 273.573 168.045 298.815 180.153C332.35 196.241 344.586 237.226 326.327 268.84L285.251 339.883C282.956 343.851 279.179 346.748 274.75 347.935C270.32 349.122 265.601 348.502 261.627 346.214L311.356 260.189C324.603 237.244 315.742 207.502 291.429 195.792C273.184 187.006 250.883 191.395 237.406 206.505C229.972 214.8 225.798 225.509 225.659 236.647C225.52 247.785 229.424 258.595 236.649 267.074C237.947 268.594 239.344 270.029 240.831 271.368L211.8 321.678C210.665 323.645 209.153 325.367 207.352 326.751C205.55 328.134 203.494 329.148 201.3 329.736C199.107 330.324 196.819 330.474 194.568 330.177C192.316 329.881 190.145 329.144 188.178 328.01L219.695 273.39C215.168 266.863 211.917 259.539 210.113 251.803L190.8 285.34C188.504 289.31 184.727 292.206 180.298 293.393C175.869 294.581 171.149 293.962 167.176 291.672L217.119 205.164C219.198 201.612 221.612 198.267 224.329 195.175ZM281.973 222.71C294.001 229.657 298.155 245.105 291.195 257.128L243.304 339.872C241.009 343.841 237.23 346.738 232.801 347.925C228.371 349.111 223.652 348.492 219.679 346.204L264.149 269.168C260.58 268.418 257.218 266.901 254.293 264.723C251.368 262.547 248.951 259.761 247.208 256.558C245.464 253.356 244.436 249.813 244.195 246.175C243.955 242.537 244.506 238.889 245.813 235.485C247.119 232.081 249.148 229.001 251.761 226.457C254.374 223.913 257.506 221.967 260.945 220.752C264.383 219.538 268.044 219.084 271.674 219.422C275.304 219.76 278.819 220.882 281.973 222.71ZM264.554 238.26C263.73 238.892 263.039 239.68 262.521 240.579C261.739 241.933 261.374 243.488 261.477 245.047C261.58 246.606 262.142 248.101 263.093 249.341C264.046 250.58 265.343 251.51 266.823 252.012C268.303 252.515 269.899 252.567 271.409 252.162C272.919 251.758 274.273 250.914 275.304 249.739C276.334 248.564 276.994 247.11 277.198 245.561C277.401 244.011 277.141 242.436 276.449 241.034C275.758 239.632 274.667 238.467 273.313 237.686C272.416 237.167 271.423 236.83 270.395 236.694C269.365 236.559 268.32 236.628 267.318 236.896C266.316 237.165 265.376 237.629 264.554 238.26Z" fill="#5F5CFF"/>
<path d="M898.826 340.309C889.962 340.309 882.083 338.285 875.189 334.236C868.404 330.077 863.097 324.496 859.266 317.493C855.436 310.38 853.521 302.446 853.521 293.691C853.521 284.718 855.436 276.784 859.266 269.89C863.206 262.996 868.459 257.579 875.025 253.639C881.591 249.59 889.032 247.566 897.349 247.566C904.024 247.566 909.988 248.715 915.241 251.013C920.494 253.311 924.926 256.484 928.537 260.533C932.148 264.473 934.884 269.014 936.744 274.158C938.714 279.301 939.699 284.773 939.699 290.572C939.699 291.995 939.644 293.472 939.535 295.004C939.425 296.537 939.207 297.959 938.878 299.272H868.13V284.499H928.373L919.509 291.229C920.603 285.867 920.22 281.107 918.36 276.948C916.609 272.68 913.873 269.343 910.152 266.935C906.541 264.418 902.273 263.16 897.349 263.16C892.424 263.16 888.047 264.418 884.217 266.935C880.387 269.343 877.432 272.844 875.353 277.441C873.274 281.927 872.453 287.399 872.891 293.855C872.344 299.874 873.164 305.127 875.353 309.614C877.651 314.1 880.825 317.602 884.874 320.119C889.032 322.636 893.738 323.895 898.99 323.895C904.352 323.895 908.894 322.691 912.615 320.283C916.445 317.876 919.454 314.757 921.643 310.927L936.744 318.314C934.993 322.472 932.258 326.247 928.537 329.64C924.926 332.923 920.548 335.549 915.405 337.519C910.371 339.379 904.845 340.309 898.826 340.309Z" fill="#1A194D"/>
<path d="M839.455 339.323C830.153 339.323 822.931 336.697 817.787 331.444C812.644 326.191 810.073 318.805 810.073 309.284V266.277H794.478V249.534H796.941C801.099 249.534 804.327 248.331 806.625 245.923C808.924 243.516 810.073 240.233 810.073 236.074V229.18H828.621V249.534H848.811V266.277H828.621V308.463C828.621 311.528 829.114 314.154 830.099 316.343C831.083 318.422 832.67 320.063 834.859 321.267C837.048 322.361 839.893 322.908 843.395 322.908C844.27 322.908 845.255 322.854 846.349 322.744C847.444 322.635 848.483 322.525 849.468 322.416V338.338C847.936 338.557 846.24 338.776 844.379 338.995C842.519 339.214 840.878 339.323 839.455 339.323Z" fill="#1A194D"/>
<path d="M652.402 340.309C645.507 340.309 639.215 338.886 633.525 336.041C627.944 333.196 623.621 329.092 620.557 323.73L622.691 320.283V338.339H604.963V214.079H623.512V267.92L620.557 263.652C623.84 258.618 628.217 254.678 633.689 251.833C639.16 248.988 645.398 247.565 652.402 247.565C660.828 247.565 668.379 249.59 675.054 253.639C681.839 257.688 687.146 263.214 690.976 270.218C694.916 277.221 696.886 285.1 696.886 293.855C696.886 302.61 694.916 310.489 690.976 317.492C687.146 324.496 681.894 330.077 675.218 334.235C668.543 338.284 660.937 340.309 652.402 340.309ZM650.596 323.073C655.849 323.073 660.5 321.815 664.549 319.298C668.598 316.781 671.771 313.334 674.069 308.957C676.477 304.47 677.68 299.436 677.68 293.855C677.68 288.274 676.477 283.295 674.069 278.918C671.771 274.54 668.598 271.093 664.549 268.576C660.5 266.059 655.849 264.801 650.596 264.801C645.453 264.801 640.802 266.059 636.643 268.576C632.594 271.093 629.366 274.54 626.959 278.918C624.661 283.295 623.512 288.274 623.512 293.855C623.512 299.436 624.661 304.47 626.959 308.957C629.366 313.334 632.594 316.781 636.643 319.298C640.802 321.815 645.453 323.073 650.596 323.073Z" fill="#1A194D"/>
<path d="M545.398 338.339V249.535H563.126V267.427L561.485 264.8C563.455 259 566.628 254.842 571.006 252.325C575.383 249.699 580.636 248.385 586.764 248.385H592.181V265.293H584.466C578.337 265.293 573.358 267.208 569.528 271.038C565.807 274.759 563.947 280.121 563.947 287.124V338.339H545.398Z" fill="#1A194D"/>
<path d="M505.879 338.339V249.535H524.428V338.339H505.879ZM505.879 237.388V216.049H524.428V237.388H505.879Z" fill="#1A194D"/>
<path d="M383.096 338.339L426.103 216.049H450.068L493.075 338.339H472.392L463.036 310.926H413.299L403.778 338.339H383.096ZM418.88 293.691H457.127L435.459 229.673H440.876L418.88 293.691Z" fill="#1A194D"/>
<path d="M741.432 313.88L752.202 287.451L766.657 249.551H787.012L773.217 283.212L735.348 376.134C731.774 384.725 721.269 388.553 712.463 384.964L731.851 337.39L696.895 249.551H716.757L741.432 313.88Z" fill="#1A194D"/>
</svg>
