<?xml version="1.0" encoding="utf-8"?>
<!-- Generator: Adobe Illustrator 23.0.3, SVG Export Plug-In . SVG Version: 6.00 Build 0)  -->
<svg version="1.1" id="Ebene_1" xmlns="http://www.w3.org/2000/svg" xmlns:xlink="http://www.w3.org/1999/xlink" x="0px" y="0px"
	 viewBox="0 0 286.3 104.9" style="enable-background:new 0 0 286.3 104.9;" xml:space="preserve">
<style type="text/css">
	.st0{fill:#808B8F;}
</style>
<g>
	<g>
		<path class="st0" d="M257.4,100v-5.4h3.7c1.2,0,2,0.2,2.5,0.7c0.5,0.5,0.7,1.1,0.7,2c0,0.4-0.1,0.8-0.2,1.1
			c-0.1,0.3-0.3,0.6-0.6,0.9s-0.6,0.4-1.1,0.6c-0.5,0.1-1,0.2-1.7,0.2C260.9,100,257.4,100,257.4,100z M257.4,92.2v-4.7h3
			c1.3,0,2.2,0.2,2.7,0.5c0.5,0.4,0.8,0.9,0.8,1.8c0,0.8-0.2,1.4-0.7,1.8c-0.5,0.4-1.2,0.6-2.4,0.6
			C260.9,92.2,257.4,92.2,257.4,92.2z M254.6,102.3h6.4c1.2,0,2.1-0.1,3-0.4c0.8-0.3,1.5-0.6,1.9-1.1s0.9-1,1.1-1.6
			c0.2-0.6,0.3-1.3,0.3-2c0-0.4,0-0.8-0.1-1.1s-0.2-0.7-0.4-1.1c-0.2-0.3-0.5-0.7-0.8-1s-0.8-0.6-1.3-0.8c0.9-0.4,1.4-0.9,1.8-1.5
			c0.3-0.6,0.5-1.3,0.5-2c0-0.6-0.1-1.2-0.3-1.8c-0.2-0.6-0.5-1-1-1.4s-1.1-0.7-1.9-1c-0.8-0.2-1.8-0.3-3.1-0.3h-5.9L254.6,102.3
			L254.6,102.3z M236.6,85.2v10.2c0,2.6,0.6,4.4,1.7,5.6c1.1,1.2,2.8,1.8,5,1.8c1,0,1.9-0.1,2.7-0.4c0.8-0.3,1.5-0.7,2.1-1.3
			c0.6-0.6,1.1-1.3,1.4-2.3c0.3-0.9,0.5-2,0.5-3.4V85.2h-2.9v10.3c0,1.6-0.3,2.8-0.9,3.6s-1.5,1.2-2.9,1.2c-1.4,0-2.4-0.4-3-1.2
			s-0.9-2-0.9-3.6V85.2H236.6z M218.6,102.3h2.9v-7.5h7.7v7.5h2.9V85.2h-2.9v6.9h-7.7v-6.9h-2.9V102.3z M194.4,97.1
			c0.1,1.9,0.8,3.4,2.1,4.3s3,1.4,5.1,1.4c1.1,0,2-0.1,2.8-0.4c0.8-0.3,1.5-0.6,2-1.1c0.5-0.5,0.9-1,1.2-1.6c0.3-0.6,0.4-1.3,0.4-2
			c0-1.5-0.4-2.7-1.3-3.5s-2.2-1.4-4-1.7l-2.4-0.5c-1-0.2-1.7-0.5-2.1-0.9c-0.4-0.4-0.6-0.9-0.6-1.7c0-0.3,0.1-0.6,0.2-0.9
			c0.1-0.3,0.3-0.5,0.6-0.7c0.3-0.2,0.6-0.4,1.1-0.5s1-0.2,1.7-0.2c1.2,0,2.1,0.2,2.6,0.7c0.6,0.5,0.9,1.2,1.2,2.1l2.7-0.4
			c-0.1-0.6-0.3-1.2-0.5-1.8s-0.6-1.1-1.1-1.5c-0.5-0.4-1.1-0.8-1.9-1.1c-0.8-0.3-1.8-0.4-3-0.4c-0.9,0-1.8,0.1-2.6,0.3
			c-0.8,0.2-1.5,0.5-2.1,0.9s-1,0.9-1.4,1.5c-0.3,0.6-0.5,1.3-0.5,2.1s0.1,1.5,0.4,2.1c0.2,0.6,0.6,1.1,1,1.4c0.5,0.4,1,0.7,1.7,0.9
			s1.4,0.4,2.3,0.6l2.2,0.4c0.5,0.1,1,0.2,1.3,0.4s0.6,0.4,0.8,0.6c0.2,0.2,0.4,0.5,0.4,0.7c0.1,0.3,0.1,0.5,0.1,0.8
			c0,0.4-0.1,0.7-0.2,1c-0.1,0.3-0.3,0.6-0.6,0.8c-0.3,0.2-0.6,0.4-1.1,0.6c-0.4,0.1-1,0.2-1.6,0.2c-1.3,0-2.4-0.3-3-0.8
			c-0.7-0.5-1.1-1.3-1.2-2.4L194.4,97.1L194.4,97.1z M177.5,97.1c0.1,1.9,0.8,3.4,2.1,4.3s3,1.4,5.1,1.4c1.1,0,2-0.1,2.8-0.4
			c0.8-0.3,1.5-0.6,2-1.1c0.5-0.5,0.9-1,1.2-1.6c0.3-0.6,0.4-1.3,0.4-2c0-1.5-0.4-2.7-1.3-3.5s-2.2-1.4-4-1.7l-2.4-0.5
			c-1-0.2-1.7-0.5-2.1-0.9c-0.4-0.4-0.6-0.9-0.6-1.7c0-0.3,0.1-0.6,0.2-0.9c0.1-0.3,0.3-0.5,0.6-0.7c0.3-0.2,0.6-0.4,1.1-0.5
			s1-0.2,1.7-0.2c1.2,0,2.1,0.2,2.6,0.7c0.6,0.5,0.9,1.2,1.2,2.1l2.7-0.4c-0.1-0.6-0.3-1.2-0.5-1.8s-0.6-1.1-1.1-1.5
			c-0.5-0.4-1.1-0.8-1.9-1.1c-0.8-0.3-1.8-0.4-3-0.4c-0.9,0-1.8,0.1-2.6,0.3c-0.8,0.2-1.5,0.5-2.1,0.9s-1,0.9-1.4,1.5
			c-0.3,0.6-0.5,1.3-0.5,2.1s0.1,1.5,0.4,2.1c0.2,0.6,0.6,1.1,1,1.4c0.5,0.4,1,0.7,1.7,0.9s1.4,0.4,2.3,0.6l2.2,0.4
			c0.5,0.1,1,0.2,1.3,0.4c0.4,0.2,0.6,0.4,0.8,0.6c0.2,0.2,0.4,0.5,0.4,0.7c0.1,0.3,0.1,0.5,0.1,0.8c0,0.4-0.1,0.7-0.2,1
			c-0.1,0.3-0.3,0.6-0.6,0.8c-0.3,0.2-0.6,0.4-1.1,0.6c-0.4,0.1-1,0.2-1.6,0.2c-1.3,0-2.4-0.3-3-0.8c-0.7-0.5-1.1-1.3-1.2-2.4
			L177.5,97.1L177.5,97.1z M163,102.3h11.5l0.3-2.5h-8.9v-5.1h8v-2.5h-8v-4.6h8.5v-2.5h-11.4L163,102.3L163,102.3z M156,96.5
			c-0.1,0.6-0.2,1.1-0.4,1.6c-0.2,0.5-0.4,0.8-0.8,1.2c-0.3,0.3-0.7,0.6-1.2,0.7c-0.5,0.2-1,0.3-1.7,0.3c-0.8,0-1.4-0.2-2-0.4
			c-0.6-0.3-1.1-0.7-1.5-1.3c-0.4-0.6-0.7-1.3-0.9-2.1s-0.3-1.7-0.3-2.7c0-1,0.1-1.9,0.3-2.7c0.2-0.8,0.5-1.5,0.9-2.1
			c0.4-0.6,0.9-1,1.5-1.3c0.6-0.3,1.3-0.5,2-0.5c0.6,0,1.2,0.1,1.6,0.3s0.8,0.4,1.1,0.7s0.6,0.7,0.8,1.1s0.4,1,0.5,1.5l2.9-0.4
			c-0.2-0.9-0.4-1.7-0.7-2.3s-0.8-1.3-1.3-1.8s-1.2-0.9-2-1.2c-0.8-0.3-1.7-0.4-2.8-0.4c-1.1,0-2.2,0.2-3.2,0.6
			c-1,0.4-1.8,1-2.5,1.8c-0.7,0.8-1.2,1.7-1.6,2.8c-0.4,1.1-0.6,2.4-0.6,3.8c0,1.4,0.2,2.6,0.5,3.7c0.3,1.1,0.9,2.1,1.5,2.8
			c0.7,0.8,1.5,1.4,2.4,1.8c1,0.4,2.1,0.6,3.3,0.6c1.1,0,2.1-0.2,2.9-0.5s1.6-0.8,2.2-1.3s1.1-1.2,1.4-2c0.3-0.8,0.6-1.6,0.6-2.5
			L156,96.5L156,96.5z M137.7,96.5c-0.1,0.6-0.2,1.1-0.4,1.6c-0.2,0.5-0.4,0.8-0.8,1.2c-0.3,0.3-0.7,0.6-1.2,0.7
			c-0.5,0.2-1,0.3-1.7,0.3c-0.8,0-1.4-0.2-2-0.4c-0.6-0.3-1.1-0.7-1.5-1.3c-0.4-0.6-0.7-1.3-0.9-2.1s-0.3-1.7-0.3-2.7
			c0-1,0.1-1.9,0.3-2.7c0.2-0.8,0.5-1.5,0.9-2.1c0.4-0.6,0.9-1,1.5-1.3c0.6-0.3,1.3-0.5,2-0.5c0.6,0,1.2,0.1,1.6,0.3
			s0.8,0.4,1.1,0.7s0.6,0.7,0.8,1.1c0.2,0.4,0.4,1,0.5,1.5l2.9-0.4c-0.2-0.9-0.4-1.7-0.7-2.3s-0.8-1.3-1.3-1.8s-1.2-0.9-2-1.2
			c-0.8-0.3-1.7-0.4-2.8-0.4c-1.1,0-2.2,0.2-3.2,0.6c-1,0.4-1.8,1-2.5,1.8c-0.7,0.8-1.2,1.7-1.6,2.8c-0.4,1.1-0.6,2.4-0.6,3.8
			c0,1.4,0.2,2.6,0.5,3.7c0.3,1.1,0.8,2.1,1.5,2.8s1.5,1.4,2.4,1.8c1,0.4,2.1,0.6,3.3,0.6c1.1,0,2.1-0.2,2.9-0.5
			c0.9-0.3,1.6-0.8,2.2-1.3s1.1-1.2,1.4-2c0.3-0.8,0.6-1.6,0.6-2.5L137.7,96.5L137.7,96.5z M113.6,95.5l2.5-7.1l2.5,7.1H113.6z
			 M108.2,102.3h3l1.6-4.4h6.6l1.6,4.4h3.1l-6.5-17.1h-2.9L108.2,102.3z M87.7,102.3h11.5l0.3-2.5h-8.9v-5.1h8v-2.5h-8v-4.6H99v-2.5
			H87.7V102.3z M71,85.2v17.1h2.8v-6.8H77c0.2,0,0.3,0,0.5,0s0.3,0,0.5,0l3.1,6.8h3.2l-3.6-7.5c1-0.5,1.7-1.1,2.1-1.8
			s0.7-1.7,0.7-2.8c0-0.6-0.1-1.2-0.3-1.8s-0.5-1.1-1-1.6c-0.5-0.5-1.2-0.9-2-1.2c-0.8-0.3-1.9-0.5-3.2-0.5L71,85.2L71,85.2z
			 M73.9,93.1v-5.5h2.9c0.7,0,1.3,0.1,1.7,0.2c0.5,0.1,0.8,0.3,1.1,0.5c0.3,0.2,0.5,0.5,0.6,0.8c0.1,0.3,0.2,0.7,0.2,1.1
			c0,0.4-0.1,0.8-0.2,1.2c-0.1,0.3-0.3,0.7-0.5,0.9s-0.6,0.4-1,0.6s-1,0.2-1.6,0.2C77.1,93.1,73.9,93.1,73.9,93.1z M53.1,85.2v10.2
			c0,2.6,0.6,4.4,1.7,5.6c1.1,1.2,2.8,1.8,5,1.8c1,0,1.9-0.1,2.7-0.4c0.8-0.3,1.5-0.7,2.1-1.3c0.6-0.6,1.1-1.3,1.4-2.3
			s0.5-2,0.5-3.4V85.2h-2.9v10.3c0,1.6-0.3,2.8-0.8,3.6s-1.5,1.2-2.9,1.2c-1.4,0-2.4-0.4-3-1.2c-0.6-0.8-0.9-2-0.9-3.6V85.2H53.1z
			 M46.3,96.5c-0.1,0.6-0.2,1.1-0.4,1.6c-0.2,0.5-0.4,0.8-0.8,1.2c-0.3,0.3-0.7,0.6-1.2,0.7c-0.5,0.2-1,0.3-1.7,0.3
			c-0.8,0-1.4-0.2-2-0.4c-0.6-0.3-1.1-0.7-1.5-1.3c-0.4-0.6-0.7-1.3-1-2.1s-0.3-1.7-0.3-2.7c0-1,0.1-1.9,0.3-2.7
			c0.2-0.8,0.5-1.5,0.9-2.1c0.4-0.6,0.9-1,1.5-1.3c0.6-0.3,1.3-0.5,2-0.5c0.6,0,1.2,0.1,1.6,0.3s0.8,0.4,1.1,0.7
			c0.3,0.3,0.6,0.7,0.8,1.1c0.2,0.4,0.3,1,0.5,1.5l2.8-0.4c-0.2-0.9-0.4-1.7-0.7-2.3c-0.3-0.7-0.8-1.3-1.3-1.8s-1.2-0.9-2-1.2
			c-0.8-0.3-1.7-0.4-2.8-0.4c-1.2,0-2.2,0.2-3.2,0.6c-1,0.4-1.8,1-2.5,1.8c-0.7,0.8-1.2,1.7-1.6,2.8c-0.4,1.1-0.6,2.4-0.6,3.8
			c0,1.4,0.2,2.6,0.5,3.7c0.3,1.1,0.8,2.1,1.5,2.8s1.5,1.4,2.4,1.8c1,0.4,2.1,0.6,3.3,0.6c1.1,0,2.1-0.2,3-0.5
			c0.8-0.3,1.6-0.8,2.2-1.3s1-1.2,1.4-2c0.3-0.8,0.5-1.6,0.7-2.5L46.3,96.5L46.3,96.5z M19.5,102.3H31l0.3-2.5h-8.9v-5.1h8v-2.5h-8
			v-4.6h8.5v-2.5H19.5V102.3z M1.9,97.1c0.1,1.9,0.8,3.4,2.1,4.3s3,1.4,5.2,1.4c1.1,0,2-0.1,2.8-0.4c0.8-0.3,1.5-0.6,2-1.1
			c0.5-0.5,0.9-1,1.2-1.6s0.4-1.3,0.4-2c0-1.5-0.4-2.7-1.3-3.5s-2.2-1.4-4-1.7L7.9,92c-1-0.2-1.7-0.5-2.2-0.9
			c-0.4-0.4-0.6-0.9-0.6-1.7c0-0.3,0.1-0.6,0.2-0.9c0.1-0.3,0.3-0.5,0.6-0.7c0.3-0.2,0.7-0.4,1.1-0.5c0.5-0.1,1-0.2,1.7-0.2
			c1.2,0,2.1,0.2,2.6,0.7c0.6,0.5,0.9,1.2,1.2,2.1l2.7-0.4c-0.1-0.6-0.3-1.2-0.5-1.8c-0.3-0.6-0.6-1.1-1.1-1.5
			c-0.5-0.4-1.1-0.8-1.9-1.1c-0.8-0.3-1.8-0.4-3-0.4c-0.9,0-1.8,0.1-2.6,0.3c-0.8,0.2-1.5,0.5-2.1,0.9s-1,0.9-1.3,1.5
			c-0.3,0.6-0.5,1.3-0.5,2.1s0.1,1.5,0.3,2.1c0.2,0.6,0.6,1.1,1,1.4c0.5,0.4,1,0.7,1.7,0.9s1.4,0.4,2.3,0.6l2.2,0.4
			c0.5,0.1,1,0.2,1.3,0.4s0.6,0.4,0.8,0.6c0.2,0.2,0.4,0.5,0.4,0.7s0.1,0.5,0.1,0.8c0,0.4-0.1,0.7-0.2,1c-0.1,0.3-0.3,0.6-0.6,0.8
			c-0.3,0.2-0.6,0.4-1.1,0.6c-0.4,0.1-1,0.2-1.6,0.2c-1.3,0-2.3-0.3-3-0.8c-0.7-0.5-1.1-1.3-1.2-2.4L1.9,97.1L1.9,97.1z"/>
	</g>
	<polygon points="267.6,18.3 257.9,18.3 240.1,36.1 240.1,18.3 233.2,18.3 233.2,59.5 240.1,59.5 240.1,41.8 257.9,59.5 267.6,59.5 
		247,38.9 	"/>
	<g>
		<path d="M196.6,24.4c-4.1,4-6.1,8.9-6.1,14.6c0,5.7,2,10.6,6.1,14.6c4,4,8.9,6.1,14.6,6.1c2.9,0,5.5-0.5,8-1.6
			c2.5-1.1,4.7-2.6,6.6-4.5l-4.9-4.8c-2.7,2.7-6,4-9.7,4c-3.8,0-7.1-1.3-9.8-4c-2.7-2.7-4-6-4-9.7c0-3.8,1.4-7,4-9.7
			c2.7-2.7,5.9-4,9.8-4c3.8,0,7,1.4,9.7,4l4.9-4.9c-1.9-1.9-4.1-3.4-6.6-4.5c-2.5-1.1-5.1-1.6-8-1.6
			C205.5,18.3,200.6,20.3,196.6,24.4"/>
	</g>
	<polygon points="111.6,59.5 139.1,59.5 139.1,52.7 118.4,52.7 118.4,18.3 111.6,18.3 	"/>
	<g>
		<path d="M88.3,38.9l-13.8-0.1V25.2h13.8c1.9,0,3.5,0.7,4.8,2c1.3,1.4,2,3,2,4.8c0,1.9-0.7,3.5-2,4.9
			C91.8,38.2,90.2,38.9,88.3,38.9 M99.6,39.8c1.6-2.3,2.4-4.9,2.4-7.8c0-3.8-1.3-7-4-9.7c-2.7-2.7-5.9-4-9.7-4H67.7v41.3h6.8V45.8
			h11.7l8,13.7h7.9l-8.5-14.8C96,43.8,98.1,42.1,99.6,39.8"/>
	</g>
	<rect x="50" y="18.3" width="6.8" height="41.3"/>
	<path d="M21.8,33.7l6.1,12.1H15.7L21.8,33.7z M1.2,59.5h7.7l3.5-6.9h19l3.5,6.9h7.7L21.8,18.3L1.2,59.5z"/>
	<g>
		<path d="M178,24.3c-1.1-1.1-2.2-2-3.4-2.8l-2.7,6.6c0.4,0.3,0.8,0.7,1.2,1.1c2.7,2.7,4.1,5.9,4.1,9.7c0,3.8-1.4,7-4.1,9.7
			c-2.7,2.7-5.9,4-9.7,4c-0.5,0-1,0-1.4-0.1l-2.7,6.6c1.3,0.3,2.7,0.4,4.1,0.4c5.7,0,10.6-2,14.6-6.1c4.1-4,6.1-8.8,6.1-14.6
			C184.1,33.2,182,28.4,178,24.3 M149.6,38.9c0-3.8,1.3-7,4-9.7c2.7-2.7,6-4,9.8-4c0.5,0,1,0,1.5,0.1l2.7-6.6
			c-1.3-0.3-2.7-0.4-4.1-0.4c-5.8,0-10.6,2-14.6,6.1c-4,4-6.1,8.9-6.1,14.6c0,5.7,2,10.6,6.1,14.6c1.1,1.1,2.3,2,3.5,2.9l2.6-6.5
			c-0.4-0.3-0.9-0.7-1.3-1.1C151,45.9,149.6,42.7,149.6,38.9"/>
	</g>
	
		<rect x="145.7" y="65.3" transform="matrix(0.3747 -0.9272 0.9272 0.3747 30.5145 183.3775)" class="st0" width="11.1" height="7.6"/>
	
		<rect x="170.1" y="4.9" transform="matrix(0.3747 -0.9272 0.9272 0.3747 101.757 168.2438)" class="st0" width="11.1" height="7.6"/>
	<g>
		<path d="M279,24l-2.5,0v-2.5h2.5c0.3,0,0.6,0.1,0.9,0.4s0.4,0.5,0.4,0.9c0,0.3-0.1,0.6-0.4,0.9C279.7,23.9,279.4,24,279,24
			 M281.1,24.2c0.3-0.4,0.4-0.9,0.4-1.4c0-0.7-0.2-1.3-0.7-1.7c-0.5-0.5-1.1-0.7-1.7-0.7h-3.7v7.4h1.2v-2.5h2.1l1.4,2.5h1.4L280,25
			C280.4,24.9,280.8,24.6,281.1,24.2"/>
		<path d="M278.3,31c-3.8,0-6.9-3.1-6.9-6.9s3.1-6.9,6.9-6.9s6.9,3.1,6.9,6.9S282,31,278.3,31z M278.3,18.3c-3.2,0-5.9,2.6-5.9,5.9
			s2.6,5.9,5.9,5.9s5.9-2.6,5.9-5.9S281.5,18.3,278.3,18.3z"/>
	</g>
</g>
</svg>
