<svg id="Layer_1" data-name="Layer 1" xmlns="http://www.w3.org/2000/svg" viewBox="0 0 81 61"><title>Airspan-logo-1-x</title><path d="M10.15,27.5h3.74l-.26-4.23L10.15,27.5M11,23.08a14.55,14.55,0,0,0,1.25-1.69h4.69a22.73,22.73,0,0,0,0,2.34l.82,11.48H14a10.14,10.14,0,0,0,.14-1.64l-.29-3.83H8.45L5.59,33.12a15.8,15.8,0,0,0-1.52,2.09H.5Z"/><path d="M23.17,21.39h3.18l-1,2.54H22.21l1-2.54m-2,13.82H17.86c1.5-3.43,2.82-6.89,4-10.44h3.2C23.31,29.21,22.06,32.7,21.22,35.21Z"/><path d="M27,24.59h3l-.53,1.56a5,5,0,0,1,3.85-1.84,5.84,5.84,0,0,1,.81,0l-.77,2.53a7.48,7.48,0,0,0-1.15-.09,3.83,3.83,0,0,0-3.68,2.39,55.94,55.94,0,0,0-2.34,6H22.85A112.7,112.7,0,0,0,27,24.59"/><path d="M35.28,33.2c1.19,0,1.87-.27,2.08-.9a.77.77,0,0,0-.17-.75l-2-1.83c-1-.92-1.58-1.59-1.19-2.76.51-1.52,2.51-2.67,5.16-2.67a14.66,14.66,0,0,1,3.31.44l-.59,2.4a9.38,9.38,0,0,0-2.94-.63c-.92,0-1.48.24-1.61.61a.6.6,0,0,0,.18.58L39.4,29.4c1,.94,1.48,1.69,1.08,2.88-.66,2-2.66,3.22-5.67,3.22a11.27,11.27,0,0,1-3.54-.63l.6-2.65a8.11,8.11,0,0,0,3.41,1"/><path d="M45.58,29.61c-.78,2.36-.4,3.47,1.57,3.47s3.38-1.21,4.12-3.4,0-3.07-2.2-3.07a8.41,8.41,0,0,0-2.38.37,15.68,15.68,0,0,0-1.11,2.63M44.26,25a24.06,24.06,0,0,1,5.56-.71c4.37,0,6,1.8,4.78,5.3a8.48,8.48,0,0,1-7.81,5.91,3.87,3.87,0,0,1-3-1.11l-.9,2.28c-.37.93-.71,1.92-1.08,2.94H38.45A140.16,140.16,0,0,0,44.26,25Z"/><path d="M61.48,33l1.21-3a7,7,0,0,1-1.32.5l-1.7.46c-1.21.31-1.85.54-2.1,1.29s.18,1.09,1.14,1.09A10.61,10.61,0,0,0,60.64,33l-1.42,2.17a10.46,10.46,0,0,1-2.13.27c-2.37,0-3.41-1.19-2.79-3.07.55-1.63,1.86-2.61,4.08-3.13L61,28.63c1.5-.35,2.32-.62,2.53-1.25s-.25-1.09-1.4-1.09a14.08,14.08,0,0,0-4.55,1.07l1.23-2.55a22.52,22.52,0,0,1,4.66-.54c3.14,0,4,.85,3.35,3-.08.23-.18.55-.34.94l-2,5.28c-.11.27-.31.86-.61,1.76H60.49a17.47,17.47,0,0,0,1-2.22"/><path d="M69.64,24.59h3l-.43,1.29a6.79,6.79,0,0,1,4.59-1.59c3.28,0,4.19,1.08,3.36,3.57-.39,1.19-1.26,3.3-2.27,6.3-.1.34-.23.69-.34,1.05H74.29c1.37-3.2,2.13-5.26,2.42-6.14.6-1.79.34-2.57-1.35-2.57-2.91,0-4.38,2.23-6,7.14-.16.5-.34,1-.5,1.57H65.51a112.7,112.7,0,0,0,4.13-10.62"/></svg>