<?xml version="1.0" encoding="utf-8"?>
<!-- Generator: Adobe Illustrator 23.0.2, SVG Export Plug-In . SVG Version: 6.00 Build 0)  -->
<svg version="1.1" id="Layer_1" xmlns="http://www.w3.org/2000/svg" xmlns:xlink="http://www.w3.org/1999/xlink" x="0px" y="0px"
	 viewBox="0 0 400 245" style="enable-background:new 0 0 400 245;" xml:space="preserve">
<style type="text/css">
	.st0{clip-path:url(#SVGID_2_);fill:url(#SVGID_3_);}
	.st1{fill:#33CCFF;}
	.st2{fill:#000033;}
	.st3{fill:#EF5023;}
	.st4{fill:#2A2B2D;}
	.st5{fill-rule:evenodd;clip-rule:evenodd;fill:#C6DC71;}
	.st6{fill-rule:evenodd;clip-rule:evenodd;fill:#297D7D;}
	.st7{fill-rule:evenodd;clip-rule:evenodd;fill:#1A334B;}
	.st8{fill:#057AB5;}
	.st9{fill:none;}
	.st10{fill:#33A0D9;}
	.st11{fill:#49AFE1;}
	.st12{fill:#5CBAE6;}
	.st13{fill:#FFFFFF;}
	.st14{fill:#007DC3;}
	.st15{fill:url(#SVGID_7_);}
	.st16{fill:#EB008B;}
	.st17{fill:#302D45;}
	.st18{fill:#D60015;stroke:#00FF00;stroke-width:0.9433;stroke-miterlimit:10;}
	.st19{fill:#D60015;}
	.st20{fill:#3D3D3D;}
	.st21{fill:#3D3D3E;}
	.st22{fill:url(#XMLID_2_);}
	.st23{fill-rule:evenodd;clip-rule:evenodd;fill:#0C5BA9;}
	.st24{fill:#0C5BA9;}
	.st25{fill:#009F62;}
	.st26{fill-rule:evenodd;clip-rule:evenodd;fill:#0066A1;}
	.st27{fill:#93D500;}
	.st28{fill:#53575A;}
	.st29{fill:#EE283B;}
	.st30{fill:#3D4A45;}
	.st31{fill-rule:evenodd;clip-rule:evenodd;}
	.st32{fill-rule:evenodd;clip-rule:evenodd;fill:#ED1C24;}
	.st33{fill:#0074BC;}
	.st34{fill-rule:evenodd;clip-rule:evenodd;fill:#292929;}
	.st35{fill-rule:evenodd;clip-rule:evenodd;fill:#525252;}
	.st36{fill-rule:evenodd;clip-rule:evenodd;fill:#787878;}
	.st37{fill-rule:evenodd;clip-rule:evenodd;fill:#9C9C9C;}
	.st38{fill-rule:evenodd;clip-rule:evenodd;fill:#B8B8B8;}
	.st39{fill-rule:evenodd;clip-rule:evenodd;fill:#CFCFCF;}
	.st40{fill-rule:evenodd;clip-rule:evenodd;fill:#E3E3E3;}
	.st41{fill-rule:evenodd;clip-rule:evenodd;fill:#F2F2F2;}
</style>
<g>
	<g>
		<g>
			<g>
				<path class="st29" d="M158.02,119.32c6.99,0,12.65-5.66,12.65-12.64c0-6.98-5.66-12.63-12.65-12.63
					c-6.96,0-12.63,5.65-12.63,12.63C145.39,113.67,151.06,119.32,158.02,119.32z"/>
				<path class="st30" d="M241.17,59.66v50.81c0,6.19-5.04,11.22-11.22,11.22c-3,0-5.82-1.16-7.95-3.3
					c-1.99-1.97-3.14-4.59-3.27-7.36c0-0.19-0.02-51.26-0.02-51.26h-11.83c0,0,0.02,51.06,0.02,51.25
					c-0.3,5.93-5.2,10.67-11.21,10.67c-3.08,0-6-1.21-8.2-3.41c-2.13-2.13-3.29-4.91-3.29-7.81V85.66c0-6.89-2.72-13.38-7.63-18.32
					c-5.03-5.01-11.68-7.77-18.73-7.77c-14.39,0-26.1,11.71-26.1,26.09v47.83h11.82V85.66c0-3.81,1.49-7.4,4.19-10.08
					c2.7-2.71,6.28-4.19,10.09-4.19c3.89,0,7.58,1.53,10.35,4.31c2.69,2.69,4.18,6.22,4.18,9.95v24.81c0,6.06,2.4,11.81,6.76,16.16
					c4.43,4.45,10.31,6.9,16.56,6.9c6.16,0,11.94-2.41,16.3-6.77c0.27-0.28,0.55-0.56,0.81-0.85c0.28,0.29,0.55,0.57,0.84,0.85
					c4.35,4.36,10.14,6.77,16.3,6.77c6.15,0,11.94-2.41,16.3-6.77c4.35-4.35,6.74-10.14,6.74-16.29V59.66H241.17z"/>
			</g>
		</g>
		<g>
			<rect x="38.1" y="158.22" class="st30" width="8.52" height="24.42"/>
			<rect x="85.05" y="158.22" class="st30" width="8.53" height="24.42"/>
			<rect x="393.76" y="177.05" class="st30" width="5.17" height="5.6"/>
			<path class="st30" d="M247.25,173.94c-0.52,0.7-1.19,1.28-1.97,1.7c-0.79,0.41-1.68,0.64-2.57,0.64c-0.06,0-0.13,0-0.19-0.01
				c-1.48-0.06-2.87-0.69-3.87-1.76c-0.26-0.28-0.5-0.57-0.7-0.89c-0.65-1.01-0.99-2.18-0.99-3.36c0-0.81,0.15-1.6,0.46-2.35
				c0.14-0.36,0.32-0.69,0.53-1.02c0.2-0.32,0.44-0.62,0.7-0.89c0.05-0.05,0.09-0.1,0.14-0.15c1.04-1.03,2.45-1.61,3.93-1.62
				c0.92,0,1.81,0.24,2.62,0.66c0.79,0.43,1.47,1.03,1.99,1.76l9.71,0.01c-0.49-1.3-1.19-2.5-2.09-3.57
				c-1.94-2.26-4.52-3.91-7.42-4.74c-1.56-0.45-3.18-0.69-4.8-0.69c-1.99,0-3.96,0.34-5.83,0.99c-1.74,0.61-3.35,1.52-4.76,2.7
				c-1.34,1.11-2.43,2.48-3.21,4c-0.77,1.53-1.18,3.21-1.18,4.91c0,1.7,0.41,3.37,1.18,4.89c0.78,1.53,1.88,2.9,3.21,4
				c1.4,1.17,3.02,2.09,4.76,2.7c1.87,0.66,3.84,1,5.83,0.99c3.17,0.02,6.28-0.85,8.97-2.5c1.22-0.76,2.32-1.71,3.26-2.8
				c0.9-1.05,1.6-2.25,2.09-3.54L247.25,173.94z"/>
			<path class="st30" d="M23.56,182.64h8.79l-10.34-24.42h-2.07h-6.46h-2.07L1.07,182.64h8.79l1.47-3.56h10.75L23.56,182.64z
				 M14.06,172.47l2.65-6.42l2.65,6.42H14.06z"/>
			<polygon class="st30" points="119.76,182.64 118.48,182.64 108.91,169.34 108.91,182.64 100.38,182.64 100.38,158.22 
				100.91,158.22 108.91,158.22 110.46,158.22 119.76,170.96 119.76,158.22 128.29,158.22 128.29,182.64 			"/>
			<path class="st30" d="M166.05,182.64h8.79l-10.34-24.42h-2.07h-6.46h-2.06l-10.34,24.42h8.78l1.47-3.56h10.76L166.05,182.64z
				 M156.55,172.47l2.65-6.42l2.65,6.42H156.55z"/>
			<polygon class="st30" points="314.56,182.64 313.01,182.64 313.01,158.22 321.54,158.22 321.54,175.52 336.01,175.52 
				336.01,182.64 321.54,182.64 			"/>
			<polygon class="st30" points="351.17,158.22 359.33,158.22 359.33,164.84 351.17,164.84 351.17,182.64 342.65,182.64 
				342.65,164.84 334.52,164.84 334.52,158.22 342.65,158.22 			"/>
			<path class="st30" d="M269.26,181.85c-1.74-0.61-3.35-1.53-4.76-2.7c-1.34-1.1-2.42-2.47-3.21-4c-0.77-1.52-1.17-3.2-1.18-4.89
				c0-1.7,0.4-3.39,1.18-4.91c0.79-1.52,1.88-2.89,3.21-4c1.41-1.17,3.02-2.09,4.76-2.7c1.88-0.66,3.85-0.99,5.83-0.99
				c1.99,0,3.96,0.34,5.83,0.99c1.74,0.61,3.35,1.52,4.76,2.7c1.34,1.11,2.43,2.48,3.22,4c0.77,1.53,1.17,3.21,1.18,4.91
				c0,1.7-0.41,3.37-1.18,4.89c-0.79,1.53-1.88,2.9-3.22,4c-1.41,1.17-3.02,2.09-4.76,2.7c-1.87,0.66-3.84,1-5.83,0.99
				C273.1,182.85,271.13,182.51,269.26,181.85z M275.09,176.27c1.48-0.01,2.9-0.6,3.93-1.64c0.05-0.04,0.09-0.08,0.14-0.13
				c0.26-0.28,0.5-0.57,0.7-0.89c0.65-1.01,0.99-2.18,0.98-3.36c0-0.81-0.15-1.6-0.45-2.35c-0.14-0.36-0.32-0.69-0.53-1.02
				c-0.2-0.32-0.44-0.62-0.7-0.89c-1-1.07-2.4-1.7-3.87-1.76c-0.07-0.01-0.13-0.01-0.2-0.01c-1.47,0.01-2.89,0.6-3.93,1.62
				c-0.05,0.05-0.09,0.1-0.14,0.15c-0.26,0.27-0.5,0.57-0.7,0.89c-0.65,1.01-0.99,2.17-0.98,3.37c0,0.8,0.15,1.59,0.45,2.33
				c0.14,0.37,0.32,0.7,0.53,1.03c0.2,0.32,0.44,0.61,0.7,0.89c1,1.07,2.4,1.7,3.87,1.76C274.96,176.27,275.02,176.27,275.09,176.27
				z"/>
			<path class="st30" d="M380.32,158.22c1.27-0.01,2.53,0.15,3.74,0.51c1.9,0.55,3.54,1.69,4.71,3.24c0.5,0.68,0.93,1.42,1.25,2.19
				c0.79,1.89,1.17,3.91,1.14,5.94c0.02,1.51-0.14,3.02-0.44,4.5c-0.24,1.14-0.64,2.24-1.18,3.28c-0.79,1.53-2.02,2.81-3.55,3.66
				c-1.58,0.84-3.38,1.22-5.17,1.09h-16.28v-24.42H380.32z M373.08,165.24v10.31h5.43c0.71,0.12,1.44-0.01,2.06-0.35
				c0.64-0.38,1.14-0.94,1.42-1.62c0.22-0.48,0.38-1,0.47-1.51c0.12-0.7,0.19-1.41,0.18-2.12c-0.07-0.83-0.27-1.65-0.61-2.42
				c-0.27-0.64-0.7-1.19-1.24-1.63c-0.65-0.48-1.46-0.72-2.27-0.67H373.08z"/>
			<polygon class="st30" points="207.81,158.15 203.78,170.69 199.84,158.15 191.34,158.15 187.39,170.69 183.37,158.15 
				174.3,158.15 182.4,182.58 184.46,182.58 189.17,182.58 191.23,182.58 195.59,170.22 199.94,182.58 202.01,182.58 206.71,182.58 
				208.78,182.58 216.88,158.15 			"/>
			<rect x="291.64" y="177.05" class="st30" width="5.16" height="5.6"/>
			<path class="st30" d="M304.81,182.38c0-0.08,0.01-0.15,0.01-0.22l-0.01-0.01v-5.11h-5.16v5.6h2.68c-0.11,0.18-0.25,0.35-0.39,0.5
				c-0.27,0.28-0.58,0.52-0.93,0.67l1.48,1.62c0.94-0.45,1.69-1.21,2.12-2.14c0.09-0.21,0.15-0.43,0.18-0.65h0.03V182.38z"/>
		</g>
	</g>
	<path class="st30" d="M79.54,173.02c-0.11-0.33-0.24-0.61-0.41-0.88c-0.32-0.56-0.72-1.03-1.21-1.43c-1.01-0.8-2.15-1.35-3.43-1.74
		c-0.62-0.19-1.32-0.37-1.94-0.45c-2.09-0.27-4.14-0.46-6.12-0.64c-0.95-0.09-2.43-0.36-2.97-0.51c-0.24-0.06-0.57-0.18-0.81-0.34
		c-0.24-0.15-0.44-0.34-0.58-0.56c-0.19-0.32-0.28-0.66-0.29-1c0-0.01,0-0.02,0-0.02c-0.01-0.31,0.1-0.62,0.31-0.84
		c0.51-0.44,1.08-0.66,1.81-0.79c0.35-0.06,0.66-0.08,1.04-0.08c0.9-0.01,1.79,0.05,2.65,0.31c0.18,0.07,0.37,0.14,0.54,0.23
		c1.03,0.5,1.82,1.39,2.19,2.47h9.96c-0.38-1.63-1.18-3.14-2.33-4.38c-1.19-1.29-2.66-2.32-4.33-2.98
		c-1.08-0.43-2.21-0.75-3.37-0.96c-1.42-0.25-2.87-0.36-4.32-0.34c-1.45,0.01-2.88,0.13-4.31,0.36c-1.13,0.19-2.24,0.48-3.31,0.86
		c-1.57,0.56-2.99,1.46-4.15,2.64c-0.76,0.79-1.35,1.73-1.72,2.76c-0.2,0.54-0.31,1.19-0.36,1.9c-0.06,0.9,0.16,2.06,0.8,2.86
		c0.12,0.16,0.26,0.31,0.4,0.45c0.95,0.86,2.08,1.51,3.31,1.92c1.85,0.64,4.33,1.09,6.63,1.41c1.25,0.18,2.77,0.42,4.01,0.62
		c0.52,0.08,1.01,0.18,1.48,0.37c0.38,0.13,0.73,0.34,1.02,0.6c0.01,0.01,0.02,0.02,0.03,0.03c0.28,0.28,0.43,0.66,0.43,1.04
		c0.01,0.3-0.1,0.6-0.3,0.81c-0.2,0.2-0.46,0.34-0.74,0.41c-0.62,0.14-1.25,0.21-1.91,0.22c-0.75,0.02-1.73,0-2.35-0.05
		c-0.49-0.05-1.07-0.18-1.56-0.4c-0.42-0.19-0.79-0.48-1.07-0.89c-0.33-0.46-0.5-1.05-0.48-1.62H51.7c0,0.43,0.04,0.9,0.15,1.32
		c0.25,1.07,0.75,2.08,1.45,2.95c1.13,1.32,2.59,2.33,4.23,2.91c1.18,0.47,2.39,0.78,3.63,0.97c1.62,0.25,3.24,0.37,4.89,0.36
		c2.33-0.02,4.66-0.31,6.92-0.9c0.87-0.26,1.72-0.56,2.54-0.93c0.4-0.18,0.8-0.41,1.17-0.64c0.37-0.22,0.72-0.47,1.05-0.73
		c1.21-0.98,1.98-2.41,2.14-3.93c0.02-0.21,0.03-0.41,0.03-0.62c0-0.39-0.03-0.76-0.09-1.13C79.75,173.66,79.66,173.34,79.54,173.02
		z"/>
</g>
</svg>
