<?xml version="1.0" encoding="UTF-8" standalone="no"?>
<!DOCTYPE svg PUBLIC "-//W3C//DTD SVG 1.1//EN" "http://www.w3.org/Graphics/SVG/1.1/DTD/svg11.dtd">
<svg width="100%" height="100%" viewBox="0 0 592 154" version="1.1" xmlns="http://www.w3.org/2000/svg" xmlns:xlink="http://www.w3.org/1999/xlink" xml:space="preserve" xmlns:serif="http://www.serif.com/" style="fill-rule:evenodd;clip-rule:evenodd;stroke-linejoin:round;stroke-miterlimit:1.41421;">
    <g id="Allianz" transform="matrix(1,0,0,1,-104.338,-135.852)">
        <path id="A" d="M157.907,218.515L136.208,218.515L147.736,181.017L157.907,218.515ZM126.037,256.421L132.818,233.569L160.619,233.569L167.4,256.421L190.456,256.421L166.044,169.693C164.688,163.997 161.976,162.166 155.873,162.166L121.968,162.166L121.968,169.964L124.681,169.964C128.749,169.964 130.783,171.252 130.783,174.372C130.783,176.338 130.783,177.627 128.749,182.305L104.338,256.421" style="fill:rgb(0,55,129);"/>
        <path id="l" d="M219.614,256.421L219.614,169.083C219.614,164.539 216.901,162.166 212.155,162.166L191.134,162.166L191.134,169.964L192.49,169.964C196.558,169.964 198.593,171.659 198.593,175.321L198.593,256.421" style="fill:rgb(0,55,129);fill-rule:nonzero;"/>
        <path id="l1" serif:id="l" d="M257.587,256.421L257.587,169.083C257.587,164.539 254.874,162.166 250.128,162.166L229.107,162.166L229.107,169.964L230.463,169.964C234.532,169.964 236.566,171.659 236.566,175.321L236.566,256.421" style="fill:rgb(0,55,129);fill-rule:nonzero;"/>
        <path id="i" d="M296.238,170.507C296.238,164.268 291.491,160.606 284.032,160.606C275.895,160.606 271.827,164.268 271.827,170.507C271.827,176.881 275.895,180.61 284.032,180.61C291.491,180.61 296.238,176.881 296.238,170.507M295.56,256.421L295.56,192.816C295.56,188.408 292.848,185.831 288.779,185.831L267.758,185.831L267.758,193.494L269.114,193.494C273.183,193.494 274.539,195.189 274.539,199.054L274.539,256.421" style="fill:rgb(0,55,129);"/>
        <path id="a" d="M345.739,222.177L345.739,236.282C341.67,240.35 336.924,242.656 332.855,242.656C328.786,242.656 326.752,240.689 326.752,235.4C326.752,229.568 328.108,227.331 332.855,225.5C336.245,224.076 339.636,223.194 345.739,222.177M315.903,205.293L317.937,204.479C323.362,202.309 326.752,201.495 330.821,200.749C332.855,200.478 335.567,200.207 336.924,200.207C343.704,200.207 345.739,202.445 345.739,208.683L345.739,210.446C336.245,212.006 333.533,212.548 328.108,213.701C325.396,214.379 322.684,215.261 319.971,216.413C311.156,219.939 307.087,226.72 307.087,237.366C307.087,250.725 312.512,257.099 324.718,257.099C329.465,257.099 334.211,256.014 337.602,253.844C340.992,252.285 342.348,251.471 346.417,247.741L346.417,249.911C346.417,254.319 348.451,256.421 352.52,256.421L372.862,256.421L372.862,249.165L372.184,249.165C368.116,249.165 366.082,247.334 366.082,243.673L366.082,209.022C366.082,190.985 359.979,184.882 342.348,184.882C336.245,184.882 330.821,185.56 325.396,186.849C319.971,188.137 317.259,189.086 311.156,192.273" style="fill:rgb(0,55,129);"/>
        <path id="n" d="M404.733,256.421L404.733,208.548C409.479,204.14 412.87,202.445 417.617,202.445C422.363,202.445 423.719,204.479 423.719,211.667L423.719,256.421L444.74,256.421L444.74,208.276C444.74,198.376 443.384,194.104 440.672,190.375C437.281,186.713 433.213,185.018 427.11,185.018C418.973,185.018 412.87,188.001 403.377,196.206L403.377,192.409C403.377,188.001 401.342,185.831 397.274,185.831L376.931,185.831L376.931,193.494L377.609,193.494C381.678,193.494 383.712,195.189 383.712,199.054L383.712,256.421" style="fill:rgb(0,55,129);"/>
        <g id="z" transform="matrix(6.78093,0,0,-6.78093,-9776.15,5300.88)">
            <path d="M1516.9,745.91L1512.3,745.91L1516.7,752.19L1516.7,754.33L1510.1,754.33C1509.3,754.33 1509,754.01 1509,753.24L1509,751.35L1510.1,751.35L1510.1,751.56C1510.1,752.13 1510.4,752.36 1511,752.36L1513.4,752.36L1508.9,746.08L1508.9,743.92L1516.9,743.92" style="fill:rgb(0,55,129);fill-rule:nonzero;"/>
        </g>
        <g id="Eagle" transform="matrix(6.78093,0,0,-6.78093,-9776.15,5300.88)">
            <clipPath id="_clip1">
                <rect x="1457.1" y="739.1" width="87.3" height="22.6"/>
            </clipPath>
            <g clip-path="url(#_clip1)">
                <path id="path37647" d="M1534.6,744.49L1534.6,756.27C1534.6,757.22 1534.2,757.53 1533.3,757.53L1530.6,757.53L1530.6,756.23L1530.9,756.23C1531.4,756.23 1531.6,756.04 1531.6,755.46L1531.6,744.49L1534.6,744.49ZM1536.2,744.49L1539.1,744.49L1539.1,753.38C1539.1,754.28 1538.7,754.64 1537.8,754.64L1536.2,754.64L1536.2,744.49ZM1530,744.49L1530,754.64L1528.4,754.64C1527.5,754.64 1527.1,754.28 1527.1,753.38L1527.1,744.49L1530,744.49ZM1542.5,750.41C1542.5,744.9 1538.5,740.88 1533.1,740.88C1527.7,740.88 1523.7,744.9 1523.7,750.41C1523.7,755.92 1527.7,759.94 1533.1,759.94C1538.5,759.94 1542.5,755.92 1542.5,750.41M1544.4,750.41C1544.4,756.86 1539.6,761.7 1533.1,761.7C1526.7,761.7 1521.8,756.86 1521.8,750.41C1521.8,743.94 1526.7,739.1 1533.1,739.1C1539.6,739.1 1544.4,743.94 1544.4,750.41" style="fill:rgb(0,55,129);"/>
            </g>
        </g>
    </g>
</svg>
