<svg xmlns="http://www.w3.org/2000/svg" role="img" xmlns:xlink="http://www.w3.org/1999/xlink" viewBox="-13.63 -272.63 760.76 457.76"><title>Altair logo</title><style>svg {enable-background:new 0 0 400 245}</style><style>.st405{fill:none}</style><defs><path id="SVGID_267_" d="M718.64-45.78c-.29-2.96-1.31-5.29-3.07-7.01-1.76-1.71-3.96-2.57-6.57-2.57-2.68 0-4.88.87-6.61 2.62-1.74 1.75-2.74 4.07-3.03 6.97l19.28-.01zM699.06-19.1c-2.99-1.27-5.52-3-7.6-5.19-2.08-2.19-3.66-4.72-4.74-7.59s-1.62-5.87-1.62-9.01c0-3.37.54-6.55 1.62-9.54 1.08-2.99 2.65-5.61 4.69-7.86 2.05-2.25 4.57-4.02 7.55-5.33 2.99-1.3 6.39-1.95 10.2-1.96 3.81 0 7.2.65 10.16 1.95 2.96 1.3 5.46 3.06 7.51 5.28s3.6 4.78 4.65 7.68c1.05 2.9 1.58 5.95 1.58 9.14 0 .83-.03 1.64-.08 2.44-.06.8-.14 1.5-.26 2.09l-33.12.01c.23 3.14 1.33 5.52 3.29 7.14 1.96 1.63 4.2 2.44 6.7 2.44 1.99 0 3.91-.5 5.76-1.51 1.85-1.01 3.09-2.37 3.71-4.08l11.61 3.37c-1.76 3.67-4.49 6.66-8.19 8.97-3.7 2.31-8.14 3.46-13.31 3.47-3.76-.01-7.13-.64-10.11-1.91zm-31.35-24.94c-.93-2.31-2.36-4.17-4.3-5.58-1.94-1.41-3.95-2.11-6.04-2.11-1.51 0-2.87.33-4.08.97-1.22.65-2.29 1.51-3.21 2.58-.93 1.07-1.64 2.33-2.13 3.76-.49 1.44-.74 2.92-.74 4.44 0 1.64.27 3.16.83 4.57.55 1.41 1.3 2.62 2.26 3.64.96 1.01 2.1 1.8 3.43 2.37 1.33.56 2.78.84 4.34.84 2.03 0 3.91-.55 5.65-1.65 1.74-1.1 3.07-2.61 3.99-4.53v-9.3zm.01 26.05v-6.43c-2.84 4.85-7.27 7.28-13.29 7.28-3.13 0-6.01-.58-8.64-1.73-2.64-1.15-4.91-2.78-6.82-4.86-1.91-2.09-3.4-4.52-4.48-7.32-1.07-2.79-1.61-5.85-1.61-9.18 0-3.21.49-6.23 1.47-9.05.98-2.82 2.37-5.26 4.17-7.32 1.79-2.06 3.92-3.68 6.38-4.86 2.46-1.19 5.14-1.78 8.03-1.78 3.24 0 6.14.73 8.69 2.2 2.55 1.47 4.55 3.44 5.99 5.92l-.01-24.61h13.9l.02 61.74h-13.8zM612.04-67.3v-12.43h13.88v12.43h-13.88zm.01 50.16l-.01-45.02h13.88l.01 45.02h-13.88zm-48.67-24.38c0-3.22.54-6.3 1.62-9.25s2.65-5.54 4.69-7.77c2.05-2.23 4.57-4.01 7.55-5.32 2.99-1.31 6.39-1.97 10.2-1.97 5.18 0 9.53 1.14 13.07 3.44 3.53 2.29 6.18 5.28 7.94 8.98l-13.32 4.2c-1.77-2.98-4.36-4.47-7.77-4.46-2.85 0-5.22 1.1-7.13 3.31-1.91 2.2-2.86 5.15-2.86 8.85 0 1.85.26 3.53.77 5.05s1.22 2.81 2.14 3.89c.91 1.07 1.98 1.91 3.2 2.5 1.22.6 2.52.89 3.88.89 1.71 0 3.27-.43 4.7-1.3 1.42-.86 2.48-1.98 3.16-3.35l13.32 4.28c-1.65 3.63-4.28 6.61-7.9 8.94-3.61 2.32-8.01 3.49-13.19 3.49-3.76 0-7.13-.67-10.12-2.01-2.99-1.34-5.52-3.13-7.6-5.36-2.08-2.23-3.66-4.82-4.74-7.77-1.06-2.96-1.6-6.05-1.61-9.26zm-20.84-38.21h13.88l.02 62.59h-13.88l-.02-62.59zm-34.16 62.59c-3.17 0-6.06-.61-8.69-1.82-2.62-1.21-4.89-2.91-6.79-5.1-1.9-2.19-3.37-4.75-4.41-7.67-1.04-2.93-1.56-6.14-1.56-9.63 0-3.37.5-6.54 1.51-9.5s2.4-5.52 4.19-7.68c1.78-2.16 3.9-3.86 6.35-5.11 2.45-1.24 5.11-1.87 7.99-1.87 3.23 0 6.12.77 8.69 2.3 2.56 1.54 4.54 3.61 5.92 6.21v-7.01h13.83l.01 45.97h-13.83v-6.92c-1.38 2.55-3.15 4.48-5.31 5.81-2.15 1.35-4.79 2.02-7.9 2.02zm13.22-28.14c-.92-2.48-2.31-4.47-4.15-5.94-1.85-1.48-3.86-2.22-6.05-2.22-1.5 0-2.87.34-4.11 1.02-1.24.68-2.32 1.6-3.24 2.75-.92 1.15-1.63 2.47-2.12 3.95-.49 1.48-.73 3.02-.73 4.62 0 1.72.27 3.3.82 4.75.55 1.45 1.3 2.71 2.25 3.77s2.09 1.91 3.42 2.53c1.33.62 2.77.93 4.32.93 2.13 0 3.98-.58 5.53-1.73 1.56-1.15 2.91-2.74 4.06-4.75v-9.68z"/></defs><use fill-rule="evenodd" clip-rule="evenodd" overflow="visible" xlink:href="#SVGID_267_"/><clipPath id="SVGID_1_"><use overflow="visible" xlink:href="#SVGID_267_"/></clipPath><g clip-path="url(#SVGID_1_)"><defs><path id="SVGID_269_" d="M124.23-608.24h981.76V89.9H124.23z"/></defs><use overflow="visible" xlink:href="#SVGID_269_"/><clipPath id="SVGID_2_"><use overflow="visible" xlink:href="#SVGID_269_"/></clipPath></g><g><defs><path id="SVGID_271_" d="M608.18-104.66c-51 0-91.3-38.07-92.99-39.69l-7.64-7.32 100.63-106.14 100.63 106.14-7.64 7.32c-1.69 1.63-41.99 39.69-92.99 39.69zm-.19-83.45l20.88 20.95-20.88 20.95-20.88-20.95 20.88-20.95zm-69.59 35.17c12.9 9.83 39.65 26.9 69.78 26.9 30.13 0 56.87-17.07 69.78-26.9l-69.78-73.6-69.78 73.6z"/></defs><use fill-rule="evenodd" clip-rule="evenodd" overflow="visible" xlink:href="#SVGID_271_"/><clipPath id="SVGID_3_"><use overflow="visible" xlink:href="#SVGID_271_"/></clipPath><g clip-path="url(#SVGID_3_)"><defs><path id="SVGID_273_" d="M124.23-608.24h981.76V89.9H124.23z"/></defs><use overflow="visible" xlink:href="#SVGID_273_"/><clipPath id="SVGID_4_"><use overflow="visible" xlink:href="#SVGID_273_"/></clipPath></g></g><g><path fill="#808184" d="M198.96 168.98l-7.54-23.92h-27.4l-7.77 23.92h-9.75l27.05-79.88h9.52l26.94 79.88h-11.05zm-18.58-60.6c-1.97-6.27-2.32-9.63-2.32-9.63h-.23s-.47 3.36-2.44 9.63l-9.52 30.31h23.8l-9.29-30.31zm40.76 60.6V77.84h10.22v91.14h-10.22zm46.56.59c-11.38 0-15.56-8.13-15.56-15.79V112.8h-7.2v-6.38h7.2v-14.4l10.22-3.13v17.53h10.91v6.38h-10.91v40.75c0 4.99 2.2 9.05 7.89 9.05 1.05 0 1.97-.23 3.02-.46v6.5c-1.16.34-3.02.93-5.57.93zm38.89.58c-16.26 0-23.8-7.08-23.8-18.46 0-16.6 15.56-21.48 34.95-23.46v-3.83c0-9.64-5.8-12.42-13.82-12.42-6.04 0-11.61 2.2-15.09 3.95l-2.44-6.04c3.6-1.97 10.57-4.65 19.16-4.65 11.61 0 21.83 5 21.83 20.32v40.17c-4.77 2.68-12.08 4.42-20.79 4.42zm11.14-36.7c-15.79 1.98-25.2 5.35-25.2 18 0 9.05 5.58 12.77 14.86 12.77 3.95 0 7.78-.7 10.33-2.09v-28.68zm31.93-39.12c-3.37 0-6.04-2.55-6.04-5.57 0-3.14 2.67-5.69 6.04-5.69 3.25 0 5.92 2.55 5.92 5.69 0 3.02-2.67 5.57-5.92 5.57zm-5.11 74.65V106.4h10.22v62.58h-10.22zm51.79-55.84c-5.11-1.51-10.91-1.04-14.28 1.16v54.68h-10.22v-59.21c6.16-3.13 12.08-4.76 26.94-4.41l-2.44 7.78z"/><path fill="#ec1944" d="M68.69 74.22H68.23l-22.1-.02c-3.94 0-5.04 3.71-5.04 3.71s-13.16 34.81-16.81 42.54l11.78-12.8 20.68-22.67 5.55-6.08c2.19-2.39 3.35-3.43 4.43-4.02.9-.49 1.6-.62 1.99-.65-.01-.01-.02-.01-.02-.01z"/><path d="M86.74 124.65l-1.73-5.54 1.67 5.34z" class="st405"/><path d="M86.68 124.45l.06.2-1.73-5.54z" class="st405"/><path d="M86.68 124.45l.06.2-1.73-5.54z" class="st405"/><path fill="#00b4ef" d="M109.48 143.2l-28.14-35.8L85 119.1l1.74 5.54 11.79 37.1c.98 3.08 1.26 4.65 1.23 5.88-.02.97-.23 1.61-.4 1.98l.06-.1.14-.28 10.6-19.81c1.77-3.3-.68-6.21-.68-6.21z"/><linearGradient id="SVGID_5_" x1="62.02" x2="88.479" y1="77.163" y2="124.468" gradientUnits="userSpaceOnUse"><stop offset="0" stop-color="#bbbcbf"/><stop offset=".073" stop-color="#d7d8d9"/><stop offset=".14" stop-color="#e9eaeb"/><stop offset=".188" stop-color="#f0f0f1"/><stop offset=".379" stop-color="#ececed"/><stop offset=".567" stop-color="#e0e1e2"/><stop offset=".754" stop-color="#cccdcf"/><stop offset=".939" stop-color="#b1b3b5"/><stop offset="1" stop-color="#a6a8ab"/></linearGradient><path fill="url(#SVGID_5_)" d="M85.01 119.11l-3.66-11.7-9.15-28.79s-1.37-4.39-3.48-4.39c-.39.03-1.08.16-1.99.65-1.08.59-2.24 1.63-4.43 4.02l-5.55 6.08 21.97 25.48s4.53 5.2 7.23 12.24c.26.68.57 1.33.8 1.99l-.01-.04-.06-.2-1.67-5.34z"/><linearGradient id="SVGID_6_" x1="8.236" x2="36.299" y1="151.371" y2="102.328" gradientUnits="userSpaceOnUse"><stop offset="0" stop-color="#bbbcbf"/><stop offset=".073" stop-color="#d7d8d9"/><stop offset=".14" stop-color="#e9eaeb"/><stop offset=".188" stop-color="#f0f0f1"/><stop offset=".379" stop-color="#ececed"/><stop offset=".567" stop-color="#e0e1e2"/><stop offset=".754" stop-color="#cccdcf"/><stop offset=".939" stop-color="#b1b3b5"/><stop offset="1" stop-color="#a6a8ab"/></linearGradient><path fill="url(#SVGID_6_)" d="M29.82 114.44L3.47 143.27s-3 3.39-2.07 5.19l.15.27c.21.31.59.72 1.33 1.18 1.04.64 2.54 1.19 5.71 1.88l8.07 1.77 11.12-31.86s2.24-6.53 6.98-12.38c.46-.57.86-1.16 1.33-1.69l-.03.03-6.24 6.78z"/><linearGradient id="SVGID_7_" x1="98.796" x2="47.749" y1="162.502" y2="160.364" gradientUnits="userSpaceOnUse"><stop offset="0" stop-color="#bbbcbf"/><stop offset=".073" stop-color="#d7d8d9"/><stop offset=".14" stop-color="#e9eaeb"/><stop offset=".188" stop-color="#f0f0f1"/><stop offset=".379" stop-color="#ececed"/><stop offset=".567" stop-color="#e0e1e2"/><stop offset=".754" stop-color="#cccdcf"/><stop offset=".939" stop-color="#b1b3b5"/><stop offset="1" stop-color="#a6a8ab"/></linearGradient><path fill="url(#SVGID_7_)" d="M98.54 161.75l-1.48-4.65-1-3.13-33.14 6.3s-6.79 1.38-14.23.21c-.66-.1-1.33-.22-1.98-.34l1.53.34 13.39 3 2.02.45 30.11 6.6s4.13.97 5.53-.8l.08-.13c.17-.37.38-1.02.4-1.98.03-1.22-.26-2.79-1.23-5.87z"/><path fill="#ffce51" d="M61.63 163.48l-13.39-3-1.53-.34-38.11-8.35c-3.17-.69-4.67-1.24-5.71-1.88-.75-.45-1.12-.87-1.33-1.18.33.54 11.89 19.3 11.89 19.3 1.84 3.16 5.73 2.51 5.73 2.51l44.47-6.59h.02l-2.04-.47z"/></g></svg>