<svg width="2500" height="400" viewBox="0 0 2500 400" fill="none" xmlns="http://www.w3.org/2000/svg">
<circle cx="187.588" cy="308.142" r="48.4291" fill="#D33E30"/>
<path d="M187.879 0.00195312C198.231 0.0951076 208.108 6.01963 212.754 16.0361L372.6 360.676C379.03 374.541 373.004 390.994 359.139 397.425C345.274 403.855 328.821 397.829 322.391 383.964L187.588 93.3203L52.7852 383.964C46.3544 397.829 29.9011 403.856 16.0362 397.425C2.17152 390.994 -3.85505 374.541 2.57525 360.676L162.422 16.0361C167.068 6.01988 176.944 0.0953347 187.296 0.00195312C187.319 0.00167166 187.342 0.00119975 187.365 0.000976562H187.811C187.833 0.00119691 187.856 0.00167613 187.879 0.00195312Z" fill="#D33E30"/>
<path d="M2334.52 80.3332H2332.31V354.682H2307.93V45.3193H2345.6L2470.15 319.668H2472.36V45.3193H2496.74V354.682H2459.07L2334.52 80.3332Z" fill="#11100F"/>
<path d="M2144.33 360C2108.57 360 2081.98 346.704 2064.55 320.111C2047.41 293.223 2038.84 253.186 2038.84 200C2038.84 146.814 2047.41 106.925 2064.55 80.3324C2081.98 53.4441 2108.57 40 2144.33 40C2180.08 40 2206.52 53.4441 2223.66 80.3324C2241.09 106.925 2249.81 146.814 2249.81 200C2249.81 253.186 2241.09 293.223 2223.66 320.111C2206.52 346.704 2180.08 360 2144.33 360ZM2144.33 336.953C2170.92 336.953 2190.42 326.907 2202.83 306.814C2215.24 286.427 2221.45 257.765 2221.45 220.831V179.169C2221.45 142.53 2215.24 114.017 2202.83 93.6288C2190.42 73.241 2170.92 63.0471 2144.33 63.0471C2117.73 63.0471 2098.23 73.241 2085.82 93.6288C2073.41 114.017 2067.21 142.53 2067.21 179.169V220.831C2067.21 257.765 2073.41 286.427 2085.82 306.814C2098.23 326.907 2117.73 336.953 2144.33 336.953Z" fill="#11100F"/>
<path d="M1794.5 354.682V333.408H1875.6V66.5936H1794.5V45.3193H1983.31V66.5936H1902.2V333.408H1983.31V354.682H1794.5Z" fill="#11100F"/>
<path d="M1567.51 354.682H1540.92V45.3193H1651.72C1679.2 45.3193 1700.04 53.1494 1714.22 68.8096C1728.4 84.1743 1735.49 105.301 1735.49 132.189C1735.49 157.305 1728.99 177.397 1715.99 192.466C1703.29 207.535 1684.37 215.809 1659.26 217.286H1652.61L1736.38 354.682H1706.68L1625.13 218.616H1567.51V354.682ZM1651.28 196.012C1669.9 196.012 1683.93 190.989 1693.39 180.943C1702.84 170.896 1707.57 158.191 1707.57 142.826V121.552C1707.57 106.187 1702.84 93.4818 1693.39 83.4357C1683.93 73.3895 1669.9 68.3664 1651.28 68.3664H1567.51V196.012H1651.28Z" fill="#11100F"/>
<path d="M1296.24 354.682V45.3193H1482.83V68.3664H1322.83V186.261H1477.07V209.308H1322.83V331.635H1482.83V354.682H1296.24Z" fill="#11100F"/>
<path d="M1131.12 68.3664V354.682H1104.53V68.3664H998.599V45.3193H1237.05V68.3664H1131.12Z" fill="#11100F"/>
<path d="M815.456 354.682V45.3193H842.049V331.635H993.628V354.682H815.456Z" fill="#11100F"/>
<path d="M728.61 354.682L699.358 260.278H582.35L552.655 354.682H525.175L623.569 45.3193H658.583L756.533 354.682H728.61ZM642.184 73.685H639.081L588.555 237.231H692.71L642.184 73.685Z" fill="#11100F"/>
</svg>
