<?xml version="1.0" encoding="UTF-8" standalone="no"?>
<!DOCTYPE svg PUBLIC "-//W3C//DTD SVG 1.1//EN" "http://www.w3.org/Graphics/SVG/1.1/DTD/svg11.dtd">
<svg width="100%" height="100%" viewBox="0 0 1000 268" version="1.1" xmlns="http://www.w3.org/2000/svg" xmlns:xlink="http://www.w3.org/1999/xlink" xml:space="preserve" xmlns:serif="http://www.serif.com/" style="fill-rule:evenodd;clip-rule:evenodd;stroke-linecap:round;stroke-linejoin:round;stroke-miterlimit:1.5;">
    <g transform="matrix(3.40663,0,0,3.3982,-1349.86,-1844.07)">
        <g transform="matrix(1,0,0,1,66.0821,-3.43168)">
            <path d="M427.382,589.448L421.229,573.872L415.052,589.448L427.382,589.448ZM432.801,603.267L428.871,593.257L413.563,593.257L409.584,603.267L404.823,603.267L419.154,567.134L424.232,567.134L438.343,603.267L432.801,603.267Z" style="fill-rule:nonzero;"/>
        </g>
        <g transform="matrix(1,0,0,1,67.2491,-3.43168)">
            <path d="M442.327,603.267L442.327,576.753L446.089,576.753L446.089,600.454L458.02,600.454L458.02,603.267L442.327,603.267Z" style="fill-rule:nonzero;"/>
        </g>
        <g transform="matrix(1,0,0,1,64.3317,-3.43168)">
            <path d="M468.195,603.267L468.195,579.566L458.79,579.566L458.79,576.753L481.363,576.753L481.363,579.566L471.958,579.566L471.958,603.267L468.195,603.267Z" style="fill-rule:nonzero;"/>
        </g>
        <g transform="matrix(1,0,0,1,64.3317,-3.43168)">
            <rect x="485.071" y="576.753" width="3.762" height="26.514" style="fill-rule:nonzero;"/>
        </g>
        <g transform="matrix(1,0,0,1,64.3317,-3.43168)">
            <path d="M506.336,603.93C502.657,603.93 499.698,602.655 497.459,600.105C495.22,597.555 494.1,594.184 494.1,589.992C494.1,585.776 495.226,582.405 497.477,579.879C499.728,577.353 502.735,576.09 506.497,576.09C510.247,576.09 513.251,577.35 515.508,579.87C517.765,582.39 518.894,585.752 518.894,589.956C518.894,594.244 517.765,597.645 515.508,600.159C513.251,602.673 510.193,603.93 506.336,603.93ZM506.389,601.117C509.101,601.117 511.197,600.141 512.678,598.188C514.158,596.235 514.899,593.479 514.899,589.92C514.899,586.469 514.155,583.77 512.669,581.823C511.182,579.876 509.124,578.903 506.497,578.903C503.858,578.903 501.797,579.879 500.316,581.832C498.835,583.785 498.095,586.499 498.095,589.974C498.095,593.438 498.829,596.161 500.298,598.143C501.767,600.126 503.798,601.117 506.389,601.117Z" style="fill-rule:nonzero;"/>
        </g>
        <g transform="matrix(1,0,0,1,64.3317,-3.43168)">
            <path d="M525.402,603.267L525.402,567.134L530.529,567.134L530.529,599.434L546.789,599.434L546.789,603.267L525.402,603.267Z" style="fill:rgb(14,56,122);fill-rule:nonzero;"/>
        </g>
        <g transform="matrix(1,0,0,1,64.3317,-3.43168)">
            <path d="M564.257,593.127L559.742,581.698L555.21,593.127L564.257,593.127ZM568.234,603.267L565.35,595.922L554.117,595.922L551.197,603.267L547.704,603.267L558.22,576.753L561.946,576.753L572.301,603.267L568.234,603.267Z" style="fill:rgb(14,56,122);fill-rule:nonzero;"/>
        </g>
        <g transform="matrix(1,0,0,1,64.3317,-3.43168)">
            <path d="M576.134,603.267L576.134,576.753L583.014,576.753C585.665,576.753 587.698,577.255 589.114,578.258C590.529,579.261 591.236,580.706 591.236,582.593C591.236,585.806 589.421,588.093 585.79,589.455C590.126,590.78 592.293,593.175 592.293,596.638C592.293,598.788 591.577,600.43 590.144,601.565C588.71,602.699 586.644,603.267 583.945,603.267L576.134,603.267ZM579.861,600.454L580.631,600.454C583.39,600.454 585.175,600.281 585.987,599.935C587.54,599.278 588.316,598.06 588.316,596.28C588.316,594.704 587.612,593.393 586.202,592.348C584.793,591.303 583.031,590.78 580.918,590.78L579.861,590.78L579.861,600.454ZM579.861,588.398L581.061,588.398C583.067,588.398 584.623,587.968 585.728,587.108C586.832,586.248 587.385,585.036 587.385,583.471C587.385,580.867 585.366,579.566 581.33,579.566L579.861,579.566L579.861,588.398Z" style="fill:rgb(14,56,122);fill-rule:nonzero;"/>
        </g>
        <g transform="matrix(1,0,0,1,64.3317,-3.43168)">
            <path d="M602.433,603.93C600.654,603.93 598.378,603.541 595.608,602.765L595.608,599.039C598.593,600.424 601.048,601.117 602.97,601.117C604.451,601.117 605.643,600.729 606.544,599.953C607.446,599.176 607.897,598.155 607.897,596.889C607.897,595.85 607.601,594.966 607.01,594.238C606.419,593.509 605.329,592.697 603.741,591.801L601.914,590.744C599.656,589.455 598.065,588.239 597.139,587.099C596.214,585.958 595.751,584.63 595.751,583.113C595.751,581.071 596.491,579.39 597.972,578.07C599.453,576.75 601.34,576.09 603.633,576.09C605.676,576.09 607.831,576.431 610.101,577.111L610.101,580.551C607.306,579.452 605.222,578.903 603.848,578.903C602.547,578.903 601.472,579.249 600.624,579.942C599.776,580.635 599.352,581.506 599.352,582.557C599.352,583.441 599.662,584.224 600.283,584.904C600.904,585.585 602.039,586.397 603.687,587.341L605.586,588.416C607.879,589.717 609.479,590.947 610.387,592.106C611.295,593.264 611.749,594.656 611.749,596.28C611.749,598.585 610.898,600.436 609.196,601.834C607.494,603.231 605.24,603.93 602.433,603.93Z" style="fill:rgb(14,56,122);fill-rule:nonzero;"/>
        </g>
    </g>
    <g transform="matrix(1.98767,0,0,1.98275,-78.2928,-164.514)">
        <g transform="matrix(1,0,0,1,-350.655,-509.92)">
            <path d="M459.843,602.5L509.569,631.21L509.569,688.629L459.843,717.339L410.116,688.629L410.116,631.21L459.843,602.5Z" style="fill:rgb(14,56,122);"/>
        </g>
        <g transform="matrix(0.8111,0,0,0.8111,-277.429,-385.598)">
            <path d="M513.173,625.848C513.173,625.309 512.96,624.793 512.58,624.413C512.2,624.032 511.686,623.818 511.149,623.818C499.366,623.818 440.14,623.818 440.14,623.818L440.14,694.83C440.14,695.946 441.043,696.852 442.157,696.852C453.922,696.852 513.173,696.852 513.173,696.852L513.173,625.848Z" style="fill:rgb(250,148,10);"/>
        </g>
        <g transform="matrix(0.945215,0,0,0.945215,-218.193,-481.199)">
            <rect x="325.645" y="647.675" width="39.15" height="39.15" style="fill:rgb(14,56,122);"/>
        </g>
        <g transform="matrix(1,0,0,1,-356.315,-489.432)">
            <path d="M435.884,609.813L495.027,668.956" style="fill:none;stroke:rgb(14,56,122);stroke-width:1.68px;"/>
        </g>
    </g>
</svg>
