<?xml version="1.0" encoding="utf-8"?>
<!-- Generator: Adobe Illustrator 23.0.6, SVG Export Plug-In . SVG Version: 6.00 Build 0)  -->
<svg version="1.1" id="Layer_1" xmlns="http://www.w3.org/2000/svg" xmlns:xlink="http://www.w3.org/1999/xlink" x="0px" y="0px"
	 viewBox="0 0 400 245" style="enable-background:new 0 0 400 245;" xml:space="preserve">
<style type="text/css">
	.st0{fill:#009BD1;}
	.st1{fill:url(#SVGID_1_);}
	.st2{fill:url(#SVGID_2_);}
	.st3{fill:url(#SVGID_3_);}
	.st4{fill:url(#SVGID_4_);}
	.st5{fill:url(#SVGID_5_);}
	.st6{fill:#0068B8;}
	.st7{fill:#00518C;}
	.st8{fill:#84C5DE;}
	.st9{opacity:0.8;fill:url(#SVGID_6_);stroke:#000000;stroke-width:1.016;stroke-miterlimit:10;}
	.st10{fill:url(#SVGID_7_);stroke:#000000;stroke-width:1.016;stroke-miterlimit:10;}
	.st11{fill:url(#SVGID_8_);stroke:#000000;stroke-width:1.016;stroke-miterlimit:10;}
	.st12{fill:#FFFFFF;}
	.st13{enable-background:new    ;}
	.st14{clip-path:url(#SVGID_11_);enable-background:new    ;}
	.st15{fill:url(#SVGID_12_);}
	.st16{clip-path:url(#SVGID_15_);enable-background:new    ;}
	.st17{fill:url(#SVGID_16_);}
	.st18{fill:url(#SVGID_17_);}
	.st19{fill:url(#SVGID_18_);}
	.st20{fill:url(#SVGID_19_);}
	.st21{clip-path:url(#SVGID_22_);enable-background:new    ;}
	.st22{fill:url(#SVGID_23_);}
	.st23{fill:url(#SVGID_24_);}
	.st24{fill:url(#SVGID_25_);}
	.st25{fill:url(#SVGID_26_);}
	.st26{fill:url(#SVGID_27_);}
	.st27{fill:url(#SVGID_28_);}
	.st28{fill:url(#SVGID_29_);}
	.st29{fill:url(#SVGID_30_);}
	.st30{fill:url(#SVGID_31_);}
	.st31{fill:url(#SVGID_32_);}
	.st32{clip-path:url(#SVGID_35_);enable-background:new    ;}
	.st33{fill:url(#SVGID_36_);}
	.st34{clip-path:url(#SVGID_39_);enable-background:new    ;}
	.st35{fill:url(#SVGID_40_);}
	.st36{fill:url(#SVGID_41_);}
	.st37{fill:url(#SVGID_42_);}
	.st38{fill:url(#SVGID_43_);}
	.st39{fill:url(#SVGID_44_);}
	.st40{fill:url(#SVGID_45_);}
	.st41{fill:url(#SVGID_46_);}
	.st42{fill:url(#SVGID_47_);}
	.st43{fill:url(#SVGID_48_);}
	.st44{fill:url(#SVGID_49_);}
	.st45{fill:url(#SVGID_50_);}
	.st46{fill:url(#SVGID_51_);}
	.st47{fill:url(#SVGID_52_);}
	.st48{fill:url(#SVGID_53_);}
	.st49{fill:url(#SVGID_54_);}
	.st50{fill:url(#SVGID_55_);}
	.st51{fill:url(#SVGID_56_);}
	.st52{clip-path:url(#SVGID_59_);enable-background:new    ;}
	.st53{fill:url(#SVGID_60_);}
	.st54{clip-path:url(#SVGID_63_);enable-background:new    ;}
	.st55{fill:url(#SVGID_64_);}
	.st56{clip-path:url(#SVGID_67_);enable-background:new    ;}
	.st57{fill:url(#SVGID_68_);}
	.st58{fill:url(#SVGID_69_);}
	.st59{fill:url(#SVGID_70_);}
	.st60{fill:url(#SVGID_71_);}
	.st61{clip-path:url(#SVGID_74_);enable-background:new    ;}
	.st62{fill:url(#SVGID_75_);}
	.st63{fill:url(#SVGID_76_);}
	.st64{fill:url(#SVGID_77_);}
	.st65{fill:url(#SVGID_78_);}
	.st66{fill:url(#SVGID_79_);}
	.st67{fill:url(#SVGID_80_);}
	.st68{fill:url(#SVGID_81_);}
	.st69{fill:url(#SVGID_82_);}
	.st70{fill:url(#SVGID_83_);}
	.st71{fill:url(#SVGID_84_);}
	.st72{clip-path:url(#SVGID_87_);enable-background:new    ;}
	.st73{fill:url(#SVGID_88_);}
	.st74{clip-path:url(#SVGID_91_);enable-background:new    ;}
	.st75{fill:url(#SVGID_92_);}
	.st76{fill:url(#SVGID_93_);}
	.st77{fill:url(#SVGID_94_);}
	.st78{fill:url(#SVGID_95_);}
	.st79{clip-path:url(#SVGID_98_);enable-background:new    ;}
	.st80{fill:url(#SVGID_99_);}
	.st81{fill:url(#SVGID_100_);}
	.st82{clip-path:url(#SVGID_103_);enable-background:new    ;}
	.st83{fill:url(#SVGID_104_);}
	.st84{fill:url(#SVGID_105_);}
	.st85{clip-path:url(#SVGID_108_);enable-background:new    ;}
	.st86{fill:url(#SVGID_109_);}
	.st87{fill:url(#SVGID_110_);}
	.st88{fill:url(#SVGID_111_);}
	.st89{clip-path:url(#SVGID_114_);enable-background:new    ;}
	.st90{fill:url(#SVGID_115_);}
	.st91{fill:url(#SVGID_116_);}
	.st92{fill:url(#SVGID_117_);}
	.st93{fill:url(#SVGID_118_);}
	.st94{fill:url(#SVGID_119_);}
	.st95{clip-path:url(#SVGID_122_);enable-background:new    ;}
	.st96{fill:url(#SVGID_123_);}
	.st97{fill:url(#SVGID_124_);}
	.st98{fill:url(#SVGID_125_);}
	.st99{fill:url(#SVGID_126_);}
	.st100{fill:url(#SVGID_127_);}
	.st101{fill:url(#SVGID_128_);}
	.st102{fill:url(#SVGID_129_);}
	.st103{fill:url(#SVGID_130_);}
	.st104{fill:url(#SVGID_131_);}
	.st105{fill:url(#SVGID_132_);}
	.st106{fill:url(#SVGID_133_);}
	.st107{fill:url(#SVGID_134_);}
	.st108{fill:url(#SVGID_135_);}
	.st109{fill:url(#SVGID_136_);}
	.st110{fill:url(#SVGID_137_);}
	.st111{fill:url(#SVGID_138_);}
	.st112{fill:url(#SVGID_139_);}
	.st113{fill:url(#SVGID_140_);}
	.st114{clip-path:url(#SVGID_143_);enable-background:new    ;}
	.st115{fill:url(#SVGID_144_);}
	.st116{clip-path:url(#SVGID_147_);enable-background:new    ;}
	.st117{fill:url(#SVGID_148_);}
	.st118{clip-path:url(#SVGID_151_);enable-background:new    ;}
	.st119{fill:url(#SVGID_152_);}
	.st120{fill:url(#SVGID_153_);}
	.st121{fill:url(#SVGID_154_);}
	.st122{fill:url(#SVGID_155_);}
	.st123{fill:url(#SVGID_156_);}
	.st124{fill:url(#SVGID_157_);}
	.st125{fill:url(#SVGID_158_);}
	.st126{fill:url(#SVGID_159_);}
	.st127{clip-path:url(#SVGID_162_);enable-background:new    ;}
	.st128{fill:url(#SVGID_163_);}
	.st129{clip-path:url(#SVGID_166_);enable-background:new    ;}
	.st130{fill:url(#SVGID_167_);}
	.st131{clip-path:url(#SVGID_170_);enable-background:new    ;}
	.st132{fill:url(#SVGID_171_);}
	.st133{fill:url(#SVGID_172_);}
	.st134{fill:url(#SVGID_173_);}
	.st135{fill:url(#SVGID_174_);}
	.st136{fill:url(#SVGID_175_);}
	.st137{fill:url(#SVGID_176_);}
	.st138{fill:url(#SVGID_177_);}
	.st139{clip-path:url(#SVGID_180_);enable-background:new    ;}
	.st140{fill:url(#SVGID_181_);}
	.st141{clip-path:url(#SVGID_184_);enable-background:new    ;}
	.st142{fill:url(#SVGID_185_);}
	.st143{fill:url(#SVGID_186_);}
	.st144{fill:url(#SVGID_187_);}
	.st145{clip-path:url(#SVGID_190_);enable-background:new    ;}
	.st146{fill:url(#SVGID_191_);}
	.st147{clip-path:url(#SVGID_194_);enable-background:new    ;}
	.st148{fill:url(#SVGID_195_);}
	.st149{fill:url(#SVGID_196_);}
	.st150{fill:url(#SVGID_197_);}
	.st151{fill:url(#SVGID_198_);}
	.st152{fill:url(#SVGID_199_);}
	.st153{fill:url(#SVGID_200_);}
	.st154{fill:url(#SVGID_201_);}
	.st155{clip-path:url(#SVGID_204_);enable-background:new    ;}
	.st156{fill:url(#SVGID_205_);}
	.st157{fill:url(#SVGID_206_);}
	.st158{fill:url(#SVGID_207_);}
	.st159{fill:url(#SVGID_208_);}
	.st160{clip-path:url(#SVGID_211_);enable-background:new    ;}
	.st161{fill:url(#SVGID_212_);}
	.st162{fill:url(#SVGID_213_);}
	.st163{fill:url(#SVGID_214_);}
	.st164{fill:url(#SVGID_215_);}
	.st165{clip-path:url(#SVGID_218_);enable-background:new    ;}
	.st166{fill:url(#SVGID_219_);}
	.st167{fill:url(#SVGID_220_);}
	.st168{fill:url(#SVGID_221_);}
	.st169{clip-path:url(#SVGID_224_);enable-background:new    ;}
	.st170{fill:url(#SVGID_225_);}
	.st171{fill:url(#SVGID_226_);}
	.st172{fill:url(#SVGID_227_);}
	.st173{fill:url(#SVGID_228_);}
	.st174{clip-path:url(#SVGID_231_);enable-background:new    ;}
	.st175{fill:url(#SVGID_232_);}
	.st176{fill:url(#SVGID_233_);}
	.st177{fill:url(#SVGID_234_);}
	.st178{fill:url(#SVGID_235_);}
	.st179{fill:url(#SVGID_236_);}
	.st180{clip-path:url(#SVGID_239_);enable-background:new    ;}
	.st181{fill:url(#SVGID_240_);}
	.st182{fill:url(#SVGID_241_);}
	.st183{fill:url(#SVGID_242_);}
	.st184{clip-path:url(#SVGID_245_);enable-background:new    ;}
	.st185{fill:url(#SVGID_246_);}
	.st186{clip-path:url(#SVGID_249_);enable-background:new    ;}
	.st187{fill:url(#SVGID_250_);}
	.st188{clip-path:url(#SVGID_253_);enable-background:new    ;}
	.st189{fill:url(#SVGID_254_);}
	.st190{clip-path:url(#SVGID_257_);enable-background:new    ;}
	.st191{fill:url(#SVGID_258_);}
	.st192{fill:url(#SVGID_259_);}
	.st193{fill:url(#SVGID_260_);}
	.st194{fill:url(#SVGID_261_);}
	.st195{fill:url(#SVGID_262_);}
	.st196{clip-path:url(#SVGID_265_);}
	.st197{fill:url(#SVGID_269_);}
	.st198{clip-path:url(#SVGID_272_);}
	.st199{fill:url(#SVGID_276_);}
	.st200{clip-path:url(#SVGID_279_);}
	.st201{fill:url(#SVGID_283_);}
	.st202{clip-path:url(#SVGID_286_);}
</style>
<g>
	<g>
		<linearGradient id="SVGID_1_" gradientUnits="userSpaceOnUse" x1="3.2966" y1="123.2319" x2="250.7373" y2="123.2319">
			<stop  offset="0" style="stop-color:#9ABBE7"/>
			<stop  offset="0.8128" style="stop-color:#0068B8"/>
		</linearGradient>
		<path class="st1" d="M188.7,110.4c0.3-4.9,1.5-8.3,3.5-9.8c2.8-2.1,9.9-0.8,11.5-0.3l0,0c0.7,0.2,1.5,0.3,2.3,0.3
			c5.6,0,10.2-4.6,10.2-10.2c0-5.2-3.9-9.5-8.9-10.1c-3.4-1-16.4-3.9-27.1,3.9c-7,5.1-10.9,13.1-11.8,23.9c0,0.6-0.1,1.2-0.1,1.7
			c0,1-0.1,2-0.1,3c0,15.8,6.6,23.4,12.1,27c4.9,3.2,10.5,4.3,15.6,4.3c3.4,0,6.6-0.5,9.5-1.1c-4.8-2.1-8.2-6.9-8.2-12.5
			c0-2.6,0.8-5,2-7.1c-3,0.5-6,0.4-7.8-0.7c-1.8-1.2-2.9-4.8-2.9-9.9c0-0.3,0-0.6,0-0.8c34.4,4.7,57.3,13,57.3,22.6
			c0,14.6-53.7,26.4-120,26.4s-120-11.8-120-26.4c0-7,12.4-13.4,32.5-18.1c-0.5,0.4-1,0.9-1.4,1.5l-6.6,8.5
			c-3.5,4.4-2.7,10.9,1.8,14.3c1.9,1.4,4.1,2.1,6.3,2.1c3,0,6-1.4,8.1-3.9l6.6-8.5c3.5-4.4,2.7-10.9-1.8-14.3
			c-1-0.8-2.1-1.3-3.3-1.7c2.2-0.4,4.4-0.8,6.7-1.2L79,142c2,2.4,4.9,3.7,7.8,3.7c2.3,0,4.6-0.8,6.5-2.4c4.3-3.6,4.9-10,1.3-14.4
			L79,110.2l-1.3-1.6l-21.7-26c-3.6-4.3-10-4.9-14.4-1.3c-4.3,3.6-4.9,10-1.3,14.4l13.5,16.2c-31.5,5.6-52,14.7-52,25
			c0,17,55.6,30.7,124.2,30.7s124.2-13.7,124.2-30.7C250.3,125.6,225.5,115.7,188.7,110.4z"/>
		<linearGradient id="SVGID_2_" gradientUnits="userSpaceOnUse" x1="3.2966" y1="99.3344" x2="250.7373" y2="99.3344">
			<stop  offset="0" style="stop-color:#9ABBE7"/>
			<stop  offset="0.8128" style="stop-color:#0068B8"/>
		</linearGradient>
		<path class="st2" d="M113.5,106.3l1.8,1.8l10.1,10.1c2,2,4.6,3,7.2,3s5.2-1,7.2-3l9.7-9.7l1.8-1.8l12-12c4-4,4-10.4,0-14.4
			c-4-4-10.4-4-14.4,0l-16.2,16.2l-16.2-16.2c-4-4-10.4-4-14.4,0c-4,4-4,10.4,0,14.4L113.5,106.3z"/>
		<linearGradient id="SVGID_3_" gradientUnits="userSpaceOnUse" x1="3.2966" y1="128.8642" x2="250.7373" y2="128.8642">
			<stop  offset="0" style="stop-color:#9ABBE7"/>
			<stop  offset="0.8128" style="stop-color:#0068B8"/>
		</linearGradient>
		<path class="st3" d="M100.3,122.3v13.2c0,5.6,4.6,10.2,10.2,10.2s10.2-4.6,10.2-10.2v-13.2c0-5.6-4.6-10.2-10.2-10.2
			S100.3,116.6,100.3,122.3z"/>
		<linearGradient id="SVGID_4_" gradientUnits="userSpaceOnUse" x1="3.2966" y1="128.8642" x2="250.7373" y2="128.8642">
			<stop  offset="0" style="stop-color:#9ABBE7"/>
			<stop  offset="0.8128" style="stop-color:#0068B8"/>
		</linearGradient>
		<path class="st4" d="M154.9,112.1c-5.6,0-10.2,4.6-10.2,10.2v13.2c0,5.6,4.6,10.2,10.2,10.2c5.6,0,10.2-4.6,10.2-10.2v-13.2
			C165.1,116.6,160.5,112.1,154.9,112.1z"/>
		<linearGradient id="SVGID_5_" gradientUnits="userSpaceOnUse" x1="3.2966" y1="130.5172" x2="250.7373" y2="130.5172">
			<stop  offset="0" style="stop-color:#9ABBE7"/>
			<stop  offset="0.8128" style="stop-color:#0068B8"/>
		</linearGradient>
		<path class="st5" d="M221,130.5c0-5.6-4.5-10.2-10.2-10.2c-1.8,0-3.5,0.5-5,1.3c-3.1,1.7-5.1,5-5.1,8.8c0,5.6,4.5,10.2,10.2,10.2
			c3.3,0,6.2-1.6,8-4C220.2,135,221,132.9,221,130.5z"/>
	</g>
	<g>
		<path class="st6" d="M279.5,98l-0.5-2.6l-0.3-1l-3.2-0.1l-2.8,0.1l-0.2,0.7L272,98h-4.4l5.8-18h5.5l5.3,18H279.5z M276.1,84.1
			h-0.3l-2.1,6.9l2.1,0.1l2.1-0.1L276.1,84.1z"/>
		<path class="st6" d="M294.6,85.3l-0.7,3.5l-0.3,0.1c-0.9-0.4-1.6-0.7-2.4-0.7c-1.5,0-2.3,1-2.3,3c0,2.4,0.9,3.6,2.5,3.6
			c0.8,0,1.6-0.2,2.6-0.6l0.3,0.3l-0.4,3.3c-1.1,0.3-2.3,0.5-3.5,0.5c-3.7,0-5.8-2.5-5.8-6.7c0-4.4,2.4-7,6.5-7
			C292.4,84.6,293.6,84.9,294.6,85.3z"/>
		<path class="st6" d="M306.3,88.5c0,0.9-0.3,5-0.3,5.8c0,0.5,0.2,0.7,0.6,0.7c0.2,0,0.3,0,0.6-0.1l0.3,0.3l-0.4,2.3
			c-0.6,0.4-1.3,0.7-2.3,0.8c-1.1-0.1-1.9-0.8-2.3-2h-0.2c-0.8,0.9-1.8,1.6-2.9,2c-2.7,0-4.4-1.6-4.4-4.1c0-1.9,1-3,3-3.4l4.1-0.7
			v-0.8c0-1.1-0.5-1.6-1.6-1.6c-1.1,0-2.3,0.4-4,1.5l-0.3-0.2l-0.5-2.9c1.7-1,3.7-1.5,5.6-1.5C304.5,84.6,306.3,86,306.3,88.5z
			 M299.9,92.7c-0.6,0.1-0.8,0.4-0.8,1.1c0,0.9,0.5,1.4,1.3,1.4c0.6,0,1.3-0.3,1.9-1l0-2L299.9,92.7z"/>
		<path class="st6" d="M321.1,94.3c0,0.5,0.1,0.8,0.5,0.8c0.2,0,0.4,0,0.6-0.1l0.3,0.3l-0.4,2.3c-0.6,0.4-1.3,0.7-2.3,0.8
			c-1.1-0.1-2-0.8-2.4-2h-0.2c-0.9,0.9-1.7,1.4-2.7,1.9c-3.7,0-5.7-2.5-5.7-6.6c0-4.6,2.6-6.9,6.7-6.9c0.4,0,1,0,1.5,0.1l-0.1-6.2
			l4.4-0.3l-0.3,13.8L321.1,94.3z M312.9,90.8c0,2.8,0.8,4,2.2,4c0.6,0,1.2-0.3,1.9-0.9l0-1.3l-0.1-4.6c-0.6-0.3-1.2-0.4-1.7-0.4
			C313.7,87.7,312.9,88.5,312.9,90.8z"/>
		<path class="st6" d="M327.6,92.2c0.2,1.9,1.2,2.9,3.3,2.9c1.1,0,2.4-0.3,3.7-0.9l0.4,0.3l-0.6,3.1c-1.2,0.4-2.5,0.7-3.9,0.7
			c-4.4,0-6.9-2.5-6.9-6.8c0-4.3,2.6-6.8,6.6-6.8c3.5,0,5.4,2,5.4,5.3c0,0.6-0.1,1.3-0.1,1.7l-0.6,0.6L327.6,92.2z M331.8,89.4
			c0-1.3-0.6-1.9-1.7-1.9c-1.3,0-2.1,0.9-2.4,2.5l4-0.2L331.8,89.4z"/>
		<path class="st6" d="M353.5,90.2c0-1.3-0.5-1.9-1.6-1.9c-0.7,0-1.3,0.3-2.1,0.8l-0.1,3.2l0.2,5.8h-4.4l0.3-7.8
			c0-1.3-0.5-1.9-1.6-1.9c-0.7,0-1.4,0.3-2.2,0.8v3.1l0.2,5.8h-4.4l0.2-5.3l-0.2-7.5l4.2-0.3v1.9h0.2c1-1,2.1-1.6,3.4-2
			c2.1,0,3.5,0.8,4,2.1h0.1c1-1,2.2-1.7,3.6-2.1c2.8,0,4.3,1.3,4.3,3.7l-0.1,3.7l0.2,5.8h-4.4L353.5,90.2z"/>
		<path class="st6" d="M364.8,98h-4.4l0.2-5.3l-0.2-7.5l4.4-0.3l-0.2,7.4L364.8,98z M364.9,80.4c0,1.5-0.9,2.4-2.3,2.4
			c-1.4,0-2.2-0.8-2.2-2.2c0-1.5,0.9-2.4,2.4-2.4C364.1,78.2,364.9,79,364.9,80.4z"/>
		<path class="st6" d="M376.8,85.3l-0.7,3.5l-0.3,0.1c-0.9-0.4-1.6-0.7-2.4-0.7c-1.5,0-2.3,1-2.3,3c0,2.4,0.9,3.6,2.5,3.6
			c0.8,0,1.6-0.2,2.6-0.6l0.3,0.3l-0.4,3.3c-1.1,0.3-2.3,0.5-3.5,0.5c-3.7,0-5.8-2.5-5.8-6.7c0-4.4,2.4-7,6.5-7
			C374.6,84.6,375.9,84.9,376.8,85.3z"/>
		<path class="st6" d="M284.6,127.5l-0.2-5.5l-0.5-5.9h-0.3l-3.6,9.6h-3.5l-3.1-9.6h-0.3l-0.6,5.5l-0.4,5.9h-3.8l1.8-18h5.2l0.6,2.6
			l2.3,7.7h0.3l2.5-7.6l0.7-2.7h5.1l1.5,18H284.6z"/>
		<path class="st6" d="M301.4,117.9c0,0.9-0.3,5-0.3,5.8c0,0.5,0.2,0.7,0.6,0.7c0.2,0,0.3,0,0.6-0.1l0.3,0.3l-0.4,2.3
			c-0.6,0.4-1.3,0.7-2.3,0.8c-1.1-0.1-1.9-0.8-2.3-2h-0.2c-0.8,0.9-1.8,1.6-2.9,2c-2.7,0-4.4-1.6-4.4-4.1c0-1.9,1-3,3-3.4l4.1-0.7
			v-0.8c0-1.1-0.5-1.6-1.6-1.6s-2.3,0.4-4,1.5l-0.3-0.2l-0.5-2.9c1.7-1,3.7-1.5,5.6-1.5C299.5,114.1,301.4,115.5,301.4,117.9z
			 M294.9,122.1c-0.6,0.1-0.8,0.4-0.8,1.1c0,0.9,0.5,1.4,1.3,1.4c0.6,0,1.3-0.3,1.9-1l0-2L294.9,122.1z"/>
		<path class="st6" d="M309,127.5h-4.4l0.2-5.3l-0.2-7.5l4.4-0.3l-0.2,7.4L309,127.5z M309.2,109.9c0,1.5-0.9,2.4-2.3,2.4
			c-1.4,0-2.2-0.8-2.2-2.2c0-1.5,0.9-2.4,2.4-2.4C308.4,107.7,309.2,108.5,309.2,109.9z"/>
		<path class="st6" d="M319.8,119.7c0-1.3-0.5-1.9-1.6-1.9c-0.7,0-1.4,0.3-2.1,0.8v3.1l0.2,5.8h-4.4l0.2-5.3l-0.2-7.5l4.2-0.3v1.9
			h0.2c1-1,2.1-1.6,3.3-2c2.8,0,4.3,1.3,4.3,3.7l-0.1,3.7l0.2,5.8h-4.4L319.8,119.7z"/>
		<path class="st6" d="M336.5,108l-0.3,3.2l-0.3,0.2c-1.1-0.4-1.8-0.6-2.4-0.6c-0.9,0-1.5,0.4-1.5,1.7l0,2h3.1l0.1,0.3l-0.2,2.4
			h-3.1l-0.1,4.6l0.2,5.8h-4.4l0.2-5.4l-0.1-5h-2l-0.1-0.2l0.2-2.4h1.9l0-1.2c0-3.6,2.3-5.5,6.2-5.5
			C334.8,107.8,335.6,107.9,336.5,108z"/>
		<path class="st6" d="M344.6,114.4v4.1l-0.4,0.1c-0.3-0.2-0.7-0.2-1-0.2c-0.9,0-1.9,0.5-2.8,1.6v1.7l0.2,5.8h-4.4l0.2-5.3l-0.2-7.5
			l4.2-0.3v2.5h0.2c0.9-1.7,2-2.5,3.3-2.5C344.1,114.3,344.3,114.4,344.6,114.4z"/>
		<path class="st6" d="M356.3,117.9c0,0.9-0.3,5-0.3,5.8c0,0.5,0.2,0.7,0.6,0.7c0.2,0,0.3,0,0.6-0.1l0.3,0.3l-0.4,2.3
			c-0.6,0.4-1.3,0.7-2.3,0.8c-1.1-0.1-1.9-0.8-2.3-2h-0.2c-0.8,0.9-1.8,1.6-2.9,2c-2.7,0-4.4-1.6-4.4-4.1c0-1.9,1-3,3-3.4l4.1-0.7
			v-0.8c0-1.1-0.5-1.6-1.6-1.6c-1.1,0-2.3,0.4-4,1.5l-0.3-0.2l-0.5-2.9c1.7-1,3.7-1.5,5.6-1.5C354.5,114.1,356.3,115.5,356.3,117.9z
			 M349.8,122.1c-0.6,0.1-0.8,0.4-0.8,1.1c0,0.9,0.5,1.4,1.3,1.4c0.6,0,1.3-0.3,1.9-1l0-2L349.8,122.1z"/>
		<path class="st6" d="M375.2,119.6c0-1.3-0.5-1.9-1.6-1.9c-0.7,0-1.3,0.3-2.1,0.8l-0.1,3.2l0.2,5.8h-4.4l0.3-7.8
			c0-1.3-0.5-1.9-1.6-1.9c-0.7,0-1.4,0.3-2.2,0.8v3.1l0.2,5.8h-4.4l0.2-5.3l-0.2-7.5l4.2-0.3v1.9h0.2c1-1,2.1-1.6,3.4-2
			c2.1,0,3.5,0.8,4,2.1h0.1c1-1,2.2-1.7,3.6-2.1c2.8,0,4.3,1.3,4.3,3.7l-0.1,3.7l0.2,5.8h-4.4L375.2,119.6z"/>
		<path class="st6" d="M385.4,121.7c0.2,1.9,1.2,2.9,3.3,2.9c1.1,0,2.4-0.3,3.7-0.9l0.4,0.3l-0.6,3.1c-1.2,0.4-2.5,0.7-3.9,0.7
			c-4.4,0-6.9-2.5-6.9-6.8c0-4.3,2.6-6.8,6.6-6.8c3.5,0,5.4,2,5.4,5.3c0,0.6-0.1,1.3-0.1,1.7l-0.6,0.6L385.4,121.7z M389.5,118.9
			c0-1.3-0.6-1.9-1.7-1.9c-1.3,0-2.1,0.9-2.4,2.5l4-0.2L389.5,118.9z"/>
		<path class="st6" d="M281.6,139.5l-0.8,3.7l-0.3,0.2c-1.1-0.7-2.5-1.1-3.7-1.1c-2.7,0-3.9,1.6-3.9,5.2c0,4,1.4,5.9,4.2,5.9
			c1.2,0,2.7-0.4,3.8-1l0.4,0.2l-0.4,3.7c-1.4,0.6-2.8,0.8-4.2,0.8c-5.7,0-8.6-3.2-8.6-9.1c0-6,3.2-9.4,8.9-9.4
			C278.7,138.6,280.2,139,281.6,139.5z"/>
		<path class="st6" d="M294.6,150.1c0,4.6-2.3,7.1-6.5,7.1c-4,0-6.1-2.3-6.1-6.5c0-4.6,2.3-7.1,6.5-7.1
			C292.5,143.5,294.6,145.8,294.6,150.1z M286.2,149.9c0,3.4,0.6,4.4,2.2,4.4c1.5,0,2-0.8,2-3.4c0-3.3-0.6-4.4-2.2-4.4
			C286.7,146.5,286.2,147.4,286.2,149.9z"/>
		<path class="st6" d="M304.6,149.1c0-1.3-0.5-1.9-1.6-1.9c-0.7,0-1.4,0.3-2.1,0.8v3.1l0.2,5.8h-4.4l0.2-5.3l-0.2-7.5l4.2-0.3v1.9
			h0.2c1-1,2.1-1.6,3.3-2c2.8,0,4.3,1.3,4.3,3.7l-0.1,3.7l0.2,5.8h-4.4L304.6,149.1z"/>
		<path class="st6" d="M320.2,144.2l-0.6,3.2l-0.5,0.2c-1.2-0.8-2.4-1.2-3.2-1.2c-0.8,0-1.2,0.4-1.2,0.9c0,1.8,5.8,1.4,5.8,5.5
			c0,2.2-1.6,4.4-5.5,4.4c-1.3,0-2.8-0.3-4.4-0.8l0.5-3.4l0.4-0.3c1.3,1.1,3,1.7,4,1.7c0.8,0,1.3-0.4,1.3-1c0-1.8-5.8-1.3-5.8-5.5
			c0-2.5,2-4.4,5.4-4.4C317.7,143.6,319.1,143.8,320.2,144.2z"/>
		<path class="st6" d="M334.3,150.1c0,4.6-2.3,7.1-6.5,7.1c-4,0-6.1-2.3-6.1-6.5c0-4.6,2.3-7.1,6.5-7.1
			C332.2,143.5,334.3,145.8,334.3,150.1z M325.9,149.9c0,3.4,0.6,4.4,2.2,4.4c1.5,0,2-0.8,2-3.4c0-3.3-0.6-4.4-2.2-4.4
			C326.4,146.5,325.9,147.4,325.9,149.9z"/>
		<path class="st6" d="M344.9,143.9v4.1l-0.4,0.1c-0.3-0.2-0.7-0.2-1-0.2c-0.9,0-1.9,0.5-2.8,1.6v1.7l0.2,5.8h-4.4l0.2-5.3l-0.2-7.5
			l4.2-0.3v2.5h0.2c0.9-1.7,2-2.5,3.3-2.5C344.4,143.8,344.6,143.8,344.9,143.9z"/>
		<path class="st6" d="M354.3,153.3l0.3,0.3l-0.4,2.5c-0.9,0.5-1.9,0.8-2.9,1c-2.7-0.2-4.2-1.5-4.2-3.7l0.1-2.5l0-4.3h-1.7l-0.1-0.2
			l0.2-2.4h1.7v-2.2l4.1-1.2l0.3,0.3l-0.1,3.2h3.1l0.1,0.3l-0.2,2.4h-3.1l-0.2,5.7c0,1.1,0.4,1.5,1.3,1.5
			C353,153.7,353.6,153.5,354.3,153.3z"/>
		<path class="st6" d="M360.7,156.9h-4.4l0.2-5.3l-0.2-7.5l4.4-0.3l-0.2,7.4L360.7,156.9z M360.9,139.3c0,1.5-0.9,2.4-2.3,2.4
			c-1.4,0-2.2-0.8-2.2-2.2c0-1.5,0.9-2.4,2.4-2.4C360.1,137.1,360.9,138,360.9,139.3z"/>
		<path class="st6" d="M375.1,153.2c0,0.5,0.1,0.7,0.5,0.7c0.2,0,0.4,0,0.6-0.1l0.3,0.3l-0.4,2.3c-0.6,0.4-1.3,0.7-2.3,0.8
			c-1.1-0.1-2-0.9-2.3-2.2h-0.3c-1,1.1-2.1,1.8-3.3,2.1c-2.8,0-4.3-1.3-4.3-3.7l0.1-3.1l-0.1-6.1l4.3-0.3l-0.1,8
			c0,1.2,0.5,1.8,1.5,1.8c0.7,0,1.3-0.3,1.9-0.8v-8.6l4.2-0.3L375.1,153.2z"/>
		<path class="st6" d="M394,149.1c0-1.3-0.5-1.9-1.6-1.9c-0.7,0-1.3,0.3-2.1,0.8l-0.1,3.2l0.2,5.8H386l0.3-7.8
			c0-1.3-0.5-1.9-1.6-1.9c-0.7,0-1.4,0.3-2.2,0.8v3.1l0.2,5.8h-4.4l0.2-5.3l-0.2-7.5l4.2-0.3v1.9h0.2c1-1,2.1-1.6,3.4-2
			c2.1,0,3.5,0.8,4,2.1h0.1c1-1,2.2-1.7,3.6-2.1c2.8,0,4.3,1.3,4.3,3.7l-0.1,3.7l0.2,5.8h-4.4L394,149.1z"/>
	</g>
</g>
</svg>
