<?xml version="1.0" encoding="UTF-8"?> <!-- Generator: Adobe Illustrator 24.1.2, SVG Export Plug-In . SVG Version: 6.00 Build 0) --> <svg xmlns="http://www.w3.org/2000/svg" xmlns:xlink="http://www.w3.org/1999/xlink" id="Layer_1" x="0px" y="0px" viewBox="0 0 400 245" style="enable-background:new 0 0 400 245;" xml:space="preserve"> <style type="text/css"> .st0{fill:#010101;} </style> <g> <path class="st0" d="M0.9,134.6l11.6-24.9c0.1-0.2,0.4-0.4,0.6-0.4h0.4c0.3,0,0.5,0.2,0.6,0.4l11.6,24.9c0.2,0.5-0.1,1-0.6,1H21 c-0.7,0-1-0.2-1.3-0.9l-1.3-2.9H8.3l-1.3,3c-0.2,0.4-0.6,0.9-1.3,0.9H1.6C1,135.6,0.7,135.1,0.9,134.6z M16.2,126.7l-2.8-6.1h0 l-2.8,6.1H16.2z"></path> <path class="st0" d="M36.2,109.9c0-0.4,0.3-0.7,0.7-0.7h0.9l14.8,14.2h0v-13.2c0-0.4,0.3-0.7,0.7-0.7h4.4c0.4,0,0.7,0.3,0.7,0.7 v24.9c0,0.4-0.3,0.7-0.7,0.7h-0.6c-0.1,0-0.4-0.1-0.5-0.2L42.1,121h0v13.8c0,0.4-0.3,0.7-0.7,0.7h-4.4c-0.4,0-0.7-0.3-0.7-0.7 L36.2,109.9z"></path> <path class="st0" d="M83.7,109.3c7.4,0,13.3,6,13.3,13.4c0,7.4-5.9,13.3-13.3,13.3c-7.4,0-13.3-5.9-13.3-13.3 C70.4,115.2,76.3,109.3,83.7,109.3z M83.7,130c4.1,0,7.4-3.3,7.4-7.4c0-4.1-3.3-7.4-7.4-7.4c-4,0-7.4,3.4-7.4,7.4 C76.3,126.7,79.6,130,83.7,130z"></path> <path class="st0" d="M108.9,109.9c0-0.4,0.3-0.7,0.7-0.7h0.9l14.8,14.2h0v-13.2c0-0.4,0.3-0.7,0.7-0.7h4.4c0.4,0,0.7,0.3,0.7,0.7 v24.9c0,0.4-0.3,0.7-0.7,0.7h-0.6c-0.1,0-0.4-0.1-0.5-0.2L114.8,121h0v13.8c0,0.4-0.3,0.7-0.7,0.7h-4.4c-0.4,0-0.7-0.3-0.7-0.7 L108.9,109.9z"></path> <path class="st0" d="M149.8,123.1l-8.2-12.4c-0.3-0.5,0-1.1,0.6-1.1h4.8c0.3,0,0.5,0.2,0.6,0.3l5.2,7.6l5.2-7.6 c0.1-0.1,0.3-0.3,0.6-0.3h4.8c0.6,0,0.9,0.6,0.6,1.1l-8.3,12.3v11.8c0,0.4-0.3,0.7-0.7,0.7h-4.4c-0.4,0-0.7-0.3-0.7-0.7 L149.8,123.1L149.8,123.1z"></path> <path class="st0" d="M185.2,109.3c7.4,0,13.3,6,13.3,13.4c0,7.4-5.9,13.3-13.3,13.3c-7.4,0-13.3-5.9-13.3-13.3 C171.9,115.2,177.8,109.3,185.2,109.3z M185.2,130c4.1,0,7.4-3.3,7.4-7.4c0-4.1-3.3-7.4-7.4-7.4c-4,0-7.4,3.4-7.4,7.4 C177.8,126.7,181.1,130,185.2,130z"></path> <path class="st0" d="M213,109.8c0-0.3,0.4-0.6,0.7-0.6h0.6c0.2,0,0.5,0.1,0.6,0.4l8.6,16h0.1l8.6-16c0.1-0.2,0.4-0.4,0.6-0.4h0.6 c0.3,0,0.6,0.3,0.7,0.6l4.2,24.9c0.1,0.5-0.3,0.8-0.7,0.8h-4.4c-0.3,0-0.7-0.3-0.7-0.6l-1.7-11.5h-0.1l-6.2,12 c-0.1,0.2-0.4,0.4-0.6,0.4h-0.7c-0.2,0-0.5-0.2-0.6-0.4l-6.3-12h-0.1l-1.6,11.5c0,0.3-0.3,0.6-0.7,0.6h-4.4c-0.4,0-0.8-0.3-0.7-0.8 L213,109.8z"></path> <path class="st0" d="M250.4,110.3c0-0.4,0.3-0.7,0.7-0.7h15.3c0.4,0,0.7,0.3,0.7,0.7v4c0,0.4-0.3,0.7-0.7,0.7h-10.3v4.6h8.4 c0.4,0,0.7,0.3,0.7,0.7v4c0,0.4-0.3,0.7-0.7,0.7h-8.4v5h10.3c0.4,0,0.7,0.3,0.7,0.7v4c0,0.4-0.3,0.7-0.7,0.7h-15.3 c-0.4,0-0.7-0.3-0.7-0.7L250.4,110.3L250.4,110.3z"></path> <path class="st0" d="M295.8,110.1c0-0.3,0.2-0.5,0.5-0.5h0.8c0.2,0,0.4,0.2,0.4,0.5V134h11.8c0.4,0,0.5,0.2,0.5,0.5v0.7 c0,0.3-0.2,0.4-0.5,0.4h-13.1c-0.3,0-0.5-0.2-0.5-0.5L295.8,110.1L295.8,110.1z"></path> <path class="st0" d="M318.8,135.1l11.4-25.8c0.1-0.1,0.3-0.3,0.4-0.3h0.1c0.2,0,0.4,0,0.5,0.3l11.3,25.8c0.1,0.2,0.1,0.4-0.3,0.4 h-1c-0.3,0-0.4-0.2-0.5-0.3l-3-6.8h-14.2l-3,6.8c-0.1,0.1-0.3,0.3-0.5,0.3h-1C318.8,135.6,318.7,135.4,318.8,135.1z M337.2,127 l-6.3-14.9h-0.1l-6.4,14.9L337.2,127L337.2,127z"></path> <path class="st0" d="M354.2,110.1c0-0.3,0.2-0.5,0.5-0.5h7.9c4.6,0,7.7,2.6,7.7,6.7c0,2.9-1.8,5.1-4.1,6c2.6,0.7,4.9,2.6,4.9,6.2 c0,4.2-3.3,7-8.2,7h-8.2c-0.3,0-0.5-0.2-0.5-0.5L354.2,110.1L354.2,110.1z M363,134c3.6,0,6.1-2.3,6.1-5.5c0-3.3-2.8-5.3-6.3-5.3 h-6.9V134H363z M362.8,121.6c3.5,0,5.5-2.2,5.5-5.2c0-3.2-2.2-5.2-5.8-5.2h-6.6v10.4H362.8L362.8,121.6z"></path> <path class="st0" d="M383.1,132.1l0.3-0.4c0.3-0.3,0.5-0.4,0.8-0.1c0.4,0.3,3.1,2.9,6.9,2.9c3.4,0,6.2-2.3,6.2-5 c0-3.3-2.7-4.8-7.2-6.3c-4.3-1.5-7.2-3-7.2-7.3c0-2.8,2.2-6.6,8-6.6c3.7,0,6.4,1.9,6.4,1.9c0.1,0.1,0.4,0.4,0.1,0.8 c-0.1,0.1-0.2,0.3-0.3,0.5c-0.2,0.3-0.4,0.4-0.8,0.2c-0.1-0.1-2.6-1.7-5.4-1.7c-4.6,0-6.3,2.8-6.3,4.9c0,3.1,2.4,4.5,6.2,5.7 c5.1,1.7,8.3,3.5,8.3,7.8c0,3.7-3.8,6.6-8.1,6.6c-4.4,0-7.4-2.6-7.9-3C383,132.7,382.8,132.5,383.1,132.1z"></path> </g> </svg> 