<?xml version="1.0" encoding="utf-8"?>
<!-- Generator: Adobe Illustrator 24.0.2, SVG Export Plug-In . SVG Version: 6.00 Build 0)  -->
<svg version="1.1" id="Layer_1" xmlns="http://www.w3.org/2000/svg" xmlns:xlink="http://www.w3.org/1999/xlink" x="0px" y="0px"
	 viewBox="0 0 792 256.36" style="enable-background:new 0 0 792 256.36;" xml:space="preserve">
<style type="text/css">
	.st0{fill:#FFB71B;}
	.st1{fill:#FFFFFF;}
</style>
<g>
	<polygon class="st0" points="195.48,44.13 154.35,44.13 92.91,194.09 134.04,194.09 	"/>
	<polygon class="st1" points="204.89,48.86 184.24,99.26 223.09,194.09 266.69,194.09 	"/>
	<g>
		<path class="st1" d="M341.02,87.34c-7.37,0-13.99,1.49-19.86,4.46c-5.88,2.97-10.66,7.29-14.34,12.96V89.89h-31.23v104.32h32.08
			v-58.43c0-7.08,2.02-12.75,6.06-17c4.03-4.25,9.38-6.38,16.04-6.38c5.53,0,9.59,1.63,12.22,4.89c2.62,3.26,3.93,8.43,3.93,15.51
			v61.4h32.08v-62.89c0-14.73-3.05-25.74-9.14-33.04C362.76,90.99,353.48,87.34,341.02,87.34z"/>
	</g>
	<g>
		<path class="st1" d="M454.81,132.81l-17.63-4.04c-4.25-1.13-7.23-2.33-8.93-3.61c-1.69-1.28-2.54-3.05-2.54-5.31
			c0-3.11,1.41-5.52,4.24-7.22c2.83-1.7,6.73-2.55,11.69-2.55c10.76,0,21.67,3.82,32.72,11.47l8.5-21.24
			c-5.67-4.11-12.04-7.29-19.12-9.56c-7.08-2.26-14.38-3.4-21.88-3.4c-8.79,0-16.61,1.42-23.48,4.25
			c-6.87,2.83-12.18,6.73-15.93,11.68c-3.76,4.96-5.63,10.7-5.63,17.21c0,8.22,2.38,14.7,7.12,19.44
			c4.74,4.75,12.15,8.25,22.21,10.52l17,3.83c5.24,1.13,8.81,2.41,10.73,3.82c1.91,1.42,2.87,3.4,2.87,5.95
			c0,2.84-1.38,5.07-4.14,6.69c-2.76,1.63-6.63,2.44-11.58,2.44c-6.94,0-13.81-1.06-20.61-3.18c-6.79-2.13-13.03-5.1-18.7-8.92
			l-8.49,22.09c5.8,4.11,12.71,7.26,20.71,9.46c8,2.19,16.82,3.29,26.45,3.29c14.02,0,25.03-2.87,33.04-8.61
			c8-5.74,12-13.63,12-23.69c0-8.35-2.44-14.98-7.33-19.86C473.19,138.86,465.44,135.22,454.81,132.81z"/>
	</g>
	<g>
		<path class="st1" d="M691.77,143.75c-4.89-4.89-12.64-8.53-23.26-10.94l-17.64-4.04c-4.24-1.13-7.22-2.33-8.92-3.61
			c-1.7-1.28-2.55-3.05-2.55-5.31c0-3.11,1.42-5.52,4.25-7.22c2.83-1.7,6.73-2.55,11.69-2.55c10.76,0,21.67,3.82,32.72,11.47
			l8.49-21.24c-5.66-4.11-12.04-7.29-19.12-9.56c-7.08-2.26-14.37-3.4-21.88-3.4c-8.78,0-16.61,1.42-23.47,4.25
			c-6.88,2.83-12.19,6.73-15.94,11.68c-3.75,4.96-5.63,10.7-5.63,17.21c0,8.22,2.37,14.7,7.12,19.44
			c4.74,4.75,12.14,8.25,22.2,10.52l17,3.83c5.24,1.13,8.82,2.41,10.73,3.82c1.92,1.42,2.87,3.4,2.87,5.95
			c0,2.84-1.38,5.07-4.14,6.69c-2.76,1.63-6.62,2.44-11.58,2.44c-6.94,0-13.81-1.06-20.61-3.18c-6.8-2.13-13.04-5.1-18.7-8.92
			l-8.5,22.09c5.81,4.11,12.71,7.26,20.72,9.46c8,2.19,16.81,3.29,26.45,3.29c14.02,0,25.03-2.87,33.04-8.61
			c8-5.74,12-13.63,12-23.69C699.09,155.26,696.65,148.64,691.77,143.75z"/>
	</g>
	<polygon class="st1" points="573.89,90.02 548.81,151.23 523.72,90.02 492.73,90.02 533.31,189.06 515.53,232.45 546.52,232.45 
		604.88,90.02 	"/>
</g>
</svg>
