<?xml version="1.0" encoding="utf-8"?>
<!-- Generator: Adobe Illustrator 25.0.1, SVG Export Plug-In . SVG Version: 6.00 Build 0)  -->
<svg version="1.1" id="Layer_1" xmlns="http://www.w3.org/2000/svg" xmlns:xlink="http://www.w3.org/1999/xlink" x="0px" y="0px"
	 viewBox="0 0 971.9 272.7" style="enable-background:new 0 0 971.9 272.7;" xml:space="preserve">
<style type="text/css">
	.st0{fill:#35813F;}
	.st1{fill:#24272A;}
</style>
<g>
	<g>
		<path class="st0" d="M221.1,107.7c4-5.2,4.2-12.1,5.4-18.3c0.6,6.2-0.1,13.6,4.6,18.5c5.5,5.5,13.9,4.6,21.1,5
			c-6.9,1.1-14.6,1-20.4,5.4c-5.6,5.1-4.8,13.3-5.3,20.2c-1.2-6.8-1.1-14.5-5.9-19.8c-4.9-4.2-11.7-4.3-17.7-5.6
			C209.1,112.4,216.5,112.8,221.1,107.7z"/>
		<path class="st0" d="M303,33.3c-2.1-5.6-5.4-10.9-9.7-15.2c-4.3-4.3-9.2-7.8-14.4-10.3c-5.2-2.5-10.5-4.3-15.8-5.5
			c-5.3-1.2-10.5-1.8-15.7-2.2c-5.6-0.3-11.4,0-17,1c-11.2,2-21.8,6.4-30.9,12.1c-9.2,5.7-17.2,12.4-24.3,19.7
			c-7.2,7.2-13.4,15-19.2,23c-3.7,5.1-7.1,10.4-10.4,15.8c-3.5-5-7.3-9.8-11.6-14.3C120,42.5,102.3,30.5,82.6,24
			c-4.9-1.7-10-3-15.3-3.9c-1.3-0.2-2.7-0.4-4.1-0.6l-2.3-0.2l-1.3-0.1l-1,0c-2.7-0.1-5.5-0.1-8.2,0.1c-5.6,0.4-11.3,1.3-16.9,3.3
			c-5.6,1.9-11.2,4.8-15.9,8.9c-4.8,4-8.6,9-11.4,14.3C3.5,50.9,1.9,56.4,1,61.7c-0.9,5.3-1.1,10.5-0.9,15.6c0.2,5.1,0.7,9.8,1.8,15
			c1.1,5,2.7,10.1,5.3,14.8c2.5,4.7,6,9.1,10.3,12.4c4.3,3.3,9.2,5.6,14.1,6.7c5,1,9.8,1.2,14.8,0.3l-0.3-3.7
			c-4.1-0.6-8.4-1.9-11.9-3.9c-3.6-1.9-6.7-4.4-8.9-7.4c-4.5-6-6.2-13.4-6.3-21.3c0-3.9,0.2-8.1,0.7-12.1c0.5-4,1.3-7.9,2.4-11.3
			c2.3-7,6-12.3,10.9-15.2c4.8-3,11-4.3,18.1-4c1.8,0.1,3.5,0.2,5.3,0.4L57,48c0.4,0,0.1,0,0.3,0.1l1.1,0.3c0.8,0.2,1.7,0.4,2.6,0.7
			c3.5,1.1,7.1,2.4,10.7,3.9c14.1,6.3,27,15.7,37.4,27.5c6.9,7.8,13.1,16.3,18.7,25.5c-0.1,0.1-0.1,0.3-0.2,0.4
			c-7.7,17.5-13.8,35.4-18.6,53.8c-2.4,9.2-4.5,18.5-6.2,28c-1.7,9.5-3,19.1-3.4,29.7c-0.2,5.5,0.3,11,1.3,16.7
			c1.1,5.6,2.8,11.4,5.8,17c2.9,5.6,7.1,11,12.9,15.2c2.9,2.1,6.2,3.8,9.8,4.9c3.6,1.1,7.4,1.5,11.1,1.1c7.4-0.7,13.7-4.1,18-8.4
			c4.4-4.2,7.3-9,9.5-13.8c4.3-9.7,5.7-19.4,6.8-29c0.5-4.8,0.9-9.7,0.7-14.2c0-4.6,0.3-9.2,0.1-13.9c0-9.3-0.3-18.6-0.8-28
			c-1-15.8-3.2-31.8-7.5-47.5c6.3-13.9,13.3-27.5,21.2-40c8.9-13.9,19-26.7,30.8-35.7c5.9-4.5,12-7.9,18.4-9.9c3.2-1,6.5-1.6,9.9-2
			c3.9-0.3,7.7-0.4,11.3-0.1c14.7,0.9,26.1,6.8,29.1,21.4c1.4,7,0.9,15.3-1.7,23.2c-2.4,8-6.6,15.7-12.2,22.6l2.5,2.9
			c8.1-5,15-12,20.3-20.4c5.1-8.4,8.9-18.4,9.1-29.4C305.9,44.7,305,38.9,303,33.3z M137.2,246.6c-0.9-1.9-1.6-4.3-2.1-7.1
			c-0.5-2.8-0.8-5.9-0.8-9.3c-0.1-3.4,0.3-6.9,0.6-10.5c0.8-7.5,2.4-15.9,4.5-24.1c2.1-8.2,4.4-16.5,7.1-24.7
			c1.5-4.7,3.1-9.4,4.8-14.1c0,0.1,0,0.1,0.1,0.2c1.2,4.6,19.2,72,1.9,90.1c-1.6,1.5-3.3,2.7-5,3.4c-2.9,1.2-5.6,1.1-7.3,0.2
			C139.2,249.9,138.2,248.5,137.2,246.6z"/>
	</g>
	<polygon class="st1" points="357.3,58.4 383.2,58.3 383.4,84.4 396.7,84.3 396.4,23.9 383,24 383.1,46.5 357.3,46.7 357.2,24.1 
		343.8,24.2 344.2,84.6 357.5,84.6 	"/>
	<polygon class="st1" points="428.9,84.6 442.3,84.5 442.1,58.7 464.7,24 448.9,24.1 435.4,46.8 422.5,24.2 405.9,24.3 428.8,58.8 	
		"/>
	<path class="st1" d="M487.6,84.5l-0.1-23.6l9.7-0.1c3.2,0,6.2-0.3,8.9-1c2.7-0.6,5.1-1.6,7.1-3.1c2-1.4,3.5-3.4,4.7-5.7
		c1.1-2.4,1.7-5.4,1.7-8.9c0-3.6-0.7-6.5-1.9-8.9c-1.2-2.3-2.9-4.2-5-5.6c-2.1-1.4-4.5-2.3-7.3-2.9c-2.8-0.6-5.7-0.8-8.9-0.8
		L474,24.1l0.3,60.4L487.6,84.5z M494.2,35.3c1.2,0,2.6,0.1,3.9,0.2c1.4,0.1,2.6,0.4,3.7,1c1.1,0.5,2,1.2,2.7,2.2
		c0.7,0.9,1.1,2.2,1.1,3.7c0,1.4-0.3,2.6-0.8,3.5c-0.5,1-1.2,1.7-2.1,2.2c-0.9,0.5-1.9,1-3,1.2c-1.1,0.2-2.3,0.4-3.4,0.4l-8.9,0.1
		l-0.1-14.3L494.2,35.3z"/>
	<polygon class="st1" points="571.7,84.4 571.6,72.1 542.3,72.2 542.3,60 568.5,59.8 568.4,47.5 542.2,47.7 542.1,36.4 569.9,36.3 
		569.8,24 528.8,24.2 529.1,84.6 	"/>
	<path class="st1" d="M613.8,84.4l16-0.1l-15.5-25.4c4.3-0.8,7.5-2.7,9.7-5.7c2.2-3,3.3-6.6,3.3-10.9c0-3.5-0.7-6.5-1.9-8.8
		c-1.2-2.3-2.9-4.2-5-5.6c-2.1-1.4-4.5-2.4-7.3-2.9c-2.8-0.6-5.7-0.9-8.7-0.9l-23.4,0.1l0.3,60.4l13.3-0.1l-0.1-24.1l6.6,0
		L613.8,84.4z M594.4,49.1l-0.1-13.7l8.7,0c1.2,0,2.4,0.1,3.7,0.2c1.2,0.2,2.4,0.5,3.3,1c1,0.5,1.8,1.2,2.4,2.1c0.6,0.9,1,2.1,1,3.7
		c0,1.6-0.4,2.9-1,3.8c-0.7,0.9-1.6,1.6-2.7,2c-1.1,0.4-2.3,0.7-3.6,0.8c-1.3,0.1-2.6,0.1-3.8,0.1L594.4,49.1z"/>
	<polygon class="st1" points="677,84.3 676.9,72 652.2,72.1 652,24 638.6,24.1 639,84.5 	"/>
	<polygon class="st1" points="729.1,84.3 729.1,72.1 699.8,72.2 699.7,59.9 725.9,59.8 725.9,47.5 699.7,47.6 699.6,36.4 
		727.4,36.2 727.3,23.9 686.2,24.1 686.5,84.6 	"/>
	<path class="st1" d="M784.2,76.6c3.1-2.5,5.6-5.7,7.4-9.4c1.8-3.7,2.7-8.1,2.7-12.9c0-5.5-1-10.2-2.9-14.1c-1.9-3.9-4.5-7-7.8-9.4
		c-3.2-2.4-7.1-4.1-11.4-5.2c-4.4-1-9-1.6-13.8-1.5l-20,0.1l0.3,60.4l21.8-0.1c4.5,0,8.8-0.7,12.9-2C777.4,81.1,781,79.1,784.2,76.6
		z M758.9,72.1l-6.9,0l-0.2-35.8l7.9,0c2.8,0,5.5,0.3,8,1c2.5,0.7,4.8,1.8,6.6,3.2c1.9,1.4,3.4,3.2,4.5,5.4c1.1,2.2,1.7,4.8,1.7,7.7
		c0,3.4-0.5,6.3-1.6,8.7c-1.1,2.4-2.6,4.3-4.6,5.7s-4.2,2.5-6.9,3.2C764.8,71.8,762,72.1,758.9,72.1z"/>
	<path class="st1" d="M837.9,48.7l0.1,12.3l10.9-0.1l0.1,9.8c-1.2,0.7-2.9,1.4-5,2s-4.6,1-7.5,1c-2.9,0-5.4-0.4-7.7-1.4
		c-2.3-1-4.3-2.3-5.9-4s-2.9-3.8-3.8-6.1c-0.9-2.3-1.3-4.9-1.4-7.8c0-2.8,0.4-5.4,1.3-7.8c0.9-2.4,2.1-4.5,3.8-6.2
		c1.6-1.8,3.6-3.1,5.9-4.1c2.3-1,4.9-1.5,7.7-1.5c3.4,0,6.3,0.4,8.5,1.4c2.3,1,4.3,2.4,6.2,4.3l9.3-10.3c-3.1-2.8-6.7-4.8-10.7-6
		c-4.1-1.2-8.5-1.7-13.4-1.7c-4.7,0-9.1,0.8-13.1,2.3c-4,1.5-7.4,3.6-10.3,6.4c-2.9,2.8-5.1,6.1-6.8,10.1c-1.6,3.9-2.4,8.3-2.3,13.1
		c0,4.8,0.9,9.2,2.5,13.1s3.9,7.3,6.8,10c2.9,2.7,6.4,4.8,10.3,6.3c4,1.5,8.4,2.2,13.1,2.1c4.4,0,8.8-0.5,13.1-1.4
		c4.3-0.9,8.4-2.4,12.3-4.5l-0.2-31.6L837.9,48.7z"/>
	<polygon class="st1" points="913.8,82.9 913.8,70.7 884.5,70.8 884.4,58.5 910.6,58.4 910.6,46.1 884.3,46.2 884.3,35 912.1,34.8 
		912,22.5 870.9,22.8 871.2,83.2 	"/>
	<path class="st1" d="M936.7,83.1l-0.1-24.1l6.6,0L955.9,83l16-0.1l-15.5-25.5c4.3-0.8,7.5-2.7,9.7-5.7c2.2-3,3.3-6.6,3.3-10.9
		c0-3.5-0.7-6.5-1.9-8.8c-1.2-2.3-2.9-4.2-5-5.6c-2.1-1.4-4.5-2.4-7.3-2.9c-2.8-0.6-5.7-0.9-8.7-0.9l-23.4,0.1l0.3,60.4H936.7z
		 M945.2,33.8c1.2,0,2.4,0.1,3.7,0.2c1.2,0.1,2.4,0.5,3.3,1c1,0.5,1.8,1.2,2.4,2.1c0.6,0.9,1,2.1,1,3.7c0,1.6-0.4,2.9-1,3.8
		c-0.7,0.9-1.6,1.6-2.7,2s-2.3,0.7-3.6,0.8c-1.3,0.1-2.6,0.1-3.8,0.1l-7.9,0l-0.1-13.7L945.2,33.8z"/>
	<path class="st0" d="M430.6,253.4l-10.8-27.3h-60.8l-10.8,27.3h-17.4l49.2-122.1H399l49,122.1H430.6z M389.5,146.9l-25.8,65.9h51.8
		L389.5,146.9z"/>
	<path class="st0" d="M534.6,253.4l-30.9-48.5h-24.5v48.5H464V131.4h49c22.3,0,38.4,14.3,38.4,36.8c0,21.9-15.2,34.1-31.9,35.5
		l33,49.8L534.6,253.4L534.6,253.4z M535.7,168.2c0-13.9-10.1-23.3-24.5-23.3h-32v46.7h32C525.6,191.6,535.7,181.9,535.7,168.2z"/>
	<path class="st0" d="M575.5,253.4V131.4h15.2v122.1L575.5,253.4L575.5,253.4z"/>
	<path class="st0" d="M619.2,253.4V131.4h80v13.5h-64.8v39.3h63.5v13.5h-63.5v42.1h64.8v13.5L619.2,253.4L619.2,253.4z"/>
	<path class="st0" d="M716,236.3l9.2-11.7c7.9,9.2,21.1,17.6,38.2,17.6c21.8,0,28.7-11.7,28.7-21.2c0-31.5-72.3-13.9-72.3-57.5
		c0-20.1,17.9-34.1,42.1-34.1c18.5,0,33,6.4,43.2,17.2l-9.2,11.2c-9.2-10.3-21.9-14.6-35.3-14.6c-14.5,0-25.1,7.9-25.1,19.4
		c0,27.5,72.3,11.7,72.3,57.3c0,17.6-12.1,35.9-45,35.9C741.8,255.6,726.1,247.6,716,236.3z"/>
</g>
</svg>
