<svg xmlns="http://www.w3.org/2000/svg" role="img" viewBox="-7.03 -7.03 365.82 115.82"><path d="M332 0h1v1h-1zm1 0h4v1h-4zm4 0h1v1h-1zm1 0h1v1h-1zM18 1h1v1h-1zm1 0h1v1h-1zm1 0h5v1h-5zm5 0h1v1h-1zm1 0h1v1h-1zm33 0h1v1h-1zm1 0h16v1H60zm16 0h1v1h-1zm1 0h2v1h-2zm2 0h1v1h-1zm1 0h1v1h-1zm1 0h1v1h-1zm29 0h1v1h-1zm1 0h1v1h-1zm1 0h4v1h-4zm4 0h1v1h-1zm1 0h1v1h-1zm16 0h1v1h-1zm1 0h1v1h-1zm1 0h5v1h-5zm5 0h1v1h-1zm1 0h1v1h-1zm30 0h1v1h-1zm1 0h5v1h-5zm5 0h1v1h-1zm1 0h1v1h-1zm1 0h1v1h-1zm32 0h1v1h-1zm1 0h1v1h-1zm1 0h5v1h-5zm5 0h1v1h-1zm1 0h1v1h-1zm24 0h1v1h-1zm1 0h5v1h-5zm5 0h1v1h-1zm1 0h1v1h-1zm1 0h1v1h-1zm17 0h1v1h-1zm1 0h6v1h-6zm6 0h1v1h-1zm1 0h1v1h-1zm1 0h1v1h-1zm19 0h1v1h-1zm1 0h6v1h-6zm6 0h1v1h-1zm1 0h1v1h-1zm24 0h1v1h-1zm1 0h1v1h-1zm1 0h1v1h-1zm1 0h1v1h-1zm1 0h7v5h-7zm7 0h1v5h-1zm1 0h1v1h-1zm1 0h1v1h-1zm1 0h1v1h-1zm1 0h1v1h-1zM18 2h1v1h-1zm1 0h7v7h-7zm7 0h1v17h-1zm1 0h1v1h-1zm32 0h1v42h-1zm1 0h21v5H60zm21 0h1v6h-1zm1 0h1v1h-1zm1 0h1v1h-1zm1 0h1v1h-1zm26 0h1v42h-1zm1 0h6v43h-6zm6 0h1v42h-1zm16 0h1v1h-1zm1 0h6v2h-6zm6 0h1v1h-1zm1 0h1v1h-1zm29 0h1v1h-1zm1 0h7v7h-7zm7 0h1v16h-1zm1 0h1v1h-1zm32 0h1v42h-1zm1 0h7v15h-7zm7 0h1v16h-1zm1 0h1v1h-1zm22 0h1v1h-1zm1 0h7v15h-7zm7 0h1v43h-1zm1 0h1v42h-1zm17 0h1v1h-1zm1 0h7v1h-7zm7 0h1v15h-1zm1 0h1v1h-1zm18 0h1v1h-1zm1 0h7v2h-7zm7 0h1v1h-1zm1 0h1v1h-1zm22 0h1v1h-1zm1 0h1v1h-1z"/><path d="M328 2h15v4h-15zm15 0h1v11h-1zm1 0h1v1h-1zm1 0h1v1h-1zM18 3h1v1h-1zm9 0h1v1h-1zm55 0h2v6h-2zm2 0h1v22h-1zm1 0h1v1h-1zm1 0h1v1h-1zm46 0h1v1h-1zm1 0h6v2h-6zm7 0h1v1h-1zm1 0h1v1h-1zm29 0h1v1h-1zm9 0h1v18h-1zm1 0h1v1h-1zm40 0h1v1h-1zm22 0h1v1h-1zm27 0h1v1h-1zm1 0h6v1h-6zm7 0h1v1h-1zm18 0h1v1h-1zm8 0h1v1h-1zm21 0h1v1h-1zm1 0h1v1h-1z"/><path d="M326 3h19v3h-19zm19 0h1v10h-1zm1 0h1v1h-1zM17 4h1v1h-1zm1 0h9v5h-9zm9 0h1v18h-1zm1 0h1v1h-1zm57 0h1v20h-1zm1 0h1v1h-1zm1 0h1v1h-1zm44 0h1v1h-1zm1 0h7v1h-7zm7 0h1v1h-1zm1 0h1v1h-1zm30 0h1v1h-1zm10 0h1v1h-1zm40 0h1v17h-1zm1 0h1v1h-1zm20 0h1v1h-1zm1 0h1v1h-1zm27 0h1v1h-1zm1 0h7v1h-7zm7 0h1v15h-1zm1 0h1v1h-1zm16 0h1v1h-1zm1 0h7v2h-7zm7 0h1v1h-1zm1 0h1v1h-1zm20 0h1v1h-1zm1 0h1v1h-1z"/><path d="M325 4h21v2h-21zm21 0h1v9h-1zm1 0h1v1h-1zm1 0h1v1h-1zM17 5h1v1h-1zm11 0h1v1h-1zm58 0h1v18h-1zm1 0h1v18h-1zm1 0h1v1h-1zm42 0h1v1h-1zm1 0h1v1h-1zm1 0h6v1h-6zm6 0h1v1h-1zm1 0h1v1h-1zm30 0h1v1h-1zm1 0h9v4h-9zm10 0h1v1h-1zm41 0h1v1h-1zm20 0h1v1h-1zm1 0h8v12h-8zm28 0h1v1h-1zm1 0h6v1h-6zm7 0h1v1h-1zm16 0h1v1h-1zm8 0h1v1h-1zm20 0h1v1h-1zm1 0h1v1h-1z"/><path d="M324 5h23v1h-23zm23 0h1v8h-1zm1 0h1v1h-1zM17 6h1v1h-1zm11 0h1v1h-1zm60 0h1v16h-1zm1 0h1v1h-1zm41 0h1v1h-1zm1 0h6v2h-6zm6 0h1v1h-1zm1 0h1v1h-1zm31 0h1v1h-1zm11 0h1v18h-1zm1 0h1v1h-1zm40 0h1v1h-1zm20 0h1v1h-1zm29 0h1v1h-1zm1 0h7v1h-7zm7 0h1v15h-1zm1 0h1v1h-1zm14 0h1v1h-1zm1 0h1v1h-1zm1 0h6v3h-6zm6 0h1v1h-1zm1 0h1v1h-1zm19 0h1v1h-1zm1 0h1v1h-1z"/><path d="M323 6h25v1h-25zm25 0h1v7h-1zm1 0h1v1h-1zM16 7h1v1h-1zm1 0h11v2H17zm11 0h1v18h-1zm1 0h1v1h-1zm31 0h28v1H60zm29 0h1v1h-1zm40 0h1v1h-1zm1 0h6v2h-6zm7 0h1v1h-1zm1 0h1v1h-1zm31 0h1v1h-1zm12 0h1v1h-1zm40 0h1v17h-1zm1 0h1v1h-1zm18 0h1v1h-1zm1 0h9v10h-9zm30 0h1v1h-1zm1 0h6v1h-6zm7 0h1v1h-1zm14 0h1v1h-1zm1 0h6v4h-6zm7 0h1v1h-1zm1 0h1v1h-1zm19 0h1v1h-1zm1 0h8v1h-8zm8 0h1v1h-1zm1 0h1v1h-1zm1 0h1v1h-1zm1 0h1v1h-1zm1 0h2v1h-2zm2 0h1v1h-1zm1 0h1v1h-1zm1 0h1v1h-1zm1 0h1v1h-1zm1 0h8v1h-8zm9 0h1v1h-1zm1 0h1v1h-1zM16 8h1v1h-1zm13 0h1v1h-1zm31 0h5v37h-5zm5 0h1v37h-1zm1 0h1v12h-1zm12 0h1v1h-1zm1 0h1v1h-1zm1 0h1v1h-1zm1 0h8v1h-8zm8 0h1v12h-1zm1 0h1v1h-1zm38 0h1v1h-1z"/><path d="M129 8h7v1h-7zm7 0h1v1h-1zm1 0h1v1h-1zm31 0h1v1h-1zm1 0h11v1h-11zm12 0h1v1h-1zm41 0h1v1h-1zm18 0h1v1h-1zm31 0h1v1h-1zm1 0h7v1h-7zm7 0h1v15h-1zm1 0h1v1h-1zm13 0h1v1h-1zm8 0h1v1h-1zm19 0h1v1h-1zm1 0h8v1h-8zm8 0h1v1h-1zm1 0h1v1h-1zm1 0h1v1h-1zm9 0h1v1h-1zm1 0h1v1h-1zm1 0h7v1h-7zm7 0h1v5h-1zm1 0h1v1h-1zM16 9h1v1h-1zm1 0h11v1H17zm12 0h1v1h-1zm52 0h1v1h-1zm1 0h7v1h-7zm8 0h1v1h-1zm37 0h1v1h-1zm1 0h1v1h-1zm1 0h6v1h-6zm6 0h1v1h-1zm1 0h1v1h-1zm32 0h1v1h-1zm1 0h12v1h-12zm12 0h1v18h-1zm1 0h1v1h-1zm40 0h1v1h-1zm18 0h1v1h-1zm32 0h1v1h-1zm1 0h6v1h-6zm7 0h1v1h-1zm12 0h1v1h-1zm1 0h7v2h-7zm7 0h1v1h-1zm1 0h1v1h-1zm19 0h1v1h-1zm1 0h6v8h-6zm6 0h1v2h-1zm1 0h1v1h-1zm1 0h1v1h-1zm12 0h1v1h-1zm1 0h7v1h-7zm8 0h1v1h-1zM15 10h1v1h-1zm1 0h5v5h-5zm5 0h8v1h-8zm8 0h1v24h-1zm1 0h1v1h-1zm52 0h1v1h-1zm1 0h7v1h-7zm7 0h1v8h-1zm1 0h1v1h-1zm36 0h1v1h-1zm1 0h6v2h-6zm6 0h1v1h-1zm1 0h1v1h-1zm33 0h1v1h-1zm1 0h5v3h-5zm5 0h7v1h-7zm8 0h1v1h-1zm40 0h1v16h-1zm1 0h1v1h-1zm16 0h1v1h-1zm1 0h10v7h-10zm32 0h1v1h-1zm1 0h6v1h-6zm7 0h1v1h-1zm12 0h1v1h-1zm8 0h1v1h-1zm20 0h1v1h-1zm8 0h1v1h-1zm14 0h1v1h-1zm2 0h5v3h-5zm6 0h1v2h-1zM15 11h1v1h-1zm6 0h1v1h-1zm1 0h1v1h-1zm1 0h1v1h-1zm1 0h5v2h-5zm6 0h1v1h-1zm53 0h1v1h-1zm8 0h1v1h-1zm35 0h1v1h-1z"/><path d="M127 11h6v2h-6zm7 0h1v1h-1zm1 0h1v1h-1zm32 0h1v1h-1zm1 0h5v5h-5zm6 0h1v1h-1zm1 0h1v1h-1zm1 0h5v1h-5zm6 0h1v1h-1zm41 0h1v1h-1zm16 0h1v1h-1zm33 0h1v1h-1zm1 0h1v1h-1zm1 0h6v2h-6zm6 0h1v14h-1zm1 0h1v1h-1zm10 0h1v1h-1zm1 0h7v2h-7zm7 0h1v1h-1zm1 0h1v1h-1zm20 0h1v1h-1zm7 0h1v1h-1zm15 0h1v1h-1zM15 12h1v1h-1zm6 0h1v1h-1zm1 0h1v1h-1zm1 0h1v1h-1zm7 0h1v1h-1zm53 0h1v1h-1zm8 0h1v4h-1zm34 0h1v1h-1zm1 0h1v1h-1zm7 0h1v1h-1zm1 0h1v1h-1zm33 0h1v1h-1zm7 0h1v1h-1zm1 0h1v1h-1zm1 0h6v1h-6zm6 0h1v22h-1zm1 0h1v1h-1zm40 0h1v1h-1zm16 0h1v1h-1zm34 0h1v1h-1zm8 0h1v1h-1zm10 0h1v1h-1zm8 0h1v1h-1zm21 0h1v1h-1zm7 0h1v1h-1zm15 0h1v1h-1zm8 0h1v1h-1zM14 13h1v1h-1zm1 0h5v5h-5zm6 0h1v1h-1zm2 0h1v1h-1zm1 0h6v1h-6zm6 0h1v21h-1zm1 0h1v1h-1zm52 0h1v1h-1zm42 0h1v1h-1zm1 0h6v1h-6zm6 0h1v1h-1zm1 0h1v1h-1zm33 0h1v1h-1z"/><path d="M167 13h6v3h-6zm6 0h1v1h-1zm1 0h1v1h-1zm2 0h1v1h-1zm1 0h5v2h-5zm6 0h1v1h-1zm40 0h1v16h-1zm1 0h1v1h-1zm14 0h1v1h-1zm1 0h11v4h-11zm34 0h1v1h-1zm1 0h7v1h-7zm7 0h1v14h-1zm1 0h1v1h-1zm9 0h1v1h-1zm1 0h6v2h-6zm6 0h1v1h-1zm1 0h1v1h-1zm21 0h1v1h-1zm7 0h1v1h-1zm15 0h1v1h-1zm1 0h6v1h-6zm6 0h1v1h-1zm1 0h1v1h-1zM14 14h1v1h-1zm7 0h1v1h-1zm3 0h1v1h-1zm1 0h5v2h-5zm6 0h1v1h-1zm93 0h1v1h-1zm1 0h6v2h-6zm6 0h1v1h-1zm1 0h1v1h-1zm34 0h1v1h-1zm7 0h1v1h-1zm3 0h1v1h-1zm7 0h1v1h-1zm41 0h1v1h-1zm14 0h1v1h-1zm36 0h1v1h-1zm1 0h6v1h-6zm7 0h1v1h-1zm8 0h1v1h-1z"/><path d="M291 14h6v3h-6zm7 0h1v1h-1zm22 0h1v1h-1zm7 0h1v8h-1zm1 0h1v1h-1zm15 0h1v1h-1zm1 0h5v1h-5zm5 0h1v1h-1zM13 15h1v1h-1zm1 0h6v3h-6zm6 0h1v1h-1zm1 0h1v1h-1zm3 0h1v1h-1zm7 0h1v1h-1zm52 0h1v1h-1zm40 0h1v1h-1zm1 0h6v2h-6zm7 0h1v1h-1zm1 0h1v1h-1zm34 0h1v1h-1zm7 0h1v1h-1zm3 0h1v1h-1zm1 0h6v1h-6zm6 0h1v19h-1zm1 0h1v1h-1zm40 0h1v1h-1zm1 0h1v1h-1zm13 0h1v1h-1zm36 0h1v1h-1zm1 0h6v1h-6zm7 0h1v1h-1zm1 0h1v1h-1zm7 0h1v1h-1zm7 0h1v1h-1zm1 0h1v1h-1zm22 0h1v1h-1zm8 0h1v1h-1zM13 16h1v1h-1zm7 0h1v1h-1zm4 0h1v1h-1zm1 0h6v1h-6zm6 0h1v18h-1zm1 0h1v1h-1zm51 0h1v1h-1zm8 0h1v1h-1zm31 0h1v1h-1zm1 0h1v1h-1zm7 0h1v1h-1zm1 0h1v1h-1zm34 0h1v1h-1zm1 0h6v3h-6zm6 0h1v1h-1zm1 0h1v1h-1zm4 0h1v1h-1zm7 0h1v1h-1zm40 0h1v16h-1zm1 0h1v1h-1zm12 0h1v1h-1zm1 0h12v1h-12zm37 0h1v1h-1zm7 0h1v14h-1zm1 0h1v1h-1zm6 0h1v1h-1z"/><path d="M290 16h6v3h-6zm7 0h1v1h-1zm23 0h1v1h-1zm8 0h1v6h-1zm1 0h1v1h-1zm1 0h1v1h-1zM13 17h1v1h-1zm7 0h1v1h-1zm5 0h1v1h-1zm7 0h1v1h-1zm51 0h1v1h-1zm8 0h1v1h-1zm31 0h1v1h-1zm1 0h6v1h-6zm6 0h1v1h-1zm1 0h1v1h-1zm35 0h1v1h-1zm7 0h1v1h-1zm5 0h1v1h-1zm7 0h1v1h-1zm28 0h12v1h-12zm13 0h1v1h-1zm12 0h1v1h-1zm1 0h12v1h-12zm37 0h1v1h-1zm1 0h6v1h-6zm7 0h1v1h-1zm6 0h1v1h-1zm7 0h1v1h-1zm1 0h1v1h-1zm23 0h1v1h-1z"/><path d="M321 17h8v1h-8zm8 0h1v6h-1zm1 0h1v1h-1zm1 0h1v1h-1zm1 0h1v1h-1zM12 18h1v1h-1zm1 0h6v3h-6zm6 0h1v1h-1zm1 0h1v1h-1zm5 0h1v1h-1zm7 0h1v1h-1zm50 0h1v1h-1zm1 0h1v1h-1zm7 0h1v1h-1zm1 0h1v1h-1zm30 0h1v1h-1zm1 0h6v2h-6zm6 0h1v1h-1zm1 0h1v1h-1zm36 0h1v1h-1zm7 0h1v1h-1zm5 0h1v1h-1zm1 0h6v1h-6zm6 0h1v18h-1zm1 0h1v1h-1zm27 0h5v27h-5zm5 0h8v1h-8zm8 0h1v16h-1zm1 0h1v1h-1zm10 0h1v1h-1zm1 0h6v3h-6zm6 0h7v1h-7zm33 0h1v1h-1zm7 0h1v27h-1zm1 0h1v1h-1zm4 0h1v1h-1zm1 0h6v3h-6zm7 0h1v1h-1zm25 0h1v1h-1z"/><path d="M322 18h9v1h-9zm9 0h1v6h-1zm1 0h1v1h-1zm1 0h1v1h-1zm1 0h1v1h-1zM12 19h1v1h-1zm7 0h1v1h-1zm6 0h1v1h-1zm1 0h6v1h-6zm6 0h1v18h-1zm1 0h1v1h-1zm49 0h1v1h-1zm1 0h6v3h-6zm7 0h1v1h-1zm30 0h1v1h-1zm1 0h6v2h-6zm7 0h1v1h-1zm1 0h1v1h-1zm35 0h1v1h-1zm1 0h6v3h-6zm6 0h1v1h-1zm1 0h1v1h-1zm6 0h1v1h-1zm7 0h1v1h-1zm32 0h1v26h-1zm1 0h1v25h-1zm1 0h1v1h-1zm7 0h1v1h-1zm10 0h1v1h-1zm7 0h1v1h-1zm1 0h1v1h-1zm1 0h5v26h-5zm31 0h1v1h-1zm1 0h6v1h-6zm7 0h1v1h-1zm4 0h1v1h-1zm7 0h1v1h-1zm1 0h1v1h-1zm25 0h1v1h-1zm1 0h1v1h-1z"/><path d="M323 19h11v1h-11zm11 0h1v6h-1zm1 0h1v1h-1zm1 0h1v1h-1zm1 0h1v1h-1zM12 20h1v1h-1zm7 0h1v1h-1zm7 0h1v1h-1zm7 0h1v1h-1zm33 0h1v1h-1zm14 0h1v1h-1zm1 0h1v1h-1zm1 0h7v2h-7zm7 0h1v1h-1zm1 0h1v1h-1zm29 0h1v1h-1zm1 0h1v1h-1zm7 0h1v1h-1zm1 0h1v1h-1zm36 0h1v1h-1zm7 0h1v1h-1zm7 0h1v1h-1zm7 0h1v1h-1zm34 0h1v1h-1zm7 0h1v1h-1zm10 0h1v1h-1zm7 0h1v1h-1zm1 0h1v24h-1zm33 0h1v1h-1zm7 0h1v25h-1zm1 0h1v1h-1zm3 0h1v1h-1zm7 0h1v1h-1zm27 0h1v1h-1zm1 0h1v1h-1z"/><path d="M324 20h13v1h-13zm13 0h1v6h-1zm1 0h1v1h-1zm1 0h1v1h-1zm1 0h1v1h-1zM11 21h1v1h-1zm1 0h6v3h-6zm6 0h1v1h-1zm1 0h1v1h-1zm7 0h1v1h-1zm7 0h1v1h-1zm33 0h1v1h-1zm1 0h10v1H67zm10 0h1v1h-1zm1 0h1v1h-1zm1 0h1v1h-1zm1 0h8v2h-8zm9 0h1v1h-1zm1 0h1v1h-1zm29 0h1v1h-1zm1 0h6v5h-6zm6 0h1v1h-1zm1 0h1v1h-1zm37 0h1v1h-1zm7 0h1v1h-1zm7 0h1v1h-1zm1 0h6v1h-6zm6 0h1v18h-1zm1 0h1v1h-1zm33 0h1v1h-1zm1 0h6v1h-6zm6 0h1v16h-1zm1 0h1v1h-1zm8 0h1v1h-1zm1 0h6v3h-6zm6 0h1v1h-1zm1 0h1v1h-1zm34 0h1v1h-1zm1 0h6v1h-6zm7 0h1v1h-1zm2 0h1v1h-1zm1 0h6v2h-6zm6 0h1v1h-1zm1 0h1v1h-1zm28 0h1v1h-1zm1 0h1v1h-1z"/><path d="M325 21h15v1h-15zm15 0h1v6h-1zm1 0h1v1h-1zm1 0h1v1h-1zm1 0h1v1h-1zM11 22h1v1h-1zm7 0h1v1h-1zm8 0h1v1h-1zm1 0h6v1h-6zm6 0h1v18h-1zm1 0h1v1h-1zm32 0h22v1H66zm22 0h1v1h-1zm1 0h1v1h-1zm29 0h1v1h-1zm1 0h6v2h-6zm7 0h1v1h-1zm37 0h1v1h-1zm1 0h6v3h-6zm6 0h1v1h-1zm1 0h1v1h-1zm8 0h1v1h-1zm7 0h1v1h-1zm34 0h1v1h-1zm7 0h1v1h-1zm8 0h1v1h-1zm7 0h1v1h-1zm36 0h1v1h-1zm7 0h1v1h-1zm2 0h1v1h-1zm7 0h1v1h-1zm1 0h1v1h-1zm30 0h1v1h-1zm1 0h1v1h-1z"/><path d="M327 22h16v1h-16zm16 0h1v7h-1zm1 0h1v1h-1zm1 0h1v1h-1zM11 23h1v1h-1zm7 0h1v1h-1zm9 0h1v1h-1zm7 0h1v1h-1zm32 0h21v1H66zm21 0h1v1h-1zm1 0h1v1h-1zm30 0h1v1h-1zm8 0h1v1h-1zm37 0h1v1h-1zm7 0h1v1h-1zm9 0h1v1h-1zm7 0h1v1h-1zm34 0h1v1h-1zm7 0h1v1h-1zm8 0h1v1h-1zm7 0h2v1h-2zm36 0h1v1h-1zm1 0h6v1h-6zm6 0h8v3h-8zm8 0h1v1h-1zm1 0h1v1h-1zm32 0h1v1h-1zm1 0h1v1h-1zm1 0h1v1h-1z"/><path d="M329 23h16v1h-16zm16 0h1v20h-1zm1 0h1v1h-1zm1 0h1v1h-1zM10 24h1v1h-1zm1 0h6v3h-6zm6 0h1v1h-1zm1 0h1v1h-1zm9 0h1v1h-1zm7 0h1v1h-1zm32 0h19v1H66zm19 0h1v1h-1zm1 0h1v1h-1zm1 0h1v1h-1zm31 0h1v1h-1zm1 0h7v1h-7zm7 0h1v9h-1zm1 0h1v1h-1zm36 0h1v1h-1zm7 0h1v1h-1zm9 0h1v1h-1zm1 0h6v1h-6zm6 0h1v18h-1zm1 0h1v1h-1zm33 0h1v1h-1zm1 0h6v1h-6zm6 0h1v16h-1zm1 0h1v1h-1zm6 0h1v1h-1zm1 0h6v2h-6zm6 0h1v1h-1zm1 0h1v1h-1zm37 0h1v1h-1zm14 0h1v1h-1zm1 0h1v1h-1zm34 0h1v1h-1zm1 0h1v1h-1zm1 0h1v1h-1z"/><path d="M331 24h15v1h-15zm15 0h1v19h-1zm1 0h1v1h-1zm1 0h1v1h-1zM10 25h1v1h-1zm7 0h1v1h-1zm10 0h1v1h-1zm1 0h6v1h-6zm6 0h1v18h-1zm1 0h1v1h-1zm31 0h18v1H66zm18 0h1v1h-1zm1 0h1v1h-1zm1 0h1v1h-1zm32 0h1v1h-1zm1 0h1v1h-1zm8 0h1v1h-1zm1 0h1v1h-1zm34 0h1v1h-1zm1 0h6v9h-6zm6 0h1v1h-1zm1 0h1v1h-1zm10 0h1v1h-1zm7 0h1v1h-1zm34 0h1v1h-1zm7 0h1v1h-1zm6 0h1v1h-1zm7 0h1v1h-1zm38 0h1v1h-1zm1 0h12v1h-12zm13 0h1v1h-1zm38 0h1v1h-1zm1 0h1v1h-1zm1 0h1v1h-1z"/><path d="M334 25h13v1h-13zm13 0h1v17h-1zm1 0h1v1h-1zm1 0h1v1h-1zM10 26h1v1h-1zm7 0h1v1h-1zm11 0h1v1h-1zm7 0h1v1h-1zm31 0h15v1H66zm15 0h1v13h-1zm1 0h1v1h-1zm1 0h1v1h-1zm1 0h1v1h-1zm35 0h1v1h-1zm1 0h7v1h-7zm7 0h1v9h-1zm1 0h1v1h-1zm34 0h1v1h-1zm7 0h1v1h-1zm11 0h1v1h-1zm7 0h1v1h-1zm34 0h1v1h-1zm1 0h5v1h-5zm6 0h1v1h-1zm6 0h1v1h-1zm1 0h5v3h-5zm5 0h1v1h-1zm1 0h1v1h-1zm38 0h1v1h-1zm1 0h1v1h-1zm5 0h7v2h-7zm7 0h1v1h-1zm1 0h1v1h-1zm41 0h1v1h-1zm1 0h1v1h-1zm1 0h1v1h-1z"/><path d="M337 26h11v1h-11zm11 0h1v15h-1zm1 0h1v1h-1zm1 0h1v1h-1zM9 27h1v1H9zm1 0h6v7h-6zm6 0h1v7h-1zm1 0h1v1h-1zm11 0h1v1h-1zm7 0h1v1h-1zm31 0h1v1h-1zm1 0h5v1h-5zm5 0h1v1h-1zm1 0h1v1h-1zm1 0h6v1h-6zm6 0h1v10h-1zm2 0h1v1h-1zm38 0h1v1h-1zm1 0h7v1h-7zm7 0h1v9h-1zm1 0h1v1h-1zm33 0h1v1h-1zm7 0h1v1h-1zm11 0h1v1h-1zm1 0h6v7h-6zm6 0h1v17h-1zm1 0h1v1h-1zm34 0h1v1h-1zm6 0h1v15h-1zm1 0h1v1h-1zm4 0h1v1h-1zm1 0h5v5h-5zm6 0h1v1h-1zm1 0h1v1h-1zm39 0h1v1h-1zm1 0h10v1h-10zm11 0h1v1h-1zm45 0h1v1h-1zm1 0h1v1h-1zm1 0h1v1h-1z"/><path d="M340 27h9v1h-9zm9 0h1v13h-1zm1 0h1v1h-1zM9 28h1v1H9zm8 0h10v1H17zm10 0h1v1h-1zm1 0h1v1h-1zm7 0h1v17h-1zm1 0h1v1h-1zm30 0h1v16h-1zm8 0h1v1h-1zm1 0h6v1h-6zm7 0h1v1h-1zm39 0h1v1h-1zm1 0h7v1h-7zm7 0h1v9h-1zm1 0h1v1h-1zm31 0h1v1h-1zm1 0h6v6h-6zm7 0h1v1h-1zm1 0h10v1h-10zm10 0h1v1h-1zm8 0h1v1h-1zm34 0h1v1h-1zm7 0h1v1h-1zm4 0h1v1h-1zm7 0h1v1h-1zm40 0h1v1h-1zm1 0h1v1h-1zm4 0h6v2h-6zm6 0h1v1h-1zm1 0h1v1h-1zm48 0h1v1h-1zm1 0h1v1h-1z"/><path d="M342 28h8v1h-8zm8 0h1v10h-1zm1 0h1v1h-1zM9 29h1v1H9zm8 0h18v5H17zm19 0h1v1h-1zm38 0h1v1h-1zm1 0h7v1h-7zm7 0h1v12h-1zm1 0h1v1h-1zm38 0h1v1h-1zm1 0h1v1h-1zm1 0h6v1h-6zm7 0h1v1h-1zm1 0h1v1h-1zm30 0h1v1h-1zm8 0h18v5h-18zm19 0h1v1h-1zm34 0h1v1h-1zm1 0h6v1h-6zm6 0h1v15h-1zm1 0h1v1h-1zm3 0h1v1h-1zm6 0h1v1h-1zm1 0h1v1h-1zm41 0h1v1h-1zm10 0h1v1h-1zm50 0h1v1h-1zm1 0h1v1h-1zm1 0h7v1h-7zm8 0h1v1h-1zM8 30h1v1H8z"/><path d="M9 30h26v4H9zm27 0h1v1h-1zm39 0h1v1h-1zm1 0h6v1h-6zm7 0h1v1h-1zm39 0h1v1h-1zm1 0h1v1h-1zm1 0h6v1h-6zm6 0h1v9h-1zm1 0h1v1h-1zm1 0h1v1h-1zm29 0h1v1h-1zm27 0h1v15h-1zm1 0h1v1h-1zm34 0h1v1h-1zm7 0h2v1h-2zm2 0h1v1h-1zm1 0h5v5h-5zm6 0h1v1h-1zm42 0h1v1h-1zm1 0h8v1h-8zm8 0h1v1h-1zm1 0h1v1h-1zm52 0h1v1h-1zm1 0h6v1h-6zm7 0h1v1h-1zM8 31h1v1H8zm28 0h1v14h-1zm1 0h1v1h-1zm38 0h1v1h-1zm1 0h1v1h-1zm1 0h6v1h-6zm6 0h1v11h-1zm1 0h1v1h-1zm39 0h1v1h-1z"/><path d="M124 31h7v1h-7zm7 0h1v9h-1zm1 0h1v1h-1zm28 0h1v1h-1zm1 0h27v3h-27zm28 0h1v1h-1zm34 0h1v1h-1zm7 0h1v1h-1zm2 0h1v1h-1zm7 0h1v1h-1zm43 0h1v1h-1zm3 0h4v14h-4zm4 0h1v14h-1zm1 0h1v1h-1zm53 0h1v1h-1zm1 0h7v1h-7zm7 0h1v3h-1zM8 32h1v1H8zm29 0h1v1h-1zm39 0h1v1h-1zm1 0h6v1h-6zm7 0h1v1h-1zm1 0h1v1h-1zm39 0h1v1h-1z"/><path d="M125 32h7v1h-7zm7 0h1v9h-1zm1 0h1v1h-1zm27 0h1v1h-1zm29 0h1v1h-1zm34 0h1v1h-1zm1 0h6v1h-6zm6 0h8v3h-8zm8 0h1v1h-1zm1 0h1v1h-1zm43 0h1v12h-1zm8 0h1v12h-1zm29 0h1v1h-1zm1 0h5v1h-5zm5 0h1v1h-1zm1 0h1v1h-1zm18 0h1v1h-1zM7 33h1v1H7zm1 0h28v1H8zm29 0h1v1h-1zm1 0h1v1h-1zm39 0h1v1h-1zm1 0h6v1h-6zm6 0h1v11h-1zm1 0h1v1h-1zm40 0h1v1h-1z"/><path d="M126 33h7v1h-7zm7 0h1v9h-1zm1 0h1v1h-1zm26 0h1v1h-1zm29 0h1v12h-1zm1 0h1v1h-1zm34 0h1v1h-1zm14 0h1v1h-1zm81 0h6v2h-6zm6 0h1v10h-1zm1 0h1v1h-1zm18 0h1v1h-1zM7 34h1v1H7zm1 0h29v1H8zm29 0h1v11h-1zm1 0h1v1h-1zm39 0h1v1h-1zm1 0h7v1h-7zm7 0h1v11h-1zm1 0h1v1h-1zm39 0h1v1h-1zm1 0h1v1h-1zm8 0h1v1h-1zm1 0h1v1h-1zm24 0h1v1h-1zm1 0h29v1h-29zm30 0h1v1h-1zm34 0h1v1h-1zm1 0h12v1h-12zm13 0h1v1h-1zm88 0h1v1h-1zm18 0h1v1h-1zm7 0h1v1h-1zM7 35h1v1H7zm1 0h5v4H8zm5 0h1v1h-1zm1 0h1v1h-1zm1 0h15v1H15zm15 0h1v1h-1zm1 0h1v1h-1zm7 0h1v1h-1zm40 0h1v1h-1zm1 0h6v1h-6zm7 0h1v1h-1zm40 0h1v1h-1z"/><path d="M127 35h7v1h-7zm7 0h1v9h-1zm1 0h1v1h-1zm24 0h1v1h-1zm1 0h5v5h-5zm5 0h1v2h-1zm1 0h1v1h-1zm1 0h15v1h-15zm15 0h1v1h-1zm1 0h1v1h-1zm7 0h1v1h-1zm1 0h1v1h-1zm34 0h1v1h-1zm5 0h7v2h-7zm7 0h1v1h-1zm1 0h1v1h-1zm81 0h7v1h-7zm7 0h1v9h-1zm1 0h1v1h-1zm17 0h1v1h-1zm7 0h1v1h-1zM6 36h1v1H6zm1 0h6v3H7zm6 0h1v1h-1zm1 0h1v1h-1zm17 0h1v1h-1zm7 0h1v9h-1zm1 0h1v1h-1zm39 0h1v1h-1zm1 0h1v1h-1zm7 0h1v9h-1zm1 0h1v1h-1zm40 0h1v1h-1z"/><path d="M128 36h7v1h-7zm7 0h1v9h-1zm1 0h1v1h-1zm23 0h1v1h-1zm7 0h1v1h-1zm17 0h1v1h-1zm1 0h6v1h-6zm6 0h1v9h-1zm1 0h1v1h-1zm34 0h1v1h-1zm12 0h1v1h-1zm82 0h1v1h-1zm1 0h6v2h-6zm7 0h1v1h-1zm16 0h1v1h-1zm1 0h6v4h-6zm7 0h1v1h-1zM6 37h1v1H6zm7 0h1v1h-1zm18 0h1v1h-1zm1 0h6v1h-6zm7 0h1v1h-1zm40 0h1v1h-1zm1 0h6v1h-6zm7 0h1v1h-1zm41 0h1v1h-1z"/><path d="M129 37h7v1h-7zm7 0h1v8h-1zm1 0h1v1h-1zm21 0h1v1h-1zm1 0h6v3h-6zm6 0h1v1h-1zm1 0h1v1h-1zm18 0h1v1h-1zm7 0h1v1h-1zm34 0h1v1h-1zm1 0h10v1h-10zm10 0h1v1h-1zm1 0h1v1h-1zm82 0h1v1h-1zm8 0h1v7h-1zm1 0h1v1h-1zm14 0h1v1h-1zm1 0h1v1h-1zm8 0h1v1h-1zM6 38h1v1H6zm7 0h1v1h-1zm19 0h1v1h-1zm7 0h1v1h-1zm40 0h1v1h-1zm1 0h1v1h-1zm7 0h1v7h-1zm1 0h1v1h-1zm40 0h1v1h-1zm1 0h1v1h-1zm8 0h1v1h-1zm1 0h1v1h-1zm20 0h1v1h-1zm7 0h1v1h-1zm19 0h1v1h-1zm7 0h1v7h-1zm1 0h1v1h-1zm34 0h1v1h-1zm4 0h5v5h-5zm5 0h1v2h-1zm1 0h1v1h-1zm83 0h1v1h-1z"/><path d="M320 38h8v1h-8zm8 0h1v6h-1zm1 0h1v1h-1zm1 0h1v1h-1zm11 0h1v1h-1zm1 0h1v1h-1zm1 0h7v2h-7zm7 0h1v1h-1zm1 0h1v1h-1zM5 39h1v1H5zm1 0h6v3H6zm6 0h1v1h-1zm1 0h1v1h-1zm19 0h1v1h-1zm7 0h1v6h-1zm1 0h1v1h-1zm40 0h1v1h-1zm1 0h6v1h-6zm7 0h1v1h-1zm1 0h1v1h-1zm40 0h1v1h-1zm1 0h7v1h-7zm7 0h1v6h-1zm1 0h1v1h-1zm1 0h1v1h-1zm19 0h1v1h-1zm7 0h1v1h-1zm19 0h1v1h-1zm1 0h6v1h-6zm7 0h1v1h-1zm34 0h1v1h-1zm10 0h1v1h-1zm84 0h1v1h-1z"/><path d="M321 39h8v1h-8zm8 0h1v6h-1zm1 0h1v1h-1zm1 0h1v1h-1zm1 0h1v1h-1zm6 0h1v1h-1zm1 0h1v1h-1zm1 0h1v1h-1zm1 0h8v2h-8zm9 0h1v1h-1zM5 40h1v1H5zm7 0h1v1h-1zm20 0h1v1h-1zm1 0h6v1h-6zm7 0h1v1h-1zm41 0h1v1h-1zm7 0h1v5h-1zm1 0h1v1h-1zm41 0h1v1h-1zm1 0h7v1h-7zm7 0h1v5h-1zm1 0h1v1h-1zm18 0h1v1h-1zm1 0h6v3h-6zm6 0h1v1h-1zm1 0h1v1h-1zm20 0h1v1h-1zm7 0h1v1h-1zm34 0h1v1h-1zm1 0h8v1h-8zm8 0h1v1h-1zm1 0h1v1h-1zm84 0h1v1h-1z"/><path d="M321 40h28v1h-28zm28 0h1v1h-1zm1 0h1v1h-1zM5 41h1v1H5zm7 0h1v1h-1zm21 0h1v1h-1zm7 0h1v1h-1zm41 0h1v1h-1zm1 0h7v1h-7zm7 0h1v4h-1zm1 0h1v1h-1zm41 0h1v1h-1zm1 0h7v1h-7zm7 0h1v4h-1zm1 0h1v1h-1zm17 0h1v1h-1zm7 0h1v1h-1zm21 0h1v1h-1zm7 0h1v4h-1zm1 0h1v1h-1zm34 0h1v1h-1zm8 0h1v1h-1zm86 0h1v1h-1zm1 0h26v1h-26zm26 0h1v1h-1zm1 0h1v1h-1zM4 42h1v1H4zm1 0h6v2H5zm6 0h1v1h-1zm1 0h1v1h-1zm21 0h1v1h-1zm7 0h1v3h-1zm1 0h1v1h-1zm41 0h1v1h-1zm1 0h6v1h-6zm7 0h1v1h-1zm41 0h1v1h-1zm1 0h1v1h-1z"/><path d="M133 42h7v1h-7zm7 0h1v3h-1zm1 0h1v1h-1zm15 0h1v1h-1zm1 0h6v3h-6zm7 0h1v1h-1zm21 0h1v1h-1zm1 0h6v1h-6zm7 0h1v1h-1zm34 0h1v1h-1zm1 0h6v1h-6zm7 0h1v1h-1zm87 0h1v1h-1zm1 0h24v1h-24zm24 0h1v1h-1zm1 0h1v1h-1zM4 43h1v1H4zm7 0h1v1h-1zm22 0h1v1h-1zm1 0h6v1h-6zm7 0h1v1h-1zm41 0h1v1h-1zm1 0h1v1h-1zm7 0h1v2h-1zm1 0h1v1h-1zm41 0h1v1h-1zm1 0h1v1h-1zm8 0h1v1h-1zm1 0h1v1h-1zm14 0h1v1h-1zm7 0h1v1h-1zm1 0h1v1h-1zm22 0h1v1h-1zm7 0h1v1h-1zm35 0h1v1h-1zm2 0h4v2h-4zm4 0h1v1h-1zm1 0h1v1h-1zm88 0h1v1h-1zm1 0h1v1h-1zm1 0h21v1h-21zm21 0h1v1h-1zm1 0h1v1h-1zM3 44h1v1H3zm1 0h6v1H4zm6 0h1v1h-1zm1 0h1v1h-1zm23 0h1v1h-1zm7 0h1v1h-1zm18 0h1v1h-1zm7 0h1v1h-1zm17 0h1v1h-1zm1 0h6v1h-6zm7 0h1v1h-1zm1 0h1v1h-1zm18 0h1v1h-1zm7 0h1v1h-1zm16 0h1v1h-1z"/><path d="M134 44h7v1h-7zm7 0h1v1h-1zm1 0h1v1h-1zm14 0h1v1h-1zm7 0h1v1h-1zm23 0h1v1h-1zm1 0h6v1h-6zm6 0h1v1h-1zm1 0h1v1h-1zm17 0h1v1h-1zm7 0h1v1h-1zm10 0h1v1h-1zm1 0h4v1h-4zm5 0h1v1h-1zm10 0h1v1h-1zm7 0h1v1h-1zm31 0h1v1h-1zm8 0h1v1h-1zm34 0h1v1h-1zm1 0h1v1h-1zm1 0h18v1h-18zm18 0h1v1h-1zm1 0h1v1h-1zm1 0h1v1h-1zM3 45h1v1H3zm1 0h5v1H4zm5 0h1v1H9zm1 0h1v1h-1zm1 0h1v1h-1zm23 0h1v1h-1zm1 0h6v1h-6zm6 0h1v1h-1zm18 0h1v1h-1zm1 0h5v1h-5zm5 0h1v1h-1zm1 0h1v1h-1zm17 0h1v1h-1zm1 0h1v1h-1zm1 0h6v1h-6zm6 0h1v1h-1zm1 0h1v1h-1zm18 0h1v1h-1zm1 0h5v1h-5zm5 0h1v1h-1zm1 0h1v1h-1zm17 0h1v1h-1zm1 0h7v1h-7zm7 0h1v1h-1zm1 0h1v1h-1zm13 0h1v1h-1zm1 0h5v1h-5zm5 0h1v1h-1zm1 0h1v1h-1zm23 0h1v1h-1zm1 0h1v1h-1zm1 0h5v1h-5zm5 0h1v1h-1zm1 0h1v1h-1zm17 0h1v1h-1zm1 0h5v1h-5zm5 0h1v1h-1zm1 0h1v1h-1zm10 0h1v1h-1zm1 0h1v1h-1zm1 0h3v1h-3zm3 0h1v1h-1zm1 0h1v1h-1zm10 0h1v1h-1zm1 0h5v1h-5zm5 0h1v1h-1zm1 0h1v1h-1zm31 0h1v1h-1zm1 0h6v1h-6zm6 0h1v1h-1zm1 0h1v1h-1zm36 0h1v1h-1zm1 0h1v1h-1zm1 0h1v1h-1zm1 0h12v1h-12zm12 0h1v1h-1zm1 0h1v1h-1zm1 0h1v1h-1zm1 0h1v1h-1zm-15 1h1v1h-1zm1 0h1v1h-1zm1 0h1v1h-1zm1 0h1v1h-1zm1 0h4v1h-4zm4 0h1v1h-1zm1 0h1v1h-1zm1 0h1v1h-1zm1 0h1v1h-1zm1 0h1v1h-1z"/><g fill="#1fb1d1"><path d="M173 61h1v1h-1zm1 0h2v1h-2zm2 0h1v1h-1zm-3 1h1v38h-1zm1 0h2v38h-2zm2 0h1v38h-1zm-21 3h1v1h-1zm1 0h1v1h-1zm1 0h1v1h-1zm1 0h1v1h-1zm33 0h1v1h-1zm1 0h2v1h-2zm2 0h1v1h-1zm-39 1h1v30h-1zm1 0h1v30h-1zm1 0h1v30h-1zm1 0h1v30h-1zm33 0h1v30h-1zm1 0h2v30h-2zm2 0h1v30h-1zm-30 2h1v1h-1zm1 0h1v1h-1zm1 0h1v1h-1zm1 0h1v1h-1zm15 0h1v1h-1zm1 0h2v1h-2zm2 0h1v1h-1zm-48 1h2v24h-2zm2 0h1v24h-1zm25 0h1v25h-1zm1 0h1v25h-1zm1 0h1v25h-1zm1 0h1v25h-1zm15 0h1v25h-1zm1 0h2v25h-2zm2 0h1v25h-1zm25 0h1v24h-1zm1 0h1v24h-1zm1 0h1v24h-1zm1 0h1v24h-1zm-85 1h1v1h-1zm1 0h1v1h-1zm1 0h1v1h-1zm89 0h1v1h-1zm1 0h1v1h-1zm1 0h1v1h-1zm1 0h1v1h-1zm-94 1h1v20h-1zm1 0h1v20h-1zm1 0h1v20h-1zm16 0h2v1h-2zm2 0h1v1h-1zm1 0h1v1h-1zm52 0h2v1h-2zm2 0h1v1h-1zm1 0h1v1h-1zm15 0h1v20h-1zm1 0h1v20h-1zm1 0h1v20h-1zm1 0h1v20h-1zm-122 1h1v1h-1zm1 0h1v1h-1zm1 0h1v1h-1zm16 0h1v1h-1zm1 0h1v1h-1zm1 0h1v1h-1zm1 0h1v1h-1zm25 0h2v18h-2zm2 0h1v18h-1zm1 0h1v18h-1zm52 0h2v18h-2zm2 0h1v18h-1zm1 0h1v18h-1zm24 0h1v1h-1zm1 0h1v1h-1zm1 0h1v1h-1zm1 0h1v1h-1zm16 0h1v1h-1zm1 0h1v1h-1zm1 0h1v1h-1zM82 73h2v1h-2zm2 0h1v1h-1zm16 0h1v16h-1zm1 0h1v16h-1zm1 0h1v16h-1zm16 0h1v16h-1zm1 0h1v16h-1zm1 0h1v16h-1zm1 0h1v16h-1zm107 0h1v16h-1zm1 0h1v16h-1zm1 0h1v16h-1zm1 0h1v16h-1zm16 0h1v16h-1zm1 0h1v16h-1zm1 0h1v16h-1zm16 0h1v1h-1zm1 0h1v1h-1zm1 0h1v1h-1zM82 74h2v1h-2zm2 0h1v14h-1zm7 0h1v1h-1zm1 0h1v1h-1zm1 0h1v1h-1zm16 0h1v1h-1zm1 0h1v1h-1zm1 0h1v1h-1zm1 0h1v1h-1zm126 0h1v1h-1zm1 0h1v1h-1zm1 0h1v1h-1zm16 0h1v1h-1zm1 0h1v1h-1zm1 0h1v1h-1zm7 0h1v14h-1zm1 0h1v14h-1zm1 0h1v14h-1zM82 75h2v1h-2zm9 0h1v12h-1zm1 0h1v12h-1zm1 0h1v12h-1zm16 0h1v12h-1zm1 0h1v12h-1zm1 0h1v12h-1zm1 0h1v12h-1zm126 0h1v12h-1zm1 0h1v12h-1zm1 0h1v12h-1zm16 0h1v12h-1zm1 0h1v12h-1zm1 0h1v12h-1zM37 76h1v1h-1zm1 0h1v1h-1zm17 0h1v1h-1zm1 0h1v1h-1zm26 0h2v1h-2zm211 0h1v1h-1zm1 0h1v1h-1zm18 0h1v1h-1zM37 77h1v9h-1zm1 0h1v9h-1zm8 0h1v1h-1zm1 0h1v1h-1zm8 0h1v9h-1zm1 0h1v9h-1zm17 0h1v1h-1zm1 0h1v1h-1zm1 0h1v1h-1zm7 0h2v1h-2zm193 0h1v1h-1zm1 0h1v1h-1zm17 0h1v9h-1zm1 0h1v9h-1zm8 0h1v1h-1zm1 0h1v1h-1zm9 0h1v9h-1zM28 78h1v1h-1zm18 0h1v6h-1zm1 0h1v6h-1zm17 0h1v1h-1zm1 0h1v1h-1zm8 0h1v6h-1zm1 0h1v6h-1zm1 0h1v6h-1zm7 0h2v1h-2zm193 0h1v6h-1zm1 0h1v6h-1zm8 0h1v1h-1zm1 0h1v1h-1zm17 0h1v6h-1zm1 0h1v6h-1zm18 0h1v1h-1zm1 0h1v1h-1zM19 79h1v1h-1zm9 0h1v4h-1zm36 0h1v4h-1zm1 0h1v4h-1zm17 0h2v1h-2zm202 0h1v4h-1zm1 0h1v4h-1zm36 0h1v4h-1zm1 0h1v4h-1zm8 0h1v1h-1zm1 0h1v1h-1zM0 80h1v1H0zm1 0h1v1H1zm9 0h1v2h-1zm9 0h1v2h-1zm63 0h2v1h-2zm248 0h1v2h-1zm1 0h1v2h-1zm8 0h1v2h-1zm1 0h1v2h-1zm9 0h1v1h-1zM0 81h1v1H0zm1 0h1v1H1zm81 0h2v1h-2zm267 0h1v1h-1zM0 82h1v1H0zm1 0h1v1H1zm9 0h1v1h-1zm9 0h1v1h-1zm63 0h2v1h-2zm248 0h1v1h-1zm1 0h1v1h-1zm8 0h1v1h-1zm1 0h1v1h-1zm9 0h1v1h-1zM10 83h1v1h-1zm9 0h1v1h-1zm9 0h1v1h-1zm36 0h1v1h-1zm1 0h1v1h-1zm17 0h2v1h-2zm202 0h1v1h-1zm1 0h1v1h-1zm36 0h1v1h-1zm1 0h1v1h-1zm8 0h1v1h-1zm1 0h1v1h-1zm8 0h1v1h-1zm1 0h1v1h-1zM28 84h1v1h-1zm18 0h1v1h-1zm1 0h1v1h-1zm17 0h1v1h-1zm1 0h1v1h-1zm8 0h1v1h-1zm1 0h1v1h-1zm1 0h1v1h-1zm7 0h2v1h-2zm193 0h1v1h-1zm1 0h1v1h-1zm8 0h1v1h-1zm1 0h1v1h-1zm17 0h1v1h-1zm1 0h1v1h-1zm18 0h1v1h-1zm1 0h1v1h-1zM46 85h1v1h-1zm1 0h1v1h-1zm26 0h1v1h-1zm1 0h1v1h-1zm1 0h1v1h-1zm7 0h2v1h-2zm193 0h1v1h-1zm1 0h1v1h-1zm26 0h1v1h-1zm1 0h1v1h-1zM37 86h1v1h-1zm1 0h1v1h-1zm17 0h1v1h-1zm1 0h1v1h-1zm26 0h2v1h-2zm211 0h1v1h-1zm1 0h1v1h-1zm18 0h1v1h-1zM82 87h2v1h-2zm9 0h1v1h-1zm1 0h1v1h-1zm1 0h1v1h-1zm16 0h1v1h-1zm1 0h1v1h-1zm1 0h1v1h-1zm1 0h1v1h-1zm126 0h1v1h-1zm1 0h1v1h-1zm1 0h1v1h-1zm16 0h1v1h-1zm1 0h1v1h-1zm1 0h1v1h-1zM82 88h2v1h-2zm2 0h1v1h-1zm7 0h1v1h-1zm1 0h1v1h-1zm1 0h1v1h-1zm16 0h1v1h-1zm1 0h1v1h-1zm1 0h1v1h-1zm1 0h1v1h-1zm126 0h1v1h-1zm1 0h1v1h-1zm1 0h1v1h-1zm16 0h1v1h-1zm1 0h1v1h-1zm1 0h1v1h-1zm7 0h1v1h-1zm1 0h1v1h-1zm1 0h1v1h-1zM82 89h2v1h-2zm2 0h1v1h-1zm16 0h1v1h-1zm1 0h1v1h-1zm1 0h1v1h-1zm16 0h1v1h-1zm1 0h1v1h-1zm1 0h1v1h-1zm1 0h1v1h-1zm107 0h1v1h-1zm1 0h1v1h-1zm1 0h1v1h-1zm1 0h1v1h-1zm16 0h1v1h-1zm1 0h1v1h-1zm1 0h1v1h-1zm16 0h1v1h-1zm1 0h1v1h-1zm1 0h1v1h-1zm-167 1h1v1h-1zm1 0h1v1h-1zm1 0h1v1h-1zm16 0h1v1h-1zm1 0h1v1h-1zm1 0h1v1h-1zm1 0h1v1h-1zm25 0h2v1h-2zm2 0h1v1h-1zm1 0h1v1h-1zm52 0h2v1h-2zm2 0h1v1h-1zm1 0h1v1h-1zm24 0h1v1h-1zm1 0h1v1h-1zm1 0h1v1h-1zm1 0h1v1h-1zm16 0h1v1h-1zm1 0h1v1h-1zm1 0h1v1h-1zm-121 1h1v1h-1zm1 0h1v1h-1zm1 0h1v1h-1zm16 0h2v1h-2zm2 0h1v1h-1zm1 0h1v1h-1zm52 0h2v1h-2zm2 0h1v1h-1zm1 0h1v1h-1zm15 0h1v1h-1zm1 0h1v1h-1zm1 0h1v1h-1zm1 0h1v1h-1zm-94 1h1v1h-1zm1 0h1v1h-1zm1 0h1v1h-1zm89 0h1v1h-1zm1 0h1v1h-1zm1 0h1v1h-1zm1 0h1v1h-1zm-85 1h2v1h-2zm2 0h1v1h-1zm71 0h1v1h-1zm1 0h1v1h-1zm1 0h1v1h-1zm1 0h1v1h-1zm-76 1h2v1h-2zm2 0h1v1h-1zm25 0h1v1h-1zm1 0h1v1h-1zm1 0h1v1h-1zm1 0h1v1h-1zm15 0h1v1h-1zm1 0h2v1h-2zm2 0h1v1h-1zm25 0h1v1h-1zm1 0h1v1h-1zm1 0h1v1h-1zm1 0h1v1h-1zm-58 2h1v1h-1zm1 0h1v1h-1zm1 0h1v1h-1zm1 0h1v1h-1zm33 0h1v1h-1zm1 0h2v1h-2zm2 0h1v1h-1zm-39 1h1v1h-1zm1 0h1v1h-1zm1 0h1v1h-1zm1 0h1v1h-1zm33 0h1v1h-1zm1 0h2v1h-2zm2 0h1v1h-1zm-21 3h1v1h-1zm1 0h2v1h-2zm2 0h1v1h-1zm-3 1h1v1h-1zm1 0h2v1h-2zm2 0h1v1h-1z"/></g></svg>