<svg width="1738" height="348" viewBox="0 0 1738 348" fill="none" xmlns="http://www.w3.org/2000/svg">
<path d="M174.082 64.5684L100.1 85.0251C95.7399 110.053 84.3581 133.203 67.3697 151.598C50.3812 169.993 28.5358 182.82 4.55005 188.485L23.387 260.248C65.9545 249.542 103.866 224.503 131.149 189.075C158.433 153.648 173.537 109.845 174.082 64.5684V64.5684Z" fill="#212121"/>
<path d="M264.172 62.0291C264.155 49.1342 266.011 36.3098 269.677 23.9842L200.199 4.70312C187.916 48.1413 189.943 94.566 205.962 136.684C221.98 178.802 251.082 214.227 288.696 237.393L308.534 160.88C294.621 148.736 283.442 133.598 275.78 116.523C268.117 99.4491 264.155 80.8508 264.172 62.0291V62.0291Z" fill="#212121"/>
<path d="M183.091 227.563C149.241 227.477 115.946 236.453 86.4495 253.616L140.776 309.531C163.873 300.993 188.884 299.641 212.716 305.642C236.549 311.644 258.156 324.735 274.864 343.297L325.824 290.673C307.418 270.698 285.273 254.802 260.735 243.952C236.197 233.102 209.78 227.526 183.091 227.563Z" fill="#212121"/>
<path d="M1660.97 64.6146H1512.18V260.294H1560.87V208H1660.97C1703.97 208 1733.54 180.066 1733.54 136.378C1733.54 92.6897 1703.97 64.6146 1660.97 64.6146ZM1647.32 165.817H1560.87V106.845H1647.32C1661.92 106.845 1684.67 106.845 1684.67 136.472C1684.67 166.099 1662.02 165.817 1647.41 165.817H1647.32ZM1402.03 64.6146H1253.29V260.294H1301.98V208H1402.08C1445.07 208 1474.56 180.066 1474.56 136.472C1474.56 92.8778 1445.03 64.6146 1402.03 64.6146ZM1388.38 165.817H1301.93V106.845H1388.38C1402.99 106.845 1425.69 106.845 1425.69 136.472C1425.69 166.099 1403.12 165.817 1388.52 165.817H1388.38ZM1057.37 64.5676L959.772 260.247H1013.28L1033.57 218.581H1146.91L1167.21 260.247H1220.99L1123.12 64.5676H1057.37ZM1051.68 181.148L1090.36 101.766L1128.8 181.148H1051.68ZM743.011 192.81C743.011 213.455 759.255 222.955 820.907 222.955C872.003 222.955 887.427 217.123 887.427 201.745C887.427 185.521 876.598 182.935 815.219 179.643C732.728 175.739 700.014 162.337 700.014 118.508C700.014 75.4778 742.465 61.793 813.308 61.793C884.151 61.793 928.195 80.2276 928.195 128.571H879.51C879.51 107.08 858.672 101.766 808.121 101.766C760.21 101.766 748.972 106.469 748.972 121.047C748.972 135.625 760.301 138.917 815.492 142.303C890.157 146.489 936.385 150.674 936.385 200.146C936.385 252.441 888.519 263.022 818.45 263.022C740.554 263.022 694.326 249.243 694.326 192.81H743.011ZM509.279 64.5676L411.682 260.247H465.235L485.482 218.581H598.822L619.115 260.247H672.896L575.026 64.5676H509.279ZM503.637 181.148L542.312 101.766L580.713 181.148H503.637Z" fill="#212121"/>
</svg>
