<?xml version="1.0" encoding="utf-8"?>
<!-- Generator: Adobe Illustrator 26.5.0, SVG Export Plug-In . SVG Version: 6.00 Build 0)  -->
<svg version="1.1" id="Laag_1" xmlns:serif="http://www.serif.com/"
	 xmlns="http://www.w3.org/2000/svg" xmlns:xlink="http://www.w3.org/1999/xlink" x="0px" y="0px" viewBox="0 0 511.9 173"
	 style="enable-background:new 0 0 511.9 173;" xml:space="preserve">
<style type="text/css">
	.st0{fill-rule:evenodd;clip-rule:evenodd;fill:url(#SVGID_1_);}
	.st1{fill-rule:evenodd;clip-rule:evenodd;fill:url(#SVGID_00000093868003207747170280000017663574613084860572_);}
	.st2{fill:#23237C;}
</style>
<linearGradient id="SVGID_1_" gradientUnits="userSpaceOnUse" x1="-691.7891" y1="288.5055" x2="-690.7899" y2="288.5055" gradientTransform="matrix(66.2504 0 0 113.9312 45891.1953 -32786.6797)">
	<stop  offset="0" style="stop-color:#FFBA02"/>
	<stop  offset="1" style="stop-color:#FFCE02"/>
</linearGradient>
<path class="st0" d="M124.5,23.5L59.9,100l46.7,0.8L96,142.6l30.1-55.8H88L124.5,23.5z"/>
<linearGradient id="SVGID_00000168117763261461056660000015315559834370202781_" gradientUnits="userSpaceOnUse" x1="-692.0587" y1="288.5251" x2="-691.0587" y2="288.5251" gradientTransform="matrix(67.8761 0 0 114.9403 47067.2422 -33075.0156)">
	<stop  offset="0" style="stop-color:#FF9B02"/>
	<stop  offset="1" style="stop-color:#FFED02"/>
</linearGradient>
<path style="fill-rule:evenodd;clip-rule:evenodd;fill:url(#SVGID_00000168117763261461056660000015315559834370202781_);" d="
	M95.5,149.4l62-75.8L110.7,73L125,26.8L93,83.2l38.1-0.2C131.1,83,95.5,149.4,95.5,149.4z"/>
<g>
	<path class="st2" d="M193.2,81.3c2.2,2.4,3.8,5.2,4.5,8.4c0.5,1.9,0.8,4.1,0.8,6.6v0.1v20.4h-7.2v-3.8c-2.1,1.4-4.3,2.4-6.5,2.9
		c-2.2,0.6-4.4,0.8-6.7,0.8c-2.4,0-4.6-0.3-6.8-0.8c-3.2-0.8-6-2.2-8.3-4.4l-0.1-0.1c-2.2-2.4-3.7-5.2-4.4-8.4
		c-0.6-2.1-0.8-4.3-0.8-6.7c0-2.3,0.3-4.5,0.8-6.7c0.8-3.2,2.2-6.1,4.4-8.4h0.1c2.5-2.2,5.3-3.8,8.3-4.5c1.9-0.5,4.2-0.8,6.7-0.8
		c2.6,0,4.8,0.3,6.8,0.8C187.8,77.6,190.6,79.1,193.2,81.3L193.2,81.3z M190.6,101.4c0.4-1.6,0.6-3.3,0.6-5s-0.2-3.3-0.6-4.9
		c-0.4-1.9-1.3-3.7-2.6-5.2c-1.4-1.3-3.1-2.2-5.1-2.5c-1.9-0.4-3.5-0.7-4.9-0.7c-1.4,0-3.1,0.2-5,0.7c-1.9,0.4-3.6,1.2-5.1,2.5
		c-1.4,1.4-2.2,3.1-2.6,5.1c-0.4,1.6-0.6,3.3-0.6,5s0.2,3.3,0.6,5c0.4,1.9,1.2,3.6,2.6,5.1c1.4,1.4,3.1,2.2,5.1,2.6
		c1.6,0.4,3.2,0.6,4.9,0.6s3.3-0.2,5-0.6c1.9-0.4,3.6-1.2,5.1-2.6C189.4,105,190.3,103.3,190.6,101.4z"/>
	<path class="st2" d="M208.2,96.8c-1.4-1.4-2.3-3.1-2.7-5c-0.3-1.4-0.5-2.6-0.5-3.8c0-1.2,0.2-2.5,0.5-3.8c0.4-1.9,1.3-3.5,2.7-5
		v-0.1c1.4-1.3,3.1-2.2,5.1-2.7c1.1-0.2,2.3-0.4,3.7-0.4h0.1h24v7.1h-24c-0.8,0-1.4,0.1-2.1,0.3c-0.5,0.1-1.1,0.3-1.7,0.8
		c-0.5,0.6-0.8,1.2-0.8,1.7c-0.1,0.4-0.2,1.1-0.2,2.1c0,0.9,0.1,1.5,0.2,2c0.1,0.5,0.3,1.1,0.8,1.7c0.6,0.5,1.2,0.8,1.7,0.8
		c0.6,0.2,1.3,0.3,2.1,0.3h16.8h0.1c1.1,0,2.4,0.2,3.8,0.5c1.9,0.5,3.6,1.4,5,2.6l0.1,0.1c1.2,1.3,2.1,3,2.6,5.1
		c0.3,1.4,0.5,2.6,0.5,3.8s-0.2,2.4-0.5,3.8c-0.5,2.1-1.4,3.8-2.6,5.1h-0.1c-1.4,1.3-3.1,2.2-5.1,2.7c-1.4,0.3-2.6,0.5-3.7,0.5h-0.1
		h-24v-7.2h24h0.1c0.6,0,1.3-0.1,2-0.3c1.5-0.2,2.3-1,2.5-2.4c0.1-0.4,0.2-1.1,0.2-2.1s-0.1-1.6-0.2-2.1c-0.1-0.7-0.4-1.2-0.8-1.7
		c-0.4-0.4-1-0.7-1.7-0.8c-0.4-0.1-1.1-0.2-2-0.2h-0.1H217c-1.1,0-2.4-0.2-3.8-0.5C211.3,99.1,209.6,98.2,208.2,96.8L208.2,96.8z"/>
	<path class="st2" d="M269,109.1c1.6,0.4,3.2,0.6,4.8,0.6h0.1h3.7v7.2h-3.7c-2.2,0-4.5-0.3-6.7-0.8c-3.2-0.8-6-2.2-8.3-4.4l-0.1-0.1
		c-2.2-2.4-3.8-5.2-4.5-8.4c-0.5-1.9-0.8-4.1-0.8-6.6v-0.1V61.6h7.2v14.4h14.3v7.1h-14.3v13.2v0.1c0,1.6,0.2,3.2,0.6,4.9
		c0.4,1.9,1.2,3.6,2.6,5.1C265.4,107.8,267.1,108.7,269,109.1z"/>
	<path class="st2" d="M296.7,76.8c1.9-0.5,4.1-0.8,6.6-0.8h0.1h3.6v7.1h-3.6h-0.1c-1.4,0-3,0.2-4.9,0.7c-1.9,0.4-3.6,1.2-5.1,2.5
		c-1.3,1.4-2.2,3.1-2.5,5.1c-0.4,1.9-0.7,3.5-0.7,4.9v0.1v20.4h-7.2V96.4v-0.1c0-2.2,0.3-4.4,0.8-6.6c0.8-3.2,2.2-6,4.5-8.4
		C290.7,79.1,293.5,77.6,296.7,76.8z"/>
	<path class="st2" d="M347.8,81.3c2.2,2.4,3.8,5.2,4.5,8.4c0.5,1.9,0.8,4.1,0.8,6.6v0.1v20.4h-7.2v-3.8c-2.1,1.4-4.3,2.4-6.5,2.9
		c-2.2,0.6-4.4,0.8-6.7,0.8c-2.4,0-4.6-0.3-6.8-0.8c-3.2-0.8-6-2.2-8.3-4.4l-0.1-0.1c-2.2-2.4-3.7-5.2-4.4-8.4
		c-0.6-2.1-0.8-4.3-0.8-6.7c0-2.3,0.3-4.5,0.8-6.7c0.8-3.2,2.2-6.1,4.4-8.4h0.1c2.5-2.2,5.3-3.8,8.3-4.5c1.9-0.5,4.2-0.8,6.7-0.8
		c2.6,0,4.8,0.3,6.8,0.8C342.5,77.6,345.3,79.1,347.8,81.3L347.8,81.3z M345.3,101.4c0.4-1.6,0.6-3.3,0.6-5s-0.2-3.3-0.6-4.9
		c-0.4-1.9-1.3-3.7-2.6-5.2c-1.4-1.3-3.1-2.2-5.1-2.5c-1.9-0.4-3.5-0.7-4.9-0.7c-1.4,0-3.1,0.2-5,0.7c-1.9,0.4-3.6,1.2-5.1,2.5
		c-1.4,1.4-2.2,3.1-2.6,5.1c-0.4,1.6-0.6,3.3-0.6,5s0.2,3.3,0.6,5c0.4,1.9,1.2,3.6,2.6,5.1c1.4,1.4,3.1,2.2,5.1,2.6
		c1.6,0.4,3.2,0.6,4.9,0.6s3.3-0.2,5-0.6c1.9-0.4,3.6-1.2,5.1-2.6C344.1,105,344.9,103.3,345.3,101.4z"/>
	<path class="st2" d="M367.4,124.1v7.1h-7.2V96.4v-0.1c0-2.2,0.3-4.4,0.8-6.6c0.8-3.2,2.2-6,4.5-8.4c2.4-2.2,5.2-3.8,8.4-4.5
		c1.9-0.5,4.2-0.8,6.7-0.8c2.5,0,4.7,0.3,6.7,0.8c3.2,0.8,6,2.2,8.4,4.5c2.2,2.4,3.8,5.2,4.5,8.4c0.6,2.1,0.8,4.3,0.8,6.7
		c0,2.3-0.3,4.6-0.8,6.8c-0.8,3.1-2.2,5.8-4.5,8.3v0.1c-2.4,2.2-5.2,3.7-8.4,4.4c-2.2,0.6-4.4,0.8-6.7,0.8s-4.5-0.3-6.7-0.8
		c-2.3-0.6-4.5-1.5-6.6-2.9V124.1z M368.1,91.4c-0.4,1.9-0.7,3.5-0.7,5c0,1.7,0.2,3.3,0.6,5c0.4,1.9,1.2,3.6,2.6,5.1
		c1.4,1.4,3.1,2.2,5.1,2.6c1.6,0.4,3.2,0.6,5,0.6c1.7,0,3.4-0.2,5-0.6c1.9-0.4,3.6-1.2,5.1-2.6c1.3-1.4,2.2-3.1,2.5-5.1
		c0.4-1.9,0.7-3.5,0.7-5c0-1.7-0.2-3.3-0.6-4.9c-0.4-1.9-1.3-3.7-2.6-5.2c-1.4-1.3-3.1-2.2-5.1-2.5c-1.9-0.4-3.5-0.7-5-0.7
		c-1.4,0-3.1,0.2-5,0.7c-1.9,0.4-3.6,1.2-5.1,2.5C369.3,87.8,368.5,89.4,368.1,91.4z"/>
	<path class="st2" d="M443.2,81.3c2.2,2.4,3.8,5.2,4.5,8.4c0.5,1.9,0.8,4.1,0.8,6.6v0.1v3.7h-33.3c0,0.1,0,0.3,0.1,0.7
		c0.1,0.3,0.1,0.5,0.2,0.7c0.4,1.9,1.2,3.6,2.6,5.1c1.4,1.4,3.1,2.2,5.1,2.6c1.6,0.4,3.2,0.6,4.9,0.6h0.1h15.6v7.2h-15.6H428
		c-2.3,0-4.5-0.3-6.7-0.8c-3.2-0.8-6-2.2-8.3-4.4l-0.1-0.1c-2.2-2.4-3.7-5.2-4.4-8.4c-0.6-2.1-0.8-4.3-0.8-6.7
		c0-2.3,0.3-4.5,0.8-6.7c0.8-3.2,2.2-6.1,4.4-8.4h0.1c2.5-2.2,5.3-3.8,8.3-4.5c1.9-0.5,4.2-0.8,6.7-0.8c2.6,0,4.8,0.3,6.8,0.8
		C437.8,77.6,440.6,79.1,443.2,81.3L443.2,81.3z M415.2,92.9h25.8c-0.1-0.2-0.1-0.4-0.2-0.7c-0.1-0.2-0.1-0.5-0.1-0.7
		c-0.4-1.9-1.3-3.7-2.6-5.2c-1.4-1.3-3.1-2.2-5.1-2.5c-1.9-0.4-3.5-0.7-4.9-0.7c-1.4,0-3.1,0.2-5,0.7c-1.9,0.4-3.6,1.2-5.1,2.5
		c-1.4,1.4-2.2,3.1-2.6,5.1L415.2,92.9z"/>
</g>
<g>
	<path class="st2" d="M379.1,128.2c0.5,0.5,0.8,1.1,0.9,1.8c0.1,0.4,0.2,0.9,0.2,1.4v0v4.3h-1.5v-4.3v0c0-0.3,0-0.7-0.1-1
		c-0.1-0.4-0.3-0.8-0.5-1.1c-0.3-0.3-0.6-0.4-1.1-0.5c-0.4-0.1-0.7-0.1-1-0.1s-0.6,0-1,0.1c-0.4,0.1-0.8,0.3-1.1,0.5
		c-0.3,0.3-0.4,0.6-0.5,1.1c-0.1,0.4-0.1,0.7-0.1,1v0v4.3h-1.5v-4.3v0c0-0.5,0.1-0.9,0.2-1.4c0.2-0.7,0.5-1.2,0.9-1.8
		c0.5-0.5,1.1-0.8,1.8-0.9c0.4-0.1,0.9-0.2,1.4-0.2s1,0.1,1.4,0.2C378,127.4,378.6,127.7,379.1,128.2z"/>
	<path class="st2" d="M389,128.2c0.5,0.5,0.8,1.1,0.9,1.8c0.1,0.4,0.2,0.9,0.2,1.4v0v0.8h-6.9c0,0,0,0.1,0,0.1s0,0.1,0,0.1
		c0.1,0.4,0.3,0.7,0.5,1.1c0.3,0.3,0.7,0.5,1.1,0.5c0.3,0.1,0.7,0.1,1,0.1h0h3.2v1.5h-3.2h0c-0.5,0-0.9-0.1-1.4-0.2
		c-0.7-0.2-1.2-0.5-1.7-0.9l0,0c-0.5-0.5-0.8-1.1-0.9-1.8c-0.1-0.4-0.2-0.9-0.2-1.4s0.1-0.9,0.2-1.4c0.2-0.7,0.5-1.3,0.9-1.8h0
		c0.5-0.5,1.1-0.8,1.7-0.9c0.4-0.1,0.9-0.2,1.4-0.2c0.5,0,1,0.1,1.4,0.2C387.9,127.4,388.5,127.7,389,128.2L389,128.2z M383.2,130.6
		h5.4c0,0,0-0.1,0-0.1s0-0.1,0-0.1c-0.1-0.4-0.3-0.8-0.5-1.1c-0.3-0.3-0.6-0.4-1.1-0.5c-0.4-0.1-0.7-0.1-1-0.1c-0.3,0-0.6,0-1,0.1
		c-0.4,0.1-0.8,0.3-1.1,0.5c-0.3,0.3-0.5,0.7-0.5,1.1L383.2,130.6z"/>
	<path class="st2" d="M394.9,134c0.3,0.1,0.7,0.1,1,0.1h0h0.8v1.5H396c-0.5,0-0.9-0.1-1.4-0.2c-0.7-0.2-1.2-0.5-1.7-0.9l0,0
		c-0.5-0.5-0.8-1.1-0.9-1.8c-0.1-0.4-0.2-0.9-0.2-1.4v0v-7.2h1.5v3h3v1.5h-3v2.8v0c0,0.3,0,0.7,0.1,1c0.1,0.4,0.3,0.7,0.5,1.1
		C394.2,133.7,394.5,133.9,394.9,134z"/>
	<path class="st2" d="M407.8,131.3v-4.2h1.5v4.2v0c0,0.5-0.1,1-0.2,1.4c-0.2,0.6-0.5,1.2-0.9,1.7l0,0c-0.5,0.5-1.1,0.8-1.7,0.9
		c-0.5,0.1-0.9,0.2-1.4,0.2h0h-3h0c-0.5,0-0.9-0.1-1.4-0.2c-0.7-0.2-1.3-0.5-1.8-0.9v0c-0.5-0.5-0.8-1.1-0.9-1.8
		c-0.1-0.4-0.2-0.9-0.2-1.4v0v-4.2h1.5v4.2v0c0,0.3,0,0.7,0.1,1c0.1,0.4,0.3,0.7,0.5,1.1c0.3,0.3,0.7,0.5,1.1,0.5
		c0.3,0.1,0.7,0.1,1,0.1h0h0.7v-7h1.5v7h0.8c0.3,0,0.7,0,1-0.1c0.4-0.1,0.7-0.3,1.1-0.5c0.3-0.3,0.5-0.7,0.5-1.1
		C407.8,132,407.8,131.7,407.8,131.3L407.8,131.3z"/>
	<path class="st2" d="M418.2,128.2c0.5,0.5,0.8,1.1,0.9,1.8c0.1,0.4,0.2,0.9,0.2,1.4c0,0.5-0.1,1-0.2,1.4c-0.2,0.6-0.5,1.2-0.9,1.7
		l0,0c-0.5,0.5-1.1,0.8-1.7,0.9c-0.5,0.1-0.9,0.2-1.4,0.2c-0.5,0-1-0.1-1.4-0.2c-0.7-0.2-1.2-0.5-1.7-0.9l0,0
		c-0.5-0.5-0.8-1.1-0.9-1.8c-0.1-0.4-0.2-0.9-0.2-1.4s0.1-0.9,0.2-1.4c0.2-0.7,0.5-1.3,0.9-1.8h0c0.5-0.5,1.1-0.8,1.7-0.9
		c0.4-0.1,0.9-0.2,1.4-0.2c0.5,0,1,0.1,1.4,0.2C417.1,127.4,417.7,127.7,418.2,128.2L418.2,128.2z M417.7,132.4
		c0.1-0.3,0.1-0.7,0.1-1s0-0.7-0.1-1c-0.1-0.4-0.3-0.8-0.5-1.1c-0.3-0.3-0.6-0.4-1.1-0.5c-0.4-0.1-0.7-0.1-1-0.1c-0.3,0-0.6,0-1,0.1
		c-0.4,0.1-0.8,0.3-1.1,0.5c-0.3,0.3-0.5,0.7-0.5,1.1c-0.1,0.3-0.1,0.7-0.1,1s0,0.7,0.1,1c0.1,0.4,0.3,0.7,0.5,1.1
		c0.3,0.3,0.7,0.5,1.1,0.5c0.3,0.1,0.7,0.1,1,0.1s0.7,0,1-0.1c0.4-0.1,0.7-0.3,1.1-0.5C417.4,133.1,417.6,132.8,417.7,132.4z"/>
	<path class="st2" d="M423.7,127.3c0.4-0.1,0.9-0.2,1.4-0.2h0h0.7v1.5h-0.7h0c-0.3,0-0.6,0-1,0.1c-0.4,0.1-0.8,0.3-1.1,0.5
		c-0.3,0.3-0.4,0.6-0.5,1.1c-0.1,0.4-0.1,0.7-0.1,1v0v4.3h-1.5v-4.3v0c0-0.5,0.1-0.9,0.2-1.4c0.2-0.7,0.5-1.2,0.9-1.8
		C422.4,127.7,423,127.4,423.7,127.3z"/>
	<path class="st2" d="M434.6,131.7c0.5,0.5,0.8,1.1,0.9,1.7c0.1,0.5,0.2,0.9,0.2,1.4v0v0.8h-1.5v-0.8c0-0.3,0-0.7-0.1-1
		c-0.1-0.4-0.3-0.7-0.5-1.1c-0.3-0.3-0.7-0.5-1.1-0.5c-0.3-0.1-0.7-0.1-1-0.1s-0.7,0-1,0.1c-0.4,0.1-0.7,0.3-1.1,0.5
		c-0.3,0.3-0.5,0.7-0.5,1.1c-0.1,0.3-0.1,0.7-0.1,1v0v0.8h-1.5v-11.5h1.5v7.3c0.4-0.3,0.9-0.5,1.3-0.6c0.4-0.1,0.9-0.2,1.4-0.2h0h0
		c0.2,0,0.5,0,0.7-0.1c0.3-0.1,0.5-0.2,0.7-0.3c0.2-0.2,0.3-0.4,0.3-0.7c0.1-0.2,0.1-0.4,0.1-0.7v0v-1.7h1.5v1.7v0
		c0,0.3,0,0.6-0.1,1c-0.1,0.5-0.3,0.9-0.7,1.3C434.1,131.3,434.3,131.5,434.6,131.7L434.6,131.7z"/>
	<path class="st2" d="M437.5,131.4c-0.3-0.3-0.5-0.6-0.6-1c-0.1-0.3-0.1-0.5-0.1-0.8c0-0.2,0-0.5,0.1-0.8c0.1-0.4,0.3-0.7,0.6-1v0
		c0.3-0.3,0.7-0.5,1.1-0.6c0.2-0.1,0.5-0.1,0.8-0.1h0h5v1.5h-5c-0.2,0-0.3,0-0.4,0.1c-0.1,0-0.2,0.1-0.4,0.2
		c-0.1,0.1-0.2,0.2-0.2,0.4c0,0.1,0,0.2,0,0.4c0,0.2,0,0.3,0,0.4c0,0.1,0.1,0.2,0.2,0.4c0.1,0.1,0.2,0.2,0.4,0.2
		c0.1,0,0.3,0.1,0.4,0.1h3.5h0c0.2,0,0.5,0,0.8,0.1c0.4,0.1,0.7,0.3,1,0.5l0,0c0.3,0.3,0.4,0.6,0.5,1.1c0.1,0.3,0.1,0.5,0.1,0.8
		s0,0.5-0.1,0.8c-0.1,0.4-0.3,0.8-0.5,1.1h0c-0.3,0.3-0.7,0.5-1.1,0.6c-0.3,0.1-0.5,0.1-0.8,0.1h0h-5v-1.5h5h0c0.1,0,0.3,0,0.4-0.1
		c0.3,0,0.5-0.2,0.5-0.5c0-0.1,0-0.2,0-0.4s0-0.3,0-0.4c0-0.1-0.1-0.3-0.2-0.4s-0.2-0.1-0.4-0.2c-0.1,0-0.2,0-0.4,0h0h-3.5
		c-0.2,0-0.5,0-0.8-0.1C438.1,131.9,437.8,131.7,437.5,131.4L437.5,131.4z"/>
</g>
</svg>
