<svg width="410" height="90" viewBox="0 0 410 90" fill="none" xmlns="http://www.w3.org/2000/svg">
<g clip-path="url(#clip0_37_7819)">
<g clip-path="url(#clip1_37_7819)">
<g clip-path="url(#clip2_37_7819)">
<path d="M108.595 46.713C108.212 53.8869 106.059 61.0415 102.394 67.2248C96.2544 77.5841 85.9683 85.6749 72.894 88.1284C66.367 89.2999 61.6197 89.1515 56.2882 88.3337C52.4422 87.4773 50.021 84.353 52.6033 80.6397C55.7676 76.0877 60.2525 73.0968 64.7291 70.1052C77.7866 61.3794 91.6566 54.086 105.655 47.0184C107.22 46.2294 108.705 44.6685 108.595 46.713Z" fill="#A43189"/>
<path d="M117.885 29.9739C121.174 27.3726 124.35 24.0307 126.6 20.4505L126.604 20.4478L126.608 20.4451C129.085 16.5024 127.678 12.9427 123.141 11.8636C117.925 10.6222 113.503 11.1222 108.164 11.8636C106.864 12.0442 106.532 12.3243 106.088 12.6051C105.187 13.1738 105.088 14.91 106.385 15.1262C108.758 15.2745 116.532 14.7435 118.397 15.571C123.709 17.9295 109.172 25.7818 107.262 27.3018C106.116 28.2123 105.567 28.103 104.922 26.6695C99.8667 15.4301 91.6341 7.46058 80.1294 2.93555C72.9192 0.100737 65.4907 -0.548239 57.8164 0.42166C53.6808 0.944117 50.4365 2.07996 46.637 3.56014C45.384 4.04825 43.7264 4.87972 42.5737 5.54215C39.8716 7.09186 37.3848 8.83005 35.1214 10.7664C33.1501 12.4531 34.308 15.4724 36.8911 15.7149L84.4513 20.18C86.5623 20.3782 87.605 22.8434 86.2779 24.496L59.7515 58.4142C58.7867 59.6154 60.0186 61.5963 61.4491 61.0238C72.2406 56.6928 82.732 51.4368 93.1194 46.2139C101.782 41.8583 110.301 35.9726 117.885 29.9739Z" fill="#F0546C"/>
<path fill-rule="evenodd" clip-rule="evenodd" d="M68.4776 32.8735C70.1708 31.0595 68.6796 28.1201 66.2156 28.4151L23.1339 33.5748C21.8308 33.7308 20.7464 34.67 20.4834 35.9557C18.8266 44.0544 19.4875 52.2104 22.6048 60.374C23.7721 63.4323 23.8453 63.5204 20.6941 63.9079C20.2832 63.9583 19.8715 64.0141 19.4591 64.0701C17.0833 64.3921 14.6852 64.7172 12.2948 64.0386C6.51661 62.3926 15.4038 56.9192 16.0748 54.5804C16.5702 52.8533 14.2228 52.2064 12.755 53.2429C8.05189 56.5643 3.57437 60.4403 0.797863 65.5657C0.204543 66.7523 0.27793 68.2363 0.501159 69.0384C2.14516 74.945 14.8734 73.8729 19.0668 73.1198C24.5616 72.1333 28.5291 71.775 33.8677 70.1439C35.3237 69.6987 35.3507 69.551 37.5751 67.2589C48.8456 56.7972 59.1596 42.5337 68.4776 32.8735Z" fill="#FFB471"/>
</g>
</g>
</g>
<path d="M161.597 73.8434C168.473 73.8434 174.501 70.5824 177.282 65.458V73.067H181.841V32.0711H177.282V39.7579C174.501 34.6334 168.473 31.2948 161.597 31.2948C150.393 31.2948 141.43 40.1461 141.43 52.6468C141.43 64.992 150.393 73.8434 161.597 73.8434ZM146.452 52.6468C146.452 43.0189 153.097 36.031 162.137 36.031C170.405 36.031 177.359 41.8543 177.359 52.6468C177.359 63.3616 170.405 69.1072 162.137 69.1072C153.097 69.1072 146.452 62.1969 146.452 52.6468Z" fill="#2B2231"/>
<path d="M221.845 56.8395V32.0711H216.9V56.6842C216.9 64.7591 213.269 69.1072 206.468 69.1072C199.746 69.1072 196.038 64.7591 196.038 56.6842V32.0711H191.093V56.8395C191.093 67.5543 196.811 73.8434 206.468 73.8434C216.204 73.8434 221.845 67.5543 221.845 56.8395Z" fill="#2B2231"/>
<path d="M232.834 73.0669H237.78V36.7297H243.111V32.0711H237.78V18.4059L232.834 20.5022V32.0711H227.812V36.7297H232.834V73.0669Z" fill="#2B2231"/>
<path d="M249.434 73.0671H254.379V48.4541C254.379 40.3791 258.011 36.0312 264.888 36.0312C271.61 36.0312 275.241 40.3791 275.241 48.4541V73.0671H280.186V48.2211C280.186 37.5064 274.855 31.2949 265.815 31.2949C260.484 31.2949 256.543 33.4689 254.302 37.1958C254.379 35.0994 254.379 33.003 254.379 30.6737V13.2815H249.434V73.0671Z" fill="#2B2231"/>
<path d="M285.447 73.0671H318.054L319.6 62.0417H303.296L319.367 33.4689V31.916H288.151L286.606 42.9413H301.518L285.447 71.5142V73.0671Z" fill="#2B2231"/>
<path d="M343.514 74.0764C351.627 74.0764 358.118 70.6601 362.677 64.6039L354.795 58.0042C351.783 61.8087 348.073 63.6722 343.746 63.6722C338.337 63.6722 334.397 60.7217 333.238 55.8302H362.677C364.377 38.5932 354.101 30.9066 342.897 30.9066C330.997 30.9066 321.726 39.6803 321.726 52.6468C321.726 65.225 330.456 74.0764 343.514 74.0764ZM333.392 47.367C334.706 43.4072 338.183 40.845 342.819 40.845C347.378 40.845 350.468 43.1742 351.396 47.367H333.392Z" fill="#2B2231"/>
<path d="M386.909 73.8435C391.467 73.8435 395.949 72.2906 398.73 69.3402L398.807 73.0671H409.625V13.0486H397.417V24.7728C397.417 28.1891 397.494 31.4501 397.648 34.6335C394.79 32.3043 390.926 31.1395 386.909 31.1395C375.859 31.1395 366.51 39.8357 366.51 52.4915C366.51 65.1475 375.859 73.8435 386.909 73.8435ZM378.718 52.4915C378.718 46.2801 382.89 42.3203 388.531 42.3203C394.094 42.3203 398.19 46.2801 398.19 52.4915C398.19 58.703 394.094 62.6629 388.531 62.6629C382.89 62.6629 378.718 58.703 378.718 52.4915Z" fill="#2B2231"/>
<defs>
<clipPath id="clip0_37_7819">
<rect width="128.155" height="89.5635" fill="white"/>
</clipPath>
<clipPath id="clip1_37_7819">
<rect width="128.155" height="89.5635" fill="white"/>
</clipPath>
<clipPath id="clip2_37_7819">
<rect width="128.135" height="89.5635" fill="white" transform="translate(0.0107422)"/>
</clipPath>
</defs>
</svg>
