<?xml version="1.0" encoding="utf-8"?>
<!-- Generator: Adobe Illustrator 23.0.3, SVG Export Plug-In . SVG Version: 6.00 Build 0)  -->
<svg version="1.1" id="Layer_1" xmlns="http://www.w3.org/2000/svg" xmlns:xlink="http://www.w3.org/1999/xlink" x="0px" y="0px"
	 viewBox="0 0 400 245" style="enable-background:new 0 0 400 245;" xml:space="preserve">
<style type="text/css">
	.st0{fill:#E01B22;}
	.st1{fill:#4064AD;}
	.st2{fill:#E98300;}
	.st3{fill:#00549F;}
	.st4{fill-rule:evenodd;clip-rule:evenodd;}
	.st5{fill-rule:evenodd;clip-rule:evenodd;fill:#C9243A;}
	.st6{fill-rule:evenodd;clip-rule:evenodd;fill:#231F20;}
	.st7{fill-rule:evenodd;clip-rule:evenodd;fill:#7C848A;}
	.st8{fill:#EE3B29;}
	.st9{fill:#7C848A;}
	.st10{fill:#0F0F59;}
	.st11{fill:#F42A4D;}
	.st12{fill:#DA2128;}
	.st13{fill-rule:evenodd;clip-rule:evenodd;fill:#12ABDB;}
	.st14{fill-rule:evenodd;clip-rule:evenodd;fill:#0070AD;}
	.st15{fill:#929497;}
	.st16{fill:#231F20;}
	.st17{fill:#00ADEE;}
	.st18{fill:#2E3191;}
	.st19{fill:#EC1C24;}
	.st20{fill:#0082C9;}
	.st21{fill:#6D67AE;}
	.st22{fill:#2B62AD;}
	.st23{fill:#404041;}
	.st24{fill:#273B5B;}
	.st25{fill:#39B54A;}
	.st26{fill:#474749;}
	.st27{fill:#009245;}
	.st28{fill:#DDDDDD;}
	.st29{fill:#FFFFFF;}
	.st30{fill:url(#SVGID_1_);}
	.st31{fill:url(#SVGID_2_);}
	.st32{fill:url(#SVGID_3_);}
	.st33{fill:url(#SVGID_4_);}
	.st34{fill:url(#SVGID_5_);}
	.st35{fill:url(#SVGID_6_);}
	.st36{fill:url(#SVGID_7_);}
	.st37{fill:url(#SVGID_8_);}
	.st38{fill:url(#SVGID_9_);}
	.st39{fill:url(#SVGID_10_);}
	.st40{fill:url(#SVGID_11_);}
	.st41{fill:url(#SVGID_12_);}
	.st42{fill:url(#SVGID_13_);}
	.st43{fill:url(#SVGID_14_);}
	.st44{fill:url(#SVGID_15_);}
	.st45{fill:url(#SVGID_16_);}
	.st46{fill:url(#SVGID_17_);}
	.st47{fill:#59595C;}
	.st48{fill:#1D7DB9;}
	.st49{fill:#121110;}
	.st50{fill:#010101;}
	.st51{fill:#663795;}
	.st52{fill:#09324A;stroke:#1B75BB;stroke-width:0.6975;stroke-miterlimit:10;}
	.st53{fill:#002432;stroke:#1B75BB;stroke-width:1.0463;stroke-miterlimit:10;}
	.st54{fill-rule:evenodd;clip-rule:evenodd;fill:#E73836;}
	.st55{fill:#231916;}
	.st56{fill:#E73836;}
	.st57{fill:#8C9091;}
	.st58{fill-rule:evenodd;clip-rule:evenodd;fill:#365072;}
	.st59{fill:#365072;}
	.st60{fill:#0093D7;}
	.st61{clip-path:url(#SVGID_19_);fill:url(#SVGID_20_);}
	.st62{clip-path:url(#SVGID_22_);fill:url(#SVGID_23_);}
	.st63{clip-path:url(#SVGID_25_);fill:url(#SVGID_26_);}
	.st64{clip-path:url(#SVGID_28_);fill:url(#SVGID_29_);}
	.st65{clip-path:url(#SVGID_31_);fill:url(#SVGID_32_);}
	.st66{clip-path:url(#SVGID_34_);fill:url(#SVGID_35_);}
	.st67{clip-path:url(#SVGID_37_);fill:url(#SVGID_38_);}
	.st68{clip-path:url(#SVGID_40_);fill:url(#SVGID_41_);}
	.st69{clip-path:url(#SVGID_43_);fill:url(#SVGID_44_);}
	.st70{clip-path:url(#SVGID_68_);}
	.st71{clip-path:url(#SVGID_79_);}
	.st72{fill:#00A9E6;}
	.st73{fill:#4D4D4F;}
	.st74{fill:#898B8D;}
	.st75{fill:#04B3AC;}
	.st76{fill:#A4A2A0;}
	.st77{fill:#D0CFCE;}
	.st78{fill:#74777C;}
	.st79{fill:none;stroke:#ED3024;stroke-width:0.4269;}
	.st80{fill:#A2A4A8;}
	.st81{fill:#3F7BA3;}
	.st82{enable-background:new    ;}
	.st83{fill:#E8B520;}
	.st84{fill:#D27D41;}
	.st85{fill:#0B74BB;}
	.st86{fill:#702784;}
	.st87{fill:#AD2E91;}
	.st88{fill:#ED3694;}
	.st89{fill:#004E9A;}
	.st90{clip-path:url(#SVGID_82_);fill:url(#SVGID_83_);}
	.st91{clip-path:url(#SVGID_85_);fill:url(#SVGID_86_);}
	.st92{clip-path:url(#SVGID_88_);fill:url(#SVGID_89_);}
	.st93{fill:#0898CC;}
	.st94{fill:#12284C;}
	.st95{fill-rule:evenodd;clip-rule:evenodd;fill:#84BE42;}
	.st96{fill-rule:evenodd;clip-rule:evenodd;fill:#C1C0C0;}
	.st97{clip-path:url(#SVGID_91_);fill:#84BE42;}
	.st98{fill:#0066A5;}
	.st99{fill:#F05A22;}
	.st100{clip-path:url(#SVGID_93_);}
	.st101{clip-path:url(#SVGID_95_);fill:#1D1D1B;}
	.st102{clip-path:url(#SVGID_97_);}
	.st103{clip-path:url(#SVGID_99_);fill:#1D1D1B;}
	.st104{clip-path:url(#SVGID_101_);}
	.st105{clip-path:url(#SVGID_103_);fill:#1D1D1B;}
	.st106{clip-path:url(#SVGID_105_);}
	.st107{clip-path:url(#SVGID_107_);fill:#1D1D1B;}
	.st108{clip-path:url(#SVGID_109_);}
	.st109{clip-path:url(#SVGID_111_);fill:#1D1D1B;}
	.st110{clip-path:url(#SVGID_113_);}
	.st111{clip-path:url(#SVGID_115_);fill:#1D1D1B;}
	.st112{clip-path:url(#SVGID_117_);}
	.st113{clip-path:url(#SVGID_119_);fill:#1D9DD9;}
	.st114{clip-path:url(#SVGID_121_);}
	.st115{clip-path:url(#SVGID_123_);fill:#1D1D1B;}
	.st116{clip-path:url(#SVGID_125_);}
	.st117{clip-path:url(#SVGID_127_);fill:#1D9DD9;}
	.st118{clip-path:url(#SVGID_129_);}
	.st119{clip-path:url(#SVGID_131_);fill:#1D1D1B;}
	.st120{clip-path:url(#SVGID_133_);}
	.st121{clip-path:url(#SVGID_135_);fill:#1D9DD9;}
	.st122{clip-path:url(#SVGID_137_);}
	.st123{clip-path:url(#SVGID_139_);fill:#1D1D1B;}
	.st124{clip-path:url(#SVGID_141_);}
	.st125{clip-path:url(#SVGID_143_);fill:#1D9DD9;}
	.st126{clip-path:url(#SVGID_145_);}
	.st127{clip-path:url(#SVGID_147_);fill:#1D1D1B;}
	.st128{fill:#D44432;}
	.st129{fill:#272525;}
	.st130{fill:url(#SVGID_148_);}
	.st131{fill:url(#SVGID_149_);}
	.st132{fill:url(#SVGID_150_);}
	.st133{fill:#002B54;}
	.st134{fill:#B2B1B1;}
	.st135{fill:#E1134F;}
	.st136{fill:#454547;}
	.st137{fill:#00B4D0;}
	.st138{fill:#4564A7;}
	.st139{fill:#0088EE;}
	.st140{fill:#026FC2;}
	.st141{fill:#009FEE;}
	.st142{fill:#00BEEE;}
	.st143{fill:#00AFEE;}
	.st144{fill-rule:evenodd;clip-rule:evenodd;fill:#224099;}
	.st145{clip-path:url(#SVGID_152_);}
	.st146{clip-path:url(#SVGID_156_);}
	.st147{fill:#203260;}
	.st148{fill-rule:evenodd;clip-rule:evenodd;fill:#989A9D;}
	.st149{fill-rule:evenodd;clip-rule:evenodd;fill:#DF068C;}
	.st150{fill:#2E3437;}
	.st151{fill:#989FA4;}
	.st152{fill:#E1DE22;}
	.st153{fill-rule:evenodd;clip-rule:evenodd;fill:#86171D;}
	.st154{fill-rule:evenodd;clip-rule:evenodd;fill:#FFFFFF;}
	.st155{fill:none;stroke:#86171D;stroke-width:6.1349;stroke-miterlimit:10;}
	.st156{fill:#1F1F1F;}
	.st157{fill:#009590;}
	.st158{fill:#ED1651;}
</style>
<g>
	<g>
		<g>
			<g>
				<defs>
					<path id="SVGID_81_" d="M-28.91,113.16c-7.02,8.48-0.79,16.95,0.13,18.94c1.06,1.46,0.53,5.17-1.32,7.28
						c-7.55,9.27-22.25,10.86-29.4,11.13c-2.38,0-2.78,0.13-3.71,1.19c-0.79,1.06-0.66,1.99,0.66,3.18c1.19,1.06,3.18,1.06,4.5,1.32
						c5.03,0.66,31.13,2.52,45.96-14.97c3.71-4.11,5.17-9.01,5.17-13.24v-0.66c-0.13-5.96-2.78-11.52-6.23-14.3
						c-2.78-2.38-5.83-3.31-8.48-3.31C-24.41,109.72-27.06,110.91-28.91,113.16"/>
				</defs>
				<clipPath id="SVGID_1_">
					<use xlink:href="#SVGID_81_"  style="overflow:visible;"/>
				</clipPath>
				
					<linearGradient id="SVGID_2_" gradientUnits="userSpaceOnUse" x1="-2673.343" y1="-851.2814" x2="-2670.4021" y2="-851.2814" gradientTransform="matrix(4.0529 -12.4913 12.4913 4.0529 21427.1953 -29791.625)">
					<stop  offset="0" style="stop-color:#73BDE9"/>
					<stop  offset="0.102" style="stop-color:#73BDE9"/>
					<stop  offset="0.6314" style="stop-color:#0898CC"/>
					<stop  offset="1" style="stop-color:#0898CC"/>
				</linearGradient>
				<polygon style="clip-path:url(#SVGID_1_);fill:url(#SVGID_2_);" points="-12.36,175.68 7.51,114.35 -58.58,93.03 -78.58,154.09 
									"/>
			</g>
		</g>
	</g>
</g>
<g>
	<path class="st95" d="M26.57,92.77c-13.31,0-23.35,9.9-23.35,23.03c0,13.13,10.43,23.03,24.26,23.03c8.17,0,14.33-2.55,19.96-8.25
		c0.15-0.15,0.22-0.34,0.21-0.54c-0.01-0.2-0.11-0.38-0.27-0.52l-4.36-3.55c-0.33-0.27-0.84-0.25-1.15,0.04
		c-4.15,3.95-8.66,5.79-14.21,5.79c-8.22,0-14.39-5.17-15.6-12.94h36.31c0.42,0,0.77-0.29,0.82-0.67c0.1-0.78,0.1-1.46,0.1-2.06
		C49.29,102.16,40.16,92.77,26.57,92.77z M12.06,112.66c1.19-7.71,6.98-13.02,14.33-13.02c9.1,0,13.2,6.58,14.07,13.02H12.06z"/>
	<path class="st95" d="M141.08,92.77c-13.31,0-23.35,9.9-23.35,23.03c0,13.13,10.43,23.03,24.26,23.03c8.17,0,14.33-2.55,19.96-8.25
		c0.15-0.15,0.22-0.34,0.21-0.54c-0.01-0.2-0.11-0.38-0.27-0.52l-4.36-3.55c-0.33-0.27-0.84-0.25-1.15,0.04
		c-4.15,3.95-8.66,5.79-14.21,5.79c-8.22,0-14.39-5.17-15.6-12.94h36.31c0.42,0,0.77-0.29,0.82-0.67c0.1-0.78,0.1-1.46,0.1-2.06
		C163.79,102.16,154.67,92.77,141.08,92.77z M126.57,112.66c1.19-7.71,6.98-13.02,14.33-13.02c9.1,0,13.2,6.58,14.07,13.02H126.57z"
		/>
	<path class="st95" d="M180.63,103.91v-7.97c0-0.41-0.44-0.74-0.99-0.74h-6.47c-0.55,0-0.99,0.33-0.99,0.74v42.16
		c0,0.41,0.45,0.74,0.99,0.74h6.47c0.55,0,0.99-0.33,0.99-0.74v-16.8c0-11.29,8.41-18.58,21.41-18.58h0.66
		c0.55,0,0.99-0.33,0.99-0.74v-5.4c0-0.4-0.42-0.73-0.95-0.74C193.64,95.57,185.63,97.7,180.63,103.91z"/>
	<path class="st96" d="M237.65,94.41c-7.69,0-13.75,2.36-18.04,7.02v-5.28c0-0.41-0.42-0.75-0.94-0.75h-5.06
		c-0.52,0-0.94,0.33-0.94,0.75v41.99c0,0.41,0.42,0.75,0.94,0.75h5.06c0.52,0,0.94-0.34,0.94-0.75v-24.29
		c0-8.25,7.28-14.24,17.32-14.24c9.87,0,15.77,5.08,15.77,13.58v24.95c0,0.41,0.42,0.75,0.94,0.75h5.05c0.52,0,0.94-0.34,0.94-0.75
		v-25.69C259.63,101.49,251,94.41,237.65,94.41"/>
	<path class="st96" d="M312.15,95.4h-5.08c-0.35,0-0.66,0.19-0.79,0.47l-16.58,35.89l-19.12-35.93c-0.14-0.26-0.44-0.43-0.78-0.43
		h-5.36c-0.29,0-0.57,0.13-0.73,0.35c-0.15,0.22-0.17,0.49-0.04,0.72l22.88,41.38c-3.76,7.57-6.97,9.1-10.92,9.1
		c-3.6,0-5.52-0.52-7.82-1.49c-0.21-0.09-0.46-0.1-0.68-0.02c-0.22,0.08-0.4,0.23-0.48,0.42l-1.6,3.53
		c-0.17,0.37,0.03,0.8,0.45,0.96c3.5,1.35,6.26,1.87,9.85,1.87c7.59,0,12.61-3.7,16.79-12.38l20.8-43.42
		c0.11-0.23,0.08-0.49-0.08-0.7C312.7,95.52,312.44,95.4,312.15,95.4"/>
	<path class="st96" d="M376.88,94.41c-7.58,0-13.56,2.79-17.79,8.29c-2.35-3.54-7.28-8.29-16.76-8.29c-7.98,0-12.57,3.3-15.62,6.79
		v-5.05c0-0.41-0.39-0.75-0.88-0.75h-4.75c-0.49,0-0.88,0.33-0.88,0.75v41.99c0,0.41,0.39,0.75,0.88,0.75h4.75
		c0.49,0,0.88-0.34,0.88-0.75v-24.21c0-8.03,6.56-14.32,14.94-14.32c8.38,0,13.58,5.11,13.58,13.33v25.2c0,0.41,0.4,0.75,0.88,0.75
		h4.76c0.49,0,0.88-0.34,0.88-0.75v-24.45c0-9.67,7.64-14.07,14.75-14.07c8.75,0,13.78,4.95,13.78,13.58v24.95
		c0,0.41,0.39,0.75,0.88,0.75h4.75c0.49,0,0.88-0.34,0.88-0.75V112.7C396.78,101.59,388.97,94.41,376.88,94.41"/>
	<g>
		
			<ellipse transform="matrix(0.1391 -0.9903 0.9903 0.1391 -47.5797 151.5273)" class="st96" cx="63.36" cy="103.13" rx="9.71" ry="9.88"/>
		<g>
			<defs>
				<path id="SVGID_90_" d="M94.37,107.67c-1.71-3.32-1.43-7.46,1.06-10.54c3.36-4.16,9.47-4.8,13.64-1.42
					c4.17,3.37,4.83,9.48,1.47,13.64c-2.49,3.08-6.49,4.23-10.09,3.25c-0.03,0-0.06,0-0.1,0c-0.96-0.14-2.08,0.53-2.8,1.42
					c-0.08,0.1-0.15,0.18-0.21,0.24l-7.07,8.74c-0.05,0.07-0.11,0.16-0.19,0.25c-0.72,0.89-1.14,2.13-0.8,3.04
					c0.01,0.03,0.02,0.07,0.02,0.09c1.72,3.32,1.43,7.47-1.06,10.55c-3.36,4.16-9.47,4.8-13.64,1.42
					c-4.17-3.37-4.83-9.48-1.47-13.64c2.49-3.08,6.49-4.23,10.09-3.25c0.03,0,0.06,0,0.1,0c0.96,0.14,2.08-0.53,2.8-1.42
					c0.06-0.07,0.11-0.13,0.15-0.18l7.17-8.87c0.04-0.06,0.09-0.12,0.14-0.19c0.72-0.89,1.14-2.13,0.8-3.04
					C94.38,107.73,94.37,107.7,94.37,107.67z"/>
			</defs>
			<use xlink:href="#SVGID_90_"  style="overflow:visible;fill-rule:evenodd;clip-rule:evenodd;fill:#84BE42;"/>
			<clipPath id="SVGID_3_">
				<use xlink:href="#SVGID_90_"  style="overflow:visible;"/>
			</clipPath>
			
				<rect x="61.88" y="104.76" transform="matrix(0.6287 -0.7776 0.7776 0.6287 -56.9011 114.8593)" style="clip-path:url(#SVGID_3_);fill:#84BE42;" width="59.91" height="24.52"/>
		</g>
	</g>
</g>
</svg>
