<?xml version="1.0" encoding="UTF-8" standalone="no"?>
<svg
   xmlns:dc="http://purl.org/dc/elements/1.1/"
   xmlns:cc="http://creativecommons.org/ns#"
   xmlns:rdf="http://www.w3.org/1999/02/22-rdf-syntax-ns#"
   xmlns:svg="http://www.w3.org/2000/svg"
   xmlns="http://www.w3.org/2000/svg"
   xmlns:sodipodi="http://sodipodi.sourceforge.net/DTD/sodipodi-0.dtd"
   xmlns:inkscape="http://www.inkscape.org/namespaces/inkscape"
   inkscape:version="1.0 (4035a4f, 2020-05-01)"
   sodipodi:docname="Baidu_Earliest.svg"
   viewBox="0 0 422.32075 211.22099"
   height="211.22099"
   width="422.32074"
   id="svg1507"
   version="1.1">
  <metadata
     id="metadata1513">
    <rdf:RDF>
      <cc:Work
         rdf:about="">
        <dc:format>image/svg+xml</dc:format>
        <dc:type
           rdf:resource="http://purl.org/dc/dcmitype/StillImage" />
        <dc:title />
      </cc:Work>
    </rdf:RDF>
  </metadata>
  <defs
     id="defs1511">
    <inkscape:path-effect
       lpeversion="1"
       is_visible="true"
       id="path-effect2161"
       effect="spiro" />
  </defs>
  <sodipodi:namedview
     inkscape:current-layer="g1515"
     inkscape:window-maximized="1"
     inkscape:window-y="25"
     inkscape:window-x="0"
     inkscape:cy="62.295138"
     inkscape:cx="49.45268"
     inkscape:zoom="1.4409627"
     showgrid="false"
     id="namedview1509"
     inkscape:window-height="847"
     inkscape:window-width="1440"
     inkscape:pageshadow="2"
     inkscape:pageopacity="0"
     guidetolerance="10"
     gridtolerance="10"
     objecttolerance="10"
     borderopacity="1"
     bordercolor="#666666"
     pagecolor="#ffffff"
     inkscape:document-rotation="0"
     inkscape:pagecheckerboard="true" />
  <g
     id="g1515"
     inkscape:label="Image"
     inkscape:groupmode="layer"
     transform="translate(-3.1945778,-2.0410638)">
    <g
       id="g2225"
       transform="matrix(3.0496281,0,0,3.0326657,-16.028343,-28.931551)">
      <path
         sodipodi:nodetypes="ccccccssscccccccsscc"
         id="path2227"
         fill="#2319dc"
         d="m 89.241,47.789 c 7.75,-1.665 6.692,-10.937 6.465,-12.963 -0.382,-3.125 -4.055,-8.582 -9.039,-8.146 -6.275,0.559 -7.191,9.623 -7.191,9.623 -0.85,4.197 2.028,13.155 9.765,11.486 m 14.392,-15.543 c 4.278,0 7.736,-4.93 7.736,-11.02 0,-6.091 -3.458,-11.013 -7.736,-11.013 -4.28,0 -7.747,4.922 -7.747,11.013 0,6.09 3.466,11.02 7.747,11.02 m 18.444,0.725 c 5.727,0.75 9.396,-5.359 10.13,-9.988 0.75,-4.623 -2.95,-10 -6.995,-10.923 -4.063,-0.934 -9.135,5.57 -9.592,9.813 -0.557,5.19 0.736,10.365 6.457,11.098 m 22.679,7.777 c 0,-2.214 -1.833,-8.888 -8.659,-8.888 -6.84,0 -7.744,6.298 -7.744,10.748 0,4.247 0.354,10.171 8.848,9.987 8.485,-0.188 7.555,-9.618 7.555,-11.847" />
    </g>
    <path
       inkscape:original-d="m 340.64225,94.071384 c 5.48414,1.981213 21.20357,26.542326 31.80079,39.808936 10.59724,13.26662 15.71641,15.62898 23.57002,23.43891 7.85362,7.80994 -4.73589,26.2943 -7.10841,39.43689 -2.37251,13.1426 -19.95039,10.91639 -29.93017,16.37003 -9.97979,5.45365 -17.45623,-6.94183 -26.1889,-10.41729 -8.73267,-3.47546 -16.95736,0.003 -25.44064,0 -8.48327,-0.003 -20.94807,2.9794 -31.42668,4.46456 -10.47861,1.48515 -20.19981,-7.93396 -30.30429,-11.90548 -10.10449,-3.97153 -5.73357,-20.58352 -8.60493,-30.87983 -2.87136,-10.29631 16.96348,-18.10321 25.44064,-27.15937 8.47717,-9.05616 16.71406,-14.87882 25.06652,-22.32277 8.35246,-7.44396 12.22453,-12.15047 18.33223,-18.230263 6.1077,-6.079785 12.22453,-5.701675 18.33223,-8.55706 6.1077,-2.855389 10.97744,3.971524 16.46159,5.952737 z"
       inkscape:path-effect="#path-effect2161"
       id="path2159"
       d="m 340.64225,94.071384 c 6.80859,5.13348 11.85106,12.221396 16.53976,19.343586 4.6887,7.1222 9.19609,14.47152 15.26103,20.46535 3.9683,3.92177 8.52801,7.18558 12.78531,10.79157 4.2573,3.60598 8.2893,7.65729 10.78471,12.64734 3.1477,6.29442 3.60401,13.73127 2.06952,20.59953 -1.53449,6.86827 -4.95538,13.20728 -9.17793,18.83736 -3.572,4.76267 -7.7944,9.12359 -12.88891,12.20388 -5.09452,3.08029 -11.12363,4.81724 -17.04126,4.16615 -4.69054,-0.51608 -9.09181,-2.4771 -13.30443,-4.60344 -4.21262,-2.12634 -8.36436,-4.45883 -12.88447,-5.81385 -8.20117,-2.45852 -17.01691,-1.53111 -25.44064,0 -10.43184,1.8961 -20.82644,4.69552 -31.42668,4.46456 -11.11499,-0.24218 -22.39495,-4.09242 -30.30429,-11.90548 -3.99964,-3.95096 -7.08033,-8.86655 -8.66537,-14.26051 -1.58504,-5.39396 -1.64295,-11.26155 0.0604,-16.61932 1.91275,-6.01628 5.92974,-11.17292 10.54473,-15.48059 4.615,-4.30768 9.85831,-7.87393 14.89591,-11.67878 8.93683,-6.74991 17.26657,-14.28605 25.06652,-22.32277 6.00535,-6.18764 11.72145,-12.69414 18.33223,-18.230263 2.63399,-2.205804 5.41832,-4.260384 8.47995,-5.819181 3.06164,-1.558797 6.41893,-2.613064 9.85228,-2.737879 5.94681,-0.216189 11.71008,2.370231 16.46159,5.952737 z"
       style="fill:#2319dc;fill-opacity:1;stroke:none;stroke-width:3.04114px;stroke-linecap:butt;stroke-linejoin:miter;stroke-opacity:1" />
    <text
       transform="scale(1.0027927,0.99721506)"
       id="text2165"
       y="-85.414185"
       x="422.95496"
       style="font-style:normal;font-variant:normal;font-weight:bold;font-stretch:normal;font-size:121.645px;line-height:1.25;font-family:Arial;-inkscape-font-specification:'Arial Bold';letter-spacing:0px;word-spacing:0px;stroke-width:3.04114"
       xml:space="preserve"><tspan
         style="stroke-width:3.04114"
         y="-85.414185"
         x="422.95496"
         id="tspan2163"
         sodipodi:role="line" /></text>
    <g
       aria-label="d"
       transform="matrix(3.3735931,0,0,2.7414397,-6.5476964,-4.1487995)"
       id="text2177"
       style="font-style:normal;font-variant:normal;font-weight:bold;font-stretch:condensed;font-size:36.0418px;line-height:1.25;font-family:Arial;-inkscape-font-specification:'Arial Bold Condensed';letter-spacing:0px;word-spacing:0px;fill:#ffffff;fill-opacity:1;stroke-width:0.901041">
      <path
         d="m 95.734428,71.465233 h -4.593217 v -2.745372 q -1.143905,1.601467 -2.710175,2.393401 -1.548671,0.774336 -3.132539,0.774336 -3.220532,0 -5.525941,-2.586985 -2.287809,-2.604583 -2.287809,-7.250597 0,-4.751605 2.235014,-7.2154 2.235014,-2.481393 5.64913,-2.481393 3.132539,0 5.420349,2.604583 v -9.292027 h 4.945188 z M 82.535527,61.715644 q 0,2.991751 0.827131,4.32924 1.1967,1.935839 3.343722,1.935839 1.707058,0 2.903758,-1.44308 1.1967,-1.460679 1.1967,-4.346839 0,-3.220532 -1.161503,-4.628414 -1.161503,-1.425482 -2.974153,-1.425482 -1.759853,0 -2.956554,1.407883 -1.179101,1.390284 -1.179101,4.170853 z"
         style="font-style:normal;font-variant:normal;font-weight:bold;font-stretch:condensed;font-family:Arial;-inkscape-font-specification:'Arial Bold Condensed';fill:#ffffff;fill-opacity:1;stroke-width:0.901041"
         id="path40" />
    </g>
    <g
       transform="matrix(3.0496281,0,0,3.0326657,-6.5476964,-4.1487995)"
       aria-label="u"
       id="text2185"
       style="font-style:normal;font-variant:normal;font-weight:bold;font-stretch:normal;font-size:32.2726px;line-height:1.25;font-family:Arial;-inkscape-font-specification:'Arial Bold';letter-spacing:0px;word-spacing:0px;fill:#ffffff;stroke-width:0.806816">
      <path
         d="m 120.78022,64.620018 v -2.505539 q -0.91397,1.339439 -2.41099,2.111586 -1.48126,0.772148 -3.13586,0.772148 -1.68612,0 -3.02555,-0.740631 -1.33944,-0.740631 -1.93825,-2.08007 -0.59881,-1.339439 -0.59881,-3.703155 V 47.884911 h 4.42803 v 7.689955 q 0,3.529815 0.23637,4.333479 0.25213,0.787905 0.89821,1.260648 0.64608,0.456985 1.63884,0.456985 1.13459,0 2.0328,-0.614566 0.89821,-0.630324 1.22913,-1.544294 0.33092,-0.929728 0.33092,-4.522576 v -7.059631 h 4.42803 v 16.735107 z"
         style="stroke-width:0.806816"
         id="path43" />
    </g>
    <g
       transform="matrix(3.0496281,0,0,3.0326657,-6.5476964,-4.1487995)"
       aria-label="Bai"
       id="text31"
       style="font-weight:bold;font-size:40px;line-height:1.25;font-family:'Arial Black';-inkscape-font-specification:'Arial Black, Bold';fill:#e20310;fill-opacity:1">
      <path
         d="M 3.1945778,26.936444 H 23.749461 q 5.138721,0 7.877755,2.674969 2.763275,2.674969 2.763275,6.623733 0,3.311866 -1.96338,5.681125 -1.308919,1.579505 -3.8298,2.496637 3.8298,0.968085 5.623505,3.337343 1.817944,2.343782 1.817944,5.910407 0,2.904249 -1.284681,5.222564 -1.28468,2.318301 -3.514691,3.668529 -1.381637,0.840703 -4.16915,1.222843 -3.708605,0.509511 -4.920568,0.509511 H 3.1945778 Z M 14.271914,41.585083 h 4.775132 q 2.569361,0 3.56317,-0.917132 1.018049,-0.942608 1.018049,-2.700444 0,-1.630458 -1.018049,-2.54759 -0.993809,-0.917132 -3.490452,-0.917132 h -4.84785 z m 0,14.67412 h 5.599267 q 2.835992,0 3.999476,-1.04451 1.163484,-1.069998 1.163484,-2.8533 0,-1.655939 -1.163484,-2.649499 -1.139245,-1.019036 -4.023715,-1.019036 h -5.575028 z"
         id="path33"
         style="stroke-width:1.27232" />
      <path
         d="m 45.589646,50.633549 -7.597657,-0.800782 q 0.429688,-1.992187 1.230469,-3.125 0.820313,-1.152343 2.34375,-1.992187 1.09375,-0.605469 3.007813,-0.9375 1.914062,-0.332031 4.140625,-0.332031 3.574218,0 5.742187,0.410156 2.167969,0.390625 3.613281,1.660156 1.015625,0.878906 1.601563,2.5 0.585937,1.601563 0.585937,3.066406 v 9.160159 q 0,1.464841 0.175782,2.304691 0.195312,0.82031 0.820312,2.10937 h -7.460937 q -0.449219,-0.80078 -0.585938,-1.21094 -0.136719,-0.42968 -0.273437,-1.32812 -1.5625,1.5039 -3.105469,2.14844 -2.109375,0.85937 -4.902344,0.85937 -3.710937,0 -5.644531,-1.71875 -1.914063,-1.71875 -1.914063,-4.238281 0,-2.363281 1.386719,-3.886721 1.386719,-1.523436 5.117188,-2.265624 4.472656,-0.898437 5.800781,-1.25 1.328125,-0.371094 2.8125,-0.957031 0,-1.464844 -0.605469,-2.050781 -0.605469,-0.585938 -2.128906,-0.585938 -1.953125,0 -2.929688,0.625 -0.761718,0.488281 -1.230468,1.835938 z m 6.894531,4.179687 q -1.640625,0.585939 -3.417969,1.035159 -2.421875,0.64453 -3.066406,1.26953 -0.664063,0.64453 -0.664063,1.46484 0,0.937501 0.644532,1.542971 0.664062,0.58594 1.933593,0.58594 1.328125,0 2.460938,-0.64453 1.152344,-0.64453 1.621094,-1.562501 0.488281,-0.9375 0.488281,-2.42188 z"
         id="path35" />
      <path
         d="m 63.253708,36.024176 h 7.949218 v 5.410156 h -7.949218 z m 0,7.890625 h 7.949218 v 20.742186 h -7.949218 z"
         id="path37" />
    </g>
  </g>
</svg>
