<svg xmlns="http://www.w3.org/2000/svg" role="img" viewBox="-6.70 52.80 413.14 139.14"><title>Beijing Proinsight Technology Co., Ltd. logo</title><style>svg {enable-background:new 0 0 400 245}</style><style>.st16{fill:#231916}.st17{fill:#e50013}</style><path d="M215.81 165.36c-1.94 1.65-4.26 3.44-6.96 5.38l-.19-3.36c7.26-5.17 12.47-10.21 15.63-15.11h-11.03l.73-3.09h7c-.28-1.97-.72-3.92-1.32-5.83l3.31-.9c.53 2.18.89 4.26 1.09 6.23l-1.42.49h5.61l-.64 2.74c-1.93 3.26-4.49 6.49-7.67 9.69 2.09 1.53 3.91 3.26 5.46 5.2l-2.49 2.78c-1.15-1.7-2.42-3.23-3.81-4.57l-4.47 18.97h-3.18l4.35-18.62zm23.18-14.44h3.14l-2.02 8.57c-1.76 6.7-4.19 12.05-7.28 16.05-3.07 3.77-7.24 6.67-12.5 8.7l-1.08-2.83c5.21-2.06 9.12-4.78 11.75-8.16 2.57-3.56 4.57-8.15 5.98-13.77l2.01-8.56z" class="st16"/><path d="M251.68 144.64l-5.84 24.8h-3.28l5.12-21.71h-12.6l-5.12 21.71h-3.18l5.84-24.8zm31.55 29.06c-2.67 3.95-5.42 7.32-8.27 10.13l-2.19-1.93c2.86-2.63 5.54-5.8 8.03-9.51l2.43 1.31zm16.81-30.77h3.18l-1.03 4.35h17.4l-.72 3.05h-17.4l-1.34 5.7h14.31l-3.39 14.39h-29.69l3.39-14.39h12.2l3.09-13.1zm8.48 24.49l1.97-8.34h-23.23l-1.97 8.34h23.23zm-18.25 6.28c.21 2.93.26 6.14.15 9.64l-3.4.72c.26-3.77.29-7.01.1-9.73l3.15-.63zm9.48-.45c.61 2.99.99 6.32 1.14 10l-3.35.72c0-3.83-.32-7.19-.99-10.09l3.2-.63zm9.41-.9c1.9 3.62 3.31 6.89 4.23 9.82l-3.13 1.88c-.83-2.96-2.19-6.31-4.09-10.05l2.99-1.65z" class="st16"/><path d="M129.69 116.74l.45-1.95c.52-.02 1.22-.08 2.11-.17.89-.1 1.58-.23 2.06-.39.7-.23 1.23-.58 1.59-1.06.37-.47.62-1.02.76-1.64l6.14-26.54c.09-.37.15-.69.19-.94.04-.25.05-.44.05-.56 0-.75-.42-1.33-1.24-1.75-.83-.42-2.1-.75-3.81-1l.45-1.95h21.07l-.45 1.95c-.57.04-1.3.12-2.19.25-.89.13-1.56.27-2.01.41-.73.23-1.27.59-1.62 1.08-.35.49-.59 1.04-.74 1.65l-6.14 26.56c-.07.3-.13.59-.17.85-.04.27-.07.47-.07.62 0 .89.41 1.51 1.24 1.86.83.35 2.11.6 3.84.76l-.45 1.95h-21.06zm76.7-37.97l-.45 1.95c-.5.05-1.23.15-2.18.28-.95.13-1.89.49-2.8 1.06-.77.48-1.42 1.31-1.97 2.49-.54 1.18-1.08 2.9-1.62 5.16l-6.29 27.23h-4.5l-16.37-30.41-4.34 18.99c-.23 1-.41 1.94-.54 2.81-.12.87-.19 1.57-.19 2.09 0 .73.07 1.3.21 1.7.14.4.35.74.62 1 .41.41 1.13.77 2.15 1.07 1.03.3 1.79.5 2.29.59l-.45 1.95h-16.33l.46-1.95c.48-.07 1.24-.2 2.29-.37 1.04-.18 1.94-.5 2.69-.96.78-.5 1.45-1.31 1.98-2.45.54-1.13 1.06-2.86 1.58-5.18l4.13-17.87c.09-.41.16-.8.23-1.16.06-.36.09-.7.09-1 0-.54-.06-1.05-.19-1.54-.12-.49-.36-.94-.7-1.35-.5-.61-1.12-1.07-1.85-1.4-.73-.33-1.59-.58-2.57-.76l.48-1.95h14.03l14.32 26.77L194.16 90c.25-1.14.43-2.07.55-2.8.12-.72.17-1.4.17-2.02 0-.7-.08-1.26-.23-1.7-.15-.44-.37-.8-.65-1.08-.39-.39-1.08-.74-2.07-1.06-.99-.31-1.75-.51-2.28-.6l.45-1.95h16.29zm10.46 39.01c-2.11 0-4.22-.26-6.35-.78s-4-1.23-5.6-2.13l-2.3 1.87h-2.27l2.84-13.73h2.3c.21 1.34.61 2.73 1.18 4.17s1.31 2.72 2.22 3.85c.89 1.16 2.02 2.13 3.4 2.9 1.37.77 2.94 1.15 4.71 1.15 2.59 0 4.65-.63 6.21-1.89 1.55-1.26 2.33-2.92 2.33-4.97 0-1.32-.44-2.48-1.32-3.48-.88-1-2.3-1.86-4.27-2.57-1.25-.45-2.46-.88-3.63-1.3-1.17-.42-2.28-.85-3.33-1.3-2.09-.87-3.66-2.12-4.71-3.74-1.05-1.62-1.58-3.34-1.58-5.16 0-1.68.38-3.29 1.15-4.84.77-1.54 1.87-2.92 3.32-4.14 1.41-1.2 3.15-2.16 5.23-2.88 2.08-.72 4.36-1.09 6.84-1.09 2.07 0 4.12.3 6.15.91 2.03.6 3.53 1.18 4.49 1.74l2.01-1.61h2.33l-2.78 12.95h-2.3c-.23-1.52-.57-2.95-1-4.29-.44-1.34-1.04-2.55-1.8-3.62-.75-1.04-1.68-1.86-2.8-2.48-1.11-.62-2.46-.92-4.03-.92-2.18 0-3.99.61-5.44 1.82-1.45 1.21-2.18 2.74-2.18 4.58 0 1.29.44 2.41 1.31 3.37.87.97 2.26 1.8 4.15 2.52 1.11.41 2.26.83 3.48 1.27 1.21.44 2.37.89 3.48 1.35 2.07.86 3.7 2.02 4.9 3.5 1.19 1.47 1.79 3.22 1.79 5.24 0 1.91-.44 3.71-1.31 5.38-.87 1.68-2.1 3.13-3.66 4.34-1.66 1.29-3.6 2.27-5.81 2.96-2.26.71-4.69 1.05-7.35 1.05zm18.76-1.04l.45-1.95c.52-.02 1.22-.08 2.11-.17.89-.1 1.58-.23 2.06-.39.7-.23 1.23-.58 1.59-1.06.36-.47.62-1.02.76-1.64l6.13-26.54c.09-.37.15-.69.19-.94.04-.25.05-.44.05-.56 0-.75-.41-1.33-1.24-1.75-.83-.42-2.1-.75-3.81-1l.45-1.95h21.1l-.45 1.94c-.57.04-1.3.12-2.22.25-.89.13-1.56.27-2.01.41-.73.23-1.27.59-1.62 1.08s-.59 1.04-.74 1.65l-6.14 26.56c-.07.3-.13.59-.17.85-.04.27-.07.47-.07.62 0 .89.42 1.51 1.24 1.86.83.35 2.11.6 3.84.76l-.46 1.95h-21.04zm45.75 1.04c-2.43 0-4.67-.34-6.74-1.03-2.07-.69-3.87-1.7-5.4-3.04-1.55-1.34-2.76-2.97-3.63-4.9-.87-1.93-1.3-4.1-1.3-6.51 0-3.57.63-6.85 1.89-9.84 1.26-2.99 3.01-5.59 5.26-7.8 2.21-2.18 4.85-3.88 7.93-5.1 3.08-1.22 6.4-1.83 9.97-1.83 2.16 0 4.3.27 6.43.8s3.73 1.1 4.8 1.72l1.98-1.47h2.33l-2.94 13.86h-2.35c-.39-4.12-1.49-7.22-3.3-9.3-1.81-2.08-4.15-3.12-7.02-3.12-2.28 0-4.32.68-6.1 2.03-1.78 1.36-3.29 3.11-4.52 5.27-1.21 2.1-2.15 4.61-2.82 7.53-.67 2.92-1 5.79-1 8.63 0 3.53.69 6.34 2.08 8.41 1.39 2.08 3.43 3.12 6.13 3.12 1.47 0 2.73-.24 3.81-.72 1.07-.48 2.02-1.07 2.84-1.77l1.67-7.25c.07-.32.13-.62.17-.9.04-.28.07-.5.07-.66 0-.75-.46-1.33-1.39-1.75s-2.25-.75-3.97-1l.45-1.95h20.55l-.45 1.95c-.55.04-1.2.13-1.93.27s-1.32.28-1.77.4c-.75.23-1.29.59-1.63 1.08-.34.49-.58 1.03-.72 1.62l-1.07 4.63c-.18.78-.33 1.49-.44 2.13-.12.63-.24 1.31-.36 2.05-2.05 1.18-4.77 2.21-8.15 3.1-3.42.89-6.53 1.34-9.36 1.34zm78.17-39.01l-.45 1.95c-.55.04-1.25.12-2.09.27-.84.14-1.47.28-1.9.4-.73.23-1.27.59-1.62 1.08-.35.49-.59 1.04-.74 1.65l-6.11 26.57c-.07.3-.13.58-.18.85-.04.27-.07.47-.07.62 0 .8.34 1.4 1.03 1.78.69.38 1.97.67 3.84.84l-.45 1.95h-20.54l.45-1.95c.46-.04 1.12-.09 1.98-.16.86-.07 1.47-.18 1.84-.32.7-.25 1.23-.61 1.61-1.07.37-.46.63-1.02.78-1.66l3.06-13.3h-15.94l-2.87 12.41c-.07.3-.13.59-.17.85-.04.27-.07.47-.07.62 0 .8.33 1.39.99 1.77.66.37 1.92.66 3.77.86l-.46 1.95h-20.53l.45-1.95c.45-.02 1.11-.08 1.99-.17.88-.1 1.54-.22 1.97-.36.7-.23 1.23-.59 1.59-1.07.37-.48.62-1.03.76-1.66l6.14-26.54c.09-.37.15-.69.19-.94.04-.25.05-.44.05-.56 0-.75-.38-1.33-1.14-1.75-.76-.42-1.99-.75-3.71-1l.45-1.95H334l-.45 1.95c-.55.04-1.23.12-2.02.27-.79.14-1.41.28-1.86.4-.75.23-1.29.6-1.63 1.11-.34.51-.58 1.05-.72 1.62l-2.66 11.53h15.94l2.46-10.67c.09-.37.15-.69.19-.94.04-.25.05-.44.05-.56 0-.75-.37-1.32-1.1-1.73-.73-.4-1.94-.74-3.64-1.03l.45-1.95h20.52zm39.25 0l-2.52 10.86h-2.06c-.07-.61-.21-1.36-.41-2.27-.21-.91-.49-1.81-.84-2.7-.37-.93-.78-1.69-1.22-2.3-.44-.61-.96-.96-1.56-1.07-.54-.07-1.22-.13-2.05-.19-.83-.05-1.55-.08-2.15-.08h-1.34l-6.82 29.51c-.07.3-.13.59-.17.87-.04.28-.07.48-.07.6 0 .43.09.81.25 1.14.17.33.49.59.95.79.43.18 1.05.35 1.87.52.82.17 1.5.28 2.03.33l-.46 1.95h-21.16l.46-1.95c.5-.04 1.23-.11 2.19-.21.96-.11 1.65-.23 2.06-.37.71-.29 1.25-.67 1.61-1.15.36-.48.61-1.05.75-1.71l7.01-30.31h-1.04c-.68 0-1.36.02-2.05.07-.69.04-1.47.11-2.34.2-.64.09-1.36.47-2.15 1.15-.79.68-1.56 1.42-2.31 2.22-.89 1-1.63 1.9-2.21 2.72-.58.81-1.08 1.56-1.48 2.26h-2.06l2.52-10.86h36.77z" class="st16"/><path d="M43.68 86.75c0 2.19-.5 4.16-1.51 5.9-1.01 1.74-2.46 3.2-4.35 4.37-1.87 1.14-3.96 1.99-6.27 2.54-2.31.55-4.85.83-7.64.83h-3.85l-2.38 10.3c-.07.3-.13.59-.17.85-.05.27-.07.47-.07.62 0 .8.33 1.39.99 1.77.66.37 1.95.66 3.88.86l-.45 1.95H1.22l.45-1.95c.45-.02 1.11-.09 1.99-.2.88-.11 1.54-.24 1.97-.39.7-.23 1.23-.58 1.59-1.04.37-.46.62-1.01.76-1.63l6.14-26.54c.09-.37.15-.69.19-.94.04-.25.05-.44.05-.56 0-.75-.38-1.33-1.14-1.75-.76-.42-1.99-.75-3.71-1l.45-1.95h20.57c4.42 0 7.72.65 9.88 1.95 2.19 1.29 3.27 3.29 3.27 6.01zM32.5 91.21c.39-1.34.59-2.8.59-4.39 0-1.93-.52-3.37-1.55-4.32-1.03-.95-2.72-1.43-5.05-1.43h-1.95L20.63 98h1.74c1.93 0 3.58-.29 4.96-.87 1.38-.58 2.5-1.39 3.36-2.42.81-.99 1.42-2.16 1.81-3.5zm23.87 19.48c-.07.3-.13.59-.17.85-.04.27-.07.47-.07.62 0 .8.33 1.39.99 1.77.66.37 1.92.66 3.77.86l-.45 1.95H39.91l.46-1.95c.45-.02 1.11-.09 1.99-.2.88-.11 1.54-.24 1.97-.39.7-.23 1.23-.58 1.59-1.04.36-.46.62-1.01.76-1.63l6.14-26.54c.09-.37.15-.69.19-.94.03-.25.05-.44.05-.56 0-.75-.38-1.33-1.14-1.75-.76-.42-1.99-.75-3.71-1l.45-1.95h20.92c4.35 0 7.62.62 9.8 1.85 2.18 1.23 3.28 3.09 3.28 5.59 0 2.94-1.06 5.41-3.18 7.4-2.12 1.99-5.12 3.45-8.99 4.37.73 1.34 1.65 3 2.77 4.99 1.11 1.99 2.41 4.28 3.89 6.86.43.77.99 1.64 1.67 2.61.69.97 1.41 1.59 2.18 1.86.37.13.89.23 1.55.32s1.13.14 1.42.16l-.48 1.95H69.64c-1.68-3.84-3.11-6.91-4.29-9.22-1.18-2.31-2.67-4.97-4.45-7.99h-1.92l-2.61 11.15zm15.7-23.94c0-1.91-.6-3.34-1.81-4.27-1.2-.94-2.95-1.41-5.23-1.41h-1.82L59.5 97.23h2.59c2.9 0 5.29-.92 7.16-2.75 1.88-1.82 2.82-4.4 2.82-7.73z" class="st17"/><path d="M117.01 97.76c0 4.83-3.92 8.75-8.75 8.75s-8.75-3.92-8.75-8.75 3.92-8.75 8.75-8.75c4.83-.01 8.75 3.91 8.75 8.75z" class="st17"/><path d="M108.26 120.19c-12.37 0-22.44-10.07-22.44-22.44 0-12.37 10.07-22.44 22.44-22.44 12.37 0 22.44 10.07 22.44 22.44 0 12.38-10.07 22.44-22.44 22.44zm0-41.42c-10.47 0-18.98 8.52-18.98 18.98 0 10.47 8.52 18.98 18.98 18.98 10.47 0 18.98-8.52 18.98-18.98s-8.52-18.98-18.98-18.98z" class="st17"/><path d="M83.75 74.9c6.13-6.56 14.84-10.68 24.51-10.68 9.67 0 18.38 4.12 24.51 10.68h4.55c-6.78-8.6-17.28-14.14-29.06-14.14-11.78 0-22.28 5.54-29.05 14.14h4.54zm49.02 45.71c-6.13 6.56-14.84 10.68-24.51 10.68-9.66 0-18.38-4.12-24.51-10.68H79.2c6.78 8.6 17.28 14.14 29.05 14.14 11.78 0 22.28-5.54 29.06-14.14h-4.54z" class="st17"/><path d="M243.31 179.57c-.41.48-.93.72-1.56.72h-2.78c-.99 0-1.35-.54-1.1-1.62l2.2-9.33h-3.14l-2.36 10c-.61 2.6.31 3.9 2.76 3.9h4.31c1.38 0 2.49-.34 3.34-1.03.91-.81 1.93-3.06 3.08-6.77H245c-.66 2.23-1.22 3.61-1.69 4.13z" class="st16"/><g><path d="M157.08 175.09c-3.09 2.21-7.28 4.11-12.55 5.69l1.17 2.65c5.01-1.62 9.32-3.71 12.92-6.28l-1.54-2.06zm14.79-15.56c-.2-1.19-.37-2.06-.51-2.6h13.9l3.01-12.78h-29.55l-3.01 12.78h11.97c.27.75.53 1.61.78 2.6h-18.34l-.63 2.69h39.46l.63-2.69h-17.71zm-10.61-12.83h23.28l-.61 2.6h-23.28l.61-2.6zm-1.8 7.67l.63-2.69h23.28l-.63 2.69h-23.28zm12.57 23.5c4.11 1.35 7.9 3.2 11.38 5.56l1.82-2.96c-3.52-2.3-7.27-4.02-11.25-5.16l-1.95 2.56z" class="st16"/><path d="M183 164.64h-28.34l-2.14 9.06h12.92l-1.32 5.6c-.27 1.14-.85 1.71-1.75 1.71-1.18 0-2.52-.06-4.02-.16l-.69 2.94h5.13c2.3 0 3.75-1.24 4.33-3.72l1.5-6.37h12.24l2.14-9.06zm-4.67 6.5h-22.06l.93-3.95h22.06l-.93 3.95z" class="st16"/></g><path d="M98.36 150.42c-1.58-2.3-3.59-4.56-6.03-6.77l-2.69 2.11c2.67 2.6 4.63 4.92 5.85 6.95l2.87-2.29zm26.89-5.47h-20l-.74 3.14h20zm-26.03 13.41h6.77c-.87 3.29-1.93 6.09-3.19 8.39-1.79 3.02-4.59 5.56-8.39 7.62l1.46 2.56c4.5-2.45 7.76-5.59 9.8-9.42 1.37-2.63 2.52-5.68 3.46-9.15h4.93l-3.49 14.8c-.24 1.02-.15 1.85.26 2.51.44.66 1.22.99 2.32.99h3.41c1.44 0 2.52-.33 3.24-.99.83-.75 1.81-2.91 2.92-6.5h-3.02c-.74 2.46-1.35 3.85-1.82 4.17-.36.27-.81.4-1.35.4h-1.71c-.87 0-1.2-.42-1-1.26l3.33-14.13h7.31l.73-3.09H99.95l-.73 3.1z" class="st16"/><path d="M119.34 183.16l.75-3.18c-.98.04-2.4.09-4.29.14-2.94.06-5.1.09-6.48.09-2.69 0-5.58-.03-8.68-.09-2.61-.09-4.51-.45-5.71-1.08-1.06-.57-1.99-1.51-2.79-2.83-.28-.45-.56-.79-.83-1.03l3.95-16.77h-9.42l-.7 2.96h6.41L88.35 175c-2.01.81-4.66 3.1-7.94 6.86l2.29 1.74c3.46-4.13 5.32-5.73 6.37-5.73.57 0 1.05.38 1.44 1.12 1.05 1.64 2.36 2.74 3.94 3.27 1.67.51 3.93.78 6.76.81 3.75.06 6.38.09 7.87.09h10.26z" class="st16"/></svg>