<svg xmlns="http://www.w3.org/2000/svg" role="img" viewBox="-0.53 -1.16 105.82 53.07"><style>.st0{fill:#6f6f6f}</style><style>.st0{fill:#6f6f6f}</style><style>.st0{fill:#6f6f6f}</style><style>.st0{fill:#6f6f6f}</style><style id="style12">.st0{fill:#6f6f6f}</style><g id="BMW_Group"><path id="path14" d="M57.9 22.7L62 7.4l3.8 15.3h5.1L76.2.9h-4.8L68 16.7 64.3.9h-4.6l-3.8 15.8L52.7.9h-4.9l5 21.8zm-30.8 0V7.2l5.2 15.5h3.8l5.1-15.5v15.5h4.5V1h-6.2l-5.3 16.1L28.9 1h-6.2v21.7zM6.8 4.6h5c1 0 1.7.1 2.2.3.9.4 1.3 1.1 1.3 2.1 0 .9-.3 1.5-.8 1.9s-1.4.6-2.6.6H6.8V4.6zm0 8.6h4.9c1.3 0 2.2.2 2.9.5.9.4 1.3 1.3 1.3 2.4 0 1-.3 1.7-.8 2.2-.7.5-1.8.8-3.3.8h-5v-5.9zm4.7 9.5c6 0 9-2.2 9-6.5 0-2.4-1.2-4.1-3.5-5 1.9-.9 2.8-2.4 2.8-4.7 0-2-.8-3.4-2.2-4.3-1.2-.8-2.8-1.2-5-1.2H2.2v21.7h9.3z" class="st0"/><path id="path16" d="M65.2 41c0 2.7.7 4.9 2.2 6.5 1.6 1.7 3.9 2.5 6.9 2.5s5.3-.8 6.8-2.3c1.6-1.6 2.3-3.8 2.3-6.6V27.7h-4.7v13.6c0 3.2-1.5 4.8-4.4 4.8-3 0-4.5-1.6-4.5-4.8V27.7h-4.7l.1 13.3zM57 33.2c1 1.4 1.6 3.1 1.6 5.5 0 2.5-.6 4.4-1.9 5.8-1 1.2-2.3 1.7-4 1.7-1.9 0-3.3-.7-4.3-2.1-1-1.4-1.5-3.1-1.5-5.4 0-2.3.5-4.1 1.5-5.5 1.1-1.4 2.4-2.1 4.2-2.1 1.9-.1 3.3.6 4.4 2.1m-11.9-3c-1.9 2.1-2.8 4.8-2.8 8.4 0 3.9 1.1 6.8 3.3 8.9 1.9 1.7 4.3 2.5 7.2 2.5 3.3 0 6-1 7.8-3 1.9-2.1 2.8-4.8 2.8-8.3s-1-6.4-2.8-8.4c-1.9-2.1-4.4-3-7.7-3-3.3-.1-5.9.9-7.8 2.9m-17 1.2h4.5c1.3 0 2.2.2 2.8.7.6.5 1 1.2 1 2.2 0 2.1-1.3 3-3.7 3h-4.5l-.1-5.9zm.1 18v-8.5h4.7l3.9 8.5h5.3l-4.7-9.3c2.5-1.2 3.8-3.1 3.8-5.9 0-1.9-.5-3.4-1.5-4.5-1.3-1.5-3.2-2.2-5.9-2.2H23.5v21.8h4.7v.1zm-9-19.6c-1.6-1.8-4-2.7-7.2-2.7-3.3 0-6 1.1-7.8 3.1s-2.7 4.9-2.7 8.5c0 4 1.1 6.9 3.3 8.9 1.7 1.5 3.8 2.2 6.5 2.2 2.9 0 5.1-.9 6.5-2.7l.5 2.2h3V38h-8v3.4h3.5v1c0 1.1-.5 2.1-1.5 2.7-.9.7-2.1 1-3.4 1-1.9 0-3.2-.6-4.2-1.9s-1.5-3-1.5-5.4.5-4.3 1.5-5.7c1-1.4 2.3-2.1 4.2-2.1 2.5 0 4.2 1.3 5 3.9l4.4-1.1c-.6-1.5-1.2-2.9-2.1-4" class="st0"/><path id="path18" d="M90.4 31.4H95c1.1 0 2 .3 2.6.9.7.6 1 1.4 1 2.3 0 1-.4 1.9-1.1 2.4-.7.6-1.6.9-2.5.9h-4.5l-.1-6.5zm0 18v-7.8h5c2.3 0 4.3-.6 5.7-1.9 1.5-1.3 2.2-3 2.2-5.2s-.7-3.8-2-5.1c-1.3-1.2-3.1-1.9-5.5-1.9h-10v21.8h4.6v.1z" class="st0"/></g></svg>