<?xml version="1.0" encoding="utf-8"?>
<!-- Generator: Adobe Illustrator 22.0.1, SVG Export Plug-In . SVG Version: 6.00 Build 0)  -->
<svg version="1.1" id="Layer_1" xmlns="http://www.w3.org/2000/svg" xmlns:xlink="http://www.w3.org/1999/xlink" x="0px" y="0px"
	 viewBox="0 0 512 103" style="enable-background:new 0 0 512 103;" xml:space="preserve">
<style type="text/css">
	.st0{fill:#00578E;}
</style>
<g>
	<g>
		<path class="st0" d="M158.1,78h-16.5V27.7h16.7c9.3,0,17.4,3,17.4,12.5c0,6.5-3.5,10.1-8.9,11.5v0.1c6,0.9,11,4.9,11,12.1
			C177.8,74.3,169.6,78,158.1,78 M157.2,35.9H151v12.5h5.9c5.7,0,8.2-2,8.2-6.5C165.2,37.8,162.5,35.9,157.2,35.9 M157.1,56h-6v13.8
			h5.6c6.1,0,9.4-1.9,9.4-6.7C166,58.4,163.3,56,157.1,56"/>
		<path class="st0" d="M205.2,50.1c-0.6-0.4-1.7-0.8-3.9-0.8c-4.5,0-7.1,3.9-8,5.6V78h-10V41.2h10v5c1.6-2.7,4.6-5.9,9.3-5.9
			c2.7,0,4.1,0.5,5,1L205.2,50.1z"/>
		<path class="st0" d="M225.5,78.9c-12.8,0-18.4-9.7-18.4-19.2c0-9.4,5.5-19.4,18.3-19.4S244,50,244,59.4
			C244,68.7,238.4,78.9,225.5,78.9 M225.3,47.8c-5.7,0-7.6,4.8-7.6,11.6s2.3,11.8,7.9,11.8c5.7,0,7.8-4.7,7.8-11.6
			C233.4,52.8,231,47.8,225.3,47.8"/>
		<path class="st0" d="M268.7,78c-0.3-0.9-0.5-2.8-0.6-3.9c-1.7,2-5.1,4.8-10.3,4.8c-6.3,0-11.1-3.8-11.1-10.3
			c0-9.6,9.9-13.1,19.6-13.1h1.3v-2.1c0-3.2-1.3-5.1-6-5.1s-8,2.5-9.4,3.5l-4.4-6.1c2.2-2,7-5.3,14.9-5.3c10,0,14.8,3.9,14.8,13.6
			v13.2c0,5,0.5,8.5,1.1,10.9h-9.9V78z M266.6,61.7h-1.3c-5.9,0-10,1.7-10,6c0,2.7,2.2,3.8,4.4,3.8c3.6,0,5.7-2.1,6.8-3.3v-6.5
			H266.6z"/>
		<path class="st0" d="M299.2,40.3c4.5,0,7.2,1.6,8.5,2.6v-19h10v43.6c0,4.8,0.6,8.5,1.1,10.5H309c-0.3-0.9-0.7-2.9-0.8-4
			c-2.3,2.7-5.4,5-10.3,5c-9.2,0-15.1-6.9-15.1-19.2C282.8,47.9,289.8,40.3,299.2,40.3 M300.9,70.9c3.6,0,6-2.6,6.9-3.7V50.6
			c-1.3-1.1-3.2-2.4-6.4-2.4c-5.1,0-7.9,4.3-7.9,11.5C293.4,66.7,295.7,70.9,300.9,70.9"/>
		<path class="st0" d="M347.3,50.1c-0.6-0.4-1.7-0.8-3.8-0.8c-4.5,0-7.1,3.9-8,5.6V78h-10V41.2h10v5c1.6-2.7,4.6-5.9,9.3-5.9
			c2.7,0,4.2,0.5,5,1L347.3,50.1z"/>
		<path class="st0" d="M358.6,36.5c-3.3,0-5.7-2.6-5.7-5.6c0-2.9,2.4-5.5,5.7-5.5c3.3,0,5.7,2.5,5.7,5.5
			C364.4,33.9,361.9,36.5,358.6,36.5"/>
		<rect x="353.6" y="41.2" class="st0" width="10.1" height="36.8"/>
		<path class="st0" d="M385.7,40.3c4.5,0,7.2,1.6,8.5,2.6v-19h10v43.6c0,4.8,0.6,8.5,1.1,10.5h-9.9c-0.3-0.9-0.7-2.9-0.8-4
			c-2.3,2.7-5.4,5-10.3,5c-9.2,0-15.1-6.9-15.1-19.2C369.2,47.9,376.3,40.3,385.7,40.3 M387.4,70.9c3.6,0,6-2.6,6.9-3.7V50.6
			c-1.3-1.1-3.2-2.4-6.4-2.4c-5.1,0-7.9,4.3-7.9,11.5C379.9,66.7,382.2,70.9,387.4,70.9"/>
		<path class="st0" d="M445.6,40.3v7.5h-4.9c0.9,1.7,1.4,3.8,1.4,5.9c0,7.8-5.6,13.3-15.9,13.3c-1.6,0-3-0.2-4.4-0.4
			c-0.6,0.5-1.4,1.1-1.4,2.2c0,2,2.1,2.3,7.4,2.6c7.6,0.4,17.3,0.5,17.3,11.3c0,7.8-8.1,13.3-20.1,13.3c-10.1,0-16.2-3.2-16.2-9.8
			c0-4.1,2.5-7,6.2-9c-2-1.2-3.2-2.9-3.2-5.6c0-3.5,2-5.6,4.1-6.9c-4.1-2.3-6.6-6.2-6.6-11c0-7.9,6.1-13.4,16.3-13.4
			C428.2,40.3,445.6,40.3,445.6,40.3 M417.5,84.3c0,3,2,5,7.2,5c6.1,0,9.6-2.3,9.6-5.4c0-3.9-3.5-3.8-8.8-4.2
			c-1.7-0.1-3.4-0.3-5-0.5C418.5,80.5,417.5,82.1,417.5,84.3 M432.4,53.7c0-4.3-2.5-6.8-6.6-6.8s-6.6,2.5-6.6,6.8
			c0,4.2,2.5,6.8,6.6,6.8S432.4,57.9,432.4,53.7"/>
		<path class="st0" d="M467.5,71.4c5,0,7.8-1.7,9.6-2.6l3.2,6.5c-2.4,1.4-6.2,3.5-13.7,3.5c-12.3,0-19.2-7.8-19.2-19.5
			c0-11.6,8-19.1,18.2-19.1c11.5,0,17.1,8,15.9,21.6h-23.3C458.5,67.6,461.4,71.4,467.5,71.4 M471.7,55.1c-0.1-4.1-1.7-7.5-6.3-7.5
			c-4.2,0-6.6,2.7-7.3,7.5H471.7z"/>
		<path class="st0" d="M490,50.8c-2.8,0-5.1-2.3-5.1-5.2s2.3-5.2,5.1-5.2c2.8,0,5.2,2.3,5.2,5.2C495.1,48.5,492.8,50.8,490,50.8
			 M490,41.2c-2.5,0-4.3,1.8-4.3,4.4c0,2.6,1.8,4.4,4.3,4.4s4.3-1.8,4.3-4.4C494.3,43.1,492.4,41.2,490,41.2 M491.4,48.6l-1.4-2.1
			c-0.3-0.4-0.5-0.6-0.9-0.6v2.7h-1v-6.2h2c1.3,0,1.9,0.8,1.9,1.7s-0.6,1.5-1.6,1.6c0.2,0.2,0.5,0.4,0.7,0.8l1.4,2L491.4,48.6
			L491.4,48.6z M489.9,43.3H489v1.9h0.6c0.7,0,1.4-0.1,1.4-0.9C491,43.7,490.7,43.3,489.9,43.3"/>
	</g>
	<g>
		<path class="st0" d="M109.6,4L109.6,4L24.9,3.9V4v95.1h84.7V4z M91.2,68.9v4c-9.3,0-15.1-3-18.8-6.7c0.6,1.7,1.3,3.5,2.2,5.2
			c6.3,12.5,17.4,18.9,33.6,19.1v5.2c-22.7-0.2-33.3-12.1-38.3-22.1c-1.1-2.2-2-4.4-2.7-6.5c-7.5,18.5-28,18.7-28.3,18.7V80
			c1,0,25.3-0.8,25.3-28.6h6.2c0-27.8,24.2-28,25.2-28v-5.8c-0.3,0-20.8,0.3-28.3,18.7c-0.7-2.1-1.6-4.3-2.7-6.5
			C59.6,20,49,8.1,26.3,7.9V5.3h81.9v46.2H70.3C70.3,52.2,70.7,68.9,91.2,68.9z M26.3,13.1c16.1,0.2,27.3,6.6,33.6,19.1
			c0.9,1.8,1.6,3.5,2.2,5.2c-3.7-3.7-9.5-6.7-18.8-6.7v4c20.5,0,20.9,16,20.9,16.7H26.3V13.1z"/>
	</g>
</g>
</svg>
