<?xml version="1.0" encoding="utf-8"?>
<!-- Generator: Adobe Illustrator 23.0.2, SVG Export Plug-In . SVG Version: 6.00 Build 0)  -->
<svg version="1.1" id="Layer_1" xmlns="http://www.w3.org/2000/svg" xmlns:xlink="http://www.w3.org/1999/xlink" x="0px" y="0px"
	 viewBox="0 0 400 245" style="enable-background:new 0 0 400 245;" xml:space="preserve">
<style type="text/css">
	.st0{fill-rule:evenodd;clip-rule:evenodd;fill:#EC1C24;}
	.st1{fill-rule:evenodd;clip-rule:evenodd;fill:#231F20;}
	.st2{fill:#434343;}
	.st3{fill:#898989;}
	.st4{fill:url(#SVGID_1_);}
	.st5{fill:url(#SVGID_2_);}
	.st6{fill:#B36E01;}
	.st7{fill:url(#SVGID_3_);}
	.st8{fill:url(#SVGID_4_);}
	.st9{fill:url(#SVGID_5_);}
	.st10{fill:#FAF8D5;}
	.st11{fill:#313130;}
	.st12{fill:#86C440;stroke:#58B847;stroke-width:1.5531;stroke-miterlimit:10;}
	.st13{fill:#D1DD26;}
	.st14{fill:#352E29;}
	.st15{fill:#86C440;stroke:#58B847;stroke-width:0.6761;}
	.st16{fill:#231916;}
	.st17{fill:#E50013;}
	.st18{fill:#3E608B;}
	.st19{fill:#6E9C3A;}
	.st20{fill:#3693C3;}
	.st21{fill:#0B8B5D;}
	.st22{fill:#E1903D;}
	.st23{fill:#58749B;}
	.st24{fill:#0066A4;}
	.st25{fill:#402210;}
	.st26{clip-path:url(#SVGID_7_);fill:url(#SVGID_8_);}
	.st27{fill:#FFFFFF;}
	.st28{fill:#6A2811;}
	.st29{fill:#1EBAD6;}
	.st30{fill:#161629;}
	.st31{fill:#C0C0C8;}
	.st32{opacity:0.9;}
	.st33{fill-rule:evenodd;clip-rule:evenodd;fill:#295C82;}
	.st34{fill-rule:evenodd;clip-rule:evenodd;fill:#193A53;}
	.st35{fill-rule:evenodd;clip-rule:evenodd;fill:url(#SVGID_9_);}
	.st36{fill-rule:evenodd;clip-rule:evenodd;fill:url(#SVGID_10_);}
	.st37{fill-rule:evenodd;clip-rule:evenodd;fill:url(#SVGID_11_);}
	.st38{fill-rule:evenodd;clip-rule:evenodd;fill:url(#SVGID_12_);}
	.st39{fill-rule:evenodd;clip-rule:evenodd;fill:url(#SVGID_13_);}
	.st40{fill:#EC1C24;}
	.st41{fill:#231F20;}
	.st42{fill-rule:evenodd;clip-rule:evenodd;fill:#ED1C24;}
	.st43{fill-rule:evenodd;clip-rule:evenodd;fill:#C3C1C4;}
	.st44{fill:#ED1C24;}
	.st45{fill:#E11F26;}
	.st46{fill:#CECDCF;}
	.st47{fill:#19171B;}
	.st48{fill:#E49C23;}
	.st49{fill:#3E3A39;}
	.st50{enable-background:new    ;}
	.st51{fill:#EB6224;}
	.st52{fill:#4D4E4E;}
	.st53{fill:#217CB9;}
	.st54{fill:#58595B;}
	.st55{fill:#B38634;}
	.st56{fill:#A7A9AC;}
	.st57{fill:#A89A75;}
	.st58{fill:#2ED8CB;}
	.st59{fill:none;}
	.st60{fill:#65B1B8;}
	.st61{fill:#61D8D3;}
	.st62{fill:#79E0FA;}
	.st63{fill:#666766;}
	.st64{fill:url(#SVGID_14_);}
	.st65{fill:url(#SVGID_15_);}
	.st66{fill:url(#SVGID_16_);}
	.st67{fill:url(#SVGID_17_);}
	.st68{fill:url(#SVGID_18_);}
	.st69{fill:url(#SVGID_19_);}
	.st70{fill:url(#SVGID_20_);}
	.st71{fill:url(#SVGID_21_);}
	.st72{fill:url(#SVGID_22_);}
	.st73{fill:url(#SVGID_23_);}
	.st74{fill:url(#SVGID_24_);}
	.st75{fill:url(#SVGID_25_);}
	.st76{fill:url(#SVGID_26_);}
	.st77{fill:url(#SVGID_27_);}
	.st78{opacity:0.79;fill:#A3A5A8;enable-background:new    ;}
	.st79{fill:#86888B;}
	.st80{fill:#D2232A;}
	.st81{fill:#00478A;}
	.st82{fill:#009FE8;}
	.st83{fill:#005BAB;}
	.st84{fill-rule:evenodd;clip-rule:evenodd;fill:none;}
	.st85{fill-rule:evenodd;clip-rule:evenodd;}
	.st86{fill:#FF9900;}
	.st87{fill:#666666;}
</style>
<g>
	<path class="st0" d="M398.78,195.17h-26.59C361.01,195.22,347,179.83,328.4,180c-27.19,0.3-40.92,26.62-66.96,26.33
		c-17.77-0.19-18.04-11.45-24.62-22.61h-16.89c4.87,11.16,11.74,35.48,41.22,35.78c29.76,0.28,38.34-26.04,66.98-26.04
		c16.59,0,29.19,14.58,44.35,14.58h26.31V195.17L398.78,195.17z"/>
	<path class="st0" d="M1.15,195.17h20.61c11.16,0.05,25.19-15.34,43.79-15.16c27.18,0.3,40.94,26.62,66.98,26.33
		c17.74-0.19,18.03-11.45,24.61-22.61h16.88c-4.86,11.16-11.73,35.48-41.22,35.78c-29.76,0.28-38.34-26.04-66.96-26.04
		c-16.6,0-29.2,14.58-44.37,14.58H1.15V195.17L1.15,195.17z"/>
	<path class="st0" d="M222.63,121.2h-16.04l-6.83-71.6c-0.41-3.65-2.28-3.37-2.28-3.37s-1.87-0.28-2.31,3.37l-6.86,71.58h-16.04
		l9.43-77.78c2.67-18.71,15.8-17.91,15.8-17.91s13.08-0.85,15.75,17.91L222.63,121.2L222.63,121.2z"/>
	<path class="st1" d="M41.43,155.92c4.46,0,7.67,0.25,6.99,4.07c-0.56,3.23-3.3,3.96-6.74,3.96h-6.11l1.41-8.03H41.43L41.43,155.92z
		 M44.54,140.99c2.99,0,5.73,0.04,5.14,3.39c-0.43,2.52-2.69,3.74-5.49,3.74h-5.83l1.26-7.13H44.54L44.54,140.99z M40.66,173.91
		c11.1,0,19.01-3.31,20.7-12.9c0.83-4.67-0.97-8.64-5.41-9.83c3.11-1.78,6.54-5.02,7.33-9.42c1.5-8.53-5.79-10.76-15.46-10.76H27.3
		l-7.55,42.92H40.66L40.66,173.91z"/>
	<path class="st1" d="M81.76,140.99h6.55c3.28,0,5.41,1.43,4.86,4.49c-0.51,2.99-3.03,4.09-7.38,4.09h-5.54L81.76,140.99
		L81.76,140.99z M82.88,158.95c6.56,0,7.19,1.83,6.2,7.47c-0.67,3.78-0.8,6.54-0.61,7.49h14.25l0.23-1.31
		c-1.66,0-1.14-1.93-0.17-7.5c1.53-8.65-1.03-9.73-5.28-11.36c5.26-1.4,8.2-5.56,9.08-10.55c1.47-8.32-2.56-12.2-16.86-12.2H69.45
		l-7.57,42.92h14.07l2.63-14.95H82.88L82.88,158.95z"/>
	<path class="st1" d="M131.63,140.37c6.22-0.16,7.51,6.02,6.48,11.86c-1.25,7.07-4.56,12.3-10.62,12.3c-6.74,0-7.21-6.83-6.23-12.3
		C122.2,146.81,125.25,140.37,131.63,140.37L131.63,140.37z M133.59,129.87c-13.34,0-24.01,8.75-26.37,22.21
		c-2.58,14.6,4.95,22.93,18.42,22.93c12.68,0,23.98-8.21,26.54-22.79C154.18,140.91,148.9,129.87,133.59,129.87L133.59,129.87z"/>
	<path class="st1" d="M174.95,159.32h-8.9l7.07-15.37L174.95,159.32L174.95,159.32z M159.19,173.91l2.6-5.65h14.02l0.67,5.65h14.01
		l-7.81-42.92h-14.32l-22.95,42.92H159.19L159.19,173.91z"/>
	<path class="st1" d="M213.7,140.99h2.68c7.51,0,10.03,2.39,8.45,11.34c-1.45,8.15-5.63,11.62-12.2,11.62h-2.98L213.7,140.99
		L213.7,140.99z M212.31,173.91c13.79,0,23.87-6.17,26.73-22.35c2.5-14.17-4.96-20.57-18.8-20.57h-18.85l-7.57,42.92H212.31
		L212.31,173.91z"/>
	<path class="st1" d="M271.98,147.38c0.37-4.44-1.97-7.01-6.39-7.01c-4.96,0-8.67,4.23-10.15,12.5c-1.06,6.02-0.74,11.65,6.41,11.65
		c4.54,0,7.24-3.16,8.51-7.26h13.54c-3.21,11.07-12.33,17.74-23.66,17.74c-14.19,0-21.23-8.69-18.79-22.61
		c2.46-13.89,13.41-22.53,25.39-22.53c13.11,0,19.31,6.5,18.49,17.51H271.98L271.98,147.38z"/>
	<path class="st1" d="M310.9,140.37c6.23-0.16,7.52,6.02,6.5,11.86c-1.24,7.07-4.54,12.3-10.64,12.3c-6.74,0-7.18-6.83-6.23-12.3
		C301.5,146.81,304.54,140.37,310.9,140.37L310.9,140.37z M312.88,129.87c-13.34,0-24.03,8.75-26.39,22.21
		c-2.56,14.6,4.97,22.93,18.43,22.93c12.7,0,23.99-8.21,26.56-22.79C333.47,140.91,328.2,129.87,312.88,129.87L312.88,129.87z"/>
	<polygon class="st1" points="331.18,173.91 338.77,130.99 355.77,130.99 358.6,157.76 370.87,130.99 387.87,130.99 380.31,173.91 
		367.64,173.91 369.96,160.81 371.33,154.11 373.41,146.37 373.28,146.37 360.64,173.91 350.86,173.91 347.94,146.37 347.82,146.37 
		347.31,152.68 346.43,159.33 343.86,173.91 331.18,173.91 	"/>
	<path class="st1" d="M392.61,172.66c-2.36,0-3.69-1.73-3.26-4.12c0.43-2.43,2.37-4.13,4.72-4.13c2.32,0,3.69,1.7,3.26,4.13
		C396.9,170.92,394.93,172.66,392.61,172.66L392.61,172.66z M392.38,173.96c3.01,0,5.86-2.44,6.38-5.43
		c0.54-3.01-1.48-5.44-4.46-5.44c-3.01,0-5.86,2.43-6.38,5.44C387.39,171.52,389.37,173.96,392.38,173.96L392.38,173.96z
		 M394.53,169.01c1.04-0.08,1.69-0.5,1.88-1.6c0.25-1.38-0.43-1.8-1.97-1.8h-2.83l-1.03,5.87h1.23l0.43-2.47h1l0.86,2.47h1.41
		L394.53,169.01L394.53,169.01z M392.4,168.12l0.3-1.62h1.32c0.56,0,1.42-0.04,1.28,0.74c-0.14,0.76-0.62,0.9-1.28,0.88H392.4
		L392.4,168.12z"/>
</g>
</svg>
