<?xml version="1.0" encoding="utf-8"?>
<!-- Generator: Adobe Illustrator 28.3.0, SVG Export Plug-In . SVG Version: 6.00 Build 0)  -->
<svg version="1.1" id="Layer_1" xmlns="http://www.w3.org/2000/svg" xmlns:xlink="http://www.w3.org/1999/xlink" x="0px" y="0px"
	 width="400px" height="35.1px" viewBox="0 0 400 35.1" style="enable-background:new 0 0 400 35.1;" xml:space="preserve">
<style type="text/css">
	.st0{fill:#0094FF;}
	.st1{fill:#003778;}
	.st2{opacity:0.75;}
	.st3{opacity:0.75;fill:#FFFFFF;}
	.st4{fill:#FFFFFF;}
</style>
<g>
	<g>
		<polygon class="st0" points="7.1,28 7.1,14 0,14 0,35 21.1,35 21.1,28 		"/>
		<polygon class="st1" points="35,0 0,0 0,10.5 7,10.5 7,7 28,7 28,28 24.5,28 24.5,35 35,35 		"/>
	</g>
	<path class="st1" d="M44.3,0h10.8v26.1h15.5v9H44.3L44.3,0L44.3,0z"/>
	<path class="st1" d="M75.2,0h27.1v9H86v4.4h14v8.4H86v13.3H75.2L75.2,0L75.2,0z"/>
	<path class="st0" d="M108.3,0H123c5.9,0,11.2,2.1,11.2,8.6c0,3.7-2.4,7-6.1,7.8v0.1c4.5,0.6,7.4,4,7.4,8.5c0,3.3-1.2,9.9-12.5,9.9
		h-14.8V0z M111.6,15.3H123c5.3,0,7.9-2.6,7.9-5.9c0-4.4-2.7-6.6-7.9-6.6h-11.4V15.3z M111.6,32.1H123c4.9,0,9.2-1.6,9.2-7.2
		c0-4.4-3.4-6.7-9.2-6.7h-11.4V32.1z"/>
	<path class="st0" d="M140.9,0h16c5.8,0,10.6,2.8,10.6,9.1c0,4.4-2.3,8-6.8,8.9v0.1c4.5,0.6,5.9,3.7,6.1,7.9
		c0.1,2.4,0.1,7.2,1.6,8.9h-3.7c-0.8-1.4-0.8-4-0.9-5.4c-0.3-4.9-0.7-10.3-7-10.1h-12.6v15.5h-3.3V0z M144.2,16.6h12.4
		c4.1,0,7.5-2.5,7.5-6.8c0-4.3-2.5-6.9-7.5-6.9h-12.4V16.6z"/>
	<path class="st0" d="M188.1,0c11,0,16.4,8.3,16.4,17.5c0,9.2-5.5,17.5-16.4,17.5c-11,0-16.5-8.3-16.5-17.5
		C171.6,8.3,177.1,0,188.1,0z M188.1,32.2c9.2,0,13.1-7.4,13.1-14.7c0-7.3-3.9-14.7-13.1-14.7c-9.2,0-13.2,7.4-13.2,14.7
		C175,24.8,178.9,32.2,188.1,32.2z"/>
	<path class="st0" d="M220,0h3.7l13.7,34.9h-3.6l-4.3-10.9h-15.9l-4.2,10.9h-3.6L220,0z M214.7,21.2h13.7l-6.7-17.9L214.7,21.2z"/>
	<path class="st0" d="M240.5,0h12.1c10.5,0.2,16,6,16,17.5c0,11.4-5.5,17.2-16,17.5h-12.1V0z M243.9,32.1h7.1
		c10,0,14.4-4.2,14.4-14.6C265.3,7,261,2.8,251,2.8h-7.1V32.1z"/>
	<path class="st0" d="M274,0h14.8c5.9,0,11.2,2.1,11.2,8.6c0,3.7-2.4,7-6.1,7.8v0.1c4.5,0.6,7.4,4,7.4,8.5c0,3.3-1.2,9.9-12.5,9.9
		H274V0z M277.4,15.3h11.4c5.3,0,7.9-2.6,7.9-5.9c0-4.4-2.7-6.6-7.9-6.6h-11.4V15.3z M277.4,32.1h11.4c4.9,0,9.2-1.6,9.2-7.2
		c0-4.4-3.4-6.7-9.2-6.7h-11.4V32.1z"/>
	<path class="st0" d="M316.9,0h3.7l13.7,34.9h-3.6l-4.3-10.9h-15.9l-4.2,10.9h-3.6L316.9,0z M311.6,21.2h13.7l-6.7-17.9L311.6,21.2z
		"/>
	<path class="st0" d="M337.4,0h3.7l20.3,29.5h0.1V0h3.3v34.9h-3.7L340.8,5.4h-0.1v29.5h-3.3V0z"/>
	<path class="st0" d="M371.9,0H384c10.5,0.2,16,6,16,17.5c0,11.4-5.5,17.2-16,17.5h-12.1V0z M375.2,32.1h7.1
		c10,0,14.4-4.2,14.4-14.6c0-10.4-4.4-14.7-14.4-14.6h-7.1V32.1z"/>
</g>
</svg>
