<?xml version="1.0" encoding="UTF-8" standalone="no"?>
<svg
   xmlns:dc="http://purl.org/dc/elements/1.1/"
   xmlns:cc="http://creativecommons.org/ns#"
   xmlns:rdf="http://www.w3.org/1999/02/22-rdf-syntax-ns#"
   xmlns:svg="http://www.w3.org/2000/svg"
   xmlns="http://www.w3.org/2000/svg"
   viewBox="0 0 624 489.60001"
   height="489.60001"
   width="624"
   xml:space="preserve"
   id="svg2"
   version="1.1"><metadata
     id="metadata8"><rdf:RDF><cc:Work
         rdf:about=""><dc:format>image/svg+xml</dc:format><dc:type
           rdf:resource="http://purl.org/dc/dcmitype/StillImage" /></cc:Work></rdf:RDF></metadata><defs
     id="defs6"><clipPath
       id="clipPath18"
       clipPathUnits="userSpaceOnUse"><path
         id="path16"
         d="M 0,367.2 H 468 V 0 H 0 Z" /></clipPath></defs><g
     transform="matrix(1.3333333,0,0,-1.3333333,0,489.6)"
     id="g10"><g
       id="g12"><g
         clip-path="url(#clipPath18)"
         id="g14"><g
           transform="translate(390.3281,111.144)"
           id="g20"><path
             id="path22"
             style="fill:#000000;fill-opacity:1;fill-rule:nonzero;stroke:none"
             d="m 0,0 4.678,4.089 c -2.716,3.215 -6.826,4.772 -10.966,4.772 -5.376,0 -10.281,-3.262 -10.281,-9.101 0,-10.938 15.555,-9.001 15.555,-14.342 0,-2.121 -1.783,-3.564 -4.418,-3.564 -3.195,0 -5.514,2.101 -7.248,4.516 l -4.972,-3.744 c 2.756,-4.096 6.824,-6.341 11.774,-6.341 6.524,0 11.445,2.91 11.445,9.41 0,11.485 -15.546,9.165 -15.546,14.539 0,1.869 1.287,3.07 4.168,3.07 2.33,0 4.33,-1.687 5.811,-3.304 m -2.793,61.359 c 0,5.738 -3.811,9.596 -9.296,9.596 -5.445,0 -9.307,-3.928 -9.307,-9.596 0,-5.681 3.801,-9.544 9.307,-9.544 5.424,0 9.296,3.863 9.296,9.544 m -1.26,0 c 0,-5.389 -3.581,-8.398 -8.036,-8.398 -4.407,0 -7.977,3.009 -7.977,8.398 0,5.43 3.57,8.451 7.977,8.451 4.405,0 8.036,-3.021 8.036,-8.451 m -3.509,-4.664 -3.025,4.297 c 1.331,0.417 2.168,1.392 2.168,2.899 0,1.992 -1.514,3.08 -3.73,3.08 h -3.208 V 56.469 h 1.815 v 4.341 h 1.018 l 3.208,-4.533 z m -4.649,5.501 h -1.331 v 3.147 h 1.393 c 1.199,0 1.874,-0.549 1.874,-1.574 0,-1.027 -0.735,-1.573 -1.936,-1.573 m -9.017,-67.752 c 0,7.525 -4.542,14.473 -12.699,14.417 -8.433,0 -13.515,-6.326 -13.515,-16.291 0,-9.944 5.082,-16.285 13.156,-16.285 5.994,0 10.171,1.928 13.058,6.401 l -5.372,3.393 c -1.888,-2.173 -3.481,-3.749 -6.96,-3.749 -3.469,0 -6.349,2.523 -6.461,9.019 h 18.793 z m -6.822,1.993 h -11.971 c 0.112,4.34 2.398,6.867 5.976,6.867 3.591,0 5.847,-2.527 5.995,-6.867 m -52.982,55.584 h 50.216 c -2.801,8.81 -3.508,17.613 -3.508,26.768 v 93.097 c 0,22.634 -4.267,35.197 -16.376,46.255 -11.515,10.512 -30.281,16.315 -55.682,16.315 -21.932,0 -40.869,-4.658 -55.3,-13.623 11.073,-9.378 18.888,-21.852 22.649,-36.694 4.84,7.632 14.339,10.96 26.621,10.96 20.258,0 26.136,-14.138 26.308,-26.001 l 0.14,-5.657 c -56.013,-2.747 -108.771,-13.169 -107.752,-64.395 0.705,-35.901 33.204,-50.573 55.529,-50.543 25.936,0.03 40.457,6.936 54.705,24.635 0.222,-7.479 1.16,-15.378 2.45,-21.117 m -4.932,78.548 c 0,-14.994 -0.251,-23.075 -7.038,-33.423 -5.999,-9.155 -15.488,-14.793 -26.065,-14.793 -14.44,0 -26.47,6.56 -26.47,22.275 0,23.078 33.761,31.286 59.573,32.768 z m -134.727,103.887 c -56.358,0 -89.472,-39.786 -89.472,-94.737 0,-52.817 32.056,-91.216 86.296,-91.216 13.885,0 29.404,2.959 42.745,9.977 -10.145,8.744 -17.646,21.499 -18.343,39.111 -4.748,-4.578 -11.556,-6.862 -19.35,-6.862 -26.076,0 -33.376,19.613 -33.376,53.227 0,33.119 7.855,51.057 33.245,51.057 15.792,0 27.205,-8.524 27.205,-24.729 h 49.169 c -3.571,42.447 -37.208,64.172 -78.119,64.172 M -313.906,18.633 V 8.246 h -4.318 V 2.229 h 4.318 v -18.7 c 0,-4.47 2.149,-7.244 7.641,-7.244 2.035,0 3.834,0.245 5.874,0.487 v 6.148 c -1.068,-0.234 -2.293,-0.59 -3.416,-0.59 -1.847,0 -2.683,0.491 -2.683,2.166 V 2.229 h 6.099 v 6.017 h -6.099 v 10.387 z m 17.149,-26.063 c 0,-9.944 5.07,-16.285 13.153,-16.285 5.993,0 10.164,1.928 13.048,6.401 l -5.404,3.393 c -1.84,-2.173 -3.45,-3.749 -6.915,-3.749 -3.464,0 -6.352,2.523 -6.479,9.019 h 18.798 v 3.095 c 0,7.525 -4.557,14.473 -12.714,14.417 -8.417,0 -13.487,-6.326 -13.487,-16.291 m 7.403,3.867 c 0.127,4.34 2.391,6.867 5.992,6.867 3.592,0 5.869,-2.527 5.987,-6.867 z m 23.321,-3.867 c 0,-9.944 5.067,-16.285 13.484,-16.285 5.704,-0.047 9.474,2.245 12.472,7.84 l -5.634,3.187 c -1.49,-2.732 -3.34,-4.982 -6.576,-4.982 -4.394,0 -6.365,3.264 -6.365,10.24 0,6.995 1.971,10.271 6.103,10.271 3.62,0 4.924,-2.095 6.131,-4.773 l 6.163,2.406 c -1.754,5.255 -6.401,8.387 -12.294,8.387 -8.417,0 -13.484,-6.326 -13.484,-16.291 m 38.868,27.869 h -7.415 v -43.55 h 7.415 v 22.636 c 1.269,1.442 3.733,3.316 6.95,3.316 2.502,0 3.826,-1.346 3.826,-5.586 v -20.366 h 7.419 v 21.479 c 0,6.39 -3.002,10.493 -9.238,10.493 -3.639,0 -6.676,-2.059 -8.957,-3.965 z m 32.668,-12.193 h -6.828 v -31.357 h 7.439 v 22.636 c 1.233,1.442 3.697,3.316 6.92,3.316 2.518,0 3.848,-1.346 3.848,-5.586 v -20.366 h 7.406 v 21.479 c 0,6.39 -2.985,10.493 -9.203,10.493 -3.665,0 -6.82,-2.059 -9.582,-3.965 z m 24.058,-15.676 c 0,-9.944 5.061,-16.285 13.506,-16.285 8.456,0 13.534,6.341 13.534,16.285 0,9.965 -5.078,16.291 -13.534,16.291 -8.445,0 -13.506,-6.326 -13.506,-16.291 m 7.414,0 c 0,6.995 1.963,10.271 6.092,10.271 4.15,0 6.105,-3.276 6.105,-10.271 0,-6.976 -1.955,-10.24 -6.105,-10.24 -4.129,0 -6.092,3.264 -6.092,10.24 m 33.082,27.869 h -7.4 v -43.55 h 7.4 v 10.937 z m 6.052,-27.869 c 0,-9.944 5.069,-16.285 13.512,-16.285 8.447,0 13.528,6.341 13.528,16.285 0,9.965 -5.081,16.291 -13.528,16.291 -8.443,0 -13.512,-6.326 -13.512,-16.291 m 7.414,0 c 0,6.995 1.974,10.271 6.098,10.271 4.147,0 6.12,-3.276 6.12,-10.271 0,-6.976 -1.973,-10.24 -6.12,-10.24 -4.124,0 -6.098,3.264 -6.098,10.24 m 21.786,-19.644 c 0,-4.962 5.495,-7.487 13.871,-7.487 9.924,0 14.428,4.838 14.428,9.288 0,12.544 -20.463,5.676 -20.463,10.742 0,1.802 2.572,1.919 5.788,1.919 7.766,0 11.737,4.23 11.737,10.12 0,2.431 -0.712,4.238 -1.691,5.563 1.165,0.727 3.07,0.727 4.792,0.727 v 5.063 c -3.534,0.129 -5.848,-0.85 -7.305,-2.779 -1.897,1.677 -5.019,2.779 -7.638,2.779 -8.104,0 -12.269,-5.424 -12.269,-10.921 0,-3.816 2.029,-6.212 4.59,-8.31 -1.372,-0.421 -4.835,-2.715 -4.835,-5.724 0,-3.389 3.167,-4.17 4.585,-5.067 v -0.135 c -2.666,0 -5.59,-1.866 -5.59,-5.778 m 8.055,25.198 c 0,2.886 2.228,5.18 5.391,5.18 2.814,0 5.072,-2.294 5.072,-5.18 0,-2.895 -2.258,-5.201 -5.072,-5.201 -3.163,0 -5.391,2.306 -5.391,5.201 m -1.256,-24.249 c 0,1.342 1.22,3.628 5.269,3.628 7.192,0 9.42,-2.17 9.42,-3.628 0,-1.083 -1.642,-3.481 -6.416,-3.481 -6.221,0 -8.273,1.1 -8.273,3.481 m 34.398,47.177 h -7.401 V 14.04 h 7.401 v 3.86 z m 0,-12.806 h -7.401 v -31.357 h 7.401 v 9.218 z" /></g><g
           transform="translate(38.0098,38.5854)"
           id="g24"><path
             id="path26"
             style="fill:#cc092f;fill-opacity:1;fill-rule:nonzero;stroke:none"
             d="M 0,0 -6.19,14.473 -12.418,0 Z m -7.591,18.202 h 2.882 L 7.709,-10.378 H 4.4 l -3.192,7.5 h -14.833 l -3.232,-7.5 h -3.153 z" /></g><g
           transform="translate(73.9297,40.4096)"
           id="g28"><path
             id="path30"
             style="fill:#cc092f;fill-opacity:1;fill-rule:nonzero;stroke:none"
             d="M 0,0 H -7.591 V -7.784 H 0.35 c 3.232,0 5.255,1.339 5.255,3.892 v 0.081 C 5.605,-1.419 3.776,0 0,0 m 4.087,8.147 c 0,2.231 -1.712,3.61 -4.788,3.61 h -6.89 V 4.215 h 6.539 c 3.076,0 5.139,1.259 5.139,3.852 z m -16.389,8.028 h 12.223 c 3.115,0 5.568,-0.892 7.125,-2.514 1.206,-1.257 1.83,-2.837 1.83,-4.702 V 8.878 c 0,-3.404 -1.869,-5.231 -3.893,-6.324 3.192,-1.134 5.412,-3.04 5.412,-6.891 v -0.082 c 0,-5.067 -4.01,-7.783 -10.083,-7.783 h -12.614 z" /></g><g
           transform="translate(88.7534,49.6127)"
           id="g32"><path
             id="path34"
             style="fill:#cc092f;fill-opacity:1;fill-rule:nonzero;stroke:none"
             d="m 0,0 h 4.75 v -4.824 c 1.283,3.201 3.658,5.389 7.279,5.228 v -5.189 h -0.272 c -4.127,0 -7.007,-2.797 -7.007,-8.472 v -8.148 H 0 Z" /></g><g
           transform="translate(119.8535,38.7885)"
           id="g36"><path
             id="path38"
             style="fill:#cc092f;fill-opacity:1;fill-rule:nonzero;stroke:none"
             d="m 0,0 v 0.08 c 0,3.771 -2.608,6.892 -6.306,6.892 -3.777,0 -6.19,-3.08 -6.19,-6.811 V 0.08 c 0,-3.728 2.609,-6.851 6.267,-6.851 C -2.413,-6.771 0,-3.689 0,0 m -17.206,0 v 0.08 c 0,6.121 4.671,11.189 10.977,11.189 6.308,0 10.94,-4.986 10.94,-11.108 V 0.08 c 0,-6.081 -4.671,-11.147 -11.017,-11.147 -6.268,0 -10.9,4.986 -10.9,11.067" /></g><g
           transform="translate(141.687,35.9086)"
           id="g40"><path
             id="path42"
             style="fill:#cc092f;fill-opacity:1;fill-rule:nonzero;stroke:none"
             d="M 0,0 V 1.461 C -1.208,1.947 -2.803,2.312 -4.672,2.312 -7.709,2.312 -9.5,0.974 -9.5,-1.256 v -0.08 c 0,-2.068 1.753,-3.244 4.01,-3.244 C -2.375,-4.58 0,-2.715 0,0 m -14.132,-1.539 v 0.08 c 0,4.621 3.503,6.892 8.526,6.892 2.297,0 3.932,-0.365 5.527,-0.892 v 0.527 c 0,3.041 -1.79,4.662 -5.099,4.662 -2.297,0 -4.01,-0.526 -5.878,-1.337 l -1.285,3.85 c 2.296,1.055 4.515,1.744 7.786,1.744 3.075,0 5.372,-0.85 6.812,-2.391 C 3.775,10.055 4.476,7.784 4.476,4.988 V -7.701 h -4.594 v 2.676 c -1.4,-1.744 -3.542,-3.122 -6.695,-3.122 -3.854,0 -7.319,2.31 -7.319,6.608" /></g><g
           transform="translate(166.9839,38.8686)"
           id="g44"><path
             id="path46"
             style="fill:#cc092f;fill-opacity:1;fill-rule:nonzero;stroke:none"
             d="m 0,0 v 0.081 c 0,4.136 -2.803,6.852 -5.956,6.852 -3.232,0 -5.917,-2.636 -5.917,-6.852 V 0 c 0,-4.134 2.725,-6.852 5.917,-6.852 C -2.803,-6.852 0,-4.094 0,0 m -16.623,0 v 0.081 c 0,7.095 4.633,11.107 9.538,11.107 3.387,0 5.527,-1.743 7.008,-3.77 v 11.514 h 4.711 v -29.593 h -4.711 v 3.567 c -1.518,-2.229 -3.66,-4.013 -7.008,-4.013 -4.828,0 -9.538,4.013 -9.538,11.107" /></g><g
           transform="translate(176.0088,38.7885)"
           id="g48"><path
             id="path50"
             style="fill:#cc092f;fill-opacity:1;fill-rule:nonzero;stroke:none"
             d="m 0,0 v 0.08 c 0,6.082 4.515,11.189 10.705,11.189 3.855,0 6.268,-1.5 8.214,-3.689 L 15.96,4.297 C 14.521,5.836 13.002,6.972 10.667,6.972 7.24,6.972 4.71,3.892 4.71,0.161 V 0.08 c 0,-3.81 2.53,-6.851 6.151,-6.851 2.219,0 3.816,1.055 5.334,2.635 l 2.841,-2.919 c -2.024,-2.35 -4.399,-4.012 -8.409,-4.012 C 4.515,-11.067 0,-6.081 0,0" /></g><g
           transform="translate(214.4644,38.7885)"
           id="g52"><path
             id="path54"
             style="fill:#cc092f;fill-opacity:1;fill-rule:nonzero;stroke:none"
             d="m 0,0 v 0.08 c 0,3.771 -2.608,6.892 -6.306,6.892 -3.777,0 -6.19,-3.08 -6.19,-6.811 V 0.08 c 0,-3.728 2.608,-6.851 6.267,-6.851 C -2.413,-6.771 0,-3.689 0,0 m -17.207,0 v 0.08 c 0,6.121 4.672,11.189 10.978,11.189 C 0.079,11.269 4.71,6.283 4.71,0.161 V 0.08 c 0,-6.081 -4.671,-11.147 -11.016,-11.147 -6.268,0 -10.901,4.986 -10.901,11.067" /></g><g
           transform="translate(223.5283,49.6127)"
           id="g56"><path
             id="path58"
             style="fill:#cc092f;fill-opacity:1;fill-rule:nonzero;stroke:none"
             d="m 0,0 h 4.75 v -3.244 c 1.323,1.906 3.114,3.688 6.267,3.688 2.959,0 5.061,-1.5 6.151,-3.77 1.635,2.27 3.814,3.77 6.93,3.77 4.476,0 7.202,-2.959 7.202,-8.188 v -13.661 h -4.71 v 12.161 c 0,3.405 -1.519,5.229 -4.166,5.229 -2.57,0 -4.399,-1.865 -4.399,-5.309 v -12.081 h -4.711 v 12.202 c 0,3.323 -1.557,5.188 -4.165,5.188 -2.608,0 -4.399,-2.026 -4.399,-5.309 V -21.405 H 0 Z" /></g><g
           transform="translate(271.0859,42.3148)"
           id="g60"><path
             id="path62"
             style="fill:#cc092f;fill-opacity:1;fill-rule:nonzero;stroke:none"
             d="m 0,0 v 0.08 c 0,8.027 5.761,14.676 13.78,14.676 4.946,0 7.904,-1.824 10.629,-4.499 L 22.307,7.904 c -2.298,2.271 -4.867,3.892 -8.565,3.892 -6.035,0 -10.55,-5.107 -10.55,-11.634 V 0.08 c 0,-6.566 4.555,-11.714 10.55,-11.714 3.737,0 6.19,1.5 8.798,4.094 l 2.023,-2.067 c -2.84,-3 -5.956,-4.987 -10.899,-4.987 C 5.8,-14.594 0,-8.148 0,0" /></g><g
           transform="translate(316.5469,38.5854)"
           id="g64"><path
             id="path66"
             style="fill:#cc092f;fill-opacity:1;fill-rule:nonzero;stroke:none"
             d="M 0,0 V 0.082 C 0,4.58 -3.23,8.27 -7.475,8.27 c -4.36,0 -7.357,-3.69 -7.357,-8.108 v -0.08 c 0,-4.501 3.192,-8.148 7.436,-8.148 C -3.037,-8.066 0,-4.419 0,0 m -17.907,0 v 0.082 c 0,5.918 4.437,10.945 10.511,10.945 6.034,0 10.471,-4.947 10.471,-10.865 v -0.08 c 0,-5.921 -4.475,-10.946 -10.55,-10.946 -6.034,0 -10.432,4.945 -10.432,10.864" /></g><g
           transform="translate(324.6367,49.1664)"
           id="g68"><path
             id="path70"
             style="fill:#cc092f;fill-opacity:1;fill-rule:nonzero;stroke:none"
             d="m 0,0 h 2.997 v -3.527 c 1.325,2.067 3.115,3.973 6.502,3.973 3.271,0 5.372,-1.826 6.463,-4.176 1.44,2.311 3.582,4.176 7.085,4.176 4.633,0 7.474,-3.244 7.474,-8.432 v -12.973 h -2.997 v 12.242 c 0,4.054 -1.947,6.324 -5.216,6.324 -3.037,0 -5.568,-2.35 -5.568,-6.485 v -12.081 h -2.959 v 12.323 c 0,3.933 -1.984,6.243 -5.177,6.243 -3.192,0 -5.607,-2.755 -5.607,-6.608 V -20.959 H 0 Z" /></g><g
           transform="translate(378.3887,38.6264)"
           id="g72"><path
             id="path74"
             style="fill:#cc092f;fill-opacity:1;fill-rule:nonzero;stroke:none"
             d="m 0,0 v 0.08 c 0,4.946 -3.27,8.108 -7.086,8.108 -3.737,0 -7.279,-3.284 -7.279,-8.067 v -0.08 c 0,-4.865 3.542,-8.109 7.279,-8.109 3.894,0 7.086,3 7.086,8.068 m -17.246,10.54 h 2.997 V 6.324 c 1.635,2.513 4.01,4.662 7.708,4.662 4.829,0 9.616,-3.973 9.616,-10.865 v -0.08 c 0,-6.852 -4.749,-10.906 -9.616,-10.906 -3.737,0 -6.15,2.108 -7.708,4.459 v -10.499 h -2.997 z" /></g><g
           transform="translate(399.9102,35.9086)"
           id="g76"><path
             id="path78"
             style="fill:#cc092f;fill-opacity:1;fill-rule:nonzero;stroke:none"
             d="m 0,0 v 2.027 c -1.48,0.447 -3.465,0.893 -5.918,0.893 -3.775,0 -5.878,-1.702 -5.878,-4.338 v -0.08 c 0,-2.636 2.335,-4.177 5.06,-4.177 C -3.036,-5.675 0,-3.323 0,0 m -14.833,-1.621 v 0.082 c 0,4.419 3.503,6.769 8.604,6.769 2.569,0 4.399,-0.365 6.19,-0.891 v 0.729 c 0,3.771 -2.22,5.716 -5.996,5.716 -2.375,0 -4.243,-0.648 -6.112,-1.54 l -0.895,2.554 c 2.219,1.054 4.398,1.742 7.318,1.742 2.842,0 5.023,-0.769 6.502,-2.31 C 2.141,9.811 2.842,7.784 2.842,5.109 v -12.81 h -2.881 v 3.162 c -1.402,-1.906 -3.737,-3.608 -7.279,-3.608 -3.74,0 -7.515,2.229 -7.515,6.526" /></g><g
           transform="translate(408.7393,49.1664)"
           id="g80"><path
             id="path82"
             style="fill:#cc092f;fill-opacity:1;fill-rule:nonzero;stroke:none"
             d="m 0,0 h 2.997 v -3.648 c 1.325,2.268 3.426,4.094 6.891,4.094 4.867,0 7.709,-3.406 7.709,-8.392 v -13.013 h -2.998 v 12.242 c 0,3.893 -2.025,6.324 -5.567,6.324 -3.465,0 -6.035,-2.634 -6.035,-6.567 V -20.959 H 0 Z" /></g><g
           transform="translate(446.8076,49.1664)"
           id="g84"><path
             id="path86"
             style="fill:#cc092f;fill-opacity:1;fill-rule:nonzero;stroke:none"
             d="m 0,0 h 3.192 l -8.448,-21.647 c -1.713,-4.339 -3.66,-5.919 -6.696,-5.919 -1.674,0 -2.92,0.365 -4.282,1.053 l 1.012,2.474 c 0.974,-0.528 1.868,-0.771 3.154,-0.771 1.79,0 2.92,0.973 4.126,3.933 L -17.091,0 h 3.311 l 7.318,-17.473 z" /></g></g></g></g></svg>