<?xml version="1.0" encoding="UTF-8"?> <!-- Generator: Adobe Illustrator 25.4.0, SVG Export Plug-In . SVG Version: 6.00 Build 0) --> <svg xmlns="http://www.w3.org/2000/svg" xmlns:xlink="http://www.w3.org/1999/xlink" version="1.1" id="Layer_1" x="0px" y="0px" viewBox="0 0 212.5 244.1" style="enable-background:new 0 0 212.5 244.1;" xml:space="preserve"> <style type="text/css"> .st0{fill:#0F62FE;} </style> <path id="Call_for_Code_xAE_" class="st0" d="M2.4,33.1c0-19.7,10.1-30.6,25.8-30.6c10.7,0,17.6,4.3,21.8,13.7l-11,5.7 c-1.5-4.9-4.6-8.1-10.9-8.1c-7.4,0-12.4,5-12.4,14.2v9.4c0,9.2,4.9,14.2,12.4,14.2c6.3,0,9.9-3.9,11.6-8.7l10.4,6 c-4.3,8.9-11.3,14-22,14C12.5,62.9,2.4,52.9,2.4,33.1z M90.9,61.9c-4.4,0-7.6-3-8.4-7.7h-0.5c-1.3,5.7-6.2,8.7-12.9,8.7 c-8.8,0-13.6-5.2-13.6-12.8c0-9.3,7.2-13.7,18.8-13.7h6.9v-2.8c0-4.3-2.1-6.9-7.3-6.9c-4.9,0-7.5,2.5-9.5,5.2l-7.4-6.5 c3.5-5.2,8.5-8.4,17.7-8.4c12.4,0,18.7,5.7,18.7,16.1v19.2h4.1v9.6H90.9z M81.3,48.6v-5.2h-6c-4.8,0-7.3,1.8-7.3,4.9v1.3 c0,3.2,2.1,4.7,5.8,4.7C77.9,54.3,81.3,52.6,81.3,48.6z M118.4,61.9c-8.4,0-12.3-4.3-12.3-12V0h12.4v52.3h5.5v9.6H118.4z M143,61.9 c-8.4,0-12.3-4.3-12.3-12V0h12.4v52.3h5.5v9.6H143z M6.2,118.2H0v-9.6h6.2v-5.2c0-8.4,4.6-12.8,13.1-12.8h8v9.6h-8.8v8.4h8.8v9.6 h-8.8v34.3H6.2V118.2z M31.1,130.5c0-14.1,7.7-22.9,20.6-22.9c12.9,0,20.6,8.8,20.6,22.9c0,14.1-7.7,23-20.6,23 C38.8,153.5,31.1,144.6,31.1,130.5z M59.4,135v-8.9c0-5.5-2.8-8.7-7.7-8.7c-4.9,0-7.7,3.2-7.7,8.7v8.9c0,5.5,2.8,8.7,7.7,8.7 C56.5,143.7,59.4,140.5,59.4,135z M81,152.5v-43.9h12.4v9.5h0.4c1-4.9,4.3-9.5,11.2-9.5h2.2v11.5h-3.1c-7.2,0-10.7,1.6-10.7,6.7 v25.7H81z M2.4,214.3c0-19.7,10.1-30.6,25.8-30.6c10.7,0,17.6,4.3,21.8,13.7l-11,5.7c-1.5-4.9-4.6-8.1-10.9-8.1 c-7.4,0-12.4,5-12.4,14.2v9.4c0,9.2,4.9,14.2,12.4,14.2c6.3,0,9.9-3.9,11.6-8.7l10.4,6c-4.3,8.9-11.3,14-22,14 C12.5,244.1,2.4,234.1,2.4,214.3z M55.7,221.1c0-14.1,7.7-22.9,20.6-22.9c12.9,0,20.6,8.8,20.6,22.9c0,14.1-7.7,23-20.6,23 C63.4,244.1,55.7,235.3,55.7,221.1z M84,225.6v-8.9c0-5.5-2.8-8.7-7.7-8.7c-4.9,0-7.7,3.2-7.7,8.7v8.9c0,5.5,2.8,8.7,7.7,8.7 C81.1,234.3,84,231.2,84,225.6z M132.6,235.8h-0.4c-1.3,4.8-6.1,8.4-11.8,8.4c-11.1,0-16.9-8.1-16.9-23c0-14.9,5.8-22.9,16.9-22.9 c5.7,0,10.5,3.5,11.8,8.4h0.4v-25.3H145v61.9h-12.4V235.8z M132.6,227.6v-13c0-4-3.4-6.4-8.1-6.4s-8.1,3.6-8.1,9.1v7.6 c0,5.5,3.4,9.1,8.1,9.1S132.6,231.7,132.6,227.6z M153.7,221.1c0-13.9,7.4-22.9,20.6-22.9c14.6,0,20.4,10.5,20.4,22.4v3.7h-28.2v0.7 c0,5.8,3.1,9.5,9.7,9.5c5.2,0,8-2.4,10.8-5.3l6.2,7.7c-3.9,4.5-10.4,7.3-18.4,7.3C161.3,244.1,153.7,235.2,153.7,221.1z M166.5,216.4v0.7h15.4v-0.8c0-5.4-2.4-8.9-7.4-8.9C169.6,207.3,166.5,210.9,166.5,216.4z M198.9,195.6c0-4,3-7,6.8-7 c3.8,0,6.8,3,6.8,7c0,4-3.1,7-6.8,7C201.9,202.6,198.9,199.6,198.9,195.6z M210.8,196.1v-1c0-3-2.3-5-5.1-5c-2.8,0-5.1,2-5.1,5v1 c0,3,2.3,5,5.1,5C208.5,201.1,210.8,199.1,210.8,196.1z M204.8,199.2h-1.9v-7.1h3.4c1.7,0,2.6,1,2.6,2.3c0,1.1-0.5,1.8-1.3,2.2 l1.5,2.6h-2.1l-1.2-2.2h-0.9V199.2z M205.9,195.5c0.6,0,0.9-0.2,0.9-0.7v-0.4c0-0.5-0.3-0.7-0.9-0.7h-1.1v1.9H205.9z"></path> </svg> 