<?xml version="1.0" encoding="utf-8"?>
<!-- Generator: Adobe Illustrator 24.1.2, SVG Export Plug-In . SVG Version: 6.00 Build 0)  -->
<svg version="1.1" id="Layer_1" xmlns="http://www.w3.org/2000/svg" xmlns:xlink="http://www.w3.org/1999/xlink" x="0px" y="0px"
	 viewBox="0 0 590 124" style="enable-background:new 0 0 590 124;" xml:space="preserve">
<style type="text/css">
	.st0{fill:#001A3F;}
	.st1{clip-path:url(#SVGID_2_);fill:#8D2BB5;}
	.st2{clip-path:url(#SVGID_2_);fill:#8C2BB6;}
	.st3{clip-path:url(#SVGID_2_);fill:#8B2CB7;}
	.st4{clip-path:url(#SVGID_2_);fill:#8A2EB9;}
	.st5{clip-path:url(#SVGID_2_);fill:#882FBA;}
	.st6{clip-path:url(#SVGID_2_);fill:#8730BA;}
	.st7{clip-path:url(#SVGID_2_);fill:#7A3DC5;}
	.st8{clip-path:url(#SVGID_2_);fill:#793FC6;}
	.st9{clip-path:url(#SVGID_2_);fill:#7740C7;}
	.st10{clip-path:url(#SVGID_2_);fill:#7641C8;}
	.st11{clip-path:url(#SVGID_2_);fill:#7542C9;}
	.st12{clip-path:url(#SVGID_2_);fill:#7343CA;}
	.st13{clip-path:url(#SVGID_2_);fill:#7245CB;}
	.st14{clip-path:url(#SVGID_2_);fill:#7146CC;}
	.st15{clip-path:url(#SVGID_2_);fill:#7047CC;}
	.st16{clip-path:url(#SVGID_2_);fill:#6E48CD;}
	.st17{clip-path:url(#SVGID_2_);fill:#6D49CE;}
	.st18{clip-path:url(#SVGID_2_);fill:#6C4ACF;}
	.st19{clip-path:url(#SVGID_2_);fill:#6A4CD0;}
	.st20{clip-path:url(#SVGID_2_);fill:#694DD1;}
	.st21{clip-path:url(#SVGID_2_);fill:#6450D5;}
	.st22{clip-path:url(#SVGID_2_);fill:#6251D6;}
	.st23{clip-path:url(#SVGID_2_);fill:#6152D7;}
	.st24{clip-path:url(#SVGID_2_);fill:#6053D8;}
	.st25{clip-path:url(#SVGID_2_);fill:#5E55D9;}
	.st26{clip-path:url(#SVGID_2_);fill:#5D56DA;}
	.st27{clip-path:url(#SVGID_2_);fill:#5B57DB;}
	.st28{clip-path:url(#SVGID_2_);fill:#5958DC;}
	.st29{clip-path:url(#SVGID_2_);fill:#5759DD;}
	.st30{clip-path:url(#SVGID_2_);fill:#565ADE;}
	.st31{clip-path:url(#SVGID_2_);fill:#545BDF;}
	.st32{clip-path:url(#SVGID_2_);fill:#535CE0;}
	.st33{clip-path:url(#SVGID_2_);fill:#515DE1;}
	.st34{clip-path:url(#SVGID_2_);fill:#505FE2;}
	.st35{clip-path:url(#SVGID_2_);fill:#4E60E3;}
	.st36{clip-path:url(#SVGID_2_);fill:#4B61E4;}
	.st37{clip-path:url(#SVGID_2_);fill:#4A62E5;}
	.st38{clip-path:url(#SVGID_2_);fill:#4863E6;}
	.st39{clip-path:url(#SVGID_2_);fill:#4664E7;}
	.st40{clip-path:url(#SVGID_2_);fill:#4465E8;}
	.st41{clip-path:url(#SVGID_2_);fill:#4366E9;}
	.st42{clip-path:url(#SVGID_2_);fill:#3F67EA;}
	.st43{clip-path:url(#SVGID_2_);fill:#3D68EB;}
	.st44{clip-path:url(#SVGID_2_);fill:#3C69EC;}
	.st45{clip-path:url(#SVGID_2_);fill:#3A6AED;}
	.st46{clip-path:url(#SVGID_2_);fill:#386BEE;}
	.st47{clip-path:url(#SVGID_2_);fill:#346DEF;}
	.st48{clip-path:url(#SVGID_2_);fill:#326EF0;}
	.st49{clip-path:url(#SVGID_2_);fill:#2F6FF1;}
	.st50{clip-path:url(#SVGID_2_);fill:#2D70F2;}
	.st51{clip-path:url(#SVGID_2_);fill:#2A71F3;}
	.st52{clip-path:url(#SVGID_2_);fill:#2672F5;}
	.st53{clip-path:url(#SVGID_2_);fill:#2274F6;}
	.st54{clip-path:url(#SVGID_2_);fill:#1E75F7;}
	.st55{clip-path:url(#SVGID_2_);fill:#1B76F8;}
	.st56{clip-path:url(#SVGID_2_);fill:#1677FA;}
	.st57{clip-path:url(#SVGID_2_);fill:#0D78FB;}
	.st58{clip-path:url(#SVGID_2_);fill:#0679FC;}
	.st59{clip-path:url(#SVGID_2_);fill:#007AFD;}
	.st60{clip-path:url(#SVGID_2_);fill:#A404A3;}
	.st61{clip-path:url(#SVGID_2_);fill:#A307A5;}
	.st62{clip-path:url(#SVGID_2_);fill:#A208A5;}
	.st63{clip-path:url(#SVGID_2_);fill:#A20BA6;}
	.st64{clip-path:url(#SVGID_2_);fill:#A10EA7;}
	.st65{clip-path:url(#SVGID_2_);fill:#9F0EA7;}
	.st66{clip-path:url(#SVGID_2_);fill:#9E11A8;}
	.st67{clip-path:url(#SVGID_2_);fill:#9E13A9;}
	.st68{clip-path:url(#SVGID_2_);fill:#9D14A9;}
	.st69{clip-path:url(#SVGID_2_);fill:#9C16AA;}
	.st70{clip-path:url(#SVGID_2_);fill:#9B18AB;}
	.st71{clip-path:url(#SVGID_2_);fill:#9A1AAC;}
	.st72{clip-path:url(#SVGID_2_);fill:#BF1CAA;}
	.st73{clip-path:url(#SVGID_2_);fill:#BE1BAA;}
	.st74{clip-path:url(#SVGID_2_);fill:#BD19A9;}
	.st75{clip-path:url(#SVGID_2_);fill:#BC1AA9;}
	.st76{clip-path:url(#SVGID_2_);fill:#BA18A9;}
	.st77{clip-path:url(#SVGID_2_);fill:#B916A8;}
	.st78{clip-path:url(#SVGID_2_);fill:#B817A8;}
	.st79{clip-path:url(#SVGID_2_);fill:#B715A8;}
	.st80{clip-path:url(#SVGID_2_);fill:#B613A7;}
	.st81{clip-path:url(#SVGID_2_);fill:#B514A7;}
	.st82{clip-path:url(#SVGID_2_);fill:#B412A7;}
	.st83{clip-path:url(#SVGID_2_);fill:#B312A6;}
	.st84{clip-path:url(#SVGID_2_);fill:#B210A6;}
	.st85{clip-path:url(#SVGID_2_);fill:#B10EA6;}
	.st86{clip-path:url(#SVGID_2_);fill:#B00FA5;}
	.st87{clip-path:url(#SVGID_2_);fill:#AF0DA5;}
	.st88{clip-path:url(#SVGID_2_);fill:#AE0AA5;}
	.st89{clip-path:url(#SVGID_2_);fill:#AD0BA4;}
	.st90{clip-path:url(#SVGID_2_);fill:#AB09A4;}
	.st91{clip-path:url(#SVGID_2_);fill:#AA06A4;}
	.st92{clip-path:url(#SVGID_2_);fill:#A907A3;}
	.st93{clip-path:url(#SVGID_2_);fill:#A805A3;}
	.st94{clip-path:url(#SVGID_2_);fill:#A702A3;}
	.st95{clip-path:url(#SVGID_2_);fill:#A603A2;}
	.st96{clip-path:url(#SVGID_2_);fill:#A501A2;}
	.st97{clip-path:url(#SVGID_2_);fill:#D92EB2;}
	.st98{clip-path:url(#SVGID_2_);fill:#D82FB2;}
	.st99{clip-path:url(#SVGID_2_);fill:#D72DB1;}
	.st100{clip-path:url(#SVGID_2_);fill:#D62CB1;}
	.st101{clip-path:url(#SVGID_2_);fill:#D52CB1;}
	.st102{clip-path:url(#SVGID_2_);fill:#D42BB0;}
	.st103{clip-path:url(#SVGID_2_);fill:#D32AB0;}
	.st104{clip-path:url(#SVGID_2_);fill:#D22AB0;}
	.st105{clip-path:url(#SVGID_2_);fill:#D029AF;}
	.st106{clip-path:url(#SVGID_2_);fill:#CF29AF;}
	.st107{clip-path:url(#SVGID_2_);fill:#CE28AF;}
	.st108{clip-path:url(#SVGID_2_);fill:#CD26AE;}
	.st109{clip-path:url(#SVGID_2_);fill:#CC27AE;}
	.st110{clip-path:url(#SVGID_2_);fill:#CA25AE;}
	.st111{clip-path:url(#SVGID_2_);fill:#C924AD;}
	.st112{clip-path:url(#SVGID_2_);fill:#C824AD;}
	.st113{clip-path:url(#SVGID_2_);fill:#C723AD;}
	.st114{clip-path:url(#SVGID_2_);fill:#C621AC;}
	.st115{clip-path:url(#SVGID_2_);fill:#C522AC;}
	.st116{clip-path:url(#SVGID_2_);fill:#C420AC;}
	.st117{clip-path:url(#SVGID_2_);fill:#C31FAB;}
	.st118{clip-path:url(#SVGID_2_);fill:#C21FAB;}
	.st119{clip-path:url(#SVGID_2_);fill:#C11EAB;}
	.st120{clip-path:url(#SVGID_2_);fill:#C01CAA;}
	.st121{clip-path:url(#SVGID_2_);fill:#EE3DB7;}
	.st122{clip-path:url(#SVGID_2_);fill:#ED3CB7;}
	.st123{clip-path:url(#SVGID_2_);fill:#EC3CB7;}
	.st124{clip-path:url(#SVGID_2_);fill:#EA3BB6;}
	.st125{clip-path:url(#SVGID_2_);fill:#E93AB6;}
	.st126{clip-path:url(#SVGID_2_);fill:#E83AB7;}
	.st127{clip-path:url(#SVGID_2_);fill:#E739B5;}
	.st128{clip-path:url(#SVGID_2_);fill:#E637B6;}
	.st129{clip-path:url(#SVGID_2_);fill:#E538B6;}
	.st130{clip-path:url(#SVGID_2_);fill:#E436B5;}
	.st131{clip-path:url(#SVGID_2_);fill:#E335B5;}
	.st132{clip-path:url(#SVGID_2_);fill:#E235B5;}
	.st133{clip-path:url(#SVGID_2_);fill:#E134B4;}
	.st134{clip-path:url(#SVGID_2_);fill:#E033B4;}
	.st135{clip-path:url(#SVGID_2_);fill:#DF33B4;}
	.st136{clip-path:url(#SVGID_2_);fill:#DE32B3;}
	.st137{clip-path:url(#SVGID_2_);fill:#DD31B3;}
	.st138{clip-path:url(#SVGID_2_);fill:#DC31B3;}
	.st139{clip-path:url(#SVGID_2_);fill:#DB30B2;}
	.st140{clip-path:url(#SVGID_2_);fill:#F945BB;}
	.st141{clip-path:url(#SVGID_2_);fill:#F843BB;}
	.st142{clip-path:url(#SVGID_2_);fill:#F744BA;}
	.st143{clip-path:url(#SVGID_2_);fill:#F642BA;}
	.st144{clip-path:url(#SVGID_2_);fill:#F541BA;}
	.st145{clip-path:url(#SVGID_2_);fill:#F441B9;}
	.st146{clip-path:url(#SVGID_2_);fill:#F340B9;}
	.st147{clip-path:url(#SVGID_2_);fill:#F23FB9;}
	.st148{clip-path:url(#SVGID_2_);fill:#F13FB8;}
	.st149{clip-path:url(#SVGID_2_);fill:#F03EB8;}
	.st150{clip-path:url(#SVGID_2_);fill:#EF3DB8;}
	.st151{clip-path:url(#SVGID_2_);fill:#FD47BC;}
	.st152{clip-path:url(#SVGID_2_);fill:#FC45BC;}
	.st153{clip-path:url(#SVGID_2_);fill:#FA46BB;}
</style>
<g>
	<path class="st0" d="M144.44,81.44c-5.01-4.97-7.53-11.15-7.53-18.57c0-7.42,2.52-13.6,7.53-18.57c5.01-4.94,11.15-7.42,18.38-7.42
		c8.44,0,15.86,3.8,20.68,10.02v0.49l-3.62,2.75h-0.45c-3.73-5.12-9.72-8.17-16.46-8.17c-5.8,0-10.66,1.96-14.54,5.91
		c-3.92,3.95-5.88,8.93-5.88,14.99c0,6.06,1.96,11.07,5.88,14.99c3.88,3.96,8.74,5.91,14.54,5.91c6.67,0,12.73-3.01,16.46-8.17h0.45
		l3.62,2.79v0.45c-4.82,6.29-12.24,10.06-20.68,10.06C155.55,88.9,149.45,86.41,144.44,81.44z"/>
	<path class="st0" d="M223.69,64.19v23.77h-5.27V82.8c-3.5,4.07-7.95,6.1-13.34,6.1c-4.48,0-8.06-1.17-10.81-3.5
		c-2.75-2.3-4.14-5.35-4.14-9.08c0-3.88,1.51-6.97,4.52-9.34c2.98-2.37,6.93-3.54,11.83-3.54c4.07,0,8.06,0.98,11.94,2.94v-3.35
		c0-2.9-0.98-5.24-2.98-7.01c-2-1.77-4.67-2.64-7.99-2.64c-4.56,0-8.59,1.43-12.09,4.33h-0.45l-2.41-3.47v-0.45
		c1.85-1.58,4.14-2.86,6.89-3.88c2.71-0.98,5.39-1.47,8.06-1.47C217.97,48.44,223.69,54.13,223.69,64.19z M214.5,81.14
		c2.6-1.88,3.92-4.33,3.92-7.38v-2.37c-4.11-2.11-8.06-3.16-11.87-3.16c-3.28,0-5.91,0.75-7.91,2.26c-2,1.54-2.98,3.54-2.98,5.99
		c0,2.26,0.9,4.07,2.71,5.42c1.77,1.39,4.18,2.07,7.16,2.07C208.89,83.97,211.86,83.02,214.5,81.14z"/>
	<path class="st0" d="M265.33,54.28c3.65,3.88,5.46,8.7,5.46,14.39c0,5.69-1.81,10.51-5.46,14.39c-3.65,3.88-8.36,5.84-14.05,5.84
		c-5.69,0-10.43-2.07-14.2-6.18v16.8h-5.39V49.39h5.16v5.31c3.77-4.18,8.59-6.25,14.43-6.25C256.97,48.44,261.68,50.4,265.33,54.28z
		 M261.3,79.56c2.64-2.94,3.95-6.55,3.95-10.89c0-4.33-1.32-7.95-3.95-10.89c-2.67-2.94-6.18-4.41-10.55-4.41
		c-4.07,0-7.46,1.32-10.17,3.95c-2.75,2.67-4.11,6.44-4.11,11.34c0,4.9,1.36,8.66,4.11,11.3c2.71,2.67,6.1,3.99,10.17,3.99
		C255.12,83.97,258.63,82.5,261.3,79.56z"/>
	<path class="st0" d="M282.1,70.29c0.3,4.26,1.85,7.61,4.67,10.02c2.79,2.45,6.1,3.65,9.91,3.65c2.41,0,4.9-0.53,7.42-1.54
		c2.52-1.02,4.48-2.49,5.91-4.33h0.45l3.31,2.79v0.45c-1.81,2.45-4.29,4.33-7.42,5.61c-3.16,1.32-6.33,1.96-9.53,1.96
		c-5.5,0-10.28-1.81-14.31-5.46c-4.03-3.62-6.06-8.48-6.06-14.62c0-5.8,1.85-10.66,5.58-14.54c3.69-3.88,8.29-5.84,13.79-5.84
		c5.31,0,9.72,1.73,13.26,5.2c3.88,3.77,5.8,8.51,5.8,14.28c0,0.87-0.04,1.66-0.15,2.37H282.1z M286.7,56.62
		c-2.45,2.18-3.96,5.09-4.45,8.74h27.09c-0.45-3.28-1.7-5.95-3.73-8.02c-2.37-2.64-5.61-3.95-9.79-3.95
		C292.16,53.38,289.15,54.47,286.7,56.62z"/>
	<path class="st0" d="M362.69,37.82c11.3,0,17.67,5.42,17.67,15.18c0,9.68-6.37,15.14-17.67,15.14h-12.51v19.81h-5.54V37.82H362.69z
		 M364.16,63.36c6.67,0,10.47-3.69,10.47-10.28c0-6.59-3.8-10.32-10.47-10.32h-13.98v20.61H364.16z"/>
	<path class="st0" d="M407.45,49.99l-1.77,4.26l-0.49,0.23c-0.94-0.64-2.26-0.94-3.99-0.9c-2.79,0-5.01,1.17-6.67,3.5
		c-1.7,2.34-2.52,5.31-2.52,8.89v22h-5.39V49.39h5.16v5.16c2.26-4.07,5.69-6.1,10.25-6.1c1.88,0,3.62,0.38,5.2,1.09L407.45,49.99z"
		/>
	<path class="st0" d="M418.07,42.53c-1.24,0-2.3-0.45-3.16-1.32c-1.73-1.73-1.73-4.6,0-6.33c0.87-0.87,1.92-1.32,3.16-1.32
		c1.24,0,2.3,0.45,3.16,1.32c1.7,1.73,1.7,4.6,0,6.33C420.37,42.08,419.31,42.53,418.07,42.53z M415.36,87.96V49.39h5.39v38.57
		H415.36z"/>
	<path class="st0" d="M466.02,49.39l0.23,0.45l-17.74,38.12h-2.45l-17.89-38.12l0.23-0.45H434l13.22,29.87l13.71-29.87H466.02z"/>
	<path class="st0" d="M502.23,64.19v23.77h-5.27V82.8c-3.5,4.07-7.95,6.1-13.34,6.1c-4.48,0-8.06-1.17-10.81-3.5
		c-2.75-2.3-4.14-5.35-4.14-9.08c0-3.88,1.51-6.97,4.52-9.34c2.98-2.37,6.93-3.54,11.83-3.54c4.07,0,8.06,0.98,11.94,2.94v-3.35
		c0-2.9-0.98-5.24-2.98-7.01c-2-1.77-4.67-2.64-7.99-2.64c-4.56,0-8.59,1.43-12.09,4.33h-0.45l-2.41-3.47v-0.45
		c1.85-1.58,4.14-2.86,6.89-3.88c2.71-0.98,5.39-1.47,8.06-1.47C496.5,48.44,502.23,54.13,502.23,64.19z M493.04,81.14
		c2.6-1.88,3.92-4.33,3.92-7.38v-2.37c-4.11-2.11-8.06-3.16-11.87-3.16c-3.28,0-5.91,0.75-7.91,2.26c-2,1.54-2.98,3.54-2.98,5.99
		c0,2.26,0.9,4.07,2.71,5.42c1.77,1.39,4.18,2.07,7.16,2.07C487.42,83.97,490.4,83.02,493.04,81.14z"/>
	<path class="st0" d="M515.07,83.1c-3.88-3.88-5.84-8.66-5.84-14.43c0-5.76,1.96-10.55,5.84-14.43c3.88-3.88,8.78-5.8,14.69-5.8
		c6.37,0,12.17,2.6,15.67,6.82v0.45l-3.35,2.71h-0.45c-3.35-3.35-7.31-5.01-11.87-5.05c-4.37,0-7.95,1.43-10.77,4.33
		s-4.22,6.55-4.22,11.04c0,4.41,1.39,8.06,4.18,10.92c2.79,2.86,6.48,4.29,11.11,4.29c4.86,0,8.7-1.7,11.56-5.05h0.45l3.35,2.71
		v0.45c-3.5,4.22-9.31,6.82-15.67,6.82C523.84,88.9,518.95,86.98,515.07,83.1z"/>
	<path class="st0" d="M585.16,49.64l0.3,0.45l-18.31,41.44c-1.47,3.43-2.94,5.8-4.41,7.12c-1.47,1.28-3.5,1.92-6.06,1.92
		c-2.3,0-4.22-0.53-5.73-1.54l-0.15-0.49l1.62-3.54l0.49-0.15c1.09,0.79,2.3,1.17,3.69,1.17c1.28,0,2.3-0.3,3.05-0.94
		c0.72-0.64,1.54-2,2.41-3.99l2.19-4.86l-15.52-36.13l0.3-0.45h5.5l12.62,30.1l12.81-30.1H585.16z"/>
</g>
<g>
	<g>
		<defs>
			<path id="SVGID_1_" d="M88.51,88.5l11.97,11.97c0.65,0.65,0.65,1.7,0,2.35c-0.33,0.33-0.75,0.49-1.18,0.49s-0.85-0.16-1.18-0.49
				L86.16,90.85C86.97,90.1,87.76,89.32,88.51,88.5z M58.4,100.97v16.93c0,0.92,0.75,1.66,1.66,1.66c0.92,0,1.66-0.75,1.66-1.66
				v-16.93c-0.55,0.02-1.11,0.04-1.66,0.04C59.51,101.01,58.96,100.99,58.4,100.97z M6.9,46.45c-0.89-0.24-1.8,0.29-2.04,1.18
				c-0.24,0.89,0.29,1.8,1.18,2.04l16.35,4.38c0.24-1.09,0.52-2.17,0.85-3.22L6.9,46.45z M12.85,33.23
				c-0.8-0.46-1.81-0.19-2.27,0.61c-0.46,0.8-0.19,1.81,0.61,2.27l14.66,8.46c0.52-0.99,1.07-1.95,1.67-2.88L12.85,33.23z
				 M76.04,9.25c0.24-0.89-0.29-1.8-1.18-2.04c-0.89-0.24-1.8,0.29-2.04,1.18l-4.38,16.35c1.09,0.24,2.17,0.52,3.22,0.85L76.04,9.25
				z M21.51,60.75H4.58c-0.92,0-1.66,0.75-1.66,1.66s0.75,1.66,1.66,1.66h16.93c-0.02-0.55-0.04-1.11-0.04-1.66
				C21.47,61.86,21.49,61.3,21.51,60.75z M89.25,15.19c0.46-0.8,0.19-1.81-0.61-2.27c-0.8-0.46-1.81-0.19-2.27,0.61l-8.46,14.66
				c0.99,0.52,1.95,1.07,2.88,1.67L89.25,15.19z M47.32,8.39c-0.24-0.89-1.15-1.41-2.04-1.18c-0.89,0.24-1.41,1.15-1.18,2.04
				l4.38,16.34c1.05-0.33,2.13-0.61,3.22-0.85L47.32,8.39z M31.63,88.5l-11.97,11.97c-0.65,0.65-0.65,1.7,0,2.35
				c0.32,0.33,0.75,0.49,1.18,0.49c0.43,0,0.85-0.16,1.18-0.49l11.97-11.97C33.16,90.1,32.38,89.32,31.63,88.5z M33.77,13.53
				c-0.46-0.8-1.48-1.07-2.27-0.61c-0.8,0.46-1.07,1.48-0.61,2.27l8.47,14.66c0.93-0.6,1.89-1.15,2.88-1.67L33.77,13.53z
				 M6.04,75.17c-0.89,0.24-1.41,1.15-1.18,2.04c0.2,0.74,0.87,1.23,1.61,1.23c0.14,0,0.29-0.02,0.43-0.06L23.25,74
				c-0.33-1.05-0.61-2.13-0.85-3.22L6.04,75.17z M11.18,88.72c-0.8,0.46-1.07,1.48-0.61,2.27c0.31,0.53,0.87,0.83,1.44,0.83
				c0.28,0,0.57-0.07,0.83-0.22l14.66-8.47c-0.6-0.93-1.15-1.89-1.67-2.88L11.18,88.72z M33.98,33.97L22.01,22
				c-0.65-0.65-1.7-0.65-2.35,0c-0.65,0.65-0.65,1.7,0,2.35l11.97,11.97C32.38,35.51,33.16,34.72,33.98,33.97z M30.88,109.63
				c-0.46,0.8-0.19,1.81,0.61,2.27c0.26,0.15,0.55,0.22,0.83,0.22c0.58,0,1.13-0.3,1.44-0.83l8.46-14.66
				c-0.99-0.52-1.95-1.07-2.88-1.67L30.88,109.63z M44.1,115.58c-0.24,0.89,0.29,1.8,1.18,2.04c0.14,0.04,0.29,0.06,0.43,0.06
				c0.73,0,1.41-0.49,1.61-1.23l4.38-16.35c-1.09-0.24-2.17-0.52-3.22-0.85L44.1,115.58z M88.51,36.33l11.97-11.97
				c0.65-0.65,0.65-1.7,0-2.35c-0.65-0.65-1.7-0.65-2.35,0L86.16,33.97C86.97,34.72,87.76,35.51,88.51,36.33z M86.37,111.3
				c0.31,0.53,0.87,0.83,1.44,0.83c0.28,0,0.57-0.07,0.83-0.22c0.8-0.46,1.07-1.48,0.61-2.27l-8.47-14.66
				c-0.93,0.6-1.89,1.15-2.88,1.67L86.37,111.3z M72.82,116.44c0.2,0.74,0.87,1.23,1.61,1.23c0.14,0,0.29-0.02,0.43-0.06
				c0.89-0.24,1.42-1.15,1.18-2.04l-4.38-16.34c-1.05,0.33-2.13,0.61-3.22,0.85L72.82,116.44z M61.73,23.86V6.93
				c0-0.92-0.75-1.66-1.66-1.66c-0.92,0-1.66,0.75-1.66,1.66v16.93c0.55-0.02,1.11-0.04,1.66-0.04
				C60.63,23.82,61.18,23.84,61.73,23.86z"/>
		</defs>
		<clipPath id="SVGID_2_">
			<use xlink:href="#SVGID_1_"  style="overflow:visible;"/>
		</clipPath>
		<rect x="58.4" y="5.26" class="st1" width="0.55" height="18.6"/>
		<rect x="58.96" y="5.26" class="st2" width="0.59" height="18.6"/>
		<rect x="59.55" y="5.26" class="st3" width="0.59" height="18.6"/>
		<rect x="60.14" y="5.26" class="st4" width="0.59" height="18.6"/>
		<rect x="60.73" y="5.26" class="st5" width="0.59" height="18.6"/>
		<rect x="61.32" y="5.26" class="st6" width="0.41" height="18.6"/>
		<rect x="68.44" y="99.24" class="st7" width="0.58" height="18.44"/>
		<rect x="69.02" y="99.24" class="st8" width="0.59" height="18.44"/>
		<rect x="69.61" y="99.24" class="st9" width="0.59" height="18.44"/>
		<rect x="70.2" y="99.24" class="st10" width="0.59" height="18.44"/>
		<rect x="70.79" y="99.24" class="st11" width="0.59" height="18.44"/>
		<rect x="71.38" y="99.24" class="st12" width="0.59" height="18.44"/>
		<rect x="71.97" y="99.24" class="st13" width="0.59" height="18.44"/>
		<rect x="72.57" y="99.24" class="st14" width="0.59" height="18.44"/>
		<rect x="73.16" y="99.24" class="st15" width="0.59" height="18.44"/>
		<rect x="73.75" y="99.24" class="st16" width="0.59" height="18.44"/>
		<rect x="74.34" y="99.24" class="st17" width="0.59" height="18.44"/>
		<rect x="74.93" y="99.24" class="st18" width="0.59" height="18.44"/>
		<rect x="75.52" y="99.24" class="st19" width="0.59" height="18.44"/>
		<rect x="76.12" y="99.24" class="st20" width="0.16" height="18.44"/>
		<rect x="77.91" y="94.97" class="st21" width="0.58" height="17.16"/>
		<rect x="78.48" y="94.97" class="st22" width="0.59" height="17.16"/>
		<rect x="79.07" y="94.97" class="st23" width="0.59" height="17.16"/>
		<rect x="79.67" y="94.97" class="st24" width="0.59" height="17.16"/>
		<rect x="80.26" y="94.97" class="st25" width="0.59" height="17.16"/>
		<rect x="80.85" y="94.97" class="st26" width="0.59" height="17.16"/>
		<rect x="81.44" y="94.97" class="st27" width="0.59" height="17.16"/>
		<rect x="82.03" y="94.97" class="st28" width="0.59" height="17.16"/>
		<rect x="82.63" y="94.97" class="st29" width="0.59" height="17.16"/>
		<rect x="83.22" y="94.97" class="st30" width="0.59" height="17.16"/>
		<rect x="83.81" y="94.97" class="st31" width="0.59" height="17.16"/>
		<rect x="84.4" y="94.97" class="st32" width="0.59" height="17.16"/>
		<rect x="84.99" y="94.97" class="st33" width="0.59" height="17.16"/>
		<rect x="85.58" y="94.97" class="st34" width="0.59" height="17.16"/>
		<rect x="86.18" y="94.97" class="st35" width="0.59" height="17.16"/>
		<rect x="86.77" y="94.97" class="st36" width="0.59" height="17.16"/>
		<rect x="87.36" y="94.97" class="st37" width="0.59" height="17.16"/>
		<rect x="87.95" y="94.97" class="st38" width="0.59" height="17.16"/>
		<rect x="88.54" y="94.97" class="st39" width="0.59" height="17.16"/>
		<rect x="89.13" y="94.97" class="st40" width="0.58" height="17.16"/>
		<rect x="86.16" y="21.35" class="st34" width="0.02" height="14.97"/>
		<rect x="86.18" y="21.35" class="st35" width="0.59" height="14.97"/>
		<rect x="86.77" y="21.35" class="st36" width="0.59" height="14.97"/>
		<rect x="87.36" y="21.35" class="st37" width="0.59" height="14.97"/>
		<rect x="87.95" y="21.35" class="st38" width="0.59" height="14.97"/>
		<rect x="88.54" y="21.35" class="st39" width="0.59" height="14.97"/>
		<rect x="89.13" y="21.35" class="st40" width="0.59" height="14.97"/>
		<rect x="89.73" y="21.35" class="st41" width="0.59" height="14.97"/>
		<rect x="90.32" y="21.35" class="st42" width="0.59" height="14.97"/>
		<rect x="90.91" y="21.35" class="st43" width="0.59" height="14.97"/>
		<rect x="91.5" y="21.35" class="st44" width="0.59" height="14.97"/>
		<rect x="92.09" y="21.35" class="st45" width="0.59" height="14.97"/>
		<rect x="92.68" y="21.35" class="st46" width="0.59" height="14.97"/>
		<rect x="93.28" y="21.35" class="st47" width="0.59" height="14.97"/>
		<rect x="93.87" y="21.35" class="st48" width="0.59" height="14.97"/>
		<rect x="94.46" y="21.35" class="st49" width="0.59" height="14.97"/>
		<rect x="95.05" y="21.35" class="st50" width="0.59" height="14.97"/>
		<rect x="95.64" y="21.35" class="st51" width="0.59" height="14.97"/>
		<rect x="96.23" y="21.35" class="st52" width="0.59" height="14.97"/>
		<rect x="96.83" y="21.35" class="st53" width="0.59" height="14.97"/>
		<rect x="97.42" y="21.35" class="st54" width="0.59" height="14.97"/>
		<rect x="98.01" y="21.35" class="st55" width="0.59" height="14.97"/>
		<rect x="98.6" y="21.35" class="st56" width="0.59" height="14.97"/>
		<rect x="99.19" y="21.35" class="st57" width="0.59" height="14.97"/>
		<rect x="99.78" y="21.35" class="st58" width="0.59" height="14.97"/>
		<rect x="100.38" y="21.35" class="st59" width="0.59" height="14.97"/>
		<rect x="100.97" y="21.35" class="st59" width="0.16" height="14.97"/>
		<rect x="43.86" y="99.24" class="st60" width="0.3" height="18.44"/>
		<rect x="44.16" y="99.24" class="st60" width="0.59" height="18.44"/>
		<rect x="44.76" y="99.24" class="st61" width="0.59" height="18.44"/>
		<rect x="45.35" y="99.24" class="st62" width="0.59" height="18.44"/>
		<rect x="45.94" y="99.24" class="st63" width="0.59" height="18.44"/>
		<rect x="46.53" y="99.24" class="st64" width="0.59" height="18.44"/>
		<rect x="47.12" y="99.24" class="st65" width="0.59" height="18.44"/>
		<rect x="47.71" y="99.24" class="st66" width="0.59" height="18.44"/>
		<rect x="48.31" y="99.24" class="st67" width="0.59" height="18.44"/>
		<rect x="48.9" y="99.24" class="st68" width="0.59" height="18.44"/>
		<rect x="49.49" y="99.24" class="st69" width="0.59" height="18.44"/>
		<rect x="50.08" y="99.24" class="st70" width="0.59" height="18.44"/>
		<rect x="50.67" y="99.24" class="st70" width="0.59" height="18.44"/>
		<rect x="51.26" y="99.24" class="st71" width="0.43" height="18.44"/>
		<rect x="30.42" y="94.97" class="st72" width="0.41" height="17.16"/>
		<rect x="30.84" y="94.97" class="st73" width="0.48" height="17.16"/>
		<rect x="31.32" y="94.97" class="st74" width="0.48" height="17.16"/>
		<rect x="31.8" y="94.97" class="st75" width="0.48" height="17.16"/>
		<rect x="32.28" y="94.97" class="st76" width="0.48" height="17.16"/>
		<rect x="32.76" y="94.97" class="st77" width="0.48" height="17.16"/>
		<rect x="33.24" y="94.97" class="st78" width="0.48" height="17.16"/>
		<rect x="33.72" y="94.97" class="st79" width="0.48" height="17.16"/>
		<rect x="34.21" y="94.97" class="st80" width="0.48" height="17.16"/>
		<rect x="34.69" y="94.97" class="st81" width="0.48" height="17.16"/>
		<rect x="35.17" y="94.97" class="st82" width="0.48" height="17.16"/>
		<rect x="35.65" y="94.97" class="st83" width="0.48" height="17.16"/>
		<rect x="36.13" y="94.97" class="st84" width="0.48" height="17.16"/>
		<rect x="36.61" y="94.97" class="st85" width="0.48" height="17.16"/>
		<rect x="37.09" y="94.97" class="st86" width="0.48" height="17.16"/>
		<rect x="37.58" y="94.97" class="st87" width="0.48" height="17.16"/>
		<rect x="38.06" y="94.97" class="st88" width="0.48" height="17.16"/>
		<rect x="38.54" y="94.97" class="st89" width="0.48" height="17.16"/>
		<rect x="39.02" y="94.97" class="st90" width="0.48" height="17.16"/>
		<rect x="39.5" y="94.97" class="st91" width="0.48" height="17.16"/>
		<rect x="39.98" y="94.97" class="st92" width="0.48" height="17.16"/>
		<rect x="40.46" y="94.97" class="st93" width="0.48" height="17.16"/>
		<rect x="40.94" y="94.97" class="st94" width="0.48" height="17.16"/>
		<rect x="41.43" y="94.97" class="st95" width="0.48" height="17.16"/>
		<rect x="41.91" y="94.97" class="st96" width="0.32" height="17.16"/>
		<rect x="19.01" y="21.35" class="st97" width="0.28" height="14.97"/>
		<rect x="19.28" y="21.35" class="st98" width="0.48" height="14.97"/>
		<rect x="19.77" y="21.35" class="st99" width="0.48" height="14.97"/>
		<rect x="20.25" y="21.35" class="st100" width="0.48" height="14.97"/>
		<rect x="20.73" y="21.35" class="st101" width="0.48" height="14.97"/>
		<rect x="21.21" y="21.35" class="st102" width="0.48" height="14.97"/>
		<rect x="21.69" y="21.35" class="st103" width="0.48" height="14.97"/>
		<rect x="22.17" y="21.35" class="st104" width="0.48" height="14.97"/>
		<rect x="22.65" y="21.35" class="st105" width="0.48" height="14.97"/>
		<rect x="23.13" y="21.35" class="st106" width="0.48" height="14.97"/>
		<rect x="23.62" y="21.35" class="st107" width="0.48" height="14.97"/>
		<rect x="24.1" y="21.35" class="st108" width="0.48" height="14.97"/>
		<rect x="24.58" y="21.35" class="st109" width="0.48" height="14.97"/>
		<rect x="25.06" y="21.35" class="st110" width="0.48" height="14.97"/>
		<rect x="25.54" y="21.35" class="st111" width="0.48" height="14.97"/>
		<rect x="26.02" y="21.35" class="st112" width="0.48" height="14.97"/>
		<rect x="26.5" y="21.35" class="st113" width="0.48" height="14.97"/>
		<rect x="26.99" y="21.35" class="st114" width="0.48" height="14.97"/>
		<rect x="27.47" y="21.35" class="st115" width="0.48" height="14.97"/>
		<rect x="27.95" y="21.35" class="st116" width="0.48" height="14.97"/>
		<rect x="28.43" y="21.35" class="st117" width="0.48" height="14.97"/>
		<rect x="28.91" y="21.35" class="st118" width="0.48" height="14.97"/>
		<rect x="29.39" y="21.35" class="st119" width="0.48" height="14.97"/>
		<rect x="29.87" y="21.35" class="st120" width="0.48" height="14.97"/>
		<rect x="30.36" y="21.35" class="st72" width="0.48" height="14.97"/>
		<rect x="30.84" y="21.35" class="st73" width="0.48" height="14.97"/>
		<rect x="31.32" y="21.35" class="st74" width="0.48" height="14.97"/>
		<rect x="31.8" y="21.35" class="st75" width="0.48" height="14.97"/>
		<rect x="32.28" y="21.35" class="st76" width="0.48" height="14.97"/>
		<rect x="32.76" y="21.35" class="st77" width="0.48" height="14.97"/>
		<rect x="33.24" y="21.35" class="st78" width="0.48" height="14.97"/>
		<rect x="33.72" y="21.35" class="st79" width="0.26" height="14.97"/>
		<rect x="10.12" y="80.25" class="st121" width="0.02" height="11.57"/>
		<rect x="10.14" y="80.25" class="st122" width="0.48" height="11.57"/>
		<rect x="10.62" y="80.25" class="st123" width="0.48" height="11.57"/>
		<rect x="11.1" y="80.25" class="st124" width="0.48" height="11.57"/>
		<rect x="11.58" y="80.25" class="st125" width="0.48" height="11.57"/>
		<rect x="12.06" y="80.25" class="st126" width="0.48" height="11.57"/>
		<rect x="12.55" y="80.25" class="st127" width="0.48" height="11.57"/>
		<rect x="13.03" y="80.25" class="st128" width="0.48" height="11.57"/>
		<rect x="13.51" y="80.25" class="st129" width="0.48" height="11.57"/>
		<rect x="13.99" y="80.25" class="st130" width="0.48" height="11.57"/>
		<rect x="14.47" y="80.25" class="st131" width="0.48" height="11.57"/>
		<rect x="14.95" y="80.25" class="st132" width="0.48" height="11.57"/>
		<rect x="15.43" y="80.25" class="st133" width="0.48" height="11.57"/>
		<rect x="15.91" y="80.25" class="st134" width="0.48" height="11.57"/>
		<rect x="16.4" y="80.25" class="st135" width="0.48" height="11.57"/>
		<rect x="16.88" y="80.25" class="st136" width="0.48" height="11.57"/>
		<rect x="17.36" y="80.25" class="st137" width="0.48" height="11.57"/>
		<rect x="17.84" y="80.25" class="st138" width="0.48" height="11.57"/>
		<rect x="18.32" y="80.25" class="st139" width="0.48" height="11.57"/>
		<rect x="18.8" y="80.25" class="st97" width="0.48" height="11.57"/>
		<rect x="19.28" y="80.25" class="st98" width="0.48" height="11.57"/>
		<rect x="19.77" y="80.25" class="st99" width="0.48" height="11.57"/>
		<rect x="20.25" y="80.25" class="st100" width="0.48" height="11.57"/>
		<rect x="20.73" y="80.25" class="st101" width="0.48" height="11.57"/>
		<rect x="21.21" y="80.25" class="st102" width="0.48" height="11.57"/>
		<rect x="21.69" y="80.25" class="st103" width="0.48" height="11.57"/>
		<rect x="22.17" y="80.25" class="st104" width="0.48" height="11.57"/>
		<rect x="22.65" y="80.25" class="st105" width="0.48" height="11.57"/>
		<rect x="23.13" y="80.25" class="st106" width="0.48" height="11.57"/>
		<rect x="23.62" y="80.25" class="st107" width="0.48" height="11.57"/>
		<rect x="24.1" y="80.25" class="st108" width="0.48" height="11.57"/>
		<rect x="24.58" y="80.25" class="st109" width="0.48" height="11.57"/>
		<rect x="25.06" y="80.25" class="st110" width="0.48" height="11.57"/>
		<rect x="25.54" y="80.25" class="st111" width="0.48" height="11.57"/>
		<rect x="26.02" y="80.25" class="st112" width="0.48" height="11.57"/>
		<rect x="26.5" y="80.25" class="st113" width="0.48" height="11.57"/>
		<rect x="26.99" y="80.25" class="st114" width="0.48" height="11.57"/>
		<rect x="27.47" y="80.25" class="st115" width="0.04" height="11.57"/>
		<rect x="4.63" y="70.79" class="st140" width="0.22" height="7.65"/>
		<rect x="4.84" y="70.79" class="st141" width="0.48" height="7.65"/>
		<rect x="5.33" y="70.79" class="st142" width="0.48" height="7.65"/>
		<rect x="5.81" y="70.79" class="st143" width="0.48" height="7.65"/>
		<rect x="6.29" y="70.79" class="st144" width="0.48" height="7.65"/>
		<rect x="6.77" y="70.79" class="st145" width="0.48" height="7.65"/>
		<rect x="7.25" y="70.79" class="st146" width="0.48" height="7.65"/>
		<rect x="7.73" y="70.79" class="st147" width="0.48" height="7.65"/>
		<rect x="8.21" y="70.79" class="st148" width="0.48" height="7.65"/>
		<rect x="8.69" y="70.79" class="st149" width="0.48" height="7.65"/>
		<rect x="9.18" y="70.79" class="st150" width="0.48" height="7.65"/>
		<rect x="9.66" y="70.79" class="st121" width="0.48" height="7.65"/>
		<rect x="10.14" y="70.79" class="st122" width="0.48" height="7.65"/>
		<rect x="10.62" y="70.79" class="st123" width="0.48" height="7.65"/>
		<rect x="11.1" y="70.79" class="st124" width="0.48" height="7.65"/>
		<rect x="11.58" y="70.79" class="st125" width="0.48" height="7.65"/>
		<rect x="12.06" y="70.79" class="st126" width="0.48" height="7.65"/>
		<rect x="12.55" y="70.79" class="st127" width="0.48" height="7.65"/>
		<rect x="13.03" y="70.79" class="st128" width="0.48" height="7.65"/>
		<rect x="13.51" y="70.79" class="st129" width="0.48" height="7.65"/>
		<rect x="13.99" y="70.79" class="st130" width="0.48" height="7.65"/>
		<rect x="14.47" y="70.79" class="st131" width="0.48" height="7.65"/>
		<rect x="14.95" y="70.79" class="st132" width="0.48" height="7.65"/>
		<rect x="15.43" y="70.79" class="st133" width="0.48" height="7.65"/>
		<rect x="15.91" y="70.79" class="st134" width="0.48" height="7.65"/>
		<rect x="16.4" y="70.79" class="st135" width="0.48" height="7.65"/>
		<rect x="16.88" y="70.79" class="st136" width="0.48" height="7.65"/>
		<rect x="17.36" y="70.79" class="st137" width="0.48" height="7.65"/>
		<rect x="17.84" y="70.79" class="st138" width="0.48" height="7.65"/>
		<rect x="18.32" y="70.79" class="st139" width="0.48" height="7.65"/>
		<rect x="18.8" y="70.79" class="st97" width="0.48" height="7.65"/>
		<rect x="19.28" y="70.79" class="st98" width="0.48" height="7.65"/>
		<rect x="19.77" y="70.79" class="st99" width="0.48" height="7.65"/>
		<rect x="20.25" y="70.79" class="st100" width="0.48" height="7.65"/>
		<rect x="20.73" y="70.79" class="st101" width="0.48" height="7.65"/>
		<rect x="21.21" y="70.79" class="st102" width="0.48" height="7.65"/>
		<rect x="21.69" y="70.79" class="st103" width="0.48" height="7.65"/>
		<rect x="22.17" y="70.79" class="st104" width="0.48" height="7.65"/>
		<rect x="22.65" y="70.79" class="st105" width="0.48" height="7.65"/>
		<rect x="23.13" y="70.79" class="st106" width="0.11" height="7.65"/>
		<rect x="30.42" y="12.46" class="st72" width="0.41" height="17.4"/>
		<rect x="30.84" y="12.46" class="st73" width="0.48" height="17.4"/>
		<rect x="31.32" y="12.46" class="st74" width="0.48" height="17.4"/>
		<rect x="31.8" y="12.46" class="st75" width="0.48" height="17.4"/>
		<rect x="32.28" y="12.46" class="st76" width="0.48" height="17.4"/>
		<rect x="32.76" y="12.46" class="st77" width="0.48" height="17.4"/>
		<rect x="33.24" y="12.46" class="st78" width="0.48" height="17.4"/>
		<rect x="33.72" y="12.46" class="st79" width="0.48" height="17.4"/>
		<rect x="34.21" y="12.46" class="st80" width="0.48" height="17.4"/>
		<rect x="34.69" y="12.46" class="st81" width="0.48" height="17.4"/>
		<rect x="35.17" y="12.46" class="st82" width="0.48" height="17.4"/>
		<rect x="35.65" y="12.46" class="st83" width="0.48" height="17.4"/>
		<rect x="36.13" y="12.46" class="st84" width="0.48" height="17.4"/>
		<rect x="36.61" y="12.46" class="st85" width="0.48" height="17.4"/>
		<rect x="37.09" y="12.46" class="st86" width="0.48" height="17.4"/>
		<rect x="37.58" y="12.46" class="st87" width="0.48" height="17.4"/>
		<rect x="38.06" y="12.46" class="st88" width="0.48" height="17.4"/>
		<rect x="38.54" y="12.46" class="st89" width="0.48" height="17.4"/>
		<rect x="39.02" y="12.46" class="st90" width="0.48" height="17.4"/>
		<rect x="39.5" y="12.46" class="st91" width="0.48" height="17.4"/>
		<rect x="39.98" y="12.46" class="st92" width="0.48" height="17.4"/>
		<rect x="40.46" y="12.46" class="st93" width="0.48" height="17.4"/>
		<rect x="40.94" y="12.46" class="st94" width="0.48" height="17.4"/>
		<rect x="41.43" y="12.46" class="st95" width="0.48" height="17.4"/>
		<rect x="41.91" y="12.46" class="st96" width="0.32" height="17.4"/>
		<rect x="19.01" y="88.5" class="st97" width="0.28" height="14.81"/>
		<rect x="19.28" y="88.5" class="st98" width="0.48" height="14.81"/>
		<rect x="19.77" y="88.5" class="st99" width="0.48" height="14.81"/>
		<rect x="20.25" y="88.5" class="st100" width="0.48" height="14.81"/>
		<rect x="20.73" y="88.5" class="st101" width="0.48" height="14.81"/>
		<rect x="21.21" y="88.5" class="st102" width="0.48" height="14.81"/>
		<rect x="21.69" y="88.5" class="st103" width="0.48" height="14.81"/>
		<rect x="22.17" y="88.5" class="st104" width="0.48" height="14.81"/>
		<rect x="22.65" y="88.5" class="st105" width="0.48" height="14.81"/>
		<rect x="23.13" y="88.5" class="st106" width="0.48" height="14.81"/>
		<rect x="23.62" y="88.5" class="st107" width="0.48" height="14.81"/>
		<rect x="24.1" y="88.5" class="st108" width="0.48" height="14.81"/>
		<rect x="24.58" y="88.5" class="st109" width="0.48" height="14.81"/>
		<rect x="25.06" y="88.5" class="st110" width="0.48" height="14.81"/>
		<rect x="25.54" y="88.5" class="st111" width="0.48" height="14.81"/>
		<rect x="26.02" y="88.5" class="st112" width="0.48" height="14.81"/>
		<rect x="26.5" y="88.5" class="st113" width="0.48" height="14.81"/>
		<rect x="26.99" y="88.5" class="st114" width="0.48" height="14.81"/>
		<rect x="27.47" y="88.5" class="st115" width="0.48" height="14.81"/>
		<rect x="27.95" y="88.5" class="st116" width="0.48" height="14.81"/>
		<rect x="28.43" y="88.5" class="st117" width="0.48" height="14.81"/>
		<rect x="28.91" y="88.5" class="st118" width="0.48" height="14.81"/>
		<rect x="29.39" y="88.5" class="st119" width="0.48" height="14.81"/>
		<rect x="29.87" y="88.5" class="st120" width="0.48" height="14.81"/>
		<rect x="30.36" y="88.5" class="st72" width="0.48" height="14.81"/>
		<rect x="30.84" y="88.5" class="st73" width="0.48" height="14.81"/>
		<rect x="31.32" y="88.5" class="st74" width="0.48" height="14.81"/>
		<rect x="31.8" y="88.5" class="st75" width="0.48" height="14.81"/>
		<rect x="32.28" y="88.5" class="st76" width="0.48" height="14.81"/>
		<rect x="32.76" y="88.5" class="st77" width="0.48" height="14.81"/>
		<rect x="33.24" y="88.5" class="st78" width="0.48" height="14.81"/>
		<rect x="33.72" y="88.5" class="st79" width="0.26" height="14.81"/>
		<rect x="43.86" y="6.97" class="st60" width="0.3" height="18.62"/>
		<rect x="44.16" y="6.97" class="st60" width="0.59" height="18.62"/>
		<rect x="44.76" y="6.97" class="st61" width="0.59" height="18.62"/>
		<rect x="45.35" y="6.97" class="st62" width="0.59" height="18.62"/>
		<rect x="45.94" y="6.97" class="st63" width="0.59" height="18.62"/>
		<rect x="46.53" y="6.97" class="st64" width="0.59" height="18.62"/>
		<rect x="47.12" y="6.97" class="st65" width="0.59" height="18.62"/>
		<rect x="47.71" y="6.97" class="st66" width="0.59" height="18.62"/>
		<rect x="48.31" y="6.97" class="st67" width="0.59" height="18.62"/>
		<rect x="48.9" y="6.97" class="st68" width="0.59" height="18.62"/>
		<rect x="49.49" y="6.97" class="st69" width="0.59" height="18.62"/>
		<rect x="50.08" y="6.97" class="st70" width="0.59" height="18.62"/>
		<rect x="50.67" y="6.97" class="st70" width="0.59" height="18.62"/>
		<rect x="51.26" y="6.97" class="st71" width="0.43" height="18.62"/>
		<rect x="77.91" y="12.46" class="st21" width="0.58" height="17.4"/>
		<rect x="78.48" y="12.46" class="st22" width="0.59" height="17.4"/>
		<rect x="79.07" y="12.46" class="st23" width="0.59" height="17.4"/>
		<rect x="79.67" y="12.46" class="st24" width="0.59" height="17.4"/>
		<rect x="80.26" y="12.46" class="st25" width="0.59" height="17.4"/>
		<rect x="80.85" y="12.46" class="st26" width="0.59" height="17.4"/>
		<rect x="81.44" y="12.46" class="st27" width="0.59" height="17.4"/>
		<rect x="82.03" y="12.46" class="st28" width="0.59" height="17.4"/>
		<rect x="82.63" y="12.46" class="st29" width="0.59" height="17.4"/>
		<rect x="83.22" y="12.46" class="st30" width="0.59" height="17.4"/>
		<rect x="83.81" y="12.46" class="st31" width="0.59" height="17.4"/>
		<rect x="84.4" y="12.46" class="st32" width="0.59" height="17.4"/>
		<rect x="84.99" y="12.46" class="st33" width="0.59" height="17.4"/>
		<rect x="85.58" y="12.46" class="st34" width="0.59" height="17.4"/>
		<rect x="86.18" y="12.46" class="st35" width="0.59" height="17.4"/>
		<rect x="86.77" y="12.46" class="st36" width="0.59" height="17.4"/>
		<rect x="87.36" y="12.46" class="st37" width="0.59" height="17.4"/>
		<rect x="87.95" y="12.46" class="st38" width="0.59" height="17.4"/>
		<rect x="88.54" y="12.46" class="st39" width="0.59" height="17.4"/>
		<rect x="89.13" y="12.46" class="st40" width="0.58" height="17.4"/>
		<path class="st151" d="M2.92,60.75v3.33V60.75z"/>
		<rect x="2.92" y="60.75" class="st151" width="0.48" height="3.33"/>
		<rect x="3.4" y="60.75" class="st152" width="0.48" height="3.33"/>
		<rect x="3.88" y="60.75" class="st153" width="0.48" height="3.33"/>
		<rect x="4.36" y="60.75" class="st140" width="0.48" height="3.33"/>
		<rect x="4.84" y="60.75" class="st141" width="0.48" height="3.33"/>
		<rect x="5.33" y="60.75" class="st142" width="0.48" height="3.33"/>
		<rect x="5.81" y="60.75" class="st143" width="0.48" height="3.33"/>
		<rect x="6.29" y="60.75" class="st144" width="0.48" height="3.33"/>
		<rect x="6.77" y="60.75" class="st145" width="0.48" height="3.33"/>
		<rect x="7.25" y="60.75" class="st146" width="0.48" height="3.33"/>
		<rect x="7.73" y="60.75" class="st147" width="0.48" height="3.33"/>
		<rect x="8.21" y="60.75" class="st148" width="0.48" height="3.33"/>
		<rect x="8.69" y="60.75" class="st149" width="0.48" height="3.33"/>
		<rect x="9.18" y="60.75" class="st150" width="0.48" height="3.33"/>
		<rect x="9.66" y="60.75" class="st121" width="0.48" height="3.33"/>
		<rect x="10.14" y="60.75" class="st122" width="0.48" height="3.33"/>
		<rect x="10.62" y="60.75" class="st123" width="0.48" height="3.33"/>
		<rect x="11.1" y="60.75" class="st124" width="0.48" height="3.33"/>
		<rect x="11.58" y="60.75" class="st125" width="0.48" height="3.33"/>
		<rect x="12.06" y="60.75" class="st126" width="0.48" height="3.33"/>
		<rect x="12.55" y="60.75" class="st127" width="0.48" height="3.33"/>
		<rect x="13.03" y="60.75" class="st128" width="0.48" height="3.33"/>
		<rect x="13.51" y="60.75" class="st129" width="0.48" height="3.33"/>
		<rect x="13.99" y="60.75" class="st130" width="0.48" height="3.33"/>
		<rect x="14.47" y="60.75" class="st131" width="0.48" height="3.33"/>
		<rect x="14.95" y="60.75" class="st132" width="0.48" height="3.33"/>
		<rect x="15.43" y="60.75" class="st133" width="0.48" height="3.33"/>
		<rect x="15.91" y="60.75" class="st134" width="0.48" height="3.33"/>
		<rect x="16.4" y="60.75" class="st135" width="0.48" height="3.33"/>
		<rect x="16.88" y="60.75" class="st136" width="0.48" height="3.33"/>
		<rect x="17.36" y="60.75" class="st137" width="0.48" height="3.33"/>
		<rect x="17.84" y="60.75" class="st138" width="0.48" height="3.33"/>
		<rect x="18.32" y="60.75" class="st139" width="0.48" height="3.33"/>
		<rect x="18.8" y="60.75" class="st97" width="0.48" height="3.33"/>
		<rect x="19.28" y="60.75" class="st98" width="0.48" height="3.33"/>
		<rect x="19.77" y="60.75" class="st99" width="0.48" height="3.33"/>
		<rect x="20.25" y="60.75" class="st100" width="0.48" height="3.33"/>
		<rect x="20.73" y="60.75" class="st101" width="0.48" height="3.33"/>
		<rect x="21.21" y="60.75" class="st102" width="0.3" height="3.33"/>
		<rect x="68.44" y="6.97" class="st7" width="0.58" height="18.62"/>
		<rect x="69.02" y="6.97" class="st8" width="0.59" height="18.62"/>
		<rect x="69.61" y="6.97" class="st9" width="0.59" height="18.62"/>
		<rect x="70.2" y="6.97" class="st10" width="0.59" height="18.62"/>
		<rect x="70.79" y="6.97" class="st11" width="0.59" height="18.62"/>
		<rect x="71.38" y="6.97" class="st12" width="0.59" height="18.62"/>
		<rect x="71.97" y="6.97" class="st13" width="0.59" height="18.62"/>
		<rect x="72.57" y="6.97" class="st14" width="0.59" height="18.62"/>
		<rect x="73.16" y="6.97" class="st15" width="0.59" height="18.62"/>
		<rect x="73.75" y="6.97" class="st16" width="0.59" height="18.62"/>
		<rect x="74.34" y="6.97" class="st17" width="0.59" height="18.62"/>
		<rect x="74.93" y="6.97" class="st18" width="0.59" height="18.62"/>
		<rect x="75.52" y="6.97" class="st19" width="0.59" height="18.62"/>
		<rect x="76.12" y="6.97" class="st20" width="0.16" height="18.62"/>
		<rect x="10.12" y="32.77" class="st121" width="0.02" height="11.81"/>
		<rect x="10.14" y="32.77" class="st122" width="0.48" height="11.81"/>
		<rect x="10.62" y="32.77" class="st123" width="0.48" height="11.81"/>
		<rect x="11.1" y="32.77" class="st124" width="0.48" height="11.81"/>
		<rect x="11.58" y="32.77" class="st125" width="0.48" height="11.81"/>
		<rect x="12.06" y="32.77" class="st126" width="0.48" height="11.81"/>
		<rect x="12.55" y="32.77" class="st127" width="0.48" height="11.81"/>
		<rect x="13.03" y="32.77" class="st128" width="0.48" height="11.81"/>
		<rect x="13.51" y="32.77" class="st129" width="0.48" height="11.81"/>
		<rect x="13.99" y="32.77" class="st130" width="0.48" height="11.81"/>
		<rect x="14.47" y="32.77" class="st131" width="0.48" height="11.81"/>
		<rect x="14.95" y="32.77" class="st132" width="0.48" height="11.81"/>
		<rect x="15.43" y="32.77" class="st133" width="0.48" height="11.81"/>
		<rect x="15.91" y="32.77" class="st134" width="0.48" height="11.81"/>
		<rect x="16.4" y="32.77" class="st135" width="0.48" height="11.81"/>
		<rect x="16.88" y="32.77" class="st136" width="0.48" height="11.81"/>
		<rect x="17.36" y="32.77" class="st137" width="0.48" height="11.81"/>
		<rect x="17.84" y="32.77" class="st138" width="0.48" height="11.81"/>
		<rect x="18.32" y="32.77" class="st139" width="0.48" height="11.81"/>
		<rect x="18.8" y="32.77" class="st97" width="0.48" height="11.81"/>
		<rect x="19.28" y="32.77" class="st98" width="0.48" height="11.81"/>
		<rect x="19.77" y="32.77" class="st99" width="0.48" height="11.81"/>
		<rect x="20.25" y="32.77" class="st100" width="0.48" height="11.81"/>
		<rect x="20.73" y="32.77" class="st101" width="0.48" height="11.81"/>
		<rect x="21.21" y="32.77" class="st102" width="0.48" height="11.81"/>
		<rect x="21.69" y="32.77" class="st103" width="0.48" height="11.81"/>
		<rect x="22.17" y="32.77" class="st104" width="0.48" height="11.81"/>
		<rect x="22.65" y="32.77" class="st105" width="0.48" height="11.81"/>
		<rect x="23.13" y="32.77" class="st106" width="0.48" height="11.81"/>
		<rect x="23.62" y="32.77" class="st107" width="0.48" height="11.81"/>
		<rect x="24.1" y="32.77" class="st108" width="0.48" height="11.81"/>
		<rect x="24.58" y="32.77" class="st109" width="0.48" height="11.81"/>
		<rect x="25.06" y="32.77" class="st110" width="0.48" height="11.81"/>
		<rect x="25.54" y="32.77" class="st111" width="0.48" height="11.81"/>
		<rect x="26.02" y="32.77" class="st112" width="0.48" height="11.81"/>
		<rect x="26.5" y="32.77" class="st113" width="0.48" height="11.81"/>
		<rect x="26.99" y="32.77" class="st114" width="0.48" height="11.81"/>
		<rect x="27.47" y="32.77" class="st115" width="0.04" height="11.81"/>
		<rect x="4.63" y="46.21" class="st140" width="0.22" height="7.84"/>
		<rect x="4.84" y="46.21" class="st141" width="0.48" height="7.84"/>
		<rect x="5.33" y="46.21" class="st142" width="0.48" height="7.84"/>
		<rect x="5.81" y="46.21" class="st143" width="0.48" height="7.84"/>
		<rect x="6.29" y="46.21" class="st144" width="0.48" height="7.84"/>
		<rect x="6.77" y="46.21" class="st145" width="0.48" height="7.84"/>
		<rect x="7.25" y="46.21" class="st146" width="0.48" height="7.84"/>
		<rect x="7.73" y="46.21" class="st147" width="0.48" height="7.84"/>
		<rect x="8.21" y="46.21" class="st148" width="0.48" height="7.84"/>
		<rect x="8.69" y="46.21" class="st149" width="0.48" height="7.84"/>
		<rect x="9.18" y="46.21" class="st150" width="0.48" height="7.84"/>
		<rect x="9.66" y="46.21" class="st121" width="0.48" height="7.84"/>
		<rect x="10.14" y="46.21" class="st122" width="0.48" height="7.84"/>
		<rect x="10.62" y="46.21" class="st123" width="0.48" height="7.84"/>
		<rect x="11.1" y="46.21" class="st124" width="0.48" height="7.84"/>
		<rect x="11.58" y="46.21" class="st125" width="0.48" height="7.84"/>
		<rect x="12.06" y="46.21" class="st126" width="0.48" height="7.84"/>
		<rect x="12.55" y="46.21" class="st127" width="0.48" height="7.84"/>
		<rect x="13.03" y="46.21" class="st128" width="0.48" height="7.84"/>
		<rect x="13.51" y="46.21" class="st129" width="0.48" height="7.84"/>
		<rect x="13.99" y="46.21" class="st130" width="0.48" height="7.84"/>
		<rect x="14.47" y="46.21" class="st131" width="0.48" height="7.84"/>
		<rect x="14.95" y="46.21" class="st132" width="0.48" height="7.84"/>
		<rect x="15.43" y="46.21" class="st133" width="0.48" height="7.84"/>
		<rect x="15.91" y="46.21" class="st134" width="0.48" height="7.84"/>
		<rect x="16.4" y="46.21" class="st135" width="0.48" height="7.84"/>
		<rect x="16.88" y="46.21" class="st136" width="0.48" height="7.84"/>
		<rect x="17.36" y="46.21" class="st137" width="0.48" height="7.84"/>
		<rect x="17.84" y="46.21" class="st138" width="0.48" height="7.84"/>
		<rect x="18.32" y="46.21" class="st139" width="0.48" height="7.84"/>
		<rect x="18.8" y="46.21" class="st97" width="0.48" height="7.84"/>
		<rect x="19.28" y="46.21" class="st98" width="0.48" height="7.84"/>
		<rect x="19.77" y="46.21" class="st99" width="0.48" height="7.84"/>
		<rect x="20.25" y="46.21" class="st100" width="0.48" height="7.84"/>
		<rect x="20.73" y="46.21" class="st101" width="0.48" height="7.84"/>
		<rect x="21.21" y="46.21" class="st102" width="0.48" height="7.84"/>
		<rect x="21.69" y="46.21" class="st103" width="0.48" height="7.84"/>
		<rect x="22.17" y="46.21" class="st104" width="0.48" height="7.84"/>
		<rect x="22.65" y="46.21" class="st105" width="0.48" height="7.84"/>
		<rect x="23.13" y="46.21" class="st106" width="0.11" height="7.84"/>
		<rect x="58.4" y="100.97" class="st1" width="0.55" height="18.6"/>
		<rect x="58.96" y="100.97" class="st2" width="0.59" height="18.6"/>
		<rect x="59.55" y="100.97" class="st3" width="0.59" height="18.6"/>
		<rect x="60.14" y="100.97" class="st4" width="0.59" height="18.6"/>
		<rect x="60.73" y="100.97" class="st5" width="0.59" height="18.6"/>
		<rect x="61.32" y="100.97" class="st6" width="0.41" height="18.6"/>
		<rect x="86.16" y="88.5" class="st34" width="0.02" height="14.81"/>
		<rect x="86.18" y="88.5" class="st35" width="0.59" height="14.81"/>
		<rect x="86.77" y="88.5" class="st36" width="0.59" height="14.81"/>
		<rect x="87.36" y="88.5" class="st37" width="0.59" height="14.81"/>
		<rect x="87.95" y="88.5" class="st38" width="0.59" height="14.81"/>
		<rect x="88.54" y="88.5" class="st39" width="0.59" height="14.81"/>
		<rect x="89.13" y="88.5" class="st40" width="0.59" height="14.81"/>
		<rect x="89.73" y="88.5" class="st41" width="0.59" height="14.81"/>
		<rect x="90.32" y="88.5" class="st42" width="0.59" height="14.81"/>
		<rect x="90.91" y="88.5" class="st43" width="0.59" height="14.81"/>
		<rect x="91.5" y="88.5" class="st44" width="0.59" height="14.81"/>
		<rect x="92.09" y="88.5" class="st45" width="0.59" height="14.81"/>
		<rect x="92.68" y="88.5" class="st46" width="0.59" height="14.81"/>
		<rect x="93.28" y="88.5" class="st47" width="0.59" height="14.81"/>
		<rect x="93.87" y="88.5" class="st48" width="0.59" height="14.81"/>
		<rect x="94.46" y="88.5" class="st49" width="0.59" height="14.81"/>
		<rect x="95.05" y="88.5" class="st50" width="0.59" height="14.81"/>
		<rect x="95.64" y="88.5" class="st51" width="0.59" height="14.81"/>
		<rect x="96.23" y="88.5" class="st52" width="0.59" height="14.81"/>
		<rect x="96.83" y="88.5" class="st53" width="0.59" height="14.81"/>
		<rect x="97.42" y="88.5" class="st54" width="0.59" height="14.81"/>
		<rect x="98.01" y="88.5" class="st55" width="0.59" height="14.81"/>
		<rect x="98.6" y="88.5" class="st56" width="0.59" height="14.81"/>
		<rect x="99.19" y="88.5" class="st57" width="0.59" height="14.81"/>
		<rect x="99.78" y="88.5" class="st58" width="0.59" height="14.81"/>
		<rect x="100.38" y="88.5" class="st59" width="0.59" height="14.81"/>
		<rect x="100.97" y="88.5" class="st59" width="0.16" height="14.81"/>
	</g>
</g>
</svg>
