<?xml version="1.0" encoding="UTF-8"?>
<svg xmlns="http://www.w3.org/2000/svg" version="1.1" xmlns:xlink="http://www.w3.org/1999/xlink" viewBox="0 0 663.8 139.4">
  <defs>
    <style>
      .cls-1 {
        fill: url(#linear-gradient);
      }
    </style>
    <linearGradient id="linear-gradient" x1="172.6" y1="-90.1" x2="474.7" y2="283" gradientUnits="userSpaceOnUse">
      <stop offset="0" stop-color="#00cbe0"/>
      <stop offset=".3" stop-color="#7f82ff"/>
      <stop offset=".7" stop-color="#a741ff"/>
      <stop offset="1" stop-color="#f60"/>
    </linearGradient>
  </defs>
  <!-- Generator: Adobe Illustrator 28.7.4, SVG Export Plug-In . SVG Version: 1.2.0 Build 166)  -->
  <g>
    <g id="Layer_1">
      <path id="Layer_1-2-2" class="cls-1" d="M34.8,49.2c2.8-2.8,6.1-4.8,9.9-6,3.3-1,6.7-1.6,10.1-1.6,6.8,0,12.5,1.8,17,5.3s7.2,8.7,8.3,15.6h24.5c-.4-6.2-2.1-12.3-5.1-17.8-2.8-4.9-6.5-9.1-11.1-12.5-4.7-3.4-9.9-5.9-15.4-7.4-6-1.7-12.1-2.5-18.3-2.5-9.2,0-17.1,1.5-23.9,4.6-6.6,2.9-12.4,7.2-17.1,12.7-4.7,5.6-8.2,12-10.3,19C1.1,66.2,0,74.1,0,82c0,7.7,1.1,15.4,3.5,22.8,2.2,6.7,5.8,12.9,10.5,18.2,4.7,5.1,10.4,9.2,16.8,12,7.3,3.1,15.2,4.6,23.1,4.4,14.3,0,25.8-3.8,34.5-11.5s14.1-18.7,16.4-33.2h-24.5c-1.2,8-4.1,14.2-8.7,18.7s-10.5,6.7-17.7,6.7-9.4-1-13.5-3.3c-3.7-2.2-6.8-5.1-9.1-8.7-2.4-3.7-4.2-7.9-5.1-12.2-1.1-4.5-1.6-9.1-1.6-13.7,0-8.5,1-15.3,3-20.5,1.6-4.6,4.2-8.8,7.5-12.2l-.3-.3h0ZM209.3,42.3c-4.6-6-10.5-11-17.3-14.5-7.3-3.7-15.3-5.6-23.5-5.5-15-.3-29.4,6.1-39.2,17.5-4.7,5.5-8.4,11.8-10.7,18.7-2.5,7.2-3.8,14.8-3.8,22.4s1.1,16,3.5,23.6c2.2,6.8,5.8,13.1,10.5,18.5,4.7,5.2,10.6,9.3,17.1,12,7.4,3,15.2,4.5,23.2,4.3,5.8,0,11.7-.8,17.3-2.5,5.4-1.6,10.4-4,14.9-7.3,9.3-6.8,15.7-16.7,18-28h-23.1c-2.1,6.1-5.4,10.8-9.8,13.8s-10.1,4.6-17.3,4.6-9.1-.8-13.3-2.7c-3.6-1.7-6.7-4.1-9.2-7.2s-4.3-6.7-5.5-10.5c-1.2-4-1.8-8.2-1.8-12.4h81.6c1-8.1.5-16.3-1.6-24.2-1.9-7.5-5.3-14.5-10-20.7h0ZM139.3,71c.1-4,1-7.9,2.5-11.6,1.4-3.5,3.5-6.6,6-9.3s5.6-4.8,9-6.2c3.7-1.5,7.7-2.3,11.7-2.3s7.8.8,11.3,2.5c3.3,1.6,6.2,3.8,8.6,6.4,2.4,2.8,4.3,5.9,5.6,9.4,1.4,3.6,2.2,7.3,2.5,11.2h-57.2ZM332.8,118.1c-2.2,0-4.4-.3-6.4-1-1.5-.5-2.7-1.6-3.5-2.9-.8-1.4-1.4-3.1-1.5-4.7-.2-2.2-.3-4.4-.3-6.7v-58.5h22.1v-18.8h-22.1V.9h-24.5v24.5h-9.3c-24-.6-31.2,12-34.4,17.6v-17.6h-22.7v111.1h22.7v-41.2c0-17.8.2-36.4,11.2-44.7,7.9-6,17.6-6.2,23.2-6.4h9.4v64.8c0,4.1.6,8.2,1.4,12.2.7,3.3,2.2,6.4,4.5,8.9,2.6,2.6,5.7,4.4,9.2,5.4,3.9,1.2,9.1,1.8,15.6,1.8s5.3,0,7.9-.4,5.2-.6,7.9-.9v-18.9c-1.7.4-3.4.7-5.1.8h-5.3v.2h0ZM434.7,42.3c-4.6-6-10.5-11-17.3-14.5-7.3-3.7-15.3-5.6-23.5-5.5-15-.3-29.4,6.1-39.2,17.5-4.7,5.5-8.4,11.8-10.7,18.7-2.5,7.2-3.8,14.8-3.8,22.4s1.1,16,3.6,23.6c2.2,6.8,5.8,13.1,10.5,18.5,4.7,5.2,10.6,9.3,17.1,12,7.4,3,15.2,4.5,23.2,4.3,5.8,0,11.6-.8,17.2-2.5,5.3-1.6,10.4-4,14.9-7.3,9.3-6.8,15.7-16.7,18-28h-23.1c-2.1,6.1-5.4,10.8-9.8,13.8-4.4,3.1-10.1,4.6-17.3,4.6s-9.1-.8-13.3-2.7c-3.6-1.7-6.7-4.1-9.2-7.2s-4.4-6.7-5.5-10.5c-1.2-4-1.8-8.2-1.8-12.4h81.6c1-8.1.5-16.3-1.6-24.2-1.9-7.5-5.3-14.5-10-20.7h0ZM364.7,71c.1-4,.9-7.9,2.5-11.6,1.4-3.5,3.4-6.6,6-9.3,2.5-2.7,5.6-4.8,9-6.2,3.7-1.5,7.7-2.3,11.7-2.3s7.8.8,11.3,2.5c3.3,1.6,6.2,3.8,8.6,6.4,2.4,2.7,4.3,5.9,5.6,9.4,1.4,3.6,2.2,7.3,2.5,11.1h-57.2ZM619,57.3c-2.3-6.9-6.1-13.1-11-18.5-4.9-5.2-10.9-9.4-17.6-12.1-15.3-5.9-32.2-5.9-47.4,0-6.7,2.7-12.7,6.9-17.6,12.1-4.9,5.3-8.6,11.6-10.9,18.5-2.6,7.5-3.8,15.4-3.8,23.4s1.2,16,3.8,23.6c2.3,6.9,6,13.1,11,18.5,4.9,5.3,10.9,9.4,17.6,12.1,15.3,5.9,32.2,5.9,47.4,0,6.7-2.7,12.7-6.9,17.6-12.1,4.9-5.3,8.7-11.6,11-18.5,2.6-7.6,3.8-15.6,3.7-23.6,0-8-1.2-15.9-3.8-23.4ZM596.5,95c-1.1,4.5-3.1,8.7-5.7,12.6-2.6,3.7-6,6.8-9.9,9-8.9,4.6-19.4,4.6-28.3,0-3.9-2.2-7.3-5.3-9.9-9-2.6-3.8-4.6-8.1-5.7-12.6-2.4-9.3-2.4-19.1,0-28.4,1.1-4.5,3-8.8,5.7-12.6,2.6-3.7,6-6.7,9.9-8.9,8.9-4.6,19.4-4.6,28.3,0,3.9,2.2,7.3,5.2,9.9,8.9,2.6,3.8,4.6,8.1,5.7,12.6,2.4,9.3,2.4,19.1,0,28.4ZM512.4,25.4c-24-.6-31.1,12-34.4,17.6v-17.6h-22.7v111.1h22.7v-41.2c0-17.8.2-36.4,11.2-44.7,8-6,17.6-6.2,23.2-6.4v-18.8ZM646.5,107.9c8.7,0,15.7,7,15.7,15.7s-7,15.7-15.7,15.7-15.7-7-15.7-15.7,7-15.7,15.7-15.7Z"/>
    </g>
  </g>
</svg>