<svg xmlns="http://www.w3.org/2000/svg" role="img" viewBox="-6.44 91.56 412.62 61.62"><title>Chainyard logo</title><style>svg {enable-background:new 0 0 400 245}</style><style>.st1,.st3{fill-rule:evenodd;clip-rule:evenodd;fill:#0075f2}.st3{fill:#4a4a4a}</style><g id="chainyard-logo"><g id="Group-2" transform="translate(0 20)"><g id="Group-2-Copy-4" transform="translate(72 11)"><g id="Group"><linearGradient id="Rectangle-27_1_" x1="-385.02" x2="-386.17" y1="557.152" y2="557.152" gradientTransform="matrix(-15.4716 33.179 4.0428 1.8852 -8177.91 11836.3)" gradientUnits="userSpaceOnUse"><stop offset="0" stop-color="#0075f2"/><stop offset="1" stop-color="#003c7c"/></linearGradient><path id="Rectangle-27" fill="url(#Rectangle-27_1_)" fill-rule="evenodd" d="M53.4 69.5l-19.2 43.8h-5.5l19.2-43.8z" clip-rule="evenodd"/><path d="M47.9 69.5l16.4 43.8h5.5L53.4 69.5z" class="st1"/></g></g><g transform="translate(193 11)" id="Group-2-Copy"><linearGradient id="SVGID_1_" x1="-506.534" x2="-507.684" y1="566.195" y2="566.195" gradientTransform="matrix(-15.4716 33.179 4.0428 1.8852 -10049.976 15850.959)" gradientUnits="userSpaceOnUse"><stop offset="0" stop-color="#0075f2"/><stop offset="1" stop-color="#003c7c"/></linearGradient><path fill="url(#SVGID_1_)" fill-rule="evenodd" d="M97.9 69.5l-19.2 43.8h-5.5l19.2-43.8z" clip-rule="evenodd"/><path d="M92.4 69.5l16.4 43.8h5.5L97.9 69.5z" class="st1"/></g><path id="CH" d="M40.6 117.3c-.7 1.1-1.6 2.2-2.7 3.1-1 1-2.3 1.8-3.6 2.6-1.4.7-2.9 1.3-4.6 1.8-1.7.4-3.5.6-5.4.6-3.3 0-6.3-.6-9.1-1.7S10 121 8 118.9s-3.6-4.4-4.7-7.2-1.7-5.8-1.7-9.2.6-6.4 1.7-9.2c1.1-2.8 2.7-5.2 4.8-7.2 2-2 4.4-3.6 7.2-4.8s5.8-1.7 9-1.7c1.6 0 3.2.2 4.7.5s3 .8 4.3 1.4 2.6 1.3 3.7 2.2c1.1.8 2 1.8 2.8 2.9l-3.7 2.7c-.5-.7-1.1-1.4-1.8-2.1-.8-.7-1.7-1.3-2.7-1.8-1-.5-2.1-1-3.4-1.3-1.2-.3-2.5-.5-3.9-.5-2.8 0-5.4.5-7.6 1.5-2.2 1-4.1 2.4-5.7 4.2s-2.7 3.8-3.6 6.1c-.8 2.3-1.2 4.7-1.2 7.3s.4 5 1.3 7.3 2 4.3 3.6 6.1 3.5 3.1 5.7 4.2c2.2 1 4.7 1.5 7.5 1.5 2.5 0 4.9-.5 7.1-1.5 2.3-1 4.1-2.7 5.7-4.9l3.5 1.9zm16-36.6H61v18.9h23.8V80.7h4.4v43.6h-4.4v-20.6H61.1v20.6h-4.4V80.7z" class="st3"/><path id="INY" d="M157.5 124.3H153V80.7h4.4v43.6zm50.8-6.5h.1V80.7h4.4v43.6h-5.5L182 86.8h-.1v37.5h-4.4V80.7h5.5l25.3 37.1zm39.5 6.5h-4.4v-18.8L227 80.7h5.5l13.1 21.1 13.2-21.1h5.2l-16.3 24.8v18.8z" class="st3"/><path id="RD" d="M320.2 124.3h-4.4V80.7h12.8c2.1 0 4.1.2 5.9.6 1.8.4 3.4 1.1 4.7 2 1.3.9 2.4 2.1 3.1 3.6.7 1.5 1.1 3.3 1.1 5.4 0 1.6-.3 3.1-.9 4.4-.6 1.3-1.4 2.5-2.3 3.4-1 1-2.2 1.7-3.5 2.3s-2.8.9-4.4 1.1l12.7 20.7h-5.4l-12.1-20.4h-7.4v20.5zm0-24.2h7.7c3.6 0 6.3-.6 8.2-1.9 1.9-1.3 2.9-3.2 2.9-5.8 0-1.4-.3-2.6-.8-3.6s-1.3-1.8-2.2-2.4-2.1-1.1-3.4-1.4c-1.4-.3-2.9-.4-4.5-.4h-7.9v15.5zM361 80.7h14.5c2.7 0 5.4.5 8.2 1.4 2.7.9 5.2 2.3 7.4 4.1 2.2 1.8 4 4.1 5.3 6.8 1.4 2.7 2 5.9 2 9.5 0 3.7-.7 6.8-2 9.5-1.4 2.7-3.1 5-5.3 6.8-2.2 1.8-4.7 3.2-7.4 4.1s-5.4 1.4-8.2 1.4H361V80.7zm4.5 39.7h8.8c3.3 0 6.1-.5 8.6-1.5 2.4-1 4.5-2.4 6.1-4 1.6-1.7 2.8-3.6 3.6-5.7.8-2.1 1.2-4.3 1.2-6.6s-.4-4.5-1.2-6.6c-.8-2.1-2-4-3.6-5.7s-3.6-3-6.1-4c-2.4-1-5.3-1.5-8.6-1.5h-8.8v35.6z" class="st3"/></g></g></svg>