<?xml version="1.0" encoding="utf-8"?>
<!-- Generator: Adobe Illustrator 23.0.3, SVG Export Plug-In . SVG Version: 6.00 Build 0)  -->
<svg version="1.1" id="Layer_1" xmlns="http://www.w3.org/2000/svg" xmlns:xlink="http://www.w3.org/1999/xlink" x="0px" y="0px"
	 viewBox="0 0 400 245" style="enable-background:new 0 0 400 245;" xml:space="preserve">
<style type="text/css">
	.st0{fill:#E01B22;}
	.st1{fill:#4064AD;}
	.st2{fill:#E98300;}
	.st3{fill:#00549F;}
	.st4{fill-rule:evenodd;clip-rule:evenodd;}
	.st5{fill-rule:evenodd;clip-rule:evenodd;fill:#C9243A;}
	.st6{fill-rule:evenodd;clip-rule:evenodd;fill:#231F20;}
	.st7{fill-rule:evenodd;clip-rule:evenodd;fill:#7C848A;}
	.st8{fill:#EE3B29;}
	.st9{fill:#7C848A;}
	.st10{fill:#0F0F59;}
	.st11{fill:#F42A4D;}
	.st12{fill:#DA2128;}
	.st13{fill-rule:evenodd;clip-rule:evenodd;fill:#12ABDB;}
	.st14{fill-rule:evenodd;clip-rule:evenodd;fill:#0070AD;}
	.st15{fill:#929497;}
	.st16{fill:#231F20;}
	.st17{fill:#00ADEE;}
	.st18{fill:#2E3191;}
	.st19{fill:#EC1C24;}
	.st20{fill:#0082C9;}
	.st21{fill:#6D67AE;}
	.st22{fill:#2B62AD;}
	.st23{fill:#404041;}
	.st24{fill:#273B5B;}
	.st25{fill:#39B54A;}
	.st26{fill:#474749;}
	.st27{fill:#009245;}
	.st28{fill:#DDDDDD;}
	.st29{fill:#FFFFFF;}
	.st30{fill:url(#SVGID_1_);}
	.st31{fill:url(#SVGID_2_);}
	.st32{fill:url(#SVGID_3_);}
	.st33{fill:url(#SVGID_4_);}
	.st34{fill:url(#SVGID_5_);}
	.st35{fill:url(#SVGID_6_);}
	.st36{fill:url(#SVGID_7_);}
	.st37{fill:url(#SVGID_8_);}
	.st38{fill:url(#SVGID_9_);}
	.st39{fill:url(#SVGID_10_);}
	.st40{fill:url(#SVGID_11_);}
	.st41{fill:url(#SVGID_12_);}
	.st42{fill:url(#SVGID_13_);}
	.st43{fill:url(#SVGID_14_);}
	.st44{fill:url(#SVGID_15_);}
	.st45{fill:url(#SVGID_16_);}
	.st46{fill:url(#SVGID_17_);}
	.st47{fill:#59595C;}
	.st48{fill:#1D7DB9;}
	.st49{fill:#121110;}
	.st50{fill:#010101;}
	.st51{fill:#663795;}
	.st52{fill:#09324A;stroke:#1B75BB;stroke-width:0.6975;stroke-miterlimit:10;}
	.st53{fill:#002432;stroke:#1B75BB;stroke-width:1.0463;stroke-miterlimit:10;}
	.st54{fill-rule:evenodd;clip-rule:evenodd;fill:#E73836;}
	.st55{fill:#231916;}
	.st56{fill:#E73836;}
	.st57{fill:#8C9091;}
	.st58{fill-rule:evenodd;clip-rule:evenodd;fill:#365072;}
	.st59{fill:#365072;}
	.st60{fill:#0093D7;}
	.st61{clip-path:url(#SVGID_19_);fill:url(#SVGID_20_);}
	.st62{clip-path:url(#SVGID_22_);fill:url(#SVGID_23_);}
	.st63{clip-path:url(#SVGID_25_);fill:url(#SVGID_26_);}
	.st64{clip-path:url(#SVGID_28_);fill:url(#SVGID_29_);}
	.st65{clip-path:url(#SVGID_31_);fill:url(#SVGID_32_);}
	.st66{clip-path:url(#SVGID_34_);fill:url(#SVGID_35_);}
	.st67{clip-path:url(#SVGID_37_);fill:url(#SVGID_38_);}
	.st68{clip-path:url(#SVGID_40_);fill:url(#SVGID_41_);}
	.st69{clip-path:url(#SVGID_43_);fill:url(#SVGID_44_);}
	.st70{clip-path:url(#SVGID_68_);}
	.st71{clip-path:url(#SVGID_79_);}
	.st72{fill:#00A9E6;}
	.st73{fill:#4D4D4F;}
	.st74{fill:#898B8D;}
	.st75{fill:#04B3AC;}
	.st76{fill:#A4A2A0;}
	.st77{fill:#D0CFCE;}
	.st78{fill:#74777C;}
	.st79{fill:none;stroke:#ED3024;stroke-width:0.4269;}
	.st80{fill:#A2A4A8;}
	.st81{fill:#3F7BA3;}
	.st82{enable-background:new    ;}
	.st83{fill:#E8B520;}
	.st84{fill:#D27D41;}
	.st85{fill:#0B74BB;}
	.st86{fill:#702784;}
	.st87{fill:#AD2E91;}
	.st88{fill:#ED3694;}
	.st89{fill:#004E9A;}
	.st90{clip-path:url(#SVGID_82_);fill:url(#SVGID_83_);}
	.st91{clip-path:url(#SVGID_85_);fill:url(#SVGID_86_);}
	.st92{clip-path:url(#SVGID_88_);fill:url(#SVGID_89_);}
	.st93{fill:#0898CC;}
	.st94{fill:#12284C;}
	.st95{fill-rule:evenodd;clip-rule:evenodd;fill:#84BE42;}
	.st96{fill-rule:evenodd;clip-rule:evenodd;fill:#C1C0C0;}
	.st97{clip-path:url(#SVGID_91_);fill:#84BE42;}
	.st98{fill:#0066A5;}
	.st99{fill:#F05A22;}
	.st100{clip-path:url(#SVGID_93_);}
	.st101{clip-path:url(#SVGID_95_);fill:#1D1D1B;}
	.st102{clip-path:url(#SVGID_97_);}
	.st103{clip-path:url(#SVGID_99_);fill:#1D1D1B;}
	.st104{clip-path:url(#SVGID_101_);}
	.st105{clip-path:url(#SVGID_103_);fill:#1D1D1B;}
	.st106{clip-path:url(#SVGID_105_);}
	.st107{clip-path:url(#SVGID_107_);fill:#1D1D1B;}
	.st108{clip-path:url(#SVGID_109_);}
	.st109{clip-path:url(#SVGID_111_);fill:#1D1D1B;}
	.st110{clip-path:url(#SVGID_113_);}
	.st111{clip-path:url(#SVGID_115_);fill:#1D1D1B;}
	.st112{clip-path:url(#SVGID_117_);}
	.st113{clip-path:url(#SVGID_119_);fill:#1D9DD9;}
	.st114{clip-path:url(#SVGID_121_);}
	.st115{clip-path:url(#SVGID_123_);fill:#1D1D1B;}
	.st116{clip-path:url(#SVGID_125_);}
	.st117{clip-path:url(#SVGID_127_);fill:#1D9DD9;}
	.st118{clip-path:url(#SVGID_129_);}
	.st119{clip-path:url(#SVGID_131_);fill:#1D1D1B;}
	.st120{clip-path:url(#SVGID_133_);}
	.st121{clip-path:url(#SVGID_135_);fill:#1D9DD9;}
	.st122{clip-path:url(#SVGID_137_);}
	.st123{clip-path:url(#SVGID_139_);fill:#1D1D1B;}
	.st124{clip-path:url(#SVGID_141_);}
	.st125{clip-path:url(#SVGID_143_);fill:#1D9DD9;}
	.st126{clip-path:url(#SVGID_145_);}
	.st127{clip-path:url(#SVGID_147_);fill:#1D1D1B;}
	.st128{fill:#D44432;}
	.st129{fill:#272525;}
	.st130{fill:url(#SVGID_148_);}
	.st131{fill:url(#SVGID_149_);}
	.st132{fill:url(#SVGID_150_);}
	.st133{fill:#002B54;}
	.st134{fill:#B2B1B1;}
	.st135{fill:#E1134F;}
	.st136{fill:#454547;}
	.st137{fill:#00B4D0;}
	.st138{fill:#4564A7;}
	.st139{fill:#0088EE;}
	.st140{fill:#026FC2;}
	.st141{fill:#009FEE;}
	.st142{fill:#00BEEE;}
	.st143{fill:#00AFEE;}
	.st144{fill-rule:evenodd;clip-rule:evenodd;fill:#224099;}
	.st145{clip-path:url(#SVGID_152_);}
	.st146{clip-path:url(#SVGID_156_);}
	.st147{fill:#203260;}
	.st148{fill-rule:evenodd;clip-rule:evenodd;fill:#989A9D;}
	.st149{fill-rule:evenodd;clip-rule:evenodd;fill:#DF068C;}
	.st150{fill:#2E3437;}
	.st151{fill:#989FA4;}
	.st152{fill:#E1DE22;}
	.st153{fill-rule:evenodd;clip-rule:evenodd;fill:#86171D;}
	.st154{fill-rule:evenodd;clip-rule:evenodd;fill:#FFFFFF;}
	.st155{fill:none;stroke:#86171D;stroke-width:6.1349;stroke-miterlimit:10;}
	.st156{fill:#1F1F1F;}
	.st157{fill:#009590;}
	.st158{fill:#ED1651;}
</style>
<g>
	<path class="st10" d="M261.14,62.6c-2.63,0-4.77,2.14-4.77,4.77v42.56l-35.89-45.54c-1.27-1.58-3.4-2.19-5.31-1.52
		c-1.91,0.67-3.19,2.48-3.19,4.5v56.16c0,2.63,2.14,4.77,4.77,4.77c2.63,0,4.77-2.14,4.77-4.77V80.55l35.89,45.97
		c0.91,1.14,2.27,1.79,3.73,1.79c0.54,0,1.07-0.09,1.58-0.27c1.91-0.67,3.19-2.48,3.19-4.51V67.37
		C265.92,64.74,263.77,62.6,261.14,62.6"/>
	<path class="st10" d="M55.29,116.77c-0.82-1.03-2.03-1.59-3.39-1.59c-0.68,0-1.7,0.13-2.7,0.76c-3.69,2.23-7.73,3.32-12.35,3.32
		c-13.89,0-23.22-9.58-23.22-23.84c0-14.04,9.08-23.84,22.07-23.84c4.76,0,8.72,0.89,12.12,2.72l0.02,0.01
		c0.84,0.42,1.7,0.63,2.55,0.63c1.58,0,2.8-0.69,3.62-2.01c0.44-0.66,0.69-1.46,0.69-2.2c0-1.5-0.81-2.85-2.31-3.82
		c-4.45-2.73-10.57-4.3-16.78-4.3c-18.75,0-31.84,13.49-31.84,32.81c0,19.63,13.01,32.81,32.37,32.81c6.6,0,13.12-1.93,17.91-5.32
		c1.27-0.93,2.07-2.38,2.07-3.77C56.12,118.24,55.83,117.42,55.29,116.77"/>
	<path class="st10" d="M313.61,128.3c7.48,0,16.18-2.82,21.66-7.01c0.76-0.57,2.52-2.19,2.52-4.96V96.99c0-2.6-2.11-4.71-4.71-4.71
		h-20.63c-2.41,0-4.45,2.08-4.45,4.54c0,2.46,2.04,4.54,4.45,4.54h16.27v12.95c-3.16,2.82-9.48,4.92-14.93,4.92
		c-13.74,0-22.63-9.33-22.63-23.78c0-14.22,8.99-23.78,22.36-23.78c4.2,0,8.26,0.97,11.73,2.79c0.88,0.49,1.84,0.75,2.78,0.75
		c1.61,0,3.02-0.78,3.79-2.1c0.44-0.77,0.66-1.56,0.66-2.35c0-1.5-0.91-2.95-2.35-3.78c-4.92-2.91-10.8-4.39-17.5-4.39
		c-18.21,0-31.43,13.81-31.43,32.85C281.2,115.41,293.92,128.3,313.61,128.3"/>
	<path class="st10" d="M391.46,118.55h-28.8v-18.2h23.22c2.55,0,4.62-2.07,4.62-4.62s-1.98-4.62-4.62-4.62h-23.26V72.53h28.83
		c2.63,0,4.77-2.14,4.77-4.77c0-2.63-2.14-4.77-4.77-4.77h-33.61c-2.63,0-4.77,2.14-4.77,4.77v28.14v1.89v25.55
		c0,2.63,2.14,4.77,4.77,4.77h33.61c2.63,0,4.77-2.14,4.77-4.77C396.23,120.69,394.09,118.55,391.46,118.55"/>
	<path class="st10" d="M120.75,123.42V67.31c0-2.55-2.2-4.71-4.8-4.71c-2.7,0-4.89,2.11-4.89,4.71v23.83H80.14V67.31
		c0-2.55-2.2-4.71-4.8-4.71c-2.7,0-4.89,2.11-4.89,4.71v56.11c0,2.65,2.19,4.8,4.89,4.8c2.65,0,4.8-2.16,4.8-4.8v-23.05h30.91v23.05
		c0,2.65,2.19,4.8,4.89,4.8C118.59,128.22,120.75,126.07,120.75,123.42"/>
	<path class="st11" d="M170.43,64.87c-0.76-1.47-2.28-2.4-3.94-2.4h0c-1.66,0-3.18,0.92-3.94,2.39l-29.49,56.76
		c-0.72,1.38-0.66,3.03,0.14,4.35c0.81,1.33,2.24,2.14,3.8,2.14h21.46c2.45,0,4.44-1.99,4.44-4.44c0-2.45-1.99-4.44-4.44-4.44H144.3
		l22.17-42.67l22.06,42.67h-14.16c-2.45,0-4.44,1.99-4.44,4.44c0,2.45,1.99,4.44,4.44,4.44h21.46c1.55,0,2.99-0.81,3.79-2.13
		c0.81-1.32,0.87-2.97,0.15-4.35L170.43,64.87z"/>
	<path class="st11" d="M76.93,152.11c-1.68,0-3,1.32-3,3v8.96H61.75v-8.96c0-1.68-1.32-3-3-3c-1.71,0-3.04,1.32-3.04,3v24.3
		c0,1.68,1.33,3,3.04,3c1.68,0,3-1.32,3-3v-9.62h12.17v9.62c0,1.68,1.32,3,3,3c1.68,0,3-1.32,3-3v-24.3
		C79.92,153.43,78.61,152.11,76.93,152.11"/>
	<path class="st11" d="M105.8,176.36h-9.21v-6.45h7.56c1.57,0,2.8-1.26,2.8-2.88c0-1.59-1.23-2.84-2.8-2.84h-7.56v-6.17h8.8
		c1.57,0,2.79-1.27,2.79-2.88c0-1.59-1.23-2.84-2.79-2.84H93.34c-1.54,0-2.79,1.25-2.79,2.79v24.18c0,1.54,1.25,2.8,2.79,2.8h12.46
		c1.57,0,2.8-1.27,2.8-2.88C108.59,177.61,107.36,176.36,105.8,176.36"/>
	<path class="st11" d="M132.98,154.46c-0.84-1.94-2.21-2.35-3.21-2.35c-1.5,0-2.61,0.79-3.29,2.36l-10.23,24.05
		c-0.16,0.37-0.25,0.76-0.25,1.1c0,1.57,1.25,2.8,2.84,2.8c1.25,0,2.21-0.62,2.64-1.7l2.3-5.65h11.63l2.26,5.49
		c0.28,0.7,1.03,1.87,2.92,1.87c1.56,0,2.84-1.25,2.84-2.8c0-0.35-0.08-0.73-0.24-1.18L132.98,154.46z M133.07,169.33h-6.96
		l3.5-8.52L133.07,169.33z"/>
	<path class="st11" d="M167.81,176.36h-9.95v-21.26c0-1.68-1.32-3-3-3c-1.71,0-3.04,1.32-3.04,3v23.97c0,1.68,1.32,3,3,3h12.99
		c1.66,0,3-1.29,3-2.88C170.81,177.66,169.43,176.36,167.81,176.36"/>
	<path class="st11" d="M195.03,152.31h-19.12c-1.57,0-2.79,1.25-2.79,2.84c0,1.61,1.23,2.88,2.79,2.88h6.54v21.38
		c0,1.68,1.34,3,3.04,3c1.68,0,3-1.32,3-3v-21.38h6.54c1.57,0,2.8-1.26,2.8-2.88C197.83,153.56,196.6,152.31,195.03,152.31"/>
	<path class="st11" d="M227.72,152.11c-1.68,0-3,1.32-3,3v8.96h-12.17v-8.96c0-1.68-1.32-3-3-3c-1.71,0-3.04,1.32-3.04,3v24.3
		c0,1.68,1.33,3,3.04,3c1.68,0,3-1.32,3-3v-9.62h12.17v9.62c0,1.68,1.32,3,3,3c1.68,0,3-1.32,3-3v-24.3
		C230.72,153.43,229.41,152.11,227.72,152.11"/>
	<path class="st11" d="M259.66,175.76c-1.47,0.71-2.9,1.06-4.39,1.06c-5.66,0-9.46-3.87-9.46-9.62c0-5.75,3.57-9.62,8.88-9.62
		c1.39,0,2.71,0.29,4.15,0.9c0.49,0.22,1,0.33,1.56,0.33c1.05,0,1.92-0.49,2.46-1.42c0.26-0.53,0.38-0.96,0.38-1.41
		c0-1.06-0.69-2.03-1.83-2.58c-1.9-0.97-4.35-1.53-6.72-1.53c-9.1,0-15.21,6.16-15.21,15.33c0,9.17,6.16,15.34,15.33,15.34
		c3.49,0,5.9-0.62,8.08-2.05c0.85-0.55,1.38-1.48,1.38-2.43c0-0.59-0.17-1.13-0.51-1.61C262.88,175.25,261.65,174.91,259.66,175.76"
		/>
	<path class="st11" d="M286.94,154.46c-0.84-1.94-2.21-2.35-3.21-2.35c-1.5,0-2.61,0.79-3.29,2.36l-10.23,24.05
		c-0.16,0.37-0.25,0.76-0.25,1.1c0,1.57,1.24,2.8,2.83,2.8c1.25,0,2.22-0.62,2.64-1.7l2.3-5.65h11.63l2.26,5.49
		c0.28,0.7,1.03,1.87,2.92,1.87c1.56,0,2.84-1.25,2.84-2.8c0-0.35-0.08-0.73-0.24-1.18L286.94,154.46z M287.03,169.33h-6.96
		l3.5-8.52L287.03,169.33z"/>
	<path class="st11" d="M319.68,170.05c2.65-1.16,5.25-3.89,5.25-8.44c0-4.28-1.9-9.37-10.94-9.37c-0.58,0-3.83,0.04-6.25,0.08
		c-1.68,0-3,1.32-3,3v24.09c0,1.68,1.34,3,3.04,3c1.68,0,3-1.32,3-3v-8.1h2.79l6.96,9.46c0.73,0.98,1.47,1.64,2.74,1.64
		c1.64,0,2.92-1.23,2.92-2.8c0-0.64-0.22-1.27-0.63-1.82L319.68,170.05z M310.8,158.01l0.14,0c1.09-0.03,2.03-0.06,2.82-0.06
		c3.27,0,4.85,1.21,4.85,3.7c0,2.91-2.7,3.95-5.02,3.95h-2.79V158.01z"/>
	<path class="st11" d="M350.03,176.36h-9.21v-6.45h7.56c1.57,0,2.8-1.26,2.8-2.88c0-1.59-1.23-2.84-2.8-2.84h-7.56v-6.17h8.8
		c1.57,0,2.79-1.27,2.79-2.88c0-1.59-1.23-2.84-2.79-2.84h-12.05c-1.54,0-2.79,1.25-2.79,2.79v24.18c0,1.54,1.25,2.8,2.79,2.8h12.46
		c1.57,0,2.79-1.27,2.79-2.88C352.82,177.61,351.59,176.36,350.03,176.36"/>
</g>
</svg>
