<?xml version="1.0" encoding="utf-8"?>
<!-- Generator: Adobe Illustrator 25.0.1, SVG Export Plug-In . SVG Version: 6.00 Build 0)  -->
<svg version="1.1" id="Layer_1" xmlns="http://www.w3.org/2000/svg" xmlns:xlink="http://www.w3.org/1999/xlink" x="0px" y="0px"
	 viewBox="0 0 636.2 132.5" style="enable-background:new 0 0 636.2 132.5;" xml:space="preserve">
<style type="text/css">
	.st0{fill:#66C9BA;}
	.st1{fill:#009ADE;}
	.st2{fill:#D50057;}
	.st3{fill:#C19ADE;}
</style>
<g>
	<path d="M59.4,124.5c-8.2,0-15.9-1.6-23.1-4.7c-7.2-3.1-13.5-7.4-18.8-12.8c-5.4-5.4-9.6-11.6-12.8-18.8C1.6,81.1,0,73.4,0,65.2
		c0-8.2,1.6-15.9,4.7-23c3.1-7.2,7.4-13.4,12.8-18.8c5.4-5.4,11.7-9.6,18.8-12.8c7.2-3.1,14.9-4.7,23.1-4.7
		c10.5,0,20.4,2.6,29.5,7.7c1.8,1,3,2.3,3.4,4.2c0.5,1.8,0.2,3.6-0.7,5.3c-1,1.8-2.4,3-4.3,3.4c-1.9,0.5-3.7,0.2-5.4-0.7
		c-3.4-2-7-3.5-10.8-4.5c-3.8-1-7.7-1.4-11.7-1.4c-6.3,0-12.2,1.2-17.6,3.6c-5.5,2.4-10.2,5.6-14.3,9.7c-4,4-7.3,8.8-9.7,14.4
		c-2.4,5.5-3.6,11.4-3.6,17.6c0,6.3,1.2,12.2,3.6,17.6c2.4,5.5,5.6,10.3,9.7,14.4c4,4.1,8.8,7.3,14.3,9.7c5.5,2.4,11.4,3.6,17.6,3.6
		c4.4,0,8.6-0.6,12.7-1.8c4.1-1.2,8-3,11.6-5.2c1.7-1.2,3.5-1.5,5.4-1.1c1.9,0.4,3.4,1.5,4.5,3.2c1.1,1.7,1.4,3.5,1,5.4
		c-0.4,1.9-1.5,3.4-3.2,4.6C81.6,121.5,70.9,124.5,59.4,124.5z"/>
	<path d="M109.6,6.5c1.9,0,3.6,0.7,5,2c1.4,1.3,2.2,3,2.2,5V117c0,1.9-0.7,3.6-2.2,5c-1.4,1.4-3.1,2.1-5,2.1c-2,0-3.7-0.7-5-2.1
		c-1.3-1.4-2-3-2-5V13.5c0-2,0.7-3.7,2-5C105.9,7.2,107.5,6.5,109.6,6.5z M185.6,6.5c2,0,3.7,0.7,5,2c1.3,1.3,2,3,2,5V117
		c0,1.9-0.7,3.6-2,5c-1.3,1.4-3,2.1-5,2.1c-1.9,0-3.6-0.7-5-2.1c-1.4-1.4-2.2-3-2.2-5V72.3h-45c-1.9,0-3.6-0.7-5-2
		c-1.4-1.3-2.1-3-2.1-5c0-2,0.7-3.7,2.1-5.1c1.4-1.4,3-2.1,5-2.1h45V13.6c0-2,0.7-3.7,2.2-5C182,7.2,183.7,6.5,185.6,6.5z"/>
	<path d="M312.4,119.5c-0.6,1.8-1.9,3.1-3.7,3.9c-1.8,0.9-3.6,1-5.4,0.3c-1.8-0.6-3.1-1.9-4-3.7l-12.6-27.1h-32.1c-2,0-3.7-0.7-5-2
		c-1.3-1.3-2-3-2-5c0-1.9,0.7-3.6,2-4.9c1.3-1.4,3-2.1,5-2.1h25.4L257.6,31l-39.4,89c-0.6,1.4-1.5,2.4-2.7,3.1c-1.2,0.7-2.4,1-3.8,1
		c-1,0-1.9-0.2-2.9-0.5c-1.8-0.9-3.1-2.2-3.8-4c-0.7-1.8-0.6-3.6,0.2-5.4l45.8-103c0.5-1.3,1.4-2.3,2.6-3c1.2-0.7,2.4-1.1,3.8-1.1
		c1.4,0,2.7,0.3,3.8,1c1.2,0.7,2,1.7,2.6,3L312,114.2C312.9,116,313,117.7,312.4,119.5z"/>
	<path d="M506,125.3h-2.7c-5,0-10-0.7-14.9-2.2c-4.9-1.5-9.3-3.8-13.3-6.8c-3.9-3-7.1-6.9-9.6-11.6c-2.5-4.7-3.7-10.2-3.7-16.6
		c0-1.9,0.7-3.6,2.1-5c1.4-1.4,3.1-2.1,5.1-2.1c1.9,0,3.6,0.7,5,2.1c1.4,1.4,2.1,3,2.1,5c0,3.7,0.6,6.9,1.8,9.5
		c1.2,2.6,2.8,4.8,4.6,6.5c1.9,1.7,3.9,3,6.1,4c2.2,1,4.3,1.7,6.3,2.2c2,0.5,3.8,0.8,5.4,0.9c1.5,0.1,2.5,0.2,3,0.2h2.7
		c2.9,0,5.7-0.5,8.6-1.4c2.9-1,5.5-2.3,7.8-4c2.3-1.7,4.3-3.7,5.7-6c1.5-2.3,2.2-4.8,2.2-7.4c0-4.3-2-8-6.1-11.1
		c-4.1-3.1-11-6.3-20.8-9.3l-2.9-1c-4.5-1.6-9-3.3-13.7-5.1c-4.6-1.8-8.8-4-12.5-6.7c-3.7-2.7-6.7-5.8-9-9.5
		c-2.3-3.7-3.5-8.2-3.5-13.5c0-4.5,1-8.6,3-12.4s4.7-7.1,8.2-9.8c3.5-2.8,7.7-4.9,12.5-6.5c4.8-1.5,10-2.3,15.5-2.3
		c2.9,0,6,0.2,9.4,0.5c3.4,0.3,6.7,1,10.1,2.1c3.4,1.1,6.6,2.6,9.8,4.6c3.1,2,5.9,4.7,8.4,8.1c0.6,1,1.3,2.1,2.1,3.5
		c0.7,1.4,1.4,2.8,1.9,4.3c0.5,1.5,1,2.9,1.4,4.3c0.4,1.4,0.6,2.6,0.6,3.7c0,1.9-0.7,3.6-2,5c-1.3,1.4-3,2.1-5.1,2.1
		c-1.9,0-3.6-0.7-5-2.1c-1.4-1.4-2.1-3-2.1-5c-0.1-0.5-0.5-1.7-1.2-3.4c-0.7-1.8-1.4-3.2-2.2-4.2c-4.4-6.3-13-9.4-26-9.4
		c-3.1,0-6.1,0.4-9,1.1c-2.9,0.7-5.6,1.8-8,3.3c-2.4,1.4-4.3,3.2-5.7,5.3c-1.4,2.1-2.2,4.5-2.2,7.3c0,2.7,0.7,5,2,6.9
		c1.3,2,3.3,3.8,5.8,5.4c2.5,1.6,5.6,3.2,9.2,4.6c3.6,1.4,7.7,2.9,12.2,4.5l2.7,1c3.2,1.1,6.9,2.4,11.1,3.9c4.2,1.5,8.2,3.6,12,6.2
		c3.8,2.6,7,5.8,9.6,9.7c2.6,3.8,3.9,8.5,3.9,14.1c0,4.8-1.1,9.2-3.4,13.3s-5.3,7.5-9,10.5c-3.7,2.9-7.8,5.2-12.4,6.8
		C515.2,124.5,510.6,125.3,506,125.3z"/>
	<path d="M597.7,125.3h-2.7c-5,0-10-0.7-14.9-2.2c-4.9-1.5-9.3-3.8-13.3-6.8c-3.9-3-7.1-6.9-9.6-11.6c-2.5-4.7-3.7-10.2-3.7-16.6
		c0-1.9,0.7-3.6,2.1-5c1.4-1.4,3.1-2.1,5.1-2.1c1.9,0,3.6,0.7,5,2.1c1.4,1.4,2.1,3,2.1,5c0,3.7,0.6,6.9,1.8,9.5
		c1.2,2.6,2.8,4.8,4.6,6.5c1.9,1.7,3.9,3,6.1,4c2.2,1,4.3,1.7,6.3,2.2c2,0.5,3.8,0.8,5.4,0.9s2.5,0.2,3,0.2h2.7
		c2.9,0,5.7-0.5,8.6-1.4c2.9-1,5.5-2.3,7.8-4c2.3-1.7,4.3-3.7,5.7-6c1.5-2.3,2.2-4.8,2.2-7.4c0-4.3-2-8-6.1-11.1
		c-4.1-3.1-11-6.3-20.8-9.3l-2.9-1c-4.5-1.6-9-3.3-13.7-5.1c-4.6-1.8-8.8-4-12.5-6.7c-3.7-2.7-6.7-5.8-9-9.5
		c-2.3-3.7-3.5-8.2-3.5-13.5c0-4.5,1-8.6,3-12.4s4.7-7.1,8.2-9.8c3.5-2.8,7.7-4.9,12.5-6.5c4.8-1.5,10-2.3,15.5-2.3
		c2.9,0,6,0.2,9.4,0.5c3.4,0.3,6.7,1,10.1,2.1c3.4,1.1,6.6,2.6,9.8,4.6c3.1,2,5.9,4.7,8.4,8.1c0.6,1,1.3,2.1,2.1,3.5
		c0.7,1.4,1.4,2.8,1.9,4.3c0.5,1.5,1,2.9,1.4,4.3c0.4,1.4,0.6,2.6,0.6,3.7c0,1.9-0.7,3.6-2,5c-1.3,1.4-3,2.1-5.1,2.1
		c-1.9,0-3.6-0.7-5-2.1c-1.4-1.4-2.1-3-2.1-5c-0.1-0.5-0.5-1.7-1.2-3.4c-0.7-1.8-1.4-3.2-2.2-4.2c-4.4-6.3-13-9.4-26-9.4
		c-3.1,0-6.1,0.4-9,1.1c-2.9,0.7-5.6,1.8-8,3.3c-2.4,1.4-4.3,3.2-5.7,5.3c-1.4,2.1-2.2,4.5-2.2,7.3c0,2.7,0.7,5,2,6.9
		c1.3,2,3.3,3.8,5.8,5.4c2.5,1.6,5.6,3.2,9.2,4.6c3.6,1.4,7.7,2.9,12.2,4.5l2.7,1c3.2,1.1,6.9,2.4,11.1,3.9c4.2,1.5,8.2,3.6,12,6.2
		s7,5.8,9.6,9.7c2.6,3.8,3.9,8.5,3.9,14.1c0,4.8-1.1,9.2-3.4,13.3c-2.3,4-5.3,7.5-9,10.5c-3.7,2.9-7.8,5.2-12.4,6.8
		C606.8,124.5,602.2,125.3,597.7,125.3z"/>
	<g>
		<g>
			<path class="st0" d="M412.5,30.1l-0.3,0.6c1.1,0.9,2.2,1.8,3.2,2.8c4.2,4.2,7.6,9.1,10,14.8c0.3,0.8,0.6,1.6,0.9,2.4
				c0.1,0.2,0.1,0.4,0.2,0.5c0.2,0.6,0.4,1.3,0.6,2c0,0.2,0.1,0.3,0.1,0.5c0.2,0.7,0.4,1.4,0.6,2.2c0,0.1,0,0.2,0.1,0.3
				c0.2,0.8,0.4,1.7,0.5,2.5c0,0,0,0,0,0h0.6h19.1l0,0c-0.1-1-0.3-2-0.4-3c0-0.2-0.1-0.5-0.1-0.7c-0.2-1-0.3-1.9-0.5-2.9
				c0-0.1-0.1-0.3-0.1-0.4c-0.7-3.1-1.6-6.1-2.7-9c-0.1-0.2-0.1-0.3-0.2-0.5c-0.3-0.9-0.7-1.8-1.1-2.6c-0.1-0.2-0.2-0.4-0.3-0.6
				c-1.7-3.8-3.8-7.4-6.2-10.7c-0.1-0.2-0.3-0.4-0.4-0.6c-0.6-0.8-1.1-1.5-1.7-2.3c-0.1-0.1-0.2-0.3-0.3-0.4c-2-2.4-4.1-4.7-6.4-6.8
				c-0.1-0.1-0.2-0.2-0.3-0.3c-0.7-0.7-1.5-1.3-2.3-1.9c-0.2-0.2-0.4-0.3-0.6-0.4c-0.8-0.6-1.6-1.3-2.4-1.9L412.5,30.1z"/>
		</g>
		<g>
			<path class="st1" d="M366.4,22.8c1.2-0.5,2.4-0.9,3.7-1.2c0.1,0,0.2-0.1,0.3-0.1c1.2-0.3,2.4-0.6,3.6-0.8c0.2,0,0.3-0.1,0.5-0.1
				c1.2-0.2,2.4-0.4,3.7-0.5c0.1,0,0.3,0,0.4,0c1.3-0.1,2.6-0.2,3.9-0.2c1.3,0,2.6,0.1,3.9,0.2c0.2,0,0.3,0,0.5,0
				c1.2,0.1,2.4,0.3,3.6,0.5c0.2,0,0.4,0.1,0.5,0.1c1.2,0.2,2.4,0.5,3.6,0.8c0.1,0,0.3,0.1,0.4,0.1c1.2,0.3,2.4,0.7,3.6,1.2
				c0,0,0,0,0,0l0.3-0.5l9.6-16.6c0,0,0,0,0,0c-0.9-0.4-1.8-0.8-2.8-1.1c-0.3-0.1-0.5-0.2-0.8-0.3c-0.9-0.3-1.8-0.6-2.6-0.9
				C402,3.1,401.7,3,401.4,3c-1.7-0.5-3.3-1-5-1.4c-0.3-0.1-0.6-0.1-0.8-0.2c-0.6-0.1-1.2-0.2-1.9-0.3c-0.7-0.1-1.3-0.2-2-0.3
				c-0.5-0.1-1.1-0.2-1.7-0.2c-0.8-0.1-1.6-0.2-2.4-0.2c-0.4,0-0.9-0.1-1.3-0.1C385,0.1,383.7,0,382.5,0c-1.3,0-2.5,0.1-3.8,0.1
				c-0.4,0-0.9,0.1-1.3,0.1c-0.8,0.1-1.6,0.1-2.4,0.2c-0.6,0.1-1.1,0.1-1.7,0.2c-0.7,0.1-1.3,0.2-2,0.3c-0.6,0.1-1.2,0.2-1.9,0.3
				c-0.3,0.1-0.6,0.1-0.8,0.2c-1.7,0.4-3.4,0.8-5,1.4c-0.3,0.1-0.6,0.2-0.9,0.3c-0.9,0.3-1.8,0.6-2.6,0.9c-0.3,0.1-0.5,0.2-0.8,0.3
				c-0.9,0.4-1.9,0.7-2.8,1.1c0,0,0,0,0,0l9.6,16.7L366.4,22.8z"/>
		</g>
		<g>
			<path class="st2" d="M342,90.1l0.5-0.4c-0.5-0.8-1-1.7-1.4-2.6c-0.5-0.9-0.9-1.8-1.3-2.8c-0.6-1.4-1.1-2.8-1.6-4.3
				c-0.5-1.5-0.8-2.9-1.1-4.4c-0.6-3-0.9-6.1-0.9-9.4c0-3.2,0.3-6.3,0.9-9.3c0.3-1.5,0.7-3,1.1-4.4c0.5-1.5,1-2.9,1.6-4.3
				c2.4-5.7,5.8-10.6,10-14.8c1-1,2-1.9,3-2.7l-0.3-0.6l-9.6-16.7c0,0,0,0,0,0c-0.4,0.3-0.8,0.6-1.1,0.9c-0.6,0.4-1.1,0.9-1.7,1.4
				c0,0,0,0,0,0c0,0,0,0,0,0c-0.8,0.7-1.6,1.4-2.4,2.1c-0.3,0.3-0.5,0.5-0.8,0.8c-0.5,0.5-1,1-1.5,1.5c-0.3,0.3-0.6,0.6-0.9,0.9
				c-0.4,0.5-0.9,0.9-1.3,1.4c-0.3,0.3-0.6,0.7-0.9,1.1c-0.4,0.5-0.8,0.9-1.2,1.4c-0.3,0.4-0.6,0.8-0.9,1.1c-0.4,0.5-0.7,0.9-1,1.4
				c-0.3,0.4-0.6,0.8-0.8,1.2c-0.3,0.5-0.6,0.9-0.9,1.4c-0.3,0.4-0.5,0.8-0.8,1.3c-0.3,0.5-0.6,0.9-0.8,1.4
				c-0.3,0.4-0.5,0.9-0.8,1.3c-0.3,0.5-0.5,0.9-0.7,1.4c-0.2,0.5-0.5,0.9-0.7,1.4c-0.2,0.5-0.4,0.9-0.7,1.4c-0.2,0.5-0.5,1-0.7,1.5
				c-0.2,0.4-0.4,0.9-0.6,1.3c-0.2,0.5-0.4,1-0.6,1.6c-0.2,0.4-0.3,0.8-0.4,1.2c-0.2,0.6-0.4,1.1-0.6,1.7c-0.1,0.3-0.2,0.6-0.3,0.9
				c-1.1,3.4-1.9,6.8-2.4,10.3c0,0.2-0.1,0.3-0.1,0.5c-0.1,0.8-0.2,1.6-0.3,2.4c0,0.2,0,0.4-0.1,0.6c-0.1,0.8-0.1,1.6-0.2,2.3
				c0,0.2,0,0.4,0,0.7c0,0.8-0.1,1.6-0.1,2.3c0,0.2,0,0.4,0,0.7c0,0.8,0,1.6,0,2.4c0,0.2,0,0.4,0,0.6c0,0.8,0.1,1.6,0.1,2.4
				c0,0.2,0,0.3,0,0.5c0.1,0.8,0.2,1.7,0.3,2.5c0,0.1,0,0.3,0.1,0.4c0.1,0.9,0.2,1.8,0.4,2.6c0,0.1,0,0.1,0,0.2
				c1.5,8.7,4.7,17.2,9.8,24.9L342,90.1z"/>
		</g>
		<g>
			<path class="st3" d="M436.5,104.5c0.5-0.7,1-1.4,1.4-2.1c0.1-0.1,0.1-0.2,0.2-0.3c0.5-0.7,0.9-1.5,1.4-2.3c0-0.1,0.1-0.1,0.1-0.2
				c4.5-7.6,7.4-16.2,8.5-25.4H429h-0.7l0,0c-0.1,0.8-0.3,1.7-0.5,2.5c0,0.1,0,0.1,0,0.2c-0.2,0.7-0.4,1.5-0.6,2.2
				c0,0.1-0.1,0.3-0.1,0.4c-0.2,0.7-0.4,1.3-0.6,2c-0.1,0.2-0.1,0.3-0.2,0.5c-0.3,0.8-0.6,1.6-0.9,2.3c-0.6,1.4-1.3,2.8-2,4.1
				c-2.2,3.9-4.8,7.5-8,10.6c-2.1,2.1-4.4,4-6.9,5.6c-2.5,1.7-5.1,3.1-8,4.3c-2.1,0.9-4.3,1.7-6.5,2.2c-3.7,0.9-7.5,1.4-11.5,1.4
				c-6.4,0-12.4-1.2-18-3.6c-1.3-0.5-2.5-1.1-3.6-1.8c-0.5-0.3-0.9-0.5-1.4-0.8c-0.7-0.4-1.3-0.8-2-1.2c-0.6-0.4-1.1-0.7-1.7-1.1
				c-0.5-0.3-1-0.7-1.4-1.1c-0.6-0.5-1.2-0.9-1.8-1.4l0,0l-0.5,0.5l-14.9,12.5c1.4,1.3,2.8,2.5,4.2,3.7c0.2,0.2,0.4,0.3,0.6,0.5
				c0.6,0.4,1.1,0.9,1.7,1.3c0.3,0.2,0.7,0.5,1,0.7c0.5,0.4,1.1,0.7,1.6,1.1c0.4,0.2,0.7,0.5,1.1,0.7c0.5,0.3,1.1,0.7,1.6,1
				c0.4,0.2,0.8,0.5,1.2,0.7c0.5,0.3,1.1,0.6,1.6,0.9c0.4,0.2,0.9,0.4,1.3,0.7c0.5,0.3,1.1,0.5,1.6,0.8c0.5,0.2,1,0.4,1.5,0.7
				c0.5,0.2,1,0.4,1.5,0.6c1,0.4,1.9,0.7,2.9,1.1c0.4,0.1,0.9,0.3,1.3,0.4c0.6,0.2,1.2,0.4,1.9,0.6c0.5,0.1,0.9,0.2,1.4,0.4
				c0.6,0.2,1.2,0.3,1.8,0.4c0.5,0.1,1,0.2,1.4,0.3c0.6,0.1,1.3,0.2,1.9,0.4c0.5,0.1,1,0.2,1.4,0.2c0.7,0.1,1.4,0.2,2,0.3
				c0.5,0.1,0.9,0.1,1.4,0.2c0.8,0.1,1.5,0.1,2.3,0.2c0.4,0,0.8,0.1,1.2,0.1c1.2,0.1,2.3,0.1,3.5,0.1c1.1,0,2.2,0,3.3-0.1
				c0.4,0,0.7-0.1,1.1-0.1c0.7,0,1.4-0.1,2.1-0.2c0.4,0,0.9-0.1,1.3-0.2c0.6-0.1,1.3-0.1,1.9-0.2c0.5-0.1,0.9-0.1,1.4-0.2
				c0.6-0.1,1.2-0.2,1.8-0.3c0.5-0.1,0.9-0.2,1.4-0.3c0.6-0.1,1.1-0.3,1.7-0.4c0.5-0.1,0.9-0.2,1.4-0.4c0.5-0.1,1.1-0.3,1.6-0.5
				c0.5-0.1,1-0.3,1.4-0.4c0.5-0.2,1-0.3,1.5-0.5c0.5-0.2,1-0.3,1.4-0.5c0.5-0.2,1-0.4,1.5-0.6c0.5-0.2,1-0.4,1.4-0.6
				c0.5-0.2,0.9-0.4,1.4-0.6c0.5-0.2,1-0.4,1.4-0.7c0.4-0.2,0.8-0.4,1.3-0.7c0.5-0.3,1-0.5,1.5-0.8c0.4-0.2,0.7-0.4,1.1-0.6
				c0.5-0.3,1.1-0.6,1.6-0.9c0.3-0.2,0.5-0.3,0.8-0.5c3-1.9,5.8-4,8.4-6.3c0.1-0.1,0.2-0.2,0.4-0.3c0.6-0.5,1.2-1.1,1.7-1.6
				c0.2-0.1,0.3-0.3,0.5-0.4c0.6-0.5,1.1-1.1,1.6-1.7c0.2-0.2,0.3-0.3,0.5-0.5c0.5-0.6,1-1.1,1.5-1.7c0.1-0.2,0.3-0.3,0.4-0.5
				c0.5-0.6,1-1.2,1.5-1.8c0.1-0.2,0.3-0.3,0.4-0.5c0.5-0.6,1-1.3,1.4-1.9C436.3,104.8,436.4,104.6,436.5,104.5z"/>
		</g>
	</g>
</g>
</svg>
