<svg id="Layer_1" data-name="Layer 1" xmlns="http://www.w3.org/2000/svg" viewBox="0 0 1014.16 190.94"><defs><style>.cls-1{fill:#172531;}.cls-2{fill:#fff;}.cls-3{fill:#54aa50;}.cls-4{fill:#116fb8;}</style></defs><path class="cls-1" d="M969.06,137.89c-5.28-.19-10.69,0-16.06-.65a120.07,120.07,0,0,1-15.42-2.79c-6.84-1.66-10.69-6.43-11.84-13.36-.6-3.49-.69-7.07-1-10.6-.09-1.15.37-1.56,1.51-1.56,3.31,0,6.57.09,9.87,0,1.33-.05,1.61.55,1.65,1.74a47.28,47.28,0,0,0,.6,6.06c.73,4.41,3.35,7,7.71,7.57s8.77,1.1,13.13,1.29q9.7.34,19.41,0a139.85,139.85,0,0,0,15.14-1.52c6.29-.91,7.85-5.73,7.44-11.42a17.92,17.92,0,0,0-.55-3.08c-.69-2.71-2.3-4.63-5.1-5A94.74,94.74,0,0,0,985,103.28c-7.34-.27-14.68-.09-22-.41s-14.82-1.05-22-3.35c-8.17-2.61-12.62-8.21-13.49-16.89a41.09,41.09,0,0,1,.32-11.56c1.33-7.3,5.42-12,12.48-13.45a124.46,124.46,0,0,1,16.75-2.2q10.33-.62,20.66-.32a74.17,74.17,0,0,1,19.91,2.75c8.63,2.62,12.35,6.61,13.86,17.3.28,2,.23,4,.37,6,0,1-.27,1.42-1.28,1.42h-10c-1,0-1.28-.41-1.38-1.38a38.13,38.13,0,0,0-.68-5.73c-.79-3.58-2.9-6.06-6.57-6.7a72.6,72.6,0,0,0-10.19-1.29q-11.57-.41-23.13-.32a60.17,60.17,0,0,0-10.55,1c-3.86.74-7,2.9-7.62,7.21-.92,6.2.51,12.07,8.08,13.81a68.82,68.82,0,0,0,11.7,1.56c6.38.32,12.76.1,19.09.42s13.91,1,20.84,1.88,11.42,5.41,13.08,12.53a36.28,36.28,0,0,1,.32,15.42c-1.65,8.12-6.7,12.89-14.46,14.45a129,129,0,0,1-15,1.93c-5,.41-10,.41-15,.6Z"/><path class="cls-1" d="M907,88c0-10,0-20,0-30.1,0-1.43-.36-2-1.83-1.93-3,.09-6,.05-9,.05-2,0-2,0-2,2.06v51.4a53.89,53.89,0,0,1-.32,7.07c-.6,4.31-2.2,7.29-7,7.89a91.63,91.63,0,0,1-11.75,1.15c-11.56.09-23.13.6-34.64-.87-4.87-.65-7.21-2.48-8.17-6.93a20,20,0,0,1-.42-4.23q0-27.81,0-55.66c0-1.52-.41-2-1.92-2-3,.1-6,0-8.95,0C819,56,819,56,819,58.13c0,18.77,0,37.54,0,56.26a54.47,54.47,0,0,0,1,9.18c1.19,6.79,4.91,11.24,11.88,12.12,5.83.73,11.7,1.69,17.58,1.83,12.89.28,25.79.69,38.64-.92a73.41,73.41,0,0,0,10.37-2.25,9.36,9.36,0,0,0,5.92-5.36,26.23,26.23,0,0,0,2.53-11.25c.09-9.91,0-19.87,0-29.78Z"/><path class="cls-1" d="M785.61,123.66c-.41-.37-.87-.69-1.24-1.06l-7.71-8L721.78,57.25A3.72,3.72,0,0,0,718.84,56q-7.11.09-14.18,0c-1.29,0-1.7.37-1.7,1.7q0,38.68,0,77.37c0,1.38.51,1.7,1.74,1.65,2.9,0,5.74,0,8.63,0s2.39,0,2.39-2.38V71.89c0-.73.09-1.46.18-2.66.87.78,1.42,1.24,1.88,1.75L745.27,99.7l34,35.53a3.55,3.55,0,0,0,2.76,1.46q7.71-.09,15.42,0c1.24,0,1.6-.45,1.56-1.65-.05-3.67,0-7.34,0-11q0-33,0-66c0-1.61-.45-2.07-2-2-2.93.14-5.87.05-8.81.05-2.2,0-2.2,0-2.2,2.24v65.22Z"/><path class="cls-1" d="M656,137a78.64,78.64,0,0,0,13.63-2.25c7.57-2,12.57-7,13.81-15.19a85.66,85.66,0,0,0,1.15-13c0-9.63-.23-19.32-.6-29a22.15,22.15,0,0,0-3.71-12.16c-3.17-4.45-7.67-6.7-12.76-7.89-8.45-2-17.07-2.3-25.7-2.43-7.34-.14-14.69.13-22,.59A99.1,99.1,0,0,0,604,57.94c-7.94,1.88-13.35,6.84-14.82,15.38a63.79,63.79,0,0,0-1.06,10.6c0,11.38-.64,22.76.83,34.14,1,7.8,4.91,13.22,12.12,16,5.73,2.2,11.79,2.75,17.8,3.16s11.61.42,19,.6C642.82,137.66,649.39,137.52,656,137ZM602.26,77.54a18.14,18.14,0,0,1,.78-2.89,6.93,6.93,0,0,1,5.69-5.37,69.38,69.38,0,0,1,9.73-1.56c7.2-.42,14.45-.69,21.7-.64s15.7.27,23.41,2.11c3.26.78,5.46,2.57,6.1,5.87a77.73,77.73,0,0,1,1.84,12.07c.41,8.86.59,17.71-.87,26.53a34.8,34.8,0,0,1-1.34,5,6.29,6.29,0,0,1-4.81,4.63c-4.09.78-8.17,1.61-12.3,2a143.37,143.37,0,0,1-15.38.55c-6.19,0-12.39-.42-18.58-.83a83.67,83.67,0,0,1-8.82-1.28c-3.85-.65-6.1-3.12-6.83-6.93A96.26,96.26,0,0,1,601,106.36c-.28-3.31,0-6.61,0-9.91-.23,0,.55-12.62,1.24-18.91Z"/><path class="cls-1" d="M543.52,137a51.92,51.92,0,0,0,13.86-2.71,13.87,13.87,0,0,0,8.35-8.08c2.3-5.51,2.71-11.38,2.8-17.26,0-1.1-.55-1.28-1.46-1.28-3.31,0-6.57,0-9.87,0-1.29,0-1.56.46-1.7,1.74a59.92,59.92,0,0,1-1.28,8.95,7.57,7.57,0,0,1-6.8,6,136.11,136.11,0,0,1-13.63,1.24q-11.32.18-22.62-.32a68.16,68.16,0,0,1-10.74-1.84,6.57,6.57,0,0,1-5.19-5.05,42.37,42.37,0,0,1-1.6-7.8c-.42-6.06-.69-12.16-.6-18.22a109.31,109.31,0,0,1,1.24-14.22c1-6.48,3-8.63,9.22-9.5s12.12-1.24,18.22-1.56a101.55,101.55,0,0,1,10.61.22c4.58.23,9.22.46,13.81,1,5.6.59,7.94,2.89,8.81,8.35a48,48,0,0,1,.6,6.56c0,1.43.46,1.79,1.79,1.79,3.25-.09,6.47,0,9.73,0,1.14,0,1.6-.41,1.51-1.56a104.82,104.82,0,0,0-1-10.78C565.51,61.84,561.42,59,553,57.16c-7.58-1.65-15.29-2-23-2.11-6.56-.14-13.12.28-19.69.55a62.61,62.61,0,0,0-15.42,2.66c-6.19,1.89-10.05,6-12,12.21S480.28,84.33,480,91.4a126.51,126.51,0,0,0,.27,13.35,130.87,130.87,0,0,0,1.56,13.4c.78,4.32,2.16,8.45,5.24,11.75s7.8,4.73,12.25,5.74c8.53,1.93,17.21,2,25.88,2.2Q534.38,137.57,543.52,137Z"/><path class="cls-1" d="M455.24,101.36a14.19,14.19,0,0,0,6.06-8.45,40.59,40.59,0,0,0-.09-21.43c-1.83-6.52-5.46-11.75-12-14A28,28,0,0,0,440.47,56c-22.44-.13-44.93,0-67.37-.09-1.15,0-1.65.32-1.65,1.61q0,38.77,0,77.51c0,1.24.36,1.65,1.6,1.65,3.12,0,6.29-.09,9.41,0,1.56.05,2-.36,2-2-.09-8.21-.05-16.38-.05-24.59,0-2.11,0-2.11,2.11-2.11H437.9a14.61,14.61,0,0,1,3.67.36c4.91,1.29,8.58,3.81,8.3,10.28-.22,5.46,0,10.92-.09,16.39,0,1.24.37,1.65,1.61,1.65,3.17-.05,6.38-.05,9.55,0,1.19,0,1.65-.32,1.65-1.61,0-6.61,0-13.22,0-19.87a12.56,12.56,0,0,0-3.16-8.49c-1.52-1.65-3.31-3.07-5.1-4.68Zm-69.11-5.28c-1.61,0-2-.51-2-2.07q.09-12,0-24c0-1.61.46-2.07,2-2.07,16.66.05,33.32,0,50,.09a33.44,33.44,0,0,1,7.11,1,7.34,7.34,0,0,1,5.42,5.32,24.71,24.71,0,0,1-.05,15.42,8.33,8.33,0,0,1-7.16,5.88,32,32,0,0,1-4.59.36H412.15c-8.63,0-17.3,0-26,0Z"/><path class="cls-1" d="M338.26,134.63c0,2.06,0,2.06,2.06,2.06,3,0,6-.09,8.95.05,1.56,0,2-.46,2-2.06-.09-9.05,0-18.09,0-27.08V58.13c0-2.11,0-2.16-2.16-2.16-3,0-6,.09-9,0-1.51,0-1.93.46-1.93,2q.07,19.2,0,38.45c0,12.85.05,25.52.05,38.28Z"/><path class="cls-1" d="M288.69,137.29c5.23-.5,10.47-1.24,15.65-2.2,6.24-1.15,10.1-5.23,11.89-11.43A53.65,53.65,0,0,0,318,108.88c0-1-.55-1.19-1.38-1.19h-10c-1,0-1.33.32-1.38,1.38-.09,2.11-.32,4.17-.59,6.24-.74,5.64-3,8.26-8.49,9.18a82.32,82.32,0,0,1-12.53,1.14c-7.62.1-15.19.05-22.81-.32a72.91,72.91,0,0,1-10.88-1.83,6.3,6.3,0,0,1-5.14-5.19,90.22,90.22,0,0,1-2.06-13,159.43,159.43,0,0,1,0-17.76,94,94,0,0,1,1.79-12.25c.64-3.35,2.75-5.28,6.05-6.15,6.8-1.79,13.73-1.79,20.61-2.06a107.53,107.53,0,0,1,10.92.27c4.55.23,9.14.46,13.63,1,5.74.64,8.08,3.21,8.86,9,.28,2.07.46,4.18.6,6.24,0,1.06.41,1.38,1.37,1.38h10c1,0,1.47-.32,1.38-1.38-.37-3.94-.42-8-1.11-11.88-1.19-6.75-4.36-12-11.38-13.77l-2.84-.74c-7.67-1.69-15.47-1.92-23.27-2.15-5-.19-10.05.13-15.1.27a90.61,90.61,0,0,0-17.35,2.25c-8,1.79-13.31,6.52-15,14.82a119.18,119.18,0,0,0-2.25,16.62c-.32,6.24,0,12.48.23,18.72a54.2,54.2,0,0,0,2.8,15.56c1.65,4.86,4.55,8.63,9.41,10.37a60.49,60.49,0,0,0,8.26,2.39c8,1.65,16.11,1.7,24.23,1.83,4.78-.23,9.46-.23,14.09-.64Z"/><path class="cls-2" d="M190.69,88.67a94.94,94.94,0,0,0-3.53-19.85l-.78,1.92a82,82,0,0,1-22.83,32c-9.19,7.78-17.08,10.58-17.15,10.6a5.93,5.93,0,0,0-3.19,2.57l-5.64,9.38c-1.15-6.14-1.95-12.91-2.67-19-1.93-16.28-3-23.6-8-26.31a7.35,7.35,0,0,0-6.88-.07c-6.41,3.18-13.84,12.82-14.4,59.44-.13,10.75.11,22.44.72,34.79a4.71,4.71,0,0,1-.72,3.05,3,3,0,0,1-2.32,1.23c-2,.14-3.46-.53-4.37-4.32-3-12.45-6.51-36.05-6.51-77.71,0-63.49,9.27-92.28,10.33-95.35L103,.29C100.5.1,98,0,95.47,0A95.49,95.49,0,0,0,71.76,3C56.08,41.45,54.41,81.11,53.3,107.38v.23c0,1.08-.06,1.41-.07,1.53s-.12,1.52-.67,12.37c-.06.9-.4.94-.58,1a1.11,1.11,0,0,1-1-.7c-.89-1.81-1.79-3.92-2.67-6.28a133.64,133.64,0,0,1-4.27-13.79,5.94,5.94,0,0,0-9.82-3c-7.49,7-14,9.83-19.4,8.47C7.9,105.46,3.46,97,1.87,93.47L.18,89.67C.06,91.59,0,93.52,0,95.47a95.74,95.74,0,0,0,1.65,17.72,25.08,25.08,0,0,0,10.22,5.52c7.33,1.88,15.09.08,23.1-5.34,3.45,11,9.05,23.77,16.94,26.32a7.72,7.72,0,0,0,7-1c5.12-3.55,5.48-12.1,6.28-30.82l.07-1.56c1-23.89,2.4-56.59,14.14-89.73,1-2.87,2.73-4.18,5.23-4a2.71,2.71,0,0,1,2,.89,2.27,2.27,0,0,1,.31,1.88c-4.2,21.85-6.33,49.1-6.33,81,0,66.21,9.7,91.68,10.86,94.5,1.35.05,2.7.09,4.07.09A95.42,95.42,0,0,0,119,188v-.09c-.07-1-1.83-25.06-1.55-48.46.21-17.33,1.39-30.56,3.51-39.29.15-.58.27-.64.77-.64h0c.3,0,.37.26.4.42.35,2.62.67,5.32,1,7.7,1.43,12.07,3,25.75,7,34.84a5.93,5.93,0,0,0,10.52.68l11.69-19.44C158.45,121.14,177,111.75,190.69,88.67Z"/><path class="cls-3" d="M102.74,1c-1.06,3.07-10.33,31.86-10.33,95.35,0,41.66,3.54,65.26,6.51,77.71.91,3.79,2.35,4.46,4.37,4.32a3,3,0,0,0,2.32-1.23,4.71,4.71,0,0,0,.72-3.05c-.61-12.35-.85-24-.72-34.79.56-46.62,8-56.26,14.4-59.44a7.35,7.35,0,0,1,6.88.07c5,2.71,6.08,10,8,26.31.72,6.09,1.52,12.86,2.67,19l5.64-9.38a5.93,5.93,0,0,1,3.19-2.57c.07,0,8-2.82,17.15-10.6a82,82,0,0,0,22.83-32l.78-1.92A95.54,95.54,0,0,0,103,.29Z"/><path class="cls-4" d="M1.87,93.47c1.59,3.54,6,12,13,13.75,5.38,1.36,11.91-1.49,19.4-8.47a5.94,5.94,0,0,1,9.82,3,133.64,133.64,0,0,0,4.27,13.79c.88,2.36,1.78,4.47,2.67,6.28a1.11,1.11,0,0,0,1,.7c.18,0,.52-.07.58-1,.55-10.85.64-12.1.67-12.37s0-.45.07-1.53v-.23C54.41,81.11,56.08,41.45,71.76,3A95.52,95.52,0,0,0,.18,89.67Z"/><path class="cls-4" d="M80.54,96.35c0-31.9,2.13-59.15,6.33-81a2.27,2.27,0,0,0-.31-1.88,2.71,2.71,0,0,0-2-.89c-2.5-.16-4.22,1.15-5.23,4C67.63,49.74,66.24,82.44,65.23,106.33l-.07,1.56c-.8,18.72-1.16,27.27-6.28,30.82a7.72,7.72,0,0,1-7,1C44,137.14,38.42,124.36,35,113.37c-8,5.42-15.77,7.22-23.1,5.34a25.08,25.08,0,0,1-10.22-5.52A95.49,95.49,0,0,0,91.4,190.85C90.24,188,80.54,162.56,80.54,96.35Z"/><path class="cls-3" d="M152.34,123.72l-11.69,19.44a5.93,5.93,0,0,1-10.52-.68c-4-9.09-5.59-22.77-7-34.84-.28-2.38-.6-5.08-1-7.7,0-.16-.1-.42-.4-.42h0c-.5,0-.62.06-.77.64-2.12,8.73-3.3,22-3.51,39.29-.28,23.4,1.48,47.45,1.55,48.46V188a95.5,95.5,0,0,0,71.89-92.53q0-3.43-.24-6.8C177,111.75,158.45,121.14,152.34,123.72Z"/></svg>