<svg id="svg" version="1.1" xmlns="http://www.w3.org/2000/svg" xmlns:xlink="http://www.w3.org/1999/xlink" width="400" height="225.04000000000002" viewBox="0, 0, 400,225.04000000000002"><g id="svgg"><path id="path0" d="M106.667 81.262 C 104.031 81.808,103.513 81.944,102.583 82.338 C 102.400 82.416,102.063 82.526,101.833 82.584 C 101.264 82.727,99.944 83.374,99.798 83.581 C 99.720 83.692,95.730 83.766,88.254 83.796 L 76.828 83.842 75.456 84.655 C 74.701 85.102,73.903 85.625,73.683 85.817 C 73.463 86.009,73.227 86.167,73.159 86.167 C 73.091 86.167,72.794 86.392,72.500 86.667 L 71.965 87.167 62.162 87.167 L 52.359 87.167 51.180 88.298 C 50.531 88.921,50.000 89.521,50.000 89.632 C 50.000 89.789,58.792 89.833,89.917 89.833 C 117.642 89.833,129.833 89.780,129.833 89.659 C 129.833 89.462,126.456 86.167,126.255 86.167 C 126.158 86.167,124.465 84.985,124.333 84.825 C 124.214 84.680,122.627 83.867,121.708 83.480 C 121.410 83.355,121.167 83.195,121.167 83.126 C 121.167 83.057,121.017 83.000,120.833 83.000 C 120.650 83.000,120.500 82.925,120.500 82.833 C 120.500 82.742,120.343 82.667,120.150 82.667 C 119.958 82.667,119.564 82.562,119.275 82.435 C 118.342 82.022,118.100 81.945,117.083 81.735 C 116.533 81.622,115.521 81.410,114.833 81.265 C 113.260 80.932,108.267 80.930,106.667 81.262 M89.408 92.628 C 89.312 92.695,88.983 93.162,88.678 93.667 C 88.373 94.171,88.066 94.621,87.997 94.667 C 87.928 94.712,87.843 94.900,87.809 95.083 C 87.746 95.412,87.596 95.417,76.559 95.460 L 65.373 95.502 65.161 96.043 C 64.843 96.857,64.487 97.706,64.288 98.125 L 64.110 98.500 54.407 98.500 L 44.703 98.500 44.355 99.241 C 44.164 99.648,43.958 100.286,43.899 100.658 L 43.791 101.333 44.604 101.333 C 47.232 101.334,135.469 101.334,135.708 101.334 C 135.921 101.333,136.000 101.198,136.000 100.833 C 136.000 100.558,135.925 100.333,135.833 100.333 C 135.742 100.333,135.667 100.150,135.667 99.926 C 135.667 99.521,134.832 97.314,134.231 96.129 C 134.058 95.788,133.696 95.076,133.427 94.546 C 133.157 94.017,132.838 93.484,132.717 93.362 C 132.597 93.240,132.421 92.997,132.326 92.820 C 132.148 92.488,89.880 92.298,89.408 92.628 M84.921 104.292 C 84.858 104.452,84.764 105.127,84.712 105.790 L 84.619 106.998 73.518 107.040 L 62.417 107.083 62.395 108.417 C 62.382 109.150,62.364 109.843,62.353 109.957 C 62.338 110.119,60.213 110.173,52.636 110.207 L 42.939 110.250 42.983 111.327 C 43.007 111.920,43.098 112.538,43.185 112.702 C 43.423 113.145,136.321 113.166,136.689 112.723 C 137.059 112.277,137.008 104.651,136.632 104.275 C 136.194 103.836,85.094 103.853,84.921 104.292 M151.000 112.496 C 149.502 112.689,146.478 113.807,146.000 114.344 C 145.954 114.396,145.555 114.685,145.114 114.985 C 144.672 115.286,144.270 115.637,144.221 115.766 C 144.171 115.895,144.030 116.000,143.907 116.000 C 143.784 116.000,143.398 116.348,143.050 116.773 C 142.702 117.198,142.250 117.731,142.047 117.958 C 141.844 118.185,141.627 118.531,141.566 118.727 C 141.505 118.923,141.400 119.121,141.333 119.167 C 141.266 119.212,141.057 119.555,140.868 119.929 C 138.992 123.628,139.058 128.622,141.022 131.611 C 141.637 132.549,142.990 134.000,143.249 134.000 C 143.346 134.000,143.535 134.150,143.667 134.333 C 143.799 134.517,144.040 134.667,144.203 134.667 C 144.367 134.667,144.500 134.742,144.500 134.833 C 144.500 134.925,144.579 135.000,144.676 135.000 C 144.773 135.000,145.204 135.161,145.634 135.358 C 148.837 136.822,155.647 136.662,156.904 135.093 C 157.409 134.461,158.994 131.919,158.997 131.734 C 158.999 131.634,158.606 131.746,158.125 131.984 C 156.359 132.857,155.968 132.993,153.667 133.535 C 152.367 133.841,149.643 133.700,149.405 133.315 C 149.355 133.233,149.167 133.167,148.988 133.167 C 148.107 133.167,145.000 130.632,145.000 129.913 C 145.000 129.778,144.939 129.667,144.864 129.667 C 144.698 129.667,144.167 128.583,144.167 128.244 C 144.167 128.110,144.103 128.000,144.024 128.000 C 143.840 128.000,143.500 125.937,143.500 124.820 C 143.500 123.758,143.841 121.833,144.029 121.833 C 144.105 121.833,144.167 121.723,144.167 121.589 C 144.167 121.288,144.704 120.104,144.875 120.028 C 144.944 119.997,145.000 119.898,145.000 119.808 C 145.000 119.345,147.146 117.070,147.995 116.634 C 148.227 116.515,148.454 116.372,148.500 116.317 C 148.546 116.261,148.883 116.085,149.250 115.924 C 149.617 115.764,150.097 115.547,150.317 115.441 C 150.572 115.320,151.790 115.250,153.667 115.250 C 155.543 115.250,156.762 115.320,157.016 115.441 C 157.237 115.547,157.717 115.763,158.083 115.922 C 158.450 116.081,158.806 116.243,158.875 116.282 C 159.085 116.401,159.283 115.647,159.369 114.405 C 159.462 113.073,159.467 113.078,157.798 112.684 C 156.765 112.440,152.377 112.319,151.000 112.496 M236.298 112.487 C 234.633 112.722,232.397 113.706,231.667 114.526 C 230.093 116.292,229.869 116.772,229.720 118.697 C 229.573 120.588,229.921 121.537,231.259 122.899 C 232.099 123.755,234.075 125.000,234.592 125.000 C 234.725 125.000,234.833 125.057,234.833 125.127 C 234.833 125.261,236.050 125.833,236.334 125.833 C 236.426 125.833,236.500 125.908,236.500 126.000 C 236.500 126.092,236.612 126.167,236.750 126.167 C 236.887 126.167,237.000 126.242,237.000 126.333 C 237.000 126.425,237.112 126.500,237.250 126.500 C 237.387 126.500,237.500 126.575,237.500 126.667 C 237.500 126.758,237.594 126.836,237.708 126.839 C 238.548 126.861,239.569 128.504,239.569 129.833 C 239.569 131.656,238.742 132.527,235.950 133.646 C 235.373 133.878,232.724 133.894,232.583 133.667 C 232.527 133.575,232.302 133.500,232.083 133.500 C 231.865 133.500,231.640 133.425,231.583 133.333 C 231.527 133.242,231.334 133.167,231.154 133.167 C 230.747 133.167,229.098 132.260,228.369 131.636 C 228.068 131.378,227.749 131.167,227.661 131.167 C 227.447 131.167,227.453 132.951,227.667 133.083 C 227.758 133.140,227.833 133.707,227.833 134.343 C 227.833 135.265,227.885 135.500,228.086 135.500 C 228.224 135.500,228.468 135.569,228.627 135.654 C 230.528 136.664,236.744 136.550,238.343 135.476 C 238.578 135.318,238.972 135.138,239.218 135.076 C 239.465 135.014,239.667 134.897,239.667 134.815 C 239.667 134.734,239.738 134.667,239.826 134.667 C 239.913 134.667,240.170 134.498,240.396 134.292 C 240.622 134.085,241.057 133.688,241.362 133.407 C 242.560 132.308,243.456 130.635,243.604 129.223 C 243.713 128.181,243.433 126.500,243.150 126.500 C 243.068 126.500,243.000 126.384,243.000 126.243 C 243.000 125.699,241.142 124.212,239.333 123.307 C 238.921 123.101,238.558 122.873,238.528 122.800 C 238.497 122.726,238.366 122.667,238.236 122.667 C 238.106 122.667,238.000 122.598,238.000 122.513 C 238.000 122.429,237.756 122.307,237.458 122.242 C 237.160 122.178,236.879 122.073,236.833 122.009 C 236.787 121.945,236.217 121.550,235.566 121.132 C 232.704 119.294,233.129 115.724,236.270 115.214 C 236.584 115.163,236.882 115.057,236.931 114.978 C 237.057 114.774,239.500 114.795,239.500 115.000 C 239.500 115.092,239.687 115.167,239.916 115.167 C 240.390 115.167,241.667 115.681,241.667 115.873 C 241.667 115.943,241.766 116.000,241.888 116.000 C 242.009 116.000,242.285 116.188,242.500 116.417 C 242.715 116.646,242.978 116.833,243.084 116.833 C 243.296 116.833,243.775 113.219,243.588 113.032 C 243.102 112.546,238.380 112.193,236.298 112.487 M280.383 112.490 C 279.238 112.673,276.979 113.534,276.530 113.958 C 276.409 114.073,276.214 114.167,276.096 114.167 C 275.979 114.167,275.647 114.392,275.360 114.667 C 275.072 114.942,274.774 115.167,274.697 115.167 C 274.511 115.167,272.167 117.517,272.167 117.703 C 272.167 117.783,271.967 118.048,271.723 118.292 C 269.956 120.059,268.863 124.881,269.466 128.250 C 269.947 130.935,272.730 134.687,274.542 135.091 C 274.794 135.147,275.000 135.244,275.000 135.306 C 275.000 135.479,275.795 135.771,277.127 136.085 C 279.576 136.662,282.953 136.367,285.167 135.381 C 286.777 134.663,286.912 134.591,287.186 134.293 C 287.334 134.132,287.524 134.000,287.608 134.000 C 288.205 134.000,291.667 130.462,291.667 129.851 C 291.667 129.750,291.723 129.666,291.792 129.665 C 291.860 129.664,292.066 129.345,292.247 128.956 C 292.429 128.568,292.627 128.212,292.686 128.167 C 294.099 127.069,294.061 118.085,292.641 117.528 C 292.564 117.497,292.500 117.363,292.500 117.229 C 292.500 117.095,292.424 116.895,292.332 116.785 C 290.596 114.705,290.133 114.231,289.705 114.095 C 289.501 114.031,289.333 113.908,289.333 113.822 C 289.333 113.737,289.221 113.667,289.083 113.667 C 288.946 113.667,288.833 113.592,288.833 113.500 C 288.833 113.408,288.730 113.333,288.604 113.333 C 288.478 113.333,287.934 113.138,287.396 112.900 C 286.319 112.423,282.278 112.187,280.383 112.490 M308.250 112.505 C 307.149 112.620,305.098 113.164,304.461 113.510 C 304.301 113.596,304.058 113.667,303.919 113.667 C 303.780 113.667,303.667 113.734,303.667 113.815 C 303.667 113.897,303.470 114.013,303.230 114.073 C 302.990 114.134,302.698 114.273,302.582 114.383 C 302.112 114.828,301.655 115.167,301.524 115.167 C 300.980 115.167,298.444 117.873,297.813 119.128 C 297.595 119.562,297.360 119.942,297.292 119.972 C 297.223 120.003,297.167 120.120,297.167 120.233 C 297.167 120.345,297.011 120.760,296.820 121.154 C 295.913 123.032,295.705 126.421,296.318 129.340 C 296.650 130.921,298.190 133.021,299.919 134.250 C 300.177 134.433,300.483 134.677,300.599 134.792 C 300.715 134.906,300.894 135.000,300.997 135.000 C 301.100 135.000,301.537 135.162,301.967 135.360 C 304.371 136.465,308.306 136.661,313.167 135.917 C 314.129 135.770,315.198 135.608,315.542 135.557 L 316.167 135.465 316.167 134.631 C 316.167 133.881,316.750 129.164,317.162 126.583 C 317.249 126.033,317.368 125.265,317.425 124.875 L 317.529 124.167 315.098 124.167 C 312.813 124.167,312.306 124.270,312.892 124.617 C 313.600 125.035,313.682 126.796,313.167 130.500 C 312.983 131.818,312.833 132.957,312.833 133.032 C 312.833 133.106,312.688 133.167,312.510 133.167 C 312.332 133.167,312.145 133.234,312.094 133.316 C 311.756 133.862,305.333 133.861,305.333 133.314 C 305.333 133.233,305.173 133.167,304.977 133.167 C 304.112 133.167,301.372 130.892,301.061 129.917 C 301.003 129.733,300.909 129.546,300.853 129.500 C 300.663 129.346,300.289 128.255,300.210 127.625 C 300.167 127.281,300.065 127.000,299.982 127.000 C 299.900 127.000,299.833 126.212,299.833 125.250 C 299.833 124.194,299.899 123.500,300.000 123.500 C 300.092 123.500,300.167 123.240,300.167 122.922 C 300.167 122.605,300.273 122.098,300.403 121.797 C 300.533 121.496,300.764 120.963,300.917 120.611 C 301.808 118.566,304.934 115.667,306.248 115.667 C 306.386 115.667,306.500 115.595,306.500 115.508 C 306.500 115.421,306.952 115.299,307.504 115.236 C 308.056 115.174,308.548 115.058,308.597 114.978 C 308.713 114.790,311.786 114.789,311.902 114.976 C 311.951 115.055,312.349 115.163,312.787 115.217 C 313.615 115.320,314.496 115.658,314.499 115.875 C 314.499 115.944,314.590 116.000,314.699 116.000 C 314.809 116.000,315.103 116.196,315.352 116.435 C 315.979 117.036,316.165 116.831,316.174 115.532 C 316.178 114.918,316.243 114.099,316.318 113.710 C 316.415 113.208,316.395 112.954,316.249 112.833 C 315.763 112.430,310.876 112.229,308.250 112.505 M340.167 112.501 C 339.571 112.583,338.558 112.845,337.917 113.085 C 337.275 113.324,336.619 113.562,336.458 113.613 C 336.298 113.664,336.167 113.764,336.167 113.835 C 336.167 113.906,335.970 114.013,335.730 114.073 C 335.490 114.134,335.202 114.273,335.091 114.383 C 334.979 114.493,334.677 114.733,334.419 114.917 C 333.294 115.716,332.359 116.593,331.662 117.500 C 331.345 117.912,330.954 118.395,330.793 118.573 C 330.632 118.751,330.500 119.007,330.500 119.143 C 330.500 119.279,330.397 119.509,330.272 119.654 C 329.903 120.079,329.170 122.085,329.068 122.950 C 329.016 123.390,328.899 123.905,328.808 124.094 C 328.392 124.963,328.853 128.809,329.557 130.333 C 330.289 131.918,331.807 133.833,332.331 133.833 C 332.430 133.833,332.554 133.946,332.606 134.083 C 332.659 134.221,332.807 134.333,332.934 134.333 C 333.062 134.333,333.167 134.408,333.167 134.500 C 333.167 134.592,333.279 134.667,333.417 134.667 C 333.554 134.667,333.667 134.742,333.667 134.833 C 333.667 134.925,333.749 135.000,333.850 135.000 C 333.951 135.000,334.307 135.120,334.641 135.267 C 335.682 135.724,335.881 135.786,337.190 136.074 C 338.986 136.468,341.862 136.466,343.824 136.069 C 345.747 135.679,346.184 135.303,347.598 132.821 C 347.698 132.646,347.904 132.365,348.056 132.196 C 348.546 131.655,348.083 131.394,347.560 131.916 C 347.422 132.054,347.109 132.215,346.863 132.274 C 346.618 132.333,346.117 132.518,345.750 132.685 C 344.958 133.045,343.856 133.331,341.611 133.760 C 340.923 133.891,338.667 133.544,338.667 133.307 C 338.667 133.230,338.504 133.167,338.305 133.167 C 337.315 133.167,335.110 131.407,334.126 129.833 C 332.906 127.881,332.310 124.886,332.814 123.233 C 332.895 122.967,333.058 122.412,333.177 122.000 C 333.808 119.807,337.091 116.000,338.350 116.000 C 338.513 116.000,338.693 115.925,338.750 115.833 C 338.807 115.742,338.992 115.667,339.163 115.667 C 339.333 115.667,339.503 115.573,339.542 115.458 C 339.594 115.301,340.390 115.250,342.764 115.250 L 345.917 115.250 347.053 115.795 C 348.434 116.457,348.500 116.424,348.500 115.073 C 348.500 114.469,348.573 114.000,348.667 114.000 C 348.758 114.000,348.833 113.825,348.833 113.610 C 348.833 113.207,348.623 113.104,346.917 112.671 C 345.988 112.436,341.476 112.322,340.167 112.501 M353.121 112.491 C 350.833 113.230,350.554 117.175,352.726 118.069 C 353.106 118.225,353.547 118.424,353.706 118.510 C 354.087 118.716,354.667 118.711,354.667 118.500 C 354.667 118.408,354.812 118.333,354.990 118.333 C 356.994 118.333,357.951 114.746,356.371 113.165 C 355.641 112.435,354.210 112.139,353.121 112.491 M163.500 113.005 C 163.500 113.100,163.612 113.220,163.749 113.273 C 164.194 113.444,164.464 114.793,164.311 116.083 C 164.235 116.725,164.123 117.871,164.061 118.631 C 164.000 119.390,163.886 120.051,163.808 120.099 C 163.730 120.147,163.667 120.538,163.667 120.968 C 163.667 121.686,163.500 123.065,162.485 130.750 C 162.110 133.583,161.737 134.775,161.068 135.278 C 160.384 135.792,160.579 135.833,163.667 135.833 C 165.317 135.833,166.667 135.793,166.667 135.743 C 166.667 135.693,166.515 135.490,166.330 135.292 C 166.146 135.093,165.912 134.628,165.812 134.257 C 165.616 133.531,165.633 133.286,166.162 129.250 C 166.524 126.482,167.088 121.970,167.234 120.667 C 167.280 120.254,167.361 119.617,167.413 119.250 C 167.881 115.957,168.065 114.894,168.189 114.758 C 168.268 114.671,168.333 114.491,168.333 114.359 C 168.333 114.226,168.588 113.870,168.899 113.568 C 169.209 113.266,169.422 112.977,169.371 112.926 C 169.193 112.749,163.500 112.825,163.500 113.005 M172.269 112.970 C 172.219 113.051,172.362 113.215,172.586 113.335 C 173.214 113.671,173.377 117.654,172.822 119.113 C 172.737 119.338,172.667 119.829,172.667 120.206 C 172.667 120.582,172.595 121.346,172.508 121.903 C 172.265 123.446,171.864 126.418,171.685 128.000 C 171.344 131.003,170.946 133.754,170.841 133.833 C 170.780 133.879,170.631 134.163,170.510 134.464 C 170.388 134.765,170.111 135.151,169.894 135.321 C 169.264 135.817,169.348 135.833,172.500 135.833 C 174.150 135.833,175.500 135.793,175.500 135.743 C 175.500 135.693,175.349 135.491,175.165 135.294 C 174.430 134.504,174.379 133.753,174.845 130.583 C 175.034 129.300,175.261 127.612,175.350 126.833 C 175.440 126.054,175.552 125.079,175.599 124.667 C 175.647 124.254,175.794 123.108,175.926 122.119 C 176.059 121.131,176.167 119.949,176.167 119.494 C 176.167 119.039,176.231 118.667,176.309 118.667 C 176.387 118.667,176.500 117.963,176.561 117.102 C 176.621 116.242,176.752 115.305,176.852 115.019 L 177.033 114.500 178.516 114.500 C 179.394 114.500,180.000 114.568,180.000 114.667 C 180.000 114.758,180.106 114.833,180.236 114.833 C 183.424 114.833,183.958 121.258,180.853 122.244 C 180.659 122.305,180.500 122.426,180.500 122.511 C 180.500 122.597,180.387 122.667,180.250 122.667 C 180.112 122.667,180.000 122.742,180.000 122.833 C 180.000 122.925,179.854 123.000,179.677 123.000 C 179.499 123.000,179.313 123.065,179.264 123.145 C 179.214 123.224,178.864 123.339,178.485 123.400 C 177.630 123.536,176.500 123.883,176.500 124.008 C 176.500 124.363,179.685 130.331,179.875 130.332 C 179.944 130.333,180.000 130.435,180.000 130.559 C 180.000 130.683,180.188 130.987,180.417 131.234 C 180.646 131.482,180.833 131.758,180.833 131.849 C 180.833 131.940,180.909 132.105,181.001 132.215 C 181.426 132.727,182.667 134.671,182.667 134.826 C 182.667 134.922,182.774 135.000,182.905 135.000 C 183.036 135.000,183.245 135.094,183.370 135.208 C 184.012 135.799,184.302 135.833,188.664 135.833 C 191.049 135.833,193.000 135.770,193.000 135.692 C 193.000 135.615,192.852 135.380,192.670 135.171 C 192.101 134.514,192.077 132.394,192.603 129.250 C 192.649 128.975,192.748 128.188,192.824 127.500 C 193.140 124.617,193.359 122.867,193.500 122.083 C 193.641 121.299,193.805 119.993,194.180 116.667 C 194.445 114.309,194.293 114.500,195.910 114.500 C 196.682 114.500,197.360 114.575,197.417 114.667 C 197.473 114.758,197.703 114.833,197.927 114.833 C 198.150 114.833,198.333 114.908,198.333 115.000 C 198.333 115.092,198.450 115.167,198.593 115.167 C 198.927 115.167,200.299 116.555,200.507 117.103 C 201.146 118.782,199.609 122.333,198.244 122.333 C 198.110 122.333,198.000 122.408,198.000 122.500 C 198.000 122.592,197.918 122.667,197.817 122.667 C 197.717 122.667,197.436 122.806,197.192 122.977 C 196.949 123.148,196.450 123.341,196.083 123.407 C 194.020 123.780,193.954 123.866,194.665 125.268 C 194.938 125.808,195.163 126.308,195.165 126.378 C 195.166 126.449,195.354 126.804,195.583 127.167 C 195.813 127.530,196.000 127.941,196.000 128.080 C 196.000 128.219,196.059 128.333,196.130 128.333 C 196.202 128.333,196.354 128.540,196.470 128.792 C 196.792 129.497,197.303 130.376,197.453 130.485 C 197.528 130.539,198.034 131.296,198.578 132.167 C 199.123 133.037,199.628 133.775,199.701 133.806 C 199.774 133.836,199.833 133.949,199.833 134.057 C 199.833 134.410,200.798 135.292,201.550 135.626 C 202.065 135.855,206.333 135.924,206.333 135.703 C 206.333 135.632,206.171 135.463,205.972 135.328 C 205.353 134.909,202.649 132.108,202.397 131.625 C 202.266 131.373,202.101 131.167,202.032 131.167 C 201.962 131.167,201.683 130.754,201.411 130.251 C 201.139 129.747,200.860 129.334,200.792 129.334 C 200.723 129.334,200.667 129.226,200.667 129.095 C 200.667 128.964,200.556 128.747,200.421 128.611 C 200.286 128.476,199.898 127.890,199.560 127.308 C 199.221 126.726,198.897 126.212,198.840 126.167 C 197.815 125.349,197.989 124.419,199.204 124.225 C 199.550 124.169,199.833 124.070,199.833 124.005 C 199.833 123.939,200.111 123.743,200.451 123.568 C 200.791 123.393,201.312 123.025,201.609 122.750 C 201.906 122.475,202.246 122.163,202.366 122.057 C 202.486 121.951,202.733 121.668,202.917 121.428 C 203.100 121.188,203.340 120.890,203.450 120.766 C 203.560 120.642,203.700 120.343,203.760 120.102 C 203.821 119.861,203.937 119.622,204.018 119.572 C 204.970 118.984,203.392 114.000,202.254 114.000 C 202.188 114.000,201.936 113.859,201.692 113.687 C 200.811 113.065,199.756 112.939,194.925 112.880 C 190.232 112.823,189.477 112.869,190.036 113.183 C 191.051 113.753,191.037 114.484,189.833 123.583 C 189.554 125.692,189.253 128.092,189.162 128.917 C 188.739 132.797,188.359 134.557,187.909 134.730 C 187.562 134.863,185.173 132.320,184.249 130.833 C 183.993 130.421,183.738 130.046,183.683 130.000 C 183.533 129.875,182.702 128.477,182.085 127.311 C 181.995 127.140,181.870 127.000,181.808 127.000 C 181.624 127.000,180.474 124.844,180.573 124.684 C 180.622 124.604,181.006 124.437,181.426 124.313 C 181.846 124.189,182.321 123.964,182.482 123.814 C 182.644 123.664,182.939 123.489,183.138 123.426 C 183.337 123.363,183.500 123.241,183.500 123.155 C 183.500 123.070,183.579 123.000,183.675 123.000 C 183.883 123.000,185.268 121.613,185.778 120.894 C 186.868 119.356,186.929 116.352,185.893 115.167 C 185.159 114.327,184.790 114.000,184.576 114.000 C 184.442 114.000,184.333 113.925,184.333 113.833 C 184.333 113.742,184.221 113.667,184.083 113.667 C 183.946 113.667,183.833 113.604,183.833 113.528 C 183.833 113.046,172.558 112.502,172.269 112.970 M207.446 112.943 C 207.385 113.004,207.474 113.151,207.644 113.270 C 208.202 113.660,208.400 114.823,208.188 116.470 C 208.085 117.278,208.000 118.248,208.000 118.626 C 208.000 119.004,207.936 119.353,207.857 119.402 C 207.779 119.450,207.669 120.073,207.613 120.787 C 207.557 121.500,207.394 123.021,207.250 124.167 C 206.694 128.597,206.638 129.301,206.720 130.898 C 206.766 131.804,206.869 132.592,206.947 132.648 C 207.026 132.704,207.189 132.975,207.310 133.250 C 207.431 133.525,207.638 133.862,207.770 134.000 C 207.902 134.137,208.139 134.401,208.297 134.586 C 208.776 135.147,209.858 135.750,211.000 136.092 C 213.161 136.740,219.618 136.419,220.100 135.640 C 220.147 135.563,220.332 135.500,220.510 135.500 C 220.688 135.500,220.833 135.430,220.833 135.345 C 220.833 135.259,220.988 135.140,221.176 135.080 C 221.853 134.865,224.000 132.479,224.000 131.942 C 224.000 131.806,224.057 131.669,224.127 131.639 C 224.360 131.536,224.996 128.728,225.163 127.064 C 225.254 126.158,225.400 124.929,225.488 124.333 C 225.576 123.737,225.727 122.650,225.823 121.917 C 225.919 121.183,226.107 119.758,226.240 118.750 C 226.373 117.742,226.533 116.507,226.595 116.007 C 226.657 115.506,226.765 114.981,226.835 114.840 C 226.906 114.699,227.103 114.299,227.273 113.951 C 227.452 113.586,227.741 113.279,227.957 113.225 C 228.923 112.982,227.893 112.833,225.250 112.833 C 222.541 112.833,221.819 112.947,222.391 113.281 C 223.208 113.760,223.313 114.888,222.835 118.054 C 222.653 119.262,222.391 121.225,222.254 122.417 C 221.782 126.498,221.652 127.418,221.399 128.469 C 220.818 130.882,219.829 132.391,218.376 133.082 C 217.848 133.332,217.286 133.604,217.127 133.685 C 216.722 133.893,213.167 133.876,213.167 133.667 C 213.167 133.575,213.052 133.500,212.911 133.500 C 210.909 133.500,209.839 130.167,210.477 125.917 C 210.888 123.179,211.188 120.852,211.409 118.667 C 211.535 117.429,211.689 116.192,211.751 115.917 C 211.947 115.058,212.372 114.000,212.523 114.000 C 212.602 114.000,212.667 113.886,212.667 113.746 C 212.667 113.607,212.854 113.407,213.083 113.303 C 213.313 113.199,213.500 113.050,213.500 112.973 C 213.500 112.810,207.608 112.780,207.446 112.943 M256.757 112.988 C 256.705 113.073,256.808 113.189,256.987 113.246 C 257.864 113.524,257.969 114.857,257.419 118.750 C 257.289 119.667,257.066 121.392,256.922 122.583 C 256.778 123.775,256.476 126.175,256.251 127.917 C 256.026 129.658,255.806 131.383,255.761 131.750 C 255.591 133.141,255.449 133.761,255.228 134.079 C 255.103 134.260,255.000 134.522,255.000 134.662 C 254.999 134.802,254.774 135.067,254.500 135.250 C 254.226 135.433,254.001 135.640,254.000 135.708 C 254.000 135.777,257.036 135.833,260.747 135.833 L 267.494 135.833 267.914 135.006 C 268.145 134.550,268.334 134.044,268.334 133.881 C 268.335 133.717,268.485 133.358,268.667 133.083 C 269.224 132.242,268.878 132.053,267.887 132.658 C 267.043 133.172,265.738 133.391,263.500 133.394 C 261.642 133.395,260.808 133.327,259.541 133.070 C 259.050 132.970,259.107 132.130,260.011 126.083 C 260.093 125.533,260.161 124.690,260.163 124.208 C 260.165 123.727,260.242 123.333,260.333 123.333 C 260.425 123.333,260.501 122.902,260.501 122.375 C 260.502 121.848,260.577 120.958,260.668 120.396 C 260.759 119.835,260.907 118.748,260.997 117.980 C 261.359 114.882,261.730 113.746,262.515 113.325 C 262.690 113.232,262.833 113.083,262.833 112.994 C 262.833 112.785,256.887 112.779,256.757 112.988 M322.256 112.990 C 322.203 113.076,322.257 113.207,322.375 113.281 C 323.142 113.762,323.318 114.856,322.986 117.083 C 322.891 117.725,322.745 118.813,322.662 119.500 C 322.579 120.188,322.403 121.575,322.271 122.583 C 322.139 123.592,321.942 125.167,321.835 126.083 C 321.381 129.950,320.809 133.758,320.660 133.907 C 320.572 133.995,320.500 134.184,320.500 134.327 C 320.500 134.617,319.742 135.500,319.493 135.500 C 319.405 135.500,319.333 135.575,319.333 135.667 C 319.333 135.772,320.472 135.833,322.417 135.833 C 325.639 135.833,325.724 135.818,325.139 135.344 C 324.216 134.597,324.230 133.934,325.334 126.167 C 325.419 125.571,325.642 123.771,325.829 122.167 C 326.715 114.595,327.087 113.167,328.178 113.167 C 328.274 113.167,328.307 113.092,328.250 113.000 C 328.117 112.785,322.389 112.775,322.256 112.990 M355.115 113.104 C 355.505 113.253,355.869 113.516,355.923 113.688 C 355.978 113.859,356.085 114.000,356.162 114.000 C 356.716 114.000,356.777 115.790,356.250 116.567 C 356.021 116.905,355.833 117.253,355.833 117.341 C 355.833 117.428,355.727 117.500,355.597 117.500 C 355.467 117.500,355.333 117.586,355.298 117.690 C 355.116 118.235,353.364 117.903,352.650 117.189 C 351.936 116.475,351.584 114.389,352.146 114.201 C 352.249 114.167,352.333 114.065,352.333 113.974 C 352.333 113.170,353.957 112.662,355.115 113.104 M353.146 113.642 C 352.962 114.184,353.200 117.167,353.428 117.167 C 353.600 117.167,353.667 116.957,353.667 116.417 C 353.667 115.969,353.743 115.667,353.855 115.667 C 354.071 115.667,354.667 116.306,354.667 116.537 C 354.667 116.823,355.174 117.199,355.429 117.102 C 355.641 117.020,355.614 116.905,355.265 116.391 L 354.847 115.777 355.257 115.425 C 355.713 115.033,355.782 114.417,355.424 113.944 C 355.150 113.582,353.252 113.330,353.146 113.642 M355.000 114.686 C 355.000 115.136,354.957 115.167,354.333 115.167 C 353.664 115.167,353.279 114.324,353.860 114.130 C 354.442 113.936,355.000 114.208,355.000 114.686 M284.333 114.978 C 284.333 115.058,284.627 115.162,284.986 115.210 C 286.824 115.457,289.001 117.910,289.604 120.417 C 290.102 122.481,289.824 126.865,289.150 127.575 C 289.068 127.662,289.000 127.827,289.000 127.941 C 289.000 128.798,286.273 132.042,285.168 132.500 C 284.892 132.614,284.667 132.767,284.667 132.840 C 284.667 132.914,284.425 133.027,284.130 133.091 C 283.836 133.156,283.479 133.265,283.339 133.334 C 282.288 133.848,279.651 134.025,278.716 133.643 C 278.460 133.539,278.014 133.351,277.725 133.227 C 277.436 133.102,277.156 133.000,277.102 133.000 C 276.731 133.000,274.972 131.213,274.427 130.283 C 273.437 128.593,272.884 125.198,273.325 123.519 C 273.412 123.188,273.611 122.410,273.767 121.792 C 273.922 121.173,274.105 120.667,274.173 120.667 C 274.241 120.667,274.346 120.473,274.405 120.236 C 274.892 118.295,278.245 115.476,280.375 115.217 C 280.810 115.164,281.167 115.056,281.167 114.977 C 281.167 114.898,281.879 114.833,282.750 114.833 C 283.621 114.833,284.333 114.898,284.333 114.978 M85.500 115.810 C 85.500 115.889,85.688 116.544,85.917 117.266 C 86.146 117.989,86.333 118.599,86.333 118.623 C 86.333 118.647,81.375 118.667,75.315 118.667 L 64.297 118.667 64.411 119.125 C 64.473 119.377,64.594 119.608,64.679 119.639 C 64.764 119.669,64.833 119.804,64.833 119.937 C 64.833 120.071,64.985 120.477,65.170 120.840 L 65.507 121.500 55.915 121.500 C 44.933 121.500,45.785 121.341,46.873 123.186 L 47.598 124.417 87.697 124.459 L 127.795 124.501 128.523 123.767 C 128.923 123.364,129.887 122.337,130.667 121.485 C 131.446 120.634,132.421 119.585,132.833 119.154 C 134.877 117.021,136.000 115.812,136.000 115.743 C 136.000 115.701,124.638 115.667,110.750 115.667 C 96.747 115.667,85.500 115.731,85.500 115.810 M91.667 127.242 C 91.667 127.494,92.422 128.286,93.613 129.283 C 94.038 129.638,94.275 129.959,94.219 130.104 C 94.150 130.283,94.072 130.296,93.905 130.157 C 93.782 130.055,93.586 130.030,93.469 130.103 C 93.157 130.295,75.147 130.327,74.781 130.135 C 74.584 130.032,74.405 130.038,74.266 130.154 C 74.149 130.251,73.998 130.276,73.931 130.209 C 73.721 129.998,72.667 130.067,72.667 130.292 C 72.667 130.406,72.723 130.501,72.792 130.502 C 72.860 130.503,73.129 130.672,73.388 130.877 C 74.551 131.797,74.808 131.975,75.750 132.513 L 76.750 133.083 67.500 133.125 C 62.413 133.148,58.137 133.209,58.000 133.262 C 57.748 133.357,58.846 133.982,59.287 133.994 C 59.398 133.997,59.757 134.150,60.083 134.333 C 60.410 134.517,60.787 134.667,60.922 134.667 C 61.056 134.667,61.167 134.733,61.167 134.814 C 61.167 134.895,61.598 135.015,62.125 135.080 C 62.652 135.145,63.158 135.258,63.250 135.330 C 63.447 135.484,64.256 135.626,66.083 135.827 C 66.817 135.908,78.581 135.979,92.227 135.987 L 117.037 136.000 118.227 134.776 C 118.881 134.102,119.979 132.930,120.667 132.169 C 121.354 131.409,122.498 130.184,123.208 129.447 C 123.919 128.710,124.500 128.051,124.500 127.981 C 124.500 127.912,124.650 127.808,124.833 127.750 C 125.017 127.692,125.167 127.499,125.167 127.322 C 125.167 127.006,124.861 127.000,108.417 127.000 C 93.886 127.000,91.667 127.032,91.667 127.242 " stroke="none" fill="#085eaf" fill-rule="evenodd"></path></g></svg>