<svg width="657" height="387" viewBox="0 0 657 387" fill="none" xmlns="http://www.w3.org/2000/svg">
<g clip-path="url(#clip0_34_2)">
<path d="M650.78 229.231C650.735 229.096 650.645 229.006 650.645 228.871C650.645 228.826 650.69 228.736 650.735 228.691C652.808 228.195 654.881 228.601 657 228.646C654.881 228.601 652.898 229.591 650.78 229.231Z" fill="#A9A9A9"/>
<path d="M167.405 242.831C158.976 242.11 150.593 241.39 142.164 240.669C136.53 240.174 130.895 239.768 125.261 239.273C118.275 238.688 111.333 238.057 104.347 237.472C98.9377 237.021 93.5288 236.571 88.1199 236.121C87.9847 235.941 87.8044 235.941 87.6241 236.076C79.1952 235.355 70.8115 234.635 62.3826 233.914C56.7483 233.419 51.1141 233.014 45.4798 232.518C38.4933 231.933 31.5519 231.302 24.5654 230.717C19.1565 230.267 13.7476 229.816 8.33871 229.366C8.20349 229.186 8.0232 229.186 7.8429 229.321C5.2286 229.051 2.6143 228.826 0 228.555L0.0450734 228.51L0 228.465C0.901483 228.465 1.84804 228.42 2.74952 228.42C90.0581 228.42 177.367 228.42 264.675 228.42C267.245 228.42 266.704 228.826 267.56 226.394C272.789 211.623 278.017 196.852 283.291 182.037C286.356 173.39 289.376 164.789 292.441 156.143C295.596 147.226 298.841 138.31 301.907 129.348C302.763 126.827 303.619 124.305 304.476 121.828C305.512 118.946 306.504 116.019 307.586 113.182C308.938 109.759 310.2 106.292 311.282 102.779C312.048 100.302 313.13 97.9607 313.806 95.4389C314.212 93.9978 315.023 92.6018 315.429 91.1158C316.06 88.8191 316.961 86.6125 317.728 84.3609C318.719 81.5238 319.801 78.6867 320.793 75.8497C321.604 73.508 322.37 71.1213 323.227 68.8246C324.218 66.1677 325.165 63.4657 326.111 60.7638C327.013 58.332 328.004 55.9453 328.635 53.4234C328.951 52.1625 329.582 50.8566 330.078 49.5957C330.123 49.4155 330.213 49.2804 330.393 49.2804C330.664 49.2354 330.754 49.4155 330.844 49.6407C336.929 64.7266 342.654 79.9927 348.558 95.1687C348.693 95.574 348.784 95.9793 348.919 96.3846C348.829 96.7899 348.558 97.015 348.198 97.1501C346.214 98.0057 344.231 98.8614 342.113 99.3117C341.572 97.015 340.67 94.8985 339.949 92.6919C337.064 83.9105 334.089 75.1742 331.16 66.3928C330.979 65.8975 331.069 65.3121 330.574 64.8167C330.213 65.1319 330.168 65.6273 330.033 66.0326C324.804 84.2258 319.531 102.464 314.302 120.657C301.816 163.888 289.331 207.21 276.845 250.531C276.755 250.801 276.665 251.027 276.62 251.297C276.485 251.882 276.214 252.062 275.583 252.017C273.239 251.792 270.85 251.612 268.507 251.432C263.954 251.027 259.402 250.666 254.849 250.261C248.989 249.766 243.175 249.27 237.315 248.775C233.123 248.415 228.977 248.054 224.785 247.694C218.79 247.199 212.795 246.658 206.8 246.163C201.211 245.713 195.667 245.262 190.078 244.767C184.308 244.272 178.494 243.776 172.724 243.281C171.101 243.146 169.524 243.011 167.901 242.876C167.766 242.696 167.586 242.651 167.405 242.831Z" fill="#3D93FF"/>
<path d="M563.698 236.931C563.562 236.751 563.337 236.661 563.157 236.706C561.083 236.886 559.055 237.112 556.981 237.337C556.891 237.337 556.846 237.472 556.756 237.562C556.531 237.112 556.396 237.292 556.26 237.607C556.125 237.427 555.9 237.337 555.719 237.382C553.646 237.562 551.618 237.787 549.544 238.012C549.454 238.012 549.409 238.147 549.319 238.237C549.094 237.787 548.958 237.967 548.823 238.282C548.688 238.102 548.463 238.012 548.282 238.057C546.209 238.237 544.18 238.463 542.107 238.688C542.017 238.688 541.972 238.823 541.882 238.913C541.656 238.463 541.521 238.643 541.386 238.958C541.025 238.598 540.575 238.733 540.169 238.778C534.039 239.318 527.954 239.769 521.869 240.399C519.345 240.669 516.82 240.759 514.296 241.029C512.538 241.255 510.735 241.345 508.978 241.525C507.175 241.705 505.327 241.795 503.524 241.975C502.757 242.065 501.901 241.93 501.225 242.425C500.999 241.975 500.864 242.155 500.729 242.47C500.594 242.29 500.368 242.2 500.188 242.245C498.115 242.425 496.086 242.651 494.013 242.876C493.923 242.876 493.878 243.011 493.788 243.101C493.562 242.651 493.427 242.831 493.292 243.146C493.157 242.966 492.931 242.876 492.751 242.921C490.677 243.101 488.649 243.326 486.576 243.551C486.486 243.551 486.44 243.686 486.35 243.776C486.125 243.326 485.99 243.506 485.855 243.821C485.719 243.641 485.494 243.551 485.314 243.596C483.24 243.776 481.212 244.002 479.138 244.227C479.048 244.227 479.003 244.362 478.913 244.452C478.688 244.002 478.553 244.182 478.417 244.497C478.372 244.452 478.327 244.407 478.282 244.407C475.983 244.407 473.685 244.452 471.431 245.082C471.386 244.992 471.341 244.857 471.251 244.857C471.07 244.812 470.98 244.992 470.935 245.172C470.8 244.992 470.574 244.902 470.349 244.947C468.321 245.127 466.337 245.353 464.309 245.533C464.174 245.533 464.039 245.713 463.948 245.758C463.813 245.262 463.498 245.398 463.137 245.578C460.883 245.938 458.54 245.623 456.286 246.433C455.069 245.938 453.852 246.478 452.635 246.523C451.418 246.568 450.201 246.839 448.984 246.974C447.992 247.064 446.91 247.064 445.829 247.154C444.026 247.289 442.178 247.514 440.375 247.559C439.113 247.604 438.391 248.145 437.851 249.27C429.061 266.968 420.182 284.621 411.347 302.274C411.077 302.814 410.806 303.31 410.536 303.85C410.085 303.219 409.95 302.499 409.724 301.869C397.239 264.536 384.798 227.204 372.313 189.872C367.58 175.642 362.802 161.457 358.024 147.226C354.013 135.158 350.001 123.044 345.944 110.975C345.809 110.615 345.764 110.21 345.449 109.985C347.792 108.859 350.317 108.093 352.751 107.147C352.841 107.102 352.976 107.147 353.066 107.147C357.799 119.441 362.577 131.69 367.31 143.984C382.184 182.352 397.058 220.72 411.888 259.088C412.113 259.673 412.384 260.303 412.609 260.934C413.24 260.619 413.465 260.078 413.781 259.628C419.37 251.792 424.959 243.957 430.458 236.031C431.405 234.635 432.397 234.049 434.109 234.049C441.366 233.959 448.623 233.779 455.88 233.554C470.98 233.149 486.125 232.743 501.225 232.383C512.809 232.113 524.348 231.843 535.932 231.573C548.913 231.257 561.849 230.942 574.831 230.627C588.083 230.312 601.289 229.996 614.541 229.636C627.613 229.276 640.684 228.871 653.756 228.691C653.801 228.781 653.846 228.871 653.891 229.006C652.449 229.411 651.006 229.141 649.519 229.366C648.121 229.591 646.679 229.726 645.237 229.861C644.065 229.996 642.848 229.996 641.631 230.041C640.369 230.132 639.107 230.402 637.844 230.492C636.537 230.582 635.23 230.627 633.923 230.717C631.895 230.852 629.866 231.077 627.838 231.257C627.523 231.302 627.162 231.257 626.982 231.573C626.756 231.122 626.621 231.302 626.486 231.618C626.351 231.438 626.125 231.347 625.945 231.392C623.871 231.573 621.843 231.798 619.77 232.023C619.68 232.023 619.635 232.158 619.544 232.248C619.319 231.798 619.184 231.978 619.049 232.293C618.913 232.113 618.688 232.023 618.508 232.068C616.434 232.248 614.406 232.473 612.333 232.698C612.242 232.698 612.197 232.833 612.107 232.924C611.882 232.473 611.747 232.653 611.611 232.969C611.476 232.788 611.251 232.698 611.07 232.743C608.997 232.924 606.969 233.149 604.895 233.374C604.805 233.374 604.76 233.509 604.67 233.599C604.445 233.149 604.309 233.329 604.174 233.644C603.814 233.284 603.363 233.419 602.957 233.464C596.872 234.004 590.742 234.455 584.657 235.085C582.133 235.355 579.609 235.445 577.085 235.716C575.327 235.941 573.524 236.031 571.766 236.211C569.963 236.391 568.115 236.481 566.312 236.661C565.546 236.751 564.689 236.616 564.013 237.112C563.968 236.436 563.833 236.616 563.698 236.931Z" fill="#3D93FF"/>
<path d="M644.921 46.9835C643.884 40.6339 641.72 34.6445 638.565 29.0154C636.131 24.6923 633.201 20.6844 629.776 17.1268C624.412 11.5878 618.101 7.30976 610.98 4.29257C605.345 1.90584 599.441 0.329701 593.356 0.239636C581.997 0.0144725 570.638 0.149568 559.28 0.149568C558.649 0.149568 558.018 0.194601 557.432 0.599895C555.448 1.86081 554.186 3.43695 554.231 6.04885C554.322 22.6208 554.276 39.1478 554.276 55.7198C554.276 72.2017 554.276 88.7287 554.276 105.211C554.276 105.706 554.276 106.201 554.276 106.652C554.457 110.39 557.251 112.236 560.091 112.236C570.458 112.101 580.87 112.191 591.237 112.191C593.356 112.191 595.429 112.056 597.503 111.786C603.272 111.02 608.816 109.354 614.09 106.742C620.806 103.409 626.711 98.9961 631.714 93.4121C635.816 88.8188 638.836 83.595 641.315 78.056C643.613 72.9223 644.875 67.5183 645.416 61.8893C645.867 56.8906 645.732 51.892 644.921 46.9835ZM625.043 84.3155C618.192 92.9618 609.177 98.3657 598.314 100.572C595.294 101.203 592.229 101.428 589.209 101.428C581.772 101.473 574.334 101.428 566.942 101.428C566.762 101.428 566.627 101.428 566.446 101.428C565.275 101.383 565.275 101.383 565.229 100.257C565.229 99.8968 565.229 99.4915 565.229 99.1312C565.229 84.7658 565.229 70.4004 565.229 56.035C565.229 41.6246 565.229 27.2141 565.229 12.8037C565.229 10.6421 565.049 10.7772 567.213 10.7772C574.785 10.7772 582.403 10.7322 589.975 10.8223C600.162 10.9123 609.312 14.1096 617.335 20.3692C626.17 27.2592 631.759 36.3107 633.877 47.2086C636.537 60.8535 633.697 73.3726 625.043 84.3155Z" fill="#A9A9A9"/>
<path d="M353.246 106.967C353.156 106.967 353.021 106.922 352.931 106.967C350.497 107.913 347.973 108.679 345.629 109.804C343.691 110.21 341.752 110.615 339.814 110.975C334.901 111.966 329.943 111.921 324.895 111.696C324.76 111.02 324.985 110.48 325.12 109.939C325.796 107.373 326.517 104.761 327.239 102.194C327.599 100.888 327.599 100.843 328.951 100.888C333.414 100.978 337.831 100.483 342.113 99.2217C344.232 98.7713 346.215 97.9157 348.198 97.0601C348.559 96.925 348.829 96.6998 348.919 96.2946C349.64 96.4747 350.181 96.1144 350.722 95.8442C358.069 91.9714 363.974 86.5225 368.256 79.4073C371.456 74.1385 373.485 68.4193 374.251 62.3399C375.829 49.8209 372.809 38.4727 365.011 28.4754C358.655 20.3245 350.362 15.0557 340.355 12.669C328.861 9.967 317.818 11.318 307.496 17.2623C295.371 24.2423 288.159 34.78 285.635 48.3798C283.517 59.8181 285.861 70.5809 292.036 80.4881C293.388 82.6947 295.056 84.6761 296.723 86.6576C299.157 89.5396 302.222 91.7012 305.333 93.8178C306.775 94.8085 306.595 94.4482 306.054 95.9343C305.107 98.6362 304.071 101.248 303.079 103.95C302.808 104.761 302.448 104.761 301.772 104.355C296.318 101.113 291.495 97.1502 287.348 92.3317C284.418 88.9092 281.984 85.2165 279.956 81.2086C277.477 76.3001 275.719 71.1213 274.817 65.6724C274.051 61.1241 274.006 56.5758 274.231 52.0275C274.367 49.5056 274.727 46.9838 275.313 44.5521C275.494 43.6964 275.448 42.8858 275.719 42.0302C276.35 39.7786 277.296 37.617 278.198 35.4555C280.857 28.8807 284.689 23.0265 289.512 17.8477C296.904 9.87693 307.09 4.29289 316.826 2.04126C319.801 1.36577 322.821 1.00551 325.886 0.73531C331.115 0.284983 336.299 0.735311 341.437 1.77106C350.136 3.57237 357.844 7.40014 364.785 12.9392C370.645 17.6225 375.378 23.2967 378.939 29.9165C381.328 34.3747 383.176 39.0581 384.212 44.0117C385.069 48.0196 385.655 52.0275 385.655 56.1254C385.61 67.5187 382.454 77.9212 376.099 87.3781C374.026 90.4853 371.592 93.2323 368.977 95.8442C364.74 99.9872 359.962 103.41 354.599 106.067C354.058 106.292 353.517 106.472 353.246 106.967Z" fill="#A9A9A9"/>
<path d="M495.545 39.9587C495.545 28.6104 495.545 17.2622 495.5 5.91399C495.5 4.51798 495.905 3.3021 496.491 2.04118C496.671 1.68092 496.897 1.36569 497.257 1.23059C498.519 0.64517 499.782 0.0597468 501.224 0.0597468C504.019 0.104779 506.227 2.08622 506.407 4.92327C506.453 5.28353 506.407 5.68883 506.407 6.04909C506.407 28.3853 506.407 50.6764 506.407 73.0126C506.407 82.1542 503.433 90.2601 497.573 97.3302C491.037 105.256 482.563 110.074 472.512 111.651C460.612 113.542 449.614 110.975 440.194 103.139C432.576 96.8349 427.978 88.729 426.04 79.092C425.409 75.9848 425.139 72.8325 425.139 69.6352C425.139 48.5599 425.139 27.4846 425.139 6.40935C425.139 6.13915 425.139 5.86896 425.139 5.59876C425.139 2.8968 426.13 1.45576 428.61 0.420009C430.818 -0.480643 433.568 0.10478 435.145 1.81602C435.731 2.49151 436.137 3.21203 436.137 4.11268C436.137 4.69811 436.137 5.28353 436.137 5.86896C436.137 27.7548 436.137 49.6407 436.137 71.5265C436.137 77.741 437.624 83.5502 441.32 88.6389C445.963 95.0786 452.183 99.1315 459.936 100.708C466.246 102.014 472.331 101.293 478.191 98.5911C487.476 94.313 493.066 87.1078 495.139 77.1106C495.5 75.3093 495.545 73.4629 495.545 71.6616C495.545 61.169 495.545 50.5864 495.545 39.9587Z" fill="#A9A9A9"/>
<path d="M64.5915 0.104568C78.5194 -0.0305307 90.0133 4.4277 100.245 12.4435C101.642 13.5243 103.085 14.56 104.076 16.0912C104.257 16.3614 104.527 16.5865 104.798 16.7666C106.465 17.7574 107.096 19.4686 107.502 21.1798C107.953 22.9811 106.961 25.0076 105.293 25.9983C103.085 27.3493 100.425 27.1241 98.3971 25.3679C93.3037 20.9547 87.7145 17.3521 81.6746 14.47C77.7531 12.5786 73.6063 11.5429 69.3243 11.0925C61.4814 10.2819 54.0441 11.678 46.8774 14.9203C37.5921 19.1534 30.7408 25.9083 25.9179 34.8247C23.529 39.2379 21.9063 43.8763 21.14 48.7848C20.3738 53.7835 20.3738 58.8271 21.2302 63.8708C22.5373 71.5714 25.6925 78.4163 30.5605 84.4957C35.5187 90.7102 41.8291 95.2135 49.2212 98.1856C55.802 100.843 62.6533 101.608 69.6398 101.023C79.1504 100.212 87.5342 96.5645 94.7912 90.395C96.0983 89.2692 97.2702 88.0083 98.4422 86.7924C99.7493 85.4864 101.327 84.8109 103.22 84.856C105.429 84.946 107.141 86.252 107.502 88.5036C107.908 90.8453 107.457 92.9618 105.744 94.7632C97.3604 103.59 87.1736 109.039 75.1839 111.155C70.8568 111.921 66.5297 112.281 62.2026 111.966C50.934 111.2 40.6571 107.552 31.6874 100.617C21.0499 92.4215 14.3338 81.7037 11.1336 68.7343C9.8264 63.3304 9.37566 57.7914 9.78133 52.2523C10.6828 40.2286 14.9198 29.4658 22.6725 20.1891C31.3268 9.83161 42.37 3.34692 55.6217 0.825089C58.8671 0.284697 62.1124 -0.0305307 64.5915 0.104568Z" fill="#A9A9A9"/>
<path d="M44.5339 123.449C47.9595 123.314 51.295 123.629 54.6305 124.35C56.3433 124.71 58.011 125.34 59.5886 125.971C65.268 128.178 69.6852 132.005 72.4798 137.499C73.3813 139.211 74.0123 141.057 74.5983 142.903C75.1843 144.75 74.4631 146.776 72.6601 147.767C70.2712 149.118 67.7921 149.433 65.3581 147.857C64.4566 147.271 64.0059 146.416 63.6453 145.47C63.1495 144.254 62.7889 142.948 62.2029 141.777C60.2197 137.724 56.9292 135.158 52.7374 133.852C48.0496 132.411 43.2718 132.366 38.539 133.311C36.3304 133.762 34.1217 134.392 32.1385 135.653C27.3155 138.67 25.2421 142.993 25.6929 148.577C26.0985 153.441 28.6227 156.728 32.9949 158.755C36.3754 160.331 40.0264 161.096 43.6324 161.817C49.3568 162.988 55.1263 163.978 60.6704 165.96C63.0593 166.816 65.3581 167.851 67.5217 169.157C73.6518 172.85 76.852 178.344 77.5281 185.369C77.8436 188.656 77.8436 191.899 77.0774 195.141C75.6801 200.995 72.4347 205.589 67.5217 209.011C63.5101 211.803 59.0027 213.334 54.2248 214.055C46.7425 215.181 39.3053 214.865 32.0033 212.884C28.3522 211.893 25.0618 210.227 22.0419 207.93C19.2473 205.814 17.264 203.067 15.6413 200.05C14.3793 197.663 13.3426 195.141 12.6665 192.484C11.9002 189.422 13.1172 187.17 16.1372 186.225C17.3542 185.819 18.6613 185.639 19.9685 185.954C21.8616 186.405 23.1236 187.44 23.6645 189.377C24.1604 191.223 24.7914 193.07 25.6027 194.826C27.6311 199.059 30.8313 201.941 35.2486 203.562C38.8545 204.913 42.5506 205.093 46.2918 205.138C49.6272 205.138 52.9176 204.643 56.1179 203.517C57.2898 203.112 58.3716 202.571 59.4083 201.941C62.1578 200.365 64.3214 198.203 65.4483 195.231C66.485 192.439 66.8005 189.557 66.3948 186.495C65.7638 181.406 62.7438 178.434 58.4167 176.407C56.2982 175.417 53.9544 174.921 51.7007 174.246C44.4437 172.174 36.8262 171.499 29.7495 168.752C28.0367 168.076 26.369 167.311 24.7914 166.41C18.9318 163.078 15.8216 157.944 14.9652 151.369C14.4694 147.497 14.5145 143.624 15.7315 139.886C17.7148 133.672 21.8616 129.393 27.6761 126.601C31.868 124.62 36.3304 123.719 40.9279 123.404C42.0548 123.359 43.3169 123.449 44.5339 123.449Z" fill="#3D93FF"/>
<path d="M479.679 170.779C479.679 160.196 479.679 149.613 479.679 138.985C479.679 136.869 479.814 134.707 480.49 132.771C481.257 130.654 482.744 128.808 485.043 127.907C486.666 127.277 488.333 126.917 490.091 126.917C504.74 126.917 519.389 126.917 533.993 126.917C536.292 126.917 537.825 128.223 538.321 130.474C538.591 131.825 538.411 133.131 537.825 134.392C537.149 135.743 536.022 136.509 534.534 136.644C533.858 136.689 533.137 136.689 532.416 136.689C519.93 136.689 507.445 136.689 494.959 136.689C491.353 136.689 490.362 137.68 490.317 141.282C490.317 148.307 490.317 155.377 490.317 162.402C490.317 163.889 490.317 163.889 491.849 163.889C503.568 163.889 515.333 163.889 527.052 163.889C527.683 163.889 528.359 163.889 528.99 163.934C529.486 163.979 529.982 164.024 530.433 164.159C532.416 164.789 533.543 167.041 533.227 169.563C532.957 171.679 531.334 173.3 529.351 173.435C528.855 173.48 528.404 173.435 527.908 173.435C516.054 173.435 504.245 173.435 492.39 173.435C492.029 173.435 491.624 173.435 491.263 173.435C490.632 173.39 490.362 173.661 490.407 174.291C490.407 174.606 490.407 174.922 490.407 175.237C490.407 183.523 490.407 191.809 490.407 200.095C490.407 200.545 490.407 200.95 490.407 201.401C490.542 203.427 491.624 204.553 493.652 204.733C494.463 204.823 495.275 204.823 496.086 204.823C508.572 204.823 521.057 204.823 533.543 204.823C533.858 204.823 534.174 204.823 534.489 204.823C537.825 204.868 539.583 206.67 539.447 209.957C539.357 212.929 537.554 214.685 534.489 214.685C521.643 214.685 508.752 214.685 495.906 214.685C493.201 214.685 490.542 214.775 487.838 214.46C486.035 214.235 484.502 213.469 483.105 212.434C481.888 211.533 481.212 210.272 480.716 208.921C479.995 206.985 479.769 204.958 479.769 202.887C479.679 192.169 479.679 181.451 479.679 170.779Z" fill="#3D93FF"/>
<path d="M605.435 159.971C606.112 159.52 606.337 158.98 606.652 158.484C613.684 148.307 620.761 138.175 627.792 127.997C628.513 126.962 629.28 126.061 630.542 125.656C631.353 125.386 632.119 125.34 632.886 125.521C635.275 126.151 637.077 127.592 638.024 129.844C638.52 131.015 638.34 132.276 637.528 133.401C636.942 134.212 636.311 135.068 635.725 135.878C628.243 146.055 620.806 156.278 613.323 166.455C613.278 166.545 613.188 166.635 613.143 166.725C612.287 167.986 612.152 167.626 613.188 169.022C620.986 179.695 628.784 190.368 636.627 201.04C637.979 202.842 639.241 204.733 640.638 206.489C642.216 208.516 641.765 210.497 640.683 211.983C639.151 214.145 636.987 215.045 634.373 214.64C632.841 214.415 631.804 213.379 630.947 212.118C627.296 206.895 623.6 201.626 619.904 196.402C615.307 189.827 610.709 183.297 606.112 176.723C605.931 176.453 605.706 176.227 605.48 175.867C604.94 176.182 604.669 176.723 604.354 177.173C596.15 188.746 587.902 200.32 579.878 211.983C577.535 215.361 574.064 215.316 570.864 212.839C569.241 211.578 568.88 208.921 569.872 207.075C570.142 206.489 570.548 205.994 570.954 205.454C579.653 193.52 588.397 181.586 597.142 169.653C597.367 169.337 597.547 169.022 597.818 168.752C598.449 168.121 598.314 167.536 597.773 166.951C597.593 166.77 597.457 166.545 597.277 166.32C589.254 155.602 581.231 144.885 573.162 134.212C571.224 131.69 571.72 129.619 572.892 127.997C574.424 125.881 577.354 124.845 579.563 125.611C580.69 126.016 581.366 126.917 581.997 127.817C586.955 134.572 591.913 141.372 596.871 148.127C599.486 151.685 602.055 155.242 604.669 158.8C604.849 159.25 605.12 159.565 605.435 159.971Z" fill="#3D93FF"/>
<path d="M165.107 56.0803C165.107 39.5083 165.107 22.9363 165.107 6.40935C165.107 4.87824 165.378 3.43719 166.324 2.17628C167.947 0.0597448 170.155 -0.165418 172.274 0.329941C174.347 0.780267 175.925 2.94183 176.06 5.05837C176.105 5.64379 176.06 6.22922 176.06 6.81464C176.06 37.617 176.06 68.4193 176.06 99.2666C176.06 101.743 175.79 101.473 178.314 101.473C196.343 101.473 214.373 101.518 232.403 101.473C234.837 101.473 237.181 102.824 237.857 105.751C238.578 108.904 236.234 112.056 232.989 112.191C232.628 112.191 232.222 112.191 231.862 112.191C211.624 112.191 191.385 112.146 171.147 112.236C167.766 112.236 165.017 109.714 165.017 106.067C165.152 89.4045 165.107 72.7424 165.107 56.0803Z" fill="#A9A9A9"/>
<path d="M137.882 173.75C137.882 185.594 137.882 197.393 137.882 209.236C137.882 211.398 137.386 213.244 135.223 214.1C132.834 215.09 130.49 214.955 128.371 213.289C127.425 212.524 127.064 211.443 127.019 210.317C126.974 209.822 127.019 209.371 127.019 208.876C127.019 185.324 127.019 161.772 127.019 138.22C127.019 135.923 127.335 136.193 124.946 136.193C116.923 136.148 108.899 136.148 100.876 136.193C99.7942 136.193 98.9829 135.698 98.3519 135.112C96.5038 133.446 96.5489 129.438 98.2617 127.592C99.028 126.781 99.9295 126.286 101.101 126.286C101.417 126.286 101.733 126.286 102.048 126.286C122.241 126.286 142.434 126.376 162.583 126.196C166.91 126.151 168.307 129.934 167.451 133.041C166.91 135.022 165.377 136.148 163.259 136.148C160.013 136.193 156.813 136.148 153.568 136.148C148.88 136.148 144.192 136.148 139.505 136.148C137.612 136.148 137.792 135.968 137.792 137.904C137.882 149.883 137.882 161.817 137.882 173.75Z" fill="#3D93FF"/>
<path d="M414.772 173.616C414.772 161.727 414.772 149.838 414.772 137.95C414.772 135.968 414.998 136.148 412.924 136.148C405.532 136.148 398.185 136.148 390.793 136.148C390.342 136.148 389.936 136.148 389.486 136.148C386.24 136.058 384.347 133.807 384.753 130.609C384.933 129.303 385.249 128.088 386.33 127.232C387.007 126.646 387.728 126.241 388.674 126.241C389.125 126.241 389.531 126.241 389.981 126.241C410.039 126.241 430.142 126.241 450.2 126.241C453.581 125.566 455.97 129.439 455.474 132.185C455.069 134.392 453.536 135.968 451.327 136.103C450.696 136.148 450.02 136.148 449.389 136.148C442.177 136.148 434.965 136.148 427.754 136.148C427.393 136.148 426.987 136.193 426.627 136.148C425.951 136.103 425.59 136.329 425.68 137.049C425.725 137.454 425.68 137.905 425.68 138.355C425.68 161.727 425.68 185.144 425.68 208.516C425.68 208.741 425.68 208.966 425.68 209.146C425.815 211.308 425.274 213.154 423.111 214.055C420.767 215.046 418.468 214.955 416.395 213.424C415.358 212.704 414.953 211.578 414.862 210.362C414.817 209.867 414.862 209.416 414.862 208.921C414.772 197.168 414.772 185.414 414.772 173.616Z" fill="#3D93FF"/>
<path d="M260.978 207.39C258.68 201.536 256.246 195.727 253.812 189.962C252.009 185.639 250.116 181.361 247.591 177.398C245.788 174.606 243.67 172.175 240.515 170.869C240.425 170.824 240.38 170.734 240.289 170.598C242.363 169.878 244.436 169.247 246.419 168.302C250.972 166.14 253.992 162.718 255.885 158.124C257.553 154.116 257.823 149.838 257.372 145.605C256.426 136.779 251.738 130.699 243.219 127.817C239.794 126.647 236.233 126.196 232.627 126.196C223.522 126.196 214.462 126.241 205.357 126.196C203.464 126.196 201.661 126.511 199.903 127.097C197.198 128.043 195.666 130.114 194.9 132.771C194.404 134.482 194.224 136.238 194.224 138.04C194.224 161.727 194.224 185.459 194.224 209.146C194.224 209.507 194.179 209.912 194.224 210.272C194.359 211.533 194.764 212.704 195.846 213.469C197.92 214.911 200.173 215.001 202.427 214.01C204.41 213.109 204.906 211.353 204.816 209.326C204.771 207.885 204.816 206.444 204.816 204.958C204.816 195.321 204.816 185.729 204.816 176.092C204.816 174.381 204.636 174.426 206.439 174.426C212.208 174.426 217.933 174.426 223.702 174.426C225.054 174.426 226.407 174.516 227.714 174.606C230.779 174.831 233.393 176.092 235.602 178.254C237.945 180.596 239.523 183.478 240.92 186.45C242.633 189.962 244.031 193.61 245.428 197.303C247.186 201.941 248.944 206.534 250.701 211.173C251.152 212.344 251.738 213.379 252.91 214.055C255.074 215.271 258.77 214.415 260.257 212.974C261.97 211.308 261.7 209.281 260.978 207.39ZM233.799 165.059C232.627 165.24 231.41 165.33 230.238 165.33C229.426 165.33 228.66 165.33 227.849 165.33C227.038 165.33 226.271 165.285 225.46 165.285C225.054 165.285 224.649 165.285 224.288 165.285C224.288 165.285 224.288 165.285 224.243 165.285C222.44 165.33 220.592 165.285 218.789 165.285C214.552 165.285 210.27 165.285 206.033 165.285C205.267 165.285 204.996 165.285 204.861 164.969C204.771 164.789 204.771 164.474 204.771 164.024C204.771 155.918 204.771 147.812 204.771 139.661C204.771 139.256 204.816 138.895 204.906 138.49C204.951 138.31 204.951 138.085 205.041 137.905C205.447 136.599 206.303 135.833 207.656 135.608C207.836 135.563 207.971 135.563 208.152 135.563C208.332 135.563 208.467 135.563 208.647 135.563C210.676 135.563 212.659 135.563 214.687 135.563C216.716 135.563 218.699 135.563 220.727 135.563C224.739 135.563 228.795 135.563 232.807 135.608C233.213 135.608 233.618 135.608 233.979 135.653C236.729 135.833 239.298 136.689 241.597 138.31C243.67 139.796 244.977 141.868 245.743 144.209C246.374 146.146 246.69 148.172 246.69 150.154C246.69 151.369 246.555 152.54 246.284 153.756C246.104 154.567 245.879 155.287 245.608 156.008C245.202 157.089 244.707 158.079 244.076 158.935C243.49 159.836 242.768 160.601 242.002 161.322C239.929 163.348 237.179 164.519 233.799 165.059Z" fill="#3D93FF"/>
<path d="M80.0058 323.124L60.3535 371.354H64.32L70.0444 357.124H92.8069L98.4862 371.354H102.588L82.9807 323.124H80.0058ZM71.3516 353.836L81.4482 328.843L91.4546 353.836H71.3516Z" fill="black"/>
<path d="M327.418 366.715C324.803 367.886 321.964 368.427 318.763 368.427C315.879 368.427 313.219 367.886 310.74 366.85C308.261 365.77 306.143 364.284 304.34 362.347C302.537 360.411 301.139 358.159 300.148 355.547C299.111 352.935 298.615 350.143 298.615 347.126C298.615 344.109 299.111 341.317 300.103 338.75C301.094 336.183 302.492 333.932 304.295 332.04C306.098 330.149 308.261 328.663 310.695 327.582C313.129 326.501 315.834 326.006 318.673 326.006C321.738 326.006 324.533 326.591 327.102 327.717C329.671 328.843 331.835 330.419 333.593 332.445L336.207 329.834C333.999 327.537 331.429 325.691 328.454 324.385C325.525 323.079 322.234 322.403 318.673 322.403C315.248 322.403 312.047 323.034 309.163 324.295C306.278 325.555 303.709 327.312 301.5 329.563C299.291 331.815 297.624 334.427 296.452 337.399C295.28 340.371 294.694 343.614 294.694 347.126C294.694 350.594 295.28 353.881 296.497 356.898C297.714 359.915 299.382 362.572 301.59 364.824C303.799 367.076 306.368 368.832 309.298 370.138C312.228 371.399 315.428 372.029 318.899 372.029C322.55 372.029 325.84 371.354 328.86 370.003C331.835 368.652 334.449 366.805 336.613 364.464L333.999 361.897C332.196 363.968 330.032 365.589 327.418 366.715Z" fill="black"/>
<path d="M367.309 340.056C364.739 338.57 361.855 337.805 358.699 337.805C355.499 337.805 352.614 338.57 350.045 340.056C347.476 341.587 345.448 343.614 343.915 346.181C342.383 348.748 341.661 351.63 341.661 354.827C341.661 358.024 342.428 360.951 343.915 363.563C345.403 366.175 347.476 368.247 350.045 369.778C352.614 371.309 355.499 372.074 358.699 372.074C361.855 372.074 364.739 371.309 367.309 369.778C369.878 368.247 371.906 366.175 373.439 363.608C374.926 360.996 375.692 358.114 375.692 354.827C375.692 351.63 374.926 348.748 373.439 346.181C371.906 343.569 369.878 341.542 367.309 340.056ZM370.193 361.852C369.021 363.969 367.444 365.59 365.461 366.851C363.477 368.067 361.224 368.697 358.699 368.697C356.13 368.697 353.876 368.067 351.893 366.851C349.91 365.635 348.287 363.969 347.115 361.897C345.943 359.826 345.357 357.484 345.357 354.827C345.357 352.17 345.943 349.873 347.115 347.847C348.287 345.82 349.865 344.199 351.893 342.983C353.876 341.767 356.175 341.182 358.699 341.182C361.178 341.182 363.432 341.767 365.461 342.983C367.444 344.199 369.066 345.82 370.193 347.847C371.365 349.873 371.906 352.17 371.906 354.782C371.951 357.394 371.365 359.736 370.193 361.852Z" fill="black"/>
<path d="M427.844 339.335C425.996 338.3 423.922 337.759 421.533 337.759C419.19 337.759 417.026 338.3 415.088 339.335C413.15 340.371 411.617 341.812 410.445 343.704C410.22 344.109 409.994 344.514 409.814 344.919C409.634 344.514 409.454 344.109 409.228 343.749C408.146 341.857 406.659 340.416 404.856 339.38C403.008 338.345 400.935 337.804 398.546 337.804C396.202 337.804 394.038 338.345 392.145 339.38C390.342 340.371 388.9 341.722 387.773 343.478V338.525H384.167V371.399H387.773V350.819C387.773 348.882 388.224 347.171 389.17 345.73C390.072 344.289 391.289 343.118 392.821 342.353C394.309 341.542 396.021 341.137 397.824 341.137C400.574 341.137 402.828 342.037 404.586 343.839C406.343 345.64 407.245 348.027 407.245 350.999V371.444H410.851V350.864C410.851 348.927 411.302 347.216 412.203 345.775C413.105 344.334 414.322 343.163 415.854 342.398C417.387 341.587 419.054 341.182 420.902 341.182C423.652 341.182 425.906 342.082 427.664 343.884C429.421 345.685 430.323 348.072 430.323 351.044V371.489H433.929V350.413C433.929 347.847 433.388 345.64 432.261 343.749C431.134 341.857 429.647 340.371 427.844 339.335Z" fill="black"/>
<path d="M468.86 340.056C466.426 338.57 463.631 337.805 460.521 337.805C458.132 337.805 455.879 338.255 453.85 339.201C451.777 340.146 450.064 341.497 448.667 343.254C448.216 343.839 447.765 344.469 447.45 345.145V338.48H443.844V385.269H447.45V364.554C447.81 365.184 448.216 365.815 448.667 366.4C450.019 368.157 451.732 369.553 453.805 370.543C455.879 371.534 458.087 372.029 460.566 372.029C463.676 372.029 466.471 371.264 468.905 369.778C471.339 368.292 473.277 366.22 474.72 363.653C476.117 361.087 476.838 358.159 476.838 354.917C476.838 351.675 476.117 348.748 474.72 346.136C473.232 343.614 471.294 341.542 468.86 340.056ZM471.429 362.032C470.302 364.104 468.725 365.725 466.741 366.896C464.758 368.067 462.459 368.652 459.89 368.652C457.456 368.652 455.248 368.067 453.354 366.896C451.461 365.725 449.974 364.104 448.892 362.032C447.81 359.961 447.315 357.619 447.315 354.917C447.315 352.17 447.855 349.783 448.937 347.712C450.019 345.64 451.506 344.019 453.445 342.848C455.338 341.677 457.591 341.137 460.116 341.137C462.595 341.137 464.848 341.722 466.787 342.848C468.725 344.019 470.302 345.595 471.429 347.712C472.556 349.783 473.142 352.17 473.142 354.872C473.142 357.574 472.556 359.961 471.429 362.032Z" fill="black"/>
<path d="M512.673 345.055C512.357 344.424 511.997 343.839 511.591 343.299C510.284 341.542 508.661 340.191 506.633 339.246C504.605 338.3 502.351 337.805 499.827 337.805C496.717 337.805 493.922 338.57 491.398 340.101C488.919 341.632 486.935 343.704 485.448 346.271C484.006 348.883 483.239 351.765 483.239 354.962C483.239 358.204 483.961 361.132 485.448 363.698C486.89 366.265 488.919 368.292 491.443 369.823C493.967 371.354 496.807 372.074 499.962 372.074C502.441 372.074 504.695 371.579 506.633 370.633C508.571 369.688 510.239 368.292 511.501 366.535C511.952 365.95 512.312 365.275 512.673 364.599V371.354H516.279V338.48H512.673V345.055ZM509.427 364.869C507.174 367.391 504.199 368.652 500.413 368.652C497.798 368.652 495.5 368.067 493.471 366.896C491.443 365.725 489.865 364.104 488.693 362.032C487.521 359.961 486.981 357.574 486.981 354.872C486.981 352.215 487.566 349.873 488.693 347.802C489.865 345.73 491.443 344.109 493.426 342.938C495.409 341.768 497.708 341.182 500.322 341.182C502.802 341.182 505.01 341.767 506.903 342.893C508.796 344.064 510.239 345.64 511.275 347.712C512.267 349.783 512.808 352.17 512.808 354.962C512.808 359.06 511.681 362.347 509.427 364.869Z" fill="black"/>
<path d="M549.002 339.561C547.064 338.345 544.765 337.759 542.196 337.759C539.582 337.759 537.283 338.345 535.255 339.471C533.271 340.596 531.694 342.082 530.522 343.974V338.48H526.916V371.354H530.522V351.854C530.522 349.738 530.973 347.892 531.919 346.27C532.821 344.649 534.128 343.388 535.751 342.488C537.373 341.587 539.266 341.092 541.385 341.092C544.495 341.092 547.019 342.082 548.867 344.064C550.76 346.045 551.707 348.657 551.707 351.854V371.354H555.223V351.404C555.223 348.837 554.682 346.541 553.6 344.469C552.473 342.443 550.941 340.776 549.002 339.561Z" fill="black"/>
<path d="M589.795 338.48L577.49 365.59L565.726 338.48H561.759L575.552 369.507L567.844 385.269H571.721L578.256 371.444L593.762 338.48H589.795Z" fill="black"/>
<path d="M138.828 372.029C133.96 372.029 128.956 371.264 125.35 370.408C123.638 370.048 123.412 369.598 123.412 368.562V324.295C123.412 323.619 124.043 323.034 124.719 323.034H132.382C133.058 323.034 133.644 323.619 133.644 324.295V335.238C135.492 334.968 137.566 334.787 138.828 334.787C149.51 334.787 154.694 341.047 154.694 350.954V355.863C154.694 366.085 149.059 372.029 138.828 372.029ZM144.417 350.909C144.417 346.496 143.29 343.208 138.783 343.208C137.25 343.208 135.132 343.344 133.599 343.524V363.248C134.816 363.428 136.709 363.608 138.783 363.608C143.29 363.608 144.417 360.321 144.417 355.863V350.909Z" fill="black"/>
<path d="M177.501 343.208C175.292 343.389 171.191 344.154 168.847 345.415V370.093C168.847 370.768 168.261 371.399 167.585 371.399H159.922C159.246 371.399 158.615 370.768 158.615 370.093V339.876C158.615 339.2 159.246 338.93 159.877 338.615C163.889 336.724 170.83 334.742 177.185 334.742C177.862 334.742 178.448 335.328 178.448 336.003V341.992C178.448 342.578 178.042 343.163 177.501 343.208Z" fill="black"/>
<path d="M190.347 371.444H182.64C181.964 371.444 181.378 370.858 181.378 370.183V336.499C181.378 335.823 181.964 335.238 182.64 335.238H190.347C191.024 335.238 191.609 335.823 191.609 336.499V370.183C191.609 370.904 191.024 371.444 190.347 371.444Z" fill="black"/>
<path d="M205.944 371.444H198.236C197.56 371.444 196.929 370.813 196.929 370.138V324.25C196.929 323.574 197.56 322.989 198.236 322.989H205.944C206.62 322.989 207.161 323.574 207.161 324.25V370.093C207.161 370.813 206.62 371.444 205.944 371.444Z" fill="black"/>
<path d="M221.224 371.444H213.516C212.84 371.444 212.209 370.813 212.209 370.138V324.25C212.209 323.574 212.84 322.989 213.516 322.989H221.224C221.9 322.989 222.441 323.574 222.441 324.25V370.093C222.441 370.813 221.945 371.444 221.224 371.444Z" fill="black"/>
<path d="M236.729 371.444H229.022C228.346 371.444 227.76 370.858 227.76 370.183V336.499C227.76 335.823 228.346 335.238 229.022 335.238H236.729C237.405 335.238 237.991 335.823 237.991 336.499V370.183C237.991 370.904 237.405 371.444 236.729 371.444Z" fill="black"/>
<path d="M258.139 372.029C247.907 372.029 242.273 365.635 242.273 355.592V351.179C242.273 341.137 247.907 334.742 258.139 334.742C268.371 334.742 273.96 341.137 273.96 351.179V355.592C273.96 365.635 268.371 372.029 258.139 372.029ZM263.773 351.179C263.773 346.045 261.835 343.479 258.139 343.479C254.488 343.479 252.459 346.045 252.459 351.179V355.592C252.459 360.726 254.488 363.338 258.139 363.338C261.79 363.338 263.773 360.681 263.773 355.592V351.179Z" fill="black"/>
<path d="M208.106 380.09C208.106 376.713 205.356 374.011 202.021 374.011C198.64 374.011 195.936 376.758 195.936 380.09C195.936 383.468 198.685 386.169 202.021 386.169C205.401 386.215 208.106 383.468 208.106 380.09Z" fill="#2CB54D"/>
<path d="M223.432 380.09C223.432 376.713 220.683 374.011 217.347 374.011C213.967 374.011 211.217 376.758 211.217 380.09C211.217 383.468 213.967 386.169 217.347 386.169C220.728 386.215 223.432 383.468 223.432 380.09Z" fill="#2CB54D"/>
</g>
<defs>
<clipPath id="clip0_34_2">
<rect width="657" height="387" fill="black"/>
</clipPath>
</defs>
</svg>
