<?xml version="1.0" encoding="utf-8"?>
<!-- Generator: Adobe Illustrator 23.0.3, SVG Export Plug-In . SVG Version: 6.00 Build 0)  -->
<svg version="1.1" id="Layer_1" xmlns="http://www.w3.org/2000/svg" xmlns:xlink="http://www.w3.org/1999/xlink" x="0px" y="0px"
	 viewBox="0 0 1000 226.61" style="enable-background:new 0 0 1000 226.61;" xml:space="preserve">
<style type="text/css">
	.st0{fill:#1DCAD3;}
	.st1{fill:#36B0C9;}
	.st2{fill:#231F20;}
	.st3{fill:#FFFFFF;}
	.st4{fill:#9164CC;}
	.st5{clip-path:url(#SVGID_2_);fill:url(#SVGID_3_);}
	.st6{fill:#201747;}
	.st7{fill-rule:evenodd;clip-rule:evenodd;fill:#10CFC9;}
	.st8{clip-path:url(#SVGID_5_);fill:#231F20;}
	.st9{fill-rule:evenodd;clip-rule:evenodd;fill:#231F20;}
	.st10{clip-path:url(#SVGID_7_);fill:#FFFFFF;}
	.st11{fill-rule:evenodd;clip-rule:evenodd;fill:#FFFFFF;}
	.st12{fill:#8CCEAF;}
	.st13{fill:#008476;}
	.st14{fill:#25BCBD;}
	.st15{fill:#004D70;}
	.st16{fill:#20BBBB;}
	.st17{fill:#024D70;}
	.st18{fill-rule:evenodd;clip-rule:evenodd;fill:#F58B1F;}
	.st19{fill-rule:evenodd;clip-rule:evenodd;fill:#18335B;}
	.st20{clip-path:url(#SVGID_9_);}
	.st21{clip-path:url(#SVGID_11_);}
	.st22{fill:#18335B;}
	.st23{fill:#F58B1F;}
	.st24{clip-path:url(#SVGID_15_);}
	.st25{clip-path:url(#SVGID_17_);}
	.st26{clip-path:url(#SVGID_21_);}
	.st27{clip-path:url(#SVGID_23_);}
	.st28{clip-path:url(#SVGID_27_);}
	.st29{clip-path:url(#SVGID_29_);}
	.st30{clip-path:url(#SVGID_33_);}
	.st31{clip-path:url(#SVGID_35_);}
	.st32{clip-path:url(#SVGID_39_);}
	.st33{clip-path:url(#SVGID_41_);}
	.st34{fill:#416BA9;}
	.st35{fill:#73C3D5;}
	.st36{opacity:0.8;}
	.st37{fill:#3A3A3A;}
	.st38{fill:url(#SVGID_44_);}
	.st39{fill:none;stroke:#000000;stroke-width:6.3384;}
	.st40{fill:none;stroke:#000000;stroke-width:3.1692;}
	.st41{fill:#48494B;}
	.st42{fill:#C1986C;}
	.st43{fill:url(#SVGID_63_);}
	.st44{fill:url(#SVGID_64_);}
	.st45{fill:url(#SVGID_65_);}
	.st46{fill:url(#SVGID_66_);}
	.st47{fill:url(#SVGID_67_);}
	.st48{fill:#4D4E4E;}
	.st49{fill:#27B373;}
	.st50{fill:#5DC4CD;}
	.st51{fill:#1E8756;}
	.st52{fill:#3D1152;}
	.st53{fill:#922C48;}
	.st54{fill-rule:evenodd;clip-rule:evenodd;fill:#922C48;}
	.st55{fill:#404041;}
	.st56{fill:#EC1C24;}
	.st57{fill:#373A36;}
	.st58{fill:#808184;}
	.st59{fill:#262261;}
	.st60{fill:#6FCBDC;}
	.st61{fill:#2F3436;}
	.st62{fill:#5F97D0;}
	.st63{fill:#132428;}
	.st64{fill:#85C041;}
	.st65{fill:#677784;}
	.st66{fill:url(#SVGID_68_);}
	.st67{opacity:0.2;clip-path:url(#SVGID_70_);}
	.st68{fill:#FFFEFA;}
	.st69{opacity:0.1;}
	.st70{fill:url(#SVGID_71_);}
	.st71{opacity:0.3;}
	.st72{opacity:0.08;}
	.st73{opacity:0.1;fill:url(#Wordmark_1_);}
	.st74{fill:url(#SVGID_104_);}
	.st75{opacity:0.6;fill:url(#SVGID_107_);}
	.st76{opacity:0.4;}
	.st77{fill:url(#SVGID_110_);}
	.st78{opacity:0.6;fill:url(#SVGID_113_);}
	.st79{fill:url(#SVGID_116_);}
	.st80{opacity:0.6;fill:url(#SVGID_119_);}
	.st81{fill:url(#SVGID_122_);}
	.st82{opacity:0.6;fill:url(#SVGID_125_);}
	.st83{fill:url(#SVGID_128_);}
	.st84{opacity:0.6;fill:url(#SVGID_131_);}
	.st85{fill:#221F1F;}
	.st86{fill:none;}
	.st87{fill:#00416B;}
	.st88{opacity:0.8;fill:url(#XMLID_323_);}
	.st89{fill:#4197CB;}
	.st90{fill:#003E52;}
	.st91{fill:#3F96B4;}
	.st92{fill:#B9DBE5;}
	.st93{opacity:0.3;fill:#231F20;}
	.st94{opacity:0.3;fill:#FFFFFF;}
	.st95{fill:#050013;}
	.st96{fill:#E87200;}
	.st97{fill:#FCB813;}
	.st98{fill:#3D3935;}
	.st99{fill:#FFB600;}
	.st100{fill:#FCB814;}
	.st101{fill:#F48120;}
	.st102{fill:#EF4E25;}
	.st103{fill:#ED3024;}
	.st104{fill:#E0592A;}
	.st105{fill:#00ADBB;}
	.st106{fill:#00829B;}
	.st107{fill:#93D500;}
	.st108{fill:#4D5A31;}
	.st109{fill:#6BA43A;}
	.st110{fill:#424143;}
	.st111{fill-rule:evenodd;clip-rule:evenodd;fill:#C7E6B4;}
	.st112{fill-rule:evenodd;clip-rule:evenodd;fill:#5A9891;}
	.st113{fill-rule:evenodd;clip-rule:evenodd;fill:#127870;}
	.st114{fill-rule:evenodd;clip-rule:evenodd;fill:#5CCFD5;}
	.st115{fill-rule:evenodd;clip-rule:evenodd;fill:#ACD5CD;}
	.st116{fill-rule:evenodd;clip-rule:evenodd;fill:#B5ECC9;}
	.st117{fill-rule:evenodd;clip-rule:evenodd;fill:#A1D683;}
	.st118{fill-rule:evenodd;clip-rule:evenodd;fill:#DEF0D3;}
	.st119{fill-rule:evenodd;clip-rule:evenodd;fill:#91B9B4;}
	.st120{fill-rule:evenodd;clip-rule:evenodd;fill:#006860;}
	.st121{fill-rule:evenodd;clip-rule:evenodd;fill:#00ADBB;}
	.st122{fill-rule:evenodd;clip-rule:evenodd;fill:#B4E7E9;}
	.st123{fill-rule:evenodd;clip-rule:evenodd;fill:#007565;}
	.st124{fill-rule:evenodd;clip-rule:evenodd;fill:#00CE7C;}
	.st125{fill-rule:evenodd;clip-rule:evenodd;fill:#5FD896;}
	.st126{fill:#007DA5;}
	.st127{fill:#313032;}
	.st128{fill:#24272A;}
	.st129{fill:#00AFAA;}
	.st130{fill:#66C9BA;}
	.st131{fill:#0069A7;}
	.st132{fill:#002F87;}
	.st133{fill:#8BC53F;}
	.st134{fill:#1A1A1A;}
	.st135{fill:#0095D6;}
	.st136{fill:#003F5F;}
	.st137{fill:#2D317C;}
	.st138{fill:#41BFBF;}
	.st139{fill:#293C97;}
	.st140{fill:#52C2BD;}
	.st141{fill:url(#SVGID_134_);}
	.st142{fill:url(#SVGID_135_);}
	.st143{fill:url(#SVGID_136_);}
	.st144{fill:#0DBEEA;}
	.st145{fill:#097EC2;}
	.st146{fill:#133C63;}
	.st147{fill:#3B91CF;}
	.st148{fill:#C8DEE8;}
	.st149{fill:#629BBA;}
	.st150{fill:#F8BE19;}
	.st151{fill:url(#SVGID_137_);}
	.st152{fill:url(#SVGID_138_);}
	.st153{fill:url(#SVGID_139_);}
	.st154{fill:#00233B;}
	.st155{fill:url(#SVGID_140_);}
	.st156{fill:url(#SVGID_141_);}
	.st157{fill:url(#SVGID_142_);}
	.st158{fill:url(#SVGID_143_);}
	.st159{fill:url(#SVGID_144_);}
	.st160{fill:url(#SVGID_145_);}
	.st161{fill:url(#SVGID_146_);}
	.st162{fill:url(#SVGID_147_);}
	.st163{fill:url(#SVGID_148_);}
	.st164{fill:url(#SVGID_149_);}
	.st165{fill:url(#SVGID_150_);}
	.st166{fill:url(#SVGID_151_);}
	.st167{fill:url(#SVGID_152_);}
	.st168{fill:url(#SVGID_153_);}
	.st169{fill:url(#SVGID_154_);}
	.st170{fill:url(#SVGID_155_);}
	.st171{fill:url(#SVGID_156_);}
	.st172{fill:url(#SVGID_157_);}
	.st173{fill:url(#SVGID_158_);}
	.st174{fill:url(#SVGID_159_);}
	.st175{fill:url(#SVGID_160_);}
	.st176{fill:url(#SVGID_161_);}
	.st177{fill:url(#SVGID_162_);}
	.st178{fill:url(#SVGID_163_);}
	.st179{fill:url(#SVGID_164_);}
	.st180{fill:url(#SVGID_165_);}
	.st181{fill:url(#SVGID_166_);}
	.st182{fill:url(#SVGID_167_);}
	.st183{fill:url(#SVGID_168_);}
	.st184{fill:url(#SVGID_169_);}
	.st185{fill:url(#SVGID_170_);}
	.st186{fill:url(#SVGID_171_);}
	.st187{fill:url(#SVGID_172_);}
	.st188{fill:url(#SVGID_173_);}
	.st189{fill:url(#SVGID_174_);}
	.st190{fill:url(#SVGID_175_);}
	.st191{fill:url(#SVGID_176_);}
	.st192{fill:url(#SVGID_177_);}
	.st193{fill:url(#SVGID_178_);}
	.st194{fill:#C31230;}
	.st195{fill:#807F82;}
	.st196{fill-rule:evenodd;clip-rule:evenodd;fill:#C31230;}
	.st197{fill-rule:evenodd;clip-rule:evenodd;fill:#807F82;}
	.st198{fill:#2D2D2D;}
	.st199{display:none;fill:#2D2D2D;}
	.st200{fill:#D11F3C;}
	.st201{fill:#E42C4C;stroke:#E42C4C;stroke-width:1.0503;stroke-miterlimit:10;}
	.st202{display:none;fill:#231F20;}
	.st203{display:none;fill:#FFFFFF;}
	.st204{fill:#FF7F30;}
	.st205{opacity:0.3;fill:#FF7F30;}
	.st206{opacity:0.6;fill:#FF7F30;}
	.st207{opacity:0.7;fill:#FF7F30;}
	.st208{fill:#221C35;}
	.st209{fill:#1B98D5;}
	.st210{fill:#173963;}
	.st211{fill:#009ADE;}
	.st212{fill:#003764;}
	.st213{fill:#2A7DE1;}
	.st214{opacity:0.4;clip-path:url(#XMLID_324_);fill:#221F1F;}
	.st215{fill:#002A3A;}
	.st216{fill:#0033A1;}
	.st217{fill:url(#SVGID_179_);}
	.st218{fill:url(#SVGID_180_);}
	.st219{fill:url(#SVGID_181_);}
	.st220{fill:url(#SVGID_182_);}
	.st221{fill:#007EC4;}
	.st222{fill-rule:evenodd;clip-rule:evenodd;fill:url(#SVGID_183_);}
	.st223{fill-rule:evenodd;clip-rule:evenodd;fill:#E6E7E8;}
	.st224{fill:#009345;}
	.st225{fill:#BBBCB8;}
	.st226{fill:#72C0EB;}
	.st227{fill:#939598;}
	.st228{fill-rule:evenodd;clip-rule:evenodd;fill:#2CB8EB;}
	.st229{fill:#2CB8EB;}
	.st230{fill:#81B83A;}
	.st231{fill-rule:evenodd;clip-rule:evenodd;fill:#81B83A;}
	.st232{enable-background:new    ;}
	.st233{fill:#FF6F3E;}
	.st234{fill:#12143D;}
	.st235{fill:url(#SVGID_184_);}
	.st236{fill:url(#SVGID_185_);}
	.st237{fill:url(#SVGID_186_);}
	.st238{fill:url(#SVGID_187_);}
	.st239{fill:url(#SVGID_188_);}
	.st240{fill:url(#SVGID_189_);}
	.st241{fill:url(#SVGID_190_);}
	.st242{fill:url(#SVGID_191_);}
	.st243{fill:url(#SVGID_192_);}
	.st244{fill:#7C51A0;}
	.st245{fill:#9F66A9;}
	.st246{fill:#9F80B9;}
	.st247{fill:url(#SVGID_193_);}
	.st248{fill:url(#SVGID_194_);}
	.st249{fill:url(#SVGID_195_);}
	.st250{fill:url(#SVGID_196_);}
	.st251{fill:#2D3136;}
	.st252{fill:#76777A;}
	.st253{fill:#A7A8A9;}
	.st254{fill:#0082CA;}
	.st255{fill:#FFB259;}
	.st256{fill:#385CAD;}
	.st257{fill:#7BA0C4;}
	.st258{fill:#EBA900;}
	.st259{fill:#929497;}
	.st260{opacity:0.7;fill:#FFFFFF;}
	.st261{fill:#016BAF;}
	.st262{fill:#343432;}
	.st263{fill:#6D6E70;}
	.st264{fill:#F4B01B;}
	.st265{fill:#293271;}
	.st266{fill:#A1D33C;}
	.st267{fill:#212322;}
	.st268{fill:#0047BA;}
	.st269{fill:#969CDE;}
	.st270{fill:#047BC1;}
	.st271{fill:url(#SVGID_197_);}
	.st272{fill:url(#SVGID_198_);}
	.st273{fill:url(#SVGID_199_);}
	.st274{fill:url(#SVGID_200_);}
	.st275{fill:url(#SVGID_201_);}
	.st276{fill:url(#SVGID_202_);}
	.st277{fill:url(#SVGID_203_);}
	.st278{fill:#13517C;}
	.st279{fill:#0077A6;}
	.st280{fill:none;stroke:#231F20;stroke-width:5.9036;stroke-miterlimit:10;}
	.st281{fill:#00A94F;}
	.st282{fill:none;stroke:#231F20;stroke-width:3.2172;stroke-miterlimit:10;}
	.st283{fill:#59595C;}
	.st284{opacity:0.349;fill:#F9AE19;}
	.st285{opacity:0.349;fill:#E99F22;}
	.st286{opacity:0.349;fill:#E47D25;}
	.st287{fill:#F9AE19;}
	.st288{fill:#E99F22;}
	.st289{fill:#F09B20;}
	.st290{fill:#E47D25;}
	.st291{fill:#E89223;}
	.st292{opacity:0.651;fill:#F9AE19;}
	.st293{fill:#E68825;}
	.st294{opacity:0.651;fill:#E99F22;}
	.st295{fill:#EB8D23;}
	.st296{opacity:0.7725;fill:#EF9B21;}
	.st297{opacity:0.651;fill:#E47D25;}
	.st298{opacity:0.7725;fill:#EA9622;}
	.st299{fill:url(#SVGID_204_);}
	.st300{fill:#55575B;}
	.st301{fill:#EE424E;}
	.st302{fill:#34424B;}
</style>
<g>
	<g>
		<path class="st37" d="M159.6,193.35h28.25v3.57H159.6v22.22h-3.78V170h33.02v3.79H159.6V193.35z"/>
		<path class="st37" d="M270.59,194.61c-0.07,12.89-8.27,25.3-24.75,25.3c-16.47,0-24.75-12.48-24.75-25.44
			c0-13.18,8.2-25.24,24.75-25.24C262.38,169.23,270.65,181.36,270.59,194.61z M224.81,194.54c0.07,11.08,7.08,21.87,21.03,21.87
			c14.02,0,21.1-10.8,21.1-21.87c0-11.36-7.01-21.8-21.1-21.8C231.75,172.74,224.74,182.97,224.81,194.54z"/>
		<path class="st37" d="M341.68,170v30.49c0,25.65-37.57,25.72-37.57,0V170h3.71v30.49c0,21.1,30.14,21.03,30.14,0V170H341.68z"/>
		<path class="st37" d="M378.21,170l33.02,40.59V170h3.72v49.07h-1.47l-33.08-40.51v40.51h-3.79V170H378.21z"/>
		<path class="st37" d="M491.58,193.98c0.28,12.48-7.71,25.09-24.88,25.09c-5.54,0-11.08,0-16.61,0V170c5.54,0,11.08,0,16.61,0
			C483.31,170,491.3,181.92,491.58,193.98z M453.87,173.58v41.85h12.83c14.58,0,21.31-10.93,21.1-21.45
			c-0.21-10.23-6.94-20.4-21.1-20.4H453.87z"/>
		<path class="st37" d="M563.72,219.07l-5.4-12.05h-29.3l-5.33,12.05h-4.06L541.64,170h4.14l22.01,49.07H563.72z M556.85,203.51
			l-13.18-29.86l-13.18,29.86H556.85z"/>
		<path class="st37" d="M604.53,173.44H586.8v-3.36h39.25v3.36h-17.73v45.63h-3.78V173.44z"/>
		<path class="st37" d="M657.82,219.07V170h3.71v49.07H657.82z"/>
		<path class="st37" d="M745.73,194.61c-0.07,12.89-8.27,25.3-24.75,25.3s-24.74-12.48-24.74-25.44c0-13.18,8.2-25.24,24.74-25.24
			S745.8,181.36,745.73,194.61z M699.95,194.54c0.07,11.08,7.08,21.87,21.03,21.87c14.02,0,21.1-10.8,21.1-21.87
			c0-11.36-7.01-21.8-21.1-21.8C706.9,172.74,699.89,182.97,699.95,194.54z"/>
		<path class="st37" d="M780.93,170l33.02,40.59V170h3.72v49.07h-1.47l-33.09-40.51v40.51h-3.78V170H780.93z"/>
	</g>
	<g>
		<g>
			<path class="st37" d="M417.6,82.01V9.57h52.13v13.16h-38.45v19.79h36.37v12.64h-36.37v26.84H417.6z"/>
			<path class="st37" d="M650.01,9.57v41.56c0,21.45-13.16,32.44-31.4,32.44c-17.41,0-32.23-10.57-32.23-32.44V9.57h13.58v41.56
				c0,13.06,7.46,20,18.76,20c11.3,0,17.72-7.57,17.72-20V9.57H650.01z"/>
			<path class="st37" d="M724.06,9.36h13.68v72.64h-8.5v0.1L691.1,33.09v48.91h-13.68V9.47h11.09l35.55,44.98V9.36z"/>
			<path class="st37" d="M827.23,45.11c0.31,18.34-10.88,36.89-36.27,36.89c-8.91,0-19.59,0-28.5,0V9.47c8.91,0,19.59,0,28.5,0
				C815.83,9.47,826.92,27.19,827.23,45.11z M776.03,68.85h14.92c16.48,0,23.01-12.02,22.69-23.83
				c-0.31-11.3-6.94-22.59-22.69-22.59h-14.92V68.85z"/>
			<path class="st37" d="M913.71,82.01h-16.27L876.3,57.76h-13.16v24.25h-13.68V9.36c11.5,0,23.01,0.1,34.51,0.1
				c17.1,0.1,26.11,11.5,26.11,24.04c0,9.95-4.56,20-18.34,22.8l21.97,24.77V82.01z M863.14,22.21v23.21h20.83
				c8.7,0,12.44-5.8,12.44-11.61c0-5.8-3.83-11.61-12.44-11.61H863.14z"/>
			<path class="st37" d="M960.23,39.42l19.28-29.95h16.48v0.62l-28.91,41.97v29.95h-13.68V52.06l-27.88-41.97V9.47h16.27
				L960.23,39.42z"/>
		</g>
		<g>
			<path class="st37" d="M68.16,72.11c-7.3,7.3-17,10.95-26.6,10.95c-24.61,0-37.44-17.21-37.55-36.92
				C3.81,26.64,16.53,8.39,41.56,8.39c9.59,0,19.29,3.65,26.6,10.95l-3.86,3.34c-6.26-6.26-14.5-9.28-22.74-9.28
				c-21.28,0-32.23,15.02-32.13,32.54c0.21,17.1,11.06,31.92,32.13,31.92c8.24,0,16.58-3.13,22.84-9.28L68.16,72.11z"/>
			<path class="st37" d="M91.66,9.22v67.69h41.09v5.32H86.02V9.22H91.66z"/>
			<path class="st37" d="M221.85,45.83c-0.1,19.19-12.31,37.65-36.82,37.65s-36.82-18.57-36.82-37.86
				c0-19.61,12.2-37.55,36.82-37.55S221.95,26.12,221.85,45.83z M153.74,45.73c0.1,16.48,10.53,32.54,31.29,32.54
				c20.86,0,31.39-16.06,31.39-32.54c0-16.9-10.43-32.44-31.39-32.44S153.64,28.52,153.74,45.73z"/>
			<path class="st37" d="M299.06,9.22v45.37c0,38.17-55.9,38.28-55.9,0V9.22h5.53v45.37c0,31.39,44.85,31.29,44.85,0V9.22H299.06z"
				/>
			<path class="st37" d="M383.57,44.89c0.42,18.57-11.47,37.34-37.02,37.34c-8.24,0-16.48,0-24.72,0V9.22c8.24,0,16.48,0,24.72,0
				C371.26,9.22,383.15,26.95,383.57,44.89z M327.46,14.54v62.26h19.09c21.69,0,31.71-16.27,31.39-31.92
				c-0.31-15.23-10.32-30.35-31.39-30.35H327.46z"/>
		</g>
		<path class="st37" d="M515.02,84.94c0,0,2.29-8.68-7.66-19.88l-0.33-0.35c-4.19-4.97-6.51-11.28-6.51-17.76
			c0-15.22,12.4-27.61,27.64-27.61h0.64c15.24,0,27.64,12.38,27.64,27.61c0,6.48-2.31,12.79-6.5,17.76
			c-0.05,0.06-0.16,0.17-0.33,0.34c-8.84,8.85-7.67,19.89-7.67,19.89c16.14-5.57,27.05-20.74,27.14-37.77
			c0.12-21.29-17.07-39.43-38.3-40.45c-0.26-0.01-0.53-0.02-0.79-0.02c-0.32,0-1.52,0.02-1.52,0.02c-0.03,0-1.18-0.02-1.5-0.02
			c-0.26,0-0.53,0.01-0.79,0.02c-21.24,1.02-38.42,19.16-38.3,40.45C487.98,64.19,498.88,79.37,515.02,84.94z"/>
		<path class="st37" d="M567.18,116.97c0.7-0.29,1.51-0.53,2.41-0.71c0.84-0.18,1.78-0.3,2.8-0.34c0,0-0.04-0.32-0.11-0.78
			c-0.02-0.46-0.24-1.08-0.46-1.68c-0.11-0.3-0.21-0.6-0.31-0.87c-0.12-0.27-0.28-0.53-0.39-0.75c-0.24-0.43-0.4-0.71-0.4-0.71
			c-1.01-0.16-1.96-0.39-2.88-0.65c-0.94-0.26-1.82-0.57-2.6-0.89c-1.47-0.65-2.86-1.37-3.59-2.18l0,0
			c-0.88-0.78-1.05-1.55-1.02-2.24c0.05-0.34,0.21-0.68,0.48-0.99c0.25-0.3,0.58-0.58,1.04-0.82c0,0-0.35-0.2-0.87-0.49
			c-0.26-0.14-0.55-0.31-0.89-0.49c-0.35-0.17-0.73-0.35-1.1-0.52c-0.73-0.35-1.46-0.7-2.08-0.93c-0.59-0.24-0.98-0.39-0.98-0.39
			c-0.71,0.1-1.48,0.15-2.27,0.16c-0.81,0.02-1.64,0-2.45-0.06c-1.58-0.14-3.19-0.36-4.58-0.77c-0.72-0.19-1.34-0.4-1.87-0.65
			c-0.53-0.23-1.02-0.47-1.4-0.74c-0.74-0.53-1.24-1.07-1.23-1.62c0,0-0.45-0.07-1.11-0.18c-0.69-0.11-2.15-0.31-3.08-0.43
			c-0.02,0.16-0.12,0.3-0.15,0.56l-0.24,1.14c-0.48,2.28,0.84,4.59,3.07,5.24c5.47,1.59,9.61,4.22,10.81,7.44
			c2.42,6.51-7.73,12.88-23.17,12.88c-15.43,0-25.59-6.37-23.17-12.88c1.17-3.14,5.14-5.72,10.42-7.32c2.34-0.71,3.72-3.11,3.22-5.5
			l-0.33-1.55c-0.61,0.07-1.33,0.16-2.06,0.25c-0.92,0.1-1.79,0.26-2.46,0.37c-0.67,0.11-1.12,0.18-1.12,0.18
			c0.05,0.53-0.33,1.13-1.05,1.64c-0.38,0.26-0.79,0.53-1.31,0.77c-0.51,0.25-1.14,0.45-1.8,0.68l0,0c-0.68,0.21-1.45,0.37-2.2,0.51
			c-0.75,0.15-1.55,0.25-2.37,0.32c-1.64,0.13-3.28,0.16-4.78-0.02c0,0-0.1,0.04-0.27,0.11c-0.16,0.07-0.43,0.17-0.7,0.3
			c-0.55,0.26-1.28,0.61-2.03,0.97c-0.73,0.37-1.39,0.76-1.92,1.05c-0.26,0.15-0.48,0.27-0.63,0.36c-0.14,0.09-0.22,0.14-0.22,0.14
			c1.03,0.48,1.6,1.13,1.72,1.81c0.25,0.73-0.1,1.49-0.77,2.31c-0.39,0.42-0.91,0.81-1.45,1.19c-0.57,0.39-1.28,0.76-2.07,1.1
			c-1.49,0.7-3.41,1.32-5.48,1.7c0,0-0.18,0.29-0.32,0.73c-0.15,0.44-0.36,1.05-0.58,1.66c-0.09,0.61-0.18,1.24-0.24,1.71
			c-0.09,0.48-0.05,0.8-0.05,0.8c2.14,0.03,4.04,0.38,5.46,0.95c1.65,0.54,2.65,1.36,3.42,2.36c0.61,1.08,0.85,2.2,0.31,3.5
			c-0.37,1.27-1.41,2.68-3.1,3.97c0,0,0.09,0.08,0.26,0.23c0.19,0.13,0.46,0.33,0.78,0.56c0.67,0.46,1.52,1.11,2.51,1.7
			c1.05,0.57,2.11,1.16,2.91,1.6c0.4,0.23,0.81,0.37,1.06,0.49c0.26,0.11,0.41,0.18,0.41,0.18c2.39-1.02,4.94-1.55,7.5-1.82
			c1.28-0.13,2.53-0.17,3.73-0.09c1.22,0.06,2.47,0.16,3.63,0.43l0,0c1.15,0.31,2.28,0.59,3.27,1.03c1,0.43,1.9,1,2.74,1.55
			c1.68,1.15,2.98,2.78,3.54,4.48c0,0,0.87,0.03,2.17,0.08c1.3,0.03,3.04,0.15,4.78,0.06c1.73-0.06,3.48-0.08,4.76-0.17
			c1.28-0.12,2.12-0.2,2.12-0.2c0.18-0.89,0.57-1.73,1.11-2.49c0.27-0.37,0.57-0.73,0.91-1.06c0.33-0.34,0.67-0.69,1.06-1
			c0.75-0.62,1.62-1.16,2.59-1.58c0.95-0.45,1.96-0.87,3.13-1.13c1.19-0.24,2.31-0.47,3.53-0.56c1.2-0.1,2.51-0.04,3.72,0.01
			c2.47,0.14,5.21,0.71,7.6,1.61c0,0,0.53-0.3,1.31-0.74c0.76-0.45,1.84-0.99,2.68-1.65c0.85-0.63,1.75-1.23,2.29-1.73
			c0.52-0.49,0.87-0.82,0.87-0.82c-1.78-1.22-2.8-2.53-3.45-3.83c-0.3-0.63-0.39-1.21-0.41-1.79c-0.04-0.58,0.08-1.13,0.4-1.64
			C564.66,118.34,565.84,117.58,567.18,116.97z"/>
		<linearGradient id="SVGID_2_" gradientUnits="userSpaceOnUse" x1="534.9991" y1="12.7873" x2="516.4367" y2="142.7246">
			<stop  offset="0" style="stop-color:#42B4E7"/>
			<stop  offset="0.1291" style="stop-color:#10B0E6"/>
			<stop  offset="1" style="stop-color:#3B5BA8"/>
		</linearGradient>
		<path style="fill:url(#SVGID_2_);" d="M542.41,59.92c3.97-3.23,6.43-7.81,6.38-12.89c-0.08-9.67-9.21-17.45-20.39-17.45
			s-20.31,7.78-20.39,17.45c-0.04,5.07,2.41,9.65,6.38,12.89c4.91,4,8.94,12.09,9.17,20.93c0.26,9.8-0.41,21.15-0.82,26.93
			c-5.25,0.75-8.94,2.5-8.94,4.55c0,2.72,6.53,5.86,14.59,5.86c8.06,0,14.59-3.14,14.59-5.86c0-2.05-3.69-3.8-8.94-4.55
			c-0.41-5.77-1.08-17.12-0.82-26.92C533.47,72.01,537.5,63.92,542.41,59.92z"/>
	</g>
</g>
</svg>
