<?xml version="1.0" encoding="utf-8"?>
<!-- Generator: Adobe Illustrator 25.4.1, SVG Export Plug-In . SVG Version: 6.00 Build 0)  -->
<svg version="1.1" id="cloud_fix_logo--dark" xmlns="http://www.w3.org/2000/svg" xmlns:xlink="http://www.w3.org/1999/xlink"
	 x="0px" y="0px" viewBox="0 0 200 33" style="enable-background:new 0 0 200 33;" xml:space="preserve">
<style type="text/css">
	.st0{fill:url(#Path_52_00000047054348281909439530000002991533823756011658_);}
	.st1{fill:#1377E1;}
	.st2{fill:url(#Path_61_00000065785170734192709720000005118161053567819711_);}
</style>
<linearGradient id="Path_52_00000073685816276898272660000007828962439880151737_" gradientUnits="userSpaceOnUse" x1="-832.8234" y1="540.9697" x2="-832.1691" y2="540.2134" gradientTransform="matrix(32.9973 0 0 -33 27485.6504 17858.0039)">
	<stop  offset="0" style="stop-color:#03E5B7"/>
	<stop  offset="1" style="stop-color:#037ADE"/>
</linearGradient>
<path id="Path_52" style="fill:url(#Path_52_00000073685816276898272660000007828962439880151737_);" d="M24.4,16.8
	c-0.2,4.4-3.8,7.8-8.2,7.6c-4.4-0.2-7.8-3.8-7.6-8.2c0.2-4.2,3.6-7.6,7.9-7.6V0C7.4,0,0,7.4,0,16.5S7.4,33,16.5,33
	c9,0,16.3-7.2,16.5-16.2v-0.3h-8.6C24.4,16.6,24.4,16.7,24.4,16.8z"/>
<path id="Path_53" class="st1" d="M63.5,20.5c0-0.2,0.1-0.5,0.3-0.6c0.2-0.1,0.4-0.2,0.6-0.2h2.5c0.2,0,0.4,0.1,0.6,0.2
	c0.2,0.2,0.3,0.4,0.2,0.6c-0.1,0.9-0.3,1.8-0.6,2.6c-0.4,0.9-0.9,1.7-1.7,2.3c-0.8,0.7-1.8,1.3-2.8,1.7c-1.3,0.5-2.7,0.7-4.1,0.7
	c-1.3,0-2.6-0.2-3.8-0.6c-2.1-0.8-3.8-2.4-4.6-4.5c-0.4-1.1-0.7-2.3-0.8-3.5c0-0.8-0.1-1.7-0.1-2.6c0-1,0-1.8,0.1-2.6
	c0.1-1.2,0.3-2.4,0.8-3.5c0.8-2.1,2.5-3.8,4.6-4.5c1.2-0.5,2.5-0.7,3.8-0.6c1.4,0,2.8,0.2,4.1,0.7c1,0.4,2,1,2.8,1.7
	c0.7,0.7,1.3,1.4,1.7,2.3c0.3,0.8,0.6,1.7,0.6,2.6c0,0.2-0.1,0.5-0.2,0.6c-0.2,0.2-0.4,0.2-0.6,0.2h-2.5c-0.2,0-0.4-0.1-0.6-0.2
	c-0.2-0.1-0.3-0.4-0.3-0.6c-0.1-0.4-0.2-0.8-0.4-1.2c-0.2-0.4-0.6-0.8-0.9-1.1c-0.4-0.3-1-0.6-1.5-0.8c-0.7-0.2-1.4-0.3-2.1-0.3
	c-0.7,0-1.4,0.1-2.1,0.4c-0.6,0.2-1.1,0.6-1.5,1c-0.4,0.4-0.7,0.9-0.9,1.5c-0.2,0.6-0.4,1.2-0.4,1.8c0,0.8-0.1,1.7-0.1,2.6
	s0,1.8,0.1,2.6c0,0.6,0.2,1.3,0.4,1.9c0.2,0.6,0.5,1.1,0.9,1.5c0.4,0.4,0.9,0.8,1.5,1c0.7,0.3,1.4,0.4,2.1,0.4
	c0.7,0,1.4-0.1,2.1-0.3c0.5-0.2,1-0.4,1.5-0.8c0.4-0.3,0.7-0.7,0.9-1.1C63.2,21.4,63.4,20.9,63.5,20.5z"/>
<path id="Path_54" class="st1" d="M85.8,23.6c0.2,0,0.4,0.1,0.6,0.3c0.2,0.2,0.3,0.4,0.2,0.6v2.2c0,0.2-0.1,0.4-0.2,0.6
	c-0.2,0.2-0.4,0.3-0.6,0.2H72.2c-0.2,0-0.4-0.1-0.6-0.2c-0.2-0.2-0.3-0.4-0.2-0.6V6.4c0-0.2,0.1-0.4,0.2-0.6
	c0.2-0.2,0.4-0.3,0.6-0.2h2.5c0.2,0,0.4,0.1,0.6,0.3c0.2,0.2,0.3,0.4,0.2,0.6v17.2H85.8z"/>
<path id="Path_55" class="st1" d="M88.5,13.7c0.1-1.1,0.3-2.2,0.7-3.3c0.4-1,0.9-1.9,1.7-2.7c0.8-0.8,1.7-1.4,2.8-1.8
	c2.6-0.9,5.3-0.9,7.9,0c1.1,0.4,2,1,2.8,1.8c0.7,0.8,1.3,1.7,1.7,2.7c0.4,1.1,0.6,2.2,0.7,3.3c0,0.4,0,0.8,0,1.3s0,1,0,1.5
	s0,1,0,1.5s0,0.9,0,1.3c-0.1,1.1-0.3,2.2-0.7,3.3c-0.4,1-0.9,1.9-1.7,2.7c-0.8,0.8-1.8,1.4-2.8,1.8c-2.6,0.9-5.4,0.9-7.9,0
	c-1-0.4-2-1-2.8-1.8c-0.7-0.8-1.3-1.7-1.7-2.7c-0.4-1.1-0.6-2.2-0.7-3.3c0-0.4,0-0.8,0-1.3c0-0.5,0-1,0-1.5c0-0.5,0-1,0-1.5
	C88.4,14.6,88.5,14.1,88.5,13.7z M102.5,13.9c0.1-2.5-1.9-4.7-4.4-4.7c-0.2,0-0.3,0-0.5,0c-1.3-0.1-2.5,0.4-3.5,1.2
	c-0.9,0.9-1.4,2.2-1.4,3.5c0,0.8-0.1,1.7-0.1,2.7c0,1,0,1.9,0.1,2.7c0,2.7,2.2,4.9,4.9,4.9c2.7,0,4.9-2.2,4.9-4.9
	c0-0.8,0.1-1.7,0.1-2.7S102.6,14.7,102.5,13.9L102.5,13.9z"/>
<path id="Path_56" class="st1" d="M127.6,5.5c0.2,0,0.4,0.1,0.6,0.2c0.2,0.2,0.2,0.4,0.2,0.6v12.9c0,1.2-0.2,2.4-0.6,3.5
	c-0.3,1-0.9,1.9-1.7,2.7c-0.8,0.8-1.7,1.4-2.8,1.8c-2.5,0.8-5.2,0.8-7.8,0c-1-0.4-2-1-2.8-1.7c-0.8-0.8-1.3-1.7-1.7-2.7
	c-0.4-1.1-0.6-2.3-0.5-3.5V6.4c0-0.2,0.1-0.4,0.2-0.6c0.2-0.2,0.4-0.3,0.6-0.2h2.5c0.2,0,0.4,0.1,0.6,0.2c0.2,0.2,0.3,0.4,0.2,0.6
	v12.7c0,0.7,0.1,1.5,0.3,2.2c0.2,0.6,0.5,1.1,1,1.5c0.4,0.4,0.9,0.7,1.5,0.8c0.6,0.2,1.3,0.3,1.9,0.3c0.6,0,1.3-0.1,1.9-0.3
	c0.6-0.2,1.1-0.5,1.5-0.8c0.4-0.4,0.8-0.9,1-1.5c0.3-0.7,0.4-1.4,0.4-2.2V6.4c0-0.2,0.1-0.4,0.3-0.6c0.2-0.2,0.4-0.3,0.6-0.2
	L127.6,5.5z"/>
<path id="Path_57" class="st1" d="M141.6,5.5c1.4,0,2.7,0.2,4,0.6c2.1,0.7,3.8,2.4,4.6,4.5c0.4,1.1,0.7,2.3,0.7,3.6
	c0.1,1.5,0.1,3.1,0,4.6c-0.1,1.2-0.3,2.4-0.7,3.6c-0.4,1-1,2-1.7,2.7c-0.8,0.8-1.7,1.4-2.8,1.7c-1.3,0.4-2.6,0.6-3.9,0.6H134
	c-0.2,0-0.4-0.1-0.6-0.2c-0.2-0.2-0.3-0.4-0.2-0.6V6.3c0-0.2,0.1-0.4,0.2-0.6c0.2-0.2,0.4-0.3,0.6-0.2L141.6,5.5z M146.7,14.2
	c0-0.6-0.2-1.3-0.4-1.9c-0.4-1.2-1.4-2.1-2.6-2.5c-0.7-0.3-1.5-0.4-2.3-0.4h-4.2v14.1h4.3c0.7,0,1.5-0.1,2.2-0.4
	c0.6-0.2,1.1-0.6,1.6-1c0.4-0.4,0.7-0.9,0.9-1.5c0.2-0.6,0.4-1.2,0.4-1.9C146.8,17.3,146.8,15.7,146.7,14.2L146.7,14.2z"/>
<path id="Path_58" class="st1" d="M169,5.5c0.2,0,0.4,0.1,0.6,0.2c0.2,0.2,0.2,0.4,0.2,0.6v2.2c0,0.2-0.1,0.4-0.2,0.6
	c-0.2,0.2-0.4,0.3-0.6,0.3h-9.9v6.1h9.3c0.2,0,0.4,0.1,0.6,0.2c0.2,0.2,0.3,0.4,0.2,0.6v2.2c0,0.2-0.1,0.4-0.2,0.6
	c-0.2,0.2-0.4,0.3-0.6,0.3h-9.3v7.2c0,0.2-0.1,0.4-0.3,0.6c-0.2,0.2-0.4,0.3-0.6,0.2h-2.5c-0.5,0-0.8-0.4-0.8-0.8V6.4
	c0-0.2,0.1-0.4,0.2-0.6c0.2-0.2,0.4-0.3,0.6-0.2L169,5.5z"/>
<path id="Path_59" class="st1" d="M174.3,27.5c-0.2,0-0.4-0.1-0.6-0.2c-0.2-0.2-0.3-0.4-0.2-0.6V6.4c0-0.2,0.1-0.4,0.2-0.6
	c0.2-0.2,0.4-0.3,0.6-0.2h2.5c0.2,0,0.4,0.1,0.6,0.2c0.2,0.2,0.3,0.4,0.2,0.6v20.3c0,0.2-0.1,0.4-0.2,0.6c-0.2,0.2-0.4,0.3-0.6,0.2
	L174.3,27.5z"/>
<path id="Path_60" class="st1" d="M196.6,27.5c-0.3,0-0.7-0.1-0.9-0.3c-0.2-0.2-0.3-0.4-0.4-0.5l-4.9-6.9l-4.9,6.9
	c-0.1,0.1-0.2,0.3-0.4,0.5c-0.2,0.2-0.6,0.3-0.9,0.3h-2.6c-0.2,0-0.4-0.1-0.6-0.2c-0.2-0.2-0.3-0.4-0.2-0.6c0-0.1,0-0.2,0.1-0.3
	l7.1-10l-6.8-9.6C181,6.6,181,6.5,181,6.4c0-0.2,0.1-0.4,0.2-0.6c0.2-0.2,0.4-0.3,0.6-0.2h2.6c0.3,0,0.7,0.1,0.9,0.3
	c0.2,0.2,0.3,0.4,0.4,0.5l4.7,6.6l4.6-6.6c0.1-0.1,0.2-0.3,0.4-0.5c0.2-0.2,0.6-0.3,0.9-0.3h2.6c0.2,0,0.4,0.1,0.6,0.2
	c0.2,0.2,0.3,0.4,0.2,0.6c0,0.1,0,0.2-0.1,0.3l-6.8,9.7l7,9.9c0.1,0.1,0.1,0.2,0.1,0.3c0,0.5-0.4,0.8-0.8,0.8L196.6,27.5z"/>
<linearGradient id="Path_61_00000129165485990566324390000016862140634281087620_" gradientUnits="userSpaceOnUse" x1="-799.0762" y1="520.5814" x2="-798.2632" y2="519.9543" gradientTransform="matrix(14.315 0 0 -14.32 11456.2607 7453.2397)">
	<stop  offset="0" style="stop-color:#03E5B7"/>
	<stop  offset="1" style="stop-color:#037ADE"/>
</linearGradient>
<path id="Path_61" style="fill:url(#Path_61_00000129165485990566324390000016862140634281087620_);" d="M33,0H18.7v8.6h5.7v5.7H33
	L33,0z"/>
</svg>
