<svg width="3105" height="3105" viewBox="0 0 3105 3105" fill="none" xmlns="http://www.w3.org/2000/svg">
<rect width="3105" height="3105" fill="white"/>
<path fill-rule="evenodd" clip-rule="evenodd" d="M2489.41 2110.07L469.331 2119C469.331 2119 395.503 2107.05 358.589 2101.09C175.407 2047.34 59.6759 1863.64 88.3483 1676.36C117.845 1484 291.397 1342.51 487.072 1354.46C484.209 1329.81 455.754 1043.68 673.117 853.723C842.506 705.709 1091.62 676.902 1302.17 782.189C1493.77 448.643 1889.72 328.516 2179.31 473.684C2401.09 584.793 2538.47 840.414 2524.85 1117.49C2803.68 1116.22 3020.83 1352.58 3021 1631.66C3021.3 2136.91 2489.41 2110.07 2489.41 2110.07ZM2181.73 657.499C2181.73 683.903 2163.11 705.958 2138.28 711.245V923.429C2138.28 925.657 2137.63 927.837 2136.42 929.703L1997.6 1142.94V1759.97L2140.56 1552.38V1289.34C2115.73 1284.05 2097.11 1261.99 2097.11 1235.59C2097.11 1205.24 2121.71 1180.64 2152.06 1180.64C2182.41 1180.64 2207.01 1205.24 2207.01 1235.59C2207.01 1261.99 2188.39 1284.05 2163.56 1289.34V1458.98L2306.71 1301.88C2298.02 1292.16 2292.73 1279.33 2292.73 1265.26C2292.73 1234.91 2317.34 1210.31 2347.69 1210.31C2378.03 1210.31 2402.64 1234.91 2402.64 1265.26C2402.64 1295.61 2378.03 1320.21 2347.69 1320.21C2339.75 1320.21 2332.21 1318.53 2325.4 1315.51L2169.35 1486.77C2167.74 1488.53 2165.71 1489.68 2163.56 1490.2V1555.96C2163.56 1558.29 2162.85 1560.56 2161.53 1562.48L1997.6 1800.52V1986.23C1997.6 1992.58 1992.46 1997.73 1986.1 1997.73C1979.75 1997.73 1974.6 1992.58 1974.6 1986.23V1801.26C1973.88 1799 1973.86 1796.53 1974.6 1794.22V1550.65C1972.74 1550.2 1970.97 1549.28 1969.47 1547.88L1602.94 1206.08C1600.61 1203.91 1599.28 1200.86 1599.28 1197.67V864.666C1599.28 861.691 1600.44 858.832 1602.5 856.689L1767.81 685.02C1758.69 675.21 1753.11 662.06 1753.11 647.607C1753.11 617.258 1777.71 592.656 1808.06 592.656C1838.41 592.656 1863.01 617.258 1863.01 647.607C1863.01 677.956 1838.41 702.559 1808.06 702.559C1800.57 702.559 1793.42 701.059 1786.91 698.342L1622.28 869.303V1192.67L1765.79 1326.49V1088.21C1740.96 1082.93 1722.34 1060.87 1722.34 1034.47C1722.34 1004.12 1746.94 979.515 1777.29 979.515C1807.64 979.515 1832.24 1004.12 1832.24 1034.47C1832.24 1060.87 1813.62 1082.93 1788.79 1088.21V1347.69L1788.79 1347.77C1788.79 1347.83 1788.79 1347.88 1788.79 1347.94L1974.6 1521.22V1139.52C1974.6 1137.3 1975.25 1135.12 1976.47 1133.25L2115.28 920.016V711.245C2090.45 705.958 2071.83 683.903 2071.83 657.499C2071.83 627.15 2096.43 602.547 2126.78 602.547C2157.13 602.547 2181.73 627.15 2181.73 657.499ZM2447.26 1562.11C2453.81 1564.87 2461.02 1566.4 2468.58 1566.4C2498.93 1566.4 2523.53 1541.8 2523.53 1511.45C2523.53 1481.1 2498.93 1456.49 2468.58 1456.49C2438.23 1456.49 2413.63 1481.1 2413.63 1511.45C2413.63 1525.93 2419.23 1539.11 2428.39 1548.93L2217.61 1828.4C2216.11 1830.4 2215.29 1832.83 2215.29 1835.33V1986.23C2215.29 1992.58 2220.44 1997.73 2226.79 1997.73C2233.14 1997.73 2238.29 1992.58 2238.29 1986.23V1839.18L2447.26 1562.11ZM2831.26 1402.64C2831.26 1429.05 2812.64 1451.1 2787.81 1456.39V1681.87C2787.81 1685.19 2786.37 1688.36 2783.86 1690.54L2434.37 1994.9C2429.58 1999.07 2422.31 1998.57 2418.14 1993.78C2413.97 1988.99 2414.47 1981.73 2419.26 1977.56L2617.46 1804.95C2616.13 1803.07 2615.34 1800.77 2615.34 1798.29V1419.02C2590.51 1413.73 2571.89 1391.68 2571.89 1365.28C2571.89 1334.93 2596.49 1310.32 2626.84 1310.32C2657.19 1310.32 2681.79 1334.93 2681.79 1365.28C2681.79 1391.68 2663.17 1413.73 2638.34 1419.02V1786.77L2764.81 1676.63V1456.39C2739.98 1451.1 2721.36 1429.05 2721.36 1402.64C2721.36 1372.29 2745.96 1347.69 2776.31 1347.69C2806.66 1347.69 2831.26 1372.29 2831.26 1402.64ZM1274.52 1088.21C1249.69 1082.93 1231.07 1060.87 1231.07 1034.47C1231.07 1004.12 1255.67 979.515 1286.02 979.515C1316.37 979.515 1340.97 1004.12 1340.97 1034.47C1340.97 1060.87 1322.35 1082.93 1297.52 1088.21V1203.47L1449.27 1363.02V1146.46C1424.44 1141.17 1405.82 1119.12 1405.82 1092.72C1405.82 1062.37 1430.42 1037.76 1460.77 1037.76C1491.12 1037.76 1515.72 1062.37 1515.72 1092.72C1515.72 1119.12 1497.09 1141.17 1472.27 1146.46V1387.2L1719.68 1647.33C1721.71 1649.47 1722.85 1652.31 1722.85 1655.26V1986.23C1722.85 1992.58 1717.7 1997.73 1711.35 1997.73C1704.99 1997.73 1699.85 1992.58 1699.85 1986.23V1883.66C1698.24 1883.27 1696.7 1882.53 1695.33 1881.43L1478.82 1706.68C1476.12 1704.5 1474.54 1701.21 1474.54 1697.73V1635.53C1449.72 1630.24 1431.09 1608.19 1431.09 1581.78C1431.09 1551.44 1455.7 1526.83 1486.04 1526.83C1516.39 1526.83 1541 1551.44 1541 1581.78C1541 1608.19 1522.37 1630.24 1497.54 1635.53V1692.23L1699.85 1855.51V1659.85L1277.69 1215.99C1275.65 1213.85 1274.52 1211.02 1274.52 1208.07V1088.21ZM681.553 1089.42C681.553 1115.82 700.177 1137.88 725.005 1143.16V1363.53C725.005 1367.64 727.195 1371.43 730.751 1373.49L1032.73 1548V1690.64L859.366 1640.01C860.236 1636.13 860.695 1632.09 860.695 1627.94C860.695 1597.59 836.093 1572.99 805.744 1572.99C775.395 1572.99 750.792 1597.59 750.792 1627.94C750.792 1658.29 775.395 1682.9 805.744 1682.9C823.635 1682.9 839.529 1674.35 849.563 1661.11L1032.73 1714.6V1772.35C1032.73 1772.39 1032.73 1772.43 1032.73 1772.48C1032.73 1772.52 1032.73 1772.56 1032.73 1772.6V1840.65H616.121V1711.36C640.949 1706.08 659.573 1684.02 659.573 1657.62C659.573 1627.27 634.97 1602.67 604.621 1602.67C574.272 1602.67 549.67 1627.27 549.67 1657.62C549.67 1684.02 568.293 1706.08 593.121 1711.36V1840.65H477.133C470.782 1840.65 465.633 1845.79 465.633 1852.15C465.633 1858.5 470.782 1863.65 477.133 1863.65H1032.73V1986.23C1032.73 1992.58 1037.88 1997.73 1044.23 1997.73C1050.59 1997.73 1055.73 1992.58 1055.73 1986.23V1778.22L1251.16 1631.65C1254.05 1629.48 1255.76 1626.07 1255.76 1622.45V1481.67C1280.59 1476.38 1299.21 1454.32 1299.21 1427.92C1299.21 1397.57 1274.61 1372.97 1244.26 1372.97C1213.91 1372.97 1189.31 1397.57 1189.31 1427.92C1189.31 1454.32 1207.93 1476.38 1232.76 1481.67V1616.7L1055.73 1749.47V1706.23C1055.74 1706.06 1055.74 1705.88 1055.73 1705.71V1541.36C1055.73 1537.25 1053.54 1533.46 1049.99 1531.4L852.108 1417.05L1042.47 1226.69C1044.63 1224.53 1045.84 1221.6 1045.84 1218.55V952.039C1045.84 951.636 1045.82 951.239 1045.78 950.847C1070.64 945.583 1089.29 923.514 1089.29 897.088C1089.29 866.739 1064.69 842.136 1034.34 842.136C1003.99 842.136 979.391 866.739 979.391 897.088C979.391 923.514 998.045 945.583 1022.9 950.847C1022.86 951.239 1022.84 951.636 1022.84 952.039V1213.79L916.157 1320.48V1165.15C940.985 1159.86 959.608 1137.8 959.608 1111.4C959.608 1081.05 935.006 1056.45 904.657 1056.45C874.308 1056.45 849.705 1081.05 849.705 1111.4C849.705 1137.8 868.329 1159.86 893.157 1165.15V1343.48L834.979 1401.65C833.805 1402.83 832.938 1404.19 832.377 1405.65L748.005 1356.89V1143.16C772.833 1137.88 791.456 1115.82 791.456 1089.42C791.456 1059.07 766.854 1034.47 736.505 1034.47C706.156 1034.47 681.553 1059.07 681.553 1089.42ZM404.044 1584.06C395.496 1574.37 390.31 1561.65 390.31 1547.71C390.31 1517.37 414.913 1492.76 445.262 1492.76C475.61 1492.76 500.213 1517.37 500.213 1547.71C500.213 1578.06 475.61 1602.67 445.262 1602.67C437.189 1602.67 429.524 1600.93 422.619 1597.8L323.779 1707.76V1986.23C323.779 1992.58 318.63 1997.73 312.279 1997.73C305.927 1997.73 300.779 1992.58 300.779 1986.23V1703.35C300.779 1700.51 301.829 1697.77 303.726 1695.66L404.044 1584.06Z" fill="url(#paint0_linear)"/>
<path d="M713.2 2689.8C722 2689.8 727.2 2686.2 727.2 2679.4C727.2 2672.6 722 2669 713.2 2669H560.8C502.8 2669 474.8 2650.6 474.8 2613.4V2489.4C474.8 2452.2 502.8 2433.8 559.2 2433.8H713.2C722 2433.8 727.2 2430.2 727.2 2423.4C727.2 2416.6 722 2413 713.2 2413H558.4C484 2413 446 2438.6 446 2489.4V2613.4C446 2664.6 484.4 2689.8 560.4 2689.8H713.2Z" fill="url(#paint1_linear)"/>
<path d="M1228.99 2689.8C1238.19 2689.8 1242.99 2686.2 1242.99 2679.4C1242.99 2672.6 1238.19 2669 1228.99 2669H1060.59C1002.99 2669 974.594 2649.8 974.594 2611V2421.4C974.594 2414.6 969.794 2411 960.194 2411C950.994 2411 946.194 2414.6 946.194 2421.4V2611.4C946.194 2663.8 984.194 2689.8 1060.19 2689.8H1228.99Z" fill="url(#paint2_linear)"/>
<path d="M1632.77 2429C1635.17 2426.6 1636.77 2424.6 1636.77 2421.8C1636.77 2415.8 1629.57 2411 1621.97 2411C1616.77 2411 1613.57 2412.6 1610.37 2415.8L1480.77 2544.2L1351.57 2415.8C1348.37 2412.6 1345.17 2411 1340.37 2411C1332.37 2411 1325.17 2415.8 1325.17 2421.8C1325.17 2424.6 1326.77 2426.6 1329.17 2429.4L1466.37 2565V2681.4C1466.37 2688.2 1471.57 2691.8 1480.77 2691.8C1490.37 2691.8 1495.57 2688.2 1495.57 2681.4V2565L1632.77 2429Z" fill="url(#paint3_linear)"/>
<path d="M2132.53 2594.6C2132.53 2555.4 2093.33 2536.2 2014.93 2536.2H1944.12C1892.53 2536.2 1866.92 2524.2 1866.92 2499.8V2470.2C1866.92 2445.8 1893.72 2433.8 1947.32 2433.8H2089.32C2098.92 2433.8 2103.32 2430.2 2103.32 2423.4C2103.32 2416.6 2098.92 2413 2089.32 2413H1946.92C1874.52 2413 1837.72 2432.2 1837.72 2469.8V2500.6C1837.72 2537.8 1873.32 2556.6 1943.72 2556.6H2015.72C2074.12 2556.6 2103.32 2569.4 2103.32 2595V2630.2C2103.32 2656.2 2073.72 2669 2014.12 2669H1850.53C1841.33 2669 1836.12 2672.6 1836.12 2679.4C1836.12 2686.2 1841.33 2689.8 1850.53 2689.8H2014.12C2092.93 2689.8 2132.53 2670.2 2132.53 2631V2594.6Z" fill="url(#paint4_linear)"/>
<path d="M2630.99 2613.4C2630.99 2650.6 2602.99 2669 2545.39 2669H2462.59C2404.99 2669 2376.99 2650.6 2376.99 2613.4V2489.8C2376.99 2452.2 2404.99 2433.8 2461.39 2433.8H2546.59C2602.99 2433.8 2630.99 2452.2 2630.99 2489.8V2613.4ZM2545.39 2689.8C2621.79 2689.8 2659.79 2664.6 2659.79 2613.4V2489.4C2659.79 2438.6 2622.19 2413 2547.39 2413H2460.59C2386.19 2413 2348.19 2438.6 2348.19 2489.4V2613.4C2348.19 2664.6 2386.59 2689.8 2462.59 2689.8H2545.39Z" fill="url(#paint5_linear)"/>
<defs>
<linearGradient id="paint0_linear" x1="3021" y1="413" x2="1520.15" y2="2963.96" gradientUnits="userSpaceOnUse">
<stop offset="1.33195e-07" stop-color="#93D5F6"/>
<stop offset="1" stop-color="#00629A"/>
</linearGradient>
<linearGradient id="paint1_linear" x1="1552.89" y1="2411" x2="1552.89" y2="2691.8" gradientUnits="userSpaceOnUse">
<stop stop-color="#00629A"/>
<stop offset="1" stop-color="#00629A"/>
</linearGradient>
<linearGradient id="paint2_linear" x1="1552.89" y1="2411" x2="1552.89" y2="2691.8" gradientUnits="userSpaceOnUse">
<stop stop-color="#00629A"/>
<stop offset="1" stop-color="#00629A"/>
</linearGradient>
<linearGradient id="paint3_linear" x1="1552.89" y1="2411" x2="1552.89" y2="2691.8" gradientUnits="userSpaceOnUse">
<stop stop-color="#00629A"/>
<stop offset="1" stop-color="#00629A"/>
</linearGradient>
<linearGradient id="paint4_linear" x1="1552.89" y1="2411" x2="1552.89" y2="2691.8" gradientUnits="userSpaceOnUse">
<stop stop-color="#00629A"/>
<stop offset="1" stop-color="#00629A"/>
</linearGradient>
<linearGradient id="paint5_linear" x1="1552.89" y1="2411" x2="1552.89" y2="2691.8" gradientUnits="userSpaceOnUse">
<stop stop-color="#00629A"/>
<stop offset="1" stop-color="#00629A"/>
</linearGradient>
</defs>
</svg>
