<?xml version="1.0" encoding="UTF-8"?>
<svg version="1.1" xmlns="http://www.w3.org/2000/svg" width="1248" height="1248">
<path d="M0 0 C411.84 0 823.68 0 1248 0 C1248 411.84 1248 823.68 1248 1248 C836.16 1248 424.32 1248 0 1248 C0 836.16 0 424.32 0 0 Z " fill="#FEFEFE" transform="translate(0,0)"/>
<path d="M0 0 C3.97753592 0.0001202 7.95488246 -0.02032042 11.93237305 -0.03930664 C44.91634925 -0.11180395 77.17579937 2.75843839 109.44458008 9.58422852 C112.10843952 10.13637719 114.77534329 10.65309546 117.44995117 11.15014648 C204.68226679 27.4322261 291.81355684 72.03868505 356.97338867 132.02514648 C358.99924141 133.87077509 361.050101 135.67627279 363.11791992 137.47436523 C375.32024376 148.13101412 386.78514214 159.44517469 397.7121582 171.40014648 C399.1958379 173.02274085 400.68812922 174.63676025 402.18432617 176.24780273 C407.82425603 182.36569275 413.15558902 188.68177359 418.34448242 195.18530273 C418.95646484 195.94786377 418.95646484 195.94786377 419.58081055 196.72583008 C437.24946417 218.77118454 452.86150974 241.885727 467.18139648 266.23168945 C468.15121659 267.8606778 469.16105446 269.46575719 470.18041992 271.06420898 C471.34448242 273.18530273 471.34448242 273.18530273 471.34448242 276.18530273 C470.41627686 276.3105835 469.48807129 276.43586426 468.53173828 276.56494141 C458.23587848 277.95860982 447.94600258 279.39249293 437.65991211 280.85650635 C435.57984015 281.15188139 433.49929925 281.44394968 431.41870117 281.7355957 C413.49378088 284.28475445 395.84881708 287.86808439 378.15698242 291.68530273 C376.53286942 292.03531342 376.53286942 292.03531342 374.87594604 292.39239502 C363.13550675 294.93283803 351.43125015 297.56394606 339.80757141 300.5994873 C335.3259382 301.75644086 330.94004131 302.62138373 326.34448242 303.18530273 C326.00827881 302.73840088 325.6720752 302.29149902 325.32568359 301.83105469 C315.21252434 288.41837208 304.68421998 275.58465511 293.34448242 263.18530273 C292.36256085 262.09819928 291.38079916 261.01095141 290.39916992 259.92358398 C285.65090107 254.68956064 280.94627363 249.57829333 275.51245117 245.04077148 C273.23280085 243.08971941 271.05244891 241.04720271 268.87036133 238.98828125 C262.27082944 232.78011468 255.4030295 227.07369868 248.19213867 221.59155273 C246.28791303 220.1422478 244.39437524 218.679649 242.50073242 217.21655273 C227.37457446 205.61045978 211.36385655 195.78351208 194.71899414 186.51196289 C192.6912591 185.37904985 190.67473715 184.22932135 188.66088867 183.07202148 C170.31384983 172.82737436 150.61382965 165.35844883 130.71948242 158.74780273 C129.61559677 158.3801178 129.61559677 158.3801178 128.4894104 158.00500488 C113.22846453 152.94995659 97.88728322 148.33564636 82.03198242 145.56030273 C80.88681152 145.35501953 79.74164062 145.14973633 78.56176758 144.93823242 C71.46149625 143.68390712 64.35101748 142.49806242 57.21948242 141.43530273 C56.46497803 141.31977051 55.71047363 141.20423828 54.93310547 141.08520508 C38.43404354 138.76069801 21.65454749 138.94408939 5.03198242 138.93530273 C3.87907715 138.93462799 2.72617187 138.93395325 1.53833008 138.93325806 C-15.72256346 138.94927918 -32.58110172 139.4443041 -49.65551758 142.18530273 C-51.34378662 142.4427124 -51.34378662 142.4427124 -53.06616211 142.70532227 C-127.34619382 154.20018542 -198.46483469 187.01273449 -254.07348633 237.84936523 C-256.14764914 239.72583931 -258.24730043 241.55598538 -260.36645508 243.38061523 C-265.13157101 247.54333492 -269.62239516 251.96019894 -274.09301758 256.43530273 C-274.93413086 257.27722168 -275.77524414 258.11914062 -276.6418457 258.98657227 C-281.60771167 264.00171045 -286.30478859 269.03859795 -290.63989258 274.61108398 C-292.53003487 277.02504478 -294.50660788 279.34088381 -296.52075195 281.65161133 C-316.83303553 305.06517093 -333.35850059 332.3756662 -346.72875977 360.2668457 C-347.6569805 362.18833108 -348.61118829 364.09512107 -349.56958008 366.00170898 C-362.4124409 391.93162813 -371.10201825 420.14303461 -377.06030273 448.40087891 C-377.48746447 450.3991478 -377.93188828 452.3937562 -378.38745117 454.38574219 C-380.23903816 462.61417612 -381.53825395 470.83328185 -382.53588867 479.19921875 C-382.78088238 481.2508577 -383.03580399 483.30108079 -383.29223633 485.35131836 C-384.97426706 498.97073336 -385.86581752 512.46032163 -385.84301758 526.18530273 C-385.84208099 526.92207245 -385.84114441 527.65884216 -385.84017944 528.41793823 C-385.73594453 566.69474368 -381.7340275 606.50837845 -369.40063477 642.9543457 C-368.54563499 645.51430243 -367.72953324 648.08537487 -366.91333008 650.65795898 C-362.25735121 665.1787856 -356.78817309 679.2268178 -350.65551758 693.18530273 C-350.32084473 693.95390625 -349.98617187 694.72250977 -349.64135742 695.5144043 C-335.53841238 727.63493889 -315.6234128 760.3218526 -291.20288086 785.69458008 C-289.78442383 787.22827148 -289.78442383 787.22827148 -287.65551758 790.18530273 C-287.9723366 794.4403771 -289.81430738 797.74615524 -291.79614258 801.47045898 C-292.45440555 802.72030323 -293.11252078 803.9702253 -293.77050781 805.22021484 C-294.11814178 805.87520966 -294.46577576 806.53020447 -294.82394409 807.20504761 C-315.08366483 845.46934397 -331.95307228 885.48278907 -346.65551758 926.18530273 C-351.9520003 922.96533752 -356.08410011 919.03242482 -360.43286133 914.63842773 C-361.52722252 913.54337921 -361.52722252 913.54337921 -362.64369202 912.4262085 C-364.18150488 910.88538452 -365.71689665 909.34214082 -367.25 907.79663086 C-369.57675172 905.45169571 -371.91133212 903.11478889 -374.24731445 900.77905273 C-375.7471344 899.2743137 -377.24649822 897.76911987 -378.74536133 896.26342773 C-379.4341185 895.57355774 -380.12287567 894.88368774 -380.83250427 894.1729126 C-385.2974706 889.66483888 -389.52632846 885.00176527 -393.65551758 880.18530273 C-394.10391495 879.66982376 -394.55231232 879.15434479 -395.01429749 878.62324524 C-402.98290901 869.45841146 -410.36753195 859.89496219 -417.65551758 850.18530273 C-418.51282471 849.0514917 -418.51282471 849.0514917 -419.38745117 847.89477539 C-473.32912002 776.47968127 -505.71740912 693.33528775 -519.34301758 605.31030273 C-519.54548096 604.01745361 -519.74794434 602.72460449 -519.95654297 601.39257812 C-520.56895726 597.32828139 -521.13124191 593.26173558 -521.65551758 589.18530273 C-521.75021332 588.46603607 -521.84490906 587.74676941 -521.94247437 587.00570679 C-524.22699103 568.99402464 -524.09576812 550.87132221 -524.09301758 532.74780273 C-524.09416376 531.52630587 -524.09416376 531.52630587 -524.0953331 530.28013229 C-524.11675271 502.64709785 -522.93021807 475.53147566 -518.65551758 448.18530273 C-518.55176819 447.50383179 -518.4480188 446.82236084 -518.34112549 446.12023926 C-517.0642601 437.74082638 -515.50038888 429.45726197 -513.65551758 421.18530273 C-513.40044434 420.02901367 -513.14537109 418.87272461 -512.88256836 417.68139648 C-508.98258375 400.24452566 -504.2165325 383.16171571 -498.65551758 366.18530273 C-498.31294922 365.12778809 -497.97038086 364.07027344 -497.61743164 362.98071289 C-471.27901841 282.21039721 -423.98436373 210.61979288 -364.28051758 150.68530273 C-363.44842773 149.84854004 -362.61633789 149.01177734 -361.7590332 148.1496582 C-357.42747822 143.82937428 -353.02393284 139.66178901 -348.38452148 135.67358398 C-346.21995091 133.81037837 -344.12841263 131.87299489 -342.03051758 129.93530273 C-336.43605599 124.89348553 -330.54653991 120.29410576 -324.58911133 115.69506836 C-322.64489862 114.17701136 -320.72674943 112.6306464 -318.81176758 111.07592773 C-309.37395447 103.47900363 -299.54304112 96.58682521 -289.46801758 89.87280273 C-288.84515869 89.45668732 -288.2222998 89.0405719 -287.58056641 88.61184692 C-273.43554279 79.18408337 -258.86583287 70.56542663 -243.93969727 62.43383789 C-242.46321625 61.62679173 -240.98967863 60.81432662 -239.51977539 59.99536133 C-214.49834982 46.05783568 -187.68613368 35.51074194 -160.65551758 26.18530273 C-159.31408691 25.72220703 -159.31408691 25.72220703 -157.94555664 25.24975586 C-120.53492362 12.51485875 -80.06971662 4.40559402 -40.65551758 1.18530273 C-39.73536865 1.09917725 -38.81521973 1.01305176 -37.8671875 0.92431641 C-25.26511329 -0.10515398 -12.63560303 -0.00202078 0 0 Z " fill="#F15933" transform="translate(609.655517578125,86.814697265625)"/>
<path d="M0 0 C1.52636719 1.92333984 1.52636719 1.92333984 2.796875 4.4609375 C3.27576172 5.39687744 3.75464844 6.33281738 4.24804688 7.29711914 C4.74369141 8.31281982 5.23933594 9.32852051 5.75 10.375 C6.53987305 11.94785767 6.53987305 11.94785767 7.34570312 13.55249023 C8.91497707 16.69318325 10.45839919 19.84565546 12 23 C12.78546796 24.5669031 13.57182387 26.13336165 14.359375 27.69921875 C38.9805759 77.38584609 53.375764 131.82190455 60.8125 186.5625 C60.97061661 187.72208221 60.97061661 187.72208221 61.13192749 188.90509033 C61.43419953 191.14557226 61.72863671 193.38692092 62.01953125 195.62890625 C62.26860229 197.5481189 62.26860229 197.5481189 62.52270508 199.50610352 C63.83136825 211.05615838 64.18018851 222.60557988 64.23828125 234.21875 C64.24316685 234.96932426 64.24805244 235.71989853 64.25308609 236.49321747 C64.28956236 242.16213999 64.30617014 247.83096866 64.3125 253.5 C64.3135033 254.33252792 64.31450661 255.16505585 64.31554031 256.02281189 C64.33392346 280.88566333 64.07486245 305.41256485 60 330 C59.87413513 330.7759552 59.74827026 331.5519104 59.61859131 332.35137939 C55.38383624 358.39379303 50.26181589 384.3243057 41.87011719 409.37792969 C40.89362894 412.32054579 39.95056281 415.27296965 39.0078125 418.2265625 C25.07302345 461.48543451 5.62593016 502.79812527 -19 541 C-19.58322021 541.90709717 -19.58322021 541.90709717 -20.17822266 542.83251953 C-31.44856513 560.27014292 -43.84263123 577.2391216 -57.40234375 592.96484375 C-59.90833483 595.89289649 -62.33508681 598.87168156 -64.75 601.875 C-67.73720507 605.54788025 -70.82077027 608.95448626 -74.2331543 612.23217773 C-75.92973168 613.92969285 -77.47663602 615.68494532 -79.02734375 617.515625 C-83.29880245 622.42926842 -87.87654643 627.02720153 -92.48803711 631.6184082 C-93.93524385 633.06025221 -95.37702026 634.50737116 -96.81835938 635.95507812 C-102.04320856 641.18362034 -107.38687978 646.19190328 -113 651 C-114.5448126 652.4132355 -116.08695325 653.82940409 -117.625 655.25 C-123.21946159 660.2918172 -129.10897767 664.89119697 -135.06640625 669.49023438 C-137.01061896 671.00829137 -138.92876815 672.55465633 -140.84375 674.109375 C-168.19048077 696.12736991 -198.68470274 714.27528401 -230 730 C-230.98838867 730.49886719 -231.97677734 730.99773438 -232.99511719 731.51171875 C-275.52847797 752.85383722 -321.21638587 768.05238291 -368.02587891 776.45019531 C-370.70839505 776.94609306 -373.37483152 777.48731581 -376.04296875 778.0546875 C-405.65886241 784.21618554 -435.86753423 785.37798404 -466.02173615 785.37516785 C-468.09235748 785.3750026 -470.16296236 785.37772348 -472.23358154 785.38049316 C-495.38349641 785.39126085 -518.14861054 783.95371877 -541.0625 780.6875 C-541.8238324 780.58084015 -542.58516479 780.4741803 -543.36956787 780.36428833 C-555.57355761 778.6452133 -567.58550452 776.44214486 -579.57568359 773.56884766 C-581.89475199 773.02469566 -584.2180083 772.52457677 -586.55078125 772.04296875 C-599.24098616 769.40854291 -611.61973149 765.81873035 -624 762 C-624.95616211 761.70641602 -625.91232422 761.41283203 -626.89746094 761.11035156 C-685.48758404 742.90779015 -740.42245917 713.30291265 -789 676 C-789.8048584 675.38439209 -789.8048584 675.38439209 -790.62597656 674.75634766 C-797.65074282 669.36934391 -804.51867279 663.81249662 -811.25 658.0625 C-811.89428955 657.51883789 -812.5385791 656.97517578 -813.20239258 656.41503906 C-814.09994263 655.63918457 -814.09994263 655.63918457 -815.015625 654.84765625 C-815.54446289 654.39398682 -816.07330078 653.94031738 -816.61816406 653.47290039 C-818.36244208 651.6136726 -819.27393672 650.47600065 -820 648 C-819.35929673 645.42555164 -818.6315478 643.19367374 -817.66015625 640.74609375 C-817.38773102 640.02610703 -817.11530579 639.3061203 -816.83462524 638.5643158 C-815.92702847 636.18202101 -814.99597334 633.80976431 -814.0625 631.4375 C-813.41537778 629.76594012 -812.76865504 628.09422555 -812.12231445 626.42236328 C-800.78651489 597.27510319 -787.93410357 568.9886402 -774 541 C-773.3609015 539.71359189 -772.72190187 538.42713466 -772.08300781 537.140625 C-768.74203806 530.41698327 -765.38345847 523.70236607 -762 517 C-758 517 -758 517 -755.66796875 518.90625 C-754.84941406 519.7621875 -754.03085937 520.618125 -753.1875 521.5 C-751.86298828 522.87478516 -751.86298828 522.87478516 -750.51171875 524.27734375 C-748.45762663 526.50394127 -746.46210165 528.75551587 -744.5 531.0625 C-741.17367886 534.94061741 -737.48927431 538.28503584 -733.65625 541.65625 C-730.97810097 544.01932267 -728.36608535 546.4435795 -725.75 548.875 C-719.43654249 554.61289687 -712.77024833 559.81944115 -706 565 C-705.36932617 565.48758789 -704.73865234 565.97517578 -704.08886719 566.47753906 C-688.36946195 578.62111583 -671.82133958 588.97481712 -654.46923828 598.62597656 C-652.93081596 599.4820415 -651.39486909 600.34258953 -649.86279297 601.20996094 C-594.94562385 632.25653902 -531.27028806 646.25968814 -468.59130859 646.13037109 C-465.50483287 646.1250084 -462.41850261 646.13035085 -459.33203125 646.13671875 C-448.17925461 646.14079775 -437.11825241 645.91538496 -426 645 C-425.175 644.93232422 -424.35 644.86464844 -423.5 644.79492188 C-411.83289643 643.73128555 -400.44397726 641.43650717 -389 639 C-387.7521875 638.74089844 -386.504375 638.48179687 -385.21875 638.21484375 C-382.94927078 637.73856543 -380.68227713 637.25028447 -378.41796875 636.75 C-376.11371843 636.24438164 -373.80340416 635.76573875 -371.48828125 635.3125 C-300.35324171 620.35184457 -235.61092495 578.48946449 -184.6875 527.8125 C-184.02959473 527.15926758 -183.37168945 526.50603516 -182.69384766 525.83300781 C-178.26089587 521.38549237 -174.07284494 516.77846928 -170 512 C-169.45529053 511.36199463 -168.91058105 510.72398926 -168.34936523 510.06665039 C-138.09439464 474.3566784 -114.54298025 434.01224197 -98.18261719 390.16796875 C-97.15194351 387.4070229 -96.09853009 384.65621602 -95.0390625 381.90625 C-84.89426726 354.97209888 -79.90681873 326.4052294 -76 298 C-75.85304688 296.94651367 -75.70609375 295.89302734 -75.5546875 294.80761719 C-70.29337251 254.91397616 -73.28971852 212.03094021 -82.32910156 172.90673828 C-83.0230917 169.89995279 -83.68004338 166.88639801 -84.3359375 163.87109375 C-89.72170237 139.71652496 -97.92466347 116.58029454 -108 94 C-108.42506836 93.04673828 -108.85013672 92.09347656 -109.28808594 91.11132812 C-118.16035418 71.44413306 -128.7746446 52.69797534 -141.01171875 34.92578125 C-142.77466075 32.33158959 -144.41789027 29.70716553 -146 27 C-142.57049484 25.54984464 -139.22904442 24.48194416 -135.60546875 23.6328125 C-134.57647461 23.38917969 -133.54748047 23.14554687 -132.48730469 22.89453125 C-131.39836914 22.64058594 -130.30943359 22.38664062 -129.1875 22.125 C-126.9047763 21.5866647 -124.62222352 21.04760412 -122.33984375 20.5078125 C-121.23882324 20.24774414 -120.13780273 19.98767578 -119.00341797 19.71972656 C-115.40616405 18.85769563 -111.82942882 17.93308221 -108.25 17 C-80.31535136 9.99453661 -51.76296747 4.96834277 -23.16796875 1.62890625 C-17.90551656 1.00996305 -12.70143093 0.18615336 -7.48828125 -0.765625 C-4.64353599 -1.03357589 -2.73098866 -0.86013307 0 0 Z " fill="#CC202E" transform="translate(1098,376)"/>
<path d="M0 0 C2.62750125 1.77042506 4.93777116 3.73559095 7.3125 5.83203125 C16.61668531 13.33758771 29.36504119 16.92180149 41.1875 17.125 C47.85628495 17.67533662 51.60795713 22.3686471 56 27 C56.763125 27.74507813 57.52625 28.49015625 58.3125 29.2578125 C73.6296742 44.94727913 81.03563783 68.0992201 89.18798828 87.98828125 C91.99919783 94.78322038 95.07125785 101.40099849 98.3125 108 C109.06148494 130.06141639 109.06148494 130.06141639 108 142 C106.56640625 143.77734375 106.56640625 143.77734375 104.5625 144.9375 C92.36877096 152.98062991 83.8983198 165.29890259 79 179 C78.70222656 179.81855469 78.40445312 180.63710938 78.09765625 181.48046875 C72.41452423 200.04885863 75.43655851 221.02987589 83.97509766 238.11962891 C86.05566566 241.93681203 88.61092834 245.36235335 91.30078125 248.765625 C92.84534624 250.79663919 93.90089463 252.71232371 95 255 C85.80048217 268.95411068 76.37673244 282.63923224 66.25 295.9375 C65.45348022 296.98466187 65.45348022 296.98466187 64.64086914 298.05297852 C63.61055646 299.39587786 62.56890675 300.73016522 61.51538086 302.05493164 C60.50317845 303.35414489 59.53437492 304.68832601 58.61157227 306.05249023 C55.2298718 310.72268148 55.2298718 310.72268148 51.86376953 311.48168945 C49.35504242 311.54661939 46.93744097 311.40340721 44.4375 311.1875 C29.75486095 310.56588559 17.150656 314.93355419 5.6875 324.3125 C1.66574444 328.01085666 -1.20633268 332.33330573 -4 337 C-11.42057452 336.61923066 -17.02815623 333.97110096 -23.625 330.6875 C-24.72166992 330.14988037 -25.81833984 329.61226074 -26.94824219 329.05834961 C-68.35480105 308.57887328 -106.48079718 282.71872531 -142.17089844 253.49267578 C-143.78732209 252.17356017 -145.41254521 250.86524325 -147.0390625 249.55859375 C-152.98030683 244.77306698 -158.63085629 239.74949726 -164.21875 234.5625 C-166.50787222 232.4534211 -168.82475164 230.40021288 -171.1875 228.375 C-174.90695594 225.15609196 -178.33212043 221.68385058 -181.78515625 218.18359375 C-183.77659461 216.22025329 -185.81302578 214.37920331 -187.9375 212.5625 C-194.95803369 206.52092519 -201.44571292 199.89665353 -207.38671875 192.79296875 C-208.99384266 191.00684315 -210.71165845 189.58745974 -212.5625 188.0625 C-215 185 -215 185 -214.9609375 182.76953125 C-214.45105553 180.4370115 -213.78276951 178.25404833 -213 176 C-209.80046381 164.86038432 -211.03586784 151.18747054 -215.125 140.49609375 C-216 138 -216 138 -216 134 C-214.0859375 132.0625 -214.0859375 132.0625 -211.375 130 C-210.36824219 129.21367188 -209.36148437 128.42734375 -208.32421875 127.6171875 C-207.78200684 127.1953418 -207.23979492 126.77349609 -206.68115234 126.33886719 C-203.77360353 124.0232997 -200.99026891 121.56534867 -198.1875 119.125 C-191.86079249 113.66086771 -185.34870445 108.47318069 -178.74121094 103.35449219 C-177.01045643 102.00813408 -175.28895475 100.65083893 -173.5703125 99.2890625 C-158.43572916 87.30016595 -142.91782173 75.9286087 -127 65 C-126.17935059 64.43555176 -125.35870117 63.87110352 -124.51318359 63.28955078 C-93.17450166 41.82512443 -60.13236989 23.6055226 -26 7 C-24.69820801 6.35998047 -24.69820801 6.35998047 -23.37011719 5.70703125 C-6.95082665 -2.30104553 -6.95082665 -2.30104553 0 0 Z " fill="#F15933" transform="translate(639,402)"/>
<path d="M0 0 C3.01176659 1.4364522 4.85360088 2.67879273 7 5.25 C7.90878906 6.32894531 7.90878906 6.32894531 8.8359375 7.4296875 C9.90714844 8.70199219 9.90714844 8.70199219 11 10 C11.88581512 11.00455348 12.77398898 12.00703019 13.6640625 13.0078125 C67.14046147 73.53643969 94.29275541 152.59575258 94.1875 232.75 C94.18656342 233.67742004 94.18562683 234.60484009 94.18466187 235.56036377 C94.15571174 248.79784224 94.05108449 261.89449577 92 275 C91.83338867 276.07314453 91.66677734 277.14628906 91.49511719 278.25195312 C89.13330947 293.0591414 86.21836483 307.60974004 82 322 C81.46826172 323.88138672 81.46826172 323.88138672 80.92578125 325.80078125 C77.07454011 338.81392238 72.10491605 351.43560324 67 364 C66.56913086 365.08555176 66.13826172 366.17110352 65.69433594 367.28955078 C57.09483108 388.61982226 57.09483108 388.61982226 45.75390625 393.63671875 C44.51511719 394.08660156 43.27632812 394.53648437 42 395 C40.63204377 395.5640138 39.26619663 396.13316615 37.90234375 396.70703125 C30.79472411 399.61602179 23.64678194 402.05065462 16 403 C15.15953125 403.18691406 14.3190625 403.37382813 13.453125 403.56640625 C10.50142626 403.99127198 8.80131141 404.06431404 6 403 C3.56412696 399.99545808 1.75073822 396.79079535 -0.078125 393.40234375 C-4.78841034 385.0636069 -13.009568 378.2944596 -22.1750946 375.28607178 C-28.40945631 373.08327063 -28.40945631 373.08327063 -29.96708679 370.22601318 C-30.48150131 367.95639768 -30.71325066 365.79103949 -30.8671875 363.46875 C-31.00252396 362.19147537 -31.00252396 362.19147537 -31.14059448 360.88839722 C-31.42624519 358.09455859 -31.65103835 355.29940181 -31.875 352.5 C-32.06062189 350.55906909 -32.24978657 348.61847393 -32.44238281 346.67822266 C-32.92178938 341.73840391 -33.34977165 336.79569396 -33.76037598 331.84973145 C-34.05894548 328.2989902 -34.38159398 324.75069278 -34.70571899 321.20220947 C-35.49800593 312.49989995 -36.22947744 303.79557408 -36.83920288 295.07849121 C-37.01311715 292.83044546 -37.23069531 290.58873208 -37.45043945 288.34472656 C-37.58333464 286.80538073 -37.71575269 285.26599362 -37.84765625 283.7265625 C-37.92671204 283.01237152 -38.00576782 282.29818054 -38.08721924 281.56234741 C-38.36634702 278.00365556 -38.34018583 276.41227373 -36.02758789 273.60961914 C-33.44891575 271.83589088 -30.7708105 270.45262168 -28 269 C-13.21654181 257.55263193 -3.37523383 240.61147125 -1 222 C1.04368976 197.66821468 -3.77579048 179.58412326 -19.5078125 160.5859375 C-22.95144115 157.01276796 -26.85807949 154.26323003 -31.0078125 151.55859375 C-33.24391063 148.68674223 -33.28837768 148.21896955 -33.02734375 144.7578125 C-32.72784405 142.83137251 -32.37900722 140.91238716 -32 139 C-31.76152344 137.79512939 -31.52304687 136.59025879 -31.27734375 135.34887695 C-30.3892653 131.03168654 -29.41539266 126.73507192 -28.4375 122.4375 C-28.07876175 120.84199943 -27.72020363 119.24645836 -27.36181641 117.65087891 C-24.65412994 105.65094573 -21.79007326 93.69079464 -18.86328125 81.74267578 C-16.32255501 71.37041212 -13.89004603 60.97620713 -11.5078125 50.56640625 C-10.41207241 45.77932755 -9.30063589 40.9960734 -8.1796875 36.21484375 C-8.0242598 35.55140457 -7.86883209 34.88796539 -7.70869446 34.204422 C-6.95633104 30.99374719 -6.20265734 27.78339333 -5.44702148 24.57348633 C-3.53207583 16.40174314 -1.73067595 8.21268751 0 0 Z " fill="#F15933" transform="translate(862,394)"/>
<path d="M0 0 C5.79827363 1.12727553 11.59021347 2.28120508 17.37695312 3.46630859 C18.94472345 3.7852909 20.51344479 4.09972955 22.08398438 4.40478516 C69.19268877 13.59762794 112.63072545 37.15928879 149 68 C149.99902344 68.82628906 150.99804688 69.65257812 152.02734375 70.50390625 C166.10435956 82.18037493 179.0613743 94.96727994 192 107.875 C192.63832764 108.5106488 193.27665527 109.14629761 193.93432617 109.8012085 C210.96083665 126.77356063 210.96083665 126.77356063 213 130 C213 134.30519808 212.83301412 134.63775313 210.25 137.6875 C201.75244731 148.48981344 200.05927997 160.5611424 201 174 C201.66746664 177.49136398 202.47369034 180.87370586 203.44140625 184.29296875 C204.02724639 187.13204021 203.98921711 188.3262179 203 191 C201.61157227 192.30517578 201.61157227 192.30517578 199.81640625 193.4453125 C199.14569092 193.87730957 198.47497559 194.30930664 197.78393555 194.75439453 C197.05086182 195.20669434 196.31778809 195.65899414 195.5625 196.125 C194.80042236 196.60437012 194.03834473 197.08374023 193.25317383 197.57763672 C178.7126843 206.62657331 163.77078921 214.32379695 148 221 C146.53046875 221.63035156 146.53046875 221.63035156 145.03125 222.2734375 C132.29062788 227.31324055 117.59043773 230.47059177 104 232 C102.97132813 232.15339844 101.94265625 232.30679688 100.8828125 232.46484375 C91.33751577 233.30034334 85.73806908 229.3076088 78.74511719 223.47167969 C78.16922852 222.98602539 77.59333984 222.50037109 77 222 C75.83633591 221.04378578 74.67227662 220.08805229 73.5078125 219.1328125 C70.2950003 216.47024319 67.14315017 213.74442397 64 211 C63.26136719 210.36191406 62.52273438 209.72382812 61.76171875 209.06640625 C59.82979699 207.39000921 57.91302932 205.69790956 56 204 C55.23429687 203.32710937 54.46859375 202.65421875 53.6796875 201.9609375 C44.52362843 193.8381641 35.97893669 185.28010028 28 176 C27.45754639 175.36956787 26.91509277 174.73913574 26.35620117 174.08959961 C2.1343421 145.71017504 -16.78073596 113.74124961 -30.8125 79.1875 C-31.47125122 77.57621216 -31.47125122 77.57621216 -32.14331055 75.93237305 C-32.73172729 74.44024292 -32.73172729 74.44024292 -33.33203125 72.91796875 C-33.67983643 72.03906982 -34.0276416 71.1601709 -34.38598633 70.25463867 C-35 68 -35 68 -34 65 C-31.84765625 63.7109375 -31.84765625 63.7109375 -29.0625 62.375 C-13.89946557 54.37064849 -6.28432482 41.91848263 -1 26 C-0.06348761 22.86216666 0.11667604 20.0682781 0.09765625 16.796875 C0.09443359 15.8171875 0.09121094 14.8375 0.08789062 13.828125 C0.07951172 12.81234375 0.07113281 11.7965625 0.0625 10.75 C0.05798828 9.71875 0.05347656 8.6875 0.04882812 7.625 C0.03706088 5.08327427 0.02062011 2.54166681 0 0 Z " fill="#CC202E" transform="translate(343,668)"/>
<path d="M0 0 C0.75627686 0.4441626 1.51255371 0.8883252 2.29174805 1.34594727 C16.23159507 9.6743363 29.4527316 18.91641503 41.5 29.8125 C42.06428711 30.32184082 42.62857422 30.83118164 43.20996094 31.35595703 C46.66356304 34.48307527 50.09097202 37.63688294 53.5 40.8125 C53.00628906 41.84890625 52.51257813 42.8853125 52.00390625 43.953125 C51.35658128 45.3228271 50.70945634 46.69262375 50.0625 48.0625 C49.73701172 48.74441406 49.41152344 49.42632812 49.07617188 50.12890625 C48.76357422 50.79277344 48.45097656 51.45664062 48.12890625 52.140625 C47.84088135 52.7480957 47.55285645 53.35556641 47.25610352 53.98144531 C45.61045752 57.96670361 45.33860866 61.57751402 45.3125 65.875 C45.29832031 66.91785156 45.28414062 67.96070313 45.26953125 69.03515625 C45.57564411 74.05229417 46.51881771 78.88879939 47.5 83.8125 C46.43531494 84.26181885 46.43531494 84.26181885 45.34912109 84.72021484 C16.30793874 97.02548802 -12.66022792 109.87453451 -40.10693359 125.46533203 C-42.54282117 126.83660602 -44.99571242 128.17106527 -47.45703125 129.49609375 C-79.47809224 146.75415724 -110.46677248 166.88895204 -139.5 188.8125 C-140.36359131 189.4631543 -140.36359131 189.4631543 -141.24462891 190.12695312 C-145.02501602 192.98568898 -148.76887755 195.88980613 -152.5 198.8125 C-153.0986084 199.27962402 -153.6972168 199.74674805 -154.31396484 200.22802734 C-156.18986517 201.69191952 -158.06412911 203.15787251 -159.9375 204.625 C-160.50500977 205.06924316 -161.07251953 205.51348633 -161.65722656 205.97119141 C-162.20217773 206.39964355 -162.74712891 206.8280957 -163.30859375 207.26953125 C-163.83952637 207.68412598 -164.37045898 208.0987207 -164.91748047 208.52587891 C-166.00688801 209.41158976 -167.06760303 210.33339385 -168.10205078 211.28271484 C-171.99511227 214.82197257 -171.99511227 214.82197257 -174.58203125 214.7734375 C-175.21496094 214.45632813 -175.84789062 214.13921875 -176.5 213.8125 C-177.24636719 213.45414063 -177.99273437 213.09578125 -178.76171875 212.7265625 C-180.36659496 211.87372973 -181.97077373 211.01958308 -183.57421875 210.1640625 C-189.90891437 207.23775451 -195.60757222 205.59782098 -202.59057617 205.34912109 C-209.325664 205.07204686 -214.81009513 204.78621818 -219.6875 199.6875 C-228.7050569 187.27488682 -236.02944685 171.13721173 -237.5 155.8125 C-237.63535156 154.60509155 -237.63535156 154.60509155 -237.7734375 153.37329102 C-238.29483859 145.31920275 -235.84205743 141.00649466 -231 134.75 C-230.03259888 133.43986938 -230.03259888 133.43986938 -229.0456543 132.10327148 C-227.22369132 129.65129036 -225.36980654 127.2280908 -223.5 124.8125 C-222.73300781 123.80445313 -221.96601563 122.79640625 -221.17578125 121.7578125 C-219.33087464 119.39849796 -217.43265386 117.10036495 -215.5 114.8125 C-214.24316406 113.29849609 -214.24316406 113.29849609 -212.9609375 111.75390625 C-200.85063254 97.22759113 -188.17786794 82.85933606 -173.32421875 71.078125 C-170.81860198 69.06808665 -168.38834832 66.99206113 -165.96777344 64.88110352 C-127.74195552 31.73526478 -79.43051524 10.17188385 -30.625 -1.875 C-29.65256348 -2.11895508 -28.68012695 -2.36291016 -27.67822266 -2.61425781 C-17.45843188 -4.98132202 -9.12676972 -5.62472358 0 0 Z " fill="#F15933" transform="translate(578.5,301.1875)"/>
<path d="M0 0 C7.12560702 5.84639566 13.48991988 12.4230284 19.9543457 18.97485352 C25.78733287 24.87958482 31.68331449 30.60753104 38 36 C39.77570221 37.61967817 41.54708307 39.24411718 43.3125 40.875 C47.72353173 44.89380593 52.23735358 48.72865324 56.8828125 52.47265625 C59.21237942 54.35047916 61.51257397 56.26024117 63.8046875 58.18359375 C74.22482611 66.90450141 84.96489156 75.07425721 96 83 C96.72719238 83.52335938 97.45438477 84.04671875 98.20361328 84.5859375 C108.96582414 92.31139608 119.90575082 99.75996812 131 107 C131.73379883 107.47904785 132.46759766 107.9580957 133.22363281 108.45166016 C151.46480626 120.29840027 170.37298427 131.03216006 189.5 141.375 C190.57515869 141.9620874 191.65031738 142.5491748 192.75805664 143.15405273 C197.61998741 145.77971188 202.445981 148.25478618 207.5625 150.34765625 C217.10631171 154.31952041 217.10631171 154.31952041 220 157 C222.01007275 162.02518188 221.9267582 166.64771435 222 172 C224.90975858 184.44283505 232.51406541 196.09762576 243.203125 203.09765625 C256.69721521 211.33092882 270.25224628 214.5574195 285.95703125 211.2734375 C297.02667981 208.3231303 304.60299609 203.78379422 312.8359375 195.890625 C315 194 315 194 318 193 C319.9543457 193.19018555 319.9543457 193.19018555 322.17578125 193.63671875 C322.99699463 193.79994629 323.81820801 193.96317383 324.66430664 194.13134766 C325.53821045 194.31487793 326.41211426 194.4984082 327.3125 194.6875 C328.6591272 194.96279541 328.6591272 194.96279541 330.03295898 195.24365234 C336.4127126 196.58081861 342.61434942 198.23670789 348.85546875 200.1171875 C353.51251509 201.42463157 358.22397367 202.25922857 363 203 C363.01417969 203.76441406 363.02835938 204.52882813 363.04296875 205.31640625 C363.62693592 218.43199327 367.02503 231.07942318 376 241 C378.89528381 243.58660983 381.79350964 246.07374181 384.83984375 248.48046875 C387 251 387 251 387.4453125 254.12890625 C385.25434359 273.17496052 380.04039874 297.47721751 368 313 C362.50793875 317.33010584 355.94478267 320.01465726 349.5625 322.75 C348.56895508 323.17756592 347.57541016 323.60513184 346.55175781 324.0456543 C316.07483498 336.96811713 285.34512026 344.76690023 252.5 348.8125 C251.00702393 348.9983667 251.00702393 348.9983667 249.48388672 349.18798828 C242.96554611 349.93574183 236.55829397 350.13676442 230 350 C230.19964355 349.31131836 230.39928711 348.62263672 230.60498047 347.91308594 C231.45074866 344.9537728 232.2239552 341.9783341 233 339 C233.28617188 338.00484375 233.57234375 337.0096875 233.8671875 335.984375 C238.73192793 316.43275155 237.74058561 293.47917855 232.1796875 274.1484375 C230.49996129 267.91221259 231.53773898 264.50131929 234.640625 258.8359375 C239.94772937 247.76421976 239.71769694 232.64258741 236.4375 221 C230.15918054 203.85535841 218.67963197 190.89511855 202.1875 183.125 C197.2039176 180.9018953 193.14709544 179.88470343 187.69921875 180.2109375 C178.62132495 180.61625742 172.19012963 180.17523536 165.22387695 173.90869141 C162.64152563 171.32974565 160.15342381 168.69359775 157.7409668 165.95507812 C153.26592699 160.92967933 148.38274221 156.3934904 143.2890625 152.0078125 C141.06448417 150.0565612 138.88867933 148.05860706 136.71972656 146.04589844 C131.56270793 141.26357714 126.2966353 136.69818264 120.8125 132.2890625 C118.37682897 130.30669691 115.99352695 128.27636762 113.62084961 126.21948242 C67.75175036 86.64543737 7.88988062 51.51038725 -53.0859375 44.09375 C-54.30466553 43.94010986 -55.52339355 43.78646973 -56.77905273 43.62817383 C-59.16269814 43.34105471 -61.5505776 43.08660723 -63.94165039 42.86987305 C-69.52247142 42.21221442 -73.18344118 41.66362846 -76.84765625 37.17578125 C-78.32166719 34.72616792 -78.97555897 33.36377341 -79.16796875 30.5 C-77.45486491 26.83315565 -75.47353121 23.41979245 -73.3125 20 C-72.89033203 19.30132813 -72.46816406 18.60265625 -72.03320312 17.8828125 C-69.19224015 13.34069975 -66.28878519 10.21501906 -62 7 C-60.98679687 7.41572266 -60.98679687 7.41572266 -59.953125 7.83984375 C-59.06109375 8.20207031 -58.1690625 8.56429687 -57.25 8.9375 C-56.36828125 9.29714844 -55.4865625 9.65679688 -54.578125 10.02734375 C-48.90647127 12.16710402 -43.76141341 12.18334273 -37.75 12.1875 C-36.83347656 12.19974609 -35.91695313 12.21199219 -34.97265625 12.22460938 C-22.13660236 12.25207597 -10.07290076 8.01253469 0 0 Z " fill="#CC212F" transform="translate(407,608)"/>
<path d="M0 0 C6.37133511 6.37133511 7.36958463 13.72235274 7.41699219 22.33618164 C7.39620605 24.11883423 7.39620605 24.11883423 7.375 25.9375 C7.36194824 27.82940063 7.36194824 27.82940063 7.34863281 29.75952148 C6.78348055 67.54365623 1.14258316 105.35728509 -9.921875 141.4765625 C-10.9919572 144.97371519 -12.00489992 148.48096426 -13 152 C-17.34392223 153.14195894 -20.68303307 153.35162179 -25 152 C-28.76115871 147.73387091 -31.09440415 142.90372268 -33.59277344 137.82080078 C-35.68340073 133.63011589 -37.9380708 129.53204981 -40.17651367 125.41894531 C-42.00607644 122.05131524 -43.81565931 118.67358644 -45.62109375 115.29296875 C-48.38709504 110.1261123 -51.20101537 104.98946893 -54.0625 99.875 C-65.45423603 79.46470895 -76.37880388 58.82028977 -87 38 C-87.82600708 36.4075647 -87.82600708 36.4075647 -88.66870117 34.78295898 C-90.0959167 31.79949488 -90.56878179 30.24790351 -90 27 C-88.42578125 24.89453125 -88.42578125 24.89453125 -86.3125 22.8125 C-80.22377396 16.28271783 -77.28437993 9.86911258 -75.36328125 1.171875 C-75.10458252 0.01268555 -74.84588379 -1.14650391 -74.5793457 -2.34082031 C-74.38816162 -3.21834961 -74.19697754 -4.09587891 -74 -5 C-12.40624454 -9.16983292 -12.40624454 -9.16983292 0 0 Z " fill="#F15934" transform="translate(813,379)"/>
<path d="M0 0 C0.64316162 0.40468506 1.28632324 0.80937012 1.94897461 1.22631836 C17.52173075 9.35790531 29.17753304 11.67755168 46.94897461 9.22631836 C49.51505065 14.75613721 51.13604845 20.2479061 52.57397461 26.16381836 C52.79053711 27.01911133 53.00709961 27.8744043 53.23022461 28.75561523 C56.30094699 41.18066783 58.3280257 55.14640158 52.94897461 67.22631836 C49.1530548 72.96798843 49.1530548 72.96798843 44.72631836 73.91772461 C43.45916992 73.87518555 42.19202148 73.83264648 40.88647461 73.78881836 C40.15879883 73.76440674 39.43112305 73.73999512 38.68139648 73.71484375 C36.09876435 73.60073358 33.52684998 73.41996585 30.94897461 73.22631836 C29.95913574 73.15767578 28.96929688 73.0890332 27.94946289 73.01831055 C-2.06597579 70.78130653 -61.12915895 65.1481848 -83.05102539 43.22631836 C-82.4392041 42.89535156 -81.82738281 42.56438477 -81.19702148 42.22338867 C-70.18037576 36.26279056 -59.16734065 30.29601956 -48.17602539 24.28881836 C-38.79521693 19.16254774 -29.38667413 14.08866442 -19.9675293 9.03320312 C-18.9367627 8.47947021 -17.90599609 7.9257373 -16.84399414 7.35522461 C-15.36745361 6.56849365 -15.36745361 6.56849365 -13.86108398 5.76586914 C-12.02921643 4.76224127 -10.21770542 3.72023536 -8.43237305 2.63598633 C-7.64266113 2.15919434 -6.85294922 1.68240234 -6.03930664 1.19116211 C-5.36037354 0.76311279 -4.68144043 0.33506348 -3.98193359 -0.10595703 C-2.05102539 -0.77368164 -2.05102539 -0.77368164 0 0 Z " fill="#CC212F" transform="translate(568.051025390625,884.773681640625)"/>
<path d="M0 0 C1.17828369 0.14139404 1.17828369 0.14139404 2.38037109 0.28564453 C3.23115234 0.38232422 4.08193359 0.47900391 4.95849609 0.57861328 C5.84794922 0.69076172 6.73740234 0.80291016 7.65380859 0.91845703 C8.55099609 1.02287109 9.44818359 1.12728516 10.37255859 1.23486328 C12.59265289 1.49466155 14.81104393 1.76457645 17.02880859 2.04345703 C18.46010827 6.70501236 19.41009506 11.09730328 19.95849609 15.96142578 C20.03360413 16.60811218 20.10871216 17.25479858 20.18609619 17.92108154 C20.34665385 19.30550492 20.50479748 20.69021009 20.66070557 22.07516479 C21.0772832 25.7692974 21.51333725 29.46110851 21.95068359 33.15283203 C22.08333115 34.27485268 22.08333115 34.27485268 22.21865845 35.41954041 C23.08013169 42.62435404 24.09910525 49.80181704 25.15380859 56.98095703 C26.29741242 64.80422178 27.40105969 72.62289775 28.27880859 80.48095703 C28.3588916 81.19050537 28.43897461 81.90005371 28.52148438 82.63110352 C28.71387109 84.43288765 28.87307146 86.23813582 29.02880859 88.04345703 C29.19703125 89.40470703 29.19703125 89.40470703 29.36865234 90.79345703 C29.02880859 93.04345703 29.02880859 93.04345703 27.01708984 94.92236328 C26.13408203 95.47794922 25.25107422 96.03353516 24.34130859 96.60595703 C23.42478516 97.20666016 22.50826172 97.80736328 21.56396484 98.42626953 C20.3090625 99.22677734 20.3090625 99.22677734 19.02880859 100.04345703 C14.33132044 103.35305096 11.31256793 107.39428574 8.02880859 112.04345703 C0.70878944 111.3521745 -6.38753406 109.71943069 -13.54467773 108.0871582 C-15.66276341 107.60503014 -17.78264951 107.13150264 -19.90283203 106.65869141 C-21.26297412 106.35126169 -22.62300427 106.04333617 -23.98291016 105.73486328 C-25.20453857 105.45843994 -26.42616699 105.1820166 -27.68481445 104.8972168 C-30.58193826 104.14458015 -33.22917288 103.23195707 -35.97119141 102.04345703 C-35.95024414 101.44509033 -35.92929687 100.84672363 -35.90771484 100.23022461 C-35.50087177 86.82371523 -35.15874889 74.84758604 -42.28369141 62.98095703 C-43.97119141 60.04345703 -43.97119141 60.04345703 -43.71606445 58.07495117 C-42.94359192 55.96818487 -42.04519036 54.42377634 -40.74072266 52.60205078 C-40.27480713 51.94599854 -39.8088916 51.28994629 -39.32885742 50.61401367 C-38.81895264 49.91010498 -38.30904785 49.20619629 -37.78369141 48.48095703 C-37.25122803 47.73644287 -36.71876465 46.99192871 -36.17016602 46.22485352 C-31.5983784 39.85485154 -26.94843978 33.54157825 -22.28198242 27.24072266 C-17.47957003 20.75490118 -12.75005477 14.21869909 -8.05737305 7.65307617 C-7.54940186 6.94530029 -7.04143066 6.23752441 -6.51806641 5.50830078 C-6.07301758 4.88560303 -5.62796875 4.26290527 -5.16943359 3.62133789 C-2.46058541 0.05424625 -2.46058541 0.05424625 0 0 Z " fill="#F15A34" transform="translate(769.97119140625,676.95654296875)"/>
<path d="M0 0 C28.95216061 -0.43298346 56.17263996 0.70040481 84.4765625 7.41650391 C86.68728579 7.92769089 88.89814412 8.39017989 91.125 8.82421875 C113.13602397 13.37286786 134.84039651 22.23864186 155 32 C155.80373047 32.37946777 156.60746094 32.75893555 157.43554688 33.14990234 C167.44908025 37.87938934 177.06717283 43.06792342 186.5 48.875 C187.39066162 49.4225293 188.28132324 49.97005859 189.19897461 50.53417969 C193.19896712 53.04710977 196.87003746 55.40054307 200 59 C184.74471504 61.35531911 169.72400847 62.30947287 154.3125 62.3125 C153.51374451 62.31572266 152.71498901 62.31894531 151.89202881 62.32226562 C143.77805059 62.34226773 135.69389007 62.16383567 127.62109375 61.296875 C126.44345459 61.17280273 125.26581543 61.04873047 124.05249023 60.92089844 C119.18544189 59.45257033 117.48108922 56.13868746 114.93359375 51.953125 C108.94730371 42.81042748 98.94549725 37.77493326 89 34 C88.12601563 33.6596875 87.25203125 33.319375 86.3515625 32.96875 C79.29324114 30.73326992 72.15254012 30.69495273 64.8125 30.625 C63.79051514 30.61098145 62.76853027 30.59696289 61.71557617 30.58251953 C55.90854181 30.6192759 51.32633381 31.37660279 45.89648438 33.39575195 C43.18792425 34.25873938 41.62604776 34.06365968 39 33 C36.01953125 31.21484375 36.01953125 31.21484375 32.8125 28.9375 C32.24297607 28.53337891 31.67345215 28.12925781 31.08666992 27.71289062 C19.7228335 19.57562605 8.96283899 10.7603734 0 0 Z " fill="#F15A35" transform="translate(612,292)"/>
<path d="M0 0 C38.61 0 77.22 0 117 0 C117 0.33 117 0.66 117 1 C115.92105469 1.08636719 114.84210938 1.17273438 113.73046875 1.26171875 C88.35849737 3.52947649 64.8570352 11.67435444 45 28 C44.23018799 28.62745117 44.23018799 28.62745117 43.44482422 29.26757812 C19.28300258 49.30682241 4.50996344 78.73258215 1.3125 109.875 C1.19981394 111.24932803 1.09193614 112.62412812 1 114 C0.67 114 0.34 114 0 114 C0 76.38 0 38.76 0 0 Z " fill="#47704C" transform="translate(0,0)"/>
<path d="M0 0 C38.28 0 76.56 0 116 0 C116 35.64 116 71.28 116 108 C115.67 108 115.34 108 115 108 C114.78085938 106.741875 114.56171875 105.48375 114.3359375 104.1875 C108.34253214 71.22862743 92.29107721 41.96256358 64.44458008 22.46728516 C44.81088394 9.33128518 23.28821746 3.19944276 0 1 C0 0.67 0 0.34 0 0 Z " fill="#47704C" transform="translate(1132,0)"/>
<path d="M0 0 C0.33 0 0.66 0 1 0 C1.15855469 1.258125 1.31710938 2.51625 1.48046875 3.8125 C5.69078138 35.44111424 19.15430929 65.91819315 45.046875 85.85546875 C46.02140625 86.56316406 46.9959375 87.27085938 48 88 C48.54462891 88.4017041 49.08925781 88.8034082 49.65039062 89.21728516 C66.67302665 101.64992308 86.05593297 109.36465382 107 112 C107 112.33 107 112.66 107 113 C71.69 113 36.38 113 0 113 C0 75.71 0 38.42 0 0 Z " fill="#47704C" transform="translate(0,1135)"/>
<path d="M0 0 C0.33 0 0.66 0 1 0 C1 35.64 1 71.28 1 108 C-34.31 108 -69.62 108 -106 108 C-106 107.67 -106 107.34 -106 107 C-104.741875 106.78085938 -103.48375 106.56171875 -102.1875 106.3359375 C-69.61494154 100.41074565 -40.72136909 84.44633889 -21.36254883 56.96044922 C-9.55262972 39.71907623 -2.4181881 20.75310687 0 0 Z " fill="#47704C" transform="translate(1247,1140)"/>
<path d="M0 0 C3.40443148 1.13481049 3.55136085 1.45829129 5.12109375 4.46484375 C5.68582397 5.53496704 5.68582397 5.53496704 6.26196289 6.62670898 C6.64989014 7.38927002 7.03781738 8.15183105 7.4375 8.9375 C7.83638428 9.70715088 8.23526855 10.47680176 8.64624023 11.26977539 C16 25.63473316 16 25.63473316 16 30 C15.030625 30.7425 14.06125 31.485 13.0625 32.25 C4.21251735 39.64297331 -2.28309092 51.69796271 -4 63 C-4.97484353 74.90685874 -5.39017167 87.0616386 0 98 C0.38542969 98.81339844 0.77085937 99.62679687 1.16796875 100.46484375 C3.52518733 105.04959575 6.27080775 108.69763514 9.9609375 112.296875 C11 114 11 114 10.9765625 116.33203125 C9.68495677 119.8606981 7.54693296 122.25838067 5 124.9375 C4.5052417 125.46239014 4.0104834 125.98728027 3.50073242 126.52807617 C-0.51145091 130.68072136 -4.56716961 134.79668545 -10 137 C-13.18222393 137 -15.04422302 136.79212228 -18 136 C-19.74963272 135.63767644 -21.50102155 135.28374883 -23.25390625 134.9375 C-24.14537354 134.76089844 -25.03684082 134.58429688 -25.95532227 134.40234375 C-26.63006592 134.26957031 -27.30480957 134.13679687 -28 134 C-29.28440238 88.16988856 -19.06655919 41.67198732 0 0 Z " fill="#CC2331" transform="translate(318,489)"/>
<path d="M0 0 C0.9583374 0.00523682 1.9166748 0.01047363 2.90405273 0.01586914 C4.45576172 0.02070312 4.45576172 0.02070312 6.03881836 0.02563477 C7.12743164 0.03401367 8.21604492 0.04239258 9.33764648 0.05102539 C10.97636719 0.05779297 10.97636719 0.05779297 12.64819336 0.06469727 C15.35723144 0.07652713 18.06616248 0.09300996 20.77514648 0.11352539 C17.77181774 5.77164842 14.20209774 10.52908132 10.08764648 15.42602539 C9.4647876 16.17440674 8.84192871 16.92278809 8.20019531 17.69384766 C3.52188488 23.28904637 -1.29036322 28.74309329 -6.22485352 34.11352539 C-7.74634707 35.82127074 -9.26717108 37.52961282 -10.78735352 39.23852539 C-17.19890668 46.35134218 -23.94104984 52.90338122 -31.22485352 59.11352539 C-32.26288595 60.0155562 -33.30062423 60.91792559 -34.33813477 61.82055664 C-40.05723089 66.76423851 -45.62602727 71.36125164 -52.22485352 75.11352539 C-51.79968393 66.15564203 -50.48309386 57.79141755 -48.22485352 49.11352539 C-47.49782227 48.96657227 -46.77079102 48.81961914 -46.02172852 48.66821289 C-32.3893113 45.6271352 -20.39446921 39.84411364 -12.15454102 28.18383789 C-7.19080941 20.02171856 -4.13083631 12.39557517 -3.43579102 2.86352539 C-3.11430557 0.19638685 -2.691696 0.1373465 0 0 Z " fill="#CD2634" transform="translate(874.224853515625,816.886474609375)"/>
</svg>
