<svg id="Layer_1" data-name="Layer 1" xmlns="http://www.w3.org/2000/svg" viewBox="0 0 255.11809 141.7319"><defs><style>.cls-1{fill:#8b8b89;}.cls-2{fill:#5c2983;}</style></defs><path class="cls-1" d="M60.8534,59.5398a21.75455,21.75455,0,1,1,.0158-30.7639l8.5219-8.5218a33.80605,33.80605,0,1,0-.0163,47.807Z"/><path class="cls-2" d="M129.9616,65.9034a21.754,21.754,0,1,1,21.7552-21.7533,21.75366,21.75366,0,0,1-21.7552,21.7533m0-55.5603a33.80625,33.80625,0,1,0,33.8045,33.805,33.80554,33.80554,0,0,0-33.8045-33.805"/><polygon class="cls-2" points="93.04 44.11 75.694 26.763 67.204 35.253 76.062 44.11 67.203 52.969 75.692 61.458 84.551 52.599 84.551 52.599 93.04 44.11"/><path class="cls-2" d="M52.1606,109.1411a11.12677,11.12677,0,1,1-10.8389,11.1094,10.70563,10.70563,0,0,1,10.8389-11.1094m0,18.8164c3.6113,0,7.1655-2.5586,7.1655-7.707,0-5.1504-3.5542-7.709-7.1655-7.709-3.5825,0-7.1348,2.5586-7.1348,7.709,0,5.1484,3.5523,7.707,7.1348,7.707"/><polygon class="cls-2" points="71.92 130.938 71.92 109.59 75.532 109.59 75.532 127.504 85.317 127.504 85.317 130.938 71.92 130.938"/><polygon class="cls-2" points="93.693 130.938 93.693 109.59 97.306 109.59 97.306 127.504 107.092 127.504 107.092 130.938 93.693 130.938"/><path class="cls-2" d="M129.4013,125.5767h-9.0312l-1.9854,5.3593h-3.8252l8.3076-21.3437h4.1861l8.3091,21.3437h-3.9434Zm-7.7656-3.3399h6.5015l-3.252-8.7304Z"/><path class="cls-2" d="M152.0712,109.5903c4.0957,0,6.502,2.4102,6.502,5.75a4.75469,4.75469,0,0,1-3.1602,4.6075,5.11013,5.11013,0,0,1,3.8223,5.0898c0,3.4317-2.6484,5.9004-6.6211,5.9004h-7.8887V109.5903Zm-.4824,9.0332c2.1074,0,3.3731-1.205,3.3731-2.9804,0-1.8067-1.2657-2.9824-3.4629-2.9824h-3.1914v5.9628Zm.3906,9.2422c2.17,0,3.584-1.1718,3.584-3.0703,0-1.8359-1.2363-3.1308-3.4629-3.1308h-3.7929v6.2011Z"/><path class="cls-2" d="M179.0459,109.1411a11.12675,11.12675,0,1,1-10.8399,11.1094,10.70741,10.70741,0,0,1,10.8399-11.1094m0,18.8164c3.6113,0,7.164-2.5586,7.164-7.707,0-5.1504-3.5527-7.709-7.164-7.709-3.584,0-7.1348,2.5586-7.1348,7.709,0,5.1484,3.5508,7.707,7.1348,7.707"/><path class="cls-2" d="M237.48529,125.5767h-9.0332l-1.9863,5.3593h-3.8262l8.3086-21.3437h4.1855l8.3106,21.3437H239.5009Zm-7.7676-3.3399h6.502l-3.25-8.7304Z"/><path class="cls-2" d="M30.1801,123.4282a6.90825,6.90825,0,0,1-6.6216,4.5293c-3.5825,0-7.1362-2.5586-7.1362-7.707,0-5.1504,3.5537-7.709,7.1362-7.709a6.90934,6.90934,0,0,1,6.6324,4.5586h3.8437a10.63663,10.63663,0,0,0-10.4761-7.959,11.12678,11.12678,0,0,0,0,22.2461,10.63584,10.63584,0,0,0,10.4717-7.959Z"/><path class="cls-2" d="M206.35639,122.6704H203.2509v8.4297h-3.64251V109.7544h8.4941a6.30137,6.30137,0,0,1,6.6836,6.4746,5.89831,5.89831,0,0,1-4.666,6.082l5.1211,8.7891h-4.0938Zm1.2363-3.1914c2.2266,0,3.5196-1.2969,3.5196-3.25,0-1.9902-1.44539-3.2832-3.6719-3.2832H203.2509v6.5332Z"/></svg>