<svg width="301" height="40" viewBox="0 0 301 40" fill="none" xmlns="http://www.w3.org/2000/svg">
<path d="M26.98 26.92C26.98 27.6667 26.7267 28.4933 26.22 29.4C25.7133 30.2933 24.98 31.1467 24.02 31.96C23.06 32.7733 21.8733 33.4467 20.46 33.98C19.06 34.5 17.44 34.76 15.6 34.76C12.7467 34.76 10.2733 34.1333 8.18 32.88C6.08667 31.6133 4.46667 29.8733 3.32 27.66C2.17333 25.4467 1.6 22.9067 1.6 20.04C1.6 17.9333 1.94 15.9867 2.62 14.2C3.3 12.4133 4.25333 10.8533 5.48 9.52C6.70667 8.18666 8.14 7.15333 9.78 6.42C11.42 5.67333 13.1933 5.3 15.1 5.3C16.4333 5.3 17.5067 5.42667 18.32 5.68C19.1333 5.92 19.78 6.16666 20.26 6.42C20.74 6.67333 21.14 6.8 21.46 6.8C21.74 6.8 21.9733 6.69333 22.16 6.48C22.3467 6.25333 22.5333 6.03333 22.72 5.82C22.92 5.60667 23.1667 5.5 23.46 5.5C23.86 5.5 24.1467 5.61333 24.32 5.84C24.4933 6.05333 24.6533 6.42 24.8 6.94L26.84 13.54C26.96 13.98 26.9 14.36 26.66 14.68C26.4333 14.9867 26.0933 15.1733 25.64 15.24C25.2933 15.28 24.96 15.22 24.64 15.06C24.32 14.9 24.06 14.6 23.86 14.16C23.14 12.6533 22.36 11.46 21.52 10.58C20.6933 9.68667 19.7933 9.05333 18.82 8.68C17.86 8.29333 16.82 8.1 15.7 8.1C14.5133 8.1 13.44 8.37333 12.48 8.92C11.52 9.46667 10.6933 10.2333 10 11.22C9.32 12.2067 8.79333 13.38 8.42 14.74C8.04667 16.0867 7.86 17.5667 7.86 19.18C7.86 21.5933 8.27333 23.66 9.1 25.38C9.92667 27.0867 11.0533 28.3933 12.48 29.3C13.9067 30.2067 15.5267 30.66 17.34 30.66C18.9533 30.66 20.3733 30.3267 21.6 29.66C22.8267 28.9933 23.8867 28.0333 24.78 26.78C25.1133 26.38 25.4067 26.12 25.66 26C25.9133 25.8667 26.1533 25.8333 26.38 25.9C26.58 25.9533 26.7267 26.0733 26.82 26.26C26.9267 26.4333 26.98 26.6533 26.98 26.92ZM40.3413 14.56C42.4213 14.56 44.2413 14.9867 45.8013 15.84C47.3613 16.6933 48.5746 17.8733 49.4413 19.38C50.3213 20.8733 50.7613 22.6067 50.7613 24.58C50.7613 26.4733 50.3146 28.1667 49.4213 29.66C48.5279 31.1533 47.2813 32.3333 45.6813 33.2C44.0813 34.0667 42.2346 34.5 40.1413 34.5C38.0613 34.5 36.2413 34.08 34.6813 33.24C33.1213 32.3867 31.9013 31.2 31.0213 29.68C30.1546 28.16 29.7213 26.4 29.7213 24.4C29.7213 22.5467 30.1679 20.88 31.0613 19.4C31.9546 17.92 33.1946 16.7467 34.7813 15.88C36.3813 15 38.2346 14.56 40.3413 14.56ZM41.9213 31.42C42.7479 31.2467 43.4146 30.8133 43.9213 30.12C44.4413 29.4267 44.7746 28.5267 44.9213 27.42C45.0679 26.3133 44.9813 25.06 44.6613 23.66C44.3279 22.18 43.8546 20.96 43.2413 20C42.6279 19.0267 41.9279 18.34 41.1413 17.94C40.3546 17.5267 39.5346 17.4133 38.6813 17.6C37.8546 17.7733 37.1746 18.2 36.6413 18.88C36.1079 19.5467 35.7613 20.4333 35.6013 21.54C35.4546 22.6333 35.5413 23.9067 35.8613 25.36C36.1946 26.8533 36.6679 28.08 37.2813 29.04C37.9079 30 38.6213 30.68 39.4213 31.08C40.2213 31.48 41.0546 31.5933 41.9213 31.42ZM61.6666 16.06V29.62C61.6666 30.2067 61.7266 30.6267 61.8466 30.88C61.9799 31.12 62.1799 31.3 62.4466 31.42L63.0266 31.64C63.5332 31.9067 63.7866 32.2867 63.7866 32.78C63.7866 33.5933 63.3599 34 62.5066 34H55.1866C54.7466 34 54.3999 33.8933 54.1466 33.68C53.9066 33.4667 53.7866 33.1667 53.7866 32.78C53.7866 32.4733 53.8599 32.22 54.0066 32.02C54.1666 31.82 54.3932 31.6467 54.6866 31.5L55.2666 31.3C55.5199 31.18 55.7132 31.0067 55.8466 30.78C55.9932 30.54 56.0666 30.1533 56.0666 29.62V20.48C56.0666 20 55.9932 19.66 55.8466 19.46C55.6999 19.26 55.4999 19.12 55.2466 19.04L54.3266 18.96C54.0732 18.84 53.8666 18.6933 53.7066 18.52C53.5466 18.3467 53.4666 18.12 53.4666 17.84C53.4666 17.5333 53.5666 17.2733 53.7666 17.06C53.9666 16.8333 54.2732 16.6467 54.6866 16.5L58.0666 15.26C58.5599 15.0733 58.9799 14.9267 59.3266 14.82C59.6866 14.7133 60.0399 14.66 60.3866 14.66C60.7866 14.66 61.0999 14.7933 61.3266 15.06C61.5532 15.3133 61.6666 15.6467 61.6666 16.06ZM61.1066 21.14L59.9066 19.8L60.9466 18.84C62.5466 17.32 63.9866 16.2267 65.2666 15.56C66.5466 14.8933 67.7399 14.56 68.8466 14.56C70.5266 14.56 71.8932 15.1133 72.9466 16.22C74.0132 17.3133 74.5466 18.76 74.5466 20.56V29.62C74.5466 30.2067 74.6066 30.6267 74.7266 30.88C74.8599 31.12 75.0532 31.3 75.3066 31.42L75.9066 31.64C76.4132 31.9067 76.6666 32.2867 76.6666 32.78C76.6666 33.5933 76.2399 34 75.3866 34H68.0666C67.2132 34 66.7866 33.5933 66.7866 32.78C66.7866 32.2867 67.0399 31.9067 67.5466 31.64L68.1666 31.42C68.4332 31.3 68.6266 31.12 68.7466 30.88C68.8799 30.6267 68.9466 30.2067 68.9466 29.62V21.96C68.9466 20.84 68.6732 19.9933 68.1266 19.42C67.5932 18.8333 66.8799 18.54 65.9866 18.54C65.3866 18.54 64.7466 18.6867 64.0666 18.98C63.3866 19.26 62.6799 19.7333 61.9466 20.4L61.1066 21.14ZM74.1066 21.08L72.9066 19.72L73.7466 18.92C75.3332 17.3733 76.7666 16.26 78.0466 15.58C79.3266 14.9 80.5266 14.56 81.6466 14.56C83.3266 14.56 84.6932 15.1133 85.7466 16.22C86.7999 17.3133 87.3266 18.76 87.3266 20.56V29.62C87.3266 30.1533 87.3999 30.54 87.5466 30.78C87.6932 31.0067 87.8866 31.18 88.1266 31.3L88.7066 31.5C88.9866 31.66 89.2066 31.84 89.3666 32.04C89.5266 32.2267 89.6066 32.4733 89.6066 32.78C89.6066 33.1667 89.4799 33.4667 89.2266 33.68C88.9866 33.8933 88.6466 34 88.2066 34H80.8666C80.0132 34 79.5866 33.5933 79.5866 32.78C79.5866 32.2867 79.8399 31.9067 80.3466 31.64L80.9466 31.42C81.2132 31.3 81.4066 31.12 81.5266 30.88C81.6599 30.6267 81.7266 30.2067 81.7266 29.62V21.96C81.7266 20.84 81.4599 19.9933 80.9266 19.42C80.3932 18.8333 79.6732 18.54 78.7666 18.54C78.1666 18.54 77.5266 18.6933 76.8466 19C76.1666 19.3067 75.4599 19.8067 74.7266 20.5L74.1066 21.08ZM100.104 16.06V29.62C100.104 30.2067 100.164 30.6267 100.284 30.88C100.417 31.12 100.617 31.3 100.884 31.42L101.464 31.64C101.971 31.9067 102.224 32.2867 102.224 32.78C102.224 33.5933 101.797 34 100.944 34H93.6241C93.1841 34 92.8374 33.8933 92.5841 33.68C92.3441 33.4667 92.2241 33.1667 92.2241 32.78C92.2241 32.4733 92.2974 32.22 92.4441 32.02C92.6041 31.82 92.8307 31.6467 93.1241 31.5L93.7041 31.3C93.9574 31.18 94.1507 31.0067 94.2841 30.78C94.4307 30.54 94.5041 30.1533 94.5041 29.62V20.48C94.5041 20 94.4307 19.66 94.2841 19.46C94.1374 19.26 93.9374 19.12 93.6841 19.04L92.7641 18.96C92.5107 18.84 92.3041 18.6933 92.1441 18.52C91.9841 18.3467 91.9041 18.12 91.9041 17.84C91.9041 17.5333 92.0041 17.2733 92.2041 17.06C92.4041 16.8333 92.7107 16.6467 93.1241 16.5L96.5041 15.26C96.9974 15.0733 97.4174 14.9267 97.7641 14.82C98.1241 14.7133 98.4774 14.66 98.8241 14.66C99.2241 14.66 99.5374 14.7933 99.7641 15.06C99.9907 15.3133 100.104 15.6467 100.104 16.06ZM99.5441 21.14L98.3441 19.8L99.3841 18.84C100.984 17.32 102.424 16.2267 103.704 15.56C104.984 14.8933 106.177 14.56 107.284 14.56C108.964 14.56 110.331 15.1133 111.384 16.22C112.451 17.3133 112.984 18.76 112.984 20.56V29.62C112.984 30.2067 113.044 30.6267 113.164 30.88C113.297 31.12 113.491 31.3 113.744 31.42L114.344 31.64C114.851 31.9067 115.104 32.2867 115.104 32.78C115.104 33.5933 114.677 34 113.824 34H106.504C105.651 34 105.224 33.5933 105.224 32.78C105.224 32.2867 105.477 31.9067 105.984 31.64L106.604 31.42C106.871 31.3 107.064 31.12 107.184 30.88C107.317 30.6267 107.384 30.2067 107.384 29.62V21.96C107.384 20.84 107.111 19.9933 106.564 19.42C106.031 18.8333 105.317 18.54 104.424 18.54C103.824 18.54 103.184 18.6867 102.504 18.98C101.824 19.26 101.117 19.7333 100.384 20.4L99.5441 21.14ZM112.544 21.08L111.344 19.72L112.184 18.92C113.771 17.3733 115.204 16.26 116.484 15.58C117.764 14.9 118.964 14.56 120.084 14.56C121.764 14.56 123.131 15.1133 124.184 16.22C125.237 17.3133 125.764 18.76 125.764 20.56V29.62C125.764 30.1533 125.837 30.54 125.984 30.78C126.131 31.0067 126.324 31.18 126.564 31.3L127.144 31.5C127.424 31.66 127.644 31.84 127.804 32.04C127.964 32.2267 128.044 32.4733 128.044 32.78C128.044 33.1667 127.917 33.4667 127.664 33.68C127.424 33.8933 127.084 34 126.644 34H119.304C118.451 34 118.024 33.5933 118.024 32.78C118.024 32.2867 118.277 31.9067 118.784 31.64L119.384 31.42C119.651 31.3 119.844 31.12 119.964 30.88C120.097 30.6267 120.164 30.2067 120.164 29.62V21.96C120.164 20.84 119.897 19.9933 119.364 19.42C118.831 18.8333 118.111 18.54 117.204 18.54C116.604 18.54 115.964 18.6933 115.284 19C114.604 19.3067 113.897 19.8067 113.164 20.5L112.544 21.08ZM141.162 14.56C143.242 14.56 145.062 14.9867 146.622 15.84C148.182 16.6933 149.395 17.8733 150.262 19.38C151.142 20.8733 151.582 22.6067 151.582 24.58C151.582 26.4733 151.135 28.1667 150.242 29.66C149.348 31.1533 148.102 32.3333 146.502 33.2C144.902 34.0667 143.055 34.5 140.962 34.5C138.882 34.5 137.062 34.08 135.502 33.24C133.942 32.3867 132.722 31.2 131.842 29.68C130.975 28.16 130.542 26.4 130.542 24.4C130.542 22.5467 130.988 20.88 131.882 19.4C132.775 17.92 134.015 16.7467 135.602 15.88C137.202 15 139.055 14.56 141.162 14.56ZM142.742 31.42C143.568 31.2467 144.235 30.8133 144.742 30.12C145.262 29.4267 145.595 28.5267 145.742 27.42C145.888 26.3133 145.802 25.06 145.482 23.66C145.148 22.18 144.675 20.96 144.062 20C143.448 19.0267 142.748 18.34 141.962 17.94C141.175 17.5267 140.355 17.4133 139.502 17.6C138.675 17.7733 137.995 18.2 137.462 18.88C136.928 19.5467 136.582 20.4333 136.422 21.54C136.275 22.6333 136.362 23.9067 136.682 25.36C137.015 26.8533 137.488 28.08 138.102 29.04C138.728 30 139.442 30.68 140.242 31.08C141.042 31.48 141.875 31.5933 142.742 31.42ZM162.527 16.06V29.62C162.527 30.2067 162.587 30.6267 162.707 30.88C162.84 31.12 163.04 31.3 163.307 31.42L163.907 31.64C164.414 31.9067 164.667 32.2867 164.667 32.78C164.667 33.5933 164.24 34 163.387 34H156.007C155.567 34 155.22 33.8933 154.967 33.68C154.727 33.4667 154.607 33.1667 154.607 32.78C154.607 32.4733 154.68 32.22 154.827 32.02C154.987 31.82 155.214 31.6467 155.507 31.5L156.087 31.3C156.34 31.18 156.534 31.0067 156.667 30.78C156.814 30.54 156.887 30.1533 156.887 29.62V20.48C156.887 20 156.814 19.66 156.667 19.46C156.52 19.26 156.32 19.12 156.067 19.04L155.147 18.96C154.894 18.84 154.687 18.6933 154.527 18.52C154.367 18.3467 154.287 18.12 154.287 17.84C154.287 17.5333 154.387 17.2733 154.587 17.06C154.787 16.8333 155.094 16.6467 155.507 16.5L158.927 15.26C159.42 15.0733 159.84 14.9267 160.187 14.82C160.547 14.7133 160.9 14.66 161.247 14.66C161.647 14.66 161.96 14.7933 162.187 15.06C162.414 15.3133 162.527 15.6467 162.527 16.06ZM161.847 21.14L160.667 19.8L161.687 18.84C163.3 17.32 164.754 16.2267 166.047 15.56C167.354 14.8933 168.58 14.56 169.727 14.56C171.434 14.56 172.827 15.1133 173.907 16.22C174.987 17.3133 175.527 18.76 175.527 20.56V29.62C175.527 30.1533 175.594 30.54 175.727 30.78C175.874 31.02 176.074 31.1933 176.327 31.3L176.887 31.5C177.18 31.66 177.407 31.84 177.567 32.04C177.727 32.2267 177.807 32.4733 177.807 32.78C177.807 33.1667 177.68 33.4667 177.427 33.68C177.187 33.8933 176.847 34 176.407 34H169.007C168.154 34 167.727 33.5933 167.727 32.78C167.727 32.2867 167.98 31.9067 168.487 31.64L169.107 31.42C169.374 31.3 169.567 31.12 169.687 30.88C169.82 30.6267 169.887 30.2067 169.887 29.62V21.96C169.887 20.8533 169.607 20.0067 169.047 19.42C168.5 18.8333 167.76 18.54 166.827 18.54C166.214 18.54 165.554 18.6867 164.847 18.98C164.154 19.26 163.434 19.7333 162.687 20.4L161.847 21.14ZM195.538 6H207.758C208.278 6 208.718 5.92667 209.078 5.78C209.451 5.63333 209.798 5.48667 210.118 5.34C210.451 5.19333 210.798 5.12 211.158 5.12C211.758 5.12 212.211 5.28 212.518 5.6C212.838 5.92 213.085 6.43333 213.258 7.14L214.558 12.54C214.705 13.0733 214.671 13.52 214.458 13.88C214.258 14.2267 213.938 14.44 213.498 14.52C213.098 14.6133 212.745 14.5733 212.438 14.4C212.131 14.2267 211.865 13.9 211.638 13.42C211.118 12.2067 210.645 11.2933 210.218 10.68C209.791 10.0667 209.345 9.65333 208.878 9.44C208.411 9.22667 207.845 9.12 207.178 9.12H204.758V29.04C204.758 29.56 204.871 29.9467 205.098 30.2C205.338 30.4533 205.651 30.64 206.038 30.76L207.158 31.06C207.891 31.3667 208.258 31.8733 208.258 32.58C208.258 33.5267 207.705 34 206.598 34H196.698C196.138 34 195.718 33.8733 195.438 33.62C195.171 33.3667 195.038 33.02 195.038 32.58C195.038 31.8733 195.405 31.3667 196.138 31.06L197.258 30.76C197.645 30.64 197.951 30.4533 198.178 30.2C198.418 29.9467 198.538 29.56 198.538 29.04V9.12H196.118C195.465 9.12 194.898 9.22667 194.418 9.44C193.951 9.65333 193.505 10.0667 193.078 10.68C192.665 11.2933 192.191 12.2067 191.658 13.42C191.445 13.9 191.185 14.2267 190.878 14.4C190.571 14.5733 190.211 14.6133 189.798 14.52C189.358 14.44 189.038 14.2267 188.838 13.88C188.651 13.52 188.618 13.0733 188.738 12.54L190.058 7.14C190.231 6.43333 190.471 5.92 190.778 5.6C191.098 5.28 191.551 5.12 192.138 5.12C192.511 5.12 192.858 5.19333 193.178 5.34C193.498 5.48667 193.845 5.63333 194.218 5.78C194.591 5.92667 195.031 6 195.538 6ZM225.771 14.56C227.851 14.56 229.671 14.9867 231.231 15.84C232.791 16.6933 234.004 17.8733 234.871 19.38C235.751 20.8733 236.191 22.6067 236.191 24.58C236.191 26.4733 235.744 28.1667 234.851 29.66C233.958 31.1533 232.711 32.3333 231.111 33.2C229.511 34.0667 227.664 34.5 225.571 34.5C223.491 34.5 221.671 34.08 220.111 33.24C218.551 32.3867 217.331 31.2 216.451 29.68C215.584 28.16 215.151 26.4 215.151 24.4C215.151 22.5467 215.598 20.88 216.491 19.4C217.384 17.92 218.624 16.7467 220.211 15.88C221.811 15 223.664 14.56 225.771 14.56ZM227.351 31.42C228.178 31.2467 228.844 30.8133 229.351 30.12C229.871 29.4267 230.204 28.5267 230.351 27.42C230.498 26.3133 230.411 25.06 230.091 23.66C229.758 22.18 229.284 20.96 228.671 20C228.058 19.0267 227.358 18.34 226.571 17.94C225.784 17.5267 224.964 17.4133 224.111 17.6C223.284 17.7733 222.604 18.2 222.071 18.88C221.538 19.5467 221.191 20.4333 221.031 21.54C220.884 22.6333 220.971 23.9067 221.291 25.36C221.624 26.8533 222.098 28.08 222.711 29.04C223.338 30 224.051 30.68 224.851 31.08C225.651 31.48 226.484 31.5933 227.351 31.42ZM249.716 14.56C251.796 14.56 253.616 14.9867 255.176 15.84C256.736 16.6933 257.95 17.8733 258.816 19.38C259.696 20.8733 260.136 22.6067 260.136 24.58C260.136 26.4733 259.69 28.1667 258.796 29.66C257.903 31.1533 256.656 32.3333 255.056 33.2C253.456 34.0667 251.61 34.5 249.516 34.5C247.436 34.5 245.616 34.08 244.056 33.24C242.496 32.3867 241.276 31.2 240.396 29.68C239.53 28.16 239.096 26.4 239.096 24.4C239.096 22.5467 239.543 20.88 240.436 19.4C241.33 17.92 242.57 16.7467 244.156 15.88C245.756 15 247.61 14.56 249.716 14.56ZM251.296 31.42C252.123 31.2467 252.79 30.8133 253.296 30.12C253.816 29.4267 254.15 28.5267 254.296 27.42C254.443 26.3133 254.356 25.06 254.036 23.66C253.703 22.18 253.23 20.96 252.616 20C252.003 19.0267 251.303 18.34 250.516 17.94C249.73 17.5267 248.91 17.4133 248.056 17.6C247.23 17.7733 246.55 18.2 246.016 18.88C245.483 19.5467 245.136 20.4333 244.976 21.54C244.83 22.6333 244.916 23.9067 245.236 25.36C245.57 26.8533 246.043 28.08 246.656 29.04C247.283 30 247.996 30.68 248.796 31.08C249.596 31.48 250.43 31.5933 251.296 31.42ZM271.082 5.66V29.62C271.082 30.1533 271.155 30.54 271.302 30.78C271.448 31.0067 271.642 31.18 271.882 31.3L272.462 31.5C272.742 31.6467 272.962 31.82 273.122 32.02C273.282 32.22 273.362 32.4733 273.362 32.78C273.362 33.1667 273.235 33.4667 272.982 33.68C272.742 33.8933 272.402 34 271.962 34H264.562C264.122 34 263.775 33.8933 263.522 33.68C263.282 33.4667 263.162 33.1667 263.162 32.78C263.162 32.4733 263.235 32.22 263.382 32.02C263.542 31.82 263.768 31.6467 264.062 31.5L264.642 31.3C264.895 31.18 265.088 31.0067 265.222 30.78C265.368 30.54 265.442 30.1533 265.442 29.62V10.08C265.442 9.6 265.368 9.26 265.222 9.06C265.075 8.86 264.875 8.72 264.622 8.64L263.702 8.56C263.448 8.45333 263.242 8.31333 263.082 8.14C262.922 7.95333 262.842 7.72 262.842 7.44C262.842 7.13333 262.942 6.87333 263.142 6.66C263.342 6.43333 263.648 6.24667 264.062 6.1L267.482 4.86C267.975 4.67333 268.395 4.52667 268.742 4.42C269.102 4.31333 269.455 4.26 269.802 4.26C270.202 4.26 270.515 4.39333 270.742 4.66C270.968 4.91333 271.082 5.24667 271.082 5.66ZM284.093 16.96C283.24 16.96 282.58 17.16 282.113 17.56C281.66 17.96 281.433 18.4667 281.433 19.08C281.433 19.5333 281.566 19.9267 281.833 20.26C282.1 20.58 282.466 20.8533 282.933 21.08C283.4 21.3067 283.933 21.4933 284.533 21.64C286.306 22.0267 287.786 22.5133 288.973 23.1C290.173 23.6867 291.08 24.4067 291.693 25.26C292.306 26.1 292.613 27.1 292.613 28.26C292.613 30.0733 291.973 31.5533 290.693 32.7C289.426 33.8467 287.5 34.42 284.913 34.42C284.22 34.42 283.593 34.3533 283.033 34.22C282.486 34.0867 282.006 33.9533 281.593 33.82C281.193 33.6867 280.86 33.62 280.593 33.62C280.34 33.62 280.12 33.6933 279.933 33.84C279.76 33.9733 279.586 34.1067 279.413 34.24C279.24 34.3867 279.033 34.46 278.793 34.46C278.486 34.46 278.2 34.3533 277.933 34.14C277.68 33.9267 277.46 33.5867 277.273 33.12L276.093 30.36C275.826 29.68 275.766 29.1133 275.913 28.66C276.06 28.2067 276.333 27.9067 276.733 27.76C277.12 27.64 277.54 27.66 277.993 27.82C278.446 27.98 278.826 28.26 279.133 28.66C279.613 29.34 280.14 29.9333 280.713 30.44C281.286 30.9467 281.906 31.34 282.573 31.62C283.24 31.9 283.953 32.04 284.713 32.04C285.726 32.04 286.466 31.8133 286.933 31.36C287.413 30.8933 287.653 30.3067 287.653 29.6C287.653 29.0933 287.5 28.6667 287.193 28.32C286.9 27.9733 286.466 27.6867 285.893 27.46C285.333 27.22 284.673 27.02 283.913 26.86C282.3 26.5933 280.94 26.1867 279.833 25.64C278.74 25.08 277.906 24.3667 277.333 23.5C276.76 22.62 276.473 21.5867 276.473 20.4C276.473 19.2533 276.78 18.2467 277.393 17.38C278.02 16.5 278.88 15.8133 279.973 15.32C281.08 14.8133 282.366 14.56 283.833 14.56C284.713 14.56 285.44 14.6267 286.013 14.76C286.6 14.8933 287.066 15.0267 287.413 15.16C287.76 15.2933 288.02 15.36 288.193 15.36C288.446 15.36 288.666 15.2933 288.853 15.16C289.053 15.0267 289.24 14.8933 289.413 14.76C289.6 14.6267 289.806 14.56 290.033 14.56C290.286 14.56 290.526 14.6533 290.753 14.84C290.98 15.0133 291.146 15.32 291.253 15.76L292.153 18.74C292.313 19.2867 292.353 19.8067 292.273 20.3C292.206 20.7933 291.94 21.1 291.473 21.22C291.14 21.3133 290.793 21.2533 290.433 21.04C290.073 20.8267 289.726 20.4867 289.393 20.02C288.78 19.0467 288.013 18.2933 287.093 17.76C286.186 17.2267 285.186 16.96 284.093 16.96Z" fill="#946E47"/>
</svg>
