<svg width="1586" height="293" viewBox="0 0 1586 293" fill="none" xmlns="http://www.w3.org/2000/svg">
<path d="M207.157 68.3029H156.692C151.182 60.565 143.928 54.2318 135.517 49.8151C126.713 45.5984 117.045 43.4962 107.285 43.676C98.969 43.6471 90.7335 45.3035 83.0756 48.5449C75.4305 51.8173 68.5367 56.6203 62.8189 62.6577C50.1853 75.5757 43.1162 92.9275 43.1268 110.994C42.5523 129.276 49.2533 147.04 61.7602 160.389C67.5144 166.762 74.5672 171.83 82.4442 175.25C90.3212 178.67 98.8395 180.364 107.426 180.218C117.043 180.401 126.576 178.398 135.306 174.361C143.388 170.516 150.287 164.569 155.28 157.143H205.816C197.637 177.028 183.949 194.165 166.361 206.538C148.826 217.774 128.316 223.478 107.497 222.909C92.3111 222.988 77.2957 219.711 63.5247 213.312C49.7229 206.836 37.4537 197.504 27.5284 185.933C18.5198 175.929 11.5652 164.253 7.05996 151.569C2.31258 138.351 -0.0763915 124.403 0.00186191 110.359C-0.0601797 95.8266 2.79594 81.4294 8.40099 68.0206C14.2384 54.4201 22.6234 42.0611 33.1043 31.6095C42.8892 21.7966 54.4924 13.9831 67.2655 8.60561C80.0873 3.31847 93.8393 0.655109 107.708 0.772993C128.69 0.187782 149.351 6.02255 166.926 17.4967C184.772 30.3924 198.697 47.9778 207.157 68.3029V68.3029Z" fill="#FF4838"/>
<path d="M161.702 138.283H212.167C217.659 130.547 224.918 124.233 233.341 119.866C242.145 115.649 251.813 113.547 261.574 113.726C269.885 113.673 278.121 115.306 285.783 118.525C293.445 121.767 300.345 126.574 306.04 132.638C318.538 145.717 325.606 163.052 325.816 181.14C326.025 199.228 319.361 216.721 307.169 230.087C301.405 236.471 294.342 241.55 286.453 244.982C278.565 248.414 270.034 250.12 261.433 249.986C251.82 250.123 242.297 248.123 233.553 244.129C225.466 240.332 218.526 234.465 213.437 227.123H163.184C171.332 247.026 185.026 264.171 202.639 276.518C220.162 287.787 240.675 293.517 261.503 292.959C276.635 293.105 291.617 289.95 305.404 283.715C319.192 277.215 331.456 267.887 341.401 256.337C350.401 246.314 357.376 234.645 361.94 221.972C366.652 208.745 369.04 194.803 368.998 180.762C369.073 166.229 366.217 151.829 360.599 138.424C354.832 124.785 346.438 112.413 335.895 102.013C326.14 91.9396 314.48 83.9043 301.593 78.3739C288.766 73.1257 275.008 70.5331 261.15 70.7529C240.145 70.1578 219.459 75.9928 201.862 87.4766C184.07 100.411 170.177 117.987 161.702 138.283V138.283Z" fill="#FF4838"/>
<path d="M544.706 164.249C541.441 168.906 537.097 172.705 532.046 175.322C526.995 177.939 521.386 179.297 515.697 179.279C498.264 179.279 485.63 165.519 485.63 146.326C485.391 142.212 485.989 138.092 487.387 134.216C488.786 130.34 490.956 126.788 493.766 123.773C496.576 120.759 499.969 118.346 503.738 116.68C507.508 115.013 511.576 114.128 515.697 114.078C521.222 114.032 526.675 115.324 531.591 117.843C536.507 120.362 540.741 124.034 543.93 128.543L545.412 130.307L577.244 106.598L575.903 104.763C569.07 95.4969 560.045 88.0686 549.637 83.1429C539.229 78.2172 527.762 75.9477 516.262 76.5376C473.914 76.5376 442.223 106.739 442.223 147.102V147.455C442.313 156.824 444.269 166.082 447.976 174.688C451.684 183.293 457.068 191.075 463.816 197.578C470.563 204.081 478.539 209.175 487.277 212.564C496.015 215.952 505.34 217.566 514.709 217.313C526.792 217.923 538.832 215.452 549.697 210.132C560.562 204.812 569.895 196.818 576.821 186.9L578.303 184.995L546.118 162.979L544.706 164.249Z" fill="#05252C"/>
<path d="M677.172 76.3951C634.824 76.3951 601.368 107.302 601.368 146.959V147.312C601.368 186.475 634.471 217.171 676.749 217.171C719.027 217.171 752.623 186.052 752.623 146.324C752.623 106.597 719.45 76.3951 677.172 76.3951ZM676.749 113.653C681.076 113.585 685.373 114.393 689.38 116.031C693.386 117.668 697.02 120.1 700.06 123.179C703.101 126.259 705.486 129.922 707.072 133.949C708.658 137.975 709.411 142.281 709.286 146.606V146.959C709.411 151.232 708.669 155.487 707.105 159.465C705.541 163.444 703.189 167.066 700.188 170.111C697.188 173.157 693.602 175.565 689.646 177.188C685.691 178.812 681.448 179.619 677.172 179.56C672.839 179.562 668.55 178.695 664.559 177.01C660.567 175.325 656.954 172.857 653.934 169.751C650.913 166.646 648.546 162.966 646.973 158.93C645.4 154.894 644.653 150.584 644.775 146.254C644.632 141.987 645.356 137.736 646.903 133.758C648.451 129.78 650.791 126.157 653.78 123.109C656.769 120.061 660.346 117.651 664.294 116.026C668.242 114.401 672.479 113.593 676.749 113.653V113.653Z" fill="#05252C"/>
<path d="M868.145 143.643L815.844 79.0062H777.095V214.278H819.161V147.03L873.65 214.278H910.211V79.0062H868.145V143.643Z" fill="#05252C"/>
<path d="M1044.79 164.249C1041.55 168.877 1037.24 172.658 1032.23 175.273C1027.22 177.889 1021.65 179.263 1016 179.279C998.635 179.279 986.001 165.519 986.001 146.326C985.752 142.215 986.341 138.098 987.731 134.222C989.121 130.346 991.284 126.792 994.089 123.777C996.894 120.762 1000.28 118.347 1004.05 116.68C1007.81 115.013 1011.88 114.128 1016 114.078C1021.45 114.1 1026.82 115.425 1031.66 117.941C1036.49 120.457 1040.66 124.092 1043.81 128.543L1045.29 130.307L1077.33 106.598L1075.99 104.763C1069.16 95.4969 1060.13 88.0686 1049.73 83.1429C1039.32 78.2172 1027.85 75.9477 1016.35 76.5376C974.002 76.5376 942.311 106.739 942.311 147.102V147.455C942.457 156.782 944.452 165.988 948.179 174.54C951.907 183.092 957.294 190.82 964.029 197.277C970.763 203.735 978.711 208.793 987.413 212.159C996.116 215.525 1005.4 217.133 1014.73 216.89C1026.81 217.42 1038.83 214.914 1049.69 209.601C1060.56 204.288 1069.91 196.338 1076.91 186.477L1078.32 184.571L1046.14 162.555L1044.79 164.249Z" fill="#05252C"/>
<path d="M1177.26 76.3951C1134.91 76.3951 1101.46 107.302 1101.46 146.959V147.312C1101.46 186.475 1134.56 217.171 1176.84 217.171C1219.12 217.171 1252.64 186.334 1252.64 146.606C1252.64 106.879 1219.54 76.3951 1177.26 76.3951ZM1176.84 113.653C1181.17 113.594 1185.46 114.412 1189.47 116.058C1193.47 117.703 1197.1 120.143 1200.13 123.229C1203.17 126.315 1205.54 129.984 1207.12 134.014C1208.7 138.044 1209.44 142.352 1209.31 146.677V147.03C1209.44 151.306 1208.71 155.564 1207.15 159.547C1205.59 163.531 1203.23 167.156 1200.23 170.204C1197.23 173.252 1193.64 175.659 1189.68 177.279C1185.72 178.9 1181.47 179.699 1177.19 179.631C1172.87 179.623 1168.58 178.749 1164.6 177.06C1160.62 175.371 1157.01 172.901 1154 169.797C1150.99 166.692 1148.63 163.016 1147.06 158.984C1145.49 154.953 1144.74 150.648 1144.87 146.324C1144.7 142.05 1145.41 137.786 1146.95 133.795C1148.49 129.804 1150.83 126.169 1153.82 123.111C1156.81 120.053 1160.4 117.637 1164.36 116.011C1168.31 114.385 1172.56 113.583 1176.84 113.653Z" fill="#05252C"/>
<path d="M1411.68 125.931C1411.93 119.999 1410.93 114.082 1408.74 108.563C1406.55 103.043 1403.22 98.0461 1398.98 93.8953C1388.96 84.0163 1373.43 79.0062 1353.03 79.0062H1286.33V214.278H1328.68V174.762H1341.88L1369.26 214.278H1418.67L1385.29 167.423C1393.35 163.964 1400.18 158.154 1404.89 150.752C1409.6 143.35 1411.97 134.699 1411.68 125.931V125.931ZM1328.82 114.994H1351.05C1359.24 114.994 1369.05 117.323 1369.05 128.542C1369.05 136.939 1362.56 141.738 1351.27 141.738H1328.82V114.994Z" fill="#05252C"/>
<path d="M1506.88 79.0062H1452.11V214.278H1506.1C1553.89 214.278 1586 186.969 1586 145.901C1586 104.833 1554.94 79.0062 1506.88 79.0062ZM1542.52 146.818C1542.52 166.082 1529.47 177.584 1507.23 177.584H1494.25V115.77H1507.23C1529.39 115.77 1542.52 127.272 1542.52 146.818Z" fill="#05252C"/>
</svg>
