<svg width="1017" height="1017" viewBox="0 0 1017 1017" fill="none" xmlns="http://www.w3.org/2000/svg">
<path d="M289.453 331H344.215V359.68H324.657V470.507L344.215 470.507V499.192H289.453L289.453 331Z" fill="black"/>
<path d="M728.849 331L672.784 331.004V359.473H693.572V470.114H672.784V499.196L728.849 499.561V331Z" fill="black"/>
<path d="M636.276 336.215H380.722V493.981H636.276V336.215Z" fill="black"/>
<path d="M40.7001 686.95C35.0585 686.95 29.7751 685.961 24.8499 683.982C19.9247 681.914 15.5815 678.902 11.8205 674.945C8.05942 670.899 5.14907 665.998 3.08944 660.243C1.02981 654.398 0 647.654 0 640.011C0 632.368 1.07459 625.669 3.22377 619.914C5.4625 614.069 8.46239 609.169 12.2235 605.212C16.0741 601.166 20.4172 598.153 25.2528 596.175C30.178 594.107 35.3271 593.073 40.7001 593.073C44.1925 593.073 47.864 593.477 51.7146 594.287C55.5652 595.096 59.2815 596.67 62.8635 599.007L64.2067 620.184H61.6546L52.3862 597.254L59.5054 599.142L60.0427 602.38C56.8189 599.952 53.6399 598.333 50.5057 597.524C47.461 596.625 44.5059 596.175 41.6403 596.175C36.8942 596.175 32.4616 597.839 28.3423 601.166C24.3126 604.403 21.0888 609.258 18.671 615.733C16.2532 622.207 15.0443 630.345 15.0443 640.146C15.0443 649.947 16.2084 658.085 18.5367 664.559C20.8649 671.034 23.9992 675.889 27.9393 679.127C31.969 682.274 36.4465 683.847 41.3717 683.847C44.1477 683.847 47.1924 683.443 50.5057 682.634C53.9086 681.734 57.1771 680.026 60.3113 677.508L60.177 680.88L53.1922 682.634L62.3262 659.029H64.8783L63.5351 681.015C60.0427 683.173 56.3264 684.702 52.3862 685.601C48.5356 686.5 44.6402 686.95 40.7001 686.95Z" fill="black"/>
<path d="M113.558 686.95C108.633 686.95 103.887 685.961 99.3198 683.982C94.8423 682.004 90.8574 679.037 87.3649 675.08C83.8725 671.124 81.0965 666.223 79.0369 660.378C77.0668 654.533 76.0818 647.699 76.0818 639.876C76.0818 632.323 77.0668 625.669 79.0369 619.914C81.0965 614.069 83.8725 609.169 87.3649 605.212C90.8574 601.256 94.8423 598.243 99.3198 596.175C103.887 594.107 108.633 593.073 113.558 593.073C118.573 593.073 123.319 594.062 127.796 596.04C132.274 598.018 136.259 601.031 139.751 605.077C143.244 609.034 146.02 613.934 148.079 619.779C150.139 625.624 151.169 632.458 151.169 640.281C151.169 647.834 150.139 654.533 148.079 660.378C146.02 666.223 143.244 671.124 139.751 675.08C136.259 678.947 132.229 681.914 127.662 683.982C123.185 685.961 118.483 686.95 113.558 686.95ZM113.558 683.713C117.498 683.713 120.856 682.678 123.632 680.61C126.498 678.452 128.826 675.44 130.617 671.573C132.408 667.617 133.751 662.986 134.647 657.681C135.542 652.375 135.99 646.575 135.99 640.281C135.99 633.897 135.542 628.052 134.647 622.746C133.751 617.441 132.408 612.81 130.617 608.854C128.826 604.897 126.498 601.84 123.632 599.682C120.856 597.434 117.498 596.31 113.558 596.31C109.707 596.31 106.349 597.389 103.484 599.547C100.708 601.705 98.3795 604.762 96.499 608.719C94.708 612.585 93.3647 617.171 92.4692 622.477C91.6633 627.782 91.2603 633.582 91.2603 639.876C91.2603 646.171 91.6633 652.016 92.4692 657.411C93.3647 662.716 94.708 667.347 96.499 671.304C98.3795 675.26 100.708 678.317 103.484 680.475C106.349 682.634 109.707 683.713 113.558 683.713Z" fill="black"/>
<path d="M159.481 684.792V682.229L170.899 680.88H173.316L185.674 682.229V684.792H159.481ZM170.093 684.792V597.254H173.988V684.792H170.093ZM212.673 597.794V595.231H238.195V597.794L227.717 599.142H225.3L212.673 597.794ZM223.553 685.466L173.988 608.854H173.854L167.272 598.738L159.481 597.794V595.231H181.51L226.24 664.02H224.762V595.231H228.658V685.466H223.553Z" fill="black"/>
<path d="M246.322 684.792V682.229L260.292 680.475H266.739L282.59 682.229V684.792H246.322ZM256.128 684.792C256.307 681.195 256.441 677.013 256.531 672.248C256.62 667.482 256.665 662.536 256.665 657.411C256.665 652.195 256.665 647.25 256.665 642.574V636.639C256.665 631.963 256.665 627.108 256.665 622.072C256.665 617.037 256.62 612.226 256.531 607.64C256.441 602.964 256.307 598.828 256.128 595.231H271.172C270.993 598.828 270.859 602.964 270.769 607.64C270.68 612.316 270.59 617.171 270.501 622.207C270.501 627.153 270.501 631.963 270.501 636.639V642.574C270.501 647.25 270.501 652.195 270.501 657.411C270.59 662.536 270.68 667.482 270.769 672.248C270.859 677.013 270.993 681.195 271.172 684.792H256.128ZM263.784 640.821V637.314H287.425V640.821H263.784ZM289.977 654.039L285.545 640.416V637.853L289.977 624.23H292.395V654.039H289.977ZM246.322 597.794V595.231H266.739V599.547H260.292L246.322 597.794ZM303.947 619.24L294.679 596.849L299.649 598.603H262.575V595.231H304.753L306.365 619.24H303.947Z" fill="black"/>
<path d="M314.14 684.792V682.229L328.11 680.475H334.692L348.661 682.229V684.792H314.14ZM323.946 684.792C324.125 681.195 324.259 677.013 324.349 672.248C324.438 667.482 324.483 662.536 324.483 657.411C324.483 652.195 324.483 647.25 324.483 642.574V636.639C324.483 631.963 324.483 627.108 324.483 622.072C324.483 617.037 324.438 612.226 324.349 607.64C324.259 602.964 324.125 598.828 323.946 595.231H338.99C338.811 598.828 338.676 602.964 338.587 607.64C338.497 612.316 338.408 617.171 338.318 622.207C338.318 627.153 338.318 631.963 338.318 636.639V642.574C338.318 647.25 338.318 652.195 338.318 657.411C338.408 662.536 338.497 667.482 338.587 672.248C338.676 677.013 338.811 681.195 338.99 684.792H323.946ZM314.14 597.794V595.231H348.661V597.794L334.692 599.547H328.11L314.14 597.794Z" fill="black"/>
<path d="M357.953 684.792V682.229L371.922 680.475H375.146V684.792H357.953ZM367.758 684.792C367.937 681.195 368.072 677.013 368.161 672.248C368.251 667.482 368.296 662.536 368.296 657.411C368.296 652.195 368.296 647.25 368.296 642.574V636.639C368.296 631.963 368.296 627.153 368.296 622.207C368.296 617.171 368.251 612.316 368.161 607.64C368.072 602.964 367.937 598.828 367.758 595.231H382.802C382.623 598.828 382.489 602.964 382.399 607.64C382.31 612.316 382.22 617.171 382.131 622.207C382.131 627.153 382.131 631.963 382.131 636.639V642.574C382.131 647.25 382.131 652.195 382.131 657.411C382.22 662.536 382.31 667.482 382.399 672.248C382.489 677.013 382.623 681.195 382.802 684.792H367.758ZM376.892 684.792V681.42H389.653C395.921 681.42 401.16 679.711 405.369 676.294C409.667 672.877 412.891 668.066 415.04 661.862C417.279 655.657 418.398 648.374 418.398 640.011C418.398 626.253 415.98 615.913 411.145 608.989C406.309 602.065 399.414 598.603 390.459 598.603H376.892V595.231H391.534C400.22 595.231 407.697 596.984 413.966 600.491C420.234 603.998 425.025 609.079 428.338 615.733C431.741 622.297 433.442 630.3 433.442 639.741C433.442 649.363 431.607 657.546 427.935 664.29C424.353 670.944 419.383 676.024 413.025 679.531C406.667 683.038 399.369 684.792 391.131 684.792H376.892ZM357.953 597.794V595.231H375.146V599.547H371.922L357.953 597.794Z" fill="black"/>
<path d="M441.774 684.792V682.229L455.743 680.475H462.191V684.792H441.774ZM451.579 684.792C451.758 681.195 451.893 677.013 451.982 672.248C452.072 667.482 452.117 662.536 452.117 657.411C452.117 652.195 452.117 647.25 452.117 642.574V636.639C452.117 631.963 452.117 627.108 452.117 622.072C452.117 617.037 452.072 612.226 451.982 607.64C451.893 602.964 451.758 598.828 451.579 595.231H466.624C466.444 598.828 466.31 602.964 466.221 607.64C466.131 612.316 466.041 617.171 465.952 622.207C465.952 627.153 465.952 631.963 465.952 636.639V642.574C465.952 647.25 465.952 652.195 465.952 657.411C466.041 662.536 466.131 667.482 466.221 672.248C466.31 677.013 466.444 681.195 466.624 684.792H451.579ZM459.236 684.792V681.42H497.787L492.951 683.173L502.085 659.434H504.503L502.891 684.792H459.236ZM459.236 640.821V637.314H483.414V640.821H459.236ZM485.966 654.039L481.533 640.416V637.853L485.966 624.23H488.384V654.039H485.966ZM441.774 597.794V595.231H462.191V599.547H455.743L441.774 597.794ZM499.936 619.24L490.668 596.849L495.637 598.603H458.027V595.231H500.742L502.354 619.24H499.936Z" fill="black"/>
<path d="M513.917 684.792V682.229L525.335 680.88H527.752L540.11 682.229V684.792H513.917ZM524.529 684.792V597.254H528.424V684.792H524.529ZM567.109 597.794V595.231H592.631V597.794L582.153 599.142H579.736L567.109 597.794ZM577.989 685.466L528.424 608.854H528.29L521.708 598.738L513.917 597.794V595.231H535.946L580.676 664.02H579.198V595.231H583.094V685.466H577.989Z" fill="black"/>
<path d="M616.986 684.792V682.229L632.299 680.475H639.284L654.463 682.229V684.792H616.986ZM628.27 684.792C628.449 681.195 628.583 677.013 628.673 672.248C628.762 667.482 628.807 662.536 628.807 657.411C628.807 652.195 628.807 647.25 628.807 642.574V636.639C628.807 631.963 628.807 627.108 628.807 622.072C628.807 617.037 628.762 612.226 628.673 607.64C628.583 602.964 628.449 598.828 628.27 595.231H643.314C643.135 598.828 643 602.964 642.911 607.64C642.821 612.316 642.732 617.171 642.642 622.207C642.642 627.153 642.642 631.963 642.642 636.639V642.574C642.642 647.25 642.642 652.195 642.642 657.411C642.732 662.536 642.821 667.482 642.911 672.248C643 677.013 643.135 681.195 643.314 684.792H628.27ZM600.465 620.993L602.076 595.231H669.507L671.119 620.993H668.567L659.433 596.849L664.403 598.603H607.181L612.151 596.849L603.017 620.993H600.465Z" fill="black"/>
<path d="M678.939 684.792V682.229L692.909 680.475H699.49L713.46 682.229V684.792H678.939ZM688.744 684.792C688.924 681.195 689.058 677.013 689.147 672.248C689.237 667.482 689.282 662.536 689.282 657.411C689.282 652.195 689.282 647.25 689.282 642.574V636.639C689.282 631.963 689.282 627.108 689.282 622.072C689.282 617.037 689.237 612.226 689.147 607.64C689.058 602.964 688.924 598.828 688.744 595.231H703.789C703.61 598.828 703.475 602.964 703.386 607.64C703.296 612.316 703.207 617.171 703.117 622.207C703.117 627.153 703.117 631.963 703.117 636.639V642.574C703.117 647.25 703.117 652.195 703.117 657.411C703.207 662.536 703.296 667.482 703.386 672.248C703.475 677.013 703.61 681.195 703.789 684.792H688.744ZM678.939 597.794V595.231H713.46V597.794L699.49 599.547H692.909L678.939 597.794Z" fill="black"/>
<path d="M719.14 684.792V682.229L728.946 680.88H731.498L743.453 682.229V684.792H719.14ZM726.663 684.792L755.408 594.556H761.99L791.272 684.792H776.094L752.587 607.37H755.005L754.468 609.124L730.961 684.792H726.663ZM738.886 653.904V650.532H774.213V653.904H738.886ZM764.139 684.792V682.229L778.78 680.475H787.377L798.66 682.229V684.792H764.139Z" fill="black"/>
<path d="M804.211 684.792V682.229L818.181 680.475H824.629V684.792H804.211ZM814.017 684.792C814.196 681.195 814.331 677.013 814.42 672.248C814.51 667.482 814.554 662.536 814.554 657.411C814.554 652.195 814.554 647.25 814.554 642.574V636.639C814.554 631.963 814.554 627.153 814.554 622.207C814.554 617.171 814.51 612.316 814.42 607.64C814.331 602.964 814.196 598.828 814.017 595.231H829.061C828.882 598.828 828.748 602.964 828.658 607.64C828.569 612.316 828.479 617.171 828.39 622.207C828.39 627.153 828.39 631.963 828.39 636.639V642.574C828.39 647.25 828.39 652.195 828.39 657.411C828.479 662.536 828.569 667.482 828.658 672.248C828.748 677.013 828.882 681.195 829.061 684.792H814.017ZM821.674 684.792V681.42H859.015L854.046 683.173L863.18 658.49H865.732L864.12 684.792H821.674ZM804.211 597.794V595.231H838.733V597.794L824.763 599.547H818.181L804.211 597.794Z" fill="black"/>
<path d="M897.408 684.792V682.229L907.214 680.88H909.766L921.721 682.229V684.792H897.408ZM904.93 684.792L933.675 594.556H940.257L969.54 684.792H954.361L930.855 607.37H933.272L932.735 609.124L909.228 684.792H904.93ZM917.153 653.904V650.532H952.481V653.904H917.153ZM942.406 684.792V682.229L957.048 680.475H965.644L976.927 682.229V684.792H942.406Z" fill="black"/>
<path d="M982.479 684.792V682.229L996.449 680.475H1003.03L1017 682.229V684.792H982.479ZM992.284 684.792C992.464 681.195 992.598 677.013 992.687 672.248C992.777 667.482 992.822 662.536 992.822 657.411C992.822 652.195 992.822 647.25 992.822 642.574V636.639C992.822 631.963 992.822 627.108 992.822 622.072C992.822 617.037 992.777 612.226 992.687 607.64C992.598 602.964 992.464 598.828 992.284 595.231H1007.33C1007.15 598.828 1007.02 602.964 1006.93 607.64C1006.84 612.316 1006.75 617.171 1006.66 622.207C1006.66 627.153 1006.66 631.963 1006.66 636.639V642.574C1006.66 647.25 1006.66 652.195 1006.66 657.411C1006.75 662.536 1006.84 667.482 1006.93 672.248C1007.02 677.013 1007.15 681.195 1007.33 684.792H992.284ZM982.479 597.794V595.231H1017V597.794L1003.03 599.547H996.449L982.479 597.794Z" fill="black"/>
</svg>
