<?xml version="1.0" encoding="UTF-8"?><svg id="Layer_1" xmlns="http://www.w3.org/2000/svg" viewBox="0 0 655.54 654.38"><defs><style>.cls-1{fill-rule:evenodd;}</style></defs><path class="cls-1" d="M89.69,552.96C34.11,494.22,0,414.95,0,327.77,0,146.87,146.87,0,327.77,0s327.77,146.87,327.77,327.77c0,87.29-34.19,166.65-89.89,225.4l-122.41-170.5c7.93-16.64,12.37-35.25,12.37-54.9,0-70.56-57.28-127.84-127.84-127.84s-127.85,57.28-127.85,127.84c0,19.53,4.39,38.05,12.24,54.6l-122.47,170.59h0Z"/><path class="cls-1" d="M445.72,536.43c0,65.1-52.85,117.95-117.95,117.95s-117.95-52.85-117.95-117.95,52.85-117.95,117.95-117.95,117.95,52.85,117.95,117.95h0Z"/></svg>