<?xml version="1.0" standalone="no"?>
<!DOCTYPE svg PUBLIC "-//W3C//DTD SVG 20010904//EN"
 "http://www.w3.org/TR/2001/REC-SVG-20010904/DTD/svg10.dtd">
<svg version="1.0" xmlns="http://www.w3.org/2000/svg"
 width="857.000000pt" height="567.000000pt" viewBox="0 0 857.000000 567.000000"
 preserveAspectRatio="xMidYMid meet">

<g transform="translate(0.000000,567.000000) scale(0.100000,-0.100000)"
fill="#000000" stroke="none">
<path d="M0 4545 l0 -1125 3875 0 3875 0 0 -90 0 -90 -3875 0 -3875 0 0 -1620
0 -1620 4285 0 4285 0 0 2835 0 2835 -4285 0 -4285 0 0 -1125z m2231 141 c75
-17 137 -55 189 -113 80 -91 113 -189 113 -333 0 -108 -15 -174 -65 -278 -77
-162 -223 -277 -384 -302 -189 -29 -349 51 -432 216 -125 249 -12 617 233 760
99 57 234 77 346 50z m-738 -5 c21 -5 41 -12 44 -15 8 -8 -28 -165 -39 -172
-4 -3 -27 0 -50 7 -68 19 -178 14 -230 -9 -103 -45 -179 -156 -197 -286 -11
-79 0 -170 29 -225 25 -49 86 -106 135 -127 49 -20 167 -22 248 -4 31 7 59 11
62 8 3 -2 -2 -43 -11 -90 l-16 -86 -74 -11 c-201 -30 -371 8 -462 103 -146
150 -173 413 -66 618 72 136 221 251 367 283 72 16 205 18 260 6z m4610 0 c21
-5 41 -12 44 -15 8 -8 -28 -165 -39 -172 -4 -3 -27 0 -50 7 -68 19 -178 14
-230 -9 -103 -45 -179 -156 -197 -286 -11 -79 0 -170 29 -225 25 -49 86 -106
135 -127 49 -20 167 -22 248 -4 31 7 59 11 62 8 3 -2 -2 -43 -11 -90 l-16 -86
-74 -11 c-201 -30 -371 8 -462 103 -146 150 -173 413 -66 618 72 136 221 251
367 283 72 16 205 18 260 6z m-3128 -66 c12 -33 75 -166 140 -295 65 -129 130
-268 145 -309 l27 -75 1 113 c1 61 8 191 17 289 8 97 16 213 18 257 l2 80 84
3 c46 2 89 1 96 -1 8 -4 3 -65 -16 -218 -16 -118 -37 -322 -49 -454 -12 -132
-23 -259 -26 -282 l-5 -43 -88 0 -87 0 -46 98 c-26 53 -97 192 -157 307 -61
116 -124 244 -141 285 l-29 75 -1 -99 c0 -54 -7 -171 -15 -260 -8 -88 -19
-215 -23 -281 l-7 -120 -93 -3 -93 -3 6 33 c15 86 65 540 75 673 6 83 13 183
16 223 l6 73 110 -3 110 -3 23 -60z m1010 0 c12 -33 75 -166 140 -295 65 -129
130 -268 145 -309 l27 -75 1 113 c1 61 8 191 17 289 8 97 16 213 18 257 l2 80
84 3 c46 2 89 1 96 -1 8 -4 3 -65 -16 -218 -16 -118 -37 -322 -49 -454 -12
-132 -23 -259 -26 -282 l-5 -43 -88 0 -87 0 -46 98 c-26 53 -97 192 -157 307
-61 116 -124 244 -141 285 l-29 75 -1 -99 c0 -54 -7 -171 -15 -260 -8 -88 -19
-215 -23 -281 l-7 -120 -93 -3 -93 -3 6 33 c15 86 65 540 75 673 6 83 13 183
16 223 l6 73 110 -3 110 -3 23 -60z m1346 60 c3 -2 0 -40 -6 -82 l-10 -78
-196 3 -196 2 -10 -117 c-5 -65 -8 -122 -5 -126 2 -5 73 -5 158 -1 l154 7 0
-35 c0 -19 -3 -56 -6 -81 l-7 -47 -161 -2 -161 -3 -7 -75 c-3 -41 -9 -104 -12
-139 l-7 -64 214 8 214 7 -9 -64 c-5 -34 -11 -73 -14 -85 l-4 -23 -311 0 -311
0 6 33 c14 76 66 544 76 677 6 80 13 178 16 218 l6 72 292 0 c161 0 295 -2
297 -5z m1655 -62 c-12 -114 2 -106 -150 -97 l-133 7 -6 -39 c-14 -90 -57
-540 -63 -666 l-7 -138 -109 0 -110 0 6 38 c23 141 86 714 86 775 l0 29 -141
-7 c-135 -7 -141 -7 -136 11 3 11 9 46 13 79 3 33 8 63 11 68 2 4 171 7 375 7
l370 0 -6 -67z m-1929 -1766 c35 -7 65 -16 68 -19 3 -3 -2 -56 -12 -117 -17
-113 -17 -113 -42 -107 -328 73 -559 56 -727 -52 -84 -54 -168 -152 -214 -247
-59 -123 -74 -190 -74 -340 0 -156 14 -220 81 -355 39 -80 60 -109 137 -185
98 -98 181 -147 301 -180 74 -20 255 -30 360 -20 l78 7 -7 73 c-4 40 -11 179
-16 308 -5 129 -10 241 -12 248 -2 11 21 14 120 14 l124 0 1 -390 0 -389 -59
-18 c-251 -74 -607 -67 -829 17 -248 93 -433 305 -500 569 -88 352 11 708 267
952 142 136 298 208 523 244 81 12 355 4 432 -13z m-1682 -444 c-4 -60 -9
-110 -11 -112 -2 -2 -54 1 -116 8 -62 7 -208 15 -324 18 l-211 6 -6 -39 c-10
-67 -26 -255 -30 -351 l-3 -93 51 0 c95 0 269 -22 362 -45 285 -72 413 -225
413 -490 0 -144 -38 -252 -126 -362 -180 -223 -438 -344 -811 -378 -79 -8 -71
-13 -91 70 -25 103 -31 92 51 99 311 31 541 131 659 287 48 64 71 137 71 224
0 137 -54 242 -155 303 -98 58 -336 102 -557 102 l-83 0 6 33 c16 92 75 718
76 810 0 16 27 17 421 17 l421 0 -7 -107z"/>
<path d="M2044 4521 c-142 -36 -247 -233 -231 -435 6 -88 35 -153 88 -201 50
-45 76 -55 141 -55 101 0 174 57 234 184 65 137 68 277 11 389 -50 96 -146
143 -243 118z"/>
</g>
</svg>
