<svg xmlns="http://www.w3.org/2000/svg" role="img" viewBox="-17.84 -11.84 927.68 237.18"><style>svg {enable-background:new 0 0 892.3 216}</style><style>.st0{fill:#2c56dd}</style><g id="Consensys"><g id="main-Logo"><path d="M91.9 207.1c-.2 0-.3.2-.3.3 0 .2.2.3.3.3.2 0 .3-.2.3-.3 0-.1-.1-.3-.3-.3zm-9.5-3.3c-.4 0-.7.3-.7.7 0 .4.3.7.7.7.4 0 .7-.3.7-.7-.1-.4-.4-.7-.7-.7zm-9.2-4.3c-.6 0-1 .5-1 1 0 .6.5 1 1 1 .6 0 1-.5 1-1s-.4-1-1-1zm-8.7-5.2c-.8 0-1.4.6-1.4 1.4 0 .8.6 1.4 1.4 1.4.8 0 1.4-.6 1.4-1.4 0-.8-.7-1.4-1.4-1.4zm-8.2-6.2c-.9 0-1.7.8-1.7 1.7 0 .9.8 1.7 1.7 1.7.9 0 1.7-.8 1.7-1.7.1-.9-.7-1.7-1.7-1.7zm-7.4-6.9c-1.1 0-2.1.9-2.1 2.1 0 1.1.9 2.1 2.1 2.1 1.1 0 2.1-.9 2.1-2.1-.1-1.2-1-2.1-2.1-2.1zm-6.8-7.7c-1.3 0-2.4 1.1-2.4 2.4 0 1.3 1.1 2.4 2.4 2.4 1.3 0 2.4-1.1 2.4-2.4 0-1.3-1.1-2.4-2.4-2.4zm-5.9-8.4c-1.5 0-2.8 1.2-2.8 2.8 0 1.5 1.2 2.8 2.8 2.8 1.5 0 2.8-1.2 2.8-2.8-.1-1.6-1.3-2.8-2.8-2.8zm-1.8-6c0-1.7-1.4-3.1-3.1-3.1-1.7 0-3.1 1.4-3.1 3.1 0 1.7 1.4 3.1 3.1 3.1 1.7 0 3.1-1.4 3.1-3.1zm-3.3-9.3c0-1.9-1.5-3.4-3.4-3.4s-3.4 1.5-3.4 3.4 1.5 3.4 3.4 3.4c1.8.1 3.4-1.5 3.4-3.4zm-2.1-9.7c0-2.1-1.7-3.8-3.8-3.8-2.1 0-3.8 1.7-3.8 3.8 0 2.1 1.7 3.8 3.8 3.8 2.1 0 3.8-1.7 3.8-3.8zm-.8-9.9c0-2.3-1.8-4.1-4.1-4.1s-4.1 1.8-4.1 4.1 1.8 4.1 4.1 4.1c2.3.1 4.1-1.8 4.1-4.1zm-3.9-5.5c2.5 0 4.5-2 4.5-4.5s-2-4.5-4.5-4.5-4.5 2-4.5 4.5 2 4.5 4.5 4.5zM21 110.4c0 2.7 2.2 4.8 4.8 4.8s4.8-2.2 4.8-4.8c0-2.7-2.2-4.8-4.8-4.8-2.7-.1-4.8 2.1-4.8 4.8zm144.5 73.7c-.2 0-.3.1-.3.3 0 .2.1.3.3.3.2 0 .3-.1.3-.3 0-.1-.1-.3-.3-.3zm-8.8 4.4c-.3 0-.6.3-.6.6s.3.6.6.6.6-.3.6-.6c0-.4-.3-.6-.6-.6zm-9.3 3.3c-.5 0-.9.4-.9.9s.4.9.9.9.9-.4.9-.9c0-.4-.4-.9-.9-.9zm-9.6 2.4c-.7 0-1.2.5-1.2 1.2s.5 1.2 1.2 1.2 1.2-.5 1.2-1.2c0-.6-.6-1.2-1.2-1.2zm-9.9 1.4c-.8 0-1.5.7-1.5 1.5s.7 1.5 1.5 1.5 1.5-.7 1.5-1.5-.7-1.5-1.5-1.5zm-10 .3c-1 0-1.8.8-1.8 1.8s.8 1.8 1.8 1.8 1.8-.8 1.8-1.8c.1-1-.7-1.8-1.8-1.8.1 0 .1 0 0 0zm-9.9-.7c-1.2 0-2.1 1-2.1 2.1 0 1.2 1 2.1 2.1 2.1 1.2 0 2.1-1 2.1-2.1 0-1.2-1-2.1-2.1-2.1zm-9.9-1.8c-1.3 0-2.4 1.1-2.4 2.4 0 1.3 1.1 2.4 2.4 2.4 1.3 0 2.4-1.1 2.4-2.4 0-1.3-1.1-2.4-2.4-2.4zm-9.6-3.1c-1.5 0-2.7 1.2-2.7 2.7 0 1.5 1.2 2.7 2.7 2.7 1.5 0 2.7-1.2 2.7-2.7 0-1.4-1.2-2.7-2.7-2.7zm-9.2-4.2c-1.7 0-3 1.4-3 3 0 1.7 1.4 3 3 3 1.7 0 3-1.4 3-3 .1-1.7-1.3-3-3-3zm-5.2-2.1c0-1.8-1.5-3.3-3.3-3.3-1.8 0-3.3 1.5-3.3 3.3 0 1.8 1.5 3.3 3.3 3.3 1.8 0 3.3-1.5 3.3-3.3zM63 174.1c-2 0-3.6 1.6-3.6 3.6s1.6 3.6 3.6 3.6 3.6-1.6 3.6-3.6-1.6-3.6-3.6-3.6zm-7-7.5c-2.2 0-4 1.8-4 4s1.8 4 4 4 4-1.8 4-4-1.8-4-4-4zm-5.9.2c2.4 0 4.3-1.9 4.3-4.3s-1.9-4.3-4.3-4.3-4.3 1.9-4.3 4.3 1.9 4.3 4.3 4.3zm-.3-13c0-2.5-2-4.6-4.6-4.6-2.5 0-4.6 2-4.6 4.6 0 2.5 2 4.6 4.6 4.6 2.6-.1 4.6-2.1 4.6-4.6zm151.5-38c-.1 0-.3.1-.3.3 0 .2.1.3.3.3.2 0 .3-.1.3-.3-.1-.2-.2-.3-.3-.3zm-3 9.3c-.3 0-.5.2-.5.5s.2.5.5.5.5-.2.5-.5-.2-.5-.5-.5zm-4 8.9c-.5 0-.8.4-.8.8s.4.8.8.8c.5 0 .8-.4.8-.8 0-.5-.3-.8-.8-.8zm-4.9 8.4c-.6 0-1.1.5-1.1 1.1 0 .6.5 1.1 1.1 1.1.6 0 1.1-.5 1.1-1.1 0-.6-.5-1.1-1.1-1.1zm-5.8 7.9c-.8 0-1.4.6-1.4 1.4 0 .8.6 1.4 1.4 1.4.7 0 1.4-.6 1.4-1.4 0-.8-.6-1.4-1.4-1.4zm-6.6 7.2c-.9 0-1.6.7-1.6 1.6 0 .9.7 1.6 1.6 1.6.9 0 1.6-.7 1.6-1.6.1-.9-.7-1.6-1.6-1.6zm-7.3 6.5c-1.1 0-1.9.9-1.9 1.9 0 1.1.9 1.9 1.9 1.9 1.1 0 1.9-.9 1.9-1.9 0-1.1-.9-1.9-1.9-1.9zm-8.1 5.6c-1.2 0-2.2 1-2.2 2.2 0 1.2 1 2.2 2.2 2.2 1.2 0 2.2-1 2.2-2.2 0-1.2-1-2.2-2.2-2.2zm-8.7 4.6c-1.4 0-2.5 1.1-2.5 2.4 0 1.4 1.1 2.5 2.4 2.5 1.4 0 2.5-1.1 2.5-2.4.1-1.4-1-2.5-2.4-2.5zm-9.3 3.4c-1.5 0-2.7 1.2-2.7 2.7 0 1.5 1.2 2.7 2.7 2.7 1.5 0 2.7-1.2 2.7-2.7 0-1.5-1.2-2.7-2.7-2.7zm-9.7 2.1c-1.7 0-3 1.3-3 3s1.3 3 3 3 3-1.3 3-3c0-1.6-1.3-2.9-3-3zm-9.9.9c-1.8 0-3.3 1.5-3.3 3.3s1.5 3.3 3.3 3.3c1.8 0 3.3-1.5 3.3-3.3 0-1.8-1.5-3.3-3.3-3.3zm-6.4 3.1c0-2-1.6-3.5-3.5-3.5-2 0-3.5 1.6-3.5 3.5s1.6 3.5 3.5 3.5 3.5-1.6 3.5-3.5zm-9.6-1.5c0-2.1-1.7-3.8-3.8-3.8-2.1 0-3.8 1.7-3.8 3.8 0 2.1 1.7 3.8 3.8 3.8 2.1 0 3.8-1.7 3.8-3.8zm-9.3-2.8c0-2.3-1.8-4.1-4.1-4.1s-4.1 1.8-4.1 4.1 1.8 4.1 4.1 4.1c2.2 0 4-1.8 4.1-4.1zm-8.9-3.9c0-2.4-2-4.4-4.4-4.4-2.4 0-4.4 2-4.4 4.4 0 2.4 2 4.4 4.4 4.4 2.4-.1 4.4-2 4.4-4.4zm88.4-132.7c.1 0 .3-.1.3-.3 0-.1-.1-.3-.3-.3-.1 0-.3.1-.3.3 0 .1.2.3.3.3zm4.7 9.1c.3 0 .5-.2.5-.5s-.2-.5-.5-.5-.5.2-.5.5c-.1.2.2.5.5.5zm3.6 9.5c.4 0 .8-.4.8-.8s-.4-.8-.8-.8-.8.4-.8.8c0 .5.4.8.8.8zm2.7 9.9c.6 0 1.1-.5 1.1-1.1 0-.6-.5-1.1-1.1-1.1s-1.1.5-1.1 1.1c.1.6.5 1.1 1.1 1.1zm.3 8.8c0 .8.6 1.4 1.4 1.4.8 0 1.4-.6 1.4-1.4 0-.8-.6-1.4-1.4-1.4-.8 0-1.4.6-1.4 1.4zm2 8.3c-.9 0-1.6.7-1.6 1.6 0 .9.7 1.6 1.6 1.6.9 0 1.6-.7 1.6-1.6.1-.9-.7-1.6-1.6-1.6zm-.4 9.7c-1.1 0-1.9.9-1.9 1.9s.9 1.9 1.9 1.9 1.9-.9 1.9-1.9c0-1-.9-1.9-1.9-1.9zm-1.5 9.6c-1.2 0-2.2 1-2.2 2.2s1 2.2 2.2 2.2c1.2 0 2.2-1 2.2-2.2 0-1.2-1-2.2-2.2-2.2zm-.3 11.8c0-1.4-1.1-2.5-2.5-2.5s-2.5 1.1-2.5 2.5 1.1 2.5 2.5 2.5c1.4-.1 2.5-1.1 2.5-2.5zm-6.4 6.4c-1.5 0-2.7 1.2-2.7 2.7 0 1.5 1.2 2.7 2.7 2.7s2.7-1.2 2.7-2.7c0-1.4-1.2-2.7-2.7-2.7zm-5.2 8.3c-1.7 0-3 1.3-3 3s1.3 3 3 3 3-1.3 3-3c0-1.6-1.3-3-3-3zm-6.2 7.6c-1.8 0-3.3 1.5-3.3 3.3 0 1.8 1.5 3.3 3.3 3.3 1.8 0 3.3-1.5 3.3-3.3 0-1.9-1.5-3.3-3.3-3.3zm-7.2 6.6c-2 0-3.5 1.6-3.5 3.5 0 2 1.6 3.5 3.5 3.5 2 0 3.5-1.6 3.5-3.5.1-1.9-1.5-3.5-3.5-3.5zm-8 5.7c-2.1 0-3.8 1.7-3.8 3.8s1.7 3.8 3.8 3.8c2.1 0 3.8-1.7 3.8-3.8 0-2.1-1.7-3.8-3.8-3.8zm-8.7 4.5c-2.3 0-4.1 1.8-4.1 4.1s1.8 4.1 4.1 4.1 4.1-1.8 4.1-4.1c0-2.2-1.9-4.1-4.1-4.1zm-9.3 3.4c-2.4 0-4.4 2-4.4 4.4 0 2.4 2 4.4 4.4 4.4 2.4 0 4.4-2 4.4-4.4-.1-2.4-2-4.4-4.4-4.4zM109.9 7c.1 0 .3-.1.3-.3 0-.1-.1-.3-.3-.3-.1 0-.3.1-.3.3 0 .2.1.3.3.3zm9.5 3.2c.3 0 .5-.2.5-.5s-.2-.5-.5-.5-.5.2-.5.5.2.5.5.5zm9.2 4.3c.5 0 .8-.4.8-.8 0-.5-.4-.8-.8-.8-.5 0-.8.4-.8.8s.3.8.8.8zm8.7 5.1c.6 0 1.1-.5 1.1-1.1 0-.6-.5-1.1-1.1-1.1-.6 0-1.1.5-1.1 1.1 0 .6.5 1.1 1.1 1.1zm8.1 6.1c.7 0 1.4-.6 1.4-1.4 0-.7-.6-1.4-1.4-1.4-.7 0-1.4.6-1.4 1.4.1.8.7 1.4 1.4 1.4zm7.5 6.9c.9 0 1.6-.7 1.6-1.6 0-.9-.7-1.6-1.6-1.6-.9 0-1.6.7-1.6 1.6 0 .8.7 1.6 1.6 1.6zm6.8 7.6c1.1 0 1.9-.9 1.9-1.9 0-1.1-.9-1.9-1.9-1.9-1.1 0-1.9.9-1.9 1.9 0 1.1.8 1.9 1.9 1.9zm5.9 8.3c1.2 0 2.2-1 2.2-2.2 0-1.2-1-2.2-2.2-2.2-1.2 0-2.2 1-2.2 2.2 0 1.2 1 2.2 2.2 2.2zm4.9 9c1.4 0 2.4-1.1 2.4-2.5s-1.1-2.4-2.5-2.4c-1.3 0-2.4 1.1-2.4 2.4 0 1.4 1.1 2.5 2.5 2.5-.1 0-.1 0 0 0zm.9 6.8c0 1.5 1.2 2.7 2.7 2.7 1.5 0 2.7-1.2 2.7-2.7 0-1.5-1.2-2.7-2.7-2.7-1.5 0-2.7 1.2-2.7 2.7zm2.1 9.7c0 1.7 1.3 3 3 3s3-1.3 3-3-1.3-3-3-3c-1.6 0-3 1.4-3 3zm.9 10c0 1.8 1.5 3.3 3.3 3.3 1.8 0 3.3-1.5 3.3-3.3 0-1.8-1.5-3.3-3.3-3.3-1.9 0-3.3 1.5-3.3 3.3zm6.6 9.9c0-2-1.6-3.5-3.5-3.5-2 0-3.5 1.6-3.5 3.5 0 2 1.6 3.5 3.5 3.5 1.9.1 3.5-1.5 3.5-3.5 0 .1 0 0 0 0zm-1.2 9.9c0-2.1-1.7-3.8-3.8-3.8s-3.8 1.7-3.8 3.8c0 2.1 1.7 3.8 3.8 3.8 2.1 0 3.8-1.7 3.8-3.8zm-2.5 9.6c0-2.3-1.8-4.1-4.1-4.1s-4.1 1.8-4.1 4.1 1.8 4.1 4.1 4.1 4.1-1.8 4.1-4.1zm-8.1 4.8c-2.4 0-4.4 2-4.4 4.4 0 2.4 2 4.4 4.4 4.4 2.4 0 4.4-2 4.4-4.4 0-2.4-1.9-4.4-4.4-4.4zM36.3 30c.1 0 .3-.1.3-.3 0-.2-.1-.3-.3-.3s-.3.2-.3.4c0 .1.1.2.3.2zm8.8-4.3c.3 0 .5-.2.5-.5s-.2-.5-.5-.5-.5.2-.5.5c0 .2.2.5.5.5zm9.3-3.5c.5 0 .8-.4.8-.8 0-.5-.4-.8-.8-.8-.5 0-.8.4-.8.8 0 .5.3.8.8.8zm9.6-2.4c.6 0 1.1-.5 1.1-1.1 0-.6-.5-1.1-1.1-1.1-.6 0-1.1.5-1.1 1.1 0 .6.5 1.1 1.1 1.1zm9.9-1.4c.8 0 1.4-.6 1.4-1.4 0-.8-.6-1.4-1.4-1.4-.7 0-1.4.6-1.4 1.4 0 .8.6 1.4 1.4 1.4-.1 0 0 0 0 0zm9.9-.3c.9 0 1.6-.7 1.6-1.6 0-.9-.7-1.6-1.6-1.6-.9 0-1.6.7-1.6 1.6 0 .9.7 1.6 1.6 1.6zm10 .7c1.1 0 1.9-.8 1.9-1.9s-.8-1.9-1.9-1.9c-1.1 0-1.9.8-1.9 1.9 0 1 .8 1.9 1.9 1.9zm9.9 1.7c1.2 0 2.2-1 2.2-2.2 0-1.2-1-2.2-2.2-2.2-1.2 0-2.2 1-2.2 2.2 0 1.3 1 2.2 2.2 2.2zm9.6 3.1c1.4 0 2.5-1.1 2.5-2.4 0-1.4-1.1-2.5-2.4-2.5-1.4 0-2.5 1.1-2.5 2.4-.1 1.4 1 2.5 2.4 2.5zm9.1 4.2c1.5 0 2.7-1.2 2.7-2.7s-1.2-2.7-2.7-2.7c-1.5 0-2.7 1.2-2.7 2.7 0 1.5 1.2 2.7 2.7 2.7zm5.6 2.4c0 1.7 1.3 3 3 3s3-1.3 3-3-1.3-3-3-3-3 1.4-3 3zm10.8 9.5c1.8 0 3.3-1.5 3.3-3.3s-1.5-3.3-3.3-3.3c-1.8 0-3.3 1.5-3.3 3.3 0 1.9 1.5 3.3 3.3 3.3zm6.9 7.5c2 0 3.5-1.6 3.5-3.5 0-2-1.6-3.5-3.5-3.5-2 0-3.5 1.6-3.5 3.5s1.6 3.5 3.5 3.5zm6 .7c-2.1 0-3.8 1.7-3.8 3.8 0 2.1 1.7 3.8 3.8 3.8 2.1 0 3.8-1.7 3.8-3.8 0-2.1-1.7-3.8-3.8-3.8zm.7 12.5c0 2.3 1.8 4.1 4.1 4.1s4.1-1.8 4.1-4.1-1.8-4.1-4.1-4.1c-2.2 0-4.1 1.8-4.1 4.1zm3.4 9.3c0 2.4 1.9 4.4 4.4 4.4 2.4 0 4.4-1.9 4.4-4.4 0-2.4-1.9-4.4-4.3-4.4-2.5 0-4.5 2-4.5 4.4zm6.8 5c-2.6 0-4.6 2.1-4.6 4.6 0 2.6 2.1 4.6 4.6 4.6 2.6 0 4.6-2.1 4.6-4.6 0-2.5-2.1-4.6-4.6-4.6zM.5 97.6c-.3 0-.5.2-.5.5s.2.5.5.5.5-.2.5-.5-.2-.5-.5-.5zm3-10.1c-.6 0-1 .5-1 1 0 .6.5 1 1 1 .6 0 1-.5 1-1s-.4-1-1-1zM9 79.4c0-.9-.7-1.5-1.5-1.5-.9 0-1.5.7-1.5 1.5 0 .9.7 1.5 1.5 1.5S9 80.2 9 79.4zm3.3-6.7c1.1 0 2.1-.9 2.1-2.1 0-1.1-.9-2.1-2.1-2.1-1.1 0-2.1.9-2.1 2.1.1 1.2 1 2.1 2.1 2.1zm5.8-7.6c1.4 0 2.6-1.1 2.6-2.6 0-1.4-1.1-2.6-2.6-2.6-1.4 0-2.6 1.1-2.6 2.6s1.2 2.6 2.6 2.6zm6.6-7c1.7 0 3.1-1.4 3.1-3.1 0-1.7-1.4-3.1-3.1-3.1-1.7 0-3.1 1.4-3.1 3.1 0 1.8 1.4 3.1 3.1 3.1zm7.4-6.2c2 0 3.6-1.6 3.6-3.6s-1.6-3.6-3.6-3.6-3.6 1.6-3.6 3.6 1.6 3.6 3.6 3.6zm8-5.4c2.3 0 4.1-1.8 4.1-4.1s-1.8-4.1-4.1-4.1-4.1 1.8-4.1 4.1c0 2.2 1.8 4.1 4.1 4.1zm8.7-4.4c2.6 0 4.6-2.1 4.6-4.6 0-2.6-2.1-4.6-4.6-4.6-2.6 0-4.6 2.1-4.6 4.6 0 2.5 2 4.6 4.6 4.6z" class="st0"/><path d="M58.1 38.8c2.5 0 4.7-1.9 5.1-4.4 1.8 2.6 5.3 3.2 7.8 1.4.8-.5 1.4-1.2 1.8-2 2 2.7 5.9 3.3 8.6 1.2.3-.2.6-.5.9-.8 2.1 3 6.2 3.7 9.2 1.6.2.4.5.8.9 1.1-1.6.2-3.2.9-4.4 2-2.9-2.7-7.4-2.5-10.1.5-.2.2-.3.4-.5.6-1.2-.9-2.6-1.4-4.2-1.4-2.6 0-5 1.5-6.1 3.9-2.9-2-6.9-1.2-8.8 1.7-.4.7-.8 1.4-.9 2.2-2.8-1.7-6.5-.8-8.2 2-.6.9-.9 2-.9 3.1-2.7-1.5-6.1-.6-7.6 2-.5.8-.7 1.8-.7 2.8 0 .5.1 1 .2 1.5-.8-.5-1.7-.8-2.7-.8-2.9 0-5.2 2.3-5.2 5.2 0 2.9 2.3 5.2 5.2 5.2 2.9 0 5.2-2.3 5.2-5.2 0-.4-.1-.9-.2-1.3 2.6 1.7 6 1 7.7-1.6.6-.8.9-1.8.9-2.8 1 .6 2.1.9 3.2.9h.3c-1.3 1.2-2.1 2.8-2.2 4.5-3.5-.7-7 1.7-7.6 5.2-.1.4-.1.8-.1 1.2 0 .3 0 .5.1.8h-.7c-3.4 0-6.2 2.8-6.2 6.2 0 .7.1 1.3.3 2h-.4c-3.2 0-5.8 2.6-5.9 5.8 0 1.1.3 2.2.9 3.1h-.2c-3 0-5.5 2.5-5.5 5.5 0 1.5.6 3 1.8 4h-.2c-2.9 0-5.2 2.3-5.2 5.2 0 2.9 2.3 5.2 5.2 5.2 2.9 0 5.2-2.3 5.2-5.2 0-1.4-.6-2.7-1.5-3.7h.4c1.5 0 3-.6 4-1.8v.2c0 1.4.4 2.7 1.2 3.8-3.2 1.1-4.8 4.6-3.7 7.7.4 1 1 1.9 1.8 2.6-2.9 1.3-4.2 4.7-2.9 7.6.5 1.2 1.4 2.1 2.6 2.7-2.7 1.4-3.8 4.6-2.4 7.3.7 1.4 2.1 2.5 3.7 2.9-2.5 1.3-3.6 4.4-2.3 6.9.9 1.7 2.7 2.8 4.6 2.8.3 0 .6 0 .9-.1-2.5.8-3.9 3.6-3 6.1.8 2.5 3.6 3.9 6.1 3 2.5-.8 3.9-3.6 3-6.1-.7-2-2.5-3.3-4.6-3.3-.3 0-.6 0-.9.1 2.2-.7 3.6-2.6 3.6-4.9v-.4c.8.9 1.9 1.5 3 1.8-2 2.4-1.8 6 .6 8 1 .9 2.4 1.4 3.7 1.4h.1c-1.8 2.4-1.2 5.8 1.2 7.6.9.7 2.1 1 3.2 1 .5 0 1.1-.1 1.6-.2-1.6 2.4-.9 5.6 1.5 7.2.8.6 1.8.9 2.9.9 1.2 0 2.3-.4 3.2-1.2-1.8 2-1.5 5.1.5 6.9 2 1.8 5.1 1.5 6.9-.5 1.6-1.9 1.6-4.8-.2-6.6.6 0 1.3-.1 1.9-.3v.1c0 2.2 1.3 4.3 3.3 5.3-.3-.1-.6-.1-.9-.1-2.6 0-4.7 2.1-4.7 4.6 0 2.6 2.1 4.7 4.6 4.7 2.6 0 4.7-2.1 4.7-4.6 0-1.7-.9-3.3-2.4-4.2.5.1 1 .2 1.4.2 1.1 0 2.2-.3 3.2-.9.3 3.1 3 5.5 6.2 5.2 1.4-.1 2.7-.7 3.7-1.7.5 3 3.3 5 6.2 4.5 1.7-.3 3.1-1.3 3.9-2.8.6 2.8 3.3 4.6 6.1 4 2.2-.4 3.9-2.3 4.1-4.5.2 2.7 2.5 4.7 5.2 4.5 2.7-.2 4.7-2.5 4.5-5.2-.2-2.5-2.2-4.5-4.8-4.5.4-.5.8-1 1.1-1.6 1.6 1.6 3.9 2.2 6.1 1.5-2.1 1.4-2.7 4.3-1.2 6.4 1.4 2.1 4.3 2.7 6.4 1.2 2.1-1.4 2.7-4.3 1.2-6.4-.9-1.3-2.3-2-3.8-2-.5 0-.9.1-1.3.2 1.4-.8 2.4-2.2 2.7-3.8 1 .9 2.3 1.4 3.7 1.4 3.2 0 5.7-2.6 5.7-5.7v-.1c.9.7 2 1 3.2 1 3 0 5.4-2.4 5.4-5.4 0-.5-.1-1.1-.2-1.6 2.4 1.6 5.6 1 7.2-1.4 1.3-1.9 1.2-4.4-.3-6.1.9.8 2 1.2 3.2 1.2 2.7 0 4.9-2.2 4.9-4.9s-2.2-4.9-4.9-4.9c-1.3 0-2.5.5-3.4 1.4 0-.6-.1-1.3-.3-1.9h.1c2.2 0 4.3-1.3 5.3-3.3-.1.3-.1.6-.1.9 0 2.6 2 4.7 4.6 4.7 2.6 0 4.7-2 4.7-4.6 0-2.6-2-4.7-4.6-4.7-1.7 0-3.3.9-4.2 2.4.1-.5.2-.9.2-1.4 0-1.1-.3-2.2-.9-3.2 3.1-.3 5.5-3 5.2-6.2-.1-1.4-.7-2.7-1.7-3.7 3-.5 5-3.3 4.5-6.2-.3-1.7-1.3-3.1-2.8-3.9 2.8-.6 4.6-3.3 4-6.1-.4-2.2-2.3-3.9-4.5-4.1 2.7-.2 4.8-2.5 4.6-5.2-.2-2.7-2.5-4.8-5.2-4.6-2.7.2-4.8 2.5-4.6 5.2.1 2.4 2 4.3 4.3 4.6-2.8.2-5 2.6-4.8 5.4.1 1.8 1.1 3.4 2.7 4.2-3 .5-4.9 3.3-4.4 6.3.2 1.1.7 2.1 1.5 2.9-3.1.4-5.3 3.3-4.9 6.4.1.8.4 1.5.7 2.1-3.2.2-5.7 2.8-5.7 6 0 .6.1 1.2.3 1.7h-.3c-3.5 0-6.3 2.8-6.3 6.3v.4c-.3-.1-.7-.1-1-.1-3.2 0-6 2.4-6.5 5.6-.6-.2-1.2-.2-1.8-.2-2.6 0-5 1.5-6.2 3.9-2.6-2.1-6.3-1.7-8.4.9-.3.4-.6.9-.8 1.3-2.2-2.4-6-2.6-8.5-.4-.5.5-.9 1-1.2 1.6-2.1-2.6-5.8-3-8.4-.9l-.6.6c-1.4-3-4.9-4.4-8-3-.3.2-.7.3-1 .6-.7-3.2-3.9-5.3-7.2-4.5-.4.1-.8.2-1.1.4-.1-3.3-2.9-5.9-6.2-5.8-.3 0-.5 0-.8.1.8-3.2-1.3-6.4-4.5-7.2-.4-.1-.9-.2-1.3-.2 1.3-3-.1-6.6-3.1-7.9-.3-.1-.5-.2-.8-.3 2-2.6 1.5-6.4-1.1-8.4-.2-.2-.4-.3-.7-.4 2.6-2 3.1-5.8 1.1-8.4-.2-.3-.5-.6-.8-.9 1.6-.8 2.7-2.2 3.1-3.9.4-1.7.1-3.5-.9-4.9 3.2-.7 5.3-3.9 4.5-7.2-.1-.2-.1-.5-.2-.7 3.3.2 6.1-2.4 6.3-5.7 0-.4 0-.8-.1-1.2 3.2.8 6.5-1.2 7.3-4.4.1-.3.1-.6.1-.9 2.9 1.5 6.6.4 8.1-2.5.1-.2.2-.5.3-.7 1.3 1.1 2.9 1.7 4.6 1.5 1.8-.2 3.5-1.2 4.5-2.8 1.9 2.7 5.6 3.4 8.3 1.5.3-.2.5-.4.8-.6 1.2 3.1 4.7 4.6 7.8 3.3.4-.2.7-.3 1.1-.6.3 1.8 1.4 3.3 3 4.2 1.3.7 2.8.9 4.3.6.2.2.3.4.5.6.1 1.3.6 2.6 1.5 3.6l.1.1c3.1 3.2 10.2 11 8.8 21.4-.3 2.6 1.1 3.9 3 1.9 7.1-7.8 10.5-18.3 9.3-28.8-.1-1.1-.3-2.2-.7-3.2.1-.6.2-1.3.2-2 0-3-1.4-5.9-3.8-7.7.1-.6.2-1.2.2-1.7 0-3.8-2.3-7.2-5.8-8.6-.1-4.3-3.2-7.9-7.5-8.6-.7-4-4.2-6.9-8.3-6.9h-.5c-1.1-3.3-4.1-5.5-7.6-5.5-.7 0-1.3.1-2 .3-1.7-3.8-6.2-5.5-10-3.7-.1 0-.1.1-.2.1-2-3.4-6.4-4.5-9.8-2.5-.3.2-.6.4-.8.6-2.1-3-6.3-3.7-9.3-1.5-.5.4-.9.8-1.3 1.2-2.1-2.6-6-3-8.6-.9-.7.6-1.3 1.4-1.7 2.3-2-2.4-5.6-2.7-8-.7-1.1.9-1.8 2.3-2 3.7-1.7-2.3-4.9-2.7-7.2-1s-2.7 4.9-1 7.2c1.4 1.3 2.9 2 4.6 2zM23.6 171.3c-.2 0-.4.2-.4.4s.2.4.4.4.4-.2.4-.4-.2-.4-.4-.4zm-4.7-9.2c-.4 0-.8.4-.8.8s.3.8.8.8c.4 0 .8-.3.8-.8s-.3-.8-.8-.8zm-3.7-9.7c-.7 0-1.2.5-1.2 1.2s.5 1.2 1.2 1.2 1.2-.5 1.2-1.2-.5-1.2-1.2-1.2zm-2.7-10c-.9 0-1.6.7-1.6 1.6 0 .9.7 1.6 1.6 1.6.9 0 1.6-.7 1.6-1.6 0-.9-.7-1.6-1.6-1.6zm.3-8.3c0-1.1-.9-2-2-2s-2 .9-2 2 .9 2 2 2c1.2 0 2-.9 2-2zm-.2-9.9c0-1.3-1.1-2.4-2.4-2.4-1.3 0-2.4 1.1-2.4 2.4 0 1.3 1.1 2.4 2.4 2.4 1.4-.1 2.4-1.1 2.4-2.4zm-4.7-10c0 1.5 1.2 2.8 2.8 2.8s2.8-1.2 2.8-2.8c0-1.5-1.2-2.8-2.8-2.8-1.6 0-2.8 1.2-2.8 2.8zm4.3-6.7c1.8 0 3.2-1.4 3.2-3.2 0-1.8-1.4-3.2-3.2-3.2-1.8 0-3.2 1.4-3.2 3.2 0 1.8 1.4 3.2 3.2 3.2zm2.7-16.4c-2 0-3.6 1.6-3.6 3.6s1.6 3.6 3.6 3.6 3.6-1.6 3.6-3.6-1.6-3.6-3.6-3.6zm4-1.6c2.2 0 4-1.8 4-4s-1.8-4-4-4-4 1.8-4 4 1.8 4 4 4z" class="st0"/><path d="M24 81.3c2.4 0 4.4-2 4.4-4.4 0-2.4-2-4.4-4.4-4.4-2.4 0-4.4 2-4.4 4.4 0 2.5 2 4.4 4.4 4.4zm11-12.1c0-2.6-2.1-4.8-4.8-4.8-2.6 0-4.8 2.1-4.8 4.8 0 2.6 2.1 4.8 4.8 4.8 2.7-.1 4.8-2.2 4.8-4.8z" class="st0"/></g></g><path d="M280.2 145.2c-5.1 0-10.1-1-14.7-3-4.5-1.9-8.6-4.7-12-8.1-3.4-3.5-6.2-7.6-8.1-12.1-4-9.5-4-20.1 0-29.6 3.8-9.1 11-16.4 20-20.3 9.5-4.1 20.2-4.1 29.7.1 4.5 2 8.7 4.9 12.2 8.4.8.8 1.3 1.7 1.7 2.8.4 1.3.3 2.7-.5 3.8-.8 1.3-2.2 2-3.7 2.1h-.1c-1.5.1-3-.5-4-1.5-2.9-2.4-6-4.5-9.3-6.2-3.5-1.8-7.3-2.7-11.2-2.7-3.8 0-7.5.8-11 2.2-3.3 1.5-6.4 3.5-8.9 6.1-2.5 2.6-4.6 5.7-6 9.1-2.9 7-2.9 14.9 0 21.9 2.8 6.8 8.2 12.2 14.9 15.1 3.5 1.5 7.2 2.3 10.9 2.2 3.9 0 7.8-.8 11.4-2.4 3.5-1.5 6.6-3.7 9.1-6.5.8-.9 1.8-1.5 3-1.8.4-.1.8-.1 1.1-.1.9 0 1.8.3 2.5.8 1.2.9 1.9 2.4 1.8 3.9 0 1.4-.4 2.8-1.4 3.8-3.5 3.8-7.7 6.8-12.4 8.9-4.5 2.1-9.7 3.1-15 3.1zm79.1-.1c-5.1 0-10.1-1-14.7-3-9-3.8-16.2-11-20.1-20.1-3.9-9.4-3.9-20 0-29.5 1.9-4.5 4.7-8.6 8.1-12 3.4-3.5 7.5-6.2 12-8.1 9.4-4 20.1-4 29.5 0 9.1 3.9 16.3 11.1 20.2 20.2 4 9.4 4 20.1 0 29.5-1.9 4.5-4.7 8.6-8.1 12-3.5 3.4-7.6 6.1-12 8.1-4.9 1.9-9.9 2.9-14.9 2.9zm0-66c-3.8 0-7.5.7-10.9 2.2-3.3 1.4-6.4 3.4-8.9 6s-4.6 5.7-6 9c-2.9 7-2.9 14.9 0 21.9 6.1 14.2 22.5 20.9 36.8 14.9 3.4-1.4 6.4-3.4 9-6 8-8.1 10.4-20.3 6-30.8-1.4-3.4-3.5-6.4-6-9-2.6-2.6-5.6-4.6-9-6-3.6-1.4-7.3-2.2-11-2.2zm104.8 66.2c-2.7 0-4.9-2.2-4.9-4.8V97.1c0-2.4-.5-4.8-1.4-7.1-1.9-4.4-5.4-7.9-9.8-9.8-4.5-1.9-9.6-1.9-14.1 0-2.2.9-4.1 2.3-5.8 4-1.7 1.7-3 3.7-3.9 5.9-1 2.2-1.4 4.6-1.4 7v43.3c0 2.7-2.2 4.9-4.9 4.9s-4.9-2.2-4.9-4.9V97.1c0-3.7.7-7.4 2.2-10.9 1.4-3.3 3.4-6.4 6-8.9 2.6-2.6 5.6-4.6 8.9-6 6.9-3 14.8-3 21.8 0 6.7 2.8 12 8.2 14.9 14.9 1.5 3.4 2.2 7.1 2.2 10.9v43.3c0 1.3-.5 2.5-1.4 3.4-1 1-2.2 1.5-3.5 1.5zm47.8 0c-3.6 0-7.2-.6-10.5-1.8-3.2-1.1-6.1-2.8-8.7-5-2.4-2.1-4.4-4.6-5.9-7.5-1.4-2.8-2.2-6-2.1-9.2 0-2.6 2.1-4.6 4.6-4.6 2.6 0 4.6 2.1 4.6 4.6 0 1.9.5 3.7 1.3 5.4.9 1.7 2.2 3.2 3.7 4.5 1.7 1.3 3.6 2.4 5.7 3 2.3.8 4.7 1.1 7.1 1.1 2.4 0 4.8-.4 7.2-1.1 2.1-.7 4.1-1.7 5.9-3.1 1.6-1.2 2.9-2.7 3.8-4.5.9-1.6 1.3-3.5 1.1-5.3-.1-1.8-.7-3.5-1.6-5-1-1.6-2.3-3.1-3.8-4.3-1.7-1.3-3.5-2.4-5.5-3.1-2.1-.8-4.3-1.5-6.5-1.8-3.2-.2-6.4-.9-9.5-1.9-2.9-.9-5.6-2.3-8.1-4-2.3-1.6-4.2-3.6-5.7-5.9-1.5-2.3-2.2-4.9-2.2-7.6 0-2.7.7-5.4 2.1-7.7 1.4-2.4 3.3-4.5 5.6-6.1 2.5-1.8 5.2-3.2 8.1-4.1 6.4-2 13.3-2 19.7 0 2.9.9 5.6 2.3 8.1 4.1 2.3 1.6 4.1 3.7 5.6 6.1 1.4 2.3 2.1 5 2.1 7.7s-2.2 4.9-4.8 4.9c-1.3 0-2.6-.5-3.4-1.5-.9-1-1.4-2.3-1.4-3.7-.1-1.2-.5-2.3-1.2-3.3-.9-1.2-2.1-2.2-3.4-3-1.6-1-3.3-1.7-5.1-2.2-2-.5-4.1-.8-6.2-.8-2.1 0-4.3.3-6.4.8-1.8.5-3.5 1.2-5.1 2.2-1.3.8-2.4 1.9-3.3 3.2-.7 1.1-1.1 2.3-1.2 3.6 0 1.2.5 2.4 1.4 3.3 1.1 1.2 2.4 2.2 3.9 3 1.7.9 3.5 1.6 5.3 2.2 1.8.6 3.6 1 5.4 1.2 3.5.4 7 1.2 10.2 2.5 3 1.2 5.9 2.9 8.4 5 2.4 2 4.3 4.4 5.7 7.1 1.4 2.8 2.1 5.8 2.1 8.9 0 3.2-.7 6.4-2.1 9.2-1.4 2.9-3.4 5.4-5.9 7.5-5.3 4.6-12.1 7.1-19.1 7zm49.2 0c-2.7 0-4.9-2.2-4.9-4.8V73.9c0-1.3.5-2.5 1.4-3.5.9-.9 2.2-1.4 3.4-1.4h40.6c2.7 0 4.8 2.1 4.9 4.8v.1c0 1.3-.5 2.5-1.4 3.4-.9.9-2.2 1.4-3.4 1.4H566V102h25.3c2.7 0 4.9 2.2 4.9 4.9s-2.2 4.9-4.9 4.9H566v23.7h35.7c2.7 0 4.8 2.1 4.9 4.8v.1c0 1.3-.5 2.5-1.4 3.4-.9.9-2.2 1.4-3.4 1.4l-40.7.1zm109.6 0c-2.7 0-4.9-2.2-4.9-4.8V97.1c0-2.4-.5-4.8-1.4-7.1-1.9-4.4-5.4-7.9-9.8-9.8-4.5-1.9-9.6-1.9-14.1 0-2.2.9-4.1 2.3-5.8 4-1.7 1.7-3 3.7-3.9 5.8-1 2.2-1.4 4.6-1.4 7.1v43.3c0 2.7-2.2 4.9-4.8 4.9-1.3 0-2.5-.5-3.4-1.4-.9-.9-1.4-2.2-1.4-3.5V97.1c0-11.2 6.7-21.4 17-25.8 7-3 14.8-3 21.8 0 3.3 1.4 6.3 3.4 8.9 6 2.5 2.6 4.6 5.6 6 8.9 1.5 3.4 2.3 7.1 2.2 10.9v43.3c-.2 2.7-2.3 4.9-5 4.9zm47.8 0c-3.6 0-7.2-.6-10.5-1.8-3.2-1.1-6.1-2.8-8.7-5-2.4-2.1-4.4-4.6-5.9-7.5-1.4-2.9-2.2-6-2.1-9.2 0-1.2.5-2.4 1.4-3.3 1.8-1.8 4.8-1.8 6.6 0 .9.9 1.4 2 1.4 3.3 0 1.9.4 3.7 1.3 5.4.9 1.7 2.2 3.3 3.7 4.5 1.7 1.3 3.6 2.4 5.7 3.1 2.3.8 4.7 1.1 7.1 1.1 2.4 0 4.8-.4 7.2-1.1 2.1-.7 4.1-1.7 5.9-3.1 1.6-1.2 2.9-2.7 3.8-4.5.9-1.6 1.2-3.5 1.1-5.3-.1-1.8-.7-3.5-1.6-5-1-1.6-2.3-3.1-3.8-4.3-1.7-1.3-3.5-2.4-5.5-3.1-2.1-.8-4.3-1.5-6.5-1.8-3.2-.2-6.4-.9-9.4-1.9-2.9-.9-5.6-2.3-8.1-4-2.3-1.6-4.2-3.6-5.7-5.9-1.5-2.3-2.2-4.9-2.2-7.6 0-2.7.7-5.4 2.1-7.7 1.4-2.4 3.3-4.5 5.6-6.1 2.5-1.8 5.2-3.2 8.1-4.1 6.4-2 13.3-2 19.7 0 2.9.9 5.6 2.3 8.1 4.1 2.3 1.6 4.2 3.7 5.6 6.1 1.4 2.3 2.1 5 2.1 7.7 0 1.3-.5 2.5-1.4 3.4-.9.9-2.1 1.4-3.4 1.4-1.3 0-2.6-.5-3.5-1.5-.9-1-1.4-2.3-1.4-3.7-.1-1.2-.5-2.3-1.3-3.3-.9-1.2-2.1-2.2-3.4-3-1.6-1-3.3-1.7-5.1-2.2-2-.6-4.1-.8-6.2-.8-2.1 0-4.3.3-6.4.8-1.8.5-3.5 1.2-5.1 2.2-1.3.8-2.4 1.9-3.3 3.2-.7 1.1-1.1 2.3-1.2 3.6 0 1.2.5 2.4 1.4 3.3 1.1 1.2 2.5 2.2 3.9 3 1.7.9 3.5 1.7 5.3 2.2 1.8.6 3.6 1 5.4 1.2 3.5.4 7 1.2 10.2 2.5 3 1.2 5.9 2.9 8.4 5 2.4 2 4.3 4.4 5.7 7.1 1.4 2.8 2.1 5.8 2.1 8.9 0 3.2-.7 6.4-2.1 9.2-1.4 2.9-3.4 5.4-5.9 7.5-5.4 4.6-12.2 7.1-19.2 7zm73.4 0c-2.7 0-4.9-2.1-4.9-4.8v-24.8L757 77c-.8-1-1.2-2.2-1.1-3.5.1-1.3.7-2.5 1.7-3.3.9-.7 2-1.1 3.1-1.1 1.4 0 2.8.7 3.6 1.8l27.4 35.3 28-35.3c.8-1 2-1.7 3.3-1.7h.1c1.2-.1 2.5.3 3.4 1.1 1 .8 1.7 2 1.8 3.3.1 1.3-.3 2.5-1.1 3.5l-30.6 38.7v24.8c0 1.3-.5 2.5-1.4 3.5-.8.7-2 1.2-3.3 1.2zm73.2 0c-3.6 0-7.2-.6-10.5-1.8-3.2-1.1-6.1-2.8-8.7-5-2.4-2.1-4.4-4.6-5.9-7.5-1.4-2.9-2.2-6-2.1-9.2 0-2.6 2.1-4.6 4.6-4.6 1.2 0 2.4.5 3.3 1.4.9.9 1.4 2 1.4 3.3 0 1.9.4 3.7 1.3 5.4.9 1.7 2.2 3.3 3.7 4.5 1.7 1.3 3.6 2.4 5.7 3 2.3.8 4.7 1.1 7.1 1.1 2.4 0 4.8-.4 7.2-1.1 2.1-.7 4.1-1.7 5.9-3.1 1.6-1.2 2.9-2.7 3.8-4.5.9-1.6 1.3-3.5 1.1-5.3-.1-1.8-.7-3.5-1.6-5-1-1.6-2.3-3.1-3.8-4.3-1.7-1.3-3.5-2.4-5.5-3.1-2.1-.8-4.3-1.5-6.5-1.8-3.2-.2-6.4-.9-9.4-1.9-2.9-.9-5.6-2.3-8.1-4-2.3-1.6-4.2-3.6-5.7-5.9-1.5-2.3-2.2-4.9-2.2-7.6 0-2.7.7-5.4 2.1-7.7 1.4-2.4 3.3-4.5 5.6-6.1 2.5-1.8 5.2-3.2 8.1-4.1 6.4-2 13.3-2 19.7 0 2.9.9 5.6 2.3 8.1 4.1 2.3 1.6 4.2 3.7 5.6 6.1 1.4 2.3 2.1 5 2.1 7.7s-2.2 4.9-4.9 4.9c-1.3 0-2.6-.5-3.4-1.5-.9-1-1.4-2.3-1.4-3.7-.1-1.2-.5-2.3-1.2-3.3-.9-1.2-2.1-2.3-3.4-3-1.6-1-3.3-1.7-5.1-2.2-2-.6-4.1-.8-6.2-.8-2.1 0-4.3.3-6.4.8-1.8.5-3.5 1.2-5.1 2.2-1.3.8-2.4 1.9-3.3 3.2-.7 1.1-1.2 2.3-1.2 3.6 0 1.2.5 2.4 1.4 3.3 1.1 1.2 2.5 2.2 3.9 3 1.7.9 3.5 1.7 5.3 2.2 1.8.6 3.6 1 5.4 1.2 3.5.4 7 1.2 10.2 2.5 3 1.2 5.9 2.9 8.4 5 2.4 2 4.3 4.4 5.7 7.1 1.4 2.8 2.1 5.8 2.1 8.9 0 3.2-.7 6.4-2.2 9.2-1.4 2.9-3.4 5.4-5.9 7.5-5.3 4.5-12.1 6.9-19.1 6.9z" class="st0"/></svg>