<?xml version="1.0" encoding="UTF-8"?><svg viewBox="0 0 72 71" width="72px" height="71px" xmlns="http://www.w3.org/2000/svg" version="1.2" baseProfile="tiny"><g fill="#96999b"><rect x="55" y="2" width="1" height="1"/><rect height="1" x="56" y="2" width="1"/><rect x="57" y="2" width="1" height="1"/><rect x="58" y="2" width="1" height="1"/><rect x="55" y="3" width="1" height="5"/><rect x="56" y="3" width="2" height="5"/><rect y="3" width="1" height="6" x="58"/><rect x="59" y="3" width="1" height="1"/><rect x="60" y="3" width="1" height="1"/><rect x="61" y="3" width="1" height="1"/><rect width="1" height="6" x="59" y="4"/><rect y="4" width="1" height="7" x="60"/><rect x="61" y="4" width="1" height="1"/><rect x="62" y="4" width="1" height="1"/><rect x="61" y="5" width="1" height="7"/><rect x="62" y="5" width="1" height="8"/><rect x="63" y="5" width="1" height="1"/><rect width="1" height="1" x="64" y="5"/><rect x="63" y="6" width="1" height="9"/><rect y="6" width="1" height="1" x="64"/><rect x="65" y="6" width="1" height="1"/><rect x="64" y="7" width="1" height="25"/><rect x="65" y="7" width="1" height="1"/><rect x="66" y="7" width="1" height="1"/><rect y="8" width="1" height="1" x="55"/><rect x="56" y="8" width="9" height="1"/><rect height="23" x="65" y="8" width="1"/><rect height="1" x="66" y="8" width="1"/><rect height="1" x="67" y="8" width="1"/><rect x="55" y="9" width="1" height="1"/><rect x="56" y="9" width="1" height="1"/><rect x="57" y="9" width="9" height="1"/><rect y="9" width="1" height="21" x="66"/><rect height="1" x="67" y="9" width="1"/><rect width="1" height="1" x="56" y="10"/><rect x="57" y="10" width="1" height="1"/><rect x="58" y="10" width="1" height="1"/><rect width="8" height="1" x="59" y="10"/><rect x="67" y="10" width="1" height="19"/><rect x="68" y="10" width="1" height="1"/><rect y="11" width="1" height="1" x="58"/><rect x="59" y="11" width="1" height="1"/><rect x="60" y="11" width="7" height="1"/><rect x="68" y="11" width="1" height="1"/><rect x="69" y="11" width="1" height="1"/><rect x="60" y="12" width="1" height="1"/><rect x="61" y="12" width="7" height="1"/><rect x="68" y="12" width="1" height="15"/><rect x="69" y="12" width="1" height="1"/><rect x="61" y="13" width="1" height="1"/><rect x="62" y="13" width="6" height="1"/><rect x="69" y="13" width="1" height="1"/><rect x="61" y="14" width="1" height="1"/><rect x="62" y="14" width="1" height="1"/><rect y="14" width="1" height="11" x="69"/><rect y="14" width="1" height="1" x="70"/><rect x="62" y="15" width="1" height="1"/><rect width="6" height="1" x="63" y="15"/><rect x="70" y="15" width="1" height="1"/><rect x="62" y="16" width="1" height="1"/><rect height="1" x="63" y="16" width="1"/><rect width="1" height="1" x="70" y="16"/><rect x="63" y="17" width="1" height="1"/><rect x="70" y="17" width="1" height="1"/><rect width="1" height="1" x="63" y="18"/><rect y="18" width="1" height="1" x="70"/><rect y="19" width="1" height="1" x="63"/><rect x="70" y="19" width="1" height="1"/><rect y="20" width="1" height="1" x="63"/><rect x="70" y="20" width="1" height="1"/><rect x="63" y="21" width="1" height="1"/><rect x="70" y="21" width="1" height="1"/><rect height="1" x="63" y="22" width="1"/><rect height="1" x="70" y="22" width="1"/><rect x="62" y="23" width="1" height="1"/><rect x="63" y="23" width="1" height="1"/><rect x="70" y="23" width="1" height="1"/><rect x="62" y="24" width="1" height="1"/><rect y="24" width="6" height="3" x="63"/><rect x="70" y="24" width="1" height="1"/><rect y="25" width="1" height="1" x="43"/><rect x="61" y="25" width="1" height="1"/><rect x="62" y="25" width="1" height="1"/><rect x="69" y="25" width="1" height="1"/><rect y="25" width="1" height="1" x="70"/><rect width="1" height="1" x="42" y="26"/><rect x="43" y="26" width="1" height="1"/><rect width="1" height="1" x="44" y="26"/><rect x="61" y="26" width="1" height="1"/><rect x="62" y="26" width="6" height="3"/><rect x="69" y="26" width="1" height="1"/><rect x="42" y="27" width="1" height="1"/><rect width="1" height="7" x="43" y="27"/><rect width="1" height="1" x="44" y="27"/><rect x="45" y="27" width="1" height="1"/><rect x="60" y="27" width="1" height="1"/><rect x="61" y="27" width="1" height="1"/><rect height="1" x="68" y="27" width="1"/><rect y="27" width="1" height="1" x="69"/><rect x="41" y="28" width="1" height="1"/><rect x="42" y="28" width="1" height="1"/><rect width="1" height="7" x="44" y="28"/><rect x="45" y="28" width="1" height="1"/><rect x="46" y="28" width="1" height="1"/><rect x="59" y="28" width="1" height="1"/><rect x="60" y="28" width="1" height="1"/><rect height="2" x="61" y="28" width="6"/><rect x="68" y="28" width="1" height="1"/><rect y="28" width="1" height="1" x="69"/><rect x="41" y="29" width="1" height="1"/><rect y="29" width="3" height="4" x="42"/><rect x="45" y="29" width="1" height="6"/><rect x="46" y="29" width="1" height="1"/><rect x="47" y="29" width="1" height="1"/><rect y="29" width="1" height="1" x="48"/><rect x="57" y="29" width="1" height="1"/><rect width="1" height="1" x="58" y="29"/><rect x="59" y="29" width="8" height="1"/><rect x="67" y="29" width="1" height="1"/><rect x="68" y="29" width="1" height="1"/><rect y="30" width="1" height="1" x="40"/><rect x="41" y="30" width="1" height="1"/><rect x="46" y="30" width="1" height="5"/><rect width="1" height="6" x="47" y="30"/><rect x="48" y="30" width="1" height="1"/><rect x="49" y="30" width="1" height="1"/><rect x="50" y="30" width="1" height="1"/><rect x="51" y="30" width="1" height="1"/><rect x="52" y="30" width="1" height="1"/><rect width="1" height="1" x="53" y="30"/><rect y="30" width="1" height="1" x="54"/><rect x="55" y="30" width="1" height="1"/><rect y="30" width="1" height="1" x="56"/><rect x="57" y="30" width="9" height="1"/><rect x="66" y="30" width="1" height="1"/><rect height="1" x="67" y="30" width="1"/><rect x="68" y="30" width="1" height="1"/><rect x="40" y="31" width="1" height="1"/><rect width="24" height="1" x="41" y="31"/><rect x="65" y="31" width="1" height="1"/><rect width="1" height="1" x="66" y="31"/><rect x="67" y="31" width="1" height="1"/><rect x="39" y="32" width="1" height="1"/><rect y="32" width="24" height="1" x="40"/><rect height="1" x="64" y="32" width="1"/><rect x="65" y="32" width="1" height="1"/><rect height="1" x="66" y="32" width="1"/><rect x="40" y="33" width="1" height="1"/><rect y="33" width="22" height="1" x="41"/><rect height="1" x="63" y="33" width="1"/><rect x="64" y="33" width="1" height="1"/><rect width="1" height="1" x="65" y="33"/><rect x="41" y="34" width="1" height="1"/><rect x="42" y="34" width="1" height="1"/><rect x="43" y="34" width="19" height="1"/><rect x="62" y="34" width="1" height="1"/><rect height="1" x="63" y="34" width="1"/><rect width="1" height="1" x="64" y="34"/><rect x="67" y="34" width="1" height="1"/><rect x="68" y="34" width="1" height="1"/><rect x="69" y="34" width="1" height="1"/><rect width="1" height="1" x="42" y="35"/><rect x="43" y="35" width="1" height="1"/><rect width="16" height="1" x="44" y="35"/><rect y="35" width="1" height="1" x="60"/><rect height="1" x="61" y="35" width="1"/><rect y="35" width="1" height="1" x="62"/><rect height="1" x="63" y="35" width="1"/><rect x="66" y="35" width="1" height="1"/><rect x="67" y="35" width="1" height="1"/><rect x="68" y="35" width="1" height="1"/><rect x="69" y="35" width="1" height="1"/><rect x="70" y="35" width="1" height="1"/><rect height="1" x="44" y="36" width="1"/><rect x="45" y="36" width="1" height="1"/><rect x="46" y="36" width="1" height="1"/><rect height="1" x="47" y="36" width="11"/><rect x="58" y="36" width="1" height="1"/><rect x="59" y="36" width="1" height="1"/><rect width="1" height="1" x="60" y="36"/><rect y="36" width="1" height="1" x="61"/><rect x="66" y="36" width="1" height="1"/><rect x="67" y="36" width="1" height="1"/><rect height="1" x="68" y="36" width="1"/><rect x="69" y="36" width="1" height="1"/><rect x="70" y="36" width="1" height="1"/><rect x="46" y="37" width="1" height="1"/><rect x="47" y="37" width="1" height="1"/><rect x="48" y="37" width="1" height="1"/><rect width="1" height="1" x="49" y="37"/><rect x="50" y="37" width="4" height="1"/><rect y="37" width="1" height="1" x="54"/><rect x="55" y="37" width="1" height="1"/><rect x="56" y="37" width="1" height="1"/><rect x="57" y="37" width="1" height="1"/><rect height="1" x="58" y="37" width="1"/><rect y="37" width="1" height="1" x="59"/><rect width="1" height="1" x="67" y="37"/><rect width="1" height="1" x="68" y="37"/><rect x="69" y="37" width="1" height="1"/><rect y="38" width="1" height="1" x="50"/><rect x="51" y="38" width="1" height="1"/><rect height="1" x="52" y="38" width="1"/><rect x="53" y="38" width="1" height="1"/><rect x="54" y="38" width="1" height="1"/><rect height="1" x="55" y="38" width="1"/></g><g fill="#003a5c"><rect x="13" y="2" width="1" height="1"/><rect x="14" y="2" width="1" height="1"/><rect width="1" height="1" x="15" y="2"/><rect x="16" y="2" width="1" height="1"/><rect x="17" y="2" width="1" height="1"/><rect x="18" y="2" width="1" height="6"/><rect x="19" y="2" width="1" height="6"/><rect width="1" height="1" x="20" y="2"/><rect x="21" y="2" width="1" height="1"/><rect x="22" y="2" width="1" height="1"/><rect x="23" y="2" width="1" height="1"/><rect width="1" height="1" x="24" y="2"/><rect width="1" height="1" x="25" y="2"/><rect x="10" y="3" width="1" height="1"/><rect y="3" width="1" height="1" x="11"/><rect x="12" y="3" width="1" height="1"/><rect x="13" y="3" width="11" height="5"/><rect y="3" width="1" height="6" x="24"/><rect height="1" x="25" y="3" width="1"/><rect x="26" y="3" width="1" height="1"/><rect width="1" height="1" x="27" y="3"/><rect y="4" width="1" height="1" x="9"/><rect x="10" y="4" width="1" height="1"/><rect width="15" height="4" x="11" y="4"/><rect x="26" y="4" width="1" height="6"/><rect x="27" y="4" width="1" height="1"/><rect x="28" y="4" width="1" height="1"/><rect y="4" width="1" height="1" x="29"/><rect x="7" y="5" width="1" height="1"/><rect x="8" y="5" width="1" height="1"/><rect x="9" y="5" width="19" height="3"/><rect x="28" y="5" width="1" height="7"/><rect width="1" height="1" x="29" y="5"/><rect y="5" width="1" height="1" x="30"/><rect x="6" y="6" width="1" height="1"/><rect y="6" width="1" height="1" x="7"/><rect x="8" y="6" width="21" height="2"/><rect width="1" height="4" x="29" y="6"/><rect x="30" y="6" width="1" height="1"/><rect x="31" y="6" width="1" height="1"/><rect y="7" width="1" height="1" x="5"/><rect x="6" y="7" width="1" height="1"/><rect x="7" y="7" width="23" height="1"/><rect x="30" y="7" width="1" height="1"/><rect x="31" y="7" width="1" height="1"/><rect width="1" height="1" x="32" y="7"/><rect x="4" y="8" width="1" height="1"/><rect x="5" y="8" width="1" height="1"/><rect x="6" y="8" width="24" height="1"/><rect width="1" height="1" x="30" y="8"/><rect y="8" width="1" height="1" x="31"/><rect x="32" y="8" width="1" height="1"/><rect x="4" y="9" width="1" height="1"/><rect y="9" width="9" height="1" x="5"/><rect y="9" width="1" height="1" x="14"/><rect height="1" x="15" y="9" width="1"/><rect y="9" width="1" height="1" x="16"/><rect x="17" y="9" width="1" height="1"/><rect x="18" y="9" width="1" height="1"/><rect x="19" y="9" width="1" height="1"/><rect x="20" y="9" width="1" height="1"/><rect x="21" y="9" width="1" height="1"/><rect x="22" y="9" width="1" height="1"/><rect x="23" y="9" width="6" height="1"/><rect x="30" y="9" width="1" height="1"/><rect x="31" y="9" width="1" height="1"/><rect x="3" y="10" width="1" height="1"/><rect width="8" height="1" x="4" y="10"/><rect x="12" y="10" width="1" height="1"/><rect width="1" height="1" x="13" y="10"/><rect x="14" y="10" width="1" height="1"/><rect x="15" y="10" width="1" height="1"/><rect width="1" height="1" x="23" y="10"/><rect height="1" x="24" y="10" width="1"/><rect width="4" height="1" x="25" y="10"/><rect y="10" width="1" height="1" x="29"/><rect y="10" width="1" height="1" x="30"/><rect height="1" x="2" y="11" width="1"/><rect x="3" y="11" width="1" height="1"/><rect x="4" y="11" width="7" height="1"/><rect x="11" y="11" width="1" height="1"/><rect x="12" y="11" width="1" height="1"/><rect x="13" y="11" width="1" height="1"/><rect x="25" y="11" width="1" height="1"/><rect x="26" y="11" width="1" height="1"/><rect x="27" y="11" width="1" height="1"/><rect x="29" y="11" width="1" height="1"/><rect width="1" height="1" x="30" y="11"/><rect height="1" x="2" y="12" width="1"/><rect height="1" x="3" y="12" width="7"/><rect x="10" y="12" width="1" height="1"/><rect x="11" y="12" width="1" height="1"/><rect x="26" y="12" width="1" height="1"/><rect x="27" y="12" width="1" height="1"/><rect height="1" x="28" y="12" width="1"/><rect y="12" width="1" height="1" x="29"/><rect x="2" y="13" width="1" height="1"/><rect x="3" y="13" width="6" height="2"/><rect x="9" y="13" width="1" height="1"/><rect x="10" y="13" width="1" height="1"/><rect x="27" y="13" width="1" height="1"/><rect height="1" x="28" y="13" width="1"/><rect width="1" height="1" x="29" y="13"/><rect height="1" x="1" y="14" width="1"/><rect width="6" height="11" x="2" y="14"/><rect width="1" height="1" x="9" y="14"/><rect x="10" y="14" width="1" height="1"/><rect x="28" y="14" width="1" height="1"/><rect y="15" width="1" height="1" x="1"/><rect y="15" width="1" height="1" x="8"/><rect x="9" y="15" width="1" height="1"/><rect y="16" width="1" height="1" x="1"/><rect x="8" y="16" width="1" height="1"/><rect x="9" y="16" width="1" height="1"/><rect x="1" y="17" width="1" height="1"/><rect x="8" y="17" width="1" height="1"/><rect x="1" y="18" width="1" height="1"/><rect width="1" height="1" x="8" y="18"/><rect x="1" y="19" width="6" height="1"/><rect x="8" y="19" width="1" height="1"/><rect x="1" y="20" width="6" height="1"/><rect x="8" y="20" width="1" height="1"/><rect width="1" height="1" x="1" y="21"/><rect height="1" x="8" y="21" width="1"/><rect height="1" x="1" y="22" width="1"/><rect x="8" y="22" width="1" height="1"/><rect y="23" width="1" height="1" x="1"/><rect x="8" y="23" width="1" height="1"/><rect x="9" y="23" width="1" height="1"/><rect x="1" y="24" width="1" height="1"/><rect y="24" width="1" height="9" x="8"/><rect x="9" y="24" width="1" height="1"/><rect x="1" y="25" width="1" height="1"/><rect x="2" y="25" width="6" height="1"/><rect x="9" y="25" width="1" height="1"/><rect x="10" y="25" width="1" height="1"/><rect x="1" y="26" width="1" height="1"/><rect x="2" y="26" width="1" height="1"/><rect x="3" y="26" width="6" height="1"/><rect x="9" y="26" width="1" height="8"/><rect x="10" y="26" width="1" height="1"/><rect y="27" width="1" height="1" x="2"/><rect height="1" x="3" y="27" width="6"/><rect x="10" y="27" width="1" height="1"/><rect x="11" y="27" width="1" height="1"/><rect x="2" y="28" width="1" height="1"/><rect x="3" y="28" width="1" height="1"/><rect y="28" width="6" height="1" x="4"/><rect x="10" y="28" width="1" height="6"/><rect x="11" y="28" width="1" height="1"/><rect x="12" y="28" width="1" height="1"/><rect x="13" y="28" width="1" height="1"/><rect x="3" y="29" width="1" height="1"/><rect height="1" x="4" y="29" width="8"/><rect x="12" y="29" width="1" height="6"/><rect x="13" y="29" width="1" height="1"/><rect x="14" y="29" width="1" height="1"/><rect x="3" y="30" width="1" height="1"/><rect x="4" y="30" width="1" height="1"/><rect y="30" width="9" height="1" x="5"/><rect x="14" y="30" width="1" height="6"/><rect x="15" y="30" width="1" height="1"/><rect x="16" y="30" width="1" height="1"/><rect y="31" width="1" height="1" x="4"/><rect x="5" y="31" width="1" height="1"/><rect x="6" y="31" width="9" height="1"/><rect x="15" y="31" width="1" height="5"/><rect height="5" x="16" y="31" width="1"/><rect x="5" y="32" width="1" height="1"/><rect x="6" y="32" width="1" height="1"/><rect x="7" y="32" width="8" height="1"/><rect x="6" y="33" width="1" height="1"/><rect width="1" height="1" x="7" y="33"/><rect width="7" height="1" x="8" y="33"/><rect height="1" x="7" y="34" width="1"/><rect x="8" y="34" width="1" height="1"/><rect x="9" y="34" width="6" height="1"/><rect height="1" x="8" y="35" width="1"/><rect x="9" y="35" width="1" height="1"/><rect width="1" height="1" x="10" y="35"/><rect x="11" y="35" width="4" height="1"/><rect x="10" y="36" width="1" height="1"/><rect x="11" y="36" width="1" height="1"/><rect x="12" y="36" width="1" height="1"/><rect x="13" y="36" width="2" height="1"/><rect x="15" y="36" width="1" height="1"/><rect x="16" y="36" width="1" height="1"/><rect x="12" y="37" width="1" height="1"/><rect height="1" x="13" y="37" width="1"/><rect x="14" y="37" width="1" height="1"/><rect x="15" y="37" width="1" height="1"/><rect width="1" height="1" x="16" y="37"/><rect x="16" y="38" width="1" height="1"/><rect width="1" height="1" x="12" y="46"/><rect x="13" y="46" width="1" height="1"/><rect x="14" y="46" width="1" height="1"/><rect x="15" y="46" width="1" height="1"/><rect x="16" y="46" width="1" height="1"/><rect x="17" y="46" width="1" height="1"/><rect y="46" width="1" height="1" x="18"/><rect height="1" x="19" y="46" width="1"/><rect height="1" x="20" y="46" width="1"/><rect x="21" y="46" width="1" height="1"/><rect x="31" y="46" width="1" height="1"/><rect x="32" y="46" width="1" height="1"/><rect height="1" x="33" y="46" width="1"/><rect x="34" y="46" width="1" height="1"/><rect x="35" y="46" width="1" height="1"/><rect width="1" height="1" x="36" y="46"/><rect x="37" y="46" width="1" height="1"/><rect height="1" x="38" y="46" width="1"/><rect x="39" y="46" width="1" height="1"/><rect y="46" width="1" height="1" x="40"/><rect width="1" height="1" x="54" y="46"/><rect y="46" width="1" height="1" x="55"/><rect height="1" x="56" y="46" width="1"/><rect y="46" width="1" height="1" x="57"/><rect width="1" height="1" x="58" y="46"/><rect x="59" y="46" width="1" height="1"/><rect x="60" y="46" width="1" height="1"/><rect x="61" y="46" width="1" height="1"/><rect x="62" y="46" width="1" height="1"/><rect width="1" height="1" x="63" y="46"/><rect x="10" y="47" width="1" height="1"/><rect x="11" y="47" width="1" height="1"/><rect x="12" y="47" width="1" height="1"/><rect y="47" width="8" height="1" x="13"/><rect width="1" height="4" x="21" y="47"/><rect x="22" y="47" width="1" height="1"/><rect x="23" y="47" width="1" height="1"/><rect x="24" y="47" width="1" height="1"/><rect x="29" y="47" width="1" height="1"/><rect y="47" width="1" height="1" x="30"/><rect x="31" y="47" width="1" height="1"/><rect height="1" x="32" y="47" width="8"/><rect height="4" x="40" y="47" width="1"/><rect x="41" y="47" width="1" height="1"/><rect x="42" y="47" width="1" height="1"/><rect x="43" y="47" width="1" height="1"/><rect x="52" y="47" width="1" height="1"/><rect x="53" y="47" width="1" height="1"/><rect x="54" y="47" width="1" height="1"/><rect x="55" y="47" width="7" height="1"/><rect width="1" height="2" x="62" y="47"/><rect x="63" y="47" width="1" height="1"/><rect x="64" y="47" width="1" height="1"/><rect x="65" y="47" width="1" height="1"/><rect x="9" y="48" width="1" height="1"/><rect width="1" height="1" x="10" y="48"/><rect x="11" y="48" width="12" height="1"/><rect height="5" x="23" y="48" width="1"/><rect x="24" y="48" width="1" height="1"/><rect x="28" y="48" width="1" height="1"/><rect x="29" y="48" width="1" height="1"/><rect x="30" y="48" width="12" height="1"/><rect width="1" height="5" x="42" y="48"/><rect height="1" x="43" y="48" width="1"/><rect y="48" width="1" height="1" x="50"/><rect height="1" x="51" y="48" width="1"/><rect y="48" width="12" height="1" x="52"/><rect x="64" y="48" width="1" height="5"/><rect x="65" y="48" width="1" height="1"/><rect width="1" height="1" x="66" y="48"/><rect x="8" y="49" width="1" height="1"/><rect width="1" height="1" x="9" y="49"/><rect x="10" y="49" width="4" height="1"/><rect x="14" y="49" width="1" height="1"/><rect y="49" width="1" height="1" x="15"/><rect width="1" height="1" x="16" y="49"/><rect x="17" y="49" width="1" height="1"/><rect x="18" y="49" width="1" height="1"/><rect y="49" width="1" height="1" x="19"/><rect width="3" height="1" x="20" y="49"/><rect x="24" y="49" width="1" height="3"/><rect width="1" height="1" x="28" y="49"/><rect y="49" width="3" height="6" x="29"/><rect x="32" y="49" width="1" height="1"/><rect x="33" y="49" width="1" height="1"/><rect y="49" width="1" height="1" x="34"/><rect x="35" y="49" width="1" height="1"/><rect y="49" width="1" height="1" x="36"/><rect x="37" y="49" width="1" height="1"/><rect x="38" y="49" width="1" height="1"/><rect x="39" y="49" width="3" height="1"/><rect height="3" x="43" y="49" width="1"/><rect x="49" y="49" width="1" height="1"/><rect x="50" y="49" width="1" height="1"/><rect height="1" x="51" y="49" width="4"/><rect x="55" y="49" width="1" height="1"/><rect x="56" y="49" width="1" height="1"/><rect width="1" height="1" x="57" y="49"/><rect x="58" y="49" width="1" height="1"/><rect height="1" x="59" y="49" width="1"/><rect x="60" y="49" width="1" height="1"/><rect x="61" y="49" width="1" height="1"/><rect height="1" x="62" y="49" width="3"/><rect x="65" y="49" width="1" height="4"/><rect y="49" width="1" height="3" x="66"/><rect x="7" y="50" width="1" height="1"/><rect height="1" x="8" y="50" width="1"/><rect x="9" y="50" width="3" height="1"/><rect x="12" y="50" width="1" height="1"/><rect x="13" y="50" width="1" height="1"/><rect x="14" y="50" width="1" height="1"/><rect x="20" y="50" width="1" height="1"/><rect x="22" y="50" width="1" height="3"/><rect x="27" y="50" width="1" height="1"/><rect height="1" x="28" y="50" width="1"/><rect width="1" height="1" x="32" y="50"/><rect height="1" x="33" y="50" width="1"/><rect x="38" y="50" width="1" height="1"/><rect x="39" y="50" width="1" height="1"/><rect y="50" width="1" height="3" x="41"/><rect y="50" width="1" height="1" x="49"/><rect x="50" y="50" width="4" height="1"/><rect y="50" width="1" height="1" x="54"/><rect x="55" y="50" width="1" height="1"/><rect x="56" y="50" width="1" height="1"/><rect width="1" height="1" x="61" y="50"/><rect x="62" y="50" width="1" height="1"/><rect x="63" y="50" width="2" height="2"/><rect x="6" y="51" width="1" height="1"/><rect height="1" x="7" y="51" width="1"/><rect x="8" y="51" width="3" height="2"/><rect x="11" y="51" width="1" height="1"/><rect x="12" y="51" width="1" height="1"/><rect height="1" x="13" y="51" width="1"/><rect width="1" height="1" x="20" y="51"/><rect x="21" y="51" width="2" height="1"/><rect height="1" x="27" y="51" width="1"/><rect x="28" y="51" width="3" height="3"/><rect y="51" width="1" height="1" x="32"/><rect x="39" y="51" width="1" height="1"/><rect x="40" y="51" width="2" height="1"/><rect width="1" height="1" x="48" y="51"/><rect y="51" width="4" height="1" x="49"/><rect height="1" x="53" y="51" width="1"/><rect x="54" y="51" width="1" height="1"/><rect x="62" y="51" width="1" height="1"/><rect x="6" y="52" width="1" height="1"/><rect x="7" y="52" width="3" height="11"/><rect x="11" y="52" width="1" height="1"/><rect x="12" y="52" width="1" height="1"/><rect width="1" height="1" x="20" y="52"/><rect y="52" width="1" height="1" x="21"/><rect x="24" y="52" width="1" height="1"/><rect x="27" y="52" width="1" height="1"/><rect x="32" y="52" width="1" height="1"/><rect x="40" y="52" width="1" height="1"/><rect height="1" x="43" y="52" width="1"/><rect x="48" y="52" width="1" height="1"/><rect y="52" width="3" height="12" x="49"/><rect y="52" width="1" height="1" x="52"/><rect x="53" y="52" width="1" height="1"/><rect x="62" y="52" width="1" height="1"/><rect x="63" y="52" width="2" height="1"/><rect y="52" width="1" height="1" x="66"/><rect x="6" y="53" width="1" height="1"/><rect x="10" y="53" width="1" height="1"/><rect y="53" width="1" height="1" x="11"/><rect x="21" y="53" width="1" height="1"/><rect x="22" y="53" width="1" height="1"/><rect height="1" x="23" y="53" width="1"/><rect x="24" y="53" width="1" height="1"/><rect width="1" height="1" x="27" y="53"/><rect x="32" y="53" width="1" height="1"/><rect x="40" y="53" width="1" height="1"/><rect x="41" y="53" width="1" height="1"/><rect x="42" y="53" width="1" height="1"/><rect width="1" height="1" x="43" y="53"/><rect x="47" y="53" width="1" height="1"/><rect y="53" width="3" height="9" x="48"/><rect x="52" y="53" width="1" height="1"/><rect x="53" y="53" width="1" height="1"/><rect x="62" y="53" width="1" height="1"/><rect height="1" x="63" y="53" width="1"/><rect x="64" y="53" width="1" height="1"/><rect height="1" x="65" y="53" width="1"/><rect x="66" y="53" width="1" height="1"/><rect width="1" height="1" x="5" y="54"/><rect height="7" x="6" y="54" width="3"/><rect x="10" y="54" width="1" height="1"/><rect x="11" y="54" width="1" height="1"/><rect y="54" width="1" height="1" x="21"/><rect height="1" x="22" y="54" width="1"/><rect x="23" y="54" width="1" height="1"/><rect height="1" x="24" y="54" width="1"/><rect x="27" y="54" width="1" height="1"/><rect x="28" y="54" width="4" height="1"/><rect x="32" y="54" width="1" height="4"/><rect x="33" y="54" width="1" height="1"/><rect y="54" width="1" height="1" x="34"/><rect x="40" y="54" width="1" height="1"/><rect x="41" y="54" width="1" height="1"/><rect y="54" width="1" height="1" x="42"/><rect x="43" y="54" width="1" height="1"/><rect x="47" y="54" width="1" height="1"/><rect x="52" y="54" width="1" height="1"/><rect x="63" y="54" width="1" height="1"/><rect x="64" y="54" width="1" height="1"/><rect x="65" y="54" width="1" height="1"/><rect height="1" x="5" y="55" width="1"/><rect width="1" height="1" x="10" y="55"/><rect y="55" width="1" height="1" x="28"/><rect x="29" y="55" width="4" height="1"/><rect height="3" x="33" y="55" width="1"/><rect x="34" y="55" width="1" height="1"/><rect height="1" x="35" y="55" width="1"/><rect width="1" height="1" x="36" y="55"/><rect x="47" y="55" width="1" height="1"/><rect height="1" x="52" y="55" width="1"/><rect x="5" y="56" width="1" height="1"/><rect x="10" y="56" width="1" height="1"/><rect x="28" y="56" width="1" height="1"/><rect x="29" y="56" width="1" height="1"/><rect y="56" width="6" height="1" x="30"/><rect x="36" y="56" width="1" height="3"/><rect height="1" x="37" y="56" width="1"/><rect x="38" y="56" width="1" height="1"/><rect x="39" y="56" width="1" height="1"/><rect x="40" y="56" width="1" height="1"/><rect y="56" width="1" height="1" x="47"/><rect x="52" y="56" width="1" height="1"/><rect height="1" x="5" y="57" width="1"/><rect height="1" x="10" y="57" width="1"/><rect x="29" y="57" width="1" height="1"/><rect x="30" y="57" width="1" height="1"/><rect x="31" y="57" width="8" height="1"/><rect width="1" height="3" x="39" y="57"/><rect x="40" y="57" width="1" height="1"/><rect x="41" y="57" width="1" height="1"/><rect width="1" height="1" x="47" y="57"/><rect x="52" y="57" width="1" height="1"/><rect x="5" y="58" width="1" height="1"/><rect y="58" width="1" height="1" x="10"/><rect height="1" x="30" y="58" width="1"/><rect x="31" y="58" width="1" height="1"/><rect x="32" y="58" width="9" height="1"/><rect x="41" y="58" width="1" height="9"/><rect height="1" x="42" y="58" width="1"/><rect y="58" width="1" height="1" x="43"/><rect x="47" y="58" width="1" height="1"/><rect height="1" x="52" y="58" width="1"/><rect y="59" width="1" height="1" x="5"/><rect height="1" x="10" y="59" width="1"/><rect x="32" y="59" width="1" height="1"/><rect x="33" y="59" width="1" height="1"/><rect x="34" y="59" width="1" height="1"/><rect y="59" width="7" height="1" x="35"/><rect x="42" y="59" width="1" height="7"/><rect y="59" width="1" height="1" x="43"/><rect height="1" x="47" y="59" width="1"/><rect width="1" height="1" x="52" y="59"/><rect x="5" y="60" width="1" height="1"/><rect width="1" height="1" x="10" y="60"/><rect height="1" x="35" y="60" width="1"/><rect height="1" x="36" y="60" width="1"/><rect width="1" height="1" x="37" y="60"/><rect x="38" y="60" width="5" height="1"/><rect x="43" y="60" width="1" height="5"/><rect y="60" width="1" height="1" x="44"/><rect x="47" y="60" width="1" height="1"/><rect height="1" x="52" y="60" width="1"/><rect x="5" y="61" width="1" height="1"/><rect x="6" y="61" width="3" height="1"/><rect x="10" y="61" width="1" height="1"/><rect x="11" y="61" width="1" height="1"/><rect y="61" width="1" height="1" x="28"/><rect width="1" height="1" x="29" y="61"/><rect x="30" y="61" width="1" height="1"/><rect x="38" y="61" width="1" height="1"/><rect height="1" x="39" y="61" width="1"/><rect y="61" width="3" height="5" x="40"/><rect x="44" y="61" width="1" height="1"/><rect height="1" x="47" y="61" width="1"/><rect x="52" y="61" width="1" height="1"/><rect x="5" y="62" width="1" height="1"/><rect x="6" y="62" width="1" height="1"/><rect x="10" y="62" width="1" height="5"/><rect x="11" y="62" width="1" height="1"/><rect x="27" y="62" width="1" height="1"/><rect x="28" y="62" width="1" height="1"/><rect x="29" y="62" width="1" height="5"/><rect x="30" y="62" width="1" height="5"/><rect y="62" width="1" height="1" x="31"/><rect x="39" y="62" width="1" height="1"/><rect width="1" height="1" x="44" y="62"/><rect x="47" y="62" width="1" height="1"/><rect x="48" y="62" width="3" height="1"/><rect x="52" y="62" width="1" height="1"/><rect x="53" y="62" width="1" height="1"/><rect x="6" y="63" width="1" height="1"/><rect x="7" y="63" width="3" height="1"/><rect height="1" x="11" y="63" width="1"/><rect width="1" height="1" x="12" y="63"/><rect x="22" y="63" width="1" height="1"/><rect x="23" y="63" width="1" height="1"/><rect height="1" x="24" y="63" width="1"/><rect height="3" x="27" y="63" width="1"/><rect x="28" y="63" width="2" height="3"/><rect x="31" y="63" width="1" height="1"/><rect width="1" height="1" x="39" y="63"/><rect height="1" x="44" y="63" width="1"/><rect width="1" height="1" x="47" y="63"/><rect x="48" y="63" width="1" height="1"/><rect height="4" x="52" y="63" width="1"/><rect x="53" y="63" width="1" height="1"/><rect x="64" y="63" width="1" height="1"/><rect x="65" y="63" width="1" height="1"/><rect height="1" x="66" y="63" width="1"/><rect x="6" y="64" width="1" height="1"/><rect x="7" y="64" width="1" height="1"/><rect x="8" y="64" width="3" height="1"/><rect x="11" y="64" width="1" height="3"/><rect width="1" height="1" x="12" y="64"/><rect width="1" height="1" x="13" y="64"/><rect x="21" y="64" width="1" height="1"/><rect x="22" y="64" width="1" height="1"/><rect height="3" x="23" y="64" width="1"/><rect x="24" y="64" width="1" height="2"/><rect x="31" y="64" width="1" height="1"/><rect x="39" y="64" width="1" height="1"/><rect x="44" y="64" width="1" height="1"/><rect x="48" y="64" width="1" height="1"/><rect x="49" y="64" width="4" height="1"/><rect x="53" y="64" width="1" height="3"/><rect x="54" y="64" width="1" height="1"/><rect x="63" y="64" width="1" height="1"/><rect x="64" y="64" width="1" height="1"/><rect y="64" width="1" height="2" x="65"/><rect x="66" y="64" width="1" height="2"/><rect x="7" y="65" width="1" height="1"/><rect x="8" y="65" width="4" height="1"/><rect y="65" width="1" height="3" x="12"/><rect x="13" y="65" width="1" height="1"/><rect x="14" y="65" width="1" height="1"/><rect height="1" x="20" y="65" width="1"/><rect height="1" x="21" y="65" width="1"/><rect x="22" y="65" width="1" height="2"/><rect height="1" x="31" y="65" width="1"/><rect y="65" width="1" height="1" x="32"/><rect height="1" x="38" y="65" width="1"/><rect y="65" width="1" height="1" x="39"/><rect x="43" y="65" width="1" height="1"/><rect x="44" y="65" width="1" height="1"/><rect x="48" y="65" width="1" height="1"/><rect x="49" y="65" width="1" height="1"/><rect width="4" height="1" x="50" y="65"/><rect y="65" width="1" height="3" x="54"/><rect x="55" y="65" width="1" height="1"/><rect x="56" y="65" width="1" height="1"/><rect x="61" y="65" width="1" height="1"/><rect x="62" y="65" width="1" height="1"/><rect x="63" y="65" width="1" height="1"/><rect height="2" x="64" y="65" width="1"/><rect x="7" y="66" width="1" height="1"/><rect x="8" y="66" width="1" height="1"/><rect x="9" y="66" width="4" height="1"/><rect x="13" y="66" width="1" height="2"/><rect y="66" width="1" height="1" x="14"/><rect width="1" height="1" x="15" y="66"/><rect x="16" y="66" width="1" height="1"/><rect y="66" width="1" height="1" x="17"/><rect y="66" width="1" height="1" x="18"/><rect x="19" y="66" width="1" height="1"/><rect height="1" x="20" y="66" width="3"/><rect x="24" y="66" width="1" height="1"/><rect y="66" width="1" height="1" x="27"/><rect x="28" y="66" width="3" height="1"/><rect x="31" y="66" width="1" height="2"/><rect height="1" x="32" y="66" width="1"/><rect x="33" y="66" width="1" height="1"/><rect width="1" height="1" x="34" y="66"/><rect x="35" y="66" width="1" height="1"/><rect x="36" y="66" width="1" height="1"/><rect width="1" height="1" x="37" y="66"/><rect y="66" width="1" height="1" x="38"/><rect height="1" x="39" y="66" width="3"/><rect y="66" width="1" height="1" x="42"/><rect x="43" y="66" width="1" height="1"/><rect x="44" y="66" width="1" height="1"/><rect x="49" y="66" width="1" height="1"/><rect x="50" y="66" width="1" height="1"/><rect x="51" y="66" width="4" height="1"/><rect x="55" y="66" width="1" height="2"/><rect x="56" y="66" width="1" height="1"/><rect x="57" y="66" width="1" height="1"/><rect y="66" width="1" height="1" x="58"/><rect x="59" y="66" width="1" height="1"/><rect x="60" y="66" width="1" height="1"/><rect x="61" y="66" width="1" height="1"/><rect y="66" width="3" height="1" x="62"/><rect width="1" height="1" x="65" y="66"/><rect y="66" width="1" height="1" x="66"/><rect x="8" y="67" width="1" height="1"/><rect y="67" width="1" height="1" x="9"/><rect x="10" y="67" width="13" height="1"/><rect height="1" x="23" y="67" width="1"/><rect x="24" y="67" width="1" height="1"/><rect x="27" y="67" width="1" height="1"/><rect y="67" width="1" height="1" x="28"/><rect height="1" x="29" y="67" width="12"/><rect x="41" y="67" width="1" height="1"/><rect width="1" height="1" x="42" y="67"/><rect x="43" y="67" width="1" height="1"/><rect x="50" y="67" width="1" height="1"/><rect x="51" y="67" width="1" height="1"/><rect x="52" y="67" width="12" height="1"/><rect height="1" x="64" y="67" width="1"/><rect width="1" height="1" x="65" y="67"/><rect y="67" width="1" height="1" x="66"/><rect x="9" y="68" width="1" height="1"/><rect width="1" height="1" x="10" y="68"/><rect width="1" height="1" x="11" y="68"/><rect x="12" y="68" width="9" height="1"/><rect x="21" y="68" width="1" height="1"/><rect x="22" y="68" width="1" height="1"/><rect x="23" y="68" width="1" height="1"/><rect x="24" y="68" width="1" height="1"/><rect y="68" width="1" height="1" x="28"/><rect y="68" width="1" height="1" x="29"/><rect y="68" width="1" height="1" x="30"/><rect width="9" height="1" x="31" y="68"/><rect y="68" width="1" height="1" x="40"/><rect height="1" x="41" y="68" width="1"/><rect x="42" y="68" width="1" height="1"/><rect x="51" y="68" width="1" height="1"/><rect width="1" height="1" x="52" y="68"/><rect x="53" y="68" width="1" height="1"/><rect y="68" width="9" height="1" x="54"/><rect width="1" height="1" x="63" y="68"/><rect width="1" height="1" x="64" y="68"/><rect y="68" width="1" height="1" x="65"/><rect x="11" y="69" width="1" height="1"/><rect x="12" y="69" width="1" height="1"/><rect height="1" x="13" y="69" width="1"/><rect height="1" x="14" y="69" width="1"/><rect height="1" x="15" y="69" width="1"/><rect x="16" y="69" width="1" height="1"/><rect height="1" x="17" y="69" width="1"/><rect x="18" y="69" width="1" height="1"/><rect x="19" y="69" width="1" height="1"/><rect width="1" height="1" x="20" y="69"/><rect x="21" y="69" width="1" height="1"/><rect y="69" width="1" height="1" x="22"/><rect x="30" y="69" width="1" height="1"/><rect x="31" y="69" width="1" height="1"/><rect y="69" width="1" height="1" x="32"/><rect x="33" y="69" width="1" height="1"/><rect width="1" height="1" x="34" y="69"/><rect x="35" y="69" width="1" height="1"/><rect x="36" y="69" width="1" height="1"/><rect y="69" width="1" height="1" x="37"/><rect x="38" y="69" width="1" height="1"/><rect x="39" y="69" width="1" height="1"/><rect x="40" y="69" width="1" height="1"/><rect y="69" width="1" height="1" x="41"/><rect x="53" y="69" width="1" height="1"/><rect width="1" height="1" x="54" y="69"/><rect y="69" width="1" height="1" x="55"/><rect x="56" y="69" width="1" height="1"/><rect x="57" y="69" width="1" height="1"/><rect height="1" x="58" y="69" width="1"/><rect x="59" y="69" width="1" height="1"/><rect width="1" height="1" x="60" y="69"/><rect x="61" y="69" width="1" height="1"/><rect x="62" y="69" width="1" height="1"/><rect width="1" height="1" x="63" y="69"/></g><g fill="#00b1a9"><rect x="46" y="2" width="1" height="1"/><rect y="2" width="1" height="1" x="47"/><rect x="48" y="2" width="1" height="1"/><rect y="2" width="1" height="1" x="49"/><rect width="1" height="1" x="50" y="2"/><rect x="43" y="3" width="1" height="1"/><rect y="3" width="1" height="1" x="44"/><rect x="45" y="3" width="1" height="1"/><rect y="3" width="3" height="5" x="46"/><rect x="49" y="3" width="1" height="5"/><rect x="50" y="3" width="1" height="5"/><rect x="42" y="4" width="1" height="1"/><rect x="43" y="4" width="1" height="1"/><rect x="44" y="4" width="5" height="4"/><rect x="40" y="5" width="1" height="1"/><rect x="41" y="5" width="1" height="1"/><rect height="3" x="42" y="5" width="7"/><rect x="39" y="6" width="1" height="1"/><rect width="1" height="1" x="40" y="6"/><rect x="41" y="6" width="8" height="2"/><rect x="38" y="7" width="1" height="1"/><rect y="7" width="1" height="1" x="39"/><rect width="9" height="1" x="40" y="7"/><rect y="8" width="1" height="1" x="37"/><rect x="38" y="8" width="1" height="1"/><rect y="8" width="10" height="1" x="39"/><rect y="8" width="1" height="1" x="49"/><rect height="1" x="50" y="8" width="1"/><rect x="37" y="9" width="1" height="1"/><rect x="38" y="9" width="9" height="1"/><rect y="9" width="1" height="1" x="47"/><rect height="1" x="48" y="9" width="1"/><rect y="9" width="1" height="1" x="49"/><rect x="50" y="9" width="1" height="1"/><rect x="36" y="10" width="1" height="1"/><rect height="1" x="37" y="10" width="8"/><rect width="1" height="1" x="45" y="10"/><rect y="10" width="1" height="1" x="46"/><rect x="47" y="10" width="1" height="1"/><rect height="1" x="48" y="10" width="1"/><rect width="1" height="1" x="35" y="11"/><rect x="36" y="11" width="1" height="1"/><rect x="37" y="11" width="7" height="1"/><rect height="1" x="44" y="11" width="1"/><rect x="45" y="11" width="1" height="1"/><rect y="11" width="1" height="1" x="46"/><rect width="1" height="1" x="35" y="12"/><rect width="7" height="1" x="36" y="12"/><rect y="12" width="1" height="1" x="43"/><rect x="44" y="12" width="1" height="1"/><rect y="13" width="1" height="1" x="34"/><rect height="1" x="35" y="13" width="1"/><rect x="36" y="13" width="6" height="2"/><rect x="42" y="13" width="1" height="1"/><rect x="43" y="13" width="1" height="1"/><rect width="1" height="1" x="34" y="14"/><rect x="35" y="14" width="6" height="3"/><rect height="1" x="42" y="14" width="1"/><rect y="14" width="1" height="1" x="43"/><rect x="33" y="15" width="1" height="1"/><rect x="34" y="15" width="1" height="1"/><rect x="41" y="15" width="1" height="1"/><rect width="1" height="1" x="42" y="15"/><rect y="16" width="1" height="1" x="33"/><rect height="3" x="34" y="16" width="6"/><rect height="1" x="41" y="16" width="1"/><rect width="1" height="1" x="32" y="17"/><rect x="33" y="17" width="1" height="1"/><rect height="1" x="40" y="17" width="1"/><rect x="41" y="17" width="1" height="1"/><rect y="18" width="1" height="1" x="32"/><rect x="33" y="18" width="6" height="3"/><rect x="40" y="18" width="1" height="1"/><rect y="19" width="1" height="1" x="31"/><rect x="32" y="19" width="1" height="1"/><rect x="39" y="19" width="1" height="1"/><rect y="19" width="1" height="1" x="40"/><rect width="1" height="1" x="31" y="20"/><rect x="32" y="20" width="6" height="3"/><rect x="39" y="20" width="1" height="1"/><rect x="31" y="21" width="1" height="1"/><rect x="38" y="21" width="1" height="1"/><rect x="39" y="21" width="1" height="1"/><rect x="30" y="22" width="1" height="1"/><rect x="31" y="22" width="6" height="3"/><rect y="22" width="1" height="1" x="38"/><rect x="39" y="22" width="1" height="1"/><rect x="29" y="23" width="1" height="1"/><rect width="1" height="1" x="30" y="23"/><rect height="1" x="37" y="23" width="1"/><rect width="1" height="1" x="38" y="23"/><rect y="24" width="1" height="1" x="29"/><rect width="6" height="3" x="30" y="24"/><rect height="1" x="37" y="24" width="1"/><rect x="38" y="24" width="1" height="1"/><rect x="28" y="25" width="1" height="1"/><rect x="29" y="25" width="1" height="1"/><rect x="36" y="25" width="1" height="1"/><rect x="37" y="25" width="1" height="1"/><rect height="1" x="27" y="26" width="1"/><rect x="28" y="26" width="1" height="1"/><rect height="2" x="29" y="26" width="6"/><rect x="36" y="26" width="1" height="1"/><rect x="37" y="26" width="1" height="1"/><rect x="27" y="27" width="1" height="1"/><rect x="28" y="27" width="7" height="1"/><rect x="35" y="27" width="1" height="1"/><rect x="36" y="27" width="1" height="1"/><rect x="25" y="28" width="1" height="1"/><rect y="28" width="1" height="1" x="26"/><rect x="27" y="28" width="7" height="2"/><rect x="34" y="28" width="1" height="1"/><rect x="35" y="28" width="1" height="1"/><rect x="36" y="28" width="1" height="1"/><rect x="23" y="29" width="1" height="1"/><rect height="1" x="24" y="29" width="1"/><rect width="1" height="1" x="25" y="29"/><rect x="26" y="29" width="7" height="2"/><rect x="34" y="29" width="1" height="1"/><rect x="35" y="29" width="1" height="1"/><rect x="21" y="30" width="1" height="1"/><rect x="22" y="30" width="1" height="1"/><rect height="1" x="23" y="30" width="1"/><rect width="9" height="1" x="24" y="30"/><rect height="1" x="33" y="30" width="1"/><rect height="1" x="34" y="30" width="1"/><rect x="21" y="31" width="1" height="6"/><rect height="1" x="22" y="31" width="10"/><rect x="32" y="31" width="1" height="1"/><rect x="33" y="31" width="1" height="1"/><rect x="34" y="31" width="1" height="1"/><rect x="22" y="32" width="9" height="1"/><rect x="31" y="32" width="1" height="1"/><rect height="1" x="32" y="32" width="1"/><rect width="1" height="1" x="33" y="32"/><rect x="22" y="33" width="8" height="1"/><rect x="30" y="33" width="1" height="1"/><rect x="31" y="33" width="1" height="1"/><rect x="32" y="33" width="1" height="1"/><rect x="22" y="34" width="7" height="1"/><rect height="1" x="29" y="34" width="1"/><rect x="30" y="34" width="1" height="1"/><rect x="31" y="34" width="1" height="1"/><rect y="35" width="5" height="1" x="22"/><rect width="1" height="1" x="27" y="35"/><rect y="35" width="1" height="1" x="28"/><rect width="1" height="1" x="29" y="35"/><rect width="3" height="1" x="22" y="36"/><rect x="25" y="36" width="1" height="1"/><rect x="26" y="36" width="1" height="1"/><rect x="27" y="36" width="1" height="1"/><rect x="28" y="36" width="1" height="1"/><rect x="21" y="37" width="1" height="1"/><rect x="22" y="37" width="1" height="1"/><rect x="23" y="37" width="1" height="1"/><rect width="1" height="1" x="24" y="37"/><rect y="37" width="1" height="1" x="25"/><rect x="26" y="37" width="1" height="1"/><rect width="1" height="1" x="21" y="38"/></g></svg>