<?xml version="1.0" encoding="UTF-8"?> <!-- Generator: Adobe Illustrator 24.1.1, SVG Export Plug-In . SVG Version: 6.00 Build 0) --> <svg xmlns="http://www.w3.org/2000/svg" xmlns:xlink="http://www.w3.org/1999/xlink" id="Layer_1" x="0px" y="0px" viewBox="0 0 400 245" style="enable-background:new 0 0 400 245;" xml:space="preserve"> <style type="text/css"> .st0{fill:url(#SVGID_1_);} .st1{fill:none;stroke:#281636;stroke-width:1.3429;stroke-miterlimit:10;} .st2{fill:#281636;} .st3{fill-rule:evenodd;clip-rule:evenodd;fill:#281636;} .st4{fill-rule:evenodd;clip-rule:evenodd;fill:#E22F2D;} .st5{fill-rule:evenodd;clip-rule:evenodd;fill:#F8AB41;} .st6{fill-rule:evenodd;clip-rule:evenodd;fill:#42AD4B;} </style> <g> <linearGradient id="SVGID_1_" gradientUnits="userSpaceOnUse" x1="33.202" y1="153.5692" x2="33.202" y2="91.4315" gradientTransform="matrix(1 0 0 -1 0 245)"> <stop offset="0" style="stop-color:#6E5979"></stop> <stop offset="1" style="stop-color:#441B42"></stop> </linearGradient> <path class="st0" d="M11.1,91.4h44.2c5,0,9,4,9,9v44.2c0,5-4,9-9,9H11.1c-5,0-9-4-9-9v-44.2C2.1,95.4,6.2,91.4,11.1,91.4z"></path> <line class="st1" x1="254.9" y1="144.5" x2="254.9" y2="99.4"></line> <path class="st2" d="M99.1,100v3.3h-9.4v3.8h8.6v3h-8.6v4.4h9.6v3.3H85.9V99.9L99.1,100z"></path> <path class="st2" d="M105.8,100l7.4,11.9h0V100h3.7v17.8h-3.9l-7.4-11.9h0v11.9H102V100L105.8,100z"></path> <path class="st2" d="M128.1,100c1.1,0,2.2,0.2,3.2,0.5c1,0.4,1.8,0.9,2.6,1.6c0.7,0.7,1.3,1.6,1.7,2.7c0.4,1.1,0.6,2.4,0.6,3.9 c0,1.2-0.2,2.4-0.5,3.6c-0.3,1-0.8,2-1.5,2.8c-0.7,0.8-1.5,1.4-2.5,1.9c-1,0.5-2.2,0.7-3.5,0.7h-7.7V100L128.1,100z M127.8,114.4 c0.6,0,1.1-0.1,1.6-0.3c0.5-0.2,1-0.5,1.4-0.9c0.4-0.4,0.7-1,1-1.7c0.2-0.7,0.4-1.5,0.4-2.5c0-0.8-0.1-1.6-0.3-2.4 c-0.2-0.7-0.4-1.3-0.9-1.9c-0.4-0.5-1-0.9-1.6-1.2c-0.7-0.3-1.5-0.4-2.4-0.4h-2.8v11.2H127.8z"></path> <path class="st2" d="M146.8,100c1.1,0,2.1,0.2,2.8,0.5s1.4,0.8,1.9,1.3c0.5,0.5,0.8,1.1,1.1,1.8c0.4,1.4,0.4,2.8,0,4.2 c-0.2,0.7-0.6,1.3-1.1,1.8c-0.5,0.5-1.1,1-1.9,1.3c-0.8,0.3-1.7,0.5-2.8,0.5h-4.1v6.4h-3.9V100L146.8,100z M145.8,108.3 c0.4,0,0.9,0,1.3-0.1c0.4-0.1,0.8-0.2,1.1-0.4c0.3-0.2,0.6-0.5,0.8-0.8c0.2-0.3,0.3-0.8,0.3-1.4c0-0.6-0.1-1-0.3-1.4 c-0.2-0.3-0.4-0.6-0.8-0.8c-0.3-0.2-0.7-0.3-1.1-0.4c-0.4-0.1-0.9-0.1-1.3-0.1h-3v5.3L145.8,108.3z"></path> <path class="st2" d="M155.2,105.2c0.4-1.1,1-2.1,1.7-3c0.8-0.9,1.7-1.5,2.7-2c1.1-0.5,2.3-0.7,3.7-0.7c1.4,0,2.6,0.2,3.7,0.7 c1,0.5,2,1.1,2.7,2c0.8,0.9,1.3,1.9,1.7,3c0.4,1.2,0.6,2.4,0.6,3.7c0,1.2-0.2,2.5-0.6,3.6c-0.4,1.1-1,2.1-1.7,2.9 c-0.8,0.8-1.7,1.5-2.7,2c-1.1,0.5-2.3,0.7-3.7,0.7c-1.4,0-2.6-0.2-3.7-0.7c-1-0.4-2-1.1-2.7-2c-0.8-0.9-1.3-1.8-1.7-2.9 c-0.4-1.2-0.6-2.4-0.6-3.6C154.6,107.7,154.8,106.4,155.2,105.2z M158.8,111.1c0.2,0.7,0.4,1.3,0.8,1.9c0.4,0.6,0.9,1,1.5,1.4 c0.6,0.3,1.4,0.5,2.2,0.5c0.9,0,1.6-0.2,2.2-0.5c0.6-0.3,1.1-0.8,1.5-1.4c0.4-0.6,0.7-1.2,0.8-1.9c0.2-0.7,0.3-1.4,0.3-2.2 c0-0.8-0.1-1.5-0.3-2.3c-0.2-0.7-0.4-1.4-0.8-2c-0.4-0.6-0.9-1-1.5-1.4c-0.6-0.3-1.4-0.5-2.2-0.5c-0.9,0-1.6,0.2-2.2,0.5 c-0.6,0.3-1.1,0.8-1.5,1.4c-0.4,0.6-0.7,1.3-0.8,1.9c-0.2,0.7-0.3,1.5-0.3,2.3C158.5,109.6,158.6,110.4,158.8,111.1L158.8,111.1z"></path> <path class="st2" d="M178.7,100v17.8h-3.9V100H178.7z"></path> <path class="st2" d="M186,100l7.4,11.9h0V100h3.7v17.8h-3.9l-7.4-11.9h0v11.9h-3.7V100L186,100z"></path> <path class="st2" d="M199.1,103.2V100h14.5v3.3h-5.3v14.5h-3.9v-14.5H199.1z"></path> <path class="st2" d="M93.9,126.6c1.1,0,2.1,0.2,2.8,0.5c0.8,0.3,1.4,0.8,1.9,1.3c0.5,0.5,0.8,1.1,1.1,1.8c0.4,1.4,0.4,2.8,0,4.2 c-0.2,0.7-0.6,1.3-1.1,1.8c-0.5,0.5-1.1,1-1.9,1.3c-0.8,0.3-1.7,0.5-2.8,0.5h-4.1v6.4h-3.9v-17.8L93.9,126.6z M92.8,134.9 c0.4,0,0.9,0,1.3-0.1c0.4-0.1,0.8-0.2,1.1-0.4c0.3-0.2,0.6-0.5,0.8-0.8c0.2-0.3,0.3-0.8,0.3-1.4c0-0.6-0.1-1-0.3-1.4 c-0.2-0.3-0.4-0.6-0.8-0.8c-0.3-0.2-0.7-0.3-1.1-0.4c-0.4-0.1-0.9-0.1-1.3-0.1h-3v5.3H92.8z"></path> <path class="st2" d="M112,126.6c0.7,0,1.5,0.1,2.1,0.4c0.6,0.2,1.2,0.6,1.6,1.1c0.5,0.4,0.8,1,1,1.6c0.2,0.6,0.4,1.3,0.4,1.9 c0,1-0.2,1.9-0.7,2.7c-0.4,0.8-1.2,1.3-2.2,1.7v0c0.4,0.1,0.8,0.3,1.2,0.6c0.3,0.3,0.6,0.6,0.8,1c0.2,0.4,0.4,0.8,0.4,1.2 c0.1,0.4,0.2,0.9,0.2,1.3c0,0.3,0,0.6,0,1c0,0.4,0,0.8,0.1,1.2c0,0.4,0.1,0.8,0.2,1.1c0.1,0.3,0.2,0.6,0.4,0.9h-3.9 c-0.2-0.6-0.3-1.2-0.4-2c0-0.8-0.1-1.5-0.2-2.2c-0.1-0.9-0.4-1.6-0.8-2c-0.4-0.4-1.1-0.6-2.1-0.6h-3.9v6.9h-3.9v-17.8L112,126.6z M110.6,134.6c0.9,0,1.6-0.2,2-0.6s0.7-1,0.7-1.9c0-0.9-0.2-1.5-0.7-1.9s-1.1-0.6-2-0.6h-4.3v5H110.6z"></path> <path class="st2" d="M120.2,131.8c0.4-1.1,1-2.1,1.7-3c0.8-0.9,1.7-1.5,2.7-2c1.1-0.5,2.3-0.7,3.7-0.7c1.4,0,2.6,0.2,3.7,0.7 c1,0.5,2,1.1,2.7,2c0.8,0.9,1.3,1.9,1.7,3c0.4,1.2,0.6,2.4,0.6,3.7c0,1.2-0.2,2.5-0.6,3.6c-0.4,1.1-1,2.1-1.7,2.9 c-0.8,0.8-1.7,1.5-2.7,2c-1.1,0.5-2.3,0.7-3.7,0.7c-1.4,0-2.6-0.2-3.7-0.7c-1-0.4-2-1.1-2.7-2c-0.8-0.9-1.3-1.8-1.7-2.9 c-0.4-1.2-0.6-2.4-0.6-3.6C119.6,134.3,119.8,133,120.2,131.8z M123.8,137.7c0.2,0.7,0.4,1.3,0.8,1.9c0.4,0.6,0.9,1,1.5,1.4 c0.6,0.3,1.4,0.5,2.2,0.5c0.9,0,1.6-0.2,2.2-0.5c0.6-0.3,1.1-0.8,1.5-1.4c0.4-0.6,0.7-1.2,0.8-1.9c0.2-0.7,0.3-1.4,0.3-2.2 c0-0.8-0.1-1.5-0.3-2.3c-0.2-0.7-0.4-1.4-0.8-2c-0.4-0.6-0.9-1-1.5-1.4c-0.6-0.3-1.4-0.5-2.2-0.5c-0.9,0-1.6,0.2-2.2,0.5 c-0.6,0.3-1.1,0.8-1.5,1.4c-0.4,0.6-0.7,1.3-0.8,2c-0.2,0.7-0.3,1.5-0.3,2.3C123.5,136.3,123.6,137,123.8,137.7L123.8,137.7z"></path> <path class="st2" d="M138.4,129.9v-3.3h14.5v3.3h-5.3v14.5h-3.9v-14.5H138.4z"></path> <path class="st2" d="M168.2,126.6v3.3h-9.4v3.8h8.6v3h-8.6v4.4h9.6v3.3h-13.5v-17.8L168.2,126.6z"></path> <path class="st2" d="M182.4,131.3c-0.2-0.4-0.5-0.7-0.9-1c-0.7-0.6-1.6-0.9-2.6-0.9c-0.9,0-1.6,0.2-2.2,0.5 c-0.6,0.3-1.1,0.8-1.5,1.4c-0.4,0.6-0.7,1.3-0.8,2c-0.2,0.7-0.3,1.5-0.3,2.3c0,0.7,0.1,1.5,0.3,2.2c0.2,0.7,0.4,1.3,0.8,1.9 c0.4,0.6,0.9,1,1.5,1.4c0.6,0.3,1.4,0.5,2.2,0.5c1.2,0,2.1-0.4,2.8-1.1c0.7-0.7,1.1-1.7,1.2-2.9h3.8c-0.1,1-0.3,2.1-0.8,3 c-0.4,0.9-0.9,1.6-1.6,2.3c-0.7,0.6-1.5,1.1-2.4,1.4c-1,0.3-2,0.5-3,0.5c-1.4,0-2.6-0.2-3.7-0.7c-1-0.4-2-1.1-2.7-2 c-0.8-0.9-1.3-1.8-1.7-2.9c-0.4-1.2-0.6-2.4-0.6-3.6c0-1.3,0.2-2.5,0.6-3.7c0.4-1.1,1-2.1,1.7-3c0.8-0.9,1.7-1.5,2.7-2 c1.1-0.5,2.3-0.7,3.7-0.7c0.9,0,1.9,0.1,2.8,0.4c0.8,0.3,1.6,0.7,2.3,1.2c0.7,0.5,1.3,1.2,1.7,2c0.4,0.8,0.7,1.7,0.8,2.7h-3.8 C182.8,132.1,182.7,131.7,182.4,131.3z"></path> <path class="st2" d="M188.1,129.9v-3.3h14.5v3.3h-5.3v14.5h-3.9v-14.5H188.1z"></path> <path class="st2" d="M204.5,131.8c0.4-1.1,1-2.1,1.7-3c0.8-0.9,1.7-1.5,2.7-2c1.1-0.5,2.3-0.7,3.7-0.7c1.4,0,2.6,0.2,3.7,0.7 c1,0.5,2,1.1,2.7,2c0.8,0.9,1.3,1.9,1.7,3c0.4,1.2,0.6,2.4,0.6,3.7c0,1.2-0.2,2.5-0.6,3.6c-0.4,1.1-1,2.1-1.7,2.9 c-0.8,0.8-1.7,1.5-2.7,2c-1.1,0.5-2.3,0.7-3.7,0.7c-1.4,0-2.6-0.2-3.7-0.7c-1-0.4-2-1.1-2.7-2c-0.8-0.9-1.3-1.8-1.7-2.9 c-0.4-1.2-0.6-2.4-0.6-3.6C203.9,134.3,204.1,133,204.5,131.8z M208.1,137.7c0.2,0.7,0.4,1.3,0.8,1.9c0.4,0.6,0.9,1,1.5,1.4 c0.6,0.3,1.4,0.5,2.2,0.5s1.6-0.2,2.2-0.5c0.6-0.3,1.1-0.8,1.5-1.4c0.4-0.6,0.7-1.2,0.8-1.9c0.2-0.7,0.3-1.4,0.3-2.2 c0-0.8-0.1-1.5-0.3-2.3c-0.2-0.7-0.4-1.4-0.8-2c-0.4-0.6-0.9-1-1.5-1.4c-0.6-0.3-1.4-0.5-2.2-0.5c-0.9,0-1.6,0.2-2.2,0.5 c-0.6,0.3-1.1,0.8-1.5,1.4c-0.4,0.6-0.7,1.3-0.8,2c-0.2,0.7-0.3,1.5-0.3,2.3C207.8,136.3,207.9,137,208.1,137.7L208.1,137.7z"></path> <path class="st2" d="M233.6,126.6c0.7,0,1.5,0.1,2.2,0.4c0.6,0.2,1.2,0.6,1.6,1.1c0.5,0.4,0.8,1,1,1.6c0.2,0.6,0.4,1.3,0.4,1.9 c0,1-0.2,1.9-0.7,2.7c-0.4,0.8-1.2,1.3-2.2,1.7v0c0.4,0.1,0.8,0.3,1.2,0.6c0.3,0.3,0.6,0.6,0.8,1c0.2,0.4,0.4,0.8,0.4,1.2 c0.1,0.4,0.2,0.9,0.2,1.3c0,0.3,0,0.6,0,1c0,0.4,0,0.8,0.1,1.2c0,0.4,0.1,0.8,0.2,1.1c0.1,0.3,0.2,0.6,0.4,0.9h-3.9 c-0.2-0.6-0.3-1.2-0.4-2c0-0.8-0.1-1.5-0.2-2.2c-0.1-0.9-0.4-1.6-0.8-2c-0.4-0.4-1.1-0.6-2.1-0.6h-3.9v6.9H224v-17.8L233.6,126.6z M232.2,134.6c0.9,0,1.6-0.2,2-0.6s0.7-1,0.7-1.9c0-0.9-0.2-1.5-0.7-1.9s-1.1-0.6-2-0.6h-4.3v5H232.2z"></path> <path class="st3" d="M33.6,149.8c-5.4,0-9.7-4.4-9.6-9.8v-35.2c0-5.3,4.4-9.6,9.7-9.6c0,0,0.1,0,0.1,0c5.4,0,9.7,4.4,9.6,9.8v35.2 C43.4,145.5,39.1,149.8,33.6,149.8L33.6,149.8z"></path> <path class="st4" d="M40.8,104.5c0,3.9-3.2,7.1-7.1,7.1c-3.9,0-7.1-3.2-7.1-7.1c0-3.9,3.2-7.1,7.1-7.1 C37.6,97.4,40.8,100.6,40.8,104.5C40.8,104.5,40.8,104.5,40.8,104.5L40.8,104.5z"></path> <path class="st5" d="M40.8,122.5c0,3.9-3.2,7.1-7.1,7.1c-3.9,0-7.1-3.2-7.1-7.1c0-3.9,3.2-7.1,7.1-7.1 C37.6,115.4,40.8,118.6,40.8,122.5C40.8,122.5,40.8,122.5,40.8,122.5L40.8,122.5z"></path> <path class="st6" d="M40.8,140.5c0,3.9-3.2,7.1-7.1,7.1c-3.9,0-7.1-3.2-7.1-7.1c0-3.9,3.2-7.1,7.1-7.1c0,0,0,0,0,0 C37.7,133.4,40.8,136.6,40.8,140.5z"></path> <path class="st2" d="M55.3,155.7H11.1c-6.1,0-11.1-5-11.1-11.1v-44.2c0-6.1,5-11.1,11.1-11.1h44.2c6.1,0,11.1,5,11.1,11.1v44.2 C66.4,150.7,61.4,155.7,55.3,155.7z M11.1,91.4c-5,0-9,4-9,9v44.2c0,5,4,9,9,9h44.2c5,0,9-4,9-9v-44.2c0-5-4-9-9-9H11.1z"></path> <path class="st2" d="M267.4,99.4v7.6h0.1c0.2-0.5,0.4-0.9,0.7-1.3c0.3-0.4,0.7-0.7,1.1-0.9c0.4-0.2,0.9-0.4,1.3-0.6 c0.5-0.1,1-0.2,1.4-0.2c1,0,1.9,0.2,2.6,0.6c0.7,0.4,1.4,0.9,1.9,1.5c0.5,0.7,0.9,1.4,1.1,2.2c0.5,1.8,0.5,3.6,0,5.3 c-0.2,0.8-0.6,1.6-1.1,2.2c-0.5,0.6-1.1,1.2-1.9,1.5c-0.7,0.4-1.6,0.6-2.6,0.6c-1.1,0-2-0.2-2.9-0.7c-0.8-0.5-1.5-1.2-1.8-2.1h-0.1 v2.5h-1.5V99.4H267.4z M276.1,109.1c-0.1-0.6-0.4-1.3-0.8-1.8c-0.3-0.5-0.8-1-1.3-1.3c-0.5-0.3-1.2-0.5-2-0.5 c-0.9,0-1.6,0.2-2.2,0.5c-0.6,0.3-1.1,0.8-1.4,1.3c-0.4,0.5-0.6,1.2-0.8,1.8c-0.3,1.3-0.3,2.7,0,4.1c0.1,0.6,0.4,1.3,0.8,1.8 c0.4,0.5,0.9,1,1.4,1.3c0.6,0.3,1.3,0.5,2.2,0.5c0.8,0,1.4-0.2,2-0.5c0.5-0.3,1-0.8,1.3-1.3c0.4-0.6,0.6-1.2,0.8-1.8 C276.4,111.8,276.4,110.4,276.1,109.1z"></path> <path class="st2" d="M280.7,104.5l4.4,11.3l4.1-11.3h1.6l-5.7,15.2c-0.2,0.5-0.4,0.9-0.7,1.4c-0.2,0.3-0.4,0.6-0.7,0.9 c-0.3,0.2-0.5,0.4-0.9,0.5c-0.4,0.1-0.8,0.2-1.3,0.1c-0.3,0-0.6,0-0.8,0c-0.2,0-0.3,0-0.5-0.1v-1.4c0.2,0,0.4,0.1,0.6,0.1 c0.2,0,0.4,0,0.6,0c0.3,0,0.6,0,0.9-0.2c0.2-0.1,0.4-0.2,0.6-0.4c0.2-0.2,0.3-0.4,0.4-0.7c0.1-0.3,0.2-0.5,0.4-0.8l0.6-1.5 l-5.3-13.2H280.7z"></path> <path class="st2" d="M312.3,103.1c-0.3-0.5-0.8-1-1.3-1.4c-0.5-0.4-1.1-0.7-1.7-0.9c-0.6-0.2-1.3-0.3-1.9-0.3 c-1.2,0-2.3,0.2-3.1,0.7c-0.8,0.4-1.6,1.1-2.1,1.8c-0.6,0.8-1,1.6-1.2,2.6c-0.5,1.9-0.5,4,0,5.9c0.2,0.9,0.7,1.8,1.2,2.6 c0.6,0.8,1.3,1.4,2.1,1.8c0.9,0.5,1.9,0.7,3.1,0.7c0.8,0,1.6-0.1,2.3-0.5c0.7-0.3,1.3-0.7,1.8-1.3c0.5-0.5,0.9-1.2,1.2-1.9 c0.3-0.7,0.5-1.5,0.6-2.3h1.7c-0.1,1.1-0.4,2.1-0.8,3c-0.4,0.9-0.9,1.6-1.6,2.3c-0.7,0.6-1.4,1.1-2.3,1.5c-0.9,0.3-1.9,0.5-2.9,0.5 c-1.4,0-2.7-0.3-3.8-0.8c-1-0.5-2-1.2-2.7-2.1c-0.7-0.9-1.3-1.9-1.6-3c-0.7-2.4-0.7-4.9,0-7.2c0.3-1.1,0.9-2.1,1.6-3 c0.7-0.9,1.7-1.6,2.7-2.1c1.1-0.5,2.3-0.8,3.8-0.8c0.9,0,1.7,0.1,2.5,0.4c0.8,0.2,1.6,0.6,2.3,1.1c0.7,0.5,1.2,1.1,1.7,1.9 c0.5,0.7,0.7,1.6,0.9,2.5h-1.7C313,104.3,312.7,103.7,312.3,103.1z"></path> <path class="st2" d="M325.7,104.7c0.8,0.4,1.4,0.9,2,1.5c0.5,0.7,0.9,1.4,1.2,2.2c0.5,1.8,0.5,3.6,0,5.4c-0.3,0.8-0.7,1.6-1.2,2.2 c-0.5,0.6-1.2,1.1-2,1.5c-0.8,0.4-1.7,0.6-2.7,0.6c-1,0-1.9-0.2-2.7-0.6c-0.8-0.3-1.4-0.9-2-1.5c-0.5-0.7-0.9-1.4-1.2-2.2 c-0.5-1.8-0.5-3.6,0-5.4c0.3-0.8,0.7-1.6,1.2-2.2c0.5-0.6,1.2-1.2,2-1.5c0.8-0.4,1.7-0.6,2.7-0.6 C324,104.1,324.9,104.3,325.7,104.7z M321,106c-0.6,0.3-1.1,0.8-1.4,1.3c-0.4,0.5-0.7,1.2-0.9,1.8c-0.4,1.3-0.4,2.8,0,4.1 c0.2,0.6,0.5,1.3,0.9,1.8c0.4,0.5,0.9,1,1.4,1.3c0.6,0.3,1.3,0.5,2,0.5c0.8,0,1.4-0.2,2-0.5c0.6-0.3,1.1-0.8,1.4-1.3 c0.4-0.5,0.7-1.2,0.9-1.8c0.4-1.3,0.4-2.8,0-4.1c-0.2-0.6-0.5-1.3-0.9-1.8c-0.4-0.5-0.9-1-1.4-1.3c-0.6-0.3-1.3-0.5-2-0.5 C322.3,105.5,321.6,105.6,321,106L321,106z"></path> <path class="st2" d="M333.2,114.1c0.3,0.6,0.7,1.1,1.3,1.5c0.6,0.4,1.2,0.7,1.9,0.8c0.8,0.2,1.6,0.2,2.4,0.2c0.5,0,1.1-0.1,1.6-0.2 c0.6-0.1,1.1-0.4,1.6-0.7c0.5-0.3,0.9-0.7,1.2-1.2c0.3-0.5,0.5-1,0.5-1.7c0-0.5-0.1-0.9-0.3-1.3c-0.2-0.4-0.5-0.7-0.9-0.9 c-0.4-0.3-0.8-0.5-1.2-0.6c-0.4-0.2-0.9-0.3-1.3-0.4l-4.1-1c-0.5-0.1-1-0.3-1.5-0.5c-0.5-0.2-0.9-0.5-1.3-0.8 c-0.4-0.4-0.7-0.8-0.9-1.3c-0.2-0.5-0.3-1.1-0.3-1.8c0-0.4,0.1-1,0.3-1.6c0.2-0.6,0.5-1.2,1-1.7c0.5-0.5,1.1-1,1.9-1.3 c0.8-0.4,1.9-0.6,3.1-0.6c0.9,0,1.7,0.1,2.6,0.4c0.8,0.2,1.5,0.6,2.2,1.1c0.6,0.5,1.1,1.1,1.5,1.8c0.4,0.7,0.5,1.5,0.5,2.5H343 c0-0.7-0.2-1.3-0.5-1.8c-0.3-0.5-0.6-1-1.1-1.3c-0.5-0.4-1-0.6-1.6-0.8c-0.6-0.2-1.2-0.3-1.9-0.3c-0.6,0-1.2,0.1-1.7,0.2 c-0.5,0.1-1,0.3-1.5,0.6c-0.4,0.3-0.8,0.7-1,1.1c-0.3,0.5-0.4,1-0.4,1.7c0,0.4,0.1,0.8,0.2,1.1c0.1,0.3,0.3,0.6,0.6,0.8 c0.3,0.2,0.6,0.4,0.9,0.5c0.3,0.1,0.7,0.3,1.1,0.3l4.5,1.1c0.6,0.2,1.2,0.4,1.8,0.6c0.5,0.2,1.1,0.5,1.5,0.9c0.4,0.4,0.8,0.8,1,1.3 c0.2,0.5,0.4,1.2,0.4,1.9c0,0.3,0,0.5-0.1,0.8c-0.1,0.4-0.2,0.7-0.3,1.1c-0.2,0.4-0.4,0.8-0.7,1.2c-0.3,0.4-0.8,0.8-1.2,1.1 c-0.5,0.3-1.2,0.6-1.9,0.8c-0.8,0.2-1.7,0.3-2.8,0.3c-1,0-2-0.1-3-0.4c-0.9-0.2-1.7-0.6-2.4-1.1c-0.7-0.5-1.2-1.2-1.5-2 c-0.4-0.8-0.5-1.8-0.4-2.9h1.7C332.8,112.6,332.9,113.4,333.2,114.1z"></path> <path class="st2" d="M356.1,104.7c0.8,0.4,1.4,0.9,2,1.5c0.5,0.7,0.9,1.4,1.2,2.2c0.5,1.8,0.5,3.6,0,5.4c-0.3,0.8-0.7,1.6-1.2,2.2 c-0.5,0.6-1.2,1.1-2,1.5c-0.8,0.4-1.7,0.6-2.7,0.6s-1.9-0.2-2.7-0.6c-0.8-0.3-1.4-0.9-2-1.5c-0.5-0.7-0.9-1.4-1.2-2.2 c-0.5-1.8-0.5-3.6,0-5.4c0.3-0.8,0.7-1.6,1.2-2.2c0.5-0.6,1.2-1.2,2-1.5c0.8-0.4,1.7-0.6,2.7-0.6S355.3,104.3,356.1,104.7z M351.4,106c-0.6,0.3-1.1,0.8-1.4,1.3c-0.4,0.5-0.7,1.2-0.9,1.8c-0.4,1.3-0.4,2.8,0,4.1c0.2,0.6,0.5,1.3,0.9,1.8 c0.4,0.5,0.9,1,1.4,1.3c0.6,0.3,1.3,0.5,2,0.5s1.4-0.2,2-0.5c0.6-0.3,1.1-0.8,1.4-1.3c0.4-0.5,0.7-1.2,0.9-1.8 c0.4-1.3,0.4-2.8,0-4.1c-0.2-0.6-0.5-1.3-0.9-1.8c-0.4-0.5-0.9-1-1.4-1.3c-0.6-0.3-1.3-0.5-2-0.5 C352.6,105.5,351.9,105.6,351.4,106L351.4,106z"></path> <path class="st2" d="M363.6,114.1c0.3,0.6,0.7,1.1,1.3,1.5c0.6,0.4,1.2,0.7,1.9,0.8c0.8,0.2,1.6,0.2,2.4,0.2c0.5,0,1.1-0.1,1.6-0.2 c0.6-0.1,1.1-0.4,1.6-0.7c0.5-0.3,0.9-0.7,1.2-1.2c0.3-0.5,0.5-1,0.5-1.7c0-0.5-0.1-0.9-0.3-1.3c-0.2-0.4-0.5-0.7-0.9-0.9 c-0.4-0.3-0.8-0.5-1.2-0.6c-0.4-0.2-0.9-0.3-1.3-0.4l-4.1-1c-0.5-0.1-1-0.3-1.5-0.5c-0.5-0.2-0.9-0.5-1.3-0.8 c-0.4-0.4-0.7-0.8-0.9-1.3c-0.2-0.5-0.3-1.1-0.3-1.8c0-0.4,0.1-1,0.3-1.6c0.2-0.6,0.5-1.2,1-1.7c0.5-0.5,1.1-1,1.9-1.3 c0.8-0.4,1.9-0.6,3.1-0.6c0.9,0,1.7,0.1,2.6,0.4c0.8,0.2,1.5,0.6,2.2,1.1c0.6,0.5,1.1,1.1,1.5,1.8c0.4,0.7,0.5,1.5,0.5,2.5h-1.7 c0-0.7-0.2-1.3-0.5-1.8c-0.3-0.5-0.6-1-1.1-1.3c-0.5-0.4-1-0.6-1.6-0.8c-0.6-0.2-1.2-0.3-1.9-0.3c-0.6,0-1.2,0.1-1.7,0.2 c-0.5,0.1-1,0.3-1.5,0.6c-0.4,0.3-0.8,0.7-1,1.1c-0.3,0.5-0.4,1-0.4,1.7c0,0.4,0.1,0.8,0.2,1.1c0.1,0.3,0.3,0.6,0.6,0.8 c0.3,0.2,0.6,0.4,0.9,0.5c0.3,0.1,0.7,0.3,1.1,0.3l4.5,1.1c0.6,0.2,1.2,0.4,1.8,0.6c0.5,0.2,1.1,0.5,1.5,0.9c0.4,0.4,0.8,0.8,1,1.3 c0.2,0.5,0.4,1.2,0.4,1.9c0,0.3,0,0.5-0.1,0.8c-0.1,0.4-0.2,0.7-0.3,1.1c-0.2,0.4-0.4,0.8-0.7,1.2c-0.3,0.4-0.8,0.8-1.2,1.1 c-0.5,0.3-1.2,0.6-1.9,0.8c-0.8,0.2-1.7,0.3-2.8,0.3c-1,0-2-0.1-3-0.4c-0.9-0.2-1.7-0.6-2.4-1.1c-0.7-0.5-1.2-1.2-1.5-2 c-0.3-0.8-0.5-1.8-0.4-2.9h1.7C363.2,112.6,363.3,113.4,363.6,114.1z"></path> <path class="st2" d="M378.4,104.5l4.4,11.3l4.1-11.3h1.6l-5.7,15.2c-0.2,0.5-0.4,0.9-0.7,1.4c-0.2,0.3-0.4,0.6-0.7,0.9 c-0.3,0.2-0.5,0.4-0.9,0.5c-0.4,0.1-0.8,0.2-1.3,0.1c-0.3,0-0.6,0-0.8,0c-0.2,0-0.3,0-0.5-0.1v-1.4c0.2,0,0.4,0.1,0.5,0.1 c0.2,0,0.4,0,0.6,0c0.3,0,0.6,0,0.9-0.2c0.2-0.1,0.4-0.2,0.6-0.4c0.2-0.2,0.3-0.4,0.4-0.7c0.1-0.3,0.2-0.5,0.4-0.8l0.6-1.5 l-5.3-13.2H378.4z"></path> <path class="st2" d="M397.6,107.1c-0.2-0.4-0.4-0.7-0.8-0.9c-0.3-0.2-0.7-0.4-1.1-0.5c-0.4-0.1-0.9-0.2-1.3-0.2 c-0.4,0-0.7,0-1.1,0.1c-0.4,0.1-0.7,0.2-1,0.4c-0.3,0.2-0.6,0.4-0.7,0.7c-0.2,0.3-0.3,0.6-0.3,1.1c0,0.3,0.1,0.6,0.3,0.9 c0.2,0.3,0.4,0.5,0.7,0.6c0.3,0.2,0.6,0.3,0.9,0.4c0.3,0.1,0.6,0.2,0.9,0.3l2.2,0.5c0.5,0.1,0.9,0.2,1.4,0.4 c0.4,0.2,0.8,0.4,1.2,0.7c0.4,0.3,0.6,0.7,0.9,1.1c0.2,0.4,0.3,0.9,0.3,1.5c0,0.7-0.2,1.3-0.5,1.8c-0.3,0.5-0.7,0.9-1.2,1.2 c-0.5,0.3-1.1,0.6-1.7,0.7c-0.6,0.1-1.2,0.2-1.9,0.2c-1.6,0-2.8-0.4-3.8-1.1c-1-0.7-1.5-1.9-1.7-3.5h1.6c0.1,1.1,0.5,1.9,1.2,2.5 c0.7,0.6,1.6,0.8,2.7,0.8c0.4,0,0.8,0,1.2-0.1c0.4-0.1,0.8-0.2,1.2-0.4c0.3-0.2,0.6-0.5,0.9-0.8c0.2-0.3,0.3-0.7,0.3-1.2 c0-0.4-0.1-0.7-0.2-1c-0.2-0.3-0.4-0.5-0.7-0.7c-0.3-0.2-0.6-0.3-0.9-0.4c-0.4-0.1-0.7-0.2-1.1-0.3l-2.1-0.5 c-0.5-0.1-1-0.3-1.5-0.5c-0.4-0.2-0.8-0.4-1.2-0.7c-0.3-0.3-0.6-0.6-0.8-1c-0.2-0.4-0.3-0.9-0.3-1.4c0-0.7,0.1-1.2,0.4-1.7 c0.3-0.5,0.7-0.9,1.2-1.2c0.5-0.3,1-0.5,1.6-0.6c0.6-0.1,1.2-0.2,1.8-0.2c0.6,0,1.3,0.1,1.9,0.3c0.6,0.2,1.1,0.4,1.5,0.8 c0.4,0.4,0.8,0.8,1,1.3c0.3,0.5,0.4,1.2,0.4,1.9h-1.6C397.9,107.9,397.8,107.5,397.6,107.1z"></path> </g> </svg> 