<svg id="Layer_1" data-name="Layer 1" xmlns="http://www.w3.org/2000/svg" viewBox="0 0 483.96 101"><defs><style>.cls-1{fill:#173b66;}.cls-2{fill:#1385bf;}</style></defs><polygon class="cls-1" points="56.63 39.38 57.94 35.45 55.31 35.45 56.63 39.38"/><polygon class="cls-1" points="46.82 39.38 48.13 35.45 45.51 35.45 46.82 39.38"/><polygon class="cls-1" points="32.98 39.38 37.7 39.38 35.34 32.6 32.98 39.38"/><polygon class="cls-1" points="65.09 39.38 69.81 39.38 67.45 32.6 65.09 39.38"/><polygon class="cls-1" points="45.41 31.25 57.71 31.25 51.56 12.8 45.41 31.25"/><path class="cls-2" d="M51.5,3.48A46.87,46.87,0,1,0,98.36,50.35,46.91,46.91,0,0,0,51.5,3.48ZM18.8,76.58A33.37,33.37,0,0,0,38.42,66.8a53.41,53.41,0,0,0,3.24,6,39.94,39.94,0,0,1-17.39,9.4A41.59,41.59,0,0,1,18.8,76.58Zm8.87,8.27a43.76,43.76,0,0,0,16.09-9.13,56.41,56.41,0,0,0,4.62,5.61A50.6,50.6,0,0,1,36.23,89.4,41.52,41.52,0,0,1,27.67,84.85ZM56.34,72.51a52,52,0,0,1-4.78,5.88,52,52,0,0,1-4.78-5.88,43.6,43.6,0,0,0,4.78-6.35A43.6,43.6,0,0,0,56.34,72.51Zm-2.86-9.83a42.7,42.7,0,0,0,3.26-9.06,33.42,33.42,0,0,0,4.72,9.3,51.14,51.14,0,0,1-3.29,6.53A41.24,41.24,0,0,1,53.48,62.68ZM45,69.45a49.87,49.87,0,0,1-3.29-6.53,33.66,33.66,0,0,0,4.71-9.3,42.68,42.68,0,0,0,3.25,9.06A40.12,40.12,0,0,1,45,69.45ZM51.5,92.32a41.68,41.68,0,0,1-9.27-1.07,55.48,55.48,0,0,0,9.33-6.66,55.62,55.62,0,0,0,9.29,6.64A41.75,41.75,0,0,1,51.5,92.32Zm15.34-2.95a50.43,50.43,0,0,1-12.1-8.05,54.31,54.31,0,0,0,4.63-5.63,43.49,43.49,0,0,0,16,9.15A41.81,41.81,0,0,1,66.84,89.37ZM78.75,82.2a40,40,0,0,1-17.3-9.38,56.23,56.23,0,0,0,3.25-6,33.32,33.32,0,0,0,19.51,9.77A42.72,42.72,0,0,1,78.75,82.2ZM65.84,64A54.94,54.94,0,0,0,69.9,43.46H65.47a50.55,50.55,0,0,1-2.79,16.43,30.39,30.39,0,0,1-4.71-15c0-.48.12-.92.12-1.4H54.61a39.68,39.68,0,0,1-3,15.08,39.68,39.68,0,0,1-3.05-15.08H45c0,.48.11.93.12,1.4a30.53,30.53,0,0,1-4.71,15,50.67,50.67,0,0,1-2.79-16.45H33.21A54.75,54.75,0,0,0,37.28,64,30.51,30.51,0,0,1,16.85,74a42,42,0,1,1,69.31,0A30.48,30.48,0,0,1,65.84,64Z"/><path class="cls-1" d="M163.39,75.77h3.27V77.7a4.68,4.68,0,0,1-2.88.87c-3.18,0-4.4-1.85-4.4-3.64,0-2.24,1.66-4,4.4-4A5.36,5.36,0,0,1,167,72l1.5-1.31A7.4,7.4,0,0,0,163.78,69c-4.51,0-6.76,2.83-6.76,5.9,0,2.86,1.95,5.56,6.76,5.56a6.87,6.87,0,0,0,5.09-2v-4.6h-5.48Z"/><polygon class="cls-1" points="144.7 76.1 138.44 69.34 136.49 69.34 136.49 80.24 138.9 80.24 138.9 72.89 145.61 80.25 145.61 80.24 147.11 80.24 147.11 69.33 144.7 69.33 144.7 76.1"/><polygon class="cls-1" points="200.34 76.1 194.08 69.34 192.12 69.34 192.12 80.24 194.53 80.24 194.53 72.89 201.25 80.25 201.25 80.24 202.75 80.24 202.75 69.33 200.34 69.33 200.34 76.1"/><rect class="cls-1" x="179.07" y="69.34" width="2.39" height="10.9"/><path class="cls-1" d="M116.66,80.24h9.57v-2h-7.18V75.76H126V73.84h-6.92V71.33h7.18v-2h-9.57Z"/><polygon class="cls-1" points="473.63 69.36 469.63 74.04 465.63 69.36 462.86 69.36 462.86 80.25 465.27 80.25 465.27 72.33 469.34 77.08 469.81 77.08 473.97 72.34 473.97 80.25 476.38 80.25 476.38 69.36 473.63 69.36"/><path class="cls-1" d="M446.3,69.12c-4.41,0-6.57,2.88-6.57,5.75s2.08,5.62,6.57,5.62,6.52-2.82,6.56-5.64S450.7,69.12,446.3,69.12Zm0,9.48c-3,0-4.14-1.91-4.2-3.7S443.29,71,446.3,71s4.22,2.06,4.18,3.89S449.31,78.6,446.3,78.6Z"/><polygon class="cls-1" points="340.45 80.24 342.86 80.24 342.86 76.21 349.27 76.21 349.27 74.31 342.86 74.31 342.86 71.33 349.63 71.33 349.63 69.36 340.45 69.36 340.45 80.24"/><path class="cls-1" d="M370.2,73c0-1.88-1.58-3.59-4.6-3.61l-6.07,0V80.24h2.41V76.6h2.31L368,80.24h2.86V80.1L367,76.38C369.4,76,370.2,74.45,370.2,73Zm-8.26,1.79V71.25h3.66c1.52,0,2.19.88,2.19,1.75s-.65,1.74-2.19,1.74Z"/><path class="cls-1" d="M312.89,75.77h3.26V77.7a4.66,4.66,0,0,1-2.88.87c-3.17,0-4.4-1.85-4.4-3.64,0-2.24,1.66-4,4.4-4A5.41,5.41,0,0,1,316.52,72l1.5-1.31A7.43,7.43,0,0,0,313.27,69c-4.51,0-6.75,2.83-6.75,5.9,0,2.86,2,5.56,6.75,5.56a6.85,6.85,0,0,0,5.09-2v-4.6h-5.47Z"/><path class="cls-1" d="M399.61,80.24h9.57v-2H402V75.76h6.92V73.84H402V71.33h7.18v-2h-9.57Z"/><path class="cls-1" d="M380,80.24h9.56v-2H382.4V75.76h6.92V73.84H382.4V71.33h7.17v-2H380Z"/><path class="cls-1" d="M213.13,80.24h9.57v-2h-7.18V75.76h6.92V73.84h-6.92V71.33h7.18v-2h-9.57Z"/><path class="cls-1" d="M232.74,80.24h9.56v-2h-7.17V75.76h6.92V73.84h-6.92V71.33h7.17v-2h-9.56Z"/><path class="cls-1" d="M424.11,69.34h-5v10.9h5c4.47,0,6.44-2.79,6.39-5.54S428.49,69.34,424.11,69.34Zm0,8.92h-2.63v-7h2.63c2.77,0,3.94,1.69,4,3.39S427,78.26,424.11,78.26Z"/><rect class="cls-1" x="272.93" y="69.34" width="2.39" height="10.9"/><path class="cls-1" d="M263.07,73c0-1.88-1.58-3.59-4.6-3.61l-6.07,0V80.24h2.41V76.6h2.31l3.73,3.64h2.86V80.1l-3.87-3.72C262.27,76,263.07,74.45,263.07,73Zm-8.26,1.79V71.25h3.66c1.52,0,2.19.88,2.19,1.75s-.65,1.74-2.19,1.74Z"/><polygon class="cls-1" points="294.2 76.1 287.94 69.34 285.98 69.34 285.98 80.24 288.39 80.24 288.39 72.89 295.11 80.25 295.11 80.24 296.61 80.24 296.61 69.33 294.2 69.33 294.2 76.1"/><path class="cls-1" d="M158.51,34.74c-3.89-.46-7.22-1.25-7.22-4.08,0-2.4,2.18-4.3,6.71-4.3,3.52,0,6.58,1.76,7.69,3.61l4.87-2.5c-2.46-5-7.69-6.44-12.74-6.44-6,0-12.55,2.78-12.55,9.45,0,7.27,6.11,9,12.73,9.82,4.31.46,7.51,1.71,7.51,4.77,0,3.52-3.61,4.87-7.46,4.87s-7.69-1.58-9.12-5.15l-5.1,2.65c2.41,5.92,7.51,8,14.13,8,7.22,0,13.61-3.1,13.61-10.33C171.57,37.34,165.28,35.58,158.51,34.74Z"/><path class="cls-1" d="M200.93,48.55h-18.2V41.23h17.56v-5.7H182.73V28.07h18.2V22.14H176.67V54.57h24.26Z"/><path class="cls-1" d="M139.06,46.28a11.93,11.93,0,0,1-8.15,3.29c-8,0-11.11-5.61-11.16-11s3.34-11.26,11.16-11.26a11.11,11.11,0,0,1,7.83,3.06l4.08-3.94a16.75,16.75,0,0,0-11.91-5c-11.71,0-17.22,8.62-17.18,17.1s5.14,16.72,17.18,16.72a17.07,17.07,0,0,0,12.32-4.82Z"/><path class="cls-2" d="M400.34,32.24c0-5.05-3.61-10.1-10.65-10.1H375.43V54.57h2.5V42.29h8.85L398,54.57h3.29L389.83,42.15C396.92,42.15,400.39,37.52,400.34,32.24Zm-22.41,7.69V24.46h11.76a7.47,7.47,0,0,1,7.92,7.73c0,4.54-2.55,7.74-8.2,7.74Z"/><rect class="cls-2" x="405.95" y="22.14" width="2.45" height="32.43"/><rect class="cls-2" x="274.47" y="22.14" width="2.46" height="32.43"/><path class="cls-2" d="M462.72,37.61v2.18H474v9.08a14.6,14.6,0,0,1-9.86,3.75c-9.45,0-14.31-6.57-14.31-14.22S454.66,24,464.16,24a15.07,15.07,0,0,1,10.42,4.17L476,26.54a16.85,16.85,0,0,0-11.85-4.86c-9.87,0-16.77,6.62-16.72,16.77,0,8.85,5.7,16.54,16.72,16.54a16.74,16.74,0,0,0,12.22-5.24V37.61Z"/><polygon class="cls-2" points="438.92 48.96 417.11 22.14 416.04 22.14 416.04 54.57 418.54 54.57 418.54 27.79 440.4 54.57 441.37 54.57 441.37 22.14 438.92 22.14 438.92 48.96"/><polygon class="cls-2" points="348.94 39.38 367.93 39.38 367.93 37.1 348.94 37.1 348.94 24.5 368.85 24.5 368.85 22.14 346.49 22.14 346.49 54.57 369.41 54.57 369.41 52.16 348.94 52.16 348.94 39.38"/><path class="cls-2" d="M253.54,39.79h11.3v9.08A14.6,14.6,0,0,1,255,52.62c-9.45,0-14.31-6.57-14.31-14.22S245.48,24,255,24a15.07,15.07,0,0,1,10.42,4.17l1.43-1.58A16.87,16.87,0,0,0,255,21.68c-9.87,0-16.77,6.62-16.72,16.77C238.26,47.3,244,55,255,55a16.74,16.74,0,0,0,12.22-5.24V37.61H253.54Z"/><polygon class="cls-2" points="229.74 48.96 207.93 22.14 206.86 22.14 206.86 54.57 209.36 54.57 209.36 27.79 231.22 54.57 232.19 54.57 232.19 22.14 229.74 22.14 229.74 48.96"/><polygon class="cls-2" points="320.04 39.38 339.03 39.38 339.03 37.1 320.04 37.1 320.04 24.5 339.96 24.5 339.96 22.14 317.59 22.14 317.59 54.57 340.51 54.57 340.51 52.16 320.04 52.16 320.04 39.38"/><polygon class="cls-2" points="307.45 48.96 285.63 22.14 284.57 22.14 284.57 54.57 287.07 54.57 287.07 27.79 308.93 54.57 309.9 54.57 309.9 22.14 307.45 22.14 307.45 48.96"/></svg>