<svg xmlns="http://www.w3.org/2000/svg" role="img" viewBox="-8.55 -8.55 444.86 150.61"><defs><style>.cls-1{fill:#002e6d}</style></defs><path d="M206.28 98.64a21.59 21.59 0 0 1-13.18 4.32 24.15 24.15 0 0 1-15.05-5.54c-5.57-5.08-10-13.26-10-29.11a58.92 58.92 0 0 1 3.18-19.07 24.69 24.69 0 0 1 15.11-15 20.88 20.88 0 0 1 7.3-1.24c9.29 0 15 4.65 16.72 7.87a24.52 24.52 0 0 1 2.48 6.32h12.21c-1-5.82-1.61-7.93-3.22-10.65-7.68-13.5-25.51-13.75-28.73-13.75a36.65 36.65 0 0 0-20.05 5.52c-8 5.2-17.34 16.6-17.34 39.51 0 18.58 5.82 29.73 11.27 35.3 8.8 9.29 21.31 10 25.64 10 4.58 0 21.43-.86 29.36-15.35a40.48 40.48 0 0 0 3.59-10.66h-12.84c-.92 3.82-2.94 8.7-6.45 11.5m75.24-32.13a42.06 42.06 0 0 0-10.07-3.8c-3.67-1-8.44-2.16-11.55-3.38a24.44 24.44 0 0 1-7.85-4.76 9.63 9.63 0 0 1-3.31-7.79 13.37 13.37 0 0 1 .79-4.25 11.68 11.68 0 0 1 2.73-4.3 14.41 14.41 0 0 1 5.15-3.28 22.25 22.25 0 0 1 8.07-1.27 19.63 19.63 0 0 1 9.09 2.06 15.81 15.81 0 0 1 6.19 5.46l9.45-8.61a23.09 23.09 0 0 0-11.27-7.88 46.46 46.46 0 0 0-13.46-1.94 33.73 33.73 0 0 0-13.28 2.36 28.48 28.48 0 0 0-9 5.88 22.8 22.8 0 0 0-6.79 15.77 21.46 21.46 0 0 0 3.47 12.46 24.94 24.94 0 0 0 7.82 7.82 41.82 41.82 0 0 0 10.18 4.55c3.68 1.09 8.16 2.3 11.27 3.48 10.34 3.91 11.1 8.13 11.1 12.4a14.21 14.21 0 0 1-1.67 6.73c-3.4 5.83-7.82 7.85-16.95 7.85a24.23 24.23 0 0 1-10.13-2.24 19.13 19.13 0 0 1-8.06-7l-9.58 8.25a25.73 25.73 0 0 0 11.76 9 45 45 0 0 0 16.14 2.91c13 0 22.72-3.55 28.4-15.12a27.47 27.47 0 0 0 2.45-11.7c0-5.18-.9-9.29-3.27-12.65a23.49 23.49 0 0 0-7.82-7" class="cls-1"/><path d="M428 35.83V24.92h-52.98v36.5h-5.36l-6.22 10.91h11.58v38.44H428V99.86h-41.34V72.33h33.51V61.42h-33.51V35.83H428zM298.21 24.92v10.91H326v74.94h11.65V35.83h21.72l6.23-10.91h-67.39z" class="cls-1"/><path fill="#7badd3" d="M12.72 61.39H.05A66.81 66.81 0 0 1 91.56 4.82v56.57H81.05V18.92H65.89l-13.76 10v32.47H41.68V36.48h-15.2l-13.76 10zM120.49 27.3v34.09h12.72a66.53 66.53 0 0 0-12.72-34.09"/><path d="M.05 72.3h12.67v34.09A66.5 66.5 0 0 1 .05 72.3m120.44 14.92l-13.76 10h-15.2v-25H81.05v32.43l-13.76 10H52.13V72.3H41.68v56.57A66.82 66.82 0 0 0 133.2 72.3h-12.71z" class="cls-1"/></svg>