<?xml version="1.0" encoding="UTF-8" standalone="no"?>
<svg
   xmlns:dc="http://purl.org/dc/elements/1.1/"
   xmlns:cc="http://creativecommons.org/ns#"
   xmlns:rdf="http://www.w3.org/1999/02/22-rdf-syntax-ns#"
   xmlns:svg="http://www.w3.org/2000/svg"
   xmlns="http://www.w3.org/2000/svg"
   viewBox="0 0 4513.2666 1933.6"
   height="1933.6"
   width="4513.2666"
   xml:space="preserve"
   id="svg2"
   version="1.1"><metadata
     id="metadata8"><rdf:RDF><cc:Work
         rdf:about=""><dc:format>image/svg+xml</dc:format><dc:type
           rdf:resource="http://purl.org/dc/dcmitype/StillImage" /></cc:Work></rdf:RDF></metadata><defs
     id="defs6"><clipPath
       id="clipPath18"
       clipPathUnits="userSpaceOnUse"><path
         id="path16"
         d="M 0,1450.2 H 3384.945 V 0 H 0 Z" /></clipPath><clipPath
       id="clipPath54"
       clipPathUnits="userSpaceOnUse"><path
         id="path52"
         d="m 491.552,502.322 h 543.289 V 959 H 491.552 Z" /></clipPath><clipPath
       id="clipPath66"
       clipPathUnits="userSpaceOnUse"><path
         id="path64"
         d="M 0,1450.2 H 3384.945 V 0 H 0 Z" /></clipPath></defs><g
     transform="matrix(1.3333333,0,0,-1.3333333,0,1933.6)"
     id="g10"><g
       id="g12"><g
         clip-path="url(#clipPath18)"
         id="g14"><g
           transform="translate(1627.6724,527.6459)"
           id="g20"><path
             id="path22"
             style="fill:#2b353c;fill-opacity:1;fill-rule:nonzero;stroke:none"
             d="m 0,0 c 0,-39.044 -30.908,-70.768 -69.953,-72.395 h -35.792 c -40.671,0 -73.207,32.54 -73.207,72.395 v 435.996 c 0,39.858 32.536,72.394 73.207,72.394 h 35.792 C -30.908,507.577 0,475.04 0,435.996 V 348.96 c 0,-18.709 -8.134,-27.655 -15.454,-30.911 l -42.297,-19.522 v 127.709 c 0,17.08 -13.828,30.908 -31.724,30.908 -17.083,0 -30.911,-13.828 -30.911,-30.908 V 10.573 c 0,-17.893 13.828,-31.724 30.911,-31.724 17.896,0 31.724,13.831 31.724,31.724 v 76.463 c 0,18.709 8.133,27.655 15.454,31.723 4.881,2.442 27.656,12.205 42.297,18.71 z" /></g><g
           transform="translate(1844.832,697.6542)"
           id="g24"><path
             id="path26"
             style="fill:#2b353c;fill-opacity:1;fill-rule:nonzero;stroke:none"
             d="m 0,0 v -236.708 h -41.486 c -8.947,0 -16.267,7.32 -17.08,17.083 V 0 l -69.955,332.69 h 43.112 c 1.626,0 16.267,-0.815 18.709,-19.524 L -29.285,97.608 8.134,313.166 c 2.439,18.709 17.083,19.524 18.709,19.524 h 43.112 z" /></g><g
           transform="translate(2110.6782,686.2655)"
           id="g28"><path
             id="path30"
             style="fill:#2b353c;fill-opacity:1;fill-rule:nonzero;stroke:none"
             d="m 0,0 c 0,25.214 -14.646,32.534 -30.098,32.534 h -31.723 v -200.1 h 31.723 c 15.452,0 30.098,8.136 30.098,30.097 z m 0,256.228 c 0,21.148 -14.646,29.282 -30.098,29.282 H -61.821 V 86.222 h 31.723 C -14.646,86.222 0,93.543 0,119.572 Z M 58.564,13.015 V -153.741 C 57.749,-193.596 26.03,-225.32 -13.831,-225.32 h -105.744 v 569.399 h 105.744 c 39.861,0 71.58,-31.724 72.395,-71.584 v -166.75 c 0,0 0.816,-35.792 -33.35,-46.365 34.166,-10.573 33.35,-46.365 33.35,-46.365" /></g><g
           transform="translate(2428.4058,518.6991)"
           id="g32"><path
             id="path34"
             style="fill:#2b353c;fill-opacity:1;fill-rule:nonzero;stroke:none"
             d="m 0,0 c -6.504,-14.641 -16.267,-37.418 -18.709,-42.296 -4.068,-7.321 -13.015,-15.457 -31.724,-15.457 h -130.148 v 553.128 c 0.816,8.947 8.136,16.271 17.899,16.271 h 152.109 l -19.525,-42.3 c -3.252,-7.321 -12.199,-16.27 -30.908,-16.27 h -47.181 c -8.13,0 -13.825,-5.691 -13.825,-13.827 V 270.056 h 87.846 c -6.504,-14.641 -16.267,-38.231 -18.704,-43.11 -4.068,-7.321 -12.204,-15.457 -30.913,-15.457 h -24.404 c -7.32,0 -13.825,-6.505 -13.825,-13.825 l 0,-197.664 z" /></g><g
           transform="translate(2712.6279,460.9457)"
           id="g36"><path
             id="path38"
             style="fill:#2b353c;fill-opacity:1;fill-rule:nonzero;stroke:none"
             d="M 0,0 H -64.259 L -115.502,392.07 -166.751,0 h -64.258 l 86.22,569.399 h 31.724 c 24.403,0 28.471,-15.457 30.914,-30.911 z" /></g><g
           transform="translate(2943.6416,988.0453)"
           id="g40"><path
             id="path42"
             style="fill:#2b353c;fill-opacity:1;fill-rule:nonzero;stroke:none"
             d="m 0,0 c -3.258,-7.321 -12.204,-15.454 -30.913,-15.454 h -45.55 c -8.136,0 -13.83,-6.507 -14.641,-13.831 V -527.1 h -41.486 c -13.83,0 -16.266,8.137 -16.266,12.2 v 499.446 h -82.158 v 39.857 c 0,9.76 8.131,17.896 17.894,17.896 H 19.52 Z" /></g><g
           transform="translate(3124.8789,887.1815)"
           id="g44"><path
             id="path46"
             style="fill:#2b353c;fill-opacity:1;fill-rule:nonzero;stroke:none"
             d="m 0,0 v 65.887 c 0,17.894 -13.825,31.721 -30.908,31.721 -17.083,0 -30.913,-13.827 -30.913,-31.721 V 11.386 c 0,-33.35 25.218,-76.46 25.218,-76.46 l 69.954,-131.774 c 28.471,-52.059 26.029,-90.293 26.029,-90.293 v -72.395 c 0,-39.855 -32.534,-72.394 -73.205,-72.394 h -36.608 c -39.045,1.626 -69.953,33.35 -70.768,72.394 v 58.57 c 0,18.709 8.952,27.655 16.272,31.724 4.879,1.626 28.467,12.199 43.108,18.703 v -99.234 c 0,-17.083 13.83,-30.914 30.913,-30.914 17.083,0 30.908,13.831 30.908,31.724 v 65.074 c 0,33.35 -25.214,77.279 -25.214,77.279 l -69.958,130.961 c -28.466,52.059 -26.029,90.29 -26.029,90.29 v 58.567 c 0,39.857 32.54,75.646 73.21,75.646 h 36.602 C 27.656,148.042 59.38,112.252 59.38,73.208 V 51.244 C 59.38,32.535 50.434,23.588 43.112,19.52 38.234,17.081 15.457,6.505 0,0" /></g></g></g><g
       id="g48"><g
         clip-path="url(#clipPath54)"
         id="g50"><g
           transform="translate(787.4375,544.3153)"
           id="g56"><path
             id="path58"
             style="fill:#ee9f00;fill-opacity:1;fill-rule:nonzero;stroke:none"
             d="m 0,0 c -12.275,0 -16.752,15.492 -18.222,20.582 -2.651,9.187 -4.812,22.205 -6.607,39.807 -3.271,32.09 -4.83,74.051 -6.48,118.479 -1.607,43.332 -3.271,88.143 -6.662,122.911 -1.802,18.479 -3.911,32.501 -6.453,42.859 -2.829,11.54 -4.614,16.4 -7.35,16.4 -2.919,0 -6.375,-6.566 -10.837,-36.854 -3.823,-25.936 -5.457,-60.469 -7.036,-93.863 -1.421,-30.097 -2.768,-58.523 -5.611,-80.129 -1.585,-12.052 -3.524,-21.019 -5.932,-27.414 -3.768,-10.015 -9.378,-15.091 -16.68,-15.091 -6.899,0 -16.187,3.387 -21.239,19.537 -2.792,8.919 -4.008,20.229 -5.183,31.169 -0.928,8.662 -1.808,16.845 -3.356,23.305 -1.774,7.391 -3.042,8.617 -4.85,8.617 -4.405,0 -5.689,-5.847 -8.645,-19.736 -1.353,-6.364 -2.754,-12.943 -5.323,-18.269 -4.823,-9.998 -12.18,-12.098 -17.502,-12.098 h -403.801 v 16.971 h 403.801 c 2.627,0 4.969,11.012 6.227,16.927 1.503,7.063 3.058,14.366 6.178,20.435 5.56,10.82 13.958,13.091 20.027,13.091 6.354,0 14.883,-3.196 19.434,-18.414 2.446,-8.186 3.583,-18.777 4.683,-29.017 1.089,-10.122 2.212,-20.589 4.504,-27.915 0.764,-2.436 2.87,-7.351 4.805,-7.351 3.01,0 4.089,9.553 6.792,33.762 2.251,20.15 3.449,45.54 4.72,72.422 1.6,33.809 3.254,68.766 7.196,95.533 3.538,24.004 10.026,51.555 28.95,51.555 13.577,0 18.862,-17.005 20.598,-22.592 3.254,-10.467 5.885,-25.246 8.053,-45.188 3.935,-36.252 5.723,-84.385 7.45,-130.932 1.51,-40.678 2.938,-79.098 5.668,-109.691 3.326,-37.242 5.426,-52.127 9.649,-52.127 4.168,0 6.114,8.35 9.744,30.391 3.398,20.619 5.104,47.178 6.758,72.863 1.435,22.312 2.791,43.39 5.169,59.286 1.342,8.981 2.932,15.691 4.857,20.513 4.058,10.173 10.104,12.307 14.461,12.307 7.001,0 16.095,-3.49 19.657,-20.123 1.88,-8.772 2.02,-19.55 2.158,-29.974 0.047,-3.671 0.109,-8.456 0.338,-12.868 2.559,3.85 6.429,7.107 12.612,7.107 H 484.435 V 140.212 H 77.915 c -0.64,-1.155 -1.391,-3.289 -1.877,-4.672 -1.692,-4.809 -4.524,-12.854 -12.974,-12.854 -4.515,0 -12.458,2.168 -14.934,16.693 -1.109,6.501 -1.216,14.681 -1.329,23.343 -0.11,8.409 -0.226,17.108 -1.291,23.959 -0.668,4.288 -1.373,7.953 -2.497,7.953 -1.792,0 -2.713,-9.306 -4.391,-22.784 -1.805,-14.492 -2.976,-32.713 -4.22,-52.004 C 32.662,92.794 30.864,64.821 27.068,43.041 24.925,30.717 22.325,21.482 19.126,14.817 13.245,2.569 5.48,0 0,0" /></g></g></g><g
       id="g60"><g
         clip-path="url(#clipPath66)"
         id="g62"><g
           transform="translate(756.8369,726.8539)"
           id="g68"><path
             id="path70"
             style="fill:#35a8e0;fill-opacity:1;fill-rule:nonzero;stroke:none"
             d="M 0,0 V 0.209 L -0.183,0.107 Z" /></g><g
           transform="translate(1053.8882,547.9906)"
           id="g72"><path
             id="path74"
             style="fill:#1d70b7;fill-opacity:1;fill-rule:nonzero;stroke:none"
             d="m 0,0 c -4.783,-6.818 -12.699,-11.28 -21.661,-11.28 -14.606,0 -26.441,11.839 -26.441,26.444 0,4.026 0.903,7.839 2.512,11.255 L -75.144,43.545 -251.958,-58.536 v -121.561 l 281.893,162.75 z" /></g><g
           transform="translate(538.291,589.6)"
           id="g76"><path
             id="path78"
             style="fill:#11b8ec;fill-opacity:1;fill-rule:nonzero;stroke:none"
             d="m 0,0 -36.43,-21.117 c 0.352,-1.721 0.537,-3.503 0.537,-5.328 0,-14.606 -11.841,-26.444 -26.448,-26.444 -6.706,0 -12.826,2.501 -17.488,6.615 l -25.234,-14.627 278.469,-160.774 v 121.562 z" /></g><g
           transform="translate(231.4946,1041.9261)"
           id="g80"><path
             id="path82"
             style="fill:#009edc;fill-opacity:1;fill-rule:nonzero;stroke:none"
             d="m 0,0 33.143,-19.206 c 6.522,6.998 15.815,11.379 26.134,11.379 19.731,0 35.727,-15.998 35.727,-35.731 0,-3.681 -0.558,-7.232 -1.591,-10.573 l 17.647,-10.226 369.142,213.126 v 128.479 z" /></g><g
           transform="translate(1199.895,998.3685)"
           id="g84"><path
             id="path86"
             style="fill:#009edc;fill-opacity:1;fill-rule:nonzero;stroke:none"
             d="m 0,0 c 0,19.732 15.997,35.73 35.729,35.73 9.153,0 17.498,-3.446 23.82,-9.107 l 25.986,15.062 -483.5,279.149 V 192.36 L -25.508,-22.679 0.781,-7.44 C 0.273,-5.04 0,-2.552 0,0" /></g><g
           transform="translate(1135.9399,456.0946)"
           id="g88"><path
             id="path90"
             style="fill:#1d70b7;fill-opacity:1;fill-rule:nonzero;stroke:none"
             d="m 0,0 -371.581,-214.528 v -26.708 c 17.315,-2.475 30.629,-17.361 30.629,-35.362 0,-18.001 -13.314,-32.885 -30.629,-35.36 v -31.057 L 111.267,-64.24 Z" /></g><g
           transform="translate(317.519,974.6937)"
           id="g92"><path
             id="path94"
             style="fill:#11b8ec;fill-opacity:1;fill-rule:nonzero;stroke:none"
             d="m 0,0 c -6.545,-7.39 -16.1,-12.054 -26.747,-12.054 -19.732,0 -35.729,15.996 -35.729,35.729 0,4.002 0.668,7.846 1.882,11.438 L -96.086,55.681 -96.09,-504.688 15.173,-440.45 V -8.792 Z" /></g><g
           transform="translate(1268.3257,1012.7567)"
           id="g96"><path
             id="path98"
             style="fill:#1d70b7;fill-opacity:1;fill-rule:nonzero;stroke:none"
             d="m 0,0 c 1.94,-4.403 3.025,-9.268 3.025,-14.388 0,-19.733 -15.996,-35.729 -35.727,-35.729 -11.783,0 -22.231,5.706 -28.739,14.504 L -87.333,-50.621 V -478.48 l 111.266,-64.238 0.002,556.591 z" /></g><g
           transform="translate(723.5322,179.4969)"
           id="g100"><path
             id="path102"
             style="fill:#11b8ec;fill-opacity:1;fill-rule:nonzero;stroke:none"
             d="m 0,0 c 0,16.281 10.895,30.011 25.789,34.318 v 27.757 l -371.55,214.506 -111.265,-64.238 482.815,-278.75 v 32.09 C 10.895,-30.01 0,-16.282 0,0" /></g><g
           transform="translate(495.8164,871.3754)"
           id="g104"><path
             id="path106"
             style="fill:#11b8ec;fill-opacity:1;fill-rule:nonzero;stroke:none"
             d="m 0,0 c -4.847,-5.513 -11.947,-8.997 -19.866,-8.997 -14.605,0 -26.447,11.837 -26.447,26.445 0,2.998 0.506,5.876 1.426,8.563 l -27.615,16.003 v -373.05 l 27.154,15.74 c -0.624,2.253 -0.965,4.624 -0.965,7.075 0,14.605 11.842,26.45 26.447,26.45 7.357,0 14.011,-3.007 18.804,-7.856 l 33.833,19.61 V -18.99 Z" /></g><g
           transform="translate(730.3906,1046.9369)"
           id="g108"><path
             id="path110"
             style="fill:#009edc;fill-opacity:1;fill-rule:nonzero;stroke:none"
             d="m 0,0 c 0,11.994 7.987,22.118 18.931,25.357 v 35.019 l -316.299,-182.165 26.682,-15.462 c 4.484,3.498 10.119,5.587 16.246,5.587 14.607,0 26.447,-11.845 26.447,-26.45 0,-1.264 -0.094,-2.507 -0.266,-3.724 l 35.961,-20.839 211.229,121.942 v 35.379 C 7.987,-22.118 0,-11.994 0,0" /></g><g
           transform="translate(1005.7866,888.8231)"
           id="g112"><path
             id="path114"
             style="fill:#009edc;fill-opacity:1;fill-rule:nonzero;stroke:none"
             d="m 0,0 c 0,14.604 11.835,26.45 26.441,26.45 8.382,0 15.847,-3.905 20.693,-9.99 l 31.024,17.983 -319.585,184.54 v -35.514 c 10.939,-3.241 18.922,-13.364 18.922,-25.355 0,-11.992 -7.983,-22.114 -18.922,-25.355 V 97.786 L -26.898,-26.451 1.872,-9.774 C 0.668,-6.75 0,-3.454 0,0" /></g><g
           transform="translate(1058.5649,891.1708)"
           id="g116"><path
             id="path118"
             style="fill:#1d70b7;fill-opacity:1;fill-rule:nonzero;stroke:none"
             d="m 0,0 c 0.068,-0.774 0.109,-1.556 0.109,-2.348 0,-14.607 -11.84,-26.444 -26.446,-26.444 -5.628,0 -10.84,1.763 -15.127,4.759 l -32.003,-18.55 -0.003,-243.353 33.503,-19.413 c 3.98,2.4 8.643,3.782 13.63,3.782 14.606,0 26.446,-11.844 26.446,-26.449 0,-0.184 -0.01,-0.365 -0.013,-0.548 l 31.709,-18.375 0.003,365.375 z" /></g></g></g></g></svg>