<?xml version="1.0" encoding="UTF-8" standalone="no"?> <svg xmlns:dc="http://purl.org/dc/elements/1.1/" xmlns:cc="http://creativecommons.org/ns#" xmlns:rdf="http://www.w3.org/1999/02/22-rdf-syntax-ns#" xmlns:svg="http://www.w3.org/2000/svg" xmlns="http://www.w3.org/2000/svg" xmlns:sodipodi="http://sodipodi.sourceforge.net/DTD/sodipodi-0.dtd" xmlns:inkscape="http://www.inkscape.org/namespaces/inkscape" version="1.1" id="svg10" xml:space="preserve" width="400" height="245" viewBox="0 0 400 245" sodipodi:docname="CYSEC Logo Colour STACKED.svg" inkscape:version="1.0rc1 (09960d6, 2020-04-09)"><metadata id="metadata16"></metadata><defs id="defs14"></defs><g id="g18" inkscape:groupmode="layer" inkscape:label="ink_ext_XXXXXX" transform="matrix(1.3333333,0,0,-1.3333333,0,230.54667)"><g style="opacity:1" id="g20" transform="matrix(0.1,0,0,0.1,28.110004,-5.4219955)"><path d="m 0,208.09 c 0,117.191 87.1523,208.09 208.711,208.09 73.379,0 138.168,-37.16 172.578,-94.34 l -68.226,-39.442 c -19.504,35.454 -58.493,57.161 -104.352,57.161 -78.551,0 -130.1641,-54.297 -130.1641,-131.469 0,-76.602 51.6131,-130.9181 130.1641,-130.9181 45.859,0 85.43,21.7265 104.352,56.5981 L 381.289,94.3281 C 347.461,37.1602 282.672,0 208.711,0 87.1523,0 0,91.4688 0,208.09" style="fill:#393536;fill-opacity:1;fill-rule:nonzero;stroke:none" id="path22" inkscape:connector-curvature="0"></path><path d="M 773.426,164.07 V 8.01172 H 694.879 V 164.07 L 557.836,408.16 h 89.453 l 87.149,-166.91 87.148,166.91 h 89.453 L 773.426,164.07" style="fill:#393536;fill-opacity:1;fill-rule:nonzero;stroke:none" id="path24" inkscape:connector-curvature="0"></path><path d="m 1077.84,98.8984 67.66,39.4416 c 14.34,-37.149 42.43,-61.1603 92.31,-61.1603 47.59,0 64.22,20.0195 64.22,42.3003 0,29.719 -26.94,41.149 -86.58,58.309 -61.35,17.731 -120.98,43.441 -120.98,119.473 0,75.457 63.07,118.918 131.88,118.918 65.92,0 116.38,-33.739 143.34,-89.758 l -66.53,-38.301 c -14.32,30.309 -36.11,51.438 -76.81,51.438 -33.27,0 -52.75,-17.137 -52.75,-40.02 0,-24.578 15.48,-37.719 76.24,-56.008 63.66,-20.011 131.32,-41.16 131.32,-122.902 C 1381.16,45.7383 1320.96,0 1235.53,0 c -82,0 -135.9,39.4492 -157.69,98.8984" style="fill:#393536;fill-opacity:1;fill-rule:nonzero;stroke:none" id="path26" inkscape:connector-curvature="0"></path><path d="M 1850.14,83.4688 V 8.01172 H 1601.86 V 408.16 h 245.4 V 332.699 H 1680.99 V 247.52 h 151.93 V 173.211 H 1680.99 V 83.4688 h 169.15" style="fill:#393536;fill-opacity:1;fill-rule:nonzero;stroke:none" id="path28" inkscape:connector-curvature="0"></path><path d="m 2056.5,208.09 c 0,117.191 87.16,208.09 208.7,208.09 73.4,0 138.19,-37.16 172.6,-94.34 l -68.23,-39.442 c -19.51,35.454 -58.48,57.161 -104.37,57.161 -78.53,0 -130.14,-54.297 -130.14,-131.469 0,-76.602 51.61,-130.9181 130.14,-130.9181 45.89,0 85.44,21.7265 104.37,56.5981 L 2437.8,94.3281 C 2403.97,37.1602 2339.18,0 2265.2,0 2143.66,0 2056.5,91.4688 2056.5,208.09" style="fill:#393536;fill-opacity:1;fill-rule:nonzero;stroke:none" id="path30" inkscape:connector-curvature="0"></path><path d="m 1449.65,1233.9 v 0 c -31.13,24.88 -70.03,40.38 -112.84,40.38 h -108.07 l -0.03,-0.02 h -129.38 c -17.67,0 -33.23,6.38 -47.21,15.13 -25.85,16.16 -44.03,43.57 -44.03,76.27 0,50.42 40.93,91.43 91.24,91.43 h 148.51 l 90.84,91.02 h -239.35 c -100.416,0 -182.084,-81.86 -182.084,-182.45 0,-57.69 27.379,-108.59 69.227,-142.03 31.117,-24.88 70.027,-40.38 112.857,-40.38 h 177.03 v 0.02 h 60.45 c 17.64,0 33.21,-6.39 47.2,-15.13 25.84,-16.16 44.03,-43.58 44.03,-76.26 0,-50.43 -40.95,-91.45 -91.23,-91.45 h -159.99 l -90.86,-91.008 h 250.85 c 100.41,0 182.07,81.851 182.07,182.458 0,57.68 -27.38,108.57 -69.23,142.02" style="fill:#a79c7b;fill-opacity:1;fill-rule:nonzero;stroke:none" id="path32" inkscape:connector-curvature="0"></path><path d="m 1579.4,1362.93 v 0 c -64.77,58 -149.46,94.34 -243.16,94.34 h -88.9 l -90.84,-90.57 h 179.74 c 68.64,0 130.73,-26.13 178.93,-67.79 58.19,-50.27 95.83,-123.56 95.83,-206.16 0,-151.027 -123.28,-273.953 -274.76,-273.953 H 865.563 l -90.84,-90.559 h 561.517 c 201.6,0 365.59,163.512 365.59,364.512 0,107.58 -47.85,203.4 -122.43,270.18" style="fill:#a79c7b;fill-opacity:1;fill-rule:nonzero;stroke:none" id="path34" inkscape:connector-curvature="0"></path><path d="m 1101.56,1638.57 h 457.27 l 90.85,90.57 h -548.12 c -201.599,0 -365.611,-163.51 -365.611,-364.52 0,-107.57 47.871,-203.39 122.453,-270.18 64.762,-57.99 149.448,-94.33 243.158,-94.33 h 75.25 c 31.41,31.54 63.87,64.04 90.53,90.56 h -165.78 c -68.65,0 -130.724,26.14 -178.951,67.8 -58.175,50.27 -95.816,123.56 -95.816,206.15 0,151.04 123.289,273.95 274.767,273.95" style="fill:#a79c7b;fill-opacity:1;fill-rule:nonzero;stroke:none" id="path36" inkscape:connector-curvature="0"></path></g></g></svg> 