<svg width="4329" height="780" viewBox="0 0 4329 780" fill="none" xmlns="http://www.w3.org/2000/svg">
<path fill-rule="evenodd" clip-rule="evenodd" d="M1466.98 63.2219V207.813H1623.28L1566.5 327.817H1466.98V763.346H1339.95V63.2219H1466.98ZM4172.35 63.2219V207.813H4328.94L4272.16 327.817H4172.65V763.346H4045.62V63.2219H4172.65H4172.35ZM3825.51 763.053V459.822C3825.51 375.526 3765.22 313.183 3686.48 313.183C3607.75 313.183 3547.45 375.526 3547.45 459.822V763.053H3420.42V459.822C3420.42 310.841 3538.67 191.129 3686.19 191.129C3833.71 191.129 3951.96 311.134 3951.96 459.822V763.053H3824.93H3825.51ZM2157.45 207.813H2302.92L2471.51 528.898L2640.1 207.813H2779.13L2468.29 779.737L2157.45 207.813ZM1119.26 485.579C1119.26 386.649 1048.14 313.475 955.061 313.475C861.984 313.475 790.859 386.649 790.859 485.579C790.859 584.51 861.984 657.684 955.061 657.684C1048.14 657.684 1119.26 584.51 1119.26 485.579ZM662.074 485.579C662.074 323.427 794.372 191.129 955.353 191.129C1116.34 191.129 1246.29 319.915 1246.29 483.238V774.176L1125.99 715.344C1077.99 755.443 1016.53 779.737 949.792 779.737C792.323 779.737 662.074 647.439 662.074 485.287V485.579ZM3203.54 485.579C3203.54 386.649 3132.41 313.475 3039.33 313.475C2946.26 313.475 2875.13 386.649 2875.13 485.579C2875.13 584.51 2946.26 657.684 3039.33 657.684C3132.41 657.684 3203.54 584.51 3203.54 485.579ZM2746.35 485.579C2746.35 323.427 2878.65 191.129 3039.63 191.129C3200.61 191.129 3330.57 319.915 3330.57 483.238V774.176L3210.27 715.344C3162.27 755.443 3100.8 779.737 3034.07 779.737C2876.6 779.737 2746.35 647.439 2746.35 485.287V485.579ZM2050.61 485.579C2050.61 386.649 1979.49 313.475 1886.41 313.475C1793.34 313.475 1722.21 386.649 1722.21 485.579C1722.21 584.51 1793.34 657.684 1886.41 657.684C1979.49 657.684 2050.61 584.51 2050.61 485.579ZM1593.43 485.579C1593.43 323.427 1725.72 191.129 1886.71 191.129C2047.69 191.129 2177.64 319.915 2177.64 483.238V774.176L2057.35 715.344C2009.34 755.443 1947.88 779.737 1881.14 779.737C1723.68 779.737 1593.43 647.439 1593.43 485.287V485.579ZM457.774 485.579C457.774 386.649 386.649 313.475 293.572 313.475C200.495 313.475 129.371 386.649 129.371 485.579C129.371 584.51 200.495 657.684 293.572 657.684C386.649 657.684 457.774 584.51 457.774 485.579ZM0.585388 485.579C0 323.134 127.907 191.129 283.328 191.129C348.891 191.129 409.186 215.423 457.188 256.693V0H584.217V774.176L463.92 715.344C415.918 755.443 354.452 779.737 287.718 779.737C130.249 779.737 0 647.439 0 485.287L0.585388 485.579Z" fill="black"/>
</svg>
