<?xml version="1.0" encoding="UTF-8"?>
<svg id="Layer_2" xmlns="http://www.w3.org/2000/svg" version="1.1" viewBox="0 0 1280 800">
  <!-- Generator: Adobe Illustrator 29.3.1, SVG Export Plug-In . SVG Version: 2.1.0 Build 151)  -->
  <defs>
    <style>
      .st0 {
        fill: #14b6bc;
      }

      .st1 {
        fill: #162831;
      }

      .st2 {
        fill: #152831;
      }
    </style>
  </defs>
  <path class="st0" d="M139.87,294.68c-12.45,0-69.33-.2-89.03-.27-1.97-2.96-5.34-4.92-9.15-4.92-6.06,0-11,4.93-11,11s4.93,10.99,11,10.99c4.03,0,7.53-2.21,9.44-5.46,20.01.07,76.35.27,88.73.27,11.07,0,84.46,16.85,84.46,90.4,0,80.85-79.39,94.17-80.19,94.25-10.95,1.14-77.09,1.75-84.31,1.75-2.52,0-5.06-1.78-5.06-5.75s1.49-5.42,5.15-5.49c1.4-.03,5.26-.02,10.59,0,37.85.09,64.41-.16,71.12-1.54,11.42-2.34,68.39-17.26,67.97-80.77-.33-50.06-39.09-71.06-60.55-77.95-1.49-4.31-5.54-7.43-10.35-7.43-3.67,0-6.91,1.83-8.91,4.6-15.51-.07-51.64-.21-58.6-.1-14.29.23-22.73,6.99-22.58,18.08.07,5.37,1.94,9.97,5.39,13.3,4.11,3.96,10.25,5.95,17.81,5.79,9.5-.22,40.98-.62,53.08-.62,9.71,0,45.97,7.86,45.97,46.34,0,12.97-4.09,23.61-12.16,31.63-11.98,11.9-28.72,14.48-34.32,14.48h-.11l-40.67-.26c-1.94-3.14-5.38-5.25-9.33-5.25-6.06,0-11,4.93-11,11s4.93,11,11,11c3.9,0,7.32-2.06,9.27-5.13l40.66.26c8.64.19,28.35-3.61,42.68-17.86,10.34-10.28,15.59-23.69,15.59-39.86,0-43.36-39.54-57.95-57.58-57.95-12.57,0-43.73.41-53.34.63-4.31.11-7.68-.8-9.49-2.54-1.21-1.16-1.81-2.83-1.84-5.1-.02-1.68-.08-6.14,11.16-6.32,6.65-.1,41.5.02,57.7.09,1.86,3.43,5.45,5.78,9.62,5.78,3.08,0,5.87-1.28,7.86-3.34,17.96,6.02,51.15,24.38,51.42,66.81.36,54.44-48.83,67.3-58.7,69.32-6.92,1.42-51.85,1.36-68.76,1.3-5.44,0-9.4-.02-10.82,0-10.05.18-16.55,6.89-16.55,17.09s7.17,17.35,16.67,17.35c4.28,0,73.47-.55,85.51-1.81,19.14-2,90.6-25.8,90.6-105.8s-81.14-102.01-96.07-102.01ZM41.08,300.49c0-.34.27-.61.61-.61s.61.28.61.61c0,.68-1.22.68-1.22,0ZM73.65,452.76c0-.34.27-.61.61-.61.05,0,.08.04.13.06v1.02c-.35.06-.74-.08-.74-.47Z"/>
  <path class="st1" d="M343.17,338.13c-5.72,0-47.63.1-47.63.1l-.15,118.79h51.02c29.07,0,55.41-25.74,55.41-60.32,0-32.26-23.36-58.56-58.66-58.56ZM347.5,435.16h-29.47l.08-75.78s24.21-.06,27.51-.06c14.98,0,33.88,14.93,33.88,37.36,0,26.54-17,38.48-32.01,38.48Z"/>
  <polygon class="st2" points="450.39 338.13 539.3 338.22 539.3 360.06 472.7 360.06 472.7 386.71 536.66 386.97 536.93 408.26 472.7 408.26 472.7 435.02 539.3 435.02 539.3 457.1 450.39 457.1 450.39 338.13"/>
  <polygon class="st2" points="590.65 338.13 679.55 338.22 679.55 360.06 612.96 360.06 612.96 386.71 676.91 386.97 677.18 408.26 612.96 408.26 612.96 435.02 679.55 435.02 679.55 457.1 590.65 457.1 590.65 338.13"/>
  <path class="st2" d="M788.7,338.22h-57.8l-.17,118.79h22.68v-34.95h35.69c16.57,0,40.8-14.51,40.8-43.26s-26.3-40.59-41.18-40.59ZM786.28,401.43h-33.39v-41.36h28.37c13.84,0,25.84,4.5,25.84,20.79,0,14.38-13.21,20.58-20.82,20.58Z"/>
  <polygon class="st2" points="1025.49 338.22 1047.67 338.22 1047.67 457.06 1025.62 457.06 1025.49 338.22"/>
  <path class="st2" d="M1098.19,399.69c0-59.7,54.65-64.83,60.47-64.83,31.49,0,44.52,18.07,44.52,18.07l-12.66,14.4s-12.31-11.57-29.8-11.57c-24.03,0-40.5,18.14-40.5,43.4s18.36,39.25,38.44,39.25,28.21-7.42,28.21-10.45v-19.71h-28.81v-19.45h49.42v49.61s-15.6,21.34-47.44,21.34c0,0-61.86-.38-61.86-60.08Z"/>
  <path class="st2" d="M952.42,367.29l17.35-9.99s-10.79-23.1-46.22-23.1-45.45,23.1-45.45,33.48c0,14.01,4.94,23.2,17.07,29.17,12.29,6.05,21.57,7.63,29.81,8.68s26.2,4.21,26.08,17.57c-.12,13.36-13.56,16.65-26.22,16.65s-25.23-4.34-34.42-18.55l-18.05,10.71s11.72,28.13,49.62,28.13,48.2-18.06,50.77-31.33c2.57-13.28-1.65-35.22-30.86-41.13-29.21-5.91-38.56-6.2-41.46-15.97-2.33-7.83,6.03-17.62,22.23-17.62,21,0,29.76,13.29,29.76,13.29Z"/>
</svg>