<svg xmlns="http://www.w3.org/2000/svg" role="img" viewBox="-6.95 79.55 413.66 85.66"><title>Dell EMC logo</title><style>svg {enable-background:new 0 0 400 245}</style><style/><path fill="gray" d="M375.21 154.11c12.3 0 21.95-6.15 23.71-19.32l-.87-.88h-3.51l-.88.88c-1.75 9.65-7.9 14.93-18.44 14.93-13.17 0-22.83-9.66-22.83-27.22s9.66-27.22 22.83-27.22c10.54 0 16.69 5.27 18.44 14.05l.88.88h3.51l.87-.88c-1.75-12.29-11.41-18.44-23.71-18.44-14.93 0-28.1 10.54-28.1 31.61s13.17 31.61 28.1 31.61m-38.64-1.76V92.64l-.87-.88h-6.15l-.88.88-22.83 53.56h-.88l-22.83-53.56-.88-.88h-6.14l-.88.88v59.71l.88.88h3.51l.88-.88v-50.93h.88l21.95 50.93.88.88h4.39l.88-.88 21.95-50.93h.88v50.93l.88.88h3.51l.87-.88zm-73.76 0v-2.63l-.88-.88h-32.49l-.88-.88v-22.83l.88-.88h30.73l.88-.88v-2.63l-.88-.88h-30.73l-.88-.88V97.03l.88-.88h32.49l.88-.88v-2.64l-.88-.88h-37.75l-.88.88v59.71l.88.88h37.75l.88-.87z"/><path fill="#0085c3" d="M209.34 141.02v12.22h-39.65V91.77h13.96v49.25h25.69zm-39.65-49.25h13.96M26 153.23c14.3 0 26.32-9.77 29.75-23l34.77 27.17 34.75-27.15v22.98h39.65v-12.22h-25.69V91.77h-13.96v22.98l-33.33 26.04-7.46-5.82 15.96-12.47 17.38-13.58-9.92-7.75-33.33 26.04-7.46-5.82 33.33-26.04-9.92-7.75-34.77 27.17c-3.43-13.23-15.45-23-29.75-23H1.09v61.47H26zm-10.95-12.21v-37.04H26c9.26 0 16.77 8.29 16.77 18.52S35.26 141.02 26 141.02H15.05z"/></svg>