<?xml version="1.0" encoding="utf-8"?>
<!-- Generator: Adobe Illustrator 23.0.3, SVG Export Plug-In . SVG Version: 6.00 Build 0)  -->
<svg version="1.1" id="Layer_1" xmlns="http://www.w3.org/2000/svg" xmlns:xlink="http://www.w3.org/1999/xlink" x="0px" y="0px"
	 viewBox="0 0 400 245" style="enable-background:new 0 0 400 245;" xml:space="preserve">
<style type="text/css">
	.st0{fill:#E01B22;}
	.st1{fill:#4064AD;}
	.st2{fill:#E98300;}
	.st3{fill:#00549F;}
	.st4{fill-rule:evenodd;clip-rule:evenodd;}
	.st5{fill-rule:evenodd;clip-rule:evenodd;fill:#C9243A;}
	.st6{fill-rule:evenodd;clip-rule:evenodd;fill:#231F20;}
	.st7{fill-rule:evenodd;clip-rule:evenodd;fill:#7C848A;}
	.st8{fill:#EE3B29;}
	.st9{fill:#7C848A;}
	.st10{fill:#0F0F59;}
	.st11{fill:#F42A4D;}
	.st12{fill:#DA2128;}
	.st13{fill-rule:evenodd;clip-rule:evenodd;fill:#12ABDB;}
	.st14{fill-rule:evenodd;clip-rule:evenodd;fill:#0070AD;}
	.st15{fill:#929497;}
	.st16{fill:#231F20;}
	.st17{fill:#00ADEE;}
	.st18{fill:#2E3191;}
	.st19{fill:#EC1C24;}
	.st20{fill:#0082C9;}
	.st21{fill:#6D67AE;}
	.st22{fill:#2B62AD;}
	.st23{fill:#404041;}
	.st24{fill:#273B5B;}
	.st25{fill:#39B54A;}
	.st26{fill:#474749;}
	.st27{fill:#009245;}
	.st28{fill:#DDDDDD;}
	.st29{fill:#FFFFFF;}
	.st30{fill:url(#SVGID_1_);}
	.st31{fill:url(#SVGID_2_);}
	.st32{fill:url(#SVGID_3_);}
	.st33{fill:url(#SVGID_4_);}
	.st34{fill:url(#SVGID_5_);}
	.st35{fill:url(#SVGID_6_);}
	.st36{fill:url(#SVGID_7_);}
	.st37{fill:url(#SVGID_8_);}
	.st38{fill:url(#SVGID_9_);}
	.st39{fill:url(#SVGID_10_);}
	.st40{fill:url(#SVGID_11_);}
	.st41{fill:url(#SVGID_12_);}
	.st42{fill:url(#SVGID_13_);}
	.st43{fill:url(#SVGID_14_);}
	.st44{fill:url(#SVGID_15_);}
	.st45{fill:url(#SVGID_16_);}
	.st46{fill:url(#SVGID_17_);}
	.st47{fill:#59595C;}
	.st48{fill:#1D7DB9;}
	.st49{fill:#121110;}
	.st50{fill:#010101;}
	.st51{fill:#663795;}
	.st52{fill:#09324A;stroke:#1B75BB;stroke-width:0.6975;stroke-miterlimit:10;}
	.st53{fill:#002432;stroke:#1B75BB;stroke-width:1.0463;stroke-miterlimit:10;}
	.st54{fill-rule:evenodd;clip-rule:evenodd;fill:#E73836;}
	.st55{fill:#231916;}
	.st56{fill:#E73836;}
	.st57{fill:#8C9091;}
	.st58{fill-rule:evenodd;clip-rule:evenodd;fill:#365072;}
	.st59{fill:#365072;}
	.st60{fill:#0093D7;}
	.st61{clip-path:url(#SVGID_19_);fill:url(#SVGID_20_);}
	.st62{clip-path:url(#SVGID_22_);fill:url(#SVGID_23_);}
	.st63{clip-path:url(#SVGID_25_);fill:url(#SVGID_26_);}
	.st64{clip-path:url(#SVGID_28_);fill:url(#SVGID_29_);}
	.st65{clip-path:url(#SVGID_31_);fill:url(#SVGID_32_);}
	.st66{clip-path:url(#SVGID_34_);fill:url(#SVGID_35_);}
	.st67{clip-path:url(#SVGID_37_);fill:url(#SVGID_38_);}
	.st68{clip-path:url(#SVGID_40_);fill:url(#SVGID_41_);}
	.st69{clip-path:url(#SVGID_43_);fill:url(#SVGID_44_);}
	.st70{clip-path:url(#SVGID_68_);}
	.st71{clip-path:url(#SVGID_79_);}
	.st72{fill:#00A9E6;}
	.st73{fill:#4D4D4F;}
	.st74{fill:#898B8D;}
	.st75{fill:#04B3AC;}
	.st76{fill:#A4A2A0;}
	.st77{fill:#D0CFCE;}
	.st78{fill:#74777C;}
	.st79{fill:none;stroke:#ED3024;stroke-width:0.4269;}
	.st80{fill:#A2A4A8;}
	.st81{fill:#3F7BA3;}
	.st82{enable-background:new    ;}
	.st83{fill:#E8B520;}
	.st84{fill:#D27D41;}
	.st85{fill:#0B74BB;}
	.st86{fill:#702784;}
	.st87{fill:#AD2E91;}
	.st88{fill:#ED3694;}
	.st89{fill:#004E9A;}
	.st90{clip-path:url(#SVGID_82_);fill:url(#SVGID_83_);}
	.st91{clip-path:url(#SVGID_85_);fill:url(#SVGID_86_);}
	.st92{clip-path:url(#SVGID_88_);fill:url(#SVGID_89_);}
	.st93{fill:#0898CC;}
	.st94{fill:#12284C;}
	.st95{fill-rule:evenodd;clip-rule:evenodd;fill:#84BE42;}
	.st96{fill-rule:evenodd;clip-rule:evenodd;fill:#C1C0C0;}
	.st97{clip-path:url(#SVGID_91_);fill:#84BE42;}
	.st98{fill:#0066A5;}
	.st99{fill:#F05A22;}
	.st100{clip-path:url(#SVGID_93_);}
	.st101{clip-path:url(#SVGID_95_);fill:#1D1D1B;}
	.st102{clip-path:url(#SVGID_97_);}
	.st103{clip-path:url(#SVGID_99_);fill:#1D1D1B;}
	.st104{clip-path:url(#SVGID_101_);}
	.st105{clip-path:url(#SVGID_103_);fill:#1D1D1B;}
	.st106{clip-path:url(#SVGID_105_);}
	.st107{clip-path:url(#SVGID_107_);fill:#1D1D1B;}
	.st108{clip-path:url(#SVGID_109_);}
	.st109{clip-path:url(#SVGID_111_);fill:#1D1D1B;}
	.st110{clip-path:url(#SVGID_113_);}
	.st111{clip-path:url(#SVGID_115_);fill:#1D1D1B;}
	.st112{clip-path:url(#SVGID_117_);}
	.st113{clip-path:url(#SVGID_119_);fill:#1D9DD9;}
	.st114{clip-path:url(#SVGID_121_);}
	.st115{clip-path:url(#SVGID_123_);fill:#1D1D1B;}
	.st116{clip-path:url(#SVGID_125_);}
	.st117{clip-path:url(#SVGID_127_);fill:#1D9DD9;}
	.st118{clip-path:url(#SVGID_129_);}
	.st119{clip-path:url(#SVGID_131_);fill:#1D1D1B;}
	.st120{clip-path:url(#SVGID_133_);}
	.st121{clip-path:url(#SVGID_135_);fill:#1D9DD9;}
	.st122{clip-path:url(#SVGID_137_);}
	.st123{clip-path:url(#SVGID_139_);fill:#1D1D1B;}
	.st124{clip-path:url(#SVGID_141_);}
	.st125{clip-path:url(#SVGID_143_);fill:#1D9DD9;}
	.st126{clip-path:url(#SVGID_145_);}
	.st127{clip-path:url(#SVGID_147_);fill:#1D1D1B;}
	.st128{fill:#D44432;}
	.st129{fill:#272525;}
	.st130{fill:url(#SVGID_148_);}
	.st131{fill:url(#SVGID_149_);}
	.st132{fill:url(#SVGID_150_);}
	.st133{fill:#002B54;}
	.st134{fill:#B2B1B1;}
	.st135{fill:#E1134F;}
	.st136{fill:#454547;}
	.st137{fill:#00B4D0;}
	.st138{fill:#4564A7;}
	.st139{fill:#0088EE;}
	.st140{fill:#026FC2;}
	.st141{fill:#009FEE;}
	.st142{fill:#00BEEE;}
	.st143{fill:#00AFEE;}
	.st144{fill-rule:evenodd;clip-rule:evenodd;fill:#224099;}
	.st145{clip-path:url(#SVGID_152_);}
	.st146{clip-path:url(#SVGID_156_);}
	.st147{fill:#203260;}
	.st148{fill-rule:evenodd;clip-rule:evenodd;fill:#989A9D;}
	.st149{fill-rule:evenodd;clip-rule:evenodd;fill:#DF068C;}
	.st150{fill:#2E3437;}
	.st151{fill:#989FA4;}
	.st152{fill:#E1DE22;}
	.st153{fill-rule:evenodd;clip-rule:evenodd;fill:#86171D;}
	.st154{fill-rule:evenodd;clip-rule:evenodd;fill:#FFFFFF;}
	.st155{fill:none;stroke:#86171D;stroke-width:6.1349;stroke-miterlimit:10;}
	.st156{fill:#1F1F1F;}
	.st157{fill:#009590;}
	.st158{fill:#ED1651;}
</style>
<g>
	<polygon class="st148" points="1.47,118.78 19.09,118.78 19.09,136.4 1.47,136.4 1.47,118.78 1.47,118.78 	"/>
	<polygon class="st148" points="54.33,118.78 71.95,118.78 71.95,136.4 54.33,136.4 54.33,118.78 54.33,118.78 	"/>
	<polygon class="st148" points="107.18,118.78 124.8,118.78 124.8,136.4 107.18,136.4 107.18,118.78 107.18,118.78 	"/>
	<path class="st149" d="M149.6,147.1c0,11.71,2.01,13.59,14.6,13.72l0,0v4.91H121.4v-4.91l0,0c12.59-0.13,14.6-2.01,14.6-13.72l0,0
		V82.78l0,0c-14.47,0.25-22.91,9.82-24.17,27.31l0,0l-4.66-0.75l0.88-30.71h69.48l0.88,30.71l-4.66,0.75l0,0
		c-1.26-17.49-9.82-27.06-24.17-27.31l0,0V147.1L149.6,147.1L149.6,147.1z"/>
	<polygon class="st148" points="160.66,118.78 178.28,118.78 178.28,136.4 160.66,136.4 160.66,118.78 160.66,118.78 	"/>
	<path class="st148" d="M213.04,85.78c0-2.8-0.16-3.82-0.81-4.46c-0.48-0.49-1.61-0.81-2.85-0.81l0,0h-0.7v-1.72h12.74l0,0
		c5.92,0,10.05,1.72,13.23,5.54c2.74,3.28,4.2,7.47,4.2,12.32c0,5.54-1.83,10.33-5.22,13.6c-3.01,3.01-6.99,4.41-12.21,4.41l0,0
		h-12.74v-1.72h0.7l0,0c1.24,0,2.37-0.33,2.85-0.81c0.64-0.65,0.81-1.67,0.81-4.46l0,0V85.78L213.04,85.78L213.04,85.78z
		 M217.99,107.88c0,4.09,0.65,4.84,4.41,4.84c7.74,0,10.7-4.41,10.7-16.08c0-11.35-3.07-15.97-10.59-15.97
		c-1.99,0-3.23,0.38-3.87,1.07c-0.54,0.65-0.65,1.29-0.65,3.55l0,0V107.88L217.99,107.88L217.99,107.88z"/>
	<path class="st148" d="M247.4,102.12c0.05,7.85,1.88,11.19,6.12,11.19c2.91,0,4.79-1.56,6.67-5.54l0,0l1.61,0.86l0,0
		c-2.31,4.68-5.11,6.78-9.14,6.78c-6.24,0-10.27-5.16-10.27-13.29c0-7.53,4.09-12.96,9.73-12.96c5.86,0,9.74,5,10.01,12.96l0,0
		H247.4L247.4,102.12L247.4,102.12z M257.13,100.24c0.05-5.75-1.72-9.19-4.73-9.19c-3.01,0-4.89,3.55-4.95,9.19l0,0H257.13
		L257.13,100.24L257.13,100.24z"/>
	<path class="st148" d="M282.61,109.12c-1.82,4.2-4.3,6.07-7.79,6.07c-2.37,0-4.19-0.91-5.22-2.63c-1.02-1.72-1.35-3.39-1.35-7.42
		l0,0v-9.25l0,0c0-3.55-0.48-4.3-2.74-4.3l0,0h-0.59v-1.67l7.85-0.38v16.99l0,0c0,2.31,0.16,3.39,0.65,4.41
		c0.42,1.08,1.5,1.77,2.69,1.77c1.83,0,3.55-1.18,4.68-3.34c1.02-1.82,1.4-3.76,1.4-6.83l0,0v-6.67l0,0c0-3.55-0.48-4.3-2.74-4.3
		l0,0h-0.81v-1.67l8.07-0.38v19.09l0,0c0,3.55,0.48,4.36,2.74,4.36l0,0h0.59v1.66l-7.42,0.38V109.12L282.61,109.12L282.61,109.12z"
		/>
	<path class="st148" d="M299.82,106.64c0,2.21,0.11,3.17,0.38,4.2c0.38,1.29,1.4,2.1,2.63,2.1c2.04,0,3.28-2.21,3.28-6.03l0,0v-0.75
		h1.77v1.02l0,0c0,5.27-2.15,8.01-6.4,8.01c-2.04,0-3.71-0.64-4.68-1.83c-1.18-1.4-1.5-2.96-1.5-6.72l0,0V91.75h-3.87v-1.51l0,0
		c4.68-1.13,6.24-3.28,6.88-9.63l0,0h1.5v9.3h7.26v1.83h-7.26V106.64L299.82,106.64L299.82,106.64z"/>
	<path class="st148" d="M325.47,97.72h-1.62l0,0c-0.91-4.57-2.96-6.78-6.29-6.78c-2.31,0-4.03,1.61-4.03,3.76
		c0,2.04,1.07,3.01,4.46,4.09c3.44,1.13,4.89,1.77,6.07,2.69c1.93,1.5,2.85,3.39,2.85,5.8c0,4.63-3.33,7.9-8.07,7.9
		c-2.15,0-3.39-0.43-6.02-1.99c-0.27-0.16-0.48-0.21-0.59-0.21c-0.38,0-0.7,0.37-0.91,1.07l0,0l-0.17,0.59h-1.5v-9.08h1.5l0,0
		c0.7,2.52,1.24,3.87,2.1,5c1.34,1.83,3.39,2.9,5.59,2.9c2.47,0,4.3-1.88,4.3-4.35c0-1.56-0.81-2.96-2.2-3.82
		c-1.19-0.75-1.24-0.75-4.73-1.94c-4.3-1.4-6.29-3.71-6.29-7.2c0-3.98,2.96-6.78,7.26-6.78c1.72,0,3.55,0.54,5.06,1.45
		c0.32,0.16,0.59,0.27,0.8,0.27c0.33,0,0.65-0.43,0.81-1.19l0,0h1.62V97.72L325.47,97.72L325.47,97.72z"/>
	<path class="st148" d="M349.07,108.36c-1.94,4.84-4.68,7.05-8.82,7.05c-6.18,0-10.43-5.38-10.43-13.23
		c0-7.64,4.52-13.01,10.97-13.01c4.46,0,7.96,3.06,7.96,6.94c0,1.99-1.29,3.39-3.06,3.39c-1.56,0-2.74-1.24-2.74-2.91
		c0-1.5,1.08-2.74,2.52-2.74c0.22,0,0.33,0,0.54,0.16c-0.81-1.88-2.58-2.96-4.74-2.96c-4.14,0-6.24,3.71-6.24,11.13
		c0,7.58,1.99,11.18,6.08,11.18c2.69,0,4.73-1.82,6.24-5.7l0,0L349.07,108.36L349.07,108.36L349.07,108.36z"/>
	<path class="st148" d="M368.37,98.63c0-3.12-0.16-4.36-0.81-5.32c-0.59-1.07-1.56-1.61-2.69-1.61c-1.78,0-3.44,1.19-4.46,3.23
		c-0.97,1.99-1.35,4.09-1.35,7.79l0,0v5.92l0,0c0,3.6,0.49,4.36,2.74,4.36l0,0h0.86v1.66h-11.72v-1.66h0.86l0,0
		c2.26,0,2.74-0.81,2.74-4.36l0,0V84.76l0,0c0-3.55-0.48-4.3-2.74-4.3l0,0h-0.59v-1.67l7.85-0.38v15.97l0,0c1.72-3.49,3.82-5,6.94-5
		c2.26,0,4.09,0.81,5.16,2.31c1.34,1.88,1.72,3.6,1.72,8.28l0,0v8.66l0,0c0,3.6,0.49,4.36,2.74,4.36l0,0h0.59v1.66h-7.85V98.63
		L368.37,98.63L368.37,98.63z"/>
	<path class="st148" d="M383.79,102.12c0.06,7.85,1.88,11.19,6.13,11.19c2.9,0,4.78-1.56,6.67-5.54l0,0l1.61,0.86l0,0
		c-2.31,4.68-5.11,6.78-9.14,6.78c-6.23,0-10.27-5.16-10.27-13.29c0-7.53,4.09-12.96,9.73-12.96c5.86,0,9.73,5,10,12.96l0,0H383.79
		L383.79,102.12L383.79,102.12z M393.53,100.24c0.05-5.75-1.72-9.19-4.73-9.19c-3.01,0-4.9,3.55-4.94,9.19l0,0H393.53L393.53,100.24
		L393.53,100.24z"/>
	<path class="st148" d="M224.12,158.85c0,2.85,0.16,3.82,0.81,4.46c0.53,0.48,1.61,0.81,2.84,0.81l0,0h1.24v1.72h-14.73v-1.72h1.23
		l0,0c1.24,0,2.31-0.32,2.85-0.81c0.64-0.64,0.81-1.61,0.81-4.46l0,0v-27.15h-1.13l0,0c-3.17,0-5.75,1.72-6.99,4.68
		c-0.7,1.61-1.02,3.23-1.29,6.13l0,0l-1.56-0.11l0.27-12.42h26.51l0.21,12.42l-1.61,0.11l0,0c-1.02-7.85-3.44-10.81-8.65-10.81l0,0
		h-0.81V158.85L224.12,158.85L224.12,158.85z"/>
	<path class="st148" d="M242.71,153.31c0.05,7.85,1.88,11.18,6.13,11.18c2.91,0,4.79-1.56,6.67-5.54l0,0l1.62,0.86l0,0
		c-2.32,4.68-5.11,6.78-9.14,6.78c-6.24,0-10.27-5.16-10.27-13.28c0-7.53,4.09-12.96,9.73-12.96c5.86,0,9.73,5,10,12.96l0,0H242.71
		L242.71,153.31L242.71,153.31z M252.45,151.43c0.05-5.75-1.73-9.2-4.74-9.2c-3.01,0-4.89,3.55-4.95,9.2l0,0H252.45L252.45,151.43
		L252.45,151.43z"/>
	<path class="st148" d="M268.2,159.81c0,3.6,0.48,4.36,2.74,4.36l0,0h0.86v1.66h-11.72v-1.66h0.86l0,0c2.25,0,2.74-0.75,2.74-4.36
		l0,0v-23.87l0,0c0-3.55-0.49-4.3-2.74-4.3l0,0h-0.59v-1.67l7.85-0.38V159.81L268.2,159.81L268.2,159.81z"/>
	<path class="st148" d="M279.32,153.31c0.05,7.85,1.88,11.18,6.13,11.18c2.91,0,4.79-1.56,6.67-5.54l0,0l1.61,0.86l0,0
		c-2.31,4.68-5.11,6.78-9.14,6.78c-6.24,0-10.27-5.16-10.27-13.28c0-7.53,4.08-12.96,9.73-12.96c5.86,0,9.73,5,10,12.96l0,0H279.32
		L279.32,153.31L279.32,153.31z M289.06,151.43c0.05-5.75-1.72-9.2-4.74-9.2c-3.01,0-4.89,3.55-4.95,9.2l0,0H289.06L289.06,151.43
		L289.06,151.43z"/>
	<path class="st148" d="M314.7,165.84l-7.74-12.47l-2.15,1.88v4.57l0,0c0,3.6,0.48,4.36,2.74,4.36l0,0h1.02v1.66h-11.89v-1.66h0.86
		l0,0c2.26,0,2.74-0.8,2.74-4.36l0,0v-23.87l0,0c0-3.55-0.48-4.3-2.74-4.3l0,0h-0.59v-1.67l7.85-0.38v23.07l7.26-6.24l0,0
		c0.97-0.86,1.56-1.78,1.56-2.47c0-0.81-0.7-1.19-2.32-1.19l0,0h-0.8v-1.66h10.59v1.66h-0.54l0,0c-1.56,0-2.26,0.38-4.47,2.37l0,0
		l-5.91,5.27l6.5,10.38l0,0c1.62,2.58,2.64,3.39,4.36,3.39l0,0h0.43v1.66H314.7L314.7,165.84L314.7,165.84z"/>
	<path class="st148" d="M345.56,153.47c0,7.85-4.36,13.12-10.92,13.12c-6.51,0-10.86-5.27-10.86-13.07
		c0-8.01,4.35-13.18,11.02-13.18C341.21,140.35,345.56,145.67,345.56,153.47L345.56,153.47L345.56,153.47L345.56,153.47z
		 M330.23,145.29c-0.86,1.94-1.24,4.46-1.24,8.07c0,7.75,1.83,11.51,5.65,11.51c3.81,0,5.7-3.76,5.7-11.4
		c0-3.71-0.37-6.29-1.23-8.17c-0.92-2.04-2.58-3.23-4.52-3.23C332.82,142.07,331.09,143.36,330.23,145.29L330.23,145.29
		L330.23,145.29L330.23,145.29z"/>
	<path class="st148" d="M377.44,150.73c0-3.44-0.22-5.22-0.7-6.19c-0.59-1.07-1.56-1.66-2.74-1.66c-1.5,0-2.85,0.97-3.77,2.69
		c-0.91,1.72-1.13,3.06-1.13,7.53l0,0v6.72l0,0c0,3.6,0.48,4.36,2.74,4.36l0,0h0.76v1.66h-8.02v-14.3l0,0
		c0-4.57-0.11-5.65-0.75-6.89c-0.59-1.13-1.56-1.77-2.8-1.77c-1.51,0-2.85,0.97-3.71,2.69c-0.86,1.77-1.07,3.33-1.07,7.53l0,0v6.72
		l0,0c0,3.66,0.43,4.36,2.74,4.36l0,0h0.75v1.66h-11.61v-1.66H349l0,0c2.2,0,2.74-0.86,2.74-4.36l0,0v-12.74l0,0
		c0-3.44-0.54-4.3-2.74-4.3l0,0h-0.59v-1.66l7.53-0.38v4.41l0,0c1.02-2.74,3.55-4.57,6.29-4.57c3.01,0,4.95,1.5,6.29,4.9
		c1.55-3.34,3.71-4.9,6.67-4.9c2.31,0,4.35,1.07,5.43,2.85c1.02,1.56,1.35,3.34,1.35,6.73l0,0v9.67l0,0c0,3.55,0.48,4.36,2.74,4.36
		l0,0h0.59v1.66h-7.85V150.73L377.44,150.73L377.44,150.73z"/>
</g>
</svg>
