<svg width="198" height="185" viewBox="0 0 198 185" fill="none"
  xmlns="http://www.w3.org/2000/svg">
  <path
    d="M154.8 11.27C158.8 10.66 162.76 10.77 166.57 12.35C166.91 12.49 167.28 12.55 168 12.75C163.29 7.19 157.94 3.15 151.62 0C151.37 0.64 151.19 0.97 151.1 1.33C150.66 2.95 150.22 4.58 149.83 6.21C149.26 8.6 152.34 11.65 154.8 11.27Z"
    fill="#12346a" />
  <path
    d="M197.05 46C193.03 42.98 190.31 39.1 188.35 34.49C185.31 27.38 180.13 22.19 173.18 18.79C166.9 15.72 160.4 14.24 153.38 15.54C152.56 15.69 151.31 15.13 150.68 14.48C145.52 9.25 139.57 5.21 132.77 2.25C132.6 2.59 132.37 2.89 132.28 3.23C129.97 11.17 129.45 19.19 131.22 27.31C131.35 27.9 131.31 28.66 131.03 29.18C128.84 33.44 126.7 37.74 124.39 41.93C116.57 56.08 106.94 59.18 83.76 59.18C60.58 59.18 34.86 91.37 21.1 105.78L17.55 109.33C16.21 110.67 16.14 112.94 17.55 114.22C18.18 114.79 18.97 115.07 19.76 115.07C20.6 115.07 21.44 114.75 22.08 114.11L34.27 101.92L47.45 88.91C52.08 84.71 55.76 83.45 61.93 88.61C63.35 89.79 63.43 91.95 62.13 93.26L59.59 95.8C56.18 99.21 56.18 104.73 59.57 108.15C53.12 110.84 44.43 118.73 41.16 128.82C39.26 134.69 36.14 141.48 33.24 146.8C31.77 149.49 34.31 152.12 37.28 151.37C41.31 150.35 46.37 149.9 54.55 147.28C63.57 144.39 68.3 139.81 71.6 136.69C73.02 135.35 71.52 133.03 69.72 133.79C61.23 137.42 49.8 140.76 52.69 131.7C56.62 119.34 63.6 114.85 65.32 113.9L69.44 118.02C67.07 119.82 64.49 123.74 62.75 126.72C62.01 127.98 63.27 129.47 64.64 128.96C66.18 128.38 67.81 127.81 68.77 127.6C73.79 126.47 75.13 124.85 75.48 124.06L79.24 127.82C82.25 130.83 86.91 131.18 90.31 128.88C96.71 125.29 102.41 115.96 111.6 112.14C131.14 103.99 148.51 103.49 155.03 78.22C157.27 69.54 164.91 65.05 173.5 62.9C177.08 62.02 180.77 61.55 184.3 60.53C190.81 58.64 195.6 54.74 197.55 47.99C197.72 47.4 197.5 46.31 197.06 45.99L197.05 46ZM181.44 53.81C177.99 53.79 174.47 53.32 171.1 52.55C165.58 51.27 160.07 50.45 154.41 51.07C152.35 51.3 151.49 50.08 150.82 48.48C147.94 41.59 151.21 32.86 158.03 29.2C165.4 25.24 174.64 27.31 178.59 34.66C181.58 40.21 185.68 44.36 190.6 47.97C190.9 48.18 191.16 48.46 191.59 48.83C189.01 52.37 185.43 53.84 181.45 53.82L181.44 53.81Z"
    fill="#12346a" />
  <path
    d="M23.36 85.15C24.2 85.15 25.04 84.83 25.68 84.19L54.94 54.93C56.22 53.65 56.22 51.56 54.94 50.28C53.66 49 51.57 49 50.29 50.28L21.03 79.54C19.75 80.82 19.75 82.91 21.03 84.19C21.67 84.83 22.51 85.15 23.35 85.15H23.36Z"
    fill="#12346a" />
  <path
    d="M8.91001 99.6C9.75001 99.6 10.59 99.28 11.23 98.64L15.48 94.39C16.76 93.11 16.76 91.02 15.48 89.74C14.2 88.46 12.11 88.46 10.83 89.74L6.58001 93.99C5.30001 95.27 5.30001 97.36 6.58001 98.64C7.22001 99.28 8.06001 99.6 8.90001 99.6H8.91001Z"
    fill="#12346a" />
  <path
    d="M159.75 98.63L151.25 107.13C149.97 108.41 149.97 110.5 151.25 111.78C151.89 112.42 152.73 112.74 153.57 112.74C154.41 112.74 155.25 112.42 155.89 111.78L164.39 103.28C165.67 102 165.67 99.91 164.39 98.63C163.11 97.35 161.02 97.35 159.74 98.63H159.75Z"
    fill="#12346a" />
  <path
    d="M3.33001 152.23C4.17001 152.23 5.01001 151.91 5.65001 151.27L38.62 118.3C39.9 117.02 39.9 114.93 38.62 113.65C37.34 112.37 35.25 112.37 33.97 113.65L1.00001 146.61C-0.27999 147.89 -0.27999 149.98 1.00001 151.26C1.64001 151.9 2.48001 152.22 3.32001 152.22L3.33001 152.23Z"
    fill="#12346a" />
  <path
    d="M139.06 119.32L106.17 152.21C104.89 153.49 104.89 155.58 106.17 156.86C106.81 157.5 107.65 157.82 108.49 157.82C109.33 157.82 110.17 157.5 110.81 156.86L143.7 123.97C144.98 122.69 144.98 120.6 143.7 119.32C142.42 118.04 140.33 118.04 139.05 119.32H139.06Z"
    fill="#12346a" />
  <path
    d="M15.08 164.38L0.97001 178.49C-0.30999 179.77 -0.30999 181.86 0.97001 183.14C1.61001 183.78 2.45001 184.1 3.29001 184.1C4.13001 184.1 4.97001 183.78 5.61001 183.14L19.72 169.03C21 167.75 21 165.66 19.72 164.38C18.44 163.1 16.35 163.1 15.07 164.38H15.08Z"
    fill="#12346a" />
  <path
    d="M104.25 132.48C102.96 131.2 100.88 131.2 99.6 132.48L66.78 165.4C65.5 166.69 65.5 168.77 66.78 170.05C67.42 170.69 68.26 171.01 69.1 171.01C69.94 171.01 70.79 170.69 71.43 170.04L104.25 137.12C105.53 135.83 105.53 133.75 104.25 132.47V132.48Z"
    fill="#12346a" />
  <path
    d="M105.22 46.03L108.77 36.43L118.37 32.88L108.77 29.33L105.22 19.73L101.67 29.33L92.07 32.88L101.67 36.43L105.22 46.03Z"
    fill="#12346a" />
  <path
    d="M177.55 78.91L175.78 83.71L170.98 85.48L175.78 87.26L177.55 92.06L179.33 87.26L184.13 85.48L179.33 83.71L177.55 78.91Z"
    fill="#12346a" />
  <path
    d="M39.46 164.44L36.8 171.64L29.6 174.31L36.8 176.97L39.46 184.17L42.13 176.97L49.33 174.31L42.13 171.64L39.46 164.44Z"
    fill="#12346a" />
  <path
    d="M171.29 42.81C173.107 42.81 174.58 41.337 174.58 39.52C174.58 37.703 173.107 36.23 171.29 36.23C169.473 36.23 168 37.703 168 39.52C168 41.337 169.473 42.81 171.29 42.81Z"
    fill="#12346a" />
</svg>