<svg id="Layer_1" data-name="Layer 1" xmlns="http://www.w3.org/2000/svg" viewBox="0 0 400.05 241.54"><defs><style>.cls-1{fill:#00aab7;}.cls-2{fill:#002047;}</style></defs><path class="cls-1" d="M54.56,82.41a76.3,76.3,0,0,0-7.85,17.34A80.14,80.14,0,0,0,44.44,109a77.3,77.3,0,0,0-1,9.46,73.83,73.83,0,0,0,1.46,18.93,74.8,74.8,0,0,0,6.12,18,72.37,72.37,0,0,0,10.35,15.92,74.93,74.93,0,0,0,14,12.84,76,76,0,0,0,35.25,13.56l-1,8.11a84.16,84.16,0,0,1-39-15A83.55,83.55,0,0,1,55.1,176.65,80.64,80.64,0,0,1,43.63,159a84.48,84.48,0,0,1-8.39-40.94,81,81,0,0,1,3.67-20.73,84.48,84.48,0,0,1,8.68-19.2Z"/><path class="cls-1" d="M95.17,50.09A75.72,75.72,0,0,0,58.79,76.2l-6.51-4.93A83.88,83.88,0,0,1,92.57,42.34Z"/><circle class="cls-1" cx="128.88" cy="200.5" r="4.5"/><circle class="cls-1" cx="110.59" cy="41.46" r="4.5"/><path class="cls-2" d="M27.31,66.26A107.93,107.93,0,0,0,16.22,90.79,110.9,110.9,0,0,0,13,103.87a109.48,109.48,0,0,0-1.47,13.38A104.25,104.25,0,0,0,13.6,144a106.36,106.36,0,0,0,8.65,25.51A102.31,102.31,0,0,0,36.89,192,105.78,105.78,0,0,0,56.7,210.2a107.3,107.3,0,0,0,49.83,19.17l-1.34,11.47A118.88,118.88,0,0,1,50,219.63a117.73,117.73,0,0,1-21.94-20.12,122,122,0,0,1-8.93-11.94,123.55,123.55,0,0,1-7.3-13,117.81,117.81,0,0,1-9.56-28.23A115.84,115.84,0,0,1,0,116.68,114.76,114.76,0,0,1,5.19,87.37,119.4,119.4,0,0,1,17.47,60.22Z"/><path class="cls-2" d="M84.74,20.56A107,107,0,0,0,33.3,57.49l-9.21-7a118.7,118.7,0,0,1,57-40.9Z"/><circle class="cls-1" cx="132.39" cy="233.23" r="6.37"/><circle class="cls-1" cx="106.53" cy="8.37" r="6.37"/><circle class="cls-1" cx="126.93" cy="5.11" r="2.25"/><circle class="cls-1" cx="129.18" cy="39.21" r="2.25"/><circle class="cls-1" cx="147.08" cy="198.25" r="2.25"/><circle class="cls-1" cx="149.33" cy="232.35" r="2.25"/><rect class="cls-1" x="178.5" y="76.91" width="1.11" height="75.93"/><path class="cls-2" d="M208.89,94.72V76.2h6.25a13.28,13.28,0,0,1,6,1.13,8.61,8.61,0,0,1,3.51,3.34,9.29,9.29,0,0,1,1.3,4.81,9,9,0,0,1-.72,3.56,9.14,9.14,0,0,1-2,3,10,10,0,0,1-5.07,2.55,24.58,24.58,0,0,1-3.35.14Zm6-16.16h-3.31v13.8H215a13.74,13.74,0,0,0,3.09-.27,7.23,7.23,0,0,0,1.84-.69,6.36,6.36,0,0,0,1.35-1,6.88,6.88,0,0,0,2-5,6.36,6.36,0,0,0-2-4.88,6.29,6.29,0,0,0-1.7-1.15,7.36,7.36,0,0,0-1.83-.6A18.15,18.15,0,0,0,214.86,78.56Z"/><path class="cls-2" d="M231.33,76.2H234V94.75h-2.65Z"/><path class="cls-2" d="M250.17,85.61h6.22v7.87a17,17,0,0,1-6.8,1.48,10.06,10.06,0,0,1-7.36-2.69,8.87,8.87,0,0,1-2.75-6.63,9.24,9.24,0,0,1,2.85-6.92A9.88,9.88,0,0,1,249.49,76a12.46,12.46,0,0,1,3,.34A23.67,23.67,0,0,1,256,77.54v2.71a13.09,13.09,0,0,0-6.59-1.93,7,7,0,0,0-5.12,2.08,7.33,7.33,0,0,0,0,10.25,7.44,7.44,0,0,0,5.36,2,12.33,12.33,0,0,0,3.81-.73l.26-.08V88h-3.57Z"/><path class="cls-2" d="M262.34,76.2H265V94.75h-2.65Z"/><path class="cls-2" d="M269.57,76.17h15.5v2.37H278.6V94.75h-2.67V78.54h-6.36Z"/><path class="cls-2" d="M292.82,76.09h1.86L303,94.75h-2.72l-2.47-5.5H289.9l-2.32,5.5h-2.73Zm3.9,10.8-3-6.72L291,86.89Z"/><path class="cls-2" d="M307.07,76.2h2.66V92.33h8.35v2.42h-11Z"/><path class="cls-2" d="M208.72,122.92V104.34h5.88a6.11,6.11,0,0,1,4.24,1.43,5,5,0,0,1,1.58,3.86,5.12,5.12,0,0,1-.81,2.86,4.62,4.62,0,0,1-2.22,1.82,11.48,11.48,0,0,1-4,.56h-2v8Zm5.41-16.22h-2.74v5.81h2.9a3.68,3.68,0,0,0,2.5-.77,2.75,2.75,0,0,0,.88-2.18C217.67,107.66,216.49,106.7,214.13,106.7Z"/><path class="cls-2" d="M233.87,104.1a10,10,0,0,1,7.16,2.72,9,9,0,0,1,2.86,6.83,8.87,8.87,0,0,1-2.89,6.79,10.27,10.27,0,0,1-7.28,2.69,9.68,9.68,0,0,1-7-2.69,8.94,8.94,0,0,1-2.8-6.74,9.17,9.17,0,0,1,2.82-6.88A9.81,9.81,0,0,1,233.87,104.1Zm.11,2.52a7.21,7.21,0,0,0-5.24,2,7.21,7.21,0,0,0,0,10.08,7.64,7.64,0,0,0,10.33,0,6.82,6.82,0,0,0,2.07-5.06,6.63,6.63,0,0,0-2.07-5A7,7,0,0,0,234,106.62Z"/><path class="cls-2" d="M262.1,104.37h2.67V114.9a12.38,12.38,0,0,1-.31,3.22,7,7,0,0,1-.77,1.82,6,6,0,0,1-1.12,1.29,8.5,8.5,0,0,1-5.77,1.9,8.63,8.63,0,0,1-5.81-1.88,6,6,0,0,1-1.12-1.31,6.81,6.81,0,0,1-.76-1.78,13,13,0,0,1-.3-3.29v-10.5h2.67V114.9a7.82,7.82,0,0,0,.6,3.64,4.3,4.3,0,0,0,1.82,1.64,6.31,6.31,0,0,0,2.88.61,5.85,5.85,0,0,0,3.85-1.23,3.85,3.85,0,0,0,1.13-1.57,9.65,9.65,0,0,0,.34-3.09Z"/><path class="cls-2" d="M285.23,104.37h2.52v18.55h-2.28l-12.4-14.29v14.29h-2.5V104.37h2.15l12.51,14.41Z"/><path class="cls-2" d="M293.79,122.89V104.37h6.26a13.27,13.27,0,0,1,6,1.13,8.61,8.61,0,0,1,3.51,3.34,9.26,9.26,0,0,1,1.3,4.81,9.06,9.06,0,0,1-.72,3.56,8.84,8.84,0,0,1-2,3,10,10,0,0,1-5.07,2.55,24.58,24.58,0,0,1-3.35.14Zm6-16.16h-3.32v13.8h3.4a13.68,13.68,0,0,0,3.09-.27,7.89,7.89,0,0,0,1.84-.69,6.7,6.7,0,0,0,1.35-1,6.88,6.88,0,0,0,2-5,6.35,6.35,0,0,0-2-4.87,6.55,6.55,0,0,0-1.7-1.16,6.81,6.81,0,0,0-1.83-.59A18,18,0,0,0,299.77,106.73Z"/><path class="cls-2" d="M208.89,132.53h9.89v2.37h-7.23v5.18h7.23v2.36h-7.23v8.65h-2.66Z"/><path class="cls-2" d="M232.77,132.27a10,10,0,0,1,7.16,2.72,9.06,9.06,0,0,1,2.86,6.83,8.9,8.9,0,0,1-2.89,6.79,10.27,10.27,0,0,1-7.28,2.69,9.72,9.72,0,0,1-7-2.69,9,9,0,0,1-2.79-6.74,9.2,9.2,0,0,1,2.81-6.88A9.85,9.85,0,0,1,232.77,132.27Zm.1,2.52a7.23,7.23,0,0,0-5.23,2,6.79,6.79,0,0,0-2,5.09,6.67,6.67,0,0,0,2.06,5,7.6,7.6,0,0,0,10.32,0,6.76,6.76,0,0,0,2.08-5.06,6.64,6.64,0,0,0-2.08-5A7,7,0,0,0,232.87,134.79Z"/><path class="cls-2" d="M261,132.53h2.67v10.53a12.41,12.41,0,0,1-.31,3.23,7.13,7.13,0,0,1-.77,1.81,5.8,5.8,0,0,1-1.12,1.3,9.79,9.79,0,0,1-11.58,0,5.86,5.86,0,0,1-1.13-1.31,6.93,6.93,0,0,1-.75-1.77,13.07,13.07,0,0,1-.3-3.29V132.53h2.67v10.53a7.93,7.93,0,0,0,.59,3.64,4.23,4.23,0,0,0,1.82,1.64,6.25,6.25,0,0,0,2.89.62,5.85,5.85,0,0,0,3.85-1.23,3.92,3.92,0,0,0,1.13-1.57,9.68,9.68,0,0,0,.34-3.1Z"/><path class="cls-2" d="M284.13,132.53h2.52v18.56h-2.28L272,136.8v14.29h-2.49V132.53h2.15l12.51,14.41Z"/><path class="cls-2" d="M292.69,151.06V132.53h6.25a13.14,13.14,0,0,1,6,1.14,8.61,8.61,0,0,1,3.51,3.34,9.26,9.26,0,0,1,1.3,4.81,9.1,9.1,0,0,1-2.76,6.54,8.93,8.93,0,0,1-3.15,2,9.39,9.39,0,0,1-1.93.55,26.1,26.1,0,0,1-3.34.14Zm6-16.16h-3.32v13.8h3.4a13.68,13.68,0,0,0,3.1-.28,7.23,7.23,0,0,0,1.84-.69,6.36,6.36,0,0,0,1.35-1,6.84,6.84,0,0,0,2-5,6.48,6.48,0,0,0-3.72-6,7.36,7.36,0,0,0-1.83-.6A20,20,0,0,0,298.66,134.9Z"/><path class="cls-2" d="M319.52,132.43h1.87l8.32,18.66H327l-2.47-5.5H316.6l-2.32,5.5h-2.73Zm3.9,10.79-3-6.71-2.77,6.71Z"/><path class="cls-2" d="M329.48,132.51H345v2.36h-6.46v16.22h-2.67V134.87h-6.36Z"/><path class="cls-2" d="M349.55,132.53h2.66v18.56h-2.66Z"/><path class="cls-2" d="M367.46,132.27a10,10,0,0,1,7.16,2.72,9,9,0,0,1,2.86,6.83,8.89,8.89,0,0,1-2.88,6.79,10.28,10.28,0,0,1-7.28,2.69,9.68,9.68,0,0,1-7-2.69,9,9,0,0,1-2.79-6.74,9.2,9.2,0,0,1,2.81-6.88A9.84,9.84,0,0,1,367.46,132.27Zm.11,2.52a7.22,7.22,0,0,0-5.23,2,6.79,6.79,0,0,0-2,5.09,6.66,6.66,0,0,0,2,5,7.61,7.61,0,0,0,10.33,0,6.76,6.76,0,0,0,2.08-5.06,6.64,6.64,0,0,0-2.08-5A7,7,0,0,0,367.57,134.79Z"/><path class="cls-2" d="M397.53,132.53h2.52v18.56h-2.28l-12.4-14.29v14.29h-2.5V132.53H385l12.51,14.41Z"/><path class="cls-2" d="M135.52,125H112.76a34.38,34.38,0,0,1-4.52,15,37.84,37.84,0,0,1-9.45,11.24h41.38v9.71H88.41L86,152.22A58.26,58.26,0,0,0,95.86,140a38.25,38.25,0,0,0,5.06-15H86.68v-9.72h14.64V100.64q0-14.46,6.65-22.23t19.43-7.76a45.6,45.6,0,0,1,10,1,30.92,30.92,0,0,1,7.45,2.6l-2,9.44a28.79,28.79,0,0,0-6.92-2.46,34.53,34.53,0,0,0-7.46-.86q-8,0-11.57,5.1t-3.6,15.31v14.45h22.23Z"/></svg>