<?xml version="1.0" encoding="utf-8"?>
<!-- Generator: Adobe Illustrator 23.0.3, SVG Export Plug-In . SVG Version: 6.00 Build 0)  -->
<svg version="1.1" id="Layer_1" xmlns="http://www.w3.org/2000/svg" xmlns:xlink="http://www.w3.org/1999/xlink" x="0px" y="0px"
	 viewBox="0 0 400 245" style="enable-background:new 0 0 400 245;" xml:space="preserve">
<style type="text/css">
	.st0{fill:#E01B22;}
	.st1{fill:#4064AD;}
	.st2{fill:#E98300;}
	.st3{fill:#00549F;}
	.st4{fill-rule:evenodd;clip-rule:evenodd;}
	.st5{fill-rule:evenodd;clip-rule:evenodd;fill:#C9243A;}
	.st6{fill-rule:evenodd;clip-rule:evenodd;fill:#231F20;}
	.st7{fill-rule:evenodd;clip-rule:evenodd;fill:#7C848A;}
	.st8{fill:#EE3B29;}
	.st9{fill:#7C848A;}
	.st10{fill:#0F0F59;}
	.st11{fill:#F42A4D;}
	.st12{fill:#DA2128;}
	.st13{fill-rule:evenodd;clip-rule:evenodd;fill:#12ABDB;}
	.st14{fill-rule:evenodd;clip-rule:evenodd;fill:#0070AD;}
	.st15{fill:#929497;}
	.st16{fill:#231F20;}
	.st17{fill:#00ADEE;}
	.st18{fill:#2E3191;}
	.st19{fill:#EC1C24;}
	.st20{fill:#0082C9;}
	.st21{fill:#6D67AE;}
	.st22{fill:#2B62AD;}
	.st23{fill:#404041;}
	.st24{fill:#273B5B;}
	.st25{fill:#39B54A;}
	.st26{fill:#474749;}
	.st27{fill:#009245;}
	.st28{fill:#DDDDDD;}
	.st29{fill:#FFFFFF;}
	.st30{fill:url(#SVGID_1_);}
	.st31{fill:url(#SVGID_2_);}
	.st32{fill:url(#SVGID_3_);}
	.st33{fill:url(#SVGID_4_);}
	.st34{fill:url(#SVGID_5_);}
	.st35{fill:url(#SVGID_6_);}
	.st36{fill:url(#SVGID_7_);}
	.st37{fill:url(#SVGID_8_);}
	.st38{fill:url(#SVGID_9_);}
	.st39{fill:url(#SVGID_10_);}
	.st40{fill:url(#SVGID_11_);}
	.st41{fill:url(#SVGID_12_);}
	.st42{fill:url(#SVGID_13_);}
	.st43{fill:url(#SVGID_14_);}
	.st44{fill:url(#SVGID_15_);}
	.st45{fill:url(#SVGID_16_);}
	.st46{fill:url(#SVGID_17_);}
	.st47{fill:#59595C;}
	.st48{fill:#1D7DB9;}
	.st49{fill:#121110;}
	.st50{fill:#010101;}
	.st51{fill:#663795;}
	.st52{fill:#09324A;stroke:#1B75BB;stroke-width:0.6975;stroke-miterlimit:10;}
	.st53{fill:#002432;stroke:#1B75BB;stroke-width:1.0463;stroke-miterlimit:10;}
	.st54{fill-rule:evenodd;clip-rule:evenodd;fill:#E73836;}
	.st55{fill:#231916;}
	.st56{fill:#E73836;}
	.st57{fill:#8C9091;}
	.st58{fill-rule:evenodd;clip-rule:evenodd;fill:#365072;}
	.st59{fill:#365072;}
	.st60{fill:#0093D7;}
	.st61{clip-path:url(#SVGID_19_);fill:url(#SVGID_20_);}
	.st62{clip-path:url(#SVGID_22_);fill:url(#SVGID_23_);}
	.st63{clip-path:url(#SVGID_25_);fill:url(#SVGID_26_);}
	.st64{clip-path:url(#SVGID_28_);fill:url(#SVGID_29_);}
	.st65{clip-path:url(#SVGID_31_);fill:url(#SVGID_32_);}
	.st66{clip-path:url(#SVGID_34_);fill:url(#SVGID_35_);}
	.st67{clip-path:url(#SVGID_37_);fill:url(#SVGID_38_);}
	.st68{clip-path:url(#SVGID_40_);fill:url(#SVGID_41_);}
	.st69{clip-path:url(#SVGID_43_);fill:url(#SVGID_44_);}
	.st70{clip-path:url(#SVGID_68_);}
	.st71{clip-path:url(#SVGID_79_);}
	.st72{fill:#00A9E6;}
	.st73{fill:#4D4D4F;}
	.st74{fill:#898B8D;}
	.st75{fill:#04B3AC;}
	.st76{fill:#A4A2A0;}
	.st77{fill:#D0CFCE;}
	.st78{fill:#74777C;}
	.st79{fill:none;stroke:#ED3024;stroke-width:0.4269;}
	.st80{fill:#A2A4A8;}
	.st81{fill:#3F7BA3;}
	.st82{enable-background:new    ;}
	.st83{fill:#E8B520;}
	.st84{fill:#D27D41;}
	.st85{fill:#0B74BB;}
	.st86{fill:#702784;}
	.st87{fill:#AD2E91;}
	.st88{fill:#ED3694;}
	.st89{fill:#004E9A;}
	.st90{clip-path:url(#SVGID_82_);fill:url(#SVGID_83_);}
	.st91{clip-path:url(#SVGID_85_);fill:url(#SVGID_86_);}
	.st92{clip-path:url(#SVGID_88_);fill:url(#SVGID_89_);}
	.st93{fill:#0898CC;}
	.st94{fill:#12284C;}
	.st95{fill-rule:evenodd;clip-rule:evenodd;fill:#84BE42;}
	.st96{fill-rule:evenodd;clip-rule:evenodd;fill:#C1C0C0;}
	.st97{clip-path:url(#SVGID_91_);fill:#84BE42;}
	.st98{fill:#0066A5;}
	.st99{fill:#F05A22;}
	.st100{clip-path:url(#SVGID_93_);}
	.st101{clip-path:url(#SVGID_95_);fill:#1D1D1B;}
	.st102{clip-path:url(#SVGID_97_);}
	.st103{clip-path:url(#SVGID_99_);fill:#1D1D1B;}
	.st104{clip-path:url(#SVGID_101_);}
	.st105{clip-path:url(#SVGID_103_);fill:#1D1D1B;}
	.st106{clip-path:url(#SVGID_105_);}
	.st107{clip-path:url(#SVGID_107_);fill:#1D1D1B;}
	.st108{clip-path:url(#SVGID_109_);}
	.st109{clip-path:url(#SVGID_111_);fill:#1D1D1B;}
	.st110{clip-path:url(#SVGID_113_);}
	.st111{clip-path:url(#SVGID_115_);fill:#1D1D1B;}
	.st112{clip-path:url(#SVGID_117_);}
	.st113{clip-path:url(#SVGID_119_);fill:#1D9DD9;}
	.st114{clip-path:url(#SVGID_121_);}
	.st115{clip-path:url(#SVGID_123_);fill:#1D1D1B;}
	.st116{clip-path:url(#SVGID_125_);}
	.st117{clip-path:url(#SVGID_127_);fill:#1D9DD9;}
	.st118{clip-path:url(#SVGID_129_);}
	.st119{clip-path:url(#SVGID_131_);fill:#1D1D1B;}
	.st120{clip-path:url(#SVGID_133_);}
	.st121{clip-path:url(#SVGID_135_);fill:#1D9DD9;}
	.st122{clip-path:url(#SVGID_137_);}
	.st123{clip-path:url(#SVGID_139_);fill:#1D1D1B;}
	.st124{clip-path:url(#SVGID_141_);}
	.st125{clip-path:url(#SVGID_143_);fill:#1D9DD9;}
	.st126{clip-path:url(#SVGID_145_);}
	.st127{clip-path:url(#SVGID_147_);fill:#1D1D1B;}
	.st128{fill:#D44432;}
	.st129{fill:#272525;}
	.st130{fill:url(#SVGID_148_);}
	.st131{fill:url(#SVGID_149_);}
	.st132{fill:url(#SVGID_150_);}
	.st133{fill:#002B54;}
	.st134{fill:#B2B1B1;}
	.st135{fill:#E1134F;}
	.st136{fill:#454547;}
	.st137{fill:#00B4D0;}
	.st138{fill:#4564A7;}
	.st139{fill:#0088EE;}
	.st140{fill:#026FC2;}
	.st141{fill:#009FEE;}
	.st142{fill:#00BEEE;}
	.st143{fill:#00AFEE;}
	.st144{fill-rule:evenodd;clip-rule:evenodd;fill:#224099;}
	.st145{clip-path:url(#SVGID_152_);}
	.st146{clip-path:url(#SVGID_156_);}
	.st147{fill:#203260;}
	.st148{fill-rule:evenodd;clip-rule:evenodd;fill:#989A9D;}
	.st149{fill-rule:evenodd;clip-rule:evenodd;fill:#DF068C;}
	.st150{fill:#2E3437;}
	.st151{fill:#989FA4;}
	.st152{fill:#E1DE22;}
	.st153{fill-rule:evenodd;clip-rule:evenodd;fill:#86171D;}
	.st154{fill-rule:evenodd;clip-rule:evenodd;fill:#FFFFFF;}
	.st155{fill:none;stroke:#86171D;stroke-width:6.1349;stroke-miterlimit:10;}
	.st156{fill:#1F1F1F;}
	.st157{fill:#009590;}
	.st158{fill:#ED1651;}
</style>
<g>
	<g>
		<path class="st147" d="M47.3,94.35H22.64c-0.88,0-1.71,0.38-2.29,1.03L1.7,116.48c-0.87,0.99-0.17,2.54,1.15,2.54h24.66
			c0.88,0,1.71-0.38,2.29-1.03l18.65-21.11C49.32,95.9,48.62,94.35,47.3,94.35z M26.98,112.86H12.26l10.9-12.34h14.72L26.98,112.86z
			"/>
		<path class="st147" d="M1.7,128.7l18.49,20.92c0.58,0.66,1.42,1.03,2.29,1.03h24.66c1.32,0,2.02-1.55,1.15-2.54L29.8,127.19
			c-0.58-0.66-1.42-1.03-2.29-1.03H2.84C1.53,126.16,0.82,127.71,1.7,128.7z"/>
		<path class="st147" d="M53.95,101.15l-2.85,3.23c-0.48,0.54-0.51,1.34-0.08,1.92l9.02,12.17H40.57c-0.36,0-0.71,0.13-0.99,0.36
			l-3.1,2.62c-0.71,0.6-0.73,1.7-0.02,2.32l3.12,2.74c0.28,0.25,0.64,0.38,1.01,0.38h19.38l-9.11,11.77
			c-0.45,0.58-0.42,1.4,0.07,1.95l2.85,3.2c0.64,0.72,1.79,0.68,2.37-0.1l15.19-20.31c0.4-0.54,0.41-1.28,0.01-1.82l-15-20.33
			C55.75,100.47,54.59,100.42,53.95,101.15z"/>
	</g>
	<g>
		<path class="st147" d="M116.15,103.53c2.94,0,5.54,0.5,7.82,1.49c2.28,1,4.2,2.32,5.77,3.97c1.57,1.65,2.77,3.54,3.59,5.67
			c0.83,2.13,1.24,4.32,1.24,6.58c0,2.26-0.4,4.45-1.21,6.58s-2,4.02-3.57,5.67c-1.57,1.65-3.5,2.98-5.8,3.97
			c-2.3,1-4.91,1.49-7.85,1.49h-13.01v-35.43H116.15z M111.35,110.62v21.26h4.4c1.65,0,3.13-0.29,4.43-0.89
			c1.3-0.59,2.4-1.38,3.29-2.38c0.89-1,1.58-2.13,2.05-3.39c0.47-1.27,0.71-2.59,0.71-3.97c0-1.35-0.24-2.67-0.71-3.95
			c-0.47-1.28-1.16-2.42-2.05-3.42c-0.89-0.99-1.99-1.79-3.29-2.38c-1.3-0.59-2.78-0.89-4.43-0.89H111.35z"/>
		<path class="st147" d="M137.36,106.47c0-1.38,0.47-2.55,1.42-3.49c0.94-0.94,2.13-1.42,3.54-1.42c0.71,0,1.37,0.13,1.97,0.38
			c0.61,0.25,1.14,0.6,1.59,1.04c0.46,0.44,0.81,0.96,1.06,1.57c0.25,0.61,0.38,1.25,0.38,1.92c0,0.68-0.13,1.31-0.38,1.9
			c-0.25,0.59-0.61,1.11-1.06,1.57c-0.46,0.46-0.99,0.81-1.59,1.06c-0.61,0.25-1.27,0.38-1.97,0.38c-0.71,0-1.36-0.13-1.95-0.38
			c-0.59-0.25-1.11-0.61-1.57-1.06c-0.46-0.46-0.81-0.98-1.06-1.57C137.49,107.77,137.36,107.14,137.36,106.47z M138.48,114.56h7.74
			v24.4h-7.74V114.56z"/>
		<path class="st147" d="M177.4,138.81c0,2.23-0.32,4.07-0.96,5.54c-0.64,1.47-1.6,2.69-2.89,3.67c-1.15,0.88-2.51,1.54-4.1,1.97
			c-1.59,0.44-3.51,0.66-5.77,0.66c-2.29,0-4.21-0.25-5.74-0.76c-1.54-0.51-2.81-1.2-3.82-2.08c-1.08-0.91-1.92-1.97-2.53-3.16
			c-0.61-1.2-0.94-2.47-1.01-3.82h7.74c0.1,1.05,0.6,1.99,1.49,2.83c0.89,0.84,2.18,1.27,3.87,1.27c1.82,0,3.27-0.44,4.35-1.32
			c1.08-0.88,1.62-2.28,1.62-4.2v-4.1c-0.68,1.11-1.69,2.02-3.04,2.73c-1.35,0.71-2.82,1.06-4.4,1.06c-1.76,0-3.37-0.3-4.83-0.91
			c-1.47-0.61-2.73-1.46-3.77-2.56c-1.05-1.1-1.87-2.4-2.45-3.9c-0.59-1.5-0.89-3.16-0.89-4.99c0-1.82,0.28-3.52,0.84-5.09
			c0.56-1.57,1.36-2.92,2.4-4.05c1.05-1.13,2.29-2.02,3.75-2.68c1.45-0.66,3.07-0.99,4.86-0.99c1.55,0,3.03,0.36,4.43,1.09
			c1.4,0.73,2.44,1.73,3.11,3.01v-3.49h7.74V138.81z M163.78,120.54c-0.88,0-1.67,0.17-2.38,0.51c-0.71,0.34-1.32,0.79-1.82,1.37
			c-0.51,0.57-0.89,1.23-1.16,1.97c-0.27,0.74-0.4,1.54-0.4,2.38c0,0.84,0.13,1.65,0.4,2.4c0.27,0.76,0.66,1.42,1.16,1.97
			c0.51,0.56,1.11,1,1.82,1.34c0.71,0.34,1.5,0.51,2.38,0.51c0.88,0,1.68-0.17,2.4-0.51c0.73-0.34,1.34-0.78,1.85-1.34
			c0.51-0.56,0.9-1.21,1.19-1.97c0.29-0.76,0.43-1.56,0.43-2.4c0-0.84-0.14-1.64-0.43-2.38c-0.29-0.74-0.68-1.4-1.19-1.97
			c-0.51-0.57-1.12-1.03-1.85-1.37C165.46,120.71,164.66,120.54,163.78,120.54z"/>
		<path class="st147" d="M180.69,106.47c0-1.38,0.47-2.55,1.42-3.49c0.94-0.94,2.13-1.42,3.54-1.42c0.71,0,1.37,0.13,1.97,0.38
			c0.61,0.25,1.14,0.6,1.59,1.04c0.46,0.44,0.81,0.96,1.06,1.57c0.25,0.61,0.38,1.25,0.38,1.92c0,0.68-0.13,1.31-0.38,1.9
			c-0.25,0.59-0.61,1.11-1.06,1.57c-0.46,0.46-0.99,0.81-1.59,1.06c-0.61,0.25-1.27,0.38-1.97,0.38s-1.36-0.13-1.95-0.38
			c-0.59-0.25-1.11-0.61-1.57-1.06c-0.46-0.46-0.81-0.98-1.06-1.57C180.82,107.77,180.69,107.14,180.69,106.47z M181.8,114.56h7.74
			v24.4h-7.74V114.56z"/>
		<path class="st147" d="M210.35,138.96c-0.57,0.1-1.29,0.19-2.15,0.28c-0.86,0.08-1.87,0.13-3.01,0.13c-0.91,0-1.87-0.07-2.89-0.2
			c-1.01-0.14-1.95-0.48-2.81-1.04c-0.86-0.56-1.57-1.42-2.13-2.58c-0.56-1.16-0.83-2.76-0.83-4.78v-10.43h-3.85v-5.77h3.85v-7.24
			h7.69v7.24h5.57v5.77h-5.57v8.69c0,0.91,0.08,1.63,0.25,2.17c0.17,0.54,0.4,0.95,0.71,1.24c0.3,0.29,0.66,0.48,1.06,0.58
			c0.4,0.1,0.84,0.15,1.32,0.15c0.47,0,0.96,0,1.47,0c0.51,0,0.94-0.04,1.32-0.13V138.96z"/>
		<path class="st147" d="M240.67,114.56v24.4h-7.74v-3.44c-0.3,0.57-0.71,1.11-1.21,1.59c-0.51,0.49-1.09,0.91-1.75,1.27
			c-0.66,0.35-1.38,0.64-2.15,0.86c-0.78,0.22-1.55,0.33-2.33,0.33c-1.76,0-3.37-0.33-4.83-0.99c-1.47-0.66-2.73-1.55-3.77-2.68
			c-1.05-1.13-1.86-2.48-2.43-4.05c-0.57-1.57-0.86-3.26-0.86-5.09c0-1.82,0.29-3.52,0.86-5.09c0.57-1.57,1.38-2.92,2.43-4.05
			c1.05-1.13,2.3-2.02,3.77-2.68c1.47-0.66,3.08-0.99,4.83-0.99c0.78,0,1.55,0.11,2.33,0.33c0.78,0.22,1.49,0.51,2.15,0.89
			c0.66,0.37,1.24,0.81,1.75,1.32c0.51,0.51,0.91,1.03,1.21,1.57v-3.49H240.67z M227.1,132.99c0.88,0,1.67-0.17,2.38-0.51
			c0.71-0.34,1.32-0.78,1.82-1.34c0.51-0.56,0.9-1.21,1.19-1.97c0.29-0.76,0.43-1.56,0.43-2.4c0-0.84-0.14-1.64-0.43-2.38
			c-0.29-0.74-0.68-1.4-1.19-1.97c-0.51-0.57-1.11-1.03-1.82-1.37c-0.71-0.34-1.5-0.51-2.38-0.51c-0.88,0-1.67,0.17-2.38,0.51
			c-0.71,0.34-1.32,0.79-1.82,1.37c-0.51,0.57-0.9,1.23-1.19,1.97c-0.29,0.74-0.43,1.54-0.43,2.38c0,0.84,0.14,1.65,0.43,2.4
			c0.29,0.76,0.68,1.42,1.19,1.97c0.51,0.56,1.11,1,1.82,1.34C225.43,132.82,226.23,132.99,227.1,132.99z"/>
		<path class="st147" d="M244.21,103.53h7.74v35.43h-7.74V103.53z"/>
		<path class="st147" d="M291.99,138.96l-1.37-4.3h-12.6l-1.37,4.3h-8.76l12.65-35.43h7.54l12.81,35.43H291.99z M284.35,113.65
			L280,128.23h8.6L284.35,113.65z"/>
		<path class="st147" d="M316.69,124.59c1.08,0.3,2.09,0.63,3.04,0.99c0.94,0.35,1.77,0.79,2.48,1.32c0.71,0.52,1.27,1.17,1.7,1.95
			c0.42,0.78,0.63,1.75,0.63,2.94c0,1.45-0.29,2.67-0.86,3.67c-0.57,1-1.37,1.81-2.38,2.43c-1.01,0.62-2.19,1.07-3.52,1.34
			c-1.33,0.27-2.76,0.4-4.28,0.4c-3.48,0-6.22-0.76-8.23-2.28c-2.01-1.52-3.01-3.7-3.01-6.53h7.59c0,1.28,0.36,2.2,1.09,2.76
			c0.73,0.56,1.66,0.84,2.81,0.84c0.94,0,1.71-0.18,2.3-0.53c0.59-0.35,0.89-0.94,0.89-1.75c0-0.47-0.13-0.85-0.38-1.14
			c-0.25-0.29-0.64-0.56-1.16-0.81c-0.52-0.25-1.2-0.51-2.02-0.76c-0.83-0.25-1.81-0.56-2.96-0.94c-1.01-0.3-1.97-0.63-2.89-0.99
			c-0.91-0.35-1.71-0.78-2.4-1.29c-0.69-0.51-1.24-1.15-1.65-1.92c-0.4-0.78-0.61-1.75-0.61-2.94c0-2.53,0.97-4.4,2.91-5.62
			c1.94-1.21,4.56-1.82,7.87-1.82c1.75,0,3.3,0.21,4.63,0.63c1.33,0.42,2.43,1,3.29,1.75c0.86,0.74,1.51,1.62,1.95,2.63
			c0.44,1.01,0.66,2.09,0.66,3.24h-7.64c0-1.01-0.26-1.8-0.78-2.35s-1.32-0.83-2.4-0.83c-0.78,0-1.45,0.18-2.02,0.53
			c-0.57,0.35-0.86,0.9-0.86,1.65c0,0.44,0.13,0.8,0.4,1.09c0.27,0.29,0.67,0.55,1.19,0.78c0.52,0.24,1.17,0.47,1.95,0.71
			C314.78,123.96,315.68,124.25,316.69,124.59z"/>
		<path class="st147" d="M342.51,124.59c1.08,0.3,2.09,0.63,3.04,0.99c0.94,0.35,1.77,0.79,2.48,1.32c0.71,0.52,1.27,1.17,1.7,1.95
			c0.42,0.78,0.63,1.75,0.63,2.94c0,1.45-0.29,2.67-0.86,3.67c-0.57,1-1.37,1.81-2.38,2.43c-1.01,0.62-2.19,1.07-3.52,1.34
			c-1.33,0.27-2.76,0.4-4.28,0.4c-3.48,0-6.22-0.76-8.23-2.28c-2.01-1.52-3.01-3.7-3.01-6.53h7.59c0,1.28,0.36,2.2,1.09,2.76
			c0.73,0.56,1.66,0.84,2.81,0.84c0.94,0,1.71-0.18,2.3-0.53s0.89-0.94,0.89-1.75c0-0.47-0.13-0.85-0.38-1.14
			c-0.25-0.29-0.64-0.56-1.16-0.81c-0.52-0.25-1.2-0.51-2.02-0.76c-0.83-0.25-1.81-0.56-2.96-0.94c-1.01-0.3-1.97-0.63-2.89-0.99
			c-0.91-0.35-1.71-0.78-2.4-1.29c-0.69-0.51-1.24-1.15-1.65-1.92c-0.4-0.78-0.61-1.75-0.61-2.94c0-2.53,0.97-4.4,2.91-5.62
			c1.94-1.21,4.56-1.82,7.87-1.82c1.75,0,3.3,0.21,4.63,0.63c1.33,0.42,2.43,1,3.29,1.75c0.86,0.74,1.51,1.62,1.95,2.63
			c0.44,1.01,0.66,2.09,0.66,3.24h-7.64c0-1.01-0.26-1.8-0.78-2.35s-1.32-0.83-2.4-0.83c-0.78,0-1.45,0.18-2.02,0.53
			c-0.57,0.35-0.86,0.9-0.86,1.65c0,0.44,0.13,0.8,0.4,1.09c0.27,0.29,0.67,0.55,1.19,0.78c0.52,0.24,1.17,0.47,1.95,0.71
			C340.6,123.96,341.49,124.25,342.51,124.59z"/>
		<path class="st147" d="M360.63,128.64c0.03,0.74,0.14,1.44,0.33,2.1c0.18,0.66,0.49,1.23,0.91,1.72c0.42,0.49,0.97,0.88,1.65,1.16
			c0.67,0.29,1.52,0.43,2.53,0.43c1.35,0,2.37-0.27,3.06-0.81c0.69-0.54,1.17-1.2,1.44-1.97h7.59c-0.17,1.15-0.57,2.23-1.19,3.24
			c-0.62,1.01-1.45,1.9-2.48,2.66c-1.03,0.76-2.24,1.36-3.64,1.8c-1.4,0.44-2.98,0.66-4.73,0.66c-2.13,0-4.01-0.31-5.64-0.94
			c-1.64-0.62-3.01-1.51-4.12-2.66c-1.11-1.15-1.96-2.51-2.53-4.07c-0.57-1.57-0.86-3.3-0.86-5.19c0-1.79,0.28-3.46,0.83-5.01
			c0.56-1.55,1.38-2.91,2.48-4.07c1.1-1.16,2.45-2.08,4.05-2.76c1.6-0.67,3.47-1.01,5.59-1.01c1.92,0,3.65,0.3,5.19,0.91
			c1.54,0.61,2.85,1.42,3.95,2.43c1.1,1.01,1.94,2.19,2.53,3.54c0.59,1.35,0.89,2.77,0.89,4.25c0,0.51-0.01,1.05-0.03,1.62
			c-0.02,0.57-0.09,1.23-0.23,1.97H360.63z M365.84,119.07c-1.52,0-2.77,0.44-3.75,1.32c-0.98,0.88-1.47,2.14-1.47,3.8h10.22
			c0-1.59-0.46-2.83-1.39-3.75C368.53,119.53,367.32,119.07,365.84,119.07z"/>
		<path class="st147" d="M398.69,138.96c-0.57,0.1-1.29,0.19-2.15,0.28c-0.86,0.08-1.87,0.13-3.01,0.13c-0.91,0-1.87-0.07-2.89-0.2
			c-1.01-0.14-1.95-0.48-2.81-1.04c-0.86-0.56-1.57-1.42-2.13-2.58c-0.56-1.16-0.83-2.76-0.83-4.78v-10.43h-3.85v-5.77h3.85v-7.24
			h7.69v7.24h5.57v5.77h-5.57v8.69c0,0.91,0.08,1.63,0.25,2.17c0.17,0.54,0.4,0.95,0.71,1.24c0.3,0.29,0.66,0.48,1.06,0.58
			c0.4,0.1,0.84,0.15,1.32,0.15c0.47,0,0.96,0,1.47,0c0.51,0,0.94-0.04,1.32-0.13V138.96z"/>
	</g>
</g>
</svg>
