<svg xmlns="http://www.w3.org/2000/svg" viewBox="0 0 348.333 304.966"><defs><style>.a{fill:#2564bf;}.b{fill:#323242;}</style></defs><path class="a" d="M65.366,31.39h7.5a10.993,10.993,0,0,1,0,21.985h-7.5Zm7.5,17.1a6.11,6.11,0,0,0,0-12.214H70.427V48.489Z"/><path class="a" d="M89.27,30.343a2.617,2.617,0,1,1-2.617,2.617A2.684,2.684,0,0,1,89.27,30.343Zm2.269,23.032H86.827V37.322h4.712Z"/><path class="a" d="M106.544,38.892l.7-1.57h3.49V51.978c0,4.189-3.14,7.329-8.026,7.329A7.829,7.829,0,0,1,95.2,53.9l4.711-.349a3,3,0,0,0,2.792,1.57,3.171,3.171,0,0,0,3.315-3.141v-.872a5.4,5.4,0,0,1-4.013,1.4,7.454,7.454,0,0,1-7.328-7.677,7.454,7.454,0,0,1,7.328-7.677A6.848,6.848,0,0,1,106.544,38.892Zm-3.839,9.248a3.315,3.315,0,1,0-3.315-3.315A3.208,3.208,0,0,0,102.705,48.14Z"/><path class="a" d="M116.838,30.343a2.617,2.617,0,1,1-2.617,2.617A2.684,2.684,0,0,1,116.838,30.343Zm2.268,23.032H114.4V37.322h4.711Z"/><path class="a" d="M124.34,41.684H121.9V37.671h1.221a1.746,1.746,0,0,0,1.92-1.919V33.484h4.013v3.838h3.315v4.362h-3.315v5.235a2.066,2.066,0,0,0,2.094,2.268,4.244,4.244,0,0,0,1.221-.175V53.2a7.161,7.161,0,0,1-2.268.349c-3.664,0-5.758-2.094-5.758-5.932Z"/><path class="a" d="M148.942,43.6v9.771h-3.489l-.7-1.571a7.6,7.6,0,0,1-4.711,1.745c-3.49,0-5.409-1.919-5.409-4.537,0-3.14,2.268-5.408,9.6-5.408,0-1.571-.872-2.443-2.093-2.443a2.1,2.1,0,0,0-2.094,1.57l-4.711-.349c.523-3.141,2.791-5.409,6.979-5.409A6.417,6.417,0,0,1,148.942,43.6Zm-4.711,3.489v-.7c-4.012,0-4.885.873-4.885,2.094,0,.872.7,1.57,1.92,1.57A2.839,2.839,0,0,0,144.231,47.093Z"/><path class="a" d="M156.968,53.375h-4.711V31.39h4.711Z"/><path class="a" d="M173.892,53.375h-5.061V31.39h5.061Z"/><path class="a" d="M177.032,45.348c0-4.711,3.489-8.2,7.5-8.2a6.462,6.462,0,0,1,4.013,1.4V31.39h4.712V53.375h-3.49l-.7-1.571a6.842,6.842,0,0,1-4.536,1.745C180.521,53.549,177.032,50.059,177.032,45.348Zm8.2,3.839a3.591,3.591,0,0,0,3.49-3.839,3.506,3.506,0,1,0-6.98,0A3.591,3.591,0,0,0,185.233,49.187Z"/><path class="a" d="M211.579,48.664a7.478,7.478,0,0,1-7.5,5.059,8.38,8.38,0,0,1,.175-16.75c4.361,0,7.852,3.315,7.852,8.375a9.612,9.612,0,0,1-.175,1.571H200.936a3.446,3.446,0,0,0,3.315,2.442,2.915,2.915,0,0,0,2.442-1.047Zm-10.643-4.712h6.629a3.407,3.407,0,0,0-6.629,0Z"/><path class="a" d="M230.074,43.952v9.423h-4.711v-8.55c0-2.094-1.221-3.315-2.967-3.315s-2.965,1.221-2.965,3.315v8.55H214.72V37.322h3.489l.7,1.57a7.6,7.6,0,0,1,4.711-1.744C227.457,37.148,230.074,39.765,230.074,43.952Z"/><path class="a" d="M234.784,41.684h-2.442V37.671h1.22a1.746,1.746,0,0,0,1.92-1.919V33.484H239.5v3.838h3.316v4.362H239.5v5.235a2.066,2.066,0,0,0,2.094,2.268,4.255,4.255,0,0,0,1.222-.175V53.2a7.172,7.172,0,0,1-2.269.349c-3.664,0-5.758-2.094-5.758-5.932Z"/><path class="a" d="M248.742,30.343a2.617,2.617,0,1,1-2.617,2.617A2.683,2.683,0,0,1,248.742,30.343Zm2.269,23.032H246.3V37.322h4.712Z"/><path class="a" d="M256.245,41.684H253.8V37.671h1.22a1.746,1.746,0,0,0,1.92-1.919V33.484h4.013v3.838h3.315v4.362h-3.315v5.235a2.066,2.066,0,0,0,2.094,2.268,4.244,4.244,0,0,0,1.221-.175V53.2a7.161,7.161,0,0,1-2.268.349c-3.664,0-5.758-2.094-5.758-5.932Z"/><path class="a" d="M265.667,37.322h5.06l3.49,9.946,3.489-9.946h5.061l-6.456,16.053c-1.606,4.012-3.316,5.758-6.282,5.758a9.609,9.609,0,0,1-1.57-.175V54.945a3.127,3.127,0,0,0,3.315-2.269Z"/><path class="b" d="M70.666,67.759H73.6V77.68h5.771v2.835H70.666Z"/><path class="b" d="M93.452,78.085l-.811,2.43H89.6l4.557-12.756H97.2l4.555,12.756H98.716l-.81-2.43ZM97.1,75.554,95.679,71.3l-1.418,4.252Z"/><path class="b" d="M122.92,76.769a3.907,3.907,0,0,1-4.151,3.746H113V67.759h5.466a3.693,3.693,0,0,1,3.95,3.543,2.786,2.786,0,0,1-1.52,2.429A3.38,3.38,0,0,1,122.92,76.769Zm-6.985-3.949h2.227a1.32,1.32,0,1,0,0-2.632h-2.227Zm2.53,5.265a1.522,1.522,0,1,0,0-3.037h-2.53v3.037Z"/><path class="b" d="M140.544,80.616a6.483,6.483,0,1,1,6.277-6.479A6.355,6.355,0,0,1,140.544,80.616Zm0-10.124a3.658,3.658,0,1,0,3.341,3.645A3.447,3.447,0,0,0,140.544,70.492Z"/><path class="b" d="M163.938,67.759a4.138,4.138,0,0,1,2.025,7.9l2.835,4.86h-3.24l-2.328-4.252h-1.519v4.252h-2.936V67.759Zm0,5.669a1.43,1.43,0,1,0,0-2.835h-2.227v2.835Z"/><path class="b" d="M182.979,78.085l-.811,2.43h-3.037l4.557-12.756h3.037l4.556,12.756h-3.037l-.811-2.43Zm3.645-2.531L185.207,71.3l-1.418,4.252Z"/><path class="b" d="M207.285,80.515h-2.936V70.593H200.7V67.759h10.225v2.834h-3.644Z"/><path class="b" d="M227.743,80.616a6.483,6.483,0,1,1,6.276-6.479A6.355,6.355,0,0,1,227.743,80.616Zm0-10.124a3.658,3.658,0,1,0,3.34,3.645A3.447,3.447,0,0,0,227.743,70.492Z"/><path class="b" d="M251.137,67.759a4.139,4.139,0,0,1,2.026,7.9L256,80.515h-3.241l-2.328-4.252h-1.518v4.252h-2.937V67.759Zm0,5.669a1.43,1.43,0,1,0,0-2.835h-2.226v2.835Z"/><path class="b" d="M270.279,75.757l-4.252-8h3.139l2.591,5.061,2.572-5.061h3.138l-4.252,8v4.758h-2.936Z"/><path class="b" d="M185.722,130.912a2.088,2.088,0,1,1,2.9.533,2.09,2.09,0,0,1-2.9-.533"/><path class="b" d="M165.054,145.163a2.088,2.088,0,1,1,2.905.534,2.087,2.087,0,0,1-2.905-.534"/><path class="b" d="M183.048,145.467a2.088,2.088,0,1,1-.534,2.9,2.086,2.086,0,0,1,.534-2.9"/><path class="b" d="M168.8,124.8a2.088,2.088,0,1,1-.534,2.9,2.087,2.087,0,0,1,.534-2.9"/><path class="b" d="M187.4,138.743a2.089,2.089,0,1,1,1.676,2.431,2.088,2.088,0,0,1-1.676-2.431"/><path class="b" d="M162.707,134.206a2.089,2.089,0,1,1,1.677,2.431,2.09,2.09,0,0,1-1.677-2.431"/><path class="b" d="M175.217,147.144a2.088,2.088,0,1,1-2.432,1.676,2.087,2.087,0,0,1,2.432-1.676"/><path class="b" d="M179.754,122.452a2.088,2.088,0,1,1-2.432,1.676,2.087,2.087,0,0,1,2.432-1.676"/><path class="b" d="M181.483,115.26l-.083-.017a5.729,5.729,0,0,1-2.068-10.382,5.81,5.81,0,0,1,4.3-.856,5.729,5.729,0,0,1-2.15,11.255m1.665-9.087a3.508,3.508,0,0,0-1.315,6.891,3.415,3.415,0,0,0,2.633-.524,3.508,3.508,0,0,0-1.266-6.356l-.052-.011"/><path class="b" d="M203.3,147.9l-.081-.015a5.73,5.73,0,0,1,2.152-11.255c.025,0,.053.011.08.016A5.729,5.729,0,0,1,203.3,147.9m1.669-9.086a3.47,3.47,0,1,0,.05.009l-.05-.009"/><path class="b" d="M148.846,137.079l-.082-.016a5.673,5.673,0,1,1,.082.016m1.665-9.087a3.683,3.683,0,1,0,.052.011l-.052-.011m-5.162,2.551.008,0Z"/><path class="b" d="M199.152,127.059l-.083-.016a5.729,5.729,0,0,1,2.149-11.255l.083.016a5.729,5.729,0,0,1-2.149,11.255m1.666-9.086a3.508,3.508,0,0,0-1.315,6.891l.05.01a3.508,3.508,0,0,0,1.316-6.892Z"/><path class="b" d="M153,157.915l-.083-.015a5.877,5.877,0,1,1,.083.015m1.668-9.085a3.508,3.508,0,0,0-3.55,5.4h0a3.479,3.479,0,0,0,2.232,1.491l.051.01a3.508,3.508,0,0,0,1.315-6.892Z"/><path class="b" d="M191.5,165.563a5.729,5.729,0,0,1-2.15-10.4,5.631,5.631,0,0,1,4.3-.856,5.728,5.728,0,0,1-2.15,11.252m1.667-9.084a3.482,3.482,0,0,0-2.581.535h0a3.506,3.506,0,1,0,2.634-.525Zm-3.2-.389h0Z"/><path class="b" d="M160.645,119.407a5.728,5.728,0,0,1,2.068-11.268c.027.005.055.01.083.017a5.728,5.728,0,0,1-2.151,11.251m1.667-9.083a3.422,3.422,0,1,0,.05.009Z"/><path class="a" d="M190.432,171.146h-.01a1.42,1.42,0,0,0-1.416,1.408l-.114,17.856L168.081,175.3a1.4,1.4,0,0,0-1.149-.236l-25.019,5.723,7.21-16.468a1.417,1.417,0,0,0-2.6-1.137l-8.339,19.046a1.412,1.412,0,0,0,.206,1.473,1.427,1.427,0,0,0,.808.483,1.38,1.38,0,0,0,.6-.007l27.135-6.207,22.523,16.355a1.415,1.415,0,0,0,.831.271,1.436,1.436,0,0,0,.642-.153,1.412,1.412,0,0,0,.778-1.257l.132-20.613A1.424,1.424,0,0,0,190.432,171.146Z"/><path class="a" d="M20.911,265.6c0-4.711,3.489-8.2,7.5-8.2a6.461,6.461,0,0,1,4.012,1.4v-7.154h4.712V273.63h-3.49l-.7-1.571a6.843,6.843,0,0,1-4.536,1.746C24.4,273.805,20.911,270.314,20.911,265.6Zm8.2,3.839a3.856,3.856,0,1,0-3.49-3.839A3.59,3.59,0,0,0,29.112,269.442Z"/><path class="a" d="M45.164,253.389a6.931,6.931,0,0,1-3.49,6.108l-.873-1.222a4.271,4.271,0,0,0,1.745-2.442,2.618,2.618,0,0,1,0-5.235A2.723,2.723,0,0,1,45.164,253.389Z"/><path class="a" d="M50.921,250.6a2.618,2.618,0,1,1-2.617,2.618A2.684,2.684,0,0,1,50.921,250.6ZM53.19,273.63H48.478V257.577H53.19Z"/><path class="a" d="M56.33,265.6c0-4.711,3.489-8.2,7.5-8.2a6.462,6.462,0,0,1,4.013,1.4v-7.154h4.712V273.63h-3.49l-.7-1.571a6.844,6.844,0,0,1-4.537,1.746C59.819,273.805,56.33,270.314,56.33,265.6Zm8.2,3.839A3.856,3.856,0,1,0,61.04,265.6,3.59,3.59,0,0,0,64.531,269.442Z"/><path class="a" d="M90.877,268.919a7.478,7.478,0,0,1-7.5,5.06,8.38,8.38,0,0,1,.175-16.751c4.362,0,7.852,3.316,7.852,8.375a9.612,9.612,0,0,1-.175,1.571H80.234a3.446,3.446,0,0,0,3.315,2.443,2.918,2.918,0,0,0,2.443-1.047Zm-10.643-4.711h6.63a3.408,3.408,0,0,0-6.63,0Z"/><path class="a" d="M109.372,264.208v9.422h-4.711v-8.55c0-2.094-1.222-3.315-2.967-3.315s-2.966,1.221-2.966,3.315v8.55H94.017V257.577h3.489l.7,1.57a7.593,7.593,0,0,1,4.71-1.744C106.754,257.4,109.372,260.02,109.372,264.208Z"/><path class="a" d="M114.081,261.939h-2.442v-4.012h1.221a1.747,1.747,0,0,0,1.92-1.92v-2.268h4.012v3.838h3.316v4.362h-3.316v5.235a2.066,2.066,0,0,0,2.094,2.268,4.255,4.255,0,0,0,1.222-.175v4.189a7.172,7.172,0,0,1-2.269.349c-3.664,0-5.758-2.094-5.758-5.933Z"/><path class="a" d="M128.04,250.6a2.618,2.618,0,1,1-2.617,2.618A2.684,2.684,0,0,1,128.04,250.6Zm2.269,23.032H125.6V257.577h4.712Z"/><path class="a" d="M135.542,261.939H133.1v-4.012h1.221a1.747,1.747,0,0,0,1.92-1.92v-2.268h4.012v3.838h3.316v4.362h-3.316v5.235a2.066,2.066,0,0,0,2.094,2.268,4.255,4.255,0,0,0,1.222-.175v4.189a7.172,7.172,0,0,1-2.269.349c-3.664,0-5.758-2.094-5.758-5.933Z"/><path class="a" d="M161.366,268.919a7.479,7.479,0,0,1-7.5,5.06,8.38,8.38,0,0,1,.175-16.751c4.361,0,7.851,3.316,7.851,8.375a9.612,9.612,0,0,1-.175,1.571H150.722a3.448,3.448,0,0,0,3.316,2.443,2.915,2.915,0,0,0,2.442-1.047Zm-10.644-4.711h6.63a3.408,3.408,0,0,0-6.63,0Zm3.489-13.261h4.711l-3.314,4.536h-3.664Z"/><path class="a" d="M187.887,264.208v9.422h-4.711v-8.55c0-2.094-1.221-3.315-2.967-3.315s-2.965,1.221-2.965,3.315v8.55h-4.711V257.577h3.489l.7,1.57a7.6,7.6,0,0,1,4.711-1.744C185.27,257.4,187.887,260.02,187.887,264.208Z"/><path class="a" d="M191.027,267v-9.423h4.711v8.55c0,2.094,1.221,3.315,2.967,3.315s2.965-1.221,2.965-3.315v-8.55h4.711V273.63h-3.489l-.7-1.571a7.593,7.593,0,0,1-4.711,1.746C193.644,273.805,191.027,271.187,191.027,267Z"/><path class="a" d="M222.608,259.5a7.014,7.014,0,0,1,4.711-2.094c3.489,0,5.758,2.268,5.758,6.63v9.6h-4.711v-9.074c0-1.744-1.047-2.791-2.269-2.791s-2.268,1.047-2.268,2.791v9.074h-4.711v-9.074c0-1.744-1.047-2.791-2.268-2.791s-2.269,1.047-2.269,2.791v9.074h-4.71V257.577h3.489l.7,1.57a5.831,5.831,0,0,1,4.013-1.744A5.154,5.154,0,0,1,222.608,259.5Z"/><path class="a" d="M251.222,268.919a7.478,7.478,0,0,1-7.5,5.06,8.38,8.38,0,0,1,.175-16.751c4.361,0,7.852,3.316,7.852,8.375a9.612,9.612,0,0,1-.175,1.571H240.579a3.446,3.446,0,0,0,3.315,2.443,2.915,2.915,0,0,0,2.442-1.047Zm-10.643-4.711h6.629a3.407,3.407,0,0,0-6.629,0Zm3.489-13.261h4.711l-3.315,4.536H241.8Z"/><path class="a" d="M263.785,257.577v4.886a4.242,4.242,0,0,0-1.746-.349c-1.744,0-2.965,1.222-2.965,3.316v8.2h-4.711V257.577h3.489l.7,1.745a5.073,5.073,0,0,1,3.839-1.919A4.846,4.846,0,0,1,263.785,257.577Z"/><path class="a" d="M268.844,250.6a2.618,2.618,0,1,1-2.617,2.618A2.683,2.683,0,0,1,268.844,250.6Zm2.269,23.032H266.4V257.577h4.712Z"/><path class="a" d="M286.292,259.147l.7-1.57h3.49v21.637h-4.712v-6.805a6.462,6.462,0,0,1-4.013,1.4c-4.013,0-7.5-3.491-7.5-8.2s3.49-8.2,7.5-8.2A6.844,6.844,0,0,1,286.292,259.147Zm-3.837,10.3a3.856,3.856,0,1,0-3.491-3.839A3.591,3.591,0,0,0,282.455,269.442Z"/><path class="a" d="M293.794,267v-9.423h4.711v8.55c0,2.094,1.222,3.315,2.967,3.315s2.966-1.221,2.966-3.315v-8.55h4.711V273.63H305.66l-.7-1.571a7.593,7.593,0,0,1-4.711,1.746C296.412,273.805,293.794,271.187,293.794,267Z"/><path class="a" d="M327.469,268.919a7.478,7.478,0,0,1-7.5,5.06,8.38,8.38,0,0,1,.175-16.751c4.361,0,7.852,3.316,7.852,8.375a9.612,9.612,0,0,1-.175,1.571H316.826a3.446,3.446,0,0,0,3.315,2.443,2.915,2.915,0,0,0,2.442-1.047Zm-10.643-4.711h6.629a3.407,3.407,0,0,0-6.629,0Z"/><path class="b" d="M63.556,230.992h2.938v9.921h5.769v2.835H63.556Z"/><path class="b" d="M86.343,241.318l-.81,2.43H82.5l4.556-12.756h3.037l4.555,12.756H91.607l-.811-2.43Zm3.645-2.531-1.418-4.252-1.418,4.252Z"/><path class="b" d="M115.812,240a3.908,3.908,0,0,1-4.152,3.746h-5.77V230.992h5.467a3.693,3.693,0,0,1,3.949,3.543,2.787,2.787,0,0,1-1.519,2.43A3.378,3.378,0,0,1,115.812,240Zm-6.986-3.948h2.226a1.32,1.32,0,1,0,0-2.632h-2.226Zm2.531,5.264a1.522,1.522,0,1,0,0-3.037h-2.531v3.037Z"/><path class="b" d="M133.435,243.849a6.483,6.483,0,1,1,6.277-6.479A6.355,6.355,0,0,1,133.435,243.849Zm0-10.124a3.658,3.658,0,1,0,3.342,3.645A3.447,3.447,0,0,0,133.435,233.725Z"/><path class="b" d="M156.83,230.992a4.139,4.139,0,0,1,2.025,7.9l2.834,4.859h-3.24l-2.328-4.252H154.6v4.252h-2.938V230.992Zm0,5.669a1.43,1.43,0,1,0,0-2.834H154.6v2.834Z"/><path class="b" d="M175.871,241.318l-.811,2.43h-3.037l4.557-12.756h3.037l4.554,12.756h-3.037l-.81-2.43Zm3.644-2.531-1.418-4.252-1.418,4.252Z"/><path class="b" d="M200.175,243.748H197.24v-9.921H193.6v-2.835H203.82v2.835h-3.645Z"/><path class="b" d="M220.634,243.849a6.483,6.483,0,1,1,6.276-6.479A6.354,6.354,0,0,1,220.634,243.849Zm0-10.124a3.658,3.658,0,1,0,3.34,3.645A3.448,3.448,0,0,0,220.634,233.725Z"/><path class="b" d="M241.8,243.748h-2.937V230.992H241.8Z"/><path class="b" d="M259.523,230.992a4.139,4.139,0,0,1,2.025,7.9l2.836,4.859h-3.24l-2.328-4.252H257.3v4.252h-2.935V230.992Zm0,5.669a1.43,1.43,0,1,0,0-2.834H257.3v2.834Z"/><path class="b" d="M276.033,230.992h9.113v2.835H278.97v2.024h5.668v2.835H278.97v2.227h6.377v2.835h-9.314Z"/></svg>