<?xml version="1.0" encoding="utf-8"?>
<!-- Generator: Adobe Illustrator 23.0.3, SVG Export Plug-In . SVG Version: 6.00 Build 0)  -->
<svg version="1.1" id="Layer_1" xmlns="http://www.w3.org/2000/svg" xmlns:xlink="http://www.w3.org/1999/xlink" x="0px" y="0px"
	 viewBox="0 0 1000 302.52" style="enable-background:new 0 0 1000 302.52;" xml:space="preserve">
<style type="text/css">
	.st0{fill:#1DCAD3;}
	.st1{fill:#36B0C9;}
	.st2{fill:#231F20;}
	.st3{fill:#FFFFFF;}
	.st4{fill:#9164CC;}
	.st5{clip-path:url(#SVGID_2_);fill:url(#SVGID_3_);}
	.st6{fill:#201747;}
	.st7{fill-rule:evenodd;clip-rule:evenodd;fill:#10CFC9;}
	.st8{clip-path:url(#SVGID_5_);fill:#231F20;}
	.st9{fill-rule:evenodd;clip-rule:evenodd;fill:#231F20;}
	.st10{clip-path:url(#SVGID_7_);fill:#FFFFFF;}
	.st11{fill-rule:evenodd;clip-rule:evenodd;fill:#FFFFFF;}
	.st12{fill:#8CCEAF;}
	.st13{fill:#008476;}
	.st14{fill:#25BCBD;}
	.st15{fill:#004D70;}
	.st16{fill:#20BBBB;}
	.st17{fill:#024D70;}
	.st18{fill-rule:evenodd;clip-rule:evenodd;fill:#F58B1F;}
	.st19{fill-rule:evenodd;clip-rule:evenodd;fill:#18335B;}
	.st20{clip-path:url(#SVGID_9_);}
	.st21{clip-path:url(#SVGID_11_);}
	.st22{fill:#18335B;}
	.st23{fill:#F58B1F;}
	.st24{clip-path:url(#SVGID_15_);}
	.st25{clip-path:url(#SVGID_17_);}
	.st26{clip-path:url(#SVGID_21_);}
	.st27{clip-path:url(#SVGID_23_);}
	.st28{clip-path:url(#SVGID_27_);}
	.st29{clip-path:url(#SVGID_29_);}
	.st30{clip-path:url(#SVGID_33_);}
	.st31{clip-path:url(#SVGID_35_);}
	.st32{clip-path:url(#SVGID_39_);}
	.st33{clip-path:url(#SVGID_41_);}
	.st34{fill:#416BA9;}
	.st35{fill:#73C3D5;}
	.st36{opacity:0.8;}
	.st37{fill:#3A3A3A;}
	.st38{fill:url(#SVGID_44_);}
	.st39{fill:none;stroke:#000000;stroke-width:6.3384;}
	.st40{fill:none;stroke:#000000;stroke-width:3.1692;}
	.st41{fill:#48494B;}
	.st42{fill:#C1986C;}
	.st43{fill:url(#SVGID_63_);}
	.st44{fill:url(#SVGID_64_);}
	.st45{fill:url(#SVGID_65_);}
	.st46{fill:url(#SVGID_66_);}
	.st47{fill:url(#SVGID_67_);}
	.st48{fill:#4D4E4E;}
	.st49{fill:#27B373;}
	.st50{fill:#5DC4CD;}
	.st51{fill:#1E8756;}
	.st52{fill:#3D1152;}
	.st53{fill:#922C48;}
	.st54{fill-rule:evenodd;clip-rule:evenodd;fill:#922C48;}
	.st55{fill:#404041;}
	.st56{fill:#EC1C24;}
	.st57{fill:#373A36;}
	.st58{fill:#808184;}
	.st59{fill:#262261;}
	.st60{fill:#6FCBDC;}
	.st61{fill:#2F3436;}
	.st62{fill:#5F97D0;}
	.st63{fill:#132428;}
	.st64{fill:#85C041;}
	.st65{fill:#677784;}
	.st66{fill:url(#SVGID_68_);}
	.st67{opacity:0.2;clip-path:url(#SVGID_70_);}
	.st68{fill:#FFFEFA;}
	.st69{opacity:0.1;}
	.st70{fill:url(#SVGID_71_);}
	.st71{opacity:0.3;}
	.st72{opacity:0.08;}
	.st73{opacity:0.1;fill:url(#Wordmark_1_);}
	.st74{fill:url(#SVGID_104_);}
	.st75{opacity:0.6;fill:url(#SVGID_107_);}
	.st76{opacity:0.4;}
	.st77{fill:url(#SVGID_110_);}
	.st78{opacity:0.6;fill:url(#SVGID_113_);}
	.st79{fill:url(#SVGID_116_);}
	.st80{opacity:0.6;fill:url(#SVGID_119_);}
	.st81{fill:url(#SVGID_122_);}
	.st82{opacity:0.6;fill:url(#SVGID_125_);}
	.st83{fill:url(#SVGID_128_);}
	.st84{opacity:0.6;fill:url(#SVGID_131_);}
	.st85{fill:#221F1F;}
	.st86{fill:none;}
	.st87{fill:#00416B;}
	.st88{opacity:0.8;fill:url(#XMLID_323_);}
	.st89{fill:#4197CB;}
	.st90{fill:#003E52;}
	.st91{fill:#3F96B4;}
	.st92{fill:#B9DBE5;}
	.st93{opacity:0.3;fill:#231F20;}
	.st94{opacity:0.3;fill:#FFFFFF;}
	.st95{fill:#050013;}
	.st96{fill:#E87200;}
	.st97{fill:#FCB813;}
	.st98{fill:#3D3935;}
	.st99{fill:#FFB600;}
	.st100{fill:#FCB814;}
	.st101{fill:#F48120;}
	.st102{fill:#EF4E25;}
	.st103{fill:#ED3024;}
	.st104{fill:#E0592A;}
	.st105{fill:#00ADBB;}
	.st106{fill:#00829B;}
	.st107{fill:#93D500;}
	.st108{fill:#4D5A31;}
	.st109{fill:#6BA43A;}
	.st110{fill:#424143;}
	.st111{fill-rule:evenodd;clip-rule:evenodd;fill:#C7E6B4;}
	.st112{fill-rule:evenodd;clip-rule:evenodd;fill:#5A9891;}
	.st113{fill-rule:evenodd;clip-rule:evenodd;fill:#127870;}
	.st114{fill-rule:evenodd;clip-rule:evenodd;fill:#5CCFD5;}
	.st115{fill-rule:evenodd;clip-rule:evenodd;fill:#ACD5CD;}
	.st116{fill-rule:evenodd;clip-rule:evenodd;fill:#B5ECC9;}
	.st117{fill-rule:evenodd;clip-rule:evenodd;fill:#A1D683;}
	.st118{fill-rule:evenodd;clip-rule:evenodd;fill:#DEF0D3;}
	.st119{fill-rule:evenodd;clip-rule:evenodd;fill:#91B9B4;}
	.st120{fill-rule:evenodd;clip-rule:evenodd;fill:#006860;}
	.st121{fill-rule:evenodd;clip-rule:evenodd;fill:#00ADBB;}
	.st122{fill-rule:evenodd;clip-rule:evenodd;fill:#B4E7E9;}
	.st123{fill-rule:evenodd;clip-rule:evenodd;fill:#007565;}
	.st124{fill-rule:evenodd;clip-rule:evenodd;fill:#00CE7C;}
	.st125{fill-rule:evenodd;clip-rule:evenodd;fill:#5FD896;}
	.st126{fill:#007DA5;}
	.st127{fill:#313032;}
	.st128{fill:#24272A;}
	.st129{fill:#00AFAA;}
	.st130{fill:#66C9BA;}
	.st131{fill:#0069A7;}
	.st132{fill:#002F87;}
	.st133{fill:#8BC53F;}
	.st134{fill:#1A1A1A;}
	.st135{fill:#0095D6;}
	.st136{fill:#003F5F;}
	.st137{fill:#2D317C;}
	.st138{fill:#41BFBF;}
	.st139{fill:#293C97;}
	.st140{fill:#52C2BD;}
	.st141{fill:url(#SVGID_134_);}
	.st142{fill:url(#SVGID_135_);}
	.st143{fill:url(#SVGID_136_);}
	.st144{fill:#0DBEEA;}
	.st145{fill:#097EC2;}
	.st146{fill:#133C63;}
	.st147{fill:#3B91CF;}
	.st148{fill:#C8DEE8;}
	.st149{fill:#629BBA;}
	.st150{fill:#F8BE19;}
	.st151{fill:url(#SVGID_137_);}
	.st152{fill:url(#SVGID_138_);}
	.st153{fill:url(#SVGID_139_);}
	.st154{fill:#00233B;}
	.st155{fill:url(#SVGID_140_);}
	.st156{fill:url(#SVGID_141_);}
	.st157{fill:url(#SVGID_142_);}
	.st158{fill:url(#SVGID_143_);}
	.st159{fill:url(#SVGID_144_);}
	.st160{fill:url(#SVGID_145_);}
	.st161{fill:url(#SVGID_146_);}
	.st162{fill:url(#SVGID_147_);}
	.st163{fill:url(#SVGID_148_);}
	.st164{fill:url(#SVGID_149_);}
	.st165{fill:url(#SVGID_150_);}
	.st166{fill:url(#SVGID_151_);}
	.st167{fill:url(#SVGID_152_);}
	.st168{fill:url(#SVGID_153_);}
	.st169{fill:url(#SVGID_154_);}
	.st170{fill:url(#SVGID_155_);}
	.st171{fill:url(#SVGID_156_);}
	.st172{fill:url(#SVGID_157_);}
	.st173{fill:url(#SVGID_158_);}
	.st174{fill:url(#SVGID_159_);}
	.st175{fill:url(#SVGID_160_);}
	.st176{fill:url(#SVGID_161_);}
	.st177{fill:url(#SVGID_162_);}
	.st178{fill:url(#SVGID_163_);}
	.st179{fill:url(#SVGID_164_);}
	.st180{fill:url(#SVGID_165_);}
	.st181{fill:url(#SVGID_166_);}
	.st182{fill:url(#SVGID_167_);}
	.st183{fill:url(#SVGID_168_);}
	.st184{fill:url(#SVGID_169_);}
	.st185{fill:url(#SVGID_170_);}
	.st186{fill:url(#SVGID_171_);}
	.st187{fill:url(#SVGID_172_);}
	.st188{fill:url(#SVGID_173_);}
	.st189{fill:url(#SVGID_174_);}
	.st190{fill:url(#SVGID_175_);}
	.st191{fill:url(#SVGID_176_);}
	.st192{fill:url(#SVGID_177_);}
	.st193{fill:url(#SVGID_178_);}
	.st194{fill:#C31230;}
	.st195{fill:#807F82;}
	.st196{fill-rule:evenodd;clip-rule:evenodd;fill:#C31230;}
	.st197{fill-rule:evenodd;clip-rule:evenodd;fill:#807F82;}
	.st198{fill:#2D2D2D;}
	.st199{display:none;fill:#2D2D2D;}
	.st200{fill:#D11F3C;}
	.st201{fill:#E42C4C;stroke:#E42C4C;stroke-width:1.0503;stroke-miterlimit:10;}
	.st202{display:none;fill:#231F20;}
	.st203{display:none;fill:#FFFFFF;}
	.st204{fill:#FF7F30;}
	.st205{opacity:0.3;fill:#FF7F30;}
	.st206{opacity:0.6;fill:#FF7F30;}
	.st207{opacity:0.7;fill:#FF7F30;}
	.st208{fill:#221C35;}
	.st209{fill:#1B98D5;}
	.st210{fill:#173963;}
	.st211{fill:#009ADE;}
	.st212{fill:#003764;}
	.st213{fill:#2A7DE1;}
	.st214{opacity:0.4;clip-path:url(#XMLID_324_);fill:#221F1F;}
	.st215{fill:#002A3A;}
	.st216{fill:#0033A1;}
	.st217{fill:url(#SVGID_179_);}
	.st218{fill:url(#SVGID_180_);}
	.st219{fill:url(#SVGID_181_);}
	.st220{fill:url(#SVGID_182_);}
	.st221{fill:#007EC4;}
	.st222{fill-rule:evenodd;clip-rule:evenodd;fill:url(#SVGID_183_);}
	.st223{fill-rule:evenodd;clip-rule:evenodd;fill:#E6E7E8;}
	.st224{fill:#009345;}
	.st225{fill:#BBBCB8;}
	.st226{fill:#72C0EB;}
	.st227{fill:#939598;}
	.st228{fill-rule:evenodd;clip-rule:evenodd;fill:#2CB8EB;}
	.st229{fill:#2CB8EB;}
	.st230{fill:#81B83A;}
	.st231{fill-rule:evenodd;clip-rule:evenodd;fill:#81B83A;}
	.st232{enable-background:new    ;}
	.st233{fill:#FF6F3E;}
	.st234{fill:#12143D;}
	.st235{fill:url(#SVGID_184_);}
	.st236{fill:url(#SVGID_185_);}
	.st237{fill:url(#SVGID_186_);}
	.st238{fill:url(#SVGID_187_);}
	.st239{fill:url(#SVGID_188_);}
	.st240{fill:url(#SVGID_189_);}
	.st241{fill:url(#SVGID_190_);}
	.st242{fill:url(#SVGID_191_);}
	.st243{fill:url(#SVGID_192_);}
	.st244{fill:#7C51A0;}
	.st245{fill:#9F66A9;}
	.st246{fill:#9F80B9;}
	.st247{fill:url(#SVGID_193_);}
	.st248{fill:url(#SVGID_194_);}
	.st249{fill:url(#SVGID_195_);}
	.st250{fill:url(#SVGID_196_);}
	.st251{fill:#2D3136;}
	.st252{fill:#76777A;}
	.st253{fill:#A7A8A9;}
	.st254{fill:#0082CA;}
	.st255{fill:#FFB259;}
	.st256{fill:#385CAD;}
	.st257{fill:#7BA0C4;}
	.st258{fill:#EBA900;}
	.st259{fill:#929497;}
	.st260{opacity:0.7;fill:#FFFFFF;}
	.st261{fill:#016BAF;}
	.st262{fill:#343432;}
	.st263{fill:#6D6E70;}
	.st264{fill:#F4B01B;}
	.st265{fill:#293271;}
	.st266{fill:#A1D33C;}
	.st267{fill:#212322;}
	.st268{fill:#0047BA;}
	.st269{fill:#969CDE;}
	.st270{fill:#047BC1;}
	.st271{fill:url(#SVGID_197_);}
	.st272{fill:url(#SVGID_198_);}
	.st273{fill:url(#SVGID_199_);}
	.st274{fill:url(#SVGID_200_);}
	.st275{fill:url(#SVGID_201_);}
	.st276{fill:url(#SVGID_202_);}
	.st277{fill:url(#SVGID_203_);}
	.st278{fill:#13517C;}
	.st279{fill:#0077A6;}
	.st280{fill:none;stroke:#231F20;stroke-width:5.9036;stroke-miterlimit:10;}
	.st281{fill:#00A94F;}
	.st282{fill:none;stroke:#231F20;stroke-width:3.2172;stroke-miterlimit:10;}
	.st283{fill:#59595C;}
	.st284{opacity:0.349;fill:#F9AE19;}
	.st285{opacity:0.349;fill:#E99F22;}
	.st286{opacity:0.349;fill:#E47D25;}
	.st287{fill:#F9AE19;}
	.st288{fill:#E99F22;}
	.st289{fill:#F09B20;}
	.st290{fill:#E47D25;}
	.st291{fill:#E89223;}
	.st292{opacity:0.651;fill:#F9AE19;}
	.st293{fill:#E68825;}
	.st294{opacity:0.651;fill:#E99F22;}
	.st295{fill:#EB8D23;}
	.st296{opacity:0.7725;fill:#EF9B21;}
	.st297{opacity:0.651;fill:#E47D25;}
	.st298{opacity:0.7725;fill:#EA9622;}
	.st299{fill:url(#SVGID_204_);}
	.st300{fill:#55575B;}
	.st301{fill:#EE424E;}
	.st302{fill:#34424B;}
</style>
<g>
	<g>
		<g>
			
				<linearGradient id="SVGID_2_" gradientUnits="userSpaceOnUse" x1="619.2592" y1="-2586.7026" x2="781.8749" y2="-2586.7026" gradientTransform="matrix(0.9362 -0.3514 0.3514 0.9362 397.0047 2820.188)">
				<stop  offset="0.15" style="stop-color:#EF4E23"/>
				<stop  offset="0.7013" style="stop-color:#782B8F"/>
				<stop  offset="0.7629" style="stop-color:#802A8F"/>
				<stop  offset="1" style="stop-color:#9B258E"/>
			</linearGradient>
			<path style="fill:url(#SVGID_2_);" d="M192.77,183.83l-72.53,24.83c-3.19,1.2-5.96,1.68-7.16-1.51s1.21-4.65,4.4-5.85
				l70.96-29.03c17.73-6.66,26.75-26.5,20.09-44.23c-6.66-17.73-26.5-26.75-44.23-20.09L60.76,144.41c-3.19,1.2-5.96,1.68-7.16-1.51
				c-1.2-3.19,1.21-4.65,4.4-5.85l101.96-40.66c24.11-9.05,51.08,3.2,60.13,27.31C229.13,147.81,216.88,174.78,192.77,183.83z"/>
		</g>
		<g>
			
				<linearGradient id="SVGID_3_" gradientUnits="userSpaceOnUse" x1="638.9904" y1="-2586.7026" x2="862.6808" y2="-2586.7026" gradientTransform="matrix(0.9362 -0.3514 0.3514 0.9362 397.0047 2820.188)">
				<stop  offset="0.15" style="stop-color:#EF4E23"/>
				<stop  offset="0.7013" style="stop-color:#782B8F"/>
				<stop  offset="0.7629" style="stop-color:#802A8F"/>
				<stop  offset="1" style="stop-color:#9B258E"/>
			</linearGradient>
			<path style="fill:url(#SVGID_3_);" d="M221.17,259.48l-85.06,29.53c-3.19,1.2-5.96,1.68-7.16-1.51s1.21-4.65,4.4-5.85
				l83.48-33.73c59.45-22.31,89.66-88.83,67.35-148.28C261.87,40.19,195.35,9.98,135.9,32.29L50.84,61.82
				c-3.19,1.2-5.96,1.68-7.16-1.51c-1.2-3.19,1.21-4.65,4.4-5.85l83.48-33.73c65.82-24.7,139.47,8.75,164.18,74.57
				C320.44,161.13,286.99,234.78,221.17,259.48z"/>
		</g>
		<g>
			
				<linearGradient id="SVGID_5_" gradientUnits="userSpaceOnUse" x1="565.954" y1="-2586.7026" x2="822.2768" y2="-2586.7026" gradientTransform="matrix(0.9362 -0.3514 0.3514 0.9362 397.0047 2820.188)">
				<stop  offset="0.15" style="stop-color:#EF4E23"/>
				<stop  offset="0.7013" style="stop-color:#782B8F"/>
				<stop  offset="0.7629" style="stop-color:#802A8F"/>
				<stop  offset="1" style="stop-color:#9B258E"/>
			</linearGradient>
			<path style="fill:url(#SVGID_5_);" d="M206.97,221.65L53.53,276.85c-3.19,1.2-5.96,1.68-7.16-1.51s1.21-4.65,4.4-5.85
				l151.86-59.4c38.59-14.48,58.2-57.66,43.72-96.26c-14.48-38.59-57.66-58.2-96.26-43.72L12.69,119.29
				c-3.19,1.2-5.96,1.68-7.16-1.51s1.21-4.65,4.4-5.85l135.83-53.38c44.96-16.88,95.28,5.98,112.15,50.94
				C274.79,154.47,251.94,204.78,206.97,221.65z"/>
		</g>
	</g>
	<g>
		<g>
			<g>
				<g>
					<path class="st154" d="M383.69,68.45h41.56c42.51,0,71.54,26.95,71.54,66.42c0,39.47-29.03,66.42-71.54,66.42h-41.56V68.45z
						 M423.73,192.56c39.47,0,63.38-23.15,63.38-57.69c0-34.54-23.91-57.69-63.38-57.69h-30.55v115.38H423.73z"/>
					<path class="st154" d="M425.25,202.96h-43.23V66.78h43.23c21.29,0,39.56,6.52,52.85,18.85c13.32,12.37,20.36,29.39,20.36,49.23
						s-7.04,36.87-20.36,49.23C464.81,196.44,446.54,202.96,425.25,202.96z M385.36,199.62h39.89c20.43,0,37.92-6.21,50.58-17.96
						c12.62-11.72,19.3-27.9,19.3-46.79c0-18.89-6.67-35.07-19.3-46.79c-12.66-11.75-30.15-17.96-50.58-17.96h-39.89V199.62z
						 M423.73,194.23h-32.22V75.51h32.22c19.62,0,36.08,5.65,47.63,16.34c11.4,10.56,17.42,25.43,17.42,43.02
						s-6.02,32.46-17.42,43.02C459.82,188.58,443.35,194.23,423.73,194.23z M394.85,190.89h28.89c18.76,0,34.45-5.34,45.36-15.45
						c10.7-9.91,16.35-23.94,16.35-40.57s-5.66-30.66-16.35-40.57c-10.91-10.11-26.6-15.45-45.36-15.45h-28.89V190.89z"/>
				</g>
				<g>
					<path class="st154" d="M559.56,68.45h55.41c26.57,0,41.18,14.61,41.18,35.87c0,21.25-14.61,36.06-41.18,36.06h-45.92v60.91
						h-9.49V68.45z M614.03,131.64c20.87,0,32.64-9.87,32.64-27.33c0-17.27-11.77-27.14-32.64-27.14h-44.97v54.46H614.03z"/>
					<path class="st154" d="M570.72,202.96H557.9V66.78h57.08c26.43,0,42.85,14.38,42.85,37.53c0,11.15-3.86,20.57-11.17,27.23
						c-7.53,6.86-18.48,10.49-31.68,10.49h-44.26V202.96z M561.23,199.62h6.15v-60.91h47.59c12.35,0,22.52-3.33,29.43-9.62
						c6.6-6.01,10.08-14.58,10.08-24.77c0-10.17-3.48-18.7-10.08-24.67c-6.89-6.24-17.07-9.53-29.43-9.53h-53.74V199.62z
						 M614.03,133.31h-46.64v-57.8h46.64c21.8,0,34.31,10.5,34.31,28.8C648.33,122.74,635.83,133.31,614.03,133.31z M570.72,129.98
						h43.31c19.97,0,30.97-9.11,30.97-25.66c0-16.42-11-25.47-30.97-25.47h-43.31V129.98z"/>
				</g>
				<g>
					<path class="st154" d="M714.56,68.45h41.56c42.51,0,71.54,26.95,71.54,66.42c0,39.47-29.03,66.42-71.54,66.42h-41.56V68.45z
						 M754.6,192.56c39.47,0,63.38-23.15,63.38-57.69c0-34.54-23.91-57.69-63.38-57.69h-30.55v115.38H754.6z"/>
					<path class="st154" d="M756.12,202.96h-43.23V66.78h43.23c21.29,0,39.56,6.52,52.85,18.85c13.32,12.37,20.36,29.39,20.36,49.23
						s-7.04,36.87-20.36,49.23C795.68,196.44,777.41,202.96,756.12,202.96z M716.23,199.62h39.89c20.43,0,37.92-6.21,50.58-17.96
						c12.62-11.72,19.3-27.9,19.3-46.79c0-18.89-6.67-35.07-19.3-46.79c-12.66-11.75-30.15-17.96-50.58-17.96h-39.89V199.62z
						 M754.6,194.23h-32.22V75.51h32.22c19.62,0,36.08,5.65,47.63,16.34c11.4,10.56,17.42,25.43,17.42,43.02
						s-6.02,32.46-17.42,43.02C790.69,188.58,774.22,194.23,754.6,194.23z M725.72,190.89h28.89c18.76,0,34.45-5.34,45.36-15.45
						c10.7-9.91,16.35-23.94,16.35-40.57s-5.66-30.66-16.35-40.57c-10.91-10.11-26.6-15.45-45.36-15.45h-28.89V190.89z"/>
				</g>
				<g>
					<path class="st154" d="M890.43,68.45h9.49v58.45l66.8-58.45h13.09l-69.26,60.91l79.89,71.92h-14.23l-76.29-68.89v68.89h-9.49
						V68.45z"/>
					<path class="st154" d="M994.79,202.96h-19.22l-0.48-0.43l-73.5-66.37v66.8h-12.82V66.78h12.82v56.44l64.5-56.44h18.14
						l-71.18,62.6L994.79,202.96z M976.85,199.62h9.25l-78.06-70.27l67.35-59.23h-8.05l-68.01,59.51L976.85,199.62z M892.1,199.62
						h6.15V70.12h-6.15V199.62z"/>
				</g>
			</g>
		</g>
	</g>
</g>
</svg>
