<?xml version="1.0" encoding="UTF-8" standalone="no"?>
<!-- Created with Inkscape (http://www.inkscape.org/) -->

<svg
   version="1.1"
   id="svg2697"
   width="128"
   height="42.240002"
   viewBox="0 0 128 42.240002"
   sodipodi:docname="3213123.svg"
   inkscape:version="1.2.2 (b0a84865, 2022-12-01)"
   xmlns:inkscape="http://www.inkscape.org/namespaces/inkscape"
   xmlns:sodipodi="http://sodipodi.sourceforge.net/DTD/sodipodi-0.dtd"
   xmlns="http://www.w3.org/2000/svg"
   xmlns:svg="http://www.w3.org/2000/svg">
  <defs
     id="defs2701" />
  <sodipodi:namedview
     id="namedview2699"
     pagecolor="#ffffff"
     bordercolor="#666666"
     borderopacity="1.0"
     inkscape:showpageshadow="2"
     inkscape:pageopacity="0.0"
     inkscape:pagecheckerboard="0"
     inkscape:deskcolor="#d1d1d1"
     showgrid="false"
     inkscape:zoom="5.587121"
     inkscape:cx="63.896952"
     inkscape:cy="21.120001"
     inkscape:window-width="725"
     inkscape:window-height="480"
     inkscape:window-x="0"
     inkscape:window-y="25"
     inkscape:window-maximized="0"
     inkscape:current-layer="g2703" />
  <g
     inkscape:groupmode="layer"
     inkscape:label="Image"
     id="g2703">
    <g
       id="g2824">
      <path
         style="fill:#cee9aa;stroke-width:0.32"
         d="M 13.12,31.678687 C 9.6357421,31.012737 7.8041341,30.401095 5.8304314,29.244429 4.3697658,28.388421 3.2023923,26.840641 3.2023923,25.760001 c 0,-1.714936 2.1807143,-3.640848 5.4480928,-4.811519 1.0629501,-0.380845 5.9060739,-1.424087 6.6295149,-1.428044 0.044,-2.4e-4 0.08,-1.924801 0.08,-4.276801 0,-4.193772 0.01629,-4.292657 0.843636,-5.12 0.653738,-0.6537377 1.157952,-0.8436366 2.24,-0.8436366 H 19.84 V 7.0400003 4.8000002 h 0.981037 c 1.183509,0 2.18751,0.478553 2.931847,1.3974529 0.48127,0.594137 0.553807,1.4958231 0.56,6.9612149 l 0.0071,6.278666 2,0.226614 c 1.863203,0.211114 1.956225,0.259092 1.36,0.701448 -0.451794,0.335198 -1.039938,0.416101 -2,0.275112 l -1.36,-0.199722 v 3.229886 c 0,4.868864 0.478356,5.686585 3.209557,5.486549 0.534525,-0.03915 1.124527,0.269465 1.736671,0.908406 0.509913,0.532234 0.865612,1.028757 0.790443,1.103383 -0.316524,0.314238 -5.154591,0.804249 -6.122576,0.620109 -2.331221,-0.44347 -3.764674,-1.783741 -3.783826,-3.537859 -0.0083,-0.760015 -0.05776,-0.808795 -0.335901,-0.331259 -0.500851,0.85991 -2.293682,0.721206 -3.469816,-0.268446 C 15.373319,26.834317 15.36,26.782285 15.36,23.805458 v -3.01765 l -0.88,0.194495 c -1.523375,0.336693 -4.044572,1.166486 -4.9770179,1.638069 -2.1851312,1.105126 -2.7925207,2.897858 -1.4189959,4.188218 1.6008909,1.503959 6.5875278,2.951411 10.1679438,2.951411 1.341791,0 1.68962,0.142961 2.53037,1.04 0.536106,0.572 0.975405,1.148001 0.976219,1.280001 0.0028,0.443923 -5.570963,0.184988 -8.638519,-0.401315 z m 16.658762,-1.738715 -0.732799,-0.780029 2.037018,-0.925988 c 2.149064,-0.976922 2.619912,-1.381444 2.981934,-2.561875 0.323514,-1.054875 -1.43855,-2.699499 -3.664915,-3.420656 -2.168819,-0.702515 -2.489851,-0.975189 -1.666763,-1.415692 0.487912,-0.261123 1.056531,-0.200922 2.369748,0.250891 7.524852,2.588928 8.247402,6.395829 1.730727,9.11867 -1.666506,0.69631 -2.194636,0.650442 -3.05495,-0.265321 z M 39.908499,29.561834 C 39.382198,29.035532 39.748445,28.762875 40.72,28.957704 l 1.04,0.208555 -1.04,-0.658426 C 39.563443,27.775616 39.455466,27.464713 40.155843,26.88345 40.69513,26.435882 42.24,26.700757 42.24,27.240788 c 0,0.212044 -0.313373,0.269943 -0.8,0.147807 -0.44,-0.110433 -0.8,-0.06965 -0.8,0.09062 0,0.160273 0.369347,0.384107 0.820774,0.497407 1.229076,0.308479 0.966516,1.589361 -0.352275,1.718546 -0.534326,0.05234 -1.074326,-0.0077 -1.2,-0.133334 z m 5.018912,-0.25137 c -0.09488,-0.247245 -0.126358,-0.931245 -0.06996,-1.52 0.09085,-0.94834 0.221193,-1.081902 1.142547,-1.170737 0.772605,-0.07449 1.04,0.02835 1.04,0.4 0,0.294471 -0.296195,0.515545 -0.72,0.537395 -0.541814,0.02793 -0.581411,0.07334 -0.16,0.183464 0.684115,0.178778 0.744771,0.739415 0.08,0.739415 -0.264,0 -0.48,0.144 -0.48,0.32 0,0.176 0.288,0.32 0.64,0.32 0.352,0 0.64,0.144 0.64,0.32 0,0.495959 -1.917686,0.378373 -2.112589,-0.129537 z M 49.6,28.160001 c 0,-1.683623 0.473002,-2.092375 1.286701,-1.111927 0.362096,0.436299 0.465949,0.432974 0.979017,-0.03135 0.829146,-0.750368 1.254282,-0.302226 1.254282,1.32216 0,1.04988 -0.125389,1.421114 -0.48,1.421114 -0.307757,0 -0.48,-0.309018 -0.48,-0.861161 0,-0.803765 -0.02896,-0.821562 -0.434448,-0.267018 -0.422291,0.577515 -0.44441,0.576988 -0.790269,-0.01884 -0.323945,-0.558068 -0.356694,-0.534147 -0.365552,0.267018 -0.0062,0.564564 -0.181785,0.879999 -0.489731,0.879999 -0.362666,0 -0.48,-0.391111 -0.48,-1.6 z m 6.08,0 c 0,-1.208889 0.117334,-1.6 0.48,-1.6 0.362666,0 0.48,0.391111 0.48,1.6 0,1.208889 -0.117334,1.6 -0.48,1.6 -0.362666,0 -0.48,-0.391111 -0.48,-1.6 z m 4.04023,1.114516 c -0.692652,-0.692653 -0.657225,-1.531345 0.09338,-2.210634 0.681619,-0.616856 1.98062,-0.573447 2.193721,0.07331 0.09586,0.290927 -0.138675,0.387775 -0.774934,0.32 -0.785808,-0.08371 -0.912397,0.01381 -0.912397,0.702809 0,0.678869 0.136432,0.790442 0.901043,0.736875 0.577136,-0.04043 0.855847,0.0746 0.775322,0.32 -0.19601,0.597331 -1.698397,0.635378 -2.276135,0.05764 z m 5.382666,-0.29571 c -0.497853,-0.759819 -0.498739,-0.876438 -0.01232,-1.618806 1.058,-1.614709 3.516621,-0.446239 2.882016,1.369691 -0.438231,1.253999 -2.115847,1.399631 -2.869693,0.249115 z m 2.04344,-0.616471 c 0.147827,-0.767614 -0.338387,-1.237395 -1.012826,-0.978589 -0.538883,0.206789 -0.722937,1.120161 -0.309113,1.533983 0.394864,0.394866 1.204438,0.05474 1.321939,-0.555394 z M 70.72,28.160001 c 0,-1.836977 0.500304,-2.102357 1.357366,-0.72 l 0.545604,0.88 0.0085,-0.88 c 0.0055,-0.565104 0.180278,-0.88 0.488518,-0.88 0.362666,0 0.48,0.391111 0.48,1.6 0,1.786921 -0.52065,2.117927 -1.384186,0.88 l -0.502246,-0.72 -0.01677,0.72 c -0.0098,0.419207 -0.217328,0.72 -0.4968,0.72 -0.362666,0 -0.48,-0.391111 -0.48,-1.6 z m 5.44,0 v -1.6 h 1.112624 c 0.833683,0 1.244035,0.200564 1.636803,0.8 0.485571,0.741079 0.485571,0.858922 0,1.6 -0.392768,0.599437 -0.80312,0.8 -1.636803,0.8 H 76.16 Z m 1.908368,0.494018 c 0.444867,-0.536033 0.187933,-1.134018 -0.487254,-1.134018 -0.278522,0 -0.461114,0.316785 -0.461114,0.8 0,0.898851 0.371117,1.029559 0.948368,0.334018 z m 4.045869,0.599811 c -0.303181,-0.790078 -0.227955,-2.693829 0.106445,-2.693829 0.165376,0 0.345376,0.54 0.4,1.2 0.132534,1.601333 1.059318,1.697351 1.059318,0.10975 0,-0.599638 0.18,-1.151638 0.4,-1.226667 0.269814,-0.09202 0.4,0.228261 0.4,0.984079 0,1.667411 -0.279322,2.132838 -1.28,2.132838 -0.51776,0 -0.97296,-0.21221 -1.085763,-0.506171 z m 5.460486,-0.152807 C 87.037795,28.334448 87.258966,27.274408 88.061456,26.76821 88.639222,26.403766 90.24,26.75101 90.24,27.240788 c 0,0.207585 -0.308797,0.271092 -0.763386,0.156997 -0.889788,-0.223323 -1.65056,0.487363 -1.352678,1.263625 0.148464,0.386894 0.435824,0.456782 1.193718,0.290321 0.763632,-0.167722 0.964682,-0.117316 0.85562,0.214516 -0.250832,0.763176 -2.049946,0.718018 -2.598551,-0.06522 z M 93.76,28.640001 c 0,-0.782222 -0.144762,-1.12 -0.48,-1.12 -0.264,0 -0.48,-0.216 -0.48,-0.48 0,-0.346666 0.355555,-0.48 1.28,-0.48 1.265984,0 1.728406,0.488017 0.8,0.84428 -0.296163,0.113649 -0.48,0.600031 -0.48,1.269957 0,0.59717 -0.144,1.085763 -0.32,1.085763 -0.176,0 -0.32,-0.504 -0.32,-1.12 z m 4.314262,0.47366 c -0.560835,-0.619717 -0.572208,-0.750465 -0.133555,-1.535528 1.007472,-1.803085 3.666733,-0.779549 2.991883,1.151559 -0.40454,1.15758 -1.968132,1.367624 -2.858328,0.383969 z m 2.032078,-0.751325 c 0.14782,-0.767614 -0.338391,-1.237395 -1.01283,-0.978589 -0.538883,0.206789 -0.722937,1.120161 -0.309113,1.533983 0.394864,0.394866 1.204438,0.05474 1.321943,-0.555394 z M 103.68,28.160001 c 0,-1.549315 0.0292,-1.6 0.92082,-1.6 1.19046,0 1.59022,0.516772 1.54717,2 -0.0394,1.358283 -0.1078,1.40796 -0.92279,0.670404 -0.54453,-0.492794 -0.5852,-0.492794 -0.5852,0 0,0.291278 -0.216,0.529596 -0.48,0.529596 -0.36267,0 -0.48,-0.391111 -0.48,-1.6 z m 1.76,-0.32 c 0.10877,-0.176 -0.0267,-0.32 -0.30111,-0.32 -0.27439,0 -0.49889,0.144 -0.49889,0.32 0,0.176 0.1355,0.32 0.30111,0.32 0.16562,0 0.39012,-0.144 0.49889,-0.32 z m 5.6,1.28 c -0.352,-0.352 -0.64,-0.856 -0.64,-1.12 0,-0.627877 0.85031,-0.619177 1.20371,0.01232 0.22492,0.401911 0.85954,0.475364 3.4559,0.4 l 3.18039,-0.09232 0.0935,-1.6 0.0935,-1.6 h -3.55967 c -4.3957,0 -4.46727,-0.06221 -4.46727,-3.883016 0,-3.470331 0.21307,-3.636984 4.65004,-3.636984 4.55965,0 4.44494,-0.132628 4.57544,5.290233 0.16452,6.836842 0.14243,6.869767 -4.60834,6.869767 -2.91047,0 -3.41897,-0.08183 -3.97714,-0.64 z m 7.29627,-7.512395 c 0.12107,-2.807443 -0.14517,-3.047605 -3.37847,-3.047605 -3.31941,0 -3.5978,0.206387 -3.5978,2.667259 0,1.162733 0.16577,2.170513 0.39469,2.399428 0.27155,0.271556 1.34474,0.366395 3.44,0.304 L 118.24,23.840001 Z M 96.48,24.897619 c -0.352,-0.199607 -0.745795,-0.519228 -0.875101,-0.71027 -0.390269,-0.576603 -0.281728,-8.076402 0.129962,-8.979964 0.482489,-1.05895 1.262592,-1.234477 4.746209,-1.067923 3.54684,0.169576 4.15893,0.589208 4.15893,2.85125 0,0.842335 -0.14439,1.620755 -0.32086,1.729824 -0.21449,0.13256 -0.21449,0.397075 0,0.797848 0.41608,0.777457 0.41418,3.709317 -0.003,4.488653 -0.17807,0.332728 -0.86207,0.754459 -1.52,0.937178 -1.58301,0.439631 -5.509876,0.410662 -6.316238,-0.0466 z m 6.58104,-1.228877 c 0.44881,-0.240195 0.61896,-0.672842 0.61896,-1.573828 0,-2.244833 -0.0166,-2.254913 -3.714237,-2.254913 H 96.64 v 1.866667 c 0,1.026667 0.096,1.962667 0.213334,2.08 0.343424,0.343425 5.529756,0.244902 6.207706,-0.117926 z m 0,-5.44 c 0.70657,-0.378146 0.81117,-1.523551 0.21375,-2.340578 -0.34415,-0.470654 -0.86252,-0.540145 -3.440003,-0.461161 l -3.034787,0.093 -0.09753,1.52 -0.09753,1.52 h 2.91857 c 1.60522,0 3.19711,-0.149067 3.53754,-0.331259 z m 3.72752,6.853155 c -0.40252,-0.402518 -0.24462,-1.081896 0.25144,-1.081896 0.38902,0 0.48,-0.515555 0.48,-2.72 0,-2.204445 -0.091,-2.72 -0.48,-2.72 -0.264,0 -0.48,-0.216 -0.48,-0.48 0,-0.32 0.32,-0.48 0.96,-0.48 h 0.96 v 3.2 c 0,2.697393 0.0791,3.2 0.50346,3.2 0.30659,0 0.46197,0.218988 0.39734,0.56 -0.0727,0.383637 -0.46161,0.589991 -1.2349,0.65523 -0.62082,0.05238 -1.23163,-0.0076 -1.35734,-0.133334 z M 39.744,24.256001 c -0.262682,-0.262683 -0.384,-1.822476 -0.384,-4.937143 0,-5.727632 -0.127744,-5.558857 4.207472,-5.558857 3.112118,0 3.227946,0.02619 4.137142,0.935384 0.924832,0.924833 0.935386,0.976686 0.935386,4.596364 0,3.528874 -0.03043,3.691422 -0.843635,4.504616 -0.806032,0.80603 -0.995747,0.843636 -4.256,0.843636 -2.227395,0 -3.545712,-0.133347 -3.796365,-0.384 z m 7.178179,-1.251006 C 47.243344,22.738452 47.36,21.717185 47.36,19.172077 c 0,-4.163482 0.03024,-4.132076 -3.978963,-4.132076 H 40.64 v 4.106666 c 0,2.258667 0.06429,4.170954 0.142858,4.249526 0.300054,0.300054 5.722758,-0.04548 6.139321,-0.391198 z m 3.707664,-2.100757 0.09016,-3.735763 4,0.06905 c 3.603382,0.0622 4.055526,0.134705 4.56,0.731214 0.788125,0.931908 0.742147,2.191264 -0.08,2.191264 -0.461702,0 -0.64,-0.213333 -0.64,-0.765764 0,-0.42117 -0.227776,-0.85317 -0.506173,-0.96 -0.930275,-0.35698 -5.429536,-0.210527 -5.829827,0.189764 -0.240486,0.240485 -0.384,1.436444 -0.384,3.2 0,2.617328 -0.04587,2.816 -0.650157,2.816 -0.621558,0 -0.646189,-0.1643 -0.56,-3.735763 z m 11.973792,2.892127 C 61.867629,23.060358 61.76,22.691077 61.76,20.901819 c 0,-1.735384 0.117578,-2.168486 0.764246,-2.815156 0.934007,-0.934005 2.554132,-1.269538 4.947239,-1.024588 1.48872,0.152381 1.964125,0.358662 2.688515,1.166568 0.544157,0.606892 0.88,1.345903 0.88,1.936407 v 0.954951 H 66.907674 62.77535 l 0.234634,0.88 c 0.129046,0.484 0.584592,1.057877 1.012323,1.275283 0.915642,0.465398 3.450746,0.52839 4.543571,0.112898 0.466781,-0.17747 0.945168,-0.175087 1.220832,0.0061 0.377136,0.247852 0.348932,0.37752 -0.167872,0.771819 -0.438265,0.33438 -1.438291,0.47392 -3.396364,0.47392 -2.571828,0 -2.837024,-0.06182 -3.618839,-0.843636 z M 69.76,19.538146 c 0,-1.245249 -4.926134,-1.86238 -6.134803,-0.768549 -0.321859,0.291278 -0.585197,0.651278 -0.585197,0.8 0,0.148722 1.512,0.270404 3.36,0.270404 1.892016,0 3.36,-0.13188 3.36,-0.301855 z m 3.911203,4.60371 C 73.141923,23.771136 72.96,23.322817 72.96,22.389233 c 0,-1.933156 0.799693,-2.296533 4.777718,-2.170978 2.845204,0.0898 3.223594,0.03868 3.22298,-0.435397 -3.2e-4,-0.295429 -0.243008,-0.779454 -0.539168,-1.075612 -0.448452,-0.448452 -1.035386,-0.516736 -3.510938,-0.408464 -2.37703,0.103964 -3.007846,0.03782 -3.149062,-0.330189 -0.09713,-0.253107 -0.09401,-0.542783 0.0069,-0.643725 0.10094,-0.100942 1.580329,-0.23877 3.287532,-0.306284 2.807274,-0.111019 3.188125,-0.05629 3.984,0.572557 0.839668,0.663442 0.88,0.823316 0.88,3.488086 0,1.745491 -0.144,2.936773 -0.384,3.176774 -0.607334,0.607333 -6.966512,0.51504 -7.864796,-0.114145 z m 6.782624,-0.656091 c 0.598867,-0.229807 0.664288,-1.119649 0.122173,-1.661764 -0.518621,-0.518622 -5.753379,-0.518622 -6.272,0 -0.592451,0.592452 -0.457088,1.207246 0.336,1.526028 0.820842,0.329939 5.05041,0.428686 5.813827,0.135736 z m 3.456016,-2.605764 0.09016,-3.76 0.8,0.06763 c 0.44,0.0372 2.23904,0.08259 3.997862,0.10087 4.269943,0.04438 4.322138,0.09512 4.322138,4.201098 0,2.587026 -0.08584,3.150404 -0.48,3.150404 -0.390973,0 -0.48,-0.532082 -0.48,-2.868741 0,-2.565279 -0.06945,-2.905908 -0.656506,-3.220093 -0.361081,-0.193244 -0.973081,-0.30631 -1.36,-0.251259 -0.662297,0.09423 -0.708857,0.282796 -0.795081,3.220093 -0.07179,2.445499 -0.190256,3.12 -0.547994,3.12 -0.355587,0 -0.476726,-0.652315 -0.548409,-2.953081 -0.09078,-2.913776 -0.103946,-2.957269 -0.988896,-3.267712 -1.623517,-0.569536 -1.97096,-0.0179 -2.075124,3.294683 -0.08424,2.679186 -0.145859,2.92611 -0.730153,2.92611 -0.606439,0 -0.633667,-0.186833 -0.547994,-3.76 z m 23.503487,-5.093334 c -0.3774,-0.377406 -0.22765,-1.081257 0.27074,-1.27251 0.63175,-0.242423 1.44723,0.444049 1.22267,1.02924 -0.18031,0.469891 -1.1146,0.622082 -1.49341,0.24327 z"
         id="path2838" />
      <path
         style="fill:#989d9f;stroke-width:0.32"
         d="M 15.2,31.919724 C 11.905862,31.566372 7.4226397,30.205196 5.690063,29.032359 3.9263818,27.838466 3.0158574,26.377247 3.3086547,25.21065 3.8148045,23.193988 7.2423254,21.122604 11.431378,20.301773 12.80012,20.033572 14.244,19.745211 14.64,19.660971 c 0.702087,-0.149353 0.72,-0.257119 0.72,-4.331682 V 11.15077 l 0.935385,-0.935385 c 0.685172,-0.6851724 1.241565,-0.9353846 2.08,-0.9353846 H 19.52 v 9.4053096 9.40531 l -0.777793,0.195214 C 17.723375,28.541544 16.511403,28.061456 15.872292,27.148997 15.495847,26.611546 15.36,25.66333 15.36,23.573186 v -2.844411 l -1.094875,0.2054 C 12.339784,21.295371 10.110302,22.051187 9.0573869,22.699648 4.6128032,25.436944 8.3661402,28.885063 16.8,29.81264 c 2.904102,0.319401 3.281372,0.43863 4.08,1.289403 0.484,0.515602 0.88,0.96457 0.88,0.997709 0,0.158547 -4.573756,0.03303 -6.56,-0.180028 z m 6.804023,-0.717096 C 20.176286,30.161769 20.122813,29.793659 19.936133,16.967049 19.833012,9.8816305 19.882974,5.1312114 20.06178,5.0207036 20.644174,4.6607641 23.06498,5.5308099 23.689236,6.3244237 24.26728,7.0592877 24.32,7.6409044 24.32,13.283156 v 6.156845 l 1,0.2 c 0.55,0.11 1.350499,0.2 1.778885,0.2 0.437771,0 0.692272,0.140145 0.581115,0.32 -0.108774,0.176 -0.909272,0.32 -1.778885,0.32 H 24.32 v 3.636845 c 0,3.194756 0.08062,3.739338 0.663226,4.48 0.550297,0.69959 0.922208,0.843155 2.184219,0.843155 1.186792,0 1.677689,0.166795 2.234134,0.759103 0.66663,0.709595 0.675485,0.774037 0.13578,0.988101 -0.317547,0.125949 -1.945359,0.293186 -3.617359,0.371636 -2.365405,0.110986 -3.234385,0.03194 -3.915977,-0.356213 z m 7.774598,-1.262806 -0.732941,-0.780179 1.105034,-0.461712 c 0.607768,-0.253942 1.410165,-0.558558 1.783105,-0.676925 C 32.75344,27.760868 34.24,26.060705 34.24,25.383449 c 0,-0.897201 -2.058336,-2.56283 -4.076368,-3.298641 -2.11633,-0.771653 -2.373409,-1.466547 -0.442145,-1.195132 3.614951,0.508035 7.398513,3.042623 7.398513,4.956226 0,1.37159 -1.248266,2.728384 -3.583933,3.89553 -2.365524,1.182067 -2.811223,1.205599 -3.757446,0.19839 z M 40.213334,29.546668 C 39.775232,29.108566 40.02504,28.893538 40.8,29.041681 c 0.44,0.08411 0.8,0.0078 0.8,-0.169684 0,-0.177438 -0.36,-0.412969 -0.8,-0.523402 -0.497299,-0.124814 -0.8,-0.427686 -0.8,-0.800454 0,-0.673372 0.714448,-1.06228 1.44,-0.78386 0.724301,0.277941 0.576195,0.82938 -0.16,0.59572 -0.919942,-0.291978 -0.790365,0.30876 0.16,0.741775 0.44,0.200478 0.8,0.568185 0.8,0.817128 0,0.671216 -1.514192,1.140239 -2.026666,0.627764 z M 45.12,28.357306 c 0,-1.245631 0.09043,-1.419983 0.807638,-1.557085 0.444199,-0.08491 0.884698,-0.0297 0.978884,0.122695 0.09419,0.152397 -0.125248,0.277085 -0.487636,0.277085 -0.362387,0 -0.658886,0.144 -0.658886,0.32 0,0.176 0.216,0.32 0.48,0.32 0.264,0 0.48,0.144 0.48,0.32 0,0.176 -0.216,0.32 -0.48,0.32 -0.264,0 -0.48,0.144 -0.48,0.32 0,0.176 0.288,0.32 0.64,0.32 0.352,0 0.64,0.144 0.64,0.32 0,0.176 -0.432,0.32 -0.96,0.32 -0.920662,0 -0.96,-0.05748 -0.96,-1.402695 z m 4.8,-0.24953 v -1.689997 l 0.705427,0.705427 0.705427,0.705426 0.734573,-0.690096 L 52.8,26.44844 v 1.674666 c 0,1.124426 -0.114301,1.604024 -0.347878,1.459666 -0.191332,-0.11825 -0.276813,-0.486749 -0.189959,-0.818886 0.169936,-0.649833 -0.24616,-0.827548 -0.599395,-0.256002 -0.154822,0.250509 -0.312374,0.250509 -0.562886,0 -0.530538,-0.530538 -0.81778,-0.416005 -0.642045,0.256002 0.08685,0.332137 0.0013,0.700636 -0.189959,0.818886 C 50.034147,29.727225 49.92,29.243241 49.92,28.107776 Z m 6.175891,0.05222 c 0,-0.968 0.05999,-1.364 0.133309,-0.88 0.07332,0.484 0.07332,1.276 0,1.76 -0.07332,0.484 -0.133309,0.088 -0.133309,-0.88 z m 3.808109,1.216 c -1.102995,-1.102994 0.0743,-3.119925 1.548086,-2.652163 0.889005,0.282158 0.78368,0.847451 -0.11583,0.621688 -0.472086,-0.118486 -0.895488,-0.0038 -1.159184,0.313904 -0.598342,0.72096 0.148851,1.568623 1.159184,1.315046 0.830413,-0.20842 1.02961,0.287356 0.237571,0.591289 -0.759664,0.291511 -1.243542,0.236522 -1.669827,-0.189764 z m 5.44,0 c -0.2112,-0.2112 -0.384,-0.782133 -0.384,-1.268741 0,-1.601705 2.124022,-1.999813 2.903082,-0.544128 0.735769,1.374798 -1.411709,2.920242 -2.519082,1.812869 z m 1.987283,-0.776559 C 67.555408,28.015385 67.012797,27.200001 66.4,27.200001 c -0.220899,0 -0.580899,0.216 -0.8,0.48 -0.317821,0.382949 -0.317821,0.577051 0,0.96 0.526496,0.63439 1.480861,0.612032 1.731283,-0.04056 z m 3.768173,-0.439441 -0.03644,-1.76 0.720512,0.88 c 0.84766,1.035295 1.319059,1.139818 1.083833,0.240319 -0.092,-0.351825 -0.0368,-0.720323 0.122679,-0.818885 0.159478,-0.09856 0.289958,0.549294 0.289958,1.439681 0,1.781626 -0.305357,2.042097 -0.96,0.818885 -0.555485,-1.037933 -0.885248,-1.012827 -1.0508,0.08 -0.07332,0.484 -0.149706,0.088 -0.169744,-0.88 z m 5.380544,0.16 c 0,-1.363809 0.04741,-1.44 0.896,-1.44 0.4928,0 1.0688,0.1728 1.28,0.384 0.911149,0.91115 0.02294,2.496 -1.398858,2.496 -0.707724,0 -0.777142,-0.128627 -0.777142,-1.44 z m 1.76,-0.16 c 0,-0.49966 -0.20672,-0.831045 -0.560966,-0.899268 -0.633437,-0.121988 -1.045373,0.644233 -0.754237,1.402919 C 77.22999,29.458979 78.24,29.072202 78.24,28.160001 Z m 4.064,1.216 c -0.463357,-0.463355 -0.515475,-2.496 -0.064,-2.496 0.176,0 0.32,0.514559 0.32,1.143464 0,0.916093 0.111354,1.12237 0.56,1.03738 0.368816,-0.06987 0.594234,-0.460247 0.660275,-1.143464 0.131383,-1.359191 0.699725,-1.344067 0.699725,0.01862 0,1.147679 -0.474611,1.824 -1.28,1.824 -0.2816,0 -0.6848,-0.1728 -0.896,-0.384 z m 5.575888,-0.101827 C 87.593949,28.988236 87.36,28.498891 87.36,28.18674 c 0,-0.856077 1.114822,-1.722292 1.897069,-1.474017 0.959373,0.304493 0.814064,0.778114 -0.217069,0.707523 -0.741398,-0.05076 -0.88,0.06576 -0.88,0.739755 0,0.678869 0.136432,0.790442 0.901043,0.736875 0.577312,-0.04045 0.855731,0.07453 0.774935,0.32 -0.196832,0.59799 -1.38072,0.632668 -1.95609,0.0573 z M 93.76,28.480001 c 0,-0.94598 -0.130186,-1.28 -0.498886,-1.28 -0.274388,0 -0.432122,-0.108026 -0.350519,-0.240059 0.179751,-0.290842 2.047904,-0.268107 2.344544,0.02853 C 95.371478,27.104813 95.226669,27.2 94.933334,27.2 94.524445,27.2 94.4,27.498667 94.4,28.48 c 0,0.704 -0.144,1.28 -0.32,1.28 -0.176,0 -0.32,-0.576 -0.32,-1.279999 z m 4.544,0.896 c -0.2112,-0.2112 -0.384,-0.782133 -0.384,-1.268741 0,-1.601705 2.12402,-1.999813 2.90308,-0.544128 0.73577,1.374798 -1.411707,2.920242 -2.51908,1.812869 z m 1.98728,-0.776559 c 0.22853,-0.595533 -0.322483,-1.399441 -0.959203,-1.399441 -0.648992,0 -1.141645,1.102431 -0.693101,1.550978 0.534086,0.534086 1.420404,0.4528 1.652304,-0.151537 z M 104,28.373123 c 0,-1.545139 0.361,-1.892213 1.52,-1.461385 0.74272,0.276087 0.96462,1.059307 0.39914,1.408798 -0.21338,0.131874 -0.20961,0.406198 0.0113,0.818886 0.23216,0.433805 0.2294,0.620579 -0.009,0.620579 -0.18772,0 -0.42419,-0.216 -0.5255,-0.48 -0.10131,-0.264 -0.39328,-0.48 -0.64884,-0.48 -0.25556,0 -0.3818,0.13405 -0.28055,0.297889 0.10126,0.163839 0.0378,0.388337 -0.14111,0.498885 C 104.12353,29.721428 104,29.256647 104,28.373123 Z m 1.52,-0.613122 c -0.0733,-0.22 -0.32533,-0.4 -0.56,-0.4 -0.23467,0 -0.48667,0.18 -0.56,0.4 -0.0793,0.237949 0.14756,0.4 0.56,0.4 0.41244,0 0.63932,-0.162051 0.56,-0.4 z m 6.26092,1.69273 c -0.89012,-0.37769 -1.61868,-1.61273 -0.95136,-1.61273 0.24864,0 0.63134,0.216 0.85044,0.48 0.29552,0.35608 1.08371,0.48 3.05301,0.48 3.60377,0 3.66699,-0.03645 3.66699,-2.114236 v -1.725764 h -3.50186 c -4.2935,0 -4.49814,-0.169598 -4.49814,-3.727976 0,-2.132865 0.0658,-2.357318 0.87817,-2.996343 0.78778,-0.619663 1.19456,-0.679699 3.9517,-0.583225 1.99433,0.06978 3.25903,0.261753 3.60183,0.546726 0.45013,0.374198 0.5283,1.185182 0.5283,5.480818 0,4.296203 -0.0781,5.106571 -0.52844,5.480818 -0.62942,0.523115 -5.98335,0.744778 -7.05064,0.291912 z m 6.09341,-5.539765 c 0.45971,-0.336151 0.54003,-0.823761 0.46116,-2.8 l -0.0955,-2.392965 -2.99223,-0.09243 c -1.93119,-0.05966 -3.15101,0.03934 -3.44,0.279182 -0.70614,0.586046 -0.61629,4.643299 0.11223,5.067621 0.81598,0.475268 5.28339,0.429199 5.95433,-0.0614 z M 96.24,24.614369 c -0.491875,-0.286491 -0.56,-0.880906 -0.56,-4.886269 0,-3.120077 0.121261,-4.681362 0.384,-4.944099 0.251261,-0.25126 1.578666,-0.384 3.84,-0.384 3.02933,0 3.53501,0.07901 4.096,0.64 0.6521,0.652099 0.91696,2.99106 0.37652,3.325067 -0.14491,0.08956 -0.19991,1.373984 -0.12221,2.854273 0.18523,3.529065 -0.0695,3.744769 -4.405513,3.730929 C 98.171958,24.94492 96.548,24.793763 96.24,24.614369 Z m 6.93383,-0.808604 c 0.66712,-0.255999 0.7141,-3.394837 0.0589,-3.938565 -0.29076,-0.241315 -1.5502,-0.338986 -3.599996,-0.279182 l -3.152774,0.09198 -0.09818,1.721856 c -0.149453,2.621251 -0.178464,2.598144 3.261962,2.598144 1.663138,0 3.251648,-0.08741 3.530048,-0.194236 z m 0.12217,-5.629764 c 0.2112,-0.2112 0.384,-0.862764 0.384,-1.447921 0,-0.847606 -0.16689,-1.127371 -0.82083,-1.376 -1.17869,-0.448136 -5.6878,-0.39545 -6.15517,0.07192 -0.406314,0.406312 -0.532144,2.561188 -0.170666,2.922666 0.38921,0.38921 6.353306,0.238697 6.762666,-0.170666 z m 3.264,6.464 c 0,-0.176 0.216,-0.32 0.48,-0.32 0.39068,0 0.48,-0.529529 0.48,-2.845764 0,-2.23437 -0.10312,-2.885336 -0.48,-3.029956 -0.82489,-0.316541 -0.52485,-0.84428 0.48,-0.84428 h 0.96 v 3.210043 c 0,2.558175 0.0975,3.247448 0.48,3.394237 0.94931,0.364284 0.45206,0.75572 -0.96,0.75572 -0.792,0 -1.44,-0.144 -1.44,-0.32 z M 39.691258,24.021038 C 39.509066,23.680609 39.36,21.451928 39.36,19.068415 c 0,-5.43386 -0.0051,-5.42816 4.659504,-5.259596 2.911008,0.105195 3.118221,0.159523 3.848579,1.009026 0.714887,0.83151 0.771917,1.158409 0.771917,4.424616 0,3.471343 -0.01469,3.541472 -0.935386,4.462155 -0.915536,0.915538 -1.00696,0.935385 -4.308739,0.935385 -3.007635,0 -3.40927,-0.06711 -3.704617,-0.618963 z m 7.325516,-1.184192 C 47.571546,22.131571 47.68,21.541432 47.68,19.228048 c 0,-3.997526 -0.182794,-4.188047 -4.018144,-4.188047 H 40.64 v 4.32 4.32 h 2.856774 c 2.705076,0 2.891994,-0.04477 3.52,-0.843155 z M 50.56,20.978886 c 0,-2.013613 0.108,-3.709677 0.24,-3.769032 0.548208,-0.246505 8.077296,0.256801 8.379376,0.560147 0.180742,0.1815 0.421325,0.7935 0.534624,1.36 0.180298,0.90149 0.121158,1.03 -0.474,1.03 -0.503891,0 -0.68,-0.198318 -0.68,-0.765764 0,-0.98386 -0.495968,-1.154236 -3.36,-1.154236 -3.466106,0 -3.36,-0.107188 -3.36,3.394237 0,2.79243 -0.04542,3.005763 -0.64,3.005763 -0.602707,0 -0.64,-0.213333 -0.64,-3.661115 z m 12.028445,2.676563 C 61.93945,22.884161 61.76,22.325082 61.76,21.074412 c 0,-3.083928 0.824243,-3.770634 4.542157,-3.784234 2.437555,-0.0089 2.886502,0.07958 3.624621,0.714482 0.576252,0.495673 0.859964,1.077099 0.897846,1.84 l 0.05538,1.115341 -4.08,0.08956 c -4.442096,0.09751 -4.657373,0.210118 -3.416774,1.787284 0.594835,0.75621 0.877488,0.843155 2.741036,0.843155 1.142797,0 2.341226,-0.140974 2.663175,-0.313276 0.421033,-0.225331 0.690425,-0.18668 0.959622,0.137684 0.619693,0.746684 -0.619222,1.135592 -3.617574,1.135592 -2.636183,0 -2.73593,-0.02773 -3.54104,-0.984552 z M 69.76,19.625198 c 0,-0.118142 -0.238317,-0.478142 -0.529597,-0.8 -0.415737,-0.459388 -1.005024,-0.585197 -2.741037,-0.585197 -2.312972,0 -3.247132,0.291423 -3.561676,1.11111 -0.161248,0.420208 0.305494,0.48889 3.322352,0.48889 1.930476,0 3.509958,-0.09666 3.509958,-0.214803 z m 3.84,4.374803 c -0.83599,-0.835991 -0.82247,-2.37753 0.02832,-3.228314 0.608301,-0.608302 0.96752,-0.658588 4.000362,-0.56 3.219331,0.10465 3.332032,0.08528 3.331683,-0.572504 -6.4e-4,-1.18037 -0.721626,-1.44295 -3.777667,-1.375778 -1.575242,0.03462 -3.028116,-0.03843 -3.228605,-0.162337 -0.889082,-0.549479 0.253811,-0.821067 3.455197,-0.821067 4.402566,0 4.51071,0.09305 4.51071,3.881197 0,1.681736 -0.145773,2.856576 -0.384,3.094803 -0.251261,0.251259 -1.578666,0.384 -3.84,0.384 -3.029334,0 -3.535011,-0.07901 -4.096,-0.64 z m 7.211242,-0.658187 c 0.114953,-0.186003 0.119456,-0.694997 0.01002,-1.131097 -0.197514,-0.786953 -0.223549,-0.792225 -3.466375,-0.701813 -2.936957,0.08188 -3.279353,0.153678 -3.385913,0.709946 -0.205111,1.07064 0.819392,1.461151 3.833305,1.461151 1.62184,0 2.887898,-0.142296 3.008967,-0.338187 z M 84.16,20.778437 c 0,-3.722433 0.02317,-3.854209 0.643245,-3.657406 0.353785,0.112286 2.151101,0.201816 3.994035,0.198953 4.23257,-0.0066 4.32272,0.08417 4.32272,4.351219 0,2.425598 -0.08782,2.968798 -0.48,2.968798 -0.390621,0 -0.48,-0.52898 -0.48,-2.840818 0,-3.146722 -0.276867,-3.679319 -1.82065,-3.502305 l -0.89935,0.103123 -0.09159,3.12 c -0.07292,2.483983 -0.187075,3.12 -0.56,3.12 -0.375731,0 -0.468413,-0.557184 -0.468413,-2.816 0,-3.050813 -0.238029,-3.584 -1.6,-3.584 -1.361971,0 -1.6,0.533187 -1.6,3.584 0,2.289778 -0.0897,2.816 -0.48,2.816 -0.40015,0 -0.48,-0.642396 -0.48,-3.861564 z m 23.58,-4.985103 c -0.45297,-0.452965 -0.19665,-1.073333 0.44346,-1.073333 0.44735,0 0.62977,0.173776 0.56,0.533483 -0.11422,0.588953 -0.66048,0.882833 -1.00346,0.53985 z"
         id="path2836" />
      <path
         style="fill:#9fd753;stroke-width:0.32"
         d="M 17.6,31.987376 C 4.868208,31.167287 -0.84046899,25.782386 6.8585219,21.855116 7.7267088,21.412252 9.9587088,20.731349 11.818522,20.341999 L 15.2,19.634089 15.36,15.264646 c 0.18306,-4.999179 0.410273,-5.4740196 2.8,-5.8515752 l 1.36,-0.2148675 v 9.4808987 9.480899 h -1.294546 c -0.947788,0 -1.504937,-0.210391 -2.08,-0.785454 C 15.425887,26.654979 15.36,26.343299 15.36,23.658934 v -2.930159 l -1.094875,0.2054 C 12.339784,21.295371 10.110302,22.051187 9.0573869,22.699648 4.6128032,25.436944 8.3661402,28.885063 16.8,29.81264 c 2.904102,0.319401 3.281372,0.43863 4.08,1.289403 0.901534,0.9604 1.062252,1.254253 0.64,1.170167 -0.132,-0.02627 -1.896,-0.154461 -3.92,-0.284834 z m 5.12658,-0.642153 c -1.07284,-0.458275 -1.943435,-1.277251 -2.272572,-2.137826 -0.149899,-0.391932 -0.286811,-5.935933 -0.304248,-12.32 l -0.03171,-11.6073968 1.355929,0.03168 c 1.054159,0.02463 1.521742,0.2244489 2.100972,0.8978445 C 24.299415,7.0517578 24.32,7.2464963 24.32,13.257845 v 6.182156 l 1,0.2 c 0.55,0.11 1.350499,0.2 1.778885,0.2 0.437771,0 0.692272,0.140145 0.581115,0.32 -0.108774,0.176 -0.909272,0.32 -1.778885,0.32 H 24.32 v 3.636845 c 0,3.194756 0.08062,3.739338 0.663226,4.48 0.550297,0.69959 0.922208,0.843155 2.184219,0.843155 1.186792,0 1.677689,0.166795 2.234134,0.759103 0.66624,0.70918 0.675169,0.773858 0.13578,0.983485 -1.021571,0.397021 -5.984628,0.515533 -6.810779,0.162634 z m 7.078207,-1.377548 -0.706775,-0.752327 1.484636,-0.566988 C 32.568621,27.88991 34.24,26.394122 34.24,25.375239 c 0,-1.177586 -1.623968,-2.504546 -4.05534,-3.313654 -1.707203,-0.568121 -2.01002,-0.764335 -1.564435,-1.013697 0.753236,-0.421533 2.209975,-0.102921 4.513535,0.987181 2.329686,1.102464 3.66624,2.562349 3.66624,4.004541 0,1.362053 -1.859261,3.195619 -4.106099,4.04935 -2.069534,0.786361 -2.035065,0.787808 -2.889114,-0.121285 z M 40.213334,29.546668 C 39.775232,29.108566 40.02504,28.893538 40.8,29.041681 c 0.44,0.08411 0.8,0.0078 0.8,-0.169684 0,-0.177438 -0.36,-0.412969 -0.8,-0.523402 -0.497299,-0.124814 -0.8,-0.427686 -0.8,-0.800454 0,-0.673372 0.714448,-1.06228 1.44,-0.78386 0.724301,0.277941 0.576195,0.82938 -0.16,0.59572 -0.919942,-0.291978 -0.790365,0.30876 0.16,0.741775 0.44,0.200478 0.8,0.568185 0.8,0.817128 0,0.671216 -1.514192,1.140239 -2.026666,0.627764 z M 45.12,28.357306 c 0,-1.245631 0.09043,-1.419983 0.807638,-1.557085 0.444199,-0.08491 0.884698,-0.0297 0.978884,0.122695 0.09419,0.152397 -0.125248,0.277085 -0.487636,0.277085 -0.362387,0 -0.658886,0.144 -0.658886,0.32 0,0.176 0.216,0.32 0.48,0.32 0.264,0 0.48,0.144 0.48,0.32 0,0.176 -0.216,0.32 -0.48,0.32 -0.264,0 -0.48,0.144 -0.48,0.32 0,0.176 0.288,0.32 0.64,0.32 0.352,0 0.64,0.144 0.64,0.32 0,0.176 -0.432,0.32 -0.96,0.32 -0.920662,0 -0.96,-0.05748 -0.96,-1.402695 z m 4.8,-0.24953 v -1.689997 l 0.705427,0.705427 0.705427,0.705426 0.734573,-0.690096 L 52.8,26.44844 v 1.674666 c 0,1.124426 -0.114301,1.604024 -0.347878,1.459666 -0.191332,-0.11825 -0.276813,-0.486749 -0.189959,-0.818886 0.169936,-0.649833 -0.24616,-0.827548 -0.599395,-0.256002 -0.154822,0.250509 -0.312374,0.250509 -0.562886,0 -0.530538,-0.530538 -0.81778,-0.416005 -0.642045,0.256002 0.08685,0.332137 0.0013,0.700636 -0.189959,0.818886 C 50.034147,29.727225 49.92,29.243241 49.92,28.107776 Z m 6.175891,0.05222 c 0,-0.968 0.05999,-1.364 0.133309,-0.88 0.07332,0.484 0.07332,1.276 0,1.76 -0.07332,0.484 -0.133309,0.088 -0.133309,-0.88 z m 3.808109,1.216 c -1.102995,-1.102994 0.0743,-3.119925 1.548086,-2.652163 0.889005,0.282158 0.78368,0.847451 -0.11583,0.621688 -0.472086,-0.118486 -0.895488,-0.0038 -1.159184,0.313904 -0.598342,0.72096 0.148851,1.568623 1.159184,1.315046 0.830413,-0.20842 1.02961,0.287356 0.237571,0.591289 -0.759664,0.291511 -1.243542,0.236522 -1.669827,-0.189764 z m 5.44,0 c -0.2112,-0.2112 -0.384,-0.782133 -0.384,-1.268741 0,-1.601705 2.124022,-1.999813 2.903082,-0.544128 0.735769,1.374798 -1.411709,2.920242 -2.519082,1.812869 z m 1.987283,-0.776559 C 67.555408,28.015385 67.012797,27.200001 66.4,27.200001 c -0.220899,0 -0.580899,0.216 -0.8,0.48 -0.317821,0.382949 -0.317821,0.577051 0,0.96 0.526496,0.63439 1.480861,0.612032 1.731283,-0.04056 z m 3.768173,-0.439441 -0.03644,-1.76 0.720512,0.88 c 0.84766,1.035295 1.319059,1.139818 1.083833,0.240319 -0.092,-0.351825 -0.0368,-0.720323 0.122679,-0.818885 0.159478,-0.09856 0.289958,0.549294 0.289958,1.439681 0,1.781626 -0.305357,2.042097 -0.96,0.818885 -0.555485,-1.037933 -0.885248,-1.012827 -1.0508,0.08 -0.07332,0.484 -0.149706,0.088 -0.169744,-0.88 z m 5.380544,0.16 c 0,-1.363809 0.04741,-1.44 0.896,-1.44 0.4928,0 1.0688,0.1728 1.28,0.384 0.911149,0.91115 0.02294,2.496 -1.398858,2.496 -0.707724,0 -0.777142,-0.128627 -0.777142,-1.44 z m 1.76,-0.16 c 0,-0.49966 -0.20672,-0.831045 -0.560966,-0.899268 -0.633437,-0.121988 -1.045373,0.644233 -0.754237,1.402919 C 77.22999,29.458979 78.24,29.072202 78.24,28.160001 Z m 4.064,1.216 c -0.463357,-0.463355 -0.515475,-2.496 -0.064,-2.496 0.176,0 0.32,0.514559 0.32,1.143464 0,0.916093 0.111354,1.12237 0.56,1.03738 0.368816,-0.06987 0.594234,-0.460247 0.660275,-1.143464 0.131383,-1.359191 0.699725,-1.344067 0.699725,0.01862 0,1.147679 -0.474611,1.824 -1.28,1.824 -0.2816,0 -0.6848,-0.1728 -0.896,-0.384 z m 5.575888,-0.101827 C 87.593949,28.988236 87.36,28.498891 87.36,28.18674 c 0,-0.856077 1.114822,-1.722292 1.897069,-1.474017 0.959373,0.304493 0.814064,0.778114 -0.217069,0.707523 -0.741398,-0.05076 -0.88,0.06576 -0.88,0.739755 0,0.678869 0.136432,0.790442 0.901043,0.736875 0.577312,-0.04045 0.855731,0.07453 0.774935,0.32 -0.196832,0.59799 -1.38072,0.632668 -1.95609,0.0573 z M 93.76,28.480001 c 0,-0.94598 -0.130186,-1.28 -0.498886,-1.28 -0.274388,0 -0.432122,-0.108026 -0.350519,-0.240059 0.179751,-0.290842 2.047904,-0.268107 2.344544,0.02853 C 95.371478,27.104813 95.226669,27.2 94.933334,27.2 94.524445,27.2 94.4,27.498667 94.4,28.48 c 0,0.704 -0.144,1.28 -0.32,1.28 -0.176,0 -0.32,-0.576 -0.32,-1.279999 z m 4.544,0.896 c -0.2112,-0.2112 -0.384,-0.782133 -0.384,-1.268741 0,-1.601705 2.12402,-1.999813 2.90308,-0.544128 0.73577,1.374798 -1.411707,2.920242 -2.51908,1.812869 z m 1.98728,-0.776559 c 0.22853,-0.595533 -0.322483,-1.399441 -0.959203,-1.399441 -0.648992,0 -1.141645,1.102431 -0.693101,1.550978 0.534086,0.534086 1.420404,0.4528 1.652304,-0.151537 z M 104,28.373123 c 0,-1.545139 0.361,-1.892213 1.52,-1.461385 0.74272,0.276087 0.96462,1.059307 0.39914,1.408798 -0.21338,0.131874 -0.20961,0.406198 0.0113,0.818886 0.23216,0.433805 0.2294,0.620579 -0.009,0.620579 -0.18772,0 -0.42419,-0.216 -0.5255,-0.48 -0.10131,-0.264 -0.39328,-0.48 -0.64884,-0.48 -0.25556,0 -0.3818,0.13405 -0.28055,0.297889 0.10126,0.163839 0.0378,0.388337 -0.14111,0.498885 C 104.12353,29.721428 104,29.256647 104,28.373123 Z m 1.52,-0.613122 c -0.0733,-0.22 -0.32533,-0.4 -0.56,-0.4 -0.23467,0 -0.48667,0.18 -0.56,0.4 -0.0793,0.237949 0.14756,0.4 0.56,0.4 0.41244,0 0.63932,-0.162051 0.56,-0.4 z m 6.26092,1.69273 c -0.89012,-0.37769 -1.61868,-1.61273 -0.95136,-1.61273 0.24864,0 0.63134,0.216 0.85044,0.48 0.29552,0.35608 1.08371,0.48 3.05301,0.48 3.60377,0 3.66699,-0.03645 3.66699,-2.114236 v -1.725764 h -3.50186 c -4.2935,0 -4.49814,-0.169598 -4.49814,-3.727976 0,-2.132865 0.0658,-2.357318 0.87817,-2.996343 0.78778,-0.619663 1.19456,-0.679699 3.9517,-0.583225 1.99433,0.06978 3.25903,0.261753 3.60183,0.546726 0.45013,0.374198 0.5283,1.185182 0.5283,5.480818 0,4.296203 -0.0781,5.106571 -0.52844,5.480818 -0.62942,0.523115 -5.98335,0.744778 -7.05064,0.291912 z m 6.09341,-5.539765 c 0.45971,-0.336151 0.54003,-0.823761 0.46116,-2.8 l -0.0955,-2.392965 -2.99223,-0.09243 c -1.93119,-0.05966 -3.15101,0.03934 -3.44,0.279182 -0.70614,0.586046 -0.61629,4.643299 0.11223,5.067621 0.81598,0.475268 5.28339,0.429199 5.95433,-0.0614 z M 96.24,24.614369 c -0.491875,-0.286491 -0.56,-0.880906 -0.56,-4.886269 0,-3.120077 0.121261,-4.681362 0.384,-4.944099 0.251261,-0.25126 1.578666,-0.384 3.84,-0.384 3.02933,0 3.53501,0.07901 4.096,0.64 0.6521,0.652099 0.91696,2.99106 0.37652,3.325067 -0.14491,0.08956 -0.19991,1.373984 -0.12221,2.854273 0.18523,3.529065 -0.0695,3.744769 -4.405513,3.730929 C 98.171958,24.94492 96.548,24.793763 96.24,24.614369 Z m 6.93383,-0.808604 c 0.66712,-0.255999 0.7141,-3.394837 0.0589,-3.938565 -0.29076,-0.241315 -1.5502,-0.338986 -3.599996,-0.279182 l -3.152774,0.09198 -0.09818,1.721856 c -0.149453,2.621251 -0.178464,2.598144 3.261962,2.598144 1.663138,0 3.251648,-0.08741 3.530048,-0.194236 z m 0.12217,-5.629764 c 0.2112,-0.2112 0.384,-0.862764 0.384,-1.447921 0,-0.847606 -0.16689,-1.127371 -0.82083,-1.376 -1.17869,-0.448136 -5.6878,-0.39545 -6.15517,0.07192 -0.406314,0.406312 -0.532144,2.561188 -0.170666,2.922666 0.38921,0.38921 6.353306,0.238697 6.762666,-0.170666 z m 3.264,6.464 c 0,-0.176 0.216,-0.32 0.48,-0.32 0.39068,0 0.48,-0.529529 0.48,-2.845764 0,-2.23437 -0.10312,-2.885336 -0.48,-3.029956 -0.82489,-0.316541 -0.52485,-0.84428 0.48,-0.84428 h 0.96 v 3.210043 c 0,2.558175 0.0975,3.247448 0.48,3.394237 0.94931,0.364284 0.45206,0.75572 -0.96,0.75572 -0.792,0 -1.44,-0.144 -1.44,-0.32 z M 40.071363,24.370879 c -0.309158,-0.196195 -0.387056,-1.46085 -0.32,-5.1951 l 0.08864,-4.935778 3.2,-0.09355 c 1.76,-0.05145 3.521382,-0.01337 3.914179,0.08464 1.315386,0.328187 1.753437,1.806957 1.633847,5.515515 -0.103626,3.213576 -0.144586,3.38141 -1.005869,4.121694 -0.816435,0.701734 -1.17913,0.771263 -4,0.766807 -1.706186,-0.0027 -3.286042,-0.121595 -3.510794,-0.264222 z M 47.04,23.040001 c 0.550602,-0.550603 0.64,-1.066667 0.64,-3.694546 0,-2.816431 -0.06123,-3.115775 -0.785456,-3.84 -0.711386,-0.711386 -1.043322,-0.785454 -3.52,-0.785454 H 40.64 v 4.48 4.48 h 2.88 c 2.453334,0 2.974816,-0.09482 3.52,-0.64 z m 3.828826,1.546667 c -0.0061,-0.05867 -0.04215,-1.726697 -0.08,-3.706735 L 50.72,17.279865 l 3.84,0.005 c 2.112,0.0027 4.010992,0.113693 4.219981,0.24658 0.495081,0.314801 1.116669,1.958042 0.883424,2.335441 -0.323187,0.522927 -0.635613,0.312963 -1.009933,-0.678722 L 58.286634,18.216261 55.143315,18.30813 52,18.400001 51.84,21.414516 c -0.106534,2.00718 -0.293664,3.058675 -0.56,3.146667 -0.22,0.07268 -0.40503,0.08415 -0.411174,0.02548 z m 11.82656,-0.882052 C 61.882128,22.89136 61.76,22.533011 61.76,20.960001 c 0,-1.57301 0.122128,-1.931359 0.935386,-2.744615 0.8892,-0.889202 1.071612,-0.935385 3.694544,-0.935385 2.502812,0 2.832137,0.07298 3.544614,0.785454 0.538557,0.538555 0.785456,1.142088 0.785456,1.92 v 1.134546 h -4 c -3.786666,0 -4,0.03413 -4,0.64 0,1.348298 1.090141,1.92 3.661114,1.92 1.31574,0 2.4739,-0.150129 2.588489,-0.335538 0.140631,-0.227546 0.359661,-0.209152 0.680538,0.05715 0.816451,0.677594 -0.721178,1.214399 -3.514755,1.227047 -2.348666,0.01063 -2.562858,-0.0469 -3.44,-0.924046 z M 69.76,19.785198 c 0,-0.206142 -0.238317,-0.638142 -0.529597,-0.96 -0.426704,-0.471505 -1.013792,-0.585197 -3.021853,-0.585197 -2.192096,0 -2.550649,0.08336 -2.977059,0.69215 -0.26664,0.380682 -0.410307,0.812682 -0.319261,0.96 0.269844,0.436615 6.84777,0.333877 6.84777,-0.106953 z m 4.233043,4.461141 c -0.822611,-0.396447 -1.19584,-1.474137 -0.907878,-2.621474 0.281296,-1.120765 1.950029,-1.570567 5.194864,-1.400257 2.589875,0.135934 2.679971,0.117014 2.679971,-0.56279 0,-1.214663 -0.701958,-1.466037 -3.896614,-1.395395 -2.546,0.0563 -2.998554,-0.01117 -3.086848,-0.460226 -0.09077,-0.461608 0.311843,-0.526196 3.28,-0.526196 4.451392,0 4.663462,0.181389 4.663462,3.988741 0,2.350547 -0.08185,2.752546 -0.618963,3.04 -0.812432,0.434801 -6.374871,0.387303 -7.307994,-0.0624 z m 6.908199,-1.606183 C 81.029094,21.52902 80.097798,21.120001 77.44,21.120001 c -2.286835,0 -3.52,0.423228 -3.52,1.20808 0,1.157812 0.656102,1.377263 3.834688,1.282607 L 80.8,23.520001 Z M 84.16,20.975457 v -3.664544 l 3.871936,0.01648 c 5.043344,0.02146 5.088064,0.05902 5.088064,4.272608 0,2.488889 -0.08702,3.04 -0.48,3.04 -0.390621,0 -0.48,-0.52898 -0.48,-2.840818 0,-3.146722 -0.276867,-3.679319 -1.82065,-3.502305 l -0.89935,0.103123 -0.09159,3.12 c -0.07292,2.483983 -0.187075,3.12 -0.56,3.12 -0.375731,0 -0.468413,-0.557184 -0.468413,-2.816 0,-2.986937 -0.246192,-3.584 -1.477827,-3.584 -1.623731,0 -1.722173,0.194016 -1.722173,3.394237 0,2.458456 -0.0874,3.005763 -0.48,3.005763 -0.398723,0 -0.48,-0.620505 -0.48,-3.664544 z m 23.58,-5.182123 c -0.45297,-0.452965 -0.19665,-1.073333 0.44346,-1.073333 0.44735,0 0.62977,0.173776 0.56,0.533483 -0.11422,0.588953 -0.66048,0.882833 -1.00346,0.53985 z"
         id="path2834" />
      <path
         style="fill:#8bc53e;stroke-width:0.32"
         d="m 15.815301,31.719965 c 0.09519,-0.154021 -0.508311,-0.215092 -1.341114,-0.135716 -1.158074,0.11038 -1.401298,0.06107 -1.034187,-0.209683 0.380098,-0.280327 0.307426,-0.314117 -0.349169,-0.162352 C 12.008028,31.462492 8.5584077,30.562343 6.6632883,29.535002 3.3192512,27.722205 2.4820858,25.606879 4.336,23.654474 5.7656067,22.148918 8.0786797,21.124932 11.818522,20.341999 L 15.2,19.634089 15.36,15.289193 c 0.132424,-3.596053 0.259816,-4.454942 0.739148,-4.9834 0.572176,-0.6308159 2.287045,-1.2012236 1.944356,-0.6467401 -0.09862,0.1595748 0.189325,0.1946256 0.649684,0.079083 L 19.52,9.5306193 v 9.2769677 9.276969 l -1.314132,0.01814 c -0.975231,0.01346 -1.511641,-0.179373 -2.08,-0.747732 C 15.426026,26.655118 15.36,26.328206 15.36,23.562927 v -3.026166 l -1.930074,0.450256 C 11.139789,21.521269 9.1328016,22.478539 7.92,23.615076 c -2.7238227,2.552542 1.3347398,5.416594 8.86417,6.255282 3.027151,0.337187 3.379279,0.446911 4.010406,1.249643 l 0.691875,0.880001 H 18.56434 c -1.607161,0 -2.844228,-0.126017 -2.749039,-0.280037 z M 12.16,30.880001 c 0,-0.088 -0.072,-0.16 -0.16,-0.16 -0.088,0 -0.16,0.072 -0.16,0.16 0,0.088 0.072,0.16 0.16,0.16 0.088,0 0.16,-0.072 0.16,-0.16 z m -1.066667,-0.373333 c -0.117333,-0.117333 -0.309333,-0.117333 -0.426666,0 -0.117334,0.117333 -0.02133,0.213333 0.213333,0.213333 0.234667,0 0.330667,-0.096 0.213333,-0.213333 z M 9.92,30.240001 c 0,-0.088 -0.072,-0.16 -0.16,-0.16 -0.088,0 -0.16,0.072 -0.16,0.16 0,0.088 0.072,0.16 0.16,0.16 0.088,0 0.16,-0.072 0.16,-0.16 z m -0.96,-0.32 c 0,-0.088 -0.072,-0.16 -0.16,-0.16 -0.088,0 -0.16,0.072 -0.16,0.16 0,0.088 0.072,0.16 0.16,0.16 0.088,0 0.16,-0.072 0.16,-0.16 z m -0.64,-0.32 c 0,-0.088 -0.072,-0.16 -0.16,-0.16 -0.088,0 -0.16,0.072 -0.16,0.16 0,0.088 0.072,0.16 0.16,0.16 0.088,0 0.16,-0.072 0.16,-0.16 z m -0.64,-0.32 c 0,-0.088 -0.072,-0.16 -0.16,-0.16 -0.088,0 -0.16,0.072 -0.16,0.16 0,0.088 0.072,0.16 0.16,0.16 0.088,0 0.16,-0.072 0.16,-0.16 z m -0.64,-0.32 c 0,-0.088 -0.072,-0.16 -0.16,-0.16 -0.088,0 -0.16,0.072 -0.16,0.16 0,0.088 0.072,0.16 0.16,0.16 0.088,0 0.16,-0.072 0.16,-0.16 z M 6.4,28.695782 c 0,-0.05732 -0.396,-0.453321 -0.88,-0.88 l -0.88,-0.775781 0.7757805,0.88 C 6.1408643,28.742494 6.4,28.94675 6.4,28.695782 Z m 11.52,-1.015781 c 0,-0.088 -0.072,-0.16 -0.16,-0.16 -0.088,0 -0.16,0.072 -0.16,0.16 0,0.088 0.072,0.16 0.16,0.16 0.088,0 0.16,-0.072 0.16,-0.16 z m -0.64,-0.32 c 0,-0.088 -0.072,-0.16 -0.16,-0.16 -0.088,0 -0.16,0.072 -0.16,0.16 0,0.088 0.072,0.16 0.16,0.16 0.088,0 0.16,-0.072 0.16,-0.16 z m -12.48,-0.64 c 0,-0.088 -0.072,-0.16 -0.16,-0.16 -0.088,0 -0.16,0.072 -0.16,0.16 0,0.088 0.072,0.16 0.16,0.16 0.088,0 0.16,-0.072 0.16,-0.16 z m 12.16,0 c 0,-0.088 -0.072,-0.16 -0.16,-0.16 -0.088,0 -0.16,0.072 -0.16,0.16 0,0.088 0.072,0.16 0.16,0.16 0.088,0 0.16,-0.072 0.16,-0.16 z m -12.16,-1.92 c 0,-0.088 -0.072,-0.16 -0.16,-0.16 -0.088,0 -0.16,0.072 -0.16,0.16 0,0.088 0.072,0.16 0.16,0.16 0.088,0 0.16,-0.072 0.16,-0.16 z m 0.96,-1.28 c 0.4133584,-0.44 0.679561,-0.8 0.591561,-0.8 -0.088,0 -0.4982026,0.36 -0.911561,0.8 -0.4133584,0.44 -0.679561,0.8 -0.591561,0.8 0.088,0 0.4982026,-0.36 0.911561,-0.8 z m 1.28,-0.96 c 0,-0.088 -0.072,-0.16 -0.16,-0.16 -0.088,0 -0.16,0.072 -0.16,0.16 0,0.088 0.072,0.16 0.16,0.16 0.088,0 0.16,-0.072 0.16,-0.16 z m 0.64,-0.32 c 0,-0.088 -0.072,-0.16 -0.16,-0.16 -0.088,0 -0.16,0.072 -0.16,0.16 0,0.088 0.072,0.16 0.16,0.16 0.088,0 0.16,-0.072 0.16,-0.16 z m 0.64,-0.32 c 0,-0.088 -0.072,-0.16 -0.16,-0.16 -0.088,0 -0.16,0.072 -0.16,0.16 0,0.088 0.072,0.16 0.16,0.16 0.088,0 0.16,-0.072 0.16,-0.16 z m 0.64,-0.32 c 0,-0.088 -0.072,-0.16 -0.16,-0.16 -0.088,0 -0.16,0.072 -0.16,0.16 0,0.088 0.072,0.16 0.16,0.16 0.088,0 0.16,-0.072 0.16,-0.16 z m 0.96,-0.32 c 0,-0.088 -0.072,-0.16 -0.16,-0.16 -0.088,0 -0.16,0.072 -0.16,0.16 0,0.088 0.072,0.16 0.16,0.16 0.088,0 0.16,-0.072 0.16,-0.16 z m 1.173333,-0.373333 c -0.117333,-0.117334 -0.309333,-0.117334 -0.426666,0 -0.117334,0.117333 -0.02133,0.213333 0.213333,0.213333 0.234667,0 0.330667,-0.096 0.213333,-0.213333 z m 1.28,-0.32 c -0.117333,-0.117334 -0.309333,-0.117334 -0.426666,0 -0.117334,0.117333 -0.02133,0.213333 0.213333,0.213333 0.234667,0 0.330667,-0.096 0.213333,-0.213333 z m 1.6,-0.32 c -0.117333,-0.117334 -0.309333,-0.117334 -0.426666,0 -0.117334,0.117333 -0.02133,0.213333 0.213333,0.213333 0.234667,0 0.330667,-0.096 0.213333,-0.213333 z M 16,20.160001 c 0,-0.176 -0.152499,-0.32 -0.338885,-0.32 -0.186387,0 -0.249889,0.144 -0.141115,0.32 0.108774,0.176 0.261272,0.32 0.338885,0.32 0.07761,0 0.141115,-0.144 0.141115,-0.32 z m 0.96,-9.12 c 0,-0.088 -0.072,-0.16 -0.16,-0.16 -0.088,0 -0.16,0.072 -0.16,0.16 0,0.088 0.072,0.16 0.16,0.16 0.088,0 0.16,-0.072 0.16,-0.16 z M 17.44,10.24 c 0.108774,-0.176 0.125771,-0.3199995 0.03777,-0.3199995 -0.088,0 -0.248997,0.1439995 -0.357771,0.3199995 -0.108774,0.176 -0.125771,0.32 -0.03777,0.32 0.088,0 0.248997,-0.144 0.357771,-0.32 z m 5.28658,21.104696 C 21.654141,30.887305 20.783253,30.068255 20.454008,29.207397 20.161237,28.441905 19.99412,5.4992137 20.279238,5.2140953 20.617781,4.8755529 22.769141,5.4891417 23.377849,6.0978489 23.952331,6.6723309 24,7.2075123 24,13.082679 c 0,6.327828 0.0039,6.363735 0.72,6.55563 0.396,0.106124 1.188,0.194919 1.76,0.197322 0.572,0.0024 1.04,0.161607 1.04,0.353786 0,0.222078 -0.612243,0.309541 -1.68,0.24 l -1.68,-0.109416 -0.101621,2.24 c -0.145178,3.200093 0.201271,5.539651 0.927935,6.266314 0.415754,0.415755 1.060137,0.613686 1.997906,0.613686 1.042467,0 1.560108,0.187225 2.096632,0.758329 l 0.712412,0.758328 -0.736632,0.205626 c -1.434188,0.400342 -5.541555,0.518703 -6.330052,0.182412 z m 1.166753,-0.198028 c -0.117333,-0.117333 -0.309333,-0.117333 -0.426666,0 -0.117334,0.117333 -0.02133,0.213333 0.213333,0.213333 0.234667,0 0.330667,-0.096 0.213333,-0.213333 z M 23.04,30.880001 c 0,-0.088 -0.072,-0.16 -0.16,-0.16 -0.088,0 -0.16,0.072 -0.16,0.16 0,0.088 0.072,0.16 0.16,0.16 0.088,0 0.16,-0.072 0.16,-0.16 z m -0.64,-0.32 c 0,-0.088 -0.072,-0.16 -0.16,-0.16 -0.088,0 -0.16,0.072 -0.16,0.16 0,0.088 0.072,0.16 0.16,0.16 0.088,0 0.16,-0.072 0.16,-0.16 z M 21.870425,29.5862 c -0.10422,-0.27159 -0.25812,-0.425171 -0.342001,-0.341289 -0.08388,0.08388 -0.05759,0.306091 0.05842,0.4938 0.315536,0.510548 0.499962,0.411364 0.283583,-0.152511 z M 21.333333,27.946668 C 21.216,27.829335 21.12,27.925335 21.12,28.160001 c 0,0.234667 0.096,0.330667 0.213333,0.213334 0.117334,-0.117334 0.117334,-0.309334 0,-0.426667 z m 8.471454,2.021007 -0.706775,-0.752327 1.484636,-0.566988 C 32.568621,27.88991 34.24,26.394122 34.24,25.375239 c 0,-1.177586 -1.623968,-2.504546 -4.05534,-3.313654 -1.707203,-0.568121 -2.01002,-0.764335 -1.564435,-1.013697 0.753236,-0.421533 2.209975,-0.102921 4.513535,0.987181 2.329686,1.102464 3.66624,2.562349 3.66624,4.004541 0,1.362053 -1.859261,3.195619 -4.106099,4.04935 -2.069534,0.786361 -2.035065,0.787808 -2.889114,-0.121285 z M 40.32,29.434133 c -0.377578,-0.248625 -0.316822,-0.298791 0.284726,-0.2351 1.0456,0.110707 1.21952,-0.593368 0.20921,-0.84694 C 40.304256,28.224172 40,27.923647 40,27.548141 c 0,-0.673372 0.714448,-1.06228 1.44,-0.78386 0.78248,0.300265 0.546307,0.679646 -0.32,0.514041 -1.123546,-0.21478 -0.999926,0.429376 0.16,0.833729 1.037734,0.361756 1.175622,0.664329 0.576,1.26395 -0.463306,0.463307 -0.895818,0.479676 -1.536,0.05813 z m 5.52,0.100034 c -0.601021,-0.115762 -0.72,-0.346518 -0.72,-1.396422 0,-1.212203 0.03766,-1.256589 1.04,-1.225846 0.886426,0.02719 0.93089,0.06263 0.301114,0.24 -0.881156,0.248172 -0.969703,0.745512 -0.18193,1.021847 0.485421,0.170277 0.454448,0.235157 -0.21632,0.453118 L 45.28,28.881249 46,29.022881 c 0.396,0.0779 0.72,0.275618 0.72,0.439377 0,0.163759 -0.036,0.278133 -0.08,0.254165 -0.044,-0.02397 -0.404,-0.105983 -0.8,-0.182256 z M 60.08,29.41437 c -1.1984,-0.698004 -0.05634,-3.132193 1.236736,-2.635992 0.739421,0.283742 0.495693,0.662896 -0.325242,0.505964 -0.587718,-0.112349 -0.82278,0.02409 -0.999216,0.579992 -0.282368,0.889659 0.504768,1.580592 1.542596,1.354061 0.569145,-0.12423 0.61256,-0.08779 0.225126,0.188948 -0.59367,0.424052 -0.96137,0.42559 -1.68,0.007 z m 5.365827,-0.174255 c -0.662803,-0.662803 -0.512864,-1.683256 0.329015,-2.239209 0.5571,-0.367894 0.760092,-0.358718 1.36,0.06147 0.875408,0.61316 0.922956,1.918543 0.08619,2.366364 -0.845456,0.452475 -1.168423,0.418157 -1.77521,-0.188628 z m 2.013591,-1.181765 c -0.168317,-1.182315 -2.147517,-1.037784 -2.174519,0.158794 -0.0026,0.119429 0.221101,0.443143 0.497325,0.719366 0.690064,0.690065 1.81649,0.100282 1.677194,-0.87816 z m 14.96344,1.198794 c -0.54154,-0.541537 -0.697655,-2.377143 -0.202176,-2.377143 0.165376,0 0.345376,0.54 0.4,1.2 0.06697,0.809193 0.255641,1.2 0.579318,1.2 0.323677,0 0.512346,-0.390807 0.579318,-1.2 0.05462,-0.66 0.205709,-1.2 0.335741,-1.2 0.365178,0 0.0087,2.369552 -0.39639,2.6351 -0.524458,0.343771 -0.736247,0.30161 -1.295811,-0.257957 z m 5.466739,-0.08234 C 87.176496,28.386838 87.222758,27.65242 88.020701,27.093518 88.670806,26.638167 89.92,26.713046 89.92,27.207365 c 0,0.138996 -0.288768,0.177206 -0.641706,0.08491 C 88.650285,27.128047 87.68,27.664732 87.68,28.176326 c 0,0.600665 1.059146,1.276537 1.713718,1.093575 0.544666,-0.152241 0.587232,-0.122477 0.206282,0.144238 -0.690515,0.483451 -1.109328,0.424847 -1.710403,-0.239335 z m 10.533261,0.08234 c -1.033386,-1.033386 -0.396365,-2.377143 1.126905,-2.377143 1.314017,0 1.791497,1.927811 0.631277,2.548742 -0.840925,0.450047 -1.168509,0.418075 -1.758182,-0.171599 z m 1.845202,-0.512693 c 0.47559,-0.753967 0.016,-1.54445 -0.898018,-1.54445 -0.445524,0 -0.810042,0.06022 -0.810042,0.133828 0,0.07361 -0.08028,0.343039 -0.178403,0.59874 -0.20329,0.529765 0.718797,1.593968 1.232685,1.422672 0.186998,-0.06233 0.481198,-0.337188 0.653778,-0.61079 z m 5.15275,0.354345 c -0.56527,-0.624621 -0.62114,-0.63009 -1.0096,-0.09884 C 104.05222,29.490911 104,29.392014 104,28.221163 c 0,-1.265824 0.052,-1.341162 0.92576,-1.341162 1.03477,0 1.54134,0.780784 0.96058,1.48056 -0.27447,0.330717 -0.26614,0.558199 0.0337,0.91944 0.60292,0.72647 0.18493,0.574742 -0.49919,-0.181205 z M 105.6,27.680001 c 0,-0.266666 -0.28444,-0.48 -0.64,-0.48 -0.35556,0 -0.64,0.213334 -0.64,0.48 0,0.266667 0.28444,0.48 0.64,0.48 0.35556,0 0.64,-0.213333 0.64,-0.48 z m -55.636422,0.56 c -0.02397,-0.748 0.09192,-1.36 0.257536,-1.36 0.469257,0 0.77887,0.687954 0.412144,0.915777 -0.180804,0.112323 -0.395642,0.564223 -0.477418,1.004223 -0.0976,0.525117 -0.163658,0.332698 -0.192262,-0.56 z m 2.516422,0.4 c 0,-0.907774 -0.468458,-1.068597 -0.776253,-0.26649 -0.151897,0.395837 -0.297817,0.440421 -0.565462,0.172774 -0.267648,-0.267648 -0.161722,-0.526437 0.410489,-1.002864 C 52.640083,26.634789 52.8,26.713593 52.8,28.160001 c 0,0.704 -0.072,1.28 -0.16,1.28 -0.088,0 -0.16,-0.36 -0.16,-0.8 z m 3.607155,-0.48 c 0,-0.792 0.06241,-1.116 0.138679,-0.72 0.07628,0.396 0.07628,1.044 0,1.44 -0.07627,0.396 -0.138679,0.072 -0.138679,-0.72 z m 14.990704,0.08 c -0.04278,-1.536707 0.290957,-1.739379 0.922141,-0.56 0.555485,1.037933 0.885248,1.012828 1.0508,-0.08 0.0936,-0.617881 0.14759,-0.474907 0.181254,0.48 0.05554,1.575508 -0.278188,1.720482 -1.104963,0.48 l -0.586515,-0.88 -0.212426,0.96 c -0.19263,0.870531 -0.215958,0.833253 -0.250291,-0.4 z m 5.402141,-0.08 c 0,-1.28907 0.02403,-1.318159 1.007728,-1.220274 2.037274,0.20272 2.037274,2.237829 0,2.440549 C 76.504022,29.47816 76.48,29.449072 76.48,28.160001 Z m 1.76,0 c 0,-0.585998 -0.192602,-0.827354 -0.72,-0.902256 -0.615472,-0.08741 -0.72,0.04358 -0.72,0.902256 0,0.858682 0.104528,0.989668 0.72,0.902257 0.527398,-0.0749 0.72,-0.316259 0.72,-0.902257 z m 15.52,0.183464 c 0,-0.775237 -0.164086,-1.139417 -0.56,-1.242879 -0.308,-0.08049 0.016,-0.15168 0.72,-0.158201 0.704,-0.0065 1.1,0.06077 0.88,0.149546 -0.22,0.08877 -0.4,0.653404 -0.4,1.254737 0,0.601333 -0.144,1.093333 -0.32,1.093333 -0.176,0 -0.32,-0.493441 -0.32,-1.096536 z m 17.22,0.396536 c -0.44606,-0.44606 -0.56318,-0.745605 -0.32286,-0.825714 0.20743,-0.06914 0.59906,0.0962 0.87029,0.36743 0.65445,0.654451 2.35079,0.947537 4.468,0.771961 2.30657,-0.191278 2.7245,-0.592022 2.72488,-2.612859 l 3.1e-4,-1.640818 -3.21024,0.110297 c -4.52532,0.15548 -4.79038,-0.04517 -4.79038,-3.626415 0,-2.343254 0.082,-2.745278 0.61896,-3.032623 0.77341,-0.413915 6.73062,-0.428967 7.38104,-0.01865 0.38256,0.241341 0.5011,1.251183 0.58393,4.974748 0.14067,6.323539 0.20296,6.232643 -4.27131,6.232643 -3.02174,0 -3.4217,-0.06908 -4.05262,-0.7 z m 7.23714,-4.922857 c 0.35192,-0.351919 0.50286,-1.114887 0.50286,-2.541855 0,-2.66322 -0.47071,-3.035288 -3.84,-3.035288 -3.34314,0 -3.84,0.382087 -3.84,2.952948 0,2.838295 0.35706,3.127052 3.86674,3.127052 2.12565,0 2.92968,-0.122134 3.3104,-0.502857 z M 96.391203,24.461856 C 95.716938,23.989583 95.68,23.742858 95.68,19.711452 c 0,-5.34145 -0.02125,-5.313421 4.025197,-5.306734 3.781123,0.0062 4.424513,0.337986 4.553353,2.347775 0.0564,0.880543 -0.0676,1.737456 -0.29044,2.005932 -0.29463,0.355011 -0.29913,0.558554 -0.0186,0.839138 0.40969,0.40969 0.50078,3.70205 0.11903,4.302419 -0.70791,1.113314 -6.305246,1.522959 -7.677386,0.561874 z m 6.897597,-0.64 c 0.54448,-0.381369 0.71005,-0.812705 0.7063,-1.84 -0.006,-1.622093 -0.21975,-1.99978 -1.38244,-2.441836 -0.96519,-0.366963 -4.401242,-0.452255 -5.57266,-0.138328 -0.648237,0.173721 -0.72,0.390173 -0.72,2.171631 0,1.112305 0.168138,2.146814 0.384,2.362678 0.595168,0.595168 5.69841,0.506705 6.5848,-0.114145 z m 0.0712,-5.581855 c 0.352,-0.352 0.64,-0.928 0.64,-1.28 0,-0.352 -0.288,-0.928 -0.64,-1.28 -0.54303,-0.543031 -1.06667,-0.64 -3.456,-0.64 -1.763555,0 -2.959514,0.143515 -3.2,0.384 -0.404768,0.404767 -0.534957,2.878376 -0.170666,3.242666 0.117332,0.117334 1.557332,0.213334 3.2,0.213334 2.559996,0 3.078096,-0.09143 3.626666,-0.64 z m 3.52,6.434237 c 0,-0.15717 0.216,-0.368651 0.48,-0.469957 0.37446,-0.143694 0.48,-0.780962 0.48,-2.898336 0,-2.247309 -0.0963,-2.770244 -0.56,-3.040312 -0.50012,-0.291292 -0.48301,-0.327211 0.16,-0.335901 0.69363,-0.0094 0.72,0.0949 0.72,2.847412 0,2.113016 0.12501,2.982156 0.48,3.337143 0.70668,0.706683 0.60147,0.845714 -0.64,0.845714 -0.616,0 -1.12,-0.128593 -1.12,-0.285763 z M 40.071363,24.370879 c -0.309158,-0.196195 -0.387056,-1.46085 -0.32,-5.1951 l 0.08864,-4.935778 3.2,-0.09355 c 1.76,-0.05145 3.521382,-0.01337 3.914179,0.08464 1.315386,0.328187 1.753437,1.806957 1.633847,5.515515 -0.103626,3.213576 -0.144586,3.38141 -1.005869,4.121694 -0.816435,0.701734 -1.17913,0.771263 -4,0.766807 -1.706186,-0.0027 -3.286042,-0.121595 -3.510794,-0.264222 z M 47.04,23.040001 c 0.550602,-0.550603 0.64,-1.066667 0.64,-3.694546 0,-2.816431 -0.06123,-3.115775 -0.785456,-3.84 -0.711386,-0.711386 -1.043322,-0.785454 -3.52,-0.785454 H 40.64 v 4.48 4.48 h 2.88 c 2.453334,0 2.974816,-0.09482 3.52,-0.64 z m 3.828826,1.546667 c -0.0061,-0.05867 -0.04215,-1.726697 -0.08,-3.706735 L 50.72,17.279865 l 3.84,0.005 c 2.112,0.0027 4.010992,0.113693 4.219981,0.24658 0.495081,0.314801 1.116669,1.958042 0.883424,2.335441 -0.323187,0.522927 -0.635613,0.312963 -1.009933,-0.678722 L 58.286634,18.216261 55.143315,18.30813 52,18.400001 51.84,21.414516 c -0.106534,2.00718 -0.293664,3.058675 -0.56,3.146667 -0.22,0.07268 -0.40503,0.08415 -0.411174,0.02548 z m 11.82656,-0.882052 C 61.882128,22.89136 61.76,22.533011 61.76,20.960001 c 0,-1.57301 0.122128,-1.931359 0.935386,-2.744615 0.8892,-0.889202 1.071612,-0.935385 3.694544,-0.935385 2.502812,0 2.832137,0.07298 3.544614,0.785454 0.538557,0.538555 0.785456,1.142088 0.785456,1.92 v 1.134546 h -4 c -3.786666,0 -4,0.03413 -4,0.64 0,1.348298 1.090141,1.92 3.661114,1.92 1.31574,0 2.4739,-0.150129 2.588489,-0.335538 0.140631,-0.227546 0.359661,-0.209152 0.680538,0.05715 0.816451,0.677594 -0.721178,1.214399 -3.514755,1.227047 -2.348666,0.01063 -2.562858,-0.0469 -3.44,-0.924046 z M 69.76,19.785198 c 0,-0.206142 -0.238317,-0.638142 -0.529597,-0.96 -0.426704,-0.471505 -1.013792,-0.585197 -3.021853,-0.585197 -2.192096,0 -2.550649,0.08336 -2.977059,0.69215 -0.26664,0.380682 -0.410307,0.812682 -0.319261,0.96 0.269844,0.436615 6.84777,0.333877 6.84777,-0.106953 z m 4.233043,4.461141 c -0.822611,-0.396447 -1.19584,-1.474137 -0.907878,-2.621474 0.281296,-1.120765 1.950029,-1.570567 5.194864,-1.400257 2.589875,0.135934 2.679971,0.117014 2.679971,-0.56279 0,-1.214663 -0.701958,-1.466037 -3.896614,-1.395395 -2.546,0.0563 -2.998554,-0.01117 -3.086848,-0.460226 -0.09077,-0.461608 0.311843,-0.526196 3.28,-0.526196 4.451392,0 4.663462,0.181389 4.663462,3.988741 0,2.350547 -0.08185,2.752546 -0.618963,3.04 -0.812432,0.434801 -6.374871,0.387303 -7.307994,-0.0624 z m 6.908199,-1.606183 C 81.029094,21.52902 80.097798,21.120001 77.44,21.120001 c -2.286835,0 -3.52,0.423228 -3.52,1.20808 0,1.157812 0.656102,1.377263 3.834688,1.282607 L 80.8,23.520001 Z M 84.16,20.975457 v -3.664544 l 3.871936,0.01648 c 5.043344,0.02146 5.088064,0.05902 5.088064,4.272608 0,2.488889 -0.08702,3.04 -0.48,3.04 -0.390621,0 -0.48,-0.52898 -0.48,-2.840818 0,-3.146722 -0.276867,-3.679319 -1.82065,-3.502305 l -0.89935,0.103123 -0.09159,3.12 c -0.07292,2.483983 -0.187075,3.12 -0.56,3.12 -0.375731,0 -0.468413,-0.557184 -0.468413,-2.816 0,-2.986937 -0.246192,-3.584 -1.477827,-3.584 -1.623731,0 -1.722173,0.194016 -1.722173,3.394237 0,2.458456 -0.0874,3.005763 -0.48,3.005763 -0.398723,0 -0.48,-0.620505 -0.48,-3.664544 z m 23.36,-5.775456 c 0,-0.264 0.216,-0.48 0.48,-0.48 0.264,0 0.48,0.216 0.48,0.48 0,0.264 -0.216,0.48 -0.48,0.48 -0.264,0 -0.48,-0.216 -0.48,-0.48 z"
         id="path2832" />
      <path
         style="fill:#747485;stroke-width:0.32"
         d="m 13.38,31.461405 c 0.231,-0.09244 0.507,-0.08107 0.613333,0.02526 0.106334,0.106333 -0.08267,0.181965 -0.42,0.16807 -0.372781,-0.01535 -0.448608,-0.09118 -0.193333,-0.193333 z m 9.98,0.0586 c 0,-0.088 0.072,-0.16 0.16,-0.16 0.088,0 0.16,0.072 0.16,0.16 0,0.088 -0.072,0.16 -0.16,0.16 -0.088,0 -0.16,-0.072 -0.16,-0.16 z m -11.58,-0.3786 c 0.231,-0.09244 0.507,-0.08107 0.613333,0.02526 0.106334,0.106333 -0.08267,0.181965 -0.42,0.16807 -0.372781,-0.01535 -0.448608,-0.09118 -0.193333,-0.193333 z m 9.839257,-0.463427 C 21.142379,30.302865 20.623788,29.658193 20.466835,29.245374 20.037081,28.115035 20.024945,5.3250188 20.45402,5.1819935 20.697475,5.1008418 20.8,8.2939985 20.8,15.957583 c 0,11.892698 0.186773,13.719459 1.50906,14.75957 0.449488,0.353567 0.673249,0.642848 0.497249,0.642848 -0.176,0 -0.710173,-0.30691 -1.187052,-0.682023 z M 10.5,30.821405 c 0.231,-0.09244 0.507,-0.08107 0.613333,0.02526 0.106334,0.106333 -0.08267,0.181965 -0.42,0.16807 C 10.320552,30.999386 10.244725,30.923558 10.5,30.821406 Z M 7.1600621,29.769481 C 2.0963083,27.239093 2.1116,24.157081 7.2,21.720063 10.002443,20.377873 10.358967,20.594492 7.6607389,22.000001 2.9020457,24.478808 3.0883195,27.391014 8.16,29.805455 9.216,30.308178 9.851,30.71961 9.571111,30.719749 9.2912224,30.719888 8.2062502,30.292267 7.1600621,29.769481 Z M 29.804787,29.967675 29.098012,29.215348 30.582648,28.64836 C 32.568621,27.88991 34.24,26.394122 34.24,25.375239 c 0,-1.177586 -1.623968,-2.504546 -4.05534,-3.313654 -1.707203,-0.568121 -2.01002,-0.764335 -1.564435,-1.013697 0.753236,-0.421533 2.209975,-0.102921 4.513535,0.987181 2.329686,1.102464 3.66624,2.562349 3.66624,4.004541 0,1.362053 -1.859261,3.195619 -4.106099,4.04935 -2.069534,0.786361 -2.035065,0.787808 -2.889114,-0.121285 z M 16.133413,27.362505 C 15.3828,26.611892 15.341328,26.392371 15.427959,23.62839 c 0.06257,-1.996245 0.22013,-2.979066 0.492041,-3.069171 0.301129,-0.09979 0.4,0.61479 0.4,2.890961 0,2.574263 0.09855,3.148792 0.663226,3.866666 0.841519,1.069819 0.208365,1.103837 -0.849813,0.04566 z m 23.93795,-2.991626 c -0.309158,-0.196195 -0.387056,-1.46085 -0.32,-5.1951 l 0.08864,-4.935778 3.2,-0.09355 c 1.76,-0.05145 3.521382,-0.01337 3.914179,0.08464 1.315386,0.328187 1.753437,1.806957 1.633847,5.515515 -0.103626,3.213576 -0.144586,3.38141 -1.005869,4.121694 -0.816435,0.701734 -1.17913,0.771263 -4,0.766807 -1.706186,-0.0027 -3.286042,-0.121595 -3.510794,-0.264222 z M 47.04,23.040001 c 0.550602,-0.550603 0.64,-1.066667 0.64,-3.694546 0,-2.816431 -0.06123,-3.115775 -0.785456,-3.84 -0.711386,-0.711386 -1.043322,-0.785454 -3.52,-0.785454 H 40.64 v 4.48 4.48 h 2.88 c 2.453334,0 2.974816,-0.09482 3.52,-0.64 z m 3.828826,1.546667 c -0.0061,-0.05867 -0.04215,-1.726697 -0.08,-3.706735 L 50.72,17.279865 l 3.84,0.005 c 2.112,0.0027 4.010992,0.113693 4.219981,0.24658 0.495081,0.314801 1.116669,1.958042 0.883424,2.335441 -0.323187,0.522927 -0.635613,0.312963 -1.009933,-0.678722 L 58.286634,18.216261 55.143315,18.30813 52,18.400001 51.84,21.414516 c -0.106534,2.00718 -0.293664,3.058675 -0.56,3.146667 -0.22,0.07268 -0.40503,0.08415 -0.411174,0.02548 z m 11.82656,-0.882052 C 61.882128,22.89136 61.76,22.533011 61.76,20.960001 c 0,-1.57301 0.122128,-1.931359 0.935386,-2.744615 0.8892,-0.889202 1.071612,-0.935385 3.694544,-0.935385 2.502812,0 2.832137,0.07298 3.544614,0.785454 0.538557,0.538555 0.785456,1.142088 0.785456,1.92 v 1.134546 h -4 c -3.786666,0 -4,0.03413 -4,0.64 0,1.348298 1.090141,1.92 3.661114,1.92 1.31574,0 2.4739,-0.150129 2.588489,-0.335538 0.140631,-0.227546 0.359661,-0.209152 0.680538,0.05715 0.816451,0.677594 -0.721178,1.214399 -3.514755,1.227047 -2.348666,0.01063 -2.562858,-0.0469 -3.44,-0.924046 z M 69.76,19.785198 c 0,-0.206142 -0.238317,-0.638142 -0.529597,-0.96 -0.426704,-0.471505 -1.013792,-0.585197 -3.021853,-0.585197 -2.192096,0 -2.550649,0.08336 -2.977059,0.69215 -0.26664,0.380682 -0.410307,0.812682 -0.319261,0.96 0.269844,0.436615 6.84777,0.333877 6.84777,-0.106953 z m 4.233043,4.461141 c -0.822611,-0.396447 -1.19584,-1.474137 -0.907878,-2.621474 0.281296,-1.120765 1.950029,-1.570567 5.194864,-1.400257 2.589875,0.135934 2.679971,0.117014 2.679971,-0.56279 0,-1.214663 -0.701958,-1.466037 -3.896614,-1.395395 -2.546,0.0563 -2.998554,-0.01117 -3.086848,-0.460226 -0.09077,-0.461608 0.311843,-0.526196 3.28,-0.526196 4.451392,0 4.663462,0.181389 4.663462,3.988741 0,2.350547 -0.08185,2.752546 -0.618963,3.04 -0.812432,0.434801 -6.374871,0.387303 -7.307994,-0.0624 z m 6.908199,-1.606183 C 81.029094,21.52902 80.097798,21.120001 77.44,21.120001 c -2.286835,0 -3.52,0.423228 -3.52,1.20808 0,1.157812 0.656102,1.377263 3.834688,1.282607 L 80.8,23.520001 Z M 84.16,20.975457 v -3.664544 l 3.871936,0.01648 c 5.043344,0.02146 5.088064,0.05902 5.088064,4.272608 0,2.488889 -0.08702,3.04 -0.48,3.04 -0.390621,0 -0.48,-0.52898 -0.48,-2.840818 0,-3.146722 -0.276867,-3.679319 -1.82065,-3.502305 l -0.89935,0.103123 -0.09159,3.12 c -0.07292,2.483983 -0.187075,3.12 -0.56,3.12 -0.375731,0 -0.468413,-0.557184 -0.468413,-2.816 0,-2.986937 -0.246192,-3.584 -1.477827,-3.584 -1.623731,0 -1.722173,0.194016 -1.722173,3.394237 0,2.458456 -0.0874,3.005763 -0.48,3.005763 -0.398723,0 -0.48,-0.620505 -0.48,-3.664544 z M 10.5,20.581404 c 0.231,-0.09244 0.507,-0.08107 0.613333,0.02526 0.106334,0.106334 -0.08267,0.181966 -0.42,0.168071 -0.372781,-0.01535 -0.448608,-0.09118 -0.193333,-0.19333 z m 1.446667,-0.314736 c 0.117333,-0.117334 0.309333,-0.117334 0.426666,0 0.117334,0.117333 0.02133,0.213333 -0.213333,0.213333 -0.234667,0 -0.330667,-0.096 -0.213333,-0.213333 z M 13.7,19.941404 c 0.231,-0.09244 0.507,-0.08107 0.613333,0.02526 0.106334,0.106334 -0.08267,0.181966 -0.42,0.168071 -0.372781,-0.01535 -0.448608,-0.09118 -0.193333,-0.19333 z m 1.66,-4.540572 c 0.136172,-3.792942 0.250783,-4.55673 0.769596,-5.128735 0.335278,-0.3696533 0.825596,-0.6720965 1.089596,-0.6720965 0.385534,0 0.360029,0.1322812 -0.129596,0.6721485 -0.517032,0.570085 -0.633891,1.334851 -0.769596,5.036462 -0.129701,3.537858 -0.250896,4.381787 -0.64,4.456587 -0.414207,0.07963 -0.458069,-0.518589 -0.32,-4.364366 z"
         id="path2830" />
      <path
         style="fill:#68923f;stroke-width:0.32"
         d="m 13.38,31.461405 c 0.231,-0.09244 0.507,-0.08107 0.613333,0.02526 0.106334,0.106333 -0.08267,0.181965 -0.42,0.16807 -0.372781,-0.01535 -0.448608,-0.09118 -0.193333,-0.193333 z m 9.98,0.0586 c 0,-0.088 0.072,-0.16 0.16,-0.16 0.088,0 0.16,0.072 0.16,0.16 0,0.088 -0.072,0.16 -0.16,0.16 -0.088,0 -0.16,-0.072 -0.16,-0.16 z m -11.58,-0.3786 c 0.231,-0.09244 0.507,-0.08107 0.613333,0.02526 0.106334,0.106333 -0.08267,0.181965 -0.42,0.16807 C 11.600552,31.319386 11.524725,31.243558 11.78,31.141406 Z M 21.365049,30.426537 20.32,29.493072 20.229,17.306536 c -0.06153,-8.2397641 0.0162,-12.1865358 0.24,-12.1865358 0.221506,0 0.331004,3.5939676 0.331004,10.8642498 0,11.864892 0.187268,13.693181 1.50906,14.732903 0.449488,0.353567 0.656102,0.642848 0.459143,0.642848 -0.196958,0 -0.828378,-0.420059 -1.403154,-0.933464 z M 10.5,30.821405 c 0.231,-0.09244 0.507,-0.08107 0.613333,0.02526 0.106334,0.106333 -0.08267,0.181965 -0.42,0.16807 C 10.320552,30.999386 10.244725,30.923558 10.5,30.821406 Z M 9.3866666,30.506668 C 9.504,30.389335 9.696,30.389335 9.8133334,30.506668 9.9306666,30.624001 9.8346666,30.720001 9.6,30.720001 c -0.2346666,0 -0.3306666,-0.096 -0.2133334,-0.213333 z M 29.818476,29.982246 29.125391,29.244491 30.734442,28.665885 C 32.666678,27.971062 34.24,26.501165 34.24,25.39077 c 0,-1.169378 -1.501027,-2.483624 -3.789683,-3.318109 -1.35569,-0.49431 -1.896356,-0.834621 -1.676032,-1.054945 0.444685,-0.444685 3.849033,0.608231 5.641056,1.744697 3.511638,2.227015 2.925459,5.100546 -1.455341,7.134278 -2.156996,1.001359 -2.278074,1.004656 -3.141524,0.08555 z m -22.4443096,-0.087 C 5.6238662,29.135967 4.1305136,27.84759 3.6399987,26.673622 3.2457856,25.730137 3.2500896,25.471356 3.6736157,24.652347 c 0.60392,-1.167852 2.0960294,-2.324888 4.1132688,-3.189578 2.4525675,-1.051293 2.3869495,-0.771842 -0.1261456,0.537232 -4.5741464,2.382677 -4.5683482,5.228611 0.01552,7.617723 1.6095229,0.838884 1.4114461,1.020848 -0.3020925,0.277519 z M 16.275451,27.54892 C 15.574943,26.982281 15.52,26.710897 15.52,23.817439 c 0,-2.210886 0.116589,-3.159802 0.4,-3.255585 0.301315,-0.101834 0.4,0.61075 0.4,2.888326 0,2.574263 0.09855,3.148792 0.663226,3.866666 0.773687,0.983584 0.380615,1.112469 -0.707775,0.232074 z m 23.936712,-3.311207 c -0.48519,-0.354779 -0.539651,-0.968873 -0.461161,-5.2 l 0.089,-4.797712 3.534944,-0.08987 c 3.449955,-0.08771 3.553821,-0.06978 4.32,0.745589 0.682381,0.726194 0.800096,1.194697 0.900042,3.582165 0.143219,3.421213 -0.296538,5.031349 -1.551383,5.680254 -1.177225,0.608768 -6.030416,0.6653 -6.83144,0.07958 z m 6.969693,-1.268914 c 0.3684,-0.525968 0.498144,-1.526103 0.498144,-3.84 0,-4.256275 -0.206118,-4.466697 -4.251853,-4.34065 l -2.948147,0.09185 -0.09035,3.98225 c -0.04969,2.190237 -0.01821,4.170237 0.06996,4.4 0.116272,0.302993 0.993178,0.41775 3.192205,0.41775 2.77032,0 3.074877,-0.06136 3.530045,-0.711202 z M 50.88,20.993408 v -3.646593 l 3.559872,-0.04409 c 4.123866,-0.05107 5.080128,0.307453 5.080128,1.904649 0,0.523943 -0.144,0.952623 -0.32,0.952623 -0.176,0 -0.32,-0.2592 -0.32,-0.576 0,-0.3168 -0.1728,-0.7488 -0.384,-0.96 -0.520947,-0.520949 -6.071053,-0.520949 -6.592,0 -0.240486,0.240485 -0.384,1.436444 -0.384,3.2 0,1.664 -0.130909,2.816 -0.32,2.816 -0.194611,0 -0.32,-1.428864 -0.32,-3.646593 z m 12.444176,3.166708 c -1.829766,-0.99446 -2.107882,-4.730227 -0.457811,-6.149556 0.721369,-0.620498 1.211373,-0.730559 3.252518,-0.730559 3.249485,0 4.569184,0.758887 4.590941,2.64 l 0.01018,0.88 h -4 c -3.949123,0 -4,0.0093 -4,0.728798 0,0.400839 0.235597,1.065158 0.523546,1.476265 0.497923,0.710883 0.670204,0.741052 3.52,0.616412 1.648051,-0.07208 2.996454,-0.01284 2.996454,0.131656 0,0.892873 -4.964202,1.206796 -6.435824,0.406984 z m 6.563594,-4.267965 c 0.09105,-0.147318 -0.05262,-0.579318 -0.319261,-0.96 -0.429248,-0.612839 -0.782343,-0.69215 -3.081456,-0.69215 -1.967155,0 -2.738528,0.128389 -3.181856,0.529596 -1.275831,1.154609 -0.781328,1.390404 2.915917,1.390404 1.925612,0 3.575609,-0.120533 3.666656,-0.26785 z M 74.56,24.412982 c -1.544166,-0.56778 -2.008934,-1.926743 -1.101856,-3.221779 0.463466,-0.661687 0.743366,-0.711202 4.020275,-0.711202 h 3.522131 l -0.100275,-1.04 -0.100275,-1.04 -3.462979,-0.09106 c -2.543379,-0.06688 -3.428746,-0.194344 -3.334061,-0.48 0.08661,-0.261315 1.159437,-0.419178 3.269424,-0.481089 2.869466,-0.0842 3.205539,-0.03105 3.894061,0.61578 0.665993,0.62567 0.753555,0.996801 0.753555,3.194003 0,3.231837 -0.313158,3.492635 -4.151203,3.457102 C 76.267958,24.600843 74.824,24.510053 74.56,24.412982 Z m 6.4,-1.681722 c 0,-1.299343 -0.735782,-1.611259 -3.800816,-1.611259 -2.261437,0 -2.619696,0.0811 -3.045821,0.689474 -0.347597,0.496267 -0.394365,0.854953 -0.166886,1.28 0.276307,0.516282 0.737065,0.590526 3.664781,0.590526 H 80.96 Z m 3.2,-1.715492 v -3.677567 l 3.989091,0.05599 c 2.75224,0.03863 4.116499,0.183195 4.4,0.466245 0.262323,0.261904 0.450682,1.561837 0.520896,3.594908 0.09383,2.716799 0.03677,3.184655 -0.388413,3.184655 -0.410857,0 -0.514486,-0.548014 -0.589987,-3.12 L 92,18.400001 h -1.394595 -1.394592 l -0.04541,3.012637 c -0.03075,2.041243 -0.170557,3.054579 -0.433543,3.142713 -0.282732,0.09475 -0.413084,-0.723398 -0.48,-3.012637 L 88.16,18.400001 h -1.44 -1.44 l -0.16,3.014515 c -0.106534,2.00718 -0.293664,3.058675 -0.56,3.146667 -0.304461,0.100588 -0.4,-0.746214 -0.4,-3.545415 z M 10.5,20.581404 c 0.231,-0.09244 0.507,-0.08107 0.613333,0.02526 0.106334,0.106334 -0.08267,0.181966 -0.42,0.168071 -0.372781,-0.01535 -0.448608,-0.09118 -0.193333,-0.19333 z m 1.446667,-0.314736 c 0.117333,-0.117334 0.309333,-0.117334 0.426666,0 0.117334,0.117333 0.02133,0.213333 -0.213333,0.213333 -0.234667,0 -0.330667,-0.096 -0.213333,-0.213333 z M 13.7,19.941404 c 0.231,-0.09244 0.507,-0.08107 0.613333,0.02526 0.106334,0.106334 -0.08267,0.181966 -0.42,0.168071 -0.372781,-0.01535 -0.448608,-0.09118 -0.193333,-0.19333 z m 1.66,-4.601478 c 0.151098,-4.266116 0.202033,-4.551476 0.915451,-5.128696 1.014596,-0.8209016 1.575815,-0.7789076 0.814145,0.06092 -0.517032,0.570085 -0.633891,1.334851 -0.769596,5.036462 -0.129702,3.537882 -0.250893,4.381779 -0.64,4.456548 -0.414375,0.07962 -0.458125,-0.525388 -0.32,-4.425234 z"
         id="path2828" />
      <path
         style="fill:#222834;stroke-width:0.32"
         d="m 21.296757,30.418518 c -0.309339,-0.341816 -0.511657,-0.77055 -0.449596,-0.952741 0.06206,-0.182192 0.358141,0.09748 0.657956,0.621484 0.633935,1.107976 0.576786,1.198834 -0.20836,0.331257 z m 8.521719,-0.436272 -0.693085,-0.737755 1.609051,-0.578606 C 32.666678,27.971062 34.24,26.501165 34.24,25.39077 c 0,-1.169378 -1.501027,-2.483624 -3.789683,-3.318109 -1.35569,-0.49431 -1.896356,-0.834621 -1.676032,-1.054945 0.444685,-0.444685 3.849033,0.608231 5.641056,1.744697 3.511638,2.227015 2.925459,5.100546 -1.455341,7.134278 -2.156996,1.001359 -2.278074,1.004656 -3.141524,0.08555 z M 4.8246154,28.135386 C 4.2830768,27.593847 3.84,26.993847 3.84,26.802052 c 0,-0.191794 0.036,-0.287129 0.08,-0.211854 0.044,0.07527 0.576248,0.675275 1.1827734,1.333333 1.3262736,1.43896 1.1120826,1.602096 -0.278158,0.211855 z M 20.359532,28.30763 C 20.249789,28.021645 20.1901,23.515434 20.226889,18.293829 l 0.06689,-9.4938286 0.173111,9.9200006 c 0.09521,5.456 0.1549,9.962211 0.132643,10.013801 -0.02226,0.05159 -0.130257,-0.140187 -0.24,-0.426172 z m -4.04595,-0.955362 c -0.22263,-0.268253 -0.342811,-0.549704 -0.267069,-0.625447 0.07574,-0.07574 0.313483,0.143738 0.528312,0.487733 0.46458,0.743912 0.309641,0.825587 -0.261243,0.137714 z m -0.519996,-3.832267 c -9.6e-4,-1.584 0.05314,-2.272345 0.120248,-1.529655 0.06711,0.742689 0.06791,2.038689 0.0018,2.88 -0.06612,0.84131 -0.121033,0.233655 -0.122008,-1.350345 z M 3.52,25.600001 c 0,-0.234666 0.096,-0.330666 0.2133334,-0.213333 0.1173332,0.117333 0.1173332,0.309333 0,0.426667 C 3.616,25.930668 3.52,25.834668 3.52,25.600001 Z M 3.8471155,24.773335 C 3.8564627,24.387983 4.7943494,23.289394 5.6,22.720102 c 0.352,-0.248732 0.136,0.115903 -0.48,0.8103 -0.616,0.694397 -1.156,1.324128 -1.2,1.399403 -0.044,0.07527 -0.076798,0.0049 -0.072884,-0.15647 z M 40.212163,24.237713 c -0.48519,-0.354779 -0.539651,-0.968873 -0.461161,-5.2 l 0.089,-4.797712 3.534944,-0.08987 c 3.449955,-0.08771 3.553821,-0.06978 4.32,0.745589 0.682381,0.726194 0.800096,1.194697 0.900042,3.582165 0.143219,3.421213 -0.296538,5.031349 -1.551383,5.680254 -1.177225,0.608768 -6.030416,0.6653 -6.83144,0.07958 z m 6.969693,-1.268914 c 0.3684,-0.525968 0.498144,-1.526103 0.498144,-3.84 0,-4.256275 -0.206118,-4.466697 -4.251853,-4.34065 l -2.948147,0.09185 -0.09035,3.98225 c -0.04969,2.190237 -0.01821,4.170237 0.06996,4.4 0.116272,0.302993 0.993178,0.41775 3.192205,0.41775 2.77032,0 3.074877,-0.06136 3.530045,-0.711202 z M 50.88,20.993408 v -3.646593 l 3.559872,-0.04409 c 4.123866,-0.05107 5.080128,0.307453 5.080128,1.904649 0,0.523943 -0.144,0.952623 -0.32,0.952623 -0.176,0 -0.32,-0.2592 -0.32,-0.576 0,-0.3168 -0.1728,-0.7488 -0.384,-0.96 -0.520947,-0.520949 -6.071053,-0.520949 -6.592,0 -0.240486,0.240485 -0.384,1.436444 -0.384,3.2 0,1.664 -0.130909,2.816 -0.32,2.816 -0.194611,0 -0.32,-1.428864 -0.32,-3.646593 z m 12.444176,3.166708 c -1.829766,-0.99446 -2.107882,-4.730227 -0.457811,-6.149556 0.721369,-0.620498 1.211373,-0.730559 3.252518,-0.730559 3.249485,0 4.569184,0.758887 4.590941,2.64 l 0.01018,0.88 h -4 c -3.949123,0 -4,0.0093 -4,0.728798 0,0.400839 0.235597,1.065158 0.523546,1.476265 0.497923,0.710883 0.670204,0.741052 3.52,0.616412 1.648051,-0.07208 2.996454,-0.01284 2.996454,0.131656 0,0.892873 -4.964202,1.206796 -6.435824,0.406984 z m 6.563594,-4.267965 c 0.09105,-0.147318 -0.05262,-0.579318 -0.319261,-0.96 -0.429248,-0.612839 -0.782343,-0.69215 -3.081456,-0.69215 -1.967155,0 -2.738528,0.128389 -3.181856,0.529596 -1.275831,1.154609 -0.781328,1.390404 2.915917,1.390404 1.925612,0 3.575609,-0.120533 3.666656,-0.26785 z M 74.56,24.412982 c -1.544166,-0.56778 -2.008934,-1.926743 -1.101856,-3.221779 0.463466,-0.661687 0.743366,-0.711202 4.020275,-0.711202 h 3.522131 l -0.100275,-1.04 -0.100275,-1.04 -3.462979,-0.09106 c -2.543379,-0.06688 -3.428746,-0.194344 -3.334061,-0.48 0.08661,-0.261315 1.159437,-0.419178 3.269424,-0.481089 2.869466,-0.0842 3.205539,-0.03105 3.894061,0.61578 0.665993,0.62567 0.753555,0.996801 0.753555,3.194003 0,3.231837 -0.313158,3.492635 -4.151203,3.457102 C 76.267958,24.600843 74.824,24.510053 74.56,24.412982 Z m 6.4,-1.681722 c 0,-1.299343 -0.735782,-1.611259 -3.800816,-1.611259 -2.261437,0 -2.619696,0.0811 -3.045821,0.689474 -0.347597,0.496267 -0.394365,0.854953 -0.166886,1.28 0.276307,0.516282 0.737065,0.590526 3.664781,0.590526 H 80.96 Z m 3.2,-1.715492 v -3.677567 l 3.989091,0.05599 c 2.75224,0.03863 4.116499,0.183195 4.4,0.466245 0.262323,0.261904 0.450682,1.561837 0.520896,3.594908 0.09383,2.716799 0.03677,3.184655 -0.388413,3.184655 -0.410857,0 -0.514486,-0.548014 -0.589987,-3.12 L 92,18.400001 h -1.394595 -1.394592 l -0.04541,3.012637 c -0.03075,2.041243 -0.170557,3.054579 -0.433543,3.142713 -0.282732,0.09475 -0.413084,-0.723398 -0.48,-3.012637 L 88.16,18.400001 h -1.44 -1.44 l -0.16,3.014515 c -0.106534,2.00718 -0.293664,3.058675 -0.56,3.146667 -0.304461,0.100588 -0.4,-0.746214 -0.4,-3.545415 z M 6.4,22.240001 c 0,-0.088 0.072,-0.16 0.16,-0.16 0.088,0 0.16,0.072 0.16,0.16 0,0.088 -0.072,0.16 -0.16,0.16 -0.088,0 -0.16,-0.072 -0.16,-0.16 z m 9.342237,-6.782156 c -0.05875,-3.985731 -0.02192,-4.26435 0.657763,-4.975683 0.396,-0.41444 0.504,-0.480003 0.24,-0.145696 -0.349902,0.443086 -0.52818,1.79168 -0.657763,4.975683 l -0.177763,4.367852 z M 20.16,5.6000003 c 0,-0.088 0.072,-0.16 0.16,-0.16 0.088,0 0.16,0.072 0.16,0.16 0,0.088 -0.072,0.16 -0.16,0.16 -0.088,0 -0.16,-0.072 -0.16,-0.16 z"
         id="path2826" />
    </g>
  </g>
</svg>
