<?xml version="1.0" encoding="utf-8"?>
<!-- Generator: Adobe Illustrator 23.0.3, SVG Export Plug-In . SVG Version: 6.00 Build 0)  -->
<svg version="1.1" id="Layer_1" xmlns="http://www.w3.org/2000/svg" xmlns:xlink="http://www.w3.org/1999/xlink" x="0px" y="0px"
	 viewBox="0 0 1000 435.47" style="enable-background:new 0 0 1000 435.47;" xml:space="preserve">
<style type="text/css">
	.st0{fill:#1DCAD3;}
	.st1{fill:#36B0C9;}
	.st2{fill:#231F20;}
	.st3{fill:#FFFFFF;}
	.st4{fill:#9164CC;}
	.st5{clip-path:url(#SVGID_2_);fill:url(#SVGID_3_);}
	.st6{fill:#201747;}
	.st7{fill-rule:evenodd;clip-rule:evenodd;fill:#10CFC9;}
	.st8{clip-path:url(#SVGID_5_);fill:#231F20;}
	.st9{fill-rule:evenodd;clip-rule:evenodd;fill:#231F20;}
	.st10{clip-path:url(#SVGID_7_);fill:#FFFFFF;}
	.st11{fill-rule:evenodd;clip-rule:evenodd;fill:#FFFFFF;}
	.st12{fill:#8CCEAF;}
	.st13{fill:#008476;}
	.st14{fill:#25BCBD;}
	.st15{fill:#004D70;}
	.st16{fill:#20BBBB;}
	.st17{fill:#024D70;}
	.st18{fill-rule:evenodd;clip-rule:evenodd;fill:#F58B1F;}
	.st19{fill-rule:evenodd;clip-rule:evenodd;fill:#18335B;}
	.st20{clip-path:url(#SVGID_9_);}
	.st21{clip-path:url(#SVGID_11_);}
	.st22{fill:#18335B;}
	.st23{fill:#F58B1F;}
	.st24{clip-path:url(#SVGID_15_);}
	.st25{clip-path:url(#SVGID_17_);}
	.st26{clip-path:url(#SVGID_21_);}
	.st27{clip-path:url(#SVGID_23_);}
	.st28{clip-path:url(#SVGID_27_);}
	.st29{clip-path:url(#SVGID_29_);}
	.st30{clip-path:url(#SVGID_33_);}
	.st31{clip-path:url(#SVGID_35_);}
	.st32{clip-path:url(#SVGID_39_);}
	.st33{clip-path:url(#SVGID_41_);}
	.st34{fill:#416BA9;}
	.st35{fill:#73C3D5;}
	.st36{opacity:0.8;}
	.st37{fill:#3A3A3A;}
	.st38{fill:url(#SVGID_44_);}
	.st39{fill:none;stroke:#000000;stroke-width:6.3384;}
	.st40{fill:none;stroke:#000000;stroke-width:3.1692;}
	.st41{fill:#48494B;}
	.st42{fill:#C1986C;}
	.st43{fill:url(#SVGID_63_);}
	.st44{fill:url(#SVGID_64_);}
	.st45{fill:url(#SVGID_65_);}
	.st46{fill:url(#SVGID_66_);}
	.st47{fill:url(#SVGID_67_);}
	.st48{fill:#4D4E4E;}
	.st49{fill:#27B373;}
	.st50{fill:#5DC4CD;}
	.st51{fill:#1E8756;}
	.st52{fill:#3D1152;}
	.st53{fill:#922C48;}
	.st54{fill-rule:evenodd;clip-rule:evenodd;fill:#922C48;}
	.st55{fill:#404041;}
	.st56{fill:#EC1C24;}
	.st57{fill:#373A36;}
	.st58{fill:#808184;}
	.st59{fill:#262261;}
	.st60{fill:#6FCBDC;}
	.st61{fill:#2F3436;}
	.st62{fill:#5F97D0;}
	.st63{fill:#132428;}
	.st64{fill:#85C041;}
	.st65{fill:#677784;}
	.st66{fill:url(#SVGID_68_);}
	.st67{opacity:0.2;clip-path:url(#SVGID_70_);}
	.st68{fill:#FFFEFA;}
	.st69{opacity:0.1;}
	.st70{fill:url(#SVGID_71_);}
	.st71{opacity:0.3;}
	.st72{opacity:0.08;}
	.st73{opacity:0.1;fill:url(#Wordmark_1_);}
	.st74{fill:url(#SVGID_104_);}
	.st75{opacity:0.6;fill:url(#SVGID_107_);}
	.st76{opacity:0.4;}
	.st77{fill:url(#SVGID_110_);}
	.st78{opacity:0.6;fill:url(#SVGID_113_);}
	.st79{fill:url(#SVGID_116_);}
	.st80{opacity:0.6;fill:url(#SVGID_119_);}
	.st81{fill:url(#SVGID_122_);}
	.st82{opacity:0.6;fill:url(#SVGID_125_);}
	.st83{fill:url(#SVGID_128_);}
	.st84{opacity:0.6;fill:url(#SVGID_131_);}
	.st85{fill:#221F1F;}
	.st86{fill:none;}
	.st87{fill:#00416B;}
	.st88{opacity:0.8;fill:url(#XMLID_323_);}
	.st89{fill:#4197CB;}
	.st90{fill:#003E52;}
	.st91{fill:#3F96B4;}
	.st92{fill:#B9DBE5;}
	.st93{opacity:0.3;fill:#231F20;}
	.st94{opacity:0.3;fill:#FFFFFF;}
	.st95{fill:#050013;}
	.st96{fill:#E87200;}
	.st97{fill:#FCB813;}
	.st98{fill:#3D3935;}
	.st99{fill:#FFB600;}
	.st100{fill:#FCB814;}
	.st101{fill:#F48120;}
	.st102{fill:#EF4E25;}
	.st103{fill:#ED3024;}
	.st104{fill:#E0592A;}
	.st105{fill:#00ADBB;}
	.st106{fill:#00829B;}
	.st107{fill:#93D500;}
	.st108{fill:#4D5A31;}
	.st109{fill:#6BA43A;}
	.st110{fill:#424143;}
	.st111{fill-rule:evenodd;clip-rule:evenodd;fill:#C7E6B4;}
	.st112{fill-rule:evenodd;clip-rule:evenodd;fill:#5A9891;}
	.st113{fill-rule:evenodd;clip-rule:evenodd;fill:#127870;}
	.st114{fill-rule:evenodd;clip-rule:evenodd;fill:#5CCFD5;}
	.st115{fill-rule:evenodd;clip-rule:evenodd;fill:#ACD5CD;}
	.st116{fill-rule:evenodd;clip-rule:evenodd;fill:#B5ECC9;}
	.st117{fill-rule:evenodd;clip-rule:evenodd;fill:#A1D683;}
	.st118{fill-rule:evenodd;clip-rule:evenodd;fill:#DEF0D3;}
	.st119{fill-rule:evenodd;clip-rule:evenodd;fill:#91B9B4;}
	.st120{fill-rule:evenodd;clip-rule:evenodd;fill:#006860;}
	.st121{fill-rule:evenodd;clip-rule:evenodd;fill:#00ADBB;}
	.st122{fill-rule:evenodd;clip-rule:evenodd;fill:#B4E7E9;}
	.st123{fill-rule:evenodd;clip-rule:evenodd;fill:#007565;}
	.st124{fill-rule:evenodd;clip-rule:evenodd;fill:#00CE7C;}
	.st125{fill-rule:evenodd;clip-rule:evenodd;fill:#5FD896;}
	.st126{fill:#007DA5;}
	.st127{fill:#313032;}
	.st128{fill:#24272A;}
	.st129{fill:#00AFAA;}
	.st130{fill:#66C9BA;}
	.st131{fill:#0069A7;}
	.st132{fill:#002F87;}
	.st133{fill:#8BC53F;}
	.st134{fill:#1A1A1A;}
	.st135{fill:#0095D6;}
	.st136{fill:#003F5F;}
	.st137{fill:#2D317C;}
	.st138{fill:#41BFBF;}
	.st139{fill:#293C97;}
	.st140{fill:#52C2BD;}
	.st141{fill:url(#SVGID_134_);}
	.st142{fill:url(#SVGID_135_);}
	.st143{fill:url(#SVGID_136_);}
	.st144{fill:#0DBEEA;}
	.st145{fill:#097EC2;}
	.st146{fill:#133C63;}
	.st147{fill:#3B91CF;}
	.st148{fill:#C8DEE8;}
	.st149{fill:#629BBA;}
	.st150{fill:#F8BE19;}
	.st151{fill:url(#SVGID_137_);}
	.st152{fill:url(#SVGID_138_);}
	.st153{fill:url(#SVGID_139_);}
	.st154{fill:#00233B;}
	.st155{fill:url(#SVGID_140_);}
	.st156{fill:url(#SVGID_141_);}
	.st157{fill:url(#SVGID_142_);}
	.st158{fill:url(#SVGID_143_);}
	.st159{fill:url(#SVGID_144_);}
	.st160{fill:url(#SVGID_145_);}
	.st161{fill:url(#SVGID_146_);}
	.st162{fill:url(#SVGID_147_);}
	.st163{fill:url(#SVGID_148_);}
	.st164{fill:url(#SVGID_149_);}
	.st165{fill:url(#SVGID_150_);}
	.st166{fill:url(#SVGID_151_);}
	.st167{fill:url(#SVGID_152_);}
	.st168{fill:url(#SVGID_153_);}
	.st169{fill:url(#SVGID_154_);}
	.st170{fill:url(#SVGID_155_);}
	.st171{fill:url(#SVGID_156_);}
	.st172{fill:url(#SVGID_157_);}
	.st173{fill:url(#SVGID_158_);}
	.st174{fill:url(#SVGID_159_);}
	.st175{fill:url(#SVGID_160_);}
	.st176{fill:url(#SVGID_161_);}
	.st177{fill:url(#SVGID_162_);}
	.st178{fill:url(#SVGID_163_);}
	.st179{fill:url(#SVGID_164_);}
	.st180{fill:url(#SVGID_165_);}
	.st181{fill:url(#SVGID_166_);}
	.st182{fill:url(#SVGID_167_);}
	.st183{fill:url(#SVGID_168_);}
	.st184{fill:url(#SVGID_169_);}
	.st185{fill:url(#SVGID_170_);}
	.st186{fill:url(#SVGID_171_);}
	.st187{fill:url(#SVGID_172_);}
	.st188{fill:url(#SVGID_173_);}
	.st189{fill:url(#SVGID_174_);}
	.st190{fill:url(#SVGID_175_);}
	.st191{fill:url(#SVGID_176_);}
	.st192{fill:url(#SVGID_177_);}
	.st193{fill:url(#SVGID_178_);}
	.st194{fill:#C31230;}
	.st195{fill:#807F82;}
	.st196{fill-rule:evenodd;clip-rule:evenodd;fill:#C31230;}
	.st197{fill-rule:evenodd;clip-rule:evenodd;fill:#807F82;}
	.st198{fill:#2D2D2D;}
	.st199{display:none;fill:#2D2D2D;}
	.st200{fill:#D11F3C;}
	.st201{fill:#E42C4C;stroke:#E42C4C;stroke-width:1.0503;stroke-miterlimit:10;}
	.st202{display:none;fill:#231F20;}
	.st203{display:none;fill:#FFFFFF;}
	.st204{fill:#FF7F30;}
	.st205{opacity:0.3;fill:#FF7F30;}
	.st206{opacity:0.6;fill:#FF7F30;}
	.st207{opacity:0.7;fill:#FF7F30;}
	.st208{fill:#221C35;}
	.st209{fill:#1B98D5;}
	.st210{fill:#173963;}
	.st211{fill:#009ADE;}
	.st212{fill:#003764;}
	.st213{fill:#2A7DE1;}
	.st214{opacity:0.4;clip-path:url(#XMLID_324_);fill:#221F1F;}
	.st215{fill:#002A3A;}
	.st216{fill:#0033A1;}
	.st217{fill:url(#SVGID_179_);}
	.st218{fill:url(#SVGID_180_);}
	.st219{fill:url(#SVGID_181_);}
	.st220{fill:url(#SVGID_182_);}
	.st221{fill:#007EC4;}
	.st222{fill-rule:evenodd;clip-rule:evenodd;fill:url(#SVGID_183_);}
	.st223{fill-rule:evenodd;clip-rule:evenodd;fill:#E6E7E8;}
	.st224{fill:#009345;}
	.st225{fill:#BBBCB8;}
	.st226{fill:#72C0EB;}
	.st227{fill:#939598;}
	.st228{fill-rule:evenodd;clip-rule:evenodd;fill:#2CB8EB;}
	.st229{fill:#2CB8EB;}
	.st230{fill:#81B83A;}
	.st231{fill-rule:evenodd;clip-rule:evenodd;fill:#81B83A;}
	.st232{enable-background:new    ;}
	.st233{fill:#FF6F3E;}
	.st234{fill:#12143D;}
	.st235{fill:url(#SVGID_184_);}
	.st236{fill:url(#SVGID_185_);}
	.st237{fill:url(#SVGID_186_);}
	.st238{fill:url(#SVGID_187_);}
	.st239{fill:url(#SVGID_188_);}
	.st240{fill:url(#SVGID_189_);}
	.st241{fill:url(#SVGID_190_);}
	.st242{fill:url(#SVGID_191_);}
	.st243{fill:url(#SVGID_192_);}
	.st244{fill:#7C51A0;}
	.st245{fill:#9F66A9;}
	.st246{fill:#9F80B9;}
	.st247{fill:url(#SVGID_193_);}
	.st248{fill:url(#SVGID_194_);}
	.st249{fill:url(#SVGID_195_);}
	.st250{fill:url(#SVGID_196_);}
	.st251{fill:#2D3136;}
	.st252{fill:#76777A;}
	.st253{fill:#A7A8A9;}
	.st254{fill:#0082CA;}
	.st255{fill:#FFB259;}
	.st256{fill:#385CAD;}
	.st257{fill:#7BA0C4;}
	.st258{fill:#EBA900;}
	.st259{fill:#929497;}
	.st260{opacity:0.7;fill:#FFFFFF;}
	.st261{fill:#016BAF;}
	.st262{fill:#343432;}
	.st263{fill:#6D6E70;}
	.st264{fill:#F4B01B;}
	.st265{fill:#293271;}
	.st266{fill:#A1D33C;}
	.st267{fill:#212322;}
	.st268{fill:#0047BA;}
	.st269{fill:#969CDE;}
	.st270{fill:#047BC1;}
	.st271{fill:url(#SVGID_197_);}
	.st272{fill:url(#SVGID_198_);}
	.st273{fill:url(#SVGID_199_);}
	.st274{fill:url(#SVGID_200_);}
	.st275{fill:url(#SVGID_201_);}
	.st276{fill:url(#SVGID_202_);}
	.st277{fill:url(#SVGID_203_);}
	.st278{fill:#13517C;}
	.st279{fill:#0077A6;}
	.st280{fill:none;stroke:#231F20;stroke-width:5.9036;stroke-miterlimit:10;}
	.st281{fill:#00A94F;}
	.st282{fill:none;stroke:#231F20;stroke-width:3.2172;stroke-miterlimit:10;}
	.st283{fill:#59595C;}
	.st284{opacity:0.349;fill:#F9AE19;}
	.st285{opacity:0.349;fill:#E99F22;}
	.st286{opacity:0.349;fill:#E47D25;}
	.st287{fill:#F9AE19;}
	.st288{fill:#E99F22;}
	.st289{fill:#F09B20;}
	.st290{fill:#E47D25;}
	.st291{fill:#E89223;}
	.st292{opacity:0.651;fill:#F9AE19;}
	.st293{fill:#E68825;}
	.st294{opacity:0.651;fill:#E99F22;}
	.st295{fill:#EB8D23;}
	.st296{opacity:0.7725;fill:#EF9B21;}
	.st297{opacity:0.651;fill:#E47D25;}
	.st298{opacity:0.7725;fill:#EA9622;}
	.st299{fill:url(#SVGID_204_);}
	.st300{fill:#55575B;}
	.st301{fill:#EE424E;}
	.st302{fill:#34424B;}
</style>
<g>
	<g>
		<path class="st48" d="M5.7,418.73l-0.76-197.8h49.45c33.57,0,52.84,13.36,57.81,40.08c1.22,6.25,1.93,25.44,2.13,57.59
			c0.3,34.5-0.66,55.65-2.89,63.42c-3.75,13-9.99,22.37-18.71,28.1c-8.72,5.73-21.15,8.6-37.27,8.6H5.7z M18.93,405.22h36.51
			c14.1,0,24.39-2.3,30.88-6.91c5.48-3.89,9.53-10.6,12.17-20.12c1.83-6.04,2.69-25.24,2.59-57.59c0-31.23-0.66-50.27-1.98-57.13
			c-1.93-10.34-6.39-17.76-13.39-22.27c-7-4.61-17.45-6.91-31.34-6.91H18.33L18.93,405.22z"/>
		<path class="st48" d="M135.63,418.73V288.35h13.39v2.15c0,1.53,0.46,2.76,1.37,3.69c0.81,0.92,1.88,1.38,3.19,1.38
			c1.01,0,2.08-0.25,3.19-0.77c8.11-3.89,14.91-6.45,20.39-7.68c2.84-0.62,5.63-0.92,8.37-0.92c10.04,0,19.27,4.51,27.69,13.51
			l-10.19,8.75c-5.58-5.94-11.41-8.91-17.5-8.91c-1.62,0-3.4,0.21-5.32,0.61c-8.22,1.95-18.16,6.4-29.82,13.36l-1.37,0.77v104.43
			H135.63z"/>
		<path class="st48" d="M233.17,411.82c-8.62-6.65-14.56-15.56-17.8-26.72c-4.77-16.99-5.02-36.91-0.76-59.74
			c2.43-12.9,7.71-22.83,15.82-29.79c8.11-6.86,18.61-10.29,31.49-10.29c12.37,0,23.07,3.69,32.1,11.06
			c9.03,7.37,14.66,17.05,16.89,29.02c4.36,22.83,4.11,42.75-0.76,59.74c-3.35,11.47-9.18,20.48-17.5,27.03
			c-8.32,6.45-18.21,9.67-29.67,9.67C251.73,421.8,241.79,418.48,233.17,411.82z M227.69,327.82c-3.86,20.78-3.65,38.6,0.61,53.44
			c2.33,8.4,6.59,15,12.78,19.81c6.29,4.81,13.59,7.22,21.91,7.22c17.75,0,29.16-9.01,34.23-27.03c4.26-14.84,4.46-32.66,0.61-53.44
			c-1.73-8.91-5.78-15.97-12.17-21.19c-6.49-5.22-14.4-7.83-23.73-7.83C242.76,298.8,231.35,308.47,227.69,327.82z"/>
		<path class="st48" d="M410.27,418.73V328.9c0-12.08-2.38-20.37-7.15-24.88c-3.55-3.38-8.88-5.07-15.97-5.07
			c-0.91,0-1.88,0.05-2.89,0.15c-12.58,0.72-24.85,4.81-36.82,12.29l-1.37,0.77v106.58h-13.39V288.35h13.85
			c0.3,1.02,0.81,1.9,1.52,2.61c1.11,1.23,2.53,1.84,4.26,1.84c0.91,0,1.93-0.2,3.04-0.61c11.56-3.99,20.94-6.19,28.15-6.6
			c1.22-0.1,2.43-0.15,3.65-0.15c10.65,0,19.02,2.92,25.1,8.75c7.5,7.17,11.26,18.74,11.26,34.71v89.84H410.27z"/>
		<path class="st48" d="M466.41,411.67c-8.52-6.65-14.15-15.61-16.89-26.87c-5.28-21.5-5.48-40.85-0.61-58.05
			c3.75-13.41,10.04-23.75,18.87-31.02c8.82-7.37,19.37-11.06,31.64-11.06c11.26,0,20.64,3.43,28.15,10.29
			c7.5,6.86,12.22,16.38,14.15,28.56c1.22,7.27,1.47,13.26,0.76,17.97l-0.61,4.76l-82.61,15.51l0.3,2.61
			c0.51,5.84,1.47,11.57,2.89,17.2c2.03,8.29,6.09,14.8,12.17,19.5c6.09,4.81,13.39,7.22,21.91,7.22c12.17,0,22.11-3.84,29.82-11.52
			l10.19,8.75c-10.35,10.85-23.68,16.28-40.01,16.28C484.97,421.8,474.93,418.43,466.41,411.67z M461.69,330.43
			c-1.12,4.1-1.88,8.7-2.28,13.82l-0.3,3.84l70.44-13.21l-0.15-2.61c-0.2-2.15-0.46-4.35-0.76-6.6
			c-3.04-18.43-12.78-27.64-29.21-27.64C480.35,298.03,467.78,308.83,461.69,330.43z"/>
		<path class="st48" d="M581.43,411.82c-8.62-6.65-14.56-15.56-17.8-26.72c-4.77-16.99-5.02-36.91-0.76-59.74
			c2.43-12.9,7.71-22.83,15.82-29.79c8.11-6.86,18.61-10.29,31.49-10.29c17.34,0,30.78,6.5,40.32,19.5l-11.26,7.37
			c-6.9-8.91-16.58-13.36-29.06-13.36c-19.17,0-30.58,9.67-34.23,29.02c-3.86,20.78-3.65,38.6,0.61,53.44
			c2.33,8.4,6.59,15,12.78,19.81c6.29,4.81,13.59,7.22,21.91,7.22c11.76,0,20.89-4.3,27.38-12.9l11.26,7.37
			c-9.23,12.7-22.11,19.04-38.64,19.04C600,421.8,590.05,418.48,581.43,411.82z"/>
		<path class="st48" d="M684.14,411.82c-8.62-6.65-14.56-15.56-17.8-26.72c-4.77-16.99-5.02-36.91-0.76-59.74
			c2.43-12.9,7.71-22.83,15.82-29.79c8.11-6.86,18.61-10.29,31.49-10.29c12.37,0,23.07,3.69,32.1,11.06
			c9.03,7.37,14.66,17.05,16.89,29.02c4.36,22.83,4.11,42.75-0.76,59.74c-3.35,11.47-9.18,20.48-17.5,27.03
			c-8.32,6.45-18.21,9.67-29.67,9.67C702.7,421.8,692.76,418.48,684.14,411.82z M678.66,327.82c-3.86,20.78-3.65,38.6,0.61,53.44
			c2.33,8.4,6.59,15,12.78,19.81c6.29,4.81,13.59,7.22,21.91,7.22c17.75,0,29.16-9.01,34.23-27.03c4.26-14.84,4.46-32.66,0.61-53.44
			c-1.73-8.91-5.78-15.97-12.17-21.19c-6.49-5.22-14.4-7.83-23.73-7.83C693.73,298.8,682.32,308.47,678.66,327.82z"/>
		<path class="st48" d="M802.21,410.44c-8.12-7.68-13.34-17.71-15.67-30.1c-4.26-22.42-3.8-42.74,1.37-60.97
			c5.98-20.88,20.79-32.25,44.43-34.09c1.72-0.1,3.5-0.15,5.33-0.15c8.82,0,17.14,1.64,24.95,4.91l3.96,1.69v-80.47h13.39v207.17
			h-13.84c-0.91-1.94-2.49-2.92-4.72-2.92c-0.91,0-1.83,0.15-2.74,0.46c-9.43,3.89-18.71,5.84-27.84,5.84
			C819.85,421.8,810.32,418.02,802.21,410.44z M833.4,298.8c-17.45,1.33-28.3,9.42-32.56,24.26c-4.67,16.18-5.07,34.45-1.22,54.82
			c1.72,9.22,5.42,16.59,11.11,22.11c5.68,5.53,12.37,8.29,20.08,8.29c12.27,0,23.78-3.74,34.54-11.21l1.22-0.92v-88.61l-1.22-0.92
			c-8.01-5.32-17.24-7.99-27.69-7.99C836.23,298.64,834.82,298.69,833.4,298.8z"/>
		<path class="st48" d="M918.6,411.67c-8.52-6.65-14.15-15.61-16.89-26.87c-5.28-21.5-5.48-40.85-0.61-58.05
			c3.75-13.41,10.04-23.75,18.87-31.02c8.82-7.37,19.37-11.06,31.65-11.06c11.26,0,20.64,3.43,28.15,10.29
			c7.5,6.86,12.22,16.38,14.15,28.56c1.22,7.27,1.47,13.26,0.76,17.97l-0.61,4.76l-82.61,15.51l0.31,2.61
			c0.51,5.84,1.47,11.57,2.89,17.2c2.03,8.29,6.09,14.8,12.17,19.5c6.09,4.81,13.39,7.22,21.91,7.22c12.17,0,22.11-3.84,29.82-11.52
			l10.19,8.75c-10.35,10.85-23.68,16.28-40.01,16.28C937.16,421.8,927.12,418.43,918.6,411.67z M913.88,330.43
			c-1.12,4.1-1.88,8.7-2.28,13.82l-0.3,3.84l70.44-13.21l-0.15-2.61c-0.2-2.15-0.46-4.35-0.76-6.6
			c-3.04-18.43-12.78-27.64-29.21-27.64C932.55,298.03,919.97,308.83,913.88,330.43z"/>
	</g>
	<g>
		<path class="st49" d="M668.75,18.84c-3.03-4.74-12.53-6.61-21.79-2.88c0,0-119.83,45.26-120.38,45.4
			c-2.44,0.6-3.21,2.84-3.21,2.84l-28.47,58.17c0,0-0.23,0.56-0.7,0.56c-0.4,0-0.62-0.57-0.62-0.57L464.8,63.53
			c0,0-0.65-1.84-3.09-2.49c-0.55-0.15-120.38-45.4-120.38-45.4c-9.26-3.74-18.76-1.86-21.79,2.88c-5.79,9.05,3.99,18.48,4.98,19.89
			l145.84,159.23c0,0,0.08,0.1,0.21,0.29l-0.01,0.03c0,0,9.3,13.1,23.68,12.84c14.39,0.26,23.68-12.84,23.68-12.84L663.77,38.72
			C664.76,37.32,674.54,27.89,668.75,18.84z"/>
		<path class="st50" d="M462.57,189.13c0,0,3.35,4.03,7.89,8.77c3.8,5.3,12.19,12.87,23.71,12.9c14.39,0.26,23.68-12.84,23.68-12.84
			L663.7,38.74c0.99-1.41,10.77-10.84,4.98-19.89c-3.03-4.74-12.53-6.61-21.79-2.88c0,0-119.83,45.26-120.38,45.4
			c-2.44,0.6-3.21,2.84-3.21,2.84l-28.47,58.17c0,0-0.27,0.52-0.74,0.52"/>
		<path class="st51" d="M493.58,122.36c0,0,0.29,0.56,0.51,0.55c0.21-0.01-31.52,66.22-31.52,66.22l-40.79-44.54l42.66-81.72
			L493.58,122.36z"/>
	</g>
</g>
</svg>
