<svg xmlns="http://www.w3.org/2000/svg" viewBox="0 0 176.15 147.09"><defs><style>.cls-1{fill:#65b6e6;}.cls-1,.cls-2,.cls-3,.cls-4{fill-rule:evenodd;}.cls-2{fill:#04509d;}.cls-3{fill:#3380c6;}.cls-4{fill:#c7ebfa;}.cls-5{font-size:24px;font-family:FilsonProMedium, Filson Pro;letter-spacing:0.41em;}.cls-5,.cls-8{fill:#003671;}.cls-6{letter-spacing:0.42em;}.cls-7{letter-spacing:0.41em;}</style></defs><g id="Layer_2" data-name="Layer 2"><g id="Layer_1-2" data-name="Layer 1"><path class="cls-1" d="M137.62,29.27h4.06a2.16,2.16,0,0,1,.51-.78,2.33,2.33,0,0,1,3.29,0,2.35,2.35,0,0,1,.69,1.65,2.32,2.32,0,0,1-.5,1.43l4,6.85c-.95,1.64-1.89,3.28-2.84,4.91,2.51-1.15,4.59-3,7.23-4,3.34-1.41,6.63-.42,9.93-.19L166.09,37l1.72.53.06.88c2.27-1.11,4.24-5.69,4-8.58-.6-2.4-3.78-4.88-6.87-6.49A11.88,11.88,0,0,0,168,18.26c.33-2.2-.33-2.2-1.73-1.25-9,5.95-17.06.93-16.86-2.21-.19-2,4.36-7.22,6.52-10.23,1.08-1.79.54-2.51-1.45-1.29-5.53,3.35-14.58,9.65-18.6,9.73l-.06.09,4,6.9-3.63,6.29.26.24a4.22,4.22,0,0,1,1.23,2.74Zm13.25-5.76,4.55,1.65-3,.29Z"/><path class="cls-2" d="M151.27,12.22l8.77-4c1.58-.72,2.13-.1.73,1.48l-7.64,8.26C149.71,16,149.92,14.9,151.27,12.22Z"/><path class="cls-3" d="M129.94,37.65c.64.6,1.26,1.21,1.9,1.79,1.15,1,1.92.62,2.65,1.24s.83,2.11,1.84,2.56c1.28.62,1.95-.46,2.79-.3s1.2,1.37,2.36,1.36a10,10,0,0,0,4-.44l3.14-5.43L145,32.16a2.33,2.33,0,0,1-3.49-2h-3.93a4.24,4.24,0,0,1-4.17,3.58,4.2,4.2,0,0,1-1.12-.15Z"/><path class="cls-3" d="M123,30.15c.85.73,2.56,1.45,3.1,2.18.65.89-.63,1.93.35,2.7a13.56,13.56,0,0,1,2.84,2l2.19-3.79a4.32,4.32,0,0,1-1-.77,4.14,4.14,0,0,1-1.18-2.34Z"/><path class="cls-3" d="M131.46,9.33A68.67,68.67,0,0,1,125.69.85c-.2-.38-.76-1.07-1.19-.78-.89.41-.21,1.8-1.48,2.3-.67.26-2-.76-2.82,0-1,.67.14,2.94-.53,3.62-.51.53-1.54-.41-2.21.49-.52.81-.4,2,.67,3.24,1.4,1.65.06,3.53.12,6.94l3.94-6.83H131a3.19,3.19,0,0,1,.33-.4Z"/><path class="cls-3" d="M130.58,10.73h-7.89l-4.31,7.49c.05.35.11.73.2,1.12.48,1.38,1.82,2.5,2.17,3.64.28.93-.43,1.31-.21,2.36s1.78,1.14,2.15,1.93c.24.49-.13,1-.2,1.66l.2.34h6.52a4.19,4.19,0,0,1,4.2-4,4.17,4.17,0,0,1,2,.5l3.35-5.8-3.6-6.23a2.85,2.85,0,0,1-1.78.62,2.9,2.9,0,0,1-2.79-3.66Z"/><path class="cls-4" d="M135.68,27.07a3.12,3.12,0,0,0-.72-.51h0l0,0h-1.49a3.35,3.35,0,0,0-2.36,1l0,0h0l0,0h0l0,0h0l0,0h0v0h0v0h0l0,0h0l0,0h0l0,0h0l0,0h0l0,0h0l0,0h0l0,0h0l0,0h0v0h0v0h0l0,0h0l0,0h0l0,0h0l0,0h0l0,0h0l0,0h0l0,0h0v0h0v0h0v0h0v0h0v0h0v0h0v0h0l0,0v0h0v0h0v0h0v0h0v.08h0v.06h0v0h0l0,0h0v0h0v0h0v.07h0v.16h0v0h0v0h0v0h0v0h0v0h0v0h0v0h0v0h0v0h0v.24a3.39,3.39,0,0,0,.06.64v0h0v0h0v0h0v0h0v0h0v0h0v0h0v0h0v0h0v0h0v0h0v0h0v0h0v0h0v0h0v0h0l0,0h0v0h0v0h0l0,0h0v0h0v0h0v0h0l0,0h0v0h0l0,0h0v0h0v0h0v0h0l0,0h0v0h0v0h0l0,0h0v0h0v0h0l0,0h0v0h0v0h0l0,0h0l0,0h0v0h0v0h0l0,0h0l0,0h0v0h0l0,0h0l0,0h0l0,0h0l0,0,0,0h.19v0h.23l0,0h.15l0,0h.09l0,0h.06a3.63,3.63,0,0,0,.84.29h.66a3.3,3.3,0,0,0,2.36-1l0,0h0l0,0h0l0,0h0l0,0h0l0,0h0l0,0h0l0,0h0l0,0h0v0h0l0,0h0l0,0h0v0h0l0,0h0l0,0h0v0h0v0h0l0,0h0l0,0v0h0l0,0h0l0,0h0v0h0v0h0l0,0h0v0h0v0h0l0,0h0v0h0v0h0v0h0v0h0v0h0v0h0v0h0v0h0v0h0v0h0v0h0v0h0v0h0v0h0v0h0v0h0v0h0v0h0v0h0v0h0v0h0v0h0v0a3.39,3.39,0,0,0,.06-.64,1.93,1.93,0,0,0,0-.24h0v0h0v0h0v0h0v0h0v0h0v0h0v0h0v0h0v-.2h0v-.07h0v0h0l0-.11h0v-.06h0v-.08h0v0h0l0,0h0v0h0l0,0,0-.07h0v0h0v0h0v0h0v0h0v0h0v0h0v0h0l0,0h0l0,0h0l0,0h0l0,0h0l0,0h0v0h0v0h0v0h0l0,0h0l0,0h0l0,0h0l0,0h0l0,0h0l0,0h0l0,0h0v0h0l0,0h0l0,0h0v0h0l0,0h0l0,0h0l0,0-.05,0,0,0Z"/><path class="cls-4" d="M142.68,29.27a1.44,1.44,0,0,0-.3.88h0a1.49,1.49,0,0,0,.43,1,1.46,1.46,0,0,0,1,.42h.72a1.33,1.33,0,0,0,.3-.23,1.39,1.39,0,0,0,.31-.45h.12v0a1.45,1.45,0,0,0-1.45-1.45,1.46,1.46,0,0,0-1,.42h-.13Z"/><path class="cls-2" d="M58.92,54.68,56.52,58a16.39,16.39,0,0,1-.13,5.4c.87,2.59,4.6,3,9,2.28l-.61-7.75C71.3,49.87,65.14,52.85,58.92,54.68Z"/><path class="cls-2" d="M105.23,53c-.28,1.87.57,2.87.66,4.51-.68,4.32-.8,8.22,4.67,7.64a7.09,7.09,0,0,0,7-.71c-.6-7.65-2.82-10.77-7.3-11.62l-.21.23a3.43,3.43,0,0,1-2.4,1,3.39,3.39,0,0,1-2.4-1Z"/><path class="cls-1" d="M104.43,51.63c-1.1.12-2.27.28-3.51.49a30.52,30.52,0,0,1-9.86-.6,3.05,3.05,0,0,0,.26-1.21,2.94,2.94,0,0,0-4.69-2.37l-3.71-6.42a5.27,5.27,0,0,0,.51-.43,4.22,4.22,0,0,0,0-6,5.37,5.37,0,0,0-.51-.44l6.4-11.08h12.8a4.2,4.2,0,0,0,4.19,3.78A4.31,4.31,0,0,0,108,27l5.38,9.31-.13.12a2.33,2.33,0,0,0,0,3.29l.13.12L109,47.53a3.45,3.45,0,0,0-1.29-.26,3.39,3.39,0,0,0-2.4,1,3.35,3.35,0,0,0-1,2.4A3.43,3.43,0,0,0,104.43,51.63Z"/><path class="cls-1" d="M89.14,22.74H82l-2.34-4,.21-.19a2.76,2.76,0,0,0,0-3.91l-.21-.19,2.33-4h7.15l2.17,3.75-.21.19a2.76,2.76,0,0,0,0,3.91,2.54,2.54,0,0,0,.45.36Z"/><path class="cls-1" d="M40.93,38.41A74.23,74.23,0,0,0,46.28,33l0,0a4.14,4.14,0,0,0,7.07-2.92,3.49,3.49,0,0,0,0-.65h2.43l2.87,5a5.37,5.37,0,0,0-.51.44,4.22,4.22,0,0,0,0,6,4,4,0,0,0,.76.6l-3.12,5.39H48.42a2.9,2.9,0,0,0-.83-1.64,2.94,2.94,0,0,0-2.08-.86,3,3,0,0,0-1.08.2Z"/><path class="cls-3" d="M128.13,38.85c.76.69,1.47,1.41,2.22,2.08,1.15,1,1.91.62,2.65,1.24a5.14,5.14,0,0,1,.93,1.57l-5.21,4.53c-2,8.16,2.81,9.87,4.21,14.81,2.28,2,6.8,4.41,2,5.92l-10.23.39a9.56,9.56,0,0,1-5.89-5.56c-.57-7.92-3-11.32-7.88-12.19a3.41,3.41,0,0,0-.85-3.37,3.17,3.17,0,0,0-.34-.3l4.42-7.66a2.38,2.38,0,0,0,.76.13,2.3,2.3,0,0,0,1.65-.69,2.37,2.37,0,0,0,.63-1.15Z"/><path class="cls-3" d="M59.41,34l-3.12-5.41H53.12a4.08,4.08,0,0,0-.93-1.41,3.87,3.87,0,0,0-.63-.52c6.89-8.58,13.23-16.92,24.84-21s31.14,0,39.65,8.55l1,.71a14.13,14.13,0,0,0,0,5.94c.48,1.38,1.82,2.5,2.16,3.64.29.93-.42,1.31-.2,2.36s1.78,1.14,2.15,1.93-.58,1.51,0,2.54c.62.85,2.81,1.68,3.43,2.53s-.63,1.92.34,2.69A12.26,12.26,0,0,1,127.1,38l-9.87-.23a2.33,2.33,0,0,0-2.3-1.94,2.19,2.19,0,0,0-.77.13l-5.37-9.32c.17-.13.34-.28.5-.43a4.22,4.22,0,0,0-6-6,4.19,4.19,0,0,0-1.21,2.55h-12l2.21-3.81a2.63,2.63,0,0,0,.7.09,2.77,2.77,0,0,0,0-5.53,3,3,0,0,0-1,.18L89.64,9.48H81.48L78.89,14a2.67,2.67,0,0,0-1-.19,2.77,2.77,0,1,0,0,5.53,2.67,2.67,0,0,0,1-.18l2.59,4.48h6.83q-3.06,5.33-6.14,10.65a4.19,4.19,0,0,0-4.7.87,4.21,4.21,0,0,0-1.22,2.54H65.34a4.24,4.24,0,0,0-4.22-4.08A4.07,4.07,0,0,0,59.41,34Z"/><path class="cls-4" d="M109.23,48.86a2.4,2.4,0,0,0-.76-.44h-.78A2.38,2.38,0,0,0,106,49a2.41,2.41,0,0,0-.7,1.69v0h0v0h0v0h0v0h0v0h0v0h0v0h0v0h0v0h0v0h0v0h0v0h0v0h0v0h0v0h0a2.53,2.53,0,0,0,.54.83,2.4,2.4,0,0,0,3.37,0,2.44,2.44,0,0,0,.55-.86h0v0h0v0h0v0h0v0h0v0h0v0h0v0h0v0h0v0h0v0h0v0h0v0h0v0h0v0h0a2.41,2.41,0,0,0-.7-1.69h-.14Z"/><path class="cls-4" d="M92.51,14.45a1.79,1.79,0,0,0-.76.43h0v0h0a1.9,1.9,0,0,0-.55,1.34,1.87,1.87,0,0,0,.55,1.33h.16l0,0H92a1.83,1.83,0,0,0,.83.32h.24a1.89,1.89,0,0,0,0-3.77h-.54Z"/><path class="cls-4" d="M79.2,15.18a1.84,1.84,0,0,0-.75-.44h-.54a1.89,1.89,0,1,0,0,3.77h.54a2,2,0,0,0,.75-.44h0l0,0a1.87,1.87,0,0,0,.55-1.33,1.9,1.9,0,0,0-.55-1.34h0l0,0Z"/><path class="cls-4" d="M51,27.32a3.23,3.23,0,0,0-1.74-.51A3.26,3.26,0,0,0,46,30.08a3.23,3.23,0,0,0,.86,2.21h0l.08.09a3.27,3.27,0,0,0,5.58-2.31h0v0h0v0h0v0h0a2.91,2.91,0,0,0-.31-.87h0v0h0v0h0v0h0v0h0v0h0v0h0v0h0v0h0v0h0v0H51.8l0,0h0v0h-.05v0h-.07v0H51Z"/><path class="cls-4" d="M59.88,34.71a3.1,3.1,0,0,0-.79.45h-.33a3.36,3.36,0,0,0,0,4.72h.58a3.45,3.45,0,0,0,.8.37h1a3.34,3.34,0,0,0,2.36-1l0,0h0l0,0h0l0,0h0v0h0l0,0h0l0,0h0v0h0l0,0h0l0,0h0l0,0h0l0,0h0l0,0v0h0v0h0l0,0h0v0h0l0,0h0l0,0h0l0,0h0v0h0v0h0l0,0h0v0h0v0h0l0,0v0h0l0,0h0v0h0v0h0v0h0v0h0v0h0v0h0v0h0v0h0v0h0v0h0v0h0v0h0v0h0v0h0v0h0v0h0v0h0v0h0v-.06h0v0a3.47,3.47,0,0,0,.08-.73v-.17h0v0h0v0h0v0h0v0h0v0h0v0h0v0h0v0h0v0h0v0h0v0h0v0h0v0h0v0h0v0h0v0h0v0h0v0h0v0h0v0h0v0h0v0l0,0h0v0h0v0h0v0h0v0h0v0h0v0h0v-.06h0v-.08h0v0h0v0h0v0h0v0h0v0h0l0,0h0l0,0h0l0,0,0,0h0l0,0h0l0,0h0l0,0h0l0,0h0l0,0h0v0h0l0,0h0v0h0v0h0v0h0l0,0h0v0h0l0,0h0l0,0h0l0,0h0l0,0h0l0,0h0l0,0a3.3,3.3,0,0,0-2.36-1H59.88Z"/><path class="cls-4" d="M44.88,45.25a2.23,2.23,0,0,0-.76.44h0l-.07.07a2.07,2.07,0,0,0,1.46,3.53A2,2,0,0,0,47,48.68h.18v0h0v0h0v0h0v0h0v0h0v0h0v0h0v0h0v0h0v0h0v0h0v0h0v0h0v0h0v0h0v0h0v0h0v0h0v0h0v0h0v0h0a2.12,2.12,0,0,0,0-.44,2.2,2.2,0,0,0,0-.44h0v0h0v0h0v0h0v0h0v0h0v0h0v0h0v0h0v0h0v0h0v0h0v0h0v0h0v0h0v0h0v0h0v0h0v0h0v0h0v0h-.09v0h0v0h0l0,0H47a2.06,2.06,0,0,0-1.46-.6h-.63Z"/><path class="cls-4" d="M82.48,35.46a3.51,3.51,0,0,0-.75-.44H80.45a3.3,3.3,0,0,0-2.36,1l0,0h0v0h0v0h0l0,0h0l0,0h0l0,0h0l0,0h0v0h0l0,0h0l0,0h0l0,0h0v0h0v0h0l0,0h0l0,0h0l0,0h0l0,0h0l0,0h0l0,0h0l0,0h0v0h0v0h0v0h0l0,0h0v0h0v0h0l0,0h0v0h0l0,0h0v0h0l0,0h0v0h0v0h0v0h0v0h0v0h0v0h0v0h0v.06h0v0h0v0h0v0h0v.08h0v0h0v0h0v.09h0v0h0v0h0v0h0v0a3.15,3.15,0,0,0,0,.44,3,3,0,0,0,0,.43v0h0v0h0v0h0v.08h0v0h0v.06h0v0h0V39h0v0h0v0h0v0h0v0h0v0h0v0h0v0h0v0h0v0h0v0h0v0h0l0,0h0v0h0l0,0v0h0v0h0l0,0h0v0h0v0h0l0,0h0v0h0v0h0v0h0l0,0h0l0,0h0l0,0v0h0l0,0h0l0,0h0l0,0h0l0,0h0v0h0v0h0l0,0h0l0,0h0l0,0h0v0h0l0,0h0l0,0h0l0,0h0l0,0h0v0h0v0h0l0,0h0l0,0a3.33,3.33,0,0,0,2.36,1h1.27a3,3,0,0,0,.76-.44h.33a3.33,3.33,0,0,0,0-4.72h-.33Z"/><path class="cls-4" d="M103,22.74a3.15,3.15,0,0,0,0,.44,3.11,3.11,0,0,0,0,.43v0h0v0h0v0h0v.09h0v0h0v.07h0v0h0v0h0v0h0v0h0v0h0v0h0v0h0v0h0v0h0v0h0v0h0v.08h0v0h0v0h0v0h0v0h0v0h0v0h0l0,0h0v0h0v0h0v0h0l0,0h0v0h0v0h0v0h0v0h0v0h0l0,0h0l0,0h0v0h0v0h0l0,0h0l0,0h0l0,0h0l0,0h0v0h0v0h0l0,0h0l0,0h0l0,0h0l0,0h0v0h0l0,0h0l0,0a3.3,3.3,0,0,0,2.36,1h1.28a3.14,3.14,0,0,0,.75-.44h.33A3.33,3.33,0,1,0,104,20.82l0,0h0l0,0h0v0h0l0,0h0l0,0h0l0,0h0l0,0h0v0h0v0h0l0,0h0l0,0h0l0,0h0l0,0h0v0h0v0h0l0,0h0l0,0h0v0h0v0h0v0h0l0,0h0v0h0l0,0h0v0h0v0h0v0h0l0,0h0v0h0v0h0v0h0v0h0v0h0v0h0v0h0v0h0v0h0v0h0v0h0v0h0v.08h0v0h0v0h0v0h0v.08h0v0h0v0h0v0h0v.05h0v0h0v0h0v0h0Z"/><path class="cls-4" d="M87.07,48.71l-.16.14a1.94,1.94,0,0,0-.41.6h0v0H86.4v0h0v0h0v0h0v0h0v0h0v0h0v0h0v0h0v0h0v0h0v0h0v0h0v0h0v0h0v0h0v0h0v0h0v0h0v0h0v0h0v0h0v0h0v0h0v0h0v0h0v0h0v0h0v0h0v0h0v0h0v0h0v0h0v0h0v0h0v0h0v0h0v0h0v0h0v0h0v0h0v0h0v0h0v0h0v0h0v0h0v0h0v0l0,0h0v0l0,0h0l0,0h0v0h0l.14.16a2.09,2.09,0,0,0,2.93,0,2.29,2.29,0,0,0,.32-.43h.07v0h0v0h0v0h0v0h0v0h0v0h0v0h0v0h0v0h0v0h0v0h0v0h0v0h0v0h0v0h0v0h0v0h0v0h0v0h0v0h0v0h0v0h0v0h0v0h0v0h0v0h0v0h0v0h0v0a2.07,2.07,0,0,0-2.07-2.07H87.28l0,0h-.12l0,0h-.05Z"/><path class="cls-4" d="M114.62,36.69a1.49,1.49,0,0,0-.72.39l0,.05h-.1v0h0v0h-.09v0h0v0h0v0h0v0h0v0h0v0h0v0h0v0h0v0h0v0h0v0h0v0h0v0h0v0h0v0h0v0h0v0h0v0h.06v0h0v0h.13l0,0h0v0h.07l0,0a1.43,1.43,0,0,0,.72.4h.31a1.44,1.44,0,0,0,1-.43h.35a1.49,1.49,0,0,0,.07-.47,1.84,1.84,0,0,0,0-.41H116a1.49,1.49,0,0,0-1-.43h-.31Z"/><path class="cls-3" d="M2.27,53c18.68-1,29.8-6.75,38-14l3.42,5.91-.25.22a2.94,2.94,0,0,0,4.16,4.16,2.84,2.84,0,0,0,.83-1.64h7.87l3.4-5.89a4.26,4.26,0,0,0,1.43.25,4.2,4.2,0,0,0,4.15-3.48h11a4.26,4.26,0,0,0,1.22,2.55,4.19,4.19,0,0,0,3,1.23A4.31,4.31,0,0,0,82.17,42L86,48.58a2.95,2.95,0,0,0,.3,3.81l.24.21c-1.06,4-2.68,6.11-4.57,9.46,3.63,2.62,4.5,6.1-2.33,7.07-4.33,1-10.44,1.45-12.6-3.45-.28-2.49-.55-5-.83-7.47,7.54-10-1.14-6.91-8-4.9C39.65,58,15.76,56.55,2.53,56.53-.55,56.71-1,53.29,2.27,53Z"/><path class="cls-4" d="M133.37,9.41a2.09,2.09,0,1,1-2.1,2.09A2.1,2.1,0,0,1,133.37,9.41Z"/><text class="cls-5" transform="translate(6.98 139.82) scale(1.1 1)">N<tspan class="cls-6" x="27.86" y="0">o</tspan><tspan class="cls-7" x="52.8" y="0">C</tspan><tspan class="cls-6" x="79.2" y="0">ode</tspan></text><path class="cls-8" d="M5.12,75.81H37.89v9.6H16.29v6.17H35.85v8.91H16.29V107H38.18v9.6H5.12Z"/><path class="cls-8" d="M42.56,96.18C42.56,84.3,51.87,75,64.5,75,71.67,75,76.73,77.2,81,80.93l-6.63,8a14.36,14.36,0,0,0-9.84-3.85c-5.88,0-10.42,5-10.42,11.3,0,6.57,4.6,11.29,11.06,11.29A11.46,11.46,0,0,0,71.72,106V101h-8V92.75H82.43v18.33a27.53,27.53,0,0,1-17.69,6.29C52.05,117.37,42.56,108.64,42.56,96.18Z"/><path class="cls-8" d="M102.82,75.52h10.89l17.34,41H118.94l-3-7.27H100.26l-2.91,7.27H85.47Zm9.9,25-4.54-11.58-4.6,11.58Z"/><path class="cls-8" d="M135,75.81h19.26c6.23,0,10.54,1.63,13.28,4.36,2.38,2.39,3.61,5.53,3.61,9.67,0,6.22-3.32,10.36-8.39,12.51l9.72,14.2h-13l-8.2-12.34h-5v12.34H135Zm18.74,19.56c3.84,0,6.06-1.87,6.06-5s-2.33-4.83-6.12-4.83h-7.39v9.78Z"/></g></g></svg>