<svg width="395" height="265" viewBox="0 0 395 265" fill="none" xmlns="http://www.w3.org/2000/svg">
<path d="M297.57 204.805C297.57 212.165 301.752 214.173 306.436 214.173C307.607 214.173 308.109 214.173 310.116 214.006V218.857L283.351 222.369V208.151H282.515C278.333 215.511 269.467 222.202 259.598 222.202C246.215 222.202 236.681 213.002 236.681 198.114V156.462C236.681 149.269 233.502 147.261 227.982 147.094L223.633 146.927V141.908H231.495C238.521 141.908 246.55 141.574 251.067 141.239C250.899 143.414 250.899 147.429 250.899 156.294V194.768C250.899 206.478 257.59 210.995 266.122 210.995C271.809 210.995 279.002 207.482 283.351 201.627V155.96C283.351 149.101 279.337 147.261 274.82 147.094L269.467 146.927V141.908H279.504C284.355 141.908 292.217 141.574 297.57 141.239V204.805Z" fill="#1A0C6D"/>
<path d="M186.571 257.593C165.326 257.593 146.926 239.861 146.926 215.773C146.926 191.517 165.326 173.953 186.571 173.953C207.815 173.953 226.216 191.517 226.216 215.773C226.216 239.861 207.815 257.593 186.571 257.593ZM186.571 249.898C200.957 249.898 209.655 235.846 209.655 215.773C209.655 195.03 200.622 181.648 186.571 181.648C172.018 181.648 163.486 195.699 163.486 215.773C163.486 236.348 172.519 249.898 186.571 249.898Z" fill="#1A0C6D"/>
<path d="M106.73 250.973H108.738C117.102 250.973 119.611 247.628 119.611 240.602V154.453C119.611 147.929 116.934 145.587 111.08 145.587C109.072 145.587 106.73 145.922 103.385 146.424V141.74C111.08 140.402 125.298 136.722 129.815 135.049H133.83V240.602C133.83 247.628 136.171 250.973 144.201 250.973H146.71V255.991H106.73V250.973Z" fill="#1A0C6D"/>
<path d="M52.3323 257.669C22.0548 257.669 0.308594 233.247 0.308594 200.125C0.308594 163.826 26.2368 137.229 59.6926 137.229C77.2569 137.229 89.8028 141.243 96.9958 145.592V177.375H91.141C90.9737 158.807 79.5988 145.592 58.8562 145.592C34.2662 145.592 15.3637 163.993 15.3637 193.602C15.3637 222.541 34.0989 241.778 57.6852 241.778C76.2532 241.778 87.9627 230.737 92.4793 216.519H98.1667C94.9884 235.923 80.4352 257.669 52.3323 257.669Z" fill="#1A0C6D"/>
<path d="M301.729 85.5869H303.569C312.1 85.5869 314.609 82.2413 314.609 75.3829V30.3849C314.609 23.3592 311.933 21.0173 305.242 21.0173H300.391V16.5007C306.58 15.1625 319.795 11.8169 324.981 10.1441H328.828V22.69H329.664C335.017 14.9952 343.549 9.80957 353.92 9.80957C368.473 9.80957 376.503 18.8426 376.503 33.0613V74.881C376.503 81.7395 378.008 85.5869 386.037 85.5869H388.379V90.6053H351.076V85.5869H353.418C361.28 85.5869 362.284 81.7395 362.284 75.3829V38.247C362.284 26.0356 356.262 20.6827 346.894 20.6827C340.37 20.6827 333.01 23.861 328.828 29.3812V75.3829C328.828 82.4086 330.835 85.5869 338.53 85.5869H341.039V90.6053H301.729V85.5869Z" fill="#1A0C6D"/>
<path d="M394.508 218.856L367.743 222.369V208.318H366.907C363.06 216.849 355.532 222.202 344.993 222.202C325.422 222.202 311.203 204.637 311.203 182.389C311.203 153.116 331.946 139.733 349.51 139.733C357.707 139.733 364.398 141.908 367.743 145.086V119.325C367.743 112.969 365.234 110.459 359.714 110.459C358.71 110.459 357.205 110.627 354.361 110.961L349.343 111.463V106.779C357.372 105.274 373.096 101.594 377.947 99.9209H381.962V204.805C381.962 212.165 386.144 214.172 390.828 214.172C391.999 214.172 392.501 214.172 394.508 214.005V218.856ZM350.848 208.987C358.71 208.987 364.231 206.478 367.743 201.292V164.992C367.743 154.287 362.056 146.926 350.179 146.926C337.968 146.926 324.753 155.959 324.753 177.371C324.753 194.768 334.622 208.987 350.848 208.987Z" fill="#1A0C6D"/>
<path d="M240.108 76.2282C239.941 77.901 239.941 79.4065 239.941 81.0793C240.108 98.9781 250.479 113.03 267.207 113.03C278.749 113.03 285.942 105.502 288.451 96.6362H293.135C291.63 108.848 282.931 127.583 262.356 127.583C242.45 127.583 227.896 110.855 227.896 87.1013C227.896 61.8422 243.453 43.9434 264.029 43.9434C281.928 43.9434 293.303 56.6566 293.303 76.2282H240.108ZM261.687 50.9691C251.148 50.9691 242.952 59.5003 241.112 69.7043H279.753C279.418 61.6749 274.233 50.9691 261.687 50.9691Z" fill="#1A0C6D"/>
<path d="M217.521 24.8738C213.005 24.8738 209.324 23.0337 206.481 20.3573L205.644 21.1937C210.328 26.3793 213.005 32.9032 213.005 39.5943C213.005 55.1513 200.459 68.199 182.225 68.199H174.029C168.007 68.199 162.319 70.0391 162.319 74.5556C162.319 77.9012 165.33 79.7413 170.181 80.0758L197.28 82.2505C213.005 83.5887 220.532 91.1162 220.532 101.822C220.532 118.55 204.306 127.583 182.225 127.583C160.144 127.583 145.926 119.888 145.926 107.51C145.926 100.317 151.948 94.2945 161.148 92.789C155.293 91.1162 150.108 86.9343 150.108 79.9086C150.108 70.0391 160.814 65.6898 169.01 65.0207C158.472 61.6752 151.446 50.6348 151.446 39.5943C151.446 24.372 164.159 11.3242 182.225 11.3242C186.742 11.3242 189.92 11.9933 193.266 12.8297C196.611 13.4988 200.124 14.3352 205.477 14.3352H224.714V24.8738H217.521ZM182.225 61.1733C189.251 61.1733 198.451 56.155 198.451 39.5943C198.451 23.0337 189.251 18.3499 182.225 18.3499C175.367 18.3499 165.999 23.0337 165.999 39.5943C165.999 56.155 175.2 61.1733 182.225 61.1733ZM208.488 106.339C208.488 101.153 204.975 97.3056 195.942 96.4692L166.334 93.7927C161.315 95.2982 157.301 98.9783 157.301 105.168C157.301 114.368 167.003 120.39 183.396 120.39C198.786 120.39 208.488 114.87 208.488 106.339Z" fill="#1A0C6D"/>
<path d="M95.0973 94.457L87.4024 125.905H0.751953V120.887H3.5957C15.1379 120.887 16.4762 115.701 16.4762 107.839V28.2146C16.4762 20.3524 15.1379 15.1668 3.5957 15.1668H0.751953V10.1484H91.4171V39.5895H85.5623C85.3951 31.0583 83.2204 25.7054 79.2057 22.5271C75.0238 19.3488 69.0017 18.1778 60.9724 18.1778H32.7022V64.0122H55.954C68.3326 64.0122 72.6819 60.6667 72.8492 47.9535H78.3693V87.9331H72.8492C72.5146 75.889 67.9981 72.0416 55.954 72.0416H32.7022V107.672C32.7022 114.029 35.7132 117.04 41.9026 117.04H58.6304C75.1911 117.04 82.5513 110.683 88.9079 94.457H95.0973Z" fill="#1A0C6D"/>
<path d="M135.389 28.4325C129.203 28.4325 125.19 24.2525 125.19 18.2332C125.19 11.7123 130.708 6.69629 136.894 6.69629C143.08 6.69629 146.926 10.8763 146.926 16.8956C146.926 23.4164 141.576 28.4325 135.389 28.4325ZM112.149 127.583C105.628 127.583 102.451 123.236 102.451 117.551C102.451 115.377 103.12 112.702 104.123 109.692L119.338 66.0528C120.007 63.8792 120.341 62.7088 120.341 61.7056C120.341 59.6992 119.171 58.3616 116.997 58.3616C113.821 58.3616 110.142 62.04 104.29 69.7313L100.946 67.5577C105.962 59.3648 116.496 44.1494 126.361 44.1494C132.213 44.1494 135.055 47.6607 135.055 52.3423C135.055 53.6799 134.553 55.6863 133.884 57.86L118.168 106.348C117.833 107.519 117.499 108.856 117.499 109.692C117.499 112.2 119.004 113.705 121.177 113.705C126.193 113.705 132.045 107.853 136.225 99.8276L139.904 102.001C133.216 115.377 123.017 127.583 112.149 127.583Z" fill="#1A0C6D"/>
</svg>
