<?xml version="1.0" encoding="utf-8"?>
<!-- Generator: Adobe Illustrator 25.0.1, SVG Export Plug-In . SVG Version: 6.00 Build 0)  -->
<svg version="1.1" id="Ebene_1" xmlns="http://www.w3.org/2000/svg" xmlns:xlink="http://www.w3.org/1999/xlink" x="0px" y="0px"
	 viewBox="0 0 368.5 240.94" style="enable-background:new 0 0 368.5 240.94;" xml:space="preserve">
<style type="text/css">
	.st0{fill:#474847;}
	.st1{fill:#C47552;}
</style>
<path class="st0" d="M40.01,176H10.4v4.69c0,5.14,3.13,7.82,7.82,7.82h25.36v7.82H18.22c-8.71,0-15.64-5.81-15.64-15.64V163.6
	c0-9.83,6.93-15.64,15.64-15.64h12.29c8.94,0,15.64,5.92,15.64,15.64v6.14C46.15,173.65,42.91,176,40.01,176z M38.33,163.6
	c0-5.25-2.9-7.82-7.82-7.82H18.22c-4.69,0-7.82,2.68-7.82,7.82v4.58h27.93V163.6z M170.15,196.33h-12.29
	c-8.94,0-15.64-5.92-15.64-15.64V163.6v-37.43h7.82v23.57c2.23-1.23,4.92-1.79,7.82-1.79h12.29c8.71,0,15.64,5.81,15.64,15.64v17.09
	C185.79,190.52,178.86,196.33,170.15,196.33z M177.97,163.6c0-5.14-3.13-7.82-7.82-7.82h-12.29c-4.92,0-7.82,2.57-7.82,7.82v17.09
	c0,5.25,2.9,7.82,7.82,7.82h12.29c4.69,0,7.82-2.68,7.82-7.82V163.6z M240.43,176h-29.61v4.69c0,5.14,3.13,7.82,7.82,7.82H244v7.82
	h-25.36c-8.71,0-15.64-5.81-15.64-15.64V163.6c0-9.83,6.93-15.64,15.64-15.64h12.29c8.94,0,15.64,5.92,15.64,15.64v6.14
	C246.57,173.65,243.33,176,240.43,176z M238.75,163.6c0-5.25-2.9-7.82-7.82-7.82h-12.29c-4.69,0-7.82,2.68-7.82,7.82v4.58h27.93
	V163.6z M293.27,196.33h-15.31c-8.27,0-15.64-4.47-15.64-14.08c0-9.16,5.59-13.18,13.97-14.08c0.22,0,13.74-1.34,17.43-1.79
	c2.23-0.34,4.02-1.01,4.36-3.13c0.11-0.67,0-1.12,0-1.12c-0.45-4.13-3.24-6.37-7.49-6.37h-10.95c-4.69,0-7.26,1.68-8.04,4.8
	l-1.01,3.13l-7.26-2.23l0.78-2.9c2.01-7.93,8.94-10.61,15.53-10.61h10.95c8.94,0,15.42,6.15,15.42,15.64v20
	C306,191.52,300.53,196.33,293.27,196.33z M298.18,173.31c-1.12,0.34-2.23,0.67-3.46,0.78c-3.8,0.45-17.54,1.9-17.65,1.9
	c-5.59,0.56-6.93,2.12-6.93,6.26c0,3.91,2.35,6.26,7.82,6.26h15.31c3.24,0,4.92-1.56,4.92-4.92
	C298.18,183.59,298.18,178.23,298.18,173.31z M358.17,166.39v-2.79c0-5.25-2.9-7.82-7.82-7.82h-5.59c-4.69,0-7.82,2.68-7.82,7.82
	v24.91h15.19v7.82h-32.96v-7.82h9.94V163.6c0-9.72,6.7-15.64,15.64-15.64h5.59c8.94,0,15.64,5.92,15.64,15.64v2.79H358.17z"/>
<path class="st0" d="M110.93,147.82h-7.62c-3.84,0-7.32,1.58-9.83,4.12c-2.51-2.54-5.98-4.12-9.83-4.12h-7.62
	c-7.62,0-13.81,6.2-13.81,13.81v34.69h7.97v-34.69c0-3.22,2.62-5.84,5.84-5.84h7.62c3.22,0,5.84,2.62,5.84,5.84v34.69h7.97v-34.69
	c0-3.22,2.62-5.84,5.84-5.84h7.62c3.22,0,5.84,2.62,5.84,5.84v34.69h7.97v-34.69C124.74,154.02,118.54,147.82,110.93,147.82z"/>
<g>
	<path class="st1" d="M206.85,56.69c0-0.98-0.39-1.93-1.08-2.62l-11.11-11.11l-5.24,5.24l10.03,10.02v22.65l-10.09,8.31V75.39
		c3.3-1.44,5.61-4.72,5.61-8.55c0-5.14-4.18-9.32-9.32-9.32c-5.14,0-9.32,4.18-9.32,9.32c0,3.82,2.31,7.11,5.61,8.54v21.64
		c0,1.43,0.83,2.74,2.12,3.35c0.5,0.24,1.04,0.35,1.58,0.35c0.84,0,1.68-0.29,2.36-0.85l17.5-14.41c0.85-0.7,1.35-1.75,1.35-2.86
		V56.69z M185.65,63.52c1.83,0,3.32,1.49,3.32,3.32s-1.49,3.32-3.32,3.32c-1.83,0-3.32-1.49-3.32-3.32S183.82,63.52,185.65,63.52z"
		/>
	<path class="st1" d="M168.92,41.19c0-5.14-4.18-9.32-9.32-9.32c-5.14,0-9.32,4.18-9.32,9.32c0,5.14,4.18,9.32,9.32,9.32
		C164.74,50.51,168.92,46.33,168.92,41.19z M159.61,44.51c-1.83,0-3.32-1.49-3.32-3.32s1.49-3.32,3.32-3.32s3.32,1.49,3.32,3.32
		S161.44,44.51,159.61,44.51z"/>
	<path class="st1" d="M211.7,50.51c5.14,0,9.32-4.18,9.32-9.32c0-5.14-4.18-9.32-9.32-9.32s-9.32,4.18-9.32,9.32
		C202.38,46.33,206.56,50.51,211.7,50.51z M211.7,37.87c1.83,0,3.32,1.49,3.32,3.32s-1.49,3.32-3.32,3.32s-3.32-1.49-3.32-3.32
		S209.87,37.87,211.7,37.87z"/>
	<path class="st1" d="M247.96,39.61c7.11-9.65,6.33-23.33-2.4-32.06c-9.62-9.62-25.28-9.62-34.9,0l5.24,5.24
		c6.73-6.73,17.69-6.73,24.42,0c5.83,5.83,6.6,14.83,2.33,21.51l-5.88-5.88c0.42-1.06,0.66-2.21,0.66-3.42
		c0-5.14-4.18-9.32-9.32-9.32s-9.32,4.18-9.32,9.32s4.18,9.32,9.32,9.32c1.21,0,2.36-0.24,3.42-0.66l12.51,12.51v33.07l-12.24,12.24
		h-24.97v7.41h26.5c0.98,0,1.92-0.39,2.62-1.08l14.41-14.41c0.69-0.69,1.08-1.64,1.08-2.62V44.63c0-0.98-0.39-1.93-1.08-2.62
		L247.96,39.61z M224.79,25c0-1.83,1.49-3.32,3.32-3.32s3.32,1.49,3.32,3.32s-1.49,3.32-3.32,3.32S224.79,26.83,224.79,25z"/>
	<path class="st1" d="M172.34,57.74l15.93-15.93c0.69-0.69,1.08-1.64,1.08-2.62V10.17c0-2.05-1.66-3.71-3.71-3.71h-26.16
		c-9.68-8.52-24.5-8.16-33.74,1.08c-8.73,8.73-9.51,22.41-2.4,32.06l-2.4,2.4c-0.7,0.69-1.09,1.64-1.09,2.62v36.76
		c0,0.98,0.39,1.93,1.09,2.62l15.02,15.02l5.24-5.24l-13.94-13.94V46.17l12.51-12.51c1.06,0.42,2.21,0.66,3.42,0.66
		c5.14,0,9.32-4.18,9.32-9.32s-4.18-9.32-9.32-9.32c-5.14,0-9.32,4.18-9.32,9.32c0,1.21,0.24,2.36,0.66,3.42l-5.88,5.88
		c-4.27-6.68-3.5-15.68,2.33-21.51c6.73-6.73,17.69-6.73,24.42,0c0.69,0.69,1.64,1.08,2.62,1.08h23.92v23.78l-15.93,15.93
		c-0.69,0.69-1.08,1.64-1.08,2.62v26.41c0,0.98,0.39,1.93,1.08,2.62l7.36,7.36l5.24-5.24l-6.27-6.27V57.74z M143.19,21.68
		c1.83,0,3.32,1.49,3.32,3.32s-1.49,3.32-3.32,3.32s-3.32-1.49-3.32-3.32S141.36,21.68,143.19,21.68z"/>
</g>
<g>
	<path class="st0" d="M12.04,240.15H8.38c-2.59,0-4.65-1.83-4.65-4.69v-0.83h2.33v0.83c0,1.53,0.93,2.36,2.33,2.36h3.66
		c1.46,0,2.33-0.8,2.33-2.33v-2.19c0-1.46-0.03-2.19-4.16-2.19c-4.19,0-6.48-0.76-6.48-5.19v-0.83c0-2.93,2.06-4.65,4.65-4.65h3.66
		c2.69,0,4.65,1.76,4.65,4.65v1.03h-2.33v-1.03c0-1.56-0.86-2.33-2.33-2.33H8.38c-1.4,0-2.33,0.8-2.33,2.33v0.83
		c0,2.43,0.4,2.86,4.16,2.86c4.45,0,6.48,1,6.48,4.52v2.19C16.69,238.39,14.7,240.15,12.04,240.15z"/>
	<path class="st0" d="M30.81,240.15h-3.66c-2.59,0-4.65-1.73-4.65-4.65v-10.4c0-2.93,2.06-4.65,4.65-4.65h3.66
		c2.66,0,4.65,1.76,4.65,4.65v10.4C35.47,238.39,33.47,240.15,30.81,240.15z M33.14,225.09c0-1.53-0.87-2.33-2.33-2.33h-3.66
		c-1.4,0-2.33,0.8-2.33,2.33v10.4c0,1.53,0.93,2.33,2.33,2.33h3.66c1.46,0,2.33-0.8,2.33-2.33V225.09z"/>
	<path class="st0" d="M44.08,222.76v6.25h7.4v2.33h-7.4v8.81h-2.33v-19.71h10.92v2.33H44.08z"/>
	<path class="st0" d="M62.74,222.76v17.39h-2.33v-17.39H55.1v-2.33h12.96v2.33H62.74z"/>
	<path class="st0" d="M85.68,235.66c-0.13,2.43-1.03,4.59-3.99,4.59c-1.3,0-2.23-0.4-2.83-1c-0.6,0.6-1.53,1-2.83,1
		c-2.96,0-3.86-2.16-3.99-4.59l-0.76-15.23h2.33l0.76,15.09c0.1,2.03,0.6,2.39,1.66,2.39c1.23,0,1.66-0.47,1.66-2.33v-8.51h2.33
		v8.51c0,1.86,0.43,2.33,1.66,2.33c1.06,0,1.56-0.37,1.66-2.39l0.77-15.09h2.29L85.68,235.66z"/>
	<path class="st0" d="M102.5,240.15l-1.03-5.49h-6.62l-1.13,5.49h-2.36l3.56-17.49c0.23-1.2,0.6-2.23,2.16-2.23h2.26
		c1.76,0,2.06,1.2,2.43,3.19l3.12,16.52H102.5z M99.44,223.46c-0.1-0.6-0.27-0.7-0.83-0.7h-0.76c-0.53,0-0.6,0.03-0.73,0.66
		l-1.79,8.91h5.82L99.44,223.46z"/>
	<path class="st0" d="M121.51,240.15l-2.73-8.64h-5.69v8.64h-2.33v-19.71h8.31c2.66,0,4.65,1.76,4.65,4.65v1.76
		c0,2.13-1.06,3.62-2.66,4.29l2.86,9.01H121.51z M121.41,225.09c0-1.53-0.87-2.33-2.33-2.33h-5.98v6.42h5.98
		c1.46,0,2.33-0.8,2.33-2.33V225.09z"/>
	<path class="st0" d="M130.78,240.15v-19.71h12.33v2.33h-10.01v6.25h6.85v2.33h-6.85v6.48h10.34v2.33H130.78z"/>
	<path class="st0" d="M171.1,240.15v-17.39c-0.17,0.46-3.39,11-3.39,11h-2.19c0,0-2.33-8.08-3.36-11h-0.03v17.39h-2.33v-19.71h3.86
		l2.96,9.67l2.89-9.67h3.92v19.71H171.1z"/>
	<path class="st0" d="M190.08,240.15l-1.03-5.49h-6.62l-1.13,5.49h-2.36l3.56-17.49c0.23-1.2,0.6-2.23,2.16-2.23h2.26
		c1.76,0,2.06,1.2,2.43,3.19l3.12,16.52H190.08z M187.02,223.46c-0.1-0.6-0.27-0.7-0.83-0.7h-0.76c-0.53,0-0.6,0.03-0.73,0.66
		l-1.79,8.91h5.82L187.02,223.46z"/>
	<path class="st0" d="M206.66,240.15h-8.38v-19.71h8.38c2.66,0,4.65,1.76,4.65,4.65v10.4C211.32,238.39,209.32,240.15,206.66,240.15
		z M208.99,225.09c0-1.53-0.87-2.33-2.33-2.33h-6.05v15.06h6.05c1.46,0,2.33-0.8,2.33-2.33V225.09z"/>
	<path class="st0" d="M218.69,240.15v-19.71h12.33v2.33h-10.01v6.25h6.85v2.33h-6.85v6.48h10.34v2.33H218.69z"/>
	<path class="st0" d="M245.35,240.15v-2.33h4.02v-15.06h-4.02v-2.33h10.37v2.33h-4.02v15.06h4.02v2.33H245.35z"/>
	<path class="st0" d="M271.39,240.15l-7.05-16.02v16.02h-2.33v-19.71h3.26l7.05,16.06v-16.06h2.33v19.71H271.39z"/>
	<path class="st0" d="M300.4,240.15h-8.31v-19.71h8.21c2.66,0,4.65,1.76,4.65,4.65v1.4c0,1.43-0.5,2.63-1.36,3.42
		c0.93,0.83,1.46,2.03,1.46,3.52v2.06C305.06,238.39,303.06,240.15,300.4,240.15z M302.63,225.09c0-1.53-0.87-2.33-2.33-2.33h-5.88
		v6.05h5.88c1.46,0,2.33-0.8,2.33-2.33V225.09z M302.73,233.43c0-1.53-0.87-2.29-2.33-2.29h-5.98v6.68h5.98
		c1.46,0,2.33-0.8,2.33-2.33V233.43z"/>
	<path class="st0" d="M311.77,240.15v-19.71h12.33v2.33H314.1v6.25h6.85v2.33h-6.85v6.48h10.34v2.33H311.77z"/>
	<path class="st0" d="M341.38,240.15l-2.72-8.64h-5.69v8.64h-2.33v-19.71h8.31c2.66,0,4.65,1.76,4.65,4.65v1.76
		c0,2.13-1.06,3.62-2.66,4.29l2.86,9.01H341.38z M341.28,225.09c0-1.53-0.87-2.33-2.33-2.33h-5.98v6.42h5.98
		c1.46,0,2.33-0.8,2.33-2.33V225.09z"/>
	<path class="st0" d="M359.63,240.15l-7.05-16.02v16.02h-2.33v-19.71h3.26l7.05,16.06v-16.06h2.33v19.71H359.63z"/>
</g>
</svg>
