<svg role="img" aria-hidden="true" focusable="false" xmlns="http://www.w3.org/2000/svg" viewBox="0 0 800 156"><path fill="#0a1964" d="M354.1 121.53c2.22-1.77 5.32-2.66 9.17-2.66 4.73 0 8.13 1.18 10.2 3.84l-2.22 3.1c-2.07-1.92-4.73-2.81-7.83-2.81-5.17 0-7.69 2.22-7.69 6.65v5.62c0 4.43 2.51 6.8 7.69 6.8 3.1 0 5.77-1.03 7.83-2.96l2.22 3.25c-2.07 2.51-5.47 3.84-10.2 3.84-3.84 0-6.95-.89-9.17-2.81-2.22-1.77-3.25-4.43-3.25-7.83v-6.21c0-3.4 1.03-5.91 3.25-7.83Zm58.39-2.21h5.03l10.94 26.46h-5.47l-1.92-5.03c-.3-.44-.59-.74-1.03-.74h-10.05c-.44 0-.89.3-1.03.74l-2.07 5.03h-5.47l11.09-26.46Zm6.8 17-3.1-7.54-1.18-3.55-1.33 3.55-2.96 7.54h8.57Zm37.25-17h12.86c3.1 0 5.62.74 7.24 2.37 1.77 1.63 2.66 3.7 2.66 6.36v.59c0 2.66-.89 4.73-2.66 6.36-1.63 1.63-4.14 2.37-7.24 2.37h-6.06v8.43h-5.03v-22.17c0-1.03-.15-1.63-.44-2.07s-.74-.59-1.33-.74v-1.48Zm6.8 14.19h5.47c1.63 0 3.1-.44 3.99-1.33 1.03-.74 1.48-2.07 1.48-3.55v-.59c0-1.63-.44-2.81-1.48-3.55-1.03-.89-2.37-1.33-3.99-1.33h-5.47v10.35Zm45.24-14.19h3.7c2.07 0 3.1 1.03 3.1 2.96v23.5h-4.88v-22.17c0-1.03-.15-1.63-.44-2.07-.3-.44-.74-.59-1.48-.74v-1.48Zm59.28 0v3.84h-8.72v22.62h-5.03v-22.62h-8.72v-3.84h22.47Zm36.36 0h5.03l10.94 26.46h-5.47l-1.92-5.03c-.3-.44-.59-.74-1.03-.74h-10.05c-.44 0-.89.3-1.03.74l-2.07 5.03h-5.47l11.09-26.46Zm6.8 17-3.1-7.54-1.18-3.55-1.33 3.55-2.96 7.54h8.57Zm40.8-17c2.22 0 3.25 1.03 3.25 2.96v19.51h13.16v3.99h-18.18v-22.17c0-1.03-.15-1.63-.44-2.07s-.74-.59-1.33-.74v-1.48h3.55ZM213.07 9.93h56.91v9.17h-40.21v22.77h34.89v8.87h-34.89v22.47h40.21v9.17h-52.03V20.42c0-2.37-.3-4.14-1.03-5.17-.74-1.18-2.07-1.92-3.84-2.07V9.93Zm114.27 3.25V9.93h8.87c3.99 0 7.1.59 9.46 2.07 2.22 1.48 4.14 3.84 5.77 7.54l14.19 30.75 4.43 10.79 4.58-10.79 17.3-37.7c.74-1.77 2.22-2.66 4.29-2.66h11.83v72.43h-11.23V38.75l.15-12.71-23.65 51.59h-6.36l-23.65-51.59.15 12.71v43.61h-11.23V20.42c0-2.37-.44-4.14-1.18-5.17-.74-1.18-1.92-1.92-3.7-2.07Zm141.47-3.25h8.72c5.17 0 7.83 2.37 7.98 7.24v65.19h-11.83V20.42c0-2.37-.3-4.14-1.03-5.17-.74-1.18-2.07-1.92-3.84-2.07V9.93Zm86.04 0c5.17 0 7.69 2.37 7.83 7.24V73.2h36.66v9.17H551V20.42c0-2.37-.44-4.14-1.18-5.17-.74-1.18-2.07-1.92-3.7-2.07V9.93h8.72Zm97.71 0h8.72c5.17 0 7.83 2.37 7.83 7.24v65.19h-11.68V20.42c0-2.37-.3-4.14-1.03-5.17-.89-1.18-2.07-1.92-3.84-2.07V9.93Zm104.81 0h11.68l30.45 72.43h-12.86l-6.21-14.93c-.44-1.33-1.33-1.92-2.81-1.92h-28.97c-1.33 0-2.22.59-2.81 1.92l-6.21 14.93h-12.71l30.45-72.43Zm18.92 46.71-9.46-23.06-3.55-9.76-3.84 9.76-9.31 23.06h26.17Z"/><path fill="#da3253" d="M213.07 130.4h102.44v4.29H213.07zM697.06 130.4H799.5v4.29H697.06z"/><path fill="#33cbc0" d="M78.06 155.49h5.03v-30.34c0-11.69 4.74-22.2 12.29-29.75 7.55-7.55 18.06-12.29 29.75-12.29h30.34V72.9h-30.34c-11.69 0-22.2-4.74-29.75-12.29-7.55-7.55-12.29-18.06-12.29-29.6V.51H72.88V31c0 11.55-4.74 22.06-12.29 29.6-7.55 7.55-18.06 12.29-29.6 12.29H.5V83.1h30.49c11.55 0 22.06 4.74 29.6 12.29 7.55 7.55 12.29 18.06 12.29 29.75v30.34h5.18ZM51.12 10.72H.5V.51h60.84V31c0 8.29-3.4 15.99-8.88 21.46-5.48 5.48-13.17 8.88-21.46 8.88H.5V51.13h30.49c5.48 0 10.66-2.22 14.21-5.92 3.7-3.55 5.92-8.73 5.92-14.21V10.72ZM30.99 36.04H.5V25.83h30.49v10.21ZM78.06 53.5c2.52 5.33 5.92 10.21 10.07 14.36h.15c4.14 4.14 8.88 7.55 14.36 10.21-5.48 2.52-10.21 5.92-14.36 10.07l-.15.15c-4.14 4.14-7.55 8.88-10.07 14.36-2.66-5.48-6.07-10.21-10.21-14.36v-.15c-4.14-4.14-9.03-7.55-14.36-10.07C58.82 75.41 63.7 72 67.85 67.86c4.14-4.14 7.55-9.03 10.21-14.36Zm-26.94 91.78H.5v10.21h60.84v-30.34c0-8.44-3.4-16.13-8.88-21.61S39.29 94.66 31 94.66H.5v10.21h30.49c5.48 0 10.66 2.22 14.21 5.92 3.7 3.7 5.92 8.73 5.92 14.36v20.13Zm-20.13-25.32H.5v10.21h30.49v-10.21Zm73.87-109.24h50.62V.51H94.64V31c0 8.29 3.4 15.99 8.88 21.46s13.17 8.88 21.61 8.88h30.34V51.13h-30.34c-5.62 0-10.66-2.22-14.36-5.92-3.7-3.55-5.92-8.73-5.92-14.21V10.72Zm20.27 25.32h30.34V25.83h-30.34v10.21Zm-20.27 109.24h50.62v10.21H94.64v-30.34c0-8.44 3.4-16.13 8.88-21.61s13.17-8.88 21.61-8.88h30.34v10.21h-30.34c-5.62 0-10.66 2.22-14.36 5.92-3.7 3.7-5.92 8.73-5.92 14.36v20.13Zm20.27-25.32h30.34v10.21h-30.34v-10.21Z"/></svg>