<?xml version="1.0" encoding="utf-8"?>
<!-- Generator: Adobe Illustrator 23.0.2, SVG Export Plug-In . SVG Version: 6.00 Build 0)  -->
<svg version="1.1" id="Layer_1" xmlns="http://www.w3.org/2000/svg" xmlns:xlink="http://www.w3.org/1999/xlink" x="0px" y="0px"
	 viewBox="0 0 400 245" style="enable-background:new 0 0 400 245;" xml:space="preserve">
<style type="text/css">
	.st0{fill:#1B171B;}
	.st1{fill:#005BAA;}
</style>
<g>
	<path class="st0" d="M53.9,96.3c3.6,3.8,5.4,8.5,5.4,14H37.4v10.3h34.8c0.7-2.7,1.1-5.6,1.1-8.5c0-10-3.1-18.1-9.4-24.1
		c-6.2-6.5-15.2-9.6-26.3-9.6c-0.2,0-0.2,0-0.2,0v11.8c0.2,0,0.4,0,0.7,0C44.8,90.3,50.1,92.3,53.9,96.3L53.9,96.3z M37.4,159.9V148
		c0.9,0,1.8,0,2.7,0c8,0,14.7-2.2,20.1-7.1l5.8,10.3c-2.2,2-5.6,4-10,5.6C50.4,158.7,44.3,159.9,37.4,159.9z M37.4,110.4H15.6
		c0.7-5.6,2.9-10.3,6.9-14c4-4,9.1-6,14.9-6V78.5c-9.6,0-18.1,3.6-25,10.5c-8,7.8-11.8,18.3-11.8,31.2c0,12.3,3.8,22.3,11.4,29.7
		c6.9,6.7,15.4,10,25.4,10l0,0V148c-5.8-0.4-10.7-2.7-14.7-6.5c-4.9-4.9-7.6-11.8-7.6-21h22.3V110.4z"/>
	<path class="st0" d="M179.2,158.3v-49.5c0-12.5-5.3-18.5-16.1-18.5c-3.3,0-6.7,0.9-9.6,3.1c-2.9,2-4.9,4.5-6,6.9v58h-14v-55.5
		c0-4-1.3-6.9-4.2-9.1c-2.9-2.2-6.9-3.3-11.6-3.3c-2.9,0-5.8,1.1-8.9,3.1c-3.3,2.2-5.6,4.7-6.9,7.1v57.8h-14V79.8H97l4.7,9.4
		c5.6-7.1,12.3-10.7,20.3-10.7c11.4,0,19.2,3.6,23.9,10.7c1.6-3.1,4.5-5.6,8.7-7.6c4.2-2,8.7-3.1,13.2-3.1c8.2,0,14.5,2.5,19,7.4
		c4.5,4.7,6.7,11.6,6.7,20.3v52.2H179.2z"/>
	<path class="st0" d="M266.4,50.6c2.5,0,4.5,0.7,6.2,2.5c1.6,1.6,2.5,3.6,2.5,6c0,2.5-0.9,4.5-2.5,6c-1.8,1.8-3.8,2.7-6.2,2.7
		c-2.2,0-4.2-0.9-6-2.7c-1.6-1.6-2.5-3.6-2.5-6c0-2.5,0.9-4.5,2.5-6C262.2,51.3,264.2,50.6,266.4,50.6L266.4,50.6z M258.9,158.3
		V91.8h-10.7V80h24.8v78.3H258.9z"/>
	<polygon class="st0" points="347.2,158.3 326.9,129.3 306.8,158.3 290.5,158.3 319.1,117.7 292.7,80 308.4,80 327.1,106.3 
		345.6,80 361,80 335.1,117.7 363.7,158.3 	"/>
	<path class="st1" d="M237,14h135.6c15.2,0,27.4,12.3,27.4,27.2v113.3c0,15.2-12.3,27.2-27.4,27.2H223v-13.2h149.6
		c7.8,0,14-6.2,14-14V41.2c0-7.6-6.2-13.8-14-13.8H237c-7.1,0-12.9,5.4-13.8,12.3H223V18C227,15.4,231.9,14,237,14L237,14z
		 M223,155.6c3.8,2.2,8.3,3.8,13.2,3.8v-13.2c-7.4-0.7-12.9-6.7-12.9-14V47.7H223V155.6z M223,181.7H0.4v-13.2H223V181.7L223,181.7z
		 M223,39.7h-13.2c0.7-9.1,5.8-17.2,13.2-21.6V39.7L223,39.7z M223,47.7v107.9c-7.8-4.9-13.2-13.6-13.2-23.4V47.7H223z"/>
	<path class="st0" d="M18.1,213.5H3.7c0,2.4,0.6,4.2,1.9,5.4c1.1,1.1,2.6,1.7,4.4,1.7c2,0,3.7-0.6,5.1-1.8l1.5,2.6
		c-0.5,0.6-1.4,1-2.5,1.4c-1.4,0.5-3,0.8-4.7,0.8c-2.5,0-4.6-0.9-6.4-2.6c-2-1.9-2.9-4.4-2.9-7.6c0-3.3,1-6,3-8
		c1.8-1.8,3.9-2.7,6.4-2.7c2.8,0,5.1,0.8,6.7,2.4c1.6,1.6,2.3,3.6,2.3,6.2C18.4,212.1,18.3,212.9,18.1,213.5z M9.5,205.7
		c-1.6,0-2.9,0.5-4,1.6c-1,1-1.6,2.2-1.7,3.7h11c0-1.5-0.4-2.7-1.3-3.7C12.6,206.2,11.2,205.7,9.5,205.7z"/>
	<path class="st0" d="M44.6,223.2v-12.7c0-3.2-1.4-4.7-4.1-4.7c-0.9,0-1.7,0.3-2.4,0.8c-0.7,0.5-1.3,1.1-1.5,1.8v14.8H33v-14.3
		c0-1-0.4-1.8-1.1-2.3c-0.7-0.6-1.7-0.9-2.9-0.9c-0.7,0-1.5,0.3-2.3,0.8c-0.8,0.6-1.4,1.2-1.7,1.9v14.8h-3.6v-20h2.3l1.2,2.3
		c1.4-1.8,3.1-2.7,5.1-2.7c2.9,0,4.9,0.9,6,2.7c0.4-0.8,1.1-1.4,2.2-1.9c1.1-0.5,2.2-0.8,3.3-0.8c2.1,0,3.7,0.6,4.8,1.8
		c1.1,1.2,1.7,3,1.7,5.2v13.4H44.6z"/>
	<path class="st0" d="M55.4,221.8l-1.3,1.8h-1.8v-28.6H56v9.7c0.3-0.5,1-0.9,1.9-1.3c0.9-0.4,1.8-0.6,2.7-0.6c2.7,0,5,0.9,6.7,2.8
		c1.7,1.9,2.6,4.3,2.6,7.2c0,3.3-0.9,6-2.6,7.9s-4,2.9-7,2.9c-0.9,0-1.9-0.2-2.8-0.5C56.6,222.7,55.9,222.3,55.4,221.8z M56,207.3
		v11.6c0,0.2,0.4,0.5,1.3,1c0.9,0.5,1.6,0.7,2,0.7c2.4,0,4.2-0.6,5.2-1.8c1.1-1.2,1.6-3.1,1.6-5.9c0-2.3-0.6-4.1-1.8-5.3
		s-2.9-1.9-5-1.9c-0.4,0-1.1,0.2-1.8,0.6C56.7,206.7,56.2,207,56,207.3z"/>
	<path class="st0" d="M89.8,213.5H75.4c0,2.4,0.6,4.2,1.9,5.4c1.1,1.1,2.6,1.7,4.4,1.7c2,0,3.7-0.6,5.1-1.8l1.5,2.6
		c-0.5,0.6-1.4,1-2.5,1.4c-1.4,0.5-3,0.8-4.7,0.8c-2.5,0-4.6-0.9-6.4-2.6c-2-1.9-2.9-4.4-2.9-7.6c0-3.3,1-6,3-8
		c1.8-1.8,3.9-2.7,6.4-2.7c2.8,0,5.1,0.8,6.7,2.4c1.6,1.6,2.3,3.6,2.3,6.2C90,212.1,89.9,212.9,89.8,213.5z M81.2,205.7
		c-1.6,0-2.9,0.5-4,1.6c-1,1-1.6,2.2-1.7,3.7h11c0-1.5-0.4-2.7-1.3-3.7C84.2,206.2,82.9,205.7,81.2,205.7z"/>
	<path class="st0" d="M105.7,223.2v-1.5c-1.2,1.2-3,1.8-5.4,1.8c-2.5,0-4.5-0.9-6.1-2.7c-1.5-1.8-2.3-4.2-2.3-7.2
		c0-3,0.9-5.6,2.7-7.7c1.8-2.1,3.9-3.2,6.4-3.2c2.1,0,3.6,0.5,4.7,1.5v-9.3h3.6v28.2H105.7z M105.7,207.7c-0.9-1.3-2.1-2-3.7-2
		c-1.9,0-3.4,0.7-4.6,2.1c-1.2,1.4-1.8,3.2-1.8,5.4c0,4.8,2.2,7.3,6.6,7.3c0.6,0,1.2-0.2,2-0.5c0.8-0.4,1.3-0.7,1.5-1.1V207.7z"/>
	<path class="st0" d="M126.3,223.2v-1.5c-1.2,1.2-3,1.8-5.4,1.8c-2.5,0-4.5-0.9-6.1-2.7c-1.5-1.8-2.3-4.2-2.3-7.2
		c0-3,0.9-5.6,2.7-7.7c1.8-2.1,3.9-3.2,6.4-3.2c2.1,0,3.6,0.5,4.7,1.5v-9.3h3.6v28.2H126.3z M126.3,207.7c-0.9-1.3-2.1-2-3.7-2
		c-1.9,0-3.4,0.7-4.6,2.1c-1.2,1.4-1.8,3.2-1.8,5.4c0,4.8,2.2,7.3,6.6,7.3c0.6,0,1.2-0.2,2-0.5c0.8-0.4,1.3-0.7,1.5-1.1V207.7z"/>
	<path class="st0" d="M151,213.5h-14.4c0,2.4,0.6,4.2,1.9,5.4c1.1,1.1,2.6,1.7,4.4,1.7c2,0,3.7-0.6,5.1-1.8l1.5,2.6
		c-0.5,0.6-1.4,1-2.5,1.4c-1.4,0.5-3,0.8-4.7,0.8c-2.5,0-4.6-0.9-6.4-2.6c-2-1.9-2.9-4.4-2.9-7.6c0-3.3,1-6,3-8
		c1.8-1.8,3.9-2.7,6.4-2.7c2.8,0,5.1,0.8,6.7,2.4c1.6,1.6,2.3,3.6,2.3,6.2C151.3,212.1,151.2,212.9,151,213.5z M142.4,205.7
		c-1.6,0-2.9,0.5-4,1.6c-1,1-1.6,2.2-1.7,3.7h11c0-1.5-0.4-2.7-1.3-3.7C145.4,206.2,144.1,205.7,142.4,205.7z"/>
	<path class="st0" d="M166.9,223.2v-1.5c-1.2,1.2-3,1.8-5.4,1.8c-2.5,0-4.5-0.9-6.1-2.7c-1.5-1.8-2.3-4.2-2.3-7.2
		c0-3,0.9-5.6,2.7-7.7c1.8-2.1,3.9-3.2,6.4-3.2c2.1,0,3.6,0.5,4.7,1.5v-9.3h3.6v28.2H166.9z M166.9,207.7c-0.9-1.3-2.1-2-3.7-2
		c-1.9,0-3.4,0.7-4.6,2.1c-1.2,1.4-1.8,3.2-1.8,5.4c0,4.8,2.2,7.3,6.6,7.3c0.6,0,1.2-0.2,2-0.5c0.8-0.4,1.3-0.7,1.5-1.1V207.7z"/>
	<path class="st0" d="M185.4,217.5v-22.6h3.6v22c0,1.1,0.3,1.9,0.9,2.5c0.6,0.6,1.4,0.9,2.4,0.9v3.2
		C187.7,223.6,185.4,221.6,185.4,217.5z"/>
	<path class="st0" d="M197.3,223.2v-17h-2.8v-3h6.3v20H197.3z M199.3,195.6c0.6,0,1.1,0.2,1.6,0.6c0.4,0.4,0.6,0.9,0.6,1.5
		c0,0.6-0.2,1.1-0.6,1.6c-0.4,0.4-0.9,0.6-1.6,0.6c-0.6,0-1.1-0.2-1.5-0.6c-0.4-0.4-0.6-0.9-0.6-1.6c0-0.6,0.2-1.1,0.6-1.5
		C198.1,195.8,198.7,195.6,199.3,195.6z"/>
	<path class="st0" d="M218,223.2v-11.7c0-2.1-0.3-3.6-1-4.5c-0.6-0.9-1.7-1.3-3.2-1.3c-0.8,0-1.7,0.2-2.5,0.7
		c-0.9,0.5-1.6,1.1-2,1.8v14.9h-3.6v-20h2.4l1.1,2.6c1.2-2,3.1-3,5.7-3c4.4,0,6.6,2.7,6.6,8v12.4H218z"/>
	<path class="st0" d="M228.7,203.2V216c0,3.1,1.3,4.6,4,4.6c1.2,0,2.2-0.3,3.2-1c1-0.7,1.6-1.5,1.9-2.3v-14.1h3.6v20h-3.6v-2.8
		c-0.4,0.8-1.2,1.5-2.4,2.2c-1.2,0.7-2.4,1-3.5,1c-2.2,0-3.9-0.6-5-1.9c-1.2-1.3-1.8-3-1.8-5.4v-13.2H228.7z"/>
	<path class="st0" d="M258.2,223.2l-5.2-7.4l-5.2,7.4h-4.2l7.3-10.3l-6.7-9.7h4l4.8,6.8l4.8-6.8h3.9l-6.7,9.6l7.4,10.4H258.2z"/>
	<path class="st0" d="M273.3,222l1.2-3.4c2,1.3,3.6,2,4.8,2c2.2,0,3.3-0.9,3.3-2.8c0-1.3-1.1-2.5-3.2-3.4c-1.6-0.7-2.7-1.3-3.3-1.7
		c-0.6-0.4-1.1-0.8-1.5-1.3c-0.4-0.5-0.7-1-0.9-1.6c-0.2-0.6-0.3-1.2-0.3-1.8c0-1.6,0.6-2.9,1.8-3.9c1.2-0.9,2.7-1.4,4.7-1.4
		c1.4,0,3.3,0.5,5.5,1.4l-1,3.3c-1.4-1.1-2.8-1.7-4.2-1.7c-0.8,0-1.6,0.2-2.1,0.6c-0.6,0.4-0.9,0.9-0.9,1.5c0,1.3,0.7,2.3,2.2,2.9
		l2.5,1.2c1.6,0.7,2.7,1.5,3.4,2.4c0.7,0.9,1.1,2.1,1.1,3.4c0,1.8-0.6,3.2-1.9,4.2c-1.3,1-3,1.5-5.2,1.5
		C277.1,223.6,275.2,223,273.3,222z"/>
	<path class="st0" d="M297.5,226.5c-0.5,1.3-1.4,2.3-2.9,3.2c-1.5,0.8-3.1,1.3-5,1.3v-3.2c1.5,0,2.7-0.3,3.8-1
		c1.1-0.7,1.6-1.5,1.6-2.5c0-1.1-0.2-2.2-0.6-3.2c-0.4-1.1-0.9-2.4-1.5-3.9l-5.4-13.9h3.6l5.9,15.5l5.3-15.5h3.6L297.5,226.5z"/>
	<path class="st0" d="M307.2,222l1.2-3.4c2,1.3,3.6,2,4.8,2c2.2,0,3.3-0.9,3.3-2.8c0-1.3-1.1-2.5-3.2-3.4c-1.6-0.7-2.7-1.3-3.3-1.7
		c-0.6-0.4-1.1-0.8-1.5-1.3c-0.4-0.5-0.7-1-0.9-1.6c-0.2-0.6-0.3-1.2-0.3-1.8c0-1.6,0.6-2.9,1.8-3.9c1.2-0.9,2.7-1.4,4.7-1.4
		c1.4,0,3.3,0.5,5.5,1.4l-1,3.3c-1.4-1.1-2.8-1.7-4.2-1.7c-0.8,0-1.6,0.2-2.1,0.6c-0.6,0.4-0.9,0.9-0.9,1.5c0,1.3,0.7,2.3,2.2,2.9
		l2.5,1.2c1.6,0.7,2.7,1.5,3.4,2.4c0.7,0.9,1.1,2.1,1.1,3.4c0,1.8-0.6,3.2-1.9,4.2c-1.3,1-3,1.5-5.2,1.5
		C311,223.6,309.1,223,307.2,222z"/>
	<path class="st0" d="M324,206h-2.3v-2.8h2.3V199l3.6-1.4v5.5h5.5v2.8h-5.5v10c0,1.7,0.3,2.9,0.9,3.6c0.6,0.7,1.5,1.1,2.7,1.1
		c0.9,0,1.9-0.2,2.8-0.7l0.5,3.1c-1.5,0.4-3.1,0.6-4.9,0.6c-1.6,0-2.9-0.6-4-1.8c-1.1-1.2-1.6-2.7-1.6-4.5V206z"/>
	<path class="st0" d="M353.4,213.5H339c0,2.4,0.6,4.2,1.9,5.4c1.1,1.1,2.6,1.7,4.4,1.7c2,0,3.7-0.6,5.1-1.8l1.5,2.6
		c-0.5,0.6-1.4,1-2.5,1.4c-1.4,0.5-3,0.8-4.7,0.8c-2.5,0-4.6-0.9-6.4-2.6c-2-1.9-2.9-4.4-2.9-7.6c0-3.3,1-6,3-8
		c1.8-1.8,3.9-2.7,6.4-2.7c2.8,0,5.1,0.8,6.7,2.4c1.6,1.6,2.3,3.6,2.3,6.2C353.7,212.1,353.6,212.9,353.4,213.5z M344.8,205.7
		c-1.6,0-2.9,0.5-4,1.6c-1,1-1.6,2.2-1.7,3.7h11c0-1.5-0.4-2.7-1.3-3.7C347.8,206.2,346.5,205.7,344.8,205.7z"/>
	<path class="st0" d="M379.8,223.2v-12.7c0-3.2-1.4-4.7-4.1-4.7c-0.9,0-1.7,0.3-2.4,0.8c-0.7,0.5-1.3,1.1-1.5,1.8v14.8h-3.6v-14.3
		c0-1-0.4-1.8-1.1-2.3c-0.7-0.6-1.7-0.9-2.9-0.9c-0.7,0-1.5,0.3-2.3,0.8c-0.8,0.6-1.4,1.2-1.7,1.9v14.8h-3.6v-20h2.3l1.2,2.3
		c1.4-1.8,3.1-2.7,5.1-2.7c2.9,0,4.9,0.9,6,2.7c0.4-0.8,1.1-1.4,2.2-1.9c1.1-0.5,2.2-0.8,3.3-0.8c2.1,0,3.7,0.6,4.8,1.8
		c1.1,1.2,1.7,3,1.7,5.2v13.4H379.8z"/>
	<path class="st0" d="M386.4,222l1.2-3.4c2,1.3,3.6,2,4.8,2c2.2,0,3.3-0.9,3.3-2.8c0-1.3-1.1-2.5-3.2-3.4c-1.6-0.7-2.7-1.3-3.3-1.7
		c-0.6-0.4-1.1-0.8-1.5-1.3c-0.4-0.5-0.7-1-0.9-1.6c-0.2-0.6-0.3-1.2-0.3-1.8c0-1.6,0.6-2.9,1.8-3.9c1.2-0.9,2.7-1.4,4.7-1.4
		c1.4,0,3.3,0.5,5.5,1.4l-1,3.3c-1.4-1.1-2.8-1.7-4.2-1.7c-0.8,0-1.6,0.2-2.1,0.6c-0.6,0.4-0.9,0.9-0.9,1.5c0,1.3,0.7,2.3,2.2,2.9
		l2.5,1.2c1.6,0.7,2.7,1.5,3.4,2.4c0.7,0.9,1.1,2.1,1.1,3.4c0,1.8-0.6,3.2-1.9,4.2c-1.3,1-3,1.5-5.2,1.5
		C390.2,223.6,388.2,223,386.4,222z"/>
</g>
</svg>
