<svg width="816" height="77" viewBox="0 0 816 77" fill="none" xmlns="http://www.w3.org/2000/svg">
<path d="M486.004 0.488281H477.357V74.5062H534.409V66.623H486.004V0.488281Z" fill="#333333"/>
<path d="M591.742 0.490723L553.386 74.5086H562.687L573.701 53.2271H618.648L629.663 74.5086H639.384L600.919 0.490723H591.742ZM577.253 45.9827L595.84 9.79165H596.276L614.971 45.9827H577.253Z" fill="#333333"/>
<path d="M715.688 36.8974V36.4612C724.335 33.6569 727.794 27.7055 727.794 19.7133C727.794 13.6685 725.846 8.58958 720.658 5.13095C713.741 0.815443 704.565 0.488281 689.967 0.488281H663.918V74.5062H693.628C708.647 74.5062 718.695 74.179 725.503 68.5704C729.398 65.4389 731.766 61.0144 731.766 54.6268C731.782 43.5966 725.301 38.7358 715.688 36.8974ZM672.565 7.73271H692.989C708.662 7.73271 719.131 8.8077 719.131 20.6948C719.131 31.5069 710.921 34.0931 692.989 34.0931H672.565V7.73271ZM696.993 67.2617H672.58V41.2129H696.993C712.012 41.2129 723.026 42.1788 723.026 54.175C723.026 65.1118 715.252 67.2617 696.993 67.2617Z" fill="#333333"/>
<path d="M790.933 33.4414C784.592 32.3976 779.186 31.4628 774.091 29.9049C767.953 28.0354 766.193 24.7013 766.193 19.4043C766.193 14.7305 767.751 10.9759 774.091 9.01286C777.83 7.96903 782.613 7.56396 787.817 7.56396C794.36 7.56396 802.368 8.07809 810.688 8.91938V1.42566C802.477 0.802478 795.093 0.381836 787.91 0.381836C781.881 0.381836 774.185 0.895957 768.576 3.49772C760.459 7.14331 758.278 13.8892 758.278 20.3391C758.278 33.1298 766.286 37.2895 781.57 39.8913C788.534 41.1377 793.207 41.8699 799.034 43.5369C805.266 45.5155 807.151 49.052 807.151 54.458C807.151 59.35 805.593 63.6032 799.143 65.4727C795.186 66.61 790.201 67.0307 784.062 67.0307C776.787 67.0307 767.735 66.5165 758.387 65.6753V73.4806C767.751 74.1037 776.07 74.5244 784.28 74.5244C791.135 74.5244 798.738 74.0103 804.456 71.2995C812.884 67.4513 815.159 60.4873 815.159 53.8349C815.159 40.4054 806.746 35.9341 790.933 33.4414Z" fill="#333333"/>
<path d="M28.4062 46.1779H52.7305V27.9263H28.4062V18.8563H65.7005V0.381836H6.61133V46.189H28.4062V46.1779Z" fill="#333333"/>
<path d="M65.7132 56.2725H28.4746V74.7469H65.7132V56.2725Z" fill="#333333"/>
<path d="M109.09 36.7624C109.09 36.7624 110.695 40.094 112.422 42.3894L136.055 74.7475H154.987V0.392972H133.181V38.9463C133.181 38.9463 131.576 35.6147 129.849 33.3193L106.215 0.381836H87.2842V74.7363H109.09V36.7624Z" fill="#333333"/>
<path d="M301.645 0.381836C278.613 0.381836 263.226 16.884 263.226 37.3641C263.226 58.067 278.613 74.5692 301.645 74.5692C324.677 74.5692 340.176 58.067 340.176 37.3641C340.176 16.884 324.677 0.381836 301.645 0.381836ZM301.645 55.5377C292.007 55.5377 285.143 48.0053 285.143 37.3752C285.143 26.9681 292.564 19.4357 301.645 19.4357C311.395 19.4357 318.259 26.9681 318.259 37.3752C318.248 48.0053 311.384 55.5377 301.645 55.5377Z" fill="#333333"/>
<path d="M411.186 52.5956C418.985 47.2026 422.885 38.3665 422.885 29.7645C422.885 13.5854 411.186 0.392578 388.343 0.392578H355.528V18.9338H377.334V18.867H388.7C395.24 18.867 399.831 23.6917 399.831 29.7645C399.831 35.7369 395.352 40.6619 388.588 40.6619H386.371V40.7288H355.539V74.7359H377.346V59.1252H386.293C388.132 59.1252 389.391 59.0138 391.686 58.7798L400.177 74.7248H425.08L411.186 52.5956Z" fill="#333333"/>
<path d="M22.7993 65.51C22.7993 59.4707 17.9077 54.5791 11.8684 54.5791C5.82909 54.5791 0.9375 59.4707 0.9375 65.51C0.9375 71.5493 5.82909 76.4409 11.8572 76.4409H11.8684C17.9077 76.4297 22.7993 71.5381 22.7993 65.51Z" fill="#00F078"/>
<path d="M207.543 0.381836H176.556V46.3227H198.362V18.8563H206.741C217.872 18.8563 224.981 26.8901 224.981 37.5647C224.981 48.3507 217.861 56.2731 206.741 56.2731H200.835H198.362H176.556V74.7475H207.543C232.447 74.7475 248.047 57.8776 248.047 37.5647C248.047 17.2517 232.447 0.381836 207.543 0.381836Z" fill="#333333"/>
</svg>
