<svg xmlns="http://www.w3.org/2000/svg" role="img" viewBox="-6.17 92.33 412.10 59.85"><title>Endocode logo</title><style>svg {enable-background:new 0 0 400 245}</style><path fill="#010101" d="M1.8 108.6v4.7l20.2 7.8-20.2 7.8v4.7l25.4-10.1v-4.9l-25.4-10zm29.3 35.9h28.4V141H31.1v3.5zm43-7.1v-14.8h20.6V119H74.1v-14.1h23.1v-3.6H69.9V141H98v-3.6H74.1zm60.5-36.1v32.3L109 101.3h-3.5V141h4.2v-32.3l25.6 32.3h3.5v-39.8h-4.2v.1zm11.5 39.7h16.2c4.2 0 7.9-.8 11.1-2.5 3.2-1.7 5.7-4 7.5-7 1.8-3 2.7-6.4 2.7-10.3 0-3.9-.9-7.3-2.7-10.3-1.8-3-4.3-5.4-7.5-7-3.2-1.7-6.9-2.5-11.1-2.5h-16.2V141zm4.2-3.6v-32.5H162c3.5 0 6.5.7 9.1 2.1 2.6 1.4 4.6 3.3 6.1 5.7 1.4 2.4 2.2 5.3 2.2 8.4 0 3.2-.7 6-2.2 8.4-1.4 2.4-3.5 4.4-6.1 5.7-2.6 1.4-5.7 2.1-9.1 2.1h-11.7v.1zm60 4c3.9 0 7.5-.9 10.6-2.6 3.2-1.7 5.7-4.2 7.5-7.2 1.8-3.1 2.7-6.5 2.7-10.4 0-3.8-.9-7.3-2.7-10.4-1.8-3.1-4.3-5.5-7.5-7.2-3.2-1.7-6.7-2.6-10.6-2.6-3.9 0-7.5.9-10.7 2.6-3.2 1.8-5.7 4.2-7.5 7.2-1.8 3.1-2.7 6.5-2.7 10.3 0 3.8.9 7.3 2.7 10.3 1.8 3.1 4.3 5.5 7.5 7.2 3.2 1.9 6.8 2.8 10.7 2.8zm0-3.8c-3.1 0-6-.7-8.5-2.1-2.6-1.4-4.6-3.4-6-5.9-1.5-2.5-2.2-5.3-2.2-8.4 0-3.1.7-5.9 2.2-8.4 1.5-2.5 3.5-4.5 6-5.9 2.6-1.4 5.4-2.1 8.5-2.1 3.1 0 6 .7 8.5 2.1 2.5 1.4 4.5 3.4 6 5.9 1.4 2.5 2.2 5.3 2.2 8.4 0 3.1-.7 5.9-2.2 8.4-1.4 2.5-3.4 4.5-6 5.9-2.5 1.4-5.3 2.1-8.5 2.1zm47.6 4.2c3.6 0 5.2-.4 8.5-1.6 2.9-1.3 4.4-2.1 6.3-4.6l-4-7.1c-2.6 3.1-6.5 3.9-10.2 3.9-2.2 0-4.1-.5-5.8-1.4-1.7-.9-3-2.3-3.9-4-.9-1.7-1.4-3.7-1.4-5.9s.5-4.2 1.4-5.9c.9-1.7 2.2-3.1 3.9-4 1.7-.9 3.6-1.4 5.8-1.4 3.7 0 7.2 1.1 10 3.9l4.2-7.1c-2.1-2.3-3.1-3.1-6-4.4-3.1-1.2-5.1-1.7-8.7-1.7-4.2 0-7.9.9-11.2 2.6-3.3 1.8-5.9 4.2-7.8 7.4-1.9 3.1-2.8 6.7-2.8 10.7 0 4 .9 7.5 2.8 10.7 1.9 3.1 4.5 5.6 7.8 7.4 3.2 1.6 7 2.5 11.1 2.5zm36.9 0c4.2 0 8-.9 11.3-2.7 3.4-1.8 6-4.2 7.9-7.4 1.9-3.1 2.9-6.7 2.9-10.6 0-3.9-1-7.5-2.9-10.6-1.9-3.1-4.5-5.6-7.9-7.4-3.4-1.8-7.1-2.7-11.3-2.7-4.2 0-8 .9-11.3 2.7-3.4 1.8-6 4.2-7.9 7.4-1.9 3.1-2.9 6.7-2.9 10.6 0 3.9 1 7.5 2.9 10.6 1.9 3.1 4.5 5.6 7.9 7.4 3.3 1.8 7.1 2.7 11.3 2.7zm0-9.3c-2 0-3.8-.5-5.5-1.4-1.6-.9-2.9-2.3-3.9-4-.9-1.7-1.4-3.7-1.4-5.9s.5-4.2 1.4-5.9c.9-1.7 2.2-3.1 3.9-4 1.6-.9 3.4-1.4 5.5-1.4 2 0 3.8.5 5.5 1.4 1.6.9 2.9 2.3 3.9 4 .9 1.7 1.4 3.7 1.4 5.9s-.5 4.2-1.4 5.9c-.9 1.7-2.2 3.1-3.9 4-1.7.9-3.5 1.4-5.5 1.4zm26.3 8.5h18.8c4.4 0 8.2-.8 11.6-2.4 3.4-1.6 6-3.9 7.8-6.9 1.9-3 2.8-6.5 2.8-10.5s-.9-7.5-2.8-10.5-4.5-5.3-7.8-6.9c-3.4-1.6-7.2-2.4-11.6-2.4h-18.8V141zm11.2-9v-21.8h7.1c3.4 0 6.1 1 8.2 2.9 2.1 1.9 3.1 4.6 3.1 8 0 3.4-1 6.1-3.1 8-2.1 1.9-4.8 2.9-8.2 2.9h-7.1zm45.1.3V125h17.7v-8.4h-17.7V110h20v-8.7h-31.2V141h31.9v-8.7h-20.7z"/></svg>