<?xml version="1.0" encoding="utf-8"?>
<!-- Generator: Adobe Illustrator 23.0.2, SVG Export Plug-In . SVG Version: 6.00 Build 0)  -->
<svg version="1.1" id="Layer_1" xmlns="http://www.w3.org/2000/svg" xmlns:xlink="http://www.w3.org/1999/xlink" x="0px" y="0px"
	 viewBox="0 0 400 245" style="enable-background:new 0 0 400 245;" xml:space="preserve">
<style type="text/css">
	.st0{clip-path:url(#SVGID_3_);}
	.st1{clip-path:url(#SVGID_4_);fill:#141C2A;}
	.st2{clip-path:url(#SVGID_7_);}
	.st3{clip-path:url(#SVGID_8_);fill:#141C2A;}
	.st4{clip-path:url(#SVGID_11_);}
	.st5{clip-path:url(#SVGID_12_);fill:#141C2A;}
	.st6{clip-path:url(#SVGID_15_);}
	.st7{clip-path:url(#SVGID_16_);fill:#00F3CB;}
	.st8{fill:#FF8300;}
	.st9{fill:#53A3DA;}
	.st10{fill:#F1606D;}
	.st11{fill:#FFFFFF;}
	.st12{fill:#231F20;}
	.st13{fill:#53A4D9;}
	.st14{fill-rule:evenodd;clip-rule:evenodd;fill:#A19888;}
	.st15{fill-rule:evenodd;clip-rule:evenodd;fill:#007AC1;}
	.st16{fill:#FF0000;}
	.st17{fill:url(#SVGID_17_);}
	.st18{fill:url(#SVGID_18_);}
	.st19{opacity:0.85;fill:url(#SVGID_19_);}
	.st20{fill:url(#SVGID_20_);}
	.st21{fill:url(#SVGID_21_);}
	.st22{opacity:0.85;fill:url(#SVGID_22_);}
	.st23{fill:#F40819;stroke:#D30918;stroke-width:0.3888;stroke-miterlimit:10;}
	.st24{fill:#D30918;stroke:#D30918;stroke-width:0.3888;stroke-miterlimit:10;}
	.st25{fill:url(#SVGID_23_);}
	.st26{fill:none;stroke:#231F20;stroke-width:1.145;stroke-miterlimit:10;}
	.st27{fill:#27B3CE;}
	.st28{fill-rule:evenodd;clip-rule:evenodd;fill:#00833C;}
	.st29{fill:none;stroke:#FFFFFF;stroke-width:5.1331;stroke-linecap:round;}
	.st30{fill-rule:evenodd;clip-rule:evenodd;fill:#FFFFFF;}
	.st31{fill:#263F6A;}
	.st32{fill:url(#SVGID_24_);}
	.st33{fill:none;stroke:url(#SVGID_25_);stroke-width:0.9733;stroke-miterlimit:10;}
	.st34{fill:url(#SVGID_26_);}
	.st35{fill:none;stroke:#27246B;stroke-width:0.9733;stroke-miterlimit:10;}
	.st36{fill:none;stroke:url(#SVGID_27_);stroke-width:0.9733;stroke-miterlimit:10;}
	.st37{fill:none;stroke:#231F20;stroke-width:0.9733;stroke-miterlimit:10;}
	.st38{fill:url(#SVGID_28_);}
	.st39{fill:url(#SVGID_29_);}
	.st40{fill:url(#SVGID_30_);}
	.st41{fill:url(#SVGID_31_);}
	.st42{fill:none;stroke:#353291;stroke-width:0.1947;stroke-miterlimit:10;}
	.st43{fill:#1F2B3A;}
	.st44{fill:#8D969C;}
	.st45{fill-rule:evenodd;clip-rule:evenodd;fill:#8D969C;}
	.st46{fill:#005CAA;}
	.st47{fill:#E20074;}
	.st48{fill:none;stroke:#626769;stroke-width:0.5668;stroke-miterlimit:10;}
	.st49{fill:#0174C3;}
	.st50{fill:#202C35;}
	.st51{fill:#AFAEAE;}
	.st52{fill-rule:evenodd;clip-rule:evenodd;fill:#F89E1B;}
	.st53{fill-rule:evenodd;clip-rule:evenodd;fill:#202C35;}
	.st54{fill:#00F100;}
	.st55{fill:#2A2A2A;}
	.st56{fill:#961B1E;}
</style>
<g>
	<path class="st56" d="M357.67,132.95h-22.68l17.8-30.75h0.22L357.67,132.95z M391.07,162.52l0-0.01h6.95
		c-4.71-8.17-13.58-37.95-24.14-80.03l-32.83,0.01l-51.78,80.08h28.58l7.59-13.01h34.99l2.07,13.01h35.54v-0.05H391.07z"/>
	<path class="st56" d="M237.1,145.29l3.08-14.46h50.13l3.53-16.6h-50.14l3.08-14.47h53.5l3.67-17.34l-80.29,0.01
		c0,0.02-0.03,0.13-0.03,0.13c-10.52,41.94-19.36,71.63-24.06,79.83h-0.01v0.02c0,0-0.01,0.01-0.01,0.02h0.01v0.04h-0.06v0.08h7.25
		l0,0.02h80.19l3.67-17.28H237.1z"/>
	<path class="st56" d="M186.1,82.49l-10.65,50.13h-0.22l-26.47-50.13l-31.11-0.02c-10.55,42.04-19.41,71.8-24.11,79.96h7.51l0,0.01
		H93.5v0.06h7.53l0,0.01h-7.55v0.06h7.92v-0.01h25.42l10.75-50.58h0.22l27.6,50.58h29.5l17.03-80.07H186.1z"/>
	<path class="st56" d="M39.98,145.29l3.08-14.47h50.12l3.53-16.59H46.59l3.07-14.47h53.49l3.67-17.27l-80.7,0
		C15.55,124.58,6.68,154.4,1.96,162.58h7.68l0.01-0.02H89.8l3.68-17.28H39.98z"/>
</g>
</svg>
