<?xml version="1.0" encoding="utf-8"?>
<!-- Generator: Adobe Illustrator 24.3.0, SVG Export Plug-In . SVG Version: 6.00 Build 0)  -->
<svg version="1.1" id="Layer_1" xmlns="http://www.w3.org/2000/svg" xmlns:xlink="http://www.w3.org/1999/xlink" x="0px" y="0px"
	 viewBox="0 0 767.98 278.95" style="enable-background:new 0 0 767.98 278.95;" xml:space="preserve">
<style type="text/css">
	.st0{fill:#192351;}
	.st1{fill-rule:evenodd;clip-rule:evenodd;fill:#192351;}
</style>
<g>
	<polyline class="st0" points="124.48,69.06 22.69,69.06 22.69,206.35 125.46,206.35 125.46,184.77 46.81,184.77 46.81,147.9 
		115.65,147.9 115.65,126.33 46.81,126.33 46.81,90.64 124.48,90.64 124.48,69.06 	"/>
	<polyline class="st0" points="246.12,163.98 172.57,69.06 150.21,69.06 150.21,206.35 173.94,206.35 173.94,108.68 249.64,206.35 
		269.84,206.35 269.84,69.06 246.12,69.06 246.12,163.98 	"/>
	<polyline class="st0" points="382.09,187.32 333.26,69.06 316,69.06 375.03,207.33 388.76,207.33 447.79,69.06 431.12,69.06 
		382.09,187.32 	"/>
	<polyline class="st0" points="572.01,69.06 472.78,69.06 472.78,206.35 572.99,206.35 572.99,192.23 488.27,192.23 488.27,144.17 
		563.19,144.17 563.19,130.05 488.27,130.05 488.27,83.18 572.01,83.18 572.01,69.06 	"/>
	<rect x="602.63" y="69.06" class="st0" width="15.5" height="137.28"/>
	<polyline class="st0" points="660,206.35 752.76,206.35 752.76,192.03 675.49,192.03 675.49,69.06 660,69.06 660,206.35 	"/>
	<rect x="289.01" y="13.09" class="st1" width="7.76" height="249.93"/>
	<path class="st0" d="M332.58,230.51H316.2v22.08h16.53v-3.47h-12.65v-5.93h11.07v-3.47h-11.07v-5.74h12.5V230.51z M365.65,245.78
		l-11.83-15.27h-3.59v22.08h3.82v-15.71l12.18,15.71h3.25v-22.08h-3.82V245.78z M407.25,249.06l-2.49-2.52
		c-0.95,0.88-1.9,1.58-2.87,2.1c-0.97,0.52-2.13,0.77-3.47,0.77c-1.05,0-2.03-0.21-2.92-0.62c-0.89-0.41-1.66-0.97-2.32-1.69
		c-0.65-0.71-1.16-1.55-1.52-2.51c-0.36-0.96-0.54-1.98-0.54-3.08c0-1.09,0.18-2.11,0.54-3.06c0.36-0.95,0.86-1.77,1.52-2.48
		c0.65-0.7,1.43-1.26,2.32-1.67c0.89-0.41,1.87-0.61,2.92-0.61c1.26,0,2.39,0.25,3.38,0.75c0.99,0.51,1.92,1.17,2.8,1.99l2.49-2.87
		c-0.52-0.5-1.08-0.97-1.67-1.39c-0.59-0.42-1.23-0.79-1.92-1.09c-0.7-0.3-1.46-0.54-2.29-0.71c-0.83-0.17-1.75-0.25-2.76-0.25
		c-1.68,0-3.22,0.3-4.61,0.9c-1.39,0.6-2.59,1.42-3.59,2.46c-1.01,1.04-1.79,2.26-2.35,3.64c-0.56,1.39-0.84,2.87-0.84,4.45
		c0,1.6,0.29,3.09,0.85,4.48c0.57,1.39,1.35,2.59,2.35,3.61c1,1.02,2.18,1.82,3.55,2.42c1.37,0.59,2.86,0.88,4.48,0.88
		c1.03,0,1.97-0.09,2.82-0.27c0.85-0.18,1.63-0.44,2.35-0.79c0.72-0.35,1.38-0.76,2-1.23C406.09,250.21,406.69,249.67,407.25,249.06
		L407.25,249.06z M442.95,252.59l-5.96-8.36c0.78-0.21,1.49-0.51,2.13-0.9c0.64-0.39,1.2-0.86,1.66-1.42
		c0.47-0.56,0.83-1.2,1.09-1.93c0.26-0.73,0.39-1.55,0.39-2.48c0-1.07-0.19-2.05-0.57-2.92c-0.38-0.88-0.92-1.61-1.62-2.21
		c-0.71-0.6-1.57-1.06-2.59-1.39c-1.02-0.33-2.16-0.49-3.42-0.49h-9.84v22.08h3.88v-7.7h4.86l5.43,7.7H442.95z M438.31,237.73
		c0,1.14-0.41,2.04-1.23,2.71c-0.82,0.67-1.92,1.01-3.31,1.01h-5.68v-7.41h5.65c1.45,0,2.58,0.31,3.38,0.93
		C437.91,235.6,438.31,236.51,438.31,237.73L438.31,237.73z M469.53,243.79l8.77-13.28h-4.45l-6.25,9.78l-6.19-9.78h-4.57
		l8.77,13.38v8.71h3.91V243.79z M511.69,237.92c0-1.14-0.2-2.16-0.58-3.06c-0.39-0.9-0.95-1.68-1.67-2.33
		c-0.73-0.65-1.61-1.15-2.65-1.5c-1.04-0.35-2.21-0.52-3.49-0.52h-8.71v22.08h3.88v-7.1h4.39c1.22,0,2.37-0.16,3.44-0.49
		c1.07-0.32,2.01-0.8,2.81-1.43c0.8-0.63,1.43-1.42,1.89-2.37C511.46,240.26,511.69,239.16,511.69,237.92L511.69,237.92z
		 M507.75,238.02c0,1.2-0.43,2.16-1.28,2.89c-0.85,0.73-2.02,1.09-3.49,1.09h-4.51v-7.95h4.51c1.45,0,2.61,0.33,3.47,0.99
		C507.32,235.7,507.75,236.69,507.75,238.02L507.75,238.02z M537.9,234.11h7v-3.6h-17.92v3.6h7v18.48h3.91V234.11z M578.26,230.51
		h-16.37v22.08h16.53v-3.47h-12.65v-5.93h11.07v-3.47h-11.07v-5.74h12.49V230.51z M615.88,241.52c0-1.55-0.28-3-0.85-4.35
		c-0.57-1.34-1.37-2.51-2.41-3.5c-1.04-0.99-2.29-1.76-3.73-2.32c-1.44-0.56-3.02-0.84-4.75-0.84h-8.23v22.08h8.23
		c1.72,0,3.31-0.28,4.75-0.85c1.44-0.57,2.68-1.34,3.73-2.33c1.04-0.99,1.84-2.16,2.41-3.52
		C615.6,244.53,615.88,243.08,615.88,241.52L615.88,241.52z M611.82,241.59c0,1.09-0.19,2.1-0.55,3.01
		c-0.37,0.91-0.88,1.7-1.55,2.37c-0.66,0.66-1.46,1.17-2.41,1.54c-0.95,0.37-2,0.55-3.16,0.55h-4.36v-15.01h4.36
		c1.16,0,2.21,0.19,3.16,0.57c0.95,0.38,1.75,0.9,2.41,1.58c0.66,0.67,1.18,1.47,1.55,2.38
		C611.63,239.48,611.82,240.49,611.82,241.59L611.82,241.59z M651.99,247.48l-6.66-16.97h-4.29l9.18,22.24h3.41l9.18-22.24h-4.2
		L651.99,247.48z M695.87,230.51h-16.38v22.08h16.53v-3.47h-12.65v-5.93h11.08v-3.47h-11.08v-5.74h12.5V230.51z M713.74,230.51
		v22.08h3.88v-22.08H713.74z M736.4,252.59h15.49v-3.53h-11.61v-18.55h-3.88V252.59"/>
</g>
</svg>
