<svg xmlns="http://www.w3.org/2000/svg" role="img" viewBox="-14.74 -14.74 627.48 766.48"><title>ESLint logo</title><path fill="#1a1a1a" d="M0 577.691c0-1.40666.94133-2.34533 2.348-2.34533h99.95308c1.40666 0 2.344.93867 2.344 2.34533v20.17862c0 1.408-.93734 2.34532-2.344 2.34532H29.09459c-.93733 0-1.40666.46934-1.40666 1.40933v38.9479c0 .93867.46933 1.40667 1.40666 1.40667h61.70785c1.40933 0 2.348.94 2.348 2.348v20.17594c0 1.40933-.93867 2.348-2.348 2.348H29.09459c-.93733 0-1.40666.46933-1.40666 1.40666v40.35723c0 .93733.46933 1.408 1.40666 1.408h73.20649c1.40666 0 2.344.93733 2.344 2.34533v20.17861c0 1.40933-.93734 2.34666-2.344 2.34666H2.34799C.94133 734.89327 0 733.95594 0 732.54661z"/><path fill="#1a1a1a" d="M119.68 716.358c-.94133-.93733-1.40933-2.34533-.46933-3.52l14.5453-16.89328c.94-1.172 2.34666-1.172 3.28532-.23467 10.32397 8.21331 25.57594 16.8933 43.40522 16.8933 19.00662 0 30.03326-9.61865 30.03326-22.99328 0-11.49597-7.03598-19.00396-29.09192-22.05461l-8.44932-1.172c-30.73459-4.22532-48.09721-19.00662-48.09721-45.51989 0-28.8586 21.11728-48.09854 53.96253-48.09854 19.94395 0 38.95057 6.33465 51.61987 15.95462 1.17333.93867 1.40933 1.87733.468 3.28533l-11.2613 17.36262c-.93867 1.17333-2.112 1.408-3.28533.704-12.9013-8.44665-24.86927-12.43597-38.24257-12.43597-16.19063 0-25.10527 8.91731-25.10527 21.35061 0 11.02798 7.74131 18.53596 29.32793 21.58662l8.44664 1.172c30.73726 4.22532 47.62922 18.77061 47.62922 46.22254 0 28.3906-20.41329 49.50655-60.06519 49.50655-23.4626 0-46.21988-9.38531-58.65585-21.11595"/><path fill="#1a1a1a" d="M259.75 577.691c0-1.40666.94133-2.34533 2.348-2.34533h22.99327c1.40933 0 2.34666.93867 2.34666 2.34533v130.92367c0 .93733.46933 1.408 1.40666 1.408h73.20649c1.40666 0 2.344.93733 2.344 2.34533v20.17861c0 1.40933-.93734 2.34666-2.344 2.34666h-99.95309c-1.40666 0-2.34799-.93733-2.34799-2.34666z"/><path fill="#1a1a1a" d="M383.64 734.894c-1.40666 0-2.344-.93733-2.344-2.34533V624.14894c0-1.408.93734-2.34532 2.344-2.34532h21.58661c1.40933 0 2.348.93733 2.348 2.34532v108.39973c0 1.408-.93867 2.34533-2.348 2.34533zm0-134.44366c-1.40666 0-2.344-.93733-2.344-2.34533v-20.41328c0-1.40667.93734-2.34533 2.344-2.34533h21.58661c1.40933 0 2.348.93866 2.348 2.34533V598.105c0 1.408-.93867 2.34533-2.348 2.34533z"/><path fill="#1a1a1a" d="M503.641 734.894c-1.40666 0-2.344-.93733-2.344-2.34533v-65.22783c0-14.54797-7.27598-24.63594-21.3506-24.63594-13.61064 0-21.58662 10.08797-21.58662 24.63594v65.22783c0 1.408-.93866 2.34533-2.348 2.34533h-21.5866c-1.40667 0-2.344-.93733-2.344-2.34533V624.14894c0-1.408.93733-2.34532 2.344-2.34532h21.5866c1.40934 0 2.348.93733 2.348 2.34532v8.21198h.232c4.92799-7.03865 14.78396-13.13996 29.79992-13.13996 24.16661 0 39.1839 17.83328 39.1839 41.9999v71.32781c0 1.408-.93866 2.34533-2.34799 2.34533z"/><path fill="#1a1a1a" d="M584.49 736.302c-22.75728 0-31.43859-11.02797-31.43859-33.08392v-59.59585c0-.93733-.46933-1.40666-1.41066-1.40666h-7.50798c-1.40667 0-2.344-.93867-2.344-2.34666v-15.71996c0-1.408.93733-2.34666 2.344-2.34666h7.50798c.94133 0 1.41066-.468 1.41066-1.408v-30.97192c0-1.40667.93733-2.34533 2.344-2.34533h21.5866c1.40934 0 2.348.93866 2.348 2.34533v30.97192c0 .94.468 1.408 1.40533 1.408h15.0173c1.40933 0 2.34666.93866 2.34666 2.34666v15.71996c0 1.408-.93733 2.34666-2.34666 2.34666h-15.0173c-.93733 0-1.40533.46933-1.40533 1.40666v58.65852c0 7.97732 3.284 10.5573 10.55598 10.5573h5.86665c1.40933 0 2.34666.94 2.34666 2.348v18.77062c0 1.40667-.93733 2.34533-2.34666 2.34533z"/><g><path fill="#8080f2" d="M186.477 182.125l108.19709-62.4671c2.7076-1.5638 6.0452-1.5638 8.75281 0l108.19709 62.4671c2.7076 1.5638 4.3764 4.45236 4.3764 7.57996v124.93422c0 3.1276-1.6688 6.0184-4.3764 7.5822l-108.19709 62.4671c-2.7076 1.5638-6.0452 1.5638-8.75281 0L186.477 322.22138c-2.7076-1.5638-4.3764-4.4546-4.3764-7.5822V189.70496c0-3.1276 1.6688-6.01616 4.3764-7.57996"/><path fill="#4b32c3" d="M473.317 347.178c0 3.30855-1.9905 6.36467-4.85672 8.02006l-164.66814 95.00532c-2.86398 1.6554-6.45179 1.6554-9.31578 0L129.6809 355.19806c-2.864-1.6554-4.86789-4.7115-4.86789-8.02006V157.16513c0-3.30855 1.97486-6.36467 4.84108-8.02006l164.66144-95.00532c2.86398-1.6554 6.44732-1.6554 9.3113 0l164.80889 95.00532c2.86399 1.6554 4.88129 4.7115 4.88129 8.02006zm107.04658-108.14794L451.0887 14.12881C446.39283 5.99705 437.71598-.00124 428.32647-.00124H169.77448c-9.39173 0-18.06859 5.9983-22.76446 14.13005L17.73515 238.53411c-4.69587 8.134-4.69587 18.40146 0 26.53322l129.27487 223.0582c4.69587 8.13176 13.37273 12.28923 22.76446 12.28923h258.552c9.3895 0 18.06635-4.03237 22.76222-12.16636l129.27488-223.42234c4.69587-8.13176 4.69587-17.66424 0-25.796"/></g></svg>