<?xml version="1.0" encoding="utf-8"?>
<!-- Generator: Adobe Illustrator 28.0.0, SVG Export Plug-In . SVG Version: 6.00 Build 0)  -->
<svg version="1.1" id="Exein-Logo-Light_x5F_Background-RGB"
	 xmlns="http://www.w3.org/2000/svg" xmlns:xlink="http://www.w3.org/1999/xlink" x="0px" y="0px"
	 viewBox="0 0 600.000061 130.8999939" style="enable-background:new 0 0 600.000061 130.8999939;" xml:space="preserve">
<style type="text/css">
	.st0{fill-rule:evenodd;clip-rule:evenodd;fill:#080808;}
</style>
<path id="Exein-Logo-Light_x5F_Background-RGB_00000160170447041598759630000007487054419863453058_" class="st0" d="
	M2.583744,83.3030014l31.802002-17.8529968L2.583744,47.5970078c-3.4449921-1.9340057-3.4449921-6.8930054,0-8.826004
	L69.3387604,1.2959976c3.0779724-1.7279968,6.8329773-1.7279968,9.9099731,0l66.7550049,37.4750061
	c3.4450073,1.9329987,3.4450073,6.8919983,0,8.826004l-31.802002,17.8529968l31.802002,17.8529968
	c3.4450073,1.9339905,3.4450073,6.8930054,0,8.8269958l-66.7550049,37.4740067
	c-3.0769958,1.7279968-6.8320007,1.7279968-9.9099731,0L2.583744,92.1299973
	C-0.861248,90.1960068-0.861248,85.2369919,2.583744,83.3030014z M75.3327484,8.2720108l62.1900024,34.9119873
	L113.261734,56.8030014c-3.9499817-17.8829956-19.8969727-31.2599945-38.9679871-31.2599945
	c-19.0709953,0-35.0180016,13.3769989-38.9679985,31.2599945L11.0647469,43.1839981L73.2547455,8.2720108
	C73.8997345,7.9100113,74.6877594,7.9100113,75.3327484,8.2720108z M74.2937469,33.5430069
	c16.0310059,0,29.3009949,11.821991,31.5660095,27.2249908L79.2487335,45.8290024
	c-3.0769958-1.7279968-6.8320007-1.7279968-9.9099731,0L42.7277565,60.7679977
	C44.9927559,45.3660049,58.2627449,33.5430069,74.2937469,33.5430069z M69.3387604,85.0720139L42.7277565,70.1330185
	c2.2649994,15.4019775,15.5349884,27.2249756,31.5659904,27.2249756s29.3009949-11.822998,31.5660095-27.2249756
	L79.2487335,85.0720139C76.1717377,86.7990036,72.4167328,86.7990036,69.3387604,85.0720139z M74.2937469,105.3579941
	c-19.0709953,0-35.0180016-13.3779907-38.9679985-31.2609863L11.0647469,87.7170029l62.1899986,34.9119873
	c0.644989,0.3619995,1.4330139,0.3619995,2.0780029,0l62.1900024-34.9119873L113.261734,74.0970078
	C109.3117523,91.9800034,93.3647614,105.3579941,74.2937469,105.3579941z M97.8587494,65.4500046l-22.526001,12.6459961
	c-0.644989,0.3619995-1.4330139,0.3619995-2.0780029,0L50.7287483,65.4500046l22.5259972-12.6450043
	c0.644989-0.3629913,1.4330139-0.3629913,2.0780029,0L97.8587494,65.4500046z M226.1090546,111.2060165
	c-8.882019,0-16.6540222-1.8700256-23.3160095-5.6100159c-6.6619873-3.8569946-11.8630066-9.2330017-15.6029968-16.1289978
	c-3.6230164-7.0119934-5.4339905-15.0180054-5.4339905-24.0169983c0-9.1159973,1.7529907-17.121994,5.2590027-24.0180054
	c3.6229858-6.894989,8.6489868-12.2129974,15.0769958-15.9529877c6.4279785-3.8570099,13.7909851-5.7850037,22.0889893-5.7850037
	c8.1809998,0,15.427002,1.6949921,21.7390137,5.0839996c6.3109741,3.3889923,11.2779694,8.2980042,14.9009857,14.7259979
	c3.6229858,6.4279938,5.5509949,13.9660034,5.7849731,22.6150055c0,2.026001-0.1269836,4.1229858-0.3499756,6.1359863h-69.4229889
	v1.2270203c0.1159973,5.7269897,1.3439941,10.8109741,3.6809998,15.2519836
	c2.4539795,4.3240051,5.7850037,7.7139893,9.992981,10.1679993c4.2070007,2.3380127,9.0570068,3.506012,14.5510254,3.506012
	c6.4279785,0,11.8619995-1.5769958,16.3029785-4.7330017c4.559021-3.2730103,7.5970154-7.7720032,9.1170044-13.4989929h14.5500031
	c-1.1680298,5.9609985-3.5640259,11.3369751-7.1870117,16.1289978c-3.5069733,4.6749878-8.0059967,8.3559875-13.4989777,11.0439758
	C238.9660492,109.9200058,232.8880463,111.2060165,226.1090546,111.2060165z M224.3560333,32.3160019
	c-4.440979,0-8.5899963,0.9940033-12.446991,2.9810028c-3.8569946,1.9859924-7.0709839,4.8500061-9.6419983,8.5899963
	c-2.5709839,3.6230011-4.0899963,7.7720032-4.5579834,12.4470062h53.9959717
	c-0.7009888-7.5970001-3.5649719-13.4990082-8.5899963-17.7070007
	C238.2060394,34.4200058,231.9530487,32.3160019,224.3560333,32.3160019z M401.6800232,111.2060165
	c-8.8829956,0-16.6549683-1.8700256-23.3170166-5.6100159c-6.6609497-3.8569946-11.8619995-9.2330017-15.6019897-16.1289978
	c-3.6229858-7.0119934-5.4349976-15.0180054-5.4349976-24.0169983c0-9.1159973,1.7529907-17.121994,5.2600098-24.0180054
	c3.6229858-6.894989,8.6480103-12.2129974,15.0759888-15.9529877c6.4280396-3.8570099,13.7910156-5.7850037,22.0889893-5.7850037
	c8.1810303,0,15.4280396,1.6949921,21.7390137,5.0839996c6.3110352,3.3889923,11.2780151,8.2980042,14.901001,14.7259979
	s5.552002,13.9660034,5.7850342,22.6150055c0,2.026001-0.1260376,4.1229858-0.3500366,6.1359863h-69.4229736v1.2270203
	c0.1170044,5.7269897,1.3439941,10.8109741,3.6809692,15.2519836c2.4550171,4.3240051,5.7860107,7.7139893,9.993042,10.1679993
	c4.2079468,2.3380127,9.0579834,3.506012,14.5509644,3.506012c6.4280396,0,11.8630371-1.5769958,16.3040161-4.7330017
	c4.5579834-3.2730103,7.5969849-7.7720032,9.1159668-13.4989929h14.5510254
	c-1.1690063,5.9609985-3.5650024,11.3369751-7.1879883,16.1289978c-3.5059814,4.6749878-8.0059814,8.3559875-13.4990234,11.0439758
	C414.5360413,109.9200058,408.4580383,111.2060165,401.6800232,111.2060165z M399.9270325,32.3160019
	c-4.4420166,0-8.5910034,0.9940033-12.4470215,2.9810028c-3.8569946,1.9859924-7.0709839,4.8500061-9.6419678,8.5899963
	c-2.5720215,3.6230011-4.0910034,7.7720032-4.559021,12.4470062h53.9960327
	c-0.7010498-7.5970001-3.5650024-13.4990082-8.5900269-17.7070007
	C413.7760315,34.4200058,407.5230408,32.3160019,399.9270325,32.3160019z M534.4570312,32.9120102l-1.9519653-12.1660004
	h-12.4470215v89.4080048h14.3760376v-44.70401c0-6.6620026,1.052002-12.4470062,3.1549683-17.3560028
	c2.2210083-4.9080048,5.3179932-8.647995,9.2919922-11.2200012c4.0900269-2.6880035,8.94104-4.0319977,14.5510254-4.0319977
	c7.8300171,0,13.7910156,2.4550018,17.8809814,7.3630066c4.2080078,4.7919922,6.3120117,11.8040009,6.3120117,21.0370026v48.9120026
	h14.375V60.3660049c0-14.0249939-3.3309937-24.3099976-9.992981-30.8549957
	c-6.5450439-6.5449982-15.2520142-9.8170013-26.1210327-9.8170013c-7.8309937,0-14.3170166,1.5189972-19.4589844,4.5579987
	C540.4420776,26.6610031,537.1190796,29.5480118,534.4570312,32.9120102z M449.1670227,20.7450027v13.147995h25.2440186v63.1119995
	h-25.2440186v13.1480103h60.3710327V97.0049973h-20.7510376V32.3020096c0-6.3830109-5.1749878-11.5570068-11.5579834-11.5570068
	H449.1670227z M271.6990356,20.7460098h17.1809998l23.84198,33.1339874l24.1929932-33.1339874h15.9530029l-31.9069824,43.477005
	l34.1859741,45.9309998h-17.1809692l-26.29599-35.9380188l-26.2970276,35.9380188h-15.9529724l34.0099792-45.9309998
	L271.6990356,20.7460098z"/>
</svg>
