<?xml version="1.0" encoding="UTF-8" standalone="no"?>
<svg
   xmlns:dc="http://purl.org/dc/elements/1.1/"
   xmlns:cc="http://creativecommons.org/ns#"
   xmlns:rdf="http://www.w3.org/1999/02/22-rdf-syntax-ns#"
   xmlns:svg="http://www.w3.org/2000/svg"
   xmlns="http://www.w3.org/2000/svg"
   viewBox="0 0 299.56 112.57333"
   height="112.57333"
   width="299.56"
   xml:space="preserve"
   id="svg2"
   version="1.1"><metadata
     id="metadata8"><rdf:RDF><cc:Work
         rdf:about=""><dc:format>image/svg+xml</dc:format><dc:type
           rdf:resource="http://purl.org/dc/dcmitype/StillImage" /></cc:Work></rdf:RDF></metadata><defs
     id="defs6" /><g
     transform="matrix(1.3333333,0,0,-1.3333333,0,112.57333)"
     id="g10"><g
       transform="scale(0.1)"
       id="g12"><path
         id="path14"
         style="fill:#5f6cae;fill-opacity:1;fill-rule:nonzero;stroke:none"
         d="M 1045.21,394.09 H 539.125 l 137.086,225.09 v 0 H 929.254 L 860.711,506.637 H 1113.75 L 1045.21,394.09" /><path
         id="path16"
         style="fill:#a5bbe5;fill-opacity:1;fill-rule:nonzero;stroke:none"
         d="m 1551.3,394.09 h -506.09 v 0 l 68.55,112.547 h 253.04 -0.01 253.05 L 1551.3,394.09" /><path
         id="path18"
         style="fill:#5a7abe;fill-opacity:1;fill-rule:nonzero;stroke:none"
         d="m 1045.21,394.09 v 0 l 68.54,112.547 h 0.01 L 1045.21,394.09" /><path
         id="path20"
         style="fill:#9db2d0;fill-opacity:1;fill-rule:nonzero;stroke:none"
         d="m 2092.16,451.164 h -506.09 l 33.79,55.473 h 253.02 l 103.3,169.617 h 253.06 l -137.08,-225.09" /><path
         id="path22"
         style="fill:#b7c7ea;fill-opacity:1;fill-rule:nonzero;stroke:none"
         d="M 929.254,619.18 H 676.211 L 813.293,844.266 H 1319.38 1066.34 L 997.797,731.723 h -0.004 L 929.254,619.18" /><path
         id="path24"
         style="fill:#acbdd7;fill-opacity:1;fill-rule:nonzero;stroke:none"
         d="m 1503.88,731.723 v 0 0 h -253.04 l 68.54,112.543 h 253.05 l -68.54,-112.543" /><path
         id="path26"
         style="fill:#8aa6cf;fill-opacity:1;fill-rule:nonzero;stroke:none"
         d="M 1250.84,731.723 H 997.793 l 68.547,112.543 h 253.04 l -68.54,-112.543" /><path
         id="path28"
         style="fill:#5c75b7;fill-opacity:1;fill-rule:nonzero;stroke:none"
         d="M 1113.75,506.637 H 860.711 l 68.543,112.543 h 253.036 l -68.54,-112.543" /><path
         id="path30"
         style="fill:#8caade;fill-opacity:1;fill-rule:nonzero;stroke:none"
         d="m 1366.8,506.637 h -253.04 l 68.54,112.543 h 253.04 l -68.55,-112.543" /><path
         id="path32"
         style="fill:#587fc3;fill-opacity:1;fill-rule:nonzero;stroke:none"
         d="m 1113.76,506.637 h -0.01 l 68.54,112.543 h 0.01 l -68.54,-112.543" /><path
         id="path34"
         style="fill:#98b2e1;fill-opacity:1;fill-rule:nonzero;stroke:none"
         d="m 929.258,619.18 h -0.004 L 997.793,731.723 929.258,619.18" /><path
         id="path36"
         style="fill:#90abd5;fill-opacity:1;fill-rule:nonzero;stroke:none"
         d="m 1435.34,619.18 h -253.05 l 68.55,112.543 h 253.04 v 0 L 1435.34,619.18" /><path
         id="path38"
         style="fill:#7399cd;fill-opacity:1;fill-rule:nonzero;stroke:none"
         d="M 1435.34,619.18 H 1182.3 v 0 h 253.04" /><path
         id="path40"
         style="fill:#7a9ccf;fill-opacity:1;fill-rule:nonzero;stroke:none"
         d="m 1182.29,619.18 v 0 h 0.01 -253.042 l 68.539,112.543 H 1250.84 L 1182.3,619.18" /><path
         id="path42"
         style="fill:#5b84c0;fill-opacity:1;fill-rule:nonzero;stroke:none"
         d="m 1182.29,619.18 v 0 H 929.258 1182.3" /><path
         id="path44"
         style="fill:#6993cb;fill-opacity:1;fill-rule:nonzero;stroke:none"
         d="m 1182.3,619.18 v 0 0 h -0.01 0.01" /><path
         id="path46"
         style="fill:#5a86c3;fill-opacity:1;fill-rule:nonzero;stroke:none"
         d="m 1182.3,619.18 v 0 h -0.01 0.01" /><path
         id="path48"
         style="fill:#cccbe4;fill-opacity:1;fill-rule:nonzero;stroke:none"
         d="m 1619.86,506.637 h -0.02 l 68.54,112.543 h -253.04 l 68.55,112.543 h 506.08 l -33.79,-55.469 h -253.02 l -103.3,-169.617" /><path
         id="path50"
         style="fill:#889dd2;fill-opacity:1;fill-rule:nonzero;stroke:none"
         d="m 1619.84,506.637 h -253.05 0.01 l 68.54,112.543 v 0 h 253.04 l -68.54,-112.543" /><path
         id="path52"
         style="fill:#8296c3;fill-opacity:1;fill-rule:nonzero;stroke:none"
         d="m 1872.88,506.637 h -253.02 l 103.3,169.617 h 253.02 l -103.3,-169.617" /><path
         id="path54"
         style="fill:#8e9ec7;fill-opacity:1;fill-rule:nonzero;stroke:none"
         d="m 1435.34,619.18 v 0 l 68.54,112.543 v 0 L 1435.34,619.18" /><path
         id="path56"
         style="fill:#7591cd;fill-opacity:1;fill-rule:nonzero;stroke:none"
         d="m 1366.8,506.637 v 0 l 68.54,112.543 v 0 L 1366.8,506.637" /><path
         id="path58"
         style="fill:#7891c6;fill-opacity:1;fill-rule:nonzero;stroke:none"
         d="m 1435.34,619.18 v 0 l 68.54,112.543 -68.54,-112.543" /><path
         id="path60"
         style="fill:#6285c0;fill-opacity:1;fill-rule:nonzero;stroke:none"
         d="m 1435.34,619.18 v 0 0 0" /><path
         id="path62"
         style="fill:#69656e;fill-opacity:1;fill-rule:nonzero;stroke:none"
         d="M 506.086,451.164 H 0 l 137.086,225.09 h 253.59 L 321.586,563.09 H 574.254 L 506.086,451.164" /><path
         id="path64"
         style="fill:#69656e;fill-opacity:1;fill-rule:nonzero;stroke:none"
         d="m 574.629,563.09 h -0.375 l 68.918,113.164 H 390.676 l 68.332,111.922 H 712.055 L 574.629,563.09" /><path
         id="path66"
         style="fill:#393942;fill-opacity:1;fill-rule:nonzero;stroke:none"
         d="M 574.254,563.09 H 321.586 l 69.09,113.164 H 643.172 L 574.254,563.09" /><path
         id="path68"
         style="fill:#191d23;fill-opacity:1;fill-rule:nonzero;stroke:none"
         d="m 2.41406,305.434 c 0,4.418 3.53516,8.402 8.39064,8.402 H 184.965 c 4.863,0 8.398,-3.984 8.398,-8.402 v -12.817 c 0,-4.429 -3.535,-8.398 -8.398,-8.398 H 36.4492 V 176.359 H 163.301 c 4.422,0 8.398,-3.968 8.398,-8.402 v -12.816 c 0,-4.864 -3.976,-8.399 -8.398,-8.399 H 36.4492 V 34.0313 H 184.965 c 4.863,0 8.398,-3.9805 8.398,-8.3985 V 12.8164 c 0,-4.41796 -3.535,-8.40234 -8.398,-8.40234 H 10.8047 c -4.85548,0 -8.39064,3.98438 -8.39064,8.40234 V 305.434" /><path
         id="path70"
         style="fill:#191d23;fill-opacity:1;fill-rule:nonzero;stroke:none"
         d="m 329.848,163.094 -86.196,138.355 c -3.539,5.746 0,12.387 7.512,12.387 h 23.871 c 3.098,0 6.188,-1.777 7.516,-3.984 l 68.062,-117.141 h 0.45 l 21.656,-29.617 89.293,-146.2932 c 3.535,-6.1914 0,-12.38674 -7.52,-12.38674 h -20.328 c -3.535,0 -6.633,2.21094 -7.512,3.98438 L 351.063,133.477 h -0.45 l -20.765,29.617" /><path
         id="path72"
         style="fill:#191d23;fill-opacity:1;fill-rule:nonzero;stroke:none"
         d="m 504.254,50.8359 c 2.219,2.6368 4.426,5.7422 6.633,8.3985 4.418,5.7422 9.281,9.2812 15.472,3.9687 3.086,-2.6562 35.364,-33.5859 74.7,-33.5859 35.8,0 59.226,22.543 59.226,48.6094 0,30.5114 -26.512,48.6254 -77.347,69.8434 -48.625,21.215 -77.793,41.106 -77.793,91.489 0,30.066 23.863,78.695 94.144,78.695 43.316,0 75.59,-22.547 75.59,-22.547 2.644,-1.328 7.949,-6.641 2.644,-15.023 -1.765,-2.657 -3.535,-5.762 -5.3,-8.403 -3.977,-6.191 -8.403,-7.953 -15.477,-3.984 -3.086,1.777 -30.933,20.34 -57.894,20.34 -46.86,0 -61.004,-30.067 -61.004,-48.629 0,-29.617 22.547,-46.848 59.675,-62.32 59.672,-24.305 98.122,-46.852 98.122,-98.1333 C 695.645,33.5859 651.891,0 600.172,0 548.016,0 512.656,30.4961 506.91,35.793 c -3.535,3.1054 -7.961,6.6406 -2.656,15.0429" /><path
         id="path74"
         style="fill:#191d23;fill-opacity:1;fill-rule:nonzero;stroke:none"
         d="m 808.742,284.219 h -76.906 c -4.863,0 -8.398,3.969 -8.398,8.398 v 12.817 c 0,4.418 3.535,8.402 8.398,8.402 h 187.418 c 4.863,0 8.398,-3.984 8.398,-8.402 v -12.817 c 0,-4.429 -3.535,-8.398 -8.398,-8.398 H 842.336 V 12.8164 c 0,-4.41796 -3.977,-8.40234 -8.398,-8.40234 h -16.793 c -4.426,0 -8.403,3.98438 -8.403,8.40234 V 284.219" /><path
         id="path76"
         style="fill:#191d23;fill-opacity:1;fill-rule:nonzero;stroke:none"
         d="m 1096.93,154.691 c 34.03,0 63.66,28.289 63.66,64.547 0,33.586 -29.63,62.325 -63.66,62.325 h -85.76 V 154.691 Z M 976.262,305.434 c 0,4.418 3.535,8.402 8.39,8.402 h 114.488 c 53.05,0 96.36,-41.555 96.36,-94.164 0,-40.656 -26.96,-74.692 -65.42,-90.164 l 60.56,-112.2775 c 3.09,-5.7422 0,-12.81644 -7.52,-12.81644 h -22.53 c -3.99,0 -6.19,2.21094 -7.07,3.98438 L 1094.71,125.523 H 1010.3 V 12.8164 c 0,-4.41796 -3.99,-8.40234 -8.41,-8.40234 h -17.238 c -4.855,0 -8.39,3.98438 -8.39,8.40234 V 305.434" /><path
         id="path78"
         style="fill:#191d23;fill-opacity:1;fill-rule:nonzero;stroke:none"
         d="m 1443.91,109.621 c -21.66,48.176 -42.88,96.805 -64.53,144.981 h -3.54 L 1311.3,109.621 Z M 1233.95,15.9023 1368.32,313.387 c 1.33,2.656 3.54,4.867 7.52,4.867 h 4.42 c 3.97,0 6.19,-2.211 7.5,-4.867 l 133.5,-297.4847 c 2.65,-5.7421 -0.88,-11.48824 -7.51,-11.48824 h -17.68 c -3.98,0 -6.64,2.65625 -7.52,4.86719 l -32.7,72.92965 H 1298.93 L 1266.66,9.28125 c -0.88,-2.21094 -3.54,-4.86719 -7.51,-4.86719 h -17.68 c -6.64,0 -10.17,5.74614 -7.52,11.48824" /><path
         id="path80"
         style="fill:#191d23;fill-opacity:1;fill-rule:nonzero;stroke:none"
         d="m 1591.53,284.219 h -76.91 c -4.87,0 -8.4,3.969 -8.4,8.398 v 12.817 c 0,4.418 3.53,8.402 8.4,8.402 h 187.41 c 4.87,0 8.4,-3.984 8.4,-8.402 v -12.817 c 0,-4.429 -3.53,-8.398 -8.4,-8.398 h -76.91 V 12.8164 c 0,-4.41796 -3.97,-8.40234 -8.4,-8.40234 h -16.79 c -4.43,0 -8.4,3.98438 -8.4,8.40234 V 284.219" /><path
         id="path82"
         style="fill:#191d23;fill-opacity:1;fill-rule:nonzero;stroke:none"
         d="m 1757.13,305.434 c 0,4.418 3.99,8.402 8.4,8.402 h 16.8 c 4.87,0 8.4,-3.984 8.4,-8.402 V 121.109 c 0,-50.3863 31.38,-89.7301 83.1,-89.7301 52.16,0 83.98,38.4453 83.98,88.8481 v 185.207 c 0,4.418 3.54,8.402 8.4,8.402 h 16.8 c 4.42,0 8.4,-3.984 8.4,-8.402 V 118.453 C 1991.41,51.2656 1943.67,0 1873.83,0 c -69.4,0 -116.7,51.2656 -116.7,118.453 v 186.981" /><path
         id="path84"
         style="fill:#191d23;fill-opacity:1;fill-rule:nonzero;stroke:none"
         d="m 2055.35,50.8359 c 2.2,2.6368 4.43,5.7422 6.64,8.3985 4.41,5.7422 9.28,9.2812 15.47,3.9687 3.09,-2.6562 35.36,-33.5859 74.69,-33.5859 35.81,0 59.23,22.543 59.23,48.6094 0,30.5114 -26.52,48.6254 -77.34,69.8434 -48.63,21.215 -77.8,41.106 -77.8,91.489 0,30.066 23.86,78.695 94.15,78.695 43.31,0 75.59,-22.547 75.59,-22.547 2.64,-1.328 7.95,-6.641 2.64,-15.023 -1.76,-2.657 -3.54,-5.762 -5.3,-8.403 -3.98,-6.191 -8.4,-7.953 -15.47,-3.984 -3.09,1.777 -30.95,20.34 -57.91,20.34 -46.85,0 -60.99,-30.067 -60.99,-48.629 0,-29.617 22.54,-46.848 59.66,-62.32 59.69,-24.305 98.14,-46.852 98.14,-98.1333 C 2246.75,33.5859 2202.98,0 2151.27,0 c -52.16,0 -87.52,30.4961 -93.27,35.793 -3.53,3.1054 -7.95,6.6406 -2.65,15.0429" /><path
         id="path86"
         style="fill:#618bb9;fill-opacity:1;fill-rule:nonzero;stroke:none"
         d="m 420.512,311.359 c 1.328,2.223 4.011,4.012 7.586,4.012 h 24.109 c 7.586,0 11.16,-6.691 7.586,-12.492 L 274.945,6.84375 C 273.594,4.59766 270.914,2.8125 267.34,2.8125 h -20.535 c -8.043,0 -11.598,6.71094 -8.043,12.5117" /></g></g></svg>