<svg id="Layer_1" data-name="Layer 1" xmlns="http://www.w3.org/2000/svg" viewBox="0 0 343.77 84.15"><defs><style>.cls-1{fill:#95d600;}.cls-2{fill:#77777a;}</style></defs><title>Extremian_Logo_1Line</title><path class="cls-1" d="M126.2,43.33a6.25,6.25,0,0,0,6.46,5,7.25,7.25,0,0,0,5.83-2.79l3.71,3.08A12.46,12.46,0,0,1,132,53.33a11.35,11.35,0,0,1-11.58-11.67A11.36,11.36,0,0,1,132,30c7,0,11,5,11,12.08,0,0.46,0,.92,0,1.29H126.2Zm0-3.71h11.21c-0.21-2.58-1.58-5-5.46-5A5.9,5.9,0,0,0,126.24,39.62Z"/><path class="cls-1" d="M148.27,53H142l8.29-11.58-8.21-11h6.5l5,6.63,5-6.63H165l-8.21,11L165.1,53h-6.29l-5.25-6.67Z"/><path class="cls-1" d="M171.89,35.16v8c0,4,.67,5.21,3.58,5.21a24,24,0,0,0,2.67-.21v4.33a14.25,14.25,0,0,1-5.25.83c-3.79,0-6.83-2.37-6.83-7.12v-11h-4.9V30.37h4.9V21.58h5.83v8.79h6.33v4.79h-6.33Z"/><path class="cls-1" d="M196.46,24.53a3.39,3.39,0,0,1,3.33-3.42,3.35,3.35,0,0,1,3.29,3.42,3.32,3.32,0,0,1-3.29,3.38A3.35,3.35,0,0,1,196.46,24.53Zm0.46,5.83h5.79V53h-5.79V30.37Z"/><path class="cls-1" d="M242.88,40.37V53h-5.79V40.37c0-3.5-1.75-5.21-4.92-5.21a6.22,6.22,0,0,0-4.5,1.79,12.16,12.16,0,0,1,.25,3.5V53h-5.79V40.37c0-3.46-1.54-5.21-4.54-5.21A6.93,6.93,0,0,0,212.71,37V53h-5.83V30.37h5.83v1.42A10,10,0,0,1,218.58,30c3.5,0,6,.87,7.5,2.87A10.39,10.39,0,0,1,233.17,30C239.84,30,242.88,33,242.88,40.37Z"/><path class="cls-1" d="M246.16,24.53a3.39,3.39,0,0,1,3.33-3.42,3.35,3.35,0,0,1,3.29,3.42,3.32,3.32,0,0,1-3.29,3.38A3.35,3.35,0,0,1,246.16,24.53Zm0.46,5.83h5.79V53h-5.79V30.37Z"/><path class="cls-1" d="M278.78,30.37V53H273V51.33a11.84,11.84,0,0,1-6.63,2c-7.08,0-11.25-5.71-11.25-11.71s4.17-11.71,11.25-11.71A13.31,13.31,0,0,1,273,31.78V30.37h5.79ZM273,37.12a8.65,8.65,0,0,0-5.58-2,6.48,6.48,0,1,0,0,13A8.54,8.54,0,0,0,273,46.2V37.12Z"/><path class="cls-1" d="M304.24,40.37V53h-5.79V40.37c0-3.5-1.71-5.21-4.92-5.21a7.4,7.4,0,0,0-5,1.79V53h-5.79V30.37h5.79v1.42a10.47,10.47,0,0,1,6-1.83C301.19,30,304.24,33,304.24,40.37Z"/><path class="cls-1" d="M194.09,30l-0.41,0a8.59,8.59,0,0,0-7.13,3.58V30.37h-5.83V53h5.83V42.08c0-3,1.58-5.92,5.75-5.92a12.79,12.79,0,0,1,1.78.16V30Z"/><polygon class="cls-2" points="69.06 55.34 73.09 62.01 77.11 55.34 73.05 50.54 69.06 55.34"/><path class="cls-2" d="M62.39,38.32a1.71,1.71,0,0,1-2.7-2.1A5.94,5.94,0,1,0,62.39,38.32Z"/><path class="cls-1" d="M106.66,40.92l0-18.39-18,1.27a17.93,17.93,0,0,0-15.58,9.14A17.94,17.94,0,0,0,57.53,23.8l-18-1.27,0,18.39c0,0.12,0,.24,0,0.35l3.2,1.93L40,44.88l2.77,1.67-2.15,1.3a17.95,17.95,0,0,0,32.48,2.74l0,0,0.13,0.22h0a17.94,17.94,0,0,0,32.37-2.93l-2.15-1.3,2.77-1.67-2.77-1.67,3.2-1.93C106.67,41.16,106.67,41,106.66,40.92ZM57.55,53.31A11.57,11.57,0,1,1,69.12,41.74,11.57,11.57,0,0,1,57.55,53.31Zm30.93,0A11.57,11.57,0,1,1,100,41.74,11.57,11.57,0,0,1,88.48,53.31Z"/><path class="cls-2" d="M93.32,38.32a1.71,1.71,0,0,1-2.7-2.1A5.94,5.94,0,1,0,93.32,38.32Z"/></svg>