<svg xmlns="http://www.w3.org/2000/svg" role="img" viewBox="-22.08 -22.08 1148.16 206.16"><style>svg {enable-background:new 0 0 1104.4 162.4}</style><style>.st0{fill:#03d2d6}.st1{fill:#181818}</style><path d="M90.8 161.8c18.3-2.2 36.1-10.8 48.8-24.3 12.2-12.4 20-28.8 22.2-46 3.7-28-8.7-57-31-74.3C115.9 5.5 97-.8 78 .1 46.8.6 17.8 21.4 6.2 50.2 3 58 1 66.3 0 74.6v11c.7 16.5 7.2 32.9 17.4 45.9 17.1 22 45.8 33.8 73.4 30.3zm-44.3-35.6c1.6.1 3.3 0 4.8.4 2.1 1.8 3.5 4.6 5.7 6.2 1.9 1.1 4.5.7 6.1-.7 4.9-3.9 6.6-9.9 8.1-15.7 2-8.7 4.1-17.5 6.2-26.1-7-1.7-14.1-2.5-21.2-3.3.1-1.9.2-3.9.2-5.8 7.4.2 14.5 1.9 21.9 2.6 1-4 1.8-8.1 2.5-12.2-7.5-1.4-15.2-2.2-22.6-3.9.3-1.8.7-3.7 1-5.5 7.8.4 15.4 2.2 23.1 2.7 3.4-9.8 5.5-20.4 11.9-28.5 3.9-5.3 10-8.6 16.7-8.2 4.6-.2 9 1.4 11.3 5.6.1 2.2-.4 4.4-2.1 5.9-5.1.7-6.5-7.6-11.2-7.4-4.6-.8-7.4 4.8-9 8.2-3.1 8.8-5.6 17.9-7.9 26.9 7.2 1 14.6 2 21.9 3.2l-1.5 5.4c-7.3.2-14.3-1.7-21.6-1.7-.5 4-1.2 7.9-1.5 11.9 7.5.7 15.1 1.7 22.6 3.3l-1.5 5.4c-7.5-.4-14.8-2.1-22.3-2.6-2.5 10-5.3 19.8-9.4 29.2-2.4 5.7-6.4 10.6-11.9 13.4-4.1 2.3-8.4 2.1-12.9 1.8-3-.1-5.3-2.2-7.7-3.8.1-2.3.2-4.5.3-6.7z" class="st0"/><path d="M257.6 51.6V41.1c-16.7.2-33.5-.2-50.1.2-.2 23.9 0 47.9-.1 71.9H220V81.4h35.4V70.8c-11.8.1-23.6 0-35.4 0V51.5c12.6.1 25.1.1 37.6.1zm6.9-10.4c-.2 3.9 0 7.9-.1 11.8h11.9V41.2c-4-.1-7.9-.2-11.8 0zm25.1.1c-.2 23.9 0 48-.1 71.9h11.9v-72c-3.9-.1-7.9-.3-11.8.1zm198.9-.1c-.2 3.9 0 7.9-.1 11.8 3.9 0 7.9 0 11.8-.1V41.1c-4 0-7.9-.1-11.7.1z" class="st1"/><path d="M866.5 42.5c-.7 8.5.4 17-.7 25.6-3.3-3.8-7.1-6.8-12.2-7.7-4.9-.5-9.8-.5-14.3 1.8-5.9 2.8-9.5 8.2-11.7 14.2-2.2 7-2.3 14.6-.4 21.6 1.9 6.2 5.4 11.9 11.2 15 4.7 2.7 10.1 3 15.4 2.2 5.2-1.1 9.4-4.1 12.5-8.3 0 2.5 0 5 .1 7.5 3 0 6 0 9-.1.1-24 0-48 0-71.9-2.9 0-5.9-.2-8.9.1zM862 103c-5 6.1-15.5 6.4-21.1 1-1.9-1.9-3.2-4.5-4-7-1.9-6.4-1.7-13.3.5-19.6 1.4-4.1 4.8-7.6 8.9-8.9 5-1.5 11.1-.5 14.8 3.4 4.1 4 5.4 9.6 5.5 15.1.1 5.8-.6 11.5-4.6 16zM602.7 42.4c-.1 22.5 0 45-.1 67.5.1 1.5-.2 3.1.9 4.2 3 .3 6.1.2 9.1.2 1.2-10.8.2-21.9.7-32.8 11.4.1 22.8 0 34.2 0v-8.8c-11.4-.3-22.9 0-34.3-.2V51.2c12.1-.1 24.2 0 36.2-.1v-8.8c-15.4 0-31.1.1-46.7.1zm384.6 10c.3-3.3.2-6.7.1-10h-9v11c2.7-.3 6.7.6 8.9-1zm-20.5 8.8c-3.4-.4-6.8-.5-10.2-.7.1-4.3.1-8.7 0-13h-9v13c-2.8.2-5.5.4-8.3.7 0 2.4.1 4.7.1 7h8.1v30.7c0 3.3 0 7.1 1.1 10.3.9 2.5 3 4 5.5 4.6 4 .9 8.4.5 12.5.5 0-2.5 0-5.1-.1-7.6-3-.1-6-.2-9-.4-.6-3.1-1-6.2-1-9.4.1-9.5 0-19.1 0-28.6 3.3-.1 6.6-.1 10-.1.2-2.3.2-4.6.3-7z" class="st0"/><path d="M317.4 67.4c-8.6 10.2-8.3 27-.2 37.4 9.2 12.2 30.1 12.9 40.1 1.5 2.5-2.6 3.9-5.8 5.2-9.1-3.8-.1-7.6-.1-11.4 0-4.2 7.9-14.8 9.8-21.8 4.7-4.2-2.9-5.3-7.3-6.4-12 13.4-.1 26.8 0 40.3 0 .2-9.3-1.8-18.4-8.8-25-10.5-9.6-28.1-8.2-37 2.5zm5.5 13.7c.8-2.9 1.4-5.6 3.2-8.1 4.8-6.2 14.9-7.2 20.6-1.7 2.9 2.7 3.7 6.1 4.5 9.8h-28.3zm85.9 13.8c-1 2.5-1.9 5-4.1 6.8-4.3 3.3-10.9 3.9-15.6 1.2-4.7-3-6.8-8.5-7.2-13.9-.4-5.3.2-11.1 3.5-15.6 4.2-6.2 14.6-6.8 19.7-1.5 1.8 1.7 2.5 3.8 3.4 6.1H420c-1.4-5.4-3.7-10.2-8.1-13.8-10.2-8.6-27.1-7.3-35.7 3-9.2 10.8-8.7 29.3.9 39.8 8.7 9.1 23.5 9.8 33.6 2.8 5.2-3.5 8.1-8.8 9.7-14.8-3.9-.2-7.8-.2-11.6-.1zm59-31.7c-6.6-4.7-15.6-5.9-23.3-3.6-7.3 2-13.5 7.5-16.3 14.6-2.5 6.1-2.7 13.2-1.5 19.7 1.2 5.8 4.3 11.7 9.2 15.3 10.4 8 27.4 7 36.1-3.1 6.2-6.9 7.6-17.2 6-26-1-6.9-4.6-13-10.2-16.9zm-6 37.5c-4.2 4.5-11.4 5.3-16.5 2-3.8-2.2-5.9-6.7-6.6-11-.9-5.9-.7-12.3 2.6-17.5 1.6-2.8 4.2-4.7 7.2-5.6 4-1.1 8.4-.6 11.7 2.1 4.5 3.5 6.2 9.7 6.2 15.2 0 5.2-.9 11-4.6 14.8zm97.9-21.5c-.2-6-1.1-12-5.5-16.4-5.4-4.9-13.8-5.3-20.4-3-3.8 1.2-6.1 4-8.4 7v-7.1h-11.9v53.5h11.9V83.1c.2-4.8 1.3-10.2 5.5-13.1 3.8-2.3 9.4-2.6 13.1 0 3.3 2.5 3.6 7.2 3.8 11.1.1 10.7 0 21.4 0 32.1h11.9c0-11.4.1-22.7 0-34zm-295.3 33.9c4 .1 7.9 0 11.9.1V59.7h-11.9v53.4zm224 0c3.9.1 7.8 0 11.8 0V59.6h-11.8v53.5z" class="st1"/><path d="M691.3 62.9c-5.5-3.1-12.6-3.2-18.7-2-8.8 2.1-15.8 9.3-17.9 18-1.8 7.7-1.5 16.4 2.1 23.5 3.6 7.1 10.9 11.9 18.7 13 10.1 1.5 20.9-3 25.8-12.2 3.6-6.5 3.8-13.6 3.2-20.8-1.1-8.2-5.7-15.8-13.2-19.5zm-1.7 40.7c-6.1 6.4-18.2 5.2-22.9-2.2-3.8-5.7-4-13.9-2.8-20.4 1-6.1 5.2-11.3 11.4-12.5 5-.8 10-.5 13.9 3.2 4.8 4.3 5.7 10.2 6 16.3-.2 5.6-1.3 11.6-5.6 15.6zM816.3 90c0-7.1.6-15-2.6-21.7-2.1-4.6-6.7-7.6-11.7-8-4.5-.4-8.8-.3-12.9 1.7-3.2 1.4-5.3 3.7-7.6 6.1v-6.8c-3-.3-6-.6-9-.8-.3 18-.2 35.9-.1 53.9h9c.1-10.4 0-20.9.1-31.3.1-5 1.6-9.8 5.9-12.8 3.5-2.5 8.3-2.5 12.4-1.8 4 .9 6.2 4.2 6.8 8.1 1 12.5-.5 25.3.8 37.9h8.5c.8-8.2.2-16.4.4-24.5zm115.3-9c.1-5.2-.9-10.4-4-14.6-2.9-3.9-7.9-5.8-12.6-6.3-8.2-1.1-16.9 1-22.3 7.6-2.6 2.9-3.2 6.3-3.8 10h9c.9-2.8 1.3-5.4 3.5-7.4 3-3 7.6-3.3 11.6-2.9 3.1.3 6 1.9 7.6 4.6 1.7 3 1.7 6.1 2 9.4-8.5 1.2-17.9 2.1-25.9 5.4-4.1 1.8-8.6 4.7-9.8 9.2-1.9 6 .4 12.7 5.6 16.3 5.5 3.5 12.3 3.9 18.5 2.9 4.8-.9 8.6-3.6 11.9-7.2.4 1.8 0 5 1.5 6.2 2.6.3 5.4.2 8.1.2-1.5-11.1-.9-22.2-.9-33.4zm-12 22.6c-3.8 4.5-10.2 5.4-15.7 4.7-4.1-.7-7.7-4-7.5-8.4-.1-3.6 3.2-6 6.2-7.3 6.7-2.6 13.8-3.5 20.9-3.4-.3 5.2-.3 10.3-3.9 14.4zm115.8-41c-5.1-2.7-10.5-2.6-16.1-2.1-6.6 1.1-12.8 4.8-16.4 10.5-4.8 7.2-5.5 16.7-3.7 25 1.5 7 5.9 13.3 12.2 16.8 8.2 4.4 18.6 4 26.5-.8 10.9-6.8 13.4-20.7 10.7-32.4-1.7-7.5-6.4-13.8-13.2-17zm.2 39.6c-5.1 6.5-15.5 7.3-21.7 1.9-4.8-4.1-5.9-10.1-6.1-16.1.1-5.2 1-10.6 4.4-14.7 2-2.6 4.8-4.3 8.1-4.9 4.3-.6 8.6-.4 12.2 2.1 4.1 2.8 6.2 7.3 7 12.1.8 7 .6 13.9-3.9 19.6zm66.6-33.5c-2.1-4.8-7-8.1-12.2-8.4-4.5-.3-8.8-.2-13 1.7-3.3 1.4-5.3 4-7.6 6.7.1-2.5.1-5 .1-7.4-3.1-.4-6-.4-9.1-.1 0 17.7-.1 35.5.1 53.2h8.9c.1-9.5 0-18.9 0-28.4 0-4.1.3-8.4 2.6-12 2-3 5.3-5.6 9-5.8 3.3-.2 7.2-.5 10 1.8 3.5 2.5 4.1 8 4.3 12 .1 10.8-.1 21.6.1 32.4h8.6c.6-8.4.2-16.9.3-25.4-.1-6.8.7-13.9-2.1-20.3zm-353.6-7.5c.1 10.3.1 20.5.1 30.8 0 5.4-2 11.9-7.1 14.5-5 2.4-10.1 1.3-14.9-1.2-2-4.5-2.7-8.3-2.8-13.2-.2-10.3 0-20.6-.1-30.9-3.1-.3-6-.3-9.1.1.1 10.9 0 21.8 0 32.8.2 6.1.7 12.6 5.2 17.2 4.9 5 13.3 5.4 19.6 3.4 4-1.3 6.8-3.8 9-7.3.1 2.4.3 4.8.6 7.2h8.6c.1-17.8.1-35.6 0-53.4-3.1-.4-6-.4-9.1 0zm238.8 0h-9c0 17.7-.1 35.5 0 53.2 2.4-.3 7.1.8 8.8-1 .4-3.4.2-7 .2-10.4V61.2z" class="st0"/></svg>