<svg id="Layer_1" data-name="Layer 1" xmlns="http://www.w3.org/2000/svg" viewBox="0 0 301.48 85.22"><defs><style>.cls-1{fill:#4d4d4f;}.cls-2{fill:#00aae7;}.cls-3{fill:#8a8c8e;}</style></defs><path class="cls-1" d="M28.23,76.86h2.95L27.63,94.75h-3Z" transform="translate(-8.3 -9.86)"/><path class="cls-1" d="M34.79,81.32h2.38L37,83.21h.11C38.56,82,40.07,81,41.77,81c2.24,0,3.17,1.23,3.17,3.4a8.06,8.06,0,0,1-.22,1.88L43,94.75H40.1l1.64-8.1A8.88,8.88,0,0,0,42,85.23a1.5,1.5,0,0,0-1.7-1.72c-.93,0-2,.63-3.39,2.08l-1.81,9.16h-3Z" transform="translate(-8.3 -9.86)"/><path class="cls-1" d="M48.55,81.46l1.78-.14.3-1.56c.54-2.73,2-4.65,4.73-4.65a5.63,5.63,0,0,1,2.65.68l-1,2.08a2.93,2.93,0,0,0-1.4-.41c-1.09,0-1.78.69-2.08,2.22l-.32,1.64h2.54l-.46,2.33H52.73l-2.18,11.1H47.62l2.21-11.1H48.11Z" transform="translate(-8.3 -9.86)"/><path class="cls-1" d="M55.8,89.61c0-5.14,3.72-8.62,7.38-8.62,3,0,5,2.11,5,5.47,0,5.12-3.72,8.62-7.42,8.62C57.79,95.08,55.8,93,55.8,89.61Zm9.43-3.07c0-2-.82-3.17-2.35-3.17-2.13,0-4.13,2.71-4.13,6.13,0,2,.82,3.2,2.38,3.2C63.26,92.7,65.23,90,65.23,86.54Z" transform="translate(-8.3 -9.86)"/><path class="cls-1" d="M72.75,81.32h2.38l-.24,2.6H75C76.06,82.25,77.54,81,79.15,81a3.11,3.11,0,0,1,1.34.25l-1,2.57a3,3,0,0,0-1.26-.22c-1.26,0-2.54,1-3.64,3L73,94.75h-3Z" transform="translate(-8.3 -9.86)"/><path class="cls-1" d="M83,81.32h2.38l-.14,1.89h.11C86.68,82,88.23,81,89.68,81a2.76,2.76,0,0,1,3.12,2.49C94.39,82,96,81,97.45,81c2.22,0,3.18,1.23,3.18,3.4a10.07,10.07,0,0,1-.22,1.88l-1.7,8.48H95.76l1.64-8.1a6.41,6.41,0,0,0,.22-1.42c0-1.15-.55-1.72-1.64-1.72-.69,0-1.84.63-3.2,2.08l-1.84,9.16H88l1.61-8.1a6.41,6.41,0,0,0,.22-1.42c0-1.15-.55-1.72-1.62-1.72-.71,0-1.85.63-3.19,2.08l-1.81,9.16h-3Z" transform="translate(-8.3 -9.86)"/><path class="cls-2" d="M112.25,76.86h3l-3.55,17.89h-3Z" transform="translate(-8.3 -9.86)"/><path class="cls-2" d="M122.89,79.38h-5l.5-2.52h12.85l-.49,2.52h-4.95l-3.06,15.37h-3Z" transform="translate(-8.3 -9.86)"/><path class="cls-2" d="M127.64,93.38A2.37,2.37,0,0,1,129.91,91a1.57,1.57,0,0,1,1.59,1.72,2.29,2.29,0,0,1-2.24,2.33A1.58,1.58,0,0,1,127.64,93.38Z" transform="translate(-8.3 -9.86)"/><path class="cls-1" d="M147.56,79.38h-5l.5-2.52H156l-.49,2.52h-5l-3.06,15.37h-3Z" transform="translate(-8.3 -9.86)"/><path class="cls-1" d="M155.84,81.32h2.38l-.24,2.6h.1c1.07-1.67,2.55-2.93,4.16-2.93a3.11,3.11,0,0,1,1.34.25l-1,2.57a3.05,3.05,0,0,0-1.26-.22c-1.26,0-2.54,1-3.64,3l-1.58,8.12h-3Z" transform="translate(-8.3 -9.86)"/><path class="cls-1" d="M163.45,90.18c0-5.14,3.5-9.19,7.22-9.19a3.49,3.49,0,0,1,3.09,1.89h.05l.58-1.56h2.35l-2.68,13.43h-2.41l.14-1.86h-.08a6.52,6.52,0,0,1-4.44,2.19C164.92,95.08,163.45,93.33,163.45,90.18Zm8.56.22L173.1,85a2.63,2.63,0,0,0-2.27-1.64c-2.27,0-4.35,2.93-4.35,6.37,0,2,.77,2.9,2,2.9A4.4,4.4,0,0,0,172,90.4Z" transform="translate(-8.3 -9.86)"/><path class="cls-1" d="M180.92,81.32h2.38l-.13,1.89h.1C184.7,82,186.2,81,187.9,81c2.24,0,3.17,1.23,3.17,3.4a7.56,7.56,0,0,1-.22,1.88l-1.7,8.48h-2.92l1.64-8.1a8.88,8.88,0,0,0,.22-1.42,1.5,1.5,0,0,0-1.7-1.72c-.93,0-2,.63-3.39,2.08l-1.8,9.16h-3Z" transform="translate(-8.3 -9.86)"/><path class="cls-1" d="M192.49,92.51l1.75-1.43a4,4,0,0,0,3.18,1.81c1.25,0,2.35-.77,2.35-1.75s-.71-1.31-2.41-2.24-2.87-2.11-2.87-3.72c0-2.44,2.22-4.19,4.89-4.19a5.75,5.75,0,0,1,4.22,1.92L202,84.47a3.64,3.64,0,0,0-2.58-1.26,1.92,1.92,0,0,0-2.13,1.69c0,1,1.15,1.45,2.3,2.11,2,1.07,3,2.13,3,3.78,0,2.59-2.24,4.29-5.33,4.29A6,6,0,0,1,192.49,92.51Z" transform="translate(-8.3 -9.86)"/><path class="cls-1" d="M206.25,81.46l1.78-.14.3-1.56c.54-2.73,2-4.65,4.73-4.65a5.63,5.63,0,0,1,2.65.68l-1,2.08a2.93,2.93,0,0,0-1.4-.41c-1.09,0-1.77.69-2.08,2.22l-.32,1.64h2.54L213,83.65h-2.57l-2.18,11.1h-2.93l2.21-11.1h-1.72Z" transform="translate(-8.3 -9.86)"/><path class="cls-1" d="M213.5,89.61c0-5.14,3.72-8.62,7.38-8.62,3,0,5,2.11,5,5.47,0,5.12-3.72,8.62-7.41,8.62C215.49,95.08,213.5,93,213.5,89.61Zm9.43-3.07c0-2-.82-3.17-2.35-3.17-2.13,0-4.13,2.71-4.13,6.13,0,2,.82,3.2,2.38,3.2C221,92.7,222.93,90,222.93,86.54Z" transform="translate(-8.3 -9.86)"/><path class="cls-1" d="M230.46,81.32h2.38l-.25,2.6h.11c1.06-1.67,2.54-2.93,4.15-2.93a3.11,3.11,0,0,1,1.34.25l-1,2.57a3,3,0,0,0-1.26-.22c-1.26,0-2.54,1-3.64,3l-1.58,8.12h-3Z" transform="translate(-8.3 -9.86)"/><path class="cls-1" d="M240.66,81.32H243l-.14,1.89H243c1.37-1.2,2.92-2.22,4.37-2.22a2.76,2.76,0,0,1,3.12,2.49c1.59-1.5,3.2-2.49,4.65-2.49,2.22,0,3.17,1.23,3.17,3.4a10,10,0,0,1-.21,1.88l-1.7,8.48h-3l1.64-8.1a7.06,7.06,0,0,0,.22-1.42c0-1.15-.55-1.72-1.65-1.72-.68,0-1.83.63-3.19,2.08l-1.84,9.16h-2.92l1.61-8.1a6.41,6.41,0,0,0,.22-1.42c0-1.15-.55-1.72-1.62-1.72-.71,0-1.86.63-3.2,2.08l-1.8,9.16h-3Z" transform="translate(-8.3 -9.86)"/><path class="cls-2" d="M269.89,76.86h3l-3.56,17.89h-3Z" transform="translate(-8.3 -9.86)"/><path class="cls-2" d="M280.53,79.38h-4.95l.5-2.52h12.85l-.49,2.52h-4.95l-3.07,15.37h-2.95Z" transform="translate(-8.3 -9.86)"/><path class="cls-2" d="M285.29,93.38A2.37,2.37,0,0,1,287.56,91a1.57,1.57,0,0,1,1.59,1.72,2.29,2.29,0,0,1-2.24,2.33A1.58,1.58,0,0,1,285.29,93.38Z" transform="translate(-8.3 -9.86)"/><path class="cls-1" d="M294.6,77v.26h.79v2h.3v-2h.8V77Zm4.25,0-.73,1.45L297.39,77h-.46v2.3h.3v-2l.82,1.58h.12l.84-1.59v2h.3V77Z" transform="translate(-8.3 -9.86)"/><path class="cls-2" d="M116.83,54.31l-25.55-.07a28.4,28.4,0,0,1-5.36-.43,8.85,8.85,0,0,1-3.67-1.53,6.46,6.46,0,0,1-2.14-3.06,15.66,15.66,0,0,1-.7-5.1v-24a16.12,16.12,0,0,1,.7-5.15,6.41,6.41,0,0,1,2.14-3.09,8.72,8.72,0,0,1,3.67-1.53,28.32,28.32,0,0,1,5.36-.44h14.41a27.06,27.06,0,0,1,5.28.44,7.64,7.64,0,0,1,3.44,1.53A6,6,0,0,1,116.29,15a19.33,19.33,0,0,1,.57,5.15V34.52H85v10.3c0,1.68.36,2.83,1.09,3.44s2.23.92,4.5.92h26.24Zm-5.56-35.24a4.74,4.74,0,0,0-.91-3.36c-.62-.61-2.09-.92-4.41-.92H90.76a15.33,15.33,0,0,0-2.88.22,4.35,4.35,0,0,0-1.79.7A2.23,2.23,0,0,0,85.22,17,8.33,8.33,0,0,0,85,19.15V29.54h26.27Z" transform="translate(-8.3 -9.86)"/><path class="cls-1" d="M230.23,54.31l-25.6-.07a28.44,28.44,0,0,1-5.37-.43,8.85,8.85,0,0,1-3.67-1.53,6.46,6.46,0,0,1-2.14-3.06,15.69,15.69,0,0,1-.69-5.1v-24a16.15,16.15,0,0,1,.69-5.15,6.41,6.41,0,0,1,2.14-3.09,8.72,8.72,0,0,1,3.67-1.53,28.36,28.36,0,0,1,5.37-.44H219a27.06,27.06,0,0,1,5.28.44,7.73,7.73,0,0,1,3.45,1.53A6,6,0,0,1,229.63,15a19.33,19.33,0,0,1,.57,5.15V34.52H198.34v10.3c0,1.68.36,2.83,1.09,3.44s2.23.92,4.5.92h26.3Zm-5.62-35.24a4.74,4.74,0,0,0-.91-3.36c-.61-.61-2.08-.92-4.41-.92H204.1a15.33,15.33,0,0,0-2.88.22,4.41,4.41,0,0,0-1.79.7,2.27,2.27,0,0,0-.87,1.31,8.33,8.33,0,0,0-.22,2.13V29.54h26.27Z" transform="translate(-8.3 -9.86)"/><path class="cls-2" d="M71.22,54.31S60,54.36,58,54.07a6,6,0,0,1-3.35-1.54,6.08,6.08,0,0,1-1.72-3.14,21.48,21.48,0,0,1-.49-5.07V9.9h5.65v35a10.62,10.62,0,0,0,.18,2.16A2.29,2.29,0,0,0,59,48.42a3,3,0,0,0,1.63.71c1.47.19,10.58.13,10.58.13Z" transform="translate(-8.3 -9.86)"/><path class="cls-1" d="M264.69,14.91h-10a14.66,14.66,0,0,0-2.8.16,3.52,3.52,0,0,0-1.63.71,2.29,2.29,0,0,0-.75,1.32,10.62,10.62,0,0,0-.18,2.16v35h-5.65V19.89a21.63,21.63,0,0,1,.49-5.08,5.82,5.82,0,0,1,5.07-4.68c2-.28,13.56-.23,13.56-.23h1.92Z" transform="translate(-8.3 -9.86)"/><path class="cls-2" d="M42.87,14.76H19c-3.4,0-4.23,1-4.23,4,0,2.19,0,10.56,0,10.56l21.73-.07v5.24H14.78V54.3H8.3V16.49c0-3.87,1-6.63,7.44-6.63H42.87Z" transform="translate(-8.3 -9.86)"/><path class="cls-1" d="M301.16,10,275.5,9.89l-.09,5.18s22.16.13,24.49.18a4.12,4.12,0,0,1,4,4.33c0,2.35,0,9.86,0,9.86h-24.5s-3.86,0-5.91,2.14a8.06,8.06,0,0,0-1.95,5.2s-.23,7-.08,8.71c.13,1.48-.07,5.45,4.08,7.59,2.4,1.24,8.2,1.26,8.2,1.26h26.07v-33C309.77,18.89,310.28,10,301.16,10Zm2.73,39.25H282.56c-2.39,0-4-.38-4.69-1.14a5.2,5.2,0,0,1-1.1-3.69V38.39a7.27,7.27,0,0,1,.18-1.81,2.23,2.23,0,0,1,.74-1.31,3.74,3.74,0,0,1,1.63-.71,14.89,14.89,0,0,1,2.81-.21h21.76Z" transform="translate(-8.3 -9.86)"/><polygon class="cls-3" points="175.28 0 164.34 0 150.32 13.01 155.87 18.15 175.28 0"/><polygon class="cls-1" points="155.77 22.82 150.32 27.76 168.75 44.46 178.41 44.46 155.77 22.82"/><polygon class="cls-2" points="131.34 0 120.41 0 140.99 19.24 152.08 19.24 131.34 0"/><polygon class="cls-2" points="117.27 44.46 126.94 44.46 151.98 21.75 141.03 21.75 117.27 44.46"/></svg>