<?xml version="1.0" encoding="UTF-8" standalone="no"?>
<svg
   xmlns:dc="http://purl.org/dc/elements/1.1/"
   xmlns:cc="http://creativecommons.org/ns#"
   xmlns:rdf="http://www.w3.org/1999/02/22-rdf-syntax-ns#"
   xmlns:svg="http://www.w3.org/2000/svg"
   xmlns="http://www.w3.org/2000/svg"
   xmlns:sodipodi="http://sodipodi.sourceforge.net/DTD/sodipodi-0.dtd"
   xmlns:inkscape="http://www.inkscape.org/namespaces/inkscape"
   inkscape:version="1.0beta1 (fe3e306, 2019-09-17)"
   sodipodi:docname="gaiandb.svg"
   version="1.1"
   id="Layer_1"
   x="0px"
   y="0px"
   viewBox="0 0 400 245"
   style="enable-background:new 0 0 400 245;"
   xml:space="preserve">
  <sodipodi:namedview
     inkscape:document-rotation="0"
     inkscape:current-layer="text34"
     inkscape:window-maximized="0"
     inkscape:window-y="23"
     inkscape:window-x="57"
     inkscape:cy="-20"
     inkscape:cx="241.42857"
     inkscape:zoom="0.7"
     showgrid="false"
     id="namedview61"
     inkscape:window-height="907"
     inkscape:window-width="1600"
     inkscape:pageshadow="2"
     inkscape:pageopacity="0"
     guidetolerance="10"
     gridtolerance="10"
     objecttolerance="10"
     borderopacity="1"
     bordercolor="#666666"
     pagecolor="#ffffff" />
  <metadata
     id="metadata63">
    <rdf:RDF>
      <cc:Work
         rdf:about="">
        <dc:format>image/svg+xml</dc:format>
        <dc:type
           rdf:resource="http://purl.org/dc/dcmitype/StillImage" />
        <dc:title></dc:title>
      </cc:Work>
    </rdf:RDF>
  </metadata>
  <defs
     id="defs61" />
  <style
     type="text/css"
     id="style2">
	.st0{fill-rule:evenodd;clip-rule:evenodd;fill:#CF4044;}
	.st1{fill:#000F9F;}
	.st2{fill:#CC092F;}
	.st3{fill:#4C83C3;}
	.st4{font-family:'HelveticaNeue-Light';}
	.st5{font-size:26.8184px;}
</style>
  <g
     id="g56">
    <path
       class="st3"
       d="m 397.3,14 h -65.7 l 4.1,-11.3 h 61.6 z M 222.1,2.7 h 61 l 4,11.4 h -65 c 0.1,-0.1 0,-11.4 0,-11.4 z m -48.3,0 c 10,1 18.8,4.6 26.3,11.4 H 89.5 V 2.7 Z"
       id="path12"
       style="fill:#4c83c3" />
    <path
       class="st3"
       d="M 2.7,2.7 H 79.5 V 14 H 2.7 Z"
       id="path14"
       style="fill:#4c83c3" />
    <path
       class="st3"
       d="m 397.3,35.3 h -73.2 l 4,-11.3 h 69.3 v 11.3 z m -102.5,0 H 222.2 V 24 h 68.6 z M 208.6,24 c 1.5,3.8 3.2,6.9 3.2,11.3 H 89.5 V 24 Z"
       id="path16"
       style="fill:#4c83c3" />
    <path
       class="st3"
       d="M 2.7,24 H 79.5 V 35.3 H 2.7 Z"
       id="path18"
       style="fill:#4c83c3" />
    <path
       class="st3"
       d="m 316.6,56.6 4.1,-11.3 h 55 v 11.3 z m -18.4,-11.3 4.1,11.3 H 243.8 V 45.3 Z m -85.5,-0.1 c 0,3.9 -0.5,7.9 -1.6,11.3 H 177.6 V 45.2 Z"
       id="path20"
       style="fill:#4c83c3" />
    <path
       class="st3"
       d="m 24.1,45.3 h 33 v 11.3 h -33 z"
       id="path22"
       style="fill:#4c83c3" />
    <path
       class="st3"
       d="m 111.7,45.2 h 33 v 11.3 h -33 z"
       id="path24"
       style="fill:#4c83c3" />
    <path
       class="st3"
       d="m 276.2,68.8 v 8.6 H 243.7 V 66.2 h 61.8 l 3.9,10.5 3.7,-10.5 h 62.3 v 11.3 h -32.3 v -8.6 l -3,8.6 h -61 z M 111.7,66.2 h 94.6 c -2.1,3.8 -5.8,8.3 -9.4,11.3 h -85.2 z"
       id="path26"
       style="fill:#4c83c3" />
    <path
       class="st3"
       d="m 24.1,66.2 h 33 v 11.3 h -33 z"
       id="path28"
       style="fill:#4c83c3" />
    <path
       class="st3"
       d="m 343.3,87.5 h 32.3 v 11.3 h -32.3 z"
       id="path30"
       style="fill:#4c83c3" />
    <path
       class="st3"
       d="m 276.2,87.5 h -32.5 v 11.3 h 32.5 c 0,-0.2 0.1,-11.3 0,-11.3 z m 60.6,0 c -0.1,0 -3.8,11.3 -4,11.3 h -46 l -4.1,-11.3 z m -225.1,0 h 85 c 3.9,3.3 7.4,7.2 10.1,11.3 h -95.2 c 0.1,-0.2 0.1,-11.3 0.1,-11.3 z M 57.1,98.6 V 87.4 H 24.2 v 11.3 h 32.9 z"
       id="path32"
       style="fill:#4c83c3" />
    <path
       class="st3"
       d="m 343.3,108.7 h 32.3 V 120 h -32.3 z"
       id="path34"
       style="fill:#4c83c3" />
    <path
       class="st3"
       d="m 243.8,108.7 h 32.5 V 120 h -32.5 z"
       id="path36"
       style="fill:#4c83c3" />
    <path
       class="st3"
       d="m 325.3,119.9 c 0,-0.1 4,-11.3 4.1,-11.3 h -39.1 c -0.1,0 4,11.3 4,11.3 0,0 31,0.1 31,0 z m -213.6,0 v -11.3 h 33.5 v 11.3 z m 99.8,-11.2 c 1.6,3.4 1.8,7.4 2.1,11.3 h -35.5 v -11.3 z"
       id="path38"
       style="fill:#4c83c3" />
    <path
       class="st3"
       d="m 24.2,108.7 h 33 V 120 h -33 z"
       id="path40"
       style="fill:#4c83c3" />
    <path
       class="st3"
       d="m 343.3,129.5 h 54 v 11.3 h -54 z"
       id="path42"
       style="fill:#4c83c3" />
    <path
       class="st3"
       d="m 222.1,129.5 h 54.1 v 11.3 h -54.1 z"
       id="path44"
       style="fill:#4c83c3" />
    <path
       class="st3"
       d="m 317.9,140.8 h -16.4 l -4,-11.3 h 24.3 z M 2.7,129.5 v 11.3 h 76.8 v -11.3 z m 209.5,0 c -0.8,3.8 -1.6,8.2 -4.3,11.3 H 89.5 v -11.3 z m 98.3,32.6 H 309 l -3.9,-11.3 h 9.3 z"
       id="path46"
       style="fill:#4c83c3" />
    <path
       class="st3"
       d="m 343.3,150.8 h 54 v 11.3 h -54 z"
       id="path48"
       style="fill:#4c83c3" />
    <path
       class="st3"
       d="m 89.5,162.1 v -11.3 h 111.2 c -7.4,7.1 -17.6,11.1 -28.6,11.3 H 89.5"
       id="path50"
       style="fill:#4c83c3" />
    <path
       class="st3"
       d="m 222.1,150.8 h 54.1 v 11.3 h -54.1 z"
       id="path52"
       style="fill:#4c83c3" />
    <path
       class="st3"
       d="m 79.5,150.8 v 11.3 H 2.7 v -11.3 c 0,0 76.7,0.1 76.8,0 z"
       id="path54"
       style="fill:#4c83c3" />
  </g>
  <g
     id="text34"
     style="font-style:normal;font-weight:normal;font-size:40px;line-height:1.25;font-family:sans-serif;letter-spacing:0px;word-spacing:0px;fill:#000000;fill-opacity:1;stroke:none"
     aria-label="Service Automation Suite">
    <g
       transform="translate(17.142857,-2.8571429)"
       style="font-style:normal;font-weight:normal;font-size:40px;line-height:1.25;font-family:sans-serif;fill:#000000;fill-opacity:1;stroke:none"
       id="text168"
       aria-label="GaianDB">
      <path
         d="m 113.21484,193.24805 c -4.73958,0 -8.47005,1.34765 -11.1914,4.04297 -2.708335,2.68229 -4.062502,6.34766 -4.062502,10.99609 0,2.53907 0.364583,4.75912 1.09375,6.66016 0.729165,1.88802 1.764322,3.46354 3.105472,4.72656 1.32812,1.25 2.9362,2.1875 4.82422,2.8125 1.88802,0.625 3.96484,0.9375 6.23046,0.9375 1.75782,0 3.57422,-0.26693 5.44922,-0.80078 1.88802,-0.54688 3.62631,-1.1849 5.21485,-1.91407 v -12.48046 h -11.6211 v 3.39843 h 7.79297 v 7.12891 c -0.9375,0.39063 -2.03125,0.70963 -3.28125,0.95703 -1.23697,0.24739 -2.48047,0.37109 -3.73047,0.37109 -3.41146,0 -6.10677,-1.04166 -8.08594,-3.125 -1.97916,-2.09635 -2.96875,-5.02604 -2.96874,-8.78906 0,-3.56771 0.94401,-6.39323 2.83203,-8.47656 1.90104,-2.09635 4.47916,-3.14453 7.73437,-3.14453 1.44531,0 2.73438,0.13671 3.86719,0.41015 1.14583,0.26042 2.16797,0.59245 3.06641,0.9961 0.74218,0.33854 1.49739,0.76172 2.26562,1.26953 0.76823,0.50781 1.35417,0.91797 1.75781,1.23047 h 0.35157 v -4.58985 c -1.99219,-0.95052 -3.85417,-1.62109 -5.58594,-2.01171 -1.71875,-0.40365 -3.40495,-0.60547 -5.0586,-0.60547 z m 40.9961,0.33203 v 3.80859 h 4.14062 v -3.80859 z m 60.8789,0.19531 v 29.08203 h 7.34375 c 2.66927,0 4.81771,-0.18229 6.44532,-0.54687 1.64062,-0.36458 3.125,-0.95703 4.45312,-1.77735 1.91407,-1.1849 3.44401,-2.85156 4.58985,-5 1.15885,-2.14844 1.73828,-4.54427 1.73828,-7.1875 0,-2.82552 -0.55339,-5.26692 -1.66016,-7.32422 -1.10677,-2.05729 -2.64974,-3.70442 -4.62891,-4.9414 -1.15885,-0.71615 -2.57812,-1.27605 -4.25781,-1.67969 -1.66667,-0.41667 -3.91927,-0.625 -6.75781,-0.625 z m 30.85938,0 v 29.08203 h 10.3125 c 2.01823,0 3.67839,-0.18229 4.98047,-0.54687 1.3151,-0.36458 2.51953,-0.97656 3.61328,-1.83594 0.92448,-0.71614 1.66016,-1.6276 2.20703,-2.73438 0.54688,-1.10677 0.82031,-2.38281 0.82031,-3.82812 0,-2.01823 -0.5664,-3.68489 -1.69922,-5 -1.13281,-1.32812 -2.68229,-2.19401 -4.64843,-2.59766 v -0.15625 c 1.17187,-0.58594 2.10937,-1.36068 2.8125,-2.32422 0.70312,-0.97656 1.05468,-2.15494 1.05468,-3.53515 0,-1.22396 -0.24088,-2.27213 -0.72265,-3.14453 -0.48178,-0.88542 -1.25651,-1.60807 -2.32422,-2.16797 -0.96354,-0.49479 -1.97266,-0.82031 -3.02735,-0.97656 -1.05468,-0.15625 -2.64322,-0.23438 -4.76562,-0.23438 z m 3.86719,3.30078 h 4.60937 c 1.28907,0 2.3698,0.0456 3.24219,0.13672 0.8724,0.0781 1.61459,0.29297 2.22656,0.64453 0.52083,0.29948 0.89843,0.69011 1.13281,1.17188 0.23438,0.48177 0.35157,1.07421 0.35157,1.77734 0,0.84635 -0.13021,1.58203 -0.39063,2.20703 -0.24739,0.61198 -0.67708,1.11329 -1.28906,1.50391 -0.61198,0.39062 -1.27604,0.65104 -1.99219,0.78125 -0.71614,0.11718 -1.67968,0.17578 -2.89062,0.17578 h -5 z m -30.85938,0.0195 h 3.63281 c 1.79688,0 3.33985,0.13021 4.62891,0.39063 1.28907,0.2474 2.50651,0.69661 3.65234,1.34765 1.57552,0.89844 2.76042,2.12891 3.55469,3.69141 0.79427,1.5625 1.19141,3.48308 1.19141,5.76172 0,2.26563 -0.36459,4.15364 -1.09375,5.66406 -0.71615,1.51042 -1.79688,2.72787 -3.24219,3.65235 -1.15885,0.74218 -2.4349,1.24999 -3.82813,1.52343 -1.3802,0.27344 -3.0013,0.41016 -4.86328,0.41016 h -3.63281 z m -18.47656,3.33985 c -1.28906,0 -2.54557,0.26692 -3.76953,0.80078 -1.22396,0.53385 -2.40886,1.27603 -3.55469,2.22656 v -2.42187 h -3.67187 v 21.8164 h 3.67187 v -16.28906 c 1.00261,-0.76823 2.05078,-1.39974 3.14453,-1.89453 1.09375,-0.49479 2.14193,-0.74219 3.14453,-0.74219 0.97656,0 1.77084,0.13672 2.38281,0.41016 0.61198,0.26042 1.08073,0.66406 1.40626,1.21093 0.31249,0.4948 0.52734,1.1849 0.64453,2.07032 0.11718,0.8724 0.17578,1.8099 0.17578,2.8125 v 12.42187 h 3.67187 v -14.16015 c 0,-2.66928 -0.61849,-4.71355 -1.85547,-6.13282 -1.23698,-1.41927 -3.03385,-2.1289 -5.39062,-2.1289 z m -62.67578,0.0781 c -1.31511,0 -2.64974,0.11719 -4.00391,0.35156 -1.35417,0.23438 -2.38933,0.44922 -3.10547,0.64454 v 3.73046 h 0.19531 c 1.26302,-0.48177 2.48699,-0.84635 3.67188,-1.09375 1.1849,-0.26042 2.25912,-0.39062 3.22266,-0.39062 0.79427,0 1.55599,0.0521 2.28515,0.15625 0.72917,0.10417 1.35417,0.30599 1.875,0.60547 0.54688,0.3125 0.96354,0.74218 1.25,1.28906 0.29948,0.54687 0.44922,1.23698 0.44922,2.07031 v 0.56641 c -2.13541,0.10417 -4.13411,0.26042 -5.99609,0.46875 -1.86198,0.20833 -3.45703,0.60547 -4.78516,1.19141 -1.3151,0.58594 -2.33073,1.39322 -3.04687,2.42187 -0.70313,1.01562 -1.05469,2.35026 -1.05469,4.00391 0,2.01823 0.68359,3.67839 2.05078,4.98047 1.36719,1.30208 3.03385,1.95312 5,1.95312 1.06771,0 1.9987,-0.10417 2.79297,-0.3125 0.79427,-0.19531 1.49739,-0.44271 2.10937,-0.74219 0.52084,-0.23437 1.05469,-0.54687 1.60157,-0.9375 0.55989,-0.40364 1.0026,-0.71614 1.32812,-0.9375 v 2.32422 h 3.65235 v -14.80469 c 0,-1.40625 -0.21485,-2.58463 -0.64454,-3.53515 -0.42968,-0.95052 -1.05468,-1.72526 -1.875,-2.32422 -0.83333,-0.61197 -1.82291,-1.04166 -2.96875,-1.28906 -1.13281,-0.26042 -2.46744,-0.39063 -4.0039,-0.39063 z m 35.07812,0 c -1.3151,0 -2.64974,0.11719 -4.0039,0.35156 -1.35417,0.23438 -2.38933,0.44922 -3.10547,0.64454 v 3.73046 h 0.19531 c 1.26302,-0.48177 2.48698,-0.84635 3.67187,-1.09375 1.1849,-0.26042 2.25912,-0.39062 3.22266,-0.39062 0.79427,0 1.55599,0.0521 2.28516,0.15625 0.72916,0.10417 1.35416,0.30599 1.875,0.60547 0.54687,0.3125 0.96354,0.74218 1.25,1.28906 0.29948,0.54687 0.44922,1.23698 0.44922,2.07031 v 0.56641 c -2.13542,0.10417 -4.13412,0.26042 -5.9961,0.46875 -1.86198,0.20833 -3.45703,0.60547 -4.78515,1.19141 -1.31511,0.58594 -2.33073,1.39322 -3.04688,2.42187 -0.70312,1.01562 -1.05469,2.35026 -1.05469,4.00391 0,2.01823 0.6836,3.67839 2.05078,4.98047 1.36719,1.30208 3.03386,1.95312 5,1.95312 1.06771,0 1.9987,-0.10417 2.79297,-0.3125 0.79427,-0.19531 1.4974,-0.44271 2.10938,-0.74219 0.52083,-0.23437 1.05469,-0.54687 1.60156,-0.9375 0.5599,-0.40364 1.00261,-0.71614 1.32813,-0.9375 v 2.32422 h 3.65234 v -14.80469 c 0,-1.40625 -0.21484,-2.58463 -0.64453,-3.53515 -0.42969,-0.95052 -1.05469,-1.72526 -1.875,-2.32422 -0.83333,-0.61197 -1.82292,-1.04166 -2.96875,-1.28906 -1.13281,-0.26042 -2.46745,-0.39063 -4.00391,-0.39063 z m -18.4375,0.52735 v 21.8164 h 3.67188 v -21.8164 z m 95.3711,7.69531 h 6.07421 c 1.27604,0 2.35677,0.0521 3.24219,0.15625 0.89844,0.0911 1.66016,0.29948 2.28516,0.625 0.92448,0.48177 1.5625,1.0677 1.91406,1.75781 0.35157,0.6901 0.52735,1.6211 0.52735,2.79297 -10e-6,1.02865 -0.16928,1.86848 -0.50782,2.51953 -0.33854,0.65104 -0.87239,1.23047 -1.60156,1.73828 -0.6901,0.46875 -1.57552,0.79427 -2.65625,0.97656 -1.08073,0.16928 -2.46745,0.25391 -4.16016,0.25391 h -5.11718 z m -106.17188,2.67578 v 6.07422 c -0.91145,0.70312 -1.90104,1.30859 -2.96875,1.8164 -1.06771,0.4948 -2.24609,0.74219 -3.53516,0.74219 -1.54947,0 -2.70182,-0.3125 -3.45703,-0.9375 -0.75521,-0.63802 -1.13281,-1.58203 -1.13281,-2.83203 0,-1.10677 0.32552,-1.97266 0.97656,-2.59766 0.65104,-0.63802 1.50391,-1.10677 2.5586,-1.40625 0.88542,-0.24739 2.08333,-0.43619 3.59375,-0.5664 1.52344,-0.13018 2.84505,-0.22784 3.96484,-0.29297 z m 35.07813,0 v 6.07422 c -0.91146,0.70312 -1.90105,1.30859 -2.96875,1.8164 -1.06771,0.4948 -2.24609,0.74219 -3.53516,0.74219 -1.54948,0 -2.70182,-0.3125 -3.45703,-0.9375 -0.75521,-0.63802 -1.13281,-1.58203 -1.13281,-2.83203 0,-1.10677 0.32552,-1.97266 0.97656,-2.59766 0.65104,-0.63802 1.5039,-1.10677 2.55859,-1.40625 0.88542,-0.24739 2.08333,-0.43619 3.59375,-0.5664 1.52344,-0.13018 2.84505,-0.22784 3.96485,-0.29297 z"
         inkscape:original="M 113.21484 193.24805 C 108.47526 193.24805 104.74479 194.5957 102.02344 197.29102 C 99.315105 199.97331 97.960938 203.63868 97.960938 208.28711 C 97.960938 210.82618 98.325521 213.04623 99.054688 214.94727 C 99.783853 216.83529 100.81901 218.41081 102.16016 219.67383 C 103.48828 220.92383 105.09636 221.86133 106.98438 222.48633 C 108.8724 223.11133 110.94922 223.42383 113.21484 223.42383 C 114.97266 223.42383 116.78906 223.1569 118.66406 222.62305 C 120.55208 222.07617 122.29037 221.43815 123.87891 220.70898 L 123.87891 208.22852 L 112.25781 208.22852 L 112.25781 211.62695 L 120.05078 211.62695 L 120.05078 218.75586 C 119.11328 219.14649 118.01953 219.46549 116.76953 219.71289 C 115.53256 219.96028 114.28906 220.08398 113.03906 220.08398 C 109.6276 220.08398 106.93229 219.04232 104.95312 216.95898 C 102.97396 214.86263 101.98437 211.93294 101.98438 208.16992 C 101.98438 204.60221 102.92839 201.77669 104.81641 199.69336 C 106.71745 197.59701 109.29557 196.54883 112.55078 196.54883 C 113.99609 196.54883 115.28516 196.68554 116.41797 196.95898 C 117.5638 197.2194 118.58594 197.55143 119.48438 197.95508 C 120.22656 198.29362 120.98177 198.7168 121.75 199.22461 C 122.51823 199.73242 123.10417 200.14258 123.50781 200.45508 L 123.85938 200.45508 L 123.85938 195.86523 C 121.86719 194.91471 120.00521 194.24414 118.27344 193.85352 C 116.55469 193.44987 114.86849 193.24805 113.21484 193.24805 z M 154.21094 193.58008 L 154.21094 197.38867 L 158.35156 197.38867 L 158.35156 193.58008 L 154.21094 193.58008 z M 215.08984 193.77539 L 215.08984 222.85742 L 222.43359 222.85742 C 225.10286 222.85742 227.2513 222.67513 228.87891 222.31055 C 230.51953 221.94597 232.00391 221.35352 233.33203 220.5332 C 235.2461 219.3483 236.77604 217.68164 237.92188 215.5332 C 239.08073 213.38476 239.66016 210.98893 239.66016 208.3457 C 239.66016 205.52018 239.10677 203.07878 238 201.02148 C 236.89323 198.96419 235.35026 197.31706 233.37109 196.08008 C 232.21224 195.36393 230.79297 194.80403 229.11328 194.40039 C 227.44661 193.98372 225.19401 193.77539 222.35547 193.77539 L 215.08984 193.77539 z M 245.94922 193.77539 L 245.94922 222.85742 L 256.26172 222.85742 C 258.27995 222.85742 259.94011 222.67513 261.24219 222.31055 C 262.55729 221.94597 263.76172 221.33399 264.85547 220.47461 C 265.77995 219.75847 266.51563 218.84701 267.0625 217.74023 C 267.60938 216.63346 267.88281 215.35742 267.88281 213.91211 C 267.88281 211.89388 267.31641 210.22722 266.18359 208.91211 C 265.05078 207.58399 263.5013 206.7181 261.53516 206.31445 L 261.53516 206.1582 C 262.70703 205.57226 263.64453 204.79752 264.34766 203.83398 C 265.05078 202.85742 265.40234 201.67904 265.40234 200.29883 C 265.40234 199.07487 265.16146 198.0267 264.67969 197.1543 C 264.19791 196.26888 263.42318 195.54623 262.35547 194.98633 C 261.39193 194.49154 260.38281 194.16602 259.32812 194.00977 C 258.27344 193.85352 256.6849 193.77539 254.5625 193.77539 L 245.94922 193.77539 z M 249.81641 197.07617 L 254.42578 197.07617 C 255.71485 197.07617 256.79558 197.12174 257.66797 197.21289 C 258.54037 197.29101 259.28256 197.50586 259.89453 197.85742 C 260.41536 198.1569 260.79296 198.54753 261.02734 199.0293 C 261.26172 199.51107 261.37891 200.10351 261.37891 200.80664 C 261.37891 201.65299 261.2487 202.38867 260.98828 203.01367 C 260.74089 203.62565 260.3112 204.12696 259.69922 204.51758 C 259.08724 204.9082 258.42318 205.16862 257.70703 205.29883 C 256.99089 205.41601 256.02735 205.47461 254.81641 205.47461 L 249.81641 205.47461 L 249.81641 197.07617 z M 218.95703 197.0957 L 222.58984 197.0957 C 224.38672 197.0957 225.92969 197.22591 227.21875 197.48633 C 228.50782 197.73373 229.72526 198.18294 230.87109 198.83398 C 232.44661 199.73242 233.63151 200.96289 234.42578 202.52539 C 235.22005 204.08789 235.61719 206.00847 235.61719 208.28711 C 235.61719 210.55274 235.2526 212.44075 234.52344 213.95117 C 233.80729 215.46159 232.72656 216.67904 231.28125 217.60352 C 230.1224 218.3457 228.84635 218.85351 227.45312 219.12695 C 226.07292 219.40039 224.45182 219.53711 222.58984 219.53711 L 218.95703 219.53711 L 218.95703 197.0957 z M 200.48047 200.43555 C 199.19141 200.43555 197.9349 200.70247 196.71094 201.23633 C 195.48698 201.77018 194.30208 202.51236 193.15625 203.46289 L 193.15625 201.04102 L 189.48438 201.04102 L 189.48438 222.85742 L 193.15625 222.85742 L 193.15625 206.56836 C 194.15886 205.80013 195.20703 205.16862 196.30078 204.67383 C 197.39453 204.17904 198.44271 203.93164 199.44531 203.93164 C 200.42187 203.93164 201.21615 204.06836 201.82812 204.3418 C 202.4401 204.60222 202.90885 205.00586 203.23438 205.55273 C 203.54687 206.04753 203.76172 206.73763 203.87891 207.62305 C 203.99609 208.49545 204.05469 209.43295 204.05469 210.43555 L 204.05469 222.85742 L 207.72656 222.85742 L 207.72656 208.69727 C 207.72656 206.02799 207.10807 203.98372 205.87109 202.56445 C 204.63411 201.14518 202.83724 200.43555 200.48047 200.43555 z M 137.80469 200.51367 C 136.48958 200.51367 135.15495 200.63086 133.80078 200.86523 C 132.44661 201.09961 131.41145 201.31445 130.69531 201.50977 L 130.69531 205.24023 L 130.89062 205.24023 C 132.15364 204.75846 133.37761 204.39388 134.5625 204.14648 C 135.7474 203.88606 136.82162 203.75586 137.78516 203.75586 C 138.57943 203.75586 139.34115 203.80794 140.07031 203.91211 C 140.79948 204.01628 141.42448 204.2181 141.94531 204.51758 C 142.49219 204.83008 142.90885 205.25976 143.19531 205.80664 C 143.49479 206.35351 143.64453 207.04362 143.64453 207.87695 L 143.64453 208.44336 C 141.50912 208.54753 139.51042 208.70378 137.64844 208.91211 C 135.78646 209.12044 134.19141 209.51758 132.86328 210.10352 C 131.54818 210.68946 130.53255 211.49674 129.81641 212.52539 C 129.11328 213.54101 128.76172 214.87565 128.76172 216.5293 C 128.76172 218.54753 129.44531 220.20769 130.8125 221.50977 C 132.17969 222.81185 133.84635 223.46289 135.8125 223.46289 C 136.88021 223.46289 137.8112 223.35872 138.60547 223.15039 C 139.39974 222.95508 140.10286 222.70768 140.71484 222.4082 C 141.23568 222.17383 141.76953 221.86133 142.31641 221.4707 C 142.8763 221.06706 143.31901 220.75456 143.64453 220.5332 L 143.64453 222.85742 L 147.29688 222.85742 L 147.29688 208.05273 C 147.29688 206.64648 147.08203 205.4681 146.65234 204.51758 C 146.22266 203.56706 145.59766 202.79232 144.77734 202.19336 C 143.94401 201.58139 142.95443 201.1517 141.80859 200.9043 C 140.67578 200.64388 139.34115 200.51367 137.80469 200.51367 z M 172.88281 200.51367 C 171.56771 200.51367 170.23307 200.63086 168.87891 200.86523 C 167.52474 201.09961 166.48958 201.31445 165.77344 201.50977 L 165.77344 205.24023 L 165.96875 205.24023 C 167.23177 204.75846 168.45573 204.39388 169.64062 204.14648 C 170.82552 203.88606 171.89974 203.75586 172.86328 203.75586 C 173.65755 203.75586 174.41927 203.80794 175.14844 203.91211 C 175.8776 204.01628 176.5026 204.2181 177.02344 204.51758 C 177.57031 204.83008 177.98698 205.25976 178.27344 205.80664 C 178.57292 206.35351 178.72266 207.04362 178.72266 207.87695 L 178.72266 208.44336 C 176.58724 208.54753 174.58854 208.70378 172.72656 208.91211 C 170.86458 209.12044 169.26953 209.51758 167.94141 210.10352 C 166.6263 210.68946 165.61068 211.49674 164.89453 212.52539 C 164.19141 213.54101 163.83984 214.87565 163.83984 216.5293 C 163.83984 218.54753 164.52344 220.20769 165.89062 221.50977 C 167.25781 222.81185 168.92448 223.46289 170.89062 223.46289 C 171.95833 223.46289 172.88932 223.35872 173.68359 223.15039 C 174.47786 222.95508 175.18099 222.70768 175.79297 222.4082 C 176.3138 222.17383 176.84766 221.86133 177.39453 221.4707 C 177.95443 221.06706 178.39714 220.75456 178.72266 220.5332 L 178.72266 222.85742 L 182.375 222.85742 L 182.375 208.05273 C 182.375 206.64648 182.16016 205.4681 181.73047 204.51758 C 181.30078 203.56706 180.67578 202.79232 179.85547 202.19336 C 179.02214 201.58139 178.03255 201.1517 176.88672 200.9043 C 175.75391 200.64388 174.41927 200.51367 172.88281 200.51367 z M 154.44531 201.04102 L 154.44531 222.85742 L 158.11719 222.85742 L 158.11719 201.04102 L 154.44531 201.04102 z M 249.81641 208.73633 L 255.89062 208.73633 C 257.16666 208.73633 258.24739 208.78841 259.13281 208.89258 C 260.03125 208.98372 260.79297 209.19206 261.41797 209.51758 C 262.34245 209.99935 262.98047 210.58528 263.33203 211.27539 C 263.6836 211.96549 263.85938 212.89649 263.85938 214.06836 C 263.85937 215.09701 263.6901 215.93684 263.35156 216.58789 C 263.01302 217.23893 262.47917 217.81836 261.75 218.32617 C 261.0599 218.79492 260.17448 219.12044 259.09375 219.30273 C 258.01302 219.47201 256.6263 219.55664 254.93359 219.55664 L 249.81641 219.55664 L 249.81641 208.73633 z M 143.64453 211.41211 L 143.64453 217.48633 C 142.73308 218.18945 141.74349 218.79492 140.67578 219.30273 C 139.60807 219.79753 138.42969 220.04492 137.14062 220.04492 C 135.59115 220.04492 134.4388 219.73242 133.68359 219.10742 C 132.92838 218.4694 132.55078 217.52539 132.55078 216.27539 C 132.55078 215.16862 132.8763 214.30273 133.52734 213.67773 C 134.17838 213.03971 135.03125 212.57096 136.08594 212.27148 C 136.97136 212.02409 138.16927 211.83529 139.67969 211.70508 C 141.20313 211.5749 142.52474 211.47724 143.64453 211.41211 z M 178.72266 211.41211 L 178.72266 217.48633 C 177.8112 218.18945 176.82161 218.79492 175.75391 219.30273 C 174.6862 219.79753 173.50782 220.04492 172.21875 220.04492 C 170.66927 220.04492 169.51693 219.73242 168.76172 219.10742 C 168.00651 218.4694 167.62891 217.52539 167.62891 216.27539 C 167.62891 215.16862 167.95443 214.30273 168.60547 213.67773 C 169.25651 213.03971 170.10937 212.57096 171.16406 212.27148 C 172.04948 212.02409 173.24739 211.83529 174.75781 211.70508 C 176.28125 211.5749 177.60286 211.47724 178.72266 211.41211 z "
         inkscape:radius="0"
         sodipodi:type="inkscape:offset"
         id="path182" />
    </g>
  </g>
</svg>
