<?xml version="1.0" encoding="UTF-8"?>
<svg id="Layer_1" data-name="Layer 1" xmlns="http://www.w3.org/2000/svg" viewBox="0 0 468.0585699 128.0859412">
  <defs>
    <style>
      .cls-1 {
        fill: #2a7de1;
      }

      .cls-1, .cls-2 {
        stroke-width: 0px;
      }

      .cls-2 {
        fill: #0033a1;
      }
    </style>
  </defs>
  <path class="cls-1" d="m377.1451563,19.4456471h4.0340115c1.2677075-.0851341,2.5244646.2824463,3.5464939,1.037281.8256484.7018749,1.2801126,1.7462641,1.2309366,2.8288095.0486912,1.096719-.4089249,2.1550596-1.2413213,2.8707955-1.0490216.7751553-2.3402059,1.150499-3.6412901,1.0584934h-2.7972158v6.841607h-1.1316147v-14.6369865Zm1.1316147.9429406v5.9090869h2.7240781c.9903094.0686954,1.9741535-.2049158,2.7868311-.7750215.6457942-.5383719.9994011-1.3501289.9537809-2.1896643.0350334-.8211714-.308714-1.613003-.9325669-2.1481278-.7663705-.5770691-1.7145347-.8596388-2.6717502-.7962329l-2.8603729-.0000404Z"/>
  <path class="cls-1" d="m389.8208575,19.4456471h3.7509967c1.2834261-.0865992,2.5571543.27439,3.6042767,1.0214848.8275476.6722448,1.2896084,1.695384,1.246736,2.7606987.0054954,1.6886391-1.1465251,3.1612245-2.7868311,3.5623204.8110209.5859442,1.4775037,1.3493864,1.9486159,2.2320878l3.3108772,5.0604465h-1.3392694l-2.5498405-4.0114338c-.5209751-.9403769-1.1931555-1.7885804-1.98967-2.5105946-.6289442-.3718067-1.3554324-.5453106-2.0845066-.4978531h-1.9797702v7.0199068h-1.1316147v-14.6370635Zm1.1316147.9429406v5.7311975h2.4307189c1.0012194.066252,1.9965797-.1968999,2.8342292-.7492945.6554516-.503144,1.0217869-1.2962504.979965-2.1214878.0367709-.8235112-.3359488-1.6119487-.995724-2.106155-.8462967-.5549339-1.8501022-.8196611-2.8600092-.7542602h-2.3891799Z"/>
  <path class="cls-1" d="m410.638164,19.2569661c2.0548475-.0439751,4.0403151.7438502,5.5059794,2.1847257,1.4718063,1.3769709,2.2922017,3.312443,2.2582593,5.3276582.0324877,2.0119207-.7879077,3.9436387-2.2582593,5.3172911-3.0845542,2.9129129-7.9061502,2.9129129-10.9907044,0-1.4646137-1.3767739-2.2806451-3.3074299-2.2474301-5.3172911-.0346293-2.0131569.7813617-3.9475651,2.2474301-5.3276588,1.4573404-1.4403161,3.4361811-2.2285462,5.484725-2.1847251Zm.0419835,13.9666866c1.7302533.0377521,3.3996527-.6388264,4.615396-1.8705358,1.2352602-1.2011398,1.9164515-2.8611911,1.8808928-4.5837922.0369325-1.7258968-.6442587-3.3896815-1.8808928-4.5941606-1.2157433-1.23171-2.8851428-1.9082879-4.615396-1.8705358-1.7392237-.0367008-3.4178765.6390619-4.6465503,1.8705358-1.2478674,1.198464-1.937423,2.8643505-1.9016623,4.5941593-.0343869,1.7265143.6551688,3.3886631,1.9016623,4.5837922,1.2286738,1.2314745,2.9073265,1.9072373,4.6465503,1.8705371Z"/>
  <path class="cls-1" d="m424.0898526,19.4456471v14.6369865c.1288598,1.1893117-.1968658,2.3833524-.9117974,3.3424848-.5599685.5941154-1.3420979.9281069-2.158493.9217149-.2274544-.0019067-.4546663-.0159155-.680666-.0419734l-.105181-1.0684223c.2196557.0535123.4446856.0816814.6707661.0839594,1.3690498,0,2.0536352-.9779951,2.0537969-2.9339804v-14.9407695h1.1315743Z"/>
  <path class="cls-1" d="m437.0797229,19.4456471v.9429406h-6.8519968v5.8566934h6.674163v.9537582h-6.674163v5.9406528h7.0198904v.9429403h-8.1515051v-14.6369852h7.9836116Z"/>
  <path class="cls-1" d="m453.4964805,20.4829281v1.2363297c-1.595696-.8954532-3.3884598-1.3814839-5.2179541-1.4146295-1.7110596-.0427241-3.3625989.6293616-4.5576131,1.8547263-1.2190972,1.2276453-1.8817817,2.9012988-1.8334947,4.6307446-.0570959,1.7300815.6114073,3.4053072,1.8438794,4.6208005,1.2560701,1.2192474,2.9548459,1.873853,4.7042927,1.8127529,1.8322824-.0663493,3.6203186-.5808983,5.2076097-1.4985889v1.1735944c-1.5893924.8776795-3.3709229,1.3491919-5.1863957,1.3726435-2.0685456.062008-4.0752273-.7101117-5.568692-2.1427125-1.4657451-1.3831621-2.2751497-3.3237318-2.2266606-5.3384899-.0464283-2.0344025.7813213-3.9911428,2.2736142-5.3746105,1.4465919-1.411497,3.3960968-2.1883062,5.4170019-2.1585226,1.7833488.0312771,3.5386144.4495759,5.1444123,1.225962Z"/>
  <path class="cls-1" d="m468.0585699,19.4456471v.9429406h-5.49018v13.6940458h-1.1419995v-13.6940458h-5.49018v-.9429406h12.1223596Z"/>
  <path class="cls-1" d="m224.9842526,35.1097985h-4.8916425v-9.3969682l-4.4118225,5.4415028h-.3860946l-4.4234397-5.4415028v9.3969682h-4.7512665v-16.2194821h4.4351983l4.9852265,6.0852684,5.0086225-6.0852684h4.4351983l.0000202,16.2194821Z"/>
  <path class="cls-1" d="m246.890968,35.1097985h-5.0086225l-1.322379-3.288211h-7.0447815l-1.345775,3.288211h-5.0086023l7.1735403-16.2194814h5.4064959l7.1501241,16.2194814Zm-7.4544337-6.1085059l-2.3754817-5.9215065-2.3990192,5.9215065h4.7745009Z"/>
  <path class="cls-1" d="m253.9593071,35.1097985h-4.8912587v-16.2194821h4.8913395l-.0000808,16.2194821Z"/>
  <path class="cls-1" d="m275.667096,35.1097985h-4.3533932l-8.4136494-9.0343177v9.0343177h-4.8447899v-16.2194821h4.3414729l8.3906777,8.9873785v-8.9873785h4.8797021l-.0000202,16.2194821Z"/>
  <path class="cls-1" d="m291.3598101,28.5446981h-6.7287335v6.5651004h-4.8916425v-16.2194821h11.620376v3.2533475h-6.7287335v3.1362198h6.7287335v3.2648144Z"/>
  <path class="cls-1" d="m310.3528955,35.1097985h-5.2543411l-1.275587-2.8787129c-.3350396-.8146083-.7589355-1.5897687-1.2639698-2.311413-.2742464-.4043613-.6520574-.7276587-1.0939346-.9361215-.4424228-.150195-.9082819-.2194991-1.3752725-.2045963h-.5498666v6.3308437h-4.8916425v-16.2194821h8.3204897c1.1556168-.0479139,2.3007681.2363592,3.2998257.8191529.7929789.4755924,1.4358233,1.1650823,1.8548097,1.9893714.3554656.6884911.5495837,1.4488611.5676055,2.2234949.0230121.7216172-.1401335,1.437009-.4737184,2.0773027-.2430921.4772731-.5840514.8979515-1.0006537,1.2346086-.3762957.2729962-.7712598.519278-1.182003.7370333.4931545.2793857.9313143.6462437,1.2930229,1.082618.5509576.7928324,1.0158874,1.6421028,1.3869099,2.5334338l1.638326,3.5224665Zm-6.6470697-11.0938777c.063642-.618855-.2199587-1.2222067-.7370345-1.5681165-.7488538-.3500232-1.5746638-.5030771-2.3992212-.4446648h-1.0297068v3.9084216h1.0532442c.8366999.0660311,1.6770769-.0683242,2.4514884-.3919272.4804059-.3413072.7344485-.9189641.6612905-1.5037131h-.0000606Z"/>
  <path class="cls-1" d="m330.387426,35.1097985h-5.008764l-1.322379-3.288211h-7.0445996l-1.3459164,3.288211h-5.0084609l7.173318-16.2194821h5.4066575l7.1501443,16.2194821Zm-7.4544741-6.1085059l-2.3756232-5.9215065-2.3988777,5.9215065h4.7745009Z"/>
  <path class="cls-1" d="m351.404548,35.1097985h-4.8913395v-9.3969682l-4.4118225,5.4415028h-.3862562l-4.4234195-5.4415028v9.3969682h-4.7512665v-16.2194821h4.43536l4.9852063,6.0852684,5.0084811-6.0852684h4.4350569v16.2194821Z"/>
  <path class="cls-1" d="m367.7293379,35.1097985h-12.2289548v-16.2194821h12.0301898v3.2533475h-7.1385271v2.9722994h6.8107003v3.2651724h-6.8107003v3.4637833h7.3373325l-.0000404,3.2648794Z"/>
  <path class="cls-1" d="m145.3916634,19.4297979c2.2949898-.0490517,4.5125284.8307552,6.1496421,2.4398621,1.6436497,1.5381473,2.5597707,3.6999152,2.5218179,5.9507016.0363264,2.2470437-.8798047,4.4045479-2.5218078,5.9389317-3.4452526,3.2533544-8.8304942,3.2533544-12.2757468,0-1.6359015-1.5377022-2.5473454-3.6940864-2.5102007-5.9389317-.0387509-2.2485855.8726727-4.4092276,2.5102007-5.9507023,1.6279109-1.6084938,3.8380953-2.4887502,6.1260946-2.4398615Zm.0469435,15.5992712c1.9323923.0420908,3.7968492-.7134542,5.154797-2.0889161,1.379485-1.3417229,2.1401883-3.1958292,2.1005586-5.1197914.0411652-1.9276987-.719528-3.7860301-2.1005586-5.1315626-1.357968-1.3754215-3.2224149-2.1309141-5.154797-2.0887696-1.9425447-.0409253-3.8174672.7136392-5.1901233,2.0887696-1.3936681,1.3387662-2.1638066,3.1994608-2.1239445,5.1315626-.0383165,1.9283654.7318321,3.784828,2.1239344,5.1197914,1.3726359,1.3751753,3.2475686,2.1297909,5.1901334,2.0889161Z"/>
  <path class="cls-1" d="m157.1409295,19.6403524h4.5053762c1.4159428-.0951946,2.8196925.3153762,3.9611667,1.1585669.9223236.7838796,1.4300248,1.9504191,1.3751311,3.1596031.0545301,1.2250219-.4567473,2.4071884-1.3867281,3.2064217-1.171497.86571-2.6135128,1.2848555-4.0665396,1.182003h-3.1245982v7.6416408h-1.2638082v-16.3482355Zm1.2638082,1.0532628v6.6001218h3.0426314c1.1061882.076681,2.2051435-.2290328,3.1128194-.8659461.7211948-.6014254,1.115977-1.5081466,1.0648816-2.44582.0390943-.9170756-.344798-1.801375-1.0414856-2.3990274-.8559541-.6444999-1.9149463-.960104-2.9840706-.8893289l-3.1947761.0000006Z"/>
  <path class="cls-1" d="m178.3220862,19.6403524v1.0532628h-7.6533805v6.5415055h7.4544337v1.0650205h-7.4544337v6.6351444h7.8405485v1.0533023h-9.1043566v-16.3482355h8.9171887Z"/>
  <path class="cls-1" d="m195.8405569,19.6403524v16.3482355h-1.0400915l-12.4292755-14.2885161v14.2885161h-1.2640102v-16.3482355h1.0709831l12.3986465,14.2886755v-14.2886755h1.2637476Z"/>
  <g>
    <path class="cls-2" d="m133.6122654,84.0722424v-.1816406c0-18.0454102,14.0561523-32.8266602,33.2807617-32.8266602,11.4257812,0,18.3178711,3.0834961,24.9379883,8.7055664l-8.7963867,10.6098633c-4.8969727-4.0805664-9.25-6.4384766-16.5952148-6.4384766-10.15625,0-18.2270508,8.9775391-18.2270508,19.769043v.1806641c0,11.6074219,7.9799805,20.1318359,19.2246094,20.1318359,5.078125,0,9.6123047-1.2695312,13.1489258-3.8085938v-9.0683594h-14.0556641v-12.0605469h27.5678711v27.5673828c-6.5292969,5.53125-15.5068359,10.0654297-27.1142578,10.0654297-19.769043,0-33.371582-13.8740234-33.371582-32.6455078Z"/>
    <path class="cls-2" d="m204.0683201,101.6650159v-.1816406c0-10.609375,8.0708008-15.5068359,19.5874023-15.5068359,4.8969727,0,8.4335938.8164062,11.8798828,1.9951172v-.8164062c0-5.7128906-3.5371094-8.8867188-10.4287109-8.8867188-5.2597656,0-8.9780273.9980469-13.4213867,2.6298828l-3.4458008-10.519043c5.3500977-2.3574219,10.6098633-3.8994141,18.8618164-3.8994141,7.5268555,0,12.9682617,1.9951172,16.4135742,5.4414062,3.6279297,3.6269531,5.2597656,8.9770508,5.2597656,15.5063477v28.2021484h-13.3300781v-5.2597656c-3.3554688,3.7177734-7.9804688,6.1669922-14.690918,6.1669922-9.1586914,0-16.6855469-5.2597656-16.6855469-14.8720703Zm31.6489258-3.1738281v-2.4482422c-2.3583984-1.0888672-5.4414062-1.8144531-8.796875-1.8144531-5.8945312,0-9.5214844,2.3583984-9.5214844,6.7109375v.1816406c0,3.7177734,3.0830078,5.8935547,7.5263672,5.8935547,6.4384766,0,10.7919922-3.5361328,10.7919922-8.5234375Z"/>
    <path class="cls-2" d="m261.2856053,49.4316174h13.7841797v66.1982422h-13.7841797V49.4316174Z"/>
    <path class="cls-2" d="m285.132285,101.6650159v-.1816406c0-10.609375,8.0703125-15.5068359,19.5878906-15.5068359,4.8964844,0,8.4326172.8164062,11.8789062,1.9951172v-.8164062c0-5.7128906-3.5361328-8.8867188-10.4287109-8.8867188-5.2597656,0-8.9775391.9980469-13.4208984,2.6298828l-3.4462891-10.519043c5.3505859-2.3574219,10.6103516-3.8994141,18.8623047-3.8994141,7.5273438,0,12.9677734,1.9951172,16.4140625,5.4414062,3.6269531,3.6269531,5.2597656,8.9770508,5.2597656,15.5063477v28.2021484h-13.3310547v-5.2597656c-3.3554688,3.7177734-7.9794922,6.1669922-14.6904297,6.1669922-9.1591797,0-16.6855469-5.2597656-16.6855469-14.8720703Zm31.6484375-3.1738281v-2.4482422c-2.3574219-1.0888672-5.4414062-1.8144531-8.796875-1.8144531-5.8935547,0-9.5214844,2.3583984-9.5214844,6.7109375v.1816406c0,3.7177734,3.0830078,5.8935547,7.5273438,5.8935547,6.4384766,0,10.7910156-3.5361328,10.7910156-8.5234375Z"/>
    <path class="cls-2" d="m337.906699,109.191383l5.8945312-9.0683594c5.2597656,3.8085938,10.7910156,5.8037109,15.3251953,5.8037109,3.9902344,0,5.8037109-1.4511719,5.8037109-3.6269531v-.1816406c0-2.9921875-4.7148438-3.9902344-10.0654297-5.6220703-6.8007812-1.9951172-14.5087891-5.1689453-14.5087891-14.5996094v-.1816406c0-9.8842773,7.9794922-15.4160156,17.7734375-15.4160156,6.1660156,0,12.8769531,2.0859375,18.1367188,5.6225586l-5.2597656,9.5209961c-4.8066406-2.8105469-9.6123047-4.5336914-13.1494141-4.5336914-3.3544922,0-5.078125,1.4506836-5.078125,3.3549805v.1816406c0,2.7207031,4.625,3.9902344,9.8847656,5.8037109,6.8007812,2.2666016,14.6904297,5.53125,14.6904297,14.4179688v.1816406c0,10.7910156-8.0703125,15.6884766-18.5898438,15.6884766-6.8007812,0-14.4189453-2.2675781-20.8574219-7.3457031Z"/>
    <path class="cls-2" d="m384.3334568,101.6650159v-.1816406c0-10.609375,8.0703125-15.5068359,19.5878906-15.5068359,4.8964844,0,8.4326172.8164062,11.8789062,1.9951172v-.8164062c0-5.7128906-3.5361328-8.8867188-10.4287109-8.8867188-5.2597656,0-8.9775391.9980469-13.4208984,2.6298828l-3.4462891-10.519043c5.3505859-2.3574219,10.6103516-3.8994141,18.8623047-3.8994141,7.5273438,0,12.9677734,1.9951172,16.4140625,5.4414062,3.6269531,3.6269531,5.2597656,8.9770508,5.2597656,15.5063477v28.2021484h-13.3310547v-5.2597656c-3.3554688,3.7177734-7.9794922,6.1669922-14.6904297,6.1669922-9.1591797,0-16.6855469-5.2597656-16.6855469-14.8720703Zm31.6484375-3.1738281v-2.4482422c-2.3574219-1.0888672-5.4414062-1.8144531-8.796875-1.8144531-5.8935547,0-9.5214844,2.3583984-9.5214844,6.7109375v.1816406c0,3.7177734,3.0830078,5.8935547,7.5273438,5.8935547,6.4384766,0,10.7910156-3.5361328,10.7910156-8.5234375Z"/>
  </g>
  <path class="cls-2" d="m110.9628863,70.0321677c2.4209156-1.1856515,4.3124179-3.3142774,5.117561-5.8951042.6617246-2.0183272.5790258-4.1083806.5790258-6.2094402-.0496462-6.8105459.0441262-13.6320982-.0386062-20.4426105-.1323449-3.7719983-2.1727521-7.0862421-5.4484233-8.9391718-14.5089001-8.26634-29.0122801-16.5437872-43.5267002-24.8156808-1.670905-.937488-3.3087574-1.985241-5.0458349-2.7958704-2.0514471-.9760942-4.4337565-1.136039-6.6451148-.7169244-2.2444108.4522345-4.279298,1.8970559-6.2535327,3.0219877C34.9276375,11.8476626,20.2423,20.4559385,5.4631565,29.053208,1.9779279,31.1101415.0202532,34.5457238.0202532,38.6044919.0037269,56.5820606.0312931,74.6975278.0037269,92.6750964c-.0772124,3.0275077,1.047753,5.856498,3.1488126,8.0237301,1.7315911,1.7426311,4.2517654,2.8841228,6.363865,4.1194205,12.5070991,7.1634545,25.0528044,14.2607365,37.5543836,21.435231,2.7352516,1.681945,5.9447504,2.3437032,9.0715167,1.4006952,4.5054153-1.2187378,7.725954-5.5035558,7.7038741-10.1633959.00552-15.3967419-.0054863-30.7935174.00552-46.1902593,13.5107596.00552,27.0215191-.01104,40.5322787.00552,2.310617-.0220463,4.494409-.1875111,6.5789087-1.2738703Zm-57.8701691-9.4851114c-.00552,18.8930104.00552,37.7860208,0,56.6789976-14.1063117-8.0016502-28.218177-15.992294-42.3245223-23.9884578.00552-18.2588521-.0110063-36.5121505.00552-54.7710026,15.3746956-8.9667044,30.7438713-17.9334425,46.1075269-26.9112205.4522009-.2481299.8988818-.4908071,1.3566027-.7279307,15.4684343,8.7571807,30.9313487,17.6577463,46.3998167,26.4314534.4852871.3639822,1.3345227.6176657,1.2352641,1.3621227.0606525,7.2957994,0,14.6247187.0220463,21.9260381h-52.8022542Z"/>
</svg>