<?xml version="1.0" encoding="UTF-8"?> <!-- Generator: Adobe Illustrator 22.0.1, SVG Export Plug-In . SVG Version: 6.00 Build 0) --> <svg xmlns="http://www.w3.org/2000/svg" xmlns:xlink="http://www.w3.org/1999/xlink" id="Layer_2" x="0px" y="0px" viewBox="0 0 209.5 66.1" style="enable-background:new 0 0 209.5 66.1;" xml:space="preserve"> <style type="text/css"> .st0{fill:#4E5054;} .st1{fill:#FF4F1F;} </style> <path class="st0" d="M38.6,56.2l0,1.1c0.7-0.8,1.7-1.3,2.9-1.3c1.4,0,2.3,0.5,2.8,1.6c0.3-0.5,0.7-0.8,1.3-1.1 c0.5-0.3,1.1-0.4,1.8-0.4c2.1,0,3.2,1.1,3.2,3.4v6.5h-1.7v-6.4c0-0.7-0.2-1.2-0.5-1.6c-0.3-0.3-0.8-0.5-1.6-0.5 c-0.6,0-1.1,0.2-1.5,0.6c-0.4,0.4-0.6,0.9-0.7,1.5v6.4H43v-6.4c0-1.4-0.7-2.1-2.1-2.1c-1.1,0-1.8,0.5-2.2,1.4v7.1H37v-9.7H38.6z"></path> <path class="st0" d="M52.6,61c0-1,0.2-1.8,0.6-2.6c0.4-0.8,0.9-1.3,1.6-1.8c0.7-0.4,1.4-0.6,2.3-0.6c1.3,0,2.4,0.5,3.2,1.4 c0.8,0.9,1.2,2.1,1.2,3.7v0.1c0,0.9-0.2,1.8-0.5,2.5c-0.4,0.8-0.9,1.3-1.6,1.8c-0.7,0.4-1.4,0.6-2.3,0.6c-1.3,0-2.4-0.5-3.2-1.4 c-0.8-0.9-1.2-2.1-1.2-3.6V61z M54.3,61.2c0,1.1,0.2,1.9,0.7,2.6c0.5,0.7,1.2,1,2,1c0.8,0,1.5-0.3,2-1c0.5-0.7,0.7-1.6,0.7-2.8 c0-1.1-0.3-1.9-0.8-2.6c-0.5-0.7-1.2-1-2-1c-0.8,0-1.5,0.3-2,1C54.5,59,54.3,60,54.3,61.2z"></path> <path class="st0" d="M65,56.2l0,1.1c0.7-0.8,1.7-1.3,2.9-1.3c1.4,0,2.3,0.5,2.8,1.6c0.3-0.5,0.7-0.8,1.3-1.1 c0.5-0.3,1.1-0.4,1.8-0.4c2.1,0,3.2,1.1,3.2,3.4v6.5h-1.7v-6.4c0-0.7-0.2-1.2-0.5-1.6c-0.3-0.3-0.8-0.5-1.6-0.5 c-0.6,0-1.1,0.2-1.5,0.6c-0.4,0.4-0.6,0.9-0.7,1.5v6.4h-1.7v-6.4c0-1.4-0.7-2.1-2.1-2.1c-1.1,0-1.8,0.5-2.2,1.4v7.1h-1.7v-9.7H65z"></path> <path class="st0" d="M83.6,66.1c-1.3,0-2.4-0.4-3.2-1.3c-0.8-0.9-1.2-2-1.2-3.5V61c0-1,0.2-1.8,0.6-2.6c0.4-0.8,0.9-1.3,1.5-1.8 c0.7-0.4,1.4-0.6,2.1-0.6c1.3,0,2.2,0.4,2.9,1.2c0.7,0.8,1.1,2,1.1,3.6v0.7h-6.6c0,1,0.3,1.7,0.8,2.3c0.5,0.6,1.2,0.9,2,0.9 c0.6,0,1.1-0.1,1.5-0.4c0.4-0.2,0.8-0.6,1.1-1l1,0.8C86.4,65.5,85.2,66.1,83.6,66.1z M83.4,57.4c-0.7,0-1.2,0.2-1.7,0.7 c-0.5,0.5-0.7,1.2-0.8,2.1h4.9v-0.1c0-0.8-0.3-1.5-0.7-2C84.6,57.6,84,57.4,83.4,57.4z"></path> <path class="st0" d="M90.9,56.2l0.1,1.2c0.7-0.9,1.7-1.4,2.9-1.4c2.1,0,3.1,1.2,3.1,3.5v6.4h-1.7v-6.4c0-0.7-0.2-1.2-0.5-1.6 c-0.3-0.3-0.8-0.5-1.5-0.5c-0.5,0-1,0.1-1.4,0.4c-0.4,0.3-0.7,0.7-1,1.1v6.9h-1.7v-9.7H90.9z"></path> <path class="st0" d="M101.8,53.9v2.4h1.8v1.3h-1.8v6c0,0.4,0.1,0.7,0.2,0.9c0.2,0.2,0.4,0.3,0.8,0.3c0.2,0,0.5,0,0.8-0.1v1.3 c-0.4,0.1-0.9,0.2-1.3,0.2c-0.7,0-1.3-0.2-1.7-0.7c-0.4-0.4-0.6-1.1-0.6-1.9v-6h-1.8v-1.3h1.8v-2.4H101.8z"></path> <path class="st0" d="M111,63.4c0-0.4-0.2-0.8-0.5-1c-0.3-0.2-0.9-0.5-1.8-0.6c-0.8-0.2-1.5-0.4-2-0.6c-0.5-0.3-0.9-0.6-1.1-0.9 c-0.2-0.3-0.4-0.8-0.4-1.2c0-0.8,0.3-1.5,1-2c0.7-0.6,1.5-0.8,2.6-0.8c1.1,0,2,0.3,2.7,0.9c0.7,0.6,1,1.3,1,2.2h-1.7 c0-0.5-0.2-0.8-0.6-1.2c-0.4-0.3-0.9-0.5-1.5-0.5c-0.6,0-1.1,0.1-1.4,0.4c-0.3,0.3-0.5,0.6-0.5,1c0,0.4,0.2,0.7,0.5,0.9 c0.3,0.2,0.9,0.4,1.7,0.6c0.8,0.2,1.5,0.4,2,0.7c0.5,0.3,0.9,0.6,1.1,0.9c0.2,0.4,0.4,0.8,0.4,1.3c0,0.9-0.3,1.6-1,2.1 c-0.7,0.5-1.6,0.8-2.7,0.8c-0.8,0-1.5-0.1-2.1-0.4c-0.6-0.3-1.1-0.7-1.4-1.2c-0.3-0.5-0.5-1-0.5-1.6h1.7c0,0.6,0.3,1,0.7,1.3 c0.4,0.3,1,0.5,1.6,0.5c0.6,0,1.1-0.1,1.5-0.4C110.8,64.1,111,63.8,111,63.4z"></path> <path class="st0" d="M123.7,64.8c0.6,0,1.1-0.2,1.6-0.5c0.4-0.4,0.7-0.8,0.7-1.3h1.6c0,0.6-0.2,1.1-0.6,1.6 c-0.4,0.5-0.8,0.9-1.4,1.2c-0.6,0.3-1.2,0.4-1.9,0.4c-1.3,0-2.4-0.4-3.2-1.3c-0.8-0.9-1.2-2.1-1.2-3.6v-0.3c0-0.9,0.2-1.8,0.5-2.5 c0.3-0.7,0.8-1.3,1.5-1.7c0.6-0.4,1.4-0.6,2.3-0.6c1.1,0,2,0.3,2.7,1c0.7,0.7,1.1,1.5,1.2,2.5h-1.6c0-0.6-0.3-1.1-0.7-1.5 c-0.4-0.4-1-0.6-1.6-0.6c-0.8,0-1.5,0.3-2,0.9c-0.5,0.6-0.7,1.5-0.7,2.6v0.3c0,1.1,0.2,2,0.7,2.6C122.1,64.5,122.8,64.8,123.7,64.8z "></path> <path class="st0" d="M129,61c0-1,0.2-1.8,0.6-2.6c0.4-0.8,0.9-1.3,1.6-1.8c0.7-0.4,1.4-0.6,2.3-0.6c1.3,0,2.4,0.5,3.2,1.4 c0.8,0.9,1.2,2.1,1.2,3.7v0.1c0,0.9-0.2,1.8-0.5,2.5c-0.4,0.8-0.9,1.3-1.6,1.8c-0.7,0.4-1.4,0.6-2.3,0.6c-1.3,0-2.4-0.5-3.2-1.4 c-0.8-0.9-1.2-2.1-1.2-3.6V61z M130.7,61.2c0,1.1,0.3,1.9,0.7,2.6c0.5,0.7,1.2,1,2,1c0.8,0,1.5-0.3,2-1c0.5-0.7,0.7-1.6,0.7-2.8 c0-1.1-0.3-1.9-0.8-2.6c-0.5-0.7-1.2-1-2-1c-0.8,0-1.5,0.3-2,1C130.9,59,130.7,60,130.7,61.2z"></path> <path class="st0" d="M141.4,56.2l0.1,1.2c0.7-0.9,1.7-1.4,2.9-1.4c2.1,0,3.1,1.2,3.1,3.5v6.4h-1.7v-6.4c0-0.7-0.2-1.2-0.5-1.6 c-0.3-0.3-0.8-0.5-1.5-0.5c-0.5,0-1,0.1-1.4,0.4c-0.4,0.3-0.7,0.7-1,1.1v6.9h-1.7v-9.7H141.4z"></path> <path class="st0" d="M151.5,56.2l0.1,1.2c0.7-0.9,1.7-1.4,2.9-1.4c2.1,0,3.1,1.2,3.1,3.5v6.4h-1.7v-6.4c0-0.7-0.2-1.2-0.5-1.6 c-0.3-0.3-0.8-0.5-1.5-0.5c-0.5,0-1,0.1-1.4,0.4c-0.4,0.3-0.7,0.7-1,1.1v6.9H150v-9.7H151.5z"></path> <path class="st0" d="M164,66.1c-1.3,0-2.4-0.4-3.2-1.3c-0.8-0.9-1.2-2-1.2-3.5V61c0-1,0.2-1.8,0.6-2.6c0.4-0.8,0.9-1.3,1.5-1.8 c0.7-0.4,1.4-0.6,2.1-0.6c1.3,0,2.2,0.4,2.9,1.2c0.7,0.8,1,2,1,3.6v0.7h-6.6c0,1,0.3,1.7,0.8,2.3c0.5,0.6,1.2,0.9,2,0.9 c0.6,0,1.1-0.1,1.5-0.4c0.4-0.2,0.8-0.6,1.1-1l1,0.8C166.9,65.5,165.6,66.1,164,66.1z M163.8,57.4c-0.7,0-1.2,0.2-1.7,0.7 c-0.5,0.5-0.7,1.2-0.8,2.1h4.9v-0.1c0-0.8-0.3-1.5-0.7-2C165.1,57.6,164.5,57.4,163.8,57.4z"></path> <path class="st0" d="M173.9,64.8c0.6,0,1.1-0.2,1.6-0.5c0.4-0.4,0.7-0.8,0.7-1.3h1.6c0,0.6-0.2,1.1-0.6,1.6 c-0.4,0.5-0.8,0.9-1.4,1.2c-0.6,0.3-1.2,0.4-1.9,0.4c-1.3,0-2.4-0.4-3.2-1.3c-0.8-0.9-1.2-2.1-1.2-3.6v-0.3c0-0.9,0.2-1.8,0.5-2.5 c0.3-0.7,0.8-1.3,1.5-1.7c0.6-0.4,1.4-0.6,2.3-0.6c1.1,0,2,0.3,2.7,1c0.7,0.7,1.1,1.5,1.2,2.5h-1.6c0-0.6-0.3-1.1-0.7-1.5 c-0.4-0.4-1-0.6-1.6-0.6c-0.8,0-1.5,0.3-2,0.9c-0.5,0.6-0.7,1.5-0.7,2.6v0.3c0,1.1,0.2,2,0.7,2.6C172.4,64.5,173,64.8,173.9,64.8z"></path> <path class="st0" d="M182,53.9v2.4h1.8v1.3H182v6c0,0.4,0.1,0.7,0.2,0.9c0.2,0.2,0.4,0.3,0.8,0.3c0.2,0,0.5,0,0.8-0.1v1.3 c-0.4,0.1-0.9,0.2-1.3,0.2c-0.7,0-1.3-0.2-1.7-0.7c-0.4-0.4-0.6-1.1-0.6-1.9v-6h-1.8v-1.3h1.8v-2.4H182z"></path> <path class="st0" d="M189.4,66.1c-1.3,0-2.4-0.4-3.2-1.3c-0.8-0.9-1.2-2-1.2-3.5V61c0-1,0.2-1.8,0.6-2.6c0.4-0.8,0.9-1.3,1.5-1.8 s1.4-0.6,2.1-0.6c1.3,0,2.2,0.4,2.9,1.2c0.7,0.8,1,2,1,3.6v0.7h-6.6c0,1,0.3,1.7,0.8,2.3c0.5,0.6,1.2,0.9,2,0.9 c0.6,0,1.1-0.1,1.5-0.4c0.4-0.2,0.8-0.6,1.1-1l1,0.8C192.2,65.5,191,66.1,189.4,66.1z M189.2,57.4c-0.7,0-1.2,0.2-1.7,0.7 c-0.5,0.5-0.7,1.2-0.8,2.1h4.9v-0.1c0-0.8-0.3-1.5-0.7-2C190.4,57.6,189.8,57.4,189.2,57.4z"></path> <path class="st0" d="M194.7,61c0-1.5,0.4-2.7,1.1-3.6c0.7-0.9,1.6-1.4,2.8-1.4c1.1,0,2,0.4,2.7,1.2v-5.1h1.7v13.8h-1.5l-0.1-1 c-0.7,0.8-1.6,1.2-2.8,1.2c-1.1,0-2-0.5-2.8-1.4c-0.7-0.9-1.1-2.1-1.1-3.6V61z M196.4,61.2c0,1.1,0.2,2,0.7,2.6 c0.5,0.6,1.1,0.9,1.9,0.9c1.1,0,1.8-0.5,2.3-1.4v-4.5c-0.5-0.9-1.3-1.4-2.3-1.4c-0.8,0-1.4,0.3-1.9,0.9 C196.6,59,196.4,60,196.4,61.2z"></path> <path class="st1" d="M18.3,13.3c2.4,0,4.4,2,4.4,4.4s-2,4.4-4.4,4.4H7.2c-2.4,0-4.4-2-4.4-4.4s2-4.4,4.4-4.4H18.3 M18.3,10.5H7.2 c-4,0-7.2,3.2-7.2,7.2c0,4,3.2,7.2,7.2,7.2h11.1c4,0,7.2-3.2,7.2-7.2C25.6,13.7,22.3,10.5,18.3,10.5L18.3,10.5z"></path> <path class="st1" d="M18.3,30.2c2.4,0,4.4,2,4.4,4.4s-2,4.4-4.4,4.4h-4.7c-2.4,0-4.4-2-4.4-4.4s2-4.4,4.4-4.4H18.3 M18.3,27.4h-4.7 c-4,0-7.2,3.2-7.2,7.2c0,4,3.2,7.2,7.2,7.2h4.7c4,0,7.2-3.2,7.2-7.2C25.6,30.6,22.3,27.4,18.3,27.4L18.3,27.4z"></path> <path class="st1" d="M21.2,2.5c1,0,1.9,0.8,1.9,1.9c0,1-0.8,1.9-1.9,1.9c0,0-0.1,0-0.1,0c-1,0-1.7-0.8-1.8-1.8c0-0.5,0.2-1,0.5-1.4 C20.2,2.7,20.7,2.5,21.2,2.5 M21.2,0c-2.5,0-4.4,2.1-4.3,4.5c0.1,2.2,1.9,4,4.1,4.1c0.1,0,0.1,0,0.2,0c2.4,0,4.3-1.9,4.3-4.3 S23.6,0,21.2,0L21.2,0z"></path> <polygon class="st0" points="64.2,41.8 64.2,10.5 81.8,10.5 81.8,13.6 67.3,13.6 67.3,24.4 80.3,24.4 80.3,27.5 67.3,27.5 67.3,38.7 81.8,38.7 81.8,41.8 "></polygon> <polygon class="st0" points="116.1,41.8 116.1,10.5 133.7,10.5 133.7,13.6 119.2,13.6 119.2,24.4 132.3,24.4 132.3,27.5 119.2,27.5 119.2,38.7 133.7,38.7 133.7,41.8 "></polygon> <polygon class="st0" points="168.9,41.8 168.9,28.8 158.3,10.5 161.8,10.5 170.5,25.5 179.1,10.5 182.6,10.5 172,28.8 172,41.8 "></polygon> <polygon class="st0" points="109.7,41.8 109.7,10.5 106.6,10.5 106.6,36.1 91,10.5 87.9,10.5 87.9,10.5 87.9,41.8 91,41.8 91,16.2 106.6,41.8 "></polygon> <path class="st0" d="M47.6,28.3h7.5v2.5c0,6.1-3.9,8.3-7.5,8.3c-3.6,0-7.5-2.2-7.5-8.3l0-9.4c0-6.1,3.9-8.3,7.5-8.3 c4,0,6.7,2.4,7.4,6.4h3.1c-0.7-5.8-4.8-9.5-10.5-9.5c-6.4,0-10.6,4.6-10.6,11.4l0,9.4c0,6.8,4.3,11.4,10.6,11.4 c6.4,0,10.6-4.6,10.6-11.4l0-5.6H47.6V28.3z"></path> <path class="st0" d="M140.7,32.3c0.3,4.2,3.1,6.8,7,6.8c4,0,6.1-1.9,6.1-5.5c0-2.6-1.6-4.5-4.3-5.2l-5.3-1.4c-3.9-1-6.2-4.2-6.2-8.4 c0-5.1,3.6-8.5,9-8.5c6.2,0,8.9,4.3,9.5,8.6h-3.1c-0.7-3.6-3-5.5-6.3-5.5c-3.6,0-5.9,2.1-5.9,5.4c0,2.7,1.5,4.7,4.1,5.4l5.5,1.5 c3,0.8,6.3,3.4,6.3,8.3c0,5.3-3.6,8.6-9.3,8.6c-7.1,0-10-5.4-10.1-9.9L140.7,32.3z"></path> <path class="st0" d="M187.1,32.3c0.3,4.2,3.1,6.8,7,6.8c4,0,6.1-1.9,6.1-5.5c0-2.6-1.6-4.5-4.3-5.2l-5.3-1.4c-3.9-1-6.2-4.2-6.2-8.4 c0-5.1,3.6-8.5,9-8.5c6.2,0,8.9,4.3,9.5,8.6h-3.1c-0.7-3.6-3-5.5-6.3-5.5c-3.6,0-5.9,2.1-5.9,5.4c0,2.7,1.5,4.7,4.1,5.4l5.5,1.5 c3,0.8,6.3,3.4,6.3,8.3c0,5.3-3.6,8.6-9.3,8.6c-7.1,0-10-5.4-10.1-9.9L187.1,32.3z"></path> <path class="st0" d="M204.4,10.9h-1v-0.4h2.5v0.4h-1v2.8h-0.5V10.9z"></path> <path class="st0" d="M207.7,13.6l-0.9-2.7v2.7h-0.5v-3.2h0.8l0.8,2.6l0.8-2.6h0.8v3.2H209v-2.7l-0.9,2.7H207.7z"></path> </svg> 