<?xml version="1.0" encoding="UTF-8"?>
<svg id="Global_Synchronizer_Foundation_Logo" data-name="Global Synchronizer Foundation Logo" xmlns="http://www.w3.org/2000/svg" xmlns:xlink="http://www.w3.org/1999/xlink" viewBox="0 0 234.95 116.58">
  <defs>
    <style>
      .cls-1 {
        fill: url(#linear-gradient-3);
      }

      .cls-2 {
        fill: url(#linear-gradient-2);
      }

      .cls-3 {
        fill: url(#linear-gradient);
      }

      .cls-4 {
        fill: #333;
      }

      .cls-5 {
        fill: #afafaf;
      }
    </style>
    <linearGradient id="linear-gradient" x1="173.03" y1="7.79" x2="227.16" y2="7.79" gradientUnits="userSpaceOnUse">
      <stop offset="0" stop-color="#fff" stop-opacity="0"/>
      <stop offset=".27" stop-color="#b7b7b7" stop-opacity=".35"/>
      <stop offset=".72" stop-color="#565656" stop-opacity=".82"/>
      <stop offset="1" stop-color="#333"/>
    </linearGradient>
    <linearGradient id="linear-gradient-2" x1="358.67" y1="1665" x2="410.25" y2="1665" gradientTransform="translate(-211.44 -1631.42)" xlink:href="#linear-gradient"/>
    <linearGradient id="linear-gradient-3" x1="180.82" y1="33.59" x2="212.4" y2="33.59" xlink:href="#linear-gradient"/>
  </defs>
  <g>
    <path class="cls-4" d="M16.45,90.44c-1.21,1.95-3.85,3.38-7.49,3.38-5.23,0-8.36-2.66-8.36-7.04s3.13-7.04,8.33-7.04c3.26,0,5.5,1.21,6.83,2.64l-1.86,1.33c-1.18-1.33-2.73-1.97-4.95-1.97-3.74,0-6.03,1.71-6.03,5.04s2.33,5.05,6.15,5.05c2.33,0,4.23-.61,5.2-2.12v-1.52h-5.54v-1.95h7.74v4.21Z"/>
    <path class="cls-4" d="M19.27,93.42v-14.04h2.2v14.04h-2.2Z"/>
    <path class="cls-4" d="M24.2,88.24c0-3.45,2.45-5.61,6.47-5.61s6.47,2.16,6.47,5.61-2.43,5.58-6.47,5.58-6.47-2.14-6.47-5.58ZM34.98,88.24c0-2.52-1.84-3.76-4.31-3.76s-4.29,1.23-4.29,3.76,1.84,3.72,4.29,3.72,4.31-1.23,4.31-3.72Z"/>
    <path class="cls-4" d="M52.44,88.24c0,3.36-2.24,5.56-5.61,5.56-2.22,0-3.89-.93-4.78-2.22v1.84h-2.22v-14.04h2.22v5.5c.89-1.31,2.56-2.24,4.78-2.24,3.38,0,5.61,2.22,5.61,5.6ZM50.28,88.24c0-2.39-1.44-3.7-4.02-3.7-1.73,0-3.22.59-4.21,2.12v3.11c.99,1.54,2.48,2.14,4.21,2.14,2.58,0,4.02-1.33,4.02-3.68Z"/>
    <path class="cls-4" d="M66.12,87.64v3.77c0,.78.13,1.4.47,2.01h-2.3c-.27-.46-.4-.97-.4-1.46v-.02c-.82,1-2.41,1.86-4.53,1.86-2.24,0-5.22-.91-5.22-3.64s2.98-3.62,5.22-3.62,3.72.85,4.53,1.86v-.76c0-2.24-1.37-3.24-4.04-3.24-1.54,0-2.75.34-3.94,1.04l-.8-1.5c1.29-.78,3.28-1.29,5.16-1.29,3.62,0,5.84,1.73,5.84,4.99ZM63.94,90.01c-.83-1.44-2.6-1.88-4.15-1.88-1.38,0-3.45.36-3.45,2.03s2.07,2.05,3.45,2.05c1.56,0,3.32-.46,4.15-1.88v-.32Z"/>
    <path class="cls-4" d="M69.47,93.42v-14.04h2.2v14.04h-2.2Z"/>
    <path class="cls-4" d="M94.79,89.5c0,2.52-2.48,4.32-7,4.32-3.11,0-5.86-.91-7.93-2.69l1.42-1.61c1.8,1.61,3.93,2.33,6.6,2.33,2.96,0,4.59-.78,4.59-2.16s-1.67-1.73-5.01-2.01c-3.66-.3-7.11-1.12-7.11-3.83s3.05-4.1,6.87-4.1c2.88,0,5.33.85,6.92,2.2l-1.44,1.55c-1.37-1.19-3.24-1.76-5.44-1.78-2.11-.02-4.61.49-4.61,1.97,0,1.4,2.22,1.65,5.12,1.88,4.13.32,7.02,1.16,7.02,3.93Z"/>
    <path class="cls-4" d="M108.6,83.03l-7.85,14.19h-2.31l2.6-4.48-5.42-9.71h2.39l4.17,7.59,4.1-7.59h2.33Z"/>
    <path class="cls-4" d="M110.61,93.42v-10.39h2.22v2.01c.91-1.48,2.62-2.39,4.74-2.39,3.17,0,4.74,2.03,4.74,4.84v5.94h-2.2v-5.79c0-2.05-1.04-3.15-3.11-3.15-1.78,0-3.28.83-4.17,2.54v6.39h-2.22Z"/>
    <path class="cls-4" d="M131.34,93.82c-4,0-6.43-2.18-6.43-5.58s2.43-5.61,6.43-5.61c2.9,0,4.68,1.18,5.6,2.67l-2.09.89c-.68-1.25-2.07-1.73-3.49-1.73-2.47,0-4.27,1.25-4.27,3.77s1.8,3.74,4.27,3.74c1.42,0,2.86-.49,3.55-1.78l2.09.87c-.91,1.57-2.69,2.75-5.65,2.75Z"/>
    <path class="cls-4" d="M151.01,87.49v5.94h-2.2v-5.79c0-2.05-1.04-3.15-3.11-3.15-1.78,0-3.28.83-4.17,2.54v6.39h-2.22v-14.04h2.22v5.65c.91-1.48,2.62-2.39,4.74-2.39,3.17,0,4.74,2.03,4.74,4.84Z"/>
    <path class="cls-4" d="M154.35,93.42v-10.39h2.22v2.37c.83-1.67,2.77-2.58,4.91-2.58v1.93c-2.31,0-4.21.97-4.91,2.92v5.75h-2.22Z"/>
    <path class="cls-4" d="M162.26,88.24c0-3.45,2.45-5.61,6.47-5.61s6.47,2.16,6.47,5.61-2.43,5.58-6.47,5.58-6.47-2.14-6.47-5.58ZM173.03,88.24c0-2.52-1.84-3.76-4.31-3.76s-4.29,1.23-4.29,3.76,1.84,3.72,4.29,3.72,4.31-1.23,4.31-3.72Z"/>
    <path class="cls-4" d="M177.89,93.42v-10.39h2.22v2.01c.91-1.48,2.62-2.39,4.74-2.39,3.17,0,4.74,2.03,4.74,4.84v5.94h-2.2v-5.79c0-2.05-1.04-3.15-3.11-3.15-1.78,0-3.28.83-4.17,2.54v6.39h-2.22Z"/>
    <path class="cls-4" d="M192.64,80.37c0-.72.61-1.23,1.42-1.23s1.4.51,1.4,1.23c0,.68-.59,1.23-1.4,1.23s-1.42-.55-1.42-1.23ZM195.18,93.42h-2.2v-10.39h2.2v10.39Z"/>
    <path class="cls-4" d="M208.73,84.49l-7.91,7.17h8.14v1.78h-11.25v-1.48l7.89-7.17h-7.62v-1.76h10.75v1.46Z"/>
    <path class="cls-4" d="M217.2,92.08c1.92,0,3.11-.49,4.25-1.5l1.29,1.38c-1.42,1.27-3.22,1.86-5.65,1.86-4.15,0-6.54-2.16-6.54-5.58s2.39-5.61,6.39-5.61c3.74,0,6.16,1.95,6.16,5.59,0,.25-.02.38-.06.49h-10.32c.21,2.26,1.86,3.36,4.48,3.36ZM212.82,87.14l8.14-.02c-.47-1.9-1.95-2.75-4-2.75-2.18,0-3.72.93-4.13,2.77Z"/>
    <path class="cls-4" d="M225.68,93.42v-10.39h2.22v2.37c.83-1.67,2.77-2.58,4.91-2.58v1.93c-2.31,0-4.21.97-4.91,2.92v5.75h-2.22Z"/>
    <path class="cls-4" d="M3.79,104.92v3.91h9.07v2.03H3.79v5.33H1.52v-13.28h12.99v2.01H3.79Z"/>
    <path class="cls-4" d="M15.38,111c0-3.45,2.45-5.61,6.47-5.61s6.47,2.16,6.47,5.61-2.43,5.58-6.47,5.58-6.47-2.14-6.47-5.58ZM26.16,111c0-2.52-1.84-3.76-4.31-3.76s-4.29,1.23-4.29,3.76,1.84,3.72,4.29,3.72,4.31-1.23,4.31-3.72Z"/>
    <path class="cls-4" d="M42.64,105.79v10.39h-2.22v-2.01c-.91,1.48-2.62,2.39-4.74,2.39-3.17,0-4.74-2.03-4.74-4.84v-5.94h2.2v5.78c0,2.05,1.04,3.15,3.11,3.15,1.78,0,3.28-.83,4.17-2.54v-6.39h2.22Z"/>
    <path class="cls-4" d="M46.05,116.18v-10.39h2.22v2.01c.91-1.48,2.62-2.39,4.74-2.39,3.17,0,4.74,2.03,4.74,4.84v5.94h-2.2v-5.79c0-2.05-1.04-3.15-3.11-3.15-1.78,0-3.28.83-4.17,2.54v6.39h-2.22Z"/>
    <path class="cls-4" d="M70.77,107.65v-5.5h2.22v14.04h-2.22v-1.84c-.89,1.29-2.56,2.22-4.78,2.22-3.38,0-5.61-2.2-5.61-5.56s2.24-5.6,5.61-5.6c2.22,0,3.89.93,4.78,2.24ZM70.77,112.54v-3.11c-.99-1.54-2.48-2.12-4.21-2.12-2.58,0-4.02,1.31-4.02,3.7s1.44,3.68,4.02,3.68c1.73,0,3.22-.61,4.21-2.14Z"/>
    <path class="cls-4" d="M87.38,110.4v3.77c0,.78.13,1.4.47,2.01h-2.3c-.27-.46-.4-.97-.4-1.46v-.02c-.82,1-2.41,1.86-4.53,1.86-2.24,0-5.22-.91-5.22-3.64s2.98-3.62,5.22-3.62,3.72.85,4.53,1.86v-.76c0-2.24-1.37-3.24-4.04-3.24-1.54,0-2.75.34-3.94,1.04l-.8-1.5c1.29-.78,3.28-1.29,5.16-1.29,3.62,0,5.84,1.73,5.84,4.99ZM85.2,112.77c-.83-1.44-2.6-1.88-4.15-1.88-1.38,0-3.45.36-3.45,2.03s2.07,2.05,3.45,2.05c1.56,0,3.32-.46,4.15-1.88v-.32Z"/>
    <path class="cls-4" d="M98.04,115.59c-.85.57-2.01.97-3.21.97-2.03,0-3.64-1.08-3.64-3.24v-5.77h-2.01v-1.76h2.01v-2.41h2.22v2.41h4.53v1.76h-4.53v5.41c0,1.16.89,1.73,1.97,1.73.78,0,1.44-.29,2.07-.63l.59,1.54Z"/>
    <path class="cls-4" d="M99.8,103.13c0-.72.61-1.23,1.42-1.23s1.4.51,1.4,1.23c0,.68-.59,1.23-1.4,1.23s-1.42-.55-1.42-1.23ZM102.34,116.18h-2.2v-10.39h2.2v10.39Z"/>
    <path class="cls-4" d="M105.04,111c0-3.45,2.45-5.61,6.47-5.61s6.47,2.16,6.47,5.61-2.43,5.58-6.47,5.58-6.47-2.14-6.47-5.58ZM115.81,111c0-2.52-1.84-3.76-4.31-3.76s-4.29,1.23-4.29,3.76,1.84,3.72,4.29,3.72,4.31-1.23,4.31-3.72Z"/>
    <path class="cls-4" d="M120.67,116.18v-10.39h2.22v2.01c.91-1.48,2.62-2.39,4.74-2.39,3.17,0,4.74,2.03,4.74,4.84v5.94h-2.2v-5.79c0-2.05-1.04-3.15-3.11-3.15-1.78,0-3.28.83-4.17,2.54v6.39h-2.22Z"/>
  </g>
  <g>
    <path class="cls-4" d="M75.8,51.14c-5.8,9.34-18.41,16.14-35.81,16.14C14.96,67.28,0,54.58,0,33.64S14.96,0,39.8,0c15.59,0,26.29,5.8,32.64,12.6l-8.89,6.35c-5.62-6.35-13.06-9.43-23.66-9.43-17.86,0-28.83,8.16-28.83,24.12s11.15,24.12,29.38,24.12c11.15,0,20.22-2.9,24.84-10.15v-7.25h-26.48v-9.34h36.99v20.13Z"/>
    <path class="cls-4" d="M155.76,46.6c0,12.06-11.88,20.67-33.46,20.67-14.87,0-28.02-4.35-37.9-12.88l6.8-7.71c8.61,7.71,18.77,11.15,31.55,11.15,14.14,0,21.94-3.72,21.94-10.34s-7.98-8.25-23.94-9.61c-17.5-1.45-34-5.35-34-18.31S101.36,0,119.59,0c13.78,0,25.48,4.08,33.09,10.52l-6.89,7.43c-6.53-5.71-15.5-8.43-26.02-8.52-10.06-.09-22.03,2.36-22.03,9.43s10.61,7.89,24.48,8.98c19.77,1.54,33.55,5.53,33.55,18.77Z"/>
  </g>
  <g>
    <rect class="cls-3" x="173.03" y="0" width="54.13" height="15.58"/>
    <rect class="cls-2" x="147.23" y="25.8" width="51.59" height="15.58" transform="translate(206.61 -139.44) rotate(90)"/>
    <circle class="cls-4" cx="227.16" cy="7.79" r="7.79"/>
    <circle class="cls-4" cx="173.03" cy="59.38" r="7.79"/>
    <rect class="cls-1" x="180.82" y="25.8" width="31.59" height="15.58"/>
    <circle class="cls-4" cx="212.4" cy="33.59" r="7.79"/>
    <circle class="cls-5" cx="173.03" cy="7.79" r="7.79"/>
  </g>
</svg>