<svg id="Layer_1" data-name="Layer 1" xmlns="http://www.w3.org/2000/svg" viewBox="0 0 1125.05 1316.39"><defs><style>.cls-1{fill:#003336;}.cls-2{fill:#51dac5;}</style></defs><path class="cls-1" d="M48.52,1162.24v10.25H0v-72.1H48.31v10.36h-37v22.77H43.8v10.26H11.28v18.46Z"/><path class="cls-1" d="M104.85,1141.93v30.56H94v-30c0-8-4.51-13-11.59-13-6.15,0-10.67,3.89-12.82,9.23v33.84H58.7v-51.9H69.88l-.72,5.75h.31c3.38-4.21,8.61-6.77,15.07-6.77C97.06,1119.57,104.85,1128.49,104.85,1141.93Z"/><path class="cls-1" d="M166.78,1120.59v51.9H155.6l.72-5.53h-.41c-3.49,4.1-8.62,6.56-15.49,6.56-14.87,0-26.57-11.38-26.57-27s11.7-27,26.57-27c6.87,0,12,2.46,15.49,6.56h.41l-.72-5.54Zm-11,34.37v-16.83c-2.66-5.64-7.59-8.61-14.25-8.61-10.05,0-16.82,7-16.72,17s6.67,17,16.72,17C148.21,1163.57,153.14,1160.6,155.8,1155Z"/><path class="cls-1" d="M232.55,1146.54c0,15.29-11.08,27-25.85,27a21.41,21.41,0,0,1-16.3-6.87H190l.71,5.84H179.52v-73.23h11v27.08c3.59-3.9,8.82-6.77,16.2-6.77C221.47,1119.57,232.55,1131.26,232.55,1146.54Zm-11.08,0c0-10.25-6.77-17-16.2-17-7.18,0-12.1,3.59-14.77,8.92v16.21a15.61,15.61,0,0,0,14.67,8.92C214.81,1163.57,221.47,1156.6,221.47,1146.54Z"/><path class="cls-1" d="M242.7,1099.26h10.87v73.23H242.7Z"/><path class="cls-1" d="M264.08,1103.88a7.54,7.54,0,0,1,15.07,0,7.5,7.5,0,0,1-7.59,7.59A7.43,7.43,0,0,1,264.08,1103.88Zm2.15,16.71h11v51.9h-11Z"/><path class="cls-1" d="M335.93,1141.93v30.56H325.06v-30c0-8-4.51-13-11.59-13-6.15,0-10.67,3.89-12.82,9.23v33.84H289.78v-51.9H301l-.72,5.75h.31c3.38-4.21,8.61-6.77,15.07-6.77C328.14,1119.57,335.93,1128.49,335.93,1141.93Z"/><path class="cls-1" d="M397.86,1120.59v46.26c0,15.08-9.85,26.47-28,26.47-11,0-17.95-3-22.87-6.57l4.61-9c4.1,3,9.33,6.25,17.64,6.25,11.08,0,17.64-6.66,17.64-15.28v-1.64c-3.38,4-8.61,6.46-15.38,6.46-14.87,0-26.57-11.38-26.57-27s11.7-27,26.57-27c6.87,0,12,2.46,15.49,6.56h.41l-.72-5.54Zm-11,34.37v-16.83c-2.66-5.64-7.59-8.61-14.25-8.61-10.05,0-16.82,7-16.72,17s6.67,17,16.72,17C379.29,1163.57,384.22,1160.6,386.88,1155Z"/><path class="cls-1" d="M486.27,1120.59v46.26c0,15.08-9.85,26.47-28,26.47-11,0-17.95-3-22.88-6.57l4.62-9c4.1,3,9.33,6.25,17.64,6.25,11.08,0,17.64-6.66,17.64-15.28v-1.64c-3.38,4-8.61,6.46-15.38,6.46-14.88,0-26.57-11.38-26.57-27s11.69-27,26.57-27c6.87,0,12,2.46,15.49,6.56h.41l-.72-5.54Zm-11,34.37v-16.83c-2.66-5.64-7.59-8.61-14.25-8.61-10.06,0-16.83,7-16.72,17s6.66,17,16.72,17C467.7,1163.57,472.63,1160.6,475.29,1155Z"/><path class="cls-1" d="M498.93,1099.26H509.8v73.23H498.93Z"/><path class="cls-1" d="M519.5,1146.65c0-15.7,12.31-27,27.49-27s27.59,11.39,27.59,27-12.41,26.87-27.59,26.87S519.5,1162.24,519.5,1146.65Zm44,0c0-10-7.59-17.13-16.52-17.13s-16.41,7.18-16.41,17.13a16.47,16.47,0,1,0,32.93,0Z"/><path class="cls-1" d="M637.43,1146.54c0,15.29-11.08,27-25.85,27a21.41,21.41,0,0,1-16.3-6.87h-.41l.71,5.84H584.4v-73.23h11v27.08c3.59-3.9,8.82-6.77,16.2-6.77C626.35,1119.57,637.43,1131.26,637.43,1146.54Zm-11.08,0c0-10.25-6.76-17-16.2-17-7.18,0-12.1,3.59-14.77,8.92v16.21a15.61,15.61,0,0,0,14.67,8.92C619.69,1163.57,626.35,1156.6,626.35,1146.54Z"/><path class="cls-1" d="M697.28,1120.59v51.9H686.1l.71-5.53h-.41c-3.48,4.1-8.61,6.56-15.48,6.56-14.88,0-26.57-11.38-26.57-27s11.69-27,26.57-27c6.87,0,12,2.46,15.48,6.56h.41l-.71-5.54Zm-11,34.37v-16.83c-2.66-5.64-7.59-8.61-14.26-8.61-10,0-16.82,7-16.71,17s6.66,17,16.71,17C678.71,1163.57,683.64,1160.6,686.3,1155Z"/><path class="cls-1" d="M709.94,1099.26h10.87v73.23H709.94Z"/><path class="cls-1" d="M757.53,1103.88a7.54,7.54,0,0,1,15.07,0,7.54,7.54,0,1,1-15.07,0Zm2.15,16.71h11v51.9h-11Z"/><path class="cls-1" d="M832.78,1099.26v73.23H821.6l.72-5.53h-.41c-3.49,4.1-8.62,6.56-15.49,6.56-14.87,0-26.57-11.38-26.57-27s11.7-27,26.57-27c6.77,0,12,2.46,15.39,6.46v-26.77Zm-11,55.7v-16.83c-2.67-5.64-7.59-8.61-14.26-8.61-10,0-16.82,7-16.72,17s6.67,17,16.72,17C814.22,1163.57,819.14,1160.6,821.81,1155Z"/><path class="cls-1" d="M894.08,1149.72H853.57c1.64,8.52,9.23,14.06,18,14.06a21.63,21.63,0,0,0,15.08-5.85l4.71,8.62c-4.41,3.79-11,7-20.41,7-16.1,0-28.31-11.38-28.31-27,0-15.18,11.59-27,26.57-27,14.56,0,24.92,10.67,24.92,26C894.18,1146.75,894.18,1148.39,894.08,1149.72Zm-40.31-8.41h29.85c-.72-7.89-6.56-12.71-14-12.71C861.67,1128.6,855.62,1133.42,853.77,1141.31Z"/><path class="cls-1" d="M950.31,1141.93v30.56H939.43v-30c0-8-4.51-13-11.59-13-6.15,0-10.66,3.89-12.82,9.23v33.84H904.15v-51.9h11.18l-.72,5.75h.31c3.38-4.21,8.61-6.77,15.08-6.77C942.51,1119.57,950.31,1128.49,950.31,1141.93Z"/><path class="cls-1" d="M966.45,1154.55V1130H955.89v-9.44h11.18l-.82-14.76h11.59l-.92,14.76h19.69V1130H977.33v24.21c0,6.66,3.79,9.43,9,9.43,3.59,0,5.75-1,8.52-3.38l4.51,8.41a19.29,19.29,0,0,1-13.54,4.82C973.94,1173.52,966.45,1166.34,966.45,1154.55Z"/><path class="cls-1" d="M1004.37,1103.88a7.54,7.54,0,0,1,15.08,0,7.51,7.51,0,0,1-7.59,7.59A7.43,7.43,0,0,1,1004.37,1103.88Zm2.16,16.71h11v51.9h-11Z"/><path class="cls-1" d="M1034.69,1154.55V1130h-10.57v-9.44h11.19l-.83-14.76h11.59l-.92,14.76h19.7V1130h-19.29v24.21c0,6.66,3.8,9.43,9,9.43,3.59,0,5.74-1,8.51-3.38l4.51,8.41a19.29,19.29,0,0,1-13.53,4.82C1042.18,1173.52,1034.69,1166.34,1034.69,1154.55Z"/><path class="cls-1" d="M1125.05,1120.59l-24.82,52.93-8.51,18.26h-10.57l11.08-23.7-22-47.49h11.89l15.59,34.88,15.49-34.88Z"/><path class="cls-1" d="M73.49,1248.49c0,14.87-11,25.13-26.77,25.13H31.44v22H20.16v-72.11H46.72C62.62,1223.46,73.49,1233.82,73.49,1248.49Zm-11.69-.1c0-8.72-6.36-14.57-15.79-14.57H31.44v29.44H46C55.34,1263.26,61.8,1257.21,61.8,1248.39Z"/><path class="cls-1" d="M112,1243V1254a13.13,13.13,0,0,0-5.43-1.23c-8,0-12.1,4.41-14.57,9.23l-.1,33.54H81v-51.9H92.19l-.72,6.87a19.37,19.37,0,0,1,16.21-7.9C109.22,1242.64,110.86,1242.85,112,1243Z"/><path class="cls-1" d="M116,1269.72c0-15.69,12.31-27,27.49-27s27.59,11.38,27.59,27-12.41,26.88-27.59,26.88S116,1285.31,116,1269.72Zm44,0c0-10-7.59-17.13-16.51-17.13s-16.41,7.18-16.41,17.13a16.47,16.47,0,1,0,32.92,0Z"/><path class="cls-1" d="M184.77,1277.62v-24.51H174.21v-9.44h11.18l-.83-14.77h11.59l-.92,14.77h19.7v9.44H195.64v24.2c0,6.67,3.8,9.44,9,9.44,3.59,0,5.74-1,8.51-3.39l4.51,8.42a19.29,19.29,0,0,1-13.53,4.82C192.26,1296.6,184.77,1289.42,184.77,1277.62Z"/><path class="cls-1" d="M271.33,1272.8H230.81c1.64,8.51,9.23,14,18.05,14a21.63,21.63,0,0,0,15.08-5.84l4.72,8.61c-4.41,3.8-11,7-20.41,7-16.11,0-28.31-11.39-28.31-27,0-15.18,11.59-27,26.56-27,14.57,0,24.93,10.67,24.93,26.06C271.43,1269.83,271.43,1271.47,271.33,1272.8ZM231,1264.39h29.84c-.71-7.9-6.56-12.72-14-12.72C238.91,1251.67,232.86,1256.49,231,1264.39Z"/><path class="cls-1" d="M278.61,1269.72c0-15.69,11.9-27.08,28-27.08,9.13,0,14.77,2.77,17.95,5.54l-4.92,9a19,19,0,0,0-13-4.62,16.72,16.72,0,0,0-17.13,17.13c0,9.85,7.08,16.93,17,16.93,6.05,0,10.77-2,13.54-4.41l4.51,8.71c-3.28,2.77-8.71,5.65-17.95,5.65C290.1,1296.6,278.61,1285.21,278.61,1269.72Z"/><path class="cls-1" d="M339.78,1277.62v-24.51H329.22v-9.44H340.4l-.82-14.77h11.59l-.93,14.77h19.7v9.44H350.65v24.2c0,6.67,3.8,9.44,9,9.44,3.59,0,5.74-1,8.51-3.39l4.52,8.42a19.29,19.29,0,0,1-13.54,4.82C347.27,1296.6,339.78,1289.42,339.78,1277.62Z"/><path class="cls-1" d="M377.7,1227a7.54,7.54,0,0,1,15.08,0,7.51,7.51,0,0,1-7.59,7.59A7.42,7.42,0,0,1,377.7,1227Zm2.15,16.72h11v51.9h-11Z"/><path class="cls-1" d="M449.56,1265v30.57H438.68v-30c0-8-4.51-13-11.59-13-6.15,0-10.66,3.9-12.82,9.23v33.85H403.4v-51.9h11.18l-.72,5.74h.31c3.38-4.2,8.62-6.77,15.08-6.77C441.76,1242.64,449.56,1251.57,449.56,1265Z"/><path class="cls-1" d="M511.48,1243.67v46.26c0,15.08-9.84,26.46-28,26.46-11,0-18-3-22.87-6.56l4.61-9c4.11,3,9.34,6.26,17.65,6.26,11.07,0,17.64-6.67,17.64-15.28v-1.65c-3.39,4-8.62,6.47-15.39,6.47-14.87,0-26.56-11.39-26.56-27s11.69-27,26.56-27c6.87,0,12,2.47,15.49,6.57H501l-.72-5.54Zm-11,34.36v-16.82c-2.67-5.64-7.59-8.62-14.26-8.62-10.05,0-16.82,7-16.72,17s6.67,17,16.72,17C492.92,1286.65,497.84,1283.67,500.51,1278Z"/><path class="cls-1" d="M599.89,1222.34v73.23H588.71l.72-5.54H589c-3.49,4.1-8.62,6.57-15.49,6.57-14.87,0-26.57-11.39-26.57-27s11.7-27,26.57-27c6.77,0,12,2.47,15.39,6.47v-26.77Zm-11,55.69v-16.82c-2.67-5.64-7.59-8.62-14.26-8.62-10,0-16.82,7-16.72,17s6.67,17,16.72,17C581.33,1286.65,586.25,1283.67,588.92,1278Z"/><path class="cls-1" d="M610.47,1227a7.54,7.54,0,0,1,15.08,0,7.51,7.51,0,0,1-7.59,7.59A7.42,7.42,0,0,1,610.47,1227Zm2.15,16.72h11v51.9h-11Z"/><path class="cls-1" d="M685.72,1243.67v46.26c0,15.08-9.84,26.46-28,26.46-11,0-18-3-22.87-6.56l4.61-9c4.11,3,9.34,6.26,17.65,6.26,11.07,0,17.64-6.67,17.64-15.28v-1.65c-3.39,4-8.62,6.47-15.39,6.47-14.87,0-26.56-11.39-26.56-27s11.69-27,26.56-27c6.88,0,12,2.47,15.49,6.57h.41l-.72-5.54Zm-11,34.36v-16.82c-2.67-5.64-7.59-8.62-14.26-8.62-10,0-16.82,7-16.72,17s6.67,17,16.72,17C667.16,1286.65,672.08,1283.67,674.75,1278Z"/><path class="cls-1" d="M696.3,1227a7.54,7.54,0,0,1,15.08,0,7.51,7.51,0,0,1-7.59,7.59A7.43,7.43,0,0,1,696.3,1227Zm2.16,16.72h11v51.9h-11Z"/><path class="cls-1" d="M726.62,1277.62v-24.51H716.06v-9.44h11.18l-.82-14.77H738l-.93,14.77h19.7v9.44H737.49v24.2c0,6.67,3.8,9.44,9,9.44,3.59,0,5.74-1,8.51-3.39l4.52,8.42A19.29,19.29,0,0,1,746,1296.6C734.11,1296.6,726.62,1289.42,726.62,1277.62Z"/><path class="cls-1" d="M814.39,1243.67v51.9H803.21l.71-5.54h-.41c-3.48,4.1-8.61,6.57-15.48,6.57-14.88,0-26.57-11.39-26.57-27s11.69-27,26.57-27c6.87,0,12,2.47,15.48,6.57h.41l-.71-5.54Zm-11,34.36v-16.82c-2.66-5.64-7.59-8.62-14.26-8.62-10,0-16.82,7-16.71,17s6.66,17,16.71,17C795.82,1286.65,800.75,1283.67,803.41,1278Z"/><path class="cls-1" d="M827.05,1222.34h10.87v73.23H827.05Z"/><path class="cls-1" d="M882,1277.62v-24.51H871.46v-9.44h11.18l-.82-14.77h11.59l-.93,14.77h19.7v9.44H892.89v24.2c0,6.67,3.8,9.44,9,9.44,3.59,0,5.74-1,8.51-3.39l4.52,8.42a19.29,19.29,0,0,1-13.54,4.82C889.51,1296.6,882,1289.42,882,1277.62Z"/><path class="cls-1" d="M953,1243V1254a13.22,13.22,0,0,0-5.44-1.23c-8,0-12.1,4.41-14.56,9.23l-.11,33.54H922v-51.9h11.18l-.72,6.87a19.37,19.37,0,0,1,16.21-7.9C950.21,1242.64,951.85,1242.85,953,1243Z"/><path class="cls-1" d="M1005.78,1243.67v51.9H994.6l.71-5.74H995a19,19,0,0,1-15.08,6.77c-12,0-20-8.62-20-21.85v-31.08h11v30c0,8.11,4.41,13,11.28,13,6.16,0,10.47-3.9,12.62-9.13l.1-33.95Z"/><path class="cls-1" d="M1014.51,1290.24l4.62-8.82a24.26,24.26,0,0,0,15.28,6.15c5.33,0,8.72-2.36,8.72-6.15,0-4-3.18-6.16-10.06-7.8-10.87-2.67-16.3-7.69-16.3-15.59,0-9.23,7.79-15.39,19.28-15.39a26.76,26.76,0,0,1,16.21,5l-4.42,8.62a18.59,18.59,0,0,0-12.2-4.52c-5.13,0-8.1,2-8.1,5.54,0,3.8,2.56,5.64,10.15,7.28,10.46,2.26,16.1,7.49,16.1,16.31,0,9.54-7.69,15.7-19.69,15.7A32,32,0,0,1,1014.51,1290.24Z"/><path class="cls-1" d="M1069,1277.62v-24.51h-10.56v-9.44h11.18l-.82-14.77h11.59l-.93,14.77h19.7v9.44h-19.29v24.2c0,6.67,3.8,9.44,9,9.44,3.59,0,5.74-1,8.51-3.39l4.52,8.42a19.31,19.31,0,0,1-13.54,4.82C1076.48,1296.6,1069,1289.42,1069,1277.62Z"/><path class="cls-2" d="M1001.16,578.45C965.38,791.07,780,953.58,557.38,953.58c-248.17,0-450.06-201.9-450.06-450.06s201.89-450,450.06-450c222.21,0,407.3,161.89,443.58,373.92h54.19C1018.34,185.74,809.15,0,557.38,0,279.73,0,53.85,225.88,53.85,503.52s225.88,503.53,503.53,503.53c252.18,0,461.65-186.37,497.94-428.6Z"/><path class="cls-2" d="M557.38,115.57c-187.87,0-345,134.23-380.44,311.82h54.8C266.3,279.53,399.13,169,557.38,169c184.43,0,334.48,150,334.48,334.48S741.81,838,557.38,838c-158.68,0-291.8-111.09-325.92-259.55H176.71c35,178.18,192.37,313,380.67,313,213.91,0,388-174,388-388S771.29,115.57,557.38,115.57Z"/><path class="cls-1" d="M277.36,503.2c0,42.07,32.25,72.6,76.68,72.6a85.94,85.94,0,0,0,52.25-17.75V499.21H376.12V525.1h0v18.36l-.71.28a56.32,56.32,0,0,1-19.94,3.73c-27.82,0-46.52-17.79-46.52-44.27,0-26.07,18.29-44.28,44.48-44.28,12.9,0,22.92,3.77,32.31,12.18l14.11-24.84C386.63,436,370.11,430.59,352,430.59,308.76,430.59,277.36,461.12,277.36,503.2Z"/><polygon class="cls-1" points="434.41 432.63 434.41 573.57 530.75 573.57 530.75 545.64 465.59 545.64 465.59 432.63 434.41 432.63"/><polygon class="cls-1" points="641.47 520.82 641.47 492.9 581.81 492.9 581.81 460.55 649.21 460.55 649.21 432.63 550.63 432.63 550.63 573.57 650.23 573.57 650.23 545.84 581.81 545.84 581.81 520.82 641.47 520.82"/><rect class="cls-1" x="675.96" y="432.63" width="31.18" height="140.94"/><polygon class="cls-1" points="826.92 495.95 771.12 495.95 771.12 460.55 838.12 460.55 838.12 432.63 739.94 432.63 739.94 573.57 771.12 573.57 771.12 523.88 826.92 523.88 826.92 495.95"/></svg>