<svg xmlns="http://www.w3.org/2000/svg" role="img" viewBox="-0.26 0.24 442.26 70.26"><style>svg {enable-background:new 0 0 442 71}</style><path d="M401.16 49.04c-7.84 0-14.22-6.08-14.22-13.55s6.38-13.55 14.22-13.55h32.44v4.95h-32.44c-4.98 0-9.03 3.86-9.03 8.6s4.05 8.6 9.03 8.6h27.24v-6.12h-24.27v-4.95h29.47v16.02h-32.44zm-203.13 0V33.02h36.74c1.77 0 3.22-1.37 3.22-3.06s-1.44-3.06-3.22-3.06h-36.74v-4.95h36.74c4.64 0 8.41 3.59 8.41 8.01s-3.77 8.01-8.41 8.01h-31.54v11.07h-5.2z"/><path d="M262 21.95h45.16v4.95H262zm0 27.09V33.02h45.16v4.95h-39.95v6.12h39.95v4.95z"/><path d="M363.75 49.04l-34.08-21.55v21.55h-5.2V21.95h5.88l34.07 21.55V21.95h5.2v27.09zm-193.11 0l-14.88-10.69-14.63 10.69h-8.57l18.91-13.78-18.25-13.31h8.58l13.96 10.21 14.22-10.21h8.57l-18.5 13.31 19.17 13.78z"/><g><path d="M110.03 60.15c-6.1-7.2-12.19-14.4-18.3-21.59l-.02-.02c-.67-.78-1.05-.98-2.11-1.05h-.02c-6.97-.51-13.48-.73-20.5-1.23h-.01c-.23-.02-.41-.21-.41-.44v-.02-.66c0-.23.18-.43.41-.44h.03c6.99-.49 13.47-.72 20.4-1.22l.09-.01c1.06-.08 1.45-.27 2.11-1.05l.01-.02C97.74 25.3 110 10.79 110 10.79c.8-.95.37-1.99-.86-1.99h-.02c-2.07-.01-4.69-.01-6.76.02h-.01c-1.09.02-1.53.13-2.5.64l-.02.01c-10.95 5.76-27.65 14.66-38.54 20.55l-.03.01c-.32.17-.61.34-.8.65-.19.31-.2.65-.2 1.01v.01c-.02 2.2-.02 5.36 0 7.56v.01c0 .36.01.7.2 1.01s.48.48.8.65l.01.01c10.53 5.69 27.74 14.88 38.55 20.59l.01.01c.96.51 1.41.62 2.5.64h.01c1.96.03 4.56.04 6.78.02h.01c1.28-.01 1.72-1.08.9-2.05m-101.21 0c6.1-7.2 12.19-14.4 18.3-21.59l.02-.02c.66-.78 1.05-.98 2.11-1.05h.02c6.97-.51 13.48-.73 20.5-1.23h.01c.23-.02.41-.21.41-.44v-.02-.66c0-.23-.18-.43-.41-.44h-.03c-6.99-.49-13.47-.72-20.4-1.22l-.09-.01c-1.06-.08-1.45-.27-2.11-1.05l-.01-.02C21.11 25.3 8.85 10.79 8.85 10.79c-.8-.95-.37-1.99.86-1.99h.02c2.07-.01 4.69-.01 6.76.02h.01c1.09.02 1.53.13 2.5.64l.02.01c10.95 5.76 27.65 14.66 38.54 20.55l.03.01c.32.17.61.34.8.65.19.31.2.65.2 1.01v.01c.02 2.2.02 5.36 0 7.56v.01c0 .36-.01.7-.2 1.01s-.48.48-.8.65l-.01.01c-10.53 5.69-27.74 14.88-38.55 20.59l-.01.01c-.96.51-1.41.62-2.5.64h-.01c-1.96.03-4.56.04-6.78.02h-.01c-1.29-.01-1.72-1.08-.9-2.05"/></g></svg>