<svg xmlns="http://www.w3.org/2000/svg" role="img" viewBox="-6.44 -6.44 334.62 123.87"><path fill="#1e1711" fill-rule="evenodd" d="M186.96.48c-.65.25-.53.34-.96.72-.02 1.41.14 1.83 1.2 2.16.44.3 1.37.27 2.16.24v3.84c-.1.17-.85.24-.96.48-.29.63.78 4.78.24 6-.29.64-.99 3.54-.96 3.6.03 1.81.11 3.92-.48 5.04h-.48l-1.2-5.04c-.22-.62-1-1.19-1.2-1.68-.41-.98-.51-4.61-.48-6-.94-.51-3.01-2.28-4.32-1.44-2.9 1.02-3.01 8.13-4.32 11.04v2.64c-.15.41-.66 1.94-.96 2.4v.24H174c-.38-7.08-2-13.68-1.92-21.12h4.08c-.39-.94-.8-1.8-1.2-2.64-2.04-.55-8.45-1.74-10.32 0l-.72.24c-.02 1.32.08 2.14.48 2.88.83.16 2.24.29 2.88.72 1.16.79-.21 2.56.48 3.84 1.95 3.6 1.16 10.31 2.16 14.88.46 2.1-.57 5.69.72 6.96-.1 2.1.12 2.93 1.68 3.36v.24h4.32c.85-.61.54-2.86.96-4.08.06-.18.67-.59.72-.72v-2.16h.48c.35-.78.14-3.6.48-4.56v-3.12c.5-1.4 1.24-2.15 1.2-4.32 1 1.45.31 3.19.96 5.04.81 2.29 1.49 5.42 2.16 7.92v2.64c.37.89 1.41 2.06 1.92 2.88.99.27 2.72 1.24 3.84.48 1.13-.42.67-.68 1.2-1.68.24-.45 1.01-1.42 1.2-1.92v-9.12l.48-.24v-3.36c.15-.4.64-.74.72-1.44v-3.84c.11-.41.89-1.18.96-1.44.17-.63-.26-.94-.48-1.2-.03-1.44-.38-4.32.24-5.28.75-.48 3.06-.64 4.08-1.2.03-1.38-.05-2-.72-2.64-1-.74-9.07-1.05-10.08-.24zM79.68 8.88c-.29-1.36.37-3.33-.24-4.32.03-2.26-.63-2.31-1.68-3.36-1.3-.05-2.17.93-4.08.48-1.49-.35-4.47-1.4-6-.24l-.48.24c.06 1.22.28 1.22.72 1.92 1.79.07 6.99.2 8.16.96 2.17 2.85.11 12.25-.48 14.88-.31 1.39.48 2.6.48 2.88 0 2.02-.28 4.94-1.2 6.24-1.21 1.47-4.02.45-6 1.2l-1.68 1.2c-.04 1.19-.02 1.11 0 2.4 6.29.78 17.27 1.86 22.08-.96v-1.44c-3.64-.42-6.73-.55-9.12-1.92.02-6.41.73-14.5-.48-20.16zm27.84 0c-.29-1.36.37-3.33-.24-4.32.03-2.26-.63-2.31-1.68-3.36-1.3-.05-2.17.93-4.08.48-1.49-.35-4.47-1.4-6-.24l-.48.24c.06 1.22.28 1.22.72 1.92 1.79.07 6.99.2 8.16.96 2.17 2.85.11 12.25-.48 14.88-.31 1.39.48 2.6.48 2.88 0 2.02-.28 4.94-1.2 6.24-1.21 1.47-4.02.45-6 1.2l-1.68 1.2c-.04 1.19-.02 1.11 0 2.4 6.29.78 17.27 1.86 22.08-.96v-1.44c-3.64-.42-6.73-.55-9.12-1.92.02-6.41.73-14.5-.48-20.16zm137.28 0c-.29-1.36.37-3.33-.24-4.32.03-2.26-.63-2.31-1.68-3.36-1.3-.05-2.17.93-4.08.48-1.49-.35-4.47-1.4-6-.24l-.48.24c.06 1.22.28 1.22.72 1.92 1.79.07 6.99.2 8.16.96 2.17 2.85.11 12.25-.48 14.88-.31 1.39.48 2.6.48 2.88 0 2.02-.28 4.94-1.2 6.24-1.21 1.47-4.02.45-6 1.2l-1.68 1.2c-.04 1.19-.02 1.11 0 2.4 6.29.78 17.27 1.86 22.08-.96v-1.44c-3.64-.42-6.73-.55-9.12-1.92.02-6.41.73-14.5-.48-20.16zm54.24 14.16c1.21 0 1.6-.13 2.16-.72 1.72-2.35.63-10.06 1.2-13.68l.96-3.36c-.3-1.57-1.63-3.62-3.12-4.08-.34-.23-.79-.24-1.44-.24-3.97 4.2-2.73 16.89-.24 21.84.41.15.23.05.48.24zM26.64 1.44c-1.18-.02-3.34.42-4.08.24-1.06-.25-3.12-2.21-5.04-.96-1.83-.08-2.33.28-2.64 1.68-.19.25-.09.06-.24.48l1.2 1.68c1.02.21 2.48.26 3.84.24-.05 3.97-.54 7.88 1.44 10.08v.24c-5.1 0-7.2.24-11.76.24 0-3.94.03-7.15 0-10.56 1.08.03 2.93.21 3.6-.24l.72-.24c.12-.51.21-.87.48-1.2-.06-1.25-.33-1.58-.72-2.4C12.05.43 4.71 0 3.6.72 1.56.68 1.07.97 0 1.68-.03 3.55.3 3.81.96 4.8h4.08c-.01 9.24-.39 19.14.48 25.44-2.36.06-3.92.7-5.52 1.44.04 1.94.7 2.03 1.44 3.12 1.95.01 11.28-.12 12.24-.72h.48c.16-5.11-1.38-2.32-4.08-3.84H9.6c0-1.83 0-10.32-.24-10.8v-.48h6c.29-.14-.2-.54.48-.48 1.33.13 3.93 1.03 5.28 0h.24c.11 2.19-.05 3.15-1.68 3.6.06 3.45.46 5.13.48 8.4l-4.8.24v3.36c2.29.59 10.97 1.12 12.72-.24l.72-.24c.06-2.57-2.14-3.42-4.56-3.36-.05-1.17-1.24-7.33-.96-8.16.09-.27.97-1 .96-1.44-.04-1.21-.94-2.44-2.16-2.64.83-.65 1.52-.53 1.92-1.68.12-.28-.23-9.46-.24-11.52 1.94-.09 3.61-.59 5.04-.96V3.6c-.8-.52-1.65-1.36-2.16-2.16zM279.84 24c-1.38 2.04-4.07 3.27-5.76 5.04-2.7-.03-1.82-1.85-2.88-3.36-.03-3.05-.65-8.14.48-10.32 1.23-.31 4.52-1.48 6-.48 1.43 0 1.62-.23 2.4-.72.16-.41.05-.23.24-.48.02-1.27-.1-1.93-.48-2.64-1.74.03-7.12.43-8.16-.24h-.48c.03-1.8.57-5.7-.24-6.96-.09-1.69-2.12-2.62-3.36-1.44-.78.99-1.42 6.9-1.44 8.64-4.11-.06-4.33-.19-6.72 1.44 0 .65 0 1.1.24 1.44.25.55.41.52.72.96 2.27 0 4.81.02 6.72.24-.15 5.09-1.93 14.29.72 18 5.28 7.38 13.81-.49 13.68-7.92-.22-.22-.32-.42-.48-.72l-1.2-.48zM56.16 29.76c-1.86-2.39.42-7.46-.48-11.52-.35-1.56-.41-3.62-1.2-4.8-.6-.9-1.78-1.44-2.4-2.4-3.31-.28-5.65-1.25-9.36-1.2-1.15 1.34-3.94 1.24-5.28 2.4-1.2.48-1.08 1.62-1.92 2.4 0 2.56.92 2.71 1.92 4.08 1.56.09 2.62.23 3.6-.72.65-.32.68-.78 1.2-1.2.02-.84.08-1.92-.24-2.4v-.24c3.71 0 6.82.37 9.12 1.68v2.64c-1.35.35-3.04.86-4.56 1.2-3.31.74-6.45.05-9.12 1.2-1.79.77-2.35 2.55-3.6 3.84-.08 4.74.28 7.19 3.12 8.88 4.01 2.4 13.05-.23 14.88-2.88.78.84 1.14 2.31 2.16 2.88.68.38.74-.04 1.2.48 3.34.1 5.08.16 6.24-1.92.45-.42-.87-1.44-1.2-1.92-1.6-.27-2.62.47-4.08-.48zm-5.04-4.08c-4.32 2.58-6.4 6.45-12.96 3.12-.16-.41-.05-.23-.24-.48v-2.4c.82-1.83 10.16-3.15 13.2-3.12v2.88zM208.2 11.52l-5.04 4.56c-.73 1.24-.55 1.85-1.68 2.64v5.52c-.14.41-.78 1.11-.48 2.16.61 2.16 2.1 4.54 3.36 6.24.71.96 2.14 1.17 3.36 1.68.87.36 2.19 1.16 3.12 1.44 3.3 1 9.1-2.17 10.56-3.36.67-.55.86-1.75 1.44-2.4-.04-1.54-.39-1.55-.96-2.4-4.6.03-3.8 2.05-6.96 3.36-1.85.77-3.25.1-5.28 0-1.76-1.79-3.97-3.03-4.08-6.48h18v-5.76c-.11-.27-3.69-5.19-3.84-5.28-2.54-1.44-7.5-3.71-11.52-1.92zm11.04 9.12c-3.32-.03-5.6 0-9.12 0-1.22 0-3.29-.26-4.08.24h-.24c.11-.54.21-.27 0-.72 1.1-1.2 2.31-2.86 3.6-3.84.75-.57 2.15-.42 2.88-.96 4.06.08 4.97 2.91 6.96 5.04v.24zm81.48 4.8l-1.92-.24c-.94.86-4.2 3.68-2.88 5.76.14 2.15 3.85 4.45 6 2.64 3.6-2.42.2-6.46-1.2-8.16z"/><path fill="#2b80eb" fill-rule="evenodd" d="M217.47 79.29l1.34 4.99 1.72-.46 1.04 3.89c.41 1.53.57 2.59.49 3.17-.08.59-.43.96-1.06 1.13-.57.15-1.01.02-1.32-.4-.31-.42-.67-1.36-1.06-2.83l-4.22-15.76c-.45-1.68-.63-2.74-.55-3.2.08-.46.38-.75.91-.9.61-.16 1.06-.03 1.35.4.29.43.69 1.58 1.19 3.46l.8 2.98 8.54-2.29-.38-1.42c-.72-2.69-1.52-4.67-2.4-5.95-.88-1.28-2.28-2.21-4.21-2.8-1.93-.59-4.14-.54-6.64.13-2.54.68-4.46 1.83-5.74 3.44-1.29 1.61-1.91 3.17-1.86 4.68.04 1.51.48 3.83 1.32 6.97l2.61 9.75c.6 2.26 1.14 3.93 1.6 5.01.47 1.09 1.16 2.06 2.08 2.91.92.85 2.11 1.46 3.54 1.82 1.44.36 2.87.35 4.31-.04 1.2-.32 2.18-.86 2.93-1.6.75-.74 1.28-1.7 1.59-2.87l1.42 2.14 5.37-1.44-4.72-17.62-10 2.68zm41.24-17.78c-.52-.91-1.33-1.58-2.42-2.01-1.09-.43-2.34-.46-3.73-.09-1.05.28-1.95.79-2.68 1.53-.73.74-1.3 1.71-1.72 2.91-1.8-1.69-3.8-2.25-5.99-1.66-1.12.3-2.05.82-2.8 1.57-.74.74-1.3 1.71-1.66 2.89l-.54-2.6-8.09 2.17 7.21 26.91 7.95-2.13-5-18.66c-.35-1.3-.56-2.15-.64-2.56-.08-.41-.03-.78.15-1.13.18-.35.46-.57.82-.67.58-.16 1.01.01 1.28.51.27.49.76 2.06 1.46 4.69l4.58 17.1 7.95-2.13-4.7-17.54c-.62-2.31-.92-3.76-.89-4.35.02-.59.33-.96.91-1.11.57-.15 1 .03 1.3.53.3.51.76 1.91 1.38 4.21l4.7 17.54 7.95-2.13-5.12-19.12c-.59-2.2-1.15-3.76-1.67-4.67zm24.27-1.93c-.53-1.99-.92-3.27-1.17-3.86-.25-.58-.68-1.14-1.28-1.66s-1.36-.84-2.28-.98c-.92-.13-1.94-.05-3.06.26-.97.26-1.82.7-2.55 1.3-.73.61-1.32 1.4-1.79 2.36l-2.08-7.77-8.19 2.2 8.8 32.83 7.67-2.05-.02-2.17c.91.66 1.84 1.08 2.79 1.28.94.2 1.9.17 2.86-.09 1.34-.36 2.4-1.02 3.18-1.99.78-.97 1.18-1.97 1.18-3.01 0-1.04-.26-2.54-.79-4.52L283 59.58zm-5.32 17.88c-.5.13-.89.02-1.17-.34-.28-.36-.61-1.26-1-2.71l-3.11-11.6c-.4-1.5-.58-2.46-.53-2.87.05-.41.32-.68.82-.82.51-.14.92-.02 1.21.36.29.38.62 1.27 1 2.66l3.04 11.34c.43 1.6.62 2.62.58 3.08-.04.46-.32.76-.84.9zm25.65-2.29l8.54-2.29-8.8-32.83-8.54 2.29 3.15 11.74-2.56.68-3.15-11.74-8.54 2.29 8.8 32.83 8.54-2.29-3.7-13.79 2.55-.68 3.7 13.79z"/><path fill="#2b80eb" fill-rule="evenodd" d="M308.4 27.99c-.2-.85.02-3.15-3.75-2.23-7.55 1.84-31.12 8.63-112.14 30.88-2.58.71-1.86 2.79-1.86 2.79s2.96 11.39 6.11 23.45c.58 2.21.73 4.49 1.34 6.67 1.27 4.6 2.99 8.36 4.16 11.97 3.06 9.4 4.3 10.29 8.96 9.13 20.76-5.19 107.03-27.2 110.68-30.58.63-.58-11.21-42.24-13.49-52.09zm10.29 50.55c-7.67 4.36-15.32 4.61-24.84 7.7-25.48 8.26-48.12 13.59-64.21 16.91-10.75 2.22-18.37 4-20.8 3.98-3.65-.02-4.23-4-4.96-6.46-.35-1.18-2.45-6-3.51-10.62-.54-2.37-.31-3.37-1.31-6.09-4.23-11.54-4.7-21.82-4.7-21.82s-.57-1.8 1.91-2.95c1.42-.65 4.95-1.9 16.75-4.55.82-.18 5.87-1.54 6.7-1.83 26.55-9.41 66.52-18.64 80.01-21.95 2.45-.6 4.64-1.67 6.52-.45 1.65 1.07 9.67 27.36 10.8 39.05.45 4.66 2.94 8.36 1.65 9.09z"/><path fill="#1e1711" d="M145.56 25.8c0-.24-.14-.48-.42-.71l-.71-.65c-.75.97-1.13 1.98-1.13 3.06 0 .25.02.5.06.75-.3.46-.98 1.05-2.02 1.75-.86.58-1.45 1.28-1.79 2.08-.11.03-.21.04-.3.04-.21 0-.46-.15-.73-.44-.2-.24-.4-.47-.6-.69l2.14-2.74c1.14-1.73 1.71-3.71 1.71-5.93 0-.22-.03-.6-.08-1.13-.03-.32.17-.68.58-1.09-.37-.24-.71-.65-1.01-1.23-.13-.23-.34-.72-.62-1.49.46-.22.85-.34 1.17-.34.57 0 .99.53 1.27 1.59l.36 2.28c.28.91.79 1.37 1.55 1.37.46-.7.69-1.35.69-1.94s-.45-1.48-1.35-2.62c-.95-1.2-1.46-2.04-1.53-2.5-2.05-1.57-4.14-2.73-6.27-3.45-2.12-.37-3.09-.56-2.94-.56-.38 0-.58.17-.58.52 0 .23.07.54.2.95.08.24.12.45.12.64 0 .29-.21.6-.62.91 0 .07.44.29 1.33.65.17.08.42.33.75.75s.66.67.99.73c.45.03.9.05 1.35.08.45.03.67.19.67.48 0 .86-.12 1.41-.36 1.65-.26.67-.46 1.28-.6 1.83-.04.13-.23.92-.56 2.36-.19.85-.44 1.61-.77 2.28-.78 1.57-1.19 2.39-1.23 2.44-.49.78-1.14 1.34-1.94 1.67-.61.25-1.22.38-1.82.38-1.28 0-2.66-.61-4.15-1.83-1.04-.85-1.65-2.28-1.8-4.29-.05-1.31-.11-2.62-.18-3.93.28-.03.63-.56 1.07-1.61.5-1.24 1-2.08 1.5-2.5.5-.42 1-.84 1.5-1.25.33-.28.5-.7.5-1.27 0-.21.06-.32.18-.32.14 0 .5.27 1.07.8.57.54.93.8 1.09.8.08 0 .13-.06.16-.18.15-.79.08-1.47-.2-2.02-.17-.34-.68-.65-1.52-.92s-1.29-.49-1.34-.66c-.05-.17-.22-.26-.5-.26-.25 0-.55.07-.89.2-3.09 1.24-5.45 3.97-7.06 8.18-.46 1.19-.69 2.38-.69 3.57 0 1.81.56 3.73 1.67 5.74.81 1.46 2.1 3.25 3.89 5.4 1.36.77 3.29 1.15 5.77 1.15.56 0 1.38-.03 2.48-.09s1.92-.09 2.48-.09c.7 0 1.3.03 1.79.08 1.28-.19 2.54-.76 3.77-1.73 1.12-.87 2.05-1.92 2.78-3.14l-.54-.58 2.16-1.05c.08-.3-.1-.67-.54-1.11l.54-.52c.03-.11.04-.2.04-.3z"/></svg>