<?xml version="1.0" encoding="UTF-8" standalone="no"?>
<svg
   xmlns:dc="http://purl.org/dc/elements/1.1/"
   xmlns:cc="http://creativecommons.org/ns#"
   xmlns:rdf="http://www.w3.org/1999/02/22-rdf-syntax-ns#"
   xmlns:svg="http://www.w3.org/2000/svg"
   xmlns="http://www.w3.org/2000/svg"
   xmlns:sodipodi="http://sodipodi.sourceforge.net/DTD/sodipodi-0.dtd"
   xmlns:inkscape="http://www.inkscape.org/namespaces/inkscape"
   version="1.1"
   id="svg2"
   xml:space="preserve"
   width="1134.6667"
   height="1134.6667"
   viewBox="0 0 1134.6667 1134.6667"
   sodipodi:docname="eps rgb-1.eps"><metadata
     id="metadata8"><rdf:RDF><cc:Work
         rdf:about=""><dc:format>image/svg+xml</dc:format><dc:type
           rdf:resource="http://purl.org/dc/dcmitype/StillImage" /></cc:Work></rdf:RDF></metadata><defs
     id="defs6" /><sodipodi:namedview
     pagecolor="#ffffff"
     bordercolor="#666666"
     borderopacity="1"
     objecttolerance="10"
     gridtolerance="10"
     guidetolerance="10"
     inkscape:pageopacity="0"
     inkscape:pageshadow="2"
     inkscape:window-width="640"
     inkscape:window-height="480"
     id="namedview4" /><g
     id="g10"
     inkscape:groupmode="layer"
     inkscape:label="ink_ext_XXXXXX"
     transform="matrix(1.3333333,0,0,-1.3333333,0,1134.6667)"><g
       id="g12"
       transform="scale(0.1)"><path
         d="M 0,8503.94 H 8503.94 V 0 H 0 v 8503.94"
         style="fill:#242936;fill-opacity:1;fill-rule:evenodd;stroke:none"
         id="path14" /><path
         d="m 5053.25,3398.54 c -57.72,222.66 105.93,336.95 130.16,572.59 18.36,178.57 -70.59,260.61 40.49,438.6 -25.68,-77.65 -26.76,-151.32 -3.24,-221.03 333.95,244.35 496.91,605.36 488.81,1083.05 259.79,-37.52 445.84,76.5 558.17,342.07 -129.53,-156.2 -447.12,156.26 -584.45,-105.36 -118.21,290.9 -323.17,48.75 -516.46,259.7 25.78,-331.22 124.54,-445.83 388.15,-472.05 15.46,14.07 29.79,42.8 34.32,58.28 -60.11,-455.16 -252.02,-662.95 -539.38,-636.16 -0.28,-23.14 -6.78,-66.62 -18.45,-88.2 -163.21,788.46 -941.53,1469.34 -1767.79,1438.91 63.38,0.42 127.35,-9.55 188.26,-26.34 163.02,-44.92 316.52,-140.12 441.6,-252.49 83.97,-75.45 145.24,-173.44 197.71,-272.39 26.72,-50.4 81.6,-150.01 140.07,-243.32 174.41,-278.34 548.35,-213.18 598.34,-574.74 52.39,-378.98 -336.88,-988.22 223.69,-1301.12"
         style="fill:#008fd6;fill-opacity:1;fill-rule:evenodd;stroke:none"
         id="path16" /><path
         d="m 3826.65,5489.75 c -10.9,-547.27 306.02,-895.02 885.3,-1047.89 19.83,83.23 58.51,358.91 -167.54,474.05 -124.82,63.58 -278.52,75.75 -422.58,340.61 -88.84,163.33 -141.38,333.89 -288.81,466.34 -416.66,374.36 -980.73,377.53 -927.77,-258.92 21.57,-259.4 182.47,-584.46 512.79,-877.59 -125.66,-248.14 -77.63,-457.79 144.16,-628.93 -76.67,206.81 136.37,253.7 134.53,417.45 56.19,-36.59 115.58,-72.17 178.3,-106.47 -386.62,269.19 -828.58,719.16 -825.85,1222.44 0.76,141.46 41.66,302.78 184.01,327.86 l -0.06,-0.07 c -43.23,-823.92 361.16,-1390.11 1224.72,-1669.25 -775.22,339.18 -1110.8,899.74 -1018.33,1652.37 46.13,-13.93 92.41,-34.04 137.13,-59.5 -84.29,-749.78 248.73,-1250 987.21,-1500.67 11.78,-4.01 23.66,-7.95 35.65,-11.81 -10.23,4.47 -20.38,8.99 -30.42,13.55 -606.16,275.07 -904.39,716.2 -830.72,1349.85 31.29,-19.95 71.38,-68.94 88.28,-103.42"
         style="fill:#ffffff;fill-opacity:1;fill-rule:evenodd;stroke:none"
         id="path18" /><path
         d="m 1123.14,4007.32 h 207.47 v -405.81 c 40.77,35.28 82.05,61.67 123.34,79.18 41.28,17.77 83.09,26.65 125.42,26.65 82.83,0 152.34,-28.75 209.04,-85.96 48.61,-49.39 72.64,-122.04 72.64,-218.2 v -550.3 h -205.91 v 365.04 c 0,96.69 -4.44,162.01 -13.58,195.98 -9.41,34.23 -25.08,59.84 -47.29,76.56 -22.22,16.99 -49.39,25.34 -82.05,25.34 -42.59,0 -78.92,-14.11 -109.22,-42.06 -30.32,-27.96 -51.48,-66.38 -63.25,-114.72 -6,-25.08 -9.14,-82.31 -9.14,-171.67 v -334.47 h -207.47 z m 1555.79,-321.41 h 208.26 v -833.03 h -208.26 v 88.07 c -40.77,-38.95 -81.79,-66.64 -122.81,-83.89 -41.29,-16.98 -85.71,-25.6 -133.79,-25.6 -107.65,0 -200.68,41.81 -279.33,125.16 -78.66,83.36 -117.85,187.09 -117.85,311.21 0,128.56 37.89,233.86 113.93,316.17 76.03,82.05 168.54,123.34 277.24,123.34 49.91,0 96.94,-9.67 140.84,-28.48 43.9,-18.82 84.4,-47.3 121.77,-84.92 z m -219.75,-171.67 c -64.81,0 -118.64,-22.73 -161.49,-68.46 -42.85,-45.73 -64.28,-104.26 -64.28,-175.6 0,-72.12 21.68,-131.17 65.32,-177.68 43.65,-46.52 97.47,-69.77 161.23,-69.77 65.84,0 120.46,22.99 163.84,68.72 43.37,45.46 65.06,105.3 65.06,179.51 0,72.38 -21.69,131.18 -65.06,175.86 -43.38,44.95 -98.26,67.42 -164.62,67.42 z m 590.27,171.67 h 179 v -105.04 c 19.59,41.29 45.2,72.64 77.34,94.07 32.14,21.69 67.42,32.4 105.83,32.4 26.91,0 55.13,-7.32 84.92,-21.43 l -65.06,-180.03 c -24.56,12.28 -44.69,18.29 -60.62,18.29 -32.15,0 -59.32,-19.87 -81.53,-59.58 -22.21,-39.98 -33.19,-117.85 -33.19,-234.39 l 0.79,-40.5 v -336.82 h -207.48 z m 757.78,0 v -91.97 c 37.9,37.62 78.66,66.1 122.55,84.92 43.9,18.81 90.93,28.48 140.84,28.48 108.7,0 201.21,-41.29 277.24,-123.34 76.04,-82.31 113.93,-187.61 113.93,-316.17 0,-124.12 -39.19,-227.85 -117.85,-311.21 -78.65,-83.35 -171.67,-125.16 -279.32,-125.16 -48.08,0 -92.77,8.62 -134.05,25.6 -41.29,17.25 -82.32,44.94 -123.34,83.89 V 2548.2 h -207.47 v 1137.71 z m 219.75,-171.67 c -65.84,0 -120.46,-22.47 -163.83,-67.42 -43.38,-44.68 -65.06,-103.48 -65.06,-175.86 0,-74.21 21.68,-134.05 65.06,-179.51 43.37,-45.73 97.99,-68.72 163.83,-68.72 63.76,0 117.59,23.25 161.23,69.77 43.64,46.51 65.33,105.56 65.33,177.68 0,71.34 -21.43,129.87 -64.29,175.6 -42.85,45.73 -96.94,68.46 -162.27,68.46 z m 1139.71,170.36 c 27.71,-9.29 54.74,-21.4 81.09,-36.31 68.99,-39.2 123.08,-92.77 161.76,-159.92 38.93,-67.42 58.26,-140.06 58.26,-218.19 0,-78.65 -19.59,-152.08 -58.53,-220.54 -39.2,-68.46 -92.24,-121.76 -159.65,-160.44 -67.42,-38.41 -141.63,-57.74 -222.89,-57.74 -119.42,0 -221.32,42.58 -305.73,127.51 -84.4,84.92 -126.73,188.14 -126.73,309.64 0,130.13 47.82,238.57 143.19,325.33 3.28,2.95 6.58,5.85 9.89,8.69 31.35,-59.97 72.33,-112.36 121.47,-158.18 l -1.75,-1.81 c -43.12,-45.21 -64.54,-102.96 -64.54,-173.25 0,-72.64 21.17,-131.17 64.02,-176.1 42.59,-44.95 96.42,-67.43 161.74,-67.43 65.34,0 119.68,22.74 163.06,68.21 43.37,45.47 65.06,103.73 65.06,175.32 0,71.34 -21.16,129.35 -63.76,174.04 -23.46,24.46 -50.37,42.27 -80.81,53.37 0.59,27.39 5.3,54.64 13.89,83.38 10.56,35.33 25.58,70.07 40.96,104.42 z m 862.91,22.74 c 78.66,0 152.6,-19.86 221.85,-59.05 68.98,-39.2 123.07,-92.77 161.75,-159.92 38.93,-67.42 58.26,-140.06 58.26,-218.19 0,-78.65 -19.59,-152.08 -58.53,-220.54 -39.2,-68.46 -92.24,-121.76 -159.65,-160.44 -67.42,-38.41 -141.64,-57.74 -222.9,-57.74 -119.41,0 -221.31,42.58 -305.71,127.51 -84.4,84.92 -126.74,188.14 -126.74,309.64 0,130.13 47.82,238.57 143.2,325.33 83.61,75.51 179.77,113.4 288.47,113.4 z m 3.14,-196.76 c -64.81,0 -118.9,-22.73 -162.01,-67.94 -43.11,-45.21 -64.54,-102.96 -64.54,-173.25 0,-72.64 21.17,-131.17 64.02,-176.1 42.59,-44.95 96.42,-67.43 161.74,-67.43 65.33,0 119.69,22.74 163.05,68.21 43.38,45.47 65.07,103.73 65.07,175.32 0,71.34 -21.16,129.35 -63.76,174.04 -42.85,44.68 -97.2,67.15 -163.57,67.15 z m 609.35,175.33 h 208.27 v -85.18 c 47.55,39.98 90.4,67.68 129.07,83.09 38.42,15.68 77.87,23.52 118.11,23.52 82.84,0 152.87,-29.01 210.61,-86.75 48.61,-48.86 72.65,-121.25 72.65,-217.41 v -550.3 h -206.69 v 365.04 c 0,99.56 -4.45,165.67 -13.33,198.33 -8.88,32.66 -24.57,57.49 -46.78,74.73 -22.2,16.98 -49.38,25.61 -82.04,25.61 -42.6,0 -78.92,-14.11 -109.22,-42.59 -30.32,-28.22 -51.48,-67.42 -63.24,-117.33 -6.01,-26.13 -9.14,-82.57 -9.14,-169.32 v -334.47 h -208.27 v 833.03"
         style="fill:#ffffff;fill-opacity:1;fill-rule:nonzero;stroke:none"
         id="path20" /><path
         d="m 6860.66,2434.01 520.14,287.1 H 3753.46 v -67.66 l 3197.22,-82.24 z M 3519.1,2721.11 H 1123.14 l 2395.96,-61.63 z"
         style="fill:#ffffff;fill-opacity:1;fill-rule:evenodd;stroke:none"
         id="path22" /><path
         d="m 4394.42,5215.49 c 51.25,0 92.79,41.55 92.79,92.8 0,51.25 -41.54,92.79 -92.79,92.79 -51.26,0 -92.8,-41.54 -92.8,-92.79 0,-51.25 41.54,-92.8 92.8,-92.8"
         style="fill:#ffffff;fill-opacity:1;fill-rule:evenodd;stroke:none"
         id="path24" /><path
         d="m 4370.61,5249.3 c 32.57,-13.15 69.64,2.59 82.79,35.17 2.44,6.05 3.88,12.25 4.41,18.42 -8.76,-8.37 -21.93,-11.34 -33.9,-6.51 -16.29,6.57 -24.17,25.11 -17.59,41.4 4.83,11.97 16.11,19.39 28.22,19.88 -4.81,3.91 -10.27,7.17 -16.32,9.61 -32.58,13.15 -69.64,-2.6 -82.79,-35.17 -13.15,-32.58 2.6,-69.65 35.18,-82.8"
         style="fill:#1c171a;fill-opacity:1;fill-rule:evenodd;stroke:none"
         id="path26" /></g></g></svg>
