<?xml version="1.0" encoding="UTF-8" standalone="no"?>


<svg
   version="1.1"
   id="svg2"
   xml:space="preserve"
   width="549.77332"
   height="142.62666"
   viewBox="0 0 549.77332 142.62666"
   xmlns="http://www.w3.org/2000/svg"
   xmlns:svg="http://www.w3.org/2000/svg"><defs
     id="defs6" /><g
     id="g8"
     transform="matrix(1.3333333,0,0,-1.3333333,0,142.62667)"><g
       id="g10"
       transform="scale(0.1)"><path
         d="M 0,104.992 V 892.551 H 144.016 V 580.902 H 504.043 V 892.551 H 648.051 V 104.992 H 504.043 V 445.891 H 144.016 V 104.992 H 0"
         style="fill:#231f20;fill-opacity:1;fill-rule:nonzero;stroke:none"
         id="path12" /><path
         d="m 987.453,417.766 98.827,281.308 98.83,-281.308 z M 1294.99,104.992 h 139.5 L 1154.35,892.551 H 1018.21 L 738.063,104.992 h 139.511 l 65.614,186.77 h 286.182 l 65.62,-186.77"
         style="fill:#231f20;fill-opacity:1;fill-rule:nonzero;stroke:none"
         id="path14" /><path
         d="m 1633.64,104.992 v 318.399 l -276.77,469.16 h 157.51 l 191.26,-339.496 191.27,339.496 h 157.5 L 1777.65,423.391 V 104.992 h -144.01"
         style="fill:#231f20;fill-opacity:1;fill-rule:nonzero;stroke:none"
         id="path16" /><path
         d="m 2443.71,235.469 c 52.5,0 96.37,11.621 131.62,34.883 35.26,23.242 61.7,55.214 79.32,95.91 17.64,40.691 26.44,87.097 26.44,139.226 0,52.121 -8.8,98.532 -26.44,139.231 -17.62,40.687 -44.06,72.656 -79.32,95.914 -35.25,23.246 -79.12,34.875 -131.62,34.875 -52.52,0 -96.41,-11.629 -131.64,-34.875 -35.25,-23.258 -61.7,-55.227 -79.32,-95.914 -17.63,-40.699 -26.44,-87.11 -26.44,-139.231 0,-52.129 8.81,-98.535 26.44,-139.226 17.62,-40.696 44.07,-72.668 79.32,-95.91 35.23,-23.262 79.12,-34.883 131.64,-34.883 z m 0,-139.5081 c -75.02,0 -141.78,16.9611 -200.27,50.9061 -58.52,33.934 -104.46,81.571 -137.83,142.891 -33.38,61.316 -50.06,133.222 -50.06,215.73 0,82.5 16.68,154.422 50.06,215.735 33.37,61.32 79.31,108.941 137.83,142.89 58.49,33.938 125.25,50.907 200.27,50.907 75,0 141.76,-16.969 200.26,-50.907 58.51,-33.949 104.45,-81.57 137.83,-142.89 33.38,-61.313 50.06,-133.235 50.06,-215.735 0,-82.508 -16.68,-154.414 -50.06,-215.73 -33.38,-61.32 -79.32,-108.957 -137.83,-142.891 -58.5,-33.945 -125.26,-50.9061 -200.26,-50.9061"
         style="fill:#231f20;fill-opacity:1;fill-rule:nonzero;stroke:none"
         id="path18" /><path
         d="m 3585.23,0 c -22.85,-0.0507813 -36.93,13.7617 -36.69,36.0117 0.23,21.3086 16.18,37.1914 37,36.8477 17.93,-0.3008 36.03,-19.0313 36.12,-37.3594 0.09,-19.1406 -16.65,-35.4492187 -36.43,-35.5"
         style="fill:#46b557;fill-opacity:1;fill-rule:nonzero;stroke:none"
         id="path20" /><path
         d="m 3896.2,116.707 c -0.3,-19.6757 -18.19,-36.7187 -37.91,-36.1132 -19.05,0.582 -35.29,18.0781 -34.75,37.4292 0.57,20.602 17.26,36.403 37.94,35.926 19.2,-0.441 35.03,-17.418 34.72,-37.242"
         style="fill:#46b557;fill-opacity:1;fill-rule:nonzero;stroke:none"
         id="path22" /><path
         d="m 3084.01,331.785 c 0.19,22.024 13.79,35.93 35.22,36.012 20.09,0.078 37.58,-15.942 37.92,-34.734 0.32,-17.911 -19.56,-38.145 -37.59,-38.258 -18.85,-0.114 -35.71,17.429 -35.55,36.98"
         style="fill:#46b557;fill-opacity:1;fill-rule:nonzero;stroke:none"
         id="path24" /><path
         d="m 3308.81,150.906 c 21.58,-0.125 36.51,-14.734 35.95,-35.164 -0.58,-20.6443 -17.04,-37.1326 -37.34,-37.3826 -17.22,-0.2149 -36.01,19.5351 -35.77,37.5896 0.25,18.922 17.42,35.071 37.16,34.957"
         style="fill:#46b557;fill-opacity:1;fill-rule:nonzero;stroke:none"
         id="path26" /><path
         d="m 3401.6,1033.74 c -0.06,19.96 15.77,35.83 35.69,35.81 19.9,-0.01 37.27,-17.46 36.98,-37.13 -0.26,-17.64 -19.56,-36.131 -37.44,-35.881 -18.27,0.258 -35.18,18.121 -35.23,37.201"
         style="fill:#46b557;fill-opacity:1;fill-rule:nonzero;stroke:none"
         id="path28" /><path
         d="m 4087.26,655.25 c 19.54,0.199 36.18,-16.238 36.04,-35.59 -0.15,-19.301 -16.6,-36.43 -35.69,-37.152 -18.06,-0.684 -37.36,18.875 -37.22,37.691 0.16,19.211 16.6,34.844 36.87,35.051"
         style="fill:#46b557;fill-opacity:1;fill-rule:nonzero;stroke:none"
         id="path30" /><path
         d="m 4048.32,371.266 c 18.58,-0.137 34.78,-16.399 35,-35.121 0.23,-20.891 -16.33,-37.805 -36.44,-37.231 -19.1,0.551 -37.41,19.527 -36.78,38.113 0.64,18.407 18.47,34.391 38.22,34.239"
         style="fill:#46b557;fill-opacity:1;fill-rule:nonzero;stroke:none"
         id="path32" /><path
         d="m 3195.53,912.637 c 23.01,-0.153 36.36,-13.555 35.99,-36.141 -0.35,-21.285 -14.63,-34.824 -36.3,-34.402 -19.69,0.383 -37.49,17.625 -36.78,35.633 0.75,19.203 17.58,35.039 37.09,34.91"
         style="fill:#46b557;fill-opacity:1;fill-rule:nonzero;stroke:none"
         id="path34" /><path
         d="m 3723.49,999.184 c -20.5,0.285 -35.25,16.016 -34.52,36.796 0.74,21.3 14.7,34.02 37.04,33.75 18.65,-0.23 35.57,-16.53 35.83,-34.52 0.28,-19.48 -17.64,-36.312 -38.35,-36.026"
         style="fill:#46b557;fill-opacity:1;fill-rule:nonzero;stroke:none"
         id="path36" /><path
         d="m 3078.47,581.234 c -20.17,-0.14 -37.08,15.754 -36.84,34.633 0.26,20.567 16.69,36.164 37.88,35.961 18.08,-0.176 34.25,-16.719 34.77,-35.566 0.56,-20.574 -14.06,-34.875 -35.81,-35.028"
         style="fill:#46b557;fill-opacity:1;fill-rule:nonzero;stroke:none"
         id="path38" /><path
         d="m 3966.49,845.355 c -19.91,0.024 -36.64,16.067 -36.71,35.204 -0.07,19.07 16.71,35.316 36.54,35.39 19.82,0.078 36.61,-16.047 36.7,-35.23 0.09,-19.129 -16.7,-35.387 -36.53,-35.364"
         style="fill:#46b557;fill-opacity:1;fill-rule:nonzero;stroke:none"
         id="path40" /><path
         d="m 3147.71,535.152 c 0.35,-19.867 -15.37,-36.66 -34.72,-37.089 -20.82,-0.461 -37.8,15.203 -38.42,35.429 -0.56,18.278 16.65,35.297 36.21,35.817 21.08,0.558 36.57,-13.77 36.93,-34.157"
         style="fill:#137cac;fill-opacity:1;fill-rule:nonzero;stroke:none"
         id="path42" /><path
         d="m 3639.25,976.289 c -19.49,-0.238 -36.45,16.231 -36.83,35.761 -0.38,19.97 15.72,37.14 34.98,37.3 20.33,0.18 37.63,-15.45 38.05,-34.38 0.44,-19.7 -17.1,-38.45 -36.2,-38.681"
         style="fill:#137cac;fill-opacity:1;fill-rule:nonzero;stroke:none"
         id="path44" /><path
         d="m 3899.68,160.629 c -20.45,0.098 -37.06,16.789 -36.79,36.949 0.28,20.055 17.33,35.738 38.39,35.293 19.69,-0.418 34.97,-16.574 34.92,-36.926 -0.04,-19.343 -16.66,-35.414 -36.52,-35.316"
         style="fill:#137cac;fill-opacity:1;fill-rule:nonzero;stroke:none"
         id="path46" /><path
         d="m 3625.28,81.4609 c 0.28,19.9101 16.31,35.6601 36.35,35.7271 18.12,0.058 36.39,-18.2544 36.54,-36.6216 0.15,-18.2461 -18.4,-36.8281 -36.59,-36.6445 -20.37,0.207 -36.59,16.9883 -36.3,37.539"
         style="fill:#137cac;fill-opacity:1;fill-rule:nonzero;stroke:none"
         id="path48" /><path
         d="m 3228.14,280.762 c -0.04,-19.676 -16.03,-35.922 -35.76,-36.332 -17.66,-0.367 -36.96,18.55 -37.07,36.343 -0.12,19.043 17.11,36.668 36.03,36.868 20.72,0.218 36.84,-15.938 36.8,-36.879"
         style="fill:#137cac;fill-opacity:1;fill-rule:nonzero;stroke:none"
         id="path50" /><path
         d="m 4002.74,423.105 c 0.03,20.891 15.72,36.918 36.76,37.563 15.81,0.484 35.81,-19.328 36.14,-35.793 0.39,-20.02 -16.74,-37.117 -37.28,-37.207 -21.5,-0.094 -35.65,13.984 -35.62,35.437"
         style="fill:#137cac;fill-opacity:1;fill-rule:nonzero;stroke:none"
         id="path52" /><path
         d="m 3396.84,76.7617 c -20.09,0.2969 -37.03,16.2539 -37.29,35.1053 -0.24,17.903 20.03,37.727 38.22,37.371 19.73,-0.386 34.52,-16.453 34.43,-37.394 -0.1,-21.9807 -13.63,-35.4026 -35.36,-35.0823"
         style="fill:#137cac;fill-opacity:1;fill-rule:nonzero;stroke:none"
         id="path54" /><path
         d="m 3180.35,825.766 c 20.26,-0.227 37.27,-16.496 36.69,-35.106 -0.58,-18.672 -18.4,-37.457 -35.76,-37.699 -19.77,-0.281 -37.37,18.57 -36.88,39.5 0.46,19.609 15.49,33.535 35.95,33.305"
         style="fill:#137cac;fill-opacity:1;fill-rule:nonzero;stroke:none"
         id="path56" /><path
         d="m 3882.34,872.484 c -21.29,0.899 -36.78,17.489 -35.53,38.043 1.15,18.77 19.68,35.981 37.67,34.965 19.34,-1.094 36.06,-20.168 34.81,-39.715 -1.19,-18.472 -18.5,-34.07 -36.95,-33.293"
         style="fill:#137cac;fill-opacity:1;fill-rule:nonzero;stroke:none"
         id="path58" /><path
         d="m 4066.85,687.734 c -0.28,-19.273 -17.69,-36.367 -36.39,-35.722 -18.74,0.644 -34.64,18.187 -34.29,37.836 0.34,19 16.73,35.55 34.89,35.222 21.93,-0.39 36.1,-15.179 35.79,-37.336"
         style="fill:#137cac;fill-opacity:1;fill-rule:nonzero;stroke:none"
         id="path60" /><path
         d="m 3411.94,969.074 c -0.01,-19.375 -16.8,-36.496 -35.75,-36.445 -19,0.051 -35.16,17.234 -34.86,37.07 0.3,19.614 15.28,34.701 34.79,35.031 20.05,0.35 35.83,-15.355 35.82,-35.656"
         style="fill:#137cac;fill-opacity:1;fill-rule:nonzero;stroke:none"
         id="path62" /><path
         d="m 3329.14,928.809 c 17.51,0.414 34.38,-15.59 35.22,-33.403 0.89,-18.883 -14.37,-34.722 -34.31,-35.633 -16.82,-0.765 -33.62,14.891 -34.38,32.051 -0.83,18.434 15.58,36.559 33.47,36.985"
         style="fill:#cfab60;fill-opacity:1;fill-rule:nonzero;stroke:none"
         id="path64" /><path
         d="m 3518.79,126.105 c 0.1,-17.738 -15.84,-34.855 -32.87,-35.3003 -17.3,-0.4531 -36.98,18.0583 -36.57,34.4063 0.48,19.34 16.08,35.125 34.95,35.359 20.16,0.254 34.38,-13.949 34.49,-34.465"
         style="fill:#cfab60;fill-opacity:1;fill-rule:nonzero;stroke:none"
         id="path66" /><path
         d="m 4011.43,541.668 c 21.06,0.16 35.24,-13.418 35.05,-33.551 -0.16,-17.515 -17.07,-35.551 -33.19,-35.394 -18.69,0.175 -36,16.371 -36.53,34.172 -0.57,19.203 14.81,34.625 34.67,34.773"
         style="fill:#cfab60;fill-opacity:1;fill-rule:nonzero;stroke:none"
         id="path68" /><path
         d="m 3794.8,885.621 c -18.41,-0.141 -35.41,16.891 -35.03,35.098 0.35,16.73 18.32,34.496 34.91,34.523 17.43,0.035 34.17,-16.66 34.48,-34.379 0.35,-19.992 -14.37,-35.09 -34.36,-35.242"
         style="fill:#cfab60;fill-opacity:1;fill-rule:nonzero;stroke:none"
         id="path70" /><path
         d="m 3308.05,246.152 c 0.24,-18.656 -16.28,-35.336 -34.99,-35.328 -17.55,0.012 -34.01,16.414 -34.44,34.328 -0.41,17.2 16.29,34.926 33.43,35.489 18.21,0.597 35.77,-16.227 36,-34.489"
         style="fill:#cfab60;fill-opacity:1;fill-rule:nonzero;stroke:none"
         id="path72" /><path
         d="m 3194.61,460.469 c 0.18,-18.563 -16.33,-35.34 -34.75,-35.321 -15.19,0.02 -34.88,19.856 -34.85,35.114 0.03,17.82 17.75,34.59 36.38,34.422 19.33,-0.172 33.04,-14.293 33.22,-34.215"
         style="fill:#cfab60;fill-opacity:1;fill-rule:nonzero;stroke:none"
         id="path74" /><path
         d="m 3762.15,140.391 c 0.29,-17.848 -17.4,-36.067 -34.93,-35.977 -17.7,0.09 -34.55,16.547 -34.84,34.043 -0.3,18.055 15.45,35.102 32.88,35.57 18.72,0.508 36.6,-15.793 36.89,-33.636"
         style="fill:#cfab60;fill-opacity:1;fill-rule:nonzero;stroke:none"
         id="path76" /><path
         d="m 3956.66,282.438 c -0.03,-20.641 -14.07,-35.118 -33.92,-34.954 -17.91,0.153 -33.03,15.891 -33.25,34.618 -0.23,18.55 14.94,34.824 32.8,35.191 18.6,0.379 34.39,-15.625 34.37,-34.855"
         style="fill:#cfab60;fill-opacity:1;fill-rule:nonzero;stroke:none"
         id="path78" /><path
         d="m 3181.41,668.289 c -19.41,-0.078 -33.59,14.098 -33.68,33.668 -0.08,19.695 13.74,33.547 33.53,33.59 19.1,0.047 36.2,-16.414 35.72,-34.379 -0.47,-17.387 -17.15,-32.809 -35.57,-32.879"
         style="fill:#cfab60;fill-opacity:1;fill-rule:nonzero;stroke:none"
         id="path80" /><path
         d="m 3964.86,778.953 c 18.59,-0.14 34.16,-15.234 34.49,-33.433 0.32,-17.489 -17.69,-33.875 -36.83,-33.504 -17.91,0.347 -32.81,15.339 -32.93,33.117 -0.14,19.961 14.48,33.98 35.27,33.82"
         style="fill:#cfab60;fill-opacity:1;fill-rule:nonzero;stroke:none"
         id="path82" /><path
         d="m 3592.2,972.652 c -0.35,-17.339 -15.9,-31.949 -33.81,-31.761 -18.62,0.199 -33.35,15.265 -33.24,34.023 0.11,20.496 14.45,34.806 34.4,34.336 19.02,-0.45 33.06,-16.195 32.65,-36.598"
         style="fill:#cfab60;fill-opacity:1;fill-rule:nonzero;stroke:none"
         id="path84" /><path
         d="m 3959.14,369.746 c -0.05,-13.781 -16.32,-30.719 -29.84,-31.043 -14.74,-0.355 -32.17,15.867 -32.52,30.277 -0.39,16.258 15.54,32.122 31.89,31.747 17.11,-0.395 30.52,-14.032 30.47,-30.981"
         style="fill:#e6782d;fill-opacity:1;fill-rule:nonzero;stroke:none"
         id="path86" /><path
         d="m 3390.75,230.277 c 0.22,-17.925 -13.78,-32.632 -30.88,-32.441 -16.64,0.184 -30.1,14.375 -29.88,31.516 0.19,15.175 16.67,30.988 31.87,30.582 13.9,-0.371 28.71,-15.579 28.89,-29.657"
         style="fill:#e6782d;fill-opacity:1;fill-rule:nonzero;stroke:none"
         id="path88" /><path
         d="m 3748.98,211.563 c -0.22,17.707 10.72,28.906 28.73,29.41 17.2,0.48 31.22,-12.567 31.59,-29.391 0.36,-16.871 -13.25,-30.816 -30.13,-30.859 -16.72,-0.039 -29.98,13.5 -30.19,30.84"
         style="fill:#e6782d;fill-opacity:1;fill-rule:nonzero;stroke:none"
         id="path90" /><path
         d="m 3568.55,187.652 c 15.74,-0.261 30.23,-14.769 29.67,-29.707 -0.57,-15.562 -16.76,-30.777 -32.1,-30.175 -16.59,0.652 -30.75,15.394 -30.26,31.488 0.51,16.558 14.49,28.699 32.69,28.394"
         style="fill:#e6782d;fill-opacity:1;fill-rule:nonzero;stroke:none"
         id="path92" /><path
         d="m 3301.16,781.711 c -17.82,-0.016 -31.92,12.785 -31.83,28.91 0.07,14.738 16.9,31.281 31.5,30.981 15.58,-0.321 30.4,-15.903 30.22,-31.762 -0.21,-17.348 -11.64,-28.11 -29.89,-28.129"
         style="fill:#e6782d;fill-opacity:1;fill-rule:nonzero;stroke:none"
         id="path94" /><path
         d="m 3254.23,398.547 c -0.49,-17.234 -14.47,-30.731 -31.39,-30.305 -15.27,0.379 -28.55,15.082 -28.42,31.446 0.14,16.632 13.78,30.722 29.31,30.261 16.63,-0.492 30.97,-15.254 30.5,-31.402"
         style="fill:#e6782d;fill-opacity:1;fill-rule:nonzero;stroke:none"
         id="path96" /><path
         d="m 3915.39,788.102 c 0.23,-17.055 -13.73,-32.071 -29.6,-31.848 -14.87,0.211 -31.99,17.066 -31.69,31.207 0.3,13.977 16.7,29.922 30.9,30.047 15.76,0.137 30.19,-13.82 30.39,-29.406"
         style="fill:#e6782d;fill-opacity:1;fill-rule:nonzero;stroke:none"
         id="path98" /><path
         d="m 3736.04,912.25 c -0.01,-18.023 -11.46,-29.945 -28.73,-29.914 -16.43,0.027 -31.19,13.637 -31.13,28.695 0.07,16.289 14.85,31.18 31.02,31.262 16.87,0.086 28.85,-12.391 28.84,-30.043"
         style="fill:#e6782d;fill-opacity:1;fill-rule:nonzero;stroke:none"
         id="path100" /><path
         d="m 3967.22,614.637 c 16.39,0.445 32.02,-13.864 32.14,-29.418 0.11,-14.485 -15.24,-29.996 -29.88,-30.203 -17.93,-0.25 -29.62,10.566 -30.2,27.953 -0.65,19.422 9.72,31.168 27.94,31.668"
         style="fill:#e6782d;fill-opacity:1;fill-rule:nonzero;stroke:none"
         id="path102" /><path
         d="m 3488.51,892.055 c -18.08,0.074 -29.74,11.09 -29.96,28.297 -0.21,16.996 13.05,30.464 30.36,30.836 15.76,0.335 29.72,-13.422 29.73,-29.305 0.02,-18.457 -11.55,-29.903 -30.13,-29.828"
         style="fill:#e6782d;fill-opacity:1;fill-rule:nonzero;stroke:none"
         id="path104" /><path
         d="m 3203.33,645.258 c 17.55,-0.762 28.93,-13.106 28.06,-30.445 -0.81,-16.192 -14.86,-29.844 -30.35,-29.5 -15.06,0.335 -29.84,15.628 -29.59,30.617 0.27,16.226 15.29,30.047 31.88,29.328"
         style="fill:#e6782d;fill-opacity:1;fill-rule:nonzero;stroke:none"
         id="path106" /><path
         d="m 3434.07,828.727 c -14.76,0.316 -23.22,9.535 -22.55,24.582 0.55,12.648 11.27,22.433 24.06,21.968 11.74,-0.429 22.52,-12.257 22.31,-24.484 -0.22,-12.652 -10.69,-22.352 -23.82,-22.066"
         style="fill:#e35324;fill-opacity:1;fill-rule:nonzero;stroke:none"
         id="path108" /><path
         d="m 3835.72,293.594 c 0.43,-12.992 -10.97,-24.719 -24.02,-24.723 -11.5,0 -24.92,13.465 -24.83,24.906 0.1,11.34 11.85,22.946 23.89,23.602 12.51,0.68 24.52,-10.77 24.96,-23.785"
         style="fill:#e35324;fill-opacity:1;fill-rule:nonzero;stroke:none"
         id="path110" /><path
         d="m 3822.68,806.777 c -0.25,-12.632 -11.26,-23.726 -23.17,-23.351 -13.5,0.426 -24.04,11.605 -23.5,24.91 0.52,12.652 11.31,23.562 23.29,23.566 12.7,0 23.65,-11.765 23.38,-25.125"
         style="fill:#e35324;fill-opacity:1;fill-rule:nonzero;stroke:none"
         id="path112" /><path
         d="m 3907.42,625.203 c -12.18,-0.34 -23.7,10.32 -24.32,22.496 -0.64,12.512 9.44,23.348 22.37,24.047 13.22,0.711 25.88,-9.894 26.56,-22.266 0.66,-12.082 -11.33,-23.914 -24.61,-24.277"
         style="fill:#e35324;fill-opacity:1;fill-rule:nonzero;stroke:none"
         id="path114" /><path
         d="m 3912.84,480.793 c 11.84,0.191 22.89,-11.375 22.69,-23.758 -0.22,-13.894 -9.11,-22.629 -23.05,-22.64 -13.52,-0.012 -25.46,10.867 -25.38,23.125 0.08,11.746 12.59,23.062 25.74,23.273"
         style="fill:#e35324;fill-opacity:1;fill-rule:nonzero;stroke:none"
         id="path116" /><path
         d="m 3663.77,210.523 c 0.37,-12.832 -10.71,-23.421 -24.59,-23.507 -14.35,-0.09 -23.51,8.343 -23.66,21.793 -0.16,13.242 10.39,23.742 24.18,24.086 12.66,0.312 23.72,-9.965 24.07,-22.372"
         style="fill:#e35324;fill-opacity:1;fill-rule:nonzero;stroke:none"
         id="path118" /><path
         d="m 3292.69,698.805 c -12.31,-0.41 -23.91,10.308 -24.36,22.504 -0.47,12.82 9.44,23.652 22.12,24.16 15.08,0.605 24.23,-7.977 24.45,-22.934 0.21,-13.945 -8.51,-23.269 -22.21,-23.73"
         style="fill:#e35324;fill-opacity:1;fill-rule:nonzero;stroke:none"
         id="path120" /><path
         d="m 3448.61,210.355 c -14.5,-0.023 -23.59,8.536 -23.55,22.192 0.03,12.535 10.76,23.73 22.99,23.996 12.24,0.266 25.68,-12.621 25.2,-24.168 -0.52,-12.562 -11.08,-21.996 -24.64,-22.02"
         style="fill:#e35324;fill-opacity:1;fill-rule:nonzero;stroke:none"
         id="path122" /><path
         d="m 3645.78,882.977 c -0.27,-13.813 -9.48,-23.2 -22.85,-23.289 -12.15,-0.083 -23.45,11.222 -23.35,23.367 0.1,12.73 12.03,24.832 24.31,24.66 11.55,-0.16 22.14,-12.125 21.89,-24.738"
         style="fill:#e35324;fill-opacity:1;fill-rule:nonzero;stroke:none"
         id="path124" /><path
         d="m 3324.52,353.852 c -0.37,-13.157 -12.01,-23.321 -25.72,-22.454 -13.43,0.848 -21.64,10.54 -20.92,24.684 0.67,13.356 10.41,22.086 24.15,21.672 12.69,-0.387 22.85,-11.176 22.49,-23.902"
         style="fill:#e35324;fill-opacity:1;fill-rule:nonzero;stroke:none"
         id="path126" /><path
         d="m 3264.97,537.32 c 0.17,-13.789 -8.55,-22.519 -22.73,-22.761 -14.08,-0.243 -22.96,8.086 -23.55,22.093 -0.51,12.153 10.25,24.157 22.04,24.602 13.08,0.488 24.07,-10.356 24.24,-23.934"
         style="fill:#e35324;fill-opacity:1;fill-rule:nonzero;stroke:none"
         id="path128" /></g></g></svg>