<?xml version="1.0" standalone="yes"?>
<svg xmlns="http://www.w3.org/2000/svg" width="304" height="287">
<path style="fill:#446ebb; stroke:none;" d="M0 0L0 287L304 287L304 0L0 0z"/>
<path style="fill:#439f7c; stroke:none;" d="M191 19L192 20L191 19z"/>
<path style="fill:#d8e0ee; stroke:none;" d="M103 20L103 33L111 33L111 31L106 31L106 27L110 27L110 25L106 25L106 22L111 22L111 20L103 20M116 20L116 22L120 22L120 33L123 33L126 20L116 20M132 20L132 33L135 33L135 27L139 27L139 33L142 33L142 20L139 20L139 25L135 25L135 20L132 20M149 20L149 33L152 33L152 20L149 20z"/>
<path style="fill:#439f7c; stroke:none;" d="M161 20L162 21L161 20z"/>
<path style="fill:#d8e0ee; stroke:none;" d="M168 30C160.992 30.2271 160.992 22.7729 168 23C164.879 15.9699 157.171 22.9136 158.917 29C160.177 33.3936 166.935 34.9694 168 30z"/>
<path style="fill:#439f7c; stroke:none;" d="M167 20L168 21L167 20z"/>
<path style="fill:#d8e0ee; stroke:none;" d="M173 33L185 33C181.72 18.8235 176.28 18.8235 173 33M191 20L191 33L198 33L198 31L194 31L194 20L191 20z"/>
<path style="fill:#439f7c; stroke:none;" d="M181 21L182 22L181 21M159 22L160 23L159 22M163 22L164 23L163 22M162 23L163 24L162 23M178 24L179 25L178 24M182 24L183 25L182 24M158 25L159 26L158 25z"/>
<path style="fill:#446ebb; stroke:none;" d="M178 25L178 28L180 28L180 25L178 25z"/>
<path style="fill:#439f7c; stroke:none;" d="M158 27L159 28L158 27M174 27L175 28L174 27M177 27L178 28L177 27M183 27L184 28L183 27M162 29L163 30L162 29M163 30L164 31L163 30M173 30L174 31L173 30M184 30L185 31L184 30M181 31L182 32L181 31M52 43L52 178L52 213L53.0278 226.397L65 228L101 228L248 228L248 227L53 227L53 98L53 61L52 43z"/>
<path style="fill:#d8e0ee; stroke:none;" d="M53 43L53 227L248 227L248 43L53 43M269 49L268 53L258 52L259 56L269 55L269 59L271 59L271 49L269 49z"/>
<path style="fill:#446ebb; stroke:none;" d="M74 51L85 52L74 51z"/>
<path style="fill:#439f7c; stroke:none;" d="M85 51L86 52L85 51z"/>
<path style="fill:#decf2e; stroke:none;" d="M94 51L95 52L94 51z"/>
<path style="fill:#b33c42; stroke:none;" d="M78 57L106 52C98.4899 48.8486 84.641 52.8262 78 57z"/>
<path style="fill:#decf2e; stroke:none;" d="M106 51L107 52L106 51M118 51L119 52L118 51z"/>
<path style="fill:#b33c42; stroke:none;" d="M97 58L125 57L120 54L120 53L130 52C121.884 48.5943 103.953 53.0397 97 58z"/>
<path style="fill:#decf2e; stroke:none;" d="M130.667 51.3333L131.333 51.6667L130.667 51.3333z"/>
<path style="fill:#b33c42; stroke:none;" d="M132 51L133 52L132 51z"/>
<path style="fill:#446ebb; stroke:none;" d="M132 52L134 58L126 55L130 55C127.446 51.464 123.932 51.8836 120 53L120 54L125 57C120.475 55.5975 115.632 54.1092 111.144 56.6327C105.315 59.9109 107.471 67.9069 112 71C114.966 62.3547 125.639 59.6804 134 60L132 63L133 64L137 61L140 51L132 52z"/>
<path style="fill:#b33c42; stroke:none;" d="M137 51L138 52L137 51z"/>
<path style="fill:#439f7c; stroke:none;" d="M81 52L82 53L81 52z"/>
<path style="fill:#decf2e; stroke:none;" d="M91 52L92 53L91 52M103 52L104 53L103 52z"/>
<path style="fill:#439f7c; stroke:none;" d="M123 52L124 53L123 52z"/>
<path style="fill:#d8e0ee; stroke:none;" d="M129 52L129 54L132 54L132 52L129 52z"/>
<path style="fill:#439f7c; stroke:none;" d="M259 52L260 53L259 52M261 52L261 53L265 53L261 52M267 52L268 53L267 52M75 53L76 54L75 53M77 53L78 54L77 53z"/>
<path style="fill:#decf2e; stroke:none;" d="M99 53L100 54L99 53M110 53L111 54L110 53M132 53L133 54L132 53M83 54L84 55L83 54M95 54L96 55L95 54M130 54L131 55L130 54z"/>
<path style="fill:#b33c42; stroke:none;" d="M126 55C128.807 59.0616 131.872 58.1282 134 54L126 55z"/>
<path style="fill:#439f7c; stroke:none;" d="M137 54L138 55L137 54z"/>
<path style="fill:#decf2e; stroke:none;" d="M80 55L81 56L80 55M91 55L92 56L91 55M102 55L103 56L102 55z"/>
<path style="fill:#439f7c; stroke:none;" d="M136 55L137 56L136 55M258 55L259 56L258 55M260.667 55.3333L261.333 55.6667L260.667 55.3333M263 55L264 56L263 55M266 55L267 56L266 55M268 55L269 56L268 55z"/>
<path style="fill:#decf2e; stroke:none;" d="M77 56L78 57L77 56M87 56L88 57L87 56z"/>
<path style="fill:#439f7c; stroke:none;" d="M94.6667 56.3333L95.3333 56.6667L94.6667 56.3333z"/>
<path style="fill:#decf2e; stroke:none;" d="M98 56L99 57L98 56z"/>
<path style="fill:#439f7c; stroke:none;" d="M133.333 56.6667L133.667 57.3333L133.333 56.6667z"/>
<path style="fill:#446ebb; stroke:none;" d="M78 57L94 77L93 71L96 72L92 61L92 60L95 57L78 57z"/>
<path style="fill:#decf2e; stroke:none;" d="M83.6667 57.3333L84.3333 57.6667L83.6667 57.3333z"/>
<path style="fill:#439f7c; stroke:none;" d="M92 57L93 58L92 57z"/>
<path style="fill:#decf2e; stroke:none;" d="M106 57L107 58L106 57M108 57L109 58L108 57z"/>
<path style="fill:#439f7c; stroke:none;" d="M78 58L79 59L78 58M81 58L82 59L81 58M88 58L89 59L88 58M94 58L92 60L92 61L94 66L95 66L94 58z"/>
<path style="fill:#decf2e; stroke:none;" d="M101.667 58.3333L102.333 58.6667L101.667 58.3333z"/>
<path style="fill:#439f7c; stroke:none;" d="M136 58L137 59L136 58M90 59L89 63L93 64L90 59z"/>
<path style="fill:#446ebb; stroke:none;" d="M99 59L100 60L99 59z"/>
<path style="fill:#439f7c; stroke:none;" d="M129 59L130 60L129 59M79 60L80 61L79 60z"/>
<path style="fill:#decf2e; stroke:none;" d="M105.667 60.3333L106.333 60.6667L105.667 60.3333z"/>
<path style="fill:#b33c42; stroke:none;" d="M107 60L105 61L105 62L107 60M112 60L112 62L116 62L116 60L112 60z"/>
<path style="fill:#439f7c; stroke:none;" d="M125 60L126 61L125 60z"/>
<path style="fill:#b33c42; stroke:none;" d="M130 63L134 60L130 63z"/>
<path style="fill:#decf2e; stroke:none;" d="M100 66L101 66L102 62L106 63C102.664 61.0439 101.05 62.5645 100 66z"/>
<path style="fill:#446ebb; stroke:none;" d="M129 61L127 64L129 61z"/>
<path style="fill:#439f7c; stroke:none;" d="M136 61L137 62L136 61z"/>
<path style="fill:#b33c42; stroke:none;" d="M102 62L101 67L105 63L102 62z"/>
<path style="fill:#439f7c; stroke:none;" d="M106 62L107 63L106 62M120 62L120 63L123 63L120 62M127 62L128 63L127 62M134 62L137 64L137 63L134 62z"/>
<path style="fill:#446ebb; stroke:none;" d="M142 66C145.689 66.3725 148.777 66.1587 151 63L147 64C147.027 59.8851 142.85 63.8692 142 66z"/>
<path style="fill:#439f7c; stroke:none;" d="M149 62L150 63L149 62M81 63L82 64L81 63M126 63L127 64L126 63M129 63L130 64L129 63M132 63L133 64L132 63M139 63L142 66L139 63M147 63L148 64L147 63M82.6667 64.3333L83.3333 64.6667L82.6667 64.3333M85 64L86 65L85 64z"/>
<path style="fill:#446ebb; stroke:none;" d="M104 64L105 65L104 64z"/>
<path style="fill:#b33c42; stroke:none;" d="M110 64L109 66L110 64z"/>
<path style="fill:#439f7c; stroke:none;" d="M115 64L116 65L115 64M127.667 64.3333L128.333 64.6667L127.667 64.3333z"/>
<path style="fill:#446ebb; stroke:none;" d="M135 64L135 65L139 65L135 64z"/>
<path style="fill:#439f7c; stroke:none;" d="M151 64L152 65L151 64M258 64L259 65L258 64z"/>
<path style="fill:#d8e0ee; stroke:none;" d="M259 64L258 68L263 68L263 69L258 74C260.852 73.575 266.332 74.2438 268.697 72.8719C278.907 66.9495 261.905 64.3581 259 64z"/>
<path style="fill:#439f7c; stroke:none;" d="M260 64L261 65L260 64M262.667 64.3333L263.333 64.6667L262.667 64.3333M265.667 64.3333L266.333 64.6667L265.667 64.3333M269 64L270 65L269 64M84 65L85 66L84 65M92 65L93 66L92 65z"/>
<path style="fill:#decf2e; stroke:none;" d="M103.667 65.3333L104.333 65.6667L103.667 65.3333z"/>
<path style="fill:#439f7c; stroke:none;" d="M107 65L107 68L108 68L107 65M114 65L115 66L114 65z"/>
<path style="fill:#decf2e; stroke:none;" d="M121 65L122 66L121 65z"/>
<path style="fill:#439f7c; stroke:none;" d="M149 65L150 66L149 65M85 66L86 67L85 66M100 66L101 67L100 66z"/>
<path style="fill:#446ebb; stroke:none;" d="M103 66L104 67L103 66z"/>
<path style="fill:#439f7c; stroke:none;" d="M113 66L114 67L113 66z"/>
<path style="fill:#decf2e; stroke:none;" d="M118 66L117 68L118 66z"/>
<path style="fill:#b33c42; stroke:none;" d="M108 69L108 78C112.102 77.3989 114.684 76.0398 116 72C120.375 71.662 122.097 70.3312 123 66C116.108 67.0904 115.591 71.7864 108 69z"/>
<path style="fill:#439f7c; stroke:none;" d="M142 66L143 67L142 66M144 66L144 67L148 67L144 66M86 67L87 68L86 67M90 67L90 69L92 67L90 67z"/>
<path style="fill:#decf2e; stroke:none;" d="M101 67L101 70L104 67L101 67z"/>
<path style="fill:#439f7c; stroke:none;" d="M102 67L103 68L102 67M123 67L124 68L123 67M136 67L137 68L136 67M94 68L95 69L94 68M99 68L99 69L102 69L99 68M112.333 68.6667L112.667 69.3333L112.333 68.6667M133 68L134 69L133 68z"/>
<path style="fill:#446ebb; stroke:none;" d="M132 69L132 70L146 70L132 69z"/>
<path style="fill:#439f7c; stroke:none;" d="M140.667 68.3333L141.333 68.6667L140.667 68.3333z"/>
<path style="fill:#446ebb; stroke:none;" d="M265 68L266 71L268 71L269 68L265 68z"/>
<path style="fill:#439f7c; stroke:none;" d="M87 69L88 70L87 69z"/>
<path style="fill:#decf2e; stroke:none;" d="M122.333 69.6667L122.667 70.3333L122.333 69.6667z"/>
<path style="fill:#439f7c; stroke:none;" d="M131 69L135 71L135 70L131 69M145 69L146 70L145 69M149 69L150 70L149 69z"/>
<path style="fill:#446ebb; stroke:none;" d="M147 73L155 71C151.665 68.5855 149.02 69.5444 147 73z"/>
<path style="fill:#439f7c; stroke:none;" d="M154 69L155 70L154 69M265 69L266 70L265 69M268 69L269 70L268 69M88 70L89 71L88 70M92 70L93 71L92 70z"/>
<path style="fill:#decf2e; stroke:none;" d="M116 70L117 71L116 70z"/>
<path style="fill:#439f7c; stroke:none;" d="M136 70L136 71L139 71L136 70M147 70L148 71L147 70M155 70L156 71L155 70M94 71L95 72L94 71z"/>
<path style="fill:#decf2e; stroke:none;" d="M114 71L115 72L114 71z"/>
<path style="fill:#446ebb; stroke:none;" d="M121 71L119 75L127 74L127 73L120 74L121 71z"/>
<path style="fill:#439f7c; stroke:none;" d="M140 71L141 72L140 71M144 71L145 72L144 71M154 71L155 72L154 71M95 72L96 73L95 72z"/>
<path style="fill:#d8e0ee; stroke:none;" d="M116 72L114 77L122 77C122.442 79.6801 124.717 78.723 127 78L126 74L119 76L116 72z"/>
<path style="fill:#decf2e; stroke:none;" d="M118 72L119 73L118 72z"/>
<path style="fill:#439f7c; stroke:none;" d="M121 72L122 73L121 72M124 72L124 73L127 73L124 72M146 72L151 74L151 73L146 72M152.667 72.3333L153.333 72.6667L152.667 72.3333M270 72L271 73L270 72M89 73L90 74L89 73M93 73L94 74L93 73z"/>
<path style="fill:#decf2e; stroke:none;" d="M116 73L117 74L116 73z"/>
<path style="fill:#439f7c; stroke:none;" d="M118 73L119 74L118 73M120 73L121 74L120 73M127 73L125 75L126 79C128.523 77.1661 128.616 75.6193 127 73M261 73L262 74L261 73M265 73L266 74L265 73M269 73L270 74L269 73M123 74L124 75L123 74z"/>
<path style="fill:#decf2e; stroke:none;" d="M134 83L136 88L152 86L152 82L145 83L145 76L146 76L156 77C147.378 69.5017 141.202 78.9496 134 83M158 76L162 75L158 76z"/>
<path style="fill:#439f7c; stroke:none;" d="M258 74L259 75L258 74z"/>
<path style="fill:#d8e0ee; stroke:none;" d="M27 75C27.008 76.9697 26.5876 79.8504 27.8889 81.5231C32.3794 87.2957 46.9603 79.6835 38 75L38 80L35 80L32 76L31 80L27 75z"/>
<path style="fill:#439f7c; stroke:none;" d="M29.3333 75.6667L29.6667 76.3333L29.3333 75.6667M32.6667 75.3333L33.3333 75.6667L32.6667 75.3333M40 75L41 76L40 75M91 75L92 76L91 75M94.3333 75.6667L94.6667 76.3333L94.3333 75.6667z"/>
<path style="fill:#decf2e; stroke:none;" d="M107.333 75.6667L107.667 76.3333L107.333 75.6667M114 75L115 76L114 75z"/>
<path style="fill:#439f7c; stroke:none;" d="M119 75L120 76L119 75z"/>
<path style="fill:#446ebb; stroke:none;" d="M127 75L128 76L127 75z"/>
<path style="fill:#439f7c; stroke:none;" d="M146 75L147 76L146 75M160.667 75.3333L161.333 75.6667L160.667 75.3333z"/>
<path style="fill:#446ebb; stroke:none;" d="M144 82C150.144 82.43 162.348 82.6032 165 76C159.455 75.396 145.94 76.1536 144 82z"/>
<path style="fill:#439f7c; stroke:none;" d="M163.667 75.3333L164.333 75.6667L163.667 75.3333M34 76L35 77L34 76M92 76L93 77L92 76M99 76L99 77L102 77L99 76z"/>
<path style="fill:#decf2e; stroke:none;" d="M102 76L103 77L102 76z"/>
<path style="fill:#446ebb; stroke:none;" d="M113 76L100 77C101.223 86.8367 116.536 83.4304 123.972 86.5C128.398 88.3267 131.145 93.0278 136 94.5C140.773 95.9474 146.762 90.9132 149 97L150 97C150.127 92.5312 151.437 90.854 156 91L156 90L152 86L133 90L131 87L131 86L134 83L126 81L124 82L120 77C117.757 79.2426 114.872 78.1957 113 76z"/>
<path style="fill:#439f7c; stroke:none;" d="M145 76L146 77L145 76M156 76L157 77L156 76M165 76L164 80L176 79L178 83L166 81L159 85C158.409 90.2628 154.876 88.6541 151.353 91.0733C150.134 91.9105 141.898 105.667 142.037 106.867C142.738 112.925 152.302 109.886 155 107.81C162.134 102.323 169.538 91.4785 178 88.3673C184.553 85.9579 204.38 97.3309 209 102L210 102L214 98L215 98L216 107L217 107C223.346 84.6374 189.828 91.2456 181 80L178 82L178 79L165 76M114.333 77.6667L114.667 78.3333L114.333 77.6667M119.333 77.6667L119.667 78.3333L119.333 77.6667M121 77L122 78L121 77z"/>
<path style="fill:#b33c42; stroke:none;" d="M145 77L146 78L145 77z"/>
<path style="fill:#439f7c; stroke:none;" d="M151.667 77.3333L152.333 77.6667L151.667 77.3333M40 78L41 79L40 78M100 78L101 79L100 78M30 79L31 80L30 79M35 79L36 80L35 79M37 79L38 80L37 79M123 79L124 82L125 82L125 79L123 79z"/>
<path style="fill:#446ebb; stroke:none;" d="M125 79L125 80L127 82L132 82L125 79z"/>
<path style="fill:#d8e0ee; stroke:none;" d="M165 79L165 80L168 80L165 79z"/>
<path style="fill:#decf2e; stroke:none;" d="M166 80L167 83L169 83L170 79L166 80z"/>
<path style="fill:#446ebb; stroke:none;" d="M171 79L172 80L171 79z"/>
<path style="fill:#decf2e; stroke:none;" d="M173 79L174 80L173 79z"/>
<path style="fill:#d8e0ee; stroke:none;" d="M174.667 79.3333L175.333 79.6667L174.667 79.3333M258 79L258 91C263.461 90.1935 269.982 89.1582 271 83L258 79z"/>
<path style="fill:#439f7c; stroke:none;" d="M259 79L260 80L259 79z"/>
<path style="fill:#d8e0ee; stroke:none;" d="M125.667 80.3333L126.333 80.6667L125.667 80.3333z"/>
<path style="fill:#decf2e; stroke:none;" d="M132 80L132 81L135 81L132 80z"/>
<path style="fill:#b33c42; stroke:none;" d="M166 80C162.371 80.01 156.565 79.4366 153.603 81.9884C151.688 83.6385 151.457 88.1586 154.26 89.1096C156.743 89.9521 164.601 82.1194 166 80M169 83L176 80L169 83z"/>
<path style="fill:#446ebb; stroke:none;" d="M177 80L178 81L177 80z"/>
<path style="fill:#439f7c; stroke:none;" d="M262 80L263 81L262 80M40 81L41 82L40 81M100 81L101 82L100 81z"/>
<path style="fill:#b33c42; stroke:none;" d="M120 81L123 83L120 81M126 81L127 82L126 81M128 81L128 82L131 82L128 81M132 81L132 83L136 83L136 81L132 81z"/>
<path style="fill:#439f7c; stroke:none;" d="M265 81L266 82L265 81M27 82L28 83L27 82M101 82L102 83L101 82M126 82L130 85L130 84L126 82z"/>
<path style="fill:#d8e0ee; stroke:none;" d="M127 82L127 83L132 83L132 82L127 82z"/>
<path style="fill:#439f7c; stroke:none;" d="M129 82L130 83L129 82M145 82L146 83L145 82M148 82L149 83L148 82z"/>
<path style="fill:#446ebb; stroke:none;" d="M164 82L165 83L164 82z"/>
<path style="fill:#decf2e; stroke:none;" d="M171 84L174 84L173 82L171 84M175.333 82.6667L175.667 83.3333L175.333 82.6667z"/>
<path style="fill:#d8e0ee; stroke:none;" d="M176 82L176 84L178 82L176 82z"/>
<path style="fill:#439f7c; stroke:none;" d="M268 82L269 83L268 82M105.667 83.3333L106.333 83.6667L105.667 83.3333z"/>
<path style="fill:#446ebb; stroke:none;" d="M162.667 83.3333L163.333 83.6667L162.667 83.3333z"/>
<path style="fill:#439f7c; stroke:none;" d="M109 84L109 85L113 85L109 84M117 84L118 85L117 84z"/>
<path style="fill:#d8e0ee; stroke:none;" d="M133 84L132 88L137 89L136 84L133 84z"/>
<path style="fill:#446ebb; stroke:none;" d="M159.667 84.3333L160.333 84.6667L159.667 84.3333M263 84L263 86L266 86L266 84L263 84z"/>
<path style="fill:#439f7c; stroke:none;" d="M118.667 85.3333L119.333 85.6667L118.667 85.3333z"/>
<path style="fill:#446ebb; stroke:none;" d="M158 85L158 89L159 89L158 85z"/>
<path style="fill:#439f7c; stroke:none;" d="M266 85L267 86L266 85M122 86L122 87L125 87L122 86M131.667 86.3333L132.333 86.6667L131.667 86.3333z"/>
<path style="fill:#d8e0ee; stroke:none;" d="M145.667 86.3333L146.333 86.6667L145.667 86.3333z"/>
<path style="fill:#439f7c; stroke:none;" d="M147 86L148 87L147 86M126 87L127 88L126 87M142 87L143 88L142 87z"/>
<path style="fill:#decf2e; stroke:none;" d="M154 108L164 114L164 115C155.264 115.689 150.266 115.961 148 125L149 126L170 122C170.938 127.76 177.563 132.246 183 128.753C192.609 122.58 206.663 111.768 209 100C201.227 96.7682 187.438 86.4272 179 87.6219C170.821 88.78 159.978 102.494 154 108z"/>
<path style="fill:#439f7c; stroke:none;" d="M260 87L261 88L260 87M38 88L38 89L41 90L38 88M132 88L133 89L132 88M137.667 88.3333L138.333 88.6667L137.667 88.3333z"/>
<path style="fill:#d8e0ee; stroke:none;" d="M38 89L38 93L27 93L27 96C33.2607 96 41.6036 97.7278 40 89L38 89z"/>
<path style="fill:#439f7c; stroke:none;" d="M127 89L128 90L127 89M133.667 89.3333L134.333 89.6667L133.667 89.3333z"/>
<path style="fill:#446ebb; stroke:none;" d="M157 89L158 90L157 89z"/>
<path style="fill:#439f7c; stroke:none;" d="M264 89L265 90L264 89M128 90L129 91L128 90M261 90L262 91L261 90M40.3333 91.6667L40.6667 92.3333L40.3333 91.6667M130 91L131 92L130 91M132 92L133 93L132 92M133 93L134 94L133 93z"/>
<path style="fill:#b33c42; stroke:none;" d="M140 94L143 101C152.696 98.9781 147.175 93.7567 140 94M179 93L192 104C194.003 96.4593 184.709 93.7725 179 93z"/>
<path style="fill:#446ebb; stroke:none;" d="M182 93L183 94L182 93z"/>
<path style="fill:#439f7c; stroke:none;" d="M183 93L184 94L183 93M40 94L41 95L40 94z"/>
<path style="fill:#decf2e; stroke:none;" d="M131 99L132 99L133 96L139 98C136.126 93.8215 132.972 94.5755 131 99z"/>
<path style="fill:#439f7c; stroke:none;" d="M135 94L136 95L135 94z"/>
<path style="fill:#446ebb; stroke:none;" d="M176 94L168 104L194 107C190.876 97.9524 184.951 95.1915 176 94z"/>
<path style="fill:#439f7c; stroke:none;" d="M186 94L187 95L186 94z"/>
<path style="fill:#decf2e; stroke:none;" d="M140 95L141 96L140 95z"/>
<path style="fill:#b33c42; stroke:none;" d="M170 100L176 95L170 100z"/>
<path style="fill:#439f7c; stroke:none;" d="M133 96L132 99C134.158 98.0224 134.501 97.8117 133 96M137.333 97.6667L137.667 98.3333L137.333 97.6667M190 97L191 98L190 97z"/>
<path style="fill:#d8e0ee; stroke:none;" d="M258 97L258 100L266 100L266 101C261.798 102.217 258.783 103.445 258 108L271 108L271 105L263 105L263 104C267.538 103.175 270.229 101.734 271 97L258 97z"/>
<path style="fill:#446ebb; stroke:none;" d="M130 101L137 100C134.738 97.6192 131.935 98.6062 130 101M214 98L202.775 121.941L191.34 129.385L185 144L178 152L169 153C172.166 160.819 169.52 164.25 161 165L161 170L156 170L154 186L148 204L154 207C154.992 198.041 159.641 185.15 164.938 177.595C169.335 171.325 176.514 171.844 177 163C186.959 160.947 189.009 149.624 193.164 142.015C196.18 136.491 202.652 136.322 206.298 131.775C210.089 127.048 208.845 121.293 210.564 116C212.666 109.529 220.593 104.463 214 98z"/>
<path style="fill:#b33c42; stroke:none;" d="M136 115L136 99C127.09 101.439 129.917 110.457 136 115z"/>
<path style="fill:#446ebb; stroke:none;" d="M148 99L149 100L148 99M146 100L147 101L146 100z"/>
<path style="fill:#b33c42; stroke:none;" d="M169 100L168 103L169 100z"/>
<path style="fill:#446ebb; stroke:none;" d="M143 103L146 102L143 103z"/>
<path style="fill:#d8e0ee; stroke:none;" d="M40 112C40.1295 110.38 40.4361 108.616 40.142 106.995C37.7589 93.8594 17.6116 111.298 33.0031 111.981C35.3273 112.084 37.6737 112 40 112z"/>
<path style="fill:#439f7c; stroke:none;" d="M39 103L40 104L39 103M167 103L168 104L167 103M170.667 103.333L171.333 103.667L170.667 103.333z"/>
<path style="fill:#d8e0ee; stroke:none;" d="M167 105L167 106L193 109C186.798 101.899 175.273 101.902 167 105z"/>
<path style="fill:#439f7c; stroke:none;" d="M182.667 103.333L183.333 103.667L182.667 103.333M208 103L209 104L208 103M27 104L28 105L27 104M186 104L187 105L186 104M193 104L194 105L193 104M263 104L264 105L263 104z"/>
<path style="fill:#446ebb; stroke:none;" d="M35 105L38 108L37 105L35 105z"/>
<path style="fill:#439f7c; stroke:none;" d="M37 105L38 106L37 105M169.667 105.333L170.333 105.667L169.667 105.333z"/>
<path style="fill:#446ebb; stroke:none;" d="M167 106L169 120L171 122C176.039 121.932 198.15 120.519 190.957 109.638C186.471 102.853 173.53 105.175 167 106z"/>
<path style="fill:#439f7c; stroke:none;" d="M182 105L183 106L182 105z"/>
<path style="fill:#b33c42; stroke:none;" d="M206 105L206 107L208 105L206 105z"/>
<path style="fill:#446ebb; stroke:none;" d="M30 106L30 108L32 108L30 106z"/>
<path style="fill:#439f7c; stroke:none;" d="M31 106L32 107L31 106M40 106L41 107L40 106z"/>
<path style="fill:#decf2e; stroke:none;" d="M129 106L130 107L129 106z"/>
<path style="fill:#439f7c; stroke:none;" d="M186 106L187 107L186 106M29 107L30 108L29 107z"/>
<path style="fill:#decf2e; stroke:none;" d="M130 107L131 108L130 107z"/>
<path style="fill:#b33c42; stroke:none;" d="M166 107L168 111L166 107z"/>
<path style="fill:#439f7c; stroke:none;" d="M192 107L193 108L192 107M35.6667 108.333L36.3333 108.667L35.6667 108.333M40 108L40 111L41 111L40 108z"/>
<path style="fill:#decf2e; stroke:none;" d="M131 108L132 109L131 108z"/>
<path style="fill:#439f7c; stroke:none;" d="M215 108L216 109L215 108z"/>
<path style="fill:#decf2e; stroke:none;" d="M132.333 109.667L132.667 110.333L132.333 109.667M142 109L142 121L143 121L142 109z"/>
<path style="fill:#b33c42; stroke:none;" d="M143 110C142.999 116.914 141.53 122.289 146 128C152.348 119.074 151.928 116.527 164 115L164 114L156 109L143 110z"/>
<path style="fill:#439f7c; stroke:none;" d="M205 109C198.927 114.792 188.313 127.784 180 129.488C176.776 130.15 172.878 127.204 170 126C174.1 131.666 178.728 138.188 168 139L167 134C167 137.942 163 134.554 163 132L159 132L162 130L159 129L160 125L164 124L164 123C160.593 123.146 154.363 122.932 151.607 125.178C146.889 129.023 153.569 134.796 157 136L157 137L152 137L149 145L175 146L177 152L178 152L185 144C186.642 139.716 187.262 134.179 190.562 130.829C196.942 124.353 210.28 121.701 205 109M214 109L215 110L214 109z"/>
<path style="fill:#446ebb; stroke:none;" d="M147 110L148 111L147 110M151 110L152 111L151 110z"/>
<path style="fill:#b33c42; stroke:none;" d="M192.333 110.667L192.667 111.333L192.333 110.667z"/>
<path style="fill:#439f7c; stroke:none;" d="M213 110L214 111L213 110M27 111L28 112L27 111z"/>
<path style="fill:#446ebb; stroke:none;" d="M148.667 111.333L149.333 111.667L148.667 111.333z"/>
<path style="fill:#decf2e; stroke:none;" d="M133.333 112.667L133.667 113.333L133.333 112.667z"/>
<path style="fill:#439f7c; stroke:none;" d="M192 112L193 113L192 112M212 112L213 113L212 112M211 113L212 114L211 113M166 114L167 115L166 114z"/>
<path style="fill:#b33c42; stroke:none;" d="M167 114L168 118L169 118L167 114z"/>
<path style="fill:#439f7c; stroke:none;" d="M191 114L192 115L191 114M210 114L210 123L211 123L210 114M258 114L259 115L258 114z"/>
<path style="fill:#d8e0ee; stroke:none;" d="M259 114C256.712 122.056 263.701 124.947 267 117L268 117L268 122C272.313 121.076 271.71 114.623 267.028 115.139C264.377 115.431 262.65 118.195 261 120L261 114L259 114z"/>
<path style="fill:#439f7c; stroke:none;" d="M266 114L266 115L269 115L266 114z"/>
<path style="fill:#decf2e; stroke:none;" d="M135 115L136 116L135 115z"/>
<path style="fill:#439f7c; stroke:none;" d="M260 116L261 117L260 116M39 117L41 119L39 117M263 117L264 118L263 117M267 117L268 118L267 117z"/>
<path style="fill:#d8e0ee; stroke:none;" d="M40 129L37 126L37 121L41 120C38.3138 118.046 26.9973 118.594 27.9213 123.855C28.5726 127.563 37.0741 128.568 40 129z"/>
<path style="fill:#439f7c; stroke:none;" d="M168 118L169 119L168 118M266 118L267 119L266 118z"/>
<path style="fill:#b33c42; stroke:none;" d="M170 119L170 121L172 121L170 119z"/>
<path style="fill:#439f7c; stroke:none;" d="M187 119L188 120L187 119M30 120L31 121L30 120z"/>
<path style="fill:#b33c42; stroke:none;" d="M178 122L178 123L184 122L178 122z"/>
<path style="fill:#439f7c; stroke:none;" d="M186 120L187 121L186 120M27 121L28 122L27 121M37 121L38 122L37 121M138 121L139 122L138 121z"/>
<path style="fill:#446ebb; stroke:none;" d="M139 121C140.295 124.5 144.243 131.996 148 127L139 121z"/>
<path style="fill:#439f7c; stroke:none;" d="M140 121L141 122L140 121z"/>
<path style="fill:#b33c42; stroke:none;" d="M174 121L177 123L174 121z"/>
<path style="fill:#439f7c; stroke:none;" d="M34 122L35 123L34 122M165 122L165 123L170 124L165 122M173 122L174 123L173 122M263 122L264 123L263 122z"/>
<path style="fill:#446ebb; stroke:none;" d="M31 123L31 124L35 125L31 123z"/>
<path style="fill:#439f7c; stroke:none;" d="M37 123L38 124L37 123z"/>
<path style="fill:#446ebb; stroke:none;" d="M164 123L165 124L164 123z"/>
<path style="fill:#b33c42; stroke:none;" d="M161 129C165.655 128.984 169.128 129.225 170 124C165.2 123.37 162.687 124.313 161 129z"/>
<path style="fill:#446ebb; stroke:none;" d="M167.667 123.333L168.333 123.667L167.667 123.333z"/>
<path style="fill:#439f7c; stroke:none;" d="M176 123L176 124L179 124L176 123M33 124L34 125L33 124M140.333 124.667L140.667 125.333L140.333 124.667z"/>
<path style="fill:#d8e0ee; stroke:none;" d="M149 124L150 125L149 124z"/>
<path style="fill:#446ebb; stroke:none;" d="M162 124L163 125L162 124z"/>
<path style="fill:#439f7c; stroke:none;" d="M209 124L209 127L210 127L209 124M27 125L28 126L27 125M37 125L38 126L37 125M147.333 125.667L147.667 126.333L147.333 125.667z"/>
<path style="fill:#446ebb; stroke:none;" d="M160 125L162 127L162 125L160 125z"/>
<path style="fill:#439f7c; stroke:none;" d="M30 126L31 127L30 126M141 126L142 127L141 126M33 127L34 128L33 127M40.3333 127.667L40.6667 128.333L40.3333 127.667z"/>
<path style="fill:#446ebb; stroke:none;" d="M160 127L159 129L161 129L160 127M170 127L171 128L170 127z"/>
<path style="fill:#439f7c; stroke:none;" d="M208.333 127.667L208.667 128.333L208.333 127.667M36 128L37 129L36 128M142.667 128.333L143.333 128.667L142.667 128.333z"/>
<path style="fill:#decf2e; stroke:none;" d="M169 128L167 132L168 132L169 128z"/>
<path style="fill:#d8e0ee; stroke:none;" d="M169 129L170 133L168 129L159 132L163 132L168 136L167 134L176 133L169 129z"/>
<path style="fill:#439f7c; stroke:none;" d="M39 129L40 130L39 129M144.667 129.333L145.333 129.667L144.667 129.333M147 129L148 130L147 129z"/>
<path style="fill:#446ebb; stroke:none;" d="M156.667 129.333L157.333 129.667L156.667 129.333z"/>
<path style="fill:#decf2e; stroke:none;" d="M162.667 129.333L163.333 129.667L162.667 129.333z"/>
<path style="fill:#d8e0ee; stroke:none;" d="M258 129L258 132L263 132C264.498 141.391 270.918 135.917 271 129L258 129z"/>
<path style="fill:#446ebb; stroke:none;" d="M152.333 130.667L152.667 131.333L152.333 130.667z"/>
<path style="fill:#439f7c; stroke:none;" d="M168 130L168 133L170 133L170 130L168 130M207 130L208 131L207 130z"/>
<path style="fill:#d8e0ee; stroke:none;" d="M154 132L160 135L160 134L154 132M158 132L159 133L158 132z"/>
<path style="fill:#439f7c; stroke:none;" d="M206 132L207 133L206 132z"/>
<path style="fill:#446ebb; stroke:none;" d="M265 132L266 135L268 135L269 132L265 132z"/>
<path style="fill:#439f7c; stroke:none;" d="M164.667 133.333L165.333 133.667L164.667 133.333M171.667 133.333L172.333 133.667L171.667 133.333z"/>
<path style="fill:#446ebb; stroke:none;" d="M169 134L168 139C172.725 138.846 175.215 137.923 176 133L169 134z"/>
<path style="fill:#b33c42; stroke:none;" d="M191 133L190 138L192 138L191 133z"/>
<path style="fill:#439f7c; stroke:none;" d="M205 133L206 134L205 133M265 133L266 134L265 133z"/>
<path style="fill:#d8e0ee; stroke:none;" d="M27 134L27 144L30 143L29 141L40 140L40 137L27 134z"/>
<path style="fill:#439f7c; stroke:none;" d="M29.3333 134.667L29.6667 135.333L29.3333 134.667M203 134L204 135L203 134z"/>
<path style="fill:#d8e0ee; stroke:none;" d="M161 135L162 136L161 135z"/>
<path style="fill:#439f7c; stroke:none;" d="M200 135L201 136L200 135M198 136L199 137L198 136M270 136L271 137L270 136M196 137L197 138L196 137M264 137L265 138L264 137M269 137L270 138L269 137M40.3333 138.667L40.6667 139.333L40.3333 138.667M195 138L196 139L195 138M194 139L195 140L194 139z"/>
<path style="fill:#d8e0ee; stroke:none;" d="M168.333 140.667L168.667 141.333L168.333 140.667z"/>
<path style="fill:#439f7c; stroke:none;" d="M193 140L194 141L193 140M29 141L30 142L29 141z"/>
<path style="fill:#d8e0ee; stroke:none;" d="M170 141L170 143L172 141L170 141z"/>
<path style="fill:#439f7c; stroke:none;" d="M145 142L146 149L147 149L145 142M192 142L192 147L193 147L192 142M29 143L30 144L29 143z"/>
<path style="fill:#446ebb; stroke:none;" d="M145 143C144.625 151.725 138.924 162.26 143 170L140 174L143 175C145.419 166.12 148.674 151.755 145 143z"/>
<path style="fill:#d8e0ee; stroke:none;" d="M258 143L258 155C272.382 151.993 272.009 146.241 258 143z"/>
<path style="fill:#439f7c; stroke:none;" d="M260 143L261 144L260 143M160 144L161 145L160 144M263 144L264 145L263 144M144.333 145.667L144.667 146.333L144.333 145.667z"/>
<path style="fill:#decf2e; stroke:none;" d="M170 146L170 148L172 148L172 146L170 146z"/>
<path style="fill:#439f7c; stroke:none;" d="M259 146L260 147L259 146M191 147L192 148L191 147M263 147L264 148L263 147M144 148L145 149L144 148z"/>
<path style="fill:#446ebb; stroke:none;" d="M174 148L175 149L174 148M263 148L263 150L266 150L266 148L263 148z"/>
<path style="fill:#439f7c; stroke:none;" d="M266 148L267 149L266 148M27 149L27 150L30 150L27 149z"/>
<path style="fill:#d8e0ee; stroke:none;" d="M27 150C29.8635 154.417 36.4697 153.339 41 152C37.7458 147.488 31.8685 149.096 27 150z"/>
<path style="fill:#439f7c; stroke:none;" d="M190 149L191 150L190 149M40 150L41 151L40 150z"/>
<path style="fill:#decf2e; stroke:none;" d="M155.184 150.89C150.722 152.229 151.54 161.252 156.791 159.338C160.992 157.807 160.033 149.436 155.184 150.89z"/>
<path style="fill:#439f7c; stroke:none;" d="M169 150L171 153L169 150z"/>
<path style="fill:#446ebb; stroke:none;" d="M170 150L170 151L177 151L170 150z"/>
<path style="fill:#439f7c; stroke:none;" d="M179 150L180 151L179 150z"/>
<path style="fill:#d8e0ee; stroke:none;" d="M171 151L171 152L177 152L171 151z"/>
<path style="fill:#439f7c; stroke:none;" d="M189 151L190 152L189 151M259 151L260 152L259 151M27 152L28 153L27 152M188 152L189 153L188 152M266 152L267 153L266 152M172.667 153.333L173.333 153.667L172.667 153.333z"/>
<path style="fill:#d8e0ee; stroke:none;" d="M174.667 153.333L175.333 153.667L174.667 153.333z"/>
<path style="fill:#439f7c; stroke:none;" d="M168 154L169 155L168 154M260 154L261 155L260 154z"/>
<path style="fill:#decf2e; stroke:none;" d="M169 155L170 156L169 155z"/>
<path style="fill:#439f7c; stroke:none;" d="M170 155L171 156L170 155z"/>
<path style="fill:#b33c42; stroke:none;" d="M172 155L177 157L172 155z"/>
<path style="fill:#439f7c; stroke:none;" d="M186 155L187 156L186 155M143 156L144 157L143 156M185.333 156.667L185.667 157.333L185.333 156.667M184 158L185 159L184 158M27 159L28 160L27 159z"/>
<path style="fill:#d8e0ee; stroke:none;" d="M27 160L27 162L38 163C35.5453 167.452 31.6609 166.996 27 167L27 170C30.2214 170 34.8758 170.792 37.7176 168.972C47.3138 162.827 32.3433 158.421 27 160z"/>
<path style="fill:#439f7c; stroke:none;" d="M183.333 159.667L183.667 160.333L183.333 159.667M171 160L172 161L171 160M182 161L183 162L182 161z"/>
<path style="fill:#d8e0ee; stroke:none;" d="M258 161L258 164L263 164L258 171C265.817 167.979 270.963 171.597 271 161L258 161z"/>
<path style="fill:#439f7c; stroke:none;" d="M27.6667 162.333L28.3333 162.667L27.6667 162.333M33.6667 162.333L34.3333 162.667L33.6667 162.333M170 162L171 163L170 162M180.667 162.333L181.333 162.667L180.667 162.333M37 163L38 164L37 163M40 163L41 164L40 163M140 163L141 164L140 163M168 163L169 164L168 163M177 163L178 164L177 163M164.667 164.333L165.333 164.667L164.667 164.333z"/>
<path style="fill:#446ebb; stroke:none;" d="M265 164L266 167L268 167L269 164L265 164z"/>
<path style="fill:#439f7c; stroke:none;" d="M40 165L41 166L40 165M145 166C141.878 174.62 140.085 191.709 143 200C148.32 199.114 152.646 190.957 154 186C151.038 182.436 156.284 170.524 161 170L161 165L145 166M140 166L141 167L140 166z"/>
<path style="fill:#d8e0ee; stroke:none;" d="M160 166L161 167L160 166z"/>
<path style="fill:#b33c42; stroke:none;" d="M168 166L168 169L169 169L168 166z"/>
<path style="fill:#439f7c; stroke:none;" d="M141 167L142 168L141 167M258 167L259 168L258 167M39 168L40 169L39 168M176 168L177 169L176 168M38 169L39 170L38 169M142 169L143 170L142 169z"/>
<path style="fill:#d8e0ee; stroke:none;" d="M154 169L155 170L154 169M158.667 169.333L159.333 169.667L158.667 169.333z"/>
<path style="fill:#439f7c; stroke:none;" d="M261 169L262 170L261 169M140 170L141 171L140 170M259 170L260 171L259 170M173 171L174 172L173 171M171 172L172 173L171 172M167.667 173.333L168.333 173.667L167.667 173.333M139 174L140 175L139 174z"/>
<path style="fill:#b33c42; stroke:none;" d="M140 174L136 190C137.587 196.029 138.192 202.389 142.043 207.556C143.088 208.958 146.833 213.521 148.567 210.377C149.735 208.259 148.598 203.555 149 201L142 200L142 174L140 174z"/>
<path style="fill:#439f7c; stroke:none;" d="M40 175L40 176L43 177L40 175M166.333 175.667L166.667 176.333L166.333 175.667z"/>
<path style="fill:#d8e0ee; stroke:none;" d="M42 176C38.3243 176.857 32.5273 176.05 29.4336 178.179C22.5815 182.895 32.2937 192.855 38.4722 187.258C41.097 184.88 41.3789 179.314 42 176z"/>
<path style="fill:#439f7c; stroke:none;" d="M258 176L258 177L262 177L258 176z"/>
<path style="fill:#d8e0ee; stroke:none;" d="M258 177L258 184L260 184L260 180L264 180L264 184L266 184L266 180L269 180L269 184L271 184C270.891 174.863 265.373 176.199 258 177z"/>
<path style="fill:#439f7c; stroke:none;" d="M263 176L264 177L263 176M267 176L268 177L267 176M269.667 176.333L270.333 176.667L269.667 176.333M29 177L30 178L29 177M37 177L38 178L37 177M165 177L166 178L165 177z"/>
<path style="fill:#decf2e; stroke:none;" d="M140 178L139 182L140 178z"/>
<path style="fill:#446ebb; stroke:none;" d="M143 178L144 179L143 178z"/>
<path style="fill:#d8e0ee; stroke:none;" d="M153 178L152 180L153 178z"/>
<path style="fill:#439f7c; stroke:none;" d="M163 178L163 182L164 182L165 178L163 178M41 179L42 180L41 179M30 180L31 181L30 180z"/>
<path style="fill:#446ebb; stroke:none;" d="M31.6219 181.039C28.2013 183.686 33.5861 186.993 36.3781 184.832C39.7006 182.26 34.2064 179.038 31.6219 181.039z"/>
<path style="fill:#439f7c; stroke:none;" d="M36 180L37 181L36 180M40 180L41 181L40 180z"/>
<path style="fill:#b33c42; stroke:none;" d="M158 180L157 183L158 180z"/>
<path style="fill:#439f7c; stroke:none;" d="M40 182L41 183L40 182M29 183L30 184L29 183M162 183L163 184L162 183M137 184L138 185L137 184M161 184L162 185L161 184M258.667 184.333L259.333 184.667L258.667 184.333M269.667 184.333L270.333 184.667L269.667 184.333M27 185L28 186L27 185M36 185L37 186L36 185z"/>
<path style="fill:#446ebb; stroke:none;" d="M136 186L137 187L136 186z"/>
<path style="fill:#439f7c; stroke:none;" d="M160 186L161 187L160 186M28 187L29 188L28 187z"/>
<path style="fill:#decf2e; stroke:none;" d="M137 187L138 188L137 187z"/>
<path style="fill:#446ebb; stroke:none;" d="M142 187L143 188L142 187z"/>
<path style="fill:#d8e0ee; stroke:none;" d="M152 187L153 188L152 187z"/>
<path style="fill:#439f7c; stroke:none;" d="M37 188L38 189L37 188z"/>
<path style="fill:#d8e0ee; stroke:none;" d="M143 188L144 189L143 188z"/>
<path style="fill:#439f7c; stroke:none;" d="M158 188L159 189L158 188M157 190L158 191L157 190z"/>
<path style="fill:#decf2e; stroke:none;" d="M136 191L137 192L136 191z"/>
<path style="fill:#439f7c; stroke:none;" d="M158 191L159 192L158 191z"/>
<path style="fill:#d8e0ee; stroke:none;" d="M258 191L258 194L266 194L266 195C261.798 196.217 258.783 197.445 258 202L271 202L271 199L263 199L263 198C267.202 196.783 270.217 195.555 271 191L258 191z"/>
<path style="fill:#439f7c; stroke:none;" d="M159 192L159 196L160 196L159 192z"/>
<path style="fill:#decf2e; stroke:none;" d="M136.333 193.667L136.667 194.333L136.333 193.667M140.333 194.667L140.667 195.333L140.333 194.667z"/>
<path style="fill:#439f7c; stroke:none;" d="M265 194L266 195L265 194z"/>
<path style="fill:#d8e0ee; stroke:none;" d="M27 195L27 203C31.103 203 47.8511 201.989 38 195L38 200L34 199L35 196L32 200L27 195z"/>
<path style="fill:#439f7c; stroke:none;" d="M29.3333 195.667L29.6667 196.333L29.3333 195.667M40.3333 195.667L40.6667 196.333L40.3333 195.667z"/>
<path style="fill:#decf2e; stroke:none;" d="M137.333 195.667L137.667 196.333L137.333 195.667z"/>
<path style="fill:#439f7c; stroke:none;" d="M263 195L264 196L263 195M269 195L270 196L269 195z"/>
<path style="fill:#446ebb; stroke:none;" d="M141 196L142 197L141 196z"/>
<path style="fill:#439f7c; stroke:none;" d="M158.333 196.667L158.667 197.333L158.333 196.667M261 196L262 197L261 196M267 196L268 197L267 196z"/>
<path style="fill:#d8e0ee; stroke:none;" d="M142.333 197.667L142.667 198.333L142.333 197.667z"/>
<path style="fill:#439f7c; stroke:none;" d="M258.667 197.333L259.333 197.667L258.667 197.333M265 197L266 198L265 197M34 198L35 199L34 198z"/>
<path style="fill:#446ebb; stroke:none;" d="M137 198L138 199L137 198z"/>
<path style="fill:#b33c42; stroke:none;" d="M152 198L152 201L154 198L152 198z"/>
<path style="fill:#439f7c; stroke:none;" d="M157 198L158 199L157 198z"/>
<path style="fill:#446ebb; stroke:none;" d="M142 199L143 200L142 199z"/>
<path style="fill:#d8e0ee; stroke:none;" d="M147 199L148 200L147 199z"/>
<path style="fill:#439f7c; stroke:none;" d="M156 199L157 200L156 199M155.333 200.667L155.667 201.333L155.333 200.667M40 201L41 202L40 201z"/>
<path style="fill:#decf2e; stroke:none;" d="M138 201L139 202L138 201z"/>
<path style="fill:#446ebb; stroke:none;" d="M139 202L140 203L139 202z"/>
<path style="fill:#439f7c; stroke:none;" d="M154 202L155 203L154 202M139 203L140 207L141 207L139 203M148 204L149 208L156 208L156 207L148 204z"/>
<path style="fill:#decf2e; stroke:none;" d="M139 206L140 207L139 206z"/>
<path style="fill:#446ebb; stroke:none;" d="M148.333 206.667L148.667 207.333L148.333 206.667z"/>
<path style="fill:#d8e0ee; stroke:none;" d="M149 206L150 207L149 206z"/>
<path style="fill:#439f7c; stroke:none;" d="M269.667 207.333L270.333 207.667L269.667 207.333z"/>
<path style="fill:#446ebb; stroke:none;" d="M143.333 208.667L143.667 209.333L143.333 208.667M149 208C148.773 211.389 147.093 211.482 144 211C147.423 217.072 153.775 217.481 160 216L156 208L149 208z"/>
<path style="fill:#d8e0ee; stroke:none;" d="M269 208C266.52 211.825 262.192 211 258 211L258 214L271 217L271 208L269 208z"/>
<path style="fill:#439f7c; stroke:none;" d="M155 209L156 210L155 209M143 210L143 213L144 213L143 210M159 212L160 213L159 212M144 213L145 214L144 213M160 213L160 216L161 216L160 213M145.667 214.333L146.333 214.667L145.667 214.333M147.667 215.333L148.333 215.667L147.667 215.333M149 216L150 217L149 216M158.667 216.333L159.333 216.667L158.667 216.333M151 217L151 218L157 218L151 217M269.667 217.333L270.333 217.667L269.667 217.333z"/>
<path style="fill:#d8e0ee; stroke:none;" d="M63 240L63 258L67 258L67 240L63 240M79 240L79 258L86 248L87 258C96.2802 254.736 87.719 245.553 82 244L82 240L79 240z"/>
<path style="fill:#439f7c; stroke:none;" d="M82.3333 240.667L82.6667 241.333L82.3333 240.667z"/>
<path style="fill:#d8e0ee; stroke:none;" d="M234 240L234 246C227.827 244.37 222.062 251.21 227.568 256.394C230.027 258.709 234.88 257.852 238 258L238 240L234 240z"/>
<path style="fill:#439f7c; stroke:none;" d="M19 241L20 242L19 241z"/>
<path style="fill:#d8e0ee; stroke:none;" d="M19 242C19.5575 247.664 16.8209 256.801 24 258L24 251L30 252L29 257C36.0606 258.086 33.6838 246.836 34 242L29 242L30 248L24 248L24 241L19 242z"/>
<path style="fill:#439f7c; stroke:none;" d="M29 241L30 242L29 241M33 241L34 242L33 241z"/>
<path style="fill:#d8e0ee; stroke:none;" d="M93 241L93 258C96.4399 258 100.763 258.607 103.867 256.821C109.085 253.818 109.149 245.138 103.891 242.179C100.752 240.412 96.466 241 93 241z"/>
<path style="fill:#439f7c; stroke:none;" d="M103 241L104 242L103 241z"/>
<path style="fill:#d8e0ee; stroke:none;" d="M145 241L145 258L149 258L149 251L155 251L155 248L149 248L149 244L155 244L155 241L145 241M195 248L187 248L187 251L191 251L191 255C180.507 252.83 185.751 243.777 195 246C193.383 236.686 179.995 241.553 180.203 249.999C180.344 255.723 188.287 261.015 193.397 256.972C195.747 255.113 194.998 250.625 195 248M70 242C67.711 248.581 68.8581 257.729 77 258L74 255L77 248L77 245L74 242L70 242M123 242C120.711 248.581 121.858 257.729 130 258L127 255L130 248L130 245L127 242L123 242z"/>
<path style="fill:#439f7c; stroke:none;" d="M19.3333 243.667L19.6667 244.333L19.3333 243.667M29 243L30 244L29 243M33.3333 243.667L33.6667 244.333L33.3333 243.667M82 243L83 244L82 243z"/>
<path style="fill:#446ebb; stroke:none;" d="M97 244L97 255C104.951 253.356 104.951 245.644 97 244z"/>
<path style="fill:#439f7c; stroke:none;" d="M100 244L101 245L100 244M175 244L174 246L176 246L175 244M190 244L191 245L190 244M38 245L39 246L38 245z"/>
<path style="fill:#d8e0ee; stroke:none;" d="M47 254L40 254L40 253L47 253C46.739 244.986 36.7296 241.819 35.7222 251.012C34.9639 257.931 44.8141 260.586 47 254z"/>
<path style="fill:#439f7c; stroke:none;" d="M50 245L49 248L50 248L50 245z"/>
<path style="fill:#d8e0ee; stroke:none;" d="M50 249L56 248C47.8137 254.612 49.4802 257.427 60 258C60 254.832 60.821 250.087 58.9722 247.318C56.2574 243.251 51.2448 245.249 50 249z"/>
<path style="fill:#439f7c; stroke:none;" d="M58 245L59 246L58 245M88 245L89 246L88 245M102 245L103 246L102 245M110 245L111 246L110 245z"/>
<path style="fill:#d8e0ee; stroke:none;" d="M110 249L116 248C108.388 254.441 109.891 260.283 121 257C120.749 253.991 121.214 249.933 119.542 247.279C116.885 243.062 111.279 245.147 110 249z"/>
<path style="fill:#439f7c; stroke:none;" d="M132 245L131 248L132 248L132 245z"/>
<path style="fill:#d8e0ee; stroke:none;" d="M132 249L138 248C130.177 254.319 131.064 257.992 142 258C142 254.831 142.821 250.087 140.972 247.318C138.257 243.251 133.245 245.249 132 249z"/>
<path style="fill:#439f7c; stroke:none;" d="M140 245L141 246L140 245M159 245L160 246L159 245z"/>
<path style="fill:#d8e0ee; stroke:none;" d="M160.109 245.746C152.223 249.02 157.978 260.834 165.772 257.257C172.697 254.079 167.76 242.57 160.109 245.746z"/>
<path style="fill:#439f7c; stroke:none;" d="M166 245L167 246L166 245z"/>
<path style="fill:#d8e0ee; stroke:none;" d="M171 245L171 258L175 258L179 245L171 245M200.148 246.029C193.15 250.116 199.695 261.239 206.772 256.971C213.752 252.762 207.337 241.83 200.148 246.029z"/>
<path style="fill:#439f7c; stroke:none;" d="M207 245L208 246L207 245M214 245L215 246L214 245z"/>
<path style="fill:#d8e0ee; stroke:none;" d="M215.109 245.746C207.721 248.813 212.341 260.311 219.941 257.392C227.512 254.485 223.205 242.385 215.109 245.746z"/>
<path style="fill:#439f7c; stroke:none;" d="M221 245L222 246L221 245M233 245L234 246L233 245M249 245L250 246L249 245z"/>
<path style="fill:#d8e0ee; stroke:none;" d="M250.148 246.029C243.15 250.116 249.695 261.239 256.772 256.971C263.752 252.762 257.337 241.83 250.148 246.029z"/>
<path style="fill:#439f7c; stroke:none;" d="M257 245L258 246L257 245z"/>
<path style="fill:#d8e0ee; stroke:none;" d="M262 245L262 258L266 258C266.016 253.579 265.849 250.289 270 248C270.403 251.707 269.068 257.203 270.654 260.566C274.256 268.208 289.545 254.859 274 254L274 253C279.259 252.594 281.082 250.05 282 245C277.808 245 273.48 244.175 271 248L270 248L270 245L262 245z"/>
<path style="fill:#439f7c; stroke:none;" d="M19 246L20 247L19 246M46 246L47 247L46 246M59 246L60 247L59 246M89 246L90 247L89 246M141 246L142 247L141 246M180 246L181 247L180 246M208 246L209 247L208 246M258 246L259 247L258 246M29 247L30 248L29 247M36 247L37 248L36 247M103 247L104 248L103 247M168 247L169 248L168 247M223 247L224 248L223 247M259 247L260 248L259 247M270 247L271 248L270 247M19 248L20 249L19 248M33.3333 248.667L33.6667 249.333L33.3333 248.667z"/>
<path style="fill:#446ebb; stroke:none;" d="M40 250L43 248L40 250z"/>
<path style="fill:#439f7c; stroke:none;" d="M84.6667 248.333L85.3333 248.667L84.6667 248.333M120.333 248.667L120.667 249.333L120.333 248.667M137 248L138 249L137 248M156 248L157 249L156 248z"/>
<path style="fill:#446ebb; stroke:none;" d="M164 255L164 248C160.132 250.16 160.132 252.84 164 255z"/>
<path style="fill:#439f7c; stroke:none;" d="M176 248L177 249L176 248M178 248L179 249L178 248M202 248L203 249L202 248z"/>
<path style="fill:#446ebb; stroke:none;" d="M203.171 249.175C200.552 249.645 201.104 254.313 203.829 253.825C206.448 253.355 205.896 248.687 203.171 249.175z"/>
<path style="fill:#439f7c; stroke:none;" d="M204 248L205 249L204 248M211 248L212 249L211 248z"/>
<path style="fill:#446ebb; stroke:none;" d="M217.189 249.461C214.873 250.388 216.071 254.587 218.451 253.507C220.45 252.6 219.506 248.533 217.189 249.461z"/>
<path style="fill:#439f7c; stroke:none;" d="M218 248L219 249L218 248M230 248L231 249L230 248z"/>
<path style="fill:#446ebb; stroke:none;" d="M231 248L231 255C234.205 252.654 233.692 250.645 231 248z"/>
<path style="fill:#439f7c; stroke:none;" d="M252 248L251 250L252 248z"/>
<path style="fill:#446ebb; stroke:none;" d="M253.174 249.458C250.511 250.451 251.816 255.124 254.451 253.596C256.306 252.521 255.609 248.549 253.174 249.458z"/>
<path style="fill:#439f7c; stroke:none;" d="M254 248L255 249L254 248M267 248L268 249L267 248M269 248L270 249L269 248z"/>
<path style="fill:#446ebb; stroke:none;" d="M274 248L274 250L277 250L277 248L274 248z"/>
<path style="fill:#439f7c; stroke:none;" d="M43 249L44 250L43 249M47 249L47 253L48 253L47 249M90.3333 249.667L90.6667 250.333L90.3333 249.667M160 249L161 250L160 249M175 249L176 250L175 249M215 249L216 250L215 249M233 249L234 250L233 249M266 249L267 250L266 249M35 250L36 251L35 250M111 250L112 251L111 250M225 250L226 251L225 250M270 250L271 251L270 250M280 250L281 251L280 250M19.3333 251.667L19.6667 252.333L19.3333 251.667M33 251L34 252L33 251M49 251L50 252L49 251M86 251L87 252L86 251M103 251L104 252L103 251M120 251L121 252L120 251M131 251L132 252L131 251M229.333 251.667L229.667 252.333L229.333 251.667M29 252L30 253L29 252M107 252L108 253L107 252M109 252L110 253L109 252M225 252L226 253L225 252M33 253L34 254L33 253z"/>
<path style="fill:#446ebb; stroke:none;" d="M53 255L56 253L53 255z"/>
<path style="fill:#439f7c; stroke:none;" d="M102 253L103 254L102 253z"/>
<path style="fill:#446ebb; stroke:none;" d="M113 253L114 255L115 255L116 253L113 253M135 255L138 253L135 255z"/>
<path style="fill:#439f7c; stroke:none;" d="M160 253L161 254L160 253M185 253L186 254L185 253M215 253L216 254L215 253M29.3333 254.667L29.6667 255.333L29.3333 254.667M43 254L44 255L43 254M74 254L74 255L77 255L74 254M86 254L86 258L87 258L86 254M100 254L101 255L100 254M113 254L114 255L113 254M115 254L116 255L115 254M120 254L121 255L120 254M127 254L128 255L127 254M129 254L130 255L129 254M156 254L157 255L156 254M161 254L162 255L161 254M187 254L188 255L187 254M190 254L191 255L190 254M202 254L203 255L202 254M204 254L205 255L204 254M209 254L210 255L209 254M211 254L212 255L211 254M216 254L217 255L216 254M218 254L219 255L218 254M230 254L231 255L230 254z"/>
<path style="fill:#d8e0ee; stroke:none;" d="M241 254L241 258L245 258L241 254z"/>
<path style="fill:#439f7c; stroke:none;" d="M244 254L245 255L244 254M252 254L253 255L252 254M254 254L255 255L254 254M259 254L260 255L259 254M279 254L280 255L279 254M168 255L169 256L168 255M197 255L198 256L197 255M240.333 255.667L240.667 256.333L240.333 255.667M49 256L50 257L49 256M70 256L71 257L70 256M90.3333 256.667L90.6667 257.333L90.3333 256.667M123 256L124 257L123 256M131 256L132 257L131 256M157 256L158 257L157 256M198 256L199 257L198 256M212 256L213 257L212 256M222 256L223 257L222 256M226 256L227 257L226 256M248 256L249 257L248 256M281 256L282 257L281 256M19 257L20 258L19 257M29 257L30 258L29 257M33 257L34 258L33 257M38 257L39 258L38 257M46 257L47 258L46 257M50 257L51 258L50 257M56 257L57 258L56 257M82 257L83 258L82 257M103 257L104 258L103 257M120 257L121 258L120 257M132 257L133 258L132 257M158 257L159 258L158 257M166 257L167 258L166 257M184 257L185 258L184 257M194 257L195 258L194 257M221 257L222 258L221 257M227 257L228 258L227 257M233.667 257.333L234.333 257.667L233.667 257.333M249 257L250 258L249 257M270 257L271 258L270 257z"/>
<path style="fill:#446ebb; stroke:none;" d="M273 258L273 259L278 259L273 258z"/>
<path style="fill:#439f7c; stroke:none;" d="M281 260L282 261L281 260M280 261L281 262L280 261M271 262L272 263L271 262z"/>
</svg>
