<?xml version="1.0" standalone="no"?>
<!DOCTYPE svg PUBLIC "-//W3C//DTD SVG 20010904//EN"
 "http://www.w3.org/TR/2001/REC-SVG-20010904/DTD/svg10.dtd">
<svg version="1.0" xmlns="http://www.w3.org/2000/svg"
 width="158.000000pt" height="160.000000pt" viewBox="0 0 158.000000 160.000000"
 preserveAspectRatio="xMidYMid meet">

<g transform="translate(0.000000,160.000000) scale(0.100000,-0.100000)"
fill="#000000" stroke="none">
<path d="M729 1445 c-205 -87 -397 -263 -495 -457 -80 -158 -108 -315 -102
-575 3 -156 4 -161 31 -200 37 -54 98 -80 235 -98 367 -51 883 -24 999 52 13
9 35 35 48 58 24 40 25 48 25 236 0 170 -3 208 -25 302 -55 243 -203 457 -412
594 -79 52 -209 114 -235 112 -7 0 -38 -11 -69 -24z m-65 -361 c28 -11 19 -35
-11 -32 -25 3 -28 -1 -31 -31 -4 -36 9 -58 28 -46 8 5 8 10 0 20 -15 18 -4 35
21 35 14 0 19 -7 19 -29 0 -56 -52 -79 -90 -41 -32 32 -21 113 17 123 28 7 30
7 47 1z m324 -75 c-9 -46 -18 -65 -31 -67 -12 -3 -19 5 -23 27 -8 39 -21 40
-29 0 -12 -52 -38 -33 -53 39 -15 67 -13 78 13 69 9 -4 15 -19 15 -39 0 -25 3
-29 10 -18 5 8 10 25 10 38 0 15 6 22 19 22 13 0 21 -11 28 -42 9 -36 11 -38
12 -15 1 39 20 72 33 59 7 -7 6 -31 -4 -73z m88 73 c15 -9 49 -130 40 -140 -4
-4 -16 3 -26 16 -22 27 -36 28 -50 2 -14 -26 -30 -26 -30 0 0 24 39 130 48
130 4 0 12 -4 18 -8z m108 -24 c8 25 36 38 36 16 0 -8 -5 -25 -12 -37 -6 -12
-14 -37 -17 -56 -8 -44 -31 -54 -31 -12 0 16 -9 46 -21 65 -27 46 -14 70 17
31 21 -26 22 -27 28 -7z m-754 -4 c0 -33 33 -30 38 4 2 12 10 22 18 22 12 0
14 -13 12 -67 -2 -42 -8 -68 -15 -71 -9 -2 -13 7 -13 27 0 24 -4 31 -19 31
-14 0 -21 -8 -23 -27 -2 -17 -9 -28 -18 -28 -11 0 -16 14 -18 54 -4 63 2 81
23 81 9 0 15 -9 15 -26z m128 -41 c-2 -42 -8 -68 -15 -71 -10 -3 -13 15 -13
67 0 57 3 71 15 71 13 0 15 -12 13 -67z m192 42 c0 -18 5 -25 20 -25 15 0 20
7 20 25 0 16 6 25 15 25 13 0 15 -12 13 -67 -2 -42 -8 -68 -15 -71 -9 -2 -13
7 -13 27 0 24 -4 31 -20 31 -15 0 -20 -7 -20 -24 0 -29 -19 -44 -31 -25 -10
16 -12 113 -2 122 15 16 33 6 33 -18z m112 -197 c10 -4 30 -30 45 -56 26 -43
28 -56 28 -147 0 -86 -3 -107 -24 -147 -39 -77 -125 -107 -206 -74 -38 16 -42
30 -20 60 13 17 18 18 40 8 41 -19 64 -14 96 17 20 20 29 39 29 62 0 30 -1 31
-17 17 -45 -38 -115 -26 -162 28 -27 30 -31 43 -31 90 0 84 36 139 102 154 35
8 92 3 120 -12z m66 -544 c17 -12 22 -25 22 -59 0 -67 -46 -97 -95 -61 -29 21
-27 92 4 117 28 23 40 24 69 3z m150 -12 c7 -9 9 -23 6 -32 -8 -16 -8 -45 -3
-69 2 -8 -3 -16 -12 -18 -11 -3 -19 5 -23 21 -8 33 -26 34 -26 1 0 -16 -6 -25
-15 -25 -12 0 -15 14 -15 69 0 46 4 71 13 75 20 8 61 -4 75 -22z m226 22 c26
-10 18 -32 -11 -36 l-28 -3 30 -15 c34 -17 45 -59 21 -79 -21 -18 -70 -10 -74
12 -3 14 1 17 21 12 35 -9 43 11 10 27 -34 16 -43 56 -17 75 20 15 26 16 48 7z
m-966 -37 l22 -32 0 33 c0 21 5 32 14 32 18 0 22 -19 18 -86 -4 -64 -17 -68
-52 -16 l-25 37 -3 -38 c-5 -64 -27 -38 -30 36 -3 59 -1 67 15 67 10 0 28 -15
41 -33z m172 18 c0 -9 -9 -15 -25 -15 -14 0 -25 -4 -25 -10 0 -5 11 -10 25
-10 16 0 25 -6 25 -15 0 -9 -9 -15 -25 -15 -16 0 -25 -6 -25 -15 0 -9 9 -15
25 -15 16 0 25 -6 25 -15 0 -11 -11 -15 -40 -15 l-40 0 0 70 0 70 40 0 c29 0
40 -4 40 -15z m120 5 c0 -5 -6 -13 -14 -17 -9 -5 -16 -28 -18 -58 -2 -36 -7
-50 -18 -50 -11 0 -16 14 -18 50 -2 30 -9 53 -18 58 -28 16 -13 27 36 27 28 0
50 -4 50 -10z m50 -14 c0 -36 17 -40 24 -6 7 37 33 40 42 5 7 -30 24 -33 24
-5 0 19 25 38 36 28 5 -6 -22 -127 -30 -135 -11 -11 -36 7 -36 26 0 32 -17 33
-24 1 -4 -21 -11 -30 -25 -30 -20 0 -25 9 -36 70 -4 19 -9 43 -11 53 -4 12 0
17 15 17 16 0 21 -6 21 -24z m470 2 l0 -22 16 22 c14 21 44 31 44 14 0 -4 -7
-17 -15 -29 -14 -20 -14 -25 5 -55 25 -41 25 -48 2 -48 -11 0 -25 12 -32 28
l-14 27 -4 -27 c-2 -16 -10 -28 -18 -28 -11 0 -14 16 -14 70 0 56 3 70 15 70
9 0 15 -9 15 -22z"/>
<path d="M1055 1021 c-3 -5 -1 -12 5 -16 5 -3 10 1 10 9 0 18 -6 21 -15 7z"/>
<path d="M742 787 c-32 -39 -21 -120 18 -132 40 -13 68 2 81 44 17 56 -3 95
-52 99 -22 2 -40 -2 -47 -11z"/>
<path d="M881 291 c-7 -5 -11 -22 -9 -42 2 -26 8 -34 23 -34 15 0 21 8 23 31
3 34 -16 58 -37 45z"/>
<path d="M1022 279 c2 -6 8 -10 13 -10 5 0 11 4 13 10 2 6 -4 11 -13 11 -9 0
-15 -5 -13 -11z"/>
</g>
</svg>
