<?xml version="1.0" encoding="UTF-8" standalone="no"?>
<!-- Created with Inkscape (http://www.inkscape.org/) -->

<svg
   xmlns:dc="http://purl.org/dc/elements/1.1/"
   xmlns:cc="http://creativecommons.org/ns#"
   xmlns:rdf="http://www.w3.org/1999/02/22-rdf-syntax-ns#"
   xmlns:svg="http://www.w3.org/2000/svg"
   xmlns="http://www.w3.org/2000/svg"
   version="1.1"
   width="655.07202"
   height="296.96585"
   id="svg2"
   xml:space="preserve">
   <defs
     id="defs6"><clipPath
       id="clipPath156-4"><path
         d="m 0,0 841.89,0 0,595.276 L 0,595.276 0,0 z"
         id="path158-0" /></clipPath><clipPath
       id="clipPath140-9"><path
         d="m 0,0 841.89,0 0,595.276 L 0,595.276 0,0 z"
         id="path142-4" /></clipPath><clipPath
       id="clipPath124-8"><path
         d="m 0,0 841.89,0 0,595.276 L 0,595.276 0,0 z"
         id="path126-8" /></clipPath><clipPath
       id="clipPath104-2"><path
         d="m 0,0 841.89,0 0,595.276 L 0,595.276 0,0 z"
         id="path106-4" /></clipPath><clipPath
       id="clipPath72-5"><path
         d="m 0,0 841.89,0 0,595.276 L 0,595.276 0,0 z"
         id="path74-5" /></clipPath></defs><g
     transform="matrix(1.25,0,0,-1.25,-149.11131,582.86937)"
     id="g10"><g
       transform="matrix(4.5646388,0,0,4.5646388,129.98975,281.78111)"
       id="g64"><path
         d="m 189.21875,230.53125 0,11.8125 7.9375,0 0,53.53125 44.03125,0 0,-11.8125 -31.65625,0 0,-15 23.71875,0 0,-11.78125 -23.71875,0 0,-14.9375 31.65625,0 0,-11.8125 -51.96875,0 z M 1,230.65625 l 0,65.3125 44.03125,0 0,-11.8125 -31.65625,0 0,-53.5 -12.375,0 z m 56.34375,0 0,50.125 c 0,1.96279 0.69855,3.67301 2.125,5.09375 l 7.9375,7.9375 c 1.420744,1.42074 3.1565,2.15625 5.125,2.15625 l 19.4375,0 c 1.962795,0 3.704256,-0.73551 5.125,-2.15625 l 7.9375,-7.9375 c 1.42074,-1.42074 2.125,-3.13096 2.125,-5.09375 l 0,-50.125 -12.375,0 0,48.1875 c 0,0.39941 -0.166343,0.79134 -0.46875,1.09375 l -3.78125,3.75 c -0.342348,0.33664 -0.642992,0.46875 -1.09375,0.46875 l -14.40625,0 c -0.450758,0 -0.745696,-0.13211 -1.09375,-0.46875 l -3.75,-3.75 c -0.302407,-0.30241 -0.5,-0.69434 -0.5,-1.09375 l 0,-48.1875 -12.34375,0 z m 67.96875,0 0,11.78125 35.84375,0 0,5.9375 c 0,0.5877 -0.39843,1.08971 -0.90625,1.375 -0.006,0.006 -32.34375,18.53125 -32.34375,18.53125 -2.53908,1.45498 -4.13044,3.67537 -4.1875,6.5625 l 0,21.125 49.8125,0 0,-11.8125 -37.4375,0 0,-5.90625 c 0,-0.5934 0.39843,-1.11525 0.90625,-1.40625 0.006,0 32.34375,-18.4375 32.34375,-18.4375 2.5562,-1.45498 4.12474,-3.64412 4.1875,-6.53125 l 0,-21.21875 -48.21875,0 z m 130.125,0 0,11.78125 7.96875,0 0,53.53125 12.375,0 0,-25.46875 6.6875,0 c 0.56487,0 1.00439,0.26229 1.3125,0.71875 0.0114,0.0285 19.21875,24.75 19.21875,24.75 l 3.71875,0 10.1875,0 0,-11.78125 -7.96875,0 C 304.64674,278.70993 298.6437,270.9964 298.25,270.5 l 1.53125,0 c 1.90003,0 3.54827,-0.67327 4.90625,-2.03125 l 6.40625,-6.40625 c 1.44357,-1.43786 2.15625,-3.10243 2.15625,-5.09375 l 0,-12.78125 c 0,-1.99703 -0.71268,-3.65589 -2.15625,-5.09375 l -6.40625,-6.40625 c -1.35798,-1.35798 -3.00622,-2.03125 -4.90625,-2.03125 l -44.34375,0 z m 78,0 0,65.3125 12.09375,0 0,-48.5625 c 1.36369,3.19525 20.65625,48.5625 20.65625,48.5625 l 17.09375,0 0,-65.3125 -12.09375,0 0,48.5625 c -1.35798,-3.19525 -20.65625,-48.5625 -20.65625,-48.5625 l -17.09375,0 z m -57.65625,11.78125 21.40625,0 c 0.45076,0 0.71445,0.1264 1.0625,0.46875 l 2.125,2.125 c 0.34235,0.34235 0.5,0.64299 0.5,1.09375 l 0,8.90625 c 0,0.45646 -0.15765,0.75711 -0.5,1.09375 l -2.125,2.125 c -0.34805,0.33664 -0.61174,0.46875 -1.0625,0.46875 l -21.40625,0 0,-16.28125 z"
         transform="matrix(0.17526031,0,0,-0.17526031,-2.3442604,40.42256)"
         id="path66"
         style="fill:#6b95aa;fill-opacity:1;fill-rule:nonzero;stroke:none" /></g><g
       transform="matrix(4.5646388,0,0,4.5646388,3.6378112,-2133.4679)"
       id="g68"><g
         clip-path="url(#clipPath72-5)"
         id="g70"><g
           transform="translate(41.9489,520.6744)"
           id="g76" /><g
           transform="translate(90.3927,529.1216)"
           id="g80" /><g
           transform="translate(49.3496,521.0232)"
           id="g84" /><g
           transform="translate(79.4823,519.7401)"
           id="g88" /></g></g><g
       transform="matrix(4.5646388,0,0,4.5646388,312.24391,272.41949)"
       id="g92" /><g
       transform="matrix(4.5646388,0,0,4.5646388,150.05636,360.16326)"
       id="g96"><path
         d="M 1,132.65625 1,198 l 12.375,0 0,-26.8125 25.09375,0 0,26.8125 12.375,0 0,-65.34375 -12.375,0 0,26.71875 -25.09375,0 0,-26.71875 -12.375,0 z m 84.40625,0 c -1.9685,0 -3.704256,0.7298 -5.125,2.15625 l -7.9375,7.9375 c -1.42645,1.42074 -2.125,3.12525 -2.125,5.09375 l 0,34.9375 c 0,1.9685 0.69855,3.70426 2.125,5.125 l 7.9375,7.9375 C 81.701994,197.2702 83.43775,198 85.40625,198 l 25.25,0 c 1.9685,0 3.70426,-0.7298 5.125,-2.15625 l 7.9375,-7.9375 c 1.42074,-1.42074 2.125,-3.1565 2.125,-5.125 l 0,-34.9375 c 0,-1.9685 -0.70426,-3.67301 -2.125,-5.09375 l -7.9375,-7.9375 c -1.42074,-1.42645 -3.16221,-2.15625 -5.125,-2.15625 l -25.25,0 z m 72.1875,0 c -1.96279,0 -3.70426,0.7298 -5.125,2.15625 l -7.9375,7.9375 c -1.42074,1.42074 -2.125,3.12525 -2.125,5.09375 l 0,34.96875 c 0,1.9685 0.70426,3.67301 2.125,5.09375 l 7.9375,7.9375 c 1.42074,1.42074 3.16221,2.15625 5.125,2.15625 l 21,0 c 1.9685,0 3.70426,-0.73551 5.125,-2.15625 l 8.6875,-8.6875 L 184,178.875 l -6.84375,6.84375 c -0.34235,0.34235 -0.64299,0.46875 -1.09375,0.46875 l -15.96875,0 c -0.44505,0 -0.72015,-0.1264 -1.0625,-0.46875 L 155.25,181.9375 c -0.30241,-0.30241 -0.46875,-0.6688 -0.46875,-1.0625 l 0,-31.09375 c 0,-0.3937 0.16634,-0.76009 0.46875,-1.0625 l 3.78125,-3.78125 c 0.34235,-0.34235 0.61745,-0.46875 1.0625,-0.46875 l 15.96875,0 c 0.45076,0 0.7514,0.1264 1.09375,0.46875 L 184,151.78125 192.40625,143.5 l -8.6875,-8.6875 c -1.42074,-1.42645 -3.1565,-2.15625 -5.125,-2.15625 l -21,0 z m 49.9375,0 0,65.34375 12.375,0 0,-26.8125 25.09375,0 0,26.8125 12.375,0 0,-65.34375 -12.375,0 0,26.71875 -25.09375,0 0,-26.71875 -12.375,0 z m 82.96875,0 c -1.9685,0 -3.67301,0.73551 -5.09375,2.15625 l -7.9375,7.9375 c -1.42074,1.42645 -2.15625,3.13096 -2.15625,5.09375 l 0,12.6875 c 0.097,3.94271 3.09995,7.42968 7.03125,7.9375 l 33.15625,4.625 c 0.81593,0.0799 1.5,0.81504 1.5,1.5625 l 0,6.21875 c 0,0.39941 -0.16634,0.75439 -0.46875,1.0625 l -3.78125,3.78125 c -0.34235,0.34235 -0.64299,0.46875 -1.09375,0.46875 l -21.96875,0 c -0.45076,0 -0.72586,-0.1264 -1.0625,-0.46875 l -6.78125,-6.75 -8.28125,8.375 8.5,8.5 c 1.42074,1.42645 3.1565,2.125 5.125,2.125 l 27,0 c 1.96279,0 3.67301,-0.69855 5.09375,-2.125 l 7.9375,-7.9375 c 1.42645,-1.42645 2.09919,-3.1565 2.15625,-5.125 l 0,-12.65625 c 0,-3.937 -3.0687,-7.43539 -7,-7.9375 l -33.25,-4.65625 c -0.7874,-0.0799 -1.4375,-0.78081 -1.4375,-1.5625 l 0,-6.1875 c 0,-0.3937 0.16634,-0.79134 0.46875,-1.09375 l 3.78125,-3.75 c 0.34235,-0.34805 0.64299,-0.46875 1.09375,-0.46875 l 18.625,0 c 0.44505,0 0.7514,0.1207 1.09375,0.46875 l 6.75,6.75 8.28125,-8.375 -8.5,-8.5 c -1.42074,-1.42074 -3.12525,-2.15625 -5.09375,-2.15625 l -23.6875,0 z m 69.1875,0 c -1.9685,0 -3.67301,0.7298 -5.09375,2.15625 l -7.9375,7.9375 c -1.42645,1.42074 -2.15625,3.12525 -2.15625,5.09375 l 0,34.96875 c 0,1.9685 0.7298,3.67301 2.15625,5.09375 l 7.9375,7.9375 C 356.01449,197.26449 357.719,198 359.6875,198 l 21,0 c 1.96279,0 3.70426,-0.73551 5.125,-2.15625 l 8.6875,-8.6875 -8.375,-8.28125 -6.84375,6.84375 c -0.34235,0.34235 -0.63729,0.46875 -1.09375,0.46875 l -15.96875,0 c -0.44505,0 -0.7457,-0.1264 -1.09375,-0.46875 l -3.78125,-3.78125 c -0.30811,-0.30241 -0.46875,-0.6688 -0.46875,-1.0625 l 0,-31.09375 c 0,-0.3937 0.16064,-0.76009 0.46875,-1.0625 l 3.78125,-3.78125 c 0.34805,-0.34235 0.6487,-0.46875 1.09375,-0.46875 l 15.96875,0 c 0.45076,0 0.7514,0.1264 1.09375,0.46875 l 6.84375,6.84375 8.375,-8.28125 -8.6875,-8.6875 c -1.42074,-1.42645 -3.16221,-2.15625 -5.125,-2.15625 l -21,0 z m 49.9375,0 0,65.34375 12.375,0 0,-26.8125 25.09375,0 0,26.8125 12.375,0 0,-65.34375 -12.375,0 0,26.71875 -25.09375,0 0,-26.71875 -12.375,0 z m 70.625,0 0,50.125 c 0,1.9685 0.7298,3.70426 2.15625,5.125 l 7.9375,7.9375 C 491.75879,197.26449 493.47471,198 495.4375,198 l 19.46875,0 c 1.9685,0 3.67871,-0.73551 5.09375,-2.15625 0,0 7.9375,-7.93179 7.9375,-7.9375 1.42074,-1.42074 2.15625,-3.1565 2.15625,-5.125 l 0,-50.125 -12.375,0 0,48.21875 c 0,0.3937 -0.16634,0.76009 -0.46875,1.0625 l -3.78125,3.78125 c -0.34805,0.34235 -0.64299,0.46875 -1.09375,0.46875 l -14.40625,0 c -0.45076,0 -0.7514,-0.1264 -1.09375,-0.46875 l -3.78125,-3.78125 c -0.2967,-0.30241 -0.46875,-0.6688 -0.46875,-1.0625 l 0,-48.21875 -12.375,0 z m 70.625,0 0,65.34375 44.03125,0 0,-11.8125 -31.65625,0 0,-53.53125 -12.375,0 z m 51.21875,0 0,11.8125 7.9375,0 0,53.53125 44.03125,0 0,-11.8125 -31.65625,0 0,-15 23.71875,0 0,-11.8125 -23.71875,0 0,-14.90625 31.65625,0 0,-11.8125 -51.96875,0 z m -514.1875,11.8125 20.25,0 c 0.44505,0 0.7514,0.13211 1.09375,0.46875 l 3.75,3.78125 c 0.30241,0.30241 0.46875,0.6688 0.46875,1.0625 l 0,31.09375 c 0,0.3937 -0.16634,0.76009 -0.46875,1.0625 l -3.75,3.78125 c -0.34235,0.34235 -0.6487,0.46875 -1.09375,0.46875 l -20.25,0 c -0.450758,0 -0.720152,-0.1264 -1.0625,-0.46875 L 83.0625,181.9375 c -0.302407,-0.30241 -0.46875,-0.6688 -0.46875,-1.0625 l 0,-31.09375 c 0,-0.3937 0.166343,-0.76009 0.46875,-1.0625 l 3.78125,-3.78125 c 0.342348,-0.33664 0.611742,-0.46875 1.0625,-0.46875 z"
         transform="matrix(0.17526031,0,0,-0.17526031,-6.7403607,23.25096)"
         id="path98"
         style="fill:#415e6d;fill-opacity:1;fill-rule:nonzero;stroke:none" /></g><g
       transform="matrix(4.5646388,0,0,4.5646388,3.6378112,-2133.4679)"
       id="g100"><g
         clip-path="url(#clipPath104-2)"
         id="g102"><g
           transform="translate(47.0178,544.5262)"
           id="g108" /><g
           transform="translate(56.3865,536.9941)"
           id="g112" /></g></g><g
       transform="matrix(4.5646388,0,0,4.5646388,315.27803,360.16326)"
       id="g116" /><g
       transform="matrix(4.5646388,0,0,4.5646388,3.6378112,-2133.4679)"
       id="g120"><g
         clip-path="url(#clipPath124-8)"
         id="g122"><g
           transform="translate(91.8072,536.9941)"
           id="g128" /></g></g><g
       transform="matrix(4.5646388,0,0,4.5646388,476.96118,360.16326)"
       id="g132" /><g
       transform="matrix(4.5646388,0,0,4.5646388,3.6378112,-2133.4679)"
       id="g136"><g
         clip-path="url(#clipPath140-9)"
         id="g138"><g
           transform="translate(116.0723,546.2932)"
           id="g144" /></g></g><g
       transform="matrix(4.5646388,0,0,4.5646388,569.8954,317.34193)"
       id="g148" /><g
       transform="matrix(4.5646388,0,0,4.5646388,3.6378112,-2133.4679)"
       id="g152"><g
         clip-path="url(#clipPath156-4)"
         id="g154"><g
           transform="translate(81.8334,541.1186)"
           id="g160" /></g></g><g
       transform="matrix(4.5646388,0,0,4.5646388,642.54665,350.7277)"
       id="g164" /><g
       transform="matrix(4.5646388,0,0,4.5646388,133.57801,443.86367)"
       id="g176"><path
         d="m 0,0 0,0.276 c 0,0.081 -0.034,0.108 -0.128,0.108 l -1.69,0 0,3.998 c 0,0.101 -0.04,0.141 -0.134,0.141 l -0.364,0 c -0.087,0 -0.128,-0.054 -0.128,-0.141 l 0,-4.348 c 0,-0.108 0.047,-0.148 0.135,-0.148 l 2.195,0 C -0.034,-0.114 0,-0.088 0,0 m 3.473,0.034 0,2.968 c 0,0.094 -0.04,0.135 -0.128,0.135 l -0.316,0 C 2.941,3.137 2.901,3.096 2.901,3.002 l 0,-2.295 C 2.685,0.505 2.308,0.309 2.012,0.309 1.474,0.309 1.366,0.646 1.366,1.124 l 0,1.878 c 0,0.094 -0.047,0.135 -0.134,0.135 l -0.303,0 C 0.841,3.137 0.794,3.096 0.794,3.002 l 0,-1.966 c 0,-0.719 0.283,-1.218 1.057,-1.218 0.39,0 0.754,0.142 1.064,0.404 L 2.921,0.014 c 0,-0.082 0.047,-0.128 0.128,-0.128 l 0.289,0 c 0.095,0 0.135,0.046 0.135,0.148 m 3.5,0.067 c 0,0.02 -0.007,0.047 -0.013,0.074 L 6.899,0.363 C 6.886,0.411 6.866,0.431 6.832,0.431 6.818,0.431 6.798,0.424 6.778,0.417 6.562,0.323 6.313,0.256 6.024,0.256 c -0.72,0 -1.016,0.592 -1.016,1.279 0,0.753 0.404,1.231 1.043,1.231 0.262,0 0.491,-0.074 0.7,-0.168 0.02,-0.013 0.047,-0.02 0.061,-0.02 0.04,0 0.06,0.034 0.074,0.081 L 6.94,2.874 c 0.006,0.02 0.013,0.034 0.013,0.054 0,0.041 -0.02,0.067 -0.067,0.087 C 6.65,3.137 6.313,3.211 6.024,3.211 5.015,3.211 4.415,2.497 4.415,1.508 c 0,-1.003 0.512,-1.69 1.569,-1.69 0.309,0 0.619,0.061 0.908,0.196 0.061,0.026 0.081,0.047 0.081,0.087 m 3.48,1.514 0,0.115 c 0,0.438 -0.115,0.834 -0.384,1.111 -0.222,0.228 -0.531,0.37 -0.915,0.37 -0.969,0 -1.568,-0.734 -1.568,-1.696 0,-1.017 0.552,-1.697 1.588,-1.697 0.31,0 0.741,0.061 1.03,0.196 0.054,0.026 0.081,0.047 0.081,0.087 0,0.007 0,0.02 -0.007,0.034 l -0.074,0.249 c -0.013,0.047 -0.047,0.06 -0.081,0.06 -0.02,0 -0.04,-0.007 -0.067,-0.013 C 9.834,0.343 9.524,0.289 9.248,0.289 c -0.68,0 -1.043,0.499 -1.063,1.138 l 2.066,0 c 0.175,0 0.202,0.034 0.202,0.188 m -0.565,0.202 -1.69,0 c 0.054,0.499 0.37,0.949 0.929,0.949 0.512,0 0.761,-0.396 0.761,-0.854 l 0,-0.095 z m 3.062,1.259 0,0.034 c 0,0.04 -0.013,0.074 -0.054,0.081 -0.067,0.013 -0.148,0.02 -0.195,0.02 -0.357,0 -0.612,-0.202 -0.774,-0.424 L 11.92,3.015 c 0,0.088 -0.047,0.122 -0.134,0.122 l -0.29,0 c -0.08,0 -0.128,-0.034 -0.128,-0.135 l 0,-2.975 c 0,-0.095 0.041,-0.141 0.128,-0.141 l 0.317,0 c 0.087,0 0.128,0.054 0.128,0.141 l 0,2.295 c 0.174,0.249 0.437,0.404 0.673,0.404 0.067,0 0.134,-0.007 0.195,-0.02 l 0.02,0 c 0.041,0 0.067,0.02 0.074,0.067 l 0.047,0.303 z m 3.507,-3.049 0,1.979 c 0,0.733 -0.296,1.205 -1.07,1.205 -0.391,0 -0.794,-0.142 -1.104,-0.404 l -0.007,0.208 c 0,0.088 -0.047,0.122 -0.128,0.122 l -0.296,0 c -0.094,0 -0.128,-0.041 -0.128,-0.135 l 0,-2.982 c 0,-0.088 0.047,-0.134 0.128,-0.134 l 0.316,0 c 0.088,0 0.128,0.046 0.128,0.141 l 0,2.315 c 0.236,0.216 0.62,0.391 0.929,0.391 0.539,0 0.66,-0.343 0.66,-0.821 l 0,-1.885 c 0,-0.095 0.04,-0.141 0.128,-0.141 l 0.316,0 c 0.095,0 0.128,0.046 0.128,0.141 m 3.823,1.588 0,0.115 c 0,0.438 -0.114,0.834 -0.384,1.111 -0.222,0.228 -0.531,0.37 -0.915,0.37 -0.969,0 -1.568,-0.734 -1.568,-1.696 0,-1.017 0.552,-1.697 1.588,-1.697 0.31,0 0.741,0.061 1.03,0.196 0.054,0.026 0.081,0.047 0.081,0.087 0,0.007 0,0.02 -0.007,0.034 l -0.074,0.249 c -0.013,0.047 -0.047,0.06 -0.081,0.06 -0.02,0 -0.04,-0.007 -0.067,-0.013 -0.222,-0.088 -0.532,-0.142 -0.808,-0.142 -0.679,0 -1.043,0.499 -1.063,1.138 l 2.066,0 c 0.175,0 0.202,0.034 0.202,0.188 m -0.565,0.202 -1.69,0 c 0.054,0.499 0.371,0.949 0.929,0.949 0.512,0 0.761,-0.396 0.761,-0.854 l 0,-0.095 z m 7.033,0.095 0,2.477 c 0,0.087 -0.033,0.134 -0.127,0.134 l -0.364,0 c -0.087,0 -0.134,-0.047 -0.134,-0.134 l 0,-2.37 c 0,-0.868 -0.135,-1.676 -1.212,-1.676 -1.117,0 -1.232,0.767 -1.232,1.67 l 0,2.376 c 0,0.087 -0.033,0.134 -0.128,0.134 l -0.37,0 c -0.087,0 -0.128,-0.047 -0.128,-0.134 l 0,-2.437 c 0,-1.313 0.391,-2.134 1.851,-2.134 1.333,0 1.844,0.862 1.844,2.094 m 3.918,-1.885 0,1.979 c 0,0.733 -0.296,1.205 -1.07,1.205 -0.39,0 -0.795,-0.142 -1.104,-0.404 l -0.007,0.208 c 0,0.088 -0.047,0.122 -0.128,0.122 l -0.296,0 c -0.094,0 -0.128,-0.041 -0.128,-0.135 l 0,-2.982 c 0,-0.088 0.047,-0.134 0.128,-0.134 l 0.316,0 c 0.088,0 0.128,0.046 0.128,0.141 l 0,2.315 c 0.236,0.216 0.619,0.391 0.929,0.391 0.539,0 0.66,-0.343 0.66,-0.821 l 0,-1.885 c 0,-0.095 0.04,-0.141 0.128,-0.141 l 0.316,0 c 0.094,0 0.128,0.046 0.128,0.141 m 1.831,3.904 c 0,0.195 -0.168,0.323 -0.35,0.323 -0.182,0 -0.344,-0.128 -0.344,-0.323 0,-0.195 0.162,-0.323 0.344,-0.323 0.175,0 0.35,0.128 0.35,0.323 m -0.061,-3.904 0,2.975 c 0,0.094 -0.04,0.135 -0.128,0.135 l -0.309,0 c -0.088,0 -0.135,-0.041 -0.135,-0.135 l 0,-2.975 c 0,-0.095 0.047,-0.141 0.135,-0.141 l 0.309,0 c 0.088,0 0.128,0.046 0.128,0.141 m 3.709,3.042 c 0,0.048 -0.034,0.068 -0.108,0.068 l -0.309,0 c -0.094,0 -0.142,-0.027 -0.169,-0.108 L 34.954,1.198 C 34.873,0.956 34.792,0.693 34.752,0.552 l -0.007,0 c -0.047,0.155 -0.128,0.397 -0.216,0.666 l -0.605,1.825 c -0.02,0.067 -0.061,0.094 -0.162,0.094 l -0.37,0 c -0.067,0 -0.101,-0.027 -0.101,-0.074 0,-0.014 0,-0.034 0.007,-0.048 l 1.103,-3.022 c 0.028,-0.074 0.074,-0.107 0.162,-0.107 l 0.296,0 c 0.074,0 0.121,0.026 0.155,0.107 l 1.118,3.022 c 0.007,0.021 0.013,0.041 0.013,0.054 m 3.48,-1.454 0,0.115 c 0,0.438 -0.114,0.834 -0.384,1.111 -0.222,0.228 -0.531,0.37 -0.915,0.37 -0.97,0 -1.569,-0.734 -1.569,-1.696 0,-1.017 0.552,-1.697 1.589,-1.697 0.31,0 0.74,0.061 1.03,0.196 0.054,0.026 0.081,0.047 0.081,0.087 0,0.007 0,0.02 -0.007,0.034 l -0.074,0.249 c -0.013,0.047 -0.047,0.06 -0.081,0.06 -0.02,0 -0.04,-0.007 -0.067,-0.013 -0.222,-0.088 -0.532,-0.142 -0.808,-0.142 -0.68,0 -1.043,0.499 -1.064,1.138 l 2.067,0 c 0.175,0 0.202,0.034 0.202,0.188 m -0.565,0.202 -1.69,0 c 0.054,0.499 0.37,0.949 0.929,0.949 0.511,0 0.761,-0.396 0.761,-0.854 l 0,-0.095 z m 3.062,1.259 0,0.034 c 0,0.04 -0.013,0.074 -0.054,0.081 -0.067,0.013 -0.148,0.02 -0.195,0.02 -0.357,0 -0.613,-0.202 -0.774,-0.424 l -0.007,0.228 c 0,0.088 -0.047,0.122 -0.134,0.122 l -0.29,0 c -0.081,0 -0.128,-0.034 -0.128,-0.135 l 0,-2.975 c 0,-0.095 0.041,-0.141 0.128,-0.141 l 0.316,0 c 0.088,0 0.128,0.054 0.128,0.141 l 0,2.295 c 0.176,0.249 0.438,0.404 0.673,0.404 0.068,0 0.135,-0.007 0.196,-0.02 l 0.02,0 c 0.04,0 0.067,0.02 0.074,0.067 l 0.047,0.303 z m 2.76,-2.255 c 0,0.431 -0.303,0.7 -0.673,0.855 l -0.525,0.222 c -0.283,0.121 -0.418,0.229 -0.418,0.458 0,0.229 0.196,0.417 0.552,0.417 0.215,0 0.532,-0.081 0.707,-0.161 0.02,-0.007 0.04,-0.014 0.054,-0.014 0.033,0 0.061,0.02 0.074,0.068 l 0.074,0.235 c 0.007,0.02 0.013,0.04 0.013,0.054 0,0.027 -0.02,0.047 -0.06,0.067 -0.303,0.142 -0.586,0.189 -0.875,0.189 -0.593,0 -1.131,-0.303 -1.131,-0.895 0,-0.425 0.296,-0.694 0.693,-0.849 l 0.451,-0.175 c 0.31,-0.121 0.505,-0.262 0.505,-0.525 0,-0.316 -0.262,-0.504 -0.653,-0.504 -0.229,0 -0.552,0.094 -0.801,0.202 -0.013,0.006 -0.027,0.006 -0.04,0.006 -0.034,0 -0.061,-0.027 -0.074,-0.067 L 42.667,0.162 C 42.661,0.148 42.661,0.135 42.661,0.121 c 0,-0.034 0.02,-0.067 0.067,-0.087 0.222,-0.102 0.578,-0.216 0.922,-0.216 0.713,0 1.232,0.384 1.232,1.003 m 1.581,3.11 c 0,0.195 -0.168,0.323 -0.35,0.323 -0.181,0 -0.343,-0.128 -0.343,-0.323 0,-0.195 0.162,-0.323 0.343,-0.323 0.176,0 0.35,0.128 0.35,0.323 m -0.06,-3.904 0,2.975 c 0,0.094 -0.04,0.135 -0.128,0.135 l -0.309,0 c -0.088,0 -0.135,-0.041 -0.135,-0.135 l 0,-2.975 c 0,-0.095 0.047,-0.141 0.135,-0.141 l 0.309,0 c 0.088,0 0.128,0.046 0.128,0.141 m 3.009,0.02 c 0,0.007 -0.007,0.014 -0.007,0.027 l -0.054,0.215 c -0.013,0.048 -0.047,0.068 -0.081,0.068 -0.013,0 -0.027,0 -0.04,-0.007 -0.108,-0.033 -0.269,-0.081 -0.424,-0.081 -0.175,0 -0.296,0.054 -0.37,0.135 -0.101,0.115 -0.115,0.289 -0.115,0.511 l 0,1.818 0.788,0 c 0.067,0 0.101,0.02 0.101,0.087 l 0,0.229 c 0,0.074 -0.034,0.088 -0.095,0.088 l -0.794,0 0,0.828 c 0,0.074 -0.033,0.121 -0.101,0.121 l -0.027,0 -0.33,-0.047 C 47.776,4.025 47.749,3.998 47.749,3.904 l 0,-0.767 -0.384,0 c -0.06,0 -0.087,-0.027 -0.087,-0.094 l 0,-0.209 c 0,-0.088 0.013,-0.101 0.101,-0.101 l 0.37,0 0,-1.764 c 0,-0.417 0.014,-0.686 0.209,-0.902 0.154,-0.168 0.444,-0.249 0.733,-0.249 0.23,0 0.472,0.054 0.626,0.122 0.054,0.02 0.095,0.053 0.095,0.107 m 3.52,3.022 c 0,0.041 -0.027,0.068 -0.087,0.068 l -0.371,0 C 52.393,3.137 52.36,3.11 52.333,3.036 L 51.485,0.532 50.61,3.049 C 50.59,3.11 50.549,3.137 50.482,3.137 l -0.444,0 c -0.054,0 -0.075,-0.027 -0.075,-0.068 0,-0.013 0,-0.033 0.008,-0.047 L 51.175,-0.168 51,-0.599 c -0.141,-0.35 -0.363,-0.498 -0.733,-0.498 -0.068,0 -0.162,0.013 -0.236,0.02 l -0.027,0 c -0.061,0 -0.094,-0.027 -0.101,-0.094 l -0.034,-0.256 0,-0.034 c 0,-0.047 0.014,-0.087 0.074,-0.101 0.102,-0.02 0.202,-0.027 0.303,-0.027 0.727,0 1.064,0.283 1.36,1.078 l 1.313,3.52 c 0.006,0.02 0.013,0.04 0.013,0.06 M 58.33,1.515 c 0,0.975 -0.471,1.696 -1.515,1.696 -1.002,0 -1.547,-0.741 -1.547,-1.69 0,-0.962 0.464,-1.703 1.507,-1.703 1.004,0 1.555,0.747 1.555,1.697 M 57.737,1.508 c 0,-0.626 -0.248,-1.245 -0.955,-1.245 -0.713,0 -0.922,0.652 -0.922,1.272 0,0.592 0.222,1.231 0.949,1.231 0.7,0 0.928,-0.632 0.928,-1.258 m 3.501,3.015 c 0,0.041 -0.013,0.074 -0.081,0.101 -0.168,0.068 -0.411,0.115 -0.612,0.115 -0.626,0 -0.983,-0.35 -1.063,-0.936 C 59.468,3.682 59.454,3.507 59.454,3.264 l 0,-0.127 -0.391,0 C 58.997,3.137 58.97,3.11 58.97,3.043 l 0,-0.209 c 0,-0.088 0.013,-0.101 0.087,-0.101 l 0.397,0 0,-2.706 c 0,-0.095 0.041,-0.141 0.128,-0.141 l 0.317,0 c 0.094,0 0.128,0.054 0.128,0.148 l 0,2.699 0.834,0 c 0.068,0 0.095,0.027 0.095,0.094 l 0,0.229 c 0,0.067 -0.034,0.081 -0.102,0.081 l -0.827,0 0,0.316 c 0,0.525 0.128,0.828 0.585,0.828 0.154,0 0.337,-0.047 0.445,-0.088 0.02,-0.006 0.04,-0.013 0.06,-0.013 0.033,0 0.053,0.02 0.067,0.067 l 0.047,0.209 c 0.007,0.027 0.007,0.047 0.007,0.067"
         id="path178"
         style="fill:#415e6d;fill-opacity:1;fill-rule:nonzero;stroke:none" /></g><g
       transform="matrix(4.5646388,0,0,4.5646388,138.49276,404.48773)"
       id="g180"><path
         d="m 0,0 c 0,0.02 -0.007,0.04 -0.013,0.067 l -1.663,4.415 c -0.02,0.054 -0.061,0.082 -0.121,0.082 l -0.357,0 c -0.06,0 -0.101,-0.041 -0.121,-0.095 L -3.965,0.06 c -0.006,-0.027 -0.013,-0.047 -0.013,-0.067 0,-0.04 0.02,-0.067 0.074,-0.067 l 0.397,0 c 0.095,0 0.121,0.027 0.155,0.114 l 0.465,1.259 1.743,0 0.444,-1.252 c 0.034,-0.101 0.067,-0.121 0.182,-0.121 l 0.417,0 C -0.027,-0.074 0,-0.047 0,0 m -1.306,1.763 -1.42,0 0.552,1.528 c 0.088,0.249 0.134,0.384 0.168,0.492 l 0.007,0 C -1.972,3.689 -1.925,3.54 -1.844,3.305 L -1.306,1.763 z M 3.642,1.582 c 0,0.868 -0.425,1.669 -1.38,1.669 -0.384,0 -0.788,-0.175 -1.003,-0.431 l 0,0.236 c 0,0.094 -0.054,0.121 -0.155,0.121 l -0.256,0 C 0.761,3.177 0.72,3.15 0.72,3.056 l 0,-4.436 c 0,-0.094 0.041,-0.141 0.128,-0.141 l 0.296,0 c 0.088,0 0.148,0.027 0.148,0.128 l 0,1.628 c 0.202,-0.249 0.559,-0.377 0.889,-0.377 0.976,0 1.461,0.828 1.461,1.724 M 3.043,1.568 C 3.043,0.969 2.8,0.309 2.107,0.309 1.777,0.309 1.434,0.518 1.292,0.78 l 0,1.582 c 0.169,0.243 0.539,0.431 0.855,0.431 0.7,0 0.896,-0.639 0.896,-1.225 m 4.442,0.014 c 0,0.868 -0.424,1.669 -1.38,1.669 -0.384,0 -0.788,-0.175 -1.003,-0.431 l 0,0.236 c 0,0.094 -0.054,0.121 -0.155,0.121 l -0.255,0 C 4.604,3.177 4.564,3.15 4.564,3.056 l 0,-4.436 c 0,-0.094 0.04,-0.141 0.128,-0.141 l 0.296,0 c 0.087,0 0.148,0.027 0.148,0.128 l 0,1.628 c 0.202,-0.249 0.558,-0.377 0.888,-0.377 0.976,0 1.461,0.828 1.461,1.724 M 6.886,1.568 C 6.886,0.969 6.643,0.309 5.95,0.309 5.621,0.309 5.277,0.518 5.136,0.78 l 0,1.582 c 0.168,0.243 0.538,0.431 0.854,0.431 0.701,0 0.896,-0.639 0.896,-1.225 m 2.1,-1.501 0,4.53 c 0,0.088 -0.041,0.115 -0.101,0.115 l -0.034,0 L 8.515,4.664 C 8.434,4.651 8.414,4.624 8.414,4.53 l 0,-4.47 c 0,-0.094 0.04,-0.134 0.121,-0.134 l 0.33,0 c 0.08,0 0.121,0.047 0.121,0.141 m 1.81,3.904 c 0,0.196 -0.168,0.323 -0.35,0.323 -0.182,0 -0.343,-0.127 -0.343,-0.323 0,-0.195 0.161,-0.323 0.343,-0.323 0.175,0 0.35,0.128 0.35,0.323 m -0.06,-3.904 0,2.975 c 0,0.094 -0.04,0.135 -0.128,0.135 l -0.31,0 c -0.087,0 -0.134,-0.041 -0.134,-0.135 l 0,-2.975 c 0,-0.094 0.047,-0.141 0.134,-0.141 l 0.31,0 c 0.088,0 0.128,0.047 0.128,0.141 m 3.864,1.589 0,0.114 c 0,0.438 -0.115,0.835 -0.384,1.111 -0.222,0.229 -0.532,0.37 -0.916,0.37 -0.969,0 -1.568,-0.734 -1.568,-1.696 0,-1.017 0.552,-1.697 1.589,-1.697 0.309,0 0.74,0.061 1.029,0.196 0.054,0.027 0.081,0.047 0.081,0.087 0,0.007 0,0.02 -0.007,0.034 L 14.35,0.424 C 14.337,0.471 14.303,0.485 14.27,0.485 14.25,0.485 14.229,0.478 14.202,0.471 13.98,0.383 13.671,0.33 13.395,0.33 c -0.68,0 -1.044,0.498 -1.064,1.137 l 2.067,0 c 0.175,0 0.202,0.034 0.202,0.189 m -0.566,0.202 -1.689,0 c 0.053,0.498 0.37,0.949 0.929,0.949 0.511,0 0.76,-0.397 0.76,-0.855 l 0,-0.094 z m 4.187,-1.791 0,4.53 c 0,0.081 -0.034,0.115 -0.101,0.115 l -0.034,0 -0.33,-0.048 C 17.669,4.651 17.648,4.611 17.648,4.523 l 0,-1.642 c -0.195,0.235 -0.565,0.377 -0.874,0.377 -0.889,0 -1.468,-0.734 -1.468,-1.723 0,-0.882 0.417,-1.677 1.387,-1.677 0.383,0 0.774,0.182 0.989,0.438 l 0.007,-0.242 c 0,-0.088 0.04,-0.128 0.141,-0.128 l 0.29,0 c 0.06,0 0.101,0.054 0.101,0.141 M 17.648,0.76 C 17.48,0.518 17.117,0.316 16.8,0.316 c -0.585,0 -0.901,0.532 -0.901,1.245 0,0.741 0.349,1.239 0.955,1.239 0.33,0 0.653,-0.215 0.794,-0.471 l 0,-1.569 z M 23.8,1.185 c 0,0.626 -0.39,0.962 -0.915,1.245 l -0.72,0.383 c -0.283,0.148 -0.525,0.344 -0.525,0.694 0,0.451 0.437,0.626 0.814,0.626 0.27,0 0.586,-0.081 0.855,-0.196 0.027,-0.013 0.054,-0.02 0.081,-0.02 0.04,0 0.074,0.02 0.094,0.074 l 0.101,0.276 c 0.007,0.021 0.013,0.041 0.013,0.061 0,0.054 -0.04,0.087 -0.107,0.114 -0.35,0.148 -0.673,0.202 -1.07,0.202 -0.707,0 -1.427,-0.417 -1.427,-1.191 0,-0.485 0.296,-0.848 0.74,-1.091 l 0.855,-0.457 c 0.33,-0.175 0.592,-0.391 0.592,-0.767 0,-0.532 -0.484,-0.748 -0.942,-0.748 -0.316,0 -0.653,0.088 -0.956,0.195 -0.033,0.014 -0.061,0.014 -0.081,0.014 -0.047,0 -0.074,-0.02 -0.094,-0.081 L 21.02,0.215 c -0.006,-0.02 -0.006,-0.04 -0.006,-0.06 0,-0.054 0.027,-0.088 0.094,-0.108 0.37,-0.121 0.767,-0.189 1.131,-0.189 0.828,0 1.561,0.445 1.561,1.327 m 3.306,-1.044 c 0,0.02 -0.007,0.047 -0.014,0.074 L 27.031,0.404 C 27.018,0.451 26.998,0.471 26.964,0.471 26.95,0.471 26.931,0.465 26.91,0.458 26.695,0.363 26.446,0.296 26.156,0.296 c -0.72,0 -1.016,0.592 -1.016,1.279 0,0.754 0.404,1.232 1.044,1.232 0.262,0 0.491,-0.074 0.699,-0.169 0.021,-0.013 0.048,-0.02 0.061,-0.02 0.04,0 0.06,0.034 0.074,0.081 l 0.054,0.216 c 0.006,0.02 0.013,0.033 0.013,0.053 0,0.041 -0.02,0.068 -0.067,0.088 -0.236,0.121 -0.572,0.195 -0.862,0.195 -1.009,0 -1.608,-0.714 -1.608,-1.703 0,-1.003 0.511,-1.69 1.568,-1.69 0.309,0 0.619,0.061 0.909,0.196 0.06,0.027 0.081,0.047 0.081,0.087 m 1.561,3.83 c 0,0.196 -0.168,0.323 -0.35,0.323 -0.182,0 -0.343,-0.127 -0.343,-0.323 0,-0.195 0.161,-0.323 0.343,-0.323 0.175,0 0.35,0.128 0.35,0.323 m -0.061,-3.904 0,2.975 c 0,0.094 -0.04,0.135 -0.128,0.135 l -0.309,0 c -0.088,0 -0.135,-0.041 -0.135,-0.135 l 0,-2.975 c 0,-0.094 0.047,-0.141 0.135,-0.141 l 0.309,0 c 0.088,0 0.128,0.047 0.128,0.141 m 3.864,1.589 0,0.114 c 0,0.438 -0.114,0.835 -0.384,1.111 -0.222,0.229 -0.531,0.37 -0.915,0.37 -0.969,0 -1.568,-0.734 -1.568,-1.696 0,-1.017 0.552,-1.697 1.588,-1.697 0.31,0 0.741,0.061 1.03,0.196 0.054,0.027 0.081,0.047 0.081,0.087 0,0.007 0,0.02 -0.007,0.034 L 32.221,0.424 C 32.208,0.471 32.174,0.485 32.14,0.485 32.12,0.485 32.1,0.478 32.073,0.471 31.851,0.383 31.541,0.33 31.265,0.33 c -0.68,0 -1.043,0.498 -1.063,1.137 l 2.066,0 c 0.175,0 0.202,0.034 0.202,0.189 m -0.566,0.202 -1.689,0 c 0.054,0.498 0.37,0.949 0.929,0.949 0.512,0 0.76,-0.397 0.76,-0.855 l 0,-0.094 z m 4.187,-1.791 0,1.979 c 0,0.734 -0.296,1.205 -1.07,1.205 -0.39,0 -0.794,-0.141 -1.104,-0.404 l -0.006,0.209 c 0,0.087 -0.048,0.121 -0.128,0.121 l -0.297,0 c -0.094,0 -0.128,-0.041 -0.128,-0.135 l 0,-2.982 c 0,-0.087 0.048,-0.134 0.128,-0.134 l 0.317,0 c 0.087,0 0.128,0.047 0.128,0.141 l 0,2.316 c 0.235,0.215 0.619,0.39 0.928,0.39 0.539,0 0.66,-0.343 0.66,-0.821 l 0,-1.885 c 0,-0.094 0.041,-0.141 0.128,-0.141 l 0.317,0 c 0.094,0 0.127,0.047 0.127,0.141 m 3.474,0.074 c 0,0.02 -0.007,0.047 -0.014,0.074 L 39.49,0.404 C 39.477,0.451 39.457,0.471 39.423,0.471 39.41,0.471 39.39,0.465 39.37,0.458 39.154,0.363 38.905,0.296 38.615,0.296 c -0.72,0 -1.016,0.592 -1.016,1.279 0,0.754 0.404,1.232 1.044,1.232 0.262,0 0.491,-0.074 0.699,-0.169 0.021,-0.013 0.048,-0.02 0.061,-0.02 0.04,0 0.06,0.034 0.074,0.081 l 0.054,0.216 c 0.007,0.02 0.013,0.033 0.013,0.053 0,0.041 -0.02,0.068 -0.067,0.088 -0.235,0.121 -0.572,0.195 -0.862,0.195 -1.009,0 -1.608,-0.714 -1.608,-1.703 0,-1.003 0.511,-1.69 1.568,-1.69 0.31,0 0.619,0.061 0.909,0.196 0.06,0.027 0.081,0.047 0.081,0.087 m 3.453,1.515 0,0.114 c 0,0.438 -0.115,0.835 -0.384,1.111 -0.222,0.229 -0.532,0.37 -0.916,0.37 -0.969,0 -1.568,-0.734 -1.568,-1.696 0,-1.017 0.552,-1.697 1.589,-1.697 0.309,0 0.74,0.061 1.029,0.196 0.054,0.027 0.081,0.047 0.081,0.087 0,0.007 0,0.02 -0.007,0.034 l -0.074,0.249 c -0.013,0.047 -0.047,0.061 -0.08,0.061 -0.02,0 -0.041,-0.007 -0.068,-0.014 C 42.398,0.383 42.089,0.33 41.813,0.33 c -0.68,0 -1.044,0.498 -1.064,1.137 l 2.067,0 c 0.175,0 0.202,0.034 0.202,0.189 m -0.566,0.202 -1.689,0 c 0.054,0.498 0.37,0.949 0.929,0.949 0.511,0 0.76,-0.397 0.76,-0.855 l 0,-0.094 z m 3.44,-0.996 c 0,0.43 -0.303,0.699 -0.674,0.854 l -0.525,0.222 c -0.282,0.122 -0.417,0.229 -0.417,0.458 0,0.229 0.195,0.417 0.552,0.417 0.216,0 0.532,-0.08 0.707,-0.161 0.02,-0.007 0.04,-0.014 0.054,-0.014 0.033,0 0.06,0.021 0.074,0.068 l 0.074,0.235 c 0.006,0.02 0.013,0.041 0.013,0.054 0,0.027 -0.02,0.047 -0.06,0.067 -0.303,0.142 -0.586,0.189 -0.875,0.189 -0.593,0 -1.131,-0.303 -1.131,-0.895 0,-0.424 0.296,-0.693 0.693,-0.848 l 0.451,-0.175 c 0.31,-0.122 0.505,-0.263 0.505,-0.525 0,-0.317 -0.263,-0.505 -0.653,-0.505 -0.229,0 -0.552,0.094 -0.801,0.202 -0.013,0.006 -0.027,0.006 -0.04,0.006 -0.034,0 -0.061,-0.026 -0.075,-0.067 L 43.677,0.202 C 43.67,0.188 43.67,0.175 43.67,0.161 c 0,-0.033 0.02,-0.067 0.068,-0.087 0.222,-0.101 0.579,-0.216 0.922,-0.216 0.713,0 1.232,0.384 1.232,1.004 m 5.613,-0.849 0,0.229 c 0,0.074 -0.034,0.088 -0.094,0.088 l -0.047,0 c -0.054,0 -0.088,0.013 -0.114,0.06 -0.028,0.041 -0.034,0.148 -0.034,0.303 l 0,2.356 c 0,0.087 -0.041,0.128 -0.122,0.128 l -0.302,0 c -0.074,0 -0.128,-0.034 -0.128,-0.115 L 50.657,2.841 c -0.202,0.269 -0.565,0.41 -0.902,0.41 -0.767,0 -1.434,-0.633 -1.434,-1.757 0,-0.848 0.411,-1.636 1.34,-1.636 0.411,0 0.855,0.27 1.009,0.566 l 0.014,0 c 0,-0.269 0.141,-0.498 0.438,-0.498 l 0.282,0 c 0.067,0 0.101,0.02 0.101,0.087 M 50.644,1.016 C 50.523,0.68 50.179,0.337 49.748,0.337 c -0.484,0 -0.827,0.457 -0.827,1.198 0,0.801 0.39,1.258 0.908,1.258 0.323,0 0.653,-0.182 0.815,-0.484 l 0,-1.293 z m 4.456,-0.949 0,1.979 c 0,0.734 -0.296,1.205 -1.071,1.205 -0.39,0 -0.794,-0.141 -1.104,-0.404 l -0.006,0.209 c 0,0.087 -0.048,0.121 -0.128,0.121 l -0.296,0 c -0.095,0 -0.128,-0.041 -0.128,-0.135 l 0,-2.982 c 0,-0.087 0.047,-0.134 0.128,-0.134 l 0.316,0 c 0.088,0 0.128,0.047 0.128,0.141 l 0,2.316 c 0.235,0.215 0.619,0.39 0.929,0.39 0.538,0 0.659,-0.343 0.659,-0.821 l 0,-1.885 c 0,-0.094 0.041,-0.141 0.128,-0.141 l 0.317,0 c 0.094,0 0.128,0.047 0.128,0.141 m 3.843,0 0,4.53 c 0,0.081 -0.034,0.115 -0.101,0.115 l -0.034,0 -0.329,-0.048 C 58.391,4.651 58.371,4.611 58.371,4.523 l 0,-1.642 c -0.196,0.235 -0.566,0.377 -0.875,0.377 -0.889,0 -1.468,-0.734 -1.468,-1.723 0,-0.882 0.418,-1.677 1.386,-1.677 0.384,0 0.775,0.182 0.99,0.438 l 0.007,-0.242 c 0,-0.088 0.04,-0.128 0.141,-0.128 l 0.29,0 c 0.061,0 0.101,0.054 0.101,0.141 M 58.371,0.76 C 58.202,0.518 57.839,0.316 57.522,0.316 c -0.585,0 -0.902,0.532 -0.902,1.245 0,0.741 0.351,1.239 0.957,1.239 0.329,0 0.653,-0.215 0.794,-0.471 l 0,-1.569 z M 65.411,0 c 0,0.02 -0.006,0.04 -0.013,0.067 l -1.663,4.415 c -0.02,0.054 -0.06,0.082 -0.121,0.082 l -0.356,0 c -0.062,0 -0.102,-0.041 -0.122,-0.095 L 61.447,0.06 C 61.44,0.033 61.433,0.013 61.433,-0.007 c 0,-0.04 0.02,-0.067 0.074,-0.067 l 0.398,0 c 0.093,0 0.12,0.027 0.155,0.114 l 0.463,1.259 1.744,0 0.445,-1.252 c 0.033,-0.101 0.066,-0.121 0.181,-0.121 l 0.417,0 c 0.075,0 0.101,0.027 0.101,0.074 m -1.306,1.763 -1.42,0 0.553,1.528 c 0.086,0.249 0.134,0.384 0.168,0.492 l 0.006,0 C 63.439,3.689 63.486,3.54 63.567,3.305 l 0.538,-1.542 z m 3.615,1.353 0,0.034 c 0,0.04 -0.014,0.074 -0.054,0.081 -0.067,0.013 -0.148,0.02 -0.195,0.02 -0.357,0 -0.613,-0.202 -0.774,-0.424 L 66.69,3.056 c 0,0.087 -0.047,0.121 -0.134,0.121 l -0.29,0 c -0.081,0 -0.127,-0.034 -0.127,-0.135 l 0,-2.975 c 0,-0.094 0.04,-0.141 0.127,-0.141 l 0.316,0 c 0.088,0 0.128,0.054 0.128,0.141 l 0,2.295 c 0.175,0.249 0.438,0.404 0.673,0.404 0.068,0 0.135,-0.007 0.195,-0.02 l 0.021,0 c 0.04,0 0.067,0.02 0.073,0.067 l 0.048,0.303 z m 2.551,-3.029 c 0,0.007 -0.007,0.014 -0.007,0.027 L 70.21,0.33 c -0.014,0.047 -0.047,0.067 -0.08,0.067 -0.014,0 -0.027,0 -0.04,-0.007 -0.108,-0.033 -0.27,-0.081 -0.425,-0.081 -0.175,0 -0.296,0.054 -0.37,0.135 -0.101,0.115 -0.114,0.29 -0.114,0.512 l 0,1.817 0.787,0 c 0.067,0 0.101,0.02 0.101,0.088 l 0,0.228 c 0,0.075 -0.034,0.088 -0.094,0.088 l -0.794,0 0,0.828 c 0,0.074 -0.035,0.121 -0.101,0.121 l -0.027,0 -0.33,-0.047 C 68.636,4.065 68.608,4.039 68.608,3.944 l 0,-0.767 -0.384,0 c -0.06,0 -0.087,-0.027 -0.087,-0.094 l 0,-0.209 c 0,-0.087 0.014,-0.101 0.101,-0.101 l 0.37,0 0,-1.763 c 0,-0.418 0.013,-0.687 0.209,-0.903 0.155,-0.168 0.444,-0.249 0.734,-0.249 0.228,0 0.471,0.054 0.626,0.122 0.054,0.02 0.094,0.053 0.094,0.107 m 2.746,0.775 c 0,0.43 -0.303,0.699 -0.673,0.854 l -0.525,0.222 c -0.282,0.122 -0.417,0.229 -0.417,0.458 0,0.229 0.195,0.417 0.552,0.417 0.215,0 0.532,-0.08 0.706,-0.161 0.02,-0.007 0.041,-0.014 0.054,-0.014 0.034,0 0.061,0.021 0.074,0.068 l 0.075,0.235 c 0.007,0.02 0.013,0.041 0.013,0.054 0,0.027 -0.02,0.047 -0.061,0.067 -0.303,0.142 -0.585,0.189 -0.874,0.189 -0.593,0 -1.132,-0.303 -1.132,-0.895 0,-0.424 0.296,-0.693 0.693,-0.848 l 0.452,-0.175 c 0.309,-0.122 0.504,-0.263 0.504,-0.525 0,-0.317 -0.262,-0.505 -0.652,-0.505 -0.229,0 -0.553,0.094 -0.801,0.202 -0.014,0.006 -0.028,0.006 -0.041,0.006 -0.033,0 -0.06,-0.026 -0.073,-0.067 L 70.803,0.202 C 70.796,0.188 70.796,0.175 70.796,0.161 c 0,-0.033 0.02,-0.067 0.067,-0.087 0.222,-0.101 0.579,-0.216 0.922,-0.216 0.714,0 1.232,0.384 1.232,1.004"
         id="path182"
         style="fill:#415e6d;fill-opacity:1;fill-rule:nonzero;stroke:none" /></g></g></svg>