<svg id="Layer_1" data-name="Layer 1" xmlns="http://www.w3.org/2000/svg" viewBox="0 0 1000 378.39999"><defs><style>.cls-1{fill:#9164cc;}.cls-2{fill:#201747;}.cls-3{fill:#10cfc9;}</style></defs><title>homeedge-horizontal-color</title><polygon class="cls-1" points="493.5 60.9 448.6 60.9 448.6 0 418.1 0 418.1 163.8 448.6 163.8 448.6 89.3 493.5 89.3 493.5 163.8 524.1 163.8 524.1 0 493.5 0 493.5 60.9"/><path class="cls-1" d="M666,5.5a18.1118,18.1118,0,0,0-4.7-3.9A14.073,14.073,0,0,0,654.2,0H580.6a14.073,14.073,0,0,0-7.1,1.6,16.59365,16.59365,0,0,0-4.7,3.9,12.85034,12.85034,0,0,0-2.7,4.8,13.511,13.511,0,0,0-.8,4.6V133.4a14.07713,14.07713,0,0,0,6.7,12.2l32.2,20.4a13.1085,13.1085,0,0,0,7.1,1.6,16.45073,16.45073,0,0,0,6.9-1.6l42.3-21.8a25.35759,25.35759,0,0,0,6.4-5.3,11.22462,11.22462,0,0,0,2.8-8.3V14.9a16.4916,16.4916,0,0,0-.8-4.6A18.63837,18.63837,0,0,0,666,5.5ZM639,125.4l-27.4,13.8-15.9-10.1V26.4H639Z"/><path class="cls-1" d="M838.7,163.8h30.5V14.9a16.49164,16.49164,0,0,0-.8-4.6,16.06221,16.06221,0,0,0-2.6-4.8,16.12255,16.12255,0,0,0-4.6-3.9A14.21494,14.21494,0,0,0,854,0H821.4a26.87229,26.87229,0,0,0-9.6,1.7,22.99743,22.99743,0,0,0-7.7,4.9L790.4,17.2h-1.2l-14-10.6a22.99753,22.99753,0,0,0-7.7-4.9A25.92991,25.92991,0,0,0,758,0H725.4a14.073,14.073,0,0,0-7.1,1.6,16.59351,16.59351,0,0,0-4.7,3.9,12.85036,12.85036,0,0,0-2.7,4.8,13.51122,13.51122,0,0,0-.8,4.6V163.7h30.5V26.4H753l21.3,12.2V163.8h30.5V38.6L824,26.4h14.7Z"/><path class="cls-1" d="M1000,27.8V0H910.8V148.8a15.03014,15.03014,0,0,0,3.5,9.4,18.1116,18.1116,0,0,0,4.7,3.9,14.07317,14.07317,0,0,0,7.1,1.6h73.8V136H941.2V91h53.9V63.2H941.2V27.8Z"/><path class="cls-2" d="M418.1,359.4a15.02994,15.02994,0,0,0,3.5,9.4,18.11144,18.11144,0,0,0,4.7,3.9,14.073,14.073,0,0,0,7.1,1.6h73.8V346.5H448.5v-45h53.9V273.7H448.5V238.3h58.7V210.5H418V359.4Z"/><path class="cls-2" d="M635,210.5l-90.4,1.1V374.2h25.1l2.4-7.1,35.7,10.6a23.69226,23.69226,0,0,0,4.3.5q6.9,0,10.2-2.1l20.6-12.2a12.44422,12.44422,0,0,0,4.8-5.1,14.14136,14.14136,0,0,0,1.8-7.1V223.6a12.96731,12.96731,0,0,0-3.7-8.8C643.3,212,639.7,210.5,635,210.5ZM618.9,346.7l-9.2,5.5-34.5-8.3V237H619V346.7Z"/><path class="cls-2" d="M736.7,299.7h23.7v36.5l-24.8,13.6-15.9-10.1V237h40.7v20.2h27.4l2.4-46.6h-85.6a12.26526,12.26526,0,0,0-7.1,1.4,16.59379,16.59379,0,0,0-4.7,3.9,13.227,13.227,0,0,0-2.7,4.9,14.46139,14.46139,0,0,0-.8,4.7V344.2a14.0771,14.0771,0,0,0,6.7,12.2l32.2,20.4a13.1086,13.1086,0,0,0,7.1,1.6,16.45086,16.45086,0,0,0,6.9-1.6l41.4-23c4.6-2.4,7.1-6.7,7.6-12.6V273.7h-54.2v26Z"/><path class="cls-2" d="M831.1,359.4a15.02994,15.02994,0,0,0,3.5,9.4,18.11144,18.11144,0,0,0,4.7,3.9,14.073,14.073,0,0,0,7.1,1.6h73.8V346.5h-58.7v-45h53.9V273.7h-53.9V238.3h58.7V210.5h-89.2V359.4Z"/><polygon class="cls-3" points="200.2 208 200.2 241.3 371.5 145.3 371.5 112 200.2 208"/><polygon class="cls-3" points="200.2 307.8 371.5 211.8 371.5 178.5 200.2 274.5 200.2 307.8"/><polygon class="cls-3" points="200.2 374.3 371.5 278.3 371.5 245 200.2 341 200.2 374.3"/><polygon class="cls-3" points="137 255.3 34.3 197.7 34.3 131.3 0 112 0 278.3 34.3 297.5 34.3 231 137 288.6 137 355.1 171.3 374.3 171.3 208 137 188.8 137 255.3"/><polygon class="cls-3" points="353.7 93.9 199.2 7.6 185.7 0 174 6.6 174 6.6 17.7 94.2 52 113.4 185.8 38.4 319.5 113.1 353.7 93.9"/><polygon class="cls-3" points="319.3 22.2 289.3 6 290.2 59.8 320.1 76.5 319.3 22.2"/></svg>