<?xml version="1.0" encoding="UTF-8"?>
<svg id="Layer_1" data-name="Layer 1" xmlns="http://www.w3.org/2000/svg" version="1.1" viewBox="0 0 792 612">
  <defs>
    <style>
      .cls-1 {
        fill: #80bc00;
      }

      .cls-1, .cls-2, .cls-3, .cls-4, .cls-5, .cls-6 {
        stroke-width: 0px;
      }

      .cls-2 {
        fill: #dae343;
      }

      .cls-3 {
        fill: #ffa400;
      }

      .cls-4 {
        fill: #9ba194;
      }

      .cls-5 {
        fill: #004876;
      }

      .cls-6 {
        fill: #97caeb;
      }
    </style>
  </defs>
  <path class="cls-4" d="M355.26,308.7v-53.58h13.68v20.13h17.52v-20.13h13.69v53.58h-13.69v-21.43h-17.52v21.43h-13.68Z"/>
  <path class="cls-4" d="M415,308.7h-14.84l21.21-53.58h11.8l20.57,53.58h-14.99l-2.53-7.75h-18.75l-2.46,7.75ZM426.66,271.41l-5.79,18.68h11.8l-6.01-18.68Z"/>
  <path class="cls-4" d="M453.74,255.11h17.52c8.4,0,13.61,1.52,16.58,3.84,4.49,3.47,6.52,8.76,6.52,14.63,0,4.13-1.16,7.31-2.68,9.7-1.81,2.83-4.41,4.64-6.95,5.72l11.08,19.7h-14.12l-13.98-25.85h2.25c3.48,0,6.45-.29,8.26-1.45,1.66-1.08,3.04-3.62,3.04-6.59s-1.37-5.07-3.18-6.23c-1.52-.94-3.69-1.45-5.57-1.45h-5.07v41.56h-13.68v-53.58Z"/>
  <path class="cls-4" d="M552.36,288.64c-3.12,12.67-14.12,21.07-27.08,21.07-16.8,0-28.24-13.4-28.24-27.88,0-13.68,10.57-27.73,28.1-27.73s25.77,12.96,27.22,21.36h-14.34c-1.52-3.98-5.57-9.34-12.96-9.34-9.19,0-14.34,8.04-14.34,15.64,0,8.11,5.5,15.93,14.41,15.93s12.02-7.17,12.89-9.05h14.34Z"/>
  <g>
    <polygon class="cls-6" points="311.03 259.38 215.95 258.09 215.95 280.35 311.03 285.47 311.03 259.38"/>
    <polygon class="cls-1" points="215.95 280.35 215.95 293.63 215.95 304.45 311.03 301.91 311.03 293.63 311.03 285.47 215.95 280.35"/>
    <path class="cls-1" d="M311.03,249.68c-25.72,1.61-75.54,2.06-95.08,2.18v6.23l95.08,1.29v-9.7Z"/>
    <path class="cls-2" d="M215.95,235.14v16.72c19.54-.12,69.37-.56,95.08-2.18v-14.54h-95.08Z"/>
    <path class="cls-3" d="M264.71,309.84c15.78-.89,31.25-1.42,46.32-1.64v-6.29l-95.08,2.54v9.25c15.79-1.61,32.09-2.92,48.76-3.86Z"/>
    <path class="cls-5" d="M215.95,313.7v16.52h95.08v-22.02c-15.07.21-30.54.74-46.32,1.64-16.67.94-32.97,2.25-48.76,3.86Z"/>
  </g>
</svg>