<?xml version="1.0" encoding="UTF-8"?><svg id="Laag_1" xmlns="http://www.w3.org/2000/svg" viewBox="0 0 281.37 144.07"><defs><style>.cls-1{fill:#44c8f5;}</style></defs><g><path d="M33.5,91.82c0-.48,.28-.78,.73-.78s.73,.3,.73,.78v4.68c0,1.51,.66,2.31,2.04,2.31s2.04-.8,2.04-2.31v-4.68c0-.48,.28-.78,.73-.78s.73,.3,.73,.78v4.74c0,2.59-1.73,3.52-3.51,3.52s-3.51-.93-3.51-3.52v-4.74Z"/><path d="M42.77,91.82c0-.48,.28-.78,.73-.78s.73,.3,.73,.78v.35l.03,.03c.65-.83,1.56-1.16,2.44-1.16,1.36,0,3.07,.86,3.07,3.36v4.9c0,.48-.28,.78-.73,.78s-.73-.3-.73-.78v-4.82c0-1.55-1.08-2.18-2.04-2.18s-2.04,.63-2.04,2.18v4.82c0,.48-.28,.78-.73,.78s-.73-.3-.73-.78v-7.48Z"/><path d="M52.77,88.05c.5,0,.9,.4,.9,.9s-.4,.9-.9,.9-.9-.4-.9-.9,.4-.9,.9-.9Zm.73,11.25c0,.48-.28,.78-.73,.78s-.73-.3-.73-.78v-7.48c0-.48,.28-.78,.73-.78s.73,.3,.73,.78v7.48Z"/><path d="M55.03,92.32c-.1-.27-.15-.43-.15-.6,0-.43,.32-.68,.66-.68,.48,0,.65,.23,.76,.56l2.01,6.11h.03l2.01-6.11c.12-.33,.28-.56,.76-.56,.35,0,.66,.25,.66,.68,0,.17-.05,.33-.15,.6l-2.54,7.13c-.15,.43-.3,.63-.76,.63s-.61-.2-.76-.63l-2.54-7.13Z"/><path d="M64.1,96.13c0,1.51,.96,2.69,2.61,2.69,1.94,0,2.44-1.2,2.99-1.2,.27,0,.53,.23,.53,.65,0,.71-1.81,1.81-3.54,1.81-2.82,0-4.05-2.18-4.05-4.52s1.5-4.52,3.97-4.52,3.8,2.18,3.8,4.3c0,.52-.18,.78-.81,.78h-5.5Zm4.85-1.1c0-1.26-.73-2.72-2.34-2.72-1.81-.07-2.46,1.38-2.51,2.72h4.85Z"/><path d="M72.14,91.82c0-.48,.28-.78,.73-.78s.73,.3,.73,.78v.75h.03c.33-.68,1.15-1.53,1.99-1.53,.52,0,.81,.33,.81,.75s-.3,.68-.91,.8c-.86,.15-1.93,.8-1.93,2.51v4.2c0,.48-.28,.78-.73,.78s-.73-.3-.73-.78v-7.48Z"/><path d="M80.51,91.04c1.21,0,2.94,.65,2.94,1.56,0,.32-.22,.6-.66,.6-.63,0-.88-.9-2.28-.9-.83,0-1.55,.37-1.55,1.11,0,1.55,4.72,1.38,4.72,3.94,0,1.84-1.58,2.73-3.22,2.73-1.86,0-3.32-.93-3.32-1.68,0-.4,.28-.66,.6-.66,.65,0,1.18,1.08,2.77,1.08,1.06,0,1.71-.6,1.71-1.2,0-1.73-4.72-1.63-4.72-4.09,0-1.63,1.53-2.49,3.01-2.49Z"/><path d="M86.14,88.05c.5,0,.9,.4,.9,.9s-.4,.9-.9,.9-.9-.4-.9-.9,.4-.9,.9-.9Zm.73,11.25c0,.48-.28,.78-.73,.78s-.73-.3-.73-.78v-7.48c0-.48,.28-.78,.73-.78s.73,.3,.73,.78v7.48Z"/><path d="M89.6,89.23c0-.48,.28-.78,.73-.78s.73,.3,.73,.78v1.91h.6c.48,0,.73,.23,.73,.63s-.25,.63-.73,.63h-.6v6.89c0,.48-.28,.78-.73,.78s-.73-.3-.73-.78v-6.89h-.6c-.48,0-.73-.23-.73-.63s.25-.63,.73-.63h.6v-1.91Z"/><path d="M93.3,92.47c-.17-.5-.2-.65-.2-.81,0-.37,.33-.61,.66-.61,.37,0,.63,.23,.73,.55l2.03,6.06h.03l1.99-6.06c.1-.32,.33-.55,.7-.55,.33,0,.66,.25,.66,.61,0,.17-.03,.32-.2,.81l-3.69,10.55c-.12,.32-.35,.55-.71,.55-.33,0-.66-.25-.66-.61,0-.17,.03-.32,.22-.81l.93-2.48-2.49-7.19Z"/><path d="M109.48,91.04c2.49,0,3.89,2.18,3.89,4.52s-1.4,4.52-3.89,4.52-3.89-2.18-3.89-4.52,1.4-4.52,3.89-4.52Zm0,7.77c1.79,0,2.43-1.76,2.43-3.26s-.63-3.26-2.43-3.26-2.43,1.76-2.43,3.26,.63,3.26,2.43,3.26Z"/><path d="M117.17,99.3c0,.48-.28,.78-.73,.78s-.73-.3-.73-.78v-6.89h-.6c-.48,0-.73-.23-.73-.63s.25-.63,.73-.63h.6v-2.08c0-1.28,.88-1.91,1.94-1.91h.45c.38,0,.83,.23,.83,.63s-.25,.63-.8,.63h-.37c-.45,0-.6,.22-.6,.58v2.14h.91c.48,0,.73,.23,.73,.63s-.25,.63-.73,.63h-.91v6.89Z"/><path d="M131.67,99.37c0,.51-.4,.71-.68,.71-.3,0-.68-.2-.68-.71v-.62h-.03c-.63,.9-1.46,1.33-2.41,1.33-2.49,0-3.89-2.18-3.89-4.52s1.4-4.52,3.89-4.52c1.01,0,1.73,.43,2.41,1.18h.03v-.46c0-.52,.38-.71,.68-.71,.28,0,.68,.2,.68,.71v7.61Zm-3.8-.55c1.79,0,2.43-1.76,2.43-3.26s-.63-3.26-2.43-3.26-2.43,1.76-2.43,3.26,.63,3.26,2.43,3.26Z"/><path d="M134,91.82c0-.48,.28-.78,.73-.78s.73,.3,.73,.78v.43h.03c.42-.8,1.2-1.21,2.36-1.21,2.39,0,3.77,2.18,3.77,4.52s-1.38,4.52-3.77,4.52c-1.16,0-1.98-.65-2.36-1.2h-.03v3.9c0,.48-.28,.78-.73,.78s-.73-.3-.73-.78v-10.97Zm3.74,6.99c1.79,0,2.43-1.76,2.43-3.26s-.63-3.26-2.43-3.26-2.43,1.76-2.43,3.26,.63,3.26,2.43,3.26Z"/><path d="M143.57,91.82c0-.48,.28-.78,.73-.78s.73,.3,.73,.78v.43h.03c.42-.8,1.2-1.21,2.36-1.21,2.39,0,3.77,2.18,3.77,4.52s-1.38,4.52-3.77,4.52c-1.16,0-1.98-.65-2.36-1.2h-.03v3.9c0,.48-.28,.78-.73,.78s-.73-.3-.73-.78v-10.97Zm3.74,6.99c1.79,0,2.42-1.76,2.42-3.26s-.63-3.26-2.42-3.26-2.43,1.76-2.43,3.26,.63,3.26,2.43,3.26Z"/><path d="M154.53,99.3c0,.48-.28,.78-.73,.78s-.73-.3-.73-.78v-11.36c0-.48,.28-.78,.73-.78s.73,.3,.73,.78v11.36Z"/><path d="M157.52,88.05c.5,0,.9,.4,.9,.9s-.4,.9-.9,.9-.9-.4-.9-.9,.4-.9,.9-.9Zm.73,11.25c0,.48-.28,.78-.73,.78s-.73-.3-.73-.78v-7.48c0-.48,.28-.78,.73-.78s.73,.3,.73,.78v7.48Z"/><path d="M161.44,96.13c0,1.51,.96,2.69,2.61,2.69,1.94,0,2.44-1.2,2.99-1.2,.27,0,.53,.23,.53,.65,0,.71-1.81,1.81-3.54,1.81-2.82,0-4.05-2.18-4.05-4.52s1.5-4.52,3.97-4.52,3.8,2.18,3.8,4.3c0,.52-.18,.78-.81,.78h-5.5Zm4.85-1.1c0-1.26-.73-2.72-2.34-2.72-1.81-.07-2.46,1.38-2.51,2.72h4.85Z"/><path d="M175.26,98.87h-.03c-.42,.8-1.2,1.21-2.36,1.21-2.39,0-3.77-2.18-3.77-4.52s1.38-4.52,3.77-4.52c1.16,0,1.98,.65,2.36,1.2h.03v-4.3c0-.48,.28-.78,.73-.78s.73,.3,.73,.78v11.36c0,.48-.28,.78-.73,.78s-.73-.3-.73-.78v-.43Zm-2.28-6.56c-1.79,0-2.42,1.76-2.42,3.26s.63,3.26,2.42,3.26,2.43-1.76,2.43-3.26-.63-3.26-2.43-3.26Z"/><path d="M186.34,91.04c1.21,0,2.94,.65,2.94,1.56,0,.32-.22,.6-.66,.6-.63,0-.88-.9-2.28-.9-.83,0-1.55,.37-1.55,1.11,0,1.55,4.72,1.38,4.72,3.94,0,1.84-1.58,2.73-3.22,2.73-1.86,0-3.32-.93-3.32-1.68,0-.4,.28-.66,.6-.66,.65,0,1.18,1.08,2.77,1.08,1.06,0,1.71-.6,1.71-1.2,0-1.73-4.72-1.63-4.72-4.09,0-1.63,1.53-2.49,3.01-2.49Z"/><path d="M194.85,91.04c1.49,0,2.38,.51,2.38,1.11,0,.3-.25,.61-.6,.61-.56,0-.78-.46-1.78-.46-1.81,0-2.53,1.76-2.53,3.26s.71,3.26,2.53,3.26c1.03,0,1.3-.5,1.76-.5,.33,0,.56,.22,.56,.61,0,.55-.81,1.15-2.33,1.15-2.69,0-3.99-2.18-3.99-4.52s1.3-4.52,3.99-4.52Z"/><path d="M199.68,88.05c.5,0,.9,.4,.9,.9s-.4,.9-.9,.9-.9-.4-.9-.9,.4-.9,.9-.9Zm.73,11.25c0,.48-.28,.78-.73,.78s-.73-.3-.73-.78v-7.48c0-.48,.28-.78,.73-.78s.73,.3,.73,.78v7.48Z"/><path d="M203.6,96.13c0,1.51,.96,2.69,2.61,2.69,1.94,0,2.44-1.2,2.99-1.2,.27,0,.53,.23,.53,.65,0,.71-1.81,1.81-3.54,1.81-2.82,0-4.05-2.18-4.05-4.52s1.49-4.52,3.97-4.52,3.81,2.18,3.81,4.3c0,.52-.18,.78-.81,.78h-5.5Zm4.85-1.1c0-1.26-.73-2.72-2.34-2.72-1.81-.07-2.46,1.38-2.51,2.72h4.85Z"/><path d="M211.64,91.82c0-.48,.28-.78,.73-.78s.73,.3,.73,.78v.35l.03,.03c.65-.83,1.56-1.16,2.44-1.16,1.36,0,3.07,.86,3.07,3.36v4.9c0,.48-.28,.78-.73,.78s-.73-.3-.73-.78v-4.82c0-1.55-1.08-2.18-2.04-2.18s-2.04,.63-2.04,2.18v4.82c0,.48-.28,.78-.73,.78s-.73-.3-.73-.78v-7.48Z"/><path d="M224.51,91.04c1.49,0,2.38,.51,2.38,1.11,0,.3-.25,.61-.6,.61-.57,0-.78-.46-1.78-.46-1.81,0-2.53,1.76-2.53,3.26s.71,3.26,2.53,3.26c1.03,0,1.3-.5,1.76-.5,.33,0,.56,.22,.56,.61,0,.55-.81,1.15-2.33,1.15-2.69,0-3.99-2.18-3.99-4.52s1.3-4.52,3.99-4.52Z"/><path d="M229.55,96.13c0,1.51,.96,2.69,2.61,2.69,1.94,0,2.44-1.2,2.99-1.2,.27,0,.53,.23,.53,.65,0,.71-1.81,1.81-3.54,1.81-2.82,0-4.05-2.18-4.05-4.52s1.5-4.52,3.97-4.52,3.8,2.18,3.8,4.3c0,.52-.18,.78-.81,.78h-5.5Zm4.85-1.1c0-1.26-.73-2.72-2.34-2.72-1.81-.07-2.46,1.38-2.51,2.72h4.85Z"/><path d="M240.39,91.04c1.21,0,2.94,.65,2.94,1.56,0,.32-.22,.6-.66,.6-.63,0-.88-.9-2.28-.9-.83,0-1.54,.37-1.54,1.11,0,1.55,4.72,1.38,4.72,3.94,0,1.84-1.58,2.73-3.22,2.73-1.86,0-3.32-.93-3.32-1.68,0-.4,.28-.66,.6-.66,.65,0,1.18,1.08,2.77,1.08,1.06,0,1.71-.6,1.71-1.2,0-1.73-4.72-1.63-4.72-4.09,0-1.63,1.53-2.49,3.01-2.49Z"/></g><path d="M33.5,38.39c0-3.18,1.99-5.31,4.78-5.31s4.78,2.12,4.78,5.31v13h.13c1.99-2.45,5.71-3.32,8.69-3.32,7.5,0,13.07,4.78,13.07,12.87v18.31c0,3.18-1.99,5.31-4.78,5.31s-4.78-2.12-4.78-5.31v-16.65c0-4.45-2.79-6.57-6.24-6.57-3.91,0-6.1,2.85-6.1,6.57v16.65c0,3.18-1.99,5.31-4.78,5.31s-4.78-2.12-4.78-5.31V38.39Z"/><path d="M104.56,66.59c0,9.95-6.83,18.38-17.12,18.38s-17.12-8.43-17.12-18.38,7.03-18.51,17.12-18.51,17.12,8.82,17.12,18.51Zm-24.68,0c0,4.58,2.39,9.62,7.56,9.62s7.56-5.04,7.56-9.62-2.32-9.75-7.56-9.75-7.56,5.17-7.56,9.75Z"/><path d="M107.61,56.84c-.66-1.92-1-3.12-1-4.51,0-2.12,1.99-3.85,4.78-3.85,2.32,0,3.98,1.53,4.51,3.78l5.51,18.25h.13l5.57-17.85c.73-2.59,2.06-4.18,4.84-4.18s4.11,1.59,4.84,4.18l5.57,17.85h.13l5.51-18.25c.53-2.26,2.19-3.78,4.51-3.78,2.79,0,4.78,1.73,4.78,4.64,0,1.06-.46,2.12-.93,3.58l-8.16,23.02c-1,2.79-2.65,4.84-5.77,4.84-2.92,0-4.64-1.66-5.51-4.44l-4.91-15.39h-.13l-4.91,15.39c-.86,2.79-2.59,4.44-5.51,4.44-3.12,0-4.78-2.06-5.77-4.84l-8.09-22.89Z"/><path d="M169.52,69.71c.66,4.71,4.58,6.9,9.02,6.9,4.91,0,8.29-3.85,10.81-3.85,2.06,0,3.91,2.06,3.91,4.11,0,4.11-8.49,8.09-15.59,8.09-10.75,0-17.91-7.83-17.91-18.38,0-9.69,7.03-18.51,17.12-18.51s17.18,9.42,17.18,17.38c0,2.85-1.26,4.25-4.18,4.25h-20.37Zm14.99-6.37c-.53-4.18-3.18-7.3-7.63-7.3s-7.1,3.25-7.56,7.3h15.19Z"/><path d="M218.88,59.23c-1.79,0-5.44-2.79-8.56-2.79-1.73,0-3.25,.8-3.25,2.65,0,4.45,16.59,3.78,16.59,14.66,0,6.37-5.37,11.21-13.6,11.21-5.37,0-13.34-3.05-13.34-7.36,0-1.46,1.46-4.25,4.11-4.25,3.72,0,5.37,3.25,9.89,3.25,2.92,0,3.78-.93,3.78-2.72,0-4.38-16.59-3.72-16.59-14.66,0-6.63,5.37-11.15,12.94-11.15,4.71,0,11.94,2.19,11.94,6.9,0,2.19-1.66,4.25-3.91,4.25Z"/><path d="M232.02,57.24h-2.12c-2.59,0-4.18-1.59-4.18-4.18,0-2.39,1.79-4.18,4.18-4.18h2.12v-5.71c0-3.18,1.99-5.31,4.78-5.31s4.78,2.12,4.78,5.31v5.71h2.72c2.45,0,4.58,1.13,4.58,4.18s-2.12,4.18-4.58,4.18h-2.72v22.03c0,3.18-1.99,5.31-4.78,5.31s-4.78-2.12-4.78-5.31v-22.03Z"/><path class="cls-1" d="M138.65,44.05l6.27-19.39c.14-.42-.09-.86-.51-.99-.42-.13-.87,.1-1,.52l-6.42,19.86h1.66Z"/><path class="cls-1" d="M117.99,102.8l-4.92,15.2c-.14,.42,.09,.86,.51,.99,.08,.02,.16,.04,.23,.04,.34,0,.66-.22,.77-.56l5.07-15.67h-1.66Z"/></svg>