<svg id="Layer_1" data-name="Layer 1" xmlns="http://www.w3.org/2000/svg" viewBox="0 0 1000 176.62"><defs><style>.cls-1{fill:#003b45;}</style></defs><polygon class="cls-1" points="394.08 175.51 400.33 175.51 400.33 166.33 409.67 166.33 409.67 160.46 400.33 160.46 400.33 154.79 411.98 154.79 411.98 148.93 394.08 148.93 394.08 175.51"/><path class="cls-1" d="M461.52,150.32a14.34,14.34,0,0,0-13.84,0,11.74,11.74,0,0,0-4.5,4.89,16.55,16.55,0,0,0,0,14,11.8,11.8,0,0,0,4.5,4.89,14.34,14.34,0,0,0,13.84,0,11.85,11.85,0,0,0,4.49-4.89,16.55,16.55,0,0,0,0-14A11.79,11.79,0,0,0,461.52,150.32Zm-2,17.85a7.37,7.37,0,0,1-9.81,0q-1.81-1.89-1.82-5.95t1.82-5.94a7.34,7.34,0,0,1,9.81,0q1.81,1.88,1.82,5.94T459.5,168.17Z"/><path class="cls-1" d="M511.79,164.18a9.47,9.47,0,0,1-.47,3.32,3.47,3.47,0,0,1-1.68,1.9,9.78,9.78,0,0,1-7,0,3.47,3.47,0,0,1-1.68-1.9,9.71,9.71,0,0,1-.47-3.32V148.93h-6.25v16.81q0,5,3.24,7.59a15.76,15.76,0,0,0,17.28,0c2.16-1.72,3.25-4.25,3.25-7.59V148.93h-6.26Z"/><polygon class="cls-1" points="563.2 164.1 562.58 164.1 552.25 148.93 546 148.93 546 175.51 552.25 175.51 552.25 160.35 552.88 160.35 563.2 175.51 569.46 175.51 569.46 148.93 563.2 148.93 563.2 164.1"/><path class="cls-1" d="M607.71,148.93h-9.93v26.58h9.93q13.1,0,13.1-13.29T607.71,148.93Zm6.37,17.65a3.72,3.72,0,0,1-1.93,2.31,10,10,0,0,1-4.44.76H604V154.79h3.67a10.12,10.12,0,0,1,4.46.75,3.66,3.66,0,0,1,1.91,2.27,20.69,20.69,0,0,1,0,8.77Z"/><path class="cls-1" d="M653.36,148.93l-7.86,26.58h6.73l1.21-4.3h9.38l1.21,4.3h6.73l-7.86-26.58Zm1.72,16.42,2.74-9.85h.62l2.74,9.85Z"/><polygon class="cls-1" points="694.11 154.79 701.11 154.79 701.11 175.51 707.37 175.51 707.37 154.79 714.36 154.79 714.36 148.93 694.11 148.93 694.11 154.79"/><rect class="cls-1" x="743.1" y="148.93" width="6.25" height="26.58"/><path class="cls-1" d="M795.12,150.32a14.34,14.34,0,0,0-13.84,0,11.87,11.87,0,0,0-4.5,4.89,16.55,16.55,0,0,0,0,14,11.94,11.94,0,0,0,4.5,4.89,14.34,14.34,0,0,0,13.84,0,11.94,11.94,0,0,0,4.5-4.89,16.55,16.55,0,0,0,0-14A11.87,11.87,0,0,0,795.12,150.32Zm-2,17.85a7.38,7.38,0,0,1-9.82,0q-1.81-1.89-1.81-5.95t1.81-5.94a7.35,7.35,0,0,1,9.82,0q1.82,1.88,1.81,5.94T793.11,168.17Z"/><polygon class="cls-1" points="844.17 164.1 843.55 164.1 833.23 148.93 826.97 148.93 826.97 175.51 833.23 175.51 833.23 160.35 833.85 160.35 844.17 175.51 850.43 175.51 850.43 148.93 844.17 148.93 844.17 164.1"/><path class="cls-1" d="M707.65,87.87c.05-.39.07-.78.09-1.19v0H697.19l0,.3a5.17,5.17,0,0,1-4.07,4.67,11.7,11.7,0,0,1-2.62.3q-15.11,0-30.22,0a12.16,12.16,0,0,1-2.62-.29,4.94,4.94,0,0,1-3.87-3.48,9.24,9.24,0,0,1-.36-2.32c0-1.17,0-2.35,0-3.49V79.89l54.43.09V76.12c0-3,0-5.93,0-8.89a28.15,28.15,0,0,0-.26-3.74,12.43,12.43,0,0,0-4.17-7.69,16.61,16.61,0,0,0-11.27-4.2c-4.79,0-9.63,0-14.45,0l-15.81,0h-3.25a18.19,18.19,0,0,0-3.17.3,16.25,16.25,0,0,0-5.34,1.89,14.2,14.2,0,0,0-5.59,5.52,13.82,13.82,0,0,0-1.71,6.92V85.81a19.71,19.71,0,0,0,.17,2.36,13.15,13.15,0,0,0,6.57,9.77,17.9,17.9,0,0,0,9.47,2.54h32.76a17.83,17.83,0,0,0,7.89-1.75C704.39,96.43,707,92.87,707.65,87.87ZM653.4,65.51a5.2,5.2,0,0,1,4.35-5.12,13.12,13.12,0,0,1,2.69-.27q11.56,0,23.15,0h6.75a10.35,10.35,0,0,1,3.34.47,4.85,4.85,0,0,1,3.48,4.51c.09,1.28.08,2.59.07,3.85,0,.54,0,1.07,0,1.61v.77H653.37V68.94C653.36,67.82,653.35,66.66,653.4,65.51Z"/><path class="cls-1" d="M938.38,63.49a12.42,12.42,0,0,0-4.16-7.69A16.64,16.64,0,0,0,923,51.6c-4.8,0-9.64,0-14.46,0l-15.8,0h-3.26a18.19,18.19,0,0,0-3.17.3,16.34,16.34,0,0,0-5.34,1.89,14.34,14.34,0,0,0-5.59,5.52,13.71,13.71,0,0,0-1.7,6.92v8.33q0,5.63,0,11.25a17.84,17.84,0,0,0,.17,2.36,13.16,13.16,0,0,0,6.56,9.77,17.94,17.94,0,0,0,9.48,2.54H922.6a17.8,17.8,0,0,0,7.89-1.75c4.74-2.31,7.36-5.87,8-10.87,0-.39.07-.78.09-1.19v0H928l0,.3a5.17,5.17,0,0,1-4.06,4.67,11.84,11.84,0,0,1-2.62.3q-15.12,0-30.23,0a12.16,12.16,0,0,1-2.62-.29,5,5,0,0,1-3.87-3.48,8.82,8.82,0,0,1-.35-2.32c0-1.17,0-2.35,0-3.49V79.89l54.42.09V76.12c0-3,0-5.93,0-8.89A26.56,26.56,0,0,0,938.38,63.49Zm-10.31,5.44c0,.54,0,1.07,0,1.61v.77H884.21v-1c0-.47,0-.94,0-1.41,0-1.12,0-2.28,0-3.43a5.2,5.2,0,0,1,4.35-5.12,13.2,13.2,0,0,1,2.69-.27q11.58,0,23.15,0h6.76a10.29,10.29,0,0,1,3.33.47A4.84,4.84,0,0,1,928,65.08C928.1,66.36,928.08,67.67,928.07,68.93Z"/><path class="cls-1" d="M546.4,63.49a12.43,12.43,0,0,0-4.17-7.69A16.61,16.61,0,0,0,531,51.6c-4.79,0-9.63,0-14.45,0l-15.8,0h-3.26a18.19,18.19,0,0,0-3.17.3,16.25,16.25,0,0,0-5.34,1.89,14.2,14.2,0,0,0-5.59,5.52,13.82,13.82,0,0,0-1.71,6.92V85.81a19.71,19.71,0,0,0,.17,2.36,13.13,13.13,0,0,0,6.57,9.77,17.91,17.91,0,0,0,9.48,2.54h32.75a17.83,17.83,0,0,0,7.89-1.75c4.74-2.31,7.35-5.87,8-10.87,0-.39.07-.78.09-1.19v0H536.05l0,.3A5.17,5.17,0,0,1,532,91.61a11.7,11.7,0,0,1-2.62.3q-15.11,0-30.22,0a12.16,12.16,0,0,1-2.62-.29,4.94,4.94,0,0,1-3.87-3.48,9.24,9.24,0,0,1-.36-2.32c0-1.17,0-2.35,0-3.49V81.21a3,3,0,0,1,.05-.49l.08-.74h54.29V76.11q0-4.44,0-8.88A28.15,28.15,0,0,0,546.4,63.49ZM536.06,69c0,.54,0,1.08,0,1.62A.74.74,0,0,1,536,71l-.14.34-.41.08H492.33l-.08-.61a2.38,2.38,0,0,1,0-.34V69c0-1.12,0-2.28,0-3.42a5.21,5.21,0,0,1,4.35-5.13,13.12,13.12,0,0,1,2.69-.27h29.9a10.31,10.31,0,0,1,3.34.46A4.87,4.87,0,0,1,536,65.15C536.09,66.43,536.08,67.73,536.06,69Z"/><path class="cls-1" d="M255.13,64.5V26.68H244.5V100.4h3.37c1.7,0,3.7,0,7.26,0V92.05c0-7.36,0-5.73,0-13.09Z"/><path class="cls-1" d="M998.11,59.21a13.7,13.7,0,0,0-5.39-5.59,16.65,16.65,0,0,0-8.18-2c-4.28-.06-8.13-.06-11.76,0a18.23,18.23,0,0,0-7,1.5A12.4,12.4,0,0,0,962,55.82l-.06.06V51.71H951.31s.25,48.85.08,48.75H962l.15-33a19.39,19.39,0,0,1,.15-2.58,4.87,4.87,0,0,1,3-4,8.81,8.81,0,0,1,3.58-.63c4.59,0,9.19,0,13.78,0a15,15,0,0,1,2.2.21,5.32,5.32,0,0,1,4.58,5.27H1000A18.62,18.62,0,0,0,998.11,59.21Z"/><path class="cls-1" d="M606.76,59.21a13.64,13.64,0,0,0-5.39-5.59,16.64,16.64,0,0,0-8.17-2c-4.29-.06-8.14-.06-11.77,0a18.23,18.23,0,0,0-7,1.5,12.4,12.4,0,0,0-3.79,2.72l-.06.06V51.71H560s.26,48.85.09,48.75H570.6l.15-33a21.07,21.07,0,0,1,.16-2.58,4.84,4.84,0,0,1,3-4,8.84,8.84,0,0,1,3.58-.63c4.6,0,9.19,0,13.78,0a14.89,14.89,0,0,1,2.2.21,5.32,5.32,0,0,1,4.58,5.27h10.59A18.62,18.62,0,0,0,606.76,59.21Z"/><path class="cls-1" d="M453.28,100.47a13.92,13.92,0,0,0,1.7-.14h.14a17.07,17.07,0,0,0,8.13-3.14,13,13,0,0,0,4.47-5.52,14.59,14.59,0,0,0,1.12-5.89q0-9.42,0-18.84v-.82a15.34,15.34,0,0,0-.36-3.66,13.22,13.22,0,0,0-5.22-7.76,17.67,17.67,0,0,0-10.5-3.3q-12.7,0-25.4,0a19.61,19.61,0,0,0-3.11.27,16.91,16.91,0,0,0-6.62,2.64c-.13.09-.85.57-1.41,1V51.63H405.64v62l5.15,0,5.45,0V66.61a13.41,13.41,0,0,1,.08-1.78,4.94,4.94,0,0,1,3.36-4.33,8.79,8.79,0,0,1,2.78-.51c3.68,0,7.36,0,11,0h7.57c3.65,0,7.29,0,10.93,0a8.44,8.44,0,0,1,2.78.52,5,5,0,0,1,3.37,4.88q0,10.47,0,20.95A5.13,5.13,0,0,1,454,91.62a11.82,11.82,0,0,1-2.62.29c-7.16,0-13,0-19.12,0h-5.56l-7.93,8.55c8.19,0,25.24,0,33.65,0Z"/><path class="cls-1" d="M784.89,100.27v-72l-10.61.05V85.29a13.41,13.41,0,0,1-.08,1.78,4.92,4.92,0,0,1-3.35,4.34,8.88,8.88,0,0,1-2.79.5H738.52a8.78,8.78,0,0,1-2.78-.53,5,5,0,0,1-3.37-4.87q0-10.49,0-21a5.14,5.14,0,0,1,4.18-5.27,11.89,11.89,0,0,1,2.62-.29h24.68l7.94-8.55c-8.2,0-25.26,0-33.68,0h-.87a14.08,14.08,0,0,0-1.7.14h-.14a17.1,17.1,0,0,0-8.12,3.14,13.17,13.17,0,0,0-4.48,5.52,14.59,14.59,0,0,0-1.12,5.89q0,9.83,0,19.66a15.34,15.34,0,0,0,.36,3.66,13.22,13.22,0,0,0,5.22,7.76,17.7,17.7,0,0,0,10.5,3.31q12.71,0,25.4,0a19.48,19.48,0,0,0,3.11-.26,17.09,17.09,0,0,0,6.62-2.65l1.41-.88h0v3.55Z"/><rect class="cls-1" x="619" y="27.25" width="10.63" height="73.23"/><path class="cls-1" d="M305.73,27.25V60.61H262.11l-7,8.55h50.58v31.33h10.63V27.25Z"/><path class="cls-1" d="M861.64,51.81c0-.11,0-.22,0-.33h-4.11c-2.14,0-4.28,0-6.43,0l0,3.8a17.92,17.92,0,0,0-11.47-3.92H814.71a19.4,19.4,0,0,0-3.18.22,17.6,17.6,0,0,0-6.69,2.5,13.4,13.4,0,0,0-5.66,7,15.06,15.06,0,0,0-.77,5.08c0,4.31,0,8.61,0,12.91v6.45a18.08,18.08,0,0,0,.24,3.1,12.53,12.53,0,0,0,3.17,6.57,15.86,15.86,0,0,0,11.79,5.21c7.81.13,16.92.09,25.72,0h1l7.93-8.54c-9.61,0-23.5,0-32.6,0a10.37,10.37,0,0,1-2.77-.42,5.13,5.13,0,0,1-3.83-4.86c0-.27,0-.54,0-.8V66.24a7.58,7.58,0,0,1,.38-2.67,4.83,4.83,0,0,1,3.12-3.08,9.57,9.57,0,0,1,2.78-.5c3.68,0,7.36,0,11,0h7.43c3.69,0,7.38,0,11.08,0a9.14,9.14,0,0,1,2.7.49,4.78,4.78,0,0,1,3.14,3.39,7.8,7.8,0,0,1,.3,2l.05,39.62h0v1.9a3.89,3.89,0,0,1-.34,1.53,4.94,4.94,0,0,1-3,2.7,8.45,8.45,0,0,1-3.19.53H815.24l-7,8.55c7.64,0,21,0,30.87,0h6.94a21.37,21.37,0,0,0,2.15-.14,16.37,16.37,0,0,0,6.86-2.38,13.31,13.31,0,0,0,5.49-6.25,14.91,14.91,0,0,0,1.07-6q0-18.42,0-36.83Z"/><path class="cls-1" d="M392.26,51.86a1.77,1.77,0,0,0,0-.23H381.67V58q0,13.74,0,27.49a10.29,10.29,0,0,1-.24,2.23,4.82,4.82,0,0,1-2.77,3.49,8.75,8.75,0,0,1-3.81.74h-6.66q-10.81,0-21.65,0a11.89,11.89,0,0,1-2.62-.29,5.3,5.3,0,0,1-4-3.54,7.32,7.32,0,0,1-.31-2.52V52c0-.12,0-.23,0-.35H329v7.56q0,13.1,0,26.19a25.11,25.11,0,0,0,.19,3,12.18,12.18,0,0,0,3.1,6.74,15.84,15.84,0,0,0,11.88,5.33l27.63,0a15,15,0,0,0,8.48-2.37,6.7,6.7,0,0,0,1.35-1.19h0v10.29a4.55,4.55,0,0,1-2.2,3.89,7.36,7.36,0,0,1-4.15,1.11H345.82l-7,8.55c9.38,0,29.34,0,37.77,0a19,19,0,0,0,2.22-.14,16.28,16.28,0,0,0,7.89-3.11,12.7,12.7,0,0,0,5.5-10.6c0-13.56,0-27.34,0-40.66Z"/><path class="cls-1" d="M92.15,132.83h.09c2.69-.23,7.4-.77,10.12-1.1a3.4,3.4,0,0,1,.45,0,6.72,6.72,0,0,1,5.12,2.55l6.31,8.57a2.17,2.17,0,0,0,1.5.67l18.3-1.93a2.1,2.1,0,0,0,1.3-1l7.11-16.16a3,3,0,0,0-.28-2.63l-6.66-9.24a6.46,6.46,0,0,1-.63-6l2.72-6.2a2.35,2.35,0,0,0-.09-1.58.54.54,0,0,0-.1-.16l-4.12-5.19a1.3,1.3,0,0,0-2.21.28l-4.56,10.39a6.41,6.41,0,0,1-4.89,3.57l-9.25,1a2.9,2.9,0,0,0-2.12,1.55l-3.81,8.65a6.53,6.53,0,0,1-4.62,3.59C89.41,124,48.61,128.42,37,130a6.37,6.37,0,0,1-5.57-2.58l-8.46-11.86c-.71-1-1.89-2.56-2.64-3.53l-8.35-11.45a6.45,6.45,0,0,1-.64-6l13.24-30.1a6.43,6.43,0,0,1,4.88-3.58l20.43-2.28A2.93,2.93,0,0,0,52,57l2.69-6.11a1.2,1.2,0,0,0-1.23-1.68c-4.32.48-10.55,1.2-16.25,1.8-4.76.45-11.35.75-16,1.51l-.16,0a3.12,3.12,0,0,0-1.47,1.33L.09,98.23a2.23,2.23,0,0,0,.17,1.66c6.14,8.66,14.68,20.32,21.32,28.59l.05.05,0,.05,1.93,2.59c1.91,2.49,8.26,11.35,10.19,14,1.77,2.25,5,6.46,6.76,8.78,2.09,2.62,8,11,10,13.83,2.48,3.46,2.89,3.85,6.49,8.44a1,1,0,0,0,.9.38c14.92-1.49,21-2.32,32.69-3.63a1.41,1.41,0,0,0,1-2.24c-1.3-1.74-3-4-4.12-5.4a2.7,2.7,0,0,0-2.5-1l-.94.13c-7.56.91-18.82,2.28-19.63,2.3a5.61,5.61,0,0,1-4.65-1.84l-.51-.55a.27.27,0,0,1-.07-.08l-3-4c-1.9-2.45-7.58-10.47-9.51-13.08a32.21,32.21,0,0,1-3.07-4.87,3.12,3.12,0,0,1,.3-2.8,4.13,4.13,0,0,1,3.29-1.72l3.71-.33c2.84-.21,11.87-1.49,14.85-1.85"/><path class="cls-1" d="M161.26,117.68a6.33,6.33,0,0,1,.75,6L148.6,154.16a6.4,6.4,0,0,1-4.88,3.58l-32.91,3.63a4.93,4.93,0,0,1-.55,0,6.45,6.45,0,0,1-4.87-2.6L92.62,141.64a2.37,2.37,0,0,0-1.51-.71l-8.34,1.28a.31.31,0,0,0-.21.46c4.77,7.58,8,11.24,11.17,15.43l8.43,11.6a3.09,3.09,0,0,0,2.27,1.34c3.7,0,3.57-.54,9.17-1.12,11.63-1.3,14.6-1.54,22.65-2.3,3.11-.23,12.62-1.49,15.84-1.86a2.3,2.3,0,0,0,1.33-1L191.3,78.64a2.18,2.18,0,0,0-.17-1.66c-6.14-8.29-13.27-18.16-20.28-27.39a.27.27,0,0,0-.46.06L167,57.47a2.08,2.08,0,0,0,.18,1.6l10.78,13.58c3,3.75,2.27,11.49,1.24,13.39l-9.29,19.56a3.37,3.37,0,0,1-6,.66L130.48,60.79a6.43,6.43,0,0,1-.66-6l4-9.14a3.35,3.35,0,0,0,.15-.84,3.51,3.51,0,0,0-.6-2.2c-.21-.3-.46-.65-.73-1L128,35.3c-2.16-2.81-2.53-3.54-5.06-6.81a2.33,2.33,0,0,0-1.75-.92,7.24,7.24,0,0,0-1,0s-2.42.23-4.65.51c-4.77.59-12.22,1.6-12.29,1.61a2.3,2.3,0,0,0-1.36,1L97.21,41.37A6.86,6.86,0,0,1,92.38,45l-7.1.94a2.43,2.43,0,0,0-1.39,1l-3.26,7.91a.38.38,0,0,0,.4.53c5-.59,11.08-1.3,12.9-1.28a23.08,23.08,0,0,1,3.54.26,4.71,4.71,0,0,1,2.8,2.21c2.12,3,4.38,6.65,4.38,6.65,1.35,1.58,3.85,1.25,4.59,1.16l5.41-1a30.84,30.84,0,0,1,3.24-.15c.6,0,1.16,0,1.61,0,1.23.08,3.06,1,4.87,4"/><path class="cls-1" d="M39.71,10.39a2,2,0,0,0-1.25.89L24.57,42.85a.18.18,0,0,0,.18.25l8.58-.69a2.31,2.31,0,0,0,1.32-1L43.2,22a6.39,6.39,0,0,1,4.88-3.58l25.81-2.81.49,0a3.35,3.35,0,0,1,3.09,4.91L54.7,72.22a6.45,6.45,0,0,1-4.87,3.59L39.24,77a1.82,1.82,0,0,0-1.31,1L30.52,94.85a2.16,2.16,0,0,0,.17,1.65L33,99.7c1.63,2.22,4.5,6.11,6.11,8.4a18,18,0,0,0,2.59,3l.19.1a3.35,3.35,0,0,0,1.8.45,84.61,84.61,0,0,0,10.07-.87c1.91-.28,4.81-1.5,5.69-.28l6,7.86a1.31,1.31,0,0,0,1.15.58,56.6,56.6,0,0,0,7.78-1.12.37.37,0,0,0,.23-.59L66.92,106.7a6.75,6.75,0,0,1-.65-6L70,92.19a2.29,2.29,0,0,0-.17-1.7c0-.14-6.08-8.53-6.28-8.7a6.35,6.35,0,0,1-.7-6l26-59a5.58,5.58,0,0,1,4.52-3.31l.69-.13c9.11-1.53,12.72-1.42,18-2.16,3.52-.22,13-1.18,16.45-1a7,7,0,0,1,4.86,3.31c1.3,1.89,2.58,3.6,4.37,6.08,3.77,5.22,4.41,5.81,7.18,9.4l7,10.12a6.35,6.35,0,0,1,.68,6l-8.5,19.31c-.17.4-.18,1.42.14,1.68l5.09,6.45a.37.37,0,0,0,.62-.08l13.72-31.19a2.15,2.15,0,0,0-.17-1.61l-1.4-1.82c-1.76-2.44-7.54-10.17-9.47-12.69-1.62-2.32-6.42-8.87-8.16-11.24S136.69,3.12,134.84.56A1.94,1.94,0,0,0,133.45,0c-.19,0-4.82.76-8.3,1.13"/></svg>