<svg xmlns="http://www.w3.org/2000/svg" role="img" viewBox="-2.55 -2.55 340.34 102.34"><title>Hyperledger Avalon logo</title><defs><style>.cls-2{fill:#00b37e}</style></defs><path fill="#24272a" d="M124.09 21.91l8.72-.05.05 8.8 4.49-.02-.1-20.37-4.5.02.04 7.6-8.72.04-.04-7.59-4.5.02.11 20.38 4.49-.03-.04-8.8zm24.15 8.81l4.49-.02-.04-8.69 7.59-11.73-5.32.03-4.54 7.65-4.36-7.6-5.59.03 7.72 11.64.05 8.69zm19.76-.03v-8h3.28a14.84 14.84 0 0 0 3-.32 6.36 6.36 0 0 0 2.38-1 4.91 4.91 0 0 0 1.57-1.93 7 7 0 0 0 .57-3 6.54 6.54 0 0 0-.64-3 5.13 5.13 0 0 0-1.68-1.89 6.87 6.87 0 0 0-2.47-1 15.13 15.13 0 0 0-3-.28h-7.57l.11 20.38zm2.22-16.59a12.09 12.09 0 0 1 1.32.06 4.48 4.48 0 0 1 1.26.32 2.47 2.47 0 0 1 .92.74 2.06 2.06 0 0 1 .37 1.25 2.38 2.38 0 0 1-.27 1.19 2.05 2.05 0 0 1-.71.75 3.1 3.1 0 0 1-1 .4 5.59 5.59 0 0 1-1.17.12h-3V14.1zm26.16 16.55l-.02-4.14-9.88.05-.02-4.15 8.84-.04-.02-4.15-8.85.05-.02-3.8 9.36-.05-.02-4.14-13.85.07.11 20.38 14.37-.08zm14.19 0h5.39l-5.23-8.57a5.06 5.06 0 0 0 3.27-1.96 6 6 0 0 0 1.1-3.68 6.35 6.35 0 0 0-.63-3 5.13 5.13 0 0 0-1.68-1.89 7 7 0 0 0-2.46-1 13.93 13.93 0 0 0-3-.29h-7.89l.11 20.38h4.49v-8.15h2.22zM204 18.74v-4.63h2.94a10.46 10.46 0 0 1 1.24.08 3.83 3.83 0 0 1 1.13.33 2 2 0 0 1 1.13 1.94 2.13 2.13 0 0 1-.35 1.29 2.05 2.05 0 0 1-.91.68 3.83 3.83 0 0 1-1.22.27c-.45 0-.88.05-1.28.05zm27.89 11.88l-.03-4.14-8.32.04-.09-16.23-4.49.02.11 20.38 12.82-.07zm17.59.02l-.02-4.14-9.88.05-.02-4.15 8.84-.04-.02-4.15-8.84.05-.02-3.8 9.36-.05-.03-4.14-13.85.07.11 20.37 14.37-.07zM268 28a9.31 9.31 0 0 0 2.5-3.18 9.71 9.71 0 0 0 .92-4.36 10.72 10.72 0 0 0-1-4.75 8.67 8.67 0 0 0-2.63-3.16 10.45 10.45 0 0 0-3.79-1.73 19.08 19.08 0 0 0-4.66-.52h-6.74l.11 20.38h7.35a14.23 14.23 0 0 0 4.34-.69A11 11 0 0 0 268 28zm-8.53-1.49h-2.34l-.06-12.09h2.65a10 10 0 0 1 2.7.34 6.6 6.6 0 0 1 2.23 1.07 5.08 5.08 0 0 1 1.52 1.82 5.76 5.76 0 0 1 .58 2.6 6.78 6.78 0 0 1-.55 2.93 5 5 0 0 1-1.53 1.93 6.15 6.15 0 0 1-2.31 1.07 13.17 13.17 0 0 1-2.85.35zm26.67-7.91v4.14h3.66v3.32a9.78 9.78 0 0 1-1.7.68 8.56 8.56 0 0 1-2.53.34 6.63 6.63 0 0 1-2.61-.47 5.86 5.86 0 0 1-2-1.36 6 6 0 0 1-1.29-2.06 7.19 7.19 0 0 1-.46-2.63 7.43 7.43 0 0 1 .43-2.62 6 6 0 0 1 1.27-2.1 6 6 0 0 1 2-1.38 6.64 6.64 0 0 1 2.61-.5 7.36 7.36 0 0 1 2.88.47 6.45 6.45 0 0 1 2.08 1.43l3.15-3.47a8.92 8.92 0 0 0-3.62-2 16.54 16.54 0 0 0-4.51-.56 12.21 12.21 0 0 0-4.4.77 9.84 9.84 0 0 0-3.48 2.16 9.72 9.72 0 0 0-2.27 3.39 11.51 11.51 0 0 0-.8 4.44 11.62 11.62 0 0 0 .84 4.43 9.92 9.92 0 0 0 2.31 3.37 10.17 10.17 0 0 0 3.5 2.12 12.34 12.34 0 0 0 4.41.73 20.82 20.82 0 0 0 4.4-.49 16.33 16.33 0 0 0 4.14-1.51l-.05-10.65zm25.63 11.57l-.03-4.14-9.87.05-.03-4.15 8.85-.04-.03-4.15-8.84.05-.02-3.8 9.36-.05-.02-4.14-13.85.07.1 20.38 14.38-.08zm7.71.04l-.05-8.15h2.22l4.35 8.11h5.38l-5.23-8.57a5.08 5.08 0 0 0 3.28-1.93 6 6 0 0 0 1.1-3.68 6.48 6.48 0 0 0-.63-3 5.13 5.13 0 0 0-1.68-1.89 7.22 7.22 0 0 0-2.46-1 14 14 0 0 0-3-.29h-7.89l.13 20.42zm2.85-16.6a10.73 10.73 0 0 1 1.24.08 3.68 3.68 0 0 1 1.12.33 2 2 0 0 1 .81.7 2.22 2.22 0 0 1 .33 1.24 1.93 1.93 0 0 1-1.26 2 3.89 3.89 0 0 1-1.22.27c-.45 0-.88.05-1.28.05h-2.65v-4.63z"/><path d="M43.09 52.92a5.24 5.24 0 0 1-2.26 3.64c1.1 1.37 2.07 2.51 2.68 3.11a.87.87 0 0 0 .6.33c.93 0 1.28-2.72 1.09-5.85a5.27 5.27 0 0 1-2.11-1.23zM57.38 61a2.39 2.39 0 0 0 .7-.12c6.48-2 8.08-4.79 8.39-6.55a5.23 5.23 0 0 1-8-.9 5.18 5.18 0 0 1-3 .91h-.16c-.18 3.02-.06 6.66 2.07 6.66z" class="cls-2"/><path d="M98 50.18c-.52-13.09-5.53-24.92-14.12-33.29A46.59 46.59 0 0 0 51.1 4a47.1 47.1 0 0 0-24.56 87.29h.06a14.25 14.25 0 0 0 3.4 1.36 8.84 8.84 0 0 0 6.09-.44 7.42 7.42 0 0 0 3.52-3.93 13.16 13.16 0 0 0 .87-3.37c1.76-7.83 2.12-17.06 1.33-20.43-.46-2-2-4.49-3.79-7h-.13a4.19 4.19 0 0 1 0 .5 5.25 5.25 0 0 1-9.28 3.37 5.25 5.25 0 1 1-4.51-8.59 5.23 5.23 0 0 1 1.66-5.56 5.25 5.25 0 0 1 4.08-8.55h.28a5.24 5.24 0 0 1 4.54-6.91 5.31 5.31 0 0 1-.39-2 5.25 5.25 0 0 1 8.15-4.38 5.23 5.23 0 0 1 8.14-1.58 5.25 5.25 0 0 1 10.15.71h.08a5.25 5.25 0 0 1 5.25 5.25 5.32 5.32 0 0 1-.14 1.2A5.28 5.28 0 0 1 68.64 33a5.24 5.24 0 0 1 6.9 5 5.17 5.17 0 0 1-.39 2 5.25 5.25 0 0 1 3.47 4.94A5.8 5.8 0 0 1 78.5 46a4.56 4.56 0 0 1 .75-.06 5.25 5.25 0 0 1 0 10.5A5.18 5.18 0 0 1 76 55.32a5.23 5.23 0 0 1-7.2 1.9c-4 8-12.68 4.41-12.78 16.32 0 3.36 1.29 8.53 3 13.18.1.28.2.56.31.83A9.44 9.44 0 0 0 62.78 92a8.15 8.15 0 0 0 .75.44h.06c.18.1.36.18.54.26h.13a4.24 4.24 0 0 0 .5.18L65 93l.47.13h.23a3.55 3.55 0 0 0 .47.09h.24l.51.05h.97a11.81 11.81 0 0 0 1.11.12c.31 0 .63-.07 1-.13 6.06-1.09 13.29-6.58 18.85-14.36 6.31-8.79 9.57-18.99 9.15-28.72zM69.16 88.57c-2.91.52-4.7-.53-5.61-3.33-1.55-4.07-2.79-8.74-2.76-11.66 0-4.21.93-4.7 3.91-6.32a20.51 20.51 0 0 0 6.15-4.57h.62A10 10 0 0 0 77.09 61a9.8 9.8 0 0 0 2.16.24 10 10 0 0 0 3.66-19.33 10 10 0 0 0-2.62-4.2A10 10 0 0 0 70.66 28a10 10 0 0 0-6.51-7.68A10 10 0 0 0 49 17.89a9.69 9.69 0 0 0-1.86-.18A10 10 0 0 0 41 19.83a9.59 9.59 0 0 0-1.42-.1 10 10 0 0 0-10 8.89A10.14 10.14 0 0 0 25.29 35a10 10 0 0 0-5.45 8.91 9.77 9.77 0 0 0 .39 2.75 10.13 10.13 0 0 0-1 2.84 10 10 0 0 0 9.35 17.66 10.05 10.05 0 0 0 8.71-.32 61.31 61.31 0 0 1-.87 13.74 52.15 52.15 0 0 1-1.33 6A2.74 2.74 0 0 1 33.94 88c-1.54.78-4.14-.29-5-.74A42.34 42.34 0 0 1 51.1 8.76a41.88 41.88 0 0 1 29.5 11.53c7.71 7.52 12.22 18.21 12.68 30.08.77 19.78-15.18 36.63-24.12 38.2zm76.64-1.24l-3.64-9.19h-20.47l-3.64 9.19h-5.86l16.59-41.13h6.35l16.53 41.13zm-13.88-35.89l-8.69 22.2h17.45zm30.4 35.89L145.74 46.2h5.86l13.87 35.51 13.87-35.51h5.86l-16.52 41.13zm50.57 0l-3.64-9.19h-20.47l-3.64 9.19h-5.86l16.59-41.13h6.35l16.53 41.13zM199 51.44l-8.69 22.2h17.45zm23.2 35.89V46.2h5.12v36.56h19.11v4.57zm24.85-20.54c0-12.15 8.26-21.27 20.41-21.27s20.47 9.12 20.47 21.27-8.32 21.28-20.47 21.28-20.41-9.13-20.41-21.28zm35.58 0c0-9.62-6-16.71-15.17-16.71s-15.11 7.09-15.11 16.71 5.86 16.71 15.11 16.71 15.17-7.15 15.17-16.71zm41.13 20.54l-24-32.81v32.81h-5.12V46.2h5.24l23.68 32.12V46.2h5.12v41.13z" class="cls-2"/></svg>