<?xml version="1.0" encoding="UTF-8" standalone="no"?>
<!-- Created with Inkscape (http://www.inkscape.org/) -->

<svg
   version="1.1"
   id="svg2"
   xml:space="preserve"
   width="793.70135"
   height="1122.52"
   viewBox="0 0 793.70135 1122.52"
   sodipodi:docname="igalia_-_CMYK_-_Nov20.ai"
   xmlns:inkscape="http://www.inkscape.org/namespaces/inkscape"
   xmlns:sodipodi="http://sodipodi.sourceforge.net/DTD/sodipodi-0.dtd"
   xmlns="http://www.w3.org/2000/svg"
   xmlns:svg="http://www.w3.org/2000/svg"><defs
     id="defs6"><clipPath
       clipPathUnits="userSpaceOnUse"
       id="clipPath16"><path
         d="M 0,841.89 H 595.276 V 0 H 0 Z"
         id="path14" /></clipPath><clipPath
       clipPathUnits="userSpaceOnUse"
       id="clipPath52"><path
         d="m 124.216,413.919 h 81.81 v -40.838 h -81.81 z"
         id="path50" /></clipPath><linearGradient
       x1="0"
       y1="0"
       x2="1"
       y2="0"
       gradientUnits="userSpaceOnUse"
       gradientTransform="matrix(81.810547,0,0,-81.810547,124.21582,393.5)"
       spreadMethod="pad"
       id="linearGradient62"><stop
         style="stop-opacity:1;stop-color:#e82021"
         offset="0"
         id="stop58" /><stop
         style="stop-opacity:1;stop-color:#7a0c67"
         offset="1"
         id="stop60" /></linearGradient><clipPath
       clipPathUnits="userSpaceOnUse"
       id="clipPath84"><path
         d="m 124.216,413.907 h 81.81 v -40.845 h -81.81 z"
         id="path82" /></clipPath><linearGradient
       x1="0"
       y1="0"
       x2="1"
       y2="0"
       gradientUnits="userSpaceOnUse"
       gradientTransform="matrix(81.810547,0,0,-81.810547,124.21582,393.48535)"
       spreadMethod="pad"
       id="linearGradient94"><stop
         style="stop-opacity:1;stop-color:#e82021"
         offset="0"
         id="stop90" /><stop
         style="stop-opacity:1;stop-color:#7a0c67"
         offset="1"
         id="stop92" /></linearGradient><clipPath
       clipPathUnits="userSpaceOnUse"
       id="clipPath116"><path
         d="M 181.993,471.803 H 222.94 V 389.987 H 181.993 Z"
         id="path114" /></clipPath><linearGradient
       x1="0"
       y1="0"
       x2="1"
       y2="0"
       gradientUnits="userSpaceOnUse"
       gradientTransform="matrix(0,81.81543,81.81543,0,202.4668,389.9873)"
       spreadMethod="pad"
       id="linearGradient126"><stop
         style="stop-opacity:1;stop-color:#fbf49a"
         offset="0"
         id="stop122" /><stop
         style="stop-opacity:1;stop-color:#f5991e"
         offset="1"
         id="stop124" /></linearGradient><clipPath
       clipPathUnits="userSpaceOnUse"
       id="clipPath148"><path
         d="m 181.981,471.803 h 40.95 v -81.816 h -40.95 z"
         id="path146" /></clipPath><linearGradient
       x1="0"
       y1="0"
       x2="1"
       y2="0"
       gradientUnits="userSpaceOnUse"
       gradientTransform="matrix(0,81.81543,81.81543,0,202.45605,389.9873)"
       spreadMethod="pad"
       id="linearGradient158"><stop
         style="stop-opacity:1;stop-color:#fbf49a"
         offset="0"
         id="stop154" /><stop
         style="stop-opacity:1;stop-color:#f5991e"
         offset="1"
         id="stop156" /></linearGradient><clipPath
       clipPathUnits="userSpaceOnUse"
       id="clipPath180"><path
         d="m 124.203,488.712 h 81.808 v -40.843 h -81.808 z"
         id="path178" /></clipPath><linearGradient
       x1="0"
       y1="0"
       x2="1"
       y2="0"
       gradientUnits="userSpaceOnUse"
       gradientTransform="matrix(-81.807617,0,0,81.807617,206.01074,468.29004)"
       spreadMethod="pad"
       id="linearGradient190"><stop
         style="stop-opacity:1;stop-color:#ade8e6"
         offset="0"
         id="stop186" /><stop
         style="stop-opacity:1;stop-color:#0068b2"
         offset="1"
         id="stop188" /></linearGradient><clipPath
       clipPathUnits="userSpaceOnUse"
       id="clipPath212"><path
         d="m 124.203,488.7 h 81.808 v -41.048 h -81.808 z"
         id="path210" /></clipPath><linearGradient
       x1="0"
       y1="0"
       x2="1"
       y2="0"
       gradientUnits="userSpaceOnUse"
       gradientTransform="matrix(-81.807617,0,0,81.807617,206.01074,468.17676)"
       spreadMethod="pad"
       id="linearGradient222"><stop
         style="stop-opacity:1;stop-color:#ade8e6"
         offset="0"
         id="stop218" /><stop
         style="stop-opacity:1;stop-color:#0068b2"
         offset="1"
         id="stop220" /></linearGradient><clipPath
       clipPathUnits="userSpaceOnUse"
       id="clipPath244"><path
         d="m 107.409,471.787 h 40.844 v -81.812 h -40.844 z"
         id="path242" /></clipPath><linearGradient
       x1="0"
       y1="0"
       x2="1"
       y2="0"
       gradientUnits="userSpaceOnUse"
       gradientTransform="matrix(0,-81.8125,-81.8125,0,127.83105,471.78711)"
       spreadMethod="pad"
       id="linearGradient254"><stop
         style="stop-opacity:1;stop-color:#f6ea15"
         offset="0"
         id="stop250" /><stop
         style="stop-opacity:1;stop-color:#a3c33c"
         offset="1"
         id="stop252" /></linearGradient><clipPath
       clipPathUnits="userSpaceOnUse"
       id="clipPath276"><path
         d="m 107.396,471.787 h 40.857 v -81.812 h -40.857 z"
         id="path274" /></clipPath><linearGradient
       x1="0"
       y1="0"
       x2="1"
       y2="0"
       gradientUnits="userSpaceOnUse"
       gradientTransform="matrix(0,-81.8125,-81.8125,0,127.82422,471.78711)"
       spreadMethod="pad"
       id="linearGradient286"><stop
         style="stop-opacity:1;stop-color:#f6ea15"
         offset="0"
         id="stop282" /><stop
         style="stop-opacity:1;stop-color:#a3c33c"
         offset="1"
         id="stop284" /></linearGradient></defs><sodipodi:namedview
     id="namedview4"
     pagecolor="#ffffff"
     bordercolor="#666666"
     borderopacity="1.0"
     inkscape:pageshadow="2"
     inkscape:pageopacity="0.0"
     inkscape:pagecheckerboard="0" /><g
     id="g8"
     inkscape:groupmode="layer"
     inkscape:label="igalia_-_CMYK_-_Nov20"
     transform="matrix(1.3333333,0,0,-1.3333333,0,1122.52)"><g
       id="g10"><g
         id="g12"
         clip-path="url(#clipPath16)"><path
           d="m 262.871,412.852 c 0,-6.675 3.22,-10.186 3.22,-10.186 0,0 -4.274,-3.37 -7.566,-3.37 -4.327,0 -6.168,7.773 -6.168,10.987 v 33.584 h 10.514 z m 0.851,43.816 c 0,-5.003 -1.444,-5.85 -6.018,-5.85 -4.667,0 -6.106,0.847 -6.106,5.85 0,4.493 1.439,5.17 6.106,5.17 4.574,0 6.018,-0.677 6.018,-5.17"
           style="fill:#414141;fill-opacity:1;fill-rule:nonzero;stroke:none"
           id="path18" /><path
           d="m 388.279,412.852 c 0,-6.675 3.216,-10.186 3.216,-10.186 0,0 -4.271,-3.37 -7.561,-3.37 -4.326,0 -6.169,7.773 -6.169,10.987 v 33.584 h 10.514 z m 0.851,43.816 c 0,-5.003 -1.443,-5.85 -6.022,-5.85 -4.665,0 -6.104,0.847 -6.104,5.85 0,4.493 1.439,5.17 6.104,5.17 4.579,0 6.022,-0.677 6.022,-5.17"
           style="fill:#414141;fill-opacity:1;fill-rule:nonzero;stroke:none"
           id="path20" /><path
           d="m 297.884,433.058 c 0,0 0.229,2.146 -2.571,2.757 -1.908,0.417 -3.958,0.675 -5.738,0.675 -7.457,0 -9.916,-1.948 -9.916,-14.241 0,-10.767 2.286,-13.482 9.661,-13.482 4.663,0 8.564,1.445 8.564,4.07 z m -10.935,-33.364 c -11.87,0 -18.144,4.919 -18.144,22.471 0,17.632 6.529,22.973 20.77,22.973 4.582,0 10.147,-0.664 14.607,-1.849 4.589,-1.221 4.215,-5.021 4.215,-5.021 v -34.245 c 0,-16.869 -9.408,-20.606 -23.057,-20.606 -3.314,0 -7.373,0.449 -10.785,1.272 -4.454,1.078 -2.848,7.457 -2.848,7.457 l 0.574,2.293 c 3.985,-1.271 8.901,-2.118 12.971,-2.118 7.973,0 12.632,2.208 12.632,10.173 -2.371,-1.437 -6.019,-2.8 -10.935,-2.8"
           style="fill:#414141;fill-opacity:1;fill-rule:nonzero;stroke:none"
           id="path22" /><path
           d="m 369.692,455.447 v -42.61 c 0,-4.152 0.934,-7.037 3.306,-10.174 0,0 -8.102,-6.646 -11.206,-1.285 -1.675,2.886 -2.615,6.332 -2.615,11.036 v 49.511 h 4.34 c 6.647,0 6.175,-6.478 6.175,-6.478"
           style="fill:#414141;fill-opacity:1;fill-rule:nonzero;stroke:none"
           id="path24" /><path
           d="m 421.575,411.086 v 8.704 c -2.374,0.51 -5.427,0.763 -8.56,0.763 -5.936,0 -8.059,-0.68 -8.059,-6.189 0,-5.848 1.611,-6.784 7.973,-6.784 2.207,0 4.465,0.313 6.476,0.807 2.23,0.529 2.17,2.699 2.17,2.699 m 10.089,-4.468 c 0,0 0,-3.813 -4.399,-5.097 -4.819,-1.405 -10.559,-1.992 -15.101,-1.992 -13.645,0 -18.228,3.134 -18.228,14.41 0,12.21 6.869,14.16 16.957,14.16 3.647,0 7.038,-0.42 10.682,-1.185 0,7.541 -1.78,9.408 -10.768,9.408 -2.513,0 -5.029,-0.22 -7.359,-0.65 -6.096,-1.112 -6.766,3.272 -6.766,3.272 l -0.881,3.906 c 2.345,0.617 5.233,1.213 8.34,1.643 2.859,0.394 5.905,0.645 8.874,0.645 12.799,0 18.649,-3.899 18.649,-16.786 z"
           style="fill:#414141;fill-opacity:1;fill-rule:nonzero;stroke:none"
           id="path26" /><path
           d="m 341.884,411.086 v 8.704 c -2.374,0.51 -5.426,0.763 -8.561,0.763 -5.935,0 -8.055,-0.68 -8.055,-6.189 0,-5.848 1.61,-6.784 7.968,-6.784 2.21,0 4.468,0.313 6.478,0.807 2.231,0.529 2.17,2.699 2.17,2.699 m 10.089,-4.468 c 0,0 0.002,-3.813 -4.4,-5.097 -4.815,-1.405 -10.554,-1.992 -15.1,-1.992 -13.648,0 -18.225,3.134 -18.225,14.41 0,12.21 6.863,14.16 16.953,14.16 3.648,0 7.039,-0.42 10.683,-1.185 0,7.541 -1.779,9.408 -10.767,9.408 -2.511,0 -5.025,-0.22 -7.36,-0.65 -6.097,-1.112 -6.763,3.272 -6.763,3.272 l -0.883,3.906 c 2.338,0.617 5.23,1.213 8.34,1.643 2.858,0.394 5.903,0.645 8.872,0.645 12.8,0 18.65,-3.899 18.65,-16.786 z"
           style="fill:#414141;fill-opacity:1;fill-rule:nonzero;stroke:none"
           id="path28" /><path
           d="m 124.216,389.975 c 13.538,-13.534 44.465,10.634 57.777,23.944 6.376,-6.379 17.089,-16.983 24.033,-23.932 -9.016,-9.009 -23.372,-16.906 -41.227,-16.906 -17.858,0 -31.93,8.241 -40.583,16.894"
           style="fill:#ffffff;fill-opacity:1;fill-rule:nonzero;stroke:none"
           id="path30" /><path
           d="m 206.026,389.987 c -13.534,-13.538 -44.464,10.606 -57.774,23.92 -6.38,-6.379 -17.089,-16.986 -24.036,-23.932 9.017,-9.015 23.374,-16.912 41.232,-16.912 17.852,0 31.928,8.27 40.578,16.924"
           style="fill:#ffffff;fill-opacity:1;fill-rule:nonzero;stroke:none"
           id="path32" /><path
           d="m 206.011,471.803 c 13.539,-13.538 -10.707,-44.574 -24.018,-57.884 6.383,-6.384 17.089,-16.983 24.033,-23.932 9.016,9.022 16.914,23.376 16.914,41.23 0,17.855 -8.273,31.929 -16.929,40.586"
           style="fill:#ffffff;fill-opacity:1;fill-rule:nonzero;stroke:none"
           id="path34" /><path
           d="m 206.026,389.987 c 13.54,13.537 -10.735,44.573 -24.045,57.882 6.376,6.379 17.086,16.986 24.03,23.934 9.021,-9.02 16.92,-23.376 16.92,-41.232 0,-17.854 -8.248,-31.925 -16.905,-40.584"
           style="fill:#ffffff;fill-opacity:1;fill-rule:nonzero;stroke:none"
           id="path36" /><path
           d="m 124.203,471.787 c 13.539,13.535 44.469,-10.605 57.778,-23.918 6.375,6.38 17.086,16.986 24.03,23.934 -9.012,9.013 -23.371,16.909 -41.228,16.909 -17.857,0 -31.925,-8.272 -40.58,-16.925"
           style="fill:#ffffff;fill-opacity:1;fill-rule:nonzero;stroke:none"
           id="path38" /><path
           d="m 206.011,471.803 c -13.538,13.539 -44.451,-10.84 -57.759,-24.151 -6.377,6.377 -17.104,17.192 -24.049,24.135 9.012,9.016 23.37,16.913 41.229,16.913 17.855,0 31.924,-8.241 40.579,-16.897"
           style="fill:#ffffff;fill-opacity:1;fill-rule:nonzero;stroke:none"
           id="path40" /><path
           d="m 124.203,471.787 c -13.538,-13.535 10.739,-44.568 24.049,-57.88 -6.38,-6.379 -17.09,-16.986 -24.036,-23.932 -9.014,9.014 -16.808,23.271 -16.808,41.126 0,17.855 8.138,32.034 16.795,40.686"
           style="fill:#ffffff;fill-opacity:1;fill-rule:nonzero;stroke:none"
           id="path42" /><path
           d="m 124.216,389.975 c -13.54,13.538 10.723,44.371 24.036,57.677 -6.38,6.383 -17.104,17.19 -24.049,24.135 -9.015,-9.016 -16.807,-23.479 -16.807,-41.335 0,-17.85 8.167,-31.824 16.82,-40.477"
           style="fill:#ffffff;fill-opacity:1;fill-rule:nonzero;stroke:none"
           id="path44" /><g
           id="g46"><g
             id="g48" /><g
             id="g76"><g
               clip-path="url(#clipPath52)"
               id="g74"><g
                 id="g72"><g
                   id="g70"><g
                     id="g68"><g
                       id="g66"><path
                         d="m 124.216,389.975 c 13.538,-13.534 44.465,10.634 57.777,23.944 6.376,-6.379 17.089,-16.983 24.033,-23.932 -9.016,-9.009 -23.372,-16.906 -41.227,-16.906 -17.858,0 -31.93,8.241 -40.583,16.894"
                         style="fill:url(#linearGradient62);stroke:none"
                         id="path64" /></g></g></g></g></g></g></g><g
           id="g78"><g
             id="g80" /><g
             id="g108"><g
               clip-path="url(#clipPath84)"
               id="g106"><g
                 id="g104"><g
                   id="g102"><g
                     id="g100"><g
                       id="g98"><path
                         d="m 206.026,389.987 c -13.534,-13.538 -44.464,10.606 -57.773,23.92 -6.381,-6.379 -17.09,-16.986 -24.037,-23.932 9.017,-9.015 23.375,-16.912 41.232,-16.912 17.852,0 31.928,8.27 40.578,16.924"
                         style="fill:url(#linearGradient94);stroke:none"
                         id="path96" /></g></g></g></g></g></g></g><g
           id="g110"><g
             id="g112" /><g
             id="g140"><g
               clip-path="url(#clipPath116)"
               id="g138"><g
                 id="g136"><g
                   id="g134"><g
                     id="g132"><g
                       id="g130"><path
                         d="m 206.011,471.803 c 13.539,-13.538 -10.707,-44.574 -24.018,-57.884 6.383,-6.384 17.089,-16.983 24.033,-23.932 9.016,9.022 16.914,23.376 16.914,41.23 0,17.855 -8.273,31.929 -16.929,40.586"
                         style="fill:url(#linearGradient126);stroke:none"
                         id="path128" /></g></g></g></g></g></g></g><g
           id="g142"><g
             id="g144" /><g
             id="g172"><g
               clip-path="url(#clipPath148)"
               id="g170"><g
                 id="g168"><g
                   id="g166"><g
                     id="g164"><g
                       id="g162"><path
                         d="m 206.026,389.987 c 13.54,13.537 -10.735,44.573 -24.045,57.882 6.376,6.379 17.086,16.986 24.03,23.934 9.021,-9.02 16.92,-23.376 16.92,-41.232 0,-17.854 -8.248,-31.925 -16.905,-40.584"
                         style="fill:url(#linearGradient158);stroke:none"
                         id="path160" /></g></g></g></g></g></g></g><g
           id="g174"><g
             id="g176" /><g
             id="g204"><g
               clip-path="url(#clipPath180)"
               id="g202"><g
                 id="g200"><g
                   id="g198"><g
                     id="g196"><g
                       id="g194"><path
                         d="m 124.203,471.787 c 13.539,13.535 44.469,-10.605 57.778,-23.918 6.375,6.38 17.086,16.986 24.03,23.934 -9.012,9.013 -23.371,16.909 -41.228,16.909 -17.856,0 -31.924,-8.272 -40.58,-16.925"
                         style="fill:url(#linearGradient190);stroke:none"
                         id="path192" /></g></g></g></g></g></g></g><g
           id="g206"><g
             id="g208" /><g
             id="g236"><g
               clip-path="url(#clipPath212)"
               id="g234"><g
                 id="g232"><g
                   id="g230"><g
                     id="g228"><g
                       id="g226"><path
                         d="m 206.011,471.803 c -13.538,13.539 -44.45,-10.84 -57.758,-24.151 -6.378,6.377 -17.105,17.192 -24.05,24.135 9.013,9.016 23.371,16.913 41.229,16.913 17.855,0 31.924,-8.241 40.579,-16.897"
                         style="fill:url(#linearGradient222);stroke:none"
                         id="path224" /></g></g></g></g></g></g></g><g
           id="g238"><g
             id="g240" /><g
             id="g268"><g
               clip-path="url(#clipPath244)"
               id="g266"><g
                 id="g264"><g
                   id="g262"><g
                     id="g260"><g
                       id="g258"><path
                         d="m 124.203,471.787 c -13.537,-13.535 10.74,-44.568 24.05,-57.88 -6.381,-6.379 -17.09,-16.986 -24.037,-23.932 -9.013,9.014 -16.807,23.271 -16.807,41.126 0,17.855 8.138,32.034 16.794,40.686"
                         style="fill:url(#linearGradient254);stroke:none"
                         id="path256" /></g></g></g></g></g></g></g><g
           id="g270"><g
             id="g272" /><g
             id="g300"><g
               clip-path="url(#clipPath276)"
               id="g298"><g
                 id="g296"><g
                   id="g294"><g
                     id="g292"><g
                       id="g290"><path
                         d="m 124.216,389.975 c -13.538,13.538 10.723,44.371 24.037,57.677 -6.38,6.383 -17.104,17.19 -24.05,24.135 -9.015,-9.016 -16.807,-23.479 -16.807,-41.335 0,-17.85 8.167,-31.824 16.82,-40.477"
                         style="fill:url(#linearGradient286);stroke:none"
                         id="path288" /></g></g></g></g></g></g></g></g></g></g></svg>
