<?xml version="1.0" encoding="UTF-8" standalone="no"?>
<svg
   xmlns:dc="http://purl.org/dc/elements/1.1/"
   xmlns:cc="http://creativecommons.org/ns#"
   xmlns:rdf="http://www.w3.org/1999/02/22-rdf-syntax-ns#"
   xmlns:svg="http://www.w3.org/2000/svg"
   xmlns="http://www.w3.org/2000/svg"
   viewBox="0 0 416.82666 439.81332"
   height="439.81332"
   width="416.82666"
   xml:space="preserve"
   id="svg2"
   version="1.1"><metadata
     id="metadata8"><rdf:RDF><cc:Work
         rdf:about=""><dc:format>image/svg+xml</dc:format><dc:type
           rdf:resource="http://purl.org/dc/dcmitype/StillImage" /></cc:Work></rdf:RDF></metadata><defs
     id="defs6" /><g
     transform="matrix(1.3333333,0,0,-1.3333333,0,439.81333)"
     id="g10"><g
       transform="scale(0.1)"
       id="g12"><path
         id="path14"
         style="fill:#ea212d;fill-opacity:1;fill-rule:evenodd;stroke:none"
         d="m 2088.77,2148.12 1037.4,182.93 -170.63,967.55 -1037.38,-182.94 170.61,-967.54 z M 651.758,1858.43 c 90.512,0 164.332,-75.03 164.332,-166.97 0,-92.02 -73.82,-166.98 -164.332,-166.98 -90.524,0 -164.324,74.96 -164.324,166.98 0,91.94 73.8,166.97 164.324,166.97 z M 721.633,779.391 c 60.387,428.939 172.097,837.579 326.597,1194.889 23.06,53.32 42.2,103.89 52.78,135.89 14.66,44.44 49.82,4.09 57.93,-5.06 40.04,-45.07 54.8,-59.05 29.6,-95.78 -33.89,-49.38 -84.16,-163.1 -111.87,-232.42 -128.518,-321.57 -172.022,-502.58 -251.045,-862.332 77.406,145.792 258.815,406.772 369.795,491.862 64.46,49.38 211.87,122.97 264.38,-33.24 35.49,-105.57 -1.19,-422.009 -37.24,-602.122 -1.95,-9.758 -2.05,-27.156 -26.1,-38.476 -9.23,-4.403 -46.07,-19.082 -62.38,-23.602 -8.48,-2.352 -25.84,-1.031 -21.02,23.359 36.46,184.629 82.72,406.411 67.72,591.711 -4.74,58.41 -27.95,113.93 -140.84,7.94 -168.7,-158.37 -347.385,-431.94 -422.854,-590.74 -10.887,-22.879 -26.734,-43.532 -45.582,-61.18 -12.984,-12.11 -42.715,-13.012 -48.914,24.512 -4.801,29.148 -2.156,66.308 -0.957,74.789 z M 1795.78,926.93 c 67.35,11.859 145.9,34.992 222.64,62.98 95.97,34.93 280.02,119.96 353.04,207.94 48.95,59.02 40.22,133.02 -32.81,170.41 -136.13,69.67 -332.5,64.02 -470.9,42.15 -26.03,-4.15 -49.94,-9.32 -71.73,-15.23 12.07,-122.06 10,-250.09 4.8,-364.2 -1.62,-35.582 -3.28,-70.152 -5.04,-104.05 z M 0,2825.62 H 2825.68 V 1129.8 C 2596.43,986.781 2187.87,839.609 1783.02,721.699 c 2.61,34.813 4.97,69.801 7.15,105.321 30.35,7.539 64.17,16.441 82.95,21.921 200.87,58.36 410.55,139.348 552.27,294.039 44.41,48.54 68.8,109.31 57.13,167.42 -30.99,154.22 -269.77,205.1 -427.09,205.77 -93.17,0.41 -184.12,-3.27 -273.14,-20.43 -5.26,29.58 -11.61,58.42 -19.24,86.18 -3.5,12.77 -13.83,13.37 -26.62,7.29 -24.46,-11.63 -44.22,-47.58 -56.84,-69.44 -3.4,-5.83 -1.1,-11.92 2.52,-17.76 3.03,-4.82 7.28,-13.84 11.96,-28.12 -18.58,-5.72 -37.08,-12.22 -55.5,-19.58 -22.81,-9.03 -24.6,-13.67 -28.92,-24.68 -12.17,-31.14 -17.52,-92.08 -12.46,-107.86 2.67,-8.37 19.7,-12.64 27.07,-6.68 6.97,5.73 37.13,29.08 91.31,52.33 0.46,-3.85 0.91,-7.89 1.36,-11.98 11.2,-101.53 12.02,-210.77 6.47,-373.299 -0.72,-21.192 -1.64,-42.45 -2.74,-63.653 -12.28,-0.359 -23.78,-0.109 -34.35,0.922 -35.97,3.418 -66.88,11.309 -78.44,-16.871 -7.19,-17.527 -53.97,-79.668 -24.18,-94.059 25.49,-12.281 72.09,-8.609 129.77,1.801 -3.01,-37.222 -6.58,-74.429 -10.69,-111.519 -6.89,-2 -13.79,-3.91 -20.7,-5.84 -257.23,-72.031 -561,-137.66 -814.574,-160.07 -146.152,-12.942 -238.558,14.089 -331.777,82.687 -72.668,53.473 -84.606,171.859 -89.27,216.242 -11.058,105.149 2.477,203.119 42.317,347.449 13.562,49.21 30.359,90.76 40.238,107.81 9.469,16.31 14.531,33.53 3.668,44.55 -15.961,16.15 -42.711,47.22 -63.734,65.81 -12.633,11.21 -38.336,8.14 -46.356,-9.21 -7.266,-15.65 -13.102,-46.72 -20.477,-75.68 -24.808,-97.38 -56.531,-272.62 -50.703,-400.158 5.7,-124.532 18.164,-255.024 112.192,-348.543 C 574.434,453.48 697.691,431.82 939.586,459.57 c 247.114,28.36 488.404,89.481 754.474,166.27 -20.66,-160.238 -50.93,-318.789 -88.85,-472.91 -3.03,-12.34 -2.75,-29.852 13.79,-28.52 19.78,1.481 62.88,24.129 84.92,36.41 7.53,4.239 11.12,12.18 12.25,18.739 29.81,174.031 48.24,322.519 61.06,470.492 20.93,6.199 42.03,12.39 63.29,18.719 310.78,92.128 615.94,200.64 896.65,324.152 26.51,11.678 57.19,25.838 88.51,41.308 L 2825.68,0 H 0 v 2825.62 0" /></g></g></svg>