<?xml version="1.0" encoding="UTF-8"?> <!-- Generator: Adobe Illustrator 24.0.2, SVG Export Plug-In . SVG Version: 6.00 Build 0) --> <svg xmlns="http://www.w3.org/2000/svg" xmlns:xlink="http://www.w3.org/1999/xlink" id="Layer_1" x="0px" y="0px" viewBox="0 0 400 245" style="enable-background:new 0 0 400 245;" xml:space="preserve"> <g> <polygon points="114.6,115.2 114.6,146.5 121.6,146.5 121.6,108.2 "></polygon> <path d="M157.4,116.8c-2,0-6.3,0.2-9.3,4.5c-2.7-4.2-6.7-4.5-8.3-4.5c-5,0-7,2.5-7.5,3.4h-0.1v-2.4h-6.3v28.8h6.9v-14.3 c0-3.1,0-9.1,5.5-9.1c4.3,0,5.8,3.5,5.8,7.5v16h6.9v-14.3c0-1.8-0.1-4.7,1.1-6.4c1-1.6,2.8-2.7,4.8-2.7c5.4,0,5.4,5.8,5.4,7.5v16 h6.9v-16.8c0-4.3-1-7-2.2-8.5C165.8,119.8,163,116.8,157.4,116.8"></path> <path d="M187.4,141.2c-4.9,0-8.5-4-8.5-8.9c0-4.3,2.9-9.2,8.5-9.2c4.1,0,8.4,3,8.4,9C195.8,137.4,192.2,141.2,187.4,141.2 M196,121.4L196,121.4c-0.3-0.4-3.8-4.6-9.6-4.6c-8,0-14.4,6.4-14.4,15.2c0,9.6,6.6,15.5,14,15.5c3.6,0,7.9-1.9,10-4.5v3.6h6.3 v-28.8H196V121.4z"></path> <path d="M220.9,141.2c-4.2,0-8.6-3.4-8.6-9.2c0-5.4,4.2-8.8,8.4-8.8c5.1,0,8.4,4.7,8.4,8.8C229.1,137.6,225,141.2,220.9,141.2 M229.3,121.3h-0.1c-0.8-1.2-3.3-4.5-9.2-4.5c-7.3,0-14.7,6.1-14.7,15.1c0,9.6,7.7,15.6,14.7,15.6c5.9,0,8.5-3.3,9.4-4.6l0.1,0.1 c-0.4,6.3-4.9,9-8.8,9c-1.1,0-4.4,0-7.1-3.2h-7.9c2.5,6.4,8.5,9.5,14.5,9.5c5.4,0,15.7-3.2,15.7-17v-23.5h-6.7V121.3z"></path> <path d="M265.6,116.8c-4.3,0-6.7,2.4-7.9,3.5v-2.5h-6.4v28.8h6.9v-13.7c0-2.4,0-5.4,1.2-7.2c1.2-1.9,3.5-2.5,4.7-2.5 c5.8,0,5.8,6.8,5.8,9.2v14.2h6.9V131c0-2.2,0-7-2.7-10.2C271.9,117.9,268.1,116.8,265.6,116.8"></path> <path d="M295.4,141.1c-4.9,0-8.5-4-8.5-8.9c0-4.3,2.9-9.2,8.5-9.2c4.1,0,8.4,3,8.4,9C303.9,137.4,300.2,141.1,295.4,141.1 M304.1,121.4H304c-0.2-0.4-3.7-4.6-9.5-4.6c-8,0-14.4,6.4-14.4,15.2c0,9.6,6.6,15.5,14,15.5c3.6,0,7.9-1.9,10.1-4.5v3.6h6.3v-28.8 h-6.3V121.4z"></path> <polygon points="324.1,108.2 317.2,108.2 317.2,117.8 313.9,117.8 313.9,123.9 317.2,123.9 317.2,146.5 324.1,146.5 324.1,123.9 328.3,123.9 328.3,117.8 324.1,117.8 "></polygon> <path d="M356.4,141.1c-4.4,0-8.4-3.5-8.4-9c0-6,4.9-9.1,8.4-9.1c4.3,0,8.4,3.9,8.4,9.1C364.8,136.8,361.5,141.1,356.4,141.1 M356.4,116.8c-8.2,0-15.3,6.7-15.3,15.4c0,8.2,6.8,15.3,15.3,15.3c8,0,15.3-6,15.3-15.4C371.7,123.3,364.6,116.8,356.4,116.8"></path> <path d="M388.7,116.8c-4.3,0-6.7,2.4-7.9,3.5v-2.5h-6.4v28.8h6.9v-13.7c0-2.4,0-5.4,1.2-7.2c1.2-1.9,3.5-2.5,4.7-2.5 c5.8,0,5.8,6.8,5.8,9.2v14.2h6.9V131c0-2.2,0-7-2.7-10.2C395,117.9,391.2,116.8,388.7,116.8"></path> <rect x="240.2" y="117.8" width="7" height="28.8"></rect> <rect x="331.4" y="117.8" width="7" height="28.8"></rect> <g> <path d="M55.8,101.4c1,2.1,1.7,4.4,2.2,6.7h35.8v38.5H55.3v-32.1c0,0,0-0.1,0-0.1c0,0,0-0.1,0-0.1v-0.7c-0.1-4.4-1.3-8.6-3.2-12.2 h0c-4.7-8.7-13.8-14.6-24.4-14.6C12.4,86.7,0,99.1,0,114.4C0,129.6,12.4,142,27.6,142c6.7,0,12.8-2.4,17.6-6.3l0-10 c-3.7,5.8-10.2,9.6-17.6,9.6c-11.5,0-20.9-9.4-20.9-20.9c0-11.5,9.4-20.9,20.9-20.9c11.5,0,20.9,9.3,20.9,20.8v39.1h52v-52H55.8z"></path> </g> </g> </svg> 