<?xml version="1.0" standalone="no"?>
<!DOCTYPE svg PUBLIC "-//W3C//DTD SVG 20010904//EN"
 "http://www.w3.org/TR/2001/REC-SVG-20010904/DTD/svg10.dtd">
<svg version="1.0" xmlns="http://www.w3.org/2000/svg"
 width="1800.000000pt" height="590.000000pt" viewBox="0 0 1800.000000 590.000000"
 preserveAspectRatio="xMidYMid meet">

<g transform="translate(0.000000,590.000000) scale(0.100000,-0.100000)"
fill="#000000" stroke="none">
<path d="M2675 5894 c-252 -58 -562 -149 -587 -173 -6 -5 85 -347 96 -358 2
-2 64 16 136 41 198 69 365 109 422 102 64 -9 304 -77 406 -116 47 -18 87 -29
92 -24 13 14 102 343 95 354 -9 15 -328 115 -455 143 -137 31 -178 37 -205 31z"/>
<path d="M1775 5582 c-229 -119 -387 -221 -578 -375 -55 -45 -86 -76 -82 -85
6 -17 228 -270 237 -271 4 -1 47 31 95 70 129 104 336 239 476 310 67 34 123
63 125 64 1 1 -15 64 -37 141 -22 76 -44 158 -50 182 -7 23 -17 42 -24 42 -7
0 -79 -36 -162 -78z"/>
<path d="M3427 5488 c-26 -95 -47 -178 -47 -183 0 -6 30 -26 68 -44 163 -80
350 -200 516 -329 l109 -86 31 36 c17 20 72 83 123 141 l92 104 -32 31 c-60
57 -295 227 -416 301 -123 74 -366 201 -386 201 -5 0 -32 -78 -58 -172z"/>
<path d="M2694 5325 c-10 -23 -18 -67 -18 -106 l-1 -65 -28 39 c-54 74 -195
111 -282 73 l-30 -13 43 -7 c59 -11 167 -67 222 -115 l45 -40 -75 31 c-65 28
-87 32 -165 33 -98 0 -145 -17 -195 -69 l-24 -27 44 8 c71 13 289 6 350 -10
l55 -15 -66 -1 c-83 -1 -164 -39 -193 -90 -20 -34 -20 -35 0 -26 62 26 129 45
181 50 56 6 57 6 27 -8 -37 -18 -69 -60 -79 -104 -7 -36 4 -43 22 -15 15 25
102 82 125 82 17 0 18 -15 18 -253 l0 -254 38 -26 37 -27 3 280 c3 309 0 297
65 264 18 -9 49 -33 71 -53 l39 -36 -6 39 c-6 40 -45 90 -82 107 -42 19 101
-4 162 -26 35 -12 63 -19 63 -15 0 16 -53 71 -83 87 -17 9 -65 19 -107 22
l-75 7 55 12 c82 19 246 26 314 13 33 -6 62 -9 64 -6 9 9 -32 47 -73 67 -76
40 -199 34 -315 -13 l-45 -19 40 36 c49 44 138 90 207 108 l51 13 -33 11 c-50
18 -149 14 -196 -7 -22 -10 -56 -37 -76 -60 l-35 -41 -5 72 c-3 40 -12 87 -21
103 l-16 30 -17 -40z"/>
<path d="M3337 5128 c13 -37 8 -93 -10 -122 -10 -14 -48 -41 -85 -60 -137 -69
-244 -169 -335 -313 -22 -35 -41 -63 -43 -63 -2 0 -19 14 -39 31 l-35 31 0
-83 c0 -56 4 -88 14 -98 12 -14 11 -27 -2 -93 l-15 -77 -46 39 c-158 133 -353
189 -557 160 -49 -7 -152 -30 -229 -51 -244 -66 -312 -71 -394 -29 -59 30 -67
44 -48 86 33 69 14 211 -34 251 -20 16 -70 -24 -107 -85 -36 -62 -38 -165 -4
-229 31 -58 87 -111 152 -142 48 -23 68 -26 156 -26 l101 0 -34 -45 c-48 -63
-86 -148 -122 -277 -58 -205 -106 -299 -196 -382 -73 -67 -144 -95 -240 -95
-126 0 -217 49 -269 144 -114 210 80 545 283 490 77 -20 141 -96 141 -165 0
-34 -1 -35 -27 -28 -58 16 -156 8 -213 -18 l-54 -25 36 -29 36 -29 -56 -40
-56 -40 30 -13 c16 -6 43 -12 61 -13 41 0 48 -12 28 -49 -8 -17 -15 -33 -15
-37 0 -15 146 3 185 23 58 30 114 90 144 153 34 74 35 183 2 251 -33 70 -85
125 -145 154 l-54 27 15 36 c22 52 12 131 -24 190 l-28 47 -6 -66 c-9 -112
-45 -157 -192 -239 -77 -43 -147 -116 -190 -198 -76 -147 -80 -289 -12 -444 6
-15 2 -18 -26 -18 -77 0 -169 -67 -199 -144 -14 -38 -9 -41 31 -17 19 11 63
28 99 37 86 22 172 14 280 -26 203 -76 392 -39 535 104 34 34 73 85 86 114 13
28 27 51 30 52 3 0 16 -23 29 -50 50 -107 167 -200 302 -241 97 -30 231 -24
309 13 69 32 127 88 160 154 20 41 24 64 24 144 0 107 -17 156 -79 223 l-34
37 26 14 c51 27 107 95 132 162 l11 27 -43 -7 c-24 -4 -63 -18 -87 -32 -24
-13 -45 -24 -46 -24 -2 0 -5 28 -7 63 -3 34 -11 76 -17 92 l-13 30 -29 -34
c-16 -19 -36 -57 -45 -83 l-16 -49 -41 44 c-23 25 -57 52 -76 62 l-34 17 5
-59 c3 -33 13 -74 23 -92 9 -18 15 -35 13 -37 -2 -2 -21 1 -42 7 -38 11 -132
4 -141 -10 -7 -12 65 -76 109 -98 l38 -20 -29 -12 c-17 -7 -50 -32 -74 -57
-37 -37 -41 -46 -29 -55 16 -11 133 -6 164 6 17 8 17 6 2 -23 -21 -41 -32
-137 -17 -147 7 -3 24 1 38 11 59 38 105 107 118 177 4 20 10 37 14 37 15 0
60 -56 75 -92 50 -118 -23 -252 -152 -279 -112 -23 -264 30 -342 119 -81 92
-112 201 -92 329 44 281 310 483 586 444 108 -15 209 -63 286 -137 78 -74 116
-135 137 -218 14 -58 15 -79 5 -142 -16 -100 -47 -162 -132 -263 -39 -46 -79
-100 -89 -120 -31 -61 -52 -145 -52 -215 l-1 -66 -1049 0 c-738 0 -1049 3
-1049 11 0 21 52 217 86 322 40 121 99 267 150 368 19 38 34 72 34 77 0 5 -77
42 -172 81 -133 56 -173 69 -179 59 -23 -36 -122 -268 -164 -383 -26 -71 -68
-209 -94 -305 l-46 -175 -3 -1187 -2 -1188 2710 0 2710 0 -2 1198 -3 1197 -38
143 c-82 307 -246 722 -280 709 -34 -13 -332 -140 -335 -142 -1 -1 22 -53 52
-116 87 -181 162 -398 210 -607 l14 -62 -1056 2 -1056 3 -30 58 c-25 48 -29
69 -29 130 0 60 5 85 35 152 49 113 63 175 62 290 -1 73 -7 123 -24 185 -36
127 -34 295 4 405 39 115 98 209 186 296 158 157 337 196 518 114 203 -92 300
-374 179 -520 -56 -69 -154 -93 -235 -59 -36 15 -102 70 -102 86 0 4 19 8 43
8 65 0 139 26 182 63 l39 34 -39 14 c-22 7 -65 13 -95 13 l-56 1 27 50 c15 27
30 67 33 88 7 37 6 38 -16 32 -43 -14 -83 -37 -115 -68 l-33 -31 0 35 c0 43
-45 142 -62 137 -16 -6 -45 -78 -53 -132 l-6 -38 -27 25 c-28 26 -70 49 -111
62 -23 7 -24 6 -18 -29 6 -38 21 -72 50 -116 l16 -25 -53 -2 c-30 -1 -71 -9
-91 -17 -37 -16 -37 -17 -20 -36 22 -25 95 -60 123 -60 29 0 28 -8 -4 -33 -26
-20 -84 -103 -84 -119 0 -13 52 -9 107 7 29 9 69 32 97 56 26 23 48 40 49 38
2 -2 15 -23 30 -46 34 -53 115 -108 185 -126 40 -10 50 -16 40 -23 -7 -6 -84
-40 -170 -77 -168 -72 -209 -79 -276 -51 -20 8 -49 27 -64 41 l-28 27 0 -45
c0 -52 28 -103 68 -126 l28 -16 -32 -49 c-100 -148 -48 -353 110 -436 73 -38
179 -38 252 0 118 62 169 180 129 299 -15 44 -68 119 -85 119 -4 0 -13 -13
-20 -30 l-12 -29 -43 29 c-24 17 -47 30 -50 30 -4 0 -4 -25 0 -55 l6 -55 -36
0 c-33 0 -36 -2 -30 -22 16 -52 39 -89 76 -123 l39 -35 -26 -17 c-16 -10 -46
-17 -74 -17 -124 0 -202 143 -141 261 38 75 140 143 316 213 44 17 104 45 134
61 30 16 56 28 57 26 2 -1 -2 -35 -9 -76 -15 -97 1 -205 48 -319 53 -129 45
-186 -35 -255 l-44 -37 35 0 c59 0 110 20 154 61 26 24 46 36 50 29 13 -20
122 -68 184 -81 94 -18 218 -7 331 31 84 28 105 31 180 28 65 -3 99 -10 143
-30 31 -15 57 -22 57 -17 0 5 -7 26 -16 47 -27 65 -80 109 -167 136 -17 5 -16
8 3 46 81 158 -15 351 -194 391 l-54 12 14 40 c17 47 18 144 3 184 l-11 28
-38 -43 c-22 -24 -44 -59 -50 -78 l-12 -35 -34 40 c-19 22 -49 50 -66 62 -25
18 -32 19 -39 8 -11 -16 -3 -90 13 -132 6 -15 9 -29 7 -31 -2 -3 -26 0 -53 5
-49 9 -126 2 -126 -11 0 -15 76 -85 108 -101 l33 -16 -54 -31 c-30 -17 -64
-44 -76 -61 l-21 -30 45 -7 c25 -3 68 -4 94 0 l48 6 -18 -52 c-17 -50 -25
-128 -14 -128 19 0 67 35 103 74 l41 45 11 -38 c5 -21 24 -57 41 -81 30 -41
33 -42 45 -25 33 44 31 165 -3 233 l-20 42 36 0 c85 0 159 -83 146 -165 -13
-85 -84 -167 -185 -214 -45 -21 -70 -26 -140 -26 -76 0 -92 3 -152 33 -85 42
-168 129 -197 207 -24 65 -41 167 -35 211 18 116 31 168 77 309 28 88 53 162
54 164 1 2 21 -13 44 -32 90 -77 212 -87 286 -22 l28 23 -25 27 c-40 43 -98
68 -163 69 -56 1 -61 3 -93 40 -18 21 -64 97 -101 169 -50 98 -81 145 -123
187 -91 91 -248 159 -367 160 -42 0 -43 1 -43 33 0 42 -31 92 -69 112 -40 20
-44 19 -34 -7z m-2427 -2633 l0 -115 -70 0 -70 0 0 -350 0 -350 70 0 70 0 0
-120 0 -120 -260 0 -260 0 0 120 0 120 70 0 70 0 0 350 0 350 -70 0 -70 0 0
115 0 115 260 0 260 0 0 -115z m760 0 l0 -115 -70 0 -70 0 0 -350 0 -350 70 0
70 0 0 -120 0 -120 -260 0 -260 0 0 120 0 120 70 0 70 0 0 350 0 350 -70 0
-70 0 0 115 0 115 260 0 260 0 0 -115z m899 -272 c75 -210 138 -384 141 -386
3 -3 68 170 144 384 l139 389 263 0 264 0 0 -115 0 -114 -72 -3 -73 -3 -3
-347 -2 -348 75 0 76 0 -3 -117 -3 -118 -225 0 -225 0 0 115 0 115 38 3 37 3
0 311 c0 171 -2 309 -4 307 -2 -2 -70 -191 -151 -419 -81 -228 -152 -421 -158
-428 -7 -9 -40 -12 -121 -10 l-111 3 -152 425 -152 425 -1 -307 0 -308 35 0
36 0 -3 -117 -3 -118 -225 0 -225 0 0 115 0 115 73 3 72 3 0 349 0 350 -75 0
-75 0 0 115 0 115 267 -2 266 -3 136 -382z m2161 272 l0 -115 -55 0 c-30 0
-55 -3 -55 -7 0 -5 64 -161 143 -348 l143 -340 67 -3 68 -3 -3 -117 -3 -117
-260 0 -260 0 -3 117 -3 117 70 3 70 3 -31 73 -30 72 -228 0 -227 0 -31 -72
-30 -73 66 -5 67 -5 0 -115 0 -115 -262 -3 -263 -2 0 119 0 120 67 3 67 3 143
340 c79 187 143 343 143 348 0 4 -25 7 -55 7 l-55 0 0 115 0 115 370 0 370 0
0 -115z"/>
<path d="M4297 2223 c-32 -76 -57 -141 -57 -145 0 -5 56 -8 124 -8 l124 0 -61
145 c-34 80 -64 145 -67 145 -3 0 -32 -62 -63 -137z"/>
<path d="M1860 5025 c-57 -18 -124 -75 -153 -129 -17 -32 -22 -58 -22 -116 0
-88 22 -137 81 -190 55 -48 99 -63 179 -64 59 0 94 9 225 55 146 51 160 54
245 53 79 -1 132 -12 198 -39 15 -6 17 0 17 58 l0 65 -52 19 c-40 13 -83 18
-168 18 -121 0 -121 0 -302 -66 -168 -61 -246 -51 -288 36 -23 47 -24 54 -10
89 l9 25 43 -24 c50 -28 113 -40 163 -31 l36 7 -21 35 c-18 28 -19 34 -6 34 9
0 34 7 57 17 l41 16 -50 32 -51 32 26 26 27 26 -30 12 c-47 18 -144 20 -194 4z"/>
<path d="M882 4915 c-61 -63 -149 -163 -197 -222 -119 -148 -308 -435 -295
-446 3 -2 81 -36 175 -75 150 -64 170 -70 179 -55 5 9 44 69 87 132 90 135
199 271 323 405 79 86 87 98 75 113 -22 29 -230 263 -234 263 -1 0 -52 -52
-113 -115z"/>
<path d="M4364 4963 c-33 -38 -88 -101 -123 -141 l-64 -72 79 -83 c149 -154
297 -343 397 -506 21 -34 41 -60 45 -58 4 3 79 35 167 72 88 37 163 70 167 74
16 14 -197 331 -327 486 -84 101 -264 295 -274 295 -4 0 -34 -30 -67 -67z"/>
<path d="M15245 5015 c-49 -19 -93 -60 -111 -102 -8 -18 -17 -67 -21 -108 l-6
-75 -43 0 -44 0 0 -55 0 -55 45 0 45 0 0 -209 0 -209 -40 -7 -40 -7 0 -49 0
-49 181 0 180 0 -3 47 -3 48 -55 10 -55 10 -3 208 -2 207 75 0 75 0 0 55 0 54
-72 3 -73 3 -3 35 c-4 43 13 103 34 121 8 7 41 13 72 13 l57 1 7 55 c3 30 5
56 3 58 -2 2 -39 6 -82 8 -54 3 -90 -1 -118 -11z"/>
<path d="M7170 4950 l0 -70 85 0 85 0 0 70 0 70 -85 0 -85 0 0 -70z"/>
<path d="M7550 4950 l0 -70 85 0 85 0 0 70 0 70 -85 0 -85 0 0 -70z"/>
<path d="M9050 4950 l0 -70 85 0 85 0 0 70 0 70 -85 0 -85 0 0 -70z"/>
<path d="M11274 4960 c-136 -27 -240 -126 -284 -268 -22 -72 -27 -234 -9 -311
28 -121 119 -231 227 -271 115 -44 273 -37 395 17 l57 26 0 103 0 104 -59 0
-59 0 -9 -62 c-7 -56 -11 -64 -38 -77 -19 -10 -60 -15 -110 -15 -116 -1 -173
33 -226 134 -22 41 -24 57 -24 185 0 128 2 144 24 185 51 98 104 130 213 130
97 -1 158 -26 158 -67 0 -15 3 -45 6 -65 l7 -38 58 0 59 0 0 98 c0 110 -1 113
-77 151 -87 44 -211 60 -309 41z"/>
<path d="M5780 4912 l0 -51 43 -8 42 -9 3 -321 2 -321 -45 -6 -45 -7 0 -50 0
-49 229 0 c125 0 252 5 282 10 119 23 187 82 210 184 22 102 -26 208 -110 243
l-35 15 25 19 c13 10 27 19 31 19 4 0 19 21 34 46 51 87 25 217 -56 270 -74
49 -118 56 -372 62 l-238 4 0 -50z m475 -97 c85 -41 79 -174 -10 -211 -21 -9
-69 -14 -125 -14 l-90 0 0 120 0 120 96 0 c66 0 106 -5 129 -15z m30 -351 c59
-28 83 -129 45 -191 -29 -48 -54 -56 -182 -61 l-118 -4 0 136 0 136 111 0 c80
0 120 -4 144 -16z"/>
<path d="M8140 4912 l0 -50 45 -11 45 -11 0 -319 0 -319 -45 -6 -45 -7 0 -50
0 -51 233 4 232 3 65 31 c119 57 197 166 221 308 30 179 -32 356 -159 453 -75
57 -121 66 -369 71 l-223 4 0 -50z m453 -96 c44 -19 92 -71 119 -131 19 -42
22 -67 23 -161 0 -107 -1 -113 -35 -180 -28 -54 -45 -74 -83 -98 -42 -26 -61
-30 -138 -34 l-89 -4 0 311 0 311 85 0 c51 0 99 -6 118 -14z"/>
<path d="M13208 4813 l-3 -78 -42 -3 -43 -3 0 -55 0 -54 45 0 45 0 0 -197 c0
-109 5 -215 10 -235 23 -81 112 -120 229 -102 l56 9 -3 40 c-5 71 -9 76 -48
69 -24 -4 -42 -1 -59 10 l-25 16 0 195 0 195 60 0 60 0 0 55 0 55 -60 0 -60 0
0 80 0 80 -80 0 -79 0 -3 -77z"/>
<path d="M10200 4739 c-30 -3 -82 -17 -115 -30 l-60 -24 -3 -83 -3 -82 60 0
60 0 6 44 c8 51 31 66 100 66 82 0 112 -27 122 -111 l6 -49 -86 0 c-192 0
-297 -72 -297 -205 0 -80 33 -133 105 -166 74 -34 167 -22 237 33 39 30 41 29
52 -14 l6 -28 100 0 100 0 0 50 c0 48 -1 50 -29 50 l-29 0 -4 193 c-3 177 -5
196 -27 240 -44 91 -156 134 -301 116z m170 -423 c0 -51 -2 -57 -36 -82 -48
-37 -128 -45 -164 -16 -37 30 -34 86 8 123 30 27 38 29 112 29 l80 0 0 -54z"/>
<path d="M11987 4739 c-99 -16 -177 -86 -214 -192 -25 -71 -24 -204 1 -277 27
-76 104 -153 176 -174 98 -29 226 -14 307 35 l32 20 -21 47 c-11 26 -21 48
-22 49 -1 1 -21 -7 -43 -18 -53 -26 -139 -35 -187 -19 -45 15 -86 67 -93 120
l-6 40 192 0 191 0 0 78 c0 43 -7 102 -16 131 -34 117 -156 183 -297 160z
m136 -149 c21 -24 27 -40 27 -75 l0 -45 -115 0 c-112 0 -115 1 -115 22 0 40
41 109 74 124 45 21 96 10 129 -26z"/>
<path d="M12795 4744 c-6 -1 -27 -5 -48 -9 -25 -4 -54 -20 -82 -46 -23 -21
-45 -39 -49 -39 -3 0 -6 18 -6 40 l0 40 -121 0 -120 0 3 -47 c2 -39 7 -48 23
-51 71 -10 65 11 65 -221 l0 -208 -42 -9 c-43 -9 -43 -9 -46 -56 l-3 -48 166
0 166 0 -3 48 c-3 45 -4 47 -40 56 l-38 10 0 176 0 176 30 29 c23 22 41 29 84
33 51 4 57 2 86 -26 l30 -30 0 -179 0 -179 -37 -10 c-37 -9 -38 -11 -41 -56
l-3 -48 165 0 166 0 0 49 0 49 -44 6 -45 7 -3 197 c-3 182 -5 200 -26 244 -13
27 -38 56 -57 68 -31 19 -109 39 -130 34z"/>
<path d="M14317 4739 c-99 -16 -177 -86 -214 -192 -25 -71 -24 -204 1 -277 27
-76 104 -153 176 -174 98 -29 226 -14 307 35 l32 20 -21 47 c-11 26 -21 48
-22 49 -1 1 -21 -7 -43 -18 -53 -26 -139 -35 -187 -19 -45 15 -86 67 -93 120
l-6 40 192 0 191 0 0 78 c0 43 -7 102 -16 131 -34 117 -156 183 -297 160z
m136 -149 c21 -24 27 -40 27 -75 l0 -45 -115 0 c-112 0 -115 1 -115 22 0 40
41 109 74 124 45 21 96 10 129 -26z"/>
<path d="M15739 4740 c-155 -26 -241 -142 -243 -325 -1 -123 21 -183 89 -252
65 -65 133 -88 236 -81 125 9 217 85 254 211 32 108 9 265 -50 343 -38 49
-108 92 -164 99 -25 4 -53 8 -61 10 -8 1 -36 -1 -61 -5z m126 -142 c45 -35 65
-91 65 -188 0 -133 -39 -198 -123 -207 -88 -10 -142 50 -154 170 -8 92 12 174
52 214 28 28 40 33 83 33 35 0 57 -6 77 -22z"/>
<path d="M6904 4721 c-18 -11 -40 -34 -50 -51 l-19 -32 -5 44 -5 43 -122 3
-123 3 0 -45 c0 -47 0 -47 68 -61 l32 -7 -2 -206 -3 -207 -42 -9 -43 -9 0 -48
0 -49 165 0 165 0 0 49 0 49 -40 7 -40 7 0 173 0 174 26 20 c21 17 41 21 94
21 l67 0 7 53 c12 99 13 97 -46 97 -35 0 -64 -7 -84 -19z"/>
<path d="M9500 4713 c-95 -48 -131 -138 -92 -225 32 -73 61 -90 266 -152 22
-7 49 -24 59 -38 17 -23 18 -31 8 -56 -15 -36 -48 -52 -104 -52 -55 0 -117 18
-117 33 0 7 -5 29 -11 50 -10 37 -10 37 -64 37 l-55 0 0 -89 0 -89 63 -22 c87
-30 225 -38 300 -16 169 49 199 258 47 336 -20 10 -76 30 -124 43 -98 28 -126
47 -126 89 0 46 31 68 98 68 72 0 98 -17 107 -70 l7 -40 54 0 54 0 0 86 0 85
-47 21 c-37 17 -74 23 -158 26 -105 3 -112 2 -165 -25z"/>
<path d="M13894 4721 c-18 -11 -40 -34 -50 -51 l-19 -32 -5 44 -5 43 -122 3
-123 3 0 -45 c0 -47 0 -47 68 -61 l32 -7 -2 -206 -3 -207 -42 -9 -43 -9 0 -48
0 -49 165 0 165 0 0 49 0 49 -40 7 -40 7 0 173 0 174 26 20 c21 17 41 21 94
21 l67 0 7 53 c12 99 13 97 -46 97 -35 0 -64 -7 -84 -19z"/>
<path d="M16494 4721 c-18 -11 -40 -34 -50 -51 l-19 -32 -5 44 -5 43 -122 3
-123 3 0 -45 c0 -47 0 -47 68 -61 l32 -7 -2 -206 -3 -207 -42 -9 -43 -9 0 -48
0 -49 165 0 165 0 0 49 0 49 -40 7 -40 7 0 173 0 174 26 20 c21 17 41 21 94
21 l67 0 7 53 c12 99 13 97 -46 97 -35 0 -64 -7 -84 -19z"/>
<path d="M7092 4683 c2 -39 7 -48 23 -51 71 -10 65 11 65 -221 l0 -209 -40 -7
-40 -7 0 -49 0 -49 166 0 165 0 -3 48 c-3 47 -3 47 -45 56 l-43 9 0 263 0 264
-126 0 -125 0 3 -47z"/>
<path d="M7470 4686 c0 -47 0 -47 68 -61 l32 -7 0 -289 c0 -310 -5 -345 -50
-369 -13 -7 -37 -9 -56 -5 l-34 6 0 -59 c0 -53 2 -60 23 -66 64 -17 168 8 209
51 61 63 62 74 66 476 l4 367 -131 0 -131 0 0 -44z"/>
<path d="M8972 4683 c2 -39 7 -48 23 -51 71 -10 65 11 65 -221 l0 -209 -40 -7
-40 -7 0 -49 0 -49 166 0 165 0 -3 48 c-3 47 -3 47 -45 56 l-43 9 0 263 0 264
-126 0 -125 0 3 -47z"/>
<path d="M2672 3905 l0 -190 21 45 c31 65 32 225 0 290 l-21 45 0 -190z"/>
<path d="M10190 3750 l0 -70 85 0 85 0 0 70 0 70 -85 0 -85 0 0 -70z"/>
<path d="M15270 3771 l0 -50 45 -7 45 -6 0 -121 0 -121 -27 26 c-37 35 -77 49
-139 49 -125 0 -205 -87 -235 -255 -30 -177 33 -341 153 -391 74 -30 184 -10
232 44 27 30 36 26 36 -14 l0 -35 115 0 115 0 0 49 0 48 -42 9 -43 9 -3 408
-2 407 -125 0 -125 0 0 -49z m40 -366 c16 -8 34 -24 40 -34 5 -11 10 -84 10
-164 0 -136 -1 -145 -22 -165 -56 -52 -139 -52 -183 0 -34 40 -40 67 -39 173
0 98 21 158 66 189 28 20 90 20 128 1z"/>
<path d="M8971 3755 c-154 -44 -233 -166 -190 -296 29 -86 92 -133 252 -186
128 -42 172 -68 193 -111 32 -68 -11 -143 -92 -158 -53 -10 -149 3 -193 26
-37 19 -40 22 -48 82 l-8 63 -62 3 -63 3 0 -105 0 -106 60 -30 c89 -45 178
-63 285 -57 159 8 260 75 285 189 32 142 -64 255 -266 314 -143 41 -194 78
-194 141 0 77 51 113 160 113 78 0 135 -19 143 -47 3 -10 9 -37 12 -60 l7 -43
59 0 59 0 0 95 0 94 -45 27 c-96 56 -252 78 -354 49z"/>
<path d="M5820 3712 l0 -50 45 -11 45 -11 0 -319 0 -319 -45 -6 -45 -7 0 -50
0 -51 233 4 232 3 65 31 c119 57 197 166 221 308 30 179 -32 356 -159 453 -75
57 -121 66 -369 71 l-223 4 0 -50z m453 -96 c44 -19 92 -71 119 -131 19 -42
22 -67 23 -161 0 -107 -1 -113 -35 -180 -28 -54 -45 -74 -83 -98 -42 -26 -61
-30 -138 -34 l-89 -4 0 311 0 311 85 0 c51 0 99 -6 118 -14z"/>
<path d="M7388 3613 l-3 -78 -42 -3 -43 -3 0 -55 0 -54 45 0 45 0 0 -197 c0
-109 5 -215 10 -235 23 -81 112 -120 229 -102 l56 9 -3 40 c-5 71 -9 76 -48
69 -24 -4 -42 -1 -59 10 l-25 16 0 195 0 195 60 0 60 0 0 55 0 55 -60 0 -60 0
0 80 0 80 -80 0 -79 0 -3 -77z"/>
<path d="M6880 3539 c-30 -3 -82 -17 -115 -30 l-60 -24 -3 -83 -3 -82 60 0 60
0 6 44 c8 51 31 66 100 66 82 0 112 -27 122 -111 l6 -49 -86 0 c-192 0 -297
-72 -297 -205 0 -80 33 -133 105 -166 74 -34 167 -22 237 33 39 30 41 29 52
-14 l6 -28 100 0 100 0 0 50 c0 48 -1 50 -29 50 l-29 0 -4 193 c-3 177 -5 196
-27 240 -44 91 -156 134 -301 116z m170 -423 c0 -51 -2 -57 -36 -82 -48 -37
-128 -45 -164 -16 -37 30 -34 86 8 123 30 27 38 29 112 29 l80 0 0 -54z"/>
<path d="M7980 3539 c-30 -3 -82 -17 -115 -30 l-60 -24 -3 -83 -3 -82 60 0 60
0 6 44 c8 51 31 66 100 66 82 0 112 -27 122 -111 l6 -49 -86 0 c-192 0 -297
-72 -297 -205 0 -80 33 -133 105 -166 74 -34 167 -22 237 33 39 30 41 29 52
-14 l6 -28 100 0 100 0 0 50 c0 48 -1 50 -29 50 l-29 0 -4 193 c-3 177 -5 196
-27 240 -44 91 -156 134 -301 116z m170 -423 c0 -51 -2 -57 -36 -82 -48 -37
-128 -45 -164 -16 -37 30 -34 86 8 123 30 27 38 29 112 29 l80 0 0 -54z"/>
<path d="M9729 3539 c-154 -23 -242 -141 -243 -324 -1 -121 21 -182 88 -251
63 -65 133 -89 235 -82 126 9 196 68 225 191 l6 27 -69 0 c-67 0 -69 -1 -81
-31 -16 -39 -64 -69 -108 -69 -78 0 -129 66 -139 179 -14 170 69 278 187 242
46 -13 55 -27 65 -93 l7 -48 64 0 64 0 0 84 c0 81 -1 85 -30 109 -61 51 -179
80 -271 66z"/>
<path d="M10737 3539 c-99 -16 -177 -86 -214 -192 -25 -71 -24 -204 1 -277 27
-76 104 -153 176 -174 98 -29 226 -14 307 35 l32 20 -21 47 c-11 26 -21 48
-22 49 -1 1 -21 -7 -43 -18 -53 -26 -139 -35 -187 -19 -45 15 -86 67 -93 120
l-6 40 192 0 191 0 0 78 c0 43 -7 102 -16 131 -34 117 -156 183 -297 160z
m136 -149 c21 -24 27 -40 27 -75 l0 -45 -115 0 c-112 0 -115 1 -115 22 0 40
41 109 74 124 45 21 96 10 129 -26z"/>
<path d="M11555 3544 c-6 -1 -27 -5 -48 -9 -25 -4 -54 -20 -82 -46 -23 -21
-45 -39 -49 -39 -3 0 -6 18 -6 40 l0 40 -121 0 -120 0 3 -47 c2 -39 7 -48 23
-51 71 -10 65 11 65 -221 l0 -208 -42 -9 c-43 -9 -43 -9 -46 -56 l-3 -48 166
0 166 0 -3 48 c-3 45 -4 47 -40 56 l-38 10 0 176 0 176 30 29 c23 22 41 29 84
33 51 4 57 2 86 -26 l30 -30 0 -179 0 -179 -37 -10 c-37 -9 -38 -11 -41 -56
l-3 -48 165 0 166 0 0 49 0 49 -44 6 -45 7 -3 197 c-3 182 -5 200 -26 244 -13
27 -38 56 -57 68 -31 19 -109 39 -130 34z"/>
<path d="M12159 3539 c-154 -23 -242 -141 -243 -324 -1 -121 21 -182 88 -251
63 -65 133 -89 235 -82 126 9 196 68 225 191 l6 27 -69 0 c-67 0 -69 -1 -81
-31 -16 -39 -64 -69 -108 -69 -78 0 -129 66 -139 179 -14 170 69 278 187 242
46 -13 55 -27 65 -93 l7 -48 64 0 64 0 0 84 c0 81 -1 85 -30 109 -61 51 -179
80 -271 66z"/>
<path d="M12797 3539 c-99 -16 -177 -86 -214 -192 -25 -71 -24 -204 1 -277 27
-76 104 -153 176 -174 98 -29 226 -14 307 35 l32 20 -21 47 c-11 26 -21 48
-22 49 -1 1 -21 -7 -43 -18 -53 -26 -139 -35 -187 -19 -45 15 -86 67 -93 120
l-6 40 192 0 191 0 0 78 c0 43 -7 102 -16 131 -34 117 -156 183 -297 160z
m136 -149 c21 -24 27 -40 27 -75 l0 -45 -115 0 c-112 0 -115 1 -115 22 0 40
41 109 74 124 45 21 96 10 129 -26z"/>
<path d="M13720 3539 c-30 -3 -82 -17 -115 -30 l-60 -24 -3 -83 -3 -82 60 0
60 0 6 44 c8 51 31 66 100 66 82 0 112 -27 122 -111 l6 -49 -86 0 c-192 0
-297 -72 -297 -205 0 -80 33 -133 105 -166 74 -34 167 -22 237 33 39 30 41 29
52 -14 l6 -28 100 0 100 0 0 50 c0 48 -1 50 -29 50 l-29 0 -4 193 c-3 177 -5
196 -27 240 -44 91 -156 134 -301 116z m170 -423 c0 -51 -2 -57 -36 -82 -48
-37 -128 -45 -164 -16 -37 30 -34 86 8 123 30 27 38 29 112 29 l80 0 0 -54z"/>
<path d="M14595 3544 c-6 -1 -27 -5 -48 -9 -25 -4 -54 -20 -82 -46 -23 -21
-45 -39 -49 -39 -3 0 -6 18 -6 40 l0 40 -121 0 -120 0 3 -47 c2 -39 7 -48 23
-51 71 -10 65 11 65 -221 l0 -208 -42 -9 c-43 -9 -43 -9 -46 -56 l-3 -48 166
0 166 0 -3 48 c-3 45 -4 47 -40 56 l-38 10 0 176 0 176 30 29 c23 22 41 29 84
33 51 4 57 2 86 -26 l30 -30 0 -179 0 -179 -37 -10 c-37 -9 -38 -11 -41 -56
l-3 -48 165 0 166 0 0 49 0 49 -44 6 -45 7 -3 197 c-3 182 -5 200 -26 244 -13
27 -38 56 -57 68 -31 19 -109 39 -130 34z"/>
<path d="M10112 3483 c2 -39 7 -48 23 -51 71 -10 65 11 65 -221 l0 -209 -40
-7 -40 -7 0 -49 0 -49 166 0 165 0 -3 48 c-3 47 -3 47 -45 56 l-43 9 0 263 0
264 -126 0 -125 0 3 -47z"/>
<path d="M8352 2715 c-98 -30 -152 -103 -160 -217 l-5 -68 -48 0 -49 0 0 -55
0 -55 50 0 50 0 0 -209 0 -209 -45 -6 -45 -7 0 -50 0 -49 171 0 170 0 -3 48
c-3 47 -3 47 -45 56 l-43 9 0 208 0 209 115 0 115 0 -2 -207 -3 -208 -42 -9
-43 -9 0 -48 0 -49 170 0 170 0 0 49 0 49 -45 6 -45 7 0 265 0 264 -195 0
-195 0 0 51 c0 93 71 133 192 110 33 -7 66 -15 73 -17 8 -4 16 15 24 56 7 34
11 63 9 65 -2 1 -33 10 -69 19 -78 19 -168 20 -227 1z"/>
<path d="M7790 2650 l0 -70 85 0 85 0 0 70 0 70 -85 0 -85 0 0 -70z"/>
<path d="M9600 2650 l0 -70 85 0 85 0 0 70 0 70 -85 0 -85 0 0 -70z"/>
<path d="M10580 2671 l0 -49 48 -9 47 -8 3 -352 2 -352 -45 -7 -45 -6 0 -49 0
-49 165 0 165 0 0 49 0 49 -40 7 -40 7 0 409 0 409 -130 0 -130 0 0 -49z"/>
<path d="M13500 2671 l0 -49 48 -9 47 -8 3 -352 2 -352 -45 -7 -45 -6 0 -49 0
-49 165 0 165 0 0 49 0 49 -40 7 -40 7 0 409 0 409 -130 0 -130 0 0 -49z"/>
<path d="M13890 2671 l0 -49 48 -9 47 -8 3 -352 2 -352 -45 -7 -45 -6 0 -49 0
-49 165 0 165 0 0 49 0 49 -40 7 -40 7 0 409 0 409 -130 0 -130 0 0 -49z"/>
<path d="M14360 2650 l0 -70 85 0 85 0 0 70 0 70 -85 0 -85 0 0 -70z"/>
<path d="M6175 2649 c-4 -6 -69 -178 -145 -382 l-138 -372 -31 -3 c-30 -3 -31
-5 -31 -53 l0 -49 140 0 140 0 0 50 c0 46 -2 50 -23 50 -13 0 -26 3 -29 6 -3
3 4 34 15 70 l21 64 157 0 157 0 21 -61 c23 -68 21 -79 -15 -79 -22 0 -24 -4
-24 -50 l0 -50 140 0 140 0 0 50 c0 48 -1 50 -29 50 -28 0 -29 1 -169 383
l-140 382 -75 3 c-48 2 -78 -1 -82 -9z m134 -320 c27 -79 52 -152 56 -161 7
-17 -3 -18 -113 -18 l-119 0 47 138 c61 174 70 196 75 190 3 -2 27 -69 54
-149z"/>
<path d="M11290 2611 l0 -50 43 -8 42 -9 3 -321 2 -321 -45 -6 -45 -7 0 -50 0
-49 170 0 170 0 0 49 0 50 -45 7 -45 6 2 321 3 321 43 9 42 8 0 50 0 49 -170
0 -170 0 0 -49z"/>
<path d="M7348 2513 l-3 -78 -42 -3 -43 -3 0 -55 0 -54 45 0 45 0 0 -197 c0
-109 5 -215 10 -235 23 -81 112 -120 229 -102 l56 9 -3 40 c-5 71 -9 76 -48
69 -24 -4 -42 -1 -59 10 l-25 16 0 195 0 195 60 0 60 0 0 55 0 55 -60 0 -60 0
0 80 0 80 -80 0 -79 0 -3 -77z"/>
<path d="M12538 2513 l-3 -78 -42 -3 -43 -3 0 -55 0 -54 45 0 45 0 0 -197 c0
-109 5 -215 10 -235 23 -81 112 -120 229 -102 l56 9 -3 40 c-5 71 -9 76 -48
69 -24 -4 -42 -1 -59 10 l-25 16 0 195 0 195 60 0 60 0 0 55 0 55 -60 0 -60 0
0 80 0 80 -80 0 -79 0 -3 -77z"/>
<path d="M9139 2439 c-154 -23 -242 -141 -243 -324 -1 -121 21 -182 88 -251
63 -65 133 -89 235 -82 126 9 196 68 225 191 l6 27 -69 0 c-67 0 -69 -1 -81
-31 -16 -39 -64 -69 -108 -69 -78 0 -129 66 -139 179 -14 170 69 278 187 242
46 -13 55 -27 65 -93 l7 -48 64 0 64 0 0 84 c0 81 -1 85 -30 109 -61 51 -179
80 -271 66z"/>
<path d="M10140 2439 c-30 -3 -82 -17 -115 -30 l-60 -24 -3 -83 -3 -82 60 0
60 0 6 44 c8 51 31 66 100 66 82 0 112 -27 122 -111 l6 -49 -86 0 c-192 0
-297 -72 -297 -205 0 -80 33 -133 105 -166 74 -34 167 -22 237 33 39 30 41 29
52 -14 l6 -28 100 0 100 0 0 50 c0 48 -1 50 -29 50 l-29 0 -4 193 c-3 177 -5
196 -27 240 -44 91 -156 134 -301 116z m170 -423 c0 -51 -2 -57 -36 -82 -48
-37 -128 -45 -164 -16 -37 30 -34 86 8 123 30 27 38 29 112 29 l80 0 0 -54z"/>
<path d="M12125 2444 c-6 -1 -27 -5 -48 -9 -25 -4 -54 -20 -82 -46 -23 -21
-45 -39 -49 -39 -3 0 -6 18 -6 40 l0 40 -121 0 -120 0 3 -47 c2 -39 7 -48 23
-51 71 -10 65 11 65 -221 l0 -208 -42 -9 c-43 -9 -43 -9 -46 -56 l-3 -48 166
0 166 0 -3 48 c-3 45 -4 47 -40 56 l-38 10 0 176 0 176 30 29 c23 22 41 29 84
33 51 4 57 2 86 -26 l30 -30 0 -179 0 -179 -37 -10 c-37 -9 -38 -11 -41 -56
l-3 -48 165 0 166 0 0 49 0 49 -44 6 -45 7 -3 197 c-3 182 -5 200 -26 244 -13
27 -38 56 -57 68 -31 19 -109 39 -130 34z"/>
<path d="M13127 2439 c-99 -16 -177 -86 -214 -192 -25 -71 -24 -204 1 -277 27
-76 104 -153 176 -174 98 -29 226 -14 307 35 l32 20 -21 47 c-11 26 -21 48
-22 49 -1 1 -21 -7 -43 -18 -53 -26 -139 -35 -187 -19 -45 15 -86 67 -93 120
l-6 40 192 0 191 0 0 78 c0 43 -7 102 -16 131 -34 117 -156 183 -297 160z
m136 -149 c21 -24 27 -40 27 -75 l0 -45 -115 0 c-112 0 -115 1 -115 22 0 40
41 109 74 124 45 21 96 10 129 -26z"/>
<path d="M14895 2440 c-111 -17 -179 -100 -206 -254 -39 -225 69 -406 242
-406 50 0 99 18 132 48 l27 26 0 -55 c0 -62 -14 -94 -52 -122 -33 -25 -127
-26 -203 -3 -27 8 -50 14 -51 13 -1 -1 -8 -26 -17 -55 -11 -39 -12 -54 -4 -57
117 -43 197 -53 279 -36 95 20 173 87 199 171 7 20 14 157 18 325 l6 290 30 5
c28 5 30 8 33 53 l3 48 -108 -3 -108 -3 -3 -32 c-2 -18 -7 -33 -13 -33 -5 0
-9 4 -9 10 0 16 -78 62 -118 69 -20 4 -55 4 -77 1z m156 -143 l34 -23 0 -163
0 -164 -26 -19 c-62 -46 -154 -26 -194 42 -30 53 -29 218 3 277 38 73 117 95
183 50z"/>
<path d="M15617 2439 c-99 -16 -177 -86 -214 -192 -25 -71 -24 -204 1 -277 27
-76 104 -153 176 -174 98 -29 226 -14 307 35 l32 20 -21 47 c-11 26 -21 48
-22 49 -1 1 -21 -7 -43 -18 -53 -26 -139 -35 -187 -19 -45 15 -86 67 -93 120
l-6 40 192 0 191 0 0 78 c0 43 -7 102 -16 131 -34 117 -156 183 -297 160z
m136 -149 c21 -24 27 -40 27 -75 l0 -45 -115 0 c-112 0 -115 1 -115 22 0 40
41 109 74 124 45 21 96 10 129 -26z"/>
<path d="M16435 2444 c-6 -1 -27 -5 -48 -9 -25 -4 -54 -20 -82 -46 -23 -21
-45 -39 -49 -39 -3 0 -6 18 -6 40 l0 40 -121 0 -120 0 3 -47 c2 -39 7 -48 23
-51 71 -10 65 11 65 -221 l0 -208 -42 -9 c-43 -9 -43 -9 -46 -56 l-3 -48 166
0 166 0 -3 48 c-3 45 -4 47 -40 56 l-38 10 0 176 0 176 30 29 c23 22 41 29 84
33 51 4 57 2 86 -26 l30 -30 0 -179 0 -179 -37 -10 c-37 -9 -38 -11 -41 -56
l-3 -48 165 0 166 0 0 49 0 49 -44 6 -45 7 -3 197 c-3 182 -5 200 -26 244 -13
27 -38 56 -57 68 -31 19 -109 39 -130 34z"/>
<path d="M17039 2439 c-154 -23 -242 -141 -243 -324 -1 -121 21 -182 88 -251
63 -65 133 -89 235 -82 126 9 196 68 225 191 l6 27 -69 0 c-67 0 -69 -1 -81
-31 -16 -39 -64 -69 -108 -69 -78 0 -129 66 -139 179 -14 170 69 278 187 242
46 -13 55 -27 65 -93 l7 -48 64 0 64 0 0 84 c0 81 -1 85 -30 109 -61 51 -179
80 -271 66z"/>
<path d="M17667 2439 c-99 -16 -177 -86 -214 -192 -25 -71 -24 -204 1 -277 27
-76 104 -153 176 -174 98 -29 226 -14 307 35 l32 20 -21 47 c-11 26 -21 48
-22 49 -1 1 -21 -7 -43 -18 -53 -26 -139 -35 -187 -19 -45 15 -86 67 -93 120
l-6 40 192 0 191 0 0 78 c0 43 -7 102 -16 131 -34 117 -156 183 -297 160z
m136 -149 c21 -24 27 -40 27 -75 l0 -45 -115 0 c-112 0 -115 1 -115 22 0 40
41 109 74 124 45 21 96 10 129 -26z"/>
<path d="M7064 2421 c-18 -11 -40 -34 -50 -51 l-19 -32 -5 44 -5 43 -122 3
-123 3 0 -45 c0 -47 0 -47 68 -61 l32 -7 -2 -206 -3 -207 -42 -9 -43 -9 0 -48
0 -49 165 0 165 0 0 49 0 49 -40 7 -40 7 0 173 0 174 26 20 c21 17 41 21 94
21 l67 0 7 53 c12 99 13 97 -46 97 -35 0 -64 -7 -84 -19z"/>
<path d="M7712 2383 c2 -39 7 -48 23 -51 71 -10 65 11 65 -221 l0 -209 -40 -7
-40 -7 0 -49 0 -49 166 0 165 0 -3 48 c-3 47 -3 47 -45 56 l-43 9 0 263 0 264
-126 0 -125 0 3 -47z"/>
<path d="M9522 2383 c2 -39 7 -48 23 -51 71 -10 65 11 65 -221 l0 -209 -40 -7
-40 -7 0 -49 0 -49 166 0 165 0 -3 48 c-3 47 -3 47 -45 56 l-43 9 0 263 0 264
-126 0 -125 0 3 -47z"/>
<path d="M14282 2383 c2 -39 7 -48 23 -51 71 -10 65 11 65 -221 l0 -209 -40
-7 -40 -7 0 -49 0 -49 166 0 165 0 -3 48 c-3 47 -3 47 -45 56 l-43 9 0 263 0
264 -126 0 -125 0 3 -47z"/>
<path d="M5800 1450 c0 -20 7 -20 6100 -20 6093 0 6100 0 6100 20 0 20 -7 20
-6100 20 -6093 0 -6100 0 -6100 -20z"/>
<path d="M10965 1341 c-22 -10 -66 -46 -97 -79 -32 -35 -65 -62 -76 -62 -11 0
-22 -7 -26 -15 -3 -9 0 -15 9 -15 8 0 15 -2 15 -5 0 -17 -155 -246 -187 -276
-64 -62 -118 -76 -155 -42 -15 14 -18 14 -18 1 0 -24 34 -48 69 -48 79 0 172
84 288 258 59 89 79 112 97 112 13 0 29 7 36 15 10 13 9 15 -9 15 -34 0 -25
24 29 74 51 48 89 58 131 36 20 -11 24 -4 11 17 -7 11 -55 33 -70 33 -4 0 -25
-9 -47 -19z"/>
<path d="M5820 1195 c0 -9 7 -18 15 -21 22 -9 22 -264 0 -264 -8 0 -15 -9 -15
-20 0 -18 7 -20 65 -20 53 0 65 3 65 16 0 9 -9 18 -20 21 -19 5 -20 14 -20
133 0 119 1 128 20 133 11 3 20 12 20 21 0 13 -12 16 -65 16 -52 0 -65 -3 -65
-15z"/>
<path d="M5990 1195 c0 -8 7 -18 15 -21 22 -9 22 -264 0 -264 -8 0 -15 -9 -15
-20 0 -18 7 -20 66 -20 57 0 65 2 62 18 -2 9 -13 18 -26 20 -21 3 -22 7 -22
108 0 57 2 104 4 104 2 0 40 -56 85 -125 68 -105 85 -125 106 -125 l25 0 0
149 c0 140 1 149 20 154 11 3 20 12 20 21 0 13 -12 16 -65 16 -53 0 -65 -3
-65 -16 0 -9 9 -18 20 -21 18 -5 20 -14 20 -106 0 -55 -3 -97 -7 -93 -4 3 -39
57 -78 119 l-71 112 -47 3 c-38 2 -47 0 -47 -13z"/>
<path d="M6360 1195 c0 -9 7 -18 15 -21 22 -9 22 -264 0 -264 -8 0 -15 -9 -15
-20 0 -18 7 -20 82 -20 107 0 158 23 187 84 42 86 14 198 -59 237 -46 25 -210
28 -210 4z m179 -39 c35 -19 51 -55 51 -117 0 -83 -42 -129 -116 -129 -24 0
-24 0 -24 130 l0 130 30 0 c17 0 43 -6 59 -14z"/>
<path d="M6690 1195 c0 -9 7 -18 15 -21 22 -9 22 -264 0 -264 -8 0 -15 -9 -15
-20 0 -18 7 -20 65 -20 53 0 65 3 65 16 0 9 -9 18 -20 21 -19 5 -20 14 -20
133 0 119 1 128 20 133 11 3 20 12 20 21 0 13 -12 16 -65 16 -52 0 -65 -3 -65
-15z"/>
<path d="M6920 1068 c-29 -79 -61 -149 -71 -157 -36 -26 -23 -41 36 -41 48 0
55 3 55 19 0 11 -6 21 -12 23 -10 4 -10 10 -1 31 12 25 17 27 73 27 57 0 61
-2 71 -27 7 -19 7 -29 0 -31 -6 -2 -11 -12 -11 -23 0 -16 7 -19 50 -19 43 0
50 3 50 20 0 11 -6 20 -12 20 -7 0 -37 67 -68 150 -51 142 -55 150 -81 150
-25 0 -29 -8 -79 -142z m109 -1 l20 -57 -51 0 c-36 0 -49 4 -46 13 3 6 13 36
23 65 10 31 21 50 26 45 5 -5 17 -34 28 -66z"/>
<path d="M7200 1195 c0 -8 7 -18 15 -21 22 -9 22 -264 0 -264 -8 0 -15 -9 -15
-20 0 -18 7 -20 66 -20 57 0 65 2 62 18 -2 9 -13 18 -26 20 -21 3 -22 7 -22
108 0 57 2 104 4 104 2 0 40 -56 85 -125 68 -105 85 -125 106 -125 l25 0 0
149 c0 140 1 149 20 154 11 3 20 12 20 21 0 13 -12 16 -65 16 -53 0 -65 -3
-65 -16 0 -9 9 -18 20 -21 18 -5 20 -14 20 -106 0 -55 -3 -97 -7 -93 -4 3 -39
57 -78 119 l-71 112 -47 3 c-38 2 -47 0 -47 -13z"/>
<path d="M7690 1195 c0 -9 7 -18 15 -21 22 -9 22 -264 0 -264 -8 0 -15 -9 -15
-20 0 -18 7 -20 65 -20 53 0 65 3 65 16 0 9 -9 18 -20 21 -19 5 -20 14 -20
133 0 119 1 128 20 133 11 3 20 12 20 21 0 13 -12 16 -65 16 -52 0 -65 -3 -65
-15z"/>
<path d="M7860 1195 c0 -8 7 -18 15 -21 22 -9 22 -264 0 -264 -8 0 -15 -9 -15
-20 0 -18 7 -20 66 -20 57 0 65 2 62 18 -2 9 -13 18 -26 20 -21 3 -22 7 -22
108 0 57 2 104 4 104 2 0 40 -56 85 -125 68 -105 85 -125 106 -125 l25 0 0
149 c0 140 1 149 20 154 11 3 20 12 20 21 0 13 -12 16 -65 16 -53 0 -65 -3
-65 -16 0 -9 9 -18 20 -21 18 -5 20 -14 20 -106 0 -55 -3 -97 -7 -93 -4 3 -39
57 -78 119 l-71 112 -47 3 c-38 2 -47 0 -47 -13z"/>
<path d="M8269 1181 c-52 -53 -34 -113 43 -145 111 -46 108 -44 108 -75 0 -36
-23 -51 -74 -51 -38 0 -66 21 -66 51 0 12 -7 19 -20 19 -17 0 -20 -7 -20 -41
0 -37 3 -41 37 -56 25 -10 57 -14 97 -11 49 4 63 9 83 32 51 60 19 120 -86
161 -76 29 -89 46 -66 81 12 18 25 24 53 24 44 0 58 -8 63 -35 3 -12 14 -21
27 -23 19 -3 22 1 22 32 0 29 -5 38 -30 51 -16 8 -54 15 -85 15 -49 0 -60 -4
-86 -29z"/>
<path d="M8520 1165 c0 -38 3 -45 19 -45 13 0 21 8 23 23 2 17 11 23 36 25
l32 3 0 -130 c0 -110 -2 -131 -15 -131 -8 0 -15 -9 -15 -20 0 -18 7 -20 65
-20 58 0 65 2 65 20 0 13 -7 20 -20 20 -19 0 -20 7 -20 130 l0 130 35 0 c29 0
36 -4 41 -25 4 -16 13 -25 25 -25 16 0 19 8 19 45 l0 45 -145 0 -145 0 0 -45z"/>
<path d="M8850 1195 c0 -9 7 -18 15 -21 22 -9 22 -264 0 -264 -8 0 -15 -9 -15
-20 0 -18 7 -20 65 -20 53 0 65 3 65 16 0 9 -9 18 -20 21 -19 5 -20 14 -20
133 0 119 1 128 20 133 11 3 20 12 20 21 0 13 -12 16 -65 16 -52 0 -65 -3 -65
-15z"/>
<path d="M9020 1165 c0 -38 3 -45 19 -45 13 0 21 8 23 23 2 17 11 23 36 25
l32 3 0 -130 c0 -110 -2 -131 -15 -131 -8 0 -15 -9 -15 -20 0 -18 7 -20 65
-20 58 0 65 2 65 20 0 13 -7 20 -20 20 -19 0 -20 7 -20 130 l0 130 35 0 c29 0
36 -4 41 -25 4 -16 13 -25 25 -25 16 0 19 8 19 45 l0 45 -145 0 -145 0 0 -45z"/>
<path d="M9340 1194 c0 -9 9 -18 19 -21 17 -4 20 -17 23 -124 3 -114 4 -120
31 -146 25 -25 34 -28 97 -28 63 0 72 3 97 28 27 26 28 32 31 146 3 107 6 120
23 124 10 3 19 12 19 21 0 13 -12 16 -65 16 -52 0 -65 -3 -65 -15 0 -9 7 -18
15 -21 12 -5 15 -28 15 -120 0 -105 -1 -114 -22 -128 -12 -9 -34 -16 -48 -16
-14 0 -36 7 -48 16 -21 14 -22 23 -22 130 0 95 3 114 15 114 8 0 15 9 15 20 0
18 -7 20 -65 20 -53 0 -65 -3 -65 -16z"/>
<path d="M9710 1165 c0 -38 3 -45 19 -45 13 0 21 8 23 23 2 17 11 23 36 25
l32 3 0 -130 c0 -110 -2 -131 -15 -131 -8 0 -15 -9 -15 -20 0 -18 7 -20 65
-20 58 0 65 2 65 20 0 13 -7 20 -20 20 -19 0 -20 7 -20 130 l0 130 35 0 c29 0
36 -4 41 -25 4 -16 13 -25 25 -25 16 0 19 8 19 45 l0 45 -145 0 -145 0 0 -45z"/>
<path d="M10040 1195 c0 -9 7 -18 15 -21 22 -9 22 -264 0 -264 -8 0 -15 -9
-15 -20 0 -19 7 -20 130 -20 l130 0 0 45 c0 37 -3 45 -19 45 -12 0 -21 -9 -25
-25 -6 -23 -11 -25 -66 -25 l-60 0 0 55 0 55 60 0 c57 0 60 1 60 25 0 24 -3
25 -60 25 l-60 0 0 50 0 51 58 -3 c50 -3 57 -6 60 -25 2 -15 10 -23 23 -23 16
0 19 7 19 45 l0 45 -125 0 c-106 0 -125 -2 -125 -15z"/>
<path d="M11100 1194 c0 -9 9 -18 20 -21 19 -5 20 -14 20 -134 0 -122 -1 -129
-20 -129 -13 0 -20 -7 -20 -20 0 -18 7 -20 65 -20 58 0 65 2 65 20 0 13 -7 20
-20 20 -19 0 -20 7 -20 113 l1 112 39 -95 c63 -151 68 -160 89 -160 15 0 30
27 71 130 29 72 54 130 56 130 2 0 4 -52 4 -115 0 -108 -1 -115 -20 -115 -13
0 -20 -7 -20 -20 0 -19 7 -20 120 -20 112 0 120 1 120 19 0 11 -6 21 -12 23
-10 4 -10 10 -1 31 12 25 17 27 73 27 57 0 61 -2 71 -27 7 -19 7 -29 0 -31 -6
-2 -11 -12 -11 -23 0 -16 7 -19 50 -19 43 0 50 3 50 20 0 11 -6 20 -12 20 -7
0 -37 67 -68 150 -51 142 -55 150 -81 150 -25 0 -29 -8 -79 -142 -29 -79 -59
-148 -67 -154 -7 -6 -24 -9 -38 -6 l-25 4 0 128 c0 119 1 128 20 133 11 3 20
13 20 22 0 13 -10 15 -62 13 l-62 -3 -45 -117 c-25 -65 -48 -118 -51 -118 -4
0 -28 54 -55 120 l-48 120 -59 0 c-46 0 -58 -3 -58 -16z m639 -127 l20 -57
-51 0 c-36 0 -49 4 -46 13 3 6 13 36 23 65 10 31 21 50 26 45 5 -5 17 -34 28
-66z"/>
<path d="M11910 1195 c0 -8 7 -18 15 -21 12 -5 15 -30 15 -135 0 -108 -2 -129
-15 -129 -8 0 -15 -9 -15 -20 0 -18 7 -20 66 -20 57 0 65 2 62 18 -2 9 -13 18
-26 20 -21 3 -22 7 -22 108 0 57 2 104 4 104 2 0 40 -56 85 -125 68 -105 85
-125 106 -125 l25 0 0 149 c0 140 1 149 20 154 11 3 20 12 20 21 0 13 -12 16
-65 16 -53 0 -65 -3 -65 -16 0 -9 9 -18 20 -21 18 -5 20 -14 20 -106 0 -55 -3
-97 -7 -93 -4 3 -39 57 -78 119 l-71 112 -47 3 c-38 2 -47 0 -47 -13z"/>
<path d="M12340 1068 c-29 -79 -61 -149 -71 -157 -36 -26 -23 -41 36 -41 48 0
55 3 55 19 0 11 -6 21 -12 23 -10 4 -10 10 -1 31 12 25 17 27 73 27 57 0 61
-2 71 -27 7 -19 7 -29 0 -31 -6 -2 -11 -12 -11 -23 0 -16 7 -19 50 -19 43 0
50 3 50 20 0 11 -6 20 -12 20 -7 0 -37 67 -68 150 -51 142 -55 150 -81 150
-25 0 -29 -8 -79 -142z m109 -1 l20 -57 -51 0 c-36 0 -49 4 -46 13 3 6 13 36
23 65 10 31 21 50 26 45 5 -5 17 -34 28 -66z"/>
<path d="M12668 1193 c-43 -27 -68 -82 -68 -152 0 -67 14 -102 54 -141 35 -32
136 -41 184 -16 31 16 32 18 32 86 l0 70 -55 0 c-48 0 -55 -3 -55 -19 0 -13 9
-21 30 -26 26 -6 30 -11 30 -40 0 -36 -12 -45 -65 -45 -51 0 -92 40 -101 96
-14 93 32 164 105 164 41 0 61 -14 61 -42 0 -12 7 -18 21 -18 17 0 20 5 17 37
-2 28 -9 41 -28 50 -36 18 -130 16 -162 -4z"/>
<path d="M12920 1195 c0 -9 7 -18 15 -21 12 -5 15 -30 15 -135 0 -108 -2 -129
-15 -129 -8 0 -15 -9 -15 -20 0 -19 7 -20 130 -20 l130 0 0 45 c0 37 -3 45
-19 45 -12 0 -21 -9 -25 -25 -6 -23 -11 -25 -66 -25 l-60 0 0 55 0 55 60 0
c57 0 60 1 60 25 0 24 -3 25 -60 25 l-60 0 0 50 0 51 58 -3 c50 -3 57 -6 60
-25 2 -15 10 -23 23 -23 16 0 19 7 19 45 l0 45 -125 0 c-106 0 -125 -2 -125
-15z"/>
<path d="M13230 1194 c0 -9 9 -18 20 -21 19 -5 20 -14 20 -134 0 -122 -1 -129
-20 -129 -13 0 -20 -7 -20 -20 0 -18 7 -20 65 -20 58 0 65 2 65 20 0 13 -7 20
-20 20 -19 0 -20 7 -20 113 l1 112 39 -95 c63 -151 68 -160 89 -160 15 0 30
27 71 130 29 72 54 130 56 130 2 0 4 -52 4 -115 0 -108 -1 -115 -20 -115 -13
0 -20 -7 -20 -20 0 -18 7 -20 65 -20 58 0 65 2 65 20 0 13 -7 20 -20 20 -19 0
-20 7 -20 129 0 120 1 129 20 134 11 3 20 13 20 22 0 13 -10 15 -62 13 l-62
-3 -45 -117 c-25 -65 -48 -118 -51 -118 -4 0 -28 54 -55 120 l-48 120 -59 0
c-46 0 -58 -3 -58 -16z"/>
<path d="M13700 1195 c0 -9 7 -18 15 -21 12 -5 15 -30 15 -135 0 -108 -2 -129
-15 -129 -8 0 -15 -9 -15 -20 0 -19 7 -20 130 -20 l130 0 0 45 c0 37 -3 45
-19 45 -12 0 -21 -9 -25 -25 -6 -23 -11 -25 -66 -25 l-60 0 0 55 0 55 60 0
c57 0 60 1 60 25 0 24 -3 25 -60 25 l-60 0 0 50 0 51 58 -3 c50 -3 57 -6 60
-25 2 -15 10 -23 23 -23 16 0 19 7 19 45 l0 45 -125 0 c-106 0 -125 -2 -125
-15z"/>
<path d="M14010 1195 c0 -8 7 -18 15 -21 12 -5 15 -30 15 -135 0 -108 -2 -129
-15 -129 -8 0 -15 -9 -15 -20 0 -18 7 -20 66 -20 57 0 65 2 62 18 -2 9 -13 18
-26 20 -21 3 -22 7 -22 108 0 57 2 104 4 104 2 0 40 -56 85 -125 68 -105 85
-125 106 -125 l25 0 0 149 c0 140 1 149 20 154 11 3 20 12 20 21 0 13 -12 16
-65 16 -53 0 -65 -3 -65 -16 0 -9 9 -18 20 -21 18 -5 20 -14 20 -106 0 -55 -3
-97 -7 -93 -4 3 -39 57 -78 119 l-71 112 -47 3 c-38 2 -47 0 -47 -13z"/>
<path d="M14390 1165 c0 -38 3 -45 19 -45 13 0 21 8 23 23 2 17 11 23 36 25
l32 3 0 -130 c0 -110 -2 -131 -15 -131 -8 0 -15 -9 -15 -20 0 -18 7 -20 65
-20 58 0 65 2 65 20 0 13 -7 20 -20 20 -19 0 -20 7 -20 130 l0 130 35 0 c29 0
36 -4 41 -25 4 -16 13 -25 25 -25 16 0 19 8 19 45 l0 45 -145 0 -145 0 0 -45z"/>
<path d="M14910 1068 c-29 -79 -61 -149 -71 -157 -36 -26 -23 -41 36 -41 48 0
55 3 55 19 0 11 -6 21 -12 23 -10 4 -10 10 -1 31 12 25 17 27 73 27 57 0 61
-2 71 -27 7 -19 7 -29 0 -31 -6 -2 -11 -12 -11 -23 0 -16 7 -19 50 -19 43 0
50 3 50 20 0 11 -6 20 -12 20 -7 0 -37 67 -68 150 -51 142 -55 150 -81 150
-25 0 -29 -8 -79 -142z m109 -1 l20 -57 -51 0 c-36 0 -49 4 -46 13 3 6 13 36
23 65 10 31 21 50 26 45 5 -5 17 -34 28 -66z"/>
<path d="M15190 1195 c0 -9 7 -18 15 -21 12 -5 15 -30 15 -135 0 -108 -2 -129
-15 -129 -8 0 -15 -9 -15 -20 0 -18 7 -20 65 -20 53 0 65 3 65 16 0 9 -9 18
-20 21 -17 5 -20 14 -20 59 l0 54 75 0 75 0 0 -54 c0 -45 -3 -54 -20 -59 -11
-3 -20 -12 -20 -21 0 -13 13 -16 70 -16 57 0 70 3 70 16 0 9 -9 18 -20 21 -19
5 -20 14 -20 133 0 119 1 128 20 133 11 3 20 12 20 21 0 13 -13 16 -70 16 -57
0 -70 -3 -70 -16 0 -9 9 -18 20 -21 17 -5 20 -14 20 -59 l0 -54 -75 0 -75 0 0
54 c0 45 3 54 20 59 11 3 20 12 20 21 0 13 -12 16 -65 16 -52 0 -65 -3 -65
-15z"/>
<path d="M15560 1194 c0 -9 9 -18 20 -21 19 -5 20 -14 20 -134 0 -122 -1 -129
-20 -129 -13 0 -20 -7 -20 -20 0 -18 7 -20 65 -20 58 0 65 2 65 20 0 13 -7 20
-20 20 -19 0 -20 7 -20 113 l1 112 39 -95 c63 -151 68 -160 89 -160 15 0 30
27 71 130 29 72 54 130 56 130 2 0 4 -52 4 -115 0 -108 -1 -115 -20 -115 -13
0 -20 -7 -20 -20 0 -18 7 -20 65 -20 58 0 65 2 65 20 0 13 -7 20 -20 20 -19 0
-20 7 -20 129 0 120 1 129 20 134 11 3 20 13 20 22 0 13 -10 15 -62 13 l-62
-3 -45 -117 c-25 -65 -48 -118 -51 -118 -4 0 -28 54 -55 120 l-48 120 -59 0
c-46 0 -58 -3 -58 -16z"/>
<path d="M16040 1195 c0 -9 7 -18 15 -21 12 -5 15 -30 15 -135 0 -108 -2 -129
-15 -129 -8 0 -15 -9 -15 -20 0 -19 7 -20 130 -20 l130 0 0 45 c0 37 -3 45
-19 45 -12 0 -21 -9 -25 -25 -6 -23 -11 -25 -66 -25 l-60 0 0 55 0 55 60 0
c57 0 60 1 60 25 0 24 -3 25 -60 25 l-60 0 0 50 0 51 58 -3 c50 -3 57 -6 60
-25 2 -15 10 -23 23 -23 16 0 19 7 19 45 l0 45 -125 0 c-106 0 -125 -2 -125
-15z"/>
<path d="M16340 1195 c0 -9 7 -18 15 -21 12 -5 15 -30 15 -135 0 -108 -2 -129
-15 -129 -8 0 -15 -9 -15 -20 0 -18 7 -20 82 -20 107 0 158 23 187 84 42 86
14 198 -59 237 -46 25 -210 28 -210 4z m179 -39 c35 -19 51 -55 51 -117 0 -83
-42 -129 -116 -129 -24 0 -24 0 -24 130 l0 130 30 0 c17 0 43 -6 59 -14z"/>
<path d="M16740 1068 c-29 -79 -61 -149 -71 -157 -36 -26 -23 -41 36 -41 48 0
55 3 55 19 0 11 -6 21 -12 23 -10 4 -10 10 -1 31 12 25 17 27 73 27 57 0 61
-2 71 -27 7 -19 7 -29 0 -31 -6 -2 -11 -12 -11 -23 0 -16 7 -19 50 -19 43 0
50 3 50 20 0 11 -6 20 -12 20 -7 0 -37 67 -68 150 -51 142 -55 150 -81 150
-25 0 -29 -8 -79 -142z m109 -1 l20 -57 -51 0 c-36 0 -49 4 -46 13 3 6 13 36
23 65 10 31 21 50 26 45 5 -5 17 -34 28 -66z"/>
<path d="M17020 1195 c0 -9 7 -18 15 -21 12 -5 15 -30 15 -135 0 -108 -2 -129
-15 -129 -8 0 -15 -9 -15 -20 0 -19 7 -20 95 -20 114 0 156 14 175 59 16 40 3
92 -28 106 -26 11 -28 21 -7 29 25 9 36 51 23 87 -15 44 -58 59 -168 59 -74 0
-90 -3 -90 -15z m188 -41 c24 -17 29 -53 10 -72 -7 -7 -34 -12 -60 -12 l-48 0
0 50 0 50 38 0 c21 0 48 -7 60 -16z m16 -140 c24 -23 20 -70 -6 -88 -12 -9
-42 -16 -65 -16 l-43 0 0 60 0 60 49 0 c32 0 55 -6 65 -16z"/>
<path d="M17410 1068 c-29 -79 -61 -149 -71 -157 -36 -26 -23 -41 36 -41 48 0
55 3 55 19 0 11 -6 21 -12 23 -10 4 -10 10 -1 31 12 25 17 27 73 27 57 0 61
-2 71 -27 7 -19 7 -29 0 -31 -6 -2 -11 -12 -11 -23 0 -16 7 -19 50 -19 43 0
50 3 50 20 0 11 -6 20 -12 20 -7 0 -37 67 -68 150 -51 142 -55 150 -81 150
-25 0 -29 -8 -79 -142z m109 -1 l20 -57 -51 0 c-36 0 -49 4 -46 13 3 6 13 36
23 65 10 31 21 50 26 45 5 -5 17 -34 28 -66z"/>
<path d="M17690 1195 c0 -9 7 -18 15 -21 12 -5 15 -30 15 -135 0 -108 -2 -129
-15 -129 -8 0 -15 -9 -15 -20 0 -18 7 -20 82 -20 107 0 158 23 187 84 42 86
14 198 -59 237 -46 25 -210 28 -210 4z m179 -39 c35 -19 51 -55 51 -117 0 -83
-42 -129 -116 -129 -24 0 -24 0 -24 130 l0 130 30 0 c17 0 43 -6 59 -14z"/>
<path d="M10588 1173 c-46 -34 -96 -101 -108 -144 -13 -45 2 -69 46 -69 66 0
179 132 172 202 -3 30 -6 33 -38 36 -26 2 -45 -4 -72 -25z m82 -16 c0 -36
-115 -174 -139 -166 -16 6 26 81 74 134 42 45 65 57 65 32z"/>
<path d="M585 606 c-5 -2 -22 -7 -37 -10 -39 -9 -86 -52 -93 -86 -5 -25 -12
-30 -36 -30 -24 0 -29 -4 -29 -25 0 -21 5 -25 30 -25 l30 0 0 -160 0 -160 25
0 25 0 0 160 0 160 140 0 140 0 0 -41 c0 -39 0 -40 -22 -25 -36 25 -101 20
-137 -10 -54 -45 -50 -142 6 -180 34 -21 95 -22 128 0 l25 16 0 -40 c0 -36 2
-40 25 -40 l25 0 0 160 0 160 90 0 c83 0 90 -1 90 -20 0 -15 -7 -20 -28 -20
-65 0 -95 -61 -48 -97 l24 -19 -24 -21 c-30 -27 -30 -54 0 -90 22 -25 31 -28
84 -28 50 0 65 4 86 24 l26 24 0 -36 c0 -33 3 -37 25 -37 l25 0 0 160 0 160
50 0 50 0 0 -160 0 -160 25 0 25 0 0 160 0 160 50 0 50 0 0 -160 0 -160 25 0
25 0 0 160 0 160 140 0 140 0 0 -45 0 -46 -22 21 c-26 24 -86 27 -128 5 -60
-31 -63 -153 -4 -191 32 -21 96 -21 129 0 l25 16 0 -40 c0 -36 2 -40 25 -40
l25 0 0 160 0 160 50 0 50 0 0 -160 0 -160 25 0 25 0 0 160 0 160 170 0 170 0
0 -35 0 -35 -85 0 c-130 0 -175 -26 -175 -102 0 -72 72 -114 143 -84 53 22 68
68 42 129 -6 15 -1 17 34 17 l40 0 3 -102 c3 -98 4 -103 26 -106 l22 -3 0 160
0 161 90 0 90 0 0 -28 c0 -38 -25 -70 -58 -74 -25 -3 -27 -6 -26 -50 0 -36 6
-54 24 -73 44 -47 120 -55 178 -19 22 14 22 14 22 -31 0 -41 2 -45 25 -45 l25
0 0 160 0 160 50 0 50 0 0 -160 0 -160 25 0 25 0 0 160 0 160 100 0 101 0 -3
-76 c-2 -60 -7 -79 -20 -88 -23 -14 -52 3 -56 33 -3 16 -9 21 -25 19 -18 -2
-21 -9 -19 -33 5 -47 28 -65 82 -65 69 0 84 21 89 126 l3 84 39 0 39 0 0 -160
0 -160 25 0 25 0 0 160 0 160 50 0 50 0 0 -160 0 -160 25 0 25 0 0 160 0 160
50 0 50 0 0 -160 0 -160 25 0 25 0 0 160 0 160 120 0 c120 0 120 0 120 -24 0
-21 -5 -24 -50 -28 -69 -7 -100 -36 -100 -95 0 -30 6 -49 20 -63 l20 -20 -21
-29 c-25 -34 -21 -87 9 -115 29 -25 78 -31 107 -12 33 22 35 21 35 -14 0 -23
4 -30 20 -30 19 0 20 7 20 140 0 133 -1 140 -20 140 -11 0 -20 -6 -20 -14 0
-8 -10 -22 -22 -30 -48 -34 -101 -10 -101 44 0 45 24 60 95 60 l58 0 0 45 0
45 140 0 140 0 0 -47 c0 -27 -4 -43 -8 -37 -11 18 -49 34 -77 34 -82 0 -131
-91 -90 -170 19 -37 43 -50 94 -50 28 0 48 7 61 20 20 20 20 20 20 -25 0 -41
2 -45 25 -45 25 0 25 0 25 95 0 82 3 98 20 115 43 43 110 10 110 -53 0 -38
-25 -67 -58 -67 -15 0 -22 -6 -22 -20 0 -29 60 -27 95 3 51 43 41 157 -14 187
-32 17 -85 12 -109 -10 l-22 -21 0 46 0 45 135 0 135 0 0 -160 c0 -153 1 -160
20 -160 19 0 20 7 20 160 l0 160 111 0 112 0 -6 -41 c-7 -54 -24 -70 -81 -76
l-46 -6 0 -54 c0 -63 20 -117 48 -132 12 -6 39 -11 62 -11 48 0 90 34 90 75 0
20 -5 25 -25 25 -17 0 -25 -5 -25 -18 0 -44 -58 -57 -84 -20 -9 12 -16 42 -16
65 l0 43 110 0 110 0 0 -85 c0 -84 0 -85 25 -85 l25 0 0 160 0 160 30 0 c25 0
30 4 30 25 l0 25 -555 0 -555 0 0 24 c0 39 -52 83 -115 97 -80 18 -153 0 -194
-47 -17 -19 -31 -44 -31 -54 0 -19 -8 -20 -317 -20 l-318 1 -27 45 c-29 47
-74 74 -123 74 -18 0 -25 -5 -25 -20 0 -15 7 -20 26 -20 34 0 59 -14 84 -50
l21 -30 -240 0 -240 0 -7 23 c-16 55 -84 95 -177 104 -123 11 -227 -31 -242
-97 -6 -29 -9 -30 -61 -30 -46 0 -54 3 -54 19 0 25 -35 68 -73 88 -22 12 -56
17 -112 17 -56 0 -90 -5 -112 -17 -38 -20 -73 -63 -73 -88 0 -18 -14 -19 -305
-19 -291 0 -305 1 -305 19 0 25 -35 68 -71 87 -28 14 -143 28 -164 20z m117
-46 c21 -6 44 -21 53 -33 31 -44 24 -47 -120 -47 -144 0 -151 3 -120 48 27 37
114 52 187 32z m988 -6 c38 -15 60 -39 60 -63 0 -7 -46 -11 -135 -11 -144 0
-151 3 -120 48 29 41 126 54 195 26z m516 5 c40 -10 84 -47 84 -70 0 -5 -74
-9 -165 -9 -129 0 -165 3 -165 13 0 60 131 95 246 66z m1552 -16 c14 -10 29
-29 33 -41 8 -22 8 -22 -116 -22 -133 0 -141 3 -110 48 31 44 143 53 193 15z
m-2628 -214 c0 -98 -1 -101 -29 -130 -23 -22 -39 -29 -70 -29 -40 0 -71 19
-71 45 0 19 39 45 67 45 14 0 23 6 23 15 0 9 -9 15 -24 15 -13 0 -34 9 -47 19
-33 27 -16 55 35 59 33 3 36 6 36 33 0 27 2 29 40 29 l40 0 0 -101z m1540 17
c0 -68 -4 -88 -20 -109 -48 -60 -159 -32 -160 41 0 13 6 22 16 22 8 0 29 13
45 29 21 22 29 39 29 65 0 36 0 36 45 36 l45 0 0 -84z m2170 29 l0 -55 -56 0
c-49 0 -55 2 -49 18 4 9 9 34 12 55 6 36 6 37 49 37 l44 0 0 -55z m-4076 -57
c39 -56 6 -122 -61 -122 -64 0 -98 79 -53 124 29 29 94 27 114 -2z m976 2 c46
-46 11 -124 -55 -124 -27 0 -43 6 -56 23 -42 52 -10 121 56 121 22 0 43 -8 55
-20z m2360 -2 c42 -46 14 -118 -46 -118 -66 0 -97 69 -52 117 27 29 71 30 98
1z m-1920 -18 c34 -34 20 -80 -27 -95 -17 -4 -29 1 -48 19 -31 31 -31 41 0 71
29 30 49 31 75 5z m1620 -200 c-14 -25 -54 -36 -86 -21 -19 8 -24 18 -24 45 0
39 6 44 70 66 l45 15 3 -42 c2 -23 -2 -51 -8 -63z"/>
<path d="M4980 375 c-19 -23 -8 -50 20 -50 19 0 26 6 28 24 5 35 -26 53 -48
26z"/>
<path d="M4982 171 c-8 -4 -12 -19 -10 -32 2 -18 9 -24 28 -24 19 0 26 6 28
24 3 20 -11 41 -28 41 -3 0 -11 -4 -18 -9z"/>
</g>
</svg>
