<svg id="Layer_1" data-name="Layer 1" xmlns="http://www.w3.org/2000/svg" viewBox="0 0 1489.87 1489.87"><defs><style>.cls-1{fill:#bc2432;}.cls-2{fill:#fff;}</style></defs><circle class="cls-1" cx="744.94" cy="744.94" r="744.94"/><polygon class="cls-2" points="1157.31 647.38 1170.61 626.69 1182.44 607.48 1191.31 589.74 1197.22 566.09 1225.3 569.05 1251.9 569.05 1277.03 569.05 1300.68 566.09 1263.73 608.96 1214.95 673.99 1129.23 786.32 1212 906.04 1235.65 940.04 1260.77 972.55 1277.03 991.77 1302.16 1015.42 1269.64 1010.98 1237.13 1008.03 1206.09 1010.98 1173.57 1015.42 1169.13 999.16 1163.22 982.9 1152.88 962.21 1135.14 932.65 1080.45 849.88 1012.46 950.38 997.68 969.6 988.81 985.86 982.9 999.16 978.47 1013.94 950.38 1010.98 920.82 1009.51 894.22 1010.98 869.09 1013.94 883.87 1000.64 894.22 990.29 906.04 976.99 950.38 923.78 1044.98 796.67 971.08 687.29 920.82 617.82 900.13 592.7 873.52 566.09 907.52 569.05 940.04 572 974.03 569.05 1006.55 566.09 1005.07 574.96 1005.07 583.83 1009.51 595.65 1031.68 632.6 1093.75 733.11 1157.31 647.38"/><polygon class="cls-2" points="205.45 734.59 202.49 642.95 199.54 610.43 195.1 582.35 189.19 564.61 212.84 567.57 237.97 569.05 261.61 567.57 286.74 564.61 277.87 589.74 274.92 603.04 271.96 617.82 269 662.16 269 733.11 269 780.41 269 860.22 270.48 938.56 271.96 966.64 274.92 985.86 279.35 1000.64 285.26 1015.42 261.61 1012.46 236.49 1010.98 211.36 1012.46 187.71 1015.42 193.62 1003.59 196.58 990.29 199.54 969.6 202.49 938.56 203.97 860.22 205.45 781.89 205.45 734.59"/><polygon class="cls-2" points="580.87 935.6 580.87 966.64 589.74 959.25 610.43 937.08 631.13 911.96 650.34 883.87 639.99 934.13 638.52 966.64 639.99 981.42 642.95 993.25 648.86 1002.12 659.21 1009.51 669.55 1013.94 682.86 1015.42 693.2 1013.94 703.55 1012.46 713.9 1008.03 725.72 1003.59 749.37 987.34 774.5 965.16 799.62 938.56 821.79 910.48 827.71 900.13 815.88 888.31 792.23 916.39 774.5 935.6 762.67 947.43 750.85 954.82 741.98 959.25 734.59 962.21 728.68 960.73 721.29 957.77 719.81 954.82 716.85 950.38 715.37 940.04 716.85 928.21 719.81 913.43 784.84 678.42 879.44 323.69 880.92 317.78 876.48 313.35 787.8 328.13 721.29 338.47 721.29 354.73 740.5 353.25 755.28 353.25 768.58 354.73 777.45 357.69 778.93 362.12 781.89 366.56 784.84 382.81 783.37 393.16 778.93 409.42 724.24 610.43 716.85 589.74 713.9 580.87 707.98 573.48 699.12 566.09 687.29 560.18 672.51 555.75 653.3 555.75 629.65 557.22 606 563.14 582.35 572 580.87 572 580.87 611.91 585.31 608.96 603.04 595.65 622.26 586.78 639.99 580.87 659.21 579.39 672.51 579.39 684.34 583.83 693.2 589.74 699.12 598.61 703.55 608.96 706.51 620.78 707.98 634.08 707.98 647.38 707.98 672.51 705.03 697.64 700.59 721.29 693.2 746.41 685.81 771.54 673.99 798.14 662.16 823.27 647.38 849.88 631.13 876.48 614.87 900.13 598.61 919.35 580.87 935.6"/><polygon class="cls-2" points="580.87 611.91 580.87 572 558.7 583.83 535.05 600.09 509.93 619.3 486.28 641.47 462.63 668.08 438.98 697.64 418.29 725.72 402.03 752.33 387.25 780.41 376.9 808.49 369.51 836.57 365.08 863.18 363.6 889.78 365.08 919.35 370.99 945.95 375.42 956.3 381.34 966.64 387.25 975.51 394.64 984.38 412.38 997.68 430.11 1006.55 449.33 1012.46 470.02 1013.94 496.62 1012.46 520.27 1006.55 545.4 994.73 567.57 978.47 580.87 966.64 580.87 935.6 564.61 948.91 546.88 956.3 529.14 962.21 511.4 963.69 496.62 962.21 483.32 959.25 472.98 950.38 465.58 941.52 458.19 929.69 455.24 916.39 452.28 904.56 450.8 888.31 452.28 867.61 455.24 846.92 459.67 824.75 467.06 801.1 475.93 777.45 486.28 752.33 499.58 727.2 514.36 699.12 530.62 671.03 548.36 647.38 567.57 626.69 580.87 611.91"/></svg>