<?xml version="1.0" encoding="utf-8"?>
<!-- Generator: Adobe Illustrator 27.1.1, SVG Export Plug-In . SVG Version: 6.00 Build 0)  -->
<svg version="1.1" id="Layer_1" xmlns="http://www.w3.org/2000/svg" xmlns:xlink="http://www.w3.org/1999/xlink" x="0px" y="0px"
	 viewBox="0 0 403.7 100.2" style="enable-background:new 0 0 403.7 100.2;" xml:space="preserve">
<style type="text/css">
	.st0{fill:#FFFFFF;}
	.st1{fill:#FFC9DD;}
	.st2{fill:#FFA7B3;}
	.st3{fill:#A4BFDD;}
	.st4{fill:#99E2D1;}
	.st5{fill:#EBD7A0;}
	.st6{fill:#A499D7;}
	.st7{fill:#56B8B6;}
	.st8{fill:#80C288;}
	.st9{fill:#FF7A7F;}
	.st10{fill:#FFBA86;}
	.st11{fill:#835283;}
	.st12{fill:#8075B4;}
	.st13{fill:#2E9D87;}
	.st14{fill:#549558;}
	.st15{fill:#FF9952;}
	.st16{fill:#E9666D;}
	.st17{fill:#FFD2D2;}
	.st18{fill:#F0CBA9;}
	.st19{fill:#C6E4A2;}
	.st20{fill:#68C280;}
	.st21{fill:#B4EEE0;}
	.st22{fill:#D3D6E2;}
	.st23{fill:#FFEBB2;}
	.st24{fill:#FFCCAA;}
	.st25{fill:#E9D59E;}
	.st26{fill:none;stroke:#000000;stroke-width:0.5;stroke-linecap:round;stroke-miterlimit:10;}
	.st27{fill:none;stroke:#000000;stroke-width:1.9856;stroke-miterlimit:10;}
	.st28{fill:none;stroke:#000000;stroke-linecap:round;stroke-miterlimit:10;}
	.st29{fill:#222222;}
	.st30{fill:none;stroke:#FFFFFF;stroke-miterlimit:10;}
	.st31{fill:#825282;}
	.st32{fill:#8075B3;}
	.st33{fill:#A3BEDC;}
	.st34{fill:#56B7B5;}
	.st35{fill:#2E9C86;}
	.st36{fill:#80D4BE;}
	.st37{fill:#98E1D0;}
	.st38{fill:#E8666D;}
	.st39{fill:#FFA6B2;}
	.st40{fill:#FFD1D1;}
	.st41{fill:#68C180;}
	.st42{fill:#FF9852;}
	.st43{fill:#FFB985;}
	.st44{fill:#C5E3A1;}
	.st45{fill:#EFCAA8;}
	.st46{fill:none;stroke:#FFFFFF;stroke-width:0.5;stroke-linecap:round;stroke-miterlimit:10;}
	.st47{fill:none;stroke:#FFFFFF;stroke-width:1.9856;stroke-miterlimit:10;}
	.st48{fill:none;stroke:#000000;stroke-miterlimit:10;}
	.st49{fill:none;}
	.st50{fill:#A398D6;}
	.st51{opacity:0.6;fill:#EBD7A0;}
	.st52{opacity:0.43;fill:#EBD7A0;}
	.st53{fill:#549458;}
	.st54{fill:#FFCBA9;}
	.st55{fill:#E8D49D;}
	.st56{fill:#FFEAB1;}
	.st57{opacity:0.6;fill:none;stroke:#FFFFFF;stroke-width:1.9856;stroke-miterlimit:10;}
	.st58{opacity:0.43;fill:none;stroke:#FFFFFF;stroke-width:1.9856;stroke-miterlimit:10;}
	.st59{fill:none;stroke:#FFFFFF;stroke-linecap:round;stroke-miterlimit:10;}
	.st60{opacity:0.6;fill:none;stroke:#FFFFFF;stroke-linecap:round;stroke-miterlimit:10;}
	.st61{opacity:0.43;fill:none;stroke:#FFFFFF;stroke-linecap:round;stroke-miterlimit:10;}
	.st62{opacity:0.6;fill:none;stroke:#FFFFFF;stroke-width:0.5;stroke-linecap:round;stroke-miterlimit:10;}
	.st63{opacity:0.43;fill:none;stroke:#FFFFFF;stroke-width:0.5;stroke-linecap:round;stroke-miterlimit:10;}
	.st64{opacity:0.6;fill:none;stroke:#000000;stroke-width:1.9856;stroke-miterlimit:10;}
	.st65{opacity:0.43;fill:none;stroke:#000000;stroke-width:1.9856;stroke-miterlimit:10;}
	.st66{opacity:0.6;fill:none;stroke:#000000;stroke-linecap:round;stroke-miterlimit:10;}
	.st67{opacity:0.43;fill:none;stroke:#000000;stroke-linecap:round;stroke-miterlimit:10;}
	.st68{opacity:0.6;fill:none;stroke:#000000;stroke-width:0.5;stroke-linecap:round;stroke-miterlimit:10;}
	.st69{opacity:0.43;fill:none;stroke:#000000;stroke-width:0.5;stroke-linecap:round;stroke-miterlimit:10;}
	.st70{fill-rule:evenodd;clip-rule:evenodd;fill:#F28F94;}
	.st71{fill-rule:evenodd;clip-rule:evenodd;fill:#F7BA81;}
	.st72{fill-rule:evenodd;clip-rule:evenodd;fill:#F9C6B0;}
	.st73{fill-rule:evenodd;clip-rule:evenodd;fill:#9487A1;}
	.st74{fill-rule:evenodd;clip-rule:evenodd;fill:#CB6564;}
	.st75{fill-rule:evenodd;clip-rule:evenodd;fill:none;stroke:#FFFFFF;stroke-width:1.9856;stroke-miterlimit:10;}
	.st76{fill-rule:evenodd;clip-rule:evenodd;fill:none;stroke:#000000;stroke-linecap:round;stroke-miterlimit:10;}
	.st77{fill-rule:evenodd;clip-rule:evenodd;fill:none;stroke:#FFFFFF;stroke-linecap:round;stroke-miterlimit:10;}
	.st78{fill-rule:evenodd;clip-rule:evenodd;fill:none;stroke:#FFFFFF;stroke-width:0.5;stroke-linecap:round;stroke-miterlimit:10;}
	.st79{fill:#FFC8DC;}
	.st80{fill:#1E3250;}
	.st81{fill-rule:evenodd;clip-rule:evenodd;fill:none;stroke:#000000;stroke-width:1.9856;stroke-miterlimit:10;}
	.st82{fill-rule:evenodd;clip-rule:evenodd;fill:none;stroke:#000000;stroke-width:0.5;stroke-linecap:round;stroke-miterlimit:10;}
	.st83{fill:#1A477C;}
	.st84{fill:#3D7C6B;}
	.st85{fill:none;stroke:#FF0000;stroke-width:2;stroke-linecap:round;stroke-miterlimit:10;}
	.st86{fill:#E1E3E7;}
	.st87{fill:none;stroke:#B0B0B0;stroke-miterlimit:10;}
	.st88{fill:none;stroke:#B0B0B0;stroke-miterlimit:10;stroke-dasharray:5.512,5.512,5.512,5.512;}
	.st89{fill:none;stroke:#B0B0B0;stroke-miterlimit:10;stroke-dasharray:5.512,5.512,5.512,5.512,5.512,5.512;}
	.st90{fill:none;stroke:#B0B0B0;stroke-miterlimit:10;stroke-dasharray:4.8247,4.8247,4.8247,4.8247;}
	.st91{fill:none;stroke:#B0B0B0;stroke-miterlimit:10;stroke-dasharray:4.8247,4.8247,4.8247,4.8247,4.8247,4.8247;}
</style>
<g>
	<g>
		<g>
			<path class="st29" d="M123,72.9V28.1h5v44.8H123z"/>
			<path class="st29" d="M141.6,72.9h-4.9V40.5h4.8v2.3c3.5-1.9,6.8-2.9,10-2.9c4.3,0,7.2,1.2,8.7,3.5c1.5,2.3,2.2,6.5,2.2,12.4
				v17.1h-4.8v-17c0-4.5-0.4-7.6-1.3-9.2c-0.9-1.7-2.8-2.5-5.7-2.5c-1.4,0-2.8,0.2-4.4,0.6c-1.5,0.4-2.7,0.8-3.5,1.2l-1.2,0.6V72.9z
				"/>
			<path class="st29" d="M186.8,44.7h-10.3v15.5c0,3.7,0.3,6.2,0.8,7.3c0.5,1.2,1.8,1.7,3.9,1.7l5.8-0.4l0.3,4
				c-2.9,0.5-5.1,0.7-6.6,0.7c-3.4,0-5.7-0.8-7-2.5c-1.3-1.6-1.9-4.8-1.9-9.4v-17h-4.6v-4.2h4.6v-9.9h4.8v9.9h10.3V44.7z"/>
			<path class="st29" d="M213.5,68.9l1.9-0.2l0.1,3.8c-4.9,0.7-9.1,1-12.6,1c-4.7,0-8-1.3-9.9-4c-1.9-2.7-2.9-6.9-2.9-12.6
				c0-11.4,4.5-17,13.5-17c4.4,0,7.6,1.2,9.8,3.7c2.2,2.4,3.2,6.3,3.2,11.5l-0.3,3.7H195c0,3.6,0.6,6.2,1.9,8
				c1.3,1.7,3.5,2.6,6.8,2.6C206.9,69.3,210.2,69.1,213.5,68.9z M211.7,54.8c0-4-0.6-6.8-1.9-8.4c-1.3-1.6-3.3-2.5-6.2-2.5
				c-2.9,0-5,0.9-6.5,2.6c-1.4,1.7-2.2,4.5-2.2,8.3H211.7z"/>
			<path class="st29" d="M222.9,72.9V40.5h4.8v4.4c3.8-2.6,7.7-4.3,11.8-5.1v4.9c-1.8,0.3-3.7,0.9-5.7,1.6c-2,0.7-3.5,1.4-4.5,1.9
				l-1.6,0.8v23.8H222.9z"/>
			<path class="st29" d="M244.4,72.9V26.4h4.9v46.5H244.4z"/>
			<path class="st29" d="M279.6,68.9l1.9-0.2l0.1,3.8c-4.9,0.7-9.1,1-12.6,1c-4.7,0-8-1.3-9.9-4c-1.9-2.7-2.9-6.9-2.9-12.6
				c0-11.4,4.5-17,13.5-17c4.4,0,7.6,1.2,9.8,3.7c2.2,2.4,3.2,6.3,3.2,11.5l-0.3,3.7h-21.4c0,3.6,0.6,6.2,1.9,8
				c1.3,1.7,3.5,2.6,6.8,2.6C273,69.3,276.3,69.1,279.6,68.9z M277.9,54.8c0-4-0.6-6.8-1.9-8.4c-1.3-1.6-3.3-2.5-6.2-2.5
				c-2.9,0-5,0.9-6.5,2.6c-1.4,1.7-2.2,4.5-2.2,8.3H277.9z"/>
			<path class="st29" d="M313.9,26.4v46.5h-4.8v-2.2c-3.3,1.9-6.6,2.8-9.8,2.8c-1.7,0-3.2-0.2-4.5-0.6c-1.3-0.4-2.5-1.2-3.6-2.3
				c-2.3-2.3-3.5-6.6-3.5-12.9c0-6.3,1-10.8,3.1-13.6c2.1-2.8,5.6-4.2,10.4-4.2c2.5,0,5.2,0.3,8,0.8V26.4H313.9z M297.1,68.8
				c0.8,0.3,1.8,0.5,3,0.5c1.2,0,2.6-0.2,4.1-0.6c1.5-0.4,2.7-0.8,3.6-1.2l1.3-0.6V44.9c-2.8-0.5-5.3-0.8-7.7-0.8
				c-3.3,0-5.6,1-6.9,3.1c-1.3,2.1-1.9,5.3-1.9,9.7c0,5,0.8,8.4,2.3,10.1C295.5,67.9,296.3,68.5,297.1,68.8z"/>
			<path class="st29" d="M334.5,88.1c-5.2,0-8.8-0.7-10.8-2.1c-2.1-1.4-3.1-4-3.1-7.7c0-1.8,0.4-3.2,1.2-4.3
				c0.8-1.1,2.1-2.3,3.9-3.7c-1.2-0.8-1.8-2.3-1.8-4.5c0-0.7,0.5-2.1,1.6-4.1l0.6-1c-3.4-1.6-5.1-4.8-5.1-9.8
				c0-7.4,4-11.1,12.1-11.1c2.1,0,4,0.2,5.8,0.6l1,0.2l9.6-0.3v4.1l-6.2-0.1c1.4,1.4,2.1,3.6,2.1,6.5c0,4.1-1,6.9-3,8.5
				c-2,1.6-5.2,2.4-9.5,2.4c-1.2,0-2.2-0.1-3.2-0.3c-0.8,1.9-1.2,3.1-1.2,3.7c0,1.3,0.4,2.2,1.2,2.5c0.8,0.3,3.3,0.5,7.4,0.5
				c4.1,0,7.1,0.6,8.9,1.9c1.8,1.3,2.7,3.8,2.7,7.6C348.8,84.7,344.1,88.1,334.5,88.1z M325.3,78c0,2.3,0.6,3.9,1.9,4.8
				c1.3,0.9,3.6,1.3,7.1,1.3c3.4,0,5.9-0.5,7.4-1.4c1.5-0.9,2.2-2.5,2.2-4.8c0-2.2-0.5-3.7-1.6-4.3c-1.1-0.6-3.2-1-6.3-1l-7-0.3
				c-1.4,1-2.4,1.9-2.9,2.7C325.6,75.8,325.3,76.7,325.3,78z M325.8,51c0,2.5,0.6,4.4,1.7,5.4c1.1,1.1,3,1.6,5.7,1.6
				c2.6,0,4.5-0.5,5.6-1.6c1.1-1.1,1.7-2.9,1.7-5.5c0-2.6-0.6-4.4-1.7-5.5c-1.1-1.1-3-1.6-5.6-1.6c-2.6,0-4.5,0.6-5.7,1.7
				C326.4,46.6,325.8,48.4,325.8,51z"/>
			<path class="st29" d="M376,68.9l1.9-0.2l0.1,3.8c-4.9,0.7-9.1,1-12.6,1c-4.7,0-8-1.3-9.9-4c-1.9-2.7-2.9-6.9-2.9-12.6
				c0-11.4,4.5-17,13.5-17c4.4,0,7.6,1.2,9.8,3.7c2.2,2.4,3.2,6.3,3.2,11.5l-0.3,3.7h-21.4c0,3.6,0.6,6.2,1.9,8
				c1.3,1.7,3.5,2.6,6.8,2.6C369.4,69.3,372.7,69.1,376,68.9z M374.2,54.8c0-4-0.6-6.8-1.9-8.4c-1.3-1.6-3.3-2.5-6.2-2.5
				c-2.9,0-5,0.9-6.5,2.6c-1.4,1.7-2.2,4.5-2.2,8.3H374.2z"/>
			<path class="st29" d="M385.4,72.9V40.5h4.8v4.4c3.8-2.6,7.7-4.3,11.8-5.1v4.9c-1.8,0.3-3.7,0.9-5.7,1.6c-2,0.7-3.5,1.4-4.5,1.9
				l-1.6,0.8v23.8H385.4z"/>
		</g>
	</g>
	<g>
		<path class="st0" d="M83.9,61.7c2.3-7,1.4-14.8,0-21.6c-2.9-6.2-6.5-12.7-12.4-16.9c-6-4.3-13.7-5.9-20.5-6.7
			c-6.8,0.8-14.2,2-20.1,6.3c-6,4.3-9.8,11.3-12.7,17.6c-1.3,6.7-2.3,14.5,0,21.4c2.3,7,7.6,12.3,12.7,16.9c6,3.3,12.8,6.5,20.1,6.5
			c7.4,0,14.5-3.2,20.6-6.6C76.5,73.8,81.6,68.6,83.9,61.7"/>
		<path class="st21" d="M51,83.8c-7.3,0-14.2-1.9-20.2-5.2c0.2,4.7,9.3,10.2,20.4,10.2c11,0,19.6-6.8,20.3-10.3
			C65.4,81.9,58.4,83.8,51,83.8"/>
		<path class="st22" d="M30.8,78.6C25.7,74,21.7,68,19.4,61c-2.3-6.9-2.6-14-1.3-20.7c-4,1-6.1,14.5-3.5,22.3
			C17.3,70.5,26.8,80.3,30.8,78.6"/>
		<path class="st1" d="M31.5,24.1c5.9-4.3,12.6-6.8,19.4-7.6c-3.3-2.9-16.7-0.8-22.5,3.6c-5.8,4.4-12.7,16-10.3,20.2
			C21,34.1,25.5,28.4,31.5,24.1"/>
		<path class="st23" d="M50.9,16.5c6.9,0.8,13.7,3.3,19.7,7.6c5.9,4.3,10.4,9.8,13.3,16c2.5-4.2-3.1-15.3-10.5-20.1
			S52.8,13.9,50.9,16.5"/>
		<path class="st19" d="M83.9,40.1C85.3,46.8,85,54,82.7,61c-2.3,6.9-6.2,12.8-11.2,17.5c5.7,0.5,13.6-7,16-16.1
			C89.9,53.3,87.5,40.6,83.9,40.1"/>
		<path class="st3" d="M14.6,62.7c-2.4,3,0.6,15.8,11,23.1c10.3,7.2,23.3,5.7,25.6,3c-7.6-1.4-14.7-5-20.4-10.2
			C24,74.9,18.4,69.3,14.6,62.7"/>
		<path class="st4" d="M87.5,62.4c-3.7,6.7-9.3,12.3-16,16.1c-5.7,5.2-12.7,8.8-20.3,10.3c2.7,3.3,17.5,1.6,25.6-3.2
			C84.7,80.8,89.1,66.6,87.5,62.4"/>
		<path class="st2" d="M18.1,40.3c1.5-7.5,5.1-14.5,10.3-20.2c-5.4-2-15.6,7-18.8,17.5c-3.2,10.5-0.6,22.5,5,25
			C13.7,55,14.9,47.3,18.1,40.3"/>
		<path class="st24" d="M50.9,16.5c7.7-0.9,15.5,0.3,22.5,3.5c2.3-4.3-12.3-12.3-22.6-12.3c-10.2,0-22.3,7-22.5,12.5
			C35.4,16.9,43.2,15.6,50.9,16.5"/>
		<path class="st25" d="M87.5,62.4c4.9-0.9,8.5-12.9,4.8-25.1c-3.7-12.1-15-18.6-18.9-17.3c5.3,5.6,8.9,12.6,10.5,20.1
			C87.2,47,88.4,54.8,87.5,62.4"/>
		<path class="st6" d="M25.6,85.7c-1.2-1.2-2.3-2.6-3.3-4c-4.3-5.8-6.8-12.4-7.6-19.1c-3.4-6-5.3-12.8-5.3-20.2
			c0-1.7,0.1-3.3,0.3-4.9C5.7,38.7,1,54.2,5.3,65.7C9.6,77.2,22,86.4,25.6,85.7"/>
		<path class="st7" d="M76.7,85.6c-1.6,0.7-3.2,1.4-4.8,1.9c-6.9,2.2-14,2.6-20.7,1.3c-6.8,1.3-14,1-21-1.2
			c-1.6-0.5-3.1-1.1-4.6-1.8c1.8,5.6,11.1,12.8,25.6,12.8C65.7,98.5,74,91.5,76.7,85.6"/>
		<path class="st20" d="M92.3,37.3c0.2,1.7,0.3,3.4,0.3,5.1c0,7.2-1.9,14-5.2,19.9c-0.8,6.8-3.3,13.5-7.7,19.4c-1,1.3-2,2.6-3.1,3.8
			c6.7,0.4,16.6-6.9,20.2-20.2C100.5,52.1,96,39,92.3,37.3"/>
		<path class="st9" d="M9.6,37.6c0.8-1.5,1.8-2.9,2.8-4.3c4.3-5.8,9.8-10.2,16-13.1c4.7-5,10.7-9,17.7-11.2c1.6-0.5,3.2-0.9,4.8-1.2
			c-5.7-2.8-19.5-1.1-28.3,4.6C13.8,18,8,32.2,9.6,37.6"/>
		<path class="st10" d="M50.9,7.7c1.7,0.3,3.4,0.7,5,1.3c6.9,2.2,12.9,6.1,17.5,11c6.3,2.9,11.9,7.3,16.2,13.2
			c1,1.3,1.9,2.7,2.7,4.1c2.6-4.8-5.2-19.3-13.1-25.2C71.2,6.2,56.8,5.1,50.9,7.7"/>
		<path class="st11" d="M9.6,37.6c1.2-10,5.9-18.8,13-25.3c-8.8,4.9-15.8,13-19.2,23.2C0,45.8,1,56.6,5.3,65.7
			C3.4,56.4,4.7,46.4,9.6,37.6"/>
		<path class="st12" d="M25.6,85.7C16.4,81.6,9.3,74.3,5.3,65.7c2,9.8,7.6,18.9,16.4,25.2c8.9,6.4,19.5,8.8,29.6,7.6
			C41.6,97.4,32.5,93.1,25.6,85.7"/>
		<path class="st13" d="M76.7,85.6c-6.9,7.4-16,11.8-25.5,12.9c10,1.2,20.5-1.3,29.3-7.6c8.9-6.4,14.5-15.6,16.4-25.5
			C92.9,74.1,85.9,81.3,76.7,85.6"/>
		<path class="st14" d="M92.3,37.3c5,8.7,6.4,18.7,4.5,28c4.2-9.1,5.1-19.7,1.7-29.9C95.2,25.1,88.1,17,79.2,12.1
			C86.3,18.6,91.1,27.4,92.3,37.3"/>
		<path class="st15" d="M50.9,7.7c9.9-2,19.9-0.2,28.3,4.4C71.8,5.3,61.9,1.2,51,1.2c-11,0-21,4.2-28.4,11.1C31,7.6,41,5.8,50.9,7.7
			"/>
	</g>
</g>
</svg>
