<svg xmlns="http://www.w3.org/2000/svg" viewBox="0 0 400 245" width="400" height="245"><path fill="none" pointer-events="none" d="M0 0h400v245H0z"/><path d="M152.202 239.8v-42.823H103.77z" class="st3" fill="#1a9c38"/><path d="M103.77 4.81h192.168v192.167H103.77V4.81z"/><path d="M152.202 90.65h10.584v10.585h-10.584V90.65zM152.202 69.483h10.584v10.584h-10.584V69.483zM141.618 58.85h-10.633v42.385h10.633V90.65h10.584V80.067h-10.584z" class="st1" fill="#fff"/><path d="M173.37 69.483h10.583v31.752H173.37V69.483zM226.338 143.424h-10.633V80.067h-10.584v21.168h-10.584V69.483h31.8v29.85z" class="st4" fill="#17b838"/><path d="M141.618 132.986h10.584v10.584h-10.584v-10.584zM152.202 111.819h10.584v21.167h-10.584V111.82zM130.985 111.819h10.584v21.167h-10.584V111.82z" class="st1" fill="#fff"/><path class="st4" d="M173.37 143.57h31.751V111.82H173.37v31.751zm10.583-21.168h10.584v10.584h-10.584v-10.584z" fill="#17b838"/><path d="M258.09 111.819h10.583v10.583H258.09V111.82zM247.506 122.402v-21.167h-10.584v42.335h10.584v-10.584h10.583v-10.584zM258.09 132.986h10.583v10.584H258.09v-10.584z" class="st1" fill="#fff"/></svg>
