<svg id="Layer_1" data-name="Layer 1" xmlns="http://www.w3.org/2000/svg" viewBox="0 0 864 261.3893">
  <g>
    <path id="logoMark" d="M42.7471,146.4568,10.059,187.3981,5.8468,176.0017A130.4042,130.4042,0,0,1,.8179,158.8234L.1171,155.628l18.3812-23.02a2.1659,2.1659,0,0,0,.01-2.69L0,106.3793l.6741-3.1455A130.1609,130.1609,0,0,1,5.662,85.8808L9.884,74.31l32.9873,41.9532A23.9239,23.9239,0,0,1,42.7471,146.4568ZM185.77,132.1484a5.5839,5.5839,0,0,1,.01-3.9788l34.7259-90.3741-3.42-3.1567a132.1149,132.1149,0,0,0-11.9259-9.774l-7.2287-5.2481-37.9087,98.6575a33.1616,33.1616,0,0,0-.0592,23.64l37.8213,99.95,7.2638-5.2607a131.6739,131.6739,0,0,0,11.9529-9.7768l3.4069-3.1392L185.77,132.1491Zm52.67-2.9439,18.4448-23.1016-.6894-3.1849a130.2167,130.2167,0,0,0-4.988-17.2276L247.01,74.25l-32.8192,41.105a23.92,23.92,0,0,0-.1256,30.1948l32.8587,41.7882,4.2391-11.5255a130.3466,130.3466,0,0,0,5.0245-17.3072l.6841-3.1554-18.4423-23.4546A2.1662,2.1662,0,0,1,238.4393,129.2045ZM121.1536.2062l-6.4812.3582V260.8238l6.4812.3581c2.4876.1376,4.9484.2074,7.3146.2074s4.8271-.07,7.3147-.2074l6.4812-.3581V.5644L135.7829.2062A129.8572,129.8572,0,0,0,121.1536.2062ZM59.0221,19.6048,51.7553,24.881a131.7968,131.7968,0,0,0-11.9442,9.7966l-3.3985,3.139,34.7541,91.8463a5.5785,5.5785,0,0,1-.01,3.98l-34.6075,90.068,3.43,3.1559a132.0153,132.0153,0,0,0,11.9316,9.7543l7.2258,5.2326,37.7761-98.3141a33.1315,33.1315,0,0,0,.0606-23.6411Z" style="fill: #61d7ac"/>
    <path id="fullLogo" d="M437.4842,119.3114a21.9378,21.9378,0,0,0-.0057,19.7468L483.83,232.7469H453.2206l-.2976-.6036-39.9719-80.795a15.0733,15.0733,0,0,0-13.5927-8.44H362.6673v89.8387H335.0148V25.6314h27.6525v89.84h36.6911a15.0768,15.0768,0,0,0,13.5927-8.44l40.2708-81.4H483.83ZM827.38,107.2528l-.5219-1.0525a43.9882,43.9882,0,0,0-39.6706-24.6366H721.7237V232.0513H748.665V108.5049h38.5222a17.3834,17.3834,0,0,1,9.5057,2.82,16.6262,16.6262,0,0,1,4.37,4.0516,13.7568,13.7568,0,0,1,1.9438,4.5042q.4787,1.64.962,3.2791,1.4319,4.8828,2.8643,9.7655,1.917,6.535,3.8338,13.07,2.23,7.6038,4.4608,15.2074,2.3729,8.09,4.746,16.18,2.3444,7.9931,4.6892,15.9857,2.1448,7.3126,4.29,14.6256,1.7748,6.05,3.5493,12.1,1.233,4.2037,2.4662,8.4079.52,1.7744,1.0413,3.5493l.0128.0443H864ZM514.3262,25.7007a15.9786,15.9786,0,0,0,0,31.9561,15.9786,15.9786,0,1,0,0-31.9561ZM500.6346,232.7981h27.6525V80.8415H500.6346ZM703.497,156.9539a78.7675,78.7675,0,0,1-22.6064,55.62,77.4412,77.4412,0,0,1-55.6587,23.1835c-43.0068,0-77.9963-35.3519-77.9963-78.8039a79.2031,79.2031,0,0,1,22.6745-55.955,77.015,77.015,0,0,1,55.3218-23.1171C669.1181,77.8818,703.497,112.6145,703.497,156.9539Zm-27.92,0c0-28.9851-22.1145-51.6892-50.345-51.6892-28.08,0-50.0758,22.7041-50.0758,51.6892,0,28.8354,21.9959,51.4225,50.0758,51.4225C653.4624,208.3764,675.5769,185.7893,675.5769,156.9539Z" style="fill: #101c21"/>
  </g>
</svg>
