<?xml version="1.0" encoding="utf-8"?>
<!-- Generator: Adobe Illustrator 23.0.2, SVG Export Plug-In . SVG Version: 6.00 Build 0)  -->
<svg version="1.1" id="Layer_1" xmlns="http://www.w3.org/2000/svg" xmlns:xlink="http://www.w3.org/1999/xlink" x="0px" y="0px"
	 viewBox="0 0 400 245" style="enable-background:new 0 0 400 245;" xml:space="preserve">
<style type="text/css">
	.st0{fill:#20D6F5;}
	.st1{fill:#333333;}
	.st2{fill:url(#SVGID_1_);}
	.st3{fill:url(#SVGID_2_);}
	.st4{fill:url(#SVGID_3_);}
	.st5{fill:url(#SVGID_4_);}
	.st6{fill:url(#SVGID_5_);}
	.st7{fill:url(#SVGID_6_);}
	.st8{fill:url(#SVGID_7_);}
	.st9{fill:url(#SVGID_8_);}
	.st10{fill:url(#SVGID_9_);}
	.st11{fill:url(#SVGID_10_);}
	.st12{fill:url(#SVGID_11_);}
	.st13{fill:url(#SVGID_12_);}
	.st14{fill:#F37032;}
	.st15{fill:#58595B;}
	.st16{fill:#FFFFFF;}
	.st17{fill:#2C2523;}
	.st18{fill-rule:evenodd;clip-rule:evenodd;fill:#337E3D;}
	.st19{fill-rule:evenodd;clip-rule:evenodd;fill:#8BBF45;}
	.st20{fill:#2A2E7C;}
	.st21{fill:#43B4E4;}
	.st22{fill:url(#SVGID_13_);}
	.st23{fill:url(#SVGID_14_);}
	.st24{fill:url(#SVGID_15_);}
	.st25{fill:url(#SVGID_16_);}
	.st26{fill:url(#SVGID_17_);}
	.st27{fill:url(#SVGID_18_);}
	.st28{fill:url(#SVGID_19_);}
	.st29{fill:#E1251B;}
	.st30{fill:none;}
	.st31{fill:#4D4D4D;}
	.st32{fill:#A0CC40;}
	.st33{fill:#A682B8;}
	.st34{fill:#917A81;}
	.st35{fill:#E1496D;}
	.st36{fill:#C82A5C;}
	.st37{fill:#EA8096;}
	.st38{fill:#C04A7D;}
	.st39{fill:#C9DF91;}
	.st40{fill:#BD8549;}
	.st41{fill:#8B63A9;}
	.st42{fill:#0078BA;}
	.st43{fill:#231F20;}
	.st44{fill:#536657;}
	.st45{fill:#00A75D;}
	.st46{fill:#182B4F;}
	.st47{fill:#3665B0;}
	.st48{fill:#008FC8;}
	.st49{fill:#00A9E8;}
	.st50{fill:#29C2E3;}
	.st51{fill-rule:evenodd;clip-rule:evenodd;fill:url(#in_sf_base_1_);}
	.st52{fill-rule:evenodd;clip-rule:evenodd;fill:url(#in_sf_base_2_);}
	.st53{fill-rule:evenodd;clip-rule:evenodd;fill:url(#SVGID_20_);}
	.st54{fill-rule:evenodd;clip-rule:evenodd;fill:url(#out_sf_base_1_);}
	.st55{opacity:0.74;fill-rule:evenodd;clip-rule:evenodd;fill:url(#SVGID_21_);}
	.st56{fill-rule:evenodd;clip-rule:evenodd;fill:url(#in_up_right_1_);}
	.st57{fill-rule:evenodd;clip-rule:evenodd;fill:url(#in_up_right_2_);}
	.st58{fill-rule:evenodd;clip-rule:evenodd;fill:url(#SVGID_22_);}
	.st59{opacity:0.9;fill-rule:evenodd;clip-rule:evenodd;fill:url(#SVGID_23_);}
	.st60{fill:#241D1E;}
	.st61{fill:#727172;}
	.st62{fill:#5C5B5B;}
	.st63{opacity:0.2;fill-rule:evenodd;clip-rule:evenodd;fill:url(#SVGID_24_);}
	.st64{opacity:0.2;fill-rule:evenodd;clip-rule:evenodd;fill:url(#SVGID_25_);fill-opacity:0.42;}
	.st65{opacity:0.5;fill:#C5C5C4;}
	.st66{fill-rule:evenodd;clip-rule:evenodd;fill:url(#SVGID_26_);}
	.st67{opacity:0.9;fill-rule:evenodd;clip-rule:evenodd;fill:url(#SVGID_27_);}
	.st68{fill:url(#wing_low_sf_1_);}
	.st69{fill-rule:evenodd;clip-rule:evenodd;fill:url(#SVGID_28_);}
	.st70{fill-rule:evenodd;clip-rule:evenodd;fill:url(#SVGID_29_);}
	.st71{fill-rule:evenodd;clip-rule:evenodd;fill:url(#SVGID_30_);}
	.st72{fill-rule:evenodd;clip-rule:evenodd;fill:url(#SVGID_31_);}
	.st73{fill-rule:evenodd;clip-rule:evenodd;fill:#454242;}
	.st74{fill:#C5C5C4;}
	.st75{fill:url(#SVGID_32_);fill-opacity:0.8;}
	.st76{fill:#454242;}
	.st77{fill-rule:evenodd;clip-rule:evenodd;fill:url(#SVGID_33_);}
	.st78{fill-rule:evenodd;clip-rule:evenodd;fill:#DADBDA;}
	.st79{fill-rule:evenodd;clip-rule:evenodd;fill:url(#SVGID_34_);}
	.st80{fill-rule:evenodd;clip-rule:evenodd;fill:url(#SVGID_35_);}
	.st81{fill-rule:evenodd;clip-rule:evenodd;fill:url(#SVGID_36_);}
	.st82{fill-rule:evenodd;clip-rule:evenodd;fill:url(#SVGID_37_);}
	.st83{fill:#005BAB;}
	.st84{fill:url(#SVGID_38_);}
	.st85{fill:url(#SVGID_39_);}
	.st86{fill:#ED2924;}
	.st87{fill:#2F3A79;}
	.st88{fill-rule:evenodd;clip-rule:evenodd;fill:#E13A3E;}
	.st89{fill-rule:evenodd;clip-rule:evenodd;fill:#231F20;}
</style>
<g>
	<path class="st0" d="M147.9,130.8c-0.5-0.66-3.32-4.15-8.3-10.29c1.99-2.49,6.8-8.13,6.97-8.46c2.49-2.82,5.14-5.48,7.96-8.13
		l1.49-1.33h-11.95l-0.17,0.5c-1.49,2.99-3.48,5.97-5.64,8.46c-1.83,2.16-3.65,4.31-5.48,6.47v-5.81c0-2.99,0.5-5.97,1.33-8.79
		l0.33-1H124l0.17,1c0.83,3.15,1.33,6.47,1.16,9.79v17.59c0.17,3.48-0.33,6.97-1.33,10.45l-0.33,1h10.45l-0.33-1
		c-0.83-3.32-1.33-6.64-1.33-9.96v-7.63l7.63,9.62c1,1.33,1.99,2.65,2.99,3.98c0.83,1.33,1.49,2.82,1.99,4.31l0.17,0.5h12.28
		l-1.16-1.16C154.2,138.26,151.22,134.78,147.9,130.8z"/>
	<path class="st0" d="M174.45,113.87c-3.98-0.17-7.63,1.66-10.29,4.65c-2.49,2.99-3.82,6.8-3.65,10.62c-0.17,3.48,1,6.97,3.32,9.79
		c2.32,2.82,5.81,4.31,9.46,4.31c3.82,0,7.63-1.66,9.96-4.81c2.49-2.99,3.65-6.64,3.65-10.45c0.17-3.48-1-6.97-3.15-9.79
		C181.42,115.36,178.1,113.71,174.45,113.87z M175.77,137.77h-1c-2.32,0-4.48-1.33-5.48-3.48c-1.33-2.16-1.99-4.65-1.99-7.14
		c0-3.98,1.33-6.64,4.15-8.13c0.33,0,0.66-0.17,1,0c2.32,0,4.48,1.33,5.48,3.32c1.33,1.99,1.99,4.31,1.99,6.8
		C180.09,132.46,178.59,135.77,175.77,137.77z"/>
	<path class="st0" d="M230.53,133.62v-9.46c0.17-2.32-0.17-4.65-1-6.8c-1-2.32-3.48-3.82-5.97-3.65c-1.99,0-3.98,0.66-5.48,1.99
		l-2.99,3.32c-0.66-3.15-3.48-5.31-6.8-5.14c-1.99,0-3.82,0.5-5.31,1.83c-0.17,0.17-0.5,0.66-2.32,2.65v-3.98h-8.13l0.33,1
		c0.66,2.99,1.16,6.14,1,9.29v9.13c0,2.65-0.33,5.31-1,7.8l-0.33,1h9.46l-0.33-1c-0.66-2.32-1-4.65-1-6.97v-12.45
		c1.49-1,3.15-1.66,4.98-1.83c1.49,0,2.32,0.5,2.82,1.33c0.33,1.33,0.5,2.65,0.5,3.98v8.96c0.17,2.32-0.17,4.65-1,6.97l-0.5,1h9.46
		l-0.33-1c-0.5-1.83-0.83-3.65-1-5.48v-13.94c1.33-1,2.99-1.66,4.81-1.83c1.16-0.17,2.16,0.33,2.82,1.16c0.5,1,0.66,2.32,0.66,3.48
		v9.29c0,2.49-0.33,4.98-1,7.3l-0.33,1h9.29l-0.17-1C230.86,138.93,230.53,136.27,230.53,133.62z"/>
	<path class="st0" d="M252.77,113.87c-1.66,0-3.32,0.5-4.65,1.66h-0.17c-0.66,0.66-1.16,1.49-1.83,2.16v-3.32H238l0.33,1
		c0.66,2.65,1,5.31,1,7.96v18.58c0,2.65-0.33,5.31-1,7.96l-0.33,1h9.46l-0.33-1c-0.66-1.99-1-4.15-1-6.31v-2.49
		c1.83,1.33,3.98,1.99,6.31,1.99c3.48,0.17,6.64-1.49,8.46-4.48c1.66-2.82,2.32-6.14,2.32-9.29c0-3.48-0.66-6.8-2.16-9.96
		C259.07,115.7,256.42,113.87,252.77,113.87z M254.92,122.83c1,1.66,1.33,3.48,1.33,5.31c0,6.14-1.99,9.13-5.97,9.13
		c-1.49,0-2.99-0.66-3.98-1.99V121.5C250.28,119.51,253.1,119.68,254.92,122.83z"/>
	<path class="st0" d="M274.17,113.04c1.33,0,2.49-0.66,3.15-1.66c0.66-1,1-1.99,1-3.15s-0.33-2.32-1.16-3.32
		c-0.66-1-1.83-1.66-3.15-1.66c-1.33,0-2.49,0.66-3.15,1.66c-0.66,1-1.16,2.16-1,3.32c0,1.16,0.33,2.32,1,3.32
		C271.68,112.54,272.85,113.04,274.17,113.04z"/>
	<path class="st0" d="M277.49,133.78V123.5c0-2.16,0-3.48,0-4.15c0.17-1.33,0.5-2.82,1-4.15l0.17-1h-9.29l0.33,1
		c0.5,1.33,0.83,2.65,1,4.15c0,0.66,0,2.16,0,4.48v9.96c0,2.65-0.33,5.14-1,7.63l-0.33,1h9.46l-0.33-1
		C277.66,138.93,277.33,136.44,277.49,133.78z"/>
	<path class="st1" d="M283.47,110.88l1.49-0.5c1.83-0.66,3.82-1.16,5.81-1.33c1.16-0.17,2.99-0.33,5.31-0.5v20.24
		c0.17,4.31-0.33,8.63-1.33,12.78l-0.33,1h10.45l-0.33-1c-1-4.15-1.49-8.3-1.33-12.61V108.4c1.49,0,2.99,0,4.48,0.33
		c1.66,0.33,3.32,1,4.81,1.66l0.66,0.33l2.32-7.96h-29.7L283.47,110.88z"/>
	<path class="st1" d="M334.24,137.43c-4.15,0-6.64-2.49-7.47-7.47h14.77v-3.32c0.17-2.99-0.66-5.97-2.32-8.63
		c-1.66-2.65-4.81-4.15-7.96-4.15c-3.65-0.17-7.14,1.66-9.13,4.81c-1.83,2.99-2.82,6.47-2.82,9.96c-0.17,3.82,1,7.47,3.48,10.29
		c2.49,2.82,6.14,4.31,9.96,4.15c1.83,0,3.48-0.33,5.31-0.83h0.33l2.99-6.97l-1.66,0.66C338.22,136.77,336.23,137.27,334.24,137.43z
		 M331.42,119.18c1.33,0,2.49,0.5,3.32,1.66c0.83,1.16,1.16,2.49,1.16,3.82l0,0h-8.96c0-1.33,0.5-2.49,1.16-3.65
		C328.6,119.68,329.93,119.02,331.42,119.18L331.42,119.18z"/>
	<path class="st1" d="M361.95,137.43c-2.32,0.17-4.48-1-5.81-2.82c-1.33-1.99-1.99-4.48-1.83-6.8c-0.17-2.16,0.5-4.31,1.66-5.97
		c1.16-1.66,3.15-2.65,5.14-2.65c1,0,1.99,0.17,2.99,0.66c0.83,0.66,1.83,1.33,2.65,1.99l1,1l0.33-8.3l-0.5-0.17
		c-1.83-0.5-3.48-0.66-5.31-0.66c-4.15-0.17-7.96,1.33-10.95,4.15c-2.82,2.99-4.31,6.97-4.15,10.95c-0.17,3.65,1.16,7.3,3.48,10.12
		c2.65,2.65,6.31,4.15,9.96,3.98c1.83,0,3.65-0.33,5.48-1h0.33l2.99-7.3l-1.83,1C365.93,136.77,363.94,137.27,361.95,137.43z"/>
	<path class="st1" d="M389.5,141.42l-0.33,1h9.29l-0.33-1c-0.83-2.82-1.16-5.64-1.16-8.63c0-0.66,0-1.83,0.17-3.32
		c0.17-1.49,0-2.65,0-3.32c0.17-2.65-0.17-5.31-0.83-7.8c-0.83-2.82-3.48-4.81-6.47-4.65c-1.49,0.17-3.15,0.5-4.48,1.33h-0.17
		l-2.99,3.65v-7.14c0-2.65,0.33-5.14,1-7.63l0.33-1.16l-9.29,1.83l0.17,0.66c0.66,2.32,1,4.65,1,7.14v20.41
		c0.17,2.99-0.17,5.97-1,8.79l-0.33,1h9.46l-0.33-1c-0.83-2.99-1.16-6.14-1-9.29v-9.79c1.33-1.16,2.99-1.99,4.81-2.16
		c1.99,0,2.49,0.83,2.82,1.49c0.33,1.33,0.5,2.65,0.5,3.98v8.63C390.66,136.77,390.16,139.26,389.5,141.42z"/>
	<path class="st1" d="M43.52,147.39c-4.15,0-7.47-3.32-7.47-7.47v-14.27c0-4.15,3.32-7.47,7.47-7.47H64.6v-8.96
		c0-1.99-1.49-3.65-3.48-3.65l0,0H5.19c-1.99,0-3.65,1.49-3.65,3.48l0,0v47.13c0,1.99,1.49,3.65,3.48,3.65l0,0h55.92
		c1.99,0,3.65-1.66,3.65-3.48l0,0v-8.96H43.52z"/>
	<path class="st0" d="M105.25,85.16H49.5c-1.99,0-3.65,1.49-3.65,3.48l0,0v8.96h25.72c4.15,0,7.47,3.32,7.47,7.47v14.1
		c0,4.15-3.32,7.47-7.47,7.47H45.85v8.96c0,1.99,1.66,3.65,3.48,3.65l0,0h55.75c1.99,0,3.65-1.66,3.65-3.65l0,0V88.82
		C108.9,86.82,107.41,85.33,105.25,85.16L105.25,85.16z"/>
</g>
</svg>
