<?xml version="1.0" encoding="UTF-8"?>
<svg id="Layer_2" data-name="Layer 2" xmlns="http://www.w3.org/2000/svg" viewBox="0 0 589.79 103.9">
  <g id="Layer_1-2" data-name="Layer 1">
    <g>
      <g>
        <path d="M0,4.91C0,3.03,1.44,1.44,3.46,1.44h12.7c1.88,0,3.46,1.59,3.46,3.46v38.96L55.99,2.89c.58-.72,1.44-1.44,2.74-1.44h14.43c2.74,0,4.18,3.03,2.31,5.19l-37.66,42.42,40.4,48.34c1.44,1.88.29,5.05-2.6,5.05h-15.73c-1.44,0-2.31-.58-2.6-1.01L19.63,54.98v44.01c0,1.88-1.59,3.46-3.46,3.46H3.46c-2.02,0-3.46-1.59-3.46-3.46V4.91Z"/>
        <path d="M133.34,0c28.86,0,51.95,23.23,51.95,52.09s-23.09,51.8-51.95,51.8-51.8-22.94-51.8-51.8S104.48,0,133.34,0ZM133.34,85.14c18.18,0,33.19-14.86,33.19-33.04s-15.01-33.33-33.19-33.33-33.04,15.15-33.04,33.33,14.86,33.04,33.04,33.04Z"/>
        <path d="M204.19,2.6c0-1.44,1.3-2.6,2.74-2.6h3.61l60.03,63.78h.14V4.18c0-1.44,1.16-2.74,2.74-2.74h13.28c1.44,0,2.74,1.3,2.74,2.74v97.12c0,1.44-1.3,2.6-2.74,2.6h-3.46l-60.32-66.23h-.14v62.05c0,1.44-1.15,2.74-2.74,2.74h-13.13c-1.44,0-2.74-1.3-2.74-2.74V2.6Z"/>
        <path d="M312.85,4.18c0-1.44,1.15-2.74,2.6-2.74h34.2c27.85,0,50.65,22.66,50.65,50.36s-22.8,50.65-50.65,50.65h-34.2c-1.44,0-2.6-1.3-2.6-2.74V4.18ZM347.92,84.85c18.76,0,32.47-14.14,32.47-33.04s-13.71-32.9-32.47-32.9h-16.45v65.95h16.45Z"/>
        <path d="M417.9,4.18c0-1.44,1.3-2.74,2.74-2.74h13.71c1.59,0,2.74,1.3,2.74,2.74v59.02c0,12.27,8.37,21.93,20.92,21.93s21.07-9.67,21.07-21.79V4.18c0-1.44,1.16-2.74,2.74-2.74h13.71c1.44,0,2.74,1.3,2.74,2.74v60.03c0,21.93-17.46,39.68-40.26,39.68s-40.12-17.75-40.12-39.68V4.18Z"/>
      </g>
      <path d="M559.32,50.65l29-45.17c1.15-1.88,0-4.04-2.45-4.04h-4.68l-18.58,29.45c.42.54.71,1.18.81,1.9.29,2.19-1.25,4.2-3.44,4.49s-4.2-1.25-4.49-3.44,1.25-4.2,3.44-4.49c.37-.05.73-.03,1.09.02l17.52-27.94h-8.41c-1.15,0-2.02.72-2.31,1.3l-18.76,30.59h-.14l-18.47-30.59c-.43-.58-1.15-1.3-2.31-1.3h-16.74c-2.45,0-3.61,2.17-2.45,4.04l28.86,45.17-30.01,47.76c-1.15,1.88,0,4.04,2.6,4.04h15.58c1.16,0,2.02-.72,2.45-1.3l20.35-33.04h.43l20.63,33.04c.29.58,1.3,1.3,2.45,1.3h7.99l-51.35-80.18c-2.11.17-4.01-1.32-4.29-3.45-.29-2.19,1.25-4.2,3.44-4.49s4.2,1.25,4.49,3.44c.14,1.04-.15,2.04-.71,2.84l52.42,81.84h3.6c2.45,0,3.61-2.02,2.45-4.04l-30.01-47.76Z"/>
    </g>
  </g>
</svg>