<?xml version="1.0" encoding="UTF-8"?> <!-- Generator: Adobe Illustrator 25.0.1, SVG Export Plug-In . SVG Version: 6.00 Build 0) --> <svg xmlns="http://www.w3.org/2000/svg" xmlns:xlink="http://www.w3.org/1999/xlink" version="1.1" id="Layer_1" x="0px" y="0px" viewBox="0 0 400 245" style="enable-background:new 0 0 400 245;" xml:space="preserve"> <style type="text/css"> .st0{fill:#FFA400;} .st1{fill:#003A70;} </style> <g> <g transform="translate(138.880182, 0.000000)"> <path class="st0" d="M177.1,82.6h-18v-9.3c0-7.4-6-13.4-13.4-13.4s-13.4,6-13.4,13.4v9.3h-18v-9.3c0-17.4,14.2-31.4,31.4-31.4 c17.4,0,31.4,14.2,31.4,31.4V82.6z"></path> <path class="st1" d="M184.5,82.6H107c-3.4,0-6,2.6-6,6v57.3c0,3.4,2.6,6,6,6h77.5c3.4,0,6-2.6,6-6V88.7 C190.3,85.3,187.7,82.6,184.5,82.6z M149.5,120.2v7.8c0,2.1-1.7,4-4,4c-2.1,0-4-1.7-4-4v-7.8c-2.5-1.3-4-4-4-7 c0-4.3,3.6-7.9,7.9-7.9c4.3,0,7.9,3.6,7.9,7.9C153.7,116.3,152,118.9,149.5,120.2z"></path> <path class="st0" d="M99,74.1H80.3c-3,0-5.5-2.5-5.5-5.5s2.5-5.5,5.5-5.5H99c3,0,5.5,2.5,5.5,5.5S102,74.1,99,74.1z"></path> <path class="st0" d="M112.3,44.6c-1.1,0-2.5-0.4-3.4-1.3L94.1,31.2c-2.3-1.9-2.6-5.3-0.8-7.8c1.9-2.3,5.3-2.6,7.8-0.8l14.7,12.1 c2.3,1.9,2.6,5.3,0.8,7.8C115.3,43.9,113.8,44.6,112.3,44.6z"></path> <path class="st0" d="M145.7,31.8c-3,0-5.5-2.5-5.5-5.5V7.4c0-3,2.5-5.5,5.5-5.5c3,0,5.5,2.5,5.5,5.5v18.9 C151.2,29.3,148.7,31.8,145.7,31.8z"></path> <path class="st0" d="M179,44.6c-1.5,0-3.2-0.8-4.2-2.1c-1.9-2.3-1.5-5.9,0.8-7.8l14.7-12.1c2.3-1.9,5.9-1.5,7.8,0.8 c1.9,2.3,1.5,5.9-0.8,7.8l-14.7,12.1C181.4,44.2,180.3,44.6,179,44.6z"></path> <path class="st0" d="M210.9,74.1H192c-3,0-5.5-2.5-5.5-5.5s2.5-5.5,5.5-5.5h18.9c3,0,5.5,2.5,5.5,5.5S214,74.1,210.9,74.1z"></path> </g> <path class="st1" d="M44.7,151.2V90.2h14.7v48.2h23.6v12.9H44.7z M131.8,130.3v1.7v1.7h-31.2c0.2,1.1,0.6,2.3,1.1,3.2 s1.3,1.9,2.3,2.5c0.9,0.8,2.1,1.3,3.2,1.7c1.1,0.4,2.5,0.6,3.6,0.6c2.3,0,4.2-0.4,5.7-1.3c1.5-0.8,2.8-1.9,3.8-3.2l9.8,6.2 c-2.1,3-4.7,5.1-7.9,6.8c-3.2,1.5-7.2,2.5-11.5,2.5c-3.2,0-6.2-0.6-9.1-1.5s-5.3-2.5-7.6-4.3c-2.1-1.9-3.8-4.3-5.1-7.2 s-1.9-6-1.9-9.6s0.6-6.6,1.9-9.5c1.1-2.8,2.8-5.3,4.9-7.2c2.1-1.9,4.5-3.6,7.4-4.5c2.8-1.1,5.9-1.7,9.1-1.7s6,0.6,8.7,1.5 c2.6,1.1,4.9,2.6,6.8,4.5c1.9,2.1,3.4,4.5,4.3,7.4C131.3,123.4,131.8,126.7,131.8,130.3z M118.8,125c0-2.3-0.8-4.2-2.1-5.9 c-1.3-1.7-3.6-2.5-6.4-2.5c-1.3,0-2.6,0.2-3.8,0.6s-2.1,0.9-3,1.7c-0.9,0.8-1.5,1.7-2.1,2.6c-0.6,0.9-0.8,2.1-0.9,3.2h18.3V125z M154.5,118.9v16.4c0,2.1,0.4,3.6,1.1,4.5s2.1,1.5,4.2,1.5c0.8,0,1.5,0,2.3-0.2c0.8-0.2,1.5-0.4,1.9-0.6l0.2,10.4 c-0.9,0.4-2.3,0.6-3.8,0.9c-1.5,0.2-3,0.4-4.5,0.4c-2.8,0-5.3-0.4-7.2-1.1c-1.9-0.8-3.6-1.7-4.7-3c-1.1-1.3-2.1-3-2.5-4.9 c-0.4-1.9-0.8-4-0.8-6.2v-18.1h-7v-10.6h6.8V97h14v11.3h10v10.6H154.5L154.5,118.9z M177.6,89c-4.2,0-7.6,3-7.6,7 c0,4.2,2.8,6.8,7,6.8c0.4,0,0.8,0,0.9-0.2c-0.8,3-3.6,5.3-6.4,5.7H171v6.6h0.8c3.4-0.4,6.6-1.9,9.1-4.2c3.2-3,4.9-7.6,4.9-12.9 C185.7,92.8,182.3,89,177.6,89z M210.3,121c-1.1-1.1-2.5-2.1-4-2.8c-1.5-0.8-3.2-1.1-4.9-1.1c-1.3,0-2.5,0.2-3.6,0.8 c-1.1,0.6-1.7,1.3-1.7,2.6c0,1.1,0.6,2.1,1.9,2.6c1.3,0.6,3.2,1.1,6,1.7c1.7,0.4,3.2,0.8,4.9,1.5c1.7,0.8,3,1.5,4.3,2.5 c1.3,0.9,2.5,2.3,3.2,3.8c0.8,1.5,1.1,3.2,1.1,5.3c0,2.6-0.6,4.9-1.7,6.8c-1.1,1.9-2.5,3.4-4.3,4.5c-1.7,1.1-3.8,1.9-5.9,2.5 c-2.3,0.6-4.3,0.8-6.6,0.8c-3.6,0-7-0.6-10.2-1.7c-3.4-1.1-6.2-2.8-8.3-4.9l7.9-8.3c1.3,1.3,2.8,2.5,4.7,3.4s3.8,1.3,5.9,1.3 c1.1,0,2.3-0.2,3.4-0.8c1.1-0.6,1.7-1.5,1.7-2.8s-0.8-2.3-2.1-3c-1.3-0.6-3.6-1.3-6.4-1.9c-1.5-0.4-3-0.8-4.5-1.3 c-1.5-0.6-2.8-1.3-4-2.3c-1.1-0.9-2.1-2.3-2.8-3.6c-0.8-1.5-1.1-3.2-1.1-5.1c0-2.6,0.6-4.7,1.7-6.6c1.1-1.9,2.5-3.2,4.2-4.3 s3.6-2.1,5.7-2.5c2.1-0.6,4.2-0.8,6.2-0.8c3.2,0,6.4,0.6,9.5,1.5c3,0.9,5.7,2.5,7.8,4.5L210.3,121z M44.7,221.9v-61.1h41v12.5H58.9 v11.5h25.3v11.7H58.9v12.7h28.4v12.7H44.7z M124.5,221.9v-23.4c0-1.1-0.2-2.3-0.4-3.4c-0.2-1.1-0.6-2.1-0.9-2.8 c-0.4-0.8-1.1-1.5-1.9-1.9c-0.8-0.6-1.9-0.8-3.2-0.8c-1.3,0-2.5,0.2-3.4,0.8c-0.9,0.6-1.7,1.1-2.5,2.1c-0.6,0.9-1.1,1.9-1.5,3 c-0.4,1.1-0.6,2.3-0.6,3.4v23.3H95.9v-42.9h13.6v5.9h0.2c0.6-0.9,1.1-1.9,2.1-2.6c0.8-0.9,1.9-1.7,2.8-2.3c1.1-0.6,2.3-1.1,3.6-1.5 c1.3-0.4,2.6-0.6,4.2-0.6c2.8,0,5.3,0.6,7.4,1.5c2.1,0.9,3.6,2.5,4.9,4c1.3,1.7,2.1,3.6,2.6,5.7c0.6,2.1,0.8,4.2,0.8,6.4v26.5 h-13.6V221.9z M175.1,192.8c-0.8-0.9-1.9-1.9-3.2-2.5c-1.3-0.6-2.8-0.9-4.2-0.9c-1.5,0-2.8,0.4-4,0.9c-1.1,0.6-2.3,1.3-3,2.5 c-0.8,1.1-1.5,2.1-2.1,3.4c-0.6,1.3-0.8,2.6-0.8,4.2c0,1.5,0.2,2.8,0.8,4.2c0.4,1.3,1.1,2.5,2.1,3.4c0.9,0.9,1.9,1.9,3.2,2.5 c1.3,0.6,2.6,0.9,4.2,0.9s2.8-0.2,4.3-0.8c1.3-0.6,2.5-1.3,3.4-2.5l7.8,9.6c-1.7,1.7-4.2,3-6.8,4c-2.8,0.9-5.9,1.5-8.9,1.5 c-3.4,0-6.6-0.6-9.5-1.5c-3-0.9-5.5-2.5-7.8-4.5c-2.1-1.9-3.8-4.3-5.1-7.2c-1.3-2.8-1.9-6-1.9-9.6c0-3.6,0.6-6.6,1.9-9.5 c1.3-2.8,3-5.3,5.1-7.2c2.1-1.9,4.7-3.6,7.8-4.5c3-1.1,6-1.5,9.5-1.5c1.5,0,3,0.2,4.5,0.4c1.5,0.4,3,0.8,4.3,1.1 c1.3,0.6,2.6,1.1,4,1.9c1.1,0.8,2.3,1.5,3,2.5L175.1,192.8z M216.4,190.7c-0.6-0.2-1.3-0.4-1.9-0.4h-1.7c-1.9,0-3.4,0.4-4.7,0.9 c-1.3,0.8-2.3,1.5-3,2.5c-0.8,0.9-1.3,2.1-1.7,3.2c-0.4,1.1-0.6,2.1-0.6,3v21.9h-14.2V179h13.6v6.2h0.2c1.1-2.3,2.6-4,4.7-5.3 c2.1-1.3,4.3-2.1,7-2.1h1.7c0.6,0,0.9,0.2,1.3,0.2L216.4,190.7z M249.6,228.4c-0.9,2.3-1.9,4.2-2.8,6c-1.1,1.7-2.3,3.2-3.8,4.5 c-1.5,1.3-3.2,2.1-5.1,2.8c-1.9,0.6-4.3,0.9-7,0.9c-1.3,0-2.6,0-4.2-0.2c-1.3-0.2-2.6-0.4-3.6-0.8l1.5-11.9 c0.8,0.2,1.5,0.4,2.3,0.6c0.8,0.2,1.5,0.2,2.3,0.2c2.3,0,3.8-0.6,4.7-1.5s1.9-2.5,2.5-4.3l1.3-3.6l-18-42.2h15.7l9.6,27.6h0.2 l8.5-27.6h14.9L249.6,228.4z M320.3,200.4c0,3-0.4,5.9-1.3,8.7c-0.9,2.8-2.3,5.1-4,7.4c-1.7,2.1-4,3.8-6.4,5.1 c-2.5,1.3-5.5,1.9-8.7,1.9c-2.6,0-5.1-0.6-7.6-1.5c-2.3-1.1-4.2-2.5-5.5-4.3h-0.2v25.5h-14.2v-63.5h13.4v5.3h0.2 c1.3-1.7,3.2-3.2,5.5-4.5s5.1-1.9,8.3-1.9c3,0,5.9,0.6,8.5,1.9c2.5,1.1,4.7,2.8,6.4,4.9c1.7,2.1,3,4.5,4,7.2 C319.8,194.5,320.3,197.4,320.3,200.4z M306.5,200.4c0-1.3-0.2-2.6-0.6-4c-0.4-1.3-1.1-2.5-1.9-3.4c-0.8-0.9-1.9-1.9-3.2-2.5 c-1.3-0.6-2.6-0.9-4.3-0.9s-3,0.4-4.3,0.9c-1.3,0.6-2.3,1.5-3.2,2.5c-0.9,0.9-1.5,2.3-2.1,3.6c-0.6,1.3-0.8,2.6-0.8,4 s0.2,2.6,0.8,4c0.6,1.3,1.1,2.5,2.1,3.6c0.9,0.9,1.9,1.9,3.2,2.5c1.3,0.6,2.6,0.9,4.3,0.9s3.2-0.4,4.3-0.9c1.3-0.6,2.3-1.5,3.2-2.5 c0.8-0.9,1.5-2.3,1.9-3.6C306.3,203,306.5,201.7,306.5,200.4z M342.8,189.6v16.4c0,2.1,0.4,3.6,1.1,4.5c0.8,0.9,2.1,1.5,4.2,1.5 c0.8,0,1.5,0,2.3-0.2c0.8-0.2,1.5-0.4,1.9-0.6l0.2,10.4c-0.9,0.4-2.3,0.6-3.8,0.9c-1.5,0.2-3,0.4-4.5,0.4c-2.8,0-5.3-0.4-7.2-1.1 c-1.9-0.8-3.6-1.7-4.7-3c-1.1-1.3-2.1-3-2.5-4.9c-0.4-1.9-0.8-4-0.8-6.2v-18.1h-6.8V179h6.8v-11.3h13.8V179h10v10.6H342.8 L342.8,189.6z"></path> </g> </svg> 