<?xml version="1.0" encoding="utf-8"?>
<!-- Generator: Adobe Illustrator 26.0.1, SVG Export Plug-In . SVG Version: 6.00 Build 0)  -->
<svg version="1.1" id="Layer_1" xmlns="http://www.w3.org/2000/svg" xmlns:xlink="http://www.w3.org/1999/xlink" x="0px" y="0px"
	 viewBox="0 0 395 131" style="enable-background:new 0 0 395 131;" xml:space="preserve">
<style type="text/css">
	.st0{fill-rule:evenodd;clip-rule:evenodd;fill:url(#SVGID_1_);}
	.st1{fill:url(#SVGID_00000140701583905994526610000013228079601114620033_);}
	.st2{fill:#FFFFFF;}
	.st3{fill:#1B1B1B;}
	.st4{clip-path:url(#SVGID_00000168796868102866583000000010122521435853515910_);}
	.st5{fill-rule:evenodd;clip-rule:evenodd;fill:#1B1B1B;}
	.st6{fill:#4F4F4F;}
</style>
<linearGradient id="SVGID_1_" gradientUnits="userSpaceOnUse" x1="57.7254" y1="101.3269" x2="-38.5843" y2="14.6136" gradientTransform="matrix(1 0 0 -1 0 132)">
	<stop  offset="0" style="stop-color:#6B51A2"/>
	<stop  offset="1" style="stop-color:#5888C6"/>
</linearGradient>
<path class="st0" d="M1.7,22.5L37.7,1c0.5-0.3,1.1-0.5,1.7-0.5c0.6,0,1.2,0.2,1.7,0.5l36,21.5c0.5,0.3,1,0.8,1.3,1.3
	c0.3,0.5,0.5,1.2,0.5,1.8v43.1c0,0.6-0.2,1.2-0.5,1.8c-0.3,0.5-0.7,1-1.3,1.3l-36,21.5c-0.5,0.3-1.1,0.5-1.7,0.5
	c-0.6,0-1.2-0.2-1.7-0.5l-36-21.5c-0.5-0.3-1-0.8-1.3-1.3C0.2,70,0,69.3,0,68.7V25.6c0-0.6,0.2-1.2,0.5-1.8S1.2,22.9,1.7,22.5z
	 M36.1,54l-4.3,18.8h0c0,0.2,0,0.3,0,0.5c0.1,0.2,0.2,0.3,0.3,0.4c0.1,0.1,0.3,0.1,0.5,0.1c0.2,0,0.3-0.1,0.4-0.2l20.2-20.9
	c0.1-0.1,0.1-0.2,0.2-0.3c0-0.1,0.1-0.2,0.1-0.3c0-0.1,0-0.2-0.1-0.3c0-0.1-0.1-0.2-0.2-0.3L43,41.2c-0.1-0.1-0.2-0.2-0.2-0.4
	c0-0.1,0-0.3,0-0.4l4.3-18.9c0-0.2,0-0.4,0-0.5c-0.1-0.2-0.2-0.3-0.3-0.4c-0.1-0.1-0.3-0.1-0.5-0.1c-0.2,0-0.3,0.1-0.4,0.2
	L25.5,41.6c-0.1,0.1-0.1,0.2-0.2,0.3c0,0.1-0.1,0.2-0.1,0.3c0,0.1,0,0.2,0.1,0.3c0,0.1,0.1,0.2,0.2,0.3l10.4,10.5
	c0.1,0.1,0.2,0.2,0.2,0.4C36.1,53.7,36.1,53.9,36.1,54z"/>
<linearGradient id="SVGID_00000010270698913215591740000015467125872476423040_" gradientUnits="userSpaceOnUse" x1="48.4265" y1="89.9053" x2="1.0493" y2="63.1389" gradientTransform="matrix(1 0 0 -1 0 132)">
	<stop  offset="0" style="stop-color:#6B51A2"/>
	<stop  offset="1" style="stop-color:#5888C6"/>
</linearGradient>
<path style="fill:url(#SVGID_00000010270698913215591740000015467125872476423040_);" d="M31.8,72.8L36.1,54c0-0.1,0-0.3,0-0.4
	c0-0.1-0.1-0.3-0.2-0.4L25.5,42.8c-0.1-0.1-0.1-0.2-0.2-0.3c0-0.1-0.1-0.2-0.1-0.3c0-0.1,0-0.2,0.1-0.3c0-0.1,0.1-0.2,0.2-0.3
	l20.2-20.8c0.1-0.1,0.3-0.2,0.4-0.2s0.3,0,0.5,0.1c0.1,0.1,0.3,0.2,0.3,0.4c0.1,0.2,0.1,0.3,0,0.5l-4.3,18.9c0,0.1,0,0.3,0,0.4
	c0,0.1,0.1,0.3,0.2,0.4l10.3,10.4c0.1,0.1,0.1,0.2,0.2,0.3c0,0.1,0.1,0.2,0.1,0.3c0,0.1,0,0.2-0.1,0.3c0,0.1-0.1,0.2-0.2,0.3
	L33.1,73.6c-0.1,0.1-0.3,0.2-0.4,0.2c-0.2,0-0.3,0-0.5-0.1c-0.1-0.1-0.3-0.2-0.3-0.4C31.8,73.2,31.8,73,31.8,72.8L31.8,72.8z"/>
<path class="st2" d="M31.8,72.8L36.1,54c0-0.1,0-0.3,0-0.4c0-0.1-0.1-0.3-0.2-0.4L25.5,42.8c-0.1-0.1-0.1-0.2-0.2-0.3
	c0-0.1-0.1-0.2-0.1-0.3c0-0.1,0-0.2,0.1-0.3c0-0.1,0.1-0.2,0.2-0.3l20.2-20.8c0.1-0.1,0.3-0.2,0.4-0.2s0.3,0,0.5,0.1
	c0.1,0.1,0.3,0.2,0.3,0.4c0.1,0.2,0.1,0.3,0,0.5l-4.3,18.9c0,0.1,0,0.3,0,0.4c0,0.1,0.1,0.3,0.2,0.4l10.3,10.4
	c0.1,0.1,0.1,0.2,0.2,0.3c0,0.1,0.1,0.2,0.1,0.3c0,0.1,0,0.2-0.1,0.3c0,0.1-0.1,0.2-0.2,0.3L33.1,73.6c-0.1,0.1-0.3,0.2-0.4,0.2
	c-0.2,0-0.3,0-0.5-0.1c-0.1-0.1-0.3-0.2-0.3-0.4C31.8,73.2,31.8,73,31.8,72.8L31.8,72.8z"/>
<path class="st3" d="M366.9,45.7h6.1l-6.3-19.9h-9.8l-6.3,19.9h6l0.9-3.2h8.7L366.9,45.7z M358.9,37l1.6-5.7h2.5l1.6,5.7H358.9z"/>
<path class="st3" d="M392.9,31.3v-5.5h-17.1v5.5h5.8v8.9h-5.8v5.5h17.1v-5.5h-5.8v-8.9H392.9z"/>
<g>
	<defs>
		<rect id="SVGID_00000142886266614328053290000013637270193729024391_" x="105.1" y="27" width="230" height="52"/>
	</defs>
	<clipPath id="SVGID_00000177475448573597905440000001942839679245951926_">
		<use xlink:href="#SVGID_00000142886266614328053290000013637270193729024391_"  style="overflow:visible;"/>
	</clipPath>
	<g style="clip-path:url(#SVGID_00000177475448573597905440000001942839679245951926_);">
		<path class="st5" d="M167.6,41.4c-0.9-0.7-1.8-1.3-2.9-1.8c-1.4-0.6-2.9-0.9-4.4-0.9c-1.8,0-3.7,0.4-5.4,1.1
			c-1.6,0.7-3.1,1.7-4.3,3c-1.2,1.3-2.2,2.8-2.9,4.5c-0.7,1.7-1,3.6-1,5.5c0,1.9,0.3,3.8,1,5.5c0.6,1.7,1.6,3.2,2.8,4.6
			c1.2,1.3,2.7,2.4,4.3,3.1c1.7,0.8,3.6,1.1,5.5,1.1c1.5,0,3-0.3,4.4-0.9c1-0.4,2-1,2.9-1.7v1.6c0.1,0.9-0.1,1.8-0.4,2.7
			c-0.3,0.8-0.8,1.6-1.4,2.3c-1.2,1.1-2.9,1.7-4.5,1.7c-1.5,0.1-2.9-0.3-4.2-0.9c-1.1-0.6-2-1.6-2.5-2.7l-0.1-0.2h-7
			c0,2,0.8,4,2.2,5.5l0.1,0.1c1.4,1.5,3.2,2.7,5.2,3.4c2,0.7,4.1,1.1,6.2,1.1c4.1,0,7.4-1.1,9.6-3.4c1.2-1.2,2.1-2.6,2.7-4.1
			c0.6-1.5,0.9-3.2,0.8-4.8V39.2h-6.7L167.6,41.4z M166,58.4c-0.7,0.7-1.5,1.3-2.4,1.7c-0.9,0.4-1.9,0.6-2.9,0.6c-1,0-2-0.2-2.9-0.6
			c-0.9-0.4-1.7-1-2.4-1.7c-1.4-1.5-2.1-3.5-2.1-5.6c0-1,0.1-2,0.5-3c0.4-0.9,0.9-1.8,1.6-2.5c0.7-0.7,1.5-1.3,2.4-1.6
			c0.9-0.4,1.9-0.6,2.8-0.5c1,0,1.9,0.2,2.8,0.6c0.9,0.4,1.7,0.9,2.4,1.6c0.7,0.7,1.3,1.6,1.6,2.5c0.4,1,0.6,2,0.5,3
			C168.1,54.9,167.3,56.9,166,58.4z"/>
		<path class="st5" d="M194.1,38.7c-1.6,0-3.2,0.4-4.6,1.1c-1,0.5-1.8,1.2-2.6,1.9V27h-6.7v40.2h6.7V51.6c-0.1-1.7,0.5-3.4,1.6-4.7
			c0.5-0.6,1.2-1.1,1.9-1.4c0.7-0.3,1.5-0.4,2.3-0.4c0.8-0.1,1.5,0.1,2.3,0.4c0.7,0.3,1.4,0.8,1.9,1.3c1,1.2,1.5,2.7,1.5,4.3v16.1
			h6.7V50.3c0-3.7-1-6.6-3-8.6c-1-1-2.3-1.8-3.6-2.3C197,38.8,195.6,38.6,194.1,38.7z"/>
		<path class="st3" d="M141.6,27h-6.7v6.8h6.7V27z"/>
		<path class="st3" d="M141.6,39.2h-6.7v28.1h6.7V39.2z"/>
		<path class="st5" d="M112,27h-6.9v40.2h24.6v-6.7H112V27z"/>
		<path class="st5" d="M220,29.9l-6.2,2.3l0.1,7h-6v6h5.4v12.7c0,3,0.9,5.4,2.7,7c1.9,1.6,4.3,2.5,6.7,2.4c0.7,0,1.3,0,1.9,0
			c0.6,0,1,0,1.4-0.1h0.3v-6h-2.7c-0.5,0-1,0-1.4-0.2c-0.5-0.2-0.9-0.4-1.2-0.8c-0.4-0.4-0.6-0.9-0.8-1.4c-0.2-0.5-0.2-1.1-0.2-1.6
			V45.2h7.3v-6H220V29.9z"/>
		<path class="st3" d="M271,27h-6.7v6.9h6.7V27z"/>
		<path class="st3" d="M239.6,46H233v21.5h6.7V46z"/>
		<path class="st5" d="M328.4,39.1v2.2c-0.9-0.7-1.8-1.3-2.8-1.8c-1.4-0.6-2.9-0.9-4.4-0.9c-1.8,0-3.7,0.4-5.4,1.1
			c-1.6,0.7-3.1,1.7-4.3,3c-1.2,1.3-2.2,2.8-2.9,4.5c-0.7,1.7-1,3.6-1,5.5c0,1.9,0.3,3.8,1,5.5c0.6,1.7,1.6,3.2,2.8,4.6
			c1.2,1.3,2.7,2.4,4.3,3.1c1.7,0.8,3.6,1.2,5.4,1.2c1.5,0,3-0.3,4.4-0.8c1-0.4,2-1,2.9-1.7v1.6c0.1,0.9,0,1.7-0.3,2.6
			c-0.3,0.8-0.7,1.6-1.3,2.2c-0.6,0.6-1.3,1.1-2.1,1.4s-1.7,0.4-2.6,0.4c-1.5,0.1-2.9-0.3-4.2-0.9c-1.1-0.6-1.9-1.6-2.4-2.7
			l-0.1-0.2h-7c0,2,0.8,3.9,2.1,5.4v0.1c0,0,0,0,0.1,0.1c1.5,1.5,3.2,2.7,5.2,3.4c2,0.7,4.1,1.1,6.2,1.1c4.1,0,7.3-1.1,9.6-3.4
			c1.2-1.1,2.1-2.5,2.8-4.1c0.6-1.5,0.9-3.2,0.9-4.8V39.1H328.4z M326.8,58.4c-0.7,0.7-1.5,1.3-2.4,1.7c-0.9,0.4-1.9,0.6-2.9,0.6
			c-1,0-2-0.2-2.8-0.6c-0.9-0.4-1.7-1-2.4-1.7c-1.4-1.5-2.1-3.5-2.1-5.5c-0.1-2,0.7-4,2.1-5.5c0.7-0.7,1.5-1.3,2.4-1.6
			c0.9-0.4,1.9-0.6,2.8-0.5c1,0,1.9,0.2,2.8,0.5c0.9,0.4,1.7,0.9,2.4,1.6c0.7,0.7,1.3,1.6,1.6,2.5c0.4,1,0.5,2,0.5,3
			C328.9,54.9,328.1,56.8,326.8,58.4z"/>
		<path class="st5" d="M291.5,39.1h-6.7V46h5.2c0.8,0,1.6,0.2,2.4,0.5c0.8,0.3,1.4,0.8,2,1.4c1.2,1.2,1.8,2.8,1.8,4.5v15.1h6.7V50.8
			c0-3.1-1.2-6-3.3-8.2c-1-1.1-2.3-1.9-3.7-2.5C294.4,39.4,293,39.1,291.5,39.1z"/>
		<path class="st3" d="M284.8,46h-6.7v21.5h6.7V46z"/>
		<path class="st3" d="M271,39.1h-6.7v28.1h6.7V39.1z"/>
		<path class="st5" d="M246.3,39.1h-6.7V46h5.2c0.8,0,1.6,0.2,2.4,0.5c0.8,0.3,1.4,0.8,2,1.4c1.2,1.2,1.8,2.8,1.8,4.5v15.1h6.7V50.8
			c0-3.1-1.2-6-3.3-8.2c-1-1.1-2.3-1.9-3.7-2.5C249.3,39.4,247.8,39.1,246.3,39.1z"/>
	</g>
</g>
<path class="st6" d="M18.9,110h-2.5c-0.1-0.7-0.4-1.3-0.8-1.9c-0.4-0.5-0.8-1-1.3-1.4c-0.5-0.4-1.1-0.7-1.7-0.8
	c-0.6-0.2-1.3-0.3-1.9-0.3c-1.2,0-2.3,0.3-3.4,0.9c-1,0.6-1.8,1.5-2.4,2.8c-0.6,1.2-0.9,2.7-0.9,4.5c0,1.8,0.3,3.3,0.9,4.5
	c0.6,1.2,1.4,2.1,2.4,2.8c1,0.6,2.1,0.9,3.4,0.9c0.7,0,1.3-0.1,1.9-0.3c0.6-0.2,1.2-0.5,1.7-0.8c0.5-0.4,1-0.8,1.3-1.4
	c0.4-0.5,0.6-1.2,0.8-1.9h2.5c-0.2,1-0.5,2-1,2.8c-0.5,0.8-1.1,1.5-1.8,2.1c-0.7,0.6-1.5,1-2.5,1.3c-0.9,0.3-1.9,0.4-2.9,0.4
	c-1.7,0-3.3-0.4-4.6-1.3c-1.4-0.8-2.4-2.1-3.2-3.6c-0.8-1.6-1.2-3.4-1.2-5.6c0-2.1,0.4-4,1.2-5.6c0.8-1.6,1.8-2.8,3.2-3.6
	c1.4-0.8,2.9-1.3,4.6-1.3c1,0,2,0.1,2.9,0.4c0.9,0.3,1.7,0.7,2.5,1.3c0.7,0.6,1.3,1.3,1.8,2.1C18.3,108,18.7,108.9,18.9,110z
	 M22.5,124v-15.3h2.3v2.3h0.2c0.3-0.8,0.8-1.4,1.5-1.8c0.7-0.5,1.6-0.7,2.5-0.7c0.2,0,0.4,0,0.6,0c0.3,0,0.5,0,0.6,0v2.4
	c-0.1,0-0.3,0-0.5-0.1c-0.3,0-0.6-0.1-0.9-0.1c-0.7,0-1.4,0.2-2,0.5c-0.6,0.3-1,0.7-1.4,1.3c-0.3,0.5-0.5,1.2-0.5,1.8v9.7H22.5z
	 M38.9,124.3c-1.5,0-2.7-0.3-3.8-1c-1.1-0.7-1.9-1.6-2.5-2.7c-0.6-1.2-0.9-2.6-0.9-4.1c0-1.6,0.3-2.9,0.9-4.1
	c0.6-1.2,1.4-2.1,2.4-2.8c1-0.7,2.2-1,3.6-1c0.8,0,1.6,0.1,2.4,0.4c0.8,0.3,1.5,0.7,2.1,1.3c0.6,0.6,1.1,1.4,1.5,2.3
	c0.4,1,0.6,2.2,0.6,3.6v1H33.4v-2h9.4c0-0.9-0.2-1.6-0.5-2.3c-0.3-0.7-0.8-1.2-1.5-1.6c-0.6-0.4-1.4-0.6-2.2-0.6
	c-0.9,0-1.7,0.2-2.4,0.7c-0.7,0.5-1.2,1.1-1.6,1.8c-0.4,0.7-0.5,1.5-0.5,2.4v1.4c0,1.2,0.2,2.1,0.6,2.9c0.4,0.8,1,1.4,1.7,1.8
	c0.7,0.4,1.5,0.6,2.5,0.6c0.6,0,1.2-0.1,1.7-0.3c0.5-0.2,0.9-0.4,1.3-0.8c0.4-0.4,0.6-0.8,0.8-1.3l2.3,0.6c-0.2,0.8-0.6,1.4-1.2,2
	c-0.6,0.6-1.3,1-2.1,1.4C40.8,124.1,39.9,124.3,38.9,124.3z M53.3,124.3c-1,0-1.8-0.2-2.6-0.5c-0.8-0.4-1.4-0.9-1.9-1.6
	c-0.5-0.7-0.7-1.6-0.7-2.5c0-0.9,0.2-1.6,0.5-2.1c0.3-0.6,0.8-1,1.4-1.3c0.6-0.3,1.2-0.5,1.9-0.7c0.7-0.2,1.4-0.3,2.1-0.4
	c0.9-0.1,1.7-0.2,2.3-0.3c0.6-0.1,1-0.2,1.3-0.3c0.3-0.2,0.4-0.4,0.4-0.8v-0.1c0-1-0.3-1.7-0.8-2.3c-0.5-0.5-1.3-0.8-2.4-0.8
	c-1.1,0-2,0.2-2.6,0.7c-0.6,0.5-1.1,1-1.3,1.6l-2.2-0.8c0.4-0.9,0.9-1.7,1.6-2.2c0.7-0.5,1.4-0.9,2.2-1.1c0.8-0.2,1.6-0.3,2.3-0.3
	c0.5,0,1.1,0.1,1.7,0.2c0.6,0.1,1.3,0.3,1.9,0.7c0.6,0.4,1.1,0.9,1.5,1.6c0.4,0.7,0.6,1.7,0.6,2.9V124h-2.3v-2.1h-0.1
	c-0.2,0.3-0.4,0.7-0.8,1.1s-0.9,0.7-1.5,1C54.9,124.2,54.2,124.3,53.3,124.3z M53.6,122.2c0.9,0,1.7-0.2,2.3-0.5
	c0.6-0.4,1.1-0.8,1.5-1.4c0.3-0.6,0.5-1.2,0.5-1.8v-2.1c-0.1,0.1-0.3,0.2-0.7,0.3c-0.3,0.1-0.7,0.2-1.2,0.2
	c-0.4,0.1-0.9,0.1-1.3,0.2c-0.4,0-0.7,0.1-1,0.1c-0.6,0.1-1.2,0.2-1.7,0.4c-0.5,0.2-0.9,0.4-1.3,0.8c-0.3,0.3-0.5,0.8-0.5,1.4
	c0,0.8,0.3,1.4,0.9,1.8C51.9,122,52.7,122.2,53.6,122.2z M71.2,108.7v2h-7.9v-2H71.2z M65.6,105h2.3v14.6c0,0.7,0.1,1.2,0.3,1.5
	c0.2,0.3,0.5,0.5,0.8,0.7c0.3,0.1,0.6,0.2,1,0.2c0.3,0,0.5,0,0.6,0c0.2,0,0.3-0.1,0.4-0.1l0.5,2.1c-0.2,0.1-0.4,0.1-0.7,0.2
	c-0.3,0.1-0.6,0.1-1.1,0.1c-0.7,0-1.3-0.1-1.9-0.4c-0.6-0.3-1.2-0.7-1.6-1.3c-0.4-0.6-0.6-1.3-0.6-2.2V105z M80.8,124.3
	c-1.4,0-2.6-0.3-3.6-1c-1-0.7-1.8-1.6-2.4-2.8c-0.6-1.2-0.9-2.6-0.9-4.1c0-1.6,0.3-3,0.9-4.2c0.6-1.2,1.4-2.1,2.4-2.8
	c1-0.7,2.3-1,3.6-1s2.6,0.3,3.6,1c1,0.7,1.8,1.6,2.4,2.8c0.6,1.2,0.9,2.6,0.9,4.2c0,1.6-0.3,3-0.9,4.1c-0.6,1.2-1.4,2.1-2.4,2.8
	C83.3,123.9,82.1,124.3,80.8,124.3z M80.8,122.2c1,0,1.9-0.3,2.6-0.8c0.7-0.5,1.2-1.2,1.5-2.1s0.5-1.8,0.5-2.8c0-1-0.2-2-0.5-2.9
	c-0.3-0.9-0.8-1.6-1.5-2.1c-0.7-0.5-1.5-0.8-2.6-0.8c-1,0-1.9,0.3-2.6,0.8c-0.7,0.5-1.2,1.3-1.5,2.1c-0.3,0.9-0.5,1.8-0.5,2.9
	c0,1,0.2,2,0.5,2.8s0.8,1.6,1.5,2.1C78.8,121.9,79.7,122.2,80.8,122.2z M91.3,124v-15.3h2.3v2.3h0.2c0.3-0.8,0.8-1.4,1.5-1.8
	c0.7-0.5,1.6-0.7,2.5-0.7c0.2,0,0.4,0,0.6,0c0.3,0,0.5,0,0.6,0v2.4c-0.1,0-0.3,0-0.5-0.1c-0.3,0-0.6-0.1-0.9-0.1
	c-0.7,0-1.4,0.2-2,0.5c-0.6,0.3-1,0.7-1.4,1.3c-0.3,0.5-0.5,1.2-0.5,1.8v9.7H91.3z M112.5,112.1l-2.1,0.6c-0.1-0.4-0.3-0.7-0.6-1
	c-0.3-0.3-0.6-0.6-1-0.8c-0.4-0.2-1-0.3-1.7-0.3c-0.9,0-1.7,0.2-2.3,0.6c-0.6,0.4-0.9,1-0.9,1.6c0,0.6,0.2,1,0.6,1.4
	c0.4,0.3,1.1,0.6,2,0.8l2.3,0.6c1.4,0.3,2.4,0.8,3.1,1.5c0.7,0.7,1,1.5,1,2.6c0,0.9-0.3,1.7-0.8,2.3c-0.5,0.7-1.2,1.2-2.1,1.6
	c-0.9,0.4-1.9,0.6-3.1,0.6c-1.6,0-2.8-0.3-3.9-1c-1-0.7-1.7-1.7-1.9-3l2.2-0.6c0.2,0.8,0.6,1.4,1.2,1.8c0.6,0.4,1.4,0.6,2.3,0.6
	c1.1,0,2-0.2,2.6-0.7c0.7-0.5,1-1,1-1.7c0-0.5-0.2-1-0.6-1.3c-0.4-0.4-0.9-0.6-1.7-0.8l-2.5-0.6c-1.4-0.3-2.4-0.8-3.1-1.5
	c-0.7-0.7-1-1.6-1-2.6c0-0.9,0.2-1.6,0.7-2.3c0.5-0.7,1.2-1.2,2-1.6c0.8-0.4,1.8-0.6,2.9-0.6c1.5,0,2.7,0.3,3.6,1
	C111.5,110.1,112.1,111,112.5,112.1z M130.4,124.3c-1.4,0-2.6-0.3-3.6-1c-1-0.7-1.8-1.6-2.4-2.8c-0.6-1.2-0.9-2.6-0.9-4.1
	c0-1.6,0.3-3,0.9-4.2c0.6-1.2,1.4-2.1,2.4-2.8c1-0.7,2.3-1,3.6-1c1.4,0,2.6,0.3,3.6,1c1,0.7,1.8,1.6,2.4,2.8
	c0.6,1.2,0.9,2.6,0.9,4.2c0,1.6-0.3,3-0.9,4.1c-0.6,1.2-1.4,2.1-2.4,2.8C133,123.9,131.8,124.3,130.4,124.3z M130.4,122.2
	c1,0,1.9-0.3,2.6-0.8c0.7-0.5,1.2-1.2,1.5-2.1s0.5-1.8,0.5-2.8c0-1-0.2-2-0.5-2.9c-0.3-0.9-0.8-1.6-1.5-2.1
	c-0.7-0.5-1.5-0.8-2.6-0.8c-1,0-1.9,0.3-2.6,0.8c-0.7,0.5-1.2,1.3-1.5,2.1c-0.3,0.9-0.5,1.8-0.5,2.9c0,1,0.2,2,0.5,2.8
	c0.3,0.9,0.8,1.6,1.5,2.1C128.5,121.9,129.3,122.2,130.4,122.2z M147.7,108.7v2h-8.2v-2H147.7z M141.9,124v-17.4
	c0-0.9,0.2-1.6,0.6-2.2c0.4-0.6,0.9-1,1.6-1.3c0.7-0.3,1.3-0.4,2.1-0.4c0.6,0,1,0,1.4,0.1c0.4,0.1,0.6,0.2,0.8,0.3l-0.7,2
	c-0.1,0-0.3-0.1-0.5-0.1c-0.2-0.1-0.5-0.1-0.8-0.1c-0.8,0-1.3,0.2-1.7,0.6c-0.3,0.4-0.5,1-0.5,1.7V124H141.9z M159.2,124v-20.4h6.9
	c1.6,0,2.9,0.3,3.9,0.9c1,0.6,1.8,1.3,2.3,2.3c0.5,1,0.7,2.1,0.7,3.3c0,1.2-0.2,2.3-0.7,3.3c-0.5,1-1.2,1.8-2.2,2.3
	c-1,0.6-2.3,0.9-3.9,0.9h-4.9v-2.2h4.9c1.1,0,2-0.2,2.6-0.6c0.7-0.4,1.1-0.9,1.4-1.5c0.3-0.6,0.5-1.4,0.5-2.2c0-0.8-0.2-1.5-0.5-2.2
	c-0.3-0.6-0.8-1.1-1.5-1.5c-0.7-0.4-1.6-0.6-2.7-0.6h-4.3V124H159.2z M178.1,129.7c-0.4,0-0.8,0-1.1-0.1c-0.3-0.1-0.5-0.1-0.6-0.2
	l0.6-2.1c0.6,0.1,1.1,0.2,1.5,0.2c0.4,0,0.8-0.2,1.2-0.6c0.3-0.3,0.7-0.9,0.9-1.7l0.4-1.2l-5.6-15.4h2.5l4.2,12.2h0.2l4.2-12.2h2.5
	l-6.5,17.5c-0.3,0.8-0.7,1.4-1.1,2c-0.4,0.5-0.9,0.9-1.5,1.2C179.5,129.6,178.8,129.7,178.1,129.7z M190.5,105.8v-2.2h15.3v2.2h-6.4
	V124h-2.5v-18.2H190.5z M213.2,124.3c-1.4,0-2.6-0.3-3.6-1c-1-0.7-1.8-1.6-2.4-2.8c-0.6-1.2-0.9-2.6-0.9-4.1c0-1.6,0.3-3,0.9-4.2
	c0.6-1.2,1.4-2.1,2.4-2.8c1-0.7,2.3-1,3.6-1c1.4,0,2.6,0.3,3.6,1c1,0.7,1.8,1.6,2.4,2.8c0.6,1.2,0.9,2.6,0.9,4.2
	c0,1.6-0.3,3-0.9,4.1c-0.6,1.2-1.4,2.1-2.4,2.8C215.8,123.9,214.6,124.3,213.2,124.3z M213.2,122.2c1,0,1.9-0.3,2.6-0.8
	c0.7-0.5,1.2-1.2,1.5-2.1s0.5-1.8,0.5-2.8c0-1-0.2-2-0.5-2.9c-0.3-0.9-0.8-1.6-1.5-2.1c-0.7-0.5-1.5-0.8-2.6-0.8
	c-1,0-1.9,0.3-2.6,0.8c-0.7,0.5-1.2,1.3-1.5,2.1c-0.3,0.9-0.5,1.8-0.5,2.9c0,1,0.2,2,0.5,2.8s0.8,1.6,1.5,2.1
	C211.3,121.9,212.2,122.2,213.2,122.2z M223.7,124v-15.3h2.3v2.3h0.2c0.3-0.8,0.8-1.4,1.5-1.8c0.7-0.5,1.6-0.7,2.5-0.7
	c0.2,0,0.4,0,0.6,0c0.3,0,0.5,0,0.6,0v2.4c-0.1,0-0.3,0-0.5-0.1c-0.3,0-0.6-0.1-0.9-0.1c-0.7,0-1.4,0.2-2,0.5
	c-0.6,0.3-1,0.7-1.4,1.3c-0.3,0.5-0.5,1.2-0.5,1.8v9.7H223.7z M239.9,124.3c-1.4,0-2.7-0.3-3.7-1c-1-0.7-1.8-1.6-2.4-2.8
	c-0.6-1.2-0.8-2.5-0.8-4.1c0-1.6,0.3-2.9,0.9-4.1c0.6-1.2,1.4-2.1,2.4-2.8c1-0.7,2.2-1,3.6-1c1.1,0,2,0.2,2.9,0.6
	c0.9,0.4,1.6,1,2.1,1.7c0.6,0.7,0.9,1.6,1,2.5h-2.3c-0.2-0.7-0.6-1.3-1.2-1.8c-0.6-0.5-1.4-0.8-2.5-0.8c-0.9,0-1.7,0.2-2.4,0.7
	c-0.7,0.5-1.2,1.1-1.6,2c-0.4,0.9-0.6,1.9-0.6,3c0,1.2,0.2,2.2,0.6,3.1c0.4,0.9,0.9,1.6,1.6,2c0.7,0.5,1.5,0.7,2.4,0.7
	c0.6,0,1.2-0.1,1.7-0.3c0.5-0.2,0.9-0.5,1.3-0.9s0.6-0.9,0.7-1.4h2.3c-0.1,0.9-0.5,1.7-1,2.4c-0.5,0.7-1.2,1.3-2.1,1.7
	C242,124.1,241,124.3,239.9,124.3z M251.7,114.8v9.2h-2.3v-20.4h2.3v7.5h0.2c0.4-0.8,0.9-1.4,1.6-1.9c0.7-0.5,1.7-0.7,2.9-0.7
	c1,0,2,0.2,2.7,0.6c0.8,0.4,1.4,1,1.8,1.9c0.4,0.8,0.7,1.9,0.7,3.2v9.7h-2.3v-9.5c0-1.2-0.3-2.2-0.9-2.8c-0.6-0.7-1.5-1-2.6-1
	c-0.8,0-1.5,0.2-2.1,0.5c-0.6,0.3-1.1,0.8-1.4,1.4C251.8,113.1,251.7,113.9,251.7,114.8z M274,124v-20.4h2.5v18.2h9.5v2.2H274z
	 M289.5,124v-15.3h2.3V124H289.5z M290.7,106.1c-0.5,0-0.9-0.2-1.2-0.5c-0.3-0.3-0.5-0.7-0.5-1.1c0-0.4,0.2-0.8,0.5-1.1
	c0.3-0.3,0.7-0.5,1.2-0.5s0.8,0.2,1.2,0.5c0.3,0.3,0.5,0.7,0.5,1.1c0,0.4-0.2,0.8-0.5,1.1C291.5,106,291.1,106.1,290.7,106.1z
	 M302.3,130c-1.1,0-2.1-0.1-2.9-0.4c-0.8-0.3-1.5-0.7-2-1.1c-0.5-0.5-1-1-1.3-1.5l1.9-1.3c0.2,0.3,0.5,0.6,0.8,1
	c0.3,0.4,0.8,0.7,1.3,0.9c0.6,0.3,1.3,0.4,2.2,0.4c1.2,0,2.3-0.3,3.1-0.9s1.2-1.5,1.2-2.8v-3.1h-0.2c-0.2,0.3-0.4,0.6-0.7,1
	c-0.3,0.4-0.8,0.8-1.4,1.1c-0.6,0.3-1.4,0.5-2.4,0.5c-1.2,0-2.3-0.3-3.3-0.9c-1-0.6-1.7-1.4-2.3-2.5c-0.6-1.1-0.8-2.5-0.8-4.1
	c0-1.6,0.3-2.9,0.8-4.1c0.5-1.2,1.3-2.1,2.3-2.7c1-0.6,2.1-1,3.4-1c1,0,1.8,0.2,2.4,0.5c0.6,0.3,1,0.7,1.4,1.1
	c0.3,0.4,0.6,0.7,0.7,1h0.2v-2.4h2.3v15.7c0,1.3-0.3,2.4-0.9,3.2c-0.6,0.8-1.4,1.4-2.4,1.8C304.6,129.8,303.5,130,302.3,130z
	 M302.2,121.6c0.9,0,1.7-0.2,2.4-0.6c0.6-0.4,1.1-1.1,1.5-1.9c0.3-0.8,0.5-1.8,0.5-2.9c0-1.1-0.2-2.1-0.5-2.9
	c-0.3-0.8-0.8-1.5-1.5-2c-0.6-0.5-1.5-0.7-2.4-0.7c-1,0-1.8,0.3-2.5,0.8c-0.7,0.5-1.1,1.2-1.5,2c-0.3,0.8-0.5,1.8-0.5,2.8
	c0,1.1,0.2,2,0.5,2.8c0.3,0.8,0.8,1.4,1.5,1.9C300.4,121.4,301.2,121.6,302.2,121.6z M315.5,114.8v9.2h-2.3v-20.4h2.3v7.5h0.2
	c0.4-0.8,0.9-1.4,1.6-1.9c0.7-0.5,1.7-0.7,2.9-0.7c1,0,2,0.2,2.7,0.6c0.8,0.4,1.4,1,1.8,1.9c0.4,0.8,0.7,1.9,0.7,3.2v9.7h-2.3v-9.5
	c0-1.2-0.3-2.2-0.9-2.8c-0.6-0.7-1.5-1-2.6-1c-0.8,0-1.5,0.2-2.1,0.5c-0.6,0.3-1.1,0.8-1.4,1.4C315.7,113.1,315.5,113.9,315.5,114.8
	z M336.4,108.7v2h-7.9v-2H336.4z M330.8,105h2.3v14.6c0,0.7,0.1,1.2,0.3,1.5c0.2,0.3,0.5,0.5,0.8,0.7c0.3,0.1,0.6,0.2,1,0.2
	c0.3,0,0.5,0,0.6,0c0.2,0,0.3-0.1,0.4-0.1l0.5,2.1c-0.2,0.1-0.4,0.1-0.7,0.2c-0.3,0.1-0.6,0.1-1.1,0.1c-0.7,0-1.3-0.1-1.9-0.4
	c-0.6-0.3-1.2-0.7-1.6-1.3c-0.4-0.6-0.6-1.3-0.6-2.2V105z M342.2,114.8v9.2h-2.3v-15.3h2.3v2.4h0.2c0.4-0.8,0.9-1.4,1.6-1.9
	c0.7-0.5,1.7-0.7,2.8-0.7c1,0,1.9,0.2,2.7,0.6c0.8,0.4,1.4,1.1,1.8,1.9c0.4,0.8,0.6,1.9,0.6,3.2v9.7h-2.3v-9.5
	c0-1.2-0.3-2.1-0.9-2.8c-0.6-0.7-1.5-1-2.6-1c-0.7,0-1.4,0.2-2,0.5c-0.6,0.3-1,0.8-1.4,1.4C342.4,113.1,342.2,113.9,342.2,114.8z
	 M356.3,124v-15.3h2.3V124H356.3z M357.5,106.1c-0.5,0-0.9-0.2-1.2-0.5c-0.3-0.3-0.5-0.7-0.5-1.1c0-0.4,0.2-0.8,0.5-1.1
	c0.3-0.3,0.7-0.5,1.2-0.5c0.5,0,0.8,0.2,1.2,0.5c0.3,0.3,0.5,0.7,0.5,1.1c0,0.4-0.2,0.8-0.5,1.1C358.3,106,357.9,106.1,357.5,106.1z
	 M365.3,114.8v9.2h-2.3v-15.3h2.3v2.4h0.2c0.4-0.8,0.9-1.4,1.6-1.9c0.7-0.5,1.7-0.7,2.8-0.7c1,0,1.9,0.2,2.7,0.6
	c0.8,0.4,1.4,1.1,1.8,1.9c0.4,0.8,0.6,1.9,0.6,3.2v9.7h-2.3v-9.5c0-1.2-0.3-2.1-0.9-2.8c-0.6-0.7-1.5-1-2.6-1c-0.7,0-1.4,0.2-2,0.5
	c-0.6,0.3-1,0.8-1.4,1.4C365.4,113.1,365.3,113.9,365.3,114.8z M385.5,130c-1.1,0-2.1-0.1-2.9-0.4c-0.8-0.3-1.5-0.7-2-1.1
	c-0.5-0.5-1-1-1.3-1.5l1.9-1.3c0.2,0.3,0.5,0.6,0.8,1c0.3,0.4,0.8,0.7,1.3,0.9c0.6,0.3,1.3,0.4,2.2,0.4c1.2,0,2.2-0.3,3.1-0.9
	s1.2-1.5,1.2-2.8v-3.1h-0.2c-0.2,0.3-0.4,0.6-0.7,1c-0.3,0.4-0.8,0.8-1.4,1.1c-0.6,0.3-1.4,0.5-2.4,0.5c-1.2,0-2.3-0.3-3.3-0.9
	c-1-0.6-1.7-1.4-2.3-2.5c-0.6-1.1-0.8-2.5-0.8-4.1c0-1.6,0.3-2.9,0.8-4.1c0.6-1.2,1.3-2.1,2.3-2.7c1-0.6,2.1-1,3.4-1
	c1,0,1.8,0.2,2.4,0.5c0.6,0.3,1,0.7,1.4,1.1c0.3,0.4,0.6,0.7,0.7,1h0.2v-2.4h2.3v15.7c0,1.3-0.3,2.4-0.9,3.2
	c-0.6,0.8-1.4,1.4-2.4,1.8C387.8,129.8,386.7,130,385.5,130z M385.4,121.6c0.9,0,1.7-0.2,2.4-0.6c0.6-0.4,1.1-1.1,1.5-1.9
	c0.3-0.8,0.5-1.8,0.5-2.9c0-1.1-0.2-2.1-0.5-2.9c-0.3-0.8-0.8-1.5-1.5-2c-0.6-0.5-1.5-0.7-2.4-0.7c-1,0-1.8,0.3-2.5,0.8
	c-0.7,0.5-1.2,1.2-1.5,2c-0.3,0.8-0.5,1.8-0.5,2.8c0,1.1,0.2,2,0.5,2.8c0.3,0.8,0.8,1.4,1.5,1.9
	C383.6,121.4,384.4,121.6,385.4,121.6z"/>
</svg>
