<?xml version="1.0" standalone="no"?>
<!DOCTYPE svg PUBLIC "-//W3C//DTD SVG 20010904//EN"
 "http://www.w3.org/TR/2001/REC-SVG-20010904/DTD/svg10.dtd">
<svg version="1.0" xmlns="http://www.w3.org/2000/svg"
 width="255.000000pt" height="300.000000pt" viewBox="0 0 255.000000 300.000000"
 preserveAspectRatio="xMidYMid meet">

<g transform="translate(0.000000,300.000000) scale(0.100000,-0.100000)"
fill="#000000" stroke="none">
<path d="M1164 2985 c-88 -19 -171 -61 -220 -112 -99 -101 -118 -259 -84 -700
7 -98 8 -155 1 -180 -13 -46 -54 -113 -125 -202 -113 -140 -150 -208 -233
-426 -25 -66 -68 -161 -94 -211 -51 -94 -56 -122 -38 -187 10 -36 12 -38 28
-23 27 25 74 30 109 12 54 -28 133 -133 282 -374 62 -100 64 -103 94 -96 78
16 95 39 81 111 -5 27 -23 47 -98 107 -157 125 -262 216 -269 234 -4 9 -7 51
-7 92 -1 116 37 258 108 398 33 64 72 155 87 202 32 102 54 149 103 215 34 47
36 54 41 147 4 69 1 103 -7 115 -25 33 -11 93 29 121 17 13 17 14 -3 41 -24
33 -45 142 -36 191 4 19 16 50 27 68 17 27 26 32 58 32 74 0 126 -66 120 -155
l-3 -55 66 0 66 0 -5 53 c-3 40 1 63 16 93 31 61 55 77 120 82 71 5 99 -14
138 -93 22 -46 26 -65 22 -115 -3 -40 -11 -70 -26 -89 -21 -29 -21 -29 -1 -46
20 -19 27 -88 10 -113 -10 -17 15 -87 69 -192 21 -41 52 -115 69 -165 18 -49
58 -146 91 -215 33 -69 69 -161 80 -205 26 -99 39 -345 22 -395 -10 -28 -9
-35 5 -45 13 -10 15 -22 10 -63 -5 -45 -3 -55 23 -91 70 -96 211 -63 302 70
21 31 46 56 60 59 60 15 81 195 40 347 -46 173 -120 313 -287 548 -187 261
-232 382 -245 655 -6 137 -12 177 -33 238 -48 139 -118 220 -241 278 -114 54
-204 65 -322 39z m313 -150 c7 -19 5 -20 -24 -29 -18 -6 -23 -3 -23 12 0 33
35 46 47 17z m25 -245 c17 -17 27 -34 23 -38 -4 -4 -10 -1 -12 6 -3 7 -21 24
-41 37 -25 17 -31 25 -19 25 10 0 32 -14 49 -30z m687 -1654 c18 -22 -2 -26
-23 -5 -16 16 -17 19 -4 19 9 0 21 -6 27 -14z"/>
<path d="M974 2462 c-39 -26 -41 -88 -3 -148 24 -40 35 -41 72 -9 64 57 0 204
-69 157z m55 -36 c7 -8 11 -27 9 -43 l-3 -28 -18 32 c-9 18 -17 37 -17 43 0
15 16 12 29 -4z"/>
<path d="M1336 2454 c-21 -20 -28 -52 -24 -100 3 -33 8 -41 38 -56 48 -24 57
-22 92 12 27 27 30 36 25 71 -7 53 -40 89 -83 89 -18 0 -40 -7 -48 -16z m94
-23 c13 -25 13 -31 -1 -31 -12 0 -38 29 -39 43 0 15 30 6 40 -12z"/>
<path d="M1220 2312 c0 -5 7 -13 16 -16 10 -4 14 -1 12 6 -5 15 -28 23 -28 10z"/>
<path d="M1080 2300 c0 -5 4 -10 9 -10 6 0 13 5 16 10 3 6 -1 10 -9 10 -9 0
-16 -4 -16 -10z"/>
<path d="M1416 2154 c-80 -61 -191 -106 -271 -112 -65 -4 -74 -2 -138 32 -76
41 -83 32 -9 -11 42 -25 57 -28 137 -28 81 0 97 3 160 33 78 37 185 103 185
115 0 14 -18 6 -64 -29z"/>
<path d="M955 2063 c49 -50 136 -123 148 -123 6 0 -2 9 -19 19 -18 11 -35 24
-38 29 -3 6 -30 29 -59 53 -28 23 -43 33 -32 22z"/>
<path d="M1280 1965 c-14 -8 -20 -14 -14 -15 5 0 19 7 30 15 24 18 16 19 -16
0z"/>
<path d="M1143 1933 c15 -2 39 -2 55 0 15 2 2 4 -28 4 -30 0 -43 -2 -27 -4z"/>
<path d="M1700 632 l0 -79 -72 -70 c-128 -123 -270 -177 -473 -178 -141 0
-158 7 -229 87 l-47 53 48 -70 c47 -68 48 -72 48 -144 l0 -73 -50 -45 c-79
-70 -104 -83 -162 -83 -29 0 -53 -4 -53 -10 0 -14 106 -13 133 1 12 6 36 25
53 41 58 54 139 74 361 87 147 9 216 10 268 1 122 -19 143 -27 160 -63 26 -56
66 -72 175 -72 78 0 102 4 135 22 42 22 96 73 78 73 -6 0 -16 -7 -24 -16 -22
-27 -89 -55 -144 -61 -112 -12 -206 37 -221 112 -3 19 -9 33 -13 31 -11 -7 -3
118 14 194 16 77 33 340 21 340 -3 0 -6 -35 -6 -78z"/>
<path d="M238 153 c7 -3 16 -2 19 1 4 3 -2 6 -13 5 -11 0 -14 -3 -6 -6z"/>
<path d="M670 30 c0 -5 7 -10 16 -10 8 0 12 5 9 10 -3 6 -10 10 -16 10 -5 0
-9 -4 -9 -10z"/>
</g>
</svg>
