<svg id="Layer_1" data-name="Layer 1" xmlns="http://www.w3.org/2000/svg" viewBox="0 0 360 339.29623"><defs><style>.cls-1{fill:#fff;}</style></defs><title>linuxboot</title><path d="M56.44316,226.18643c-10.28914,0-20.42835.14255-30.5589-.09129a19.706,19.706,0,0,1-8.44949-2.00983,13.79883,13.79883,0,0,1-6.65207-15.51624,14.12038,14.12038,0,0,1,13.63818-11.04435c10.54206-.13294,21.087-.03538,31.94744-.03538v-23.551q-3.20151,0-6.41052,0c-8.10242-.00163-16.20645.09761-24.30682-.03234-9.0255-.14479-15.30589-6.19814-15.26358-14.46038.04214-8.22642,6.45411-14.27119,15.41977-14.344,10.136-.08234,20.27321-.019,30.64251-.019V121.62775c-1.49733,0-2.98512.00015-4.4729,0-8.87408-.00108-17.749.072-26.622-.02459-8.60916-.09369-14.96309-6.29093-14.96932-14.39656-.00627-8.1728,6.23439-14.23047,14.94834-14.30317,10.26635-.08569,20.534-.0201,31.07482-.0201V69.19554c-4.14027,0-8.2147,0-12.28913,0-5.91606,0-11.83217.01614-17.74816-.00389-9.636-.0326-16.05509-5.847-15.98646-14.45177.06706-8.40687,6.52086-14.22738,15.84938-14.25043,8.74542-.02161,17.49093-.00473,26.2364-.00479h3.82416c.56719-3.01353.87987-5.81609,1.63476-8.49345C61.75667,18.41773,73.60289,9.58549,88.14208,9.5681q61.1539-.07309,122.308-.0177,29.90178-.00016,59.8036.001c19.4634.00442,31.57942,10.98675,33.59279,30.93327,2.44967,0,4.9661-.00007,7.48252,0,7.84522.00027,15.69069-.04113,23.53554.01209,8.66343.05879,15.02385,6.09409,15.10045,14.227.07848,8.3348-6.25278,14.409-15.205,14.45793-10.15015.05548-20.30086.0128-30.77219.0128V92.87971c1.28362,0,2.64838-.00014,4.01313,0,9.0027.00113,18.006-.06387,27.00788.02245,8.72858.08369,14.957,6.11476,14.95528,14.29685-.00169,8.10232-6.36146,14.32145-14.9659,14.40249-10.27089.09671-20.54335.0228-31.07285.0228V145.081c1.303,0,2.64889-.00031,3.99478.00006,9.1313.00243,18.26489-.12077,27.3932.04617,7.68212.14047,13.48728,5.25435,14.53851,12.38789a14.16582,14.16582,0,0,1-9.49433,15.467,24.67845,24.67845,0,0,1-7.20928.91539c-9.63747.09822-19.27653.04052-29.19794.04052v23.53819c9.68571,0,19.29419-.01121,28.9026.01a29.56671,29.56671,0,0,1,5.38142.24972,14.42359,14.42359,0,0,1,11.6852,15.44553A14.116,14.116,0,0,1,335.99578,226.132c-9.2575.15041-18.51908.04836-27.77891.055-1.38958.001-2.77919.00014-4.15241.00014-.56678,2.9737-.88961,5.6519-1.59862,8.22318-3.81844,13.84781-15.7426,22.59663-30.857,22.60418q-78.13014.039-156.26028.01029-12.34656,0-24.6931-.00025C70.72728,257.02128,58.8983,246.55211,56.44316,226.18643Zm117.339,15.37119a6.20236,6.20236,0,0,0,.35272-1.17615c.00324-1.15836-.01179-2.31743-.05177-3.47516a222.67768,222.67768,0,0,1,15.33181-89.55207c14.63688-37.52144,38.13026-67.43338,73.734-87.06573,5.00955-2.76232,10.19337-5.20732,16.17059-8.24313a141.86137,141.86137,0,0,0-82.38493,19.28633c-7.16481,4.30941-14.55986,5.69748-22.88056,3.47683a124.06516,124.06516,0,0,0-19.00573-3.01216c-36.65363-3.853-67.6534,14.37577-81.53944,47.89132a17.03674,17.03674,0,0,0-1.32969,6.30359q-.12309,49.284-.05155,98.56852c.0052,10.71886,6.299,16.98412,17.0516,16.99255q32.79062.02574,65.58127.00526ZM213.1763,127.5575l-2.1076-.43629c-18.52012,35.75457-26.58822,73.796-24.38956,114.58911,15.48247,0,30.517.068,45.55021-.04361a81.8544,81.8544,0,0,0,12.6604-.96529c13.16238-2.16919,20.65273-11.11675,20.20375-24.49323-.41933-12.4922-5.88485-21.65566-18.62192-25.37409.28173-.97012.5522-1.81638.7732-2.67541,3.37916-13.134-4.40761-25.19082-17.742-27.48014-6.44-1.10565-9.891,1.6176-10.11032,8.1041-.52257,15.45372-1.042,30.90789-1.46312,46.36458-.15341,5.62976-.02468,11.26724-.02468,17.02642H197.79085C192.99717,195.72,201.1458,161.37039,213.1763,127.5575Z"/><path class="cls-1" d="M173.78214,241.55762H154.76045q-32.79063-.00007-65.58127-.00526c-10.75263-.00843-17.0464-6.27369-17.0516-16.99255q-.02389-49.28434.05155-98.56852a17.03674,17.03674,0,0,1,1.32969-6.30359c13.886-33.51555,44.88581-51.74437,81.53944-47.89132A124.06516,124.06516,0,0,1,174.054,74.80854c8.3207,2.22065,15.71575.83258,22.88056-3.47683a141.86137,141.86137,0,0,1,82.38493-19.28633c-5.97722,3.03581-11.161,5.48081-16.17059,8.24313-35.60373,19.63235-59.09711,49.54429-73.734,87.06573a222.67768,222.67768,0,0,0-15.33181,89.55207c.04,1.15773.055,2.3168.05177,3.47516A6.20236,6.20236,0,0,1,173.78214,241.55762ZM156.96641,98.89216a6.79562,6.79562,0,0,0-6.74378-6.50516,6.58893,6.58893,0,0,0-6.40009,6.76007,6.365,6.365,0,0,0,6.652,6.41266A6.56706,6.56706,0,0,0,156.96641,98.89216Z"/><path class="cls-1" d="M213.1763,127.5575c-12.0305,33.81289-20.17913,68.16248-15.38545,104.61615H217.9047c0-5.75918-.12873-11.39666.02468-17.02642.42114-15.45669.94055-30.91086,1.46312-46.36458.21933-6.4865,3.67036-9.20975,10.11032-8.1041,13.33435,2.28932,21.12112,14.34618,17.742,27.48014-.221.859-.49147,1.70529-.7732,2.67541,12.73707,3.71843,18.20259,12.88189,18.62192,25.37409.449,13.37648-7.04137,22.324-20.20375,24.49323a81.8544,81.8544,0,0,1-12.6604.96529c-15.03323.11165-30.06774.04361-45.55021.04361-2.19866-40.79307,5.86944-78.83454,24.38956-114.58911Zm15.03489,42.21674c-.6962,21.13328-1.381,41.92012-2.09712,63.6589,7.12788-.74846,13.65624-1.02017,20.00623-2.231,5.12624-.97748,8.55762-4.54189,9.66486-9.89134,2.09406-10.117-4.59976-21.38546-14.50062-24.268a61.23913,61.23913,0,0,0-6.855-1.17835c5.07984-6.68418,6.18092-13.5697,2.36853-20.82365C235.132,171.87072,232.75081,169.395,228.21119,169.77424Z"/><path d="M156.96641,98.89216a6.56706,6.56706,0,0,1-6.49186,6.66757,6.365,6.365,0,0,1-6.652-6.41266,6.58893,6.58893,0,0,1,6.40009-6.76007A6.79562,6.79562,0,0,1,156.96641,98.89216Z"/><path d="M228.21119,169.77424c4.53962-.37926,6.92084,2.09648,8.5869,5.26657,3.81239,7.254,2.71131,14.13947-2.36853,20.82365a61.23913,61.23913,0,0,1,6.855,1.17835c9.90086,2.88253,16.59468,14.15095,14.50062,24.268-1.10724,5.34945-4.53862,8.91386-9.66486,9.89134-6.35,1.21083-12.87835,1.48254-20.00623,2.231C226.83021,211.69436,227.515,190.90752,228.21119,169.77424Z"/><path d="M15.49746,324.02033V277.15518H25.4353V315.814H44.444v8.20635Z"/><path d="M53.04154,278.91789q0-4.77609,5.32086-4.77609,5.31985,0,5.32086,4.77609a4.65569,4.65569,0,0,1-1.33022,3.54254,5.591,5.591,0,0,1-3.99064,1.26577Q53.041,283.7262,53.04154,278.91789Zm10.19361,45.10244H53.45742V288.18206h9.77773Z"/><path d="M108.21575,324.02033H98.438V303.08782a10.059,10.059,0,0,0-1.37755-5.8178,5.0168,5.0168,0,0,0-4.39242-1.93944q-4.10242,0-5.93008,2.74049-1.82766,2.74149-1.82666,9.08795v16.86131H75.13358V288.18206h7.46974l1.31411,4.58426h.54477a10.33059,10.33059,0,0,1,4.5042-3.92721,15.34353,15.34353,0,0,1,6.52319-1.33021q6.2503,0,9.48773,3.38193,3.23842,3.38268,3.23843,9.76112Z"/><path d="M145.31072,324.02033l-1.31511-4.58376h-.51255a10.31461,10.31461,0,0,1-4.45587,3.86226,15.21092,15.21092,0,0,1-6.57152,1.36244q-6.31526,0-9.51995-3.38193-3.20672-3.38118-3.20621-9.7289V288.18206h9.77773v20.93251a10.05689,10.05689,0,0,0,1.37755,5.8178,5.01557,5.01557,0,0,0,4.39242,1.93944q4.10243,0,5.93008-2.74049,1.82766-2.74074,1.82666-9.088V288.18206h9.77773v35.83827Z"/><path d="M172.051,305.71653,160.511,288.18206h11.09183l6.95518,11.41206,7.02064-11.41206H196.6695l-11.66783,17.53447,12.21361,18.3038H186.09122l-7.53319-12.277-7.5644,12.277H159.9018Z"/><path d="M205.6205,277.15518h13.23871q9.32862,0,13.49549,2.78881,4.16586,2.78832,4.16687,8.81507a10.18368,10.18368,0,0,1-2.3241,6.87613,11.18528,11.18528,0,0,1-6.78,3.50982v.32072q10.67445,1.82691,10.675,11.21922,0,6.28353-4.24743,9.80945-4.24742,3.52618-11.87627,3.52593H205.6205Zm5.44875,20.0665h8.97618q5.77,0,8.30251-1.811,2.53155-1.81029,2.53154-6.1063,0-3.94307-2.82054-5.68992-2.82155-1.74685-8.97517-1.7471h-8.01452Zm0,4.616v17.53447H220.846q5.6748,0,8.54318-2.19571,2.86836-2.19546,2.86887-6.87614,0-4.35844-2.93332-6.41091-2.93181-2.0512-8.92684-2.05171Z"/><path d="M279.32206,306.42192q0,8.59076-4.327,13.41493-4.32747,4.82517-11.95682,4.82442a15.83726,15.83726,0,0,1-8.367-2.21183,14.59,14.59,0,0,1-5.64107-6.347,22.10086,22.10086,0,0,1-1.98777-9.68056q0-8.59077,4.29576-13.38321,4.29424-4.79194,11.9246-4.7922,7.37258,0,11.71616,4.90447Q279.32156,298.05546,279.32206,306.42192Zm-26.76642,0q0,6.73137,2.69265,10.25755,2.69316,3.52694,7.91785,3.52643,5.2247,0,7.934-3.51032,2.70827-3.51032,2.70877-10.27366,0-6.69966-2.70877-10.178-2.70977-3.47709-7.99841-3.47759-5.22468,0-7.88562,3.42976Q252.55614,299.62634,252.55564,306.42192Z"/><path d="M320.61612,306.42192q0,8.59076-4.327,13.41493-4.32747,4.82517-11.95683,4.82442a15.83722,15.83722,0,0,1-8.367-2.21183,14.59007,14.59007,0,0,1-5.64108-6.347,22.101,22.101,0,0,1-1.98777-9.68056q0-8.59077,4.29576-13.38321,4.29425-4.79194,11.92461-4.7922,7.37257,0,11.71616,4.90447Q320.6156,298.05546,320.61612,306.42192Zm-26.76642,0q0,6.73137,2.69265,10.25755,2.69316,3.52694,7.91785,3.52643,5.22469,0,7.934-3.51032,2.70827-3.51032,2.70876-10.27366,0-6.69966-2.70876-10.178-2.70977-3.47709-7.99841-3.47759-5.22469,0-7.88562,3.42976Q293.8502,299.62634,293.8497,306.42192Z"/><path d="M342.93372,320.26985a17.33236,17.33236,0,0,0,2.72487-.20845,17.59726,17.59726,0,0,0,2.08344-.43249v4.07069a9.73106,9.73106,0,0,1-2.54866.68928,19.18253,19.18253,0,0,1-3.029.27239q-10.19412,0-10.19362-10.73839V293.02259h-5.03286v-2.56426l5.03286-2.21182,2.24354-7.50147h3.07732v8.14241h10.19362v4.13514H337.29163v20.67573a7.11127,7.11127,0,0,0,1.50644,4.87276A5.24281,5.24281,0,0,0,342.93372,320.26985Z"/></svg>