<?xml version="1.0" encoding="utf-8"?>
<!-- Generator: Adobe Illustrator 23.0.2, SVG Export Plug-In . SVG Version: 6.00 Build 0)  -->
<svg version="1.1" id="Layer_1" xmlns="http://www.w3.org/2000/svg" xmlns:xlink="http://www.w3.org/1999/xlink" x="0px" y="0px"
	 viewBox="0 0 400 245" style="enable-background:new 0 0 400 245;" xml:space="preserve">
<style type="text/css">
	.st0{fill:#20D6F5;}
	.st1{fill:#333333;}
	.st2{fill:url(#SVGID_1_);}
	.st3{fill:url(#SVGID_2_);}
	.st4{fill:url(#SVGID_3_);}
	.st5{fill:url(#SVGID_4_);}
	.st6{fill:url(#SVGID_5_);}
	.st7{fill:url(#SVGID_6_);}
	.st8{fill:url(#SVGID_7_);}
	.st9{fill:url(#SVGID_8_);}
	.st10{fill:url(#SVGID_9_);}
	.st11{fill:url(#SVGID_10_);}
	.st12{fill:url(#SVGID_11_);}
	.st13{fill:url(#SVGID_12_);}
	.st14{fill:#F37032;}
	.st15{fill:#58595B;}
	.st16{fill:#FFFFFF;}
	.st17{fill:#2C2523;}
	.st18{fill-rule:evenodd;clip-rule:evenodd;fill:#337E3D;}
	.st19{fill-rule:evenodd;clip-rule:evenodd;fill:#8BBF45;}
	.st20{fill:#2A2E7C;}
	.st21{fill:#43B4E4;}
	.st22{fill:url(#SVGID_13_);}
	.st23{fill:url(#SVGID_14_);}
	.st24{fill:url(#SVGID_15_);}
	.st25{fill:url(#SVGID_16_);}
	.st26{fill:url(#SVGID_17_);}
	.st27{fill:url(#SVGID_18_);}
	.st28{fill:url(#SVGID_19_);}
	.st29{fill:#E1251B;}
	.st30{fill:none;}
	.st31{fill:#4D4D4D;}
	.st32{fill:#A0CC40;}
	.st33{fill:#A682B8;}
	.st34{fill:#917A81;}
	.st35{fill:#E1496D;}
	.st36{fill:#C82A5C;}
	.st37{fill:#EA8096;}
	.st38{fill:#C04A7D;}
	.st39{fill:#C9DF91;}
	.st40{fill:#BD8549;}
	.st41{fill:#8B63A9;}
	.st42{fill:#0078BA;}
	.st43{fill:#231F20;}
	.st44{fill:#536657;}
	.st45{fill:#00A75D;}
	.st46{fill:#182B4F;}
	.st47{fill:#3665B0;}
	.st48{fill:#008FC8;}
	.st49{fill:#00A9E8;}
	.st50{fill:#29C2E3;}
	.st51{fill-rule:evenodd;clip-rule:evenodd;fill:url(#in_sf_base_1_);}
	.st52{fill-rule:evenodd;clip-rule:evenodd;fill:url(#in_sf_base_2_);}
	.st53{fill-rule:evenodd;clip-rule:evenodd;fill:url(#SVGID_20_);}
	.st54{fill-rule:evenodd;clip-rule:evenodd;fill:url(#out_sf_base_1_);}
	.st55{opacity:0.74;fill-rule:evenodd;clip-rule:evenodd;fill:url(#SVGID_21_);}
	.st56{fill-rule:evenodd;clip-rule:evenodd;fill:url(#in_up_right_1_);}
	.st57{fill-rule:evenodd;clip-rule:evenodd;fill:url(#in_up_right_2_);}
	.st58{fill-rule:evenodd;clip-rule:evenodd;fill:url(#SVGID_22_);}
	.st59{opacity:0.9;fill-rule:evenodd;clip-rule:evenodd;fill:url(#SVGID_23_);}
	.st60{fill:#241D1E;}
	.st61{fill:#727172;}
	.st62{fill:#5C5B5B;}
	.st63{opacity:0.2;fill-rule:evenodd;clip-rule:evenodd;fill:url(#SVGID_24_);}
	.st64{opacity:0.2;fill-rule:evenodd;clip-rule:evenodd;fill:url(#SVGID_25_);fill-opacity:0.42;}
	.st65{opacity:0.5;fill:#C5C5C4;}
	.st66{fill-rule:evenodd;clip-rule:evenodd;fill:url(#SVGID_26_);}
	.st67{opacity:0.9;fill-rule:evenodd;clip-rule:evenodd;fill:url(#SVGID_27_);}
	.st68{fill:url(#wing_low_sf_1_);}
	.st69{fill-rule:evenodd;clip-rule:evenodd;fill:url(#SVGID_28_);}
	.st70{fill-rule:evenodd;clip-rule:evenodd;fill:url(#SVGID_29_);}
	.st71{fill-rule:evenodd;clip-rule:evenodd;fill:url(#SVGID_30_);}
	.st72{fill-rule:evenodd;clip-rule:evenodd;fill:url(#SVGID_31_);}
	.st73{fill-rule:evenodd;clip-rule:evenodd;fill:#454242;}
	.st74{fill:#C5C5C4;}
	.st75{fill:url(#SVGID_32_);fill-opacity:0.8;}
	.st76{fill:#454242;}
	.st77{fill-rule:evenodd;clip-rule:evenodd;fill:url(#SVGID_33_);}
	.st78{fill-rule:evenodd;clip-rule:evenodd;fill:#DADBDA;}
	.st79{fill-rule:evenodd;clip-rule:evenodd;fill:url(#SVGID_34_);}
	.st80{fill-rule:evenodd;clip-rule:evenodd;fill:url(#SVGID_35_);}
	.st81{fill-rule:evenodd;clip-rule:evenodd;fill:url(#SVGID_36_);}
	.st82{fill-rule:evenodd;clip-rule:evenodd;fill:url(#SVGID_37_);}
	.st83{fill:#005BAB;}
	.st84{fill:url(#SVGID_38_);}
	.st85{fill:url(#SVGID_39_);}
	.st86{fill:#ED2924;}
	.st87{fill:#2F3A79;}
	.st88{fill-rule:evenodd;clip-rule:evenodd;fill:#E13A3E;}
	.st89{fill-rule:evenodd;clip-rule:evenodd;fill:#231F20;}
</style>
<g>
	<path class="st46" d="M10.43,51.66c-3.95,0-7.15,3.39-7.15,7.33v124.5c0,4.14,3.2,7.34,7.33,7.34c4.14,0,7.15-3.2,7.15-7.34V58.99
		C17.77,55.04,14.57,51.66,10.43,51.66"/>
	<path class="st46" d="M77.4,90.59c-29.34,0-50.78,23.32-50.78,50.78v0.38c0,27.46,21.25,50.4,50.4,50.4
		c29.34,0,50.97-23.32,50.97-50.78v-0.38C127.98,113.53,106.55,90.59,77.4,90.59 M113.13,141.74c0,20.5-14.67,37.43-35.73,37.43
		c-20.5,0-35.92-16.93-35.92-37.8v-0.38c0-20.5,14.48-37.61,35.54-37.61c20.5,0,36.11,17.11,36.11,37.99V141.74z"/>
	<path class="st46" d="M389.38,51.66c-3.95,0-7.15,3.39-7.15,7.33v124.5c0,4.14,3.2,7.34,7.33,7.34c4.14,0,7.15-3.2,7.15-7.34V58.99
		C396.72,55.04,393.52,51.66,389.38,51.66"/>
	<path class="st46" d="M318.95,90.59c-29.34,0-50.78,23.32-50.78,50.78v0.38c0,27.46,21.25,50.4,50.4,50.4
		c14.57,0,27.23-5.75,36.29-14.91v10.65c0,1.66,3.2,2.94,7.34,2.94c4.14,0,7.15-1.28,7.15-2.94v-42.23c0.12-1.42,0.19-2.85,0.19-4.3
		v-0.38C369.54,113.53,348.1,90.59,318.95,90.59 M354.68,141.74c0,20.5-14.67,37.43-35.73,37.43c-20.5,0-35.92-16.93-35.92-37.8
		v-0.38c0-20.5,14.48-37.61,35.54-37.61c20.5,0,36.11,17.11,36.11,37.99V141.74z"/>
	<polygon class="st47" points="235.03,139.78 234.7,139.17 234.3,139.95 234.64,140.59 	"/>
	<polygon class="st47" points="162,156.14 161.57,156.96 161.91,157.6 162.35,156.77 	"/>
	<polygon class="st47" points="198.87,118.7 201.6,113.41 201.57,113.35 	"/>
	<path class="st46" d="M209.84,94.01c-1.73-3.47-4.51-5.22-8.27-5.22c-0.12,0-0.24,0.01-0.37,0.02c-0.12,0-0.23-0.02-0.35-0.02
		c-3.66,0-6.51,1.85-8.01,5.18l-0.47,1.01l9.36,18.17l8.99-17.46L209.84,94.01z"/>
	<path class="st46" d="M155.77,169.24c-4.03,7.55-7.54,10.22-13.44,10.22c-3.73,0-5.81-0.49-7.79-1.04c-1.01-0.28-2.16-0.6-3.58-0.6
		c-4.22,0-7.65,3.06-7.65,6.82c0,3.04,1.97,5.47,5.41,6.67l0.14,0.04c3.6,1.04,7.74,2,13.62,2c12.59,0,20.9-5.48,27.77-18.31
		c0.04-0.08,0.23-0.43,0.51-0.97l-8.52-16.8L155.77,169.24z"/>
	<path class="st46" d="M171.45,139.35l-9.49,18.13l8.89,16.73c1.72-3.61,6.68-13.09,6.9-13.52l2.67-5.21L171.45,139.35z"/>
	<polygon class="st47" points="170.61,141 179.42,157.37 198.87,118.7 198.01,120.38 198.87,118.7 201.57,113.35 201.6,113.41 
		201.74,113.14 192.38,94.97 	"/>
	<path class="st46" d="M146.04,94.01c-1.73-3.47-4.51-5.23-8.27-5.23c-4.8,0-8.56,3.27-8.56,7.44c0,1.23,0.34,2.49,1.05,3.87
		l31.88,57.18l8.6-16.01L146.04,94.01z"/>
	<path class="st46" d="M219.57,169.24c-4.03,7.55-7.54,10.22-13.44,10.22c-3.73,0-5.81-0.49-7.79-1.04c-1.01-0.28-2.16-0.6-3.58-0.6
		c-4.22,0-7.65,3.06-7.65,6.82c0,3.04,1.97,5.47,5.41,6.67l0.14,0.04c3.6,1.04,7.74,2,13.63,2c12.59,0,20.9-5.48,27.77-18.31
		c0.04-0.07,0.18-0.35,0.69-1.2l-8.73-17.31L219.57,169.24z"/>
	<polygon class="st47" points="210.73,95.68 201.74,113.14 204.61,118.71 225.98,156.78 234.63,140.98 	"/>
	<path class="st46" d="M264.66,88.78c-3.66,0-6.51,1.85-8.01,5.18l-21.91,46.95l8.81,16.37l28.63-57.46l0.09-0.21
		c0.37-0.93,0.79-2.15,0.79-3.38C273.07,92.12,269.3,88.78,264.66,88.78"/>
	<path class="st46" d="M234.63,140.69l-8.68,16.01l8.71,17.25c1.55-2.95,6.66-12.81,6.88-13.25l2.29-4.54L234.63,140.69z"/>
</g>
</svg>
