<?xml version="1.0" encoding="UTF-8"?><svg baseProfile="tiny" viewBox="0 0 146 35" width="146px" height="35px" xmlns="http://www.w3.org/2000/svg" version="1.2"><g fill="#bc1d1d"><rect x="71" width="12" height="1"/><rect height="1" x="83" width="1"/><rect x="84" width="1" height="1"/><rect x="129" width="1" height="24"/><rect x="130" width="1" height="24"/><rect width="1" height="24" x="131"/><rect width="1" height="8" x="132"/><rect x="71" y="1" width="12" height="1"/><rect x="83" y="1" width="1" height="1"/><rect width="1" height="1" x="84" y="1"/><rect x="71" y="2" width="12" height="1"/><rect x="83" y="2" width="1" height="1"/><rect y="2" width="1" height="1" x="84"/><rect x="71" y="3" width="4" height="1"/><rect x="75" y="3" width="1" height="1"/><rect width="1" height="1" x="76" y="3"/><rect x="77" y="3" width="1" height="30"/><rect x="78" y="3" width="1" height="30"/><rect x="79" y="3" width="1" height="1"/><rect y="3" width="3" height="1" x="80"/><rect x="83" y="3" width="1" height="1"/><rect width="1" height="1" x="84" y="3"/><rect x="76" y="4" width="1" height="29"/><rect x="79" y="4" width="1" height="29"/><rect height="1" x="6" y="6" width="1"/><rect x="7" y="6" width="1" height="1"/><rect y="6" width="1" height="1" x="8"/><rect height="1" x="9" y="6" width="1"/><rect x="10" y="6" width="1" height="1"/><rect y="6" width="1" height="1" x="19"/><rect x="20" y="6" width="1" height="1"/><rect x="21" y="6" width="1" height="1"/><rect x="22" y="6" width="1" height="1"/><rect x="23" y="6" width="1" height="1"/><rect x="38" y="6" width="1" height="1"/><rect x="39" y="6" width="1" height="1"/><rect x="40" y="6" width="1" height="1"/><rect width="1" height="1" x="41" y="6"/><rect y="6" width="1" height="1" x="42"/><rect x="43" y="6" width="1" height="1"/><rect x="62" y="6" width="1" height="1"/><rect width="1" height="1" x="63" y="6"/><rect x="64" y="6" width="1" height="1"/><rect x="65" y="6" width="1" height="1"/><rect height="1" x="66" y="6" width="1"/><rect y="6" width="1" height="1" x="67"/><rect x="92" y="6" width="1" height="1"/><rect x="93" y="6" width="1" height="1"/><rect x="94" y="6" width="1" height="1"/><rect x="95" y="6" width="1" height="1"/><rect x="115" y="6" width="1" height="1"/><rect x="116" y="6" width="1" height="1"/><rect x="117" y="6" width="1" height="1"/><rect width="1" height="1" x="118" y="6"/><rect x="136" y="6" width="1" height="1"/><rect x="137" y="6" width="1" height="1"/><rect y="6" width="1" height="1" x="138"/><rect x="139" y="6" width="1" height="1"/><rect x="140" y="6" width="1" height="1"/><rect y="6" width="1" height="1" x="141"/><rect y="7" width="1" height="1"/><rect y="7" width="1" height="1" x="1"/><rect x="2" y="7" width="1" height="1"/><rect x="4" y="7" width="1" height="1"/><rect x="5" y="7" width="1" height="1"/><rect x="6" y="7" width="1" height="1"/><rect x="7" y="7" width="3" height="1"/><rect x="10" y="7" width="1" height="1"/><rect x="11" y="7" width="1" height="1"/><rect x="12" y="7" width="1" height="1"/><rect height="1" x="17" y="7" width="1"/><rect x="18" y="7" width="1" height="1"/><rect x="19" y="7" width="3" height="1"/><rect x="22" y="7" width="1" height="1"/><rect height="1" x="23" y="7" width="1"/><rect y="7" width="1" height="1" x="24"/><rect x="25" y="7" width="1" height="1"/><rect x="35" y="7" width="1" height="1"/><rect x="36" y="7" width="1" height="1"/><rect x="37" y="7" width="1" height="1"/><rect x="38" y="7" width="5" height="1"/><rect width="1" height="1" x="43" y="7"/><rect x="44" y="7" width="1" height="1"/><rect width="1" height="1" x="45" y="7"/><rect height="1" x="48" y="7" width="2"/><rect height="1" x="50" y="7" width="1"/><rect x="55" y="7" width="1" height="1"/><rect y="7" width="1" height="1" x="56"/><rect x="57" y="7" width="1" height="1"/><rect height="1" x="58" y="7" width="1"/><rect height="1" x="60" y="7" width="1"/><rect width="1" height="1" x="61" y="7"/><rect x="62" y="7" width="1" height="1"/><rect x="63" y="7" width="3" height="1"/><rect x="66" y="7" width="1" height="1"/><rect x="67" y="7" width="1" height="1"/><rect width="1" height="1" x="68" y="7"/><rect x="69" y="7" width="1" height="1"/><rect width="1" height="1" x="89" y="7"/><rect x="90" y="7" width="1" height="1"/><rect y="7" width="1" height="1" x="91"/><rect x="92" y="7" width="3" height="1"/><rect x="95" y="7" width="1" height="1"/><rect x="96" y="7" width="1" height="1"/><rect y="7" width="1" height="1" x="97"/><rect x="98" y="7" width="1" height="1"/><rect x="112" y="7" width="1" height="1"/><rect x="113" y="7" width="1" height="1"/><rect x="114" y="7" width="1" height="1"/><rect x="115" y="7" width="1" height="1"/><rect x="116" y="7" width="2" height="1"/><rect x="118" y="7" width="1" height="1"/><rect y="7" width="1" height="1" x="119"/><rect x="120" y="7" width="1" height="1"/><rect y="7" width="1" height="1" x="121"/><rect x="122" y="7" width="1" height="1"/><rect x="134" y="7" width="1" height="1"/><rect width="1" height="1" x="135" y="7"/><rect x="136" y="7" width="1" height="1"/><rect x="137" y="7" width="3" height="1"/><rect y="7" width="1" height="1" x="140"/><rect height="1" x="141" y="7" width="1"/><rect width="1" height="1" x="142" y="7"/><rect height="1" x="143" y="7" width="1"/><rect height="16" y="8" width="1"/><rect x="1" y="8" width="1" height="16"/><rect x="2" y="8" width="1" height="1"/><rect x="3" y="8" width="1" height="1"/><rect width="1" height="1" x="4" y="8"/><rect x="5" y="8" width="1" height="1"/><rect width="1" height="1" x="6" y="8"/><rect x="7" y="8" width="1" height="1"/><rect height="1" x="8" y="8" width="1"/><rect y="8" width="2" height="1" x="9"/><rect x="11" y="8" width="1" height="1"/><rect y="8" width="1" height="1" x="12"/><rect x="13" y="8" width="1" height="1"/><rect x="16" y="8" width="1" height="1"/><rect x="17" y="8" width="2" height="1"/><rect x="19" y="8" width="1" height="1"/><rect x="20" y="8" width="1" height="1"/><rect x="21" y="8" width="1" height="1"/><rect x="22" y="8" width="2" height="1"/><rect x="24" y="8" width="1" height="1"/><rect x="25" y="8" width="1" height="1"/><rect x="26" y="8" width="1" height="1"/><rect x="34" y="8" width="1" height="1"/><rect x="35" y="8" width="1" height="1"/><rect x="36" y="8" width="3" height="1"/><rect x="39" y="8" width="1" height="1"/><rect y="8" width="1" height="1" x="40"/><rect y="8" width="1" height="1" x="41"/><rect x="42" y="8" width="3" height="1"/><rect y="8" width="1" height="1" x="45"/><rect x="46" y="8" width="1" height="1"/><rect x="47" y="8" width="1" height="1"/><rect x="48" y="8" width="2" height="1"/><rect x="50" y="8" width="1" height="16"/><rect x="55" y="8" width="1" height="16"/><rect x="56" y="8" width="1" height="16"/><rect x="57" y="8" width="1" height="16"/><rect height="1" x="58" y="8" width="1"/><rect x="59" y="8" width="1" height="1"/><rect x="60" y="8" width="1" height="1"/><rect x="61" y="8" width="1" height="1"/><rect width="1" height="1" x="62" y="8"/><rect width="1" height="1" x="63" y="8"/><rect width="1" height="1" x="64" y="8"/><rect x="65" y="8" width="1" height="1"/><rect x="66" y="8" width="2" height="1"/><rect x="68" y="8" width="1" height="1"/><rect x="69" y="8" width="1" height="1"/><rect width="1" height="1" x="70" y="8"/><rect x="87" y="8" width="1" height="1"/><rect x="88" y="8" width="1" height="1"/><rect y="8" width="8" height="1" x="89"/><rect width="1" height="1" x="97" y="8"/><rect x="98" y="8" width="1" height="1"/><rect x="99" y="8" width="1" height="1"/><rect x="110" y="8" width="1" height="1"/><rect height="1" x="111" y="8" width="1"/><rect x="112" y="8" width="1" height="1"/><rect width="8" height="1" x="113" y="8"/><rect x="121" y="8" width="1" height="1"/><rect x="122" y="8" width="1" height="1"/><rect height="1" x="123" y="8" width="1"/><rect height="1" x="132" y="8" width="1"/><rect x="133" y="8" width="1" height="1"/><rect y="8" width="1" height="1" x="134"/><rect x="135" y="8" width="1" height="1"/><rect width="1" height="1" x="136" y="8"/><rect x="137" y="8" width="1" height="1"/><rect height="1" x="138" y="8" width="1"/><rect x="139" y="8" width="1" height="1"/><rect width="2" height="1" x="140" y="8"/><rect height="1" x="142" y="8" width="1"/><rect x="143" y="8" width="1" height="1"/><rect height="1" x="144" y="8" width="1"/><rect x="2" y="9" width="1" height="1"/><rect y="9" width="1" height="1" x="3"/><rect x="4" y="9" width="1" height="1"/><rect x="5" y="9" width="1" height="1"/><rect y="9" width="1" height="1" x="6"/><rect width="1" height="1" x="7" y="9"/><rect height="1" x="9" y="9" width="1"/><rect x="10" y="9" width="1" height="1"/><rect y="9" width="1" height="1" x="11"/><rect x="12" y="9" width="1" height="1"/><rect x="13" y="9" width="1" height="1"/><rect x="14" y="9" width="1" height="1"/><rect x="15" y="9" width="1" height="1"/><rect y="9" width="1" height="1" x="16"/><rect x="17" y="9" width="1" height="1"/><rect x="18" y="9" width="1" height="1"/><rect width="1" height="1" x="19" y="9"/><rect height="1" x="21" y="9" width="1"/><rect x="22" y="9" width="1" height="1"/><rect x="23" y="9" width="1" height="1"/><rect x="24" y="9" width="1" height="1"/><rect width="1" height="2" x="25" y="9"/><rect x="26" y="9" width="1" height="1"/><rect y="9" width="1" height="1" x="33"/><rect x="34" y="9" width="1" height="1"/><rect x="35" y="9" width="1" height="1"/><rect x="36" y="9" width="1" height="1"/><rect x="37" y="9" width="1" height="1"/><rect x="38" y="9" width="1" height="1"/><rect x="39" y="9" width="1" height="1"/><rect y="9" width="1" height="1" x="42"/><rect x="43" y="9" width="1" height="1"/><rect x="44" y="9" width="1" height="1"/><rect x="45" y="9" width="1" height="1"/><rect x="46" y="9" width="1" height="1"/><rect width="1" height="1" x="47" y="9"/><rect x="48" y="9" width="2" height="1"/><rect x="58" y="9" width="1" height="1"/><rect x="59" y="9" width="1" height="1"/><rect x="60" y="9" width="1" height="1"/><rect x="61" y="9" width="1" height="1"/><rect y="9" width="1" height="1" x="62"/><rect x="63" y="9" width="1" height="1"/><rect width="1" height="1" x="66" y="9"/><rect height="1" x="67" y="9" width="1"/><rect x="68" y="9" width="1" height="1"/><rect height="1" x="69" y="9" width="1"/><rect x="70" y="9" width="1" height="1"/><rect y="9" width="1" height="1" x="86"/><rect x="87" y="9" width="1" height="1"/><rect height="1" x="88" y="9" width="1"/><rect x="89" y="9" width="1" height="1"/><rect x="90" y="9" width="1" height="1"/><rect x="91" y="9" width="1" height="1"/><rect y="9" width="1" height="1" x="92"/><rect width="1" height="1" x="93" y="9"/><rect x="94" y="9" width="1" height="1"/><rect x="95" y="9" width="1" height="1"/><rect width="1" height="1" x="96" y="9"/><rect x="97" y="9" width="2" height="1"/><rect x="99" y="9" width="1" height="1"/><rect y="9" width="1" height="1" x="100"/><rect x="109" y="9" width="1" height="1"/><rect x="110" y="9" width="1" height="1"/><rect x="111" y="9" width="1" height="1"/><rect x="112" y="9" width="1" height="1"/><rect x="113" y="9" width="1" height="1"/><rect x="114" y="9" width="1" height="1"/><rect height="1" x="115" y="9" width="1"/><rect y="9" width="1" height="1" x="116"/><rect y="9" width="1" height="1" x="117"/><rect x="118" y="9" width="1" height="1"/><rect x="119" y="9" width="1" height="1"/><rect x="120" y="9" width="1" height="1"/><rect y="9" width="2" height="1" x="121"/><rect x="123" y="9" width="1" height="1"/><rect x="124" y="9" width="1" height="1"/><rect x="132" y="9" width="1" height="1"/><rect x="133" y="9" width="1" height="1"/><rect width="1" height="1" x="134" y="9"/><rect x="135" y="9" width="1" height="1"/><rect x="136" y="9" width="1" height="1"/><rect y="9" width="1" height="1" x="137"/><rect x="140" y="9" width="1" height="1"/><rect x="141" y="9" width="1" height="1"/><rect x="142" y="9" width="1" height="1"/><rect width="1" height="1" x="143" y="9"/><rect x="144" y="9" width="1" height="1"/><rect height="2" x="2" y="10" width="1"/><rect x="3" y="10" width="1" height="1"/><rect y="10" width="1" height="1" x="4"/><rect x="5" y="10" width="1" height="1"/><rect x="11" y="10" width="1" height="1"/><rect x="12" y="10" width="1" height="1"/><rect height="14" x="13" y="10" width="1"/><rect x="14" y="10" width="1" height="1"/><rect x="15" y="10" width="1" height="1"/><rect height="1" x="16" y="10" width="1"/><rect x="17" y="10" width="1" height="1"/><rect x="23" y="10" width="1" height="1"/><rect width="1" height="1" x="24" y="10"/><rect x="26" y="10" width="1" height="1"/><rect x="27" y="10" width="1" height="1"/><rect x="32" y="10" width="1" height="1"/><rect x="33" y="10" width="1" height="1"/><rect x="34" y="10" width="1" height="1"/><rect x="35" y="10" width="1" height="1"/><rect x="36" y="10" width="1" height="1"/><rect x="37" y="10" width="1" height="1"/><rect y="10" width="1" height="1" x="45"/><rect height="1" x="46" y="10" width="3"/><rect x="49" y="10" width="1" height="14"/><rect height="1" x="58" y="10" width="1"/><rect width="1" height="1" x="59" y="10"/><rect x="60" y="10" width="1" height="1"/><rect x="61" y="10" width="1" height="1"/><rect x="68" y="10" width="1" height="1"/><rect x="69" y="10" width="1" height="1"/><rect height="14" x="70" y="10" width="1"/><rect x="71" y="10" width="1" height="1"/><rect x="85" y="10" width="1" height="1"/><rect x="86" y="10" width="1" height="1"/><rect width="1" height="1" x="87" y="10"/><rect y="10" width="1" height="1" x="88"/><rect x="89" y="10" width="1" height="1"/><rect x="90" y="10" width="1" height="1"/><rect x="97" y="10" width="1" height="1"/><rect height="1" x="98" y="10" width="1"/><rect height="1" x="99" y="10" width="1"/><rect x="100" y="10" width="1" height="2"/><rect width="1" height="1" x="101" y="10"/><rect height="1" x="108" y="10" width="1"/><rect width="1" height="1" x="109" y="10"/><rect y="10" width="1" height="1" x="110"/><rect height="1" x="111" y="10" width="1"/><rect width="1" height="1" x="112" y="10"/><rect x="113" y="10" width="1" height="1"/><rect x="121" y="10" width="1" height="1"/><rect x="122" y="10" width="1" height="1"/><rect x="123" y="10" width="1" height="1"/><rect height="1" x="124" y="10" width="1"/><rect height="1" x="125" y="10" width="1"/><rect x="132" y="10" width="1" height="1"/><rect height="1" x="133" y="10" width="1"/><rect y="10" width="1" height="1" x="134"/><rect x="135" y="10" width="1" height="1"/><rect x="142" y="10" width="1" height="1"/><rect x="143" y="10" width="1" height="1"/><rect width="1" height="14" x="144" y="10"/><rect x="145" y="10" width="1" height="1"/><rect x="3" y="11" width="1" height="1"/><rect y="11" width="1" height="1" x="4"/><rect y="11" width="1" height="1" x="11"/><rect x="12" y="11" width="1" height="1"/><rect width="1" height="13" x="14" y="11"/><rect x="15" y="11" width="1" height="1"/><rect x="16" y="11" width="1" height="1"/><rect x="24" y="11" width="1" height="1"/><rect width="1" height="1" x="25" y="11"/><rect x="26" y="11" width="1" height="13"/><rect height="1" x="27" y="11" width="1"/><rect y="11" width="1" height="1" x="32"/><rect height="3" x="33" y="11" width="1"/><rect width="1" height="1" x="34" y="11"/><rect width="1" height="1" x="35" y="11"/><rect width="1" height="1" x="46" y="11"/><rect height="1" x="47" y="11" width="2"/><rect x="58" y="11" width="1" height="1"/><rect y="11" width="1" height="1" x="59"/><rect x="68" y="11" width="1" height="1"/><rect x="69" y="11" width="1" height="1"/><rect y="11" width="1" height="1" x="71"/><rect x="85" y="11" width="1" height="1"/><rect x="86" y="11" width="1" height="4"/><rect x="87" y="11" width="1" height="1"/><rect x="88" y="11" width="1" height="1"/><rect height="1" x="89" y="11" width="1"/><rect x="98" y="11" width="1" height="1"/><rect x="99" y="11" width="1" height="1"/><rect x="101" y="11" width="1" height="4"/><rect width="1" height="1" x="102" y="11"/><rect y="11" width="1" height="1" x="108"/><rect x="109" y="11" width="1" height="1"/><rect x="110" y="11" width="1" height="1"/><rect x="111" y="11" width="1" height="1"/><rect height="1" x="122" y="11" width="1"/><rect x="123" y="11" width="1" height="1"/><rect x="124" y="11" width="1" height="1"/><rect height="1" x="125" y="11" width="1"/><rect x="132" y="11" width="1" height="1"/><rect x="133" y="11" width="1" height="1"/><rect x="134" y="11" width="1" height="1"/><rect x="142" y="11" width="1" height="1"/><rect x="143" y="11" width="1" height="1"/><rect x="145" y="11" width="1" height="1"/><rect x="2" y="12" width="1" height="1"/><rect x="3" y="12" width="1" height="1"/><rect x="12" y="12" width="1" height="1"/><rect width="1" height="1" x="15" y="12"/><rect width="1" height="1" x="25" y="12"/><rect x="27" y="12" width="1" height="1"/><rect x="31" y="12" width="1" height="1"/><rect width="1" height="1" x="32" y="12"/><rect height="1" x="34" y="12" width="1"/><rect width="1" height="1" x="35" y="12"/><rect x="47" y="12" width="1" height="1"/><rect x="48" y="12" width="1" height="1"/><rect x="58" y="12" width="1" height="1"/><rect x="59" y="12" width="1" height="1"/><rect x="69" y="12" width="1" height="1"/><rect height="1" x="71" y="12" width="1"/><rect x="84" y="12" width="1" height="1"/><rect width="1" height="1" x="85" y="12"/><rect x="87" y="12" width="1" height="1"/><rect x="88" y="12" width="1" height="1"/><rect height="1" x="99" y="12" width="1"/><rect width="1" height="1" x="100" y="12"/><rect x="102" y="12" width="1" height="1"/><rect x="107" y="12" width="1" height="1"/><rect x="108" y="12" width="1" height="8"/><rect x="109" y="12" width="1" height="1"/><rect height="1" x="110" y="12" width="1"/><rect x="123" y="12" width="1" height="1"/><rect x="124" y="12" width="1" height="1"/><rect x="132" y="12" width="1" height="1"/><rect x="133" y="12" width="1" height="1"/><rect x="143" y="12" width="1" height="1"/><rect y="12" width="1" height="1" x="145"/><rect width="1" height="1" x="2" y="13"/><rect x="12" y="13" width="1" height="1"/><rect x="15" y="13" width="1" height="1"/><rect y="13" width="1" height="1" x="25"/><rect x="27" y="13" width="1" height="1"/><rect x="31" y="13" width="1" height="1"/><rect y="13" width="1" height="6" x="32"/><rect x="34" y="13" width="1" height="1"/><rect x="47" y="13" width="1" height="1"/><rect y="13" width="1" height="1" x="48"/><rect height="1" x="58" y="13" width="1"/><rect width="1" height="1" x="69" y="13"/><rect x="71" y="13" width="1" height="1"/><rect x="84" y="13" width="1" height="1"/><rect x="85" y="13" width="1" height="6"/><rect x="87" y="13" width="1" height="1"/><rect x="100" y="13" width="1" height="1"/><rect x="102" y="13" width="1" height="1"/><rect y="13" width="1" height="1" x="103"/><rect x="107" y="13" width="1" height="1"/><rect x="109" y="13" width="1" height="1"/><rect x="110" y="13" width="1" height="1"/><rect x="132" y="13" width="1" height="1"/><rect y="13" width="1" height="1" x="143"/><rect width="1" height="1" x="145" y="13"/><rect x="2" y="14" width="1" height="1"/><rect x="12" y="14" width="1" height="1"/><rect y="14" width="1" height="1" x="15"/><rect x="25" y="14" width="1" height="1"/><rect width="1" height="1" x="27" y="14"/><rect y="14" width="1" height="1" x="31"/><rect x="33" y="14" width="1" height="1"/><rect x="34" y="14" width="1" height="1"/><rect x="48" y="14" width="1" height="1"/><rect x="58" y="14" width="1" height="1"/><rect height="1" x="69" y="14" width="1"/><rect y="14" width="1" height="1" x="71"/><rect width="1" height="1" x="84" y="14"/><rect width="1" height="1" x="87" y="14"/><rect width="11" height="1" x="88" y="14"/><rect height="1" x="99" y="14" width="1"/><rect x="100" y="14" width="1" height="1"/><rect height="1" x="102" y="14" width="1"/><rect width="1" height="1" x="103" y="14"/><rect width="1" height="1" x="107" y="14"/><rect x="109" y="14" width="1" height="1"/><rect height="1" x="132" y="14" width="1"/><rect x="143" y="14" width="1" height="1"/><rect height="10" x="145" y="14" width="1"/><rect x="2" y="15" width="1" height="1"/><rect x="12" y="15" width="1" height="9"/><rect x="15" y="15" width="1" height="1"/><rect y="15" width="1" height="1" x="25"/><rect x="27" y="15" width="1" height="9"/><rect y="15" width="1" height="1" x="31"/><rect height="1" x="33" y="15" width="1"/><rect width="1" height="1" x="48" y="15"/><rect x="58" y="15" width="1" height="1"/><rect width="1" height="1" x="69" y="15"/><rect height="9" x="71" y="15" width="1"/><rect x="84" y="15" width="1" height="2"/><rect x="86" y="15" width="16" height="1"/><rect x="102" y="15" width="1" height="1"/><rect x="103" y="15" width="1" height="1"/><rect y="15" width="1" height="1" x="106"/><rect height="2" x="107" y="15" width="1"/><rect x="109" y="15" width="1" height="2"/><rect x="132" y="15" width="1" height="1"/><rect x="143" y="15" width="1" height="1"/><rect x="2" y="16" width="1" height="1"/><rect x="15" y="16" width="1" height="1"/><rect x="25" y="16" width="1" height="8"/><rect height="1" x="31" y="16" width="1"/><rect x="33" y="16" width="1" height="1"/><rect width="1" height="1" x="48" y="16"/><rect height="1" x="58" y="16" width="1"/><rect x="69" y="16" width="1" height="8"/><rect x="86" y="16" width="1" height="1"/><rect y="16" width="15" height="1" x="87"/><rect height="1" x="102" y="16" width="1"/><rect x="103" y="16" width="1" height="1"/><rect x="106" y="16" width="1" height="1"/><rect x="132" y="16" width="1" height="1"/><rect y="16" width="1" height="8" x="143"/><rect x="2" y="17" width="1" height="7"/><rect height="7" x="15" y="17" width="1"/><rect x="31" y="17" width="1" height="1"/><rect x="33" y="17" width="1" height="1"/><rect x="34" y="17" width="1" height="1"/><rect x="48" y="17" width="1" height="1"/><rect width="1" height="1" x="58" y="17"/><rect y="17" width="1" height="1" x="84"/><rect height="1" x="86" y="17" width="1"/><rect x="106" y="17" width="1" height="1"/><rect x="107" y="17" width="1" height="1"/><rect y="17" width="1" height="1" x="109"/><rect x="132" y="17" width="1" height="1"/><rect x="31" y="18" width="1" height="1"/><rect x="33" y="18" width="1" height="3"/><rect x="34" y="18" width="1" height="1"/><rect height="1" x="47" y="18" width="1"/><rect x="48" y="18" width="1" height="1"/><rect x="58" y="18" width="1" height="6"/><rect width="1" height="1" x="84" y="18"/><rect x="86" y="18" width="1" height="3"/><rect x="87" y="18" width="1" height="1"/><rect x="106" y="18" width="1" height="1"/><rect x="107" y="18" width="1" height="1"/><rect x="109" y="18" width="1" height="1"/><rect x="132" y="18" width="1" height="1"/><rect x="31" y="19" width="1" height="1"/><rect y="19" width="1" height="1" x="32"/><rect x="34" y="19" width="1" height="1"/><rect x="47" y="19" width="1" height="1"/><rect x="48" y="19" width="1" height="2"/><rect x="84" y="19" width="1" height="1"/><rect x="85" y="19" width="1" height="1"/><rect height="1" x="87" y="19" width="1"/><rect width="1" height="1" x="100" y="19"/><rect x="101" y="19" width="1" height="1"/><rect x="107" y="19" width="1" height="1"/><rect x="109" y="19" width="1" height="1"/><rect height="1" x="110" y="19" width="1"/><rect x="132" y="19" width="1" height="5"/><rect height="1" x="32" y="20" width="1"/><rect x="34" y="20" width="1" height="2"/><rect x="35" y="20" width="1" height="1"/><rect x="46" y="20" width="1" height="1"/><rect x="47" y="20" width="1" height="1"/><rect height="1" x="84" y="20" width="1"/><rect x="85" y="20" width="1" height="1"/><rect height="1" x="87" y="20" width="1"/><rect x="88" y="20" width="1" height="1"/><rect x="99" y="20" width="1" height="1"/><rect x="100" y="20" width="1" height="1"/><rect y="20" width="1" height="1" x="101"/><rect width="1" height="1" x="102" y="20"/><rect height="1" x="107" y="20" width="1"/><rect x="108" y="20" width="1" height="1"/><rect x="109" y="20" width="1" height="1"/><rect x="110" y="20" width="1" height="1"/><rect x="123" y="20" width="1" height="1"/><rect x="124" y="20" width="1" height="1"/><rect x="32" y="21" width="1" height="1"/><rect x="33" y="21" width="1" height="1"/><rect width="1" height="1" x="35" y="21"/><rect x="36" y="21" width="1" height="1"/><rect y="21" width="1" height="1" x="45"/><rect width="1" height="1" x="46" y="21"/><rect width="2" height="1" x="47" y="21"/><rect x="85" y="21" width="1" height="1"/><rect x="86" y="21" width="1" height="1"/><rect width="1" height="1" x="87" y="21"/><rect height="1" x="88" y="21" width="1"/><rect y="21" width="1" height="1" x="98"/><rect height="1" x="99" y="21" width="1"/><rect x="100" y="21" width="1" height="1"/><rect y="21" width="1" height="1" x="101"/><rect y="21" width="1" height="1" x="102"/><rect x="107" y="21" width="1" height="1"/><rect width="1" height="1" x="108" y="21"/><rect x="109" y="21" width="1" height="1"/><rect x="110" y="21" width="1" height="1"/><rect height="1" x="111" y="21" width="1"/><rect x="122" y="21" width="1" height="1"/><rect width="1" height="1" x="123" y="21"/><rect x="124" y="21" width="1" height="1"/><rect x="125" y="21" width="1" height="1"/><rect x="33" y="22" width="1" height="1"/><rect x="34" y="22" width="1" height="1"/><rect y="22" width="1" height="1" x="35"/><rect x="36" y="22" width="1" height="1"/><rect x="37" y="22" width="1" height="1"/><rect x="38" y="22" width="1" height="1"/><rect x="44" y="22" width="1" height="1"/><rect x="45" y="22" width="1" height="1"/><rect height="1" x="46" y="22" width="1"/><rect x="47" y="22" width="1" height="1"/><rect x="48" y="22" width="1" height="1"/><rect x="85" y="22" width="1" height="1"/><rect x="86" y="22" width="1" height="1"/><rect height="1" x="87" y="22" width="1"/><rect x="88" y="22" width="1" height="1"/><rect y="22" width="1" height="1" x="89"/><rect x="90" y="22" width="1" height="1"/><rect x="97" y="22" width="1" height="1"/><rect x="98" y="22" width="1" height="1"/><rect y="22" width="1" height="1" x="99"/><rect y="22" width="1" height="1" x="100"/><rect x="101" y="22" width="1" height="1"/><rect x="108" y="22" width="1" height="1"/><rect y="22" width="1" height="1" x="109"/><rect x="110" y="22" width="1" height="1"/><rect x="111" y="22" width="1" height="1"/><rect x="112" y="22" width="1" height="1"/><rect width="1" height="1" x="113" y="22"/><rect x="121" y="22" width="1" height="1"/><rect x="122" y="22" width="1" height="1"/><rect x="123" y="22" width="1" height="1"/><rect x="124" y="22" width="1" height="1"/><rect x="125" y="22" width="1" height="1"/><rect x="34" y="23" width="1" height="1"/><rect width="2" height="1" x="35" y="23"/><rect x="37" y="23" width="1" height="1"/><rect x="38" y="23" width="1" height="1"/><rect x="39" y="23" width="1" height="1"/><rect y="23" width="1" height="1" x="40"/><rect x="41" y="23" width="1" height="1"/><rect width="1" height="1" x="42" y="23"/><rect x="43" y="23" width="1" height="1"/><rect width="1" height="1" x="44" y="23"/><rect height="1" x="45" y="23" width="1"/><rect x="46" y="23" width="1" height="1"/><rect x="47" y="23" width="1" height="1"/><rect x="48" y="23" width="2" height="1"/><rect height="1" x="86" y="23" width="1"/><rect x="87" y="23" width="1" height="1"/><rect x="88" y="23" width="1" height="1"/><rect x="89" y="23" width="1" height="1"/><rect x="90" y="23" width="1" height="1"/><rect y="23" width="1" height="1" x="91"/><rect x="92" y="23" width="1" height="1"/><rect x="93" y="23" width="1" height="1"/><rect x="94" y="23" width="1" height="1"/><rect height="1" x="95" y="23" width="1"/><rect x="96" y="23" width="1" height="1"/><rect x="97" y="23" width="2" height="1"/><rect x="99" y="23" width="1" height="1"/><rect height="1" x="100" y="23" width="1"/><rect height="1" x="101" y="23" width="1"/><rect x="109" y="23" width="1" height="1"/><rect width="1" height="1" x="110" y="23"/><rect x="111" y="23" width="1" height="1"/><rect height="1" x="112" y="23" width="1"/><rect x="113" y="23" width="1" height="1"/><rect height="1" x="114" y="23" width="1"/><rect y="23" width="1" height="1" x="115"/><rect x="116" y="23" width="1" height="1"/><rect x="117" y="23" width="1" height="1"/><rect width="1" height="1" x="118" y="23"/><rect x="119" y="23" width="1" height="1"/><rect x="120" y="23" width="1" height="1"/><rect x="121" y="23" width="2" height="1"/><rect x="123" y="23" width="1" height="1"/><rect width="1" height="1" x="124" y="23"/><rect y="24" width="1" height="1"/><rect width="1" height="1" x="1" y="24"/><rect x="2" y="24" width="1" height="1"/><rect x="12" y="24" width="1" height="1"/><rect width="1" height="1" x="13" y="24"/><rect y="24" width="1" height="1" x="14"/><rect x="15" y="24" width="1" height="1"/><rect width="1" height="1" x="25" y="24"/><rect y="24" width="1" height="1" x="26"/><rect width="1" height="1" x="27" y="24"/><rect x="35" y="24" width="1" height="1"/><rect x="36" y="24" width="1" height="1"/><rect x="37" y="24" width="7" height="1"/><rect x="44" y="24" width="1" height="1"/><rect x="45" y="24" width="1" height="1"/><rect x="46" y="24" width="1" height="1"/><rect y="24" width="2" height="1" x="48"/><rect x="50" y="24" width="1" height="1"/><rect width="1" height="1" x="55" y="24"/><rect x="56" y="24" width="1" height="1"/><rect x="57" y="24" width="1" height="1"/><rect x="58" y="24" width="1" height="1"/><rect x="69" y="24" width="1" height="1"/><rect x="70" y="24" width="1" height="1"/><rect y="24" width="1" height="1" x="71"/><rect x="87" y="24" width="1" height="1"/><rect x="88" y="24" width="1" height="1"/><rect x="89" y="24" width="9" height="1"/><rect height="1" x="98" y="24" width="1"/><rect x="99" y="24" width="1" height="1"/><rect x="100" y="24" width="1" height="1"/><rect height="1" x="110" y="24" width="1"/><rect x="111" y="24" width="1" height="1"/><rect x="112" y="24" width="9" height="1"/><rect x="121" y="24" width="1" height="1"/><rect x="122" y="24" width="1" height="1"/><rect x="123" y="24" width="1" height="1"/><rect x="129" y="24" width="1" height="1"/><rect x="130" y="24" width="1" height="1"/><rect height="1" x="131" y="24" width="1"/><rect x="132" y="24" width="1" height="1"/><rect y="24" width="1" height="1" x="143"/><rect width="1" height="1" x="144" y="24"/><rect y="24" width="1" height="1" x="145"/><rect y="25" width="1" height="1"/><rect x="1" y="25" width="1" height="1"/><rect x="2" y="25" width="1" height="1"/><rect width="1" height="1" x="12" y="25"/><rect width="1" height="1" x="13" y="25"/><rect height="1" x="14" y="25" width="1"/><rect width="1" height="1" x="15" y="25"/><rect x="25" y="25" width="1" height="1"/><rect y="25" width="1" height="1" x="26"/><rect x="27" y="25" width="1" height="1"/><rect x="36" y="25" width="1" height="1"/><rect x="37" y="25" width="1" height="1"/><rect height="1" x="38" y="25" width="1"/><rect height="1" x="39" y="25" width="1"/><rect x="40" y="25" width="1" height="1"/><rect x="41" y="25" width="1" height="1"/><rect x="42" y="25" width="1" height="1"/><rect height="1" x="43" y="25" width="1"/><rect y="25" width="1" height="1" x="44"/><rect height="1" x="48" y="25" width="2"/><rect x="50" y="25" width="1" height="1"/><rect y="25" width="1" height="1" x="55"/><rect x="56" y="25" width="1" height="1"/><rect x="57" y="25" width="1" height="1"/><rect x="58" y="25" width="1" height="1"/><rect x="69" y="25" width="1" height="1"/><rect width="1" height="1" x="70" y="25"/><rect y="25" width="1" height="1" x="71"/><rect height="1" x="89" y="25" width="1"/><rect x="90" y="25" width="1" height="1"/><rect y="25" width="1" height="1" x="91"/><rect x="92" y="25" width="3" height="1"/><rect x="95" y="25" width="1" height="1"/><rect x="96" y="25" width="1" height="1"/><rect y="25" width="1" height="1" x="97"/><rect y="25" width="1" height="1" x="98"/><rect x="112" y="25" width="1" height="1"/><rect width="1" height="1" x="113" y="25"/><rect x="114" y="25" width="1" height="1"/><rect x="115" y="25" width="3" height="1"/><rect x="118" y="25" width="1" height="1"/><rect height="1" x="119" y="25" width="1"/><rect x="120" y="25" width="1" height="1"/><rect x="121" y="25" width="1" height="1"/><rect x="122" y="25" width="1" height="1"/><rect x="129" y="25" width="1" height="1"/><rect x="130" y="25" width="1" height="1"/><rect x="131" y="25" width="1" height="1"/><rect x="132" y="25" width="1" height="1"/><rect x="143" y="25" width="1" height="1"/><rect height="1" x="144" y="25" width="1"/><rect width="1" height="1" x="145" y="25"/><rect x="92" y="26" width="1" height="1"/><rect x="93" y="26" width="1" height="1"/><rect x="94" y="26" width="1" height="1"/><rect x="95" y="26" width="1" height="1"/><rect x="115" y="26" width="1" height="1"/><rect height="1" x="116" y="26" width="1"/><rect x="117" y="26" width="1" height="1"/><rect x="118" y="26" width="1" height="1"/><rect width="1" height="1" x="85" y="28"/><rect x="97" y="28" width="1" height="1"/><rect x="98" y="28" width="1" height="1"/><rect x="100" y="28" width="1" height="1"/><rect x="101" y="28" width="1" height="1"/><rect x="123" y="28" width="1" height="1"/><rect height="1" x="130" y="28" width="1"/><rect x="131" y="28" width="1" height="1"/><rect height="1" x="133" y="28" width="1"/><rect y="29" width="1" height="4" x="85"/><rect x="97" y="29" width="1" height="4"/><rect y="29" width="1" height="4" x="98"/><rect x="100" y="29" width="1" height="4"/><rect y="29" width="1" height="4" x="101"/><rect x="123" y="29" width="1" height="4"/><rect x="130" y="29" width="1" height="4"/><rect x="131" y="29" width="1" height="4"/><rect x="133" y="29" width="1" height="1"/><rect x="86" y="30" width="1" height="1"/><rect height="1" x="87" y="30" width="1"/><rect x="88" y="30" width="1" height="1"/><rect height="1" x="89" y="30" width="1"/><rect y="30" width="1" height="1" x="91"/><rect x="92" y="30" width="1" height="1"/><rect y="30" width="1" height="1" x="93"/><rect x="94" y="30" width="1" height="1"/><rect x="95" y="30" width="1" height="1"/><rect x="96" y="30" width="1" height="1"/><rect height="1" x="99" y="30" width="1"/><rect x="102" y="30" width="1" height="1"/><rect x="103" y="30" width="1" height="1"/><rect x="104" y="30" width="1" height="1"/><rect x="105" y="30" width="1" height="1"/><rect x="106" y="30" width="1" height="1"/><rect x="107" y="30" width="1" height="1"/><rect x="108" y="30" width="1" height="1"/><rect y="30" width="1" height="1" x="109"/><rect x="110" y="30" width="1" height="1"/><rect x="113" y="30" width="1" height="1"/><rect y="30" width="1" height="1" x="114"/><rect y="30" width="1" height="1" x="115"/><rect x="116" y="30" width="1" height="1"/><rect y="30" width="1" height="1" x="117"/><rect y="30" width="1" height="1" x="118"/><rect x="119" y="30" width="1" height="1"/><rect width="1" height="1" x="120" y="30"/><rect x="121" y="30" width="1" height="1"/><rect x="124" y="30" width="1" height="1"/><rect y="30" width="1" height="1" x="125"/><rect width="1" height="1" x="128" y="30"/><rect x="129" y="30" width="1" height="1"/><rect y="30" width="1" height="1" x="132"/><rect x="133" y="30" width="1" height="1"/><rect height="1" x="135" y="30" width="1"/><rect x="136" y="30" width="1" height="1"/><rect y="30" width="1" height="1" x="137"/><rect width="1" height="1" x="138" y="30"/><rect width="1" height="1" x="139" y="30"/><rect y="30" width="1" height="1" x="140"/><rect x="141" y="30" width="1" height="1"/><rect x="142" y="30" width="1" height="1"/><rect x="143" y="30" width="1" height="1"/><rect x="144" y="30" width="1" height="1"/><rect x="86" y="31" width="1" height="1"/><rect y="31" width="1" height="1" x="88"/><rect x="89" y="31" width="1" height="2"/><rect y="31" width="1" height="1" x="90"/><rect x="91" y="31" width="1" height="2"/><rect x="92" y="31" width="1" height="1"/><rect height="1" x="94" y="31" width="1"/><rect x="95" y="31" width="1" height="1"/><rect height="1" x="102" y="31" width="1"/><rect width="1" height="1" x="103" y="31"/><rect x="104" y="31" width="1" height="1"/><rect x="106" y="31" width="1" height="1"/><rect x="107" y="31" width="1" height="1"/><rect x="108" y="31" width="1" height="2"/><rect x="109" y="31" width="1" height="1"/><rect x="113" y="31" width="1" height="1"/><rect x="114" y="31" width="1" height="1"/><rect x="115" y="31" width="1" height="1"/><rect x="116" y="31" width="1" height="1"/><rect x="117" y="31" width="1" height="1"/><rect y="31" width="1" height="1" x="118"/><rect width="1" height="1" x="120" y="31"/><rect width="1" height="2" x="121" y="31"/><rect x="122" y="31" width="1" height="2"/><rect width="1" height="1" x="124" y="31"/><rect y="31" width="1" height="1" x="125"/><rect height="1" x="128" y="31" width="1"/><rect x="133" y="31" width="1" height="2"/><rect height="1" x="134" y="31" width="1"/><rect y="31" width="1" height="1" x="135"/><rect x="136" y="31" width="1" height="1"/><rect x="138" y="31" width="1" height="1"/><rect x="139" y="31" width="1" height="2"/><rect x="140" y="31" width="1" height="2"/><rect height="1" x="141" y="31" width="1"/><rect width="1" height="1" x="142" y="31"/><rect x="143" y="31" width="1" height="1"/><rect x="144" y="31" width="1" height="1"/><rect height="1" x="86" y="32" width="1"/><rect x="90" y="32" width="1" height="1"/><rect x="92" y="32" width="2" height="1"/><rect x="94" y="32" width="1" height="1"/><rect x="95" y="32" width="1" height="1"/><rect height="1" x="96" y="32" width="1"/><rect x="102" y="32" width="1" height="1"/><rect y="32" width="1" height="1" x="103"/><rect x="104" y="32" width="2" height="1"/><rect width="1" height="1" x="106" y="32"/><rect x="107" y="32" width="1" height="1"/><rect width="1" height="1" x="109" y="32"/><rect height="1" x="113" y="32" width="1"/><rect x="114" y="32" width="1" height="1"/><rect x="115" y="32" width="1" height="1"/><rect x="116" y="32" width="1" height="1"/><rect x="117" y="32" width="1" height="1"/><rect height="1" x="124" y="32" width="1"/><rect x="125" y="32" width="1" height="1"/><rect width="1" height="1" x="128" y="32"/><rect x="134" y="32" width="1" height="1"/><rect x="135" y="32" width="1" height="1"/><rect x="141" y="32" width="1" height="1"/><rect x="144" y="32" width="1" height="1"/><rect x="76" y="33" width="1" height="1"/><rect x="77" y="33" width="1" height="1"/><rect x="78" y="33" width="1" height="1"/><rect y="33" width="1" height="1" x="79"/><rect x="85" y="33" width="1" height="1"/><rect width="1" height="1" x="86" y="33"/><rect x="88" y="33" width="1" height="1"/><rect width="1" height="1" x="89" y="33"/><rect x="90" y="33" width="1" height="1"/><rect width="1" height="1" x="91" y="33"/><rect x="92" y="33" width="1" height="1"/><rect x="94" y="33" width="1" height="1"/><rect x="95" y="33" width="1" height="1"/><rect width="1" height="1" x="97" y="33"/><rect x="98" y="33" width="1" height="1"/><rect y="33" width="1" height="1" x="100"/><rect x="101" y="33" width="1" height="1"/><rect x="102" y="33" width="1" height="1"/><rect y="33" width="1" height="1" x="103"/><rect height="1" x="104" y="33" width="1"/><rect x="106" y="33" width="1" height="1"/><rect x="107" y="33" width="1" height="1"/><rect x="108" y="33" width="1" height="1"/><rect y="33" width="1" height="1" x="109"/><rect x="113" y="33" width="1" height="1"/><rect y="33" width="1" height="1" x="114"/><rect x="115" y="33" width="1" height="1"/><rect x="116" y="33" width="1" height="1"/><rect x="117" y="33" width="1" height="1"/><rect height="1" x="118" y="33" width="1"/><rect x="120" y="33" width="1" height="1"/><rect width="1" height="1" x="121" y="33"/><rect x="122" y="33" width="1" height="1"/><rect x="123" y="33" width="1" height="1"/><rect height="1" x="125" y="33" width="1"/><rect y="33" width="1" height="1" x="127"/><rect x="128" y="33" width="1" height="1"/><rect x="130" y="33" width="1" height="1"/><rect y="33" width="1" height="1" x="131"/><rect x="133" y="33" width="1" height="1"/><rect x="134" y="33" width="1" height="1"/><rect x="135" y="33" width="1" height="1"/><rect width="1" height="1" x="136" y="33"/><rect width="1" height="1" x="138" y="33"/><rect x="139" y="33" width="1" height="1"/><rect x="140" y="33" width="1" height="1"/><rect height="1" x="141" y="33" width="1"/><rect x="144" y="33" width="1" height="1"/><rect x="76" y="34" width="1" height="1"/><rect width="1" height="1" x="77" y="34"/><rect height="1" x="78" y="34" width="1"/><rect x="79" y="34" width="1" height="1"/><rect x="85" y="34" width="1" height="1"/><rect x="86" y="34" width="1" height="1"/><rect x="87" y="34" width="1" height="1"/><rect height="1" x="88" y="34" width="1"/><rect x="89" y="34" width="1" height="1"/><rect x="91" y="34" width="1" height="1"/><rect y="34" width="1" height="1" x="92"/><rect height="1" x="93" y="34" width="1"/><rect x="94" y="34" width="1" height="1"/><rect x="95" y="34" width="1" height="1"/><rect x="97" y="34" width="1" height="1"/><rect x="98" y="34" width="1" height="1"/><rect width="1" height="1" x="100" y="34"/><rect x="101" y="34" width="1" height="1"/><rect x="103" y="34" width="1" height="1"/><rect x="104" y="34" width="1" height="1"/><rect x="105" y="34" width="1" height="1"/><rect x="106" y="34" width="1" height="1"/><rect height="1" x="107" y="34" width="1"/><rect y="34" width="1" height="1" x="108"/><rect x="109" y="34" width="1" height="1"/><rect x="113" y="34" width="1" height="1"/><rect height="1" x="114" y="34" width="1"/><rect x="115" y="34" width="1" height="1"/><rect x="116" y="34" width="1" height="1"/><rect x="117" y="34" width="1" height="1"/><rect x="118" y="34" width="1" height="1"/><rect x="119" y="34" width="1" height="1"/><rect width="1" height="1" x="120" y="34"/><rect x="121" y="34" width="1" height="1"/><rect x="123" y="34" width="1" height="1"/><rect x="125" y="34" width="1" height="1"/><rect x="126" y="34" width="1" height="1"/><rect height="1" x="127" y="34" width="1"/><rect x="128" y="34" width="1" height="1"/><rect x="130" y="34" width="1" height="1"/><rect height="1" x="131" y="34" width="1"/><rect width="1" height="1" x="133" y="34"/><rect x="135" y="34" width="1" height="1"/><rect x="136" y="34" width="1" height="1"/><rect x="137" y="34" width="1" height="1"/><rect width="1" height="1" x="138" y="34"/><rect height="1" x="139" y="34" width="1"/><rect x="140" y="34" width="1" height="1"/><rect width="1" height="1" x="141" y="34"/><rect y="34" width="1" height="1" x="144"/></g></svg>