<?xml version="1.0" encoding="UTF-8"?>
<svg id="Layer_1" data-name="Layer 1" xmlns="http://www.w3.org/2000/svg" version="1.1" viewBox="0 0 556.23 184.36">
  <defs>
    <style>
      .cls-1 {
        fill: #231f20;
      }

      .cls-1, .cls-2 {
        stroke-width: 0px;
      }

      .cls-2 {
        fill: #de2728;
      }
    </style>
  </defs>
  <g>
    <path class="cls-2" d="M70.9,101.7L36.29,29.36h-.27l-3.67,61.07c-.4,6.92,4.75,8.42,10.86,8.69v2.58H14.98v-2.58c9.91,0,11.13-2.17,11.81-14.52l3.26-52.79c.54-8.96.27-11.4-8.14-11.94v-2.44h20.49l32.71,68.4L107.67,17.42h19.95v2.44c-6.65.54-9.23.68-8.96,5.29l4.35,61.48c.81,12.48,1.9,12.48,11.81,12.48v2.58h-34.88v-2.58c6.38,0,12.62-1.77,12.08-8.96l-3.93-60.8h-.27l-33.79,72.33h-3.12Z"/>
    <path class="cls-2" d="M145.76,64.1c-.27-.81-.4-1.22-.4-1.9,0-4.75,11.26-15.74,20.08-15.74,4.07,0,10.45,1.9,14.25,7.2,2.04,2.85,2.04,4.61,2.04,11.67v18.18c0,10.86,0,13.3,3.53,13.3,1.49,0,3.26-.14,6.65-2.98l.68,2.03c-7.33,5.97-11.13,7.47-13.44,7.47-5.57,0-6.11-6.11-6.24-8.28-9.36,7.74-12.08,8.28-15.74,8.28-7.87,0-12.62-4.48-12.62-11.13,0-8.28,7.33-11.12,16.01-13.3,2.85-.67,7.33-2.31,12.08-5.16v-10.72c0-3.8,0-5.97-2.31-8.69-1.76-2.17-4.61-3.94-7.6-3.94-4.48,0-8.41,3.8-8.41,6.65,0,.81.13,1.36.68,2.58l-9.23,4.48ZM172.64,76.45c-2.58,1.49-4.75,2.44-8.01,3.8-8.28,3.39-11.4,4.75-11.4,10.32,0,4.89,3.94,8.01,8.01,8.01,2.17,0,3.81-.68,11.4-5.97v-16.15Z"/>
    <path class="cls-2" d="M219.11,89.89c0,7.47,1.77,9.23,9.09,9.23v2.58h-27.28v-2.58c5.97,0,9.09-3.25,9.09-8.55v-28.5c0-5.02-.54-5.97-4.07-6.65l-4.61-.95v-2.17l15.6-5.7h2.17v10.59c9.09-5.7,16.69-10.72,23.34-10.72,9.23,0,14.52,6.79,14.52,20.36,0,18.05-.95,21.58-1.08,26.87-.14,3.66,2.04,5.43,7.6,5.43h2.99v2.58h-29.18v-2.58c3.93-.13,6.24-1.08,7.73-2.58,2.58-2.58,2.85-12.49,2.85-30.54,0-10.86-5.29-14.24-10.72-14.24-4.35,0-10.99,3.8-18.05,8.68v29.45Z"/>
    <path class="cls-2" d="M309.69,89.21c0,7.33,2.44,9.91,10.72,9.91h5.02v2.58h-42.75v-2.58h5.02c8.28,0,10.72-2.58,10.72-9.91V22.17h-23.61c-5.43,0-7.87,3.12-9.9,15.06h-2.45l2.17-21.98h2.58c.14.81.68,1.36,1.5,1.63.81.27,1.76.41,2.71.41h65.28c1.9,0,3.93-.41,4.2-2.04h2.58l2.17,21.98h-2.44c-2.04-11.94-4.48-15.06-9.91-15.06h-23.61v67.04Z"/>
    <path class="cls-2" d="M349.11,67.22c-.27,2.04-.54,3.94-.54,5.7,0,14.12,9.91,23.62,20.63,23.62,6.78,0,12.08-2.71,17.23-8.82l1.5,1.63c-5.7,7.2-14.25,13.98-24.16,13.98-13.3,0-23.61-12.08-23.61-27.82,0-14.39,9.64-29.04,26.19-29.04,18.32,0,17.91,13.16,22.39,17.64v3.12h-39.62ZM377.34,63.7c-1.49-8.82-6.92-14.66-13.43-14.66-4.48,0-11.27,2.04-14.39,14.66h27.82Z"/>
    <path class="cls-2" d="M448.14,89.21c-5.7,9.09-13.17,14.11-24.02,14.11-16.29,0-22.8-15.47-22.8-26.19,0-16.97,13.98-30.68,31.21-30.68,8.56,0,15.2,3.39,15.2,7.74,0,2.31-1.77,4.07-3.94,4.07-6.65,0-8.28-8.28-15.88-8.28-9.36,0-17.51,11.13-17.51,24.16s8.14,23.61,19.13,23.61c6.52,0,11.67-2.99,16.56-9.77l2.04,1.22Z"/>
    <path class="cls-2" d="M476.73,90.97c0,6.38,1.76,8.14,8.82,8.14v2.58h-27.14v-2.58c7.46-.41,9.23-2.99,9.23-10.45V23.66c0-2.99-.54-4.07-3.39-4.48l-5.84-.81v-2.31l16.15-5.57h2.17v44.51c8.96-5.29,15.47-8.55,22.39-8.55,10.45,0,15.06,6.51,15.06,20.22,0,12.35-.27,19.95-.68,27.28.27,3.66,2.31,5.16,10.31,5.16v2.58h-29.31v-2.58c3.53,0,6.11-.68,7.6-2.17,2.44-2.44,2.98-8.28,2.98-28.5,0-14.52-7.87-16.42-12.35-16.42s-9.36,2.17-16.01,6.38v32.57Z"/>
  </g>
  <g>
    <path class="cls-1" d="M74.33,155.38c1.84,1.23,4.45,2.2,7.32,2.2,3.89,0,7.47-2.3,7.47-6.5,0-2.56-1.48-4.45-5.06-6.45-4.4-2.35-6.86-5.12-6.86-8.85,0-6.14,5.32-10.13,11.66-10.13,3.33,0,5.83,1.02,7.06,1.84l-1.54,3.42c-1.07-.61-3.22-1.63-5.98-1.59-4.24,0-6.8,2.82-6.8,5.63s1.74,4.4,5.32,6.39c4.24,2.25,6.6,4.96,6.6,9.21,0,5.99-4.71,10.69-12.43,10.69-3.48-.05-6.85-1.18-8.28-2.4l1.53-3.48Z"/>
    <path class="cls-1" d="M115.8,159.27c-1.84,1.08-4.86,2-8.18,2-6.55,0-9.42-4.5-9.42-9.98,0-7.47,5.52-15.91,13.5-15.91,4.71,0,7.26,2.82,7.26,6.34,0,6.5-7.32,8.24-16.47,8.08-.21,1.08-.05,3.38.51,4.71.97,2.2,2.97,3.33,5.52,3.33,2.91,0,5.12-.92,6.65-1.74l.61,3.17ZM114.88,141.82c0-1.99-1.53-3.12-3.78-3.12-4.04,0-7.06,3.94-8.08,7.83,6.65.05,11.87-.82,11.87-4.65v-.05Z"/>
    <path class="cls-1" d="M138.15,159.73c-1.28.62-3.84,1.53-7.16,1.53-6.39,0-9.51-4.35-9.51-9.62,0-8.44,6.24-16.21,15.14-16.21,2.3,0,4.4.66,5.16,1.08l-1.23,3.37c-.97-.46-2.35-.92-4.2-.92-6.45,0-10.49,6.34-10.49,12.18,0,3.99,2.1,6.6,6.14,6.6,2.51,0,4.45-.77,5.73-1.38l.41,3.38Z"/>
    <path class="cls-1" d="M166.89,135.94l-3.33,17.54c-.51,2.76-.87,5.16-1.13,7.21h-3.84l.67-4.66h-.1c-2.2,3.22-5.48,5.22-8.75,5.22s-6.5-1.53-6.5-7.16c0-1.17.15-2.51.46-4.14l2.66-14.02h4.24l-2.61,13.81c-.31,1.38-.46,2.55-.46,3.63,0,2.56,1.07,4.29,3.99,4.29,3.07,0,7.01-3.58,8.03-9.05l2.4-12.69h4.25Z"/>
    <path class="cls-1" d="M169.65,160.7l3.02-15.96c.61-3.22,1.02-6.5,1.28-8.8h3.74c-.21,1.74-.41,3.48-.66,5.37h.15c1.59-3.38,4.25-5.93,7.57-5.93.36,0,.87.05,1.17.1l-.82,4.19c-.26-.05-.66-.1-1.12-.1-3.69,0-6.96,4.45-8.03,10.23l-2.04,10.89h-4.25Z"/>
    <path class="cls-1" d="M185.91,160.7l4.76-24.76h4.25l-4.76,24.76h-4.25ZM193.84,131.7c-1.43,0-2.4-1.13-2.4-2.66.05-1.63,1.28-2.86,2.82-2.86s2.5,1.13,2.5,2.66c-.05,1.69-1.23,2.86-2.86,2.86h-.05Z"/>
    <path class="cls-1" d="M197.62,160.7l3.33-17.54c.56-2.76.87-5.16,1.17-7.21h3.79l-.62,4.86h.1c2.2-3.48,5.52-5.42,9.15-5.42,2.97,0,6.29,1.69,6.29,6.9,0,1.08-.2,2.66-.46,3.99l-2.76,14.42h-4.25l2.71-14.27c.2-.97.36-2.15.36-3.17,0-2.51-.97-4.35-3.89-4.35s-7.32,3.63-8.44,9.77l-2.25,12.02h-4.24Z"/>
    <path class="cls-1" d="M225.19,166.32c1.48.92,3.94,1.64,6.55,1.64,4.14,0,7.42-2.15,8.9-8.85l.82-3.68h-.15c-2.15,3.53-5.17,5.27-8.59,5.27-4.96,0-7.52-4.2-7.52-8.59-.05-8.39,6.14-16.73,15.7-16.73,2.87,0,5.99.82,7.93,1.74l-3.78,20.46c-1.02,5.22-2.4,8.85-5.01,11.05-2.46,2.15-5.78,2.76-8.64,2.76-3.02,0-5.83-.72-7.42-1.74l1.23-3.33ZM244.16,139.62c-.77-.36-2.3-.82-4.09-.82-6.18,0-10.44,6.45-10.48,12.58,0,2.71.97,5.94,4.75,5.94s7.37-4.61,8.24-9.47l1.59-8.23Z"/>
    <path class="cls-1" d="M271.98,130.01l-1.12,5.93h5.93l-.66,3.33h-5.93l-2.31,12.02c-.25,1.38-.46,2.66-.46,3.94,0,1.48.72,2.4,2.35,2.4.72,0,1.43-.05,1.99-.21l-.2,3.38c-.77.26-2.05.46-3.27.46-3.79,0-5.22-2.3-5.22-4.81,0-1.43.15-2.86.51-4.65l2.46-12.53h-3.58l.66-3.33h3.53l.87-4.55,4.45-1.38Z"/>
    <path class="cls-1" d="M277.04,160.7l6.9-36.32h4.25l-3.07,15.96h.1c2.09-3.02,5.11-4.96,8.85-4.96,2.81,0,6.13,1.74,6.13,6.65,0,1.33-.15,2.91-.41,4.19l-2.76,14.48h-4.25l2.76-14.27c.15-.92.31-2.05.31-3.43,0-2.3-1.08-4.09-3.84-4.09-3.27,0-7.42,3.84-8.44,9.41l-2.3,12.38h-4.25Z"/>
    <path class="cls-1" d="M322.2,159.27c-1.84,1.08-4.86,2-8.19,2-6.54,0-9.41-4.5-9.41-9.98,0-7.47,5.52-15.91,13.5-15.91,4.71,0,7.26,2.82,7.26,6.34,0,6.5-7.32,8.24-16.47,8.08-.21,1.08-.05,3.38.51,4.71.97,2.2,2.97,3.33,5.53,3.33,2.91,0,5.11-.92,6.65-1.74l.61,3.17ZM321.28,141.82c0-1.99-1.53-3.12-3.78-3.12-4.04,0-7.06,3.94-8.08,7.83,6.65.05,11.87-.82,11.87-4.65v-.05Z"/>
    <polygon class="cls-1" points="343.53 126.22 361.02 126.22 360.36 129.85 347.11 129.85 344.86 141.47 357.08 141.47 356.37 145.1 344.19 145.1 341.23 160.7 336.98 160.7 343.53 126.22"/>
    <path class="cls-1" d="M383.37,135.94l-3.33,17.54c-.51,2.76-.87,5.16-1.12,7.21h-3.84l.67-4.66h-.1c-2.2,3.22-5.47,5.22-8.75,5.22s-6.5-1.53-6.5-7.16c0-1.17.15-2.51.46-4.14l2.66-14.02h4.25l-2.61,13.81c-.3,1.38-.46,2.55-.46,3.63,0,2.56,1.07,4.29,3.99,4.29,3.07,0,7.01-3.58,8.03-9.05l2.41-12.69h4.24Z"/>
    <path class="cls-1" d="M397.07,130.01l-1.12,5.93h5.93l-.66,3.33h-5.93l-2.3,12.02c-.26,1.38-.46,2.66-.46,3.94,0,1.48.72,2.4,2.35,2.4.72,0,1.43-.05,2-.21l-.21,3.38c-.77.26-2.04.46-3.27.46-3.79,0-5.22-2.3-5.22-4.81,0-1.43.15-2.86.51-4.65l2.46-12.53h-3.58l.66-3.33h3.53l.87-4.55,4.45-1.38Z"/>
    <path class="cls-1" d="M426.27,135.94l-3.32,17.54c-.51,2.76-.87,5.16-1.13,7.21h-3.84l.67-4.66h-.1c-2.2,3.22-5.47,5.22-8.75,5.22s-6.49-1.53-6.49-7.16c0-1.17.15-2.51.46-4.14l2.66-14.02h4.25l-2.61,13.81c-.3,1.38-.46,2.55-.46,3.63,0,2.56,1.08,4.29,3.99,4.29,3.07,0,7.01-3.58,8.03-9.05l2.41-12.69h4.24Z"/>
    <path class="cls-1" d="M429.03,160.7l3.02-15.96c.62-3.22,1.02-6.5,1.28-8.8h3.73c-.21,1.74-.41,3.48-.66,5.37h.15c1.59-3.38,4.24-5.93,7.57-5.93.36,0,.87.05,1.18.1l-.82,4.19c-.26-.05-.66-.1-1.12-.1-3.69,0-6.96,4.45-8.04,10.23l-2.04,10.89h-4.25Z"/>
    <path class="cls-1" d="M462.84,159.27c-1.84,1.08-4.86,2-8.18,2-6.55,0-9.42-4.5-9.42-9.98,0-7.47,5.52-15.91,13.51-15.91,4.7,0,7.26,2.82,7.26,6.34,0,6.5-7.32,8.24-16.47,8.08-.21,1.08-.05,3.38.51,4.71.97,2.2,2.97,3.33,5.53,3.33,2.91,0,5.11-.92,6.65-1.74l.61,3.17ZM461.92,141.82c0-1.99-1.53-3.12-3.78-3.12-4.04,0-7.06,3.94-8.08,7.83,6.65.05,11.87-.82,11.87-4.65v-.05Z"/>
  </g>
  <path class="cls-1" d="M541.31,86.76c1.2,0,2.37.31,3.52.93,1.14.62,2.03,1.5,2.67,2.64.63,1.14.96,2.34.96,3.59s-.32,2.42-.94,3.55c-.63,1.14-1.51,2.02-2.64,2.65-1.14.63-2.32.94-3.56.94s-2.43-.32-3.56-.94c-1.14-.63-2.02-1.51-2.65-2.65-.63-1.14-.95-2.32-.95-3.55s.32-2.44.96-3.59c.64-1.15,1.53-2.03,2.68-2.64,1.14-.62,2.31-.93,3.51-.93M541.31,87.95c-1,0-1.98.26-2.93.77-.95.51-1.7,1.25-2.23,2.21-.54.96-.81,1.95-.81,2.98s.26,2.01.79,2.96c.53.94,1.26,1.68,2.21,2.2.95.53,1.93.79,2.96.79s2.02-.26,2.97-.79c.95-.52,1.68-1.26,2.2-2.2.53-.94.78-1.93.78-2.96s-.26-2.03-.8-2.98c-.53-.96-1.28-1.69-2.23-2.21-.96-.51-1.93-.77-2.93-.77M538.18,97.86v-7.69h2.64c.9,0,1.56.07,1.96.21.4.14.72.39.96.74.24.36.36.73.36,1.13,0,.56-.2,1.05-.6,1.47-.4.42-.93.65-1.59.7.27.11.48.25.65.41.31.31.69.81,1.14,1.53l.93,1.51h-1.51l-.69-1.22c-.54-.96-.96-1.55-1.29-1.8-.22-.18-.55-.27-.99-.27h-.72v3.28h-1.25ZM539.43,93.52h1.5c.72,0,1.2-.1,1.46-.32.27-.21.39-.49.39-.85,0-.23-.06-.43-.19-.61-.12-.18-.3-.31-.52-.4-.22-.09-.63-.13-1.24-.13h-1.4v2.31Z"/>
</svg>