<svg id="Layer_1" data-name="Layer 1" xmlns="http://www.w3.org/2000/svg" viewBox="0 0 639.24 605.95"><defs><style>.cls-1{fill:#40bfb4;fill-rule:evenodd;}</style></defs><title>MR</title><path class="cls-1" d="M543.91,274.55c-.67-5.92-7.57-10.37-13.53-10.37a46.48,46.48,0,0,1-31.82-80.9,11.7,11.7,0,0,0,1.28-15.88,207.59,207.59,0,0,0-33.35-33.68,11.73,11.73,0,0,0-16,1.29c-12.54,13.9-35.09,19.07-52.5,11.8a46.77,46.77,0,0,1-28.44-45.7,11.67,11.67,0,0,0-10.33-12.3,210.09,210.09,0,0,0-47.36-.13,11.72,11.72,0,0,0-10.42,12,46.86,46.86,0,0,1-28.83,44.92c-17.21,7-39.59,1.9-52.11-11.87a11.74,11.74,0,0,0-15.89-1.34,209.4,209.4,0,0,0-34.05,33.67,11.72,11.72,0,0,0,1.25,16,46.64,46.64,0,0,1,11.77,52.53c-7.26,17.3-25.23,28.45-45.8,28.45a11.45,11.45,0,0,0-12.16,10.34,211.09,211.09,0,0,0-.09,47.87c.66,5.94,7.77,10.36,13.8,10.36,18.34-.47,35.93,10.87,43.32,28.84a46.82,46.82,0,0,1-11.77,52.06,11.69,11.69,0,0,0-1.28,15.86,209.32,209.32,0,0,0,33.3,33.69,11.7,11.7,0,0,0,16-1.27c12.6-13.93,35.13-19.08,52.48-11.8a46.69,46.69,0,0,1,28.49,45.69A11.69,11.69,0,0,0,310.21,507a210.9,210.9,0,0,0,47.37.13A11.72,11.72,0,0,0,368,495.1a46.8,46.8,0,0,1,28.81-44.89c17.33-7.08,39.61-1.9,52.14,11.85a11.76,11.76,0,0,0,15.88,1.34,210.24,210.24,0,0,0,34.06-33.67,11.71,11.71,0,0,0-1.26-16,46.64,46.64,0,0,1-11.79-52.51,47.12,47.12,0,0,1,43.06-28.54l2.6.07a11.7,11.7,0,0,0,12.32-10.32A209.94,209.94,0,0,0,543.91,274.55Zm-209.19-128a151.29,151.29,0,0,1,42.07,6L334.72,254.22,292.65,152.55A151.29,151.29,0,0,1,334.72,146.58ZM185.07,320.53A151.41,151.41,0,0,1,245.2,175.91ZM261.2,430.2a152.07,152.07,0,0,1-57.47-56.5l70.38-173.14Q283.83,226,294,251.22t20.82,50.66Zm73.52,19.06a151.33,151.33,0,0,1-38.08-4.84c.21-.48.39-.93.61-1.44l98.54-242,70.15,172.26A151.23,151.23,0,0,1,334.72,449.26ZM484.35,320.69,424,175.73a151.45,151.45,0,0,1,60.36,145Z"/></svg>