<?xml version="1.0" encoding="UTF-8" standalone="no"?>
<svg
   xmlns:dc="http://purl.org/dc/elements/1.1/"
   xmlns:cc="http://creativecommons.org/ns#"
   xmlns:rdf="http://www.w3.org/1999/02/22-rdf-syntax-ns#"
   xmlns:svg="http://www.w3.org/2000/svg"
   xmlns="http://www.w3.org/2000/svg"
   xmlns:sodipodi="http://sodipodi.sourceforge.net/DTD/sodipodi-0.dtd"
   xmlns:inkscape="http://www.inkscape.org/namespaces/inkscape"
   role="img"
   viewBox="-9.57 -9.57 471.64 162.14"
   version="1.1"
   id="svg885"
   sodipodi:docname="Meinberg Funkuhren GmbH &amp; Co KG.svg"
   inkscape:version="1.0.2 (e86c8708, 2021-01-15)">
  <metadata
     id="metadata891">
    <rdf:RDF>
      <cc:Work
         rdf:about="">
        <dc:format>image/svg+xml</dc:format>
        <dc:type
           rdf:resource="http://purl.org/dc/dcmitype/StillImage" />
      </cc:Work>
    </rdf:RDF>
  </metadata>
  <defs
     id="defs889" />
  <sodipodi:namedview
     pagecolor="#ffffff"
     bordercolor="#666666"
     borderopacity="1"
     objecttolerance="10"
     gridtolerance="10"
     guidetolerance="10"
     inkscape:pageopacity="0"
     inkscape:pageshadow="2"
     inkscape:window-width="1236"
     inkscape:window-height="575"
     id="namedview887"
     showgrid="false"
     inkscape:zoom="1.509626"
     inkscape:cx="235.82"
     inkscape:cy="81.07"
     inkscape:window-x="444"
     inkscape:window-y="298"
     inkscape:window-maximized="0"
     inkscape:current-layer="Claim_TSE_1_" />
  <style
     id="style833">svg {enable-background:new 0 0 453 144}</style>
  <style
     id="style835">.st2,.st3{fill:#005ca8}.st3{fill-rule:evenodd;clip-rule:evenodd}</style>
  <g
     id="Logo__x2B__Claim_1_">
    <g
       id="Claim_TSE_1_">
      <path
         fill="#ffffff"
         d="m 34.7,123.9 h -5.9 v -2.1 h 14.3 v 2.1 H 37.2 V 139 h -2.4 v -15.1 z m 24.4,7.6 v 7.5 h -2.4 v -7.3 c 0,-2.6 -1.3,-3.8 -3.5,-3.8 -2.5,0 -4.1,1.5 -4.1,4.3 v 6.7 H 46.7 V 120.6 H 49 v 7.1 c 1,-1.3 2.6,-2 4.6,-2 3.2,0.1 5.5,1.9 5.5,5.8 z m 17.5,1.8 H 65.9 c 0.3,2.3 2.1,3.8 4.7,3.8 1.5,0 2.8,-0.5 3.8,-1.6 l 1.3,1.5 c -1.2,1.4 -3,2.1 -5.2,2.1 -4.2,0 -7,-2.8 -7,-6.7 0,-3.9 2.8,-6.7 6.6,-6.7 3.8,0 6.5,2.7 6.5,6.7 0,0.4 0,0.6 0,0.9 z m -10.7,-1.7 h 8.4 c -0.2,-2.2 -1.9,-3.8 -4.2,-3.8 -2.2,0 -3.9,1.5 -4.2,3.8 z m 21.9,5.4 0.9,-1.9 c 1.3,1.2 3.5,2 5.7,2 3,0 4.3,-1.2 4.3,-2.7 0,-4.2 -10.5,-1.6 -10.5,-8 0,-2.7 2.1,-4.9 6.6,-4.9 2,0 4.1,0.5 5.6,1.5 l -0.8,2 c -1.5,-1 -3.2,-1.4 -4.7,-1.4 -2.9,0 -4.2,1.2 -4.2,2.7 0,4.2 10.5,1.6 10.5,7.9 0,2.6 -2.1,4.9 -6.7,4.9 -2.8,0.1 -5.3,-0.8 -6.7,-2.1 z m 29.1,-11.1 -6.3,14.4 c -1.2,2.8 -2.7,3.6 -4.7,3.6 -1.3,0 -2.5,-0.4 -3.4,-1.2 l 1,-1.8 c 0.6,0.6 1.5,1 2.3,1 1.1,0 1.9,-0.5 2.5,-2 l 0.4,-0.9 -5.8,-13.1 h 2.5 l 4.6,10.5 4.5,-10.5 z m 15.9,5.6 v 7.5 h -2.4 v -7.3 c 0,-2.6 -1.3,-3.8 -3.5,-3.8 -2.5,0 -4.1,1.5 -4.1,4.3 v 6.7 h -2.4 v -13.1 h 2.3 v 2 c 1,-1.3 2.6,-2.1 4.7,-2.1 3.1,0.1 5.4,1.9 5.4,5.8 z m 4.5,1 c 0,-3.9 2.9,-6.7 6.9,-6.7 2.3,0 4.3,1 5.3,2.8 l -1.8,1.2 c -0.8,-1.3 -2.1,-1.9 -3.6,-1.9 -2.6,0 -4.5,1.8 -4.5,4.6 0,2.8 1.9,4.6 4.5,4.6 1.4,0 2.7,-0.6 3.6,-1.9 l 1.8,1.1 c -1,1.8 -3,2.8 -5.3,2.8 -4,0.1 -6.9,-2.7 -6.9,-6.6 z m 28.8,-1 v 7.5 h -2.4 v -7.3 c 0,-2.6 -1.3,-3.8 -3.5,-3.8 -2.5,0 -4.1,1.5 -4.1,4.3 v 6.7 h -2.4 v -18.3 h 2.4 v 7.1 c 1,-1.3 2.6,-2 4.6,-2 3.1,0.1 5.4,1.9 5.4,5.8 z m 12.6,-5.7 v 2.3 c -0.2,0 -0.4,0 -0.5,0 -2.5,0 -4.1,1.6 -4.1,4.4 v 6.5 h -2.4 v -13.1 h 2.3 v 2.2 c 0.8,-1.5 2.5,-2.3 4.7,-2.3 z m 2.9,6.7 c 0,-3.9 2.9,-6.7 6.8,-6.7 3.9,0 6.8,2.8 6.8,6.7 0,3.9 -2.9,6.7 -6.8,6.7 -4,0 -6.8,-2.8 -6.8,-6.7 z m 11.2,0 c 0,-2.8 -1.9,-4.6 -4.4,-4.6 -2.5,0 -4.4,1.8 -4.4,4.6 0,2.8 1.9,4.6 4.4,4.6 2.5,0 4.4,-1.8 4.4,-4.6 z m 19.3,-1 v 7.5 h -2.4 v -7.3 c 0,-2.6 -1.3,-3.8 -3.5,-3.8 -2.5,0 -4.2,1.5 -4.2,4.3 v 6.7 h -2.4 v -13.1 h 2.3 v 2 c 1,-1.3 2.6,-2.1 4.7,-2.1 3.3,0.1 5.5,1.9 5.5,5.8 z m 5.2,-9.6 c 0,-0.9 0.7,-1.6 1.6,-1.6 0.9,0 1.6,0.7 1.6,1.5 0,0.9 -0.7,1.6 -1.6,1.6 -0.9,0 -1.6,-0.7 -1.6,-1.5 z m 0.4,4 h 2.4 V 139 h -2.4 z m 17.9,11.2 v 2 h -11 v -1.5 l 7.7,-9.6 h -7.6 v -2 h 10.6 v 1.6 l -7.7,9.6 h 8 z m 14.7,-6 v 7.9 h -2.2 v -1.7 c -0.8,1.2 -2.2,1.9 -4.3,1.9 -3,0 -4.8,-1.6 -4.8,-3.9 0,-2.1 1.4,-3.8 5.3,-3.8 h 3.8 V 131 c 0,-2 -1.2,-3.2 -3.5,-3.2 -1.6,0 -3.1,0.5 -4.1,1.4 l -1,-1.8 c 1.4,-1.1 3.3,-1.7 5.4,-1.7 3.4,0.1 5.4,1.8 5.4,5.4 z M 248,135 v -1.8 h -3.7 c -2.3,0 -3,0.9 -3,2 0,1.3 1.1,2.1 2.9,2.1 1.8,0 3.2,-0.8 3.8,-2.3 z m 15.3,3.3 c -0.7,0.6 -1.8,0.9 -2.9,0.9 -2.6,0 -4.1,-1.5 -4.1,-4.1 v -7.2 h -2.2 v -2 h 2.2 V 123 h 2.4 v 2.9 h 3.8 v 2 h -3.8 v 7.1 c 0,1.4 0.7,2.2 2,2.2 0.7,0 1.4,-0.2 1.9,-0.6 z m 3.7,-16.4 c 0,-0.9 0.7,-1.6 1.6,-1.6 0.9,0 1.6,0.7 1.6,1.5 0,0.9 -0.7,1.6 -1.6,1.6 -0.9,0 -1.6,-0.7 -1.6,-1.5 z m 0.4,4 h 2.4 V 139 h -2.4 z m 6.9,6.6 c 0,-3.9 2.9,-6.7 6.8,-6.7 3.9,0 6.8,2.8 6.8,6.7 0,3.9 -2.9,6.7 -6.8,6.7 -3.9,0 -6.8,-2.8 -6.8,-6.7 z m 11.2,0 c 0,-2.8 -1.9,-4.6 -4.4,-4.6 -2.5,0 -4.4,1.8 -4.4,4.6 0,2.8 1.9,4.6 4.4,4.6 2.6,0 4.4,-1.8 4.4,-4.6 z m 19.4,-1 v 7.5 h -2.4 v -7.3 c 0,-2.6 -1.3,-3.8 -3.5,-3.8 -2.5,0 -4.1,1.5 -4.1,4.3 v 6.7 h -2.4 v -13.1 h 2.3 v 2 c 1,-1.3 2.6,-2.1 4.7,-2.1 3.1,0.1 5.4,1.9 5.4,5.8 z m 26.4,5.4 v 2.2 H 318.8 V 121.8 H 331 v 2.1 h -9.7 v 5.3 h 8.7 v 2.1 h -8.7 v 5.6 z m 12.9,2.1 -3.8,-5 -3.8,5 H 334 l 5.2,-6.7 -4.9,-6.4 h 2.6 l 3.6,4.7 3.6,-4.7 h 2.6 l -4.9,6.4 5.2,6.7 z m 20.1,-6.5 c 0,4 -2.8,6.7 -6.6,6.7 -1.9,0 -3.5,-0.7 -4.6,-2.1 v 6.8 h -2.4 V 126 h 2.3 v 2.1 c 1.1,-1.5 2.7,-2.2 4.7,-2.2 3.8,-0.1 6.6,2.6 6.6,6.6 z m -2.4,0 c 0,-2.8 -1.9,-4.6 -4.4,-4.6 -2.5,0 -4.4,1.8 -4.4,4.6 0,2.8 1.9,4.6 4.4,4.6 2.5,0 4.4,-1.8 4.4,-4.6 z m 18.7,0.8 H 370 c 0.3,2.3 2.1,3.8 4.7,3.8 1.5,0 2.8,-0.5 3.8,-1.6 l 1.3,1.5 c -1.2,1.4 -3,2.1 -5.2,2.1 -4.2,0 -7,-2.8 -7,-6.7 0,-3.9 2.8,-6.7 6.6,-6.7 3.8,0 6.5,2.7 6.5,6.7 -0.1,0.4 -0.1,0.6 -0.1,0.9 z M 370,131.6 h 8.4 c -0.2,-2.2 -1.9,-3.8 -4.2,-3.8 -2.3,0 -4,1.5 -4.2,3.8 z m 22.2,-5.8 v 2.3 c -0.2,0 -0.4,0 -0.5,0 -2.5,0 -4.1,1.6 -4.1,4.4 v 6.5 h -2.4 v -13.1 h 2.3 v 2.2 c 0.8,-1.5 2.4,-2.3 4.7,-2.3 z m 12,12.5 c -0.7,0.6 -1.8,0.9 -2.9,0.9 -2.6,0 -4.2,-1.5 -4.2,-4.1 v -7.2 H 395 v -2 h 2.2 V 123 h 2.4 v 2.9 h 3.8 v 2 h -3.8 v 7.1 c 0,1.4 0.7,2.2 2,2.2 0.7,0 1.4,-0.2 1.9,-0.6 z m 2.5,-0.7 1,-1.9 c 1.1,0.8 2.9,1.4 4.6,1.4 2.2,0 3.1,-0.7 3.1,-1.8 0,-2.9 -8.3,-0.4 -8.3,-5.6 0,-2.3 2.1,-3.9 5.5,-3.9 1.7,0 3.6,0.4 4.8,1.2 l -1,1.9 c -1.2,-0.8 -2.5,-1 -3.8,-1 -2.1,0 -3.1,0.8 -3.1,1.8 0,3.1 8.3,0.6 8.3,5.7 0,2.4 -2.2,3.9 -5.7,3.9 -2.2,-0.1 -4.3,-0.8 -5.4,-1.7 z m 14.1,-0.1 c 0,-1 0.8,-1.7 1.7,-1.7 0.9,0 1.6,0.7 1.6,1.7 0,1 -0.7,1.7 -1.6,1.7 -0.9,0 -1.7,-0.7 -1.7,-1.7 z"
         id="path837"
         style="fill:#005ca8" />
    </g>
    <g
       id="Logo_2_">
      <path
         id="Background_2_"
         fill="#ffffff"
         fill-rule="evenodd"
         d="m 11.5,1.8 h 430 c 5.4,0 9.8,4.5 9.8,10.1 v 80.5 c 0,5.5 -4.4,10.1 -9.8,10.1 H 11.5 C 6.1,102.5 1.7,98 1.7,92.4 V 11.9 C 1.7,6.3 6.1,1.8 11.5,1.8 Z"
         clip-rule="evenodd" />
      <path
         id="Border_2_"
         d="m 11.5,-0.2 h 430 c 3.2,0 6.2,1.4 8.3,3.6 2.1,2.2 3.4,5.2 3.4,8.5 v 80.5 c 0,3.3 -1.3,6.3 -3.4,8.5 -2.1,2.2 -5.1,3.6 -8.3,3.6 h -430 c -3.2,0 -6.2,-1.4 -8.3,-3.6 -2.1,-2.2 -3.4,-5.2 -3.4,-8.5 V 11.9 c 0,-3.3 1.3,-6.3 3.4,-8.5 2.1,-2.2 5,-3.6 8.3,-3.6 z m 430,4 H 11.5 C 9.3,3.8 7.4,4.7 6,6.1 4.6,7.6 3.7,9.6 3.7,11.8 v 80.5 c 0,2.2 0.9,4.3 2.3,5.7 1.4,1.5 3.4,2.4 5.5,2.4 h 430 c 2.1,0 4.1,-0.9 5.5,-2.4 1.4,-1.5 2.3,-3.5 2.3,-5.7 V 11.9 c 0,-2.2 -0.9,-4.3 -2.3,-5.7 -1.4,-1.5 -3.4,-2.4 -5.5,-2.4 z"
         class="st2"
         style="fill:#005ca8" />
      <g
         id="Meinberg_Typo_2_">
        <path
           d="m 201.8,83.3 h 6 l 15,-53.8 c 0.1,-0.4 0.2,-0.9 0.2,-1.3 0,-3.4 -2.8,-7.4 -6.3,-7.4 h -20 l -1,3.5 h 14.5 c 3.4,0 6.2,2.8 6.2,6.2 0,0.4 -0.1,0.9 -0.1,1.3 z"
           class="st3"
           id="path842" />
        <path
           d="m 203.3,82.1 h 3.7 l 14.8,-52.9 v 0 c 0.1,-0.3 0.1,-0.7 0.1,-1 0,-1.5 -0.7,-3.2 -1.7,-4.4 v 0 C 219.3,22.7 218.1,22 216.8,22 h -19.2 l -0.3,1.2 h 13 c 2,0 3.9,0.8 5.2,2.2 v 0 0 c 1.3,1.3 2.2,3.2 2.2,5.2 0,0.2 0,0.5 0,0.8 0,0.4 -0.1,0.5 -0.1,0.7 v 0.1 0.1 z m 4.5,2.3 h -6 -1.5 l 0.4,-1.4 14.5,-51.4 c 0,-0.2 0.1,-0.5 0.1,-0.5 0,-0.2 0,-0.3 0,-0.6 0,-1.4 -0.6,-2.7 -1.5,-3.6 v 0 c -0.9,-0.9 -2.2,-1.5 -3.6,-1.5 h -14.5 -1.5 l 0.4,-1.4 1,-3.5 0.2,-0.8 h 0.9 20 c 2,0 3.8,1.1 5.2,2.6 v 0 c 1.4,1.6 2.3,3.8 2.3,5.9 0,0.5 -0.1,1.1 -0.2,1.6 v 0 l -15,53.8 -0.2,0.8 z"
           class="st2"
           id="path844" />
        <path
           d="m 348.9,83.4 h 6.3 l 7.2,-27.5 c 0.1,-0.4 0.2,-0.8 0.2,-1.2 0,-2.6 -2.1,-4.7 -4.6,-4.7 h -12.8 v 0 c -0.9,0 -1.6,-0.7 -1.6,-1.5 v 0 l 1.2,-3.9 v 0 c 0,-0.9 0.7,-1.6 1.5,-1.6 v 0 h 15.1 c 2.7,0 5,-1.7 5.9,-4.2 l 3,-8.7 c 0.2,-0.6 0.3,-1.2 0.3,-1.9 0,-3.4 -2.8,-7.3 -6.3,-7.3 h -20.5 l -1,3.4 h 14.8 c 3.4,0 6.2,2.8 6.2,6.2 0,0.8 -0.2,1.6 -0.5,2.4 l -3.1,6.3 c -0.8,1.6 -2.4,2.6 -4.2,2.6 h -11.3 v 0 c -1.3,0 -2.3,1 -2.3,2.3 0,0.1 0,0.1 0,0.1 l -1.1,5.8 v 0 c 0,1.3 1,2.4 2.3,2.4 h 0.1 10.2 c 1.7,0 3.1,1.4 3.1,3.1 0,0.3 -0.1,0.6 -0.2,0.9 z"
           class="st3"
           id="path846" />
        <path
           d="m 350.4,82.2 h 4 l 7,-26.7 v 0 c 0,-0.1 0.1,-0.3 0.1,-0.4 0,-0.1 0,-0.3 0,-0.5 0,-1 -0.4,-1.9 -1,-2.5 -0.6,-0.6 -1.5,-1 -2.5,-1 h -12.8 c -0.7,0 -1.4,-0.3 -1.9,-0.8 -0.3,-0.3 -0.5,-0.7 -0.7,-1.1 l -0.2,0.8 c 0,0.3 0.1,0.6 0.3,0.8 0.2,0.2 0.5,0.3 0.8,0.3 h 0.1 10.2 c 1.2,0 2.2,0.5 3,1.3 v 0 c 0.8,0.8 1.3,1.8 1.3,3 0,0.5 -0.1,0.8 -0.2,1.2 z m 4.8,2.3 h -6.3 -1.5 l 0.4,-1.5 7.9,-27.1 v 0 -0.1 c 0.1,-0.1 0.1,-0.3 0.1,-0.5 0,-0.5 -0.2,-1 -0.6,-1.4 v 0 c -0.4,-0.4 -0.9,-0.6 -1.4,-0.6 h -10.2 -0.1 c -0.9,0 -1.8,-0.4 -2.4,-1 -0.6,-0.6 -1,-1.5 -1,-2.5 v -0.1 -0.1 l 1.1,-5.7 c 0,-0.9 0.4,-1.8 1,-2.4 0.6,-0.6 1.5,-1 2.5,-1 H 356 c 0.7,0 1.3,-0.2 1.9,-0.5 0.6,-0.3 1,-0.8 1.3,-1.4 v 0 l 3.1,-6.2 c 0.1,-0.3 0.2,-0.6 0.3,-0.9 0.1,-0.3 0.1,-0.7 0.1,-1 0,-1.4 -0.6,-2.7 -1.5,-3.6 v 0 C 360.3,26 359,25.4 357.6,25.4 h -14.8 -1.5 l 0.5,-1.5 1,-3.4 0.2,-0.8 h 0.8 20.5 c 2,0 3.8,1 5.2,2.6 1.4,1.6 2.2,3.8 2.2,5.8 0,0.4 0,0.8 -0.1,1.1 v 0 c -0.1,0.4 -0.2,0.7 -0.3,1.1 v 0 l -3,8.7 v 0 c -0.5,1.5 -1.5,2.7 -2.7,3.6 -1.2,0.9 -2.7,1.4 -4.3,1.4 h -15.1 c -0.1,0 -0.2,0 -0.3,0.1 -0.1,0.1 -0.1,0.2 -0.1,0.3 v 0.2 l -0.1,0.2 -1.1,3.7 c 0,0.1 0.1,0.1 0.1,0.2 0.1,0.1 0.2,0.1 0.3,0.1 h 13 c 1.6,0 3,0.7 4.1,1.7 1,1.1 1.7,2.5 1.7,4.1 0,0.2 0,0.5 -0.1,0.8 0,0.3 -0.1,0.5 -0.2,0.7 v 0 l -7.2,27.5 -0.2,0.9 z m -11.8,-39.2 0.3,-0.9 c 0,-0.4 0.1,-0.8 0.3,-1.1 0,0 0,0 -0.1,0.1 -0.2,0.2 -0.3,0.5 -0.3,0.8 v 0.1 0.1 0.1 z m 16.1,-3.5 h 1.9 c 1.1,0 2.1,-0.3 3,-0.9 0.8,-0.6 1.5,-1.5 1.9,-2.5 v 0 l 3,-8.7 v 0 c 0.1,-0.2 0.2,-0.5 0.2,-0.7 v 0 c 0,-0.2 0.1,-0.5 0.1,-0.8 0,-1.5 -0.6,-3.1 -1.7,-4.3 -0.9,-1.1 -2.1,-1.8 -3.5,-1.8 h -19.7 l -0.3,1.1 h 13.3 c 2,0 3.9,0.8 5.2,2.2 v 0 0 c 1.3,1.3 2.2,3.2 2.2,5.2 0,0.5 -0.1,1 -0.2,1.5 -0.1,0.5 -0.2,0.9 -0.4,1.4 v 0.1 l -3.1,6.3 c -0.5,0.6 -1.2,1.4 -1.9,1.9 z"
           class="st2"
           id="path848" />
        <path
           d="m 314.9,83.6 h 10.3 L 344,20.9 h -10.5 z"
           class="st3"
           id="path850" />
        <path
           d="m 316.4,82.4 h 8 L 342.5,22 h -8.1 z m 8.8,2.3 h -10.4 -1.5 l 0.4,-1.5 18.6,-62.7 0.2,-0.8 h 0.8 l 10.5,-0.1 h 1.5 l -0.4,1.5 -18.8,62.7 -0.2,0.8 h -0.7 z"
           class="st2"
           id="path852" />
        <path
           d="m 233.4,83.3 1,-3.1 H 251 c 2.2,-0.1 4.2,-1.6 4.6,-3.9 l 6.7,-17.7 c 0.3,-0.5 0.4,-1.1 0.4,-1.7 0,-2.6 -2.1,-4.7 -4.7,-4.7 h -10.1 v 0 c -1.3,0 -2.3,-1 -2.3,-2.3 v 0 l 1.2,-5.8 c 0,0 0,0 0,-0.1 0,-1.3 1,-2.3 2.3,-2.3 0,0 0.1,0 0,0 h 11.3 c 1.9,0 3.6,-1.1 4.3,-2.9 l 3,-6 c 0.3,-0.8 0.5,-1.6 0.5,-2.4 0,-3.4 -2.8,-6.2 -6.2,-6.2 h -14.8 l 0.9,-3.4 h 18.4 c 4.3,0 7.8,4.5 7.8,8.8 0,0.9 -0.1,1.7 -0.4,2.6 l -2.6,7.4 c -0.6,2 -2.4,3.3 -4.4,3.3 h -16.2 v 0 c -0.9,0 -1.6,0.7 -1.6,1.6 v 0 l -1.1,3.9 v 0 c 0,0.9 0.7,1.5 1.6,1.5 v 0 h 13.7 c 2.6,0 4.7,2.1 4.7,4.7 0,0.5 -0.1,1 -0.3,1.5 l -7.2,22.3 c -0.9,2.5 -3.2,4.9 -5.8,4.9 z m -14.5,0 h 10.5 L 248,20.8 h -10.5 z"
           class="st3"
           id="path854" />
        <path
           d="m 232.3,83 1,-3.1 0.3,-0.8 h 0.8 16.6 v 0 c 0.8,0 1.6,-0.3 2.2,-0.9 0.6,-0.5 1.1,-1.2 1.2,-2.1 V 76 75.9 l 6.7,-17.7 v -0.1 0 c 0.1,-0.2 0.2,-0.4 0.2,-0.6 0,-0.2 0.1,-0.5 0.1,-0.7 0,-1 -0.4,-1.9 -1.1,-2.5 -0.6,-0.6 -1.5,-1.1 -2.5,-1.1 h -10.1 c -1,0 -1.8,-0.4 -2.5,-1 v 0 c -0.6,-0.6 -1,-1.5 -1,-2.5 v -0.1 -0.1 l 1.2,-5.7 c 0,-0.9 0.4,-1.8 1,-2.4 0.6,-0.6 1.5,-1 2.4,-1 h 11.3 c 0.7,0 1.4,-0.2 2,-0.6 0.6,-0.4 1,-0.9 1.3,-1.6 v -0.1 l 3,-5.9 c 0.1,-0.3 0.2,-0.6 0.3,-1 0.1,-0.3 0.1,-0.7 0.1,-1 0,-1.4 -0.6,-2.7 -1.5,-3.6 v 0 c -0.9,-0.9 -2.2,-1.5 -3.6,-1.5 h -14 l -17.4,58.3 -0.2,0.8 h -0.8 -10.5 -1.5 l 0.4,-1.5 18.6,-62.5 0.2,-0.8 h 0.8 9.6 0.9 0.1 1.5 16.8 c 2.4,0 4.6,1.2 6.2,3 1.7,1.9 2.7,4.5 2.7,7 0,0.5 0,1 -0.1,1.5 -0.1,0.5 -0.2,1 -0.3,1.5 v 0 l -2.6,7.4 v 0 c -0.4,1.2 -1.1,2.2 -2.1,2.9 -1,0.7 -2.2,1.1 -3.4,1.1 h -16.2 c -0.1,0 -0.2,0 -0.3,0.1 -0.1,0.1 -0.1,0.2 -0.1,0.3 v 0.2 0.2 l -1.1,3.7 c 0,0.1 0,0.1 0.1,0.2 0.1,0.1 0.2,0.1 0.3,0.1 H 263 c 1.6,0 3.1,0.7 4.1,1.7 1.1,1.1 1.7,2.5 1.7,4.1 0,0.3 0,0.6 -0.1,0.9 v 0 c -0.1,0.3 -0.1,0.6 -0.2,0.9 l -7.2,22.3 v 0 c -0.5,1.5 -1.5,3 -2.8,4 -1.2,1 -2.6,1.6 -4.1,1.6 h -21 -1.6 z m 2.9,-1.6 -0.3,0.8 h 19.5 c 1,0 1.9,-0.4 2.7,-1.1 0.9,-0.8 1.7,-1.9 2.1,-3 l 7.2,-22.3 v 0 c 0.1,-0.2 0.1,-0.4 0.2,-0.6 v 0 c 0,-0.2 0.1,-0.4 0.1,-0.5 0,-1 -0.4,-1.9 -1.1,-2.5 -0.6,-0.6 -1.5,-1.1 -2.5,-1.1 h -13.7 c -0.7,0 -1.4,-0.3 -1.9,-0.8 -0.3,-0.3 -0.6,-0.7 -0.7,-1.2 l -0.2,0.9 c 0,0.3 0.1,0.6 0.3,0.8 v 0 c 0.2,0.2 0.5,0.3 0.9,0.3 h 10.1 c 1.6,0 3.1,0.7 4.1,1.7 1.1,1.1 1.7,2.5 1.7,4.1 0,0.4 0,0.8 -0.1,1.2 -0.1,0.4 -0.2,0.7 -0.4,1.1 l -6.7,17.5 c -0.3,1.3 -1,2.5 -2,3.3 -1,0.9 -2.3,1.4 -3.7,1.4 v 0 z m 12.6,-37.1 -0.1,0.5 0.1,-0.5 c 0.1,-0.4 0.2,-0.7 0.3,-1.1 -0.2,0.2 -0.3,0.5 -0.3,0.8 v 0.1 0.1 z m 17.9,-5 c -0.4,1 -1.1,1.9 -1.9,2.5 h 3 c 0.8,0 1.5,-0.2 2.1,-0.7 0.6,-0.4 1,-1 1.3,-1.8 v 0 l 2.6,-7.4 v 0 c 0.1,-0.3 0.2,-0.7 0.2,-1 0.1,-0.4 0.1,-0.8 0.1,-1.1 0,-2 -0.8,-4 -2.1,-5.5 C 269.8,23 268.2,22 266.5,22 H 249 l -0.3,1.1 H 262 c 2,0 3.9,0.8 5.2,2.2 v 0 0 c 1.3,1.3 2.2,3.2 2.2,5.2 0,0.5 0,1 -0.2,1.5 -0.1,0.5 -0.2,0.9 -0.4,1.4 v 0.1 z M 246.3,22.7 246.5,22 h -8.2 l -17.9,60.2 h 8.1 z"
           class="st2"
           id="path856" />
        <path
           d="m 167.7,83.6 h 10.4 l 18.8,-62.8 -10.6,-0.1 z"
           class="st3"
           id="path858" />
        <path
           d="m 169.2,82.4 h 8 l 18.1,-60.6 h -8.2 z m 8.9,2.3 h -10.4 -1.5 l 0.4,-1.5 18.6,-62.9 0.2,-0.8 h 0.8 10.6 1.5 l -0.4,1.4 -18.8,62.8 -0.2,0.8 h -0.8 z"
           class="st2"
           id="path860" />
        <path
           d="M 146.6,83.6 H 157 l 18.7,-62.5 h -10.5 z"
           class="st3"
           id="path862" />
        <path
           d="m 148.1,82.4 h 8.1 l 18,-60.2 H 166 Z m 8.9,2.3 h -10.4 -1.5 l 0.4,-1.5 18.6,-62.5 0.2,-0.8 h 0.8 10.5 1.5 l -0.4,1.5 -18.6,62.5 -0.2,0.8 z"
           class="st2"
           id="path864" />
        <path
           d="m 85.2,83.4 h 8.4 l 16.6,-53.5 c 0.2,-0.5 0.2,-1.1 0.2,-1.6 0,-3.4 -2.7,-7.4 -6.2,-7.4 H 90.3 c -2.8,0 -5.2,3 -6,5.7 L 67.9,80.5 c -0.4,1.4 -1.6,2.3 -3,2.3 h -0.8 c -1.7,0 -3.1,-1.4 -3.1,-3.1 0,-0.3 0,-0.5 0.1,-0.8 L 76.5,27.1 c 0.1,-0.4 0.4,-2.2 0.4,-2.6 0,-2.1 -1.5,-3.6 -3.7,-3.6 H 59.3 l -0.9,3.5 H 71 c 2.1,0 3.9,1.7 3.9,3.9 0,0.4 -0.1,0.8 -0.2,1.1 L 60.2,77.6 c -0.1,0.2 -0.9,2.5 -0.2,3.3 1.4,2.6 2.3,2.5 4,2.5 1.4,0 -0.4,0 0.9,0 3.2,0.2 3.3,-1.1 4.8,-5.2 L 84.7,29 c 0.8,-2.7 2.2,-4.5 5,-4.5 h 6.6 c 3,0.1 5.4,2.6 5.4,5.6 0,0.8 -0.2,1.6 -0.5,2.3 z m -54.9,0 H 40.6 L 59.3,20.9 H 48.8 Z"
           class="st3"
           id="path866" />
        <path
           d="m 86.7,82.3 h 6 l 16.4,-52.7 v 0 c 0.1,-0.2 0.1,-0.4 0.1,-0.6 0,-0.2 0,-0.5 0,-0.7 0,-1.5 -0.6,-3.2 -1.7,-4.4 -0.9,-1.1 -2.1,-1.8 -3.4,-1.8 H 90.3 c -1,0 -1.9,0.5 -2.8,1.3 -0.1,0.1 -0.3,0.3 -0.4,0.4 0.7,-0.3 1.6,-0.5 2.5,-0.5 h 6.6 v 0 c 1.8,0.1 3.4,0.8 4.6,2 1.2,1.2 1.9,2.9 1.9,4.7 0,0.5 -0.1,0.9 -0.2,1.4 -0.1,0.4 -0.2,0.9 -0.4,1.3 z m 6.9,2.3 H 85.2 83.7 L 84.2,83.1 100,32 v -0.1 -0.1 c 0.1,-0.3 0.2,-0.6 0.3,-0.9 0.1,-0.3 0.1,-0.6 0.1,-1 0,-1.2 -0.5,-2.3 -1.2,-3.1 -0.8,-0.8 -1.8,-1.3 -3,-1.3 v 0 h -6.6 c -1.1,0 -1.9,0.3 -2.4,0.9 -0.6,0.6 -1.1,1.6 -1.4,2.8 v 0 l -15,49.2 v 0.1 c -0.2,0.5 -0.3,0.9 -0.4,1.3 -1.3,3.7 -1.7,5 -5.4,4.7 h -1 v 0 h -0.3 c -1.9,0 -3.1,0 -4.7,-3 -0.8,-1.2 -0.1,-3.4 0.1,-4.1 v 0 -0.1 L 73.5,29.1 v 0 c 0,-0.1 0.1,-0.3 0.1,-0.4 0,-0.1 0,-0.2 0,-0.3 0,-0.7 -0.3,-1.4 -0.8,-1.9 -0.5,-0.5 -1.2,-0.8 -2,-0.8 H 59.1 l -17.4,58 -0.2,0.8 H 40.7 30.3 28.8 L 29.2,83 47.7,20.5 47.9,19.7 h 0.8 9.6 0.9 0.1 1.5 12.4 c 1.4,0 2.6,0.5 3.4,1.3 0.9,0.8 1.4,2 1.4,3.4 0,0.2 -0.1,0.8 -0.2,1.4 v 0 c -0.1,0.7 -0.2,1.3 -0.3,1.6 v 0 L 62.1,79.2 v 0 0.1 c 0,0.1 0,0.2 0,0.4 0,0.5 0.2,1 0.6,1.4 0.4,0.4 0.8,0.6 1.4,0.6 h 0.8 c 0.5,0 0.9,-0.1 1.2,-0.4 0.3,-0.3 0.6,-0.6 0.7,-1.1 v 0 L 83.2,26.3 v 0 c 0.4,-1.6 1.4,-3.3 2.7,-4.6 1.2,-1.2 2.7,-1.9 4.3,-1.9 h 13.9 c 2,0 3.8,1.1 5.1,2.6 1.4,1.6 2.2,3.8 2.2,5.9 0,0.3 0,0.6 -0.1,1 0,0.3 -0.1,0.7 -0.2,1 v 0 L 94.6,83.7 94.3,84.5 H 93.6 Z M 75.5,26.1 c 0,-0.2 0.1,-0.4 0.1,-0.6 v 0 c 0.1,-0.5 0.1,-0.9 0.1,-1 0,-0.7 -0.2,-1.3 -0.7,-1.7 -0.4,-0.4 -1.1,-0.7 -1.9,-0.7 h -13 l -0.3,0.8 -0.1,0.4 h 11.1 c 1.4,0 2.6,0.6 3.6,1.5 0.5,0.3 0.8,0.8 1.1,1.3 z M 57.7,22.2 V 22 H 49.6 L 31.8,82.3 h 8 z"
           class="st2"
           id="path868" />
        <path
           d="m 303.4,83.4 h -22.7 c 0.1,0 -0.9,0 -2.1,0 -2.6,0 -4.5,-2.8 -4.5,-5.4 0,-0.4 0.1,-0.8 0.2,-1.3 l 6,-21 c 0.9,-3.4 4,-5.8 7.5,-5.8 v 0 h 21.8 c 0.9,0 1.6,-0.7 1.6,-1.5 l 1.1,-3.9 c 0,-0.9 -0.7,-1.6 -1.5,-1.6 h -22.9 c -1.3,0 -2.3,-1 -2.3,-2.3 0,-0.2 0,-0.4 0.1,-0.5 l 3.4,-12.4 c 0.9,-3.4 4,-6.8 7.5,-6.8 H 322 l -1,3.4 h -18 c -3.6,0 -6.7,2.5 -7.5,6 l -2.1,8.7 c -0.1,0.2 -0.1,0.3 -0.1,0.5 0,1.3 1,2.3 2.3,2.3 v 0 h 16.8 c 1.3,0 2.3,1 2.3,2.3 l -1.1,5.8 c 0,1.3 -1.1,2.4 -2.3,2.4 h -18.5 c -2.9,0 -5.4,2 -6.1,4.8 l -4.4,17.5 c -0.1,0.4 -0.1,0.7 -0.1,1.1 0,2.6 2.1,4.6 4.6,4.6 v 0 h 17.7 z"
           class="st3"
           id="path870" />
        <path
           d="m 303.4,84.5 h -22.7 -2.1 c -1.6,0 -3,-0.8 -4,-2 -1,-1.2 -1.7,-2.9 -1.7,-4.5 0,-0.5 0.1,-1 0.2,-1.5 v 0 l 6,-21 v 0 c 0.5,-1.9 1.7,-3.6 3.2,-4.8 1.5,-1.2 3.4,-1.8 5.4,-1.8 h 21.8 c 0.1,0 0.3,0 0.3,-0.1 0.1,-0.1 0.1,-0.2 0.1,-0.3 v -0.2 -0.2 l 1.1,-3.7 c 0,-0.1 -0.1,-0.2 -0.1,-0.2 -0.1,-0.1 -0.2,-0.1 -0.3,-0.1 h -22.9 c -0.9,0 -1.8,-0.4 -2.4,-1 -0.6,-0.6 -1,-1.5 -1,-2.4 0,-0.2 0,-0.5 0.1,-0.9 l 3.4,-12.4 c 0.5,-2 1.8,-4 3.3,-5.4 1.5,-1.3 3.3,-2.2 5.3,-2.2 h 25.6 1.5 l -0.4,1.5 -1,3.4 -0.2,0.8 H 321 303 c -1.5,0 -3,0.5 -4.1,1.4 -1.1,0.9 -2,2.2 -2.3,3.6 v 0 l -2.1,8.7 v 0.1 c 0,0 0,0.1 0,0.1 0,0.3 0.1,0.7 0.3,0.9 0.2,0.2 0.5,0.3 0.8,0.3 h 16.8 c 1,0 1.8,0.4 2.5,1 0.6,0.6 1,1.5 1,2.4 v 0.1 0.1 l -1.1,5.7 c 0,0.9 -0.4,1.7 -1,2.3 v 0 c -0.6,0.6 -1.5,1 -2.5,1 h -18.5 c -1.2,0 -2.3,0.4 -3.2,1.1 -0.9,0.7 -1.5,1.7 -1.8,2.8 v 0 l -4.4,17.5 v 0 c 0,0.1 0,0.2 -0.1,0.3 0,0.1 0,0.3 0,0.5 0,1 0.4,1.8 1,2.5 v 0 c 0.6,0.6 1.5,1 2.5,1 h 17.7 1.6 l -0.5,1.5 -1.1,3.1 -0.3,0.8 h -0.8 z m -22.7,-2.3 h 21.9 l 0.3,-0.8 h -16.1 c -1.6,0 -3,-0.6 -4.1,-1.7 v 0 0 c -1,-1 -1.7,-2.5 -1.7,-4.1 0,-0.2 0,-0.4 0,-0.6 0,-0.2 0.1,-0.5 0.1,-0.8 l 4.4,-17.4 v 0 c 0.4,-1.7 1.3,-3.1 2.6,-4.1 1.3,-1 2.9,-1.6 4.6,-1.6 h 18.5 c 0.3,0 0.6,-0.1 0.9,-0.4 v 0 c 0.2,-0.2 0.4,-0.5 0.4,-0.9 v -0.1 -0.1 l 0.9,-4.4 -1,3.3 c 0,0.7 -0.3,1.3 -0.8,1.7 -0.5,0.5 -1.2,0.8 -1.9,0.8 h -21.8 c -1.5,0 -2.9,0.5 -4,1.4 -1.1,0.9 -2,2.1 -2.4,3.6 v 0 l -6,21 c -0.1,0.3 -0.1,0.6 -0.1,0.9 0,1.1 0.4,2.2 1.1,3 0.6,0.7 1.4,1.2 2.3,1.2 h 1.9 z m 32.5,-39 c 0.2,0.4 0.3,0.8 0.3,1.2 l 0.1,-0.4 c 0,-0.3 -0.1,-0.5 -0.4,-0.8 0.1,0.1 0,0 0,0 z m -25.3,-1.4 h 5.1 c -0.6,-0.6 -0.9,-1.4 -0.9,-2.4 0,-0.2 0,-0.5 0.1,-0.8 l 2.1,-8.7 v 0 c 0.5,-2 1.6,-3.7 3.1,-4.9 1.5,-1.2 3.5,-1.9 5.5,-1.9 h 17.2 l 0.3,-1.1 h -23.9 c -1.4,0 -2.7,0.6 -3.8,1.6 -1.3,1.1 -2.3,2.7 -2.7,4.3 l -3.4,12.4 v 0.1 c 0,0 0,0.1 0,0.2 0,0.3 0.1,0.7 0.3,0.9 0.4,0.2 0.7,0.3 1,0.3 z"
           class="st2"
           id="path872" />
        <path
           d="m 401.1,41.8 h 10.4 c 3.4,0 6.2,2.8 6.2,6.2 0,0.5 -0.1,1.1 -0.2,1.7 l -8,28.4 c -0.8,2.7 -3.2,5.1 -6,5.1 h -28.3 c -3.4,0 -6.2,-3.4 -6.2,-6.8 0,-0.5 0.1,-1.1 0.2,-1.7 l 13.5,-48.3 c 0.8,-2.7 3.4,-5.7 6.2,-5.7 h 33.6 l -1.2,3.5 h -25.6 c 0.1,0 0.1,0 0,0 -2.8,0 -5.2,1.9 -6,4.6 l -11.6,43.7 c -0.1,0.5 -0.2,1 -0.2,1.6 0,3.4 2.8,6.2 6.2,6.2 H 398 c 2.7,0 5.1,-1.7 6,-4.4 l 7.1,-23.8 c 0.2,-0.6 0.3,-1.2 0.3,-1.9 0,-3.4 -2.8,-6.2 -6.2,-6.2 h -4.9 z"
           class="st3"
           id="path874" />
        <path
           d="m 401.1,40.7 h 10.4 c 2,0 3.9,0.8 5.2,2.2 v 0 0 c 1.3,1.3 2.2,3.2 2.2,5.2 0,0.3 0,0.7 -0.1,1 0,0.3 -0.1,0.7 -0.2,1 v 0 l -8,28.4 v 0 c -0.5,1.6 -1.4,3.1 -2.7,4.2 -1.2,1.1 -2.7,1.7 -4.3,1.7 h -28.3 c -2,0 -3.8,-1 -5.2,-2.4 -1.4,-1.5 -2.2,-3.5 -2.2,-5.6 0,-0.3 0,-0.7 0.1,-1 0,-0.3 0.1,-0.7 0.2,-1 v 0 l 13.5,-48.3 v 0 c 0.5,-1.6 1.5,-3.3 2.9,-4.6 1.3,-1.2 2.8,-1.9 4.4,-1.9 h 33.6 1.6 l -0.5,1.5 -1.2,3.5 -0.3,0.8 h -0.8 -25.6 c -1.1,0 -2.2,0.4 -3.1,1 -0.9,0.7 -1.5,1.6 -1.8,2.7 v 0 l -11.6,43.6 v 0 c 0,0.2 -0.1,0.4 -0.1,0.6 0,0.2 0,0.4 0,0.7 0,1.4 0.6,2.7 1.5,3.6 v 0 c 0.9,0.9 2.2,1.5 3.6,1.5 h 13.9 c 1.1,0 2.2,-0.4 3,-1 0.8,-0.6 1.5,-1.5 1.8,-2.6 l 7.1,-23.7 v 0 c 0.1,-0.3 0.1,-0.5 0.2,-0.8 v 0 c 0,-0.2 0.1,-0.5 0.1,-0.8 0,-1.4 -0.6,-2.7 -1.5,-3.6 v 0 c -0.9,-0.9 -2.2,-1.5 -3.6,-1.5 h -4.9 -1.6 l 0.5,-1.5 0.8,-2.3 0.3,-0.8 h 0.7 z m 10.4,2.2 h -9.6 v 0 h 3.3 c 2,0 3.9,0.8 5.2,2.2 v 0 0 c 1.3,1.3 2.2,3.2 2.2,5.2 0,0.4 0,0.7 -0.1,1.1 v 0 c -0.1,0.4 -0.1,0.7 -0.2,1 v 0 l -7.1,23.8 v 0 c -0.5,1.5 -1.4,2.8 -2.7,3.7 -1.2,0.9 -2.8,1.4 -4.4,1.4 h -13.9 c -2,0 -3.9,-0.8 -5.2,-2.2 v 0 0 c -1.3,-1.3 -2.2,-3.2 -2.2,-5.2 0,-0.3 0,-0.6 0.1,-0.9 0,-0.3 0.1,-0.6 0.1,-0.9 v 0 l 11.6,-43.6 v 0 c 0.4,-1.6 1.4,-3 2.6,-3.9 1.3,-1 2.8,-1.5 4.5,-1.5 h 24.8 l 0.4,-1.2 h -32 c -1,0 -2,0.5 -2.9,1.3 -1.1,1 -1.9,2.3 -2.2,3.5 v 0 L 370.3,75 v 0 c -0.1,0.2 -0.1,0.4 -0.1,0.6 0,0.2 0,0.5 0,0.8 0,1.5 0.6,2.9 1.6,4 0.9,1 2.1,1.7 3.5,1.7 h 28.3 c 1,0 2,-0.5 2.9,-1.2 0.9,-0.8 1.7,-2 2,-3.1 v 0 l 8,-28.4 v 0 c 0.1,-0.2 0.1,-0.4 0.1,-0.6 0,-0.2 0,-0.5 0,-0.8 0,-1.4 -0.6,-2.7 -1.5,-3.6 v 0 c -0.9,-0.9 -2.2,-1.5 -3.6,-1.5 z"
           class="st2"
           id="path876" />
        <path
           d="m 134.9,83.4 h -22.7 c 0.1,0 -0.9,0 -2.1,0 -2.6,0 -4.5,-2.8 -4.5,-5.4 0,-0.4 0.1,-0.8 0.2,-1.3 l 6,-21 c 0.9,-3.4 4,-5.8 7.5,-5.8 v 0 h 21.9 c 0.9,0 1.6,-0.7 1.6,-1.5 l 1.1,-3.9 c 0,-0.9 -0.7,-1.6 -1.5,-1.6 h -22.9 c -1.3,0 -2.3,-1 -2.3,-2.3 0,-0.2 0,-0.4 0.1,-0.5 l 3.4,-12.4 c 0.9,-3.4 4,-6.8 7.5,-6.8 h 25.4 l -1,3.4 h -18 c -3.6,0 -6.7,2.5 -7.5,6 L 125,39 c -0.1,0.2 -0.1,0.3 -0.1,0.5 0,1.3 1,2.3 2.3,2.3 v 0 H 144 c 1.3,0 2.3,1 2.3,2.3 l -1.1,5.8 c 0,1.3 -1.1,2.4 -2.3,2.4 h -18.5 c -2.9,0 -5.4,2 -6.1,4.8 l -4.4,17.5 c -0.1,0.4 -0.1,0.7 -0.1,1.1 0,2.6 2.1,4.6 4.6,4.6 v 0 H 136 Z"
           class="st3"
           id="path878" />
        <path
           d="m 134.9,84.5 h -22.7 -2.1 c -1.6,0 -3,-0.8 -4,-2 -1,-1.2 -1.7,-2.9 -1.7,-4.5 0,-0.5 0.1,-1 0.2,-1.5 v 0 l 6,-21 v 0 c 0.5,-1.9 1.7,-3.6 3.2,-4.8 1.5,-1.2 3.4,-1.8 5.4,-1.8 h 21.9 c 0.1,0 0.3,0 0.3,-0.1 0.1,-0.1 0.1,-0.2 0.1,-0.3 v -0.2 -0.2 l 1.1,-3.7 c 0,-0.1 -0.1,-0.2 -0.1,-0.2 -0.1,-0.1 -0.2,-0.1 -0.3,-0.1 h -22.9 c -0.9,0 -1.8,-0.4 -2.4,-1 -0.6,-0.6 -1,-1.5 -1,-2.4 0,-0.2 0,-0.5 0.1,-0.9 l 3.4,-12.4 c 0.5,-2 1.8,-4 3.3,-5.4 1.5,-1.3 3.3,-2.2 5.3,-2.2 h 25.4 1.5 l -0.4,1.5 -1,3.4 -0.2,0.8 h -0.8 -18 c -1.5,0 -3,0.5 -4.1,1.4 -1.1,0.9 -2,2.2 -2.3,3.6 v 0 l -2.1,8.7 v 0.1 c 0,0 0,0.1 0,0.1 0,0.3 0.1,0.7 0.3,0.9 0.2,0.2 0.5,0.3 0.8,0.3 h 16.8 c 1,0 1.8,0.4 2.4,1 0.6,0.6 1,1.5 1,2.4 v 0.1 0.1 l -1.1,5.7 c 0,0.9 -0.4,1.7 -1,2.3 v 0 c -0.6,0.6 -1.5,1 -2.5,1 h -18.5 c -1.2,0 -2.3,0.4 -3.2,1.1 -0.9,0.7 -1.5,1.7 -1.8,2.8 v 0 l -4.4,17.5 v 0 c 0,0.1 0,0.2 -0.1,0.3 0,0.1 0,0.3 0,0.5 0,1 0.4,1.8 1,2.5 v 0 c 0.6,0.6 1.5,1 2.5,1 h 17.8 1.6 l -0.5,1.5 -1.1,3.1 -0.3,0.8 h -0.8 z m -22.7,-2.3 h 21.9 l 0.3,-0.8 h -16.1 c -1.6,0 -3,-0.6 -4.1,-1.7 v 0 0 c -1,-1 -1.7,-2.5 -1.7,-4.1 0,-0.2 0,-0.4 0,-0.6 0,-0.2 0.1,-0.5 0.1,-0.8 L 117,56.8 v 0 c 0.4,-1.7 1.3,-3.1 2.6,-4.1 1.3,-1 2.9,-1.6 4.6,-1.6 h 18.5 c 0.3,0 0.6,-0.1 0.9,-0.4 v 0 c 0.2,-0.2 0.4,-0.5 0.4,-0.9 v -0.1 -0.1 l 0.9,-4.4 -1,3.3 c 0,0.7 -0.3,1.3 -0.8,1.7 -0.5,0.5 -1.2,0.8 -1.9,0.8 h -21.9 c -1.5,0 -2.9,0.5 -4,1.4 -1.1,0.9 -2,2.1 -2.4,3.6 v 0 l -6,21 c -0.1,0.3 -0.1,0.6 -0.1,0.9 0,1.1 0.4,2.2 1.1,3 0.6,0.7 1.4,1.2 2.3,1.2 h 2 z m 32.5,-39 c 0.2,0.4 0.3,0.8 0.3,1.2 l 0.1,-0.4 c 0,-0.3 -0.2,-0.5 -0.4,-0.8 0,0.1 0,0 0,0 z m -25.3,-1.4 h 5.1 c -0.6,-0.6 -0.9,-1.4 -0.9,-2.4 0,-0.2 0,-0.5 0.1,-0.8 l 2.1,-8.7 v 0 c 0.5,-2 1.6,-3.7 3.1,-4.9 1.5,-1.2 3.5,-1.9 5.5,-1.9 h 17.2 L 152,22 h -23.9 c -1.4,0 -2.7,0.6 -3.8,1.6 -1.3,1.1 -2.3,2.7 -2.7,4.3 l -3.4,12.4 v 0.1 c 0,0 0,0.1 0,0.2 0,0.3 0.1,0.7 0.3,0.9 0.3,0.2 0.6,0.3 0.9,0.3 z"
           class="st2"
           id="path880" />
      </g>
    </g>
  </g>
</svg>
