<?xml version="1.0" encoding="UTF-8"?>
<svg id="Layer_2" data-name="Layer 2" xmlns="http://www.w3.org/2000/svg" viewBox="0 0 899.97 261">
  <defs>
    <style>
      .cls-1 {
        fill: #232323;
      }

      .cls-2 {
        fill: #7f0404;
      }

      .cls-3 {
        fill: #a50404;
      }

      .cls-4 {
        fill: #cd0202;
        opacity: .9;
      }
    </style>
  </defs>
  <g id="Layer_1-2" data-name="Layer 1">
    <polygon class="cls-4" points="59.23 99.45 59.23 161.55 113.02 192.61 113.02 130.5 59.23 99.45"/>
    <polygon class="cls-3" points="113.02 68.39 113.02 68.39 59.23 99.45 113.02 130.5 166.8 99.45 113.02 68.39"/>
    <polygon class="cls-2" points="166.8 99.45 113.02 130.5 113.02 192.61 113.02 192.61 166.8 161.55 166.8 99.45"/>
    <g>
      <path class="cls-1" d="M113.02,196.41l-57.08-32.95v-65.91l57.08-32.95,57.08,32.95v65.91l-57.08,32.95ZM60.49,160.83l52.53,30.33,52.53-30.33v-60.66l-52.53-30.33-52.53,30.33v60.66Z"/>
      <path class="cls-1" d="M113.02,261L0,195.75V65.25L113.02,0l113.02,65.25v130.5l-113.02,65.25ZM6.82,191.81l106.2,61.31,106.2-61.31v-122.62L113.02,7.88,6.82,69.19v122.62Z"/>
      <rect class="cls-1" x="111.88" y="3.94" width="2.27" height="63.28"/>
      <rect class="cls-1" x="-.83" y="176.82" width="63.28" height="2.27" transform="translate(-84.84 39.24) rotate(-29.99)"/>
      <rect class="cls-1" x="194.08" y="146.32" width="2.27" height="63.28" transform="translate(-56.51 258.05) rotate(-60)"/>
      <rect class="cls-1" x="111.88" y="130.5" width="2.27" height="126.56"/>
      <rect class="cls-1" x="104.54" y="97.72" width="126.56" height="2.27" transform="translate(-26.95 97.14) rotate(-29.99)"/>
      <rect class="cls-1" x="57.08" y="35.58" width="2.27" height="126.56" transform="translate(-56.51 99.84) rotate(-60)"/>
    </g>
    <path class="cls-1" d="M469.77,176.52h-22.67v-75.93l-33.74,75.93h-21.3l-31.69-75.93v75.93h-22.53v-92.19h39.88l26.09,62.69,27.59-62.69h38.38v92.19Z"/>
    <path class="cls-1" d="M593.73,103.32h-74.7v16.25h65.56v19.26h-65.56v16.66h76.62v21.03h-99.02v-92.19h97.1v18.98Z"/>
    <path class="cls-1" d="M726.21,176.52h-31l-24.99-35.24h-27.32v35.24h-22.26v-92.19h71.97c22.81,0,34.14,10.92,34.14,28.54,0,15.84-9.29,26.22-28.27,28.27l27.72,35.37ZM642.9,104.27v16.53h49.58c6.55,0,10.79-2.87,10.79-8.6,0-5.19-4.23-7.92-10.79-7.92h-49.58Z"/>
    <path class="cls-1" d="M776.01,176.52h-22.4v-92.19h22.4v92.19Z"/>
    <path class="cls-1" d="M899.97,104.96h-37.42v71.56h-22.26v-71.56h-37.42v-20.62h97.1v20.62Z"/>
  </g>
</svg>