<?xml version="1.0" encoding="UTF-8"?><svg id="a" xmlns="http://www.w3.org/2000/svg" viewBox="0 0 432 152.55"><path d="m231.23,150.55l-13.28-18.84v18.84h-5.01v-26.29h5.08l13.35,19.05v-19.05h4.87v26.29h-5.01Z" style="fill:#798590;"/><path d="m250.61,128.55v6.69h9.06v4.22h-9.06v6.93h9.16v4.15h-14.18v-26.29h14.24v4.29h-9.23Z" style="fill:#798590;"/><path d="m276.35,128.83v21.73h-5.01v-21.73h-5.39v-4.57h15.79v4.57h-5.39Z" style="fill:#798590;"/><path d="m314.3,150.55h-4.39l-5.66-18.47-5.87,18.47h-4.53l-7.72-26.29h5.46l5.05,18.54,5.87-18.54h3.64l5.63,18.23,5.08-18.23h5.28l-7.82,26.29Z" style="fill:#798590;"/><path d="m341.1,151.07c-7.48,0-13.49-6.18-13.49-13.66s6.04-13.7,13.56-13.7,13.69,6.11,13.69,13.66-6.21,13.7-13.76,13.7Zm.07-22.55c-4.98,0-8.58,3.74-8.58,8.89s3.67,8.82,8.55,8.82,8.65-3.95,8.65-8.82c0-5.18-3.71-8.89-8.61-8.89Z" style="fill:#798590;"/><path d="m375.48,150.55l-7.82-11.22v11.22h-4.91v-26.29h9.06c4.32,0,7.89,3.09,7.89,7.89,0,4.22-3.09,6.62-6.42,7.28.52.69,8.34,11.12,8.34,11.12h-6.15Zm-5.15-22.21h-2.64v8h3.06c1.68,0,3.81-1.13,3.81-4.15s-1.99-3.84-4.22-3.84Z" style="fill:#798590;"/><path d="m398.54,136.93l11.02,13.63h-6.73l-9.34-12.08v12.08h-5.01v-26.29h5.01v11.67l9.71-11.67h6.45l-11.12,12.67Z" style="fill:#798590;"/><path d="m422.38,151.31c-3.53,0-5.87-.96-8.34-3.64l3.05-3.3c1.17,1.3,2.81,2.4,5.15,2.4,2.02,0,3.84-1.48,3.84-3.5,0-1.68-1.17-2.78-2.75-3.36-.72-.28-1.54-.55-2.5-.93-4.46-1.82-5.87-3.81-5.87-7.45,0-4.5,3.74-7.69,8.1-7.69,3.09,0,5.49,1.1,7.31,3.09l-2.78,3.26c-1-.89-2.16-1.99-4.33-1.99-1.72,0-3.29,1.44-3.29,3.19,0,1.58,1.1,2.44,2.47,3.02,1.06.45,1.68.72,2.75,1.13,3.67,1.41,5.97,3.95,5.97,7.79,0,4.63-4.26,7.96-8.79,7.96Z" style="fill:#798590;"/><circle cx="149.6" cy="9.3" r="9.15" style="fill:#0099ae;"/><rect x="141.06" y="25.06" width="15.69" height="79.57" style="fill:#0099ae;"/><path d="m222.06,12.36c10.94,0,20.76,3.08,29.32,8.66v17.46s-9.83-12.18-29.48-12.18c-21.4,0-35.82,15.99-35.82,33.74,0,19.8,15.53,33.3,36.14,33.3,12.05,0,22.03-5.28,29.32-12.91v17.6c-3.01,1.76-14.42,9.24-31.22,9.24-27.26,0-49.77-21.12-49.77-47.38s22.03-47.53,51.51-47.53Z" style="fill:#0099ae;"/><path d="m306.34,12.36c14.1,0,23.61,4.84,32.65,14.67v-12.47h14.74v90.08h-15.06v-12.18c-6.02,7.77-18.71,14.67-32.97,14.67-26.79,0-46.28-21.71-46.28-47.09s19.81-47.68,46.92-47.68Zm-31.22,48.26c0,17.46,13.95,33.16,32.81,33.16s32.01-11.88,32.01-35.06c0-18.93-10.3-33.3-32.17-33.3-19.18,0-32.65,15.4-32.65,35.21Z" style="fill:#0099ae;"/><path d="m401.11,12.36c12.84,0,22.82,6.75,27.26,17.6l-12.84,5.28c-1.43-3.37-5.23-10.42-14.74-10.42-7.45,0-13.16,4.84-13.16,11.3,0,7.92,7.29,11.29,15.06,14.52,3.49,1.47,5.71,2.49,9.51,4.11,11.73,4.99,19.34,13.64,19.34,24.94,0,17.46-15.38,27.58-32.49,27.58-14.11,0-25.52-6.75-31.22-18.19l13.15-6.45c1.74,3.67,6.98,11.74,17.75,11.74s17.28-5.58,17.28-13.06c0-6.16-4.28-11.3-10.94-13.94-6.18-2.5-12.2-5.13-15.53-6.6-13.47-5.87-17.44-15.4-17.44-23.77,0-14.08,12.05-24.64,29-24.64Z" style="fill:#0099ae;"/><polygon points="107.79 .37 68.06 34.1 98.42 34.1 98.42 34.11 98.42 104.91 119.58 104.91 119.58 .37 107.79 .37" style="fill:#00c8cd;"/><polygon points="59.95 41 11.56 .52 .37 .37 .37 104.91 21.53 104.91 21.53 33.08 59.95 65.36 89.99 40.86 59.95 41" style="fill:#0099ae;"/></svg>