<svg xmlns="http://www.w3.org/2000/svg" role="img" viewBox="-4.88 53.63 409.50 137.50"><title>Mindtree logo</title><style>svg {enable-background:new 0 0 400 245}</style><style>.st0{fill:#626062}</style><linearGradient id="SVGID_1_" x1="200" x2="200.707" y1="122.5" y2="121.793" gradientUnits="userSpaceOnUse"><stop offset="0" stop-color="#2fa84c"/><stop offset=".983" stop-color="#19361b"/></linearGradient><path d="M317.5 109.4c0 1.3-.9 2.2-2.2 2.2h-17.8v.9c0 5.3 2.1 9.4 7.4 9.4 3.2 0 5.3-.5 8.2-1.8.3-.1.6-.2 1-.2 1.4 0 2.3 1.3 2.3 2.6 0 1-.5 1.6-1.3 2.1-2.8 1.7-7.1 2.4-10.3 2.4-8.7 0-12.9-6.1-12.9-14.4v-5c0-8.2 4.3-14.4 12.9-14.4 8.7 0 12.8 5.4 12.8 13.7v2.5zm-5.6-3.4c0-4.9-1.7-8.3-7.1-8.3-5 0-7.3 3.9-7.3 8.8v.6H312V106zm37.6 3.4c0 1.3-.9 2.2-2.2 2.2h-17.8v.9c0 5.3 2.1 9.4 7.4 9.4 3.2 0 5.3-.5 8.2-1.8.3-.1.6-.2 1-.2 1.4 0 2.3 1.3 2.3 2.6 0 1-.5 1.6-1.3 2.1-2.8 1.7-7.1 2.4-10.3 2.4-8.7 0-12.9-6.1-12.9-14.4v-5c0-8.2 4.3-14.4 12.9-14.4 8.7 0 12.8 5.4 12.8 13.7v2.5zm-5.6-3.4c0-4.9-1.7-8.3-7.1-8.3-5 0-7.3 3.9-7.3 8.8v.6h14.4V106zM151.6 80.7c0-1.6-1.3-2.7-2.8-2.7-1.2 0-2.2.5-2.7 1.6l-14.6 30.7-14.6-30.6c-.6-1.2-1.5-1.8-2.9-1.8-1.6 0-2.8 1.1-2.8 2.7V124c0 1.5 1.2 2.7 2.7 2.7 1.5 0 2.7-1.2 2.7-2.7V91l12.1 25.7c.5 1.1 1.5 1.7 2.7 1.7 1.2 0 2.2-.6 2.7-1.7l12.1-25.8v33c0 1.5 1.2 2.7 2.7 2.7 1.5 0 2.7-1.2 2.7-2.7V80.7zm16.2 1.9c0-1.9-1.6-3.3-3.4-3.3-1.8 0-3.3 1.5-3.3 3.3 0 1.8 1.5 3.3 3.3 3.3 1.9 0 3.4-1.4 3.4-3.3zm-.5 41.3v-28c0-1.6-1.3-2.9-2.9-2.9-1.6 0-2.8 1.3-2.8 2.9V124c0 1.6 1.2 2.9 2.8 2.9 1.7-.1 2.9-1.3 2.9-3zm35.8 0v-19c0-7.3-2.8-12-10.7-12-3.8 0-7.5 1-10.2 3.9-.8-2-2.7-3.5-5-3.5-1.6 0-2.7.8-2.8 2.1-.1 1.4.5 1.9 1.7 2.7.9.6 1.4 1.9 1.4 3.7v22c0 1.6 1.3 2.9 2.9 2.9 1.6 0 2.9-1.3 2.9-2.9v-21.4c1.7-2.9 4.7-4.1 7.9-4.1 4.8 0 6.2 2.6 6.2 7.1v18.4c0 1.6 1.2 2.9 2.8 2.9 1.6.1 2.9-1.1 2.9-2.8zm33.5 2.9c-1.9 0-3.8-1.3-4.7-2.9-2.4 1.9-5.5 2.9-8.6 2.9-8.7 0-12.1-5-12.1-13.2v-6c0-8 2.6-14.6 11.7-14.6 2.8 0 5.6.9 7.8 2.6V81.9c0-1.6 1.3-2.8 2.9-2.8 1.6 0 2.8 1.2 2.8 2.8v36.4c0 5.3 2.9 3.2 2.9 6 .1 1.7-1.2 2.5-2.7 2.5zm-5.9-25.8c-1.7-1.8-4.3-3-6.8-3-5.5 0-7 4-7 8.8v7.1c0 5.1 1.8 7.9 7.1 7.9 2.4 0 4.9-1.2 6.7-2.7V101zm30.6 25.4c1.4 0 2.6-1.2 2.6-2.6 0-1.4-1.2-2.6-2.6-2.6H260c-6.1 0-6.3-3.9-6.3-9V98.3h7.7c1.3 0 2.5-1.1 2.5-2.4 0-1.4-1.1-2.5-2.5-2.5h-7.7v-6.7c0-1.6-1.2-2.9-2.8-2.9-1.6 0-2.9 1.3-2.9 2.9v6.7h-2.7c-1.4 0-2.5 1.1-2.5 2.5 0 1.3 1.2 2.4 2.5 2.4h2.7v14c0 8.1 2.1 14.1 11.4 14.1h1.9zm9.1-33c-1.6 0-2.7.8-2.8 2.1-.1 1.4.5 1.9 1.7 2.7.9.6 1.4 1.9 1.4 3.7v22c0 1.6 1.3 2.9 2.9 2.9 1.6 0 2.9-1.3 2.9-2.9v-19.5c0-.3.4-1.4.5-1.8 1.2-3 3.6-4.2 6.7-4.2 1.1 0 2.2.1 3.3.4.3.1.5.1.8.1 1.6 0 2.7-1.4 2.7-2.9 0-2.8-3.6-3.1-5.7-3.1-3.7 0-6.8 1.4-9 4.5-1-2.1-2.9-4-5.4-4z" class="st0"/><radialGradient id="SVGID_2_" cx="68.73" cy="68.004" r="82.152" gradientUnits="userSpaceOnUse"><stop offset="0" stop-color="#e96f23"/><stop offset=".55" stop-color="#cb227e"/><stop offset="1" stop-color="#661d75"/></radialGradient><path fill="url(#SVGID_2_)" d="M45.1 91.5c0 1.8-3.4 3.9-5 3.9-.7 0-1.4-.3-1.4-1.1 0-1.7 3.4-3.9 4.9-3.9.8.1 1.5.3 1.5 1.1zM27.8 65.6c-.2-.3-.6-.6-1.3-.5-1.6.2-3.2 1.2-3.6 2.3-.1.2-.1.7.1 1 .2.3.5.4.8.4 1.3.1 3.2-.9 3.8-2.1.3-.3.4-.7.2-1.1zm58.9 36.5c0-11.6-5.1-24.1-16.4-33-.3-.2-.7-.5-1-.5-.1 0-.2 0-.3.1-.1.1-.1.2 0 .3 9.9 11 5.8 26.9-1.3 35.2-6.3 7.3-14.4 12.4-21.8 16.4-.5.3-1.4.7-1.8 1.1-.7.7-.9 1.3-.6 2 .3.6.9.9 1.9.8.6-.1 1.8-.5 2.6-.9 6.9-3.5 14.1-8.3 19.6-14.5 6.8-7.6 11.1-17.2 9.4-28.8.1.2.2.3.3.4 3.7 9.2.6 20.8-7.6 31-5.8 7.2-14.2 13.8-24.5 18.4-.8.4-2 1-2.4 1.9-.2.4-.2 1 0 1.4.2.3.5.6 1 .6 1.3.1 2.6-.6 3.8-1.2C64 124.5 82 109.6 81 87.5c.1.3.2.4.2.6 1.8 9.1-.2 17.1-4 23.8-3.2 5.8-7.7 10.6-12.2 14.3-2.4 2-3.4 3.1-2.8 4.2.6 1 2.1.5 3.1 0 1.8-1.1 3.4-2.7 4.7-3.9 7.4-7.5 12.9-15.6 14.2-29 .1.6.2 1.4.2 1.8.3 6.8-1.1 13-3.6 18.4-3.8 8.1-10.2 14.5-17.8 18.6-1.6.9-2.2 1.8-1.8 2.7.2.5.7.8 1.3.8.7.1 1.3-.1 1.9-.5 13.7-7.3 22.3-21.3 22.3-37.2zM48.5 61.7c-1.5-.2-4.7.8-4.5 2.2.1.6.6.9 1.2.9 1.3.1 4.6-.7 4.5-2.2-.1-.6-.7-.9-1.2-.9zm12.9 2.8c-1.1-.1-3.5.6-3.6 1.9-.1.7.9 1 1.4 1 1.1.1 3.5-.5 3.6-1.9.1-.7-.8-1-1.4-1zM47.9 77.9c-1.7-.1-5.3 2-5.4 3.9 0 .7.6 1 1.2 1 1.7.1 5.3-2 5.4-3.9 0-.7-.6-1-1.2-1zm7.2-3.7c-1.4-.1-4.4 1.2-4.5 2.8-.1.6.5 1 1.1 1 1.4.1 4.4-1.2 4.5-2.8 0-.6-.6-.9-1.1-1zM66.6 93c-1.2 0-2.4 1.5-2.4 2.6 0 .6.4 1.1 1 1.1 1.2 0 2.4-1.5 2.4-2.6 0-.6-.4-1.1-1-1.1zm-4.9-21.5c-1.1-.1-3.1.8-3.2 2-.1.6.5.8 1 .9 1.1.1 3.1-.8 3.2-2 0-.6-.5-.9-1-.9zm3.8 7.8c-1.1 0-2.3 1.7-2.3 2.7 0 .5.3.9.8.9 1.1 0 2.3-1.7 2.3-2.7 0-.5-.3-.9-.8-.9zm-4.1 19.1c-.6.3-1.3.8-1.9 1.4-.6.6-1 1.3-1.2 2-.1.5-.1 1.1.2 1.4.3.4.9.4 1.3.4.7-.1 1.6-.7 2.3-1.4.7-.7 1.2-1.6 1.4-2.4.1-.7-.1-1.1-.3-1.3-.5-.4-1-.4-1.8-.1zm-1.2-12.7l-.9 1.2c-.2.4-.4.8-.4 1.2 0 .6.3 1.1.9 1.1.4 0 .8-.2 1.2-.4.4-.3.8-.6 1.2-1 .4-.4.7-.8.9-1.3.2-.4.4-.9.4-1.2 0-.6-.4-.9-1-.9-.8 0-1.7.6-2.3 1.3zm-21.1 47.8c-1-.1-3.5.7-4.5 1.6-.5.4-.7 1-.6 1.4.2.6.7.7 1.2.8 1 .1 3.4-.5 4.6-1.6.4-.3.6-.9.5-1.3-.1-.6-.7-.9-1.2-.9zm1.1-9.6c-1.1 0-3.6.9-4.7 1.9-.5.5-.7 1.1-.5 1.5.3.7.8.7 1.3.7 1.1 0 3.5-.7 4.7-1.9.4-.4.6-.9.5-1.4-.1-.6-.7-.8-1.3-.8zm18.2 8c-1 .1-3.3 1.3-4.2 2.4-.4.5-.6 1.1-.3 1.5.3.6.8.6 1.3.5 1-.1 3.3-1.2 4.2-2.4.3-.4.4-1 .3-1.4-.1-.5-.8-.7-1.3-.6zm-8.7 5c-.9 0-3.1.8-4 1.6-.4.4-.6.9-.5 1.3.2.6.7.6 1.1.6.9 0 3.1-.6 4.1-1.7.3-.3.5-.8.4-1.2-.1-.4-.7-.6-1.1-.6zm-20-.2c-.5 0-1.5.1-2.4.7-.4.2-.7.6-.7 1.1 0 .6.5.8 1.1.8.8.1 1.8-.1 2.6-.5.4-.2.8-.7.8-1.2-.1-.7-.7-.9-1.4-.9zm10.4 3.8c-.5 0-1.4.2-2.2.7-.4.2-.7.6-.6 1.1.1.6.5.7 1.1.8.8 0 1.7-.1 2.4-.6.4-.2.7-.7.6-1.2-.1-.6-.7-.8-1.3-.8zm9-53.1c-.4 0-.7.1-1 .2-.7.3-1.7 1.1-1.7 2 0 .6.5.8 1 .8 1.1 0 2.7-1 2.7-2.2 0-.6-.5-.8-1-.8zm7.8 52.3c-.7 0-2 .3-2.8.8-.6.4-.9 1-.8 1.5.1.6.7.9 1.4.9.9 0 2.1-.4 2.8-.9.5-.4.9-.9.7-1.4-.2-.7-.8-.9-1.3-.9zm-36.7-3.5c.5.4 1.4.9 2.2 1.2.1.1.3 0 .3-.1.1-.1.1-.2 0-.4-.5-.6-.9-1.1-1.1-1.6-.1-.4 0-1.1 0-1.3 1-4.7 5.7-7.8 10.6-11.3 3-2.1 16.1-9.2 22.1-14 1.9-1.6 2.7-2.5 2.8-3.3 0-.4-.1-.9-.4-1.1-.2-.2-.4-.3-.7-.3-1-.1-2.1.3-3.5 1.3-6.8 5.5-17.1 10.9-24.4 16.6-4.2 3.3-7.4 6.8-8.3 10.4-.1-.1-.2-.1-.2-.2 1.1-13.5 19-22.3 28.2-30 2.3-1.9 9.3-7.3 10.3-9.8.4-.8.2-1.6-.3-1.9-.4-.2-.9-.4-1.4-.2-1.1.2-2.4 1.3-3.8 2.6-11.4 10.8-20.9 15.6-27.4 22.5-3.6 3.8-6.3 8.3-7.9 14.9l-.2-.2c.6-9.9 6.9-19.5 14.5-26.3 2.7-2.4 4.4-3.8 5.5-4.8.7-.6 1.1-1.5.6-2.3-.4-.6-1.1-.7-1.8-.6-1.1.2-1.8.7-2.6 1.4-5.3 4.2-9.8 9.4-13.1 15.3-2.6 4.7-4.4 9.7-5.3 15.1 0 0-.2-.2-.2-.3.6-15 7.5-26 17.1-34.7 2.3-2.1 4.4-3.5 6.8-5.4 1.9-1.5 2.3-2.8 1.8-3.6-.5-.7-1.3-.7-2.3-.4-2 .6-4.1 2.5-6.7 4.8-6 5.4-10.9 11.1-14.2 18.1-2.5 5.3-4.1 11.4-4.5 18.5 0 0-.2-.2-.2-.3-.2-1.8-.1-4.2 0-5.9.5-7 1.6-21.7 21.6-38 3.6-2.9 9.5-6.3 13.7-8.5 1.3-.7 2.5-1.2 3.7-2 .7-.5 1.1-1.2.9-1.9-.2-.7-.9-.8-1.5-.8-1.4 0-2.5.6-3.6 1.2C38.1 73.1 27.5 80 20 90.3c-5.7 7.8-9.6 17.7-9.7 30.1l-.2-.4c-.5-3-.6-6.1-.6-8.2.4-19.4 11.9-33 27.7-42.3 1.3-.8 2.7-1.6 2.7-2.8 0-.8-.6-1.2-1.3-1.2-.7 0-1.4.2-2.4.8-9.6 5.1-17.6 12.3-22.7 21.1-4.3 7.4-6.5 16-6.2 25.4 0-.1-.1-.3-.2-.6-.8-3.1-1.3-6.4-1.3-9.6 0-4.4.9-8.7 2.4-12.8 2-5.2 5-10 8.8-14.1 1.2-1.4 3.8-3.5 4.5-4.2.5-.6.8-1.3.5-1.9-.2-.4-.6-.6-1.1-.6-2.1 0-5.3 3.2-6.7 4.7C7.1 81.5 3 91.6 3 102.1c0 12.3 5.2 25.2 17.2 34.1zm12.9-73.1c-.1-.2-.4-.4-.9-.4-1.1 0-2.4.6-2.7 1.3-.1.2-.2.5 0 .7.1.2.3.3.6.4.9.2 2.4-.4 2.9-1.2.1-.2.2-.5.1-.8z"/><path d="M111 151.8c.3 0 .6-.1 1-.1h1.1c.5 0 .9 0 1.4.1l.4 19.3 7.8-19.3c.3 0 .6-.1.9-.1H125.3c.3 0 .6 0 .8.1l1.3 19.5 7-19.5c.5-.1 1.1-.1 1.7-.1h.9c.3 0 .6 0 .8.1l-9.3 23.6c-.3 0-.6.1-.9.1h-2c-.4 0-.7 0-1-.1l-1.3-18.1-7.5 18.1c-.3 0-.6.1-1 .1h-1.9c-.3 0-.6 0-.9-.1l-1-23.6zm28.7 16.9c.1 1.5.4 2.6 1.1 3.3.7.7 1.7 1.1 3.2 1.1.9 0 1.7-.1 2.5-.3.8-.2 1.5-.4 2.1-.7.2.3.3.7.4 1.2.1.5.1.9.1 1.4-.3.2-.7.3-1.2.4l-1.5.3c-.5.1-1 .2-1.6.2-.5.1-1 .1-1.4.1-1.3 0-2.4-.2-3.3-.5-.9-.3-1.6-.8-2.2-1.4-.6-.6-1-1.3-1.2-2.1-.3-.8-.4-1.7-.4-2.7 0-1.3.2-2.7.7-4 .4-1.3 1.1-2.5 1.9-3.5.8-1 1.9-1.9 3-2.5 1.2-.6 2.5-1 3.9-1s2.6.4 3.4 1.1c.8.7 1.3 1.7 1.3 2.8 0 1-.2 1.8-.7 2.5-.5.7-1.1 1.3-2 1.8-.8.5-1.8.9-2.9 1.2-1.1.3-2.4.6-3.7.8l-1.5.5zm2.1-2.7c1.1-.2 2-.4 2.8-.7.7-.3 1.3-.5 1.8-.8.4-.3.7-.6.9-.9.2-.3.3-.7.3-1.1 0-.5-.2-.9-.5-1.2-.3-.3-.9-.5-1.5-.5-.7 0-1.3.2-1.9.5-.6.3-1.1.7-1.6 1.2s-.9 1.1-1.2 1.8c-.3.7-.6 1.4-.8 2.1l1.7-.4zm13.9-7.9c.2-1.2.4-2.3.5-3.2.1-.9.2-1.7.2-2.4v-.6-.6c.2 0 .5-.1.9-.1h1.6c.3 0 .5.1.8.1 0 .2.1.4.1.6v1.5c0 .3-.1.7-.1 1.1 0 .4-.1.8-.2 1.1-.1.4-.1.8-.2 1.1l-2.6 13.9c-.1.4-.1.7-.1.9 0 .3 0 .6.1.8.1.2.2.4.4.5.2.1.3.2.5.2h.5c.2 0 .4 0 .7-.1.3 0 .5-.1.6-.1.2.6.3 1.2.3 2v.4c-.3.1-.7.2-1.2.2-.5.1-.9.1-1.4.1-.6 0-1.1-.1-1.6-.2s-.9-.3-1.2-.6c-.3-.3-.6-.7-.8-1.1-.2-.5-.3-1.1-.3-1.8 0-.4 0-.9.1-1.3.1-.5.2-.9.3-1.3l2.1-11.1zm17.7 14.4c.2.3.3.7.4 1.1.1.4.1.9.1 1.5-.6.3-1.4.5-2.2.6-.8.1-1.6.2-2.3.2-2.4 0-4.2-.6-5.3-1.8-1.1-1.2-1.7-2.8-1.7-5 0-1.3.2-2.6.6-3.9.4-1.3 1.1-2.5 1.9-3.5.8-1 1.9-1.9 3.1-2.5 1.2-.6 2.6-1 4.2-1 .7 0 1.4.1 2.1.2.7.1 1.2.3 1.7.5 0 .4-.1.9-.3 1.4-.2.5-.3.9-.6 1.3-.4-.2-.9-.3-1.4-.4-.5-.1-1.1-.2-1.6-.2-1.1 0-2 .2-2.8.7-.8.5-1.4 1.1-2 1.8-.5.8-.9 1.6-1.2 2.5-.3.9-.4 1.9-.4 2.8 0 1.5.4 2.6 1.1 3.3.7.7 1.7 1.1 3 1.1.6 0 1.1-.1 1.7-.1.7-.2 1.3-.4 1.9-.6zm9.8 3.3c-2 0-3.6-.6-4.6-1.7-1-1.1-1.5-2.7-1.5-4.8 0-1.2.2-2.5.6-3.8.4-1.3.9-2.5 1.7-3.6.8-1.1 1.8-2 2.9-2.7 1.2-.7 2.6-1.1 4.2-1.1 2.1 0 3.6.6 4.6 1.7 1 1.1 1.5 2.7 1.5 4.8 0 1.2-.2 2.5-.6 3.8-.4 1.3-.9 2.5-1.7 3.6-.8 1.1-1.7 2-2.9 2.7-1.2.8-2.6 1.1-4.2 1.1zm.3-2.6c1 0 1.9-.3 2.6-.8.7-.6 1.3-1.3 1.8-2.1.5-.9.8-1.8 1-2.8.2-1 .3-1.9.3-2.8 0-1.3-.3-2.2-.8-2.9-.6-.7-1.4-1-2.4-1s-1.9.3-2.6.9c-.7.6-1.3 1.3-1.8 2.1-.5.9-.8 1.8-1 2.8-.2 1-.3 1.9-.3 2.8 0 1.2.3 2.2.8 2.9.6.6 1.4.9 2.4.9zm13-7.5c.2-1.3.4-2.4.6-3.4.1-.9.2-1.8.2-2.5v-.7c0-.2 0-.4-.1-.6.2 0 .5-.1.8-.1h1.5c.3 0 .5.1.8.1 0 .2.1.4.1.6V160.8c0 .2-.1.5-.1.8.6-.9 1.3-1.7 2.3-2.3 1-.6 2.1-1 3.3-1 1.2 0 2.1.3 2.7.9.6.6 1 1.4 1.1 2.5.7-1 1.5-1.8 2.5-2.5 1-.6 2.1-1 3.3-1 2.6 0 3.9 1.4 3.9 4.3 0 .3 0 .7-.1 1.1 0 .4-.1.8-.2 1.2l-1.9 10.7c-.2 0-.5.1-.8.1h-1.6c-.3 0-.6-.1-.8-.1l1.8-10.1c.1-.4.1-.7.1-1v-.9c0-.8-.2-1.4-.5-1.8-.3-.4-.9-.6-1.6-.6-.5 0-.9.1-1.4.3-.5.2-1 .6-1.4 1.1-.4.5-.9 1.2-1.2 2.1-.4.9-.7 1.9-.9 3.2l-1.3 7.7c-.3 0-.5.1-.9.1h-1.6c-.3 0-.6-.1-.8-.1l1.8-10.1c.1-.4.1-.7.1-1v-.9c0-.8-.2-1.4-.5-1.8-.3-.4-.9-.6-1.6-.6-.5 0-.9.1-1.4.3-.5.2-1 .6-1.4 1.1-.4.5-.9 1.3-1.2 2.2-.4.9-.7 2.1-.9 3.4l-1.3 7.3c-.3 0-.5.1-.9.1h-1.6c-.3 0-.5-.1-.8-.1l1.9-9.7zm29 3c.1 1.5.4 2.6 1.1 3.3.7.7 1.7 1.1 3.2 1.1.9 0 1.7-.1 2.5-.3.8-.2 1.5-.4 2.1-.7.2.3.3.7.4 1.2.1.5.1.9.1 1.4-.3.2-.7.3-1.2.4l-1.5.3c-.5.1-1 .2-1.6.2-.5.1-1 .1-1.4.1-1.3 0-2.4-.2-3.3-.5-.9-.3-1.6-.8-2.2-1.4-.6-.6-1-1.3-1.2-2.1-.3-.8-.4-1.7-.4-2.7 0-1.3.2-2.7.7-4 .4-1.3 1.1-2.5 1.9-3.5.8-1 1.9-1.9 3-2.5 1.2-.6 2.5-1 3.9-1s2.6.4 3.4 1.1c.8.7 1.3 1.7 1.3 2.8 0 1-.2 1.8-.7 2.5-.5.7-1.1 1.3-2 1.8-.8.5-1.8.9-2.9 1.2-1.1.3-2.4.6-3.7.8l-1.5.5zm2.1-2.7c1.1-.2 2-.4 2.8-.7.7-.3 1.3-.5 1.8-.8.4-.3.7-.6.9-.9.2-.3.3-.7.3-1.1 0-.5-.2-.9-.5-1.2-.4-.3-.9-.5-1.5-.5-.7 0-1.3.2-1.9.5-.6.3-1.1.7-1.6 1.2s-.9 1.1-1.2 1.8c-.3.7-.6 1.4-.8 2.1l1.7-.4zm21.5-4.8h-2.7c0-.4 0-.9.1-1.3s.2-.8.4-1.3h2.6c.1-.6.2-1.2.3-1.7.1-.6.1-1.2.1-1.8v-.5c.4-.2 1-.4 1.6-.5.6-.1 1.1-.2 1.6-.2v1.2c0 .7-.1 1.5-.3 2.5l-.2 1h4.2c0 .5 0 .9-.1 1.3s-.2.8-.3 1.3h-4.2l-1.3 7.1c-.1.5-.2 1-.3 1.6-.1.5-.1 1-.1 1.5 0 .7.2 1.1.5 1.4.3.3.8.4 1.4.4.4 0 .7 0 1-.1.3-.1.6-.1.9-.2.1.2.1.5.2.7 0 .3.1.5.1.9v1c-.3.1-.7.2-1.1.2-.5.1-1 .1-1.5.1-.7 0-1.3 0-1.9-.1-.6-.1-1.1-.3-1.5-.6-.4-.3-.7-.6-1-1.1-.2-.5-.3-1.1-.3-1.9 0-.4 0-.9.1-1.3.1-.5.2-1 .2-1.5l1.5-8.1zm14.7 14.6c-2 0-3.6-.6-4.6-1.7-1-1.1-1.5-2.7-1.5-4.8 0-1.2.2-2.5.6-3.8.4-1.3.9-2.5 1.7-3.6.8-1.1 1.8-2 2.9-2.7 1.2-.7 2.6-1.1 4.2-1.1 2.1 0 3.6.6 4.6 1.7 1 1.1 1.5 2.7 1.5 4.8 0 1.2-.2 2.5-.6 3.8-.4 1.3-.9 2.5-1.7 3.6-.8 1.1-1.7 2-2.9 2.7-1.2.8-2.6 1.1-4.2 1.1zm.3-2.6c1 0 1.9-.3 2.6-.8.7-.6 1.3-1.3 1.8-2.1.5-.9.8-1.8 1-2.8.2-1 .3-1.9.3-2.8 0-1.3-.3-2.2-.8-2.9-.6-.7-1.4-1-2.4-1s-1.9.3-2.6.9c-.7.6-1.3 1.3-1.8 2.1-.5.9-.8 1.8-1 2.8-.2 1-.3 1.9-.3 2.8 0 1.2.3 2.2.8 2.9.6.6 1.4.9 2.4.9zm18.3-7.5c.2-1.3.4-2.4.6-3.4.1-.9.2-1.8.2-2.5v-.7-.6c.2 0 .5-.1.8-.1h1.5c.3 0 .5.1.8.1 0 .2.1.4.1.6v1.6c0 .2-.1.4-.1.7.6-.9 1.4-1.7 2.3-2.3.9-.6 2.1-.9 3.4-.9 1.5 0 2.7.5 3.6 1.6.9 1.1 1.3 2.6 1.3 4.5 0 1.6-.2 3-.7 4.4-.5 1.4-1.2 2.6-2.1 3.7-.9 1.1-2.1 1.9-3.5 2.5-1.4.6-3 .9-4.9.9h-.9c-.3 0-.5-.1-.8-.1l-1.3 7.5c-.3 0-.5.1-.9.1h-1.6c-.3 0-.6-.1-.8-.1l3-17.5zm2 7.2c.2.1.5.1.9.2h1c1 0 1.9-.2 2.8-.6.9-.4 1.6-1 2.2-1.7.6-.7 1.1-1.6 1.5-2.6.4-1 .5-2.1.5-3.3 0-1.2-.3-2.1-.8-2.8-.5-.7-1.2-1-2.2-1-.6 0-1.1.1-1.6.4-.5.2-1 .6-1.5 1.1-.4.5-.8 1.2-1.2 2.1-.3.8-.6 1.9-.8 3.1l-.8 5.1zm21.1 2.9c-2 0-3.6-.6-4.6-1.7-1-1.1-1.5-2.7-1.5-4.8 0-1.2.2-2.5.6-3.8.4-1.3.9-2.5 1.7-3.6.8-1.1 1.8-2 2.9-2.7 1.2-.7 2.6-1.1 4.2-1.1 2.1 0 3.6.6 4.6 1.7 1 1.1 1.5 2.7 1.5 4.8 0 1.2-.2 2.5-.6 3.8-.4 1.3-.9 2.5-1.7 3.6-.8 1.1-1.7 2-2.9 2.7-1.2.8-2.6 1.1-4.2 1.1zm.3-2.6c1 0 1.9-.3 2.6-.8.7-.6 1.3-1.3 1.8-2.1.5-.9.8-1.8 1-2.8.2-1 .3-1.9.3-2.8 0-1.3-.3-2.2-.8-2.9-.6-.7-1.4-1-2.4-1s-1.9.3-2.6.9c-.7.6-1.3 1.3-1.8 2.1-.5.9-.8 1.8-1 2.8-.2 1-.3 1.9-.3 2.8 0 1.2.3 2.2.8 2.9.6.6 1.4.9 2.4.9zm15.8-5.7c-.3-.1-.7-.3-1.1-.5-.4-.2-.7-.5-1-.8-.3-.3-.6-.7-.8-1.2-.2-.5-.3-1-.3-1.7 0-.8.2-1.5.5-2.2.3-.6.8-1.2 1.4-1.6.6-.5 1.3-.8 2.1-1 .8-.2 1.7-.4 2.7-.4.9 0 1.8.1 2.6.3.8.2 1.4.4 1.9.7-.2.9-.5 1.7-1 2.5-.4-.2-.9-.4-1.5-.5-.7-.2-1.4-.3-2.1-.3-.9 0-1.7.2-2.4.5-.6.3-.9.9-.9 1.7 0 .5.1.9.4 1.3.3.3.8.7 1.6 1l.7.3c.4.2.8.4 1.3.6.5.2.9.5 1.2.8.4.3.7.7.9 1.2.2.4.3 1 .3 1.7 0 1.1-.2 2-.6 2.7-.4.8-.9 1.4-1.6 1.9-.7.5-1.5.9-2.4 1.1-.9.2-1.9.4-2.9.4-.9 0-1.7-.1-2.6-.2-.8-.2-1.5-.3-2.1-.6 0-.5.1-.9.2-1.4.1-.4.3-.9.5-1.2.6.2 1.2.4 2 .6.8.1 1.5.2 2.1.2.5 0 1.1-.1 1.5-.2.5-.1.9-.3 1.2-.5.3-.2.6-.5.8-.8.2-.4.3-.8.3-1.3 0-.7-.2-1.2-.6-1.5-.4-.3-1-.7-1.7-.9l-.6-.7zm14.3 0c-.3-.1-.7-.3-1-.5-.4-.2-.7-.5-1-.8-.3-.3-.6-.7-.8-1.2-.2-.5-.3-1-.3-1.7 0-.8.2-1.5.5-2.2.3-.6.8-1.2 1.4-1.6.6-.5 1.3-.8 2.1-1 .8-.2 1.7-.4 2.7-.4.9 0 1.8.1 2.6.3.8.2 1.4.4 1.9.7-.2.9-.5 1.7-1 2.5-.4-.2-.9-.4-1.5-.5-.7-.2-1.4-.3-2.1-.3-.9 0-1.7.2-2.3.5-.6.3-.9.9-.9 1.7 0 .5.2.9.4 1.3.3.3.8.7 1.6 1l.7.3c.4.2.8.4 1.3.6.5.2.9.5 1.2.8.4.3.7.7.9 1.2.2.4.3 1 .3 1.7 0 1.1-.2 2-.6 2.7-.4.8-.9 1.4-1.6 1.9-.7.5-1.5.9-2.4 1.1-.9.2-1.9.4-2.9.4-.9 0-1.7-.1-2.6-.2-.8-.2-1.5-.3-2.1-.6 0-.5.1-.9.2-1.4.1-.4.3-.9.5-1.2.6.2 1.2.4 2 .6.8.1 1.5.2 2.1.2.5 0 1.1-.1 1.5-.2.5-.1.9-.3 1.2-.5.4-.2.6-.5.8-.8.2-.4.3-.8.3-1.3 0-.7-.2-1.2-.6-1.5-.4-.3-1-.7-1.7-.9l-.8-.7zm13.2-6.3h-2c0-.4 0-.9.1-1.3s.2-.9.3-1.3h5.3l-3 16.9c-.2 0-.5.1-.8.1h-1.6c-.3 0-.5 0-.8-.1l2.5-14.3zm-.1-6.1c0-.6.1-1.2.2-1.8.1-.6.2-1.1.4-1.7.3 0 .6-.1 1-.1h1.8c.3 0 .7.1.9.1 0 .6-.1 1.2-.2 1.8-.1.6-.3 1.2-.4 1.7-.3 0-.6.1-1 .1h-1.8c-.3 0-.6-.1-.9-.1zm9.3 3c.2-1.2.4-2.2.5-3.1.1-.9.2-1.7.2-2.4v-.7-.6c.2 0 .5-.1.9-.1h1.6c.3 0 .5 0 .8.1v1.2c0 .5-.1 1.2-.2 2s-.2 1.6-.4 2.3l-.8 4.3c.3-.4.6-.8.9-1.1.3-.3.7-.7 1.2-.9.4-.3.9-.5 1.5-.6.5-.2 1.2-.2 1.9-.2 1.5 0 2.7.5 3.6 1.6.9 1.1 1.3 2.6 1.3 4.5 0 1.6-.2 3-.7 4.4-.5 1.4-1.2 2.6-2.1 3.7-1 1.1-2.1 1.9-3.6 2.5-1.4.6-3.1.9-5 .9-.8 0-1.7-.1-2.5-.2-.8-.2-1.5-.3-2.1-.6l3-17zm.6 14.8c.2.1.5.1.9.2.3 0 .7.1 1 .1 1 0 1.9-.2 2.8-.6.9-.4 1.6-1 2.2-1.7.6-.7 1.1-1.6 1.5-2.6.4-1 .5-2.1.5-3.3 0-1.2-.2-2.1-.7-2.8-.5-.7-1.2-1-2.2-1-.6 0-1.1.1-1.6.4-.5.2-1 .6-1.5 1.1-.4.5-.8 1.2-1.2 2.1-.3.8-.6 1.9-.8 3.1l-.9 5zm17.3-14.8c.2-1.2.4-2.3.5-3.2.1-.9.2-1.7.2-2.4v-.6-.6c.2 0 .5-.1.9-.1h1.6c.3 0 .5.1.8.1 0 .2.1.4.1.6v.6c0 .2 0 .5-.1.9 0 .3-.1.7-.1 1.1 0 .4-.1.8-.2 1.1-.1.4-.1.8-.2 1.1l-2.6 13.9c-.1.4-.1.7-.1.9 0 .3 0 .6.1.8.1.2.2.4.4.5.2.1.3.2.5.2h.5c.2 0 .4 0 .7-.1.3 0 .5-.1.6-.1.2.6.3 1.2.3 2v.4c-.3.1-.7.2-1.2.2-.5.1-.9.1-1.4.1-.6 0-1.1-.1-1.6-.2s-.9-.3-1.2-.6c-.3-.3-.6-.7-.8-1.1-.2-.5-.3-1.1-.3-1.8 0-.4 0-.9.1-1.3.1-.5.2-.9.3-1.3l2.2-11.1zm9.8 10.6c.1 1.5.4 2.6 1.1 3.3.7.7 1.7 1.1 3.2 1.1.9 0 1.7-.1 2.5-.3.8-.2 1.5-.4 2.1-.7.2.3.3.7.4 1.2.1.5.1.9.1 1.4-.3.2-.7.3-1.2.4l-1.5.3c-.5.1-1 .2-1.6.2-.5.1-1 .1-1.4.1-1.3 0-2.4-.2-3.3-.5-.9-.3-1.6-.8-2.2-1.4-.6-.6-1-1.3-1.2-2.1-.3-.8-.4-1.7-.4-2.7 0-1.3.2-2.7.7-4 .4-1.3 1.1-2.5 1.9-3.5.8-1 1.9-1.9 3-2.5 1.2-.6 2.5-1 3.9-1s2.6.4 3.4 1.1c.8.7 1.3 1.7 1.3 2.8 0 1-.2 1.8-.7 2.5-.5.7-1.1 1.3-2 1.8-.8.5-1.8.9-2.9 1.2-1.1.3-2.4.6-3.7.8l-1.5.5zm2.1-2.7c1.1-.2 2-.4 2.8-.7.7-.3 1.3-.5 1.8-.8.4-.3.7-.6.9-.9.2-.3.3-.7.3-1.1 0-.5-.2-.9-.5-1.2-.4-.3-.9-.5-1.5-.5-.7 0-1.3.2-1.9.5-.6.3-1.1.7-1.6 1.2s-.9 1.1-1.2 1.8c-.3.7-.6 1.4-.8 2.1l1.7-.4z" class="st0"/></svg>