<?xml version="1.0" encoding="utf-8"?>
<!-- Generator: Adobe Illustrator 22.1.0, SVG Export Plug-In . SVG Version: 6.00 Build 0)  -->
<svg version="1.1" id="Layer_1" xmlns="http://www.w3.org/2000/svg" xmlns:xlink="http://www.w3.org/1999/xlink" x="0px" y="0px"
	 viewBox="0 0 954 408" style="enable-background:new 0 0 954 408;" xml:space="preserve">
<style type="text/css">
	.st0{fill:#0194E2;}
	.st1{fill:#43C9ED;}
</style>
<path d="M102,286.9V173.6h25.8V188c6.5-11.6,20.7-17.7,33.5-17.7c14.9,0,27.9,6.7,34,20c8.8-14.9,22.1-20,36.8-20
	c20.5,0,40,13,40,43.1v73.5H246v-69.1c0-13.3-6.7-23.3-21.9-23.3c-14.2,0-23.5,11.2-23.5,25.1v67.3h-26.5v-69.1
	c0-13-6.5-23.3-21.9-23.3c-14.4,0-23.5,10.7-23.5,25.1v67.3H102z"/>
<path d="M305.1,286.9V118.4h27v168.5H305.1z"/>
<path class="st0" d="M321.3,348.6c6.1,1.7,11.5,2.7,23.1,2.7c21.5,0,46.9-12.1,53.6-46.2l27.6-136.7h40.1l6-22.7h-41.5l5.5-27.2
	c4.3-21.1,15.9-31.8,34.7-31.8c4.9,0,3.5,0.4,7.9,1.3l6-23.3c-5.7-1.7-10.9-2.7-22.1-2.7c-12.4,0-23.9,3.7-33,10.8
	c-10.5,8.1-17.4,20-20.6,35.5l-7.8,37.4H364l-3,22.7h35.2l-25.3,126.4c-2.7,14.3-10.9,31.5-34.3,31.5c-5.3,0-3.4-0.4-8.2-1.2
	L321.3,348.6z"/>
<path class="st1" d="M625.7,180.8c-14.2-10.1-32.2-13.3-48.9-8.7c-24.7,7-42.8,30-42.4,56.9c0.2,13.3,4.8,25.4,12.3,35.1l17.7-13
	c-5-6.1-8-13.9-8.1-22.4c-0.2-20.2,15.9-36.7,36.1-37l-0.4,13.8L625.7,180.8z"/>
<polygon class="st0" points="491,286 464,286 501,116 528,116 "/>
<path class="st0" d="M638.7,193.7c-0.6-0.8-1.2-1.6-1.8-2.4l-17,12.5c5.8,6.4,9.4,14.8,9.5,24.1c0.2,20.2-15.9,36.7-36.1,37
	l0.4-13.8l-34.1,25c19.7,13.3,46.5,13.6,66.8-1.3C652.1,255.8,657.7,219.5,638.7,193.7z"/>
<polygon class="st0" points="671.5,173.6 701,173.6 707,251 749,173.6 777,174 788,251 825,173.6 852,174 796,287 769,287 756,206 
	713,287 685,287 "/>
<g>
	<g>
		<path class="st0" d="M863.3,174.6h-5.6v-2h13.5v2h-5.6V191h-2.3V174.6z"/>
		<path class="st0" d="M874.5,172.6h2.8l3.5,9.8c0.4,1.3,0.9,2.6,1.3,3.8h0.1c0.4-1.3,0.8-2.6,1.3-3.8l3.5-9.8h2.8V191h-2.2v-10.1
			c0-1.6,0.2-3.8,0.3-5.4h-0.1l-1.5,4.2l-3.5,9.5h-1.5l-3.5-9.5l-1.5-4.2h-0.1c0.1,1.6,0.3,3.8,0.3,5.4V191h-2.1V172.6z"/>
	</g>
</g>
</svg>
