<svg xmlns="http://www.w3.org/2000/svg" role="img" viewBox="-2.27 23.23 404.04 189.04"><title>Mobilise Cloud Services logo</title><defs><style>.cls-1{fill:#0d2562}</style></defs><path d="M87.23726 163.68057c-.25346-6.93415-3.72308-12.59283-10.3878-15.35395-7.86153-3.257-15.61515-3.15428-22.65076 2.40049-1.904 1.50318-3.65123 2.50541-6.05409.66313-9.00551-6.90467-17.313-6.93055-26.51789-.09563-1.53993 1.14343-2.61938.97724-3.21874-.57993-1.15308-2.99591-3.369-3.47139-6.14415-3.18295a15.98442 15.98442 0 0 1-3.56348-.00421c-2.41053-.29455-3.08148.77227-3.05485 3.057.09589 8.22659.03769 16.45494.03722 24.68267-.00048 8.32676.06044 16.65434-.03946 24.97994-.02812 2.338.80432 3.18485 3.11713 3.11449 3.96147-.12055 7.93278-.13359 11.89316.004 2.4246.08414 3.33936-.74266 3.30662-3.24312-.113-8.62274-.06676-17.24792-.0237-25.87195a30.57327 30.57327 0 0 1 .43656-5.32141c.79781-4.36631 3.909-6.869 7.84367-6.488 3.72342.36057 5.27048 2.53625 5.27673 7.51007.01243 9.91287.10751 19.8275-.05929 29.73752-.05012 2.97695 1.01391 3.88859 3.81144 3.67642 2.36551-.17943 4.7554-.028 7.13443-.03878 8.31935-.03735 7.31372.89255 7.34279-7.22727q.04085-11.44918.0089-22.89859a16.8511 16.8511 0 0 1 .789-5.55124c1.25447-3.65706 4.44849-5.7194 7.99084-5.16812 3.42772.53341 4.88954 2.46684 4.91182 6.90616q.07752 15.46364-.0159 30.92781c-.01467 2.11.58849 3.10334 2.85539 3.04392 4.16053-.10914 8.32649-.06785 12.48919-.01345 1.78055.02323 2.78693-.47093 2.77158-2.50141-.09375-12.38898.1661-24.789-.28636-37.16361zm63.87116-13.34473q-.00805 4.3868-.01039 8.77358.00009 17.547-.00469 35.09384.01212-17.547.00475-35.09384 0-4.38669.01033-8.77358z" class="cls-1"/><path d="M190.04962 147.828c-7.224-2.58243-14.35579-2.27708-21.05759 1.89669-.7212.44913-1.46366 1.32436-2.35519.596-.75271-.61491-.16266-1.47595.081-2.19362.53626-1.57958 1.278-3.10511 1.66183-4.718 1.62754-6.83913.80935-13.80927.94851-20.727.03573-1.77553-1.25841-1.94172-2.68539-1.92746-4.06416.04055-8.13517.15084-12.19117-.03572-2.55059-.11736-3.44687.5999-3.41427 3.29752.10595 8.77215.087 17.54573.071 26.31937q-.00805 4.3868-.01033 8.77358 0 17.547-.00475 35.09384c-.001 1.296-.174 2.60885 1.456 3.17914 7.05069 2.46664 13.67065 6.286 21.3046 6.921 11.37055.9458 21.39174-1.59168 27.706-12.02 4.80329-7.93291 5.12419-16.73739 3.352-25.58473-1.74457-8.70939-6.06187-15.72461-14.86225-18.87061zm-4.40762 36.6584c-1.73335 3.03821-4.77626 3.93165-8.12532 3.89327a8.33073 8.33073 0 0 1-.8806-.1217c-7.25742-.87061-7.6093-1.25611-7.6093-8.34279q0-.88977-.00074-1.7796c.03232-2.14621-.084-4.29853.1128-6.437a17.98525 17.98525 0 0 1 .31812-2.1331 8.30693 8.30693 0 0 1 7.36351-7.02807 8.51474 8.51474 0 0 1 9.24247 4.42336 17.79587 17.79587 0 0 1-.42094 17.52563zm-54.78691-35.92717c-10.353-4.01851-20.62945-3.45162-29.71565 3.55533-7.39774 5.7048-9.614 13.92527-9.77153 21.34488-.1901 18.1749 8.43087 28.73582 23.92934 30.86444 12.86022 1.76622 24.57136-4.47559 28.96742-15.70181a35.82929 35.82929 0 0 0 2.08862-18.03581c-1.33652-10.11326-5.68572-18.21826-15.4982-22.02703zm-3.54413 34.592a9.1902 9.1902 0 0 1-16.69576-.23784 19.24728 19.24728 0 0 1-.25183-14.47573 8.77055 8.77055 0 0 1 8.662-6.01524 8.9294 8.9294 0 0 1 8.55958 5.76415 25.94813 25.94813 0 0 1 1.46324 7.2088c-.3728 2.63773-.54625 5.28488-1.73719 7.75587zm260.69954 6.33344c-.4873-2.767-1.81695-3.01961-4.15435-2.43791-4.90244 1.22017-9.83924 2.31253-14.9656 1.6676a8.57071 8.57071 0 0 1-5.47164-2.67541c-.57858-.63039-1.564-1.23885-1.22106-2.18777.303-.83863 1.369-.54842 2.12875-.68079 6.31054-1.09935 12.79746-1.33285 18.88361-3.54086 11.67168-4.23442 14.71336-18.03432 5.95826-26.89714-5.00941-5.07107-11.37211-6.39788-18.17755-6.4101-11.49253.02818-19.91389 4.61957-24.45427 13.22424-3.77728 7.15854-4.29453 14.82142-3.04956 22.54318 1.67508 10.389 7.30686 17.73827 17.71667 20.95 9.63584 2.97288 18.96884.93235 28.28411-1.53266 1.3118-.34712 1.422-1.34263 1.0379-2.61279a81.92374 81.92374 0 0 1-2.51527-9.40959zm-27.22286-20.22916c1.352-4.83337 4.81449-7.48406 10.00129-7.47849 3.95359.00421 6.28426 1.40056 6.39211 3.82958.11335 2.55173-1.75107 3.97-5.86759 4.52713-2.92813.39636-5.86529.75815-8.76787 1.299-2.16897.40413-2.24829-.42424-1.75794-2.17722z" class="cls-1"/><path fill="#18a6c4" d="M306.127 65.31568c-3.7514-17.32785-18.27128-31.29944-35.07421-33.74984-18.73011-2.73144-35.92384 5.45887-44.95672 21.48675a3.67243 3.67243 0 0 1-3.61037 2.29341 30.87027 30.87027 0 0 0-19.92054 53.88806c2.3287 2.031 4.74813 4.02055 7.99784 4.91806a7.93422 7.93422 0 0 1 .02968-2.30058c1.7343-4.88994-.22324-7.96178-3.75249-11.64187-6.57154-6.85237-6.96029-16.94338-2.567-24.79955 3.90646-6.98556 13.447-12.87448 23.24245-10.57722 2.63018.61688 3.47695-.03552 4.34825-2.43 8.41654-23.12944 38.35318-29.77073 55.82549-12.45924 14.33155 14.19972 13.24971 37.35-2.35749 50.51054-.83027.70007-2.27226 1.05249-1.14174 2.71276a13.9877 13.9877 0 0 1 2.21922 7.55564c.9314-.55718 1.60757-.91442 2.2345-1.34358A43.31571 43.31571 0 0 0 306.127 65.31568z"/><path d="M330.88482 171.26535a38.07918 38.07918 0 0 0-5.05763-1.64737c-3.3384-.86437-6.71634-1.57653-10.054-2.44368-1.4081-.36587-2.56328-1.15851-2.49836-2.86483.06968-1.83305 1.56085-2.11062 2.89437-2.44239a7.91543 7.91543 0 0 1 2.07069-.0849 59.27112 59.27112 0 0 1 14.32129 2.20754c1.93343.53226 3.11571.154 3.62168-2.111.72813-3.25955 1.82517-6.43673 2.76472-9.649.46516-1.59053.15831-2.57076-1.71175-3.00026-6.25811-1.43743-12.48946-2.97648-19.72862-2.88757a27.987 27.987 0 0 0-7.50864.6799c-8.1188 1.72629-13.79439 7.82833-14.35083 14.92567-.82993 10.58687 4.06517 15.07461 12.505 17.74194 3.6606 1.15688 7.438 1.94328 11.15817 2.91359 2.13874.55786 4.68355 1.1255 4.195 3.9739-.47222 2.753-3.07687 2.59975-5.27945 2.58582-.39133-.00244-.78-.13963-1.17324-.16686a81.56673 81.56673 0 0 1-16.03168-2.82714c-1.79726-.49483-2.52586.00734-2.95591 1.6907-.65885 2.579-1.52871 5.10428-2.18322 7.68434-1.42759 5.62772-1.84188 5.026 3.78645 6.27332.95883.21251 1.89512.53009 2.85647.72827 9.0485 1.86578 18.11812 3.34 27.20092.2739a16.53785 16.53785 0 0 0 11.69267-15.52156c.29033-8.03116-2.83522-12.8354-10.5341-16.03233zm-92.08097-47.10965c.09142 10.40437.03858 20.81.03892 31.21516.0002 5.15305-.0269 10.3065-.037 15.45962.01019-5.15312.03736-10.30657.03736-15.45962-.0007-10.40512.05214-20.81079-.03928-31.21516z" class="cls-1"/><path d="M261.59425 190.401c-.31364-.78457-.5256-2.0459-1.5533-1.96114-3.59044.296-3.05031-2.15192-3.05045-4.2914-.00108-20.11669-.03382-40.23344.04469-60.34979.009-2.3052-.56974-3.1951-3.00011-3.08039a115.68159 115.68159 0 0 1-11.8861-.00591c-2.73266-.1526-3.36693.96312-3.34513 3.44334.09142 10.40437.03858 20.81.03926 31.21516 0 5.15305-.02717 10.3065-.03736 15.45962s-.00339 10.306.06439 15.4582c.1759 13.37359 12.55384 21.80127 24.98666 17.22727 1.75882-.6471 2.44579-1.26744 1.60927-3.19795-1.40994-3.25373-2.55446-6.62161-3.87182-9.91701zm24.43175-42.89032c-4.15435.14738-8.32235.15865-12.47561-.00374-2.38167-.09311-3.06008.75536-3.026 3.07985.12048 8.21762.04693 16.438.04693 24.65734h.1503c0 8.41824.04469 16.837-.03233 25.25452-.01861 2.02974.66463 2.89016 2.73294 2.85193 4.15815-.07688 8.32017-.08544 12.47784.00346 2.15341.04605 3.01241-.78083 3.0063-2.96514q-.0701-24.95756.00537-49.91532c.00697-2.12441-.60685-3.04379-2.88574-2.9629zm-53.77358 27.86276q.0002-6.16194-.01094-12.32395-.00223-6.16194.03735-12.32347c.01678-2.12733-.4041-3.32618-2.94306-3.22274-4.34825.17719-8.70967.09922-13.06383.02431-1.67453-.0288-2.3577.65335-2.309 2.26452.07477 2.472.16809 4.94482.17155 7.4175.02024 14.35294.06 28.70628-.02248 43.05874-.01351 2.34887.77221 3.17052 3.08495 3.09425 3.85626-.12714 7.72692-.17815 11.57789.01365 2.81559.14011 3.56789-.99653 3.525-3.65293-.06554-4.05743-.07749-8.1156-.07294-12.17412s.02544-8.11731.02551-12.17576zm-12.31893-55.35776c1.216.60534 1.98892-.46774 2.81776-1.13841 7.9933-6.46817 16.03522-12.878 23.93648-19.45674 1.50774-1.25543 2.34718-.96427 3.62162.07885q10.90131 8.92323 21.89716 17.73039c1.40546 1.12156 2.69042 3.50677 4.5505 2.72295 2.22018-.93547.47881-3.57719.94315-4.94.2085-3.95013.24314-7.336-2.94008-9.87063-7.26985-5.78847-14.43681-11.70605-21.66061-17.55245-3.124-2.52831-6.02693-2.59384-9.15085-.07518-7.15793 5.77094-14.20855 11.67623-21.41965 17.37926a8.63381 8.63381 0 0 0-3.481 7.43469c.02628 1.58386-.01114 3.16888.00991 4.753.01417 1.06115-.31441 2.34184.87561 2.93427z" class="cls-1"/></svg>