<?xml version="1.0" encoding="UTF-8"?>
<svg id="Layer_1" data-name="Layer 1" xmlns="http://www.w3.org/2000/svg" viewBox="0 0 980.55 270.82">
  <defs>
    <style>
      .cls-1 {
        fill: none;
      }

      .cls-1, .cls-2 {
        stroke-width: 0px;
      }

      .cls-2 {
        fill: #0a1264;
      }
    </style>
  </defs>
  <rect class="cls-1" width="980.55" height="270.82"/>
  <path class="cls-2" d="m67.7,67.7h53.97s16.83,69.64,16.83,69.64l4.06,19.34,4.06-19.34,16.83-69.64h53.97v135.41h-34.63v-87.82l-4.84,20.12-17.99,67.7h-35.59l-17.99-67.7-4.84-20.12v87.82h-33.85V67.7Zm290.94,79.89c0,36.17-23.79,57.84-63.64,57.84s-63.64-21.47-63.64-57.84v-24.37c0-36.17,23.79-57.84,63.64-57.84s63.64,21.47,63.64,57.84v24.37Zm-63.64-52.23c-16.44,0-26.5,9.29-26.5,24.57v30.95c0,15.09,10.06,24.57,26.5,24.57s26.5-9.48,26.5-24.57v-30.95c0-15.28-10.06-24.57-26.5-24.57Zm203.89,52.23c0,36.17-23.79,57.84-63.64,57.84s-63.64-21.47-63.64-57.84v-24.37c0-36.17,23.79-57.84,63.64-57.84s63.64,21.47,63.64,57.84v24.37Zm-63.64-52.23c-16.44,0-26.5,9.29-26.5,24.57v30.95c0,15.09,10.06,24.57,26.5,24.57s26.5-9.48,26.5-24.57v-30.95c0-15.28-10.06-24.57-26.5-24.57Zm197.5,48.36c0,37.53-23.99,59.39-65.58,59.39h-54.55V67.7h54.55c41.59,0,65.58,21.86,65.58,59.39v16.64Zm-65.58-45.65h-17.8v74.67h17.8c18.96,0,28.44-9.67,28.44-28.44v-17.8c0-18.96-9.48-28.44-28.44-28.44Zm103.68,45.46l-49.33-75.83h41.59l26.11,42.56,25.92-42.56h39.85l-49.33,75.83v59.58h-34.82v-59.58Zm87.82-75.83h36.75v33.85l-23.6,31.72h-7.93l10.45-28.82h-15.67v-36.75Zm154.17,93.24c0,28.05-20.7,44.49-56.1,44.49s-55.9-16.06-55.9-42.94v-6h35.79v5.22c0,9.48,6,13.54,20.12,13.54,12.96,0,19.73-3.87,19.73-11.22,0-8.32-5.61-10.06-13.93-11.22l-24.37-3.68c-15.86-2.32-36.56-10.45-36.56-39.66s20.31-44.1,55.13-44.1,54.55,15.86,54.55,42.56v5.22h-35.79v-4.45c0-9.29-5.61-13.15-18.76-13.15-12.38,0-18.76,3.68-18.76,10.83,0,7.93,5.42,9.67,13.15,10.83l24.18,3.68c16.83,2.51,37.53,10.64,37.53,40.04Z"/>
</svg>