<?xml version="1.0" encoding="utf-8"?>
<!-- Generator: Adobe Illustrator 23.0.2, SVG Export Plug-In . SVG Version: 6.00 Build 0)  -->
<svg version="1.1" id="Layer_1" xmlns="http://www.w3.org/2000/svg" xmlns:xlink="http://www.w3.org/1999/xlink" x="0px" y="0px"
	 viewBox="0 0 400 245" style="enable-background:new 0 0 400 245;" xml:space="preserve">
<style type="text/css">
	.st0{fill:#EC1C24;}
	.st1{fill:#231F20;}
	.st2{fill:#0076AD;}
	.st3{fill:#44B549;}
	.st4{fill:#F6AF26;}
	.st5{fill:#4AA5D2;}
	.st6{fill:#B2CD41;}
	.st7{fill:#221F1F;stroke:#221F1F;stroke-width:0.0971;stroke-miterlimit:10;}
	.st8{fill:#221F1F;}
	.st9{fill:#96B85C;}
	.st10{fill:#E4B836;}
	.st11{fill:#053E72;}
	.st12{fill:#C8102E;}
	.st13{fill:#FFFFFF;}
	.st14{fill:url(#SVGID_1_);}
	.st15{fill:url(#SVGID_2_);}
	.st16{fill:#193760;}
	.st17{fill:none;stroke:#193760;stroke-width:1.3933;stroke-miterlimit:10;}
	.st18{fill:#ED5E30;}
	.st19{fill:#0067AB;}
	.st20{fill:#0077BF;}
	.st21{fill:#0077C0;}
	.st22{fill:#003DA6;}
	.st23{fill:#005CB8;}
	.st24{fill:#FFCD00;}
	.st25{fill:#008656;}
	.st26{fill:#124191;}
	.st27{fill:#0071BB;}
</style>
<g>
	<g>
		<path class="st16" d="M132.67,64.09l-0.07-1.91c0.29-0.02,0.59-0.02,0.89-0.02c0.8,0,1.65,0.02,2.54,0.07
			c2.12,0.11,3.37,0.17,3.74,0.17c1.29,0,2.55-0.02,3.78-0.08c1.23-0.05,2.33-0.08,3.28-0.1c0.96-0.01,1.61-0.03,1.94-0.04
			l-0.02,0.29l0.05,1.4v0.19c-0.9,0.13-1.83,0.19-2.8,0.19c-0.9,0-1.5,0.18-1.78,0.53c-0.19,0.23-0.29,1.18-0.29,2.87
			c0,0.51,0.01,0.93,0.02,1.25l0.02,0.87l-0.05,2.27l0.14,1.93l-0.1,4.17l0.31,6.05c0.08,1.75,0.47,3.21,1.16,4.37
			c0.51,0.85,1.24,1.52,2.17,2c1.35,0.68,2.68,1.01,3.98,1.01c1.54,0,2.98-0.2,4.32-0.6c0.79-0.22,1.53-0.59,2.23-1.1
			c0.7-0.51,1.19-0.97,1.46-1.39c0.58-0.88,0.98-1.71,1.21-2.48c0.31-1.06,0.46-2.71,0.46-4.94c0-3.89-0.21-8.27-0.63-13.14
			l-0.1-1.28c-0.05-0.95-0.23-1.58-0.53-1.9c-0.51-0.5-1.09-0.75-1.74-0.75l-2.27,0.05l-0.31-0.07l0.05-1.86h1.91l4.61,0.22
			c1.54,0,3.01-0.07,4.41-0.22l0.41,0.05c0.1,0.53,0.14,0.9,0.14,1.11c0,0.18-0.03,0.39-0.1,0.65c-0.6,0.16-1.22,0.26-1.88,0.29
			c-1.08,0.14-1.67,0.27-1.78,0.36c-0.23,0.19-0.34,0.49-0.34,0.89c0,0.29,0.02,0.71,0.07,1.25c0.05,0.4,0.07,1.1,0.07,2.1
			c0,0.56,0,1.01,0.01,1.33c0.01,0.32,0.02,0.65,0.04,0.99c0.05,1.16,0.09,2.33,0.12,3.52l0.24,4.9c0,3.28-0.11,5.48-0.34,6.59
			c-0.23,1.11-0.53,1.99-0.92,2.63c-0.6,0.97-1.44,1.85-2.53,2.67c-1.09,0.81-2.46,1.46-4.1,1.93c-1.64,0.48-3.55,0.71-5.74,0.71
			c-2.49,0-4.63-0.33-6.41-1c-1.78-0.67-3.13-1.54-4.04-2.63c-0.91-1.08-1.53-2.5-1.87-4.23c-0.24-1.19-0.36-2.89-0.36-5.11v-11.5
			c0-2.72-0.13-4.25-0.39-4.61c-0.35-0.5-1.46-0.78-3.3-0.84C133.29,64.16,132.95,64.14,132.67,64.09z"/>
		<path class="st16" d="M171.36,91.8c0.42-0.22,1.04-0.39,1.86-0.49c0.82-0.1,1.56-0.28,2.22-0.52c0.08-0.32,0.13-0.55,0.14-0.7
			c0.03-0.22,0.05-1,0.05-2.32l-0.02-5.38l0.1-2.89l-0.05-2.24l0.05-1.3c0.05-1.75,0.07-3.39,0.07-4.92c0-3.34-0.04-5.48-0.12-6.42
			l-1.42-0.29c-1.3-0.08-2.17-0.16-2.6-0.24l-0.05-1.45l0.1-0.27c0.8-0.13,1.54-0.19,2.22-0.19c0.37,0,1.12-0.01,2.24-0.02
			c1.16,0.1,1.78,0.14,1.88,0.14l1.28-0.07l3.01-0.14c1.88-0.19,3.87-0.29,5.96-0.29c3.3,0,5.92,0.84,7.86,2.52
			c1.95,1.68,2.92,3.61,2.92,5.78c0,1.62-0.53,3.1-1.57,4.43c-1.05,1.33-2.66,2.33-4.84,3c0.19,0.34,0.45,0.73,0.77,1.18
			c0.67,0.96,1.22,1.79,1.63,2.46l3.85,6.25c0.96,1.66,1.59,2.62,1.89,2.91c0.3,0.28,0.91,0.59,1.84,0.93
			c0.72,0.27,1.28,0.55,1.66,0.82c0.1,0.27,0.14,0.51,0.14,0.72c0,0.15-0.01,0.33-0.02,0.56h-0.65l-0.48,0.02l-1.25-0.17h-0.99
			c-0.52-0.08-1.15-0.12-1.91-0.12l-2.41-0.02c-0.18,0-0.74,0.06-1.69,0.17c-0.44,0.05-0.78,0.09-1.04,0.12l-0.82-1.59
			c-0.68-1.21-1.15-2.11-1.42-2.7c-0.71-1.56-1.92-4.04-3.64-7.45c-0.8-1.58-1.37-2.47-1.69-2.68c-0.48-0.34-1.31-0.51-2.48-0.51
			c-0.32,0-0.87,0.02-1.64,0.05c-0.05,0.47-0.07,1.02-0.07,1.66l0.12,5.35l-0.14,4.53c0.45,0.27,1.04,0.48,1.76,0.63
			c1.25,0.26,2.33,0.56,3.23,0.92c0,0.79-0.03,1.38-0.1,1.78c-0.31-0.02-0.5-0.02-0.58-0.02l-0.99,0.05
			c-3.46-0.3-5.51-0.46-6.15-0.46c-0.42,0-0.72,0.01-0.89,0.02l-3.33,0.22c-1.01,0.11-1.94,0.17-2.77,0.17h-1.04
			c-0.03-0.4-0.05-0.66-0.05-0.77C171.28,92.37,171.31,92.12,171.36,91.8z M182.21,76.2c0.77,0.03,1.33,0.05,1.69,0.05
			c2.73,0,4.67-0.49,5.81-1.47c1.14-0.98,1.71-2.29,1.71-3.93c0-1.01-0.14-1.97-0.42-2.86c-0.28-0.89-0.63-1.56-1.05-1.99
			c-0.59-0.63-1.37-1.1-2.33-1.42c-0.71-0.24-1.84-0.36-3.39-0.36c-0.74,0-1.37,0.04-1.9,0.12l-0.05,0.46l0.05,3.26l-0.07,1.98
			l0.02,2.63c-0.03,0.74-0.06,1.7-0.07,2.87V76.2z"/>
		<path class="st16" d="M204.95,63.68l-0.02-1.83l5.76,0.36l2.58-0.02h0.94c0.98,0,2.52-0.06,4.61-0.17
			c1.19-0.08,1.94-0.12,2.24-0.12c2.03,0,3.55,0.11,4.58,0.34c1.57,0.32,2.82,0.84,3.75,1.54c0.92,0.71,1.72,1.72,2.39,3.03
			c0.67,1.31,1,2.53,1,3.65c0,2.8-0.88,5.07-2.64,6.81c-1.76,1.74-3.98,2.62-6.67,2.62c-0.93,0-1.82-0.11-2.66-0.34
			c-0.84-0.22-1.64-0.56-2.38-1.01c-0.08-0.47-0.12-1.11-0.12-1.93c0.39,0.03,0.74,0.06,1.05,0.07c0.31,0.02,0.59,0.02,0.83,0.02
			c1.37,0,2.52-0.38,3.45-1.14c1.24-0.98,1.86-2.58,1.86-4.78c0-1.58-0.27-2.87-0.81-3.88c-0.54-1.01-1.18-1.69-1.92-2.04
			c-1.03-0.48-2.19-0.73-3.47-0.73c-1.21,0-2.07,0.18-2.58,0.53c-0.13,0.21-0.23,0.41-0.29,0.6l0.17,11.37l-0.05,0.97l0.07,1.01
			c0.02,0.23,0.02,0.56,0.02,0.99v1.98l0.03,3.16l-0.05,3.77c0,0.53,0.05,1.25,0.15,2.15l4.8,0.6c0.06,0.39,0.1,0.69,0.1,0.92
			c0,0.24-0.04,0.58-0.12,1.01c-0.4,0.06-0.71,0.1-0.92,0.1c-0.5,0-1.44-0.06-2.82-0.18c-1.38-0.12-2.96-0.18-4.73-0.18
			c-1.99,0-3.89,0.13-5.69,0.39c-0.31,0.05-0.79,0.09-1.45,0.12c-0.06-0.47-0.1-0.81-0.1-1.04c0-0.14,0.02-0.37,0.05-0.68l1.47-0.48
			c1.01-0.3,1.89-0.68,2.63-1.11c0.15-0.47,0.22-0.89,0.22-1.28c0-0.16-0.01-0.35-0.02-0.55c-0.02-0.5-0.02-1.2-0.02-2.1l-0.07-6.78
			l-0.27-7.65c-0.11-3.63-0.2-5.59-0.26-5.88c-0.11-0.47-0.31-0.83-0.58-1.1c-0.27-0.26-0.73-0.45-1.38-0.57
			C206.27,64.01,205.38,63.83,204.95,63.68z"/>
		<path class="st16" d="M235.67,93.2c0-0.48,0.05-1.05,0.15-1.71l3.05-0.53c0.37-0.08,0.82-0.21,1.34-0.39l0.31-6.03
			c-0.06-2.17-0.1-3.79-0.1-4.87l0.03-0.58c0.05-0.66,0.07-2.32,0.07-4.97l-0.06-0.7l0.06-2.03l-0.05-2.1v-1.04
			c0-0.93-0.07-2.03-0.21-3.28c-0.02-0.11-0.08-0.3-0.18-0.58c-0.13-0.05-0.27-0.08-0.43-0.1c-0.15-0.02-0.31-0.04-0.47-0.07
			c-0.64-0.11-1.31-0.19-2.02-0.24l-0.37-0.1c-0.44-0.05-0.77-0.11-1-0.19c-0.05-0.47-0.07-0.76-0.07-0.89
			c0-0.19,0.05-0.46,0.15-0.8c0.32-0.06,0.77-0.1,1.35-0.1c0.58,0,0.98-0.01,1.21-0.02c1.96,0.21,3.42,0.32,4.37,0.34
			c0.43,0,0.87,0.01,1.32,0.04c0.44,0.02,0.83,0.04,1.17,0.04c0.53,0,1.83-0.08,3.89-0.24c0.34-0.08,0.71-0.12,1.11-0.12
			c0.6,0,1.09,0.03,1.5,0.1c0.02,0.34,0.02,0.58,0.02,0.72c0,0.26-0.03,0.57-0.1,0.94l-4.27,0.68c-0.34,0.16-0.51,0.39-0.51,0.7
			l0.05,0.89l0.02,0.39l-0.02,1.06l-0.03,0.82v0.19c0.03,0.18,0.05,0.33,0.05,0.46l-0.05,3.06c0.03,0.29,0.05,0.51,0.05,0.65
			c0,0.08-0.01,0.34-0.03,0.77c-0.01,0.26-0.02,0.52-0.02,0.8c0,0.24,0.02,0.81,0.05,1.71c0.45,0.08,0.83,0.13,1.13,0.14l3.56,0.07
			h1.73l4.34,0.02l4.21-0.12c0.55,0,1.12-0.06,1.73-0.17c0.03-0.55,0.06-1.89,0.07-4.03l0.05-1.09l-0.14-4.1l-0.17-1.69
			c-0.05-0.11-0.16-0.22-0.34-0.31c-0.56-0.32-1.69-0.68-3.38-1.08c-0.3-0.06-0.59-0.14-0.87-0.24c0.03-0.56,0.1-1.02,0.19-1.38
			c0.35-0.02,0.57-0.02,0.65-0.02l2.34,0.02c1.49,0.19,3.01,0.29,4.55,0.29c0.35,0,0.63-0.01,0.84-0.02l3.13-0.1
			c0.29-0.02,0.57-0.03,0.84-0.05c0.58-0.13,1.17-0.19,1.78-0.19c0.47,0,1.03,0.02,1.69,0.07c-0.01,0.63-0.06,1.2-0.12,1.71
			c-1.47,0.31-2.43,0.53-2.89,0.66c-0.46,0.14-0.92,0.32-1.38,0.57l-0.15,0.48v0.41l0.03,0.63l-0.03,0.31
			c-0.04,0.34-0.06,0.59-0.06,0.77v0.6c0.03,0.72,0.05,1.13,0.05,1.21v3.06l0.02,2.32l-0.06,3.06c-0.02,0.71,0.01,2.15,0.09,4.34
			v3.42l0.05,2.85c0,0.53-0.02,1.17-0.05,1.93c0.33,0.1,0.65,0.18,0.94,0.24c1.5,0.32,2.64,0.65,3.41,0.99l0.07,1.69
			c-0.64,0.02-1.02,0.02-1.13,0.02c-0.77,0-1.65-0.05-2.65-0.14c-1.32-0.14-3.43-0.22-6.36-0.22c-1.32,0-3.02,0.1-5.11,0.31
			c-0.23,0-0.5-0.05-0.82-0.14c0.02-0.74,0.06-1.26,0.12-1.57l1.86-0.43l1.95-0.31c0.19-0.05,0.44-0.12,0.75-0.22
			c0.18-1.3,0.27-3.46,0.29-6.49l0.03-2.05c-0.1-0.85-0.15-1.87-0.15-3.06c-0.59-0.05-1.24-0.08-1.93-0.1l-11.17-0.12l-0.22-0.02
			l-0.17-0.02c-0.11,0-0.24,0.01-0.39,0.02c-0.42,0.02-0.77,0.02-1.06,0.02h-0.67c-0.31,0-0.65,0.06-1.04,0.17l-0.12,1.81v0.31
			c0.03,0.43,0.05,0.72,0.05,0.84v7.48c0,0.42,0.02,0.84,0.07,1.28l0.22,0.14l3.56,0.55c0.18,0.06,0.31,0.11,0.41,0.12
			c0.21,0.05,0.39,0.12,0.53,0.22c0.05,0.37,0.07,0.62,0.07,0.75c0,0.21-0.03,0.5-0.1,0.87c-0.58,0.02-1.07,0.02-1.47,0.02
			c-0.35,0-0.68-0.01-0.99-0.02c-0.15,0-0.28-0.01-0.41-0.02l-3.41-0.14c-0.8-0.08-1.93-0.12-3.38-0.12l-0.51,0.02
			c-0.68,0.03-1.07,0.06-1.18,0.07C239.36,93.13,237.8,93.2,235.67,93.2z"/>
		<path class="st16" d="M275.99,62.23c0.43-0.13,1.44-0.19,3.01-0.19l0.24,0.05c0.4,0.06,0.68,0.1,0.84,0.1l0.24-0.02
			c0.24,0.03,0.9,0.09,1.98,0.17c1.99,0.14,3.58,0.22,4.75,0.22c1.28,0,2.55-0.09,3.79-0.27c0.18-0.03,0.31-0.05,0.39-0.05
			l0.19,0.02c0.08,0.21,0.12,0.37,0.12,0.48l-0.02,1.25c-0.37,0.14-0.81,0.26-1.33,0.34l-1.08,0.19c-0.4,0.08-0.94,0.17-1.62,0.27
			l-0.14,0.1l-0.05,0.31c0.53,1.14,1.66,2.92,3.38,5.33c0.45,0.77,0.9,1.5,1.35,2.17c0.13,0.18,0.59,0.92,1.38,2.24
			c0.08,0.14,0.17,0.29,0.27,0.43c0.14,0.23,0.29,0.44,0.43,0.65c0.27,0.4,0.45,0.67,0.53,0.8c0.32,0.51,0.59,0.91,0.82,1.18
			l2.51-3.52c0.82-1.06,1.89-2.6,3.21-4.63l0.1-0.12l2.05-3.64c0.32-0.47,0.48-0.81,0.48-1.04c0-0.08-0.02-0.22-0.07-0.41
			c-0.24-0.16-0.44-0.26-0.6-0.29c-0.06-0.03-0.4-0.06-1.01-0.1c-0.34-0.06-0.66-0.12-0.96-0.17c-0.31-0.05-0.56-0.1-0.75-0.15
			c-0.03-0.21-0.08-0.8-0.14-1.78l4.94,0.26c0.14,0.02,0.35,0.05,0.6,0.1h1.16l0.41-0.02c0.52-0.08,1.18-0.14,2-0.19
			c0.24-0.02,0.47-0.04,0.7-0.07l-0.02,1.81l-0.31,0.1c-1.35,0.23-2.28,0.52-2.77,0.89c-0.72,0.55-1.7,1.87-2.92,3.96l-3.14,4.7
			c-1.88,2.56-3.09,4.3-3.64,5.23c-0.15,0.23-0.27,0.51-0.36,0.84v0.75l-0.02,2.1v0.58c-0.05,0.42-0.07,0.85-0.07,1.3l0.1,6.17
			c0.06,0.13,0.15,0.22,0.27,0.27c0.22,0.06,0.74,0.14,1.54,0.24c1.54,0.16,2.4,0.3,2.58,0.41c0.13,0.08,0.19,0.24,0.19,0.48
			c0,0.14-0.02,0.34-0.05,0.58c0,0.14-0.01,0.37-0.02,0.68l-2.77-0.05l-2.58-0.22l-1.78-0.12l-2.68,0.1h-2
			c-0.23-0.02-0.59,0.02-1.08,0.1c-0.8,0.13-1.41,0.19-1.81,0.19l-1.66-0.02c-0.02-0.34-0.02-0.59-0.02-0.77
			c0-0.18,0.01-0.44,0.02-0.8l4.44-0.92c0.19-0.06,0.38-0.15,0.56-0.24c0.01-0.74,0.02-1.2,0.02-1.37c0-2.46-0.02-4.14-0.05-5.03
			c-0.03-0.89-0.05-1.41-0.05-1.56v-0.56c0-1.01-0.53-2.18-1.59-3.5c-0.45-0.56-0.73-0.93-0.84-1.11l-4.73-7.19l-2.22-3.57
			c-0.08-0.13-0.58-0.79-1.5-1.98c-0.29-0.26-0.57-0.43-0.84-0.53c-0.16-0.06-0.89-0.23-2.19-0.51c-0.08-0.14-0.12-0.27-0.12-0.39
			c0-0.1,0.01-0.22,0.03-0.37C275.96,62.77,275.98,62.54,275.99,62.23z"/>
		<path class="st16" d="M332.49,76.46c-1.14-1.32-1.88-2.21-2.21-2.68c-0.34-0.47-0.62-1.04-0.86-1.72
			c-0.23-0.68-0.35-1.37-0.35-2.06c0-1.46,0.49-2.79,1.47-3.98c0.98-1.19,2.39-2.03,4.24-2.51c0.27-0.06,0.49-0.13,0.65-0.19
			c0.37-0.11,1.19-0.17,2.46-0.17c2.28,0,4.08,0.59,5.42,1.77c1.33,1.18,2,2.52,2,4.02c0,0.9-0.19,1.75-0.58,2.56
			c-0.31,0.61-0.95,1.25-1.95,1.93c-0.99,0.68-1.8,1.13-2.43,1.35c-0.21,0.06-0.36,0.16-0.46,0.29c0.3,0.42,1,1.15,2.09,2.19
			c0.42,0.4,0.95,1,1.59,1.79l2.77,3.38c0.27,0.37,0.53,0.68,0.77,0.94c0.95-0.93,1.72-1.94,2.31-3.01
			c0.45-0.82,0.67-1.43,0.67-1.83c0-0.32-0.14-0.65-0.41-0.98c-0.27-0.33-0.74-0.61-1.4-0.86l0.1-1.52
			c0.74-0.16,1.22-0.25,1.45-0.26c1.11-0.13,2.42-0.23,3.93-0.31l1.76-0.1h1.2c0.18,0,0.7-0.05,1.57-0.14
			c-0.03,0.21-0.05,0.44-0.06,0.7c-0.01,0.26-0.04,0.5-0.08,0.72l-0.07,0.43c-1.16,0.55-2,1-2.52,1.36
			c-0.52,0.36-1.44,1.24-2.76,2.64c-0.8,0.84-2.2,2.52-4.2,5.06c0.05,0.21,0.24,0.48,0.58,0.8l0.62,0.7
			c0.85,0.96,1.65,1.69,2.4,2.17c0.75,0.48,1.43,0.72,2.06,0.72c0.42,0,0.75-0.06,0.99-0.19c0.53-0.32,1.13-0.83,1.81-1.52
			c0.43-0.47,0.77-0.7,1.01-0.7c0.32,0,0.6,0.11,0.82,0.32c0.22,0.22,0.34,0.48,0.34,0.78c0,0.63-0.31,1.44-0.93,2.42
			c-0.62,0.99-1.54,1.82-2.76,2.5c-0.82,0.45-1.93,0.68-3.33,0.68c-1.25,0-2.41-0.24-3.47-0.72c-1.38-0.63-2.9-1.69-4.56-3.18
			c-3.22,2.62-6.74,3.93-10.56,3.93c-3.31,0-5.77-0.73-7.38-2.19c-1.61-1.46-2.41-3.33-2.41-5.59c0-1.38,0.33-2.69,0.99-3.93
			c0.66-1.24,1.63-2.3,2.89-3.2c1.26-0.89,2.44-1.56,3.52-2.01C331.83,76.8,332.25,76.61,332.49,76.46z M342.41,88.06
			c-0.13-0.24-0.29-0.47-0.49-0.69c-0.2-0.22-0.38-0.44-0.54-0.66l-2.84-3.42c-1.46-1.77-2.94-3.46-4.45-5.09
			c-1.17,0.48-2.1,1.15-2.79,1.99c-0.69,0.84-1.03,1.82-1.03,2.93c0,0.71,0.13,1.37,0.41,2c0.52,1.14,1.06,2.03,1.65,2.66
			c0.58,0.64,1.33,1.2,2.23,1.69c0.9,0.49,1.85,0.74,2.84,0.74C339.23,90.21,340.9,89.49,342.41,88.06z M338.13,73.33
			c0.97-0.43,1.7-1.03,2.18-1.78c0.32-0.53,0.48-1.32,0.48-2.36c0-0.51-0.15-1.29-0.46-2.32c-0.11-0.35-0.44-0.7-1-1.02
			c-0.55-0.33-1.21-0.49-1.98-0.49c-0.8,0-1.51,0.25-2.11,0.75c-0.61,0.5-0.91,1.18-0.91,2.05c0,0.63,0.22,1.28,0.65,1.95
			C335.54,70.98,336.59,72.06,338.13,73.33z"/>
		<path class="st16" d="M151.89,123.72c0.14,0.33,0.43,1.26,0.87,2.8c0.2,0.7,0.3,1.44,0.31,2.23h-1.49
			c-1.05-1.49-2.13-2.55-3.24-3.2c-1.11-0.65-2.36-0.97-3.73-0.97c-1.69,0-3.06,0.66-4.1,1.98c-1.41,1.79-2.11,4.29-2.11,7.49
			c0,1.86,0.12,3.18,0.36,3.96c0.39,1.28,0.89,2.32,1.49,3.13c0.46,0.61,1.06,1.1,1.8,1.46c0.96,0.49,1.99,0.74,3.08,0.74
			c1.2,0,2.36-0.37,3.48-1.12c1.12-0.75,2.19-1.86,3.22-3.34c0.4-0.08,0.93-0.12,1.59-0.13c-0.04,0.41-0.11,0.84-0.21,1.29
			c-0.03,0.17-0.16,0.87-0.38,2.07l-0.15,0.49l-0.23,0.77c-0.67,0.51-1.6,0.9-2.81,1.15c-1.21,0.26-2.69,0.38-4.45,0.38
			c-1.34,0-2.61-0.13-3.81-0.38c-1.2-0.25-2.22-0.65-3.07-1.2c-1.24-0.79-2.22-1.64-2.93-2.56c-0.71-0.92-1.24-1.92-1.58-3
			c-0.34-1.08-0.52-2.29-0.52-3.64c0-3.25,1.07-5.94,3.22-8.06c2.15-2.12,4.88-3.18,8.21-3.18c1.35,0,2.63,0.07,3.82,0.2
			C149.74,123.25,150.85,123.45,151.89,123.72z"/>
		<path class="st16" d="M186.02,115.34c0.11,0.47,0.24,1.39,0.39,2.76c0.14,1.37,0.22,2.38,0.22,3c0,0.24-0.06,0.54-0.17,0.89
			c-0.69-0.02-1.28-0.08-1.76-0.19c-1.22-1.88-2.08-3.06-2.58-3.55c-0.93-0.9-2.13-1.66-3.59-2.29c-1.08-0.47-2.32-0.7-3.71-0.7
			c-2.68,0-5.05,1.2-7.09,3.61c-2.04,2.41-3.06,5.99-3.06,10.75c0,2.23,0.4,4.4,1.19,6.51c0.8,2.1,1.99,3.75,3.58,4.95
			c1.59,1.2,3.46,1.79,5.62,1.79c1.04,0,2.15-0.14,3.33-0.41c0.59-0.13,1.08-0.38,1.45-0.77c0.26-0.26,0.43-0.64,0.51-1.15
			c0.13-0.93,0.19-2.25,0.19-3.96c0-1.66-0.02-2.81-0.07-3.43c-0.11-0.24-0.22-0.4-0.33-0.47c-0.1-0.07-0.43-0.19-0.98-0.35
			l-2.15-0.58c-0.47-0.11-0.76-0.25-0.87-0.41c-0.03-0.21-0.05-0.36-0.05-0.46c0-0.22,0.06-0.54,0.17-0.94
			c0.29-0.1,0.49-0.14,0.6-0.14c1.75,0,3.27,0.06,4.56,0.17c0.45,0.03,0.94,0.04,1.47,0.04l3.81-0.05l1.62-0.05
			c0.19-0.02,0.73,0,1.62,0.05c0.02,0.42,0.02,0.77,0.02,1.06c0,0.18-0.06,0.38-0.17,0.6c-0.27,0.16-0.74,0.37-1.4,0.61
			c-0.66,0.25-1.03,0.41-1.11,0.49c-0.13,0.13-0.22,0.33-0.27,0.6c-0.05,0.27-0.07,1.23-0.07,2.86c0,1.89-0.01,3.03-0.02,3.39
			c-0.06,1.19-0.1,1.86-0.1,2.02c0,0.59-0.08,0.96-0.24,1.11c-0.45,0.45-1.84,0.96-4.18,1.53c-2.34,0.57-5.06,0.85-8.16,0.85
			c-2.17,0-4.06-0.17-5.66-0.52c-1.6-0.34-2.96-0.86-4.09-1.53c-1.51-0.9-2.81-1.99-3.88-3.28c-1.08-1.29-1.88-2.68-2.41-4.17
			c-0.74-2.12-1.11-4.24-1.11-6.34c0-2.36,0.55-4.76,1.64-7.19c0.8-1.75,1.93-3.33,3.39-4.74c1.46-1.41,3.28-2.53,5.46-3.36
			c2.19-0.84,4.57-1.25,7.14-1.25c0.32,0,0.84,0.04,1.57,0.12c1.96,0,3.79,0.25,5.5,0.74C183.48,114.08,184.89,114.67,186.02,115.34
			z"/>
		<path class="st16" d="M192.79,128.53c0-1.99,0.38-3.99,1.16-6.01c0.56-1.45,1.35-2.77,2.36-3.98c1.01-1.21,2.28-2.28,3.81-3.22
			c1.53-0.94,3.08-1.62,4.67-2.03c1.59-0.41,3.37-0.62,5.33-0.62c3.34,0,6.24,0.63,8.7,1.88c2.46,1.25,4.39,2.95,5.81,5.09
			c1.83,2.78,2.75,5.7,2.75,8.75c0,4.55-1.55,8.45-4.64,11.7c-3.09,3.25-7.39,4.87-12.9,4.87c-1.37,0-2.64-0.09-3.83-0.27
			c-0.9-0.13-1.69-0.3-2.36-0.53c-1.22-0.4-1.9-0.64-2.05-0.7c-1.75-1-3.16-2.02-4.22-3.06c-1.06-1.05-1.96-2.23-2.7-3.55
			c-0.4-0.74-0.86-2.07-1.37-4C192.96,131.64,192.79,130.19,192.79,128.53z M209.2,115.08c-1.4,0-2.63,0.33-3.71,0.98
			c-1.08,0.65-1.89,1.37-2.43,2.16c-0.92,1.33-1.57,2.79-1.95,4.38c-0.38,1.58-0.58,3.51-0.58,5.78c0,1.38,0.06,2.37,0.17,2.97
			c0.03,0.19,0.08,0.52,0.15,0.99c0.14,1.19,0.31,2.06,0.51,2.6c0.69,2.04,1.18,3.3,1.47,3.79c0.48,0.82,1.2,1.63,2.14,2.44
			c0.48,0.42,1.18,0.8,2.09,1.15c0.91,0.35,1.83,0.52,2.75,0.52c1.73,0,3.34-0.41,4.83-1.22c1.49-0.81,2.68-2.19,3.58-4.14
			c0.9-1.94,1.35-4.48,1.35-7.6c0-1.29-0.09-3.03-0.26-5.23l-0.12-0.46c-0.05-0.13-0.13-0.46-0.24-0.99
			c-0.59-2.64-1.73-4.65-3.41-6.03C213.85,115.77,211.74,115.08,209.2,115.08z"/>
		<path class="st16" d="M229.78,115.22l-0.1-1.69h2.05l0.7-0.02c0.96-0.05,1.63-0.07,2-0.07c0.19,0,0.76,0.02,1.69,0.05
			c0.21,0.02,0.39,0.02,0.53,0.02c0.14,0,0.65-0.02,1.52-0.05c0.87-0.03,1.36-0.05,1.47-0.05c0.18,0,0.43,0.01,0.75,0.02
			c2.48,2.25,4.49,4.19,6.05,5.81c1.56,1.62,7.25,7.31,17.07,17.05v-0.6l-0.1-2.8c-0.05-1.64-0.11-2.94-0.19-3.89
			c-0.08-0.96-0.13-2.1-0.14-3.42c-0.02-1.33-0.07-2.53-0.17-3.61c-0.19-2.11-0.29-3.32-0.29-3.64c-0.02-1.05-0.13-1.68-0.34-1.91
			c-0.34-0.35-1.11-0.62-2.32-0.8c-0.88-0.15-1.54-0.33-1.98-0.56l0.02-1.42l0.63-0.07l4.75-0.14l5.31-0.14
			c0.35-0.02,0.69-0.02,1.01-0.02l0.02,1.57c-0.37,0.19-0.75,0.34-1.13,0.43c-1.03,0.24-1.62,0.41-1.78,0.51
			c-0.82,0.47-1.26,0.75-1.33,0.84c-0.15,0.19-0.22,0.49-0.22,0.89c0,0.1,0.01,0.43,0.05,1.01c0.02,0.29,0.02,0.96,0.02,2.03
			c0.02,2.33,0.08,4.17,0.19,5.52c0.03,0.43,0.06,0.92,0.07,1.47l0.27,8.47c0.01,0.6,0.02,1.01,0.02,1.25v2.97l0.07,1.25l-0.07,1.3
			c0.06,0.66,0.1,1.05,0.1,1.18v1.28l-2.77,0.1l-2.87-2.97l-5.86-5.81l-4.1-4.1l-3.01-3.09c-1.96-1.93-3.75-3.62-5.35-5.09
			l-3.93-3.54l0.22,8.97c0.02,0.55,0.02,1.11,0.02,1.69l-0.02,1.71l0.15,3.16c0.05,1.32,0.13,2.75,0.26,4.29
			c0.03,0.42,0.07,0.71,0.12,0.88c0.05,0.17,0.14,0.41,0.29,0.74c0.63,0.23,1.99,0.39,4.1,0.51c0.15,0.03,0.35,0.09,0.63,0.17
			l0.1,1.95l-0.94,0.02c-0.52,0-2.14-0.12-4.87-0.36c-2.56,0.03-4.26,0.08-5.11,0.14c-0.85,0.06-1.32,0.1-1.4,0.1
			c-0.19,0-0.46-0.03-0.8-0.1c-0.03-0.37-0.05-0.69-0.05-0.96c0-0.18,0.01-0.47,0.02-0.87c0.45-0.08,0.82-0.12,1.11-0.12
			c0.1,0,0.41,0.02,0.94,0.05c1.35,0,2.15-0.1,2.4-0.3c0.25-0.2,0.39-0.74,0.42-1.63c0.11-2.56,0.17-4.12,0.17-4.68v-1.33l0.05-7.84
			l-0.07-4.9c-0.02-1.86-0.14-3.16-0.36-3.88c-0.1-0.37-0.28-0.69-0.56-0.96c-0.56-0.58-1.19-1.01-1.88-1.3
			C232.62,115.72,231.53,115.5,229.78,115.22z"/>
		<path class="st16" d="M272.97,144.55v-1.74c0.32-0.1,0.85-0.23,1.58-0.41c1.04-0.26,1.81-0.52,2.32-0.8
			c0.29-0.5,0.43-1.19,0.43-2.07l-0.03-2.85l0.05-5.5l-0.02-1.3c0.13-3.18,0.19-4.82,0.19-4.92l-0.05-3.21l0.07-1.3l-0.12-2.75
			l-0.05-1.04c-0.02-0.16-0.07-0.42-0.17-0.77c-0.66-0.3-1.73-0.5-3.21-0.58c-0.35-0.02-0.64-0.04-0.84-0.07l-0.05-2.12l6.89,0.29
			c0.85,0.03,1.38,0.05,1.59,0.05c0.95,0,2.47-0.06,4.56-0.19c1.17-0.08,1.91-0.13,2.22-0.14c0.02,0.3,0.03,0.56,0.03,0.77
			c0,0.27-0.02,0.63-0.06,1.06c-0.64,0.22-1.38,0.44-2.2,0.64c-0.83,0.2-1.51,0.41-2.03,0.62c-0.1,0.42-0.15,1.02-0.15,1.81
			c0,0.69,0.03,1.25,0.07,1.69c-0.05,2.72-0.07,4.81-0.07,6.27l0.03,6.37l-0.12,3.23l0.1,4.82l-0.07,0.92
			c0,0.13,0.05,0.31,0.14,0.56c0.98,0.21,1.86,0.35,2.66,0.43c0.14,0.02,0.63,0.08,1.46,0.19c0.06,0.48,0.1,0.88,0.1,1.21
			c0,0.18-0.01,0.45-0.02,0.82c-0.21,0-0.37,0.01-0.48,0.02c-0.51,0.03-0.81,0.05-0.89,0.05c-0.11,0-0.32-0.02-0.63-0.07
			c-0.23-0.03-1.29-0.14-3.2-0.34l-4.26-0.05c-0.85,0-2.09,0.08-3.71,0.24C273.98,144.48,273.29,144.53,272.97,144.55z"/>
		<path class="st16" d="M321.55,115.34c0.11,0.47,0.24,1.39,0.39,2.76c0.14,1.37,0.22,2.38,0.22,3c0,0.24-0.06,0.54-0.17,0.89
			c-0.69-0.02-1.28-0.08-1.76-0.19c-1.22-1.88-2.08-3.06-2.58-3.55c-0.93-0.9-2.13-1.66-3.59-2.29c-1.08-0.47-2.32-0.7-3.71-0.7
			c-2.68,0-5.05,1.2-7.09,3.61c-2.04,2.41-3.06,5.99-3.06,10.75c0,2.23,0.4,4.4,1.19,6.51s1.99,3.75,3.58,4.95
			c1.59,1.2,3.46,1.79,5.62,1.79c1.04,0,2.15-0.14,3.33-0.41c0.6-0.13,1.08-0.38,1.45-0.77c0.26-0.26,0.43-0.64,0.51-1.15
			c0.13-0.93,0.19-2.25,0.19-3.96c0-1.66-0.03-2.81-0.07-3.43c-0.11-0.24-0.22-0.4-0.33-0.47c-0.1-0.07-0.43-0.19-0.98-0.35
			l-2.15-0.58c-0.47-0.11-0.76-0.25-0.87-0.41c-0.03-0.21-0.05-0.36-0.05-0.46c0-0.22,0.06-0.54,0.17-0.94
			c0.29-0.1,0.49-0.14,0.6-0.14c1.75,0,3.27,0.06,4.56,0.17c0.45,0.03,0.94,0.04,1.47,0.04l3.81-0.05l1.61-0.05
			c0.19-0.02,0.73,0,1.62,0.05c0.02,0.42,0.02,0.77,0.02,1.06c0,0.18-0.06,0.38-0.17,0.6c-0.27,0.16-0.74,0.37-1.4,0.61
			c-0.66,0.25-1.03,0.41-1.11,0.49c-0.13,0.13-0.22,0.33-0.27,0.6c-0.05,0.27-0.07,1.23-0.07,2.86c0,1.89-0.01,3.03-0.02,3.39
			c-0.06,1.19-0.1,1.86-0.1,2.02c0,0.59-0.08,0.96-0.24,1.11c-0.45,0.45-1.84,0.96-4.18,1.53c-2.34,0.57-5.06,0.85-8.16,0.85
			c-2.17,0-4.06-0.17-5.65-0.52c-1.6-0.34-2.96-0.86-4.09-1.53c-1.51-0.9-2.8-1.99-3.88-3.28c-1.08-1.29-1.88-2.68-2.41-4.17
			c-0.74-2.12-1.11-4.24-1.11-6.34c0-2.36,0.55-4.76,1.64-7.19c0.8-1.75,1.93-3.33,3.39-4.74c1.46-1.41,3.28-2.53,5.46-3.36
			c2.19-0.84,4.57-1.25,7.14-1.25c0.32,0,0.84,0.04,1.57,0.12c1.96,0,3.79,0.25,5.5,0.74C319.01,114.08,320.43,114.67,321.55,115.34
			z"/>
		<path class="st16" d="M327.27,142.55c0.5-0.15,1.2-0.28,2.11-0.42c0.91-0.13,1.44-0.2,1.6-0.2c0.63-0.02,1.04-0.12,1.25-0.3
			c0.1-0.39,0.15-0.71,0.15-0.96l-0.05-3.09l0.15-3.14v-2l0.02-2.37l-0.05-2.51l0.1-5.38l0.03-2.44v-0.34
			c-0.11-1.69-0.22-2.62-0.33-2.79c-0.11-0.17-0.57-0.38-1.39-0.64c-0.08-0.03-0.39-0.15-0.92-0.36c-0.4-0.16-0.76-0.27-1.08-0.34
			c-0.56-0.14-0.96-0.31-1.18-0.51c-0.03-0.42-0.05-0.74-0.05-0.96c0-0.13,0.01-0.32,0.03-0.58c0.14-0.08,0.3-0.12,0.46-0.12
			c0.39,0,1.79,0.06,4.2,0.19l3.45-0.02l2.56,0.05c1.11,0,2.53-0.07,4.27-0.2c0.52-0.04,0.81-0.07,0.89-0.07
			c0.24,0,0.41,0.06,0.51,0.19c0.13,0.17,0.19,0.49,0.19,0.95c0,0.36-0.09,0.64-0.27,0.83c-0.1,0.11-0.45,0.21-1.06,0.29l-2.99,0.7
			c-0.08,0.03-0.22,0.1-0.41,0.19c-0.06,0.11-0.11,0.21-0.15,0.29l-0.02,0.68l-0.07,1.52v0.43v0.26c0,0.08-0.02,0.52-0.05,1.33
			c-0.01,0.21-0.02,0.42-0.02,0.63c0,0.26,0.01,0.69,0.05,1.3c0.05,0.97,0.07,1.81,0.07,2.53c0,0.84-0.02,1.79-0.07,2.87
			c-0.02,0.4-0.02,0.93-0.02,1.57l-0.1,11.44c0,0.48,0.08,0.8,0.24,0.94l2.29,0.09l1.42-0.02l1.52,0.02c2.59,0,4.62-0.3,6.1-0.89
			c1.11-0.45,1.83-0.9,2.17-1.35c0.55-0.48,0.99-1,1.34-1.56c0.35-0.56,0.74-1.49,1.17-2.79h0.77c0.39,0,0.82,0.03,1.3,0.1v0.67
			c0,1.15-0.15,3.18-0.43,6.06c-0.11,1.15-0.22,1.86-0.34,2.12c-0.37,0.06-0.6,0.1-0.7,0.1h-0.89l-1.25,0.02
			c-0.14,0-1.1-0.06-2.87-0.19c-0.32-0.02-1.86-0.07-4.61-0.17c-2.75-0.1-5.44-0.14-8.08-0.14l-4.92,0.14
			c-1.9,0.05-3.67,0.14-5.33,0.27h-0.36c-0.1,0-0.25-0.01-0.46-0.02c-0.03-0.18-0.05-0.33-0.05-0.46
			C327.1,143.34,327.15,142.85,327.27,142.55z"/>
		<path class="st16" d="M358.32,113.32c0.92,0.05,1.71,0.12,2.39,0.22c1.27,0.18,2.74,0.27,4.41,0.27c0.58,0,2.06-0.05,4.46-0.15
			c3.58-0.14,6.83-0.22,9.72-0.22l4.36-0.05c0.98,0,2.43,0.12,4.34,0.36c0.29,0.32,0.43,0.76,0.43,1.3v4.97l0.05,0.99
			c0,0.1-0.01,0.24-0.02,0.43l-0.99,0.05c-0.13,0-0.4-0.02-0.82-0.05c-0.15-0.32-0.34-0.8-0.58-1.42l-0.96-1.71
			c-0.37-0.72-0.88-1.46-1.54-2.22c-0.4-0.11-0.92-0.18-1.54-0.19c-0.16-0.02-0.65-0.06-1.47-0.12c-1.5-0.13-3.1-0.19-4.82-0.19
			c-1.96,0-3.71,0.03-5.26,0.1c-0.05,0.4-0.07,1.99-0.07,4.75l0.03,4.05v3.04c0.4,0.05,0.75,0.07,1.04,0.07
			c2.88,0,4.94-0.06,6.16-0.17c1.22-0.11,1.98-0.27,2.27-0.47c0.29-0.2,0.55-0.55,0.77-1.05c0.14-0.35,0.43-1.53,0.85-3.54
			l0.31-0.02l1.4,0.02c0.06,1.43,0.1,2.52,0.1,3.26c0,1.69-0.01,2.77-0.04,3.26c-0.02,0.48-0.03,0.86-0.03,1.13
			c0,0.43,0.02,1.13,0.07,2.09c0.05,0.96,0.07,1.67,0.07,2.13v0.53h-1.71c-0.06-0.26-0.19-0.79-0.36-1.59
			c-0.32-1.5-0.61-2.43-0.87-2.8c-0.19-0.29-0.52-0.51-0.97-0.65c-0.32-0.11-1.51-0.17-3.58-0.17c-2.43,0-4.26,0.06-5.49,0.19
			c0,0.42,0,0.69,0,0.82c0,1.91,0.03,3.51,0.1,4.77l-0.05,5.21c0,0.61,0.22,1.03,0.65,1.25c0.66,0.34,2.68,0.51,6.05,0.51
			c2.23,0,4.13-0.17,5.69-0.51c1.08-0.24,2.03-0.78,2.84-1.62c1.09-1.08,2-2.59,2.72-4.53c0.5-0.05,0.91-0.07,1.23-0.07
			c0.18,0,0.44,0.01,0.8,0.02c-0.05,0.4-0.09,0.74-0.12,1.01l-0.14,0.72l-0.88,4.56l-0.43,2.75c-1.05,0.05-1.87,0.07-2.49,0.07
			c-0.9,0-3.31-0.08-7.22-0.24c-2.75-0.11-6.07-0.17-9.94-0.17c-1.93,0-4.3,0.08-7.12,0.24h-1.01l-2.92,0.1v-1.66
			c0.3-0.08,0.92-0.17,1.83-0.26c1.67-0.19,2.83-0.45,3.47-0.77c0.18-0.47,0.27-1.05,0.27-1.76c0-0.27-0.01-0.74-0.03-1.4l0.03-0.75
			l-0.07-9.09l0.02-2.73l-0.12-3.86l0.02-2.73l-0.22-2.99c0-0.08-0.02-0.24-0.05-0.48c-0.16-0.18-0.4-0.29-0.72-0.34
			c-0.18-0.03-0.42-0.08-0.72-0.15c-0.92-0.19-1.8-0.3-2.65-0.34c-0.31-0.02-0.66-0.05-1.06-0.1L358.32,113.32z"/>
	</g>
	<g>
		<path class="st16" d="M8.46,144.54l0.2-4.53c5.55-0.71,9.07-1.84,10.58-3.39c0.98-1.06,1.73-3.84,2.26-8.32l0.87-23.7l1-24.09
			c0.09-1.46,0.13-2.35,0.13-2.66c0-6.26-0.37-9.87-1.1-10.85c-0.73-0.98-3.58-1.93-8.55-2.86c-1.24-0.27-2.22-0.49-2.93-0.66
			c-0.09-1.11-0.13-2.04-0.13-2.8v-2.06c1.64-0.13,3.57-0.2,5.78-0.2l19.47,0.67c0.44,0.05,1.06,0.09,1.86,0.13l3.06,0.13
			c0.75,0.9,1.52,2.08,2.3,3.53c1.63,3.25,3.79,8,6.49,14.26l0.77,1.78l10.34,22.58c0.25,0.52,0.61,1.29,1.09,2.32
			c0.74,1.56,1.45,3.07,2.13,4.53c0.68,1.45,1.43,3.04,2.24,4.75c0.81,1.72,1.53,3.26,2.18,4.62c0.62-1.07,1.22-2.24,1.8-3.53
			c1.77-4.08,3.5-7.83,5.19-11.25c2.93-6.03,6.9-15.26,11.91-27.69c0.8-2,2.12-5,3.96-9.02c1.84-4.02,2.85-6.13,3.03-6.36
			c0.4-0.35,1.2-0.53,2.39-0.53c0.44,0,1.13-0.02,2.06-0.07c2.31-0.13,5.08-0.24,8.31-0.33c4.65-0.04,8.39-0.19,11.2-0.43
			c2.81-0.24,4.4-0.37,4.75-0.37c0.44,0,0.97,0.05,1.59,0.13c0.04,0.62,0.07,1.11,0.07,1.47l-0.13,2c0,0.4-0.02,1-0.07,1.8
			c-4.17,0.62-7.57,1.55-10.18,2.8c-1.82,0.89-2.73,2-2.73,3.33v1l1.14,20.37c0.13,1.86,0.49,11.11,1.08,27.75
			c0.13,3.73,0.43,8.45,0.88,14.18c0.09,0.71,0.13,1.26,0.13,1.66c0.04,1.06,0.28,1.75,0.7,2.06c0.42,0.31,4.4,1.6,11.95,3.86
			c0.04,0.71,0.07,1.24,0.07,1.6c0,0.93-0.02,1.86-0.07,2.8c-1.2,0-4.22-0.25-9.05-0.76c-4.84-0.51-9.36-0.77-13.58-0.77
			c-6.43,0-12.69,0.27-18.77,0.8c-0.8,0.09-1.58,0.16-2.33,0.2l0.13-4.59c1.82-0.71,4.24-1.31,7.25-1.8
			c2.13-0.35,3.48-0.95,4.06-1.8c0.58-0.84,0.87-3.2,0.87-7.06c0-1.46-0.02-2.75-0.07-3.86c-0.22-4.66-0.36-11.14-0.4-19.43
			l-1.13-23.49c-0.13-3.33-0.29-5.63-0.47-6.92l-16.57,38.07c-0.4,0.89-1,2.17-1.8,3.86c-1.02,2.17-1.71,3.66-2.06,4.46
			c-3.42,8.21-5.79,14.49-7.12,18.84c-0.36,1.11-0.89,2.55-1.6,4.33l-5.11-0.07l-3.6-10.18c-1.07-2.66-2.89-6.7-5.46-12.11
			c-1.51-3.15-2.69-5.7-3.53-7.65c-0.4-0.8-0.69-1.4-0.87-1.8l-0.8-1.66c-0.04-0.27-0.11-0.49-0.2-0.67L35.42,89.5l-6.06-12.98
			L28.83,108l-0.46,20.43c0,3.37,0.63,5.78,1.9,7.22c1.26,1.44,3.98,2.67,8.15,3.69l3.19,0.8v4.86c-2.57-0.04-5.34-0.23-8.29-0.57
			c-2.95-0.33-6.87-0.5-11.75-0.5C20.56,143.94,16.19,144.14,8.46,144.54z"/>
	</g>
	<g>
		<path class="st16" d="M61.49,179.61c0.12-0.07,0.23-0.1,0.32-0.1h0.3c0.06,0,0.16,0,0.31-0.01c0.67-0.06,1.06-0.12,1.18-0.18
			c0.3-0.16,0.56-0.45,0.78-0.86c0.45-0.88,0.96-2.13,1.52-3.75c0.27-0.77,0.44-1.24,0.51-1.4c0.22-0.52,0.42-1.06,0.62-1.63
			l1.22-3.41c0.19-0.54,0.65-1.76,1.38-3.68c0.18-0.48,0.4-1.13,0.66-1.94l0.38-0.03l0.45,0.01c0.37,0.74,0.7,1.53,0.98,2.37
			c0.15,0.45,0.41,1.12,0.76,2.01l1.97,5.33l1.05,2.89c0.55,1.64,0.92,2.65,1.09,3.03c0.17,0.38,0.33,0.62,0.48,0.75
			c0.04,0.03,0.21,0.09,0.49,0.16c0.28,0.07,0.48,0.12,0.59,0.16c0.4,0.11,0.67,0.21,0.83,0.29c0.03,0.09,0.05,0.17,0.05,0.22
			c0,0.04-0.01,0.11-0.04,0.19c-0.28,0.01-0.47,0.01-0.58,0.01c-0.44,0-1.22-0.01-2.33-0.04l-1.3-0.03l-1.57,0.02
			c-0.1,0-0.21-0.01-0.32-0.01c-0.11-0.01-0.2-0.02-0.28-0.02H72.7c-0.1-0.01-0.18-0.03-0.26-0.08c0-0.12,0.02-0.24,0.07-0.35
			c0.1-0.05,0.2-0.08,0.28-0.09l1.36-0.09c0.35-0.02,0.62-0.07,0.8-0.14c0.05-0.16,0.08-0.27,0.08-0.35c0-0.16-0.11-0.56-0.34-1.21
			c-0.15-0.43-0.29-0.84-0.41-1.23c-0.12-0.39-0.58-1.67-1.38-3.85c-0.35-0.06-0.67-0.09-0.93-0.09l-2.78,0.03l-0.82-0.01
			c-0.29,0-0.62,0.02-0.97,0.07c-0.11,0.26-0.19,0.44-0.22,0.56l-1.14,3.57c-0.48,1.36-0.73,2.11-0.73,2.24
			c0,0.08,0.04,0.21,0.12,0.39c0.18,0.05,0.42,0.1,0.73,0.14l1.76,0.16c0.09,0.08,0.14,0.15,0.14,0.21c0,0.04-0.01,0.11-0.04,0.19
			c-0.39,0.01-0.69,0.01-0.9,0.01c-0.69,0-1.5-0.02-2.41-0.07c-0.42-0.02-0.73-0.03-0.91-0.03c-0.18,0-0.5,0.01-0.95,0.03
			c-0.29,0.02-0.51,0.03-0.64,0.03c-0.21,0-0.48-0.01-0.8-0.04v-0.08C61.43,179.8,61.45,179.72,61.49,179.61z M67.67,171.83
			c0.92,0.05,1.98,0.08,3.16,0.08c0.67,0,1.27-0.02,1.78-0.07c-0.09-0.34-0.19-0.65-0.3-0.95c-0.56-1.5-0.87-2.33-0.93-2.49
			l-1.18-2.99l-0.13-0.23c-0.05,0.1-0.24,0.55-0.57,1.33c-0.55,1.35-0.95,2.4-1.19,3.15c-0.11,0.34-0.23,0.67-0.35,1
			c-0.12,0.33-0.2,0.57-0.23,0.7c-0.03,0.13-0.08,0.27-0.14,0.41L67.67,171.83z"/>
		<path class="st16" d="M87.2,163.48c0.16-0.03,0.25-0.04,0.3-0.04c0.29,0,0.78,0.02,1.45,0.05c0.35,0.01,0.6,0.01,0.73,0.01
			c0.19,0,0.59-0.02,1.21-0.05l2.2-0.13c0.58-0.05,1.25-0.08,2.02-0.08c1.36,0,2.44,0.19,3.24,0.58c0.8,0.38,1.42,0.99,1.86,1.81
			c0.44,0.82,0.65,1.64,0.65,2.45c0,1.36-0.48,2.53-1.43,3.51c-0.95,0.98-2.23,1.48-3.84,1.48c-0.45,0-0.83-0.05-1.13-0.14
			c-0.3-0.09-0.65-0.27-1.04-0.53c-0.16-0.11-0.26-0.23-0.3-0.35c0.03-0.06,0.08-0.1,0.14-0.13c0.12,0,0.25,0.03,0.38,0.08
			c0.29,0.1,0.67,0.16,1.11,0.16c0.68,0,1.33-0.17,1.94-0.51c0.61-0.34,1.07-0.82,1.38-1.44c0.31-0.62,0.47-1.28,0.47-1.97
			c0-0.67-0.16-1.33-0.49-1.96c-0.33-0.63-0.76-1.14-1.3-1.52c-0.3-0.21-0.77-0.4-1.39-0.54c-0.63-0.15-1.11-0.22-1.46-0.22
			c-1.07,0-1.7,0.08-1.9,0.23l-0.01,0.18l0.04,1.46l-0.01,0.26c-0.02,0.23-0.03,0.59-0.03,1.08c0,1.76,0.03,2.86,0.08,3.29v0.73
			l0.17,5.92c0,0.09-0.01,0.25-0.03,0.48c-0.02,0.23-0.03,0.44-0.03,0.61c0,0.41,0.03,0.73,0.1,0.95c0.21,0.06,0.81,0.2,1.82,0.43
			c0.47,0.11,0.72,0.18,0.77,0.19c0.07,0.03,0.13,0.08,0.18,0.17c-0.03,0.13-0.08,0.21-0.14,0.25c-0.06,0.04-0.17,0.06-0.33,0.06
			c-0.1,0-0.35-0.02-0.73-0.06c-0.74-0.08-1.33-0.12-1.75-0.12l-2.28,0.09l-1.36-0.04c-0.09,0-0.34,0.01-0.75,0.03l-0.01-0.34
			l1.69-0.32c0.28-0.08,0.44-0.15,0.51-0.23c0.09-0.12,0.13-0.36,0.13-0.71c0-0.08,0-0.25,0.01-0.5c0.01-0.18,0.01-0.43,0.01-0.75
			c0-1.02-0.04-3.19-0.13-6.52c-0.04-1.55-0.05-3.14-0.05-4.74v-0.22c0-0.62-0.09-1.02-0.28-1.18c-0.32-0.28-1.12-0.52-2.4-0.7
			c-0.04-0.09-0.06-0.17-0.06-0.23C87.12,163.66,87.14,163.58,87.2,163.48z"/>
		<path class="st16" d="M102.28,180.07l-0.05-0.17c0-0.06,0.04-0.15,0.12-0.27l0.76-0.16l1.08-0.19c0.09-0.04,0.15-0.1,0.18-0.18
			c0.05-0.11,0.08-0.44,0.08-1c0-2.93-0.02-4.63-0.05-5.08c-0.03-0.45-0.11-0.74-0.23-0.86c-0.12-0.12-0.43-0.22-0.93-0.28
			c-0.29-0.04-0.53-0.1-0.7-0.17l0.05-0.4c0.91-0.37,1.52-0.69,1.83-0.96c0.43-0.39,0.8-0.9,1.1-1.53l0.44,0.01
			c0.05,0.43,0.08,1.39,0.08,2.88l-0.01,0.22c0,0.05,0.01,0.13,0.03,0.25c0.33-0.6,0.74-1.14,1.23-1.65l0.3-0.3
			c0.12-0.14,0.24-0.25,0.35-0.32c0.61-0.36,1.05-0.55,1.35-0.55c0.38,0,0.69,0.13,0.93,0.38c0.24,0.25,0.36,0.57,0.36,0.94
			c0,0.29-0.09,0.52-0.26,0.69c-0.23,0.22-0.5,0.32-0.8,0.32c-0.14,0-0.41-0.07-0.82-0.22c-0.41-0.15-0.67-0.22-0.8-0.22
			c-0.24,0-0.41,0.04-0.51,0.12c-0.24,0.19-0.54,0.58-0.88,1.17c-0.27,0.44-0.4,0.85-0.4,1.22l0.06,2.14l0.03,2.57
			c0.03,0.29,0.06,0.49,0.1,0.57c0.03,0.06,0.12,0.13,0.26,0.22c0.93,0.08,1.49,0.13,1.66,0.17c0.12,0.01,0.21,0.02,0.27,0.03
			c0.37,0.01,0.63,0.06,0.78,0.16c0.08,0.04,0.12,0.11,0.12,0.19c0,0.05-0.03,0.12-0.1,0.21l-1.44-0.03l-0.54-0.01l-0.79,0.01h-1.32
			l-0.71,0.04L102.28,180.07z"/>
		<path class="st16" d="M111.74,174.82c0-0.59,0.12-1.22,0.37-1.89c0.25-0.67,0.62-1.27,1.12-1.8c0.5-0.53,1.03-0.93,1.6-1.19
			c0.79-0.36,1.75-0.55,2.88-0.55c1.62,0,2.97,0.55,4.05,1.66c1.08,1.11,1.63,2.44,1.63,3.99c0,1.38-0.57,2.62-1.71,3.7
			c-1.14,1.09-2.57,1.63-4.31,1.63c-1.07,0-2.08-0.28-3.03-0.84c-0.71-0.42-1.32-1.05-1.83-1.88
			C112,176.83,111.74,175.88,111.74,174.82z M117.48,179.87c0.66,0,1.29-0.18,1.9-0.53c0.61-0.35,1.1-0.92,1.46-1.71
			c0.36-0.78,0.55-1.69,0.55-2.72c0-0.68-0.14-1.46-0.42-2.35c-0.28-0.89-0.71-1.56-1.3-2c-0.59-0.45-1.27-0.67-2.06-0.67
			c-0.57,0-1.15,0.13-1.75,0.4c-0.59,0.27-1.09,0.78-1.51,1.54c-0.41,0.76-0.62,1.84-0.62,3.24c0,1.57,0.36,2.76,1.07,3.57
			C115.52,179.47,116.41,179.87,117.48,179.87z"/>
		<path class="st16" d="M129.3,169.93c2.15,0.05,3.3,0.08,3.44,0.08c0.02,0.19,0.03,0.33,0.03,0.43c0,0.11-0.01,0.28-0.04,0.51
			c-0.22,0.03-0.44,0.05-0.66,0.05h-0.49c-1.07,0-1.82,0.04-2.23,0.12c-0.02,0.2-0.03,0.35-0.03,0.45c0,0.04,0,0.11,0.01,0.19
			c0.04,1.36,0.07,2.18,0.07,2.46l-0.03,3.33c0,0.49,0.08,0.9,0.25,1.23c0.09,0.19,0.27,0.34,0.53,0.45
			c0.16,0.08,0.56,0.16,1.19,0.23c0.48,0.07,0.8,0.12,0.96,0.14c0,0.18-0.01,0.32-0.04,0.41l-0.18,0.01
			c-0.42-0.03-0.96-0.05-1.62-0.06l-0.96-0.04l-3.27,0.1h-0.43l-0.01-0.4c0.13-0.03,0.22-0.05,0.29-0.06
			c0.74-0.14,1.22-0.29,1.44-0.47c0.09-0.07,0.15-0.19,0.18-0.38c0.02-0.1,0.03-0.59,0.03-1.45c0-2.46-0.02-4.43-0.07-5.9
			c-0.22-0.07-0.57-0.11-1.04-0.13c-0.17,0-0.45-0.02-0.82-0.05l-0.03-0.14c0-0.11,0.04-0.19,0.13-0.26
			c0.03-0.03,0.4-0.21,1.09-0.54c0.27-0.12,0.46-0.27,0.57-0.45c0.06-0.1,0.1-0.29,0.1-0.6c0.01-0.14,0.03-0.38,0.08-0.71
			c0.1-0.89,0.19-1.44,0.25-1.65c0.16-0.58,0.42-1.16,0.78-1.73c0.37-0.58,0.81-1.08,1.33-1.51c0.38-0.31,0.81-0.55,1.29-0.7
			c0.48-0.16,1.03-0.23,1.64-0.23c0.82,0,1.42,0.13,1.8,0.4c0.26,0.18,0.39,0.41,0.39,0.7c0,0.24-0.09,0.45-0.27,0.62
			c-0.18,0.17-0.41,0.26-0.67,0.26c-0.33,0-0.68-0.08-1.06-0.25c-0.72-0.28-1.12-0.44-1.22-0.47c-0.16-0.04-0.33-0.06-0.51-0.06
			c-0.48,0-0.91,0.15-1.3,0.46c-0.39,0.3-0.64,0.68-0.75,1.12c-0.1,0.44-0.16,1.44-0.16,2.98
			C129.29,168.96,129.29,169.47,129.3,169.93z"/>
		<path class="st16" d="M143.56,173.18l-5.2,0.04l-0.99,0c-0.4,0-0.8,0.02-1.22,0.05c-0.08,0.26-0.12,0.44-0.12,0.53l0.01,0.13v0.13
			l-0.01,0.64c0,0.53,0.17,1.17,0.5,1.94c0.33,0.76,0.81,1.35,1.43,1.75c0.62,0.4,1.39,0.62,2.32,0.64
			c0.49-0.03,0.89-0.09,1.18-0.18c0.29-0.09,0.71-0.31,1.24-0.66l0.93-0.76l0.08,0.52c0,0.06,0,0.13-0.01,0.19
			c-0.39,0.49-0.88,0.92-1.48,1.3c-0.6,0.37-1.2,0.64-1.82,0.82c-0.29,0.08-0.78,0.12-1.45,0.12c-0.61,0-1.22-0.12-1.82-0.38
			c-0.88-0.38-1.58-0.99-2.08-1.83c-0.51-0.84-0.76-1.87-0.76-3.07c0-0.38,0.07-0.87,0.21-1.47c0.14-0.6,0.4-1.23,0.77-1.91
			c0.25-0.46,0.56-0.83,0.92-1.13c0.52-0.41,0.97-0.7,1.36-0.87c0.56-0.23,1.21-0.35,1.96-0.35c0.8,0,1.46,0.15,1.97,0.44
			c0.69,0.39,1.21,0.89,1.55,1.5c0.34,0.61,0.51,1.18,0.51,1.69V173.18z M136.32,172.71h0.61c0.44,0,1.76-0.07,3.94-0.21
			c0.35-0.02,0.56-0.05,0.64-0.1c0.16-0.16,0.23-0.31,0.23-0.44c0-0.27-0.09-0.57-0.26-0.91c-0.17-0.34-0.44-0.61-0.8-0.79
			c-0.36-0.19-0.78-0.28-1.25-0.28c-1,0-1.81,0.38-2.41,1.13C136.56,171.68,136.32,172.21,136.32,172.71z"/>
		<path class="st16" d="M146.4,176.73c0.32,0.82,0.56,1.35,0.73,1.6c0.33,0.49,0.72,0.88,1.18,1.15c0.46,0.27,0.95,0.41,1.49,0.41
			c0.49,0,0.98-0.21,1.47-0.64c0.35-0.32,0.52-0.69,0.52-1.11c0-0.56-0.2-1.08-0.61-1.56c-0.41-0.47-1.18-0.91-2.32-1.34
			c-1.14-0.43-1.9-0.88-2.29-1.37c-0.39-0.48-0.58-1.04-0.58-1.66c0-0.59,0.16-1.11,0.48-1.56c0.32-0.45,0.76-0.79,1.32-1.02
			c0.56-0.23,1.08-0.34,1.56-0.34c0.61,0,1.16,0.05,1.65,0.14c0.49,0.09,0.91,0.24,1.26,0.44c0.07,0.44,0.13,1.09,0.17,1.95
			l0.03,0.41c-0.11,0.01-0.21,0.01-0.29,0.01h-0.18c-0.26-0.72-0.66-1.29-1.19-1.71c-0.53-0.42-1.06-0.63-1.58-0.63
			c-0.52,0-0.94,0.16-1.26,0.47c-0.32,0.32-0.48,0.73-0.48,1.24c0,0.39,0.13,0.74,0.39,1.04c0.26,0.3,0.87,0.65,1.82,1.03
			c0.95,0.39,1.65,0.75,2.09,1.08c0.44,0.33,0.76,0.74,0.97,1.21c0.21,0.48,0.31,0.93,0.31,1.36c0,0.6-0.2,1.15-0.59,1.67
			c-0.39,0.52-0.89,0.89-1.48,1.1c-0.59,0.21-1.12,0.32-1.59,0.32c-1.1,0-2.11-0.2-3.03-0.61c-0.09-0.07-0.13-0.2-0.14-0.39
			c0-0.08-0.01-0.2-0.03-0.38c-0.14-1.17-0.21-1.86-0.21-2.07c0-0.1,0.02-0.17,0.07-0.21C146.11,176.75,146.22,176.73,146.4,176.73z
			"/>
		<path class="st16" d="M156.28,176.73c0.32,0.82,0.56,1.35,0.73,1.6c0.33,0.49,0.72,0.88,1.18,1.15c0.46,0.27,0.95,0.41,1.49,0.41
			c0.49,0,0.98-0.21,1.47-0.64c0.35-0.32,0.52-0.69,0.52-1.11c0-0.56-0.2-1.08-0.61-1.56c-0.41-0.47-1.18-0.91-2.32-1.34
			c-1.14-0.43-1.9-0.88-2.29-1.37c-0.39-0.48-0.58-1.04-0.58-1.66c0-0.59,0.16-1.11,0.48-1.56c0.32-0.45,0.76-0.79,1.32-1.02
			c0.56-0.23,1.08-0.34,1.56-0.34c0.61,0,1.16,0.05,1.65,0.14c0.49,0.09,0.91,0.24,1.26,0.44c0.07,0.44,0.13,1.09,0.17,1.95
			l0.03,0.41c-0.11,0.01-0.21,0.01-0.29,0.01h-0.18c-0.26-0.72-0.66-1.29-1.19-1.71c-0.53-0.42-1.06-0.63-1.58-0.63
			c-0.52,0-0.94,0.16-1.26,0.47c-0.32,0.32-0.48,0.73-0.48,1.24c0,0.39,0.13,0.74,0.39,1.04c0.26,0.3,0.87,0.65,1.82,1.03
			c0.95,0.39,1.65,0.75,2.09,1.08c0.44,0.33,0.76,0.74,0.97,1.21c0.21,0.48,0.31,0.93,0.31,1.36c0,0.6-0.2,1.15-0.59,1.67
			c-0.39,0.52-0.89,0.89-1.48,1.1c-0.59,0.21-1.12,0.32-1.59,0.32c-1.1,0-2.11-0.2-3.03-0.61c-0.09-0.07-0.13-0.2-0.14-0.39
			c0-0.08-0.01-0.2-0.03-0.38c-0.14-1.17-0.21-1.86-0.21-2.07c0-0.1,0.02-0.17,0.07-0.21C155.98,176.75,156.09,176.73,156.28,176.73
			z"/>
		<path class="st16" d="M165.03,170.82l0.01-0.38c0.56-0.16,0.86-0.26,0.91-0.29c0.31-0.14,0.64-0.35,0.98-0.64
			c0.34-0.29,0.63-0.61,0.86-0.96c0.1-0.02,0.19-0.03,0.25-0.03l0.16,0.01c0.03,0.41,0.05,0.72,0.05,0.91
			c0,0.04-0.01,0.24-0.03,0.58v0.69l0.01,3.73l-0.04,3.96c-0.01,0.32,0.04,0.54,0.15,0.67c0.11,0.12,0.45,0.27,1,0.42
			c0.35,0.09,0.61,0.18,0.78,0.25c0.03,0.06,0.04,0.11,0.04,0.16c0,0.05-0.02,0.12-0.07,0.19c-0.34-0.01-0.77-0.03-1.3-0.06
			c-0.72-0.06-1.19-0.09-1.43-0.09c-0.11,0-0.8,0.02-2.07,0.07c-0.26,0.01-0.51,0.03-0.75,0.06c-0.04,0-0.11-0.01-0.21-0.04
			c-0.04-0.06-0.06-0.11-0.06-0.16c0-0.12,0.08-0.22,0.25-0.28c0.03-0.02,0.48-0.12,1.32-0.3c0.28-0.05,0.46-0.14,0.55-0.26
			c0.15-0.18,0.22-0.47,0.22-0.87c0.02-0.66,0.03-2.49,0.03-5.46c0-0.6-0.03-0.97-0.08-1.11c-0.04-0.1-0.16-0.22-0.34-0.36
			C166.03,171.1,165.64,170.96,165.03,170.82z M166.12,164.09c0-0.29,0.11-0.53,0.33-0.74c0.22-0.21,0.49-0.31,0.8-0.31
			c0.32,0,0.6,0.12,0.84,0.35c0.24,0.23,0.36,0.48,0.36,0.75c0,0.27-0.12,0.52-0.36,0.76c-0.24,0.24-0.52,0.36-0.84,0.36
			c-0.32,0-0.59-0.11-0.8-0.32C166.23,164.72,166.12,164.44,166.12,164.09z"/>
		<path class="st16" d="M171.5,174.82c0-0.59,0.12-1.22,0.37-1.89c0.25-0.67,0.62-1.27,1.12-1.8c0.5-0.53,1.03-0.93,1.6-1.19
			c0.79-0.36,1.75-0.55,2.88-0.55c1.62,0,2.97,0.55,4.05,1.66c1.08,1.11,1.63,2.44,1.63,3.99c0,1.38-0.57,2.62-1.71,3.7
			c-1.14,1.09-2.57,1.63-4.31,1.63c-1.07,0-2.08-0.28-3.03-0.84c-0.71-0.42-1.32-1.05-1.83-1.88
			C171.75,176.83,171.5,175.88,171.5,174.82z M177.23,179.87c0.66,0,1.29-0.18,1.9-0.53c0.61-0.35,1.1-0.92,1.46-1.71
			c0.36-0.78,0.55-1.69,0.55-2.72c0-0.68-0.14-1.46-0.42-2.35c-0.28-0.89-0.71-1.56-1.3-2c-0.59-0.45-1.27-0.67-2.06-0.67
			c-0.57,0-1.15,0.13-1.75,0.4c-0.59,0.27-1.09,0.78-1.51,1.54c-0.41,0.76-0.62,1.84-0.62,3.24c0,1.57,0.36,2.76,1.07,3.57
			C175.28,179.47,176.17,179.87,177.23,179.87z"/>
		<path class="st16" d="M184.78,179.6c0.22-0.06,0.47-0.11,0.75-0.16c0.54-0.08,0.87-0.17,0.98-0.27c0.11-0.1,0.16-0.34,0.16-0.71
			l0.03-0.46c0.01-0.17,0.01-0.39,0.01-0.66l-0.03-3.97c0-0.53-0.07-0.88-0.21-1.03c-0.23-0.24-0.67-0.41-1.3-0.5v-0.47
			c0.63-0.17,1.12-0.4,1.45-0.68c0.49-0.39,0.91-0.92,1.24-1.59l0.44,0.01c0.03,0.41,0.04,0.7,0.04,0.87v0.86l0.01,0.23
			c0.1-0.07,0.22-0.16,0.36-0.26c0.52-0.39,1.05-0.71,1.59-0.96c0.55-0.25,1.03-0.42,1.45-0.51c0.27-0.07,0.57-0.1,0.91-0.1
			c0.71,0,1.32,0.19,1.83,0.57c0.51,0.38,0.84,0.83,0.99,1.34c0.15,0.52,0.23,1.54,0.23,3.07v1.96c0,0.05-0.01,0.23-0.02,0.52
			c-0.01,0.29-0.02,0.63-0.02,1.01c0,0.61,0.03,0.99,0.08,1.16c0.04,0.11,0.15,0.22,0.34,0.34c0.83,0.11,1.31,0.25,1.45,0.4v0.1
			c0,0.09-0.03,0.19-0.08,0.32h-0.25l-1.71-0.03l-1.69,0.04c-0.62,0.02-1.2,0.01-1.72-0.01l-0.08-0.27c0-0.05,0.03-0.12,0.09-0.21
			c0.23-0.1,0.56-0.17,0.99-0.21c0.25-0.02,0.42-0.04,0.52-0.08c0.1-0.03,0.21-0.1,0.35-0.21c0.1-0.21,0.16-0.38,0.16-0.52
			c0-0.06-0.01-0.18-0.03-0.36c-0.03-0.4-0.04-1.39-0.05-2.97v-0.68l0.03-1.04c0-1.12-0.22-1.89-0.67-2.31
			c-0.45-0.42-1.05-0.64-1.8-0.64c-0.58,0-1.15,0.13-1.7,0.38c-0.55,0.25-1.09,0.64-1.61,1.15c-0.02,0.41-0.03,0.77-0.03,1.06
			l0.04,2.87c0,1.5,0.02,2.41,0.06,2.75c0.02,0.14,0.05,0.23,0.09,0.28c0.07,0.07,0.21,0.13,0.41,0.17c0.21,0.04,0.45,0.1,0.72,0.18
			c0.27,0.08,0.45,0.13,0.54,0.14c0.17,0.04,0.29,0.13,0.35,0.26l-0.01,0.26h-1.36l-2.8-0.04c-0.65,0.01-1.06,0.01-1.23,0.01h-0.32
			l-0.03-0.17C184.74,179.8,184.75,179.71,184.78,179.6z"/>
		<path class="st16" d="M208.57,178.27c0.05,0.11,0.08,0.19,0.08,0.25c0,0.13-0.1,0.36-0.31,0.69c-0.27,0.43-0.57,0.75-0.89,0.95
			c-0.21,0.13-0.49,0.19-0.86,0.19c-0.62,0-1.09-0.19-1.4-0.57c-0.19-0.22-0.32-0.63-0.4-1.21l-1.45,1.01
			c-0.51,0.29-0.9,0.48-1.17,0.56c-0.43,0.11-0.95,0.17-1.56,0.17c-0.44,0-0.79-0.13-1.04-0.4c-0.26-0.26-0.38-0.6-0.38-1.02
			c0-0.6,0.37-1.31,1.1-2.14c0.73-0.83,1.73-1.51,2.98-2.04c0.88-0.37,1.43-0.61,1.62-0.71c0.02-0.29,0.03-0.6,0.03-0.93
			c0-1.1-0.15-1.84-0.46-2.23c-0.31-0.39-0.75-0.58-1.32-0.58c-0.6,0-1.16,0.23-1.68,0.7c-0.32,0.29-0.56,0.85-0.73,1.66
			c-0.05,0.22-0.15,0.47-0.3,0.73c-0.37,0.24-0.67,0.36-0.89,0.36c-0.19,0-0.36-0.06-0.52-0.17c-0.09-0.06-0.13-0.13-0.13-0.21
			c0-0.22,0.24-0.73,0.72-1.52c0.48-0.79,1.08-1.38,1.82-1.78c0.73-0.39,1.37-0.59,1.91-0.59c0.74,0,1.3,0.07,1.66,0.2
			c0.36,0.13,0.68,0.37,0.96,0.71c0.28,0.34,0.44,0.71,0.51,1.1c0.03,0.19,0.05,0.87,0.05,2.04l-0.04,2.06l0.01,1.5
			c0,0.2,0,0.37-0.01,0.51c-0.01,0.25-0.01,0.44-0.01,0.56c0,0.28,0.08,0.51,0.25,0.69c0.16,0.17,0.36,0.26,0.58,0.26
			c0.33,0,0.61-0.16,0.84-0.49l0.16-0.21C208.32,178.33,208.42,178.3,208.57,178.27z M204.77,177.89c0.06-1.1,0.09-1.87,0.09-2.32
			c0-0.23-0.01-0.55-0.04-0.95c-0.58,0.21-1.2,0.52-1.85,0.95c-0.65,0.42-1.17,0.91-1.55,1.47c-0.28,0.4-0.42,0.77-0.42,1.13
			c0,0.34,0.11,0.62,0.34,0.84c0.23,0.22,0.52,0.34,0.87,0.34c0.27,0,0.59-0.1,0.98-0.29C203.7,178.81,204.22,178.42,204.77,177.89z
			"/>
		<path class="st16" d="M209.67,163.96v-0.28c0.24-0.08,0.51-0.16,0.8-0.25c0.43-0.14,1.08-0.35,1.93-0.64h0.61
			c0,0.41,0,0.65,0,0.71c0,7.1-0.02,11.34-0.07,12.71c-0.03,0.8-0.04,1.23-0.04,1.28c0,0.97,0.04,1.51,0.12,1.62
			c0.1,0.16,0.42,0.26,0.95,0.32c0.53,0.06,0.85,0.12,0.94,0.18c0.07,0.03,0.1,0.1,0.1,0.18c0,0.09-0.02,0.16-0.06,0.2
			c-0.04,0.04-0.11,0.06-0.21,0.06c-0.06,0-0.51-0.02-1.36-0.04l-1.7-0.06l-2.18,0.1c-0.14,0.01-0.24-0.02-0.31-0.08
			c-0.05-0.04-0.08-0.11-0.08-0.19c0-0.09,0.03-0.15,0.08-0.19c0.06-0.04,0.37-0.11,0.93-0.2c0.57-0.09,0.89-0.17,0.97-0.24
			c0.08-0.06,0.14-0.21,0.16-0.43c0.03-0.31,0.05-1.19,0.05-2.63l-0.01-2.98l0.04-3.09l-0.01-3.09l0.04-1.52
			c0-0.3-0.05-0.52-0.14-0.65c-0.09-0.13-0.3-0.27-0.61-0.4C210.17,164.19,209.85,164.05,209.67,163.96z"/>
		<path class="st16" d="M237.46,164.16c0.1,0.67,0.16,1.35,0.16,2.05c0,0.14,0,0.32-0.01,0.56c-0.12,0.03-0.21,0.04-0.27,0.04
			c-0.05,0-0.13-0.01-0.22-0.03c-0.36-1.01-0.96-1.79-1.78-2.33c-0.82-0.55-1.84-0.82-3.05-0.82c-0.64,0-1.18,0.07-1.62,0.22
			c-0.78,0.27-1.46,0.64-2.05,1.11c-0.59,0.47-1.09,1.03-1.49,1.69c-0.41,0.65-0.73,1.44-0.97,2.37c-0.24,0.93-0.36,1.88-0.36,2.85
			c0,1.85,0.28,3.38,0.84,4.58c0.56,1.21,1.33,2.07,2.31,2.58c0.98,0.51,1.96,0.77,2.96,0.77l0.61-0.01
			c0.69-0.09,1.16-0.17,1.41-0.25c0.63-0.18,1.15-0.4,1.56-0.64c0.41-0.25,0.81-0.59,1.21-1.04c0.39-0.45,0.73-0.97,1-1.57
			l0.16-0.05c0.04,0,0.11,0.03,0.19,0.08c-0.01,0.21-0.02,0.34-0.03,0.4c-0.36,1.46-0.63,2.46-0.79,3
			c-0.14,0.03-0.31,0.09-0.52,0.16c-1.01,0.35-2.36,0.52-4.06,0.52c-1.37,0-2.39-0.09-3.07-0.28c-0.68-0.19-1.42-0.47-2.22-0.87
			c-0.8-0.39-1.5-0.91-2.11-1.56c-0.61-0.65-1.09-1.47-1.47-2.46c-0.37-0.99-0.56-2.07-0.56-3.24c0-1.11,0.15-2.07,0.44-2.9
			c0.29-0.83,0.75-1.66,1.36-2.51c0.61-0.85,1.34-1.55,2.17-2.11c0.83-0.56,1.76-0.96,2.78-1.19c0.72-0.16,1.73-0.23,3.05-0.23
			c0.96,0,1.86,0.13,2.71,0.38C236.61,163.67,237.17,163.91,237.46,164.16z"/>
		<path class="st16" d="M240.1,174.82c0-0.59,0.12-1.22,0.37-1.89c0.25-0.67,0.62-1.27,1.12-1.8c0.5-0.53,1.03-0.93,1.6-1.19
			c0.79-0.36,1.75-0.55,2.88-0.55c1.62,0,2.97,0.55,4.05,1.66c1.08,1.11,1.63,2.44,1.63,3.99c0,1.38-0.57,2.62-1.71,3.7
			c-1.14,1.09-2.57,1.63-4.31,1.63c-1.07,0-2.08-0.28-3.03-0.84c-0.71-0.42-1.32-1.05-1.83-1.88
			C240.35,176.83,240.1,175.88,240.1,174.82z M245.84,179.87c0.66,0,1.29-0.18,1.9-0.53c0.61-0.35,1.1-0.92,1.46-1.71
			c0.36-0.78,0.55-1.69,0.55-2.72c0-0.68-0.14-1.46-0.42-2.35c-0.28-0.89-0.71-1.56-1.3-2c-0.59-0.45-1.27-0.67-2.06-0.67
			c-0.57,0-1.15,0.13-1.75,0.4c-0.59,0.27-1.09,0.78-1.51,1.54c-0.41,0.76-0.62,1.84-0.62,3.24c0,1.57,0.36,2.76,1.07,3.57
			C243.88,179.47,244.77,179.87,245.84,179.87z"/>
		<path class="st16" d="M253.42,180.07l-0.05-0.17c0-0.06,0.04-0.15,0.12-0.27l0.76-0.16l1.08-0.19c0.09-0.04,0.15-0.1,0.18-0.18
			c0.05-0.11,0.08-0.44,0.08-1c0-2.93-0.02-4.63-0.05-5.08c-0.03-0.45-0.11-0.74-0.23-0.86c-0.12-0.12-0.43-0.22-0.93-0.28
			c-0.29-0.04-0.53-0.1-0.7-0.17l0.05-0.4c0.91-0.37,1.52-0.69,1.83-0.96c0.43-0.39,0.8-0.9,1.1-1.53l0.44,0.01
			c0.05,0.43,0.08,1.39,0.08,2.88l-0.01,0.22c0,0.05,0.01,0.13,0.03,0.25c0.33-0.6,0.74-1.14,1.23-1.65l0.3-0.3
			c0.12-0.14,0.24-0.25,0.35-0.32c0.61-0.36,1.05-0.55,1.35-0.55c0.38,0,0.69,0.13,0.93,0.38c0.24,0.25,0.36,0.57,0.36,0.94
			c0,0.29-0.09,0.52-0.26,0.69c-0.23,0.22-0.5,0.32-0.8,0.32c-0.14,0-0.41-0.07-0.82-0.22c-0.41-0.15-0.67-0.22-0.8-0.22
			c-0.24,0-0.41,0.04-0.51,0.12c-0.24,0.19-0.54,0.58-0.88,1.17c-0.27,0.44-0.4,0.85-0.4,1.22l0.06,2.14l0.03,2.57
			c0.03,0.29,0.06,0.49,0.1,0.57c0.03,0.06,0.12,0.13,0.26,0.22c0.93,0.08,1.49,0.13,1.66,0.17c0.12,0.01,0.21,0.02,0.27,0.03
			c0.37,0.01,0.63,0.06,0.78,0.16c0.08,0.04,0.12,0.11,0.12,0.19c0,0.05-0.03,0.12-0.1,0.21l-1.44-0.03l-0.54-0.01l-0.79,0.01h-1.32
			l-0.71,0.04L253.42,180.07z"/>
		<path class="st16" d="M262.56,186.81c-0.01-0.1-0.01-0.19-0.01-0.27c0-0.06,0.01-0.14,0.03-0.23l1.31-0.26
			c0.21-0.1,0.38-0.23,0.51-0.37c0.04-0.16,0.06-0.31,0.06-0.47c0-1.33-0.03-3.87-0.1-7.61l-0.04-4.74
			c-0.02-0.75-0.07-1.23-0.14-1.43c-0.04-0.1-0.11-0.19-0.19-0.25c-0.22-0.16-0.65-0.3-1.3-0.41l0.08-0.4
			c0.93-0.4,1.56-0.71,1.87-0.93c0.32-0.22,0.62-0.53,0.9-0.93l0.16-0.04c0.06,0,0.15,0.03,0.26,0.08c-0.01,0.55-0.01,0.9-0.01,1.08
			l0.01,1.43c0.64-0.48,1.31-0.84,2-1.08c0.69-0.24,1.41-0.36,2.15-0.36c1.33,0,2.46,0.47,3.37,1.41c0.92,0.94,1.38,2.15,1.38,3.62
			c0,1.1-0.26,2.08-0.77,2.96c-0.52,0.87-1.23,1.53-2.13,1.96c-0.9,0.43-1.82,0.65-2.73,0.65c-0.78,0-1.67-0.21-2.68-0.64
			c-0.16-0.07-0.31-0.13-0.44-0.18c-0.02,0.69-0.03,1.31-0.03,1.85c0,2.68,0.07,4.17,0.22,4.49c0.08,0.17,0.32,0.28,0.73,0.31
			c0.7,0.05,1.16,0.15,1.38,0.3c0.13,0.08,0.22,0.23,0.26,0.47l-1.29,0.03l-1.17-0.03l-1.95,0.01L262.56,186.81z M265.96,171.96
			c-0.02,0.12-0.03,0.23-0.03,0.34c0,3.09,0.03,4.82,0.09,5.19c0.12,0.68,0.36,1.16,0.73,1.44c0.56,0.44,1.37,0.66,2.41,0.66
			c1.08,0,1.99-0.37,2.74-1.12c0.74-0.75,1.12-1.72,1.12-2.91c0-1.44-0.39-2.57-1.18-3.41c-0.79-0.84-1.82-1.26-3.11-1.26
			c-0.55,0-1.05,0.09-1.5,0.27C266.76,171.33,266.34,171.6,265.96,171.96z"/>
		<path class="st16" d="M276.94,174.82c0-0.59,0.12-1.22,0.37-1.89c0.25-0.67,0.62-1.27,1.12-1.8c0.5-0.53,1.03-0.93,1.6-1.19
			c0.79-0.36,1.75-0.55,2.88-0.55c1.62,0,2.97,0.55,4.05,1.66c1.08,1.11,1.63,2.44,1.63,3.99c0,1.38-0.57,2.62-1.71,3.7
			c-1.14,1.09-2.57,1.63-4.31,1.63c-1.07,0-2.08-0.28-3.03-0.84c-0.71-0.42-1.32-1.05-1.83-1.88
			C277.19,176.83,276.94,175.88,276.94,174.82z M282.68,179.87c0.66,0,1.29-0.18,1.9-0.53c0.61-0.35,1.1-0.92,1.46-1.71
			c0.36-0.78,0.55-1.69,0.55-2.72c0-0.68-0.14-1.46-0.42-2.35c-0.28-0.89-0.71-1.56-1.3-2c-0.59-0.45-1.27-0.67-2.06-0.67
			c-0.57,0-1.15,0.13-1.75,0.4c-0.59,0.27-1.09,0.78-1.51,1.54s-0.62,1.84-0.62,3.24c0,1.57,0.36,2.76,1.07,3.57
			C280.72,179.47,281.61,179.87,282.68,179.87z"/>
		<path class="st16" d="M290.26,180.07l-0.05-0.17c0-0.06,0.04-0.15,0.12-0.27l0.76-0.16l1.08-0.19c0.09-0.04,0.15-0.1,0.18-0.18
			c0.05-0.11,0.08-0.44,0.08-1c0-2.93-0.02-4.63-0.05-5.08c-0.03-0.45-0.11-0.74-0.23-0.86c-0.12-0.12-0.43-0.22-0.93-0.28
			c-0.29-0.04-0.53-0.1-0.7-0.17l0.05-0.4c0.91-0.37,1.52-0.69,1.83-0.96c0.43-0.39,0.8-0.9,1.1-1.53l0.44,0.01
			c0.05,0.43,0.08,1.39,0.08,2.88l-0.01,0.22c0,0.05,0.01,0.13,0.03,0.25c0.33-0.6,0.74-1.14,1.23-1.65l0.3-0.3
			c0.12-0.14,0.24-0.25,0.35-0.32c0.61-0.36,1.05-0.55,1.35-0.55c0.38,0,0.69,0.13,0.93,0.38c0.24,0.25,0.36,0.57,0.36,0.94
			c0,0.29-0.09,0.52-0.26,0.69c-0.23,0.22-0.5,0.32-0.8,0.32c-0.14,0-0.41-0.07-0.82-0.22c-0.41-0.15-0.67-0.22-0.8-0.22
			c-0.24,0-0.41,0.04-0.51,0.12c-0.24,0.19-0.54,0.58-0.88,1.17c-0.27,0.44-0.4,0.85-0.4,1.22l0.06,2.14l0.03,2.57
			c0.03,0.29,0.06,0.49,0.1,0.57c0.03,0.06,0.12,0.13,0.26,0.22c0.93,0.08,1.49,0.13,1.66,0.17c0.12,0.01,0.21,0.02,0.27,0.03
			c0.37,0.01,0.63,0.06,0.78,0.16c0.08,0.04,0.12,0.11,0.12,0.19c0,0.05-0.03,0.12-0.1,0.21l-1.44-0.03l-0.54-0.01l-0.79,0.01h-1.32
			l-0.71,0.04L290.26,180.07z"/>
		<path class="st16" d="M309.31,178.27c0.05,0.11,0.08,0.19,0.08,0.25c0,0.13-0.1,0.36-0.31,0.69c-0.27,0.43-0.57,0.75-0.89,0.95
			c-0.21,0.13-0.49,0.19-0.86,0.19c-0.62,0-1.09-0.19-1.4-0.57c-0.19-0.22-0.32-0.63-0.4-1.21l-1.45,1.01
			c-0.51,0.29-0.9,0.48-1.17,0.56c-0.43,0.11-0.95,0.17-1.56,0.17c-0.44,0-0.79-0.13-1.04-0.4c-0.26-0.26-0.38-0.6-0.38-1.02
			c0-0.6,0.37-1.31,1.1-2.14c0.73-0.83,1.73-1.51,2.98-2.04c0.88-0.37,1.43-0.61,1.62-0.71c0.02-0.29,0.03-0.6,0.03-0.93
			c0-1.1-0.15-1.84-0.46-2.23c-0.31-0.39-0.75-0.58-1.32-0.58c-0.6,0-1.16,0.23-1.68,0.7c-0.32,0.29-0.56,0.85-0.73,1.66
			c-0.05,0.22-0.15,0.47-0.3,0.73c-0.37,0.24-0.67,0.36-0.89,0.36c-0.19,0-0.36-0.06-0.52-0.17c-0.09-0.06-0.13-0.13-0.13-0.21
			c0-0.22,0.24-0.73,0.72-1.52c0.48-0.79,1.08-1.38,1.82-1.78c0.73-0.39,1.37-0.59,1.91-0.59c0.74,0,1.3,0.07,1.66,0.2
			c0.36,0.13,0.68,0.37,0.96,0.71c0.28,0.34,0.45,0.71,0.51,1.1c0.03,0.19,0.05,0.87,0.05,2.04l-0.04,2.06l0.01,1.5
			c0,0.2,0,0.37-0.01,0.51c-0.01,0.25-0.01,0.44-0.01,0.56c0,0.28,0.08,0.51,0.25,0.69c0.16,0.17,0.36,0.26,0.58,0.26
			c0.33,0,0.61-0.16,0.84-0.49l0.16-0.21C309.07,178.33,309.17,178.3,309.31,178.27z M305.52,177.89c0.06-1.1,0.09-1.87,0.09-2.32
			c0-0.23-0.01-0.55-0.04-0.95c-0.58,0.21-1.2,0.52-1.85,0.95c-0.65,0.42-1.17,0.91-1.55,1.47c-0.28,0.4-0.42,0.77-0.42,1.13
			c0,0.34,0.11,0.62,0.34,0.84c0.23,0.22,0.52,0.34,0.87,0.34c0.27,0,0.59-0.1,0.98-0.29C304.44,178.81,304.97,178.42,305.52,177.89
			z"/>
		<path class="st16" d="M313.46,167.22l0.4,0.01l0.05,1.23l-0.03,1.6c0.16,0.01,0.27,0.01,0.31,0.01c0.22,0,0.65-0.02,1.28-0.05
			c0.41-0.03,0.8-0.04,1.17-0.04c0.17,0,0.43,0,0.78,0.01c0.02,0.17,0.03,0.31,0.03,0.41c0,0.11-0.03,0.29-0.08,0.53h-0.22
			l-2.01,0.06l-1,0.03l-0.23,0.03c-0.07,0.22-0.1,0.47-0.1,0.75l0.04,1.94l-0.03,3.42c0,0.9,0.12,1.5,0.35,1.79
			c0.22,0.3,0.56,0.45,1.01,0.45c0.22,0,0.65-0.07,1.27-0.21c0.19-0.04,0.44-0.19,0.77-0.43h0.12c0.08,0,0.14,0.02,0.19,0.07
			c0.05,0.05,0.07,0.11,0.07,0.19l-0.01,0.09c-0.37,0.41-0.8,0.7-1.28,0.89c-0.48,0.19-1.12,0.28-1.91,0.28
			c-0.56,0-1.03-0.13-1.39-0.39c-0.37-0.26-0.6-0.57-0.71-0.92c-0.1-0.35-0.16-1.13-0.16-2.32l0.05-2.92l-0.01-1.4v-0.52
			c0-0.24-0.01-0.48-0.03-0.73l-0.22-0.01l-1.06,0.04l-0.1,0.01c-0.1,0-0.17-0.02-0.21-0.06c-0.05-0.04-0.07-0.1-0.07-0.16
			c0-0.1,0.03-0.19,0.1-0.25c0.06-0.07,0.26-0.17,0.59-0.3c0.22-0.1,0.49-0.27,0.78-0.54c0.3-0.26,0.55-0.56,0.76-0.88
			c0.1-0.17,0.25-0.5,0.44-0.98C313.28,167.61,313.39,167.36,313.46,167.22z"/>
		<path class="st16" d="M318.43,170.82l0.01-0.38c0.56-0.16,0.86-0.26,0.91-0.29c0.31-0.14,0.64-0.35,0.98-0.64
			c0.34-0.29,0.63-0.61,0.86-0.96c0.1-0.02,0.19-0.03,0.25-0.03l0.16,0.01c0.03,0.41,0.05,0.72,0.05,0.91
			c0,0.04-0.01,0.24-0.03,0.58v0.69l0.01,3.73l-0.04,3.96c-0.01,0.32,0.04,0.54,0.15,0.67c0.11,0.12,0.45,0.27,1,0.42
			c0.35,0.09,0.61,0.18,0.78,0.25c0.03,0.06,0.04,0.11,0.04,0.16c0,0.05-0.02,0.12-0.07,0.19c-0.34-0.01-0.77-0.03-1.3-0.06
			c-0.72-0.06-1.19-0.09-1.43-0.09c-0.11,0-0.8,0.02-2.07,0.07c-0.26,0.01-0.51,0.03-0.75,0.06c-0.04,0-0.11-0.01-0.21-0.04
			c-0.04-0.06-0.06-0.11-0.06-0.16c0-0.12,0.08-0.22,0.25-0.28c0.03-0.02,0.48-0.12,1.32-0.3c0.28-0.05,0.46-0.14,0.55-0.26
			c0.15-0.18,0.22-0.47,0.22-0.87c0.02-0.66,0.03-2.49,0.03-5.46c0-0.6-0.03-0.97-0.08-1.11c-0.04-0.1-0.16-0.22-0.34-0.36
			C319.43,171.1,319.03,170.96,318.43,170.82z M319.52,164.09c0-0.29,0.11-0.53,0.33-0.74c0.22-0.21,0.49-0.31,0.8-0.31
			c0.32,0,0.6,0.12,0.84,0.35c0.24,0.23,0.36,0.48,0.36,0.75c0,0.27-0.12,0.52-0.36,0.76c-0.24,0.24-0.52,0.36-0.84,0.36
			c-0.32,0-0.59-0.11-0.8-0.32C319.62,164.72,319.52,164.44,319.52,164.09z"/>
		<path class="st16" d="M324.89,174.82c0-0.59,0.12-1.22,0.37-1.89c0.25-0.67,0.62-1.27,1.12-1.8c0.5-0.53,1.03-0.93,1.6-1.19
			c0.79-0.36,1.75-0.55,2.88-0.55c1.62,0,2.97,0.55,4.05,1.66c1.08,1.11,1.63,2.44,1.63,3.99c0,1.38-0.57,2.62-1.71,3.7
			c-1.14,1.09-2.57,1.63-4.31,1.63c-1.07,0-2.08-0.28-3.03-0.84c-0.71-0.42-1.32-1.05-1.83-1.88
			C325.14,176.83,324.89,175.88,324.89,174.82z M330.63,179.87c0.66,0,1.29-0.18,1.9-0.53c0.61-0.35,1.1-0.92,1.46-1.71
			c0.36-0.78,0.55-1.69,0.55-2.72c0-0.68-0.14-1.46-0.42-2.35c-0.28-0.89-0.71-1.56-1.3-2c-0.59-0.45-1.27-0.67-2.06-0.67
			c-0.57,0-1.15,0.13-1.75,0.4c-0.59,0.27-1.09,0.78-1.51,1.54c-0.41,0.76-0.62,1.84-0.62,3.24c0,1.57,0.36,2.76,1.07,3.57
			C328.67,179.47,329.56,179.87,330.63,179.87z"/>
		<path class="st16" d="M338.17,179.6c0.22-0.06,0.47-0.11,0.75-0.16c0.54-0.08,0.87-0.17,0.98-0.27c0.11-0.1,0.16-0.34,0.16-0.71
			l0.03-0.46c0.01-0.17,0.01-0.39,0.01-0.66l-0.03-3.97c0-0.53-0.07-0.88-0.21-1.03c-0.23-0.24-0.67-0.41-1.3-0.5v-0.47
			c0.63-0.17,1.12-0.4,1.45-0.68c0.49-0.39,0.91-0.92,1.24-1.59l0.44,0.01c0.03,0.41,0.04,0.7,0.04,0.87v0.86l0.01,0.23
			c0.1-0.07,0.22-0.16,0.36-0.26c0.52-0.39,1.05-0.71,1.59-0.96c0.55-0.25,1.03-0.42,1.45-0.51c0.27-0.07,0.57-0.1,0.91-0.1
			c0.71,0,1.32,0.19,1.83,0.57c0.51,0.38,0.84,0.83,0.99,1.34c0.15,0.52,0.23,1.54,0.23,3.07v1.96c0,0.05-0.01,0.23-0.02,0.52
			c-0.01,0.29-0.02,0.63-0.02,1.01c0,0.61,0.03,0.99,0.08,1.16c0.04,0.11,0.15,0.22,0.34,0.34c0.83,0.11,1.31,0.25,1.45,0.4v0.1
			c0,0.09-0.03,0.19-0.08,0.32h-0.25l-1.71-0.03l-1.69,0.04c-0.62,0.02-1.2,0.01-1.72-0.01l-0.08-0.27c0-0.05,0.03-0.12,0.09-0.21
			c0.23-0.1,0.56-0.17,0.99-0.21c0.25-0.02,0.42-0.04,0.52-0.08c0.1-0.03,0.21-0.1,0.35-0.21c0.1-0.21,0.16-0.38,0.16-0.52
			c0-0.06-0.01-0.18-0.03-0.36c-0.03-0.4-0.04-1.39-0.05-2.97v-0.68l0.03-1.04c0-1.12-0.22-1.89-0.67-2.31
			c-0.45-0.42-1.05-0.64-1.8-0.64c-0.58,0-1.15,0.13-1.7,0.38c-0.55,0.25-1.09,0.64-1.61,1.15c-0.02,0.41-0.03,0.77-0.03,1.06
			l0.04,2.87c0,1.5,0.02,2.41,0.06,2.75c0.02,0.14,0.05,0.23,0.09,0.28c0.07,0.07,0.21,0.13,0.41,0.17c0.21,0.04,0.45,0.1,0.72,0.18
			c0.27,0.08,0.45,0.13,0.54,0.14c0.17,0.04,0.29,0.13,0.35,0.26l-0.01,0.26h-1.36l-2.8-0.04c-0.65,0.01-1.06,0.01-1.23,0.01h-0.32
			l-0.03-0.17C338.13,179.8,338.15,179.71,338.17,179.6z"/>
	</g>
	<line class="st17" x1="1.48" y1="155.64" x2="398.52" y2="155.64"/>
</g>
</svg>
