<?xml version="1.0" encoding="UTF-8" standalone="no"?>
<!-- Generator: Adobe Illustrator 27.8.1, SVG Export Plug-In . SVG Version: 6.00 Build 0)  -->

<svg
   version="1.1"
   id="Layer_1"
   x="0px"
   y="0px"
   viewBox="0 0 262.5 60.1"
   style="enable-background:new 0 0 262.5 60.1;"
   xml:space="preserve"
   sodipodi:docname="nt-logo-tagline-white.svg"
   inkscape:version="1.3.2 (091e20e, 2023-11-25)"
   xmlns:inkscape="http://www.inkscape.org/namespaces/inkscape"
   xmlns:sodipodi="http://sodipodi.sourceforge.net/DTD/sodipodi-0.dtd"
   xmlns="http://www.w3.org/2000/svg"
   xmlns:svg="http://www.w3.org/2000/svg"><defs
   id="defs13" /><sodipodi:namedview
   id="namedview13"
   pagecolor="#ffffff"
   bordercolor="#000000"
   borderopacity="0.25"
   inkscape:showpageshadow="2"
   inkscape:pageopacity="0.0"
   inkscape:pagecheckerboard="0"
   inkscape:deskcolor="#d1d1d1"
   inkscape:zoom="2.2057143"
   inkscape:cx="131.47668"
   inkscape:cy="29.92228"
   inkscape:window-width="1312"
   inkscape:window-height="449"
   inkscape:window-x="0"
   inkscape:window-y="38"
   inkscape:window-maximized="0"
   inkscape:current-layer="Layer_1" />
<style
   type="text/css"
   id="style1">
	.st0{fill:url(#SVGID_1_);}
	.st1{fill:#FFFFFF;}
</style>
<linearGradient
   id="SVGID_1_"
   gradientUnits="userSpaceOnUse"
   x1="79.0616"
   y1="55.1879"
   x2="241.2467"
   y2="55.1879">
	<stop
   offset="0"
   style="stop-color:#F6B419"
   id="stop1" />
	<stop
   offset="0.47"
   style="stop-color:#D44A43"
   id="stop2" />
	<stop
   offset="1"
   style="stop-color:#22B8C9"
   id="stop3" />
</linearGradient>
<path
   class="st0"
   d="M79.3,57.2c0.4,0.2,1,0.4,1.6,0.4c0.8,0,1.2-0.4,1.2-0.9c0-0.5-0.3-0.8-1.2-1.1c-1.1-0.4-1.8-1-1.8-2  c0-1.1,0.9-1.9,2.4-1.9c0.7,0,1.3,0.2,1.6,0.3l-0.3,1c-0.2-0.1-0.7-0.3-1.3-0.3c-0.8,0-1.1,0.4-1.1,0.8c0,0.5,0.4,0.8,1.3,1.1  c1.2,0.4,1.7,1,1.7,2c0,1.1-0.8,2-2.6,2c-0.7,0-1.4-0.2-1.8-0.4L79.3,57.2z M92.3,55.8c0-0.9-0.1-1.9-0.1-2.8h0  c-0.2,0.8-0.5,1.7-0.8,2.6l-1,2.9h-1l-0.9-2.9c-0.3-0.9-0.5-1.8-0.7-2.6h0c0,0.9-0.1,1.9-0.1,2.9l-0.1,2.7h-1.1l0.4-6.7h1.6l0.9,2.7  c0.2,0.8,0.4,1.6,0.6,2.3h0c0.2-0.7,0.4-1.6,0.7-2.3l0.9-2.7h1.6l0.4,6.7h-1.2L92.3,55.8z M98.3,56.6l-0.6,1.9h-1.3l2.2-6.7h1.6  l2.2,6.7H101l-0.6-1.9H98.3z M100.2,55.7l-0.5-1.7c-0.1-0.4-0.2-0.9-0.3-1.3h0c-0.1,0.4-0.2,0.9-0.3,1.3l-0.5,1.7H100.2z   M105.4,51.9c0.5-0.1,1.1-0.1,1.9-0.1c1,0,1.6,0.2,2.1,0.5c0.4,0.3,0.6,0.8,0.6,1.3c0,0.9-0.6,1.5-1.2,1.7v0  c0.5,0.2,0.8,0.6,0.9,1.3c0.2,0.8,0.4,1.6,0.5,1.9h-1.3c-0.1-0.2-0.3-0.7-0.5-1.6c-0.2-0.9-0.5-1.2-1.2-1.2h-0.6v2.8h-1.2V51.9z   M106.6,54.9h0.7c0.8,0,1.3-0.4,1.3-1.1c0-0.7-0.5-1.1-1.3-1.1c-0.4,0-0.6,0-0.8,0.1V54.9z M114.5,52.8h-1.9v-1h5.1v1h-1.9v5.7h-1.2  V52.8z M120.5,58.6v-6.7h1.4l1.7,2.9c0.5,0.7,0.8,1.5,1.1,2.3h0c-0.1-0.9-0.1-1.8-0.1-2.8v-2.3h1.1v6.7h-1.3l-1.8-3  c-0.4-0.7-0.9-1.6-1.2-2.3l0,0c0,0.9,0.1,1.8,0.1,2.9v2.4H120.5z M130.6,51.8v6.7h-1.2v-6.7H130.6z M138.9,58.4  c-0.3,0.1-0.9,0.3-1.7,0.3c-2.1,0-3.4-1.3-3.4-3.4c0-2.2,1.5-3.6,3.6-3.6c0.8,0,1.4,0.2,1.6,0.3l-0.3,1c-0.3-0.1-0.8-0.3-1.3-0.3  c-1.4,0-2.4,0.9-2.4,2.5c0,1.5,0.9,2.4,2.3,2.4c0.5,0,1-0.1,1.3-0.2L138.9,58.4z M144.7,52.5v2.3h2.2v0.8h-2.2v2.3h-0.8v-2.3h-2.2  v-0.8h2.2v-2.3H144.7z M151.3,51.8v6.7h-1.2v-6.7H151.3z M154.8,51.9c0.4-0.1,1-0.1,1.9-0.1c0.9,0,1.6,0.2,2,0.5  c0.4,0.3,0.7,0.9,0.7,1.5c0,0.6-0.2,1.2-0.6,1.5c-0.5,0.5-1.3,0.7-2.1,0.7c-0.2,0-0.4,0-0.6,0v2.5h-1.2V51.9z M156,55  c0.2,0,0.3,0.1,0.6,0.1c0.9,0,1.5-0.4,1.5-1.2c0-0.7-0.5-1.1-1.4-1.1c-0.3,0-0.6,0-0.7,0.1V55z M163.7,51.8v3.9  c0,1.3,0.5,1.9,1.4,1.9c0.9,0,1.4-0.6,1.4-1.9v-3.9h1.2v3.8c0,2.1-1.1,3-2.7,3c-1.6,0-2.6-0.9-2.6-3v-3.9H163.7z M175.3,57.2  c0.4,0.2,1,0.4,1.6,0.4c0.8,0,1.2-0.4,1.2-0.9c0-0.5-0.3-0.8-1.2-1.1c-1.1-0.4-1.8-1-1.8-2c0-1.1,0.9-1.9,2.4-1.9  c0.7,0,1.3,0.2,1.6,0.3l-0.3,1c-0.2-0.1-0.7-0.3-1.3-0.3c-0.8,0-1.1,0.4-1.1,0.8c0,0.5,0.4,0.8,1.3,1.1c1.2,0.4,1.7,1,1.7,2  c0,1.1-0.8,2-2.6,2c-0.7,0-1.4-0.2-1.8-0.4L175.3,57.2z M188.6,55.1c0,2.3-1.4,3.5-3.2,3.5c-1.9,0-3.1-1.4-3.1-3.4  c0-2.1,1.3-3.5,3.2-3.5C187.4,51.7,188.6,53.2,188.6,55.1z M183.6,55.2c0,1.4,0.7,2.5,1.9,2.5c1.2,0,1.9-1.1,1.9-2.5  c0-1.3-0.6-2.5-1.9-2.5C184.2,52.7,183.6,53.8,183.6,55.2z M191.7,51.8h1.2v5.7h2.8v1h-4V51.8z M199.6,51.8v3.9  c0,1.3,0.5,1.9,1.4,1.9c0.9,0,1.4-0.6,1.4-1.9v-3.9h1.2v3.8c0,2.1-1.1,3-2.7,3c-1.6,0-2.6-0.9-2.6-3v-3.9H199.6z M208.4,52.8h-1.9  v-1h5.1v1h-1.9v5.7h-1.2V52.8z M215.7,51.8v6.7h-1.2v-6.7H215.7z M225.2,55.1c0,2.3-1.4,3.5-3.2,3.5c-1.9,0-3.1-1.4-3.1-3.4  c0-2.1,1.3-3.5,3.2-3.5C224,51.7,225.2,53.2,225.2,55.1z M220.2,55.2c0,1.4,0.7,2.5,1.9,2.5c1.2,0,1.9-1.1,1.9-2.5  c0-1.3-0.6-2.5-1.9-2.5C220.8,52.7,220.2,53.8,220.2,55.2z M228.3,58.6v-6.7h1.4l1.7,2.9c0.5,0.7,0.8,1.5,1.1,2.3h0  c-0.1-0.9-0.1-1.8-0.1-2.8v-2.3h1.1v6.7h-1.3l-1.8-3c-0.4-0.7-0.9-1.6-1.2-2.3l0,0c0,0.9,0.1,1.8,0.1,2.9v2.4H228.3z M237.1,57.2  c0.4,0.2,1,0.4,1.6,0.4c0.8,0,1.2-0.4,1.2-0.9c0-0.5-0.3-0.8-1.2-1.1c-1.1-0.4-1.8-1-1.8-2c0-1.1,0.9-1.9,2.4-1.9  c0.7,0,1.3,0.2,1.6,0.3l-0.3,1c-0.2-0.1-0.7-0.3-1.3-0.3c-0.8,0-1.1,0.4-1.1,0.8c0,0.5,0.4,0.8,1.3,1.1c1.2,0.4,1.7,1,1.7,2  c0,1.1-0.8,2-2.6,2c-0.7,0-1.4-0.2-1.8-0.4L237.1,57.2z"
   id="path3" />
<g
   id="g13"
   style="fill:#000000">
	<path
   class="st1"
   d="M1.5,17.9c3.9-1.5,8.7-2.4,12.9-2.4c7.2,0,11.7,2.7,11.7,10.6v18.1h-6.2V26.7c0-4.1-2.5-5.5-6-5.5   c-2.2,0-4.4,0.3-6.1,0.8v22.2H1.5V17.9z"
   id="path4"
   style="fill:#000000" />
	<path
   class="st1"
   d="M48.5,25.3c0-3-2.3-4.4-5.4-4.4c-3.2,0-5.8,1-8.1,2.3v-5.4c2.5-1.4,5.6-2.3,9.1-2.3c6.1,0,10.5,2.5,10.5,9.6   v18.6c-2.7,0.7-6.5,1.1-9.6,1.1c-7.3,0-12.6-2.2-12.6-8.6c0-5.7,4.9-8.5,13-8.5h3.1V25.3z M48.5,31.9h-2.7c-4.4,0-7.2,1.3-7.2,4.1   c0,2.9,2.7,4.1,6.5,4.1c1,0,2.3-0.1,3.4-0.3V31.9z"
   id="path5"
   style="fill:#000000" />
	<path
   class="st1"
   d="M62.7,17.7c2.9-1.2,7.1-2.2,11.3-2.2c9.4,0,15.5,5.2,15.5,14.3c0,9.5-6,15-15.5,15c-2,0-4-0.3-5.1-0.8v11.5   h-6.2V17.7z M68.9,38.6c1.3,0.5,3,0.8,4.8,0.8c5.6,0,9.5-3.2,9.5-9.4c0-5.6-3.5-8.9-9.2-8.9c-1.8,0-3.7,0.3-5.1,0.7V38.6z"
   id="path6"
   style="fill:#000000" />
	<path
   class="st1"
   d="M110.1,25.3c0-3-2.3-4.4-5.4-4.4c-3.2,0-5.8,1-8.1,2.3v-5.4c2.5-1.4,5.6-2.3,9.1-2.3c6.1,0,10.5,2.5,10.5,9.6   v18.6c-2.7,0.7-6.5,1.1-9.6,1.1c-7.3,0-12.6-2.2-12.6-8.6c0-5.7,4.9-8.5,13-8.5h3.1V25.3z M110.1,31.9h-2.7c-4.4,0-7.2,1.3-7.2,4.1   c0,2.9,2.7,4.1,6.5,4.1c1,0,2.3-0.1,3.4-0.3V31.9z"
   id="path7"
   style="fill:#000000" />
	<path
   class="st1"
   d="M128.2,17c2.5,0,4.4,2,4.4,4.4s-2,4.4-4.4,4.4c-2.4,0-4.3-2-4.3-4.4S125.8,17,128.2,17z M128.2,36   c2.5,0,4.4,2,4.4,4.4s-2,4.4-4.4,4.4c-2.4,0-4.3-2-4.3-4.4S125.8,36,128.2,36z"
   id="path8"
   style="fill:#000000" />
	<path
   class="st1"
   d="M136.8,16.1h4.2V9.2h6.2v6.8h8v5.3h-8v13.4c0,3.4,1.5,4.5,3.9,4.5c1.8,0,3.4-0.6,5.1-1.6v5.6   c-1.8,1-4.1,1.5-6.8,1.5c-4.6,0-8.4-2.3-8.4-8.7V21.3h-4.2V16.1z"
   id="path9"
   style="fill:#000000" />
	<path
   class="st1"
   d="M166,31.5v0.1c0.4,5,4.7,7.7,9.1,7.7c3.9,0,6.7-0.9,9.4-2.7v5.5c-2.5,1.8-6.3,2.6-9.9,2.6   c-8.7,0-14.7-5.6-14.7-14.4c0-8.9,5.8-14.9,13.6-14.9c8.2,0,12,5.3,12,12.9v3.2H166z M179.6,27.5c-0.1-4.4-2.3-6.8-6.3-6.8   c-3.6,0-6.3,2.5-7.1,6.8H179.6z"
   id="path10"
   style="fill:#000000" />
	<path
   class="st1"
   d="M213.2,23.6c-2.3-1.8-4.8-2.6-7.4-2.6c-5.1,0-9,3.2-9,9.1c0,5.6,3.8,9.1,9.2,9.1c2.8,0,5.2-0.9,7.5-2.5v6   c-2.6,1.5-5.3,2.1-8.3,2.1c-8.6,0-14.8-5.6-14.8-14.6c0-9.1,6.5-14.7,14.8-14.7c3.1,0,5.5,0.7,8,2.1V23.6z"
   id="path11"
   style="fill:#000000" />
	<path
   class="st1"
   d="M220.2,1.1h6.3v15.7c1.6-0.6,4.4-1.3,7.3-1.3c6.3,0,11,2.8,11,10.6v18.1h-6.2V26.7c0-4.1-2.5-5.5-6-5.5   c-2.2,0-4.4,0.4-6.1,1v22h-6.3V1.1z"
   id="path12"
   style="fill:#000000" />
	<path
   class="st1"
   d="M260.3,37.8c0,6.2-2.9,11.5-6.4,13.9h-4.6c3-3.9,4.4-8.6,4.4-13.9H260.3z M257,17c2.5,0,4.4,2,4.4,4.4   s-2,4.4-4.4,4.4c-2.4,0-4.3-2-4.3-4.4S254.6,17,257,17z"
   id="path13"
   style="fill:#000000" />
</g>
</svg>
