<?xml version="1.0" encoding="UTF-8"?>
<svg version="1.1" xmlns="http://www.w3.org/2000/svg" width="2769" height="500">
<path d="M0 0 C37.29 0 74.58 0 113 0 C113.33 58.41 113.66 116.82 114 177 C119.73147956 170.69537248 125.13737184 164.61032354 130.4453125 158.02734375 C134.69998433 152.98549257 139.25933459 148.23092296 143.78125 143.4296875 C147.73316017 139.23191078 151.52345773 134.91709495 155.25439453 130.52246094 C161.79404337 122.82207553 168.45091217 115.27591084 175.33203125 107.87890625 C179.5674635 103.3086082 183.63526191 98.60835337 187.66796875 93.859375 C193.7416288 86.71889643 199.94727772 79.74233219 206.33203125 72.87890625 C210.5674635 68.3086082 214.63526191 63.60835337 218.66796875 58.859375 C224.7416288 51.71889643 230.94727772 44.74233219 237.33203125 37.87890625 C241.5674635 33.3086082 245.63526191 28.60835337 249.66796875 23.859375 C250.16425781 23.27663818 250.66054687 22.69390137 251.171875 22.09350586 C252.12889399 20.96891605 253.08363337 19.84237867 254.03515625 18.71313477 C255.0128518 17.56376857 256.02117488 16.44001578 257.05259705 15.33860779 C259.14129362 12.97036775 259.14129362 12.97036775 260.81544495 9.80529785 C264.1783404 4.47096988 267.83666381 0.73754648 274.13046837 -0.72988319 C283.2191916 -1.79364068 292.36501087 -1.53491771 301.49644566 -1.31812119 C305.52800545 -1.23630056 309.55971802 -1.22917531 313.59197998 -1.21379089 C321.21073148 -1.17354305 328.82702915 -1.06709176 336.44470477 -0.93624753 C345.12403423 -0.79043622 353.80348714 -0.71933986 362.48373842 -0.65420687 C380.32387841 -0.51868387 398.16174127 -0.29034603 416 0 C414.26383071 3.69247839 412.10549826 6.2559743 409.3125 9.25 C406.31520384 12.48815511 403.32945391 15.72928552 400.4375 19.0625 C397.82298058 22.07073528 395.17048344 25.04130249 392.5 28 C389.81016569 30.98062721 387.13689636 33.97245233 384.5 37 C379.62856797 42.58979989 374.6410485 48.07534898 369.671875 53.578125 C365.68295423 58.00121401 361.72432093 62.44615005 357.8125 66.9375 C354.96852205 70.17375077 352.07387299 73.36408668 349.1875 76.5625 C347.27445851 78.69417481 345.38112388 80.8401911 343.5 83 C338.62856797 88.58979989 333.6410485 94.07534898 328.671875 99.578125 C324.68295423 104.00121401 320.72432093 108.44615005 316.8125 112.9375 C313.96852205 116.17375077 311.07387299 119.36408668 308.1875 122.5625 C306.27445851 124.69417481 304.38112388 126.8401911 302.5 129 C297.62856797 134.58979989 292.6410485 140.07534898 287.671875 145.578125 C283.68295423 150.00121401 279.72432093 154.44615005 275.8125 158.9375 C272.96852205 162.17375077 270.07387299 165.36408668 267.1875 168.5625 C265.27445851 170.69417481 263.38112388 172.8401911 261.5 175 C256.62856797 180.58979989 251.6410485 186.07534898 246.671875 191.578125 C240.32392586 198.61700738 234.03251104 205.68786541 228 213 C229.43461224 217.19700391 231.49362181 220.16583664 234.25 223.625 C238.5015198 229.02966097 242.62365045 234.51540228 246.6875 240.0625 C251.58607091 246.73810852 256.52276876 253.38283075 261.5 260 C266.95422478 267.25331014 272.35745043 274.5418569 277.73046875 281.85546875 C281.95295408 287.59615105 286.21714624 293.30424603 290.5 299 C295.95410674 306.25339969 301.35744945 313.54185557 306.73046875 320.85546875 C310.95295408 326.59615105 315.21714624 332.30424603 319.5 338 C324.95410674 345.25339969 330.35744945 352.54185557 335.73046875 359.85546875 C339.95295408 365.59615105 344.21714624 371.30424603 348.5 377 C353.95410674 384.25339969 359.35744945 391.54185557 364.73046875 398.85546875 C369.57619063 405.44347265 374.48084327 411.98598664 379.39672852 418.52172852 C383.61344285 424.13401993 387.78638658 429.77656885 391.9375 435.4375 C397.66148315 443.24218744 403.50206629 450.95292128 409.40795898 458.62084961 C422 475.03013106 422 475.03013106 422 478 C403.45019309 478.42153219 384.9013647 478.73839404 366.34775257 478.93261909 C357.73158471 479.02522425 349.11840136 479.15131965 340.50415039 479.35791016 C332.99071136 479.53801376 325.47943365 479.65360157 317.96389598 479.69359291 C313.98744081 479.71695755 310.01716457 479.77131784 306.04270363 479.90314102 C281.97246803 480.67077736 281.97246803 480.67077736 275.43764877 476.27727509 C271.27769892 472.1857448 268.58588625 467.56544689 266.13918114 462.30903244 C264.29916745 458.57946638 261.86328284 455.30213987 259.4375 451.9375 C258.53307977 450.6208039 257.63163161 449.30205686 256.734375 447.98046875 C253.43688955 443.16353047 250.06414188 438.40069159 246.69116211 433.63647461 C242.77541581 428.10396882 238.88344272 422.55522199 235 417 C230.68101252 410.82311087 226.35101704 404.65437041 222 398.5 C214.69946564 388.17196981 207.45641434 377.80380306 200.20898438 367.43847656 C194.15511463 358.78111202 188.09766962 350.12659144 182 341.5 C172.25928767 327.71850216 162.58246314 313.8920365 153 300 C149.7369879 301.0876707 149.12160072 301.75066713 147 304.3125 C143.9146758 307.95344402 140.73794339 311.49489047 137.5 315 C133.86384962 318.94846907 130.27530043 322.93022202 126.76171875 326.98828125 C123.8605617 330.30113243 120.88541113 333.54732033 117.91796875 336.80078125 C114.63834909 340.56132273 113.7487315 342.60438719 113.7215271 347.52384949 C113.71036362 348.67229843 113.69920013 349.82074738 113.68769836 351.0039978 C113.68553818 352.26491241 113.68337799 353.52582703 113.68115234 354.82495117 C113.67185484 356.16528428 113.66168643 357.50561159 113.65071106 358.84593201 C113.62337677 362.48612181 113.60825156 366.12627285 113.59528303 369.76653838 C113.57966744 373.57025975 113.55287224 377.37390176 113.5272522 381.17756653 C113.4804365 388.38104456 113.44370594 395.58453748 113.41057932 402.78809005 C113.36523646 412.52175648 113.30435391 422.25532482 113.24433136 431.98890972 C113.15016581 447.32589068 113.07679666 462.66289947 113 478 C75.71 478 38.42 478 0 478 C0 320.26 0 162.52 0 0 Z " fill="#191919" transform="translate(1439,11)"/>
<path d="M0 0 C249.4325891 0 249.4325891 0 270.3125 4.25 C271.39805176 4.46760986 272.48360352 4.68521973 273.60205078 4.90942383 C304.53641793 11.3603767 329.99129103 26.58448666 353 48 C353.72832031 48.66257813 354.45664063 49.32515625 355.20703125 50.0078125 C381.65135402 75.07035984 395.5736205 111.68803791 401 147 C401.1045752 147.67482422 401.20915039 148.34964844 401.31689453 149.04492188 C407.59036917 196.31482379 395.18927139 246.02284023 366.52587891 284.04882812 C362.65633584 288.99689024 358.38760859 293.50823453 354 298 C352.82050781 299.27230469 352.82050781 299.27230469 351.6171875 300.5703125 C320.77572025 333.04037209 272.42538164 345.82115506 228.93886375 347.08926582 C225.85614332 347.12130217 222.77500463 347.12400293 219.69213867 347.11352539 C217.93533138 347.11370619 217.93533138 347.11370619 216.14303303 347.11389065 C212.40132471 347.11315211 208.659668 347.10557282 204.91796875 347.09765625 C202.58809432 347.09618354 200.25821956 347.09516486 197.92834473 347.09460449 C189.34805806 347.08938971 180.76777851 347.07542848 172.1875 347.0625 C152.985625 347.041875 133.78375 347.02125 114 347 C114 390.23 114 433.46 114 478 C76.38 478 38.76 478 0 478 C0 320.26 0 162.52 0 0 Z M114 108 C114 151.56 114 195.12 114 240 C132.335625 240.061875 150.67125 240.12375 169.5625 240.1875 C175.32533447 240.21481201 181.08816895 240.24212402 187.02563477 240.27026367 C192.24785347 240.28030467 192.24785347 240.28030467 197.47007751 240.28633118 C199.77360275 240.29090031 202.07712138 240.30137233 204.38059998 240.31672668 C227.6100723 240.46365947 251.08054248 239.02854282 269.43359375 222.85546875 C282.64342232 209.42287747 286.20492592 191.65341511 286.375 173.4375 C286.21312317 156.13691376 282.54495573 139.79840122 270.15625 126.95703125 C249.50883872 108.21726123 223.34559765 107.68232434 197.0078125 107.8046875 C194.87752385 107.80763424 192.74723375 107.80967079 190.61694336 107.81079102 C182.78627325 107.82120526 174.9556343 107.84912761 167.125 107.875 C149.59375 107.91625 132.0625 107.9575 114 108 Z " fill="#191919" transform="translate(2365,11)"/>
<path d="M0 0 C3.85759531 0.02274849 7.71408371 0.00925317 11.57164097 -0.01376724 C65.48401222 -0.28617036 118.89130316 12.8539817 161.26269531 47.52148438 C162.25914062 48.31425781 163.25558594 49.10703125 164.28222656 49.92382812 C171.29244249 55.5937414 177.74176117 61.79673693 184.13769531 68.14648438 C185.33289795 69.32778931 185.33289795 69.32778931 186.55224609 70.53295898 C191.56008976 75.56759099 196.04440714 80.80918369 200.26269531 86.52148438 C197.58919005 90.06357084 194.86798315 92.83889412 191.38769531 95.58398438 C186.93789906 99.14975443 182.57797142 102.79419929 178.26269531 106.52148438 C173.24732831 110.84383612 168.17092071 115.0762939 163.03222656 119.25195312 C157.71827865 123.60654232 152.49742765 128.07226873 147.26269531 132.52148438 C137.69797234 140.65093825 128.07437814 148.68965897 118.26269531 156.52148438 C114.85996499 155.06641929 112.8341567 153.2182567 110.32519531 150.52148438 C93.75681594 133.65627736 72.75580581 122.20458217 50.32519531 115.27148438 C49.20129395 114.92005371 49.20129395 114.92005371 48.0546875 114.56152344 C33.93021238 110.41636169 20.03793558 108.9908714 5.38769531 109.14648438 C4.60177002 109.15113708 3.81584473 109.15578979 3.00610352 109.1605835 C-8.77866655 109.24221453 -20.25575325 109.63488696 -31.73730469 112.52148438 C-32.54474121 112.72016113 -33.35217773 112.91883789 -34.18408203 113.12353516 C-46.16518005 116.16841729 -56.94494467 120.53665728 -67.73730469 126.52148438 C-68.81625 127.09898438 -69.89519531 127.67648438 -71.00683594 128.27148438 C-78.25678083 132.29199297 -84.4937846 137.08833267 -90.73730469 142.52148438 C-91.57003906 143.22015625 -92.40277344 143.91882813 -93.26074219 144.63867188 C-104.17879343 154.04128383 -112.74656812 164.93241668 -119.73730469 177.52148438 C-120.07358887 178.12299316 -120.40987305 178.72450195 -120.75634766 179.34423828 C-140.26376825 214.70315612 -142.91555412 258.39272976 -131.91943359 296.91748047 C-126.32591374 315.1156591 -117.29947017 332.22660641 -104.73730469 346.52148438 C-104.05152344 347.35164063 -103.36574219 348.18179687 -102.65917969 349.03710938 C-80.79064911 374.79337872 -45.71960969 388.29009628 -12.73730469 391.52148438 C-10.05432013 391.6315658 -7.39653217 391.70749537 -4.71386719 391.72460938 C-3.9744841 391.73162369 -3.23510101 391.738638 -2.47331238 391.74586487 C-0.10291376 391.76326101 2.26723522 391.76971611 4.63769531 391.77148438 C5.85122177 391.77249649 5.85122177 391.77249649 7.08926392 391.77352905 C18.75448648 391.75804354 29.90454867 391.41073486 41.26269531 388.52148438 C41.93606934 388.3605127 42.60944336 388.19954102 43.30322266 388.03369141 C65.25850738 382.70980336 85.14014171 372.17361979 102.26269531 357.52148438 C103.47505859 356.4928125 103.47505859 356.4928125 104.71191406 355.44335938 C111.41614546 349.59162836 117.35623839 343.15782666 123.26269531 336.52148438 C126.78348869 337.13737387 128.88037623 338.51652423 131.68457031 340.69726562 C132.53664063 341.35404297 133.38871094 342.01082031 134.26660156 342.6875 C135.1728125 343.39583984 136.07902344 344.10417969 137.01269531 344.83398438 C138.92375476 346.30976147 140.83521631 347.785018 142.74707031 349.25976562 C143.68873047 349.9888916 144.63039063 350.71801758 145.60058594 351.46923828 C149.12844693 354.18890075 152.69068257 356.86024892 156.26269531 359.52148438 C162.39909601 364.10472409 168.49060897 368.74473784 174.57519531 373.39648438 C190.66402129 385.81124598 190.66402129 385.81124598 207.26269531 397.52148438 C206.66638014 400.51409554 205.79115362 402.48630184 203.96191406 404.91992188 C203.48616943 405.55647705 203.0104248 406.19303223 202.52026367 406.84887695 C201.74307983 407.86244263 201.74307983 407.86244263 200.95019531 408.89648438 C200.4082251 409.60764404 199.86625488 410.31880371 199.30786133 411.05151367 C160.74098338 461.21358911 110.40902191 491.25583362 47.43475151 499.83182716 C40.01954897 500.76807929 32.60897708 500.84971542 25.14550781 500.85742188 C23.63499845 500.86388339 22.12449021 500.87061392 20.61398315 500.87759399 C17.46593337 500.88946351 14.31799239 500.89328603 11.16992188 500.89208984 C7.99944037 500.89192811 4.82954168 500.90570475 1.65917969 500.93310547 C-62.18256366 501.4762247 -123.64442104 481.51984753 -171.73730469 438.52148438 C-172.26727051 438.04791504 -172.79723633 437.5743457 -173.34326172 437.08642578 C-176.847813 433.93963298 -180.30451654 430.74637841 -183.73730469 427.52148438 C-184.72150391 426.60109375 -184.72150391 426.60109375 -185.72558594 425.66210938 C-230.47352254 382.45720506 -251.32099003 316.80178447 -252.86230469 256.00976562 C-253.84943971 199.07530163 -238.39959348 142.17955641 -203.73730469 96.52148438 C-203.00640625 95.55855469 -202.27550781 94.595625 -201.52246094 93.60351562 C-197.53030278 88.50462055 -193.26125062 83.67942779 -188.89355469 78.90039062 C-186.94115032 76.74637929 -185.05453109 74.55120711 -183.17480469 72.33398438 C-180.34205405 69.09471143 -177.34310455 66.2459391 -174.05371094 63.47460938 C-172.37035468 62.05525334 -170.71486608 60.60264087 -169.07714844 59.13085938 C-154.91536861 46.52666357 -138.55123731 36.2202557 -121.73730469 27.52148438 C-121.10002441 27.18987305 -120.46274414 26.85826172 -119.80615234 26.51660156 C-82.36212648 7.31309866 -41.71136836 -0.24819231 0 0 Z " fill="#191919" transform="translate(2105.7373046875,-0.521484375)"/>
<path d="M0 0 C2.08675576 1.45845392 3.27561318 2.80328236 4.73828125 4.88110352 C5.25003906 5.59911133 5.76179688 6.31711914 6.2890625 7.05688477 C6.82917969 7.83290039 7.36929688 8.60891602 7.92578125 9.40844727 C8.49683594 10.21411133 9.06789063 11.01977539 9.65625 11.84985352 C11.42088491 14.34293595 13.17396375 16.84384738 14.92578125 19.34594727 C15.94587005 20.79308696 16.96666752 22.23972745 17.98828125 23.68579102 C19.46187715 25.77200269 20.9347456 27.85869067 22.40429688 29.94775391 C26.03814635 35.10979664 29.72169078 40.23412645 33.42578125 45.34594727 C38.13618782 51.8465321 42.78875733 58.38458607 47.40625 64.95141602 C51.04032691 70.11161447 54.72249526 75.23523667 58.42578125 80.34594727 C63.13618782 86.8465321 67.78875733 93.38458607 72.40625 99.95141602 C76.04032691 105.11161447 79.72249526 110.23523667 83.42578125 115.34594727 C88.12878976 121.83632244 92.77475748 128.36362386 97.38427734 134.9206543 C101.78301944 141.16765643 106.25193154 147.36281069 110.73828125 153.54711914 C111.25648438 154.2619043 111.7746875 154.97668945 112.30859375 155.71313477 C112.76637207 156.3433252 113.22415039 156.97351563 113.69580078 157.62280273 C114.80390932 159.17521045 115.8677898 160.75896008 116.92578125 162.34594727 C117.42078125 85.12594727 117.42078125 85.12594727 117.92578125 6.34594727 C138.71578125 6.34594727 159.50578125 6.34594727 180.92578125 6.34594727 C180.92578125 88.51594727 180.92578125 170.68594727 180.92578125 255.34594727 C130.52578125 282.34594727 130.52578125 282.34594727 127.92578125 282.34594727 C126.69580078 280.94750977 126.69580078 280.94750977 125.30859375 278.97094727 C124.79047119 278.24141846 124.27234863 277.51188965 123.73852539 276.76025391 C123.18156982 275.96353271 122.62461426 275.16681152 122.05078125 274.34594727 C120.86583242 272.67709091 119.67960962 271.00913848 118.4921875 269.34204102 C117.89293457 268.49883301 117.29368164 267.655625 116.67626953 266.78686523 C114.16640123 263.28705167 111.58502186 259.84404723 108.98828125 256.40844727 C102.83233242 248.24366149 96.76897354 240.01233899 90.71240234 231.77368164 C88.93864119 229.36342188 87.16134481 226.95581303 85.3828125 224.54907227 C79.64573758 216.78256668 73.93890702 208.99714651 68.30078125 201.15844727 C63.77407589 194.86734787 59.17546485 188.63731116 54.51074219 182.44799805 C48.85097801 174.93430067 43.28410258 167.35277675 37.71240234 159.77368164 C35.93864119 157.36342188 34.16134481 154.95581303 32.3828125 152.54907227 C25.9043263 143.77905346 19.46788919 134.98114389 13.09936523 126.13085938 C12.59477783 125.42968994 12.09019043 124.72852051 11.5703125 124.00610352 C11.13050049 123.39387939 10.69068848 122.78165527 10.23754883 122.15087891 C8.8204856 120.20106532 7.37199798 118.27423624 5.92578125 116.34594727 C5.59578125 168.15594727 5.26578125 219.96594727 4.92578125 273.34594727 C-15.86421875 273.34594727 -36.65421875 273.34594727 -58.07421875 273.34594727 C-58.07421875 192.49594727 -58.07421875 111.64594727 -58.07421875 28.34594727 C-31.41135817 14.43488957 -31.41135817 14.43488957 -19.38671875 8.22094727 C-18.12823923 7.56993648 -16.86977575 6.91889469 -15.61132812 6.26782227 C-8.99680414 2.84756848 -8.99680414 2.84756848 -6.07421875 1.34594727 C-5.37449951 0.91169434 -4.67478027 0.47744141 -3.95385742 0.0300293 C-2.07421875 -0.65405273 -2.07421875 -0.65405273 0 0 Z " fill="#191919" transform="translate(59.07421875,110.654052734375)"/>
<path d="M0 0 C1.92772877 2.41731068 3.65756325 4.81332392 5.375 7.375 C6.4546183 8.94607645 7.53538525 10.51636406 8.6171875 12.0859375 C9.1750293 12.90030273 9.73287109 13.71466797 10.30761719 14.55371094 C12.97773502 18.41328692 15.73890146 22.20525518 18.5 26 C23.21179774 32.4995628 27.86299078 39.03865971 32.48046875 45.60546875 C36.11454566 50.7656672 39.79671401 55.8892894 43.5 61 C48.21040657 67.50058483 52.86297608 74.0386388 57.48046875 80.60546875 C61.11454672 85.7656687 64.79681272 90.88921666 68.5 96 C75.24348241 105.30975489 81.86834937 114.70052336 88.47949219 124.10449219 C94.80241877 133.09496855 101.17086337 142.04860786 107.63647461 150.93725586 C108.40423218 151.99505249 108.40423218 151.99505249 109.1875 153.07421875 C109.63480469 153.68869873 110.08210938 154.30317871 110.54296875 154.9362793 C112.41487341 157.58762147 114.19968871 160.29953307 116 163 C116.495 85.78 116.495 85.78 117 7 C137.79 7 158.58 7 180 7 C180 89.17 180 171.34 180 256 C154.66862416 269.81711409 154.66862416 269.81711409 142.125 276.25 C140.82800036 276.9177267 139.53112559 277.58569601 138.234375 278.25390625 C135.15766164 279.83869281 132.07935194 281.42034511 129 283 C120.16263278 274.27501865 113.18296974 263.9278249 105.95678711 253.86425781 C102.37947665 248.88831144 98.75120305 243.95638024 95.0625 239.0625 C86.03222606 227.0774618 77.13856049 214.99390169 68.375 202.8125 C63.8482228 196.52145089 59.2496849 190.29136562 54.58496094 184.10205078 C48.92519676 176.5883534 43.35832133 169.00682948 37.78662109 161.42773438 C36.01285994 159.01747461 34.23556356 156.60986576 32.45703125 154.203125 C26.00290434 145.46576587 19.58784114 136.70329619 13.26147461 127.87280273 C12.76010986 127.17485596 12.25874512 126.47690918 11.7421875 125.7578125 C11.3076123 125.1508252 10.87303711 124.54383789 10.42529297 123.91845703 C8.6775495 121.56597875 6.83076807 119.28846008 5 117 C4.67 168.81 4.34 220.62 4 274 C-16.46 274 -36.92 274 -58 274 C-58 193.15 -58 112.3 -58 29 C-37.169621 17.42756722 -37.169621 17.42756722 -30.25390625 13.8671875 C-29.07090187 13.25582443 -29.07090187 13.25582443 -27.86399841 12.6321106 C-26.24304205 11.79586348 -24.62131417 10.96110996 -22.9987793 10.12792969 C-20.50812311 8.84703505 -18.02265013 7.55641288 -15.53710938 6.265625 C-13.94301129 5.44472393 -12.34862181 4.62438841 -10.75390625 3.8046875 C-9.64783775 3.22834061 -9.64783775 3.22834061 -8.51942444 2.64035034 C-3.34333103 0 -3.34333103 0 0 0 Z " fill="#191919" transform="translate(1021,110)"/>
<path d="M0 0 C21.12 0 42.24 0 64 0 C64 33.66 64 67.32 64 102 C101.29 102 138.58 102 177 102 C177 68.34 177 34.68 177 0 C198.12 0 219.24 0 241 0 C241 88.11 241 176.22 241 267 C219.88 267 198.76 267 177 267 C177 233.01 177 199.02 177 164 C139.71 164 102.42 164 64 164 C64 197.99 64 231.98 64 267 C42.88 267 21.76 267 0 267 C0 178.89 0 90.78 0 0 Z " fill="#191919" transform="translate(481,117)"/>
</svg>
