<svg xmlns="http://www.w3.org/2000/svg" role="img" viewBox="16.14 11.64 343.46 335.96"><defs><clipPath id="a" clipPathUnits="userSpaceOnUse"><path d="M0 283.536h283.536V0H0z"/></clipPath><clipPath id="b" clipPathUnits="userSpaceOnUse"><path d="M0 283.536h283.536V0H0z"/></clipPath></defs><g transform="matrix(1.33333 0 0 -1.33333 0 378.048)"><g clip-path="url(#a)"><path fill="#0d6928" fill-opacity="1" fill-rule="nonzero" stroke="none" d="M234.32 237.97c.732-.625 2.574-.395 4.086-.395h8.959c1.305 0 3.373-.119 4.086.395 1.812 1.308.562 5.016-.133 5.535-.975.729-3.453.527-5.402.527-1.518 0-5.125-.239-5.666.395-.635.743-.262 2.977-.262 4.48 0 1.796-.168 3.14-.133 4.612.137 5.875 3.656 9.862 9.486 9.751 5.399-.102 8.655-3.986 9.092-8.697.252-2.686.002-5.764 0-8.433 0-2.463-.472-6.698.66-7.906 1.184-1.264 4.295-.69 5.008.132.985 1.136.528 6.737.528 8.301 0 3.294.242 6.282 0 8.961-.754 8.302-7.018 14.255-15.682 14.099-4.66-.084-8.379-1.658-10.807-4.085-4.765-4.768-4.478-10.926-4.478-20.029 0-2.048-.557-6.604.658-7.643"/><path fill="#0d6928" fill-opacity="1" fill-rule="nonzero" stroke="none" d="M105.447 260.504c1.063.371 2.178.436 3.426.527 5.046.368 9.068-1.985 10.805-4.876 1.585-2.638 1.804-7.059.396-9.882-3.318-6.649-14.731-7.388-19.371-1.713-1.246 1.523-1.976 3.927-1.976 6.325 0 4.757 2.836 8.262 6.72 9.619m9.488-26.223c6.829 1.338 12.842 6.671 13.44 15.022.426 5.94-1.843 10.686-4.216 13.178-3.622 3.8-9.418 5.908-16.868 5.271-4.689-.402-8.087-1.986-10.804-4.481-2.771-2.543-4.712-5.345-5.14-9.883-.459-4.87.47-8.542 2.108-11.332 3.534-6.018 12.048-9.622 21.48-7.775"/><path fill="#0d6928" fill-opacity="1" fill-rule="nonzero" stroke="none" d="M38.507 237.048c1.067-1.967 7.671-2.653 9.093-.264.548.922.395 2.416.395 3.953v8.961c0 1.342-.218 2.835.263 4.217 1.612.375 2.979-.68 4.085-1.45 6.956-4.842 13.959-9.77 20.82-14.626 1.221-.864 2.505-1.889 3.69-2.24 3.177-.944 8.952-.417 9.751 1.845.593 1.679.132 4.743.132 6.852v14.231c0 2.01.435 5.379-.132 6.984-.903 2.557-8.215 3.199-9.488.527-.439-.924-.263-2.762-.263-4.48v-9.62c0-1.474.341-3.712-.658-4.216-1.255-.633-3.261.806-4.349 1.581-7.648 5.442-14.491 10.465-22.006 15.812-1.369.975-2.442 1.973-3.953 2.372-2.492.66-6.66.61-7.511-1.054-.61-1.191-.264-4.908-.264-7.247v-15.022c0-2.809-.401-5.648.395-7.116"/><path fill="#0d6928" fill-opacity="1" fill-rule="nonzero" stroke="none" d="M145.11 240.343c.77-1.28 1.584-3.027 2.372-3.69 1.993-1.674 8.847-1.946 11.331-.263.983.664 2.018 2.739 2.504 3.557 4.516 7.589 9.33 15.037 13.836 22.666.424.716 2.264 3.228 1.977 4.216-.409 1.413-7.332 1.204-8.698.527-.902-.448-1.474-1.531-2.107-2.636-3.61-6.289-7.01-12.203-10.672-18.447-.428-.726-1.367-2.655-2.242-2.636-.805.018-1.459 1.491-2.108 2.636-3.656 6.436-6.881 12.015-10.41 18.316-.597 1.067-1.508 2.457-2.109 2.767-1.441.746-6.211.588-7.511.263-.081-.02-.179.013-.263 0-2.438-.341.194-3.746.79-4.743 4.615-7.702 8.746-14.948 13.31-22.533"/><path fill="#0d6928" fill-opacity="1" fill-rule="nonzero" stroke="none" d="M171.203 236.258c1.09-1.048 2.961-.659 4.479-.659 1.591 0 3.589-.28 4.875.263.835.353 1.625 1.461 2.373 2.636 4.134 6.494 7.507 12.116 11.595 18.448.658 1.019 1.606 2.526 2.504 2.503 1.035-.025 1.885-1.882 2.371-2.635 4.098-6.328 7.912-12.089 11.86-18.184.736-1.135 1.289-2.367 2.24-2.768 1.385-.583 8.976-.603 9.488.396.555 1.081-1.353 3.173-1.976 4.084-5.411 7.922-10.11 14.958-15.416 22.666-.946 1.372-1.68 3.026-2.77 3.688-2.637 1.605-9.461 1.521-11.99 0-1.063-.637-1.649-2.093-2.637-3.557-5.285-7.839-10.142-15.182-15.152-22.665-.791-1.18-1.987-2.573-1.844-4.216"/><path fill="#0d6928" fill-opacity="1" fill-rule="nonzero" stroke="none" d="M107.713 244.428c2.981-1.03 6.365.294 7.774 3.031 1.504 2.921.101 6.34-1.317 7.642-1.127 1.035-3.24 1.757-5.271 1.45-3.547-.536-6.424-4.271-5.007-8.302.549-1.565 2.097-3.226 3.821-3.821"/><path fill="#0d6928" fill-opacity="1" fill-rule="nonzero" stroke="none" d="M195.316 249.04c-2.418-.3-3.631-.997-3.82-2.635-.094-.801.134-1.74.527-2.24 1.527-1.955 8.926-2.084 10.145.395.261.534.345 1.422.263 1.977-.4 2.7-4.455 2.833-7.115 2.503"/><path fill="#0d6928" fill-opacity="1" fill-rule="nonzero" stroke="none" d="M233.662 208.85c0-2.381-.57-5.96.791-7.248.647-.612 3.383-.971 4.48-.263 1.172.758 1.055 2.997 1.055 5.27-.002 4.825 0 8.3 0 12.783 0 1.802-.4 5.067.262 6.193 1.074 1.828 8.098 1.054 11.334 1.054h6.191c3.889 0 7.028-.65 6.854 3.294-.172 3.895-3.487 3.163-7.512 3.163h-6.853c-4.926 0-8.866.345-13.573 0-.099-.008-.121-.131-.131-.132-3.63-.621-2.898-4.233-2.898-8.302v-7.906z"/><path fill="#0d6928" fill-opacity="1" fill-rule="nonzero" stroke="none" d="M240.777 184.076c-1.541 2.772-.564 6.922.922 8.697 1.465 1.747 3.326 2.57 6.721 2.767 5.502.321 9.978-2.53 10.013-7.642.067-9.149-14.088-10.24-17.656-3.822m6.061 16.603c-4.522-.371-8.448-2.389-10.409-4.744-1.636-1.962-2.777-4.391-2.767-8.169.011-5.539 2.992-9.275 6.851-11.201 7.883-3.934 18.756-1.28 22.401 4.744 1.82 3.004 2.793 8.434 0 13.045-2.782 4.597-8.43 6.953-16.076 6.325"/><path fill="#0d6928" fill-opacity="1" fill-rule="nonzero" stroke="none" d="M247.234 192.51c-2.393-.408-4.602-1.95-4.613-4.612-.02-5.063 7.924-6.485 11.068-2.899.684.778 1.18 2.007 1.055 3.294-.291 3.051-3.701 4.867-7.51 4.217"/><path fill="#0d6928" fill-opacity="1" fill-rule="nonzero" stroke="none" d="M256.853 147.312c-3.09-.858-4.92.985-4.613 3.558h-6.061c.459-2.896-2.693-4.802-4.875-3.426-1.588 1.001-1.187 6.068-1.187 8.828v5.14c0 1.822-.196 3.491.396 4.612 2.209.855 5.756.526 9.75.526 1.84 0 6.772.491 7.776-.658.578-.663.394-3.117.394-4.744.002-4.91.662-11.326-1.58-13.836m7.115 24.51c-.951 1.198-3.312 1.185-5.929 1.185h-14.231c-2.424 0-4.894.267-7.117 0-3.301-.396-2.899-2.78-2.899-6.719 0-8.181-.892-17.776 2.241-22.27 1.83-2.626 6.939-4.581 10.543-2.373 1.185.729 1.343 1.578 2.371 3.295.865-4.336 7.426-5.488 11.201-3.031 5.242 3.414 4.48 11.529 4.48 20.162 0 3.342.664 8.079-.66 9.751"/><path fill="#0d6928" fill-opacity="1" fill-rule="nonzero" stroke="none" d="M260.543 130.314c-7.445 3.102-14.51 5.945-21.875 8.961-1.182.482-3.273 1.928-4.348 1.318-.849-.484-1.015-4.367-.394-5.535.631-1.185 3.978-2.031 5.535-2.637 4.947-1.919 9.975-4.095 14.625-5.929.969-.381 2.215-.541 2.635-1.58-1.547-1.192-3.643-1.67-5.664-2.504-4.746-1.957-9.535-3.955-14.496-5.93-2.446-.975-2.885-1.451-2.768-4.217.041-.947-.191-2.037.264-2.767 1.535-.455 2.904.42 4.084.922 6.162 2.628 12.298 5.257 18.449 7.908 1.805.777 6.224 2.052 7.246 3.426 1.002 1.339 1.131 5.173 0 6.72-.529.727-1.916 1.27-3.293 1.844"/><path fill="#0d6928" fill-opacity="1" fill-rule="nonzero" stroke="none" d="M244.86 122.01c1.57.758 1.719 3.629 1.055 5.008-.555 1.15-1.95 1.578-3.69 1.187-1.709-.386-2.588-1.982-2.109-4.349.414-2.035 3.176-2.602 4.744-1.846"/><path fill="#0d6928" fill-opacity="1" fill-rule="nonzero" stroke="none" d="M257.511 106.331h-6.721c-5.201 0-9.642.322-13.572-.131-1.488-.174-2.611-.476-3.162-1.582-.797-1.598-.395-5.812-.395-7.379-.002-4.994 0-10.699 0-15.549 0-2.293-.32-5.927.922-6.984 1.104-.939 4.106-.93 5.006.395.672.984.399 3.3.399 5.666-.002 5.017 0 7.822 0 12.386 0 1.762-.36 4.852.394 5.799.738.928 3.057.789 5.27.789h12.386c3.983 0 6.678-.445 6.59 3.295-.09 3.762-2.994 3.295-7.117 3.295"/></g><g fill="#0d6928" transform="matrix(1 0 0 -1 27.224 27.734)"><path d="M4.93285-5.1535v.79658q-.38146-.35528-.81528-.53106-.43008-.17577-.91626-.17577-.9574 0-1.46602.58716-.50862.58341-.50862 1.6904 0 1.10326.50862 1.69042.50862.58341 1.46602.58341.48618 0 .91626-.17577.43382-.17577.81528-.53106v.7891q-.39642.26928-.84146.40391-.4413.13464-.93496.13464-1.2678 0-1.99708-.77415-.72927-.77789-.72927-2.1205 0-1.34634.72927-2.12049.72927-.77788 1.99708-.77788.50114 0 .94244.13463.44504.1309.83398.39643z"/><path d="M6.96365-.94992h.7891V0h-.7891zm0-3.01057h.7891v.94992h-.7891z"/><path d="M11.70993-2.65155q-.53854 0-.84894.28797-.30667.28797-.30667.79285 0 .50487.30666.79284.31041.28797.84895.28797t.84894-.28797q.31041-.2917.31041-.79284 0-.50488-.3104-.79285-.30667-.28797-.84895-.28797zm-.75545-.32163q-.48618-.11967-.75919-.45252-.26927-.33284-.26927-.81154 0-.66944.47496-1.05838.4787-.38894 1.30895-.38894.83398 0 1.30895.38894.47496.38894.47496 1.05838 0 .4787-.27301.81154-.26927.33285-.75171.45252.54601.12716.84894.4974.30667.37025.30667.90505 0 .81154-.4974 1.24536-.49366.43383-1.4174.43383t-1.42114-.43383q-.49366-.43382-.49366-1.24536 0-.5348.30667-.90505.30666-.37024.85268-.4974zm-.27675-1.193q0 .43382.26927.6769.27301.2431.76293.2431.48618 0 .75919-.2431.27675-.24308.27675-.6769 0-.43383-.27675-.67692-.27301-.24309-.75919-.24309-.48992 0-.76293.2431-.26927.24308-.26927.6769z"/><path d="M15.6391-2.65155q-.53854 0-.84894.28797-.30667.28797-.30667.79285 0 .50487.30667.79284.3104.28797.84894.28797t.84894-.28797q.31041-.2917.31041-.79284 0-.50488-.3104-.79285-.30667-.28797-.84895-.28797zm-.75545-.32163q-.48618-.11967-.75919-.45252-.26927-.33284-.26927-.81154 0-.66944.47496-1.05838.4787-.38894 1.30895-.38894.83399 0 1.30895.38894.47496.38894.47496 1.05838 0 .4787-.27301.81154-.26927.33285-.75171.45252.54602.12716.84894.4974.30667.37025.30667.90505 0 .81154-.4974 1.24536-.49366.43383-1.4174.43383t-1.42114-.43383q-.49366-.43382-.49366-1.24536 0-.5348.30667-.90505.30666-.37024.85268-.4974zm-.27675-1.193q0 .43382.26927.6769.27301.2431.76293.2431.48618 0 .75919-.2431.27675-.24308.27675-.6769 0-.43383-.27675-.67692-.27301-.24309-.7592-.24309-.48991 0-.76292.2431-.26927.24308-.26927.6769z"/><path d="M24.38034-5.58359h1.1257L26.9309-1.7839l1.43236-3.79968h1.1257V0h-.73675v-4.90294l-1.43984 3.8296h-.7592l-1.43983-3.8296V0h-.73301z"/><path d="M32.30794-.94992h.7891V0h-.7891zm0-3.01057h.7891v.94992h-.7891z"/><path d="M37.7274-3.01057q.54227.11593.8452.48244.30666.3665.30666.90504 0 .8265-.56845 1.27902-.56846.45253-1.61561.45253-.35155 0-.72553-.07106-.37025-.06732-.76667-.2057v-.72926q.31415.18325.68813.27675.37398.0935.78163.0935.71057 0 1.08081-.2805.37399-.28048.37399-.81528 0-.49366-.3478-.77041-.34407-.28049-.96115-.28049h-.65073v-.62081h.68065q.55724 0 .85268-.22065.29545-.2244.29545-.64326 0-.43008-.30667-.6582-.30292-.23188-.87138-.23188-.3104 0-.6657.06732-.35528.06731-.78162.20943v-.67317q.43008-.11968.80407-.17952.37772-.05983.71057-.05983.86016 0 1.3613.39268.50114.38895.50114 1.05464 0 .46374-.26553.78536-.26553.3179-.75545.4413z"/><path d="M41.65656-3.01057q.54228.11593.8452.48244.30667.3665.30667.90504 0 .8265-.56845 1.27902-.56846.45253-1.61562.45253-.35154 0-.72553-.07106-.37024-.06732-.76666-.2057v-.72926q.31414.18325.68813.27675.37398.0935.78163.0935.71057 0 1.08081-.2805.37398-.28048.37398-.81528 0-.49366-.3478-.77041-.34407-.28049-.96114-.28049h-.65073v-.62081h.68065q.55723 0 .85268-.22065.29545-.2244.29545-.64326 0-.43008-.30667-.6582-.30292-.23188-.87138-.23188-.3104 0-.6657.06732-.35528.06731-.78162.20943v-.67317q.43008-.11968.80407-.17952.37772-.05983.71057-.05983.86016 0 1.3613.39268.50114.38895.50114 1.05464 0 .46374-.26553.78536-.26553.3179-.75545.4413z"/><path d="M48.60564-5.58359h.81155l1.5483 2.29627 1.53707-2.29627h.81155l-1.97464 2.92456V0h-.75919v-2.65903z"/><path d="M55.28554-.94992h.7891V0h-.7891zm0-3.01057h.7891v.94992h-.7891z"/><path d="M58.5471-.63577h1.23415v-4.25969l-1.3426.26927v-.68813l1.33512-.26927h.75545v4.94782h1.23415V0H58.5471z"/><path d="M63.96099-5.08619q-.58342 0-.87886.57594-.29171.5722-.29171 1.72407 0 1.14813.2917 1.72406.29545.5722.87887.5722.58716 0 .87886-.5722.29545-.57593.29545-1.72406 0-1.15188-.29545-1.72407-.2917-.57594-.87886-.57594zm0-.59837q.9387 0 1.43236.74423.4974.74049.4974 2.15415 0 1.40992-.4974 2.15415-.49366.74049-1.43236.74049-.9387 0-1.4361-.7405-.49366-.74422-.49366-2.15414 0-1.41366.49366-2.15415.4974-.74423 1.4361-.74423z"/><path d="M67.89016-5.08619q-.58342 0-.87886.57594-.29171.5722-.29171 1.72407 0 1.14813.2917 1.72406.29545.5722.87887.5722.58715 0 .87886-.5722.29545-.57593.29545-1.72406 0-1.15188-.29545-1.72407-.2917-.57594-.87886-.57594zm0-.59837q.9387 0 1.43236.74423.4974.74049.4974 2.15415 0 1.40992-.4974 2.15415-.49366.74049-1.43236.74049-.9387 0-1.4361-.7405-.49366-.74422-.49366-2.15414 0-1.41366.49366-2.15415.4974-.74423 1.4361-.74423z"/><path d="M76.6314-5.58359h.75545v2.35984l2.5057-2.35984h.97235l-2.77122 2.60293L81.06312 0h-.9948l-2.68147-2.68895V0h-.75545z"/><path d="M82.5523-.94992h.7891V0h-.7891zm0-3.01057h.7891v.94992h-.7891z"/><path d="M86.3337-.63577h2.63659V0H85.4249v-.63577q.43009-.44504 1.17058-1.19301.74422-.75171.93496-.96862.36276-.40765.50487-.68813.14586-.28423.14586-.55724 0-.44504-.31415-.72553-.3104-.28049-.81154-.28049-.35529 0-.75171.12342-.39269.12341-.84147.37398v-.76293q.45626-.18325.85269-.27675.39642-.0935.72553-.0935.86764 0 1.38374.43383.5161.43382.5161 1.15935 0 .34407-.1309.65447-.12715.30667-.46748.72553-.0935.10846-.59463.6283-.50114.5161-1.41366 1.44732z"/><path d="M91.32124-3.09285q-.50862 0-.8078.3478-.29545.34781-.29545.95366 0 .60212.29544.95366.2992.34781.80781.34781.50862 0 .80407-.3478.29918-.35155.29918-.95367 0-.60585-.29918-.95366-.29545-.3478-.80407-.3478zm1.49968-2.36732v.68813q-.28423-.13464-.57594-.2057-.28797-.07105-.5722-.07105-.74796 0-1.14439.50488-.39268.50488-.44878 1.52586.22065-.32537.5535-.4974.33285-.17578.733-.17578.84147 0 1.32765.51236.48992.50862.48992 1.38748 0 .86017-.50862 1.38-.50861.51985-1.35382.51985-.96862 0-1.48098-.7405-.51236-.74422-.51236-2.15414 0-1.3239.6283-2.10928.6283-.7891 1.68667-.7891.28422 0 .5722.0561.2917.0561.60585.16829z"/></g><g clip-path="url(#b)"><path fill="#0d6928" fill-opacity="1" fill-rule="nonzero" stroke="none" d="M22.618 27.734h-5.56v5.56h5.56z"/><path fill="#0d6928" fill-opacity="1" fill-rule="nonzero" stroke="none" d="M170.249 87.035s.021.019.06.05c-.016-.011-.033-.022-.048-.033-.002-.003-.012-.017-.012-.017"/><path fill="#0d6928" fill-opacity="1" fill-rule="nonzero" stroke="none" d="M69.737 186.185c1.036 2.387-1.041 4.352-3.162 3.953-1.449-.272-2.224-1.057-2.24-2.635-.031-3.01 4.262-3.946 5.402-1.318"/><path fill="#0d6928" fill-opacity="1" fill-rule="nonzero" stroke="none" d="M86.735 161.939c2.862-2.629 3.51-7.472 4.875-11.597.513.28.608.993.659 1.45.38 3.355-1.865 6.786-2.899 9.092.582.078.883-.591 1.186-.922 2.37-2.578 4.889-5.828 5.799-10.014.49.384-.01 1.347-.132 1.976-1.176 6.048-4.162 10.417-8.038 13.836 6.289-1.79 8.846-7.573 12.255-12.386-.013 1.813-1.08 3.294-1.977 4.612-.926 1.359-1.961 2.647-3.031 3.821-2.171 2.381-4.764 4.379-6.984 6.589 8.147.288 13.711-4.062 18.975-7.512-.005.762-.835 1.051-1.317 1.451-3.679 3.043-8.294 5.919-13.573 7.51-.223-.048-.249.103-.264.263h.264c7.562-1.847 13.974-4.578 19.503-8.96 1.348-1.068 4.298-3.255 3.953-5.402-.087-.545-.817-.907-1.449-1.581-1.044-1.115-1.865-2.605-3.032-3.954-.989-1.143-2.157-2.391-3.426-3.557-2.509-2.308-5.35-4.815-8.433-5.536-.971-.226-1.947-.238-2.635-.131-3.058.471-5.688 2.419-7.38 4.876-2.695 3.915-3.598 9.567-2.899 16.076m2.899-18.185c1.51-1.646 4.606-3.638 7.247-3.952 3.24-.387 5.876 1.142 7.907 2.503 1.701 1.139 3.098 2.457 4.612 3.952 2.2 2.175 3.826 4.552 5.93 6.853.835.913 1.739 1.58 1.845 2.504.296 2.599-2.322 4.592-4.085 6.061-4.009 3.341-8.136 5.466-13.046 7.379-2.547.993-5.202 2.053-8.038 2.24-.875.059-2.032-.018-2.372-.131-.974-.326-1.735-.052-3.03 0-.488-2.587-.718-5.432-1.318-7.907.629-1.375-.005-3.652 0-5.534.013-5.325 1.404-10.756 4.348-13.968"/><path fill="#0d6928" fill-opacity="1" fill-rule="nonzero" stroke="none" d="M132.46 151.66c-.693-.977-.854-2.485-1.977-3.031-1.066.24-1.57.9-2.504.791-1.426-.168-2.522-2.268-2.372-3.691.186-1.75 2.236-3.08 3.822-3.952 1.953-1.075 4.018-1.732 5.666-2.24 3.132 1.504 7.565 4.103 8.697 7.774.606 1.966-.118 4.695-1.582 5.667-3.655.489-6.796-.67-9.75-1.318"/><path fill="#0d6928" fill-opacity="1" fill-rule="nonzero" stroke="none" d="M223.646 131.368c-1.107 1.109-2.102 2.645-3.295 3.029-.172.057-.359-.097-.525-.131-2.391-.488-4.68-.832-6.854-1.318-11.299-2.527-21.23-6.301-28.857-12.387-10.641-8.492-21.268-17.785-30.309-27.539-1.328-1.433-2.496-2.996-3.951-4.349-2.938-2.729-6.339-5.032-10.674-5.93.245-.439.89-.504 1.317-.658 7.985-2.865 18.216-1.664 24.775 1.845 1.703.913 3.368 1.978 4.987 3.122l.048.033c3.227 2.284 6.254 4.899 8.932 7.387 1.043.97 2.283 1.914 3.132 2.967 6.795 5.905 15.076 13.232 21.05 18.946 1.055.8 2.123 1.586 3.226 2.333 5.711 3.867 11.498 9.015 19.896 9.619-.529.957-1.738 1.871-2.898 3.031"/><path fill="#0d6928" fill-opacity="1" fill-rule="nonzero" stroke="none" d="M70 107.65c1.407 1.121 3.115 1.994 4.875 3.029 3.306 1.948 7.262 4.18 11.465 4.481 3.18.228 6.514-.358 9.224-1.055 2.784-.715 5.158-1.891 7.248-3.162 1.422 1.201 3.072 2.58 4.479 3.689.445.352 1.181.717 1.186 1.319-5.004 2.375-11.999 2.744-19.107 2.373-13.003-.682-21.838-3.961-29.253-10.147-7.118-5.941-13.381-13.666-14.889-24.642 2.117-1.803 6.945-1.281 9.224 0 2.762 9.47 8.293 18.332 15.548 24.115"/><path fill="#0d6928" fill-opacity="1" fill-rule="nonzero" stroke="none" d="M133.91 104.487c.002-.57.636-.996 1.054-1.451.909-.987 1.886-1.885 2.767-2.768.461-.461.81-1.222 1.45-1.185 4.537 1.287 8.328 3.597 11.859 5.929 3.588 2.37 6.944 5.02 9.883 8.039-1.181.444-2.068 1.182-3.293 1.581-3.314-2.524-7.533-3.723-11.597-5.534-3.932-1.752-8.037-3.341-12.123-4.611"/><path fill="#0d6928" fill-opacity="1" fill-rule="nonzero" stroke="none" d="M27.94 101.323c.366.408.741.805 1.058 1.18-.305-.304-.587-.602-.852-.893z"/><path fill="#0d6928" fill-opacity="1" fill-rule="nonzero" stroke="none" d="M125.872 109.23h-.264c-3.101-2.432-5.68-5.389-8.169-8.434 4.103-3.697 8.86-8.654 13.045-12.517.665-.613 1.418-1.422 1.977-1.713.99-.516 2.515-.713 3.557-.791 3.958-.301 7.776 1.67 9.884 3.822-8.075 5.147-14.432 12.01-20.03 19.633"/><path fill="#0d6928" fill-opacity="1" fill-rule="nonzero" stroke="none" d="M49.708 106.067c.373-.404 1.355-1.865 1.846-1.844.26.01 1.484 1.615 1.58 1.713.672.67 1.458 1.063 1.45 1.713-1.944.25-4.556 1.098-6.589.395.537-.612 1.006-1.211 1.713-1.977"/><path fill="#0d6928" fill-opacity="1" fill-rule="nonzero" stroke="none" d="M187.41 98.028c8.488-7.322 18.621-13.002 31.098-16.338 2.625 2.602 5.369 5.084 7.775 7.906-10.387 5.164-19.383 11.713-28.859 17.789-3.293-3.166-6.893-6.021-10.014-9.357"/><path fill="#0d6928" fill-opacity="1" fill-rule="nonzero" stroke="none" d="M74.745 106.858c-2.534-1.068-4.365-2.84-5.93-4.877 4.487-1.607 6.654-4.627 9.093-8.168.601-.875 1.354-1.816 1.976-2.768 1.208-1.847 1.828-3.933 4.349-4.085 1.564 2.212 2.832 4.722 4.479 6.853-3.857 5.147-8.855 9.152-13.967 13.045"/><path fill="#0d6928" fill-opacity="1" fill-rule="nonzero" stroke="none" d="M38.376 105.673c-1.506-.648-2.74-1.564-4.085-2.373 1.543-2.09 3.46-3.838 5.007-5.93 1.572-2.125 2.838-4.375 4.217-6.72.778 2.693 1.779 5.16 3.163 7.248-2.699 2.66-5.324 5.394-8.302 7.775"/><path fill="#0d6928" fill-opacity="1" fill-rule="nonzero" stroke="none" d="M66.311 99.61c-.936-1.129-1.773-2.355-2.635-3.557 1.696-.873 3.589-1.566 5.534-2.24 1.945-.676 3.969-1.496 6.061-1.582-2.17 3.277-4.738 6.156-8.96 7.379"/><path fill="#0d6928" fill-opacity="1" fill-rule="nonzero" stroke="none" d="M115.199 98.425c-1.805-2.455-3.864-4.658-5.667-7.115 3.776.572 7.34 1.355 10.938 2.107-1.607 1.82-3.357 3.496-5.271 5.008"/><path fill="#0d6928" fill-opacity="1" fill-rule="nonzero" stroke="none" d="M90.03 97.106c.466.027.26-.617.79-.527.078.275.277.425.396.66-.3.086-1.105.34-1.186-.133"/><path fill="#0d6928" fill-opacity="1" fill-rule="nonzero" stroke="none" d="M42.46 177.224c1.879 1.328 4.257 2.156 6.457 3.163.081.358.261.617.526.79.037 3.347.478 6.287.528 9.62.213.036.227-.125.395-.132 1.35-4.229 2.437-8.721 3.426-13.309-3.142-.82-8.9-3.126-11.332-.132m20.292 13.177c.671 1.524 2.358 3.203 5.008 3.558 4.204.563 8.21-2.935 6.984-7.906-.572-2.317-3.062-4.676-6.325-4.612-4.599.09-7.476 4.846-5.667 8.96m95.534 11.596c1.303 1.998 1.787 3.882 4.613 3.426 3.061-.494 5.559-2.683 8.038-4.876 1.47-1.299 2.853-2.599 4.216-4.084.475-.518 1.063-.954 1.319-1.318.818-1.164 2.029-4.296 2.24-6.589.258-2.798-.645-4.767-2.371-5.93-.408-1.48-.959-2.819-1.451-4.216-2.512-.929-5.291-1.783-7.907-2.635-.802-.263-1.837-.345-2.371-1.054-1.55 1.656-2.873 3.539-3.953 5.666.518-.098.955-.275 1.449-.396 1.438 4.011 6.457 4.436 10.805 5.534-.338.76-1.398.894-2.107.923-2.549.105-5.594-1.524-7.248-2.504.179.896 1.062 1.458 1.715 2.109 1.929 1.93 4.347 3.951 7.773 4.48-.127.487-.854.152-1.055.132-4.168-.42-7.525-2.26-10.013-4.612-.932-.88-1.569-1.943-2.504-2.767 1.193 6.184 6.093 8.664 10.408 11.727-.276.351-1.047.016-1.449-.132-4.217-1.558-7.309-6.396-10.014-9.619-.447.739-.787 1.585-1.449 2.108.773 6.43 3.398 11.009 5.929 15.681-1.929-1.727-3.033-4.152-4.216-6.588-1.159-2.382-2.209-4.979-2.901-7.775-1.33 1.128-2.724 2.193-3.82 3.558 2.103 3.129 4.074 6.294 6.324 9.751M40.219 115.95c.372-.09 1.07.295 1.714.397 2.078.324 4.016.439 5.798.525-5.476 6.693-9.572 14.557-10.411 25.433-.434 5.642.458 11.336 1.846 15.812 1.802 5.816 5.088 10.417 7.247 15.681 1.367.045 3.291.443 5.14.923 1.58.409 3.795.71 4.216 1.844.337.909-.441 1.821-.264 2.899 2.433-5.386 6.106-9.531 11.332-12.123.896.552 1.404 1.114 2.373 1.186 4.331.322 5.396-5.379 8.433-5.798 3.541-.488 4.196 3.973 5.007 6.194 3.82 2.914 8.806 5.733 15.114 6.42.944.086 3.963.269 7.342-.469.043-.01.089-.018.132-.028.087-.02.176-.044.264-.065 1.93-.506 3.658-1.253 5.156-2.103 2.748-1.729 5.077-4.51 5.934-8.973.064-.326.127-.651.187-.976.174-.941.071-2.184.396-2.9.191-.42.896-.855 1.449-1.316 1.666-1.389 2.973-2.773 4.48-3.954 3.081 1.234 6.223 2.476 9.488 3.558 4.369 1.45 8.847 3.008 14.495 2.503 2.543-5.88 5.09-11.846 8.828-16.734 1.197-1.564 2.863-3.483 4.481-4.084.982-.366 2.658-.442 3.822-.528.763-.056 1.529-.054 2.107 0 7.262.682 10.711 7.741 13.176 13.178 4.486.303 9.232 1.044 13.443 1.185.075-2.561.45-5.783.262-9.093-.09-1.615-.363-4.715-1.582-5.533-.58-.391-1.514-.387-2.371-.528-5.754-.943-10.598-2.992-13.836-6.457-1.342-1.437-2.418-3.22-3.559-4.611-.345-.426-.865-.938-.921-1.582.703-.045 1.107-.387 1.714-.527 3.946 3.146 9.168 9.326 16.207 8.96 3.291-.171 4.745-2.171 7.379-3.162 2.114.873 4.481 1.493 6.457 2.502-1.332.334-2.482 1.182-3.822 1.977-.857.512-3.158 1.469-3.424 2.506-.099.381.114 1.32.131 1.976.055 2.26-.254 4.536.264 6.325 1.705.387 3.082-.789 4.084-1.714 2.642-2.438 4.777-5.519 6.721-8.433.32-.48.8-1.643 1.712-1.186-.236 2.764-1.91 4.795-3.425 6.721-1.549 1.967-3.27 3.83-5.008 5.534.133 0 .156-.108.263-.132 4.793-1.903 8.895-4.699 11.596-8.433.389-.535.541-1.316 1.186-1.713.09 1.002-.723 1.744-1.186 2.504-3.621 5.936-8.377 10.853-15.549 13.044 1.125.829 2.668 1.076 4.217.791 3.996-.733 8.006-3.777 10.805-5.929 1.135-.871 2.197-1.78 3.295-2.372-.141.812-.78 1.531-1.317 2.108-4.033 4.323-9.869 6.542-16.078 8.434-.449.136-1.041.226-1.316.658.283 1.171 1.629 1.639 2.635 2.372.912.665 1.787 1.66 2.898 2.108 3.611 1.456 8.443 1.081 13.045.659 3.123-6.183 3.685-17.041 1.449-24.641 1.303.237 2.627.45 3.955.659 1.655 4.649 3.303 9.792 2.899 15.813-.621 9.255-5.969 15.068-12.256 18.448-3.586-1.994-8.006-4.036-12.649-5.93-4.597-1.875-9.558-3.863-14.494-4.217-2.043-.146-3.916.118-5.008.791-.875.539-.99 1.453-1.714 2.108-.35.319-1.079.59-1.58.922-2.491 1.651-4.948 3.577-6.985 5.535-.873.838-1.803 1.717-2.371 2.767 3.57.998 6.873 2.263 10.408 3.294.401.712.512 1.479.793 2.241.246.67.459 1.641.789 2.24.246.445.76.697 1.055 1.054 2.904 3.519 1.281 10.32-.791 13.44-.656.99-2.037 2.298-3.162 3.427-.942.944-2.317 2.127-3.557 3.162-2.545 2.12-5.332 4.338-8.697 4.612-3.402.277-4.207-1.924-5.535-3.953-1.774-2.708-2.379-3.789-4.217-6.72-.486-.774-1.877-3.265-2.24-3.295.135.012-.774.601-1.186.923-6.055 4.741-12.732 8.865-20.161 11.728-4.076 1.569-8.374 2.96-13.177 3.821-4.814.863-10.112.862-15.813.659-10.425-.372-19.921-2.685-27.936-6.062-6.012-2.533-11.317-5.735-15.549-9.883-1.391-1.363-2.725-2.798-4.085-4.216-.507 1.688-1.324 3.068-3.689 2.899-.825-.507-.711-1.372-.79-2.372-.226-2.806-.403-6.197-.66-8.829-1.047-.403-2.275-.922-3.689-1.581-1.014-.473-3.064-1.189-3.295-2.109-.551-2.204 2.241-4.105 3.954-4.216-4.893-7.348-9.719-16.076-11.332-27.804-1.389-10.09.543-20.539 4.875-27.408.511-.813 1.692-2.635 2.239-2.768"/><path fill="#0d6928" fill-opacity="1" fill-rule="nonzero" stroke="none" d="M122.973 111.075c2.56 2.039 4.738 4.25 7.248 5.797 5.9 3.639 13.618 4.953 21.083 3.295 6.959-1.547 12.127-4.701 17.262-8.697 3.023 2.906 6.51 5.351 9.486 8.302-8.646 3.59-19.736 7.635-32.15 6.983-3.951-.207-7.375-.619-10.806-1.58-16.176-4.536-28.513-13.17-37.424-24.643-2.733-3.52-5.493-7.098-7.906-10.674-1.123-1.662-1.858-4-3.294-5.138-.403-.321-.966-.428-1.186-.922 2.495-2.727 9.221-2.108 12.65-.528 2.368 1.092 4.39 2.791 5.666 4.744.034.051.057.109.087.162.027.045.056.073.082.126 1.317 2.71 13.836 17.403 14.99 18.754 1.314 1.41 2.678 2.797 4.212 4.019"/><path fill="#0d6928" fill-opacity="1" fill-rule="nonzero" stroke="none" d="M27.702 101.06c-.953-1.117-1.802-2.318-2.555-3.621l2.792 3.885c-.079-.088-.161-.175-.237-.264"/><path fill="#0d6928" fill-opacity="1" fill-rule="nonzero" stroke="none" d="M27.94 101.323l.206.287c-2.166-2.379-3.037-4.225-3.037-4.225l.039.053c.753 1.303 1.602 2.504 2.555 3.621.075.089.157.176.237.264"/><path fill="#0d6928" fill-opacity="1" fill-rule="nonzero" stroke="none" d="M34.95 111.6c-5.289-5.691-11.011-10.949-16.208-16.734 1.356-1.149 2.465-2.543 3.821-3.69.65 2.363 1.518 4.418 2.585 6.262l-.039-.054s.871 1.847 3.037 4.226c.265.291.548.589.852.892 3.201 3.202 8.637 7.019 17.223 8.668 3.746.456 7.831.162 10.867-1.283 1.466.863 2.606 2.051 3.953 3.031-8.207 2.123-18.841.649-26.091-1.318"/></g></g></svg>