<svg xmlns="http://www.w3.org/2000/svg" role="img" viewBox="-4.73 -4.73 246.22 33.22"><g fill="#8893A2" clip-path="url(#clip0)"><path d="M36.8101 11.4301c0 3.816 2.826 6.768 6.768 6.768 3.942 0 6.786-2.952 6.786-6.768 0-3.81599-2.844-6.76799-6.786-6.76799-3.942 0-6.768 2.952-6.768 6.76799zm2.574 0c0-2.39399 1.746-4.22999 4.194-4.22999 2.466 0 4.194 1.836 4.194 4.22999 0 2.394-1.728 4.23-4.194 4.23-2.448 0-4.194-1.836-4.194-4.23zm21.5902 6.57h2.61l-4.284-13.13999h-2.646l-4.32 13.13999h2.556l.612-1.872h4.86l.612 1.872zm-4.662-4.356l1.62-4.98599 1.62 4.98599h-3.24zm16.6566-4.94999h2.574c0-2.394-1.998-4.032-4.698-4.032-2.754 0-4.662 1.746-4.662 4.14 0 1.67399.936 2.98799 2.664 3.47399 1.17.324 2.556.234 3.402.54.522.18.936.594.936 1.242 0 .954-.81 1.692-2.196 1.692-1.35 0-2.358-.702-2.358-1.746h-2.556c0 2.484 2.088 4.194 4.878 4.194 2.88 0 4.788-1.8 4.788-4.284 0-1.764-1.026-3.042-2.7-3.546-1.26-.37799-2.538-.216-3.384-.52199-.558-.198-.918-.612-.918-1.17 0-.882.792-1.566 2.07-1.566 1.26 0 2.124.63 2.16 1.584zm6.3544 9.30599h2.574V4.86011h-2.574V18.0001zM92.425 8.69411h2.574c0-2.394-1.998-4.032-4.698-4.032-2.754 0-4.662 1.746-4.662 4.14 0 1.67399.936 2.98799 2.664 3.47399 1.17.324 2.556.234 3.402.54.522.18.936.594.936 1.242 0 .954-.81 1.692-2.196 1.692-1.35 0-2.358-.702-2.358-1.746h-2.556c0 2.484 2.088 4.194 4.878 4.194 2.88 0 4.788-1.8 4.788-4.284 0-1.764-1.026-3.042-2.7-3.546-1.26-.37799-2.538-.216-3.384-.52199-.558-.198-.918-.612-.918-1.17 0-.882.792-1.566 2.07-1.566 1.26 0 2.124.63 2.16 1.584zm12.997 9.30599h2.574v-5.346h4.23v-2.52h-4.23V7.38011h7.632v-2.52h-10.206V18.0001zm12.536-6.57c0 3.816 2.826 6.768 6.768 6.768 3.942 0 6.786-2.952 6.786-6.768 0-3.81599-2.844-6.76799-6.786-6.76799-3.942 0-6.768 2.952-6.768 6.76799zm2.574 0c0-2.39399 1.746-4.22999 4.194-4.22999 2.466 0 4.194 1.836 4.194 4.22999 0 2.394-1.728 4.23-4.194 4.23-2.448 0-4.194-1.836-4.194-4.23zm25.034-6.56999h-2.556v8.08199c0 1.53-1.116 2.718-2.682 2.718-1.584 0-2.7-1.188-2.7-2.718V4.86011h-2.574v8.18999c0 2.898 2.196 5.148 5.274 5.148 2.97 0 5.238-2.196 5.238-5.148V4.86011zm12.16 0v8.58599l-5.49-8.58599h-2.556V18.0001h2.556V9.41411l5.49 8.58599h2.556V4.86011h-2.556zm11.163 0h-4.392V18.0001h4.392c3.816 0 6.57-2.826 6.57-6.552 0-3.72599-2.754-6.58799-6.57-6.58799zm-1.818 2.52h1.8c2.34 0 4.014 1.764 4.014 4.06799 0 2.304-1.674 4.032-4.014 4.032h-1.8V7.38011zm19.01 10.61999h2.61l-4.284-13.13999h-2.646l-4.32 13.13999h2.556l.612-1.872h4.86l.612 1.872zm-4.662-4.356l1.62-4.98599 1.62 4.98599h-3.24zm11.848 4.356h2.574V7.38011h3.816v-2.52h-10.206v2.52h3.816V18.0001zm9.687 0h2.574V4.86011h-2.574V18.0001zm6.207-6.57c0 3.816 2.826 6.768 6.768 6.768 3.942 0 6.786-2.952 6.786-6.768 0-3.81599-2.844-6.76799-6.786-6.76799-3.942 0-6.768 2.952-6.768 6.76799zm2.574 0c0-2.39399 1.746-4.22999 4.194-4.22999 2.466 0 4.194 1.836 4.194 4.22999 0 2.394-1.728 4.23-4.194 4.23-2.448 0-4.194-1.836-4.194-4.23zm22.658-6.56999v8.58599l-5.49-8.58599h-2.556V18.0001h2.556V9.41411l5.49 8.58599h2.556V4.86011h-2.556z"/><path fill-rule="evenodd" d="M21.565 4.75358C19.7483 2.42922 17.0816.95821 14.1326.95821 8.42918.9582 4.25647 6.25826 4.25647 12c0 4.0027 2.65636 6.9981 5.61139 6.9981.27604 0 .55004-.025.82004-.0747C8.70885 17.48 7.4425 14.851 7.4425 12c0-4.53973 3.071-8.07743 6.6901-8.07743 3.947 0 6.6917 3.9197 6.6917 8.07743-.0103 3.0707-1.105 6.1237-3.0314 8.3764-1.6813 1.9664-3.859 3.2134-6.2534 3.609 0 0 .1997.0147.4607.0147C18.6276 24.0001 24 18.6274 24 12c0-2.72271-.9073-5.23307-2.435-7.24642zm-1.8215 7.24652c0-4.00302-2.6563-6.99838-5.611-6.99838-.2764 0-.55.025-.8204.075 1.9794 1.44334 3.2454 4.07237 3.2454 6.92338 0 4.5397-3.0707 8.0774-6.68974 8.0774-3.94737 0-6.69173-3.9197-6.69173-8.0774.01-3.07068 1.10501-6.12371 3.03103-8.3764C7.88874 1.65735 10.0664.41034 12.4605.01467c0 0-.1994-.01467-.4604-.01467C5.37272 0 0 5.37272 0 12.0001c0 2.7224.90734 5.2327 2.43536 7.2468 1.81635 2.3236 4.48337 3.795 7.4324 3.795 5.70344 0 9.87574-5.3001 9.87574-11.0418z" clip-rule="evenodd"/></g><defs><clipPath id="clip0"><path fill="#fff" d="M0 0h239v24H0z"/></clipPath></defs></svg>