<?xml version="1.0" encoding="UTF-8" standalone="no"?>
<svg
   version="1.1"
   id="Layer_1"
   x="0px"
   y="0px"
   viewBox="0 0 1892.2 720.92"
   style="enable-background:new 0 0 1892.2 720.92;"
   xml:space="preserve"
   sodipodi:docname="logo-white.svg"
   inkscape:version="1.4.3 (0d15f75, 2025-12-25)"
   xmlns:inkscape="http://www.inkscape.org/namespaces/inkscape"
   xmlns:sodipodi="http://sodipodi.sourceforge.net/DTD/sodipodi-0.dtd"
   xmlns="http://www.w3.org/2000/svg"
   xmlns:svg="http://www.w3.org/2000/svg"><defs
   id="defs5" /><sodipodi:namedview
   id="namedview5"
   pagecolor="#ffffff"
   bordercolor="#000000"
   borderopacity="0.25"
   inkscape:showpageshadow="2"
   inkscape:pageopacity="0.0"
   inkscape:pagecheckerboard="0"
   inkscape:deskcolor="#d1d1d1"
   inkscape:zoom="0.19"
   inkscape:cx="947.36842"
   inkscape:cy="355.26316"
   inkscape:current-layer="Layer_1" />
<style
   type="text/css"
   id="style1">
	.st0{display:none;}
	.st1{display:inline;}
	.st2{font-family:'Poppins-SemiBold';}
	.st3{font-size:155.0914px;}
	.st4{fill-rule:evenodd;clip-rule:evenodd;fill:#380067;}
	.st5{fill-rule:evenodd;clip-rule:evenodd;fill:#4F7EF3;}
</style>

<g
   id="g5"
   style="fill:#000000">
	<path
   d="M821.02,630.46c-20.7-11.47-36.95-27.72-48.75-48.75c-11.81-21.02-17.7-45.27-17.7-72.76c0-27.48,6.06-51.74,18.19-72.76   c12.13-21.02,28.7-37.27,49.72-48.75c21.02-11.48,44.46-17.22,70.34-17.22c25.87,0,49.31,5.75,70.34,17.22   c21.02,11.48,37.59,27.73,49.72,48.75c12.13,21.02,18.19,45.28,18.19,72.76c0,27.49-6.23,51.74-18.67,72.76   c-12.45,21.02-29.27,37.28-50.45,48.75c-21.18,11.48-44.87,17.22-71.06,17.22C865,647.68,841.71,641.94,821.02,630.46z    M925.55,579.53c10.83-5.98,19.48-14.95,25.95-26.92c6.47-11.96,9.7-26.51,9.7-43.66c0-25.54-6.71-45.19-20.13-58.94   c-13.42-13.74-29.83-20.62-49.24-20.62c-19.4,0-35.65,6.88-48.75,20.62c-13.1,13.75-19.65,33.39-19.65,58.94   c0,25.55,6.38,45.2,19.16,58.93c12.77,13.75,28.86,20.62,48.27,20.62C903.16,588.5,914.72,585.51,925.55,579.53z"
   style="fill:#000000"
   id="path2" />
	<path
   d="M1185.06,382.34c15.35-8.08,32.9-12.13,52.63-12.13c22.96,0,43.73,5.66,62.33,16.98c18.59,11.32,33.3,27.41,44.14,48.26   c10.83,20.86,16.25,45.04,16.25,72.52c0,27.49-5.42,51.83-16.25,73c-10.84,21.19-25.55,37.6-44.14,49.24   c-18.6,11.64-39.37,17.46-62.33,17.46c-20.05,0-37.59-3.96-52.63-11.88c-15.04-7.92-27.09-18.19-36.14-30.8v38.32h-67.91V284.36   h67.91v129.51C1157.66,400.94,1169.7,390.43,1185.06,382.34z M1281.11,466.02c-6.63-11.8-15.36-20.78-26.19-26.92   c-10.84-6.14-22.56-9.22-35.17-9.22c-12.29,0-23.85,3.15-34.68,9.46c-10.84,6.3-19.57,15.45-26.19,27.41   c-6.63,11.97-9.94,26.04-9.94,42.2c0,16.17,3.31,30.24,9.94,42.2c6.62,11.97,15.35,21.1,26.19,27.41   c10.83,6.31,22.39,9.46,34.68,9.46c12.61,0,24.33-3.23,35.17-9.7c10.83-6.47,19.56-15.68,26.19-27.65   c6.62-11.96,9.94-26.19,9.94-42.69C1291.05,491.81,1287.73,477.83,1281.11,466.02z"
   style="fill:#000000"
   id="path3" />
	<path
   d="M1459.37,630.46c-20.7-11.47-36.95-27.72-48.75-48.75c-11.81-21.02-17.7-45.27-17.7-72.76c0-27.48,6.06-51.74,18.19-72.76   c12.13-21.02,28.7-37.27,49.72-48.75c21.02-11.48,44.46-17.22,70.34-17.22c25.87,0,49.31,5.75,70.34,17.22   c21.02,11.48,37.59,27.73,49.72,48.75c12.13,21.02,18.19,45.28,18.19,72.76c0,27.49-6.23,51.74-18.67,72.76   c-12.45,21.02-29.27,37.28-50.45,48.75c-21.18,11.48-44.87,17.22-71.06,17.22C1503.34,647.68,1480.06,641.94,1459.37,630.46z    M1563.9,579.53c10.83-5.98,19.48-14.95,25.95-26.92c6.47-11.96,9.7-26.51,9.7-43.66c0-25.54-6.71-45.19-20.13-58.94   c-13.42-13.74-29.84-20.62-49.24-20.62c-19.4,0-35.65,6.88-48.75,20.62c-13.1,13.75-19.65,33.39-19.65,58.94   c0,25.55,6.38,45.2,19.16,58.93c12.77,13.75,28.86,20.62,48.27,20.62C1541.51,588.5,1553.06,585.51,1563.9,579.53z"
   style="fill:#000000"
   id="path4" />
	<path
   d="M1798.43,430.37v130c0,9.06,2.18,15.6,6.55,19.65c4.36,4.05,11.72,6.06,22.07,6.06h31.53v57.24h-42.69   c-57.24,0-85.86-27.81-85.86-83.43V430.37h-32.02v-55.78h32.02v-66.45h68.4v66.45h60.15v55.78H1798.43z"
   style="fill:#000000"
   id="path5" />
</g>
<g
   id="icon-black_00000129166214560931710720000014079342250062017976_">
	<path
   id="otto8-icon-black_00000052808708928244291080000007683698333036600744_"
   class="st5"
   d="M369.51,33.52   c-22.36,0-40.77,18.41-40.77,40.77l0,0c0.04,14.86,8.23,28.61,21.3,35.7v95.32H210.94c-51.76,0-97.1,27.73-121.96,69.01   c-1.81-0.3-3.63-0.51-5.45-0.68c-37.86,0-69.01,31.14-69.01,69.01l0,0c0,37.86,31.15,69.01,69.01,69.01   c0.44-0.03,0.87-0.07,1.31-0.1c23.75,45.19,71.4,76.13,126.1,76.13h317.14c54.71,0,102.36-30.94,126.11-76.17   c0.44,0.03,0.87,0.1,1.3,0.14c37.86,0,69.01-31.14,69.01-69.01l0,0c0-37.86-31.15-69.01-69.01-69.01   c-1.83,0.17-3.64,0.37-5.45,0.68c-24.86-41.28-70.2-69.04-121.96-69.04H388.97v-95.29c13.07-7.13,21.26-20.84,21.3-35.7l0,0   C410.27,51.93,391.87,33.52,369.51,33.52L369.51,33.52z M210.94,250h59.73c-0.06,0.84-0.13,1.69-0.13,2.57   c0,20.16,16.24,36.41,36.42,36.41h125.09c20.18,0,36.42-16.25,36.42-36.41c0-0.88-0.07-1.72-0.13-2.57h59.73   c54.48,0,97.47,42.73,97.47,96.5c0,53.74-42.99,96.5-97.47,96.5H210.94c-54.48,0-97.47-42.76-97.47-96.5   C113.47,292.73,156.46,250,210.94,250L210.94,250z M204.34,298.64L204.34,298.64c-26.26,0-47.86,21.58-47.86,47.86l0,0   c0,26.25,21.6,47.86,47.86,47.86l0,0c26.26,0,47.86-21.62,47.86-47.86l0,0C252.2,320.22,230.59,298.64,204.34,298.64z    M534.68,298.64c-26.26,0-47.86,21.58-47.86,47.86l0,0c0,26.25,21.6,47.86,47.86,47.86l0,0c26.26,0,47.86-21.62,47.86-47.86l0,0   C582.54,320.22,560.93,298.64,534.68,298.64L534.68,298.64z M305,327.32c0,35.63,28.88,64.52,64.51,64.52   c35.63,0,64.51-28.88,64.51-64.52H305z M201.23,521.81c-1.62,9.36-2.55,18.95-2.55,28.78v47.12c-34.52,12.63-59.2,45.67-59.2,84.55   h180.19c0-39.32-25.25-72.66-60.38-84.95v-46.71c0-9.86,1.3-19.35,3.67-28.41h-52.02C207.67,522.18,204.44,522.04,201.23,521.81z    M537.79,521.81c-3.21,0.24-6.44,0.37-9.71,0.37h-52.02c2.37,9.05,3.67,18.54,3.67,28.41v46.71   c-35.14,12.29-60.38,45.63-60.38,84.95h180.2c0-38.88-24.68-71.91-59.2-84.51v-47.15C540.34,540.76,539.41,531.16,537.79,521.81z" />
</g>
</svg>
