<?xml version="1.0" encoding="UTF-8" standalone="no"?>
<svg
   xmlns:dc="http://purl.org/dc/elements/1.1/"
   xmlns:cc="http://creativecommons.org/ns#"
   xmlns:rdf="http://www.w3.org/1999/02/22-rdf-syntax-ns#"
   xmlns:svg="http://www.w3.org/2000/svg"
   xmlns="http://www.w3.org/2000/svg"
   xmlns:sodipodi="http://sodipodi.sourceforge.net/DTD/sodipodi-0.dtd"
   xmlns:inkscape="http://www.inkscape.org/namespaces/inkscape"
   height="216.52213"
   width="399.57617"
   xml:space="preserve"
   viewBox="0 0 399.57617 216.52213"
   y="0px"
   x="0px"
   id="Layer_1"
   version="1.1"
   sodipodi:docname="omp_ibm-cli-cics-deploy.svg"
   inkscape:version="1.0beta1 (fe3e306, 2019-09-17)">
  <sodipodi:namedview
   pagecolor="#ffffff"
   bordercolor="#666666"
   borderopacity="1"
   objecttolerance="10"
   gridtolerance="10"
   guidetolerance="10"
   inkscape:pageopacity="0"
   inkscape:pageshadow="2"
   inkscape:window-width="1600"
   inkscape:window-height="907"
   id="namedview61"
   showgrid="false"
   inkscape:snap-text-baseline="true"
   inkscape:zoom="0.35"
   inkscape:cx="-521.27142"
   inkscape:cy="660.15714"
   inkscape:window-x="57"
   inkscape:window-y="23"
   inkscape:window-maximized="0"
   inkscape:current-layer="Layer_1"
   inkscape:document-rotation="0" />

  <metadata
   id="metadata63">
    <rdf:RDF>
      <cc:Work
   rdf:about="">
        <dc:format>image/svg+xml</dc:format>

        <dc:type
   rdf:resource="http://purl.org/dc/dcmitype/StillImage" />

        <dc:title></dc:title>

      </cc:Work>

    </rdf:RDF>

  </metadata>

  <defs
   id="defs61" />

  <style
   id="style2"
   type="text/css">
	.st0{fill-rule:evenodd;clip-rule:evenodd;fill:#CF4044;}
	.st1{fill:#000F9F;}
	.st2{fill:#CC092F;}
	.st3{fill:#4C83C3;}
	.st4{font-family:'HelveticaNeue-Light';}
	.st5{font-size:26.8184px;}
</style>

  <g
   transform="translate(-2.7,-2.7)"
   id="g56">
    <path
   inkscape:connector-curvature="0"
   style="fill:#4c83c3"
   id="path12"
   d="m 397.3,14 h -65.7 l 4.1,-11.3 h 61.6 z M 222.1,2.7 h 61 l 4,11.4 h -65 c 0.1,-0.1 0,-11.4 0,-11.4 z m -48.3,0 c 10,1 18.8,4.6 26.3,11.4 H 89.5 V 2.7 Z"
   class="st3" />

    <path
   inkscape:connector-curvature="0"
   style="fill:#4c83c3"
   id="path14"
   d="M 2.7,2.7 H 79.5 V 14 H 2.7 Z"
   class="st3" />

    <path
   inkscape:connector-curvature="0"
   style="fill:#4c83c3"
   id="path16"
   d="m 397.3,35.3 h -73.2 l 4,-11.3 h 69.3 v 11.3 z m -102.5,0 H 222.2 V 24 h 68.6 z M 208.6,24 c 1.5,3.8 3.2,6.9 3.2,11.3 H 89.5 V 24 Z"
   class="st3" />

    <path
   inkscape:connector-curvature="0"
   style="fill:#4c83c3"
   id="path18"
   d="M 2.7,24 H 79.5 V 35.3 H 2.7 Z"
   class="st3" />

    <path
   inkscape:connector-curvature="0"
   style="fill:#4c83c3"
   id="path20"
   d="m 316.6,56.6 4.1,-11.3 h 55 v 11.3 z m -18.4,-11.3 4.1,11.3 H 243.8 V 45.3 Z m -85.5,-0.1 c 0,3.9 -0.5,7.9 -1.6,11.3 H 177.6 V 45.2 Z"
   class="st3" />

    <path
   inkscape:connector-curvature="0"
   style="fill:#4c83c3"
   id="path22"
   d="m 24.1,45.3 h 33 v 11.3 h -33 z"
   class="st3" />

    <path
   inkscape:connector-curvature="0"
   style="fill:#4c83c3"
   id="path24"
   d="m 111.7,45.2 h 33 v 11.3 h -33 z"
   class="st3" />

    <path
   inkscape:connector-curvature="0"
   style="fill:#4c83c3"
   id="path26"
   d="m 276.2,68.8 v 8.6 H 243.7 V 66.2 h 61.8 l 3.9,10.5 3.7,-10.5 h 62.3 v 11.3 h -32.3 v -8.6 l -3,8.6 h -61 z M 111.7,66.2 h 94.6 c -2.1,3.8 -5.8,8.3 -9.4,11.3 h -85.2 z"
   class="st3" />

    <path
   inkscape:connector-curvature="0"
   style="fill:#4c83c3"
   id="path28"
   d="m 24.1,66.2 h 33 v 11.3 h -33 z"
   class="st3" />

    <path
   inkscape:connector-curvature="0"
   style="fill:#4c83c3"
   id="path30"
   d="m 343.3,87.5 h 32.3 v 11.3 h -32.3 z"
   class="st3" />

    <path
   inkscape:connector-curvature="0"
   style="fill:#4c83c3"
   id="path32"
   d="m 276.2,87.5 h -32.5 v 11.3 h 32.5 c 0,-0.2 0.1,-11.3 0,-11.3 z m 60.6,0 c -0.1,0 -3.8,11.3 -4,11.3 h -46 l -4.1,-11.3 z m -225.1,0 h 85 c 3.9,3.3 7.4,7.2 10.1,11.3 h -95.2 c 0.1,-0.2 0.1,-11.3 0.1,-11.3 z M 57.1,98.6 V 87.4 H 24.2 v 11.3 h 32.9 z"
   class="st3" />

    <path
   inkscape:connector-curvature="0"
   style="fill:#4c83c3"
   id="path34"
   d="m 343.3,108.7 h 32.3 V 120 h -32.3 z"
   class="st3" />

    <path
   inkscape:connector-curvature="0"
   style="fill:#4c83c3"
   id="path36"
   d="m 243.8,108.7 h 32.5 V 120 h -32.5 z"
   class="st3" />

    <path
   inkscape:connector-curvature="0"
   style="fill:#4c83c3"
   id="path38"
   d="m 325.3,119.9 c 0,-0.1 4,-11.3 4.1,-11.3 h -39.1 c -0.1,0 4,11.3 4,11.3 0,0 31,0.1 31,0 z m -213.6,0 v -11.3 h 33.5 v 11.3 z m 99.8,-11.2 c 1.6,3.4 1.8,7.4 2.1,11.3 h -35.5 v -11.3 z"
   class="st3" />

    <path
   inkscape:connector-curvature="0"
   style="fill:#4c83c3"
   id="path40"
   d="m 24.2,108.7 h 33 V 120 h -33 z"
   class="st3" />

    <path
   inkscape:connector-curvature="0"
   style="fill:#4c83c3"
   id="path42"
   d="m 343.3,129.5 h 54 v 11.3 h -54 z"
   class="st3" />

    <path
   inkscape:connector-curvature="0"
   style="fill:#4c83c3"
   id="path44"
   d="m 222.1,129.5 h 54.1 v 11.3 h -54.1 z"
   class="st3" />

    <path
   inkscape:connector-curvature="0"
   style="fill:#4c83c3"
   id="path46"
   d="m 317.9,140.8 h -16.4 l -4,-11.3 h 24.3 z M 2.7,129.5 v 11.3 h 76.8 v -11.3 z m 209.5,0 c -0.8,3.8 -1.6,8.2 -4.3,11.3 H 89.5 v -11.3 z m 98.3,32.6 H 309 l -3.9,-11.3 h 9.3 z"
   class="st3" />

    <path
   inkscape:connector-curvature="0"
   style="fill:#4c83c3"
   id="path48"
   d="m 343.3,150.8 h 54 v 11.3 h -54 z"
   class="st3" />

    <path
   inkscape:connector-curvature="0"
   style="fill:#4c83c3"
   id="path50"
   d="m 89.5,162.1 v -11.3 h 111.2 c -7.4,7.1 -17.6,11.1 -28.6,11.3 H 89.5"
   class="st3" />

    <path
   inkscape:connector-curvature="0"
   style="fill:#4c83c3"
   id="path52"
   d="m 222.1,150.8 h 54.1 v 11.3 h -54.1 z"
   class="st3" />

    <path
   inkscape:connector-curvature="0"
   style="fill:#4c83c3"
   id="path54"
   d="m 79.5,150.8 v 11.3 H 2.7 v -11.3 c 0,0 76.7,0.1 76.8,0 z"
   class="st3" />

  </g>

  
<g
   transform="translate(-292.96758,-151.95307)"
   style="font-style:normal;font-weight:normal;font-size:40px;line-height:1.25;font-family:sans-serif;fill:#000000;fill-opacity:1;stroke:none"
   id="text73"
   aria-label="CICS deploy plug-in">
  <g
     style="font-style:normal;font-variant:normal;font-weight:normal;font-stretch:normal;font-size:26.6667px;line-height:1.25;font-family:sans-serif;-inkscape-font-specification:'sans-serif Normal';font-variant-ligatures:normal;font-variant-caps:normal;font-variant-numeric:normal;font-variant-east-asian:normal;fill:#000000;fill-opacity:1;stroke:none"
     id="text74"
     aria-label="Zowe CLI CICS deploy plug-in">
    <path
       d="m 514.99219,342.70703 v 6.30274 c -0.65104,-0.33855 -1.273,-0.58595 -1.86328,-0.74219 -0.59028,-0.16494 -1.26737,-0.24805 -2.03125,-0.24805 -0.84202,0 -1.65734,0.17426 -2.44727,0.52149 -0.78125,0.34722 -1.46636,0.85004 -2.05664,1.50976 -0.59896,0.67709 -1.07769,1.4974 -1.43359,2.46094 -0.34723,0.96355 -0.51953,2.06228 -0.51954,3.29492 0,2.36979 0.50782,4.22179 1.52344,5.55859 1.02431,1.33681 2.40451,2.00586 4.14063,2.00586 0.8941,0 1.72243,-0.16927 2.48633,-0.50781 0.76388,-0.33854 1.49804,-0.81228 2.20117,-1.41992 v 1.52344 h 2.44726 v -20.25977 z m 39.79101,0 v 20.25977 h 2.44727 v -20.25977 z m 65.3125,0 v 20.25977 h 2.44727 v -20.25977 z m -236.11914,0.52149 c -1.42361,0 -2.72265,0.22135 -3.89453,0.66406 -1.16319,0.44271 -2.15581,1.08377 -2.98047,1.92578 -0.8507,0.86805 -1.50174,1.93272 -1.95312,3.19141 -0.45139,1.25868 -0.67774,2.68597 -0.67774,4.2832 0,1.68403 0.23438,3.16341 0.70313,4.43945 0.46875,1.26736 1.11979,2.31402 1.95312,3.13867 0.8507,0.84202 1.84831,1.46203 2.99414,1.86133 1.15452,0.39063 2.43555,0.58594 3.8418,0.58594 0.74653,0 1.4286,-0.0601 2.04492,-0.18164 0.625,-0.11285 1.20096,-0.25108 1.73047,-0.41602 0.625,-0.19965 1.12977,-0.39192 1.51172,-0.57422 0.39063,-0.18228 0.82335,-0.37759 1.30078,-0.58593 v -3.01953 h -0.18164 c -0.94618,0.85069 -1.9618,1.48871 -3.04687,1.91406 -1.08507,0.42534 -2.24892,0.63672 -3.49024,0.63672 -0.90278,0 -1.76215,-0.15126 -2.57812,-0.45508 -0.8073,-0.3125 -1.51346,-0.78928 -2.1211,-1.43164 -0.5816,-0.61632 -1.06033,-1.41558 -1.43359,-2.39649 -0.36459,-0.9809 -0.54688,-2.15277 -0.54688,-3.51562 0,-1.30209 0.16624,-2.44791 0.4961,-3.4375 0.33854,-0.99827 0.80729,-1.82357 1.40625,-2.47461 0.61632,-0.66841 1.31445,-1.1582 2.0957,-1.4707 0.78993,-0.32118 1.67535,-0.48243 2.65625,-0.48243 1.19792,0 2.3227,0.2053 3.37305,0.61329 1.05035,0.40798 2.10807,1.05902 3.17578,1.95312 h 0.19531 v -3.06055 c -1.26736,-0.63368 -2.42122,-1.07638 -3.46289,-1.32812 -1.03299,-0.25173 -2.06966,-0.37695 -3.11133,-0.37695 z m 54.11328,0 c -1.42361,0 -2.7207,0.22135 -3.89257,0.66406 -1.1632,0.44271 -2.15777,1.08377 -2.98243,1.92578 -0.85069,0.86805 -1.50173,1.93272 -1.95312,3.19141 -0.45139,1.25868 -0.67578,2.68597 -0.67578,4.2832 0,1.68403 0.23437,3.16341 0.70312,4.43945 0.46875,1.26736 1.11979,2.31402 1.95313,3.13867 0.8507,0.84202 1.8483,1.46203 2.99414,1.86133 1.15451,0.39063 2.43554,0.58594 3.84179,0.58594 0.74653,0 1.42665,-0.0601 2.04297,-0.18164 0.625,-0.11285 1.20291,-0.25108 1.73243,-0.41602 0.625,-0.19965 1.12782,-0.39192 1.50976,-0.57422 0.39063,-0.18228 0.8253,-0.37759 1.30274,-0.58593 v -3.01953 h -0.18164 c -0.94619,0.85069 -1.96181,1.48871 -3.04688,1.91406 -1.08507,0.42534 -2.24891,0.63672 -3.49023,0.63672 -0.90278,0 -1.76216,-0.15126 -2.57813,-0.45508 -0.80729,-0.3125 -1.51541,-0.78928 -2.12305,-1.43164 -0.58159,-0.61632 -1.05837,-1.41558 -1.43164,-2.39649 -0.36458,-0.9809 -0.54687,-2.15277 -0.54687,-3.51562 0,-1.30209 0.16428,-2.44791 0.49414,-3.4375 0.33854,-0.99827 0.80729,-1.82357 1.40625,-2.47461 0.61632,-0.66841 1.3164,-1.1582 2.09765,-1.4707 0.78993,-0.32118 1.67535,-0.48243 2.65626,-0.48243 1.19792,0 2.32074,0.2053 3.37109,0.61329 1.05035,0.40798 2.11002,1.05902 3.17773,1.95312 h 0.19532 v -3.06055 c -1.26736,-0.63368 -2.42122,-1.07638 -3.4629,-1.32812 -1.03298,-0.25173 -2.07161,-0.37695 -3.11328,-0.37695 z m 29.89649,0 c -1.42362,0 -2.72071,0.22135 -3.89258,0.66406 -1.1632,0.44271 -2.15777,1.08377 -2.98242,1.92578 -0.8507,0.86805 -1.50173,1.93272 -1.95313,3.19141 -0.45138,1.25868 -0.67773,2.68597 -0.67773,4.2832 0,1.68403 0.23438,3.16341 0.70312,4.43945 0.46876,1.26736 1.1198,2.31402 1.95313,3.13867 0.8507,0.84202 1.85026,1.46203 2.99609,1.86133 1.15452,0.39063 2.43359,0.58594 3.83985,0.58594 0.74652,0 1.4286,-0.0601 2.04492,-0.18164 0.625,-0.11285 1.20291,-0.25108 1.73242,-0.41602 0.62501,-0.19965 1.12783,-0.39192 1.50977,-0.57422 0.39062,-0.18228 0.8253,-0.37759 1.30273,-0.58593 v -3.01953 h -0.18359 c -0.94619,0.85069 -1.96181,1.48871 -3.04688,1.91406 -1.08507,0.42534 -2.24696,0.63672 -3.48828,0.63672 -0.90278,0 -1.76215,-0.15126 -2.57813,-0.45508 -0.80729,-0.3125 -1.5154,-0.78928 -2.12304,-1.43164 -0.5816,-0.61632 -1.05838,-1.41558 -1.43164,-2.39649 -0.36459,-0.9809 -0.54688,-2.15277 -0.54688,-3.51562 0,-1.30209 0.16428,-2.44791 0.49414,-3.4375 0.33854,-0.99827 0.80729,-1.82357 1.40625,-2.47461 0.61632,-0.66841 1.31446,-1.1582 2.09571,-1.4707 0.78993,-0.32118 1.67534,-0.48243 2.65625,-0.48243 1.19792,0 2.3227,0.2053 3.37304,0.61329 1.05035,0.40798 2.11002,1.05902 3.17774,1.95312 h 0.19531 v -3.06055 c -1.26737,-0.63368 -2.42318,-1.07638 -3.46484,-1.32812 -1.03299,-0.25173 -2.06967,-0.37695 -3.11133,-0.37695 z m 16.7832,0 c -2.10938,0 -3.84918,0.52083 -5.2207,1.5625 -1.37154,1.03298 -2.05664,2.3611 -2.05664,3.98437 0,1.41493 0.41167,2.5638 1.23633,3.44922 0.83333,0.87673 2.10937,1.49869 3.82812,1.86328 0.8507,0.17361 1.653,0.31683 2.4082,0.42969 0.76389,0.11284 1.472,0.25608 2.12305,0.42969 0.85937,0.2257 1.4974,0.54123 1.91406,0.94921 0.42535,0.40799 0.63867,1.04297 0.63867,1.90235 0,0.99826 -0.4477,1.79557 -1.34179,2.39453 -0.88542,0.59895 -2.12738,0.89844 -3.72461,0.89844 -1.12847,0 -2.33442,-0.22136 -3.61914,-0.66407 -1.28473,-0.4427 -2.41754,-1.07074 -3.39844,-1.88671 H 477.375 v 3.22851 c 1.15452,0.51215 2.28732,0.89779 3.39844,1.1582 1.11979,0.26042 2.37782,0.39063 3.77539,0.39063 1.30208,0 2.41384,-0.15625 3.33398,-0.46875 0.92882,-0.3125 1.73915,-0.74522 2.4336,-1.30078 0.63368,-0.51216 1.12543,-1.13716 1.47265,-1.875 0.35591,-0.73785 0.53321,-1.48503 0.53321,-2.24024 0,-1.38889 -0.36459,-2.46961 -1.09375,-3.24218 -0.72917,-0.77257 -1.81489,-1.35048 -3.25586,-1.73243 -0.71181,-0.18229 -1.57921,-0.35959 -2.60352,-0.5332 -1.02431,-0.17361 -1.81358,-0.32183 -2.36914,-0.44336 -1.05035,-0.24306 -1.78451,-0.59462 -2.20117,-1.05469 -0.41667,-0.46007 -0.625,-1.09309 -0.625,-1.90039 0,-0.90277 0.41666,-1.63997 1.25,-2.21289 0.84201,-0.57292 1.95377,-0.85937 3.33398,-0.85937 1.25868,0 2.48568,0.20833 3.6836,0.625 1.20659,0.40798 2.18011,0.92382 2.91797,1.54883 h 0.18164 v -3.04688 c -0.87674,-0.38195 -1.88434,-0.70247 -3.02149,-0.96289 -1.13715,-0.26041 -2.38715,-0.39062 -3.75,-0.39062 z m 188.13867,0.2207 v 2.53906 h 2.75977 v -2.53906 z m -379.41406,0.13086 v 2.29101 h 11.44531 l -11.88867,14.70118 v 2.39453 h 15.13086 v -2.29102 h -12.29297 l 12.00586,-14.76562 v -2.33008 z m 100.72852,0 v 19.38672 h 12.26562 v -2.29102 h -9.6875 v -17.0957 z m 14.02343,0 v 1.97851 h 2.53907 v 15.42969 h -2.53907 v 1.97852 h 7.65625 v -1.97852 h -2.53906 v -15.42969 h 2.53906 v -1.97851 z m 39.27149,0 v 1.97851 h 2.53906 v 15.42969 h -2.53906 v 1.97852 h 7.65625 v -1.97852 h -2.53906 v -15.42969 h 2.53906 v -1.97851 z m -129.72656,4.43945 c -2.0573,0 -3.69488,0.6901 -4.91016,2.07031 -1.2066,1.37153 -1.80859,3.24154 -1.80859,5.61133 0,2.3698 0.60199,4.24175 1.80859,5.61328 1.21528,1.37153 2.85286,2.05664 4.91016,2.05664 2.03993,0 3.66753,-0.68511 4.88281,-2.05664 1.21528,-1.37153 1.82226,-3.24348 1.82226,-5.61328 0,-2.36979 -0.60698,-4.2398 -1.82226,-5.61133 -1.21528,-1.38021 -2.84288,-2.07031 -4.88281,-2.07031 z m 38.37304,0 c -2.11806,0 -3.82877,0.69813 -5.13086,2.0957 -1.2934,1.39757 -1.93945,3.28559 -1.93945,5.66407 0,2.40451 0.67708,4.26345 2.03125,5.57422 1.35417,1.30208 3.23719,1.95312 5.65039,1.95312 0.94618,0 1.84961,-0.11719 2.70899,-0.35156 0.85937,-0.23438 1.70073,-0.52583 2.52539,-0.87305 v -2.66992 h -0.13086 c -0.42535,0.38195 -1.14149,0.77257 -2.14844,1.17187 -0.99827,0.39063 -1.99089,0.58594 -2.98047,0.58594 -0.74653,0 -1.43359,-0.10416 -2.05859,-0.3125 -0.61632,-0.20833 -1.15018,-0.52083 -1.60157,-0.9375 -0.46875,-0.42534 -0.83637,-0.96722 -1.10546,-1.62695 -0.2691,-0.6684 -0.4043,-1.44965 -0.4043,-2.34375 h 10.7168 v -1.32813 c -10e-6,-2.10937 -0.53385,-3.73697 -1.60157,-4.88281 -1.05902,-1.14583 -2.56944,-1.71875 -4.53125,-1.71875 z m 172.13477,0 c -2.11806,0 -3.82878,0.69813 -5.13086,2.0957 -1.29341,1.39757 -1.93945,3.28559 -1.93945,5.66407 0,2.40451 0.67708,4.26345 2.03125,5.57422 1.35417,1.30208 3.23719,1.95312 5.65039,1.95312 0.94618,0 1.8496,-0.11719 2.70898,-0.35156 0.85937,-0.23438 1.70074,-0.52583 2.52539,-0.87305 v -2.66992 h -0.12891 c -0.42535,0.38195 -1.14149,0.77257 -2.14843,1.17187 -0.99827,0.39063 -1.99284,0.58594 -2.98242,0.58594 -0.74653,0 -1.43165,-0.10416 -2.05665,-0.3125 -0.61631,-0.20833 -1.15016,-0.52083 -1.60156,-0.9375 -0.46874,-0.42534 -0.83832,-0.96722 -1.10742,-1.62695 -0.2691,-0.6684 -0.4043,-1.44965 -0.4043,-2.34375 h 10.7168 v -1.32813 c 0,-2.10937 -0.53386,-3.73697 -1.60156,-4.88281 -1.05904,-1.14583 -2.56945,-1.71875 -4.53125,-1.71875 z m 17.08398,0 c -0.92014,0 -1.78949,0.18728 -2.60547,0.56055 -0.80729,0.36458 -1.53645,0.82031 -2.1875,1.36719 v -1.52344 h -2.44726 v 19.9082 h 2.44726 v -6.09375 c 0.63369,0.34722 1.25564,0.60265 1.86328,0.76758 0.61632,0.16493 1.30144,0.24805 2.05665,0.24805 0.86806,0 1.68837,-0.17426 2.46093,-0.52149 0.78126,-0.3559 1.45834,-0.85373 2.03125,-1.49609 0.61632,-0.67708 1.0931,-1.50238 1.43164,-2.47461 0.33854,-0.9809 0.50782,-2.06163 0.50782,-3.24219 0,-2.35243 -0.4898,-4.18836 -1.47071,-5.50781 -0.97222,-1.32813 -2.33441,-1.99219 -4.08789,-1.99219 z m 22.40821,0 c -2.0573,0 -3.69293,0.6901 -4.90821,2.07031 -1.20659,1.37153 -1.81054,3.24154 -1.81054,5.61133 0,2.3698 0.60395,4.24175 1.81054,5.61328 1.21528,1.37153 2.85091,2.05664 4.90821,2.05664 2.03992,0 3.66753,-0.68511 4.88281,-2.05664 1.21528,-1.37153 1.82226,-3.24348 1.82226,-5.61328 0,-2.36979 -0.60698,-4.2398 -1.82226,-5.61133 -1.21528,-1.38021 -2.84289,-2.07031 -4.88281,-2.07031 z m 42.90429,0 c -0.92014,0 -1.78949,0.18728 -2.60547,0.56055 -0.80729,0.36458 -1.53646,0.82031 -2.1875,1.36719 v -1.52344 h -2.44726 v 19.9082 h 2.44726 v -6.09375 c 0.63368,0.34722 1.25564,0.60265 1.86328,0.76758 0.61633,0.16493 1.30143,0.24805 2.05665,0.24805 0.86805,0 1.68836,-0.17426 2.46093,-0.52149 0.78125,-0.3559 1.45833,-0.85373 2.03125,-1.49609 0.61632,-0.67708 1.0931,-1.50238 1.43164,-2.47461 0.33855,-0.9809 0.50782,-2.06163 0.50782,-3.24219 0,-2.35243 -0.4898,-4.18836 -1.47071,-5.50781 -0.97222,-1.32813 -2.33441,-1.99219 -4.08789,-1.99219 z m 39.02344,0 c -0.79861,0 -1.60286,0.17426 -2.41016,0.52149 -0.80729,0.33854 -1.4924,0.81532 -2.05664,1.43164 -0.60764,0.65972 -1.0894,1.44596 -1.44531,2.35742 -0.34722,0.90278 -0.52148,1.97851 -0.52148,3.22851 0,2.283 0.50781,4.05382 1.52343,5.3125 1.02431,1.25 2.40452,1.875 4.14063,1.875 1.04167,0 1.898,-0.14322 2.5664,-0.42968 0.67709,-0.29514 1.38325,-0.73785 2.1211,-1.32813 v 1.32813 c 0,0.59028 -0.0651,1.12413 -0.19531,1.60156 -0.13021,0.47743 -0.34657,0.88607 -0.65039,1.22461 -0.30382,0.3559 -0.72852,0.63238 -1.2754,0.83203 -0.54688,0.19965 -1.23697,0.30078 -2.07031,0.30078 -0.86805,0 -1.73741,-0.11719 -2.60547,-0.35156 -0.86805,-0.2257 -1.50108,-0.41797 -1.90039,-0.57422 h -0.13086 v 2.5 c 0.71181,0.19965 1.43295,0.35286 2.16211,0.45703 0.73785,0.11285 1.49305,0.16797 2.26563,0.16797 2.32639,0 4.05013,-0.57595 5.16992,-1.73047 1.11979,-1.15451 1.67969,-2.96441 1.67969,-5.42969 v -12.89062 h -2.29297 l -0.15625,0.625 c -0.63369,-0.34723 -1.23568,-0.60461 -1.8086,-0.76953 -0.56423,-0.17362 -1.26736,-0.25977 -2.10937,-0.25977 z m 37.99414,0 c -0.85937,0 -1.6977,0.1773 -2.51367,0.5332 -0.81597,0.3559 -1.60526,0.8507 -2.36914,1.48438 v -1.61328 h -2.44727 v 14.54297 h 2.44727 v -10.85938 c 0.6684,-0.51215 1.36653,-0.93186 2.0957,-1.26172 0.72917,-0.32986 1.42925,-0.49609 2.09766,-0.49609 0.65104,0 1.1799,0.0911 1.58789,0.27344 0.40798,0.17361 0.72048,0.44401 0.9375,0.80859 0.20834,0.32987 0.35157,0.78863 0.42969,1.37891 0.0781,0.5816 0.11718,1.20659 0.11718,1.875 v 8.28125 h 2.44727 v -9.43946 c 0,-1.77951 -0.41168,-3.1417 -1.23633,-4.08789 -0.82465,-0.94618 -2.02256,-1.41992 -3.59375,-1.41992 z m -360.70312,0.4043 3.82812,14.54297 h 2.25195 l 3.71094,-11.21094 3.73828,11.21094 h 2.26563 l 3.78906,-14.54297 h -2.46094 l -2.52734,11.26172 -3.72266,-11.26172 h -2.01953 l -3.63281,11.26172 -2.66992,-11.26172 z m 249.67382,0 5.79493,13.83984 -2.70899,6.06836 h 2.61719 l 8.49023,-19.9082 h -2.56445 l -4.50586,10.78125 -4.4668,-10.78125 z m 50.625,0 v 9.43945 c 0,1.80556 0.42665,3.17774 1.27735,4.11524 0.8507,0.92882 2.03863,1.39257 3.5664,1.39257 0.91146,0 1.74479,-0.17426 2.5,-0.52148 0.75521,-0.34722 1.54644,-0.84505 2.3711,-1.49609 v 1.61328 h 2.44726 v -14.54297 h -2.44726 v 10.85937 c -0.65104,0.51216 -1.35416,0.93186 -2.10938,1.26172 -0.74652,0.32986 -1.43663,0.4961 -2.07031,0.4961 -0.71181,0 -1.25564,-0.0881 -1.62891,-0.26172 -0.37326,-0.17361 -0.67577,-0.45009 -0.91015,-0.83203 -0.2257,-0.37327 -0.37392,-0.82097 -0.44336,-1.3418 -0.0694,-0.52951 -0.10352,-1.16255 -0.10352,-1.90039 v -8.28125 z m 45.75586,0 v 14.54297 h 2.44727 v -14.54297 z m -317.03125,1.61328 c 1.30209,0 2.27062,0.35156 2.9043,1.05469 0.64237,0.70312 0.9679,1.69769 0.97656,2.98242 h -8.33398 c 0.10416,-1.14584 0.54188,-2.10439 1.31445,-2.87695 0.78125,-0.77258 1.82791,-1.16016 3.13867,-1.16016 z m 172.13477,0 c 1.30209,0 2.27062,0.35156 2.9043,1.05469 0.64238,0.70312 0.96789,1.69769 0.97656,2.98242 h -8.33399 c 0.10417,-1.14584 0.54384,-2.10439 1.31641,-2.87695 0.78125,-0.77258 1.82596,-1.16016 3.13672,-1.16016 z m -210.37695,0.0918 c 1.31076,0 2.33441,0.46072 3.07226,1.38086 0.73785,0.91146 1.10742,2.30772 1.10742,4.1914 0,1.84028 -0.37456,3.23047 -1.12109,4.16797 -0.73785,0.92883 -1.75651,1.39258 -3.05859,1.39258 -1.31945,0 -2.3481,-0.46874 -3.08594,-1.40625 -0.73785,-0.94618 -1.10742,-2.33138 -1.10742,-4.1543 0,-1.88368 0.36458,-3.27994 1.09375,-4.1914 0.73784,-0.92014 1.77148,-1.38086 3.09961,-1.38086 z m 250,0 c 1.31076,0 2.33441,0.46072 3.07226,1.38086 0.73785,0.91146 1.10742,2.30772 1.10742,4.1914 0,1.84028 -0.3726,3.23047 -1.11914,4.16797 -0.73784,0.92883 -1.75846,1.39258 -3.06054,1.39258 -1.31945,0 -2.34809,-0.46874 -3.08594,-1.40625 -0.73785,-0.94618 -1.10742,-2.33138 -1.10742,-4.1543 0,-1.88368 0.36458,-3.27994 1.09375,-4.1914 0.73785,-0.92014 1.77148,-1.38086 3.09961,-1.38086 z m 82.35742,0.0918 c 0.55555,0 1.11045,0.0651 1.66601,0.19532 0.56424,0.12152 1.17122,0.32986 1.82227,0.625 v 7.92968 c -0.59896,0.46007 -1.25803,0.82769 -1.97852,1.10547 -0.7118,0.2691 -1.42296,0.4043 -2.13476,0.4043 -1.32813,0 -2.27865,-0.42166 -2.85156,-1.26367 -0.57293,-0.84202 -0.85938,-2.07899 -0.85938,-3.71094 0,-1.71875 0.38563,-3.02886 1.1582,-3.93164 0.77258,-0.90278 1.83225,-1.35352 3.17774,-1.35352 z m -138.63282,0.0391 c 0.61632,0 1.18425,0.0551 1.70508,0.16796 0.52084,0.11285 1.11176,0.31815 1.77149,0.61329 v 8.3457 c -0.61632,0.48611 -1.28038,0.88476 -1.99219,1.19726 -0.71181,0.30382 -1.41493,0.45704 -2.10938,0.45704 -1.30208,0 -2.24957,-0.4477 -2.83984,-1.3418 -0.59028,-0.90277 -0.88476,-2.21788 -0.88476,-3.94531 0,-1.75348 0.38259,-3.10764 1.14648,-4.0625 0.76389,-0.95486 1.8316,-1.43164 3.20312,-1.43164 z m 33.24219,0.0898 c 1.24132,0 2.16081,0.43467 2.75977,1.30273 0.59896,0.86806 0.89844,2.17817 0.89844,3.93164 0,1.80556 -0.3826,3.16971 -1.14649,4.08985 -0.76389,0.92014 -1.8266,1.3789 -3.18945,1.3789 -0.63368,0 -1.20161,-0.0551 -1.70508,-0.16796 -0.49479,-0.11285 -1.09071,-0.32618 -1.78516,-0.63868 v -8.24218 c 0.65105,-0.4948 1.33312,-0.89345 2.04493,-1.19727 0.7118,-0.30382 1.41992,-0.45703 2.12304,-0.45703 z m 65.3125,0 c 1.24132,0 2.16081,0.43467 2.75977,1.30273 0.59896,0.86806 0.89844,2.17817 0.89844,3.93164 0,1.80556 -0.3826,3.16971 -1.14649,4.08985 -0.76389,0.92014 -1.82661,1.3789 -3.18945,1.3789 -0.63368,0 -1.20161,-0.0551 -1.70508,-0.16796 -0.49479,-0.11285 -1.09071,-0.32618 -1.78516,-0.63868 v -8.24218 c 0.65104,-0.4948 1.33312,-0.89345 2.04493,-1.19727 0.7118,-0.30382 1.41992,-0.45703 2.12304,-0.45703 z m 50.41602,2.95703 v 2.35547 h 8.125 v -2.35547 z"
       inkscape:original="M 514.99219 342.70703 L 514.99219 349.00977 C 514.34115 348.67122 513.71919 348.42382 513.12891 348.26758 C 512.53863 348.10264 511.86154 348.01953 511.09766 348.01953 C 510.25564 348.01953 509.44032 348.19379 508.65039 348.54102 C 507.86914 348.88824 507.18403 349.39106 506.59375 350.05078 C 505.99479 350.72787 505.51606 351.54818 505.16016 352.51172 C 504.81293 353.47527 504.64063 354.574 504.64062 355.80664 C 504.64062 358.17643 505.14844 360.02843 506.16406 361.36523 C 507.18837 362.70204 508.56857 363.37109 510.30469 363.37109 C 511.19879 363.37109 512.02712 363.20182 512.79102 362.86328 C 513.5549 362.52474 514.28906 362.051 514.99219 361.44336 L 514.99219 362.9668 L 517.43945 362.9668 L 517.43945 342.70703 L 514.99219 342.70703 z M 554.7832 342.70703 L 554.7832 362.9668 L 557.23047 362.9668 L 557.23047 342.70703 L 554.7832 342.70703 z M 620.0957 342.70703 L 620.0957 362.9668 L 622.54297 362.9668 L 622.54297 342.70703 L 620.0957 342.70703 z M 383.97656 343.22852 C 382.55295 343.22852 381.25391 343.44987 380.08203 343.89258 C 378.91884 344.33529 377.92622 344.97635 377.10156 345.81836 C 376.25086 346.68641 375.59982 347.75108 375.14844 349.00977 C 374.69705 350.26845 374.4707 351.69574 374.4707 353.29297 C 374.4707 354.977 374.70508 356.45638 375.17383 357.73242 C 375.64258 358.99978 376.29362 360.04644 377.12695 360.87109 C 377.97765 361.71311 378.97526 362.33312 380.12109 362.73242 C 381.27561 363.12305 382.55664 363.31836 383.96289 363.31836 C 384.70942 363.31836 385.39149 363.25825 386.00781 363.13672 C 386.63281 363.02387 387.20877 362.88564 387.73828 362.7207 C 388.36328 362.52105 388.86805 362.32878 389.25 362.14648 C 389.64063 361.9642 390.07335 361.76889 390.55078 361.56055 L 390.55078 358.54102 L 390.36914 358.54102 C 389.42296 359.39171 388.40734 360.02973 387.32227 360.45508 C 386.2372 360.88042 385.07335 361.0918 383.83203 361.0918 C 382.92925 361.0918 382.06988 360.94054 381.25391 360.63672 C 380.44661 360.32422 379.74045 359.84744 379.13281 359.20508 C 378.55121 358.58876 378.07248 357.7895 377.69922 356.80859 C 377.33463 355.82769 377.15234 354.65582 377.15234 353.29297 C 377.15234 351.99088 377.31858 350.84506 377.64844 349.85547 C 377.98698 348.8572 378.45573 348.0319 379.05469 347.38086 C 379.67101 346.71245 380.36914 346.22266 381.15039 345.91016 C 381.94032 345.58898 382.82574 345.42773 383.80664 345.42773 C 385.00456 345.42773 386.12934 345.63303 387.17969 346.04102 C 388.23004 346.449 389.28776 347.10004 390.35547 347.99414 L 390.55078 347.99414 L 390.55078 344.93359 C 389.28342 344.29991 388.12956 343.85721 387.08789 343.60547 C 386.0549 343.35374 385.01823 343.22852 383.97656 343.22852 z M 438.08984 343.22852 C 436.66623 343.22852 435.36914 343.44987 434.19727 343.89258 C 433.03407 344.33529 432.0395 344.97635 431.21484 345.81836 C 430.36415 346.68641 429.71311 347.75108 429.26172 349.00977 C 428.81033 350.26845 428.58594 351.69574 428.58594 353.29297 C 428.58594 354.977 428.82031 356.45638 429.28906 357.73242 C 429.75781 358.99978 430.40885 360.04644 431.24219 360.87109 C 432.09289 361.71311 433.09049 362.33312 434.23633 362.73242 C 435.39084 363.12305 436.67187 363.31836 438.07812 363.31836 C 438.82465 363.31836 439.50477 363.25825 440.12109 363.13672 C 440.74609 363.02387 441.324 362.88564 441.85352 362.7207 C 442.47852 362.52105 442.98134 362.32878 443.36328 362.14648 C 443.75391 361.9642 444.18858 361.76889 444.66602 361.56055 L 444.66602 358.54102 L 444.48438 358.54102 C 443.53819 359.39171 442.52257 360.02973 441.4375 360.45508 C 440.35243 360.88042 439.18859 361.0918 437.94727 361.0918 C 437.04449 361.0918 436.18511 360.94054 435.36914 360.63672 C 434.56185 360.32422 433.85373 359.84744 433.24609 359.20508 C 432.6645 358.58876 432.18772 357.7895 431.81445 356.80859 C 431.44987 355.82769 431.26758 354.65582 431.26758 353.29297 C 431.26758 351.99088 431.43186 350.84506 431.76172 349.85547 C 432.10026 348.8572 432.56901 348.0319 433.16797 347.38086 C 433.78429 346.71245 434.48437 346.22266 435.26562 345.91016 C 436.05555 345.58898 436.94097 345.42773 437.92188 345.42773 C 439.1198 345.42773 440.24262 345.63303 441.29297 346.04102 C 442.34332 346.449 443.40299 347.10004 444.4707 347.99414 L 444.66602 347.99414 L 444.66602 344.93359 C 443.39866 344.29991 442.2448 343.85721 441.20312 343.60547 C 440.17014 343.35374 439.13151 343.22852 438.08984 343.22852 z M 467.98633 343.22852 C 466.56271 343.22852 465.26562 343.44987 464.09375 343.89258 C 462.93055 344.33529 461.93598 344.97635 461.11133 345.81836 C 460.26063 346.68641 459.6096 347.75108 459.1582 349.00977 C 458.70682 350.26845 458.48047 351.69574 458.48047 353.29297 C 458.48047 354.977 458.71485 356.45638 459.18359 357.73242 C 459.65235 358.99978 460.30339 360.04644 461.13672 360.87109 C 461.98742 361.71311 462.98698 362.33312 464.13281 362.73242 C 465.28733 363.12305 466.5664 363.31836 467.97266 363.31836 C 468.71918 363.31836 469.40126 363.25825 470.01758 363.13672 C 470.64258 363.02387 471.22049 362.88564 471.75 362.7207 C 472.37501 362.52105 472.87783 362.32878 473.25977 362.14648 C 473.65039 361.9642 474.08507 361.76889 474.5625 361.56055 L 474.5625 358.54102 L 474.37891 358.54102 C 473.43272 359.39171 472.4171 360.02973 471.33203 360.45508 C 470.24696 360.88042 469.08507 361.0918 467.84375 361.0918 C 466.94097 361.0918 466.0816 360.94054 465.26562 360.63672 C 464.45833 360.32422 463.75022 359.84744 463.14258 359.20508 C 462.56098 358.58876 462.0842 357.7895 461.71094 356.80859 C 461.34635 355.82769 461.16406 354.65582 461.16406 353.29297 C 461.16406 351.99088 461.32834 350.84506 461.6582 349.85547 C 461.99674 348.8572 462.46549 348.0319 463.06445 347.38086 C 463.68077 346.71245 464.37891 346.22266 465.16016 345.91016 C 465.95009 345.58898 466.8355 345.42773 467.81641 345.42773 C 469.01433 345.42773 470.13911 345.63303 471.18945 346.04102 C 472.2398 346.449 473.29947 347.10004 474.36719 347.99414 L 474.5625 347.99414 L 474.5625 344.93359 C 473.29513 344.29991 472.13932 343.85721 471.09766 343.60547 C 470.06467 343.35374 469.02799 343.22852 467.98633 343.22852 z M 484.76953 343.22852 C 482.66015 343.22852 480.92035 343.74935 479.54883 344.79102 C 478.17729 345.824 477.49219 347.15212 477.49219 348.77539 C 477.49219 350.19032 477.90386 351.33919 478.72852 352.22461 C 479.56185 353.10134 480.83789 353.7233 482.55664 354.08789 C 483.40734 354.2615 484.20964 354.40472 484.96484 354.51758 C 485.72873 354.63042 486.43684 354.77366 487.08789 354.94727 C 487.94726 355.17297 488.58529 355.4885 489.00195 355.89648 C 489.4273 356.30447 489.64062 356.93945 489.64062 357.79883 C 489.64062 358.79709 489.19292 359.5944 488.29883 360.19336 C 487.41341 360.79231 486.17145 361.0918 484.57422 361.0918 C 483.44575 361.0918 482.2398 360.87044 480.95508 360.42773 C 479.67035 359.98503 478.53754 359.35699 477.55664 358.54102 L 477.375 358.54102 L 477.375 361.76953 C 478.52952 362.28168 479.66232 362.66732 480.77344 362.92773 C 481.89323 363.18815 483.15126 363.31836 484.54883 363.31836 C 485.85091 363.31836 486.96267 363.16211 487.88281 362.84961 C 488.81163 362.53711 489.62196 362.10439 490.31641 361.54883 C 490.95009 361.03667 491.44184 360.41167 491.78906 359.67383 C 492.14497 358.93598 492.32227 358.1888 492.32227 357.43359 C 492.32227 356.0447 491.95768 354.96398 491.22852 354.19141 C 490.49935 353.41884 489.41363 352.84093 487.97266 352.45898 C 487.26085 352.27669 486.39345 352.09939 485.36914 351.92578 C 484.34483 351.75217 483.55556 351.60395 483 351.48242 C 481.94965 351.23936 481.21549 350.8878 480.79883 350.42773 C 480.38216 349.96766 480.17383 349.33464 480.17383 348.52734 C 480.17383 347.62457 480.59049 346.88737 481.42383 346.31445 C 482.26584 345.74153 483.3776 345.45508 484.75781 345.45508 C 486.01649 345.45508 487.24349 345.66341 488.44141 346.08008 C 489.648 346.48806 490.62152 347.0039 491.35938 347.62891 L 491.54102 347.62891 L 491.54102 344.58203 C 490.66428 344.20008 489.65668 343.87956 488.51953 343.61914 C 487.38238 343.35873 486.13238 343.22852 484.76953 343.22852 z M 672.9082 343.44922 L 672.9082 345.98828 L 675.66797 345.98828 L 675.66797 343.44922 L 672.9082 343.44922 z M 293.49414 343.58008 L 293.49414 345.87109 L 304.93945 345.87109 L 293.05078 360.57227 L 293.05078 362.9668 L 308.18164 362.9668 L 308.18164 360.67578 L 295.88867 360.67578 L 307.89453 345.91016 L 307.89453 343.58008 L 293.49414 343.58008 z M 394.22266 343.58008 L 394.22266 362.9668 L 406.48828 362.9668 L 406.48828 360.67578 L 396.80078 360.67578 L 396.80078 343.58008 L 394.22266 343.58008 z M 408.24609 343.58008 L 408.24609 345.55859 L 410.78516 345.55859 L 410.78516 360.98828 L 408.24609 360.98828 L 408.24609 362.9668 L 415.90234 362.9668 L 415.90234 360.98828 L 413.36328 360.98828 L 413.36328 345.55859 L 415.90234 345.55859 L 415.90234 343.58008 L 408.24609 343.58008 z M 447.51758 343.58008 L 447.51758 345.55859 L 450.05664 345.55859 L 450.05664 360.98828 L 447.51758 360.98828 L 447.51758 362.9668 L 455.17383 362.9668 L 455.17383 360.98828 L 452.63477 360.98828 L 452.63477 345.55859 L 455.17383 345.55859 L 455.17383 343.58008 L 447.51758 343.58008 z M 317.79102 348.01953 C 315.73372 348.01953 314.09614 348.70963 312.88086 350.08984 C 311.67426 351.46137 311.07227 353.33138 311.07227 355.70117 C 311.07227 358.07097 311.67426 359.94292 312.88086 361.31445 C 314.09614 362.68598 315.73372 363.37109 317.79102 363.37109 C 319.83095 363.37109 321.45855 362.68598 322.67383 361.31445 C 323.88911 359.94292 324.49609 358.07097 324.49609 355.70117 C 324.49609 353.33138 323.88911 351.46137 322.67383 350.08984 C 321.45855 348.70963 319.83095 348.01953 317.79102 348.01953 z M 356.16406 348.01953 C 354.046 348.01953 352.33529 348.71766 351.0332 350.11523 C 349.7398 351.5128 349.09375 353.40082 349.09375 355.7793 C 349.09375 358.18381 349.77083 360.04275 351.125 361.35352 C 352.47917 362.6556 354.36219 363.30664 356.77539 363.30664 C 357.72157 363.30664 358.625 363.18945 359.48438 362.95508 C 360.34375 362.7207 361.18511 362.42925 362.00977 362.08203 L 362.00977 359.41211 L 361.87891 359.41211 C 361.45356 359.79406 360.73742 360.18468 359.73047 360.58398 C 358.7322 360.97461 357.73958 361.16992 356.75 361.16992 C 356.00347 361.16992 355.31641 361.06576 354.69141 360.85742 C 354.07509 360.64909 353.54123 360.33659 353.08984 359.91992 C 352.62109 359.49458 352.25347 358.9527 351.98438 358.29297 C 351.71528 357.62457 351.58008 356.84332 351.58008 355.94922 L 362.29688 355.94922 L 362.29688 354.62109 C 362.29687 352.51172 361.76303 350.88412 360.69531 349.73828 C 359.63629 348.59245 358.12587 348.01953 356.16406 348.01953 z M 528.29883 348.01953 C 526.18077 348.01953 524.47005 348.71766 523.16797 350.11523 C 521.87456 351.5128 521.22852 353.40082 521.22852 355.7793 C 521.22852 358.18381 521.9056 360.04275 523.25977 361.35352 C 524.61394 362.6556 526.49696 363.30664 528.91016 363.30664 C 529.85634 363.30664 530.75976 363.18945 531.61914 362.95508 C 532.47851 362.7207 533.31988 362.42925 534.14453 362.08203 L 534.14453 359.41211 L 534.01562 359.41211 C 533.59027 359.79406 532.87413 360.18468 531.86719 360.58398 C 530.86892 360.97461 529.87435 361.16992 528.88477 361.16992 C 528.13824 361.16992 527.45312 361.06576 526.82812 360.85742 C 526.21181 360.64909 525.67796 360.33659 525.22656 359.91992 C 524.75782 359.49458 524.38824 358.9527 524.11914 358.29297 C 523.85004 357.62457 523.71484 356.84332 523.71484 355.94922 L 534.43164 355.94922 L 534.43164 354.62109 C 534.43164 352.51172 533.89778 350.88412 532.83008 349.73828 C 531.77104 348.59245 530.26063 348.01953 528.29883 348.01953 z M 545.38281 348.01953 C 544.46267 348.01953 543.59332 348.20681 542.77734 348.58008 C 541.97005 348.94466 541.24089 349.40039 540.58984 349.94727 L 540.58984 348.42383 L 538.14258 348.42383 L 538.14258 368.33203 L 540.58984 368.33203 L 540.58984 362.23828 C 541.22353 362.5855 541.84548 362.84093 542.45312 363.00586 C 543.06944 363.17079 543.75456 363.25391 544.50977 363.25391 C 545.37783 363.25391 546.19814 363.07965 546.9707 362.73242 C 547.75196 362.37652 548.42904 361.87869 549.00195 361.23633 C 549.61827 360.55925 550.09505 359.73395 550.43359 358.76172 C 550.77213 357.78082 550.94141 356.70009 550.94141 355.51953 C 550.94141 353.1671 550.45161 351.33117 549.4707 350.01172 C 548.49848 348.68359 547.13629 348.01953 545.38281 348.01953 z M 567.79102 348.01953 C 565.73372 348.01953 564.09809 348.70963 562.88281 350.08984 C 561.67622 351.46137 561.07227 353.33138 561.07227 355.70117 C 561.07227 358.07097 561.67622 359.94292 562.88281 361.31445 C 564.09809 362.68598 565.73372 363.37109 567.79102 363.37109 C 569.83094 363.37109 571.45855 362.68598 572.67383 361.31445 C 573.88911 359.94292 574.49609 358.07097 574.49609 355.70117 C 574.49609 353.33138 573.88911 351.46137 572.67383 350.08984 C 571.45855 348.70963 569.83094 348.01953 567.79102 348.01953 z M 610.69531 348.01953 C 609.77517 348.01953 608.90582 348.20681 608.08984 348.58008 C 607.28255 348.94466 606.55338 349.40039 605.90234 349.94727 L 605.90234 348.42383 L 603.45508 348.42383 L 603.45508 368.33203 L 605.90234 368.33203 L 605.90234 362.23828 C 606.53602 362.5855 607.15798 362.84093 607.76562 363.00586 C 608.38195 363.17079 609.06705 363.25391 609.82227 363.25391 C 610.69032 363.25391 611.51063 363.07965 612.2832 362.73242 C 613.06445 362.37652 613.74153 361.87869 614.31445 361.23633 C 614.93077 360.55925 615.40755 359.73395 615.74609 358.76172 C 616.08464 357.78082 616.25391 356.70009 616.25391 355.51953 C 616.25391 353.1671 615.76411 351.33117 614.7832 350.01172 C 613.81098 348.68359 612.44879 348.01953 610.69531 348.01953 z M 649.71875 348.01953 C 648.92014 348.01953 648.11589 348.19379 647.30859 348.54102 C 646.5013 348.87956 645.81619 349.35634 645.25195 349.97266 C 644.64431 350.63238 644.16255 351.41862 643.80664 352.33008 C 643.45942 353.23286 643.28516 354.30859 643.28516 355.55859 C 643.28516 357.84159 643.79297 359.61241 644.80859 360.87109 C 645.8329 362.12109 647.21311 362.74609 648.94922 362.74609 C 649.99089 362.74609 650.84722 362.60287 651.51562 362.31641 C 652.19271 362.02127 652.89887 361.57856 653.63672 360.98828 L 653.63672 362.31641 C 653.63672 362.90669 653.57162 363.44054 653.44141 363.91797 C 653.3112 364.3954 653.09484 364.80404 652.79102 365.14258 C 652.4872 365.49848 652.0625 365.77496 651.51562 365.97461 C 650.96874 366.17426 650.27865 366.27539 649.44531 366.27539 C 648.57726 366.27539 647.7079 366.1582 646.83984 365.92383 C 645.97179 365.69813 645.33876 365.50586 644.93945 365.34961 L 644.80859 365.34961 L 644.80859 367.84961 C 645.5204 368.04926 646.24154 368.20247 646.9707 368.30664 C 647.70855 368.41949 648.46375 368.47461 649.23633 368.47461 C 651.56272 368.47461 653.28646 367.89866 654.40625 366.74414 C 655.52604 365.58963 656.08594 363.77973 656.08594 361.31445 L 656.08594 348.42383 L 653.79297 348.42383 L 653.63672 349.04883 C 653.00303 348.7016 652.40104 348.44422 651.82812 348.2793 C 651.26389 348.10568 650.56076 348.01953 649.71875 348.01953 z M 687.71289 348.01953 C 686.85352 348.01953 686.01519 348.19683 685.19922 348.55273 C 684.38325 348.90863 683.59396 349.40343 682.83008 350.03711 L 682.83008 348.42383 L 680.38281 348.42383 L 680.38281 362.9668 L 682.83008 362.9668 L 682.83008 352.10742 C 683.49848 351.59527 684.19661 351.17556 684.92578 350.8457 C 685.65495 350.51584 686.35503 350.34961 687.02344 350.34961 C 687.67448 350.34961 688.20334 350.44075 688.61133 350.62305 C 689.01931 350.79666 689.33181 351.06706 689.54883 351.43164 C 689.75717 351.76151 689.9004 352.22027 689.97852 352.81055 C 690.05664 353.39215 690.0957 354.01714 690.0957 354.68555 L 690.0957 362.9668 L 692.54297 362.9668 L 692.54297 353.52734 C 692.54297 351.74783 692.13129 350.38564 691.30664 349.43945 C 690.48199 348.49327 689.28408 348.01953 687.71289 348.01953 z M 327.00977 348.42383 L 330.83789 362.9668 L 333.08984 362.9668 L 336.80078 351.75586 L 340.53906 362.9668 L 342.80469 362.9668 L 346.59375 348.42383 L 344.13281 348.42383 L 341.60547 359.68555 L 337.88281 348.42383 L 335.86328 348.42383 L 332.23047 359.68555 L 329.56055 348.42383 L 327.00977 348.42383 z M 576.68359 348.42383 L 582.47852 362.26367 L 579.76953 368.33203 L 582.38672 368.33203 L 590.87695 348.42383 L 588.3125 348.42383 L 583.80664 359.20508 L 579.33984 348.42383 L 576.68359 348.42383 z M 627.30859 348.42383 L 627.30859 357.86328 C 627.30859 359.66884 627.73524 361.04102 628.58594 361.97852 C 629.43664 362.90734 630.62457 363.37109 632.15234 363.37109 C 633.0638 363.37109 633.89713 363.19683 634.65234 362.84961 C 635.40755 362.50239 636.19878 362.00456 637.02344 361.35352 L 637.02344 362.9668 L 639.4707 362.9668 L 639.4707 348.42383 L 637.02344 348.42383 L 637.02344 359.2832 C 636.3724 359.79536 635.66928 360.21506 634.91406 360.54492 C 634.16754 360.87478 633.47743 361.04102 632.84375 361.04102 C 632.13194 361.04102 631.58811 360.95291 631.21484 360.7793 C 630.84158 360.60569 630.53907 360.32921 630.30469 359.94727 C 630.07899 359.574 629.93077 359.1263 629.86133 358.60547 C 629.79188 358.07596 629.75781 357.44292 629.75781 356.70508 L 629.75781 348.42383 L 627.30859 348.42383 z M 673.06445 348.42383 L 673.06445 362.9668 L 675.51172 362.9668 L 675.51172 348.42383 L 673.06445 348.42383 z M 356.0332 350.03711 C 357.33529 350.03711 358.30382 350.38867 358.9375 351.0918 C 359.57987 351.79492 359.9054 352.78949 359.91406 354.07422 L 351.58008 354.07422 C 351.68424 352.92838 352.12196 351.96983 352.89453 351.19727 C 353.67578 350.42469 354.72244 350.03711 356.0332 350.03711 z M 528.16797 350.03711 C 529.47006 350.03711 530.43859 350.38867 531.07227 351.0918 C 531.71465 351.79492 532.04016 352.78949 532.04883 354.07422 L 523.71484 354.07422 C 523.81901 352.92838 524.25868 351.96983 525.03125 351.19727 C 525.8125 350.42469 526.85721 350.03711 528.16797 350.03711 z M 317.79102 350.12891 C 319.10178 350.12891 320.12543 350.58963 320.86328 351.50977 C 321.60113 352.42123 321.9707 353.81749 321.9707 355.70117 C 321.9707 357.54145 321.59614 358.93164 320.84961 359.86914 C 320.11176 360.79797 319.0931 361.26172 317.79102 361.26172 C 316.47157 361.26172 315.44292 360.79298 314.70508 359.85547 C 313.96723 358.90929 313.59766 357.52409 313.59766 355.70117 C 313.59766 353.81749 313.96224 352.42123 314.69141 351.50977 C 315.42925 350.58963 316.46289 350.12891 317.79102 350.12891 z M 567.79102 350.12891 C 569.10178 350.12891 570.12543 350.58963 570.86328 351.50977 C 571.60113 352.42123 571.9707 353.81749 571.9707 355.70117 C 571.9707 357.54145 571.5981 358.93164 570.85156 359.86914 C 570.11372 360.79797 569.0931 361.26172 567.79102 361.26172 C 566.47157 361.26172 565.44293 360.79298 564.70508 359.85547 C 563.96723 358.90929 563.59766 357.52409 563.59766 355.70117 C 563.59766 353.81749 563.96224 352.42123 564.69141 351.50977 C 565.42926 350.58963 566.46289 350.12891 567.79102 350.12891 z M 650.14844 350.2207 C 650.70399 350.2207 651.25889 350.2858 651.81445 350.41602 C 652.37869 350.53754 652.98567 350.74588 653.63672 351.04102 L 653.63672 358.9707 C 653.03776 359.43077 652.37869 359.79839 651.6582 360.07617 C 650.9464 360.34527 650.23524 360.48047 649.52344 360.48047 C 648.19531 360.48047 647.24479 360.05881 646.67188 359.2168 C 646.09895 358.37478 645.8125 357.13781 645.8125 355.50586 C 645.8125 353.78711 646.19813 352.477 646.9707 351.57422 C 647.74328 350.67144 648.80295 350.2207 650.14844 350.2207 z M 511.51562 350.25977 C 512.13194 350.25977 512.69987 350.31489 513.2207 350.42773 C 513.74154 350.54058 514.33246 350.74588 514.99219 351.04102 L 514.99219 359.38672 C 514.37587 359.87283 513.71181 360.27148 513 360.58398 C 512.28819 360.8878 511.58507 361.04102 510.89062 361.04102 C 509.58854 361.04102 508.64105 360.59332 508.05078 359.69922 C 507.4605 358.79645 507.16602 357.48134 507.16602 355.75391 C 507.16602 354.00043 507.54861 352.64627 508.3125 351.69141 C 509.07639 350.73655 510.1441 350.25977 511.51562 350.25977 z M 544.75781 350.34961 C 545.99913 350.34961 546.91862 350.78428 547.51758 351.65234 C 548.11654 352.5204 548.41602 353.83051 548.41602 355.58398 C 548.41602 357.38954 548.03342 358.75369 547.26953 359.67383 C 546.50564 360.59397 545.44293 361.05273 544.08008 361.05273 C 543.4464 361.05273 542.87847 360.99761 542.375 360.88477 C 541.88021 360.77192 541.28429 360.55859 540.58984 360.24609 L 540.58984 352.00391 C 541.24089 351.50911 541.92296 351.11046 542.63477 350.80664 C 543.34657 350.50282 544.05469 350.34961 544.75781 350.34961 z M 610.07031 350.34961 C 611.31163 350.34961 612.23112 350.78428 612.83008 351.65234 C 613.42904 352.5204 613.72852 353.83051 613.72852 355.58398 C 613.72852 357.38954 613.34592 358.75369 612.58203 359.67383 C 611.81814 360.59397 610.75542 361.05273 609.39258 361.05273 C 608.7589 361.05273 608.19097 360.99761 607.6875 360.88477 C 607.19271 360.77192 606.59679 360.55859 605.90234 360.24609 L 605.90234 352.00391 C 606.55338 351.50911 607.23546 351.11046 607.94727 350.80664 C 608.65907 350.50282 609.36719 350.34961 610.07031 350.34961 z M 660.48633 353.30664 L 660.48633 355.66211 L 668.61133 355.66211 L 668.61133 353.30664 L 660.48633 353.30664 z "
       inkscape:radius="0"
       sodipodi:type="inkscape:offset"
       id="path122" />
  </g>
</g>
</svg>
