<svg xmlns="http://www.w3.org/2000/svg" role="img" viewBox="-4.05 -4.05 210.34 69.59"><defs><clipPath id="a" clipPathUnits="userSpaceOnUse"><path d="M0 350h1100V0H0z"/></clipPath></defs><g clip-path="url(#a)" transform="matrix(.20228 0 0 -.20228 -10.114 66.215)"><path fill="#212429" d="M391.122 223.411c-22.053 0-33.854-17.217-33.854-38.496 0-21.474 11.801-38.497 33.854-38.497 22.053 0 34.048 17.023 34.048 38.497 0 21.279-11.995 38.496-34.048 38.496m0-105.238c-41.205 0-65.774 29.406-65.774 66.742 0 37.143 24.569 66.741 65.774 66.741s66.16-29.598 66.16-66.741c0-37.336-24.955-66.742-66.16-66.742"/><path fill="#212429" d="M526.532 143.71c15.863 0 23.214 13.154 23.214 28.437 0 15.476-7.351 28.436-23.214 28.436-16.057 0-24.181-12.767-24.181-28.436 0-15.477 8.318-28.437 24.181-28.437m-24.181 80.088v-11.801c8.511 9.479 19.152 14.123 31.726 14.123 29.018 0 47.008-23.602 47.008-53.973 0-30.759-17.99-53.974-47.008-53.974-12.574 0-23.215 4.644-31.726 13.93V86.835h-29.599v136.963z"/><path fill="#212429" d="M654.207 170.406c-4.255-5.031-10.833-5.417-18.958-6.771-7.352-1.162-14.703-3.096-14.703-12.381 0-7.931 5.997-11.608 14.509-11.608 10.833 0 19.152 5.998 19.152 18.959zm-59.196 43.913c14.122 8.125 28.63 11.801 44.687 11.801 26.309 0 44.301-9.673 44.301-35.983v-44.106c0-4.836 1.741-6.385 5.416-6.385 1.935 0 3.87.387 5.03 1.355l3.095-18.572c-4.062-2.514-11.22-3.481-16.057-3.481-9.865 0-18.764 4.062-21.859 13.155-7.352-10.253-20.7-13.93-32.694-13.93-21.086 0-35.787 11.414-35.787 32.113 0 24.956 21.859 30.373 37.916 31.92 16.249 1.548 25.148 2.322 25.148 9.867 0 7.931-9.286 9.865-16.636 9.865-10.447 0-23.022-3.289-32.694-9.673z"/><path fill="#212429" d="M757.507 200.583c-15.863 0-23.407-12.767-23.407-28.243 0-15.282 7.544-28.63 23.407-28.63s23.988 12.96 23.988 28.63c0 15.476-7.931 28.243-23.988 28.243m23.988-113.748v45.268c-8.318-9.286-19.152-13.93-31.532-13.93-29.018 0-47.009 23.215-47.009 53.973 0 30.372 17.991 53.974 47.009 53.974 12.574 0 23.214-4.644 31.532-14.123v11.801h29.792V86.835z"/><path fill="#212429" d="M926.581 223.799V120.495h-29.598v11.608c-8.124-8.706-18.958-13.929-30.952-13.929-23.408 0-34.822 16.249-34.822 37.143v68.482h29.599v-61.711c0-8.706 2.709-17.604 16.057-17.604 11.026 0 20.118 7.157 20.118 20.505v58.81z"/><path fill="#212429" d="M1020.79 184.528c-1.161 12.96-10.446 19.539-22.634 19.539-12.961 0-21.86-7.739-22.827-19.539zm28.631-20.12h-74.286c.968-14.121 11.221-21.085 26.117-21.085 11.8 0 21.666 4.642 28.437 12.187l18.958-17.798c-11.414-11.413-26.89-19.538-49.136-19.538-36.95 0-56.101 23.021-56.101 53.392 0 31.146 19.925 54.555 54.166 54.555 32.887 0 52.425-21.667 52.425-52.813 0-3.289-.387-6.578-.58-8.9"/><path fill="#00b3ff" d="M167.352 70.083c-19.284-19.284-50.662-19.283-69.945 0-19.284 19.284-19.284 50.661-.001 69.945l46.631 46.63c12.548 12.549 30.215 16.923 46.341 13.14l16.691 16.691c3.011 3.01 5.448 6.246 7.378 9.609-30.62 14.547-68.419 9.182-93.726-16.125l-32.966-32.968c-8.757 18.381-5.546 41.085 9.652 56.282l46.63 46.63c19.284 19.284 50.66 19.284 69.944 0 19.284-19.284 19.284-50.661 0-69.945l-46.629-46.629c-12.549-12.549-30.217-16.923-46.343-13.141l-16.71-16.71c-3.009-3.009-5.543-6.184-7.609-9.466 30.664-14.696 68.599-9.375 93.976 16.002l32.967 32.968c8.757-18.381 5.546-41.086-9.652-56.283zm69.944 23.315c28.497 28.498 31.705 72.829 9.667 104.917 22.037 32.09 18.83 76.42-9.667 104.916-32.139 32.141-84.435 32.141-116.574 0l-46.63-46.628c-28.497-28.498-31.705-72.829-9.668-104.918-22.037-32.089-18.829-76.42 9.668-104.917 32.139-32.139 84.435-32.14 116.575 0z"/></g></svg>