<?xml version="1.0" encoding="UTF-8"?>
<svg id="Layer_1" data-name="Layer 1" xmlns="http://www.w3.org/2000/svg" viewBox="0 0 2392.77 610.77">
  <defs>
    <style>
      .cls-1 {
        fill: #10ba87;
        stroke-width: 0px;
      }
    </style>
  </defs>
  <path class="cls-1" d="M1984.49,122h260.64v58.39h-195.17v90.69h189.81v62h-189.81v97.5h195.17v59.23h-260.64V122ZM1863.13,122v226.57c0,43.58-21.5,86.14-92.79,86.51-71.29-.37-92.79-42.93-92.79-86.51V122h-65.25v225.35c0,88.67,47.33,148.04,158.04,148.04s158.04-59.36,158.04-148.04V122h-65.25ZM1502.71,441.93h79.92c8.27,17.75,19.16,33.5,32.53,47,2.2,2.22,4.46,4.37,6.78,6.46h-259.94c-119.36,0-192.26-85.07-192.26-190s72.9-190,192.26-190,192.26,85.07,192.26,190c0,66.85-33.17,118.88-82.86,146.14,10.75-5.3,17.62-9.59,31.32-9.59ZM1362,436.9c77.78,0,124.15-58.88,124.15-131.52s-46.38-131.52-124.15-131.52-124.15,58.88-124.15,131.52,46.38,131.52,124.15,131.52ZM910.1,406.38l-33.57,83.4h-74.16c.82-2.49,152.8-351.83,159.74-367.77h56.89c6.94,15.94,158.92,365.28,159.74,367.77h-74.16l-33.57-83.4h-160.9ZM991.42,201.93h-1.75l-56.82,147.63h115.38l-56.82-147.63ZM851.49,235.08c0,58.21-43.65,114.78-112.9,114.78h-128.74v139.95h-66.44V122h181.29c97.45,0,126.79,54.87,126.79,113.08ZM785.07,236.27c0-29.11-15.95-58.08-52.26-58.08h-122.97v115.39h108.54c46.94,0,66.69-28.2,66.69-57.31ZM307.65,115.38c-119.36,0-192.26,85.07-192.26,190s72.9,190,192.26,190,192.26-85.07,192.26-190-72.9-190-192.26-190ZM431.8,305.39c0,72.64-46.38,131.52-124.15,131.52s-124.15-58.88-124.15-131.52,46.38-131.52,124.15-131.52,124.15,58.88,124.15,131.52Z"/>
</svg>