<?xml version="1.0" encoding="UTF-8" standalone="no"?>
<svg
   id="a"
   data-name="Layer 1"
   width="850.39"
   height="986.1"
   viewBox="0 0 850.39 986.1"
   version="1.1"
   sodipodi:docname="open-managed-control-planes-acronym-color.svg"
   inkscape:export-filename="open-managed-control-planes-acronym-color.png"
   inkscape:export-xdpi="96"
   inkscape:export-ydpi="96"
   inkscape:version="1.4.3 (0d15f75, 2025-12-25)"
   xmlns:inkscape="http://www.inkscape.org/namespaces/inkscape"
   xmlns:sodipodi="http://sodipodi.sourceforge.net/DTD/sodipodi-0.dtd"
   xmlns="http://www.w3.org/2000/svg"
   xmlns:svg="http://www.w3.org/2000/svg">
  <sodipodi:namedview
     id="namedview96"
     pagecolor="#ffffff"
     bordercolor="#000000"
     borderopacity="0.25"
     inkscape:showpageshadow="2"
     inkscape:pageopacity="0.0"
     inkscape:pagecheckerboard="0"
     inkscape:deskcolor="#d1d1d1"
     inkscape:zoom="0.026366495"
     inkscape:cx="436.1596"
     inkscape:cy="474.08653"
     inkscape:current-layer="a" />
  <defs
     id="defs74">
    <linearGradient
       id="c"
       x1="-5320.14"
       y1="-1538.38"
       x2="-4916.83"
       y2="-1941.68"
       gradientTransform="translate(5417.06 -1210.77) scale(1 -1)"
       gradientUnits="userSpaceOnUse">
      <stop
         offset="0"
         stop-color="#53b7f9"
         id="stop1" />
      <stop
         offset=".14"
         stop-color="#50b2f8"
         id="stop2" />
      <stop
         offset=".31"
         stop-color="#49a3f5"
         id="stop3" />
      <stop
         offset=".49"
         stop-color="#3e8bf2"
         id="stop4" />
      <stop
         offset=".49"
         stop-color="#3e8bf2"
         id="stop5" />
      <stop
         offset=".6"
         stop-color="#3a82f0"
         id="stop6" />
      <stop
         offset=".76"
         stop-color="#326cec"
         id="stop7" />
      <stop
         offset=".96"
         stop-color="#2348e5"
         id="stop8" />
      <stop
         offset=".99"
         stop-color="#2142e4"
         id="stop9" />
    </linearGradient>
    <linearGradient
       id="d"
       x1="-4631.69"
       y1="-1538.38"
       x2="-4228.39"
       y2="-1941.68"
       gradientTransform="translate(-3858.07 -1210.77) rotate(-180)"
       gradientUnits="userSpaceOnUse">
      <stop
         offset="0"
         stop-color="#53b7f9"
         id="stop10" />
      <stop
         offset=".14"
         stop-color="#50b2f8"
         id="stop11" />
      <stop
         offset=".31"
         stop-color="#49a3f5"
         id="stop12" />
      <stop
         offset=".49"
         stop-color="#3e8bf2"
         id="stop13" />
      <stop
         offset=".49"
         stop-color="#3e8bf2"
         id="stop14" />
      <stop
         offset=".6"
         stop-color="#3a82f0"
         id="stop15" />
      <stop
         offset=".76"
         stop-color="#326cec"
         id="stop16" />
      <stop
         offset=".96"
         stop-color="#2348e5"
         id="stop17" />
      <stop
         offset=".99"
         stop-color="#2142e4"
         id="stop18" />
    </linearGradient>
    <linearGradient
       id="e"
       x1="248.25"
       y1="-1466.86"
       x2="175.12"
       y2="-1593.52"
       gradientTransform="translate(0 -1210.77) scale(1 -1)"
       gradientUnits="userSpaceOnUse">
      <stop
         offset="0"
         stop-color="#fff"
         stop-opacity="0"
         id="stop19" />
      <stop
         offset=".12"
         stop-color="#c8d4e1"
         stop-opacity=".32"
         id="stop20" />
      <stop
         offset=".25"
         stop-color="#95adc6"
         stop-opacity=".61"
         id="stop21" />
      <stop
         offset=".37"
         stop-color="#7090b3"
         stop-opacity=".82"
         id="stop22" />
      <stop
         offset=".46"
         stop-color="#5a7fa7"
         stop-opacity=".95"
         id="stop23" />
      <stop
         offset=".52"
         stop-color="#5279a3"
         id="stop24" />
    </linearGradient>
    <linearGradient
       id="f"
       x1="389.25"
       y1="-1656.14"
       x2="352.14"
       y2="-1720.43"
       gradientTransform="translate(0 -1210.77) scale(1 -1)"
       gradientUnits="userSpaceOnUse">
      <stop
         offset="0"
         stop-color="#fff"
         stop-opacity="0"
         id="stop25" />
      <stop
         offset="0"
         stop-color="#fbfcfd"
         stop-opacity=".02"
         id="stop26" />
      <stop
         offset=".08"
         stop-color="#ced9e5"
         stop-opacity=".28"
         id="stop27" />
      <stop
         offset=".17"
         stop-color="#a8bbd0"
         stop-opacity=".5"
         id="stop28" />
      <stop
         offset=".25"
         stop-color="#88a3c0"
         stop-opacity=".68"
         id="stop29" />
      <stop
         offset=".35"
         stop-color="#7090b3"
         stop-opacity=".82"
         id="stop30" />
      <stop
         offset=".44"
         stop-color="#5f83aa"
         stop-opacity=".92"
         id="stop31" />
      <stop
         offset=".55"
         stop-color="#557ba4"
         stop-opacity=".98"
         id="stop32" />
      <stop
         offset=".7"
         stop-color="#5279a3"
         id="stop33" />
    </linearGradient>
    <linearGradient
       id="g"
       x1="853.18"
       y1="-1469.2"
       x2="909.81"
       y2="-1567.27"
       gradientTransform="translate(1558.99 -1210.77) rotate(-180)"
       gradientUnits="userSpaceOnUse">
      <stop
         offset="0"
         stop-color="#fff"
         stop-opacity="0"
         id="stop34" />
      <stop
         offset=".15"
         stop-color="#c8d4e1"
         stop-opacity=".32"
         id="stop35" />
      <stop
         offset=".3"
         stop-color="#95adc6"
         stop-opacity=".61"
         id="stop36" />
      <stop
         offset=".44"
         stop-color="#7090b3"
         stop-opacity=".82"
         id="stop37" />
      <stop
         offset=".55"
         stop-color="#5a7fa7"
         stop-opacity=".95"
         id="stop38" />
      <stop
         offset=".63"
         stop-color="#5279a3"
         id="stop39" />
    </linearGradient>
    <linearGradient
       id="h"
       x1="1035.95"
       y1="-1632.77"
       x2="1074.9"
       y2="-1700.23"
       gradientTransform="translate(1558.99 -1210.77) rotate(-180)"
       gradientUnits="userSpaceOnUse">
      <stop
         offset="0"
         stop-color="#fff"
         stop-opacity="0"
         id="stop40" />
      <stop
         offset=".02"
         stop-color="#f5f7fa"
         stop-opacity=".05"
         id="stop41" />
      <stop
         offset=".16"
         stop-color="#c4d1df"
         stop-opacity=".34"
         id="stop42" />
      <stop
         offset=".29"
         stop-color="#9bb1c9"
         stop-opacity=".58"
         id="stop43" />
      <stop
         offset=".42"
         stop-color="#7b98b8"
         stop-opacity=".76"
         id="stop44" />
      <stop
         offset=".55"
         stop-color="#6487ac"
         stop-opacity=".89"
         id="stop45" />
      <stop
         offset=".67"
         stop-color="#567ca5"
         stop-opacity=".97"
         id="stop46" />
      <stop
         offset=".79"
         stop-color="#5279a3"
         id="stop47" />
    </linearGradient>
    <linearGradient
       id="j"
       x1="682.88"
       y1="-1757.66"
       x2="703.79"
       y2="-1769.74"
       gradientTransform="translate(2199.3 -58.03) rotate(90) scale(1 -1)"
       gradientUnits="userSpaceOnUse">
      <stop
         offset="0"
         stop-color="#fff"
         stop-opacity="0"
         id="stop48" />
      <stop
         offset=".08"
         stop-color="#e5ebf1"
         stop-opacity=".12"
         id="stop49" />
      <stop
         offset=".29"
         stop-color="#a6bacf"
         stop-opacity=".41"
         id="stop50" />
      <stop
         offset=".47"
         stop-color="#7896b7"
         stop-opacity=".62"
         id="stop51" />
      <stop
         offset=".63"
         stop-color="#5c80a8"
         stop-opacity=".75"
         id="stop52" />
      <stop
         offset=".73"
         stop-color="#5279a3"
         stop-opacity=".8"
         id="stop53" />
    </linearGradient>
    <linearGradient
       id="k"
       x1="517.63"
       y1="-1757.66"
       x2="538.54"
       y2="-1769.74"
       gradientTransform="translate(2199.3 -58.03) rotate(90) scale(1 -1)"
       gradientUnits="userSpaceOnUse">
      <stop
         offset="0"
         stop-color="#fff"
         stop-opacity="0"
         id="stop54" />
      <stop
         offset=".08"
         stop-color="#e5ebf1"
         stop-opacity=".12"
         id="stop55" />
      <stop
         offset=".29"
         stop-color="#a6bacf"
         stop-opacity=".41"
         id="stop56" />
      <stop
         offset=".47"
         stop-color="#7896b7"
         stop-opacity=".62"
         id="stop57" />
      <stop
         offset=".63"
         stop-color="#5c80a8"
         stop-opacity=".75"
         id="stop58" />
      <stop
         offset=".73"
         stop-color="#5279a3"
         stop-opacity=".8"
         id="stop59" />
    </linearGradient>
    <linearGradient
       id="l"
       x1="728.92"
       y1="-1757.66"
       x2="749.83"
       y2="-1769.74"
       gradientTransform="translate(2199.3 -58.03) rotate(90) scale(1 -1)"
       gradientUnits="userSpaceOnUse">
      <stop
         offset="0"
         stop-color="#fff"
         stop-opacity="0"
         id="stop60" />
      <stop
         offset=".08"
         stop-color="#e5ebf1"
         stop-opacity=".12"
         id="stop61" />
      <stop
         offset=".29"
         stop-color="#a6bacf"
         stop-opacity=".41"
         id="stop62" />
      <stop
         offset=".47"
         stop-color="#7896b7"
         stop-opacity=".62"
         id="stop63" />
      <stop
         offset=".63"
         stop-color="#5c80a8"
         stop-opacity=".75"
         id="stop64" />
      <stop
         offset=".73"
         stop-color="#5279a3"
         stop-opacity=".8"
         id="stop65" />
    </linearGradient>
    <linearGradient
       id="m"
       x1="776.61"
       y1="-1757.66"
       x2="797.52"
       y2="-1769.74"
       gradientTransform="translate(2199.3 -58.03) rotate(90) scale(1 -1)"
       gradientUnits="userSpaceOnUse">
      <stop
         offset="0"
         stop-color="#fff"
         stop-opacity="0"
         id="stop66" />
      <stop
         offset=".08"
         stop-color="#e5ebf1"
         stop-opacity=".12"
         id="stop67" />
      <stop
         offset=".29"
         stop-color="#a6bacf"
         stop-opacity=".41"
         id="stop68" />
      <stop
         offset=".47"
         stop-color="#7896b7"
         stop-opacity=".62"
         id="stop69" />
      <stop
         offset=".63"
         stop-color="#5c80a8"
         stop-opacity=".75"
         id="stop70" />
      <stop
         offset=".73"
         stop-color="#5279a3"
         stop-opacity=".8"
         id="stop71" />
    </linearGradient>
    <linearGradient
       id="n"
       x1="338.07"
       y1="-614.11"
       x2="1126.3"
       y2="-367.57"
       gradientUnits="userSpaceOnUse">
      <stop
         offset="0"
         stop-color="#53b7f9"
         id="stop72" />
      <stop
         offset=".5"
         stop-color="#3a82f0"
         id="stop73" />
      <stop
         offset=".99"
         stop-color="#2142e4"
         id="stop74" />
    </linearGradient>
  </defs>
  <path
     d="M286.95,272.59l-113.73-12.33s7.06-60.53,63.56-53.71c57.44,6.93,50.17,66.04,50.17,66.04Z"
     fill="none"
     stroke="#221f20"
     stroke-miterlimit="10"
     stroke-width="6.5"
     id="path74" />
  <path
     d="M583.58,272.59l113.73-12.33s-7.06-60.53-63.56-53.71c-57.44,6.93-50.17,66.04-50.17,66.04Z"
     fill="none"
     stroke="#221f20"
     stroke-miterlimit="10"
     stroke-width="6.5"
     id="path75" />
  <g
     id="b"
     data-name="Layer 5">
    <polygon
       points="412.95 473.18 433.24 585.58 468.37 470.06 412.95 473.18"
       fill="#fff"
       id="polygon75" />
    <path
       d="M435.51,574l-22.3-102.4c-.3-1.37-1.48-2.36-2.89-2.4-11.83-.35-55.32-2.61-59.38-6.42l-61.64-58c-5.96-5.61-9.05-13.61-8.4-21.76,2.39-29.97,8.32-97.41,9.89-115.78.14-1.66-1.07-3.12-2.73-3.29h0l-114.24-11.65c-1.69-.17-3.19,1.07-3.35,2.76l-15.56,169.46c-.5,7.46,2.51,14.72,8.13,19.62l135.87,130.82c5.15,4.49,8.12,10.98,8.18,17.81l1.12,200.64c0,1.68,1.38,3.04,3.06,3.04l122.63-.47c1.69,0,3.05-1.38,3.04-3.07l-1.38-218.27c0-.21-.02-.42-.07-.63h.02Z"
       fill="url(#c)"
       id="path76" />
    <path
       d="M291.81,296.44l-146.47-13.93c-1.7-.16-3.21,1.09-3.36,2.79l-8.87,101.33c-.11,1.3,1.16,2.24,2.41,1.85l154.03-48.68c.82-.26,1.4-1,1.45-1.86l2.48-39.54c.06-1-.68-1.87-1.68-1.96h0Z"
       fill="#fff"
       id="path77" />
    <path
       d="M435.04,574l22.3-102.4c.3-1.37,1.48-2.36,2.89-2.4,11.83-.35,55.32-2.61,59.38-6.42l61.64-58c5.96-5.61,9.05-13.61,8.4-21.76-2.39-29.97-8.32-97.41-9.89-115.78-.14-1.66,1.07-3.12,2.73-3.29h0l114.24-11.65c1.69-.17,3.19,1.07,3.35,2.76l15.56,169.46c.5,7.46-2.51,14.72-8.13,19.62l-135.87,130.82c-5.15,4.49-8.12,10.98-8.18,17.81l-1.12,200.64c0,1.68-1.38,3.04-3.06,3.04l-122.63-.47c-1.69,0-3.05-1.38-3.04-3.07l1.38-218.27c0-.21.02-.42.07-.63h-.02Z"
       fill="url(#d)"
       id="path78" />
    <path
       d="M435.89,471.59l-95.19,40.68c-.79.34-1.67-.24-1.67-1.1v-86.36c0-.88.92-1.46,1.72-1.07l95.19,45.68c.92.45.89,1.76-.05,2.17Z"
       fill="#fff"
       id="path79" />
    <path
       d="M346.27,59.75c12.29-12.91,20.63-21.67,20.63-21.67,0,0-89.19,124.83-100.42,140.55-1.35,1.63-2.65,3.21-2.65,3.21-6.48,7.84-15.94,10.71-21.13,6.42-5.19-4.29-4.15-14.12,2.33-21.96,0,0,.66-.79,1.52-1.83,3.37-3.53,66.22-69.55,99.73-104.73h-.01Z"
       fill="#221f20"
       stroke="#221f20"
       stroke-miterlimit="10"
       id="path80" />
    <path
       d="M421.77,446.09s-60.73-17.83-61.08-58.78c-.07-7.91-23.64-12.81-23.64-12.81,0,0,1.29-45.9,4.68-59.14,6.13-23.94,26.11-64,82.98-64,52.71,0,70.26,37.25,73.73,59.36,4.65,29.67,5.77,78.89-11.61,119.56"
       fill="none"
       stroke="#221f20"
       stroke-linecap="round"
       stroke-miterlimit="10"
       stroke-width="6.5"
       id="path81" />
    <path
       d="M291.76,296.39l-147.65-14.04c-1.04-.1-1.96.67-2.05,1.7l-8.97,102.47c-.12,1.33,1.16,2.36,2.44,1.95l154.13-48.77c.74-.23,1.26-.9,1.31-1.67l2.49-39.66c.06-1.01-.69-1.89-1.7-1.99h0Z"
       fill="url(#e)"
       isolation="isolate"
       opacity=".27"
       id="path82" />
    <path
       d="M436.18,471.42l-95.48,40.86c-.79.34-1.66-.24-1.66-1.09v-86.37c0-.75,1.04-1.39,1.72-1.07l95.45,45.81c.8.37.78,1.51-.02,1.86h0Z"
       fill="url(#f)"
       isolation="isolate"
       opacity=".42"
       id="path83" />
    <path
       d="M578.73,296.44l146.47-13.93c1.7-.16,3.21,1.09,3.36,2.79l8.87,101.33c.11,1.3-1.16,2.24-2.41,1.85l-154.03-48.68c-.82-.26-1.4-1-1.45-1.86l-2.48-39.54c-.06-1,.68-1.87,1.68-1.96h-.01Z"
       fill="#fff"
       id="path84" />
    <path
       d="M435.31,471.59l95.19,40.68c.79.34,1.67-.24,1.67-1.1v-86.36c0-.88-.92-1.46-1.72-1.07l-95.19,45.68c-.92.45-.89,1.76.05,2.17Z"
       fill="#fff"
       id="path85" />
    <path
       d="M578.79,296.39l147.65-14.04c1.04-.1,1.96.67,2.05,1.7l8.97,102.47c.12,1.33-1.16,2.36-2.44,1.95l-154.13-48.77c-.74-.23-1.26-.9-1.31-1.67l-2.49-39.66c-.06-1.01.69-1.89,1.7-1.99h0Z"
       fill="url(#g)"
       isolation="isolate"
       opacity=".27"
       id="path86" />
    <path
       d="M435.03,471.4l95.48,40.86c.79.34,1.66-.24,1.66-1.09v-86.37c0-.75-1.04-1.39-1.72-1.07l-95.45,45.81c-.8.37-.78,1.51.02,1.86h.01Z"
       fill="url(#h)"
       isolation="isolate"
       opacity=".42"
       id="path87" />
  </g>
  <g
     id="i"
     data-name="Layer 7">
    <circle
       cx="155.26"
       cy="361.17"
       r="7.86"
       fill="#5279a3"
       id="circle87" />
    <circle
       cx="712.84"
       cy="361.17"
       r="7.86"
       fill="#5279a3"
       id="circle88" />
    <circle
       cx="435.6"
       cy="635.31"
       r="12.07"
       fill="#fff"
       id="circle89" />
    <circle
       cx="435.6"
       cy="635.31"
       r="12.07"
       fill="url(#j)"
       id="circle90" />
    <circle
       cx="435.6"
       cy="470.06"
       r="12.07"
       fill="#fff"
       id="circle91" />
    <circle
       cx="435.6"
       cy="470.06"
       r="12.07"
       fill="url(#k)"
       id="circle92" />
    <circle
       cx="435.6"
       cy="681.35"
       r="12.07"
       fill="#fff"
       id="circle93" />
    <circle
       cx="435.6"
       cy="681.35"
       r="12.07"
       fill="url(#l)"
       id="circle94" />
    <path
       d="M423.53,729.04c0-6.67,5.4-12.07,12.07-12.07s12.07,5.4,12.07,12.07-5.4,12.07-12.07,12.07-12.07-5.4-12.07-12.07Z"
       fill="#fff"
       id="path94" />
    <path
       d="M423.53,729.04c0-6.67,5.4-12.07,12.07-12.07s12.07,5.4,12.07,12.07-5.4,12.07-12.07,12.07-12.07-5.4-12.07-12.07Z"
       fill="url(#m)"
       id="path95" />
  </g>
  <path
     d="M198.99,846.39c-6.64-3.7-13.94-5.55-21.9-5.55s-15.27,1.85-21.9,5.55c-6.64,3.7-11.91,8.85-15.81,15.45-3.9,6.6-5.85,14.04-5.85,22.33s1.95,15.75,5.85,22.39c3.9,6.64,9.17,11.81,15.81,15.51,6.64,3.7,13.94,5.55,21.9,5.55s15.25-1.85,21.84-5.55c6.6-3.7,11.83-8.87,15.69-15.51,3.86-6.64,5.79-14.1,5.79-22.39s-1.91-15.73-5.73-22.33c-3.82-6.6-9.05-11.75-15.69-15.45ZM193.32,902.02c-4.06,4.51-9.47,6.76-16.23,6.76s-12.29-2.23-16.35-6.7c-4.06-4.47-6.09-10.44-6.09-17.92s2.03-13.55,6.09-17.98c4.06-4.42,9.51-6.64,16.35-6.64s12.17,2.23,16.23,6.7c4.06,4.46,6.09,10.44,6.09,17.92s-2.03,13.36-6.09,17.86ZM734.73,855.2c-2.33-4.1-5.83-7.32-10.5-9.65-4.67-2.33-10.38-3.5-17.14-3.5h-33.43v84.71h20.64v-30.41h12.79c6.92,0,12.71-1.25,17.38-3.74,4.67-2.49,8.12-5.77,10.38-9.83,2.25-4.06,3.38-8.55,3.38-13.46,0-5.31-1.17-10.02-3.5-14.12ZM714.33,877.16c-1.93,1.85-4.87,2.78-8.81,2.78h-11.22v-21.24h11.22c3.94,0,6.88.93,8.81,2.78,1.93,1.85,2.9,4.46,2.9,7.84s-.97,5.99-2.9,7.84ZM285.34,862.68c-4.51-2.81-9.53-4.22-15.08-4.22-4.75,0-8.89.97-12.43,2.9-3.54,1.93-6.32,4.46-8.33,7.6v-9.53h-20.64v99.44h20.64v-41.51c2.01,3.06,4.81,5.55,8.39,7.48,3.58,1.93,7.7,2.9,12.37,2.9,5.55,0,10.58-1.43,15.08-4.28,4.5-2.85,8.06-6.92,10.68-12.19,2.61-5.27,3.92-11.36,3.92-18.28s-1.31-12.99-3.92-18.22c-2.62-5.23-6.17-9.25-10.68-12.07ZM274.6,905.22c-2.9,3.02-6.4,4.53-10.5,4.53s-7.58-1.49-10.44-4.46c-2.86-2.98-4.28-7.04-4.28-12.19s1.43-9.21,4.28-12.19c2.86-2.98,6.34-4.46,10.44-4.46s7.7,1.47,10.56,4.4c2.85,2.94,4.28,6.98,4.28,12.13s-1.45,9.23-4.34,12.25ZM420.13,858.7c-4.43,0-8.41.87-11.95,2.59-3.54,1.73-6.36,4.08-8.45,7.06v-8.93h-20.64v67.34h20.64v-36.56c0-4.5,1.17-8,3.5-10.5,2.33-2.49,5.47-3.74,9.41-3.74s7.08,1.25,9.41,3.74c2.33,2.5,3.5,5.99,3.5,10.5v36.56h20.51v-39.34c0-8.93-2.35-15.95-7.06-21.06-4.71-5.11-11-7.66-18.89-7.66ZM528.13,900.7l-23.77-58.65h-24.38v84.71h20.64v-50.92l19.07,50.92h16.65l18.95-50.8v50.8h20.64v-84.71h-24.26l-23.53,58.65ZM626.6,859.91c3.94,0,7.46.93,10.56,2.78,3.1,1.85,5.49,4.55,7.18,8.09h22.69c-2.41-9.17-7.2-16.41-14.36-21.72-7.16-5.31-15.77-7.96-25.82-7.96-8.21,0-15.55,1.83-22.02,5.49-6.48,3.66-11.52,8.77-15.14,15.33-3.62,6.56-5.43,14.02-5.43,22.39s1.81,15.81,5.43,22.33c3.62,6.52,8.67,11.61,15.14,15.26,6.47,3.66,13.82,5.49,22.02,5.49,10.06,0,18.66-2.63,25.82-7.9,7.16-5.27,11.95-12.49,14.36-21.66h-22.69c-1.69,3.54-4.08,6.24-7.18,8.08-3.1,1.85-6.62,2.78-10.56,2.78-6.36,0-11.51-2.21-15.45-6.64-3.94-4.42-5.91-10.34-5.91-17.74s1.97-13.31,5.91-17.74c3.94-4.42,9.09-6.64,15.45-6.64ZM355.08,862.56c-5.07-2.73-10.86-4.1-17.38-4.1s-12.59,1.41-17.74,4.22c-5.15,2.82-9.15,6.84-12.01,12.07-2.86,5.23-4.28,11.34-4.28,18.34s1.45,13.11,4.34,18.34c2.9,5.23,6.92,9.25,12.07,12.07,5.15,2.82,11.02,4.22,17.62,4.22,5.47,0,10.42-1.01,14.84-3.02,4.42-2.01,8.1-4.79,11.04-8.33,2.94-3.54,4.97-7.52,6.09-11.95h-21.96c-2.01,4.34-5.59,6.52-10.74,6.52-3.46,0-6.38-1.1-8.75-3.32-2.37-2.21-3.72-5.41-4.04-9.59h46.7c.24-2.09.36-4.1.36-6.03,0-6.76-1.43-12.67-4.28-17.74-2.86-5.07-6.82-8.97-11.89-11.71ZM324.31,886.58c.56-3.7,2.03-6.56,4.4-8.57,2.37-2.01,5.29-3.02,8.75-3.02s6.64,1.05,9.05,3.14c2.41,2.09,3.62,4.91,3.62,8.45h-25.82Z"
     fill="url(#n)"
     id="path96" />
</svg>
