<?xml version="1.0" encoding="UTF-8"?>
<svg xmlns="http://www.w3.org/2000/svg" viewBox="0 0 632 170" width="632" height="170">
  <rect width="632" height="170" fill="#000000"/>
  
  <!-- Main content: icon + GFOSS text -->
  <g transform="translate(0.000000,170.000000) scale(0.100000,-0.100000)" fill="#F48221">
    <path d="M898 1514 c-5 -4 -8 -74 -8 -155 l0 -147 60 -10 c119 -21 208 -93
247 -197 l19 -50 152 -3 152 -3 0 34 c0 45 -26 129 -60 198 -75 148 -229 273
-386 313 -77 19 -167 30 -176 20z M692 1415 c-43 -8 -110 -31 -159 -54 -156
-75 -284 -232 -328 -401 -26 -98 -17 -272 18 -364 71 -182 212 -319 389 -377
62 -21 92 -24 203 -23 123 0 135 2 212 33 226 89 374 287 398 532 12 113 18
109 -158 109 l-152 0 -1 -68 c-1 -92 -31 -158 -100 -221 -70 -64 -131 -85
-228 -79 -204 13 -337 215 -270 411 31 92 129 175 232 197 l52 12 0 154 c0
176 12 161 -108 139z M2366 1410 c-130 -33 -251 -132 -312 -255 -154 -316 94
-685 446 -662 103 6 174 36 248 103 84 75 124 157 130 263 8 146 -25 171 -227
171 -135 0 -171 -7 -208 -42 -35 -33 -32 -101 6 -139 28 -28 33 -29 125 -29
53 0 96 -4 96 -9 0 -4 -10 -23 -23 -42 -57 -84 -190 -110 -293 -57 -162 85
-203 282 -87 417 53 62 123 95 203 95 75 0 112 -16 179 -76 38 -36 47 -40 79
-34 54 8 87 46 86 98 -1 38 -7 48 -57 94 -85 79 -149 106 -260 110 -51 2 -109
-1 -131 -6z M3004 1410 c-54 -21 -54 -22 -54 -458 l0 -404 29 -29 c41 -40 91
-40 132 0 l29 29 0 171 0 171 105 0 c99 0 107 2 130 25 37 36 35 97 -4 136
-29 28 -32 29 -131 29 l-101 0 3 73 3 72 118 3 c133 3 159 13 177 66 13 39 2
74 -31 105 -21 20 -33 21 -203 20 -100 0 -191 -4 -202 -9z M3866 1409 c-68
-16 -159 -72 -217 -130 -181 -183 -180 -469 2 -652 209 -209 552 -174 718 73
52 79 71 147 71 259 0 191 -97 338 -279 424 -55 26 -78 31 -160 33 -53 2 -113
-1 -135 -7z m191 -194 c153 -45 236 -227 169 -370 -43 -93 -151 -165 -246
-165 -94 0 -206 75 -251 167 -18 37 -21 57 -17 124 4 71 8 84 41 132 74 106
185 147 304 112z M4720 1405 c-62 -20 -128 -79 -156 -139 -31 -66 -33 -181 -5
-241 39 -86 100 -123 246 -150 139 -26 145 -29 145 -82 0 -102 -125 -140 -272
-82 -61 24 -85 24 -125 -1 -40 -24 -52 -73 -29 -118 32 -61 173 -108 305 -100
192 11 314 131 314 308 0 111 -47 187 -140 227 -23 9 -218 53 -240 53 -1 0 -9
7 -17 16 -18 17 -21 66 -6 94 24 45 124 49 208 8 56 -26 97 -16 130 32 39 59
13 113 -75 156 -47 24 -72 29 -147 31 -59 2 -107 -2 -136 -12z M5455 1414
c-141 -35 -215 -130 -215 -274 1 -164 74 -233 290 -270 111 -20 120 -26 120
-77 0 -35 -6 -49 -26 -68 -55 -51 -132 -55 -249 -13 -67 23 -103 20 -135 -12
-100 -100 68 -221 287 -207 196 12 316 128 316 307 0 111 -47 187 -140 227
-23 9 -218 53 -240 53 -1 0 -9 7 -17 16 -18 17 -21 66 -6 94 24 45 124 49 208
8 56 -26 97 -16 130 32 39 59 13 113 -74 156 -47 23 -73 28 -143 30 -47 2 -95
1 -106 -2z M2154 386 c-16 -12 -19 -27 -19 -86 0 -63 3 -74 24 -91 29 -24 53
-24 82 0 21 17 24 28 24 91 0 79 -14 100 -65 100 -14 0 -35 -6 -46 -14z m74
-18 c7 -7 12 -39 12 -75 0 -52 -3 -64 -20 -73 -14 -8 -26 -8 -40 0 -17 9 -20
21 -20 73 0 64 11 87 40 87 9 0 21 -5 28 -12z M2300 295 c0 -63 4 -105 10
-105 6 0 10 18 10 40 0 22 3 41 8 41 4 1 20 3 35 5 42 4 57 22 57 65 0 45 -18
59 -79 59 l-41 0 0 -105z m90 71 c6 -8 10 -25 8 -38 -2 -19 -9 -23 -38 -23
-33 0 -35 2 -38 38 -3 35 -2 37 26 37 16 0 35 -7 42 -14z M2452 298 l3 -103
53 -3 c42 -2 52 0 52 12 0 12 -11 16 -41 16 -39 0 -40 1 -37 33 3 28 7 32 36
35 43 4 41 22 -3 22 -33 0 -35 2 -35 35 0 34 1 35 40 35 22 0 40 5 40 10 0 6
-25 10 -55 10 l-56 0 3 -102z M2592 298 c3 -114 21 -141 26 -40 2 34 6 62 10
62 4 0 23 -29 41 -65 19 -36 38 -65 43 -65 4 0 8 47 8 105 0 119 -18 145 -22
33 l-3 -73 -40 72 c-56 102 -66 97 -63 -29z M2810 390 c0 -5 11 -10 25 -10 25
0 25 -1 25 -79 0 -82 6 -111 21 -111 5 0 9 43 9 95 0 95 0 95 25 95 14 0 25 5
25 10 0 6 -28 10 -65 10 -37 0 -65 -4 -65 -10z M2970 295 l0 -105 56 0 c40 0
55 4 52 13 -3 6 -20 13 -39 15 -43 4 -52 13 -43 46 5 22 12 26 40 26 19 0 34
5 34 10 0 6 -16 10 -35 10 -28 0 -36 4 -41 24 -9 36 2 46 47 46 21 0 39 5 39
10 0 6 -25 10 -55 10 l-55 0 0 -105z M3125 380 c-38 -42 -28 -157 17 -181 29
-16 74 -2 87 27 14 32 14 34 -4 34 -8 0 -15 -7 -15 -15 0 -30 -54 -38 -72 -11
-12 18 -9 121 4 134 22 22 57 14 64 -13 3 -14 12 -25 19 -25 14 0 9 36 -8 58
-15 19 -72 15 -92 -8z M3269 345 c-2 -149 -1 -155 10 -155 6 0 11 21 13 48 l3
47 40 0 40 0 3 -47 c6 -91 22 -48 22 57 0 59 -4 105 -9 105 -6 0 -11 -19 -13
-42 -3 -43 -3 -43 -43 -43 -40 0 -40 0 -43 43 -5 61 -22 52 -23 -13z M3440
296 c0 -123 18 -145 22 -28 l3 77 43 -77 c24 -43 48 -78 53 -78 5 0 9 47 9
105 0 63 -4 105 -10 105 -6 0 -10 -29 -10 -66 0 -42 -4 -64 -11 -62 -6 2 -25
30 -42 63 -49 90 -57 85 -57 -39z M3625 376 c-15 -22 -20 -62 -16 -123 3 -55
73 -81 111 -43 28 28 29 149 2 173 -28 26 -78 22 -97 -7z m85 -16 c6 -11 10
-44 8 -72 -2 -39 -8 -54 -25 -65 -19 -13 -24 -12 -42 6 -23 23 -29 97 -11 132
14 25 56 25 70 -1z M3780 295 l0 -105 51 0 c60 0 65 23 6 28 l-37 3 0 90 c0
53 -4 89 -10 89 -6 0 -10 -42 -10 -105z M3915 384 c-17 -12 -20 -27 -20 -85 0
-62 3 -73 24 -90 32 -26 57 -24 88 7 23 23 25 31 21 91 -3 49 -9 69 -23 79
-25 18 -65 17 -90 -2z m74 -18 c7 -9 11 -40 9 -78 l-3 -63 -35 0 -35 0 -3 63
c-3 67 7 92 38 92 10 0 23 -6 29 -14z M4080 380 c-16 -16 -20 -33 -20 -80 0
-51 4 -65 25 -85 26 -27 54 -31 86 -15 14 8 19 21 19 55 0 44 -1 45 -31 45
-20 0 -29 -4 -26 -12 2 -7 10 -13 18 -13 8 0 15 -12 17 -26 2 -20 -2 -28 -18
-32 -45 -12 -70 20 -70 86 0 64 55 101 82 57 15 -23 28 -26 28 -6 0 44 -75 61
-110 26z M4232 298 c4 -133 23 -134 23 -1 0 70 -4 98 -13 101 -10 3 -12 -19
-10 -100z M4300 295 l0 -105 56 0 c67 0 72 23 5 28 -41 3 -42 4 -39 35 3 29 6
32 41 35 50 4 48 22 -3 22 -39 0 -40 1 -40 35 0 35 0 35 45 35 25 0 45 5 45
10 0 6 -25 10 -55 10 l-55 0 0 -105z M4444 375 c-23 -35 -7 -69 40 -86 42 -15
57 -46 32 -65 -22 -16 -54 -7 -61 17 -9 26 -27 24 -23 -3 7 -53 99 -62 118
-12 14 35 -1 59 -51 84 -31 16 -40 26 -37 43 4 31 42 34 62 6 20 -29 33 -17
18 16 -16 36 -75 36 -98 0z M4661 305 c-17 -52 -31 -100 -31 -105 0 -22 19 -8
29 20 8 24 16 30 40 30 24 0 34 -7 48 -32 28 -54 26 -11 -5 86 -15 49 -33 91
-39 93 -7 3 -24 -35 -42 -92z m59 -12 c0 -16 -6 -23 -20 -23 -22 0 -26 20 -9
52 9 17 13 18 20 7 5 -8 9 -24 9 -36z M4800 295 l0 -105 49 0 c50 0 74 13 45
24 -9 3 -29 6 -45 6 l-29 0 0 90 c0 53 -4 90 -10 90 -6 0 -10 -42 -10 -105z
M4930 295 l0 -105 51 0 c60 0 65 23 6 28 l-37 3 0 90 c0 53 -4 89 -10 89 -6 0
-10 -42 -10 -105z M5062 298 c4 -131 23 -131 23 1 -1 66 -5 96 -13 99 -10 3
-12 -20 -10 -100z M5172 383 c-5 -10 -17 -45 -27 -78 -10 -33 -22 -70 -26 -82
-5 -13 -4 -25 2 -28 5 -4 14 7 20 24 9 26 16 31 44 31 28 0 35 -5 44 -30 9
-26 31 -43 31 -23 0 19 -65 203 -72 203 -4 0 -11 -8 -16 -17z m32 -85 c5 -23
3 -28 -12 -28 -28 0 -31 8 -19 46 11 37 19 32 31 -18z M5282 298 c3 -117 20
-136 28 -31 l5 68 40 -69 c22 -38 45 -70 50 -70 6 -1 11 41 13 102 2 81 0 103
-10 100 -8 -3 -15 -30 -18 -74 l-5 -69 -38 73 c-55 104 -68 98 -65 -30z M5475
386 c-14 -10 -20 -29 -22 -72 -4 -69 10 -104 49 -118 33 -11 78 14 78 44 0 25
-17 26 -25 1 -7 -23 -36 -32 -59 -19 -22 12 -23 130 -1 148 20 17 48 9 60 -18
12 -27 25 -29 25 -4 0 43 -65 67 -105 38z M5612 298 l3 -103 53 0 c61 0 71 19
12 23 -40 3 -41 4 -38 35 3 28 7 32 36 35 43 4 41 22 -3 22 -33 0 -35 2 -35
35 0 34 1 35 40 35 22 0 40 5 40 10 0 6 -25 10 -55 10 l-56 0 3 -102z"/>
  </g>
  
  <!-- Subtitle overlay: OPEN TECHNOLOGIES ALLIANCE -->
  <g transform="translate(0.000000,170.000000) scale(0.100000,-0.100000)" fill="#9E4020">
    <path d="M2438 493 c23 -2 59 -2 80 0 20 2 1 4 -43 4 -44 0 -61 -2 -37 -4z
M3028 493 c12 -2 30 -2 40 0 9 3 -1 5 -23 4 -22 0 -30 -2 -17 -4z M3938 493
c23 -2 59 -2 80 0 20 2 1 4 -43 4 -44 0 -61 -2 -37 -4z M4758 493 c23 -2 61
-2 85 0 23 2 4 4 -43 4 -47 0 -66 -2 -42 -4z M5458 493 c23 -2 59 -2 80 0 20
2 1 4 -43 4 -44 0 -61 -2 -37 -4z M2154 386 c-16 -12 -19 -27 -19 -86 0 -63 3
-74 24 -91 29 -24 53 -24 82 0 21 17 24 28 24 91 0 79 -14 100 -65 100 -14 0
-35 -6 -46 -14z m74 -18 c7 -7 12 -39 12 -75 0 -52 -3 -64 -20 -73 -14 -8 -26
-8 -40 0 -17 9 -20 21 -20 73 0 64 11 87 40 87 9 0 21 -5 28 -12z M2300 295
c0 -63 4 -105 10 -105 6 0 10 18 10 40 0 22 3 41 8 41 4 1 20 3 35 5 42 4 57
22 57 65 0 45 -18 59 -79 59 l-41 0 0 -105z m90 71 c6 -8 10 -25 8 -38 -2 -19
-9 -23 -38 -23 -33 0 -35 2 -38 38 -3 35 -2 37 26 37 16 0 35 -7 42 -14z
M2452 298 l3 -103 53 -3 c42 -2 52 0 52 12 0 12 -11 16 -41 16 -39 0 -40 1
-37 33 3 28 7 32 36 35 43 4 41 22 -3 22 -33 0 -35 2 -35 35 0 34 1 35 40 35
22 0 40 5 40 10 0 6 -25 10 -55 10 l-56 0 3 -102z M2592 298 c3 -114 21 -141
26 -40 2 34 6 62 10 62 4 0 21 -25 36 -56 21 -42 31 -53 38 -43 6 10 7 7 3 -8
-4 -14 -2 -23 4 -23 7 0 11 37 11 105 0 119 -18 145 -22 33 l-3 -73 -40 72
c-56 102 -66 97 -63 -29z M2810 390 c0 -5 11 -10 25 -10 25 0 25 -1 25 -79 0
-82 6 -111 21 -111 5 0 9 43 9 95 0 95 0 95 25 95 14 0 25 5 25 10 0 6 -28 10
-65 10 -37 0 -65 -4 -65 -10z M2970 295 l0 -105 56 0 c40 0 55 4 52 13 -3 6
-20 13 -39 15 -43 4 -52 13 -43 46 5 22 12 26 40 26 19 0 34 5 34 10 0 6 -16
10 -35 10 -28 0 -36 4 -41 24 -9 36 2 46 47 46 21 0 39 5 39 10 0 6 -25 10
-55 10 l-55 0 0 -105z M3125 380 c-38 -42 -28 -157 17 -181 29 -16 74 -2 87
27 14 32 14 34 -4 34 -8 0 -15 -7 -15 -15 0 -30 -54 -38 -72 -11 -12 18 -9
121 4 134 22 22 57 14 64 -13 3 -14 12 -25 19 -25 14 0 9 36 -8 58 -15 19 -72
15 -92 -8z M3269 345 c-2 -149 -1 -155 10 -155 6 0 11 21 13 48 l3 47 40 0 40
0 3 -47 c6 -91 22 -48 22 57 0 59 -4 105 -9 105 -6 0 -11 -19 -13 -42 -3 -43
-3 -43 -43 -43 -40 0 -40 0 -43 43 -5 61 -22 52 -23 -13z M3440 296 c0 -123
18 -145 22 -28 l3 77 43 -77 c24 -43 48 -78 53 -78 5 0 9 47 9 105 0 63 -4
105 -10 105 -6 0 -10 -29 -10 -66 0 -42 -4 -64 -11 -62 -6 2 -25 30 -42 63
-49 90 -57 85 -57 -39z M3625 376 c-15 -22 -20 -62 -16 -123 3 -55 73 -81 111
-43 28 28 29 149 2 173 -28 26 -78 22 -97 -7z m85 -16 c6 -11 10 -44 8 -72 -2
-39 -8 -54 -25 -65 -19 -13 -24 -12 -42 6 -23 23 -29 97 -11 132 14 25 56 25
70 -1z M3780 295 l0 -105 51 0 c60 0 65 23 6 28 l-37 3 0 90 c0 53 -4 89 -10
89 -6 0 -10 -42 -10 -105z M3915 384 c-17 -12 -20 -27 -20 -85 0 -62 3 -73 24
-90 32 -26 57 -24 88 7 23 23 25 31 21 91 -3 49 -9 69 -23 79 -25 18 -65 17
-90 -2z m74 -18 c7 -9 11 -40 9 -78 l-3 -63 -35 0 -35 0 -3 63 c-3 67 7 92 38
92 10 0 23 -6 29 -14z M4080 380 c-16 -16 -20 -33 -20 -80 0 -51 4 -65 25 -85
26 -27 54 -31 86 -15 14 8 19 21 19 55 0 44 -1 45 -31 45 -20 0 -29 -4 -26
-12 2 -7 10 -13 18 -13 8 0 15 -12 17 -26 2 -20 -2 -28 -18 -32 -45 -12 -70
20 -70 86 0 64 55 101 82 57 15 -23 28 -26 28 -6 0 44 -75 61 -110 26z M4232
298 c4 -133 23 -134 23 -1 0 70 -4 98 -13 101 -10 3 -12 -19 -10 -100z M4300
295 l0 -105 56 0 c67 0 72 23 5 28 -41 3 -42 4 -39 35 3 29 6 32 41 35 50 4
48 22 -3 22 -39 0 -40 1 -40 35 0 35 0 35 45 35 25 0 45 5 45 10 0 6 -25 10
-55 10 l-55 0 0 -105z M4444 375 c-23 -35 -7 -69 40 -86 42 -15 57 -46 32 -65
-22 -16 -54 -7 -61 17 -9 26 -27 24 -23 -3 7 -53 99 -62 118 -12 14 35 -1 59
-51 84 -31 16 -40 26 -37 43 4 31 42 34 62 6 20 -29 33 -17 18 16 -16 36 -75
36 -98 0z M4661 305 c-17 -52 -31 -100 -31 -105 0 -22 19 -8 29 20 8 24 16 30
40 30 24 0 34 -7 48 -32 28 -54 26 -11 -5 86 -15 49 -33 91 -39 93 -7 3 -24
-35 -42 -92z m59 -12 c0 -16 -6 -23 -20 -23 -22 0 -26 20 -9 52 9 17 13 18 20
7 5 -8 9 -24 9 -36z M4800 295 l0 -105 49 0 c50 0 74 13 45 24 -9 3 -29 6 -45
6 l-29 0 0 90 c0 53 -4 90 -10 90 -6 0 -10 -42 -10 -105z M4930 295 l0 -105
51 0 c60 0 65 23 6 28 l-37 3 0 90 c0 53 -4 89 -10 89 -6 0 -10 -42 -10 -105z
M5062 298 c4 -131 23 -131 23 1 -1 66 -5 96 -13 99 -10 3 -12 -20 -10 -100z
M5172 383 c-5 -10 -17 -45 -27 -78 -10 -33 -22 -70 -26 -82 -5 -13 -4 -25 2
-28 5 -4 14 7 20 24 9 26 16 31 44 31 28 0 35 -5 44 -30 9 -26 31 -43 31 -23
0 19 -65 203 -72 203 -4 0 -11 -8 -16 -17z m32 -85 c5 -23 3 -28 -12 -28 -28
0 -31 8 -19 46 11 37 19 32 31 -18z M5282 298 c3 -117 20 -136 28 -31 l5 68
40 -69 c22 -38 45 -70 50 -70 6 -1 11 41 13 102 2 81 0 103 -10 100 -8 -3 -15
-30 -18 -74 l-5 -69 -38 73 c-55 104 -68 98 -65 -30z M5475 386 c-14 -10 -20
-29 -22 -72 -4 -69 10 -104 49 -118 33 -11 78 14 78 44 0 25 -17 26 -25 1 -7
-23 -36 -32 -59 -19 -22 12 -23 130 -1 148 20 17 48 9 60 -18 12 -27 25 -29
25 -4 0 43 -65 67 -105 38z M5612 298 l3 -103 53 0 c61 0 71 19 12 23 -40 3
-41 4 -38 35 3 28 7 32 36 35 43 4 41 22 -3 22 -33 0 -35 2 -35 35 0 34 1 35
40 35 22 0 40 5 40 10 0 6 -25 10 -55 10 l-56 0 3 -102z"/>
  </g>
</svg>
