<?xml version="1.0" standalone="no"?>
<!DOCTYPE svg PUBLIC "-//W3C//DTD SVG 20010904//EN"
 "http://www.w3.org/TR/2001/REC-SVG-20010904/DTD/svg10.dtd">
<svg version="1.0" xmlns="http://www.w3.org/2000/svg"
 width="800.000000pt" height="799.000000pt" viewBox="0 0 800.000000 799.000000"
 preserveAspectRatio="xMidYMid meet">

<g transform="translate(0.000000,799.000000) scale(0.100000,-0.100000)"
fill="#257DDC" stroke="none">
<path d="M4515 7834 l-120 -134 -120 7 c-155 10 -495 7 -610 -6 l-90 -10 -40
42 c-22 23 -79 84 -127 136 l-87 94 -73 -13 c-164 -29 -462 -110 -624 -171
l-51 -19 -39 -181 -39 -181 -145 -72 c-165 -82 -308 -166 -460 -271 l-105 -72
-177 55 -177 55 -88 -78 c-116 -104 -299 -290 -385 -392 l-69 -82 57 -177 56
-176 -65 -97 c-104 -154 -145 -224 -247 -426 l-97 -190 -179 -40 -179 -41 -42
-125 c-50 -147 -95 -317 -128 -487 -14 -68 -25 -127 -25 -131 0 -4 61 -63 136
-131 l137 -123 -7 -113 c-11 -168 -9 -476 4 -598 l11 -108 -93 -86 c-51 -48
-113 -105 -137 -128 l-44 -41 17 -89 c41 -207 157 -607 188 -645 12 -14 52
-24 314 -79 l52 -11 37 -82 c72 -159 200 -378 317 -543 l57 -81 -54 -178 -55
-178 47 -56 c87 -102 256 -273 380 -381 l123 -108 166 54 c92 30 175 54 184
54 9 0 47 -22 86 -49 123 -87 285 -181 460 -267 l171 -85 38 -170 c21 -94 44
-176 49 -184 27 -33 545 -176 718 -197 23 -2 43 15 149 132 117 128 125 135
159 133 207 -12 547 -14 656 -4 l129 12 35 -38 c19 -21 76 -82 126 -136 l91
-99 134 27 c154 31 322 77 495 137 l121 41 39 181 39 181 60 30 c221 109 404
215 563 328 l82 58 177 -55 177 -55 46 37 c78 64 319 303 413 410 l90 104 -57
179 -58 179 56 79 c87 124 190 301 274 472 l76 156 180 42 c99 23 181 43 182
44 1 1 20 58 43 127 46 142 92 319 126 495 l24 120 -57 55 c-31 31 -94 89
-139 130 l-81 75 8 90 c12 132 12 469 -1 605 l-11 118 78 73 c44 41 105 99
137 129 l58 55 -31 147 c-33 162 -79 326 -135 488 -20 58 -38 106 -39 107 -1
1 -76 18 -167 38 -90 20 -172 38 -182 41 -10 3 -37 48 -65 108 -65 137 -155
292 -268 462 l-94 141 54 177 54 178 -77 87 c-110 122 -281 290 -384 379 l-89
75 -176 -56 -177 -57 -110 74 c-145 97 -321 197 -476 271 l-127 60 -20 90
c-12 49 -31 132 -42 182 l-22 92 -122 40 c-198 65 -561 153 -619 151 -7 -1
-66 -62 -132 -136z m98 -1798 l567 -328 0 -666 -1 -667 -210 -120 c-147 -84
-214 -127 -220 -143 -14 -37 -10 -149 6 -189 9 -20 38 -60 65 -89 45 -48 50
-57 50 -99 0 -40 -5 -52 -34 -81 -28 -28 -42 -34 -76 -34 -75 0 -130 54 -130
127 0 66 -82 147 -175 173 l-45 12 -191 -109 -191 -110 -176 101 c-182 105
-212 131 -212 189 0 37 14 61 68 122 53 59 72 100 72 155 0 111 -80 190 -191
190 -102 0 -158 -50 -199 -177 -20 -64 -31 -82 -59 -100 -57 -39 -81 -32 -276
80 l-180 103 -3 660 c-2 582 -1 663 13 674 40 33 1132 658 1145 656 9 -2 271
-150 583 -330z m-973 -1652 c38 -23 60 -64 60 -114 0 -38 -5 -48 -55 -95 -30
-29 -60 -66 -66 -82 -15 -38 -13 -157 3 -190 9 -18 68 -58 198 -133 l185 -107
3 -204 c2 -190 1 -206 -18 -237 -12 -19 -37 -40 -58 -49 -34 -14 -43 -14 -107
1 -87 20 -116 20 -163 1 -95 -41 -143 -141 -110 -236 35 -105 127 -152 244
-124 113 27 156 18 196 -42 16 -25 18 -51 18 -234 l0 -206 -577 -333 c-437
-252 -580 -330 -592 -323 -9 5 -269 155 -579 333 l-562 325 2 664 3 665 575
332 c316 183 577 331 580 329 3 -1 100 -57 216 -124 l211 -121 42 14 c57 21
129 72 150 108 10 16 21 49 25 74 8 58 20 81 59 104 39 24 80 25 117 4z m2126
-411 l573 -328 -2 -669 -2 -668 -565 -329 c-311 -181 -572 -328 -580 -327 -8
2 -271 149 -582 328 l-568 325 0 249 0 249 -37 35 c-70 66 -158 82 -261 48
-59 -20 -80 -16 -128 26 -30 26 -34 36 -34 78 0 37 6 55 26 79 38 45 82 54
152 30 86 -31 163 -11 247 62 l35 31 0 223 0 223 174 101 c145 85 180 101 216
101 34 0 48 -6 75 -33 20 -20 38 -51 44 -78 27 -110 87 -173 175 -185 142 -20
257 129 201 262 -8 20 -40 63 -70 96 -49 52 -55 64 -55 101 0 70 21 90 205
197 94 54 174 99 179 99 5 1 267 -146 582 -326z"/>
</g>
</svg>
