<svg id="svg" version="1.1" xmlns="http://www.w3.org/2000/svg" xmlns:xlink="http://www.w3.org/1999/xlink" width="400" height="116.7381974248927" viewBox="0, 0, 400,116.7381974248927"><g id="svgg"><path id="path0" d="M47.840 3.605 C 47.861 7.841,48.050 7.508,45.373 7.948 C 45.075 7.997,44.789 8.104,44.739 8.185 C 44.688 8.267,44.463 8.333,44.238 8.333 C 44.013 8.333,43.699 8.399,43.539 8.480 C 43.380 8.560,42.950 8.715,42.583 8.824 C 42.217 8.933,41.767 9.085,41.583 9.163 C 38.162 10.604,38.048 10.614,37.337 9.506 C 37.056 9.068,36.696 8.556,36.538 8.370 C 36.380 8.184,35.729 7.312,35.093 6.432 C 33.736 4.558,33.916 4.602,32.333 5.760 C 31.646 6.263,30.633 6.986,30.083 7.366 C 29.533 7.747,29.046 8.106,29.000 8.165 C 28.954 8.224,28.542 8.525,28.083 8.833 C 27.625 9.142,27.212 9.441,27.167 9.498 C 27.121 9.555,26.596 9.934,26.000 10.342 C 25.404 10.750,24.879 11.128,24.833 11.183 C 24.787 11.238,23.925 11.873,22.917 12.595 C 21.908 13.317,20.938 14.041,20.760 14.204 C 20.583 14.367,20.339 14.500,20.219 14.500 C 20.098 14.500,20.000 14.559,20.000 14.631 C 20.000 14.703,19.794 14.884,19.542 15.033 C 19.290 15.182,18.922 15.442,18.724 15.610 C 18.526 15.779,17.938 16.217,17.416 16.583 C 15.548 17.897,15.614 17.581,16.856 19.270 C 17.454 20.084,18.122 21.012,18.339 21.333 C 18.556 21.654,18.780 21.954,18.836 22.000 C 19.383 22.445,20.007 23.709,19.805 23.962 C 19.576 24.250,18.877 25.072,18.583 25.398 C 18.103 25.932,16.306 28.379,15.755 29.250 C 15.407 29.800,15.076 30.287,15.019 30.333 C 14.963 30.379,14.819 30.604,14.701 30.833 C 14.582 31.063,14.357 31.418,14.201 31.624 L 13.917 31.998 13.000 31.686 C 10.758 30.922,7.143 29.802,7.094 29.857 C 7.065 29.890,6.468 31.679,5.767 33.833 C 5.067 35.987,4.420 37.880,4.330 38.039 C 4.240 38.199,4.167 38.513,4.167 38.738 C 4.167 38.963,4.092 39.193,4.000 39.250 C 3.908 39.307,3.833 39.532,3.833 39.750 C 3.833 39.968,3.758 40.193,3.667 40.250 C 3.575 40.307,3.500 40.500,3.500 40.679 C 3.500 40.858,3.433 41.135,3.351 41.294 C 3.268 41.453,2.892 42.558,2.513 43.750 C 2.135 44.942,1.490 46.946,1.079 48.204 C 0.279 50.658,0.219 50.975,0.542 51.074 C 1.843 51.474,6.185 52.885,6.516 53.015 L 6.949 53.186 6.933 58.375 L 6.917 63.563 3.625 64.647 C 1.218 65.439,0.333 65.800,0.334 65.990 C 0.334 66.133,0.658 67.225,1.054 68.417 C 1.451 69.608,2.096 71.596,2.488 72.833 C 2.880 74.071,3.268 75.214,3.351 75.373 C 3.433 75.532,3.500 75.777,3.500 75.917 C 3.500 76.057,3.568 76.301,3.650 76.461 C 3.733 76.620,3.892 77.087,4.003 77.500 C 4.114 77.912,4.266 78.400,4.341 78.583 C 4.416 78.767,4.568 79.217,4.679 79.583 C 4.789 79.950,4.938 80.400,5.010 80.583 C 5.082 80.767,5.571 82.248,6.098 83.875 C 6.624 85.502,7.101 86.833,7.157 86.833 C 7.261 86.833,10.379 85.861,12.667 85.115 L 13.917 84.708 14.201 85.062 C 14.357 85.257,14.582 85.603,14.701 85.832 C 15.312 87.008,17.265 89.695,19.405 92.306 L 19.997 93.028 19.467 93.806 C 19.176 94.233,18.739 94.846,18.496 95.167 C 15.717 98.840,15.430 99.500,16.609 99.500 C 16.732 99.500,16.833 99.557,16.833 99.627 C 16.833 99.697,17.133 99.940,17.500 100.167 C 17.867 100.393,18.167 100.636,18.167 100.706 C 18.167 100.776,18.279 100.833,18.417 100.833 C 18.554 100.833,18.667 100.892,18.667 100.964 C 18.667 101.036,18.889 101.226,19.161 101.387 C 19.432 101.547,19.751 101.773,19.869 101.889 C 19.987 102.004,20.458 102.355,20.917 102.667 C 21.793 103.264,24.229 105.034,24.682 105.403 C 24.829 105.522,25.391 105.929,25.932 106.309 C 26.474 106.688,27.302 107.280,27.772 107.624 C 28.243 107.968,28.993 108.508,29.439 108.824 C 29.885 109.139,30.984 109.946,31.881 110.616 C 33.901 112.125,33.708 112.147,35.093 110.234 C 35.729 109.355,36.380 108.483,36.538 108.297 C 36.696 108.110,37.060 107.592,37.347 107.146 C 37.882 106.311,38.294 106.141,38.961 106.481 C 39.120 106.562,39.438 106.701,39.667 106.792 C 39.896 106.882,40.271 107.036,40.500 107.135 C 40.871 107.296,43.239 108.081,44.583 108.489 C 44.858 108.572,45.616 108.766,46.267 108.920 C 47.994 109.328,47.860 108.975,47.840 113.059 L 47.822 116.667 58.995 116.667 L 70.167 116.667 70.167 113.093 C 70.167 110.417,70.219 109.486,70.375 109.385 C 70.621 109.226,73.178 108.513,73.960 108.385 C 74.259 108.336,74.544 108.230,74.595 108.148 C 74.645 108.067,74.865 108.000,75.083 108.000 C 75.302 108.000,75.527 107.925,75.583 107.833 C 75.640 107.742,75.833 107.667,76.012 107.667 C 76.191 107.667,76.487 107.592,76.669 107.500 C 76.851 107.408,77.149 107.258,77.331 107.167 C 77.513 107.075,77.762 107.000,77.883 107.000 C 78.005 107.000,78.415 106.850,78.794 106.667 C 79.878 106.143,80.044 106.208,81.015 107.542 C 84.521 112.357,84.198 112.085,85.384 111.208 C 85.849 110.865,86.397 110.471,86.601 110.333 C 87.153 109.962,90.544 107.517,90.833 107.282 C 90.971 107.170,91.346 106.894,91.667 106.669 C 91.987 106.443,92.325 106.196,92.417 106.119 C 92.741 105.846,96.931 102.806,97.917 102.128 C 98.467 101.749,98.942 101.378,98.972 101.303 C 99.003 101.228,99.102 101.167,99.192 101.167 C 99.283 101.167,99.455 101.073,99.574 100.958 C 99.694 100.844,100.323 100.375,100.973 99.917 C 101.622 99.458,102.157 98.991,102.160 98.879 C 102.166 98.707,100.621 96.426,100.324 96.167 C 100.271 96.121,99.975 95.708,99.667 95.250 C 99.358 94.792,99.059 94.379,99.003 94.333 C 98.071 93.574,98.035 92.902,98.880 91.987 C 99.267 91.568,99.771 90.975,100.000 90.669 C 100.229 90.364,100.492 90.032,100.585 89.932 C 100.823 89.674,101.155 89.197,102.760 86.808 C 104.139 84.755,104.188 84.703,104.630 84.857 C 106.184 85.398,110.734 86.833,110.893 86.832 C 110.997 86.832,111.265 86.251,111.487 85.541 C 111.709 84.831,112.664 81.887,113.609 79.000 C 114.554 76.112,115.561 73.000,115.847 72.083 C 116.134 71.167,116.435 70.286,116.517 70.127 C 116.599 69.968,116.667 69.691,116.667 69.512 C 116.667 69.333,116.742 69.140,116.833 69.083 C 116.925 69.027,117.000 68.834,117.000 68.655 C 117.000 68.475,117.068 68.199,117.150 68.039 C 117.283 67.784,117.384 67.451,117.743 66.080 C 117.823 65.774,117.525 65.641,114.541 64.655 L 111.250 63.568 111.206 58.420 C 111.172 54.413,111.208 53.243,111.373 53.140 C 111.488 53.066,112.992 52.546,114.713 51.983 C 117.614 51.034,117.836 50.933,117.749 50.605 C 117.697 50.410,117.575 49.950,117.478 49.583 C 117.381 49.217,117.233 48.786,117.150 48.627 C 117.068 48.468,117.000 48.191,117.000 48.012 C 117.000 47.833,116.925 47.640,116.833 47.583 C 116.742 47.527,116.667 47.334,116.667 47.155 C 116.667 46.975,116.599 46.699,116.517 46.539 C 116.435 46.380,116.126 45.462,115.831 44.500 C 115.535 43.538,115.232 42.600,115.158 42.417 C 115.083 42.233,114.932 41.783,114.821 41.417 C 114.711 41.050,114.563 40.600,114.493 40.417 C 114.423 40.233,113.787 38.283,113.079 36.083 C 111.340 30.679,111.146 30.104,111.012 29.957 C 110.912 29.846,108.691 30.437,107.750 30.825 C 107.567 30.901,106.817 31.152,106.083 31.384 C 105.350 31.615,104.631 31.852,104.485 31.910 C 104.284 31.990,103.929 31.573,103.039 30.216 C 101.858 28.414,100.076 25.949,99.389 25.167 C 97.986 23.568,97.980 23.554,98.500 23.083 C 98.683 22.917,98.833 22.719,98.833 22.643 C 98.833 22.566,98.943 22.372,99.077 22.210 C 99.210 22.049,99.701 21.392,100.167 20.750 C 100.632 20.108,101.104 19.466,101.215 19.323 C 102.344 17.869,102.351 17.821,101.542 17.217 C 101.198 16.960,100.842 16.692,100.750 16.622 C 100.658 16.552,99.946 16.033,99.167 15.470 C 98.388 14.906,97.375 14.171,96.917 13.836 C 96.458 13.501,95.371 12.713,94.500 12.086 C 93.629 11.459,92.654 10.747,92.333 10.504 C 92.013 10.261,91.377 9.808,90.920 9.497 C 90.464 9.186,89.977 8.837,89.837 8.722 C 89.698 8.606,89.246 8.268,88.833 7.970 C 83.679 4.246,84.418 4.532,83.422 5.875 C 82.996 6.448,82.555 7.031,82.441 7.170 C 82.328 7.310,81.980 7.798,81.669 8.254 C 80.287 10.282,79.936 10.557,79.206 10.186 C 79.047 10.105,78.710 9.955,78.458 9.853 C 78.206 9.750,77.831 9.597,77.625 9.511 C 77.419 9.425,76.950 9.266,76.583 9.157 C 76.217 9.048,75.786 8.893,75.627 8.813 C 75.468 8.732,75.223 8.667,75.083 8.667 C 74.943 8.667,74.699 8.599,74.539 8.516 C 74.380 8.434,73.912 8.278,73.500 8.172 C 73.087 8.065,72.520 7.907,72.238 7.822 C 71.957 7.737,71.597 7.667,71.438 7.667 C 71.280 7.667,70.929 7.552,70.658 7.412 L 70.167 7.158 70.167 3.579 L 70.167 0.000 58.995 0.000 L 47.822 0.000 47.840 3.605 M154.000 4.696 C 147.196 5.824,143.233 8.308,140.884 12.917 C 140.139 14.377,139.500 16.157,139.500 16.770 C 139.500 16.952,139.433 17.171,139.350 17.258 C 138.603 18.049,138.507 22.685,138.509 57.917 C 138.510 93.161,138.609 97.957,139.350 98.742 C 139.433 98.829,139.500 99.048,139.500 99.230 C 139.500 100.792,141.752 104.958,143.539 106.704 C 145.898 109.007,149.585 110.633,153.750 111.208 C 155.594 111.462,172.397 111.566,174.667 111.337 C 177.385 111.063,178.908 110.721,181.129 109.886 C 185.018 108.423,188.488 104.971,189.639 101.417 C 189.758 101.050,189.915 100.600,189.988 100.417 C 190.301 99.631,190.500 98.862,190.500 98.444 C 190.500 98.197,190.569 97.865,190.654 97.706 C 191.150 96.775,191.190 93.268,191.118 57.000 C 191.068 32.144,190.988 20.069,190.867 19.333 C 190.769 18.737,190.605 17.875,190.503 17.417 C 190.402 16.958,190.276 16.376,190.223 16.123 C 190.171 15.870,190.062 15.622,189.981 15.571 C 189.900 15.521,189.833 15.334,189.833 15.155 C 189.833 14.975,189.767 14.699,189.685 14.539 C 189.603 14.380,189.361 13.875,189.145 13.417 C 186.803 8.424,182.598 5.724,175.539 4.679 C 174.051 4.459,155.341 4.473,154.000 4.696 M215.167 4.696 C 207.037 6.044,202.914 9.214,200.867 15.692 C 199.760 19.198,199.750 19.341,199.750 32.417 C 199.750 44.943,199.738 44.708,200.525 47.500 C 200.842 48.623,202.184 51.436,202.651 51.955 C 202.797 52.117,203.141 52.550,203.415 52.917 C 204.291 54.088,205.676 55.312,208.667 57.559 C 210.271 58.764,211.696 59.843,211.833 59.958 C 211.971 60.072,212.433 60.410,212.860 60.708 C 213.871 61.413,218.570 64.889,219.235 65.424 C 219.518 65.651,220.387 66.301,221.167 66.867 C 230.426 73.595,229.878 72.512,229.801 83.917 C 229.743 92.429,229.772 92.242,228.346 93.250 L 227.638 93.750 225.111 93.750 C 222.137 93.750,221.579 93.568,220.752 92.333 L 220.250 91.583 220.197 82.375 L 220.144 73.167 209.890 73.167 L 199.637 73.167 199.719 84.375 C 199.764 90.540,199.840 95.771,199.888 96.000 C 199.937 96.229,200.100 97.052,200.251 97.828 C 200.681 100.029,202.074 103.781,202.533 103.972 C 202.607 104.003,202.667 104.096,202.667 104.179 C 202.667 104.456,204.165 106.303,204.962 107.008 C 207.705 109.434,210.906 110.703,215.842 111.321 C 217.726 111.558,232.440 111.558,234.325 111.321 C 240.834 110.506,245.403 108.015,247.602 104.083 C 250.320 99.225,250.555 97.302,250.453 80.729 C 250.376 68.016,250.353 67.673,249.412 64.917 C 248.465 62.145,246.384 59.368,243.750 57.361 C 243.200 56.942,242.713 56.554,242.667 56.500 C 242.621 56.445,242.321 56.220,242.000 56.000 C 241.679 55.780,241.379 55.555,241.333 55.500 C 241.287 55.445,240.987 55.223,240.667 55.006 C 240.179 54.675,236.624 52.051,236.083 51.623 C 235.992 51.550,235.386 51.099,234.738 50.620 C 229.225 46.549,226.748 44.704,226.443 44.444 C 226.245 44.275,225.877 44.015,225.625 43.866 C 225.373 43.717,225.167 43.536,225.167 43.464 C 225.167 43.392,225.087 43.333,224.990 43.333 C 224.541 43.333,222.013 41.082,221.410 40.145 C 220.400 38.575,220.333 38.017,220.333 31.159 C 220.333 22.455,220.483 22.167,225.000 22.167 C 227.343 22.167,227.957 22.324,228.688 23.111 C 229.600 24.094,229.580 23.924,229.634 31.208 L 229.684 38.000 239.925 38.000 L 250.167 38.000 250.163 30.125 C 250.160 22.405,250.026 19.834,249.509 17.583 C 247.713 9.768,243.294 5.959,234.539 4.677 C 233.053 4.460,216.495 4.476,215.167 4.696 M348.244 5.374 C 348.200 5.489,348.184 29.171,348.207 58.000 L 348.250 110.417 358.667 110.417 L 369.083 110.417 369.126 88.183 C 369.156 72.088,369.219 65.887,369.354 65.725 C 369.656 65.361,378.592 65.398,378.732 65.764 C 378.788 65.909,378.833 76.034,378.833 88.264 L 378.833 110.500 389.153 110.500 C 394.829 110.500,399.591 110.455,399.735 110.399 C 400.139 110.244,400.141 5.423,399.737 5.268 C 399.592 5.212,394.829 5.167,389.154 5.167 L 378.835 5.167 378.792 25.458 L 378.750 45.750 374.000 45.750 L 369.250 45.750 369.167 25.500 L 369.083 5.250 358.704 5.207 C 350.488 5.173,348.307 5.208,348.244 5.374 M258.916 5.707 C 258.866 5.914,258.846 29.558,258.871 58.250 L 258.917 110.417 267.292 110.460 L 275.667 110.503 275.669 76.543 C 275.671 56.559,275.734 42.485,275.823 42.345 C 275.977 42.101,275.977 42.102,276.248 43.917 C 276.303 44.283,276.423 45.033,276.515 45.583 C 276.606 46.133,276.759 47.071,276.854 47.667 C 276.949 48.262,277.095 49.163,277.178 49.667 C 277.261 50.171,277.406 51.071,277.500 51.667 C 277.594 52.262,277.739 53.163,277.822 53.667 C 277.905 54.171,278.019 54.921,278.076 55.333 C 278.132 55.746,278.247 56.458,278.332 56.917 C 278.532 58.006,278.768 59.450,278.999 61.000 C 279.101 61.688,279.253 62.625,279.335 63.083 C 279.712 65.181,280.353 69.052,281.020 73.250 C 281.107 73.800,281.254 74.700,281.347 75.250 C 281.439 75.800,281.592 76.737,281.687 77.333 C 281.782 77.929,281.928 78.829,282.011 79.333 C 282.094 79.837,282.244 80.775,282.344 81.417 C 282.575 82.907,282.778 84.157,282.992 85.417 C 283.086 85.967,283.239 86.904,283.332 87.500 C 283.425 88.096,283.574 89.033,283.661 89.583 C 283.749 90.133,283.905 91.108,284.007 91.750 C 284.110 92.392,284.256 93.292,284.333 93.750 C 284.410 94.208,284.551 95.071,284.646 95.667 C 284.741 96.263,284.894 97.200,284.985 97.750 C 285.077 98.300,285.199 99.050,285.256 99.417 C 285.313 99.783,285.461 100.646,285.586 101.333 C 285.710 102.021,286.046 104.083,286.331 105.917 C 286.617 107.750,286.906 109.513,286.973 109.833 L 287.096 110.417 298.673 110.417 L 310.250 110.417 310.363 109.417 C 310.426 108.867,310.560 107.854,310.662 107.167 C 310.763 106.479,310.916 105.392,311.000 104.750 C 311.160 103.540,311.391 101.865,311.657 100.000 C 311.741 99.404,311.893 98.317,311.994 97.583 C 312.094 96.850,312.250 95.744,312.338 95.125 C 312.427 94.506,312.570 93.494,312.655 92.875 C 312.740 92.256,313.008 90.400,313.250 88.750 C 313.492 87.100,313.762 85.225,313.852 84.583 C 314.143 82.484,314.356 80.935,314.506 79.833 C 314.587 79.237,314.734 78.188,314.832 77.500 C 314.931 76.813,315.082 75.725,315.168 75.083 C 315.254 74.442,315.401 73.392,315.494 72.750 C 315.705 71.306,315.950 69.543,316.161 67.958 C 316.249 67.294,316.397 66.225,316.489 65.583 C 316.581 64.942,316.733 63.854,316.827 63.167 C 316.921 62.479,317.068 61.429,317.154 60.833 C 317.239 60.237,317.356 59.375,317.412 58.917 C 317.469 58.458,317.584 57.671,317.667 57.167 C 317.751 56.663,317.900 55.650,317.998 54.917 C 318.097 54.183,318.485 51.446,318.861 48.833 C 319.237 46.221,319.580 43.802,319.623 43.458 C 319.937 40.956,320.003 46.239,320.041 76.625 L 320.083 110.417 329.458 110.460 L 338.833 110.503 338.833 57.918 L 338.833 5.333 322.937 5.333 C 310.421 5.333,307.005 5.378,306.872 5.542 C 306.780 5.656,306.658 6.275,306.602 6.917 C 306.545 7.558,306.429 8.646,306.344 9.333 C 306.132 11.029,305.863 13.158,305.670 14.667 C 305.582 15.354,305.438 16.517,305.351 17.250 C 305.263 17.983,305.152 18.846,305.103 19.167 C 305.055 19.487,304.934 20.462,304.834 21.333 C 304.734 22.204,304.583 23.442,304.498 24.083 C 304.284 25.702,304.048 27.555,303.745 30.000 C 303.602 31.146,303.299 33.546,303.069 35.333 C 302.840 37.121,302.578 39.183,302.488 39.917 C 302.397 40.650,302.247 41.813,302.154 42.500 C 302.061 43.188,301.914 44.331,301.826 45.042 C 301.738 45.752,301.590 46.952,301.495 47.708 C 301.401 48.465,301.253 49.683,301.167 50.417 C 300.956 52.206,300.715 54.133,300.500 55.750 C 300.403 56.483,300.250 57.665,300.161 58.375 C 300.073 59.085,299.925 60.267,299.833 61.000 C 299.742 61.733,299.592 62.933,299.500 63.667 C 299.355 64.829,299.041 67.527,299.010 67.870 C 298.994 68.064,298.558 67.838,298.525 67.618 C 298.477 67.304,298.177 64.891,298.002 63.417 C 297.632 60.294,297.228 56.982,297.006 55.250 C 296.912 54.517,296.762 53.279,296.672 52.500 C 296.583 51.721,296.437 50.596,296.348 50.000 C 296.258 49.404,296.063 47.904,295.914 46.667 C 295.602 44.085,295.381 42.283,295.158 40.500 C 295.072 39.813,294.926 38.612,294.833 37.833 C 294.741 37.054,294.589 35.817,294.495 35.083 C 294.401 34.350,294.247 33.112,294.153 32.333 C 293.896 30.206,293.686 28.488,293.495 26.958 C 293.401 26.202,293.253 24.983,293.165 24.250 C 293.078 23.517,292.931 22.317,292.838 21.583 C 292.746 20.850,292.596 19.650,292.506 18.917 C 292.416 18.183,292.268 16.983,292.176 16.250 C 292.084 15.517,291.932 14.279,291.838 13.500 C 291.744 12.721,291.596 11.521,291.510 10.833 C 291.424 10.146,291.273 8.871,291.174 8.000 C 291.076 7.129,290.935 6.192,290.861 5.917 L 290.726 5.417 274.866 5.374 L 259.007 5.332 258.916 5.707 M63.250 12.013 C 65.051 12.170,66.093 12.312,68.083 12.668 C 68.633 12.766,69.365 12.889,69.709 12.941 C 70.054 12.993,70.377 13.102,70.428 13.184 C 70.478 13.266,70.679 13.333,70.873 13.333 C 71.198 13.333,71.920 13.527,72.750 13.837 C 72.933 13.906,73.421 14.059,73.833 14.178 C 74.246 14.296,74.658 14.439,74.750 14.495 C 74.842 14.551,75.217 14.695,75.583 14.815 C 77.202 15.344,82.833 18.096,82.833 18.359 C 82.833 18.436,82.911 18.500,83.006 18.500 C 84.115 18.500,91.714 24.822,94.382 27.965 C 100.173 34.785,104.292 43.891,105.146 51.759 C 105.216 52.406,105.330 53.026,105.399 53.138 C 105.582 53.435,105.527 62.968,105.337 63.750 C 105.248 64.117,105.173 64.708,105.171 65.064 C 105.168 65.420,105.097 65.983,105.012 66.314 C 104.927 66.645,104.765 67.367,104.654 67.917 C 104.473 68.804,104.327 69.403,103.839 71.250 C 103.108 74.018,101.247 78.366,99.380 81.667 C 96.836 86.165,92.158 91.587,88.167 94.663 C 87.754 94.981,87.379 95.286,87.333 95.342 C 87.249 95.443,85.347 96.779,84.854 97.083 C 84.705 97.175,84.546 97.287,84.500 97.333 C 84.454 97.379,84.229 97.525,84.000 97.657 C 83.771 97.789,83.105 98.189,82.520 98.547 C 80.686 99.668,77.441 101.224,75.667 101.833 C 75.111 102.024,74.810 102.139,73.958 102.486 C 73.752 102.570,73.396 102.688,73.167 102.747 C 72.704 102.868,71.886 103.097,71.000 103.355 C 70.373 103.538,69.368 103.763,68.167 103.991 C 64.223 104.737,64.346 104.727,59.167 104.730 C 54.084 104.733,53.347 104.675,49.917 103.999 C 47.969 103.616,45.674 103.033,45.294 102.825 C 45.135 102.738,44.858 102.667,44.679 102.667 C 44.500 102.667,44.307 102.592,44.250 102.500 C 44.193 102.408,44.000 102.333,43.821 102.333 C 43.642 102.333,43.365 102.267,43.206 102.186 C 42.878 102.019,42.081 101.682,41.583 101.500 C 40.308 101.033,37.278 99.573,36.108 98.861 C 35.480 98.479,34.933 98.167,34.892 98.167 C 34.750 98.167,32.249 96.441,32.194 96.304 C 32.164 96.229,32.033 96.167,31.903 96.167 C 31.773 96.167,31.667 96.108,31.667 96.036 C 31.667 95.964,31.456 95.781,31.198 95.628 C 29.915 94.870,26.280 91.528,24.172 89.167 C 22.210 86.970,19.500 83.300,19.500 82.841 C 19.500 82.745,19.425 82.667,19.333 82.667 C 19.242 82.667,19.167 82.584,19.167 82.484 C 19.167 82.384,19.026 82.102,18.853 81.859 C 17.263 79.615,14.921 73.850,13.833 69.500 C 13.742 69.133,13.596 68.552,13.509 68.208 C 12.952 66.006,12.469 61.418,12.469 58.333 C 12.469 55.249,12.952 50.660,13.509 48.458 C 13.596 48.115,13.742 47.533,13.833 47.167 C 14.283 45.366,15.172 42.481,15.501 41.750 C 15.584 41.567,15.845 40.943,16.082 40.365 C 16.583 39.143,17.854 36.455,17.990 36.333 C 18.080 36.253,18.688 35.147,19.067 34.376 C 19.167 34.171,19.306 34.002,19.375 34.001 C 19.444 34.001,19.500 33.887,19.500 33.750 C 19.500 33.612,19.575 33.500,19.667 33.500 C 19.758 33.500,19.833 33.420,19.833 33.322 C 19.833 33.224,20.077 32.800,20.375 32.381 C 20.673 31.962,21.142 31.297,21.417 30.905 C 23.083 28.526,26.893 24.488,29.333 22.516 C 30.819 21.315,30.841 21.298,31.500 20.839 C 31.821 20.616,32.121 20.386,32.167 20.328 C 32.273 20.194,34.795 18.500,34.888 18.500 C 34.926 18.500,35.698 18.079,36.604 17.565 C 37.509 17.050,38.925 16.335,39.750 15.976 C 43.079 14.527,43.230 14.468,44.333 14.167 C 44.746 14.054,45.233 13.902,45.417 13.828 C 45.600 13.755,45.938 13.646,46.167 13.586 C 46.396 13.526,46.846 13.402,47.167 13.310 C 48.982 12.787,52.479 12.181,54.667 12.011 C 57.006 11.829,61.161 11.830,63.250 12.013 M55.500 20.882 C 55.271 20.988,55.046 21.114,55.000 21.162 C 54.954 21.210,54.579 21.426,54.167 21.641 C 53.425 22.027,51.851 22.866,49.583 24.083 C 48.942 24.427,48.342 24.764,48.250 24.833 C 48.158 24.901,47.408 25.309,46.583 25.741 C 43.365 27.424,43.272 27.853,45.606 30.202 C 48.342 32.955,52.466 32.263,54.066 28.782 C 54.535 27.763,54.739 28.088,54.850 30.031 C 54.982 32.331,55.100 32.517,55.960 31.769 C 56.540 31.265,61.410 27.088,62.223 26.398 C 62.993 25.744,62.988 25.674,62.097 24.438 C 59.870 21.347,57.389 20.009,55.500 20.882 M168.333 22.740 C 169.411 23.295,169.768 23.786,170.155 25.250 C 170.449 26.361,170.394 89.637,170.098 90.896 C 169.588 93.063,168.929 93.398,165.033 93.469 C 161.600 93.532,160.987 93.351,160.148 92.027 L 159.667 91.268 159.667 57.948 C 159.667 20.312,159.534 23.950,160.939 23.030 C 162.101 22.271,167.045 22.076,168.333 22.740 M67.752 25.718 C 67.570 25.827,66.933 26.375,66.336 26.935 C 65.739 27.494,64.837 28.322,64.333 28.773 C 63.829 29.224,63.225 29.778,62.991 30.005 C 62.757 30.231,62.072 30.867,61.471 31.417 C 59.066 33.614,58.485 34.148,56.751 35.750 C 54.370 37.951,51.720 40.452,51.060 41.121 L 50.529 41.660 50.972 42.538 C 51.501 43.587,51.674 45.850,51.324 47.141 C 51.042 48.180,50.158 50.167,49.978 50.167 C 49.898 50.167,49.833 50.268,49.833 50.391 C 49.833 50.514,49.458 50.983,49.000 51.432 C 48.188 52.230,48.167 52.274,48.167 53.231 C 48.166 55.980,46.147 59.615,44.075 60.599 C 43.627 60.811,43.487 60.995,43.405 61.475 C 43.275 62.237,42.974 63.200,42.799 63.408 C 42.726 63.495,42.667 63.668,42.667 63.792 C 42.667 64.116,41.483 65.806,40.738 66.544 C 39.525 67.749,37.405 68.483,36.008 68.184 C 34.534 67.868,34.707 67.762,31.163 71.167 C 30.502 71.802,26.071 76.022,24.214 77.786 L 23.650 78.322 24.080 79.093 C 26.653 83.701,31.260 88.589,36.294 92.053 C 37.888 93.149,37.741 93.106,38.230 92.625 C 38.441 92.419,39.954 90.975,41.594 89.417 C 43.235 87.858,45.403 85.791,46.413 84.822 C 47.423 83.853,48.998 82.353,49.912 81.488 C 50.827 80.624,52.364 79.163,53.329 78.242 C 55.807 75.876,57.578 74.192,58.833 73.006 L 59.917 71.983 61.333 72.063 C 66.739 72.370,66.264 72.395,67.796 71.721 C 68.096 71.588,68.589 71.241,68.890 70.948 C 69.192 70.656,69.998 69.892,70.682 69.250 C 71.366 68.608,73.386 66.693,75.171 64.993 C 76.956 63.294,78.972 61.381,79.651 60.743 C 85.982 54.793,86.472 54.169,85.969 52.690 C 85.677 51.833,84.742 50.431,84.096 49.882 C 82.829 48.806,82.273 48.500,81.585 48.500 C 80.868 48.500,80.958 48.171,81.970 47.089 C 83.801 45.132,83.602 43.609,81.202 41.220 C 80.156 40.179,79.465 39.819,78.431 39.779 C 77.629 39.749,77.467 39.538,77.945 39.145 C 80.656 36.918,77.933 31.667,74.067 31.667 C 73.241 31.667,73.145 31.633,73.252 31.375 C 73.934 29.732,73.578 28.351,72.053 26.722 C 70.994 25.591,68.813 25.082,67.752 25.718 M39.881 29.892 C 38.442 30.285,37.182 32.084,36.690 34.448 C 36.504 35.347,36.605 35.949,37.096 36.861 C 37.400 37.424,37.141 37.547,36.424 37.181 C 35.028 36.469,34.221 36.355,33.298 36.741 C 32.733 36.977,31.667 37.854,31.667 38.083 C 31.667 38.146,31.524 38.398,31.350 38.643 C 29.795 40.827,30.094 43.703,31.970 44.613 C 33.520 45.365,33.578 45.495,32.471 45.736 C 30.489 46.168,28.588 50.575,29.566 52.467 C 29.887 53.088,30.687 53.712,31.552 54.017 C 32.487 54.347,32.678 54.648,32.164 54.981 C 31.239 55.581,30.639 56.465,29.857 58.383 C 29.037 60.392,29.895 62.222,32.088 63.143 C 32.727 63.411,33.683 63.826,34.213 64.065 C 37.130 65.382,39.898 62.934,39.867 59.064 L 39.856 57.711 40.779 57.616 C 43.561 57.329,45.556 53.118,44.055 50.703 C 43.469 49.762,43.488 49.667,44.262 49.667 C 44.998 49.667,46.120 49.039,46.647 48.333 C 46.886 48.012,47.119 47.712,47.166 47.667 C 47.212 47.621,47.344 47.377,47.459 47.125 C 47.573 46.873,47.752 46.484,47.855 46.262 C 48.636 44.585,47.884 42.325,46.293 41.564 C 45.130 41.008,45.116 40.932,46.125 40.643 C 47.709 40.190,49.042 38.355,49.413 36.118 C 49.596 35.015,49.492 34.917,48.127 34.913 C 45.981 34.906,44.087 33.996,43.034 32.466 C 42.337 31.453,41.833 30.529,41.833 30.263 C 41.833 30.138,41.653 29.991,41.432 29.935 C 41.211 29.880,40.930 29.804,40.807 29.767 C 40.684 29.730,40.267 29.786,39.881 29.892 M82.810 64.713 C 82.110 65.375,80.985 66.436,80.310 67.071 C 79.635 67.706,77.658 69.590,75.917 71.258 C 72.095 74.919,72.009 74.992,70.750 75.642 C 69.695 76.187,67.796 76.581,67.083 76.402 C 66.377 76.225,66.590 76.701,67.615 77.592 C 68.672 78.511,71.549 81.072,73.583 82.905 C 74.317 83.566,75.592 84.700,76.417 85.427 C 77.242 86.153,78.000 86.823,78.103 86.915 C 78.205 87.008,78.797 87.533,79.418 88.083 C 80.040 88.633,80.781 89.300,81.066 89.564 C 81.350 89.829,81.902 90.307,82.292 90.626 L 83.000 91.207 83.955 90.479 C 84.480 90.078,85.054 89.638,85.232 89.500 C 86.101 88.826,89.728 85.085,90.724 83.833 C 91.345 83.054,91.965 82.280,92.102 82.112 C 92.240 81.944,92.435 81.626,92.536 81.404 C 92.637 81.182,92.783 81.000,92.860 81.000 C 92.937 81.000,93.000 80.887,93.000 80.750 C 93.000 80.612,93.075 80.500,93.167 80.500 C 93.258 80.500,93.333 80.387,93.333 80.250 C 93.333 80.112,93.408 80.000,93.500 80.000 C 93.592 80.000,93.667 79.918,93.667 79.817 C 93.667 79.717,93.809 79.434,93.984 79.190 C 94.469 78.508,96.330 74.784,96.332 74.491 C 96.333 74.349,95.905 73.861,95.381 73.408 C 94.176 72.365,92.826 71.158,92.501 70.833 C 92.363 70.696,91.763 70.161,91.167 69.644 C 90.571 69.128,89.854 68.491,89.574 68.228 C 89.295 67.965,88.582 67.339,87.991 66.836 C 87.400 66.333,86.842 65.840,86.750 65.740 C 86.458 65.423,84.224 63.500,84.152 63.505 C 84.114 63.507,83.510 64.051,82.810 64.713 " stroke="none" fill="#040404" fill-rule="evenodd"></path></g></svg>