<?xml version="1.0" standalone="no"?>
<!DOCTYPE svg PUBLIC "-//W3C//DTD SVG 20010904//EN"
 "http://www.w3.org/TR/2001/REC-SVG-20010904/DTD/svg10.dtd">
<svg version="1.0" xmlns="http://www.w3.org/2000/svg"
 width="896.000000pt" height="896.000000pt" viewBox="0 0 896.000000 896.000000"
 preserveAspectRatio="xMidYMid meet">
<rect x="0" y="0" width="896" height="896" fill="#E3E4DF"/>
<metadata>
Created by potrace 1.16, written by Peter Selinger 2001-2019
</metadata>
<g transform="translate(0.000000,896.000000) scale(0.100000,-0.100000)"
fill="#000000" stroke="none">
<path d="M4480 5916 l0 -1436 -1440 0 -1440 0 0 -72 c0 -88 23 -309 45 -433
175 -996 884 -1842 1840 -2196 269 -100 692 -179 956 -179 l39 0 0 1440 0
1440 1442 0 1441 0 -6 148 c-34 777 -418 1545 -1027 2051 -286 238 -600 415
-935 527 -241 80 -521 132 -757 141 l-158 6 0 -1437z"/>
</g>
</svg>
