<svg xmlns="http://www.w3.org/2000/svg" role="img" viewBox="-24.00 -24.00 1248.00 495.00"><title>Parler Cloud Technologies</title><g clip-path="url(#clip0_2021_453)"><path fill="#171717" d="M621.328 219.271c.614-.341 1.161-.819 1.571-1.503.41-.614.614-1.434.614-2.254 0-.819-.204-1.639-.614-2.254-.41-.614-.888-1.093-1.503-1.366-.615-.341-1.229-.478-1.913-.478h-6.215v13.046h2.254v-4.644h3.552l2.459 4.644h2.527l-2.801-5.191h.069zm-5.806-6.079h3.278c.547 0 1.093.205 1.571.546.479.342.683.957.683 1.776 0 .82-.204 1.435-.683 1.845-.478.409-1.024.614-1.639.614h-3.21v-4.781z"/><path fill="#171717" d="M631.025 212.645c-.752-1.708-1.708-3.211-3.006-4.509-1.297-1.297-2.8-2.322-4.508-3.005-1.708-.751-3.552-1.093-5.464-1.093-1.913 0-3.757.342-5.465 1.093-1.707.751-3.21 1.708-4.508 3.005-1.298 1.298-2.322 2.801-3.005 4.509-.752 1.707-1.093 3.552-1.093 5.464 0 1.913.341 3.757 1.093 5.465.751 1.707 1.707 3.21 3.005 4.508 1.298 1.298 2.801 2.322 4.508 3.005 1.708.683 3.552 1.093 5.465 1.093 1.912 0 3.756-.341 5.464-1.093 1.708-.751 3.211-1.707 4.508-3.005 1.298-1.298 2.323-2.801 3.006-4.508.751-1.708 1.093-3.552 1.093-5.465 0-1.912-.342-3.757-1.093-5.464zm-3.074 11.27c-1.025 1.708-2.391 3.142-4.167 4.167-1.707 1.024-3.688 1.571-5.806 1.571-2.117 0-4.03-.547-5.806-1.571-1.707-1.025-3.142-2.391-4.166-4.167-1.025-1.708-1.571-3.688-1.571-5.806 0-2.117.546-4.03 1.571-5.806 1.024-1.708 2.39-3.142 4.166-4.167 1.708-1.024 3.689-1.571 5.806-1.571 2.118 0 4.03.547 5.806 1.571 1.708 1.025 3.142 2.391 4.167 4.167 1.025 1.708 1.571 3.689 1.571 5.806 0 2.118-.546 4.03-1.571 5.806zM167.567 331.699c-7.992 0-15.027-1.366-21.311-4.167-6.284-2.8-11.134-6.967-14.754-12.431-3.621-5.465-5.397-12.364-5.397-20.629 0-6.899 1.298-12.773 3.826-17.486 2.527-4.713 6.011-8.47 10.382-11.407 4.372-2.869 9.358-5.055 14.959-6.489 5.601-1.435 11.476-2.459 17.691-3.074 7.241-.751 13.115-1.503 17.555-2.186 4.44-.683 7.65-1.707 9.699-3.073 2.05-1.367 3.006-3.347 3.006-6.011v-.479c0-5.122-1.639-9.153-4.85-11.953-3.21-2.801-7.787-4.235-13.661-4.235-6.216 0-11.202 1.366-14.891 4.098-2.8 2.049-4.849 4.577-6.216 7.446-.819 1.707-2.527 2.732-4.371 2.595l-23.429-1.912c-2.869-.205-4.713-3.074-3.825-5.806 1.776-5.328 4.508-10.11 8.128-14.276 4.782-5.533 10.929-9.836 18.511-12.842 7.582-3.005 16.325-4.508 26.298-4.508 6.967 0 13.593.82 19.945 2.459 6.353 1.639 12.022 4.167 17.009 7.582 4.986 3.415 8.879 7.787 11.748 13.115 2.869 5.328 4.303 11.68 4.303 19.125v68.921c0 8.47-6.83 15.301-15.3 15.301h-13.115c-2.459 0-4.44-1.981-4.44-4.44v-12.91h-.956c-1.981 3.893-4.713 7.309-8.06 10.246-3.347 2.937-7.377 5.259-12.09 6.899-4.713 1.639-10.178 2.459-16.325 2.459l-.069.068zm9.905-23.907c5.123 0 9.562-1.025 13.456-3.074 3.893-2.049 6.967-4.781 9.153-8.265 2.254-3.483 3.347-7.377 3.347-11.748v-13.252c-1.093.683-2.527 1.366-4.44 1.913-1.844.546-3.962 1.093-6.284 1.571-2.323.478-4.645.888-6.967 1.229-2.323.342-4.44.683-6.353.957-4.03.614-7.582 1.571-10.656 2.869-3.005 1.297-5.396 3.073-7.035 5.259-1.639 2.186-2.527 4.918-2.527 8.197 0 4.713 1.707 8.333 5.191 10.792 3.415 2.459 7.787 3.689 13.115 3.689v-.137zM371.53 193.244v131.762c0 2.391-1.981 4.372-4.372 4.372h-23.907c-2.391 0-4.303-1.913-4.372-4.303l-1.912-157.787c0-2.391 1.912-4.304 4.235-4.304 16.735 0 30.328 13.593 30.328 30.328v-.068zm124.586 82.579c3.143 0 5.738-2.596 5.738-5.738v-3.757c0-10.587-1.503-19.877-4.44-27.8-3.005-7.924-7.172-14.549-12.5-19.809-5.328-5.259-11.543-9.221-18.716-11.817-7.103-2.595-14.822-3.962-23.019-3.962-12.226 0-22.882 2.733-31.967 8.129-9.085 5.396-16.12 12.978-21.106 22.677-4.987 9.7-7.446 20.97-7.446 33.812 0 12.841 2.459 24.522 7.446 34.153 4.986 9.631 12.09 17.008 21.311 22.268 9.221 5.259 20.287 7.855 33.128 7.855 10.315 0 19.399-1.571 27.254-4.782 7.856-3.142 14.345-7.581 19.331-13.319 3.006-3.416 5.396-7.172 7.172-11.271 1.776-4.098-1.161-9.084-5.806-9.426l-18.921-1.229c-2.527-.137-4.918 1.092-6.215 3.278-.957 1.64-2.118 3.074-3.484 4.372-2.254 2.186-4.986 3.825-8.197 4.85-3.21 1.092-6.694 1.639-10.587 1.639-5.806 0-10.792-1.23-15.027-3.689-4.235-2.459-7.514-5.874-9.768-10.382-2.323-4.508-3.484-9.836-3.484-15.984l79.235-.068h.068zM429.86 232.38c4.03-2.39 8.674-3.62 13.934-3.62s9.495 1.093 13.251 3.279c3.826 2.186 6.831 5.191 8.948 9.084 2.118 3.894 3.279 8.266 3.279 13.252H416.95c.205-4.508 1.298-8.607 3.415-12.295 2.254-4.03 5.396-7.241 9.495-9.7zM4.86187 333.14c16.93993 0 30.60113-13.729 30.60113-30.601V193.591h26.4344c20.3552 0 30.6694 7.992 30.6694 23.771 0 15.778-10.3142 23.77-30.6694 23.77H49.9438c-.4781 0-.9562 0-1.3661.205-1.9125.683-3.0738 2.459-2.9371 4.303.7513 15.164 13.5246 25.41 31.7623 25.41 8.4699 0 17.0765-2.117 24.9321-6.216 15.847-8.196 25.341-25.956 25.341-47.472 0-33.744-24.727-54.714-64.6174-54.714H23.7143c-12.7732 0-23.1557 10.383-23.1557 23.156v142.965c0 2.39 1.91256 4.303 4.30327 4.303v.068zM268.658 211.83s-.546.341-.819.478c-.615.41-1.23.888-1.776 1.298-.342.273-.752.546-1.093.82-.547.409-1.025.888-1.503 1.297-.41.342-.82.683-1.161 1.093-.478.41-.888.888-1.366 1.366-.41.41-.82.888-1.162 1.298-.409.478-.819.956-1.161 1.435-.41.478-.751 1.024-1.093 1.571-.341.478-.683 1.024-1.024 1.571-.342.546-.683 1.161-1.025 1.776-.273.546-.615 1.093-.888 1.639-.341.683-.615 1.298-.888 2.049-.273.547-.478 1.161-.683 1.776-.273.751-.546 1.503-.751 2.323-.205.614-.41 1.161-.547 1.844-.205.819-.409 1.776-.614 2.664-.137.614-.274 1.229-.342 1.844-.205 1.025-.273 2.117-.41 3.21 0 .547-.136 1.093-.205 1.64-.136 1.707-.205 3.415-.205 5.259l1.913 75.069c0 2.39 1.981 4.235 4.372 4.235h25.888c2.459 0 4.439-2.05 4.371-4.509l-1.844-66.12c0-5.123 1.161-9.563 3.483-13.456 2.323-3.894 5.465-6.967 9.427-9.153 3.961-2.186 8.538-3.279 13.593-3.279 2.39 0 4.986.205 7.855.547.341 0 .683.068 1.024.136 3.006.41 5.738-1.912 5.738-4.986v-20.219c0-2.527-1.913-4.713-4.44-4.986-10.041-1.23-34.972-2.801-52.527 8.47h-.137zm265.44 0s-.547.341-.82.478c-.615.41-1.229.888-1.776 1.298-.341.273-.751.546-1.093.82-.546.409-1.024.888-1.503 1.297-.409.342-.819.683-1.161 1.093-.478.41-.888.888-1.366 1.366-.41.41-.82.888-1.161 1.298-.41.478-.82.956-1.161 1.435-.41.478-.752 1.024-1.093 1.571-.342.478-.683 1.024-1.025 1.571-.341.546-.683 1.161-1.024 1.776-.274.546-.615 1.093-.888 1.639-.342.683-.615 1.298-.888 2.049-.274.547-.478 1.161-.683 1.776-.274.751-.547 1.503-.752 2.323-.205.614-.41 1.161-.546 1.844-.205.819-.41 1.776-.615 2.664-.137.614-.273 1.229-.342 1.844-.204 1.025-.273 2.117-.409 3.21 0 .547-.137 1.093-.205 1.64-.137 1.707-.205 3.415-.205 5.259l1.912 75.069c0 2.39 1.981 4.235 4.372 4.235h25.888c2.459 0 4.44-2.05 4.372-4.509l-1.845-66.12c0-5.123 1.161-9.563 3.484-13.456 2.322-3.894 5.464-6.967 9.426-9.153 3.962-2.186 8.538-3.279 13.593-3.279 2.391 0 4.986.205 7.855.547.342 0 .683.068 1.025.136 3.005.41 5.737-1.912 5.737-4.986v-20.219c0-2.527-1.912-4.713-4.439-4.986-10.041-1.23-34.973-2.801-52.528 8.47h-.136z"/><path fill="#E50038" d="M778.568 222.962h-24.043c-2.596 0-4.85-1.708-5.533-4.235-.752-2.937-1.776-5.601-3.142-7.992-1.981-3.62-4.577-6.626-7.719-9.221-3.142-2.528-6.762-4.509-10.792-5.806-4.099-1.367-8.47-2.05-13.252-2.05-8.606 0-16.051 2.118-22.404 6.353-6.352 4.235-11.339 10.382-14.822 18.442-3.484 8.061-5.26 17.828-5.26 29.372s1.776 21.79 5.328 29.781c3.552 8.061 8.47 14.14 14.891 18.238 6.352 4.099 13.729 6.148 22.131 6.148 4.713 0 9.085-.615 13.046-1.845 3.962-1.229 7.582-3.073 10.724-5.464 3.142-2.391 5.738-5.328 7.787-8.811 1.366-2.323 2.459-4.85 3.279-7.582.751-2.459 2.869-4.235 5.396-4.235l24.18.136c3.757 0 6.489 3.552 5.602 7.241-1.23 5.054-3.074 9.972-5.533 14.822-3.621 7.036-8.539 13.32-14.686 18.852-6.148 5.533-13.388 9.905-21.858 13.115-8.47 3.211-17.965 4.85-28.62 4.85-14.823 0-28.006-3.347-39.618-10.041-11.612-6.694-20.833-16.393-27.527-29.098-6.694-12.705-10.109-28.074-10.109-46.107 0-18.033 3.415-33.47 10.177-46.175 6.831-12.705 16.052-22.336 27.664-29.03 11.681-6.694 24.795-9.973 39.344-9.973 9.632 0 18.511 1.367 26.776 4.031 8.265 2.663 15.506 6.625 21.927 11.748 6.352 5.123 11.543 11.476 15.573 18.921 3.006 5.601 5.192 11.749 6.626 18.579.751 3.62-1.981 7.036-5.669 7.036h.136zm47.675-23.565v126.229c0 2.801-2.254 5.055-5.055 5.055h-24.317c-2.8 0-5.055-2.254-5.055-5.055V164.902c19.058 0 34.495 15.437 34.495 34.495h-.068zm67.146 133.745c-12.569 0-23.429-2.664-32.582-8.06-9.153-5.396-16.189-12.842-21.175-22.541-4.986-9.631-7.445-20.834-7.445-33.539 0-12.704 2.459-24.112 7.445-33.743 4.986-9.631 12.022-17.145 21.175-22.541 9.153-5.396 20.013-8.06 32.582-8.06 12.568 0 23.429 2.664 32.582 8.06 9.153 5.396 16.188 12.842 21.175 22.541 4.986 9.631 7.445 20.902 7.445 33.743 0 12.842-2.459 23.908-7.445 33.539-4.987 9.631-12.022 17.145-21.175 22.541-9.153 5.396-20.014 8.06-32.582 8.06zm.136-26.708c5.738 0 10.519-1.639 14.345-4.918 3.825-3.279 6.762-7.718 8.674-13.388 1.981-5.669 2.938-12.09 2.938-19.33 0-7.241-.957-13.662-2.938-19.331-1.98-5.669-4.849-10.178-8.674-13.456-3.826-3.279-8.607-4.918-14.345-4.918-5.737 0-10.655 1.639-14.549 4.918-3.893 3.278-6.83 7.787-8.811 13.456-1.981 5.669-2.938 12.09-2.938 19.331 0 7.24.957 13.661 2.938 19.33 1.981 5.67 4.918 10.109 8.811 13.388 3.894 3.279 8.743 4.918 14.549 4.918zm236.275 26.297c-9.43 0-17.96-2.459-25.61-7.309-7.65-4.918-13.67-12.09-18.17-21.653-4.44-9.494-6.7-21.243-6.7-35.109 0-13.866 2.32-26.093 6.9-35.587 4.58-9.495 10.73-16.599 18.38-21.312 7.65-4.713 16.05-7.104 25.13-7.104 6.97 0 12.78 1.162 17.42 3.552 4.64 2.323 8.47 5.26 11.34 8.743 2.87 3.484 5.05 6.899 6.62 10.246h1.03v-27.937c0-18.989 15.44-34.426 34.43-34.426v161.134c0 2.595-2.12 4.713-4.72 4.713h-24.52c-2.6 0-4.71-2.118-4.71-4.713v-15.164h-1.44c-1.64 3.484-3.89 6.899-6.83 10.246-2.93 3.347-6.76 6.147-11.4 8.401-4.65 2.186-10.39 3.347-17.08 3.347l-.07-.068zm10.93-27.459c5.53 0 10.25-1.503 14.14-4.576 3.82-3.074 6.83-7.309 8.88-12.842 2.05-5.533 3.14-11.953 3.14-19.331 0-7.377-1.02-13.797-3.07-19.262-2.05-5.464-5.06-9.631-8.88-12.636-3.9-2.938-8.61-4.44-14.14-4.44-5.54 0-10.45 1.571-14.35 4.644-3.89 3.074-6.83 7.309-8.81 12.774-1.98 5.464-3 11.748-3 18.92 0 7.173 1.02 13.593 3 19.126 2.05 5.533 4.99 9.836 8.81 12.978 3.83 3.074 8.61 4.645 14.28 4.645zm-101.1-63.797v38.251c0 11.817-8.61 22.336-20.36 23.497-13.45 1.298-24.792-9.289-24.792-22.472v-74.317c-19.672 0-35.587 15.915-35.587 35.587v32.309c0 32.035 25.956 57.923 57.919 57.923 32.04 0 57.93-25.956 57.93-57.923v-67.896c-19.4 0-35.11 15.71-35.11 35.109v-.068z"/><path fill="#171717" d="M635.803 371.477v-8.466h50.573v8.466h-20.379v56.867h-9.815v-56.867h-20.379zm74.917 57.838c-4.87 0-8.991-1.049-12.437-3.146-3.447-2.098-6.144-5.02-8.017-8.766-1.873-3.747-2.847-8.242-2.847-13.262s.974-9.44 2.847-13.261c1.873-3.822 4.495-6.819 7.942-8.991 3.446-2.173 7.342-3.222 11.913-3.222 2.772 0 5.469.45 8.017 1.349 2.622.899 4.945 2.322 6.967 4.345 2.098 1.948 3.672 4.496 4.87 7.642 1.199 3.147 1.799 6.893 1.799 11.389v3.371h-38.961v-7.117h29.595c0-2.473-.524-4.721-1.498-6.669-1.049-1.948-2.473-3.521-4.271-4.645-1.873-1.124-3.971-1.723-6.443-1.723-2.698 0-5.02.674-7.043 1.948-2.023 1.274-3.522 2.997-4.57 5.095-1.049 2.098-1.574 4.345-1.574 6.818v5.619c0 3.297.6 6.069 1.723 8.391 1.124 2.323 2.773 4.046 4.87 5.245 2.098 1.199 4.496 1.798 7.343 1.798 1.798 0 3.446-.224 4.945-.749 1.498-.524 2.772-1.274 3.896-2.323 1.049-1.049 1.948-2.322 2.472-3.896l9.066 1.649c-.749 2.622-2.023 5.02-3.896 6.968-1.873 1.948-4.196 3.521-6.968 4.645-2.772 1.124-5.994 1.648-9.59 1.648l-.15-.15zm52.382.002c-4.72 0-8.841-1.049-12.213-3.222-3.446-2.172-6.069-5.169-7.867-8.991-1.798-3.821-2.772-8.166-2.772-13.111s.899-9.366 2.847-13.187c1.948-3.821 4.496-6.818 7.942-8.991 3.446-2.172 7.417-3.221 12.063-3.221 3.746 0 7.042.674 9.965 2.023 2.922 1.348 5.244 3.296 7.042 5.769 1.799 2.472 2.847 5.319 3.222 8.616h-9.29c-.525-2.323-1.649-4.271-3.522-5.919-1.798-1.648-4.271-2.472-7.267-2.472-2.623 0-5.02.674-6.968 2.097-1.948 1.424-3.522 3.372-4.646 5.919-1.123 2.548-1.648 5.62-1.648 9.066 0 3.447.525 6.668 1.648 9.291 1.049 2.622 2.623 4.645 4.646 6.068 2.023 1.424 4.345 2.173 7.042 2.173 1.799 0 3.447-.299 4.945-.974 1.499-.674 2.698-1.648 3.747-2.922.974-1.273 1.723-2.772 2.097-4.495h9.291c-.375 3.147-1.349 5.994-3.072 8.466-1.723 2.473-4.046 4.421-6.893 5.844-2.922 1.424-6.293 2.173-10.115 2.173h-.224zm39.927-30.116v29.145h-9.515v-65.408h9.44v24.35h.599c1.124-2.623 2.922-4.721 5.245-6.294 2.323-1.573 5.469-2.323 9.291-2.323 3.371 0 6.293.675 8.841 2.098 2.547 1.349 4.495 3.447 5.844 6.144 1.423 2.772 2.097 6.144 2.097 10.265v31.168h-9.515v-30.045c0-3.596-.899-6.368-2.772-8.391-1.873-2.023-4.42-2.997-7.717-2.997-2.248 0-4.271.45-6.069 1.424s-3.147 2.322-4.196 4.195c-1.049 1.873-1.498 4.046-1.498 6.669h-.075zm54.091-.003v29.145h-9.516v-49.075h9.141v8.017h.6c1.123-2.622 2.922-4.645 5.319-6.294 2.398-1.573 5.47-2.397 9.141-2.397 3.371 0 6.293.674 8.766 2.098 2.547 1.423 4.495 3.446 5.844 6.218 1.349 2.772 2.098 6.144 2.098 10.19v31.168h-9.516v-30.044c0-3.522-.899-6.369-2.772-8.317-1.873-2.023-4.42-2.997-7.642-2.997-2.248 0-4.196.45-5.919 1.424-1.723.974-3.072 2.322-4.046 4.196-.974 1.873-1.498 4.045-1.498 6.668zm64.814 30.117c-4.57 0-8.616-1.049-12.062-3.146-3.447-2.098-6.069-5.02-8.017-8.841-1.873-3.822-2.847-8.242-2.847-13.262s.974-9.515 2.847-13.336c1.873-3.821 4.57-6.743 8.017-8.916 3.446-2.098 7.417-3.147 12.062-3.147 4.646 0 8.617 1.049 12.063 3.147 3.447 2.098 6.069 5.095 8.017 8.916 1.873 3.821 2.847 8.241 2.847 13.336 0 5.095-.974 9.515-2.847 13.262-1.873 3.821-4.57 6.743-8.017 8.841-3.446 2.097-7.417 3.146-12.063 3.146zm0-8.016c2.997 0 5.47-.75 7.418-2.398 1.948-1.573 3.446-3.671 4.345-6.294.899-2.622 1.424-5.469 1.424-8.616 0-3.147-.45-5.994-1.424-8.616s-2.397-4.72-4.345-6.369c-1.948-1.573-4.421-2.397-7.418-2.397s-5.469.824-7.417 2.397c-1.948 1.574-3.447 3.747-4.346 6.369-.974 2.622-1.423 5.544-1.423 8.616s.449 6.069 1.423 8.616c.974 2.548 2.398 4.721 4.346 6.294 1.948 1.573 4.42 2.398 7.417 2.398zm43.081-58.361v65.408H955.5v-65.408h9.515zm33.49 66.377c-4.571 0-8.616-1.049-12.063-3.146-3.446-2.098-6.069-5.02-8.017-8.841-1.873-3.822-2.847-8.242-2.847-13.262s.974-9.515 2.847-13.336c1.873-3.821 4.571-6.743 8.017-8.916 3.447-2.098 7.417-3.147 12.063-3.147 4.645 0 8.615 1.049 12.065 3.147 3.44 2.098 6.07 5.095 8.01 8.916 1.88 3.821 2.85 8.241 2.85 13.336 0 5.095-.97 9.515-2.85 13.262-1.87 3.821-4.57 6.743-8.01 8.841-3.45 2.097-7.42 3.146-12.065 3.146zm0-8.016c2.995 0 5.465-.75 7.415-2.398 1.95-1.573 3.45-3.671 4.35-6.294.9-2.622 1.42-5.469 1.42-8.616 0-3.147-.45-5.994-1.42-8.616-.98-2.622-2.4-4.72-4.35-6.369-1.95-1.573-4.42-2.397-7.415-2.397-2.997 0-5.47.824-7.418 2.397-1.948 1.574-3.446 3.747-4.345 6.369-.974 2.622-1.424 5.544-1.424 8.616s.45 6.069 1.424 8.616c.974 2.548 2.397 4.721 4.345 6.294 1.948 1.573 4.421 2.398 7.418 2.398zm54.025 26.373c-3.9 0-7.27-.525-10.04-1.499-2.78-.974-5.1-2.397-6.82-4.046-1.73-1.648-3.07-3.521-3.97-5.469l8.24-3.372c.6.899 1.35 1.873 2.32 2.922.97 1.049 2.32 1.948 3.97 2.698 1.65.749 3.82 1.123 6.44 1.123 3.6 0 6.6-.899 9-2.622 2.39-1.723 3.52-4.495 3.52-8.316v-9.666h-.6c-.6 1.049-1.43 2.173-2.47 3.447-1.05 1.274-2.55 2.397-4.43 3.297-1.87.899-4.34 1.423-7.34 1.423-3.89 0-7.34-.899-10.49-2.697-3.07-1.798-5.54-4.496-7.34-8.092-1.8-3.596-2.7-7.942-2.7-13.186 0-5.245.9-9.666 2.7-13.412 1.8-3.746 4.2-6.593 7.34-8.541 3.15-1.948 6.6-2.997 10.57-2.997 3.07 0 5.47.524 7.34 1.498s3.37 2.173 4.42 3.522c1.05 1.349 1.87 2.547 2.47 3.521h.68v-7.942h9.36v50.124c0 4.196-.97 7.568-2.92 10.265-1.95 2.697-4.57 4.72-7.94 5.994-3.3 1.273-7.12 1.948-11.24 1.948l-.07.075zm-.08-27.947c2.77 0 5.09-.674 6.97-1.948 1.87-1.274 3.37-3.147 4.34-5.544.98-2.398 1.5-5.32 1.5-8.691 0-3.372-.52-6.219-1.5-8.692-.97-2.547-2.39-4.495-4.34-5.918-1.88-1.424-4.27-2.098-7.04-2.098-2.78 0-5.25.749-7.2 2.247-1.95 1.499-3.37 3.447-4.34 5.994-.98 2.548-1.43 5.395-1.43 8.467 0 3.071.53 6.068 1.5 8.466.98 2.398 2.4 4.346 4.35 5.694 1.95 1.349 4.27 2.023 7.12 2.023h.07zm39.86-47.949c-1.65 0-3.07-.524-4.27-1.648-1.2-1.124-1.8-2.472-1.8-3.971 0-1.498.6-2.922 1.8-4.046 1.2-1.124 2.62-1.648 4.27-1.648 1.65 0 3.07.524 4.27 1.648 1.2 1.124 1.8 2.473 1.8 3.971 0 1.499-.6 2.922-1.8 4.046-1.2 1.124-2.62 1.648-4.27 1.648zm-4.79 56.643v-49.075h9.51v49.075h-9.51zm43.46.896c-4.87 0-8.99-1.049-12.44-3.146-3.45-2.098-6.14-5.02-8.02-8.766-1.87-3.747-2.85-8.242-2.85-13.262s.98-9.44 2.85-13.261c1.88-3.822 4.5-6.819 7.94-8.991 3.45-2.173 7.35-3.222 11.92-3.222 2.77 0 5.47.45 8.01 1.349 2.63.899 4.95 2.322 6.97 4.345 2.1 1.948 3.67 4.496 4.87 7.642 1.2 3.147 1.8 6.893 1.8 11.389v3.371h-38.96v-7.117h29.59c0-2.473-.52-4.721-1.49-6.669-1.05-1.948-2.48-3.521-4.28-4.645-1.87-1.124-3.97-1.723-6.44-1.723-2.7 0-5.02.674-7.04 1.948-2.02 1.274-3.52 2.997-4.57 5.095-1.05 2.098-1.57 4.345-1.57 6.818v5.619c0 3.297.59 6.069 1.72 8.391 1.12 2.323 2.77 4.046 4.87 5.245 2.1 1.199 4.49 1.798 7.34 1.798 1.8 0 3.45-.224 4.95-.749 1.49-.524 2.77-1.274 3.89-2.323 1.05-1.049 1.95-2.322 2.47-3.896l9.07 1.649c-.75 2.622-2.02 5.02-3.9 6.968-1.87 1.948-4.19 3.521-6.96 4.645-2.78 1.124-6 1.648-9.59 1.648l-.15-.15zm68.4-38.061l-8.62 1.499c-.37-1.124-.9-2.173-1.72-3.147-.75-.974-1.8-1.798-3.15-2.473-1.35-.674-3-.974-4.94-.974-2.7 0-4.95.6-6.75 1.799-1.8 1.198-2.7 2.772-2.7 4.645 0 1.648.6 2.922 1.8 3.971 1.2.974 3.15 1.798 5.85 2.472l7.79 1.798c4.49 1.049 7.87 2.623 10.11 4.795 2.25 2.173 3.3 5.02 3.3 8.467 0 2.922-.82 5.544-2.55 7.867-1.72 2.322-4.04 4.046-7.04 5.394-3 1.274-6.52 1.948-10.49 1.948-5.47 0-9.96-1.198-13.41-3.521-3.45-2.323-5.62-5.694-6.37-10.04l9.22-1.423c.6 2.397 1.72 4.195 3.52 5.469 1.8 1.199 4.12 1.873 6.97 1.873 3.14 0 5.62-.674 7.49-1.948s2.85-2.922 2.85-4.795c0-1.498-.6-2.847-1.73-3.896-1.12-1.049-2.84-1.798-5.24-2.398l-8.32-1.798c-4.57-1.049-7.94-2.697-10.11-5.02-2.18-2.247-3.3-5.169-3.3-8.616 0-2.922.82-5.394 2.4-7.567 1.65-2.173 3.82-3.896 6.67-5.095 2.84-1.199 6.14-1.873 9.81-1.873 5.32 0 9.44 1.124 12.51 3.446 3.07 2.323 5.02 5.32 6.07 9.216l.08-.075z"/><path fill="#E50038" d="M497.213 113.264c0-34.6993 26.024-63.4561 59.289-65.5053 1.298-.0683 2.596-.1366 3.894-.1366 18.579 0 36.134 8.1284 48.224 22.336 12.022 14.1394 17.145 32.9919 14.139 51.6389-4.235 25.684-22.882 46.312-45.491 50.137-1.981.342-3.962.547-5.875.547-16.53 0-30.054-12.842-30.054-28.621v-.888c5.737 3.416 12.295 5.26 19.057 5.26 2.664 0 5.396-.273 8.06-.888 13.73-2.937 25-14.071 28.074-27.732 2.527-11.271 0-22.8828-7.172-31.7626-7.104-8.8798-17.692-13.9344-29.03-13.9344-20.629.2049-37.159 17.6229-37.159 38.798v51.571s-.068.615-.068.956c0 15.642-11.202 28.757-25.956 31.694v-83.538l.068.068z"/><path fill="#171717" d="M493.115 126.994c-6.079 12.295-18.579 20.765-33.197 20.765-20.491 0-37.158-16.598-37.158-37.158 0-20.5602 16.598-37.1586 37.158-37.1586 14.823 0 27.459 8.7432 33.47 21.2432 2.323-10.041 6.831-19.194 12.978-26.9809-11.543-12.5-28.073-20.4235-46.448-20.4235-34.972 0-63.251 28.347-63.251 63.2518 0 34.904 28.347 63.251 63.251 63.251 12.227 0 23.498-3.552 33.197-9.495v-37.431.136zm48.494-83.061c6.148-1.7759 12.637-2.8005 19.399-2.8005 3.006 0 5.874.2732 8.743.6147C560.735 17.7718 537.716.69531 510.598.69531c-27.117 0-50.136 17.07649-59.153 40.98359 2.801-.3415 5.601-.5464 8.47-.5464 6.763 0 13.32 1.0246 19.536 2.8005 6.625-10.2459 18.101-17.0765 31.147-17.0765 13.047 0 24.386 6.8306 30.943 17.0765h.068z"/></g><defs><clipPath id="clip0_2021_453"><path fill="#fff" d="M0 0h1200v447.473H0z" transform="translate(.556 .695)"/></clipPath></defs></svg>