<svg width="232" height="32" viewBox="0 0 232 32" fill="none" xmlns="http://www.w3.org/2000/svg" opacity="0.8">
<path d="M30.2981 0.5H23.1386C22.4155 0.5 21.7415 0.877523 21.3582 1.50029L20.1378 3.50763C20.1378 3.50763 19.4455 4.62186 19.4329 4.6402L18.2627 6.56547C18.3631 6.39554 18.4896 6.25071 18.6277 6.12519L18.6431 6.09719C19.0313 5.80753 19.5932 5.57774 20.0499 5.57774H30.2981C30.3241 5.57774 30.3502 5.57387 30.3743 5.56808H30.3753V0.5H30.2971H30.2981Z" fill="white"/>
<path d="M17.6394 7.5855L19.4324 4.64062C19.0491 5.21994 18.3945 5.5656 17.6964 5.5656H0.70977C0.699149 5.5656 0.689493 5.56753 0.678872 5.5685H0.0947266V10.6346H0.682738C0.691428 10.6346 0.700114 10.6375 0.708804 10.6375H14.6125C15.3357 10.6375 16.0096 10.26 16.3929 9.63726L16.3862 9.64305L17.6385 7.5855H17.6394Z" fill="white"/>
<path d="M30.1999 11.0717L30.2028 11.0688H16.4884C15.7652 11.0688 15.0913 11.4464 14.708 12.0691L13.4875 14.0765L13.0231 14.8354L11.627 17.1295C11.6685 17.0687 11.7177 17.0214 11.7583 16.9654V16.9673C12.1474 16.4642 12.7508 16.1466 13.3929 16.1466H30.197C30.2173 16.1466 30.2376 16.1437 30.2579 16.1408H30.282V11.0727H30.2009L30.1999 11.0717Z" fill="white"/>
<path d="M12.8368 15.1396L12.8329 15.1464C12.7701 15.2536 12.6002 15.4293 12.6002 15.4293C12.2101 15.8696 11.6569 16.1399 11.0524 16.1399H0.615044C0.591871 16.1399 0.568696 16.1428 0.546489 16.1467H0V21.2128H2.03824C2.03824 21.2128 2.04596 21.2119 2.04982 21.2119H7.96274C8.68593 21.2119 9.35987 20.8344 9.74319 20.2116L10.9955 18.154V18.1608L11.6183 17.1412C11.6183 17.1412 11.624 17.1335 11.6269 17.1296L12.8377 15.1396H12.8368Z" fill="white"/>
<path d="M30.2039 21.6508V21.644H9.9268C9.20361 21.644 8.52967 22.0216 8.14635 22.6443L6.92592 24.6517C6.92592 24.6517 6.25391 25.7379 6.24039 25.7591C6.23943 25.7611 6.2375 25.763 6.23653 25.7659H6.23943L5.05762 27.7105C5.12134 27.6052 5.20244 27.5164 5.27872 27.4295C5.28452 27.4228 5.30383 27.4034 5.30383 27.4034C5.69294 26.9844 6.25295 26.7227 6.83227 26.7227H30.2039C30.2146 26.7227 30.2242 26.7208 30.2339 26.7198H30.2812V21.6518H30.2049L30.2039 21.6508Z" fill="white"/>
<path d="M6.15816 25.8769C5.76809 26.4061 5.15981 26.7334 4.49649 26.7334H0V31.7995H0.607318C0.607318 31.7995 0.61118 31.7995 0.613111 31.7995H1.39906C2.12224 31.7995 2.79715 31.4104 3.18143 30.7867L4.43372 28.7291L4.58435 28.4829L6.17168 25.876H6.15913L6.15816 25.8769Z" fill="white"/>
<path d="M127.528 29.4151H120.509C118.986 27.3424 117.463 25.2636 115.959 23.2157H108.148V29.3216H101.982V9.92727L99.9434 9.68452V3.80895C100.422 3.77783 100.944 3.70936 101.466 3.70936C107.073 3.70314 112.673 3.68446 118.28 3.70936C122.542 3.72803 126.306 6.49154 127.546 10.419C128.842 14.5269 127.374 18.9086 123.862 21.4481C123.512 21.7034 123.162 21.9523 122.744 22.251C124.304 24.5851 125.827 26.8632 127.528 29.4151ZM108.289 17.085C111.592 17.085 114.823 17.0975 118.059 17.0726C118.544 17.0726 119.041 16.9294 119.502 16.7614C121.614 15.9958 122.511 13.4377 121.326 11.5766C120.515 10.3007 119.318 9.77166 117.832 9.77787C114.479 9.79656 111.126 9.77789 107.773 9.79033C107.546 9.79033 107.312 9.86502 106.956 9.92104C108.933 12.0933 107.564 14.6576 108.283 17.085H108.289Z" fill="#F0F0F0"/>
<path d="M226.703 22.2451C228.306 24.6351 229.842 26.9194 231.487 29.3654H224.444C222.994 27.3798 221.465 25.2949 219.943 23.2035H212.143V29.3654H205.978V9.9088L203.988 9.69718V3.80293C204.462 3.77181 204.984 3.70957 205.506 3.70957C211.056 3.70334 216.609 3.6909 222.159 3.70957C226.519 3.72202 230.296 6.47309 231.543 10.4814C232.825 14.608 231.358 18.9027 227.79 21.4795C227.483 21.7036 227.17 21.9214 226.716 22.2451H226.703ZM212.1 17.0479C215.656 17.0479 218.997 17.0603 222.337 17.0354C222.761 17.0354 223.21 16.886 223.609 16.718C226.016 15.7097 226.599 12.5976 224.727 10.8237C223.872 10.0208 222.835 9.77186 221.692 9.77809C218.56 9.79676 215.429 9.77809 212.297 9.79055C211.891 9.79055 211.492 9.85278 210.811 9.90257C211.929 10.9171 212.193 11.9814 212.12 13.2014C212.045 14.4088 212.1 15.6288 212.1 17.0541V17.0479Z" fill="#F0F0F0"/>
<path d="M186.875 29.7818C183.522 29.7134 181.084 29.3586 178.8 28.2943C173.66 25.9042 170.951 20.8812 171.498 14.819C171.988 9.33553 175.661 4.93508 180.973 3.54709C184.387 2.65082 187.826 2.63214 191.234 3.55331C197.087 5.13425 200.814 10.1385 200.814 16.3252C200.814 22.5057 197.087 27.5224 191.216 29.0597C189.527 29.5017 187.764 29.6387 186.875 29.7881V29.7818ZM186.002 23.5203C187.108 23.3647 188.213 23.2963 189.275 23.0411C192.493 22.2693 194.446 19.7921 194.544 16.4808C194.637 13.2132 192.77 10.6301 189.588 9.69653C187.267 9.01188 184.922 9.02432 182.606 9.69653C179.321 10.6488 177.614 13.1136 177.713 16.6551C177.797 19.8793 179.739 22.3066 182.919 23.0535C183.926 23.29 184.976 23.3709 186.008 23.5266L186.002 23.5203Z" fill="#F0F0F0"/>
<path d="M50.1169 23.2349V29.3594H44.056V9.89653L41.9619 9.7098V3.85911C42.3242 3.80932 42.7356 3.70974 43.1471 3.70974C48.9194 3.69729 54.6979 3.65994 60.4703 3.70974C65.2786 3.7533 69.3805 7.43798 69.9088 12.0438C70.5044 17.2659 67.5076 21.7411 62.5766 22.9299C61.8888 23.0979 61.1641 23.1227 60.4519 23.129C57.5902 23.1477 54.7348 23.129 51.8732 23.1414C51.3388 23.1414 50.8046 23.1913 50.1107 23.2286L50.1169 23.2349ZM50.2827 17.0916C53.6232 17.0916 56.8596 17.0916 60.0957 17.0916C60.3106 17.0916 60.5317 17.0418 60.7467 16.992C62.7424 16.5688 64.0566 14.9629 63.903 13.1393C63.7434 11.2596 62.2633 9.88407 60.2246 9.80315C58.9659 9.74715 57.7009 9.79071 56.4358 9.79071C54.0532 9.79071 51.6643 9.79071 49.0361 9.79071C50.8722 12.131 49.6564 14.6455 50.2888 17.0978L50.2827 17.0916Z" fill="#F0F0F0"/>
<path d="M82.8567 2.53271C88.0334 11.5764 93.0627 20.3711 98.2026 29.3462H91.853C91.1714 28.1824 90.4283 26.9064 89.6791 25.6242H76.0035L73.8296 29.3773H67.4678C72.6016 20.4271 77.6553 11.6075 82.8567 2.53271ZM86.6332 20.2341C85.3192 17.9188 84.1524 15.8586 82.8567 13.5681C81.5302 15.9021 80.3573 17.9748 79.0678 20.2341H86.6332Z" fill="#F0F0F0"/>
<path d="M156.263 9.75324H146.505V29.3654H140.414V9.79681H130.601V3.81543H156.263V9.75324Z" fill="#F0F0F0"/>
<path d="M160.52 3.80273H166.403V29.3589H160.52V3.80273Z" fill="#F0F0F0"/>
</svg>
