<svg xmlns="http://www.w3.org/2000/svg" role="img" viewBox="-5.66 51.59 411.32 141.32"><style>svg {enable-background:new 0 0 400 245}</style><path fill="none" d="M2.3 181.9v-.7.7z"/><path fill="#2db0de" d="M344 100.4c2-2 1.5-5.5-.9-6.8-1.5-.5-3.3-.5-4.7.2-1.9 1.2-2 3.9-1.3 5.8 1.3 2.4 4.9 2.7 6.9.8zm.9 11.5c-.5-2.9-3.9-3.7-6.3-2.6-1.8 1.4-1.6 3.4-1.8 5.4v40.4c.2 1.9-.2 4.4 1.7 5.6 2.8 1.8 6.5-.3 6.5-3.6.3-11.4 0-22.9.1-34.3 0-3.6.4-7.4-.2-10.9z"/><path fill="#29aee3" d="M397.6 128.8c-.1-6.1-2.7-11.9-7.5-15.7-5.4-4.4-12.3-4.9-19-3.7-6.1 1.2-11.3 5.9-13.7 11.5-1.7 3.9-1.4 8.7-1.4 12.9.1 7.7-.1 15.5.1 23.2-.1 2.6 1.6 4.2 4.2 4.1 2.4-.1 3.9-1.8 3.9-4.1.3-9.1-.1-18.2.2-27.3.2-3.6.9-7 3.5-9.6 5.9-5.8 17.4-4.2 20.4 3.9 1.5 4.6.6 10 .9 14.8.2 6.4-.3 12.9.3 19.2.5 3.3 5 4.2 7.1 1.8 1.4-1.4 1.1-4 1.2-5.9-.3-8.3-.1-16.7-.2-25.1z"/><path fill="#51bdb2" d="M132.2 111.9c-6.2-3.8-14.2-4.2-21.1-2.5-6.6 2.8-12.3 7.6-15 14.3-2.5 5.9-1.9 12-2 18.2v36.3c0 1.5 0 3.2.4 4.7 1.1 2.2 3.9 3.1 5.9 1.6 2.3-1.4 1.7-4 1.9-6.3-.1-8.4 0-16.9-.1-25.3 2.7 2.4 5.5 4.6 8.8 6.2 4.3 1.4 8.9 1.9 13.4 1 8.9-1.7 16.2-8.8 18.8-17.4 3.4-11.1-.8-24.7-11-30.8zm-2.2 36.7c-4.9 4.4-12 5.5-18 2.6-3.2-2.2-5.9-5-7.6-8.5-4.2-8.5-1-19.6 7.1-24.5 5.6-2.9 12.1-2.8 17.1 1.3 9.1 6.8 9.4 21.4 1.4 29.1z"/><path fill="#46b9bf" d="M191.2 141.1c-2.1 2.2-3.4 5.3-5.7 7.5-4.8 4.4-12.2 5.4-18.2 2.8-3.2-1.3-5.3-3.6-7.7-5.9 11.2-4.9 22.7-9.3 34-14.1 2-1 3.8-2 3.4-4.6-.9-4.4-4.3-8.5-7.6-11.6-8.3-7.9-23.1-8.5-31.5-.4-10.4 8.7-12.1 26-3.7 36.6 7.4 9.8 22.7 12.6 33.1 6 4.5-2.7 8.9-7.3 10.1-12.5.7-3.3-3.6-5.8-6.2-3.8zM159.8 125c3.6-5.9 11.1-9.4 17.9-7.1 4.2 1.3 6.8 4.2 9.7 7.2-7.9 3.4-15.9 6.4-23.8 9.8-2.2.9-4.5 1.7-6.8 2.3.2-4.4.6-8.5 3-12.2z"/><path fill="#32b2d8" d="M321.1 110.9c-1.8 2.8-2.6 6.3-3.7 9.3-3.2 8.7-6.2 17.5-9.7 26.1-3-8-6-16-8.9-24-1.4-3.7-2.5-7.8-4.5-11.2-1.4-2.4-5.6-1.9-6.9.4-2 3.6-3 7.8-4.5 11.6-2.9 7.7-5.5 15.6-8.8 23.2-3.5-8.7-6.5-17.6-9.8-26.4-1.2-3-2.1-6.4-3.9-9.1-2.3-2.6-7.2-.5-6.6 3.1.7 3.2 2.2 6.2 3.3 9.2 4 11.1 8 22.2 12.1 33.3 1.1 2.4 1.8 5.4 5.2 5 2.6 0 3.3-2.1 4.2-4.1 4.1-11.1 7.9-22.2 12.3-33.2.8 1.9 1.5 3.9 2.2 5.8 3.5 9.1 6.7 18.4 10.2 27.6.9 2.1 1.7 4.1 4.4 3.9 2.6.1 3.4-1.8 4.3-3.9 5.2-13.4 9.7-27.1 14.9-40.5.4-1.3.9-2.6.9-4-.2-3.3-4.8-4.8-6.7-2.1z"/><path fill="#41b7c6" d="M252.2 143.9c-.1-5.7.5-12.3-1.3-17.7-2.1-6.2-6.4-11.9-12.4-14.8-6.1-3-13.5-3.3-19.9-1.3-5.9 2.5-10.9 6.8-13.8 12.5-3.5 6.9-3.7 15.3-1.1 22.5 2.5 6.8 8.1 11.9 14.8 14.6 5 1.6 10.5 2.1 15.5.3 3.6-1.3 6.6-3.8 9.6-6-.1 5.5 0 10.5-3.3 15.3-5.2 7.6-16.7 8.6-24.1 3.8-3.1-2-4.1-6.1-6.5-8.6-3-2.5-7.6 1-6.4 4.6 1.4 5.1 5.5 9.5 10.1 12 8.3 4.4 19 4.4 27.1-.5 6.2-3.6 10.2-10.1 11.3-17.1.8-6.5.2-13.1.4-19.6zm-8.7-7c-.6 7-5 13.3-11.8 15.5-4 1.3-8.1.6-11.9-1-3.1-2-5.8-4.5-7.3-7.9-4.1-8.9-1.3-20.1 7.4-25.1 3.5-1.5 7.1-2.2 10.8-1.3 8.4 2 14.2 11.3 12.8 19.8z"/><path fill="#5bc1a6" d="M54.6 107.8c-2.8-6.3-5.6-12.4-6.2-19.3-.5-6.1-.1-12.4 4.1-17.3 3.7-4.1 8.6-6.7 12.3-11 0 0-2.7-1.1-6.8 0-3.6 1.4-6.7 3.5-10.1 5.3-3.2 1.9-6.7.5-10.3.9-5.7.6-10 4.5-12.8 9.3-3.4 5.7-4 11.5-5.6 17.8-1.5 6.1-3.6 12-6.4 17.6-2 4-5.2 7-7.2 11C4.8 124 4 126 3.4 128c-.4 1.4-.9 4.2-1 8.6V181.9c.1 1.2.4 3.4 2.4 3.3.2 0 .4 0 .6-.1 1.8-.5 2.5-1.5 3.5-2.4 4.8-4.8 9.5-9.8 14.5-14.4 4.1 1.1 8 2.1 12.2 2.1 8.1.1 15.9-3.2 22-8.5 5.6-4.9 9.3-11.9 10.6-19.2 1.4-8.1-.5-16.7-4.9-23.5-2.6-4.3-6.6-6.7-8.7-11.4zM37 71.7l3.5 3.5-3.5 3.6-3.5-3.5 3.5-3.6zm24.7 73.2c-3.8 12.9-17.8 21.9-31.1 19-2.8-.4-6.3-2.4-9-1.9-4.9 3.6-8.7 8.7-13.3 12.7-.2-10.6 0-21.2-.1-31.8 0-5.4-.2-10.5 1.8-15.6 2.2-5.8 6.4-10.4 11.6-13.6 11.6-7.4 29-3.6 36.4 8 4.4 6.8 6.1 15.3 3.7 23.2z"/></svg>