<?xml version="1.0" encoding="utf-8"?>
<!-- Generator: Adobe Illustrator 27.5.0, SVG Export Plug-In . SVG Version: 6.00 Build 0)  -->
<svg version="1.1" id="Layer_1" xmlns="http://www.w3.org/2000/svg" xmlns:xlink="http://www.w3.org/1999/xlink" x="0px" y="0px"
	 viewBox="0 0 729.1 333.9" style="enable-background:new 0 0 729.1 333.9;" xml:space="preserve">
<style type="text/css">
	.st0{fill:#2060AD;}
</style>
<g id="Group_60279_00000069366503288652696050000012548665682287466396_" transform="translate(-148 -415.504)">
	<g id="Logo_00000016060962520664581290000009163475235701703088_" transform="translate(271.686 443.695)">
		<g id="Group_60238_00000091705499706508326270000009319585153172683396_">
			<path id="Path_16544_00000003813587211628861780000007768651024819927437_" d="M-9.1,36.4h31.8c6.5,0,11.5,1.8,15,5.4
				c3.5,3.6,5.2,8.4,5.2,14.5c0,6.1-1.8,11.1-5.5,14.8c-3.6,3.7-8.6,5.6-14.8,5.6H-0.1v25h-9L-9.1,36.4z M22.2,68.8
				c3.2,0.2,6.3-1.1,8.5-3.3c2.1-2.2,3.1-5.2,3.1-9c0-3.9-1-6.8-2.9-8.9s-4.9-3.1-8.7-3.1H-0.1v24.4L22.2,68.8z"/>
			<path id="Path_16545_00000035529101172323364060000008711719774037105085_" d="M86.2,36.4h50.2v7.9H95.2v20.1h37v7.9h-37v21.5
				H137v7.9H86.2V36.4z"/>
			<path id="Path_16546_00000142170313619031877290000001771759813298085768_" d="M181.1,36.4h34c6.5,0,11.5,1.7,15,5
				s5.2,7.9,5.2,13.5c0.1,4.1-1,8.1-3.2,11.5c-2.1,3.2-5.2,5.6-8.8,6.9l15,28.3h-10.1l-14.2-26.9h-24v26.9h-9V36.4z M214.6,66.9
				c3.1,0.2,6.2-1,8.5-3.1c2.1-2.1,3.1-5,3.1-8.7c0-3.4-1-6.1-3-7.9c-2-1.9-4.9-2.8-8.7-2.8h-24.4v22.5L214.6,66.9z"/>
			<path id="Path_16547_00000155825337667975447440000014543458109959998087_" d="M281.9,36.4h34c6.5,0,11.5,1.7,15,5
				c3.5,3.4,5.2,7.9,5.2,13.5c0.1,4.1-1,8.1-3.2,11.5c-2.1,3.2-5.2,5.6-8.8,6.9l15,28.3H329l-14.2-26.9h-24v26.9h-9L281.9,36.4z
				 M315.3,66.9c3.1,0.2,6.2-1,8.5-3.1c2.1-2.1,3.1-5,3.1-8.7c0-3.4-1-6.1-2.9-7.9c-2-1.9-4.9-2.8-8.7-2.8h-24.4v22.5L315.3,66.9z"
				/>
			<path id="Path_16548_00000014615257358125085140000009097207516436727468_" d="M-9.1,136.8h9v36l34.5-36h11.2l-24.8,26.1
				l25.7,39.2H35.8l-21.2-32.7l-14.6,13.7v19h-9L-9.1,136.8z"/>
			<path id="Path_16549_00000092453919089561328580000000904699913294585489_" d="M86.1,136.8h8.1l34.4,45.5l2.3,3l0.4-0.1v-48.4
				h8.5v65.3h-7.7l-34.6-46l-2.5-3.3l-0.4,0.1v49.3h-8.5V136.8z"/>
			<path id="Path_16550_00000094598064889743302910000015079771096123011492_" d="M181.2,136.8h9v65.3h-9V136.8z"/>
			<path id="Path_16551_00000072998301490147048020000017008368772000392631_" d="M241.5,194.8c-5.5-5.6-8.2-14.1-8.2-25.4
				c0-22.5,11-33.8,32.9-33.8c9,0,16.2,2,21.7,6s8.2,9.8,8.2,17.4h-9.2c0-5.3-1.8-9.2-5.5-11.8c-3.7-2.6-8.7-3.9-15.1-3.9
				c-7.9,0-13.8,2-17.7,6.1c-3.9,4.1-5.8,10.7-5.8,20v0.2c0.1,9.2,2,15.8,5.8,19.8c3.8,4,9.5,6,17.2,6c7.4,0,12.8-1.5,16.2-4.6
				c3.5-3,5.2-7.7,5.2-14v-1h-23v-7.9h32.1v34h-7l-0.7-7.2c-4.9,5.6-12.5,8.4-22.7,8.4C255.1,203.3,247,200.4,241.5,194.8z"/>
			<path id="Path_16552_00000029029372750499726320000001944965211030482864_" d="M342.8,136.8h9v28h35.6v-28h9v65.3h-9v-29.4h-35.6
				v29.4h-9L342.8,136.8z"/>
			<path id="Path_16553_00000005948557971472731840000016431007111008799413_" d="M460,144.7h-22.4v-7.9h53.9v7.9h-22.5v57.4h-9
				L460,144.7z"/>
		</g>
		<path d="M377.9,36.5v65.3h113.6V36.5H377.9z M431.7,74.6h-12v12h-11v-12h-12v-11h12v-12h11v12h12V74.6z"/>
	</g>
	<g id="Line_80_00000026150241869148198520000003587751476705606798_">
		<rect x="262.6" y="673.4" class="st0" width="500.6" height="11"/>
	</g>
</g>
</svg>
