<svg width="600" height="146" viewBox="0 0 600 146" fill="none" xmlns="http://www.w3.org/2000/svg">
<path d="M4.87303 101.121H84.1147C86.8035 101.121 88.9877 103.304 88.9877 105.994V112.429C88.9877 115.117 86.8045 117.302 84.1147 117.302H4.87202C2.18321 117.302 0 115.118 0 112.43V105.995C0 103.307 2.18321 101.121 4.87303 101.121Z" fill="#7379FD"/>
<path d="M82.8507 57.2983L62.1896 45.3691C61.5151 44.9798 61.5151 44.007 62.1896 43.6176L82.8507 31.6894C85.1815 30.3435 85.9793 27.3634 84.6344 25.0326L81.4168 19.4608C80.0708 17.1299 77.0908 16.3321 74.761 17.677L54.0999 29.6053C53.4254 29.9946 52.583 29.5082 52.583 28.7296V4.87303C52.583 2.1822 50.4019 0 47.71 0H41.2757C38.5848 0 36.4036 2.18119 36.4036 4.87202V28.7296C36.4036 29.5082 35.5613 29.9946 34.8868 29.6053L14.2257 17.677C11.8949 16.3311 8.91483 17.1299 7.56992 19.4608L4.35325 25.0326C3.00733 27.3634 3.80619 30.3435 6.13703 31.6884L26.7981 43.6166C27.4726 44.006 27.4726 44.9787 26.7981 45.3681L6.13703 57.2973C3.80619 58.6433 3.00834 61.6233 4.35325 63.9531L7.56992 69.5249C8.91584 71.8558 11.8959 72.6536 14.2257 71.3087L34.8868 59.3794C35.5613 58.9901 36.4036 59.4765 36.4036 60.2551V84.1127C36.4036 86.8035 38.5848 88.9847 41.2757 88.9847H47.71C50.4008 88.9847 52.583 86.8035 52.583 84.1117V60.2541C52.583 59.4755 53.4254 58.9891 54.0999 59.3784L74.761 71.3077C77.0918 72.6536 80.0708 71.8548 81.4168 69.5249L84.6344 63.9521C85.9804 61.6213 85.1815 58.6412 82.8507 57.2963V57.2983Z" fill="#7379FD"/>
<path d="M137.532 60.336C141.783 53.6165 150.561 48.9508 159.614 48.9508C178.128 48.9508 192.802 64.3131 192.802 83.9266C192.802 103.54 178.129 118.897 159.614 118.897C150.561 118.897 141.784 114.236 137.532 107.516V144.983C137.532 145.541 137.079 145.994 136.521 145.994H122.357C121.799 145.994 121.346 145.541 121.346 144.983V51.6103C121.346 51.0521 121.799 50.599 122.357 50.599H136.521C137.079 50.599 137.532 51.0521 137.532 51.6103V60.336ZM156.731 63.2139C145.485 63.2139 136.842 72.1318 136.842 83.9266C136.842 95.7214 145.485 104.634 156.731 104.634C168.116 104.634 176.754 95.7214 176.754 83.9266C176.754 72.1318 168.116 63.2139 156.731 63.2139Z" fill="black"/>
<path d="M254.821 93.9568C257.053 95.3948 262.904 99.1615 265.06 100.549C265.516 100.842 265.664 101.449 265.387 101.916C258.867 112.9 247.859 118.897 235.289 118.897C216.495 118.897 200.723 103.675 200.723 83.9266C200.723 64.1776 216.495 48.9508 235.014 48.9508C254.481 48.9508 268.219 64.0128 267.947 86.9026C267.941 87.4557 267.482 87.9037 266.93 87.9037H215.949C217.594 98.4648 225.686 105.05 235.288 105.05C244.223 105.05 249.258 101.144 253.404 94.2956C253.703 93.8021 254.335 93.6444 254.821 93.9568ZM216.634 76.7925H251.88C250.786 69.2488 244.885 62.6689 235.014 62.6689C226.371 62.6689 219.237 68.1547 216.634 76.7925Z" fill="black"/>
<path d="M319.409 51.5708C319.553 51.0733 319.298 50.5525 318.821 50.3523C317.382 49.7486 315.704 49.3654 313.066 49.3654C304.703 49.3654 297.984 54.4366 294.692 61.0206V51.6103C294.692 51.0521 294.239 50.5991 293.68 50.5991H279.516C278.958 50.5991 278.505 51.0521 278.505 51.6103V116.243C278.505 116.801 278.958 117.254 279.516 117.254H293.68C294.239 117.254 294.692 116.801 294.692 116.243V83.242C294.692 72.4059 301.411 65.2718 311.148 65.2718C312.292 65.2718 313.379 65.3506 314.426 65.5114C314.936 65.5893 315.426 65.2991 315.569 64.8046C316.338 62.1552 318.651 54.1798 319.409 51.5708Z" fill="black"/>
<path d="M321.891 100.327L334.013 95.9297C334.541 95.7386 335.111 96.0187 335.309 96.5445C337.501 102.334 341.895 106.284 348.139 106.284C353.075 106.284 357.601 103.266 357.601 97.7802C357.601 85.2958 324.958 93.6636 324.958 69.7989C324.958 58.2782 334.695 48.9518 348.409 48.9518C359.655 48.9518 368.09 55.0767 371.261 63.8793C371.454 64.4142 371.142 65.0028 370.599 65.1716L358.389 68.9627C357.874 69.1224 357.342 68.8353 357.158 68.3286C355.536 63.8641 352.361 61.5717 347.865 61.5717C343.614 61.5717 340.047 64.3141 340.047 68.7058C340.047 80.6361 372.965 72.4079 372.965 96.8175C372.965 109.712 361.17 118.899 347.726 118.899C335.596 118.899 324.76 112.165 321.266 101.585C321.096 101.072 321.383 100.515 321.891 100.33V100.327Z" fill="black"/>
<path d="M415.106 48.9508C434.305 48.9508 450.491 64.1776 450.491 83.9266C450.491 103.676 434.305 118.897 415.106 118.897C395.902 118.897 379.855 103.675 379.855 83.9266C379.855 64.1776 395.902 48.9508 415.106 48.9508ZM415.106 104.634C426.487 104.634 435.129 95.7214 435.129 83.9266C435.129 72.1318 426.486 63.2139 415.106 63.2139C403.86 63.2139 395.217 72.1318 395.217 83.9266C395.217 95.7214 403.86 104.634 415.106 104.634Z" fill="black"/>
<path d="M490.274 63.395C481.356 63.395 475.462 70.254 475.462 80.8111V116.284C475.462 116.843 475.009 117.296 474.451 117.296H460.287C459.729 117.296 459.276 116.843 459.276 116.284V51.6517C459.276 51.0935 459.729 50.6405 460.287 50.6405H474.451C475.009 50.6405 475.462 51.0935 475.462 51.6517V59.5534C479.849 53.3829 486.708 48.9922 496.035 48.9922C511.118 48.9922 519.896 59.4189 519.896 73.1319V116.284C519.896 116.843 519.443 117.296 518.885 117.296H504.726C504.167 117.296 503.714 116.843 503.714 116.284V77.5236C503.714 68.8808 498.779 63.396 490.275 63.396L490.274 63.395Z" fill="black"/>
<path d="M600 51.6103V116.243C600 116.801 599.547 117.254 598.989 117.254H584.825C584.267 117.254 583.814 116.801 583.814 116.243V107.517C579.702 114.237 570.924 118.898 561.871 118.898C543.357 118.898 528.679 103.541 528.679 83.9276C528.679 64.3141 543.357 48.9518 561.871 48.9518C570.924 48.9518 579.701 53.6175 583.814 60.337V51.6113C583.814 51.0531 584.267 50.6001 584.825 50.6001H598.989C599.547 50.6001 600 51.0531 600 51.6113V51.6103ZM564.615 104.634C576 104.634 584.638 95.7214 584.638 83.9266C584.638 72.1318 576 63.2139 564.615 63.2139C553.369 63.2139 544.726 72.1318 544.726 83.9266C544.726 95.7214 553.369 104.634 564.615 104.634Z" fill="black"/>
</svg>
