<?xml version="1.0" encoding="utf-8"?>
<!-- Generator: Adobe Illustrator 23.0.3, SVG Export Plug-In . SVG Version: 6.00 Build 0)  -->
<svg version="1.1" id="Layer_1" xmlns="http://www.w3.org/2000/svg" xmlns:xlink="http://www.w3.org/1999/xlink" x="0px" y="0px"
	 viewBox="0 0 400 245" style="enable-background:new 0 0 400 245;" xml:space="preserve">
<style type="text/css">
	.st0{fill-rule:evenodd;clip-rule:evenodd;fill:#EF3E42;}
</style>
<g>
	<path d="M390.5,159.9c1.2,1.2,1.9,2.9,1.9,4.7c0,1.8-0.7,3.4-1.9,4.7c-1.3,1.3-3,2-4.7,2c-1.8,0-3.4-0.7-4.7-2
		c-1.3-1.3-1.9-2.9-1.9-4.7c0-1.8,0.7-3.4,2-4.7c1.2-1.2,2.8-1.9,4.6-1.9C387.6,158,389.2,158.7,390.5,159.9z M389.9,160.5
		c-1.1-1.1-2.6-1.7-4.2-1.7c-1.6,0-3,0.6-4.1,1.7c-1.1,1.1-1.8,2.6-1.8,4.2c0,1.5,0.6,3,1.7,4.1c1.1,1.1,2.6,1.7,4.1,1.7
		c1.6,0,3-0.6,4.2-1.7c1.1-1.1,1.7-2.5,1.7-4.1C391.6,163.1,391,161.6,389.9,160.5z M389.1,162.8c0,1.1-0.7,1.8-1.8,2l1.7,3.5h-1.4
		L386,165h-1.6v3.3h-1.3v-7.6h2.8C388,160.7,389.1,161.4,389.1,162.8z M384.4,161.5v2.6h1.3c1.4,0,2-0.3,2-1.3c0-1-0.7-1.3-2.1-1.3
		H384.4z"/>
	<g>
		<polygon points="177.6,56.2 177.6,99.3 190.2,99.3 190.2,84.1 203.1,84.1 203.1,99.3 215.6,99.3 215.6,56.2 203.1,56.2 
			203.1,71.5 190.2,71.5 190.2,56.2 177.6,56.2 177.6,56.2 		"/>
		<polygon points="266.9,56.2 266.9,65.8 295.8,65.8 295.8,56.2 266.9,56.2 266.9,56.2 		"/>
		<polygon points="266.9,72.9 266.9,82.5 295.8,82.5 295.8,72.9 266.9,72.9 266.9,72.9 		"/>
		<polygon points="266.9,89.7 266.9,99.3 295.8,99.3 295.8,89.7 266.9,89.7 266.9,89.7 		"/>
		<polygon points="298.9,56.2 309.9,56.2 325.8,80 325.8,56.2 337.1,56.2 337.1,99.3 326.1,99.3 310.4,74.4 310.4,99.3 298.9,99.3 
			298.8,56.2 298.8,56.2 		"/>
		<polygon points="340.9,56.2 340.9,99.3 353.2,99.3 353.2,56.2 340.9,56.2 340.9,56.2 		"/>
		<path d="M265.3,77.8c0,12.5-10.7,22.6-23.8,22.6c-13.2,0-23.8-10.1-23.8-22.6c0-12.5,10.7-22.6,23.8-22.6
			C254.6,55.2,265.3,65.3,265.3,77.8z M241.5,67.3c-6.3,0-11.3,4.7-11.3,10.6c0,5.8,5.1,10.6,11.3,10.6c6.3,0,11.3-4.7,11.3-10.6
			C252.8,72.1,247.7,67.3,241.5,67.3z"/>
		<path d="M143,56.2L143,56.2L143,56.2h20.2H163c6.9,0,13.2,7,13.2,15.3c0,8.3-6.3,15-13.2,15h0.1l-7.7,0.1v12.8H143V56.2
			 M159.3,76.1 M159.5,76.1c2.3,0,4.2-2,4.2-4.5c0-2.5-1.9-4.5-4.2-4.5h-4.1v8.9L159.5,76.1z"/>
		<polygon points="376.1,87 384.6,99.3 396.4,99.3 396.4,99.3 397.5,99.3 382.3,77.8 397.8,56.2 384.6,56.2 376.1,68.7 366.9,56.2 
			354.5,56.2 369.6,77.8 354.6,99.3 367.7,99.3 		"/>
	</g>
	<g>
		<path d="M146.9,137.6c0.2,4,2.7,6.6,6.6,6.6c3.3,0,6.4-2.6,6.4-6.3c0-4.9-4.9-6.2-7.1-6.8c-2.9-0.9-8.2-2.1-8.2-8.4
			c0-5,3.9-8.6,8.9-8.6c5.2,0,8.8,4,8.8,8.7h-3.2c0-3.2-2.6-5.8-5.6-5.8c-3.6,0-5.7,2.8-5.7,5.6c0,3.9,3.4,4.8,7.5,6
			c7.8,2.1,7.7,8.3,7.7,9.2c0,4.9-3.9,9.4-9.5,9.4c-4.1,0-9.6-2.5-9.8-9.5H146.9z"/>
		<path d="M166.7,134.8c0-6.3,5-9.8,9.2-9.8c4,0,9.2,3.3,9.2,9.5c0,6.2-4.7,9.8-9.2,9.8C171.1,144.3,166.7,140.3,166.7,134.8z
			 M163.7,134.8c0,6.4,5.3,12.2,12.2,12.2c7,0,12.3-6,12.3-12.4c0-6.5-5.3-12.4-12.3-12.4C169.8,122.3,163.7,127.4,163.7,134.8z"/>
		<path d="M192.3,125.6h-3.6v-2.7h3.6c0.1-3.3,0.3-8.8,9-8.9v2.8c-6.1,0-6,3.9-6,6.1h6v2.7h-6v20.9h-3V125.6z"/>
		<path d="M204.6,125.6h-4.9v-2.7h4.9v-8.3h3v8.3h5.6v2.7h-5.6v20.9h-3V125.6z"/>
		<path d="M212,122.9h3.1l7.4,19.8h0.1l5.3-16.9h2.6l5.4,16.9h0.1l7.4-19.8h3.1l-8.9,23.6h-3.4l-5-15.7h-0.1l-4.9,15.7h-3.4
			L212,122.9z"/>
		<path d="M248.4,134.8c0-6,4.4-9.8,9.6-9.8c5.4,0,9.4,4.5,9.4,9.7c0,5.5-4.3,9.6-9.4,9.6C252.2,144.3,248.4,140,248.4,134.8z
			 M270.1,122.9h-3v4.1h-0.1c-2.5-3.9-6.6-4.8-9.1-4.8c-7.7,0-12.6,6-12.6,12.4c0,6.8,5.2,12.4,12.6,12.4c2.4,0,6.5-0.8,9.1-4.7h0.1
			v4.1h3V122.9z"/>
		<path d="M273.4,122.9h3v3.4h0.1c1.4-3.3,4.1-3.8,6.6-4v3.2c-2.1,0.2-3.9,1-5.1,2.3c-1,1.3-1.6,3-1.6,4.9v13.8h-3V122.9z"/>
		<path d="M285.9,133.1c0.9-5.6,5.4-8.1,9.1-8.1c3.7,0,8.2,2.5,9.2,8.1H285.9z M307.2,135.8c0.1-2.3-0.2-4.9-1.8-7.5
			c-1.7-2.9-5.3-6-10.4-6c-6.8,0.1-12.1,5.7-12.1,12.4c0,7,5.6,12.3,12.2,12.3c5.4,0,9.9-3.6,11.5-8.3h-3.2
			c-1.1,2.9-4.1,5.5-8.4,5.6c-4.6,0-8.9-3.9-9.1-8.6H307.2z"/>
	</g>
	<g>
		<path d="M142.4,157.6h3.2v32h-3.2V157.6z"/>
		<path d="M149.4,166h3v3h0.1c0.9-1.4,3.2-3.6,7.2-3.6c2.9,0,5.3,0.7,7.4,2.9c1.8,1.7,2.9,4.4,2.9,8.3v13h-3v-13
			c0-3.1-0.9-5.2-2.2-6.5c-1.6-1.6-3.8-2-5.1-2c-1.3,0-3.5,0.4-5.1,2c-1.3,1.3-2.2,3.4-2.2,6.5v13h-3V166z"/>
		<path d="M176.1,168.7h-4.9V166h4.9v-8.3h3v8.3h5.6v2.7h-5.6v20.9h-3V168.7z"/>
		<path d="M187.7,176.1c0.9-5.6,5.4-8.1,9.1-8.1c3.7,0,8.2,2.5,9.2,8.1H187.7z M209,178.9c0.1-2.3-0.2-4.9-1.8-7.5
			c-1.7-2.9-5.3-6-10.4-6c-6.8,0.1-12.1,5.7-12.1,12.4c0,7,5.6,12.4,12.2,12.4c5.4,0,9.9-3.6,11.5-8.3h-3.2
			c-1.1,2.9-4.1,5.5-8.4,5.6c-4.6,0-8.9-3.9-9.1-8.6H209z"/>
		<path d="M211.4,166h3v3.4h0.1c1.4-3.3,4.1-3.8,6.6-4v3.2c-2.1,0.2-3.9,1-5,2.3c-1,1.3-1.6,3-1.6,4.9v13.8h-3V166z"/>
		<path d="M223,166h3v3h0.1c0.9-1.4,3.2-3.6,7.2-3.6c2.9,0,5.3,0.7,7.4,2.9c1.8,1.7,2.9,4.4,2.9,8.3v13h-3v-13
			c0-3.1-0.9-5.2-2.2-6.5c-1.6-1.6-3.8-2-5.1-2c-1.3,0-3.5,0.4-5.1,2c-1.3,1.3-2.2,3.4-2.2,6.5v13h-3V166z"/>
		<path d="M249,177.8c0-6,4.4-9.8,9.6-9.8c5.4,0,9.4,4.5,9.4,9.7c0,5.5-4.3,9.6-9.4,9.6C252.8,187.4,249,183.1,249,177.8z
			 M270.8,166h-3v4.1h-0.1c-2.5-3.9-6.6-4.8-9.1-4.8c-7.7,0-12.6,6-12.6,12.3c0,6.8,5.2,12.4,12.6,12.4c2.4,0,6.5-0.8,9.1-4.7h0.1
			v4.1h3V166z"/>
		<path d="M276.8,168.7h-4.9V166h4.9v-8.3h3v8.3h5.6v2.7h-5.6v20.9h-3V168.7z"/>
		<path d="M286.4,166h3v23.6h-3V166z M286.4,157.6h3v5.4h-3V157.6z"/>
		<path d="M294.8,177.9c0-6.3,5-9.8,9.2-9.8c4,0,9.2,3.3,9.2,9.5c0,6.2-4.7,9.8-9.2,9.8C299.3,187.4,294.8,183.4,294.8,177.9z
			 M291.9,177.9c0,6.4,5.3,12.2,12.2,12.2c7,0,12.3-6,12.3-12.4c0-6.5-5.3-12.4-12.3-12.4C297.9,165.4,291.9,170.4,291.9,177.9z"/>
		<path d="M318.7,166h3v3h0.1c0.9-1.4,3.2-3.6,7.2-3.6c2.9,0,5.3,0.7,7.4,2.9c1.8,1.7,2.9,4.4,2.9,8.3v13h-3v-13
			c0-3.1-0.9-5.2-2.2-6.5c-1.6-1.6-3.8-2-5.1-2c-1.3,0-3.5,0.4-5.1,2c-1.3,1.3-2.2,3.4-2.2,6.5v13h-3V166z"/>
		<path d="M344.7,177.8c0-6,4.4-9.8,9.6-9.8c5.4,0,9.4,4.5,9.4,9.7c0,5.5-4.3,9.6-9.4,9.6C348.5,187.4,344.7,183.1,344.7,177.8z
			 M366.4,166h-3v4.1h-0.1c-2.5-3.9-6.6-4.8-9.1-4.8c-7.7,0-12.6,6-12.6,12.3c0,6.8,5.2,12.4,12.6,12.4c2.4,0,6.5-0.8,9.1-4.7h0.1
			v4.1h3V166z"/>
		<path d="M369.7,157.6h3v32h-3V157.6z"/>
	</g>
	<path class="st0" d="M2.4,113.4l-0.2,6.8L44,63.5h71.6c0,0-3.7-3.4-9.2-5.7c-5.5-2.3-9.1-2.6-9.9-2.8c-2.6-0.7-51-0.2-51-0.2
		L2.4,113.4z"/>
	<path class="st0" d="M121.1,68.7l-75.7-0.1l-43,58.3v7.1l41.5-56.4l83,0.1c0,0-1.3-2.7-2.9-5.3C122.4,69.9,121.1,68.7,121.1,68.7z"
		/>
	<path class="st0" d="M43.9,91.9L2.8,147.8l0.1-7.1L45.1,83l83.9,0c0,0,0.3,1.3,0.9,3.9c0.7,3.7,0.6,4.9,0.6,4.9L43.9,91.9z"/>
	<path class="st0" d="M43.7,106L2.9,161.6L2.8,155l42.9-58.2l85,0.1c0,0,0.1,0.6-0.5,4.8c-0.5,3.1-1.2,4.2-1.2,4.2L43.7,106z"/>
	<path class="st0" d="M121.2,120.1l-77.3,0L3,175.3l-0.1-6.4l42.4-57.8l81.7,0c0,0-0.9,2-2.5,4.7
		C122.9,118.4,121.2,120.1,121.2,120.1z"/>
	<path class="st0" d="M43.7,134.3L2.9,189.7l0.1-6.9l42.2-57.6l70.5-0.1c0,0-2.7,3.3-9.3,5.9c-6.6,2.6-8.4,2.6-10,2.8
		C94.8,134.1,43.7,134.3,43.7,134.3z"/>
	<path d="M25.6,179.1c1.2,1.2,1.9,2.9,1.9,4.7c0,1.8-0.7,3.4-1.9,4.7c-1.3,1.3-3,2-4.7,2c-1.8,0-3.4-0.7-4.7-2
		c-1.3-1.3-1.9-2.9-1.9-4.7c0-1.8,0.7-3.4,2-4.7c1.2-1.2,2.8-1.9,4.6-1.9C22.7,177.1,24.3,177.8,25.6,179.1z M25.1,179.6
		c-1.1-1.1-2.6-1.7-4.2-1.7c-1.6,0-3,0.6-4.1,1.7c-1.1,1.1-1.8,2.6-1.8,4.2c0,1.5,0.6,3,1.7,4.1c1.1,1.1,2.6,1.7,4.1,1.7
		c1.6,0,3-0.6,4.2-1.7c1.1-1.1,1.7-2.5,1.7-4.1C26.7,182.2,26.2,180.7,25.1,179.6z M24.2,181.9c0,1.1-0.7,1.8-1.8,2l1.7,3.5h-1.4
		l-1.6-3.3h-1.6v3.3h-1.3v-7.6h2.8C23.2,179.9,24.2,180.5,24.2,181.9z M19.5,180.7v2.6h1.3c1.4,0,2-0.3,2-1.3c0-1-0.7-1.3-2.1-1.3
		H19.5z"/>
</g>
</svg>
