<svg width="770" height="164" viewBox="0 0 770 164" fill="none" xmlns="http://www.w3.org/2000/svg">
<path d="M160 128H96V5.45508C96 5.2201 95.6651 5.17773 95.6064 5.40527L64 128H0L33 0H160V128Z" fill="#1C1917"/>
<path d="M455.302 105.353L476.802 35.6523H502.743L465.43 137.617C462.35 146.293 458.44 152.829 453.702 157.227C449.082 161.742 442.449 164 433.802 164H411.769V144.392H426.694C431.195 144.392 434.275 143.619 435.934 142.074C437.71 140.648 439.369 137.677 440.909 133.161L442.33 129.417L407.326 35.6523H433.446L455.302 105.353Z" fill="#1C1917"/>
<path d="M543.7 33.5127C556.967 33.5127 567.096 36.365 574.085 42.0693C581.074 47.6548 584.687 55.3795 584.924 65.2432H562.535C562.298 55.3796 556.02 50.4482 543.7 50.4482C539.081 50.4483 535.29 51.3396 532.329 53.1221C529.486 54.9047 528.064 57.3408 528.064 60.4307C528.064 62.6883 528.657 64.5301 529.841 65.9561C531.144 67.2632 533.335 68.452 536.415 69.5215C539.613 70.4722 544.293 71.4233 550.453 72.374C559.811 73.9189 567.155 75.9989 572.485 78.6133C577.934 81.1089 581.725 84.2578 583.857 88.0605C586.108 91.7445 587.233 96.2607 587.233 101.608C587.233 110.759 583.383 117.89 575.684 123C568.102 127.991 558.034 130.487 545.478 130.487C518.114 130.487 503.781 119.613 502.478 97.8652H525.932C526.524 103.57 528.479 107.61 531.796 109.987C535.231 112.364 540.088 113.552 546.366 113.552C551.46 113.552 555.546 112.66 558.626 110.878C561.706 108.976 563.246 106.422 563.246 103.213C563.246 100.955 562.713 99.1724 561.646 97.8652C560.699 96.5581 558.745 95.3693 555.783 94.2998C552.822 93.2303 548.202 92.1613 541.924 91.0918C527.946 88.715 518.173 85.209 512.605 80.5742C507.157 75.9395 504.432 69.6408 504.432 61.6787C504.432 52.8846 507.926 45.9913 514.915 41C522.022 36.0088 531.618 33.5127 543.7 33.5127Z" fill="#1C1917"/>
<path d="M673.763 33.5127C686.319 33.5128 696.328 36.7215 703.791 43.1387C711.372 49.556 715.874 58.2318 717.296 69.165H693.13C692.182 64.2927 689.991 60.4901 686.556 57.7568C683.12 54.9047 678.856 53.4786 673.763 53.4785C666.655 53.4785 661.265 56.0334 657.593 61.1436C654.039 66.2537 652.263 73.2059 652.263 82C652.263 90.7941 654.039 97.7463 657.593 102.856C661.265 107.967 666.655 110.521 673.763 110.521C679.093 110.521 683.417 109.036 686.733 106.065C690.05 103.095 692.182 98.8756 693.13 93.4092H717.296C715.874 104.58 711.372 113.552 703.791 120.326C696.21 127.1 686.2 130.487 673.763 130.487C664.286 130.487 656.053 128.407 649.064 124.248C642.194 119.97 636.922 114.205 633.25 106.956C629.578 99.588 627.742 91.2694 627.742 82C627.742 72.7304 629.578 64.471 633.25 57.2217C636.922 49.8536 642.194 44.0901 649.064 39.9307C656.053 35.6525 664.286 33.5127 673.763 33.5127Z" fill="#1C1917"/>
<path d="M749.211 101.431C749.211 104.402 749.862 106.6 751.165 108.026C752.468 109.334 754.719 109.987 757.917 109.987H770V128H746.389C740.5 128 735.222 125.733 731.798 123.179C727.297 119.613 725.046 113.195 725.046 103.926V0H749.211V101.431Z" fill="#1C1917"/>
<path d="M618.274 128H594.109V35.6523H618.274V128Z" fill="#1C1917"/>
<path fill-rule="evenodd" clip-rule="evenodd" d="M262.55 0C272.737 3.44873e-05 281.384 1.84242 288.491 5.52637C295.599 9.09152 300.93 14.0229 304.483 20.3213C308.156 26.6198 309.991 33.8104 309.991 41.8916C309.991 49.9725 308.155 57.2214 304.483 63.6387C300.93 69.9372 295.599 74.9292 288.491 78.6133C281.384 82.1783 272.737 83.9609 262.55 83.9609H233.942V128H208V0H262.55ZM233.942 61.5H261.128C268.709 61.5 274.395 59.8362 278.186 56.5088C281.976 53.0625 283.872 48.19 283.872 41.8916C283.872 35.593 281.976 30.7797 278.186 27.4521C274.395 24.1247 268.709 22.4609 261.128 22.4609H233.942V61.5Z" fill="#1C1917"/>
<path d="M343.234 47.5957C350.579 38.2074 360.115 33.5127 371.842 33.5127C382.266 33.5128 390.321 36.7812 396.007 43.3174C401.811 49.8536 404.714 58.9454 404.714 70.5918V128H380.548V73.4434C380.548 67.6202 379.185 63.0453 376.461 59.7178C373.855 56.2714 369.591 54.5479 363.668 54.5479C358.456 54.5479 353.777 56.3902 349.631 60.0742C345.485 63.7583 343.412 69.5817 343.412 77.5439H343.234V128H319.069V0H343.234V47.5957Z" fill="#1C1917"/>
<path d="M618.274 21.5693H594.109V0H618.274V21.5693Z" fill="#1C1917"/>
</svg>
