<svg version="1.1" id="Layer_1" xmlns="http://www.w3.org/2000/svg" xmlns:xlink="http://www.w3.org/1999/xlink" x="0px" y="0px"
	 width="100%" viewBox="0 0 794 794" enable-background="new 0 0 794 794" xml:space="preserve">
<path fill="#FFFFFF" opacity="1.000000" stroke="none" 
	d="
M442.000000,795.000000 
	C294.666656,795.000000 147.833328,795.000000 1.000000,795.000000 
	C1.000000,530.333313 1.000000,265.666656 1.000000,1.000000 
	C265.666656,1.000000 530.333313,1.000000 795.000000,1.000000 
	C795.000000,265.666656 795.000000,530.333313 795.000000,795.000000 
	C677.500000,795.000000 560.000000,795.000000 442.000000,795.000000 
M717.314758,259.682434 
	C717.925415,259.707764 718.536011,259.733093 719.146606,259.758453 
	C718.760254,259.178162 718.373840,258.597900 717.636841,257.453522 
	C656.486206,196.309738 595.352539,135.148926 534.099060,74.108383 
	C532.346313,72.361740 529.322266,70.966209 526.888123,70.961731 
	C440.412445,70.802322 353.936401,70.827965 267.460419,70.839432 
	C266.146606,70.839600 264.832825,70.987015 262.257080,71.141296 
	C310.785767,89.464310 358.008331,107.224785 405.176788,125.127762 
	C437.172607,137.271881 469.446442,148.778046 500.955017,162.086853 
	C538.742310,178.047668 575.841003,195.637665 613.250977,212.493286 
	C647.779663,228.050690 682.325562,243.569885 717.314758,259.682434 
M720.944824,264.395325 
	C720.885864,263.324402 720.826904,262.253448 720.700134,259.950104 
	C719.910400,262.385254 719.483032,263.703033 718.754517,265.679321 
	C701.166443,312.122040 683.613281,358.578033 665.977905,405.002777 
	C654.183044,436.052551 643.489624,467.592041 630.167786,497.976013 
	C598.886230,569.321777 566.321533,640.104919 534.285767,711.120056 
	C533.459229,712.952087 532.744019,714.834290 531.976929,716.693115 
	C532.728210,717.311096 533.479553,717.929138 534.230835,718.547180 
	C535.087219,716.900330 535.598572,714.909180 536.849365,713.656006 
	C596.280579,654.109741 655.776917,594.628540 715.258240,535.132324 
	C716.898254,533.491821 718.453918,531.766968 720.541199,529.891602 
	C720.593933,529.580200 720.646606,529.268738 720.821045,528.033081 
	C720.827698,457.211639 720.841919,386.390228 720.835510,315.568787 
	C720.834045,298.740021 720.763733,281.911255 720.944824,264.395325 
M74.799591,530.416199 
	C74.352303,530.379944 73.905014,530.343750 73.457726,530.307556 
	C73.778809,530.750366 74.099892,531.193237 74.815163,532.159424 
	C136.319931,593.685120 197.805771,655.229797 259.427338,716.638306 
	C261.146362,718.351379 264.316467,719.420410 266.812164,719.424500 
	C352.644531,719.566772 438.477173,719.543945 524.309753,719.544800 
	C525.989929,719.544861 527.670105,719.544861 529.350281,719.544861 
	C528.053711,718.302734 526.734558,717.637207 525.360474,717.117188 
	C480.293915,700.064148 435.212891,683.049377 390.154144,665.975708 
	C358.608337,654.022339 326.583313,643.163086 295.670746,629.745300 
	C235.918381,603.809509 176.810410,576.389893 117.412888,549.635193 
	C103.341805,543.297058 89.182037,537.155884 74.799591,530.416199 
M103.664963,229.164841 
	C97.656120,235.173935 92.192001,241.890060 85.516151,247.033417 
	C74.322090,255.657791 70.482056,266.131378 71.712013,280.161713 
	C72.984940,294.682037 71.995239,309.400757 71.995239,323.857178 
	C72.671654,324.173889 72.967842,324.433716 73.264496,324.434265 
	C97.924538,324.478851 122.584999,324.556641 147.243607,324.380371 
	C148.553375,324.371002 150.451981,322.452087 151.049866,320.999573 
	C154.590073,312.398834 157.422272,303.491364 161.229904,295.018433 
	C190.786774,229.246841 220.512344,163.551071 250.185074,97.831558 
	C253.843872,89.727989 257.498840,81.622673 261.155579,73.518173 
	C260.803528,73.255592 260.451508,72.993011 260.099457,72.730438 
	C208.121155,124.708420 156.142838,176.686401 103.664963,229.164841 
M435.934418,424.539764 
	C437.297211,420.231415 438.660004,415.923065 440.022827,411.614716 
	C440.370972,411.692871 440.719147,411.771057 441.067291,411.849243 
	C441.067291,438.402191 441.067291,464.955139 441.067291,491.546722 
	C452.995819,491.546722 464.551361,491.546722 476.097565,491.546722 
	C476.097565,452.053253 476.097565,412.862335 476.097565,373.478455 
	C461.016846,373.478455 446.360260,373.391205 431.708893,373.628876 
	C430.408356,373.649963 428.438232,375.553314 427.965790,376.976410 
	C421.172058,397.441254 414.580994,417.973419 407.945007,438.490601 
	C407.316986,440.432312 406.714325,442.382233 405.814728,445.231506 
	C405.029175,443.209656 404.629486,442.298431 404.316589,441.358337 
	C397.243805,420.108978 390.100342,398.882446 383.199371,377.577393 
	C382.128235,374.270569 380.611603,373.296448 377.228607,373.392303 
	C368.239532,373.646973 359.238373,373.477356 350.242035,373.476807 
	C344.623260,373.476471 339.004456,373.476746 333.415649,373.476746 
	C333.415649,413.212494 333.415649,452.298462 333.415649,491.615692 
	C342.765137,491.615692 351.853149,491.615692 361.523254,491.615692 
	C361.523254,478.381287 361.523254,465.262665 361.523254,452.144043 
	C361.523254,439.195435 361.523254,426.246826 361.523254,413.298218 
	C363.126434,414.743988 363.579224,416.280518 364.107208,417.790802 
	C372.320312,441.286102 380.503174,464.792206 388.860046,488.236328 
	C389.379089,489.692535 391.232086,491.615082 392.551483,491.685303 
	C399.183502,492.038177 405.844452,491.847198 412.932007,491.847198 
	C420.573853,469.569885 428.163055,447.446106 435.934418,424.539764 
M554.721985,371.482666 
	C552.234375,371.652161 549.734253,371.715851 547.261169,372.008270 
	C530.231873,374.021545 514.813721,379.894958 503.206329,392.904968 
	C477.577026,421.631256 486.088409,466.116913 520.424927,484.156891 
	C545.514099,497.338440 571.281738,495.288757 597.518250,487.562408 
	C597.518250,479.096863 597.518250,470.944519 597.518250,462.792175 
	C597.518250,454.514404 597.518250,446.236633 597.518250,437.725586 
	C585.391785,437.725586 573.811951,437.725586 561.847656,437.725586 
	C561.847656,447.884216 561.847656,457.830322 561.847656,469.287567 
	C556.464905,468.365845 551.418152,468.296661 546.993958,466.602112 
	C530.592346,460.320038 522.440369,441.264526 527.164673,421.419739 
	C531.054382,405.080750 545.769836,394.863373 563.583557,396.262970 
	C569.006042,396.689056 574.403259,397.435638 579.862976,398.041077 
	C582.746094,391.131042 585.548401,384.414795 588.528992,377.271149 
	C577.732178,373.130341 566.881104,371.292053 554.721985,371.482666 
M108.005890,418.500000 
	C108.005890,411.050293 108.005890,403.600616 108.005890,395.866150 
	C112.106384,395.866150 115.740730,395.747925 119.364754,395.890991 
	C126.670441,396.179443 131.860962,399.511566 133.619324,404.851349 
	C135.709702,411.199402 133.532288,419.336487 127.752319,423.134918 
	C123.598366,425.864777 118.648155,427.382935 113.415634,429.727264 
	C113.415634,435.314667 113.415634,442.051819 113.415634,449.070770 
	C117.465996,449.070770 121.286720,449.333801 125.060760,449.025391 
	C141.676895,447.667572 155.032806,440.581940 163.669662,425.953247 
	C173.074615,410.023621 169.469864,389.594818 154.931625,381.435333 
	C148.052597,377.574524 139.772720,374.759064 131.960648,374.298065 
	C112.701241,373.161469 93.345360,373.654785 74.028023,373.528625 
	C73.443130,373.524811 72.855652,373.918152 72.501984,374.043732 
	C72.501984,413.407410 72.501984,452.477814 72.501984,491.600922 
	C84.437523,491.600922 96.024971,491.600922 108.005890,491.600922 
	C108.005890,467.406738 108.005890,443.453369 108.005890,418.500000 
M227.992096,408.533783 
	C218.114594,434.004181 224.744385,461.062683 245.238983,477.552979 
	C260.306824,489.676788 278.070068,494.177521 296.988708,493.536774 
	C305.921204,493.234222 314.783600,490.862213 324.153137,489.351227 
	C321.425171,480.685944 319.151947,473.465057 317.111603,466.983978 
	C308.607422,467.579742 300.596222,469.234833 292.819336,468.478973 
	C270.203796,466.280884 257.582367,448.637329 261.334991,425.772552 
	C264.613617,405.795807 279.291168,394.508240 299.595825,396.396027 
	C304.540192,396.855743 309.471832,397.452667 314.815094,398.030365 
	C317.632050,391.320770 320.494385,384.503143 323.461975,377.434814 
	C321.952026,376.827118 320.769989,376.281494 319.543304,375.868561 
	C307.205017,371.715424 294.503113,370.350525 281.654449,372.070984 
	C258.097565,375.225311 238.960724,385.296387 227.992096,408.533783 
M211.525177,455.500275 
	C211.525177,428.254852 211.525177,401.009430 211.525177,373.813232 
	C199.218552,373.813232 187.652328,373.813232 176.069397,373.813232 
	C176.069397,413.240021 176.069397,452.327850 176.069397,491.611542 
	C187.887558,491.611542 199.455902,491.611542 211.525146,491.611542 
	C211.525146,479.754578 211.525146,468.127441 211.525177,455.500275 
M613.780334,374.322083 
	C608.158813,381.654907 607.556458,389.763885 612.136963,396.446625 
	C616.611511,402.974854 624.890503,405.837311 632.362549,403.439667 
	C639.596558,401.118439 644.381836,394.847809 644.864990,387.056458 
	C645.265381,380.598389 640.959229,373.286041 635.003540,370.310638 
	C628.263977,366.943604 620.787659,368.204742 613.780334,374.322083 
z"/>
<path fill="#1D2F84" opacity="1.000000" stroke="none" 
	d="
M75.063072,530.924072 
	C89.182037,537.155884 103.341805,543.297058 117.412888,549.635193 
	C176.810410,576.389893 235.918381,603.809509 295.670746,629.745300 
	C326.583313,643.163086 358.608337,654.022339 390.154144,665.975708 
	C435.212891,683.049377 480.293915,700.064148 525.360474,717.117188 
	C526.734558,717.637207 528.053711,718.302734 529.350281,719.544861 
	C527.670105,719.544861 525.989929,719.544861 524.309753,719.544800 
	C438.477173,719.543945 352.644531,719.566772 266.812164,719.424500 
	C264.316467,719.420410 261.146362,718.351379 259.427338,716.638306 
	C197.805771,655.229797 136.319931,593.685120 74.784218,531.724792 
	C74.753273,531.290161 75.063072,530.924072 75.063072,530.924072 
z"/>
<path fill="#1C2E83" opacity="1.000000" stroke="none" 
	d="
M720.048889,530.081482 
	C718.453918,531.766968 716.898254,533.491821 715.258240,535.132324 
	C655.776917,594.628540 596.280579,654.109741 536.849365,713.656006 
	C535.598572,714.909180 535.087219,716.900330 534.230835,718.547180 
	C533.479553,717.929138 532.728210,717.311096 531.976929,716.693115 
	C532.744019,714.834290 533.459229,712.952087 534.285767,711.120056 
	C566.321533,640.104919 598.886230,569.321777 630.167786,497.976013 
	C643.489624,467.592041 654.183044,436.052551 665.977905,405.002777 
	C683.613281,358.578033 701.166443,312.122040 719.183899,265.338867 
	C719.983887,265.026428 720.354553,265.054474 720.725159,265.082520 
	C720.763733,281.911255 720.834045,298.740021 720.835510,315.568787 
	C720.841919,386.390228 720.827698,457.211639 720.558105,528.616089 
	C720.071045,529.453552 719.988892,529.747681 720.048889,530.081482 
z"/>
<path fill="#1C2E83" opacity="1.000000" stroke="none" 
	d="
M716.863892,259.105896 
	C682.325562,243.569885 647.779663,228.050690 613.250977,212.493286 
	C575.841003,195.637665 538.742310,178.047668 500.955017,162.086853 
	C469.446442,148.778046 437.172607,137.271881 405.176788,125.127762 
	C358.008331,107.224785 310.785767,89.464310 262.257080,71.141296 
	C264.832825,70.987015 266.146606,70.839600 267.460419,70.839432 
	C353.936401,70.827965 440.412445,70.802322 526.888123,70.961731 
	C529.322266,70.966209 532.346313,72.361740 534.099060,74.108383 
	C595.352539,135.148926 656.486206,196.309738 717.685730,257.971375 
	C717.444397,258.694794 717.154114,258.900330 716.863892,259.105896 
z"/>
<path fill="#1D2F84" opacity="1.000000" stroke="none" 
	d="
M103.914749,228.914612 
	C156.142838,176.686401 208.121155,124.708420 260.099457,72.730438 
	C260.451508,72.993011 260.803528,73.255592 261.155579,73.518173 
	C257.498840,81.622673 253.843872,89.727989 250.185074,97.831558 
	C220.512344,163.551071 190.786774,229.246841 161.229904,295.018433 
	C157.422272,303.491364 154.590073,312.398834 151.049866,320.999573 
	C150.451981,322.452087 148.553375,324.371002 147.243607,324.380371 
	C122.584999,324.556641 97.924538,324.478851 73.264496,324.434265 
	C72.967842,324.433716 72.671654,324.173889 71.995239,323.857178 
	C71.995239,309.400757 72.984940,294.682037 71.712013,280.161713 
	C70.482056,266.131378 74.322090,255.657791 85.516151,247.033417 
	C92.192001,241.890060 97.656120,235.173935 103.914749,228.914612 
z"/>
<path fill="#050505" opacity="1.000000" stroke="none" 
	d="
M435.843323,424.931030 
	C428.163055,447.446106 420.573853,469.569885 412.932007,491.847198 
	C405.844452,491.847198 399.183502,492.038177 392.551483,491.685303 
	C391.232086,491.615082 389.379089,489.692535 388.860046,488.236328 
	C380.503174,464.792206 372.320312,441.286102 364.107208,417.790802 
	C363.579224,416.280518 363.126434,414.743988 361.523254,413.298218 
	C361.523254,426.246826 361.523254,439.195435 361.523254,452.144043 
	C361.523254,465.262665 361.523254,478.381287 361.523254,491.615692 
	C351.853149,491.615692 342.765137,491.615692 333.415649,491.615692 
	C333.415649,452.298462 333.415649,413.212494 333.415649,373.476746 
	C339.004456,373.476746 344.623260,373.476471 350.242035,373.476807 
	C359.238373,373.477356 368.239532,373.646973 377.228607,373.392303 
	C380.611603,373.296448 382.128235,374.270569 383.199371,377.577393 
	C390.100342,398.882446 397.243805,420.108978 404.316589,441.358337 
	C404.629486,442.298431 405.029175,443.209656 405.814728,445.231506 
	C406.714325,442.382233 407.316986,440.432312 407.945007,438.490601 
	C414.580994,417.973419 421.172058,397.441254 427.965790,376.976410 
	C428.438232,375.553314 430.408356,373.649963 431.708893,373.628876 
	C446.360260,373.391205 461.016846,373.478455 476.097565,373.478455 
	C476.097565,412.862335 476.097565,452.053253 476.097565,491.546722 
	C464.551361,491.546722 452.995819,491.546722 441.067291,491.546722 
	C441.067291,464.955139 441.067291,438.402191 441.067291,411.849243 
	C440.719147,411.771057 440.370972,411.692871 440.022827,411.614716 
	C438.660004,415.923065 437.297211,420.231415 435.843323,424.931030 
z"/>
<path fill="#030303" opacity="1.000000" stroke="none" 
	d="
M555.184998,371.482422 
	C566.881104,371.292053 577.732178,373.130341 588.528992,377.271149 
	C585.548401,384.414795 582.746094,391.131042 579.862976,398.041077 
	C574.403259,397.435638 569.006042,396.689056 563.583557,396.262970 
	C545.769836,394.863373 531.054382,405.080750 527.164673,421.419739 
	C522.440369,441.264526 530.592346,460.320038 546.993958,466.602112 
	C551.418152,468.296661 556.464905,468.365845 561.847656,469.287567 
	C561.847656,457.830322 561.847656,447.884216 561.847656,437.725586 
	C573.811951,437.725586 585.391785,437.725586 597.518250,437.725586 
	C597.518250,446.236633 597.518250,454.514404 597.518250,462.792175 
	C597.518250,470.944519 597.518250,479.096863 597.518250,487.562408 
	C571.281738,495.288757 545.514099,497.338440 520.424927,484.156891 
	C486.088409,466.116913 477.577026,421.631256 503.206329,392.904968 
	C514.813721,379.894958 530.231873,374.021545 547.261169,372.008270 
	C549.734253,371.715851 552.234375,371.652161 555.184998,371.482422 
z"/>
<path fill="#030303" opacity="1.000000" stroke="none" 
	d="
M108.005890,419.000000 
	C108.005890,443.453369 108.005890,467.406738 108.005890,491.600922 
	C96.024971,491.600922 84.437523,491.600922 72.501984,491.600922 
	C72.501984,452.477814 72.501984,413.407410 72.501984,374.043732 
	C72.855652,373.918152 73.443130,373.524811 74.028023,373.528625 
	C93.345360,373.654785 112.701241,373.161469 131.960648,374.298065 
	C139.772720,374.759064 148.052597,377.574524 154.931625,381.435333 
	C169.469864,389.594818 173.074615,410.023621 163.669662,425.953247 
	C155.032806,440.581940 141.676895,447.667572 125.060760,449.025391 
	C121.286720,449.333801 117.465996,449.070770 113.415634,449.070770 
	C113.415634,442.051819 113.415634,435.314667 113.415634,429.727264 
	C118.648155,427.382935 123.598366,425.864777 127.752319,423.134918 
	C133.532288,419.336487 135.709702,411.199402 133.619324,404.851349 
	C131.860962,399.511566 126.670441,396.179443 119.364754,395.890991 
	C115.740730,395.747925 112.106384,395.866150 108.005890,395.866150 
	C108.005890,403.600616 108.005890,411.050293 108.005890,419.000000 
z"/>
<path fill="#030303" opacity="1.000000" stroke="none" 
	d="
M228.135834,408.179565 
	C238.960724,385.296387 258.097565,375.225311 281.654449,372.070984 
	C294.503113,370.350525 307.205017,371.715424 319.543304,375.868561 
	C320.769989,376.281494 321.952026,376.827118 323.461975,377.434814 
	C320.494385,384.503143 317.632050,391.320770 314.815094,398.030365 
	C309.471832,397.452667 304.540192,396.855743 299.595825,396.396027 
	C279.291168,394.508240 264.613617,405.795807 261.334991,425.772552 
	C257.582367,448.637329 270.203796,466.280884 292.819336,468.478973 
	C300.596222,469.234833 308.607422,467.579742 317.111603,466.983978 
	C319.151947,473.465057 321.425171,480.685944 324.153137,489.351227 
	C314.783600,490.862213 305.921204,493.234222 296.988708,493.536774 
	C278.070068,494.177521 260.306824,489.676788 245.238983,477.552979 
	C224.744385,461.062683 218.114594,434.004181 228.135834,408.179565 
z"/>
<path fill="#050505" opacity="1.000000" stroke="none" 
	d="
M211.525162,456.000305 
	C211.525146,468.127441 211.525146,479.754578 211.525146,491.611542 
	C199.455902,491.611542 187.887558,491.611542 176.069397,491.611542 
	C176.069397,452.327850 176.069397,413.240021 176.069397,373.813232 
	C187.652328,373.813232 199.218552,373.813232 211.525177,373.813232 
	C211.525177,401.009430 211.525177,428.254852 211.525162,456.000305 
z"/>
<path fill="#101010" opacity="1.000000" stroke="none" 
	d="
M614.035156,374.063416 
	C620.787659,368.204742 628.263977,366.943604 635.003540,370.310638 
	C640.959229,373.286041 645.265381,380.598389 644.864990,387.056458 
	C644.381836,394.847809 639.596558,401.118439 632.362549,403.439667 
	C624.890503,405.837311 616.611511,402.974854 612.136963,396.446625 
	C607.556458,389.763885 608.158813,381.654907 614.035156,374.063416 
M635.735352,396.972961 
	C641.910767,389.906250 641.667603,380.789001 635.159119,375.369904 
	C629.432617,370.601929 621.525696,371.635345 616.631531,377.577332 
	C612.422302,382.687744 612.391968,394.063141 620.447327,398.675842 
	C625.640625,400.913300 630.673279,401.800781 635.735352,396.972961 
z"/>
<path fill="#5462A1" opacity="1.000000" stroke="none" 
	d="
M720.834961,264.738922 
	C720.354553,265.054474 719.983887,265.026428 719.334473,265.009644 
	C719.483032,263.703033 719.910400,262.385254 720.700134,259.950104 
	C720.826904,262.253448 720.885864,263.324402 720.834961,264.738922 
z"/>
<path fill="#5462A1" opacity="1.000000" stroke="none" 
	d="
M717.089355,259.394165 
	C717.154114,258.900330 717.444397,258.694794 717.861023,258.253448 
	C718.373840,258.597900 718.760254,259.178162 719.146606,259.758423 
	C718.536011,259.733093 717.925415,259.707764 717.089355,259.394165 
z"/>
<path fill="#1D2F84" opacity="1.000000" stroke="none" 
	d="
M74.587128,531.463135 
	C74.099892,531.193237 73.778809,530.750366 73.457726,530.307556 
	C73.905014,530.343750 74.352303,530.379944 74.931335,530.670166 
	C75.063072,530.924072 74.753273,531.290161 74.587128,531.463135 
z"/>
<path fill="#5462A1" opacity="1.000000" stroke="none" 
	d="
M720.295044,529.986572 
	C719.988892,529.747681 720.071045,529.453552 720.497314,529.078247 
	C720.646606,529.268738 720.593933,529.580200 720.295044,529.986572 
z"/>
<path fill="#EAEAEA" opacity="1.000000" stroke="none" 
	d="
M619.980042,398.058594 
	C612.391968,394.063141 612.422302,382.687744 616.631531,377.577332 
	C621.525696,371.635345 629.432617,370.601929 635.159119,375.369904 
	C641.667603,380.789001 641.910767,389.906250 635.402405,396.980652 
	C635.069458,396.988342 635.055481,397.054779 634.939087,396.677460 
	C634.054016,392.979187 633.285400,389.658234 632.516785,386.337250 
	C633.670105,383.911194 634.391357,381.134735 633.541382,378.977203 
	C632.340515,375.928650 625.594666,375.516693 620.031677,377.474915 
	C620.031677,384.008331 620.031677,390.455048 620.016602,397.190918 
	C619.994446,397.672852 619.987244,397.865723 619.980042,398.058594 
z"/>
<path fill="#F3F3F3" opacity="1.000000" stroke="none" 
	d="
M620.213684,398.367218 
	C619.987244,397.865723 619.994446,397.672852 620.443237,397.164368 
	C627.591614,396.731781 621.854248,391.018097 624.894165,388.925323 
	C630.911621,387.733307 628.659180,393.886780 630.737244,396.587860 
	C632.123108,396.737701 633.589294,396.896240 635.055481,397.054779 
	C635.055481,397.054779 635.069458,396.988342 635.045654,396.964752 
	C630.673279,401.800781 625.640625,400.913300 620.213684,398.367218 
z"/>
<path fill="#0D0D0D" opacity="1.000000" stroke="none" 
	d="
M634.939087,396.677460 
	C633.589294,396.896240 632.123108,396.737701 630.737244,396.587860 
	C628.659180,393.886780 630.911621,387.733307 624.894165,388.925323 
	C621.854248,391.018097 627.591614,396.731781 620.458313,396.875275 
	C620.031677,390.455048 620.031677,384.008331 620.031677,377.474915 
	C625.594666,375.516693 632.340515,375.928650 633.541382,378.977203 
	C634.391357,381.134735 633.670105,383.911194 632.516785,386.337250 
	C633.285400,389.658234 634.054016,392.979187 634.939087,396.677460 
M624.046448,384.265900 
	C625.774658,384.210388 627.528381,384.292297 629.208740,383.979919 
	C629.532898,383.919678 629.935303,381.673920 629.679749,381.528442 
	C628.121521,380.641052 626.383545,380.069061 624.275146,379.218140 
	C624.153381,381.149292 624.083008,382.264709 624.046448,384.265900 
z"/>
<path fill="#F7F7F7" opacity="1.000000" stroke="none" 
	d="
M624.029541,383.823029 
	C624.083008,382.264709 624.153381,381.149292 624.275146,379.218140 
	C626.383545,380.069061 628.121521,380.641052 629.679749,381.528442 
	C629.935303,381.673920 629.532898,383.919678 629.208740,383.979919 
	C627.528381,384.292297 625.774658,384.210388 624.029541,383.823029 
z"/>
</svg>