<?xml version="1.0" encoding="utf-8"?>
<!-- Generator: Adobe Illustrator 25.4.1, SVG Export Plug-In . SVG Version: 6.00 Build 0)  -->
<svg version="1.1" id="Layer_1" xmlns="http://www.w3.org/2000/svg" xmlns:xlink="http://www.w3.org/1999/xlink" x="0px" y="0px"
	 viewBox="0 0 841.9 595.3" style="enable-background:new 0 0 841.9 595.3;" xml:space="preserve">
<style type="text/css">
	.st0{clip-path:url(#SVGID_00000114037138054358648540000013107984893334660270_);}
	.st1{clip-path:url(#SVGID_00000118391858208720981970000006702769389994248888_);fill:#322B80;}
	.st2{clip-path:url(#SVGID_00000118391858208720981970000006702769389994248888_);fill:#009DE0;}
	.st3{clip-path:url(#SVGID_00000118391858208720981970000006702769389994248888_);fill:#C20E1A;}
</style>
<g id="PROEN_Corp_CMYK_00000070831454952214456560000018131379036596490410_">
	<g>
		<defs>
			<rect id="SVGID_1_" x="360.7" y="366.7" width="350.2" height="98.1"/>
		</defs>
		<clipPath id="SVGID_00000181790881031225240110000010417460902949865107_">
			<use xlink:href="#SVGID_1_"  style="overflow:visible;"/>
		</clipPath>
		<g style="clip-path:url(#SVGID_00000181790881031225240110000010417460902949865107_);">
			<defs>
				<rect id="SVGID_00000138566323123002309710000002420851938242733466_" x="360.7" y="366.7" width="351.5" height="98.1"/>
			</defs>
			<clipPath id="SVGID_00000031178739678978868560000014015471925543847597_">
				<use xlink:href="#SVGID_00000138566323123002309710000002420851938242733466_"  style="overflow:visible;"/>
			</clipPath>
			<path style="clip-path:url(#SVGID_00000031178739678978868560000014015471925543847597_);fill:#322B80;" d="M377.9,430.4h-2.5
				l0.9-10h2.5c6.2,0,9.1,1.6,8.8,4.8C387.3,428.7,384.1,430.4,377.9,430.4 M395.9,415.2c-2.8-3-7-4.5-12.6-4.5h-19.4l-3.2,41.4h13
				l0.9-11.7h8.3c4.7,0,9.7-1.4,12.4-4.3c2.3-2.5,3.7-5.8,4-9.8C399.7,421.7,398.5,418,395.9,415.2 M540.1,410.7h-12.6l-1.8,23.5
				l-11.2-23.5h-13.7l-3.2,41.4h11.9l2.1-23.3l12.5,23.3h12.4L540.1,410.7z"/>
			<path style="clip-path:url(#SVGID_00000031178739678978868560000014015471925543847597_);fill:#009DE0;" d="M419.5,441.9
				c2.8-1.2,3.5-3.5,3.5-5.7c0-2.2-1.8-5-5.4-5h-13.4l-1.5,20.9h6.5c0,0,0.4-4.8,0.5-6.2c0.1-0.9,0.7-1.5,1.5-1.5
				c0.6,0,1.6,0.1,2.4,0.1c0.7,0,1.9,0.1,2.2,2.4c0.3,2.3,0.2,5.1,0.2,5.1h6.6c-0.7-2-0.5-4.7-0.7-6.1
				C421.7,444.7,421.2,443.5,419.5,441.9 M416.4,438.2c-0.2,1.5-1.9,2.2-4.9,2.2h-1.9l0.3-4.4l4.2,0
				C415.6,436,416.5,436.8,416.4,438.2"/>
			<polygon style="clip-path:url(#SVGID_00000031178739678978868560000014015471925543847597_);fill:#009DE0;" points="493.4,431.2 
				476.7,431.2 475.2,452.1 492,452.1 492.5,446 481.9,446 482.1,442.9 491.2,442.9 491.8,438.5 482.3,438.5 482.6,435.4 
				492.5,435.4 			"/>
			<path style="clip-path:url(#SVGID_00000031178739678978868560000014015471925543847597_);fill:#C20E1A;" d="M457.1,442.3
				c0,5.5-4.4,10-9.9,10c-5.5,0-9.9-4.5-9.9-10c0-5.5,4.4-10,9.9-10C452.6,432.3,457.1,436.8,457.1,442.3"/>
			<path style="clip-path:url(#SVGID_00000031178739678978868560000014015471925543847597_);fill:#322B80;" d="M447.1,419.7
				c-12.4,0-22.4,10.1-22.4,22.5c0,12.4,10,22.5,22.4,22.5c12.4,0,22.4-10.1,22.4-22.5C469.5,429.8,459.5,419.7,447.1,419.7
				 M447.1,458.7c-9,0-16.3-7.3-16.3-16.4s7.3-16.4,16.3-16.4c9,0,16.3,7.3,16.3,16.4S456.1,458.7,447.1,458.7"/>
			<path style="clip-path:url(#SVGID_00000031178739678978868560000014015471925543847597_);fill:#C20E1A;" d="M447.1,410.1
				c-10.2,0-19,4.4-24.9,11.9l2.4,1.8c5.5-6,13.5-9.8,22.5-9.8c9.4,0,17.6,3.9,23,10.4l2.4-1.7C466.6,415.1,457.5,410.1,447.1,410.1
				"/>
			<path style="clip-path:url(#SVGID_00000031178739678978868560000014015471925543847597_);fill:#C20E1A;" d="M447.1,388.2
				c-17.1,0-32.4,8.1-42.2,20.6l2.7,2c9.4-11,23.6-18.1,39.6-18.1c16.4,0,31.2,7.5,40.6,19l2.5-1.8
				C480.5,396.8,464.8,388.2,447.1,388.2"/>
			<path style="clip-path:url(#SVGID_00000031178739678978868560000014015471925543847597_);fill:#C20E1A;" d="M447.1,399.6
				c-13.5,0-25.5,6.3-33.4,16l2.6,2c7.4-8.4,18.4-13.8,30.8-13.8c12.7,0,24.2,5.7,31.6,14.5l2.5-1.8
				C473.4,406.2,461.1,399.6,447.1,399.6"/>
			<path style="clip-path:url(#SVGID_00000031178739678978868560000014015471925543847597_);fill:#C20E1A;" d="M447.1,371.1
				c23.9,0,43.8,12,57.4,28.6l3.4-2.5c-13.8-18.6-35.9-30.6-60.8-30.6c-24.2,0-45.7,11.3-59.6,29l3.4,2.6
				C404.6,382.3,423.8,371.1,447.1,371.1"/>
			<path style="clip-path:url(#SVGID_00000031178739678978868560000014015471925543847597_);fill:#C20E1A;" d="M447.2,377.2
				c-20.7,0-39.1,9.8-50.9,25.1l3.6,2.7c11.5-13.4,27.7-22.6,47.3-22.6c20,0,36.5,10.2,48,24.1l3.9-2.8
				C487.3,387.7,468.5,377.2,447.2,377.2"/>
			<path style="clip-path:url(#SVGID_00000031178739678978868560000014015471925543847597_);fill:#322B80;" d="M553.1,418h8.6
				c3.4,0,6.5,1.5,6.5,5.8c0,4.5-2.6,6.2-6.5,6.2h-3.9v6h-4.7V418z M557.8,426.4h3.2c1.5,0,2.5-0.6,2.5-2.2c0-1.7-1.1-2.4-2.5-2.4
				h-3.2V426.4z"/>
			<path style="clip-path:url(#SVGID_00000031178739678978868560000014015471925543847597_);fill:#322B80;" d="M570.4,418h9.2
				c3.2,0,6.3,1.4,6.3,5.1c0,1.9-0.9,3.8-2.8,4.5v0.1c1.9,0.5,2.5,2.6,2.6,4.3c0.1,0.8,0.1,3.4,0.8,4.1h-4.6
				c-0.4-0.6-0.5-2.4-0.5-2.9c-0.1-1.8-0.4-3.7-2.6-3.7H575v6.6h-4.7V418z M575,425.8h3.9c1.4,0,2.2-0.8,2.2-2.1
				c0-1.3-1.1-1.9-2.4-1.9H575V425.8z"/>
			<path style="clip-path:url(#SVGID_00000031178739678978868560000014015471925543847597_);fill:#322B80;" d="M596.8,417.6
				c5.7,0,8.9,4.2,8.9,9.4c0,5.2-3.2,9.4-8.9,9.4c-5.7,0-8.9-4.2-8.9-9.4C587.9,421.8,591.1,417.6,596.8,417.6 M596.8,432.3
				c3,0,4.2-2.7,4.2-5.3c0-2.7-1.2-5.4-4.2-5.4c-3,0-4.2,2.7-4.2,5.4C592.6,429.7,593.7,432.3,596.8,432.3"/>
			<polygon style="clip-path:url(#SVGID_00000031178739678978868560000014015471925543847597_);fill:#322B80;" points="608.2,418 
				622.6,418 622.6,421.7 612.9,421.7 612.9,424.9 621.7,424.9 621.7,428.5 612.9,428.5 612.9,432 622.8,432 622.8,436 608.2,436 
							"/>
			<polygon style="clip-path:url(#SVGID_00000031178739678978868560000014015471925543847597_);fill:#322B80;" points="625.4,418 
				630.2,418 636.5,429.1 636.6,429.1 636.6,418 641,418 641,436 636.2,436 629.9,424.8 629.8,424.8 629.8,436 625.4,436 			"/>
			<path style="clip-path:url(#SVGID_00000031178739678978868560000014015471925543847597_);fill:#322B80;" d="M664.1,424.4
				c-0.3-1.8-1.7-2.8-3.6-2.8c-3,0-4.2,2.7-4.2,5.4c0,2.7,1.2,5.4,4.2,5.4c2.2,0,3.5-1.3,3.6-3.3h4.7c-0.3,4.6-3.7,7.4-8.2,7.4
				c-5.4,0-9-4.2-9-9.4s3.5-9.4,9-9.4c3.9,0,8.1,2.5,8.2,6.8H664.1z"/>
			<path style="clip-path:url(#SVGID_00000031178739678978868560000014015471925543847597_);fill:#322B80;" d="M677.3,422.5
				c4.1,0,6.9,3,6.9,6.9c0,3.9-2.9,6.9-6.9,6.9c-4.1,0-6.9-3-6.9-6.9C670.5,425.5,673.3,422.5,677.3,422.5 M677.3,433.1
				c2,0,2.6-2,2.6-3.6c0-1.7-0.6-3.7-2.6-3.7c-2,0-2.6,2-2.6,3.7C674.7,431.1,675.4,433.1,677.3,433.1"/>
			<path style="clip-path:url(#SVGID_00000031178739678978868560000014015471925543847597_);fill:#322B80;" d="M686.7,422.9h4.2v2.3
				h0c0.6-1.7,2.1-2.5,3.9-2.5c0.3,0,0.7,0,1,0.1v3.9c-0.6-0.2-1.1-0.3-1.6-0.3c-2.1,0-3.2,1.5-3.2,3.1v6.5h-4.3V422.9z"/>
			<path style="clip-path:url(#SVGID_00000031178739678978868560000014015471925543847597_);fill:#322B80;" d="M697.3,422.9h4.1v1.5
				h0.1c0.8-1.2,2.1-1.9,3.6-1.9c4.1,0,5.9,3.5,5.9,7.2c0,3.4-1.8,6.6-5.5,6.6c-1.6,0-2.9-0.6-3.7-1.8h0v5.8h-4.3V422.9z
				 M701.4,429.3c0,2.3,0.7,3.8,2.6,3.8c1.9,0,2.6-2,2.6-3.8c0-1.7-0.7-3.5-2.5-3.5C702.9,425.8,701.4,426.6,701.4,429.3"/>
			<path style="clip-path:url(#SVGID_00000031178739678978868560000014015471925543847597_);fill:#322B80;" d="M553.5,442.7h4.3
				c2,0,3,1.1,3,2.9c0,1.8-1.1,2.9-3,2.9h-3v4.1h-1.3V442.7z M554.8,447.5h2.6c1.5,0,2.2-0.6,2.2-1.8c0-1.2-0.7-1.8-2.2-1.8h-2.6
				V447.5z"/>
			<path style="clip-path:url(#SVGID_00000031178739678978868560000014015471925543847597_);fill:#322B80;" d="M568.6,452.6h-1.1
				v-1.1h0c-0.5,0.9-1.3,1.3-2.3,1.3c-1.9,0-2.5-1.1-2.5-2.6v-4.7h1.2v4.9c0,0.9,0.6,1.4,1.5,1.4c1.4,0,2.1-1,2.1-2.2v-4.1h1.2
				V452.6z"/>
			<path style="clip-path:url(#SVGID_00000031178739678978868560000014015471925543847597_);fill:#322B80;" d="M570.7,442.7h1.2v3.7
				h0c0.4-0.8,1.3-1.1,2.3-1.1c2.2,0,3.3,1.8,3.3,3.8c0,2-1.1,3.7-3.3,3.7c-0.7,0-1.8-0.3-2.3-1.1h0v1h-1.2V442.7z M574.1,446.3
				c-1.6,0-2.2,1.4-2.2,2.7c0,1.4,0.6,2.7,2.3,2.7c1.6,0,2.2-1.4,2.2-2.8C576.3,447.6,575.6,446.3,574.1,446.3"/>
			
				<rect x="579.3" y="442.7" style="clip-path:url(#SVGID_00000031178739678978868560000014015471925543847597_);fill:#322B80;" width="1.2" height="9.9"/>
			<path style="clip-path:url(#SVGID_00000031178739678978868560000014015471925543847597_);fill:#322B80;" d="M584,444.2h-1.2v-1.4
				h1.2V444.2z M582.8,445.5h1.2v7.2h-1.2V445.5z"/>
			<path style="clip-path:url(#SVGID_00000031178739678978868560000014015471925543847597_);fill:#322B80;" d="M591,447.8
				c-0.2-0.9-0.8-1.4-1.8-1.4c-1.7,0-2.2,1.3-2.2,2.8c0,1.3,0.6,2.6,2.1,2.6c1.1,0,1.8-0.7,2-1.8h1.2c-0.3,1.8-1.4,2.8-3.2,2.8
				c-2.2,0-3.4-1.5-3.4-3.7c0-2.2,1.1-3.8,3.4-3.8c1.6,0,2.9,0.8,3.1,2.5H591z"/>
			<path style="clip-path:url(#SVGID_00000031178739678978868560000014015471925543847597_);fill:#322B80;" d="M605.3,445.7
				c-0.3-1.4-1.4-2.1-2.8-2.1c-2.4,0-3.4,1.9-3.4,4c0,2.3,1,4.2,3.4,4.2c1.7,0,2.7-1.2,2.9-2.9h1.3c-0.2,2.5-1.8,4-4.3,4
				c-3.1,0-4.6-2.3-4.6-5.2c0-2.9,1.6-5.2,4.7-5.2c2.1,0,3.8,1.1,4.1,3.2H605.3z"/>
			<path style="clip-path:url(#SVGID_00000031178739678978868560000014015471925543847597_);fill:#322B80;" d="M611.6,445.3
				c2.3,0,3.5,1.7,3.5,3.8c0,2.1-1.2,3.8-3.5,3.8s-3.5-1.7-3.5-3.8C608.1,446.9,609.3,445.3,611.6,445.3 M611.6,451.8
				c1.2,0,2.2-1,2.2-2.7c0-1.8-1-2.7-2.2-2.7c-1.2,0-2.2,1-2.2,2.7C609.4,450.8,610.4,451.8,611.6,451.8"/>
			<path style="clip-path:url(#SVGID_00000031178739678978868560000014015471925543847597_);fill:#322B80;" d="M616.8,445.5h1.1v1.1
				h0c0.5-0.8,1.3-1.2,2.3-1.2c0.9,0,1.7,0.3,2,1.2c0.5-0.8,1.3-1.2,2.2-1.2c1.4,0,2.4,0.6,2.4,2.1v5.3h-1.2v-4.7
				c0-0.9-0.2-1.6-1.4-1.6c-1.1,0-1.9,0.7-1.9,1.8v4.5h-1.2v-4.7c0-0.9-0.3-1.6-1.3-1.6c-1.4,0-1.9,1.3-1.9,1.8v4.5h-1.2V445.5z"/>
			<path style="clip-path:url(#SVGID_00000031178739678978868560000014015471925543847597_);fill:#322B80;" d="M629,445.5h1.2v1h0
				c0.4-0.8,1.3-1.1,2.3-1.1c2.2,0,3.3,1.8,3.3,3.8c0,2-1.1,3.7-3.3,3.7c-0.7,0-1.8-0.3-2.3-1.1h0v3.7H629V445.5z M632.4,446.3
				c-1.6,0-2.2,1.4-2.2,2.7c0,1.4,0.6,2.7,2.3,2.7c1.6,0,2.2-1.4,2.2-2.8C634.6,447.6,633.9,446.3,632.4,446.3"/>
			<path style="clip-path:url(#SVGID_00000031178739678978868560000014015471925543847597_);fill:#322B80;" d="M643.9,452.6
				c-0.2,0.1-0.5,0.2-0.8,0.2c-0.6,0-1-0.3-1-1.1c-0.7,0.8-1.5,1.1-2.5,1.1c-1.3,0-2.4-0.6-2.4-2c0-1.6,1.2-2,2.4-2.2
				c1.3-0.2,2.4-0.2,2.4-1.1c0-1-0.8-1.2-1.6-1.2c-1,0-1.7,0.3-1.8,1.4h-1.2c0.1-1.8,1.4-2.4,3-2.4c1.3,0,2.7,0.3,2.7,2v3.7
				c0,0.6,0,0.8,0.4,0.8c0.1,0,0.2,0,0.4-0.1V452.6z M642,448.9c-0.5,0.3-1.3,0.3-2.1,0.5c-0.8,0.1-1.4,0.4-1.4,1.3
				c0,0.8,0.7,1.1,1.4,1.1c1.6,0,2.2-1,2.2-1.6V448.9z"/>
			<path style="clip-path:url(#SVGID_00000031178739678978868560000014015471925543847597_);fill:#322B80;" d="M645.4,445.5h1.1v1.1
				h0c0.5-0.9,1.3-1.3,2.3-1.3c1.9,0,2.5,1.1,2.5,2.6v4.7h-1.2v-4.9c0-0.9-0.6-1.4-1.5-1.4c-1.4,0-2.1,1-2.1,2.2v4.1h-1.2V445.5z"/>
			<path style="clip-path:url(#SVGID_00000031178739678978868560000014015471925543847597_);fill:#322B80;" d="M656.2,453.6
				c-0.5,1.4-1,1.9-2.1,1.9c-0.3,0-0.6,0-0.8-0.1v-1.1c0.2,0.1,0.5,0.2,0.7,0.2c0.5,0,0.8-0.2,1-0.7l0.5-1.2l-2.8-7.1h1.3l2.1,5.9h0
				l2-5.9h1.2L656.2,453.6z"/>
			<polygon style="clip-path:url(#SVGID_00000031178739678978868560000014015471925543847597_);fill:#322B80;" points="665.1,442.7 
				666.4,442.7 666.4,451.5 671.7,451.5 671.7,452.6 665.1,452.6 			"/>
			<path style="clip-path:url(#SVGID_00000031178739678978868560000014015471925543847597_);fill:#322B80;" d="M674.2,444.2H673
				v-1.4h1.2V444.2z M673,445.5h1.2v7.2H673V445.5z"/>
			<path style="clip-path:url(#SVGID_00000031178739678978868560000014015471925543847597_);fill:#322B80;" d="M676.4,445.5h1.1v1.1
				h0c0.5-0.8,1.3-1.2,2.3-1.2c0.9,0,1.7,0.3,2,1.2c0.5-0.8,1.3-1.2,2.2-1.2c1.4,0,2.4,0.6,2.4,2.1v5.3h-1.2v-4.7
				c0-0.9-0.2-1.6-1.4-1.6c-1.1,0-1.9,0.7-1.9,1.8v4.5h-1.2v-4.7c0-0.9-0.3-1.6-1.3-1.6c-1.4,0-1.9,1.3-1.9,1.8v4.5h-1.2V445.5z"/>
			<path style="clip-path:url(#SVGID_00000031178739678978868560000014015471925543847597_);fill:#322B80;" d="M689.8,444.2h-1.2
				v-1.4h1.2V444.2z M688.7,445.5h1.2v7.2h-1.2V445.5z"/>
			<path style="clip-path:url(#SVGID_00000031178739678978868560000014015471925543847597_);fill:#322B80;" d="M693.7,445.5h1.4v1
				h-1.4v4.5c0,0.5,0.2,0.6,0.9,0.6h0.5v1h-0.9c-1.2,0-1.7-0.2-1.7-1.6v-4.6h-1.2v-1h1.2v-2.2h1.2V445.5z"/>
			<path style="clip-path:url(#SVGID_00000031178739678978868560000014015471925543847597_);fill:#322B80;" d="M702.9,450.4
				c-0.3,1.6-1.5,2.4-3.1,2.4c-2.3,0-3.4-1.6-3.4-3.8c0-2.2,1.4-3.7,3.4-3.7c2.5,0,3.3,2.4,3.2,4.1h-5.4c0,1.2,0.7,2.4,2.2,2.4
				c1,0,1.7-0.5,1.9-1.4H702.9z M701.7,448.4c-0.1-1.1-0.9-2-2.1-2c-1.2,0-2,0.9-2.1,2H701.7z"/>
			<path style="clip-path:url(#SVGID_00000031178739678978868560000014015471925543847597_);fill:#322B80;" d="M710.9,452.6h-1.2v-1
				h0c-0.4,0.8-1.3,1.1-2.3,1.1c-2.2,0-3.3-1.8-3.3-3.8c0-2,1.1-3.7,3.3-3.7c0.7,0,1.8,0.3,2.3,1.1h0v-3.7h1.2V452.6z M707.6,451.8
				c1.6,0,2.2-1.4,2.2-2.7c0-1.4-0.6-2.7-2.3-2.7c-1.6,0-2.2,1.4-2.2,2.8C705.4,450.5,706.1,451.8,707.6,451.8"/>
		</g>
	</g>
</g>
</svg>
