<?xml version="1.0" encoding="UTF-8" standalone="no"?>
<svg xmlns="http://www.w3.org/2000/svg" width="1144" height="386" viewBox="0 0 1144 386" version="1.1">
  <path d="M 304.00,125.50 L 296.00,125.50 L 288.00,122.50 L 280.50,116.00 L 278.50,112.00 L 277.50,103.00 L 280.50,95.00 L 292.00,86.50 L 303.00,85.50 L 312.00,88.50 L 319.50,95.00 L 322.50,102.00 L 322.50,110.00 L 320.50,115.00 L 314.00,121.50 L 304.00,125.50 Z M 623.00,125.50 L 615.00,125.50 L 606.00,122.50 L 598.50,115.00 L 596.50,110.00 L 596.50,101.00 L 598.50,96.00 L 605.00,89.50 L 611.00,86.50 L 622.00,85.50 L 631.00,88.50 L 638.50,96.00 L 640.50,100.00 L 641.50,108.00 L 638.50,116.00 L 631.00,122.50 L 623.00,125.50 Z M 225.00,265.50 L 204.00,265.50 L 192.00,260.50 L 181.50,249.00 L 175.00,229.50 L 160.00,226.50 L 144.00,218.50 L 129.50,206.00 L 119.50,190.00 L 115.50,176.00 L 115.50,154.00 L 119.50,138.00 L 128.50,122.00 L 141.00,109.50 L 155.00,101.50 L 178.00,95.50 L 198.00,95.50 L 212.00,98.50 L 223.00,102.50 L 236.00,110.50 L 248.50,123.00 L 255.50,135.00 L 260.50,155.00 L 260.50,168.00 L 256.50,187.00 L 248.50,202.00 L 238.00,213.50 L 226.00,221.50 L 217.50,225.00 L 220.50,238.00 L 228.00,247.50 L 234.00,250.50 L 244.00,250.50 L 253.00,248.50 L 253.50,257.00 L 240.00,262.50 L 225.00,265.50 Z M 192.50,220.00 L 199.00,217.50 L 203.50,213.00 L 210.50,198.00 L 213.50,181.00 L 213.50,144.00 L 210.50,127.00 L 204.50,114.00 L 195.00,106.50 L 184.00,105.50 L 177.00,108.50 L 171.50,114.00 L 164.50,130.00 L 161.50,150.00 L 161.50,178.00 L 164.50,197.00 L 170.50,211.00 L 174.00,215.50 L 180.00,219.50 L 192.50,220.00 Z M 820.00,229.50 L 802.00,229.50 L 795.00,227.50 L 789.00,224.50 L 782.50,218.00 L 779.50,212.00 L 777.50,203.00 L 777.50,149.00 L 761.50,148.00 L 762.00,137.50 L 778.50,137.00 L 779.00,110.50 L 816.00,110.50 L 817.50,112.00 L 817.50,137.00 L 841.50,138.00 L 841.00,148.50 L 817.50,149.00 L 817.50,204.00 L 819.50,210.00 L 826.00,214.50 L 842.50,214.00 L 842.50,222.00 L 841.00,223.50 L 820.00,229.50 Z M 472.00,226.50 L 410.50,226.00 L 410.50,219.00 L 416.00,218.50 L 419.50,215.00 L 419.50,162.00 L 417.50,157.00 L 414.00,153.50 L 406.00,153.50 L 395.50,162.00 L 395.50,213.00 L 399.00,217.50 L 405.50,219.00 L 405.50,226.00 L 343.00,226.50 L 342.50,219.00 L 353.00,217.50 L 356.50,213.00 L 356.50,157.00 L 352.00,149.50 L 341.50,146.00 L 341.50,139.00 L 394.00,136.50 L 395.50,138.00 L 396.00,150.50 L 405.00,141.50 L 418.00,135.50 L 433.00,134.50 L 447.00,139.50 L 454.50,147.00 L 458.50,157.00 L 459.50,213.00 L 462.00,216.50 L 472.50,220.00 L 472.00,226.50 Z M 721.00,230.50 L 703.00,229.50 L 690.00,225.50 L 681.00,220.50 L 669.50,208.00 L 663.50,190.00 L 664.50,171.00 L 672.50,155.00 L 688.00,141.50 L 709.00,134.50 L 731.00,134.50 L 740.00,136.50 L 750.00,141.50 L 755.50,147.00 L 758.50,154.00 L 757.50,165.00 L 751.00,172.50 L 745.00,174.50 L 736.00,174.50 L 727.00,171.50 L 721.50,165.00 L 721.50,155.00 L 724.50,147.00 L 723.00,143.50 L 716.00,143.50 L 709.50,152.00 L 706.50,166.00 L 706.50,188.00 L 712.50,205.00 L 719.00,211.50 L 723.00,213.50 L 738.00,212.50 L 743.00,209.50 L 753.00,197.50 L 761.50,203.00 L 753.50,215.00 L 745.00,222.50 L 738.00,226.50 L 721.00,230.50 Z M 936.00,230.50 L 927.00,230.50 L 914.00,227.50 L 906.50,221.00 L 905.00,217.50 L 894.00,226.50 L 878.00,230.50 L 861.00,227.50 L 852.50,220.00 L 849.50,213.00 L 849.50,200.00 L 851.50,194.00 L 858.00,186.50 L 869.00,180.50 L 904.50,169.00 L 903.50,149.00 L 899.00,143.50 L 896.00,142.50 L 887.50,146.00 L 890.50,153.00 L 890.50,163.00 L 885.00,169.50 L 879.00,171.50 L 866.00,171.50 L 859.00,168.50 L 853.50,161.00 L 853.50,152.00 L 860.00,143.50 L 869.00,138.50 L 880.00,135.50 L 913.00,134.50 L 923.00,136.50 L 932.00,140.50 L 939.50,148.00 L 943.50,159.00 L 942.50,210.00 L 943.50,213.00 L 948.00,216.50 L 958.00,216.50 L 958.50,224.00 L 949.00,228.50 L 936.00,230.50 Z M 336.00,226.50 L 269.50,226.00 L 270.00,218.50 L 277.00,218.50 L 281.00,216.50 L 283.50,213.00 L 283.50,155.00 L 280.00,150.50 L 268.50,146.00 L 269.00,138.50 L 299.00,136.50 L 322.50,137.00 L 322.50,209.00 L 327.00,216.50 L 336.50,219.00 L 336.00,226.50 Z M 541.00,227.50 L 517.50,227.00 L 485.50,155.00 L 479.00,147.50 L 470.50,144.00 L 471.00,137.50 L 536.00,137.50 L 536.50,144.00 L 528.00,145.50 L 524.50,149.00 L 544.00,194.50 L 545.50,194.00 L 560.50,155.00 L 560.50,150.00 L 558.00,147.50 L 547.50,144.00 L 548.00,137.50 L 594.00,138.50 L 640.00,136.50 L 641.50,138.00 L 641.50,211.00 L 646.00,216.50 L 655.50,219.00 L 655.00,226.50 L 588.50,226.00 L 588.50,219.00 L 596.00,218.50 L 602.50,212.00 L 602.50,156.00 L 597.00,149.50 L 584.00,145.50 L 578.00,148.50 L 573.50,154.00 L 541.00,227.50 Z M 899.50,212.00 L 904.50,207.00 L 904.00,179.50 L 896.00,183.50 L 890.50,189.00 L 887.50,198.00 L 889.50,208.00 L 894.00,212.50 L 899.50,212.00 Z" fill="#000000" fill-rule="evenodd"/>
</svg>
