<?xml version="1.0" encoding="utf-8"?>
<!-- Generator: Adobe Illustrator 23.0.2, SVG Export Plug-In . SVG Version: 6.00 Build 0)  -->
<svg version="1.1" id="Layer_1" xmlns="http://www.w3.org/2000/svg" xmlns:xlink="http://www.w3.org/1999/xlink" x="0px" y="0px"
	 viewBox="0 0 400 245" style="enable-background:new 0 0 400 245;" xml:space="preserve">
<style type="text/css">
	.st0{fill:#EDDB00;}
	.st1{clip-path:url(#SVGID_2_);fill:#0047BA;}
	.st2{fill:#005197;}
	.st3{fill:#009CE1;}
	.st4{fill:#8CD21E;}
	.st5{fill:#FFAA00;}
	.st6{fill:#002B49;}
	.st7{fill:#38D430;}
	.st8{fill:#FFFFFF;}
	.st9{fill:#EC1C24;}
	.st10{fill-rule:evenodd;clip-rule:evenodd;fill:#C50022;}
	.st11{fill:#231F20;}
	.st12{fill:#F1BB32;}
	.st13{fill:#EFBA2F;}
	.st14{fill:#0075A8;}
	.st15{fill:#404041;}
	.st16{fill:#59595B;}
	.st17{fill:#94A1B5;}
	.st18{fill:#288CF4;}
	.st19{fill:#B62411;}
	.st20{fill:#2882DB;}
	.st21{fill:#6526DD;}
	.st22{fill:#FAAB18;}
	.st23{fill:#323232;}
	.st24{fill:#434C55;}
	.st25{fill:url(#SVGID_3_);}
	.st26{fill:#203E79;}
	.st27{fill:#00ADDA;}
	.st28{fill-rule:evenodd;clip-rule:evenodd;fill:#203E79;}
	.st29{fill-rule:evenodd;clip-rule:evenodd;fill:#00ADDA;}
	.st30{fill-rule:evenodd;clip-rule:evenodd;fill:#0B4D84;}
	.st31{fill-rule:evenodd;clip-rule:evenodd;fill:url(#SVGID_4_);}
	.st32{fill-rule:evenodd;clip-rule:evenodd;fill:#FFFFFF;}
	.st33{fill:#0071BB;}
	.st34{fill-rule:evenodd;clip-rule:evenodd;fill:#007CB8;}
	.st35{fill-rule:evenodd;clip-rule:evenodd;fill:#D25C3D;}
</style>
<g>
	<g>
		<g>
			<path class="st19" d="M220.83,63.96c0-1.82,0.61-3.35,1.82-4.56s2.74-1.82,4.26-1.82c1.82,0,3.35,0.61,4.56,1.82
				c1.22,1.22,1.82,2.74,1.82,4.56v66.91c0,1.82-0.61,3.35-1.82,4.56c-1.22,1.22-2.74,1.82-4.56,1.82s-3.04-0.61-4.26-1.82
				c-1.22-1.22-1.82-2.74-1.82-4.56V63.96z"/>
			<path class="st19" d="M245.16,129.04c-5.17-5.47-7.6-12.16-7.6-20.07s2.43-14.6,7.6-20.07c5.17-5.47,11.56-8.21,19.16-8.21
				c5.47,0,10.34,1.52,14.9,4.87c0.3-1.52,1.22-2.74,2.13-3.65c0.91-0.91,2.43-1.52,3.95-1.52s3.04,0.61,3.95,1.82
				c1.52,1.52,2.13,2.74,2.13,4.56v44.71c0,1.52-0.61,3.04-1.82,4.26c-1.22,1.22-2.43,1.82-3.95,1.82c-1.52,0-2.74-0.61-3.95-1.52
				c-0.91-0.91-1.82-2.13-2.13-3.65c-4.56,3.35-9.73,4.87-14.9,4.87C256.72,137.25,250.33,134.51,245.16,129.04 M249.72,108.97
				c0,4.56,1.52,8.52,4.26,11.56c2.74,3.04,6.39,4.56,10.64,4.56s7.91-1.52,10.64-4.56c2.74-3.04,4.26-6.99,4.26-11.56
				c0-4.56-1.52-8.52-4.26-11.56c-2.74-3.04-6.39-4.87-10.64-4.87s-7.91,1.52-10.64,4.87C250.94,100.45,249.72,104.4,249.72,108.97"
				/>
		</g>
		<g>
			<path class="st19" d="M296.56,131.17V63.96c0-1.52,0.61-3.04,1.82-4.26c1.22-1.22,2.74-1.82,4.26-1.82
				c1.82,0,3.04,0.61,4.26,1.82s1.82,2.74,1.82,4.26v21.29c4.56-3.04,9.43-4.87,15.21-4.87c7.6,0,13.99,2.74,19.46,8.52
				c5.47,5.47,7.91,12.16,7.91,20.07s-2.74,14.29-7.91,20.07c-5.47,5.47-11.86,8.21-19.46,8.21c-5.47,0-10.64-1.52-15.51-4.87
				c-0.3,1.22-0.91,2.43-2.13,3.35s-2.43,1.52-3.95,1.52c-1.52,0-3.04-0.61-4.26-1.82C297.17,134.21,296.56,132.99,296.56,131.17
				 M334.57,97.71c-3.04-3.04-6.39-4.87-10.64-4.87s-7.91,1.52-10.64,4.87c-3.04,3.04-4.56,6.99-4.56,11.25
				c0,4.26,1.52,8.21,4.56,11.25c3.04,3.04,6.39,4.87,10.64,4.87s7.6-1.52,10.64-4.87c3.04-3.04,4.56-6.99,4.56-11.25
				C339.14,104.71,337.61,100.76,334.57,97.71"/>
			<path class="st19" d="M391.14,86.77c1.22,0.91,2.13,2.13,2.43,3.65s0,3.04-0.61,4.56c-0.91,1.22-2.13,2.13-3.65,2.43
				c-1.52,0.3-3.04,0-4.56-0.91c-4.26-2.74-7.6-4.26-10.34-4.26s-4.87,0.61-6.69,2.13c-1.22,0.91-1.82,1.52-1.82,2.13
				c0,0.61,0,1.22,0.3,1.52c0.3,0.3,0.61,0.61,1.22,0.91c1.52,1.22,4.26,2.13,8.21,2.74l0,0l0,0c3.95,0.61,7.6,1.82,10.95,3.35
				c3.35,1.52,5.78,3.65,7.3,6.39c1.52,2.74,2.43,5.17,2.43,7.91c0,5.17-2.43,9.73-6.99,13.08c-4.26,3.04-9.12,4.56-14.6,4.56
				c-6.99,0-13.69-2.74-20.07-7.91c-1.22-0.91-1.82-2.43-2.13-3.95c-0.3-1.82,0.3-3.04,1.22-4.26c0.91-1.22,2.43-2.13,3.95-2.13
				c1.82-0.3,3.04,0.3,4.26,1.22c3.95,3.35,8.21,5.17,12.47,4.87c2.74,0,5.47-0.61,7.6-2.13c1.22-1.22,2.13-2.13,2.13-3.04
				c0-0.91,0-1.22-0.3-1.52s-0.61-0.91-1.52-1.22c-1.82-1.22-4.87-2.43-9.12-3.04l0,0c-3.95-0.61-7.6-1.82-10.34-3.35
				c-3.04-1.52-5.47-3.65-7.3-6.39c-1.22-2.13-1.82-4.56-1.82-6.99c0-4.87,2.13-9.12,6.69-12.47c3.95-2.74,8.82-4.26,13.99-4.26
				C379.58,80.68,385.36,82.81,391.14,86.77"/>
		</g>
		<g>
			<path class="st19" d="M16.16,87.68c1.82-2.13,4.26-3.65,6.99-4.87c3.04-1.22,5.78-1.82,8.21-1.82s4.26,0.61,5.47,1.82
				s1.82,2.43,1.82,4.26c0,1.52-0.61,3.04-1.82,4.26s-2.43,1.82-4.26,1.82c-6.99,0.61-16.73,7.6-16.73,17.03v21.59
				c0,1.52-0.61,3.04-1.82,4.26c-1.22,1.22-2.74,1.82-4.26,1.82c-1.82,0-3.04-0.61-4.26-1.82c-1.22-1.22-1.82-2.74-1.82-4.26V86.77
				c0-1.52,0.61-3.04,1.82-4.26c1.52-0.91,2.74-1.52,4.56-1.52s3.04,0.61,4.26,1.82c1.22,1.22,1.82,2.43,1.82,4.26V87.68z"/>
			<path class="st19" d="M91.58,107.45c0,1.52-0.61,3.04-1.52,3.95c-1.22,0.91-2.43,1.82-4.26,1.82H49.92
				c0.61,3.35,1.82,5.47,3.95,7.3c2.43,2.74,5.78,4.56,10.64,5.17c4.56,0.61,8.52-0.3,11.86-2.74c1.22-1.22,2.74-1.82,4.56-1.82
				c1.82,0,3.04,0.61,3.95,1.52c2.13,2.43,2.13,4.87,0,7.3c-5.47,4.87-12.16,7.6-19.77,7.3c-7.91,0-14.29-2.74-19.77-8.52
				c-5.17-5.47-7.91-12.16-8.21-20.07c0-7.91,2.74-14.6,8.21-20.07c5.17-5.47,11.56-8.21,19.16-8.21s13.99,2.43,18.86,7.6
				c5.17,4.87,7.91,11.25,8.52,18.86v0.61H91.58z M64.51,91.33c-4.26,0.3-7.91,1.52-10.34,3.95c-2.74,2.43-4.26,5.17-4.87,7.91
				h31.93c-0.61-2.74-2.43-5.17-5.47-7.6S69.08,91.63,64.51,91.33"/>
			<path class="st19" d="M150.58,131.17c0,1.52-0.61,3.04-1.82,4.26c-1.22,1.22-2.74,1.82-4.26,1.82c-1.52,0-3.04-0.61-3.95-1.52
				c-1.22-0.91-1.82-2.13-2.13-3.35c-4.87,3.35-9.73,4.87-15.51,4.87c-7.6,0-13.99-2.74-19.46-8.21
				c-5.47-5.47-7.91-12.16-7.91-20.07s2.74-14.29,7.91-20.07c5.47-5.47,11.86-8.52,19.46-8.52c5.47,0,10.64,1.52,15.21,4.87V63.96
				c0-1.82,0.61-3.04,1.82-4.26c1.22-1.22,2.74-1.82,4.26-1.82c1.82,0,3.04,0.61,4.26,1.82s1.82,2.74,1.82,4.26v67.21H150.58z
				 M123.21,125.09c4.26,0,7.6-1.52,10.64-4.87c3.04-3.04,4.56-6.99,4.56-11.25s-1.52-8.21-4.56-11.25
				c-3.04-3.04-6.39-4.87-10.64-4.87s-7.91,1.52-10.64,4.87c-3.04,3.04-4.56,6.99-4.56,11.25c0,4.26,1.52,8.21,4.56,11.25
				C115.3,123.26,118.95,125.09,123.21,125.09"/>
			<path class="st19" d="M168.52,63.96v2.43c0,1.82-0.61,3.35-1.82,4.56c-1.22,1.22-2.43,1.52-4.26,1.52
				c-1.82,0-3.04-0.61-4.26-1.82s-1.82-2.74-1.82-4.56v-2.13c0-1.52,0.61-3.04,1.82-4.26c1.22-1.22,2.74-1.82,4.26-1.82
				c1.82,0,3.04,0.61,4.26,1.82S168.52,62.13,168.52,63.96 M158.18,82.51c1.22-1.22,2.74-1.82,4.26-1.82c1.82,0,3.04,0.61,4.26,1.82
				c1.22,1.22,1.82,2.74,1.82,4.56v44.4c0,1.82-0.61,3.35-1.82,4.26c-1.22,1.22-2.74,1.82-4.26,1.82c-1.82,0-3.04-0.61-4.26-1.82
				c-1.22-1.22-1.82-2.74-1.82-4.26v-44.4C156.36,85.25,156.97,83.72,158.18,82.51"/>
			<path class="st19" d="M211.71,86.77c1.22,0.91,2.13,2.13,2.43,3.65c0.3,1.52,0,3.04-0.61,4.56c-0.91,1.22-2.13,2.13-3.65,2.43
				c-1.52,0.3-3.04,0-4.56-0.91c-4.26-2.74-7.6-4.26-10.34-4.26s-4.87,0.61-6.69,2.13c-1.22,0.91-1.82,1.52-1.82,2.13
				c0,0.61,0,1.22,0.3,1.52c0.3,0.3,0.61,0.61,1.22,0.91c1.52,1.22,4.26,2.13,8.21,2.74l0,0l0,0c3.95,0.61,7.6,1.82,10.95,3.35
				s5.78,3.65,7.3,6.39c1.52,2.74,2.43,5.17,2.43,7.91c0,5.17-2.43,9.73-6.99,13.08c-4.26,3.04-9.12,4.56-14.6,4.56
				c-6.99,0-13.69-2.74-20.07-7.91c-1.22-0.91-1.82-2.43-2.13-3.95c-0.3-1.82,0.3-3.04,1.22-4.26c0.91-1.22,2.43-2.13,3.95-2.13
				c1.82-0.3,3.04,0.3,4.26,1.22c3.95,3.35,8.21,5.17,12.47,4.87c2.74,0,5.47-0.61,7.6-2.13c1.22-1.22,2.13-2.13,2.13-3.04
				c0-0.91,0-1.22-0.3-1.52c0-0.3-0.61-0.91-1.52-1.22c-1.82-1.22-4.87-2.43-9.12-3.04l0,0c-3.95-0.61-7.6-1.82-10.34-3.35
				c-3.04-1.52-5.47-3.65-7.3-6.39c-1.22-2.13-1.82-4.56-1.82-6.99c0-4.87,2.13-9.12,6.69-12.47c3.95-2.74,8.82-4.26,13.99-4.26
				C200.15,80.68,205.63,82.81,211.71,86.77"/>
			<path class="st19" d="M268.28,187.43c-0.91,0-1.82-0.91-1.82-1.82v-19.46c0-0.91,0.91-1.82,1.82-1.82s1.82,0.91,1.82,1.82v2.13
				c1.52-1.82,4.26-3.95,8.21-3.95c0.91,0,1.82,0.91,1.82,1.82c0,0.91-0.91,1.82-1.82,1.82c-2.13,0-8.21,3.35-8.21,7.91v9.43
				C270.1,186.52,269.19,187.43,268.28,187.43"/>
			<path class="st19" d="M301.12,187.43c-6.08,0-11.25-5.17-11.25-11.56s5.17-11.56,11.25-11.56c5.78,0,10.64,4.56,11.25,10.64v0.3
				c0,0.91-0.91,1.82-1.82,1.82h-16.73c0.61,3.95,3.65,6.69,7.6,6.69c2.43,0,4.87-1.22,6.39-3.65c0.3-0.3,0.61-0.61,1.22-0.91
				c0.61,0,0.91,0,1.52,0.3c0.91,0.61,1.22,1.82,0.61,2.43C308.11,185.3,304.77,187.43,301.12,187.43 M293.82,173.44h14.29
				c-0.91-3.04-3.65-5.47-6.99-5.47C297.77,167.97,294.73,170.09,293.82,173.44"/>
			<path class="st19" d="M343.7,187.43c-0.91,0-1.82-0.91-1.82-1.82v-1.22c-2.13,1.82-4.56,3.04-7.6,3.04
				c-6.08,0-11.25-5.17-11.25-11.56s4.87-11.56,11.25-11.56c2.74,0,5.47,0.91,7.6,3.04v-10.34c0-0.91,0.91-1.82,1.82-1.82
				s1.82,0.91,1.82,1.82v28.59C345.52,186.52,344.61,187.43,343.7,187.43 M334.27,167.97c-4.26,0-7.6,3.65-7.6,7.91
				c0,4.26,3.35,7.91,7.6,7.91c3.95,0,7.3-3.35,7.6-7.3v-0.61C341.57,171.31,338.22,167.97,334.27,167.97"/>
			<path class="st19" d="M361.34,187.43c-0.91,0-1.82-0.91-1.82-1.82v-19.46c0-0.91,0.91-1.82,1.82-1.82c0.91,0,1.82,0.91,1.82,1.82
				v19.46C363.16,186.52,362.25,187.43,361.34,187.43 M361.34,162.19c-0.91,0-1.82-0.91-1.82-1.82v-0.91c0-0.91,0.91-1.82,1.82-1.82
				c0.91,0,1.82,0.91,1.82,1.82v0.91C363.16,161.28,362.25,162.19,361.34,162.19"/>
			<path class="st19" d="M385.06,187.43c-3.04,0-5.78-1.22-8.52-3.35c-0.91-0.61-0.91-1.82-0.3-2.43c0.3-0.3,0.61-0.61,1.22-0.61
				c0.61,0,0.91,0,1.52,0.3c2.13,1.52,4.26,2.43,6.08,2.43c1.52,0,2.74-0.3,3.65-1.22c0.91-0.61,1.22-1.22,1.22-2.13
				c0-0.61-0.3-1.22-1.22-2.13c-0.91-0.61-2.13-1.22-4.26-1.52c0,0,0,0-0.3,0c-1.82-0.3-3.65-0.91-5.17-1.82s-2.74-2.74-2.74-4.56
				s0.91-3.65,2.74-4.87c1.52-0.91,3.35-1.52,5.78-1.52c3.04,0,5.17,1.22,6.69,2.43c0.91,0.61,1.22,1.82,0.61,2.74
				c-0.61,0.91-1.52,1.22-2.43,0.61c-1.52-1.22-3.04-2.13-4.87-2.13c-1.52,0-2.74,0.3-3.65,0.91c-0.61,0.61-1.22,1.22-1.22,1.82
				c0,0.61,0,0.91,0.91,1.52s2.13,0.91,3.95,1.22c2.13,0.3,3.95,0.91,5.47,1.82c1.82,1.22,2.74,3.04,2.74,5.17
				c0,1.82-0.91,3.65-2.74,4.87C389.32,186.82,387.49,187.43,385.06,187.43"/>
			<path class="st19" d="M193.77,187.43c-6.08,0-10.95-5.17-10.95-11.56s4.87-11.56,10.95-11.56c6.08,0,10.95,5.17,10.95,11.56
				C204.41,182.26,199.54,187.43,193.77,187.43 M193.77,167.97c-3.95,0-7.3,3.65-7.3,7.91c0,4.26,3.35,7.91,7.3,7.91
				s7.3-3.65,7.3-7.91C200.76,171.62,197.41,167.97,193.77,167.97"/>
			<path class="st19" d="M217.49,187.43c-0.91,0-1.82-0.91-1.82-1.82v-17.94h-2.13c-0.91,0-1.82-0.91-1.82-1.82
				c0-0.91,0.91-1.82,1.82-1.82h2.13v-1.52c0-2.74,0.61-4.26,1.52-5.47c1.22-1.22,2.74-1.82,4.87-1.82c0.91,0,1.82,0.91,1.82,1.82
				c0,0.91-0.91,1.82-1.82,1.82c-1.22,0-1.82,0.3-2.13,0.61c-0.3,0.3-0.61,0.91-0.61,3.04v1.52h2.13c0.91,0,1.82,0.91,1.82,1.82
				c0,0.91-0.91,1.82-1.82,1.82h-2.13v17.94C219.31,186.52,218.7,187.43,217.49,187.43"/>
			<path class="st19" d="M21.63,187.43c-0.91,0-1.82-0.91-1.82-1.82v-11.86c0-3.35-2.43-5.47-6.08-5.47c-3.35,0-6.08,2.43-6.08,5.47
				v11.86c0,0,0,1.82-1.82,1.82s-1.82-1.82-1.82-1.82v-28.59c0-0.91,0.91-1.82,1.82-1.82s1.82,0.91,1.82,1.82v9.43
				c1.82-1.22,3.65-2.13,6.08-2.13c5.47,0,9.73,3.95,9.73,9.12v11.86C23.76,186.52,22.85,187.43,21.63,187.43"/>
			<path class="st19" d="M46.57,187.43c-6.08,0-10.95-5.17-10.95-11.56s4.87-11.56,10.95-11.56s10.95,5.17,10.95,11.56
				S52.65,187.43,46.57,187.43 M46.57,167.97c-3.95,0-7.3,3.65-7.3,7.91c0,4.26,3.35,7.91,7.3,7.91s7.3-3.65,7.3-7.91
				S50.52,167.97,46.57,167.97"/>
			<path class="st19" d="M102.83,187.43c-0.91,0-1.82-0.91-1.82-1.82v-11.56c0-3.35-2.74-5.78-5.78-5.78
				c-3.35,0-5.78,2.74-5.78,5.78v11.56c0,0.3,0,0.3,0,0.3s0,0,0,0.3c-0.3,0.61-0.61,0.91-0.91,0.91c-0.3,0.3-0.61,0.3-0.91,0.3h-0.3
				h-0.3c-0.3,0-0.3,0-0.3-0.3c-0.3,0-0.3-0.3-0.3-0.3l0,0l-0.3-0.3l0,0c0,0,0,0,0-0.3v-0.3v-11.86c0-3.35-2.74-5.78-5.78-5.78
				c-3.35,0-5.78,2.74-5.78,5.78v11.56c0,0.61-0.3,1.22-0.91,1.52c0,0-0.3,0.3-0.61,0.3h-0.3h-0.3c-0.91,0-1.52-0.61-1.52-1.22v-0.3
				v-19.77c0-0.91,0.91-1.82,1.82-1.82s1.82,0.91,1.82,1.82v0.3c1.52-1.22,3.65-2.13,5.78-2.13c3.04,0,5.78,1.52,7.6,3.95
				c1.82-2.43,4.56-3.95,7.6-3.95c5.17,0,9.43,4.26,9.43,9.43v11.56C104.66,186.52,103.75,187.43,102.83,187.43"/>
			<path class="st19" d="M128.68,187.43c-6.08,0-11.25-5.17-11.25-11.56s5.17-11.56,11.25-11.56c5.78,0,10.64,4.56,11.25,10.64v0.3
				c0,0.91-0.91,1.82-1.82,1.82h-16.73c0.61,3.95,3.65,6.69,7.6,6.69c2.43,0,4.87-1.22,6.39-3.65c0.3-0.3,0.61-0.61,1.22-0.91
				c0.61,0,0.91,0,1.52,0.3c0.91,0.61,1.22,1.82,0.61,2.43C135.98,185.3,132.64,187.43,128.68,187.43 M121.38,173.44h14.29
				c-0.91-3.04-3.65-5.47-6.99-5.47C125.34,167.97,122.6,170.09,121.38,173.44"/>
		</g>
	</g>
</g>
</svg>
