<?xml version="1.0" encoding="utf-8"?>
<!-- Generator: Adobe Illustrator 25.2.3, SVG Export Plug-In . SVG Version: 6.00 Build 0)  -->
<svg version="1.1" id="Layer_1" xmlns="http://www.w3.org/2000/svg" xmlns:xlink="http://www.w3.org/1999/xlink" x="0px" y="0px"
	 viewBox="0 0 406.8 152.64" style="enable-background:new 0 0 406.8 152.64;" xml:space="preserve">
<style type="text/css">
	.st0{fill:#00665E;}
</style>
<g>
	<g>
		<path class="st0" d="M178.35,52.62h-0.87c-12.83,0-23.26,10.43-23.26,23.26v0.87c0,12.83,10.43,23.26,23.26,23.26h0.87
			c12.83,0,23.26-10.43,23.26-23.26v-0.87C201.6,63.05,191.17,52.62,178.35,52.62z M191.59,78.91c0,7.29-4.97,11.95-13.1,11.95
			c-8.32,0-14.26-6.09-14.26-14.53c0-8.45,5.94-14.54,14.26-14.54c6.61,0,11.55,3.82,12.82,9.44l-4.85,1.23
			c-1.04-3.82-3.95-6.13-7.97-6.13c-5.34,0-9.08,4.02-9.08,10c0,5.97,3.74,9.95,9.08,9.95c4.94,0,7.97-2.63,8.05-6.29h-7.61v-4.14
			h12.66V78.91z"/>
	</g>
	<g>
		<path class="st0" d="M103.32,52.62v47.39h47.4V52.62H103.32z M137.38,66.93h-15.58v6.93h14.18v4.34h-14.18v7.49h15.54v4.58h-20.67
			V62.39h20.71V66.93z"/>
	</g>
	<path class="st0" d="M77.96,75.12h-8.72v-8.2h8.64c3.5,0,5.14,1.35,5.14,4.06C83.02,73.7,81.22,75.12,77.96,75.12z"/>
	<path class="st0" d="M81.22,52.62h-28.8v47.39h47.39v-28.8C99.82,60.97,91.47,52.62,81.22,52.62z M87.64,90.27h-5.86l-6.73-10.56
		h-5.81v10.56H64.1V62.39h14.3c6.05,0,9.76,3.34,9.76,8.64c0,4.66-2.79,7.77-7.49,8.48v0.08L87.64,90.27z"/>
	<g>
		<path class="st0" d="M230.72,75.12h-8.72v-8.2h8.64c3.51,0,5.14,1.35,5.14,4.06C235.79,73.7,233.99,75.12,230.72,75.12z"/>
		<path class="st0" d="M234.01,52.62h-28.8v47.39h47.39v-28.8C252.6,60.97,244.26,52.62,234.01,52.62z M240.41,90.27h-5.85
			l-6.73-10.56h-5.82v10.56h-5.14V62.39h14.3c6.06,0,9.76,3.34,9.76,8.64c0,4.66-2.79,7.77-7.49,8.48v0.08L240.41,90.27z"/>
	</g>
	<g>
		<path class="st0" d="M338.09,76.32c0,6.73-3.14,9.35-9,9.35h-5.85V66.93h5.89C334.98,66.93,338.09,69.86,338.09,76.32z"/>
		<path class="st0" d="M330.68,52.62h-23.7v47.39h23.7c13.06,0,23.69-10.63,23.69-23.69C354.38,63.25,343.74,52.62,330.68,52.62z
			 M329.16,90.25H318.1V62.39h11.15c8.57,0,14.02,4.74,14.02,13.94C343.27,85.87,337.78,90.25,329.16,90.25z"/>
	</g>
	<g>
		<path class="st0" d="M256.1,52.62v47.39h47.39V52.62H256.1z M288.84,66.97h-6.48v18.72h6.48v4.58h-18.09v-4.58h6.48V66.97h-6.48
			v-4.58h18.09V66.97z"/>
	</g>
</g>
</svg>
