<?xml version="1.0" encoding="utf-8"?>
<!-- Generator: Adobe Illustrator 26.0.2, SVG Export Plug-In . SVG Version: 6.00 Build 0)  -->
<svg version="1.1" id="Layer_1" xmlns="http://www.w3.org/2000/svg" xmlns:xlink="http://www.w3.org/1999/xlink" x="0px" y="0px"
	 viewBox="0 0 425.78 227.92" style="enable-background:new 0 0 425.78 227.92;" xml:space="preserve">
<style type="text/css">
	.st0{fill:#595860;}
	.st1{fill:#F38229;}
</style>
<g>
	<path class="st0" d="M354.36,139.85c-0.25,0.44-0.58,0.77-0.99,1.01c-0.4,0.24-0.87,0.35-1.39,0.35c-0.88,0-1.57-0.28-2.07-0.85
		c-0.49-0.56-0.74-1.45-0.74-2.64v-3.63l-0.93-0.21v-0.95h0.93h1.48v4.81c0,0.87,0.13,1.46,0.38,1.79c0.26,0.33,0.65,0.49,1.2,0.49
		c0.53,0,0.96-0.11,1.3-0.32c0.34-0.21,0.6-0.51,0.78-0.9v-4.69l-1.09-0.21v-0.95h1.09h1.48v6.97l0.93,0.21v0.95h-2.26
		L354.36,139.85z M342.19,133.88v-0.95h2.55l0.14,1.18c0.23-0.42,0.51-0.74,0.85-0.98c0.34-0.24,0.73-0.35,1.16-0.35
		c0.12,0,0.23,0.01,0.36,0.03c0.12,0.02,0.22,0.04,0.28,0.06l-0.19,1.37l-0.84-0.05c-0.39,0-0.72,0.09-0.98,0.27
		c-0.27,0.18-0.47,0.44-0.62,0.77v4.66l1.23,0.21v0.95h-3.93v-0.95l1.22-0.21v-5.81L342.19,133.88z M338.66,139.85
		c-0.25,0.44-0.58,0.77-0.99,1.01c-0.4,0.24-0.87,0.35-1.39,0.35c-0.88,0-1.57-0.28-2.07-0.85c-0.49-0.56-0.74-1.45-0.74-2.64v-3.63
		l-0.93-0.21v-0.95h0.93h1.48v4.81c0,0.87,0.13,1.46,0.38,1.79c0.26,0.33,0.65,0.49,1.19,0.49c0.53,0,0.96-0.11,1.3-0.32
		c0.34-0.21,0.6-0.51,0.78-0.9v-4.69l-1.09-0.21v-0.95h1.09h1.48v6.97l0.93,0.21v0.95h-2.26L338.66,139.85z M327.8,130.3v-0.95h2.7
		v10.56l1.22,0.21v0.95h-3.93v-0.95l1.22-0.21v-9.39L327.8,130.3z M322.45,139.97c0.49,0,0.94-0.12,1.35-0.35
		c0.41-0.23,0.69-0.52,0.87-0.85v-1.33h-1.58c-0.6,0-1.08,0.14-1.44,0.42c-0.35,0.28-0.53,0.62-0.53,1.02
		c0,0.36,0.11,0.63,0.33,0.81C321.68,139.88,322.01,139.97,322.45,139.97z M324.84,141.06c-0.04-0.22-0.08-0.42-0.1-0.59
		c-0.03-0.18-0.04-0.35-0.05-0.53c-0.29,0.37-0.64,0.67-1.07,0.91c-0.43,0.24-0.88,0.36-1.37,0.37c-0.85,0-1.49-0.21-1.93-0.62
		c-0.44-0.41-0.66-0.99-0.66-1.75c0-0.77,0.31-1.37,0.93-1.78c0.63-0.42,1.48-0.63,2.57-0.63h1.53v-0.95c0-0.47-0.15-0.85-0.45-1.13
		c-0.3-0.28-0.72-0.42-1.25-0.42c-0.37,0-0.7,0.05-0.98,0.14c-0.28,0.09-0.51,0.23-0.69,0.39l-0.16,0.86H320v-1.58
		c0.37-0.29,0.82-0.53,1.35-0.71c0.53-0.18,1.1-0.27,1.71-0.27c0.92,0,1.67,0.24,2.24,0.71c0.57,0.47,0.86,1.14,0.86,2.02v3.91
		c0,0.1,0,0.21,0,0.31c0,0.1,0.01,0.2,0.02,0.3l0.6,0.08v0.95H324.84z M312.32,137.3c0,0.82,0.17,1.47,0.52,1.97
		c0.35,0.49,0.87,0.74,1.58,0.74c0.45,0,0.82-0.1,1.12-0.31c0.3-0.2,0.55-0.49,0.74-0.86v-3.74c-0.19-0.35-0.44-0.62-0.74-0.82
		c-0.31-0.2-0.67-0.3-1.1-0.3c-0.71,0-1.23,0.29-1.58,0.89c-0.35,0.59-0.53,1.35-0.53,2.28V137.3z M310.84,137.14
		c0-1.31,0.28-2.36,0.86-3.16c0.57-0.8,1.36-1.2,2.37-1.2c0.51,0,0.96,0.1,1.34,0.3c0.38,0.2,0.71,0.49,0.97,0.87l0.14-1.02h1.25
		v8.02c0,1.05-0.29,1.88-0.88,2.48c-0.58,0.61-1.42,0.91-2.5,0.91c-0.39,0-0.82-0.05-1.27-0.16c-0.45-0.11-0.86-0.25-1.2-0.44
		l0.38-1.15c0.28,0.14,0.6,0.26,0.98,0.36c0.37,0.09,0.74,0.14,1.1,0.14c0.66,0,1.15-0.18,1.45-0.56c0.31-0.37,0.46-0.9,0.46-1.58
		v-0.77c-0.27,0.34-0.58,0.6-0.95,0.77c-0.37,0.17-0.8,0.26-1.28,0.26c-1,0-1.78-0.36-2.35-1.08c-0.57-0.72-0.86-1.67-0.86-2.83
		V137.14z M300.79,140.11l1.22-0.21v-5.81l-1.22-0.21v-0.95h2.55l0.1,1.21c0.27-0.43,0.61-0.77,1.02-1
		c0.41-0.24,0.87-0.36,1.39-0.36c0.88,0,1.56,0.26,2.04,0.77c0.48,0.51,0.72,1.3,0.72,2.38v3.97l1.22,0.21v0.95h-3.93v-0.95
		l1.22-0.21v-3.94c0-0.72-0.14-1.23-0.42-1.52c-0.28-0.3-0.72-0.45-1.29-0.45c-0.43,0-0.8,0.1-1.13,0.31s-0.59,0.49-0.79,0.84v4.77
		l1.22,0.21v0.95h-3.93V140.11z M296.22,133.95c-0.5,0-0.92,0.21-1.27,0.63c-0.35,0.42-0.57,0.94-0.65,1.57l0.02,0.04h3.75v-0.2
		c0-0.58-0.16-1.07-0.47-1.46C297.29,134.14,296.83,133.95,296.22,133.95z M296.45,141.22c-1.13,0-2.03-0.38-2.7-1.13
		c-0.67-0.75-1-1.73-1-2.93v-0.33c0-1.16,0.34-2.12,1.03-2.89c0.69-0.77,1.5-1.15,2.44-1.15c1.09,0,1.92,0.33,2.48,0.99
		c0.56,0.66,0.85,1.54,0.85,2.64v0.92h-5.27l-0.02,0.04c0.01,0.78,0.21,1.43,0.59,1.93c0.38,0.5,0.91,0.75,1.6,0.75
		c0.5,0,0.94-0.07,1.32-0.21c0.38-0.14,0.7-0.34,0.98-0.59l0.58,0.96c-0.29,0.28-0.67,0.52-1.15,0.71
		C297.69,141.12,297.12,141.21,296.45,141.22z M396.75,139.97c0.49,0,0.94-0.12,1.35-0.35c0.41-0.23,0.7-0.52,0.87-0.85v-1.33h-1.58
		c-0.6,0-1.08,0.14-1.44,0.42c-0.35,0.28-0.53,0.62-0.53,1.02c0,0.36,0.11,0.63,0.33,0.81
		C395.98,139.88,396.31,139.97,396.75,139.97z M399.13,141.06c-0.04-0.22-0.08-0.42-0.11-0.59c-0.03-0.18-0.04-0.35-0.05-0.53
		c-0.29,0.37-0.64,0.67-1.07,0.91c-0.43,0.24-0.88,0.36-1.37,0.37c-0.85,0-1.49-0.21-1.93-0.62c-0.44-0.41-0.66-0.99-0.66-1.75
		c0-0.77,0.31-1.37,0.93-1.78c0.63-0.42,1.48-0.63,2.57-0.63h1.53v-0.95c0-0.47-0.15-0.85-0.45-1.13c-0.3-0.28-0.72-0.42-1.25-0.42
		c-0.37,0-0.7,0.05-0.98,0.14c-0.28,0.09-0.51,0.23-0.69,0.39l-0.16,0.86h-1.14v-1.58c0.37-0.29,0.82-0.53,1.35-0.71
		c0.53-0.18,1.1-0.27,1.71-0.27c0.92,0,1.67,0.24,2.24,0.71c0.57,0.47,0.86,1.14,0.86,2.02v3.91c0,0.1,0,0.21,0,0.31
		c0,0.1,0.01,0.2,0.02,0.3l0.6,0.08v0.95H399.13z M391.48,130.85H390v-1.51h1.48V130.85z M388.78,140.11l1.22-0.21v-5.81l-1.22-0.21
		v-0.95h2.7v6.97l1.23,0.21v0.95h-3.93V140.11z M381.03,137.3c0,0.82,0.17,1.47,0.5,1.97c0.34,0.49,0.85,0.74,1.56,0.74
		c0.44,0,0.81-0.1,1.11-0.3c0.3-0.2,0.55-0.48,0.74-0.85v-3.77c-0.19-0.34-0.44-0.61-0.74-0.81c-0.31-0.2-0.67-0.3-1.1-0.3
		c-0.71,0-1.23,0.29-1.56,0.88c-0.34,0.59-0.51,1.35-0.51,2.28V137.3z M385.02,140.09c-0.27,0.37-0.59,0.65-0.97,0.84
		c-0.38,0.19-0.83,0.28-1.33,0.29c-0.99,0-1.77-0.36-2.33-1.08c-0.56-0.72-0.84-1.66-0.84-2.84v-0.16c0-1.31,0.28-2.36,0.84-3.16
		c0.56-0.8,1.34-1.2,2.34-1.2c0.48,0,0.91,0.09,1.27,0.27c0.37,0.18,0.68,0.44,0.94,0.77v-3.31l-1.22-0.21v-0.95h1.22h1.48v10.56
		l1.23,0.21v0.95h-2.51L385.02,140.09z M369.51,140.11l1.22-0.21v-5.81l-1.22-0.21v-0.95h2.55l0.11,1.21c0.27-0.43,0.61-0.77,1.02-1
		c0.41-0.24,0.87-0.36,1.39-0.36c0.88,0,1.56,0.26,2.04,0.77c0.48,0.51,0.72,1.3,0.72,2.38v3.97l1.22,0.21v0.95h-3.93v-0.95
		l1.22-0.21v-3.94c0-0.72-0.14-1.23-0.42-1.52c-0.28-0.3-0.71-0.45-1.29-0.45c-0.43,0-0.8,0.1-1.13,0.31
		c-0.33,0.21-0.59,0.49-0.79,0.84v4.77l1.23,0.21v0.95h-3.93V140.11z M364.61,131.07v-0.95h3.93v0.95l-1.22,0.21v8.62l1.22,0.21
		v0.95h-3.93v-0.95l1.22-0.21v-8.62L364.61,131.07z M359.59,140.52c0,0.49-0.12,1-0.37,1.54c-0.24,0.54-0.57,0.98-0.99,1.34
		l-0.84-0.56c0.24-0.36,0.42-0.73,0.53-1.1c0.12-0.38,0.18-0.77,0.18-1.19v-1.14h1.48V140.52z M285.21,134.77h2.47
		c0.53-0.02,0.96-0.17,1.29-0.47c0.33-0.3,0.49-0.72,0.49-1.25c0-0.59-0.18-1.03-0.56-1.32c-0.37-0.29-0.9-0.44-1.61-0.44h-2.09
		V134.77z M285.21,135.93v3.97h2.55c0.68,0,1.2-0.17,1.57-0.5c0.37-0.33,0.56-0.8,0.56-1.41c0-0.64-0.16-1.15-0.47-1.51
		c-0.31-0.37-0.79-0.55-1.44-0.55H285.21z M287.29,130.12c1.14,0,2.04,0.25,2.68,0.74c0.64,0.49,0.96,1.23,0.96,2.22
		c0,0.48-0.15,0.92-0.46,1.3c-0.31,0.38-0.72,0.67-1.22,0.85c0.66,0.14,1.17,0.46,1.55,0.97c0.38,0.51,0.57,1.09,0.57,1.77
		c0,1-0.33,1.77-0.98,2.29c-0.65,0.53-1.53,0.79-2.64,0.79h-5.26v-0.95l1.23-0.21v-8.62l-1.23-0.21v-0.95h1.23H287.29z"/>
	<polygon class="st1" points="26.86,78.29 39.09,90.52 54.81,74.8 51.32,71.31 39.09,83.53 33.85,78.29 39.09,73.04 42.58,76.55 
		46.07,73.04 39.09,66.06 	"/>
	<polygon class="st1" points="103.72,78.31 91.5,90.53 84.51,83.55 88,80.06 91.5,83.55 96.74,78.31 91.5,73.06 79.27,85.3 
		75.77,81.8 91.5,66.08 	"/>
	<polygon class="st1" points="44.33,60.83 56.55,48.59 63.55,55.59 60.05,59.08 56.55,55.59 51.32,60.83 63.55,73.05 60.05,76.54 	
		"/>
	<polygon class="st1" points="86.26,95.76 74.03,107.99 67.04,101 70.53,97.51 74.03,101 79.27,95.76 67.04,83.53 70.53,80.04 	"/>
	<polygon class="st1" points="58.31,64.31 61.8,67.81 65.29,64.31 77.52,76.54 81.01,73.04 68.8,60.83 74.03,55.58 79.27,60.83 
		75.77,64.31 79.27,67.81 86.26,60.83 74.03,48.59 	"/>
	<polygon class="st1" points="65.29,92.27 53.07,80.04 49.57,83.53 61.8,95.76 56.55,101 51.32,95.76 54.81,92.27 51.32,88.78 
		44.33,95.76 56.55,107.99 72.28,92.27 68.79,88.78 	"/>
	
		<rect x="57.88" y="75.82" transform="matrix(0.7076 -0.7066 0.7066 0.7076 -36.2303 69.0317)" class="st1" width="14.82" height="4.94"/>
	
		<rect x="61.58" y="41.39" transform="matrix(0.7074 -0.7068 0.7068 0.7074 -12.7742 59.3441)" class="st1" width="7.41" height="7.41"/>
	<polygon class="st1" points="60.05,111.48 65.29,116.73 70.53,111.48 65.29,106.24 	"/>
	<path class="st1" d="M151.73,56.39c1.56,0,2.1-0.17,2.36-0.43c0.5-0.49,0.71-1.3,0.71-5.2c0-3.89-0.21-4.82-0.71-5.31
		c-0.26-0.27-0.81-0.44-2.36-0.44h-10.26v11.38H151.73z M160.71,72.54h4.34v5.25h-5.48c-2.27,0-3.08-0.38-3.73-1.02
		c-0.81-0.82-1.24-2.28-1.46-9.76c-0.1-3.03-0.48-4.01-1.19-4.71c-0.87-0.86-1.79-1.04-3.68-1.04h-8.02v11.39h5.21v5.14H130.6v-5.14
		h5.09V45.01h-5.09v-5.14h23.02c2.5,0,4.17,0.44,5.32,1.57c1.46,1.47,2.06,3.31,2.06,9c0,6.67-1.57,8.01-5.91,8.61v0.1
		c4.01,0.77,5.14,2.29,5.36,7.81C160.5,68.63,160.6,70.85,160.71,72.54z"/>
	<polygon class="st1" points="169.34,39.87 169.34,45.01 174.42,45.01 174.42,72.64 169.34,72.64 169.34,77.78 199.45,77.78 
		199.45,65.55 193.77,65.55 193.77,72.64 180.22,72.64 180.22,60.61 190.41,60.61 190.41,55.63 180.22,55.63 180.22,45.01 
		193.34,45.01 193.34,51.29 199.02,51.29 199.02,39.87 	"/>
	<path class="st1" d="M203.37,45.01v-5.14h15.78v5.14H214l7.91,27.16h0.8l7.97-27.16h-5.14v-5.14h15.17v5.14h-4.16l-9.76,31.1
		c-0.49,1.52-0.98,1.85-2.6,1.85h-4.27c-1.63,0-2.13-0.33-2.61-1.85l-9.75-31.1H203.37z"/>
	<path class="st1" d="M250.03,60.99h10.29L255.6,45h-0.82L250.03,60.99z M236.69,77.79v-5.15h4.13l9.8-31.1
		c0.49-1.52,0.97-1.84,2.6-1.84h4.55c1.63,0,2.12,0.32,2.6,1.84l9.82,31.1h4.12v5.15h-15.72v-5.15h5.2l-2-6.76
		c-3.31,0-9.7,0.05-13.18,0.05l-2,6.71h5.2v5.15H236.69z"/>
	<path class="st0" d="M149.42,88.31V85.9h11.22v2.41h-4.21v15.81c0,7.09-0.61,9.39-2.08,10.88c-0.99,0.95-2.44,1.34-5.45,1.34h-6.73
		c-3,0-4.35-0.39-5.31-1.34c-1.48-1.49-2.08-3.74-2.08-10.88V88.31h-4.18V85.9h11.21v2.41h-4.61v15.98c0,6.35,0.6,7.8,1.51,8.71
		c0.57,0.57,1.36,0.92,3.96,0.92h5.92c2.61,0,3.35-0.35,3.92-0.92c0.95-0.95,1.51-2.36,1.51-8.71V88.31H149.42z"/>
	<path class="st0" d="M186.2,88.31h-4.65V85.9h11.05v2.41h-3.96v28.06h-2.82c-0.95,0-1.31-0.25-1.7-1.03L170.17,88.2h-0.44v26.23
		h4.69v1.91h-11.17v-1.91h4.09V88.31h-4.09V85.9h7.28c0.95,0,1.3,0.22,1.69,1.04l13.83,26.84h0.16V88.31z"/>
	<polygon class="st0" points="195.76,85.9 195.76,88.32 200.24,88.32 200.24,113.93 195.76,113.93 195.76,116.34 207.11,116.34 
		207.11,113.93 202.69,113.93 202.69,88.32 207.11,88.32 207.11,85.9 	"/>
	<path class="st0" d="M210.07,88.31V85.9h10.84v2.41h-4.19l7.94,25.61h0.83l7.98-25.61h-4.04V85.9h10.66v2.41h-3.92l-8.79,27.03
		c-0.39,1.09-0.56,1.17-1.73,1.17h-1.18c-1.13,0-1.44-0.26-1.74-1.17l-8.75-27.03H210.07z"/>
	<polygon class="st0" points="243.07,85.9 243.07,88.32 247.19,88.32 247.19,113.93 243.07,113.93 243.07,116.34 266.23,116.34 
		266.23,109.89 263.83,109.89 263.83,113.93 249.63,113.93 249.63,101.77 260.28,101.77 260.28,99.35 249.63,99.35 249.63,88.32 
		263.83,88.32 263.83,92.23 266.23,92.23 266.23,85.9 	"/>
	<path class="st0" d="M287.05,100.2c1.78,0,2.64-0.24,3.25-0.85c0.61-0.62,1.37-1.48,1.37-5.19c0-3.73-0.65-4.4-1.31-5.06
		c-0.61-0.61-1.56-0.78-3.22-0.78h-9.59v11.88H287.05z M294.38,113.93h4.35v2.41h-4.66c-0.87,0-1.3-0.13-1.61-0.44
		c-0.48-0.48-0.65-1.12-0.83-7.34c-0.13-3.49-0.53-4.48-1.17-5.14c-0.7-0.74-1.66-0.81-3.53-0.81h-9.39v11.31h4.65v2.41h-11.22
		v-2.41h4.16V88.32h-4.16V85.9h16.78c2.24,0,3.54,0.3,4.49,1.3c1.18,1.18,1.87,2.57,1.87,6.92c0,5.23-1.48,6.66-4.18,7.35l0.65,0.09
		c2.82,0.57,3.22,1.73,3.44,6.96C294.2,112.51,294.25,112.87,294.38,113.93z"/>
	<path class="st0" d="M322.87,115.04c-0.78,0.83-2,1.3-4.26,1.3h-9.79c-2.17,0-3.34-0.34-4.26-1.21C303.48,114,303,113,303,107.47
		h2.4c0.05,4.7,0.36,4.97,1.01,5.62c0.61,0.62,1.39,0.84,2.87,0.84h9.1c1.57,0,2.35-0.26,2.96-0.87c0.74-0.7,0.76-1.54,0.76-4.75
		c0-3.31,0.12-3.5-0.66-4.28c-0.57-0.56-1.23-0.67-3.3-0.97l-8.76-1c-2.65-0.28-3.77-1.14-4.54-1.92c-0.97-0.97-1.4-2.36-1.4-6.23
		c0-3.56,0.49-5.43,1.73-6.69c0.84-0.82,2.01-1.3,4.23-1.3h8.83c2.17,0,3.36,0.35,4.26,1.22c1.18,1.21,1.52,2.43,1.55,7.39h-2.43
		c-0.05-4.14-0.3-4.67-1-5.37c-0.62-0.6-1.39-0.82-2.87-0.82h-7.78c-1.58,0-2.36,0.26-2.96,0.87c-0.79,0.79-1.05,1.8-1.05,4.68
		c0,3.17,0.26,3.96,0.95,4.66c0.56,0.55,1.32,0.68,3.32,0.95l8.49,0.87c2.47,0.26,3.73,0.69,4.53,1.48c0.99,1,1.42,2.53,1.42,6.49
		C324.66,112.22,324.09,113.82,322.87,115.04"/>
	<polygon class="st0" points="392.12,85.9 392.12,88.32 396.49,88.32 388.53,101.42 388.31,101.42 380.44,88.32 384.83,88.32 
		384.83,85.9 374,85.9 374,88.32 377.51,88.32 387.13,103.52 387.13,113.93 382.61,113.93 382.61,116.34 394,116.34 394,113.93 
		389.54,113.93 389.54,103.46 399.03,88.32 402.65,88.32 402.65,85.9 	"/>
	<polygon class="st0" points="345.24,85.9 345.24,93.94 347.65,93.94 347.65,87.81 356.56,87.81 356.56,113.93 352.06,113.93 
		352.06,116.34 363.45,116.34 363.45,113.93 358.97,113.93 358.97,87.81 367.88,87.81 367.88,93.94 370.29,93.94 370.29,85.9 	"/>
	<polygon class="st0" points="329.61,85.9 329.61,88.32 334.07,88.32 334.07,113.93 329.61,113.93 329.61,116.34 340.95,116.34 
		340.95,113.93 336.52,113.93 336.52,88.32 340.95,88.32 340.95,85.9 	"/>
</g>
</svg>
