<svg width="426" height="100" viewBox="0 0 426 100" fill="none" xmlns="http://www.w3.org/2000/svg">
<g clip-path="url(#clip0_950_6)">
<path d="M138.617 24H87.4568C85.3827 24 84 25.5861 84 27.4568V75.8539C84 77.7246 85.5961 79.3107 87.4568 79.3107C89.3175 79.3107 90.9136 77.7246 90.9136 75.8539V58.5699L113.728 78.6173C114.346 79.1005 115.074 79.3086 115.802 79.3086C116.797 79.3086 117.901 78.775 118.567 77.9259C119.714 76.4556 119.338 74.2392 117.876 73.0864L97.8265 55.1111H138.617C140.478 55.1111 142.074 53.525 142.074 51.6543V27.4568C142.074 25.5861 140.478 24 138.617 24ZM135.16 48.1996H90.9136V30.9156H135.16V48.1996Z" fill="#161C24"/>
<path d="M204.989 72.3951H157.285V55.1111H183.556C185.425 55.1111 187.013 53.525 187.013 51.6543C187.013 49.7836 185.425 48.1975 183.556 48.1975H157.285V30.9136L204.989 30.9116C206.858 30.9116 208.446 29.3254 208.446 27.4548C208.446 25.5841 206.857 24 204.988 24H153.828C151.959 24 150.371 25.5841 150.371 27.4548V75.8498C150.371 77.7205 151.959 79.3058 153.828 79.3058H204.989C206.858 79.3058 208.446 77.7205 208.446 75.8498C208.446 73.9791 206.858 72.3951 204.989 72.3951Z" fill="#161C24"/>
<path d="M328.74 72.3971H281.037V55.1131H307.308C309.177 55.1131 310.765 53.527 310.765 51.6563C310.765 49.7857 309.177 48.1996 307.308 48.1996H281.037V30.9156L328.741 30.9136C330.61 30.9136 332.197 29.3275 332.197 27.4568C332.197 25.5861 330.609 24.002 328.74 24.002L277.58 24C275.711 24 274.123 25.5861 274.123 27.4568V75.8519C274.123 77.7225 275.711 79.3078 277.58 79.3078H328.74C330.609 79.3078 332.197 77.7225 332.197 75.8519C332.197 73.9812 330.609 72.3971 328.74 72.3971Z" fill="#161C24"/>
<path d="M394.42 24H343.951C342.08 24 340.494 25.5861 340.494 27.4568V75.8516C340.494 77.7223 342.08 79.3086 343.951 79.3086C345.822 79.3086 347.408 77.7223 347.408 75.8516V55.1109H373.679C375.55 55.1109 377.136 53.5248 377.136 51.6541C377.136 49.7834 375.55 48.1973 373.679 48.1973H347.408V30.9136H394.42C396.291 30.9136 397.877 29.3275 397.877 27.4568C397.877 25.5861 396.291 24 394.42 24Z" fill="#161C24"/>
<path d="M409.629 24C407.717 24 406.172 25.5861 406.172 27.4568V75.8519C406.172 77.7225 407.717 79.3058 409.629 79.3058C411.54 79.3058 413.086 77.7225 413.086 75.8519V27.4568C413.086 25.5861 411.54 24 409.629 24Z" fill="#161C24"/>
<path d="M264.342 24.5865C262.796 23.5304 260.692 23.9403 259.644 25.4968L229.314 70.5293L211.169 43.5766C210.121 42.0201 208.017 41.6102 206.471 42.6663C204.926 43.7225 204.526 45.8418 205.568 47.3983L226.513 78.5061C226.513 78.5061 226.568 78.5617 226.595 78.5964C226.72 78.7632 226.851 78.923 227.009 79.0689C227.078 79.1314 227.147 79.187 227.223 79.2496C227.292 79.3052 227.347 79.3677 227.423 79.4163C227.513 79.4719 227.603 79.5206 227.692 79.5692C227.727 79.59 227.768 79.6109 227.803 79.6317C228.017 79.7429 228.244 79.8263 228.472 79.8819C228.513 79.8958 228.555 79.9027 228.596 79.9097C228.838 79.9652 229.079 80 229.32 80C229.562 80 229.803 79.9652 230.045 79.9097C230.086 79.9027 230.128 79.8958 230.169 79.8819C230.397 79.8193 230.624 79.7429 230.838 79.6317C230.88 79.6109 230.914 79.59 230.949 79.5692C231.038 79.5206 231.128 79.4719 231.218 79.4163C231.294 79.3677 231.349 79.3052 231.418 79.2496C231.494 79.194 231.563 79.1314 231.632 79.0689C231.783 78.923 231.921 78.7701 232.039 78.5964C232.066 78.5617 232.094 78.5408 232.121 78.5061L265.245 29.3184C266.294 27.7619 265.887 25.6427 264.342 24.5865Z" fill="#161C24"/>
</g>
<g clip-path="url(#clip1_950_6)">
<path d="M13 62.7182L13.0006 85.5404C13.0006 85.8501 13.3326 86.0434 13.5978 85.8881L57.8616 59.9637C57.9844 59.8918 58.0599 59.7593 58.0599 59.616L58.0593 36.7937C58.0593 36.4841 57.7273 36.2907 57.4621 36.446L13.1983 62.3705C13.0756 62.4423 13 62.5748 13 62.7182Z" fill="#161C24"/>
<path d="M54.2003 34.4654L34.7489 45.876C34.6259 45.9482 34.4741 45.9485 34.3508 45.8768L13.1994 33.5732C13.0761 33.5015 13.0001 33.3687 13.0001 33.2249V10.4025C13.0001 10.093 13.3317 9.89968 13.5968 10.0545L54.1997 33.7698C54.4643 33.9244 54.4647 34.3103 54.2003 34.4654Z" fill="#161C24"/>
<path d="M65.3008 77.8535L49.1174 68.4319C48.9942 68.3601 48.8424 68.3603 48.7194 68.4324L29.2689 79.8288C29.0042 79.9839 29.0047 80.3704 29.2698 80.5247L45.4539 89.9463C45.5771 90.0181 45.7289 90.0179 45.8519 89.9458L65.3018 78.5494C65.5665 78.3943 65.566 78.0079 65.3008 77.8535Z" fill="#161C24"/>
</g>
<defs>
<clipPath id="clip0_950_6">
<rect width="329.086" height="56" fill="white" transform="translate(84 24)"/>
</clipPath>
<clipPath id="clip1_950_6">
<rect width="52.5" height="80" fill="white" transform="translate(13 10)"/>
</clipPath>
</defs>
</svg>
