<?xml version="1.0" encoding="utf-8"?>
<!-- Generator: Adobe Illustrator 17.0.0, SVG Export Plug-In . SVG Version: 6.00 Build 0)  -->
<!DOCTYPE svg PUBLIC "-//W3C//DTD SVG 1.1//EN" "http://www.w3.org/Graphics/SVG/1.1/DTD/svg11.dtd">
<svg version="1.1" id="Layer_1" xmlns="http://www.w3.org/2000/svg" xmlns:xlink="http://www.w3.org/1999/xlink" x="0px" y="0px"
	 width="2984px" height="1116px" viewBox="0 0 2984 1116" style="enable-background:new 0 0 2984 1116;" xml:space="preserve">
<style type="text/css">
	.st0{fill-rule:evenodd;clip-rule:evenodd;fill:#4366AC;}
	.st1{fill-rule:evenodd;clip-rule:evenodd;fill:#8DCCB9;}
</style>
<g>
	<path class="st0" d="M468.837,651.993c-79.683,14.055-112.611,110.018-59.09,170.07l5.128,5.35
		c30.284,31.322,63.032,60.246,97.931,86.466h0.158c31.621-23.76,61.478-49.74,89.339-77.708
		c-54.454-11.831-105.598-36.981-147.965-72.548C415.349,730.893,425.378,671.702,468.837,651.993L468.837,651.993z"/>
	<path class="st1" d="M524.207,652.272c38.411,17.882,50.752,67.59,23.745,101.407c-12.258,15.35-30.65,24.273-49.847,24.837
		c32.371-0.248,63.231-6.862,91.382-18.654c30.73-12.872,58.238-29.315,72.939-60.831c22.493-48.231,3.081-105.253-43.283-130.044
		l-428.2-201.615c6.75,49.359,17.872,97.328,32.956,143.502L524.207,652.272L524.207,652.272z"/>
	<path class="st0" d="M624.027,288.585c0.801,10.384,4.04,20.442,9.408,29.322l1.218,1.939c6.506,9.972,15.774,18.31,27.34,23.735
		c-3.96,2.14-7.681,4.755-11.07,7.8c-5.595,5.023-10.284,11.232-13.663,18.474c-13.429,28.795-0.973,63.015,27.821,76.44
		l24.335,11.458l0.305,0.148c17.3,8.186,32.116,19.874,43.879,33.929c-0.945-4.994-2.043-9.935-3.289-14.819
		c-2.344-9.189-5.217-18.162-8.581-26.895c-0.676-1.451-1.257-2.923-1.746-4.406l-0.933-2.255l0.226-0.137
		c-2.309-8.837-1.444-17.99,2.072-26.018c3.745-8.564,10.506-15.854,19.641-20.108c1.95-0.908,3.928-1.645,5.929-2.22
		c18.496-5.289,38.612,3.494,47,21.481c2.155,4.621,3.343,9.444,3.656,14.241c2.194-2.725,4.097-5.757,5.641-9.067
		c10.248-21.979,0.869-48.073-20.938-58.533l-0.581-0.272l-0.122-0.061l-53.158-25.024l-65.474-30.834l-0.384-0.179
		c-20.467-9.728-32.45-30.163-32.371-51.463l-0.126,0.266C625.068,266.228,623.183,277.59,624.027,288.585L624.027,288.585z"/>
	<path class="st0" d="M186.713,330.115l156.693,73.777L633.473,540.47c39.966,20.065,66.294,62.307,69.799,106.05
		c15.957-16.011,26.101-37.269,28.482-59.776c4.309-40.723-17.02-81.471-55.915-100.114l-1.275-0.6L183.313,254.727
		C183.313,280.139,184.462,305.288,186.713,330.115L186.713,330.115z"/>
	<path class="st0" d="M1085.987,626.53c8.826,5.946,16.795,12.701,23.893,20.27c-8.771,12.123-16.141,25.211-22.094,39.143
		c-3.325,7.789-6.1,15.732-8.342,23.793c-3.881-8.636-9.164-16.209-15.681-22.73c-6.883-6.88-14.851-12.291-23.997-16.223
		c-9.045-3.933-18.779-5.9-29.006-5.9c-10.23,0-20.062,1.968-29.304,5.9c-9.344,3.932-17.308,9.343-23.993,16.223
		c-6.69,6.887-12.098,14.948-16.029,24.191c-3.936,9.246-5.904,18.981-5.904,29.211V853.69v64.311h-60.77V740.408V604.11h60.77
		l0.492,22.421c10.625-7.077,22.323-12.586,35.11-16.521c12.78-3.932,26.059-5.9,39.822-5.9c13.767,0,27.143,1.968,39.929,5.9
		C1063.664,613.945,1075.37,619.453,1085.987,626.53L1085.987,626.53z"/>
	<path class="st0" d="M1287.714,783.472h-118.593c2.359,10.622,6.392,20.553,12.094,29.8c5.705,9.242,12.686,17.211,20.945,23.893
		c8.262,6.687,17.505,11.9,27.734,15.634c10.224,3.742,21.042,5.609,32.451,5.609c13.767,0,26.651-2.755,38.647-8.259
		c11.996-5.509,22.518-13.179,31.567-23.014h11.207h60.185c-2.363,5.9-5.214,11.505-8.557,16.819
		c-3.342,5.307-6.98,10.521-10.915,15.634c-14.159,18.094-31.861,32.547-53.101,43.366c-21.24,10.815-44.253,16.223-69.032,16.223
		c-21.635,0-41.894-4.029-60.774-12.094c-18.88-8.065-35.401-19.174-49.56-33.337c-14.162-14.158-25.275-30.679-33.337-49.563
		c-8.061-18.88-12.097-39.135-12.097-60.77c0-21.634,4.036-41.893,12.097-60.77c8.062-18.884,19.175-35.405,33.337-49.563
		c14.158-14.158,30.68-25.275,49.56-33.336c18.88-8.062,39.14-12.094,60.774-12.094c24.78,0,47.793,5.407,69.032,16.227
		c21.24,10.816,38.942,25.47,53.101,43.955c12.981,15.732,22.42,34.224,28.319,55.463c3.542,12.586,5.312,25.961,5.312,40.119
		c0,7.081-0.588,13.767-1.77,20.058h-61.363H1287.714L1287.714,783.472z M1262.345,668.42c-19.276,0-36.482,4.916-51.629,14.848
		c-15.142,9.935-26.651,23.11-34.514,39.434h137.473h34.812c-1.968-3.145-3.835-6.194-5.608-9.34c-1.767-3.149-3.634-6-5.602-8.754
		c-9.044-11.308-20.061-20.159-33.042-26.551C1291.255,671.663,1277.29,668.42,1262.345,668.42L1262.345,668.42z"/>
	<path class="st0" d="M2235.831,607.061c21.633,0,41.893,4.029,60.769,12.093c18.885,8.061,35.406,19.175,49.564,33.337
		c14.163,14.159,25.271,30.679,33.337,49.564c8.065,18.876,12.094,39.132,12.094,60.77c0,21.631-4.029,41.893-12.094,60.77
		c-8.066,18.884-19.174,35.405-33.337,49.563c-14.158,14.159-30.679,25.272-49.564,33.337
		c-18.876,8.061-39.136,12.093-60.769,12.093c-21.635,0-41.894-4.032-60.771-12.093c-18.885-8.065-35.406-19.178-49.564-33.337
		s-25.271-30.679-33.336-49.563c-8.062-18.877-12.094-39.14-12.094-60.77c0-21.638,4.032-41.894,12.094-60.77
		c8.065-18.884,19.178-35.405,33.336-49.564c14.158-14.162,30.68-25.276,49.564-33.337
		C2193.937,611.09,2214.196,607.061,2235.831,607.061L2235.831,607.061z M2236.124,857.819c12.981,0,25.175-2.459,36.781-7.376
		c11.505-4.915,21.635-11.702,30.288-20.36c8.65-8.65,15.34-18.779,20.255-30.385c4.916-11.601,7.376-23.896,7.376-36.873
		c0-12.981-2.46-25.276-7.376-36.877c-4.916-11.602-11.605-21.732-20.255-30.389c-8.653-8.654-18.783-15.437-30.288-20.353
		c-11.606-4.919-23.799-7.375-36.781-7.375c-12.977,0-25.171,2.456-36.776,7.375c-11.506,4.916-21.635,11.699-30.289,20.353
		c-8.654,8.657-15.437,18.787-20.554,30.389c-5.112,11.601-7.669,23.896-7.669,36.877c0,12.977,2.557,25.272,7.669,36.873
		c5.117,11.606,11.9,21.736,20.554,30.385c8.654,8.657,18.782,15.445,30.289,20.36
		C2210.953,855.36,2223.147,857.819,2236.124,857.819L2236.124,857.819z"/>
	<path class="st0" d="M2636.083,627.708c18.683,12.589,33.534,28.813,44.447,48.677c10.919,19.867,16.324,41.599,16.324,65.201
		v177.593h-60.77v-64.311V741.586c0-10.23-1.964-19.968-5.9-29.211c-3.935-9.242-9.439-17.304-16.324-24.191
		c-6.883-6.88-14.851-12.291-23.997-16.223c-9.045-3.932-18.78-5.9-29.007-5.9c-10.23,0-20.062,1.968-29.304,5.9
		c-9.343,3.932-17.307,9.343-23.994,16.223c-6.689,6.887-12.097,14.948-16.029,24.191c-3.935,9.243-5.902,18.981-5.902,29.211
		v113.282v64.311h-60.771V741.586V605.287h60.771l0.492,22.421c10.625-7.077,22.324-12.586,35.107-16.521
		c12.783-3.932,26.059-5.9,39.825-5.9s27.143,1.968,39.929,5.9C2613.759,615.122,2625.465,620.631,2636.083,627.708
		L2636.083,627.708z"/>
	<polygon class="st0" points="1986.034,607.061 2046.804,607.061 2046.804,919.179 1986.034,919.179 1986.034,607.061 	"/>
	<polygon class="st0" points="1863.901,919.179 1863.901,514.423 1924.671,514.423 1924.671,919.179 1863.901,919.179 	"/>
	<polygon class="st0" points="1741.765,607.061 1802.534,607.061 1802.534,919.179 1741.765,919.179 1741.765,607.061 	"/>
	<polygon class="st0" points="1692.036,607.65 1654.867,667.735 1538.041,858.409 1692.036,858.409 1692.036,919.179 
		1500.87,919.179 1430.067,919.179 1467.242,859.098 1584.064,668.42 1430.067,668.42 1430.067,607.061 1621.237,607.061 
		1692.036,607.061 1692.036,607.65 	"/>
	<polygon class="st1" points="1802.534,514.426 1741.765,514.426 1802.534,575.193 1802.534,514.426 	"/>
	<polygon class="st1" points="2046.804,514.426 1986.034,514.426 2046.804,575.193 2046.804,514.426 	"/>
</g>
</svg>
