<svg xmlns="http://www.w3.org/2000/svg" role="img" viewBox="-1.29 0.21 353.08 98.33"><defs><style>.st0{fill:#9f032d}</style></defs><path d="M58.86 28.24c0-11.72-9.49-21.26-21.29-21.26H5.71v85.04h10.63V49.5l29.57 42.52h12.95L29.29 49.5h8.28c11.8 0 21.29-9.54 21.29-21.26zM37.57 17.61c5.94 0 10.66 4.77 10.66 10.63s-4.72 10.63-10.66 10.63H16.34V17.61h21.23z" class="st0"/><path d="M267.65 62.42h8.45v29.6h4.23v-29.6h8.46v-4.23h-21.14v4.23zm-142.4-4.23V82.8l-12.69-24.61h-4.23v33.83h4.23v-24.6l12.69 24.6h4.23V58.19h-4.23zm-28.21 0v25.35c0 1.63-.86 3.02-2.25 3.76-.67.36-1.25.49-3.18.49h-1.83c-1.93 0-2.51-.13-3.18-.49-1.39-.74-2.25-2.17-2.25-3.76V58.19h-4.23v25.35c0 3.2 1.72 6.02 4.5 7.49 1.59.84 2.97.99 5.17.99h1.83c2.19 0 3.57-.14 5.16-.98 2.77-1.48 4.49-4.3 4.49-7.5V58.19h-4.23zm83.31 4.72c.67-.36 1.25-.49 3.18-.49h11.49v-4.23h-11.49c-2.19 0-3.58.14-5.16.99-2.78 1.47-4.5 4.3-4.5 7.5v16.86c0 3.2 1.72 6.02 4.5 7.5 1.58.85 2.97.99 5.16.99h11.49v-4.22h-11.49c-1.93 0-2.51-.14-3.18-.49-1.38-.74-2.25-2.16-2.25-3.76v-6.31h16.92v-4.23H178.1v-6.31c0-1.6.86-3.03 2.25-3.76m35.04-.53c2.37 0 4.25 1.9 4.25 4.23s-1.88 4.23-4.25 4.23h-8.44v-8.46h8.44zm8.47 4.23c0-4.67-3.78-8.46-8.48-8.46h-12.67v33.84h4.23V75.11l11.76 16.92h5.16l-11.77-16.92h3.29c4.7 0 8.48-3.8 8.48-8.46m74.19-8.55h-4.71l8.46 17.4v16.43h4.23V75.5l8.46-17.4h-4.7l-5.87 12.07-5.87-12.07zm-68.66 4.58c-.84 1.59-.99 2.83-.99 5.02s.14 3.43.99 5.02c1.47 2.77 4.3 4.5 7.5 4.5h4.18c1.63 0 3.02.86 3.76 2.25.36.67.49 1.11.49 3.03s-.13 2.37-.49 3.04c-.74 1.38-2.13 2.25-3.76 2.25H228.4v4.23h12.67c3.2 0 6.03-1.72 7.5-4.5.84-1.59.98-2.83.98-5.02s-.14-3.43-.98-5.02c-1.47-2.77-4.3-4.5-7.5-4.5h-4.18c-1.63 0-3.03-.86-3.76-2.25-.36-.67-.49-1.11-.49-3.04s.13-2.37.49-3.04c.73-1.38 2.13-2.25 3.76-2.25h12.67v-4.23h-12.67c-3.2 0-6.02 1.72-7.5 4.49m-64.43-4.47l-6.21 24.84-6.21-24.84h-4.36l8.39 33.55-.06.26H161l-.07-.26 8.39-33.55h-4.36zm-27.86 0h4.23v33.83h-4.23zm119.47 0h4.23v33.83h-4.23z" class="st0"/><path d="M108.17 6.99h4.24v33.93h-4.24zm150.09 0h4.24v33.93h-4.24zm-139 4.24h8.48v29.68h4.24V11.23h8.48V6.99h-21.2v4.24m26.68.26c-.85 1.59-.99 2.84-.99 5.04s.15 3.45.99 5.04c1.48 2.78 4.31 4.51 7.52 4.51h4.19c1.64 0 3.03.87 3.77 2.26.36.67.49 1.11.49 3.05s-.14 2.37-.49 3.05c-.74 1.39-2.14 2.26-3.77 2.26h-12.7v4.24h12.7c3.21 0 6.04-1.73 7.52-4.5.85-1.59.99-2.84.99-5.04s-.14-3.44-.99-5.04c-1.48-2.78-4.31-4.51-7.52-4.51h-4.19c-1.64 0-3.03-.86-3.77-2.25-.36-.67-.49-1.11-.49-3.05s.14-2.37.49-3.04c.74-1.39 2.14-2.26 3.77-2.26h12.7V7.01h-12.7c-3.21 0-6.04 1.73-7.52 4.5m139.83-4.52l-11.4 13.41V6.99h-4.24v33.92h4.24V27.5l11.4 13.41h5.56l-14.41-16.96 14.41-16.96h-5.56m55.17 0v24.67L328.22 6.99h-4.24v33.92h4.24V16.24l12.72 24.67h4.24V6.99h-4.24M190.07 32.41c0 1.63-.87 3.03-2.25 3.77-.67.36-1.25.49-3.19.49h-1.84c-1.94 0-2.51-.14-3.19-.5-1.39-.74-2.26-2.17-2.26-3.77V6.98h-4.24V32.4c0 3.21 1.73 6.04 4.51 7.51 1.59.85 2.98.99 5.18.99h1.84c2.2 0 3.59-.14 5.18-.99 2.78-1.48 4.5-4.31 4.5-7.52V6.97h-4.24v25.42m43.85-24.41c-2.78 1.48-4.5 4.31-4.5 7.52v16.91c0 3.21 1.73 6.04 4.5 7.52 1.59.85 2.98.99 5.18.99h11.52v-4.24H239.1c-1.93 0-2.51-.14-3.19-.5-1.39-.74-2.26-2.17-2.26-3.77v-6.34h16.97v-4.24h-16.97V15.5c0-1.6.87-3.03 2.26-3.77.67-.36 1.25-.49 3.19-.49h11.52V6.99H239.1c-2.19 0-3.59.15-5.18.99M84.36 19.71v-8.48h8.47c2.37 0 4.25 1.9 4.25 4.24s-1.88 4.24-4.25 4.24h-8.47m16.96-4.24c0-4.68-3.79-8.48-8.49-8.48H80.12v33.93h4.24V23.96l11.8 16.96h5.17l-11.8-16.96h3.31c4.71 0 8.49-3.8 8.49-8.48m198.73 6.35v-6.34c0-1.64.87-3.03 2.26-3.77.67-.36 1.25-.49 3.18-.49h1.84c1.94 0 2.51.14 3.19.5 1.39.74 2.26 2.17 2.26 3.77v6.33h-12.72m12.45-13.86c-1.59-.85-2.98-.99-5.18-.99h-1.84c-2.2 0-3.59.14-5.18.99-2.78 1.48-4.51 4.31-4.51 7.52v25.42h4.24V26.07h12.72v14.84h4.24V15.49c0-3.21-1.73-6.04-4.5-7.52m-90.04-.98h-4.63l-5.98 13.76-5.97-13.76h-4.63v33.92h4.24V16.75l4.05 9.32h4.63l4.05-9.32v24.16h4.24V6.99" class="st0"/></svg>