<?xml version="1.0" encoding="UTF-8"?>
<!DOCTYPE svg PUBLIC "-//W3C//DTD SVG 1.1//EN" "http://www.w3.org/Graphics/SVG/1.1/DTD/svg11.dtd">
<!-- Creator: CorelDRAW -->
<svg xmlns="http://www.w3.org/2000/svg" xml:space="preserve" width="1281px" height="234px" version="1.1" style="shape-rendering:geometricPrecision; text-rendering:geometricPrecision; image-rendering:optimizeQuality; fill-rule:evenodd; clip-rule:evenodd"
viewBox="0 0 1281 233.71"
 xmlns:xlink="http://www.w3.org/1999/xlink"
 xmlns:xodm="http://www.corel.com/coreldraw/odm/2003">
 <defs>
  <style type="text/css">
   <![CDATA[
    .fil0 {fill:#7D901A}
    .fil1 {fill:black;fill-rule:nonzero}
    .fil2 {fill:#7D901A;fill-rule:nonzero}
   ]]>
  </style>
 </defs>
 <g id="Layer_x0020_1">
  <metadata id="CorelCorpID_0Corel-Layer"/>
  <g id="_2471442898624">
   <path class="fil0" d="M134.932 171.005c-35.062,0 -32.182,-28.174 -32.182,-54.448 26.888,0 56.384,0 83.273,0 32.325,0 58.768,26.444 58.768,58.767 0,24.967 -25.278,56.455 -51.15,58.281 1.517,-33.944 -24.371,-62.6 -58.709,-62.6zm-134.932 44.189l0 18.516 54.45 0 0 -18.516 0 -38.755 0 -0.007 0 -14.837 0 -99.103c0,-2.556 0.167,-5.081 0.488,-7.552 2.471,-0.323 4.992,-0.491 7.548,-0.491l72.446 0c34.338,0 60.226,28.656 58.709,62.603 25.872,-1.831 51.15,-33.318 51.15,-58.284 0,-32.325 -26.443,-58.768 -58.768,-58.768l-72.444 0c-31.037,0 -56.654,24.378 -58.641,54.94 -30.553,1.986 -54.938,27.61 -54.938,58.645l0 48.01 0 53.599zm193.481 18.422l0.09 -0.011 -0.008 0.105 -0.082 -0.094z"/>
   <path class="fil1" d="M339.781 17.02c-4.087,0 -6.131,2.045 -6.131,6.132l0 132.446c0,3.066 1.634,4.497 4.7,4.497l22.075 0c3.066,0 4.497,-1.431 4.497,-4.497l0 -40.672 66.02 0 32.293 42.512c1.227,1.839 2.248,2.657 5.724,2.657l26.367 0c3.679,0 3.882,-3.678 2.653,-5.11l-34.948 -43.33c21.459,-3.884 30.455,-17.578 30.455,-40.877l0 -11.652c0,-27.595 -12.675,-42.106 -43.947,-42.106l-109.758 0zm25.141 30.454c0,-1.634 0.818,-2.452 2.658,-2.452l75.625 0c13.897,0 19.009,5.928 19.009,18.191l0 8.586c0,12.263 -5.112,18.189 -19.009,18.189l-78.283 0 0 -42.514zm185.179 -30.454c-24.733,0 -36.178,13.491 -36.178,33.317l0 14.922c0,22.481 12.263,35.152 35.769,35.152l76.647 0c7.153,0 10.628,3.886 10.628,11.449l0 8.379c0,7.153 -3.065,11.445 -10.833,11.445l-107.306 0c-3.066,0 -4.7,1.431 -4.7,4.496l0 19.418c0,3.066 1.634,4.497 4.7,4.497l113.234 0c24.731,0 36.177,-13.489 36.177,-33.317l0 -16.349c0,-22.483 -12.262,-35.157 -35.769,-35.157l-76.646 0c-7.154,0 -10.629,-3.881 -10.629,-11.446l0 -6.95c0,-7.152 3.066,-11.444 10.832,-11.444l102.402 0c3.065,0 4.495,-1.432 4.495,-4.497l0 -19.418c0,-3.066 -1.43,-4.497 -4.495,-4.497l-108.328 0zm159.629 0c-14.511,0 -18.189,5.724 -18.189,21.257l0 117.321c0,3.066 1.634,4.497 4.7,4.497l20.846 0c3.066,0 4.499,-1.431 4.499,-4.497l0 -106.693c0,-1.431 0.406,-2.043 1.634,-2.043l1.84 0c1.432,0 2.25,0.409 2.657,1.636l41.288 91.568c6.745,14.716 12.468,20.029 26.162,20.029l9.81 0c13.695,0 19.417,-5.313 26.165,-20.029l41.285 -91.568c0.41,-1.227 1.226,-1.636 2.658,-1.636l1.839 0c1.226,0 1.634,0.612 1.634,2.043l0 106.693c0,3.066 1.432,4.497 4.497,4.497l20.847 0c3.068,0 4.702,-1.431 4.702,-4.497l0 -117.321c0,-15.533 -3.68,-21.257 -17.986,-21.257l-21.872 0c-12.058,0 -16.145,2.658 -21.663,15.536l-42.514 98.106c-0.613,1.431 -1.431,1.84 -2.86,1.84l-2.453 0c-1.431,0 -2.25,-0.409 -2.862,-1.84l-42.517 -98.106c-5.518,-12.878 -9.605,-15.536 -21.867,-15.536l-22.28 0zm281.448 0c-41.286,0 -57.23,14.717 -57.23,53.961l0 35.156c0,39.243 15.944,53.958 57.23,53.958l92.179 0c3.066,0 4.498,-1.431 4.498,-4.497l0 -20.03c0,-3.066 -1.432,-4.497 -4.498,-4.497l-90.954 0c-21.051,0 -27.183,-6.335 -27.183,-28l0 -29.024c0,-21.667 6.132,-27.799 27.183,-27.799l90.954 0c3.066,0 4.498,-1.634 4.498,-4.7l0 -20.031c0,-3.066 -1.432,-4.497 -4.498,-4.497l-92.179 0z"/>
   <path class="fil2" d="M1107.272 143.746c-1.227,0 -1.908,0.679 -1.908,2.042l0 12.399c0,1.227 0.681,1.908 1.908,1.908l8.447 0c1.227,0 1.908,-0.681 1.908,-1.908l0 -12.399c0,-1.363 -0.681,-2.042 -1.908,-2.042l-8.447 0zm82.163 -79.034c-3.952,0 -6.678,1.5 -9.812,6.95l-50.141 86.115c-0.819,1.365 -0.274,2.318 1.087,2.318l10.768 0c1.225,0 1.769,-0.408 2.315,-1.226l11.99 -20.849 73.854 0 12.126 20.849c0.41,0.818 1.092,1.226 2.318,1.226l10.49 0c1.363,0 1.907,-0.953 1.091,-2.318l-50.279 -86.115c-3.134,-5.45 -5.86,-6.95 -10.765,-6.95l-5.042 0zm1.091 13.218c0.406,-0.816 0.815,-0.952 1.633,-0.952l0.82 0c0.68,0 1.088,0.136 1.634,0.952l28.887 49.872 -61.862 0 28.888 -49.872zm79.3 -13.218c-1.225,0 -1.905,0.682 -1.905,1.909l0 91.566c0,1.227 0.68,1.908 1.905,1.908l9.266 0c1.226,0 1.908,-0.681 1.908,-1.908l0 -91.566c0,-1.227 -0.682,-1.909 -1.908,-1.909l-9.266 0z"/>
   <path class="fil1" d="M371.155 216.202l-0.049 -34.252 -5.235 0 -13.366 22.704 -13.62 -22.704 -5.235 0 0 34.252 6.067 0 0 -22.411 11.263 18.495 2.845 0 11.263 -18.788 0.049 22.704 6.018 0zm30.423 0.489c10.618,0 18.447,-7.437 18.447,-17.616 0,-10.178 -7.829,-17.616 -18.447,-17.616 -10.619,0 -18.447,7.487 -18.447,17.616 0,10.13 7.828,17.616 18.447,17.616zm0 -5.578c-6.899,0 -12.039,-5.04 -12.039,-12.038 0,-6.997 5.14,-12.037 12.039,-12.037 6.898,0 12.036,5.04 12.036,12.037 0,6.998 -5.138,12.038 -12.036,12.038zm30.399 5.089l14.973 0c11.107,0 18.691,-6.851 18.691,-17.127 0,-10.276 -7.584,-17.125 -18.691,-17.125l-14.973 0 0 34.252zm6.36 -5.382l0 -23.489 8.318 0c7.633,0 12.575,4.649 12.575,11.744 0,7.096 -4.942,11.745 -12.575,11.745l-8.318 0zm45.617 0.049l0 -9.445 16.539 0 0 -5.236 -16.539 0 0 -8.906 18.644 0 0 -5.332 -25.004 0 0 34.252 25.689 0 0 -5.333 -19.329 0zm60.884 5.333l-7.879 -11.256c4.649,-1.81 7.291,-5.626 7.291,-10.813 0,-7.584 -5.578,-12.183 -14.58,-12.183l-14.093 0 0 34.252 6.36 0 0 -9.983 7.733 0c0.439,0 0.881,0 1.32,-0.048l6.998 10.031 6.85 0zm-6.999 -22.069c0,4.307 -2.885,6.852 -8.464,6.852l-7.438 0 0 -13.654 7.438 0c5.579,0 8.464,2.496 8.464,6.802zm42.829 -12.183l0 23.193 -18.888 -23.193 -5.236 0 0 34.252 6.311 0 0 -23.194 18.889 23.194 5.235 0 0 -34.252 -6.311 0zm20.71 34.252l6.36 0 0 -34.252 -6.36 0 0 34.252zm26.631 -5.382l20.159 -24.614 0 -4.256 -28.233 0 0 5.381 19.817 0 -20.161 24.614 0 4.257 29.214 0 0 -5.382 -20.796 0zm57.454 5.382l6.655 0 -15.461 -34.252 -6.264 0 -15.412 34.252 6.557 0 3.376 -7.928 17.125 0 3.424 7.928zm-18.398 -12.919l6.411 -14.973 6.46 14.973 -12.871 0zm39.843 12.919l6.362 0 0 -28.871 11.351 0 0 -5.381 -29.066 0 0 5.381 11.353 0 0 28.871zm27.709 0l6.36 0 0 -34.252 -6.36 0 0 34.252zm36.807 0.489c10.619,0 18.448,-7.437 18.448,-17.616 0,-10.178 -7.829,-17.616 -18.448,-17.616 -10.618,0 -18.446,7.487 -18.446,17.616 0,10.13 7.828,17.616 18.446,17.616zm0 -5.578c-6.898,0 -12.038,-5.04 -12.038,-12.038 0,-6.997 5.14,-12.037 12.038,-12.037 6.899,0 12.037,5.04 12.037,12.037 0,6.998 -5.138,12.038 -12.037,12.038zm54.523 -29.163l0 23.193 -18.888 -23.193 -5.235 0 0 34.252 6.311 0 0 -23.194 18.888 23.194 5.235 0 0 -34.252 -6.311 0zm50.069 34.741c5.625,0 10.422,-2.006 13.602,-5.725l-4.11 -3.914c-2.496,2.739 -5.579,4.061 -9.15,4.061 -7.095,0 -12.234,-4.991 -12.234,-12.038 0,-7.046 5.139,-12.037 12.234,-12.037 3.571,0 6.654,1.321 9.15,4.013l4.11 -3.866c-3.18,-3.718 -7.977,-5.726 -13.553,-5.726 -10.521,0 -18.35,7.389 -18.35,17.616 0,10.228 7.829,17.616 18.301,17.616zm40.184 0c10.619,0 18.447,-7.437 18.447,-17.616 0,-10.178 -7.828,-17.616 -18.447,-17.616 -10.619,0 -18.447,7.487 -18.447,17.616 0,10.13 7.828,17.616 18.447,17.616zm0 -5.578c-6.899,0 -12.038,-5.04 -12.038,-12.038 0,-6.997 5.139,-12.037 12.038,-12.037 6.899,0 12.037,5.04 12.037,12.037 0,6.998 -5.138,12.038 -12.037,12.038zm54.523 -29.163l0 23.193 -18.888 -23.193 -5.236 0 0 34.252 6.311 0 0 -23.194 18.889 23.194 5.235 0 0 -34.252 -6.311 0zm31.327 34.741c9.396,0 13.848,-4.697 13.848,-10.187 0,-12.559 -20.306,-7.812 -20.306,-15.103 0,-2.602 2.152,-4.657 7.438,-4.657 2.984,0 6.36,0.882 9.444,2.692l2.005 -4.942c-2.984,-1.958 -7.29,-3.035 -11.4,-3.035 -9.396,0 -13.8,4.698 -13.8,10.236 0,12.707 20.355,7.869 20.355,15.259 0,2.544 -2.25,4.451 -7.584,4.451 -4.209,0 -8.562,-1.565 -11.302,-3.766l-2.203 4.942c2.837,2.447 8.172,4.11 13.505,4.11zm40.086 0c9.348,0 14.973,-5.432 14.973,-15.413l0 -19.328 -6.262 0 0 19.083c0,7.045 -3.132,10.08 -8.662,10.08 -5.528,0 -8.709,-3.035 -8.709,-10.08l0 -19.083 -6.362 0 0 19.328c0,9.981 5.628,15.413 15.022,15.413zm29.08 -0.489l24.269 0 0 -5.382 -17.91 0 0 -28.87 -6.359 0 0 34.252zm38.276 0l6.362 0 0 -28.871 11.351 0 0 -5.381 -29.066 0 0 5.381 11.353 0 0 28.871zm51.633 0l6.655 0 -15.462 -34.252 -6.264 0 -15.412 34.252 6.557 0 3.376 -7.928 17.125 0 3.425 7.928zm-18.398 -12.919l6.41 -14.973 6.46 14.973 -12.87 0zm58.73 -21.333l0 23.193 -18.887 -23.193 -5.236 0 0 34.252 6.311 0 0 -23.194 18.888 23.194 5.235 0 0 -34.252 -6.311 0zm27.658 34.252l6.362 0 0 -28.871 11.351 0 0 -5.381 -29.066 0 0 5.381 11.353 0 0 28.871zm37.982 0.489c9.396,0 13.849,-4.697 13.849,-10.187 0,-12.559 -20.307,-7.812 -20.307,-15.103 0,-2.602 2.152,-4.657 7.438,-4.657 2.984,0 6.36,0.882 9.443,2.692l2.005 -4.942c-2.983,-1.958 -7.289,-3.035 -11.399,-3.035 -9.397,0 -13.799,4.698 -13.799,10.236 0,12.707 20.354,7.869 20.354,15.259 0,2.544 -2.249,4.451 -7.584,4.451 -4.208,0 -8.563,-1.565 -11.302,-3.766l-2.203 4.942c2.838,2.447 8.172,4.11 13.505,4.11z"/>
  </g>
 </g>
</svg>
