<svg xmlns="http://www.w3.org/2000/svg" xmlns:xlink="http://www.w3.org/1999/xlink" width="500" zoomAndPan="magnify" viewBox="0 0 375 374.999991" height="500" preserveAspectRatio="xMidYMid meet" version="1.0"><defs><g/></defs><g fill="#000000" fill-opacity="1"><g transform="translate(82.75275, 190.727229)"><g><path d="M 5.34375 0 L 5.34375 -41.09375 L 21.84375 -41.09375 C 26.09375 -41.09375 29.300781 -40.113281 31.46875 -38.15625 C 33.632812 -36.195312 34.71875 -33.492188 34.71875 -30.046875 C 34.71875 -27.554688 34.082031 -25.515625 32.8125 -23.921875 C 31.550781 -22.328125 29.664062 -21.109375 27.15625 -20.265625 L 27.15625 -19.671875 C 28.445312 -19.109375 29.488281 -18.273438 30.28125 -17.171875 C 31.082031 -16.066406 31.835938 -14.425781 32.546875 -12.25 L 36.65625 0 L 28.296875 0 L 24.28125 -12.28125 C 23.875 -13.519531 23.410156 -14.476562 22.890625 -15.15625 C 22.378906 -15.84375 21.722656 -16.335938 20.921875 -16.640625 C 20.128906 -16.953125 19.09375 -17.109375 17.8125 -17.109375 L 13.46875 -17.109375 L 13.46875 0 Z M 20.859375 -23.546875 C 24.785156 -23.546875 26.75 -25.382812 26.75 -29.0625 C 26.75 -32.789062 24.785156 -34.65625 20.859375 -34.65625 L 13.46875 -34.65625 L 13.46875 -23.546875 Z M 20.859375 -23.546875 "/></g></g></g><g fill="#000000" fill-opacity="1"><g transform="translate(116.281213, 190.727229)"><g><path d="M 18.21875 0.59375 C 15.363281 0.59375 12.828125 0.242188 10.609375 -0.453125 C 8.390625 -1.160156 6.539062 -2.085938 5.0625 -3.234375 C 3.582031 -4.378906 2.445312 -5.632812 1.65625 -7 L 6.125 -12.453125 L 6.828125 -12.453125 C 8.066406 -10.617188 9.632812 -9.15625 11.53125 -8.0625 C 13.4375 -6.976562 15.664062 -6.4375 18.21875 -6.4375 C 20.382812 -6.4375 22.019531 -6.894531 23.125 -7.8125 C 24.238281 -8.726562 24.796875 -9.992188 24.796875 -11.609375 C 24.796875 -12.578125 24.613281 -13.390625 24.25 -14.046875 C 23.894531 -14.703125 23.304688 -15.265625 22.484375 -15.734375 C 21.660156 -16.203125 20.546875 -16.609375 19.140625 -16.953125 L 13.859375 -18.15625 C 10.160156 -19 7.40625 -20.398438 5.59375 -22.359375 C 3.789062 -24.316406 2.890625 -26.859375 2.890625 -29.984375 C 2.890625 -32.304688 3.46875 -34.347656 4.625 -36.109375 C 5.789062 -37.878906 7.484375 -39.25 9.703125 -40.21875 C 11.929688 -41.195312 14.585938 -41.6875 17.671875 -41.6875 C 20.835938 -41.6875 23.550781 -41.269531 25.8125 -40.4375 C 28.070312 -39.601562 29.976562 -38.320312 31.53125 -36.59375 L 27.515625 -31.09375 L 26.8125 -31.09375 C 25.65625 -32.300781 24.328125 -33.207031 22.828125 -33.8125 C 21.328125 -34.425781 19.609375 -34.734375 17.671875 -34.734375 C 15.441406 -34.734375 13.742188 -34.335938 12.578125 -33.546875 C 11.421875 -32.765625 10.84375 -31.679688 10.84375 -30.296875 C 10.84375 -29.003906 11.25 -27.972656 12.0625 -27.203125 C 12.882812 -26.441406 14.296875 -25.84375 16.296875 -25.40625 L 21.703125 -24.28125 C 25.691406 -23.4375 28.582031 -22.003906 30.375 -19.984375 C 32.175781 -17.972656 33.078125 -15.347656 33.078125 -12.109375 C 33.078125 -9.546875 32.523438 -7.3125 31.421875 -5.40625 C 30.316406 -3.507812 28.648438 -2.035156 26.421875 -0.984375 C 24.191406 0.0664062 21.457031 0.59375 18.21875 0.59375 Z M 18.21875 0.59375 "/></g></g></g><g fill="#000000" fill-opacity="1"><g transform="translate(146.689834, 190.727229)"><g><path d="M 12.78125 0 L 5.34375 0 L 5.34375 -41.09375 L 15.96875 -41.09375 L 26.359375 -10.875 L 26.953125 -10.875 L 37.296875 -41.09375 L 47.671875 -41.09375 L 47.671875 0 L 39.96875 0 L 39.96875 -27.15625 L 39.265625 -27.265625 L 29.765625 0 L 22.984375 0 L 13.484375 -27.265625 L 12.78125 -27.15625 Z M 12.78125 0 "/></g></g></g><g fill="#000000" fill-opacity="1"><g transform="translate(194.833774, 190.727229)"><g><path d="M 22.453125 0.59375 C 18.671875 0.59375 15.335938 -0.191406 12.453125 -1.765625 C 9.566406 -3.335938 7.304688 -5.703125 5.671875 -8.859375 C 4.046875 -12.023438 3.234375 -15.921875 3.234375 -20.546875 C 3.234375 -25.171875 4.046875 -29.0625 5.671875 -32.21875 C 7.304688 -35.375 9.566406 -37.738281 12.453125 -39.3125 C 15.335938 -40.894531 18.671875 -41.6875 22.453125 -41.6875 C 26.410156 -41.6875 29.769531 -40.910156 32.53125 -39.359375 C 35.289062 -37.816406 37.265625 -35.460938 38.453125 -32.296875 L 32.515625 -28.671875 L 31.8125 -28.703125 C 30.9375 -30.835938 29.742188 -32.367188 28.234375 -33.296875 C 26.722656 -34.222656 24.796875 -34.6875 22.453125 -34.6875 C 19.046875 -34.6875 16.382812 -33.554688 14.46875 -31.296875 C 12.5625 -29.035156 11.609375 -25.453125 11.609375 -20.546875 C 11.609375 -15.648438 12.5625 -12.070312 14.46875 -9.8125 C 16.382812 -7.5625 19.046875 -6.4375 22.453125 -6.4375 C 27.796875 -6.4375 31.066406 -9.03125 32.265625 -14.21875 L 32.96875 -14.21875 L 38.953125 -11.109375 C 37.828125 -7.203125 35.90625 -4.273438 33.1875 -2.328125 C 30.476562 -0.378906 26.898438 0.59375 22.453125 0.59375 Z M 22.453125 0.59375 "/></g></g></g><g fill="#000000" fill-opacity="1"><g transform="translate(230.245386, 190.727229)"><g><path d="M 7.921875 0.25 C 6.929688 0.25 6.054688 0.0507812 5.296875 -0.34375 C 4.535156 -0.75 3.953125 -1.304688 3.546875 -2.015625 C 3.148438 -2.734375 2.953125 -3.539062 2.953125 -4.4375 C 2.953125 -5.34375 3.148438 -6.148438 3.546875 -6.859375 C 3.953125 -7.566406 4.535156 -8.125 5.296875 -8.53125 C 6.054688 -8.945312 6.929688 -9.15625 7.921875 -9.15625 C 8.929688 -9.15625 9.816406 -8.953125 10.578125 -8.546875 C 11.335938 -8.148438 11.914062 -7.59375 12.3125 -6.875 C 12.71875 -6.164062 12.921875 -5.363281 12.921875 -4.46875 C 12.921875 -3.101562 12.46875 -1.972656 11.5625 -1.078125 C 10.65625 -0.191406 9.441406 0.25 7.921875 0.25 Z M 7.921875 0.25 "/></g></g></g><g fill="#000000" fill-opacity="1"><g transform="translate(241.232285, 190.727229)"><g><path d="M 39.4375 0 L 30.890625 0 L 27.796875 -9.46875 L 12.0625 -9.46875 L 8.96875 0 L 0.625 0 L 14.8125 -41.09375 L 25.234375 -41.09375 Z M 19.53125 -32.515625 L 14.25 -16.296875 L 25.546875 -16.296875 L 20.234375 -32.515625 Z M 19.53125 -32.515625 "/></g></g></g><g fill="#000000" fill-opacity="1"><g transform="translate(276.390936, 190.727229)"><g><path d="M 13.46875 0 L 5.34375 0 L 5.34375 -41.09375 L 13.46875 -41.09375 Z M 13.46875 0 "/></g></g></g><path stroke-linecap="butt" transform="matrix(-0.75, 0, 0, -0.75, 302.867241, 147.163481)" fill="none" stroke-linejoin="miter" d="M 0.0000708156 5.499225 L 88.671952 5.499225 " stroke="#7d901a" stroke-width="11" stroke-opacity="1" stroke-miterlimit="4"/><path stroke-linecap="butt" transform="matrix(0, -0.75, 0.75, 0, 294.622281, 208.814972)" fill="none" stroke-linejoin="miter" d="M -0.00191248 5.498417 L 89.888718 5.498417 " stroke="#7d901a" stroke-width="11" stroke-opacity="1" stroke-miterlimit="4"/><g fill="#000000" fill-opacity="1"><g transform="translate(142.892808, 206.170314)"><g><path d="M 2.4375 0 L 1.015625 0 L 1.015625 -7.859375 L 3.046875 -7.859375 L 5.03125 -2.078125 L 5.15625 -2.078125 L 7.125 -7.859375 L 9.109375 -7.859375 L 9.109375 0 L 7.640625 0 L 7.640625 -5.1875 L 7.5 -5.203125 L 5.6875 0 L 4.390625 0 L 2.578125 -5.203125 L 2.4375 -5.1875 Z M 2.4375 0 "/></g></g></g><g fill="#000000" fill-opacity="1"><g transform="translate(153.020863, 206.170314)"><g><path d="M 3.4375 0.109375 C 2.863281 0.109375 2.351562 -0.0078125 1.90625 -0.25 C 1.46875 -0.488281 1.128906 -0.835938 0.890625 -1.296875 C 0.648438 -1.753906 0.53125 -2.304688 0.53125 -2.953125 C 0.53125 -3.609375 0.648438 -4.164062 0.890625 -4.625 C 1.128906 -5.09375 1.46875 -5.441406 1.90625 -5.671875 C 2.351562 -5.910156 2.863281 -6.03125 3.4375 -6.03125 C 4.019531 -6.03125 4.53125 -5.910156 4.96875 -5.671875 C 5.40625 -5.441406 5.742188 -5.09375 5.984375 -4.625 C 6.234375 -4.164062 6.359375 -3.609375 6.359375 -2.953125 C 6.359375 -2.304688 6.234375 -1.753906 5.984375 -1.296875 C 5.742188 -0.835938 5.40625 -0.488281 4.96875 -0.25 C 4.53125 -0.0078125 4.019531 0.109375 3.4375 0.109375 Z M 3.4375 -1.15625 C 4.363281 -1.15625 4.828125 -1.753906 4.828125 -2.953125 C 4.828125 -3.585938 4.707031 -4.050781 4.46875 -4.34375 C 4.226562 -4.632812 3.882812 -4.78125 3.4375 -4.78125 C 2.519531 -4.78125 2.0625 -4.171875 2.0625 -2.953125 C 2.0625 -1.753906 2.519531 -1.15625 3.4375 -1.15625 Z M 3.4375 -1.15625 "/></g></g></g><g fill="#000000" fill-opacity="1"><g transform="translate(159.901714, 206.170314)"><g><path d="M 2.921875 0.109375 C 2.453125 0.109375 2.035156 0 1.671875 -0.21875 C 1.316406 -0.445312 1.035156 -0.789062 0.828125 -1.25 C 0.628906 -1.71875 0.53125 -2.285156 0.53125 -2.953125 C 0.53125 -3.628906 0.632812 -4.195312 0.84375 -4.65625 C 1.050781 -5.125 1.335938 -5.46875 1.703125 -5.6875 C 2.078125 -5.914062 2.507812 -6.03125 3 -6.03125 C 3.375 -6.03125 3.691406 -5.96875 3.953125 -5.84375 C 4.222656 -5.71875 4.453125 -5.519531 4.640625 -5.25 L 4.765625 -5.28125 L 4.765625 -8.296875 L 6.25 -8.296875 L 6.25 0 L 4.765625 0 L 4.765625 -0.765625 L 4.640625 -0.796875 C 4.484375 -0.515625 4.257812 -0.289062 3.96875 -0.125 C 3.6875 0.03125 3.335938 0.109375 2.921875 0.109375 Z M 3.40625 -1.15625 C 3.832031 -1.15625 4.164062 -1.300781 4.40625 -1.59375 C 4.644531 -1.894531 4.765625 -2.347656 4.765625 -2.953125 C 4.765625 -3.566406 4.644531 -4.023438 4.40625 -4.328125 C 4.164062 -4.628906 3.832031 -4.78125 3.40625 -4.78125 C 2.96875 -4.78125 2.632812 -4.632812 2.40625 -4.34375 C 2.175781 -4.050781 2.0625 -3.585938 2.0625 -2.953125 C 2.0625 -2.335938 2.175781 -1.882812 2.40625 -1.59375 C 2.632812 -1.300781 2.96875 -1.15625 3.40625 -1.15625 Z M 3.40625 -1.15625 "/></g></g></g><g fill="#000000" fill-opacity="1"><g transform="translate(166.997257, 206.170314)"><g><path d="M 5.859375 -2.625 L 2.046875 -2.625 C 2.085938 -2.113281 2.234375 -1.738281 2.484375 -1.5 C 2.734375 -1.269531 3.078125 -1.15625 3.515625 -1.15625 C 3.847656 -1.15625 4.117188 -1.21875 4.328125 -1.34375 C 4.546875 -1.46875 4.71875 -1.660156 4.84375 -1.921875 L 4.96875 -1.921875 L 5.953125 -1.28125 C 5.753906 -0.863281 5.457031 -0.523438 5.0625 -0.265625 C 4.675781 -0.015625 4.160156 0.109375 3.515625 0.109375 C 2.898438 0.109375 2.367188 -0.00390625 1.921875 -0.234375 C 1.472656 -0.460938 1.128906 -0.804688 0.890625 -1.265625 C 0.648438 -1.734375 0.53125 -2.296875 0.53125 -2.953125 C 0.53125 -3.628906 0.65625 -4.195312 0.90625 -4.65625 C 1.164062 -5.125 1.507812 -5.46875 1.9375 -5.6875 C 2.375 -5.914062 2.863281 -6.03125 3.40625 -6.03125 C 4.238281 -6.03125 4.878906 -5.804688 5.328125 -5.359375 C 5.773438 -4.921875 6 -4.273438 6 -3.421875 C 6 -3.109375 5.988281 -2.863281 5.96875 -2.6875 Z M 4.578125 -3.59375 C 4.566406 -4.039062 4.460938 -4.363281 4.265625 -4.5625 C 4.066406 -4.769531 3.78125 -4.875 3.40625 -4.875 C 2.65625 -4.875 2.210938 -4.445312 2.078125 -3.59375 Z M 4.578125 -3.59375 "/></g></g></g><g fill="#000000" fill-opacity="1"><g transform="translate(173.432624, 206.170314)"><g><path d="M 0.859375 0 L 0.859375 -5.921875 L 2.296875 -5.921875 L 2.296875 -5.046875 L 2.40625 -5.015625 C 2.550781 -5.347656 2.738281 -5.59375 2.96875 -5.75 C 3.207031 -5.90625 3.492188 -5.984375 3.828125 -5.984375 C 4.160156 -5.984375 4.414062 -5.925781 4.59375 -5.8125 L 4.34375 -4.515625 L 4.234375 -4.5 C 4.128906 -4.539062 4.03125 -4.566406 3.9375 -4.578125 C 3.851562 -4.597656 3.75 -4.609375 3.625 -4.609375 C 3.207031 -4.609375 2.890625 -4.460938 2.671875 -4.171875 C 2.453125 -3.878906 2.34375 -3.410156 2.34375 -2.765625 L 2.34375 0 Z M 0.859375 0 "/></g></g></g><g fill="#000000" fill-opacity="1"><g transform="translate(178.07532, 206.170314)"><g><path d="M 0.859375 0 L 0.859375 -5.921875 L 2.28125 -5.921875 L 2.28125 -5.046875 L 2.390625 -5.03125 C 2.765625 -5.695312 3.363281 -6.03125 4.1875 -6.03125 C 4.875 -6.03125 5.375 -5.84375 5.6875 -5.46875 C 6.007812 -5.101562 6.171875 -4.5625 6.171875 -3.84375 L 6.171875 0 L 4.6875 0 L 4.6875 -3.671875 C 4.6875 -4.066406 4.609375 -4.347656 4.453125 -4.515625 C 4.296875 -4.691406 4.046875 -4.78125 3.703125 -4.78125 C 3.273438 -4.78125 2.941406 -4.640625 2.703125 -4.359375 C 2.460938 -4.085938 2.34375 -3.65625 2.34375 -3.0625 L 2.34375 0 Z M 0.859375 0 "/></g></g></g><g fill="#000000" fill-opacity="1"><g transform="translate(185.009844, 206.170314)"><g><path d="M 1.59375 -6.640625 C 1.320312 -6.640625 1.101562 -6.71875 0.9375 -6.875 C 0.769531 -7.039062 0.6875 -7.253906 0.6875 -7.515625 C 0.6875 -7.765625 0.769531 -7.96875 0.9375 -8.125 C 1.101562 -8.289062 1.320312 -8.375 1.59375 -8.375 C 1.769531 -8.375 1.925781 -8.335938 2.0625 -8.265625 C 2.207031 -8.191406 2.316406 -8.085938 2.390625 -7.953125 C 2.472656 -7.828125 2.515625 -7.679688 2.515625 -7.515625 C 2.515625 -7.335938 2.472656 -7.179688 2.390625 -7.046875 C 2.316406 -6.921875 2.207031 -6.820312 2.0625 -6.75 C 1.925781 -6.675781 1.769531 -6.640625 1.59375 -6.640625 Z M 0.859375 0 L 0.859375 -5.921875 L 2.34375 -5.921875 L 2.34375 0 Z M 0.859375 0 "/></g></g></g><g fill="#000000" fill-opacity="1"><g transform="translate(188.198007, 206.170314)"><g><path d="M 4.96875 0 L 0.3125 0 L 0.3125 -1.234375 L 3.1875 -4.640625 L 3.140625 -4.75 L 0.453125 -4.75 L 0.453125 -5.9375 L 4.9375 -5.9375 L 4.9375 -4.703125 L 2.0625 -1.296875 L 2.09375 -1.1875 L 4.96875 -1.1875 Z M 4.96875 0 "/></g></g></g><g fill="#000000" fill-opacity="1"><g transform="translate(193.47941, 206.170314)"><g><path d="M 2.3125 0.109375 C 1.925781 0.109375 1.59375 0.0390625 1.3125 -0.09375 C 1.039062 -0.238281 0.828125 -0.445312 0.671875 -0.71875 C 0.523438 -0.988281 0.453125 -1.3125 0.453125 -1.6875 C 0.453125 -2.039062 0.523438 -2.332031 0.671875 -2.5625 C 0.828125 -2.800781 1.0625 -3 1.375 -3.15625 C 1.6875 -3.3125 2.097656 -3.425781 2.609375 -3.5 C 2.960938 -3.5625 3.234375 -3.625 3.421875 -3.6875 C 3.609375 -3.757812 3.734375 -3.835938 3.796875 -3.921875 C 3.859375 -4.015625 3.890625 -4.125 3.890625 -4.25 C 3.890625 -4.4375 3.820312 -4.582031 3.6875 -4.6875 C 3.550781 -4.789062 3.332031 -4.84375 3.03125 -4.84375 C 2.695312 -4.84375 2.378906 -4.769531 2.078125 -4.625 C 1.785156 -4.476562 1.53125 -4.285156 1.3125 -4.046875 L 1.203125 -4.046875 L 0.578125 -4.984375 C 0.878906 -5.316406 1.25 -5.570312 1.6875 -5.75 C 2.125 -5.9375 2.597656 -6.03125 3.109375 -6.03125 C 3.890625 -6.03125 4.453125 -5.863281 4.796875 -5.53125 C 5.148438 -5.195312 5.328125 -4.726562 5.328125 -4.125 L 5.328125 -1.546875 C 5.328125 -1.285156 5.445312 -1.15625 5.6875 -1.15625 C 5.769531 -1.15625 5.859375 -1.171875 5.953125 -1.203125 L 6.015625 -1.171875 L 6.125 -0.140625 C 6.039062 -0.0859375 5.925781 -0.0390625 5.78125 0 C 5.632812 0.03125 5.472656 0.046875 5.296875 0.046875 C 4.941406 0.046875 4.664062 -0.0195312 4.46875 -0.15625 C 4.269531 -0.289062 4.128906 -0.503906 4.046875 -0.796875 L 3.9375 -0.8125 C 3.644531 -0.195312 3.101562 0.109375 2.3125 0.109375 Z M 2.78125 -1 C 3.125 -1 3.398438 -1.113281 3.609375 -1.34375 C 3.816406 -1.570312 3.921875 -1.894531 3.921875 -2.3125 L 3.921875 -2.90625 L 3.8125 -2.9375 C 3.71875 -2.863281 3.597656 -2.800781 3.453125 -2.75 C 3.316406 -2.707031 3.113281 -2.660156 2.84375 -2.609375 C 2.519531 -2.554688 2.285156 -2.460938 2.140625 -2.328125 C 1.992188 -2.203125 1.921875 -2.019531 1.921875 -1.78125 C 1.921875 -1.519531 1.992188 -1.320312 2.140625 -1.1875 C 2.296875 -1.0625 2.507812 -1 2.78125 -1 Z M 2.78125 -1 "/></g></g></g><g fill="#000000" fill-opacity="1"><g transform="translate(199.651757, 206.170314)"><g><path d="M 4.09375 -1.40625 L 4.46875 -0.3125 C 4.3125 -0.175781 4.109375 -0.0703125 3.859375 0 C 3.617188 0.0703125 3.347656 0.109375 3.046875 0.109375 C 2.398438 0.109375 1.910156 -0.0625 1.578125 -0.40625 C 1.242188 -0.757812 1.078125 -1.269531 1.078125 -1.9375 L 1.078125 -4.75 L 0.171875 -4.75 L 0.171875 -5.9375 L 1.078125 -5.9375 L 1.078125 -7.078125 L 2.5625 -7.328125 L 2.5625 -5.9375 L 4.25 -5.9375 L 4.25 -4.75 L 2.5625 -4.75 L 2.5625 -2.046875 C 2.5625 -1.742188 2.625 -1.523438 2.75 -1.390625 C 2.875 -1.265625 3.050781 -1.203125 3.28125 -1.203125 C 3.539062 -1.203125 3.769531 -1.269531 3.96875 -1.40625 Z M 4.09375 -1.40625 "/></g></g></g><g fill="#000000" fill-opacity="1"><g transform="translate(204.251515, 206.170314)"><g><path d="M 1.59375 -6.640625 C 1.320312 -6.640625 1.101562 -6.71875 0.9375 -6.875 C 0.769531 -7.039062 0.6875 -7.253906 0.6875 -7.515625 C 0.6875 -7.765625 0.769531 -7.96875 0.9375 -8.125 C 1.101562 -8.289062 1.320312 -8.375 1.59375 -8.375 C 1.769531 -8.375 1.925781 -8.335938 2.0625 -8.265625 C 2.207031 -8.191406 2.316406 -8.085938 2.390625 -7.953125 C 2.472656 -7.828125 2.515625 -7.679688 2.515625 -7.515625 C 2.515625 -7.335938 2.472656 -7.179688 2.390625 -7.046875 C 2.316406 -6.921875 2.207031 -6.820312 2.0625 -6.75 C 1.925781 -6.675781 1.769531 -6.640625 1.59375 -6.640625 Z M 0.859375 0 L 0.859375 -5.921875 L 2.34375 -5.921875 L 2.34375 0 Z M 0.859375 0 "/></g></g></g><g fill="#000000" fill-opacity="1"><g transform="translate(207.439679, 206.170314)"><g><path d="M 3.4375 0.109375 C 2.863281 0.109375 2.351562 -0.0078125 1.90625 -0.25 C 1.46875 -0.488281 1.128906 -0.835938 0.890625 -1.296875 C 0.648438 -1.753906 0.53125 -2.304688 0.53125 -2.953125 C 0.53125 -3.609375 0.648438 -4.164062 0.890625 -4.625 C 1.128906 -5.09375 1.46875 -5.441406 1.90625 -5.671875 C 2.351562 -5.910156 2.863281 -6.03125 3.4375 -6.03125 C 4.019531 -6.03125 4.53125 -5.910156 4.96875 -5.671875 C 5.40625 -5.441406 5.742188 -5.09375 5.984375 -4.625 C 6.234375 -4.164062 6.359375 -3.609375 6.359375 -2.953125 C 6.359375 -2.304688 6.234375 -1.753906 5.984375 -1.296875 C 5.742188 -0.835938 5.40625 -0.488281 4.96875 -0.25 C 4.53125 -0.0078125 4.019531 0.109375 3.4375 0.109375 Z M 3.4375 -1.15625 C 4.363281 -1.15625 4.828125 -1.753906 4.828125 -2.953125 C 4.828125 -3.585938 4.707031 -4.050781 4.46875 -4.34375 C 4.226562 -4.632812 3.882812 -4.78125 3.4375 -4.78125 C 2.519531 -4.78125 2.0625 -4.171875 2.0625 -2.953125 C 2.0625 -1.753906 2.519531 -1.15625 3.4375 -1.15625 Z M 3.4375 -1.15625 "/></g></g></g><g fill="#000000" fill-opacity="1"><g transform="translate(214.32053, 206.170314)"><g><path d="M 0.859375 0 L 0.859375 -5.921875 L 2.28125 -5.921875 L 2.28125 -5.046875 L 2.390625 -5.03125 C 2.765625 -5.695312 3.363281 -6.03125 4.1875 -6.03125 C 4.875 -6.03125 5.375 -5.84375 5.6875 -5.46875 C 6.007812 -5.101562 6.171875 -4.5625 6.171875 -3.84375 L 6.171875 0 L 4.6875 0 L 4.6875 -3.671875 C 4.6875 -4.066406 4.609375 -4.347656 4.453125 -4.515625 C 4.296875 -4.691406 4.046875 -4.78125 3.703125 -4.78125 C 3.273438 -4.78125 2.941406 -4.640625 2.703125 -4.359375 C 2.460938 -4.085938 2.34375 -3.65625 2.34375 -3.0625 L 2.34375 0 Z M 0.859375 0 "/></g></g></g><g fill="#000000" fill-opacity="1"><g transform="translate(221.255054, 206.170314)"><g/></g></g><g fill="#000000" fill-opacity="1"><g transform="translate(223.84745, 206.170314)"><g><path d="M 4.296875 0.109375 C 3.566406 0.109375 2.925781 -0.0390625 2.375 -0.34375 C 1.820312 -0.644531 1.390625 -1.09375 1.078125 -1.6875 C 0.773438 -2.289062 0.625 -3.035156 0.625 -3.921875 C 0.625 -4.804688 0.773438 -5.550781 1.078125 -6.15625 C 1.390625 -6.757812 1.820312 -7.210938 2.375 -7.515625 C 2.925781 -7.816406 3.566406 -7.96875 4.296875 -7.96875 C 5.046875 -7.96875 5.6875 -7.816406 6.21875 -7.515625 C 6.75 -7.222656 7.125 -6.773438 7.34375 -6.171875 L 6.21875 -5.484375 L 6.078125 -5.484375 C 5.910156 -5.890625 5.679688 -6.179688 5.390625 -6.359375 C 5.109375 -6.535156 4.742188 -6.625 4.296875 -6.625 C 3.640625 -6.625 3.128906 -6.40625 2.765625 -5.96875 C 2.398438 -5.539062 2.21875 -4.859375 2.21875 -3.921875 C 2.21875 -2.992188 2.398438 -2.3125 2.765625 -1.875 C 3.128906 -1.445312 3.640625 -1.234375 4.296875 -1.234375 C 5.316406 -1.234375 5.941406 -1.726562 6.171875 -2.71875 L 6.296875 -2.71875 L 7.4375 -2.125 C 7.226562 -1.375 6.863281 -0.8125 6.34375 -0.4375 C 5.820312 -0.0703125 5.140625 0.109375 4.296875 0.109375 Z M 4.296875 0.109375 "/></g></g></g><g fill="#000000" fill-opacity="1"><g transform="translate(231.544127, 206.170314)"><g><path d="M 3.4375 0.109375 C 2.863281 0.109375 2.351562 -0.0078125 1.90625 -0.25 C 1.46875 -0.488281 1.128906 -0.835938 0.890625 -1.296875 C 0.648438 -1.753906 0.53125 -2.304688 0.53125 -2.953125 C 0.53125 -3.609375 0.648438 -4.164062 0.890625 -4.625 C 1.128906 -5.09375 1.46875 -5.441406 1.90625 -5.671875 C 2.351562 -5.910156 2.863281 -6.03125 3.4375 -6.03125 C 4.019531 -6.03125 4.53125 -5.910156 4.96875 -5.671875 C 5.40625 -5.441406 5.742188 -5.09375 5.984375 -4.625 C 6.234375 -4.164062 6.359375 -3.609375 6.359375 -2.953125 C 6.359375 -2.304688 6.234375 -1.753906 5.984375 -1.296875 C 5.742188 -0.835938 5.40625 -0.488281 4.96875 -0.25 C 4.53125 -0.0078125 4.019531 0.109375 3.4375 0.109375 Z M 3.4375 -1.15625 C 4.363281 -1.15625 4.828125 -1.753906 4.828125 -2.953125 C 4.828125 -3.585938 4.707031 -4.050781 4.46875 -4.34375 C 4.226562 -4.632812 3.882812 -4.78125 3.4375 -4.78125 C 2.519531 -4.78125 2.0625 -4.171875 2.0625 -2.953125 C 2.0625 -1.753906 2.519531 -1.15625 3.4375 -1.15625 Z M 3.4375 -1.15625 "/></g></g></g><g fill="#000000" fill-opacity="1"><g transform="translate(238.424979, 206.170314)"><g><path d="M 0.859375 0 L 0.859375 -5.921875 L 2.28125 -5.921875 L 2.28125 -5.046875 L 2.390625 -5.03125 C 2.765625 -5.695312 3.363281 -6.03125 4.1875 -6.03125 C 4.875 -6.03125 5.375 -5.84375 5.6875 -5.46875 C 6.007812 -5.101562 6.171875 -4.5625 6.171875 -3.84375 L 6.171875 0 L 4.6875 0 L 4.6875 -3.671875 C 4.6875 -4.066406 4.609375 -4.347656 4.453125 -4.515625 C 4.296875 -4.691406 4.046875 -4.78125 3.703125 -4.78125 C 3.273438 -4.78125 2.941406 -4.640625 2.703125 -4.359375 C 2.460938 -4.085938 2.34375 -3.65625 2.34375 -3.0625 L 2.34375 0 Z M 0.859375 0 "/></g></g></g><g fill="#000000" fill-opacity="1"><g transform="translate(245.359503, 206.170314)"><g><path d="M 2.765625 0.109375 C 2.367188 0.109375 2 0.0625 1.65625 -0.03125 C 1.320312 -0.125 1.035156 -0.253906 0.796875 -0.421875 C 0.554688 -0.585938 0.378906 -0.78125 0.265625 -1 L 1.09375 -1.890625 L 1.203125 -1.890625 C 1.398438 -1.617188 1.632812 -1.414062 1.90625 -1.28125 C 2.175781 -1.15625 2.46875 -1.09375 2.78125 -1.09375 C 3.070312 -1.09375 3.289062 -1.144531 3.4375 -1.25 C 3.582031 -1.351562 3.65625 -1.5 3.65625 -1.6875 C 3.65625 -1.84375 3.601562 -1.96875 3.5 -2.0625 C 3.394531 -2.164062 3.222656 -2.25 2.984375 -2.3125 L 2.203125 -2.5 C 1.617188 -2.632812 1.191406 -2.847656 0.921875 -3.140625 C 0.648438 -3.429688 0.515625 -3.796875 0.515625 -4.234375 C 0.515625 -4.609375 0.609375 -4.929688 0.796875 -5.203125 C 0.984375 -5.472656 1.242188 -5.675781 1.578125 -5.8125 C 1.921875 -5.957031 2.320312 -6.03125 2.78125 -6.03125 C 3.3125 -6.03125 3.753906 -5.953125 4.109375 -5.796875 C 4.460938 -5.648438 4.738281 -5.445312 4.9375 -5.1875 L 4.140625 -4.328125 L 4.03125 -4.328125 C 3.863281 -4.515625 3.675781 -4.648438 3.46875 -4.734375 C 3.257812 -4.816406 3.03125 -4.859375 2.78125 -4.859375 C 2.195312 -4.859375 1.90625 -4.675781 1.90625 -4.3125 C 1.90625 -4.164062 1.957031 -4.039062 2.0625 -3.9375 C 2.175781 -3.84375 2.367188 -3.765625 2.640625 -3.703125 L 3.375 -3.546875 C 3.976562 -3.421875 4.414062 -3.210938 4.6875 -2.921875 C 4.96875 -2.640625 5.109375 -2.257812 5.109375 -1.78125 C 5.109375 -1.40625 5.015625 -1.070312 4.828125 -0.78125 C 4.640625 -0.5 4.367188 -0.28125 4.015625 -0.125 C 3.671875 0.03125 3.253906 0.109375 2.765625 0.109375 Z M 2.765625 0.109375 "/></g></g></g><g fill="#000000" fill-opacity="1"><g transform="translate(250.818025, 206.170314)"><g><path d="M 2.71875 0.109375 C 2.050781 0.109375 1.554688 -0.0703125 1.234375 -0.4375 C 0.921875 -0.800781 0.765625 -1.320312 0.765625 -2 L 0.765625 -5.921875 L 2.25 -5.921875 L 2.25 -2.1875 C 2.25 -1.820312 2.328125 -1.554688 2.484375 -1.390625 C 2.640625 -1.222656 2.878906 -1.140625 3.203125 -1.140625 C 3.617188 -1.140625 3.941406 -1.273438 4.171875 -1.546875 C 4.398438 -1.816406 4.515625 -2.242188 4.515625 -2.828125 L 4.515625 -5.921875 L 6 -5.921875 L 6 0 L 4.578125 0 L 4.578125 -0.875 L 4.453125 -0.890625 C 4.265625 -0.554688 4.035156 -0.304688 3.765625 -0.140625 C 3.492188 0.0234375 3.144531 0.109375 2.71875 0.109375 Z M 2.71875 0.109375 "/></g></g></g><g fill="#000000" fill-opacity="1"><g transform="translate(257.666673, 206.170314)"><g><path d="M 2.453125 0.109375 C 1.921875 0.109375 1.515625 -0.03125 1.234375 -0.3125 C 0.953125 -0.601562 0.8125 -1.046875 0.8125 -1.640625 L 0.8125 -8.296875 L 2.296875 -8.296875 L 2.296875 -1.6875 C 2.296875 -1.332031 2.445312 -1.15625 2.75 -1.15625 C 2.84375 -1.15625 2.9375 -1.164062 3.03125 -1.1875 L 3.109375 -1.171875 L 3.234375 -0.03125 C 3.148438 0.0078125 3.039062 0.0390625 2.90625 0.0625 C 2.769531 0.09375 2.617188 0.109375 2.453125 0.109375 Z M 2.453125 0.109375 "/></g></g></g><g fill="#000000" fill-opacity="1"><g transform="translate(261.069527, 206.170314)"><g><path d="M 4.09375 -1.40625 L 4.46875 -0.3125 C 4.3125 -0.175781 4.109375 -0.0703125 3.859375 0 C 3.617188 0.0703125 3.347656 0.109375 3.046875 0.109375 C 2.398438 0.109375 1.910156 -0.0625 1.578125 -0.40625 C 1.242188 -0.757812 1.078125 -1.269531 1.078125 -1.9375 L 1.078125 -4.75 L 0.171875 -4.75 L 0.171875 -5.9375 L 1.078125 -5.9375 L 1.078125 -7.078125 L 2.5625 -7.328125 L 2.5625 -5.9375 L 4.25 -5.9375 L 4.25 -4.75 L 2.5625 -4.75 L 2.5625 -2.046875 C 2.5625 -1.742188 2.625 -1.523438 2.75 -1.390625 C 2.875 -1.265625 3.050781 -1.203125 3.28125 -1.203125 C 3.539062 -1.203125 3.769531 -1.269531 3.96875 -1.40625 Z M 4.09375 -1.40625 "/></g></g></g><g fill="#000000" fill-opacity="1"><g transform="translate(265.669285, 206.170314)"><g><path d="M 2.3125 0.109375 C 1.925781 0.109375 1.59375 0.0390625 1.3125 -0.09375 C 1.039062 -0.238281 0.828125 -0.445312 0.671875 -0.71875 C 0.523438 -0.988281 0.453125 -1.3125 0.453125 -1.6875 C 0.453125 -2.039062 0.523438 -2.332031 0.671875 -2.5625 C 0.828125 -2.800781 1.0625 -3 1.375 -3.15625 C 1.6875 -3.3125 2.097656 -3.425781 2.609375 -3.5 C 2.960938 -3.5625 3.234375 -3.625 3.421875 -3.6875 C 3.609375 -3.757812 3.734375 -3.835938 3.796875 -3.921875 C 3.859375 -4.015625 3.890625 -4.125 3.890625 -4.25 C 3.890625 -4.4375 3.820312 -4.582031 3.6875 -4.6875 C 3.550781 -4.789062 3.332031 -4.84375 3.03125 -4.84375 C 2.695312 -4.84375 2.378906 -4.769531 2.078125 -4.625 C 1.785156 -4.476562 1.53125 -4.285156 1.3125 -4.046875 L 1.203125 -4.046875 L 0.578125 -4.984375 C 0.878906 -5.316406 1.25 -5.570312 1.6875 -5.75 C 2.125 -5.9375 2.597656 -6.03125 3.109375 -6.03125 C 3.890625 -6.03125 4.453125 -5.863281 4.796875 -5.53125 C 5.148438 -5.195312 5.328125 -4.726562 5.328125 -4.125 L 5.328125 -1.546875 C 5.328125 -1.285156 5.445312 -1.15625 5.6875 -1.15625 C 5.769531 -1.15625 5.859375 -1.171875 5.953125 -1.203125 L 6.015625 -1.171875 L 6.125 -0.140625 C 6.039062 -0.0859375 5.925781 -0.0390625 5.78125 0 C 5.632812 0.03125 5.472656 0.046875 5.296875 0.046875 C 4.941406 0.046875 4.664062 -0.0195312 4.46875 -0.15625 C 4.269531 -0.289062 4.128906 -0.503906 4.046875 -0.796875 L 3.9375 -0.8125 C 3.644531 -0.195312 3.101562 0.109375 2.3125 0.109375 Z M 2.78125 -1 C 3.125 -1 3.398438 -1.113281 3.609375 -1.34375 C 3.816406 -1.570312 3.921875 -1.894531 3.921875 -2.3125 L 3.921875 -2.90625 L 3.8125 -2.9375 C 3.71875 -2.863281 3.597656 -2.800781 3.453125 -2.75 C 3.316406 -2.707031 3.113281 -2.660156 2.84375 -2.609375 C 2.519531 -2.554688 2.285156 -2.460938 2.140625 -2.328125 C 1.992188 -2.203125 1.921875 -2.019531 1.921875 -1.78125 C 1.921875 -1.519531 1.992188 -1.320312 2.140625 -1.1875 C 2.296875 -1.0625 2.507812 -1 2.78125 -1 Z M 2.78125 -1 "/></g></g></g><g fill="#000000" fill-opacity="1"><g transform="translate(271.91143, 206.170314)"><g><path d="M 0.859375 0 L 0.859375 -5.921875 L 2.28125 -5.921875 L 2.28125 -5.046875 L 2.390625 -5.03125 C 2.765625 -5.695312 3.363281 -6.03125 4.1875 -6.03125 C 4.875 -6.03125 5.375 -5.84375 5.6875 -5.46875 C 6.007812 -5.101562 6.171875 -4.5625 6.171875 -3.84375 L 6.171875 0 L 4.6875 0 L 4.6875 -3.671875 C 4.6875 -4.066406 4.609375 -4.347656 4.453125 -4.515625 C 4.296875 -4.691406 4.046875 -4.78125 3.703125 -4.78125 C 3.273438 -4.78125 2.941406 -4.640625 2.703125 -4.359375 C 2.460938 -4.085938 2.34375 -3.65625 2.34375 -3.0625 L 2.34375 0 Z M 0.859375 0 "/></g></g></g><g fill="#000000" fill-opacity="1"><g transform="translate(278.803005, 206.170314)"><g><path d="M 4.09375 -1.40625 L 4.46875 -0.3125 C 4.3125 -0.175781 4.109375 -0.0703125 3.859375 0 C 3.617188 0.0703125 3.347656 0.109375 3.046875 0.109375 C 2.398438 0.109375 1.910156 -0.0625 1.578125 -0.40625 C 1.242188 -0.757812 1.078125 -1.269531 1.078125 -1.9375 L 1.078125 -4.75 L 0.171875 -4.75 L 0.171875 -5.9375 L 1.078125 -5.9375 L 1.078125 -7.078125 L 2.5625 -7.328125 L 2.5625 -5.9375 L 4.25 -5.9375 L 4.25 -4.75 L 2.5625 -4.75 L 2.5625 -2.046875 C 2.5625 -1.742188 2.625 -1.523438 2.75 -1.390625 C 2.875 -1.265625 3.050781 -1.203125 3.28125 -1.203125 C 3.539062 -1.203125 3.769531 -1.269531 3.96875 -1.40625 Z M 4.09375 -1.40625 "/></g></g></g><g fill="#000000" fill-opacity="1"><g transform="translate(283.402763, 206.170314)"><g><path d="M 2.765625 0.109375 C 2.367188 0.109375 2 0.0625 1.65625 -0.03125 C 1.320312 -0.125 1.035156 -0.253906 0.796875 -0.421875 C 0.554688 -0.585938 0.378906 -0.78125 0.265625 -1 L 1.09375 -1.890625 L 1.203125 -1.890625 C 1.398438 -1.617188 1.632812 -1.414062 1.90625 -1.28125 C 2.175781 -1.15625 2.46875 -1.09375 2.78125 -1.09375 C 3.070312 -1.09375 3.289062 -1.144531 3.4375 -1.25 C 3.582031 -1.351562 3.65625 -1.5 3.65625 -1.6875 C 3.65625 -1.84375 3.601562 -1.96875 3.5 -2.0625 C 3.394531 -2.164062 3.222656 -2.25 2.984375 -2.3125 L 2.203125 -2.5 C 1.617188 -2.632812 1.191406 -2.847656 0.921875 -3.140625 C 0.648438 -3.429688 0.515625 -3.796875 0.515625 -4.234375 C 0.515625 -4.609375 0.609375 -4.929688 0.796875 -5.203125 C 0.984375 -5.472656 1.242188 -5.675781 1.578125 -5.8125 C 1.921875 -5.957031 2.320312 -6.03125 2.78125 -6.03125 C 3.3125 -6.03125 3.753906 -5.953125 4.109375 -5.796875 C 4.460938 -5.648438 4.738281 -5.445312 4.9375 -5.1875 L 4.140625 -4.328125 L 4.03125 -4.328125 C 3.863281 -4.515625 3.675781 -4.648438 3.46875 -4.734375 C 3.257812 -4.816406 3.03125 -4.859375 2.78125 -4.859375 C 2.195312 -4.859375 1.90625 -4.675781 1.90625 -4.3125 C 1.90625 -4.164062 1.957031 -4.039062 2.0625 -3.9375 C 2.175781 -3.84375 2.367188 -3.765625 2.640625 -3.703125 L 3.375 -3.546875 C 3.976562 -3.421875 4.414062 -3.210938 4.6875 -2.921875 C 4.96875 -2.640625 5.109375 -2.257812 5.109375 -1.78125 C 5.109375 -1.40625 5.015625 -1.070312 4.828125 -0.78125 C 4.640625 -0.5 4.367188 -0.28125 4.015625 -0.125 C 3.671875 0.03125 3.253906 0.109375 2.765625 0.109375 Z M 2.765625 0.109375 "/></g></g></g><path stroke-linecap="butt" transform="matrix(0.75, 0, 0, 0.75, 72.523365, 200.570288)" fill="none" stroke-linejoin="miter" d="M 0.0000962165 5.500032 L 88.671977 5.500032 " stroke="#7d901a" stroke-width="11" stroke-opacity="1" stroke-miterlimit="4"/><path stroke-linecap="butt" transform="matrix(0, 0.75, -0.75, 0, 80.768049, 138.918785)" fill="none" stroke-linejoin="miter" d="M -0.0010887 5.498024 L 89.889542 5.498024 " stroke="#7d901a" stroke-width="11" stroke-opacity="1" stroke-miterlimit="4"/></svg>