<svg xmlns="http://www.w3.org/2000/svg" role="img" viewBox="-24.12 -24.12 1097.24 1254.24"><style>svg {enable-background:new 0 0 1049.7 1206.8}</style><style>.st0,.st1{fill-rule:evenodd;clip-rule:evenodd;fill:#ed2227}.st1{fill:#1468b3}</style><g id="New_Layer"><path d="M484.6 2.4c-7.1 1-13.4 2.3-13.8 2.7-.5.5-1.3 6-1.9 12.3-1 12.5-2.1 19.1-3.6 22.9-1.6 3.9-7.5 13.2-10.8 17.2-3.1 3.7-13.1 9.5-20 11.6-10 3-26.1 3.1-34 .1-14.7-5.5-21.8-11-29.4-22.9-5-7.7-7.2-9.3-9.6-7.2-.6.5-2.6 1.5-4.5 2.2s-4.2 1.9-5 2.6c-.8.6-3.1 2-5 3.1-5.1 2.7-17.7 11-23.8 15.6l-5.2 4 2 3.1c1.2 1.7 3.7 6.2 5.8 10.1 3.6 6.9 3.6 7.1 3.6 18.5-.1 8-.6 12.7-1.7 15.5-4.4 11-6.6 15.8-8.4 17.8-1.1 1.2-2.7 3.5-3.4 5.2-.8 1.6-2.3 3.1-3.4 3.3-1.1.2-3.1 1.4-4.5 2.7-3.7 3.2-11 8-14.5 9.2-8.6 3.1-12.5 3.6-19.8 2.4-9.5-1.6-12.8-2.7-24.9-8.5-4.2-2-8.2-3.6-8.8-3.6-3.8 0-33 43.8-33 49.5 0 .6 3.4 3.7 7.5 7 8.7 6.9 15.2 15.8 19.2 26.2 2.2 5.8 2.6 8.5 2.7 18.3.1 11.8-.1 12.6-5.2 23.9-2.1 4.8-11.3 15.2-16.3 18.6-10.5 7-21.9 10.1-39.8 10.8-5.1.2-5.5.4-6.3 3.2-1.6 5.7-4.8 33.6-4.8 41.5v8h99l.4-2.3c.3-1.2.5-2.9.5-3.7-.1-1.9 3.7-23.2 5.6-32.5 2.5-11.5 4.2-17.8 8.3-30 8.5-24.9 11-30.6 23.6-52.6 13.9-24.3 31.1-45.3 51.8-63.1 11.2-9.7 31.5-24.8 33.3-24.8.3 0 2.4-1.2 4.8-2.7 8.8-5.7 25.9-14.3 36.5-18.4 1.2-.5 3.2-1.3 4.5-1.8 6.4-2.6 11.6-4.5 14.7-5.3 1.9-.5 5.1-1.3 7-1.9 7.7-2 23.3-5 36.6-6.8 7.7-1.1 14.9-2.3 15.8-2.7 1.1-.4 2.1-.1 2.6.6 1.7 2.8 2.1-6.7 1.8-53L510.5.8 504 .6c-3.6 0-12.3.7-19.4 1.8zM539 50.2c0 39.2.3 50.3 1.3 50.6.6.2 7.7 1.4 15.7 2.5 15.2 2.2 26.9 4.3 33.3 6 2 .6 5.4 1.4 7.5 2 6.6 1.7 17.6 5.1 19.7 6 1.1.5 4 1.6 6.5 2.4 6 1.9 28.6 12.2 30 13.6.5.5 1.4 1 8.9 5.2 13 7.3 34.5 24.2 48.1 37.8 8.8 8.8 21 22.1 21 22.8 0 .2 2.4 3.6 5.4 7.5 14.3 19.1 28.8 46.8 36.5 69.7 1.2 3.6 2.6 7.3 3.1 8.2.6 1 1 2.5 1 3.3 0 .8.4 2.3.9 3.3.9 1.7 3 8.8 3.7 12.7.3 1.8 3 21.5 4.9 36 .3 2.7.8 6 1.1 7.2l.4 2.3h98v-9c0-8.3-3-32.7-4.8-39.5l-.8-3h-12.5c-11.6 0-14.3-.4-22.4-3.5-5-2-6-2.3-6.7-2.2-.3.1-1.2-.5-1.8-1.3-.7-.8-1.9-1.5-2.6-1.5-.7 0-2.1-1.1-3-2.5-.9-1.4-2.2-2.5-2.9-2.5-3.6 0-14.1-18-16.4-28.1-1.3-5.6-1.3-18.1-.1-23.9 3.6-16 13.2-29 26.3-35.4 3.1-1.5 5.7-3.2 5.7-3.7 0-1.3-8.8-17.9-12.3-23.4-6.5-10.1-18.1-26-19.7-27-.5-.3-3.7 1.2-7.2 3.2-11.7 7-18.9 9.6-23.6 8.7-2.1-.4-3.2-.3-3.2.5 0 2.6-16 .5-24-3.2-10.5-4.8-21.4-15.8-26.9-26.9-8.5-17.6-7.8-33.3 2.6-52.4l3.3-6.2-5.3-4c-2.8-2.2-6.3-4.7-7.7-5.4-1.4-.7-4.4-2.6-6.7-4.1-2.4-1.5-4.5-2.7-4.8-2.7-.2 0-3.8-2-8-4.5-11.2-6.6-11.7-6.5-19.3 3-11.8 14.7-17 18.9-28.7 22.7-5.2 1.6-21.6 1.6-28 0-15.9-4.3-30.5-15.7-37.1-28.9-3.8-7.7-3.8-7.9-4.2-22-.3-9.8-.8-14.6-1.7-15.3-1.9-1.5-17.2-3.8-30.7-4.6L539 0v50.2z" class="st0"/><path d="M505.2 164.6c-2.9 1.3-7.5 4.6-10.3 7.3-15.6 15.1-24.3 38.9-27.9 76.4-1.6 16.6-3.2 22.3-7.5 26.5-2.8 2.7-15.5 21.9-15.5 23.3 0 .6-.6 1.5-1.4 1.9-1.2.8-5.1 6.8-7.8 12.3-.7 1.4-1.5 2.7-1.8 3-.9.9-3 4.4-5.3 9-1.2 2.5-2.4 4.7-2.7 5-1.2 1.2-3.4 5.3-9.3 17.5-8 16.3-8.9 18.3-12.2 27.5-1.5 4.1-3.2 8.6-3.8 10-4.5 10.6-8.8 34.1-8.9 49-.1 11.2 2 24.8 4.5 29.5.6 1.1 1.2 2.6 1.3 3.4.2.8 1.2 2.7 2.3 4.2 1.2 1.6 2.1 3.2 2.1 3.8 0 1.2 16.8 18.1 17.8 17.9.4-.1 2.9.8 5.7 2 6.3 2.9 15.2 4.2 29.1 4.2 7.7 0 11.5.4 12.1 1.2 1.6 2.1 2.3 17.7 1.1 24.5-.9 4.8-1.6 6.3-3.4 7.2-2.6 1.1-3.1.6-5.7-5-2.2-4.7-4.4-6.6-9.7-8-7.5-2-13.4-.5-19.1 4.8-6.5 6-8.7 12.5-6.9 19.6 1.4 5.5 6.4 13.7 8.4 13.7.7 0 2.3 1.1 3.5 2.4 3.3 3.5 13.1 6 20.7 5.2 7-.7 8.7-1.5 16.1-6.9 12.8-9.4 22.1-33.6 22.5-58.2.1-7.6.7-8.8 6.6-12.2 2.6-1.5 4.9-3.1 5-3.5.2-.4.8-.8 1.3-.8.6 0 4.4-2.4 8.6-5.3 10.1-7 15.5-10.5 17.3-11.4.8-.3 2.7-1.9 4.3-3.5 1.5-1.5 3.2-2.8 3.7-2.8 1.1 0 12.9-10.8 19.4-17.8 2.3-2.4 8.5-8.7 13.9-14 5.4-5.3 10.7-11.1 11.8-12.9 1.1-1.8 3.8-5 5.9-7.2 2.1-2.1 4.1-4.7 4.4-5.9.4-1.1 1.4-2.6 2.2-3.3 1.3-1 1.1-1.6-1.2-4.1-1.5-1.5-3.3-2.8-3.9-2.8s-3.3-2.3-6-5c-2.7-2.8-5.4-5-6-5s-2.6-1.6-4.5-3.5-3.8-3.5-4.3-3.5-2.7-1.5-4.8-3.3c-5.9-5-9.6-7.7-10.7-7.7-.5 0-1.7-.9-2.7-2-1-1.1-2.4-2-3.2-2-.7 0-1.3-.4-1.3-.9 0-1.7-3.1-2.1-3.7-.4-.4.9-2.1 3-3.9 4.5-1.8 1.6-3.6 3.9-4 5-.3 1.2-1.7 3.1-3 4.3-2.7 2.5-3 4.1-1.1 5.9 2.1 2.1 12.3 9.6 13.1 9.6.4 0 2.2 1.6 4.2 3.5 1.9 1.9 4.6 4.2 5.9 5.1 5.1 3.4 4.5 4.9-7.1 16.5-6 6-11.3 10.9-11.9 10.9s-4.2 3.1-8 7c-3.8 3.8-7.4 7-7.9 7s-2.8 1.7-5.2 3.7c-5.9 5.2-10.1 8.3-11.1 8.3-.5 0-2.2 1.3-3.8 3-1.6 1.6-3.9 3-5.2 3H494v-69.8c0-38.3-.1-77.7-.3-87.4-.3-15.3-.1-18.1 1.4-21 1-1.8 2.2-4.2 2.7-5.3.6-1.1 2.6-3.6 4.6-5.4 2-1.9 3.6-4.1 3.6-4.8 0-.7.4-1.3.9-1.3.4 0 4.5-3.4 8.9-7.5 8.5-8 9.9-9.1 22.7-17.9 18.5-12.6 39.7-20.6 54.7-20.6 5.2 0 13.2 1.5 16 3.1 1 .5 2.2.9 2.8.9 1.5 0 6.7 3.7 11.3 8 11.1 10.3 14.6 32.5 8.7 55.5-4.2 16.4-7.1 24.1-15.3 40-1.7 3.3-3.7 7.2-4.4 8.6-.7 1.5-2 3.2-2.8 3.9-.8.7-1.5 1.8-1.5 2.5 0 .6-.9 2-2 3s-2 2.3-2 3c0 .7-.9 2-2 3s-2 2.2-2 2.7-.9 1.8-1.9 2.9c-1.1 1.2-2.2 3.3-2.6 4.7-.6 2.3 0 3.3 4.2 7 6.2 5.6 12.8 10.2 14.5 10.2 1.5 0 6.3-4.8 9.4-9.4 4.4-6.7 6.5-10.2 7.1-11.9.3-.9.9-1.7 1.4-1.7s2.3-3 4.1-6.8c1.7-3.7 3.6-6.9 4-7 .4-.2.8-1.2.8-2.3 0-1 .5-1.9 1-1.9.6 0 1-.9 1-2s.3-2 .8-2c.4 0 1.3-1.5 2.1-3.3.7-1.7 2.6-6 4.2-9.5s2.9-6.9 2.9-7.7c0-.8.5-1.7 1-2 .6-.3 1-1.7 1-3s.4-2.6.9-2.9c.4-.3 1.1-2.2 1.5-4.3.3-2.1 1.1-6.3 1.7-9.3.6-3 1.2-11.8 1.4-19.5.4-22.9-2.8-35.8-13.1-52-2.9-4.6-12.6-14.5-14.2-14.5-.4 0-2.6-1.3-4.9-2.9-2.3-1.6-6.6-3.6-9.5-4.6-5.5-1.8-20.9-4.6-21.9-3.9-.3.2-3.4.6-6.9.9-6.9.5-18.5 3-21.2 4.5-1 .6-2.5 1-3.3 1s-2.3.4-3.3.9c-.9.5-3.5 1.7-5.7 2.6-2.2.9-6.6 3-9.8 4.6-3.2 1.6-6.3 2.9-6.8 2.9-1.8 0-28.3 18.6-36.7 25.7-3.6 3.1-6.9 4.6-8.4 4-1.1-.4-1.4-3.5-1.3-14.3.1-7.7.5-15.8 1-18.2 1.3-6.9 3-6.9 11.6-.1l7.4 5.9h7c10.8 0 15.4-3.4 20.6-15 1.6-3.7 1.6-13-.1-17-3.9-9.7-10.6-14.1-22.5-14.7-6.7-.3-8.8 0-13.3 2zm-38.4 225l.2 79.6-3.2 2.4c-11.8 8.6-28.9 7.3-40-3.1-8.3-7.7-11-16.6-10.7-34.7.2-6.6.6-12.9 1-14 .3-1.1.9-3.8 1.2-6 .3-2.2 1-5.4 1.5-7 .5-1.7 1.5-5 2.2-7.5s1.6-5.4 2-6.5c.4-1.1 1.4-4 2.1-6.5.7-2.5 1.6-5 2.1-5.6.5-.7.8-1.6.6-2-.1-.5.7-2.9 1.9-5.4 1.1-2.5 3.3-7.4 4.8-11 3.5-8.2 15.3-31 17.1-33.1.8-.8 1.4-2 1.4-2.6 0-.5.9-1.8 2-2.8s2-2.3 2-3c0-.7.9-2 2-3s2-2.4 2-3.1c0-1.6 5-5.6 6.4-5.1.8.3 1.2 24 1.4 80z" class="st1"/><path d="M212.1 377l-48.4.3.6 14.3c.4 7.8 1.4 18 2.4 22.7l1.8 8.5 8 .7c14.7 1.2 21.6 2.7 28.9 6.2 11.7 5.7 18.7 13.7 24.3 28 2.6 6.5 2.8 8.2 2.8 20.6-.1 14.8-1.6 20.8-7.6 29.6-3.6 5.3-11.7 13-16.8 16.1-2.3 1.3-4.1 3-4.1 3.8s1.2 3.6 2.6 6.2c8.4 15.3 10.1 18.4 13.8 23.8 7.7 11.6 13.8 19.5 15.1 19.5.6 0 4.1-1.4 7.6-3.1 3.5-1.8 7.3-3.5 8.4-3.9 1.1-.5 3.6-1.4 5.5-2.1 4.8-1.9 23.2-1.8 29 0 4.7 1.6 6.3 2.4 14.7 7.8 6.7 4.3 15.2 13.8 19.3 21.5 2.9 5.4 3.4 7.4 4 16.7 1.2 17.7.1 22.8-7.6 34.9-1.9 2.9-3.4 5.8-3.4 6.6 0 1.5 8.4 7.9 19.8 15 11.8 7.3 13.9 8.5 21.2 12.2 7.5 3.7 8.1 3.5 12-4.3 3.5-7.1 14.2-17.3 22-21 7.1-3.4 18.7-6.3 24.8-6.3 5.5 0 17.8 2.8 23.2 5.3 5.7 2.6 13 7.5 15.1 10.2 1 1.1 2.8 3.3 4.2 4.9 3.6 4.1 8.5 14 10.2 20.6.8 3.1 1.5 10.1 1.5 16 0 11 .3 12.2 3.4 13.3 4.1 1.6 22.2 3.7 31.1 3.7h9.5v-49c0-46.3-.1-49-1.8-49.9-1-.5-10.1-2.1-20.3-3.6-16.5-2.3-26.3-4-36.9-6.4-6-1.4-23.2-7.2-28.5-9.7-2.7-1.2-6.6-3-8.5-3.8-1.9-.8-5.3-2.6-7.5-3.9s-6.7-3.9-10-5.7-6.7-3.9-7.6-4.6c-.8-.8-1.9-1.4-2.2-1.4-1 0-12.2-7.9-23.7-16.5-20-15.1-34.3-29.8-48.7-50.1-6.8-9.6-22.3-34.5-22.3-36 0-.1-2.5-5.6-5.6-12.1-3-6.5-6-12.9-6.6-14.3-.6-1.4-1.4-3.4-1.9-4.5-1.5-3.6-6.6-20.9-7.7-26-1.1-5.1-1.6-8.5-5.2-33-2.6-17.8-2.8-18.5-4.3-18.3-.6.2-23 .4-49.6.5zm621.7.3c-25.1.3-45.8.7-46.1 1-.3.3-1.4 7.5-2.6 16-1.2 8.5-2.6 18.2-3.1 21.5-.5 3.3-1.2 8.2-1.6 11-1.7 13.3-6.6 26.9-19.2 53.5-3.7 7.8-15.8 27.8-22 36.5-16.8 23.3-39.2 45.3-65.7 64.2-11.9 8.5-47.4 27.3-51.5 27.3-.6 0-1.8.4-2.8.9-3.6 2-13.1 5-21.7 7.1-20.8 4.9-24.8 5.7-40 7.5-7.1.9-14.1 1.9-15.5 2.3l-2.5.7v98l11.8-.2c10.1-.2 26.9-2.2 33-3.9 1.4-.5 1.7-1.2 1.2-3.7-.3-1.8-.8-7.5-1.2-12.8-.5-8.1-.2-10.6 1.5-16 4.8-15 15-26.6 29.1-33.1 4.6-2.2 9.2-4.1 10.1-4.3 1-.2 3.5-.8 5.6-1.4 7.7-2.2 20.2-.8 29.5 3.3 6.1 2.6 15.5 9.3 19.4 13.8 2 2.4 5.1 7.1 6.8 10.5 3.3 6.6 4.7 7.8 7.5 6.4 13.7-6.9 17.9-9.2 24.7-13.7C734.8 659 741 654.1 741 652c0-.5-2.2-4.2-4.9-8.2-6.9-10.3-8.6-15.9-8.5-27.5.1-7.4.7-11.1 2.6-16.6 3.8-10.8 13.2-23.9 20.7-29 2-1.3 5.3-3.5 7.4-4.9 2-1.4 3.7-2.2 3.7-1.9 0 .3 1.2-.2 2.8-1.2 2.3-1.6 4.7-1.9 15.2-1.9 8.1 0 13.7.5 16 1.4 6.4 2.4 8.5 3.3 12 5.3 6.2 3.4 9.9 4.8 11.2 4.2 4.6-1.9 27.8-40.7 27.8-46.6 0-1-.7-1.8-1.5-1.8-2.7 0-14.8-7.4-18.4-11.3-3.1-3.4-6.1-8.7-11.5-20.6-2.5-5.5-.5-34.8 2.6-36.7.4-.3.8-1.1.8-1.9 0-4.6 17.7-26.4 20.2-24.9.4.3 1.1-.2 1.4-1 .3-.9 1.7-1.6 3-1.6s2.4-.5 2.4-1c0-.6 1.2-1 2.6-1 1.4 0 3.3-.4 4.3-1 1-.5 8-1 15.5-1.2 12.9-.2 13.7-.3 14.1-2.2.3-1.2 1.1-8.6 2-16.6.8-8 1.7-16.6 2.1-19.2.6-4.5.5-4.8-2-5.8-1.5-.5-3.3-.9-3.9-.8-.7.1-21.8.5-46.9.8z" class="st0"/><path d="M1.7 820.7c-1.4.5-1.7 1-.9 1.3 1.4.6 1.6 4.3.2 4.3-.5 0-1 .4-1 1 0 .7 175.6 1 524.8 1h524.9l-.2-3.5c-.1-2-.4-3.8-.7-4-.9-.9-1044.9-1-1047.1-.1zM44 855c-7.4 1.2-17.7 5.8-21 9.3-.8.9-2.3 1.9-3.2 2.3-.9.3-2.5 1.9-3.5 3.4s-2.1 3-2.4 3.3c-.4.3-2 3.3-3.7 6.7-7.1 14.7-6.4 45.2 1.3 57 .9 1.3 1.5 2.6 1.5 3 .1 1.1 11.3 12.3 12.4 12.3.5 0 2.8 1.7 5.2 3.7 7.6 6.6 10.8 9 15 11.2 2.3 1.2 5.1 3.3 6.4 4.6 1.3 1.4 2.9 2.5 3.5 2.5s4.1 3 7.7 6.8c10.2 10.6 12.1 19.7 6.5 31.1-2.5 5-6.1 6.9-13.5 7-4.8.1-8.6-1.5-11.8-5.1-2.4-2.5-4.3-11.8-4.7-22.3l-.2-6h-37l.1 12c0 13.2 1.7 21.4 6.1 30.5 2.8 5.8 9.4 13.6 12.8 15.1 1.1.5 3.5 1.8 5.3 2.9 1.7 1.1 3.2 1.8 3.2 1.6 0-.3 2.4.5 5.2 1.6 7.1 2.6 26.9 3.6 35.3 1.7 3.3-.7 6.5-1.4 7-1.4 6-.6 23.1-14.5 26.6-21.7 5.4-11.1 6.4-16.1 6.3-33.8 0-16.1-1.6-25.3-4.9-29-.8-.9-1.5-2.2-1.5-2.8 0-2.3-17.8-19-25.6-24-4.4-2.8-8.7-5.7-9.7-6.6-.9-.9-2.1-1.6-2.5-1.6-1.5 0-5.7-3.5-13.9-11.6-7.3-7.2-8.2-8.5-8.8-12.8-.9-5.6 0-12.2 2.1-15.3 1.7-2.6 8.4-6.3 11.4-6.3 4.2 0 10.9 3.9 12.4 7.3 1.9 3.8 3.6 12.5 3.6 17.8v3.9h37v-7.4c0-10.2-1.7-18.1-5.6-25.9-.8-1.6-1.4-3.3-1.4-3.9 0-1-3.3-4.9-7.8-9.4-3.6-3.5-18-10.1-24.6-11.3-5.7-1.1-21.4-1.3-26.6-.4zm606.5.8c-7.7 1.7-14.4 4.3-17.1 6.7-1.1 1-2.5 1.8-3 1.8-1.2 0-11.4 10.2-11.4 11.5 0 .4-.6 1.6-1.4 2.4-9.7 11.3-14.1 89.6-7 127.4 2 10.9 4.9 19.1 8.9 25.2 3.5 5.3 9 10.5 11.1 10.5.7 0 1.7.6 2.1 1.4 2.2 3.7 17.3 8.6 26.9 8.6 5.6 0 16.6-2.7 17.2-4.2.2-.5.9-.8 1.5-.8.7 0 3.4-2.1 6.1-4.6 5-4.5 8.9-5.5 9.3-2.4.1.8.4 3.1.7 5l.6 3.5h27V945.3h-56.8v30.9l8.6.3 8.7.3.3 8.5c.4 9-1.1 20.1-3.4 25.6-2.2 5.2-7.7 8.4-14.4 8.4-5 0-5.9-.3-8.7-3.2-6.8-7.3-8-17-8-62.3 0-44.4 1.4-56.2 7.5-63.3 5-5.8 17.2-5 20.1 1.4.6 1.3 1.5 2.4 2 2.4.9 0 3 12.7 3.4 21l.2 4.5h38.8l.2-3c.6-12.8-3.6-32.7-8.7-41.5-3-5-10.9-13-12.9-13-.9 0-1.9-.6-2.2-1.4-.3-.8-2.1-1.7-3.9-2.1-1.8-.4-3.7-1.1-4.3-1.5-4-2.9-27.3-3.9-38-1.5zm328.5-.1c-7.9 1.7-18.1 7.1-23.3 12.5-4.4 4.4-9.7 13.4-9.7 16.3 0 .8-.4 1.8-.9 2.3-1.3 1.3-3.1 12.7-3.1 19.7 0 9.7 3.7 24.6 7.5 30.2 1.3 1.9 2.1 3.6 1.9 3.8-.9.9 22.5 21.8 24.3 21.8.6 0 1.8.9 2.9 2.1 1 1.2 3.7 3 5.9 4.1s5.9 3.7 8.2 5.7 5.8 4.9 7.8 6.5c2 1.6 4.8 5.2 6.3 8 2.3 4.3 2.7 6.4 2.7 13.1 0 7-.3 8.3-2.3 10.3-1.2 1.2-2.2 2.6-2.2 3 0 1.8-6.1 4.2-10.8 4.2-5.7 0-10.6-2.8-13.2-7.5-2-3.7-4-14.4-4-21.4v-5.1l-18.2.2-18.3.3-.8 5.5c-1.7 11 1.8 28.5 7.9 39.5 5.9 10.4 18.7 18.3 33.7 20.6 14.8 2.3 35.3-.4 42.4-5.7 1.7-1.3 3.5-2.4 4-2.4 2 0 11.4-11 14.5-17 5.7-10.7 7.1-18.8 6.6-35.7-.3-8.8-1-14.9-1.7-15.6-.6-.6-1.1-1.9-1.1-2.9 0-1.8-2-5.7-6.3-12.5-2.8-4.3-9.5-10.8-14.7-14.4-1.9-1.3-3.9-2.8-4.5-3.4-1.5-1.7-9.3-6.5-10.5-6.5-.5 0-1-.3-1-.8 0-.4-3.4-2.9-7.5-5.6-4.1-2.7-7.5-5.3-7.5-5.8 0-.4-.6-.8-1.3-.8-1.6 0-6.7-5.2-6.7-6.8 0-.6-.6-1.5-1.4-1.9-2.4-1.4-3.8-5.4-4.1-11.6-.2-4.9.1-6.7 2-9.6 3.9-6.2 6-7.5 12.1-7.5 5.2-.1 5.8.1 9.4 4 4.2 4.6 7 12.4 7 19.8v4.6h36.3l-.6-11.3c-.8-15.7-4.3-24.7-13.6-35-3.4-3.7-17.2-10.3-24.5-11.6-7.6-1.4-22.5-1.3-29.6.3zm-109.8 3.6l-55.4.5.1 16.5v16.5l17.1.3 17 .2v76.9c0 42.2.2 77 .4 77.2.2.2 9.5.3 20.5.1l20.1-.3v-154l18.3.1 18.2.2.3-16.8c.1-9.2-.1-17-.5-17.3-.5-.3-25.7-.4-56.1-.1zM163 861.7c-.5 1.3-1.2 4.3-1.5 6.7-.4 2.4-.8 4.6-1 4.9s-.6 2.3-.9 4.5c-.8 5.1-3.4 18.3-5.2 26-.7 3.3-3.8 18.1-6.9 33-3.1 14.8-7.8 37.8-10.6 51-9.2 44.4-12.1 58.7-11.7 59 .2.2 9.3.5 20.3.6l20 .2.9-6.4c.5-3.5 1.6-11.6 2.5-17.9l1.6-11.5 18.2-.3 18.3-.2.4 2.2c.3 1.3 1.2 8.1 2.1 15.3.9 7.1 2 14.3 2.3 15.8l.7 2.8h19.9c10.9 0 20-.1 20.1-.3.2-.2 0-2.1-.5-4.3-1.1-5.6-5.1-24.3-6-28.5-.4-1.9-1.8-8.2-3-14s-2.6-12.1-3-14c-.4-1.9-1.7-8-2.9-13.5-1.1-5.5-3-14.3-4.1-19.5-1.2-5.2-2.5-11.3-3-13.5-1.5-7.6-4.9-24-7-33.5-2.8-12.8-3.5-16.2-6.8-32.5l-2.9-14-24.6-.3-24.7-.2-1 2.4zm28.9 49.8c1.3 7.9 2.7 16.8 3.2 19.8 3.5 21.1 6 38.2 6.2 42l.2 4.5-12.4.3c-7.7.2-12.7-.1-13.1-.8-.3-.5 0-4.9.7-9.7.8-4.9 1.6-10.6 1.8-12.8s1.8-13.7 3.5-25.5c3.1-21.4 5.4-32 6.9-32 .4 0 1.8 6.4 3 14.2zm81.1-52c0 .2-.1 42.5-.3 94.1l-.2 93.7h18.7c10.2 0 19.3.3 20.2.6 1.5.6 1.6-8.1 1.6-94v-94.6h-20c-11 0-20 .1-20 .2zm72.8.5c-.2.5-.2 42.8 0 94.1l.2 93.2 17.8-.2 17.7-.3-.3-29c-.1-16-.7-38-1.4-49-.6-11-1-22.2-.9-24.8s-.4-6.3-1-8.2c-.9-2.5-1-3.8-.2-4.6 1.3-1.3 4.3 4.1 4.3 7.6 0 1.3.6 2.5 1.4 2.8.7.3 1.6 2.3 1.9 4.4.9 5.6 1.2 6.6 2.5 9 .7 1.2 1.2 3.1 1.2 4.2s.4 2.2.9 2.5 1.1 2 1.4 3.8c.9 5.3 3.1 13.1 4.5 15.5.7 1.2 1.1 2.6 1 3-.2 1 2.8 11.4 4.7 16.3.7 1.9 2.1 6.6 3 10.5.9 3.8 2 7.9 2.5 9 .4 1.1 1.3 4 2 6.5 1.6 5.6 5 16.9 5.9 19.4.6 1.7 2 1.8 21.6 1.7 11.6-.1 21.3-.5 21.8-1 .4-.4.6-42.5.5-93.7l-.3-92.9h-35.7l.1 24.1c.1 13.2.7 36 1.2 50.5 1.3 32.8 1.3 36.8.6 37.5-1.2 1.2-2.7-.8-2.7-3.6 0-1.6-.4-3.2-1-3.5-.5-.3-1-1.5-1-2.6 0-1-.4-2.7-.9-3.7-.5-.9-1.5-3.7-2.1-6.2-.7-2.5-1.6-5.4-2.1-6.5-1-2-1.7-4.8-2.6-9.8-.3-1.5-.9-3-1.4-3.3s-.9-1.6-.9-3c0-1.3-.4-3.2-.9-4.2-.9-1.7-3.7-10.7-6.1-19.2-.6-2.5-1.6-5.3-2.1-6.2-.5-1-.9-2.7-.9-3.7 0-1.1-.4-2.3-1-2.6-.5-.3-1-1.5-1-2.7 0-1.8-2.8-11.4-5-17.3-.7-1.8-1.3-3.9-3.5-12.3-.6-2.2-.7-2.2-22-2.2-11.8 0-21.5.3-21.7.7zM479 876.3v17h34.5l-.3 77-.2 77h18.9c10.4 0 19.6.3 20.5.6 1.5.6 1.6-6.5 1.6-75.4 0-41.8.3-76.7.6-77.6.5-1.4 3.1-1.6 18.5-1.6H591v-34H479v17zm273.7-16.4c-.4.4-.7 42.7-.7 94v93.3l20.6.3c11.3.2 20.8.1 21-.1.7-.7.5-184.8-.2-186.5-.5-1.4-3.3-1.6-20.3-1.6-10.9 0-20.1.3-20.4.6zm-751.1 220c.4 1.7.2 2.9-.7 3.5-1.2.8-1.2 1.1.1 1.9 1.5 1 1047.1 1.5 1048.1.6.3-.3.3-2.3.1-4.5l-.4-4.1H1l.6 2.6zm7.6 49.2c-3.4.3-4.2.7-3.8 1.8.3.9.6 17.7.6 37.5v35.9l21.3-.2 21.2-.3v-8l-16-.3c-11.2-.2-16.1-.6-16.7-1.5-.4-.6-.8-15.5-.8-32.9s-.3-31.8-.7-32c-.5-.2-2.8-.2-5.1 0zm70.8 0l-19.5.2.5 36.8.5 36.7 19.9.3c12.9.1 20.3-.1 21-.8.6-.6 1.1-2 1.1-3.3 0-2.2-.2-2.2-16.5-2.7l-16.5-.5v-26l15.5-.5 15.4-.5v-6l-15.7-.3-15.7-.3-.1-11.4c-.1-6.3-.2-12.1-.3-12.8-.1-.9 3.8-1.2 15.9-1.4l16-.2v-3.7c0-2.1-.4-3.8-1-3.8-.5-.1-9.8 0-20.5.2zm63.3 0c-1.5.2-2.7 1.7-4 5-.9 2.6-3.2 7.7-5 11.5-1.8 3.7-3.3 7-3.3 7.3 0 .3-1.1 3-2.5 6s-2.5 5.7-2.5 6c0 .2-1.8 4.3-4 9s-4 9-4 9.4c0 .4-.9 2.5-1.9 4.7-3.6 7.2-6.1 13.3-6.1 14.8 0 1.1 1.1 1.5 4.1 1.5h4l3.6-7.8c1.9-4.2 3.6-8.2 3.8-8.7.1-.6.7-2.2 1.3-3.8l1.2-2.7h16.4c13.8 0 16.6.3 17.7 1.6.7.9 1.4 2.1 1.5 2.8.1.6 2.1 5 4.3 9.9l4.1 8.7h4.6c2.5 0 4.4-.3 4.2-.8-3.6-7.5-6.3-13.4-7.5-16.2-.9-1.9-2.8-6.2-4.3-9.5s-3.5-7.8-4.5-10-2.8-6.3-4-9c-1.3-2.8-3.3-7.3-4.5-10-1.2-2.8-3.2-7.3-4.5-10-1.3-2.8-2.6-6-3-7.2-.7-2.4-2-3.1-5.2-2.5zm7.8 28.7c3.2 6.8 5.9 13.1 5.9 14 0 1.3-1.9 1.5-11.9 1.5-6.6 0-12.2-.4-12.6-.9-.3-.5 1.5-6.1 3.9-12.3 2.4-6.2 4.7-12.1 5-13.1 1.3-4.2 3.8-1.5 9.7 10.8zm41.3-28c-.3.6-.3 17.4-.2 37.5l.3 36.5h8l.5-16.5.5-16.5 5.1-.3c5.1-.3 5.3-.2 11.3 5.3 3.3 3.1 7 7.6 8.2 10.1 1.3 2.4 2.6 4.4 3 4.4.3 0 1.2 1.3 1.9 2.9.6 1.6 2.1 3.8 3.2 4.8s2.4 2.8 2.9 4c.7 2 1.6 2.3 5.9 2.3 5.4 0 6.1-.7 3-3.5-1.1-1-2-2.3-2-3 0-.7-.9-2-2-3s-2-2.3-2-3c0-.6-.8-2-1.8-3.1-1-1-2.5-3.5-3.4-5.4-.9-1.9-4-5.7-6.7-8.5-2.8-2.7-5.1-5.7-5.1-6.6 0-.9 1.6-2.4 3.5-3.3 3.7-1.8 6.7-6.8 8-13.3 1.5-7.3-3.8-16.6-11.5-20.1-4.2-1.9-30-3.3-30.6-1.7zm24 7.7c8.9 2.5 11.8 9.7 7.5 18.4-2.8 5.6-5.4 6.6-15.7 6.2l-6.7-.3-.3-11.4c-.1-6.3 0-12.1.2-12.8.7-1.7 9.3-1.7 15-.1zm44.4-8.5c-.1.4-.2 17.6 0 38l.2 37.3h7l.2-28.7c.2-20.6.6-28.7 1.5-29 1.4-.5 8.3 5.4 8.3 7.1 0 .6 3.2 4.3 7 8.1 3.9 3.8 7 7.4 7 8 0 .6 2.7 3.7 6 7s6 6.4 6 7c0 .6 2.9 4 6.5 7.5s6.5 6.9 6.5 7.5c0 2.3 4.6 5.5 7.8 5.5h3.2v-74.8l-2.5-.6c-1.4-.4-3-.4-3.5-.1-.6.4-1 12.1-1 29.1 0 27.8 0 28.4-2 28.4s-8-4.9-8-6.6c0-.5-3.1-4.1-7-7.9-3.8-3.8-7-7.4-7-8 0-.6-2.7-3.7-6-7s-6-6.4-6-6.9-2.8-4-6.2-7.7c-3.5-3.7-7.4-8.1-8.8-9.8-2.4-2.8-8.4-5.1-9.2-3.4z" class="st1"/><path d="M399.5 1129.2c-4.8 1.3-11.8 4.8-14.6 7.3-1.4 1.3-3.4 2.8-4.5 3.4-1 .6-2.4 2.1-3 3.2-.6 1.2-1.8 3-2.6 3.9-3.4 4.1-6.3 16.5-5.4 23.5 1.3 9.7 3.4 13.9 10.4 21.1 7.9 8.1 11.8 10.2 21.8 11.8 8.2 1.4 19.8.3 28.4-2.7 7.3-2.5 7.1-2 6.8-18.3l-.3-14.6-11.1-.3-11.2-.3-.4 3.6c-.2 2-.2 3.8.1 4 .2.3 3.5.5 7.3.5h6.8v18.1l-4.3 1.8c-3.3 1.4-6.6 1.9-13.4 1.7-8.5-.1-9.6-.3-16.9-4.2-7-3.6-8.2-4.6-10.9-9.5-2.8-5.1-3-6-3-16.9 0-8.7.4-12.3 1.7-15 4.8-9.9 19.2-17 31.7-15.5 9.3 1.1 19.2 4.2 20.6 6.5 1.2 2 2.1.1 1.7-3.8-.4-3.6-.8-4.1-4.5-5.7-2.3-.9-5.1-2.2-6.1-2.7-2.5-1.3-21.1-2-25.1-.9zm56.3-.4c-.5.5-.8 17.6-.8 38.2v37.3h9v-34h4.5c4.7 0 13.4 3.6 13.5 5.6 0 .6 1.1 2.1 2.5 3.4 1.4 1.3 2.5 2.8 2.5 3.4 0 .6 1.9 3.7 4.3 6.8 2.3 3.1 5.4 7.7 6.9 10.2 2.7 4.5 2.9 4.6 7.8 4.6 4.7 0 6.3-1.1 4-2.5-1.2-.7-9.6-13.4-12.3-18.5-1.1-1.9-4.1-5.8-6.8-8.5-2.7-2.8-4.9-5.8-4.9-6.7s1.6-2.3 3.5-3.2c4.7-2.3 7.5-8.1 7.5-15.8 0-3.3-.7-7.2-1.4-8.7-1.9-3.6-7.7-8.2-12.4-9.9-4.3-1.5-26.3-2.8-27.4-1.7zm24.1 8.7c4.3 1.6 6.6 4 8.1 9.1 1 3.3.8 4.4-1.4 9.2-2.4 5.3-2.5 5.3-7.8 6-2.9.4-7.3.5-9.8.3l-4.5-.3-.3-11.4c-.1-6.3 0-12.1.2-12.8.7-1.7 10.7-1.7 15.5-.1zm62.1-8.5c-1.4.2-2.9.9-3.4 1.4-.6.5-1.8.9-2.8.9s-1.8.4-1.8.8-1.2 1.3-2.7 2c-5.1 2.1-8.8 4.8-9.9 7-.6 1.2-1.7 3-2.5 3.9-1.5 1.9-2.7 4.3-5 10.3-.8 2-1.4 7.1-1.3 12 0 7.2.4 9.4 2.8 14.4 9.5 20.1 34.8 28.2 56.1 18.1 5.9-2.9 16.5-13.4 19.1-19 1.5-3.2 1.9-6.3 1.8-15 0-10.2-.2-11.4-2.9-16-4-7.2-7.9-11.8-11.2-13.5-1.5-.8-3.4-2.1-4.1-2.7-.7-.7-2.5-1.6-4-1.9-1.5-.4-3.3-1.1-4-1.7-1.4-1.1-20-1.9-24.2-1zm25.1 11.1c5.1 2.3 8.4 5.8 12.7 13 2.4 4.1 2.7 5.7 2.7 13.2 0 9.5-1.2 13-6.8 19.5-9.3 10.8-27.3 13.1-40.6 5.2-4.5-2.7-5.9-4.3-8.8-10-3-5.8-3.5-7.9-3.5-13.7-.1-6.7 1.9-16 3.4-16 .4 0 .8-.5.8-1.2 0-1.6 7.1-8.8 8.7-8.8.7 0 1.3-.5 1.3-1 0-.6 1-1 2.3-1 1.2 0 2.9-.5 3.7-1.1 2.7-1.8 19-.6 24.1 1.9zm28.9-10.4c0 .8.5 1.8 1 2.1.6.3 1 1.3 1 2.1s.9 3.4 2 5.6c1.1 2.3 2 4.6 2 5 0 .5.9 2.8 2 5 1.1 2.3 2 4.6 2 5 0 .5.9 2.8 2 5 1.1 2.3 2 4.6 2 5 0 .5.9 2.8 2 5 1.1 2.3 2 4.5 2 5s.9 2.7 1.9 5.1c1.1 2.3 2.9 6.9 4.1 10.2 1.2 3.3 2.9 7.8 3.7 10 1.6 4.5 3.3 6.7 3.3 4.4 0-.8.9-3.4 2-5.7 1.1-2.2 2-4.6 2-5.1 0-.6.9-2.6 2-4.6s2-4.2 2-5c0-.8.9-3 2-5s2-4.2 2-5c0-.8.9-3 2-5s2-4.4 2-5.3c0-1 .4-2.2.8-2.7.5-.6 1.9-3.7 3.2-7 2.3-6 4.6-9.5 6.2-9.5.8 0 5.8 9.6 5.8 11.2 0 .5.9 2.8 2 5 1.1 2.3 2 4.5 2 5 0 .4 1.4 3.6 3 7 1.7 3.4 3 6.7 3 7.4 0 .8.9 2.9 2 4.9s2 4 2 4.5c0 .6.9 2.9 1.9 5.3 1.1 2.3 2.3 5.5 2.8 7.2l.9 2.9 2.7-5.8c1.5-3.2 2.7-6.1 2.7-6.5 0-.3 2.5-6.7 5.5-14.1 3.1-7.4 6.3-15.5 7.1-18 .9-2.5 2.4-6.4 3.5-8.7 1-2.4 1.9-4.6 1.9-5.1s.9-2.7 2-5c1.1-2.2 2-4.7 2-5.5 0-.7.4-1.7.9-2.3.5-.5 1.2-1.9 1.6-3.2.6-2 .3-2.2-3.5-2.2-3.5 0-4.2.4-5.2 2.7-.6 1.6-1.7 4.1-2.4 5.8-.7 1.6-1.9 4.8-2.7 7-1.4 3.8-2.7 7-7.8 19.7-1.2 2.9-2.8 7.2-3.6 9.6-.9 2.3-2.4 4.7-3.4 5.3-2 1-1.8 1.5-6.9-11.1-1.3-3-2.9-6.9-3.6-8.5-.7-1.7-1.9-4.8-2.7-7-.8-2.2-2.5-6.5-3.7-9.5s-2.8-7.1-3.5-9c-1-2.8-2-3.7-5-4.4-4.1-1.1-7 0-7 2.7 0 .9-.4 1.9-.9 2.4-1.2 1.3-3.7 7.5-3.1 8.1.3.3-.1 1.2-.9 2.1-.8.9-2.1 3.8-3 6.4-.9 2.7-2.3 6.1-3.1 7.7-.8 1.5-1.2 3-.9 3.3.3.2-.4 2-1.6 3.8-1.1 1.9-2.5 5.2-3.1 7.4-1.3 4.9-2.6 6.6-4.5 5.8-1.4-.5-5.4-7.6-5.4-9.7 0-.6-1.4-3.8-3-7.1-1.7-3.3-3-6.3-3-6.8 0-.4-.9-2.7-2-4.9-1.1-2.3-2-4.5-2-5 0-.4-1.3-3.6-3-7-1.6-3.4-3-6.7-3-7.4 0-1.3-3.1-2.4-6.7-2.4-1.3 0-2.3.6-2.3 1.4z" class="st0"/><path d="M743.7 1129.2l-12.7.6-.3 36.3c-.2 31.5 0 36.3 1.3 36.6.8.3 10.3.4 21 .3l19.5-.2v-6H758c-8-.1-15.5-.4-16.7-.9-2.2-.7-2.3-1.2-2.3-12.4 0-6.4.4-12.2.8-12.9.5-.9 5.3-1.3 15.7-1.5l15-.3.3-2.7c.4-3.7-1.8-4.2-16.5-3.3-9.2.5-12.7.4-13.8-.5-1.2-1-1.5-3.9-1.5-13.7v-12.4l16.3.2 16.2.1V1128.8l-7.5-.1c-4.1 0-13.2.2-20.3.5zm38.3-.4c0 .5 1.9 2.9 4.3 5.5 8.4 9.4 14.2 16.3 15.9 19 .9 1.6 2.3 3.2 3 3.7 1.9 1.2 5.8 6.3 5.8 7.7 0 .7-1.9 3.5-4.2 6.3-2.4 2.8-6.1 7.4-8.3 10.3-3.6 4.6-6.3 8-14.7 18.4-1.6 1.8-2.8 3.7-2.8 4 0 .3 1.8.6 4.1.6 3.7 0 4.7-.6 9.5-5.7 3-3.1 5.4-5.9 5.4-6.3 0-.4 2.3-3.1 5-6 2.8-2.9 5-5.6 5-6 0-1.2 5.7-7 6.9-7 1.1 0 10.1 8.8 10.1 9.9 0 .7 5.8 7.9 13.3 16.4 3.9 4.5 4.4 4.7 8.9 4.6l4.7-.2-1.7-3c-.9-1.6-3.2-4.2-4.9-5.8-1.8-1.5-3.3-3.3-3.3-3.8s-2.2-3.3-5-6.2c-2.7-2.9-5-5.5-5-5.7 0-.3-2.5-3.4-5.6-7-6.4-7.6-6.5-8.8-.4-15.1 2.2-2.2 4-4.7 4-5.5 0-.8 1.8-2.9 4-4.6 2.2-1.8 4.7-4.5 5.6-6.1.8-1.6 3.5-4.9 5.9-7.3 2.5-2.3 4.3-4.5 4.1-4.7-.8-.7-10.6.3-10.6 1.1 0 .4-1.7 2.6-3.7 4.8-5.4 5.8-10.5 12.1-12.4 15.1-2.4 3.9-6.6 8.1-8.1 8.1-.7 0-2.4-1.9-3.8-4.1-1.4-2.3-4.1-5.5-6-7.3-1.9-1.7-4.2-4.4-5-6-.8-1.5-3.1-4.3-5.2-6.2-2.1-1.9-3.8-3.8-3.8-4.4 0-.5-1.8-1-3.9-1-2.2 0-4.6-.3-5.5-.6-.9-.3-1.6-.3-1.6.1zm112 .1c-3.5.7-12.6 5.2-14 6.9-.7.8-1.8 1.5-2.4 1.5-1.4 0-5.2 3.8-7 6.8-.6 1.1-1.9 3.1-2.9 4.4-3 4.3-4.9 13.6-4.3 20.9.6 6.8 4.8 17.2 8 19.9.9.7 1.6 1.9 1.6 2.6 0 .8 1.8 2.5 4.1 3.9 12.3 7.9 19.4 15.5 33.4 7.7 5.1-.6 11.5-2 14.2-3 4.7-1.7 4.8-1.8 5.1-6.5.3-4.6-.4-5.7-2.3-3.8-2 1.9-13.2 5.2-19.6 5.8-10.9.9-20.5-2.2-27.7-9-5.7-5.5-8.8-16.2-7.1-25.2 2.8-15.4 15.1-25.5 31.1-25.5 7.2 0 20 3.2 23.1 5.8 1.6 1.4 1.7 1.2 1.7-3.1 0-5.2-.6-5.7-8.8-8.3-4.8-1.5-21.7-2.7-26.2-1.8zm60.7.1l-8.7.4.2 36.6.3 36.6 20.5.1 20.5.1v-6l-15.2-.1c-10.6-.1-15.8-.5-16.8-1.4-1.1-.9-1.5-3.5-1.5-10.5 0-5.1.3-10.7.6-12.4l.7-3.1H986v-3c0-3.9-2.1-4.4-17.2-3.8-9.6.4-12.2.2-13.4-.9-1.2-1.2-1.4-4-1.2-13.2l.3-11.6H987v-7.2l-7.7-.7c-4.2-.3-9.4-.5-11.7-.4-2.3.1-8 .4-12.9.5zm48.5 0l-2.2.4.2 37.2.3 37.2 21.3.3 21.2.2v-9l-16.2-.2-16.3-.3-.5-33-.5-33-2.5-.1c-1.4-.1-3.5 0-4.8.3zm-657.1 66.7c-2.1 2.2-2.2 2.7-.9 5.3 1.6 3.4 6 4.3 8.9 1.7 2.6-2.4 2.4-4.9-.7-7.3-3.4-2.7-4.5-2.6-7.3.3z" class="st1"/><path d="M706.3 1194.3c-5 2-3 10 2.5 10 1.6 0 3.3-.5 4-1.2 1.7-1.7 1.5-6.4-.4-8.2-1.7-1.8-2.9-1.9-6.1-.6z" class="st0"/></g></svg>