<svg width="641" height="130" viewBox="0 0 641 130" fill="none" xmlns="http://www.w3.org/2000/svg">
<path d="M427.721 92.7143H448.402V107.669H412.767H392.067V92.7143H412.767V46.3557H392.067V31.4014H427.721V92.7143Z" fill="black"/>
<path d="M349.677 31.4014C364.482 31.4014 376.595 43.5144 376.595 58.3192V80.7508C376.595 95.7052 364.482 107.669 349.677 107.669H338.162L325.75 99.2942V129.595H310.796V31.4014H325.75V39.7758L338.162 31.4014H349.677ZM361.641 80.7508V58.3192C361.641 51.7393 356.257 46.3557 349.677 46.3557H342.798L325.75 57.8706V81.1994L342.798 92.7143H349.677C356.257 92.7143 361.641 87.3307 361.641 80.7508Z" fill="black"/>
<path d="M274.892 31.4014H289.846V107.669H274.892V99.2942L262.48 107.669H250.965C236.16 107.669 224.047 95.5556 224.047 80.7508V58.3192C224.047 43.3649 236.16 31.4014 250.965 31.4014H262.48L274.892 39.7758V31.4014ZM257.844 92.7143L274.892 81.1994V57.8706L257.844 46.3557H250.965C244.385 46.3557 239.001 51.7393 239.001 58.3192V80.7508C239.001 87.3307 244.385 92.7143 250.965 92.7143H257.844Z" fill="black"/>
<path d="M146.592 82.5453H161.546V85.5362C161.546 89.7234 165.434 92.7143 171.865 92.7143H186.969C193.997 92.7143 197.437 90.3216 197.437 86.583C197.437 69.6846 147.639 80.6012 147.639 51.5898C147.639 39.4767 157.359 31.4014 171.566 31.4014H185.922C199.381 31.4014 209.849 41.1217 209.849 53.6834V55.0293H194.894V53.6834C194.894 49.4962 191.156 46.3557 185.922 46.3557H171.566C165.285 46.3557 162.593 48.4493 162.593 51.5898C162.593 63.7028 212.391 56.0761 212.391 86.583C212.391 99.1447 202.072 107.669 186.969 107.669H171.865C157.359 107.669 146.592 98.2474 146.592 85.5362V82.5453Z" fill="black"/>
<path d="M427.734 14.9544V0H411.284V14.9544H427.734Z" fill="black"/>
<path d="M640.873 53.7333V107.665H626.338V54.154C626.338 49.7693 622.927 46.3509 618.529 46.3509H615.38L598.334 57.8682V107.665H583.379V52.8787C582.787 49.125 579.618 46.3509 575.668 46.3509H572.519L555.473 57.8682V107.665H540.518V31.3955H555.473V39.7705L567.884 31.3955H575.668C583.727 31.3955 590.801 35.6816 594.732 42.0976L598.334 39.7705L610.752 31.3955H618.529C630.848 31.3955 640.873 41.4205 640.873 53.7333Z" fill="black"/>
<path d="M506.169 30.958H494.705V31.0237H491.24V30.958H481.774L481.702 31.0237L477.711 34.7051L460.679 50.4033V88.1303C460.679 98.6812 469.231 107.227 479.776 107.227H491.24V107.161H494.705V107.227H504.171L504.243 107.161L508.234 103.48L525.266 87.7819V50.0549C525.266 39.5039 516.714 30.958 506.169 30.958ZM510.462 81.2935L498.55 92.2718H480.479C477.718 92.2718 475.483 90.0367 475.483 87.2757V56.8916L487.395 45.9134H505.466C508.227 45.9134 510.462 48.1485 510.462 50.9095V81.2935Z" fill="black"/>
<path d="M105.267 69.0715L98.8902 80.1144L92.1353 91.8165L83.3114 107.102L70.18 129.84H0L13.1249 107.102H57.042L72.6274 80.1144L79.0038 69.0715L72.2619 57.3955H98.5247L105.267 69.0715Z" fill="#6BE195"/>
<path d="M114.065 8.34961L100.947 31.0685H57.0626L57.043 31.0424L57.0299 31.0685L41.8296 57.3966L35.0877 69.0726L41.4641 80.1155H15.1948L8.81836 69.0726L15.5603 57.3966L21.9563 46.3276L30.7671 31.0685L43.8855 8.34961H114.065Z" fill="#6BE195"/>
</svg>
