<?xml version="1.0" encoding="UTF-8"?><svg id="Layer_2" xmlns="http://www.w3.org/2000/svg" xmlns:xlink="http://www.w3.org/1999/xlink" viewBox="0 0 672.56 162.25"><defs><style>.cls-1{fill:url(#linear-gradient);}.cls-2{fill:#2f0e4f;}</style><linearGradient id="linear-gradient" x1="4.32" y1="30.83" x2="128.06" y2="102.27" gradientUnits="userSpaceOnUse"><stop offset="0" stop-color="#00caac"/><stop offset=".86" stop-color="#8770e5"/></linearGradient></defs><g id="Layer_1-2"><g><g><path class="cls-2" d="M206.88,90.21c6.83,10.11,17.78,13.15,26.89,13.15,10.87,0,18.71-3.62,18.71-9.02,0-6.41-5.06-6.91-22.76-8.94-15.42-1.77-26.38-4.3-26.38-16.1,0-10.96,10.79-18.96,27.65-18.96,13.4,0,25.54,5.06,30.68,12.98l-7.75,6.49c-4.38-6.49-12.81-10.11-23.35-10.11-11.97,0-17.03,4.13-17.03,8.51,0,4.8,3.88,5.98,19.72,7.84,18.37,2.11,29.75,4.13,29.75,17.03s-13.06,19.64-29.5,19.64c-14.92,0-28.74-6.15-34.39-15.34l7.75-7.16Z"/><path class="cls-2" d="M334.35,51.27l30.76,60.52h-11.46l-7.67-15.17h-35.15l-7.67,15.17h-11.55l30.85-60.52h11.88Zm-18.71,35.9h25.62l-12.81-25.29-12.81,25.29Z"/><path class="cls-2" d="M400.51,90.21c6.83,10.11,17.78,13.15,26.89,13.15,10.87,0,18.71-3.62,18.71-9.02,0-6.41-5.06-6.91-22.76-8.94-15.42-1.77-26.38-4.3-26.38-16.1,0-10.96,10.79-18.96,27.65-18.96,13.4,0,25.54,5.06,30.68,12.98l-7.75,6.49c-4.38-6.49-12.81-10.11-23.35-10.11-11.97,0-17.03,4.13-17.03,8.51,0,4.8,3.88,5.98,19.72,7.84,18.37,2.11,29.75,4.13,29.75,17.03s-13.06,19.64-29.5,19.64c-14.92,0-28.74-6.15-34.39-15.34l7.75-7.16Z"/><path class="cls-2" d="M564.93,51.27v60.52h-10.79v-26.46h-49.56v26.46h-10.79V51.27h10.79v24.61h49.56v-24.61h10.79Z"/><path class="cls-2" d="M641.8,51.27l30.76,60.52h-11.46l-7.67-15.17h-35.15l-7.67,15.17h-11.55l30.85-60.52h11.88Zm-18.71,35.9h25.62l-12.81-25.29-12.81,25.29Z"/></g><path class="cls-1" d="M143.51,18.97l-.1-.73-.65-.36C122.02,6.18,97.76,0,72.62,0S23.22,6.18,2.48,17.88l-.65,.36-.1,.73c-7.67,54.74,11.68,90.74,29.26,111.3,19.05,22.29,39.61,31.47,40.48,31.85l.29,.13h1.19l.29-.12c.87-.38,21.56-9.56,40.75-31.85,17.71-20.56,37.21-56.57,29.54-111.31ZM76.37,58.81l-1.98,.02c-1.44,0-2.62,1.17-2.62,2.62s1.17,2.62,2.62,2.62h6.93c21.35,0,40.47,9.67,53.25,24.85-.77,2.17-1.58,4.27-2.44,6.31-11.65-15.36-30.09-25.31-50.81-25.31h-6.93c-4.67,0-8.46-3.8-8.46-8.46s3.8-8.46,8.46-8.46h1.28l.41-.03c1.33,.05,19.04,.96,64.28,13.31-.32,1.95-.67,3.87-1.06,5.74-44.76-12.21-62.21-13.16-62.94-13.19Zm62.29,16.12c-.86,3.72-1.86,7.28-2.97,10.69-6.26-7.07-13.85-12.94-22.41-17.15,7.25,1.69,15.68,3.81,25.38,6.46Zm-62.59-24.99l-1.67,.04c-6.32,0-11.46,5.14-11.46,11.46s5.14,11.46,11.46,11.46h6.93c20.36,0,38.41,10.07,49.44,25.48-.93,2.06-1.89,4.05-2.88,5.97-9.76-15.45-26.98-25.73-46.56-25.73h-6.93c-9.47,0-17.18-7.71-17.18-17.18s7.71-17.18,17.22-17.18l1.4-.04c1.74,0,18.27,.44,65.67,13.39-.19,1.92-.42,3.81-.68,5.67-46.96-12.8-64.04-13.31-64.75-13.33Zm.05-8.72v-.05s0,.05,0,.05c-.13,0-.23,0-.31,0l-1.4,.04c-11.13,0-20.18,9.05-20.18,20.18s9.05,20.18,20.18,20.18h6.93c19.13,0,35.88,10.38,44.93,25.79-1.1,2-2.24,3.92-3.39,5.77-7.58-15.3-23.34-25.84-41.53-25.84h-6.93c-14.28,0-25.9-11.62-25.9-25.9s11.62-25.9,25.94-25.9l.79-.03c1.64-.06,17.26-.22,66.88,13.3-.08,1.95-.19,3.87-.34,5.76-45.35-12.36-62.67-13.28-65.66-13.34Zm-1.01-8.71l-.71,.03c-15.93,0-28.9,12.96-28.9,28.9s12.96,28.9,28.9,28.9h6.93c17.66,0,32.87,10.62,39.61,25.81-1.3,1.96-2.62,3.82-3.95,5.6-5-14.91-19.09-25.69-35.66-25.69h-6.93c-19.09,0-34.62-15.53-34.62-34.62s15.53-34.62,34.62-34.62h.15c.14-.02,14.97-1.24,67.65,12.97,.04,2.01,.03,3.98,0,5.93-49.49-13.44-65.4-13.29-67.09-13.21Zm-2.48-29.51c21.48,0,42.3,4.61,60.74,13.38C94.94,6.75,79.1,6.13,73.78,6.39c-30.02,.33-54.44,25.02-54.44,55.05s24.7,55.05,55.05,55.05h6.93c9.47,0,17.18,7.71,17.18,17.18,0,4.65-1.86,8.86-4.87,11.96-1.42,1.12-2.81,2.18-4.15,3.15-2.43,1.32-5.21,2.07-8.16,2.07l-1.44,.04c-1.82,0-9.34-.3-27.03-3.97-2.97-2.29-6.12-4.93-9.34-7.92,24.05,5.57,33.98,6.12,36.13,6.16h.09s1.58-.04,1.58-.04c6.32,0,11.46-5.14,11.46-11.46s-5.14-11.46-11.46-11.46h-6.93c-33.51,0-60.77-27.26-60.77-60.77C13.62,35.1,30.69,12.47,54.36,4.13c6.01-.75,12.11-1.13,18.27-1.13Zm-.73,156.01c-1.84-.89-6.82-3.44-13.31-7.91,12.85,2.42,19.04,2.75,21.06,2.78,.11,0,.21,0,.29,0l1.39-.04c.24,0,.48-.01,.72-.02-4.66,2.92-8.09,4.64-9.41,5.27-.24-.03-.48-.05-.74-.09ZM4.6,20.13c5.24-2.91,10.7-5.46,16.35-7.64C11.97,22.27,5.65,34.48,3.08,47.97c-.28-8.66,.16-17.94,1.51-27.85Zm15.39,89.34c6.2,7.02,13.74,12.85,22.21,17.06-3.96-.95-8.32-2.04-13.03-3.27-3.13-4.08-6.25-8.67-9.18-13.78Zm12.3,17.69c30.58,7.81,43.53,8.98,47.06,9.15h.11s1.87-.02,1.87-.02c1.44,0,2.62-1.17,2.62-2.62s-1.17-2.62-2.62-2.62h-6.93c-28.08,0-52.32-16.72-63.31-40.73-2.52-6.89-4.59-14.44-6.01-22.66-.18-2.05-.29-4.13-.29-6.23,0-20.22,8.79-38.54,22.75-51.31,5.06-1.66,10.24-3.04,15.52-4.13C23.73,17.01,10.62,37.79,10.62,61.44c0,35.16,28.61,63.77,63.77,63.77h6.93c4.67,0,8.46,3.8,8.46,8.46s-3.8,8.46-8.46,8.46h-1.28l-.42,.03c-2.42-.06-13.36-.73-40.3-7.23-2.06-2.09-4.12-4.32-6.15-6.7-.3-.35-.6-.71-.89-1.07Zm68.26,12.6c.61-1.92,.95-3.97,.95-6.09,0-11.13-9.05-20.18-20.18-20.18h-6.93c-28.7,0-52.05-23.35-52.05-52.05S45.43,9.7,73.87,9.39c5.6-.27,22.94,.46,66.93,12,.27,2.06,.49,4.09,.68,6.09-46.35-12.28-63.24-12.6-67.38-12.37-25.38,.16-46.03,20.95-46.03,46.33s20.78,46.33,46.33,46.33h6.93c14.15,0,25.67,11.4,25.89,25.5-2.23,2.33-4.46,4.49-6.66,6.49Zm11.24-11.53c-.59,.69-1.19,1.36-1.78,2.03-1.7-14.33-13.91-25.48-28.69-25.48h-6.93c-23.89,0-43.33-19.44-43.33-43.33S50.37,18.26,74.18,18.11c2.94-.16,19.56-.23,67.57,12.55,.15,2.03,.26,4.03,.34,6.01-51.05-13.71-66.4-12.94-67.76-12.84-20.71,.04-37.55,16.9-37.55,37.62s16.87,37.62,37.62,37.62h6.93c15.97,0,29.44,10.87,33.41,25.6-.98,1.24-1.97,2.43-2.95,3.57Z"/></g></g></svg>