<?xml version="1.0" encoding="utf-8"?>
<svg version="1.1" xmlns="http://www.w3.org/2000/svg" xmlns:xlink="http://www.w3.org/1999/xlink" width="200px"
	 height="50px" viewBox="0 0 200 50" enable-background="new 0 0 200 50" xml:space="preserve">
<path fill-rule="evenodd" clip-rule="evenodd" fill="#006236" d="M192,7.2h4.65c-0.834,0.466-1.95,1.35-3.351,2.65l-4.649,4.75
	l2.55,3.65c2.667,3.8,5,6.7,7,8.7h-6.65c-0.833-1.934-1.917-3.9-3.25-5.9l-3-4.5l2.601-3.3C190.233,10.217,191.6,8.2,192,7.2z
	 M184.95,9.4v15.3l0.2,1.15c0.133,0.2,0.434,0.367,0.899,0.5v0.6h-6.45v-0.6l0.9-0.5c0.133-0.2,0.2-0.583,0.2-1.15V9.4l-0.2-1.1
	c-0.133-0.233-0.434-0.383-0.9-0.45V7.2h6.45v0.65c-0.466,0.066-0.767,0.217-0.899,0.45L184.95,9.4z M175.35,9.4v15.3l0.2,1.15
	l0.9,0.5v0.6h-6.5v-0.6c0.466-0.133,0.8-0.3,1-0.5l0.149-1.15v-7.95h-7.6v7.95l0.2,1.15c0.134,0.2,0.433,0.367,0.899,0.5v0.6h-6.55
	v-0.6c0.534-0.133,0.866-0.3,1-0.5l0.2-1.15V9.4l-0.2-1.1c-0.134-0.233-0.466-0.383-1-0.45V7.2h6.55v0.65
	c-0.467,0.066-0.766,0.217-0.899,0.45l-0.2,1.1v6.05h7.6V9.4l-0.149-1.1c-0.2-0.233-0.534-0.383-1-0.45V7.2h6.5v0.65
	c-0.467,0.066-0.767,0.217-0.9,0.45L175.35,9.4z M173,40.1h3.15L174.85,46.7h-0.899l0.6-3.05H173l-2.15,3.05h-1l2.2-3.101
	c-0.899-0.266-1.35-0.833-1.35-1.699c0-0.467,0.2-0.867,0.6-1.2C171.7,40.3,172.267,40.1,173,40.1z M172.8,42.9h1.9l0.399-2.051H173
	c-0.467,0-0.834,0.117-1.1,0.351c-0.2,0.2-0.301,0.45-0.301,0.75C171.6,42.584,172,42.9,172.8,42.9z M165.1,41.8l-0.649,3.3
	c0.5,0.634,1.066,0.95,1.7,0.95c0.633,0,1.184-0.316,1.649-0.95c0.467-0.666,0.7-1.482,0.7-2.449c0-0.634-0.133-1.117-0.4-1.45
	c-0.266-0.333-0.649-0.5-1.149-0.5C166.217,40.7,165.6,41.066,165.1,41.8z M165.35,40.1L165.2,40.9l0.85-0.7l1.101-0.25
	c0.699,0,1.25,0.233,1.649,0.7c0.4,0.467,0.601,1.149,0.601,2.05c0,1.2-0.316,2.183-0.95,2.95c-0.601,0.766-1.351,1.149-2.25,1.149
	l-1.101-0.2l-0.8-0.6l-0.649,3.35h-0.9l1.8-9.25H165.35z M181.15,40.1l0.75,5.801h0.649l-0.399,2.05h-0.7l0.149-1.25h-4.449
	l-0.351,1.25h-0.649l0.35-2.05h0.6l2.75-5.801H181.15z M180.3,40.95L178,45.9h2.95l-0.45-4.95H180.3z M183.4,43.95
	c0-1.134,0.333-2.083,1-2.851c0.6-0.766,1.333-1.149,2.199-1.149c0.734,0,1.301,0.267,1.7,0.8c0.434,0.5,0.65,1.2,0.65,2.1
	c0,1.066-0.317,2-0.95,2.801c-0.633,0.766-1.367,1.149-2.2,1.149c-0.733,0-1.316-0.25-1.75-0.75
	C183.617,45.55,183.4,44.85,183.4,43.95z M198.2,33.85H53.5V31.9h144.7V33.85z M192.6,40.1l0.75,5.7l2.75-5.7h1.45l-1.3,6.601h-0.85
	l1.1-5.8l-2.9,5.8h-0.85l-0.85-5.8l-1.15,5.8h-0.85l1.3-6.601H192.6z M187.65,41.25c-0.301-0.367-0.684-0.55-1.15-0.55
	c-0.566,0-1.066,0.316-1.5,0.95c-0.467,0.666-0.7,1.482-0.7,2.449c0,0.601,0.15,1.084,0.45,1.45c0.267,0.333,0.617,0.5,1.05,0.5
	c0.601,0,1.134-0.316,1.601-0.95c0.434-0.666,0.649-1.467,0.649-2.399C188.05,42.1,187.916,41.617,187.65,41.25z M143.9,7.85V7.2
	h5.699c0.066,0.9,0.301,1.867,0.7,2.9l4.2,11.8c0.7,2.067,1.383,3.75,2.05,5.05h-5l-2.149-7.1h-6.351l-1.35,4.7l-0.4,2.4h-3.6
	l6.399-14.8c0.634-1.566,0.95-2.633,0.95-3.2C145.05,8.317,144.666,7.95,143.9,7.85z M146.25,10.5l-2.7,7.95h5.4L146.25,10.5z
	 M136.15,11.5h-1.101l-0.25-0.85c-0.267-0.967-0.667-1.6-1.2-1.9l-2.75-0.35H128.2c-0.601,0-1,0.1-1.2,0.3
	c-0.166,0.167-0.25,0.466-0.25,0.9v4.7h1.1c3.2,0,5.417,0.317,6.65,0.95c1.767,0.867,2.65,2.567,2.65,5.1
	c0,2.467-0.7,4.233-2.101,5.3c-1.233,0.867-3.149,1.3-5.75,1.3H121.4v-0.6l0.949-0.5l0.15-1.15V9.4l-0.15-1.1
	c-0.133-0.233-0.449-0.383-0.949-0.45V7.2h14.75V11.5z M126.75,15.55V24c0,0.667,0.117,1.1,0.35,1.3c0.268,0.267,0.734,0.4,1.4,0.4
	h0.6c1.268,0,2.2-0.434,2.801-1.3c0.533-0.8,0.8-2.083,0.8-3.85c0-1.733-0.284-2.966-0.851-3.7c-0.6-0.867-1.717-1.3-3.35-1.3
	H126.75z M128,37.95c0.4,0.399,0.6,0.95,0.6,1.649c0,0.601-0.184,1.101-0.55,1.5c-0.333,0.367-0.866,0.65-1.6,0.851
	c1.033,0.433,1.55,1.116,1.55,2.05c0,0.867-0.3,1.533-0.9,2c-0.566,0.467-1.416,0.7-2.55,0.7H121.4l1.75-9.351h2.949
	C126.934,37.35,127.566,37.55,128,37.95z M123.95,38.2l-0.65,3.25h1.851c0.8,0,1.416-0.167,1.85-0.5
	c0.434-0.366,0.65-0.817,0.65-1.351c0-0.5-0.134-0.85-0.4-1.05c-0.3-0.233-0.75-0.35-1.35-0.35H123.95z M130.1,43.95
	c0,0.667,0.167,1.167,0.5,1.5C130.9,45.816,131.334,46,131.9,46l1.149-0.35l0.65-0.9l0.7,0.3l-1,1.25
	c-0.434,0.333-0.967,0.5-1.601,0.5c-0.767,0-1.384-0.267-1.85-0.8c-0.467-0.533-0.7-1.25-0.7-2.15c0-1.066,0.3-1.982,0.9-2.75
	c0.6-0.766,1.35-1.149,2.25-1.149c0.633,0,1.133,0.167,1.5,0.5c0.366,0.3,0.666,0.767,0.899,1.399L133.95,42
	c-0.233-0.867-0.75-1.3-1.55-1.3c-0.601,0-1.134,0.3-1.601,0.899C130.334,42.233,130.1,43.017,130.1,43.95z M124.85,42.25h-1.699
	l-0.65,3.6h2.2c0.733,0,1.3-0.166,1.7-0.5c0.399-0.333,0.6-0.783,0.6-1.35c0-0.434-0.184-0.834-0.55-1.2
	C126.017,42.434,125.483,42.25,124.85,42.25z M141.1,43.4h-4.649l-0.05,0.55c0,0.667,0.166,1.183,0.5,1.55
	c0.3,0.367,0.717,0.55,1.25,0.55c0.467,0,0.866-0.149,1.199-0.45l0.851-1.1l0.75,0.4l-1.25,1.35c-0.467,0.367-1.034,0.55-1.7,0.55
	c-0.767,0-1.367-0.25-1.8-0.75c-0.434-0.533-0.65-1.233-0.65-2.1c0-1.167,0.3-2.116,0.9-2.851c0.634-0.766,1.417-1.149,2.35-1.149
	c0.767,0,1.351,0.233,1.75,0.7c0.434,0.434,0.65,1.066,0.65,1.899L141.1,43.4z M139.95,41.2c-0.3-0.333-0.684-0.5-1.15-0.5
	c-0.6,0-1.066,0.183-1.399,0.55c-0.334,0.3-0.601,0.767-0.801,1.4h3.65l0.05-0.4C140.3,41.85,140.184,41.5,139.95,41.2z M142.1,46.7
	L143.4,40.1h3.699l-0.149,0.75H144.1L142.95,46.7H142.1z M149.55,40.95l-2.3,4.95h2.95l-0.45-4.95H149.55z M150.4,40.1l0.75,5.801
	h0.649l-0.399,2.05h-0.65l0.1-1.25H146.4l-0.351,1.25H145.4l0.35-2.05h0.6l2.75-5.801H150.4z M152.8,44.95
	c0-0.7,0.3-1.233,0.9-1.601c0.634-0.399,1.517-0.6,2.649-0.6h0.9L157.3,42c0-0.434-0.116-0.75-0.35-0.95
	c-0.267-0.233-0.634-0.35-1.101-0.35c-0.434,0-0.916,0.25-1.449,0.75l-0.551-0.55c0.734-0.634,1.45-0.95,2.15-0.95
	c0.666,0,1.2,0.183,1.6,0.55c0.4,0.367,0.601,0.834,0.601,1.4l-0.101,1L157.65,45.1c-0.101,0.467-0.15,1-0.15,1.601h-0.85
	l-0.051-0.75l-0.899,0.6l-1.05,0.25c-0.533,0-0.967-0.183-1.301-0.55C152.983,45.883,152.8,45.45,152.8,44.95z M156.45,43.45
	c-1.833,0-2.75,0.466-2.75,1.399c0,0.334,0.1,0.617,0.3,0.851c0.233,0.233,0.517,0.35,0.85,0.35c0.5,0,1.134-0.283,1.9-0.85
	l0.35-1.75H156.45z M119.65,12.85c0,2.3-0.7,3.95-2.101,4.95c-1.2,0.867-3.066,1.3-5.6,1.3h-2v5.6l0.2,1.15
	c0.1,0.2,0.416,0.367,0.949,0.5v0.6h-6.5v-0.6l0.9-0.5l0.2-1.15V9.4l-0.2-1.1c-0.133-0.233-0.434-0.383-0.9-0.45V7.2h8.2
	c2.233,0,3.866,0.333,4.9,1C119,9.067,119.65,10.617,119.65,12.85z M110.25,8.6c-0.2,0.133-0.3,0.433-0.3,0.9v8.35h2
	c1.233,0,2.1-0.467,2.6-1.4c0.434-0.833,0.65-2.1,0.65-3.8c0-2.833-1.184-4.25-3.55-4.25h-0.5L110.25,8.6z M101.6,11.5h-1.05
	l-0.25-0.85c-0.333-0.967-0.75-1.6-1.25-1.9l-2.7-0.35h-2.2l-0.8,0.2l-0.2,0.75v6.1h2.6c1.8,0,2.983-0.2,3.55-0.6v2.5
	c-0.566-0.4-1.75-0.6-3.55-0.6h-2.6v7.4c0,0.6,0.2,1.017,0.6,1.25l2.5,0.3h0.55l2.7-0.4c0.467-0.3,0.834-1.033,1.1-2.2l0.2-0.75
	h1.25v4.6H87.8v-0.6c0.5-0.133,0.817-0.3,0.95-0.5l0.2-1.15V9.4l-0.2-1.1c-0.133-0.233-0.45-0.383-0.95-0.45V7.2h13.8V11.5z
	 M84.55,11.5H83.5l-0.25-0.85c-0.3-0.967-0.717-1.6-1.25-1.9L79.35,8.4H76.6c-0.567,0-0.967,0.1-1.2,0.3
	c-0.1,0.167-0.15,0.466-0.15,0.9v4.7h1.1c3.167,0,5.383,0.317,6.65,0.95c1.733,0.867,2.6,2.567,2.6,5.1c0,2.467-0.7,4.233-2.1,5.3
	c-1.2,0.867-3.117,1.3-5.75,1.3H69.8v-0.6c0.534-0.133,0.867-0.3,1-0.5L71,24.7V9.4l-0.2-1.1c-0.133-0.233-0.466-0.383-1-0.45V7.2
	h14.75V11.5z M64.65,8.8c-0.6-0.433-1.533-0.65-2.8-0.65c-2,0-3.417,0.733-4.25,2.2c-0.7,1.267-1.05,3.333-1.05,6.2
	s0.383,4.983,1.15,6.35c0.933,1.7,2.533,2.55,4.8,2.55c1.667,0,3.317-0.4,4.95-1.2l0.6,1.25c-1.9,1.166-4.133,1.75-6.7,1.75
	c-6.267,0-9.4-3.317-9.4-9.95c0-6.966,3.25-10.45,9.75-10.45c2.5,0,4.417,0.3,5.75,0.9v4.1H66.2l-0.35-1.2
	C65.583,9.817,65.183,9.2,64.65,8.8z M75.25,15.55V24c0,0.667,0.1,1.1,0.3,1.3c0.267,0.267,0.75,0.4,1.45,0.4h0.55
	c2.4,0,3.6-1.717,3.6-5.15c0-1.733-0.283-2.966-0.85-3.7c-0.633-0.867-1.767-1.3-3.4-1.3H75.25z"/>
<radialGradient id="SVGID_1_" cx="23.7002" cy="20.7007" r="23.4124" gradientUnits="userSpaceOnUse">
	<stop  offset="0" style="stop-color:#52A347"/>
	<stop  offset="0.502" style="stop-color:#83B03E"/>
	<stop  offset="0.7059" style="stop-color:#2EA64C"/>
	<stop  offset="0.9294" style="stop-color:#264122"/>
	<stop  offset="0.9333" style="stop-color:#264122"/>
</radialGradient>
<path fill-rule="evenodd" clip-rule="evenodd" fill="url(#SVGID_1_)" d="M34.75,4.05l1.75,1.6l-22.1,12.7l-10.7-6.2l1-2l9.7,5.55
	L34.75,4.05z M30.3,1.5l2.35,1.2L14.4,13.2L5.9,8.35L7.35,6.6l7.05,4.05L30.3,1.5z M38.05,7.3l1.3,1.75L14.4,23.4L2.35,16.5
	l0.55-2.2l11.5,6.6L38.05,7.3z"/>
<radialGradient id="SVGID_2_" cx="23.7002" cy="20.7002" r="23.4128" gradientUnits="userSpaceOnUse">
	<stop  offset="0" style="stop-color:#52A347"/>
	<stop  offset="0.502" style="stop-color:#83B03E"/>
	<stop  offset="0.7059" style="stop-color:#2B9940"/>
	<stop  offset="0.9294" style="stop-color:#264122"/>
	<stop  offset="0.9333" style="stop-color:#264122"/>
</radialGradient>
<path fill-rule="evenodd" clip-rule="evenodd" fill="url(#SVGID_2_)" d="M41.65,13.75c0.733,2.067,1.1,4.233,1.1,6.5
	s-0.367,4.467-1.1,6.6l-0.5,1.351c-1.033,2.433-2.483,4.6-4.35,6.5c-1.9,1.866-4.066,3.3-6.5,4.3c-2.566,1.1-5.216,1.65-7.95,1.65
	c-2.767,0-5.417-0.551-7.95-1.65c-2.367-1-4.517-2.434-6.45-4.3c-1.9-1.9-3.35-4.067-4.35-6.5C2.533,25.633,2,22.983,2,20.25V18.9
	l12.4,7.05l26.15-15L41.65,13.75z"/>
</svg>
