<?xml version="1.0" encoding="UTF-8" standalone="no"?>
<svg
   xmlns:dc="http://purl.org/dc/elements/1.1/"
   xmlns:cc="http://creativecommons.org/ns#"
   xmlns:rdf="http://www.w3.org/1999/02/22-rdf-syntax-ns#"
   xmlns:svg="http://www.w3.org/2000/svg"
   xmlns="http://www.w3.org/2000/svg"
   id="svg41"
   xml:space="preserve"
   viewBox="0 0 1024 768"
   y="0px"
   x="0px"
   version="1.1"><metadata
     id="metadata47"><rdf:RDF><cc:Work
         rdf:about=""><dc:format>image/svg+xml</dc:format><dc:type
           rdf:resource="http://purl.org/dc/dcmitype/StillImage" /></cc:Work></rdf:RDF></metadata><defs
     id="defs45" /><g
     style="stroke-width:0;stroke-miterlimit:2"
     transform="translate(5e-6)"
     stroke-miterlimit="2"
     id="logo-group"><path
       d="m 143.05,408.49 h -2.04 v 24.32 l -19.04,-24.32 h -1.72 v 28 h 2.04 v -24.32 l 19.08,24.32 h 1.68 z"
       style="font-variant-ligatures:none"
       id="path321969" /><path
       d="m 168.93,417.45 c -1.4,-1.32 -3.4,-2 -5.96,-2 -1.6,0 -3.16,0.28 -4.6,0.8 -1.48,0.52 -2.72,1.24 -3.76,2.16 l 1,1.44 c 0.88,-0.8 1.92,-1.44 3.2,-1.92 1.28,-0.48 2.6,-0.72 4,-0.72 2,0 3.56,0.52 4.6,1.52 1.04,1.04 1.6,2.52 1.6,4.44 v 1.68 h -7.16 c -2.72,0 -4.72,0.56 -5.96,1.64 -1.24,1.08 -1.84,2.48 -1.84,4.2 0,1.8 0.64,3.24 2,4.32 1.36,1.12 3.2,1.64 5.52,1.64 1.76,0 3.32,-0.32 4.6,-1 1.28,-0.68 2.24,-1.64 2.92,-2.88 v 3.72 h 1.92 v -13.24 c 0,-2.56 -0.72,-4.48 -2.08,-5.8 z m -2.68,16.36 c -1.2,0.8 -2.68,1.2 -4.4,1.2 -1.84,0 -3.28,-0.36 -4.28,-1.16 -1.04,-0.8 -1.52,-1.88 -1.52,-3.24 0,-1.28 0.44,-2.32 1.36,-3.08 0.92,-0.72 2.4,-1.12 4.48,-1.12 h 7.12 v 3.92 c -0.64,1.52 -1.56,2.68 -2.76,3.48 z"
       style="font-variant-ligatures:none"
       id="path321971" /><path
       d="m 199.41,415.61 h -2.04 l -8.4,18.68 -8.32,-18.68 h -2.12 l 9.4,20.88 h 2.04 z"
       style="font-variant-ligatures:none"
       id="path321973" /><path
       d="m 207.5,415.61 v 20.88 h 2 v -20.88 z m -0.16,-5.52 c 0.32,0.32 0.68,0.44 1.16,0.44 0.44,0 0.84,-0.16 1.16,-0.48 0.32,-0.32 0.48,-0.68 0.48,-1.16 0,-0.44 -0.16,-0.8 -0.48,-1.12 -0.32,-0.32 -0.72,-0.48 -1.16,-0.48 -0.48,0 -0.84,0.16 -1.16,0.48 -0.32,0.32 -0.48,0.72 -0.48,1.16 0,0.48 0.16,0.84 0.48,1.16 z"
       style="font-variant-ligatures:none"
       id="path321975" /><path
       d="m 240.52,415.61 h -1.92 v 4.72 c -0.84,-1.52 -2.04,-2.72 -3.56,-3.6 -1.56,-0.84 -3.28,-1.28 -5.2,-1.28 -1.96,0 -3.72,0.44 -5.32,1.28 -1.6,0.88 -2.84,2.08 -3.72,3.6 -0.92,1.56 -1.36,3.32 -1.36,5.24 0,1.96 0.44,3.72 1.36,5.24 0.88,1.56 2.12,2.76 3.72,3.64 1.6,0.88 3.36,1.28 5.32,1.28 1.88,0 3.6,-0.4 5.12,-1.24 1.52,-0.8 2.68,-2 3.56,-3.52 v 3.52 c 0,2.8 -0.68,4.84 -2,6.16 -1.36,1.32 -3.4,1.96 -6.16,1.96 -1.68,0 -3.24,-0.24 -4.68,-0.8 -1.48,-0.52 -2.72,-1.28 -3.76,-2.24 l -1.08,1.52 c 1.04,1.04 2.4,1.88 4.12,2.44 1.68,0.6 3.52,0.88 5.44,0.88 3.36,0 5.92,-0.8 7.6,-2.48 1.68,-1.64 2.52,-4.2 2.52,-7.68 z m -6.12,17.28 c -1.32,0.72 -2.8,1.04 -4.4,1.04 -1.64,0 -3.12,-0.32 -4.4,-1.04 -1.28,-0.72 -2.32,-1.68 -3.04,-2.96 -0.72,-1.28 -1.08,-2.72 -1.08,-4.36 0,-1.6 0.36,-3.04 1.08,-4.32 0.72,-1.24 1.76,-2.2 3.04,-2.92 1.28,-0.72 2.76,-1.08 4.4,-1.08 1.6,0 3.08,0.36 4.4,1.08 1.28,0.72 2.32,1.68 3.04,2.92 0.72,1.28 1.12,2.72 1.12,4.32 0,1.64 -0.4,3.08 -1.12,4.36 -0.72,1.28 -1.76,2.24 -3.04,2.96 z"
       style="font-variant-ligatures:none"
       id="path321977" /><path
       d="m 265.73,417.45 c -1.4,-1.32 -3.4,-2 -5.96,-2 -1.6,0 -3.16,0.28 -4.6,0.8 -1.48,0.52 -2.72,1.24 -3.76,2.16 l 1,1.44 c 0.88,-0.8 1.92,-1.44 3.2,-1.92 1.28,-0.48 2.6,-0.72 4,-0.72 2,0 3.56,0.52 4.6,1.52 1.04,1.04 1.6,2.52 1.6,4.44 v 1.68 h -7.16 c -2.72,0 -4.72,0.56 -5.96,1.64 -1.24,1.08 -1.84,2.48 -1.84,4.2 0,1.8 0.64,3.24 2,4.32 1.36,1.12 3.2,1.64 5.52,1.64 1.76,0 3.32,-0.32 4.6,-1 1.28,-0.68 2.24,-1.64 2.92,-2.88 v 3.72 h 1.92 v -13.24 c 0,-2.56 -0.72,-4.48 -2.08,-5.8 z m -2.68,16.36 c -1.2,0.8 -2.68,1.2 -4.4,1.2 -1.84,0 -3.28,-0.36 -4.28,-1.16 -1.04,-0.8 -1.52,-1.88 -1.52,-3.24 0,-1.28 0.44,-2.32 1.36,-3.08 0.92,-0.72 2.4,-1.12 4.48,-1.12 h 7.12 v 3.92 c -0.64,1.52 -1.56,2.68 -2.76,3.48 z"
       style="font-variant-ligatures:none"
       id="path321979" /><path
       d="m 290.2,435.17 -0.84,-1.4 c -0.88,0.8 -1.96,1.16 -3.24,1.16 -1.28,0 -2.28,-0.32 -2.92,-1.04 -0.64,-0.72 -0.96,-1.76 -0.96,-3.12 v -13.44 h 6.64 v -1.72 h -6.64 v -4.56 h -2 v 4.56 h -3.84 v 1.72 h 3.84 v 13.64 c 0,1.8 0.48,3.2 1.48,4.2 0.96,1 2.36,1.48 4.2,1.48 0.8,0 1.6,-0.12 2.36,-0.36 0.76,-0.24 1.4,-0.64 1.92,-1.12 z"
       style="font-variant-ligatures:none"
       id="path321981" /><path
       d="m 299.53,415.61 v 20.88 h 2 v -20.88 z m -0.16,-5.52 c 0.32,0.32 0.68,0.44 1.16,0.44 0.44,0 0.84,-0.16 1.16,-0.48 0.32,-0.32 0.48,-0.68 0.48,-1.16 0,-0.44 -0.16,-0.8 -0.48,-1.12 -0.32,-0.32 -0.72,-0.48 -1.16,-0.48 -0.48,0 -0.84,0.16 -1.16,0.48 -0.32,0.32 -0.48,0.72 -0.48,1.16 0,0.48 0.16,0.84 0.48,1.16 z"
       style="font-variant-ligatures:none"
       id="path321983" /><path
       d="m 330.15,417.73 c -1.52,-1.52 -3.6,-2.28 -6.2,-2.28 -1.96,0 -3.64,0.44 -5.08,1.24 -1.44,0.84 -2.48,2 -3.2,3.44 v -4.52 h -1.92 v 20.88 h 2 v -11.12 c 0,-2.48 0.68,-4.44 2.12,-5.92 1.4,-1.44 3.32,-2.2 5.8,-2.2 2.12,0 3.76,0.64 4.96,1.84 1.2,1.24 1.8,3.04 1.8,5.36 v 12.04 h 2 v -12.2 c 0,-2.84 -0.76,-5.04 -2.28,-6.56 z"
       style="font-variant-ligatures:none"
       id="path321985" /><path
       d="m 363.33,415.61 h -1.92 v 4.72 c -0.84,-1.52 -2.04,-2.72 -3.56,-3.6 -1.56,-0.84 -3.28,-1.28 -5.2,-1.28 -1.96,0 -3.72,0.44 -5.32,1.28 -1.6,0.88 -2.84,2.08 -3.72,3.6 -0.92,1.56 -1.36,3.32 -1.36,5.24 0,1.96 0.44,3.72 1.36,5.24 0.88,1.56 2.12,2.76 3.72,3.64 1.6,0.88 3.36,1.28 5.32,1.28 1.88,0 3.6,-0.4 5.12,-1.24 1.52,-0.8 2.68,-2 3.56,-3.52 v 3.52 c 0,2.8 -0.68,4.84 -2,6.16 -1.36,1.32 -3.4,1.96 -6.16,1.96 -1.68,0 -3.24,-0.24 -4.68,-0.8 -1.48,-0.52 -2.72,-1.28 -3.76,-2.24 l -1.08,1.52 c 1.04,1.04 2.4,1.88 4.12,2.44 1.68,0.6 3.52,0.88 5.44,0.88 3.36,0 5.92,-0.8 7.6,-2.48 1.68,-1.64 2.52,-4.2 2.52,-7.68 z m -6.12,17.28 c -1.32,0.72 -2.8,1.04 -4.4,1.04 -1.64,0 -3.12,-0.32 -4.4,-1.04 -1.28,-0.72 -2.32,-1.68 -3.04,-2.96 -0.72,-1.28 -1.08,-2.72 -1.08,-4.36 0,-1.6 0.36,-3.04 1.08,-4.32 0.72,-1.24 1.76,-2.2 3.04,-2.92 1.28,-0.72 2.76,-1.08 4.4,-1.08 1.6,0 3.08,0.36 4.4,1.08 1.28,0.72 2.32,1.68 3.04,2.92 0.72,1.28 1.12,2.72 1.12,4.32 0,1.64 -0.4,3.08 -1.12,4.36 -0.72,1.28 -1.76,2.24 -3.04,2.96 z"
       style="font-variant-ligatures:none"
       id="path321987" /><path
       d="m 396.74,408.49 h -2.04 l -12.88,28 h 2.2 l 11.68,-25.76 11.72,25.76 h 2.2 z"
       style="font-variant-ligatures:none"
       id="path321989" /><path
       d="m 435.7,415.61 h -2 v 11.12 c 0,2.48 -0.72,4.48 -2.08,5.92 -1.36,1.48 -3.24,2.2 -5.56,2.2 -2.2,0 -3.88,-0.6 -5.08,-1.84 -1.2,-1.2 -1.8,-3 -1.8,-5.36 v -12.04 h -2 v 12.2 c 0,2.88 0.76,5.04 2.32,6.56 1.52,1.52 3.68,2.28 6.4,2.28 1.84,0 3.44,-0.4 4.8,-1.2 1.36,-0.8 2.36,-1.96 3.08,-3.44 v 4.48 h 1.92 z"
       style="font-variant-ligatures:none"
       id="path321991" /><path
       d="m 458.32,435.17 -0.84,-1.4 c -0.88,0.8 -1.96,1.16 -3.24,1.16 -1.28,0 -2.28,-0.32 -2.92,-1.04 -0.64,-0.72 -0.96,-1.76 -0.96,-3.12 V 417.33 H 457 v -1.72 h -6.64 v -4.56 h -2 v 4.56 h -3.84 v 1.72 h 3.84 v 13.64 c 0,1.8 0.48,3.2 1.48,4.2 0.96,1 2.36,1.48 4.2,1.48 0.8,0 1.6,-0.12 2.36,-0.36 0.76,-0.24 1.4,-0.64 1.92,-1.12 z"
       style="font-variant-ligatures:none"
       id="path321993" /><path
       d="m 469.67,435.29 c 1.6,0.92 3.36,1.36 5.36,1.36 1.96,0 3.72,-0.44 5.32,-1.36 1.6,-0.88 2.84,-2.16 3.76,-3.76 0.88,-1.6 1.36,-3.44 1.36,-5.48 0,-2 -0.48,-3.84 -1.36,-5.44 -0.92,-1.6 -2.16,-2.88 -3.76,-3.8 -1.6,-0.88 -3.36,-1.36 -5.32,-1.36 -2,0 -3.76,0.48 -5.36,1.36 -1.6,0.92 -2.84,2.2 -3.72,3.8 -0.92,1.6 -1.36,3.44 -1.36,5.44 0,2.04 0.44,3.88 1.36,5.48 0.88,1.6 2.12,2.88 3.72,3.76 z m 9.64,-1.56 c -1.28,0.76 -2.68,1.12 -4.28,1.12 -1.6,0 -3.04,-0.36 -4.32,-1.12 -1.28,-0.72 -2.28,-1.76 -3,-3.12 -0.72,-1.32 -1.08,-2.84 -1.08,-4.56 0,-1.68 0.36,-3.2 1.08,-4.56 0.72,-1.32 1.72,-2.36 3,-3.12 1.28,-0.72 2.72,-1.12 4.32,-1.12 1.6,0 3,0.4 4.28,1.12 1.28,0.76 2.28,1.8 3,3.12 0.72,1.36 1.12,2.88 1.12,4.56 0,1.72 -0.4,3.24 -1.12,4.56 -0.72,1.36 -1.72,2.4 -3,3.12 z"
       style="font-variant-ligatures:none"
       id="path321995" /><path
       d="m 527.47,417.73 c -1.48,-1.52 -3.52,-2.28 -6.08,-2.28 -2,0 -3.72,0.48 -5.2,1.36 -1.48,0.92 -2.56,2.16 -3.24,3.68 -0.56,-1.64 -1.52,-2.88 -2.84,-3.76 -1.32,-0.84 -2.92,-1.28 -4.8,-1.28 -1.92,0 -3.56,0.44 -4.92,1.24 -1.36,0.8 -2.4,1.96 -3.08,3.4 v -4.48 h -1.92 v 20.88 h 2 v -11.12 c 0,-2.48 0.68,-4.44 2.04,-5.92 1.36,-1.44 3.24,-2.2 5.6,-2.2 2.04,0 3.64,0.64 4.8,1.84 1.12,1.24 1.72,3.04 1.72,5.36 v 12.04 h 2 v -11.12 c 0,-2.48 0.68,-4.44 2.04,-5.92 1.36,-1.44 3.24,-2.2 5.6,-2.2 2.04,0 3.64,0.64 4.8,1.84 1.12,1.24 1.72,3.04 1.72,5.36 v 12.04 h 2 v -12.2 c 0,-2.84 -0.76,-5.04 -2.24,-6.56 z"
       style="font-variant-ligatures:none"
       id="path321997" /><path
       d="m 544.59,435.29 c 1.6,0.92 3.36,1.36 5.36,1.36 1.96,0 3.72,-0.44 5.32,-1.36 1.6,-0.88 2.84,-2.16 3.76,-3.76 0.88,-1.6 1.36,-3.44 1.36,-5.48 0,-2 -0.48,-3.84 -1.36,-5.44 -0.92,-1.6 -2.16,-2.88 -3.76,-3.8 -1.6,-0.88 -3.36,-1.36 -5.32,-1.36 -2,0 -3.76,0.48 -5.36,1.36 -1.6,0.92 -2.84,2.2 -3.72,3.8 -0.92,1.6 -1.36,3.44 -1.36,5.44 0,2.04 0.44,3.88 1.36,5.48 0.88,1.6 2.12,2.88 3.72,3.76 z m 9.64,-1.56 c -1.28,0.76 -2.68,1.12 -4.28,1.12 -1.6,0 -3.04,-0.36 -4.32,-1.12 -1.28,-0.72 -2.28,-1.76 -3,-3.12 -0.72,-1.32 -1.08,-2.84 -1.08,-4.56 0,-1.68 0.36,-3.2 1.08,-4.56 0.72,-1.32 1.72,-2.36 3,-3.12 1.28,-0.72 2.72,-1.12 4.32,-1.12 1.6,0 3,0.4 4.28,1.12 1.28,0.76 2.28,1.8 3,3.12 0.72,1.36 1.12,2.88 1.12,4.56 0,1.72 -0.4,3.24 -1.12,4.56 -0.72,1.36 -1.72,2.4 -3,3.12 z"
       style="font-variant-ligatures:none"
       id="path321999" /><path
       d="m 580.67,435.17 -0.84,-1.4 c -0.88,0.8 -1.96,1.16 -3.24,1.16 -1.28,0 -2.28,-0.32 -2.92,-1.04 -0.64,-0.72 -0.96,-1.76 -0.96,-3.12 v -13.44 h 6.64 v -1.72 h -6.64 v -4.56 h -2 v 4.56 h -3.84 v 1.72 h 3.84 v 13.64 c 0,1.8 0.48,3.2 1.48,4.2 0.96,1 2.36,1.48 4.2,1.48 0.8,0 1.6,-0.12 2.36,-0.36 0.76,-0.24 1.4,-0.64 1.92,-1.12 z"
       style="font-variant-ligatures:none"
       id="path322001" /><path
       d="m 590,415.61 v 20.88 h 2 v -20.88 z m -0.16,-5.52 c 0.32,0.32 0.68,0.44 1.16,0.44 0.44,0 0.84,-0.16 1.16,-0.48 0.32,-0.32 0.48,-0.68 0.48,-1.16 0,-0.44 -0.16,-0.8 -0.48,-1.12 -0.32,-0.32 -0.72,-0.48 -1.16,-0.48 -0.48,0 -0.84,0.16 -1.16,0.48 -0.32,0.32 -0.48,0.72 -0.48,1.16 0,0.48 0.16,0.84 0.48,1.16 z"
       style="font-variant-ligatures:none"
       id="path322003" /><path
       d="m 620.98,415.61 h -2.04 l -8.4,18.68 -8.32,-18.68 h -2.12 l 9.4,20.88 h 2.04 z"
       style="font-variant-ligatures:none"
       id="path322005" /><path
       d="m 640.75,434.13 c -1.16,0.48 -2.44,0.72 -3.76,0.72 -2.16,0 -3.96,-0.56 -5.48,-1.68 -1.52,-1.12 -2.56,-2.64 -3.04,-4.56 l 17.64,-3.44 c -0.12,-1.84 -0.56,-3.48 -1.44,-4.96 -0.88,-1.48 -2.04,-2.64 -3.48,-3.48 -1.44,-0.84 -3.08,-1.28 -4.88,-1.28 -1.96,0 -3.72,0.48 -5.24,1.36 -1.56,0.92 -2.76,2.16 -3.64,3.76 -0.88,1.6 -1.28,3.44 -1.28,5.48 0,2.08 0.44,3.88 1.36,5.48 0.92,1.6 2.2,2.88 3.84,3.76 1.64,0.92 3.48,1.36 5.6,1.36 1.6,0 3.08,-0.28 4.48,-0.84 1.32,-0.56 2.48,-1.4 3.4,-2.56 l -1.16,-1.32 c -0.8,1 -1.76,1.72 -2.92,2.2 z m -8.68,-15.8 c 1.24,-0.72 2.64,-1.12 4.24,-1.12 1.36,0 2.64,0.32 3.76,0.92 1.12,0.6 2,1.44 2.72,2.44 0.68,1.04 1.12,2.2 1.32,3.44 l -15.92,3.12 c -0.08,-0.52 -0.08,-0.92 -0.08,-1.24 0,-1.64 0.32,-3.16 1.04,-4.48 0.68,-1.32 1.64,-2.36 2.92,-3.08 z"
       style="font-variant-ligatures:none"
       id="path322007" /><path
       d="m 667.04,408.49 v 28 h 2.04 v -28 z"
       style="font-variant-ligatures:none"
       id="path322009" /><path
       d="m 698.35,417.73 c -1.52,-1.52 -3.6,-2.28 -6.2,-2.28 -1.96,0 -3.64,0.44 -5.08,1.24 -1.44,0.84 -2.48,2 -3.2,3.44 v -4.52 h -1.92 v 20.88 h 2 v -11.12 c 0,-2.48 0.68,-4.44 2.12,-5.92 1.4,-1.44 3.32,-2.2 5.8,-2.2 2.12,0 3.76,0.64 4.96,1.84 1.2,1.24 1.8,3.04 1.8,5.36 v 12.04 h 2 v -12.2 c 0,-2.84 -0.76,-5.04 -2.28,-6.56 z"
       style="font-variant-ligatures:none"
       id="path322011" /><path
       d="m 729.05,417.73 c -1.52,-1.52 -3.6,-2.28 -6.2,-2.28 -1.96,0 -3.64,0.44 -5.08,1.24 -1.44,0.84 -2.48,2 -3.2,3.44 v -4.52 h -1.92 v 20.88 h 2 v -11.12 c 0,-2.48 0.68,-4.44 2.12,-5.92 1.4,-1.44 3.32,-2.2 5.8,-2.2 2.12,0 3.76,0.64 4.96,1.84 1.2,1.24 1.8,3.04 1.8,5.36 v 12.04 h 2 v -12.2 c 0,-2.84 -0.76,-5.04 -2.28,-6.56 z"
       style="font-variant-ligatures:none"
       id="path322013" /><path
       d="m 746.23,435.29 c 1.6,0.92 3.36,1.36 5.36,1.36 1.96,0 3.72,-0.44 5.32,-1.36 1.6,-0.88 2.84,-2.16 3.76,-3.76 0.88,-1.6 1.36,-3.44 1.36,-5.48 0,-2 -0.48,-3.84 -1.36,-5.44 -0.92,-1.6 -2.16,-2.88 -3.76,-3.8 -1.6,-0.88 -3.36,-1.36 -5.32,-1.36 -2,0 -3.76,0.48 -5.36,1.36 -1.6,0.92 -2.84,2.2 -3.72,3.8 -0.92,1.6 -1.36,3.44 -1.36,5.44 0,2.04 0.44,3.88 1.36,5.48 0.88,1.6 2.12,2.88 3.72,3.76 z m 9.64,-1.56 c -1.28,0.76 -2.68,1.12 -4.28,1.12 -1.6,0 -3.04,-0.36 -4.32,-1.12 -1.28,-0.72 -2.28,-1.76 -3,-3.12 -0.72,-1.32 -1.08,-2.84 -1.08,-4.56 0,-1.68 0.36,-3.2 1.08,-4.56 0.72,-1.32 1.72,-2.36 3,-3.12 1.28,-0.72 2.72,-1.12 4.32,-1.12 1.6,0 3,0.4 4.28,1.12 1.28,0.76 2.28,1.8 3,3.12 0.72,1.36 1.12,2.88 1.12,4.56 0,1.72 -0.4,3.24 -1.12,4.56 -0.72,1.36 -1.72,2.4 -3,3.12 z"
       style="font-variant-ligatures:none"
       id="path322015" /><path
       d="m 788.08,415.61 h -2.04 l -8.4,18.68 -8.32,-18.68 h -2.12 l 9.4,20.88 h 2.04 z"
       style="font-variant-ligatures:none"
       id="path322017" /><path
       d="m 808.54,417.45 c -1.4,-1.32 -3.4,-2 -5.96,-2 -1.6,0 -3.16,0.28 -4.6,0.8 -1.48,0.52 -2.72,1.24 -3.76,2.16 l 1,1.44 c 0.88,-0.8 1.92,-1.44 3.2,-1.92 1.28,-0.48 2.6,-0.72 4,-0.72 2,0 3.56,0.52 4.6,1.52 1.04,1.04 1.6,2.52 1.6,4.44 v 1.68 h -7.16 c -2.72,0 -4.72,0.56 -5.96,1.64 -1.24,1.08 -1.84,2.48 -1.84,4.2 0,1.8 0.64,3.24 2,4.32 1.36,1.12 3.2,1.64 5.52,1.64 1.76,0 3.32,-0.32 4.6,-1 1.28,-0.68 2.24,-1.64 2.92,-2.88 v 3.72 h 1.92 v -13.24 c 0,-2.56 -0.72,-4.48 -2.08,-5.8 z m -2.68,16.36 c -1.2,0.8 -2.68,1.2 -4.4,1.2 -1.84,0 -3.28,-0.36 -4.28,-1.16 -1.04,-0.8 -1.52,-1.88 -1.52,-3.24 0,-1.28 0.44,-2.32 1.36,-3.08 0.92,-0.72 2.4,-1.12 4.48,-1.12 h 7.12 v 3.92 c -0.64,1.52 -1.56,2.68 -2.76,3.48 z"
       style="font-variant-ligatures:none"
       id="path322019" /><path
       d="m 833.01,435.17 -0.84,-1.4 c -0.88,0.8 -1.96,1.16 -3.24,1.16 -1.28,0 -2.28,-0.32 -2.92,-1.04 -0.64,-0.72 -0.96,-1.76 -0.96,-3.12 v -13.44 h 6.64 v -1.72 h -6.64 v -4.56 h -2 v 4.56 h -3.84 v 1.72 h 3.84 v 13.64 c 0,1.8 0.48,3.2 1.48,4.2 0.96,1 2.36,1.48 4.2,1.48 0.8,0 1.6,-0.12 2.36,-0.36 0.76,-0.24 1.4,-0.64 1.92,-1.12 z"
       style="font-variant-ligatures:none"
       id="path322021" /><path
       d="m 842.34,415.61 v 20.88 h 2 v -20.88 z m -0.16,-5.52 c 0.32,0.32 0.68,0.44 1.16,0.44 0.44,0 0.84,-0.16 1.16,-0.48 0.32,-0.32 0.48,-0.68 0.48,-1.16 0,-0.44 -0.16,-0.8 -0.48,-1.12 -0.32,-0.32 -0.72,-0.48 -1.16,-0.48 -0.48,0 -0.84,0.16 -1.16,0.48 -0.32,0.32 -0.48,0.72 -0.48,1.16 0,0.48 0.16,0.84 0.48,1.16 z"
       style="font-variant-ligatures:none"
       id="path322023" /><path
       d="m 859.36,435.29 c 1.6,0.92 3.36,1.36 5.36,1.36 1.96,0 3.72,-0.44 5.32,-1.36 1.6,-0.88 2.84,-2.16 3.76,-3.76 0.88,-1.6 1.36,-3.44 1.36,-5.48 0,-2 -0.48,-3.84 -1.36,-5.44 -0.92,-1.6 -2.16,-2.88 -3.76,-3.8 -1.6,-0.88 -3.36,-1.36 -5.32,-1.36 -2,0 -3.76,0.48 -5.36,1.36 -1.6,0.92 -2.84,2.2 -3.72,3.8 -0.92,1.6 -1.36,3.44 -1.36,5.44 0,2.04 0.44,3.88 1.36,5.48 0.88,1.6 2.12,2.88 3.72,3.76 z m 9.64,-1.56 c -1.28,0.76 -2.68,1.12 -4.28,1.12 -1.6,0 -3.04,-0.36 -4.32,-1.12 -1.28,-0.72 -2.28,-1.76 -3,-3.12 -0.72,-1.32 -1.08,-2.84 -1.08,-4.56 0,-1.68 0.36,-3.2 1.08,-4.56 0.72,-1.32 1.72,-2.36 3,-3.12 1.28,-0.72 2.72,-1.12 4.32,-1.12 1.6,0 3,0.4 4.28,1.12 1.28,0.76 2.28,1.8 3,3.12 0.72,1.36 1.12,2.88 1.12,4.56 0,1.72 -0.4,3.24 -1.12,4.56 -0.72,1.36 -1.72,2.4 -3,3.12 z"
       style="font-variant-ligatures:none"
       id="path322025" /><path
       d="m 901.47,417.73 c -1.52,-1.52 -3.6,-2.28 -6.2,-2.28 -1.96,0 -3.64,0.44 -5.08,1.24 -1.44,0.84 -2.48,2 -3.2,3.44 v -4.52 h -1.92 v 20.88 h 2 v -11.12 c 0,-2.48 0.68,-4.44 2.12,-5.92 1.4,-1.44 3.32,-2.2 5.8,-2.2 2.12,0 3.76,0.64 4.96,1.84 1.2,1.24 1.8,3.04 1.8,5.36 v 12.04 h 2 v -12.2 c 0,-2.84 -0.76,-5.04 -2.28,-6.56 z"
       style="font-variant-ligatures:none"
       id="path322027" /><path
       d="m 302.45,385.15 c 4.14,1.62 8.55,2.34 13.23,2.34 4.95,0 9.18,-0.72 12.6,-2.25 3.42,-1.44 5.94,-3.51 7.56,-6.03 1.62,-2.52 2.52,-5.31 2.52,-8.37 0,-3.69 -0.99,-6.66 -2.97,-8.82 -1.98,-2.16 -4.32,-3.87 -7.02,-4.95 -2.79,-1.08 -6.48,-2.16 -11.07,-3.33 -4.14,-0.99 -7.47,-1.98 -9.81,-2.88 -2.43,-0.9 -4.41,-2.16 -6.03,-3.87 -1.62,-1.62 -2.43,-3.87 -2.43,-6.75 0,-3.69 1.44,-6.75 4.5,-9.09 2.97,-2.34 7.38,-3.51 13.23,-3.51 2.88,0 5.85,0.45 8.91,1.35 3.06,0.9 5.85,2.25 8.37,3.96 l 1.71,-3.69 c -2.52,-1.71 -5.4,-3.06 -8.73,-4.14 -3.42,-0.99 -6.84,-1.53 -10.26,-1.53 -5.04,0 -9.18,0.81 -12.51,2.25 -3.33,1.53 -5.76,3.6 -7.38,6.12 -1.62,2.52 -2.43,5.31 -2.43,8.37 0,3.78 0.9,6.84 2.88,9.09 1.98,2.25 4.32,3.87 7.11,4.95 2.79,1.08 6.48,2.25 11.16,3.33 4.05,0.99 7.29,1.89 9.72,2.79 2.34,0.9 4.41,2.25 6.03,3.87 1.62,1.71 2.43,3.96 2.43,6.75 0,3.69 -1.53,6.66 -4.59,8.91 -3.06,2.34 -7.65,3.42 -13.59,3.42 -4.14,0 -8.1,-0.72 -11.88,-2.16 -3.78,-1.44 -6.75,-3.42 -8.91,-5.76 l -2.07,3.42 c 2.34,2.52 5.58,4.59 9.72,6.21 z"
       style="font-variant-ligatures:none"
       id="path322030" /><path
       d="m 394.73,353.02 h -40.77 v 4.05 h 40.77 z m 0,-28.98 h -40.77 v 4.14 h 40.77 z m -40.77,58.86 v 4.14 h 40.77 v -4.14 z"
       style="font-variant-ligatures:none"
       id="path322032" /><path
       d="m 437.29,324.04 h -4.59 l -28.98,63 h 4.95 l 26.28,-57.96 26.37,57.96 h 4.95 z"
       style="font-variant-ligatures:none"
       id="path322034" /><path
       d="m 477.71,324.04 v 4.14 h 40.32 v -4.14 z m 0,63 h 4.59 v -27.81 h 35.73 v -4.14 h -40.32 z"
       style="font-variant-ligatures:none"
       id="path322036" /><path
       d="m 554.54,324.04 h -4.59 l -28.98,63 h 4.95 l 26.28,-57.96 26.37,57.96 h 4.95 z"
       style="font-variant-ligatures:none"
       id="path322038" /><path
       d="m 628.17,364.99 c 4.68,-1.35 8.37,-3.69 10.89,-7.11 2.52,-3.42 3.87,-7.56 3.87,-12.6 0,-6.57 -2.25,-11.79 -6.75,-15.57 -4.5,-3.78 -10.71,-5.67 -18.63,-5.67 h -22.59 v 4.14 h 22.59 c 6.66,0 11.79,1.53 15.39,4.5 3.51,2.97 5.31,7.2 5.31,12.6 0,5.49 -1.8,9.72 -5.31,12.69 -3.6,2.97 -8.73,4.41 -15.39,4.41 h -22.59 v 24.66 h 4.59 v -20.61 h 18 c 1.8,0 3.87,-0.09 6.12,-0.45 l 15.03,21.06 h 5.22 z"
       style="font-variant-ligatures:none"
       id="path322040" /><path
       d="m 659.82,324.04 v 63 h 4.59 v -63 z"
       style="font-variant-ligatures:none"
       id="path322042" /><path
       d="m 725.87,387.04 h 5.4 l -24.21,-32.58 22.5,-30.42 h -5.13 l -20.07,27.09 -20.07,-27.09 h -5.4 l 22.5,30.51 -24.21,32.49 h 5.4 l 21.6,-29.16 z"
       style="font-variant-ligatures:none"
       id="path322044" /></g></svg>