<?xml version="1.0" encoding="utf-8"?>
<!-- Generator: Adobe Illustrator 25.4.1, SVG Export Plug-In . SVG Version: 6.00 Build 0)  -->
<svg version="1.1" id="Layer_1" xmlns="http://www.w3.org/2000/svg" xmlns:xlink="http://www.w3.org/1999/xlink" x="0px" y="0px"
	 viewBox="0 0 995.1 244.8" style="enable-background:new 0 0 995.1 244.8;" xml:space="preserve">
<style type="text/css">
	.st0{fill:none;}
	.st1{fill:#22532A;}
	.st2{fill:#3DA648;}
	.st3{fill:#5E5F5F;}
</style>
<g>
	<path class="st0" d="M178.8,143.8c0-0.3,0-0.5,0.1-0.8C178.8,143.3,178.8,143.6,178.8,143.8z"/>
	<path class="st0" d="M178.8,138.4c0-0.2,0-0.5,0-0.7C178.8,137.9,178.8,138.1,178.8,138.4z"/>
	<path class="st0" d="M178.4,134c0-0.2-0.1-0.5-0.1-0.7C178.3,133.5,178.3,133.7,178.4,134z"/>
	<path class="st0" d="M164.7,137.4c0.1,1,0.2,2.1,0.2,3.2c0,0.1,0,0.2,0,0.3c0-0.1,0-0.2,0-0.3C164.9,139.5,164.8,138.4,164.7,137.4
		z"/>
	<path class="st0" d="M178.7,136.1c0-0.3-0.1-0.5-0.1-0.8C178.6,135.6,178.6,135.9,178.7,136.1z"/>
	<path class="st0" d="M164.7,143.6c0-0.2,0.1-0.4,0.1-0.5C164.8,143.2,164.7,143.4,164.7,143.6z"/>
	<path class="st0" d="M178.9,140.2c0,0.1,0,0.3,0,0.4c0,0.1,0,0.2,0,0.2c0-0.1,0-0.2,0-0.2C178.9,140.4,178.9,140.3,178.9,140.2z"/>
	<path class="st0" d="M101.8,80.1c-0.3,0-0.6,0.1-0.9,0.1C101.2,80.2,101.5,80.1,101.8,80.1z"/>
	<path class="st0" d="M103.9,80c0.1,0,0.2,0,0.4,0c1.1,0,2.2,0.1,3.3,0.2c-1.1-0.1-2.2-0.2-3.3-0.2C104.2,80,104,80,103.9,80z"/>
	<path class="st0" d="M80.4,99.6c4.5-1.1,8.5-3.4,12.1-7c3.6-3.6,5.9-7.6,7-12.1c-4.7,0.9-8.9,3.1-12.5,6.6
		C83.5,90.7,81.2,94.8,80.4,99.6z"/>
	<path class="st0" d="M104.1,66c0.1,0,0.1,0,0.2,0c0.1,0,0.3,0,0.4,0c-0.1,0-0.3,0-0.4,0C104.2,66,104.2,66,104.1,66z"/>
	<path class="st0" d="M101.8,66.1c-0.2,0-0.5,0-0.7,0C101.3,66.1,101.6,66.1,101.8,66.1z"/>
	<path class="st0" d="M109.5,66.3c-0.3,0-0.6-0.1-0.8-0.1C109,66.2,109.2,66.3,109.5,66.3z"/>
	<path class="st0" d="M111.6,66.6c-0.3,0-0.5-0.1-0.8-0.1C111.1,66.5,111.4,66.6,111.6,66.6z"/>
	<path class="st0" d="M107.3,66.1c-0.3,0-0.5,0-0.8-0.1C106.7,66,107,66.1,107.3,66.1z"/>
	<path class="st1" d="M130.6,168.6c0.1-1.4,0.2-2.8,0.4-4.2C130.8,165.8,130.7,167.2,130.6,168.6c-0.1,1.7-0.1,3.3,0,4.8
		C130.5,171.9,130.5,170.3,130.6,168.6z"/>
	<path class="st1" d="M164,133.9c0.1,0.4,0.2,0.7,0.3,1.1C164.1,134.6,164.1,134.2,164,133.9z"/>
	<path class="st1" d="M164.8,142.5c0-0.5,0.1-1.1,0.1-1.6c0-0.1,0-0.2,0-0.3v0c0,0.1,0,0.2,0,0.3C164.9,141.4,164.8,142,164.8,142.5
		z"/>
	<path class="st1" d="M164.6,144.5c0-0.3,0.1-0.6,0.1-0.9c0-0.1,0-0.2,0-0.3c0,0.1,0,0.2,0,0.3C164.7,143.9,164.6,144.2,164.6,144.5
		z"/>
	<path class="st2" d="M178.8,143c0,0.1,0,0.2,0,0.2c0.9,0.4,1.8,0.8,2.7,1.3c1.8,1,3.5,2.3,5.1,3.9c0.8,0.8,1.8,1.2,3,1.2
		c1.3,0,2.2-0.4,3.1-1.3c0.9-0.9,1.3-1.8,1.2-3c0-1.2-0.4-2.2-1.2-3c-3.4-3.4-7.2-5.8-11.4-7.3c0,0,0,0,0,0c-1-0.4-1.9-0.7-2.9-0.9
		c0.1,0.4,0.1,0.9,0.2,1.3c0,0.3,0.1,0.5,0.1,0.8c0.1,0.5,0.1,1,0.1,1.5c0,0.2,0,0.5,0,0.7c0,0.6,0,1.2,0.1,1.8c0,0.1,0,0.3,0,0.4
		c0,0.1,0,0.2,0,0.2C178.9,141.5,178.9,142.2,178.8,143z"/>
	<path class="st2" d="M154.7,136.8C154.7,136.8,154.7,136.8,154.7,136.8c-3.7,1.8-7.2,4.3-10.3,7.5c-5.6,5.6-9.1,12.1-10.4,19.2
		c-0.3,1.7-0.5,3.4-0.6,5.2c-0.2,3,0,5.8,0.5,8.4l0,0.1l0,0.2c1.2,5.8,4,10.9,8.4,15.3c6.7,6.7,13.7,10.1,20.7,10.1
		c1.3,0,2.5-0.1,3.8-0.3c5.2-0.9,13-4.7,23.2-11.3c7.7-5,13.5-7.9,17.5-8.8l0,0l0,0c1.5-0.3,3-0.5,4.5-0.5c5.4,0,10.4,2.3,14.9,6.7
		c4.7,4.7,6.9,10.5,6.5,17.5c-0.3,7.2-3.2,13.5-8.5,18.8c-5.4,5.4-11.7,8.2-18.9,8.5c-0.4,0-0.9,0-1.3,0c-6.4,0-11.8-2.2-16.2-6.6
		c-0.9-0.9-1.8-1.3-3-1.3c-1.2,0-2.2,0.4-3.1,1.3c-0.8,0.8-1.2,1.8-1.2,3c0,1.2,0.4,2.2,1.3,3c6.1,6.1,13.3,9,22,9
		c0.7,0,1.3,0,2-0.1c9.5-0.5,17.4-4.1,24.4-11c6.9-6.9,10.5-14.9,11-24.4c0.4-9.6-2.5-17.4-9-23.9c-6.7-6.7-13.7-10.1-20.7-10.1
		c-1.3,0-2.5,0.1-3.8,0.3c-5.2,0.9-13,4.7-23.2,11.3c-7.8,5-13.5,7.9-17.5,8.8l0,0l0,0c-1.5,0.3-3,0.5-4.5,0.5
		c-5.4,0-10.4-2.3-14.9-6.7c-2-2-3.6-4.3-4.7-6.8l-0.1-0.2l-0.1-0.3c-1.3-3.1-1.8-6.5-1.6-10.2c0.1-1.8,0.3-3.7,0.8-5.4l0-0.1l0,0
		c1.2-4.9,3.8-9.4,7.8-13.4c3.4-3.4,7.3-5.9,11.6-7.2c0,0,0,0,0,0c0,0,0,0,0,0c0.9-0.3,1.9-0.5,2.8-0.7c0-0.5,0.1-1,0.1-1.6
		c0-0.1,0-0.2,0-0.3c0-1.1-0.1-2.1-0.2-3.2c0-0.2-0.1-0.5-0.1-0.7c0-0.1,0-0.2,0-0.3c-0.1-0.9-0.3-1.7-0.5-2.5
		C160.7,134.3,157.6,135.3,154.7,136.8z"/>
	<path class="st1" d="M164.3,135.2c0.1,0.4,0.2,0.8,0.2,1.3C164.4,136,164.4,135.6,164.3,135.2z"/>
	<path class="st1" d="M163.6,132.6c0.1,0.3,0.2,0.5,0.2,0.8C163.7,133.1,163.7,132.8,163.6,132.6z"/>
	<path class="st1" d="M161.3,131.6c0.2-0.1,0.4-0.1,0.7-0.2C161.7,131.5,161.5,131.6,161.3,131.6z"/>
	<polygon class="st1" points="164.5,136.4 164.5,136.4 164.5,136.4 	"/>
	<path class="st1" d="M163.8,133.4c0.1,0.2,0.1,0.4,0.2,0.5C163.9,133.7,163.9,133.5,163.8,133.4z"/>
	<path class="st1" d="M164.2,135c0,0.1,0,0.1,0,0.2C164.3,135.1,164.2,135,164.2,135z"/>
	<path class="st1" d="M163.1,131.2c0.2,0.4,0.3,0.9,0.5,1.3C163.4,132.1,163.2,131.7,163.1,131.2z"/>
	<path class="st1" d="M164.5,145.3C164.5,145.3,164.5,145.3,164.5,145.3c0.1-0.3,0.1-0.6,0.1-0.9C164.6,144.8,164.5,145,164.5,145.3
		C164.5,145.3,164.5,145.3,164.5,145.3z"/>
	<path class="st1" d="M131.2,163.1C131.2,163.1,131.2,163.1,131.2,163.1c-0.1,0.4-0.2,0.9-0.2,1.4
		C131.1,164,131.1,163.6,131.2,163.1C131.2,163.1,131.2,163.1,131.2,163.1z"/>
	<path class="st1" d="M131.2,177.9c-0.3-1.4-0.5-2.9-0.6-4.4C130.7,175,130.9,176.5,131.2,177.9z"/>
	<path class="st1" d="M164.7,143.3c0-0.1,0-0.2,0-0.3c0-0.2,0-0.3,0-0.5c0,0.2,0,0.3,0,0.5C164.8,143.1,164.7,143.2,164.7,143.3z"/>
	<path class="st1" d="M164.9,140.6L164.9,140.6c0-1.1-0.1-2.1-0.2-3.2c0-0.2-0.1-0.5-0.1-0.7c0,0,0,0,0,0c0,0.2,0.1,0.5,0.1,0.7
		C164.8,138.4,164.9,139.5,164.9,140.6z"/>
	<path class="st1" d="M113.6,67C113.6,67,113.6,67,113.6,67c-1.3-6.4-4.3-12-9.2-16.8c-7.3-7.3-14.8-10.9-22.6-10.9
		c-1.4,0-2.8,0.1-4.3,0.4c-5.6,1-13.6,4.9-24.2,11.7c-7.4,4.8-13,7.6-16.7,8.5c-1.3,0.3-2.6,0.4-3.9,0.4c-4.7,0-9-2-13-5.9
		c-4.1-4.1-6-9.2-5.7-15.4c0.3-6.5,2.9-12.2,7.7-17c4.8-4.8,10.5-7.4,17-7.7c0.4,0,0.8,0,1.2,0c5.6,0,10.4,1.9,14.2,5.8
		c1.4,1.4,3,2.1,5,2.1c2,0,3.6-0.8,5-2.1c1.4-1.4,2.1-3,2.1-4.9c0-1.9-0.7-3.6-2.1-5C57.5,3.3,49.5,0,40.1,0c-0.6,0-1.3,0-2,0
		C28,0.6,19.3,4.5,11.9,11.9C4.5,19.3,0.5,28,0.1,38.1c-0.5,10.4,2.7,19.1,9.8,26.1c7.3,7.3,14.8,10.9,22.6,10.9
		c1.4,0,2.8-0.1,4.3-0.4c5.6-1,13.6-4.8,24.2-11.7c7.4-4.8,13-7.6,16.7-8.5c1.3-0.3,2.6-0.4,3.9-0.4c4.7,0,9,2,13,5.9
		c1.9,1.9,3.3,3.9,4.2,6.2c0,0,0,0,0,0l0,0l3-0.3l0,0c0,0-0.8-1.8-1.4-2.7c0,0,0,0,0,0c0,0,0,0,0,0c-0.3-0.4-2.4-3.7-3.9-5.2
		c-4.5-4.5-9.5-6.7-14.9-6.7c-1.5,0-3,0.2-4.5,0.5l0,0l0,0c-4,1-9.8,3.8-17.5,8.8c-10.2,6.6-18,10.4-23.2,11.3
		c-1.3,0.2-2.6,0.3-3.8,0.3c-7,0-13.9-3.4-20.7-10.1c-6.5-6.5-9.5-14.4-9-24c0.5-9.5,4.1-17.4,11-24.4c6.9-6.9,14.9-10.5,24.4-11
		c0.6,0,1.2,0,1.8,0c8.8,0,16,3,22.1,9.1c0.9,0.9,1.2,1.8,1.2,3s-0.4,2.2-1.2,3c-0.9,0.9-1.8,1.3-3.1,1.3c-1.2,0-2.1-0.4-3-1.3
		c-4.4-4.4-9.8-6.6-16.2-6.6c-0.4,0-0.9,0-1.3,0c-7.2,0.3-13.5,3.2-18.8,8.5c-5.4,5.4-8.2,11.7-8.5,18.9c-0.3,6.9,1.9,12.8,6.5,17.5
		c4.5,4.5,9.5,6.7,14.9,6.7c1.5,0,3-0.2,4.5-0.5h0l0,0c4-1,9.8-3.8,17.5-8.8C65.1,47,72.9,43.2,78,42.3c1.3-0.2,2.6-0.3,3.8-0.3
		c7,0,13.9,3.4,20.7,10.1c2.8,2.8,6,8.7,7,10.7l0,0l0.4,0.7c0.4,0.9,0.7,1.8,0.9,2.9L113.6,67L113.6,67z"/>
	<path class="st1" d="M113.5,81.8c-0.8-0.3-1.6-0.6-2.5-0.8l-0.6,2.7c-1.6,6.3-4.9,11.9-9.9,16.9c-5.6,5.6-12.1,9.1-19.2,10.4
		c-1.7,0.3-3.4,0.5-5.2,0.6c-0.7,0-1.3,0.1-2,0.1c-2.3,0-4.4-0.2-6.5-0.6l-0.1,0l-0.1,0c-5.8-1.2-10.9-4-15.3-8.4
		c-0.9-0.9-1.3-1.8-1.3-3c0-1.2,0.4-2.2,1.2-3c0.9-0.9,1.9-1.3,3.1-1.3c1.2,0,2.1,0.4,3,1.2c2.1,2.1,4.4,3.7,7,4.8l0.1,0l0.1,0
		c2.7,1.1,5.8,1.7,9,1.7c0.4,0,0.9,0,1.3,0c1.8-0.1,3.6-0.3,5.4-0.8l0.1,0l0.1,0c4.9-1.2,9.4-3.8,13.3-7.8c3.4-3.4,5.7-7.1,7.1-11.3
		l0,0c0,0,0-0.1,0-0.1c0-0.1,0-0.1,0.1-0.2l0,0c0.3-1,0.6-1.9,0.7-2.8c-0.9,0.1-1.8,0.2-2.8,0.3c0,0-0.1,0-0.1,0h0
		c-1.1,4.5-3.4,8.5-7,12.1c-3.6,3.6-7.7,6-12.1,7c-1.6,0.4-3.2,0.6-4.9,0.7c-0.4,0-0.8,0-1.2,0c-2.9,0-5.6-0.5-8-1.5
		c-2.3-1-4.3-2.4-6.2-4.2c-1.4-1.4-3-2.1-4.9-2.1c0,0,0,0,0,0c-1.9,0-3.6,0.7-5,2.1c-1.4,1.4-2.1,3-2.1,5s0.7,3.6,2.1,4.9
		c4.8,4.8,10.4,7.9,16.8,9.2c0,0,0,0,0,0c2.3,0.4,4.7,0.7,7.1,0.7c0.7,0,1.4,0,2.1-0.1c1.9-0.1,3.7-0.3,5.5-0.6
		c3.9-0.7,7.6-2,11-3.9c3.4-1.9,6.7-4.3,9.7-7.3c6-6,9.7-12.9,11.2-20.6C113.6,81.8,113.5,81.8,113.5,81.8z"/>
	<path class="st1" d="M178.4,134.1L178.4,134.1C178.4,134.1,178.4,134.1,178.4,134.1L178.4,134.1z"/>
	<path class="st1" d="M178.8,143.2L178.8,143.2c0,0,0-0.1,0-0.1L178.8,143.2z"/>
	<path class="st1" d="M194.7,140.3c-4.8-4.8-10.5-7.9-16.8-9.2c0,0.2,0.1,0.3,0.1,0.5c0.1,0.5,0.2,1,0.3,1.5c0,0.2,0.1,0.5,0.1,0.7
		c0,0,0,0.1,0,0.1l0,0c0,0,0,0,0,0c1,0.3,1.9,0.6,2.9,0.9c0,0,0,0,0,0c4.2,1.5,8.1,4,11.4,7.3c0.9,0.9,1.3,1.8,1.2,3
		c0,1.2-0.4,2.1-1.2,3c-0.9,0.9-1.8,1.3-3.1,1.3c-1.2,0-2.1-0.4-3-1.2c-1.6-1.6-3.3-2.8-5.1-3.9c-0.9-0.5-1.8-0.9-2.7-1.3
		c0,0,0,0,0,0l0,0c0,0.2,0,0.4,0,0.6c-0.1,0.7-0.1,1.4-0.2,2.1c0,0.1,0,0.2,0,0.2c2.3,1,4.3,2.4,6.2,4.2c1.4,1.4,3,2.1,5,2.1
		c2,0,3.6-0.7,5-2.1c1.4-1.4,2.1-3,2.1-5C196.7,143.4,196,141.7,194.7,140.3z"/>
	<g>
		<path class="st1" d="M164.8,142.4C164.8,142.4,164.8,142.4,164.8,142.4L164.8,142.4L164.8,142.4z"/>
		<path class="st1" d="M235,180.7c-7.3-7.3-14.8-10.9-22.6-10.9c-1.4,0-2.8,0.1-4.3,0.4c-5.6,1-13.6,4.9-24.2,11.7
			c-7.4,4.8-13,7.6-16.7,8.5c-1.3,0.3-2.6,0.4-3.9,0.4c-4.7,0-9-2-13-5.9c-1.9-1.9-3.3-3.9-4.2-6.2c-1-2.4-1.5-5.1-1.5-8
			c0-0.4,0-0.8,0-1.2c0.1-1.7,0.3-3.3,0.7-4.9l0,0c1.1-4.5,3.4-8.5,7-12.1c3.6-3.6,7.6-5.9,12.1-7c0,0,0,0,0,0
			c0.1-0.6,0.2-1.2,0.2-1.8c0-0.2,0.1-0.4,0.1-0.5c0-0.1,0-0.3,0-0.5l0,0c-0.9,0.2-1.9,0.4-2.8,0.7c0,0,0,0,0,0
			c-4.2,1.3-8.1,3.8-11.6,7.2c-3.9,3.9-6.6,8.5-7.8,13.4v0l0,0c-0.4,1.7-0.7,3.6-0.8,5.4c-0.2,3.7,0.4,7.1,1.6,10.2l0.1,0.3l0.1,0.2
			c1.1,2.5,2.7,4.8,4.7,6.8c4.5,4.5,9.5,6.7,14.9,6.7c1.5,0,3-0.2,4.5-0.5l0,0c4-1,9.8-3.9,17.5-8.8c10.2-6.6,18-10.4,23.2-11.3
			c1.3-0.2,2.6-0.3,3.8-0.3c7,0,13.9,3.4,20.7,10.1c6.5,6.5,9.5,14.4,9,24c-0.5,9.5-4.1,17.5-11,24.4c-7,7-15,10.6-24.4,11
			c-0.7,0-1.3,0.1-2,0.1c-8.7,0-15.9-3-22-9c-0.9-0.9-1.3-1.8-1.3-3c0-1.2,0.4-2.2,1.3-3c0.9-0.9,1.9-1.3,3.1-1.3
			c1.2,0,2.2,0.4,3,1.3c4.4,4.4,9.8,6.6,16.2,6.6c0.4,0,0.9,0,1.3,0c7.2-0.3,13.5-3.2,18.9-8.5c5.3-5.3,8.2-11.6,8.5-18.8
			c0.3-6.9-1.9-12.8-6.5-17.5c-4.5-4.5-9.5-6.7-14.9-6.7c-1.5,0-3,0.2-4.5,0.5l0,0l0,0c-4,1-9.8,3.9-17.5,8.8
			c-10.2,6.6-18,10.4-23.2,11.3c-1.3,0.2-2.6,0.3-3.8,0.3c-7,0-13.9-3.4-20.7-10.1c-4.4-4.4-7.2-9.6-8.4-15.3l0-0.2l0-0.1
			c-0.5-2.6-0.7-5.5-0.5-8.4c0.1-1.8,0.3-3.5,0.6-5.2c1.3-7.2,4.9-13.6,10.4-19.2c3.2-3.2,6.6-5.7,10.4-7.5c0,0,0,0,0,0
			c2.8-1.4,5.8-2.4,9-2.9l0,0l0.3-0.1c-0.3-0.9-0.6-1.8-0.9-2.6l0-0.1c0,0,0,0,0,0c0,0,0,0,0,0l0,0c-7.8,1.5-14.6,5.2-20.6,11.2
			c-6,6-9.8,12.9-11.2,20.7c-0.3,1.8-0.5,3.6-0.6,5.5c-0.2,3.2,0,6.3,0.6,9.3c0,0,0,0,0,0c1.3,6.4,4.3,12,9.2,16.8
			c7.3,7.3,14.8,10.9,22.6,10.9c1.4,0,2.8-0.1,4.3-0.4c5.6-1,13.6-4.9,24.2-11.7c7.4-4.8,13-7.6,16.7-8.5c1.3-0.3,2.6-0.4,3.9-0.4
			c4.7,0,9,2,13,5.9c4.1,4.1,6,9.2,5.7,15.4c-0.3,6.5-2.8,12.1-7.7,17c-4.9,4.9-10.5,7.5-17,7.7c-0.4,0-0.8,0-1.2,0
			c-5.6,0-10.4-1.9-14.2-5.8c-1.4-1.4-3-2.1-5-2.1c-1.9,0-3.6,0.7-5,2.1c-1.4,1.4-2.1,3-2.1,5c0,1.9,0.7,3.6,2.1,5
			c6.6,6.6,14.5,9.8,24,9.8c0.7,0,1.4,0,2.1-0.1c10.1-0.5,18.8-4.4,26.2-11.8c7.4-7.4,11.3-16.1,11.8-26.2
			C245.3,196.4,242,187.7,235,180.7z"/>
	</g>
	<polygon class="st1" points="163,131.2 163,131.2 163.2,131.6 	"/>
	<g>
		<path d="M123.4,157.8l-36.3-36.3c-2.4-2.4-4.1-5-5.3-7.8l-3,0.4l1.3,2.6c1.3,2.4,2.9,4.7,5,6.7l36.3,36.3c2,2,4.3,3.7,6.7,4.9
			l2.7,1.4l0.4-3l-2-0.9C127.1,161.1,125.2,159.6,123.4,157.8z"/>
		<path d="M178.9,140.2c0-0.6,0-1.2,0-1.8c0-0.2,0-0.5-0.1-0.7c0-0.5-0.1-1-0.1-1.5c0-0.2-0.1-0.5-0.1-0.8c-0.1-0.5-0.1-1-0.2-1.4
			c0-0.2-0.1-0.5-0.1-0.7c-0.1-0.5-0.2-1-0.3-1.5c-1.5-6.9-4.9-13-10.2-18.3l-36.3-36.3c-5.3-5.3-11.4-8.7-18.3-10.2
			c-0.5-0.1-1-0.2-1.5-0.3c-0.3,0-0.5-0.1-0.8-0.1c-0.4-0.1-0.9-0.1-1.4-0.2c-0.3,0-0.5-0.1-0.8-0.1c-0.5-0.1-0.9-0.1-1.4-0.1
			c-0.3,0-0.5,0-0.8-0.1c-0.6,0-1.2,0-1.8,0c-0.1,0-0.3,0-0.4,0h-0.2c-0.8,0-1.5,0-2.3,0.1c-0.2,0-0.5,0-0.7,0
			c-0.7,0.1-1.4,0.1-2.2,0.2c-8.3,1.1-15.6,4.7-21.8,10.8c-6.1,6.1-9.8,13.3-10.9,21.6c0,0,0,0,0.1,0l0,0c0.8,0.3,1.5,0.6,2.3,0.8
			l0.7-2.7c1.3-6.7,4.6-12.7,9.7-17.8C84.8,73.4,91.6,70,99.3,69c0.6-0.1,1.3-0.1,2-0.2c0.2,0,0.4,0,0.7,0c0.8,0,1.5-0.1,2.2-0.1
			h0.3c0.1,0,0.2,0,0.2,0c0.6,0,1.2,0,1.7,0c0.2,0,0.3,0,0.5,0l0.3,0c0.4,0,0.9,0.1,1.3,0.1c0.3,0,0.5,0.1,0.8,0.1
			c0.4,0.1,0.9,0.1,1.3,0.2l0.2,0c0.2,0,0.3,0.1,0.5,0.1c0.4,0.1,0.8,0.2,1.4,0.3c6.4,1.4,12,4.6,16.9,9.5l36.3,36.3
			c4.9,4.9,8.1,10.6,9.5,16.9c0.1,0.5,0.2,1,0.3,1.4c0,0.2,0.1,0.3,0.1,0.5l0,0.2c0.1,0.4,0.1,0.9,0.2,1.3c0,0.2,0.1,0.5,0.1,0.7
			c0.1,0.5,0.1,0.9,0.1,1.4l0,0.3c0,0.1,0,0.3,0,0.4c0,0.5,0,1.1,0,1.7c0,0.1,0,0.2,0,0.2v0.3c0,0.7,0,1.3-0.1,2.1
			c0,0.2,0,0.5,0,0.7c-0.1,0.7-0.1,1.4-0.2,2c-1,7.7-4.4,14.5-10.1,20.2c-5.1,5.1-11.1,8.4-17.8,9.7c-0.9,0.2-1.8,0.4-2.7,0.6
			c0.2,0.9,0.5,1.7,0.8,2.5l0.5-0.1c8.1-1.2,15.1-4.8,21.1-10.8c6.2-6.2,9.8-13.4,10.8-21.8c0.1-0.7,0.2-1.4,0.2-2.1
			c0-0.3,0-0.5,0.1-0.8c0-0.7,0.1-1.5,0.1-2.2v-0.2C178.9,140.5,178.9,140.3,178.9,140.2z"/>
		<path d="M164.8,143c0,0.2,0,0.4-0.1,0.5c-0.1,0.6-0.1,1.2-0.2,1.8h0c-0.9,4.7-3.1,8.9-6.6,12.5c-3.6,3.6-7.7,5.8-12.3,6.6l-0.2,0
			c-0.2,1-0.4,2.1-0.6,3.2c0.4-0.2,1.4-0.6,3-0.9c4.5-1.2,8.6-3.5,12.1-7c3.5-3.5,5.9-7.6,7-12.2l0.4-1.8c0.1-0.7,0.2-1.3,0.3-1.9
			c0,0,0-0.1,0-0.1c0-0.2,0-0.3,0.1-0.5c0.1-0.7,0.1-1.4,0.1-2.3c0-0.1,0-0.2,0-0.4c0-1.1-0.1-2.2-0.2-3.5c-0.3-2.5-0.9-4.8-1.8-6.9
			l-1-2c-1.3-2.4-2.9-4.6-4.9-6.7l-36.3-36.3c-2-2-4.3-3.7-6.7-5l-2-1c-2-0.8-4.3-1.4-6.7-1.8c-1.4-0.2-2.5-0.3-3.7-0.3
			c-0.1,0-0.2,0-0.4,0h0c-0.9,0-1.6,0-2.3,0.1c-0.2,0-0.5,0.1-0.7,0.1c-0.1,0-0.2,0-0.3,0l-0.3,0c-0.4,0-0.8,0.1-1.2,0.2l-1.9,0.4
			c-4.5,1.2-8.5,3.5-12,7c-3.5,3.5-5.9,7.6-7,12.1l-0.9,2.9c1-0.1,1.9-0.2,2.8-0.5l0,0c0.1,0,0.2-0.1,0.4-0.1v0
			c0.8-4.7,3.1-8.9,6.7-12.5c3.6-3.6,7.7-5.8,12.5-6.6c0,0,0,0,0,0c0.4-0.1,0.9-0.1,1.4-0.2c0.3,0,0.6-0.1,0.9-0.1
			c0.7-0.1,1.4-0.1,2.1-0.1c0.1,0,0.2,0,0.4,0c1.1,0,2.2,0.1,3.3,0.2c2.1,0.3,4.1,0.8,6,1.6v0c2.9,1.2,5.5,3,7.8,5.3l36.3,36.3
			c2.3,2.4,4.1,5,5.3,7.8l0.1,0.2c0.7,1.9,1.2,3.9,1.5,6c0.1,1,0.2,2.1,0.2,3.2c0,0.1,0,0.2,0,0.3
			C164.9,141.6,164.8,142.3,164.8,143z"/>
		<path d="M127.9,174c-4.6-1.7-8.8-4.5-12.5-8.2L79,129.5c-3.7-3.7-6.5-8-8.2-12.6c-0.4-1.1-0.6-2-0.6-2.8l-3.3-0.5
			c1.6,6.7,5,12.6,10.1,17.8l36.3,36.3c3.9,3.9,8.2,6.7,12.9,8.6l0,0c1.5,0.6,3.2,1.1,4.9,1.5l-0.4-2.8
			C129.8,174.8,128.9,174.4,127.9,174z"/>
	</g>
	<path class="st3" d="M148,175.5c6.7-1.3,12.7-4.6,17.8-9.7c5.7-5.7,9.1-12.5,10.1-20.2c0.1-0.6,0.1-1.2,0.2-2c0-0.2,0-0.5,0-0.7
		c0-0.7,0.1-1.4,0.1-2.1v-0.3c0-0.1,0-0.2,0-0.2c0-0.6,0-1.2,0-1.7c0-0.1,0-0.3,0-0.4l0-0.3c0-0.5-0.1-0.9-0.1-1.4
		c0-0.2,0-0.5-0.1-0.7c-0.1-0.4-0.1-0.9-0.2-1.3l0-0.2c0-0.2-0.1-0.3-0.1-0.5c-0.1-0.4-0.2-0.9-0.3-1.4c-1.4-6.3-4.6-12-9.5-16.9
		l-36.3-36.3c-4.9-4.9-10.6-8.1-16.9-9.5c-0.6-0.1-1-0.2-1.4-0.3c-0.2,0-0.4-0.1-0.5-0.1l-0.2,0c-0.4-0.1-0.9-0.1-1.3-0.2
		c-0.3,0-0.5-0.1-0.8-0.1c-0.4,0-0.9-0.1-1.3-0.1l-0.3,0c-0.2,0-0.3,0-0.5,0c-0.5,0-1,0-1.7,0c-0.1,0-0.2,0-0.2,0h-0.3
		c-0.7,0-1.4,0-2.2,0.1c-0.2,0-0.4,0-0.7,0c-0.7,0.1-1.4,0.1-2,0.2c-7.7,1-14.5,4.4-20.2,10.1c-5.1,5.1-8.4,11.1-9.7,17.8l-0.7,2.7
		c2.1,0.6,4.4,0.8,6.8,0.7c0.6,0,1.1-0.1,1.7-0.1l0.9-2.9c1.2-4.5,3.5-8.6,7-12.1c3.5-3.5,7.5-5.8,12-7l1.9-0.4
		c0.4-0.1,0.8-0.1,1.2-0.2l0.3,0c0.1,0,0.2,0,0.3,0c0.2,0,0.5-0.1,0.7-0.1c0.7-0.1,1.4-0.1,2.3-0.1h0c0.1,0,0.2,0,0.4,0
		c1.2,0,2.3,0.1,3.7,0.3c2.4,0.3,4.7,0.9,6.7,1.8l2,1c2.4,1.3,4.6,2.9,6.7,5l36.3,36.3c2,2,3.7,4.3,4.9,6.7l1,2
		c0.9,2.1,1.5,4.4,1.8,6.9c0.2,1.3,0.2,2.4,0.2,3.5c0,0.1,0,0.2,0,0.4c0,0.9,0,1.6-0.1,2.3c0,0.2,0,0.3-0.1,0.5c0,0,0,0.1,0,0.1
		c-0.1,0.6-0.1,1.3-0.3,1.9l-0.4,1.8c-1.2,4.6-3.5,8.7-7,12.2c-3.5,3.5-7.6,5.9-12.1,7c-1.5,0.4-2.5,0.7-3,0.9
		c-0.1,0.5-0.1,1.1-0.1,1.7c-0.1,2.7,0.2,5.3,0.9,7.6c-0.1-0.3-0.2-0.6-0.3-0.9C146.2,175.9,147.1,175.7,148,175.5z"/>
	<g>
		<path class="st3" d="M130.8,175C130.8,175,130.8,175,130.8,175c-0.2-2.1-0.3-4.2-0.2-6.4c0-0.8,0.1-1.7,0.2-2.5c0,0,0,0,0,0l0,0
			l0,0c-0.1,0-0.1,0-0.1-0.1l-2.5-1.3c-2.4-1.2-4.7-2.9-6.7-4.9l-36.3-36.3c-2.1-2.1-3.7-4.3-5-6.7l-1.3-2.6c0,0-1.2,0.1-2.6,0.2
			c-2.4,0.1-6-0.1-6-0.1c0,0.7,0.2,1.7,0.6,2.8c1.7,4.6,4.5,8.8,8.2,12.6l36.3,36.3c3.7,3.7,7.9,6.5,12.5,8.2
			C128.9,174.4,129.8,174.8,130.8,175L130.8,175z"/>
	</g>
	<path class="st2" d="M110.7,66.4c-0.2-1-0.5-2-0.9-2.9l-0.4-0.7l0,0c-1-2-4.2-8-7-10.7C95.7,45.4,88.8,42,81.8,42
		c-1.3,0-2.5,0.1-3.8,0.3c-5.2,0.9-13,4.7-23.2,11.3c-7.8,5-13.5,7.9-17.5,8.8l0,0h0c-1.5,0.3-3,0.5-4.5,0.5
		c-5.4,0-10.4-2.3-14.9-6.7c-4.7-4.7-6.9-10.5-6.5-17.5c0.3-7.2,3.2-13.5,8.5-18.9c5.3-5.3,11.6-8.2,18.8-8.5c0.4,0,0.9,0,1.3,0
		c6.4,0,11.8,2.2,16.2,6.6c0.8,0.8,1.8,1.2,3,1.3c1.3,0,2.2-0.5,3.1-1.3c0.9-0.9,1.2-1.8,1.2-3s-0.4-2.2-1.2-3
		C56.1,5.7,48.8,2.7,40,2.7c-0.6,0-1.2,0-1.8,0c-9.5,0.5-17.5,4.1-24.4,11c-7,7-10.6,15-11,24.4c-0.5,9.6,2.5,17.5,9,24
		c6.7,6.7,13.7,10.1,20.7,10.1c1.3,0,2.5-0.1,3.8-0.3c5.2-0.9,13-4.7,23.2-11.3c7.7-5,13.5-7.9,17.5-8.8l0,0l0,0
		c1.5-0.3,3-0.5,4.5-0.5c5.4,0,10.4,2.3,14.9,6.7c1.5,1.5,3.6,4.7,3.9,5.2c0,0,0,0,0,0c0,0,0,0,0,0c0.5,0.8,1.4,2.7,1.4,2.7l0,0
		l-0.1,0c0.1,0,0.1,0,0.2,0c0.8,0,1.5-0.1,2.3-0.1c0.1,0,0.1,0,0.2,0c0.1,0,0.3,0,0.4,0c0.6,0,1.2,0,1.8,0c0.3,0,0.5,0,0.8,0.1
		c0.5,0,0.9,0.1,1.4,0.1c0.3,0,0.6,0.1,0.8,0.1c0.4,0.1,0.9,0.1,1.3,0.2L110.7,66.4z"/>
	<path class="st2" d="M101.7,82.9c0,0.1,0,0.1-0.1,0.2c0,0,0,0.1,0,0.1l0,0c-1.4,4.1-3.7,7.9-7.1,11.3c-3.9,3.9-8.4,6.5-13.3,7.8
		l-0.1,0l-0.1,0c-1.7,0.4-3.5,0.7-5.4,0.8c-0.4,0-0.9,0-1.3,0c-3.2,0-6.3-0.6-9-1.7l-0.1,0l-0.1,0c-2.6-1.1-4.9-2.7-7-4.8
		c-0.9-0.9-1.8-1.2-3-1.2c-1.2,0-2.2,0.4-3.1,1.3c-0.9,0.9-1.2,1.8-1.2,3s0.4,2.2,1.3,3c4.4,4.4,9.6,7.2,15.3,8.4l0.1,0l0.1,0
		c2.1,0.4,4.3,0.6,6.5,0.6c0.7,0,1.3,0,2-0.1c1.7-0.1,3.5-0.3,5.2-0.6c7.2-1.3,13.6-4.9,19.2-10.4c5-4.9,8.3-10.6,9.9-16.9l0.6-2.7
		c-1.1-0.3-2.2-0.5-3.4-0.7c-1.1-0.1-2.2-0.2-3.3-0.2c-0.1,0-0.2,0-0.4,0c-0.5,0-1,0-1.5,0.1C102.2,80.9,102,81.9,101.7,82.9
		L101.7,82.9z"/>
	<g>
		<g>
			<g>
				<path class="st2" d="M263.7,170.7c-5.1-5.2-7.6-12-7.6-20.4v-4.1c0-1,0.5-1.6,1.6-1.6h11.6c1,0,1.6,0.5,1.6,1.6v3.3
					c0,4.8,1.2,8.7,3.6,11.6c2.4,2.9,5.5,4.3,9.3,4.3c3.8,0,6.9-1.4,9.4-4.2c2.5-2.8,3.7-6.4,3.7-10.9c0-3-0.7-5.7-2-8
					c-1.3-2.3-3-4.4-5.2-6.2c-2.2-1.8-5.6-4.5-10.5-8.1c-5.4-4-9.5-7.4-12.6-10.2c-3-2.8-5.6-6.2-7.7-10.2c-2.1-4-3.1-8.7-3.1-14
					c0-8.5,2.5-15.2,7.6-20.2c5-5,11.6-7.5,19.7-7.5c8.4,0,15.1,2.7,20.2,8c5.1,5.4,7.6,12.4,7.6,21.1v3.9c0,1-0.5,1.6-1.6,1.6
					h-11.6c-1.1,0-1.6-0.5-1.6-1.6v-4.2c0-4.7-1.2-8.5-3.6-11.4c-2.4-2.9-5.6-4.3-9.4-4.3c-3.7,0-6.7,1.3-9,3.9
					c-2.3,2.6-3.5,6.2-3.5,10.8c0,4.2,1.2,7.7,3.5,10.6c2.3,2.9,6.8,6.7,13.4,11.6c6.3,4.7,11,8.6,14.2,11.5
					c3.2,2.9,5.7,6.2,7.4,9.7c1.7,3.5,2.6,7.7,2.6,12.5c0,8.8-2.6,15.9-7.7,21.2c-5.1,5.3-11.9,7.9-20.1,7.9
					C275.5,178.4,268.8,175.8,263.7,170.7z"/>
			</g>
			<g>
				<path class="st2" d="M332.5,170.6c-5.2-5.2-7.9-12.2-7.9-20.9V94.7c0-8.7,2.6-15.7,7.9-21c5.2-5.3,12.2-7.9,20.8-7.9
					c8.7,0,15.7,2.7,21,7.9c5.3,5.3,7.9,12.3,7.9,21v54.9c0,8.7-2.7,15.7-7.9,20.9c-5.3,5.2-12.3,7.9-21,7.9
					C344.7,178.4,337.8,175.8,332.5,170.6z M363.4,161.2c2.5-2.8,3.8-6.4,3.8-10.9V93.9c0-4.5-1.3-8.2-3.8-10.9
					c-2.5-2.8-5.9-4.2-10.1-4.2c-4.1,0-7.4,1.4-9.8,4.2c-2.5,2.8-3.7,6.4-3.7,10.9v56.3c0,4.5,1.2,8.2,3.7,10.9
					c2.5,2.8,5.7,4.2,9.8,4.2C357.5,165.4,360.8,164,363.4,161.2z"/>
			</g>
			<g>
				<path class="st2" d="M403.4,170.7c-5.1-5.2-7.6-12-7.6-20.4v-4.1c0-1,0.5-1.6,1.6-1.6H409c1,0,1.6,0.5,1.6,1.6v3.3
					c0,4.8,1.2,8.7,3.6,11.6c2.4,2.9,5.5,4.3,9.3,4.3c3.8,0,6.9-1.4,9.4-4.2c2.5-2.8,3.7-6.4,3.7-10.9c0-3-0.7-5.7-2-8
					c-1.3-2.3-3-4.4-5.2-6.2c-2.2-1.8-5.6-4.5-10.5-8.1c-5.4-4-9.5-7.4-12.6-10.2c-3-2.8-5.6-6.2-7.7-10.2c-2.1-4-3.1-8.7-3.1-14
					c0-8.5,2.5-15.2,7.6-20.2c5-5,11.6-7.5,19.7-7.5c8.4,0,15.1,2.7,20.2,8c5.1,5.4,7.6,12.4,7.6,21.1v3.9c0,1-0.5,1.6-1.6,1.6
					h-11.6c-1.1,0-1.6-0.5-1.6-1.6v-4.2c0-4.7-1.2-8.5-3.6-11.4c-2.4-2.9-5.6-4.3-9.4-4.3c-3.7,0-6.7,1.3-9,3.9
					c-2.3,2.6-3.5,6.2-3.5,10.8c0,4.2,1.2,7.7,3.5,10.6c2.3,2.9,6.8,6.7,13.4,11.6c6.3,4.7,11,8.6,14.2,11.5
					c3.2,2.9,5.7,6.2,7.4,9.7c1.7,3.5,2.6,7.7,2.6,12.5c0,8.8-2.6,15.9-7.7,21.2c-5.1,5.3-11.9,7.9-20.1,7.9
					C415.2,178.4,408.5,175.8,403.4,170.7z"/>
			</g>
			<g>
				<path class="st3" d="M539.9,175.9L525.4,129c-0.1-0.3-0.3-0.5-0.6-0.5h-11c-0.4,0-0.6,0.2-0.6,0.6v46.4c0,1-0.5,1.6-1.6,1.6h-12
					c-1,0-1.6-0.5-1.6-1.6v-107c0-1,0.5-1.6,1.6-1.6h28.2c5.4,0,10.1,1.3,14.2,3.9c4.1,2.6,7.3,6.3,9.5,11.1
					c2.3,4.8,3.4,10.2,3.4,16.3c0,6.6-1.4,12.4-4.1,17.2c-2.7,4.9-6.5,8.4-11.2,10.6c-0.3,0.3-0.4,0.6-0.3,0.9l16.1,48.3l0.2,0.6
					c0,0.7-0.5,1.1-1.4,1.1h-12.3C540.8,177.2,540.2,176.8,539.9,175.9z M513.2,80.7V116c0,0.4,0.2,0.6,0.6,0.6h11.6
					c4.3,0,7.8-1.7,10.4-5c2.6-3.3,3.9-7.7,3.9-13.1c0-5.7-1.3-10.2-3.9-13.5c-2.6-3.3-6.1-5-10.4-5h-11.6
					C513.4,80.1,513.2,80.3,513.2,80.7z"/>
			</g>
			<g>
				<path class="st3" d="M620.5,80.1h-35.4c-0.4,0-0.6,0.2-0.6,0.6v34.1c0,0.4,0.2,0.6,0.6,0.6h21.7c1,0,1.6,0.5,1.6,1.6v9.9
					c0,1-0.5,1.6-1.6,1.6h-21.7c-0.4,0-0.6,0.2-0.6,0.6v34.3c0,0.4,0.2,0.6,0.6,0.6h35.4c1,0,1.6,0.5,1.6,1.6v9.9
					c0,1-0.5,1.6-1.6,1.6h-49.6c-1,0-1.6-0.5-1.6-1.6v-107c0-1,0.5-1.6,1.6-1.6h49.6c1,0,1.6,0.5,1.6,1.6v9.9
					C622,79.6,621.5,80.1,620.5,80.1z"/>
			</g>
			<g>
				<path class="st3" d="M652.6,175.8l-20.9-107v-0.3c0-0.9,0.5-1.4,1.4-1.4h12.4c1,0,1.6,0.5,1.7,1.4l12.7,73.8
					c0.1,0.2,0.2,0.3,0.3,0.3c0.1,0,0.2-0.1,0.3-0.3l11.3-73.8c0.1-0.9,0.6-1.4,1.6-1.4H684c0.9,0,1.5,0.5,1.6,1.4l12.1,73.8
					c0.1,0.2,0.2,0.3,0.3,0.3c0.1,0,0.2-0.1,0.3-0.3L710,68.5c0.2-0.9,0.7-1.4,1.6-1.4h12.3c0.5,0,0.9,0.2,1.2,0.5
					c0.3,0.3,0.3,0.7,0.2,1.3l-19.8,107c-0.1,0.9-0.7,1.4-1.7,1.4h-11.2c-0.8,0-1.4-0.5-1.6-1.4l-12-74.4c-0.1-0.2-0.2-0.3-0.4-0.3
					c-0.2,0-0.2,0.1-0.2,0.3L667,175.8c-0.1,0.9-0.6,1.4-1.6,1.4h-11.2C653.3,177.2,652.8,176.7,652.6,175.8z"/>
			</g>
			<g>
				<path class="st3" d="M771,175.8l-3.5-18.1c0-0.2-0.1-0.4-0.2-0.5c-0.2-0.1-0.3-0.2-0.6-0.2h-25.6c-0.2,0-0.4,0.1-0.6,0.2
					c-0.2,0.1-0.2,0.3-0.2,0.5l-3.3,18.1c-0.1,0.9-0.7,1.4-1.7,1.4h-12c-0.5,0-0.9-0.2-1.2-0.5c-0.3-0.3-0.3-0.7-0.2-1.3l23.4-107
					c0.2-0.9,0.8-1.4,1.7-1.4h14c1,0,1.6,0.5,1.7,1.4l23.6,107v0.3c0,0.9-0.5,1.4-1.4,1.4h-12.3C771.8,177.2,771.3,176.7,771,175.8z
					 M743.5,145.1h20.9c0.3,0,0.5-0.2,0.5-0.6l-10.7-55.9c-0.1-0.2-0.2-0.3-0.3-0.3c-0.1,0-0.2,0.1-0.3,0.3L743,144.5
					C743,144.9,743.2,145.1,743.5,145.1z"/>
			</g>
			<g>
				<path class="st3" d="M840.1,175.9L825.6,129c-0.1-0.3-0.3-0.5-0.6-0.5h-11c-0.4,0-0.6,0.2-0.6,0.6v46.4c0,1-0.5,1.6-1.6,1.6h-12
					c-1,0-1.6-0.5-1.6-1.6v-107c0-1,0.5-1.6,1.6-1.6H828c5.4,0,10.1,1.3,14.2,3.9c4.1,2.6,7.3,6.3,9.5,11.1
					c2.3,4.8,3.4,10.2,3.4,16.3c0,6.6-1.4,12.4-4.1,17.2c-2.7,4.9-6.5,8.4-11.2,10.6c-0.3,0.3-0.4,0.6-0.3,0.9l16.1,48.3l0.2,0.6
					c0,0.7-0.5,1.1-1.4,1.1H842C841.1,177.2,840.4,176.8,840.1,175.9z M813.4,80.7V116c0,0.4,0.2,0.6,0.6,0.6h11.6
					c4.3,0,7.8-1.7,10.4-5c2.6-3.3,3.9-7.7,3.9-13.1c0-5.7-1.3-10.2-3.9-13.5c-2.6-3.3-6.1-5-10.4-5H814
					C813.6,80.1,813.4,80.3,813.4,80.7z"/>
			</g>
			<g>
				<path class="st3" d="M869.5,175.6v-107c0-1,0.5-1.6,1.6-1.6h25.8c8.7,0,15.6,2.7,20.8,8c5.1,5.3,7.7,12.6,7.7,21.7v50.7
					c0,9.1-2.6,16.4-7.7,21.7c-5.1,5.4-12.1,8-20.8,8h-25.8C870.1,177.2,869.5,176.7,869.5,175.6z M885.3,164.1l11.5-0.2
					c4,0,7.2-1.5,9.6-4.6c2.4-3.1,3.7-7.3,3.8-12.7V97.6c0-5.3-1.2-9.6-3.6-12.7c-2.4-3.1-5.7-4.7-9.8-4.7h-11.5
					c-0.4,0-0.6,0.2-0.6,0.6v82.8C884.7,163.9,884.9,164.1,885.3,164.1z"/>
			</g>
			<g>
				<path class="st3" d="M947.2,170.7c-5.1-5.2-7.6-12-7.6-20.4v-4.1c0-1,0.5-1.6,1.6-1.6h11.6c1,0,1.6,0.5,1.6,1.6v3.3
					c0,4.8,1.2,8.7,3.6,11.6c2.4,2.9,5.5,4.3,9.3,4.3c3.8,0,6.9-1.4,9.4-4.2c2.5-2.8,3.7-6.4,3.7-10.9c0-3-0.7-5.7-2-8
					c-1.3-2.3-3-4.4-5.2-6.2c-2.2-1.8-5.6-4.5-10.5-8.1c-5.4-4-9.5-7.4-12.6-10.2c-3-2.8-5.6-6.2-7.7-10.2c-2.1-4-3.1-8.7-3.1-14
					c0-8.5,2.5-15.2,7.6-20.2c5-5,11.6-7.5,19.7-7.5c8.4,0,15.1,2.7,20.2,8c5.1,5.4,7.6,12.4,7.6,21.1v3.9c0,1-0.5,1.6-1.6,1.6
					h-11.6c-1.1,0-1.6-0.5-1.6-1.6v-4.2c0-4.7-1.2-8.5-3.6-11.4c-2.4-2.9-5.6-4.3-9.4-4.3c-3.7,0-6.7,1.3-9,3.9
					c-2.3,2.6-3.5,6.2-3.5,10.8c0,4.2,1.2,7.7,3.5,10.6c2.3,2.9,6.8,6.7,13.4,11.6c6.3,4.7,11,8.6,14.2,11.5
					c3.2,2.9,5.7,6.2,7.4,9.7c1.7,3.5,2.6,7.7,2.6,12.5c0,8.8-2.6,15.9-7.7,21.2c-5.1,5.3-11.9,7.9-20.1,7.9
					C959,178.4,952.3,175.8,947.2,170.7z"/>
			</g>
		</g>
	</g>
</g>
</svg>
