<svg xmlns="http://www.w3.org/2000/svg" width="340.15" height="212.013" viewBox="0 0 340.15 212.013"><g transform="translate(0 0.003)"><path d="M125.13,212.01a92.544,92.544,0,0,1-66.2-27.86L0,124.36,35.24,88.52,94.17,148.3a43.311,43.311,0,0,0,61.78,0l46.66-47.45a17.107,17.107,0,0,1,24.4,0l23.11,23.51-58.78,59.93A92.385,92.385,0,0,1,125.14,212h-.01Z" fill="#202b30"/><path d="M304.76,123.78,245.83,63.85a43.067,43.067,0,0,0-61.78,0L137.4,111.3a17.107,17.107,0,0,1-24.4,0L89.89,87.79l58.93-59.93a92.575,92.575,0,0,1,132.4,0l58.93,59.93-35.38,35.99Z" fill="#202b30"/></g></svg>