<?xml version="1.0" encoding="utf-8"?>
<!-- Generator: Adobe Illustrator 25.4.1, SVG Export Plug-In . SVG Version: 6.00 Build 0)  -->
<svg version="1.1"
	 id="svg44" inkscape:version="1.0.2 (e86c870879, 2021-01-15, custom)" sodipodi:docname="Services4-IT___LOGO.svg" xmlns:cc="http://creativecommons.org/ns#" xmlns:dc="http://purl.org/dc/elements/1.1/" xmlns:inkscape="http://www.inkscape.org/namespaces/inkscape" xmlns:rdf="http://www.w3.org/1999/02/22-rdf-syntax-ns#" xmlns:sodipodi="http://sodipodi.sourceforge.net/DTD/sodipodi-0.dtd" xmlns:svg="http://www.w3.org/2000/svg"
	 xmlns="http://www.w3.org/2000/svg" xmlns:xlink="http://www.w3.org/1999/xlink" x="0px" y="0px" viewBox="0 0 1249.9 177.9"
	 style="enable-background:new 0 0 1249.9 177.9;" xml:space="preserve">
<style type="text/css">
	.st0{fill:url(#SVGID_1_);}
	.st1{fill:#FCE8C9;}
	.st2{fill:#FCF0DC;}
	.st3{fill:#E6F6F9;}
	.st4{fill:#FDF4E6;}
	.st5{fill:url(#SVGID_00000067206532586789638020000005903848529388555394_);}
	.st6{fill:#6CCCDF;}
	.st7{fill:#F8C97C;}
	.st8{fill:#56C5DA;}
	.st9{fill:#74CFE0;}
	.st10{fill:#64C9DD;}
	.st11{fill:#5DC7DB;}
	.st12{fill:#7AD1E2;}
	.st13{fill:#4DC2D8;}
	.st14{fill:#F6B64E;}
	.st15{fill:url(#SVGID_00000075160977466966091160000017994315401438134917_);}
	.st16{fill:url(#SVGID_00000052799764146556079860000008852315867989279150_);}
	.st17{fill:url(#SVGID_00000157992463786853171280000000861011936191469213_);}
	.st18{fill:url(#SVGID_00000163771029686673258030000000757998020802101428_);}
	.st19{fill:url(#SVGID_00000156581694054805158070000007620922178557424300_);}
	.st20{fill:url(#SVGID_00000066499690164689209380000001777899152342552992_);}
	.st21{fill:url(#SVGID_00000013915850778943789350000015247586812478322853_);}
	.st22{fill:url(#SVGID_00000170983815244924649210000004307097359829070777_);}
	.st23{fill:url(#SVGID_00000069400281596811266080000007659393549377119880_);}
	.st24{fill:url(#SVGID_00000054983485351394452190000000694972729029259442_);}
	.st25{fill:url(#SVGID_00000137110843663718260390000003579875499719128488_);}
	.st26{fill:url(#SVGID_00000150096317726316325680000007096404856598208643_);}
	.st27{fill:url(#SVGID_00000060734067422898024710000008662950689551443086_);}
	.st28{fill:url(#SVGID_00000013155989053338101640000014500513840821742769_);}
	.st29{fill:url(#SVGID_00000029733730295686258360000002478270481990860977_);}
</style>
<sodipodi:namedview  bordercolor="#666666" borderopacity="1" gridtolerance="10" guidetolerance="10" id="namedview46" inkscape:current-layer="g52" inkscape:cx="624.96002" inkscape:cy="88.959999" inkscape:pageopacity="0" inkscape:pageshadow="2" inkscape:window-height="480" inkscape:window-maximized="0" inkscape:window-width="740" inkscape:window-x="0" inkscape:window-y="0" inkscape:zoom="0.9504608" objecttolerance="10" pagecolor="#ffffff" showgrid="false">
	</sodipodi:namedview>
<g id="g52" inkscape:groupmode="layer" inkscape:label="Image">
	<g>
		<linearGradient id="SVGID_1_" gradientUnits="userSpaceOnUse" x1="46.9016" y1="100.501" x2="212.7756" y2="100.501">
			<stop  offset="0" style="stop-color:#FFFFFF"/>
			<stop  offset="0.9987" style="stop-color:#0EACCA"/>
		</linearGradient>
		<path class="st0" d="M209.2,94.1c-0.5-0.6-1.2-0.9-2-0.9c-0.3-0.1-0.6-0.3-1-0.4c-0.6-0.5-1.3-0.2-2-0.2c-42.7,0-85.5,0-128.2,0
			c-9.1,0-18.1-0.1-27.1,0.3c-1.4,0.1-2,0.6-2,2c0.2,4.1-0.1,8.3,0.2,12.4c0.1,1.4,0.6,1.3,1.4,1.3c4.1,0,8.1,0,12.2,0
			c3.5,0,7,0,10.6,0c3.1,0,6.2,0,9.3,0c2.2,0,4.5,0,6.7,0v0c2,0,4.1,0,6.1,0c0,0,0,0,0,0c0,0,0,0,0,0c2.1,0,4.3,0,6.4,0
			c1.5,0,3,0,4.5,0c1.7,0,3.4,0,5.1,0c1.5,0,3,0,4.5,0c0,0,0,0,0,0l0,0c2.2,0,4.5,0,6.7,0c1.8,0,3.6,0,5.4,0c1.3,0,2.6,0,3.8,0l0,0
			c0,0,0,0,0,0c1.2,0,2.3,0,3.5,0c0,0,0,0,0,0l0,0c1.4,0,2.8,0,4.2,0c0,0,0,0,0,0l0,0c1.8,0,3.6,0,5.4,0c0,0,0,0,0,0
			c1.3,0,2.6,0,3.8,0c0,0,0,0,0,0c1.2,0,2.3,0,3.5,0c1.2,0,2.3,0,3.5,0c1.1,0,2.1,0,3.2,0c0,0,0,0,0,0l0,0c1.3,0,2.6,0,3.8,0
			c1.2,0,2.3,0,3.5,0c1,0,1.9,0,2.9,0c0,0,0,0,0,0l0,0c1.2,0,2.3,0,3.5,0c1.1,0,2.1,0,3.2,0c1.1,0,2.1,0,3.2,0c1.1,0,2.1,0,3.2,0
			c1.1,0,2.1,0,3.2,0v0c1.5,0,3,0,4.5,0v0c1,0,1.9,0,2.9,0c1.1,0,2.1,0,3.2,0c1.3,0,2.6,0,3.8,0c1.2,0,2.3,0,3.5,0
			c0.9,0,1.7,0,2.6,0c0.9,0,1.7,0.2,2.6-0.2c0.9,0,1.6-0.3,2.3-0.9l0,0C213.9,104.4,214.1,97.2,209.2,94.1z M197.6,92.8L197.6,92.8
			c0.1,0,0.2,0,0.2,0C197.8,92.8,197.7,92.8,197.6,92.8C197.6,92.8,197.6,92.8,197.6,92.8z M80.5,92.8
			C80.5,92.8,80.5,92.8,80.5,92.8C80.5,92.8,80.5,92.8,80.5,92.8C80.5,92.8,80.5,92.8,80.5,92.8z M113.8,92.8
			C113.8,92.8,113.8,92.8,113.8,92.8C113.8,92.8,113.8,92.8,113.8,92.8C113.8,92.8,113.8,92.8,113.8,92.8z M137.5,92.9
			C137.5,92.8,137.5,92.8,137.5,92.9c0.1,0,0.1,0,0.2,0C137.6,92.8,137.5,92.8,137.5,92.9z M164.2,92.8c0.1,0,0.1,0,0.2,0l0,0
			c0,0,0,0,0,0C164.3,92.8,164.2,92.8,164.2,92.8z M173.8,92.8c0.1,0,0.1,0,0.2,0l0,0c0,0,0,0,0,0C173.9,92.8,173.8,92.8,173.8,92.8
			z M187.8,92.8c0.1,0,0.1,0,0.2,0l0,0c0,0,0,0,0,0C188,92.8,187.9,92.8,187.8,92.8z M190.9,92.9C190.9,92.8,190.9,92.8,190.9,92.9
			c0.1-0.1,0.1-0.1,0.2-0.1C191,92.8,191,92.8,190.9,92.9z M194.1,92.9C194.1,92.8,194.1,92.8,194.1,92.9c0.1-0.1,0.2-0.1,0.3-0.1
			C194.3,92.8,194.2,92.8,194.1,92.9z M201.3,92.8c0.1,0,0.1,0,0.2,0l0,0c0,0,0,0,0,0C201.4,92.8,201.3,92.8,201.3,92.8z"/>
		<path class="st1" d="M115.7,77.8c1,0.1,2-0.3,2.9,0.3c-9,0-17.9,0-26.9,0c-0.1-0.2,0-0.4,0.2-0.5c1.6-0.6,3.3-0.2,5-0.3
			c1.6-0.1,3.2,0,4.8,0c1.9-0.1,3.8,0,5.7,0c1.5-0.1,3,0,4.5,0C113.2,77.4,114.5,77,115.7,77.8z"/>
		<path class="st2" d="M91.7,77.8c0,0.1,0,0.2,0,0.3c-5,0-10,0-15,0c-0.1-0.2-0.1-0.4,0.1-0.5c1-0.4,2.1-0.5,3.1,0.2
			c1.7,0,3.4,0,5.1,0c1.5-0.9,3.1-0.4,4.7-0.5C90.4,77.4,91.1,77.2,91.7,77.8z"/>
		<path class="st3" d="M65.2,121.3c-1,0.6-2.1,0.2-3.2,0.3c-1.5,0.9-3.2,0.4-4.8,0.5c-1.3-0.1-2.7,0.4-3.9-0.5c0-0.1,0-0.2,0-0.3
			C57.3,121.3,61.2,121.3,65.2,121.3z"/>
		<path class="st4" d="M76.7,77.8c0,0.1,0,0.2,0,0.3c-3.7,0-7.5,0-11.2,0c0-0.1,0-0.2,0-0.3c0.9-0.7,1.9-0.4,2.9-0.5
			c1.9,0,3.8-0.1,5.7,0C74.9,77.4,75.9,77.1,76.7,77.8z"/>
		
			<linearGradient id="SVGID_00000122706289592901420390000004964370403350828167_" gradientUnits="userSpaceOnUse" x1="44.9728" y1="41.3384" x2="214.6649" y2="41.3384">
			<stop  offset="0" style="stop-color:#FFFFFF"/>
			<stop  offset="0.9987" style="stop-color:#0EACCA"/>
		</linearGradient>
		<path style="fill:url(#SVGID_00000122706289592901420390000004964370403350828167_);" d="M211.1,34.9c-0.5-0.5-1.1-0.8-1.9-0.9
			c-0.3-0.3-0.6-0.3-1-0.3c-0.5-0.4-1.1-0.3-1.7-0.3c-13,0-26,0-39,0.1c-9.6,0-19.2,0-28.8,0c-6.2,0-12.4,0-18.6,0
			c-3.3,0-6.6,0-9.9,0c0,0,0,0,0,0c-3.9,0-7.9,0-11.8,0c0,0,0,0,0,0c0,0,0,0,0,0c-5.1,0-10.2,0-15.4,0c-3.8,0-7.7,0-11.5,0
			c-3.7,0-7.5,0-11.2,0c-3.9,0-7.9,0-11.8,0c-1.2,0-2.4,0.3-3.3,0.9c-0.6,0.4,0.3,1.4,0.1,2.1c-0.1,0.3,0,0.6,0,1
			c0,3.4,0,6.7,0,10.1c0,1.4,0.4,2,1.9,2c3.8-0.1,7.7,0,11.5,0l0,0h0l0,0l0,0c2.7,0,5.3,0,8,0c2.9,0,5.8,0,8.6,0c2.3,0,4.7,0,7,0
			c1.8,0,3.6,0,5.4,0l0,0v0c1.8,0,3.6,0,5.4,0v0l0,0c1.9,0,3.8,0,5.8,0c0,0,0,0,0,0l0,0c1.9,0,3.8,0,5.8,0c0,0,0,0,0,0c0,0,0,0,0,0
			c1.8,0,3.6,0,5.4,0c1.4,0,2.8,0,4.2,0c0,0,0,0,0,0c1.9,0,3.8,0,5.8,0c1.5,0,3,0,4.5,0c1.2,0,2.3,0,3.5,0c0,0,0,0,0,0l0,0
			c1.6,0,3.2,0,4.8,0c1.4,0,2.8,0,4.2,0c1.5,0,3,0,4.5,0c0,0,0,0,0,0c1.2,0,2.3,0,3.5,0c0,0,0,0,0,0v0c1.3,0,2.6,0,3.8,0
			c0,0,0,0,0,0c1.1,0,2.1,0,3.2,0c0,0,0,0,0,0v0c1.2,0,2.3,0,3.5,0c0,0,0,0,0,0l0,0c1.4,0,2.8,0,4.2,0c0,0,0,0,0,0l0,0
			c1.5,0,3,0,4.5,0c0,0,0,0,0,0c1.3,0,2.6,0,3.8,0c0,0,0,0,0,0c1.3,0,2.6,0,3.8,0c0,0,0,0,0,0l0,0c1.3,0,2.6,0,3.8,0l0,0v0
			c1,0,1.9,0,2.9,0c1.2,0,2.3,0,3.5,0v0c1,0,1.9,0,2.9,0c0.9,0,1.7,0,2.6,0v0l0,0c1.3,0,2.6,0,3.8,0c1.2,0,2.3,0,3.5,0
			c1.4,0,2.8,0,4.2,0l0,0v0c1.3,0,2.6,0,3.8,0c0.9,0,1.7,0,2.6,0c0.9,0,1.8,0.2,2.6-0.2c0,0,0,0,0,0c0.9,0,1.8-0.3,2.5-1
			C215.8,45.2,216,37.9,211.1,34.9z M110.6,33.7C110.6,33.7,110.6,33.7,110.6,33.7C110.6,33.7,110.6,33.7,110.6,33.7
			C110.6,33.7,110.6,33.7,110.6,33.7z M93.7,33.7C93.7,33.7,93.6,33.7,93.7,33.7C93.6,33.7,93.6,33.7,93.7,33.7
			C93.6,33.7,93.7,33.7,93.7,33.7z M155.7,33.7C155.7,33.7,155.7,33.7,155.7,33.7C155.7,33.7,155.7,33.7,155.7,33.7
			C155.7,33.7,155.7,33.7,155.7,33.7c0,0,0.1,0,0.1,0C155.8,33.7,155.7,33.7,155.7,33.7z M187.7,33.7
			C187.7,33.7,187.7,33.7,187.7,33.7C187.7,33.7,187.7,33.7,187.7,33.7C187.7,33.7,187.7,33.7,187.7,33.7
			C187.7,33.7,187.7,33.7,187.7,33.7C187.7,33.7,187.7,33.7,187.7,33.7z M195.1,33.7C195.1,33.7,195.1,33.7,195.1,33.7
			C195.1,33.7,195.1,33.7,195.1,33.7C195.1,33.7,195.1,33.7,195.1,33.7C195.1,33.7,195.1,33.7,195.1,33.7
			C195.1,33.7,195.1,33.7,195.1,33.7z M205.6,33.6C205.6,33.6,205.6,33.6,205.6,33.6C205.6,33.7,205.6,33.7,205.6,33.6
			C205.6,33.7,205.6,33.7,205.6,33.6z"/>
		<path class="st6" d="M152.2,121.4c1.7,0,3.4,0,5.1,0c0.1,0.2,0,0.3-0.1,0.4c-0.5,0.3-1,0.2-1.6,0.3c-1.1,0-2.2,0.2-3.2-0.2
			C152.3,121.7,152.2,121.6,152.2,121.4z"/>
		<path class="st7" d="M159.9,62.4c-1.1,0-2.1,0-3.2,0c-0.6,0.5-1.3,0.5-1.9,0c0-0.1,0-0.2,0-0.3c1.7,0,3.4,0,5.1,0
			C159.9,62.2,160,62.3,159.9,62.4C159.9,62.4,159.9,62.4,159.9,62.4z"/>
		<path class="st8" d="M168.8,121.6c-0.1,0-0.2,0-0.3,0c-0.8,0.6-1.8,0.4-2.7,0.4c-0.6,0-1.1,0-1.6-0.3c-0.2-0.1-0.2-0.3-0.1-0.5
			c1.6,0,3.2,0,4.8,0c0.1,0.1,0.1,0.1,0.1,0.2C168.9,121.6,168.9,121.6,168.8,121.6z"/>
		<path class="st9" d="M152.2,121.4c0,0.1,0,0.2,0,0.3c-0.1,0.1-0.1,0.1-0.2,0.2c-0.9,0.4-1.9,0.2-2.8,0.2c-0.3,0-0.5-0.1-0.7-0.2
			c-0.2-0.1-0.2-0.3-0.1-0.4C149.6,121.4,150.9,121.4,152.2,121.4z"/>
		<path class="st10" d="M157.3,121.6c0-0.1,0-0.2,0-0.3c1.2,0,2.3,0,3.5,0c0.1,0.2,0,0.3-0.1,0.5c-0.8,0.4-1.6,0.2-2.4,0.2
			C157.9,122,157.6,121.9,157.3,121.6z"/>
		<path class="st11" d="M160.8,121.6c0-0.1,0-0.2,0-0.3c1.1,0,2.1,0,3.2,0c0,0.1,0,0.2,0,0.2c-0.6,0.6-1.4,0.5-2.2,0.4
			C161.5,122,161.1,121.9,160.8,121.6z"/>
		<path class="st12" d="M148.4,121.4c0,0.1,0,0.2,0,0.3c-0.8,0.7-1.8,0.5-2.7,0.3c-0.2-0.1-0.3-0.2-0.5-0.3c0-0.1,0-0.2,0-0.3
			C146.2,121.4,147.3,121.4,148.4,121.4z"/>
		<path class="st13" d="M168.8,121.6c0-0.1,0-0.2,0-0.3c0.6,0,1.2-0.3,1.6,0.2C169.9,121.6,169.4,121.6,168.8,121.6z"/>
		<path class="st14" d="M180.7,62.4c0-0.1,0-0.2,0-0.2c0.6-0.1,1.1-0.1,1.7,0.2c-0.3,0-0.7,0-1,0.1
			C181.1,62.6,180.9,62.6,180.7,62.4z"/>
		<g>
			
				<linearGradient id="SVGID_00000027565136365036238770000004591455312302990522_" gradientUnits="userSpaceOnUse" x1="222.3281" y1="86.4805" x2="1176.3706" y2="86.4805">
				<stop  offset="0" style="stop-color:#00A5C4"/>
				<stop  offset="0.9987" style="stop-color:#143759"/>
			</linearGradient>
			<path style="fill:url(#SVGID_00000027565136365036238770000004591455312302990522_);" d="M1236.5,33.1c-28.7,0-57.5,0-86.2,0
				c-0.4,0-0.7,0-1.1,0c-0.8-0.1-1.1,0.2-1.2,1.1c-0.5,3.6-1,7.2-1.5,10.9c-0.5,3.5-0.9,6.9-1.3,10.4c0.4,0.7,1.1,0.3,1.6,0.3
				c9.2,0,18.3,0,27.5,0c0.8,0,1.3-0.1,1.1,1.1c-0.8,4.8-1.4,9.7-2,14.5c-0.9,6.4-1.8,12.8-2.7,19.2c-0.9,6.4-1.8,12.7-2.7,19.1
				c-0.8,5.7-1.6,11.5-2.4,17.2c-0.6,4-1.1,8-1.7,12c-0.1,0.7,0,1.1,1,1.1c7.9-0.1,15.8-0.1,23.7-0.1c1.2,0,2.5,0,3.7,0.1
				c0.8,0,1-0.4,1.1-1c0.6-4.7,1.3-9.4,1.9-14c0.9-6.4,1.8-12.8,2.7-19.2c0.9-6.5,1.8-12.9,2.7-19.4c0.8-5.6,1.6-11.2,2.4-16.9
				c0.6-4.5,1.2-9,1.8-13.6c0.6,0,1.3-0.1,1.9-0.1c9,0,18.1,0,27.1,0c1.1,0,1.6-0.2,1.7-1.4c0.4-3.7,0.9-7.4,1.5-11
				c0.4-2.5,0.4-5,1.2-7.4c0-0.9,0-1.7,0-2.6c0-0.1,0-0.2,0-0.3C1237.6,33,1237,33.1,1236.5,33.1z"/>
			
				<linearGradient id="SVGID_00000134214692257508341390000013341233711326643866_" gradientUnits="userSpaceOnUse" x1="222.3281" y1="86.4848" x2="1176.3706" y2="86.4848">
				<stop  offset="0" style="stop-color:#00A5C4"/>
				<stop  offset="0.9987" style="stop-color:#143759"/>
			</linearGradient>
			<path style="fill:url(#SVGID_00000134214692257508341390000013341233711326643866_);" d="M1136.2,33.1c-9.1,0-18.1,0-27.2,0
				c-1.1,0-1.3,0.5-1.4,1.4c-0.7,5.7-1.5,11.3-2.3,17c-0.9,6.6-1.9,13.1-2.8,19.7c-0.8,5.7-1.6,11.3-2.4,17
				c-0.8,5.7-1.6,11.3-2.4,17c-0.8,5.7-1.6,11.4-2.4,17.2c-0.8,5.5-1.6,11-2.4,16.5c-0.1,0.8,0,1.1,1,1.1c6.7-0.1,13.4-0.1,20.1-0.1
				c2.4,0,4.8,0,7.2,0.1c0.8,0,1-0.3,1.1-1c0.6-4.8,1.3-9.6,1.9-14.3c0.8-5.7,1.6-11.3,2.4-17c0.7-4.9,1.4-9.9,2.1-14.8
				c0.8-5.6,1.6-11.2,2.4-16.8c0.8-5.7,1.6-11.4,2.4-17.1c0.8-5.7,1.6-11.4,2.4-17.2c0.4-2.8,1-5.5,1.1-8.3
				C1136.9,32.9,1136.5,33.1,1136.2,33.1z"/>
			
				<linearGradient id="SVGID_00000042695164887421778650000016534483263469679766_" gradientUnits="userSpaceOnUse" x1="222.3281" y1="86.4979" x2="1176.3706" y2="86.4979">
				<stop  offset="0" style="stop-color:#00A5C4"/>
				<stop  offset="0.9987" style="stop-color:#143759"/>
			</linearGradient>
			<path style="fill:url(#SVGID_00000042695164887421778650000016534483263469679766_);" d="M616.8,34.1c0.9-1.4-0.3-1-0.9-1
				c-9.3,0-18.6,0-28,0c-0.4,0-0.9-0.2-1.2,0.2c0,0,0,0,0,0c-0.5,0.5-0.7,1.2-1,1.8c-3,8.2-6,16.4-8.9,24.6
				c-1.9,5.2-3.7,10.5-5.6,15.7c0,0,0,0,0,0c-0.2,0.5-0.4,0.9-0.6,1.4c-3.3,9.1-6.6,18.2-9.9,27.2c-1.5,4.1-3,8.1-3.8,12.4
				c-0.5,0.4-0.3,1-0.4,1.6c-0.1,0.1-0.2,0.2-0.3,0.3c-0.7,0-1.5-0.1-2.2,0c-1.1,0.1-1.4-0.2-1.4-1.4c0-1.7,0.3-3.5-0.2-5.1
				c0,0,0,0,0,0c0,0,0,0,0,0c0-0.3,0-0.5,0-0.8c0,0,0,0,0,0c0,0,0,0,0,0c0.2-0.8,0.1-1.5,0-2.3c0-0.9,0-1.7-0.1-2.6c0,0,0,0,0,0
				c0,0,0,0,0,0c0.1-0.5,0-1-0.2-1.5c0,0,0,0,0,0c-0.1-1.1-0.1-2.2-0.2-3.2c0,0,0,0,0,0c-0.1-0.2-0.1-0.4-0.2-0.6
				c0-1.2,0.2-2.5-0.3-3.6c0,0,0,0,0,0c0.1-0.1,0.1-0.1,0-0.2c0-1.2,0.2-2.5-0.3-3.7c0,0,0,0,0,0l0.1-0.1l-0.1-0.1
				c0-1.2,0.1-2.4-0.2-3.5c0,0,0,0,0,0c0-0.2-0.1-0.4-0.1-0.6c0-1.2,0.2-2.5-0.3-3.7c0,0,0,0,0,0l0-0.1l-0.1-0.1
				c0-0.9-0.1-1.8-0.1-2.6c0,0,0,0,0,0c0,0,0,0,0,0c0-0.4,0.1-0.8-0.2-1.2c0-1.2,0.1-2.4-0.2-3.5c0,0,0,0,0,0c0-0.2-0.1-0.4-0.1-0.6
				c-0.1-1.2,0.2-2.5-0.3-3.7c0,0,0,0,0,0l0.1-0.1l-0.1-0.1c-0.1-1.2,0.2-2.5-0.3-3.7c0,0,0,0,0,0l0-0.1l-0.1-0.1
				c0-1.2,0.2-2.5-0.3-3.7c0,0,0,0,0,0l0-0.1c0-1.2,0.1-2.4-0.2-3.5c0,0,0,0,0,0c0-0.2-0.1-0.4-0.1-0.6c-0.1-1.1-0.1-2.2-0.2-3.2
				c0,0,0,0,0,0c-0.1-0.2-0.1-0.4-0.2-0.6c-0.1-1.2,0.2-2.5-0.3-3.6c0,0,0,0,0,0c0.1-0.1,0.1-0.1,0-0.2c0-1.2,0.2-2.5-0.3-3.7
				c0,0,0,0,0,0c0-0.1,0-0.3,0-0.4c0-1.1,0.1-2.2-0.2-3.2c0,0,0,0,0,0c0-0.2-0.1-0.4-0.1-0.6c-0.1-1.1-0.1-2.2-0.2-3.2c0,0,0,0,0,0
				c-0.1-0.2-0.1-0.4-0.2-0.6c0-1.2,0.2-2.5-0.3-3.7c0,0,0,0,0,0l0.1-0.1l-0.1-0.1c0-1.2,0.1-2.4-0.2-3.5c0,0,0,0,0,0
				c0.1-1.3-0.4-1.7-1.7-1.6c-2.6,0.1-5.2,0-7.8,0c-6.5,0-13.1,0.1-19.6,0.1c0,0,0,0,0,0c0,0,0,0,0,0h0h0c-0.6,0.2-0.3,0.6-0.3,0.9
				c0.7,5,1.4,10,2.1,15c1.9,13.7,3.7,27.4,5.5,41c1.9,13.9,3.8,27.8,5.7,41.7c0.5,3.9,3.4,7.2,7.1,8c2,0.4,4,0.2,6,0.1
				c4.4,0,8.7,0,13.1,0c3.6,0,7.2,0.1,10.8,0c1.8-0.1,3.6-0.8,4.9-2.1c1.4-1,2.4-2.3,3.1-3.8c1.6-3.6,3.1-7.3,4.6-11
				c1.6-4,3.2-7.9,4.8-11.9c1.7-4.1,3.4-8.1,5.1-12.1c0.1-0.9,1-1.6,1-2.6c0.2-0.4,0.4-0.9,0.6-1.3c1.4-3.2,2.8-6.4,4.1-9.6
				c1.7-4,3.2-8.1,4.9-12.1c2-4.8,4.1-9.7,6.1-14.5c1.7-4.1,3.5-8.3,5.2-12.5C613.5,42.3,615.1,38.2,616.8,34.1z M552.6,117.8
				c0.1,0.5,0.4,0.7,1,0.9C553,118.6,552.7,118.4,552.6,117.8z"/>
			
				<linearGradient id="SVGID_00000006685216750869735060000018101289443577757075_" gradientUnits="userSpaceOnUse" x1="222.3281" y1="86.3283" x2="1176.3706" y2="86.3283">
				<stop  offset="0" style="stop-color:#00A5C4"/>
				<stop  offset="0.9987" style="stop-color:#143759"/>
			</linearGradient>
			<path style="fill:url(#SVGID_00000006685216750869735060000018101289443577757075_);" d="M1022.3,98c-3.1,0-6.2,0-9.3,0
				c-0.6,0-1.1,0.1-1-0.9c0.7-4.7,1.4-9.5,2.1-14.2c0-0.5,0.1-1.1,0.1-1.6v0c0,0,0,0,0,0c0.1-0.2,0.2-0.4,0.2-0.6
				c0.8-5.7,1.5-11.3,2.4-17c1.4-10,2.9-19.9,4.3-29.9c0.1-0.9-0.2-0.9-0.8-0.8c0,0,0,0,0,0l0,0c-0.2-0.3-0.4-0.3-0.7-0.3
				c-9,0-17.9,0-26.9,0c-0.6,0-1,0.2-1.4,0.6c-1.7,1.9-3.4,3.8-5.1,5.7c-6.8,7.3-13.5,14.6-20.1,22.1c-2.6,2.5-5,5.3-7.3,8
				c-4.5,4.9-8.9,9.8-13.4,14.7c0.1,0.1,0.2,0.2,0.3,0.2c-0.1,0-0.2-0.1-0.3-0.2c-0.4,0.3-0.7,0.5-0.9,1c-0.6,0.6-1.1,1.3-1.7,1.9
				c-3.7,4-7.3,8-11,11.9c-4.3,4.5-4.1,15,4.4,18c3.5,1.2,7,0.7,10.6,0.8c4.2,0,8.3,0,12.5,0c6.5,0,13,0,19.5,0c1.2,0,2.4,0,3.7,0
				c-1,7.2-1.9,14.3-3,21.4c-0.1,0.8-0.1,1.1,0.8,1.1c5.1-0.1,10.2-0.1,15.3-0.1c3.2,0,6.4,0,9.6,0.1c0.7,0,0.9-0.2,1-0.9
				c0.9-6.6,1.9-13.1,2.8-19.7c0.2-1.2,0.5-1.9,1.7-2.2c2.4-0.2,4.7-1,7.1-1.6c3.5-0.8,3.5-0.8,4-4.2c0-0.5,0.1-1.1,0.1-1.6
				c0,0,0,0,0,0c0,0,0,0,0,0c0.1-0.1,0.2-0.3,0.2-0.4c0.5-3.4,0.9-6.9,1.4-10.3C1023.6,98,1023.1,98,1022.3,98z M968.4,62.2
				C968.4,62.2,968.4,62.2,968.4,62.2C968.4,62.2,968.4,62.2,968.4,62.2C968.4,62.2,968.4,62.2,968.4,62.2z M946.8,83.5
				c0,0-0.1,0-0.1,0c0.1-0.1,0.1-0.2,0.2-0.2C946.8,83.4,946.8,83.4,946.8,83.5z M988.7,68c-1.1,8-2.1,15.9-3.3,23.9
				c-0.3,1.9-0.1,3.9-1.2,5.6c0,0-0.1,0-0.1,0c-0.4-0.1-0.9,0-1.4,0c-6.2,0-12.3,0-18.5,0c-0.7,0-1.6,0.1-2-0.7
				c-0.4-0.8,0.2-1.5,0.7-2.1c0.2-0.3,0.5-0.5,0.6-0.7c1.3-1.7,3-3.1,4.3-4.9c0-0.3,0.1-0.5,0.2-0.7c0.4-0.4,0.8-0.8,1.2-1.2
				c0.2-0.2,0.4-0.4,0.5-0.7c0.8,0,1.1-0.6,1.6-1.1c4.6-4.5,8.8-9.4,13.3-14c0.9-0.9,2-1.7,2.3-3.1c0,0,0-0.1,0-0.1
				c1,0.2,1.4-0.5,1.7-1.3C988.9,67.2,988.8,67.6,988.7,68z"/>
			
				<linearGradient id="SVGID_00000043431519849406723810000007122625058765737137_" gradientUnits="userSpaceOnUse" x1="222.3281" y1="86.5901" x2="1176.3706" y2="86.5901">
				<stop  offset="0" style="stop-color:#00A5C4"/>
				<stop  offset="0.9987" style="stop-color:#143759"/>
			</linearGradient>
			<path style="fill:url(#SVGID_00000043431519849406723810000007122625058765737137_);" d="M927.8,35.7c-2-0.5-4-1.1-6-1.6
				c-5.1-1.2-10.3-2-15.6-2.3c-0.1,0-0.3,0-0.5,0c-2.8-0.5-5.6-0.5-8.3-0.6c-3.5-0.2-7-0.1-10.5,0c0,0,0,0,0,0c0,0,0,0,0,0
				c-1.1-0.1-2.2,0-3.2,0.3c-0.2,0-0.4,0-0.6,0c-0.5,0-1,0-1.6,0l0,0c-4.4,0.4-8.8,1-13.1,2.2l0,0c-8,2.2-14,7-17.2,14.8
				c-2.8,6.7-3.7,13.8-3.2,21c0.3,4.6,1.8,8.9,4.7,12.6c4,5.2,9.5,8.4,15.4,11c4.1,1.9,8.2,3.9,12.4,5.6c2.8,1.6,5.8,2.7,8.8,4
				c0.3,0.1,0.6,0.3,1,0.4c0,0,0,0,0,0c0.1,0.1,0.2,0.2,0.3,0.2c0.3,0.2,0.6,0.4,0.9,0.5c0,0,0,0,0,0c2.1,1.6,2.6,3.8,2,6.3
				c-0.1,0.6-0.2,1.2-0.4,1.8c0,0,0-0.1,0.1-0.1c0,0.1-0.1,0.2-0.1,0.3c-1.2,2.6-3.2,4.1-6,4.5c-1.6,0.3-3.2,0.5-4.9,0.6l0,0
				c-3.1,0-6.2,0.1-9.3,0.1c-2.6-0.3-5.3-0.2-7.9-0.1h0c0,0,0,0,0,0c-1.1,0-2.1,0-3.2-0.1c0,0,0,0,0,0c-0.9-0.3-1.8-0.1-2.6-0.1
				c-2.1-0.2-4.2-0.2-6.4-0.1c-3.1-0.2-6.3-0.4-9.4-0.4c-1.1,0-1.4,0.4-1.5,1.3c-0.8,6.1-1.6,12.2-2.5,18.2c-0.1,0.8,0,1.1,0.9,1.3
				c6.2,1.4,12.4,2.7,18.7,3.2c0.2,0.3,0.6,0.2,0.9,0.3c3.4,0.3,6.9,0.7,10.3,0.9c4.5,0.2,9.1,0.8,13.7,0.1c0,0,0,0,0,0
				c0.7,0,1.4,0,2.1,0c3.1-0.1,6.1-0.3,9.1-1c4.6-0.5,9-1.6,13.1-3.8c0.4-0.2,0.8-0.3,1.1-0.5c5.2-2.8,8.2-7.4,10.3-12.7
				c1.7-4.5,2.4-9.2,3-13.9c0.4-3.5,0.5-7-0.1-10.5c-1.5-9.2-7.3-14.8-15.3-18.6c-3.7-2-7.5-3.7-11.5-5.1c-1.1-0.9-2.7-1-3.8-1.9
				c-0.4-0.2-0.8-0.3-1.3-0.5c0,0,0,0,0,0l0,0c-1.4-0.7-2.8-1.4-4.3-1.9c-2.1-0.8-4.1-1.6-5.9-2.8c-2.4-1.6-3.6-3.6-3-6.7
				c0.6-3.7,2.4-6.1,6.3-6.8c1.2-0.1,2.3-0.3,3.5-0.3c6.6,0,13.3-0.1,19.9-0.1c6.1,0.1,12.2,0.3,18.3,0.4c0.5,0,1.1,0.2,1.2-0.8
				c0.8-5.8,1.6-11.6,2.5-17.4C928.9,36.1,928.4,35.9,927.8,35.7z"/>
			
				<linearGradient id="SVGID_00000037650164034502047890000013515398971360826507_" gradientUnits="userSpaceOnUse" x1="222.3281" y1="100.2017" x2="1176.3706" y2="100.2017">
				<stop  offset="0" style="stop-color:#00A5C4"/>
				<stop  offset="0.9987" style="stop-color:#143759"/>
			</linearGradient>
			<path style="fill:url(#SVGID_00000037650164034502047890000013515398971360826507_);" d="M1081,91.6c-14.2,0-28.3,0-42.5,0
				c-1.4,0-1.7,0.6-1.8,1.7c-0.3,2.1-0.6,4.2-0.9,6.3c0,0.5-0.1,1.1-0.1,1.6c0,0,0,0,0,0c0,0,0,0,0,0c-0.1,0.2-0.1,0.4-0.2,0.6
				c0,0.5-0.1,1.1-0.1,1.6c0,0,0,0,0,0c-0.1,0.2-0.1,0.4-0.2,0.6c0,0,0,0,0,0c0,0,0,0,0,0c0,0.5-0.1,1.1-0.1,1.6v0c0,0,0,0,0,0
				c-0.5,1-0.3,2.1-0.6,3.1c8.4,0,16.7,0,25,0c6.6,0,13.3,0,19.9,0.1c0.7,0,0.9-0.2,1-0.9c0.2-1.5,0.5-3,0.7-4.6
				c0.5-3.9,1.3-7.7,1.5-11.6l0,0l0,0C1082.1,91.4,1081.5,91.6,1081,91.6z"/>
			
				<linearGradient id="SVGID_00000102512307552470125610000013130302402219934140_" gradientUnits="userSpaceOnUse" x1="222.3281" y1="86.4855" x2="1176.3706" y2="86.4855">
				<stop  offset="0" style="stop-color:#00A5C4"/>
				<stop  offset="0.9987" style="stop-color:#143759"/>
			</linearGradient>
			<path style="fill:url(#SVGID_00000102512307552470125610000013130302402219934140_);" d="M747.6,34.9c-2-0.4-3.9-1-5.8-1.4
				c-4.2-0.8-8.4-1.6-12.7-1.7c-0.6-0.1-1.1-0.1-1.7-0.2c-1.1-0.3-2.3-0.2-3.5-0.1h0c0,0,0,0,0,0c-7.6-0.6-15.2-0.3-22.7,0.7
				c-3.2,0.6-6.4,1.1-9.6,2.1c-8,2.6-14.3,7.3-18.6,14.7c-0.1,0.1-0.2,0.2-0.3,0.3c-3.8,6.4-6,13.3-7.6,20.5c-2,8.8-3.4,17.6-4,26.6
				c-0.5,7.4-0.4,14.8,1.5,22c1.8,6.9,5.2,12.7,11.5,16.6c0.9,0.5,1.7,1.1,2.6,1.6c5.3,2.8,11.1,4.1,17,4.7l0,0
				c4.1,0.5,8.3,0.5,12.5,0.4c0.4,0,0.9,0.1,1.3,0.1c5.5-0.1,11-0.5,16.5-1.2c4.9-0.7,9.8-1.6,14.5-3.3c0.7-1,0.3-1.9,0-2.9
				c0,0,0,0,0,0c0-0.2,0-0.3,0-0.5c0-1.4-0.1-2.8-0.1-4.2c0,0,0,0,0,0c0,0,0,0,0,0c0.1-0.6,0.1-1.3-0.2-1.9c0,0,0,0,0,0
				c0-1.5-0.1-3-0.1-4.5c0,0,0,0,0,0c0,0,0,0,0,0c0.1-0.6,0.1-1.3-0.2-1.9c0-1.5-0.1-3-0.1-4.5v0c0,0,0,0,0,0c0.2-1-0.2-1.4-1.2-1.1
				c-0.4,0.1-0.7,0.1-1.1,0.2c-6.8,0.3-13.5,0.7-20.3,1c-4.4,0-8.7,0-13.1,0l0,0c0,0,0,0,0,0c-2.7-0.4-5.4-1-7.6-2.7
				c-1.5-1.5-2.1-3.4-2.6-5.3c0-0.5-0.1-1.1-0.1-1.6v0c0,0,0,0,0,0c0.1-0.3,0-0.7-0.2-0.9c0-1.8,0-3.7,0-5.5c0,0,0,0,0,0
				c0,0,0,0,0,0c0.2-0.6,0.3-1.2,0.2-1.9c0-0.9,0.1-1.7,0.1-2.6c0,0,0,0,0,0c0,0,0,0,0,0c0.1-0.1,0.1-0.1,0-0.2
				c0.5-0.8,0.3-1.8,0.3-2.7c0,0,0,0,0,0c0,0,0,0,0,0c0.1-0.2,0.1-0.4,0.2-0.6c0,0,0,0,0,0c0,0,0,0,0,0c0.1-0.6,0.1-1.3,0.2-1.9
				c0,0,0,0,0,0c0,0,0,0,0,0c0.1-0.2,0.1-0.4,0.2-0.6c0-0.5,0.1-1.1,0.1-1.6c0,0,0,0,0,0c0,0,0,0,0,0c0.1-0.1,0.1-0.1,0-0.2
				c0.5-0.6,0.3-1.4,0.3-2.1c0,0,0,0,0,0c0,0,0,0,0,0c0.1-0.3,0.1-0.6,0.2-0.9c0-0.5,0.1-1.1,0.1-1.6c0,0,0,0,0,0c0,0,0,0,0,0
				c0-0.1,0.1-0.2,0.1-0.3c0.2-0.5,0.2-1.1,0.2-1.6c0,0,0,0,0,0c0,0,0,0,0,0c0.4-1.3,0.7-2.6,0.7-4c0.5-0.5,0.3-1.2,0.3-1.8
				c0,0,0,0,0,0c0,0,0,0,0,0c0.5-2,1.1-3.9,1.6-5.9c1-4,2.7-7.7,5.5-10.7c3.4-2.7,7.5-3.3,11.6-3.4c5.7,0,11.4,0,17.1,0
				c4,0.1,8,0.2,12.1,0.3c3.5,0.1,3.6,0.1,3.7-3.5c0.4-0.5,0.3-1.2,0.3-1.8c0,0,0,0,0,0c0,0,0,0,0,0c0.1-0.2,0.1-0.4,0.2-0.6
				c0.1-0.5,0.1-1.1,0.2-1.6c0,0,0,0,0,0c0,0,0,0,0,0c0-0.1,0.1-0.2,0.1-0.3c0.1-0.5,0.1-1.1,0.2-1.6c0,0,0,0,0,0c0,0,0,0,0,0
				c0.4-1.3,0.6-2.7,0.6-4c0.4-0.5,0.3-1.1,0.3-1.7c0,0,0,0,0,0c0,0,0,0,0,0c0.1-0.2,0.1-0.4,0.2-0.6l0,0c0.1-0.5,0.1-1.1,0.2-1.6v0
				c0,0,0,0,0,0c0.5-0.7,0.2-1.5,0.5-2.3C749.2,35.8,748.8,35.1,747.6,34.9z"/>
			
				<linearGradient id="SVGID_00000129928179910026689570000006779072773094865034_" gradientUnits="userSpaceOnUse" x1="222.3281" y1="86.6025" x2="1176.3706" y2="86.6025">
				<stop  offset="0" style="stop-color:#00A5C4"/>
				<stop  offset="0.9987" style="stop-color:#143759"/>
			</linearGradient>
			<path style="fill:url(#SVGID_00000129928179910026689570000006779072773094865034_);" d="M409.1,34.3c-4.3-0.4-8.6-1-13-1
				c-1.7-0.4-3.5-0.3-5.3-0.3h0c0,0,0,0,0,0c-0.4,0-0.9,0-1.3,0c-1.5-0.2-3-0.3-4.5-0.2c-4.8-0.3-9.6-0.2-14.3-0.1l0,0
				c-1.1,0-2.1,0-3.2,0c-3.7,0-7.5,0-11.2,0c-0.9,0-1.8-0.2-2.7,0.3c0,0,0,0,0,0c-0.7,0.1-1.5-0.2-2.1,0.3c0,0,0,0,0,0c0,0,0,0,0,0
				c-0.3,0-0.5,0-0.8,0c-6,1.4-11.1,4.4-14.6,9.6c-1.9,2.8-3.4,5.8-3.8,9.2c-0.5,0.5-0.2,1.1-0.4,1.6c0,0,0,0,0,0
				c-0.4,0.7-0.1,1.5-0.3,2.3c-0.1,0.7-0.1,1.3-0.2,2c0,0,0,0,0,0c0,0,0,0,0,0c-0.1,0.1-0.1,0.2-0.1,0.3c-0.1,0.6-0.1,1.1-0.2,1.7
				c0,0,0,0,0,0c0,0,0,0,0,0c-0.7,0.9,0,2.1-0.6,3.1c0,0.6-0.1,1.3-0.1,1.9c-0.5,0.7-0.3,1.5-0.3,2.2c-0.5,0.7-0.2,1.5-0.3,2.3
				c0,0,0,0,0,0c0,0,0,0,0,0c0,0.1-0.1,0.2-0.1,0.3c0,0,0,0,0,0c0,0,0,0,0,0c-0.2,0.5-0.2,1.1-0.2,1.7c0,0,0,0,0,0c0,0,0,0,0,0
				c-0.6,0.8-0.2,1.8-0.3,2.7c-0.5,0.7-0.3,1.5-0.3,2.3c-0.5,0.7-0.3,1.5-0.3,2.2c-0.4,0.6-0.3,1.3-0.3,2c0,0,0,0,0,0c0,0,0,0,0,0
				c0,0.2-0.1,0.4-0.1,0.5c-0.2,0.5-0.2,1.1-0.2,1.7c0,0,0,0,0,0c0,0,0,0,0,0c-0.6,0.8-0.2,1.8-0.3,2.6c-0.5,0.7-0.3,1.6-0.3,2.4
				c-0.5,0.7-0.2,1.5-0.3,2.2c-0.4,0.6-0.3,1.3-0.3,2c0,0,0,0,0,0c0,0,0,0,0,0c0,0.2-0.1,0.4-0.1,0.5c-0.2,0.6-0.2,1.1-0.2,1.7
				c0,0,0,0,0,0c0,0,0,0,0,0l0,0c-0.4,0.7-0.3,1.4-0.3,2.2c0,0,0,0,0,0c0,0,0,0,0,0c-0.3,0.2-0.4,0.5-0.3,0.8
				c-0.1,0.6-0.1,1.3-0.2,1.9l0,0c-0.2,0.1-0.2,0.2-0.2,0.3c0,0.6-0.1,1.3-0.1,1.9c-0.4,0.6-0.3,1.3-0.3,2c0,0,0,0,0,0c0,0,0,0,0,0
				c0,0.2-0.1,0.3-0.1,0.5c-0.1,0.7-0.1,1.3-0.2,2v0c0,0,0,0,0,0c-0.1,0.1-0.1,0.2-0.1,0.3c-0.1,0.6-0.1,1.1-0.2,1.7c0,0,0,0,0,0
				c0,0,0,0,0,0c-0.6,0.8-0.2,1.8-0.3,2.7c-0.5,0.6-0.3,1.4-0.3,2.1c0,0,0,0,0,0c0,0,0,0,0,0c-0.1,0.2-0.1,0.3-0.2,0.5
				c-0.2,1.1-0.2,2.1-0.1,3.2c-0.2,0.6-0.2,1.3,0,1.9c0,0.5,0,1.1,0,1.6c0,0.6-0.2,1.1,0.2,1.6c0,0.7-0.1,1.4,0.3,1.9c0,0,0,0,0,0
				c0,1.7,0.7,3.2,1.4,4.6c3.8,7.8,10.3,11.2,18.7,11.7c0,0,0,0,0,0c0.5,0.1,0.9,0.2,1.4,0.2c5.8,0,11.5,0,17.3,0
				c3.9,0,7.7,0.2,11.6-0.2c0,0,0,0,0,0c3.8,0.1,7.6-0.2,11.5-0.4c3.4-0.2,6.9-0.6,10.3-0.8c1-0.1,1.2-0.4,1.2-1.3
				c0.1-5,0.3-10.1,0.3-15.1c0-1.6,0.5-3.1-0.1-4.7c-0.2-0.3-0.5-0.2-0.8-0.2c0,0-0.1,0-0.1,0c-12.5,0-25-0.1-37.5,0.1
				c-2.2,0-3.8-0.7-5.3-2.2c-0.5-1.4-0.7-2.7-0.4-4.2c0.3-1.3,0.3-2.7,0.4-4.1c0.7-4,1.3-8,1.6-12c0.6-0.3,1.3-0.2,1.9-0.2
				c12.4,0,24.7,0,37.1,0c1.2,0,1.7-0.2,1.8-1.5c0.1-1.9,0.5-3.8,0.7-5.7c0.4-4.2,1.3-8.4,1.4-12.6c-0.3-0.6-0.9-0.3-1.3-0.3
				c-12.8,0-25.6,0-38.4,0c0,0,0,0,0,0c0-0.2-0.1-0.4,0-0.6c0.5-4.3,1.2-8.5,1.6-12.8c0.3-3,1.9-5.1,4.9-5.8c0.5-0.1,1-0.2,1.5-0.4
				c0.3,0,0.6,0,1,0c12.2,0,24.4,0,36.6,0c0.8,0,1.6-0.1,2.4-0.1c0,0,0,0,0,0c0,0,0,0,0,0c0,0,0.1,0,0.1-0.1
				c1.1-6.6,2.3-13.2,3.4-19.8C410.2,34.7,409.9,34.4,409.1,34.3z"/>
			
				<linearGradient id="SVGID_00000175292541079237550850000011837344142249842577_" gradientUnits="userSpaceOnUse" x1="222.3281" y1="86.5577" x2="1176.3706" y2="86.5577">
				<stop  offset="0" style="stop-color:#00A5C4"/>
				<stop  offset="0.9987" style="stop-color:#143759"/>
			</linearGradient>
			<path style="fill:url(#SVGID_00000175292541079237550850000011837344142249842577_);" d="M316.4,35.5c-4.2-1.2-8.5-2.3-12.9-2.8
				c-0.2,0-0.3,0-0.5-0.1c-0.5-0.4-1.1-0.3-1.7-0.3c-0.2,0-0.4,0-0.6-0.1c-0.6-0.4-1.3-0.3-2-0.3c0,0,0,0,0,0c0,0,0,0,0,0
				c-0.3,0-0.6,0-0.9-0.1c-0.8-0.5-1.7-0.3-2.6-0.3c-0.3,0-0.6,0-0.9-0.1c-1.1-0.4-2.2-0.3-3.3-0.3c-0.8,0-1.5-0.4-2.3-0.1
				c-4.8-0.4-9.5-0.3-14.3,0c0,0,0,0,0,0c0,0,0,0,0,0c-0.8-0.2-1.5,0.2-2.3,0.2c-0.9,0-1.8-0.1-2.7,0.3c0,0,0,0,0,0
				c-2-0.1-3.9,0.3-5.8,0.7c-3.9,0.7-7.8,1.5-11.3,3.5c-4.3,2-7.6,5-10,9.1c-4.1,7.1-5.3,14.8-5.1,22.8c0.2,10,5.2,17.1,13.7,22l0,0
				c6.2,3.7,12.9,6.3,19.5,9.2c2.6,1.4,5.4,2.5,8.1,3.7c0.3,0.2,0.6,0.4,0.9,0.5c1.7,1,3.2,2.2,3.4,4.4c0.1,0.8-0.2,1.5-0.2,2.3
				c-0.1,3-1.9,5.3-4.8,6.2c-1.7,0.6-3.4,0.6-5.1,1c-6.3,0-12.6,0-18.8,0l0,0c-1,0-2.1,0-3.1-0.1c0,0,0,0,0,0c0,0,0,0,0,0
				c-2.9-0.4-5.8-0.3-8.8-0.3c-3.2-0.2-6.4-0.4-9.6-0.4c-0.9,0-1.2,0.3-1.3,1.1c-0.8,6.1-1.6,12.3-2.5,18.4c-0.1,0.9,0.1,1.2,1,1.4
				c1,0.1,2.1,0.5,3.1,0.7c3.4,0.6,6.8,1.5,10.3,1.7l0,0c0.2,0.1,0.5,0.2,0.7,0.3c6.8,0.8,13.5,1.7,20.3,1.7h0l0,0
				c0.3,0.1,0.5,0.1,0.8,0.2c5.3,0.3,10.6-0.1,15.9-0.6c2.8-0.2,5.6-0.8,8.3-1.6c6.2-1.2,11.6-3.7,15.7-8.7c1.5-1.9,2.5-4,3.5-6.2
				c1.3-3,2.3-6.1,2.6-9.4c0.4-0.5,0.3-1.1,0.3-1.6c0-0.2,0-0.4,0.1-0.5c0.4-0.6,0.3-1.3,0.3-2c0,0,0,0,0,0c0,0,0,0,0,0
				c0-0.2,0-0.4,0.1-0.5c0.4-0.6,0.3-1.3,0.3-2l0,0c0,0,0,0,0,0c0-0.4,0-0.8,0.1-1.2c0.4-2,0.4-4,0-5.9c0,0,0,0,0,0
				c0-0.2,0-0.4-0.1-0.6c0-0.7,0.2-1.4-0.3-2c0,0,0,0,0,0c-0.7-5.2-3-9.4-6.8-12.9c-2.2-2.1-4.8-3.7-7.4-5.1
				c-2.4-1.4-4.8-2.7-7.5-3.3c-0.6-0.3-1.2-0.6-1.8-1c-0.4-0.4-0.8-0.6-1.4-0.6l0,0c-2.8-1.4-5.7-2.7-8.6-3.8
				c-2.7-1.2-5.3-2.3-8-3.5c-1.7-1.1-3-2.5-3.6-4.5c0-0.6,0-1.3,0-1.9c0,0,0,0,0,0c0,0,0,0,0,0c0.1-0.5,0.3-1,0.4-1.5
				c0.6-3,2.2-5,5.4-5.6c1.2-0.2,2.4-0.4,3.6-0.7c8.5,0,17,0,25.6,0l0,0l0,0h0l0,0c0.6,0,1.3,0,1.9,0l0,0v0c1.2,0,2.3,0,3.5,0.1
				c2.8,0.4,5.6,0.3,8.3,0.3c0.7,0,0.7-0.5,0.6-1c0,0,0,0,0,0c0,0,0,0,0,0c0-0.2,0-0.3,0.1-0.5c0.4-0.5,0.3-1.1,0.3-1.7
				c0-0.2,0-0.4,0.1-0.5c0.4-0.5,0.3-1.1,0.3-1.7c0,0,0,0,0,0c0,0,0,0,0,0c0.1-1,0.3-2,0.4-3c0.4-0.5,0.3-1.2,0.3-1.7
				c0-0.2,0-0.3,0.1-0.5c0.4-0.5,0.3-1.1,0.3-1.7c0-0.2,0-0.4,0.1-0.5c0,0,0,0,0,0c0,0,0,0,0,0c0.4-0.5,0.3-1.1,0.3-1.7l0,0
				c0,0,0,0,0,0c0-0.2,0-0.4,0.1-0.6c0.4-0.5,0.3-1.1,0.3-1.7C318.5,36.1,318.5,36.1,316.4,35.5z M243.8,117.2c0,0,0,0.1,0,0.1
				c0,0-0.1-0.1-0.1-0.1C243.7,117.2,243.8,117.2,243.8,117.2z M287.2,139.2c0,0,0-0.1,0-0.1c0,0,0.1,0.1,0.1,0.1
				C287.3,139.2,287.3,139.3,287.2,139.2z M277.6,31.4C277.6,31.4,277.6,31.4,277.6,31.4C277.6,31.4,277.6,31.4,277.6,31.4
				C277.6,31.4,277.6,31.4,277.6,31.4C277.6,31.4,277.6,31.4,277.6,31.4C277.6,31.4,277.6,31.4,277.6,31.4z M278.2,54.4
				C278.3,54.4,278.3,54.4,278.2,54.4C278.3,54.4,278.3,54.4,278.2,54.4C278.3,54.4,278.3,54.4,278.2,54.4z"/>
			
				<linearGradient id="SVGID_00000152225226276137929430000004278671204337857181_" gradientUnits="userSpaceOnUse" x1="222.3281" y1="86.4658" x2="1176.3706" y2="86.4658">
				<stop  offset="0" style="stop-color:#00A5C4"/>
				<stop  offset="0.9987" style="stop-color:#143759"/>
			</linearGradient>
			<path style="fill:url(#SVGID_00000152225226276137929430000004278671204337857181_);" d="M654.2,33.1c-8.6,0-17.2,0-25.8,0
				c-0.5,0-1.2-0.3-1.6,0.3l0,0l0,0l0,0h0c-0.5,1.1-0.5,2.3-0.6,3.5c-0.6,3.4-1.1,6.8-1.4,10.2c-0.3,0.4-0.2,0.9-0.2,1.3h0
				c-0.2,1.3-0.4,2.6-0.6,3.8c0,0.4-0.1,0.8-0.1,1.3c-0.1,0.1-0.1,0.2-0.1,0.3c-0.3,0.4-0.3,0.8-0.2,1.3c-0.1,0.5-0.2,1.1-0.3,1.6
				c0,0.2,0,0.4,0,0.7c-0.6,3.8-1.1,7.6-1.7,11.3c-0.8,5.7-1.6,11.3-2.4,17c-0.9,6.5-1.8,12.9-2.7,19.4c-0.8,5.7-1.6,11.3-2.4,17
				c-0.8,5.6-1.6,11.1-2.4,16.7c-0.1,0.7,0,1.2,1,1.2c4.4-0.1,8.7-0.1,13.1-0.1c4.7,0,9.5,0,14.2,0.1c0.5,0,1,0,1-0.7
				c0-0.5,0.1-1.1,0.1-1.6l0,0c0,0,0,0,0,0c0.1-0.1,0.1-0.2,0-0.2c0.4-0.6,0.3-1.3,0.3-2c0,0,0,0,0,0c0,0,0,0,0,0
				c0.1-0.2,0.1-0.4,0.2-0.6c0-0.5,0.1-1.1,0.1-1.6c0,0,0,0,0,0c0,0,0,0,0,0c0-0.2,0-0.3,0-0.5c0,0,0,0,0,0c0,0,0,0,0,0
				c0.5-0.5,0.3-1.2,0.3-1.8c0,0,0,0,0,0c0-0.2,0-0.3,0-0.5c0.5-0.5,0.3-1.2,0.3-1.8c0,0,0,0,0,0c0,0,0,0,0,0c0-0.2,0-0.3,0-0.5
				c0.4-0.5,0.3-1.2,0.3-1.8c0,0,0,0,0,0c0,0,0,0,0,0c0-0.2,0-0.4,0-0.5c0,0,0,0,0,0c0,0,0,0,0,0c0.5-0.5,0.3-1.1,0.3-1.7h0l0,0
				c0-0.2,0-0.4,0-0.5c0.5-0.6,0.3-1.3,0.3-2c0,0,0,0,0,0c0,0,0,0,0,0c0.5-0.9,0.4-1.8,0.4-2.8c0.5-0.5,0.3-1.1,0.3-1.7c0,0,0,0,0,0
				c0,0,0,0,0,0c0-0.2,0-0.4,0-0.5c0,0,0,0,0,0c0,0,0,0,0,0c0.5-0.5,0.3-1.1,0.3-1.7c0,0,0,0,0,0c0,0,0,0,0,0c0-0.2,0-0.4,0-0.5
				c0.4-0.6,0.5-1.2,0-1.8v0c0,0,0,0,0,0c0.1-0.1,0.2-0.2,0.3-0.4c0,0,0,0,0,0c0,0,0,0,0,0c0.5-0.5,0.3-1.2,0.3-1.8c0,0,0,0,0,0
				c0,0,0,0,0,0c0-0.2,0-0.3,0-0.5c0.5-0.5,0.3-1.2,0.3-1.8l0,0c0,0,0,0,0,0c0-0.1,0-0.2,0-0.3c0.1-0.1,0.1-0.1,0-0.2
				c0.5-0.5,0.3-1.1,0.3-1.7c0,0,0,0,0,0c0-0.1,0-0.2,0-0.3c0.1-0.1,0.1-0.1,0-0.2c0.5-0.5,0.3-1.1,0.3-1.7l0,0c0,0,0,0,0,0
				c0-0.2,0-0.4,0.1-0.6c0,0,0,0,0,0c0,0,0,0,0,0c0.5-0.6,0.3-1.3,0.3-2c0,0,0,0,0,0c0,0,0,0,0,0c0.1-0.1,0.1-0.1,0-0.2
				c0.4-0.5,0.3-1.1,0.3-1.7c0,0,0,0,0,0c0,0,0,0,0,0c0-0.3,0-0.6,0.1-0.9c0.5-0.5,0.3-1.1,0.3-1.7c0.1-0.1,0.1-0.2,0-0.3
				c0.4-0.6,0.3-1.3,0.3-2c0,0,0,0,0,0c0,0,0,0,0,0c0-0.2,0-0.4,0-0.5c0.5-0.5,0.3-1.1,0.3-1.7l0,0c0,0,0,0,0,0c0-0.2,0-0.4,0-0.6
				c0.6-0.4,0.3-1.1,0.4-1.6c0,0,0,0,0,0c0,0,0,0,0,0c0-0.2,0-0.3,0-0.5c0.5-0.5,0.3-1.2,0.3-1.8c0,0,0,0,0,0c0,0,0,0,0,0
				c0-0.2,0-0.4,0-0.5c0.5-0.5,0.3-1.1,0.3-1.7c0,0,0,0,0,0c0,0,0,0,0,0c0-0.2,0-0.4,0-0.5c0.5-0.5,0.3-1.1,0.3-1.7c0,0,0,0,0,0
				c0,0,0,0,0,0c0-0.2,0-0.4,0-0.5c0.5-0.6,0.3-1.3,0.3-2c0,0,0,0,0,0c0,0,0,0,0,0c0.6-0.9,0.2-1.9,0.5-2.9c0,0,0,0,0,0c0,0,0,0,0,0
				c0-0.5,0.1-1.1,0.1-1.6l0,0c0,0,0,0,0,0c0.1-0.1,0.1-0.2,0-0.2c0.4-0.6,0.3-1.3,0.3-2c0,0,0,0,0,0c0,0,0,0,0,0
				c0.1-0.2,0.1-0.4,0.2-0.6c0.2-0.5,0.2-1.1,0.1-1.6c0,0,0,0,0,0c0-0.2,0-0.3,0-0.5c0.5-0.5,0.3-1.2,0.3-1.8l0,0c0,0,0,0,0,0
				c0-0.2,0-0.3,0-0.5c0.4-0.5,0.3-1.2,0.3-1.8l0,0c0,0,0,0,0,0c0-0.2,0-0.4,0-0.5c0.5-0.5,0.3-1.1,0.3-1.7l0,0c0,0,0,0,0,0
				c0-0.2,0-0.4,0-0.5c0.5-0.5,0.3-1.1,0.3-1.7c0,0,0,0,0,0c0,0,0,0,0,0c0.1-0.3,0.1-0.6,0.2-1c0-0.5,0.1-1.1,0.1-1.6l0,0
				c0,0,0,0,0,0c0.1-0.2,0.1-0.4,0.2-0.6l0,0c0-0.5,0.1-1.1,0.1-1.6c0,0,0,0,0,0c0,0,0,0,0,0c0.1-0.1,0.1-0.1,0-0.2
				c0.5-0.6,0.3-1.3,0.3-2c0,0,0,0,0,0c0,0,0,0,0,0c0.1-0.2,0.1-0.4,0.2-0.7c0-0.5,0.1-1.1,0.1-1.6c0,0,0,0,0,0c0,0,0,0,0,0
				c0.1-0.1,0.1-0.1,0-0.2c0.4-0.6,0.3-1.3,0.3-2c0-0.2,0-0.3,0-0.5c0.5-0.5,0.3-1.2,0.3-1.8c0,0,0,0,0,0c0,0,0,0,0,0
				c0-0.2,0-0.3,0.1-0.5c0.5-0.5,0.3-1.2,0.3-1.8l0,0c0,0,0,0,0,0c0-0.2,0-0.4,0-0.5c0.5-0.5,0.3-1.1,0.3-1.7c0,0,0,0,0,0
				c0,0,0,0,0,0c0-0.2,0-0.4,0-0.5c0.5-0.5,0.3-1.1,0.3-1.7c0,0,0,0,0,0c0,0,0,0,0,0c0-0.2,0-0.4,0-0.5c0.5-0.6,0.3-1.3,0.3-2
				c0,0,0,0,0,0c0,0,0,0,0,0c0.1-0.2,0.1-0.4,0.2-0.6c0,0,0,0,0,0c0-0.5,0.1-1.1,0.1-1.6c0,0,0,0,0,0c0,0,0,0,0,0
				c0.1-0.1,0.1-0.1,0-0.2c0.5-0.6,0.3-1.3,0.3-2l0,0c0,0,0,0,0,0c0.1-0.1,0.1-0.2,0-0.2C656.1,33.1,656.1,33.1,654.2,33.1z"/>
			
				<linearGradient id="SVGID_00000152969540876714632130000005135360476469680539_" gradientUnits="userSpaceOnUse" x1="761.2349" y1="111.967" x2="1024.6765" y2="111.967">
				<stop  offset="0" style="stop-color:#00A5C4"/>
				<stop  offset="0.9987" style="stop-color:#143759"/>
			</linearGradient>
			<path style="fill:url(#SVGID_00000152969540876714632130000005135360476469680539_);" d="M893,112c0-0.1,0-0.1,0-0.2
				C893,111.9,893,112,893,112z"/>
			
				<linearGradient id="SVGID_00000013873135644934304020000007310142785484525995_" gradientUnits="userSpaceOnUse" x1="222.3281" y1="85.7231" x2="1176.3706" y2="85.7231">
				<stop  offset="0" style="stop-color:#00A5C4"/>
				<stop  offset="0.9987" style="stop-color:#143759"/>
			</linearGradient>
			<path style="fill:url(#SVGID_00000013873135644934304020000007310142785484525995_);" d="M507.2,54.2L507.2,54.2L507.2,54.2
				c-0.1-0.6-0.3-1.1-0.4-1.7C505.6,43.4,500,38,491.7,35c0,0,0,0,0,0c0,0,0,0,0,0c-6.1-2.3-12.4-3.2-18.9-3.2l0,0
				c-0.3-0.1-0.5-0.2-0.8-0.2c-4.3,0-8.5-0.1-12.8,0c-2.3,0.1-4.7-0.2-7,0.2c0,0,0,0,0,0c-1.6,0-3.2,0-4.8,0.1c-2,0-4-0.2-6,0.2
				c0,0,0,0,0,0c0,0,0,0,0,0c-1.8,0.1-3.6,0.2-5.5,0.3l0,0c-0.7,0.1-1.3,0.2-2,0.2c-0.8,0-1.6-0.2-2.4,0.2c0,0,0,0,0,0c0,0,0,0,0,0
				c-0.4-0.3-0.8,0.1-1.1,0.1c-0.6,0-1.2,0-1.8,0.1c0,0,0,0,0,0c-0.5,0.1-1,0.2-1.4,0.2c-0.8-0.1-1.1,0.3-1.2,1.1
				c-0.1,0.9-0.2,1.8-0.3,2.7c-0.8,5.7-1.6,11.4-2.4,17.2c-0.8,5.7-1.6,11.3-2.4,17c-0.8,5.7-1.6,11.4-2.4,17.2
				c-0.8,5.7-1.6,11.3-2.4,17c-0.8,5.7-1.6,11.3-2.4,17c-0.8,5.6-1.6,11.1-2.4,16.7c-0.1,0.8,0,1.2,1,1.2c7.9-0.1,15.8-0.1,23.7-0.1
				c0.9,0,1.8,0,2.7,0.1c0.9,0,1.3-0.4,1.2-1.2c0.4-0.5,0.3-1.1,0.3-1.7c0-0.2,0-0.4,0.1-0.5c0.4-0.5,0.3-1.1,0.3-1.7
				c0-0.2,0-0.4,0.1-0.5c0.4-0.5,0.3-1.1,0.3-1.7c0-0.2,0-0.4,0.1-0.5c0.4-0.5,0.3-1.1,0.3-1.7l0,0c0,0,0,0,0,0c0-0.2,0-0.4,0.1-0.5
				c0.4-0.5,0.3-1.1,0.3-1.7c0-0.2,0-0.4,0.1-0.5c0.4-0.5,0.3-1.1,0.3-1.7c0-0.2,0-0.4,0.1-0.5c0,0,0,0,0,0c0.4-0.5,0.3-1.1,0.3-1.7
				c0-0.2,0-0.4,0.1-0.5c0.4-0.5,0.3-1.1,0.3-1.7c0-0.2,0-0.4,0.1-0.5c0.4-0.5,0.3-1.1,0.3-1.7l0,0c0,0,0,0,0,0c0-0.2,0-0.4,0.1-0.6
				c0.4-0.5,0.3-1.1,0.3-1.7l0,0c0,0,0,0,0,0c0-0.2,0-0.4,0.1-0.5c0.4-0.5,0.3-1.1,0.3-1.7l0,0c0,0,0,0,0,0c0-0.2,0-0.4,0.1-0.5
				c0.4-0.5,0.3-1.1,0.3-1.7l0,0c0,0,0,0,0,0c0-0.2,0-0.4,0.1-0.6c0.4-0.5,0.3-1.1,0.3-1.7l0,0c0,0,0,0,0,0c0-0.2,0-0.4,0.1-0.6
				c0.4-0.5,0.3-1.1,0.3-1.7l0,0c0,0,0,0,0,0c0-0.2,0-0.4,0.1-0.6c0.4-0.5,0.3-1.1,0.3-1.7l0,0c0,0,0,0,0,0c0-0.2,0-0.4,0.1-0.6
				c0.4-0.5,0.3-1.1,0.3-1.7c0,0,0,0,0,0c0-0.2,0-0.4,0.1-0.6c0,0,0,0,0,0c0.4-0.5,0.3-1.1,0.3-1.7c0-0.2,0-0.4,0.1-0.6
				c0.2-0.7,0.8-0.7,1.4-0.7c4.8,0,9.7,0,14.5,0c3.2,0,5,1.5,5.5,4.6c0.5,3,0.7,6,1.1,9c0.6,5.2,1.2,10.4,1.8,15.6
				c0.4,3.2,0.7,6.3,1,9.5c0.1,0.7,0.2,1.3,1.2,1.3c2.3-0.1,4.7-0.1,7-0.1c6.8,0,13.7,0,20.5,0.1c1.5,0,1.7-0.5,1.2-1.7
				c0.1-0.6,0.1-1.2-0.3-1.7c0,0,0,0,0,0c0-0.2,0-0.4-0.1-0.5c0.1-0.6,0.1-1.2-0.3-1.7c0,0,0,0,0,0c0-0.2,0-0.4-0.1-0.5
				c0.1-0.6,0.1-1.2-0.3-1.7c0,0,0,0,0,0c0-0.2,0-0.4-0.1-0.5c0.1-0.6,0.1-1.2-0.3-1.7c0,0,0,0,0,0c0-0.2,0-0.4-0.1-0.5
				c0.1-0.6,0.1-1.2-0.3-1.7c0,0,0,0,0,0c0-0.2,0-0.4-0.1-0.5c0.1-0.6,0.1-1.2-0.3-1.7c0,0,0,0,0,0c0-0.2,0-0.4-0.1-0.5
				c0.1-0.6,0.1-1.2-0.3-1.7c0,0,0,0,0,0c0-0.2,0-0.4-0.1-0.5c0.1-0.6,0.1-1.2-0.3-1.7c0,0,0,0,0,0c0-0.2,0-0.4-0.1-0.5
				c0.1-0.6,0.1-1.2-0.3-1.7c0,0,0,0,0,0c0-0.2,0-0.4-0.1-0.5c0.1-0.6,0.1-1.2-0.3-1.7c0,0,0,0,0,0c0-0.2,0-0.4-0.1-0.5c0,0,0,0,0,0
				c0.1-0.6,0.1-1.2-0.3-1.7c0,0,0,0,0,0c0-0.2,0-0.4-0.1-0.5c0.1-0.6,0.1-1.2-0.3-1.7c0,0,0,0,0,0c0-0.2,0-0.4-0.1-0.5
				c0.1-0.6,0.1-1.2-0.3-1.7c0,0,0,0,0,0c0-0.2,0-0.4-0.1-0.5c0.1-0.6,0.1-1.2-0.3-1.7c0,0,0,0,0,0c0-0.1,0-0.2,0-0.2
				c0-0.6,0.2-1.2-0.3-1.7c0,0,0,0,0,0c-0.9-6.8-4.3-12.8-11.8-14.7c-0.3-0.1-1.2,0.2-1.1-0.7c0.1-0.7,0.7-0.4,1.2-0.5
				c2.8-0.6,5.6-0.9,8.2-2.2c0.2,0,0.4-0.1,0.6-0.1c9.3-4.2,12.6-12.4,13.8-21.8c0.5-0.6,0.3-1.4,0.3-2.1c0.1-0.3,0.1-0.7,0.2-1
				c0.2-1.3,0.2-2.5,0.1-3.8c0-0.3,0-0.7,0-1C507.4,56.5,507.5,55.3,507.2,54.2z M471.4,76.2c-1.4,0.8-3,1.1-4.6,1.3
				c-3,0.5-6,0.4-9.1,0.4c-0.7,0-1.5-0.2-2.1,0.4c0,0,0,0,0,0c-1.5-0.6-3-0.2-4.5-0.3c-0.7-0.1-1.5,0.2-2.1-0.5
				c-0.3-0.5-0.2-1.1,0-1.6c0.1-0.2,0.1-0.5,0.1-0.7c0-0.6,0-1.2,0.2-1.8c0.1-0.2,0.1-0.5,0.1-0.7c0-0.5,0-1.1,0.2-1.6
				c0.1-0.2,0.1-0.4,0.1-0.7c0-0.5,0-1.1,0.2-1.6c0.1-0.2,0.1-0.4,0.1-0.7c0-0.5,0-1.1,0.2-1.6c0.1-0.2,0.1-0.4,0.1-0.7
				c0-0.6,0-1.2,0.2-1.8c0-0.1,0.1-0.3,0.1-0.4c0.1-0.5,0.1-1.1,0.2-1.6c0.1-0.2,0.1-0.5,0.1-0.7c0-0.6,0-1.2,0.2-1.8
				c0.1-0.2,0.1-0.5,0.1-0.7c0-0.5,0-1.1,0.2-1.6c0.1-0.2,0.1-0.5,0.1-0.7c0-0.6,0.1-1.1,0.2-1.7c0.1-0.5,0.2-0.9,0.4-1.4
				c3.8,0.2,7.6,0.2,11.4-0.1c1.8-0.1,3.5-0.2,5.2,0c1.1,0.1,2.2,0.4,3.3-0.1c0.4,0.5,1.1,0.6,1.7,0.9c2,0.8,3.2,2.2,3.5,4.4
				c0.5,2.9-0.1,5.7-0.6,8.5c-0.5,2.8-1.3,5.5-3.4,7.6c-0.3,0.3-0.5,0.7-0.5,1.1C472.4,75.7,471.9,76,471.4,76.2z"/>
			
				<linearGradient id="SVGID_00000034073576199241546210000004076168776298681735_" gradientUnits="userSpaceOnUse" x1="222.3281" y1="86.5885" x2="1176.3706" y2="86.5885">
				<stop  offset="0" style="stop-color:#00A5C4"/>
				<stop  offset="0.9987" style="stop-color:#143759"/>
			</linearGradient>
			<path style="fill:url(#SVGID_00000034073576199241546210000004076168776298681735_);" d="M839.5,35.9L839.5,35.9
				C839.5,35.9,839.5,35.9,839.5,35.9c0.2-0.7,0.8-1.5-0.6-1.6c-4.8-0.5-9.6-1-14.5-1.2c-1.4-0.2-2.7-0.2-4.1-0.1
				c-0.8,0-1.7,0-2.5-0.1c0,0,0,0,0,0l0,0c-1-0.3-2-0.1-3-0.1c-4.9-0.3-9.8-0.2-14.7-0.1l0,0c-2.2,0-4.5,0-6.7,0
				c-2.9,0-5.9-0.2-8.8,0c-4.1,0.3-8.1,1.2-11.7,3.5c-6.9,4.1-10.2,10.4-11.5,18c-0.9,5.6-1.6,11.2-2.4,16.9
				c-0.9,6.6-1.9,13.2-2.8,19.9c-0.8,5.7-1.6,11.5-2.4,17.2c-0.7,4.9-1.4,9.9-0.5,14.9c1.8,9.9,9,16.6,20.2,17.1
				c0.3,0.2,0.6,0.2,1,0.2c4.1,0.3,8.3,0.1,12.4,0.1c1.8,0,3.6,0,5.5,0c3.9,0,7.7,0.2,11.6-0.2c0,0,0,0,0,0c2.8-0.1,5.5,0.2,8.2-0.4
				c3,0.3,5.9-0.4,8.8-0.4c1.6,0,3.2-0.3,4.9-0.5c0.5,0,0.8-0.1,0.8-0.7c-0.1-1.4,0.4-2.7,0.1-4.1c0-2,0.1-4.1,0.1-6.1c0,0,0,0,0,0
				c0,0,0,0,0,0c0-0.7,0-1.4,0-2.1c0.5-1.8,0.3-3.7,0.3-5.5c-0.1-0.9,0.4-1.8-0.3-2.6c0,0,0,0,0,0l0,0c0,0,0,0,0,0c0,0,0,0,0,0
				c-2.9-0.3-5.8-0.1-8.8-0.1c-9.7,0-19.4,0-29.1,0c-2.7,0-5.2-0.4-6.4-3.3c0-1,0-1.9,0-2.9c0,0,0,0,0,0c0,0,0,0,0,0
				c0.6-1.8,0.5-3.6,0.9-5.4c0-0.5,0.1-1.1,0.1-1.6l0,0c0,0,0,0,0,0c0.1-0.2,0.1-0.4,0.2-0.7c0,0,0,0,0,0c0,0,0,0,0,0
				c0.2-0.5,0.2-1,0.1-1.6c0,0,0,0,0,0c0.1-0.3,0.2-0.6,0.2-1c0-0.5,0.1-1.1,0.1-1.6l0,0c0,0,0,0,0,0c0.1-0.2,0.1-0.4,0.2-0.7
				c0-0.5,0.1-1.1,0.1-1.6c0,0,0,0,0,0c0,0,0,0,0,0c0.3-0.7,0.4-1.5,0.4-2.2c3,0,6.1,0,9.1,0c9.9,0,19.9,0,29.8,0
				c0.7,0,1.6,0.4,1.6-0.9c0-0.5,0.1-1.1,0.1-1.6c0,0,0,0,0,0c0,0,0,0,0,0c0.1-0.2,0.1-0.4,0.2-0.6c0-0.5,0.1-1.1,0.1-1.6
				c0,0,0,0,0,0c0,0,0,0,0,0c0.1-0.3,0.1-0.7,0.2-1c0-0.6,0.1-1.3,0.1-1.9c0,0,0,0,0,0c0,0,0,0,0,0c0.1-0.2,0.1-0.4,0.2-0.6
				c0-0.5,0.1-1.1,0.1-1.6c0,0,0,0,0,0c0,0,0,0,0,0c0.1-0.3,0.1-0.6,0.2-1c0-0.5,0.1-1.1,0.1-1.6c0,0,0,0,0,0c0,0,0,0,0,0
				c0.5-1.1,0.3-2.4,0.5-3.5c0-0.5,0.1-1.1,0.1-1.6c0,0,0,0,0,0c0-0.2,0-0.4,0-0.6c0.6-2,0.6-2-1.3-2c-12.3,0-24.6,0-36.8,0
				c-0.5,0-1.2,0.3-1.6-0.3c0,0,0,0,0,0c0.5-3.6,1-7.2,1.5-10.9c0,0,0,0,0,0c0-0.5,0.1-1.1,0.1-1.6c0,0,0,0,0,0c0,0,0,0,0,0
				c0.3-2.7,1.3-4.8,3.8-6.1c1.2-0.2,2.4-0.5,3.5-0.7c12.9,0,25.7,0,38.6,0c0.3,0,0.7,0.1,0.8-0.3c0,0,0,0,0,0c0,0,0,0,0,0
				c0.2-1.1,0.4-2.1,0.6-3.2c0.8-4.8,1.5-9.6,2.3-14.3c0,0,0,0,0,0C839.6,37.1,839.5,36.5,839.5,35.9z M793.1,75.3
				c-0.1,0-0.1-0.1-0.2-0.1C793,75.3,793.1,75.3,793.1,75.3C793.1,75.3,793.1,75.3,793.1,75.3z"/>
		</g>
		
			<linearGradient id="SVGID_00000051361672796257723010000008969493146094528950_" gradientUnits="userSpaceOnUse" x1="11.7045" y1="129.3252" x2="177.7664" y2="129.3252">
			<stop  offset="0" style="stop-color:#FFFFFF"/>
			<stop  offset="0.9987" style="stop-color:#0EACCA"/>
		</linearGradient>
		<path style="fill:url(#SVGID_00000051361672796257723010000008969493146094528950_);" d="M174.6,123.2
			C174.6,123.2,174.6,123.2,174.6,123.2c-0.9-0.9-2-1.4-3.2-1.5c-0.3,0-0.6,0-0.9-0.1c-0.6-0.2-1.2-0.1-1.8-0.1
			c-0.1,0-0.2,0.1-0.3,0.1c-0.9,0-1.9,0-2.8,0c0,0,0,0,0,0c-0.5,0-1.1,0-1.6,0c-0.7,0-1.5,0-2.2,0c-0.3,0-0.6,0-1,0
			c-0.9,0-1.7,0-2.6,0c-0.3,0-0.6,0-1,0c-0.5,0-1.1,0-1.6,0c0,0,0,0,0,0c-1.2,0-2.4,0-3.5,0l0,0c0,0,0,0,0,0c0,0,0,0,0,0
			c-1.1,0-2.1,0-3.2,0c0,0,0,0,0,0c-0.2,0-0.4,0-0.6,0c-1,0-1.9,0-2.9,0c0,0,0,0,0,0c-0.1,0-0.2,0-0.3,0c0-0.1,0-0.2,0-0.3
			c-7,0-14.1,0-21.1,0c0,0,0,0,0,0c-11.7,0-23.5,0-35.2,0c0,0,0,0,0,0c-7.9,0-15.8,0-23.7,0c-1,0.5-2.2-0.2-3.2,0.4c0,0,0,0,0,0
			c-1.6,0-3.2,0-4.8,0c-1.3,0-2.6,0-3.8,0c0-0.1,0.1-0.2,0-0.3c-3.4,0-6.8,0-10.2,0c-5.3,0-10.7,0-16,0c-1.8,0-3.5-0.1-5.3,0
			c-2.8,0.1-5.6-0.3-8.4,0.2c-1.3,0.2-1.7,0.8-1.7,2c0,3.5,0,7,0,10.5c0,2.7,0,2.7,2.6,3.2c0.5,0.1,1,0.1,1.4,0.1
			c3.8,0,7.6,0,11.3,0c5.3,0,10.7,0,16,0c3.4,0,6.8,0,10.2,0v0c3.9,0,7.9,0,11.8,0c0,0,0,0,0,0c0,0,0,0,0,0c7.9,0,15.8,0,23.7,0
			c0,0,0,0,0,0c11.7,0,23.5,0,35.2,0c15.3,0,30.5,0,45.8,0.1c0.5,0,1.1,0.1,1.5-0.3c0-0.1-0.1-0.1-0.1-0.2c0,0,0.1,0,0.1,0
			c0,0.1,0,0.1,0,0.2c1.2-0.3,2.4-0.6,3.2-1.6C178.8,131.5,178.8,126.5,174.6,123.2z M62,137C62,137,62,137,62,137
			C62,137,62,137,62,137C62,137,62,137,62,137z M171.4,136.9C171.4,136.9,171.4,136.9,171.4,136.9L171.4,136.9
			C171.4,136.9,171.4,136.9,171.4,136.9z"/>
		
			<linearGradient id="SVGID_00000063630440677316463060000000006714496236981951_" gradientUnits="userSpaceOnUse" x1="22.9106" y1="70.1322" x2="189.0182" y2="70.1322">
			<stop  offset="0" style="stop-color:#FFFFFF"/>
			<stop  offset="0.9987" style="stop-color:#F29907"/>
		</linearGradient>
		<path style="fill:url(#SVGID_00000063630440677316463060000000006714496236981951_);" d="M185.5,63.7c-0.9-0.8-2-1.2-3.2-1.3
			c-0.4-0.1-0.7-0.2-1.1,0.1c-0.2,0-0.4,0-0.6,0c0-0.1,0-0.2,0-0.2c-1.5,0-3,0-4.5,0l0,0v0c-1.2,0-2.3,0-3.5,0v0c-1.4,0-2.8,0-4.2,0
			c-1.3,0-2.6,0-3.8,0v0c-1.6,0-3.2,0-4.8,0c0,0.1,0,0.2,0,0.2c-0.1,0-0.1-0.1-0.2-0.1c-1,0.1-2-0.3-3,0.2c0,0,0,0,0,0
			c-0.6,0-1.3,0-1.9,0c0-0.1,0-0.2,0-0.3c-6.9,0-13.9,0-20.8,0c0,0,0,0,0,0c0,0,0,0,0,0c-9.8,0-19.6,0-29.4,0c0,0,0,0,0,0
			c-7.1,0-14.3,0-21.4,0c-6,0-11.9,0-17.9,0c-2.6,0-5.1,0-7.7,0v0c-3.2,0-6.4,0-9.6,0c-2.9,0-5.8,0-8.6,0c-4.8,0.1-9.5-0.2-14.3,0.3
			c-1.1,0.1-2,0.3-2,1.7c0,4,0,8.1,0,12.1c0,1.2,0.5,1.9,1.9,1.9c3.7-0.1,7.4,0,11.2,0c3.9,0,7.9,0,11.8,0c2.7,0,5.3,0,8,0
			c3.2,0,6.4,0,9.6,0c0.1-0.1,0-0.2,0-0.3c1,0,1.9,0,2.9,0c1.9,0,3.8,0,5.8,0c0.9,0,1.7,0,2.6,0c1,0,2.1,0,3.1,0c0,0,0,0,0,0.1
			c1.7,0.2,3.4,0.2,5.2,0c0,0,0,0,0-0.1c1.6,0,3.2,0,4.7,0c0.6,0,1.3,0,1.9,0c1.7,0,3.4,0,5.1,0c1.6,0,3.2,0,4.8,0
			c1.9,0,3.8,0,5.8,0v0c1.5,0,3,0,4.5,0c1.3,0,2.6,0,3.8,0c0,0,0,0,0,0c0.9,0.5,2-0.1,2.9,0.3c10.2,0,20.4,0,30.6,0
			c3.5,0,6.9,0,10.4-0.1c0,0,0,0,0,0c7.2,0,14.4,0,21.6,0c0.5,0,1.1,0.1,1.5-0.3c0,0,0,0,0,0c1.1-0.1,2.1-0.5,2.9-1.3
			c0.1-0.1,0.2-0.3,0.3-0.3C190.1,73.8,190.1,66.3,185.5,63.7z M57.5,62.5C57.5,62.5,57.5,62.5,57.5,62.5
			C57.5,62.5,57.5,62.5,57.5,62.5C57.5,62.5,57.4,62.5,57.5,62.5c0-0.1,0-0.2,0-0.3C57.5,62.2,57.5,62.3,57.5,62.5L57.5,62.5z
			 M130.3,62.4c-0.1,0-0.1,0-0.2,0.1c0,0,0,0,0-0.1C130.2,62.4,130.2,62.4,130.3,62.4z M115.7,62.5
			C115.7,62.5,115.7,62.5,115.7,62.5C115.7,62.5,115.7,62.5,115.7,62.5C115.7,62.5,115.7,62.5,115.7,62.5z"/>
	</g>
</g>
</svg>
