<?xml version="1.0" encoding="utf-8"?>
<!-- Generator: Adobe Illustrator 19.2.0, SVG Export Plug-In . SVG Version: 6.00 Build 0)  -->
<svg version="1.1" id="Layer_1" xmlns="http://www.w3.org/2000/svg" xmlns:xlink="http://www.w3.org/1999/xlink" x="0px" y="0px"
	 viewBox="0 0 426.5 297.7" style="enable-background:new 0 0 426.5 297.7;" xml:space="preserve">
<style type="text/css">
	.st0{fill:#282828;}
</style>
<g>
	<path class="st0" d="M14.3,254c-4.3,0-7.9,2.6-9.7,5.3v-19.1H1.2v45.6h3.4v-4.6c1.8,2.7,5.4,5.3,9.7,5.3c9.2,0,13.6-7.6,13.6-16.2
		C27.9,261.6,23.5,254,14.3,254z M14.1,283.2c-3.8,0-7.3-2.2-9.4-6.2v-13.6c2.1-4,5.6-6.2,9.4-6.2c6.5,0,10.4,5.5,10.4,13
		C24.4,277.7,20.6,283.2,14.1,283.2z"/>
	<path class="st0" d="M47.2,254c-8.5,0-13.7,6.9-13.7,16.2c0,9.7,5.6,16.2,13.8,16.2c6.5,0,10.9-3.9,12.1-9.7H56
		c-1,4.1-4.3,6.6-8.7,6.6c-6,0-10.3-4.9-10.4-12.8h22.9v-1.3C59.9,260.4,55.5,254,47.2,254z M37.1,267.8c0.7-6.5,4.6-10.7,10.2-10.7
		c6.2,0,8.9,5.2,9.1,10.7H37.1z"/>
	<polygon class="st0" points="77.3,281 67.1,254.7 63.4,254.7 75.6,285.4 70.5,297.7 74,297.7 91.1,254.7 87.6,254.7 	"/>
	<path class="st0" d="M108.4,254c-8.2,0-13.7,6.6-13.7,16.2c0,9.6,5.5,16.2,13.7,16.2c8.3,0,13.8-6.6,13.8-16.2
		C122.3,260.6,116.7,254,108.4,254z M108.4,283.4c-6.2,0-10.2-5.3-10.2-13.1c0-7.9,4.1-13.1,10.2-13.1c6.2,0,10.3,5.3,10.3,13.1
		C118.8,278.1,114.7,283.4,108.4,283.4z"/>
	<path class="st0" d="M143.4,254c-4.4,0-8.1,2.7-10,5.6v-5H130v31.1h3.5V264c1.5-3.7,5-6.7,9.3-6.7c5.5,0,8,3.6,8,8.4v20.1h3.4
		v-20.6C154.2,258.6,150.5,254,143.4,254z"/>
	<path class="st0" d="M184.9,259.3c-1.8-2.7-5.4-5.3-9.7-5.3c-9.2,0-13.6,7.6-13.6,16.2c0,8.6,4.4,16.2,13.6,16.2
		c4.3,0,7.9-2.6,9.7-5.3v4.6h3.4v-45.6h-3.4V259.3z M184.9,277c-2.1,4-5.6,6.2-9.4,6.2c-6.5,0-10.4-5.5-10.4-13
		c0-7.5,3.9-13,10.4-13c3.8,0,7.3,2.2,9.4,6.2V277z"/>
	<path class="st0" d="M215.5,249.1v5.6h-5v3h5v28.1h3.4v-28.1h7.3v-3h-7.3v-5.3c0-4.3,2.4-6.7,5.7-6.7c1.2,0,2.2,0.3,3.2,0.8v-3.2
		c-1.1-0.4-2.2-0.6-3.5-0.6C219.2,239.6,215.5,243.4,215.5,249.1z"/>
	<path class="st0" d="M235.4,259.7v-5h-3.5v31.1h3.5v-21.7c1.5-4,4.5-6.7,8.3-6.7c1.1,0,2,0.2,2.9,0.6v-3.4
		c-0.7-0.2-1.5-0.4-2.7-0.4C240,254,236.8,256.6,235.4,259.7z"/>
	<path class="st0" d="M263.8,254c-8.2,0-13.7,6.6-13.7,16.2c0,9.6,5.5,16.2,13.7,16.2c8.3,0,13.8-6.6,13.8-16.2
		C277.6,260.6,272,254,263.8,254z M263.8,283.4c-6.2,0-10.2-5.3-10.2-13.1c0-7.9,4.1-13.1,10.2-13.1c6.2,0,10.3,5.3,10.3,13.1
		C274.1,278.1,270,283.4,263.8,283.4z"/>
	<path class="st0" d="M298.8,254c-4.4,0-8.1,2.7-10,5.6v-5h-3.5v31.1h3.5V264c1.5-3.7,5-6.7,9.3-6.7c5.5,0,8,3.6,8,8.4v20.1h3.4
		v-20.6C309.6,258.6,305.8,254,298.8,254z"/>
	<path class="st0" d="M324,278.2v-20.5h8.1v-3H324v-8h-3.4v8h-5.3v3h5.3v20.9c0,5.3,3,7.9,7.6,7.9c1.7,0,3.4-0.4,4.6-1.1v-3.3
		c-1.2,0.7-2.7,1.2-4.3,1.2C325.5,283.3,324,281.7,324,278.2z"/>
	<path class="st0" d="M341.7,242.8c-1.3,0-2.4,1.1-2.4,2.4c0,1.3,1.1,2.4,2.4,2.4c1.3,0,2.4-1.1,2.4-2.4
		C344.1,243.9,343.1,242.8,341.7,242.8z"/>
	<rect x="340" y="254.7" class="st0" width="3.5" height="31.1"/>
	<path class="st0" d="M365,254c-8.5,0-13.7,6.9-13.7,16.2c0,9.7,5.6,16.2,13.8,16.2c6.5,0,10.9-3.9,12.1-9.7h-3.4
		c-1,4.1-4.3,6.6-8.7,6.6c-6,0-10.3-4.9-10.4-12.8h22.9v-1.3C377.6,260.4,373.2,254,365,254z M354.8,267.8
		c0.7-6.5,4.6-10.7,10.2-10.7c6.2,0,8.9,5.2,9.1,10.7H354.8z"/>
	<path class="st0" d="M388.7,259.7v-5h-3.5v31.1h3.5v-21.7c1.5-4,4.5-6.7,8.3-6.7c1.1,0,2,0.2,2.9,0.6v-3.4
		c-0.7-0.2-1.5-0.4-2.7-0.4C393.3,254,390.1,256.6,388.7,259.7z"/>
	<path class="st0" d="M418.7,269.1l-5.5-1.5c-3.7-1.1-5.6-2.1-5.6-5c0-3.6,3.3-5.5,7.2-5.5c4.4,0,6.9,1.8,8.1,5.5h3.4
		c-1.1-5.2-5.1-8.5-11.6-8.5c-5.8,0-10.5,3.2-10.5,8.6c0,4.5,2.9,6.7,7.4,7.9l5.8,1.6c3.9,1.1,5.8,2.9,5.8,5.5
		c0,3.9-3.4,5.8-7.6,5.8c-4.3,0-7.4-1.9-8.7-5.7h-3.5c1,5.5,5.9,8.7,12.1,8.7c6.3,0,11-3.2,11-8.8
		C426.5,273.5,424.1,270.5,418.7,269.1z"/>
	<path class="st0" d="M218.1,192v-28.7l-50.8,0c-8.4,0-13.3-5.1-13.3-13.9v-14.2v-0.4h0.5h55.3v-28.1h-55.3h-0.5v-0.5V80.9v-0.5h0.5
		h60.9V52h-97.8v104.4c0,23.3,12.2,35.6,35.3,35.6H218.1z"/>
	<path class="st0" d="M65.7,106c-2.1-0.5-4.1-0.9-6-1.3c-15.6-3.4-22.8-4.9-22.8-14.8c0-11.2,11.7-12.2,24.7-12.2
		c12.5,0,24.2,2,35,3.4l-0.2-28.6c-3.3-0.4-20.8-3.4-38.7-3.4c-9.6,0-20.8,0.3-31.4,3.9C9.1,58.7,0,72.8,0,93.7
		c0,23.2,10.5,34.4,38.9,41.3c21.6,5.2,27.3,7,27.3,16.8c0,12.5-12.4,13.5-28.5,13.5c-11.6,0-23.8-1-36.5-2.9v30
		c12,1.4,27.7,2.3,42.2,2.3c20.2,0,31.2-2,40.5-7.5c12.8-7.5,19.2-20.5,19.2-38.7C103.2,124.3,92.4,112,65.7,106z"/>
	<path class="st0" d="M298.6,106c-2.1-0.5-4.1-0.9-6-1.3c-15.7-3.4-22.8-4.9-22.8-14.8c0-11.2,11.7-12.2,24.7-12.2
		c12.5,0,24.2,2,34.9,3.4l-0.2-28.6c-3.3-0.4-20.8-3.4-38.7-3.4c-9.6,0-20.8,0.3-31.4,3.9c-17.2,5.8-26.3,19.9-26.3,40.8
		c0,23.2,10.5,34.4,38.9,41.3c21.6,5.2,27.3,7,27.3,16.8c0,12.5-12.4,13.5-28.5,13.5c-11.6,0-23.8-1-36.5-2.9v30
		c12,1.4,27.7,2.3,42.2,2.3c20.2,0,31.2-2,40.5-7.5c12.8-7.5,19.2-20.5,19.2-38.7C336.2,124.3,325.3,112,298.6,106z"/>
	<path class="st0" d="M426.5,82.5L386.5,0l-40,82.5c12.5-4.5,26-6.9,40-6.9C400.5,75.5,414,78,426.5,82.5z"/>
</g>
</svg>
