<svg width="538" height="250" viewBox="0 0 538 250" fill="none" xmlns="http://www.w3.org/2000/svg">
<path d="M306.129 10.1846C312.077 14.5209 316.413 19.9598 320.561 25.9772C373.764 26.2936 377.907 104.376 325.244 110.497L257.51 110.478L273.817 94.512L324.477 94.428C343.157 92.1535 352.962 71.288 343.761 55.006C333.872 37.5125 310.593 39.1145 296.512 50.4175C280.6 64.9888 265.915 81.6021 250.054 96.119C236.402 108.614 219.136 115.209 201.039 107.442C169.662 93.983 167.037 48.5733 196.683 31.5644C207.66 25.2701 217.93 25.992 230.212 26.1008C246.024 -0.62887 280.63 -8.41142 306.129 10.1846ZM299.676 25.2207C282.188 10.1451 257.154 14.1402 244.298 32.9093C242.306 35.8215 240.926 39.1343 239.364 42.1554C226.261 43.2877 211.685 38.7783 200.792 47.9849C186.078 60.4251 189.791 86.0818 208.066 92.9595C218.943 97.0535 230.123 92.9348 238.489 85.6813C255.32 71.0902 270.454 52.4744 287.355 37.913C291.889 34.0069 297.347 30.976 303.028 29.1465C303.375 28.6768 300.225 25.7052 299.676 25.2306V25.2207Z" fill="url(#paint0_linear_5379_466)"/>
<path d="M62.6331 182.923C59.8085 182.923 57.1606 182.702 54.6891 182.261C52.2618 181.864 50.1655 181.268 48.4002 180.474V171.404C50.342 172.243 52.4825 172.927 54.8215 173.456C57.2047 173.986 59.4555 174.251 61.5739 174.251C64.2218 174.251 66.1858 174.008 67.4656 173.523C68.7896 173.037 69.4516 171.978 69.4516 170.345C69.4516 169.242 69.1206 168.359 68.4586 167.697C67.8407 167.035 66.8036 166.461 65.3472 165.976C63.935 165.446 61.9931 164.828 59.5217 164.122C56.6089 163.24 54.2919 162.269 52.5707 161.21C50.8495 160.106 49.6138 158.782 48.8636 157.238C48.1133 155.693 47.7382 153.795 47.7382 151.544C47.7382 147.484 49.1946 144.373 52.1073 142.21C55.0201 140.048 59.3231 138.967 65.0162 138.967C67.4877 138.967 69.8929 139.165 72.232 139.562C74.571 139.915 76.4687 140.335 77.9251 140.82V149.956C76.0274 149.205 74.1076 148.654 72.1658 148.301C70.2681 147.948 68.4145 147.771 66.605 147.771C64.2218 147.771 62.28 147.992 60.7795 148.433C59.3231 148.874 58.5949 149.889 58.5949 151.478C58.5949 152.405 58.8597 153.155 59.3893 153.729C59.9189 154.259 60.8236 154.744 62.1035 155.185C63.4274 155.627 65.2148 156.156 67.4656 156.774C70.9521 157.701 73.6222 158.826 75.4757 160.15C77.3293 161.43 78.6092 162.931 79.3153 164.652C80.0214 166.329 80.3745 168.227 80.3745 170.345C80.3745 174.096 78.9181 177.142 76.0053 179.481C73.0926 181.776 68.6351 182.923 62.6331 182.923ZM102.597 182.923C97.1243 182.923 92.7331 181.577 89.4231 178.885C86.1132 176.149 84.4582 172.044 84.4582 166.572C84.4582 161.585 85.8263 157.613 88.5625 154.656C91.2988 151.699 95.4032 150.22 100.876 150.22C105.863 150.22 109.724 151.5 112.461 154.06C115.197 156.62 116.565 160.062 116.565 164.387V170.014H94.3219C94.8074 172.088 95.9328 173.545 97.6981 174.383C99.5075 175.178 101.957 175.575 105.046 175.575C106.767 175.575 108.511 175.42 110.276 175.111C112.085 174.803 113.586 174.405 114.778 173.92V180.871C113.277 181.577 111.49 182.084 109.415 182.393C107.341 182.746 105.068 182.923 102.597 182.923ZM94.3219 163.858H107.297V162.467C107.297 160.923 106.834 159.709 105.907 158.826C104.98 157.9 103.413 157.436 101.207 157.436C98.6469 157.436 96.8595 157.966 95.8445 159.025C94.8294 160.04 94.3219 161.651 94.3219 163.858ZM129.42 182.261L117.041 150.882H128.162L135.047 171.272L141.998 150.882H153.119L140.74 182.261H129.42ZM171.77 182.923C166.298 182.923 161.906 181.577 158.596 178.885C155.286 176.149 153.631 172.044 153.631 166.572C153.631 161.585 155 157.613 157.736 154.656C160.472 151.699 164.576 150.22 170.049 150.22C175.036 150.22 178.898 151.5 181.634 154.06C184.37 156.62 185.738 160.062 185.738 164.387V170.014H163.495C163.981 172.088 165.106 173.545 166.871 174.383C168.681 175.178 171.13 175.575 174.219 175.575C175.941 175.575 177.684 175.42 179.449 175.111C181.259 174.803 182.759 174.405 183.951 173.92V180.871C182.45 181.577 180.663 182.084 178.589 182.393C176.514 182.746 174.242 182.923 171.77 182.923ZM163.495 163.858H176.47V162.467C176.47 160.923 176.007 159.709 175.08 158.826C174.153 157.9 172.587 157.436 170.38 157.436C167.82 157.436 166.033 157.966 165.018 159.025C164.003 160.04 163.495 161.651 163.495 163.858ZM191.158 182.261V150.882H201.287L201.618 153.795C202.986 152.957 204.685 152.206 206.715 151.544C208.745 150.838 210.775 150.397 212.805 150.22V158.231C211.658 158.363 210.378 158.584 208.966 158.893C207.598 159.157 206.274 159.488 204.994 159.886C203.758 160.283 202.699 160.702 201.816 161.143V182.261H191.158ZM224.617 182.923C222.631 182.923 220.777 182.57 219.056 181.864C217.379 181.158 216.033 180.076 215.018 178.62C214.003 177.12 213.495 175.266 213.495 173.059C213.495 169.838 214.577 167.322 216.739 165.513C218.946 163.659 222.234 162.732 226.603 162.732H235.341V162.004C235.341 160.415 234.812 159.29 233.752 158.628C232.693 157.922 230.707 157.569 227.794 157.569C224.22 157.569 220.711 158.12 217.269 159.224V152.339C218.813 151.721 220.689 151.213 222.896 150.816C225.146 150.419 227.508 150.22 229.979 150.22C234.834 150.22 238.629 151.213 241.365 153.199C244.146 155.185 245.536 158.341 245.536 162.666V182.261H236.202L235.672 179.613C234.525 180.672 233.046 181.489 231.237 182.062C229.472 182.636 227.265 182.923 224.617 182.923ZM227.993 176.369C229.67 176.369 231.127 176.082 232.362 175.509C233.598 174.935 234.591 174.207 235.341 173.324V168.889H227.794C224.661 168.889 223.094 170.147 223.094 172.662C223.094 173.81 223.492 174.714 224.286 175.376C225.08 176.038 226.316 176.369 227.993 176.369ZM261.592 182.923C258.15 182.923 255.679 182.173 254.178 180.672C252.678 179.172 251.927 176.766 251.927 173.456V137.643H262.585V172.397C262.585 173.412 262.784 174.118 263.181 174.516C263.623 174.869 264.262 175.045 265.101 175.045C266.293 175.045 267.352 174.891 268.279 174.582V181.798C267.263 182.195 266.248 182.482 265.233 182.658C264.262 182.835 263.049 182.923 261.592 182.923ZM308.095 182.923C300.636 182.923 294.943 181.025 291.015 177.23C287.132 173.39 285.19 168.072 285.19 161.276C285.19 154.17 287.088 148.676 290.883 144.792C294.723 140.908 300.438 138.967 308.029 138.967C310.633 138.967 312.95 139.165 314.98 139.562C317.054 139.96 319.04 140.489 320.938 141.151V150.485C317.098 148.896 313.06 148.102 308.823 148.102C304.41 148.102 301.166 149.161 299.092 151.28C297.062 153.398 296.047 156.73 296.047 161.276C296.047 165.601 297.128 168.778 299.29 170.809C301.453 172.839 304.675 173.854 308.956 173.854C311.03 173.854 313.082 173.677 315.112 173.324C317.142 172.927 319.106 172.331 321.004 171.537V180.937C319.15 181.555 317.186 182.04 315.112 182.393C313.038 182.746 310.699 182.923 308.095 182.923ZM336.067 182.923C332.624 182.923 330.153 182.173 328.652 180.672C327.152 179.172 326.402 176.766 326.402 173.456V137.643H337.06V172.397C337.06 173.412 337.258 174.118 337.656 174.516C338.097 174.869 338.737 175.045 339.575 175.045C340.767 175.045 341.826 174.891 342.753 174.582V181.798C341.738 182.195 340.723 182.482 339.708 182.658C338.737 182.835 337.523 182.923 336.067 182.923ZM363.117 182.923C357.071 182.923 352.613 181.533 349.745 178.752C346.876 175.928 345.442 171.868 345.442 166.572C345.442 161.32 346.876 157.282 349.745 154.457C352.657 151.633 357.115 150.22 363.117 150.22C369.163 150.22 373.621 151.633 376.489 154.457C379.402 157.282 380.858 161.32 380.858 166.572C380.858 171.868 379.424 175.928 376.556 178.752C373.687 181.533 369.207 182.923 363.117 182.923ZM363.117 174.582C365.588 174.582 367.354 173.964 368.413 172.728C369.472 171.493 370.002 169.44 370.002 166.572C370.002 163.703 369.472 161.651 368.413 160.415C367.354 159.179 365.588 158.562 363.117 158.562C360.69 158.562 358.946 159.179 357.887 160.415C356.828 161.651 356.298 163.703 356.298 166.572C356.298 169.44 356.828 171.493 357.887 172.728C358.946 173.964 360.69 174.582 363.117 174.582ZM397.056 182.923C393.349 182.923 390.458 181.886 388.384 179.812C386.31 177.693 385.273 174.626 385.273 170.61V150.882H395.931V170.014C395.931 171.779 396.35 173.081 397.189 173.92C398.071 174.714 399.373 175.111 401.094 175.111C402.374 175.111 403.588 174.847 404.735 174.317C405.883 173.787 406.832 173.125 407.582 172.331V150.882H418.24V182.261H408.31L407.979 179.613C406.699 180.584 405.155 181.378 403.345 181.996C401.536 182.614 399.439 182.923 397.056 182.923ZM438.163 182.923C435.118 182.923 432.514 182.438 430.352 181.467C428.189 180.496 426.534 178.907 425.387 176.7C424.239 174.449 423.666 171.448 423.666 167.697C423.666 163.902 424.328 160.724 425.652 158.164C426.976 155.561 428.785 153.597 431.08 152.273C433.419 150.905 436.089 150.22 439.09 150.22C440.723 150.22 442.179 150.397 443.459 150.75C444.783 151.103 446.019 151.633 447.166 152.339V137.643H457.825V182.261H448.623L448.027 179.613C446.747 180.716 445.313 181.555 443.724 182.129C442.135 182.658 440.282 182.923 438.163 182.923ZM441.209 175.178C443.548 175.178 445.534 174.383 447.166 172.794V160.084C445.666 158.716 443.746 158.032 441.407 158.032C439.156 158.032 437.435 158.893 436.244 160.614C435.096 162.291 434.522 164.674 434.522 167.763C434.522 170.764 435.074 172.75 436.177 173.721C437.325 174.692 439.002 175.178 441.209 175.178ZM476.205 182.923C473.69 182.923 471.307 182.746 469.056 182.393C466.805 182.04 465.018 181.599 463.694 181.069V172.927C465.238 173.589 467.026 174.096 469.056 174.449C471.086 174.803 472.895 174.979 474.484 174.979C476.382 174.979 477.75 174.891 478.588 174.714C479.471 174.538 479.912 174.052 479.912 173.258C479.912 172.375 479.206 171.713 477.794 171.272C476.382 170.831 474.44 170.191 471.969 169.352C469.1 168.337 466.915 167.168 465.415 165.844C463.958 164.475 463.23 162.467 463.23 159.819C463.23 156.73 464.378 154.369 466.673 152.736C469.012 151.059 472.719 150.22 477.794 150.22C479.78 150.22 481.744 150.375 483.686 150.684C485.628 150.993 487.216 151.346 488.452 151.743V159.753C487.216 159.179 485.804 158.76 484.215 158.495C482.627 158.231 481.192 158.098 479.912 158.098C478.28 158.098 476.889 158.209 475.742 158.429C474.639 158.606 474.087 159.069 474.087 159.819C474.087 160.658 474.705 161.254 475.941 161.607C477.176 161.916 478.964 162.445 481.303 163.196C483.774 163.946 485.694 164.762 487.062 165.645C488.43 166.483 489.401 167.499 489.975 168.69C490.549 169.882 490.835 171.382 490.835 173.192C490.835 176.325 489.6 178.73 487.128 180.407C484.657 182.084 481.016 182.923 476.205 182.923Z" fill="#343053"/>
<defs>
<linearGradient id="paint0_linear_5379_466" x1="203.087" y1="31.9957" x2="358.759" y2="100.781" gradientUnits="userSpaceOnUse">
<stop offset="0.2" stop-color="#20D0CB"/>
<stop offset="0.35" stop-color="#4E83DC"/>
<stop offset="0.5" stop-color="#591FF1"/>
<stop offset="0.75" stop-color="#6D19E9"/>
<stop offset="1" stop-color="#7615E3"/>
</linearGradient>
</defs>
</svg>
