<?xml version="1.0" encoding="utf-8"?>
<!-- Generator: Adobe Illustrator 22.0.0, SVG Export Plug-In . SVG Version: 6.00 Build 0)  -->
<svg version="1.1" id="图层_1" xmlns="http://www.w3.org/2000/svg" xmlns:xlink="http://www.w3.org/1999/xlink" x="0px" y="0px"
	 viewBox="0 0 267.4 44.5" style="enable-background:new 0 0 267.4 44.5;" xml:space="preserve">
<style type="text/css">
	.st0{fill:#BDBEBF;}
	.st1{fill:#D9B78E;}
	.st2{fill:#231815;}
</style>
<g>
	<path class="st0" d="M13.2,1.4c3.7,0,7.1,1.8,9.5,4.6c2.3,2.7,3.7,6.4,3.7,10.5c0,0.3,0,0.6,0,0.9h-5.2c0-0.3,0-0.6,0-0.9
		c0-2.8-1-5.4-2.5-7.2c-1.4-1.7-3.4-2.7-5.6-2.7c-2.2,0-4.1,1-5.6,2.7c-1.4,1.6-2.3,3.9-2.5,6.4c0,0.2,0,0.5,0,0.7
		c0,0.2,0,0.5,0,0.7c0.2,2.5,1.1,4.8,2.5,6.4c1.4,1.7,3.4,2.7,5.6,2.7h10c-0.2,0.2-0.3,0.4-0.5,0.6c-2.4,2.8-5.8,4.6-9.5,4.6
		S6.2,29.8,3.7,27C1.4,24.2,0,20.5,0,16.5c0-4.1,1.4-7.8,3.7-10.5C6.2,3.1,9.5,1.4,13.2,1.4"/>
	<path class="st1" d="M13.2,19.2h13.2c1.9,0,3.4,0.8,4.5,1.9c0.5,0.5,0.9,1.2,1.1,1.8c0.3,0.7,0.4,1.4,0.4,2.1
		c0,1.6-0.6,3.2-2.1,4.5l0,0l-8.1,7.4c-0.3,0.2-0.4,0.5-0.4,0.7c0,0.1,0,0.2,0,0.3c0,0.1,0.1,0.1,0.1,0.2c0.1,0.1,0.3,0.2,0.6,0.2
		l13.3,0v5.2l-13.3,0c-1.8,0-3.4-0.7-4.4-1.9c-0.5-0.5-0.9-1.2-1.1-1.8c-0.3-0.7-0.4-1.4-0.4-2.1c0-1.6,0.6-3.3,2-4.5l8.1-7.4l0,0
		c0.3-0.2,0.4-0.5,0.4-0.7c0-0.1,0-0.2,0-0.2c0-0.1-0.1-0.2-0.1-0.2c-0.1-0.2-0.4-0.3-0.7-0.3H13.2V19.2z"/>
	<path class="st2" d="M129.1,43.1V33h1.6v10.1H129.1z M125.5,43.1l-1.2-2.6h-4l-1.2,2.6h-1.7l4.9-10.5l4.9,10.5H125.5z M120.9,39.1
		h2.8l-1-2.3c-0.1-0.1-0.1-0.3-0.2-0.5c-0.1-0.2-0.1-0.4-0.2-0.6c-0.1,0.2-0.1,0.4-0.2,0.6c-0.1,0.2-0.1,0.4-0.2,0.5L120.9,39.1z
		 M107.3,43.1V33h1.6v3.7h5V33h1.6v10.1h-1.6v-4.9h-5v4.9H107.3z M100.7,37.9h4c0,0.1,0,0.2,0,0.3c0,0.3,0,0.5,0,0.7
		c0,1.4-0.4,2.5-1.2,3.3c-0.8,0.8-2,1.2-3.5,1.2c-0.8,0-1.6-0.1-2.2-0.4c-0.7-0.2-1.2-0.6-1.7-1.1c-0.5-0.5-0.8-1.1-1.1-1.7
		c-0.3-0.7-0.4-1.4-0.4-2.1c0-0.8,0.1-1.5,0.4-2.1c0.3-0.6,0.6-1.2,1.2-1.7c0.5-0.5,1.1-0.9,1.7-1.1c0.7-0.3,1.4-0.4,2.1-0.4
		c0.8,0,1.5,0.1,2.1,0.4c0.6,0.3,1.2,0.7,1.7,1.3l-1.2,0.9c-0.3-0.4-0.7-0.7-1.2-0.9c-0.4-0.2-0.9-0.3-1.4-0.3c-1.1,0-2,0.4-2.7,1.1
		c-0.7,0.7-1,1.6-1,2.7c0,1.1,0.3,2.1,1,2.8c0.7,0.7,1.6,1.1,2.7,1.1c0.9,0,1.7-0.2,2.2-0.7c0.5-0.4,0.8-1,0.8-1.8v-0.1h-2.4V37.9z
		 M82.8,43.1V32.6l6.4,6.2c0.2,0.2,0.4,0.4,0.5,0.6c0.2,0.2,0.4,0.4,0.6,0.7v-7h1.5v10.5l-6.6-6.3c-0.2-0.2-0.3-0.4-0.5-0.5
		c-0.2-0.2-0.3-0.4-0.5-0.6v7.1H82.8z M79.2,43.1l-1.2-2.6h-4l-1.2,2.6h-1.7l4.9-10.5L81,43.1H79.2z M74.7,39.1h2.8l-1-2.3
		c-0.1-0.1-0.1-0.3-0.2-0.5c-0.1-0.2-0.1-0.4-0.2-0.6c-0.1,0.2-0.1,0.4-0.2,0.6c-0.1,0.2-0.1,0.4-0.2,0.5L74.7,39.1z M61.1,43.1V33
		h1.6v3.7h5V33h1.6v10.1h-1.6v-4.9h-5v4.9H61.1z M51.8,41.1l1.3-0.6c0.1,0.5,0.4,0.8,0.7,1c0.3,0.2,0.8,0.4,1.3,0.4
		c0.5,0,0.9-0.1,1.2-0.4c0.3-0.3,0.4-0.6,0.4-1.1c0-0.6-0.5-1.1-1.5-1.6c-0.1-0.1-0.2-0.1-0.3-0.2c-1.1-0.5-1.9-1-2.2-1.5
		c-0.4-0.4-0.6-1-0.6-1.6c0-0.8,0.3-1.5,0.8-2c0.6-0.5,1.3-0.8,2.2-0.8c0.7,0,1.4,0.1,1.9,0.4c0.5,0.3,0.9,0.7,1,1.2l-1.3,0.7
		c-0.2-0.3-0.4-0.6-0.7-0.7c-0.2-0.1-0.5-0.2-0.8-0.2c-0.4,0-0.8,0.1-1.1,0.3c-0.3,0.2-0.4,0.5-0.4,0.9c0,0.6,0.6,1.2,1.7,1.7
		c0.1,0,0.2,0.1,0.2,0.1c1,0.5,1.7,0.9,2.1,1.4c0.4,0.4,0.6,1,0.6,1.7c0,1-0.3,1.7-0.9,2.3c-0.6,0.6-1.4,0.8-2.5,0.8
		c-0.9,0-1.6-0.2-2.1-0.6C52.4,42.4,52,41.8,51.8,41.1z"/>
	<path class="st2" d="M153.1,42.7V32.6h1.6v10.1H153.1z M148.8,41.4l2.2,2.3h-2l-1.3-1.4c-0.5,0.2-0.9,0.4-1.4,0.5
		c-0.5,0.1-1,0.2-1.5,0.2c-0.7,0-1.4-0.1-2-0.4c-0.7-0.3-1.2-0.7-1.7-1.1c-0.5-0.5-0.9-1.1-1.2-1.7c-0.3-0.6-0.4-1.3-0.4-2.1
		c0-0.7,0.1-1.4,0.4-2.1c0.3-0.6,0.7-1.2,1.2-1.7c0.5-0.5,1.1-0.9,1.7-1.1c0.7-0.3,1.4-0.4,2.1-0.4c0.7,0,1.4,0.1,2.1,0.4
		c0.7,0.3,1.2,0.6,1.7,1.1c0.5,0.5,0.9,1.1,1.2,1.7c0.3,0.6,0.4,1.3,0.4,2c0,0.7-0.1,1.4-0.4,2C149.7,40.3,149.3,40.9,148.8,41.4z
		 M146.8,39.1l1,1c0.3-0.4,0.5-0.8,0.7-1.2c0.1-0.4,0.2-0.8,0.2-1.3c0-0.5-0.1-1-0.3-1.5c-0.2-0.5-0.4-0.9-0.8-1.2
		c-0.4-0.4-0.8-0.6-1.2-0.8c-0.5-0.2-0.9-0.3-1.4-0.3c-0.5,0-1,0.1-1.4,0.3c-0.5,0.2-0.9,0.5-1.2,0.8c-0.4,0.4-0.6,0.8-0.8,1.2
		c-0.2,0.5-0.3,0.9-0.3,1.5c0,1.1,0.4,2,1.1,2.7c0.7,0.7,1.6,1.1,2.7,1.1c0.3,0,0.6,0,0.8-0.1c0.3-0.1,0.5-0.2,0.8-0.3l-1.8-2H146.8
		z"/>
	<path class="st2" d="M185,43.1V33h1.6v10.1H185z M173.5,43.1V33h1.6v3.7h5V33h1.6v10.1h-1.6v-4.9h-5v4.9H173.5z M163.4,43.1
		l5.2-8.7h-4.3V33h6.8l-5.1,8.7h5.2v1.5H163.4z"/>
	<path class="st2" d="M261,43.1V33h5.7v1.4h-4v2.5h4v1.4h-4v3.3h4v1.5H261z M256.2,34.4v8.7h-1.6v-8.7h-2.7V33h7v1.4H256.2z
		 M241.4,33h1.6v6.2c0,0.9,0.2,1.6,0.6,2.1c0.4,0.5,1.1,0.7,1.9,0.7c0.8,0,1.5-0.2,1.9-0.7c0.4-0.5,0.6-1.1,0.6-2.1V33h1.6v6.3
		c0,1.4-0.3,2.4-1,3.1c-0.7,0.7-1.7,1-3.1,1c-1.4,0-2.4-0.3-3.1-1c-0.7-0.7-1-1.7-1-3.1V33z M236.7,34.4v8.7H235v-8.7h-2.7V33h7v1.4
		H236.7z M228.5,43.1V33h1.6v10.1H228.5z M223.7,34.4v8.7h-1.6v-8.7h-2.7V33h7v1.4H223.7z M211.2,41.1l1.3-0.6
		c0.1,0.5,0.4,0.8,0.7,1c0.3,0.2,0.8,0.4,1.3,0.4c0.5,0,0.9-0.1,1.2-0.4c0.3-0.3,0.4-0.6,0.4-1.1c0-0.6-0.5-1.1-1.5-1.6
		c-0.1-0.1-0.2-0.1-0.3-0.2c-1.1-0.5-1.9-1-2.2-1.5c-0.4-0.4-0.6-1-0.6-1.6c0-0.8,0.3-1.5,0.8-2c0.6-0.5,1.3-0.8,2.2-0.8
		c0.7,0,1.4,0.1,1.9,0.4c0.5,0.3,0.9,0.7,1,1.2l-1.3,0.7c-0.2-0.3-0.4-0.6-0.7-0.7c-0.2-0.1-0.5-0.2-0.8-0.2c-0.4,0-0.8,0.1-1.1,0.3
		c-0.3,0.2-0.4,0.5-0.4,0.9c0,0.6,0.6,1.2,1.7,1.7c0.1,0,0.2,0.1,0.2,0.1c1,0.5,1.7,0.9,2.1,1.4c0.4,0.4,0.6,1,0.6,1.7
		c0,1-0.3,1.7-0.9,2.3c-0.6,0.6-1.4,0.8-2.5,0.8c-0.9,0-1.6-0.2-2.1-0.6C211.7,42.4,211.4,41.8,211.2,41.1z M199.5,43.1V32.6
		l6.4,6.2c0.2,0.2,0.4,0.4,0.5,0.6c0.2,0.2,0.4,0.4,0.6,0.7v-7h1.5v10.5l-6.6-6.3c-0.2-0.2-0.3-0.4-0.5-0.5
		c-0.2-0.2-0.3-0.4-0.5-0.6v7.1H199.5z M194.6,43.1V33h1.6v10.1H194.6z"/>
	<path class="st2" d="M137,12h-3.4v4.1h3.4V12z M119.1,18.8h4.8v-2.9h-4.8V18.8z M116.5,20.8h3.5l-1.8,3.9h-3.7L116.5,20.8z
		 M119.1,8.1v2.5h4.8V8.1H119.1z M119.1,14.6h4.8v-2.8h-4.8V14.6z M137,6.8h-0.9h-2.5v3.8h3.4V6.8z M128.4,20.1h-14.9v-1.4h1.9V8.1
		h-1.9V6.8h1.9V5.3h3.6v1.5h4.8V5.3h3.6v1.5h1.9l-1,1.3h-1v10.7h1.9L128.4,20.1z M140.7,5.3v19.4h-5.1l-0.6-1.1h2v-6.1h-3.4v3.4
		l-1.4,3.9h-7.4l-2.1-3.9h3.8l1.8,3.7l1.6-3.9V5.3H140.7z"/>
	<path class="st2" d="M160.6,15.4h-4l-3.2-3h4L160.6,15.4z M151.9,21v2.2h15.8V21H151.9z M150.6,10l1.8-2.3h-1.8L149.7,9h-4l2.5-3.9
		h4l-0.8,1.3l8.8,0l-0.8,1.4h-3.1l-1.8,2.3h6.4l-0.8,1.6h-6.8l-3,3.8h-4l3-3.8H146V10H150.6z M169.1,7.4H165v5.9h4.1V7.4z
		 M161.4,5.9h3.6h4.1h3.6v1.5v5.9v1.5h-3.6H165h-3.6v-1.5V7.4V5.9z M148.2,16.1h19.5v1.5h-0.8h-15v1.9h15.8v-3.4h3.6v8.6h-23.1V16.1
		z"/>
	<path class="st2" d="M183.8,23.3h1.7v-9.5h-1.7V23.3z M195.5,13.5h3.7V7.2h-3.7V13.5z M188.7,12.3v12.4h-8.4V15h-2.5l3.9-7.4h-2.3
		V6.1l8.9,0l-0.5,1.5h-2.6l-2.7,4.6H188.7z M205.6,5.7l-0.8,1.5h-1.9v6.3h3l-0.6,1.5h-2.5v9.8h-3.6v-9.8h-3.7v5l-0.8,4.8h-3.6
		l0.8-4.8v-5h-2.5v-1.5h2.5V7.2h-2.7V5.7H205.6z"/>
	<polygon class="st2" points="228.3,12.8 225.7,8.9 229.7,8.9 232.2,12.8 	"/>
	<polygon class="st2" points="219.3,8.9 216.7,12.8 212.8,12.8 215.3,8.9 	"/>
	<polygon class="st2" points="224.6,6.3 228.5,6.3 232.6,6.3 233,6.3 236.2,6.3 236.2,9.1 232.6,9.1 232.6,7.7 231.6,7.7 228.5,7.7 
		213.2,7.7 213.2,9.1 209.6,9.1 209.6,6.3 221,6.3 221,4.8 224.6,4.8 	"/>
	<polygon class="st2" points="231.2,23.3 236.7,23.3 235.8,24.7 227.6,24.7 227.6,15.4 226.7,15.4 222.8,15.4 221.3,15.4 
		215.7,24.7 211.8,24.7 217.4,15.4 211.1,15.4 211.1,14 218,14 219.4,11.9 223.3,11.9 222,14 222.8,14 228.5,14 231.2,14 	"/>
	<path class="st2" d="M245.1,14.2l1.3-7.2h-1.3V14.2z M264.5,11.8h-12.8v-1.5h13.6L264.5,11.8z M253.7,24.6h-3.6l4-9.9h-3.3v-1.5
		h15.7l-0.8,1.5h-3.3v8.5h4.3l-0.9,1.5h-7v-10h-1.1L253.7,24.6z M263.2,7.8h-0.8h-2h-7v1H250V6.3l6.7,0V5.1h3.3v1.2h0.3h4h2.3v2.5
		h-3.4V7.8z M248,13.7h1.4v10l-3.7-2.2v-1.8l0.9,0.6V15h-1.5v9.7h-3.3V5.6h7.8L248,13.7z"/>
	<polygon class="st2" points="76.9,11.4 76.1,12.8 63.3,12.8 63.3,23.1 77.7,23.1 76.8,24.5 51.8,24.5 51.8,23.1 59.4,23.1 
		59.4,5.3 63.3,5.3 63.3,11.4 	"/>
	<path class="st2" d="M95.4,17h3.7l2,3.5h-3.8L95.4,17z M87.4,10h-2l2,4.1h-3.5l-2.1-4.2h1.9l-2.1-4.3h3.5L87.4,10z M85.3,24.6h-3.5
		l2.1-9.2h3.5L85.3,24.6z M93.1,5.1l-0.3,1.1h15.5L107,7.8H88.5l0.8-2.7H93.1z M103.6,15.7H92.7v5.4h10.9V15.7z M103.6,10.2h-1.1
		h-2.6h-7.2v4H97l-2-3.2h3.7l2.1,3.2h2.8V10.2z M107.2,15.7v5.4h1.9l-1.2,1.5h-0.7v2.2h-6.1l-0.8-1.3h3.2v-0.8H89v0h0v-6.8h-0.9
		v-1.4H89V8.9h10.9h4.8h2.6v5.4h1.9l-1.2,1.4H107.2z"/>
</g>
</svg>
