<?xml version="1.0" encoding="UTF-8" standalone="no"?>
<svg
   xmlns:dc="http://purl.org/dc/elements/1.1/"
   xmlns:cc="http://creativecommons.org/ns#"
   xmlns:rdf="http://www.w3.org/1999/02/22-rdf-syntax-ns#"
   xmlns:svg="http://www.w3.org/2000/svg"
   xmlns="http://www.w3.org/2000/svg"
   viewBox="0 0 545.84003 151.65334"
   height="151.65334"
   width="545.84003"
   xml:space="preserve"
   id="svg2"
   version="1.1"><metadata
     id="metadata8"><rdf:RDF><cc:Work
         rdf:about=""><dc:format>image/svg+xml</dc:format><dc:type
           rdf:resource="http://purl.org/dc/dcmitype/StillImage" /></cc:Work></rdf:RDF></metadata><defs
     id="defs6" /><g
     transform="matrix(1.3333333,0,0,-1.3333333,0,151.65333)"
     id="g10"><g
       transform="scale(0.1)"
       id="g12"><path
         id="path14"
         style="fill:#7bcb2a;fill-opacity:1;fill-rule:nonzero;stroke:none"
         d="m 1618.94,321.652 375.12,-1.992 81.45,115.496 -257.91,0.34 92.83,159.488 -60.03,125.981 -231.46,-399.313" /><path
         id="path16"
         style="fill:#5ac4ea;fill-opacity:1;fill-rule:nonzero;stroke:none"
         d="m 2561.06,321.652 -464.28,-1.992 81.88,115.496 183.74,0.34 -107.56,185.402 148.16,-24.687 158.06,-274.559" /><path
         id="path18"
         style="fill:#231f20;fill-opacity:1;fill-rule:nonzero;stroke:none"
         d="m 591.898,909.117 c -12.558,6.09 -27.046,12.61 -43.457,19.531 -16.441,6.899 -35.191,13.09 -56.261,18.571 -21.09,5.461 -44.84,10.039 -71.239,13.73 -26.402,3.688 -55.711,5.539 -87.89,5.539 -38.961,0 -73.641,-2.242 -104.063,-6.742 -30.429,-4.519 -56.187,-11.488 -77.277,-20.976 -21.09,-9.493 -37.191,-21.461 -48.301,-35.922 -11.1014,-14.481 -16.6483,-31.668 -16.6483,-51.61 0,-16.718 5.2266,-31.34 15.6873,-43.879 10.461,-12.531 24.629,-23.632 42.5,-33.281 17.871,-9.629 38.781,-18.39 62.77,-26.269 23.98,-7.879 49.41,-15.262 76.293,-22.18 26.886,-6.922 54.566,-13.91 83.066,-20.981 28.481,-7.082 56.16,-14.699 83.031,-22.91 26.891,-8.199 52.332,-17.351 76.313,-27.492 23.976,-10.117 44.898,-21.93 62.769,-35.437 17.868,-13.5 32.039,-28.93 42.5,-46.289 10.45,-17.352 15.68,-37.454 15.68,-60.282 0,-24.761 -4.66,-46.371 -13.973,-64.859 -9.339,-18.492 -21.957,-34.402 -37.878,-47.742 -15.93,-13.348 -34.579,-24.43 -55.969,-33.27 -21.403,-8.84 -44.231,-15.828 -68.5,-20.98 -24.301,-5.129 -49.379,-8.75 -75.27,-10.848 -25.89,-2.082 -51.39,-3.121 -76.472,-3.121 -57.579,0 -109.77,4.16 -156.571,12.531 -46.777,8.348 -91.4294,19.77 -133.8669,34.231 v 73.777 c 43.7383,-26.039 89.9809,-43.879 138.7069,-53.519 48.731,-9.649 99.934,-14.461 153.66,-14.461 37.942,0 73,2.242 105.16,6.73 32.161,4.512 60,11.66 83.473,21.481 23.488,9.8 41.731,22.582 54.758,38.332 13.043,15.738 19.543,35.039 19.543,57.867 0,18.332 -5.223,34.402 -15.684,48.211 -10.437,13.832 -24.59,25.98 -42.437,36.41 -17.871,10.449 -38.77,19.68 -62.731,27.738 -23.961,8.024 -49.3,15.5 -75.992,22.422 -26.699,6.922 -54.277,13.648 -82.738,20.262 -28.469,6.578 -56.051,13.726 -82.738,21.449 -26.692,7.719 -52.032,16.391 -76,26.027 C 121.891,720.559 101,731.898 83.1484,744.918 65.3008,757.93 51.1289,772.957 40.6914,789.996 30.2305,807.027 25,826.816 25,849.309 c 0,22.187 4.1914,41.871 12.5391,59.078 8.3828,17.203 19.8593,32.07 34.5,44.601 14.6523,12.539 31.7699,23.071 51.3829,31.602 19.617,8.5 40.617,15.258 62.969,20.25 22.347,4.97 45.578,8.59 69.718,10.85 24.121,2.24 47.911,3.38 71.403,3.38 25.726,0 50.09,-1.14 73.078,-3.38 23,-2.26 45.199,-5.23 66.582,-8.92 21.387,-3.71 42.308,-7.961 62.726,-12.793 20.422,-4.809 41.082,-9.957 62,-15.418 v -69.442" /><path
         id="path20"
         style="fill:none;stroke:#231f20;stroke-width:50;stroke-linecap:butt;stroke-linejoin:miter;stroke-miterlimit:10;stroke-dasharray:none;stroke-opacity:1"
         d="m 591.898,909.117 c -12.558,6.09 -27.046,12.61 -43.457,19.531 -16.441,6.899 -35.191,13.09 -56.261,18.571 -21.09,5.461 -44.84,10.039 -71.239,13.73 -26.402,3.688 -55.711,5.539 -87.89,5.539 -38.961,0 -73.641,-2.242 -104.063,-6.742 -30.429,-4.519 -56.187,-11.488 -77.277,-20.976 -21.09,-9.493 -37.191,-21.461 -48.301,-35.922 -11.1014,-14.481 -16.6483,-31.668 -16.6483,-51.61 0,-16.718 5.2266,-31.34 15.6873,-43.879 10.461,-12.531 24.629,-23.632 42.5,-33.281 17.871,-9.629 38.781,-18.39 62.77,-26.269 23.98,-7.879 49.41,-15.262 76.293,-22.18 26.886,-6.922 54.566,-13.91 83.066,-20.981 28.481,-7.082 56.16,-14.699 83.031,-22.91 26.891,-8.199 52.332,-17.351 76.313,-27.492 23.976,-10.117 44.898,-21.93 62.769,-35.437 17.868,-13.5 32.039,-28.93 42.5,-46.289 10.45,-17.352 15.68,-37.454 15.68,-60.282 0,-24.761 -4.66,-46.371 -13.973,-64.859 -9.339,-18.492 -21.957,-34.402 -37.878,-47.742 -15.93,-13.348 -34.579,-24.43 -55.969,-33.27 -21.403,-8.84 -44.231,-15.828 -68.5,-20.98 -24.301,-5.129 -49.379,-8.75 -75.27,-10.848 -25.89,-2.082 -51.39,-3.121 -76.472,-3.121 -57.579,0 -109.77,4.16 -156.571,12.531 -46.777,8.348 -91.4294,19.77 -133.8669,34.231 v 73.777 c 43.7383,-26.039 89.9809,-43.879 138.7069,-53.519 48.731,-9.649 99.934,-14.461 153.66,-14.461 37.942,0 73,2.242 105.16,6.73 32.161,4.512 60,11.66 83.473,21.481 23.488,9.8 41.731,22.582 54.758,38.332 13.043,15.738 19.543,35.039 19.543,57.867 0,18.332 -5.223,34.402 -15.684,48.211 -10.437,13.832 -24.59,25.98 -42.437,36.41 -17.871,10.449 -38.77,19.68 -62.731,27.738 -23.961,8.024 -49.3,15.5 -75.992,22.422 -26.699,6.922 -54.277,13.648 -82.738,20.262 -28.469,6.578 -56.051,13.726 -82.738,21.449 -26.692,7.719 -52.032,16.391 -76,26.027 C 121.891,720.559 101,731.898 83.1484,744.918 65.3008,757.93 51.1289,772.957 40.6914,789.996 30.2305,807.027 25,826.816 25,849.309 c 0,22.187 4.1914,41.871 12.5391,59.078 8.3828,17.203 19.8593,32.07 34.5,44.601 14.6523,12.539 31.7699,23.071 51.3829,31.602 19.617,8.5 40.617,15.258 62.969,20.25 22.347,4.97 45.578,8.59 69.718,10.85 24.121,2.24 47.911,3.38 71.403,3.38 25.726,0 50.09,-1.14 73.078,-3.38 23,-2.26 45.199,-5.23 66.582,-8.92 21.387,-3.71 42.308,-7.961 62.726,-12.793 20.422,-4.809 41.082,-9.957 62,-15.418 z" /><path
         id="path22"
         style="fill:#231f20;fill-opacity:1;fill-rule:nonzero;stroke:none"
         d="m 1443.09,344.363 v 322.18 H 849.582 v -322.18 h -60.25 v 662.697 h 60.25 V 721.523 h 593.508 v 285.537 h 60.27 V 344.363 h -60.27" /><path
         id="path24"
         style="fill:none;stroke:#231f20;stroke-width:50;stroke-linecap:butt;stroke-linejoin:miter;stroke-miterlimit:10;stroke-dasharray:none;stroke-opacity:1"
         d="m 1443.09,344.363 v 322.18 H 849.582 v -322.18 h -60.25 v 662.697 h 60.25 V 721.523 h 593.508 v 285.537 h 60.27 V 344.363 Z" /><path
         id="path26"
         style="fill:#231f20;fill-opacity:1;fill-rule:nonzero;stroke:none"
         d="m 2735.72,627.969 v -283.61 h -60.41 v 662.701 h 330.65 c 50.6,0 93.95,-3.95 130.03,-11.814 36.11,-7.879 65.67,-19.789 88.72,-35.707 23.04,-15.891 39.88,-35.762 50.52,-59.562 10.63,-23.797 15.95,-51.598 15.95,-83.438 0,-49.519 -13.06,-89.133 -39.16,-118.891 -26.09,-29.73 -68.17,-50.07 -126.17,-60.992 l 226.72,-292.297 h -75.89 l -214.16,285.539 c -9.02,-0.652 -18.22,-1.14 -27.55,-1.46 -9.36,-0.309 -19.03,-0.469 -29.01,-0.469 z m 493.57,188.57 c 0,28.301 -5,51.207 -14.98,68.738 -10.01,17.512 -26.3,31.11 -48.89,40.762 -22.57,9.649 -52.18,16.149 -88.79,19.527 -36.62,3.364 -81.55,5.051 -134.77,5.051 h -206.14 v -266.23 h 204.21 c 53.22,0 98.23,1.531 135,4.601 36.78,3.039 66.62,9.309 89.52,18.801 22.91,9.481 39.44,22.82 49.6,40.027 10.16,17.204 15.24,40.114 15.24,68.723" /><path
         id="path28"
         style="fill:none;stroke:#231f20;stroke-width:50;stroke-linecap:butt;stroke-linejoin:miter;stroke-miterlimit:10;stroke-dasharray:none;stroke-opacity:1"
         d="m 2735.72,627.969 v -283.61 h -60.41 v 662.701 h 330.65 c 50.6,0 93.95,-3.95 130.03,-11.814 36.11,-7.879 65.67,-19.789 88.72,-35.707 23.04,-15.891 39.88,-35.762 50.52,-59.562 10.63,-23.797 15.95,-51.598 15.95,-83.438 0,-49.519 -13.06,-89.133 -39.16,-118.891 -26.09,-29.73 -68.17,-50.07 -126.17,-60.992 l 226.72,-292.297 h -75.89 l -214.16,285.539 c -9.02,-0.652 -18.22,-1.14 -27.55,-1.46 -9.36,-0.309 -19.03,-0.469 -29.01,-0.469 z m 493.57,188.57 c 0,28.301 -5,51.207 -14.98,68.738 -10.01,17.512 -26.3,31.11 -48.89,40.762 -22.57,9.649 -52.18,16.149 -88.79,19.527 -36.62,3.364 -81.55,5.051 -134.77,5.051 h -206.14 v -266.23 h 204.21 c 53.22,0 98.23,1.531 135,4.601 36.78,3.039 66.62,9.309 89.52,18.801 22.91,9.481 39.44,22.82 49.6,40.027 10.16,17.204 15.24,40.114 15.24,68.723 z" /><path
         id="path30"
         style="fill:#231f20;fill-opacity:1;fill-rule:nonzero;stroke:none"
         d="M 3515.07,344.363 V 1007.06 H 4067.8 V 950.621 H 3580.7 V 722.492 h 462.48 V 667.504 H 3580.7 V 400.805 h 487.1 v -56.442 h -552.73" /><path
         id="path32"
         style="fill:none;stroke:#231f20;stroke-width:50;stroke-linecap:butt;stroke-linejoin:miter;stroke-miterlimit:10;stroke-dasharray:none;stroke-opacity:1"
         d="M 3515.07,344.363 V 1007.06 H 4067.8 V 950.621 H 3580.7 V 722.492 h 462.48 V 667.504 H 3580.7 V 400.805 h 487.1 v -56.442 z" /><path
         id="path34"
         style="fill:#e96f18;fill-opacity:1;fill-rule:nonzero;stroke:none"
         d="m 2089.45,1137.35 -189.09,-325.94 59.97,-128.68 129.12,224.622 114.95,-199.262 148.43,-25.36 -263.38,454.62" /><path
         id="path36"
         style="fill:#7a7e82;fill-opacity:1;fill-rule:nonzero;stroke:none"
         d="m 280.727,71.8203 c 0,7.5078 -0.7,14.1485 -2.094,19.918 -1.399,5.7734 -3.395,10.7817 -6,15.0427 -2.602,4.258 -5.774,7.84 -9.52,10.719 -3.746,2.879 -7.965,5.211 -12.668,6.988 -4.695,1.782 -9.804,3.043 -15.324,3.774 -5.523,0.738 -11.391,1.109 -17.609,1.109 H 162.098 V 14.1719 h 55.414 c 9.328,0 17.859,0.8867 25.605,2.6679 7.746,1.7696 14.395,4.8594 19.946,9.25 5.554,4.3907 9.89,10.3008 13,17.711 3.109,7.4101 4.664,16.75 4.664,28.0195 z m 12.175,0.0508 c 0,-8.8398 -0.875,-16.6992 -2.613,-23.5703 -1.746,-6.8711 -4.203,-12.8594 -7.379,-17.9492 -3.172,-5.0899 -7.023,-9.4102 -11.555,-12.961 C 266.82,13.8281 261.777,10.9883 256.227,8.83984 250.68,6.69922 244.652,5.14063 238.152,4.17188 231.656,3.19922 224.82,2.71094 217.656,2.71094 H 150.203 V 140.832 h 67.258 c 10.719,0 20.68,-1.109 29.871,-3.316 9.199,-2.215 17.172,-5.985 23.926,-11.317 6.758,-5.32 12.051,-12.41 15.89,-21.258 3.832,-8.8394 5.754,-19.8707 5.754,-33.0699" /><path
         id="path38"
         style="fill:#7a7e82;fill-opacity:1;fill-rule:nonzero;stroke:none"
         d="M 454.195,27.2891 C 451.441,21.6211 447.316,16.7695 441.832,12.7109 436.344,8.64844 429.48,5.53125 421.234,3.30859 412.992,1.10156 403.383,0 392.41,0 c -10.972,0 -20.582,1.10156 -28.824,3.30859 -8.242,2.22266 -15.129,5.33985 -20.645,9.40231 -5.519,4.0586 -9.656,8.9102 -12.414,14.5782 -2.757,5.6601 -4.14,11.9414 -4.14,18.8515 v 94.6914 h 11.894 V 45.1289 c 0,-4.6172 1.157,-9 3.473,-13.1172 2.312,-4.1211 5.754,-7.7226 10.32,-10.8008 4.567,-3.0898 10.211,-5.5312 16.938,-7.3398 6.718,-1.8125 14.519,-2.7109 23.398,-2.7109 8.813,0 16.586,0.8984 23.313,2.7109 6.718,1.8086 12.363,4.25 16.929,7.3398 4.567,3.0782 8.008,6.6797 10.321,10.8008 2.316,4.1172 3.472,8.5 3.472,13.1172 V 140.832 H 458.34 V 46.1406 c 0,-6.9101 -1.379,-13.1914 -4.145,-18.8515" /><path
         id="path40"
         style="fill:#7a7e82;fill-opacity:1;fill-rule:nonzero;stroke:none"
         d="M 620.09,8.14063 C 615.613,6.46094 610.973,5.01953 606.148,3.80859 601.328,2.60938 596.258,1.67188 590.93,1 585.602,0.328125 579.801,0 573.523,0 c -7.746,0 -15.179,0.671875 -22.312,2.01172 -7.137,1.33984 -13.777,3.34766 -19.93,6.02734 -6.152,2.67974 -11.734,6.01174 -16.746,10.00004 -5.008,3.9922 -9.305,8.6328 -12.887,13.9218 -3.585,5.3008 -6.343,11.2579 -8.277,17.8907 -1.937,6.6367 -2.902,13.9101 -2.902,21.8203 0,7.9062 0.965,15.1797 2.902,21.8086 1.934,6.6405 4.692,12.5975 8.277,17.8985 3.582,5.293 7.879,9.93 12.887,13.922 5.012,3.988 10.594,7.32 16.746,10 6.153,2.679 12.782,4.691 19.879,6.031 7.11,1.34 14.563,2.012 22.363,2.012 6.278,0 12.079,-0.336 17.407,-1.004 5.328,-0.672 10.398,-1.61 15.218,-2.817 4.825,-1.203 9.465,-2.632 13.942,-4.273 4.469,-1.641 8.988,-3.469 13.555,-5.48 v -15.079 c -3.622,2.418 -7.493,4.688 -11.618,6.84 -4.125,2.141 -8.582,4.02 -13.375,5.629 -4.793,1.61 -9.918,2.879 -15.375,3.82 -5.457,0.942 -11.293,1.411 -17.511,1.411 -12.571,0 -23.457,-1.45 -32.661,-4.321 -9.203,-2.89 -16.8,-6.961 -22.796,-12.218 -6,-5.262 -10.446,-11.633 -13.332,-19.102 -2.887,-7.4687 -4.329,-15.8281 -4.329,-25.0781 0,-9.25 1.442,-17.5938 4.329,-25.0313 2.886,-7.4414 7.332,-13.789 13.332,-19.0508 5.996,-5.2617 13.593,-9.3203 22.796,-12.1601 9.204,-2.8516 20.09,-4.2695 32.661,-4.2695 6.218,0 12.101,0.4609 17.652,1.3984 5.555,0.9414 10.762,2.2109 15.613,3.8203 4.856,1.6094 9.332,3.4727 13.43,5.582 4.094,2.1094 7.82,4.3399 11.184,6.6875 V 13.6719 C 629.078,11.6602 624.559,9.80859 620.09,8.14063" /><path
         id="path42"
         style="fill:#7a7e82;fill-opacity:1;fill-rule:nonzero;stroke:none"
         d="M 734.059,128.672 695.434,50.6602 H 772.59 Z M 796.371,2.71094 778.387,39.1992 H 689.633 L 671.652,2.71094 H 658.621 L 727.02,140.832 H 741 L 809.402,2.71094 h -13.031" /><path
         id="path44"
         style="fill:#7a7e82;fill-opacity:1;fill-rule:nonzero;stroke:none"
         d="M 868.527,129.371 V 2.71094 H 856.734 V 129.371 h -59.457 v 11.461 h 130.707 v -11.461 h -59.457" /><path
         id="path46"
         style="fill:#7a7e82;fill-opacity:1;fill-rule:nonzero;stroke:none"
         d="M 1459.26,2.71094 1345.67,124.34 V 2.71094 h -11.89 V 140.832 h 13.12 L 1460.49,18.7891 V 140.832 h 11.7 V 2.71094 h -12.93" /><path
         id="path48"
         style="fill:#7a7e82;fill-opacity:1;fill-rule:nonzero;stroke:none"
         d="M 1725.7,129.371 V 2.71094 h -11.8 V 129.371 h -59.45 v 11.461 h 130.7 v -11.461 h -59.45" /><path
         id="path50"
         style="fill:#7a7e82;fill-opacity:1;fill-rule:nonzero;stroke:none"
         d="m 1937.26,140.832 46.62,-128.0703 48.32,128.0703 h 13.23 L 1992.82,2.71094 h -17.69 L 1929.27,127.461 1883.51,2.71094 h -17.69 L 1813.21,140.832 h 13.22 l 48.33,-128.0703 46.52,128.0703 h 15.98" /><path
         id="path52"
         style="fill:#7a7e82;fill-opacity:1;fill-rule:nonzero;stroke:none"
         d="m 2217.28,71.6719 c 0,9.789 -1.51,18.4297 -4.52,25.9375 -3.01,7.4996 -7.47,13.8206 -13.37,18.9416 -5.91,5.129 -13.25,9.019 -22.04,11.668 -8.8,2.64 -19,3.972 -30.61,3.972 -11.61,0 -21.85,-1.351 -30.7,-4.019 -8.85,-2.692 -16.26,-6.594 -22.23,-11.723 -5.96,-5.121 -10.47,-11.461 -13.52,-18.9998 -3.04,-7.5273 -4.56,-16.1289 -4.56,-25.7773 0,-9.793 1.52,-18.4336 4.56,-25.9414 3.05,-7.5 7.56,-13.8203 13.52,-18.9414 5.97,-5.1289 13.38,-9.0196 22.23,-11.668 8.85,-2.6406 19.09,-3.9609 30.7,-3.9609 11.61,0 21.81,1.3203 30.61,3.9609 8.79,2.6484 16.13,6.5391 22.04,11.668 5.9,5.1211 10.36,11.4414 13.37,18.9414 3.01,7.5078 4.52,16.1484 4.52,25.9414 z m 12.18,0 c 0,-12.4024 -2.13,-23.1016 -6.37,-32.1211 -4.25,-9.0117 -10.08,-16.4492 -17.5,-22.3125 C 2198.18,11.3711 2189.43,7.03125 2179.35,4.21875 2169.27,1.39844 2158.4,0 2146.74,0 c -11.72,0 -22.66,1.39844 -32.8,4.21875 -10.15,2.8125 -18.95,7.15235 -26.44,13.01955 -7.47,5.8633 -13.34,13.3008 -17.58,22.3125 -4.25,9.0195 -6.37,19.7187 -6.37,32.1211 0,8.2383 0.98,15.7265 2.94,22.4687 1.97,6.7304 4.73,12.7574 8.28,18.0894 3.55,5.329 7.84,9.93 12.88,13.829 5.04,3.882 10.65,7.121 16.83,9.703 6.18,2.57 12.82,4.48 19.91,5.718 7.11,1.243 14.55,1.864 22.35,1.864 11.66,0 22.53,-1.406 32.61,-4.223 10.08,-2.812 18.83,-7.152 26.24,-13.019 7.42,-5.864 13.25,-13.301 17.5,-22.313 4.24,-9.0195 6.37,-19.7187 6.37,-32.1171" /><path
         id="path54"
         style="fill:#7a7e82;fill-opacity:1;fill-rule:nonzero;stroke:none"
         d="m 2373.39,101.129 c 0,5.891 -0.98,10.66 -2.95,14.32 -1.97,3.653 -5.17,6.481 -9.62,8.492 -4.44,2.008 -10.26,3.368 -17.47,4.071 -7.21,0.707 -16.04,1.058 -26.52,1.058 h -40.56 V 73.5781 h 40.18 c 10.47,0 19.33,0.3203 26.57,0.9532 7.23,0.6406 13.11,1.9492 17.61,3.9296 4.51,1.9688 7.76,4.75 9.77,8.3399 1.99,3.5781 2.99,8.3594 2.99,14.3282 z M 2276.27,61.8203 V 2.71094 h -11.9 V 140.832 h 65.07 c 9.96,0 18.49,-0.824 25.6,-2.465 7.1,-1.648 12.92,-4.117 17.45,-7.437 4.53,-3.321 7.85,-7.461 9.94,-12.41 2.1,-4.969 3.14,-10.758 3.14,-17.391 0,-10.3282 -2.57,-18.5899 -7.71,-24.7774 -5.13,-6.2032 -13.41,-10.4532 -24.82,-12.7227 l 44.61,-60.91796 h -14.93 l -42.15,59.50786 c -1.77,-0.129 -3.58,-0.2383 -5.42,-0.2969 -1.84,-0.0703 -3.74,-0.1016 -5.71,-0.1016 h -53.17" /><path
         id="path56"
         style="fill:#7a7e82;fill-opacity:1;fill-rule:nonzero;stroke:none"
         d="m 2438.84,75.7891 97.13,65.0429 h 16.56 l -95.8,-66.2422 101.69,-71.87886 h -20.26 L 2438.84,73.0781 V 2.71094 h -12.17 V 140.832 h 12.17 V 75.7891" /><path
         id="path58"
         style="fill:#7a7e82;fill-opacity:1;fill-rule:nonzero;stroke:none"
         d="M 2803.48,2.71094 V 140.832 h 11.89 V 2.71094 h -11.89" /><path
         id="path60"
         style="fill:#7a7e82;fill-opacity:1;fill-rule:nonzero;stroke:none"
         d="M 2984.9,2.71094 2871.31,124.34 V 2.71094 h -11.89 V 140.832 h 13.13 L 2986.13,18.7891 V 140.832 h 11.7 V 2.71094 h -12.93" /><path
         id="path62"
         style="fill:#7a7e82;fill-opacity:1;fill-rule:nonzero;stroke:none"
         d="M 3053.68,129.07 V 81.5195 h 86.95 V 70.0586 h -86.95 V 2.71094 h -11.9 V 140.832 h 103.51 V 129.07 h -91.61" /><path
         id="path64"
         style="fill:#7a7e82;fill-opacity:1;fill-rule:nonzero;stroke:none"
         d="M 3175.83,2.71094 V 140.832 h 11.89 V 14.4688 h 95.51 V 2.71094 h -107.4" /><path
         id="path66"
         style="fill:#7a7e82;fill-opacity:1;fill-rule:nonzero;stroke:none"
         d="m 3439.1,27.2891 c -2.76,-5.668 -6.88,-10.5196 -12.36,-14.5782 -5.49,-4.06246 -12.36,-7.17965 -20.6,-9.40231 C 3397.9,1.10156 3388.29,0 3377.32,0 c -10.98,0 -20.59,1.10156 -28.83,3.30859 -8.24,2.22266 -15.13,5.33985 -20.64,9.40231 -5.52,4.0586 -9.66,8.9102 -12.42,14.5782 -2.75,5.6601 -4.14,11.9414 -4.14,18.8515 v 94.6914 h 11.9 V 45.1289 c 0,-4.6172 1.15,-9 3.47,-13.1172 2.31,-4.1211 5.75,-7.7226 10.32,-10.8008 4.56,-3.0898 10.21,-5.5312 16.93,-7.3398 6.72,-1.8125 14.53,-2.7109 23.41,-2.7109 8.81,0 16.58,0.8984 23.3,2.7109 6.73,1.8086 12.37,4.25 16.94,7.3398 4.56,3.0782 8,6.6797 10.32,10.8008 2.31,4.1172 3.47,8.5 3.47,13.1172 v 95.7031 h 11.89 V 46.1406 c 0,-6.9101 -1.38,-13.1914 -4.14,-18.8515" /><path
         id="path68"
         style="fill:#7a7e82;fill-opacity:1;fill-rule:nonzero;stroke:none"
         d="M 3758.6,2.71094 3645.02,124.34 V 2.71094 h -11.9 V 140.832 h 13.13 L 3759.84,18.7891 V 140.832 h 11.7 V 2.71094 h -12.94" /><path
         id="path70"
         style="fill:#7a7e82;fill-opacity:1;fill-rule:nonzero;stroke:none"
         d="m 3935.98,8.14063 c -4.48,-1.67969 -9.12,-3.1211 -13.94,-4.33204 -4.82,-1.19921 -9.89,-2.13671 -15.22,-2.80859 -5.33,-0.671875 -11.13,-1 -17.41,-1 -7.74,0 -15.17,0.671875 -22.31,2.01172 -7.13,1.33984 -13.78,3.34766 -19.93,6.02734 -6.15,2.67974 -11.73,6.01174 -16.74,10.00004 -5.01,3.9922 -9.31,8.6328 -12.89,13.9218 -3.59,5.3008 -6.34,11.2579 -8.28,17.8907 -1.94,6.6367 -2.9,13.9101 -2.9,21.8203 0,7.9062 0.96,15.1797 2.9,21.8086 1.94,6.6405 4.69,12.5975 8.28,17.8985 3.58,5.293 7.88,9.93 12.89,13.922 5.01,3.988 10.59,7.32 16.74,10 6.15,2.679 12.78,4.691 19.88,6.031 7.11,1.34 14.56,2.012 22.36,2.012 6.28,0 12.08,-0.336 17.41,-1.004 5.33,-0.672 10.4,-1.61 15.22,-2.817 4.82,-1.203 9.46,-2.632 13.94,-4.273 4.47,-1.641 8.99,-3.469 13.55,-5.48 v -15.079 c -3.62,2.418 -7.49,4.688 -11.61,6.84 -4.13,2.141 -8.59,4.02 -13.38,5.629 -4.79,1.61 -9.91,2.879 -15.37,3.82 -5.46,0.942 -11.3,1.411 -17.52,1.411 -12.56,0 -23.45,-1.45 -32.65,-4.321 -9.21,-2.89 -16.81,-6.961 -22.8,-12.218 -6,-5.262 -10.44,-11.633 -13.33,-19.102 -2.89,-7.4687 -4.33,-15.8281 -4.33,-25.0781 0,-9.25 1.44,-17.5938 4.33,-25.0313 2.89,-7.4414 7.33,-13.789 13.33,-19.0508 5.99,-5.2617 13.59,-9.3203 22.8,-12.1601 9.2,-2.8516 20.09,-4.2695 32.65,-4.2695 6.22,0 12.11,0.4609 17.66,1.3984 5.55,0.9414 10.76,2.2109 15.61,3.8203 4.86,1.6094 9.33,3.4727 13.43,5.582 4.09,2.1094 7.82,4.3399 11.18,6.6875 V 13.6719 c -4.56,-2.0117 -9.08,-3.86331 -13.55,-5.53127" /><path
         id="path72"
         style="fill:#7a7e82;fill-opacity:1;fill-rule:nonzero;stroke:none"
         d="M 3984.82,2.71094 V 140.832 h 108.93 V 129.07 h -95.99 V 81.5195 h 91.14 V 70.0586 h -91.14 V 14.4688 h 95.98 V 2.71094 h -108.92" /><path
         id="path74"
         style="fill:#7a7e82;fill-opacity:1;fill-rule:nonzero;stroke:none"
         d="M 1510.66,2.71094 V 140.832 h 108.93 V 129.07 H 1523.6 V 81.5195 h 91.14 V 70.0586 H 1523.6 V 14.4688 h 95.98 V 2.71094 h -108.92" /><path
         id="path76"
         style="fill:#7b7979;fill-opacity:1;fill-rule:nonzero;stroke:none"
         d="m 1181.38,73.5195 v 25.5313 l 22.1,-12.7617 22.11,-12.7696 -22.11,-12.7578 -22.1,-12.7734 v 25.5312" /><path
         id="path78"
         style="fill:#7b7979;fill-opacity:1;fill-rule:nonzero;stroke:none"
         d="m 2651.08,73.5195 v 25.5313 l 22.11,-12.7617 22.1,-12.7696 -22.1,-12.7578 -22.11,-12.7734 v 25.5312" /><path
         id="path80"
         style="fill:#7a7e82;fill-opacity:1;fill-rule:nonzero;stroke:none"
         d="M 3486.05,2.71094 V 140.832 h 108.92 V 129.07 h -95.98 V 81.5195 h 91.13 V 70.0586 h -91.13 V 14.4688 h 95.98 V 2.71094 h -108.92" /><path
         id="path82"
         style="fill:#7a7e82;fill-opacity:1;fill-rule:nonzero;stroke:none"
         d="M 964.266,2.71094 V 140.832 H 1073.19 V 129.07 H 977.203 V 81.5195 h 91.137 V 70.0586 H 977.203 V 14.4688 h 95.977 V 2.71094 H 964.266" /><path
         id="path84"
         style="fill:#7a7e82;fill-opacity:1;fill-rule:nonzero;stroke:none"
         d="M 3.84375,2.71094 V 140.832 H 112.77 V 129.07 H 16.7813 V 81.5195 H 107.918 V 70.0586 H 16.7813 V 14.4688 H 112.762 V 2.71094 H 3.84375" /></g></g></svg>