<svg xmlns="http://www.w3.org/2000/svg" role="img" viewBox="-10.17 -10.17 528.84 127.34"><title>SideFX logo</title><path fill="#f3632a" d="M27.80557 67.51826c5.2848-1.12864 7.43728-5.82225 7.43728-9.4623 0-3.83896-3.61764-10.04254-12.59808-9.82948-11.11224.2636-18.10478 8.25766-18.3407 18.14021C4.00719 78.81171 15.648 86.99111 27.5957 87.13964c17.54116.21866 27.94663-11.28825 27.92424-28.13996-.01974-15.25949-12.26636-29.95085-30.67324-30.58724C14.7663 28.06392 6.416 30.84358 0 35.38614v11.29931c6.04048-7.09942 15.0387-10.41174 22.91303-10.33267 13.3454.13386 23.64047 10.19974 23.70034 21.57706.0568 10.87532-4.49936 18.88086-16.79385 20.85428-6.7045 1.07597-17.19536-2.8562-16.7287-12.98408.24062-5.22334 4.30821-8.17166 8.9685-7.95913-4.55922 6.11118 1.47756 10.58973 5.74625 9.67735"/><path fill="#f3632a" d="M89.77282 68.13638l16.2464 8.30926V53.29195l-13.03874 1.2813 13.03874-7.23168V.00368H79.81054C80.9245 3.71306 84.56349 6.363 84.56349 12.5711c0 8.57432-10.13882 10.5284-10.32841 19.32245-.18333 8.49672 6.19518 10.62107 6.3837 17.72356.186 6.99716-2.83686 10.14401-2.83686 10.14401s1.6745-2.12594.96038-7.29875C77.28873 41.93024 67.31858 41.13812 67.04206 31.9061c-.24106-8.06073 5.4832-9.84669 5.40253-17.03238-.08853-7.92687-7.29315-10.6956-8.12166-14.87003H0v24.64899c6.94619-3.99524 15.30842-6.4317 24.84671-6.42597 25.75362.0156 42.10215 18.00901 42.09588 40.70991-.0068 23.49581-16.34119 38.31262-38.44437 38.55897C15.85227 97.63724 6.05714 92.24938 0 84.94116v21.0818h69.63733l8.1446-30.07264 7.17008 30.07265h21.0672v-19.7729L89.77283 68.13637"/><path fill="#100f0d" d="M123.9605 94.4191l5.57426-6.59828c8.30446 7.50815 16.26826 11.26327 27.30399 11.26327 10.69306 0 17.74622-5.68887 17.74622-13.53921v-.22706c0-7.39368-3.98257-11.60344-20.70482-15.12936-18.31687-3.98216-26.73386-9.89815-26.73386-22.98062v-.22773c0-12.51262 11.03559-21.72706 26.16454-21.72706 11.60371 0 19.9075 3.29845 27.98597 9.78216l-5.23453 6.94036c-7.39315-6.02892-14.78897-8.64512-22.97943-8.64512-10.3504 0-16.94891 5.68693-16.94891 12.85501v.22706c0 7.50808 4.09456 11.71638 21.61413 15.47148 17.74622 3.86764 25.93668 10.35121 25.93668 22.52384v.2276c0 13.65179-11.37571 22.52396-27.18865 22.52396-12.62769 0-22.97943-4.2077-32.53559-12.7403m69.35733-47.21126h8.75978v58.8146h-8.75978zm-.56798-22.5245h10.00908v9.66949h-10.00908v-9.6695m70.57557 51.98937v-.2276c0-13.53725-10.35308-22.63903-21.27414-22.63903-11.37571 0-20.70348 8.41806-20.70348 22.63904v.2276c0 13.87871 9.6691 22.75146 20.70348 22.75146 10.92106 0 21.27414-9.21487 21.27414-22.75147zm-50.96406.1124v-.2276c0-19.22392 13.99165-30.59963 28.09796-30.59963 10.92106 0 17.97422 5.91438 22.52477 12.51262V22.97711h8.75978v83.04534h-8.75978V94.19202c-4.77855 7.05295-11.71837 13.08196-22.52477 13.08196-14.10631 0-28.09796-11.14815-28.09796-30.48888m115.39445-3.41085c-.90931-10.694-7.05316-20.02283-18.77153-20.02283-10.23708 0-17.97422 8.53258-19.11153 20.02283zm-46.75484 3.41085v-.2276c0-16.94957 11.9437-30.59963 28.2113-30.59963 17.40623 0 27.41531 13.87725 27.41531 31.05642 0 1.13704 0 1.8193-.112 2.84366h-46.64283c1.25197 12.74035 10.23975 19.9084 20.70482 19.9084 8.07846 0 13.76499-3.30044 18.5422-8.30495l5.4612 4.8915c-5.91585 6.5988-13.08234 11.0341-24.23006 11.0341-16.1556 0-29.34994-12.40021-29.34994-30.6019m66.75967-50.395h60.63448v15.9256h-43.11625v16.9517h37.99638v15.92614h-37.99638v30.8289h-17.51823V26.3901m139.6765 0l-26.61933 38.90623 27.75664 40.72613h-20.47682l-17.86089-27.30353-17.97421 27.30353h-19.90884l27.7593-40.4984-26.61933-39.13396h20.47549l16.60892 25.82429 16.95024-25.82429h19.90884"/><path fill="#231f20" d="M499.9155 33.31539h1.06664c.368 0 .67732-.0328.92398-.09947.24666-.06613.44399-.16253.59065-.28746.14666-.1256.24933-.28226.308-.47025.06-.1876.08932-.40373.08932-.64799 0-.2364-.02666-.44212-.07866-.61665-.052-.174-.14533-.31866-.27733-.43332-.132-.11506-.30932-.2016-.53332-.26146-.22266-.05933-.50398-.08853-.8453-.08853h-1.24398zm0 1.40983v3.53284h-1.94395V28.9155h3.18792c1.2533 0 2.17728.22399 2.76926.66931.59199.44572.88798 1.10357.88798 1.97435 0 .63439-.17066 1.1833-.51198 1.6469-.34133.46252-.86398.7921-1.56797.9869.14.08333.256.18653.35066.3084.09467.1224.18266.26346.26533.42345l2.13195 3.33325h-1.8693c-.27198 0-.46665-.10106-.58664-.30372l-1.78662-2.9254c-.06934-.09746-.14533-.1724-.22933-.22453-.08267-.05253-.216-.0792-.39733-.0792zm-5.09987-1.11704c0 .91917.16666 1.77795.49732 2.57593.33066.79732.78531 1.49063 1.36263 2.07915.57865.58852 1.25997 1.05358 2.04395 1.39477.78265.34159 1.62396.51238 2.5226.51238.59999 0 1.1773-.07706 1.73596-.23012.55599-.1532 1.07464-.37093 1.55196-.65319.476-.28226.91198-.62185 1.3053-1.01864.39333-.39746.73065-.83958 1.00931-1.32663.27733-.48852.49332-1.01184.64665-1.5733.15333-.56038.23066-1.14743.23066-1.76035 0-.61305-.07733-1.2037-.23066-1.77142-.15333-.56812-.36932-1.09518-.64665-1.58383-.27866-.48692-.61598-.93118-1.0093-1.33223-.39333-.40053-.82932-.74319-1.3053-1.02905-.47733-.28546-.99598-.50678-1.55197-.66305-.55865-.15786-1.13597-.23599-1.73595-.23599-.89865 0-1.73996.17293-2.5226.51825-.78399.34426-1.4653.81452-2.04396 1.40984-.57732.59638-1.03197 1.29583-1.36263 2.10048-.33066.80518-.49732 1.66662-.49732 2.587zm-1.24264 0c0-.70425.08933-1.3829.27066-2.03862.18133-.65411.43866-1.26703.77465-1.83849.33333-.57131.73465-1.08997 1.2013-1.55716.46666-.46665.98398-.86717 1.55063-1.20157.56799-.33439 1.17997-.59425 1.83462-.77918.65465-.1844 1.33464-.27599 2.03729-.27599.70398 0 1.38263.0916 2.03861.276.65465.18492 1.26797.44478 1.83862.77917.57199.3344 1.09064.73492 1.5573 1.20157.46665.4672.86797.98585 1.2013 1.55716.33466.57146.59198 1.18438.77331 1.8385.18133.6557.272 1.33436.272 2.0386 0 .70306-.092 1.38277-.27733 2.03742-.184.65519-.44132 1.26664-.77331 1.83382-.33066.56759-.72932 1.08478-1.19597 1.55143-.46666.4672-.98531.86771-1.5573 1.2021-.57065.33386-1.18397.59266-1.83862.77399-.65598.18013-1.33463.27132-2.03861.27132-.70265 0-1.38264-.0912-2.03729-.27132-.65465-.18133-1.26663-.44013-1.83462-.77398-.56665-.3344-1.08397-.73492-1.55063-1.2021-.46665-.46666-.86797-.98385-1.2013-1.55144-.336-.56718-.59332-1.17863-.77465-1.83382-.18133-.65465-.27066-1.33436-.27066-2.03741"/></svg>