<?xml version="1.0" standalone="no"?>
<!DOCTYPE svg PUBLIC "-//W3C//DTD SVG 20010904//EN"
 "http://www.w3.org/TR/2001/REC-SVG-20010904/DTD/svg10.dtd">
<svg version="1.0" xmlns="http://www.w3.org/2000/svg"
 width="299.000000pt" height="447.000000pt" viewBox="0 0 299.000000 447.000000"
 preserveAspectRatio="xMidYMid meet">

<g transform="translate(0.000000,447.000000) scale(0.100000,-0.100000)"
fill="#000000" stroke="none">
<path d="M1350 4427 c-19 -6 -55 -32 -80 -57 -62 -62 -84 -138 -61 -216 8 -30
-6 -51 -338 -505 l-347 -474 -60 -6 c-32 -3 -76 -14 -96 -23 -44 -21 -95 -75
-114 -122 -18 -42 -17 -141 0 -173 12 -22 11 -29 -19 -75 -87 -137 -159 -316
-197 -489 -29 -136 -32 -417 -5 -550 60 -295 192 -544 401 -753 233 -232 510
-370 839 -415 l87 -12 0 -234 0 -234 25 -24 c30 -30 64 -32 99 -4 l26 20 0
238 0 238 78 7 c625 56 1138 514 1283 1145 24 103 36 380 21 486 -9 66 -8 72
16 102 74 98 68 216 -18 305 -33 34 -58 50 -93 60 -45 12 -50 17 -92 88 -25
41 -66 103 -92 137 -27 34 -122 157 -213 274 -91 117 -168 218 -172 225 -4 6
0 26 9 45 25 50 21 138 -8 196 -46 88 -154 143 -241 124 l-37 -9 -149 195
c-147 192 -149 195 -142 234 32 173 -136 311 -310 256z m10 -862 l0 -425 -39
-20 c-103 -52 -150 -190 -102 -295 19 -43 85 -109 120 -120 21 -6 21 -10 21
-291 l0 -284 -27 -11 c-32 -12 9 -53 -367 368 l-295 332 14 35 c22 53 19 123
-10 183 l-24 53 336 459 c293 400 339 458 355 450 17 -9 18 -34 18 -434z m333
265 l137 -180 -15 -31 c-24 -46 -29 -117 -12 -168 l16 -44 -131 -141 c-72 -78
-135 -143 -140 -144 -5 -2 -15 2 -23 8 -13 11 -15 76 -15 436 0 392 1 424 18
433 9 6 19 10 22 10 3 0 67 -81 143 -179z m360 -538 l50 3 175 -225 c227 -294
259 -337 289 -388 l25 -42 -31 -35 c-17 -20 -38 -52 -46 -72 -19 -46 -19 -134
0 -179 8 -20 12 -41 8 -48 -11 -17 -964 -1036 -970 -1036 -2 0 -13 5 -24 10
-18 10 -19 23 -19 210 l0 199 28 15 c151 78 163 300 20 391 l-47 30 0 285 -1
285 49 32 c71 46 105 118 99 210 l-4 68 139 151 140 152 35 -10 c19 -5 57 -8
85 -6z m-1583 -587 c14 0 39 3 56 7 30 7 38 -1 355 -357 l324 -365 -3 -64 c-3
-47 1 -76 16 -108 22 -51 75 -107 114 -120 l28 -10 0 -199 c0 -157 -3 -199
-13 -199 -28 0 -99 -64 -122 -111 -32 -62 -34 -152 -6 -207 23 -45 76 -97 114
-111 26 -10 27 -13 27 -81 l0 -69 -27 4 c-16 2 -58 9 -95 15 -354 56 -687 280
-883 594 -247 396 -255 917 -20 1318 44 76 46 77 78 70 17 -3 43 -7 57 -7z
m2270 -502 c11 -10 4 -343 -9 -413 -21 -118 -68 -256 -127 -371 -193 -378
-544 -631 -964 -694 -141 -22 -130 -27 -130 58 l1 72 43 26 c27 17 55 46 72
75 25 41 29 60 29 122 l1 72 499 535 499 535 40 -7 c23 -3 43 -8 46 -10z"/>
</g>
</svg>
