<?xml version="1.0" encoding="utf-8"?>
<!-- Generator: Adobe Illustrator 19.2.1, SVG Export Plug-In . SVG Version: 6.00 Build 0)  -->
<svg version="1.1" id="Layer_1" xmlns="http://www.w3.org/2000/svg" xmlns:xlink="http://www.w3.org/1999/xlink" x="0px" y="0px"
	 viewBox="0 0 381.7 79.5" style="enable-background:new 0 0 381.7 79.5;" xml:space="preserve">
<style type="text/css">
	.st0{fill:#FF6600;}
	.st1{fill:#FFFFFF;}
</style>
<g>
	<g>
		<path class="st0" d="M20.9,50.6c4-0.8,5.6-4.4,5.6-7.1c0-2.9-2.7-7.5-9.4-7.4C8.6,36.4,3.4,42.4,3.2,49.8
			C3,59.1,11.7,65.2,20.7,65.4c13.2,0.2,21-8.5,20.9-21.1c0-11.4-9.2-22.5-23-22.9C11.1,21,4.8,23.1,0,26.5V35
			c4.5-5.3,11.3-7.8,17.2-7.7c10,0.1,17.7,7.7,17.8,16.2c0,8.2-3.4,14.2-12.6,15.6c-5,0.8-12.9-2.1-12.5-9.7c0.2-3.9,3.2-6.1,6.7-6
			C13.1,48,17.7,51.3,20.9,50.6z"/>
		<path class="st0" d="M67.3,51.1l12.2,6.2V40l-9.8,1l9.8-5.4V0H59.9c0.8,2.8,3.6,4.8,3.6,9.4c0,6.4-7.6,7.9-7.7,14.5
			c-0.1,6.4,4.6,8,4.8,13.3c0.1,5.2-2.1,7.6-2.1,7.6s1.3-1.6,0.7-5.5c-1.1-7.9-8.6-8.5-8.8-15.4c-0.2-6,4.1-7.4,4.1-12.8
			c-0.1-5.9-5.5-8-6.1-11.2H0v18.5c5.2-3,11.5-4.8,18.6-4.8c19.3,0,31.6,13.5,31.6,30.5c0,17.6-12.3,28.7-28.8,28.9
			C11.9,73.2,4.5,69.2,0,63.7v15.8h52.2L58.3,57l5.4,22.6h15.8V64.7L67.3,51.1z"/>
	</g>
	<g>
		<path class="st1" d="M93,70.8l4.2-4.9c6.2,5.6,12.2,8.4,20.5,8.4c8,0,13.3-4.3,13.3-10.2V64c0-5.5-3-8.7-15.5-11.3
			c-13.7-3-20.1-7.4-20.1-17.2v-0.2c0-9.4,8.3-16.3,19.6-16.3c8.7,0,14.9,2.5,21,7.3l-3.9,5.2C126.5,27,121,25,114.8,25
			c-7.8,0-12.7,4.3-12.7,9.6v0.2c0,5.6,3.1,8.8,16.2,11.6c13.3,2.9,19.5,7.8,19.5,16.9v0.2c0,10.2-8.5,16.9-20.4,16.9
			C107.9,80.4,100.1,77.2,93,70.8z"/>
		<path class="st1" d="M144.6,18.5h7.5v7.3h-7.5V18.5z M145,35.4h6.6v44.1H145V35.4z"/>
		<path class="st1" d="M159.3,57.6v-0.2c0-14.4,10.5-23,21.1-23c8.2,0,13.5,4.4,16.9,9.4V17.2h6.6v62.3h-6.6v-8.9
			c-3.6,5.3-8.8,9.8-16.9,9.8C169.8,80.5,159.3,72.1,159.3,57.6z M197.5,57.5v-0.2c0-10.2-7.8-17-16-17c-8.5,0-15.5,6.3-15.5,17v0.2
			c0,10.4,7.3,17.1,15.5,17.1C189.7,74.6,197.5,67.7,197.5,57.5z"/>
		<path class="st1" d="M210.8,57.6v-0.2c0-12.7,9-23,21.2-23c13.1,0,20.6,10.4,20.6,23.3c0,0.9,0,1.4-0.1,2.1h-35
			c0.9,9.6,7.7,14.9,15.5,14.9c6.1,0,10.3-2.5,13.9-6.2l4.1,3.7c-4.4,4.9-9.8,8.3-18.2,8.3C220.7,80.5,210.8,71.2,210.8,57.6z
			 M245.8,55c-0.7-8-5.3-15-14.1-15c-7.7,0-13.5,6.4-14.3,15H245.8z"/>
		<path class="st1" d="M260.8,19.8h45.5v11.9H274v12.7h28.5v11.9H274v23.1h-13.1V19.8z"/>
		<path class="st1" d="M365.6,19.8l-20,29.2l20.8,30.5h-15.4L337.7,59l-13.5,20.5h-14.9l20.8-30.4l-20-29.4h15.4l12.5,19.4
			l12.7-19.4H365.6z"/>
	</g>
	<g>
		<path class="st1" d="M370.2,25.2c0-0.5,0.1-1,0.2-1.5c0.1-0.5,0.3-1,0.6-1.4c0.3-0.4,0.6-0.8,0.9-1.2c0.3-0.4,0.7-0.7,1.2-0.9
			c0.4-0.3,0.9-0.4,1.4-0.6c0.5-0.1,1-0.2,1.5-0.2c0.5,0,1,0.1,1.5,0.2c0.5,0.1,1,0.3,1.4,0.6s0.8,0.6,1.2,0.9
			c0.4,0.4,0.7,0.7,0.9,1.2c0.3,0.4,0.4,0.9,0.6,1.4c0.1,0.5,0.2,1,0.2,1.5c0,0.5-0.1,1-0.2,1.5c-0.1,0.5-0.3,0.9-0.6,1.4
			c-0.2,0.4-0.5,0.8-0.9,1.2s-0.7,0.7-1.2,0.9s-0.9,0.4-1.4,0.6c-0.5,0.1-1,0.2-1.5,0.2c-0.5,0-1-0.1-1.5-0.2
			c-0.5-0.1-0.9-0.3-1.4-0.6c-0.4-0.3-0.8-0.6-1.2-0.9c-0.4-0.4-0.7-0.7-0.9-1.2c-0.3-0.4-0.4-0.9-0.6-1.4
			C370.3,26.2,370.2,25.7,370.2,25.2z M371.1,25.2c0,0.7,0.1,1.3,0.4,1.9s0.6,1.1,1,1.6c0.4,0.4,0.9,0.8,1.5,1
			c0.6,0.3,1.2,0.4,1.9,0.4c0.4,0,0.9-0.1,1.3-0.2c0.4-0.1,0.8-0.3,1.2-0.5c0.4-0.2,0.7-0.5,1-0.8c0.3-0.3,0.5-0.6,0.8-1
			c0.2-0.4,0.4-0.8,0.5-1.2c0.1-0.4,0.2-0.9,0.2-1.3s-0.1-0.9-0.2-1.3c-0.1-0.4-0.3-0.8-0.5-1.2c-0.2-0.4-0.5-0.7-0.8-1
			c-0.3-0.3-0.6-0.6-1-0.8s-0.7-0.4-1.2-0.5c-0.4-0.1-0.9-0.2-1.3-0.2c-0.7,0-1.3,0.1-1.9,0.4c-0.6,0.3-1.1,0.6-1.5,1.1
			c-0.4,0.4-0.8,1-1,1.6C371.2,23.9,371.1,24.5,371.1,25.2z M374.9,26v2.6h-1.5v-7h2.4c0.9,0,1.6,0.2,2.1,0.5
			c0.4,0.3,0.7,0.8,0.7,1.5c0,0.5-0.1,0.9-0.4,1.2c-0.3,0.3-0.6,0.6-1.2,0.7c0.1,0.1,0.2,0.1,0.3,0.2c0.1,0.1,0.1,0.2,0.2,0.3
			l1.6,2.5h-1.4c-0.2,0-0.4-0.1-0.4-0.2l-1.3-2.2c-0.1-0.1-0.1-0.1-0.2-0.2c-0.1,0-0.2-0.1-0.3-0.1H374.9z M374.9,25h0.8
			c0.3,0,0.5,0,0.7-0.1c0.2,0,0.3-0.1,0.4-0.2c0.1-0.1,0.2-0.2,0.2-0.4c0-0.1,0.1-0.3,0.1-0.5c0-0.2,0-0.3-0.1-0.5
			c0-0.1-0.1-0.2-0.2-0.3c-0.1-0.1-0.2-0.2-0.4-0.2c-0.2,0-0.4-0.1-0.6-0.1h-0.9V25z"/>
	</g>
</g>
</svg>
