<svg xmlns="http://www.w3.org/2000/svg" role="img" viewBox="8.02 23.77 363.22 100.47"><path fill-rule="evenodd" d="M78.9355 30.7942C83.215 30.7942 87.494 30.7942 91.7735 30.7942C91.7735 35.0194 91.7735 39.2445 91.7735 43.4697C87.494 43.4697 83.215 43.4697 78.9355 43.4697C78.9355 39.2445 78.9355 35.0194 78.9355 30.7942Z" clip-rule="evenodd" opacity=".994"/><path fill-rule="evenodd" d="M276.301 30.7873C279.104 30.6405 281.861 30.9157 284.574 31.613C290.971 33.5257 295.047 37.6691 296.801 44.043C297.158 45.4081 297.406 46.7916 297.547 48.1939C294.564 48.1939 291.58 48.1939 288.597 48.1939C288.421 46.1051 287.857 44.1264 286.902 42.2577C285.761 40.2691 284.066 38.9823 281.816 38.3971C279.972 37.9352 278.104 37.8013 276.211 37.9954C272.791 38.3913 270.177 40.0204 268.368 42.8826C267.096 45.1015 266.313 47.4816 266.017 50.0235C265.752 52.2847 265.654 54.5537 265.723 56.8301C265.611 59.6847 265.799 62.5189 266.288 65.3327C268.033 73.7761 273.178 77.0715 281.726 75.2187C284.415 74.5124 286.306 72.8983 287.399 70.3758C288.025 68.8551 288.424 67.2785 288.597 65.6449C291.58 65.6449 294.564 65.6449 297.547 65.6449C297.286 69.2251 296.148 72.4983 294.135 75.4638C291.422 79.0597 287.828 81.3283 283.353 82.2704C280.039 82.9591 276.709 83.0483 273.363 82.5382C266.773 81.239 262.064 77.5867 259.236 71.5811C257.687 68.0837 256.858 64.4239 256.75 60.6014C256.719 58.1469 256.719 55.6919 256.75 53.2374C256.86 49.45 257.674 45.8201 259.191 42.347C262.162 36.0082 267.142 32.2368 274.131 31.0328C274.859 30.9305 275.583 30.8486 276.301 30.7873Z" clip-rule="evenodd" opacity=".995"/><path fill-rule="evenodd" d="M106.285 31.4626C110.805 31.4626 115.326 31.4626 119.846 31.4626C119.846 55.5342 119.846 79.606 119.846 103.677C131.6 103.677 143.353 103.677 155.106 103.677C155.106 108.275 155.106 112.872 155.106 117.469C138.832 117.469 122.559 117.469 106.285 117.469C106.285 88.8 106.285 60.131 106.285 31.4626Z" clip-rule="evenodd" opacity=".998"/><path fill-rule="evenodd" d="M166.272 31.4626C177.392 31.4626 188.513 31.4626 199.633 31.4626C199.633 33.843 199.633 36.2234 199.633 38.6038C191.496 38.6038 183.359 38.6038 175.222 38.6038C175.222 43.2604 175.222 47.9169 175.222 52.5738C182.259 52.5738 189.296 52.5738 196.333 52.5738C196.333 54.9094 196.333 57.2455 196.333 59.5807C189.296 59.5807 182.259 59.5807 175.222 59.5807C175.222 64.7583 175.222 69.9356 175.222 75.1128C183.435 75.1128 191.647 75.1128 199.859 75.1128C199.859 77.4637 199.859 79.8141 199.859 82.1645C188.663 82.1645 177.468 82.1645 166.272 82.1645C166.272 65.2639 166.272 48.3632 166.272 31.4626Z" clip-rule="evenodd" opacity=".996"/><path fill-rule="evenodd" d="M207.092 31.4592C210.091 31.4443 213.089 31.4592 216.088 31.5038C223.705 43.4801 231.322 55.4565 238.939 67.4325C238.962 55.4413 238.969 43.4503 238.962 31.4592C241.93 31.4592 244.898 31.4592 247.867 31.4592C247.867 48.3599 247.867 65.2606 247.867 82.1613C244.858 82.1761 241.852 82.1613 238.849 82.1164C231.254 70.1853 223.66 58.2533 216.065 46.3217C216.043 58.2685 216.035 70.2144 216.043 82.1613C213.059 82.1613 210.076 82.1613 207.092 82.1613C207.092 65.2606 207.092 48.3599 207.092 31.4592Z" clip-rule="evenodd" opacity=".995"/><path fill-rule="evenodd" d="M305.458 31.4626C316.579 31.4626 327.699 31.4626 338.82 31.4626C338.82 33.843 338.82 36.2234 338.82 38.6038C330.683 38.6038 322.546 38.6038 314.409 38.6038C314.409 43.2604 314.409 47.9169 314.409 52.5738C321.446 52.5738 328.483 52.5738 335.52 52.5738C335.52 54.9094 335.52 57.2455 335.52 59.5807C328.483 59.5807 321.446 59.5807 314.409 59.5807C314.409 64.7583 314.409 69.9356 314.409 75.1128C322.622 75.1128 330.833 75.1128 339.046 75.1128C339.046 77.4637 339.046 79.8141 339.046 82.1645C327.85 82.1645 316.655 82.1645 305.458 82.1645C305.458 65.2639 305.458 48.3632 305.458 31.4626Z" clip-rule="evenodd" opacity=".996"/><path fill-rule="evenodd" d="M34.7251 31.9041C39.352 31.8827 43.978 31.905 48.603 31.9711C55.4966 32.9044 60.4772 36.4377 63.5434 42.5712C64.5801 44.6825 65.2656 46.8993 65.6002 49.2216C61.7238 50.9189 57.851 52.6297 53.9825 54.3539C53.2716 51.9818 52.1036 49.8695 50.479 48.0163C48.7689 46.1266 46.6368 45.0034 44.0825 44.6466C41.9136 44.5744 39.7438 44.5595 37.573 44.6019C35.7022 44.7671 34.0748 45.4664 32.6908 46.6996C31.3761 47.9238 30.4042 49.3746 29.7751 51.0512C29.6807 51.3874 29.6204 51.7297 29.5943 52.078C29.5641 53.9224 29.5641 55.7673 29.5943 57.6122C29.7167 59.181 30.3043 60.5496 31.3573 61.7183C32.5551 62.9462 33.9188 63.9503 35.4483 64.731C38.1191 66.0413 40.8916 67.0976 43.7661 67.9001C44.7305 68.1679 45.6949 68.4357 46.6594 68.7034C48.7125 69.2103 50.7619 69.7307 52.8071 70.2653C58.8337 72.2883 63.0909 76.1936 65.5776 81.9814C66.3208 83.7315 66.7353 85.5537 66.8209 87.4486C66.7987 91.2656 66.7612 95.0817 66.7076 98.8968C66.0166 103.117 64.2386 106.807 61.3734 109.966C58.3876 112.984 54.7941 114.955 50.5923 115.879C49.7867 116.062 48.9727 116.195 48.1509 116.281C42.9976 116.311 37.8442 116.311 32.6908 116.281C30.1962 116.045 27.9209 115.227 25.8649 113.826C23.5368 112.183 21.5402 110.211 19.8752 107.912C18.0529 105.417 16.531 102.739 15.3094 99.8787C15.1848 99.6035 15.0869 99.3209 15.0156 99.031C19.0899 97.3377 23.1583 95.6265 27.221 93.8981C27.937 98.8029 30.6493 102.098 35.3579 103.784C35.8627 103.945 36.375 104.08 36.8949 104.186C40.1195 104.216 43.3442 104.216 46.5689 104.186C48.4574 103.942 49.972 103.071 51.1118 101.575C52.2913 99.9564 53.0299 98.1564 53.3271 96.1741C53.371 93.7034 53.3553 91.2341 53.2818 88.7653C52.9744 86.9014 52.1383 85.3169 50.773 84.0122C49.544 82.8768 48.1431 81.9989 46.5689 81.3787C41.7666 80.1008 37.005 78.6874 32.284 77.1385C30.4141 76.5576 28.6059 75.8287 26.8594 74.9518C21.7027 72.0866 18.5911 67.765 17.5245 61.9861C17.4411 61.4681 17.3808 60.9473 17.3437 60.4242C17.3135 56.2585 17.3135 52.0928 17.3437 47.927C18.2959 42.7627 20.9555 38.7086 25.3224 35.7648C28.2034 33.8817 31.3377 32.5948 34.7251 31.9041Z" clip-rule="evenodd" opacity=".997"/><path fill-rule="evenodd" d="M78.9354 94.4781C83.2149 94.4781 87.4939 94.4781 91.7734 94.4781C91.7812 98.7035 91.7734 102.928 91.7507 107.154C87.5008 110.406 83.2435 113.649 78.9803 116.883C78.9354 109.415 78.9202 101.947 78.9354 94.4781Z" clip-rule="evenodd" opacity=".994"/><path fill-rule="evenodd" d="M359.163 101.714C360.846 101.75 362.518 101.898 364.18 102.16C364.122 102.635 364.07 103.111 364.022 103.588C363.997 103.612 363.967 103.627 363.932 103.633C362.537 103.441 361.136 103.323 359.728 103.276C358.83 103.206 357.994 103.392 357.219 103.834C356.47 104.519 356.206 105.36 356.428 106.356C356.524 106.926 356.818 107.365 357.309 107.672C357.611 107.841 357.927 107.975 358.259 108.074C359.175 108.308 360.094 108.532 361.016 108.743C361.731 108.925 362.409 109.193 363.05 109.547C363.669 109.92 364.083 110.448 364.293 111.131C365.013 115.584 363.091 117.615 358.53 117.223C357.259 117.118 355.994 116.978 354.732 116.799C354.789 116.307 354.857 115.816 354.936 115.327C356.576 115.563 358.226 115.689 359.886 115.706C361.786 115.608 362.735 114.619 362.734 112.738C362.75 111.644 362.237 110.923 361.197 110.573C360.9 110.47 360.598 110.381 360.293 110.305C359.121 110.106 357.976 109.808 356.857 109.413C355.423 108.844 354.677 107.795 354.62 106.266C354.429 103.733 355.596 102.252 358.123 101.825C358.476 101.789 358.823 101.752 359.163 101.714Z" clip-rule="evenodd" opacity=".975"/><path fill-rule="evenodd" d="M210.256 101.761C211.562 101.658 212.828 101.83 214.053 102.274 215.397 102.932 216.264 103.981 216.652 105.42 216.917 106.369 217.068 107.337 217.104 108.321 217.175 109.771 217.115 111.214 216.924 112.651 216.782 113.652 216.435 114.575 215.884 115.418 215.056 116.44 213.98 117.028 212.652 117.181 211.264 117.383 209.893 117.309 208.538 116.957 206.98 116.431 205.978 115.382 205.532 113.811 205.274 112.906 205.123 111.984 205.08 111.044 205.05 110.077 205.05 109.11 205.08 108.143 205.127 106.976 205.353 105.845 205.758 104.751 206.303 103.453 207.246 102.568 208.583 102.095 209.139 101.939 209.696 101.828 210.256 101.761zM210.301 103.323C213.133 102.99 214.752 104.21 215.16 106.982 215.384 108.844 215.368 110.704 215.116 112.561 214.991 113.498 214.592 114.293 213.918 114.949 213.398 115.347 212.811 115.585 212.154 115.663 211.226 115.785 210.307 115.74 209.397 115.529 208.216 115.142 207.485 114.346 207.205 113.141 207.027 112.468 206.922 111.784 206.888 111.088 206.858 110.106 206.858 109.125 206.888 108.143 206.927 107.323 207.063 106.52 207.295 105.733 207.78 104.294 208.782 103.49 210.301 103.323zM287.919 101.754C289.261 101.644 290.557 101.83 291.807 102.312 292.995 102.92 293.793 103.857 294.202 105.124 294.563 106.263 294.752 107.431 294.768 108.627 294.836 110.072 294.753 111.507 294.519 112.934 294.33 114.199 293.773 115.27 292.846 116.148 292.097 116.707 291.253 117.049 290.315 117.174 288.827 117.4 287.365 117.296 285.93 116.862 284.474 116.272 283.547 115.223 283.15 113.715 282.862 112.617 282.711 111.502 282.698 110.368 282.635 108.898 282.741 107.439 283.014 105.994 283.59 103.379 285.225 101.966 287.919 101.754zM287.964 103.316C288.569 103.299 289.172 103.321 289.773 103.383 291.212 103.644 292.139 104.469 292.553 105.86 292.873 107.096 293.016 108.354 292.982 109.631 293.007 110.798 292.893 111.951 292.643 113.09 292.292 114.582 291.351 115.438 289.817 115.656 288.789 115.802 287.78 115.728 286.789 115.434 285.784 114.991 285.143 114.24 284.868 113.179 284.632 112.257 284.511 111.32 284.506 110.368 284.467 109.263 284.512 108.163 284.642 107.065 284.738 106.072 285.085 105.179 285.681 104.387 286.32 103.771 287.08 103.414 287.964 103.316z" clip-rule="evenodd" opacity=".976"/><path fill-rule="evenodd" d="M168.578 101.981C169.839 101.966 171.098 101.981 172.352 102.026C173.752 107.035 175.131 112.048 176.489 117.067C175.905 117.081 175.325 117.067 174.748 117.022C174.401 115.756 174.047 114.491 173.686 113.229C171.532 113.177 169.376 113.169 167.222 113.206C166.857 114.477 166.495 115.748 166.137 117.022C165.549 117.082 164.961 117.082 164.374 117.022C165.782 112.009 167.184 106.996 168.578 101.981ZM169.888 103.454C170.265 103.454 170.642 103.454 171.019 103.454C171.772 106.192 172.525 108.929 173.279 111.666C171.38 111.674 169.482 111.666 167.583 111.644C168.369 108.919 169.138 106.19 169.888 103.454Z" clip-rule="evenodd" opacity=".98"/><path fill-rule="evenodd" d="M185.484 101.983C187.745 101.963 190.006 101.985 192.265 102.05C194.502 102.347 195.603 103.612 195.565 105.844C195.668 107.026 195.292 108.022 194.434 108.834C194.208 109.005 193.967 109.154 193.711 109.28C194.843 109.654 195.573 110.405 195.904 111.535C196.184 112.809 196.064 114.044 195.542 115.239C194.968 116.167 194.131 116.725 193.033 116.913C192.704 116.978 192.373 117.023 192.039 117.047C189.854 117.069 187.669 117.076 185.484 117.069C185.484 112.04 185.484 107.012 185.484 101.983ZM187.202 103.501C188.648 103.493 190.095 103.501 191.541 103.523C193.078 103.65 193.832 104.476 193.802 106C193.848 106.795 193.607 107.487 193.078 108.076C192.679 108.377 192.227 108.555 191.722 108.611C190.215 108.633 188.708 108.641 187.202 108.633C187.202 106.923 187.202 105.211 187.202 103.501ZM187.202 110.151C188.679 110.143 190.155 110.151 191.632 110.173C192.548 110.212 193.294 110.577 193.869 111.267C194.254 112.016 194.359 112.804 194.186 113.632C194.042 114.429 193.597 114.986 192.852 115.306C192.487 115.433 192.11 115.508 191.722 115.529C190.215 115.551 188.708 115.559 187.202 115.551C187.202 113.751 187.202 111.951 187.202 110.151Z" clip-rule="evenodd" opacity=".983"/><path fill-rule="evenodd" d="M226.802 101.978C228.971 101.971 231.141 101.978 233.311 102.001C234.384 102.052 235.333 102.409 236.159 103.072C236.849 103.789 237.233 104.645 237.312 105.639C237.504 106.957 237.293 108.207 236.679 109.388C236.167 110.157 235.466 110.686 234.577 110.972C235.569 112.99 236.548 115.014 237.515 117.042C236.856 117.079 236.201 117.071 235.549 117.02C234.639 115.119 233.743 113.215 232.859 111.307C231.427 111.307 229.996 111.307 228.565 111.307C228.565 113.226 228.565 115.145 228.565 117.064C227.977 117.064 227.389 117.064 226.802 117.064C226.802 112.036 226.802 107.007 226.802 101.978ZM228.565 103.496C230.057 103.489 231.548 103.496 233.04 103.519C234.269 103.599 235.06 104.217 235.413 105.371C235.691 106.502 235.571 107.588 235.051 108.629C234.492 109.355 233.746 109.735 232.814 109.767C231.397 109.789 229.981 109.797 228.565 109.789C228.565 107.692 228.565 105.594 228.565 103.496Z" clip-rule="evenodd" opacity=".976"/><path fill-rule="evenodd" d="M249.675 101.976C250.941 101.976 252.207 101.976 253.472 101.976C254.841 107.002 256.227 112.023 257.631 117.039C257.043 117.076 256.455 117.069 255.868 117.017C255.51 115.743 255.148 114.471 254.783 113.201C252.628 113.164 250.474 113.171 248.319 113.223C247.957 114.488 247.595 115.752 247.234 117.017C246.647 117.069 246.059 117.076 245.471 117.039C246.877 112.02 248.278 106.999 249.675 101.976ZM250.986 103.449C251.363 103.449 251.739 103.449 252.116 103.449C252.867 106.184 253.635 108.914 254.422 111.639C252.523 111.661 250.624 111.669 248.726 111.661C249.47 108.922 250.223 106.184 250.986 103.449Z" clip-rule="evenodd" opacity=".98"/><path fill-rule="evenodd" d="M263.96 101.976C267.652 101.976 271.344 101.976 275.035 101.976C275.035 102.496 275.035 103.017 275.035 103.538C273.484 103.538 271.931 103.538 270.379 103.538C270.379 108.046 270.379 112.554 270.379 117.062C269.791 117.062 269.204 117.062 268.616 117.062C268.616 112.554 268.616 108.046 268.616 103.538C267.064 103.538 265.512 103.538 263.96 103.538C263.96 103.017 263.96 102.496 263.96 101.976Z" clip-rule="evenodd" opacity=".982"/><path fill-rule="evenodd" d="M304.464 101.983C306.77 101.963 309.076 101.985 311.381 102.05C313.566 102.363 314.764 103.606 314.974 105.777C315.102 106.868 314.966 107.925 314.567 108.946C314.074 109.939 313.298 110.616 312.239 110.976C313.222 113 314.187 115.031 315.132 117.069C314.488 117.083 313.848 117.068 313.211 117.024C312.293 115.13 311.382 113.233 310.476 111.333C309.045 111.311 307.613 111.304 306.182 111.311C306.182 113.231 306.182 115.15 306.182 117.069C305.609 117.069 305.037 117.069 304.464 117.069C304.464 112.04 304.464 107.012 304.464 101.983ZM306.182 103.501C307.674 103.493 309.165 103.501 310.657 103.523C312.018 103.625 312.839 104.332 313.121 105.643C313.306 106.65 313.185 107.617 312.759 108.544C312.202 109.344 311.425 109.753 310.431 109.772C309.015 109.794 307.598 109.801 306.182 109.794C306.182 107.696 306.182 105.598 306.182 103.501Z" clip-rule="evenodd" opacity=".984"/><path fill-rule="evenodd" d="M324.625 101.976C325.213 101.976 325.801 101.976 326.388 101.976C326.388 107.004 326.388 112.033 326.388 117.062C325.801 117.062 325.213 117.062 324.625 117.062C324.625 112.033 324.625 107.004 324.625 101.976Z" clip-rule="evenodd" opacity=".967"/><path fill-rule="evenodd" d="M336.695 101.976C339.799 101.976 342.903 101.976 346.007 101.976C346.007 102.482 346.007 102.988 346.007 103.493C343.476 103.493 340.944 103.493 338.413 103.493C338.413 105.204 338.413 106.915 338.413 108.626C340.507 108.626 342.602 108.626 344.696 108.626C344.696 109.132 344.696 109.638 344.696 110.143C342.602 110.143 340.507 110.143 338.413 110.143C338.413 111.929 338.413 113.714 338.413 115.499C340.944 115.499 343.476 115.499 346.007 115.499C346.007 116.02 346.007 116.541 346.007 117.062C342.903 117.062 339.799 117.062 336.695 117.062C336.695 112.033 336.695 107.004 336.695 101.976Z" clip-rule="evenodd" opacity=".988"/></svg>