<?xml version="1.0" encoding="utf-8"?>
<!-- Generator: Adobe Illustrator 22.1.0, SVG Export Plug-In . SVG Version: 6.00 Build 0)  -->
<svg version="1.1" id="Ebene_1" xmlns="http://www.w3.org/2000/svg" xmlns:xlink="http://www.w3.org/1999/xlink" x="0px" y="0px"
	 viewBox="0 0 906 234" style="enable-background:new 0 0 906 234;" xml:space="preserve">
<metadata><?xpacket begin="﻿" id="W5M0MpCehiHzreSzNTczkc9d"?>
<x:xmpmeta xmlns:x="adobe:ns:meta/" x:xmptk="Adobe XMP Core 5.6-c143 79.161356, 2017/09/07-01:11:22        ">
   <rdf:RDF xmlns:rdf="http://www.w3.org/1999/02/22-rdf-syntax-ns#">
      <rdf:Description rdf:about=""/>
   </rdf:RDF>
</x:xmpmeta>
                                                                                                    
                                                                                                    
                                                                                                    
                                                                                                    
                                                                                                    
                                                                                                    
                                                                                                    
                                                                                                    
                                                                                                    
                                                                                                    
                                                                                                    
                                                                                                    
                                                                                                    
                                                                                                    
                                                                                                    
                                                                                                    
                                                                                                    
                                                                                                    
                                                                                                    
                                                                                                    
                           
<?xpacket end="w"?></metadata>
<style type="text/css">
	.st0{clip-path:url(#SVGID_2_);fill:#009A9B;}
	.st1{fill:#6F6F6E;}
	.st2{clip-path:url(#SVGID_4_);fill:#009A9B;}
	.st3{clip-path:url(#SVGID_6_);fill:#009A9B;}
	.st4{clip-path:url(#SVGID_8_);fill:#009A9B;}
	.st5{fill:#009A9B;}
	.st6{clip-path:url(#SVGID_10_);fill:#6F6F6E;}
	.st7{clip-path:url(#SVGID_12_);fill:#6F6F6E;}
	.st8{clip-path:url(#SVGID_14_);fill:#6F6F6E;}
	.st9{clip-path:url(#SVGID_14_);fill:#009A9B;}
</style>
<g>
	<defs>
		<rect id="SVGID_1_" x="28.1" y="27" width="849.8" height="180"/>
	</defs>
	<clipPath id="SVGID_2_">
		<use xlink:href="#SVGID_1_"  style="overflow:visible;"/>
	</clipPath>
	<polygon class="st0" points="28.1,53.6 132,39 132,27 28.1,41.6 	"/>
</g>
<polygon class="st1" points="136,39 136,27 136,27 220.1,38.8 220.1,50.8 "/>
<polygon class="st1" points="146.4,50.5 220.1,58.3 220.1,70.3 146.4,62.5 "/>
<g>
	<defs>
		<rect id="SVGID_3_" x="28.1" y="27" width="849.8" height="180"/>
	</defs>
	<clipPath id="SVGID_4_">
		<use xlink:href="#SVGID_3_"  style="overflow:visible;"/>
	</clipPath>
	<polygon class="st2" points="28.1,74.5 142.4,62.5 142.4,50.5 28.1,62.5 	"/>
</g>
<polygon class="st1" points="156.8,74.4 220.1,78.8 220.1,90.8 156.8,86.4 "/>
<g>
	<defs>
		<rect id="SVGID_5_" x="28.1" y="27" width="849.8" height="180"/>
	</defs>
	<clipPath id="SVGID_6_">
		<use xlink:href="#SVGID_5_"  style="overflow:visible;"/>
	</clipPath>
	<polygon class="st3" points="28.1,95.1 152.8,86.4 152.8,74.4 28.1,83.1 	"/>
</g>
<polygon class="st1" points="157,99.3 220.1,101.5 220.1,113.5 157,111.3 "/>
<g>
	<defs>
		<rect id="SVGID_7_" x="28.1" y="27" width="849.8" height="180"/>
	</defs>
	<clipPath id="SVGID_8_">
		<use xlink:href="#SVGID_7_"  style="overflow:visible;"/>
	</clipPath>
	<polygon class="st4" points="28.1,115.6 153,111.3 153,99.3 28.1,103.6 	"/>
</g>
<rect x="147.1" y="124.2" class="st1" width="73" height="12"/>
<rect x="28.1" y="124.2" class="st5" width="115" height="12"/>
<g>
	<defs>
		<rect id="SVGID_9_" x="28.1" y="27" width="849.8" height="180"/>
	</defs>
	<clipPath id="SVGID_10_">
		<use xlink:href="#SVGID_9_"  style="overflow:visible;"/>
	</clipPath>
	<polygon class="st6" points="137,160.4 220.1,157.5 220.1,145.5 137,148.4 	"/>
</g>
<polygon class="st5" points="28.1,144.7 133,148.4 133,160.4 28.1,156.7 "/>
<g>
	<defs>
		<rect id="SVGID_11_" x="28.1" y="27" width="849.8" height="180"/>
	</defs>
	<clipPath id="SVGID_12_">
		<use xlink:href="#SVGID_11_"  style="overflow:visible;"/>
	</clipPath>
	<polygon class="st7" points="116.6,207 220.1,196.1 220.1,184.1 116.6,195 	"/>
</g>
<polygon class="st5" points="28.1,186.1 112.6,195 112.6,207 28.1,198.1 "/>
<polygon class="st5" points="28.1,165.2 122.9,171.9 122.9,183.9 28.1,177.2 "/>
<g>
	<defs>
		<rect id="SVGID_13_" x="28.1" y="27" width="849.8" height="180"/>
	</defs>
	<clipPath id="SVGID_14_">
		<use xlink:href="#SVGID_13_"  style="overflow:visible;"/>
	</clipPath>
	<polygon class="st8" points="126.9,183.9 220.1,177.3 220.1,165.3 126.9,171.9 	"/>
	<path class="st9" d="M419.2,39v87.1h61.3v-19.8h-35.9V39H419.2z M368.7,58.8h1.1l8,31.9h-17.1L368.7,58.8z M324.8,126.1h26.5
		l4.2-15.6h27.8l4.2,15.6h26.5l-27.8-87.2h-33.8L324.8,126.1z M287.4,107.9c-7.6,0-20.1-1.8-27.3-3.4v20.1
		c8.5,1.6,19.1,2.9,29.4,2.9c19.1,0,36.2-6.7,36.2-29.4c0-35.6-41.5-20.2-41.5-33.4c0-5.8,5.3-7.5,12.9-7.5c7.7,0,17.3,1.2,23.7,2.3
		V39.3c-7.6-0.7-16-1.8-24.7-1.8c-18.5,0-37.5,5.2-37.5,27.8c0,36.2,41.1,21.4,41.1,34.5C299.7,105.4,295.6,107.9,287.4,107.9"/>
	<path class="st9" d="M862.2,192.7c-3.6,0-6.7-0.4-11.4-1.2v4.3c3.3,0.5,7.3,1,11.7,1c9.9,0,15.4-4.8,15.4-13.1
		c0-9.6-6.9-10.7-13.2-11.7c-5-0.8-9.6-1.7-9.6-7.6c0-5.9,4.3-7.6,10.8-7.6c3.5,0,7.3,0.5,9.9,0.8v-4.2c-2.9-0.3-6.4-0.6-9.9-0.6
		c-7.9,0-15.6,2.1-15.6,11.7c0,8.9,6.2,10.6,12.2,11.5c5.4,0.9,10.6,1.7,10.6,7.6C873.1,189.8,869.4,192.7,862.2,192.7 M820.3,172.5
		v-15h10.4c5.6,0,8.4,3.2,8.4,7c0,4.5-3.5,8-8,8H820.3z M831.9,192h-11.7v-15.5h11.1c5.5,0,9,3,9,7.5
		C840.4,188.5,837.5,192,831.9,192 M831.2,153.4h-15.5V196h16.4c8,0,13-4.9,13-11.7c0-4.9-2.8-8.8-8.3-10.1
		c4.7-2.3,6.6-6.1,6.6-10.3C843.5,158.5,839.5,153.4,831.2,153.4 M791.1,157.4h0.9l8.5,24.5h-17.9L791.1,157.4z M773.2,196h4.9
		l3.5-10h20.1l3.5,10h5L795,153.4h-6.7L773.2,196z M743.8,153.4V196h25.3v-4.1h-20.8v-38.5H743.8z M702.2,157.4h0.9l8.5,24.5h-17.9
		L702.2,157.4z M684.3,196h4.9l3.5-10h20.1l3.5,10h5l-15.2-42.6h-6.7L684.3,196z M673.4,196h4.6v-42.6h-4.6V196z M642.3,157.5h8.6
		c6.6,0,9.3,4.7,9.3,9.3c0,4.8-2.7,9.6-8.9,9.6h-9V157.5z M637.7,153.4V196h4.6v-15.5h7.9c1.9,0,3.3-0.2,3.6-0.2l8.1,15.7h5.1
		l-8.8-17c5-2.7,6.7-7.9,6.7-12c0-8.2-5-13.5-14.4-13.5H637.7z M631.9,153.4H597v4.1h15.1V196h4.6v-38.5h15.1V153.4z M577.9,192.7
		c-3.6,0-6.7-0.4-11.4-1.2v4.3c3.3,0.5,7.3,1,11.6,1c9.9,0,15.4-4.8,15.4-13.1c0-9.6-6.9-10.7-13.2-11.7c-5-0.8-9.6-1.7-9.6-7.6
		c0-5.9,4.3-7.6,10.8-7.6c3.5,0,7.3,0.5,9.9,0.8v-4.2c-2.9-0.3-6.4-0.6-9.9-0.6c-7.9,0-15.6,2.1-15.6,11.7c0,8.9,6.2,10.6,12.2,11.5
		c5.4,0.9,10.6,1.7,10.6,7.6C588.9,189.8,585.1,192.7,577.9,192.7 M559.2,182.5v-29.1h-4.6v29.4c0,7-6,9.8-11.5,9.8
		c-5.4,0-11.5-2.8-11.5-9.8v-29.4h-4.6v29c0,9.6,6.7,14.3,16,14.3C552.4,196.7,559.2,192.2,559.2,182.5 M504.1,157.4h0.9l8.5,24.5
		h-17.9L504.1,157.4z M486.2,196h4.9l3.5-10h20.1l3.5,10h5l-15.2-42.6h-6.7L486.2,196z M458.4,196h5.1v-42.6H459V189l-23.7-35.6
		h-5.1V196h4.6v-35.2L458.4,196z M385.6,174.7c0,13.6,5.6,22.1,18.6,22.1c13.1,0,18.4-8.5,18.4-22.1c0-13.5-5.3-21.9-18.4-21.9
		C391.2,152.7,385.6,161.1,385.6,174.7 M418,174.7c0,12.8-5.3,18-13.8,18c-8.5,0-13.8-5.3-13.8-18c0-12.7,5.3-17.9,13.8-17.9
		C412.7,156.8,418,162,418,174.7 M351.6,174.7c0,13.5,5.9,22.1,19.1,22.1c3,0,7.1-0.5,10.8-1.6v-4.3c-3.4,1.2-7.3,1.8-10.6,1.8
		c-8.1,0-14.6-4.8-14.6-18.1c0-13,6-17.7,15-17.7c3.1,0,7,0.7,10.2,1.6v-4.3c-4-0.9-7.6-1.4-10.8-1.4
		C357.7,152.7,351.6,161.3,351.6,174.7 M339.2,196h4.6v-42.6h-4.6V196z M308.1,153.4V196h25.3v-4.1h-20.8v-38.5H308.1z M293.9,196
		h4.6v-42.6h-4.6V196z M271.5,192.7c-3.6,0-6.7-0.4-11.4-1.2v4.3c3.3,0.5,7.3,1,11.7,1c9.9,0,15.4-4.8,15.4-13.1
		c0-9.6-6.9-10.7-13.2-11.7c-5-0.8-9.6-1.7-9.6-7.6c0-5.9,4.3-7.6,10.8-7.6c3.5,0,7.3,0.5,9.9,0.8v-4.2c-2.9-0.3-6.4-0.6-9.9-0.6
		c-7.9,0-15.6,2.1-15.6,11.7c0,8.9,6.2,10.6,12.2,11.5c5.4,0.9,10.6,1.7,10.6,7.6C282.5,189.8,278.7,192.7,271.5,192.7"/>
</g>
</svg>
