<svg xmlns="http://www.w3.org/2000/svg" viewBox="0 0 960.99 162.35"><defs><style>.cls-1{fill:#fff;}</style></defs><title>smallstep_full_white</title><g id="Layer_1" data-name="Layer 1"><path class="cls-1" d="M42.64,33.29c1.91,9.68,13,18,16.85,20.22L101.54,78c4.09,2.29,27.44,16.31,36.38,41.89a1.61,1.61,0,0,0,1.52,1.09h0a1.62,1.62,0,0,0,1.61-1.62V50.24A10.54,10.54,0,0,0,135.58,41l-7.9-4.34A3.44,3.44,0,0,0,123,37.94L112,57a3.45,3.45,0,0,1-4.71,1.26L74.83,39.51a3.44,3.44,0,0,1-1.26-4.7L84.14,16.52a3.44,3.44,0,0,0-1.69-4.91c-3.34-1.35-7.3-2.83-7.71-3C66.5,5.93,54.82,5,49.24,13.18,45.28,19,41.2,26,42.64,33.29Z"/><path class="cls-1" d="M98.41,135.76c-1.9-9.67-13-18-16.84-20.21l-42-24.5C35.43,88.76,12.08,74.74,3.13,49.16a1.6,1.6,0,0,0-1.51-1.09h0A1.61,1.61,0,0,0,0,49.69v69.13a10.56,10.56,0,0,0,5.47,9.25l7.91,4.34a3.44,3.44,0,0,0,4.64-1.3l11-19.06a3.44,3.44,0,0,1,4.7-1.26l32.49,18.76a3.44,3.44,0,0,1,1.26,4.7L56.92,152.54a3.43,3.43,0,0,0,1.68,4.91c3.35,1.35,7.3,2.82,7.71,3,8.24,2.72,19.93,3.66,25.51-4.54C95.77,150.06,99.85,143.1,98.41,135.76Z"/><path class="cls-1" d="M288.89,76.76H274.57l-2.27-9.87A18.64,18.64,0,0,0,266.78,64a21.94,21.94,0,0,0-7.34-1.17c-3.75,0-6.73.84-8.92,2.52a7.68,7.68,0,0,0-3.29,6.32,7.19,7.19,0,0,0,3.15,6Q253.52,80,263,81.8q14.69,2.92,21.78,8.59t7.09,15.6q0,10.68-9.18,17.43t-24.15,6.76a50.76,50.76,0,0,1-16.77-2.66,42.8,42.8,0,0,1-13.56-7.64l-.22-17.76h14.91l2.92,10.3A12.15,12.15,0,0,0,251,114.8a30.2,30.2,0,0,0,6.87.77q6.51,0,9.9-2.34a7.33,7.33,0,0,0,3.4-6.36q0-3.51-3.43-6.07t-12.65-4.53q-14-2.85-21.08-8.44t-7.13-15.24q0-9.93,8.19-17.14t23.31-7.2a59.81,59.81,0,0,1,17.43,2.49q8.24,2.49,12.9,6.36Z"/><path class="cls-1" d="M303.4,62.43V49.57h31.2L335.48,60A26.6,26.6,0,0,1,345,51.21a27.4,27.4,0,0,1,13.26-3.1,24.15,24.15,0,0,1,13,3.36,20.72,20.72,0,0,1,8.19,10.16,27.35,27.35,0,0,1,9.5-9.94,25.77,25.77,0,0,1,13.74-3.58q11.68,0,18.45,8.07t6.76,24.6v32.89l10.31,2.19v12.79H397.38V115.86l9.21-2.19v-33q0-9-2.92-12.49T395,64.7a14.86,14.86,0,0,0-7.85,2,14.56,14.56,0,0,0-5.3,5.59c0,.93,0,1.72.07,2.38s.07,1.32.07,2v37l8.63,2.19v12.79H352.07V115.86l8.62-2.19v-33q0-8.76-2.92-12.38T349,64.7a16.6,16.6,0,0,0-7.56,1.64A14.67,14.67,0,0,0,336.06,71v42.69l9.21,2.19v12.79H304.49V115.86l10.31-2.19v-49Z"/><path class="cls-1" d="M495.47,128.65a38.1,38.1,0,0,1-1.54-4.06,31.32,31.32,0,0,1-1-4.2,29.46,29.46,0,0,1-9.25,7.09,27.68,27.68,0,0,1-12.46,2.7q-11.62,0-18.45-6.32t-6.84-17.21q0-11.12,8.92-17.17T481,83.41h10.89V75.66q0-5.7-3.28-8.84t-9.73-3.14a23,23,0,0,0-6.5.84,17,17,0,0,0-4.6,2L466.38,75H450.3l.07-17.54a60.34,60.34,0,0,1,13.41-6.65,48.74,48.74,0,0,1,16.48-2.7q14.7,0,23.87,7.2t9.17,20.5v32.67c0,1.22,0,2.36,0,3.43a24.73,24.73,0,0,0,.26,3.07l6.51.88v12.79ZM477,114.4a18.47,18.47,0,0,0,8.77-2.09,16.8,16.8,0,0,0,6.14-5.22V95H481q-6.8,0-10.3,3.18a10,10,0,0,0-3.51,7.64,7.9,7.9,0,0,0,2.6,6.28A10.54,10.54,0,0,0,477,114.4Z"/><path class="cls-1" d="M530.06,27.5V14.63h32.75v99l10.3,2.19v12.79h-42V115.86l10.31-2.19v-84Z"/><path class="cls-1" d="M583.28,27.5V14.63H616v99l10.31,2.19v12.79h-42V115.86l10.3-2.19v-84Z"/><path class="cls-1" d="M696.46,76.76H682.13l-2.26-9.87A18.64,18.64,0,0,0,674.35,64,22,22,0,0,0,667,62.8q-5.64,0-8.92,2.52a7.68,7.68,0,0,0-3.29,6.32,7.21,7.21,0,0,0,3.14,6q3.15,2.37,12.57,4.2,14.7,2.92,21.78,8.59t7.09,15.6q0,10.68-9.17,17.43t-24.15,6.76a50.78,50.78,0,0,1-16.78-2.66,43,43,0,0,1-13.56-7.64l-.21-17.76h14.9l2.93,10.3a12,12,0,0,0,5.19,2.38,30.2,30.2,0,0,0,6.87.77q6.5,0,9.9-2.34a7.33,7.33,0,0,0,3.4-6.36q0-3.51-3.44-6.07t-12.64-4.53q-14-2.85-21.09-8.44t-7.12-15.24q0-9.93,8.18-17.14t23.32-7.2a59.81,59.81,0,0,1,17.43,2.49q8.22,2.49,12.9,6.36Z"/><path class="cls-1" d="M737.61,30.2V49.57H751.5v15H737.61v40.27c0,3.07.64,5.27,1.9,6.58a6.76,6.76,0,0,0,5.12,2,35.88,35.88,0,0,0,3.84-.18c1.09-.12,2.32-.33,3.69-.62L754,128a51.77,51.77,0,0,1-7.09,1.65,50,50,0,0,1-7.6.54q-11,0-17-6.06t-6-19.22V64.55H704.72v-15h11.62V30.2Z"/><path class="cls-1" d="M797,130.18q-17.1,0-27.33-11T759.4,91.38V88.45q0-17.61,9.68-29t26-11.33q16,0,24.85,9.65t8.85,26.09V95.47H781.54l-.14.44a20.65,20.65,0,0,0,5.22,12.86q4.65,5,12.61,5A41.09,41.09,0,0,0,811,112.39a54,54,0,0,0,10.23-4.5L827,121.05a41.9,41.9,0,0,1-12.68,6.5A53.8,53.8,0,0,1,797,130.18Zm-1.9-65.63a11.11,11.11,0,0,0-9.35,4.53q-3.44,4.55-4.24,11.92l.22.36h26.16v-1.9q0-6.79-3.17-10.85T795.06,64.55Z"/><path class="cls-1" d="M834.39,62.43V49.57h31l1,9.21a25.3,25.3,0,0,1,8.41-7.89,22.6,22.6,0,0,1,11.4-2.78q14.68,0,22.8,11.47t8.11,30.19V91.3q0,17.55-8.11,28.21t-22.66,10.67a25.21,25.21,0,0,1-11-2.3,22.61,22.61,0,0,1-8.26-6.76V144l10.31,2.19v12.86H835.49V146.19l10.3-2.19V64.63Zm61.39,27.34q0-11.19-3.72-18.13T880.65,64.7a16.19,16.19,0,0,0-8.22,2,14.15,14.15,0,0,0-5.37,5.63v34.64a13.16,13.16,0,0,0,5.37,5.12,18.12,18.12,0,0,0,8.37,1.75q7.74,0,11.37-6.06t3.61-16.45Z"/></g><g id="Layer_2" data-name="Layer 2"><path class="cls-1" d="M917.25,29.27H911V5.17h-7.95V0h22.1V5.17h-7.94Z"/><path class="cls-1" d="M942.09,29.27,935,6.31h-.18c.26,4.67.38,7.78.38,9.35V29.27H929.7V0h8.45l6.92,22.38h.12L952.54,0H961V29.27H955.2V15.42c0-.66,0-1.41,0-2.27s.11-3.12.27-6.8h-.18l-7.54,22.92Z"/></g></svg>