<?xml version="1.0" standalone="no"?>
<!DOCTYPE svg PUBLIC "-//W3C//DTD SVG 20010904//EN"
 "http://www.w3.org/TR/2001/REC-SVG-20010904/DTD/svg10.dtd">
<svg version="1.0" xmlns="http://www.w3.org/2000/svg"
 width="371.000000pt" height="385.000000pt" viewBox="0 0 371.000000 385.000000"
 preserveAspectRatio="xMidYMid meet">

<g transform="translate(0.000000,385.000000) scale(0.100000,-0.100000)"
fill="#000000" stroke="none">
<path d="M1585 3395 c-55 -7 -120 -18 -145 -25 -25 -6 -56 -14 -70 -17 -14 -3
-29 -9 -35 -13 -5 -4 -27 -10 -47 -14 -20 -4 -50 -13 -65 -21 -15 -8 -32 -15
-36 -15 -16 0 -231 -111 -252 -129 -11 -10 -27 -20 -36 -23 -25 -9 -167 -127
-242 -201 -69 -68 -70 -69 -46 -81 17 -8 25 -22 27 -45 l3 -33 102 99 c56 55
123 114 150 133 48 34 58 50 32 50 -20 0 -30 46 -15 65 20 24 49 18 67 -14
l17 -28 35 20 c52 29 189 97 196 97 4 0 28 9 55 21 44 19 48 23 34 36 -8 9
-13 22 -10 30 3 8 6 19 6 24 0 6 12 9 28 7 22 -2 28 -8 30 -35 4 -38 2 -37 67
-17 58 17 231 44 291 44 39 0 40 1 36 29 -3 22 1 32 17 40 33 18 64 -3 59 -39
l-4 -28 81 -7 c45 -3 124 -15 176 -25 56 -11 98 -15 103 -9 6 5 7 9 3 9 -4 0
-3 9 3 21 13 24 48 22 64 -3 8 -13 8 -23 -1 -37 -11 -17 -6 -21 50 -41 34 -12
107 -44 161 -72 77 -38 101 -46 107 -36 5 7 9 17 9 21 0 5 15 7 33 5 24 -2 33
-8 35 -26 2 -13 -3 -25 -12 -28 -26 -10 -19 -20 47 -69 71 -53 205 -181 258
-246 47 -58 134 -187 150 -222 11 -24 15 -26 24 -14 11 15 26 20 58 18 11 -1
17 -9 17 -25 0 -29 -24 -51 -46 -42 -19 7 -20 10 29 -129 51 -142 68 -230 73
-385 7 -162 8 -169 32 -147 18 17 62 13 62 -5 0 -5 5 -6 10 -3 24 15 0 298
-39 450 -40 154 -121 329 -218 468 -67 97 -80 113 -168 202 -92 93 -140 133
-255 209 -317 211 -704 300 -1095 251z m1403 -549 c5 -26 -12 -40 -42 -32 -25
6 -35 33 -19 50 14 14 58 1 61 -18z m316 -612 c20 -8 21 -38 0 -58 -21 -21
-54 -4 -54 29 0 29 22 41 54 29z"/>
<path d="M1842 3143 c5 -26 38 -29 38 -4 0 15 -6 21 -21 21 -14 0 -19 -5 -17
-17z"/>
<path d="M1523 3108 c6 -25 27 -128 33 -165 3 -15 11 -23 25 -23 15 0 19 4 15
16 -24 63 -8 101 18 41 16 -40 30 -51 53 -43 12 5 9 12 -16 38 -32 33 -38 52
-21 63 15 9 12 35 -4 35 -7 0 -16 -9 -19 -20 -10 -38 -34 -22 -43 27 -7 35
-14 49 -28 51 -15 3 -18 -1 -13 -20z"/>
<path d="M1711 3101 c-15 -26 4 -133 26 -148 9 -7 26 -13 37 -13 20 0 20 0 -1
15 -36 26 -44 132 -8 119 7 -3 16 -1 20 5 4 7 -4 11 -19 11 -16 0 -26 6 -26
15 0 21 -17 19 -29 -4z"/>
<path d="M1842 3018 c2 -57 6 -73 18 -73 12 0 16 16 17 73 2 66 1 72 -18 72
-18 0 -20 -5 -17 -72z"/>
<path d="M1950 3048 c0 -18 -3 -50 -6 -70 -5 -31 -4 -38 10 -38 9 0 16 8 16
18 0 9 5 34 11 55 8 30 15 37 34 37 28 0 32 -21 16 -77 -7 -24 -6 -35 5 -44 8
-6 14 -10 15 -8 0 2 6 29 12 59 10 46 16 56 36 58 23 4 24 3 17 -56 -5 -48 -4
-61 8 -65 15 -6 17 0 31 84 8 43 -12 64 -51 55 -14 -4 -31 -3 -37 2 -7 5 -36
12 -64 16 l-53 7 0 -33z"/>
<path d="M1160 3024 c0 -12 72 -189 80 -198 5 -4 13 -6 18 -2 6 4 3 24 -8 53
-20 54 -17 73 11 73 18 0 36 -29 53 -82 6 -19 36 -25 36 -8 0 5 -8 26 -17 47
-33 72 -59 89 -93 58 -16 -15 -19 -13 -34 25 -9 22 -23 40 -31 40 -8 0 -15 -3
-15 -6z"/>
<path d="M1430 3023 c0 -5 5 -15 10 -23 7 -11 0 -23 -26 -47 -30 -27 -34 -35
-24 -52 16 -31 42 -27 34 4 -6 25 9 55 27 55 14 0 11 -58 -3 -63 -7 -3 3 -3
22 0 19 3 36 7 38 8 6 5 -38 109 -50 117 -16 10 -28 10 -28 1z"/>
<path d="M2233 3014 c-8 -21 -1 -25 20 -9 15 11 16 13 2 19 -9 3 -18 -1 -22
-10z"/>
<path d="M1373 3004 c-10 -27 11 -35 24 -8 9 19 8 24 -3 24 -8 0 -17 -7 -21
-16z"/>
<path d="M2290 3005 c17 -21 1 -37 -40 -40 -36 -3 -60 -21 -60 -46 0 -26 3
-27 95 -41 16 -3 21 7 32 56 14 61 7 86 -24 86 -13 0 -13 -3 -3 -15z m-10 -64
c0 -25 -14 -41 -36 -41 -26 0 -32 18 -12 38 14 14 48 16 48 3z"/>
<path d="M2416 3007 c-21 -15 -46 -85 -46 -129 0 -17 7 -31 19 -37 18 -10 19
-8 14 29 -7 50 18 94 48 85 11 -4 19 -2 19 4 0 6 -6 11 -14 11 -8 0 -16 11
-18 26 -3 23 -5 24 -22 11z"/>
<path d="M2525 2968 c-9 -29 -27 -73 -40 -99 -13 -26 -21 -49 -18 -53 16 -15
32 -2 48 39 16 43 45 72 59 58 11 -11 6 -52 -11 -88 -9 -19 -14 -38 -10 -41
15 -15 33 7 52 61 19 57 19 57 0 72 -11 8 -28 12 -37 9 -23 -5 -23 17 -2 49 9
13 13 29 9 35 -14 23 -34 7 -50 -42z"/>
<path d="M1043 2984 c-23 -12 -33 -24 -33 -40 0 -30 20 -49 86 -80 43 -20 54
-30 54 -50 0 -19 -5 -24 -25 -24 -14 0 -28 7 -31 15 -8 19 -34 20 -34 0 0 -19
34 -36 57 -29 53 17 64 28 61 58 -3 27 -11 35 -58 58 -65 31 -80 43 -80 65 0
12 7 14 36 10 29 -5 35 -3 32 11 -4 23 -27 25 -65 6z"/>
<path d="M2070 2835 c0 -8 7 -15 15 -15 8 0 15 7 15 15 0 8 -7 15 -15 15 -8 0
-15 -7 -15 -15z"/>
<path d="M1961 2814 c-14 -31 -14 -99 -1 -125 18 -33 27 -21 22 31 -4 45 -2
51 19 59 21 8 22 10 7 16 -10 4 -18 13 -18 20 0 25 -17 25 -29 -1z"/>
<path d="M502 2753 c-27 -38 -60 -86 -72 -108 -12 -22 -30 -53 -40 -70 -30
-50 -29 -67 4 -71 16 -2 34 -10 38 -19 13 -21 22 -13 53 47 15 29 54 92 86
140 32 48 59 89 59 92 0 2 -11 1 -25 -2 -21 -4 -26 0 -31 27 -4 17 -10 31 -14
31 -5 0 -31 -30 -58 -67z"/>
<path d="M1693 2803 c-25 -5 -27 -18 -15 -88 9 -52 27 -43 27 15 0 34 4 45 17
48 14 3 18 -7 24 -48 8 -63 31 -63 25 1 -6 75 -16 84 -78 72z"/>
<path d="M1825 2799 c-11 -16 3 -23 19 -10 17 15 36 7 36 -15 0 -8 -8 -14 -18
-14 -39 0 -69 -61 -36 -74 24 -9 25 -8 18 19 -4 18 -1 27 10 31 23 9 30 -1 17
-24 -8 -16 -7 -21 5 -26 9 -3 19 -4 24 -1 6 4 7 66 2 113 -2 15 -68 16 -77 1z"/>
<path d="M1587 2783 c-30 -5 -30 2 -11 -93 3 -16 11 -30 18 -30 10 0 12 14 8
50 -4 46 -3 50 17 50 12 0 21 6 21 15 0 8 -6 14 -12 14 -7 -1 -26 -4 -41 -6z"/>
<path d="M2057 2783 c-3 -5 -8 -34 -11 -65 -6 -46 -5 -58 6 -58 14 0 38 96 30
119 -4 13 -19 15 -25 4z"/>
<path d="M1343 2721 c6 -49 34 -108 54 -115 24 -10 28 2 9 23 -21 23 -34 91
-17 91 6 0 11 4 11 10 0 5 -7 7 -15 4 -8 -4 -17 1 -21 10 -12 32 -27 16 -21
-23z"/>
<path d="M1456 2744 c-30 -30 -8 -114 30 -114 18 0 18 -1 -5 46 -14 28 -16 44
-10 57 14 24 32 10 25 -19 -4 -14 -2 -24 4 -24 13 0 29 41 23 58 -7 17 -49 15
-67 -4z"/>
<path d="M2124 2725 c-10 -57 1 -85 36 -85 45 0 73 54 54 104 -11 29 -34 19
-28 -11 7 -34 -12 -86 -29 -80 -14 5 -11 66 4 82 15 15 10 25 -11 25 -14 0
-21 -9 -26 -35z"/>
<path d="M2257 2677 c-21 -65 -21 -67 -3 -67 8 0 17 15 20 34 8 40 31 65 47
49 7 -7 7 -23 0 -49 -14 -50 -14 -54 2 -54 7 0 18 23 25 52 14 60 7 72 -44 82
-29 7 -31 5 -47 -47z"/>
<path d="M1117 2704 c-3 -3 2 -25 12 -47 10 -23 23 -63 31 -89 7 -28 18 -48
26 -48 19 0 18 13 -13 107 -26 75 -39 94 -56 77z"/>
<path d="M2541 2668 c-7 -24 -16 -52 -21 -63 -4 -11 -13 -35 -19 -53 -9 -28
-8 -33 5 -30 15 3 77 165 68 180 -11 17 -21 6 -33 -34z"/>
<path d="M1255 2681 c-3 -6 -15 -11 -26 -11 -23 0 -23 0 -1 -67 9 -29 23 -53
31 -53 10 0 11 7 5 28 -24 84 8 123 34 42 18 -54 20 -56 32 -44 16 16 -22 108
-47 112 -12 2 -24 -2 -28 -7z"/>
<path d="M2406 2674 c-4 -11 -1 -14 11 -12 9 2 18 9 21 16 6 18 -25 15 -32 -4z"/>
<path d="M2453 2655 c4 -8 2 -17 -2 -19 -5 -3 -11 -19 -14 -35 -3 -15 -13 -31
-21 -34 -25 -10 -27 9 -5 37 21 27 12 34 -22 16 -40 -22 -20 -59 42 -73 24 -6
27 -4 39 47 7 30 10 59 6 65 -10 16 -29 13 -23 -4z"/>
<path d="M1515 2650 c-3 -5 -1 -10 4 -10 6 0 11 5 11 10 0 6 -2 10 -4 10 -3 0
-8 -4 -11 -10z"/>
<path d="M2800 2461 c-19 -36 -3 -171 21 -171 20 0 27 95 13 163 -7 32 -19 35
-34 8z"/>
<path d="M306 2380 c-69 -209 -95 -416 -75 -602 12 -114 13 -118 30 -102 12
11 28 15 46 11 l28 -6 0 207 c1 193 3 215 28 317 15 61 37 132 47 159 26 63
25 66 -9 66 -16 0 -34 7 -41 15 -7 8 -16 15 -20 15 -4 0 -19 -36 -34 -80z m20
-277 c5 -19 2 -30 -11 -40 -11 -7 -22 -13 -25 -13 -3 0 -14 6 -25 13 -13 10
-16 21 -11 40 5 22 12 27 36 27 24 0 31 -5 36 -27z"/>
<path d="M790 2421 c-19 -37 -2 -171 22 -171 17 0 30 56 24 107 -10 83 -24
104 -46 64z"/>
<path d="M2610 2390 c0 -23 56 -82 99 -103 60 -30 47 16 -21 78 -54 49 -78 56
-78 25z"/>
<path d="M2957 2369 c-29 -22 -83 -106 -74 -115 10 -10 44 6 72 34 28 28 65
81 65 95 0 14 -35 6 -63 -14z"/>
<path d="M600 2354 c0 -27 39 -73 84 -99 49 -29 56 -30 56 -11 0 20 -38 64
-83 97 -46 33 -57 36 -57 13z"/>
<path d="M959 2333 c-24 -14 -89 -99 -89 -116 0 -18 42 -4 74 24 32 28 66 80
66 101 0 13 -22 9 -51 -9z"/>
<path d="M1306 2213 c-19 -26 -44 -64 -56 -85 l-20 -36 66 -31 c36 -17 72 -31
79 -31 15 0 115 137 115 158 0 7 -24 23 -54 36 -95 42 -91 42 -130 -11z"/>
<path d="M2218 2228 c-38 -17 -68 -36 -68 -42 1 -21 96 -151 113 -154 19 -4
147 53 147 65 -1 13 -104 156 -115 159 -5 2 -40 -11 -77 -28z"/>
<path d="M2575 2231 c-60 -10 -73 -21 -44 -37 29 -16 81 -17 132 -3 35 9 47
22 30 32 -18 10 -81 14 -118 8z"/>
<path d="M2781 2224 c-29 -21 -28 -61 3 -75 31 -14 66 4 66 34 0 44 -35 64
-69 41z"/>
<path d="M1818 2205 c-114 -32 -214 -124 -120 -112 20 2 52 9 70 15 25 8 32 8
29 -1 -5 -17 -115 -37 -144 -26 -36 14 -29 45 16 68 21 11 41 27 45 36 3 9 2
13 -4 10 -25 -15 -121 -34 -151 -29 -33 5 -36 3 -76 -60 -24 -36 -43 -70 -43
-75 0 -5 23 -18 50 -30 36 -15 50 -27 50 -41 0 -15 7 -20 25 -20 24 0 30 9 26
39 -2 7 4 11 11 9 8 -3 12 -18 10 -41 -3 -31 -1 -37 17 -37 11 0 23 6 27 12 6
9 10 5 14 -12 4 -18 13 -25 29 -25 15 0 27 -8 32 -23 10 -25 31 -29 49 -7 11
14 14 13 25 -2 7 -10 19 -14 29 -10 23 9 15 31 -12 35 -13 2 -22 11 -22 21 0
23 -26 46 -35 31 -11 -18 -25 -11 -25 14 0 25 0 25 37 9 21 -8 47 -26 59 -38
29 -32 77 -55 93 -46 16 10 6 51 -12 51 -7 0 -21 8 -32 16 -19 16 -19 16 5 9
14 -4 42 -19 62 -33 41 -27 68 -24 68 8 0 23 3 24 29 8 10 -6 26 -8 35 -5 29
11 17 37 -30 65 -25 15 -78 48 -117 74 -41 27 -84 48 -99 48 -16 0 -28 5 -28
10 0 29 64 4 178 -71 118 -77 125 -80 153 -69 16 7 41 21 54 32 l25 20 -52 74
c-51 74 -52 75 -87 69 -25 -4 -57 2 -106 20 -77 28 -89 28 -157 10z m132 -215
c25 -16 40 -30 35 -30 -6 0 -21 7 -33 16 -12 8 -35 22 -50 30 -15 7 -20 14
-12 14 8 0 35 -14 60 -30z m-105 -10 c20 -13 24 -20 14 -20 -18 0 -71 39 -54
40 6 0 24 -9 40 -20z m-155 -21 c0 -5 -4 -9 -10 -9 -5 0 -10 7 -10 16 0 8 5
12 10 9 6 -3 10 -10 10 -16z"/>
<path d="M2965 2201 c-58 -10 -73 -21 -50 -38 33 -24 175 -10 175 17 0 20 -66
31 -125 21z"/>
<path d="M548 2188 c-39 -10 -50 -31 -22 -42 9 -3 39 -6 67 -5 97 2 136 27 76
48 -38 13 -70 13 -121 -1z"/>
<path d="M772 2184 c-25 -17 -28 -41 -8 -66 26 -35 86 -14 86 31 0 17 -33 51
-50 51 -3 0 -16 -7 -28 -16z"/>
<path d="M930 2153 c-8 -2 -21 -7 -29 -9 -11 -3 -11 -7 -1 -19 15 -18 111 -20
159 -4 25 9 29 14 20 25 -11 14 -115 19 -149 7z"/>
<path d="M2673 2115 c-21 -15 -83 -102 -83 -117 0 -15 27 -8 55 14 29 22 85
95 85 110 0 13 -34 9 -57 -7z"/>
<path d="M2864 2106 c-3 -8 2 -26 12 -41 18 -27 95 -85 113 -85 36 0 -27 87
-88 123 -27 16 -32 16 -37 3z"/>
<path d="M653 2056 c-21 -19 -46 -48 -56 -65 -16 -28 -17 -32 -3 -37 22 -8 61
19 96 68 53 72 29 94 -37 34z"/>
<path d="M2771 2059 c-22 -63 20 -192 43 -133 3 9 6 37 5 62 -2 92 -27 130
-48 71z"/>
<path d="M853 2064 c-8 -22 25 -63 83 -102 48 -33 49 -34 52 -12 4 25 -43 79
-96 110 -29 17 -33 18 -39 4z"/>
<path d="M766 2028 c-15 -59 1 -168 25 -168 11 0 28 64 24 92 -11 92 -35 128
-49 76z"/>
<path d="M3256 1768 c-3 -13 -6 -35 -6 -50 0 -28 -10 -75 -40 -188 -10 -36
-19 -72 -21 -80 -2 -8 3 -15 11 -16 8 0 23 -2 32 -2 22 -2 33 -39 18 -57 -17
-20 -57 -19 -69 2 -12 22 -8 26 -55 -72 -60 -124 -151 -249 -269 -371 -102
-106 -106 -112 -82 -118 23 -6 29 -18 28 -53 -1 -9 5 -10 16 -4 23 13 211 202
211 212 0 5 -8 9 -19 9 -10 0 -24 7 -32 16 -17 21 0 49 32 49 19 0 25 -7 29
-30 5 -29 6 -28 61 50 57 81 159 271 159 297 0 8 4 18 9 23 20 22 74 231 85
329 l6 48 -28 -5 c-19 -4 -34 1 -48 14 -21 20 -21 20 -28 -3z"/>
<path d="M1745 1754 c-5 -1 -22 -5 -37 -8 -43 -10 -96 -63 -110 -109 -6 -23
-24 -57 -40 -75 -34 -40 -42 -69 -36 -131 9 -89 71 -145 157 -140 25 1 72 1
104 0 73 -2 135 24 168 70 19 28 24 46 24 100 0 55 -4 71 -26 100 -14 19 -31
51 -38 71 -14 43 -44 84 -74 100 -25 13 -77 26 -92 22z m64 -69 c23 -12 41
-33 41 -50 0 -6 -97 -17 -139 -17 -62 2 -70 14 -33 51 35 35 83 41 131 16z
m47 -131 c-3 -9 -6 -20 -6 -25 0 -17 -29 -9 -40 10 -15 29 -13 31 21 31 24 0
30 -3 25 -16z m-181 -4 c-3 -5 -10 -10 -16 -10 -5 0 -9 5 -9 10 0 6 7 10 16
10 8 0 12 -4 9 -10z m79 -26 c26 -25 20 -44 -14 -44 -32 0 -36 9 -20 41 13 23
14 23 34 3z m-126 -37 c12 -18 22 -40 22 -48 0 -8 9 -32 20 -54 11 -22 20 -41
20 -42 0 -2 -13 -3 -29 -3 -20 0 -40 10 -60 31 -26 25 -31 38 -31 78 0 41 12
71 30 71 3 0 15 -15 28 -33z m297 3 c10 -45 -3 -87 -37 -115 -35 -30 -84 -35
-73 -7 4 9 10 28 14 42 6 25 70 109 83 110 3 0 9 -13 13 -30z m-155 -80 c0
-28 -28 -37 -45 -14 -17 24 -11 34 21 34 17 0 24 -5 24 -20z"/>
<path d="M336 1625 c-14 -22 -24 -26 -48 -23 -30 5 -30 4 -24 -32 8 -49 51
-177 87 -256 l28 -64 29 17 c26 15 32 15 46 3 22 -17 17 -60 -9 -74 -11 -6
-22 -12 -24 -13 -15 -8 146 -229 214 -293 30 -29 36 -31 31 -14 -4 14 -1 28 9
38 19 19 21 19 46 6 35 -19 17 -70 -25 -70 -18 0 -18 -2 5 -26 44 -48 163
-140 249 -192 46 -29 87 -52 90 -52 4 0 5 14 2 31 -4 24 0 31 17 36 21 5 30
33 11 33 -20 0 -177 108 -255 176 -224 192 -396 475 -448 733 l-13 63 -18 -27z"/>
<path d="M1200 867 c-4 -12 -22 -53 -39 -91 -25 -54 -29 -71 -19 -78 9 -6 20
8 37 47 17 40 30 55 44 55 16 0 17 3 7 15 -7 8 -10 22 -6 30 7 19 35 19 42 0
7 -17 24 -20 24 -5 0 5 -18 18 -41 29 l-40 20 -9 -22z"/>
<path d="M2384 811 l-31 -16 22 -48 c27 -57 30 -61 45 -52 8 5 7 14 -4 31 -17
25 -21 70 -8 78 14 8 31 -8 47 -47 8 -20 22 -37 30 -37 20 0 19 2 -10 60 -28
54 -40 59 -91 31z"/>
<path d="M2124 779 c-10 -17 13 -36 27 -22 12 12 4 33 -11 33 -5 0 -12 -5 -16
-11z"/>
<path d="M2670 769 c-13 -11 -56 -39 -95 -61 -86 -50 -80 -45 -66 -62 29 -35
-10 -93 -46 -70 -10 6 -19 21 -21 33 -4 25 -5 25 -40 7 -118 -59 -348 -111
-532 -121 -186 -10 -453 29 -585 84 -36 16 -150 63 -164 69 -9 3 -12 1 -7 -7
12 -19 -2 -57 -25 -67 -20 -9 -16 -13 40 -38 219 -98 420 -140 671 -139 199 0
337 22 510 80 146 50 358 159 430 222 30 26 32 31 15 31 -26 0 -45 18 -45 42
0 23 -9 22 -40 -3z"/>
<path d="M2260 757 c-35 -17 -37 -57 -7 -93 22 -25 28 -27 53 -19 23 8 30 17
32 43 4 35 -20 82 -41 82 -6 0 -23 -6 -37 -13z m47 -41 c17 -37 12 -69 -10
-60 -17 6 -37 47 -37 74 0 32 29 23 47 -14z"/>
<path d="M1282 740 c-14 -24 -16 -86 -2 -95 6 -3 10 3 10 15 0 28 26 77 47 89
15 9 13 10 -12 11 -20 0 -35 -7 -43 -20z"/>
<path d="M1350 720 c0 -26 -26 -77 -42 -83 -7 -3 -3 -6 9 -6 12 -1 31 10 42
25 25 32 28 84 6 84 -8 0 -15 -9 -15 -20z"/>
<path d="M2040 704 c0 -35 20 -95 39 -118 15 -18 41 -22 41 -6 0 6 -4 10 -9
10 -12 0 -35 60 -33 86 1 12 -7 29 -18 39 -19 18 -20 17 -20 -11z"/>
<path d="M1435 704 c-4 -10 -11 -29 -16 -42 -21 -52 -10 -78 29 -73 8 1 20 -3
28 -10 18 -15 17 -15 38 45 19 60 20 66 3 66 -8 0 -18 -16 -23 -37 -9 -36 -37
-64 -51 -50 -4 4 -1 28 5 54 9 31 9 50 3 56 -7 7 -12 4 -16 -9z"/>
<path d="M1818 718 c0 -2 -2 -47 -3 -100 -2 -91 0 -98 18 -98 15 0 18 5 13 23
-3 12 -6 57 -6 100 0 44 -4 77 -10 77 -5 0 -11 -1 -12 -2z"/>
<path d="M2148 715 c-9 -9 36 -115 50 -115 16 0 15 19 -3 50 -8 14 -14 35 -15
48 0 20 -19 30 -32 17z"/>
<path d="M1585 658 c-2 -7 -6 -33 -7 -58 -4 -54 16 -71 20 -18 3 41 23 63 48
54 11 -4 14 -13 10 -31 -3 -14 -9 -36 -12 -50 -5 -18 -2 -25 9 -25 11 0 17 15
23 56 3 30 3 59 -2 64 -18 15 -84 22 -89 8z"/>
<path d="M1907 653 c-9 -9 -9 -33 1 -33 4 0 13 9 20 20 10 16 10 20 -1 20 -8
0 -17 -3 -20 -7z"/>
<path d="M1956 649 c7 -12 11 -34 13 -81 1 -21 6 -28 22 -28 19 0 20 4 14 43
-9 53 -22 77 -41 77 -9 0 -12 -5 -8 -11z"/>
<path d="M1755 610 c-26 -51 -14 -90 28 -90 17 0 17 1 2 16 -17 17 -13 66 7
92 8 8 6 12 -6 12 -8 0 -22 -13 -31 -30z"/>
<path d="M1914 576 c-6 -26 1 -46 15 -46 5 0 11 16 13 35 5 41 -18 50 -28 11z"/>
</g>
</svg>
