<?xml version="1.0" encoding="UTF-8"?><svg id="_レイヤー_1" xmlns="http://www.w3.org/2000/svg" viewBox="0 0 701.4 159.9"><defs><style>.cls-1{fill:#1c2857;}</style></defs><path class="cls-1" d="M68.6,51.5h-19.7c-.6-3.7-2-6.3-4.2-7.9-2.2-1.6-5.6-2.4-10.2-2.4s-6.6.7-8.6,2c-2.1,1.3-3.1,3.2-3.1,5.6s1.3,4.6,3.9,5.8c2.3,1.1,7.3,2.4,14.9,3.9,10.2,2.1,17.5,4.6,22,7.6,5.3,3.5,8,8.9,8,16.1s-3.6,15.2-10.8,19.8c-6.3,4-14.5,6-24.8,6-22.9,0-34.9-9-36.1-27.1h20.1c.5,4.4,2.1,7.7,4.7,9.8,2.6,2.1,6.5,3.1,11.6,3.1s8.2-1,10.8-2.9c2.2-1.7,3.3-3.9,3.3-6.6s-1.3-4.9-3.8-6.2c-2.3-1.2-6.7-2.5-13.4-4-6.9-1.5-11.8-2.7-14.6-3.6-2.8-.9-5.4-2-7.6-3.2-2.9-1.6-5.2-3.9-6.9-6.8-1.7-3-2.5-6.3-2.5-9.9,0-7.9,3.3-14,9.9-18.1,5.8-3.6,13.6-5.4,23.4-5.4s22.5,3.2,28.2,9.7c3.1,3.5,4.9,8.4,5.4,14.8Z"/><path class="cls-1" d="M119.7,27c12.8,0,22.8,4.2,30.1,12.5,6.3,7.2,9.4,16.6,9.4,28s-4.1,23.4-12.3,30.9c-7.1,6.5-16.2,9.7-27.4,9.7s-22.9-4.2-30.2-12.6c-6.4-7.3-9.6-16.6-9.6-28s4.2-23.2,12.5-30.7c7.2-6.5,16.3-9.8,27.5-9.8ZM119.4,42.6c-6.2,0-10.9,2.5-14.2,7.5-2.8,4.4-4.3,10.2-4.3,17.5s1.8,14.8,5.5,19.2c3.3,3.8,7.6,5.7,13.1,5.7s10.9-2.5,14.1-7.5c2.8-4.4,4.3-10.2,4.3-17.5s-1.9-14.8-5.6-19.2c-3.2-3.8-7.5-5.7-13-5.7Z"/><path class="cls-1" d="M244.7,76.5c-1.5,10.6-5.8,18.8-13.1,24.3-6.3,4.8-14.3,7.2-23.8,7.2s-22.5-4.1-29.7-12.3c-6.2-7.1-9.4-16.3-9.4-27.5s4.1-23.8,12.2-31.4c7-6.6,16.1-9.9,27.3-9.9s19.7,2.9,26.3,8.8c5.7,5.1,8.9,11.9,9.8,20.2h-20.7c-.8-4.2-2.5-7.5-5.1-9.7-2.6-2.3-6-3.4-10.1-3.4-6.2,0-10.9,2.5-14.1,7.4-2.8,4.3-4.3,10.1-4.3,17.5s1.8,14.5,5.3,18.8c3.1,3.7,7.3,5.6,12.6,5.6,9.3,0,14.7-5.2,16.3-15.7h20.5Z"/><path class="cls-1" d="M278.8,0v20.7h-21V0h21ZM278.8,31.8v74.1h-21V31.8h21Z"/><path class="cls-1" d="M331.9,27c12.8,0,22.8,4.2,30.1,12.5,6.3,7.2,9.4,16.6,9.4,28s-4.1,23.4-12.3,30.9c-7.1,6.5-16.2,9.7-27.4,9.7s-22.9-4.2-30.2-12.6c-6.4-7.3-9.6-16.6-9.6-28s4.2-23.2,12.5-30.7c7.2-6.5,16.3-9.8,27.5-9.8ZM331.6,42.6c-6.2,0-10.9,2.5-14.2,7.5-2.8,4.4-4.3,10.2-4.3,17.5s1.8,14.8,5.5,19.2c3.3,3.8,7.6,5.7,13.1,5.7s10.9-2.5,14.1-7.5c2.8-4.4,4.3-10.2,4.3-17.5s-1.9-14.8-5.6-19.2c-3.2-3.8-7.5-5.7-13-5.7Z"/><path class="cls-1" d="M402.6,29.1v10.7c3.4-4.5,7.1-7.8,11.1-9.8,4.1-2,8.9-3.1,14.5-3.1s9.2.9,13.1,2.8c3.9,1.9,6.9,4.5,8.9,7.8,1.6,2.5,2.6,5.2,3.2,8.1.6,2.9.9,6.9.9,12v48.3h-21v-44.1c0-5-.5-8.6-1.3-10.9-.8-2.1-2.3-3.7-4.4-4.9-2.1-1.2-4.6-1.8-7.5-1.8s-6.1.8-8.7,2.3c-2.6,1.5-4.5,3.6-5.7,6.2-1.4,2.9-2.1,7.5-2.1,13.6v39.7h-21V29.1h20Z"/><path class="cls-1" d="M540.7,82.1c-2.2,8.5-6.9,15.1-14.1,19.8-6.3,4.1-13.6,6.2-21.9,6.2-12.6,0-22.6-4.2-29.9-12.5-6.3-7.2-9.4-16.4-9.4-27.6s4.1-22.9,12.3-30.8c7.1-6.8,15.9-10.1,26.3-10.1s21.8,4.4,28.8,13.3c6.1,7.7,9.1,17.5,9.1,29.5v3.2h-55.1c.2,6.9,2.1,12.1,5.5,15.5,3.1,3,7.2,4.5,12.5,4.5s7-.9,9.5-2.6c2.5-1.7,4.5-4.5,6.1-8.3h20.2ZM520.5,59.5c-.6-5.9-2.5-10.4-5.7-13.4-2.8-2.6-6.4-4-10.7-4s-9.1,1.8-12.2,5.3c-2.7,3.1-4.3,7.1-4.9,12.1h33.6Z"/><path class="cls-1" d="M618.5,29.1l-25.3,35.8,28.5,41h-24.3l-11.1-16.7c-1.1-1.7-2.8-4.8-5.1-9.4-2.1,4.2-3.9,7.4-5.3,9.6l-10.7,16.5h-23.9l27.9-40.5-25.4-36.3h24.1l8.2,12.2c.9,1.4,2.7,4.6,5.3,9.4,2.7-4.7,4.7-8,6-9.9l7.6-11.7h23.5Z"/><path class="cls-1" d="M668.3,29.1v14.2h-15.6v36.3c0,4.8.5,7.8,1.6,9.1,1.1,1.3,3.6,2,7.7,2s3.8-.1,6.3-.4v16c-4.7.5-9,.8-12.9.8-5.5,0-9.8-.6-13-1.7-3.2-1.1-5.6-3-7.4-5.5-1.4-2-2.3-4.3-2.7-6.9-.4-2.6-.6-7.3-.6-14.1V6h21v23.1h15.6Z"/><path class="cls-1" d="M677.8,30.9h-4.6v-1.8h11.1v1.8h-4.6v12.4h-1.9v-12.4Z"/><path class="cls-1" d="M686.7,29.1h2.9l4.5,10.7h0l4.5-10.7h2.9v14.2h-1.9v-11.7h0l-4.8,11.7h-1.3l-4.8-11.7h0v11.7h-1.9v-14.2Z"/><path class="cls-1" d="M106.3,153.8h-3.7v-23h-8.2v-3.3h20.1v3.3h-8.2v23Z"/><path class="cls-1" d="M121.6,136.6c1.8-1.6,3.4-2.2,5.7-2.2s4.2.8,5.3,2.2c.9,1.1,1.3,2.4,1.3,4.6v12.7h-3.6v-12.1c0-1.6-.2-2.4-.8-3.1-.6-.7-1.7-1.1-2.9-1.1-3.1,0-5,1.9-5,5.1v11.2h-3.6v-26.2h3.6v9Z"/><path class="cls-1" d="M141.3,145.2c.3,3.9,2.2,6.1,5.5,6.1s3.7-1.1,4.6-3.3h3.5c-.9,4-3.9,6.3-8.1,6.3s-9-4.1-9-10,3.6-10,8.9-10,6.5,2,7.8,5.7c.5,1.4.7,3,.7,5.2h-13.8ZM151.4,142.6c-.2-3.5-1.9-5.4-4.8-5.4s-5.1,2.2-5.3,5.4h10Z"/><path class="cls-1" d="M188.2,135.7c-.4-3.6-2.6-5.4-6.5-5.4s-5.7,1.5-5.7,3.8,1.4,3.1,4.7,3.8l4.2.9c3.1.7,4.7,1.4,5.9,2.5,1.4,1.2,2.1,3,2.1,5,0,5-4,8-10.4,8s-10.9-3.5-11.4-9.8h3.9c.4,4.2,3.1,6.5,7.7,6.5s6.4-1.8,6.4-4.5-1.4-3.3-4.2-3.9l-5.9-1.4c-4.8-1.1-7-3.3-7-6.8s3.8-7.5,9.8-7.5,9.2,2.8,10.1,8.7h-3.8Z"/><path class="cls-1" d="M214.9,144.5c0,5.8-3.7,9.9-9.2,9.9s-9.1-4.1-9.1-10,3.7-10,9.1-10,9.2,4,9.2,10.1ZM200.3,144.3c0,4.4,2,7,5.5,7s5.5-2.6,5.5-6.9-2-7.1-5.5-7.1-5.5,2.6-5.5,7Z"/><path class="cls-1" d="M223.5,153.8h-3.6v-26.2h3.6v26.2Z"/><path class="cls-1" d="M240.9,153.8v-2.2c-1.9,2-3.4,2.7-6,2.7s-4.1-.7-5.2-2.1c-.9-1.2-1.3-2.5-1.3-4.7v-12.7h3.6v12.4c0,2.6,1.2,3.9,3.7,3.9s5-1.8,5-4.8v-11.5h3.6v19h-3.5Z"/><path class="cls-1" d="M258.1,137.7h-3.4v11.9c0,1.1.5,1.7,1.4,1.7s1-.1,2-.5v3c-1.6.4-2.2.4-3,.4-2.7,0-4-1.5-4-4.6v-11.9h-2.6v-2.9h2.6v-6h3.6v6h3.4v2.9Z"/><path class="cls-1" d="M265.9,131.8h-3.6v-4.2h3.6v4.2ZM265.9,153.8h-3.6v-19h3.6v19Z"/><path class="cls-1" d="M288.7,144.5c0,5.8-3.7,9.9-9.2,9.9s-9.1-4.1-9.1-10,3.7-10,9.1-10,9.2,4,9.2,10.1ZM274.1,144.3c0,4.4,2,7,5.5,7s5.5-2.6,5.5-6.9-2-7.1-5.5-7.1-5.5,2.6-5.5,7Z"/><path class="cls-1" d="M296.9,134.8v2.2c1.9-2,3.4-2.7,6-2.7s4.1.7,5.2,2.1c.9,1.2,1.3,2.5,1.3,4.7v12.7h-3.6v-12.4c0-2.6-1.2-3.9-3.7-3.9s-5,1.8-5,4.8v11.5h-3.6v-19h3.5Z"/><path class="cls-1" d="M343.3,135.7c-.4-3.6-2.6-5.4-6.5-5.4s-5.7,1.5-5.7,3.8,1.4,3.1,4.7,3.8l4.2.9c3.1.7,4.7,1.4,5.9,2.5,1.4,1.2,2.1,3,2.1,5,0,5-4,8-10.4,8s-10.9-3.5-11.4-9.8h3.9c.4,4.2,3.1,6.5,7.7,6.5s6.4-1.8,6.4-4.5-1.4-3.3-4.2-3.9l-5.9-1.4c-4.8-1.1-7-3.3-7-6.8s3.8-7.5,9.8-7.5,9.2,2.8,10.1,8.7h-3.8Z"/><path class="cls-1" d="M370.3,144.5c0,5.8-3.7,9.9-9.2,9.9s-9.1-4.1-9.1-10,3.7-10,9.1-10,9.2,4,9.2,10.1ZM355.6,144.3c0,4.4,2,7,5.5,7s5.5-2.6,5.5-6.9-2-7.1-5.5-7.1-5.5,2.6-5.5,7Z"/><path class="cls-1" d="M393.6,135.8c-.8-3.5-3.4-5.5-7-5.5s-8.3,4.1-8.3,10.3,3.3,10.6,8.2,10.6,6.9-2.8,7.5-7.3h3.8c-.3,2.6-.9,4.2-2.2,6.1-2.2,3-5.2,4.5-9.1,4.5s-7-1.5-9.2-4.5c-1.9-2.6-2.9-5.7-2.9-9.3,0-8,5.1-13.6,12.3-13.6s9.6,3.1,10.7,8.5l-3.7.4Z"/><path class="cls-1" d="M432.6,135.8c-.8-3.5-3.4-5.5-7-5.5s-8.3,4.1-8.3,10.3,3.3,10.6,8.2,10.6,6.9-2.8,7.5-7.3h3.8c-.3,2.6-.9,4.2-2.2,6.1-2.2,3-5.2,4.5-9.1,4.5s-7-1.5-9.2-4.5c-1.9-2.6-2.9-5.7-2.9-9.3,0-8,5.1-13.6,12.3-13.6s9.6,3.1,10.7,8.5l-3.7.4Z"/><path class="cls-1" d="M458.8,144.5c0,5.8-3.7,9.9-9.2,9.9s-9.1-4.1-9.1-10,3.7-10,9.1-10,9.2,4,9.2,10.1ZM444.2,144.3c0,4.4,2,7,5.5,7s5.5-2.6,5.5-6.9-2-7.1-5.5-7.1-5.5,2.6-5.5,7Z"/><path class="cls-1" d="M466.4,134.8v2.4c1.5-2.2,2.8-2.9,5.2-2.9s4.1,1,4.9,3.2c1.5-2.3,3.1-3.2,5.7-3.2s3.7.7,4.7,2c.9,1.1,1.2,2.4,1.2,4.6v12.9h-3.6v-12.6c0-2.5-1-3.7-3.1-3.7s-4,1.8-4,4.7v11.6h-3.6v-12.9c0-2.2-1.1-3.3-3.1-3.3s-4,1.8-4,4.5v11.8h-3.6v-19h3.5Z"/><path class="cls-1" d="M496.3,134.7v2.1c1.8-1.7,3.5-2.5,5.8-2.5,5.1,0,8.4,4,8.4,10.2s-3.1,9.9-8.1,9.9-4.6-.9-6.1-2.7v8.2h-3.6v-25.2h3.6ZM496.1,144.2c0,4.6,1.9,7.1,5.4,7.1s5.3-2.5,5.3-7-1.9-7-5.3-7-5.4,2.5-5.4,6.9Z"/><path class="cls-1" d="M515.1,141.1c.2-2.2.6-3.6,1.5-4.6,1.2-1.4,3.5-2.2,6.2-2.2,4.7,0,7.4,2.2,7.4,6.2v8.9c0,1.5.2,1.8,1,1.8s.5,0,.9-.2v2.8c-.9.2-1.6.3-2.4.3-1.7,0-2.5-.7-2.8-2.6-1.9,1.9-4,2.8-6.6,2.8-3.7,0-6.2-2.3-6.2-5.6s1.9-5,5.7-5.7l4.2-.8c2.3-.4,2.8-.8,2.8-2,0-1.8-1.6-3-4.2-3s-3.3.6-3.8,1.6c-.3.5-.4.9-.4,2.3h-3.4ZM527,144.1c-.7.3-1.3.5-2.2.7l-3.7.9c-2.2.5-3.2,1.4-3.2,2.9s1.4,2.9,3.5,2.9c3.1,0,5.6-2.2,5.6-5v-2.4Z"/><path class="cls-1" d="M539.7,134.8v2.2c1.9-2,3.4-2.7,6-2.7s4.1.7,5.2,2.1c.9,1.2,1.3,2.5,1.3,4.7v12.7h-3.6v-12.4c0-2.6-1.2-3.9-3.7-3.9s-5,1.8-5,4.8v11.5h-3.6v-19h3.5Z"/><path class="cls-1" d="M573.9,134.8l-8.4,21.3c-1.1,2.6-2.5,3.7-4.8,3.7s-1.7-.2-2.9-.6v-2.9c1.1.4,1.6.5,2.3.5,1.3,0,2.1-.6,2.6-2l.5-1.5-7.9-18.5h3.9l4.2,10.9c.6,1.7.7,1.9,1.4,4,.4-1.4,1.1-3.4,1.3-4l3.9-10.9h3.8Z"/></svg>