<svg width="279" height="166" viewBox="0 0 279 166" fill="none" xmlns="http://www.w3.org/2000/svg">
<g clip-path="url(#clip0_1_4482)">
<path d="M76.9999 164.3H277.1V76.8L202.1 1.70001H1.8999L1.9999 89.3L76.9999 164.3Z" fill="#001A72"/>
<path fill-rule="evenodd" clip-rule="evenodd" d="M0.398193 0.200012H202.722L278.6 76.1793V165.8H76.3786L0.500616 89.9221L0.398193 0.200012ZM3.40405 5.32548L3.4992 88.678L75.5 160.679V77.4214L3.40405 5.32548ZM5.52122 3.20001L77.6212 75.3H273.482L201.478 3.20001H5.52122ZM275.6 162.8H78.5V78.3H275.6V162.8Z" fill="white"/>
<path d="M113.8 111.7C113.8 114.7 111.8 117.3 107 117.3C104.9 117.3 103.2 116.8 101.7 116.2V112C103.3 112.8 105.2 113.3 106.9 113.3C108.5 113.3 109.3 112.8 109.3 111.9C109.3 109.1 101.7 110 101.7 104.3C101.7 100.8 104.5 98.7 108.4 98.7C110 98.7 111.5 99.1 113.1 100V104.3C111 103 109.5 102.6 108.3 102.6C106.9 102.6 106.1 103.1 106.1 104C106.1 106.7 113.8 105.6 113.8 111.7Z" fill="white"/>
<path d="M117.7 108C117.7 102.9 121.9 98.7 127 98.7C132.1 98.7 136.3 102.9 136.3 108C136.3 113.1 132.1 117.3 127 117.3C121.8 117.2 117.7 113.1 117.7 108ZM131.7 108C131.7 105.2 129.6 103.1 127 103.1C124.4 103.1 122.3 105.2 122.3 108C122.3 110.8 124.4 112.9 127 112.9C129.6 112.9 131.7 110.8 131.7 108Z" fill="white"/>
<path d="M146.6 97.6V99.1H152.5L150.5 103.3H146.7V116.9H142.4V103.3H139.4V99.1H142.4V97.4C142.4 92 145.2 89.3 149.6 89.3C150.7 89.3 151.7 89.5 152.6 89.7V93.9C151.8 93.6 150.9 93.5 150 93.5C147.6 93.4 146.6 95 146.6 97.6Z" fill="white"/>
<path d="M161.5 103.3V110.4C161.5 112.3 162.6 113.1 164.3 113.1C165.4 113.1 166.5 112.8 167.4 112.2V116.5C166.2 117 165.1 117.3 163.5 117.3C159.6 117.3 157.2 115.2 157.2 110.9V103.3H154.6V99.1H157.2V94.6L161.5 93.5V99.2H167.4V103.4L161.5 103.3Z" fill="white"/>
<path d="M198.6 99.1L192.9 116.9H188.6L184.7 104.7L180.7 116.9H176.4L170.7 99.1H175.6L178.8 111L182.6 99.1H186.9L190.7 111L193.9 99.1H198.6Z" fill="white"/>
<path d="M200.8 108C200.8 102.9 204.5 98.7 209.6 98.7C211.6 98.7 213.2 99.3 214.4 100.3V99.1H218.7V116.9H214.5V115.5C213.3 116.6 211.6 117.3 209.5 117.3C204.5 117.2 200.8 113.1 200.8 108ZM214.8 108C214.8 105.2 212.7 103.1 210.1 103.1C207.5 103.1 205.4 105.2 205.4 108C205.4 110.8 207.5 112.9 210.1 112.9C212.7 112.9 214.8 110.8 214.8 108Z" fill="white"/>
<path d="M224.8 99.1H229V101.6C230.3 99.2 232.7 98.8 234.8 98.8V103.9C231.8 103.1 229.1 104.8 229.1 108.6V116.9H224.8V99.1Z" fill="white"/>
<path d="M248.3 113.1C250 113.1 252 112.8 254 112L251.8 116.5C250.8 116.9 249.3 117.3 247.5 117.3C241.2 117.3 237.4 113.4 237.4 108C237.4 102.9 241.2 98.7 246.7 98.7C250.4 98.7 253.4 100.6 254.6 103V109.4H242C242.7 111.6 244.7 113.1 248.3 113.1ZM242 106.1H251.3C250.7 104 248.9 102.7 246.6 102.7C244.3 102.7 242.6 104.1 242 106.1Z" fill="white"/>
<path d="M126.7 131.9V143.6H122.4V132.6C122.4 130.7 121 129.6 119.6 129.6C118.1 129.6 116.8 130.7 116.8 132.6V143.6H112.5V132.6C112.5 130.7 111.1 129.6 109.7 129.6C108.2 129.6 106.9 130.7 106.9 132.6V143.6H102.6V125.8H106.8V127.1C108.1 125.8 109.4 125.4 111.1 125.4C113 125.4 114.6 126.2 115.7 127.7C117.2 126.1 119 125.4 121.1 125.4C124.1 125.5 126.7 128.1 126.7 131.9Z" fill="white"/>
<path d="M131.2 134.7C131.2 129.6 134.9 125.4 140 125.4C142 125.4 143.6 126 144.8 127V125.8H149.1V143.6H145V142.2C143.8 143.3 142.1 144 140 144C134.9 144 131.2 139.8 131.2 134.7ZM145.2 134.7C145.2 131.9 143.1 129.8 140.5 129.8C137.9 129.8 135.8 131.9 135.8 134.7C135.8 137.5 137.9 139.6 140.5 139.6C143.1 139.7 145.2 137.5 145.2 134.7Z" fill="white"/>
<path d="M155 125.9H159.2V127.2C160.5 125.9 162.2 125.5 163.9 125.5C167.6 125.5 170.6 128.3 170.6 132.1V143.6H166.3V133C166.3 131.1 164.8 129.6 162.9 129.6C161 129.6 159.5 131.1 159.5 133V143.6H155V125.9Z" fill="white"/>
<path d="M187.8 138.4C187.8 141.4 185.8 144 181 144C178.9 144 177.2 143.5 175.7 142.9V138.7C177.3 139.5 179.2 140 180.9 140C182.5 140 183.3 139.5 183.3 138.6C183.3 135.8 175.7 136.7 175.7 131C175.7 127.5 178.5 125.4 182.4 125.4C184 125.4 185.5 125.8 187.1 126.7V131C185 129.7 183.5 129.3 182.3 129.3C180.9 129.3 180.1 129.8 180.1 130.7C180.1 133.4 187.8 132.4 187.8 138.4Z" fill="white"/>
<path d="M197.2 125.9V143.7H192.9V125.9C192.9 125.9 197.2 125.9 197.2 125.9Z" fill="white"/>
<path d="M201.7 134.7C201.7 129.6 205.9 125.4 211 125.4C216.1 125.4 220.3 129.6 220.3 134.7C220.3 139.8 216.1 144 211 144C205.9 144 201.7 139.8 201.7 134.7ZM215.7 134.7C215.7 131.9 213.6 129.8 211 129.8C208.4 129.8 206.3 131.9 206.3 134.7C206.3 137.5 208.4 139.6 211 139.6C213.6 139.6 215.7 137.5 215.7 134.7Z" fill="white"/>
<path d="M224.7 125.9H228.9V127.2C230.2 125.9 231.9 125.5 233.6 125.5C237.3 125.5 240.3 128.3 240.3 132.1V143.6H236V133C236 131.1 234.5 129.6 232.6 129.6C230.7 129.6 229.2 131.1 229.2 133V143.6H224.9V125.9H224.7Z" fill="white"/>
<path d="M248.7 138.7V139.4H247.2V143.6H246.4V139.4H244.9V138.7H248.7Z" fill="white"/>
<path d="M250.5 138.7L252.1 142.6L253.6 138.7H254.6V143.6H253.8V140L252.3 143.6H251.6L250.1 140V143.6H249.3V138.7H250.5Z" fill="white"/>
</g>
<defs>
<clipPath id="clip0_1_4482">
<rect width="279" height="166" fill="white"/>
</clipPath>
</defs>
</svg>
