<?xml version="1.0" encoding="utf-8"?>
<!-- Generator: Adobe Illustrator 27.4.1, SVG Export Plug-In . SVG Version: 6.00 Build 0)  -->
<svg version="1.1" id="レイヤー_1" xmlns="http://www.w3.org/2000/svg" xmlns:xlink="http://www.w3.org/1999/xlink" x="0px"
	 y="0px" viewBox="0 0 833.33 272.13" style="enable-background:new 0 0 833.33 272.13;" xml:space="preserve">
<style type="text/css">
	
		.st0{clip-path:url(#SVGID_00000165932691223649400260000014939434808643400591_);fill:url(#SVGID_00000155146331733234855600000018296043248400582311_);}
	.st1{clip-path:url(#SVGID_00000165932691223649400260000014939434808643400591_);}
	.st2{fill:#FFFFFF;}
	.st3{fill:#FEFEFE;}
	.st4{fill:#FDFDFD;}
	.st5{fill:#FCFCFC;}
	.st6{fill:#FBFBFB;}
	.st7{fill:#FAFAFA;}
	.st8{fill:#F9FAFA;}
	.st9{fill:#F9F9F9;}
	.st10{fill:#F8F8F8;}
	.st11{fill:#F7F8F8;}
	.st12{fill:#F7F7F7;}
	.st13{fill:#F6F6F6;}
	.st14{fill:#F5F6F6;}
	.st15{fill:#F5F5F5;}
	.st16{fill:#F4F4F4;}
	.st17{fill:#F3F4F4;}
	.st18{fill:#F3F3F3;}
	.st19{fill:#F2F2F2;}
	.st20{fill:#F1F2F2;}
	.st21{fill:#F1F1F1;}
	.st22{fill:#F0F0F1;}
	.st23{fill:#EFF0F0;}
	.st24{fill:#EFEFEF;}
	.st25{fill:#EEEEEF;}
	.st26{fill:#EDEEEE;}
	.st27{fill:#EDEDED;}
	.st28{fill:#ECECED;}
	.st29{fill:#EBECEC;}
	.st30{fill:#EBEBEB;}
	.st31{fill:#EAEAEA;}
	.st32{fill:#E9EAEA;}
	.st33{fill:#E9E9E9;}
	.st34{fill:#E8E8E8;}
	.st35{fill:#E7E7E8;}
	.st36{fill:#E6E7E7;}
	.st37{fill:#E6E6E6;}
	.st38{fill:#E5E5E6;}
	.st39{fill:#E4E5E5;}
	.st40{fill:#E4E4E4;}
	.st41{fill:#E3E3E4;}
	.st42{fill:#E2E3E3;}
	.st43{fill:#E1E2E2;}
	.st44{fill:#E1E1E2;}
	.st45{fill:#E0E0E1;}
	.st46{fill:#DFE0E0;}
	.st47{fill:#DFDFDF;}
	.st48{fill:#DEDEDF;}
	.st49{fill:#DDDEDE;}
	.st50{fill:#DCDDDD;}
	.st51{fill:#DCDCDD;}
	.st52{fill:#DBDBDC;}
	.st53{fill:#DADBDB;}
	.st54{fill:#D9DADA;}
	.st55{fill:#D9D9DA;}
	.st56{fill:#D8D9D9;}
	.st57{fill:#D7D8D8;}
	.st58{fill:#D7D7D7;}
	.st59{fill:#D6D6D7;}
	.st60{fill:#D5D6D6;}
	.st61{fill:#D4D5D5;}
	.st62{fill:#D4D4D5;}
	.st63{fill:#D3D3D4;}
	.st64{clip-path:url(#SVGID_00000165932691223649400260000014939434808643400591_);fill:#E60012;}
	.st65{fill:url(#SVGID_00000147922413998530461510000014208060154402883979_);}
	.st66{opacity:0.6;fill:url(#SVGID_00000129205871194924473580000011739485546235429778_);}
	.st67{clip-path:url(#SVGID_00000165932691223649400260000014939434808643400591_);fill:none;}
</style>
<g>
	<g>
		<g>
			<defs>
				<path id="SVGID_1_" d="M65.68,183.8c-9.25-13.61-14.65-30.04-14.65-47.73c0-46.96,38.07-85.04,85.04-85.04
					c32.9,0,61.44,18.69,75.58,46.03C149.93,100.41,96.34,134.26,65.68,183.8z M136.06,221.1c46.97,0,85.04-38.08,85.04-85.04
					c0-12.15-2.55-23.7-7.14-34.15C107.56,107.41,60.45,221.1,136.06,221.1z"/>
			</defs>
			<clipPath id="SVGID_00000081608736392980141180000005452003377807085991_">
				<use xlink:href="#SVGID_1_"  style="overflow:visible;"/>
			</clipPath>
			
				<radialGradient id="SVGID_00000160180151711791593740000003662223701334339507_" cx="2506.8384" cy="-757.2406" r="170.0777" gradientTransform="matrix(0 -0.5 0.5 0 514.6494 1389.4553)" gradientUnits="userSpaceOnUse">
				<stop  offset="0.85" style="stop-color:#FFFFFF"/>
				<stop  offset="1" style="stop-color:#B3B3B3"/>
			</radialGradient>
			
				<path style="clip-path:url(#SVGID_00000081608736392980141180000005452003377807085991_);fill:url(#SVGID_00000160180151711791593740000003662223701334339507_);" d="
				M136.03,51c-46.96,0-85.04,38.07-85.04,85.04c0,46.97,38.07,85.04,85.04,85.04c46.97,0,85.04-38.07,85.04-85.04
				C221.07,89.07,182.99,51,136.03,51z"/>
			<g style="clip-path:url(#SVGID_00000081608736392980141180000005452003377807085991_);">
				<path class="st2" d="M101.21,191.32c-30.26-19.11-39.17-59.34-19.9-89.86c19.27-30.53,59.43-39.79,89.69-20.68
					c30.26,19.11,39.17,59.34,19.9,89.87C171.63,201.16,131.47,210.42,101.21,191.32z"/>
				<path class="st2" d="M101.24,190.87c-29.91-18.89-38.71-58.84-19.56-89.16c19.15-30.33,58.99-39.55,88.9-20.67
					c29.91,18.89,38.64,58.78,19.49,89.11C170.93,200.48,131.15,209.76,101.24,190.87z"/>
				<path class="st3" d="M101.28,190.43c-29.56-18.67-38.25-58.34-19.22-88.46c19.02-30.14,58.55-39.32,88.12-20.66
					c29.56,18.67,38.1,58.22,19.08,88.36C170.23,199.8,130.83,209.1,101.28,190.43z"/>
				<path class="st3" d="M101.31,189.99c-29.21-18.45-37.78-57.83-18.88-87.77c18.9-29.94,58.12-39.09,87.33-20.64
					c29.21,18.45,37.57,57.66,18.68,87.6C169.53,199.11,130.51,208.43,101.31,189.99z"/>
				<path class="st4" d="M101.34,189.54c-28.86-18.23-37.32-57.33-18.55-87.07c18.77-29.74,57.68-38.86,86.54-20.63
					c28.87,18.23,37.04,57.11,18.27,86.85C168.83,198.43,130.2,207.77,101.34,189.54z"/>
				<path class="st4" d="M101.37,189.1c-28.51-18.01-36.86-56.83-18.21-86.37c18.65-29.55,57.24-38.63,85.76-20.62
					c28.52,18.01,36.51,56.55,17.86,86.09C168.13,197.75,129.88,207.1,101.37,189.1z"/>
				<path class="st5" d="M101.4,188.66c-28.16-17.79-36.4-56.32-17.87-85.67c18.53-29.35,56.81-38.39,84.97-20.61
					c28.17,17.79,35.98,55.99,17.45,85.34C167.43,197.06,129.56,206.44,101.4,188.66z"/>
				<path class="st6" d="M101.43,188.21c-27.82-17.57-35.94-55.82-17.54-84.97c18.4-29.15,56.37-38.16,84.19-20.6
					c27.82,17.56,35.45,55.43,17.04,84.58C166.72,196.38,129.24,205.78,101.43,188.21z"/>
				<path class="st6" d="M101.46,187.77C74,170.43,65.98,132.45,84.26,103.5c18.28-28.96,55.93-37.93,83.4-20.59
					c27.47,17.34,34.92,54.87,16.64,83.83C166.02,195.7,128.93,205.11,101.46,187.77z"/>
				<path class="st7" d="M101.49,187.33c-27.12-17.12-35.02-54.81-16.86-83.57c18.15-28.76,55.5-37.7,82.61-20.57
					c27.12,17.12,34.38,54.31,16.23,83.07C165.32,195.01,128.61,204.45,101.49,187.33z"/>
				<path class="st8" d="M101.53,186.88c-26.77-16.9-34.56-54.31-16.53-82.87c18.03-28.56,55.06-37.47,81.83-20.56
					c26.77,16.9,33.85,53.76,15.82,82.32C164.62,194.33,128.29,203.79,101.53,186.88z"/>
				<path class="st9" d="M101.56,186.44c-26.42-16.68-34.1-53.81-16.19-82.17c17.91-28.37,54.62-37.23,81.04-20.55
					c26.42,16.68,33.32,53.2,15.41,81.56C163.92,193.65,127.97,203.12,101.56,186.44z"/>
				<path class="st10" d="M101.59,186c-26.07-16.46-33.64-53.3-15.85-81.47c17.78-28.17,54.19-37,80.26-20.54
					c26.07,16.46,32.79,52.64,15.01,80.81C163.22,192.96,127.65,202.46,101.59,186z"/>
				<path class="st11" d="M101.62,185.55c-25.72-16.24-33.18-52.8-15.52-80.77c17.66-27.97,53.75-36.77,79.47-20.53
					c25.72,16.24,32.26,52.08,14.6,80.05C162.51,192.28,127.34,201.79,101.62,185.55z"/>
				<path class="st12" d="M101.65,185.11c-25.37-16.02-32.72-52.3-15.18-80.07C104,77.26,139.78,68.5,165.16,84.53
					c25.38,16.02,31.73,51.52,14.19,79.3C161.81,191.6,127.02,201.13,101.65,185.11z"/>
				<path class="st13" d="M101.68,184.67c-25.02-15.8-32.26-51.79-14.84-79.37c17.41-27.58,52.88-36.3,77.9-20.5
					c25.03,15.8,31.19,50.96,13.78,78.54C161.11,190.91,126.7,200.47,101.68,184.67z"/>
				<path class="st14" d="M101.71,184.22c-24.67-15.58-31.8-51.29-14.51-78.67c17.29-27.38,52.44-36.07,77.11-20.49
					c24.68,15.58,30.66,50.41,13.37,77.79C160.41,190.23,126.38,199.8,101.71,184.22z"/>
				<path class="st15" d="M101.75,183.78c-24.32-15.36-31.34-50.79-14.17-77.97c17.16-27.19,52-35.84,76.33-20.48
					c24.33,15.36,30.13,49.85,12.97,77.03C159.71,189.55,126.06,199.14,101.75,183.78z"/>
				<path class="st16" d="M101.78,183.34C77.8,168.2,70.9,133.05,87.94,106.07c17.04-26.99,51.57-35.61,75.54-20.47
					c23.98,15.14,29.6,49.29,12.56,76.28C159.01,188.86,125.75,198.47,101.78,183.34z"/>
				<path class="st17" d="M101.81,182.89c-23.62-14.92-30.41-49.78-13.5-76.57c16.91-26.79,51.13-35.38,74.76-20.46
					c23.63,14.92,29.07,48.73,12.15,75.52C158.31,188.18,125.43,197.81,101.81,182.89z"/>
				<path class="st18" d="M101.84,182.45c-23.28-14.7-29.95-49.28-13.16-75.87c16.79-26.6,50.69-35.14,73.97-20.44
					c23.28,14.7,28.54,48.17,11.74,74.77C157.6,187.5,125.11,197.15,101.84,182.45z"/>
				<path class="st19" d="M101.87,182.01c-22.93-14.48-29.49-48.77-12.82-75.17c16.67-26.4,50.26-34.91,73.19-20.43
					c22.93,14.48,28,47.61,11.34,74.01C156.9,186.81,124.79,196.48,101.87,182.01z"/>
				<path class="st20" d="M101.9,181.56c-22.58-14.26-29.03-48.27-12.49-74.47c16.54-26.2,49.82-34.68,72.4-20.42
					c22.58,14.26,27.47,47.06,10.93,73.26C156.2,186.13,124.48,195.82,101.9,181.56z"/>
				<path class="st21" d="M101.93,181.12c-22.23-14.04-28.57-47.77-12.15-73.77c16.42-26.01,49.38-34.45,71.61-20.41
					c22.23,14.04,26.94,46.5,10.52,72.5C155.5,185.45,124.16,195.16,101.93,181.12z"/>
				<path class="st22" d="M101.96,180.68c-21.88-13.82-28.11-47.27-11.81-73.07c16.29-25.81,48.95-34.21,70.83-20.4
					c21.88,13.81,26.41,45.94,10.11,71.75C154.8,184.76,123.84,194.49,101.96,180.68z"/>
				<path class="st23" d="M102,180.23c-21.53-13.6-27.65-46.76-11.48-72.37c16.17-25.62,48.51-33.98,70.04-20.38
					c21.54,13.59,25.88,45.38,9.71,71C154.1,184.08,123.52,193.83,102,180.23z"/>
				<path class="st24" d="M102.03,179.79c-21.18-13.38-27.19-46.26-11.14-71.67c16.04-25.42,48.07-33.75,69.26-20.37
					c21.19,13.37,25.35,44.82,9.3,70.24C153.4,183.4,123.2,193.16,102.03,179.79z"/>
				<path class="st25" d="M102.06,179.35c-20.83-13.15-26.73-45.76-10.8-70.98c15.92-25.22,47.64-33.52,68.47-20.36
					c20.84,13.15,24.82,44.27,8.89,69.49C152.69,182.71,122.89,192.5,102.06,179.35z"/>
				<path class="st26" d="M102.09,178.9c-20.48-12.93-26.27-45.25-10.47-70.28c15.8-25.03,47.2-33.29,67.68-20.35
					c20.49,12.93,24.28,43.71,8.48,68.73C151.99,182.03,122.57,191.84,102.09,178.9z"/>
				<path class="st27" d="M102.12,178.46c-20.13-12.71-25.81-44.75-10.13-69.58c15.67-24.83,46.77-33.05,66.9-20.34
					c20.14,12.71,23.75,43.15,8.07,67.98C151.29,181.35,122.25,191.17,102.12,178.46z"/>
				<path class="st28" d="M102.15,178.02c-19.78-12.49-25.35-44.25-9.79-68.88c15.55-24.63,46.33-32.82,66.11-20.33
					c19.79,12.49,23.22,42.59,7.67,67.22C150.59,180.66,121.93,190.51,102.15,178.02z"/>
				<path class="st29" d="M102.18,177.57c-19.43-12.27-24.89-43.74-9.46-68.18c15.42-24.44,45.89-32.59,65.33-20.31
					c19.44,12.27,22.69,42.03,7.26,66.47C149.89,179.98,121.61,189.84,102.18,177.57z"/>
				<path class="st30" d="M102.21,177.13c-19.08-12.05-24.43-43.24-9.12-67.48c15.3-24.24,45.46-32.36,64.54-20.3
					c19.09,12.05,22.16,41.47,6.85,65.71C149.19,179.3,121.3,189.18,102.21,177.13z"/>
				<path class="st31" d="M102.25,176.69c-18.74-11.83-23.97-42.74-8.78-66.78c15.18-24.04,45.02-32.13,63.76-20.29
					c18.74,11.83,21.63,40.92,6.44,64.96C148.49,178.61,120.98,188.52,102.25,176.69z"/>
				<path class="st32" d="M102.28,176.24c-18.39-11.61-23.51-42.23-8.45-66.08c15.05-23.85,44.58-31.89,62.97-20.28
					c18.39,11.61,21.09,40.36,6.04,64.2C147.78,177.93,120.66,187.85,102.28,176.24z"/>
				<path class="st33" d="M102.31,175.8c-18.04-11.39-23.04-41.73-8.11-65.38c14.93-23.65,44.15-31.66,62.18-20.27
					c18.05,11.39,20.56,39.8,5.63,63.45C147.08,177.25,120.34,187.19,102.31,175.8z"/>
				<path class="st34" d="M102.34,175.36c-17.69-11.17-22.58-41.23-7.77-64.68c14.8-23.45,43.71-31.43,61.4-20.25
					c17.7,11.17,20.03,39.24,5.22,62.69C146.38,176.56,120.02,186.53,102.34,175.36z"/>
				<path class="st35" d="M102.37,174.91c-17.34-10.95-22.12-40.72-7.44-63.98c14.68-23.26,43.27-31.2,60.61-20.24
					c17.35,10.95,19.5,38.68,4.81,61.94C145.68,175.88,119.71,185.86,102.37,174.91z"/>
				<path class="st36" d="M102.4,174.47c-16.99-10.73-21.66-40.22-7.1-63.28c14.56-23.06,42.84-30.96,59.83-20.23
					c17,10.73,18.97,38.12,4.4,61.18C144.98,175.2,119.39,185.2,102.4,174.47z"/>
				<path class="st37" d="M102.43,174.03c-16.64-10.51-21.2-39.72-6.76-62.58c14.43-22.86,42.4-30.73,59.04-20.22
					c16.65,10.51,18.44,37.57,4,60.43C144.28,174.51,119.07,184.53,102.43,174.03z"/>
				<path class="st38" d="M102.47,173.58c-16.29-10.29-20.74-39.21-6.43-61.88c14.31-22.67,41.96-30.5,58.25-20.21
					c16.3,10.29,17.9,37.01,3.59,59.67C143.57,173.83,118.75,183.87,102.47,173.58z"/>
				<path class="st39" d="M102.5,173.14c-15.94-10.07-20.28-38.71-6.09-61.18c14.18-22.47,41.53-30.27,57.47-20.2
					c15.95,10.06,17.37,36.45,3.18,58.92C142.87,173.15,118.44,183.21,102.5,173.14z"/>
				<path class="st40" d="M102.53,172.7c-15.59-9.85-19.82-38.21-5.75-60.48c14.06-22.27,41.09-30.04,56.68-20.18
					c15.6,9.84,16.84,35.89,2.77,58.16C142.17,172.46,118.12,182.54,102.53,172.7z"/>
				<path class="st41" d="M102.56,172.25c-15.24-9.63-19.36-37.7-5.42-59.78c13.94-22.08,40.65-29.8,55.9-20.17
					c15.25,9.62,16.31,35.33,2.37,57.41C141.47,171.78,117.8,181.88,102.56,172.25z"/>
				<path class="st42" d="M102.59,171.81c-14.89-9.41-18.9-37.2-5.08-59.08c13.81-21.88,40.22-29.57,55.11-20.16
					c14.9,9.4,15.78,34.77,1.96,56.65C140.77,171.1,117.48,181.21,102.59,171.81z"/>
				<path class="st43" d="M102.62,171.36c-14.54-9.19-18.44-36.7-4.74-58.38c13.69-21.68,39.78-29.34,54.33-20.15
					c14.55,9.18,15.25,34.22,1.55,55.9C140.07,170.41,117.16,180.55,102.62,171.36z"/>
				<path class="st44" d="M102.65,170.92c-14.2-8.97-17.98-36.2-4.41-57.68c13.56-21.49,39.34-29.11,53.54-20.14
					c14.21,8.96,14.72,33.66,1.14,55.14C139.37,169.73,116.85,179.89,102.65,170.92z"/>
				<path class="st45" d="M102.68,170.48c-13.85-8.74-17.52-35.69-4.07-56.98c13.44-21.29,38.91-28.88,52.75-20.13
					c13.86,8.74,14.18,33.1,0.74,54.39C138.66,169.05,116.53,179.22,102.68,170.48z"/>
				<path class="st46" d="M102.72,170.03c-13.5-8.52-17.06-35.19-3.73-56.28c13.31-21.09,38.47-28.64,51.97-20.11
					c13.51,8.52,13.65,32.54,0.33,53.63C137.96,168.37,116.21,178.56,102.72,170.03z"/>
				<path class="st47" d="M102.75,169.59c-13.15-8.3-16.6-34.69-3.4-55.58c13.19-20.9,38.03-28.41,51.18-20.1
					c13.16,8.3,13.12,31.98-0.08,52.88C137.26,167.68,115.89,177.9,102.75,169.59z"/>
				<path class="st48" d="M102.78,169.15c-12.8-8.08-16.14-34.18-3.06-54.88c13.07-20.7,37.6-28.18,50.4-20.09
					c12.81,8.08,12.59,31.42-0.49,52.12C136.56,167,115.57,177.23,102.78,169.15z"/>
				<path class="st49" d="M102.81,168.7c-12.45-7.86-15.67-33.68-2.72-54.19c12.94-20.5,37.16-27.95,49.61-20.08
					c12.46,7.86,12.06,30.87-0.9,51.37C135.86,166.32,115.26,176.57,102.81,168.7z"/>
				<path class="st50" d="M102.84,168.26c-12.1-7.64-15.21-33.18-2.39-53.49c12.82-20.31,36.72-27.71,48.82-20.07
					c12.11,7.64,11.53,30.31-1.3,50.61C135.16,165.63,114.94,175.9,102.84,168.26z"/>
				<path class="st51" d="M102.87,167.82c-11.75-7.42-14.75-32.67-2.05-52.79c12.69-20.11,36.29-27.48,48.04-20.05
					c11.76,7.42,10.99,29.75-1.71,49.86C134.46,164.95,114.62,175.24,102.87,167.82z"/>
				<path class="st52" d="M102.9,167.37c-11.4-7.2-14.29-32.17-1.71-52.09c12.57-19.92,35.85-27.25,47.25-20.04
					c11.41,7.2,10.46,29.19-2.12,49.1C133.75,164.27,114.3,174.58,102.9,167.37z"/>
				<path class="st53" d="M102.93,166.93c-11.05-6.98-13.83-31.67-1.38-51.39c12.45-19.72,35.41-27.02,46.47-20.03
					c11.06,6.98,9.93,28.63-2.53,48.35C133.05,163.58,113.99,173.91,102.93,166.93z"/>
				<path class="st54" d="M102.97,166.49c-10.7-6.76-13.37-31.16-1.04-50.69c12.32-19.52,34.98-26.79,45.68-20.02
					c10.72,6.76,9.4,28.07-2.93,47.59C132.35,162.9,113.67,173.25,102.97,166.49z"/>
				<path class="st55" d="M103,166.04c-10.35-6.54-12.91-30.66-0.7-49.99c12.2-19.33,34.54-26.55,44.9-20.01
					c10.37,6.53,8.87,27.52-3.34,46.84C131.65,162.22,113.35,172.58,103,166.04z"/>
				<path class="st56" d="M103.03,165.6c-10-6.32-12.45-30.16-0.37-49.29c12.07-19.13,34.1-26.32,44.11-20
					c10.02,6.31,8.34,26.96-3.75,46.08C130.95,161.53,113.03,171.92,103.03,165.6z"/>
				<path class="st57" d="M103.06,165.16c-9.66-6.1-11.99-29.65-0.03-48.59c11.95-18.93,33.67-26.09,43.32-19.98
					c9.67,6.09,7.8,26.4-4.16,45.33C130.25,160.85,112.71,171.26,103.06,165.16z"/>
				<path class="st58" d="M103.09,164.71c-9.31-5.88-11.53-29.15,0.31-47.89c11.83-18.74,33.23-25.86,42.54-19.97
					c9.32,5.87,7.27,25.84-4.57,44.57C129.54,160.17,112.4,170.59,103.09,164.71z"/>
				<path class="st59" d="M103.12,164.27c-8.96-5.66-11.07-28.65,0.64-47.19c11.7-18.54,32.79-25.62,41.75-19.96
					c8.97,5.65,6.74,25.28-4.97,43.82C128.84,159.48,112.08,169.93,103.12,164.27z"/>
				<path class="st60" d="M103.15,163.83c-8.61-5.44-10.61-28.14,0.98-46.49c11.58-18.34,32.36-25.39,40.97-19.95
					c8.62,5.43,6.21,24.73-5.38,43.06C128.14,158.8,111.76,169.27,103.15,163.83z"/>
				<path class="st61" d="M103.19,163.38c-8.26-5.22-10.15-27.64,1.32-45.79c11.45-18.15,31.92-25.16,40.18-19.94
					c8.27,5.21,5.68,24.17-5.79,42.31C127.44,158.12,111.44,168.6,103.19,163.38z"/>
				<path class="st62" d="M103.22,162.94c-7.91-5-9.69-27.14,1.65-45.09c11.33-17.95,31.49-24.93,39.39-19.92
					c7.92,4.99,5.15,23.61-6.2,41.55C126.74,157.43,111.12,167.94,103.22,162.94z"/>
				<path class="st63" d="M103.25,162.5c-7.56-4.78-9.23-26.64,1.99-44.39c11.2-17.75,31.05-24.7,38.61-19.91
					c7.57,4.77,4.62,23.05-6.6,40.8C126.04,156.75,110.81,167.27,103.25,162.5z"/>
			</g>
			<path style="clip-path:url(#SVGID_00000081608736392980141180000005452003377807085991_);fill:#E60012;" d="M136.06,51.02
				C89.09,51.01,51,89.06,50.99,136.03c-0.02,46.97,38.04,85.05,85,85.07c46.96,0.03,85.06-38.04,85.08-85
				C221.08,89.13,183.02,51.04,136.06,51.02z"/>
			<g style="clip-path:url(#SVGID_00000081608736392980141180000005452003377807085991_);">
				
					<radialGradient id="SVGID_00000124871740029686202190000000521754392363805855_" cx="397.9379" cy="-304.4547" r="162.6343" gradientTransform="matrix(0.4706 0 0 0.4706 -87.7665 222.3207)" gradientUnits="userSpaceOnUse">
					<stop  offset="0" style="stop-color:#FFFFFF"/>
					<stop  offset="1" style="stop-color:#FFFFFF;stop-opacity:0"/>
				</radialGradient>
				<path style="fill:url(#SVGID_00000124871740029686202190000000521754392363805855_);" d="M176.04,79.04
					c0-6.66-0.86-13.12-2.45-19.28c-11.32-5.58-24.05-8.73-37.52-8.74C89.09,51.01,51,89.06,50.99,136.03c0,0.75,0.04,1.5,0.06,2.25
					c13.2,10.81,30.06,17.3,48.45,17.3C141.77,155.58,176.04,121.32,176.04,79.04z"/>
				
					<radialGradient id="SVGID_00000110461610264380095110000006294107506048040612_" cx="606.6292" cy="-46.9853" r="144.5626" gradientTransform="matrix(0.4706 0 0 0.4706 -87.7665 222.2514)" gradientUnits="userSpaceOnUse">
					<stop  offset="0" style="stop-color:#FFFFFF"/>
					<stop  offset="0.95" style="stop-color:#FFFFFF;stop-opacity:0"/>
				</radialGradient>
				<path style="opacity:0.6;fill:url(#SVGID_00000110461610264380095110000006294107506048040612_);" d="M221.06,136.22
					c-7.28-2.66-15.15-4.11-23.35-4.11c-37.57,0-68.03,30.46-68.03,68.03c0,7.29,1.16,14.3,3.28,20.89
					c1.01,0.04,2.01,0.08,3.03,0.08C182.92,221.13,220.98,183.12,221.06,136.22z"/>
			</g>
			<path style="clip-path:url(#SVGID_00000081608736392980141180000005452003377807085991_);fill:none;" d="M65.68,183.8
				c-9.25-13.61-14.65-30.04-14.65-47.73c0-46.96,38.07-85.04,85.04-85.04c32.9,0,61.44,18.69,75.58,46.03
				C149.93,100.41,96.34,134.26,65.68,183.8z M136.06,221.1c46.97,0,85.04-38.08,85.04-85.04c0-12.15-2.55-23.7-7.14-34.15
				C107.56,107.41,60.45,221.1,136.06,221.1z"/>
		</g>
		<g>
			<path d="M319.88,130.16c-1.76-0.99-8.87-5.06-8.87-5.06c-9.73-5.46-18.13-10.19-18.13-18.71c-0.15-7.39,6.54-13.4,16.89-13.4
				c16.84,0,23.79,7.52,26.13,22.01h3.1l4.07-23.97c-9.31-3.29-20.88-5.58-31.09-5.58c-13.07,0-24.11,3.51-30.95,10.65
				c-4.08,4.27-6.07,9.55-5.93,15.68c0.33,13.41,10.08,19.23,21.38,25.98l6.17,3.63c10.81,6.24,22,12.69,22,21.46
				c0,8.44-5.07,16.7-19.12,16.7c-14.27,0-23.22-6.68-26.48-24.05h-3.43l-3.53,26.65c11.62,2.69,22.65,4.37,32.95,4.37
				c29.06,0,39.42-14.3,39.42-27.67C344.44,143.98,331.96,136.95,319.88,130.16z"/>
			<path d="M405.27,85.59c-27.39,0.16-51.94,17.27-51.94,50.97c0,30.99,19.71,50.11,51.49,50.11h0.01h0.01
				c30.76-0.16,50.53-20.18,50.53-51.1C455.36,104.67,436.39,85.59,405.27,85.59z M405.42,93.13c19.31,0,29.04,15.25,29.04,43.26
				c0,27.95-9.61,42.59-29.64,42.73c-20.34,0-30.6-15.35-30.6-43.54C374.22,108.07,384.78,93.13,405.42,93.13z"/>
			<path d="M540.2,156.63c-4.83,13.33-13.08,19.83-29.29,19.83h-14.13c-4.5,0-5.49-1.47-5.49-4.97l0.06-70.31
				c0-6.44,4.37-9.83,8.98-10.04V87.9h-36.12v3.24c1.48,0.09,8.26,1.09,8.26,10.04v69.76c0,8.23-5.93,9.66-8.26,9.78v3.11h73.91
				l5.27-27.2H540.2z"/>
			<path d="M555.47,91.14c3.09,0.13,8.42,1.04,8.56,10.19v68.79c0,9.05-5.76,10.24-8.56,10.34v3.38h36.07v-3.25
				c-2.04-0.09-8.8-1.34-8.8-10.6v-68.39c0-8.44,5.71-10.35,8.8-10.45V87.9h-36.07V91.14z"/>
			<path d="M703.44,183.83h75.24l3.63-26.24h-3.04c-5.24,15.35-14.41,18.91-27.88,18.91h-15.02c-5.04,0-7.12-1.81-7.12-6.37v-32.06
				h21.23c11.08,0,15,3.01,16.33,9.72h2.97v-27.22h-2.95c-1.72,6.89-5.24,9.34-18.36,9.34h-19.22V97.8c0-1.28,0.6-2.53,2.89-2.53
				h21.21c11.96,0,18.63,3.61,22.01,14.48h2.76l-3.57-21.85h-71.11v3.49c5.57,0.65,7.37,2.13,7.37,10.75v68.26
				c0,7.11-2.47,9.54-7.37,10.32V183.83z"/>
			<path d="M687.26,156.6c-5,12.73-14.52,19.87-32.42,19.87h-22.19L690.5,87.9h-74.79l-5.19,27.63h2.79
				c3.85-12.4,12.58-20.29,27.86-20.29h22.78l-58.15,88.6h79.98l4.53-27.24H687.26z"/>
		</g>
	</g>
</g>
</svg>
