<svg xmlns="http://www.w3.org/2000/svg" role="img" viewBox="-5.90 88.85 410.80 67.55"><defs><clipPath id="clip-path"><path fill="none" d="M67 134.85a20.05 20.05 0 0 1-4-12.15A19.65 19.65 0 0 1 80.25 103a49.16 49.16 0 0 1 5.15-.21 37.33 37.33 0 0 1 16.7 4 25.84 25.84 0 0 0-41.51 30.76q-13 4.37-5.66-8.69c-13.21 13.69-4.15 17.71 9.35 12.91s25.88-12 37.28-20.52v1.51a20.18 20.18 0 0 1-.84 5.8q-4.09 16.27-27.09 18.74A25.84 25.84 0 0 0 107 117c10.64-8.51 11.52-19.76-5.63-14.46q12.09.91 3.69 8.91c-8.24 7.85-27.36 18.46-38 23.41zm34.53-13.66zm0 0z"/></clipPath><style>.cls-3{fill:#fe9929}.cls-4{fill:#fe9729}.cls-5{fill:#fe9428}.cls-6{fill:#fe9427}.cls-7{fill:#fe9226}.cls-8{fill:#fe8f26}.cls-9{fill:#fe8f24}.cls-10{fill:#fe8d24}.cls-11{fill:#fe8a24}.cls-12{fill:#fe8824}.cls-13{fill:#fe8522}.cls-14{fill:#fe8221}.cls-15{fill:#fe8021}.cls-16{fill:#fe801f}.cls-17{fill:#fe7d1f}.cls-18{fill:#fe7b1f}.cls-19{fill:#fe781f}.cls-20{fill:#fe761d}.cls-21{fill:#fe731d}.cls-22{fill:#fe711c}.cls-23{fill:#fe6e1c}.cls-24{fill:#fe6e1a}.cls-25{fill:#fe6c1a}.cls-26{fill:#fe691a}.cls-27{fill:#fe6618}.cls-28{fill:#fe6418}.cls-29{fill:#fe6118}.cls-30{fill:#fe5f17}.cls-31{fill:#fe5f16}.cls-32{fill:#fe5c15}.cls-33{fill:#fe5a15}.cls-34{fill:#fe5a13}.cls-35{fill:#fe5713}.cls-36{fill:#fe5513}.cls-37{fill:#fe5213}.cls-38{fill:#fe5013}.cls-39{fill:#fe4f11}.cls-40{fill:#fe4d11}.cls-41{fill:#fe4a10}.cls-42{fill:#fe4a0f}.cls-43{fill:#fe480f}.cls-44{fill:#fe460f}.cls-45{fill:#fe430f}.cls-47{fill:#fe410e}.cls-48{fill:#fe3e0e}.cls-51{fill:#fe390d}.cls-52{fill:#fe360d}.cls-53{fill:#fe330c}.cls-54{fill:#fe310b}.cls-55{fill:#fe2f0b}.cls-58{fill:#fe2a0a}.cls-59{fill:#fe280a}.cls-60{fill:#fe250a}.cls-61{fill:#ff2308}.cls-62{fill:#ff2008}.cls-63{fill:#fe1d08}.cls-66{fill:#ff1807}.cls-67{fill:#ff1707}.cls-68{fill:#ff1506}.cls-69{fill:#ff1305}.cls-70{fill:#ff1105}.cls-72{fill:#ff0f04}.cls-73{fill:#ff0d04}.cls-74{fill:#ff0a04}.cls-76{fill:#ff0701}.cls-77{fill:#ff0001}</style></defs><g clip-path="url(#clip-path)"><path d="M29.56707 127.32378l.43692-.35029 36.3862 45.38494-.43691.35029z" class="cls-3"/><path d="M29.87145 127.0765l.3587-.28798 36.41789 45.35952-.3587.288z" class="cls-3"/><path d="M30.07867 126.92042l.3583-.28848 36.48118 45.30863-.3583.28849z" class="cls-3"/><path d="M30.33414 126.70158l.3584-.28836 36.46536 45.32136-.3584.28836z" class="cls-3"/><path d="M30.54696 126.54991l.35824-.28855 36.4891 45.30227-.35825.28855z" class="cls-4"/><path d="M30.82653 126.31894l.3587-.28799 36.41788 45.35953-.3587.28799z" class="cls-4"/><path d="M31.0582 126.12328l.3587-.28799 36.41789 45.35952-.3587.288z" class="cls-4"/><path d="M31.28084 125.93585l.35844-.2883 36.45746 45.32773-.35845.2883z" class="cls-4"/><path d="M31.50144 125.7779l.3583-.28848 36.48118 45.30863-.3583.2885z" class="cls-5"/><path d="M31.79913 125.5368l.35895-.28768 36.37829 45.39129-.35895.28767z" class="cls-5"/><path d="M32.03036 125.34944l.35875-.28793 36.40997 45.36589-.35875.28792z" class="cls-6"/><path d="M32.2687 125.16073l.35875-.28793 36.40997 45.36588-.35875.28793z" class="cls-6"/><path d="M32.4764 124.98164l.35845-.2883 36.45745 45.32773-.35844.2883z" class="cls-6"/><path d="M32.74078 124.78223l.3588-.28786 36.40205 45.37224-.3588.28786z" class="cls-6"/><path d="M32.98804 124.57367l.35894-.28768 36.3783 45.39129-.35896.28767z" class="cls-7"/><path d="M33.21752 124.39536l.35875-.28792 36.40997 45.36588-.35875.28792z" class="cls-7"/><path d="M33.4748 124.19691l.35894-.28767 36.3783 45.39129-.35896.28767z" class="cls-7"/><path d="M33.7132 123.99834l.35894-.28767 36.37829 45.39129-.35895.28767z" class="cls-7"/><path d="M33.91708 123.82282l.35855-.28818 36.44163 45.34045-.35855.28818z" class="cls-7"/><path d="M34.14765 123.6412l.35845-.2883 36.45746 45.32773-.35845.2883z" class="cls-8"/><path d="M34.4049 123.44233l.3587-.28799 36.4179 45.35952-.3587.288z" class="cls-8"/><path d="M34.67195 123.2236l.35914-.28743 36.3466 45.41668-.35915.28742z" class="cls-8"/><path d="M34.88164 123.05503l.3587-.28798 36.41788 45.35952-.3587.28799z" class="cls-8"/><path d="M35.10968 122.87696l.35845-.2883 36.45746 45.32773-.35845.2883z" class="cls-9"/><path d="M35.35126 122.67106l.3585-.28824 36.44954 45.3341-.3585.28823z" class="cls-9"/><path d="M35.62032 122.46216l.35895-.28767 36.37828 45.39129-.35894.28767z" class="cls-10"/><path d="M35.817 122.30368l.35834-.28843 36.47328 45.315-.35835.28842z" class="cls-10"/><path d="M36.07852 122.0922l.35874-.28793 36.40997 45.36588-.35874.28793z" class="cls-10"/><path d="M36.3055 121.91309l.35849-.28824 36.44954 45.3341-.3585.28823z" class="cls-10"/><path d="M36.5552 121.71477l.35875-.28792 36.40997 45.36588-.35875.28792z" class="cls-10"/><path d="M36.78667 121.5189l.3587-.288 36.41788 45.35953-.3587.28799z" class="cls-10"/><path d="M37.02393 121.34027l.35854-.28818 36.44163 45.34045-.35854.28818z" class="cls-11"/><path d="M37.2855 121.12245l.35895-.28768 36.37829 45.3913-.35895.28767z" class="cls-11"/><path d="M37.49941 120.95382l.3585-.28824 36.44954 45.3341-.3585.28823z" class="cls-11"/><path d="M37.74174 120.76133l.3587-.28799 36.41789 45.35953-.3587.28798z" class="cls-11"/><path d="M37.99 120.5628l.3587-.28799 36.41788 45.35953-.3587.28798z" class="cls-11"/><path d="M38.20862 120.37593l.35844-.2883 36.45746 45.32773-.35845.2883z" class="cls-12"/><path d="M38.47266 120.16878l.3589-.28773 36.3862 45.38493-.35889.28774z" class="cls-12"/><path d="M38.68426 119.99957l.35845-.2883L75.50017 165.039l-.35845.2883z" class="cls-12"/><path d="M38.947 119.80188l.35874-.28793 36.40997 45.36588-.35874.28793z" class="cls-12"/><path d="M39.18455 119.6033l.3587-.28798 36.41788 45.35952-.3587.288z" class="cls-12"/><path d="M39.4151 119.42085l.3587-.28798 36.41788 45.35952-.3587.28799z" class="cls-12"/><path d="M39.63938 119.23172l.3585-.28824 36.44954 45.3341-.3585.28823z" class="cls-13"/><path d="M39.8807 119.03548l.3585-.28824 36.44954 45.3341-.3585.28823z" class="cls-13"/><path d="M40.13526 118.83855l.3588-.28786 36.40205 45.37223-.3588.28786z" class="cls-13"/><path d="M40.37282 118.63998l.35874-.28792 36.40997 45.36588-.35875.28792z" class="cls-13"/><path d="M40.62102 118.45132l.35875-.28793 36.40997 45.36588-.35875.28793z" class="cls-14"/><path d="M40.84295 118.27187l.3585-.28824 36.44954 45.3341-.3585.28823z" class="cls-14"/><path d="M41.09624 118.07412l.3587-.28799 36.41788 45.35953-.3587.28798z" class="cls-14"/><path d="M41.32327 117.88487l.3588-.28786 36.40205 45.37224-.3588.28786z" class="cls-14"/><path d="M41.55258 117.69482l.3585-.28824 36.44954 45.3341-.3585.28823z" class="cls-14"/><path d="M41.80672 117.49747l.3587-.28799 36.41788 45.35953-.3587.28798z" class="cls-14"/><path d="M42.02718 117.31784l.35844-.2883 36.45746 45.32773-.35845.2883z" class="cls-14"/><path d="M42.28304 117.11102l.3587-.28798 36.41789 45.35952-.3587.28799z" class="cls-15"/><path d="M42.51315 116.9308l.35845-.2883 36.45745 45.32773-.35844.2883z" class="cls-15"/><path d="M42.76165 116.72545l.35865-.28805 36.4258 45.35317-.35865.28805z" class="cls-16"/><path d="M42.98404 116.53656l.3585-.28824 36.44954 45.3341-.3585.28823z" class="cls-16"/><path d="M43.2506 116.33698l.35895-.28768 36.37829 45.3913-.35895.28767z" class="cls-17"/><path d="M43.48175 116.1574l.35875-.28793 36.40997 45.36588-.35875.28792z" class="cls-17"/><path d="M43.70052 115.97696l.3585-.28824 36.44954 45.33409-.3585.28823z" class="cls-17"/><path d="M43.95808 115.77095l.35874-.28793L80.7268 160.8489l-.35874.28793z" class="cls-17"/><path d="M44.20807 115.56576l.35895-.28767 36.37829 45.39129-.35895.28767z" class="cls-17"/><path d="M44.42682 115.38532l.3587-.28798 36.41788 45.35952-.3587.28799z" class="cls-17"/><path d="M44.67635 115.18804l.35875-.28793L81.44507 160.266l-.35875.28793z" class="cls-18"/><path d="M44.88647 115.01345l.3585-.28824 36.44953 45.3341-.3585.28823z" class="cls-18"/><path d="M45.14524 114.81687l.35874-.28793 36.40997 45.36588-.35875.28793z" class="cls-18"/><path d="M45.3724 114.6363l.3585-.28824 36.44954 45.33408-.3585.28824z" class="cls-18"/><path d="M45.60389 114.43013l.3585-.28823 36.44954 45.33408-.3585.28824z" class="cls-18"/><path d="M46.1501 113.72698l.3575-.2895 36.60756 45.20659-.35749.28949z" class="cls-19"/><path d="M46.09954 114.04507l.3587-.28799 36.41788 45.35953-.3587.28798z" class="cls-19"/><path d="M46.34063 113.85778l.35875-.28792 36.40997 45.36588-.35875.28792z" class="cls-19"/><path d="M46.58636 113.65845l.3587-.28799L83.36294 158.73l-.3587.28798z" class="cls-19"/><path d="M46.81628 113.47622l.3587-.28799 36.41788 45.35952-.3587.288z" class="cls-19"/><path d="M47.0688 113.27225l.3589-.28774 36.3862 45.38494-.3589.28774z" class="cls-19"/><path d="M47.29683 113.0818l.3587-.28799 36.41789 45.35953-.3587.28799z" class="cls-20"/><path d="M47.51407 112.91064l.3585-.28824 36.44953 45.33409-.3585.28824z" class="cls-20"/><path d="M47.78984 112.6884l.359-.28761 36.37037 45.39763-.359.28761z" class="cls-20"/><path d="M48.01381 112.50682l.35875-.28793 36.40997 45.36588-.35875.28793z" class="cls-20"/><path d="M48.2597 112.31797l.3587-.28798 36.4179 45.35952-.3587.28799z" class="cls-21"/><path d="M48.47218 112.13567l.3585-.28824 36.44953 45.33409-.3585.28824z" class="cls-21"/><path d="M48.7363 111.9327l.35894-.28767 36.37829 45.3913-.35895.28767z" class="cls-21"/><path d="M48.96285 111.74208l.35875-.28792 36.40996 45.36588-.35874.28792z" class="cls-21"/><path d="M49.21128 111.55404l.35874-.28792L85.98 156.632l-.35875.28792z" class="cls-21"/><path d="M49.44624 111.36412l.3587-.28799 36.41788 45.35953-.3587.28798z" class="cls-21"/><path d="M49.68418 111.17625l.3587-.28799 36.41788 45.35953-.3587.28799z" class="cls-21"/><path d="M49.93525 110.97014l.3589-.28773 36.3862 45.38494-.3589.28773z" class="cls-22"/><path d="M50.13815 110.7982l.35844-.2883 36.45746 45.32773-.35845.2883z" class="cls-22"/><path d="M50.40858 110.59162l.3589-.28773 36.3862 45.38493-.3589.28774z" class="cls-22"/><path d="M50.63678 110.41125l.35874-.28793 36.40997 45.36589-.35874.28792z" class="cls-22"/><path d="M50.87138 110.21231l.3587-.28799 36.41789 45.35953-.3587.28798z" class="cls-22"/><path d="M51.09558 110.03095l.3585-.28824 36.44954 45.33409-.3585.28823z" class="cls-22"/><path d="M51.35816 109.83556l.3587-.288 36.41788 45.35953-.3587.288z" class="cls-23"/><path d="M51.59344 109.62976l.35875-.28792 36.40997 45.36588-.35875.28792z" class="cls-23"/><path d="M51.83138 109.4419l.35874-.28793 36.40997 45.36588-.35874.28793z" class="cls-24"/><path d="M52.07178 109.25949l.35875-.28793 36.40997 45.36588-.35875.28793z" class="cls-24"/><path d="M52.31018 109.06091l.35874-.28792 36.40997 45.36588-.35875.28792z" class="cls-25"/><path d="M52.54811 108.87304l.35875-.28792L89.31683 153.951l-.35875.28792z" class="cls-25"/><path d="M52.78708 108.68411l.35875-.28792 36.40997 45.36588-.35875.28792z" class="cls-25"/><path d="M53.02462 108.4875l.3587-.28798 36.41788 45.35952-.3587.28799z" class="cls-25"/><path d="M53.26701 108.28991l.35875-.28792 36.40997 45.36588-.35875.28792z" class="cls-25"/><path d="M53.50135 108.10021l.3587-.28799 36.41788 45.35953-.3587.28799z" class="cls-25"/><path d="M53.74392 107.91311l.35874-.28792 36.40997 45.36588-.35875.28792z" class="cls-25"/><path d="M53.9797 107.72994l.3587-.28799 36.41788 45.35953-.3587.28798z" class="cls-26"/><path d="M54.21404 107.54024l.35864-.28805 36.4258 45.35317-.35864.28805z" class="cls-26"/><path d="M54.46685 107.32872l.3589-.28774 36.38621 45.38494-.3589.28773z" class="cls-26"/><path d="M54.70542 107.14063l.3589-.28774 36.3862 45.38494-.3589.28773z" class="cls-26"/><path d="M54.93631 106.95832l.3587-.288 36.41788 45.35953-.3587.288z" class="cls-27"/><path d="M55.17892 106.76135l.35875-.28792 36.40997 45.36588-.35875.28792z" class="cls-27"/><path d="M55.41727 106.57264l.35874-.28793 36.40997 45.36588-.35875.28793z" class="cls-27"/><path d="M55.6345 106.39753l.3586-.28811 36.43372 45.3468-.3586.28812z" class="cls-27"/><path d="M55.88518 106.18309l.3587-.28799 36.41788 45.35952-.3587.288z" class="cls-27"/><path d="M56.10558 106.00095l.3585-.28824 36.44954 45.33409-.3585.28823z" class="cls-27"/><path d="M56.36608 105.80727l.35875-.28792 36.40997 45.36588-.35875.28792z" class="cls-28"/><path d="M56.6047 105.60932l.35874-.28792 36.40997 45.36588-.35875.28792z" class="cls-28"/><path d="M57.0352 104.99096l.35748-.2895 36.60757 45.20659-.35749.28949z" class="cls-28"/><path d="M57.0672 105.23756l.3585-.28824 36.44955 45.33409-.3585.28824z" class="cls-28"/><path d="M57.31807 105.03488l.3587-.28798 36.41788 45.35952-.3587.28799z" class="cls-28"/><path d="M57.56767 104.83702l.3589-.28773 36.3862 45.38494-.3589.28773z" class="cls-29"/><path d="M57.79646 104.65474l.3587-.28798 36.41788 45.35952-.3587.28799z" class="cls-29"/><path d="M58.02996 104.46464l.35864-.28805 36.4258 45.35316-.35864.28805z" class="cls-29"/><path d="M58.27315 104.27732l.3587-.28799 36.41788 45.35953-.3587.28798z" class="cls-29"/><path d="M58.53139 104.07361l.3589-.28774 36.3862 45.38494-.3589.28774z" class="cls-29"/><path d="M58.7273 103.8978l.35844-.2883 36.45746 45.32773-.35845.2883z" class="cls-29"/><path d="M58.98019 103.70003l.3585-.28824 36.44954 45.33409-.3585.28824z" class="cls-30"/><path d="M59.22686 103.50348l.35875-.28792 36.40997 45.36588-.35875.28792z" class="cls-30"/><path d="M59.46542 103.3154l.35875-.28793 36.40997 45.36588-.35875.28793z" class="cls-31"/><path d="M59.72486 103.1211l.35895-.28767 36.37829 45.39129-.35895.28767z" class="cls-31"/><path d="M59.93443 102.94206l.3585-.28824 36.44954 45.33409-.3585.28824z" class="cls-32"/><path d="M60.20182 102.73444l.35895-.28767 36.37829 45.39129-.35895.28767z" class="cls-32"/><path d="M60.42141 102.544l.35875-.28793 36.40997 45.36588-.35875.28792z" class="cls-32"/><path d="M60.68238 102.34003l.35895-.28767 36.37829 45.39129-.35895.28767z" class="cls-32"/><path d="M60.90885 102.15716l.35875-.28793 36.40997 45.36588-.35875.28793z" class="cls-32"/><path d="M61.1517 101.9701l.35895-.28767 36.37829 45.39129-.35895.28767z" class="cls-32"/><path d="M61.37164 101.78503l.3587-.28798 36.41788 45.35952-.3587.28799z" class="cls-32"/><path d="M61.601 101.61072l.35845-.2883 36.45746 45.32773-.35845.2883z" class="cls-33"/><path d="M61.84605 101.39953l.35864-.28805 36.4258 45.35317-.35864.28805z" class="cls-33"/><path d="M62.09013 101.20275l.3587-.28799L98.8667 146.2743l-.3587.28799z" class="cls-33"/><path d="M62.33395 101.01521l.35875-.28792 36.40997 45.36588-.35875.28792z" class="cls-33"/><path d="M62.57606 100.8256l.3587-.288 36.41788 45.35953-.3587.28799z" class="cls-34"/><path d="M62.80665 100.63327l.3587-.28798 36.41788 45.35952-.3587.28799z" class="cls-34"/><path d="M63.05068 100.44636l.35875-.28793 36.40997 45.36588-.35875.28793z" class="cls-35"/><path d="M63.28277 100.24985l.35874-.28793 36.40997 45.36588-.35874.28793z" class="cls-35"/><path d="M63.50985 100.06508l.3585-.28824 36.44954 45.33409-.3585.28823z" class="cls-35"/><path d="M63.76958 99.86323l.35875-.28793 36.40997 45.36589-.35875.28792z" class="cls-35"/><path d="M64.02233 99.66989l.35895-.28768 36.37828 45.39129-.35894.28767z" class="cls-36"/><path d="M64.26094 99.47194l.35895-.28767 36.37829 45.39129-.35895.28767z" class="cls-36"/><path d="M64.48 99.2928l.3587-.28799 36.41788 45.35953-.3587.28798z" class="cls-36"/><path d="M64.69576 99.11145l.3585-.28824 36.44954 45.33409-.3585.28824z" class="cls-36"/><path d="M64.95634 98.91l.35874-.28793 36.40997 45.36588-.35874.28793z" class="cls-36"/><path d="M65.19473 98.71142l.35874-.28792 36.40997 45.36588-.35874.28792z" class="cls-36"/><path d="M65.43302 98.53257l.35875-.28792 36.40997 45.36588-.35875.28792z" class="cls-36"/><path d="M65.6676 98.33195l.35865-.28805 36.4258 45.35316-.35865.28805z" class="cls-37"/><path d="M65.89555 98.14884l.3585-.28823 36.44954 45.33409-.3585.28823z" class="cls-37"/><path d="M66.16175 97.93418l.3589-.28773 36.3862 45.38494-.3589.28773z" class="cls-37"/><path d="M66.3848 97.75603l.3587-.28799 36.41789 45.35953-.3587.28799z" class="cls-37"/><path d="M66.62337 97.56794l.3587-.28798 36.41788 45.35952-.3587.28799z" class="cls-38"/><path d="M66.85361 97.38375l.3585-.28824 36.44954 45.3341-.3585.28823z" class="cls-38"/><path d="M67.10642 97.18223l.35875-.28792 36.40996 45.36588-.35874.28792z" class="cls-39"/><path d="M67.32967 97.00655l.3585-.28824 36.44954 45.3341-.3585.28823z" class="cls-39"/><path d="M67.58693 96.79768l.35875-.28792 36.40996 45.36588-.35874.28792z" class="cls-39"/><path d="M67.82532 96.5991l.35875-.28792 36.40996 45.36588-.35874.28792z" class="cls-39"/><path d="M68.0471 96.42323l.35849-.28824 36.44954 45.3341-.3585.28823z" class="cls-39"/><path d="M68.31289 96.21547l.35894-.28767 36.3783 45.39129-.35896.28767z" class="cls-40"/><path d="M68.5232 96.04419l.35854-.28818 36.44163 45.34045-.35854.28818z" class="cls-40"/><path d="M68.78062 95.84216l.35874-.28792 36.40997 45.36588-.35875.28792z" class="cls-40"/><path d="M69.01138 95.65231l.3587-.28799 36.41789 45.35953-.3587.28798z" class="cls-41"/><path d="M69.2357 95.46766l.35845-.2883 36.45745 45.32773-.35844.2883z" class="cls-41"/><path d="M69.49105 95.26735l.3587-.28798 36.41788 45.35952-.3587.28799z" class="cls-42"/><path d="M69.73718 95.0804l.35875-.28792 36.40997 45.36588-.35875.28792z" class="cls-42"/><path d="M69.98008 94.8839l.3589-.28773 36.38621 45.38494-.3589.28773z" class="cls-43"/><path d="M70.18954 94.71054l.35844-.2883 36.45746 45.32772-.35845.2883z" class="cls-43"/><path d="M70.43855 94.50865l.35865-.28805 36.4258 45.35317-.35865.28805z" class="cls-44"/><path d="M70.67825 94.30341l.3587-.28799 36.41789 45.35953-.3587.28799z" class="cls-44"/><path d="M70.91682 94.11532l.3587-.28798 36.41788 45.35952-.3587.28799z" class="cls-44"/><path d="M71.16238 93.91873l.35874-.28792 36.40997 45.36588-.35875.28792z" class="cls-45"/><path d="M71.403 93.72892l.3587-.28798 36.41789 45.35952-.3587.28799z" class="cls-45"/><path d="M71.65289 93.53547l.35894-.28767 36.3783 45.39129-.35896.28767z" class="cls-45"/><path fill="#fe410f" d="M71.87906 93.35974l.35875-.28792 36.40997 45.36588-.35875.28792z"/><path d="M72.11344 93.16214l.3587-.28799 36.41788 45.35953-.3587.28799z" class="cls-47"/><path d="M72.35962 92.96533l.35874-.28793 36.40997 45.36588-.35874.28793z" class="cls-47"/><path d="M72.59796 92.77661l.35875-.28792 36.40997 45.36588-.35875.28792z" class="cls-48"/><path d="M72.83445 92.59024l.3588-.28786 36.40205 45.37223-.3588.28786z" class="cls-48"/><path d="M73.06273 92.40124l.3585-.28823 36.44954 45.33409-.3585.28823z" class="cls-48"/><path d="M73.29265 92.21099l.35844-.2883 36.45746 45.32772-.35845.2883z" class="cls-48"/><path fill="#fe3c0e" d="M73.53858 92.01033l.3587-.28799 36.41788 45.35953-.3587.28799z"/><path fill="#fe3b0d" d="M73.7992 91.81098l.35895-.28767 36.37829 45.39129-.35895.28767z"/><path d="M74.02455 91.6233l.3587-.28798 36.41788 45.35952-.3587.288z" class="cls-51"/><path d="M74.26497 91.43287l.35864-.28805 36.4258 45.35317-.35864.28805z" class="cls-51"/><path d="M74.50145 91.2465l.3587-.28798 36.41789 45.35952-.3587.288z" class="cls-51"/><path d="M74.74704 91.0516l.3588-.28787 36.40205 45.37224-.3588.28786z" class="cls-51"/><path d="M74.96669 90.86408l.3585-.28824 36.44954 45.33409-.3585.28824z" class="cls-52"/><path d="M75.22097 90.67118l.35875-.28792 36.40997 45.36588-.35875.28792z" class="cls-52"/><path d="M75.47402 90.4707l.35895-.28768 36.37828 45.3913-.35894.28767z" class="cls-53"/><path d="M75.71263 90.27275l.35895-.28767 36.37829 45.39129-.35895.28767z" class="cls-53"/><path d="M75.93624 90.09412l.3587-.28799 36.41788 45.35953-.3587.28798z" class="cls-53"/><path d="M76.15868 89.90774l.3585-.28824 36.44954 45.3341-.3585.28823z" class="cls-53"/><path d="M76.41557 89.70183l.35875-.28793 36.40997 45.36588-.35875.28793z" class="cls-54"/><path d="M76.63857 89.52342l.3585-.28824 36.44954 45.33409-.3585.28824z" class="cls-54"/><path d="M76.89163 89.32462l.35875-.28793 36.40997 45.36588-.35875.28793z" class="cls-55"/><path d="M77.13958 89.12846l.3589-.28774 36.3862 45.38494-.3589.28774z" class="cls-55"/><path d="M77.36138 88.94231l.3587-.28799 36.41789 45.35953-.3587.28798z" class="cls-55"/><path d="M77.6096 88.75364l.35869-.28798 36.41789 45.35952-.3587.28799z" class="cls-55"/><path fill="#fe2d0b" d="M77.82486 88.56725l.35844-.2883 36.45746 45.32773-.35845.2883z"/><path fill="#fe2d0a" d="M78.07961 88.36927l.3587-.288 36.41788 45.35953-.3587.288z"/><path d="M78.33506 88.1612l.35895-.28768 36.37829 45.3913-.35895.28767z" class="cls-58"/><path d="M78.56643 87.98265l.3587-.288 36.41788 45.35953-.3587.288z" class="cls-58"/><path d="M78.79635 87.80041l.3587-.28798 36.41788 45.35952-.3587.28799z" class="cls-58"/><path d="M79.02574 87.6154l.35854-.28817 36.44163 45.34045-.35854.28817z" class="cls-58"/><path d="M79.28256 87.4157l.35875-.28793 36.40997 45.36588-.35875.28793z" class="cls-59"/><path d="M79.51465 87.21919l.35874-.28793 36.40997 45.36588-.35875.28793z" class="cls-59"/><path d="M79.872 86.33429l.3575-.2895 36.60756 45.20659-.35748.28949z" class="cls-59"/><path d="M79.97245 86.84205l.3585-.28824 36.44954 45.33409-.3585.28824z" class="cls-59"/><path d="M80.24844 86.63282l.35895-.28767 36.37829 45.39128-.35895.28768z" class="cls-60"/><path d="M80.47757 86.4455l.35875-.28793 36.40996 45.36588-.35874.28793z" class="cls-60"/><path d="M80.68835 86.27279l.3585-.28824 36.44953 45.3341-.3585.28823z" class="cls-61"/><path d="M80.94017 86.06485l.3587-.28799 36.41788 45.35953-.3587.28798z" class="cls-61"/><path d="M81.15811 85.8861l.35845-.2883 36.45745 45.32773-.35844.2883z" class="cls-61"/><path d="M81.43682 85.67662l.3589-.28774 36.3862 45.38494-.35889.28774z" class="cls-61"/><path d="M81.64409 85.49907l.35844-.2883L118.46 130.5385l-.35845.2883z" class="cls-62"/><path d="M81.90234 85.30943l.35865-.28805 36.4258 45.35316-.35864.28805z" class="cls-62"/><path d="M82.15109 85.11551l.35875-.28792 36.40997 45.36588-.35875.28792z" class="cls-63"/><path d="M82.37564 84.91602l.35875-.28792 36.40997 45.36588-.35875.28792z" class="cls-63"/><path d="M82.61352 84.72437l.3587-.28798 36.41788 45.35952-.3587.28799z" class="cls-63"/><path d="M82.85145 84.5365l.3587-.28798 36.41789 45.35952-.3587.288z" class="cls-63"/><path fill="#fe1a08" d="M83.11233 84.33989l.35895-.28768 36.37828 45.39129-.35894.28767z"/><path fill="#ff1a07" d="M83.3383 84.15157l.35874-.28792 36.40997 45.36588-.35874.28792z"/><path d="M83.5638 83.97228l.3585-.28824 36.44954 45.33409-.3585.28824z" class="cls-66"/><path d="M83.80832 83.7672l.35874-.28793 36.40997 45.36588-.35874.28792z" class="cls-66"/><path d="M84.03359 83.58728l.3585-.28824 36.44954 45.3341-.3585.28823z" class="cls-66"/><path d="M84.28733 83.38683l.35875-.28792 36.40997 45.36588-.35875.28792z" class="cls-66"/><path d="M84.51177 83.20651l.3585-.28823 36.44954 45.33409-.3585.28823z" class="cls-67"/><path d="M84.74953 83.00815l.3585-.28824 36.44954 45.33409-.3585.28824z" class="cls-67"/><path d="M85.00108 82.81945l.3587-.28799 36.41789 45.35953-.3587.28799z" class="cls-68"/><path d="M85.24308 82.61312l.3587-.28799 36.41788 45.35953-.3587.28799z" class="cls-68"/><path d="M85.48142 82.4244l.3587-.28798 36.41788 45.35953-.3587.28798z" class="cls-68"/><path d="M85.71826 82.23382l.35865-.28805 36.4258 45.35317-.35865.28805z" class="cls-68"/><path d="M85.96442 82.04379l.3589-.28774 36.3862 45.38494-.35889.28774z" class="cls-69"/><path d="M86.19816 81.85556l.3587-.288 36.41788 45.35953-.3587.288z" class="cls-69"/><path d="M86.42245 81.68008l.35855-.28818 36.44163 45.34046-.35855.28817z" class="cls-70"/><path d="M86.65286 81.4712l.3585-.28824 36.44953 45.3341-.3585.28823z" class="cls-70"/><path d="M86.94955 81.25683l.3592-.28736 36.33866 45.42301-.3592.28736z" class="cls-70"/><path d="M87.15586 81.08665l.35875-.28793 36.40997 45.36588-.35875.28793z" class="cls-70"/><path fill="#ff0f05" d="M87.3927 80.89607l.3587-.288 36.41789 45.35953-.3587.288z"/><path d="M87.6151 80.7076l.3585-.28825 36.44955 45.3341-.3585.28823z" class="cls-72"/><path d="M87.87322 80.51758l.35875-.28793 36.40997 45.36588-.35875.28793z" class="cls-72"/><path d="M88.10468 80.32128l.35875-.28792 36.40996 45.36588-.35874.28792z" class="cls-73"/><path d="M88.34329 80.12333l.35875-.28792 36.40997 45.36588-.35875.28792z" class="cls-73"/><path d="M88.57991 79.93212l.3587-.28798 36.41788 45.35952-.3587.28799z" class="cls-73"/><path d="M88.81763 79.74363l.3587-.28799 36.41788 45.35953-.3587.28799z" class="cls-74"/><path d="M89.06606 79.5556l.3587-.288 36.41788 45.35953-.3587.28799z" class="cls-74"/><path fill="#ff0a01" d="M89.285 79.37368l.35845-.2883 36.45746 45.32772-.35845.2883z"/><path d="M89.55182 79.16486l.3589-.28774 36.38621 45.38494-.3589.28774z" class="cls-76"/><path d="M89.76645 78.97827l.3587-.28799 36.41788 45.35953-.3587.28798z" class="cls-76"/><path d="M90.0227 78.78088l.3589-.28774 36.3862 45.38494-.3589.28774z" class="cls-76"/><path d="M90.25264 78.59187l.3587-.28799 36.41788 45.35953-.3587.28798z" class="cls-77"/><path d="M90.48992 78.40955l7.84454-6.29816 36.41789 45.35952-7.84454 6.29816z" class="cls-77"/></g><path fill="#232028" fill-rule="evenodd" d="M2.1 144.05l1.6-8a42.1 42.1 0 0 0 15.67 2.66q11 0 12.43-7.32c.71-3.57-1.18-5.34-5.66-5.34h-7.48q-14.66 0-11.95-13.33 2.93-14.65 23.76-14.67a44.65 44.65 0 0 1 14.7 2.34l-1.61 8a39 39 0 0 0-14.63-2.66q-12 0-13.4 7c-.7 3.56.87 5.33 4.74 5.33h7.46q15.56 0 12.9 13.34-3 15-22.8 15a48 48 0 0 1-15.73-2.35zm120.06 2l9.53-47.66h8.84l18.36 34.07 6.8-34.07h8.5l-9.53 47.66h-8.84l-18.19-34.8-6.97 34.8h-8.5zm69.12 0h-9.4l29.76-47.66h9.5l11.14 47.66h-9.17l-2.83-13h-15.83l4.56-7.66h9.61l-3.94-17.91-23.4 38.57zm93.93-47.66l-1.53 7.66h-13.67l-7.99 40h-8.84l8-40h-13.67l1.54-7.66h36.16zm10.61 28.92l5.79-28.93h8.84l-5.8 28.93q-2.28 11.4 9.39 11.4t13.96-11.4l5.8-28.93h8.83l-5.8 28.93q-3.81 19.08-24.3 19.07t-16.71-19.07zM354 144.05l1.61-8a42 42 0 0 0 15.66 2.66q11 0 12.43-7.32c.71-3.57-1.18-5.34-5.66-5.34h-7.48q-14.61 0-11.95-13.33 2.94-14.65 23.76-14.67a44.6 44.6 0 0 1 14.7 2.34l-1.6 8a39.07 39.07 0 0 0-14.63-2.66q-12 0-13.4 7-1.07 5.34 4.73 5.33h7.46q15.57 0 12.9 13.34-3 15-22.8 15a48.07 48.07 0 0 1-15.73-2.35z"/></svg>