<?xml version="1.0" encoding="UTF-8"?>
<svg version="1.1" xmlns="http://www.w3.org/2000/svg" width="905" height="128">
<path d="M0 0 C5.94 0 11.88 0 18 0 C24.32347891 13.52777505 30.3983915 27.13784302 36.25 40.875 C41.29704699 52.72294403 46.41018172 64.53738784 51.625 76.3125 C56.29340607 86.8630457 60.95687743 97.41554097 65.56292725 107.99349976 C66.14172267 109.32140891 66.72182249 110.64875035 67.30328369 111.97549438 C68.100234 113.79462767 68.89205383 115.61600604 69.68359375 117.4375 C70.13275146 118.46746094 70.58190918 119.49742188 71.04467773 120.55859375 C72 123 72 123 72 125 C69.47650859 125.16358768 66.9637844 125.28151635 64.4375 125.375 C63.73302734 125.42527344 63.02855469 125.47554688 62.30273438 125.52734375 C58.16712301 125.64169245 55.55753856 125.11777966 52.25 122.55078125 C48.45642501 118.87926466 46.52665642 114.64644184 44.5625 109.8125 C44.21251953 109.00619141 43.86253906 108.19988281 43.50195312 107.36914062 C41 101.47902397 41 101.47902397 41 98 C20.21 98.33 -0.58 98.66 -22 99 C-25.3 106.26 -28.6 113.52 -32 121 C-38.75 125.5 -38.75 125.5 -42.0859375 125.390625 C-42.78847656 125.37773438 -43.49101562 125.36484375 -44.21484375 125.3515625 C-44.92769531 125.31804687 -45.64054687 125.28453125 -46.375 125.25 C-47.11105469 125.23195313 -47.84710938 125.21390625 -48.60546875 125.1953125 C-50.40421736 125.14859176 -52.20228711 125.07686183 -54 125 C-50.19053184 114.58498105 -45.76100454 104.48449219 -41.24725342 94.36047363 C-39.10841761 89.56240605 -36.98057923 84.75946182 -34.8515625 79.95703125 C-34.42952545 79.00569305 -34.0074884 78.05435486 -33.57266235 77.07418823 C-30.13352027 69.31645225 -26.73886834 61.54066906 -23.375 53.75 C-18.17049187 41.69749966 -12.93571389 29.65852735 -7.6875 17.625 C-7.3022113 16.74146851 -6.91692261 15.85793701 -6.5199585 14.94763184 C-4.34707895 9.96489577 -2.17362279 4.982412 0 0 Z M8 27 C7.72438232 27.65669678 7.44876465 28.31339355 7.16479492 28.98999023 C1.3598516 42.80530062 -4.513583 56.57778327 -10.64575195 70.25170898 C-11.0862085 71.24114502 -11.52666504 72.23058105 -11.98046875 73.25 C-12.37129639 74.12140625 -12.76212402 74.9928125 -13.16479492 75.890625 C-14.12271383 77.93180547 -14.12271383 77.93180547 -14 80 C1.18 80 16.36 80 32 80 C30.15230686 74.45692057 28.39238256 69.34438501 26.07421875 64.05078125 C25.80414505 63.43083786 25.53407135 62.81089447 25.2558136 62.17216492 C24.40332848 60.21733762 23.54562317 58.26485788 22.6875 56.3125 C22.12528331 55.02685346 21.56343244 53.74104687 21.00195312 52.45507812 C20.16666416 50.54203802 19.3311448 48.62910439 18.49411011 46.71682739 C15.62588552 40.1602969 12.80937165 33.58193825 10 27 C9.34 27 8.68 27 8 27 Z " fill="#000000" transform="translate(319,1)"/>
<path d="M0 0 C5.94 0 11.88 0 18 0 C26.34395904 18.7016078 34.654768 37.41419644 42.77005005 56.21635437 C43.03413666 56.82816055 43.29822327 57.43996674 43.5703125 58.0703125 C43.8370578 58.68836258 44.1038031 59.30641266 44.37863159 59.94319153 C46.67418754 65.25693486 48.9877196 70.56275047 51.3046875 75.8671875 C51.86425896 77.1486692 51.86425896 77.1486692 52.43513489 78.45603943 C53.91444653 81.84344264 55.39384598 85.23080484 56.8757019 88.61709595 C60.80419313 97.59487116 64.69593988 106.58693477 68.51171875 115.61328125 C68.86168411 116.43845749 69.21164948 117.26363373 69.57221985 118.11381531 C72 123.88055565 72 123.88055565 72 125 C69.43685501 125.08132187 66.87631582 125.14064175 64.3125 125.1875 C63.59126953 125.21263672 62.87003906 125.23777344 62.12695312 125.26367188 C57.50871974 125.32693535 54.50567602 125.08964466 51 122 C49.36446059 119.52952713 48.1153146 116.93653122 46.875 114.25 C46.54113281 113.5590625 46.20726562 112.868125 45.86328125 112.15625 C43.78273939 107.81566856 41.89880729 103.43055035 40 99 C19.21 98.67 -1.58 98.34 -23 98 C-23.33 99.65 -23.66 101.3 -24 103 C-29.59749845 119.84546184 -29.59749845 119.84546184 -35.625 124.2265625 C-41.46566019 126.1286196 -47.95230858 125.39204722 -54 125 C-51.66986983 117.46087578 -48.59355599 110.41975166 -45.3125 103.25 C-44.13287752 100.65016632 -42.9582581 98.04809422 -41.78515625 95.4453125 C-41.32446243 94.42357437 -41.32446243 94.42357437 -40.85446167 93.38119507 C-37.2352576 85.33239509 -33.74143289 77.2298362 -30.25 69.125 C-28.9050944 66.00514518 -27.5599736 62.88538314 -26.21484375 59.765625 C-25.70568924 58.58445602 -25.70568924 58.58445602 -25.18624878 57.37942505 C-21.45332237 48.72398956 -17.6946007 40.07981861 -13.92932129 31.43841553 C-13.19498408 29.75290735 -12.46100553 28.06724285 -11.72741699 26.38140869 C-7.88652159 17.55533725 -4.01557267 8.74849037 0 0 Z M8 27 C5.18207348 33.42021186 2.37112902 39.84344746 -0.43505859 46.26879883 C-1.38984539 48.45276436 -2.34620875 50.63604137 -3.30419922 52.81860352 C-4.6835503 55.96189111 -6.0571506 59.10763828 -7.4296875 62.25390625 C-7.85684052 63.2239711 -8.28399353 64.19403595 -8.72409058 65.1934967 C-9.12435455 66.11392258 -9.52461853 67.03434845 -9.93701172 67.98266602 C-10.28786835 68.78430679 -10.63872498 69.58594757 -11.00021362 70.41188049 C-12.20694495 73.53571271 -13.08001115 76.78003902 -14 80 C1.18 80 16.36 80 32 80 C29.71846355 73.00496573 29.71846355 73.00496573 27.02294922 66.26220703 C26.48757034 65.04647507 26.48757034 65.04647507 25.94137573 63.80618286 C25.56626862 62.96522064 25.1911615 62.12425842 24.8046875 61.2578125 C24.21531906 59.92253006 24.21531906 59.92253006 23.61404419 58.56027222 C22.37150867 55.74680995 21.12354689 52.93579904 19.875 50.125 C18.62027238 47.29236463 17.36670383 44.45922406 16.11453247 41.62545776 C15.3382982 39.86959886 14.56042457 38.11446356 13.7807312 36.36013794 C13.43011627 35.56856293 13.07950134 34.77698792 12.71826172 33.96142578 C12.40976288 33.26687286 12.10126404 32.57231995 11.78341675 31.85671997 C11.11298053 30.26776708 10.5453674 28.6361022 10 27 C9.34 27 8.68 27 8 27 Z " fill="#000000" transform="translate(707,1)"/>
<path d="M0 0 C60.23506098 0 60.23506098 0 73.75 12.125 C82.09971658 20.98915409 84.39638123 31.54345415 84.2734375 43.296875 C83.46168532 54.29031874 78.79980451 62.47428833 70.93359375 69.96875 C59.88716817 79.29596444 48.55661506 79.53979521 34.8125 79.25 C26.4903125 79.12625 26.4903125 79.12625 18 79 C18 94.18 18 109.36 18 125 C12.06 125 6.12 125 0 125 C0 83.75 0 42.5 0 0 Z M18 19 C18 32.86 18 46.72 18 61 C23.115 61.0825 28.23 61.165 33.5 61.25 C35.09779297 61.28641602 36.69558594 61.32283203 38.34179688 61.36035156 C45.84259922 61.41892206 51.62546015 61.37903172 58 57 C62.94768312 52.05231688 65.64935738 47.1056918 66.4375 40.125 C66.17456144 34.47182104 64.1542247 29.34415634 60.31640625 25.16796875 C54.82370243 20.31312731 50.78546195 18.69535755 43.390625 18.8046875 C42.42358643 18.80770874 42.42358643 18.80770874 41.43701172 18.81079102 C39.04126821 18.82121219 36.64562655 18.84913474 34.25 18.875 C28.8875 18.91625 23.525 18.9575 18 19 Z " fill="#000000" transform="translate(148,1)"/>
<path d="M0 0 C1.34955232 1.14786646 2.68474192 2.31299323 4 3.5 C4.55945313 3.96792969 5.11890625 4.43585937 5.6953125 4.91796875 C7.69857353 6.69682076 8.93908632 7.82994948 9.1875 10.5625 C7.31626291 13.61557103 5.30394701 15.26727735 2 16.5 C-5.4515755 17.65372405 -10.55349247 16.67698044 -16.85546875 12.69140625 C-21.98309335 9.84272592 -27.2157181 10.03232603 -32.75 11.5625 C-37.85112796 13.48880007 -40.56043363 16.62086726 -43 21.5 C-43.16721159 23.51001637 -43.16721159 23.51001637 -43 25.75 C-42.979375 26.49765625 -42.95875 27.2453125 -42.9375 28.015625 C-41.04235923 33.03774804 -36.90684694 35.61359872 -32.16601562 37.81738281 C-28.88228018 39.11520138 -25.57942868 40.3244614 -22.25 41.5 C5.43667436 51.41093424 5.43667436 51.41093424 12.4375 64.6875 C16.48898816 73.31735147 16.37117382 84.47350434 13.375 93.375 C8.68403165 104.58394543 0.82906417 111.77862047 -10.24609375 116.46484375 C-21.90202487 120.84615119 -34.29253043 120.86707198 -46 116.5 C-55.85043035 111.57478483 -63.28638474 104.98550192 -67 94.5 C-62.21281063 91.16978131 -58.48720815 89.69269214 -52.60546875 89.90625 C-48.51972266 90.83733457 -45.77678381 93.21319731 -42.50390625 95.73828125 C-36.69816001 99.82313547 -30.21141678 101.22329515 -23.23046875 100.07421875 C-15.27594328 98.02638119 -9.70622668 94.69931727 -5.1875 87.6875 C-3.73017565 83.77573464 -3.25825961 80.62077994 -4 76.5 C-7.4725766 69.81207469 -12.41271022 66.49856582 -19.25 63.6875 C-19.84917236 63.43597168 -20.44834473 63.18444336 -21.06567383 62.92529297 C-24.45942597 61.50800716 -27.87519535 60.15789281 -31.30859375 58.83984375 C-44.07022193 53.88718778 -55.12563589 48.68368738 -61 35.5 C-63.70974322 27.38760105 -62.92845141 17.40097347 -59.3125 9.7421875 C-54.02509185 0.7095319 -46.18443348 -4.78581884 -36.1875 -7.875 C-22.96017481 -10.43948142 -10.80067016 -8.15852275 0 0 Z " fill="#000000" transform="translate(67,8.5)"/>
<path d="M0 0 C31.35 0 62.7 0 95 0 C95 5.94 95 11.88 95 18 C82.13 18 69.26 18 56 18 C56 53.31 56 88.62 56 125 C50.06 125 44.12 125 38 125 C38 89.69 38 54.38 38 18 C25.46 18 12.92 18 0 18 C0 12.06 0 6.12 0 0 Z " fill="#000000" transform="translate(420,1)"/>
<path d="M0 0 C5.94 0 11.88 0 18 0 C18 35.31 18 70.62 18 107 C32.19 107 46.38 107 61 107 C68.46341463 110.73170732 68.46341463 110.73170732 71 116 C71 118.97 71 121.94 71 125 C47.57 125 24.14 125 0 125 C0 83.75 0 42.5 0 0 Z " fill="#000000" transform="translate(834,1)"/>
<path d="M0 0 C6.3081272 0 8.71409084 0.15374122 14 3 C17.37312988 6.5980052 18.12552416 9.89434286 18.12025452 14.72660828 C18.12162918 15.69835999 18.12300385 16.67011169 18.12442017 17.67131042 C18.12082489 18.73585953 18.11722961 19.80040863 18.11352539 20.8972168 C18.11367142 22.01931549 18.11381744 23.14141418 18.1139679 24.29751587 C18.11326998 28.01476968 18.10548317 31.73197367 18.09765625 35.44921875 C18.09579164 38.0232592 18.09436794 40.59730001 18.09336853 43.17134094 C18.08993757 49.25925528 18.08205218 55.34714899 18.07201904 61.43505555 C18.06084421 68.36606694 18.055344 75.29707917 18.05032361 82.22809732 C18.03986921 96.48540812 18.02207702 110.74270278 18 125 C12.06 125 6.12 125 0 125 C0 83.75 0 42.5 0 0 Z " fill="#000000" transform="translate(578,1)"/>
</svg>
