<?xml version="1.0" encoding="utf-8"?>
<!-- Generator: Adobe Illustrator 26.3.1, SVG Export Plug-In . SVG Version: 6.00 Build 0)  -->
<!DOCTYPE svg PUBLIC "-//W3C//DTD SVG 1.1//EN" "http://www.w3.org/Graphics/SVG/1.1/DTD/svg11.dtd" [
	<!ENTITY st0 "fill:#BDBDE0;">
	<!ENTITY st1 "fill:#2B3446;">
	<!ENTITY st2 "fill:#FFFFFF;">
	<!ENTITY st3 "fill:#7687C3;">
	<!ENTITY st4 "fill:url(#SVGID_1_);">
]>
<svg version="1.1" id="Layer_1" xmlns="http://www.w3.org/2000/svg" xmlns:xlink="http://www.w3.org/1999/xlink" x="0px" y="0px"
	 viewBox="0 0 490.8 111.3" style="enable-background:new 0 0 490.8 111.3;" xml:space="preserve">
<g>
	<g>
		<g>
			<path style="&st0;" d="M158.2,69.5c-1-1.3-2.3-2.3-3.9-3c-1.6-0.7-3.1-1.1-4.6-1.1c-0.8,0-1.5,0.1-2.3,0.2
				c-0.8,0.1-1.5,0.4-2.1,0.8c-0.6,0.4-1.2,0.9-1.6,1.5c-0.4,0.6-0.6,1.4-0.6,2.3c0,0.8,0.2,1.5,0.5,2c0.3,0.5,0.8,1,1.5,1.4
				c0.7,0.4,1.4,0.8,2.3,1.1c0.9,0.3,1.9,0.7,3,1c1.6,0.5,3.3,1.1,5.1,1.8c1.8,0.7,3.3,1.5,4.8,2.6c1.4,1.1,2.6,2.4,3.6,4
				c0.9,1.6,1.4,3.6,1.4,6c0,2.7-0.5,5.1-1.5,7.1c-1,2-2.4,3.7-4.1,5c-1.7,1.3-3.7,2.3-5.9,2.9c-2.2,0.6-4.5,0.9-6.8,0.9
				c-3.4,0-6.7-0.6-9.9-1.8s-5.8-2.9-8-5.1l7.5-7.7c1.2,1.4,2.7,2.6,4.6,3.6c1.9,1,3.8,1.4,5.7,1.4c0.9,0,1.7-0.1,2.5-0.3
				c0.8-0.2,1.5-0.5,2.1-0.9c0.6-0.4,1.1-0.9,1.5-1.6c0.4-0.7,0.5-1.5,0.5-2.4c0-0.9-0.2-1.7-0.7-2.3c-0.4-0.6-1.1-1.2-1.9-1.7
				c-0.8-0.5-1.9-1-3.1-1.4c-1.2-0.4-2.6-0.9-4.2-1.4c-1.5-0.5-3-1.1-4.5-1.8s-2.8-1.5-3.9-2.6c-1.1-1.1-2.1-2.3-2.8-3.8
				c-0.7-1.5-1-3.3-1-5.5c0-2.7,0.5-4.9,1.6-6.8c1.1-1.9,2.5-3.4,4.2-4.6c1.8-1.2,3.7-2.1,5.9-2.7c2.2-0.6,4.4-0.8,6.7-0.8
				c2.7,0,5.4,0.5,8.3,1.5c2.8,1,5.3,2.4,7.4,4.4L158.2,69.5z"/>
			<path style="&st0;" d="M222.5,80.7c0,3.8-0.7,7.2-2,10.3c-1.3,3.1-3.1,5.8-5.4,8c-2.3,2.2-5.1,3.9-8.3,5.2
				c-3.2,1.2-6.7,1.8-10.4,1.8c-3.7,0-7.2-0.6-10.3-1.8c-3.2-1.2-5.9-2.9-8.2-5.2s-4.1-4.9-5.4-8c-1.3-3.1-2-6.6-2-10.3
				c0-3.8,0.7-7.3,2-10.3c1.3-3.1,3.1-5.7,5.4-7.9c2.3-2.2,5.1-3.8,8.2-5c3.2-1.2,6.6-1.8,10.3-1.8c3.7,0,7.2,0.6,10.4,1.8
				c3.2,1.2,5.9,2.8,8.3,5c2.3,2.2,4.1,4.8,5.4,7.9C221.9,73.5,222.5,76.9,222.5,80.7z M210.2,80.7c0-2.1-0.3-4-1-5.8
				c-0.7-1.8-1.6-3.3-2.8-4.6c-1.2-1.3-2.6-2.3-4.3-3c-1.7-0.7-3.5-1.1-5.6-1.1s-3.9,0.4-5.5,1.1c-1.7,0.7-3.1,1.8-4.3,3
				c-1.2,1.3-2.1,2.8-2.8,4.6c-0.7,1.8-1,3.7-1,5.8c0,2.2,0.3,4.1,1,6c0.7,1.8,1.6,3.4,2.8,4.7c1.2,1.3,2.6,2.3,4.3,3.1
				c1.7,0.7,3.5,1.1,5.5,1.1s3.9-0.4,5.5-1.1c1.7-0.7,3.1-1.8,4.3-3.1c1.2-1.3,2.2-2.9,2.8-4.7C209.9,84.9,210.2,82.9,210.2,80.7z"
				/>
			<path style="&st0;" d="M241.5,66.9v9.8H260v9.5h-18.5v18.5h-11.4V57.1h41.6v9.8H241.5z"/>
			<path style="&st0;" d="M289.4,66.9v37.9h-11.5V66.9h-13.5v-9.8h38.5v9.8H289.4z"/>
		</g>
		<path style="&st0;" d="M92.8,22.3L57.8,2c-4.7-2.7-10.4-2.7-15.1,0L7.6,22.3C2.9,25,0,30,0,35.4v40.5C0,81.3,2.9,86.3,7.6,89
			l35.1,20.3c4.7,2.7,10.4,2.7,15.1,0L92.8,89c4.7-2.7,7.6-7.7,7.6-13.1V35.4C100.4,30,97.5,25,92.8,22.3z M79.7,43.8H66.4v31.9
			h-8.9V43.8H47h-1.4h-3.9h-8c-0.4,0.3-0.7,0.6-1,1c-0.4,0.5-0.5,1.1-0.5,1.9c0,0.7,0.1,1.2,0.4,1.7c0.3,0.4,0.7,0.8,1.2,1.2
			c0.5,0.3,1.2,0.6,1.9,0.9c0.7,0.3,1.6,0.6,2.5,0.9c1.3,0.4,2.7,0.9,4.2,1.5c1.4,0.5,2.8,1.3,3.9,2.1c1.2,0.9,2.2,2,2.9,3.3
			c0.8,1.3,1.2,3,1.2,4.9c0,2.3-0.4,4.2-1.3,5.9c-0.8,1.7-2,3-3.4,4.1c-1.4,1.1-3,1.9-4.8,2.4c-1.8,0.5-3.7,0.8-5.6,0.8
			c-2.8,0-5.5-0.5-8.2-1.5c-2.6-1-4.8-2.4-6.6-4.2l6.2-6.3c1,1.2,2.2,2.2,3.8,3c1.6,0.8,3.1,1.2,4.7,1.2c0.7,0,1.4-0.1,2.1-0.2
			c0.7-0.1,1.3-0.4,1.8-0.7c0.5-0.3,0.9-0.8,1.2-1.3c0.3-0.6,0.4-1.2,0.4-2c0-0.7-0.2-1.4-0.6-1.9c-0.4-0.5-0.9-1-1.6-1.4
			c-0.7-0.4-1.5-0.8-2.6-1.2c-1-0.4-2.2-0.7-3.5-1.1c-1.3-0.4-2.5-0.9-3.7-1.4c-1.2-0.6-2.3-1.3-3.2-2.1c-0.9-0.9-1.7-1.9-2.3-3.2
			c-0.6-1.2-0.9-2.8-0.9-4.5c0-2.2,0.4-4.1,1.3-5.6c0.9-1.6,2.1-2.8,3.5-3.8c1.4-1,3.1-1.7,4.9-2.2c1.8-0.5,3.7-0.7,5.5-0.7
			c1.2,0,3.6-0.1,3.6-0.1h16h8.9h13.3V43.8z"/>
		<g>
			<g>
				<g>
					<path style="&st1;" d="M279,18.5h-4.8v9.3c0,1.1,0.2,1.9,0.6,2.3c0.4,0.5,1,0.7,1.9,0.7c0.3,0,0.7,0,1.1-0.1
						c0.4-0.1,0.7-0.2,1-0.3l0.1,2.9c-0.4,0.2-0.9,0.3-1.4,0.4c-0.5,0.1-1.1,0.1-1.6,0.1c-1.7,0-3-0.5-3.9-1.4
						c-0.9-0.9-1.3-2.3-1.3-4.2v-9.7h-3.4v-2.9h3.4v-5.1h3.5v5.1h4.8V18.5z"/>
				</g>
			</g>
			<g>
				<g>
					<path style="&st1;" d="M299.5,24.4c0,0.2,0,0.4,0,0.6c0,0.2,0,0.4,0,0.6h-14.3c0,0.8,0.2,1.5,0.5,2.1c0.3,0.7,0.7,1.2,1.3,1.7
						c0.5,0.5,1.1,0.9,1.8,1.1c0.7,0.3,1.4,0.4,2.2,0.4c1.2,0,2.3-0.3,3.1-0.8c0.9-0.5,1.6-1.2,2.1-1.9l2.5,2
						c-1,1.3-2.1,2.2-3.4,2.8c-1.3,0.6-2.7,0.9-4.3,0.9c-1.4,0-2.6-0.2-3.8-0.7c-1.2-0.5-2.2-1.1-3-1.9c-0.8-0.8-1.5-1.8-2-3
						c-0.5-1.2-0.7-2.4-0.7-3.9c0-1.4,0.2-2.7,0.7-3.8c0.5-1.2,1.1-2.2,2-3s1.8-1.5,3-1.9c1.1-0.5,2.4-0.7,3.7-0.7
						c1.3,0,2.5,0.2,3.6,0.6c1.1,0.4,2,1,2.7,1.9c0.7,0.8,1.3,1.8,1.7,2.9C299.3,21.6,299.5,22.9,299.5,24.4z M295.8,22.9
						c0-0.7-0.1-1.4-0.4-2c-0.2-0.6-0.5-1.2-0.9-1.6c-0.4-0.5-0.9-0.8-1.6-1.1c-0.6-0.3-1.3-0.4-2.2-0.4c-0.8,0-1.5,0.1-2.1,0.4
						c-0.7,0.3-1.2,0.6-1.7,1.1c-0.5,0.5-0.9,1-1.2,1.6c-0.3,0.6-0.5,1.3-0.5,2H295.8z"/>
				</g>
			</g>
			<g>
				<g>
					<path style="&st1;" d="M316.9,20.1c-0.4-0.6-0.9-1.1-1.7-1.5c-0.8-0.4-1.6-0.6-2.4-0.6c-0.9,0-1.8,0.2-2.5,0.5
						c-0.7,0.4-1.3,0.8-1.8,1.4c-0.5,0.6-0.9,1.3-1.2,2.1c-0.3,0.8-0.4,1.6-0.4,2.5c0,0.9,0.1,1.7,0.4,2.5c0.3,0.8,0.6,1.5,1.2,2.1
						c0.5,0.6,1.1,1.1,1.9,1.4s1.6,0.5,2.5,0.5c0.9,0,1.7-0.2,2.5-0.5c0.7-0.4,1.4-0.8,1.8-1.4l2.4,2.2c-0.8,0.9-1.7,1.6-2.8,2.1
						c-1.1,0.5-2.4,0.7-3.9,0.7c-1.4,0-2.7-0.2-3.8-0.7c-1.2-0.5-2.2-1.1-3-1.9c-0.9-0.8-1.5-1.8-2-3c-0.5-1.2-0.7-2.5-0.7-3.9
						c0-1.4,0.2-2.7,0.7-3.9c0.5-1.2,1.1-2.2,2-3c0.9-0.8,1.9-1.5,3-1.9c1.2-0.5,2.4-0.7,3.8-0.7c1.3,0,2.5,0.3,3.8,0.8
						c1.2,0.5,2.2,1.2,3,2.2L316.9,20.1z"/>
				</g>
			</g>
			<g>
				<g>
					<path style="&st1;" d="M326.8,18.3c0.4-0.9,1.2-1.6,2.2-2.3c1-0.6,2.2-0.9,3.5-0.9c1.2,0,2.2,0.2,3,0.6
						c0.8,0.4,1.5,0.9,2.1,1.6c0.6,0.7,1,1.4,1.2,2.3c0.3,0.9,0.4,1.8,0.4,2.8v11.1h-3.6v-9.9c0-0.7-0.1-1.4-0.2-2.1
						c-0.1-0.7-0.3-1.2-0.6-1.7c-0.3-0.5-0.7-0.9-1.2-1.2c-0.5-0.3-1.2-0.5-2-0.5c-1.4,0-2.6,0.5-3.5,1.6c-0.9,1.1-1.4,2.5-1.4,4.3
						v9.5h-3.6V4.9h3.6L326.8,18.3L326.8,18.3z"/>
				</g>
			</g>
			<g>
				<g>
					<path style="&st1;" d="M348.4,15.5c0.1,0.5,0.1,1,0.1,1.5c0,0.6,0,1,0,1.4h0.1c0.2-0.5,0.5-0.9,0.9-1.3
						c0.4-0.4,0.8-0.8,1.3-1.1c0.5-0.3,1.1-0.6,1.7-0.7c0.6-0.2,1.2-0.3,1.9-0.3c1.2,0,2.2,0.2,3,0.6c0.8,0.4,1.5,0.9,2.1,1.6
						c0.6,0.7,1,1.4,1.2,2.3c0.3,0.9,0.4,1.8,0.4,2.8v11.1h-3.6v-9.9c0-0.7-0.1-1.4-0.2-2.1c-0.1-0.7-0.3-1.2-0.6-1.7
						c-0.3-0.5-0.7-0.9-1.2-1.2c-0.5-0.3-1.2-0.5-2-0.5c-1.4,0-2.6,0.5-3.5,1.6c-0.9,1.1-1.3,2.5-1.3,4.3v9.5h-3.6V19.4
						c0-0.5,0-1.1,0-1.9c0-0.8-0.1-1.4-0.1-2H348.4z"/>
				</g>
			</g>
			<g>
				<g>
					<path style="&st1;" d="M385.3,24.5c0,1.4-0.2,2.7-0.7,3.8c-0.5,1.2-1.2,2.2-2,3c-0.9,0.8-1.9,1.5-3.1,2
						c-1.2,0.5-2.5,0.7-3.8,0.7c-1.4,0-2.6-0.2-3.8-0.7c-1.2-0.5-2.2-1.1-3.1-2c-0.9-0.8-1.5-1.8-2-3c-0.5-1.2-0.7-2.4-0.7-3.8
						c0-1.4,0.2-2.7,0.7-3.8c0.5-1.1,1.2-2.1,2-3c0.9-0.8,1.9-1.5,3.1-1.9c1.2-0.5,2.5-0.7,3.8-0.7c1.4,0,2.6,0.2,3.8,0.7
						c1.2,0.5,2.2,1.1,3.1,1.9s1.6,1.8,2,3C385.1,21.8,385.3,23.1,385.3,24.5z M381.6,24.5c0-0.9-0.1-1.7-0.4-2.5
						c-0.3-0.8-0.7-1.5-1.2-2.1c-0.5-0.6-1.1-1.1-1.9-1.4c-0.7-0.4-1.6-0.5-2.6-0.5c-1,0-1.8,0.2-2.6,0.5c-0.7,0.4-1.4,0.8-1.9,1.4
						c-0.5,0.6-0.9,1.3-1.2,2.1c-0.3,0.8-0.4,1.6-0.4,2.5c0,0.9,0.1,1.7,0.4,2.5c0.3,0.8,0.7,1.5,1.2,2.1c0.5,0.6,1.1,1.1,1.9,1.4
						c0.7,0.4,1.6,0.5,2.6,0.5c1,0,1.8-0.2,2.6-0.5c0.7-0.4,1.4-0.8,1.9-1.4c0.5-0.6,0.9-1.3,1.2-2.1
						C381.5,26.2,381.6,25.3,381.6,24.5z"/>
				</g>
			</g>
			<g>
				<g>
					<path style="&st1;" d="M393.9,33.5h-3.6V4.9h3.6V33.5z"/>
				</g>
			</g>
			<g>
				<g>
					<path style="&st1;" d="M418.2,24.5c0,1.4-0.2,2.7-0.7,3.8c-0.5,1.2-1.2,2.2-2,3c-0.9,0.8-1.9,1.5-3.1,2
						c-1.2,0.5-2.5,0.7-3.8,0.7c-1.4,0-2.6-0.2-3.8-0.7c-1.2-0.5-2.2-1.1-3.1-2c-0.9-0.8-1.5-1.8-2-3c-0.5-1.2-0.7-2.4-0.7-3.8
						c0-1.4,0.2-2.7,0.7-3.8c0.5-1.1,1.2-2.1,2-3c0.9-0.8,1.9-1.5,3.1-1.9c1.2-0.5,2.5-0.7,3.8-0.7c1.4,0,2.6,0.2,3.8,0.7
						c1.2,0.5,2.2,1.1,3.1,1.9c0.9,0.8,1.6,1.8,2,3C418,21.8,418.2,23.1,418.2,24.5z M414.5,24.5c0-0.9-0.1-1.7-0.4-2.5
						c-0.3-0.8-0.7-1.5-1.2-2.1c-0.5-0.6-1.1-1.1-1.9-1.4c-0.7-0.4-1.6-0.5-2.6-0.5c-1,0-1.8,0.2-2.6,0.5c-0.7,0.4-1.4,0.8-1.9,1.4
						c-0.5,0.6-0.9,1.3-1.2,2.1c-0.3,0.8-0.4,1.6-0.4,2.5c0,0.9,0.1,1.7,0.4,2.5c0.3,0.8,0.7,1.5,1.2,2.1c0.5,0.6,1.1,1.1,1.9,1.4
						c0.7,0.4,1.6,0.5,2.6,0.5c1,0,1.8-0.2,2.6-0.5c0.7-0.4,1.4-0.8,1.9-1.4c0.5-0.6,0.9-1.3,1.2-2.1
						C414.4,26.2,414.5,25.3,414.5,24.5z"/>
				</g>
			</g>
			<g>
				<g>
					<path style="&st1;" d="M424.5,36.5c0.8,0.9,1.8,1.6,2.9,2.1c1.2,0.5,2.4,0.8,3.6,0.8c1.2,0,2.2-0.2,3-0.5
						c0.8-0.3,1.5-0.8,1.9-1.4c0.5-0.6,0.8-1.3,1.1-2.1c0.2-0.8,0.3-1.7,0.3-2.6v-2.3h-0.1c-0.7,1-1.6,1.8-2.7,2.3
						c-1.1,0.5-2.3,0.8-3.6,0.8c-1.4,0-2.6-0.2-3.7-0.7c-1.1-0.5-2.1-1.1-2.9-2c-0.8-0.8-1.4-1.8-1.8-2.9c-0.4-1.1-0.6-2.3-0.6-3.6
						c0-1.3,0.2-2.5,0.6-3.6c0.4-1.1,1-2.1,1.8-3c0.8-0.8,1.7-1.5,2.8-2c1.1-0.5,2.3-0.7,3.7-0.7c1.3,0,2.5,0.3,3.7,0.8
						c1.2,0.6,2.1,1.4,2.8,2.5h0.1v-2.9h3.4v17c0,1.3-0.2,2.6-0.5,3.8c-0.3,1.2-0.9,2.3-1.7,3.2c-0.8,0.9-1.8,1.7-3.1,2.2
						c-1.3,0.6-2.8,0.8-4.7,0.8c-1.6,0-3.1-0.3-4.7-0.9c-1.6-0.6-2.9-1.4-4.1-2.4L424.5,36.5z M425.6,24.3c0,0.8,0.1,1.6,0.4,2.4
						c0.3,0.8,0.7,1.4,1.2,2c0.5,0.6,1.1,1,1.9,1.4c0.7,0.4,1.6,0.5,2.5,0.5c0.9,0,1.7-0.2,2.5-0.5c0.8-0.3,1.4-0.8,1.9-1.3
						c0.5-0.6,0.9-1.2,1.2-2c0.3-0.8,0.4-1.6,0.4-2.5c0-0.9-0.1-1.7-0.4-2.4c-0.3-0.8-0.7-1.4-1.3-2c-0.5-0.6-1.2-1-1.9-1.4
						c-0.7-0.3-1.6-0.5-2.5-0.5c-0.9,0-1.8,0.2-2.5,0.5c-0.7,0.3-1.4,0.8-1.9,1.4c-0.5,0.6-0.9,1.2-1.2,2
						C425.7,22.6,425.6,23.5,425.6,24.3z"/>
				</g>
			</g>
			<g>
				<g>
					<path style="&st1;" d="M450.6,33.5h-3.6V15.5h3.6V33.5z"/>
				</g>
			</g>
			<g>
				<g>
					<path style="&st1;" d="M473.6,24.4c0,0.2,0,0.4,0,0.6c0,0.2,0,0.4,0,0.6h-14.3c0,0.8,0.2,1.5,0.5,2.1c0.3,0.7,0.7,1.2,1.3,1.7
						c0.5,0.5,1.1,0.9,1.8,1.1c0.7,0.3,1.4,0.4,2.2,0.4c1.2,0,2.3-0.3,3.1-0.8c0.9-0.5,1.6-1.2,2.1-1.9l2.5,2
						c-1,1.3-2.1,2.2-3.4,2.8c-1.3,0.6-2.7,0.9-4.3,0.9c-1.4,0-2.6-0.2-3.8-0.7c-1.2-0.5-2.2-1.1-3-1.9c-0.8-0.8-1.5-1.8-2-3
						c-0.5-1.2-0.7-2.4-0.7-3.9c0-1.4,0.2-2.7,0.7-3.8c0.5-1.2,1.1-2.2,2-3c0.8-0.8,1.8-1.5,3-1.9c1.1-0.5,2.4-0.7,3.7-0.7
						c1.3,0,2.5,0.2,3.6,0.6c1.1,0.4,2,1,2.7,1.9c0.7,0.8,1.3,1.8,1.7,2.9C473.4,21.6,473.6,22.9,473.6,24.4z M470,22.9
						c0-0.7-0.1-1.4-0.4-2c-0.2-0.6-0.5-1.2-0.9-1.6c-0.4-0.5-0.9-0.8-1.6-1.1c-0.6-0.3-1.3-0.4-2.2-0.4c-0.8,0-1.5,0.1-2.1,0.4
						c-0.7,0.3-1.2,0.6-1.7,1.1c-0.5,0.5-0.9,1-1.2,1.6c-0.3,0.6-0.5,1.3-0.5,2H470z"/>
				</g>
			</g>
			<g>
				<g>
					<path style="&st1;" d="M488.2,20.1c-0.4-0.7-1-1.2-1.7-1.6c-0.7-0.4-1.6-0.6-2.5-0.6c-0.4,0-0.8,0-1.2,0.1
						c-0.4,0.1-0.8,0.2-1.1,0.4c-0.3,0.2-0.6,0.4-0.8,0.7c-0.2,0.3-0.3,0.6-0.3,1.1c0,0.8,0.3,1.3,1,1.7c0.7,0.4,1.7,0.7,3.1,1
						c0.9,0.2,1.7,0.4,2.4,0.7c0.7,0.3,1.4,0.6,1.9,1c0.5,0.4,1,0.9,1.3,1.5c0.3,0.6,0.5,1.3,0.5,2c0,1.1-0.2,2-0.6,2.7
						c-0.4,0.7-0.9,1.3-1.6,1.8c-0.7,0.5-1.4,0.8-2.3,1c-0.9,0.2-1.7,0.3-2.6,0.3c-1.4,0-2.7-0.3-4-0.8c-1.3-0.5-2.4-1.3-3.2-2.4
						l2.5-2.2c0.5,0.7,1.1,1.3,2,1.8c0.8,0.5,1.8,0.7,2.8,0.7c0.5,0,0.9,0,1.3-0.1c0.4-0.1,0.8-0.2,1.1-0.4c0.3-0.2,0.6-0.5,0.8-0.8
						c0.2-0.3,0.3-0.7,0.3-1.2c0-0.8-0.4-1.4-1.2-1.9c-0.8-0.4-2-0.8-3.5-1.1c-0.6-0.2-1.2-0.3-1.8-0.5c-0.6-0.2-1.2-0.5-1.7-0.9
						c-0.5-0.4-0.9-0.9-1.2-1.4c-0.3-0.6-0.5-1.3-0.5-2.1c0-1,0.2-1.8,0.6-2.5c0.4-0.7,0.9-1.3,1.5-1.7c0.6-0.4,1.3-0.8,2.2-1
						c0.8-0.2,1.6-0.3,2.5-0.3c1.3,0,2.5,0.3,3.7,0.8c1.2,0.5,2.1,1.2,2.8,2.2L488.2,20.1z"/>
				</g>
			</g>
			<g>
				<path style="&st1;" d="M446.3,6v2.4c0,0.2,0.1,0.3,0.2,0.4l2.1,1.2c0.1,0.1,0.3,0.1,0.4,0l2.1-1.2c0.1-0.1,0.2-0.2,0.2-0.4V6
					c0-0.2-0.1-0.3-0.2-0.4l-2.1-1.2c-0.1-0.1-0.3-0.1-0.4,0l-2.1,1.2C446.4,5.7,446.3,5.8,446.3,6z"/>
			</g>
			<g>
				<g>
					<path style="&st1;" d="M145.1,12.7c-0.5-0.7-1.2-1.2-2.1-1.6c-0.9-0.4-1.8-0.7-2.8-0.7c-0.6,0-1.1,0.1-1.7,0.2
						c-0.6,0.1-1.1,0.4-1.5,0.6c-0.5,0.3-0.8,0.7-1.1,1.1c-0.3,0.5-0.4,1-0.4,1.7c0,0.6,0.1,1.1,0.4,1.6c0.3,0.4,0.6,0.8,1,1.1
						c0.4,0.3,1,0.6,1.6,0.8c0.6,0.2,1.3,0.5,2.1,0.7c0.9,0.3,1.7,0.6,2.7,0.9c0.9,0.4,1.8,0.8,2.5,1.4c0.8,0.6,1.4,1.3,1.9,2.2
						c0.5,0.9,0.7,2,0.7,3.3c0,1.4-0.3,2.7-0.8,3.8c-0.5,1.1-1.2,2-2.1,2.7c-0.9,0.7-1.9,1.2-3.1,1.6c-1.2,0.4-2.4,0.5-3.7,0.5
						c-1.7,0-3.4-0.3-5.1-1c-1.7-0.6-3-1.6-4.1-2.9l3.4-3.2c0.7,0.9,1.5,1.6,2.6,2.2c1.1,0.5,2.2,0.8,3.2,0.8c0.6,0,1.1-0.1,1.7-0.2
						s1.1-0.4,1.6-0.7c0.5-0.3,0.8-0.7,1.1-1.2c0.3-0.5,0.4-1.1,0.4-1.8c0-0.7-0.2-1.3-0.5-1.8c-0.3-0.5-0.8-0.9-1.3-1.2
						c-0.6-0.3-1.2-0.6-2-0.9c-0.8-0.3-1.6-0.5-2.4-0.8c-0.8-0.3-1.6-0.6-2.4-0.9c-0.8-0.4-1.5-0.8-2.2-1.4
						c-0.6-0.6-1.2-1.3-1.6-2.1c-0.4-0.8-0.6-1.9-0.6-3.2c0-1.4,0.3-2.5,0.9-3.5c0.6-1,1.3-1.8,2.2-2.4c0.9-0.6,2-1.1,3.1-1.4
						c1.2-0.3,2.4-0.5,3.6-0.5c1.4,0,2.7,0.2,4.1,0.7c1.4,0.5,2.6,1.2,3.6,2.2L145.1,12.7z"/>
				</g>
			</g>
			<g>
				<g>
					<path style="&st1;" d="M153.1,7.1h7.4l7,19h0.1l6.9-19h7.5v26.8h-4.7V12.3h-0.1l-8.1,21.5h-3.3l-8-21.5h-0.1v21.5h-4.5V7.1z"/>
				</g>
			</g>
			<g>
				<g>
					<path style="&st1;" d="M196.3,7.1h4.1L212,33.9h-5.4l-2.5-6.1h-11.6l-2.4,6.1h-5.3L196.3,7.1z M202.4,23.6l-4.1-10.9L194,23.6
						H202.4z"/>
				</g>
			</g>
			<g>
				<g>
					<path style="&st1;" d="M214.6,7.1h9.3c1.3,0,2.5,0.1,3.7,0.4c1.2,0.3,2.2,0.7,3.2,1.3c0.9,0.6,1.7,1.4,2.2,2.4
						c0.6,1,0.8,2.2,0.8,3.6c0,1.9-0.5,3.5-1.6,4.7c-1.1,1.2-2.6,2-4.5,2.5l7.1,11.9h-5.7l-6.2-11.3h-3.5v11.3h-4.8V7.1z
						 M223.3,18.6c0.7,0,1.4,0,2-0.2c0.7-0.1,1.3-0.3,1.8-0.6c0.5-0.3,1-0.7,1.3-1.2c0.4-0.5,0.5-1.2,0.5-2c0-0.7-0.2-1.3-0.5-1.8
						c-0.3-0.5-0.7-0.8-1.2-1.1c-0.5-0.3-1.1-0.5-1.7-0.6c-0.6-0.1-1.3-0.2-1.9-0.2h-4.3v7.5H223.3z"/>
				</g>
			</g>
			<g>
				<g>
					<path style="&st1;" d="M243.4,11.2h-8.2V7.1h21.2v4.2h-8.2v22.6h-4.8V11.2z"/>
				</g>
			</g>
		</g>
	</g>
</g>
</svg>
