<?xml version="1.0" encoding="UTF-8"?>
<svg id="Layer_1" data-name="Layer 1" xmlns="http://www.w3.org/2000/svg" viewBox="0 0 1731.05 396.6">
  <defs>
    <style>
      .cls-1 {
        fill: #00c1cf;
      }

      .cls-2 {
        fill: #2146aa;
      }

      .cls-3 {
        fill: #2563eb;
      }

      .cls-4 {
        fill: #3a2a96;
      }

      .cls-5 {
        fill: #6f4dd8;
      }

      .cls-6 {
        fill: #081020;
      }
    </style>
  </defs>
  <g>
    <path class="cls-6" d="M465.84,181.64c11.22,15.81,28.18,22.68,40.78,22.68,17.64,0,23.59-6.41,23.59-13.29,0-8.25-6.18-10.77-28.18-19.24l-20.39-7.79c-24.74-9.39-37.11-22.45-37.11-46.5,0-29.32,26.34-49.25,62.54-49.25,28.63,0,49.48,11.68,64.83,30.01l-28.86,24.51c-14.43-16.72-27.26-21.76-42.15-21.76-10.08,0-16.72,4.81-16.72,12.14s3.44,11.68,19.47,17.18l23.14,8.02c29.78,10.31,43.98,23.82,43.98,48.11,0,29.32-23.14,51.54-65.06,51.54-25.89,0-53.15-10.77-69.64-30.47l29.78-25.89Z"/>
    <path class="cls-6" d="M644.06,233.41c-7.56,1.83-15.58,2.75-24.28,2.75-29.32,0-33.67-16.95-33.67-35.74v-54.29h-16.04v-27.72h16.49v-37.11h35.05v37.11h21.99v27.72h-21.99v48.34c0,10.77,3.44,13.74,10.54,13.74,2.98,0,8.71-.69,11.91-2.06v27.26Z"/>
    <path class="cls-6" d="M648.87,233.87v-115.46h33.9v16.95c6.87-11.45,14.66-18.55,31.16-18.55,3.67,0,6.41.46,9.62,1.37v34.59c-5.27-2.52-8.48-3.21-13.52-3.21-7.56,0-13.97,3.21-18.33,8.02-5.27,5.96-7.33,13.52-7.33,25.66v50.63h-35.51Z"/>
    <path class="cls-6" d="M755.39,236.16c-22.22,0-35.97-13.52-35.97-35.05,0-13.97,6.87-24.28,20.62-30.93,12.37-5.73,36.42-8.48,51.54-9.39v-5.96c0-8.02-5.27-12.83-16.72-12.83-10.77,0-15.35,6.64-16.49,15.81l-33.45-2.29c2.06-25.89,20.62-40.78,53.15-40.78,16.95,0,28.18,3.67,36.88,11.23,8.02,6.87,10.54,16.49,10.54,35.05v38.26c0,15.81.46,28.63,2.98,34.59h-34.13c-.92-4.35-1.83-8.93-1.83-13.29-9.62,10.77-21.08,15.58-37.11,15.58ZM791.58,183.24c-14.2.92-25.43,2.98-31.61,6.19-4.81,2.52-6.64,5.96-6.64,10.31s2.75,10.54,13.74,10.54c15.12,0,24.51-9.39,24.51-22.45v-4.58Z"/>
    <path class="cls-6" d="M904.29,233.41c-7.56,1.83-15.58,2.75-24.28,2.75-29.32,0-33.67-16.95-33.67-35.74v-54.29h-16.04v-27.72h16.49v-37.11h35.05v37.11h21.99v27.72h-21.99v48.34c0,10.77,3.44,13.74,10.54,13.74,2.98,0,8.71-.69,11.91-2.06v27.26Z"/>
    <path class="cls-6" d="M962.7,237.3c-37.34,0-58.87-21.76-58.87-60.94s23.6-61.62,60.71-61.62,57.73,22.68,57.73,62.77-24.97,59.79-59.56,59.79ZM963.85,143.84c-13.06,0-24.05,10.31-24.05,32.07,0,23.37,10.31,32.3,23.6,32.3s23.59-7.79,23.59-32.07-9.62-32.3-23.14-32.3Z"/>
    <path class="cls-6" d="M1148.94,233.87c-13.52-54.29-18.79-76.28-26.34-110.88-8.02,34.59-13.97,56.81-29.55,110.88h-41.23l-39.86-161.73h42.15c10.08,47.19,15.81,75.37,23.14,113.39,4.12-21.3,7.33-36.65,25.89-113.39h39.17c12.37,50.63,21.76,91.4,26.8,113.39,3.44-21.08,11.22-59.79,22.45-113.39h41.23l-42.61,161.73h-41.23Z"/>
    <path class="cls-6" d="M1327.16,205.46c-10.31,20.85-26.8,32.3-52.46,32.3-38.03,0-58.87-23.82-58.87-62.31s22.68-60.71,57.73-60.71c41.23,0,54.52,31.61,54.52,72.16h-76.74c1.83,14.89,10.77,21.3,23.6,21.3,9.85,0,17.41-4.58,21.08-13.74l31.15,11ZM1292.34,162.85c0-11.68-6.87-21.3-19.7-21.3s-20.16,8.25-21.08,21.3h40.78Z"/>
    <path class="cls-6" d="M1366.56,236.16c-22.22,0-35.97-13.52-35.97-35.05,0-13.97,6.87-24.28,20.62-30.93,12.37-5.73,36.42-8.48,51.54-9.39v-5.96c0-8.02-5.27-12.83-16.72-12.83-10.77,0-15.35,6.64-16.49,15.81l-33.45-2.29c2.06-25.89,20.62-40.78,53.15-40.78,16.95,0,28.18,3.67,36.88,11.23,8.02,6.87,10.54,16.49,10.54,35.05v38.26c0,15.81.46,28.63,2.98,34.59h-34.13c-.92-4.35-1.83-8.93-1.83-13.29-9.62,10.77-21.08,15.58-37.11,15.58ZM1402.76,183.24c-14.2.92-25.43,2.98-31.61,6.19-4.81,2.52-6.64,5.96-6.64,10.31s2.75,10.54,13.74,10.54c15.12,0,24.51-9.39,24.51-22.45v-4.58Z"/>
    <path class="cls-6" d="M1474.68,233.87l-40.09-115.46h39.4c9.62,30.93,16.49,53.83,23.37,80.41,6.19-26.12,12.83-49.48,22.68-80.41h37.11l-39.17,115.46h-43.3Z"/>
    <path class="cls-6" d="M1659.09,205.46c-10.31,20.85-26.8,32.3-52.46,32.3-38.03,0-58.87-23.82-58.87-62.31s22.68-60.71,57.73-60.71c41.23,0,54.52,31.61,54.52,72.16h-76.74c1.83,14.89,10.77,21.3,23.59,21.3,9.85,0,17.41-4.58,21.08-13.74l31.15,11ZM1624.27,162.85c0-11.68-6.87-21.3-19.7-21.3s-20.16,8.25-21.08,21.3h40.78Z"/>
  </g>
  <g>
    <path class="cls-3" d="M286.91,160.72c-9.43-12.64-18.31-23.64-26.44-33.13-14.27,10.3-24.32,20.24-29.69,26.06,5.7,6.85,16.15,19.16,28.46,32.65,8.77-8.21,18.47-16.47,28.86-24.01-.4-.52-.8-1.04-1.2-1.57h0Z"/>
    <path class="cls-3" d="M281.1,33.05c-19.59-7.54-40.86-11.69-63.07-11.69s-41.59,3.77-60.45,10.69c28.65,8.99,52.23,23.93,60.85,29.8,9.71-6.62,31.35-19.65,62.68-28.81h0Z"/>
    <path class="cls-3" d="M263.49,104.58c19.81-12.28,46.93-24.9,80.21-30.36-11.17-11.38-23.86-21.27-37.76-29.3-35.33,7.04-60.83,20.66-73.42,28.58,7,6.22,17.69,16.4,30.97,31.08h0Z"/>
    <path class="cls-3" d="M165.76,112.66c-15.09-11.04-29.24-18.27-40.82-22.96-16.09-6.52-29.48-9.16-37.56-10.22-9.56,10.57-17.86,22.31-24.66,34.97,17.51,3.07,45.76,10.88,72.53,30.67,11.43-9.44,23.69-23.96,30.5-32.45h0Z"/>
    <path class="cls-3" d="M219.7,139.94c6.04-6.36,15.81-15.7,29.16-25.48-21.79-23.83-35.76-34.52-35.97-34.68h0c-6.33-4.79-12.97-9.16-19.89-13.06-14.99-8.45-37.42-19.05-60.96-22.89-10.49,5.89-20.33,12.82-29.36,20.66,7.87,1.75,17.35,4.46,27.9,8.67,23.83,9.52,57.52,28.69,89.13,66.78h0Z"/>
    <path class="cls-1" d="M136.81,219.25c10.05-7.24,19.49-15.27,28.04-23.29-12.31-12.87-25.47-25.59-37.16-34.7-27.41-21.35-57.56-28.19-72.73-30.37-4.38,10.68-7.74,21.88-9.96,33.49,17.64,4.51,33.33,10.75,47.59,18.89,16.39,9.36,30.97,21.22,44.22,35.98h0Z"/>
    <path class="cls-5" d="M256.61,271.52c6.72-8.4,18.5-22.35,30.42-32.78-9.37-8.22-19.08-17.79-28.28-27.38-13.34,13.78-23.44,26.26-28.66,33,8.75,10.52,17.67,19.49,26.52,27.16h0Z"/>
    <path class="cls-3" d="M300.9,150.29c.57.76,1.15,1.51,1.72,2.26.53-.33,1.06-.65,1.59-.98,23.9-14.44,52.12-23.2,73.54-28.26-5.54-11.88-12.37-23.05-20.32-33.32-34.24,3.64-62.14,15.81-82.28,27.92,7.97,9.38,16.6,20.14,25.74,32.39h0Z"/>
    <path class="cls-1" d="M341.9,190.29c8.01-5.19,28.06-17.18,49.78-22.34-1.65-9.7-4.09-19.13-7.26-28.22-20.25,4.63-47.77,12.81-70.46,26.34,8.64,9.36,17.88,17.4,27.93,24.22h0Z"/>
    <path class="cls-5" d="M149.14,234.32c9.42,12.62,18.29,23.62,26.41,33.1,14.34-10.34,24.36-20.24,29.71-26.02-5.7-6.85-16.15-19.16-28.46-32.65-8.77,8.21-18.47,16.47-28.86,24.01.4.52.8,1.03,1.19,1.57h0Z"/>
    <path class="cls-3" d="M205.95,150.69c-8.8-10.56-17.74-19.53-26.54-27.14-6.73,8.41-18.5,22.33-30.4,32.76,9.37,8.22,19.09,17.79,28.29,27.39,13.34-13.78,23.43-26.25,28.65-33h0Z"/>
    <path class="cls-1" d="M218.95,229.99s.06.08.09.13c6.02-7.62,15.58-19.09,27.72-31.56-12.74-13.92-23.48-26.61-29.38-33.71l-.29.21s-.06-.08-.09-.13c-6.02,7.62-15.58,19.09-27.72,31.56,12.74,13.92,23.48,26.61,29.38,33.71l.29-.21Z"/>
    <path class="cls-1" d="M299.23,175.79c-10.04,7.24-19.48,15.27-28.03,23.3,12.31,12.86,25.46,25.58,37.16,34.69,27.28,21.25,57.52,28.14,72.74,30.34,4.38-10.68,7.73-21.87,9.95-33.46-17.64-4.51-33.33-10.75-47.59-18.89-16.38-9.35-30.97-21.21-44.22-35.98h0Z"/>
    <path class="cls-5" d="M216.34,255.11c-6.04,6.36-15.81,15.7-29.16,25.48,21.79,23.83,35.76,34.52,35.97,34.68h0c6.34,4.79,12.98,9.17,19.9,13.07,14.99,8.44,37.41,19.04,60.94,22.88,10.49-5.89,20.33-12.82,29.36-20.66-7.87-1.75-17.35-4.46-27.9-8.67-23.83-9.52-57.52-28.69-89.13-66.78h0Z"/>
    <path class="cls-5" d="M270.27,282.4c33.54,24.5,64.22,31.3,78.38,33.18,9.56-10.57,17.86-22.31,24.66-34.97-17.51-3.07-45.76-10.88-72.53-30.67-11.45,9.46-23.72,23.98-30.52,32.47Z"/>
    <path class="cls-2" d="M393.76,185.41c-13.33,3.47-26.17,9.96-34.77,14.92,10.59,5.34,22.03,9.61,34.48,12.93.46-5.18.71-10.43.71-15.73,0-4.07-.15-8.11-.42-12.11h0Z"/>
    <path class="cls-2" d="M42.58,181.79c-.46,5.18-.71,10.43-.71,15.73,0,4.07.15,8.11.42,12.11,13.33-3.47,26.17-9.96,34.77-14.92-10.59-5.34-22.03-9.61-34.48-12.93h0Z"/>
    <path class="cls-1" d="M94.15,204.75c-8.01,5.19-28.06,17.18-49.78,22.34,1.65,9.7,4.09,19.13,7.26,28.22,20.25-4.63,47.77-12.81,70.46-26.34-8.64-9.36-17.88-17.4-27.93-24.22h0Z"/>
    <path class="cls-4" d="M154.95,362c19.59,7.54,40.86,11.69,63.07,11.69s41.59-3.77,60.45-10.69c-28.65-8.99-52.23-23.93-60.84-29.8-9.71,6.62-31.35,19.65-62.68,28.81h0Z"/>
    <path class="cls-5" d="M135.15,244.76c-.57-.76-1.15-1.51-1.72-2.26-.53.33-1.06.65-1.59.98-23.9,14.44-52.12,23.2-73.54,28.26,5.55,11.89,12.38,23.05,20.32,33.33,33.49-3.55,61.14-15.21,82.26-27.95-7.96-9.38-16.59-20.13-25.72-32.36h0Z"/>
    <path class="cls-5" d="M172.55,290.47c-19.81,12.28-46.93,24.9-80.21,30.36,11.17,11.38,23.86,21.27,37.76,29.3,35.33-7.04,60.83-20.66,73.42-28.58-7-6.22-17.69-16.4-30.97-31.08h0Z"/>
  </g>
  <g>
    <path d="M462.68,327c-5.08,0-9.62-1.18-13.64-3.54-4.02-2.36-7.18-5.75-9.5-10.18-2.32-4.43-3.48-9.75-3.48-15.97s1.16-11.59,3.48-16.03c2.32-4.44,5.48-7.84,9.5-10.2,4.01-2.36,8.56-3.54,13.64-3.54s9.58,1.18,13.58,3.54c4,2.36,7.16,5.76,9.48,10.2,2.32,4.44,3.48,9.79,3.48,16.03s-1.16,11.55-3.48,15.99c-2.32,4.44-5.48,7.84-9.48,10.18-4,2.34-8.53,3.52-13.58,3.52ZM462.68,317.71c3.13,0,5.91-.78,8.34-2.35,2.42-1.57,4.32-3.87,5.69-6.92s2.06-6.75,2.06-11.13-.69-8.17-2.06-11.21c-1.37-3.04-3.27-5.35-5.69-6.92-2.42-1.57-5.2-2.35-8.34-2.35s-5.96.79-8.39,2.37-4.35,3.89-5.73,6.94-2.08,6.77-2.08,11.17.69,8.08,2.08,11.11c1.39,3.03,3.3,5.34,5.73,6.92s5.23,2.37,8.39,2.37Z"/>
    <path d="M502.23,326.22v-57.9h21.64c4.43,0,8.16.78,11.19,2.33s5.32,3.72,6.88,6.51c1.55,2.79,2.33,6.02,2.33,9.69s-.78,6.88-2.35,9.6-3.88,4.82-6.94,6.29c-3.06,1.48-6.81,2.21-11.27,2.21h-15.47v-8.59h14.11c2.62,0,4.75-.37,6.41-1.11s2.89-1.82,3.69-3.25c.8-1.42,1.21-3.15,1.21-5.17s-.4-3.84-1.21-5.3c-.8-1.46-2.04-2.58-3.71-3.36-1.67-.78-3.83-1.17-6.47-1.17h-9.68v49.19h-10.37ZM534.8,326.22l-14.07-26.27h11.35l14.34,26.27h-11.62Z"/>
    <path d="M582,327c-5.08,0-9.61-1.18-13.6-3.54s-7.14-5.75-9.44-10.18c-2.31-4.43-3.46-9.75-3.46-15.97s1.16-11.59,3.48-16.03c2.32-4.44,5.48-7.84,9.48-10.2,4-2.36,8.52-3.54,13.54-3.54,3.16,0,6.12.45,8.88,1.34,2.76.89,5.22,2.2,7.38,3.92,2.16,1.72,3.94,3.83,5.34,6.31,1.4,2.49,2.33,5.31,2.8,8.47h-10.45c-.34-1.74-.91-3.26-1.73-4.59-.82-1.32-1.83-2.44-3.05-3.36-1.22-.92-2.59-1.62-4.12-2.1-1.53-.48-3.16-.72-4.9-.72-3.16,0-5.97.8-8.41,2.39-2.45,1.59-4.37,3.91-5.75,6.96s-2.08,6.75-2.08,11.13.7,8.16,2.1,11.19c1.4,3.03,3.32,5.32,5.77,6.88,2.45,1.55,5.23,2.33,8.33,2.33,1.74,0,3.37-.24,4.9-.72,1.53-.48,2.91-1.18,4.14-2.1,1.23-.92,2.26-2.05,3.09-3.38s1.4-2.86,1.71-4.57h10.49c-.39,2.77-1.24,5.37-2.55,7.79-1.31,2.42-3.02,4.55-5.15,6.39-2.12,1.84-4.59,3.28-7.4,4.31-2.81,1.04-5.93,1.55-9.35,1.55Z"/>
    <path d="M619.15,326.22v-57.9h10.37v23.94h26.93v-23.94h10.37v57.9h-10.37v-25.22h-26.93v25.22h-10.37Z"/>
    <path d="M681.67,326.22v-57.9h37.61v8.74h-27.24v15.62h25.22v8.63h-25.22v16.16h27.39v8.74h-37.77Z"/>
    <path d="M753.35,327.11c-4.48,0-8.37-.7-11.68-2.1-3.3-1.4-5.89-3.43-7.75-6.1-1.87-2.67-2.87-5.91-3.03-9.71h10.22c.18,2.02.82,3.71,1.9,5.05s2.53,2.35,4.31,3.01,3.77.99,5.95.99,4.29-.35,6.04-1.05c1.75-.7,3.11-1.68,4.1-2.93.98-1.26,1.48-2.71,1.48-4.37,0-1.5-.43-2.75-1.3-3.73-.87-.98-2.09-1.82-3.65-2.51-1.57-.69-3.4-1.29-5.5-1.81l-6.57-1.71c-4.84-1.24-8.62-3.12-11.33-5.63-2.71-2.51-4.06-5.82-4.06-9.91,0-3.42.92-6.41,2.76-8.98,1.84-2.57,4.35-4.55,7.54-5.97,3.19-1.41,6.8-2.12,10.84-2.12s7.73.71,10.84,2.14c3.11,1.43,5.54,3.39,7.29,5.91,1.75,2.51,2.66,5.38,2.74,8.59h-10.06c-.26-2.49-1.37-4.41-3.32-5.77s-4.5-2.04-7.64-2.04c-2.18,0-4.05.33-5.61.99-1.57.66-2.77,1.56-3.61,2.7s-1.26,2.45-1.26,3.93c0,1.61.5,2.93,1.5,3.96,1,1.04,2.25,1.87,3.77,2.49,1.52.62,3.05,1.13,4.61,1.52l5.4,1.4c2.15.52,4.23,1.2,6.26,2.06,2.02.85,3.84,1.94,5.46,3.24,1.62,1.31,2.91,2.89,3.87,4.76.96,1.87,1.44,4.05,1.44,6.57,0,3.39-.87,6.38-2.6,8.96s-4.23,4.59-7.5,6.02c-3.26,1.44-7.2,2.16-11.81,2.16Z"/>
    <path d="M784.83,277.06v-8.74h46.08v8.74h-17.84v49.15h-10.37v-49.15h-17.87Z"/>
    <path d="M843.15,326.22v-57.9h21.64c4.43,0,8.16.78,11.19,2.33s5.32,3.72,6.88,6.51c1.55,2.79,2.33,6.02,2.33,9.69s-.78,6.88-2.35,9.6-3.88,4.82-6.94,6.29c-3.06,1.48-6.81,2.21-11.27,2.21h-15.47v-8.59h14.11c2.62,0,4.75-.37,6.41-1.11s2.89-1.82,3.69-3.25c.8-1.42,1.21-3.15,1.21-5.17s-.4-3.84-1.21-5.3c-.8-1.46-2.04-2.58-3.71-3.36-1.67-.78-3.83-1.17-6.47-1.17h-9.68v49.19h-10.37ZM875.71,326.22l-14.07-26.27h11.35l14.34,26.27h-11.62Z"/>
    <path d="M894.36,326.22l20.21-57.9h13.17l20.67,57.9h-11.39l-10.3-30.08c-1.01-3.11-2.06-6.63-3.15-10.55-1.09-3.92-2.29-8.39-3.61-13.39h2.18c-1.3,5.05-2.47,9.55-3.52,13.5-1.05,3.95-2.04,7.43-2.97,10.43l-9.95,30.08h-11.35ZM906.13,311.88v-8.35h30.5v8.35h-30.5Z"/>
    <path d="M949.77,277.06v-8.74h46.08v8.74h-17.84v49.15h-10.37v-49.15h-17.87Z"/>
    <path d="M1018.46,268.32v57.9h-10.37v-57.9h10.37Z"/>
    <path d="M1058.09,327c-5.08,0-9.62-1.18-13.64-3.54-4.02-2.36-7.18-5.75-9.5-10.18-2.32-4.43-3.48-9.75-3.48-15.97s1.16-11.59,3.48-16.03c2.32-4.44,5.48-7.84,9.5-10.2,4.01-2.36,8.56-3.54,13.64-3.54s9.58,1.18,13.58,3.54c4,2.36,7.16,5.76,9.48,10.2,2.32,4.44,3.48,9.79,3.48,16.03s-1.16,11.55-3.48,15.99c-2.32,4.44-5.48,7.84-9.48,10.18-4,2.34-8.53,3.52-13.58,3.52ZM1058.09,317.71c3.13,0,5.91-.78,8.34-2.35,2.42-1.57,4.32-3.87,5.69-6.92s2.06-6.75,2.06-11.13-.69-8.17-2.06-11.21c-1.37-3.04-3.27-5.35-5.69-6.92-2.42-1.57-5.2-2.35-8.34-2.35s-5.96.79-8.39,2.37-4.35,3.89-5.73,6.94-2.08,6.77-2.08,11.17.69,8.08,2.08,11.11,3.3,5.34,5.73,6.92,5.23,2.37,8.39,2.37Z"/>
    <path d="M1097.65,326.22v-57.9h11.73l20.01,31.9c.83,1.32,1.71,2.82,2.64,4.49s1.9,3.54,2.91,5.6c1.01,2.06,2.01,4.35,2.99,6.86h-1.17c-.18-2.18-.34-4.41-.49-6.7s-.25-4.47-.31-6.53c-.06-2.06-.1-3.8-.1-5.23v-30.39h10.53v57.9h-11.77l-18.07-28.72c-1.14-1.84-2.21-3.65-3.22-5.44-1.01-1.79-2.1-3.81-3.26-6.06-1.17-2.25-2.58-4.97-4.23-8.16h1.48c.16,2.82.3,5.5.43,8.02s.24,4.79.33,6.78c.09,2,.14,3.6.14,4.82v28.75h-10.57Z"/>
    <path d="M1216.32,326.22v-57.9h21.64c4.43,0,8.16.83,11.19,2.49s5.32,3.93,6.88,6.82c1.55,2.89,2.33,6.17,2.33,9.85s-.78,6.99-2.35,9.87c-1.57,2.88-3.88,5.14-6.94,6.8-3.06,1.66-6.81,2.49-11.27,2.49h-14.34v-8.55h12.98c2.62,0,4.76-.45,6.43-1.36,1.67-.91,2.9-2.16,3.69-3.77.79-1.61,1.19-3.43,1.19-5.48s-.4-3.86-1.19-5.44c-.79-1.58-2.03-2.81-3.71-3.69s-3.85-1.32-6.49-1.32h-9.68v49.19h-10.37Z"/>
    <path d="M1270.83,326.22v-57.9h10.37v49.15h25.57v8.74h-35.94Z"/>
    <path d="M1315.13,326.22l20.21-57.9h13.17l20.67,57.9h-11.39l-10.3-30.08c-1.01-3.11-2.06-6.63-3.15-10.55-1.09-3.92-2.29-8.39-3.61-13.39h2.18c-1.3,5.05-2.47,9.55-3.52,13.5-1.05,3.95-2.04,7.43-2.97,10.43l-9.95,30.08h-11.35ZM1326.9,311.88v-8.35h30.5v8.35h-30.5Z"/>
    <path d="M1370.54,277.06v-8.74h46.08v8.74h-17.84v49.15h-10.37v-49.15h-17.87Z"/>
    <path d="M1428.86,326.22v-57.9h37.07v8.74h-26.69v17.37h24.09v8.63h-24.09v23.16h-10.37Z"/>
    <path d="M1503.61,327c-5.08,0-9.62-1.18-13.64-3.54-4.02-2.36-7.18-5.75-9.5-10.18-2.32-4.43-3.48-9.75-3.48-15.97s1.16-11.59,3.48-16.03c2.32-4.44,5.48-7.84,9.5-10.2,4.01-2.36,8.56-3.54,13.64-3.54s9.58,1.18,13.58,3.54c4,2.36,7.16,5.76,9.48,10.2,2.32,4.44,3.48,9.79,3.48,16.03s-1.16,11.55-3.48,15.99c-2.32,4.44-5.48,7.84-9.48,10.18-4,2.34-8.53,3.52-13.58,3.52ZM1503.61,317.71c3.13,0,5.91-.78,8.34-2.35,2.42-1.57,4.32-3.87,5.69-6.92s2.06-6.75,2.06-11.13-.69-8.17-2.06-11.21c-1.37-3.04-3.27-5.35-5.69-6.92-2.42-1.57-5.2-2.35-8.34-2.35s-5.96.79-8.39,2.37-4.35,3.89-5.73,6.94-2.08,6.77-2.08,11.17.69,8.08,2.08,11.11,3.3,5.34,5.73,6.92,5.23,2.37,8.39,2.37Z"/>
    <path d="M1543.17,326.22v-57.9h21.64c4.43,0,8.16.78,11.19,2.33s5.32,3.72,6.88,6.51c1.55,2.79,2.33,6.02,2.33,9.69s-.78,6.88-2.35,9.6-3.88,4.82-6.94,6.29c-3.06,1.48-6.81,2.21-11.27,2.21h-15.47v-8.59h14.11c2.62,0,4.75-.37,6.41-1.11s2.89-1.82,3.69-3.25c.8-1.42,1.21-3.15,1.21-5.17s-.4-3.84-1.21-5.3c-.8-1.46-2.04-2.58-3.71-3.36-1.67-.78-3.83-1.17-6.47-1.17h-9.68v49.19h-10.37ZM1575.73,326.22l-14.07-26.27h11.35l14.34,26.27h-11.62Z"/>
    <path d="M1598.27,326.22v-57.9h15.62l11,29.88c.39,1.11.82,2.55,1.3,4.29.48,1.75.97,3.63,1.48,5.65.51,2.02.98,4,1.44,5.93.45,1.93.83,3.63,1.15,5.11h-2.1c.31-1.45.69-3.13,1.15-5.03.45-1.9.93-3.87,1.44-5.91.51-2.03,1-3.93,1.48-5.69s.9-3.21,1.26-4.35l10.88-29.88h15.66v57.9h-10.34v-29.22c0-1.24.01-2.75.04-4.51s.06-3.65.12-5.67c.05-2.02.1-4.06.16-6.12.05-2.06.08-4.02.08-5.89h.74c-.52,2.05-1.08,4.14-1.69,6.28-.61,2.14-1.21,4.21-1.81,6.22s-1.16,3.85-1.69,5.54c-.53,1.68-.99,3.07-1.38,4.16l-10.69,29.22h-8.82l-10.84-29.22c-.39-1.09-.85-2.45-1.38-4.1-.53-1.64-1.1-3.46-1.71-5.46-.61-1.99-1.22-4.07-1.83-6.24-.61-2.16-1.21-4.29-1.81-6.39h.85c.03,1.74.06,3.62.12,5.65.05,2.03.1,4.07.14,6.12.04,2.05.08,3.97.12,5.77.04,1.8.06,3.35.06,4.64v29.22h-10.18Z"/>
  </g>
</svg>