<svg xmlns="http://www.w3.org/2000/svg" role="img" viewBox="-21.70 -21.70 1128.40 347.40"><defs><style>.cls-1{fill:#d32f2f}.cls-2{fill:#f57c00}</style></defs><g id="Layer_2" data-name="Layer 2"><g id="Layer_1-2" data-name="Layer 1"><rect width="167.34" height="36.84" x="22.57" y="52.76" class="cls-1" rx="18.42" transform="rotate(-45 106.236 71.186)"/><path d="M140.21 56.94l47.35 47.36a18.41 18.41 0 0 1 0 26.05 18.43 18.43 0 0 1-26.05 0L114.16 83z" class="cls-1"/><path d="M174.42 161.51l47.35-47.35 26 26.05-47.35 47.35a18.41 18.41 0 0 1-26.05 0 18.41 18.41 0 0 1 .05-26.05z" class="cls-2"/><path d="M143.25 174.42l46.87 46.86-26.05 26.05-46.87-46.86a18.43 18.43 0 0 1 0-26.05 18.41 18.41 0 0 1 26.05 0z" class="cls-1"/><path d="M56.7 164.8l47.6-47.6a18.43 18.43 0 0 1 26.05 0 18.43 18.43 0 0 1 0 26.05l-47.6 47.6z" class="cls-2"/><rect width="36.84" height="167.34" x="215.16" y="22.57" class="cls-2" rx="18.42" transform="rotate(-45 233.576 106.24)"/><rect width="167.34" height="36.84" x="114.85" y="215.16" class="cls-1" rx="18.42" transform="rotate(-45 198.522 233.58)"/><rect width="36.84" height="167.34" x="52.76" y="114.85" class="cls-2" rx="18.42" transform="rotate(-45 71.187 198.513)"/><circle cx="80.8" cy="23.59" r="23.59" class="cls-1"/><circle cx="23.59" cy="223.96" r="23.59" class="cls-2"/><circle cx="281.66" cy="81.29" r="23.59" class="cls-2"/><circle cx="223.96" cy="281.18" r="23.59" class="cls-1"/><path d="M1014.65 216c-18 0-30.22-13-30.22-31.81s12.19-31.82 30.22-31.82 30.23 13 30.23 31.82-12.2 31.81-30.23 31.81zm0 37.12c41.36 0 70.53-29.16 70.53-68.93s-29.17-68.93-70.53-68.93-70.52 29.16-70.52 68.93 29.16 68.96 70.52 68.96zm-213.94-3.42h39.76v-67.87c0-20.68 10.08-29.43 24.92-29.43s24.93 8.75 24.93 29.43v67.87h39.76v-67.87c0-44.27-26-66.54-64.69-66.54s-64.68 22.53-64.68 66.54zm-63.37 0h39.77v-131h-39.77zm19.89-142.9c14.58 0 25.45-10.87 25.45-25.45S771.81 55.9 757.23 55.9s-25.45 10.87-25.45 25.45 10.87 25.45 25.45 25.45zm-87.49 142.9h39.77V61.47h-39.77zM576.16 216c-18 0-30.22-13-30.22-31.81s12.19-31.82 30.22-31.82 30.22 13 30.22 31.82S594.19 216 576.16 216zM569 253.15c18.83 0 33.67-9 40.56-25.19v21.74h36.59v-64.16c0-42.95-28.63-70.25-69.73-70.25-41.62 0-70.78 28.36-70.78 70.52 0 45.6 34.2 67.34 63.36 67.34zm-146.34-3.45h42.95V116.08h47.45V76.31h-137.6v39.77h47.2z" class="cls-1"/></g></g></svg>