<?xml version="1.0" standalone="no"?>
<!DOCTYPE svg PUBLIC "-//W3C//DTD SVG 20010904//EN"
 "http://www.w3.org/TR/2001/REC-SVG-20010904/DTD/svg10.dtd">
<svg version="1.0" xmlns="http://www.w3.org/2000/svg"
 width="2199.000000pt" height="597.000000pt" viewBox="0 0 2199.000000 597.000000"
 preserveAspectRatio="xMidYMid meet">

<g transform="translate(0.000000,597.000000) scale(0.100000,-0.100000)"
fill="#000000" stroke="none">
<path d="M15985 5945 c-24 -23 -25 -30 -25 -138 0 -100 3 -117 21 -141 20 -26
22 -26 148 -26 166 0 161 -5 161 161 0 68 -4 129 -8 135 -17 26 -56 34 -162
34 -104 0 -112 -1 -135 -25z"/>
<path d="M10431 5556 c-8 -9 -11 -61 -9 -162 l3 -149 243 -3 242 -2 0 -489 0
-488 -102 -22 c-321 -71 -727 -182 -1063 -291 -199 -65 -578 -201 -573 -206 2
-1 124 24 272 56 480 105 1045 202 1541 264 l250 31 3 572 2 573 238 2 237 3
0 160 0 160 -636 3 c-534 2 -638 0 -648 -12z"/>
<path d="M12282 5558 c-12 -15 -563 -1410 -559 -1415 4 -3 359 25 362 29 1 2
87 220 191 486 103 265 190 482 193 482 4 0 82 -193 174 -428 92 -235 176
-444 185 -465 l17 -39 417 -1 418 -2 0 518 0 517 244 0 c236 0 244 -1 277 -23
37 -24 79 -97 79 -137 0 -42 -42 -113 -80 -135 -30 -17 -59 -21 -185 -25 -133
-4 -150 -7 -153 -23 -2 -9 69 -175 159 -367 157 -340 163 -350 190 -350 16 0
96 -5 179 -11 83 -6 153 -9 156 -7 2 3 -44 110 -102 238 -121 264 -118 227
-23 295 51 37 110 113 143 185 125 273 -32 597 -325 675 -43 12 -140 15 -461
15 -393 0 -408 -1 -418 -19 -6 -13 -10 -199 -10 -536 l0 -516 -136 3 -136 3
-204 519 c-112 285 -209 524 -215 532 -16 19 -361 21 -377 2z"/>
<path d="M15137 5555 c-256 -70 -416 -340 -352 -590 42 -164 149 -281 318
-348 46 -18 80 -21 287 -26 213 -5 238 -8 270 -27 105 -61 109 -212 8 -274
-32 -19 -52 -20 -446 -20 -266 0 -420 -4 -433 -10 -15 -9 -19 -22 -19 -64 l0
-54 63 -6 c570 -55 871 -93 1317 -166 312 -52 744 -135 1018 -196 84 -19 156
-34 160 -33 16 1 -298 114 -524 189 -231 76 -577 178 -732 215 -46 11 -71 22
-68 29 44 99 59 148 63 215 17 242 -143 460 -378 516 -46 10 -122 15 -270 15
-198 0 -207 1 -240 23 -104 70 -106 196 -6 271 27 20 43 21 361 26 262 4 337
8 349 19 14 11 17 35 17 146 0 115 -2 134 -18 148 -17 15 -55 17 -358 16 -248
-1 -352 -4 -387 -14z"/>
<path d="M3875 4210 c-950 -79 -1808 -451 -2513 -1091 -663 -602 -1133 -1454
-1291 -2339 -37 -208 -69 -534 -71 -732 0 -17 206 -18 4192 -18 l4191 0 -7
162 c-40 974 -402 1880 -1041 2608 -178 202 -430 434 -641 591 -599 445 -1289
716 -2044 804 -161 19 -618 27 -775 15z m-978 -731 c57 -173 103 -319 103
-325 0 -6 -33 -23 -72 -39 -105 -40 -333 -156 -462 -233 -551 -331 -1022 -856
-1296 -1444 -30 -65 -58 -118 -61 -118 -13 0 -624 222 -632 229 -9 9 38 122
116 277 388 774 1029 1415 1797 1800 157 78 381 175 395 170 5 -1 56 -144 112
-317z m1678 -304 c561 -72 1062 -273 1500 -600 483 -361 846 -833 1063 -1383
88 -223 169 -531 188 -716 l7 -66 -3143 0 -3142 0 7 53 c3 28 19 117 35 197
218 1095 1011 1999 2075 2367 223 77 529 141 775 163 143 12 489 4 635 -15z"/>
<path d="M5695 2059 c-95 -50 -1569 -1187 -1614 -1245 -32 -41 -36 -86 -12
-136 11 -24 34 -51 50 -61 33 -20 102 -22 134 -5 12 6 254 191 537 412 283
220 634 489 780 598 146 109 277 207 292 218 52 39 60 129 17 184 -45 58 -116
71 -184 35z"/>
<path d="M10418 1773 c-3 -917 -5 -994 -22 -1068 -33 -144 -91 -222 -201 -270
-96 -43 -141 -47 -602 -52 l-443 -5 0 -175 0 -175 448 5 c453 5 525 10 677 48
219 55 405 203 497 394 82 172 88 264 88 1381 l0 904 -220 0 -219 0 -3 -987z"/>
<path d="M11480 1385 l0 -1365 215 0 215 0 2 1142 3 1142 430 -1139 431 -1140
220 -3 221 -2 155 422 c86 233 274 746 419 1141 l264 718 3 -1141 2 -1140 215
0 215 0 0 1365 0 1365 -319 0 c-246 0 -320 -3 -323 -12 -293 -792 -813 -2185
-818 -2191 -3 -4 -207 489 -452 1095 l-446 1103 -326 3 -326 2 0 -1365z"/>
<path d="M17400 2375 l0 -375 -195 0 -195 0 0 -160 0 -160 190 0 190 0 0 -617
c0 -675 2 -697 58 -818 52 -109 133 -181 239 -211 47 -14 119 -18 371 -21
l312 -5 0 161 0 161 -162 0 c-262 0 -348 23 -390 103 l-23 42 -3 608 -3 607
291 0 290 0 -2 163 -3 162 -287 3 -288 2 0 365 0 365 -195 0 -195 0 0 -375z"/>
<path d="M21810 2149 c-177 -19 -363 -81 -494 -166 -208 -134 -328 -297 -393
-538 l-27 -100 -4 -657 -3 -658 186 0 185 0 0 608 c0 668 2 685 61 809 86 180
297 298 574 321 l90 7 0 190 0 190 -45 1 c-25 1 -83 -2 -130 -7z"/>
<path d="M15545 1890 c-224 -19 -390 -78 -458 -163 -71 -87 -117 -214 -136
-377 -17 -145 -23 -467 -13 -650 18 -299 55 -425 156 -526 45 -45 77 -66 122
-83 139 -51 172 -54 877 -58 l657 -4 0 180 0 180 -582 3 c-572 3 -584 4 -649
26 -49 16 -76 33 -102 61 -81 90 -86 115 -88 506 -2 322 -2 331 20 380 29 65
91 128 155 157 48 21 67 23 289 26 153 3 262 0 305 -8 182 -31 259 -118 270
-302 l5 -88 -265 0 c-146 0 -313 -3 -371 -7 l-107 -6 0 -149 0 -148 558 0
c529 0 560 1 575 18 15 16 17 45 17 203 0 495 -57 649 -277 756 -129 61 -216
74 -558 78 -165 2 -345 0 -400 -5z"/>
<path d="M19278 1890 c-310 -25 -450 -95 -529 -264 -72 -155 -94 -343 -86
-769 5 -315 16 -409 62 -534 67 -180 190 -255 464 -283 59 -6 358 -10 697 -10
l594 0 0 180 0 180 -542 0 c-306 0 -574 5 -613 10 -99 14 -172 53 -212 113
-56 84 -58 100 -58 477 l0 345 30 54 c35 64 91 114 154 137 59 22 467 32 583
15 180 -28 258 -116 274 -310 l7 -81 -265 0 c-146 0 -313 -3 -371 -7 l-107 -6
0 -149 0 -148 553 0 c444 0 557 3 571 13 17 13 18 31 13 283 -7 331 -26 438
-103 554 -54 81 -213 162 -374 190 -80 14 -608 21 -742 10z"/>
</g>
</svg>
