<?xml version="1.0" encoding="UTF-8"?>
<!DOCTYPE svg PUBLIC "-//W3C//DTD SVG 1.1//EN" "http://www.w3.org/Graphics/SVG/1.1/DTD/svg11.dtd">
<!-- Creator: CorelDRAW 2020 (64-Bit Evaluation Version) -->
<svg xmlns="http://www.w3.org/2000/svg" xml:space="preserve" width="2.84722in" height="0.694441in" version="1.1" style="shape-rendering:geometricPrecision; text-rendering:geometricPrecision; image-rendering:optimizeQuality; fill-rule:evenodd; clip-rule:evenodd"
viewBox="0 0 2847.22 694.44"
 xmlns:xlink="http://www.w3.org/1999/xlink"
 xmlns:xodm="http://www.corel.com/coreldraw/odm/2003">
 <defs>
  <style type="text/css">
   <![CDATA[
    .fil0 {fill:#373435;fill-rule:nonzero}
    .fil1 {fill:#C0333D;fill-rule:nonzero}
    .fil2 {fill:#282828;fill-rule:nonzero}
   ]]>
  </style>
 </defs>
 <g id="Layer_x0020_1">
  <metadata id="CorelCorpID_0Corel-Layer"/>
  <path class="fil0" d="M137.1 483.81c26.36,0 45.6,13.59 54.59,32.43l-8.77 5.02c-10.26,-20.5 -29.29,-27.62 -46.65,-27.62 -37.65,0 -58.77,33.46 -58.77,64.84 0,34.93 25.94,66.08 59.4,66.08 17.78,0 38.7,-8.78 48.95,-29.07l8.99 4.39c-9.83,22.38 -35.98,34.52 -58.77,34.52 -40.58,0 -69.24,-38.91 -69.24,-76.55 0,-35.76 25.73,-74.04 70.27,-74.04z"/>
  <path class="fil0" d="M349.3 624.37c35.56,0 58.78,-33.27 58.78,-65.47 0,-34.1 -24.89,-65.47 -58.78,-65.47 -35.56,0 -58.77,33.06 -58.77,65.47 0,34.09 24.26,65.47 58.77,65.47zm-69.44 -65.47c0,-39.53 30.12,-75.3 69.65,-75.3 41.2,0 69.22,38.27 69.22,75.3 0,39.95 -29.91,75.29 -69.43,75.29 -41.2,-0.21 -69.44,-37.23 -69.44,-75.29z"/>
  <polygon class="fil0" points="638.23,633.15 638.23,504.72 579.67,604.92 572.98,604.92 514.42,504.72 514.42,633.15 503.75,633.15 503.75,484.65 514.42,484.65 576.32,590.9 638.23,484.65 648.89,484.65 648.89,633.15 "/>
  <polygon class="fil0" points="868.41,633.15 868.41,504.72 809.84,604.92 803.15,604.92 744.59,504.72 744.59,633.15 733.92,633.15 733.92,484.65 744.59,484.65 806.5,590.9 868.41,484.65 879.07,484.65 879.07,633.15 "/>
  <path class="fil0" d="M1077.24 559.32l0 -74.67 10.67 0 0 74.67c0,39.74 -16.31,74.87 -61.91,74.87 -47.06,0 -61.9,-37.23 -61.9,-74.87l0 -74.67 10.66 0 0 74.67c0,32.83 11.5,65.05 51.04,65.05 40.36,0 51.45,-33.04 51.45,-65.05z"/>
  <polygon class="fil0" points="1183.59,504.72 1183.59,633.15 1172.92,633.15 1172.92,484.65 1181.08,484.65 1285.24,615.37 1285.24,484.87 1295.91,484.87 1295.91,633.15 1286.08,633.15 "/>
  <polygon class="fil0" points="1380.93,633.15 1391.6,633.15 1391.6,484.87 1380.93,484.87 "/>
  <path class="fil0" d="M1546.89 483.81c26.36,0 45.59,13.59 54.59,32.43l-8.78 5.02c-10.26,-20.5 -29.29,-27.62 -46.65,-27.62 -37.64,0 -58.76,33.46 -58.76,64.84 0,34.93 25.93,66.08 59.4,66.08 17.76,0 38.68,-8.78 48.94,-29.07l8.99 4.39c-9.83,22.38 -35.97,34.52 -58.76,34.52 -40.6,0 -69.25,-38.91 -69.25,-76.55 0,-35.76 25.74,-74.04 70.28,-74.04z"/>
  <path class="fil0" d="M1757.21 497.62l-33.06 77.8 65.47 0 -32.42 -77.8zm-67.56 135.52l63.15 -148.5 8.79 0 63.15 148.5 -11.5 0 -20.7 -48.94 -70.92 0 -20.69 48.94 -11.29 0z"/>
  <polygon class="fil0" points="2029.21,494.27 1974.81,494.27 1974.81,633.15 1964.15,633.15 1964.15,494.27 1909.78,494.27 1909.78,484.65 2029.21,484.65 "/>
  <polygon class="fil0" points="2114.22,633.15 2124.91,633.15 2124.91,484.87 2114.22,484.87 "/>
  <path class="fil0" d="M2279.37 624.37c35.56,0 58.76,-33.27 58.76,-65.47 0,-34.1 -24.89,-65.47 -58.76,-65.47 -35.56,0 -58.78,33.06 -58.78,65.47 0,34.09 24.25,65.47 58.78,65.47zm-69.44 -65.47c0,-39.53 30.13,-75.3 69.65,-75.3 41.21,0 69.22,38.27 69.22,75.3 0,39.95 -29.91,75.29 -69.43,75.29 -41.22,-0.21 -69.44,-37.23 -69.44,-75.29z"/>
  <polygon class="fil0" points="2444.5,504.72 2444.5,633.15 2433.82,633.15 2433.82,484.65 2441.98,484.65 2546.14,615.37 2546.14,484.87 2556.82,484.87 2556.82,633.15 2546.98,633.15 "/>
  <path class="fil0" d="M2740.35 509.33c-9.63,-10.66 -23.01,-16.09 -40.8,-16.09 -29.06,0 -41.61,11.92 -41.61,30.54 0,19.04 13.18,24.05 43.52,30.33 32.21,6.9 52.28,14.63 52.28,40.99 0,26.15 -21.54,39.32 -53.11,39.32 -23.24,0 -42.68,-7.32 -58.78,-22.17l5.64 -8.59c12.35,12.98 30.96,21.35 53.54,21.35 25.74,0 41.41,-9.63 41.41,-28.65 0,-19.67 -15.28,-26.37 -46.41,-33.06 -31.8,-6.69 -48.94,-13.81 -48.94,-38.06 0,-26.78 21.32,-41.63 52.47,-41.63 19.25,0 34.11,5.86 46.24,17.35l-5.43 8.37z"/>
  <path class="fil1" d="M765.14 359.31l158.31 0 0 59.89 -232.85 0 0 -361.83 74.55 0 0 301.94zm-143.14 -96.92l-143.14 0 0 96.92 168 0 0 59.89 -242.55 0 0 -361.83 242.05 0 0 60.38 -167.5 0 0 86.24 143.14 0 0 58.4zm-260.44 -144.64l-110.83 0 0 301.45 -74.56 0 0 -301.45 -109.34 0 0 -60.38 294.73 0 0 60.38z"/>
  <path class="fil2" d="M2728.87 262.4l-143.15 0 0 96.92 168 0 0 59.89 -242.54 0 0 -361.83 242.06 0 0 60.38 -167.52 0 0 86.24 143.15 0 0 58.4zm-278.33 111.08c-13.42,16.07 -32.39,28.57 -56.92,37.52 -24.52,8.78 -51.7,13.18 -81.5,13.18 -31.32,0 -58.82,-6.8 -82.52,-20.37 -23.51,-13.76 -41.75,-33.63 -54.67,-59.65 -12.75,-26.01 -19.31,-56.58 -19.64,-91.7l0 -24.59c0,-36.12 6.06,-67.35 18.15,-93.69 12.25,-26.51 29.82,-46.72 52.68,-60.65 23.03,-14.08 49.96,-21.12 80.76,-21.12 42.91,0 76.46,10.27 100.65,30.82 24.18,20.37 38.52,50.12 42.99,89.21l-72.57 0c-3.32,-20.71 -10.68,-35.87 -22.11,-45.48 -11.26,-9.61 -26.83,-14.41 -46.72,-14.41 -25.35,0 -44.65,9.52 -57.9,28.57 -13.26,19.06 -19.96,47.39 -20.14,84.99l0 23.11c0,37.94 7.22,66.61 21.64,85.99 14.4,19.39 35.53,29.07 63.36,29.07 27.98,0 47.96,-5.96 59.89,-17.89l0 -62.37 -67.85 0 0 -54.92 142.41 0 0 144.39zm-536.79 -147.11l60.14 0c18.74,0 33.22,-4.72 43.5,-14.17 10.28,-9.61 15.42,-22.77 15.42,-39.5 0,-17.07 -4.89,-30.49 -14.68,-40.26 -9.6,-9.78 -24.43,-14.67 -44.49,-14.67l-59.89 0 0 108.61zm59.4 60.38l-59.4 0 0 132.46 -74.54 0 0 -361.83 134.43 0c42.75,0 75.72,9.52 98.91,28.58 23.21,19.05 34.8,45.97 34.8,80.76 0,24.69 -5.37,45.31 -16.15,61.87 -10.59,16.41 -26.76,29.49 -48.46,39.26l78.28 147.87 0 3.48 -80.03 0 -67.83 -132.46zm-202.53 -24.35l-143.15 0 0 96.92 167.98 0 0 59.89 -242.54 0 0 -361.83 242.06 0 0 60.38 -167.5 0 0 86.24 143.15 0 0 58.4zm-417.01 67.09l82.01 -272.11 83 0 -126 361.83 -77.78 0 -125.5 -361.83 82.76 0 81.5 272.11z"/>
  <polygon class="fil1" points="1107.27,149.26 1025.26,421.38 942.26,421.38 1068.26,59.55 1146.04,59.55 1271.54,421.38 1188.79,421.38 "/>
 </g>
</svg>
