<?xml version="1.0" encoding="UTF-8"?>
<svg version="1.1" xmlns="http://www.w3.org/2000/svg" width="313" height="313">
<path d="M0 0 C1.24861816 0.67772461 1.24861816 0.67772461 2.52246094 1.36914062 C3.80588379 2.03913086 3.80588379 2.03913086 5.11523438 2.72265625 C6.02821289 3.23505859 6.94119141 3.74746094 7.88183594 4.27539062 C8.90591553 4.84894287 9.92999512 5.42249512 10.98510742 6.01342773 C12.06993408 6.62581299 13.15476074 7.23819824 14.27246094 7.86914062 C15.39918213 8.50279541 16.52590332 9.1364502 17.68676758 9.78930664 C24.47763836 13.61914626 31.2323084 17.50249664 37.93774414 21.47973633 C44.24970881 25.22218881 50.60199191 28.89297209 56.95996094 32.55664062 C58.61970947 33.51364868 58.61970947 33.51364868 60.31298828 34.48999023 C65.90302836 37.71185385 71.49603538 40.92845793 77.09277344 44.13867188 C78.18146729 44.76427002 79.27016113 45.38986816 80.3918457 46.03442383 C82.39378469 47.18470837 84.39672358 48.33325633 86.40112305 49.47924805 C88.38668433 50.62088324 90.35191826 51.79842426 92.29803467 53.006073 C95.61979541 54.97588706 99.03429848 56.43849459 102.59883118 57.91856384 C119.37113538 65.49359593 119.37113538 65.49359593 122.95569801 73.61728287 C125.02202453 82.49104363 124.69429789 91.52162419 124.35369349 100.56832051 C124.22959314 104.51677165 124.24259359 108.46507899 124.23776245 112.41514587 C124.21017368 119.03584732 124.08883647 125.64927608 123.90283203 132.26733398 C123.68856768 139.90811615 123.5925482 147.5429091 123.56581604 155.18651301 C123.53721857 163.35256669 123.43989207 171.51656409 123.31320715 179.68164134 C123.28034094 182.02448485 123.25839615 184.36723895 123.23816299 186.71022224 C123.20178804 190.39188757 123.11798877 194.06963742 122.99776459 197.74948883 C122.94263523 199.73715707 122.93060012 201.72587506 122.91995239 203.71427917 C122.57148504 212.26265499 122.57148504 212.26265499 119.52244282 215.47871208 C117.2443853 217.02023351 115.02173528 218.23036282 112.52246094 219.36914062 C111.61423584 219.91441406 110.70601074 220.4596875 109.77026367 221.02148438 C109.00657471 221.44558594 108.24288574 221.8696875 107.45605469 222.30664062 C106.57119385 222.80156006 105.68633301 223.29647949 104.7746582 223.80639648 C103.84580811 224.32210205 102.91695801 224.83780762 101.95996094 225.36914062 C93.79291941 229.94487886 85.66552193 234.57977435 77.58496094 239.30664062 C76.09379761 240.17881226 76.09379761 240.17881226 74.57250977 241.06860352 C72.55800426 242.24775878 70.54376246 243.42736468 68.52978516 244.60742188 C63.5717633 247.51187761 58.61003506 250.40997136 53.64746094 253.30664062 C52.66922363 253.87785645 51.69098633 254.44907227 50.68310547 255.03759766 C45.38385197 258.12861271 40.0770818 261.20603437 34.76074219 264.26757812 C33.63361816 264.91670166 32.50649414 265.5658252 31.34521484 266.23461914 C29.11302381 267.518459 26.87965028 268.80024538 24.64501953 270.07983398 C19.96871469 272.76498632 15.3162017 275.46320567 10.76074219 278.34960938 C10.07246338 278.78233154 9.38418457 279.21505371 8.67504883 279.66088867 C6.93239619 280.7675726 5.20324935 281.89544963 3.47558594 283.02539062 C-0.15333491 284.67664561 -1.64824243 284.28835117 -5.47753906 283.36914062 C-7.98095703 282.19262695 -7.98095703 282.19262695 -10.46972656 280.70117188 C-11.40929199 280.14502197 -12.34885742 279.58887207 -13.31689453 279.01586914 C-14.31865723 278.41057373 -15.32041992 277.80527832 -16.35253906 277.18164062 C-18.51907435 275.89496104 -20.68574472 274.6085089 -22.85253906 273.32226562 C-23.95597656 272.66291016 -25.05941406 272.00355469 -26.19628906 271.32421875 C-31.22850396 268.32585737 -36.29011929 265.37861699 -41.35253906 262.43164062 C-42.33593262 261.85776611 -43.31932617 261.2838916 -44.33251953 260.69262695 C-52.78973714 255.75936426 -61.27080804 250.86790743 -69.75512695 245.98144531 C-77.99575854 241.23237703 -86.21666719 236.45035909 -94.42089844 231.63867188 C-101.04768796 227.76052146 -107.70875997 223.94432064 -114.37670898 220.13745117 C-115.83588871 219.30402317 -115.83588871 219.30402317 -117.32454681 218.45375824 C-119.70876462 217.0920211 -122.09309833 215.73048736 -124.47753906 214.36914062 C-124.78148508 195.73252522 -125.01058981 177.09641389 -125.1510973 158.45783234 C-125.21807837 149.80307575 -125.30935517 141.14986066 -125.45825195 132.49609375 C-125.58800076 124.95158335 -125.67173415 117.40818922 -125.70068949 109.86259413 C-125.71761308 105.86805456 -125.75724108 101.87670764 -125.8520298 97.88319397 C-125.94063423 94.11955124 -125.96742965 90.36039658 -125.94793892 86.59580994 C-125.95319284 84.56426513 -126.02299014 82.53320462 -126.09500122 80.50292969 C-126.03956761 76.71038996 -125.85322423 73.90879722 -124.47753906 70.36914062 C-120.50249529 66.7610605 -116.3364668 64.66582427 -111.47753906 62.36914062 C-109.4530945 61.20823011 -107.43700303 60.0324635 -105.43457031 58.83398438 C-103.38749432 57.65628713 -101.33928085 56.48056525 -99.29003906 55.30664062 C-97.58711125 54.32762949 -95.88418527 53.34861515 -94.18136597 52.36941528 C-92.43358446 51.36466764 -90.6853331 50.36074148 -88.93701172 49.35693359 C-83.44614669 46.20191433 -77.96206562 43.03516099 -72.47753906 39.86914062 C-70.31090766 38.61907951 -68.14424092 37.36907963 -65.97753906 36.11914062 C-64.90503906 35.50039062 -63.83253906 34.88164063 -62.72753906 34.24414062 C-52.97753906 28.61914063 -52.97753906 28.61914063 -49.72241211 26.74121094 C-47.57280272 25.50103301 -45.42322548 24.26079936 -43.27368164 23.02050781 C-38.20444694 20.09563833 -33.1348897 17.1713323 -28.06417847 14.24902344 C-25.67327309 12.87107125 -23.28255235 11.4927989 -20.8918457 10.11450195 C-19.20769943 9.1437308 -17.52328675 8.17342188 -15.83886719 7.203125 C-14.30456055 6.31850586 -14.30456055 6.31850586 -12.73925781 5.41601562 C-11.84166748 4.8987793 -10.94407715 4.38154297 -10.01928711 3.84863281 C-7.42810599 2.3957698 -7.42810599 2.3957698 -4.96118164 0.55371094 C-2.47753906 -0.63085938 -2.47753906 -0.63085938 0 0 Z M-8.10253906 16.36914062 C-9.10542969 16.92601562 -10.10832031 17.48289062 -11.14160156 18.05664062 C-11.91246094 18.48976563 -12.68332031 18.92289063 -13.47753906 19.36914062 C-9.47100208 22.80776072 -5.28465264 25.25914609 -0.66503906 27.74414062 C6.63291767 31.73464527 13.84649897 35.85083241 21.02246094 40.05664062 C29.50478173 45.02531297 38.00311558 49.96419805 46.52246094 54.86914062 C56.26627194 60.48101282 65.98943492 66.12717675 75.69628906 71.80273438 C77.5043336 72.85962888 79.3132668 73.91500532 81.12329102 74.96850586 C82.64031722 75.85414536 84.1536933 76.7460936 85.66186523 77.64672852 C89.07955321 79.75269291 89.07955321 79.75269291 92.95996094 80.43164062 C96.76268878 78.85489981 100.11367417 76.6614017 103.52246094 74.36914062 C100.57242308 72.06361629 97.53700808 70.14514748 94.28808594 68.28710938 C92.73347656 67.39475586 92.73347656 67.39475586 91.14746094 66.484375 C89.47683594 65.53014648 89.47683594 65.53014648 87.77246094 64.55664062 C85.40196509 63.19718913 83.03256621 61.83583002 80.66308594 60.47460938 C80.06226196 60.12977509 79.46143799 59.7849408 78.84240723 59.42965698 C73.05240109 56.10466914 67.28566997 52.74033814 61.52246094 49.36914062 C52.13069101 43.87974884 42.71578958 38.43161278 33.28613281 33.00756836 C27.7148055 29.7998472 22.15549413 26.57329537 16.61621094 23.31054688 C15.50890625 22.65957031 14.40160156 22.00859375 13.26074219 21.33789062 C11.1413672 20.09029715 9.0240898 18.83913178 6.90917969 17.58398438 C5.966875 17.0296875 5.02457031 16.47539063 4.05371094 15.90429688 C3.22419922 15.41324463 2.3946875 14.92219238 1.54003906 14.41625977 C-2.39449528 12.37424406 -4.46071662 14.33649554 -8.10253906 16.36914062 Z M-32.66503906 30.86914062 C-34.29505859 31.84367187 -34.29505859 31.84367187 -35.95800781 32.83789062 C-36.78945312 33.34320313 -37.62089844 33.84851562 -38.47753906 34.36914062 C-35.98369114 37.16477838 -33.22538826 38.80167467 -29.97363281 40.63476562 C-28.8539209 41.26970947 -27.73420898 41.90465332 -26.58056641 42.55883789 C-25.98411316 42.89408478 -25.38765991 43.22933167 -24.77313232 43.57473755 C-22.23912353 44.99906142 -19.71120146 46.43403949 -17.18273926 47.86817932 C-15.8750432 48.60967407 -14.56701545 49.35058413 -13.25866699 50.09092712 C-6.93624486 53.66926835 -0.64169362 57.29517282 5.64746094 60.93164062 C7.78804979 62.16868234 9.92867486 63.40566139 12.06933594 64.64257812 C13.6577832 65.56055176 13.6577832 65.56055176 15.27832031 66.49707031 C18.5917047 68.40909857 21.90822689 70.31558021 25.22558594 72.22070312 C26.33184326 72.8567749 27.43810059 73.49284668 28.57788086 74.14819336 C30.76733855 75.40692622 32.95758878 76.66428167 35.14868164 77.92016602 C40.28910298 80.8780621 45.38905307 83.88040943 50.42480469 87.01367188 C51.34148926 87.58061768 52.25817383 88.14756348 53.20263672 88.73168945 C54.90837778 89.79275468 56.6065598 90.86610909 58.29541016 91.95385742 C62.46361252 94.63021231 62.46361252 94.63021231 67.23339844 95.37304688 C69.91479977 94.19707393 72.35289653 92.86206766 74.83496094 91.30664062 C75.71796875 90.75878906 76.60097656 90.2109375 77.51074219 89.64648438 C78.50654297 89.01419922 78.50654297 89.01419922 79.52246094 88.36914062 C76.24148812 85.64378965 72.96389161 83.33694351 69.26074219 81.22460938 C68.23770996 80.63800537 67.21467773 80.05140137 66.16064453 79.44702148 C65.06316895 78.8231958 63.96569336 78.19937012 62.83496094 77.55664062 C61.67405519 76.89246483 60.51341541 76.22782397 59.35302734 75.56274414 C56.94294117 74.18191659 54.53172797 72.80308941 52.11962891 71.42578125 C46.53610951 68.23584224 40.96692304 65.02103998 35.39746094 61.80664062 C33.78786499 60.87815308 33.78786499 60.87815308 32.14575195 59.9309082 C24.84565832 55.71739074 17.55462375 51.48857083 10.27246094 47.24414062 C9.30010498 46.67800049 8.32774902 46.11186035 7.32592773 45.52856445 C2.27804218 42.58343781 -2.75232343 39.61206736 -7.76269531 36.60351562 C-8.77493164 35.99781738 -9.78716797 35.39211914 -10.83007812 34.76806641 C-12.76125188 33.61070015 -14.68915774 32.44785839 -16.61328125 31.27880859 C-17.47211914 30.76463379 -18.33095703 30.25045898 -19.21582031 29.72070312 C-20.34564331 29.03741943 -20.34564331 29.03741943 -21.49829102 28.34033203 C-26.01446449 26.12430414 -28.72104248 28.49426096 -32.66503906 30.86914062 Z M-59.66503906 46.36914062 C-60.31923828 46.75070313 -60.9734375 47.13226563 -61.64746094 47.52539062 C-63.26087452 48.46752994 -64.86966205 49.41758329 -66.47753906 50.36914062 C-66.47753906 51.02914062 -66.47753906 51.68914062 -66.47753906 52.36914062 C-65.48463867 52.94075928 -65.48463867 52.94075928 -64.47167969 53.52392578 C-47.45332126 63.3244154 -30.47346113 73.18868584 -13.51855469 83.09863281 C-6.50855168 87.19511776 0.50556037 91.28448303 7.52246094 95.36914062 C8.6899555 96.04961774 9.85743554 96.73011978 11.02490234 97.41064453 C14.00640528 99.1479935 16.99017324 100.88139812 19.97540283 102.61233521 C21.67125492 103.59667414 23.365192 104.58430998 25.05908203 105.57202148 C26.09242676 106.17022705 27.12577148 106.76843262 28.19042969 107.38476562 C29.10074951 107.91360352 30.01106934 108.44244141 30.94897461 108.98730469 C33.47308887 110.34263025 35.76935318 111.56391256 38.52246094 112.36914062 C40.52750722 111.84703664 40.52750722 111.84703664 42.29199219 110.59570312 C42.95263672 110.18320313 43.61328125 109.77070313 44.29394531 109.34570312 C44.96748047 108.8996875 45.64101562 108.45367187 46.33496094 107.99414062 C47.02783203 107.55585938 47.72070312 107.11757812 48.43457031 106.66601562 C50.14097069 105.583334 51.83317315 104.47833336 53.52246094 103.36914062 C51.12276412 100.71348275 48.55801905 99.08915509 45.45605469 97.32226562 C44.42657715 96.73243896 43.39709961 96.1426123 42.33642578 95.53491211 C41.22219238 94.90270752 40.10795898 94.27050293 38.95996094 93.61914062 C37.78990774 92.9504655 36.62015344 92.28126712 35.45068359 91.61157227 C33.01891727 90.21960808 30.5858785 88.82990861 28.15185547 87.44189453 C22.55623463 84.24894682 16.97708835 81.02742866 11.39746094 77.80664062 C9.7859314 76.87718628 9.7859314 76.87718628 8.1418457 75.92895508 C0.88295153 71.73989199 -6.36382051 67.53046044 -13.60253906 63.30664062 C-14.56973877 62.74307861 -15.53693848 62.1795166 -16.53344727 61.59887695 C-21.76964238 58.5450474 -26.99439325 55.47309796 -32.20800781 52.38085938 C-33.30935059 51.73060791 -34.41069336 51.08035645 -35.54541016 50.41040039 C-37.66741359 49.15715698 -39.78636903 47.89873458 -41.90185547 46.63452148 C-42.85108887 46.07514893 -43.80032227 45.51577637 -44.77832031 44.93945312 C-45.61532471 44.44203613 -46.4523291 43.94461914 -47.31469727 43.43212891 C-52.19149558 41.03529181 -55.46681048 43.87631082 -59.66503906 46.36914062 Z M-86.36035156 61.65039062 C-86.93461884 61.9833313 -87.50888611 62.31627197 -88.10055542 62.65930176 C-89.93692938 63.72521479 -91.76974206 64.79709108 -93.60253906 65.86914062 C-94.845799 66.59219188 -96.08928585 67.31485314 -97.33300781 68.03710938 C-100.38383222 69.80993273 -103.4314905 71.58812114 -106.47753906 73.36914062 C-104.06246416 76.04727815 -101.46700994 77.67349173 -98.34082031 79.45117188 C-97.30006348 80.04671875 -96.25930664 80.64226562 -95.18701172 81.25585938 C-94.06601074 81.89136719 -92.94500977 82.526875 -91.79003906 83.18164062 C-90.02894168 84.18723967 -88.2688598 85.19460121 -86.50878906 86.20199585 C-85.30175019 86.89267622 -84.09438975 87.58279491 -82.88671875 88.27236938 C-76.76970882 91.76647153 -70.6839969 95.31356515 -64.60253906 98.86914062 C-63.18968628 99.69442261 -63.18968628 99.69442261 -61.74829102 100.53637695 C-60.836521 101.06900146 -59.92475098 101.60162598 -58.98535156 102.15039062 C-58.09106445 102.66601562 -57.19677734 103.18164062 -56.27539062 103.71289062 C-54.26816093 104.90111456 -52.28834796 106.1361228 -50.328125 107.40039062 C-49.28172852 108.06039062 -48.23533203 108.72039062 -47.15722656 109.40039062 C-46.21347168 110.01462891 -45.2697168 110.62886719 -44.29736328 111.26171875 C-41.49393247 112.6592089 -41.49393247 112.6592089 -38.45996094 111.74462891 C-35.55407161 110.40443731 -32.82287703 108.97634341 -30.07910156 107.33007812 C-29.10585937 106.75 -28.13261719 106.16992188 -27.12988281 105.57226562 C-26.13085938 104.96898437 -25.13183594 104.36570313 -24.10253906 103.74414062 C-23.0803125 103.133125 -22.05808594 102.52210938 -21.00488281 101.89257812 C-18.49261833 100.38991526 -15.98368185 98.88198348 -13.47753906 97.36914062 C-16.90611384 94.50436549 -20.35692844 92.16310499 -24.24707031 89.97070312 C-25.37209961 89.33302002 -26.49712891 88.69533691 -27.65625 88.03833008 C-28.2488562 87.70499664 -28.8414624 87.37166321 -29.45202637 87.02822876 C-32.59199151 85.26164646 -35.7235356 83.48022612 -38.85644531 81.70117188 C-39.49307098 81.34018906 -40.12969666 80.97920624 -40.78561401 80.60728455 C-47.12546832 77.00962928 -53.43137348 73.35527194 -59.72753906 69.68164062 C-60.6953833 69.11848145 -61.66322754 68.55532227 -62.66040039 67.97509766 C-67.47891382 65.16136098 -72.24016121 62.29605289 -76.91015625 59.2409668 C-80.55612118 57.21296979 -83.09759249 59.74975427 -86.36035156 61.65039062 Z M-112.47753906 85.36914062 C-112.47753906 125.62914062 -112.47753906 165.88914063 -112.47753906 207.36914062 C-108.51753906 209.34914063 -104.55753906 211.32914062 -100.47753906 213.36914062 C-100.24592243 197.56616366 -100.06753301 181.76378836 -99.95941734 165.95953941 C-99.90787946 158.62103834 -99.83763744 151.28361194 -99.72314453 143.94580078 C-99.62338345 137.54909059 -99.55893769 131.15315861 -99.53665411 124.75569212 C-99.52362907 121.36862239 -99.4930946 117.98377859 -99.42023849 114.59742355 C-99.3477114 110.81343963 -99.33764423 107.03407793 -99.34228516 103.24951172 C-99.3063324 102.13029327 -99.27037964 101.01107483 -99.2333374 99.85794067 C-99.27503808 96.71893362 -99.39900641 94.3202032 -100.47753906 91.36914062 C-103.75480211 88.33781806 -107.85946903 85.36914062 -112.47753906 85.36914062 Z M102.48339844 88.15820312 C101.43958008 88.7633374 100.39576172 89.36847168 99.3203125 89.99194336 C97.62600098 90.98303101 97.62600098 90.98303101 95.89746094 91.99414062 C94.72547825 92.67558637 93.55327496 93.35665283 92.38085938 94.03735352 C89.35163016 95.79761688 86.32547669 97.5630913 83.30041504 99.33050537 C80.51855528 100.9555966 77.73524137 102.57819371 74.95214844 104.20117188 C71.89284725 105.98572449 68.83384272 107.77077374 65.77587891 109.55761719 C58.38419275 113.87515008 50.96522143 118.14029944 43.52246094 122.36914062 C43.52246094 132.59914063 43.52246094 142.82914063 43.52246094 153.36914062 C47.15052227 151.91791609 50.26474878 150.49369877 53.63574219 148.60351562 C54.62485596 148.04994385 55.61396973 147.49637207 56.63305664 146.92602539 C57.68968506 146.32975342 58.74631348 145.73348145 59.83496094 145.11914062 C60.93348389 144.50159912 62.03200684 143.88405762 63.16381836 143.24780273 C73.74023543 137.28295408 84.32025829 131.29356403 94.68798828 124.97143555 C97.52246094 123.36914062 97.52246094 123.36914062 100.86083984 121.96411133 C104.32372729 120.38726535 106.82440864 119.06267215 109.52246094 116.36914062 C110.99709866 110.98140698 110.66863375 105.95501218 110.27246094 100.43164062 C110.21219829 98.97027134 110.15745722 97.5086633 110.10839844 96.046875 C109.97680702 92.48263125 109.77024714 88.92741404 109.52246094 85.36914062 C106.62686336 85.36914062 104.98111156 86.70355795 102.48339844 88.15820312 Z M-88.47753906 99.36914062 C-88.47753906 139.62914062 -88.47753906 179.88914063 -88.47753906 221.36914062 C-82.04253906 224.83414063 -82.04253906 224.83414063 -75.47753906 228.36914062 C-75.22266642 212.58348162 -75.02648545 196.79855301 -74.90760517 181.01135159 C-74.85093357 173.68060106 -74.77370833 166.35115394 -74.64770508 159.02124023 C-74.53790326 152.63074477 -74.46706289 146.24119318 -74.44256562 139.84978062 C-74.42824809 136.46638258 -74.39473224 133.08568405 -74.31450844 129.70315361 C-74.23462438 125.92148752 -74.22365833 122.14541119 -74.22875977 118.36303711 C-74.18921173 117.24741394 -74.1496637 116.13179077 -74.10891724 114.98236084 C-74.15603213 111.75393168 -74.30790394 109.38343465 -75.47753906 106.36914062 C-78.93880017 103.14334029 -83.53738209 99.36914062 -88.47753906 99.36914062 Z M-9.11816406 107.43164062 C-10.18808594 108.06328125 -11.25800781 108.69492188 -12.36035156 109.34570312 C-13.47152344 110.0134375 -14.58269531 110.68117188 -15.72753906 111.36914062 C-16.85417969 112.036875 -17.98082031 112.70460938 -19.14160156 113.39257812 C-21.92495985 115.04372287 -24.70326028 116.70280065 -27.47753906 118.36914062 C-26.30438227 121.88861101 -25.75697157 122.06258622 -22.61816406 123.74414062 C-21.83183594 124.17210937 -21.04550781 124.60007812 -20.23535156 125.04101562 C-19.40777344 125.47929687 -18.58019531 125.91757813 -17.72753906 126.36914062 C-16.10740174 127.24350045 -14.48760096 128.11848419 -12.86816406 128.99414062 C-12.09923828 129.40148437 -11.3303125 129.80882812 -10.53808594 130.22851562 C-8.47753906 131.36914062 -8.47753906 131.36914062 -5.77441406 133.24414062 C-2.60836522 134.79485842 -0.87864656 134.16755074 2.52246094 133.36914062 C5.26713525 132.12438745 5.26713525 132.12438745 7.92089844 130.49804688 C8.89414063 129.92376953 9.86738281 129.34949219 10.87011719 128.7578125 C11.86914062 128.15517578 12.86816406 127.55253906 13.89746094 126.93164062 C14.9196875 126.33287109 15.94191406 125.73410156 16.99511719 125.1171875 C20.83509463 122.85893767 20.83509463 122.85893767 24.52246094 120.36914062 C24.52246094 119.70914063 24.52246094 119.04914063 24.52246094 118.36914062 C20.78097956 115.72483031 16.73765205 113.53524075 12.77246094 111.24414062 C11.66128906 110.58542969 10.55011719 109.92671875 9.40527344 109.24804688 C8.33535156 108.62542969 7.26542969 108.0028125 6.16308594 107.36132812 C5.17856445 106.78753418 4.19404297 106.21374023 3.1796875 105.62255859 C-1.87005976 103.24058483 -4.64702549 104.7679836 -9.11816406 107.43164062 Z M-63.47753906 113.36914062 C-63.82854378 129.11990132 -64.09273435 144.86960044 -64.25472164 160.62330532 C-64.33195012 167.93892363 -64.43714244 175.2521073 -64.60913086 182.56616211 C-64.75903781 188.94423268 -64.85549864 195.3205404 -64.88886648 201.70032364 C-64.90836656 205.07699308 -64.95386316 208.44862192 -65.06348991 211.82366753 C-66.1263115 225.20755509 -66.1263115 225.20755509 -61.96590042 237.40867996 C-57.82525219 241.11441049 -52.16624511 244.36914062 -46.47753906 244.36914062 C-46.47753906 204.10914063 -46.47753906 163.84914062 -46.47753906 122.36914062 C-54.56582342 116.29741342 -54.56582342 116.29741342 -63.47753906 113.36914062 Z M-34.47753906 130.36914062 C-36.54434973 145.94840201 -36.54434973 145.94840201 -34.47753906 161.36914062 C-29.11066117 168.37117018 -20.55724191 171.46953603 -12.47753906 174.36914062 C-10.82753906 175.02914062 -9.17753906 175.68914062 -7.47753906 176.36914062 C-7.47753906 166.13914062 -7.47753906 155.90914062 -7.47753906 145.36914062 C-11.74691406 142.89414063 -16.01628906 140.41914063 -20.41503906 137.86914062 C-21.76331787 137.08603516 -23.11159668 136.30292969 -24.50073242 135.49609375 C-25.55397705 134.88701172 -26.60722168 134.27792969 -27.69238281 133.65039062 C-28.77640381 133.02197266 -29.8604248 132.39355469 -30.97729492 131.74609375 C-33.1478079 130.28873931 -33.1478079 130.28873931 -34.47753906 130.36914062 Z M24.62011719 133.14257812 C23.64751953 133.72007812 22.67492187 134.29757813 21.67285156 134.89257812 C20.65384766 135.50359375 19.63484375 136.11460937 18.58496094 136.74414062 C17.56982422 137.34742188 16.5546875 137.95070312 15.50878906 138.57226562 C9.95741943 141.87784596 9.95741943 141.87784596 4.52246094 145.36914062 C4.10392045 148.57339387 4.10392045 148.57339387 4.22949219 152.34570312 C4.23373703 153.03095062 4.23798187 153.71619812 4.24235535 154.42221069 C4.25916341 156.61325192 4.29681689 158.80337694 4.33496094 160.99414062 C4.35000514 162.47850235 4.36369401 163.96287848 4.37597656 165.44726562 C4.40907303 169.08818895 4.46086887 172.7285754 4.52246094 176.36914062 C5.29299805 175.97009521 6.06353516 175.5710498 6.85742188 175.15991211 C16.37266297 170.30418869 16.37266297 170.30418869 20.97558594 168.90429688 C25.49493803 167.29532779 29.08146016 165.67328022 31.52246094 161.36914062 C33.45999673 151.22836307 32.4221517 140.58501385 31.52246094 130.36914062 C28.65473466 130.36914062 27.07673312 131.67788217 24.62011719 133.14257812 Z M104.23730469 132.72070312 C103.32698486 133.23479736 102.41666504 133.7488916 101.47875977 134.27856445 C99.98445435 135.12777466 99.98445435 135.12777466 98.45996094 135.99414062 C97.42572998 136.58026123 96.39149902 137.16638184 95.32592773 137.77026367 C87.13211618 142.42618997 78.98775567 147.1637742 70.85571289 151.92651367 C63.14754083 156.43579123 55.40521537 160.88341126 47.64746094 165.30664062 C38.65200612 170.43673139 29.66213159 175.57607851 20.69012451 180.74710083 C18.99613154 181.72329662 17.301539 182.69845172 15.60693359 183.67358398 C14.58776855 184.26147705 13.56860352 184.84937012 12.51855469 185.45507812 C11.62322021 185.97118652 10.72788574 186.48729492 9.80541992 187.01904297 C8.0105803 188.0804763 6.25745839 189.21247566 4.52246094 190.36914062 C4.10765987 192.39801373 4.10765987 192.39801373 4.22949219 194.72070312 C4.23916016 195.57148438 4.24882812 196.42226562 4.25878906 197.29882812 C4.28392578 198.18828125 4.3090625 199.07773438 4.33496094 199.99414062 C4.34849609 200.89132813 4.36203125 201.78851563 4.37597656 202.71289062 C4.41139169 204.93223852 4.46077632 207.15039251 4.52246094 209.36914062 C8.09150282 208.01608413 11.37674424 206.43224964 14.70605469 204.56835938 C15.70435303 204.01027588 16.70265137 203.45219238 17.73120117 202.87719727 C19.32943726 201.97602173 19.32943726 201.97602173 20.95996094 201.05664062 C22.0737915 200.43072021 23.18762207 199.8047998 24.33520508 199.15991211 C32.33060056 194.64912112 40.25522286 190.02901136 48.14379883 185.33447266 C55.19461802 181.14072849 62.28679247 177.02301311 69.39746094 172.93164062 C78.26415087 167.82798452 87.12086933 162.70797476 95.95996094 157.55664062 C96.97880371 156.96375244 97.99764648 156.37086426 99.04736328 155.76000977 C100.45622803 154.93811157 100.45622803 154.93811157 101.89355469 154.09960938 C102.71782959 153.61903076 103.54210449 153.13845215 104.39135742 152.64331055 C106.13275378 151.60214345 107.83430282 150.49457937 109.52246094 149.36914062 C109.93726201 147.34026752 109.93726201 147.34026752 109.81542969 145.01757812 C109.80576172 144.16679687 109.79609375 143.31601563 109.78613281 142.43945312 C109.76099609 141.55 109.73585938 140.66054687 109.70996094 139.74414062 C109.69642578 138.84695312 109.68289063 137.94976562 109.66894531 137.02539062 C109.63353019 134.80604273 109.58414555 132.58788874 109.52246094 130.36914062 C107.59901361 130.36914062 105.86230281 131.8018373 104.23730469 132.72070312 Z M103.65136719 166.12304688 C102.09748291 167.02228882 102.09748291 167.02228882 100.51220703 167.93969727 C99.38121582 168.59703857 98.25022461 169.25437988 97.08496094 169.93164062 C95.90621522 170.61472285 94.72733961 171.29758096 93.54833984 171.98022461 C91.09310429 173.40200071 88.63843716 174.82475155 86.18408203 176.24804688 C81.66634945 178.86662517 77.14103321 181.47200206 72.6159668 184.07788086 C62.26041016 190.04236099 51.9241129 196.03869038 41.609375 202.07348633 C36.18946158 205.24140681 30.75805188 208.38791102 25.31152344 211.50976562 C24.10449162 212.20247297 22.89746037 212.8951813 21.69042969 213.58789062 C19.36950296 214.91958031 17.04627314 216.24695579 14.72167969 217.57226562 C13.67882812 218.17039063 12.63597656 218.76851562 11.56152344 219.38476562 C10.17247803 220.17802246 10.17247803 220.17802246 8.75537109 220.98730469 C6.43107207 222.30774378 6.43107207 222.30774378 4.52246094 224.36914062 C4.37748109 226.94978191 4.33568549 229.41857947 4.39746094 231.99414062 C4.40648437 232.70054687 4.41550781 233.40695312 4.42480469 234.13476562 C4.4483849 235.8797016 4.48425633 237.62446358 4.52246094 239.36914062 C8.15506439 238.0044124 11.43207501 236.37112903 14.78417969 234.41992188 C15.80721191 233.82687256 16.83024414 233.23382324 17.88427734 232.62280273 C18.98175293 231.98221924 20.07922852 231.34163574 21.20996094 230.68164062 C22.37040339 230.00754589 23.53105168 229.33380537 24.69189453 228.66040039 C27.10380219 227.26093131 29.5148168 225.85994091 31.92529297 224.45800781 C36.4165561 221.84770362 40.91869489 219.25635201 45.4206543 216.66455078 C52.83834126 212.39364227 60.25060904 208.11354797 67.64746094 203.80664062 C69.14092041 202.93785278 69.14092041 202.93785278 70.66455078 202.05151367 C72.63833819 200.89693366 74.60751822 199.7344375 76.57177734 198.5637207 C81.75163319 195.48907233 86.95919966 192.61703773 92.35839844 189.94335938 C102.96341711 185.29152427 102.96341711 185.29152427 110.55371094 177.19726562 C111.55425558 172.36129986 110.84173289 168.07210083 109.52246094 163.36914062 C107.45506552 163.36914062 105.36412435 165.12928416 103.65136719 166.12304688 Z M-34.47753906 175.36914062 C-34.47753906 200.77914062 -34.47753906 226.18914062 -34.47753906 252.36914062 C-21.66639092 262.4416194 -21.66639092 262.4416194 -7.47753906 267.36914062 C-7.47753906 241.95914063 -7.47753906 216.54914063 -7.47753906 190.36914062 C-20.28868721 180.29666185 -20.28868721 180.29666185 -34.47753906 175.36914062 Z M103.42871094 195.68554688 C102.57680176 196.194646 101.72489258 196.70374512 100.84716797 197.22827148 C99.91501465 197.7903833 98.98286133 198.35249512 98.02246094 198.93164062 C96.01017381 200.13339087 93.99712142 201.33386044 91.98339844 202.53320312 C90.39543457 203.47921387 90.39543457 203.47921387 88.77539062 204.44433594 C83.42530144 207.61005968 78.03689458 210.7085255 72.64746094 213.80664062 C64.25686216 218.63445636 55.87969103 223.48377942 47.52246094 228.36914062 C37.69818342 234.11167942 27.84810126 239.80826191 17.98535156 245.484375 C16.95216797 246.07927734 15.91898438 246.67417969 14.85449219 247.28710938 C13.94417236 247.81071045 13.03385254 248.33431152 12.09594727 248.8737793 C11.24669678 249.36724854 10.39744629 249.86071777 9.52246094 250.36914062 C8.59755859 250.85850098 7.67265625 251.34786133 6.71972656 251.85205078 C5.63208008 252.60301025 5.63208008 252.60301025 4.52246094 253.36914062 C3.91621696 256.792748 3.91621696 256.792748 4.20996094 260.55664062 C4.25507813 261.82894531 4.30019531 263.10125 4.34667969 264.41210938 C4.4046875 265.38792969 4.46269531 266.36375 4.52246094 267.36914062 C11.72276581 263.89198689 18.64156825 260.0626416 25.52246094 255.99414062 C27.64710749 254.74614287 29.7721203 253.49876848 31.89746094 252.25195312 C32.98800781 251.61161133 34.07855469 250.97126953 35.20214844 250.31152344 C40.6271719 247.13788471 46.07497363 244.00401154 51.52246094 240.86914062 C59.97624366 236.00085608 68.4136596 231.10589152 76.83496094 226.18164062 C87.68843876 219.83606023 98.59406952 213.58466324 109.52246094 207.36914062 C109.52246094 202.74914062 109.52246094 198.12914062 109.52246094 193.36914062 C106.8828403 193.36914062 105.69049305 194.32324834 103.42871094 195.68554688 Z " fill="#006DD1" transform="translate(157.4775390625,28.630859375)"/>
<path d="M0 0 C3.96 0 7.92 0 12 0 C11.90460937 1.53221191 11.80921875 3.06442383 11.7109375 4.64306641 C8.66474905 31.59199907 8.66474905 31.59199907 15.06445312 56.69091797 C20.34794647 61.8052208 26.70184422 63.92229039 33.66601562 65.91162109 C39.24356609 67.73241195 44.01919612 70.82813939 49 73.875 C50.74628706 74.87888243 52.49592861 75.87696934 54.25 76.8671875 C54.97703125 77.28081543 55.7040625 77.69444336 56.453125 78.12060547 C56.96359375 78.41080566 57.4740625 78.70100586 58 79 C57.27031096 83.50871015 55.67844067 86.28474359 53 90 C48.13752298 88.59047829 44.04451664 86.42995512 39.75 83.8125 C38.26257239 82.92045007 36.77422526 82.02993228 35.28515625 81.140625 C34.46031738 80.64755859 33.63547852 80.15449219 32.78564453 79.64648438 C29.62016495 77.77549452 26.43582281 75.93856621 23.24609375 74.109375 C22.66407196 73.77536179 22.08205017 73.44134857 21.48239136 73.09721375 C18.56831869 71.42566111 15.6526181 69.75704234 12.73535156 68.09106445 C11.12418457 67.16620239 11.12418457 67.16620239 9.48046875 66.22265625 C8.04030396 65.39906616 8.04030396 65.39906616 6.57104492 64.55883789 C5.7226001 64.04442139 4.87415527 63.53000488 4 63 C3.29633804 62.59347198 2.59267609 62.18694397 1.86769104 61.76809692 C0 60 0 60 -0.48101807 57.36140442 C-0.47213562 56.3021727 -0.46325317 55.24294098 -0.45410156 54.15161133 C-0.45379944 52.9505928 -0.45349731 51.74957428 -0.45318604 50.51216125 C-0.43254089 49.21521835 -0.41189575 47.91827545 -0.390625 46.58203125 C-0.38316314 45.2411127 -0.37746994 43.90018324 -0.37347412 42.55924988 C-0.35821299 39.03262134 -0.31892849 35.50665344 -0.2746582 31.98028564 C-0.23371497 28.38082822 -0.21546522 24.78126387 -0.1953125 21.18164062 C-0.15243351 14.12079792 -0.08208062 7.06051162 0 0 Z " fill="#006DD1" transform="translate(8,196)"/>
<path d="M0 0 C4.59528037 1.82144533 8.68753492 4.29687144 12.890625 6.8828125 C14.84062539 8.05945669 16.79116709 9.23520415 18.7421875 10.41015625 C20.26827637 11.33417236 20.26827637 11.33417236 21.82519531 12.27685547 C27.27397628 15.55329569 32.77046425 18.74748615 38.265625 21.9453125 C39.30702637 22.55334717 40.34842773 23.16138184 41.42138672 23.7878418 C46.16187552 26.59529033 46.16187552 26.59529033 51.015625 29.1953125 C49.56612045 32.9863244 47.86389934 36.5827763 46.015625 40.1953125 C41.4413135 38.52787341 37.3132872 36.25399892 33.078125 33.8828125 C31.92231934 33.24315552 31.92231934 33.24315552 30.74316406 32.59057617 C26.14980544 30.02700028 21.63157848 27.36775299 17.15234375 24.609375 C16.17322021 24.01165283 15.19409668 23.41393066 14.18530273 22.7980957 C12.26568921 21.62103023 10.3546766 20.42980036 8.45336914 19.22338867 C7.57156982 18.68431885 6.68977051 18.14524902 5.78125 17.58984375 C5.00555664 17.10362549 4.22986328 16.61740723 3.43066406 16.11645508 C0.19639343 14.88284174 -1.66706205 15.29173302 -4.984375 16.1953125 C-7.64527286 17.40615757 -7.64527286 17.40615757 -10.22265625 19.00390625 C-11.68904541 19.87088135 -11.68904541 19.87088135 -13.18505859 20.75537109 C-14.21195801 21.37492676 -15.23885742 21.99448242 -16.296875 22.6328125 C-17.35471191 23.26010254 -18.41254883 23.88739258 -19.50244141 24.53369141 C-22.66829175 26.41232261 -25.82699013 28.30249635 -28.984375 30.1953125 C-31.53473848 31.71827622 -34.08633302 33.2390196 -36.64135742 34.75415039 C-38.0910219 35.61437507 -39.53793434 36.47925905 -40.98168945 37.34936523 C-45.76116592 40.1953125 -45.76116592 40.1953125 -47.984375 40.1953125 C-48.82286304 38.73993682 -49.65501434 37.28090877 -50.484375 35.8203125 C-51.18046875 34.60214844 -51.18046875 34.60214844 -51.890625 33.359375 C-52.984375 31.1953125 -52.984375 31.1953125 -52.984375 29.1953125 C-52.25138184 28.77870361 -51.51838867 28.36209473 -50.76318359 27.93286133 C-47.93202464 26.32253203 -45.10190448 24.71040079 -42.27227783 23.09738159 C-40.99923581 22.37227041 -39.72575868 21.64792257 -38.45184326 20.92434692 C-31.72532664 17.10349808 -25.02781786 13.25635389 -18.4375 9.203125 C-17.44830566 8.59879639 -16.45911133 7.99446777 -15.43994141 7.37182617 C-13.58970268 6.23509593 -11.74776115 5.08471864 -9.91552734 3.91918945 C-3.93134356 0.25728688 -3.93134356 0.25728688 0 0 Z " fill="#006DD1" transform="translate(156.984375,-0.1953125)"/>
<path d="M0 0 C3.63 0 7.26 0 11 0 C11 20.13 11 40.26 11 61 C2.42 65.95 -6.16 70.9 -15 76 C-23.25339137 80.89512554 -23.25339137 80.89512554 -31.47460938 85.84375 C-32.90836914 86.69453125 -32.90836914 86.69453125 -34.37109375 87.5625 C-35.19536865 88.05878906 -36.01964355 88.55507813 -36.86889648 89.06640625 C-39 90 -39 90 -42 89 C-43.16796875 87.4765625 -43.16796875 87.4765625 -44.1875 85.625 C-44.53167969 85.01914062 -44.87585938 84.41328125 -45.23046875 83.7890625 C-46 82 -46 82 -46 79 C-45.24082275 78.56768066 -44.48164551 78.13536133 -43.69946289 77.68994141 C-40.78941909 76.03202888 -37.87999836 74.37303224 -34.97094727 72.71337891 C-33.72932019 72.00528456 -32.48746996 71.29758131 -31.24536133 70.59033203 C-30.65198975 70.25243652 -30.05861816 69.91454102 -29.44726562 69.56640625 C-28.84607407 69.22568085 -28.24488251 68.88495544 -27.62547302 68.53390503 C-26.38467954 67.82101487 -25.15153095 67.0946723 -23.92591858 66.35598755 C-20.46344203 64.28898397 -17.0977108 62.60589104 -13.32006836 61.18310547 C-8.50721929 59.20425215 -4.17747466 57.25888112 -1 53 C1.90147101 44.37034133 0.9163237 34.83149234 0.5625 25.875 C0.52541233 23.36729062 0.49603736 20.85945458 0.47460938 18.3515625 C0.40556134 12.22930307 0.23136007 6.11818857 0 0 Z " fill="#006DD1" transform="translate(292,196)"/>
</svg>
