<?xml version="1.0" encoding="utf-8"?>
<svg id="master-artboard" viewBox="0 0 400 245" version="1.1" xmlns="http://www.w3.org/2000/svg" x="0px" y="0px" style="enable-background:new 0 0 1400 980;" width="400px" height="245px"><rect id="ee-background" x="0" y="0" width="400" height="245" style="fill: white; fill-opacity: 0; pointer-events: none;"/>


<g transform="matrix(0.508256535553478, 0, 0, 0.508256535553478, 91.23311189194176, -23.242568650353043)"><path fill="#00A189" d="M296.252 185.504V89.05l-76.577 48.097v-49.55l-76.576 49.835v-82.19H55.742v241.099H372.83V137.643zm-10.781-76.951v83.689l-65.796 41.123v-83.487zm0 177.007h-65.797v-37.08h65.797zm10.781-37.079h65.797v37.08h-65.797zm-153.153-50.507l65.795-41.325V237.7h-65.795zm-10.78 39.726H79.848l52.471-32.955zm63.171 10.781l-52.391 32.744v-32.744zm13.404 4.336v32.743h-52.39zm24.187-15.117l52.39-32.743V237.7zm-24.187-130.225v36.443l-65.795 41.325v-34.951zm-76.575-41.453v125.992L66.522 233.34V66.022zM66.522 248.481h65.797v37.08H66.522zm229.73-10.781v-39.481l65.797-41.122V237.7z"/><path d="M55.747 351.605v7.58h7.502v47.14h8.366v-47.14h7.506v-7.58zm47.657 0v23.06h-8.057v-23.06h-8.365v54.72h8.365v-24.076h8.057v24.076h8.359v-54.72zm16.182 0v54.72h18.756v-7.584h-10.397v-16.492h4.64v-7.584h-4.64v-15.48h10.241v-7.58zm68.406 50.214v12.367c0 9.436-4.664 14.094-14.1 14.094h-5.095c-9.436 0-13.995-4.658-13.995-13.989V398.24h11.282v15.615c0 2.93 1.409 4.34 4.447 4.34h1.515c3.036 0 4.446-1.41 4.446-4.34v-10.408c0-3.143-1.078-4.56-3.247-6.181l-11.714-8.568c-5.206-3.693-6.729-7.264-6.729-13.127v-10.408c0-9.436 4.664-14.1 14.101-14.1h4.883c9.323 0 13.987 4.664 13.987 13.993v13.77h-11.387v-13.338c0-2.926-1.41-4.336-4.34-4.336h-1.409c-2.927 0-4.334 1.41-4.334 4.336v8.463c0 3.141 1.085 4.656 3.249 6.179l11.717 8.568c5.095 3.685 6.723 6.942 6.723 13.121m50.842-5.313v17.68c0 9.436-4.664 14.092-14.101 14.092h-5.749c-9.428 0-14.092-4.656-14.092-14.092v-49.024c0-9.435 4.664-14.101 14.092-14.101h5.644c9.436 0 13.987 4.559 13.987 13.995v15.504h-11.387v-14.855c0-3.038-1.41-4.447-4.334-4.447h-1.951c-3.038 0-4.447 1.409-4.447 4.447v47.937c0 3.038 1.409 4.448 4.447 4.448h2.164c2.93 0 4.34-1.41 4.34-4.448v-17.136zm32.832-29.066l4.666 37.96h-9.436zm-7.37-15.834l-10.846 76.026h10.733l1.409-11.93h12.044l1.515 11.93h11.499l-10.957-76.026zm41.949.11v75.916h24.405V417.11h-12.799v-65.394zm40.549 0v75.916h26.023V417.11h-14.425v-22.879h8.44v-10.522h-8.44v-21.48h14.206v-10.513zM55.747 427.632h82.596v-7.974H55.747zm-.001 15.13v75.293h11.505v-32.703H80.27v-10.435H67.251v-21.728h13.558v-10.427zm54.942 15.592l4.626 37.65h-9.359zm-7.31-15.703l-10.756 75.404h10.645l1.398-11.833h11.942l1.504 11.833h11.405l-10.867-75.404zm74.53 44.533v17.535c0 9.359-4.625 13.98-13.985 13.98h-5.696c-9.357 0-13.985-4.621-13.985-13.98v-48.622c0-9.358 4.628-13.984 13.985-13.984h5.591c9.36 0 13.875 4.521 13.875 13.879v15.376h-11.295v-14.732c0-3.013-1.399-4.411-4.3-4.411h-1.935c-3.011 0-4.41 1.398-4.41 4.411v47.546c0 3.012 1.399 4.409 4.41 4.409h2.146c2.906 0 4.306-1.397 4.306-4.409v-16.998zm15.06-43.922v10.427h10.324v64.866h11.509v-64.866h10.332v-10.427zm65.506 8.964h-2.363c-3.012 0-4.408 1.398-4.408 4.41v47.545c0 3.012 1.396 4.41 4.408 4.41h2.363c2.907 0 4.305-1.398 4.305-4.41v-47.545c0-3.012-1.398-4.41-4.305-4.41m1.832 66.472h-6.137c-9.351 0-13.979-4.621-13.979-13.978v-48.622c0-9.36 4.628-13.986 13.979-13.986h6.137c9.357 0 13.984 4.626 13.984 13.986v48.622c0 9.357-4.627 13.978-13.984 13.978m47.898-65.718h-5.597v24.847h5.164c3.231 0 4.732-1.511 4.732-4.627v-15.922c0-2.9-1.397-4.298-4.299-4.298m15.916 39.474v25.602h-11.505V492.67c0-3.333-1.509-4.842-4.844-4.842h-5.164v30.228h-11.504v-75.293h18.926c9.36 0 13.986 4.619 13.986 13.978v14.202c0 6.666-2.37 9.896-6.563 11.615 4.733 1.293 6.668 4.193 6.668 9.896m37.617-49.692l-6.776 31.731-6.557-31.731h-11.832l12.364 49.474v25.819h11.511v-26.356l12.369-48.937z"/></g></svg>