<?xml version="1.0" encoding="UTF-8" standalone="no"?>
<!-- Created with Inkscape (http://www.inkscape.org/) -->

<svg
   version="1.1"
   id="svg1"
   width="546.85333"
   height="138.44"
   viewBox="0 0 546.85333 138.44"
   sodipodi:docname="UA-StackedNameplate-PMS_201.eps"
   xmlns:inkscape="http://www.inkscape.org/namespaces/inkscape"
   xmlns:sodipodi="http://sodipodi.sourceforge.net/DTD/sodipodi-0.dtd"
   xmlns="http://www.w3.org/2000/svg"
   xmlns:svg="http://www.w3.org/2000/svg">
  <defs
     id="defs1" />
  <sodipodi:namedview
     id="namedview1"
     pagecolor="#ffffff"
     bordercolor="#000000"
     borderopacity="0.25"
     inkscape:showpageshadow="2"
     inkscape:pageopacity="0.0"
     inkscape:pagecheckerboard="0"
     inkscape:deskcolor="#d1d1d1">
    <inkscape:page
       x="0"
       y="0"
       inkscape:label="1"
       id="page1"
       width="546.85333"
       height="138.44"
       margin="0"
       bleed="0" />
  </sodipodi:namedview>
  <g
     id="g1"
     inkscape:groupmode="layer"
     inkscape:label="1">
    <g
       id="group-R5">
      <path
         id="path2"
         d="m 333.863,519.016 c -1.922,6.679 -7.679,22.902 -16.312,22.902 -8.629,0 -14.383,-18.133 -16.305,-22.902 L 217.773,314.84 H 401.016 Z M 521.898,9.53125 417.332,276.684 H 201.469 C 160.211,193.676 117.043,100.176 117.043,45.7891 c 0,-12.3985 0.961,-23.8477 2.875,-36.25785 H 0 L 21.1094,36.25 C 75.793,104.938 273.422,514.242 273.422,592.484 l 0.953,25.758 H 387.586 C 448.984,428.375 510.383,221.34 606.324,44.8359 L 625.504,9.53125 H 521.898"
         style="fill:#a31934;fill-opacity:1;fill-rule:nonzero;stroke:none"
         transform="matrix(0.13333333,0,0,-0.13333333,0,138.44)" />
      <path
         id="path3"
         d="m 699.035,493.258 c 0,42.933 0,92.547 -21.101,124.984 h 128.55 C 785.383,585.805 785.383,536.191 785.383,493.258 V 47.6914 h 72.906 c 53.723,0 102.656,7.6445 150.621,54.3866 L 990.684,12.3984 C 971.5,10.5 951.348,9.53906 932.168,9.53906 H 666.41 C 695.203,46.7461 699.035,181.27 699.035,226.113 v 267.145"
         style="fill:#a31934;fill-opacity:1;fill-rule:nonzero;stroke:none"
         transform="matrix(0.13333333,0,0,-0.13333333,0,138.44)" />
      <path
         id="path4"
         d="m 1343.25,519.016 c -1.92,6.679 -7.67,22.902 -16.31,22.902 -8.63,0 -14.39,-18.133 -16.31,-22.902 L 1227.17,314.848 H 1410.4 Z M 1531.29,9.53906 1426.72,276.684 h -215.86 c -41.25,-83.008 -84.42,-176.508 -84.42,-230.8949 0,-12.3985 0.95,-23.8477 2.87,-36.25004 H 1009.4 L 1030.5,36.25 c 54.68,68.688 252.31,477.992 252.31,556.234 l 0.96,25.758 h 113.2 c 61.4,-189.863 122.8,-396.898 218.74,-573.4061 L 1634.9,9.53906 h -103.61"
         style="fill:#a31934;fill-opacity:1;fill-rule:nonzero;stroke:none"
         transform="matrix(0.13333333,0,0,-0.13333333,0,138.44)" />
      <path
         id="path5"
         d="m 1779.28,178.41 c 0,-110.6873 0,-134.5389 64.28,-134.5389 97.86,0 158.3,38.1758 158.3,140.2699 0,130.707 -95.94,145.015 -206.27,145.015 h -16.31 z m 0,185.094 h 25.91 c 84.43,0 170.77,26.715 170.77,127.851 0,85.864 -58.52,98.262 -137.19,98.262 -18.23,0 -38.38,-1.902 -59.49,-3.812 z m -86.34,129.754 c 0,42.933 0,92.547 -21.1,124.984 84.42,0 170.76,9.543 255.19,9.543 74.83,0 142.95,-32.437 142.95,-115.445 0,-83.008 -66.2,-123.074 -134.31,-151.695 v -1.911 c 89.21,-20.035 165.96,-55.339 165.96,-158.382 0,-150.7465 -115.12,-194.64106 -245.59,-194.64106 -65.24,0 -129.51,3.82812 -194.75,3.82812 31.65,67.74614 31.65,166.01194 31.65,239.47294 v 244.246"
         style="fill:#a31934;fill-opacity:1;fill-rule:nonzero;stroke:none"
         transform="matrix(0.13333333,0,0,-0.13333333,0,138.44)" />
      <path
         id="path6"
         d="m 2425.65,519.016 c -1.94,6.679 -7.69,22.902 -16.32,22.902 -8.63,0 -14.4,-18.133 -16.32,-22.902 L 2309.56,314.848 H 2492.8 Z M 2613.68,9.53906 2509.1,276.684 h -215.86 c -41.25,-83.008 -84.42,-176.508 -84.42,-230.8949 0,-12.3985 0.96,-23.8477 2.87,-36.25004 H 2091.77 L 2112.88,36.25 c 54.68,68.688 252.31,477.992 252.31,556.234 l 0.96,25.758 h 113.21 c 61.39,-189.863 122.79,-396.898 218.73,-573.4061 l 19.2,-35.29684 h -103.61"
         style="fill:#a31934;fill-opacity:1;fill-rule:nonzero;stroke:none"
         transform="matrix(0.13333333,0,0,-0.13333333,0,138.44)" />
      <path
         id="path7"
         d="m 3388.49,618.242 c -22.06,-36.254 -19.18,-87.773 -19.18,-135.476 0,-114.496 -4.8,-233.75 7.67,-348.25 4.8,-42.9379 8.64,-86.8246 29.75,-124.97694 h -141.04 c 17.28,47.70704 17.28,118.30094 17.28,171.74594 v 316.746 c 0,9.535 0,20.985 -6.72,20.985 -6.71,0 -9.59,-6.676 -12.47,-14.309 L 3048.88,0 2866.6,468.449 c -10.54,27.668 -17.26,50.567 -25.9,50.567 -8.64,0 -8.64,-17.164 -8.64,-31.481 l -0.96,-310.086 c 0,-74.406 0,-136.4177 21.11,-167.90994 h -114.17 l 8.64,12.40234 c 35.5,50.5781 39.34,201.3126 39.34,304.3516 v 238.52 c 0,25.757 -0.96,39.117 -23.98,53.429 h 118.95 c 11.51,0 25.92,-1.91 29.73,-14.312 l 142,-415.981 c 4.8,-14.304 7.66,-30.531 15.35,-30.531 8.62,0 11.52,9.539 17.26,22.895 l 165.97,397.863 c 8.65,20.031 15.36,40.066 39.34,40.066 h 97.85"
         style="fill:#a31934;fill-opacity:1;fill-rule:nonzero;stroke:none"
         transform="matrix(0.13333333,0,0,-0.13333333,0,138.44)" />
      <path
         id="path8"
         d="m 3764.54,519.023 c -1.92,6.676 -7.68,22.895 -16.3,22.895 -8.63,0 -14.4,-18.129 -16.32,-22.895 l -83.46,-204.175 h 183.25 z M 3952.58,9.53906 3848,276.684 h -215.86 c -41.25,-83.008 -84.4,-176.508 -84.4,-230.8949 0,-12.3985 0.94,-23.8477 2.86,-36.25004 h -119.92 l 21.1,26.71094 c 54.68,68.695 252.31,477.992 252.31,556.234 l 0.97,25.758 h 113.21 C 3879.66,428.379 3941.07,221.344 4037,44.8359 l 19.18,-35.29684 h -103.6"
         style="fill:#a31934;fill-opacity:1;fill-rule:nonzero;stroke:none"
         transform="matrix(0.13333333,0,0,-0.13333333,0,138.44)" />
      <path
         id="path9"
         d="m 4050.91,572.391 c 3.23,0 5.87,0.433 7.91,1.316 2.08,0.898 3.1,3.02 3.1,6.418 0,1.508 -0.36,2.715 -1.06,3.602 -0.72,0.882 -1.65,1.566 -2.76,2.062 -1.12,0.484 -2.38,0.82 -3.78,0.996 -1.37,0.184 -2.69,0.274 -3.94,0.274 h -9.39 v -14.668 z m 0.14,23.336 c 7.05,0 12.51,-1.243 16.31,-3.739 3.78,-2.48 5.68,-6.754 5.68,-12.808 0,-2.571 -0.38,-4.778 -1.14,-6.602 -0.76,-1.816 -1.81,-3.308 -3.13,-4.476 -1.35,-1.153 -2.92,-2.036 -4.7,-2.661 -1.81,-0.613 -3.72,-1.019 -5.76,-1.199 l 15.02,-24.418 h -11.68 l -13.69,23.887 h -6.97 v -23.887 h -11.13 v 55.903 z m -36.09,-43.758 c 1.96,-4.797 4.65,-8.961 8.05,-12.489 3.39,-3.5 7.41,-6.242 12,-8.191 4.62,-1.961 9.56,-2.953 14.83,-2.953 5.19,0 10.1,0.992 14.69,2.953 4.6,1.949 8.62,4.691 12,8.191 3.41,3.528 6.12,7.692 8.13,12.489 2.01,4.804 3.03,10.054 3.03,15.742 0,5.695 -1.02,10.914 -3.03,15.68 -2.01,4.757 -4.72,8.871 -8.13,12.336 -3.38,3.472 -7.4,6.187 -12,8.136 -4.59,1.961 -9.5,2.946 -14.69,2.946 -5.27,0 -10.21,-0.985 -14.83,-2.946 -4.59,-1.949 -8.61,-4.664 -12,-8.136 -3.4,-3.465 -6.09,-7.579 -8.05,-12.336 -1.95,-4.766 -2.96,-9.985 -2.96,-15.68 0,-5.688 1.01,-10.938 2.96,-15.742 z m -12.41,36.293 c 2.84,6.125 6.59,11.363 11.33,15.687 4.75,4.305 10.22,7.641 16.43,10 6.22,2.352 12.73,3.539 19.53,3.539 6.79,0 13.32,-1.187 19.53,-3.539 6.21,-2.359 11.71,-5.695 16.42,-10 4.76,-4.324 8.53,-9.562 11.36,-15.687 2.81,-6.133 4.22,-12.989 4.22,-20.551 0,-7.648 -1.41,-14.539 -4.22,-20.688 -2.83,-6.132 -6.6,-11.386 -11.36,-15.734 -4.71,-4.375 -10.21,-7.703 -16.42,-10.023 -6.21,-2.305 -12.74,-3.461 -19.53,-3.461 -6.8,0 -13.31,1.156 -19.53,3.461 -6.21,2.32 -11.68,5.648 -16.43,10.023 -4.74,4.348 -8.49,9.602 -11.33,15.734 -2.81,6.149 -4.24,13.04 -4.24,20.688 0,7.562 1.43,14.418 4.24,20.551"
         style="fill:#a31934;fill-opacity:1;fill-rule:nonzero;stroke:none"
         transform="matrix(0.13333333,0,0,-0.13333333,0,138.44)" />
      <path
         id="path10"
         d="m 192.914,816.453 v 196.297 h -70.18 v 21.81 h 171.067 v -21.81 h -70.5 V 816.453 h -30.387"
         style="fill:#a31934;fill-opacity:1;fill-rule:nonzero;stroke:none"
         transform="matrix(0.13333333,0,0,-0.13333333,0,138.44)" />
      <path
         id="path11"
         d="m 556.047,816.453 h -30.383 v 108.43 H 418.508 v -108.43 h -30.395 v 218.107 h 30.395 v -87.869 h 107.156 v 87.869 h 30.383 V 816.453"
         style="fill:#a31934;fill-opacity:1;fill-rule:nonzero;stroke:none"
         transform="matrix(0.13333333,0,0,-0.13333333,0,138.44)" />
      <path
         id="path12"
         d="m 783.207,1012.75 h -77.703 v -70.418 h 76.137 V 920.523 H 705.504 V 838.266 H 796.68 V 816.453 H 675.121 v 218.107 h 108.086 v -21.81"
         style="fill:#a31934;fill-opacity:1;fill-rule:nonzero;stroke:none"
         transform="matrix(0.13333333,0,0,-0.13333333,0,138.44)" />
      <path
         id="path13"
         d="M 1080.86,1034.56 V 902.449 c 0,-45.179 16.92,-68.859 56.09,-68.859 41.04,0 54.82,32.406 54.82,63.562 v 137.408 h 28.51 V 896.527 c 0,-48.918 -30.38,-83.812 -83.33,-83.812 -61.72,0 -86.48,32.402 -86.48,88.488 v 133.357 h 30.39"
         style="fill:#a31934;fill-opacity:1;fill-rule:nonzero;stroke:none"
         transform="matrix(0.13333333,0,0,-0.13333333,0,138.44)" />
      <path
         id="path14"
         d="m 1528.27,816.453 h -23.8 c -47.63,56.711 -129.4,154.543 -142.56,173.551 h -0.63 V 816.453 h -25.06 v 218.107 h 22.55 c 48.25,-56.705 129.09,-152.052 143.82,-173.861 h 0.62 v 173.861 h 25.06 V 816.453"
         style="fill:#a31934;fill-opacity:1;fill-rule:nonzero;stroke:none"
         transform="matrix(0.13333333,0,0,-0.13333333,0,138.44)" />
      <path
         id="path15"
         d="m 1647.35,816.453 v 218.107 h 30.38 V 816.453 h -30.38"
         style="fill:#a31934;fill-opacity:1;fill-rule:nonzero;stroke:none"
         transform="matrix(0.13333333,0,0,-0.13333333,0,138.44)" />
      <path
         id="path16"
         d="m 1850.06,816.453 -81.14,215.617 31.01,5.61 c 21.31,-59.516 42.3,-119.34 63.29,-186.332 h 0.63 c 21.93,66.992 44.49,126.816 66.74,186.332 l 27.25,-3.75 -87.41,-217.477 h -20.37"
         style="fill:#a31934;fill-opacity:1;fill-rule:nonzero;stroke:none"
         transform="matrix(0.13333333,0,0,-0.13333333,0,138.44)" />
      <path
         id="path17"
         d="m 2157.11,1012.75 h -77.7 v -70.418 h 76.13 v -21.809 h -76.13 v -82.257 h 91.17 v -21.813 h -121.56 v 218.107 h 108.09 v -21.81"
         style="fill:#a31934;fill-opacity:1;fill-rule:nonzero;stroke:none"
         transform="matrix(0.13333333,0,0,-0.13333333,0,138.44)" />
      <path
         id="path18"
         d="m 2301.55,928.621 h 17.23 c 38.85,0 46.05,28.668 46.05,47.051 0,26.788 -16.91,37.078 -37.28,37.078 h -26 z m -30.39,105.939 h 62.65 c 35.73,0 63.61,-18.38 63.61,-56.083 0,-32.094 -15.67,-50.164 -36.66,-63.563 l 54.52,-92.855 -30.7,-9.344 -50.77,94.094 h -32.26 v -90.356 h -30.39 v 218.107"
         style="fill:#a31934;fill-opacity:1;fill-rule:nonzero;stroke:none"
         transform="matrix(0.13333333,0,0,-0.13333333,0,138.44)" />
      <path
         id="path19"
         d="m 2614.56,1000.91 c -10.66,7.79 -24.76,15.58 -37.91,15.58 -21.94,0 -34.15,-12.78 -34.15,-29.599 0,-15.582 13.47,-27.11 41.67,-47.364 30.07,-21.812 47.62,-41.754 47.62,-69.793 0,-34.586 -32.9,-57.019 -67.99,-57.019 -21,0 -46.06,7.476 -61.72,22.742 l 13.47,18.074 c 12.85,-9.039 26.95,-19.011 47.62,-19.011 21.62,0 38.22,11.535 38.22,35.835 0,27.418 -32.89,45.184 -50.75,58.266 -18.17,14.02 -38.54,27.422 -38.54,58.27 0,29.289 28.51,51.409 62.66,51.409 22.88,0 41.99,-8.1 54.2,-21.81 l -14.4,-15.58"
         style="fill:#a31934;fill-opacity:1;fill-rule:nonzero;stroke:none"
         transform="matrix(0.13333333,0,0,-0.13333333,0,138.44)" />
      <path
         id="path20"
         d="m 2741.13,816.453 v 218.107 h 30.4 V 816.453 h -30.4"
         style="fill:#a31934;fill-opacity:1;fill-rule:nonzero;stroke:none"
         transform="matrix(0.13333333,0,0,-0.13333333,0,138.44)" />
      <path
         id="path21"
         d="m 2936.02,816.453 v 196.297 h -70.18 v 21.81 h 171.07 v -21.81 h -70.49 V 816.453 h -30.4"
         style="fill:#a31934;fill-opacity:1;fill-rule:nonzero;stroke:none"
         transform="matrix(0.13333333,0,0,-0.13333333,0,138.44)" />
      <path
         id="path22"
         d="m 3170.08,816.453 v 94.41 l -66.11,120.577 32.9,6.24 52.94,-103.453 57.65,103.453 26.95,-3.75 -73.94,-123.067 v -94.41 h -30.39"
         style="fill:#a31934;fill-opacity:1;fill-rule:nonzero;stroke:none"
         transform="matrix(0.13333333,0,0,-0.13333333,0,138.44)" />
      <path
         id="path23"
         d="m 3697.08,929.242 c 0,40.821 -21.93,87.248 -76.13,87.248 -54.21,0 -76.14,-46.427 -76.14,-87.248 0,-42.683 19.43,-94.722 76.14,-94.722 56.7,0 76.13,52.039 76.13,94.722 z m -185.79,0 c 0,61.078 46.36,109.058 109.66,109.058 63.28,0 109.66,-47.98 109.66,-109.058 0,-65.117 -41.99,-116.527 -109.66,-116.527 -67.68,0 -109.66,51.41 -109.66,116.527"
         style="fill:#a31934;fill-opacity:1;fill-rule:nonzero;stroke:none"
         transform="matrix(0.13333333,0,0,-0.13333333,0,138.44)" />
      <path
         id="path24"
         d="m 3946.48,1012.75 h -77.7 v -82.883 h 76.14 v -21.808 h -76.14 v -91.606 h -30.38 v 218.107 h 108.08 v -21.81"
         style="fill:#a31934;fill-opacity:1;fill-rule:nonzero;stroke:none"
         transform="matrix(0.13333333,0,0,-0.13333333,0,138.44)" />
    </g>
  </g>
</svg>
