<?xml version="1.0" encoding="UTF-8"?>
<svg id="Capa_2" data-name="Capa 2" xmlns="http://www.w3.org/2000/svg" xmlns:xlink="http://www.w3.org/1999/xlink" viewBox="0 0 250 71.15">
  <defs>
    <style>
      .cls-1 {
        fill: url(#linear-gradient-2);
      }

      .cls-2 {
        fill: #5ca2bb;
      }

      .cls-3 {
        fill: url(#linear-gradient-4);
      }

      .cls-4 {
        fill: url(#linear-gradient-3);
      }

      .cls-5 {
        fill: #335964;
      }

      .cls-6 {
        fill: url(#linear-gradient);
      }
    </style>
    <linearGradient id="linear-gradient" x1="2.11" y1="37.78" x2="42.6" y2="85.92" gradientUnits="userSpaceOnUse">
      <stop offset="0" stop-color="#63adbb"/>
      <stop offset="1" stop-color="#4d8798"/>
    </linearGradient>
    <linearGradient id="linear-gradient-2" x1="98.32" y1="31.26" x2="67.19" y2="64.83" gradientUnits="userSpaceOnUse">
      <stop offset="0" stop-color="#335964"/>
      <stop offset="1" stop-color="#27464f"/>
    </linearGradient>
    <linearGradient id="linear-gradient-3" x1="65.48" y1="14.47" x2="67.15" y2="-27.88" gradientUnits="userSpaceOnUse">
      <stop offset="0" stop-color="#437786"/>
      <stop offset="1" stop-color="#518e9d"/>
    </linearGradient>
    <linearGradient id="linear-gradient-4" x1="23.25" y1="20.01" x2="63.73" y2="68.15" xlink:href="#linear-gradient"/>
  </defs>
  <g id="Capa_2-2" data-name="Capa 2">
    <g>
      <path class="cls-6" d="M1.19,30.95c-2.55,11.49-1.68,24.95,9.58,32.99V30.95H1.19Z"/>
      <path class="cls-1" d="M108.79,40.24c-2.41-10.19-12.45-18.79-23.05-18.91-.86,0-1.72.04-2.58.14-17.15,2.1-22.46,14.66-25.89,25.82v22.47c11.37-.12,24.67-1.72,32.4-1.72,14.23,0,22.2-14.85,19.13-27.8Z"/>
      <path class="cls-4" d="M82.24,45.82c2.04-7.25,4.86-15.94,3.49-24.49-.93-5.77-3.77-11.47-10.06-16.61-8.98-7.34-23.6-5.75-31.7,2.18-8.91,8.73-9.85,26.34-.04,34.77v-22.56c7.36,0,13.32,5.96,13.32,13.32v18.42c12.48,8.64,27.94,18.9,34.35,15.19,0,0-15.03-3.7-9.37-20.22Z"/>
      <path class="cls-3" d="M101.2,64.06s-21.2,6.65-26.74-16.72c-4.95-16.64-10.3-39.61-37.83-42.98-11.73-1.43-23.46,5.1-30.21,14.75h30.52v11.84h-12.96v38.57c4.35.98,9.41,1.52,15.29,1.52,1.51,0,3.08,0,4.68.02V19.11h0c7.36,0,13.32,5.96,13.32,13.32v38.72c18.32.04,37.75-.71,43.94-7.09Z"/>
      <g>
        <path class="cls-5" d="M152.51,18.85v2.04l-19.81,50.23h-14.74l15.98-40.02h-21.57v-12.25h40.14Z"/>
        <g>
          <path class="cls-2" d="M191.96,59.07v12.05h-37.79v-3.09c20.44-24.11,23.26-28.01,23.26-32.37,0-2.76-1.82-4.6-4.42-4.6-2.85,0-4.59,1.92-4.59,4.98v.98h-13.43v-.94c0-10.27,6.73-17.06,17.86-17.06s18.22,6.63,18.22,16.16c0,6.39-2.37,11.3-13.23,23.89h14.13Z"/>
          <path class="cls-2" d="M242.46,61.73h-4.72v9.39h-13.43v-9.39h-25.09v-2.56l16.74-40.32h13.88l-12.95,31.16h8.36l3.07-11.51h9.42v11.51h4.72v11.71Z"/>
          <path class="cls-2" d="M246.32,26.13c-.51,0-.99-.1-1.43-.29s-.83-.46-1.17-.79-.6-.73-.79-1.17-.29-.92-.29-1.43.1-.98.29-1.42.46-.84.79-1.18c.34-.34.73-.6,1.17-.79.44-.19.92-.29,1.43-.29s.98.1,1.42.29c.45.19.84.46,1.18.79.34.34.6.73.79,1.18s.29.92.29,1.42-.1.99-.29,1.43-.46.83-.79,1.17-.73.6-1.18.79-.92.29-1.42.29ZM246.32,25.37c.4,0,.78-.08,1.14-.23.35-.15.66-.37.93-.63s.47-.58.62-.93.22-.73.22-1.12-.07-.78-.22-1.14-.36-.66-.62-.93-.58-.47-.93-.62-.73-.22-1.14-.22-.77.07-1.12.22-.66.36-.93.62-.48.58-.63.93c-.16.35-.23.73-.23,1.14s.08.77.23,1.12c.15.35.37.66.63.93s.58.48.93.63c.35.16.73.23,1.12.23ZM245.09,24.26v-3.62h1.54c.31,0,.58.11.82.33.23.22.35.49.35.82,0,.25-.08.47-.23.66-.16.2-.34.33-.57.39l-.03.03.96,1.35v.03h-.83l-.88-1.34h-.38v1.34h-.74ZM246.56,22.24c.13,0,.24-.04.34-.12s.15-.19.15-.33c0-.11-.04-.21-.13-.3-.09-.1-.2-.14-.35-.14h-.75v.9h.74Z"/>
        </g>
      </g>
    </g>
  </g>
</svg>