<?xml version="1.0" encoding="UTF-8"?><svg viewBox="0 0 160 36" width="160px" height="36px" xmlns="http://www.w3.org/2000/svg" version="1.2" baseProfile="tiny"><g fill="#005595"><rect width="1" height="8" x="2"/><rect x="3" width="1" height="1"/><rect x="4" width="1" height="1"/><rect x="3" y="1" width="1" height="6"/><rect x="4" y="1" width="1" height="5"/><rect height="1" x="5" y="1" width="1"/><rect x="6" y="1" width="1" height="1"/><rect x="5" y="2" width="1" height="3"/><rect x="6" y="2" width="1" height="2"/><rect x="7" y="2" width="1" height="1"/><rect width="1" height="1" x="8" y="2"/><rect y="3" width="1" height="1" x="7"/><rect x="8" y="3" width="1" height="1"/><rect x="9" y="3" width="1" height="1"/><rect width="1" height="1" x="10" y="3"/><rect x="11" y="3" width="1" height="1"/><rect height="1" x="12" y="3" width="1"/><rect x="13" y="3" width="1" height="1"/><rect height="1" x="14" y="3" width="1"/><rect y="3" width="1" height="1" x="15"/><rect x="16" y="3" width="1" height="1"/><rect x="17" y="3" width="1" height="1"/><rect x="37" y="3" width="1" height="1"/><rect x="38" y="3" width="19" height="1"/><rect height="1" x="57" y="3" width="1"/><rect x="58" y="3" width="1" height="1"/><rect height="1" x="70" y="3" width="1"/><rect y="3" width="5" height="1" x="71"/><rect x="76" y="3" width="1" height="1"/><rect height="1" x="77" y="3" width="1"/><rect x="109" y="3" width="1" height="1"/><rect x="110" y="3" width="5" height="1"/><rect x="115" y="3" width="1" height="1"/><rect x="129" y="3" width="5" height="1"/><rect y="3" width="1" height="1" x="134"/><rect x="135" y="3" width="1" height="1"/><rect width="1" height="1" x="6" y="4"/><rect y="4" width="1" height="1" x="7"/><rect y="4" width="1" height="1" x="8"/><rect x="9" y="4" width="1" height="1"/><rect height="1" x="10" y="4" width="1"/><rect x="11" y="4" width="1" height="1"/><rect width="1" height="1" x="12" y="4"/><rect y="4" width="4" height="1" x="13"/><rect x="17" y="4" width="1" height="2"/><rect x="18" y="4" width="1" height="1"/><rect x="19" y="4" width="1" height="1"/><rect x="20" y="4" width="1" height="1"/><rect x="37" y="4" width="1" height="4"/><rect x="38" y="4" width="19" height="4"/><rect x="57" y="4" width="1" height="4"/><rect x="58" y="4" width="1" height="4"/><rect y="4" width="1" height="4" x="70"/><rect x="71" y="4" width="5" height="4"/><rect x="76" y="4" width="1" height="4"/><rect x="77" y="4" width="1" height="4"/><rect x="109" y="4" width="1" height="27"/><rect x="110" y="4" width="5" height="24"/><rect x="115" y="4" width="1" height="25"/><rect x="129" y="4" width="5" height="27"/><rect x="134" y="4" width="1" height="27"/><rect x="135" y="4" width="1" height="27"/><rect x="5" y="5" width="1" height="1"/><rect x="6" y="5" width="1" height="1"/><rect x="7" y="5" width="1" height="1"/><rect x="8" y="5" width="1" height="1"/><rect y="5" width="1" height="1" x="11"/><rect x="12" y="5" width="1" height="1"/><rect y="5" width="1" height="1" x="13"/><rect x="14" y="5" width="1" height="1"/><rect x="15" y="5" width="5" height="1"/><rect x="20" y="5" width="1" height="2"/><rect x="21" y="5" width="1" height="1"/><rect x="22" y="5" width="1" height="1"/><rect height="1" x="4" y="6" width="1"/><rect y="6" width="1" height="1" x="5"/><rect width="1" height="1" x="6" y="6"/><rect x="11" y="6" width="1" height="1"/><rect x="12" y="6" width="1" height="1"/><rect height="1" x="13" y="6" width="1"/><rect y="6" width="1" height="1" x="14"/><rect x="15" y="6" width="1" height="1"/><rect x="16" y="6" width="1" height="1"/><rect height="1" x="17" y="6" width="5"/><rect x="22" y="6" width="1" height="3"/><rect x="23" y="6" width="1" height="1"/><rect height="1" x="24" y="6" width="1"/><rect x="3" y="7" width="1" height="1"/><rect x="4" y="7" width="1" height="1"/><rect height="1" x="5" y="7" width="1"/><rect height="1" x="7" y="7" width="1"/><rect y="7" width="1" height="1" x="8"/><rect x="9" y="7" width="1" height="1"/><rect width="1" height="1" x="10" y="7"/><rect x="11" y="7" width="1" height="1"/><rect x="14" y="7" width="1" height="1"/><rect x="15" y="7" width="1" height="1"/><rect x="16" y="7" width="1" height="1"/><rect x="17" y="7" width="1" height="1"/><rect width="1" height="1" x="18" y="7"/><rect x="19" y="7" width="1" height="1"/><rect x="20" y="7" width="3" height="1"/><rect x="23" y="7" width="1" height="2"/><rect x="24" y="7" width="1" height="1"/><rect x="25" y="7" width="1" height="1"/><rect width="1" height="1" x="2" y="8"/><rect height="1" x="3" y="8" width="1"/><rect height="1" x="4" y="8" width="1"/><rect x="7" y="8" width="1" height="1"/><rect y="8" width="1" height="6" x="8"/><rect height="5" x="9" y="8" width="1"/><rect height="1" x="10" y="8" width="1"/><rect x="11" y="8" width="1" height="1"/><rect width="1" height="1" x="12" y="8"/><rect width="1" height="1" x="13" y="8"/><rect width="1" height="1" x="15" y="8"/><rect width="1" height="1" x="16" y="8"/><rect x="17" y="8" width="1" height="1"/><rect x="18" y="8" width="1" height="1"/><rect x="19" y="8" width="1" height="1"/><rect height="1" x="20" y="8" width="1"/><rect x="21" y="8" width="1" height="1"/><rect x="24" y="8" width="1" height="2"/><rect x="25" y="8" width="1" height="1"/><rect height="1" x="26" y="8" width="1"/><rect x="37" y="8" width="1" height="1"/><rect height="1" x="38" y="8" width="19"/><rect x="57" y="8" width="1" height="1"/><rect x="58" y="8" width="1" height="1"/><rect y="8" width="1" height="1" x="70"/><rect x="71" y="8" width="5" height="1"/><rect y="8" width="1" height="1" x="76"/><rect x="77" y="8" width="1" height="1"/><rect x="2" y="9" width="1" height="1"/><rect width="1" height="1" x="3" y="9"/><rect x="6" y="9" width="1" height="1"/><rect x="7" y="9" width="2" height="5"/><rect x="10" y="9" width="1" height="1"/><rect height="1" x="12" y="9" width="1"/><rect height="1" x="13" y="9" width="1"/><rect height="1" x="14" y="9" width="1"/><rect x="15" y="9" width="1" height="1"/><rect x="17" y="9" width="1" height="1"/><rect x="18" y="9" width="1" height="1"/><rect x="19" y="9" width="1" height="1"/><rect x="20" y="9" width="1" height="1"/><rect x="21" y="9" width="1" height="1"/><rect height="1" x="22" y="9" width="3"/><rect width="1" height="1" x="25" y="9"/><rect y="9" width="1" height="1" x="26"/><rect x="37" y="9" width="1" height="1"/><rect height="1" x="38" y="9" width="5"/><rect x="43" y="9" width="1" height="1"/><rect x="44" y="9" width="1" height="1"/><rect x="45" y="9" width="5" height="22"/><rect x="50" y="9" width="1" height="22"/><rect x="51" y="9" width="1" height="1"/><rect y="9" width="5" height="1" x="52"/><rect x="57" y="9" width="1" height="1"/><rect x="58" y="9" width="1" height="1"/><rect x="70" y="9" width="1" height="1"/><rect y="9" width="5" height="1" x="71"/><rect y="9" width="1" height="1" x="76"/><rect x="77" y="9" width="1" height="1"/><rect x="1" y="10" width="1" height="1"/><rect x="2" y="10" width="1" height="1"/><rect x="4" y="10" width="1" height="1"/><rect width="1" height="1" x="6" y="10"/><rect height="1" x="10" y="10" width="1"/><rect width="1" height="1" x="12" y="10"/><rect height="1" x="13" y="10" width="1"/><rect x="14" y="10" width="1" height="1"/><rect x="15" y="10" width="1" height="1"/><rect x="16" y="10" width="1" height="1"/><rect x="22" y="10" width="1" height="1"/><rect x="23" y="10" width="1" height="1"/><rect x="24" y="10" width="2" height="1"/><rect height="1" x="26" y="10" width="1"/><rect x="27" y="10" width="1" height="1"/><rect x="44" y="10" width="1" height="21"/><rect x="51" y="10" width="1" height="21"/><rect y="11" width="1" height="1" x="1"/><rect width="1" height="1" x="2" y="11"/><rect x="3" y="11" width="1" height="1"/><rect x="4" y="11" width="1" height="1"/><rect x="5" y="11" width="1" height="1"/><rect x="6" y="11" width="1" height="1"/><rect x="10" y="11" width="1" height="1"/><rect x="12" y="11" width="1" height="1"/><rect width="1" height="1" x="13" y="11"/><rect width="1" height="1" x="14" y="11"/><rect y="11" width="1" height="1" x="15"/><rect x="20" y="11" width="1" height="1"/><rect x="21" y="11" width="1" height="1"/><rect x="22" y="11" width="1" height="1"/><rect x="23" y="11" width="1" height="1"/><rect x="24" y="11" width="1" height="1"/><rect y="11" width="1" height="1" x="25"/><rect x="26" y="11" width="1" height="1"/><rect x="27" y="11" width="1" height="1"/><rect x="28" y="11" width="1" height="1"/><rect height="1" x="65" y="11" width="1"/><rect x="66" y="11" width="1" height="1"/><rect x="67" y="11" width="1" height="1"/><rect x="68" y="11" width="1" height="1"/><rect height="1" x="89" y="11" width="1"/><rect x="90" y="11" width="1" height="1"/><rect x="91" y="11" width="1" height="1"/><rect y="11" width="1" height="1" x="92"/><rect x="93" y="11" width="1" height="1"/><rect y="11" width="1" height="1" x="94"/><rect x="100" y="11" width="1" height="1"/><rect height="1" x="101" y="11" width="1"/><rect x="102" y="11" width="1" height="1"/><rect height="1" x="103" y="11" width="1"/><rect x="104" y="11" width="1" height="1"/><rect x="118" y="11" width="1" height="1"/><rect x="119" y="11" width="1" height="1"/><rect height="1" x="120" y="11" width="1"/><rect height="1" x="121" y="11" width="1"/><rect x="122" y="11" width="1" height="1"/><rect x="142" y="11" width="1" height="1"/><rect x="143" y="11" width="1" height="1"/><rect x="144" y="11" width="1" height="1"/><rect height="1" x="145" y="11" width="1"/><rect x="146" y="11" width="1" height="3"/><rect width="1" height="1" x="147" y="11"/><rect x="148" y="11" width="1" height="1"/><rect x="149" y="11" width="1" height="1"/><rect y="11" width="1" height="1" x="150"/><rect height="1" y="12" width="1"/><rect x="1" y="12" width="1" height="1"/><rect y="12" width="1" height="1" x="2"/><rect height="1" x="3" y="12" width="1"/><rect x="4" y="12" width="1" height="1"/><rect height="1" x="5" y="12" width="1"/><rect height="1" x="6" y="12" width="3"/><rect x="10" y="12" width="1" height="1"/><rect width="1" height="1" x="12" y="12"/><rect x="13" y="12" width="1" height="1"/><rect x="15" y="12" width="1" height="1"/><rect y="12" width="1" height="1" x="16"/><rect height="1" x="17" y="12" width="1"/><rect x="18" y="12" width="1" height="1"/><rect x="19" y="12" width="1" height="1"/><rect x="20" y="12" width="1" height="1"/><rect x="21" y="12" width="1" height="1"/><rect x="22" y="12" width="1" height="1"/><rect x="23" y="12" width="1" height="1"/><rect x="25" y="12" width="1" height="1"/><rect x="26" y="12" width="1" height="1"/><rect width="1" height="1" x="27" y="12"/><rect height="1" x="28" y="12" width="1"/><rect width="1" height="1" x="55" y="12"/><rect x="56" y="12" width="5" height="1"/><rect x="61" y="12" width="1" height="1"/><rect x="62" y="12" width="1" height="1"/><rect width="1" height="1" x="63" y="12"/><rect height="1" x="64" y="12" width="1"/><rect y="12" width="1" height="1" x="65"/><rect width="1" height="4" x="66" y="12"/><rect width="1" height="4" x="67" y="12"/><rect x="68" y="12" width="1" height="5"/><rect x="70" y="12" width="1" height="1"/><rect y="12" width="5" height="1" x="71"/><rect x="76" y="12" width="1" height="1"/><rect x="77" y="12" width="1" height="1"/><rect x="79" y="12" width="1" height="1"/><rect width="5" height="1" x="80" y="12"/><rect x="85" y="12" width="1" height="1"/><rect x="86" y="12" width="1" height="1"/><rect x="87" y="12" width="1" height="1"/><rect x="88" y="12" width="1" height="1"/><rect x="89" y="12" width="1" height="1"/><rect height="19" x="90" y="12" width="3"/><rect x="93" y="12" width="1" height="19"/><rect width="1" height="1" x="94" y="12"/><rect height="1" x="95" y="12" width="1"/><rect x="98" y="12" width="1" height="1"/><rect x="99" y="12" width="1" height="1"/><rect x="100" y="12" width="3" height="3"/><rect x="103" y="12" width="1" height="19"/><rect width="1" height="1" x="104" y="12"/><rect x="105" y="12" width="1" height="1"/><rect x="116" y="12" width="1" height="1"/><rect x="117" y="12" width="1" height="1"/><rect x="118" y="12" width="3" height="2"/><rect x="121" y="12" width="1" height="18"/><rect x="122" y="12" width="1" height="1"/><rect x="123" y="12" width="1" height="1"/><rect x="124" y="12" width="1" height="1"/><rect y="12" width="1" height="1" x="140"/><rect height="1" x="141" y="12" width="1"/><rect height="1" x="142" y="12" width="1"/><rect x="143" y="12" width="7" height="2"/><rect x="150" y="12" width="1" height="9"/><rect x="151" y="12" width="1" height="1"/><rect x="152" y="12" width="1" height="1"/><rect height="1" y="13" width="1"/><rect x="1" y="13" width="2" height="1"/><rect x="3" y="13" width="1" height="6"/><rect height="1" x="4" y="13" width="1"/><rect x="5" y="13" width="1" height="1"/><rect x="6" y="13" width="3" height="1"/><rect x="9" y="13" width="1" height="1"/><rect x="10" y="13" width="1" height="1"/><rect height="1" x="13" y="13" width="1"/><rect x="14" y="13" width="1" height="1"/><rect x="15" y="13" width="1" height="1"/><rect x="16" y="13" width="2" height="2"/><rect y="13" width="1" height="2" x="18"/><rect x="19" y="13" width="1" height="1"/><rect x="21" y="13" width="1" height="1"/><rect y="13" width="1" height="1" x="22"/><rect height="1" x="23" y="13" width="1"/><rect x="25" y="13" width="1" height="1"/><rect x="26" y="13" width="1" height="1"/><rect x="27" y="13" width="1" height="1"/><rect width="1" height="1" x="28" y="13"/><rect x="29" y="13" width="1" height="1"/><rect width="1" height="18" x="55" y="13"/><rect width="5" height="18" x="56" y="13"/><rect x="61" y="13" width="1" height="18"/><rect x="62" y="13" width="1" height="1"/><rect x="63" y="13" width="1" height="1"/><rect width="3" height="3" x="64" y="13"/><rect x="70" y="13" width="1" height="18"/><rect x="71" y="13" width="5" height="18"/><rect x="76" y="13" width="1" height="18"/><rect width="1" height="18" x="77" y="13"/><rect height="18" x="79" y="13" width="1"/><rect y="13" width="5" height="18" x="80"/><rect x="85" y="13" width="1" height="18"/><rect y="13" width="1" height="1" x="86"/><rect x="87" y="13" width="1" height="1"/><rect height="2" x="88" y="13" width="6"/><rect x="94" y="13" width="1" height="18"/><rect x="95" y="13" width="1" height="1"/><rect x="96" y="13" width="1" height="1"/><rect width="1" height="1" x="97" y="13"/><rect width="7" height="2" x="98" y="13"/><rect x="105" y="13" width="1" height="18"/><rect x="106" y="13" width="1" height="1"/><rect width="1" height="1" x="116" y="13"/><rect x="117" y="13" width="6" height="1"/><rect height="16" x="123" y="13" width="1"/><rect y="13" width="1" height="1" x="124"/><rect x="125" y="13" width="1" height="1"/><rect y="13" width="1" height="1" x="139"/><rect x="140" y="13" width="1" height="1"/><rect x="141" y="13" width="10" height="1"/><rect y="13" width="1" height="8" x="151"/><rect y="13" width="1" height="1" x="152"/><rect x="153" y="13" width="1" height="1"/><rect y="14" width="1" height="1"/><rect x="1" y="14" width="2" height="1"/><rect x="4" y="14" width="1" height="1"/><rect width="1" height="1" x="5" y="14"/><rect width="1" height="1" x="6" y="14"/><rect y="14" width="1" height="1" x="7"/><rect x="8" y="14" width="1" height="1"/><rect height="1" x="9" y="14" width="1"/><rect x="10" y="14" width="1" height="1"/><rect x="13" y="14" width="1" height="1"/><rect width="1" height="1" x="14" y="14"/><rect x="15" y="14" width="4" height="1"/><rect x="19" y="14" width="1" height="1"/><rect x="20" y="14" width="1" height="1"/><rect x="22" y="14" width="1" height="1"/><rect width="1" height="1" x="23" y="14"/><rect x="24" y="14" width="1" height="1"/><rect x="25" y="14" width="1" height="1"/><rect x="26" y="14" width="1" height="1"/><rect width="1" height="1" x="27" y="14"/><rect x="28" y="14" width="1" height="1"/><rect x="29" y="14" width="1" height="1"/><rect x="30" y="14" width="1" height="1"/><rect height="1" x="31" y="14" width="1"/><rect x="62" y="14" width="1" height="1"/><rect x="63" y="14" width="4" height="2"/><rect x="86" y="14" width="1" height="1"/><rect x="87" y="14" width="8" height="1"/><rect x="95" y="14" width="10" height="1"/><rect x="106" y="14" width="1" height="1"/><rect height="1" x="116" y="14" width="8"/><rect x="124" y="14" width="1" height="14"/><rect x="125" y="14" width="1" height="1"/><rect height="1" x="139" y="14" width="1"/><rect x="140" y="14" width="12" height="1"/><rect height="7" x="152" y="14" width="1"/><rect x="153" y="14" width="1" height="1"/><rect width="1" height="1" y="15"/><rect x="1" y="15" width="2" height="1"/><rect x="4" y="15" width="1" height="1"/><rect x="6" y="15" width="1" height="1"/><rect x="7" y="15" width="1" height="1"/><rect width="1" height="1" x="8" y="15"/><rect x="10" y="15" width="1" height="1"/><rect x="11" y="15" width="1" height="1"/><rect x="12" y="15" width="1" height="1"/><rect y="15" width="1" height="1" x="14"/><rect width="1" height="1" x="15" y="15"/><rect x="16" y="15" width="3" height="1"/><rect x="19" y="15" width="1" height="1"/><rect x="20" y="15" width="1" height="1"/><rect x="21" y="15" width="1" height="1"/><rect y="15" width="1" height="1" x="24"/><rect y="15" width="1" height="2" x="25"/><rect y="15" width="1" height="1" x="26"/><rect height="1" x="27" y="15" width="1"/><rect x="29" y="15" width="1" height="1"/><rect width="1" height="5" x="30" y="15"/><rect y="15" width="1" height="5" x="31"/><rect y="15" width="1" height="1" x="32"/><rect x="33" y="15" width="1" height="1"/><rect width="5" height="1" x="62" y="15"/><rect x="86" y="15" width="20" height="1"/><rect x="106" y="15" width="1" height="16"/><rect height="1" x="107" y="15" width="1"/><rect x="116" y="15" width="1" height="1"/><rect x="117" y="15" width="1" height="1"/><rect height="1" x="118" y="15" width="1"/><rect y="15" width="1" height="1" x="119"/><rect x="120" y="15" width="4" height="1"/><rect x="125" y="15" width="1" height="1"/><rect height="1" x="126" y="15" width="1"/><rect x="138" y="15" width="1" height="1"/><rect x="139" y="15" width="1" height="1"/><rect x="140" y="15" width="4" height="13"/><rect x="144" y="15" width="1" height="1"/><rect x="145" y="15" width="1" height="1"/><rect x="146" y="15" width="1" height="1"/><rect y="15" width="1" height="1" x="147"/><rect x="148" y="15" width="1" height="1"/><rect x="149" y="15" width="4" height="1"/><rect x="153" y="15" width="1" height="6"/><rect x="154" y="15" width="1" height="1"/><rect y="16" width="1" height="1"/><rect height="1" x="1" y="16" width="2"/><rect x="4" y="16" width="1" height="1"/><rect x="6" y="16" width="1" height="1"/><rect height="1" x="7" y="16" width="1"/><rect height="1" x="9" y="16" width="1"/><rect height="1" x="10" y="16" width="1"/><rect height="4" x="11" y="16" width="1"/><rect x="12" y="16" width="1" height="1"/><rect height="1" x="13" y="16" width="1"/><rect width="1" height="1" x="15" y="16"/><rect y="16" width="1" height="1" x="16"/><rect y="16" width="1" height="1" x="17"/><rect x="18" y="16" width="1" height="1"/><rect width="1" height="1" x="19" y="16"/><rect x="20" y="16" width="1" height="1"/><rect x="21" y="16" width="1" height="1"/><rect x="24" y="16" width="1" height="1"/><rect width="1" height="1" x="26" y="16"/><rect x="27" y="16" width="1" height="1"/><rect x="29" y="16" width="1" height="1"/><rect x="32" y="16" width="1" height="3"/><rect x="33" y="16" width="1" height="1"/><rect x="34" y="16" width="1" height="1"/><rect width="1" height="1" x="35" y="16"/><rect x="62" y="16" width="5" height="1"/><rect x="67" y="16" width="1" height="1"/><rect x="86" y="16" width="1" height="1"/><rect width="1" height="1" x="87" y="16"/><rect x="88" y="16" width="1" height="1"/><rect x="89" y="16" width="1" height="1"/><rect width="1" height="15" x="95" y="16"/><rect x="96" y="16" width="1" height="1"/><rect width="1" height="1" x="97" y="16"/><rect y="16" width="1" height="1" x="98"/><rect width="1" height="1" x="99" y="16"/><rect x="100" y="16" width="1" height="1"/><rect x="101" y="16" width="5" height="15"/><rect x="107" y="16" width="1" height="15"/><rect width="1" height="1" x="116" y="16"/><rect width="1" height="1" x="119" y="16"/><rect x="120" y="16" width="1" height="1"/><rect width="3" height="12" x="122" y="16"/><rect height="11" x="125" y="16" width="1"/><rect height="1" x="126" y="16" width="1"/><rect height="1" x="138" y="16" width="1"/><rect width="4" height="10" x="139" y="16"/><rect x="144" y="16" width="1" height="1"/><rect x="148" y="16" width="1" height="1"/><rect x="149" y="16" width="4" height="1"/><rect width="1" height="1" x="154" y="16"/><rect y="17" width="1" height="1"/><rect x="1" y="17" width="1" height="1"/><rect width="1" height="1" x="2" y="17"/><rect x="4" y="17" width="1" height="1"/><rect x="5" y="17" width="1" height="1"/><rect y="17" width="1" height="1" x="8"/><rect y="17" width="1" height="1" x="9"/><rect x="10" y="17" width="3" height="2"/><rect height="4" x="13" y="17" width="1"/><rect width="1" height="1" x="14" y="17"/><rect height="1" x="15" y="17" width="1"/><rect y="17" width="1" height="1" x="21"/><rect y="17" width="1" height="1" x="22"/><rect y="17" width="1" height="1" x="24"/><rect x="25" y="17" width="1" height="1"/><rect x="26" y="17" width="1" height="1"/><rect width="1" height="1" x="27" y="17"/><rect width="1" height="1" x="29" y="17"/><rect x="33" y="17" width="1" height="1"/><rect height="1" x="34" y="17" width="1"/><rect x="35" y="17" width="1" height="1"/><rect x="36" y="17" width="1" height="1"/><rect y="17" width="1" height="1" x="37"/><rect x="62" y="17" width="1" height="1"/><rect height="1" x="63" y="17" width="1"/><rect width="1" height="1" x="64" y="17"/><rect y="17" width="1" height="1" x="65"/><rect width="1" height="1" x="66" y="17"/><rect y="17" width="1" height="1" x="67"/><rect x="68" y="17" width="1" height="1"/><rect height="1" x="86" y="17" width="1"/><rect x="89" y="17" width="1" height="1"/><rect x="96" y="17" width="1" height="1"/><rect x="100" y="17" width="1" height="1"/><rect x="120" y="17" width="1" height="1"/><rect x="126" y="17" width="1" height="1"/><rect x="137" y="17" width="1" height="1"/><rect width="1" height="1" x="138" y="17"/><rect x="144" y="17" width="1" height="1"/><rect x="148" y="17" width="1" height="1"/><rect x="149" y="17" width="1" height="1"/><rect x="154" y="17" width="1" height="1"/><rect x="155" y="17" width="1" height="1"/><rect y="18" width="1" height="1"/><rect y="18" width="1" height="1" x="1"/><rect x="2" y="18" width="1" height="1"/><rect x="4" y="18" width="1" height="1"/><rect width="1" height="1" x="5" y="18"/><rect x="7" y="18" width="1" height="1"/><rect x="8" y="18" width="1" height="1"/><rect x="9" y="18" width="6" height="1"/><rect x="15" y="18" width="1" height="4"/><rect x="16" y="18" width="1" height="1"/><rect x="17" y="18" width="1" height="1"/><rect x="18" y="18" width="1" height="1"/><rect x="19" y="18" width="1" height="1"/><rect x="20" y="18" width="1" height="1"/><rect x="21" y="18" width="1" height="1"/><rect x="22" y="18" width="1" height="1"/><rect height="1" x="23" y="18" width="1"/><rect x="24" y="18" width="1" height="1"/><rect height="1" x="25" y="18" width="1"/><rect x="26" y="18" width="1" height="1"/><rect x="29" y="18" width="1" height="1"/><rect x="33" y="18" width="1" height="1"/><rect height="1" x="34" y="18" width="1"/><rect x="35" y="18" width="1" height="1"/><rect x="36" y="18" width="1" height="1"/><rect height="1" x="37" y="18" width="1"/><rect x="62" y="18" width="1" height="1"/><rect x="63" y="18" width="1" height="1"/><rect x="68" y="18" width="1" height="1"/><rect x="86" y="18" width="1" height="13"/><rect height="13" x="89" y="18" width="1"/><rect y="18" width="1" height="13" x="96"/><rect x="100" y="18" width="1" height="13"/><rect x="120" y="18" width="1" height="1"/><rect x="126" y="18" width="1" height="1"/><rect x="127" y="18" width="1" height="1"/><rect x="137" y="18" width="1" height="1"/><rect x="138" y="18" width="5" height="6"/><rect x="144" y="18" width="1" height="1"/><rect x="149" y="18" width="1" height="1"/><rect y="18" width="1" height="3" x="154"/><rect x="155" y="18" width="1" height="1"/><rect y="19" width="1" height="1"/><rect x="1" y="19" width="2" height="1"/><rect x="3" y="19" width="1" height="1"/><rect width="1" height="1" x="4" y="19"/><rect width="1" height="1" x="6" y="19"/><rect x="8" y="19" width="1" height="1"/><rect y="19" width="1" height="1" x="9"/><rect x="10" y="19" width="12" height="1"/><rect x="22" y="19" width="1" height="2"/><rect x="23" y="19" width="1" height="1"/><rect x="25" y="19" width="1" height="1"/><rect x="26" y="19" width="1" height="1"/><rect x="29" y="19" width="1" height="1"/><rect width="1" height="1" x="32" y="19"/><rect height="1" x="33" y="19" width="1"/><rect x="34" y="19" width="1" height="1"/><rect height="1" x="35" y="19" width="1"/><rect x="62" y="19" width="1" height="1"/><rect x="120" y="19" width="1" height="4"/><rect y="19" width="1" height="5" x="126"/><rect x="127" y="19" width="1" height="1"/><rect x="137" y="19" width="1" height="1"/><rect x="144" y="19" width="1" height="1"/><rect width="3" height="1" x="145" y="19"/><rect x="148" y="19" width="1" height="1"/><rect x="149" y="19" width="1" height="1"/><rect width="1" height="1" x="155" y="19"/><rect y="20" width="1" height="1"/><rect height="2" x="1" y="20" width="1"/><rect width="1" height="1" x="2" y="20"/><rect x="3" y="20" width="1" height="1"/><rect x="4" y="20" width="1" height="1"/><rect height="1" x="5" y="20" width="1"/><rect width="1" height="1" x="6" y="20"/><rect x="7" y="20" width="1" height="1"/><rect x="9" y="20" width="1" height="1"/><rect x="10" y="20" width="1" height="1"/><rect x="11" y="20" width="11" height="1"/><rect height="1" x="23" y="20" width="1"/><rect height="1" x="25" y="20" width="1"/><rect x="28" y="20" width="1" height="1"/><rect x="29" y="20" width="1" height="1"/><rect y="20" width="1" height="1" x="30"/><rect x="31" y="20" width="1" height="1"/><rect y="20" width="1" height="1" x="32"/><rect x="33" y="20" width="1" height="1"/><rect x="62" y="20" width="1" height="11"/><rect x="127" y="20" width="1" height="1"/><rect x="137" y="20" width="1" height="1"/><rect x="144" y="20" width="10" height="1"/><rect x="155" y="20" width="1" height="1"/><rect y="21" width="1" height="1"/><rect y="21" width="1" height="1" x="2"/><rect y="21" width="1" height="1" x="3"/><rect x="5" y="21" width="1" height="1"/><rect x="6" y="21" width="1" height="4"/><rect width="1" height="5" x="7" y="21"/><rect x="8" y="21" width="1" height="1"/><rect x="9" y="21" width="1" height="1"/><rect width="1" height="1" x="10" y="21"/><rect x="11" y="21" width="1" height="1"/><rect width="1" height="1" x="12" y="21"/><rect x="13" y="21" width="9" height="1"/><rect x="22" y="21" width="1" height="1"/><rect x="23" y="21" width="1" height="1"/><rect x="24" y="21" width="1" height="1"/><rect x="26" y="21" width="1" height="1"/><rect x="28" y="21" width="1" height="1"/><rect x="29" y="21" width="1" height="1"/><rect x="30" y="21" width="1" height="1"/><rect x="31" y="21" width="1" height="1"/><rect x="127" y="21" width="1" height="1"/><rect x="137" y="21" width="1" height="1"/><rect height="1" x="144" y="21" width="10"/><rect x="154" y="21" width="1" height="1"/><rect x="155" y="21" width="1" height="1"/><rect y="22" width="1" height="1"/><rect y="22" width="1" height="1" x="1"/><rect x="2" y="22" width="1" height="1"/><rect width="1" height="1" x="4" y="22"/><rect x="5" y="22" width="3" height="2"/><rect x="8" y="22" width="1" height="5"/><rect x="9" y="22" width="1" height="1"/><rect x="10" y="22" width="1" height="1"/><rect width="1" height="1" x="12" y="22"/><rect y="22" width="1" height="1" x="13"/><rect height="1" x="14" y="22" width="1"/><rect x="15" y="22" width="5" height="1"/><rect height="1" x="20" y="22" width="1"/><rect x="21" y="22" width="1" height="1"/><rect width="1" height="1" x="22" y="22"/><rect x="23" y="22" width="1" height="1"/><rect x="26" y="22" width="1" height="1"/><rect x="27" y="22" width="1" height="1"/><rect x="28" y="22" width="1" height="1"/><rect x="29" y="22" width="1" height="1"/><rect width="1" height="1" x="127" y="22"/><rect x="137" y="22" width="1" height="1"/><rect height="1" x="144" y="22" width="1"/><rect width="9" height="1" x="145" y="22"/><rect y="22" width="1" height="1" x="154"/><rect x="155" y="22" width="1" height="1"/><rect x="1" y="23" width="1" height="1"/><rect width="1" height="1" x="2" y="23"/><rect x="4" y="23" width="1" height="1"/><rect width="1" height="4" x="9" y="23"/><rect x="10" y="23" width="1" height="1"/><rect height="1" x="11" y="23" width="1"/><rect x="12" y="23" width="1" height="1"/><rect x="15" y="23" width="1" height="1"/><rect x="16" y="23" width="1" height="1"/><rect x="17" y="23" width="1" height="1"/><rect x="18" y="23" width="1" height="1"/><rect x="19" y="23" width="1" height="1"/><rect width="1" height="1" x="20" y="23"/><rect x="21" y="23" width="1" height="1"/><rect y="23" width="1" height="1" x="23"/><rect x="24" y="23" width="1" height="1"/><rect x="25" y="23" width="1" height="1"/><rect x="26" y="23" width="1" height="1"/><rect x="27" y="23" width="1" height="1"/><rect y="23" width="1" height="1" x="28"/><rect x="120" y="23" width="1" height="1"/><rect height="1" x="127" y="23" width="1"/><rect x="137" y="23" width="1" height="1"/><rect width="1" height="1" x="144" y="23"/><rect x="1" y="24" width="1" height="1"/><rect height="1" x="2" y="24" width="1"/><rect x="4" y="24" width="1" height="1"/><rect x="5" y="24" width="6" height="1"/><rect x="11" y="24" width="1" height="4"/><rect height="1" x="12" y="24" width="1"/><rect x="13" y="24" width="1" height="1"/><rect x="14" y="24" width="1" height="1"/><rect width="1" height="1" x="15" y="24"/><rect x="16" y="24" width="1" height="1"/><rect width="1" height="1" x="20" y="24"/><rect x="21" y="24" width="1" height="1"/><rect x="22" y="24" width="1" height="1"/><rect x="23" y="24" width="1" height="1"/><rect x="24" y="24" width="1" height="1"/><rect y="24" width="1" height="1" x="25"/><rect height="1" x="26" y="24" width="1"/><rect height="1" x="27" y="24" width="1"/><rect height="1" x="120" y="24" width="1"/><rect x="126" y="24" width="1" height="1"/><rect x="127" y="24" width="1" height="1"/><rect width="1" height="1" x="137" y="24"/><rect x="138" y="24" width="5" height="1"/><rect x="144" y="24" width="1" height="1"/><rect x="150" y="24" width="1" height="1"/><rect x="2" y="25" width="1" height="1"/><rect x="4" y="25" width="1" height="1"/><rect x="5" y="25" width="1" height="1"/><rect width="9" height="1" x="6" y="25"/><rect height="3" x="15" y="25" width="1"/><rect x="16" y="25" width="1" height="1"/><rect x="17" y="25" width="1" height="1"/><rect width="1" height="1" x="18" y="25"/><rect y="25" width="1" height="1" x="19"/><rect height="1" x="20" y="25" width="1"/><rect x="21" y="25" width="1" height="1"/><rect y="25" width="1" height="1" x="22"/><rect x="23" y="25" width="1" height="1"/><rect width="1" height="1" x="24" y="25"/><rect width="1" height="1" x="25" y="25"/><rect height="1" x="26" y="25" width="1"/><rect x="27" y="25" width="1" height="1"/><rect x="120" y="25" width="1" height="1"/><rect y="25" width="1" height="1" x="126"/><rect x="137" y="25" width="1" height="1"/><rect height="1" x="138" y="25" width="1"/><rect width="1" height="1" x="144" y="25"/><rect x="150" y="25" width="1" height="1"/><rect width="1" height="1" x="151" y="25"/><rect y="25" width="1" height="1" x="152"/><rect y="25" width="1" height="1" x="153"/><rect x="2" y="26" width="1" height="1"/><rect x="3" y="26" width="1" height="1"/><rect x="5" y="26" width="1" height="1"/><rect x="6" y="26" width="1" height="1"/><rect x="7" y="26" width="12" height="1"/><rect x="19" y="26" width="1" height="1"/><rect width="1" height="1" x="20" y="26"/><rect x="21" y="26" width="1" height="1"/><rect width="1" height="1" x="22" y="26"/><rect y="26" width="1" height="1" x="23"/><rect x="24" y="26" width="1" height="1"/><rect x="25" y="26" width="1" height="1"/><rect y="26" width="1" height="1" x="26"/><rect x="116" y="26" width="1" height="1"/><rect x="119" y="26" width="1" height="1"/><rect y="26" width="1" height="1" x="120"/><rect x="126" y="26" width="1" height="1"/><rect x="138" y="26" width="1" height="1"/><rect x="139" y="26" width="4" height="1"/><rect x="144" y="26" width="1" height="1"/><rect height="1" x="145" y="26" width="1"/><rect x="149" y="26" width="1" height="1"/><rect x="150" y="26" width="3" height="2"/><rect width="1" height="1" x="153" y="26"/><rect height="1" x="154" y="26" width="1"/><rect x="155" y="26" width="1" height="1"/><rect x="2" y="27" width="1" height="8"/><rect x="3" y="27" width="1" height="1"/><rect x="4" y="27" width="2" height="1"/><rect y="27" width="1" height="1" x="6"/><rect x="7" y="27" width="1" height="1"/><rect x="8" y="27" width="9" height="1"/><rect x="17" y="27" width="1" height="1"/><rect height="1" x="18" y="27" width="1"/><rect x="19" y="27" width="1" height="1"/><rect x="20" y="27" width="1" height="1"/><rect height="1" x="21" y="27" width="1"/><rect y="27" width="1" height="1" x="22"/><rect x="23" y="27" width="1" height="1"/><rect height="1" x="24" y="27" width="1"/><rect height="1" x="25" y="27" width="1"/><rect x="31" y="27" width="1" height="1"/><rect y="27" width="1" height="1" x="32"/><rect x="116" y="27" width="1" height="1"/><rect x="117" y="27" width="1" height="1"/><rect x="119" y="27" width="1" height="1"/><rect x="120" y="27" width="5" height="1"/><rect width="1" height="1" x="125" y="27"/><rect width="1" height="1" x="126" y="27"/><rect height="1" x="138" y="27" width="1"/><rect x="139" y="27" width="1" height="1"/><rect x="144" y="27" width="1" height="3"/><rect x="145" y="27" width="1" height="1"/><rect x="146" y="27" width="1" height="1"/><rect x="147" y="27" width="1" height="1"/><rect y="27" width="1" height="1" x="148"/><rect x="149" y="27" width="4" height="1"/><rect width="1" height="1" x="153" y="27"/><rect width="1" height="1" x="154" y="27"/><rect height="1" x="157" y="27" width="1"/><rect width="1" height="1" x="158" y="27"/><rect width="1" height="6" x="3" y="28"/><rect x="4" y="28" width="1" height="1"/><rect width="1" height="1" x="5" y="28"/><rect x="7" y="28" width="1" height="1"/><rect x="8" y="28" width="1" height="1"/><rect x="9" y="28" width="1" height="1"/><rect y="28" width="5" height="1" x="10"/><rect width="1" height="2" x="15" y="28"/><rect width="1" height="1" x="16" y="28"/><rect y="28" width="1" height="1" x="17"/><rect height="1" x="18" y="28" width="1"/><rect x="19" y="28" width="1" height="1"/><rect height="1" x="20" y="28" width="1"/><rect x="21" y="28" width="1" height="1"/><rect x="22" y="28" width="1" height="1"/><rect x="23" y="28" width="1" height="1"/><rect x="24" y="28" width="1" height="1"/><rect height="1" x="29" y="28" width="1"/><rect x="30" y="28" width="1" height="1"/><rect height="1" x="31" y="28" width="1"/><rect width="1" height="1" x="32" y="28"/><rect x="33" y="28" width="1" height="1"/><rect x="110" y="28" width="6" height="1"/><rect x="116" y="28" width="1" height="2"/><rect x="117" y="28" width="1" height="1"/><rect x="118" y="28" width="1" height="1"/><rect x="119" y="28" width="5" height="1"/><rect x="124" y="28" width="1" height="1"/><rect x="125" y="28" width="1" height="1"/><rect x="139" y="28" width="1" height="1"/><rect x="140" y="28" width="12" height="1"/><rect width="1" height="1" x="152" y="28"/><rect x="153" y="28" width="1" height="1"/><rect x="154" y="28" width="1" height="1"/><rect x="155" y="28" width="1" height="1"/><rect width="1" height="1" x="156" y="28"/><rect x="157" y="28" width="1" height="1"/><rect x="158" y="28" width="1" height="1"/><rect x="159" y="28" width="1" height="1"/><rect x="4" y="29" width="1" height="5"/><rect y="29" width="1" height="4" x="5"/><rect y="29" width="1" height="1" x="6"/><rect x="7" y="29" width="1" height="1"/><rect height="1" x="9" y="29" width="1"/><rect width="1" height="1" x="10" y="29"/><rect x="11" y="29" width="1" height="1"/><rect x="12" y="29" width="1" height="1"/><rect x="13" y="29" width="1" height="1"/><rect y="29" width="1" height="1" x="14"/><rect x="16" y="29" width="1" height="1"/><rect height="1" x="17" y="29" width="1"/><rect y="29" width="1" height="1" x="18"/><rect x="19" y="29" width="1" height="1"/><rect height="1" x="20" y="29" width="1"/><rect x="21" y="29" width="1" height="1"/><rect x="22" y="29" width="1" height="1"/><rect x="23" y="29" width="1" height="1"/><rect width="1" height="1" x="29" y="29"/><rect x="30" y="29" width="1" height="1"/><rect x="31" y="29" width="1" height="1"/><rect width="1" height="1" x="32" y="29"/><rect x="33" y="29" width="1" height="1"/><rect width="2" height="2" x="110" y="29"/><rect y="29" width="1" height="1" x="112"/><rect width="1" height="1" x="113" y="29"/><rect height="1" x="114" y="29" width="1"/><rect height="1" x="115" y="29" width="8"/><rect width="1" height="1" x="123" y="29"/><rect y="29" width="1" height="1" x="124"/><rect x="125" y="29" width="1" height="1"/><rect x="139" y="29" width="1" height="1"/><rect x="140" y="29" width="1" height="1"/><rect y="29" width="10" height="1" x="141"/><rect y="29" width="1" height="1" x="151"/><rect x="152" y="29" width="1" height="1"/><rect x="153" y="29" width="1" height="1"/><rect width="1" height="1" x="155" y="29"/><rect x="156" y="29" width="1" height="1"/><rect x="157" y="29" width="1" height="1"/><rect x="158" y="29" width="1" height="1"/><rect x="159" y="29" width="1" height="1"/><rect x="6" y="30" width="1" height="3"/><rect x="7" y="30" width="1" height="1"/><rect x="8" y="30" width="1" height="1"/><rect x="9" y="30" width="1" height="1"/><rect x="12" y="30" width="1" height="1"/><rect y="30" width="1" height="1" x="13"/><rect x="14" y="30" width="1" height="1"/><rect width="3" height="1" x="15" y="30"/><rect x="18" y="30" width="1" height="1"/><rect x="19" y="30" width="1" height="1"/><rect x="20" y="30" width="1" height="1"/><rect x="21" y="30" width="1" height="1"/><rect height="1" x="29" y="30" width="1"/><rect width="1" height="1" x="30" y="30"/><rect y="30" width="1" height="1" x="31"/><rect x="32" y="30" width="1" height="1"/><rect height="1" x="33" y="30" width="1"/><rect width="1" height="1" x="112" y="30"/><rect height="1" x="113" y="30" width="1"/><rect x="114" y="30" width="1" height="1"/><rect width="1" height="1" x="115" y="30"/><rect x="116" y="30" width="6" height="1"/><rect x="122" y="30" width="1" height="1"/><rect x="123" y="30" width="1" height="1"/><rect height="1" x="124" y="30" width="1"/><rect x="140" y="30" width="1" height="1"/><rect x="141" y="30" width="1" height="1"/><rect y="30" width="1" height="1" x="142"/><rect y="30" width="7" height="1" x="143"/><rect height="1" x="150" y="30" width="1"/><rect x="151" y="30" width="1" height="1"/><rect y="30" width="1" height="1" x="152"/><rect x="155" y="30" width="1" height="1"/><rect x="156" y="30" width="1" height="1"/><rect x="157" y="30" width="1" height="1"/><rect x="158" y="30" width="1" height="1"/><rect x="159" y="30" width="1" height="1"/><rect x="7" y="31" width="2" height="1"/><rect width="1" height="1" x="9" y="31"/><rect height="1" x="10" y="31" width="1"/><rect x="11" y="31" width="1" height="1"/><rect width="1" height="1" x="12" y="31"/><rect x="13" y="31" width="1" height="1"/><rect y="31" width="1" height="1" x="14"/><rect height="1" x="15" y="31" width="1"/><rect x="16" y="31" width="1" height="1"/><rect x="17" y="31" width="1" height="1"/><rect height="1" x="18" y="31" width="1"/><rect y="31" width="1" height="1" x="19"/><rect y="31" width="1" height="1" x="29"/><rect height="1" x="30" y="31" width="1"/><rect y="31" width="1" height="1" x="31"/><rect y="31" width="1" height="1" x="32"/><rect x="33" y="31" width="1" height="1"/><rect x="44" y="31" width="1" height="1"/><rect width="5" height="1" x="45" y="31"/><rect y="31" width="1" height="1" x="50"/><rect x="51" y="31" width="1" height="1"/><rect x="55" y="31" width="1" height="1"/><rect y="31" width="5" height="1" x="56"/><rect x="61" y="31" width="1" height="1"/><rect x="62" y="31" width="1" height="1"/><rect y="31" width="1" height="1" x="70"/><rect x="71" y="31" width="5" height="1"/><rect y="31" width="1" height="1" x="76"/><rect x="77" y="31" width="1" height="1"/><rect x="79" y="31" width="1" height="1"/><rect width="5" height="1" x="80" y="31"/><rect x="85" y="31" width="1" height="1"/><rect x="86" y="31" width="1" height="1"/><rect height="1" x="89" y="31" width="1"/><rect x="90" y="31" width="5" height="1"/><rect x="95" y="31" width="1" height="1"/><rect width="1" height="1" x="96" y="31"/><rect x="100" y="31" width="1" height="1"/><rect x="101" y="31" width="5" height="1"/><rect height="1" x="106" y="31" width="1"/><rect height="1" x="107" y="31" width="1"/><rect x="109" y="31" width="1" height="1"/><rect x="110" y="31" width="1" height="1"/><rect width="1" height="1" x="111" y="31"/><rect width="1" height="1" x="112" y="31"/><rect x="113" y="31" width="1" height="1"/><rect x="115" y="31" width="1" height="1"/><rect x="116" y="31" width="1" height="1"/><rect x="117" y="31" width="1" height="1"/><rect x="118" y="31" width="2" height="1"/><rect y="31" width="1" height="1" x="120"/><rect x="121" y="31" width="1" height="1"/><rect x="122" y="31" width="1" height="1"/><rect width="1" height="1" x="123" y="31"/><rect x="129" y="31" width="5" height="1"/><rect x="134" y="31" width="1" height="1"/><rect x="135" y="31" width="1" height="1"/><rect height="1" x="142" y="31" width="1"/><rect x="143" y="31" width="1" height="1"/><rect x="144" y="31" width="1" height="1"/><rect x="145" y="31" width="1" height="1"/><rect x="146" y="31" width="1" height="1"/><rect x="147" y="31" width="1" height="1"/><rect x="148" y="31" width="1" height="1"/><rect x="149" y="31" width="1" height="1"/><rect height="1" x="150" y="31" width="1"/><rect width="1" height="1" x="155" y="31"/><rect x="156" y="31" width="1" height="1"/><rect height="1" x="157" y="31" width="1"/><rect width="1" height="1" x="158" y="31"/><rect x="159" y="31" width="1" height="1"/><rect x="7" y="32" width="1" height="1"/><rect width="1" height="1" x="8" y="32"/><rect x="9" y="32" width="1" height="1"/><rect height="1" x="10" y="32" width="1"/><rect y="32" width="1" height="1" x="30"/><rect x="31" y="32" width="1" height="1"/><rect y="32" width="1" height="1" x="32"/><rect x="55" y="32" width="1" height="1"/><rect height="1" x="56" y="32" width="5"/><rect x="61" y="32" width="1" height="1"/><rect y="32" width="1" height="1" x="62"/><rect y="32" width="1" height="1" x="70"/><rect height="1" x="71" y="32" width="5"/><rect x="76" y="32" width="1" height="1"/><rect width="1" height="1" x="77" y="32"/><rect width="1" height="1" x="79" y="32"/><rect width="5" height="1" x="80" y="32"/><rect height="1" x="85" y="32" width="1"/><rect y="32" width="1" height="1" x="86"/><rect x="89" y="32" width="1" height="1"/><rect height="1" x="90" y="32" width="5"/><rect x="95" y="32" width="1" height="1"/><rect height="1" x="96" y="32" width="1"/><rect x="100" y="32" width="1" height="1"/><rect x="101" y="32" width="5" height="1"/><rect width="1" height="1" x="106" y="32"/><rect x="107" y="32" width="1" height="1"/><rect x="109" y="32" width="1" height="1"/><rect y="32" width="1" height="1" x="110"/><rect x="111" y="32" width="1" height="1"/><rect width="1" height="1" x="112" y="32"/><rect y="32" width="1" height="1" x="117"/><rect width="1" height="1" x="118" y="32"/><rect height="1" x="119" y="32" width="1"/><rect x="120" y="32" width="1" height="1"/><rect height="1" x="121" y="32" width="1"/><rect x="129" y="32" width="5" height="1"/><rect y="32" width="1" height="1" x="134"/><rect x="135" y="32" width="1" height="1"/><rect x="156" y="32" width="1" height="1"/><rect x="157" y="32" width="1" height="1"/><rect x="158" y="32" width="1" height="1"/><rect x="5" y="33" width="1" height="1"/><rect x="6" y="33" width="1" height="1"/><rect x="7" y="33" width="1" height="1"/><rect y="33" width="1" height="1" x="8"/><rect height="1" x="3" y="34" width="1"/><rect height="1" x="4" y="34" width="1"/><rect x="5" y="34" width="1" height="1"/><rect x="6" y="34" width="1" height="1"/><rect width="1" height="1" x="2" y="35"/><rect y="35" width="1" height="1" x="3"/><rect width="1" height="1" x="4" y="35"/></g></svg>