<svg xmlns="http://www.w3.org/2000/svg" role="img" xmlns:xlink="http://www.w3.org/1999/xlink" viewBox="-2.88 -2.88 149.63 44.63"><style>svg {enable-background:new 0 0 144 39}</style><style>.st1{fill:#00e7a3}</style><defs><path id="SVGID_1_" d="M0 0h144v39H0z"/></defs><clipPath id="SVGID_2_"><use overflow="visible" xlink:href="#SVGID_1_"/></clipPath><g clip-path="url(#SVGID_2_)"><path d="M0 0v17.4h8.7V8.7h13.1V0H0z" class="st1"/><path fill="#00b7ff" d="M8.7 17.4H0V26h8.7v13h8.7V17.4H8.7zM21.8 0v8.7h13v8.7h8.7V0H21.8z"/><path d="M34.8 17.4h-8.7V39h8.7V26h8.7v-8.7h-8.7z" class="st1"/><path fill="#42477e" d="M62.1 21V7.2h-5V4h13.6v3.2h-5v13.9l-3.6-.1zm20.6 0l-3.4-6h-2.7v6H73V4h8c3.6 0 5.7 2.3 5.7 5.5 0 3-1.9 4.6-3.8 5l3.9 6.5h-4.1zM83 9.5c0-1.5-1.1-2.3-2.6-2.3h-3.8v4.6h3.8c1.6 0 2.6-.8 2.6-2.3zm5.7 3c0-5.1 3.8-8.8 8.9-8.8 5.2 0 8.9 3.7 8.9 8.8 0 5.1-3.8 8.8-8.9 8.8-5.1 0-8.9-3.6-8.9-8.8zm14.1 0c0-3.2-2.1-5.6-5.2-5.6s-5.2 2.4-5.2 5.6c0 3.2 2 5.6 5.2 5.6s5.2-2.4 5.2-5.6zm5.5 0c0-5.1 3.8-8.8 8.9-8.8 5.2 0 8.9 3.7 8.9 8.8 0 5.1-3.8 8.8-8.9 8.8-5.1 0-8.9-3.6-8.9-8.8zm14.1 0c0-3.2-2.1-5.6-5.2-5.6s-5.2 2.4-5.2 5.6c0 3.2 2 5.6 5.2 5.6s5.2-2.4 5.2-5.6zm18.1 8.5l-8.2-11.1V21h-3.6V4h3.8l7.9 10.7V4h3.6v17h-3.5z"/><path fill="#8389a4" d="M59.8 35.4V28h-2.7v-1.7h7.3V28h-2.6v7.4h-2zm4.6-3.3c0-1.9 1.4-3.5 3.4-3.5s3.3 1.5 3.3 3.6v.4h-4.9c.1.8.8 1.5 1.9 1.5.6 0 1.3-.2 1.7-.7l.8 1.1c-.7.6-1.7.9-2.7.9-2 .1-3.5-1.2-3.5-3.3zm3.4-2.1c-1.1 0-1.6.8-1.6 1.5h3.3c-.1-.7-.6-1.5-1.7-1.5zm4.6 2.1c0-2 1.5-3.5 3.5-3.5 1.3 0 2.2.6 2.6 1.2l-1.1 1.1c-.3-.4-.8-.7-1.4-.7-1.1 0-1.8.8-1.8 1.9 0 1.2.7 1.9 1.8 1.9.6 0 1.1-.3 1.4-.7l1.1 1.1c-.4.6-1.2 1.2-2.6 1.2-1.9-.1-3.5-1.5-3.5-3.5zm12.3 3.3v-4c0-.9-.5-1.2-1.2-1.2s-1.2.4-1.5.8v4.4h-1.7v-9.1H82v3.4c.4-.5 1.2-1 2.3-1 1.5 0 2.1.8 2.1 2.1v4.7h-1.7zm8.6 0v-4c0-.9-.5-1.2-1.2-1.2s-1.2.4-1.5.8v4.4h-1.7v-6.6h1.7v.8c.4-.5 1.2-1 2.3-1 1.5 0 2.1.8 2.1 2.1v4.6h-1.7zm3.5-3.3c0-1.8 1.3-3.5 3.5-3.5s3.5 1.6 3.5 3.5-1.3 3.5-3.5 3.5c-2.2-.1-3.5-1.6-3.5-3.5zm5.2 0c0-1-.6-1.9-1.7-1.9s-1.7.9-1.7 1.9c0 1.1.6 1.9 1.7 1.9s1.7-.9 1.7-1.9zm3.6 3.3v-9.1h1.7v9.1h-1.7zm3.6-3.3c0-1.8 1.3-3.5 3.5-3.5s3.5 1.6 3.5 3.5-1.3 3.5-3.5 3.5c-2.2-.1-3.5-1.6-3.5-3.5zm5.2 0c0-1-.6-1.9-1.7-1.9s-1.7.9-1.7 1.9c0 1.1.6 1.9 1.7 1.9s1.7-.9 1.7-1.9zm3.5 4.9l.8-1.2c.6.6 1.2.8 2.1.8.8 0 1.8-.4 1.8-1.7v-.7c-.5.7-1.2 1.1-2 1.1-1.7 0-2.9-1.2-2.9-3.4s1.2-3.4 2.9-3.4c.8 0 1.5.3 2 1v-.8h1.7V35c0 2.5-2 3.1-3.6 3.1-1 0-1.9-.3-2.8-1.1zm4.7-4v-2.1c-.3-.4-.9-.7-1.5-.7-1 0-1.7.7-1.7 1.8s.7 1.8 1.7 1.8c.6 0 1.2-.3 1.5-.8zm3.8-6c0-.6.5-1 1.1-1 .6 0 1.1.4 1.1 1s-.4 1.1-1.1 1.1c-.6 0-1.1-.5-1.1-1.1zm.2 8.4v-6.6h1.7v6.6h-1.7zm3.6-3.3c0-1.9 1.4-3.5 3.4-3.5s3.3 1.5 3.3 3.6v.4H132c.1.8.8 1.5 1.9 1.5.6 0 1.3-.2 1.7-.7l.8 1.1c-.7.6-1.7.9-2.7.9-2 .1-3.5-1.2-3.5-3.3zm3.4-2.1c-1.1 0-1.6.8-1.6 1.5h3.3c-.1-.7-.5-1.5-1.7-1.5zm4.6 4.5l.7-1.2c.5.4 1.5.9 2.3.9.7 0 1.1-.3 1.1-.7 0-1.1-3.9-.2-3.9-2.8 0-1.1 1-2.1 2.7-2.1 1.1 0 2 .4 2.7.9l-.7 1.2c-.4-.4-1.1-.8-2-.8-.6 0-1.1.3-1.1.7 0 1 3.9.2 3.9 2.8 0 1.2-1 2.1-2.9 2.1-1 0-2.1-.4-2.8-1z"/></g></svg>