<svg version="1.1" id="Layer_1" xmlns="http://www.w3.org/2000/svg" xmlns:xlink="http://www.w3.org/1999/xlink" x="0px" y="0px"
	 width="100%" viewBox="0 0 1921 1080" enable-background="new 0 0 1921 1080" xml:space="preserve">
<path fill="#FFFFFF" opacity="1.000000" stroke="none" 
	d="
M1223.000000,1081.000000 
	C815.333435,1081.000000 408.166809,1081.000000 1.000164,1081.000000 
	C1.000109,721.000122 1.000109,361.000275 1.000055,1.000309 
	C641.333069,1.000206 1281.666138,1.000206 1921.999512,1.000103 
	C1921.999634,360.999664 1921.999634,720.999329 1921.999756,1080.999512 
	C1689.166626,1081.000000 1456.333374,1081.000000 1223.000000,1081.000000 
M371.175781,560.332886 
	C360.984924,550.486694 352.496765,539.571716 348.906921,525.479797 
	C348.670380,524.551270 347.217285,523.285095 346.314789,523.272461 
	C335.375000,523.119873 324.432373,523.173462 313.587372,523.173462 
	C308.980530,543.830566 313.889832,560.994263 328.947144,575.110352 
	C336.355072,582.055237 343.922729,588.841370 351.106720,596.011292 
	C378.343811,623.195435 405.406372,650.554382 432.659363,677.722473 
	C437.018890,682.068481 442.018066,685.772766 447.279480,690.248291 
	C447.279480,614.445435 447.279480,539.858459 447.279480,464.692200 
	C415.317139,464.692200 383.600769,464.692200 351.897675,464.692200 
	C351.897675,453.039551 351.897675,441.970673 351.897675,430.823120 
	C427.492004,430.823120 502.718353,430.823120 578.491638,430.823120 
	C578.491638,455.682312 578.491638,480.252838 578.491638,504.884064 
	C590.958862,504.884064 602.876709,504.884064 614.808350,504.884064 
	C614.808350,466.898010 614.808350,429.192078 614.808350,391.514343 
	C514.262939,391.514343 414.072052,391.514343 313.726532,391.514343 
	C313.726532,430.122009 313.726532,468.378601 313.726532,507.188843 
	C344.855225,507.188843 375.733948,507.188843 406.447845,507.188843 
	C406.447845,536.543945 406.447845,565.343506 406.447845,593.497986 
	C394.930023,582.677734 383.302307,571.754211 371.175781,560.332886 
M481.159302,645.500000 
	C481.159302,660.247925 481.159302,674.995911 481.159302,690.665649 
	C483.026642,689.172302 484.226349,688.376587 485.231873,687.384155 
	C501.586334,671.242615 517.872192,655.031433 534.262268,638.926208 
	C557.068787,616.515869 579.940308,594.171570 602.801331,571.816711 
	C616.796509,558.131409 618.175293,541.313721 615.201477,522.997131 
	C604.458069,522.997131 593.976929,522.875610 583.506409,523.155579 
	C582.241821,523.189392 580.418457,525.173340 579.900391,526.626526 
	C576.085632,537.325256 570.460327,546.963135 562.093628,554.566162 
	C552.374939,563.397766 542.050293,571.564392 531.951599,579.975159 
	C528.205688,583.094910 524.354553,586.088318 519.674561,589.842773 
	C519.674561,548.159119 519.674561,507.621002 519.674561,467.217407 
	C506.564209,467.217407 493.997589,467.217407 481.159302,467.217407 
	C481.159302,526.567444 481.159302,585.533691 481.159302,645.500000 
M1264.994629,501.468201 
	C1264.994629,504.936768 1264.994629,508.405334 1264.994629,511.932007 
	C1272.448242,511.932007 1279.533203,511.932007 1287.140259,511.932007 
	C1287.140259,501.423126 1287.140259,491.198303 1287.140259,480.873322 
	C1291.327759,480.873322 1295.006592,481.100952 1298.643311,480.806854 
	C1302.025391,480.533386 1304.071167,481.711365 1305.892822,484.594666 
	C1311.130615,492.885712 1316.639160,501.008179 1322.161011,509.115204 
	C1323.013672,510.366791 1324.468750,512.028564 1325.695068,512.071228 
	C1333.446655,512.341125 1341.212280,512.208130 1349.724243,512.208130 
	C1341.547852,500.132294 1333.872559,488.796631 1326.112671,477.335938 
	C1327.223022,476.742188 1327.943726,476.341400 1328.677856,475.966705 
	C1342.144287,469.092987 1348.431396,457.008148 1346.453613,441.791687 
	C1344.522705,426.935760 1336.216187,416.609894 1320.570801,415.173492 
	C1302.298584,413.495911 1283.754272,414.781525 1264.994629,414.781525 
	C1264.994629,442.921448 1264.994629,471.700256 1264.994629,501.468201 
M1233.043457,448.480896 
	C1224.329346,420.241058 1195.572876,405.510468 1166.550415,414.419495 
	C1139.446411,422.739563 1124.671997,451.398224 1133.224243,479.063354 
	C1141.355957,505.367340 1170.030151,519.762329 1198.496582,511.831207 
	C1225.072876,504.426727 1240.219727,477.152039 1233.043457,448.480896 
M1582.499512,433.221130 
	C1591.614502,433.221130 1600.729492,433.221130 1609.952393,433.221130 
	C1609.952393,426.533356 1609.952393,420.303497 1609.952393,414.177673 
	C1585.319702,414.177673 1560.959106,414.177673 1536.667725,414.177673 
	C1536.667725,446.990265 1536.667725,479.400818 1536.667725,512.010071 
	C1561.541260,512.010071 1586.130249,512.010071 1610.730957,512.010071 
	C1610.730957,505.546783 1610.730957,499.300201 1610.730957,492.609070 
	C1593.066162,492.609070 1575.672974,492.609070 1558.295898,492.609070 
	C1558.295898,485.721222 1558.295898,479.288544 1558.295898,472.378601 
	C1573.652100,472.378601 1588.722534,472.378601 1603.666138,472.378601 
	C1603.666138,465.644958 1603.666138,459.401794 1603.666138,452.727295 
	C1588.265137,452.727295 1573.200562,452.727295 1558.271484,452.727295 
	C1558.271484,446.007782 1558.271484,439.738159 1558.271484,433.220978 
	C1566.190186,433.220978 1573.844727,433.220978 1582.499512,433.221130 
M936.071655,502.696625 
	C937.793823,498.570251 939.516052,494.443878 941.285828,490.203369 
	C954.117065,490.203369 966.774658,490.118073 979.427185,490.332581 
	C980.721680,490.354553 982.558655,491.906036 983.163330,493.204437 
	C985.616272,498.471527 987.575867,503.967072 989.980042,509.259003 
	C990.535645,510.481720 992.096802,512.023682 993.250061,512.070618 
	C999.852234,512.339355 1006.470947,512.201172 1013.716553,512.201172 
	C1012.839478,509.907379 1012.250549,508.216309 1011.554810,506.570343 
	C1000.433350,480.259979 989.307739,453.951355 978.157959,427.652954 
	C976.152527,422.923004 975.240479,416.378113 971.638733,414.046814 
	C967.842041,411.589325 961.404297,413.418243 956.165039,412.911774 
	C952.610229,412.568085 951.267029,414.174622 950.036194,417.134674 
	C942.192505,435.997101 934.175476,454.787415 926.231079,473.608032 
	C920.882385,486.279205 915.559265,498.961182 909.987488,512.202209 
	C914.520386,512.202209 918.483582,512.202148 922.446838,512.202209 
	C932.173523,512.202209 932.173523,512.202271 936.071655,502.696625 
M814.996094,499.292999 
	C821.994812,505.138458 829.858276,509.389008 838.717163,511.557861 
	C852.159363,514.848877 865.336060,515.035767 877.906494,507.945557 
	C893.914490,498.916351 897.706604,468.749786 876.282898,459.060059 
	C870.867493,456.610687 865.091431,454.945374 859.446411,453.021393 
	C854.581482,451.363342 849.613953,449.995422 844.792114,448.225708 
	C841.043152,446.849762 838.691467,444.162018 839.026978,439.862762 
	C839.364380,435.537689 842.289795,432.857910 846.066895,432.614136 
	C851.253052,432.279266 856.737549,432.448792 861.696411,433.830200 
	C866.992615,435.305573 871.826233,438.442017 877.147278,440.990051 
	C880.746887,435.736359 884.380249,430.433502 888.263672,424.765656 
	C872.559631,413.420258 855.826965,408.883575 837.285461,414.709991 
	C824.588623,418.699768 817.340881,429.133728 817.140564,442.109558 
	C816.941162,455.028015 822.802795,463.225708 836.144104,468.330658 
	C840.008850,469.809509 844.056335,470.806213 848.003052,472.076843 
	C853.211853,473.753815 858.472656,475.302673 863.580139,477.250031 
	C867.266357,478.655548 869.539246,481.314423 869.151062,485.702301 
	C868.765564,490.060669 866.045044,492.836243 862.257935,493.055939 
	C856.079285,493.414337 849.537842,493.664124 843.696655,492.018066 
	C837.491394,490.269409 831.923401,486.259491 825.620483,483.000977 
	C822.134521,487.176788 818.172913,491.860413 814.325500,496.636078 
	C813.976807,497.068939 814.363159,498.093933 814.996094,499.292999 
M1053.054688,503.475555 
	C1057.091431,513.004028 1057.091431,513.004028 1067.411011,513.003967 
	C1068.577026,513.003967 1069.766602,512.853210 1070.904785,513.031311 
	C1074.766357,513.635559 1076.629150,512.200439 1078.133301,508.353516 
	C1089.862549,478.355164 1101.906372,448.479706 1113.835938,418.559540 
	C1114.374878,417.207977 1114.750000,415.791199 1115.399414,413.796387 
	C1108.646362,413.796387 1102.364136,413.941711 1096.093872,413.732361 
	C1093.153931,413.634186 1091.775146,414.528687 1090.742676,417.419342 
	C1085.328247,432.580200 1079.641357,447.643707 1074.046997,462.740295 
	C1071.763550,468.902435 1069.474731,475.062653 1066.830811,482.187653 
	C1065.883911,479.760468 1065.341553,478.432404 1064.844727,477.087524 
	C1057.540649,457.314392 1050.283813,437.523590 1042.864136,417.794006 
	C1042.282471,416.247650 1040.631348,414.047791 1039.382202,413.982849 
	C1032.299805,413.614807 1025.188354,413.804749 1017.320862,413.804749 
	C1029.355347,443.928802 1041.101196,473.330353 1053.054688,503.475555 
M731.488159,434.005249 
	C735.399170,434.005249 739.310242,434.005249 743.643555,434.005249 
	C743.643555,460.462463 743.643555,486.181885 743.643555,511.991455 
	C751.003662,511.991455 757.923584,511.991455 765.373718,511.991455 
	C765.373718,485.929016 765.373718,460.092102 765.373718,433.793152 
	C775.474060,433.793152 785.048523,433.793152 794.589478,433.793152 
	C794.589478,426.918579 794.589478,420.518616 794.589478,414.028992 
	C767.574158,414.028992 740.843567,414.028992 713.947571,414.028992 
	C713.947571,420.724121 713.947571,427.166870 713.947571,434.005249 
	C719.573181,434.005249 725.033569,434.005249 731.488159,434.005249 
M1491.511108,434.004669 
	C1497.268799,434.004669 1503.026367,434.004669 1508.785156,434.004669 
	C1508.785156,426.951416 1508.785156,420.524200 1508.785156,413.981293 
	C1481.806152,413.981293 1455.047241,413.981293 1428.352905,413.981293 
	C1428.352905,420.752075 1428.352905,427.313263 1428.352905,434.184265 
	C1438.313354,434.184265 1447.919312,434.184265 1458.021606,434.184265 
	C1458.021606,460.375946 1458.021606,486.247925 1458.021606,511.914124 
	C1465.472656,511.914124 1472.414062,511.914124 1479.734863,511.914124 
	C1479.734863,485.873657 1479.734863,460.138885 1479.734863,434.004669 
	C1483.583008,434.004669 1487.049194,434.004669 1491.511108,434.004669 
M1377.993408,415.947144 
	C1377.993408,447.894684 1377.993408,479.842255 1377.993408,511.853455 
	C1385.320435,511.853455 1392.358765,511.853455 1399.390869,511.853455 
	C1399.390869,479.070862 1399.390869,446.664764 1399.390869,413.772156 
	C1393.374512,413.772156 1387.584106,413.698486 1381.798584,413.829895 
	C1380.530273,413.858704 1379.278809,414.617706 1377.993408,415.947144 
M1375.442139,658.008240 
	C1393.401001,657.411255 1400.993164,649.528381 1401.007568,631.457214 
	C1401.012939,624.791138 1401.008667,618.125000 1401.008667,611.458923 
	C1401.008789,605.694153 1401.008667,599.929382 1401.008667,594.300049 
	C1396.939575,594.300049 1393.524658,594.300049 1390.133911,594.300049 
	C1390.011719,596.360779 1389.907837,598.111938 1389.792847,600.053040 
	C1376.064575,590.683411 1364.260254,590.924133 1356.165161,600.514709 
	C1348.718506,609.336975 1349.013428,623.964600 1356.803833,632.196045 
	C1365.500977,641.385437 1377.260132,641.105042 1389.593140,631.414062 
	C1391.531372,648.343018 1378.814575,653.403198 1357.130127,644.091736 
	C1355.882324,646.721375 1354.630615,649.358948 1353.301880,652.159241 
	C1360.045288,656.313232 1367.078735,657.848206 1375.442139,658.008240 
M975.511292,595.947205 
	C973.646057,597.426697 971.780823,598.906128 969.157349,600.987061 
	C969.157349,592.146851 969.157349,584.244385 969.157349,576.205933 
	C965.239807,576.205933 961.828003,576.205933 958.371948,576.205933 
	C958.371948,598.586792 958.371948,620.750732 958.371948,642.699463 
	C962.176514,642.699463 965.592712,642.699463 968.968140,642.699463 
	C969.180420,640.723511 969.358887,639.061890 969.575256,637.047363 
	C979.385376,643.823242 983.668457,645.095154 990.372192,643.476379 
	C1006.616211,639.553772 1013.850220,618.254456 1004.044434,603.220764 
	C997.686279,593.472900 986.620361,590.436829 975.511292,595.947205 
M730.668701,627.059937 
	C728.909546,629.192261 727.150330,631.324585 725.442444,633.394775 
	C734.855225,643.010559 751.668457,646.721008 763.276855,641.945984 
	C770.592712,638.936707 774.560852,633.383362 774.983887,625.465576 
	C775.406006,617.565369 771.759644,612.002625 764.621033,608.887268 
	C760.985901,607.300964 757.102783,606.284363 753.335999,604.997742 
	C749.883789,603.818542 746.133179,603.117798 743.098694,601.254333 
	C741.183228,600.078125 739.192139,597.080078 739.322388,595.032043 
	C739.470215,592.708374 741.520508,589.230286 743.506958,588.577820 
	C747.085449,587.402527 751.395020,587.198975 755.099182,587.991455 
	C759.325195,588.895569 763.223511,591.331360 767.467224,593.190491 
	C769.263611,590.557190 771.080811,587.893372 773.017578,585.054321 
	C764.130920,578.364807 754.654907,575.656128 744.097412,577.681458 
	C734.226868,579.575073 728.364624,585.857971 727.834045,594.574585 
	C727.252075,604.135803 731.204529,609.675171 741.580750,613.282349 
	C746.596558,615.026062 751.803162,616.214111 756.854492,617.864502 
	C760.894592,619.184448 764.273926,621.470764 763.698975,626.382202 
	C763.114441,631.375061 759.317139,633.220215 754.915955,633.765015 
	C747.621826,634.668030 741.162109,632.389282 735.254517,628.154480 
	C734.083008,627.314697 732.514526,627.028625 730.668701,627.059937 
M1441.818848,632.845520 
	C1430.555176,637.433533 1421.374023,633.290283 1420.094238,622.416931 
	C1431.852173,622.416931 1443.552734,622.416931 1455.177612,622.416931 
	C1456.302368,607.895264 1450.039429,597.024719 1439.229492,593.987122 
	C1428.344971,590.928589 1417.783081,595.029480 1412.084717,604.526855 
	C1406.126831,614.456177 1407.465820,628.483765 1415.139893,636.536743 
	C1425.398560,647.301880 1444.875732,646.359131 1452.960571,634.491455 
	C1450.902954,632.699646 1448.823486,630.888855 1446.823364,629.147095 
	C1445.124268,630.428894 1443.798828,631.428833 1441.818848,632.845520 
M1041.029053,604.618286 
	C1037.576416,610.642517 1036.713135,617.092712 1037.862793,623.873596 
	C1039.583130,634.019836 1046.825684,641.371155 1057.220215,643.522705 
	C1067.022705,645.551697 1077.259033,641.834412 1081.923950,634.394836 
	C1079.866577,632.632263 1077.786011,630.849854 1075.750610,629.106140 
	C1069.665894,634.560913 1063.300293,636.564392 1056.070312,633.288757 
	C1051.731812,631.323303 1049.347900,627.809143 1048.976685,622.360107 
	C1061.003174,622.360107 1072.570557,622.360107 1084.068604,622.360107 
	C1085.510498,609.338928 1079.979492,598.517578 1070.236328,594.676147 
	C1059.468750,590.430786 1048.730225,593.897827 1041.029053,604.618286 
M1263.269043,596.111694 
	C1250.330811,589.749146 1237.149292,593.499756 1230.605103,605.405762 
	C1223.931641,617.547180 1227.675415,633.441223 1238.814941,640.259216 
	C1249.922485,647.057678 1265.222046,644.479187 1271.953857,634.488037 
	C1269.902954,632.687073 1267.834473,630.870667 1265.760376,629.049377 
	C1259.791626,634.591492 1253.393311,636.501160 1246.165161,633.340454 
	C1241.784912,631.425110 1239.380371,627.864746 1238.955444,622.425659 
	C1250.909790,622.425659 1262.484375,622.425659 1274.398071,622.425659 
	C1274.810913,611.796143 1272.698608,602.820984 1263.269043,596.111694 
M1579.180908,631.484741 
	C1577.559814,628.827271 1575.938599,626.169800 1573.641357,622.403931 
	C1586.942017,622.403931 1598.513428,622.403931 1610.004761,622.403931 
	C1611.785156,608.520142 1605.126221,596.966431 1593.950684,593.934814 
	C1578.326538,589.696533 1564.701172,600.042358 1563.424316,617.113586 
	C1562.576660,628.446411 1568.804810,638.481445 1579.077759,642.335083 
	C1589.712891,646.324707 1601.356445,643.323914 1608.065430,634.585266 
	C1606.018433,632.787415 1603.947388,630.968384 1601.858154,629.133484 
	C1594.921021,634.991272 1587.789673,637.133606 1579.180908,631.484741 
M948.007874,640.296936 
	C948.007080,631.137878 948.171570,621.974854 947.954773,612.820923 
	C947.770813,605.055176 945.262207,598.218262 937.448120,595.068298 
	C927.590332,591.094360 917.985901,592.904724 908.272095,597.076477 
	C909.340759,600.271973 910.266785,603.040771 911.187561,605.794067 
	C929.481995,600.610474 938.119507,603.752686 936.620056,613.450562 
	C930.327148,613.450562 924.154419,612.805542 918.171692,613.596924 
	C908.417603,614.887146 903.213806,621.540283 904.027832,630.266235 
	C904.784546,638.376831 911.508545,644.404419 920.851501,643.789246 
	C926.308777,643.429871 931.622925,640.897034 936.889282,639.374512 
	C936.945740,639.848083 937.128357,641.379333 937.322693,643.008667 
	C939.548889,643.008667 941.409790,643.236206 943.184326,642.942444 
	C944.837219,642.668823 946.398132,641.840393 948.007874,640.296936 
M830.719971,633.444458 
	C832.287903,638.496582 835.850037,641.520813 840.756958,643.000793 
	C848.864380,645.446045 856.101868,643.615356 862.802490,637.524902 
	C862.946350,639.745544 863.045166,641.270386 863.137756,642.699585 
	C866.959351,642.699585 870.367310,642.699585 873.946106,642.699585 
	C873.946106,632.082581 874.234863,621.762756 873.852295,611.467896 
	C873.560486,603.614197 870.188721,597.167603 862.188965,594.543518 
	C852.723877,591.438843 843.546082,592.893799 834.286804,597.142212 
	C835.332520,600.302185 836.281433,603.169739 837.239807,606.065796 
	C855.979431,598.602417 864.672668,606.238586 862.795288,613.542908 
	C856.232605,613.542908 849.874634,612.809143 843.755676,613.706116 
	C833.231567,615.248962 828.856628,622.078247 830.719971,633.444458 
M1463.997314,615.500122 
	C1463.997314,624.585266 1463.997314,633.670349 1463.997314,642.744507 
	C1468.005005,642.744507 1471.421265,642.744507 1475.182617,642.744507 
	C1475.182617,640.367615 1475.182373,638.237671 1475.182617,636.107666 
	C1475.183472,628.954956 1475.003784,621.796326 1475.236206,614.651123 
	C1475.470093,607.465698 1479.852417,603.165649 1486.376587,603.182983 
	C1492.482910,603.199219 1496.326782,607.171143 1496.777588,614.143127 
	C1496.959595,616.959473 1496.820435,619.796814 1496.821289,622.624634 
	C1496.823486,629.359009 1496.822021,636.093323 1496.822021,642.695557 
	C1500.959595,642.695557 1504.367310,642.695557 1507.959595,642.695557 
	C1507.959595,631.598633 1508.200806,620.800903 1507.874146,610.020325 
	C1507.660034,602.951965 1504.781006,596.962585 1497.667480,594.289978 
	C1490.351318,591.541199 1483.613525,592.829834 1477.834961,598.295532 
	C1477.201416,598.894714 1476.535278,599.459351 1475.366211,600.502014 
	C1475.228516,597.934021 1475.134155,596.174072 1475.033691,594.302246 
	C1471.356567,594.302246 1467.799194,594.302246 1463.997314,594.302246 
	C1463.997314,601.236328 1463.997314,607.868225 1463.997314,615.500122 
M1154.908691,610.832642 
	C1157.521362,604.865723 1161.689209,602.321228 1167.292725,603.271912 
	C1172.269409,604.116272 1175.368408,607.974854 1175.777344,614.075134 
	C1175.943848,616.560730 1175.814453,619.066284 1175.814941,621.562805 
	C1175.816406,628.638977 1175.815552,635.715088 1175.815552,642.712280 
	C1179.920654,642.712280 1183.330444,642.712280 1186.922852,642.712280 
	C1186.922852,631.464478 1187.209351,620.496033 1186.820312,609.551575 
	C1186.568481,602.464111 1183.421997,596.625671 1176.216675,594.123535 
	C1169.004883,591.619141 1162.459839,592.994934 1156.832275,598.284912 
	C1156.112061,598.961853 1155.330811,599.573914 1154.085205,600.636169 
	C1154.085205,598.016968 1154.085205,596.203613 1154.085205,594.311157 
	C1150.344604,594.311157 1146.783936,594.311157 1143.308105,594.311157 
	C1143.308105,610.679443 1143.308105,626.731995 1143.308105,642.725586 
	C1147.043823,642.725586 1150.463135,642.725586 1154.184570,642.725586 
	C1154.184570,640.482239 1154.151611,638.513062 1154.190308,636.545349 
	C1154.353760,628.244751 1154.538574,619.944580 1154.908691,610.832642 
M1557.071167,604.318787 
	C1557.901367,603.365601 1558.731567,602.412354 1559.533569,601.491516 
	C1549.792969,590.414795 1532.304810,590.176086 1522.092529,600.759521 
	C1511.970825,611.248657 1512.845703,628.997253 1523.936768,638.178284 
	C1534.946533,647.292053 1551.868896,645.620239 1559.253784,635.373474 
	C1557.347412,632.911255 1555.535522,630.570984 1553.769653,628.290161 
	C1544.382812,635.496155 1536.372681,635.976379 1530.616943,629.978271 
	C1525.004395,624.129700 1524.575684,613.590271 1530.216064,607.662231 
	C1532.254028,605.520447 1535.313843,603.816040 1538.197754,603.126770 
	C1543.983887,601.743835 1548.779541,604.546753 1553.025391,608.924500 
	C1554.436035,607.343445 1555.530273,606.117126 1557.071167,604.318787 
M819.126770,628.897278 
	C817.775696,629.631470 816.343628,630.248779 815.087097,631.119385 
	C808.393250,635.757446 800.089478,635.117676 795.199036,629.519104 
	C789.785339,623.321533 789.935486,613.112366 795.528687,607.108459 
	C800.685974,601.572327 808.673584,601.329285 815.319946,606.509583 
	C816.190247,607.187866 817.048828,607.881348 818.056946,608.682312 
	C820.421021,606.124573 822.522339,603.851013 824.597656,601.605652 
	C815.179993,590.614868 797.807739,590.124573 787.529419,600.324463 
	C777.149475,610.625183 777.581055,628.261292 788.446411,637.792053 
	C799.235840,647.256287 816.241089,645.841003 825.365601,633.986267 
	C823.561951,632.489136 821.657288,630.908142 819.126770,628.897278 
M1206.075928,642.792725 
	C1208.187988,643.195007 1210.289429,643.870667 1212.413818,643.952759 
	C1222.031616,644.324219 1224.055664,642.122375 1222.713745,633.051697 
	C1220.610107,633.365906 1218.515381,633.832581 1216.400269,633.960144 
	C1212.856079,634.173828 1210.419067,632.441528 1210.327515,628.858704 
	C1210.116211,620.583679 1210.260376,612.299622 1210.260376,603.439636 
	C1214.738037,603.439636 1218.800537,603.439636 1222.823242,603.439636 
	C1222.823242,599.960022 1222.823242,597.075073 1222.823242,593.876526 
	C1218.531494,593.876526 1214.593018,593.876526 1210.175781,593.876526 
	C1210.175781,589.498230 1210.175781,585.429565 1210.175781,581.376038 
	C1206.141846,581.376038 1202.614990,581.376038 1198.832764,581.376038 
	C1198.832764,585.704895 1198.832764,589.655762 1198.832764,593.729919 
	C1196.702881,593.946716 1194.810547,594.139282 1193.073975,594.315979 
	C1193.073975,597.481995 1193.073975,600.261353 1193.073975,603.185913 
	C1195.091309,603.387207 1196.873291,603.565002 1198.998535,603.777039 
	C1198.998535,612.526184 1198.927612,621.159607 1199.025024,629.791138 
	C1199.083374,634.973145 1200.204468,639.745789 1206.075928,642.792725 
M1315.342041,642.998413 
	C1318.236450,643.438782 1318.017822,641.506409 1318.012573,639.603271 
	C1317.984375,629.300232 1317.999390,618.997070 1317.999512,608.693909 
	C1317.999512,597.936829 1317.999512,587.179688 1317.999512,576.346191 
	C1314.032593,576.346191 1310.502319,576.346191 1307.150146,576.346191 
	C1307.150146,598.710083 1307.150146,620.726807 1307.150146,642.999634 
	C1309.776245,642.999634 1312.081055,642.999634 1315.342041,642.998413 
M895.999695,639.329407 
	C895.999695,618.294556 895.999695,597.259766 895.999695,576.271118 
	C891.965393,576.271118 888.551086,576.271118 885.061646,576.271118 
	C885.061646,598.558105 885.061646,620.573181 885.061646,642.995239 
	C888.077637,642.995239 890.890137,643.209473 893.634460,642.871033 
	C894.515137,642.762451 895.215820,641.194092 895.999695,639.329407 
M1020.601318,576.001770 
	C1016.780334,575.561462 1017.854736,578.414246 1017.850098,580.299316 
	C1017.801697,599.908569 1017.813843,619.518005 1017.835938,639.127380 
	C1017.837341,640.373657 1018.061096,641.619690 1018.163574,642.681396 
	C1021.983276,642.681396 1025.387695,642.681396 1028.725586,642.681396 
	C1028.725586,620.340881 1028.725586,598.319702 1028.725586,576.000610 
	C1026.157959,576.000610 1023.860413,576.000610 1020.601318,576.001770 
M1283.821411,632.482666 
	C1283.821411,635.904419 1283.821411,639.326111 1283.821411,642.741577 
	C1287.858521,642.741577 1291.262939,642.741577 1294.790405,642.741577 
	C1294.790405,620.466675 1294.790405,598.450012 1294.790405,576.341003 
	C1291.041260,576.341003 1287.511230,576.341003 1283.821411,576.341003 
	C1283.821411,594.949463 1283.821411,613.217712 1283.821411,632.482666 
M1118.999756,616.500000 
	C1118.999756,625.243469 1118.999756,633.987000 1118.999756,642.753906 
	C1122.981812,642.753906 1126.392456,642.753906 1129.974609,642.753906 
	C1129.974609,621.161865 1129.974609,599.816528 1129.974609,578.333008 
	C1126.237793,578.333008 1122.714355,578.333008 1118.999756,578.333008 
	C1118.999756,590.943298 1118.999756,603.221619 1118.999756,616.500000 
M1329.820068,616.500000 
	C1329.820068,625.229614 1329.820068,633.959229 1329.820068,642.767456 
	C1333.808960,642.767456 1337.211548,642.767456 1340.639160,642.767456 
	C1340.639160,626.393860 1340.639160,610.254883 1340.639160,594.317505 
	C1336.859863,594.317505 1333.444946,594.317505 1329.820068,594.317505 
	C1329.820068,601.588867 1329.820068,608.544434 1329.820068,616.500000 
M1335.434570,575.987427 
	C1333.493408,575.987427 1331.552368,575.987427 1329.542358,575.987427 
	C1329.542358,579.840332 1329.542358,583.189514 1329.542358,586.680176 
	C1333.527222,586.680176 1337.133667,586.680176 1340.973877,586.680176 
	C1340.973877,583.105713 1340.973877,579.685425 1340.973877,575.987427 
	C1339.312622,575.987427 1337.833740,575.987427 1335.434570,575.987427 
z"/>
<path fill="#1B02F2" opacity="1.000000" stroke="none" 
	d="
M371.425171,560.581787 
	C383.302307,571.754211 394.930023,582.677734 406.447845,593.497986 
	C406.447845,565.343506 406.447845,536.543945 406.447845,507.188843 
	C375.733948,507.188843 344.855225,507.188843 313.726532,507.188843 
	C313.726532,468.378601 313.726532,430.122009 313.726532,391.514343 
	C414.072052,391.514343 514.262939,391.514343 614.808350,391.514343 
	C614.808350,429.192078 614.808350,466.898010 614.808350,504.884064 
	C602.876709,504.884064 590.958862,504.884064 578.491638,504.884064 
	C578.491638,480.252838 578.491638,455.682312 578.491638,430.823120 
	C502.718353,430.823120 427.492004,430.823120 351.897675,430.823120 
	C351.897675,441.970673 351.897675,453.039551 351.897675,464.692200 
	C383.600769,464.692200 415.317139,464.692200 447.279480,464.692200 
	C447.279480,539.858459 447.279480,614.445435 447.279480,690.248291 
	C442.018066,685.772766 437.018890,682.068481 432.659363,677.722473 
	C405.406372,650.554382 378.343811,623.195435 351.106720,596.011292 
	C343.922729,588.841370 336.355072,582.055237 328.947144,575.110352 
	C313.889832,560.994263 308.980530,543.830566 313.587372,523.173462 
	C324.432373,523.173462 335.375000,523.119873 346.314789,523.272461 
	C347.217285,523.285095 348.670380,524.551270 348.906921,525.479797 
	C352.496765,539.571716 360.984924,550.486694 371.425171,560.581787 
z"/>
<path fill="#1C03F2" opacity="1.000000" stroke="none" 
	d="
M481.159302,645.000000 
	C481.159302,585.533691 481.159302,526.567444 481.159302,467.217407 
	C493.997589,467.217407 506.564209,467.217407 519.674561,467.217407 
	C519.674561,507.621002 519.674561,548.159119 519.674561,589.842773 
	C524.354553,586.088318 528.205688,583.094910 531.951599,579.975159 
	C542.050293,571.564392 552.374939,563.397766 562.093628,554.566162 
	C570.460327,546.963135 576.085632,537.325256 579.900391,526.626526 
	C580.418457,525.173340 582.241821,523.189392 583.506409,523.155579 
	C593.976929,522.875610 604.458069,522.997131 615.201477,522.997131 
	C618.175293,541.313721 616.796509,558.131409 602.801331,571.816711 
	C579.940308,594.171570 557.068787,616.515869 534.262268,638.926208 
	C517.872192,655.031433 501.586334,671.242615 485.231873,687.384155 
	C484.226349,688.376587 483.026642,689.172302 481.159302,690.665649 
	C481.159302,674.995911 481.159302,660.247925 481.159302,645.000000 
z"/>
<path fill="#1A8928" opacity="1.000000" stroke="none" 
	d="
M1264.994629,500.973633 
	C1264.994629,471.700256 1264.994629,442.921448 1264.994629,414.781525 
	C1283.754272,414.781525 1302.298584,413.495911 1320.570801,415.173492 
	C1336.216187,416.609894 1344.522705,426.935760 1346.453613,441.791687 
	C1348.431396,457.008148 1342.144287,469.092987 1328.677856,475.966705 
	C1327.943726,476.341400 1327.223022,476.742188 1326.112671,477.335938 
	C1333.872559,488.796631 1341.547852,500.132294 1349.724243,512.208130 
	C1341.212280,512.208130 1333.446655,512.341125 1325.695068,512.071228 
	C1324.468750,512.028564 1323.013672,510.366791 1322.161011,509.115204 
	C1316.639160,501.008179 1311.130615,492.885712 1305.892822,484.594666 
	C1304.071167,481.711365 1302.025391,480.533386 1298.643311,480.806854 
	C1295.006592,481.100952 1291.327759,480.873322 1287.140259,480.873322 
	C1287.140259,491.198303 1287.140259,501.423126 1287.140259,511.932007 
	C1279.533203,511.932007 1272.448242,511.932007 1264.994629,511.932007 
	C1264.994629,508.405334 1264.994629,504.936768 1264.994629,500.973633 
M1286.869141,453.469238 
	C1286.869141,456.053528 1286.869141,458.637787 1286.869141,461.023346 
	C1295.932617,461.023346 1304.270020,461.457336 1312.539307,460.893188 
	C1319.839478,460.395172 1324.708984,454.424835 1324.695068,447.450470 
	C1324.680664,440.205017 1320.133179,434.612640 1312.571533,434.093811 
	C1304.188965,433.518646 1295.736572,433.962280 1286.869141,433.962280 
	C1286.869141,440.240082 1286.869141,446.359253 1286.869141,453.469238 
z"/>
<path fill="#1A8928" opacity="1.000000" stroke="none" 
	d="
M1233.139404,448.879395 
	C1240.219727,477.152039 1225.072876,504.426727 1198.496582,511.831207 
	C1170.030151,519.762329 1141.355957,505.367340 1133.224243,479.063354 
	C1124.671997,451.398224 1139.446411,422.739563 1166.550415,414.419495 
	C1195.572876,405.510468 1224.329346,420.241058 1233.139404,448.879395 
M1157.186768,447.880798 
	C1156.305542,450.379791 1155.208252,452.825562 1154.577515,455.386230 
	C1149.740723,475.023041 1164.117188,494.127045 1183.409424,493.797607 
	C1197.792847,493.552002 1209.460693,483.190826 1211.843018,468.548157 
	C1214.266357,453.654785 1206.286743,438.974152 1193.123047,434.107422 
	C1179.376343,429.025146 1165.328979,434.216125 1157.186768,447.880798 
z"/>
<path fill="#1A8928" opacity="1.000000" stroke="none" 
	d="
M1581.999512,433.221069 
	C1573.844727,433.220978 1566.190186,433.220978 1558.271484,433.220978 
	C1558.271484,439.738159 1558.271484,446.007782 1558.271484,452.727295 
	C1573.200562,452.727295 1588.265137,452.727295 1603.666138,452.727295 
	C1603.666138,459.401794 1603.666138,465.644958 1603.666138,472.378601 
	C1588.722534,472.378601 1573.652100,472.378601 1558.295898,472.378601 
	C1558.295898,479.288544 1558.295898,485.721222 1558.295898,492.609070 
	C1575.672974,492.609070 1593.066162,492.609070 1610.730957,492.609070 
	C1610.730957,499.300201 1610.730957,505.546783 1610.730957,512.010071 
	C1586.130249,512.010071 1561.541260,512.010071 1536.667725,512.010071 
	C1536.667725,479.400818 1536.667725,446.990265 1536.667725,414.177673 
	C1560.959106,414.177673 1585.319702,414.177673 1609.952393,414.177673 
	C1609.952393,420.303497 1609.952393,426.533356 1609.952393,433.221130 
	C1600.729492,433.221130 1591.614502,433.221130 1581.999512,433.221069 
z"/>
<path fill="#198927" opacity="1.000000" stroke="none" 
	d="
M935.971558,503.070496 
	C932.173523,512.202271 932.173523,512.202209 922.446838,512.202209 
	C918.483582,512.202148 914.520386,512.202209 909.987488,512.202209 
	C915.559265,498.961182 920.882385,486.279205 926.231079,473.608032 
	C934.175476,454.787415 942.192505,435.997101 950.036194,417.134674 
	C951.267029,414.174622 952.610229,412.568085 956.165039,412.911774 
	C961.404297,413.418243 967.842041,411.589325 971.638733,414.046814 
	C975.240479,416.378113 976.152527,422.923004 978.157959,427.652954 
	C989.307739,453.951355 1000.433350,480.259979 1011.554810,506.570343 
	C1012.250549,508.216309 1012.839478,509.907379 1013.716553,512.201172 
	C1006.470947,512.201172 999.852234,512.339355 993.250061,512.070618 
	C992.096802,512.023682 990.535645,510.481720 989.980042,509.259003 
	C987.575867,503.967072 985.616272,498.471527 983.163330,493.204437 
	C982.558655,491.906036 980.721680,490.354553 979.427185,490.332581 
	C966.774658,490.118073 954.117065,490.203369 941.285828,490.203369 
	C939.516052,494.443878 937.793823,498.570251 935.971558,503.070496 
M962.981079,442.760895 
	C962.513855,441.982452 962.046692,441.204010 961.401001,440.128204 
	C957.414246,450.039978 953.576355,459.568512 949.762451,469.106659 
	C949.589417,469.539520 949.632935,470.058990 949.578430,470.514404 
	C957.678101,470.514404 965.694214,470.514404 974.247803,470.514404 
	C970.428955,461.196045 966.795715,452.330505 962.981079,442.760895 
z"/>
<path fill="#1A8928" opacity="1.000000" stroke="none" 
	d="
M814.702087,499.068481 
	C814.363159,498.093933 813.976807,497.068939 814.325500,496.636078 
	C818.172913,491.860413 822.134521,487.176788 825.620483,483.000977 
	C831.923401,486.259491 837.491394,490.269409 843.696655,492.018066 
	C849.537842,493.664124 856.079285,493.414337 862.257935,493.055939 
	C866.045044,492.836243 868.765564,490.060669 869.151062,485.702301 
	C869.539246,481.314423 867.266357,478.655548 863.580139,477.250031 
	C858.472656,475.302673 853.211853,473.753815 848.003052,472.076843 
	C844.056335,470.806213 840.008850,469.809509 836.144104,468.330658 
	C822.802795,463.225708 816.941162,455.028015 817.140564,442.109558 
	C817.340881,429.133728 824.588623,418.699768 837.285461,414.709991 
	C855.826965,408.883575 872.559631,413.420258 888.263672,424.765656 
	C884.380249,430.433502 880.746887,435.736359 877.147278,440.990051 
	C871.826233,438.442017 866.992615,435.305573 861.696411,433.830200 
	C856.737549,432.448792 851.253052,432.279266 846.066895,432.614136 
	C842.289795,432.857910 839.364380,435.537689 839.026978,439.862762 
	C838.691467,444.162018 841.043152,446.849762 844.792114,448.225708 
	C849.613953,449.995422 854.581482,451.363342 859.446411,453.021393 
	C865.091431,454.945374 870.867493,456.610687 876.282898,459.060059 
	C897.706604,468.749786 893.914490,498.916351 877.906494,507.945557 
	C865.336060,515.035767 852.159363,514.848877 838.717163,511.557861 
	C829.858276,509.389008 821.994812,505.138458 814.702087,499.068481 
z"/>
<path fill="#198927" opacity="1.000000" stroke="none" 
	d="
M1052.950928,503.103699 
	C1041.101196,473.330353 1029.355347,443.928802 1017.320862,413.804749 
	C1025.188354,413.804749 1032.299805,413.614807 1039.382202,413.982849 
	C1040.631348,414.047791 1042.282471,416.247650 1042.864136,417.794006 
	C1050.283813,437.523590 1057.540649,457.314392 1064.844727,477.087524 
	C1065.341553,478.432404 1065.883911,479.760468 1066.830811,482.187653 
	C1069.474731,475.062653 1071.763550,468.902435 1074.046997,462.740295 
	C1079.641357,447.643707 1085.328247,432.580200 1090.742676,417.419342 
	C1091.775146,414.528687 1093.153931,413.634186 1096.093872,413.732361 
	C1102.364136,413.941711 1108.646362,413.796387 1115.399414,413.796387 
	C1114.750000,415.791199 1114.374878,417.207977 1113.835938,418.559540 
	C1101.906372,448.479706 1089.862549,478.355164 1078.133301,508.353516 
	C1076.629150,512.200439 1074.766357,513.635559 1070.904785,513.031311 
	C1069.766602,512.853210 1068.577026,513.003967 1067.411011,513.003967 
	C1057.091431,513.004028 1057.091431,513.004028 1052.950928,503.103699 
z"/>
<path fill="#1A8928" opacity="1.000000" stroke="none" 
	d="
M730.991028,434.005249 
	C725.033569,434.005249 719.573181,434.005249 713.947571,434.005249 
	C713.947571,427.166870 713.947571,420.724121 713.947571,414.028992 
	C740.843567,414.028992 767.574158,414.028992 794.589478,414.028992 
	C794.589478,420.518616 794.589478,426.918579 794.589478,433.793152 
	C785.048523,433.793152 775.474060,433.793152 765.373718,433.793152 
	C765.373718,460.092102 765.373718,485.929016 765.373718,511.991455 
	C757.923584,511.991455 751.003662,511.991455 743.643555,511.991455 
	C743.643555,486.181885 743.643555,460.462463 743.643555,434.005249 
	C739.310242,434.005249 735.399170,434.005249 730.991028,434.005249 
z"/>
<path fill="#198928" opacity="1.000000" stroke="none" 
	d="
M1491.013184,434.004669 
	C1487.049194,434.004669 1483.583008,434.004669 1479.734863,434.004669 
	C1479.734863,460.138885 1479.734863,485.873657 1479.734863,511.914124 
	C1472.414062,511.914124 1465.472656,511.914124 1458.021606,511.914124 
	C1458.021606,486.247925 1458.021606,460.375946 1458.021606,434.184265 
	C1447.919312,434.184265 1438.313354,434.184265 1428.352905,434.184265 
	C1428.352905,427.313263 1428.352905,420.752075 1428.352905,413.981293 
	C1455.047241,413.981293 1481.806152,413.981293 1508.785156,413.981293 
	C1508.785156,420.524200 1508.785156,426.951416 1508.785156,434.004669 
	C1503.026367,434.004669 1497.268799,434.004669 1491.013184,434.004669 
z"/>
<path fill="#1C8A2A" opacity="1.000000" stroke="none" 
	d="
M1378.006470,415.493805 
	C1379.278809,414.617706 1380.530273,413.858704 1381.798584,413.829895 
	C1387.584106,413.698486 1393.374512,413.772156 1399.390869,413.772156 
	C1399.390869,446.664764 1399.390869,479.070862 1399.390869,511.853455 
	C1392.358765,511.853455 1385.320435,511.853455 1377.993408,511.853455 
	C1377.993408,479.842255 1377.993408,447.894684 1378.006470,415.493805 
z"/>
<path fill="#1F05F3" opacity="1.000000" stroke="none" 
	d="
M1374.970703,658.008240 
	C1367.078735,657.848206 1360.045288,656.313232 1353.301880,652.159241 
	C1354.630615,649.358948 1355.882324,646.721375 1357.130127,644.091736 
	C1378.814575,653.403198 1391.531372,648.343018 1389.593140,631.414062 
	C1377.260132,641.105042 1365.500977,641.385437 1356.803833,632.196045 
	C1349.013428,623.964600 1348.718506,609.336975 1356.165161,600.514709 
	C1364.260254,590.924133 1376.064575,590.683411 1389.792847,600.053040 
	C1389.907837,598.111938 1390.011719,596.360779 1390.133911,594.300049 
	C1393.524658,594.300049 1396.939575,594.300049 1401.008667,594.300049 
	C1401.008667,599.929382 1401.008789,605.694153 1401.008667,611.458923 
	C1401.008667,618.125000 1401.012939,624.791138 1401.007568,631.457214 
	C1400.993164,649.528381 1393.401001,657.411255 1374.970703,658.008240 
M1372.439209,602.829102 
	C1364.190063,605.545593 1360.430054,611.834778 1362.457520,619.524780 
	C1364.268921,626.394592 1370.906616,630.539673 1378.136719,629.315918 
	C1386.115234,627.965454 1390.790161,622.008301 1389.967896,614.240051 
	C1389.151611,606.528381 1382.562866,601.975464 1372.439209,602.829102 
z"/>
<path fill="#1F05F3" opacity="1.000000" stroke="none" 
	d="
M975.845093,595.761414 
	C986.620361,590.436829 997.686279,593.472900 1004.044434,603.220764 
	C1013.850220,618.254456 1006.616211,639.553772 990.372192,643.476379 
	C983.668457,645.095154 979.385376,643.823242 969.575256,637.047363 
	C969.358887,639.061890 969.180420,640.723511 968.968140,642.699463 
	C965.592712,642.699463 962.176514,642.699463 958.371948,642.699463 
	C958.371948,620.750732 958.371948,598.586792 958.371948,576.205933 
	C961.828003,576.205933 965.239807,576.205933 969.157349,576.205933 
	C969.157349,584.244385 969.157349,592.146851 969.157349,600.987061 
	C971.780823,598.906128 973.646057,597.426697 975.845093,595.761414 
M989.731995,632.612488 
	C990.865234,631.650635 992.177307,630.834717 993.101562,629.702271 
	C997.622925,624.162537 998.109192,617.916199 995.620789,611.460510 
	C993.687805,606.445679 989.912964,603.383667 984.433044,602.867920 
	C978.450134,602.304688 973.215820,605.218079 970.737000,610.729187 
	C967.788940,617.283508 968.176819,623.674011 972.800720,629.408752 
	C976.718201,634.267334 982.006348,635.326843 989.731995,632.612488 
z"/>
<path fill="#1F06F3" opacity="1.000000" stroke="none" 
	d="
M730.898926,626.773560 
	C732.514526,627.028625 734.083008,627.314697 735.254517,628.154480 
	C741.162109,632.389282 747.621826,634.668030 754.915955,633.765015 
	C759.317139,633.220215 763.114441,631.375061 763.698975,626.382202 
	C764.273926,621.470764 760.894592,619.184448 756.854492,617.864502 
	C751.803162,616.214111 746.596558,615.026062 741.580750,613.282349 
	C731.204529,609.675171 727.252075,604.135803 727.834045,594.574585 
	C728.364624,585.857971 734.226868,579.575073 744.097412,577.681458 
	C754.654907,575.656128 764.130920,578.364807 773.017578,585.054321 
	C771.080811,587.893372 769.263611,590.557190 767.467224,593.190491 
	C763.223511,591.331360 759.325195,588.895569 755.099182,587.991455 
	C751.395020,587.198975 747.085449,587.402527 743.506958,588.577820 
	C741.520508,589.230286 739.470215,592.708374 739.322388,595.032043 
	C739.192139,597.080078 741.183228,600.078125 743.098694,601.254333 
	C746.133179,603.117798 749.883789,603.818542 753.335999,604.997742 
	C757.102783,606.284363 760.985901,607.300964 764.621033,608.887268 
	C771.759644,612.002625 775.406006,617.565369 774.983887,625.465576 
	C774.560852,633.383362 770.592712,638.936707 763.276855,641.945984 
	C751.668457,646.721008 734.855225,643.010559 725.442444,633.394775 
	C727.150330,631.324585 728.909546,629.192261 730.898926,626.773560 
z"/>
<path fill="#1F06F3" opacity="1.000000" stroke="none" 
	d="
M1442.146118,632.637146 
	C1443.798828,631.428833 1445.124268,630.428894 1446.823364,629.147095 
	C1448.823486,630.888855 1450.902954,632.699646 1452.960571,634.491455 
	C1444.875732,646.359131 1425.398560,647.301880 1415.139893,636.536743 
	C1407.465820,628.483765 1406.126831,614.456177 1412.084717,604.526855 
	C1417.783081,595.029480 1428.344971,590.928589 1439.229492,593.987122 
	C1450.039429,597.024719 1456.302368,607.895264 1455.177612,622.416931 
	C1443.552734,622.416931 1431.852173,622.416931 1420.094238,622.416931 
	C1421.374023,633.290283 1430.555176,637.433533 1442.146118,632.637146 
M1440.693359,605.852722 
	C1436.715088,601.858215 1431.939819,600.992065 1427.013062,603.322205 
	C1422.413940,605.497314 1420.094360,609.540405 1419.781616,614.821289 
	C1428.117798,614.821289 1436.035889,614.821289 1445.007202,614.821289 
	C1443.561523,611.669739 1442.363647,609.058289 1440.693359,605.852722 
z"/>
<path fill="#1F06F3" opacity="1.000000" stroke="none" 
	d="
M1041.214355,604.302246 
	C1048.730225,593.897827 1059.468750,590.430786 1070.236328,594.676147 
	C1079.979492,598.517578 1085.510498,609.338928 1084.068604,622.360107 
	C1072.570557,622.360107 1061.003174,622.360107 1048.976685,622.360107 
	C1049.347900,627.809143 1051.731812,631.323303 1056.070312,633.288757 
	C1063.300293,636.564392 1069.665894,634.560913 1075.750610,629.106140 
	C1077.786011,630.849854 1079.866577,632.632263 1081.923950,634.394836 
	C1077.259033,641.834412 1067.022705,645.551697 1057.220215,643.522705 
	C1046.825684,641.371155 1039.583130,634.019836 1037.862793,623.873596 
	C1036.713135,617.092712 1037.576416,610.642517 1041.214355,604.302246 
M1063.468384,614.999329 
	C1066.619141,614.999329 1069.769897,614.999329 1072.928223,614.999329 
	C1072.664429,607.184265 1067.891235,602.141724 1061.057861,602.180237 
	C1054.307617,602.218323 1049.391846,607.346802 1049.033936,614.999268 
	C1053.524536,614.999268 1058.004150,614.999268 1063.468384,614.999329 
z"/>
<path fill="#1F06F3" opacity="1.000000" stroke="none" 
	d="
M1263.572510,596.322510 
	C1272.698608,602.820984 1274.810913,611.796143 1274.398071,622.425659 
	C1262.484375,622.425659 1250.909790,622.425659 1238.955444,622.425659 
	C1239.380371,627.864746 1241.784912,631.425110 1246.165161,633.340454 
	C1253.393311,636.501160 1259.791626,634.591492 1265.760376,629.049377 
	C1267.834473,630.870667 1269.902954,632.687073 1271.953857,634.488037 
	C1265.222046,644.479187 1249.922485,647.057678 1238.814941,640.259216 
	C1227.675415,633.441223 1223.931641,617.547180 1230.605103,605.405762 
	C1237.149292,593.499756 1250.330811,589.749146 1263.572510,596.322510 
M1253.770874,602.438721 
	C1244.721436,601.696472 1239.123047,606.424622 1239.176025,614.839233 
	C1247.098999,614.839233 1255.021729,614.839233 1263.314697,614.839233 
	C1262.604248,608.947693 1260.311279,604.587524 1253.770874,602.438721 
z"/>
<path fill="#1F06F3" opacity="1.000000" stroke="none" 
	d="
M1579.491455,631.724609 
	C1587.789673,637.133606 1594.921021,634.991272 1601.858154,629.133484 
	C1603.947388,630.968384 1606.018433,632.787415 1608.065430,634.585266 
	C1601.356445,643.323914 1589.712891,646.324707 1579.077759,642.335083 
	C1568.804810,638.481445 1562.576660,628.446411 1563.424316,617.113586 
	C1564.701172,600.042358 1578.326538,589.696533 1593.950684,593.934814 
	C1605.126221,596.966431 1611.785156,608.520142 1610.004761,622.403931 
	C1598.513428,622.403931 1586.942017,622.403931 1573.641357,622.403931 
	C1575.938599,626.169800 1577.559814,628.827271 1579.491455,631.724609 
M1581.370605,603.584656 
	C1577.384033,606.174194 1575.063721,609.726562 1574.831665,614.727905 
	C1583.010986,614.727905 1591.008423,614.727905 1599.027466,614.727905 
	C1598.136475,604.709778 1591.714966,600.449097 1581.370605,603.584656 
z"/>
<path fill="#1F05F3" opacity="1.000000" stroke="none" 
	d="
M948.003723,640.776611 
	C946.398132,641.840393 944.837219,642.668823 943.184326,642.942444 
	C941.409790,643.236206 939.548889,643.008667 937.322693,643.008667 
	C937.128357,641.379333 936.945740,639.848083 936.889282,639.374512 
	C931.622925,640.897034 926.308777,643.429871 920.851501,643.789246 
	C911.508545,644.404419 904.784546,638.376831 904.027832,630.266235 
	C903.213806,621.540283 908.417603,614.887146 918.171692,613.596924 
	C924.154419,612.805542 930.327148,613.450562 936.620056,613.450562 
	C938.119507,603.752686 929.481995,600.610474 911.187561,605.794067 
	C910.266785,603.040771 909.340759,600.271973 908.272095,597.076477 
	C917.985901,592.904724 927.590332,591.094360 937.448120,595.068298 
	C945.262207,598.218262 947.770813,605.055176 947.954773,612.820923 
	C948.171570,621.974854 948.007080,631.137878 948.003723,640.776611 
M930.008667,620.416931 
	C926.564575,620.718445 922.757812,620.228333 919.796692,621.584412 
	C917.622498,622.580200 915.427551,625.953186 915.338196,628.345032 
	C915.260742,630.417847 917.682373,633.521667 919.789001,634.546265 
	C924.405762,636.791565 929.661499,636.160095 933.292114,632.610107 
	C935.472961,630.477600 936.248779,626.635193 936.840271,623.411560 
	C936.942200,622.856323 932.955322,621.550842 930.008667,620.416931 
z"/>
<path fill="#1F05F3" opacity="1.000000" stroke="none" 
	d="
M830.598816,633.055664 
	C828.856628,622.078247 833.231567,615.248962 843.755676,613.706116 
	C849.874634,612.809143 856.232605,613.542908 862.795288,613.542908 
	C864.672668,606.238586 855.979431,598.602417 837.239807,606.065796 
	C836.281433,603.169739 835.332520,600.302185 834.286804,597.142212 
	C843.546082,592.893799 852.723877,591.438843 862.188965,594.543518 
	C870.188721,597.167603 873.560486,603.614197 873.852295,611.467896 
	C874.234863,621.762756 873.946106,632.082581 873.946106,642.699585 
	C870.367310,642.699585 866.959351,642.699585 863.137756,642.699585 
	C863.045166,641.270386 862.946350,639.745544 862.802490,637.524902 
	C856.101868,643.615356 848.864380,645.446045 840.756958,643.000793 
	C835.850037,641.520813 832.287903,638.496582 830.598816,633.055664 
M844.591248,621.905640 
	C840.575867,625.553711 839.842285,629.403870 842.556763,632.583496 
	C845.100281,635.562866 851.052307,636.546265 856.014587,634.666321 
	C860.209778,633.077026 862.799866,630.203979 863.216614,625.504944 
	C863.452148,622.848206 862.508667,621.192383 859.890198,621.164551 
	C855.019226,621.112610 850.144836,621.376831 844.591248,621.905640 
z"/>
<path fill="#1C03F2" opacity="1.000000" stroke="none" 
	d="
M1463.997314,615.000122 
	C1463.997314,607.868225 1463.997314,601.236328 1463.997314,594.302246 
	C1467.799194,594.302246 1471.356567,594.302246 1475.033691,594.302246 
	C1475.134155,596.174072 1475.228516,597.934021 1475.366211,600.502014 
	C1476.535278,599.459351 1477.201416,598.894714 1477.834961,598.295532 
	C1483.613525,592.829834 1490.351318,591.541199 1497.667480,594.289978 
	C1504.781006,596.962585 1507.660034,602.951965 1507.874146,610.020325 
	C1508.200806,620.800903 1507.959595,631.598633 1507.959595,642.695557 
	C1504.367310,642.695557 1500.959595,642.695557 1496.822021,642.695557 
	C1496.822021,636.093323 1496.823486,629.359009 1496.821289,622.624634 
	C1496.820435,619.796814 1496.959595,616.959473 1496.777588,614.143127 
	C1496.326782,607.171143 1492.482910,603.199219 1486.376587,603.182983 
	C1479.852417,603.165649 1475.470093,607.465698 1475.236206,614.651123 
	C1475.003784,621.796326 1475.183472,628.954956 1475.182617,636.107666 
	C1475.182373,638.237671 1475.182617,640.367615 1475.182617,642.744507 
	C1471.421265,642.744507 1468.005005,642.744507 1463.997314,642.744507 
	C1463.997314,633.670349 1463.997314,624.585266 1463.997314,615.000122 
z"/>
<path fill="#1C03F2" opacity="1.000000" stroke="none" 
	d="
M1154.812134,611.238464 
	C1154.538574,619.944580 1154.353760,628.244751 1154.190308,636.545349 
	C1154.151611,638.513062 1154.184570,640.482239 1154.184570,642.725586 
	C1150.463135,642.725586 1147.043823,642.725586 1143.308105,642.725586 
	C1143.308105,626.731995 1143.308105,610.679443 1143.308105,594.311157 
	C1146.783936,594.311157 1150.344604,594.311157 1154.085205,594.311157 
	C1154.085205,596.203613 1154.085205,598.016968 1154.085205,600.636169 
	C1155.330811,599.573914 1156.112061,598.961853 1156.832275,598.284912 
	C1162.459839,592.994934 1169.004883,591.619141 1176.216675,594.123535 
	C1183.421997,596.625671 1186.568481,602.464111 1186.820312,609.551575 
	C1187.209351,620.496033 1186.922852,631.464478 1186.922852,642.712280 
	C1183.330444,642.712280 1179.920654,642.712280 1175.815552,642.712280 
	C1175.815552,635.715088 1175.816406,628.638977 1175.814941,621.562805 
	C1175.814453,619.066284 1175.943848,616.560730 1175.777344,614.075134 
	C1175.368408,607.974854 1172.269409,604.116272 1167.292725,603.271912 
	C1161.689209,602.321228 1157.521362,604.865723 1154.812134,611.238464 
z"/>
<path fill="#2108F3" opacity="1.000000" stroke="none" 
	d="
M1556.847778,604.604797 
	C1555.530273,606.117126 1554.436035,607.343445 1553.025391,608.924500 
	C1548.779541,604.546753 1543.983887,601.743835 1538.197754,603.126770 
	C1535.313843,603.816040 1532.254028,605.520447 1530.216064,607.662231 
	C1524.575684,613.590271 1525.004395,624.129700 1530.616943,629.978271 
	C1536.372681,635.976379 1544.382812,635.496155 1553.769653,628.290161 
	C1555.535522,630.570984 1557.347412,632.911255 1559.253784,635.373474 
	C1551.868896,645.620239 1534.946533,647.292053 1523.936768,638.178284 
	C1512.845703,628.997253 1511.970825,611.248657 1522.092529,600.759521 
	C1532.304810,590.176086 1549.792969,590.414795 1559.533569,601.491516 
	C1558.731567,602.412354 1557.901367,603.365601 1556.847778,604.604797 
z"/>
<path fill="#2108F3" opacity="1.000000" stroke="none" 
	d="
M819.439697,629.112183 
	C821.657288,630.908142 823.561951,632.489136 825.365601,633.986267 
	C816.241089,645.841003 799.235840,647.256287 788.446411,637.792053 
	C777.581055,628.261292 777.149475,610.625183 787.529419,600.324463 
	C797.807739,590.124573 815.179993,590.614868 824.597656,601.605652 
	C822.522339,603.851013 820.421021,606.124573 818.056946,608.682312 
	C817.048828,607.881348 816.190247,607.187866 815.319946,606.509583 
	C808.673584,601.329285 800.685974,601.572327 795.528687,607.108459 
	C789.935486,613.112366 789.785339,623.321533 795.199036,629.519104 
	C800.089478,635.117676 808.393250,635.757446 815.087097,631.119385 
	C816.343628,630.248779 817.775696,629.631470 819.439697,629.112183 
z"/>
<path fill="#1C03F2" opacity="1.000000" stroke="none" 
	d="
M1205.737915,642.591064 
	C1200.204468,639.745789 1199.083374,634.973145 1199.025024,629.791138 
	C1198.927612,621.159607 1198.998535,612.526184 1198.998535,603.777039 
	C1196.873291,603.565002 1195.091309,603.387207 1193.073975,603.185913 
	C1193.073975,600.261353 1193.073975,597.481995 1193.073975,594.315979 
	C1194.810547,594.139282 1196.702881,593.946716 1198.832764,593.729919 
	C1198.832764,589.655762 1198.832764,585.704895 1198.832764,581.376038 
	C1202.614990,581.376038 1206.141846,581.376038 1210.175781,581.376038 
	C1210.175781,585.429565 1210.175781,589.498230 1210.175781,593.876526 
	C1214.593018,593.876526 1218.531494,593.876526 1222.823242,593.876526 
	C1222.823242,597.075073 1222.823242,599.960022 1222.823242,603.439636 
	C1218.800537,603.439636 1214.738037,603.439636 1210.260376,603.439636 
	C1210.260376,612.299622 1210.116211,620.583679 1210.327515,628.858704 
	C1210.419067,632.441528 1212.856079,634.173828 1216.400269,633.960144 
	C1218.515381,633.832581 1220.610107,633.365906 1222.713745,633.051697 
	C1224.055664,642.122375 1222.031616,644.324219 1212.413818,643.952759 
	C1210.289429,643.870667 1208.187988,643.195007 1205.737915,642.591064 
z"/>
<path fill="#1B01F2" opacity="1.000000" stroke="none" 
	d="
M1314.864014,642.999023 
	C1312.081055,642.999634 1309.776245,642.999634 1307.150146,642.999634 
	C1307.150146,620.726807 1307.150146,598.710083 1307.150146,576.346191 
	C1310.502319,576.346191 1314.032593,576.346191 1317.999512,576.346191 
	C1317.999512,587.179688 1317.999512,597.936829 1317.999512,608.693909 
	C1317.999390,618.997070 1317.984375,629.300232 1318.012573,639.603271 
	C1318.017822,641.506409 1318.236450,643.438782 1314.864014,642.999023 
z"/>
<path fill="#1B01F2" opacity="1.000000" stroke="none" 
	d="
M895.999268,639.811401 
	C895.215820,641.194092 894.515137,642.762451 893.634460,642.871033 
	C890.890137,643.209473 888.077637,642.995239 885.061646,642.995239 
	C885.061646,620.573181 885.061646,598.558105 885.061646,576.271118 
	C888.551086,576.271118 891.965393,576.271118 895.999695,576.271118 
	C895.999695,597.259766 895.999695,618.294556 895.999268,639.811401 
z"/>
<path fill="#1B01F2" opacity="1.000000" stroke="none" 
	d="
M1021.082031,576.001221 
	C1023.860413,576.000610 1026.157959,576.000610 1028.725586,576.000610 
	C1028.725586,598.319702 1028.725586,620.340881 1028.725586,642.681396 
	C1025.387695,642.681396 1021.983276,642.681396 1018.163574,642.681396 
	C1018.061096,641.619690 1017.837341,640.373657 1017.835938,639.127380 
	C1017.813843,619.518005 1017.801697,599.908569 1017.850098,580.299316 
	C1017.854736,578.414246 1016.780334,575.561462 1021.082031,576.001221 
z"/>
<path fill="#1B01F2" opacity="1.000000" stroke="none" 
	d="
M1283.821411,631.984314 
	C1283.821411,613.217712 1283.821411,594.949463 1283.821411,576.341003 
	C1287.511230,576.341003 1291.041260,576.341003 1294.790405,576.341003 
	C1294.790405,598.450012 1294.790405,620.466675 1294.790405,642.741577 
	C1291.262939,642.741577 1287.858521,642.741577 1283.821411,642.741577 
	C1283.821411,639.326111 1283.821411,635.904419 1283.821411,631.984314 
z"/>
<path fill="#1B01F2" opacity="1.000000" stroke="none" 
	d="
M1118.999756,616.000000 
	C1118.999756,603.221619 1118.999756,590.943298 1118.999756,578.333008 
	C1122.714355,578.333008 1126.237793,578.333008 1129.974609,578.333008 
	C1129.974609,599.816528 1129.974609,621.161865 1129.974609,642.753906 
	C1126.392456,642.753906 1122.981812,642.753906 1118.999756,642.753906 
	C1118.999756,633.987000 1118.999756,625.243469 1118.999756,616.000000 
z"/>
<path fill="#1B01F2" opacity="1.000000" stroke="none" 
	d="
M1329.820068,616.000000 
	C1329.820068,608.544434 1329.820068,601.588867 1329.820068,594.317505 
	C1333.444946,594.317505 1336.859863,594.317505 1340.639160,594.317505 
	C1340.639160,610.254883 1340.639160,626.393860 1340.639160,642.767456 
	C1337.211548,642.767456 1333.808960,642.767456 1329.820068,642.767456 
	C1329.820068,633.959229 1329.820068,625.229614 1329.820068,616.000000 
z"/>
<path fill="#2108F3" opacity="1.000000" stroke="none" 
	d="
M1335.894775,575.987427 
	C1337.833740,575.987427 1339.312622,575.987427 1340.973877,575.987427 
	C1340.973877,579.685425 1340.973877,583.105713 1340.973877,586.680176 
	C1337.133667,586.680176 1333.527222,586.680176 1329.542358,586.680176 
	C1329.542358,583.189514 1329.542358,579.840332 1329.542358,575.987427 
	C1331.552368,575.987427 1333.493408,575.987427 1335.894775,575.987427 
z"/>
<path fill="#FDFEFD" opacity="1.000000" stroke="none" 
	d="
M1286.869141,452.973816 
	C1286.869141,446.359253 1286.869141,440.240082 1286.869141,433.962280 
	C1295.736572,433.962280 1304.188965,433.518646 1312.571533,434.093811 
	C1320.133179,434.612640 1324.680664,440.205017 1324.695068,447.450470 
	C1324.708984,454.424835 1319.839478,460.395172 1312.539307,460.893188 
	C1304.270020,461.457336 1295.932617,461.023346 1286.869141,461.023346 
	C1286.869141,458.637787 1286.869141,456.053528 1286.869141,452.973816 
z"/>
<path fill="#FDFEFD" opacity="1.000000" stroke="none" 
	d="
M1157.384766,447.560730 
	C1165.328979,434.216125 1179.376343,429.025146 1193.123047,434.107422 
	C1206.286743,438.974152 1214.266357,453.654785 1211.843018,468.548157 
	C1209.460693,483.190826 1197.792847,493.552002 1183.409424,493.797607 
	C1164.117188,494.127045 1149.740723,475.023041 1154.577515,455.386230 
	C1155.208252,452.825562 1156.305542,450.379791 1157.384766,447.560730 
z"/>
<path fill="#F6FBF7" opacity="1.000000" stroke="none" 
	d="
M963.071777,443.112946 
	C966.795715,452.330505 970.428955,461.196045 974.247803,470.514404 
	C965.694214,470.514404 957.678101,470.514404 949.578430,470.514404 
	C949.632935,470.058990 949.589417,469.539520 949.762451,469.106659 
	C953.576355,459.568512 957.414246,450.039978 961.401001,440.128204 
	C962.046692,441.204010 962.513855,441.982452 963.071777,443.112946 
z"/>
<path fill="#FAFAFF" opacity="1.000000" stroke="none" 
	d="
M1372.819946,602.741455 
	C1382.562866,601.975464 1389.151611,606.528381 1389.967896,614.240051 
	C1390.790161,622.008301 1386.115234,627.965454 1378.136719,629.315918 
	C1370.906616,630.539673 1364.268921,626.394592 1362.457520,619.524780 
	C1360.430054,611.834778 1364.190063,605.545593 1372.819946,602.741455 
z"/>
<path fill="#FCFCFF" opacity="1.000000" stroke="none" 
	d="
M989.377441,632.783569 
	C982.006348,635.326843 976.718201,634.267334 972.800720,629.408752 
	C968.176819,623.674011 967.788940,617.283508 970.737000,610.729187 
	C973.215820,605.218079 978.450134,602.304688 984.433044,602.867920 
	C989.912964,603.383667 993.687805,606.445679 995.620789,611.460510 
	C998.109192,617.916199 997.622925,624.162537 993.101562,629.702271 
	C992.177307,630.834717 990.865234,631.650635 989.377441,632.783569 
z"/>
<path fill="#FAFAFF" opacity="1.000000" stroke="none" 
	d="
M1440.929565,606.149780 
	C1442.363647,609.058289 1443.561523,611.669739 1445.007202,614.821289 
	C1436.035889,614.821289 1428.117798,614.821289 1419.781616,614.821289 
	C1420.094360,609.540405 1422.413940,605.497314 1427.013062,603.322205 
	C1431.939819,600.992065 1436.715088,601.858215 1440.929565,606.149780 
z"/>
<path fill="#FAFAFF" opacity="1.000000" stroke="none" 
	d="
M1062.976074,614.999268 
	C1058.004150,614.999268 1053.524536,614.999268 1049.033936,614.999268 
	C1049.391846,607.346802 1054.307617,602.218323 1061.057861,602.180237 
	C1067.891235,602.141724 1072.664429,607.184265 1072.928223,614.999329 
	C1069.769897,614.999329 1066.619141,614.999329 1062.976074,614.999268 
z"/>
<path fill="#FAFAFF" opacity="1.000000" stroke="none" 
	d="
M1254.147949,602.558228 
	C1260.311279,604.587524 1262.604248,608.947693 1263.314697,614.839233 
	C1255.021729,614.839233 1247.098999,614.839233 1239.176025,614.839233 
	C1239.123047,606.424622 1244.721436,601.696472 1254.147949,602.558228 
z"/>
<path fill="#FAFAFF" opacity="1.000000" stroke="none" 
	d="
M1581.702759,603.390991 
	C1591.714966,600.449097 1598.136475,604.709778 1599.027466,614.727905 
	C1591.008423,614.727905 1583.010986,614.727905 1574.831665,614.727905 
	C1575.063721,609.726562 1577.384033,606.174194 1581.702759,603.390991 
z"/>
<path fill="#F7F6FE" opacity="1.000000" stroke="none" 
	d="
M930.432922,620.504395 
	C932.955322,621.550842 936.942200,622.856323 936.840271,623.411560 
	C936.248779,626.635193 935.472961,630.477600 933.292114,632.610107 
	C929.661499,636.160095 924.405762,636.791565 919.789001,634.546265 
	C917.682373,633.521667 915.260742,630.417847 915.338196,628.345032 
	C915.427551,625.953186 917.622498,622.580200 919.796692,621.584412 
	C922.757812,620.228333 926.564575,620.718445 930.432922,620.504395 
z"/>
<path fill="#F7F6FE" opacity="1.000000" stroke="none" 
	d="
M844.931580,621.707520 
	C850.144836,621.376831 855.019226,621.112610 859.890198,621.164551 
	C862.508667,621.192383 863.452148,622.848206 863.216614,625.504944 
	C862.799866,630.203979 860.209778,633.077026 856.014587,634.666321 
	C851.052307,636.546265 845.100281,635.562866 842.556763,632.583496 
	C839.842285,629.403870 840.575867,625.553711 844.931580,621.707520 
z"/>
</svg>