<?xml version="1.0" encoding="utf-8"?>
<!-- Generator: Adobe Illustrator 24.0.1, SVG Export Plug-In . SVG Version: 6.00 Build 0)  -->
<svg version="1.1" id="Layer_1" xmlns="http://www.w3.org/2000/svg" xmlns:xlink="http://www.w3.org/1999/xlink" x="0px" y="0px"
	 viewBox="0 0 436.7 111" style="enable-background:new 0 0 436.7 111;" xml:space="preserve">
<style type="text/css">
	.st0{fill:#1D252D;}
	.st1{fill-rule:evenodd;clip-rule:evenodd;fill:#FFFFFF;}
	.st2{fill-rule:evenodd;clip-rule:evenodd;fill:#1D252D;}
	.st3{fill-rule:evenodd;clip-rule:evenodd;fill:#D0D3D4;}
	.st4{fill-rule:evenodd;clip-rule:evenodd;fill:#9ADBE8;}
	.st5{fill-rule:evenodd;clip-rule:evenodd;fill:#ECC3B2;}
	.st6{fill-rule:evenodd;clip-rule:evenodd;fill:#CDEA80;}
	.st7{fill-rule:evenodd;clip-rule:evenodd;fill:#8B84D7;}
	.st8{fill-rule:evenodd;clip-rule:evenodd;}
	.st9{fill-rule:evenodd;clip-rule:evenodd;fill:#EFEFEF;}
	.st10{fill-rule:evenodd;clip-rule:evenodd;fill:#B8FFEE;}
	.st11{fill-rule:evenodd;clip-rule:evenodd;fill:#FFD6BB;}
	.st12{fill-rule:evenodd;clip-rule:evenodd;fill:#CCFF50;}
	.st13{fill-rule:evenodd;clip-rule:evenodd;fill:#B1AEFF;}
	.st14{fill:#FFFFFF;}
</style>
<g>
	<path d="M104.8,72.3c0,11-4.5,16.9-14.4,16.9c-8.4,0-14.4-4.6-14.4-15.6V46.5h-7.7v27.1c0,13.8,6.3,22.3,19.4,22.3
		c4.9,0,11.1-1.6,13.6-8.4h3.5v7.1h7.7v-48h-7.7V72.3z"/>
	<path d="M144.7,56.4h-3.5v-9.9h7.7v-7.7h-7.7v7.7h-18.8v6.7h11.1v34.5H119v6.7h44.1v-6.7h0v-7.7h-7.7v7.7h-14.2V70.9
		c0-12.5,10.5-20.1,22.1-16.6v-8.6C153.5,43.7,146.1,51.1,144.7,56.4z"/>
	<path d="M196.3,45.2c-4.9,0-11.1,1.6-13.6,8.4h-3.5v-7.1h-7.7v48h7.7V68.7c0-11,4.5-16.9,14.4-16.9c8.4,0,14.4,4.6,14.4,15.6v27.1
		h7.7V67.4C215.7,53.6,209.3,45.2,196.3,45.2z"/>
	<path d="M240.3,31.2h-7.7v12.3c0,2.4-0.7,3.1-3.1,3.1h-11.5v6.7h14.6v34.4c0,3.7,3.1,6.8,6.8,6.8h24.7V87h-23.8V53.2h23.8v-6.7
		h-23.8V31.2z"/>
	<path d="M305.8,54.4h-3.5c-0.7-4.1-4.5-9.2-13.2-9.2c-13.3,0-21.7,10.8-21.7,24.6v1.4c0,13.8,8.3,24.7,21.7,24.7
		c8.7,0,12.5-5.1,13.2-9.2h3.5v7.9h7.7v-48h-7.7V54.4z M305.8,71.2c0,11-5.6,18-15.2,18c-9.4,0-15.3-7-15.3-18v-1.4
		c0-11,5.9-17.8,15.3-17.8c9.6,0,15.2,6.8,15.2,17.8V71.2z"/>
	<path d="M368.1,69.7c0-13.7-8.3-24.6-21.7-24.6c-8.7,0-12.6,5.1-13.2,9.2h-3.5V31.2h7.7v-7.7h-7.7v0H322v71h7.7v-7.9h3.5
		c0.8,4.1,4.5,9.2,13.2,9.2c13.3,0,21.7-10.8,21.7-24.7V69.7z M360.2,71.2c0,11-5.9,18-15.3,18c-9.6,0-15.2-7-15.2-18v-1.4
		c0-11,5.6-17.8,15.2-17.8c9.4,0,15.3,6.8,15.3,17.8V71.2z"/>
	<rect x="337.4" y="15.8" width="7.7" height="7.7"/>
	<rect x="256.4" y="31.2" width="7.7" height="7.7"/>
	<path d="M38.2,31.2h7.7v-7.7h-7.7L38.2,31.2h-7.7v12.3c0,2.4-0.7,3.1-3.1,3.1H15.9v6.7h14.6v34.4c0,3.7,3.1,6.8,6.8,6.8H62V87H38.2
		V53.2H62v-6.7H38.2V31.2z"/>
	<polygon points="413.2,80.1 413.2,87.8 394.1,87.8 394.1,23.5 371,23.5 371,31.2 386.4,31.2 386.4,87.8 367.2,87.8 367.2,94.5 
		413.2,94.5 413.2,87.8 420.9,87.8 420.9,80.1 	"/>
	<rect x="405.6" y="72.4" width="7.7" height="7.7"/>
</g>
</svg>
