<?xml version="1.0" encoding="UTF-8"?>
<svg xmlns="http://www.w3.org/2000/svg" xmlns:xlink="http://www.w3.org/1999/xlink" width="662" height="446" viewBox="0 0 662 446">
<path fill-rule="nonzero" fill="rgb(0%, 36.898804%, 63.899231%)" fill-opacity="1" d="M 235.671875 317.816406 C 234.273438 315.484375 233.574219 312.757812 233.574219 309.636719 L 233.574219 282.761719 L 241.539062 282.761719 L 241.539062 309.394531 C 241.539062 312.230469 242.3125 314.402344 243.851562 315.902344 C 245.390625 317.402344 247.601562 318.152344 250.480469 318.152344 C 253.355469 318.152344 255.585938 317.402344 257.167969 315.902344 C 258.746094 314.402344 259.539062 312.230469 259.539062 309.394531 L 259.539062 282.761719 L 267.503906 282.761719 L 267.503906 309.636719 C 267.503906 312.757812 266.804688 315.484375 265.40625 317.816406 C 264.007812 320.148438 262.023438 321.941406 259.449219 323.199219 C 256.871094 324.453125 253.886719 325.082031 250.480469 325.082031 C 247.113281 325.082031 244.15625 324.453125 241.601562 323.199219 C 239.046875 321.941406 237.070312 320.148438 235.671875 317.816406 "/>
<path fill-rule="nonzero" fill="rgb(0%, 36.898804%, 63.899231%)" fill-opacity="1" d="M 279.300781 293.097656 L 279.300781 296.503906 C 280.433594 295.289062 281.804688 294.355469 283.402344 293.707031 C 285.003906 293.058594 286.738281 292.734375 288.601562 292.734375 C 292.25 292.734375 295.089844 293.820312 297.117188 295.988281 C 299.144531 298.15625 300.15625 301.164062 300.15625 305.019531 L 300.15625 324.71875 L 292.617188 324.71875 L 292.617188 306.535156 C 292.617188 301.792969 290.527344 299.421875 286.351562 299.421875 C 284.203125 299.421875 282.523438 300.039062 281.308594 301.277344 C 280.089844 302.511719 279.484375 304.367188 279.484375 306.839844 L 279.484375 324.71875 L 271.941406 324.71875 L 271.941406 293.097656 L 279.300781 293.097656 "/>
<path fill-rule="nonzero" fill="rgb(8.999634%, 17.999268%, 32.199097%)" fill-opacity="1" d="M 305.566406 306.960938 L 305.566406 300.394531 C 305.566406 294.273438 307.148438 289.675781 310.308594 286.59375 C 313.472656 283.511719 317.871094 281.972656 323.503906 281.972656 C 326.867188 281.972656 329.828125 282.527344 332.382812 283.644531 C 334.9375 284.757812 336.910156 286.390625 338.3125 288.539062 C 339.707031 290.6875 340.40625 293.21875 340.40625 296.140625 L 340.40625 296.625 L 332.445312 296.625 L 332.445312 296.382812 C 332.445312 294.152344 331.652344 292.359375 330.070312 291 C 328.492188 289.644531 326.300781 288.964844 323.503906 288.964844 C 320.179688 288.964844 317.699219 289.925781 316.054688 291.851562 C 314.414062 293.777344 313.59375 296.746094 313.59375 300.761719 L 313.59375 306.78125 C 313.59375 310.710938 314.414062 313.601562 316.054688 315.445312 C 317.699219 317.289062 320.199219 318.210938 323.566406 318.210938 C 326.605469 318.210938 328.855469 317.554688 330.3125 316.234375 C 331.773438 314.917969 332.503906 312.941406 332.503906 310.308594 L 332.503906 308.785156 L 323.324219 308.785156 L 323.324219 302.21875 L 340.40625 302.21875 L 340.40625 309.152344 C 340.40625 314.585938 338.894531 318.648438 335.878906 321.34375 C 332.859375 324.039062 328.714844 325.386719 323.445312 325.386719 C 317.847656 325.386719 313.472656 323.847656 310.308594 320.765625 C 307.148438 317.683594 305.566406 313.082031 305.566406 306.960938 "/>
<path fill-rule="nonzero" fill="rgb(8.999634%, 17.999268%, 32.199097%)" fill-opacity="1" d="M 365.945312 307.085938 C 365.945312 304.410156 365.355469 302.433594 364.183594 301.15625 C 363.003906 299.878906 361.324219 299.242188 359.136719 299.242188 C 354.511719 299.242188 352.203125 301.855469 352.203125 307.085938 L 352.203125 310.671875 C 352.203125 315.902344 354.511719 318.515625 359.136719 318.515625 C 363.675781 318.515625 365.945312 315.902344 365.945312 310.671875 Z M 344.722656 310.730469 L 344.722656 306.960938 C 344.722656 302.261719 346 298.683594 348.554688 296.230469 C 351.109375 293.777344 354.636719 292.554688 359.136719 292.554688 C 363.59375 292.554688 367.089844 293.789062 369.625 296.261719 C 372.15625 298.734375 373.425781 302.300781 373.425781 306.960938 L 373.425781 310.730469 C 373.425781 315.476562 372.15625 319.082031 369.625 321.554688 C 367.089844 324.027344 363.59375 325.265625 359.136719 325.265625 C 354.636719 325.265625 351.109375 324.027344 348.554688 321.554688 C 346 319.082031 344.722656 315.476562 344.722656 310.730469 "/>
<path fill-rule="nonzero" fill="rgb(8.999634%, 17.999268%, 32.199097%)" fill-opacity="1" d="M 381.207031 293.097656 L 388.929688 314.5625 L 396.589844 293.097656 L 404.738281 293.097656 L 391.96875 324.71875 L 385.765625 324.71875 L 373.058594 293.097656 Z M 381.207031 293.097656 "/>
<path fill-rule="nonzero" fill="rgb(8.999634%, 17.999268%, 32.199097%)" fill-opacity="1" d="M 415.925781 293.097656 L 415.925781 296.6875 C 416.980469 295.269531 418.308594 294.203125 419.910156 293.496094 C 421.507812 292.785156 423.265625 292.429688 425.167969 292.429688 C 426.34375 292.429688 427.335938 292.511719 428.144531 292.675781 L 428.144531 299.847656 C 426.769531 299.320312 425.269531 299.058594 423.648438 299.058594 C 421.257812 299.058594 419.402344 299.757812 418.085938 301.15625 C 416.765625 302.554688 416.109375 304.570312 416.109375 307.207031 L 416.109375 324.71875 L 408.566406 324.71875 L 408.566406 293.097656 L 415.925781 293.097656 "/>
<path fill-rule="nonzero" fill="rgb(0%, 36.898804%, 63.899231%)" fill-opacity="1" d="M 257.320312 139.886719 L 244.921875 139.886719 L 244.921875 213.429688 C 244.921875 246.234375 271.613281 272.925781 304.417969 272.925781 C 337.226562 272.925781 363.914062 246.234375 363.914062 213.429688 L 363.914062 145.671875 L 339.125 145.671875 L 339.125 213.429688 C 339.125 232.566406 323.554688 248.132812 304.417969 248.132812 C 285.285156 248.132812 269.714844 232.566406 269.714844 213.429688 L 269.714844 164.675781 L 287.066406 164.675781 L 287.066406 139.886719 L 257.320312 139.886719 "/>
<path fill-rule="nonzero" fill="rgb(8.999634%, 17.999268%, 32.199097%)" fill-opacity="1" d="M 373.003906 144.84375 L 373.003906 169.632812 L 392.007812 169.632812 L 392.007812 213.429688 C 392.007812 230.832031 379.132812 245.277344 362.40625 247.753906 C 356.867188 257.492188 347.917969 265.160156 340.257812 270.421875 C 345.660156 272.042969 351.378906 272.921875 357.300781 272.921875 C 390.109375 272.921875 416.796875 246.234375 416.796875 213.429688 L 416.796875 144.84375 Z M 322.597656 127.492188 L 415.972656 127.492188 L 415.972656 102.703125 L 297.808594 102.703125 L 297.808594 213.429688 C 297.808594 223.511719 300.335938 233.011719 304.78125 241.339844 C 315.464844 239.332031 322.296875 232.878906 325.941406 228.277344 C 323.800781 223.773438 322.597656 218.738281 322.597656 213.429688 L 322.597656 127.492188 "/>
<path fill-rule="nonzero" fill="rgb(8.999634%, 17.999268%, 32.199097%)" fill-opacity="1" d="M 245.089844 344.414062 C 244.183594 344.75 242.417969 345.214844 240.546875 345.214844 C 238.148438 345.214844 236.316406 344.601562 234.972656 343.320312 C 233.710938 342.121094 232.992188 340.25 232.992188 338.101562 C 233.015625 333.601562 236.191406 330.742188 240.882812 330.742188 C 242.628906 330.742188 243.996094 331.097656 244.648438 331.414062 L 244.078125 333.496094 C 243.300781 333.136719 242.355469 332.886719 240.859375 332.886719 C 237.832031 332.886719 235.707031 334.675781 235.707031 337.976562 C 235.707031 341.21875 237.6875 343.109375 240.628906 343.109375 C 241.574219 343.109375 242.25 342.984375 242.585938 342.835938 L 242.585938 339.28125 L 240.082031 339.28125 L 240.082031 337.242188 L 245.089844 337.242188 L 245.089844 344.414062 "/>
<path fill-rule="nonzero" fill="rgb(8.999634%, 17.999268%, 32.199097%)" fill-opacity="1" d="M 251.90625 343.425781 C 253.378906 343.425781 254.40625 341.996094 254.40625 339.914062 C 254.40625 338.3125 253.691406 336.460938 251.925781 336.460938 C 250.09375 336.460938 249.359375 338.25 249.359375 339.953125 C 249.359375 341.933594 250.347656 343.425781 251.882812 343.425781 Z M 251.820312 345.296875 C 248.9375 345.296875 246.6875 343.320312 246.6875 340.015625 C 246.6875 336.652344 248.898438 334.589844 251.988281 334.589844 C 255.039062 334.589844 257.078125 336.738281 257.078125 339.847656 C 257.078125 343.613281 254.429688 345.296875 251.84375 345.296875 L 251.820312 345.296875 "/>
<path fill-rule="nonzero" fill="rgb(8.999634%, 17.999268%, 32.199097%)" fill-opacity="1" d="M 260.257812 334.824219 L 261.917969 340.019531 C 262.210938 340.921875 262.421875 341.742188 262.613281 342.585938 L 262.675781 342.585938 C 262.863281 341.742188 263.09375 340.945312 263.367188 340.019531 L 265.011719 334.824219 L 267.722656 334.824219 L 263.8125 345.066406 L 261.265625 345.066406 L 257.457031 334.824219 L 260.257812 334.824219 "/>
<path fill-rule="nonzero" fill="rgb(8.999634%, 17.999268%, 32.199097%)" fill-opacity="1" d="M 274.9375 338.859375 C 274.960938 337.914062 274.539062 336.359375 272.816406 336.359375 C 271.214844 336.359375 270.542969 337.808594 270.4375 338.859375 Z M 270.4375 340.671875 C 270.5 342.519531 271.953125 343.320312 273.59375 343.320312 C 274.792969 343.320312 275.632812 343.132812 276.433594 342.855469 L 276.8125 344.625 C 275.929688 345.003906 274.707031 345.277344 273.234375 345.277344 C 269.910156 345.277344 267.957031 343.234375 267.957031 340.101562 C 267.957031 337.261719 269.679688 334.589844 272.960938 334.589844 C 276.285156 334.589844 277.378906 337.324219 277.378906 339.578125 C 277.378906 340.058594 277.335938 340.4375 277.296875 340.671875 L 270.4375 340.671875 "/>
<path fill-rule="nonzero" fill="rgb(8.999634%, 17.999268%, 32.199097%)" fill-opacity="1" d="M 279.039062 338.125 C 279.039062 336.738281 279.019531 335.726562 278.957031 334.824219 L 281.1875 334.824219 L 281.289062 336.757812 L 281.355469 336.757812 C 281.859375 335.328125 283.058594 334.589844 284.171875 334.589844 C 284.425781 334.589844 284.574219 334.613281 284.785156 334.65625 L 284.785156 337.074219 C 284.550781 337.03125 284.320312 337.011719 284.003906 337.011719 C 282.785156 337.011719 281.921875 337.789062 281.691406 338.964844 C 281.648438 339.199219 281.628906 339.472656 281.628906 339.746094 L 281.628906 345.066406 L 279.039062 345.066406 L 279.039062 338.125 "/>
<path fill-rule="nonzero" fill="rgb(8.999634%, 17.999268%, 32.199097%)" fill-opacity="1" d="M 286.109375 337.871094 C 286.109375 336.695312 286.066406 335.707031 286.023438 334.824219 L 288.273438 334.824219 L 288.402344 336.359375 L 288.464844 336.359375 C 288.925781 335.558594 290.042969 334.589844 291.746094 334.589844 C 293.53125 334.589844 295.382812 335.746094 295.382812 338.988281 L 295.382812 345.066406 L 292.796875 345.066406 L 292.796875 339.28125 C 292.796875 337.808594 292.25 336.695312 290.839844 336.695312 C 289.808594 336.695312 289.09375 337.429688 288.820312 338.207031 C 288.738281 338.417969 288.695312 338.734375 288.695312 339.03125 L 288.695312 345.066406 L 286.109375 345.066406 L 286.109375 337.871094 "/>
<path fill-rule="nonzero" fill="rgb(8.999634%, 17.999268%, 32.199097%)" fill-opacity="1" d="M 297.71875 337.871094 C 297.71875 336.695312 297.679688 335.707031 297.636719 334.824219 L 299.84375 334.824219 L 299.96875 336.335938 L 300.035156 336.335938 C 300.515625 335.535156 301.441406 334.589844 303.1875 334.589844 C 304.535156 334.589844 305.585938 335.347656 306.027344 336.484375 L 306.070312 336.484375 C 306.429688 335.914062 306.847656 335.496094 307.3125 335.199219 C 307.898438 334.800781 308.554688 334.589844 309.414062 334.589844 C 311.097656 334.589844 312.824219 335.746094 312.824219 339.03125 L 312.824219 345.066406 L 310.296875 345.066406 L 310.296875 339.40625 C 310.296875 337.703125 309.710938 336.695312 308.46875 336.695312 C 307.585938 336.695312 306.933594 337.324219 306.660156 338.0625 C 306.574219 338.292969 306.535156 338.628906 306.535156 338.925781 L 306.535156 345.066406 L 304.007812 345.066406 L 304.007812 339.132812 C 304.007812 337.703125 303.441406 336.695312 302.242188 336.695312 C 301.273438 336.695312 300.621094 337.453125 300.371094 338.144531 C 300.285156 338.417969 300.246094 338.714844 300.246094 339.007812 L 300.246094 345.066406 L 297.71875 345.066406 L 297.71875 337.871094 "/>
<path fill-rule="nonzero" fill="rgb(8.999634%, 17.999268%, 32.199097%)" fill-opacity="1" d="M 321.46875 338.859375 C 321.492188 337.914062 321.070312 336.359375 319.34375 336.359375 C 317.746094 336.359375 317.074219 337.808594 316.96875 338.859375 Z M 316.96875 340.671875 C 317.03125 342.519531 318.484375 343.320312 320.125 343.320312 C 321.320312 343.320312 322.164062 343.132812 322.964844 342.855469 L 323.34375 344.625 C 322.457031 345.003906 321.238281 345.277344 319.765625 345.277344 C 316.441406 345.277344 314.484375 343.234375 314.484375 340.101562 C 314.484375 337.261719 316.210938 334.589844 319.492188 334.589844 C 322.816406 334.589844 323.910156 337.324219 323.910156 339.578125 C 323.910156 340.058594 323.867188 340.4375 323.824219 340.671875 L 316.96875 340.671875 "/>
<path fill-rule="nonzero" fill="rgb(8.999634%, 17.999268%, 32.199097%)" fill-opacity="1" d="M 325.570312 337.871094 C 325.570312 336.695312 325.53125 335.707031 325.484375 334.824219 L 327.738281 334.824219 L 327.863281 336.359375 L 327.925781 336.359375 C 328.390625 335.558594 329.503906 334.589844 331.207031 334.589844 C 332.996094 334.589844 334.847656 335.746094 334.847656 338.988281 L 334.847656 345.066406 L 332.257812 345.066406 L 332.257812 339.28125 C 332.257812 337.808594 331.710938 336.695312 330.304688 336.695312 C 329.273438 336.695312 328.558594 337.429688 328.285156 338.207031 C 328.199219 338.417969 328.15625 338.734375 328.15625 339.03125 L 328.15625 345.066406 L 325.570312 345.066406 L 325.570312 337.871094 "/>
<path fill-rule="nonzero" fill="rgb(8.999634%, 17.999268%, 32.199097%)" fill-opacity="1" d="M 340.042969 332.191406 L 340.042969 334.820312 L 342.503906 334.820312 L 342.503906 336.757812 L 340.042969 336.757812 L 340.042969 341.257812 C 340.042969 342.519531 340.378906 343.152344 341.367188 343.152344 C 341.832031 343.152344 342.082031 343.132812 342.378906 343.046875 L 342.421875 345.003906 C 342.042969 345.148438 341.347656 345.277344 340.546875 345.277344 C 339.578125 345.277344 338.800781 344.960938 338.320312 344.433594 C 337.75 343.847656 337.496094 342.898438 337.496094 341.554688 L 337.496094 336.757812 L 336.046875 336.757812 L 336.046875 334.820312 L 337.496094 334.820312 L 337.496094 332.90625 L 340.042969 332.191406 "/>
<path fill-rule="nonzero" fill="rgb(8.999634%, 17.999268%, 32.199097%)" fill-opacity="1" d="M 350.644531 330.890625 L 350.644531 339.15625 C 350.644531 341.933594 351.800781 343.214844 353.546875 343.214844 C 355.417969 343.214844 356.535156 341.933594 356.535156 339.15625 L 356.535156 330.890625 L 359.121094 330.890625 L 359.121094 338.988281 C 359.121094 343.363281 356.871094 345.296875 353.460938 345.296875 C 350.183594 345.296875 348.058594 343.46875 348.058594 339.007812 L 348.058594 330.890625 L 350.644531 330.890625 "/>
<path fill-rule="nonzero" fill="rgb(8.999634%, 17.999268%, 32.199097%)" fill-opacity="1" d="M 361.5625 337.871094 C 361.5625 336.695312 361.519531 335.707031 361.476562 334.824219 L 363.730469 334.824219 L 363.855469 336.359375 L 363.917969 336.359375 C 364.378906 335.558594 365.496094 334.589844 367.199219 334.589844 C 368.988281 334.589844 370.839844 335.746094 370.839844 338.988281 L 370.839844 345.066406 L 368.25 345.066406 L 368.25 339.28125 C 368.25 337.808594 367.703125 336.695312 366.292969 336.695312 C 365.265625 336.695312 364.546875 337.429688 364.273438 338.207031 C 364.191406 338.417969 364.148438 338.734375 364.148438 339.03125 L 364.148438 345.066406 L 361.5625 345.066406 L 361.5625 337.871094 "/>
<path fill-rule="nonzero" fill="rgb(8.999634%, 17.999268%, 32.199097%)" fill-opacity="1" d="M 373.171875 330.109375 L 375.761719 330.109375 L 375.761719 345.066406 L 373.171875 345.066406 Z M 373.171875 330.109375 "/>
<path fill-rule="nonzero" fill="rgb(8.999634%, 17.999268%, 32.199097%)" fill-opacity="1" d="M 382.722656 343.425781 C 384.195312 343.425781 385.226562 341.996094 385.226562 339.914062 C 385.226562 338.3125 384.511719 336.460938 382.746094 336.460938 C 380.914062 336.460938 380.179688 338.25 380.179688 339.953125 C 380.179688 341.933594 381.167969 343.425781 382.703125 343.425781 Z M 382.640625 345.296875 C 379.757812 345.296875 377.507812 343.320312 377.507812 340.015625 C 377.507812 336.652344 379.714844 334.589844 382.808594 334.589844 C 385.859375 334.589844 387.898438 336.738281 387.898438 339.847656 C 387.898438 343.613281 385.246094 345.296875 382.660156 345.296875 L 382.640625 345.296875 "/>
<path fill-rule="nonzero" fill="rgb(8.999634%, 17.999268%, 32.199097%)" fill-opacity="1" d="M 397.132812 344.75 C 396.585938 345.003906 395.511719 345.277344 394.230469 345.277344 C 391.035156 345.277344 388.949219 343.214844 388.949219 340.039062 C 388.949219 336.96875 391.054688 334.589844 394.648438 334.589844 C 395.597656 334.589844 396.5625 334.800781 397.15625 335.054688 L 396.691406 337.011719 C 396.269531 336.800781 395.660156 336.609375 394.734375 336.609375 C 392.757812 336.609375 391.578125 338.0625 391.601562 339.933594 C 391.601562 342.035156 392.96875 343.234375 394.734375 343.234375 C 395.617188 343.234375 396.269531 343.046875 396.773438 342.835938 L 397.132812 344.75 "/>
<path fill-rule="nonzero" fill="rgb(8.999634%, 17.999268%, 32.199097%)" fill-opacity="1" d="M 401.214844 339.324219 L 401.253906 339.324219 C 401.507812 338.921875 401.804688 338.484375 402.054688 338.125 L 404.558594 334.824219 L 407.671875 334.824219 L 403.863281 339.007812 L 408.195312 345.066406 L 405.019531 345.066406 L 402.078125 340.542969 L 401.214844 341.574219 L 401.214844 345.066406 L 398.625 345.066406 L 398.625 330.109375 L 401.214844 330.109375 L 401.214844 339.324219 "/>
<path fill-rule="nonzero" fill="rgb(8.999634%, 17.999268%, 32.199097%)" fill-opacity="1" d="M 415.097656 338.859375 C 415.117188 337.914062 414.695312 336.359375 412.972656 336.359375 C 411.371094 336.359375 410.699219 337.808594 410.59375 338.859375 Z M 410.59375 340.671875 C 410.65625 342.519531 412.109375 343.320312 413.75 343.320312 C 414.949219 343.320312 415.789062 343.132812 416.589844 342.855469 L 416.96875 344.625 C 416.085938 345.003906 414.867188 345.277344 413.390625 345.277344 C 410.070312 345.277344 408.113281 343.234375 408.113281 340.101562 C 408.113281 337.261719 409.835938 334.589844 413.117188 334.589844 C 416.441406 334.589844 417.535156 337.324219 417.535156 339.578125 C 417.535156 340.058594 417.492188 340.4375 417.453125 340.671875 L 410.59375 340.671875 "/>
<path fill-rule="nonzero" fill="rgb(8.999634%, 17.999268%, 32.199097%)" fill-opacity="1" d="M 426.058594 339.09375 C 426.058594 338.882812 426.035156 338.609375 425.992188 338.398438 C 425.761719 337.410156 424.941406 336.589844 423.765625 336.589844 C 422.101562 336.589844 421.175781 338.0625 421.175781 339.953125 C 421.175781 341.847656 422.101562 343.214844 423.742188 343.214844 C 424.792969 343.214844 425.71875 342.5 425.972656 341.386719 C 426.035156 341.152344 426.058594 340.902344 426.058594 340.628906 Z M 428.644531 330.109375 L 428.644531 342.183594 C 428.644531 343.234375 428.6875 344.371094 428.726562 345.066406 L 426.433594 345.066406 L 426.308594 343.445312 L 426.265625 343.445312 C 425.65625 344.582031 424.414062 345.296875 422.941406 345.296875 C 420.480469 345.296875 418.546875 343.214844 418.546875 340.058594 C 418.527344 336.628906 420.671875 334.589844 423.132812 334.589844 C 424.542969 334.589844 425.550781 335.160156 426.015625 335.917969 L 426.058594 335.917969 L 426.058594 330.109375 L 428.644531 330.109375 "/>
</svg>
