<?xml version="1.0" encoding="UTF-8"?>
<svg width="599px" height="102px" viewBox="0 0 599 102" version="1.1" xmlns="http://www.w3.org/2000/svg" xmlns:xlink="http://www.w3.org/1999/xlink">
    <title>unifabrix-logo-primary-positive-color</title>
    <defs>
        <radialGradient cx="100%" cy="95.1413236%" fx="100%" fy="95.1413236%" r="169.653592%" gradientTransform="translate(1.000000,0.951413),scale(0.997475,1.000000),rotate(-135.060325),scale(1.000000,1.495640),translate(-1.000000,-0.951413)" id="radialGradient-1">
            <stop stop-color="#0B0061" offset="0%"></stop>
            <stop stop-color="#AD41C8" offset="59.785258%"></stop>
            <stop stop-color="#40C2F7" offset="100%"></stop>
        </radialGradient>
    </defs>
    <g id="Page-2" stroke="none" stroke-width="1" fill="none" fill-rule="evenodd">
        <g id="brandwork-s1-3-copy-3" transform="translate(-661.000000, -489.000000)">
            <g id="unifabrix-logo-primary-positive-color" transform="translate(661.000000, 489.000000)">
                <g id="Group-2-Copy-2" fill="#081219" fill-rule="nonzero">
                    <path d="M37.5401475,101.869732 C44.5303819,101.869732 50.8517975,100.41507 56.5043945,97.5057471 C62.1569914,94.596424 66.6445493,90.4278416 69.9670681,85 C73.2895869,79.5721584 74.9508463,73.0804598 74.9508463,65.5249042 L74.9508463,65.5249042 L74.9508463,12.5057471 L57.086914,12.5057471 L57.086914,64.4827586 C57.086914,71.1698595 55.274631,76.1634738 51.650065,79.4636015 C48.0254991,82.7637292 43.3221932,84.4137931 37.5401475,84.4137931 C31.6718026,84.5006386 26.946922,82.8722861 23.3655056,79.5287356 C19.7840892,76.1851852 17.9933811,71.1698595 17.9933811,64.4827586 L17.9933811,64.4827586 L17.9933811,12.5057471 L0,12.5057471 L0,65.5249042 C0,73.0804598 1.6612594,79.5721584 4.98377821,85 C8.30629701,90.4278416 12.8154297,94.596424 18.5111762,97.5057471 C24.2069227,100.41507 30.5499132,101.869732 37.5401475,101.869732 Z M104.522127,100.045977 L104.522127,58.3601533 C106.33441,55.7547893 108.513464,53.4968072 111.05929,51.5862069 C113.605116,49.6756066 116.345116,48.7203065 119.279288,48.7203065 C122.990153,48.7203065 125.902751,49.8058748 128.017081,51.9770115 C130.131411,54.1481481 131.188576,57.4482759 131.188576,61.8773946 L131.188576,61.8773946 L131.318025,100.045977 L147.758021,100.045977 L147.758021,59.6628352 C147.758021,50.6309068 145.514242,43.8569604 141.026684,39.3409962 C136.539126,34.8250319 130.972828,32.5670498 124.327791,32.5670498 C119.926532,32.5670498 116.021494,33.7394636 112.612676,36.0842912 C109.203858,38.4291188 106.507008,40.9476373 104.522127,43.6398467 L104.522127,43.6398467 L104.522127,34.2605364 L88.082131,34.2605364 L88.082131,100.045977 L104.522127,100.045977 Z M177.562309,22.4061303 C180.66908,22.4061303 183.344355,21.2771392 185.588133,19.0191571 C187.831912,16.761175 188.953802,14.155811 188.953802,11.2030651 C188.953802,8.16347382 187.831912,5.53639847 185.588133,3.32183908 C183.344355,1.10727969 180.66908,0 177.562309,0 C174.455538,0 171.801838,1.10727969 169.601209,3.32183908 C167.400579,5.53639847 166.300265,8.16347382 166.300265,11.2030651 C166.300265,14.155811 167.400579,16.761175 169.601209,19.0191571 C171.801838,21.2771392 174.455538,22.4061303 177.562309,22.4061303 Z M187.141519,100.045977 L187.141519,34.2605364 L160.216172,34.2605364 L160.216172,48.3295019 L170.701523,48.3295019 L170.701523,100.045977 L187.141519,100.045977 Z M227.224041,100.045977 L227.224041,48.0689655 L244.181831,48.0689655 L244.181831,34.2605364 L227.224041,34.2605364 L227.224041,29.440613 C227.224041,25.7931034 228.130182,23.1660281 229.942465,21.559387 C231.754748,19.9527458 233.955377,19.1060026 236.544353,19.0191571 C240.255218,18.9323116 243.534587,19.7573436 246.382461,21.4942529 L246.382461,21.4942529 L246.382461,7.68582375 C244.829075,6.64367816 243.016792,5.81864623 240.945612,5.21072797 C238.874431,4.60280971 236.458054,4.29885057 233.69648,4.29885057 C229.554119,4.29885057 225.756954,5.2541507 222.304987,7.16475096 C218.853019,9.07535121 216.06987,11.8326948 213.95554,15.4367816 C211.84121,19.0408685 210.784045,23.3614304 210.784045,28.3984674 L210.784045,28.3984674 L210.784045,34.2605364 L200.816488,34.2605364 L200.816488,48.0689655 L210.784045,48.0689655 L210.784045,100.045977 L227.224041,100.045977 Z M279.681866,102 C284.514621,102 288.743281,100.719029 292.367847,98.1570881 C295.992413,95.5951469 298.753987,92.5338442 300.652569,88.9731801 L300.652569,88.9731801 L300.652569,100.045977 L317.092565,100.045977 L317.092565,34.2605364 L300.652569,34.2605364 L300.652569,41.6858238 C298.236192,38.9067688 295.21572,36.6922095 291.591154,35.0421456 C287.966588,33.3920817 284.385172,32.5670498 280.846905,32.5670498 C275.237458,32.5670498 270.124231,33.9782886 265.507224,36.8007663 C260.890217,39.6232439 257.222502,43.6398467 254.504077,48.8505747 C251.785653,54.0613027 250.426441,60.3141762 250.426441,67.6091954 C250.426441,74.9042146 251.764078,81.1136654 254.439353,86.2375479 C257.114628,91.3614304 260.674469,95.2694764 265.118878,97.9616858 C269.563286,100.653895 274.417615,102 279.681866,102 Z M283.824227,85.4559387 C278.905173,85.4559387 274.956985,83.7190294 271.979663,80.2452107 C269.002341,76.7713921 267.51368,72.559387 267.51368,67.6091954 C267.51368,64.3090677 268.204074,61.2260536 269.584861,58.3601533 C270.965648,55.4942529 272.885805,53.1711367 275.345332,51.3908046 C277.804859,49.6104725 280.760606,48.7203065 284.212573,48.7203065 C287.405643,48.7203065 290.361391,49.458493 293.079815,50.9348659 C295.79824,52.4112388 298.322491,54.4086845 300.652569,56.9272031 L300.652569,56.9272031 L300.652569,66.3065134 C300.652569,70.3014049 299.854302,73.7100894 298.257767,76.532567 C296.661232,79.3550447 294.590051,81.5478927 292.044225,83.1111111 C289.498399,84.6743295 286.7584,85.4559387 283.824227,85.4559387 Z M369.395052,102 C374.573003,102 379.384183,100.653895 383.828591,97.9616858 C388.272999,95.2694764 391.854416,91.3614304 394.57284,86.2375479 C397.291265,81.1136654 398.650477,74.9042146 398.650477,67.6091954 C398.650477,60.3141762 397.291265,54.0613027 394.57284,48.8505747 C391.854416,43.6398467 388.1867,39.6232439 383.569694,36.8007663 C378.952687,33.9782886 373.83946,32.5670498 368.230013,32.5670498 C364.605447,32.5670498 361.002455,33.3920817 357.421039,35.0421456 C353.839623,36.6922095 350.840726,38.9067688 348.424349,41.6858238 L348.424349,41.6858238 L348.424349,6.25287356 L331.984353,6.25287356 L331.984353,100.045977 L348.424349,100.045977 L348.424349,88.9731801 C350.322931,92.5338442 353.084505,95.5951469 356.709071,98.1570881 C360.333637,100.719029 364.562297,102 369.395052,102 Z M365.252691,85.3256705 C362.318518,85.3256705 359.556944,84.5657727 356.967968,83.045977 C354.378993,81.5261814 352.286237,79.3550447 350.689702,76.532567 C349.093167,73.7100894 348.338049,70.3014049 348.424349,66.3065134 L348.424349,66.3065134 L348.424349,56.9272031 C350.754427,54.4086845 353.278678,52.4329502 355.997102,51 C358.715527,49.5670498 361.671274,48.8505747 364.864344,48.8505747 C368.230013,48.8505747 371.164185,49.7407407 373.666862,51.5210728 C376.169538,53.3014049 378.11127,55.6028097 379.492057,58.4252874 C380.872844,61.247765 381.563237,64.3090677 381.563237,67.6091954 C381.563237,72.559387 380.074576,76.7496807 377.097254,80.1800766 C374.119932,83.6104725 370.171744,85.3256705 365.252691,85.3256705 Z M424.623081,100.045977 L424.623081,63.3103448 C426.521663,59.6628352 428.722293,56.6015326 431.224969,54.1264368 C433.727646,51.651341 436.877566,50.4137931 440.67473,50.4137931 C443.695202,50.4137931 446.586225,51.1954023 449.347799,52.7586207 L449.347799,52.7586207 L449.347799,34.1302682 C447.449217,33.348659 445.334887,32.9578544 443.004809,32.9578544 C439.121345,32.9578544 435.647803,34.2605364 432.584181,36.8659004 C429.52056,39.4712644 426.86686,42.7279693 424.623081,46.6360153 L424.623081,46.6360153 L424.623081,34.2605364 L408.183085,34.2605364 L408.183085,100.045977 L424.623081,100.045977 Z M476.252434,22.4061303 C479.359205,22.4061303 482.03448,21.2771392 484.278259,19.0191571 C486.522038,16.761175 487.643927,14.155811 487.643927,11.2030651 C487.643927,8.16347382 486.522038,5.53639847 484.278259,3.32183908 C482.03448,1.10727969 479.359205,0 476.252434,0 C473.145664,0 470.491963,1.10727969 468.291334,3.32183908 C466.090705,5.53639847 464.99039,8.16347382 464.99039,11.2030651 C464.99039,14.155811 466.090705,16.761175 468.291334,19.0191571 C470.491963,21.2771392 473.145664,22.4061303 476.252434,22.4061303 Z M485.831644,100.045977 L485.831644,34.2605364 L458.906297,34.2605364 L458.906297,48.3295019 L469.391649,48.3295019 L469.391649,100.045977 L485.831644,100.045977 Z" id="UnifabriX"></path>
                </g>
                <path d="M505.904936,5.4670227 C506.671032,5.4670227 507.41802,5.7061706 508.041673,6.15109816 L543.806034,31.6661771 C545.741756,33.0471632 546.890819,35.2784411 546.890819,37.6562847 L546.890819,39.0160987 L528.226806,52.4331838 L508.351656,38.1436311 C504.505737,35.3786068 502.225806,30.9314405 502.225806,26.194727 L502.225806,9.14615192 C502.225806,7.11422496 503.873009,5.4670227 505.904936,5.4670227 Z M592.834529,66.6953518 C596.706708,69.4792554 599,73.942155 599,78.693769 L599,98.2985833 C599,100.342819 597.333566,102 595.277916,102 C594.499526,102 593.740722,101.757322 593.108255,101.306106 L552.79765,71.5554132 C551.498863,70.5968613 549.726944,70.5968613 548.428157,71.5554132 L508.117551,101.306106 C507.485084,101.757322 506.726281,102 505.947891,102 C503.920019,102 502.270916,100.387305 502.225806,98.3812426 L502.225806,78.693769 C502.225806,73.9932476 504.470046,69.5752651 508.266917,66.7857358 L508.391277,66.6953518 L546.890819,39.0160987 L546.890819,49.0143922 C546.890819,50.20579 546.313906,51.3234342 545.342712,52.0135147 L515.976743,72.8794615 C514.020983,74.2691236 512.860333,76.5123837 512.860333,78.9027385 L512.860333,83.6371743 C512.860333,84.2212417 513.336457,84.6947219 513.923786,84.6947219 C514.143729,84.6947219 514.358262,84.6269051 514.537836,84.5006123 L549.525052,58.8433371 C550.172562,58.3684969 551.053245,58.3684969 551.700754,58.8433371 L586.687971,84.5006123 C586.867544,84.6269051 587.082077,84.6947219 587.302021,84.6947219 C587.871551,84.6947219 588.336515,84.2495027 588.364172,83.6899566 L588.365473,83.6371743 L588.365473,78.9027385 C588.365473,76.5535967 587.2445,74.3465211 585.349513,72.9520981 L585.249063,72.8794615 L555.883095,52.0135147 C554.911901,51.3234342 554.334988,50.20579 554.334988,49.0143922 L554.334988,37.6562847 C554.334988,35.3735548 555.393964,33.2259 557.191285,31.8359318 L557.419772,31.6661771 L593.184134,6.15109816 C593.807787,5.7061706 594.554775,5.4670227 595.320871,5.4670227 C597.287252,5.4670227 598.893329,7.0096679 598.9949,8.95075722 L599,9.14615192 L599,26.194727 C599,30.8067901 596.838487,35.1443449 593.174509,37.9218704 L592.87415,38.1436311 L572.997988,52.4331838 L592.834529,66.6953518 Z" id="Combined-Shape" fill="url(#radialGradient-1)"></path>
            </g>
        </g>
    </g>
</svg>