<?xml version="1.0" encoding="UTF-8"?>
<svg id="Layer_1" data-name="Layer 1" xmlns="http://www.w3.org/2000/svg" viewBox="0 0 112.33 128.64">
  <defs>
    <style>
      .cls-1 {
        fill: #be0000;
      }
    </style>
  </defs>
  <g>
    <polygon class="cls-1" points="47.45 80.81 38.19 71.62 38.19 62.19 26.07 62.19 16.82 53 16.82 14.45 12.34 14.45 12.34 0 35.69 0 35.69 14.45 31.22 14.45 31.22 47.74 38.19 47.74 38.19 33.08 33.72 33.08 33.72 18.62 57.06 18.62 57.06 33.08 52.59 33.08 52.59 47.74 59.41 47.74 59.41 14.45 54.94 14.45 54.94 0 78.28 0 78.28 14.45 73.81 14.45 73.81 53 64.56 62.19 52.59 62.19 52.59 66.36 80.79 66.36 80.79 33.08 76.31 33.08 76.31 18.62 99.66 18.62 99.66 33.08 95.18 33.08 95.18 71.62 85.93 80.81 47.45 80.81"/>
    <g>
      <path class="cls-1" d="M93.79,77.18h0c-1.08,0-1.95.87-1.95,1.97s.87,1.98,1.95,1.98,1.94-.87,1.94-1.98-.86-1.97-1.93-1.97ZM93.79,80.81c-.87,0-1.58-.73-1.58-1.67s.71-1.66,1.57-1.66h0c.87,0,1.57.74,1.57,1.67s-.7,1.67-1.57,1.66Z"/>
      <path class="cls-1" d="M94.14,79.21v-.02c.24-.07.43-.25.43-.53,0-.21-.07-.36-.2-.45-.13-.1-.35-.17-.68-.17-.26,0-.44.03-.62.05v2.2h.35v-.95h.24c.28,0,.42.11.47.38.04.29.1.49.15.56h.37c-.03-.07-.09-.2-.14-.54-.04-.32-.17-.5-.37-.53ZM93.67,79.07h-.25v-.74c.06,0,.14-.02.25-.02.39,0,.53.19.53.38,0,.27-.24.37-.53.37Z"/>
    </g>
  </g>
  <g>
    <path class="cls-1" d="M11.35,82.37c0,1.1,0,2.05.06,2.57.04.34.11.6.47.65.17.02.43.05.61.05.13,0,.19.04.19.1,0,.08-.1.12-.23.12-.79,0-1.55-.04-1.88-.04-.28,0-1.03.04-1.51.04-.16,0-.24-.04-.24-.12,0-.06.05-.1.19-.1.18,0,.32-.02.43-.05.24-.05.31-.31.35-.66.06-.5.06-1.45.06-2.55v-4.92c-.46.01-1.2.04-1.79.05-.7.02-.98.08-1.16.35-.12.18-.18.32-.2.42-.02.1-.06.14-.13.14-.08,0-.11-.06-.11-.19,0-.19.23-1.28.25-1.38.04-.16.07-.23.14-.23.1,0,.22.12.52.14.35.04.8.06,1.2.06h4.75c.38,0,.65-.04.83-.06.18-.04.28-.06.32-.06.08,0,.1.07.1.25,0,.25-.04,1.08-.04,1.39-.01.12-.04.19-.11.19-.1,0-.12-.06-.13-.24,0-.04-.01-.1-.01-.13-.02-.31-.35-.65-1.42-.67-.31-.01-.8-.02-1.51-.04v4.92Z"/>
    <path class="cls-1" d="M23.07,80.59s.07-.02.07-.08v-.25c0-1.82,0-2.16-.02-2.54-.02-.41-.12-.6-.52-.68-.1-.02-.3-.04-.47-.04-.13,0-.2-.02-.2-.11s.08-.11.25-.11c.65,0,1.4.04,1.73.04.29,0,1.04-.04,1.51-.04.17,0,.25.02.25.11s-.07.11-.22.11c-.1,0-.2.01-.35.04-.32.06-.42.26-.44.68-.02.38-.02.72-.02,2.54v2.11c0,1.1,0,2.05.06,2.57.04.34.11.6.47.65.17.02.43.05.61.05.13,0,.19.04.19.1,0,.08-.1.12-.24.12-.78,0-1.54-.04-1.87-.04-.28,0-1.03.04-1.5.04-.17,0-.25-.04-.25-.12,0-.06.05-.1.19-.1.18,0,.32-.02.43-.05.24-.05.3-.31.35-.66.06-.5.06-1.45.06-2.55v-1.06s-.04-.07-.07-.07h-4.58s-.07.01-.07.07v1.06c0,1.1,0,2.05.06,2.57.04.34.11.6.47.65.17.02.43.05.61.05.13,0,.19.04.19.1,0,.08-.1.12-.24.12-.78,0-1.54-.04-1.87-.04-.28,0-1.03.04-1.51.04-.16,0-.24-.04-.24-.12,0-.06.05-.1.19-.1.18,0,.32-.02.43-.05.24-.05.3-.31.35-.66.06-.5.06-1.45.06-2.55v-2.11c0-1.82,0-2.16-.02-2.54-.02-.41-.12-.6-.52-.68-.1-.02-.3-.04-.47-.04-.13,0-.2-.02-.2-.11s.08-.11.25-.11c.65,0,1.4.04,1.73.04.29,0,1.04-.04,1.51-.04.17,0,.25.02.25.11s-.11.11-.22.11c-.1,0-.25.01-.35.02-.32.05-.42.28-.44.7-.02.38-.02.72-.02,2.54v.25c0,.06.04.08.07.08h4.58Z"/>
    <path class="cls-1" d="M28.45,80.26c0-1.82,0-2.16-.02-2.54-.02-.41-.12-.6-.52-.68-.1-.02-.3-.04-.47-.04-.13,0-.2-.02-.2-.11s.08-.11.26-.11c.55,0,1.1.04,1.73.04.38,0,2.77,0,3-.01.23-.02.42-.05.52-.07.06-.01.13-.05.19-.05s.07.05.07.11c0,.08-.06.23-.1.78-.01.12-.04.65-.06.79-.01.06-.04.13-.12.13s-.11-.07-.11-.22c0-.05-.01-.24-.07-.38-.08-.22-.2-.36-.8-.43-.2-.02-1.46-.05-1.7-.05-.06,0-.08.04-.08.12v3.03c0,.08.01.13.08.13.26,0,1.64,0,1.92-.02.29-.02.47-.06.58-.18.08-.1.13-.16.19-.16.05,0,.08.02.08.1s-.05.26-.1.88c-.01.24-.05.72-.05.8,0,.1,0,.23-.11.23-.08,0-.11-.13-.11-.19-.01-.12-.01-.19-.05-.35-.06-.24-.23-.42-.67-.47-.23-.02-1.42-.04-1.7-.04-.06,0-.07.05-.07.12v.95c0,.41-.01,1.51,0,1.86.02.83.22,1.01,1.44,1.01.31,0,.82,0,1.13-.14.31-.14.46-.4.54-.89.02-.13.05-.18.13-.18.1,0,.1.1.1.22,0,.28-.1,1.09-.16,1.33-.08.31-.19.31-.65.31-1.07,0-2.12-.07-3.32-.07-.48,0-.97.04-1.51.04-.16,0-.24-.04-.24-.12,0-.06.05-.1.19-.1.18,0,.32-.02.43-.05.24-.05.3-.31.35-.66.06-.5.06-1.45.06-2.55v-2.11Z"/>
  </g>
  <g>
    <path class="cls-1" d="M3.77,97.39c0,2.38.48,3.39,1.28,4.05.74.61,1.5.67,2.06.67.72,0,1.61-.23,2.27-.89.9-.9.95-2.38.95-4.08v-2.06c0-2.5,0-2.96-.03-3.49-.03-.56-.17-.82-.71-.94-.13-.03-.41-.05-.59-.05s-.28-.03-.28-.15.12-.15.35-.15c.84,0,1.87.05,1.89.05.2,0,1.23-.05,1.88-.05.23,0,.34.03.34.15s-.1.15-.3.15c-.18,0-.28.02-.48.05-.44.08-.58.36-.61.94-.03.53-.03.99-.03,3.49v1.76c0,1.83-.18,3.77-1.56,4.95-1.17,1-2.35,1.18-3.42,1.18-.87,0-2.45-.05-3.65-1.14-.84-.76-1.46-1.97-1.46-4.36v-2.4c0-2.5,0-2.96-.03-3.49-.03-.56-.16-.82-.71-.94-.13-.03-.41-.05-.64-.05-.18,0-.28-.03-.28-.15s.12-.15.36-.15c.87,0,1.91.05,2.4.05.4,0,1.43-.05,2.02-.05.25,0,.36.03.36.15s-.1.15-.26.15c-.18,0-.28.02-.48.05-.44.08-.58.36-.61.94-.03.53-.03.99-.03,3.49v2.3Z"/>
    <path class="cls-1" d="M15.51,90.59c0-.33.05-.56.21-.56.18,0,.33.21.61.51.2.21,2.7,2.89,5.1,5.28,1.12,1.12,3.42,3.57,3.7,3.83l-.16-7.47c-.02-1-.16-1.32-.56-1.48-.25-.1-.64-.1-.87-.1-.2,0-.26-.05-.26-.15,0-.13.18-.15.43-.15.86,0,1.64.05,1.99.05.18,0,.81-.05,1.61-.05.21,0,.38.02.38.15,0,.1-.1.15-.3.15-.16,0-.3,0-.49.05-.46.13-.59.48-.61,1.4-.07,3.47-.12,6.91-.18,10.38,0,.36-.07.51-.21.51-.18,0-.38-.18-.56-.36-1.04-.99-3.14-3.14-4.85-4.84-1.79-1.78-3.67-3.88-3.96-4.19l.18,6.96c.03,1.28.25,1.71.58,1.83.28.1.59.12.86.12.18,0,.28.03.28.13,0,.13-.15.17-.38.17-1.07,0-1.73-.05-2.04-.05-.15,0-.92.05-1.78.05-.21,0-.36-.02-.36-.17,0-.1.1-.13.26-.13.21,0,.51-.02.74-.08.43-.13.49-.61.51-2.04.05-3.49.12-7.55.15-9.74Z"/>
    <path class="cls-1" d="M31.11,95.09c0-2.5,0-2.96-.03-3.49-.03-.56-.2-.84-.56-.92-.18-.05-.39-.07-.59-.07-.17,0-.26-.03-.26-.16,0-.1.13-.13.39-.13.62,0,1.66.05,2.14.05.41,0,1.38-.05,2.01-.05.21,0,.35.03.35.13,0,.13-.1.16-.26.16s-.3.02-.49.05c-.44.08-.58.36-.61.94-.03.53-.03.99-.03,3.49v2.89c0,1.6,0,2.9.07,3.6.05.44.17.74.66.81.23.03.59.07.84.07.18,0,.26.05.26.13,0,.12-.13.17-.31.17-1.09,0-2.12-.05-2.57-.05-.38,0-1.42.05-2.07.05-.21,0-.33-.05-.33-.17,0-.08.07-.13.26-.13.25,0,.44-.03.59-.07.33-.07.43-.35.48-.82.08-.69.08-1.99.08-3.59v-2.89Z"/>
    <path class="cls-1" d="M37.7,91.93c-.38-.91-.66-1.09-1.25-1.25-.25-.07-.51-.07-.64-.07-.15,0-.2-.05-.2-.15,0-.13.18-.15.43-.15.87,0,1.81.05,2.38.05.41,0,1.2-.05,2.02-.05.2,0,.38.03.38.15s-.1.15-.25.15c-.26,0-.51.02-.64.12-.11.08-.16.2-.16.35,0,.21.15.67.38,1.27.91,2.37,2.01,5.28,2.86,7.55.71-1.81,2.88-7.19,3.27-8.27.08-.21.15-.46.15-.61,0-.13-.07-.26-.21-.31-.2-.07-.44-.08-.66-.08-.15,0-.28-.02-.28-.13,0-.13.15-.16.46-.16.82,0,1.51.05,1.73.05.28,0,1.05-.05,1.55-.05.21,0,.35.03.35.15s-.1.15-.26.15-.51,0-.81.2c-.21.15-.46.43-.9,1.48-.64,1.55-1.09,2.43-1.97,4.46-1.05,2.4-1.83,4.19-2.19,5.02-.43.95-.53,1.22-.76,1.22-.21,0-.31-.23-.62-1l-4.14-10.05Z"/>
    <path class="cls-1" d="M51.61,95.09c0-2.5,0-2.96-.03-3.49-.03-.56-.17-.82-.71-.94-.13-.03-.41-.05-.64-.05-.18,0-.28-.03-.28-.15s.12-.15.36-.15c.76,0,1.51.05,2.37.05.53,0,3.8,0,4.11-.02.31-.03.58-.07.71-.1.08-.02.18-.07.26-.07s.1.07.1.15c0,.12-.08.31-.13,1.07-.02.16-.05.89-.08,1.08-.02.08-.05.18-.16.18s-.15-.1-.15-.3c0-.07-.02-.33-.1-.53-.12-.3-.28-.49-1.1-.59-.28-.03-2.01-.07-2.33-.07-.08,0-.12.05-.12.16v4.16c0,.11.02.18.12.18.36,0,2.25,0,2.63-.03.39-.03.64-.08.79-.25.12-.13.18-.21.26-.21.07,0,.11.03.11.13s-.07.36-.13,1.2c-.02.33-.07.99-.07,1.1,0,.13,0,.31-.15.31-.12,0-.15-.18-.15-.26-.02-.17-.02-.26-.07-.48-.08-.33-.31-.58-.92-.64-.31-.03-1.94-.05-2.34-.05-.08,0-.1.07-.1.16v1.3c0,.56-.02,2.07,0,2.55.03,1.13.3,1.38,1.97,1.38.43,0,1.12,0,1.55-.2.43-.2.62-.54.74-1.22.03-.18.07-.25.18-.25.13,0,.13.13.13.3,0,.38-.13,1.5-.21,1.83-.12.43-.26.43-.89.43-1.46,0-2.91-.1-4.56-.1-.66,0-1.33.05-2.07.05-.21,0-.33-.05-.33-.17,0-.08.07-.13.26-.13.25,0,.44-.03.59-.07.33-.07.41-.43.48-.9.08-.69.08-1.99.08-3.5v-2.89Z"/>
    <path class="cls-1" d="M61.61,95.09c0-2.5,0-2.96-.03-3.49-.03-.56-.17-.82-.71-.94-.13-.03-.41-.05-.64-.05-.18,0-.28-.03-.28-.15s.12-.15.36-.15c.87,0,1.91.05,2.25.05.56,0,1.81-.05,2.32-.05,1.04,0,2.14.1,3.03.71.46.31,1.12,1.15,1.12,2.25,0,1.22-.49,2.32-2.16,3.67,1.46,1.84,2.6,3.32,3.57,4.34.92.95,1.58,1.07,1.83,1.12.18.03.33.05.46.05s.2.05.2.13c0,.13-.12.17-.31.17h-1.61c-.92,0-1.33-.08-1.76-.31-.71-.38-1.33-1.15-2.25-2.42-.66-.91-1.41-2.02-1.63-2.27-.08-.1-.18-.12-.3-.12l-1.38-.03c-.08,0-.13.03-.13.13v.23c0,1.53,0,2.83.08,3.52.05.48.15.84.64.9.25.03.61.07.81.07.13,0,.2.05.2.13,0,.12-.12.17-.33.17-.95,0-2.17-.05-2.42-.05-.31,0-1.35.05-2.01.05-.21,0-.33-.05-.33-.17,0-.08.07-.13.26-.13.25,0,.44-.03.59-.07.33-.07.41-.43.48-.9.08-.69.08-1.99.08-3.5v-2.89ZM63.55,96.38c0,.18.03.25.15.3.34.12.84.17,1.25.17.66,0,.87-.07,1.17-.28.49-.36.97-1.12.97-2.47,0-2.34-1.55-3.01-2.52-3.01-.41,0-.71.02-.87.07-.12.03-.15.1-.15.23v5Z"/>
    <path class="cls-1" d="M73.28,102.55c-.26-.12-.31-.2-.31-.56,0-.9.07-1.89.08-2.16.02-.25.07-.43.2-.43.15,0,.17.15.17.28,0,.21.07.56.15.84.36,1.22,1.33,1.66,2.35,1.66,1.48,0,2.2-1,2.2-1.88,0-.81-.25-1.56-1.61-2.63l-.76-.59c-1.81-1.42-2.43-2.57-2.43-3.9,0-1.81,1.51-3.11,3.8-3.11.62,0,1.12.07,1.51.13.28.05.49.1.67.15.15.03.23.08.23.2,0,.21-.07.69-.07,1.97,0,.36-.05.49-.18.49-.12,0-.16-.1-.16-.3,0-.15-.08-.66-.43-1.09-.25-.31-.72-.81-1.79-.81-1.22,0-1.96.71-1.96,1.69,0,.76.38,1.33,1.74,2.37l.46.35c1.99,1.5,2.7,2.63,2.7,4.19,0,.95-.36,2.09-1.55,2.86-.82.53-1.74.67-2.62.67-.95,0-1.69-.12-2.4-.43Z"/>
    <path class="cls-1" d="M83.14,95.09c0-2.5,0-2.96-.03-3.49-.03-.56-.2-.84-.56-.92-.18-.05-.39-.07-.59-.07-.17,0-.26-.03-.26-.16,0-.1.13-.13.39-.13.62,0,1.66.05,2.14.05.41,0,1.38-.05,2.01-.05.21,0,.35.03.35.13,0,.13-.1.16-.26.16s-.3.02-.49.05c-.44.08-.58.36-.61.94-.03.53-.03.99-.03,3.49v2.89c0,1.6,0,2.9.07,3.6.05.44.17.74.66.81.23.03.59.07.84.07.18,0,.26.05.26.13,0,.12-.13.17-.31.17-1.09,0-2.12-.05-2.57-.05-.38,0-1.42.05-2.07.05-.21,0-.33-.05-.33-.17,0-.08.07-.13.26-.13.25,0,.44-.03.59-.07.33-.07.43-.35.48-.82.08-.69.08-1.99.08-3.59v-2.89Z"/>
    <path class="cls-1" d="M94.72,97.98c0,1.51,0,2.81.08,3.52.05.46.15.82.64.89.23.03.59.07.84.07.18,0,.26.05.26.13,0,.12-.13.17-.31.17-1.08,0-2.12-.05-2.58-.05-.38,0-1.42.05-2.07.05-.21,0-.33-.05-.33-.17,0-.08.07-.13.26-.13.25,0,.44-.03.59-.07.33-.07.43-.43.48-.9.08-.69.08-1.99.08-3.5v-6.74c-.62.02-1.64.05-2.45.07-.95.03-1.35.11-1.6.48-.17.25-.25.44-.28.58-.03.13-.08.2-.18.2-.12,0-.15-.08-.15-.26,0-.26.31-1.76.34-1.89.05-.21.1-.31.2-.31.13,0,.3.17.71.2.48.05,1.1.08,1.64.08h6.51c.53,0,.89-.05,1.13-.08.25-.05.38-.08.44-.08.12,0,.13.1.13.35,0,.34-.05,1.48-.05,1.91-.02.16-.05.26-.15.26-.13,0-.17-.08-.18-.33,0-.05-.02-.13-.02-.18-.03-.43-.48-.89-1.94-.92-.43-.02-1.1-.03-2.07-.05v6.74Z"/>
    <path class="cls-1" d="M104.95,98.49c0-.89-.17-1.25-.38-1.73-.11-.26-2.32-3.88-2.89-4.74-.41-.61-.82-1.02-1.13-1.2-.21-.12-.49-.21-.69-.21-.13,0-.25-.03-.25-.15,0-.1.12-.15.31-.15.3,0,1.53.05,2.07.05.35,0,1.02-.05,1.76-.05.17,0,.25.05.25.15s-.12.12-.36.18c-.15.03-.23.16-.23.3s.08.33.2.56c.23.49,2.53,4.46,2.8,4.92.17-.39,2.24-4.01,2.47-4.52.16-.36.23-.64.23-.86,0-.16-.07-.35-.35-.41-.15-.03-.3-.07-.3-.17,0-.11.08-.15.28-.15.54,0,1.07.05,1.55.05.36,0,1.45-.05,1.76-.05.18,0,.3.03.3.13,0,.12-.13.16-.31.16-.17,0-.48.07-.72.2-.35.17-.53.36-.89.81-.54.66-2.85,4.52-3.14,5.23-.25.59-.25,1.1-.25,1.64v1.35c0,.26,0,.95.05,1.65.03.48.18.84.67.9.23.03.59.07.82.07.18,0,.26.05.26.13,0,.12-.13.17-.35.17-1.04,0-2.07-.05-2.52-.05-.41,0-1.45.05-2.06.05-.23,0-.36-.03-.36-.17,0-.08.08-.13.26-.13.23,0,.43-.03.58-.07.33-.07.48-.43.51-.9.05-.69.05-1.38.05-1.65v-1.35Z"/>
  </g>
  <g>
    <path class="cls-1" d="M20.56,119.48c0,3.91.78,5.55,2.1,6.63,1.21,1,2.45,1.1,3.37,1.1,1.19,0,2.64-.38,3.72-1.46,1.48-1.48,1.56-3.91,1.56-6.68v-3.37c0-4.1,0-4.85-.05-5.71-.05-.92-.27-1.35-1.16-1.54-.22-.05-.67-.08-.97-.08s-.46-.05-.46-.24.19-.24.57-.24c1.37,0,3.07.08,3.1.08.32,0,2.02-.08,3.07-.08.38,0,.57.05.57.24s-.16.24-.48.24c-.3,0-.46.03-.78.08-.73.13-.94.59-1,1.54-.05.86-.05,1.62-.05,5.71v2.88c0,2.99-.3,6.17-2.56,8.11-1.91,1.64-3.85,1.94-5.61,1.94-1.43,0-4.01-.08-5.98-1.86-1.38-1.24-2.4-3.23-2.4-7.14v-3.93c0-4.1,0-4.85-.05-5.71-.05-.92-.27-1.35-1.16-1.54-.22-.05-.67-.08-1.05-.08-.3,0-.46-.05-.46-.24s.19-.24.59-.24c1.43,0,3.13.08,3.93.08.65,0,2.34-.08,3.31-.08.4,0,.59.05.59.24s-.16.24-.43.24c-.3,0-.46.03-.78.08-.73.13-.94.59-1,1.54-.05.86-.05,1.62-.05,5.71v3.77Z"/>
    <path class="cls-1" d="M47.94,120.45c0,2.48,0,4.61.13,5.77.08.75.24,1.35,1.05,1.46.38.05.97.11,1.37.11.3,0,.43.08.43.22,0,.19-.22.27-.51.27-1.78,0-3.48-.08-4.23-.08-.62,0-2.32.08-3.4.08-.35,0-.54-.08-.54-.27,0-.13.11-.22.43-.22.4,0,.73-.05.97-.11.54-.11.7-.7.78-1.48.13-1.13.13-3.26.13-5.74v-11.05c-1.02.03-2.69.08-4.01.11-1.56.05-2.21.19-2.61.78-.27.4-.4.73-.46.94s-.13.32-.3.32c-.19,0-.24-.13-.24-.43,0-.43.51-2.88.57-3.1.08-.35.16-.51.32-.51.22,0,.49.27,1.16.32.78.08,1.81.13,2.7.13h10.67c.86,0,1.46-.08,1.86-.13.4-.08.62-.13.73-.13.19,0,.22.16.22.57,0,.57-.08,2.43-.08,3.13-.03.27-.08.43-.24.43-.22,0-.27-.13-.3-.54,0-.08-.03-.22-.03-.3-.05-.7-.78-1.46-3.18-1.51-.7-.03-1.8-.05-3.39-.08v11.05Z"/>
    <path class="cls-1" d="M60.26,121.23c-.13,0-.19.05-.24.22l-1.46,3.85c-.27.67-.4,1.32-.4,1.64,0,.49.24.83,1.08.83h.4c.32,0,.4.05.4.22,0,.22-.16.27-.46.27-.86,0-2.02-.08-2.86-.08-.3,0-1.78.08-3.18.08-.35,0-.51-.05-.51-.27,0-.16.16-.22.38-.22.24,0,.57-.03.78-.05,1.24-.16,1.75-1.08,2.29-2.42l6.76-16.92c.32-.78.51-1.08.75-1.08.21,0,.4.24.67.86.65,1.48,4.96,12.48,6.68,16.57,1.02,2.43,1.81,2.8,2.37,2.94.4.08.81.11,1.13.11.22,0,.35.05.35.22,0,.22-.24.27-1.24.27s-3.13,0-5.28-.05c-.49-.03-.62-.05-.62-.22,0-.13.11-.22.38-.24.19-.05.38-.3.24-.62l-2.16-5.71c-.05-.13-.13-.19-.27-.19h-6.01ZM65.75,119.88c.13,0,.16-.08.13-.16l-2.42-6.66c-.08-.24-.19-.32-.3,0l-2.48,6.63c-.03.11,0,.19.11.19h4.96Z"/>
    <path class="cls-1" d="M91.97,116.46c.08,0,.16-.05.16-.19v-.57c0-4.1,0-4.85-.05-5.71-.05-.92-.27-1.35-1.16-1.54-.22-.05-.67-.08-1.05-.08-.3,0-.46-.05-.46-.24s.19-.24.57-.24c1.46,0,3.15.08,3.88.08.65,0,2.34-.08,3.39-.08.38,0,.57.05.57.24s-.16.24-.49.24c-.22,0-.46.03-.78.08-.73.13-.94.59-1,1.54-.05.86-.05,1.62-.05,5.71v4.74c0,2.48,0,4.61.13,5.77.08.75.24,1.35,1.05,1.46.38.05.97.11,1.37.11.3,0,.43.08.43.22,0,.19-.22.27-.54.27-1.75,0-3.45-.08-4.2-.08-.62,0-2.32.08-3.37.08-.38,0-.57-.08-.57-.27,0-.13.11-.22.43-.22.4,0,.73-.05.97-.11.54-.11.67-.7.78-1.48.13-1.13.13-3.26.13-5.74v-2.37c0-.11-.08-.16-.16-.16h-10.29c-.08,0-.16.03-.16.16v2.37c0,2.48,0,4.61.13,5.77.08.75.24,1.35,1.05,1.46.38.05.97.11,1.37.11.3,0,.43.08.43.22,0,.19-.22.27-.54.27-1.75,0-3.45-.08-4.2-.08-.62,0-2.32.08-3.4.08-.35,0-.54-.08-.54-.27,0-.13.11-.22.43-.22.4,0,.73-.05.97-.11.54-.11.67-.7.78-1.48.13-1.13.13-3.26.13-5.74v-4.74c0-4.1,0-4.85-.05-5.71-.05-.92-.27-1.35-1.16-1.54-.22-.05-.67-.08-1.05-.08-.3,0-.46-.05-.46-.24s.19-.24.57-.24c1.46,0,3.15.08,3.88.08.65,0,2.34-.08,3.4-.08.38,0,.57.05.57.24s-.24.24-.49.24c-.22,0-.57.03-.78.05-.73.11-.94.62-1,1.56-.05.86-.05,1.62-.05,5.71v.57c0,.13.08.19.16.19h10.29Z"/>
  </g>
  <g>
    <path class="cls-1" d="M6.79,116.87c.01,1.26-.64,2.72-1.69,3.42-.56.38-1.16.53-1.83.53-.88,0-1.99-.35-1.98-1.96,0-1.27.68-2.7,1.73-3.43.51-.36,1.13-.57,1.77-.57,1.29,0,2,.71,2,2.01ZM3.55,116.07c-.56.77-1.01,2.24-1.01,3.17,0,.84.4,1.13.84,1.13.36,0,.71-.17,1.03-.56.64-.77,1.14-2.43,1.14-3.43-.01-.6-.23-1.08-.78-1.08-.43,0-.83.22-1.22.77Z"/>
    <path class="cls-1" d="M9.07,115.09c.3-1.09.64-1.88,1.27-2.51.53-.49,1.09-.7,1.69-.7.75,0,1.25.39,1.25.97,0,.51-.4.7-.68.7-.3,0-.49-.14-.46-.39.03-.13.05-.29.05-.38.01-.27-.08-.47-.4-.47-.38,0-.66.42-.88.99-.2.51-.36,1.13-.52,1.78h1.3l-.17.46-1.27.09c-.51,2.08-1.09,4.32-1.48,5.34-.46,1.12-1.01,1.86-1.91,2.39-.43.26-.81.33-1.22.33-.49,0-.98-.35-.98-.78,0-.3.25-.6.52-.7.21-.1.35-.03.47.17.25.38.51.61.78.61.44,0,.69-.42.96-1.3.31-.95,1-3.71,1.53-6.06l-.99-.09.18-.46h.95Z"/>
  </g>
</svg>