<svg xmlns="http://www.w3.org/2000/svg" role="img" viewBox="-70.15 -70.15 3647.80 1190.30"><style>svg {shape-rendering:geometricPrecision;text-rendering:geometricPrecision;image-rendering:optimizeQuality;fill-rule:evenodd;clip-rule:evenodd}</style><g id="Camada_x0020_1"><path fill="#fefefe" d="M0 0h3508v126.29H0zm0 926.12h3508v126.29H0z"/><path fill="#233e69" d="M1884.54 463.05h-13.29V295.91H1962.67c28.29 0 70.68 8.03 70.68 37.14v100.29c0 26.24-52.68 29.71-81.84 29.71h-66.97zm383.27 257c1.38 89.91 67.69 119.19 163.05 121.35l149.35 1.03c92.01-3.45 150.16-35.64 158.6-110.02l-1.13-75.16c-.43-29.36-25.2-77.43-60.51-101.05l-217.12-156.96c-12.37-8.65-29.24-20.82-31.02-43.82l.28-22.31c2.23-25.71 34.39-32.74 54.68-34.23l23.72.06c34.65 0 62.54 15.67 63.48 33.42l-.39 27.55 164.64-.22.81-26.33c-1.39-89.9-67.7-119.17-163.06-121.35l-149.35-1.02c-92.02 3.45-150.16 35.64-158.6 110.02l1.14 75.17c.42 29.35 25.19 77.43 60.51 101.05l26.4 19.2L2544 659.85c12.37 8.65 29.25 15.14 31.03 38.15l-.29 22.32c-2.23 25.71-34.4 32.73-54.68 34.23l-23.72-.07c-34.65 0-62.54-15.66-63.48-33.42l.39-27.55-164.64.21-.8 26.33zM592.85 841.92h202.41V548.48h202.43v-85.43H795.26V295.89h271.18v-85.42H592.85v631.45zm2370.79-471.73l-.03-4.93 3.48 4.93 159.95 219.15H2963.64V370.19zM2806.4 841.92h157.24V697.05h250.83c2.04 7.58 45.12 70.78 52.74 81.4 14.78 20.57 38.72 63.47 61.51 63.47H3508c-4.24-15.77-210.57-299.51-239.63-339.48-42.42-58.34-80.38-113.29-123.48-170.92-42.2-56.42-83.62-121.06-181.25-121.06H2806.4v631.46zm-1673.32 0h473.59V760.2h-263.53c-8.8 0-11.45-2.58-11.45-11.14V559.62c0-8.55 2.65-11.14 11.45-11.14h194.78v-85.43h-206.23V295.89h274.98v-85.42h-473.59v631.45zM0 221.61v490.31c0 26.1 35.9 82.06 53.36 95.08 33.07 24.7 61.34 34.92 117.1 34.92H526.2V210.47H366.86c-8.54 0-11.12 2.59-11.12 11.14v538.6h-77.82c-52.89 0-74.41-27.98-74.15-81.69.26-53.22.04-106.52.04-159.76V221.69c.07-1.45.64-11.03-11.11-11.22H11.12C2.58 210.47 0 213.06 0 221.61zm1673.32 0l-.94 360.32.94 260.01 186.44-.02c8.78 0 11.42-2.59 11.42-11.14l.07-282.29h53.29c36.83 0 98.95 1.78 98.95 37.14v256.29h175.09V589.35c0-39.41-46.17-81.72-87.54-81.72 41-3.46 87.54-1.45 87.54-92.86v-78.01c0-99.98-82.54-126.29-186.5-126.29h-327.34c-8.78 0-11.42 2.59-11.42 11.14z"/><path fill="#94c348" d="M0 0h3508v126.29H0V0zm0 926.12h3508v126.28H0V926.12zm2667.24 7.52h17.01l-15.7 14.53h-9.48l8.17-14.53zM175.4 1024.88v-71.29h36.71c6.81 0 12.02.58 15.61 1.76 3.6 1.16 6.51 3.32 8.71 6.49 2.21 3.15 3.3 7.01 3.3 11.54 0 3.96-.84 7.36-2.52 10.23-1.7 2.87-4.02 5.2-6.96 6.99-1.89 1.14-4.47 2.08-7.73 2.81 2.62.88 4.53 1.76 5.74 2.64.8.58 1.98 1.83 3.52 3.74 1.54 1.92 2.58 3.38 3.09 4.42l10.66 20.67h-24.9l-11.77-21.8c-1.5-2.8-2.82-4.64-4-5.49-1.58-1.09-3.38-1.64-5.39-1.64h-1.95v28.93H175.4zm22.12-42.41h9.29c1 0 2.94-.31 5.84-.97 1.45-.29 2.65-1.03 3.58-2.23.9-1.19 1.37-2.57 1.37-4.13 0-2.32-.73-4.08-2.18-5.3-1.46-1.24-4.2-1.85-8.22-1.85h-9.68v14.48zm188.08-28.88h21.99v42.5c0 4.22-.66 8.2-1.97 11.94-1.32 3.74-3.38 7.02-6.19 9.83-2.8 2.81-5.73 4.76-8.82 5.91-4.28 1.57-9.41 2.38-15.42 2.38-3.47 0-7.25-.24-11.36-.75-4.09-.47-7.51-1.44-10.27-2.88s-5.28-3.5-7.57-6.16c-2.28-2.65-3.85-5.39-4.7-8.21-1.35-4.53-2.04-8.55-2.04-12.05v-42.51h21.99v43.52c0 3.9 1.09 6.94 3.23 9.11 2.16 2.19 5.14 3.29 8.97 3.29 3.79 0 6.77-1.07 8.94-3.24 2.14-2.14 3.22-5.2 3.22-9.16v-43.52zm125.21 71.29v-71.29h36.72c6.8 0 12.02.58 15.61 1.76 3.6 1.16 6.5 3.32 8.71 6.49 2.21 3.15 3.3 7.01 3.3 11.54 0 3.96-.84 7.36-2.53 10.23s-4.01 5.2-6.95 6.99c-1.89 1.14-4.47 2.08-7.73 2.81 2.62.88 4.53 1.76 5.74 2.64.8.58 1.98 1.83 3.52 3.74 1.54 1.92 2.57 3.38 3.09 4.42l10.66 20.67h-24.9l-11.77-21.8c-1.49-2.8-2.82-4.64-4-5.49-1.57-1.09-3.39-1.64-5.4-1.64h-1.94v28.93H510.81zm22.13-42.41h9.29c1.01 0 2.94-.31 5.83-.97 1.46-.29 2.66-1.03 3.59-2.23.91-1.19 1.37-2.57 1.37-4.13 0-2.32-.73-4.08-2.18-5.3-1.47-1.24-4.21-1.85-8.23-1.85h-9.67v14.48zm187.26 30.64h-25.1l-3.45 11.77h-22.51l26.79-71.29h24.03l26.8 71.29H723.7l-3.5-11.77zm-4.61-15.42l-7.89-25.62-7.83 25.62h15.72zm126.56-44.1h22.03v53.73h34.38v17.56h-56.41v-71.29zm430.75 0h32.74c6.43 0 11.65.88 15.63 2.62 3.97 1.76 7.25 4.27 9.85 7.54 2.59 3.29 4.47 7.09 5.63 11.43 1.17 4.35 1.75 8.95 1.75 13.82 0 7.61-.86 13.52-2.61 17.72-1.72 4.2-4.13 7.72-7.22 10.54-3.07 2.84-6.36 4.73-9.9 5.68-4.83 1.3-9.22 1.94-13.13 1.94h-32.74v-71.29zm22.03 16.15v38.94h5.39c4.62 0 7.89-.5 9.83-1.52 1.94-1.02 3.47-2.81 4.59-5.35 1.09-2.54 1.64-6.68 1.64-12.39 0-7.54-1.23-12.71-3.68-15.49-2.48-2.8-6.57-4.19-12.28-4.19h-5.49zm140.72 19.53c0-11.63 3.26-20.7 9.73-27.17 6.49-6.49 15.52-9.72 27.09-9.72 11.87 0 21.01 3.19 27.43 9.55 6.41 6.37 9.63 15.29 9.63 26.77 0 8.33-1.41 15.17-4.22 20.49-2.8 5.33-6.85 9.48-12.15 12.45-5.31 2.98-11.89 4.45-19.81 4.45-8.04 0-14.7-1.27-19.97-3.83-5.26-2.58-9.53-6.63-12.81-12.17-3.28-5.54-4.92-12.48-4.92-20.82zm22.04.11c0 7.21 1.33 12.36 4.01 15.52 2.66 3.13 6.32 4.7 10.92 4.7 4.73 0 8.4-1.54 10.98-4.6 2.59-3.1 3.9-8.62 3.9-16.58 0-6.73-1.35-11.62-4.06-14.74-2.71-3.07-6.38-4.63-11.02-4.63-4.43 0-8 1.57-10.69 4.72-2.7 3.14-4.04 8.35-4.04 15.61zm423.9 11.91l20.96-1.31c.44 3.4 1.38 6 2.77 7.79 2.26 2.88 5.51 4.31 9.73 4.31 3.13 0 5.56-.73 7.27-2.2 1.69-1.49 2.53-3.19 2.53-5.14 0-1.84-.79-3.49-2.42-4.95-1.63-1.47-5.37-2.84-11.28-4.14-9.67-2.18-16.56-5.05-20.67-8.64-4.14-3.61-6.22-8.19-6.22-13.77 0-3.67 1.06-7.13 3.18-10.39 2.13-3.25 5.32-5.81 9.58-7.69 4.27-1.85 10.11-2.78 17.52-2.78 9.12 0 16.08 1.69 20.86 5.08 4.77 3.38 7.61 8.78 8.53 16.16l-20.77 1.21c-.55-3.2-1.7-5.53-3.48-7-1.76-1.44-4.2-2.17-7.31-2.17-2.57 0-4.5.52-5.79 1.63-1.3 1.07-1.94 2.4-1.94 3.96 0 1.13.53 2.14 1.59 3.06 1.05.94 3.51 1.8 7.41 2.62 9.62 2.07 16.51 4.18 20.68 6.31 4.16 2.12 7.2 4.74 9.1 7.9 1.89 3.13 2.85 6.65 2.85 10.56 0 4.56-1.28 8.78-3.8 12.62-2.52 3.87-6.06 6.79-10.61 8.78-4.53 2-10.25 2.99-17.16 2.99-12.12 0-20.51-2.32-25.19-7.01-4.67-4.66-7.31-10.58-7.93-17.79h.01zm164.07-47.7h59.03v15.21h-36.95v11.35h34.27v14.54h-34.27v14.04h38.03v16.15h-60.11v-71.29zm160.07 0h28.99l11.18 43.37 11.14-43.37h28.88v71.29h-17.99v-54.36l-13.96 54.36h-16.28l-13.91-54.36v54.36h-18.05v-71.29zm183.46 0h22.08v71.29h-22.08v-71.29zm121.13 37.64h28.79v15.3h-28.79v-15.3zm170.48 21.88h-25.09l-3.45 11.77h-22.51l26.8-71.29h24.01l26.81 71.29h-23.06l-3.51-11.77zm-4.6-15.42l-7.89-25.62-7.83 25.62h15.72zm126.86 27.19v-71.29h36.7c6.82 0 12.03.58 15.61 1.76 3.61 1.16 6.51 3.32 8.71 6.49 2.22 3.15 3.31 7.01 3.31 11.54 0 3.96-.85 7.36-2.52 10.23-1.69 2.87-4.02 5.2-6.95 6.99-1.89 1.14-4.47 2.08-7.74 2.81 2.62.88 4.54 1.76 5.74 2.64.8.58 1.97 1.83 3.53 3.74 1.53 1.92 2.56 3.38 3.09 4.42l10.64 20.67h-24.9l-11.76-21.8c-1.49-2.8-2.82-4.64-4-5.49-1.58-1.09-3.39-1.64-5.39-1.64h-1.94v28.93h-22.13zm22.13-42.41h9.29c.99 0 2.94-.31 5.82-.97 1.46-.29 2.65-1.03 3.59-2.23.91-1.19 1.38-2.57 1.38-4.13 0-2.32-.73-4.08-2.2-5.3-1.46-1.24-4.19-1.85-8.21-1.85h-9.68v14.48h.01zm144.26-28.88h22.08v71.29h-22.08v-71.29zm126.54 0h32.72c6.45 0 11.66.88 15.64 2.62 3.97 1.76 7.25 4.27 9.84 7.54 2.59 3.29 4.47 7.09 5.65 11.43 1.16 4.35 1.73 8.95 1.73 13.82 0 7.61-.86 13.52-2.59 17.72-1.73 4.2-4.14 7.72-7.22 10.54-3.08 2.84-6.38 4.73-9.92 5.68-4.83 1.3-9.2 1.94-13.13 1.94h-32.72v-71.29zm22.02 16.15v38.94h5.4c4.61 0 7.87-.5 9.82-1.52 1.94-1.02 3.47-2.81 4.58-5.35 1.09-2.54 1.64-6.68 1.64-12.39 0-7.54-1.22-12.71-3.68-15.49-2.48-2.8-6.55-4.19-12.26-4.19h-5.5zm140.72 19.53c0-11.63 3.25-20.7 9.73-27.17 6.48-6.49 15.51-9.72 27.08-9.72 11.87 0 21.01 3.19 27.43 9.55 6.41 6.37 9.63 15.29 9.63 26.77 0 8.33-1.41 15.17-4.21 20.49-2.81 5.33-6.86 9.48-12.16 12.45-5.3 2.98-11.89 4.45-19.81 4.45-8.03 0-14.69-1.27-19.97-3.83-5.26-2.58-9.52-6.63-12.81-12.17-3.28-5.54-4.91-12.48-4.91-20.82zm22.03.11c0 7.21 1.34 12.36 4.01 15.52 2.67 3.13 6.32 4.7 10.92 4.7 4.73 0 8.4-1.54 10.99-4.6 2.59-3.1 3.9-8.62 3.9-16.58 0-6.73-1.36-11.62-4.07-14.74-2.7-3.07-6.37-4.63-11.03-4.63-4.42 0-7.99 1.57-10.68 4.72-2.69 3.14-4.04 8.35-4.04 15.61zM220.79 28.21h21.54v41.64c0 4.13-.64 8.01-1.93 11.68-1.28 3.66-3.3 6.88-6.05 9.62-2.74 2.76-5.63 4.68-8.65 5.8-4.2 1.54-9.22 2.32-15.11 2.32-3.39 0-7.11-.22-11.11-.71-4.02-.47-7.37-1.42-10.07-2.83-2.7-1.42-5.17-3.43-7.42-6.04-2.24-2.6-3.77-5.27-4.6-8.04-1.33-4.44-1.99-8.37-1.99-11.8V28.21h21.53v42.62c0 3.82 1.06 6.8 3.16 8.93 2.12 2.14 5.04 3.21 8.8 3.21 3.7 0 6.63-1.04 8.75-3.16 2.1-2.1 3.15-5.1 3.15-8.98V28.21zm122.5 0h20.17l26.29 38.62V28.21h20.34v69.82h-20.34L363.58 59.7v38.33h-20.29V28.21zm168.53 0h21.62v69.82h-21.62V28.21zm116.75 0h22.56l15.73 50.25 15.47-50.25h21.92l-25.92 69.82h-23.37l-26.39-69.82zm169.27 0h57.83v14.9h-36.21v11.11h33.59v14.24h-33.59v13.76h37.26v15.81h-58.88V28.21zm157.32 69.83V28.21h35.97c6.66 0 11.77.57 15.27 1.71 3.53 1.15 6.38 3.26 8.54 6.37 2.17 3.08 3.24 6.86 3.24 11.3 0 3.88-.83 7.21-2.47 10.03-1.66 2.8-3.93 5.09-6.82 6.84-1.85 1.11-4.36 2.03-7.58 2.74 2.57.87 4.44 1.73 5.63 2.59.79.57 1.93 1.79 3.45 3.66 1.51 1.89 2.52 3.32 3.03 4.35l10.44 20.23h-24.39l-11.53-21.35c-1.47-2.74-2.76-4.54-3.92-5.37-1.54-1.08-3.32-1.62-5.29-1.62h-1.9v28.34h-21.66l-.01.01zm21.67-41.55h9.11c.97 0 2.87-.3 5.71-.94 1.43-.29 2.6-1.02 3.51-2.19.89-1.17 1.35-2.52 1.35-4.05 0-2.26-.72-3.98-2.15-5.19-1.43-1.21-4.12-1.81-8.05-1.81h-9.48v14.18zm136.7 18.44l20.54-1.28c.43 3.33 1.34 5.87 2.72 7.63 2.2 2.82 5.39 4.22 9.52 4.22 3.07 0 5.45-.71 7.12-2.17 1.66-1.44 2.49-3.11 2.49-5.02 0-1.8-.78-3.43-2.37-4.86-1.59-1.43-5.27-2.77-11.06-4.05-9.46-2.13-16.21-4.94-20.24-8.46-4.06-3.53-6.1-8.02-6.1-13.48 0-3.6 1.05-7 3.12-10.19 2.09-3.18 5.21-5.69 9.38-7.52 4.18-1.83 9.91-2.73 17.17-2.73 8.93 0 15.75 1.66 20.42 4.98 4.68 3.31 7.47 8.59 8.37 15.83l-20.35 1.18c-.53-3.13-1.67-5.43-3.42-6.86-1.71-1.41-4.1-2.13-7.15-2.13-2.51 0-4.4.53-5.67 1.6-1.27 1.06-1.9 2.36-1.9 3.88 0 1.11.51 2.1 1.55 3 1.03.93 3.44 1.77 7.25 2.56 9.44 2.03 16.19 4.1 20.27 6.18 4.07 2.08 7.06 4.66 8.91 7.74 1.85 3.08 2.8 6.53 2.8 10.34 0 4.48-1.26 8.6-3.74 12.37-2.46 3.79-5.93 6.65-10.38 8.61-4.43 1.95-10.05 2.92-16.81 2.92-11.87 0-20.09-2.27-24.67-6.85-4.59-4.58-7.16-10.38-7.77-17.45v.01zm161.61-46.72h21.62v69.82h-21.62V28.21zm123.94 0h32.06c6.3 0 11.41.86 15.31 2.56 3.89 1.73 7.11 4.19 9.65 7.39 2.53 3.22 4.37 6.94 5.52 11.2 1.15 4.26 1.71 8.76 1.71 13.52 0 7.47-.84 13.26-2.55 17.36-1.69 4.12-4.05 7.57-7.08 10.34-3 2.77-6.23 4.63-9.7 5.55-4.73 1.27-9.02 1.91-12.86 1.91h-32.06V28.21zm21.57 15.81v38.15h5.28c4.52 0 7.74-.5 9.63-1.5 1.91-.98 3.4-2.74 4.49-5.23 1.07-2.49 1.61-6.54 1.61-12.13 0-7.39-1.2-12.45-3.62-15.18-2.41-2.73-6.42-4.11-12.01-4.11h-5.38zm179.34 42.49h-24.59l-3.38 11.52h-22.05l26.24-69.82h23.53L1626 98.03h-22.59l-3.42-11.52zm-4.52-15.11l-7.74-25.1-7.66 25.1h15.4zm124.25-43.19h32.06c6.3 0 11.42.86 15.31 2.56 3.89 1.73 7.11 4.19 9.65 7.39 2.53 3.22 4.38 6.94 5.53 11.2 1.14 4.26 1.71 8.76 1.71 13.52 0 7.47-.85 13.26-2.56 17.36-1.69 4.12-4.05 7.57-7.07 10.34-3.01 2.77-6.24 4.63-9.7 5.55-4.74 1.27-9.03 1.91-12.87 1.91h-32.06V28.21zm21.57 15.81v38.15h5.28c4.53 0 7.73-.5 9.64-1.5 1.9-.98 3.39-2.74 4.48-5.23 1.07-2.49 1.61-6.54 1.61-12.13 0-7.39-1.2-12.45-3.61-15.18-2.42-2.73-6.43-4.11-12.02-4.11h-5.38zm140.53-15.81h57.81v14.9h-36.19v11.11h33.57v14.24h-33.57v13.76h37.25v15.81h-58.87V28.21zm442.76 0h53.37v15h-31.69v12.2h27.05V69.5h-27.05v28.53h-21.68V28.21zm151.48 0h57.82v14.9h-36.19v11.11h33.57v14.24h-33.57v13.76h37.25v15.81h-58.88V28.21zm157.32 0h32.06c6.31 0 11.41.86 15.32 2.56 3.89 1.73 7.1 4.19 9.63 7.39 2.55 3.22 4.38 6.94 5.54 11.2 1.13 4.26 1.7 8.76 1.7 13.52 0 7.47-.84 13.26-2.55 17.36-1.7 4.12-4.04 7.57-7.07 10.34-3.01 2.77-6.24 4.63-9.71 5.55-4.73 1.27-9.02 1.91-12.86 1.91h-32.06V28.21zm21.57 15.81v38.15h5.29c4.52 0 7.72-.5 9.62-1.5 1.9-.98 3.4-2.74 4.49-5.23 1.07-2.49 1.61-6.54 1.61-12.13 0-7.39-1.21-12.45-3.61-15.18-2.42-2.73-6.42-4.11-12.01-4.11h-5.39zm140.52-15.81h57.82v14.9h-36.2v11.11h33.57v14.24h-33.57v13.76h37.25v15.81h-58.87V28.21zm157.31 69.83V28.21h35.98c6.66 0 11.77.57 15.27 1.71 3.53 1.15 6.38 3.26 8.54 6.37 2.17 3.08 3.24 6.86 3.24 11.3 0 3.88-.83 7.21-2.47 10.03-1.66 2.8-3.94 5.09-6.82 6.84-1.85 1.11-4.38 2.03-7.58 2.74 2.57.87 4.44 1.73 5.63 2.59.78.57 1.93 1.79 3.45 3.66 1.51 1.89 2.52 3.32 3.02 4.35l10.44 20.23h-24.39l-11.52-21.35c-1.47-2.74-2.77-4.54-3.92-5.37-1.54-1.08-3.32-1.62-5.29-1.62h-1.9v28.34h-21.68v.01zm21.68-41.55h9.11c.97 0 2.87-.3 5.7-.94 1.44-.29 2.6-1.02 3.51-2.19.9-1.17 1.35-2.52 1.35-4.05 0-2.26-.71-3.98-2.14-5.19-1.43-1.21-4.12-1.81-8.05-1.81h-9.48v14.18zm183.43 30.02h-24.59l-3.38 11.52h-22.04l26.24-69.82h23.52l26.27 69.82h-22.59l-3.43-11.52zm-4.53-15.11l-7.72-25.1-7.66 25.1h15.38zm123.97-43.19h21.59v52.62h33.68v17.2h-55.27V28.21z"/></g></svg>