<?xml version="1.0" encoding="UTF-8" standalone="no"?>
<svg id="svg4964" xmlns:rdf="http://www.w3.org/1999/02/22-rdf-syntax-ns#" xmlns="http://www.w3.org/2000/svg" xml:space="preserve" height="45.198" viewBox="0 0 300.00003 45.197942" width="300" version="1.1" xmlns:cc="http://creativecommons.org/ns#" xmlns:dc="http://purl.org/dc/elements/1.1/"><defs id="defs4968"><clipPath id="clipPath4980" clipPathUnits="userSpaceOnUse"><path id="path4982" d="m0 350h612v92h-612v-92z"/></clipPath></defs><g id="g4972" transform="matrix(1.25 0 0 -1.25 -232.19 517.68)"><g id="g4978" clip-path="url(#clipPath4980)"><g id="g5618" transform="matrix(.39247 0 0 .39247 185.75 240.62)"><g><path id="path4984" d="m114.84 418.01h2.5174v-16.361c-0.037-6.1454 2.8865-8.4789 7.7362-8.4789 4.8868 0 7.8114 2.3335 7.7744 8.4789v16.361h2.5163v-16.916c0-5.442-2.9235-10.07-10.291-10.07-7.3301 0-10.254 4.6276-10.254 10.07v16.916"/><path id="path4986" d="m139.98 410.68h2.3324v-3.2949h0.074c0.8515 2.2953 3.4059 3.8502 6.1073 3.8502 5.368 0 6.9969-2.8136 6.9969-7.3672v-12.29h-2.3323v11.92c0 3.2949-1.0736 5.7753-4.8497 5.7753-3.701 0-5.9222-2.8136-5.9962-6.5527v-11.142h-2.3324v19.102"/><path id="path4988" d="m159.93 410.68h2.3323v-19.1h-2.3323v19.1zm0 7.3289h2.3323v-3.7379h-2.3323v3.7379z"/><path id="path4990" d="m164.6 410.68h2.5915l5.9973-16.769h0.0741l5.9222 16.769h2.4063l-7.1438-19.102h-2.4804l-7.3672 19.102"/><path id="path4992" d="m197.62 402.46c-0.1111 3.517-2.2953 6.8119-6.0702 6.8119-3.8132 0-5.9234-3.3319-6.2936-6.8119h12.364zm-12.364-1.9621c0.037-3.4047 1.814-7.5152 6.2936-7.5152 3.4059 0 5.2558 2.0003 5.9962 4.8868h2.3323c-0.9996-4.3303-3.517-6.8477-8.3285-6.8477-6.0715 0-8.6259 4.6646-8.6259 10.106 0 5.0348 2.5544 10.107 8.6259 10.107 6.1443 0 8.5876-5.368 8.4025-10.736h-14.696"/><path id="path4994" d="m203.1 410.68h2.1473v-4.4796h0.074c1.1847 3.0728 3.7761 4.8868 7.2179 4.7387v-2.3323c-4.2192 0.2221-7.1068-2.8876-7.1068-6.8488v-10.18h-2.3324v19.102"/><path id="path4996" d="m226.2 405.09c-0.1122 2.8876-2.3334 4.1834-4.9978 4.1834-2.0731 0-4.5165-0.8145-4.5165-3.2949 0-2.0731 2.3693-2.8136 3.9612-3.2208l3.1097-0.7034c2.6644-0.4061 5.4421-1.9621 5.4421-5.294 0-4.1451-4.1093-5.737-7.6633-5.737-4.4425 0-7.4782 2.0731-7.8472 6.7378h2.3311c0.1851-3.1468 2.5174-4.7769 5.626-4.7769 2.1854 0 5.2199 0.9626 5.2199 3.6292 0 2.2201-2.0731 2.9617-4.1822 3.4788l-2.9986 0.6675c-3.0357 0.8134-5.3299 1.8499-5.3299 5.1078 0 3.8871 3.812 5.368 7.1809 5.368 3.8131 0 6.8488-1.9991 6.9969-6.1455h-2.3323"/><path id="path4998" d="m232.61 410.68h2.3323v-19.1h-2.3323v19.1zm0 7.3289h2.3323v-3.7379h-2.3323v3.7379z"/><path id="path5000" d="m243.12 410.68h3.8861v-1.9621h-3.8861v-12.882c0-1.5179 0.221-2.4064 1.8881-2.5174 0.6652 0 1.3316 0.037 1.998 0.111v-1.9991c-0.7034 0-1.3687-0.074-2.0732-0.074-3.1086 0-4.1834 1.0366-4.1463 4.2944v13.067h-3.3319v1.9621h3.3319v5.737h2.3334v-5.737"/><path id="path5002" d="m248.23 410.68h2.4804l6.2924-16.288 5.8863 16.288h2.3323l-8.2927-22.026c-1.3327-3.2209-2.1102-4.1452-5.0348-4.1452-0.9255 0.0358-1.4068 0.0358-1.7758 0.1839v1.9633c0.5541-0.1111 1.0736-0.1863 1.5918-0.1863 2.0721 0 2.5533 1.2217 3.3308 2.9987l0.8144 2.1842-7.6251 19.028"/><path id="path5004" d="m279.18 401.13c0-4.0711 2.2212-8.1446 6.7007-8.1446 4.4784 0 6.6996 4.0735 6.6996 8.1446 0 4.0723-2.2212 8.1446-6.6996 8.1446-4.4795 0-6.7007-4.0723-6.7007-8.1446zm15.734 0c0-5.4779-3.1838-10.106-9.0331-10.106-5.8492 0-9.033 4.6276-9.033 10.106 0 5.4791 3.1838 10.107 9.033 10.107 5.8493 0 9.0331-4.6276 9.0331-10.107"/><path id="path5006" d="m305.76 408.72h-3.7761v-17.14h-2.3323v17.14h-3.2567v1.9621h3.2567v1.7399c-0.037 3.2937 0.8885 5.589 4.6276 5.589 0.6652 0 1.2217-0.037 1.9621-0.1481v-1.9979c-0.6294 0.1099-1.1477 0.1839-1.703 0.1839-2.5914 0-2.5174-1.6277-2.5544-3.7009v-1.6659h3.7761v-1.9621"/><path id="path5008" d="m338.04 410.02c-0.8896 4.0723-4.2574 6.4034-8.1075 6.4034-6.9969 0-9.9575-5.8481-9.9575-11.623 0-5.7741 2.9606-11.625 9.9575-11.625 4.8867 0 7.9953 3.7773 8.4766 8.4789h2.5174c-0.7022-6.4786-4.8115-10.625-10.994-10.625-8.3285 0-12.475 6.5527-12.475 13.771 0 7.219 4.1464 13.77 12.475 13.77 4.9966 0 9.9574-2.9986 10.625-8.5506h-2.5175"/><path id="path5010" d="m345.7 401.13c0-4.0711 2.2213-8.1446 6.7008-8.1446 4.4784 0 6.6996 4.0735 6.6996 8.1446 0 4.0723-2.2212 8.1446-6.6996 8.1446-4.4795 0-6.7008-4.0723-6.7008-8.1446zm15.733 0c0-5.4779-3.1826-10.106-9.0319-10.106s-9.0331 4.6276-9.0331 10.106c0 5.4791 3.1838 10.107 9.0331 10.107s9.0319-4.6276 9.0319-10.107"/><path id="path5012" d="m364.95 418.01h2.3323v-26.43h-2.3323v26.43z"/><path id="path5014" d="m373.14 401.13c0-4.0711 2.2212-8.1446 6.7007-8.1446 4.4784 0 6.6996 4.0735 6.6996 8.1446 0 4.0723-2.2212 8.1446-6.6996 8.1446-4.4795 0-6.7007-4.0723-6.7007-8.1446zm15.733 0c0-5.4779-3.1838-10.106-9.0319-10.106-5.8493 0-9.0331 4.6276-9.0331 10.106 0 5.4791 3.1838 10.107 9.0331 10.107 5.8481 0 9.0319-4.6276 9.0319-10.107"/><path id="path5016" d="m392.35 410.68h2.1473v-4.4796h0.074c1.1847 3.0728 3.7761 4.8868 7.2179 4.7387v-2.3323c-4.2192 0.2221-7.1068-2.8876-7.1068-6.8488v-10.18h-2.3324v19.102"/><path id="path5018" d="m416.23 402.02h-0.0752c-0.2962-0.5553-1.3316-0.7404-1.9621-0.8503-3.9601-0.7046-8.8839-0.6676-8.8839-4.4067 0-2.3323 2.0732-3.7761 4.2574-3.7761 3.5529 0 6.6996 2.2595 6.6638 5.9974v3.0357zm-12.439 2.8136c0.2221 4.4795 3.3689 6.4046 7.7362 6.4046 3.3689 0 7.0339-1.0366 7.0339-6.1455v-10.142c0-0.8885 0.4443-1.4068 1.3698-1.4068 0.2603 0 0.5553 0.074 0.7404 0.1481v-1.9633c-0.5183-0.1099-0.8885-0.1469-1.5179-0.1469-2.3693 0-2.7395 1.3327-2.7395 3.3319h-0.0729c-1.6301-2.4804-3.2948-3.8872-6.9599-3.8872-3.517 0-6.4046 1.74-6.4046 5.5901 0 5.3669 5.2188 5.552 10.255 6.1443 1.9239 0.2221 2.9987 0.4813 2.9987 2.5915 0 3.1467-2.2583 3.9242-4.999 3.9242-2.8865 0-5.0337-1.3328-5.1077-4.4425h-2.3323"/><path id="path5020" d="m431 392.99c4.9596 0 6.6996 4.1845 6.6996 8.1446 0 3.9612-1.74 8.1446-6.6996 8.1446-4.4413 0-6.2565-4.1834-6.2565-8.1446 0-3.9601 1.8152-8.1446 6.2565-8.1446zm9.0331-1.4056h-2.1472v3.628h-0.0741c-0.9995-2.4804-4.0352-4.1833-6.8118-4.1833-5.8111 0-8.5877 4.7005-8.5877 10.106 0 5.405 2.7766 10.107 8.5877 10.107 2.8506 0 5.6272-1.4438 6.6267-4.1834h0.0729v10.957h2.3335v-26.43"/><path id="path5022" d="m445.84 401.13c0-4.0711 2.2212-8.1446 6.7007-8.1446 4.4796 0 6.6996 4.0735 6.6996 8.1446 0 4.0723-2.22 8.1446-6.6996 8.1446-4.4795 0-6.7007-4.0723-6.7007-8.1446zm15.734 0c0-5.4779-3.1838-10.106-9.0331-10.106-5.8481 0-9.0319 4.6276-9.0319 10.106 0 5.4791 3.1838 10.107 9.0319 10.107 5.8493 0 9.0331-4.6276 9.0331-10.107"/><path id="path5024" d="m481.49 396.1h6.2195c2.2942 0 4.2933 0.7393 4.2933 3.48 0 2.7025-1.703 3.7749-4.1822 3.7749h-6.3306v-7.2549zm0 11.216h5.8864c2.0361 0 3.5528 0.9255 3.5528 3.1467 0 2.5175-1.9251 3.0357-3.9971 3.0357h-5.4421v-6.1824zm-5.8122 10.698h12.438c5.0348 0 8.4408-1.6289 8.4408-6.5515 0-2.5915-1.2958-4.4055-3.5911-5.5161 3.2208-0.9255 4.8498-3.4059 4.8498-6.6996 0-5.368-4.5524-7.6633-9.3281-7.6633h-12.809v26.43"/><path id="path5026" d="m510.48 395.02c3.5898 0 4.6634 3.0716 4.6634 6.1073 0 3.0727-1.0736 6.1455-4.6634 6.1455-3.5552 0-4.6276-3.0728-4.6276-6.1455 0-3.0357 1.0724-6.1073 4.6276-6.1073zm0 16.214c6.0321 0 9.9204-3.9983 9.9204-10.107 0-6.0703-3.8883-10.068-9.9204-10.068-5.9985 0-9.8846 3.9982-9.8846 10.068 0 6.1084 3.8861 10.107 9.8846 10.107"/><path id="path5028" d="m541.76 391.58h-4.999v2.6643h-0.1099c-1.3339-2.146-3.628-3.1826-5.8493-3.1826-5.5901 0-6.9969 3.1468-6.9969 7.8854v11.772h5.257v-10.809c0-3.148 0.9255-4.7017 3.3689-4.7017 2.8506 0 4.0722 1.5919 4.0722 5.4791v10.032h5.257v-19.139"/><path id="path5030" d="m545.91 418.01h5.257v-26.43h-5.257v26.43z"/><path id="path5032" d="m564.38 407.28c-3.4417 0-4.6276-2.9617-4.6276-6.1073 0-2.9987 1.371-6.1455 4.6276-6.1455 3.48 0 4.5166 3.0357 4.5166 6.1813 0 3.1098-1.1106 6.0715-4.5166 6.0715zm4.5906-13.252h-0.074c-1.2217-2.0732-3.3678-2.9617-5.8123-2.9617-5.7741 0-8.5888 4.9608-8.5888 10.255 0 5.1447 2.8506 9.9204 8.4789 9.9204 2.2583 0 4.4784-0.9626 5.663-2.8506h0.0741v9.6242h5.2558v-26.43h-4.9967v2.4434"/><path id="path5034" d="m590.81 403.2c-0.4813 2.6655-1.6289 4.0723-4.1834 4.0723-3.3318 0-4.2944-2.5915-4.3684-4.0723h8.5518zm-8.5518-3.3319c0.1481-3.3307 1.7781-4.8486 4.7016-4.8486 2.1102 0 3.8132 1.2958 4.1464 2.4804h4.6276c-1.4809-4.5177-4.6276-6.4416-8.9591-6.4416-6.0332 0-9.7735 4.1463-9.7735 10.068 0 5.7382 3.9613 10.107 9.7735 10.107 6.5157 0 9.6613-5.4791 9.2922-11.365h-13.809"/><path id="path5036" d="m599.18 410.72h4.999v-3.554h0.0728c0.9626 2.4063 3.554 4.0723 6.1085 4.0723 0.3702 0 0.8144-0.0741 1.1476-0.1851v-4.8868c-0.4813 0.1111-1.2587 0.1851-1.888 0.1851-3.849 0-5.183-2.7765-5.183-6.1443v-8.6258h-5.2569v19.139"/></g><path id="path5038" d="m68.949 418.91v10.582l-12.609 12.637h-43.69l-12.65-12.63v-43.615l12.65-12.625h13.876v-10.613l12.75-12.65h36.867l12.783 12.63v33.787h6.5099v22.494h-26.486" fill="#cfb87c"/><path id="path5040" d="m55.8 440.82 11.836-11.871v-11.35h26.486v-19.878h-6.5099v-34.54l-12.006-11.866h-35.794l-11.974 11.866v11.383h-14.649l-11.878 11.866v42.521l11.878 11.87h42.611"/><path id="path5042" d="m14.547 377.84h16.566v-13.295l10.048-9.9574h33.1l10.075 9.9574v36.454h6.5145v13.321h-19.981v-46.428h-26.44v9.9482h10.006l9.9285 9.9447v13.214h-13.318v-9.873h-6.6163v23.194h-19.924v-13.321h6.6071v-9.873h-13.24v33.222h33.173v-10.028h13.318v13.267l-9.9285 9.954h-39.889l-9.9644-9.9494v-39.807l9.9644-9.9447" fill="#fff"/><path id="path5044" d="m42.787 379.48h10.971l8.966 8.9798v10.9h-10.035v-9.8695h-9.9019v23.188h-16.643v-10.044h6.6094v-13.144h-16.516v36.494h36.452v-10.026h10.035v10.954l-8.966 8.9914h-38.531l-9.0042-8.9914v-38.453l8.9995-8.9798h17.53v-14.248l9.0851-9.0099h31.748l9.1141 9.0145v37.398h6.5076v10.044h-16.7v-46.418h-29.721v13.22" fill="#cfb87c"/></g></g></g></svg>
