<svg xmlns="http://www.w3.org/2000/svg" role="img" viewBox="-38.72 -38.72 1961.44 504.44"><style>svg {enable-background:new 0 0 1886 429}</style><style>.st0{fill:#017c34}</style><path d="M396.1 417V0h-99.8v198.7c0 81.8-66.6 148.4-148.4 148.4-58.6 0-109.4-34.2-133.5-83.6 6 12.5 13.7 24.1 22.8 34.5 13 14.8 29 26.3 46.5 35.3.1 31.9 0 63.8.1 95.8H396c.2-4.1 0-8.1.1-12.1zM0 210.8v.8l.1.1c0-.3-.1-.6-.1-.9z" class="st0"/><path d="M.9 216c1.7 16.5 6.4 32.6 13.5 47.5 24.1 49.5 74.9 83.6 133.5 83.6 81.8 0 148.4-66.6 148.4-148.4V-.6H-.5v199.3c0 4.1.2 8.1.5 12.1 0 .3.1.6.1.9.8 1.2.5 3 .8 4.3zM100.7-.1v.5h12v-.5h17v.5H142v-.5h17v.5h12v-.5h17v.5h107.3v198.3c0 81.3-66.1 147.4-147.4 147.4C66.6 346.1.5 280 .5 198.7V.4h55c-.3 3.3-.5 7.9.1 11.6l.1.4h.4c1.7.1 3.5.1 5.2.1h8.2l.1-.3c.7-2.2.6-4.9.5-7.5-.1-1.5-.1-2.9 0-4.2h13.6V0h17zM69.1 4.6c.1 2.4.2 4.9-.3 6.8h-4.6c-2.5 0-5.1 0-7.6-.1-.4-2.7-.5-6.2-.1-10.9h12.6c-.1 1.4 0 2.8 0 4.2z" class="st0"/><path d="M57 29.7c-1.1-.1-1.9.1-2.5.6v18.2c.7.5 1.5.7 2.6.6h126c1.6-.1 3.4.2 4.9-.3.3-6.2.2-12.6.1-18.9l-.9-.3c-43.4.1-87 .2-130.2.1zm26.8 18.1c-9.1.4-18.6.2-27.8.1l-.2-.9c.2-5.2-.4-10.9.3-15.9 9.1-.1 18.6-.3 27.7.1v16.6zm104.1 15.3l-.9-.3c-43.3-.1-86.7 0-130-.1-1-.1-1.9.1-2.6.6.1 6.1 0 12.2.1 18.2 1 1.3 2.1.6 3.5.7h125c1.5 0 3 0 4.6.1.4-.7.6-1.5.5-2.5-.2-5.4.1-11.1-.2-16.7zM83.8 80.8c-9 .5-18.6.2-27.7.1l-.3-.9c.1-5.2-.4-10.9.2-15.9 9.1-.1 18.7-.3 27.8.1v16.6zm470.1 127.5c-4.4-3.6-4-9.1-4.2-14.3-.1-34 .1-68-.1-102l.4-.8c2.8-.8 6.1-.2 9-.4 7.2.2 15.3-.6 22.1 1.9 2.8 1 4.3 3.1 6 5.4.5-.1 1-.2 1.5-.5-.4.8-.6 1.6-.5 2.4 2.1 4.3 3.5 9.2 4.4 14 0 .6.3 1.1.9 1.6 1.8 0 3.6-.1 5.4-.7-.1-9.4-1.5-19.2-1.5-28.8-.3-2.5.5-5.4-.6-7.6-1.4 0-2.8 0-4.2.1-2.5 3.3-5.1 5.1-9.5 5h-85c-3.7.1-6.6-2-8.5-5-1.4-.1-2.8-.1-4.1-.1-.8 11.2-1.3 22.4-2.4 33.6-.2 1.2-.1 2.4.3 3.6 1.7-.1 3.5-.1 5.2-.1 2.6-6.7 3.5-14.6 8.4-20.5 4.1-4.1 10.7-3.3 16-4.2 6-.1 12 0 18 0l.8.3c.5 1.5.2 3.3.3 4.9v97c-.4 5.3.4 12-4.4 15.6-4.5 2.3-10.2 2.7-15.2 2.9-1.1 1.1-1.2 5 0 6.1 19.4-.1 38.8-.1 58.2 0 .2-2 .3-4.1 0-6-5.4-.6-12.1-.4-16.7-3.4zm1198.6-93.8c-.7-5.8-1.1-11.6-1.2-17.4-.7-5.8-.9-11.8-.8-17.7-.7-1.8-3.5-.9-4.9-.8-1.7 2.2-3.7 4.2-6.5 4.7-3.6.3-7.4.2-11 .2h-74c-2.3-.1-4.4.1-6.5-.9-2-.5-3.5-2.8-4.9-4.2-1.3 0-3.5-.6-4.1.9-.4 8.9-.7 17.9-1.8 26.7 0 3.1-.7 6.3-.3 9.4 1.7-.3 5.3.9 6.1-.9 1.5-5.3 2.9-10.8 5.3-15.7 1.5-3.3 4.7-6.1 8.2-6.8 9.6-1.8 18.4-1.2 28-1.3 2.2.3 1.1 2.8 1.3 4.2v99c0 4.3-.2 8.5-2 12.5-2.6 3.1-6.7 3.8-10.5 4.3-2.5.6-5 .6-7.5.7-.7 2-.7 4.1 0 6.1 19.4-.1 38.8-.1 58.3 0 .8-1.6.8-4 .2-5.7-5.2-1.2-12.9-.6-17.5-4.3-3.9-3.9-3-9.7-3.4-14.7-.1-33 0-66-.1-99 0-1 .1-1.9.3-2.9l.8-.3c8.2.2 16.7-.3 24.9.5 3.1.5 7 1.1 9.2 3.7 5.2 6.1 6.2 13.2 8.5 20.5 2.2-.1 4.1.4 5.9-.8zm-130.6 92.6c-5.1-5.6-7.3-14.1-10.1-21-12-32.9-23.1-64.2-34.9-97-1.2-2.8-1.9-6-3.4-8.6-2 .5-4.2 1.2-6.1 2-1.9 3.9-3.3 8.1-4.9 12.1-13.1 32.9-25.9 66-39.1 98.9-2.3 5.8-5.4 12.8-11.2 15.8-3.1 1.5-7.4 1.3-10.3 2.6-.8 1.3-.1 3.9-.4 5.6h45c-.4-1.7.8-5.1-.9-6-4.3-.3-9.9-.9-13.2-3.8-1.5-2.3-.7-6.1 0-8.6 3.2-10.1 6.5-19.7 10.1-29.7.5-.7 1-.9 1.6-.8 13.8.1 27.7 0 41.5 0 .7.2 1.2.7 1.4 1.5 3.6 10.1 7.5 20.8 11.1 30.9.8 2.1.9 4.4.4 6.7-3 3.2-8 3-12.1 3.9-1.1.9-1 5 0 6.1 16.4-.1 32.8-.1 49.2 0 .8-1.5 1.2-4.7 0-6-4.6-.5-10.2-1.3-13.7-4.6zm-39.1-47.4c-12.1.1-24.5 0-36.6 0-.2-1.9 1.1-2.8 1.4-4.8 5.3-15.1 11-30 16.4-45 .4-1 .5-2 1.5-2.7 5.1 15.3 10.4 30.3 15.6 45.6.5 1.9 2.7 5.4 1.7 6.9zm-839 24.2c3.9-7.8 6.1-16.2 7.1-24.9 1.3-11.7.5-24.1-3.7-35.1-4.2-11.9-12.1-22.4-22.1-30-8-6.2-17.4-10.1-27.2-12.2-11.2-1.9-23-1.5-33.9 1.7-18 5.3-33.2 18.6-41 35.7-1.9 4.1-3.9 8.6-4.8 13-3.3 11.5-3.3 24.3-1 36 4.6 21.8 20.4 40.9 41.6 48.3 18.6 7 40 5.1 57.6-3.9 11.8-6.6 21.6-16.5 27.4-28.6zm-14.7-12.8c-1.7 7.8-3.7 15.2-8.1 21.9-4.3 7.4-10.5 13.5-18.5 16.7-10 4.8-22.4 4.1-32.5.1-4.3-2.4-8.4-4.7-12-8-8.1-7.1-13.7-17.1-16.9-27.3-2.7-6.6-3.4-14.5-4.2-21.6-1.1-17.1 1.4-34.3 11.5-48.5 2.5-2.9 5.2-5.5 7.9-8.2 4.5-3.2 9.2-5.9 14.6-7.3 15.1-3.8 32.3 1.6 42.5 13.4 7.9 8.3 11.7 18.6 14.6 29.4 2.8 13.1 3.1 26.4 1.1 39.4zm707.3-15.6c-.1 1.7-.2 3.5-.1 5.2 4.8 1.6 10.5.9 15.4 2.7 3.4 1 5.5 4.1 5.8 7.6.6 7 .3 14 .4 21-.1 5.3.4 10.5-2.9 15-1.9 1.9-4.7 3-7.2 3.9-9.6 3.3-20.2 2.9-29.9.4-11.7-2.9-22.1-10.5-29-20.3-7.2-10-10.9-21.8-12.4-34-.9-11.2-.1-22.9 3.7-33.5 4.2-13.1 14.1-24.8 26.7-30.4 11.8-5.7 26.3-6.5 38.9-3.3 5.9 1.6 11.7 4.8 15.6 9.6 4.7 4.8 7.3 12.1 8.8 18.5.1.7.4 1.3.8 1.8 1.9-.1 3.6-.7 5.4-1.2-.7-10.7-2.4-21.4-3.1-32.1-14.6-3.9-30.3-6.8-45.5-5.9-20.4 1.3-40.7 8.2-55 23.4-14.7 15.2-19.6 36.4-17.2 57 1.6 15 8.6 29.4 19.5 39.8 7.8 7.2 17.1 12.4 27.2 15.7 12.2 3.8 25 4.8 37.6 3.7 12.2-1.3 25-4 36.7-7.3-1.7-11-1.1-21.8-1.2-32.9.1-4.9-.4-9.3 1.1-14 3-4.2 7.9-3.8 12-5.3.1-1.8.1-3.5-.1-5.3-17.2.2-34.6.2-52 .2zm448.2 62.1c.8-1.3 1.3-5 0-6.1-3.7-.3-8.2-.6-11.3-2.8-3.1-1.6-5-5.4-6.7-8.3-5.1-11.9-9.1-24.2-13.7-36.4-7.4-20.5-14.5-40.7-21.9-61.1-2.4-5.3-3.5-10.5-5.8-16-.8-1.8-1.2-5.5-3.1-6.3-.8.3-1.7.5-2.6.8-1.1.3-2.1.6-3.1 1-11.2 28.1-23 58.6-34.3 86.7-3.4 9.3-7.3 18.8-11.1 27.9-1.7 3.6-3.7 7.6-6.7 10.3-3.9 2.9-8.2 3.6-12.9 4.3-1.5.8-.6 3-.9 4.4-.1.6.2 1.1.8 1.6h43.2c1.3-.2 1.2-4.9.5-5.6-3.6-1.3-9.2-.5-12.7-3.4-2.2-1.2-2-4.4-1.7-6.6 2.8-10.7 6.8-21.5 10.5-31.9.2-.8.7-1.2 1.7-1.4 14 .1 28.2-.1 42.1.1 1.4.7 1.5 3 2.1 4.3 3.3 9.7 7.1 19.3 10.3 29.1.3 1.9 1 5.2-.9 6.4-3.2 2-7.5 2.5-11.2 3-1.5 1.1-.4 4.2-.9 6 16.9 0 33.6-.2 50.3 0zm-89.3-57.8c-.2-1.1-.5-2.2-1-3.2.5.2 1 .4 1.5.5 3.6-9.1 7.2-18.7 10.2-28 2.6-6.5 4.6-11.6 6.7-18.4.6-.7.9-2.7 2-2.4 6 17.1 11.9 34.3 17.8 51.4-12.2.3-24.8-.1-37.2.1zm-902.8 53.8c-4.3-1.1-8.3-3.5-11.6-6.5-8.9-8.8-15.8-18.8-22.8-29.2-4.7-7.4-9.4-14.8-13.7-22.4-1-1.1-1-1.6-1-3 10.8-4.4 21.3-13 24.3-24.6 3.4-12.5.7-27.4-9.9-35.7C848.9 85 837 84 826 83.5c-18.2-.1-36.4 0-54.6 0-.1 2-.1 4 0 6 3.4.2 6.7.5 10.1 1.2 3 .6 5.9 2.9 6.8 5.9.7 4.4.8 9 .9 13.5v84c-.2 4.2-.2 8.3-1.8 12.2-.8 1.7-2.1 2.5-3.7 3.3-3.6 1.3-7.7 1.7-11.5 2-.7 0-1.2.2-1.7.8-.1 1.7 0 3.5.1 5.2h54.1c.1-2 .1-4 0-6-5-.1-10.6-.6-15-3.2-3.6-4.5-3-9.9-3.3-15.4 0-11.2-.1-22.5 0-33.7 2.5-.5 5.2-.2 7.7-.2 3.7.3 8.4.3 11.5 2.5 1.5 1.1 2.9 2.4 4 4 7.9 12.5 15.5 26.4 24.7 38.3 4 5 8.8 9.7 14.9 12 6.8 2.9 13.7 3 20.9 3.3.8 0 1.6-.2 2.4-.7-.2-1.6.2-3.3 0-4.9zM824 151.7c-5.8.4-12 .9-17.7 0V102c.2-3.4-.3-6.2 1.8-9.1 5.1-3.1 12.3-2.8 18-1.9 7.6 1.1 14.4 4.7 18.9 11.2 1.9 3.2 3.5 6.7 4.4 10.4 1 8.1 1.1 18.2-3.3 25.4-4.7 8-12.9 12.9-22.1 13.7zm217.4-68.3c-1 1.7-.9 4.4 0 6.1 4.3.5 9.2 1 13.1 3 3 1.5 2.1 5.3 1.8 7.9-9.9 30.2-22.1 60.5-33.7 90.2-.9.1-1.3-.1-1.3-.7-10.8-28.6-22-57.2-32.5-85.9-1-3.5-3-6.2-2.5-9.9.6-2 2.8-2.8 4.7-3.3 2.9-.5 5.7-1.1 8.6-1.3.5-1.5.5-4.5 0-6.1-16.7.1-33.5 0-50.2.1-.1 2-.1 4 0 6.1 4.3.7 9.9.6 13.1 3.9 1.2 1.3 2.8 2.5 3.8 4.1 4.9 10.2 8.5 20.9 12.9 31.4 9.8 25.1 19.1 50 28.5 75.2 1.8 5.2 3.7 10.4 5.8 15.4 2 .1 4.1 0 6.1 0 1.2-1.2 1.5-3.4 2.1-5 3.2-7.5 5.6-15.4 8.8-23 10.7-27.4 22-55.5 33.4-82.6 2.5-5.1 4.7-11.3 9.1-15.1 3.9-3.2 8.8-3.9 13.7-4.3 1-1.3 1.1-4.8 0-6.1-15.2 0-30.2 0-45.3-.1zm165.2 101.2c-1.9.2-4.3-.8-6-.1-2.4 7.8-6.3 16.1-12.6 21.6-5.7 4.2-13.3 4-20 4.3-7.7-.1-16.8.7-24-2.3-4.8-3.4-5.2-8.7-5.5-14.1-.1-13.7 0-27.4 0-41l.5-.8c8 0 16 0 23.9.1 3.8.2 8.1.1 11.5 2.3 3.2 2.3 4.1 6.9 4.9 10.5.3 1.1.1 2.9 1.6 3.2 1.5-.1 3.5.4 4.8-.4.6-1.5.2-3.3.4-4.9-.2-11.3.3-22.9-.2-34.2-1.5-.3-5.4-.9-6.3.6-.3 3.4-1.2 7.2-3.1 10.1-2.7 4-8.2 4.1-12.6 4.4-8.3.1-16.8.3-25.1-.1l-.4-.8c.1-15.7 0-31.4.1-47-.1-1.8.2-3.5 1.8-4.6 1.8-.9 3.6-.5 5.6-.6 7.3.1 14.7-.1 22 .1 4.7.7 9.8.4 13.9 3.2 1.5.9 2.3 2.3 3.1 3.9 2.7 4.8 4.5 10.1 5.6 15.6 1.7.8 4.1-.1 5.9-.1.3-9.9-1.5-20-1-30-30.7-.1-61.4 0-92-.1-.2 2-.2 4 0 6 3.5.2 7.1.6 10.6 1.4 2.1.7 4.3 1.8 5.2 4 1.4 3.1 1.5 6.8 1.6 10.1.1 30 0 60 0 90-.1 4.4-.1 10-3.8 13.1-4.5 2.6-10.6 2.9-15.6 3.4-1.4.2-1.3 5.7 0 6 32.7 0 65.5-.1 98.2 0 1.2-2.3 1.7-5 2.2-7.6 1.8-7.7 3.5-15.2 4.9-23 .2-.7.2-1.5-.1-2.2zm138.2 34.2c.7-1.6.8-3.5.8-5.3-10-2.6-15.6-10.8-22-18.1-7.3-9.5-13.7-19.5-20.1-29.6-2.1-4.3-5.5-8.5-7.1-12.9l.7-.7c9-3.8 16.9-10 21.5-18.7 5.3-11 4.8-25.1-2-35.4-5.7-7.9-14.6-12-24-13.5-5.8-.8-11.7-1.2-17.5-1.2h-50.6c-.1 1.8-.1 3.5 0 5.2.8 1.2 2.4.8 3.6 1 3.7.5 7.4.8 10.5 2.8 1.5.8 1.8 2.6 2.8 4 .8 5.4.7 11 .8 16.5v81c-.2 4.2-.1 8.2-1.8 12.1-1.4 2.9-4.3 3.6-7.1 4.4-2.9.7-5.8.9-8.7 1-1.8.8-.9 4.4-1 6 18-.1 36.1 0 54.1 0 0-1.7.1-3.4.1-5.1-.5-.6-1-.9-1.6-.9-3.8-.3-7.8-.7-11.5-2-3.8-2-4.7-6.6-5-10.4-.3-13.2-.1-26.5-.1-39.7 6-.3 13.7-1 19.1 2.2 3.1 2.1 4.7 5.4 6.7 8.3 7.2 11.6 14 23.8 22.4 34.6 2.5 3.5 5.8 6.2 9.3 8.7 8.4 5.4 17.5 5.8 27.2 6l.5-.3zm-57-70.1c-6.1 3.5-13.8 3.3-20.8 3.4-2.5-.2-5.4.4-7.7-.4v-45.8c0-3.8 0-7.7.4-11.5 1.7-2.9 5.2-3.8 8.3-4 7.8-.6 16.2.2 22.8 4.7 7.3 4.6 10.9 12.6 11.8 21 .8 8.1-.1 17.2-5.2 23.9-2.2 3.8-6 6.6-9.6 8.7zM187.9 96.1c-1-.2-1.9-.2-2.9-.2H57c-.9 0-1.8.1-2.6.4.2 6.1.1 12.2.1 18.4 1 1.3 3.1.4 4.6.7 42.7.1 86-.1 128.6.1.4-.7.6-1.5.5-2.4-.3-5.7-.1-11.4-.3-17zM83.2 114c-9 .1-18.1.2-27.1-.1l-.3-.9c.2-5.2-.4-10.9.3-15.9 9-.2 18.1 0 27.1-.1l.5.9v15.2l-.5.9zm-28.8 33.7l1 .8H183c1.5-.2 3.6.5 4.8-.4.3-6.2.2-12.7 0-18.9-2.2-.4-4.6-.1-6.9-.2h-124c-.9 0-1.8.1-2.6.4.2 6.1.2 12.2.1 18.3zm1.8-17.5c9.2 0 18.4-.2 27.6.1.1 5.5.1 11 0 16.5l-.8.3c-8.6.2-17.3 0-26 .1l-.9-.3-.4-.9c.4-5-.5-11.1.5-15.8zm-1.7 51.3h132.6l.8-.4c.2-6.3.2-12.7 0-19-2.2-.4-4.6-.1-6.9-.2H57c-1-.1-1.8 0-2.6.4.1 6.4 0 12.8.1 19.2zm1.7-18.3c9.1 0 18.3-.2 27.5.1.2 5.5.1 11 .1 16.4l-.8.3c-8.6.2-17.3 0-26 .1l-.9-.2c-.8-4.3 0-9.4-.3-13.9-.2-1.1 0-2 .4-2.8zM188 208c-.2-4.2.3-8.6-.2-12.8-2.2-.3-4.6-.1-6.8-.2H57c-.9 0-1.8.1-2.6.4.1 6.4 0 12.8.1 19.2 44.4.1 88.8.1 133.2.1.7-2.1.2-4.6.3-6.7zm-104.3 4.8l-.7.4c-8.7.1-17.3 0-26 .1l-.9-.3c-.8-4.7-.1-10.1-.3-15 0-1.4.4-1.9 1.3-1.7 8.9.1 17.7-.1 26.6.1.2 5.4.1 10.9 0 16.4zM188 241c-.1-4.3.2-8.6-.2-12.8-1.9-.2-3.9-.1-5.8-.2H57c-.9 0-1.8.1-2.6.3.1 5.8 0 11.7 0 17.6-.1.6.2 1.2.8 1.7h132.4c.7-2 .4-4.4.4-6.6zm-104.8 5.2c-8.6.4-17.6 0-26.3.2l-.9-.3-.3-1c.2-5-.2-10.2.2-15.2l1-.5c8.6.3 18.1-.3 26.5.3l.4 1.2c-.4 4.8.5 10.8-.6 15.3zm1078 22.4c-3 .7-6.1.5-9.2.5h-25c-2.9.2-2.9-2.4-5.7-1.8-.6 4.5-.5 9.2-1 13.8.2 2.3 3.1 1.8 3.3-.2.7-3.2 2.2-5.3 4.6-7.6 2.9-.7 6.8-1.1 9.7-.5.4 12.4.1 24.8.2 37.2-.2 2.7.2 5.5-3 6.4-2 .7-5.7 0-3.9 3.4 6.3.2 12.6 0 18.9 0 2.1 0 4.4.2 6.4-.3v-2c-2.9-1.5-7.2 0-7.7-4.5-.5-13-.1-26.1-.3-39.1l.3-1.1c2.8-.5 7-.4 9.7.7 3 1.3 3.6 4.7 4.5 7.5.4 1.9 3.1 2.2 3.3.1-.4-4.6-.7-9.1-.7-13.7-1.9-.4-2.9.1-4.4 1.2zM1009 291.1c-3.6-2.3-7.7-3.5-10.6-6.4-3.7-2.6-3.6-8.8-.3-11.7 2.7-2.5 7.4-2.3 10.2-.2 2.5 2.6 4.7 5.1 5.4 8.8h2.9c.2-3.8-1.2-7.3-1-11.1-5.4-2.9-14.3-3.4-20-.8-5.7 2.4-9.7 8.2-9 14.4 0 5.2 3.4 8.3 7.1 11.4 4.1 2.6 8.7 4.6 12.5 7.6 3.4 2.9 4.2 8 1.7 11.8-2.5 3-6.8 3.8-10.3 1.9-5.4-2.5-7.5-7.3-9.7-12.4-.8.1-1.6.2-2.4.2-.4 4.5.7 9.6 2.1 14 7.2 2.8 15.2 3.7 22.5.5 6.2-2.5 10-9.4 8.7-16-.6-5.8-5.4-9.4-9.8-12zm378.9-17c-7.4-6.3-17.7-7.5-26.8-4.8-10.5 3.3-17.9 13.7-17.8 24.7-.4 6 1.5 11.8 5 16.6 7.8 11.6 26 13.5 37.1 5.8 13.8-8.9 14.8-31.8 2.5-42.3zm-3.8 27.9c-.8 5.2-2.6 10.8-7.1 13.9-3.4 2.4-7.9 2.1-11.5.5-5.9-3-8.8-10.8-9.8-16.9-.5-4.9-.9-10.7.6-15.5 1.4-6.1 5.8-12.6 12.7-12.7 6.3-.4 10.6 4.5 13 9.7 2.5 6.6 2.9 14 2.1 21zm270.4-24.4c-5.8 7.1-7.1 17.7-4.3 26.3 3 9 11.3 15.8 20.7 16.8 8 1 16.5-.6 22.4-6.3 10.9-9.4 11.5-28.3 1.7-38.7-10.5-11.2-30.8-10.2-40.5 1.9zm32.3 33c-1.9 5.8-9.2 8.8-14.7 6.2-5.6-2.2-8.8-8.9-10.3-14.4-1.5-8.3-1.6-17.5 2.8-24.9 2.6-3.2 5-6.1 9.4-6.2 5.2-.6 9.2 2.6 11.9 6.7 3.6 5.9 4.2 12.1 4.2 18.9-.3 4.5-.8 9.9-3.3 13.7zM518.2 269.2c-.1.9-.2 1.8 0 2.6 2.5.5 5.8.5 7 3.2 1.6 6.2 1.2 12.5 1.2 19 0 5.5-.2 10.8-2.8 15.8-3.4 6.6-13.8 7.9-18.9 2.5-3.4-3.8-4.2-10.3-4.3-15.2.1-6.5-.1-13.1.1-19.6 0-1.4.5-2.6 1-3.9 1.6-1.2 3.4-1.4 5.3-1.7.2-.8.2-1.7 0-2.6-7.7-.1-15.7-.4-23.4.2v2.2c2.2.8 4.3.4 5.8 2.3.6 1.2.6 2.8.7 4.1.2 9-.3 18.1.5 27 .6 3 1.2 6.9 3.5 9.1 3.9 6.2 12.4 7.4 19.1 6.7 7.4-.6 14-5.6 15.9-12.8 2.7-8.9.8-19.8 1.8-29 .2-2 .5-3.8 1.8-5.4 1.5-1.3 3.3-1.4 5.2-1.9v-2.4c-6.4-.5-13-.3-19.5-.2zm91.3.2v2.2c3.3 1.3 6.5.1 7.7 4.4.9 9 1.1 18.5.5 27.5l-.3.1c-1.6-3.4-4.5-5.4-6.6-8.5-7.5-8.4-15-16.9-22.2-25.6-1.6-.7-3.8-.3-5.5-.5-3.2.1-6.5-.3-9.6.3v2.3c2.1.7 4.1.7 5.9 2.2 2.9 2.9 2.2 7.4 2.3 11.2-.2 9.7.7 19.7-1.2 29-1.5 2.3-3.7 2.5-6.1 3.3v2.4c6.3.2 13 .4 19.3-.1v-2.1c-1.5-.5-3-.8-4.6-1.1-2.4-.9-2.9-3-3.1-5.3-.8-9.5-.5-19.1-.5-28.7 1.4 0 1.4 1.2 2.2 2.1 9.9 11.6 20 24.2 30.2 35.9 1.1.5 2.6.2 3.8.3.6-15.3-.7-30.9 1.1-46.1 1.6-2.1 3.7-2.4 6-2.9.1-.8 0-1.6 0-2.3-6.4-.4-13.1-.6-19.3 0zm74.9 45.2c-.4-1.8-.5-3.8-.5-5.6v-28c0-2.5.2-5 .6-7.5 1.8-1.4 3.9-1.3 6-1.9v-2.2c-7.7-.7-15.6-.3-23.3-.2-.4.9-.4 1.8 0 2.5 1.7.5 4.1.5 5.3 1.8.7 1.5 1 2.8 1 4.4.1 10.7 0 21.3 0 32-.1 1.9 0 3.7-1 5.4-1.5 1.5-3.3 1.3-5.2 1.8-.4.8-.4 1.6 0 2.6 7.7-.1 15.8.4 23.4-.2v-2.2c-2.5-.7-4.6-.5-6.3-2.7zm79.8-45.4c-.2.9-.2 1.8 0 2.6 1.9.5 3.7.6 5.3 1.7.1 1.3.3 2.7-.1 4-2.4 6.3-4.2 12.8-6.8 19.1-1.1 3-2.4 5.8-3.2 8.9l-.9.1c-3.7-10.2-8-20.3-11.4-30.6-.2-3 3-2.1 4.8-3.2.3-.8.4-1.7 0-2.7-6.9-.2-13.9 0-20.9 0-2.2-.3-2.8.7-1.9 2.7 3.3.7 5.7 1.9 7 5.2 5.1 12.5 10.2 25.4 14.8 38.1.9 1.8 1.4 3.8 2.4 5.5 1.1.1 2.3.1 3.4 0 1.2-1 1.6-3.2 2.2-4.6 5.1-13.1 10.1-26.4 15.9-39.2 1.8-3.5 4.3-4.3 7.8-5.2v-2.2c-6.1-.6-12.3-.3-18.4-.2zm94.3 38.2c-2.1 4.3-3.9 8.6-9.5 8.9-3.4.1-8.9.9-11.4-1.8-.8-6-.3-12.2-.4-18.3 3.2-.8 7.4-.4 10.7.1 2.5 1.1 2.1 3.5 3.4 5.4.8.1 1.5.1 2.3-.1.5-5 .2-10.3.2-15.4-1.2-.2-2.3-.2-3.2.2 0 2.2-.9 4.2-3 5.1-3.4.3-6.9.4-10.3.2-.2-6.1-.3-12.3 0-18.4.7-.6 1.6-.8 2.6-.8 3.4.1 7.3-.3 10.5 1 2.7 1.9 3.2 4.6 4.6 7.3.7.4 1.5.4 2.6-.1.2-3.7-.6-7.5-.3-11.2-1.4-.4-3-.4-4.4-.5-10.9.4-21.8-.2-32.7.3-.1.8-.1 1.6-.1 2.5 1.9.5 4 .2 5.3 1.7.8 1.5 1 2.9 1 4.6 0 11.7.1 23.4-.1 35-.7 4.2-4.1 3.2-7.2 4.2v2.5c13.2.2 26.4.2 39.6 0 1.5-3.8 2.1-8.4 2.8-12.4-.7-1.2-2.3-1.4-3 0zm86.4 8.8c-5.6-5.5-9.5-13.6-13.6-20.2v-.6c3.9-2.2 7.4-4.4 9-8.8.5-3.5.9-7.5-1.2-10.6-2.2-4-6.9-5.9-11.2-6.5-7.3-.4-14.7-.2-22-.3-2.2 0-4.4-.1-6.5.3v2.2c1.4.6 3 .7 4.5 1.2 1.9 1.1 1.7 3.4 2 5.2v31c0 2-.1 4.1-.9 6-1.4 1.8-3.8 1.6-5.8 2.3 0 .8 0 1.5.1 2.3 7.7.5 15.7.2 23.4.1.2-.9.2-1.7 0-2.5-2.6-.7-5.3-.6-6.2-3.7-.4-5-.1-10.2-.2-15.3 2.7-.8 5.2.4 6.4 2.8 2.5 5.2 5.5 10.5 9 15.2 4.7 3.8 10.2 4.1 15.9 4.2 1-3.2-.6-2.8-2.7-4.3zm-16.8-26.1c-2 4.4-7.5 5.2-11.8 4.6 0-7.1-.2-14.2.1-21.2 1.6-1.5 4.6-1.1 6.6-.8 6.8 2 8.2 11.9 5.1 17.4zm147.3 25.5c-1.2-3.5-.9-6.9-.9-10.6.1-9.3-.1-18.7.1-28 .1-3.5 3-5 6.2-5.2.2-.8.2-1.7 0-2.6-3.9-.5-7.8 0-11.8-.1-3.8.1-7.8-.3-11.6.3v2.2c2.4.8 5.5.5 6.3 3.5.5 8.9.1 17.9.2 26.9-.1 4.1.4 8.5-.4 12.6-1.5 3-4.4 1.2-6 2.9-.1.7-.1 1.5-.1 2.2 7.7.5 15.7.2 23.4.2.2-.8.2-1.7-.1-2.6-1.8-.6-3.6-.8-5.3-1.7zm160.8-46.4c-.2.9-.2 1.7-.1 2.6 1.7.5 4.2.3 4.9 2.2.2 1.8-1 3.8-1.7 5.4-2.1 4.4-4.3 8.9-6.7 13.2h-.4c-1.7-3-3.3-6.1-4.8-9.1-1.4-3-3.8-6.2-4.4-9.5.2-2 3-1.7 4.5-2.5v-2.2c-7.3-.7-15-.3-22.3-.2-.2.9-.2 1.7 0 2.6 5.7.7 7.1 5 9.8 9.2 2.4 4.8 5.5 9.3 7.7 14.2 2.3 4 1.2 9.2 1.5 13.7-.1 2.5.4 5.8-2.2 7.2-1.5.5-3.2.7-4.8 1-.4.8-.4 1.6 0 2.5 6.6.2 13.2 0 19.8.1 1.8-.1 3.8.2 5.4-.3v-2.1c-2.4-1.1-5.6-.3-7.2-2.7-1-3.4-.5-7.2-.7-10.8.2-3.2-.5-6.1.9-9.1 3.6-6.9 7.3-14 12-20.2 1.6-1.6 4.2-2.3 6.2-2.9.6-.7.6-1.5 0-2.5-5.6 0-11.5 0-17.4.2zm201.8-.1c-2.3-.2-2.4.8-1.9 2.7 1.9.5 3.7.3 5.4 1.7.3 1.5.8 2.9.8 4.5.1 10.7 0 21.3 0 32 0 1.8-.2 3.7-1 5.3-1.5 1.6-3.2 1.2-5.1 1.9-.5.8-.5 1.6 0 2.6 7.9.1 15.8.1 23.7 0 .6-1 .5-2.1-.3-3.2-1.9 0-3.6.3-5.1-1.1-1.6-1.1-1.5-3.8-1.6-5.5.1-4.3-.3-8.8.3-13.1l.8-.5c3.6.2 7.6-.3 11.1.6 1.9.4 2.2 3 2.6 4.5.7 1.4 2.1 1.2 3 .1.1-4.8.1-9.5 0-14.3-1-.7-2-.7-3.1.1-.4 2.3-.9 4.2-3.5 4.7-3.4.2-7.8.8-11 0-.5-2.9-.1-6.1-.2-9.1.2-3.2-.4-6.7.4-9.8 1.2-.9 3.3-.5 4.7-.6 2.8.1 6.6-.1 9 1.4 2 2 2.8 5.3 4.4 7.6.8.1 1.5-.2 2.1-.9-.1-3.7 0-7.7-.9-11.4-11.2-.5-23.2-.1-34.6-.2zm171.2 46.8c-4.5-5-8.1-11-11.4-16.8-.7-1.3-1.6-2.4-1.6-3.9 3.1-1.8 5.8-3.1 7.6-6.4 3.4-5.4 1.8-12.5-3.1-16.4-3.5-2.5-7.4-3.2-11.6-3.2-8.2-.1-16.5-.3-24.7.1-.1.8-.1 1.7-.1 2.5 3.2.7 5.5.1 6.2 4.1.5 10 .1 20.1.2 30.2-.2 3.4.6 6.5-1.2 9.4-1.6 1.4-3.3 1.1-5.2 1.8-.5.8-.5 1.6 0 2.6 5.9.2 11.9 0 17.8.1 1.8-.1 3.8.2 5.6-.3v-2.2c-1.7-1.5-3.9 0-5.7-2.4-1.4-3.3-.8-7.4-.9-11 .1-1.9-.3-4 .3-5.8 2-.5 4.5.3 5.5 2.1 3.7 5.7 5.8 12.2 10.9 17.1 3.8 2.4 8 2.9 12.5 3.1 1.3.3 2.2-.2 2.7-1.5-.7-1.8-2.8-2-3.8-3.2zm-19.1-22.8c-2.2 1.9-6 1.7-8.8 1.7-.9-5.4-.2-11.2-.4-16.8.1-1.8-.4-4.6 1.6-5.5 5.2-1.4 10.7 2.1 11.4 7.5.9 4.6.2 10.1-3.8 13.1zm208.6 21.4l-.6-28.5c-.1-4.1-.6-8.6.4-12.5 1.8-1.5 4-.9 6-1.9v-2.1c-3-.7-6.3-.3-9.4-.4-2.1.1-4.5-.3-6.6.3-5 11-10.2 22.1-14.8 33.2-1.1-.4-1.5-2.3-2.1-3.2-4.3-10.1-8.9-19.8-13-30-5.3-.7-11-.3-16.4-.3-.2.9-.2 1.8 0 2.6 2.5.6 5.5.1 6.4 3.3.8 8.1-1.1 16.7-1.2 24.8-.7 4.7-.7 9.7-2 14.2-1.5 2.9-3.8 1.8-5.9 3.2v2.2c5.4.6 11.1.1 16.6.3 2.1.3 2.8-.8 1.8-2.6-2.2-.7-4.8-.6-6.2-2.7-1-4.7-.4-9.8-.4-14.5.4-6.6.5-13.2 1-19.8l.6.1c4.9 12.6 10 25.1 15 37.7.3 1.1 1 1.5 2.2 1.3 1.9-1.5 2.4-4.7 3.4-6.9 4.8-11 9.4-22.1 14.2-33.2.3 1.6.6 3.2.6 4.8-.1 8.7.1 17.3.1 26-.1 2.3 0 5.1-2.3 6.3-1.3.3-2.6.5-3.8.9-.2.8-.2 1.7 0 2.7 7.6.1 15.1 0 22.7 0 .4-1 .4-1.9 0-2.6-2.5-.7-4.6-.6-6.3-2.7zm84.7-8c-2.5 3.8-3.2 8.2-8.4 9.6-3.7.4-8.1.8-11.6-.5-3-1.8-1.8-6.6-2-9.5.3-3.1-.6-7.2.4-10 2-.5 4.1-.1 6.2-.2 1.6.1 3.8-.1 5.1 1.1 1.5 1.2 1.4 2.9 2.3 4.7.8.1 1.6.2 2.3.1.6-4.9.5-10.6.1-15.6-.9-.4-1.8-.4-2.6 0-.8 2.3-1.1 4.4-3.7 5.3-3.4.2-6.8.4-10.2.1 0-6.1-.1-12.2 0-18.2 2.6-1.5 6.6-.6 9.6-.7 4.8 0 7 4.1 8.2 8.2.7.4 1.6.4 2.5-.1.6-3.7-.4-7.6-.2-11.4-6.1-.7-12.4-.1-18.5-.3-6.2.2-12.5-.3-18.6.3v2.2c2.3.8 5.4.2 6 3.4.8 11.6.2 23.4.4 35-.2 1.6.3 4.5-1.3 5.5-1.8 1.6-3.8 1-6.1 1.9v2.2c1.4.4 3.1.2 4.6.3 11.7-.1 23.3.1 35-.1 1.5-3.2 2-7.3 2.7-10.8.6-1.8-.5-2.8-2.2-2.5zM171 13.8h17V-.1h-17v.5zm-29 0h16.9V-.1H142v.5zm-29.3 0h16.9V-.1h-16.9v.5zM83.7.4v13.4h17V-.1h-17z" class="st0"/></svg>