<?xml version="1.0" encoding="UTF-8" standalone="no"?> <svg xmlns:dc="http://purl.org/dc/elements/1.1/" xmlns:cc="http://creativecommons.org/ns#" xmlns:rdf="http://www.w3.org/1999/02/22-rdf-syntax-ns#" xmlns:svg="http://www.w3.org/2000/svg" xmlns="http://www.w3.org/2000/svg" viewBox="0 0 151.60001 113.28" height="113.28" width="151.60001" xml:space="preserve" id="svg2"><metadata id="metadata8"></metadata><defs id="defs6"></defs><g transform="matrix(1.3333333,0,0,-1.3333333,0,113.28)" id="g10"><g transform="scale(0.1)" id="g12"><path id="path14" style="fill:#15213a;fill-opacity:1;fill-rule:nonzero;stroke:none" d="m 375.293,30.3516 c 0.254,4.8828 -2.207,9.082 -9.941,9.082 -1.075,0 -1.719,-0.0586 -2.559,-0.2148 v -15.586 c 1.133,-0.2344 2.734,-0.4101 3.926,-0.4101 4.785,-0.0196 8.398,3.75 8.574,7.1289 z M 389.707,1.67969 V 0.253906 C 388.809,0.195313 387.91,0.15625 386.973,0.15625 c -7.93,0 -11.192,2.71484 -14.532,9.80469 l -2.324,4.94136 c -2.5,5.293 -3.34,4.9805 -7.324,5.0391 V 14.4727 C 362.832,4.84375 362.832,3.53516 367.91,3.41797 V 1.09375 h -17.558 v 2.32422 c 4.511,0.35156 5,1.07422 5.058,5.60547 0.059,1.71876 0.059,3.67186 0.059,5.39066 v 15.2343 c 0,5.0782 -0.059,6.8555 -0.235,8.2227 -0.293,2.3242 -1.425,2.7344 -4.882,3.0273 v 2.2657 l 19.043,0.0195 c 10.371,0 13.632,-5.0195 13.632,-10.8594 0,-4.0429 -2.5,-9.3554 -8.281,-11.1328 l 7.461,-12.94921 c 2.676,-4.94141 4.102,-6.07422 7.5,-6.5625 z M 907.852,19.707 h -16.914 v -2.2656 c 4.648,-0.4687 5.371,-0.5859 5.566,-5.957 0.059,-1.83596 -0.098,-2.85159 -0.859,-3.9844 -0.215,-0.23437 -2.637,-3.49609 -7.286,-3.49609 -8.203,0 -12.968,8.26169 -12.968,17.91019 0,12.0898 6.113,18.2812 13.457,18.2812 4.238,0 6.914,-1.7578 8.3,-3.125 3.145,-3.164 4.454,-6.0547 5.313,-8.5547 l 1.719,0.293 -0.332,13.1641 -2.188,-2.5 c -3.437,2.0898 -7.558,4.7656 -14.746,4.7656 -11.426,0 -20.527,-8.75 -20.527,-22.207 0,-11.0157 6.914,-21.9727062 21.386,-21.9727062 8.262,0 12.911,2.9296862 16.172,4.9414062 v 3.16406 c 0.118,7.96874 0.118,9.04294 3.907,9.27734 z M 329.629,4.84375 c -5.606,0 -6.738,1.48438 -6.738,4.21875 v 11.8164 h 4.531 c 5.176,0 6.66,-0.4492 6.66,-5.1562 h 2.051 v 13.8671 h -2.051 c -0.391,-3.7304 -1.191,-4.9609 -6.602,-4.9609 h -4.589 v 14.8047 h 5.195 c 7.148,0 9.687,-0.5469 10.644,-6.25 h 1.915 l -0.254,10 H 310.449 V 40.918 c 3.047,-0.3125 4.356,-0.4883 4.766,-2.4414 0.293,-1.3086 0.371,-5.9571 0.371,-7.6172 V 16.0352 c 0,-1.1329 -0.078,-6.19145 -0.137,-7.20707 -0.117,-4.58985 -0.644,-5 -5,-5.42969 V 1.07422 h 32.031 c 0,3.04687 0.528,8.04687 0.899,10.89848 h -2.031 C 339.922,4.49219 335.684,4.84375 329.629,4.84375 Z m 194.98,36.01565 c 2.891,-0.1758 4.629,-0.2539 4.629,-2.2656 0,-0.9571 -0.586,-2.2071 -1.66,-4.2969 l -5.957,-10.4492 -6.426,10.5273 c -1.074,1.7773 -1.836,3.0859 -1.836,4.2188 0,2.0117 1.954,2.1484 6.368,2.2656 v 2.3242 h -21.914 v -2.3242 c 4.042,-0.2539 4.121,-0.3516 7.148,-4.8828 l 11.191,-17.3243 v -7.3828 c -0.058,-4.58981 -0.058,-5.6445 -1.015,-6.62106 -0.84,-0.82031 -2.09,-0.9375 -5.371,-1.28906 V 1.07422 h 20.722 v 2.28516 c -6.23,0.35156 -6.308,0.95703 -6.308,8.57422 v 8.75 l 6.562,10.957 c 4.824,7.8321 6.074,9.1016 10.293,9.2188 v 2.3242 H 524.609 Z M 290.996,40.918 c 2.617,-0.0586 5.586,-0.1758 5.586,-3.2227 0,-1.0742 -0.703,-2.9687 -1.25,-4.4531 l -8.555,-22.0899 -7.324,21.3672 c -1.152,3.5157 -1.445,4.5118 -1.445,5.7227 0,2.4414 2.207,2.5586 5.625,2.6758 v 2.2656 H 263.672 V 40.918 c 4.219,-0.6446 4.57,-1.6016 7.441,-9.5899 L 282.598,0.3125 h 2.265 l 12.793,30.5469 c 3.457,8.3203 3.985,9.4531 8.047,10.0586 v 2.2656 h -14.707 z m -125.84,0 c 3.75,-0.293 5.703,-0.4102 5.957,-4.2188 0.039,-1.3867 0.039,-6.3867 0.039,-7.9297 0,-4.8828 -0.039,-12.2656 -1.23,-16.1914 -1.445,-4.94138 -4.746,-8.06638 -10.762,-8.06638 -1.836,0 -5.508,0.41016 -7.637,3.55469 -2.695,3.92579 -2.812,8.32029 -2.812,13.43749 v 9.8828 c 0.059,8.9258 0.059,9.1211 5.664,9.5313 v 2.2656 H 135.43 V 40.918 c 3.164,-0.1758 4.472,-0.7032 4.824,-3.3399 0.137,-1.0547 0.137,-3.0859 0.195,-7.6172 v -9.5312 c 0,-6.7774 0.059,-13.08595 6.309,-17.32423 3.926,-2.617189 8.691,-2.968751 11.015,-2.968751 2.911,0 13.926,0.605469 16.778,11.914081 0.722,3.0273 0.898,6.1914 1.015,9.3945 0.059,1.7969 0.547,13.457 0.606,14.4531 0.234,4.1797 1.055,5.0782 4.98,5.0196 v 2.2656 h -15.996 z m 287.949,2.2656 -0.351,-11.7969 h 2.187 c 0.372,7.5 3.516,7.3242 8.301,7.3242 h 5.235 V 7.69531 c 0,-3.33984 -1.075,-4.76562 -4.961,-4.82422 V 1.07422 h 17.402 v 1.79687 c -3.867,0.0586 -4.961,1.48438 -4.961,4.82422 V 38.7109 h 5.254 c 4.766,0 7.91,0.1758 8.281,-7.3242 h 2.188 l -0.352,11.7969 z M 416.543,24.0039 c -1.719,1.0156 -3.691,1.6797 -6.055,2.4414 -4.707,1.543 -9.648,3.2227 -9.648,8.2227 0,3.3203 2.617,5.4687 7.09,5.4687 3.32,0 6.172,-1.2109 8.203,-3.8281 1.68,-2.207 2.207,-3.4766 2.93,-6.2305 l 2.07,0.4297 -1.348,12.5 -2.578,-1.8555 c -3.574,2.2657 -6.836,2.8516 -9.648,2.8516 -7.207,0 -13.399,-4.3945 -13.399,-12.2656 0,-8.1445 6.485,-10.8203 9.961,-12.0703 1.66,-0.6641 3.438,-1.1914 5.117,-1.8555 2.012,-0.8203 6.602,-2.7344 6.602,-7.5 0,-4.53125 -3.926,-6.42578 -8.379,-6.42578 -6.328,0 -10.195,3.69141 -12.52,10.52738 l -2.128,-0.2344 0.585,-8.28126 3.516,-2.53906 c 1.68,-1.09375 5.176,-3.3398487 10.879,-3.3398487 8.887,0 14.844,6.0156287 14.844,13.2617687 0,5.0781 -2.754,8.7695 -6.094,10.7226 z M 215.215,40.918 c 6.68,-0.2344 6.855,-0.6055 6.914,-7.2657 V 14.7852 L 210.391,29.375 c -6.172,7.6758 -6.953,8.8086 -10.469,13.8086 H 187.305 V 40.918 c 2.793,-0.2344 3.75,-0.6446 6.074,-2.793 -0.059,-4.3555 -0.254,-29.35547 -0.84,-32.16797 -0.488,-2.36328 -1.797,-2.4414 -5.234,-2.59765 V 1.07422 h 17.148 v 2.28516 c -6.445,0.64453 -6.914,0.8789 -6.914,7.67582 v 21.8554 l 16.602,-20.5468 c 1.914,-2.3243 3.808,-4.70708 5.722,-7.08989 l 3.75,-4.707035 h 2.5 l 0.586,32.500025 c 0.078,6.8554 0.489,7.8125 5.078,7.8711 v 2.2656 h -16.562 z m 213.125,0 c 4.941,-0.7032 4.941,-0.9571 5.019,-9.7071 V 14.1211 8.76953 C 433.281,4.35547 432.461,3.88672 428.34,3.35938 V 1.07422 h 17.441 v 2.28516 c -3.281,0.23437 -4.453,0.82031 -4.746,3.39843 -0.137,1.23047 -0.176,5.93749 -0.176,7.42189 v 17.0312 c 0,9.0039 0,9.2188 4.922,9.7071 v 2.2656 H 428.34 Z m -189.082,0 c 4.941,-0.7032 4.941,-0.9571 5,-9.7071 V 14.1211 8.76953 c -0.059,-4.41406 -0.899,-4.88281 -5,-5.41015 V 1.07422 h 17.461 v 2.28516 c -3.281,0.23437 -4.473,0.82031 -4.766,3.39843 -0.117,1.23047 -0.195,5.93749 -0.195,7.42189 v 17.0312 c 0,9.0039 0,9.2383 4.961,9.7071 v 2.2656 h -17.461 z m 367.695,2.2656 V 40.918 c 3.027,-0.293 4.336,-0.4688 4.746,-2.4414 0.313,-1.3086 0.371,-5.9375 0.371,-7.6172 l -0.019,-14.7656 c 0,-1.1329 -0.039,-6.25005 -0.117,-7.26567 -0.118,-4.58985 -0.645,-5 -5,-5.42969 V 1.07422 h 17.421 v 2.32422 c -4.335,0.42969 -4.882,0.83984 -5,5.42969 l 0.04,12.05077 h 4.628 c 4.688,0 7.207,-0.4297 7.5,-5.1562 h 2.032 v 13.8867 h -2.032 c -0.234,-4.5313 -1.484,-4.9805 -6.601,-4.9805 h -5.527 v 14.5703 c 1.484,0.1758 2.304,0.2344 5,0.2344 8.222,0 10.859,0.0195 11.972,-6.543 h 2.071 l -0.665,10.293 z M 592.695,23.3594 c -0.175,5.4297 -1.679,10.0976 -4.785,13.3789 -1.347,1.4453 -4.004,3.5742 -7.519,3.4765 -3.496,0 -6.094,-2.2265 -7.403,-3.6914 -2.988,-3.3984 -4.355,-8.1054 -4.355,-13.5156 0,-5.4883 0.742,-9.6484 3.847,-14.12108 2.715,-3.86719 6.094,-4.94141 8.477,-4.94141 2.383,0.07813 5.723,1.25 8.32,5.19532 2.969,4.57027 3.575,8.74997 3.418,14.21877 z m 9.258,-1.1328 c 0,-14.53129 -9.902,-22.148475 -21.035,-22.148475 -12.227,0 -21.797,8.808595 -21.797,22.207075 0,11.4843 7.715,21.8554 21.231,21.7968 12.714,-0.0586 21.601,-9.1211 21.601,-21.8554 z M 684.844,11.1914 671.738,43.1836 H 658.535 V 40.918 c 3.75,-0.0586 4.59,-0.3516 4.59,-4.5313 0,-1.4844 0,-3.5156 -0.078,-4.8828 l -0.586,-17.6758 c -0.078,-2.3242 -0.254,-5.83982 -0.352,-6.97263 -0.234,-2.85156 -1.562,-3.33984 -4.961,-3.49609 V 1.07422 h 14.59 v 2.28516 c -4.453,0.35156 -4.922,1.13281 -4.922,5.23437 l 0.293,24.78515 13.516,-32.851556 h 3.672 L 699.004,32.9492 V 11.7383 C 698.945,3.94531 698.945,3.71094 693.652,3.35938 V 1.07422 h 18.399 v 2.28516 c -3.34,0.29296 -4.531,0.8789 -4.766,3.98437 -0.176,2.14844 -0.234,5.72265 -0.234,8.57425 v 17.3828 c -0.059,6.543 0,7.0898 5,7.3828 v 2.5 h -12.793 z m 36.074,29.7266 c 4.941,-0.7032 4.941,-0.9571 5,-9.7071 V 14.1211 8.76953 c -0.059,-4.41406 -0.879,-4.88281 -5,-5.41015 V 1.07422 h 17.441 v 2.28516 c -3.281,0.23437 -4.453,0.82031 -4.765,3.39843 -0.117,1.23047 -0.176,5.93749 -0.176,7.42189 v 17.0312 c 0,9.0039 0,9.2188 4.941,9.7071 v 2.2656 h -17.441 z m 122.07,-0.0196 c 4.922,-0.7226 4.922,-0.957 4.981,-9.707 V 14.1602 8.80859 C 847.91,4.39453 847.07,3.92578 842.988,3.37891 V 1.11328 h 17.461 v 2.26563 c -3.261,0.2539 -4.453,0.83984 -4.765,3.39843 -0.118,1.25 -0.196,5.95706 -0.196,7.44146 v 16.9726 c 0,8.9844 0,9.2383 4.961,9.707 v 2.2657 h -17.461 z m -26.445,0.0196 c 5.723,-0.5274 5.781,-0.8594 5.84,-8.5352 v -7.0703 c -3.574,-0.1758 -6.406,-0.293 -9.981,-0.293 -3.515,0 -6.054,0.1172 -9.668,0.293 v 5.8203 c 0,2.5 0.059,5.6055 0.352,6.9922 0.41,2.3047 1.719,2.4414 5.234,2.793 v 2.2656 H 790.332 V 40.918 c 3.281,-0.3125 4.473,-0.6446 4.688,-3.1641 0.195,-1.3086 0.195,-4.0625 0.195,-6.7969 V 13.3203 c 0,-1.4844 0,-2.9687 -0.059,-4.45311 0,-4.0625 -0.058,-5.0586 -4.824,-5.48828 V 1.11328 h 17.988 v 2.26563 c -5.41,0.60547 -5.527,0.60547 -5.586,9.35549 v 7.7148 c 3.614,0.1563 6.465,0.293 10.079,0.293 3.476,0 6.23,-0.1758 9.57,-0.293 v -7.7148 c 0,-3.0469 0,-4.64846 -0.117,-5.83987 -0.371,-2.91015 -1.485,-3.02734 -5.723,-3.51562 V 1.11328 h 18.223 v 2.26563 c -3.086,0.29297 -4.336,0.72265 -4.629,2.92968 -0.196,1.25 -0.254,6.54301 -0.254,8.22271 v 17.7343 c 0,7.9883 0,8.0469 4.883,8.6524 v 2.2656 h -18.223 z m -36.563,-28.5547 2.5,-1.8945 C 780.625,7.44141 776.152,0 764.551,0 c -12.656,0 -20.86,9.33594 -20.86,21.6016 0,11.3867 6.954,22.5586 21.153,22.5586 7.461,0 11.426,-3.1446 13.847,-5.0391 l 2.891,2.5977 0.215,-12.7344 -1.856,-0.3516 c -0.742,2.4414 -1.816,4.3945 -4.531,7.3828 -1.308,1.3672 -4.414,4.1016 -8.828,4.1016 -7.578,0 -13.574,-6.1914 -13.574,-17.0899 0,-9.2187 4.941,-17.91011 14.668,-17.91011 7.344,0 10.097,4.10156 12.304,7.24611 z M 957.148,1.60156 v 2.2461 c 3.457,0.19531 4.766,0.23437 5.254,2.63672 0.586,2.77343 0.762,27.69532 0.821,32.05082 -2.344,2.1289 -3.262,2.5586 -6.075,2.7929 v 2.2461 h 12.618 c 3.515,-5 4.277,-6.1133 10.468,-13.7695 L 991.953,15.2734 V 34.082 c -0.039,6.6407 -0.234,7.0118 -6.914,7.2461 v 2.2461 H 1001.6 V 41.3281 C 996.992,41.25 996.602,40.3125 996.543,33.457 L 995.957,1.05469 h -2.519 l -3.75,4.70703 C 987.793,8.125 985.879,10.5273 983.984,12.832 L 967.383,33.3008 V 11.543 c 0,-6.79691 0.469,-7.05081 6.914,-7.69534 V 1.60156 Z M 931.035,35.293 924.863,17.8906 h 12.071 z m 3.75,-33.69144 v 2.2461 c 2.891,0.19531 5.078,0.41015 5.078,2.7539 0,0.82032 -0.254,1.71875 -0.488,2.5 l -1.25,4.25784 H 923.34 l -1.309,-3.61331 c -0.293,-0.89843 -0.547,-1.71875 -0.547,-2.61718 0,-2.96875 3.145,-3.16407 5.704,-3.28125 v -2.2461 h -17.286 v 2.2461 c 4.395,0.19531 5.821,1.07422 7.422,5.48828 l 11.367,31.13286 -0.644,1.0351 c 4.844,1.582 6.211,2.3242 8.301,3.8477 0.84,-2.8321 0.957,-3.2032 1.894,-6.1914 l 9.317,-28.5157 C 949.18,5.58594 950,4.31641 954.434,3.84766 v -2.2461 h -19.649"></path><path id="path16" style="fill:#15213a;fill-opacity:1;fill-rule:nonzero;stroke:none" d="m 335.609,369.727 h -0.222 l -7.789,-35.235 h 16.257 z m -32.855,-65.84 22.582,81.523 h 22.473 l 22.129,-81.523 H 351.98 l -4.507,18.066 h -23.262 l -4.633,-18.066 h -16.824"></path><path id="path18" style="fill:#15213a;fill-opacity:1;fill-rule:nonzero;stroke:none" d="m 397.973,316.426 h 8.242 c 10.39,0 12.422,7.793 12.422,28.222 0,15.02 0,28.231 -11.856,28.231 h -8.808 z m -17.051,68.984 h 28.457 c 22.359,0 26.535,-14.902 26.535,-40.305 0,-12.527 1.918,-41.218 -27.215,-41.218 h -27.777 v 81.523"></path><path id="path20" style="fill:#15213a;fill-opacity:1;fill-rule:nonzero;stroke:none" d="m 443.324,385.41 h 17.727 l 12.644,-59.277 h 0.231 l 14.222,59.277 h 16.829 l -21.571,-81.523 h -19.984 l -20.098,81.523"></path><path id="path22" style="fill:#15213a;fill-opacity:1;fill-rule:nonzero;stroke:none" d="m 536.211,369.727 h -0.227 l -7.793,-35.235 h 16.262 z m -32.856,-65.84 22.583,81.523 h 22.468 l 22.129,-81.523 H 552.59 l -4.524,18.066 h -23.257 l -4.629,-18.066 h -16.825"></path><path id="path24" style="fill:#15213a;fill-opacity:1;fill-rule:nonzero;stroke:none" d="m 581.418,303.887 v 81.523 h 23.035 l 21.68,-56.445 h 0.222 v 56.445 h 15.918 v -81.523 h -22.468 l -22.246,59.629 h -0.223 v -59.629 h -15.918"></path><path id="path26" style="fill:#15213a;fill-opacity:1;fill-rule:nonzero;stroke:none" d="m 656.477,344.648 c 0,21.571 0,42.129 28.113,42.129 17.383,0 24.387,-9.609 23.711,-27.109 h -16.719 c 0,10.84 -1.914,14.902 -6.992,14.902 -9.602,0 -10.84,-9.023 -10.84,-29.922 0,-20.878 1.238,-29.921 10.84,-29.921 7.898,0 7.558,10.164 7.781,16.601 h 16.828 c 0,-21.797 -8.691,-28.789 -24.609,-28.789 -28.113,0 -28.113,20.781 -28.113,42.109"></path><path id="path28" style="fill:#15213a;fill-opacity:1;fill-rule:nonzero;stroke:none" d="m 721.387,303.887 v 81.523 h 44.492 v -12.531 h -27.441 v -20.098 h 25.292 v -12.527 h -25.292 v -23.828 h 28.347 v -12.539 h -45.398"></path><path id="path30" style="fill:#15213a;fill-opacity:1;fill-rule:nonzero;stroke:none" d="m 796.309,316.426 h 8.242 c 10.39,0 12.422,7.793 12.422,28.222 0,15.02 0,28.231 -11.856,28.231 h -8.808 z m -17.051,68.984 h 28.457 c 22.351,0 26.531,-14.902 26.531,-40.305 0,-12.527 1.926,-41.218 -27.203,-41.218 h -27.785 v 81.523"></path><path id="path32" style="fill:#15213a;fill-opacity:1;fill-rule:nonzero;stroke:none" d="m 21.4727,248.516 h 7.5703 c 6.7734,0 8.6914,6.777 8.6914,11.972 0,7.782 -3.2696,10.723 -8.6914,10.723 h -7.5703 z m 0,-46.301 H 4.42969 v 81.523 H 35.9258 c 11.6328,0 19.0898,-7.449 19.0898,-21.336 0,-10.39 -4.0664,-18.183 -15.1328,-19.98 v -0.234 c 3.7266,-0.45 14.7891,-1.348 14.7891,-16.036 0,-5.195 0.3437,-20.547 1.9219,-23.937 h -16.711 c -2.2617,4.973 -1.8047,10.5 -1.8047,15.812 0,9.707 0.9024,17.95 -12.1992,17.95 h -4.4062 v -33.762"></path><path id="path34" style="fill:#15213a;fill-opacity:1;fill-rule:nonzero;stroke:none" d="m 68.8438,202.215 v 81.523 H 113.328 V 271.211 H 85.8945 V 251.113 H 111.188 V 238.574 H 85.8945 V 214.746 H 114.234 V 202.215 H 68.8438"></path><path id="path36" style="fill:#15213a;fill-opacity:1;fill-rule:nonzero;stroke:none" d="m 149.441,200.859 c -21.113,0 -25.062,12.422 -24.16,26.543 h 17.047 c 0,-7.793 0.344,-14.347 9.711,-14.347 5.766,0 8.586,3.722 8.586,9.258 0,14.679 -34.324,15.578 -34.324,39.855 0,12.773 6.097,22.93 26.867,22.93 16.602,0 24.844,-7.461 23.719,-24.504 h -16.606 c 0,6.094 -1.011,12.304 -7.898,12.304 -5.531,0 -8.809,-3.046 -8.809,-8.687 0,-15.481 34.324,-14.113 34.324,-39.75 0,-21.121 -15.464,-23.602 -28.457,-23.602"></path><path id="path38" style="fill:#15213a;fill-opacity:1;fill-rule:nonzero;stroke:none" d="m 190.77,202.215 v 81.523 h 44.488 V 271.211 H 207.82 v -20.098 h 25.293 V 238.574 H 207.82 v -23.828 h 28.34 v -12.531 h -45.39"></path><path id="path40" style="fill:#15213a;fill-opacity:1;fill-rule:nonzero;stroke:none" d="m 278.176,268.047 h -0.227 l -7.789,-35.234 h 16.262 z m -32.86,-65.832 22.582,81.523 h 22.473 L 312.5,202.215 h -17.953 l -4.512,18.066 h -23.262 l -4.628,-18.066 h -16.829"></path><path id="path42" style="fill:#15213a;fill-opacity:1;fill-rule:nonzero;stroke:none" d="m 340.195,248.516 h 7.571 c 6.769,0 8.687,6.777 8.687,11.972 0,7.782 -3.269,10.723 -8.687,10.723 h -7.571 z m 0,-46.301 h -17.047 v 81.523 h 31.5 c 11.629,0 19.086,-7.449 19.086,-21.336 0,-10.39 -4.066,-18.183 -15.129,-19.98 v -0.234 c 3.723,-0.45 14.79,-1.348 14.79,-16.036 0,-5.195 0.339,-20.547 1.918,-23.937 h -16.708 c -2.261,4.973 -1.808,10.5 -1.808,15.812 0,9.707 0.902,17.95 -12.195,17.95 h -4.407 v -33.762"></path><path id="path44" style="fill:#15213a;fill-opacity:1;fill-rule:nonzero;stroke:none" d="m 386.152,242.977 c 0,21.574 0,42.121 28.118,42.121 17.386,0 24.386,-9.602 23.71,-27.102 h -16.71 c 0,10.84 -1.918,14.902 -7,14.902 -9.598,0 -10.84,-9.031 -10.84,-29.921 0,-20.887 1.242,-29.922 10.84,-29.922 7.902,0 7.562,10.168 7.793,16.593 h 16.82 c 0,-21.789 -8.692,-28.789 -24.613,-28.789 -28.118,0 -28.118,20.782 -28.118,42.118"></path><path id="path46" style="fill:#15213a;fill-opacity:1;fill-rule:nonzero;stroke:none" d="m 487.945,251.113 v 32.625 h 17.051 v -81.523 h -17.051 v 36.359 h -19.539 v -36.359 h -17.043 v 81.523 h 17.043 v -32.625 h 19.539"></path><path id="path48" style="fill:#15213a;fill-opacity:1;fill-rule:nonzero;stroke:none" d="m 544.105,242.977 c 0,21.574 0,42.121 28.118,42.121 17.39,0 24.394,-9.602 23.711,-27.102 h -16.711 c 0,10.84 -1.922,14.902 -7,14.902 -9.602,0 -10.84,-9.031 -10.84,-29.921 0,-20.887 1.238,-29.922 10.84,-29.922 7.898,0 7.566,10.168 7.793,16.593 h 16.824 c 0,-21.789 -8.699,-28.789 -24.617,-28.789 -28.118,0 -28.118,20.782 -28.118,42.118"></path><path id="path50" style="fill:#15213a;fill-opacity:1;fill-rule:nonzero;stroke:none" d="m 647.527,242.977 c 0,20.89 -1.25,29.921 -10.839,29.921 -9.598,0 -10.836,-9.031 -10.836,-29.921 0,-20.887 1.238,-29.922 10.836,-29.922 9.589,0 10.839,9.035 10.839,29.922 z m -38.953,0 c 0,21.574 0,42.121 28.114,42.121 28.117,0 28.117,-20.547 28.117,-42.121 0,-21.336 0,-42.118 -28.117,-42.118 -28.114,0 -28.114,20.782 -28.114,42.118"></path><path id="path52" style="fill:#15213a;fill-opacity:1;fill-rule:nonzero;stroke:none" d="m 678.895,202.215 v 81.523 h 27.433 l 12.766,-55.437 h 0.222 l 13.555,55.437 h 26.531 v -81.523 h -16.597 v 62.902 h -0.227 l -15.691,-62.902 h -16.262 l -14.902,62.902 h -0.235 v -62.902 h -16.593"></path><path id="path54" style="fill:#15213a;fill-opacity:1;fill-rule:nonzero;stroke:none" d="m 791.621,247.949 h 9.484 c 5.086,0 8.583,5.528 8.583,10.957 0,6.66 -1.805,12.305 -9.485,12.305 h -8.582 z m -17.051,35.789 h 30.711 c 15.586,0 21.684,-9.48 21.684,-24.383 0,-9.257 -2.707,-23.945 -22.695,-23.945 H 791.621 V 202.215 H 774.57 v 81.523"></path><path id="path56" style="fill:#15213a;fill-opacity:1;fill-rule:nonzero;stroke:none" d="m 894.133,283.738 v -57.812 c 0,-12.196 -6.887,-25.067 -27.668,-25.067 -18.738,0 -27.774,9.707 -27.774,25.067 v 57.812 h 17.051 v -56.687 c 0,-10.039 4.285,-13.996 10.496,-13.996 7.453,0 10.84,4.972 10.84,13.996 v 56.687 h 17.055"></path><path id="path58" style="fill:#15213a;fill-opacity:1;fill-rule:nonzero;stroke:none" d="m 959.602,283.738 v -13.543 h -18.965 v -67.98 h -17.051 v 67.98 h -18.977 v 13.543 h 54.993"></path><path id="path60" style="fill:#15213a;fill-opacity:1;fill-rule:nonzero;stroke:none" d="m 970.293,202.215 v 81.523 h 17.051 v -81.523 h -17.051"></path><path id="path62" style="fill:#15213a;fill-opacity:1;fill-rule:nonzero;stroke:none" d="m 1002.46,202.215 v 81.523 h 23.04 l 21.68,-56.453 h 0.22 v 56.453 h 15.92 v -81.523 h -22.47 l -22.25,59.621 h -0.22 v -59.621 h -15.92"></path><path id="path64" style="fill:#15213a;fill-opacity:1;fill-rule:nonzero;stroke:none" d="m 1115.61,258.672 c 0.11,7.566 -1.14,14.226 -10.17,14.226 -10.61,0 -10.61,-14.343 -10.61,-30.144 0,-25.52 2.48,-30.039 12.19,-30.039 2.82,0 5.88,0.683 8.47,1.582 v 18.066 h -9.26 v 12.539 h 26.31 v -41.328 c -4.63,-0.898 -16.26,-2.715 -23.03,-2.715 -28.68,0 -31.95,11.856 -31.95,42.793 0,20.559 1.01,41.446 28.9,41.446 16.71,0 27.09,-9.375 26.08,-26.426 h -16.93"></path><path id="path66" style="fill:#15213a;fill-opacity:1;fill-rule:nonzero;stroke:none" d="M 54.9883,182.07 V 168.516 H 36.0195 V 100.547 H 18.9688 v 67.969 H 0 v 13.554 h 54.9883"></path><path id="path68" style="fill:#15213a;fill-opacity:1;fill-rule:nonzero;stroke:none" d="M 65.6875,100.547 V 182.07 H 110.176 V 169.531 H 82.7383 V 149.434 H 108.031 V 136.902 H 82.7383 V 113.086 H 111.078 V 100.547 H 65.6875"></path><path id="path70" style="fill:#15213a;fill-opacity:1;fill-rule:nonzero;stroke:none" d="m 121.801,141.309 c 0,21.562 0,42.117 28.117,42.117 17.387,0 24.391,-9.598 23.711,-27.098 h -16.711 c 0,10.84 -1.918,14.902 -7,14.902 -9.602,0 -10.84,-9.035 -10.84,-29.921 0,-20.891 1.238,-29.922 10.84,-29.922 7.902,0 7.566,10.156 7.793,16.601 h 16.82 c 0,-21.797 -8.691,-28.7888 -24.613,-28.7888 -28.117,0 -28.117,20.7618 -28.117,42.1098"></path><path id="path72" style="fill:#15213a;fill-opacity:1;fill-rule:nonzero;stroke:none" d="m 223.59,149.434 v 32.636 h 17.051 V 100.547 H 223.59 v 36.355 h -19.535 v -36.355 h -17.047 v 81.523 h 17.047 v -32.636 h 19.535"></path><path id="path74" style="fill:#15213a;fill-opacity:1;fill-rule:nonzero;stroke:none" d="m 256.145,100.547 v 81.523 h 23.031 l 21.679,-56.457 h 0.231 v 56.457 h 15.918 v -81.523 h -22.469 l -22.246,59.621 h -0.223 v -59.621 h -15.921"></path><path id="path76" style="fill:#15213a;fill-opacity:1;fill-rule:nonzero;stroke:none" d="m 370.113,141.309 c 0,20.886 -1.242,29.921 -10.84,29.921 -9.601,0 -10.839,-9.035 -10.839,-29.921 0,-20.891 1.238,-29.922 10.839,-29.922 9.598,0 10.84,9.031 10.84,29.922 z m -38.957,0 c 0,21.562 0,42.117 28.117,42.117 28.114,0 28.114,-20.555 28.114,-42.117 0,-21.348 0,-42.1098 -28.114,-42.1098 -28.117,0 -28.117,20.7618 -28.117,42.1098"></path><path id="path78" style="fill:#15213a;fill-opacity:1;fill-rule:nonzero;stroke:none" d="m 401.703,100.547 v 81.523 h 17.051 v -67.968 h 25.519 v -13.555 h -42.57"></path><path id="path80" style="fill:#15213a;fill-opacity:1;fill-rule:nonzero;stroke:none" d="m 492.297,141.309 c 0,20.886 -1.242,29.921 -10.844,29.921 -9.594,0 -10.84,-9.035 -10.84,-29.921 0,-20.891 1.246,-29.922 10.84,-29.922 9.602,0 10.844,9.031 10.844,29.922 z m -38.957,0 c 0,21.562 0,42.117 28.113,42.117 28.117,0 28.117,-20.555 28.117,-42.117 0,-21.348 0,-42.1098 -28.117,-42.1098 -28.113,0 -28.113,20.7618 -28.113,42.1098"></path><path id="path82" style="fill:#15213a;fill-opacity:1;fill-rule:nonzero;stroke:none" d="m 560.793,157.012 c 0.109,7.558 -1.129,14.218 -10.164,14.218 -10.613,0 -10.613,-14.335 -10.613,-30.144 0,-25.52 2.484,-30.031 12.195,-30.031 2.824,0 5.871,0.664 8.469,1.574 v 18.062 h -9.258 v 12.532 h 26.308 v -41.328 c -4.628,-0.899 -16.261,-2.6958 -23.039,-2.6958 -28.675,0 -31.953,11.8558 -31.953,42.7928 0,20.547 1.016,41.434 28.907,41.434 16.71,0 27.101,-9.375 26.085,-26.414 h -16.937"></path><path id="path84" style="fill:#15213a;fill-opacity:1;fill-rule:nonzero;stroke:none" d="m 607.219,128.77 -21.336,53.3 h 18.629 l 12.187,-34.433 12.989,34.433 h 17.39 l -22.808,-53.3 v -28.223 h -17.051 v 28.223"></path><path id="path86" style="fill:#15213a;fill-opacity:1;fill-rule:nonzero;stroke:none" d="m 702.219,99.1992 c -21.125,0 -25.071,12.4098 -24.172,26.5238 h 17.051 c 0,-7.793 0.34,-14.336 9.715,-14.336 5.753,0 8.578,3.73 8.578,9.258 0,14.687 -34.328,15.585 -34.328,39.863 0,12.754 6.105,22.918 26.875,22.918 16.601,0 24.843,-7.449 23.71,-24.5 h -16.589 c 0,6.094 -1.016,12.304 -7.914,12.304 -5.528,0 -8.805,-3.046 -8.805,-8.691 0,-15.469 34.324,-14.121 34.324,-39.746 0,-21.113 -15.469,-23.5938 -28.445,-23.5938"></path><path id="path88" style="fill:#15213a;fill-opacity:1;fill-rule:nonzero;stroke:none" d="m 743.535,100.547 v 81.523 h 44.492 v -12.539 h -27.441 v -20.097 h 25.293 v -12.532 h -25.293 v -23.816 h 28.352 v -12.539 h -45.403"></path><path id="path90" style="fill:#15213a;fill-opacity:1;fill-rule:nonzero;stroke:none" d="m 818.105,146.836 h 7.559 c 6.777,0 8.699,6.777 8.699,11.973 0,7.793 -3.277,10.722 -8.699,10.722 h -7.559 z m 0,-46.289 h -17.05 v 81.523 h 31.504 c 11.629,0 19.082,-7.453 19.082,-21.34 0,-10.39 -4.063,-18.171 -15.137,-19.988 v -0.226 c 3.73,-0.45 14.797,-1.356 14.797,-16.024 0,-5.195 0.34,-20.558 1.922,-23.945 h -16.719 c -2.258,4.961 -1.809,10.508 -1.809,15.801 0,9.715 0.91,17.957 -12.183,17.957 h -4.407 v -33.758"></path><path id="path92" style="fill:#15213a;fill-opacity:1;fill-rule:nonzero;stroke:none" d="m 859.59,182.07 h 17.723 l 12.648,-59.277 h 0.227 l 14.226,59.277 h 16.824 l -21.57,-81.523 h -19.98 L 859.59,182.07"></path><path id="path94" style="fill:#15213a;fill-opacity:1;fill-rule:nonzero;stroke:none" d="m 931.824,100.547 v 81.523 h 17.055 v -81.523 h -17.055"></path><path id="path96" style="fill:#15213a;fill-opacity:1;fill-rule:nonzero;stroke:none" d="m 963.047,141.309 c 0,21.562 0,42.117 28.125,42.117 17.378,0 24.388,-9.598 23.708,-27.098 h -16.716 c 0,10.84 -1.914,14.902 -6.992,14.902 -9.602,0 -10.84,-9.035 -10.84,-29.921 0,-20.891 1.238,-29.922 10.84,-29.922 7.898,0 7.558,10.156 7.781,16.601 h 16.827 c 0,-21.797 -8.69,-28.7888 -24.608,-28.7888 -28.125,0 -28.125,20.7618 -28.125,42.1098"></path><path id="path98" style="fill:#15213a;fill-opacity:1;fill-rule:nonzero;stroke:none" d="m 1027.98,100.547 v 81.523 h 44.49 v -12.539 h -27.44 v -20.097 h 25.29 v -12.532 h -25.29 v -23.816 h 28.35 v -12.539 h -45.4"></path><path id="path100" style="fill:#15213a;fill-opacity:1;fill-rule:nonzero;stroke:none" d="m 1108.58,99.1992 c -21.12,0 -25.06,12.4098 -24.17,26.5238 h 17.05 c 0,-7.793 0.35,-14.336 9.72,-14.336 5.75,0 8.58,3.73 8.58,9.258 0,14.687 -34.33,15.585 -34.33,39.863 0,12.754 6.1,22.918 26.87,22.918 16.61,0 24.85,-7.449 23.72,-24.5 h -16.6 c 0,6.094 -1.01,12.304 -7.91,12.304 -5.52,0 -8.8,-3.046 -8.8,-8.691 0,-15.469 34.32,-14.121 34.32,-39.746 0,-21.113 -15.47,-23.5938 -28.45,-23.5938"></path><path id="path102" style="fill:#eec10b;fill-opacity:1;fill-rule:nonzero;stroke:none" d="M 568.555,514.785 452.383,673.574 V 558.086 h 46.191 V 443.965 H 284.902 v 114.121 h 43.36 v 177.519 h -43.36 v 114.043 h 167.871 l 115.782,-159.882 115.8,159.882 H 852.129 V 735.605 h -43.34 V 558.086 h 43.34 V 443.965 H 638.477 v 114.121 h 46.211 V 673.574 L 568.555,514.785"></path></g></g></svg> 