<?xml version="1.0" encoding="utf-8"?>
<!-- Generator: Adobe Illustrator 24.0.1, SVG Export Plug-In . SVG Version: 6.00 Build 0)  -->
<svg version="1.1" xmlns="http://www.w3.org/2000/svg" xmlns:xlink="http://www.w3.org/1999/xlink" x="0px" y="0px"
	 viewBox="0 0 247.87 106.52" style="enable-background:new 0 0 247.87 106.52;" xml:space="preserve">
<style type="text/css">
	.st0{fill:#FFFFFF;}
	.st1{clip-path:url(#SVGID_2_);fill:#D63D16;}
	.st2{fill:#EBF7FE;}
	.st3{fill-rule:evenodd;clip-rule:evenodd;fill:url(#SVGID_3_);}
	.st4{fill-rule:evenodd;clip-rule:evenodd;fill:url(#SVGID_4_);}
	.st5{fill-rule:evenodd;clip-rule:evenodd;fill:url(#SVGID_5_);}
	.st6{fill-rule:evenodd;clip-rule:evenodd;fill:url(#SVGID_6_);}
	.st7{fill-rule:evenodd;clip-rule:evenodd;fill:url(#SVGID_7_);}
	.st8{fill-rule:evenodd;clip-rule:evenodd;fill:url(#SVGID_8_);}
	.st9{fill-rule:evenodd;clip-rule:evenodd;fill:url(#SVGID_9_);}
	.st10{fill-rule:evenodd;clip-rule:evenodd;fill:url(#SVGID_10_);}
	.st11{fill-rule:evenodd;clip-rule:evenodd;fill:url(#SVGID_11_);}
	.st12{fill-rule:evenodd;clip-rule:evenodd;fill:url(#SVGID_12_);}
	.st13{fill-rule:evenodd;clip-rule:evenodd;fill:url(#SVGID_13_);}
	.st14{fill-rule:evenodd;clip-rule:evenodd;fill:url(#SVGID_14_);}
	.st15{fill-rule:evenodd;clip-rule:evenodd;fill:url(#SVGID_15_);}
	.st16{fill-rule:evenodd;clip-rule:evenodd;}
	.st17{fill:#009FE3;}
	.st18{fill:#B8A40C;}
	.st19{fill:#D63D16;}
</style>
<g id="Layer_1">
	<g>
		<g>
			<path class="st0" d="M15.09,69.42V10.17h58.62V69.5c0,2.49-1.47,4.77-3.78,5.86L44.41,87.47l-25.55-12.2
				C16.55,74.17,15.09,71.9,15.09,69.42z"/>
		</g>
		<g>
			<defs>
				<path id="SVGID_1_" d="M20.02,73c-1.42-0.68-2.3-2.05-2.3-3.58V27.4h53.37V69.5c0,1.51-0.91,2.92-2.31,3.58L44.41,84.64
					L20.02,73z"/>
			</defs>
			<clipPath id="SVGID_2_">
				<use xlink:href="#SVGID_1_"  style="overflow:visible;"/>
			</clipPath>
			<polygon class="st1" points="33.58,26.4 33.58,44.83 15.09,44.83 15.09,63.84 33.58,63.84 33.58,87.47 44.41,87.47 55.23,87.47 
				55.23,63.84 73.72,63.84 73.72,44.83 55.23,44.83 55.23,26.4 			"/>
		</g>
		<g>
			<path class="st2" d="M63.67,81.01l-19.26,9.14l-19.26-9.14c-1.88-0.89-4.09-0.89-5.97,0.01l-3.87,1.85
				c-0.13,0.06-0.21,0.19-0.21,0.33v10.7c0,1.08,1.17,1.78,2.17,1.3l1.91-0.91c1.88-0.9,4.09-0.9,5.97-0.01l17.61,8.35
				c1.04,0.49,2.26,0.49,3.31,0l17.61-8.35c1.88-0.89,4.09-0.89,5.97,0.01l1.91,0.91c1,0.48,2.17-0.23,2.17-1.3v-10.7
				c0-0.14-0.08-0.26-0.21-0.33l-3.87-1.85C67.76,80.12,65.55,80.11,63.67,81.01z"/>
			<path d="M66.65,80.88c0.95,0,1.9,0.21,2.74,0.62l3.77,1.8v10.59c0,0.56-0.49,0.91-0.94,0.91c-0.14,0-0.28-0.03-0.42-0.1
				l-1.91-0.91c-1-0.48-2.12-0.73-3.24-0.73c-1.11,0-2.23,0.25-3.22,0.72l-17.61,8.35c-0.44,0.21-0.92,0.32-1.41,0.32
				s-0.97-0.11-1.41-0.32l-17.61-8.35c-1-0.47-2.11-0.72-3.22-0.72c-1.12,0-2.24,0.25-3.24,0.73l-1.91,0.91
				c-0.13,0.06-0.27,0.1-0.42,0.1c-0.45,0-0.94-0.35-0.94-0.91V83.3l3.77-1.8c0.85-0.41,1.8-0.62,2.74-0.62
				c0.94,0,1.89,0.21,2.73,0.61l19.26,9.14l0.25,0.12l0.25-0.12l19.26-9.14C64.76,81.09,65.71,80.88,66.65,80.88 M66.65,80.34
				c-1.02,0-2.04,0.22-2.98,0.67l-19.26,9.14l-19.26-9.14c-0.94-0.45-1.96-0.67-2.98-0.67c-1.02,0-2.05,0.23-2.99,0.68l-3.87,1.85
				c-0.13,0.06-0.21,0.19-0.21,0.33v10.7c0,0.84,0.71,1.45,1.5,1.45c0.22,0,0.45-0.05,0.66-0.15l1.91-0.91
				c0.94-0.45,1.97-0.68,2.99-0.68c1.02,0,2.04,0.22,2.98,0.67l17.61,8.35c0.52,0.25,1.09,0.37,1.65,0.37
				c0.57,0,1.13-0.12,1.65-0.37l17.61-8.35c0.94-0.45,1.96-0.67,2.98-0.67c1.02,0,2.05,0.22,2.99,0.68l1.91,0.91
				c0.22,0.1,0.44,0.15,0.66,0.15c0.79,0,1.5-0.61,1.5-1.45v-10.7c0-0.14-0.08-0.26-0.21-0.33l-3.87-1.85
				C68.7,80.57,67.67,80.34,66.65,80.34L66.65,80.34z"/>
		</g>
		<path d="M66.65,82.05c0.76,0,1.53,0.17,2.21,0.5l3.09,1.48v9.45l-1.53-0.73c-1.17-0.56-2.47-0.85-3.77-0.85
			c-1.29,0-2.59,0.29-3.75,0.84l-17.61,8.35c-0.27,0.13-0.57,0.2-0.88,0.2c-0.3,0-0.6-0.07-0.88-0.2l-17.61-8.35
			c-1.16-0.55-2.46-0.84-3.75-0.84c-1.3,0-2.61,0.29-3.77,0.85l-1.53,0.73l0-9.45l3.09-1.48c0.68-0.33,1.45-0.5,2.21-0.5
			c0.76,0,1.52,0.17,2.2,0.49l19.93,9.45l0.12,0.06l0.12-0.06l19.93-9.45C65.13,82.22,65.89,82.05,66.65,82.05 M66.65,81.79
			c-0.8,0-1.6,0.18-2.32,0.52l-19.93,9.45l-19.93-9.45c-0.72-0.34-1.52-0.52-2.31-0.52c-0.8,0-1.61,0.18-2.33,0.53l-3.24,1.55v10.02
			l1.91-0.91c1.13-0.54,2.4-0.83,3.66-0.83c1.25,0,2.51,0.28,3.64,0.82l17.61,8.35c0.31,0.15,0.65,0.22,0.99,0.22
			s0.69-0.08,0.99-0.22l17.61-8.35c1.13-0.53,2.38-0.82,3.64-0.82c1.26,0,2.53,0.29,3.66,0.83l1.91,0.91V83.86l-3.24-1.55
			C68.25,81.97,67.45,81.79,66.65,81.79L66.65,81.79z"/>
		<rect x="15.09" y="10.17" width="58.62" height="16.23"/>
		<g>
			<g>
				<g id="Gold_Fill_18_">
					
						<radialGradient id="SVGID_3_" cx="35675.7305" cy="-41566.2305" r="2.868786e-03" gradientTransform="matrix(0.08 0 0 0.0773 -2826.6501 3257.8772)" gradientUnits="userSpaceOnUse">
						<stop  offset="0" style="stop-color:#F7EFCE"/>
						<stop  offset="0.7506" style="stop-color:#C7B23A"/>
						<stop  offset="0.9693" style="stop-color:#B8A300"/>
					</radialGradient>
					<polygon class="st3" points="27.41,44.81 27.41,44.81 27.41,44.81 					"/>
					
						<radialGradient id="SVGID_4_" cx="35675.9062" cy="-41566.5859" r="0" gradientTransform="matrix(0.08 0 0 0.0773 -2826.6501 3257.8772)" gradientUnits="userSpaceOnUse">
						<stop  offset="0" style="stop-color:#F7EFCE"/>
						<stop  offset="0.7506" style="stop-color:#C7B23A"/>
						<stop  offset="0.9693" style="stop-color:#B8A300"/>
					</radialGradient>
					<polygon class="st4" points="27.42,44.78 27.42,44.78 27.42,44.78 					"/>
					
						<radialGradient id="SVGID_5_" cx="36002.3633" cy="-41549.9961" r="0" gradientTransform="matrix(0.08 0 0 0.0773 -2826.6501 3257.8772)" gradientUnits="userSpaceOnUse">
						<stop  offset="0" style="stop-color:#F7EFCE"/>
						<stop  offset="0.7506" style="stop-color:#C7B23A"/>
						<stop  offset="0.9693" style="stop-color:#B8A300"/>
					</radialGradient>
					<polygon class="st5" points="53.54,46.06 53.54,46.06 53.54,46.06 					"/>
					
						<radialGradient id="SVGID_6_" cx="35674.6875" cy="-41564.9805" r="0" gradientTransform="matrix(0.08 0 0 0.0773 -2826.6501 3257.8772)" gradientUnits="userSpaceOnUse">
						<stop  offset="0" style="stop-color:#F7EFCE"/>
						<stop  offset="0.7506" style="stop-color:#C7B23A"/>
						<stop  offset="0.9693" style="stop-color:#B8A300"/>
					</radialGradient>
					<polygon class="st6" points="27.32,44.9 27.32,44.9 27.32,44.9 					"/>
					
						<radialGradient id="SVGID_7_" cx="35890.3516" cy="-41454.9805" r="208.8319" gradientTransform="matrix(0.08 0 0 0.0773 -2826.6501 3257.8772)" gradientUnits="userSpaceOnUse">
						<stop  offset="0" style="stop-color:#F7EFCE"/>
						<stop  offset="0.7506" style="stop-color:#C7B23A"/>
						<stop  offset="0.9693" style="stop-color:#B8A300"/>
					</radialGradient>
					<path class="st7" d="M30.35,65.14c0.01-0.01,0.02-0.01,0.03-0.02l0.07-0.06c0.01-0.01,0.02-0.02,0.03-0.03l0.06-0.07
						c0.05-0.06,0.1-0.12,0.15-0.19l0.09-0.14L31,64.73l-0.2-0.13l0.06-0.11l0.23,0.07l-0.21-0.11l0.05-0.11l0.24,0.05l-0.22-0.08
						l0.13-0.48c0.01-0.06,0.01-0.1,0.02-0.15c0.01-0.09,0.08-0.32,0.17-0.42c0.03-0.04,0.07-0.08,0.11-0.12l0.14-0.13
						c0,0,0.02-0.01,0.03-0.03l0.13-0.09h0c0.02-0.01,0.04-0.02,0.07-0.04l0.02-0.01c0.01,0,0.02-0.01,0.03-0.01l0.04-0.01
						c0.01,0,0.03-0.01,0.04-0.01l0.03,0c0.02,0,0.04-0.01,0.06-0.01c0.23-0.05,0.45,0.05,0.7,0.16c0.28,0.13,0.64,0.3,1.2,0.3
						c0.28,0,0.58-0.04,0.91-0.12c-0.07-0.15-0.15-0.37,0.05-0.53l0.04-0.03l0.25-0.08c0.29-0.09,0.6-0.19,0.89-0.3
						c0.24-0.2,0.52-0.26,0.78-0.33c0.1-0.02,0.19-0.04,0.27-0.07c-0.07-0.07-0.12-0.16-0.12-0.26v-0.1l0.07-0.07
						c0.1-0.09,0.25-0.13,0.44-0.16c0.02,0,0.04-0.01,0.07-0.02c-0.05-0.05-0.08-0.11-0.08-0.18c-0.01-0.22,0.21-0.35,0.97-0.76
						c0.22-0.12,0.56-0.3,0.75-0.43c-0.22-0.2-0.41-0.51-0.45-0.69c-0.05-0.23,0.07-0.37,0.19-0.43l0.11-0.04
						c0.34-0.1,0.75-0.23,0.96-0.51l0.05-0.06l0.07-0.02c0.1-0.03,0.34-0.1,0.66-0.2c0.96-0.29,2.56-0.77,3.33-1.04l0.32-0.11
						l0,0.47l-0.18,0.03l0,0.01l0.17,0l0.02,0.34c0,0.03,0,0.06,0.01,0.08l0.01,0.12c0.01,0.04,0.01,0.07,0.02,0.09l0,0.02
						c0.05,0.24,0.12,0.41,0.25,0.54l0.11,0.11c0.22,0.18,0.48,0.3,0.94,0.4c0.12,0.02,0.26,0.03,0.43,0.03
						c0.21,0,0.43-0.02,0.65-0.03c0.43-0.03,0.92-0.06,1.33,0c0.41,0.01,0.72,0.27,0.78,0.66c0.06,0.44-0.21,0.98-0.85,1.16
						c-0.55,0.15-1.1,0.15-1.62,0.15l-0.02,0c-0.92-0.09-1.18-0.36-1.52-0.77l-0.08-0.09c-0.08-0.08-0.09-0.09-0.32-0.21
						c-0.14-0.07-0.26-0.11-0.4-0.16c-0.18-0.06-0.37-0.12-0.58-0.26c-0.06-0.04-0.12-0.09-0.18-0.16c-0.05-0.06-0.1-0.12-0.14-0.18
						l-0.03-0.05c-0.16-0.23-0.27-0.37-0.45-0.37c-0.2,0-0.35,0.06-0.47,0.17l-0.14,0.13l-0.16-0.1c-0.36-0.22-0.98-0.05-1.33,0.35
						c-0.1,0.11-0.17,0.23-0.21,0.34c0.03-0.01,0.05-0.01,0.08-0.01c0.05-0.01,0.08-0.01,0.11-0.01h0.03c0.03,0,0.05,0,0.08,0
						l0.12,0.02c0.03,0.01,0.07,0.01,0.1,0.02l0.01,0l0,0c0.03,0.01,0.07,0.02,0.1,0.04l0.02,0.01c0.03,0.01,0.06,0.03,0.09,0.05
						c0.04,0.02,0.06,0.04,0.09,0.06l0.03,0.03c0.02,0.02,0.05,0.04,0.08,0.07l0.01,0.01c0.02,0.02,0.05,0.05,0.07,0.08l0.06,0.06
						v0.02c0.01,0.01,0.01,0.02,0.02,0.03l0.02,0.02c0.02,0.03,0.04,0.07,0.06,0.11l0.01,0.03c0.03,0.08,0.06,0.17,0.03,0.34
						c-0.03,0.14-0.16,0.41-0.41,0.41c-0.07,0-0.13-0.02-0.18-0.06c-0.13-0.07-0.27-0.11-0.4-0.11c-0.42,0-0.77,0.37-0.92,0.71
						c-0.03,0.08-0.06,0.16-0.06,0.22c0.46-0.2,0.96-0.15,1.39,0.15c0.37,0.19,0.37,0.55,0.37,0.82v0.17l-0.17,0.05
						c-0.64,0.2-0.96,0.38-1.18,1.25c0.6-0.33,1.21-0.33,1.75-0.33h0.1l0.07,0.07c0.32,0.31,0.72,0.4,0.99,0.22
						c0.26-0.19,0.54-0.49,0.76-0.74c0.27-0.3,0.41-0.46,0.57-0.52l0.03-0.01c0.05-0.02,0.13-0.06,0.22-0.06
						c0.08,0,0.22,0.03,0.33,0.2c0.12,0.21,0.05,0.51,0.03,0.6c-0.08,0.27-0.28,0.46-0.5,0.62c0.06,0.02,0.15,0.04,0.26,0.04
						c0.35,0,0.57-0.01,0.79-0.1c0.04-0.01,0.07-0.03,0.09-0.04c0.06-0.03,0.1-0.05,0.15-0.08c0.08-0.05,0.16-0.07,0.24-0.07
						l0.08,0.01c0.07,0.01,0.13,0.06,0.17,0.12c0.05,0.08,0.06,0.18,0.03,0.3c-0.01,0.07-0.05,0.16-0.09,0.24
						c0.46,0.03,0.75-0.1,0.91-0.41l0.16-0.29l0.23,0.24c0.09,0.09,0.17,0.2,0.24,0.29c0.06,0.08,0.11,0.15,0.16,0.21
						c0.06-0.3,0.22-0.68,0.59-0.91l0.37-0.23v0.42c0,0.12,0.13,0.47,0.24,0.67c0.06-0.15,0.14-0.32,0.21-0.44
						c0,0,0.17-0.25,0.36-0.26l0,0c0.21,0,0.3,0.17,0.42,0.4c0.04,0.08,0.12,0.22,0.19,0.32c0.18-0.36,0.46-0.84,0.6-0.98l0.09-0.09
						l0.13,0.03c0.09,0.02,0.19,0.05,0.29,0.07c0.32,0.08,0.68,0.17,1,0.19c-0.32-0.43-0.42-0.73-0.42-1.29c0-0.04,0-0.09,0.01-0.13
						c0.01-0.04,0.02-0.07,0.03-0.1c0.1-0.29,0.34-0.46,0.56-0.6l0.07-0.05c0.12-0.08,0.24-0.16,0.32-0.25
						c0.25-0.31,0.3-0.42,0.31-0.7c-0.08-0.25-0.35-0.44-0.64-0.64c-0.15-0.11-0.31-0.22-0.45-0.34c-0.65-0.65-0.15-1.63-0.14-1.64
						c0.04-0.08,0.08-0.15,0.16-0.21l0.15-0.12l0.15,0.12c0.6,0.47,1.12,0.85,1.68,1.24c0.42,0.33,0.99,0.5,1.62,0.5
						c0.18,0,0.35-0.01,0.53-0.04c0.2-0.03,0.43-0.04,0.66-0.04c1.12,0,2.33,0.33,2.33,1.27c0,0.57-0.65,1.37-1.29,1.37
						c-0.06,0-0.12-0.01-0.17-0.02l-0.04-0.01l-0.04-0.02c-0.23-0.15-0.35-0.4-0.45-0.62c-0.12-0.27-0.21-0.43-0.37-0.47L56.77,61
						c-0.11-0.05-0.38,0.08-0.65,0.32l-0.11,0.1l-0.14-0.06c-0.87-0.35-1.53-0.13-2.03,0.68c0.01,0,0.02,0,0.03,0
						C54.01,62.01,54.15,62,54.3,62c0.52,0,1,0.18,1.31,0.5l0.07,0.07v0.09c0,0.16-0.11,0.24-0.16,0.27
						c-0.05,0.04-0.17,0.12-0.38,0.47l-0.05,0.09l-0.11,0.02c-0.44,0.08-0.99,0.8-1.08,1.55c0.53-0.27,1.16-0.52,1.93-0.52h0.1
						L56,64.61c0.2,0.19,0.2,0.51,0.2,0.67v0.15l-0.14,0.06c-0.46,0.22-0.89,0.34-1.31,0.39c0.34,0.25,0.82,0.39,1.33,0.39
						c0.43,0,0.81-0.11,1-0.29l0.08-0.08l0.12,0.01c0.49,0.06,0.86-0.08,1.04-0.37c0.14-0.23,0.14-0.52,0-0.78
						c-0.06-0.11-0.06-0.25,0.01-0.36c0.06-0.12,0.18-0.2,0.3-0.21c0.04-0.01,0.1-0.02,0.16-0.02c0.24,0,0.44,0.1,0.61,0.29
						c0.22,0.26,0.34,0.7,0.32,1.12c0.2-0.03,0.43-0.2,0.63-0.47l0.02-0.02c0.05-0.05,0.09-0.12,0.12-0.19
						c0.08-0.16,0.13-0.29,0.15-0.4l0.03-0.2h0.2c0.61,0,1.04-0.08,1.66-0.53c-0.12-0.05-0.22-0.11-0.3-0.19l-0.04-0.03
						c-0.07-0.06-0.27-0.23-0.13-0.47l0.02-0.02c0.09-0.12,0.29-0.23,0.6-0.4c0.11-0.06,0.23-0.12,0.32-0.18
						c-0.08-0.08-0.18-0.18-0.18-0.32V62.1l0.02-0.05c0.08-0.16,0.25-0.26,0.42-0.36c0.05-0.03,0.1-0.06,0.15-0.09
						c-0.17-0.04-0.32-0.13-0.32-0.31V61.2l0.06-0.07c0.04-0.05,0.12-0.11,0.26-0.23c0.18-0.15,0.47-0.38,0.7-0.61h0
						c-0.32,0-0.55-0.08-0.7-0.24l-0.11-0.12l0.07-0.15c0.13-0.25,0.29-0.37,0.43-0.45c-0.09-0.03-0.18-0.07-0.26-0.15l-0.03-0.03
						l-0.02-0.03c-0.11-0.21-0.01-0.42,0.1-0.65c0.07-0.16,0.16-0.34,0.16-0.51c0,0-0.01,0-0.01,0c-0.03,0.01-0.06,0.02-0.09,0.03
						c-0.18,0.05-0.31,0.01-0.38-0.11c-0.09-0.15-0.01-0.3,0.11-0.5c0.04-0.07,0.12-0.21,0.16-0.32c-0.2,0.07-0.39,0.17-0.59,0.26
						c-0.47,0.22-0.95,0.45-1.57,0.45c-0.09,0-0.19-0.01-0.29-0.02L61,57.77l-0.09-0.1c-0.03-0.03-0.05-0.09-0.09-0.15
						c-0.11-0.23-0.28-0.57-0.86-0.61c-0.05,0-0.09,0.02-0.14,0.05c-0.48,0.33-1.2,0.69-1.76,0.69c-0.16,0-0.3-0.03-0.43-0.09
						l-0.07-0.03c-0.03-0.02-0.05-0.03-0.07-0.05c-0.02-0.02-0.05-0.04-0.07-0.06c-0.35-0.31-0.52-0.85-0.64-1.34
						c-0.01-0.06-0.03-0.14-0.05-0.24c-0.05-0.23-0.17-0.78-0.23-0.88c-0.17-0.27-0.49-0.49-0.84-0.72
						c-0.53-0.36-1.13-0.76-1.43-1.48l-0.01-0.03c-0.01-0.03-0.02-0.06-0.04-0.1l-0.14-0.39l2.06,0.29l0.34,0.01l1.43-0.12l0.9-0.25
						l0.79-0.41l0.47-0.4l0.42-0.56l0.03-0.06c0.01-0.02,0.02-0.04,0.03-0.06l0.02-0.05c0.02-0.03,0.03-0.05,0.03-0.07l0.1-0.26
						c0.01-0.02,0.02-0.05,0.02-0.07c0.01-0.03,0.02-0.05,0.02-0.07l0.04-0.14c0.01-0.03,0.01-0.05,0.02-0.07l0.09-0.65l0.01-0.36
						l0-0.06c-0.01-0.14,0.04-0.25,0.16-0.33v0l0.17-0.1c0.06-0.04,0.14-0.08,0.22-0.13l0.16-0.1c0.04-0.03,0.09-0.06,0.14-0.1
						c0.03-0.03,0.05-0.04,0.07-0.05l0.09-0.08c0.02-0.02,0.04-0.04,0.06-0.06c0.03-0.03,0.06-0.06,0.08-0.08l0.02-0.02
						c0.01-0.01,0.03-0.03,0.04-0.05l0.21,0.11l-0.2-0.13c0.01-0.02,0.03-0.03,0.04-0.05l0.22,0.1l-0.2-0.12
						c0.01-0.02,0.03-0.04,0.04-0.06l0.22,0.09l-0.21-0.11c0.03-0.06,0.06-0.11,0.08-0.18l0-0.02c0.01-0.03,0.02-0.05,0.03-0.08
						l0.01-0.03c0.01-0.03,0.01-0.04,0.02-0.06l0.01-0.04c0.01-0.03,0.01-0.06,0.02-0.09c0.01-0.06,0.01-0.09,0.01-0.13v-0.02
						c0-0.03,0-0.06,0-0.09l0-0.04c0-0.03,0-0.06-0.01-0.09l0-0.03c-0.01-0.05-0.01-0.08-0.02-0.12l-0.01-0.06
						c-0.01-0.05-0.05-0.22-0.04-0.35v-0.01c0-0.03,0-0.06,0-0.1l0-0.03c0-0.02,0-0.06,0-0.09c0-0.05,0.01-0.08,0.01-0.12l0-0.02
						c0.01-0.04,0.01-0.08,0.02-0.11l0-0.02c0.01-0.04,0.02-0.08,0.03-0.12c0-0.01,0.01-0.02,0.01-0.03
						c-0.03,0.02-0.05,0.04-0.07,0.06c-0.27,0.24-0.57,0.51-0.92,0.51c-0.47,0-0.81-0.44-1.07-1.43c-0.13,0.22-0.34,0.4-0.56,0.4
						l-0.04,0c-0.02,0-0.04-0.01-0.06-0.01l-0.03-0.01c-0.37-0.14-0.66-0.56-0.95-0.96c-0.09-0.12-0.2-0.28-0.31-0.41l0.03,0.21
						c0,0.02,0,0.03,0,0.05l0,0.04l0,0.1c0,0.01,0,0.03-0.01,0.05c0,0.01,0,0.03-0.01,0.05c0,0.01,0,0.02-0.01,0.04
						c0,0.02-0.01,0.04-0.02,0.05c0,0.01-0.01,0.03-0.02,0.04c-0.01,0.01-0.02,0.03-0.03,0.04l-0.03,0.04
						c-0.01,0.02-0.03,0.03-0.05,0.05l-0.04,0.03c-0.01,0.01-0.03,0.02-0.05,0.03l-0.05,0.02c-0.01,0-0.03,0.01-0.06,0.02
						c-0.02,0-0.03,0.01-0.05,0.01c-0.01,0-0.03,0-0.05,0c-0.06,0-0.1,0-0.14-0.01l-0.06-0.02c-0.01,0-0.03-0.01-0.05-0.02
						l-0.47-0.25l-0.07-0.04l0.11-0.21l-0.14,0.19l-0.36-0.24l0.09-0.22l-0.12,0.2l-0.03-0.01c0.02,0.15,0.03,0.37-0.18,0.57
						l-0.06,0.05l-0.08,0.01c-0.14,0.02-0.29,0.03-0.43,0.03c-0.5,0-0.87-0.14-1.19-0.26l0.01,0.06c0,0.11-0.04,0.21-0.11,0.28
						l-0.02,0.02c-0.12,0.09-0.27,0.13-0.42,0.12c0.12,0.19,0.22,0.45,0.1,0.81l-0.01,0.04c-0.02,0.06-0.04,0.11-0.07,0.16
						c-0.01,0.01-0.01,0.03-0.02,0.04l-0.03,0.05c0,0.01-0.02,0.03-0.03,0.05l-0.03,0.04l0,0c0,0-0.01,0.01-0.02,0.02l-0.02,0.02
						l-0.17-0.16l0,0l0.15,0.18c-0.03,0.03-0.05,0.04-0.06,0.05l-0.31,0.17l-0.17,0.06c-0.01,0-0.03,0.01-0.05,0.01l-0.03,0.01
						c-0.01,0-0.03,0.01-0.06,0.01l-0.01,0c-0.02,0-0.04,0.01-0.06,0.01c-0.04,0-0.06,0.01-0.08,0.01l-0.13,0.01l-0.29-0.03
						c-0.02,0-0.04-0.01-0.06-0.02c-0.04-0.01-0.07-0.02-0.09-0.03l-0.1-0.04c-0.02-0.01-0.04-0.02-0.05-0.03L52.5,46.2
						c-0.01-0.01-0.03-0.02-0.05-0.03c-0.01,0-0.02-0.01-0.03-0.02c-0.02-0.01-0.03-0.02-0.04-0.03l-0.09-0.08
						c-0.01-0.01-0.03-0.03-0.04-0.04l-0.02-0.03c-0.01-0.01-0.02-0.03-0.03-0.04c-0.02-0.02-0.02-0.03-0.03-0.04
						c-0.01-0.02-0.03-0.04-0.04-0.07c-0.05-0.09-0.05-0.2-0.01-0.29c0.1-0.21,0.39-0.26,0.7-0.32c0.01,0,0.01,0,0.01,0
						c-0.14-0.18-0.28-0.47-0.08-0.95c0.09-0.33,0.51-0.56,1.04-0.84c0.66-0.36,1.41-0.76,1.52-1.34c-0.11,0.02-0.25,0.07-0.39,0.11
						c-0.28,0.08-0.61,0.18-0.89,0.18c-0.25,0-0.44-0.07-0.58-0.22c-0.1-0.11-0.17-0.25-0.2-0.43c-0.85,0.58-1.65,0.83-2.38,0.73
						l-0.04-0.01c-0.36-0.12-0.66-0.41-1.02-0.75c-0.41-0.4-0.87-0.85-1.5-1.04v0.8H48.1c-0.43,0-0.86,0-1.15,0.06
						c0.5,0.05,0.9,0.24,1.13,0.88c0.2,0.61-0.42,0.98-1.15,1.4c-0.5,0.29-1.07,0.62-1.48,1.08l-0.14,0.16l-0.18-0.12
						c-0.18-0.13-0.38-0.35-0.56-0.54c-0.09-0.1-0.21-0.23-0.27-0.28h-0.47l0.35-0.38c0.27-0.3,0.42-0.6,0.43-0.87
						c0.01-0.33-0.13-0.63-0.19-0.74c-0.05-0.09-0.08-0.15-0.12-0.2c-0.24,0.1-0.54,0.15-0.83,0.15c-0.47,0-0.79-0.14-0.89-0.38
						c-0.03-0.07-0.05-0.16-0.02-0.27c-0.05,0.01-0.11,0.02-0.18,0.04l-0.08,0.01c-0.75,0-1.6,0-2.18,0.45l-0.19,0.15l-0.15-0.19
						c-0.48-0.6-1.23-1.05-1.91-1.16l-0.08-0.01l-0.05-0.05c-0.02-0.02-0.04-0.04-0.07-0.06c-0.18,0.4-0.51,0.58-1.02,0.55
						c0.01,0.03,0.02,0.05,0.02,0.08c0.03,0.1,0.06,0.19,0.06,0.27v0.35l-0.33-0.13c0,0-0.26-0.1-0.62-0.1
						c-0.22,0-0.43,0.03-0.63,0.1l-0.04,0.01h-0.04c-0.11,0-0.22-0.01-0.32-0.02c0.03,0.05,0.04,0.1,0.04,0.15l0,0.04
						c-0.11,0.54-0.59,0.78-0.94,0.96c-0.02,0.01-0.04,0.02-0.06,0.03c0.11,0.08,0.22,0.17,0.32,0.37c0.13,0.22-0.07,0.47-0.67,1.02
						c0.01,0,0.01,0,0.02,0.01c0.1,0.03,0.2,0.07,0.28,0.1c0.34,0.16,0.28,0.38,0.25,0.44c-0.12,0.23-0.28,0.41-0.43,0.58
						c-0.16,0.18-0.31,0.35-0.4,0.54c0.1,0,0.21,0.02,0.32,0.08l0.26,0.12l-0.17,0.22c-0.03,0.04-0.05,0.08-0.08,0.11
						c-0.27,0.39-0.49,0.86-0.73,1.53l0.2,0.03l0.01,0.2c0,0.4-0.13,0.69-0.27,0.97l-0.02,0.04l-0.03,0.03
						c-0.06,0.05-0.14,0.08-0.22,0.08c-0.38,0-0.76-0.67-0.96-1.08c-0.15-0.32-0.51-1.13-0.51-1.92c0-1.91,0.28-2.25,0.46-2.48
						c0.06-0.07,0.07-0.08,0.07-0.15c0-0.21-0.08-0.26-0.34-0.36c-0.17-0.07-0.39-0.16-0.54-0.37c-0.27-0.45-0.84-0.75-1.42-0.75
						c-0.14,0-0.27,0.02-0.39,0.05c0.19,0.09,0.38,0.25,0.56,0.58c0.14,0.29-0.01,0.46-0.08,0.54c-0.04,0.05-0.04,0.05-0.04,0.07
						v0.23H29c-0.07,0-0.12,0.01-0.18,0.03c-0.15,0.04-0.34,0.04-0.47-0.08c-0.29-0.21-0.76-0.43-1.22-0.43
						c-0.23,0-0.43,0.06-0.61,0.17l-0.05,0.2l0.09-0.22l0.18,0.08c0.02,0.01,0.04,0.02,0.06,0.03c0.03,0.01,0.05,0.02,0.06,0.03
						l0.04,0.03c0.03,0.02,0.05,0.03,0.07,0.04l0.16,0.12c0.02,0.02,0.04,0.03,0.06,0.05l0.05,0.04c0.02,0.02,0.04,0.04,0.06,0.06
						c0.01,0.01,0.03,0.03,0.04,0.05c0.02,0.02,0.03,0.04,0.05,0.06l0.04,0.05c0.02,0.02,0.03,0.04,0.04,0.06
						c0.02,0.03,0.03,0.04,0.04,0.06c0.01,0.02,0.03,0.05,0.04,0.07c0.01,0.02,0.02,0.04,0.03,0.06c0.01,0.01,0.02,0.04,0.03,0.06
						l0.03,0.07c0.01,0.03,0.02,0.06,0.03,0.08l0.03,0.13c0.01,0.05,0.02,0.14-0.01,0.23l-0.01,0.03c-0.01,0.01-0.01,0.03-0.02,0.04
						c-0.01,0.02-0.02,0.03-0.03,0.05c-0.01,0.02-0.02,0.03-0.03,0.04c0,0-0.01,0.02-0.03,0.03l-0.03,0.03
						c-0.01,0.01-0.02,0.02-0.03,0.03l-0.07,0.05c-0.01,0.01-0.02,0.01-0.04,0.02c-0.02,0.01-0.03,0.01-0.05,0.02l-0.04,0.01
						c-0.01,0-0.03,0.01-0.04,0.01l-0.08,0.01l-0.12-0.01c-0.01,0-0.03,0-0.04-0.01c-0.01,0-0.02,0-0.03-0.01l-0.08-0.03
						c0,0-0.02-0.01-0.03-0.01l-0.19-0.1l0.12-0.2l-0.14,0.19l-0.06-0.04c-0.01-0.01-0.02-0.02-0.03-0.02l-0.1-0.08l0.14-0.19
						l-0.16,0.17l-0.03-0.02l0.15-0.19l-0.17,0.17l-0.03-0.03l0.15-0.18l-0.18,0.16l-0.02-0.02c-0.02,0.06-0.03,0.13-0.04,0.2
						l-0.01,0.09c-0.03,0.4,0.08,0.88,0.49,1.05c0,0,0.05,0,0.07,0c0.02,0,0.05,0,0.07,0c0.29,0,0.36,0.25,0.38,0.36
						c0.01,0.06,0.03,0.12,0.06,0.14c0.02,0.01,0.03,0.02,0.04,0.02l0.04,0.02c0.01,0.01,0.03,0.01,0.05,0.02
						c0.02,0,0.03,0.01,0.05,0.01c0.07,0.01,0.1,0,0.12,0c0.03,0,0.05,0,0.07,0l0.33-0.04c0.04,0,0.06-0.01,0.08-0.01
						c0.12,0,0.24,0.04,0.33,0.11l0.02,0.02l0,0l0.01,0.01c0.02,0.01,0.03,0.03,0.05,0.05c0.03,0.03,0.04,0.05,0.05,0.07l0.02,0.03
						c0.01,0.02,0.02,0.04,0.02,0.06l0.01,0.04c0,0.02,0,0.04,0,0.07l0,0.03c0,0.02-0.01,0.04-0.01,0.06l-0.01,0.02
						c-0.01,0.02-0.01,0.03-0.02,0.05l-0.02,0.03c-0.01,0.01-0.02,0.04-0.04,0.06l-0.02,0.02c-0.01,0.01-0.02,0.03-0.04,0.04
						c-0.03,0.04-0.07,0.08-0.12,0.12l-0.06,0.04c-0.04,0.02-0.08,0.03-0.12,0.05l-0.1,0.02c-0.01,0-0.02,0-0.03,0l-0.09,0.01
						l-0.06,0c-0.02,0-0.04,0-0.06,0l-0.08-0.01l0.03-0.23l0,0l-0.05,0.23l0-0.23l-0.03,0.23l-0.03,0c0.01,0.11,0.04,0.23,0.11,0.31
						c0.18,0.2,0.42,0.31,0.71,0.33c0.04,0,0.07,0.01,0.1,0.01c0.18,0,0.33,0.1,0.4,0.27c0.09,0.21,0.04,0.49-0.11,0.63l-0.04,0.03
						c-0.21,0.14-0.4,0.24-0.59,0.34c-0.36,0.2-0.65,0.36-0.88,0.64c0.4,0,0.54,0.23,0.54,0.43c0,0.32-0.14,0.51-0.29,0.66
						c0.17,0.01,0.3,0.08,0.39,0.2c0.24,0.27-0.07,0.59-0.32,0.84c-0.1,0.1-0.24,0.24-0.33,0.36c0.11-0.02,0.21-0.03,0.31-0.03
						c0.48,0,0.79,0.24,0.88,0.67l0.01,0.05c0,0.23-0.08,0.46-0.22,0.67c0.09-0.01,0.17-0.02,0.25-0.02c0.26,0,0.38,0.11,0.44,0.21
						c0.16,0.21-0.07,0.43-0.27,0.62c-0.08,0.07-0.17,0.16-0.26,0.26c0.21-0.04,0.43-0.04,0.67,0.03l0.1,0.03l0.04,0.09
						c0.09,0.18,0.08,0.37-0.04,0.55c-0.14,0.22-0.45,0.4-0.72,0.51c0.2,0.08,0.47,0.12,0.79,0.12c0.52,0,1.08-0.11,1.44-0.28
						l0.27-0.13l0.07,0.28c0.16,0.68,0.85,0.86,1.26,0.97c0.22,0.06,0.43,0.12,0.43,0.33v0.1l-0.07,0.07
						c-0.36,0.33-0.67,0.99-0.58,1.25l0.01,0.04c0.08,0.68-0.11,1.32-0.51,1.76c-0.37,0.4-0.9,0.62-1.53,0.62
						c-0.78,0-1.71-0.12-2.04-1.02c-0.18-0.53-0.49-0.57-0.92-0.27l-0.12,0.08l-0.13-0.06c-0.12-0.06-0.25-0.08-0.38-0.08
						c-0.43,0-0.9,0.27-1.17,0.64c0.45,0.06,1.05,0.29,1.23,0.71c0.09,0.21,0.11,0.54-0.29,0.94l-0.07,0.07h-0.1
						c-0.57,0-0.95,0.33-1.11,0.95c0.33-0.07,0.63-0.11,0.88-0.11c0.91,0,1.07,0.44,1.1,0.63c0.07,0.51-0.46,1.06-1.27,1.37
						c0.31,0.22,0.59,0.32,0.85,0.32c0.29,0,0.59-0.12,0.97-0.26c0.09-0.04,0.19-0.07,0.29-0.11c0.2-0.1,0.39-0.06,0.5-0.02
						l0.07,0.02c0.28,0.12,0.37,0.03,0.54-0.4c0.07-0.18,0.13-0.33,0.25-0.42c0.07-0.07,0.19-0.11,0.31-0.11
						c0.12,0,0.22,0.04,0.28,0.07c0.11,0.05,0.19,0.17,0.21,0.23l0.01,0.03c0.01,0.04,0.02,0.07,0.02,0.1
						c0.01,0.05,0.01,0.09,0.01,0.12c0,0.05,0,0.08,0,0.11c0,0.04-0.01,0.07-0.01,0.1l0,0.02c0,0.03-0.01,0.05-0.02,0.07
						c-0.01,0.03-0.02,0.06-0.02,0.08l-0.01,0.03c0,0.01-0.01,0.02-0.01,0.03l-0.01,0.03L30,65.3c0,0,0,0.01-0.01,0.01l0.06,0.21
						l-0.03-0.23l0.03,0l0.08,0.22l-0.04-0.23l0.09,0.22l-0.06-0.23l0.1-0.04l0.13,0.19l-0.11-0.21L30.35,65.14z M46.82,45.36
						c0.41-0.46,1.02-0.76,1.55-0.76c0.22,0,0.43,0.05,0.61,0.15c0.38,0.25,0.69,0.56,0.99,0.87c0.36,0.37,0.74,0.75,1.21,1
						l0.12,0.07v0.14c0,0.14,0,0.29-1.24,0.65c-0.27,0.08-1.18,0.34-1.73,0.34c-1.28,0-1.9-0.48-1.91-1.46
						C46.4,46.03,46.53,45.68,46.82,45.36z M44.64,48.02l0.01-0.07l0.42-0.41l0.15,0.31c0.38,0.81,1.15,1.22,2.3,1.22l0,0
						c0.33,0,0.69-0.03,1.06-0.1c1.1-0.15,2.38-0.5,3.62-0.84c1.67-0.45,3.39-0.92,4.68-0.92c0.88,0,2.82,0.44,2.82,1.74
						c0,0.82-0.3,1.26-0.86,1.78l-0.03,0.02c-1.01,0.66-3.58,0.66-3.61,0.66c-0.61,0-2.22,0-2.92-0.56
						c-0.36-0.29-0.45-0.34-0.47-0.35c-0.35-0.14-0.68-0.2-1.12-0.2c-0.91,0-1.9,0.26-2.86,0.51c-0.92,0.24-1.78,0.47-2.56,0.47
						c-0.05,0-0.15-0.02-0.24-0.11C44.7,50.81,44.52,48.72,44.64,48.02z"/>
					
						<radialGradient id="SVGID_8_" cx="36003.8984" cy="-41550.6094" r="0" gradientTransform="matrix(0.08 0 0 0.0773 -2826.6501 3257.8772)" gradientUnits="userSpaceOnUse">
						<stop  offset="0" style="stop-color:#F7EFCE"/>
						<stop  offset="0.7506" style="stop-color:#C7B23A"/>
						<stop  offset="0.9693" style="stop-color:#B8A300"/>
					</radialGradient>
					<polygon class="st8" points="53.66,46.01 53.66,46.01 53.66,46.01 					"/>
					
						<radialGradient id="SVGID_9_" cx="35988.2891" cy="-41553.4609" r="0" gradientTransform="matrix(0.08 0 0 0.0773 -2826.6501 3257.8772)" gradientUnits="userSpaceOnUse">
						<stop  offset="0" style="stop-color:#F7EFCE"/>
						<stop  offset="0.7506" style="stop-color:#C7B23A"/>
						<stop  offset="0.9693" style="stop-color:#B8A300"/>
					</radialGradient>
					<polygon class="st9" points="52.41,45.79 52.41,45.79 52.41,45.79 					"/>
					
						<radialGradient id="SVGID_10_" cx="36022.6523" cy="-41464.2969" r="0" gradientTransform="matrix(0.08 0 0 0.0773 -2826.6501 3257.8772)" gradientUnits="userSpaceOnUse">
						<stop  offset="0" style="stop-color:#F7EFCE"/>
						<stop  offset="0.7506" style="stop-color:#C7B23A"/>
						<stop  offset="0.9693" style="stop-color:#B8A300"/>
					</radialGradient>
					<polygon class="st10" points="55.16,52.69 55.16,52.69 55.16,52.69 					"/>
					
						<radialGradient id="SVGID_11_" cx="36056.1836" cy="-41572.75" r="0" gradientTransform="matrix(0.08 0 0 0.0773 -2826.6501 3257.8772)" gradientUnits="userSpaceOnUse">
						<stop  offset="0" style="stop-color:#F7EFCE"/>
						<stop  offset="0.7506" style="stop-color:#C7B23A"/>
						<stop  offset="0.9693" style="stop-color:#B8A300"/>
					</radialGradient>
					<polygon class="st11" points="57.84,44.3 57.84,44.3 57.84,44.3 					"/>
					
						<radialGradient id="SVGID_12_" cx="35904.6641" cy="-41315.2422" r="0.2259" gradientTransform="matrix(0.08 0 0 0.0773 -2826.6501 3257.8772)" gradientUnits="userSpaceOnUse">
						<stop  offset="0" style="stop-color:#F7EFCE"/>
						<stop  offset="0.7506" style="stop-color:#C7B23A"/>
						<stop  offset="0.9693" style="stop-color:#B8A300"/>
					</radialGradient>
					<path class="st12" d="M45.7,64.2c0,0.01,0,0.02,0,0.03h0c0.01-0.01,0.03-0.01,0.04-0.02L45.7,64.2z"/>
					
						<radialGradient id="SVGID_13_" cx="35683.6602" cy="-41533.1641" r="0" gradientTransform="matrix(0.08 0 0 0.0773 -2826.6501 3257.8772)" gradientUnits="userSpaceOnUse">
						<stop  offset="0" style="stop-color:#F7EFCE"/>
						<stop  offset="0.7506" style="stop-color:#C7B23A"/>
						<stop  offset="0.9693" style="stop-color:#B8A300"/>
					</radialGradient>
					<polygon class="st13" points="28.04,47.36 28.04,47.36 28.04,47.36 					"/>
					
						<radialGradient id="SVGID_14_" cx="35664.8359" cy="-41581.8125" r="0" gradientTransform="matrix(0.08 0 0 0.0773 -2826.6501 3257.8772)" gradientUnits="userSpaceOnUse">
						<stop  offset="0" style="stop-color:#F7EFCE"/>
						<stop  offset="0.7506" style="stop-color:#C7B23A"/>
						<stop  offset="0.9693" style="stop-color:#B8A300"/>
					</radialGradient>
					<polygon class="st14" points="26.54,43.6 26.54,43.6 26.54,43.6 					"/>
					
						<radialGradient id="SVGID_15_" cx="35678.3906" cy="-41533.6484" r="0" gradientTransform="matrix(0.08 0 0 0.0773 -2826.6501 3257.8772)" gradientUnits="userSpaceOnUse">
						<stop  offset="0" style="stop-color:#F7EFCE"/>
						<stop  offset="0.7506" style="stop-color:#C7B23A"/>
						<stop  offset="0.9693" style="stop-color:#B8A300"/>
					</radialGradient>
					<polygon class="st15" points="27.62,47.33 27.62,47.33 27.62,47.33 					"/>
				</g>
				<path id="Black_Outline_18_" class="st16" d="M64.62,60.04c-0.27,0-0.79,0.12-1.04-0.14c0.25-0.49,0.64-0.36,0.64-0.62
					c-0.12-0.12-0.39-0.12-0.52-0.24c-0.12-0.24,0.4-0.74,0.27-1.24c-0.14-0.12-0.25-0.04-0.39,0c-0.4,0.12,0.52-0.75,0.12-1
					c-0.9,0.26-1.54,0.88-2.58,0.76c-0.12-0.13-0.24-0.81-1.13-0.88c-0.05,0-0.16-0.01-0.3,0.09c-0.56,0.38-1.57,0.87-2.04,0.52
					c-0.34-0.24-0.51-0.79-0.62-1.26c-0.06-0.25-0.21-1.02-0.31-1.18c-0.48-0.76-1.86-1.06-2.29-2.28c2.3,0.48,6.78,0.48,6.7-3.68
					c0-0.08,0.01-0.11,0.09-0.15c0.36-0.22,1.68-0.79,1.37-2.25c-0.01-0.05-0.04-0.2-0.04-0.3c0-0.3,0.03-0.6,0.21-0.89
					c0.08-0.11,0.18-0.2,0.18-0.2c-0.64-0.5-1.66,2.42-2.43-0.66c-0.01-0.07-0.14-0.27-0.28-0.23c0,0.26-0.3,0.69-0.52,0.62
					c-0.65-0.24-1.17-1.75-1.69-1.61c0.13,0.59,0.26,1.06-0.07,1.1c-0.02,0-0.06,0-0.11-0.01c-0.49-0.14-0.86-0.61-1.36-0.73
					c-0.13,0.26,0.12,0.5-0.13,0.74c-0.91,0.14-1.42-0.24-1.94-0.36c0,0.11,0.1,0.22,0.12,0.43c0.01,0.05-0.02,0.09-0.04,0.1
					c-0.23,0.17-0.55,0-0.7-0.03c-0.03-0.01-0.05,0-0.05,0.04c-0.01,0.21,0.53,0.44,0.34,1.03c-0.05,0.17-0.11,0.25-0.14,0.29
					c-0.29,0.32-1.26,0.55-1.6-0.11c-0.14-0.26,0.77-0.26,0.9-0.38c-0.12-0.24-0.52-0.38-0.25-1c0.13-0.62,2.7-1.11,2.58-2.49
					c-0.52-0.12-2.2,1.01-2.08-0.48c-0.13,0-0.17,0.03-0.19,0.05c-0.64,0.47-1.51,0.93-2.39,0.82c-0.77-0.24-1.41-1.63-2.83-1.87
					v0.87c-0.9,0-1.68,0-1.81,0.5c0.77,0,1.29,0,1.56,0.75c0.25,0.76-1.56,1.13-2.58,2.25c-0.33-0.23-0.79-0.87-0.91-0.87
					c0.3-0.33,0.48-0.68,0.49-1.01c0.01-0.33-0.1-0.64-0.22-0.86c-0.09-0.17-0.14-0.26-0.27-0.38c-0.65,0.38-2.06,0.24-1.41-0.38
					c-0.13,0-0.25-0.12-0.65,0c-0.77,0-1.68,0-2.33,0.5c-0.5-0.62-1.29-1.12-2.06-1.25c-0.13-0.12-0.25-0.24-0.38-0.24
					c-0.14,0.62-0.52,0.74-1.16,0.62c0,0.24,0.13,0.5,0.13,0.62c0,0-0.65-0.26-1.42,0c-0.39,0-0.77-0.12-0.91-0.12
					c0,0.12,0.4,0.36,0.4,0.48c-0.13,0.62-0.9,0.76-1.16,1.01c0.27,0.24,0.39,0.24,0.52,0.5c0.09,0.14-0.77,0.87-0.9,0.99
					c0.25,0.14,0.84,0.23,0.77,0.38c-0.27,0.5-0.91,0.86-0.91,1.49c0.14,0,0.27-0.12,0.52,0c-0.35,0.47-0.61,1.04-0.85,1.73
					c-0.06,0.13,0.02,0.22,0.08,0.25c0.06,0.03,0.12,0.03,0.12,0.03c0,0.36-0.12,0.62-0.25,0.87c-0.27,0.24-1.29-1.49-1.29-2.74
					c0-2.63,0.52-2.13,0.52-2.63c0-0.62-0.65-0.48-0.92-0.86c-0.52-0.87-1.93-1.13-2.58-0.5c0.4,0.12,0.65,0.12,0.91,0.62
					c0.12,0.26-0.14,0.26-0.14,0.5c-0.25,0-0.38,0.12-0.5,0c-0.52-0.38-1.68-0.87-2.45,0c0.61,0.12,1.23,0.47,1.39,1.14
					c0.01,0.06,0.01,0.13,0,0.16c-0.28,0.63-1.14-0.44-1.14-0.44c-0.36,0.48-0.37,1.63,0.4,1.96c0.04,0.02,0.17,0.03,0.19,0.03
					c0.25-0.05,0.13,0.28,0.33,0.44c0.03,0.03,0.2,0.1,0.24,0.11c0.2,0.05,0.46-0.01,0.66-0.04c0.1-0.01,0.17,0.02,0.24,0.07
					c0.11,0.09,0.11,0.19-0.02,0.33c-0.03,0.03-0.09,0.11-0.17,0.13c-0.23,0.08-0.47-0.03-0.7-0.03c0,0-0.06,0.47,0.17,0.72
					c0.24,0.26,0.58,0.41,0.99,0.41c0.25,0,0.25,0.38,0.13,0.5c-0.77,0.5-1.42,0.62-1.81,1.49c0.39-0.12,0.77-0.12,0.77,0.12
					c0,0.38-0.25,0.5-0.5,0.76c0,0-0.14,0-0.14,0.12c0.27,0.12,0.65-0.12,0.79,0.12c0.25,0.24-0.91,0.86-0.79,1.37
					c0.52-0.12,1.16-0.24,1.29,0.38c0,0.36-0.25,0.74-0.65,0.99c0.52,0,1.04-0.24,1.16,0c0.12,0.14-0.77,0.62-0.77,1.12
					c0.39-0.12,0.64-0.24,1.04-0.12c0.25,0.5-0.91,0.86-1.04,0.86c0.39,0.63,2.06,0.5,2.83,0.14c0.27,1.11,1.68,1.11,1.68,1.25
					c-0.4,0.36-0.77,1.11-0.65,1.49c0.13,1.13-0.52,2.11-1.81,2.11c-0.77,0-1.54-0.12-1.81-0.87c-0.25-0.74-0.77-0.74-1.29-0.38
					c-0.77-0.36-1.79,0.26-2.06,1c0.52-0.12,2.06,0.38,1.16,1.25c-0.64,0-1.29,0.38-1.41,1.49c2.83-0.75,2.45,1,0.52,1.51
					c1.15,0.99,1.67,0.62,2.71,0.24c0.18-0.09,0.25-0.04,0.38,0c0.79,0.33,0.8-0.67,1.04-0.85c0.11-0.1,0.25-0.06,0.34-0.02
					c0.04,0.02,0.08,0.08,0.09,0.1c0.16,0.55-0.29,0.77-0.03,0.88c0.84,0.13,1.46-0.95,1.53-1.82c0.01-0.06,0.07-0.24,0.11-0.29
					c0.14-0.16,0.35-0.39,0.54-0.39c0.52-0.12,1.04,0.88,3.1,0.26c0-0.12-0.27-0.38-0.13-0.5c0.38-0.12,0.77-0.24,1.15-0.38
					c0.4-0.37,1.04-0.24,1.43-0.62c-0.14,0-0.4-0.12-0.4-0.24c0.13-0.12,0.9-0.12,0.77-0.38c0,0-0.13,0-0.25-0.12
					c-0.27-0.12,1.81-0.99,1.81-1.24c-0.14,0-0.79-0.75-0.52-0.87c0.38-0.12,0.89-0.26,1.16-0.62c0.38-0.12,2.96-0.88,4-1.25
					c0,0.87,0.1,1.31,0.46,1.63c0.26,0.23,0.56,0.36,1.08,0.49c0.77,0.12,1.56-0.13,2.45,0c0.77,0,0.77,1.12-0.12,1.37
					c-0.52,0.14-1.04,0.14-1.56,0.14c-0.93-0.1-1.09-0.36-1.42-0.76c-0.12-0.12-0.12-0.13-0.41-0.28c-0.36-0.18-0.64-0.19-0.95-0.41
					c-0.32-0.21-0.45-0.8-0.95-0.8c-0.32,0-0.52,0.12-0.64,0.24c-0.79-0.48-2.08,0.38-1.94,1.25c0.35-0.22,0.93-0.24,1.23,0.35
					c0.02,0.05,0.04,0.09,0.02,0.2c-0.02,0.11-0.13,0.28-0.22,0.2c-1.17-0.63-2.06,0.99-1.67,1.37c0.37-0.26,0.9-0.38,1.41,0
					c0.25,0.12,0.25,0.37,0.25,0.62c-0.77,0.24-1.17,0.5-1.42,1.75c-0.02,0.21,0.12,0.12,0.12,0.12c0.65-0.5,1.29-0.5,1.94-0.5
					c0.4,0.38,0.91,0.5,1.29,0.24c0.54-0.38,1.04-1.14,1.28-1.23c0.09-0.04,0.19-0.1,0.27,0.03c0.08,0.14,0.01,0.42,0.01,0.42
					c-0.08,0.28-0.37,0.47-0.65,0.65c0,0.12,0.25,0.29,0.65,0.29c0.5,0,0.79-0.03,1.16-0.26c0.08-0.05,0.13-0.03,0.13-0.03
					s0.05,0.01,0.02,0.12c-0.04,0.19-0.26,0.5-0.16,0.5c0.64,0.12,1.16,0,1.43-0.5c0.25,0.26,0.38,0.62,0.77,0.76
					c0-0.38,0.12-0.88,0.52-1.13c0,0.24,0.37,1.25,0.64,0.99c0-0.09,0.14-0.45,0.26-0.63c0.04-0.07,0.15-0.15,0.16-0.15
					c0.14-0.01,0.39,0.91,0.73,0.78c0.15-0.36,0.52-0.99,0.64-1.11c0.52,0.12,1.29,0.36,1.81,0.24c-0.52-0.62-0.65-0.87-0.65-1.49
					c0-0.5,0.65-0.64,0.93-0.99c0.28-0.35,0.36-0.51,0.36-0.87c-0.13-0.5-0.77-0.76-1.16-1.13c-0.5-0.5-0.13-1.3-0.1-1.37
					c0.04-0.07,0.05-0.1,0.1-0.14c0.65,0.5,1.16,0.88,1.69,1.25c0.64,0.5,1.54,0.62,2.33,0.5c0.9-0.12,2.71,0,2.71,1
					c0,0.5-0.64,1.25-1.17,1.12c-0.4-0.26-0.4-1-0.9-1.12c-0.27-0.12-0.64,0.12-0.91,0.36c-0.9-0.36-1.81-0.24-2.45,1
					c0,0.24,0.27,0.12,0.39,0.12c0.52-0.12,1.16,0,1.54,0.38c0,0.12-0.13,0-0.5,0.62c-0.64,0.12-1.29,1.13-1.29,1.99
					c0.02,0.12,0,0.12,0.12,0.12c0.64-0.36,1.29-0.62,2.06-0.62c0.13,0.12,0.13,0.38,0.13,0.5c-0.52,0.24-1.02,0.38-1.54,0.38
					c-0.12,0.01-0.1,0.16,0,0.24c0.77,0.75,2.31,0.75,2.83,0.24c1.16,0.14,1.68-0.74,1.29-1.49c-0.06-0.11,0.03-0.23,0.13-0.24
					c0.64-0.14,0.91,0.74,0.79,1.37c0.67,0.22,1.33-0.73,1.42-1.25c0.77,0,1.29-0.12,2.19-0.88c-0.2,0-0.5-0.08-0.67-0.24
					c-0.1-0.09-0.18-0.13-0.12-0.22c0.13-0.17,0.84-0.45,1.06-0.65c0-0.14-0.27-0.26-0.27-0.38c0.12-0.24,0.77-0.38,0.77-0.75
					c0,0-0.51,0-0.51-0.12C63.45,61.15,64.35,60.53,64.62,60.04z M27.07,45.88c0,0.05-0.04,0.07-0.05,0.07
					c-0.36,0.04-0.73-0.88-0.6-1.01c0.14,0,0.14,0.38,0.79,0.5C27.2,45.55,27.1,45.75,27.07,45.88z M26.29,62.96
					c0,0-0.07,0.04-0.1,0.03c-0.31-0.09-0.47-0.07-0.92,0.17c0.12-0.5,0.89-0.76,1.02-0.62V62.96z M41,61.53
					c0.01,0.11-0.06,0.09-0.16,0.04c-0.03-0.01-0.15-0.06-0.19-0.07c-0.34-0.09-0.57-0.08-0.82,0.03c0.13-0.38,0.77-0.62,1.17-0.5
					C41.13,61.05,40.88,61.03,41,61.53z M41.25,63.65c-0.64,0-0.77,0.14-1.15,0.26c0-0.24,0.69-0.82,1.08-0.76
					c0.06,0,0.06,0.05,0.06,0.07c0,0.19,0.01,0.21,0.15,0.44H41.25z M54.15,64.65c0-0.24,0.39-1,0.79-1c0,0.26,0.13,0.5,0.25,0.76
					C55.32,64.53,54.42,64.53,54.15,64.65z M46.04,44.58c0.77-0.74,2.18-1.13,2.18-1.87c0.12-0.95-0.91-1.08-1.02-1.13
					c0.38-0.24,1.29,0.12,1.54,0.62c0.12,0.12,0.12-0.87-0.12-1.37c0,0,0.1,0,0.27,0.1c1.02,0.73,1,1.68,0.62,2.39
					c-0.04,0.1,0.16,0.27,0.27,0.12c0.49-0.98,1.72-0.87,2.63-1.22c0.03-0.01,0.1-0.03,0.11-0.02c0.08,0.02,0.08,0.11,0.08,0.11
					c-0.23,0.11-0.37,0.34-0.49,0.47c-0.02,0.02-0.04,0.04-0.02,0.08c0.03,0.07,0.14,0.07,0.26,0.07c1.67,0,2.58-0.74,2.71-0.62
					c0,0.12-0.27,0.75-2.71,1.37c-0.52,0.76,0.38,1.39,0.25,1.51c-0.65,0.12-1.04-0.26-1.04-0.88c0-0.11,0-0.12-0.09-0.12
					c-0.04,0-0.08,0.05-0.1,0.07c-0.64,0.88,0.6,2.06,1.47,2.3c0,0,0,0,0,0.12c0,0-0.2,0.04-0.38,0c-2.62-0.49-2.1-2.48-4.29-2.39
					c-0.06,0-0.24,0.01-0.35,0.05c-0.65,0.2-1.57,0.91-1.8,1.72c-0.13,0.74,0.38,1.63,1.02,1.87c1.81,0.5,3.23-0.37,4.78-0.99
					c0.77,0.24,1.54,0.12,1.94-0.26c0,0-0.52-0.12-0.64-0.37c0,0,0.18-0.01,0.21-0.01c0.83-0.14,1.2-0.4,1.07-1.37
					c0.65,0,1.29,0.76,1.41,1c0.4,0-0.25-1.12-0.39-1.37c0.79,0.24,1.43,0.36,1.81,1.25c0.39,0-0.25-1.63-0.13-1.51
					c1.29,0.62,1.17,1.75,1.29,1.63c0.4-0.5,0.13-1,0.25-1.37c0.77,0.35,1.4,0.84,1.07,1.56c-0.02,0.05-0.02,0.1-0.01,0.12
					c0.03,0.07,0.11,0.07,0.11,0.07c0.27,0,0.65-0.76,0.65-0.88c0.39,0.5,0.65,1.12,0.39,1.63c-0.05,0.09-0.1,0.11-0.12,0.18
					c-0.01,0.03,0.02,0.08,0.03,0.08c0.11,0.08,0.24,0.01,0.34-0.03c0.64-0.36,0.52-1.12,0.92-1.37c0.36,1.31,0.14,2.05-1.12,2.44
					c-0.23,0.07-0.32,0.17-0.32,0.17c0.14,0.62,0,1.25-0.25,1.75c-0.39,1-1.16,1.37-2.06,1.75c-1.29,0.5-3.87,0.36-4.91-0.38
					c-0.18-0.14-0.25-0.24-0.38-0.36c1.67,0.48,6.06,0.74,6.83-1.63c0.65-1.63-0.89-2.74-2.19-2.88c-2.7-0.24-5.03,0.88-8.26,1.87
					c-1.54,0.38-4.26,0.26-4.26-1.87C45,45.95,45.26,45.2,46.04,44.58z M51.07,46.81c0,0.14-1.94,0.76-2.72,0.76
					c-1.42,0-1.67-0.62-1.67-1.25c-0.12-0.76,1.29-1.87,2.19-1.38C49.64,45.45,50.16,46.33,51.07,46.81z M44.87,48.06L45,47.94
					c0.65,1.37,2.2,1.51,3.62,1.24c2.58-0.36,6.06-1.75,8.26-1.75c0.77,0,2.58,0.38,2.58,1.51c0,0.75-0.26,1.13-0.79,1.61
					c-0.77,0.5-2.71,0.62-3.47,0.62c-0.57,0-2.13,0-2.77-0.51c-0.09-0.07-0.42-0.34-0.53-0.38c-0.37-0.15-0.72-0.22-1.21-0.22
					c-1.81,0-3.87,0.99-5.41,0.99C45,51.06,44.74,48.82,44.87,48.06z M44.74,47.07c0,0.12,0,0.12-0.12,0.12
					c-0.14,0-0.39-0.12-0.52-0.62c-0.13-0.5-0.65-0.86-1.16-1c0.13-0.24,0-0.48,0-0.74c0.39-0.12,0.77-0.12,1.04,0.12
					c0.38,0.26,0.13,0.88,0.65,1.87C44.62,46.95,44.74,46.95,44.74,47.07z M39.96,54.17c-0.65-0.5-0.77-0.75-1.02-1.37
					c-0.13-1.12,0.38-2.25-0.13-3.36c0-0.14-0.27-0.38,0-0.38c0.25-0.12,0.5-0.24,0.65-0.38c0.5,0.5,0.5,2.13,0.5,2.63
					C39.84,52.42,39.58,52.93,39.96,54.17z M38.3,56.16c-0.92-0.12-1.17-1.37-0.92-2.86c0.14-1.13,0.79-1.87,0.65-3.24
					c0.14,0,0.39-0.38,0.39-0.62c0.9,1.87-0.9,4.23,0.65,5.73c-0.9,0.24-1.17-0.88-1.17-0.62C37.78,55.05,38.03,55.68,38.3,56.16z
					 M37.01,56.67c-0.77-0.74-0.92-2.49-0.92-3.48c0.14-0.62,0.4-2.01,0.79-2.63c0,0,0,0.14,0.13,0.14c0.38,0,0.38-0.14,0.77-0.38
					C37.78,52.68,36.36,52.3,37.01,56.67z M35.72,53.55c-0.13,0.62-1.56,2.13-3.1,1.87c3.74-2.23,2.18-4.1,3.1-5.49
					c0.25-0.12,0.38-0.49,0.77-0.49c0,0.49,0.39,0.74,0.25,0.99C36.36,51.18,35.84,52.68,35.72,53.55z M35.97,55.54
					c-0.25,0.26-0.38,0.26-0.65,0.76c0,0-0.38-1-0.13-1.51c0.13-0.12,0.39-0.37,0.52-0.62C35.84,54.55,35.84,55.18,35.97,55.54z
					 M32.22,54.05c1.44-1,1.81-1.99,2.85-3.11c0,0.5,0,1.37-0.52,2.11C34.03,53.81,32.74,53.93,32.22,54.05z M39.58,47.19
					c-0.12,0-0.12,0-0.27,0.12c0,0.38-1.02,0.12-1.15,0v-0.5c0.13-0.12,0.25,0.38,0.5,0.38c0.27,0.12,0.27,0,0.52-0.24
					c0.13,0,0-0.14,0-0.14c-0.25-0.36-0.38-0.99-0.13-1.49c0.13,0,0.25,0,0.25,0c0.27,0.24,0,0.75,0.27,0.87
					c0.13,0.14,0.25,0.26,0.38,0.26c0.39-0.12,0.14-0.5,0.27-0.88c0.13-0.12,0.38-0.36,0.77-0.36c0,0.12,0,0.24,0.13,0.36
					c0,0.14,0.39,0.26,0.12,0.38c-0.25,0.38-0.38,0.87-0.5,1.37c-0.27,0.38-1.29,0.75-2.08,1.25c-0.13-0.12,0-0.36-0.13-0.74
					c0.27,0,0.52,0,0.77-0.12c0.14,0,0.52,0.12,0.65-0.12C39.96,47.31,39.84,47.07,39.58,47.19z M37.53,49.18
					c0.25-0.36,0.5-1.61,0.64-1.37c0.5,1-0.64,2.25-0.91,2.11c-0.25,0-0.52-1.49,0.27-2.24c0-0.12,0.12,0,0.12,0
					c-0.12,0.5-0.27,0.99-0.27,1.49H37.53z M38.82,46.45c0.13,0.24,0.25,0.36,0,0.5c0,0-0.14,0.12-0.14,0l-0.38-0.38
					c-0.27-0.24-0.52,0-0.77,0c0-0.12,0-0.12,0-0.24c0.64-0.14,0.9-0.62,1.15-1.12h0.14C38.94,45.32,38.42,45.95,38.82,46.45z
					 M41.13,44.94c-0.38-0.12-1.54,0.38-2.06,0c0.13-0.36,0.52-0.99,1.04-0.99c0.38-0.12,1.02,0.36,1.15,0.75c0,0,0.15,0,0.27-0.12
					c0.25,0,0.52,0,0.77,0.24c0.12,0.12,0.12,0.26,0,0.5c-0.12,0.12-0.65,0.62-0.89,0.12C41.25,45.32,41.4,45.08,41.13,44.94z
					 M38.82,44.82c-0.39-0.12-1.56-1.25-1.69-1.25c0,0-0.1,0.41-0.6,0.49c-0.05,0.01-0.18,0.04-0.28-0.05
					c-0.28-0.21-0.36-0.79-0.06-1.14c0.05-0.07,0.29-0.12,0.4-0.12c0.2,0.01,0.38,0.12,0.54,0.45c0.52,0,1.17,0.12,1.54,0.36
					c0.27,0,0.39,0.26,0.39,0.5C38.94,44.32,38.94,44.7,38.82,44.82z M36.49,44.94c0-0.12-0.13-0.48,0.25-0.62
					c0.14,0,0.27-0.12,0.39-0.24c0.13,0,0.25,0.24,0.4,0.38c-0.14,0.36-0.52,0.63-0.4,0.99c0,0,0.13,0.12,0.25,0.12
					c0.27-0.12,0.52-0.24,0.65-0.62h0.14c0,0,0.13,0,0.13,0.14c0,0.12-0.13,0.36-0.13,0.48c-0.14,0.26-0.52,0.38-0.64,0.5
					c-0.14,0.12-0.4,0.12-0.4,0.26c0.13,0.24,0.25,0.37,0.4,0.49c0.12,0.14,0.25,0,0.38,0c0,0.14-0.13,0.26-0.13,0.5
					c-0.13,0-0.39-0.12-0.52-0.12c-0.13-0.12-0.25-0.24-0.25-0.38c0-0.12,0-0.36-0.13-0.49h-0.39c-0.13,0.12-0.13,0.12-0.13,0.24
					c0,0.12,0,0.24,0.13,0.24c0.25,0,0.25,0.26,0.39,0.38c0.13,0.24,0.5,0.24,0.25,0.5c-0.12,0-0.12,0.12-0.25,0.24
					c-0.14,0-0.14-0.12-0.14-0.24c-0.25-0.38-0.5-0.75-0.77-1.25C36.09,45.95,36.36,45.45,36.49,44.94z M39.84,48.56
					c-0.12,0,0.52-0.24,0.65-0.36c0.39,0.62,0.65,1.49,0.65,2.23c0.27,0.75,0,1.63-0.13,2.25c-0.9-0.74-0.52-1.99-0.77-3
					C40.11,49.31,39.96,48.94,39.84,48.56z M40.75,47.94c0.13,0,0.13,0,0.25-0.12c0.13-0.12,0.25-0.5,0.25-0.38
					c0.52,0.5,0.92,1.51,0.92,2.5c0.25,1.12,0.77,1.5,0.64,1.5c-0.4-0.12-0.77-0.38-1.04-0.62C41.52,50.31,41.52,49.44,40.75,47.94z
					 M41.52,46.95c-0.12,0,0.13-0.5,0.13-0.5c0.13-0.12,0.25,0,0.4,0.12c1.29,1.13,0.64,3.24,1.93,4.37c0.13,0.24-0.79,0-1.04-0.38
					C42.17,49.44,42.54,48.56,41.52,46.95z M43.06,47.7c-0.25-0.62-0.65-1.13-1.17-1.51c0.79-0.12,0.79-0.24,0.79-0.24
					c0.38,0,0.9,0.24,1.15,0.75c0.39,1.37,0.14,2.13,0.64,4.12C43.71,50.69,43.45,48.56,43.06,47.7z M44.48,44.32
					c0,0.09-0.13,0.14-0.13,0.14c-0.52,0.24-0.9-0.14-1.41,0.12c-0.14,0.1-0.13-0.12-0.25-0.26c-0.14,0-0.43-0.12-0.39-0.12
					C43.06,43.83,43.71,43.7,44.48,44.32z M44.48,42.71c-0.12,0.34-0.34,0.8-0.7,0.86c-0.02,0-0.17,0.02-0.21,0.03
					c-0.58,0.08-1.07,0.01-1.67,0.48c-0.13,0-0.13-0.12-0.25,0c-0.13,0.12-0.46-0.19-0.39-0.24c1.29-1.25,1.94-1,3.1-1.25
					C44.35,42.59,44.35,42.71,44.48,42.71z M41.84,42.4c0.2-0.07,0.97-0.27,1.11-0.28c0.42-0.01,0.88,0.18,1.27,0.09
					c0.11-0.03,0.13,0,0.13,0c-0.25,0.38-0.65,0.24-1.29,0.38c-1.02,0.12-1.29,0.36-1.94,1.11c-0.25,0-0.25-0.12-0.38-0.12
					C41.03,42.85,41.31,42.58,41.84,42.4z M41.4,41.46c0,0,0.23-0.02,0.31-0.02c0.09,0,0.33,0.02,0.33,0.02
					c0,0.12-0.06,0.17-0.14,0.24c-0.65,0.5-1.29,1.13-1.67,1.75h-0.65C39.71,42.71,40.11,41.58,41.4,41.46z M39.58,42.21
					c-0.12,0.38-0.27,0.62-0.39,1c-0.01,0.09-0.13-0.14-0.52-0.26c-0.38-0.74-0.5-1.25-0.65-2.11
					C38.82,41.34,39.19,41.7,39.58,42.21z M38.3,42.83h-0.77c-0.27-0.5-0.64-1.01-0.79-1.63C37.78,41.46,38.3,42.33,38.3,42.83z
					 M37.01,42.45c-0.13,0.14-0.27-0.24-0.92,0c-0.12,0-0.25,0-0.5-0.24c-0.21-0.22-0.27-0.12-0.52-0.5
					C35.84,41.7,36.49,41.7,37.01,42.45z M35.72,42.59c-0.13,0.12-0.27,0.36-0.39,0.48c-0.38,0-0.77-0.12-1.16-0.36
					C35.2,41.96,35.84,42.45,35.72,42.59z M34.03,43.95c0.4-0.26,0.77-0.38,1.29-0.5v0.5c-0.38,0-0.89,0.12-1.42,0.24
					C33.73,44.24,33.92,44.01,34.03,43.95z M33.78,45.28c0.4-0.46,1.2-0.76,1.55-0.91c0.05-0.02,0.16-0.06,0.18-0.05
					c0.2,0.02,0.21,0.15,0.33,0.26c0.08,0.08,0.06,0.15,0.03,0.22c-0.03,0.14-0.08,0.17-0.11,0.18c-0.4,0.2-1.02,0.11-1.86,0.34
					C33.78,45.37,33.73,45.33,33.78,45.28z M35.72,45.2c-0.13,0.36-0.13,0.5-0.39,0.99c-1.02,0.26-0.77,1.38-2.06,1.63
					c-0.14,0.02-0.21,0.01-0.25,0C33.26,46.33,34.68,45.45,35.72,45.2z M35.72,47.31c-1.16,0.75-1.16,1.87-2.46,1.63
					c0,0-0.1-0.02-0.02-0.08c1.43-1.2,1.34-1.92,2.21-2.29C35.45,46.81,35.59,47.07,35.72,47.31z M35.84,47.57
					c0.4,0.24,0.52,0.62,0.65,0.87v0.5c0,0.12-0.25,0.12-0.4,0.12c-1.54,0.62-1.02,2.25-2.95,3.24h-0.13
					C34.3,51.18,34.16,48.82,35.84,47.57z M29.46,42.74c-0.11-0.19-0.24-0.3-0.47-0.41c0.52-0.12,1.04,0,1.29,0.5
					c-0.2,0-0.4,0.15-0.6,0.09C29.57,42.9,29.51,42.81,29.46,42.74z M26.94,43.33c0.39-0.12,1.04,0.12,1.16,0.24
					c0.02,0.01-0.07,0.1-0.15,0.22c-0.11,0.16-0.22,0.35-0.25,0.28C27.33,43.33,26.69,43.45,26.94,43.33z M31.35,55.8
					c-0.01-0.04-0.05-0.15-0.06-0.16c-0.05-0.05-0.1-0.05-0.21,0.04c-1.16,0.75-1.93,0.48-2.08,0.48c1.29-0.75,1.04-0.86,1.69-1.87
					c-0.25-0.36-1.04,0.5-1.54,0.38c0.23-0.11,0.35-0.34,0.58-0.75c0.02-0.04,0.11-0.24,0.13-0.29c0.26-0.61,0.7-0.71,0.7-0.71
					c-0.27-0.24-1.68,0.74-1.68,0.74c0.38-1.22,1.01-1.48,1.15-2.08c0-0.01,0.01-0.09,0-0.11c0-0.02-0.01-0.03-0.03-0.04
					c-0.02-0.01-0.08-0.01-0.15,0.06c-0.89,0.93-1.51,1.06-2.15,1.06c0.14-0.61,2.14-0.99,2.32-2.08c0.01-0.05-0.01-0.07-0.03-0.07
					c-0.14-0.01-0.4,0.41-0.86,0.52c-0.39,0.12-0.91,0.12-1.04,0.12c0.52-0.62,0.77-0.74,1.29-1.25c-0.52,0-1.17,0.26-1.68,0.26
					c-0.08,0-0.06-0.05-0.03-0.09c0.02-0.02,0.07-0.07,0.08-0.08c0.77-0.58,1.63-0.46,1.63-1.21c0-0.21-0.1-0.43-0.3-0.57
					c-0.03-0.02-0.12-0.06-0.2-0.06c-0.42,0-1.17-0.04-1.04-0.49c0.77,0.24,1.41-0.14,1.14-0.88c-0.22-0.45-0.67-0.39-1.13-0.28
					c-0.15,0.05-0.22,0-0.24-0.02c-0.33-0.27-0.08-0.81,0.15-0.93c0.05-0.03,0.14-0.05,0.17-0.06c0.31-0.1,0.54,0.32,0.76,0
					c0.01-0.02,0.06-0.16,0.06-0.19c0.04-0.72-0.78-0.41-0.78-0.75c0.13-0.5,0.77-0.76,1.16-0.76c0.35,0-0.19,0.66,0.48,0.75
					c0.11,0.01,0.29-0.07,0.41-0.19c0.45-0.45-0.25-0.55-0.25-0.68c0.01-0.46,0.95-0.38,1.23-0.18c0.14,0.08,0.31,0.33,0.12,0.5
					c-0.21,0.2-0.41,0.4-0.53,0.76c-0.08,0.21-0.4,2.99,0.03,4.16c0.06,0.16,0.11,0.2,0.14,0.23c0.25,0.24,0.58,0.17,0.81,0.4
					c0.39,0.36,1.43,2.11,1.29,2.23c-0.25,0.38-0.64,0.62-0.9,0.88c0,0.24,0.4,0.24,0.65,0.36c0.12,0-0.77,0.88-1.29,1.12
					c0,0,0,0,0,0.12c0.4,0.38,0.9,0.12,1.29,0.38c-0.25,0.62-0.4,0.62-0.77,1.25c0.12,0.24,1.41-0.12,1.67,0
					C33.65,56.76,31.6,56.92,31.35,55.8z M26.49,60.7c-0.13-0.02-0.45-0.14-0.85-0.03c0.26-0.48,0.74-0.5,1.13-0.5
					c0.04,0,0.04,0.02,0.04,0.03c-0.02,0.1-0.11,0.2-0.2,0.38C26.59,60.61,26.55,60.71,26.49,60.7z M26.99,64.54
					c0.19,0.05,0.37,0.4,0.38,0.55c0,0.04-0.05,0.1-0.07,0.11c-0.2,0.2-1.02,0.19-1.26,0.08c0.36-0.12,0.62-0.36,0.87-0.7
					C26.92,64.56,26.97,64.53,26.99,64.54z M40.61,59.42c0.27-0.38,0.91-0.62,1.16-0.26c-0.08,0.13-0.12,0.34-0.23,0.47
					c-0.03,0.05-0.09,0.06-0.15,0.03C41.13,59.54,40.88,59.42,40.61,59.42z M44.62,64.15c0.38-0.36,0.5-0.62,0.64-0.99
					c0.1-0.16,0.35,0.03,0.5,0.12C46.16,63.52,45,64.27,44.62,64.15z M52.09,60.16c0.27,0.12,0.58,0.51,0.65,0.62
					c0.09,0.16,0.12,0.47-0.13,0.62c-0.52,0.24-1.54,1.25-0.52,2.37c-1.41-0.26-1.02-1.25-0.64-2.13c0.06-0.15-0.04-0.19-0.13-0.12
					c-0.89,0.87-0.64,1.75-1.04,2.49c-0.5-0.62-0.25-1.63,0.15-2.11c0,0-0.04-0.06-0.15,0c-0.64,0.36-1.02,1.49-1.29,2.11
					c-0.46-0.47-0.07-1.67-0.01-1.75c0,0,0.01-0.08-0.11,0c-0.65,0.5-0.9,1.25-1.16,1.99c-0.51-0.37-0.38-0.99-0.38-1.49
					c-0.38,0.24-0.02,1.42-0.95,1.73c-0.03,0.01-0.09,0.03-0.15-0.01c-0.15-0.11-0.02-0.23,0.06-0.34c0.2-0.28,0.25-0.56,0.1-0.79
					c-0.05-0.07-0.31-0.29-0.36-0.32c-0.47-0.4-0.95-0.5-1.4-0.5c-0.49,0.07-1.17,0.49-1.56,1.11c-0.11,0.15-0.37,0.22-0.65,0.14
					c-0.52-0.14-1.02-1.01-0.52-1.38c0.27-0.12,0.39,0.26,0.79,0.14c0.22-0.12,0.25-0.8-0.18-0.88c-0.13-0.02-0.23-0.02-0.37,0.03
					c-0.24,0.09-0.36,0.33-0.53,0.19c-0.05-0.04-0.09-0.09-0.1-0.17c-0.08-0.38,0.04-1.16,0.54-1.19c0.11,0,0.17,0.1,0.2,0.13
					c0.1,0.17,0.2,0.26,0.31,0.26c0.55,0,0.54-0.37,0.45-0.7c-0.02-0.06-0.06-0.2-0.19-0.2c-0.27-0.03-0.65,0.12-0.76-0.1
					c-0.27-0.36,0.25-0.99,0.64-0.99c0.5,0,0.38,0.62,0.9,0.75c0.25,0.12,0.71,0.15,1.04,0.38c0.12,0.08,0.21,0.12,0.25,0.24
					c0.25,1.13,1.93,1,2.83,0.87c1.81-0.24,2.85-1.49,1.56-2.35c-0.77-0.51-1.93-0.14-2.85-0.26c-1.42-0.24-1.67-0.87-1.29-1.87
					c0.11-0.26,0.75-0.41,0.91-0.5c0.17-0.09,0.9-0.62,0.9-0.36c-0.23,0.33-0.35,0.88-0.58,1.36c-0.02,0.05-0.07,0.14-0.05,0.2
					c0.06,0.1,0.16,0.12,0.25,0.06c0.77-0.75,0.77-0.99,1.79-1.61c0.39,0.87,1.43,0.87,1.68,0c0.65,0.62,1.47,1.45,1.42,1.61
					c-0.13,0.5-0.38,1.25-0.38,1.87C51.13,59.76,51.71,59.97,52.09,60.16z M54.15,61.91c0.14-0.26,1.04-0.88,1.56-0.5
					c-0.12,0.12-0.26,0.62-0.26,0.62C54.94,61.78,54.67,61.78,54.15,61.91z M55.07,65.9c0.38,0,0.77,0,1.02-0.24
					c0.14,0.12,0.27,0.24,0.4,0.36C56.23,66.28,55.19,66.28,55.07,65.9z M60.23,64.47c0.02,0.18,0.05,0.59-0.4,0.8
					c0-0.62,0-0.74-0.52-1.12c-0.11-0.11,0.52-0.02,0.83,0.19C60.17,64.36,60.23,64.45,60.23,64.47z M62.91,61.09
					c-0.22,0.12-0.48,0.22-0.86,0.23c-0.46,0.02-0.96-0.15-1.17-0.03c0.13,0.49,1.42,0.37,2.19,0.37c-0.65,0.62-1.42,0.62-2.31,0.5
					c0,0,0.02,0.13,0.24,0.23c0.49,0.19,1.12,0.29,1.55,0.39c-0.38,0.12-0.77,0.38-2.06,0.12c0.13,0.38,1.17,0.75,1.68,0.88
					c-0.39,0.24-0.85,0.36-1.16,0.36c-0.63,0-2.48-0.82-3.06,0.4c-0.05,0.1-0.04,0.18-0.01,0.24c0.03,0.08,0.08,0.15,0.11,0.22
					c0.06,0.13-0.03,0.34-0.05,0.38c-0.19,0.42-0.88,0.39-1.23,0.15c-0.06-0.04-0.15-0.1-0.22-0.28c-0.08-0.18-0.12-0.38,0.02-0.55
					c0.04-0.06,0.15-0.04,0.2-0.03c0.85,0.11,0.46-0.88-0.27-0.65c-0.22,0.11-0.36,0.32-0.65,0.37c-0.04,0.01-0.15,0.01-0.23-0.09
					c-0.25-0.33-0.24-1.08,0.09-1.16c0.11-0.02,0.17,0.05,0.18,0.07c0.28,0.34,0.98-0.03,0.79-0.46c-0.04-0.09-0.09-0.18-0.13-0.22
					c-0.22-0.22-0.8-0.08-0.58-0.63c0.13-0.26,0.4-0.76,0.77-0.76c0.32,0,0.36,0.37,0.52,0.62c0.08,0.12,0.39,0.62,0.77,0.62
					c1.04,0,1.81-1.49,1.43-2.49c-0.52-1.37-2.2-0.87-3.49-1.11c-3.31-0.5-4.22-2.45-6.24-4.9c-0.03-0.03-0.15-0.13-0.19-0.15
					c-0.19-0.08-0.31-0.06-0.54,0.05c-1.54,0.75-2.7,1.37-4.37,2.11c-0.27,0.12-0.52,0.24-0.92,0.38c0.27-0.38,0.77-1.02,1.04-1.38
					c-1.04,0.48-1.81,1.25-3.22,1.87c-0.12,0-0.27,0-0.27-0.12c0.15-0.36,0.39-0.5,0.65-1.25c-0.13-0.12-0.19,0-0.38,0.12
					c-1.41,1.01-2.2,1.87-3.49,1.63c0,0.24,0.52,0.74,1.29,1c-0.38,0.36-1.67,0.24-2.31-0.14c-0.13,0.62,1.02,1,1.29,1.13
					c-0.65,0.5-1.94,0-2.58-0.24c-0.13,0,0,0.12,0,0.12c0.38,0.75,1.93,0.87,2.58,0.87c-1.04,0.5-2.06,0.76-3.23,0.14
					c-0.27,0.37,1.02,1.11,1.29,1.25c0,0.24-1.42,0.12-2.33-0.62c-0.13,0.36,1.04,1.11,1.17,1.25c-0.51,0.49-1.58,0.05-1.94-0.1
					c-0.1-0.04-0.17-0.08-0.21-0.09c-0.02,0-0.04,0.01-0.04,0.05c0.13,0.5,0.77,0.76,1.29,1c-1.04,0.5-1.81-0.12-2.2-0.5
					c-0.25,0-1.17,0.88-1.17,1.01c-0.13,0.24,0,0.5-0.13,0.87c-0.11,0.22-0.31,0.72-0.46,0.76c-0.02,0.01-0.12-0.03-0.14-0.05
					c-0.12-0.14,0.04-0.73-0.18-0.83c-1.16-0.5-1.04,0.62-1.54,1c-0.52,0.24-1.29-0.62-1.29-0.88c0-0.1,0.1-0.41,0.37-0.23
					c0.02,0.01,0.11,0.09,0.14,0.1c0.06,0.01,0.12,0,0.15,0c0.23-0.06,0.23-0.25,0.23-0.36c0-0.37-0.13-0.62-0.65-0.49
					c-0.11,0.05-0.12,0.23-0.32,0.26c-0.05,0.01-0.12,0.05-0.19-0.02c-0.38-0.38-0.38-1.25-0.13-1.37c0.39-0.12,0.52,0.37,0.9,0.24
					c0.27-0.12,0.27-0.87,0-0.99c-0.23-0.13-0.59,0.29-0.84,0.07c-0.04-0.04-0.04-0.15-0.02-0.19c0.15-0.47,0.5-1.01,0.74-1.01
					c0.34,0,0.39,0.65,0.81,0.99c0.07,0.05,0.46,0.28,0.57,0.33c0.83,0.39,1.8,0.26,2.36,0.05c2.33-1.01,1.29-2.62,2.06-3
					c1.68-0.74,0.91-1.49,1.56-1.87c0.13,0.12,0.13,0.75,0.51,0.88c0.14-0.76,0.27-1.25,1.04-1c0.25,0.38,0.52,0.74,0.9,1
					c0.14,0,0.14-0.88,0.14-1.25c0.64,0.49,1.67,0.49,1.54,0.24c-0.12-0.12-0.65-0.75-0.65-1.01c0.65,0.38,1.68,0.14,1.54-0.12
					c-0.13-0.12-0.25-0.24-0.25-0.36c0.12-0.26,0.65-0.26,0.89-0.26c0-0.5-0.5-1.13,0-1.75c0.4,0.26,0.52,0.5,1.04,0.5
					c0-0.36-0.13-0.86,0.13-1.24c1.17,0,2.06,0,2.85-0.12c1.67-0.38,2.96-1,4.77-1.37c0.52-0.12,0.9-0.26,1.41-0.38
					c0.71,0,1.49,0.61,1.86,1.18c0.1,0.16,0.42,0.76,0.55,0.92c0.45,0.58,0.98,1.12,1.59,1.52c0.52,0.38,1.04,0.87,1.29,1.49
					c0.26,0.41,0.35,0.94,0.57,1.43c0.11,0.25,0.38,0.67,0.69,0.83c1.33,0.67,2.52-0.98,3.13-0.39c0.05,0.06,0.08,0.11,0.1,0.16
					c0.02,0.04,0.07,0.14,0.09,0.15c0.11,0.07,0.2,0.07,0.2,0.07c0.9,0,1.54-0.12,2.31-0.5c0.14,0-1.02,1.37-2.31,1.51
					c0.25,0.24,2.06-0.14,2.45-0.38c-0.27,0.75-1.29,1.25-2.33,1.13l-0.08-0.01c0,0,0.03,0.1,0.26,0.18c0.49,0.1,1.41,0.2,1.76,0.2
					c0,0.26-1.94,0.26-1.94,0.62c1.54-0.24,1.68,0.26,2.33,0C63.47,60.68,63.22,60.92,62.91,61.09z"/>
			</g>
			<g id="Blue_18_">
				<path class="st17" d="M45.77,63.28c-0.16-0.09-0.4-0.28-0.5-0.12c-0.14,0.36-0.27,0.62-0.64,0.99
					C45,64.27,46.16,63.52,45.77,63.28z"/>
				<path class="st17" d="M29.46,42.74c0.04,0.08,0.11,0.16,0.22,0.19c0.21,0.05,0.4-0.09,0.6-0.09c-0.25-0.5-0.77-0.62-1.29-0.5
					C29.23,42.43,29.35,42.55,29.46,42.74z"/>
				<path class="st17" d="M55.71,61.41c-0.52-0.38-1.41,0.24-1.56,0.5c0.52-0.14,0.79-0.14,1.29,0.12
					C55.44,62.03,55.59,61.53,55.71,61.41z"/>
				<path class="st17" d="M27.71,44.08c0.03,0.07,0.14-0.12,0.25-0.28c0.08-0.12,0.17-0.21,0.15-0.22
					c-0.13-0.12-0.77-0.36-1.16-0.24C26.69,43.45,27.33,43.33,27.71,44.08z"/>
				<path class="st17" d="M37.53,47.7c-0.79,0.75-0.52,2.24-0.27,2.24c0.27,0.14,1.41-1.11,0.91-2.11c-0.14-0.24-0.39,1-0.64,1.37
					h-0.14c0-0.5,0.14-0.99,0.27-1.49C37.65,47.7,37.53,47.57,37.53,47.7z"/>
				<path class="st17" d="M41.19,63.14c-0.39-0.06-1.08,0.52-1.08,0.76c0.38-0.12,0.5-0.26,1.15-0.26h0.15
					c-0.13-0.23-0.14-0.24-0.15-0.44C41.25,63.19,41.25,63.15,41.19,63.14z"/>
				<path class="st17" d="M26.77,60.16c-0.39,0-0.87,0.02-1.13,0.5c0.39-0.1,0.71,0.02,0.85,0.03c0.06,0.01,0.1-0.09,0.12-0.12
					c0.1-0.18,0.19-0.29,0.2-0.38C26.81,60.19,26.81,60.16,26.77,60.16z"/>
				<path class="st17" d="M26.99,64.54c-0.02,0-0.07,0.02-0.08,0.04c-0.25,0.34-0.51,0.58-0.87,0.7c0.23,0.12,1.05,0.12,1.26-0.08
					c0.01-0.01,0.07-0.07,0.07-0.11C27.35,64.93,27.18,64.59,26.99,64.54z"/>
				<path class="st17" d="M41.55,59.63c0.11-0.13,0.14-0.35,0.23-0.47c-0.25-0.36-0.9-0.13-1.16,0.26c0.27,0,0.52,0.12,0.79,0.24
					C41.46,59.7,41.51,59.69,41.55,59.63z"/>
				<path class="st17" d="M25.27,63.16c0.46-0.24,0.62-0.26,0.92-0.17c0.03,0.01,0.1-0.03,0.1-0.03v-0.43
					C26.16,62.4,25.39,62.66,25.27,63.16z"/>
				<path class="st17" d="M41,61.03c-0.4-0.12-1.04,0.12-1.17,0.5c0.25-0.11,0.48-0.12,0.82-0.03c0.03,0.01,0.16,0.06,0.19,0.07
					c0.1,0.05,0.17,0.07,0.16-0.04C40.88,61.03,41.13,61.05,41,61.03z"/>
				<path class="st17" d="M26.42,44.94c-0.12,0.14,0.24,1.06,0.6,1.01c0.01,0,0.05-0.02,0.05-0.07c0.03-0.13,0.13-0.34,0.13-0.44
					C26.56,45.32,26.56,44.94,26.42,44.94z"/>
				<path class="st17" d="M55.07,65.9c0.13,0.38,1.16,0.38,1.42,0.12c-0.13-0.12-0.25-0.24-0.4-0.36
					C55.83,65.9,55.44,65.9,55.07,65.9z"/>
				<path class="st17" d="M54.94,63.65c-0.39,0-0.79,0.76-0.79,1c0.27-0.12,1.16-0.12,1.04-0.24C55.07,64.15,54.94,63.9,54.94,63.65
					z"/>
				<path class="st17" d="M60.14,64.34c-0.32-0.21-0.94-0.3-0.83-0.19c0.52,0.38,0.52,0.5,0.52,1.12c0.45-0.21,0.42-0.61,0.4-0.8
					C60.23,64.45,60.17,64.36,60.14,64.34z"/>
			</g>
		</g>
		<path class="st2" d="M53.29,14.3c-2.31,0.13-3.4-1.37-5.4-1.41c-0.82-0.02-2.01,0.21-3.49,1.39c-1.48-1.18-2.67-1.41-3.49-1.39
			c-2,0.04-3.09,1.54-5.4,1.41c-0.32-0.02-0.61-0.06-0.87-0.12v7.83c0.26,0.06,0.55,0.11,0.87,0.12c2.31,0.13,3.4-1.37,5.4-1.41
			c0.82-0.01,2,0.21,3.47,1.38v0.03c0.01-0.01,0.01-0.01,0.02-0.02c0.01,0.01,0.01,0.01,0.02,0.02V22.1
			c1.47-1.17,2.65-1.39,3.47-1.38c2,0.04,3.09,1.54,5.4,1.41c0.32-0.02,0.61-0.06,0.87-0.12v-7.83
			C53.9,14.24,53.61,14.28,53.29,14.3z"/>
		<g>
			
				<rect x="32.99" y="22.77" transform="matrix(-1 -1.224647e-16 1.224647e-16 -1 78.2753 46.4256)" class="st18" width="12.29" height="0.88"/>
			
				<rect x="28.67" y="18.42" transform="matrix(6.123234e-17 -1 1 6.123234e-17 14.5712 52.3264)" class="st18" width="9.55" height="0.91"/>
		</g>
		<g>
			<rect x="43.53" y="22.77" class="st18" width="12.29" height="0.88"/>
			
				<rect x="50.59" y="18.42" transform="matrix(6.123234e-17 -1 1 6.123234e-17 36.4852 74.2403)" class="st18" width="9.55" height="0.91"/>
		</g>
		<g>
			<polygon class="st18" points="31.47,20.64 33.04,19.76 33.04,21.52 			"/>
			<g>
				<polygon class="st18" points="31.47,17.12 33.04,16.24 33.04,18 				"/>
			</g>
		</g>
		<g>
			<polygon class="st18" points="57.35,20.64 55.77,19.76 55.77,21.52 			"/>
			<g>
				<polygon class="st18" points="57.35,17.12 55.77,16.24 55.77,18 				"/>
			</g>
		</g>
		<path class="st19" d="M54.16,13.35l-0.19,0.04c-0.24,0.06-0.48,0.09-0.72,0.1c-1.03,0.06-1.78-0.28-2.59-0.65
			c-0.8-0.36-1.64-0.74-2.74-0.76c-0.03,0-0.06,0-0.09,0c-1.13,0-2.28,0.4-3.41,1.18c-1.14-0.78-2.28-1.18-3.41-1.18
			c-0.03,0-0.06,0-0.09,0c-1.1,0.02-1.94,0.4-2.74,0.76c-0.81,0.36-1.57,0.71-2.59,0.65c-0.24-0.01-0.48-0.05-0.72-0.1l-0.19-0.04
			v0.39l0.1,0.02c0.26,0.06,0.53,0.1,0.79,0.11c1.13,0.06,1.93-0.3,2.78-0.68c0.77-0.35,1.56-0.71,2.58-0.72c0.03,0,0.06,0,0.08,0
			c1.08,0,2.19,0.4,3.29,1.19l0.12,0.08l0.12-0.08c1.1-0.79,2.21-1.19,3.29-1.19c0.03,0,0.06,0,0.08,0
			c1.02,0.02,1.81,0.38,2.58,0.72c0.79,0.36,1.53,0.69,2.53,0.69c0.08,0,0.17,0,0.26-0.01c0.26-0.01,0.53-0.05,0.79-0.11l0.1-0.02
			V13.35z"/>
		<path d="M72.41,11.43l0,58.06c0,1.99-1.2,3.85-3.05,4.73L44.41,86.06L19.44,74.14c-1.87-0.89-3.04-2.7-3.04-4.72V11.43H72.41
			 M73.72,10.17H15.09v59.25c0,2.49,1.46,4.75,3.76,5.86l25.55,12.2l25.53-12.11c2.31-1.1,3.78-3.37,3.78-5.86V10.17L73.72,10.17z"
			/>
		<g>
			<path class="st16" d="M43.52,97.52c-0.48-0.01-1.27-0.07-1.78-0.02c-0.07-0.03-0.12-0.12-0.12-0.12
				c0.16-0.18,0.31-0.36,0.32-0.59c-0.03-0.57,0.02-1.09-0.01-1.65c-0.01-0.17-0.2-0.32-0.36-0.52c0.03-0.08,0.1-0.05,0.1-0.05
				c0.57-0.02,1.27,0.07,1.77,0.03c0.17-0.01,0.34-0.04,0.45,0.09c0,0.23,0.15,0.45,0.07,0.65c-0.26,0.07-0.26-0.17-0.37-0.29
				c-0.33-0.2-0.74-0.2-1.07-0.17c-0.07-0.03-0.1,0.05-0.06,0.14c-0.01,0.22-0.01,0.46-0.03,0.7c0.31,0.03,0.7,0.09,0.87-0.16
				c0.1-0.04,0.1-0.04,0.17-0.01c0.09,0.2-0.01,0.23,0.04,0.33c0.02,0.16,0.03,0.33-0.09,0.43c-0.15-0.05-0.18-0.38-0.45-0.32
				c-0.16,0.02-0.3-0.04-0.5,0.04c-0.04,0.3-0.1,0.67,0,1.03c0.23,0.24,0.88,0.25,1.16-0.04c0.13-0.12,0.16-0.41,0.33-0.44
				c0.08,0.03,0.09,0.2,0.09,0.2C43.95,97.06,43.86,97.49,43.52,97.52L43.52,97.52z"/>
			<path class="st16" d="M45.6,97.5c-0.17,0.01-0.41,0-0.56-0.05c-0.04-0.09,0.05-0.14,0.16-0.17c0.26-0.47,0.13-1.62,0.13-2.42
				c-0.15-0.06-0.52,0.04-0.65,0.16c-0.12,0.11-0.11,0.27-0.3,0.36c-0.22-0.08-0.04-0.34-0.08-0.43c0.06-0.15,0.01-0.24,0.04-0.31
				c0.05-0.14,1.83-0.05,2.49-0.04c0.25,0,0.14,0.28,0.18,0.38c0.01,0.17,0.1,0.36-0.1,0.45c-0.22-0.08-0.16-0.23-0.28-0.35
				c-0.09-0.19-0.4-0.22-0.58-0.21c-0.14-0.05-0.12,0.11-0.12,0.11c-0.07,0.62-0.09,1.49,0.01,2.08c0.02,0.16,0.24,0.24,0.25,0.4
				C46.05,97.59,45.83,97.51,45.6,97.5L45.6,97.5z"/>
		</g>
		<g>
			<path class="st16" d="M39.95,92.91c-0.23-0.02-0.47,0.26-0.5,0.47c-0.26,0.4-0.42,0.69-0.68,1.09c-0.27,0.5-0.46,1.11-1.03,1.27
				c-0.32,0.07-0.44,0.16-0.66,0.03c-0.75-0.08-1.87-0.74-1.92-1.37c-0.04-0.53,0.35-1.02,0.62-1.52c0.29-0.5,0.77-0.97,0.63-1.63
				c-0.09-0.11-0.2-0.12-0.08-0.21c0.01-0.1,0.22-0.08,0.31,0.03c0.21,0.13,0.64,0.28,0.83,0.42c0.09,0.11,0.43,0.15,0.3,0.34
				c-0.24,0.08-0.56,0.16-0.71,0.35c-0.51,0.68-0.82,1.39-1.12,2.09c-0.14,0.31,0.14,0.65,0.33,0.89c0.2,0.12,0.62,0.27,0.94,0.31
				c0.78-0.02,1.26-1.35,1.55-1.94c0.14-0.29,0.3-0.7,0.14-1.14c-0.09-0.11,0.01-0.1,0.01-0.1c0.42,0.15,0.73,0.28,1.15,0.43
				C40.07,92.82,40.06,92.92,39.95,92.91L39.95,92.91z"/>
			<path class="st16" d="M35.71,90.86c-0.59,0.36-1.01,1.05-1.29,1.65c-0.28,0.4-0.55,0.89-0.7,1.3c-0.13,0.09-0.14,0.19-0.26,0.28
				c-0.1-0.01-0.31-0.03-0.42-0.15c0,0-0.09-0.11-0.08-0.22c-0.08-0.23-0.09-1.07-0.11-1.82c-0.07-0.42-0.12-0.95-0.16-1.49
				c-0.09-0.13-0.06-0.43-0.17-0.34c-0.39,0.48-0.54,0.79-0.83,1.39c-0.15,0.41-0.43,0.91-0.36,1.22c0.09,0.11,0.18,0.24,0.07,0.33
				c-0.12,0.09-0.32-0.03-0.43-0.15c-0.2-0.14-0.51-0.28-0.72-0.3c0.02-0.2,0.13-0.19,0.25-0.28c0.45-0.07,0.64-0.78,0.9-1.08
				c0.29-0.6,0.41-0.79,0.7-1.29c0.12-0.09,0.25-0.3,0.16-0.41c-0.32-0.14-0.55,0.04-0.77,0.12c-0.12-0.01-0.23-0.03-0.11-0.12
				c0.01-0.1,0.15-0.19,0.37-0.27c0.22-0.09,0.58-0.26,0.9-0.12c0.3,0.13,0.62,0.29,0.59,0.49c0.33,0.89,0.33,1.83,0.33,2.78
				c0.08,0.23-0.04,0.32,0.04,0.53c0.39-0.48,0.56-1,0.83-1.49c0.05-0.42,0.34-0.92,0.04-1.26c0.01-0.1,0.12-0.09,0.12-0.09
				c0.53,0.16,0.94,0.41,1.35,0.68C35.92,90.88,35.82,90.87,35.71,90.86L35.71,90.86z"/>
			<path class="st16" d="M29.74,92.31c-0.32-0.14-0.83-0.41-1.24-0.56c-0.12-0.01-0.21-0.12-0.1-0.21c0.14-0.1,0.23,0.03,0.23,0.03
				c0.47-0.27,0.4-0.7,0.45-1.13c-0.4-0.25-0.91-0.51-1.23-0.66c-0.38,0.38-0.65,0.88-0.6,1.32c-0.13,0.19-0.32-0.03-0.43-0.05
				c-0.2-0.12-0.4-0.25-0.61-0.39c-0.11-0.01-0.21-0.02-0.3-0.14c0.13-0.19,0.32,0.03,0.56-0.14c0.95-0.75,1.7-1.5,2.46-2.27
				c0.12-0.09-0.32-0.14-0.53-0.16c-0.23-0.03-0.35,0.17-0.45,0.05l0.01-0.1c0.47-0.27,1.05-0.51,1.56-0.25
				c0.52,0.26,0.55,0.91,0.49,1.43c-0.04,0.3-0.23,1.97-0.29,2.49c-0.03,0.22,0.05,0.43,0.13,0.66
				C29.85,92.22,29.84,92.32,29.74,92.31L29.74,92.31z M29.03,89.9c-0.21-0.02-0.73-0.18-0.94-0.41c0.28-0.4,0.75-0.67,1.11-1.04
				C29.3,88.56,29.04,89.8,29.03,89.9L29.03,89.9z"/>
			<path class="st16" d="M27.39,87.19c-0.21-0.14-0.3-0.26-0.53-0.18c-0.25,0.19-0.53,0.79-0.68,1.1c-0.3,0.6-0.58,1.2-0.87,1.7
				c-0.01,0.1,0.18,0.34,0.06,0.54c-0.12-0.01-0.22-0.02-0.22-0.02c-0.29-0.24-0.61-0.39-0.93-0.53c-0.09-0.11-0.2-0.13-0.08-0.22
				c0.24-0.08,0.68-0.25,0.85-0.65c0.27-0.5,0.68-1.09,0.96-1.68c-0.11-0.01-0.11-0.01-0.11-0.01c-0.93,0.42-1.77,1.07-2.62,1.72
				c-0.12,0.09-0.21-0.02-0.21-0.02c-0.05-0.54-0.01-0.85,0.1-1.8c-0.09-0.11,0.03-1.16-0.08-1.27c-0.36,0.39-0.66,0.99-0.83,1.5
				c-0.25,0.3-0.53,0.79-0.25,1.24c0,0-0.01,0.11-0.12,0.1c-0.41-0.27-0.83-0.41-1.24-0.67c0.01-0.12,0,0,0.01-0.12
				c0.55-0.04,0.97-0.73,1.34-1.11c0.27-0.5,0.67-0.99,0.95-1.59c0.01-0.1-0.3-0.25-0.41-0.27c-0.2-0.12-0.45,0.07-0.67,0.15
				c-0.09-0.11-0.08-0.23,0.03-0.22c0.24-0.28,0.71-0.45,1.13-0.29c0.42,0.15,0.82,0.5,0.89,0.83c0.01,0.85-0.09,1.68-0.09,2.53
				l-0.01,0.1c0.95-0.63,1.81-1.39,2.61-1.62c0.55-0.04,0.75,0.08,0.84,0.21c0.21,0.13,0.31,0.24,0.29,0.34
				C27.51,87.09,27.41,87.07,27.39,87.19L27.39,87.19z"/>
		</g>
		<g>
			<path class="st16" d="M67.85,87.98c-0.59,0.29-1.58,0.71-2.15,1.09c-0.1,0.01-0.23-0.07-0.23-0.07c0.07-0.32,0.13-0.64-0.01-0.91
				c-0.41-0.66-0.71-1.33-1.12-1.98c-0.13-0.19-0.46-0.25-0.78-0.41c-0.02-0.11,0.08-0.12,0.08-0.12c0.68-0.38,1.58-0.71,2.15-1.08
				c0.2-0.13,0.38-0.26,0.6-0.18c0.15,0.28,0.48,0.45,0.52,0.74c-0.27,0.25-0.43-0.04-0.64-0.11c-0.53-0.03-1.02,0.23-1.4,0.48
				c-0.1,0.01-0.09,0.12,0.03,0.21c0.14,0.28,0.3,0.57,0.44,0.86c0.4-0.17,0.9-0.33,0.94-0.74c0.09-0.11,0.09-0.11,0.19-0.12
				c0.24,0.18,0.14,0.29,0.27,0.37c0.13,0.18,0.26,0.38,0.18,0.58c-0.22,0.03-0.47-0.35-0.76-0.1c-0.19,0.12-0.39,0.15-0.58,0.37
				c0.16,0.39,0.34,0.87,0.7,1.23c0.44,0.14,1.23-0.26,1.36-0.78c0.07-0.22-0.08-0.59,0.1-0.73c0.11-0.01,0.24,0.18,0.24,0.18
				C68.06,87.16,68.24,87.74,67.85,87.98L67.85,87.98z"/>
			<path class="st16" d="M63.69,89.96c-0.2,0.12-0.49,0.26-0.7,0.29c-0.11-0.08-0.03-0.19,0.07-0.31c0.01-0.72-0.92-2.01-1.45-2.95
				c-0.22,0.03-0.59,0.37-0.66,0.59c-0.07,0.2,0.05,0.39-0.12,0.62c-0.31,0.04-0.27-0.37-0.38-0.46c-0.03-0.21-0.14-0.29-0.16-0.39
				c-0.03-0.19,2.14-1.19,2.93-1.59c0.3-0.15,0.35,0.25,0.47,0.33c0.13,0.2,0.35,0.36,0.18,0.6c-0.31,0.04-0.34-0.17-0.56-0.24
				c-0.23-0.17-0.63-0.02-0.83,0.11c-0.2,0.03-0.07,0.21-0.07,0.21c0.32,0.77,0.88,1.82,1.39,2.47c0.13,0.18,0.44,0.14,0.57,0.32
				C64.29,89.78,63.97,89.82,63.69,89.96L63.69,89.96z"/>
			<path class="st16" d="M61.01,91.15c-1.13-0.57-2.16-1.24-3.29-1.81l0,0c0.44,0.86,0.66,1.74,1.49,2.34
				c0.03,0.21,0.31,0.07,0.24,0.28c-0.09,0.11-0.4,0.15-0.49,0.26c-0.32,0.04-0.47,0.37-0.62,0.08c0.19-0.83-0.43-1.56-0.74-2.32
				c-0.14-0.29-0.28-0.58-0.42-0.76c-0.4,0.05-0.55,0.57-0.6,0.89c-0.09,0.11-0.33-0.07-0.43-0.06c-0.13-0.18-0.35-0.35-0.65-0.21
				c-0.3,0.14-0.59,0.27-0.89,0.41c0.16,0.39,0.33,0.77,0.58,1.15c0.01,0.1,0.1-0.01,0.1-0.01c0.4-0.15,0.7-0.3,0.76-0.61l0.1-0.01
				c0.23,0.17,0.37,0.36,0.51,0.64c-0.22,0.03-0.33-0.06-0.43-0.04c-0.3,0.14-0.6,0.18-0.89,0.42c0.15,0.37,0.43,0.84,0.69,1.22
				c0.13,0.2,0.43,0.04,0.74,0c0.59-0.27,0.81-0.91,0.73-1.5c0.11-0.01,0.2-0.14,0.22-0.03c0.24,0.27,0.28,0.57,0.42,0.85
				c0.03,0.21,0.16,0.29-0.06,0.32c-0.78,0.41-1.38,0.68-2.15,1.09c-0.21,0.03-0.3,0.14-0.49,0.26c-0.12-0.08-0.1,0.01-0.12-0.08
				c-0.11,0.01-0.01-0.1-0.03-0.21c0.11-0.72-0.28-1.17-0.71-2.13c-0.13-0.18-0.57-1.04-0.88-1c-0.1,0.01-0.09,0.11-0.07,0.21
				l0.03,0.21c-0.12-0.1-0.32-0.07-0.52,0.07c0.01,0.1,0.01,0.1,0.01,0.1c0.06,0.4,0.21,0.78,0.48,1.15
				c0.38,0.55,0.61,1.34,1.29,1.76c0.11,0.09,0.01,0.1-0.07,0.21c-0.3,0.15-0.71,0.2-0.99,0.44c-0.24-0.17-0.06-0.4-0.08-0.59
				c-0.06-0.4-0.21-0.69-0.47-1.05c-0.17-0.49-0.31-0.78-0.59-1.25c-0.07,0.21-0.14,0.43-0.1,0.72c0,0.72-0.02,1.42,0.09,2.23
				c0,0-0.1,0.01-0.09,0.11c-0.1,0.01-0.21-0.07-0.23-0.17c-0.69-0.42-1.67-1.42-2.45-1.83c0,0,0.04,0.31,0.14,0.29
				c0.41,0.76,0.62,1.44,1.12,2.08c0.14,0.19,0.35,0.27,0.57,0.34c-0.1,0.01,0.01,0.1-0.09,0.11c-0.19,0.14-0.29,0.15-0.49,0.27
				c-0.2,0.03-0.48,0.36-0.6,0.18c0.24-0.54-0.16-1.19-0.32-1.58c-0.3-0.57-0.57-1.04-0.85-1.62l-0.11,0.01
				c-0.19,0.14-0.15,0.43-0.21,0.75c-0.09,0.11-0.09,0.11-0.2,0.12c-0.03-0.19-0.07-0.5,0.02-0.71c-0.04-0.3,0.12-0.63,0.42-0.77
				c0.29-0.14,0.79-0.3,1.04-0.03c0.7,0.53,1.19,1.07,1.88,1.49l0.08-0.11c-0.1-0.71-0.09-1.41-0.07-2.02
				c-0.04-0.3,0.03-0.62,0.41-0.87c0.1-0.11,0.4-0.15,0.63-0.08c0.09-0.11,0.26-0.34,0.36-0.35c0.79-0.4,1.46-0.79,2.26-1.09
				l0.1-0.01c0.13,0.18,0.15,0.39,0.37,0.36c0.07-0.22,0.05-0.41,0.22-0.65c0.28-0.33,0.88-0.51,1.33-0.27
				c0.76,0.21,2.16,1.24,2.71,1.38c-0.3-0.58-0.57-1.05-0.84-1.52c-0.24-0.17-0.5-0.54-0.82-0.6c-0.1,0.01-0.11-0.08-0.11-0.08
				c0.4-0.15,0.79-0.41,1.18-0.56c0.23,0.07-0.06,0.32-0.03,0.51c0.21,0.79,0.62,1.44,0.91,2.11c0.26,0.28,0.42,0.67,0.55,0.94
				C61.61,90.97,61.12,91.23,61.01,91.15L61.01,91.15z"/>
		</g>
		<g>
			<path d="M37.92,17.82c0,0.42-0.4,0.67-0.81,0.67c-0.34,0-0.63-0.17-0.79-0.35c-0.02-0.02-0.02-0.05,0-0.07l0.2-0.21
				c0.02-0.02,0.05-0.03,0.07,0c0.16,0.14,0.32,0.22,0.52,0.22c0.2,0,0.35-0.1,0.35-0.26c0-0.4-1.1-0.28-1.1-1.01
				c0-0.39,0.34-0.63,0.73-0.63c0.29,0,0.53,0.12,0.71,0.3c0.02,0.02,0.02,0.04,0,0.07l-0.18,0.22c-0.02,0.03-0.04,0.03-0.07,0.01
				c-0.16-0.12-0.28-0.18-0.45-0.18c-0.19,0-0.3,0.1-0.3,0.23C36.81,17.2,37.92,17.04,37.92,17.82z"/>
			<path d="M40.51,18.09c0.02,0.02,0.02,0.05,0,0.07c-0.21,0.2-0.49,0.32-0.81,0.32c-0.67,0-1.2-0.51-1.2-1.16
				c0-0.65,0.53-1.16,1.2-1.16c0.32,0,0.61,0.13,0.81,0.32c0.02,0.02,0.02,0.05,0,0.07l-0.22,0.23c-0.02,0.02-0.05,0.02-0.07,0
				c-0.14-0.12-0.31-0.19-0.53-0.19c-0.41,0-0.73,0.31-0.73,0.73c0,0.41,0.32,0.73,0.73,0.73c0.21,0,0.39-0.07,0.53-0.19
				c0.02-0.02,0.05-0.02,0.07,0L40.51,18.09z"/>
			<path d="M41.26,16.19h0.36c0.03,0,0.05,0.02,0.05,0.05v2.15c0,0.03-0.02,0.05-0.05,0.05h-0.36c-0.03,0-0.05-0.02-0.05-0.05v-2.15
				C41.21,16.21,41.23,16.19,41.26,16.19z"/>
			<path d="M43.82,18.1v0.29c0,0.03-0.02,0.05-0.05,0.05h-1.23c-0.03,0-0.05-0.02-0.05-0.05v-2.15c0-0.03,0.02-0.05,0.05-0.05h1.22
				c0.03,0,0.05,0.02,0.05,0.05v0.29c0,0.03-0.02,0.05-0.05,0.05h-0.82v0.51h0.77c0.03,0,0.05,0.02,0.05,0.05v0.29
				c0,0.03-0.02,0.05-0.05,0.05h-0.77v0.58h0.82C43.8,18.05,43.82,18.07,43.82,18.1z"/>
			<path d="M46.49,16.24v2.15c0,0.03-0.02,0.05-0.05,0.05h-0.41c-0.03,0-0.05-0.01-0.06-0.03l-0.89-1.53v1.51
				c0,0.03-0.02,0.05-0.05,0.05h-0.36c-0.03,0-0.05-0.02-0.05-0.05v-2.15c0-0.03,0.02-0.05,0.05-0.05h0.41
				c0.03,0,0.05,0.01,0.06,0.03l0.9,1.53v-1.51c0-0.03,0.02-0.05,0.05-0.05h0.36C46.47,16.19,46.49,16.21,46.49,16.24z"/>
			<path d="M48.7,16.24v0.29c0,0.03-0.02,0.05-0.05,0.05h-0.5v1.81c0,0.03-0.02,0.05-0.05,0.05h-0.36c-0.03,0-0.05-0.02-0.05-0.05
				v-1.81h-0.51c-0.03,0-0.05-0.02-0.05-0.05v-0.29c0-0.03,0.02-0.05,0.05-0.05h1.46C48.68,16.19,48.7,16.21,48.7,16.24z"/>
			<path d="M49.4,16.19h0.36c0.03,0,0.05,0.02,0.05,0.05v2.15c0,0.03-0.02,0.05-0.05,0.05H49.4c-0.03,0-0.05-0.02-0.05-0.05v-2.15
				C49.35,16.21,49.37,16.19,49.4,16.19z"/>
			<path d="M52.46,18.44h-0.37c-0.03,0-0.05-0.01-0.06-0.04l-0.14-0.39h-0.87l-0.14,0.39c-0.01,0.03-0.03,0.04-0.06,0.04h-0.37
				c-0.04,0-0.05-0.02-0.04-0.05l0.81-2.16c0.01-0.03,0.03-0.04,0.06-0.04h0.33c0.03,0,0.05,0.01,0.06,0.04l0.81,2.16
				C52.51,18.42,52.49,18.44,52.46,18.44z M51.77,17.64l-0.31-0.88l-0.31,0.88H51.77z"/>
		</g>
		<g>
			<path class="st0" d="M44.4,37.18l-0.7-1.73l-1.76,0.74l0.77-1.7l-1.79-0.68l1.79-0.68l-0.77-1.7l1.76,0.74l0.7-1.73l0.7,1.73
				l1.76-0.74l-0.77,1.7l1.79,0.68L46.1,34.5l0.77,1.7l-1.76-0.74L44.4,37.18L44.4,37.18z"/>
		</g>
		<g>
			<path class="st0" d="M44.36,76.91l-0.7-1.73l-1.76,0.74l0.77-1.7l-1.79-0.68l1.79-0.68l-0.77-1.7l1.76,0.74l0.7-1.73l0.7,1.73
				l1.76-0.74l-0.77,1.7l1.79,0.68l-1.79,0.68l0.77,1.7l-1.76-0.74L44.36,76.91L44.36,76.91z"/>
		</g>
		<g>
			<path class="st0" d="M66.47,57.68l-0.7-1.73L64,56.7l0.77-1.7l-1.79-0.68l1.79-0.68L64,51.94l1.76,0.74l0.7-1.73l0.7,1.73
				l1.76-0.74l-0.77,1.7l1.79,0.68L68.16,55l0.77,1.7l-1.76-0.74L66.47,57.68L66.47,57.68z"/>
		</g>
		<g>
			<path class="st0" d="M22.47,57.68l-0.7-1.73l-1.76,0.74l0.77-1.7l-1.79-0.68l1.79-0.68l-0.77-1.7l1.76,0.74l0.7-1.73l0.7,1.73
				l1.76-0.74l-0.77,1.7l1.79,0.68L24.16,55l0.77,1.7l-1.76-0.74L22.47,57.68L22.47,57.68z"/>
		</g>
	</g>
	<g>
		<g>
			<path d="M122.44,47.49c-0.05,10.77-5.41,16.18-15.24,16.18c-9.72,0-15.4-4.37-15.4-14.39c0-4.46,0-6.98,0-10.18
				c0-5.67-0.63-10.29-0.84-12.71c1.15,0.16,3.05,0.26,4.15,0.26c1.11,0,2.26-0.1,3.31-0.26c-0.52,4.99-0.68,11.66-0.68,18.59
				c0,9.98,1.83,15.65,11.08,15.65c9.99,0,10.25-9.92,10.25-18.11c0-7.41-0.06-12.65-0.37-16.12c0.79,0.16,1.63,0.26,2.42,0.26
				c0.73,0,1.42-0.1,2.1-0.26C122.86,30.37,122.49,39.14,122.44,47.49"/>
			<path d="M156.67,44.2c-0.11,5.61-0.05,14.16,0,19.16c-0.37-0.11-0.89-0.16-1.25-0.16c-0.37,0-0.89,0.05-1.2,0.16
				c-7.62-8.99-16.25-18.27-24.77-27.29c-0.11,2.94-0.16,6.71-0.16,11.43c0,6.45,0.21,13.48,0.42,15.49
				c-0.73-0.16-1.47-0.27-2.14-0.27c-0.73,0-1.46,0.11-2.2,0.27c0.37-2.01,1.1-15.49,1.1-24.29c0-5.67-0.11-9.81-0.21-12.22
				c0.36,0.05,0.99,0.1,1.36,0.1c0.41,0,0.99-0.05,1.41-0.1c8.05,8.81,17.62,19.24,24.72,26.64c0-8.86,0-21.08-0.42-26.32
				c0.68,0.16,1.41,0.26,2.09,0.26c0.68,0,1.3-0.1,1.99-0.26C157.09,31.88,156.72,39.69,156.67,44.2"/>
			<path d="M169.96,63.86c-4.57,0-9.3-2.21-11.56-3.84c0.89-0.73,1.26-0.94,2.26-2.26c0.73-1,1.21-2.63,1.21-2.63
				c0.94,2.78,3.78,5.52,8.88,5.52c5.1,0,8.67-3.84,8.67-7.42c0-8.84-19.34-4.79-19.34-16.94c0-6.58,5.78-10.21,13.46-10.21
				c4.1,0,7.52,1.29,9.94,2.89c-1.11,0.9-1.26,0.95-1.95,1.95c-0.52,0.79-1.15,2.47-1.15,2.47c-1-2.47-3.16-4.74-7.25-4.74
				c-4.15,0-7.1,2.58-7.1,5.79c0,8.79,20.09,5.26,20.03,16.68C185.99,60.13,179.57,63.86,169.96,63.86"/>
			<path d="M222.87,63.04c-0.73-0.1-1.47-0.26-2.16-0.26c-0.73,0-1.47,0.16-2.2,0.26c-2.52-9.19-5.41-18.43-8.62-27.93h-0.11
				c-1.95,5.99-6.62,19.32-9.19,27.93c-0.74-0.1-1.42-0.26-2.21-0.26c-0.68,0-1.47,0.16-2.16,0.26c-1.47-5.66-3.63-13.96-6.36-22.89
				c-0.84-2.83-3.94-11.39-4.78-13.33c1.16,0.16,2.89,0.26,4,0.26c1.1,0,2.21-0.1,3.31-0.26c2.32,9.82,4.68,18.48,7.67,28.83h0.1
				c2.37-7.3,7.83-23.68,9.14-28.83c0.68,0.16,1.37,0.26,2.1,0.26c0.68,0,1.37-0.1,2.05-0.26c1.21,5.2,7.04,22.63,8.82,28.83h0.11
				c2.05-6.78,7.31-24.47,8.25-28.83c0.63,0.16,1.32,0.26,1.95,0.26c0.68,0,1.31-0.1,2.05-0.26
				C232.96,31.33,225.34,54.48,222.87,63.04"/>
		</g>
		<g>
			<path d="M127.21,73.12c-0.31-0.19-0.66-0.36-1.03-0.5c-0.32-0.12-0.64-0.26-0.93-0.42c-0.27-0.15-0.49-0.32-0.67-0.53
				c-0.15-0.18-0.23-0.45-0.23-0.79c0-0.2,0.03-0.38,0.1-0.55c0.07-0.17,0.16-0.3,0.28-0.42c0.12-0.12,0.26-0.21,0.43-0.27
				c0.31-0.12,0.77-0.13,1.03,0c0.14,0.07,0.26,0.15,0.36,0.25c0.1,0.1,0.18,0.21,0.24,0.32c0.07,0.13,0.12,0.26,0.16,0.37
				l0.07,0.21h0.63l0.05-0.25c0.05-0.25,0.1-0.45,0.15-0.61c0.05-0.15,0.1-0.29,0.17-0.43l0.11-0.22l-0.19-0.16
				c-0.28-0.23-0.6-0.41-0.94-0.53c-0.68-0.23-1.7-0.23-2.43,0.04c-0.38,0.14-0.71,0.33-0.98,0.58c-0.28,0.25-0.49,0.55-0.64,0.9
				c-0.14,0.34-0.22,0.72-0.22,1.13c0,0.58,0.12,1.06,0.35,1.42c0.22,0.34,0.51,0.63,0.84,0.85c0.32,0.21,0.67,0.39,1.03,0.53
				c0.33,0.13,0.65,0.27,0.94,0.42c0.27,0.14,0.49,0.31,0.66,0.52c0.15,0.18,0.23,0.44,0.23,0.77c0,0.23-0.04,0.44-0.11,0.64
				c-0.07,0.19-0.17,0.36-0.31,0.51c-0.13,0.14-0.29,0.25-0.48,0.34c-0.38,0.17-0.9,0.16-1.28,0.02c-0.19-0.07-0.36-0.16-0.5-0.28
				c-0.14-0.11-0.27-0.24-0.37-0.38c-0.1-0.15-0.19-0.29-0.24-0.43l-0.08-0.19h-0.64l-0.03,0.28c-0.02,0.25-0.05,0.45-0.08,0.6
				c-0.03,0.15-0.08,0.31-0.15,0.5l-0.08,0.21l0.17,0.14c0.25,0.2,0.54,0.38,0.91,0.54c0.37,0.16,0.84,0.24,1.42,0.24
				c0.53,0,1.02-0.08,1.44-0.24c0.43-0.16,0.8-0.4,1.1-0.69c0.3-0.3,0.53-0.65,0.69-1.06c0.15-0.4,0.23-0.82,0.23-1.27
				c0-0.55-0.12-1-0.36-1.34C127.83,73.6,127.55,73.33,127.21,73.12z"/>
			<path d="M141.78,68.62l-0.24-0.05l-0.1,0.23c-0.17,0.38-0.35,0.77-0.55,1.16c-0.2,0.4-0.4,0.8-0.61,1.19
				c-0.21,0.4-0.43,0.78-0.64,1.16c-0.12,0.2-0.23,0.4-0.34,0.58c-0.35-0.64-0.69-1.26-1.01-1.85c-0.4-0.74-0.79-1.5-1.18-2.26
				l-0.1-0.2l-0.56,0.08c-0.21,0.02-0.44,0.02-0.64,0l-1-0.14l0.34,0.56c0.09,0.14,0.21,0.35,0.37,0.62l2.38,4.1
				c0.14,0.24,0.25,0.44,0.34,0.58c0,0.69,0,1.34-0.01,1.97c-0.01,0.64-0.04,1.19-0.09,1.64l-0.04,0.38l0.38-0.03
				c0.38-0.03,0.83-0.03,1.21,0l0.37,0.03l-0.03-0.37c-0.02-0.18-0.03-0.42-0.04-0.72c-0.01-0.3-0.02-0.63-0.03-0.99
				c-0.01-0.36-0.02-0.72-0.02-1.09c0-0.34-0.01-0.67-0.01-0.97c0.13-0.25,0.28-0.54,0.45-0.85c0.19-0.34,0.41-0.72,0.66-1.14
				c0.25-0.42,0.53-0.89,0.86-1.41c0.33-0.52,0.69-1.1,1.11-1.75l0.4-0.62l-0.72,0.15C142.19,68.72,142.26,68.72,141.78,68.62z"/>
			<path d="M158,69.89L158,69.89c-0.38-0.41-0.86-0.73-1.44-0.95c-0.81-0.31-1.93-0.36-3.05-0.29c-0.63,0.05-1.28,0.04-1.91,0.01
				c-0.32-0.01-0.65-0.03-0.97-0.05l-0.34-0.02l0.09,2.06c0.02,0.56,0.03,1.13,0.03,1.71v2.28c0,0.58-0.01,1.15-0.03,1.71
				c-0.02,0.57-0.05,1.12-0.07,1.67l-0.02,0.34l0.34-0.02c0.29-0.02,0.57-0.03,0.84-0.03h0.86c0.29,0,0.57,0,0.85,0.01
				c0.8,0.02,1.65,0.02,2.55-0.23c0.59-0.16,1.14-0.45,1.63-0.85c0.49-0.4,0.9-0.93,1.22-1.57c0.32-0.65,0.48-1.44,0.48-2.37
				c0-0.71-0.08-1.35-0.25-1.92C158.66,70.81,158.38,70.3,158,69.89z M156.87,75.34c-0.22,0.51-0.5,0.91-0.83,1.19
				c-0.33,0.29-0.72,0.48-1.14,0.58c-0.76,0.19-1.55,0.18-2.28,0.13c-0.18-0.01-0.33-0.03-0.46-0.05c-0.04-0.83-0.06-1.69-0.06-2.55
				v-2.28c0-0.47,0.01-0.94,0.02-1.4c0.01-0.37,0.02-0.72,0.04-1.07c0.19-0.02,0.41-0.04,0.63-0.06c0.76-0.06,1.72-0.06,2.45,0.12
				c0.4,0.1,0.74,0.27,1.02,0.53c0.28,0.25,0.51,0.61,0.68,1.05c0.17,0.46,0.26,1.06,0.26,1.79
				C157.2,74.15,157.09,74.83,156.87,75.34z"/>
			<path d="M174.4,68.68c-0.1,0-0.22-0.02-0.36-0.06l-0.41-0.11l0.02,0.42c0.04,0.78,0.07,1.6,0.08,2.48
				c0.01,0.88,0.02,1.78,0.02,2.71v1.03c-0.26-0.28-0.54-0.58-0.85-0.92l-1.68-1.84c-0.59-0.65-1.18-1.31-1.78-1.98l-1.77-1.98
				h-0.67l0.02,0.33c0.02,0.3,0.03,0.75,0.03,1.35c0,0.61,0.01,1.34,0.01,2.19c0,0.29,0,0.62-0.01,0.99l-0.03,1.14
				c-0.01,0.39-0.03,0.77-0.05,1.16l-0.06,1.08c-0.02,0.33-0.04,0.61-0.06,0.85c-0.02,0.22-0.04,0.38-0.05,0.46l-0.08,0.42
				l0.42-0.05c0.26-0.03,0.59-0.04,0.85,0l0.4,0.05l-0.05-0.4c-0.01-0.07-0.02-0.19-0.02-0.38l-0.05-1.55
				c-0.01-0.31-0.01-0.61-0.02-0.91l-0.01-0.86c0-0.27-0.01-0.5-0.01-0.69c0-0.71,0-1.28,0.01-1.69c0-0.08,0-0.16,0-0.23
				c0.95,1.03,1.89,2.07,2.84,3.12c1.11,1.23,2.17,2.44,3.15,3.61l0.09,0.11h0.63v-0.75c0-0.21,0-0.47-0.01-0.75l-0.03-1.92
				c-0.01-0.32-0.01-0.64-0.01-0.94v-0.8c0-0.25,0.01-0.59,0.02-1.01c0.02-0.42,0.04-0.86,0.06-1.3c0.02-0.44,0.04-0.86,0.07-1.25
				c0.02-0.39,0.04-0.67,0.06-0.87l0.04-0.44l-0.42,0.11C174.55,68.68,174.44,68.68,174.4,68.68z"/>
			<path d="M188.55,77.37l0.13-0.49l-0.49,0.11c-0.19,0.04-0.42,0.07-0.69,0.09c-0.28,0.02-0.57,0.04-0.88,0.05
				c-0.31,0.01-0.62,0.02-0.95,0.02h-0.61c0-0.13-0.01-0.27-0.01-0.44c0-0.33-0.01-0.74-0.01-1.24v-1.31c0-0.12,0-0.22,0-0.3
				c0.1,0,0.2,0,0.32,0l0.84,0.01c0.29,0,0.58,0.02,0.88,0.03c0.29,0.02,0.54,0.04,0.76,0.06l0.42,0.05l-0.08-0.42
				c-0.02-0.11-0.03-0.23-0.03-0.34c0-0.12,0.01-0.24,0.03-0.35l0.08-0.4l-0.41,0.04c-0.19,0.02-0.38,0.03-0.59,0.05l-0.69,0.04
				c-0.25,0.01-0.52,0.02-0.82,0.03c-0.21,0.01-0.45,0.01-0.7,0.01c0-0.13,0-0.27,0-0.44c0-0.33-0.01-0.66-0.01-1
				c0-0.32,0.01-0.61,0.02-0.86c0.01-0.17,0.02-0.34,0.02-0.52c0.29,0,0.55,0.01,0.77,0.02c0.3,0.01,0.57,0.03,0.82,0.05l0.72,0.05
				c0.23,0.02,0.48,0.04,0.76,0.05l0.4,0.02l-0.08-0.39c-0.02-0.11-0.03-0.23-0.03-0.34c0-0.11,0.01-0.22,0.03-0.34l0.08-0.39
				l-1.54,0.06c-0.75,0.02-1.52,0.02-2.28,0c-0.38-0.01-0.77-0.03-1.15-0.05l-0.34-0.02l0.02,0.34c0.03,0.57,0.05,1.13,0.07,1.7
				c0.02,0.56,0.03,1.13,0.03,1.71v2.28c0,0.58-0.01,1.15-0.03,1.71c-0.02,0.56-0.05,1.12-0.07,1.69l-0.02,0.34l0.34-0.02
				c0.39-0.02,0.78-0.03,1.16-0.03h2.34c0.38,0,0.76,0.01,1.14,0.03l0.43,0.02l-0.12-0.41c-0.01-0.04-0.03-0.12-0.03-0.26
				c0-0.06,0-0.12,0.01-0.19C188.53,77.46,188.54,77.41,188.55,77.37z"/>
			<path d="M202.85,68.62c-0.47,0.1-0.41,0.1-0.88,0l-0.24-0.05l-0.1,0.23c-0.17,0.38-0.35,0.77-0.55,1.16
				c-0.2,0.4-0.4,0.8-0.61,1.19c-0.21,0.4-0.43,0.78-0.64,1.16c-0.12,0.2-0.23,0.4-0.34,0.58c-0.35-0.64-0.69-1.25-1.01-1.85
				c-0.4-0.74-0.79-1.5-1.18-2.26l-0.1-0.2l-0.56,0.08c-0.21,0.02-0.44,0.02-0.64,0l-1-0.14l0.34,0.56
				c0.09,0.14,0.21,0.35,0.37,0.63l2.38,4.1c0.14,0.24,0.25,0.44,0.34,0.58c0,0.68,0,1.34-0.01,1.97c-0.01,0.64-0.04,1.19-0.09,1.64
				l-0.04,0.38l0.38-0.03c0.38-0.04,0.83-0.04,1.21,0l0.37,0.03l-0.03-0.37c-0.02-0.18-0.03-0.42-0.04-0.72
				c-0.01-0.3-0.02-0.63-0.03-0.99c-0.01-0.36-0.02-0.72-0.02-1.09c0-0.34-0.01-0.67-0.01-0.97c0.13-0.25,0.28-0.54,0.45-0.85
				c0.19-0.34,0.41-0.72,0.66-1.14c0.25-0.42,0.53-0.89,0.86-1.41c0.33-0.52,0.69-1.1,1.11-1.75l0.4-0.62L202.85,68.62z"/>
		</g>
	</g>
</g>
<g id="Layer_2">
</g>
</svg>
