<svg xmlns="http://www.w3.org/2000/svg" role="img" viewBox="-12.61 -12.61 655.72 156.22"><title>University of Wolverhampton logo</title><path fill="#264d87" d="M184.39539 8.36967v10.606c0 3.62858 1.3533 5.53066 4.47989 5.53066 3.27592 0 4.37856-2.60206 4.37856-5.1056V8.36967h2.27594V19.4538c0 3.92497-2.4266 6.7285-6.6545 6.7285-4.93188 0-6.90783-2.6046-6.90783-7.10609V8.36967h2.42794m31.67787 17.5105h-1.90128c-3.80524-4.55189-10.3344-12.4069-11.38772-13.93499h-.04666v13.93499h-2.00395V8.36967h1.80395c3.85457 4.55042 10.30375 12.20863 11.48638 13.95965h.04667V8.36967h2.00261v17.5105m5.4532 0h2.42702V8.36967h-2.42702zm12.13437 0L227.18099 8.5682l2.4786-.45106c1.69863 4.78002 3.37458 9.58616 5.05454 14.96216h.048c1.75062-5.376 3.55325-10.18214 5.33053-14.96216l2.17462.3-6.97716 17.46303h-1.6293m20.46883-15.76054h-6.20785v5.65452h6.07985v1.75103h-6.07985v6.6045h7.28115v1.75049h-9.70775V8.36967h8.63445v1.74996m7.47848 0h2.08128c1.62262 0 2.97192.82864 2.97192 2.97606 0 1.47756-.57198 3.78004-3.6759 3.78004h-1.3773zm-2.42528 15.76054h2.42528v-7.25449h2.5786l4.05323 7.55661 2.44927-.75051-4.35056-7.45915c1.67863-1.07344 2.92393-2.52447 2.92393-5.09934 0-3.02912-2.22394-4.50362-5.07587-4.50362h-5.00388v17.5105m23.36875-14.8115c-.85064-.62558-1.97461-1.2485-3.02526-1.2485-1.75328 0-2.72926 1.02757-2.72926 2.377 0 1.25157 1.0773 2.17342 3.32925 3.80311 2.4026 1.75102 3.79857 3.35298 3.79857 5.60453 0 2.777-2.62527 4.57748-5.4252 4.57748-1.67595 0-3.67857-.60212-4.93054-1.82755l1.07597-1.4505c1.02664.72652 2.15195 1.5245 3.7999 1.5245 1.72797 0 3.05727-.92185 3.05727-2.87753 0-2.19795-2.62927-3.62604-4.0559-4.67548-1.45197-1.12758-3.07726-2.20462-3.07726-4.67855 0-2.35301 2.27861-4.13003 5.0052-4.13003 1.82396 0 3.35326.65251 4.32923 1.75302l-1.15197 1.2485m6.05585 14.8115h2.4265V8.36967h-2.4265zm11.50905 0V10.11963h-5.6052V8.36967h13.65966v1.74996h-5.62786v15.76054h-2.4266m14.63563 0v-7.57741l-5.27853-9.68363 2.62926-.50199 4.2279 8.30753 4.60122-8.30753 2.15328.3-5.90652 9.88562v7.5774h-2.4266m27.89663-1.45142c-4.52656 0-6.07718-4.17697-6.07718-7.60355 0-3.27432 1.74929-7.00502 6.07718-7.00502 4.32922 0 6.08384 3.7307 6.08384 7.00502 0 3.42658-1.55196 7.60355-6.08384 7.60355zm0 1.75355c5.40653 0 8.75978-4.1259 8.75978-9.3571 0-4.904-3.70391-8.75804-8.75978-8.75804-5.05188 0-8.75712 3.85403-8.75712 8.75804 0 5.2312 3.35459 9.3571 8.75712 9.3571m21.94345-16.06266h-6.20251v6.65556h6.07718v1.7489h-6.07718v7.35608h-2.42794V8.36967h8.63045v1.74996M118.8621 94.52698l47.33908 36.68602V.00535H72.57885V131.213l46.28325-36.68602"/><path fill="#264d87" fill-rule="evenodd" d="M68.39776 36.4831c-4.31083 4.44616-14.99123 17.16677-20.62655 21.33014-2.27808 1.68702-4.63482 1.92501-8.64099 1.3261-5.35186-.80478-10.58507-14.54444-13.5918-23.25516-3.00205-8.71231-6.0077-33.04397-6.0077-33.04397L.00781 18.4606s-.0849 1.22491.30207 3.30513C2.85879 35.58419 4.9629 43.2412 9.91694 52.7071c6.49052 12.37995 12.2185 20.37815 21.52547 20.72868 11.2024.41665 17.20744-7.32849 23.50155-15.39642 5.44306-6.97129 12.3465-18.80326 17.6349-25.40043v-.58852c-1.3661 1.47703-2.7666 2.97486-4.1811 4.4327"/><path fill="#f3b22b" fill-rule="evenodd" d="M87.34622 44.49063c3.29471 7.1493 7.8894 14.82417 7.8894 14.82417 6.00505 7.51234 9.20964 11.81797 18.62087 12.91527 13.11007 1.53743 20.73215-10.81173 25.5347-17.41876 3.4839-4.79055 18.6982-35.61324 26.80999-47.06816V3.38806c-6.90916 8.00767-28.3273 44.85875-33.41757 50.22061-5.70865 6.00505-10.3132 7.30875-17.1225-.30212-5.3888-6.02585-11.64344-18.35154-15.69588-28.97888-3.51137-9.22577-11.9565-5.74519-15.26161-3.84364-2.5754 1.48117-7.30449 6.36225-12.12477 11.56638v.58852c1.3261-1.24583 1.91569-2.27914 3.22859-2.82126 6.15198-2.52714 6.70143 4.1743 11.53878 14.67296"/><path fill="#264d87" d="M207.08149 37.60027c2.8826 9.55856 5.77052 19.11513 8.60245 29.88979h.09867c2.88126-10.92573 5.76785-20.68642 8.70244-30.39497l3.94124.70665-10.97306 35.20232h-4.3519c-2.83059-9.4071-5.61585-18.8126-8.39578-29.2342h-.1c-2.78126 10.4216-5.66252 19.8271-8.49579 29.2342h-4.35055l-10.41974-34.8986 4.65455-1.01037c2.77993 9.70855 5.5612 19.46924 8.29446 30.39497h.1c2.83459-10.77466 5.76652-20.33123 8.64778-29.88979h4.04523m42.38294 32.46893c-9.1491 0-12.28636-8.44566-12.28636-15.37562 0-6.6249 3.54125-14.15805 12.28636-14.15805 8.75178 0 12.2917 7.53315 12.2917 14.15805 0 6.92996-3.13593 15.37562-12.2917 15.37562zm0 3.5411c10.92906 0 17.7049-8.34405 17.7049-18.91672 0-9.91335-7.48249-17.69956-17.7049-17.69956-10.21574 0-17.69956 7.7862-17.69956 17.69956 0 10.57267 6.77717 18.91673 17.69956 18.91673m25.39003-36.01004h4.90788v31.86267h14.71963v3.54112h-19.6275V37.60027m31.9272 35.40379L293.68065 38.0044l5.00787-.90931c3.43725 9.66122 6.83183 19.36818 10.21708 30.24404h.1c3.54124-10.87586 7.18249-20.58282 10.77173-30.24404l4.40256.60625-14.11299 35.30272h-3.28525M346.634 41.14179h-12.54102v11.4273h12.29036v3.54005h-12.29036v13.3538h14.71563v3.54112h-19.62084V37.60027H346.634v3.54152m13.60766 0h4.19723c3.28792 0 6.01718 1.66555 6.01718 6.01704 0 2.98326-1.15997 7.63888-7.43581 7.63888h-2.7786zm-4.90521 31.86227h4.90521v-14.6695h5.21054l8.19046 15.27575 4.95987-1.51823-8.80244-15.0731c3.38925-2.17434 5.91718-5.10613 5.91718-10.31693 0-6.11958-4.50388-9.10178-10.26507-9.10178h-10.11575v35.40379m56.2386 0h-4.90388V55.40343h-17.29824v17.60063h-4.90788V37.60027h4.90788v14.26205h17.29824V37.60027h4.90387v35.40379m14.9703-13.96166c1.92395-4.90507 3.7959-9.80855 5.61719-16.1808h.10133c1.76929 6.37225 3.48925 11.27573 5.25987 16.1808zm4.50255-21.44213l-14.41697 35.40379h4.75988l3.7919-10.42161h13.50233l3.64258 10.4216h5.66652L434.7918 37.60028h-3.74391m60.44249 35.40379h-4.90921V44.17398h-.09733c-1.4173 4.1463-9.45843 19.7787-14.21431 28.83008h-1.97462c-4.39856-9.05138-11.7317-24.1786-13.09567-28.83008h-.104v28.83008h-4.04257V37.60027h5.25987c4.54655 9.4075 9.1011 18.863 13.60366 28.82995 5.00388-9.96695 10.01308-19.42245 14.97163-28.82995h4.60255v35.40379m14.41297 0h-4.90654V37.60027h8.90378c7.48248 0 12.0877 3.33472 12.0877 10.21641 0 5.96799-5.10921 11.37679-13.04901 11.37679h-1.5693v-3.23539l1.62263-.04626c4.75188-.25626 7.7358-2.78753 7.7358-8.04514 0-3.8947-2.17594-6.7249-7.43314-6.7249h-3.39192v31.86228m30.59924 0V41.14179H525.1722v-3.54152h27.61798v3.54152h-11.38372v31.86227h-4.90387m37.67906-2.93486c-9.15178 0-12.2877-8.44566-12.2877-15.37562 0-6.6249 3.53991-14.15805 12.2877-14.15805 8.74911 0 12.28902 7.53315 12.28902 14.15805 0 6.92996-3.13192 15.37562-12.28902 15.37562zm0 3.5411c10.92639 0 17.70355-8.34405 17.70355-18.91672 0-9.91335-7.48381-17.69956-17.70355-17.69956-10.21575 0-17.70223 7.7862-17.70223 17.69956 0 10.57267 6.77716 18.91673 17.70223 18.91673m56.39459-.60625H626.731c-7.68514-9.20244-20.88748-25.08631-23.01276-28.17383h-.1v28.17383h-4.0479V37.60027h3.64391c7.78914 9.20337 20.83815 24.68005 23.21142 28.22423h.104V37.60027h4.04657v35.40379"/></svg>