<?xml version="1.0" encoding="UTF-8"?>
<svg version="1.1" xmlns="http://www.w3.org/2000/svg" width="1280" height="384">
<path d="M0 0 C0.7225288 -0.00367669 1.44505759 -0.00735338 2.1894812 -0.01114148 C4.6112676 -0.02215684 7.03301105 -0.02601854 9.45481873 -0.02983093 C11.1912347 -0.03609733 12.92764933 -0.04274429 14.6640625 -0.04974365 C20.36831227 -0.07076988 26.07256225 -0.08114642 31.77684021 -0.09111023 C33.74289908 -0.09515867 35.70895782 -0.09927562 37.6750164 -0.10346031 C46.91478484 -0.12251081 56.15454531 -0.13674072 65.39432961 -0.14507228 C76.04669886 -0.15483694 86.6988599 -0.18113694 97.35115582 -0.22157317 C105.59253091 -0.25177953 113.83384648 -0.26654554 122.07527584 -0.26985329 C126.99354128 -0.2721991 131.91158425 -0.28109807 136.82979012 -0.30631447 C141.46162338 -0.32967861 146.09308902 -0.33379503 150.72496605 -0.32355309 C152.41838431 -0.3230596 154.11182118 -0.32932449 155.80518341 -0.34310913 C169.55002016 -0.44867229 180.5338169 1.31292411 190.83543396 11.14717102 C202.75921569 23.63762752 202.98697087 38.23131379 202.98069763 54.55244446 C202.98369349 56.1104897 202.98709699 57.66853421 202.99087524 59.22657776 C202.99967662 63.44165535 203.00205174 67.65671262 203.00269103 71.87179852 C203.00340379 74.5105504 203.0055424 77.14929718 203.00818825 79.78804779 C203.01742929 89.00899583 203.02152474 98.22992944 203.02073669 107.45088196 C203.02013642 116.0213822 203.03068156 124.59181939 203.04648036 133.16230369 C203.05959328 140.54093842 203.06491901 147.91955265 203.06428128 155.29819894 C203.06402738 159.6960168 203.06681904 164.09377861 203.07745934 168.49158478 C203.08720356 172.63175646 203.08717656 176.77181921 203.0799427 180.91199493 C203.07890464 182.42276673 203.08121294 183.93354554 203.08730316 185.44430542 C203.14418705 200.54533847 202.40564035 215.51330866 191.46043396 227.08467102 C180.00485671 237.40976368 168.51099489 238.59538055 153.66429138 238.55122375 C151.92875735 238.55693311 150.19322706 238.56389955 148.45770264 238.57202148 C143.76331018 238.58990781 139.06910511 238.58879277 134.37468886 238.5830791 C130.44605085 238.57997998 126.51744845 238.5860879 122.58881551 238.59211785 C113.3144646 238.60614729 104.04020583 238.6046156 94.76585388 238.59321594 C85.22106915 238.58174259 75.67656567 238.59580087 66.131818 238.62261242 C57.91663493 238.64481901 49.70153983 238.65139545 41.4863289 238.64553601 C36.58881126 238.64217632 31.69147375 238.64451524 26.79398155 238.66178703 C22.18502524 238.6773328 17.57648305 238.67321657 12.96754265 238.65448189 C11.28422877 238.6508167 9.60088369 238.65384347 7.91759872 238.66436768 C-5.33661612 238.74085376 -16.62765399 237.33187668 -26.97706604 228.34248352 C-36.62776132 218.65732147 -39.66564929 207.19902502 -39.7066803 193.85847473 C-39.69890594 192.27241313 -39.69071345 190.68635353 -39.68214417 189.10029602 C-39.68757408 187.4022512 -39.69470159 185.70421111 -39.7033844 184.00617981 C-39.72151745 179.42347514 -39.71459192 174.84113333 -39.70186806 170.25842285 C-39.69168818 165.44561336 -39.70114752 160.63283339 -39.70741272 155.82002258 C-39.71467466 147.74021368 -39.70513966 139.66055138 -39.68605042 131.58076477 C-39.66428449 122.26084772 -39.67133689 112.94128079 -39.69335604 103.62137222 C-39.71155155 95.59638615 -39.71404811 87.57150502 -39.70360136 79.54650497 C-39.6973892 74.76363645 -39.69646774 69.98093209 -39.70974731 65.19807434 C-39.72136582 60.69987734 -39.71317139 56.20212846 -39.69017029 51.70397949 C-39.68491507 50.06056459 -39.68634185 48.41711148 -39.69522095 46.77371216 C-39.75913906 33.73365038 -37.89293241 22.40785059 -29.16456604 12.14717102 C-20.76947561 4.14807542 -11.5327632 0.03806798 0 0 Z " fill="#05192F" transform="translate(103.16456604003906,72.85282897949219)"/>
<path d="M0 0 C0.7225288 -0.00367669 1.44505759 -0.00735338 2.1894812 -0.01114148 C4.6112676 -0.02215684 7.03301105 -0.02601854 9.45481873 -0.02983093 C11.1912347 -0.03609733 12.92764933 -0.04274429 14.6640625 -0.04974365 C20.36831227 -0.07076988 26.07256225 -0.08114642 31.77684021 -0.09111023 C33.74289908 -0.09515867 35.70895782 -0.09927562 37.6750164 -0.10346031 C46.91478484 -0.12251081 56.15454531 -0.13674072 65.39432961 -0.14507228 C76.04669886 -0.15483694 86.6988599 -0.18113694 97.35115582 -0.22157317 C105.59253091 -0.25177953 113.83384648 -0.26654554 122.07527584 -0.26985329 C126.99354128 -0.2721991 131.91158425 -0.28109807 136.82979012 -0.30631447 C141.46162338 -0.32967861 146.09308902 -0.33379503 150.72496605 -0.32355309 C152.41838431 -0.3230596 154.11182118 -0.32932449 155.80518341 -0.34310913 C169.55002016 -0.44867229 180.5338169 1.31292411 190.83543396 11.14717102 C202.75921569 23.63762752 202.98697087 38.23131379 202.98069763 54.55244446 C202.98369349 56.1104897 202.98709699 57.66853421 202.99087524 59.22657776 C202.99967662 63.44165535 203.00205174 67.65671262 203.00269103 71.87179852 C203.00340379 74.5105504 203.0055424 77.14929718 203.00818825 79.78804779 C203.01742929 89.00899583 203.02152474 98.22992944 203.02073669 107.45088196 C203.02013642 116.0213822 203.03068156 124.59181939 203.04648036 133.16230369 C203.05959328 140.54093842 203.06491901 147.91955265 203.06428128 155.29819894 C203.06402738 159.6960168 203.06681904 164.09377861 203.07745934 168.49158478 C203.08720356 172.63175646 203.08717656 176.77181921 203.0799427 180.91199493 C203.07890464 182.42276673 203.08121294 183.93354554 203.08730316 185.44430542 C203.14418705 200.54533847 202.40564035 215.51330866 191.46043396 227.08467102 C180.00485671 237.40976368 168.51099489 238.59538055 153.66429138 238.55122375 C151.92875735 238.55693311 150.19322706 238.56389955 148.45770264 238.57202148 C143.76331018 238.58990781 139.06910511 238.58879277 134.37468886 238.5830791 C130.44605085 238.57997998 126.51744845 238.5860879 122.58881551 238.59211785 C113.3144646 238.60614729 104.04020583 238.6046156 94.76585388 238.59321594 C85.22106915 238.58174259 75.67656567 238.59580087 66.131818 238.62261242 C57.91663493 238.64481901 49.70153983 238.65139545 41.4863289 238.64553601 C36.58881126 238.64217632 31.69147375 238.64451524 26.79398155 238.66178703 C22.18502524 238.6773328 17.57648305 238.67321657 12.96754265 238.65448189 C11.28422877 238.6508167 9.60088369 238.65384347 7.91759872 238.66436768 C-5.33661612 238.74085376 -16.62765399 237.33187668 -26.97706604 228.34248352 C-36.62776132 218.65732147 -39.66564929 207.19902502 -39.7066803 193.85847473 C-39.69890594 192.27241313 -39.69071345 190.68635353 -39.68214417 189.10029602 C-39.68757408 187.4022512 -39.69470159 185.70421111 -39.7033844 184.00617981 C-39.72151745 179.42347514 -39.71459192 174.84113333 -39.70186806 170.25842285 C-39.69168818 165.44561336 -39.70114752 160.63283339 -39.70741272 155.82002258 C-39.71467466 147.74021368 -39.70513966 139.66055138 -39.68605042 131.58076477 C-39.66428449 122.26084772 -39.67133689 112.94128079 -39.69335604 103.62137222 C-39.71155155 95.59638615 -39.71404811 87.57150502 -39.70360136 79.54650497 C-39.6973892 74.76363645 -39.69646774 69.98093209 -39.70974731 65.19807434 C-39.72136582 60.69987734 -39.71317139 56.20212846 -39.69017029 51.70397949 C-39.68491507 50.06056459 -39.68634185 48.41711148 -39.69522095 46.77371216 C-39.75913906 33.73365038 -37.89293241 22.40785059 -29.16456604 12.14717102 C-20.76947561 4.14807542 -11.5327632 0.03806798 0 0 Z M-10.83644104 35.09248352 C-14.72142854 41.10278771 -17.28131421 46.51803552 -17.31173706 53.75558472 C-17.31889236 54.92323868 -17.32604767 56.09089264 -17.3334198 57.29393005 C-17.3361087 58.57653717 -17.33879761 59.85914429 -17.34156799 61.18061829 C-17.3478342 62.54413018 -17.35448114 63.90764036 -17.36148071 65.27114868 C-17.38251319 69.75194614 -17.39288558 74.23274389 -17.40284729 78.71357727 C-17.40689581 80.25835119 -17.41101276 81.80312493 -17.41519737 83.34789848 C-17.43425099 90.60943477 -17.448479 97.87096092 -17.45680934 105.1325174 C-17.46656851 113.50061195 -17.49285256 121.86844106 -17.53331023 130.23644215 C-17.5635386 136.71219142 -17.57828475 143.18786493 -17.58159035 149.66368335 C-17.58393413 153.52728776 -17.59280548 157.39060866 -17.61805153 161.25413704 C-17.64145396 164.89448603 -17.64551724 168.53436734 -17.63529015 172.17477226 C-17.63456423 174.13379314 -17.65357179 176.09279092 -17.6733551 178.05171204 C-17.60967783 188.94052618 -14.89792285 198.19991285 -7.16456604 206.14717102 C-0.33878202 211.78344544 5.84717924 215.38516248 14.88053894 215.41459656 C16.0691452 215.42312653 17.25775146 215.43165649 18.4823761 215.44044495 C19.77289886 215.43953857 21.06342163 215.4386322 22.39305115 215.43769836 C23.77671164 215.44368799 25.1603688 215.45049454 26.54402161 215.45805359 C30.29217007 215.47567898 34.04022714 215.48040757 37.78841305 215.48168516 C40.13400401 215.48310955 42.47957194 215.48738464 44.82515717 215.4926796 C53.0193529 215.51117008 61.21348368 215.51935165 69.40769958 215.51777649 C77.02739572 215.51657611 84.64680814 215.5376605 92.26643252 215.56926382 C98.82293227 215.59548163 105.37933968 215.60614145 111.93589139 215.60486567 C115.8452638 215.60435755 119.75438405 215.60995684 123.66370392 215.63122177 C127.34433082 215.65069682 131.02446748 215.65066621 134.70511246 215.63618851 C136.68555854 215.63312633 138.66600516 215.64971275 140.64637756 215.66706848 C152.28029986 215.58573014 160.19422899 212.7048282 168.63621521 204.64717102 C176.99757451 195.14225103 178.13504472 184.35808981 178.1259613 172.22627258 C178.13267853 170.93594116 178.13939575 169.64560974 178.14631653 168.31617737 C178.16391357 164.79115316 178.16866929 161.26622619 178.1699481 157.7411623 C178.17137407 155.5337531 178.17565213 153.32636827 178.18094254 151.11896515 C178.19942345 143.40341638 178.20761577 135.68793651 178.20603943 127.97236633 C178.20483922 120.80425133 178.2259227 113.63643801 178.25752676 106.46839929 C178.28376643 100.29487463 178.29440349 94.12144803 178.29312861 87.94786811 C178.29262114 84.26930348 178.29818388 80.59100707 178.31948471 76.91249847 C178.34263137 72.80334196 178.33329947 68.69485181 178.3212738 64.58564758 C178.33251282 63.38319397 178.34375183 62.18074036 178.35533142 60.94184875 C178.27245345 49.75342195 175.44610644 40.50174382 167.83543396 32.14717102 C163.31816944 27.73029015 158.58967493 25.49490134 152.83543396 23.14717102 C151.84543396 22.65217102 151.84543396 22.65217102 150.83543396 22.14717102 C148.99205296 22.03875646 147.14477147 21.99450001 145.29826355 21.97981262 C144.12093658 21.96832184 142.94360962 21.95683105 141.73060608 21.94499207 C140.43198639 21.93759003 139.1333667 21.93018799 137.7953949 21.92256165 C136.41881543 21.9113874 135.04223868 21.89987411 133.66566467 21.88804626 C129.13375142 21.85144015 124.6018102 21.82624565 120.06980896 21.80342102 C119.29756894 21.79947515 118.52532892 21.79552929 117.72968769 21.79146385 C110.43749499 21.75501481 103.1452925 21.72358489 95.85303879 21.70235443 C86.54607163 21.67485513 77.23987281 21.62425767 67.93322539 21.54188013 C61.38016225 21.4858594 54.82730587 21.45708469 48.27401185 21.44788122 C44.3664019 21.44165517 40.45969173 21.42382058 36.55234528 21.37649536 C32.86496389 21.3323932 29.17896059 21.32247106 25.49135971 21.33712387 C23.51629557 21.33664548 21.54133032 21.30168612 19.56660461 21.26512146 C7.78629222 21.37277176 -3.42178444 25.46840904 -10.83644104 35.09248352 Z " fill="#061A2F" transform="translate(103.16456604003906,72.85282897949219)"/>
<path d="M0 0 C9.60740234 8.47896357 15.71257419 21.29009398 16.51733398 34.06225586 C17.17331711 51.35508751 14.56600668 65.59620279 3.39453125 79.36328125 C-4.7309767 87.93944763 -15.87420326 92.50325544 -27.60546875 93.11328125 C-41.28618562 93.38118041 -49.91010128 88.43190039 -60.60546875 80.11328125 C-60.93546875 99.25328125 -61.26546875 118.39328125 -61.60546875 138.11328125 C-70.18546875 138.11328125 -78.76546875 138.11328125 -87.60546875 138.11328125 C-87.60546875 89.93328125 -87.60546875 41.75328125 -87.60546875 -7.88671875 C-79.02546875 -7.88671875 -70.44546875 -7.88671875 -61.60546875 -7.88671875 C-61.27546875 -4.25671875 -60.94546875 -0.62671875 -60.60546875 3.11328125 C-59.65671875 2.22640625 -58.70796875 1.33953125 -57.73046875 0.42578125 C-40.76411184 -14.01439777 -17.53298395 -12.69629873 0 0 Z M-54.60546875 21.11328125 C-60.38250038 28.65879195 -62.60757558 36.65589808 -61.60546875 46.11328125 C-60.1098538 53.73156991 -57.64210682 60.21686237 -51.19921875 64.83984375 C-44.27392081 69.13760218 -38.72784306 71.31353089 -30.43359375 69.6875 C-22.84253449 67.55415059 -17.88606955 63.17408759 -13.23046875 56.92578125 C-9.00867225 48.50103555 -8.82537563 38.97233397 -11.60546875 30.11328125 C-14.76272203 22.07433112 -19.76067925 17.43035449 -27.48046875 13.73828125 C-37.71475435 11.69142413 -47.03386575 13.54167825 -54.60546875 21.11328125 Z " fill="#04182F" transform="translate(554.60546875,150.88671875)"/>
<path d="M0 0 C1.35984213 1.3062867 2.70104882 2.6331491 4 4 C4.33 0.37 4.66 -3.26 5 -7 C13.58 -7 22.16 -7 31 -7 C31 25.67 31 58.34 31 92 C22.42 92 13.84 92 5 92 C4.67 88.37 4.34 84.74 4 81 C2.700625 82.0725 1.40125 83.145 0.0625 84.25 C-11.37984754 93.17973094 -22.94187341 94.02752334 -37 93 C-47.82001717 90.94493953 -57.12446601 84.23971692 -63.47265625 75.3671875 C-72.77946803 60.94281937 -74.70781851 45.27677357 -71.9375 28.5 C-69.32092687 16.69499567 -63.66125123 6.44096368 -54 -1 C-36.94033544 -11.69687075 -16.50350614 -12.22814132 0 0 Z M-40 23 C-46.02875273 31.58069636 -46.8081842 38.47083971 -46 49 C-44.25592151 56.38492665 -40.49267223 63.15521913 -33.9765625 67.28125 C-27.70245617 70.54658415 -21.62641155 72.30164312 -14.5703125 70.31640625 C-6.19291263 67.24808806 -0.55990921 63.17737219 3.2734375 55.02734375 C6.47608058 46.09093644 6.02623936 35.57887751 2 27 C-2.40570928 20.40851247 -8.08806766 15.60016609 -16 14 C-25.6630965 12.98195356 -33.70254453 15.30310998 -40 23 Z " fill="#04182F" transform="translate(840,150)"/>
<path d="M0 0 C7.9631182 7.37113579 11.95166491 16.92402541 14.25 27.3125 C14.25 33.9125 14.25 40.5125 14.25 47.3125 C-21.39 47.8075 -21.39 47.8075 -57.75 48.3125 C-55.03146171 58.73493542 -55.03146171 58.73493542 -47.8125 65.5625 C-41.34365479 68.88933468 -34.51473024 69.70084381 -27.484375 67.65234375 C-23.6302319 65.95328448 -21.63124158 64.24283913 -19.41796875 60.6875 C-17.20367067 58.03179749 -16.09566623 57.3757313 -12.64428711 56.74438477 C-8.86610919 56.6233664 -5.15105708 56.70267242 -1.375 56.875 C-0.06660156 56.90658203 1.24179687 56.93816406 2.58984375 56.97070312 C5.81219246 57.0530259 9.02993991 57.16798162 12.25 57.3125 C8.67870263 69.05019606 2.49795183 78.36635983 -8.19921875 84.78125 C-16.95572397 89.39417158 -24.84278657 90.65863897 -34.625 90.625 C-35.55441406 90.64111328 -36.48382812 90.65722656 -37.44140625 90.67382812 C-50.00471314 90.68258915 -61.85004504 86.24852896 -71.0625 77.5625 C-82.85116792 64.88001915 -85.46988043 50.21818803 -84.88183594 33.45166016 C-84.08233149 20.47896028 -78.44445176 8.06443562 -68.75 -0.6875 C-48.15303862 -15.88833965 -20.26303319 -15.54547557 0 0 Z M-54.5625 19.578125 C-57.11810001 23.31064607 -57.75 25.78517316 -57.75 30.3125 C-42.9 30.3125 -28.05 30.3125 -12.75 30.3125 C-13.70018482 21.54651805 -13.70018482 21.54651805 -18.75 15.3125 C-30.58034502 6.58844669 -45.53412848 8.09639165 -54.5625 19.578125 Z " fill="#041830" transform="translate(1009.75,152.6875)"/>
<path d="M0 0 C8.58 0 17.16 0 26 0 C26.01458252 1.80597656 26.02916504 3.61195313 26.04418945 5.47265625 C26.09599872 11.46385714 26.1613264 17.45478519 26.23571491 23.44573975 C26.28029405 27.07529445 26.31957674 30.70474014 26.34643555 34.33447266 C26.37259403 37.84250351 26.41308266 41.35011198 26.46318626 44.85787964 C26.48779887 46.83622646 26.49786723 48.81473713 26.50764465 50.79321289 C26.63898197 58.89249231 27.02817913 65.28522391 32.25 71.8125 C38.08022495 76.45017893 42.93322148 77.5796103 50.28515625 77.34765625 C55.86136433 76.63358068 60.07696815 74.30571477 63.875 70.1875 C68.85382944 62.71925583 68.33520585 54.90431008 68.4140625 46.19140625 C68.43279826 44.85618424 68.45237342 43.52097377 68.4727478 42.18577576 C68.52382119 38.69246257 68.56357847 35.19911109 68.60089111 31.70562744 C68.64108738 28.13243368 68.6920044 24.55939329 68.7421875 20.98632812 C68.83965582 13.99094537 68.91937041 6.99567808 69 0 C77.58 0 86.16 0 95 0 C95 32.67 95 65.34 95 99 C86.42 99 77.84 99 69 99 C68.67 95.7 68.34 92.4 68 89 C66.5459375 90.36125 66.5459375 90.36125 65.0625 91.75 C55.95177247 99.58300354 45.65148255 100.70116261 34.08203125 100.17480469 C24.7648649 99.39254729 16.44102606 95.78068954 10 89 C0.77869773 77.41934109 -0.4540255 65.62755234 -0.29296875 51.26953125 C-0.28735974 49.78310071 -0.28309583 48.29666455 -0.28010559 46.81022644 C-0.26875927 42.9353348 -0.23938289 39.06079116 -0.20599365 35.18603516 C-0.17506982 31.21717026 -0.16155303 27.24824804 -0.14648438 23.27929688 C-0.11450096 15.51935571 -0.06181948 7.75977134 0 0 Z " fill="#041830" transform="translate(355,143)"/>
<path d="M0 0 C1.38543242 -0.005709 2.77086014 -0.01267531 4.15628052 -0.02079773 C7.90435292 -0.03868749 11.65219066 -0.03756852 15.40029287 -0.03185534 C18.53629704 -0.0287569 21.67225656 -0.03486333 24.80825436 -0.04089409 C32.21074928 -0.05492445 39.61312877 -0.05339094 47.015625 -0.04199219 C54.63594431 -0.03051684 62.25591144 -0.04458003 69.87618434 -0.07138866 C76.43354951 -0.09358868 82.99080448 -0.10017325 89.54820454 -0.09431225 C93.45807336 -0.09095118 97.36771657 -0.09330057 101.27755356 -0.11056328 C104.95657134 -0.12609889 108.63507008 -0.12200451 112.31406784 -0.10325813 C114.29587374 -0.09785083 116.27770331 -0.11203657 118.25946045 -0.12695312 C125.52813578 -0.06723949 130.98361445 0.75520554 137.31298828 4.40405273 C138.34423828 4.98155273 139.37548828 5.55905273 140.43798828 6.15405273 C148.18072112 12.21358278 153.28419814 19.72316979 155.31298828 29.40405273 C155.40911537 31.23132599 155.45208868 33.06169731 155.4601593 34.89147949 C155.47089226 36.56495956 155.47089226 36.56495956 155.48184204 38.27224731 C155.48453094 39.49201263 155.48721985 40.71177795 155.48999023 41.96850586 C155.49656143 43.25679291 155.50313263 44.54507996 155.50990295 45.87240601 C155.53090767 50.143359 155.54130604 54.41431217 155.55126953 58.68530273 C155.55531926 60.15976479 155.55943624 61.63422667 155.56361961 63.10868835 C155.58266808 70.04132062 155.5968965 76.97394231 155.60523158 83.90659571 C155.61498521 91.8858327 155.64125678 99.8647909 155.68173248 107.84392977 C155.712001 114.02504082 155.72671081 120.20607248 155.7300126 126.38725615 C155.73235202 130.07206325 155.7411657 133.75657244 155.76647377 137.44129944 C155.79432181 141.56252234 155.78989078 145.68313203 155.78295898 149.80444336 C155.80217407 151.60980057 155.80217407 151.60980057 155.82177734 153.45162964 C155.75355029 164.63522632 153.30794544 175.12596618 145.41064453 183.39624023 C136.03064862 192.3970799 127.02400678 194.00235599 114.28540039 193.92163086 C112.89952361 193.92706251 111.5136526 193.93419098 110.12779236 193.94287109 C106.39221592 193.9609822 102.65708531 193.95408857 98.92150187 193.94135475 C94.99661177 193.93116523 91.07175759 193.94063665 87.14686584 193.94689941 C80.55918587 193.95415776 73.97168581 193.94463509 67.3840332 193.92553711 C59.78579105 193.90376269 52.18797821 193.91083098 44.58974642 193.93284273 C38.04504744 193.95103786 31.50047713 193.95353531 24.95576102 193.94308805 C21.05601157 193.93687679 17.15646345 193.93595194 13.25672722 193.94923401 C9.58995813 193.96085248 5.92373875 193.95265885 2.25702858 193.92965698 C0.28242355 193.92191035 -1.69222838 193.93367378 -3.66680908 193.94616699 C-14.57899819 193.84297365 -22.60906306 190.78327588 -30.68701172 183.40405273 C-39.19896664 174.2951055 -40.13419474 164.77061596 -40.09106445 152.67358398 C-40.09677724 151.30756068 -40.10374499 149.94154214 -40.11186218 148.57553101 C-40.12970659 144.88955713 -40.12864205 141.20382244 -40.1229198 137.51781845 C-40.11981588 134.43142029 -40.12593356 131.34506728 -40.13195854 128.25867558 C-40.14597292 120.97408813 -40.14446772 113.68961804 -40.13305664 106.4050293 C-40.12157254 98.90849832 -40.13566284 91.41232498 -40.16245311 83.9158411 C-40.18465304 77.46034521 -40.19123803 71.00496123 -40.1853767 64.54942989 C-40.18201686 60.70218773 -40.18435724 56.85517487 -40.20162773 53.00796509 C-40.21716416 49.38965521 -40.21306815 45.77187306 -40.19432259 42.15358353 C-40.18891678 40.20519423 -40.20309885 38.25678084 -40.21801758 36.30844116 C-40.1578242 29.10206404 -39.30613103 23.68208924 -35.68701172 17.40405273 C-35.22939453 16.60612305 -34.77177734 15.80819336 -34.30029297 14.98608398 C-30.5391349 9.86955364 -26.26548396 6.42981608 -20.68701172 3.40405273 C-19.76395233 2.89007431 -18.84089294 2.37609589 -17.88986206 1.84654236 C-12.20319894 -0.54291734 -6.06171085 -0.0211779 0 0 Z M-27.21435547 19.14624023 C-32.05831628 26.57279023 -32.12752992 32.90025088 -32.10693359 41.61621094 C-32.11428238 42.95076199 -32.12287096 44.2853067 -32.13259888 45.61984253 C-32.15474124 49.22954518 -32.15774916 52.83901906 -32.15585136 56.4487803 C-32.1557313 59.4703685 -32.16431025 62.49190888 -32.17262888 65.5134837 C-32.19183761 72.64753099 -32.19475639 79.78146129 -32.18798828 86.91552734 C-32.18135263 94.25528524 -32.20419809 101.59453994 -32.24130201 108.93419582 C-32.27207636 115.25294158 -32.2833506 121.57152614 -32.2794652 127.89034528 C-32.27740526 131.65667372 -32.28275851 135.42261064 -32.30735779 139.18886757 C-32.32975058 142.73419172 -32.32764504 146.27870274 -32.30743027 149.82403183 C-32.30243776 151.73052081 -32.32194926 153.63702583 -32.34243774 155.54341125 C-32.25884279 164.16758694 -30.69301426 171.08728951 -24.69722748 177.54819202 C-16.60023372 185.25066873 -9.21823975 185.85162818 1.58520508 185.83984375 C2.9263645 185.84883184 4.26751619 185.85904249 5.60865784 185.87037659 C9.2370744 185.89678006 12.86527845 185.90390609 16.49378181 185.90582395 C18.76620461 185.90796275 21.03857414 185.91437955 23.31098366 185.9223156 C31.25463895 185.95004129 39.19814363 185.96232513 47.1418457 185.95996094 C54.52026416 185.95816125 61.89802275 185.98977199 69.27627438 186.03719193 C75.63157102 186.07656632 81.98665337 186.0925064 88.34207088 186.09059471 C92.12866597 186.08983381 95.91467463 186.09815869 99.70114708 186.13012886 C103.26791287 186.15942342 106.83354196 186.15924326 110.40035057 186.13757896 C112.31363893 186.13300417 114.22692921 186.15781034 116.14004517 186.18389893 C124.65849242 186.09208861 131.20656452 184.20970683 138.31298828 179.40405273 C143.66186071 173.93699303 146.55477236 168.3067107 146.58041382 160.57963562 C146.58894379 159.41475616 146.59747375 158.24987671 146.60626221 157.04969788 C146.60535583 155.78048996 146.60444946 154.51128204 146.60351562 153.20361328 C146.60950347 151.84641145 146.61630961 150.48921302 146.62387085 149.13201904 C146.6415133 145.45212499 146.64622552 141.77232399 146.64750242 138.09239173 C146.64892572 135.79087661 146.65319871 133.48938502 146.65849686 131.18787575 C146.67699219 123.15160245 146.6851682 115.11539544 146.68359375 107.07910156 C146.68239287 99.59968956 146.70348572 92.12056637 146.73508108 84.64122742 C146.76127434 78.2104678 146.77195975 71.77980232 146.77068293 65.34898978 C146.77017414 61.51232323 146.77581105 57.67591336 146.79703903 53.83930016 C146.81647285 50.22845541 146.81651136 46.61811082 146.80200577 43.00724792 C146.79893401 41.05980493 146.81555862 39.11236162 146.83288574 37.16499329 C146.77183973 28.62668587 145.64253925 23.25932228 139.93798828 16.65405273 C133.90907569 11.48641337 128.57500269 8.16726261 120.53999329 8.12989807 C119.3864183 8.11992294 118.23284332 8.10994781 117.04431152 8.09967041 C115.78759644 8.09900574 114.53088135 8.09834106 113.23608398 8.09765625 C111.89197837 8.09003004 110.54787711 8.08160175 109.20378113 8.07243347 C105.55888543 8.0505223 101.91407362 8.04169373 98.2691195 8.03660703 C95.98835974 8.03295833 93.70762178 8.0267155 91.42687035 8.01960564 C83.45961929 7.99511931 75.49243323 7.98206178 67.52514648 7.97851562 C60.11615079 7.97488476 52.70757045 7.94501987 45.29870158 7.90311104 C38.92480988 7.86832976 32.55105525 7.85296581 26.17706937 7.85226959 C22.37603899 7.85147919 18.57543163 7.84285159 14.77449989 7.81427193 C11.19476026 7.78795722 7.6157902 7.78595936 4.03599739 7.80192757 C2.11038469 7.804586 0.18478607 7.78264802 -1.74069214 7.75973511 C-12.60973538 7.85061786 -20.11674541 10.81047216 -27.21435547 19.14624023 Z " fill="#F8DB9A" transform="translate(125.68701171875,94.595947265625)"/>
<path d="M0 0 C7.49104157 7.64680992 9.69117717 14.52941734 11 25 C2.75 25 -5.5 25 -14 25 C-15.32 22.36 -16.64 19.72 -18 17 C-22.56275923 12.71377163 -27.27159861 12.70569548 -33.26171875 12.79296875 C-36.90798507 13.06864937 -39.14814095 13.6734834 -42 16 C-43.3309316 19.39969811 -43.3309316 19.39969811 -43 23 C-38.68127231 30.19787948 -26.5151269 31.75154497 -19 33.9375 C-0.28781806 39.41763116 -0.28781806 39.41763116 6 47 C7.0828125 48.299375 7.0828125 48.299375 8.1875 49.625 C11.9146332 56.56517907 12.80002327 63.94136291 10.8828125 71.5859375 C7.65819284 80.40370277 1.76729089 85.95008175 -6.37109375 90.25390625 C-13.32904723 93.15221198 -20.19241342 93.3817719 -27.625 93.4375 C-28.59058838 93.44765137 -29.55617676 93.45780273 -30.55102539 93.46826172 C-43.13322412 93.31590628 -54.99828217 89.00171783 -64 80 C-68.75647909 73.04392847 -71 68.64036003 -71 60 C-62.42 60 -53.84 60 -45 60 C-43.68 62.64 -42.36 65.28 -41 68 C-35.13474043 72.0450066 -30.04174182 72.92744892 -23 72 C-20.09861468 71.35346662 -18.60357624 70.62723515 -16 69 C-14.1824603 66.21481845 -14.1824603 66.21481845 -14 63 C-15.41077142 59.82698469 -16.45437792 58.30643362 -19.50390625 56.59375 C-20.51324219 56.2328125 -21.52257812 55.871875 -22.5625 55.5 C-23.7175 55.08621094 -24.8725 54.67242187 -26.0625 54.24609375 C-30.34887458 52.8425033 -34.70332426 51.71435196 -39.0625 50.5625 C-49.98140768 47.63636101 -60.77357671 44.14124033 -67 34 C-70.0643673 26.43225509 -70.49901413 17.67401147 -67.3125 10.0625 C-62.79144927 1.44572387 -56.50108857 -3.55381118 -47.4375 -6.75 C-31.93127766 -11.40976461 -12.96845576 -10.48416459 0 0 Z " fill="#04182F" transform="translate(648,150)"/>
<path d="M0 0 C7.02874674 6.32179349 11.9089056 16.01585546 13.58203125 25.25390625 C9.04123234 25.48681367 4.50197031 25.62852862 -0.04296875 25.75390625 C-1.32816406 25.8209375 -2.61335937 25.88796875 -3.9375 25.95703125 C-13.31477 26.15137881 -13.31477 26.15137881 -16.54541016 23.52319336 C-18.12109375 21.375 -18.12109375 21.375 -19.30566406 19.22436523 C-21.30755747 15.67799085 -24.65001568 13.93827518 -28.35546875 12.50390625 C-35.44735783 11.64428333 -41.29184066 12.46923074 -47.41796875 16.25390625 C-55.16845267 24.64098023 -55.97872495 33.88975027 -55.72265625 44.75390625 C-55.31692317 52.7880918 -53.37331906 58.87085541 -47.35546875 64.37890625 C-41.30156912 69.23596968 -34.8959712 68.75182503 -27.41796875 68.25390625 C-22.11051751 66.54793978 -19.61829521 63.6429254 -16.41796875 59.25390625 C-15.92296875 57.76890625 -15.92296875 57.76890625 -15.41796875 56.25390625 C-5.84796875 56.25390625 3.72203125 56.25390625 13.58203125 56.25390625 C9.38139031 70.25604272 3.12813587 79.93066497 -9.85546875 87.12890625 C-23.10415337 93.63895818 -38.25425698 93.34043454 -52.2578125 89.46875 C-63.39270084 85.50548466 -72.51512088 76.90834092 -78.16796875 66.62890625 C-85.00807717 51.8876825 -85.03505063 35.61492011 -80.41796875 20.25390625 C-75.47413031 6.8908578 -66.65807608 -1.52479168 -53.87109375 -7.40625 C-35.82318091 -14.40900351 -15.54691467 -11.22693192 0 0 Z " fill="#04182F" transform="translate(749.41796875,151.74609375)"/>
<path d="M0 0 C1.64574566 -0.02688151 3.29161413 -0.04634123 4.9375 -0.0625 C5.85402344 -0.07410156 6.77054688 -0.08570313 7.71484375 -0.09765625 C10 0 10 0 11 1 C11.108163 3.10473057 11.14630151 5.21307953 11.15771484 7.32055664 C11.16533592 8.31099472 11.16533592 8.31099472 11.17311096 9.32144165 C11.18383847 10.76085634 11.19244925 12.20028795 11.19923019 13.63972664 C11.21100387 15.9230281 11.23045666 18.20613908 11.25234985 20.48936462 C11.31398796 26.98332296 11.3678537 33.47726656 11.40136719 39.97143555 C11.42240522 43.94092248 11.45779121 47.91007006 11.50212479 51.87936211 C11.51622466 53.38826923 11.52499356 54.89723649 11.52817917 56.40620613 C11.111668 68.77670439 11.111668 68.77670439 16.38070679 79.50404358 C22.31660096 84.73136096 26.97936129 85.49988012 34.7265625 85.38671875 C40.43348536 84.71251187 43.90850881 82.09149119 47.875 78.125 C50.60544395 72.96749476 51.25307845 67.73733034 51.30297852 61.97900391 C51.31563751 60.98501587 51.31563751 60.98501587 51.32855225 59.97094727 C51.35410226 57.80614417 51.36641198 55.64147661 51.37890625 53.4765625 C51.39509688 51.96437523 51.4122785 50.45219827 51.43040466 48.94003296 C51.47589221 44.97854363 51.51081201 41.01704031 51.54260254 37.05541992 C51.5946847 30.69372805 51.65948328 24.33218636 51.73081779 17.97068405 C51.7536897 15.7476107 51.76992746 13.52455683 51.78553772 11.30142212 C51.79893602 9.94915544 51.81255009 8.59689087 51.82641602 7.24462891 C51.84068382 5.46761093 51.84068382 5.46761093 51.85523987 3.6546936 C52 1 52 1 53 0 C58.49837022 -0.31926021 63.99939658 -0.35724562 69.50610352 -0.4050293 C71.35753208 -0.42645078 73.20886386 -0.46036114 75.05981445 -0.50756836 C86.21203117 -0.78930646 95.69489028 -0.99976702 105 6 C110.23477457 11.42269277 113.2640968 17.04755895 113.4375 24.6875 C113.29530651 31.91270684 111.14129417 37.39361131 106.390625 42.84765625 C99.89433798 48.91185079 91.64646211 51.14042383 82.921875 51.09765625 C81.18164062 51.09282227 81.18164062 51.09282227 79.40625 51.08789062 C78.1996875 51.07951172 76.993125 51.07113281 75.75 51.0625 C74.52796875 51.05798828 73.3059375 51.05347656 72.046875 51.04882812 C69.03120054 51.03704815 66.01562502 51.02059853 63 51 C63.03480469 52.24394531 63.06960937 53.48789063 63.10546875 54.76953125 C63.56368807 77.78926666 63.56368807 77.78926666 55.66015625 87.28515625 C48.90670734 94.26107171 41.2717583 97.09460575 31.625 97.4375 C21.60492233 97.14553969 14.11331244 94.11106814 6.87890625 87.1484375 C0.79587992 80.19279408 -0.12961808 72.84536276 -0.11352539 63.80126953 C-0.11367142 63.10788986 -0.11381744 62.41451019 -0.1139679 61.70011902 C-0.11327596 59.42765074 -0.1055175 57.15526631 -0.09765625 54.8828125 C-0.09578951 53.29955083 -0.09436682 51.71628858 -0.09336853 50.13302612 C-0.08956349 45.98037094 -0.07975051 41.82775114 -0.06866455 37.67510986 C-0.05840703 33.43184894 -0.05386163 29.18858227 -0.04882812 24.9453125 C-0.03812633 16.63019216 -0.02107424 8.31510049 0 0 Z " fill="#F7DB9A" transform="translate(128,143)"/>
<path d="M0 0 C4.06274287 3.13239483 7.12872511 6.86522999 10.37109375 10.828125 C10.70109375 5.218125 11.03109375 -0.391875 11.37109375 -6.171875 C15.66109375 -6.171875 19.95109375 -6.171875 24.37109375 -6.171875 C24.37109375 26.168125 24.37109375 58.508125 24.37109375 91.828125 C20.08109375 91.828125 15.79109375 91.828125 11.37109375 91.828125 C11.04109375 86.218125 10.71109375 80.608125 10.37109375 74.828125 C9.25734375 76.189375 8.14359375 77.550625 6.99609375 78.953125 C0.21876847 86.55520415 -8.81142332 91.84707018 -19.03344727 93.12988281 C-21.51118149 93.26444748 -23.96028183 93.29592661 -26.44140625 93.265625 C-27.31579346 93.25805176 -28.19018066 93.25047852 -29.09106445 93.24267578 C-40.13019303 92.96289396 -48.97856983 89.70489148 -57.62890625 82.828125 C-58.24378906 82.34988281 -58.85867188 81.87164062 -59.4921875 81.37890625 C-68.06541723 73.83218296 -72.88898198 61.65327279 -73.82983398 50.43164062 C-73.93135746 47.95536132 -73.95821775 45.49388041 -73.94140625 43.015625 C-73.9357666 42.1397876 -73.93012695 41.2639502 -73.92431641 40.36157227 C-73.67756969 27.13863535 -70.09938995 15.33218038 -60.87890625 5.515625 C-44.3078907 -9.82907252 -19.12094756 -12.11503238 0 0 Z M-52.3515625 16.8984375 C-59.56733057 27.07497527 -61.51999628 38.10307627 -60.00390625 50.390625 C-58.29017311 59.96937181 -54.02872044 68.37663651 -46.62890625 74.828125 C-36.84021345 81.20782031 -27.06106339 82.84820512 -15.62890625 80.828125 C-6.80495815 78.57053594 0.02507758 73.68593863 5.1953125 66.1796875 C11.13456082 55.91183447 13.09537203 45.20459049 10.68359375 33.48828125 C7.31882532 21.47325399 1.97536121 13.79569668 -8.80078125 7.57421875 C-23.40661354 0.54087333 -41.99636643 4.45341728 -52.3515625 16.8984375 Z " fill="#04182F" transform="translate(1147.62890625,150.171875)"/>
<path d="M0 0 C8.58 0 17.16 0 26 0 C26 43.56 26 87.12 26 132 C17.42 132 8.84 132 0 132 C0 88.44 0 44.88 0 0 Z " fill="#051930" transform="translate(888,110)"/>
<path d="M0 0 C4.29 0 8.58 0 13 0 C13 32.34 13 64.68 13 98 C8.71 98 4.42 98 0 98 C0 65.66 0 33.32 0 0 Z " fill="#041830" transform="translate(1200,144)"/>
<path d="M0 0 C4.125 -0.0825 8.25 -0.165 12.5 -0.25 C13.78455078 -0.28641602 15.06910156 -0.32283203 16.39257812 -0.36035156 C23.43663923 -0.42829366 28.04152129 0.15536255 34 4 C36.91096205 7.09289717 37.23406255 9.82559761 37.4375 13.9375 C37.28952796 18.67260529 36.1815139 21.37660917 33 25 C28.85020337 28.64679098 25.4406763 29.12410086 20.01953125 29.09765625 C18.97128174 29.09515869 17.92303223 29.09266113 16.84301758 29.09008789 C15.51294678 29.08098389 14.18287598 29.07187988 12.8125 29.0625 C8.584375 29.041875 4.35625 29.02125 0 29 C0 19.43 0 9.86 0 0 Z " fill="#06192F" transform="translate(192,154)"/>
<path d="M0 0 C2.97717008 1.98478006 4.62826444 3.36831119 5.44140625 6.9375 C5.66684799 10.77728188 5.23190202 12.63668683 3.125 15.9375 C-0.03782735 19.00730302 -0.03782735 19.00730302 -3.05859375 18.984375 C-4.23615234 18.86835937 -4.23615234 18.86835937 -5.4375 18.75 C-6.61119141 18.64945313 -6.61119141 18.64945313 -7.80859375 18.546875 C-10.45258232 17.8870561 -11.38941873 17.18367153 -13 15 C-13.9356747 12.0080821 -14.19743592 9.12606878 -14 6 C-10.51643027 0.23409149 -6.60080761 -1.08541005 0 0 Z " fill="#04192F" transform="translate(1211,108)"/>
</svg>
