<?xml version="1.0" encoding="UTF-8" standalone="no"?>
<svg
   xmlns:dc="http://purl.org/dc/elements/1.1/"
   xmlns:cc="http://creativecommons.org/ns#"
   xmlns:rdf="http://www.w3.org/1999/02/22-rdf-syntax-ns#"
   xmlns:svg="http://www.w3.org/2000/svg"
   xmlns="http://www.w3.org/2000/svg"
   version="1.1"
   id="svg2"
   viewBox="5.993 4.97 146.71875 36">
  <metadata
     id="metadata34">
    <rdf:RDF>
      <cc:Work
         rdf:about="">
        <dc:format>image/svg+xml</dc:format>
        <dc:type
           rdf:resource="http://purl.org/dc/dcmitype/StillImage" />
        <dc:title></dc:title>
      </cc:Work>
    </rdf:RDF>
  </metadata>
  <defs
     id="defs32" />
  <style
     id="style4"
     type="text/css">
        .uapi-logo-color { fill:#333333; };
    </style>
  <g
     style="fill:#2388db;fill-opacity:1"
     id="g6"
     transform="translate(-41.864273,-504.6068)"
     class="uapi-logo-color">
    <g
       style="fill:#2388db;fill-opacity:1"
       id="g8"
       transform="matrix(0.38032208,0,0,0.38032208,2.1315333,1067.3697)">
      <path
         style="fill:#2388db;fill-opacity:1"
         id="path10"
         d="m 122.312,-1462.325 0,29.844 6.562,0 0,-29.844 -6.562,0 z m 40.907,0 0,29.844 6.531,0 0,-29.844 -6.531,0 z m -40.907,35 0,7.531 c 0,11.601 8.362,21.266 19.375,23.312 -1.3,8.146 -8.288,14.344 -16.812,14.344 l -1.125,0 0,6.75 c 12.48,-0.372 22.776,-9.15 25.406,-20.906 11.61,-1.535 20.594,-11.476 20.594,-23.5 l 0,-7.531 -47.438,0 z" />
      <path
         style="fill:#2388db;fill-opacity:1"
         id="path12"
         d="m 179.596,-1439.427 14.722,0 0,42.529 6.543,0 0,-42.529 14.722,0 0,-6.543 -35.986,0 0,6.543" />
      <path
         style="fill:#2388db;fill-opacity:1"
         id="path14"
         d="m 225.359,-1396.897 6.543,0 0,-49.072 -6.543,0 0,49.072" />
      <path
         style="fill:#2388db;fill-opacity:1"
         id="path16"
         d="m 245.007,-1396.897 26.99,0 0,-6.543 -20.447,0 0,-42.529 -6.543,0 0,49.072" />
      <path
         style="fill:#2388db;fill-opacity:1"
         id="path18"
         d="m 281.748,-1396.897 6.543,0 0,-49.072 -6.543,0 0,49.072" />
      <path
         style="fill:#2388db;fill-opacity:1"
         id="path20"
         d="m 298.124,-1439.427 14.722,0 0,42.529 6.543,0 0,-42.529 14.721,0 0,-6.543 -35.986,0 0,6.543" />
      <path
         style="fill:#2388db;fill-opacity:1"
         id="path22"
         d="m 356.973,-1417.753 0,20.855 6.543,0 0,-20.855 19.629,-28.217 -8.18,0 -14.721,21.183 -14.723,-21.183 -8.178,0 19.63,28.217" />
      <path
         style="fill:#2388db;fill-opacity:1"
         id="path24"
         d="m 409.362,-1453.331 11.123,31.897 -22.246,0 11.123,-31.897 m 19.629,56.434 6.543,0 -22.9,-65.43 -6.543,0 -22.901,65.43 6.543,0 6.298,-17.993 26.662,0 6.298,17.993" />
      <path
         style="fill:#2388db;fill-opacity:1"
         id="path26"
         d="m 468.299,-1455.784 c 6.297,0 11.449,5.152 11.449,11.45 0,6.298 -5.152,11.45 -11.449,11.45 l -19.629,0 0,-22.9 19.629,0 m 0,29.443 c 9.979,0 17.992,-8.015 17.992,-17.993 0,-9.978 -8.014,-17.993 -17.992,-17.993 l -26.172,0 0,65.43 6.543,0 0,-29.443 19.629,0" />
      <path
         style="fill:#2388db;fill-opacity:1"
         id="path28"
         d="m 497.754,-1396.897 6.543,0 0,-65.43 -6.543,0 0,65.43" />
    </g>
  </g>
</svg>
