<svg xmlns="http://www.w3.org/2000/svg" role="img" viewBox="-13.99 -13.99 727.48 221.48"><g fill="#4141FC" clip-path="url(#clip0_315_46)"><path d="M336.136 96.8085V184.03c0 1.627.026 3.267-.207 4.867-.53 3.696-2.327 5.283-6.05 5.309-7.975.052-15.951.026-23.94.026-21.278 0-42.555.039-63.833-.013-27.082-.078-51.578-19.883-57.188-46.558-4.266-20.312.297-38.634 14.181-54.0926 7.058-7.8595 16.417-12.3358 26.564-14.9773 11.557-3.0189 23.372-2.6415 35.148-2.6025 6.593.0261 13.186 0 19.778 0 7.02 0 12.552-2.6935 16.055-9.0305 3.542-6.4151 3.038-12.7782-.568-18.894-2.301-3.9037-5.973-6.1288-10.393-6.8445-2.728-.4424-5.52-.6116-8.287-.6246-19.778-.0521-39.543-.013-59.321-.026-7.433 0-9.695-2.3032-9.708-9.8244-.013-7.6773-.039-15.3546.013-23.03189.052-6.12883 2.068-8.0807 8.17-8.0807h110.666c7.42 0 8.933 1.47041 8.933 8.90048.013 29.42101 0 58.84201 0 88.27601h-.013zm-74.148 56.4995c6.592 0 13.172.013 19.765 0 10.121-.039 17.218-7.157 17.322-17.345.116-10.67-6.839-17.996-17.271-18.048-13.056-.066-26.125-.066-39.181 0-9.863.039-16.236 5.543-17.205 15.393-1.06 10.879 4.821 20.026 17.141 20.013h19.416l.013-.013zM700 97.1988v88.2762c0 7.612-1.138 8.77-8.532 8.77-28.219 0-56.438-.208-84.645.065-26.228.247-52.974-19.18-58.157-48.809-3.336-19.037.853-36.617 14.012-51.269 9.075-10.0976 20.89-15.0944 34.088-16.9942 15.991-2.3032 32.098-.9108 48.14-1.2101 13.534-.2473 21.859-12.7782 16.624-25.3742-2.159-5.1919-6.205-8.2628-11.634-9.46-2.495-.5595-5.042-.6245-7.589-.6245-19.894.013-39.775.013-59.67 0-8.014 0-9.966-2.004-9.979-10.1497 0-7.6773-.026-15.3546 0-23.0319.026-5.9857 1.784-7.75538 7.601-7.75538h112.062c6.231 0 7.679 1.4704 7.679 7.8855V97.1988zm-73.67 20.6892c-6.127 0-12.268.339-18.356-.091-10.6-.754-19.365 7.235-18.486 19.168.686 9.356 7.123 16.252 16.405 16.304 13.508.078 27.03.078 40.538 0 10.057-.052 16.43-6.935 16.443-17.541 0-10.93-6.166-17.683-16.443-17.84-6.696-.091-13.392-.013-20.101-.013v.013zM370.083 96.8085V9.59958c0-1.62655 0-3.26611.246-4.86663.517-3.31815 2.404-5.11386 5.907-5.10085 26.474.03904 53-.91087 79.423.29928C488.027 1.4148 514.308 22.1565 521.74 55.1559c1.771 7.8595 2.573 15.771 2.56 23.8257-.065 35.2374-.026 70.4624-.039 105.6994 0 1.51.091 3.058-.194 4.515-.594 3.071-2.378 5.01-5.7 5.01-10.057.013-20.115.013-30.172 0-2.986 0-4.783-1.652-5.313-4.502-.336-1.809-.374-3.696-.374-5.543-.026-35.693.012-71.399-.026-107.0923-.026-17.1893-9.863-31.1646-25.673-35.1334-13.651-3.4222-29.538-.5205-38.69 12.1015-4.149 5.7255-6.166 12.1796-6.179 19.2323-.026 37.0979-.013 74.1839-.026 111.2819 0 1.392.065 2.798-.103 4.177-.427 3.474-2.534 5.452-5.998 5.478-9.941.052-19.882.013-29.835.026-3.155 0-5.003-1.652-5.546-4.658-.31-1.692-.336-3.462-.336-5.205-.013-29.187-.013-58.374-.013-87.5605zM87.2044 194.232H39.3363c-5.7265 0-7.0839-1.002-8.1309-6.766-2.1717-11.998-4.1366-24.021-6.2308-36.031-3.0507-17.502-6.1531-34.991-9.178-52.4923-2.5337-14.6389-4.9768-29.2909-7.49757-43.9428C5.68781 40.0226 3.03781 25.0454.43951 10.0682.16805 8.46763 0 6.82807 0 5.21454.02585 1.88337 1.74512-.22464 5.00268-.26367 15.5251-.40681 26.0476-.35476 36.57-.2897c3.5032.02603 4.6666 2.7326 5.2871 5.53026 1.0729 4.86664 1.9519 9.78534 2.818 14.70394 2.1976 12.4659 4.3434 24.9318 6.5151 37.3976C54.6676 77.238 58.119 97.134 61.6351 117.03c1.0471 5.947 2.1588 11.88 3.3869 17.788 2.2363 10.774 11.0395 18.113 21.9109 18.412 10.4191.287 19.9981-6.714 22.7121-17.02 2.612-9.889 3.788-20.065 5.611-30.124 3.193-17.7094 6.295-35.4322 9.397-53.1551 2.469-14.1835 4.874-28.367 7.304-42.5504.104-.57259.142-1.15815.246-1.7307 1.396-8.14574 2.43-9.03058 10.535-9.03058 8.441 0 16.883-.02603 25.324.013 5.261.02603 7.42 2.16006 6.631 7.28694-1.965 12.72614-4.188 25.42614-6.36 38.12624-2.999 17.5017-6.037 35.0033-9.074 52.5049-2.56 14.7557-5.171 29.5117-7.731 44.2677-2.546 14.639-5.067 29.278-7.601 43.917-.142.807-.271 1.601-.439 2.395-1.021 4.736-2.573 6.063-7.356 6.063-16.3.026-32.601 0-48.9147 0l-.0129.039z"/></g><defs><clipPath id="clip0_315_46"><path fill="#fff" d="M0 0h700v194H0z"/></clipPath></defs></svg>