<svg xmlns="http://www.w3.org/2000/svg" role="img" viewBox="-556.65 -18.65 202.80 202.80"><g><g><g><path fill="#003882" d="m 0,0 c 0,-43.077 -34.922,-78 -78,-78 -43.078,0 -78,34.923 -78,78 0,43.078 34.922,78 78,78 C -34.922,78 0,43.078 0,0" transform="matrix(1.25 0 0 -1.25 -357.65 82.85)"/></g><g><path fill="#fff" d="m 0,0 -0.18,-2.628 -2.901,1.542 z" transform="matrix(1.25 0 0 -1.25 -369.01 89.863)"/></g><g><path fill="#fff" d="M 0,0 C 0.183,-0.396 0.237,-0.795 0.162,-1.2 0.09,-1.605 -0.165,-2.028 -0.597,-2.469 -1.026,-2.91 -1.773,-3.375 -2.826,-3.867 c -0.889,-0.414 -1.65,-0.654 -2.292,-0.717 -0.645,-0.066 -1.17,0.015 -1.581,0.243 -0.324,0.18 -0.576,0.471 -0.766,0.876 -0.278,0.603 -0.269,1.173 0.028,1.719 0.432,0.783 1.323,1.491 2.685,2.127 1.149,0.534 2.1,0.789 2.853,0.765 C -0.975,1.113 -0.342,0.732 0,0" transform="matrix(1.25 0 0 -1.25 -373.683 45.605)"/></g><g><path fill="#fff" d="m 0,0 -0.45,-0.486 -1.002,-1.011 -1.023,-0.945 -1.026,-0.885 -1.038,-0.822 -1.05,-0.759 -1.05,-0.699 -1.053,-0.636 -1.056,-0.576 -1.053,-0.513 -1.059,-0.456 -1.05,-0.393 -1.044,-0.336 -1.044,-0.276 -1.029,-0.219 -1.023,-0.159 -1.011,-0.102 -0.999,-0.045 -0.984,0.012 -0.972,0.069 -0.951,0.123 -0.936,0.18 -0.921,0.237 -0.9,0.288 -0.879,0.345 -0.858,0.402 -0.831,0.456 -0.699,0.438 -0.27,1.068 -0.492,1.569 -0.558,1.455 c -0.279,0.654 -0.57,1.29 -0.891,1.923 -0.279,0.528 -0.573,1.038 -0.888,1.542 l -0.57,0.786 -1.728,1.971 0.06,-2.877 -0.012,-0.615 c -0.033,-0.597 -0.087,-1.185 -0.162,-1.782 l -0.162,-0.975 -0.159,0.105 -0.441,0.189 -0.462,0.087 -0.477,-0.027 -0.009,-0.003 c -0.555,0.543 -1.11,1.092 -1.665,1.644 -2.562,2.544 -5.085,5.169 -7.383,7.977 0.291,-0.108 0.639,-0.231 1.059,-0.384 0.543,-0.198 1.209,-0.441 2.049,-0.756 l 1.911,-0.519 1.875,-0.411 1.851,-0.315 1.839,-0.219 1.809,-0.126 1.779,-0.033 1.758,0.057 1.719,0.144 1.692,0.231 1.65,0.315 1.608,0.399 1.572,0.477 1.524,0.555 1.476,0.63 1.425,0.705 1.374,0.777 1.314,0.846 1.26,0.915 1.2,0.978 1.128,1.044 1.071,1.104 0.993,1.161 0.924,1.221 0.849,1.272 0.774,1.326 0.15,0.294 C -2.418,12.639 -1.227,6.315 0,0" transform="matrix(1.25 0 0 -1.25 -393.87 95.446)"/></g><g><path fill="#fff" d="m 0,0 c -0.225,-0.111 -0.399,-0.162 -0.528,-0.153 -0.132,0.012 -0.237,0.054 -0.324,0.132 -0.084,0.075 -0.234,0.327 -0.456,0.756 L -2.421,2.922 C -2.049,3.108 -1.746,3.207 -1.5,3.207 -1.254,3.21 -0.987,3.105 -0.699,2.898 -0.402,2.691 -0.126,2.376 0.147,1.959 L 0.363,2.07 -1.71,6.132 -1.926,6.021 C -1.677,5.388 -1.587,4.86 -1.65,4.437 -1.713,4.017 -1.995,3.681 -2.487,3.429 L -2.637,3.351 -4.248,6.51 -3.45,6.918 c 0.588,0.3 1.005,0.471 1.254,0.51 C -1.77,7.5 -1.395,7.464 -1.071,7.323 -0.747,7.182 -0.384,6.858 0.012,6.351 L 0.228,6.462 -0.939,8.76 -7.437,5.448 -7.326,5.235 -7.071,5.367 c 0.255,0.129 0.48,0.177 0.675,0.144 0.144,-0.021 0.267,-0.087 0.372,-0.201 0.063,-0.072 0.177,-0.282 0.36,-0.633 l 2.601,-5.106 c 0.198,-0.387 0.3,-0.639 0.3,-0.753 0.015,-0.156 -0.012,-0.288 -0.087,-0.39 -0.099,-0.15 -0.258,-0.282 -0.483,-0.399 L -3.588,-2.1 -3.483,-2.313 3.225,1.104 2.322,3.75 2.109,3.642 C 2.265,2.859 2.214,2.187 1.947,1.629 1.68,1.071 1.188,0.606 0.462,0.237 Z m -89.211,31.488 v 0 l -0.195,-0.135 c 0.144,-0.225 0.225,-0.414 0.249,-0.57 0.021,-0.159 -0.012,-0.378 -0.093,-0.663 l -0.081,-0.285 -5.037,-3.528 c -0.381,-0.264 -0.705,-0.375 -0.969,-0.333 -0.264,0.045 -0.537,0.264 -0.813,0.654 l -0.198,-0.135 1.773,-2.532 0.195,0.135 -0.12,0.171 c -0.168,0.24 -0.249,0.504 -0.231,0.792 0.006,0.291 0.219,0.576 0.633,0.864 l 4.536,3.177 -2.562,-8.985 0.126,-0.18 5.937,4.161 c 0.336,0.234 0.594,0.372 0.774,0.411 0.18,0.042 0.339,0.03 0.474,-0.03 0.132,-0.06 0.321,-0.228 0.57,-0.504 l 0.195,0.138 -1.65,2.358 -0.195,-0.138 c 0.288,-0.39 0.387,-0.741 0.3,-1.053 -0.063,-0.228 -0.312,-0.492 -0.738,-0.792 l -3.069,-2.148 1.962,6.618 z m 8.985,-23.367 v 0 l -0.156,-0.18 3.426,-2.976 0.156,0.18 c -0.192,0.168 -0.33,0.375 -0.411,0.627 -0.108,0.351 -0.15,0.873 -0.126,1.563 l 0.207,4.905 3.267,-0.132 c 0.801,-0.03 1.296,-0.066 1.488,-0.114 0.189,-0.048 0.399,-0.162 0.645,-0.348 l 0.156,0.18 -2.568,2.232 -0.156,-0.18 c 0.279,-0.255 0.435,-0.432 0.474,-0.528 0.075,-0.192 0.063,-0.351 -0.045,-0.474 -0.144,-0.165 -0.507,-0.237 -1.08,-0.216 l -4.158,0.147 1.782,2.046 c 0.288,0.333 0.489,0.525 0.594,0.57 0.144,0.066 0.276,0.084 0.399,0.057 0.171,-0.039 0.369,-0.153 0.594,-0.348 l 0.156,0.18 -3.273,2.847 -0.156,-0.183 0.213,-0.189 c 0.186,-0.159 0.306,-0.318 0.36,-0.474 0.051,-0.159 0.063,-0.294 0.027,-0.411 -0.039,-0.111 -0.207,-0.339 -0.495,-0.675 l -3.762,-4.326 c -0.288,-0.327 -0.48,-0.516 -0.582,-0.564 -0.144,-0.069 -0.276,-0.09 -0.399,-0.063 -0.177,0.033 -0.357,0.135 -0.549,0.3 l -0.219,0.189 -0.156,-0.18 3.318,-2.883 0.156,0.18 c -0.243,0.21 -0.393,0.393 -0.45,0.549 -0.057,0.156 -0.069,0.291 -0.033,0.408 0.033,0.117 0.195,0.348 0.495,0.693 l 1.557,1.794 0.414,-0.009 h 0.009 l -0.141,-3.207 c -0.027,-0.633 -0.102,-1.017 -0.219,-1.155 -0.063,-0.069 -0.144,-0.102 -0.252,-0.096 -0.105,0.009 -0.273,0.096 -0.507,0.264 z m 16.215,111.921 v 0 c 0.063,-0.06 0.117,-0.123 0.15,-0.192 0.069,-0.114 0.075,-0.225 0.024,-0.33 -0.075,-0.15 -0.264,-0.309 -0.561,-0.474 l -0.153,-0.084 0.114,-0.213 3.726,2.067 -0.114,0.21 c -0.249,-0.111 -0.468,-0.144 -0.657,-0.099 -0.261,0.06 -0.687,0.318 -1.287,0.768 l -6.273,4.776 -0.108,-0.06 0.651,-7.671 c 0.063,-0.732 0.057,-1.239 -0.018,-1.527 -0.069,-0.285 -0.234,-0.525 -0.489,-0.72 l 0.12,-0.21 2.556,1.419 -0.114,0.21 c -0.417,-0.192 -0.693,-0.285 -0.831,-0.282 -0.231,0.006 -0.405,0.117 -0.525,0.33 -0.093,0.165 -0.15,0.399 -0.186,0.708 l -0.09,0.93 2.721,1.509 0.936,-0.735 c 0.246,-0.189 0.381,-0.3 0.408,-0.33 z M 12.723,19.659 v 0 c -0.081,-0.084 -0.27,-0.186 -0.57,-0.3 -0.294,-0.12 -0.531,-0.234 -0.705,-0.345 -0.234,-0.147 -0.447,-0.324 -0.636,-0.531 -0.534,-0.567 -0.789,-1.203 -0.783,-1.908 0.009,-0.705 0.27,-1.296 0.774,-1.77 0.297,-0.276 0.636,-0.462 1.011,-0.558 0.375,-0.096 0.777,-0.108 1.215,-0.042 0.438,0.069 1.071,0.258 1.896,0.573 0.588,0.222 1.026,0.357 1.299,0.402 0.279,0.042 0.528,0.039 0.741,-0.012 0.219,-0.051 0.399,-0.147 0.549,-0.288 0.258,-0.237 0.384,-0.546 0.378,-0.933 -0.003,-0.387 -0.168,-0.756 -0.495,-1.107 -0.423,-0.453 -0.996,-0.711 -1.719,-0.774 -0.723,-0.06 -1.482,0.153 -2.289,0.648 l -0.165,-0.174 2.406,-2.244 0.162,0.177 c -0.078,0.174 -0.102,0.336 -0.078,0.486 0.021,0.15 0.072,0.264 0.147,0.345 0.09,0.099 0.237,0.192 0.441,0.285 0.36,0.165 0.648,0.318 0.852,0.456 0.21,0.141 0.408,0.312 0.597,0.513 0.591,0.639 0.888,1.344 0.897,2.118 0.003,0.771 -0.261,1.407 -0.798,1.902 -0.414,0.393 -0.912,0.612 -1.476,0.66 -0.57,0.042 -1.383,-0.138 -2.445,-0.54 -0.756,-0.288 -1.257,-0.459 -1.5,-0.507 -0.33,-0.069 -0.615,-0.078 -0.84,-0.03 -0.177,0.036 -0.33,0.12 -0.474,0.252 -0.219,0.207 -0.327,0.483 -0.327,0.828 0.003,0.345 0.153,0.678 0.45,0.999 0.387,0.414 0.909,0.645 1.563,0.699 0.66,0.054 1.296,-0.123 1.911,-0.528 l 0.177,0.192 -2.172,1.929 -0.129,-0.141 c 0.153,-0.219 0.234,-0.375 0.237,-0.471 0.009,-0.09 -0.024,-0.18 -0.102,-0.261 z m 16.95,48.876 v 0 c 0.069,-0.057 0.114,-0.141 0.123,-0.252 0.009,-0.117 -0.042,-0.324 -0.156,-0.624 -0.114,-0.3 -0.186,-0.552 -0.219,-0.756 -0.045,-0.273 -0.057,-0.549 -0.033,-0.828 0.066,-0.774 0.366,-1.392 0.9,-1.857 0.528,-0.465 1.14,-0.669 1.833,-0.609 0.405,0.036 0.768,0.162 1.089,0.378 0.318,0.213 0.603,0.504 0.843,0.876 0.246,0.369 0.525,0.966 0.846,1.788 0.225,0.588 0.417,1.002 0.573,1.236 0.153,0.237 0.318,0.42 0.504,0.546 0.177,0.126 0.375,0.195 0.579,0.213 0.345,0.03 0.657,-0.084 0.945,-0.345 0.288,-0.261 0.45,-0.63 0.489,-1.107 C 38.046,66.576 37.851,65.976 37.413,65.4 36.978,64.821 36.309,64.398 35.4,64.131 l 0.024,-0.24 3.276,0.288 -0.024,0.237 c -0.177,0.06 -0.315,0.15 -0.414,0.267 -0.096,0.117 -0.15,0.228 -0.159,0.339 -0.012,0.135 0.018,0.306 0.084,0.519 0.123,0.381 0.201,0.693 0.234,0.942 0.033,0.249 0.039,0.507 0.018,0.783 -0.078,0.867 -0.402,1.563 -0.975,2.082 -0.576,0.519 -1.218,0.75 -1.947,0.687 -0.57,-0.051 -1.065,-0.27 -1.479,-0.66 -0.414,-0.393 -0.822,-1.119 -1.233,-2.178 -0.294,-0.756 -0.504,-1.242 -0.627,-1.455 -0.174,-0.291 -0.354,-0.504 -0.54,-0.645 -0.147,-0.105 -0.312,-0.162 -0.501,-0.18 -0.303,-0.027 -0.585,0.075 -0.837,0.309 -0.258,0.234 -0.402,0.57 -0.438,1.005 -0.051,0.564 0.126,1.104 0.525,1.629 0.399,0.522 0.951,0.876 1.668,1.065 l -0.021,0.261 -2.886,-0.321 0.015,-0.192 c 0.264,-0.033 0.435,-0.081 0.51,-0.138 z m -87.771,62.76 v 0 l -4.326,-1.407 0.075,-0.228 c 0.351,0.12 0.606,0.165 0.762,0.138 0.156,-0.027 0.276,-0.09 0.369,-0.192 0.093,-0.099 0.213,-0.39 0.369,-0.87 l 1.338,-4.101 c 0.225,-0.696 0.513,-1.215 0.873,-1.554 0.357,-0.338 0.846,-0.555 1.47,-0.639 0.456,-0.066 1.05,0.018 1.776,0.252 0.867,0.285 1.494,0.69 1.875,1.221 0.387,0.528 0.567,1.032 0.555,1.509 -0.006,0.48 -0.174,1.212 -0.495,2.196 l -1.035,3.18 c -0.108,0.342 -0.159,0.588 -0.15,0.735 0.012,0.213 0.075,0.393 0.204,0.54 0.126,0.144 0.306,0.255 0.54,0.33 l 0.174,0.057 -0.075,0.228 -2.895,-0.942 0.069,-0.228 c 0.339,0.111 0.618,0.147 0.831,0.115 0.138,-0.025 0.276,-0.103 0.408,-0.238 0.129,-0.135 0.255,-0.39 0.375,-0.765 l 1.11,-3.414 c 0.288,-0.891 0.414,-1.539 0.369,-1.95 -0.042,-0.411 -0.186,-0.768 -0.441,-1.077 -0.252,-0.306 -0.603,-0.534 -1.059,-0.681 -0.393,-0.129 -0.75,-0.156 -1.062,-0.078 -0.306,0.075 -0.561,0.216 -0.75,0.423 -0.192,0.207 -0.411,0.684 -0.654,1.434 l -1.338,4.101 c -0.15,0.477 -0.225,0.786 -0.213,0.918 0.018,0.139 0.075,0.261 0.168,0.369 0.105,0.105 0.312,0.21 0.639,0.318 l 0.216,0.069 z m 11.937,2.697 v 0 c -0.114,-0.021 -0.327,0.012 -0.639,0.102 -0.312,0.087 -0.573,0.138 -0.78,0.153 -0.276,0.021 -0.558,0.009 -0.837,-0.042 -0.771,-0.135 -1.371,-0.489 -1.788,-1.064 -0.426,-0.577 -0.576,-1.213 -0.45,-1.9 0.069,-0.408 0.225,-0.759 0.474,-1.065 0.243,-0.306 0.564,-0.561 0.957,-0.774 0.393,-0.213 1.017,-0.441 1.875,-0.693 0.612,-0.177 1.044,-0.333 1.293,-0.465 0.255,-0.135 0.45,-0.288 0.594,-0.459 0.144,-0.174 0.231,-0.363 0.264,-0.567 0.066,-0.345 -0.021,-0.672 -0.264,-0.984 -0.237,-0.309 -0.594,-0.507 -1.068,-0.591 -0.618,-0.111 -1.239,0.03 -1.857,0.42 -0.624,0.39 -1.107,1.029 -1.455,1.917 l -0.24,-0.042 0.576,-3.273 0.237,0.042 c 0.045,0.189 0.126,0.336 0.231,0.441 0.108,0.108 0.219,0.171 0.333,0.189 0.129,0.024 0.306,0.012 0.525,-0.036 0.393,-0.09 0.717,-0.141 0.969,-0.153 0.255,-0.012 0.519,0.006 0.792,0.054 0.864,0.153 1.539,0.54 2.013,1.164 0.468,0.621 0.645,1.293 0.513,2.019 -0.099,0.57 -0.363,1.047 -0.789,1.428 -0.435,0.381 -1.2,0.732 -2.304,1.053 -0.789,0.228 -1.296,0.396 -1.521,0.501 -0.306,0.15 -0.537,0.312 -0.699,0.492 -0.117,0.132 -0.186,0.297 -0.225,0.486 -0.051,0.303 0.03,0.594 0.243,0.87 0.213,0.279 0.537,0.456 0.969,0.531 0.564,0.099 1.125,-0.03 1.689,-0.383 0.561,-0.358 0.969,-0.886 1.218,-1.591 l 0.264,0.048 -0.582,2.877 -0.189,-0.033 c -0.012,-0.27 -0.042,-0.444 -0.093,-0.525 -0.051,-0.077 -0.138,-0.129 -0.249,-0.147 z M -89.787,32.142 v 0 l 0.219,0.096 -1.851,4.155 -0.213,-0.096 -0.255,0.561 0.219,0.099 -1.851,4.161 -0.219,-0.096 0.12,-0.264 c 0.099,-0.225 0.138,-0.417 0.12,-0.582 -0.015,-0.168 -0.069,-0.291 -0.15,-0.381 -0.084,-0.087 -0.327,-0.222 -0.732,-0.402 l -5.238,-2.334 c -0.399,-0.177 -0.657,-0.264 -0.768,-0.264 -0.156,-0.003 -0.288,0.033 -0.387,0.111 -0.144,0.102 -0.27,0.273 -0.369,0.501 l -0.12,0.264 -0.219,-0.096 1.857,-4.161 0.249,-0.564 1.851,-4.155 0.219,0.099 -0.12,0.258 c -0.099,0.222 -0.138,0.417 -0.123,0.582 0.018,0.168 0.072,0.297 0.15,0.384 0.081,0.09 0.33,0.222 0.735,0.405 l 5.238,2.331 c 0.399,0.177 0.651,0.267 0.768,0.264 0.159,0 0.288,-0.036 0.384,-0.114 0.147,-0.102 0.267,-0.27 0.375,-0.504 z m 127.539,25.8 v 0 c 0.087,-0.141 0.114,-0.384 0.09,-0.72 l -0.012,-0.174 0.237,-0.015 0.297,4.203 -0.24,0.018 c -0.039,-0.264 -0.132,-0.465 -0.273,-0.6 -0.189,-0.18 -0.627,-0.396 -1.326,-0.648 l -7.347,-2.637 -0.006,-0.12 6.717,-3.594 c 0.639,-0.339 1.062,-0.618 1.26,-0.834 0.192,-0.216 0.306,-0.48 0.33,-0.795 l 0.237,-0.018 0.201,2.889 -0.237,0.018 c -0.063,-0.45 -0.138,-0.732 -0.213,-0.843 -0.129,-0.189 -0.315,-0.273 -0.555,-0.255 -0.186,0.012 -0.411,0.087 -0.687,0.228 l -0.822,0.423 0.213,3.072 1.119,0.384 c 0.291,0.099 0.453,0.153 0.492,0.159 0.087,0.018 0.162,0.027 0.24,0.021 0.132,-0.009 0.222,-0.063 0.285,-0.162 z M 26.673,63.03 v 0 c 0,33.285 -27.15,60.435 -60.438,60.435 -33.285,0 -60.435,-27.15 -60.435,-60.435 0,-33.288 27.15,-60.435 60.435,-60.435 33.288,0 60.438,27.147 60.438,60.435 z m -60.435,76.236 v 0 c 41.988,0 76.236,-34.248 76.236,-76.239 0,-41.988 -34.248,-76.236 -76.236,-76.236 -41.988,0 -76.236,34.248 -76.236,76.236 0,41.991 34.248,76.239 76.236,76.239 z M 35.874,44.214 v 0 L 36.9,48.66 36.672,48.714 36.609,48.432 C 36.552,48.189 36.465,48.009 36.351,47.889 36.237,47.766 36.123,47.694 36,47.673 c -0.12,-0.024 -0.396,0.015 -0.825,0.114 l -6.549,1.512 0.147,0.633 c 0.09,0.396 0.189,0.666 0.303,0.807 0.201,0.252 0.438,0.432 0.708,0.54 0.267,0.108 0.681,0.171 1.242,0.18 l 0.054,0.228 -2.295,0.531 -1.761,-7.626 2.298,-0.531 0.054,0.24 c -0.603,0.237 -1.035,0.582 -1.287,1.02 -0.18,0.315 -0.21,0.759 -0.075,1.332 l 0.138,0.612 6.549,-1.512 c 0.426,-0.099 0.687,-0.183 0.774,-0.252 0.126,-0.096 0.21,-0.204 0.24,-0.324 0.051,-0.171 0.051,-0.378 -0.003,-0.627 L 35.646,44.268 Z M 31.56,32.283 v 0 l 2.694,7.029 -2.442,1.359 -0.087,-0.222 c 0.642,-0.477 1.053,-1.011 1.227,-1.602 0.177,-0.594 0.123,-1.269 -0.168,-2.031 l -0.186,-0.483 c -0.093,-0.234 -0.186,-0.39 -0.288,-0.471 -0.108,-0.078 -0.219,-0.117 -0.333,-0.117 -0.114,0 -0.393,0.087 -0.84,0.261 l -2.295,0.879 c 0.15,0.387 0.318,0.663 0.495,0.828 0.18,0.165 0.45,0.267 0.802,0.306 0.359,0.042 0.773,-0.003 1.259,-0.132 l 0.087,0.228 -4.26,1.632 -0.087,-0.225 c 0.609,-0.309 1.029,-0.639 1.263,-0.996 0.237,-0.354 0.252,-0.792 0.054,-1.308 l -0.063,-0.162 -3.306,1.272 0.324,0.84 c 0.231,0.615 0.429,1.02 0.588,1.218 0.264,0.336 0.567,0.561 0.903,0.672 0.336,0.114 0.825,0.114 1.458,0.003 l 0.087,0.228 -2.409,0.924 -2.613,-6.807 0.225,-0.087 0.102,0.273 c 0.099,0.264 0.237,0.45 0.408,0.558 0.117,0.081 0.255,0.111 0.408,0.099 0.093,-0.015 0.321,-0.09 0.687,-0.231 l 5.355,-2.055 c 0.405,-0.156 0.651,-0.273 0.729,-0.354 0.114,-0.108 0.177,-0.225 0.192,-0.351 0.033,-0.177 0,-0.381 -0.093,-0.618 l -0.099,-0.27 z m 0.504,57.108 v 0 c 0.411,1.14 0.306,2.322 -0.303,3.546 -0.009,0.024 -0.021,0.045 -0.033,0.069 -0.501,1.2 -1.332,2.019 -2.502,2.457 -1.164,0.438 -2.337,0.378 -3.525,-0.174 -1.053,-0.492 -1.824,-1.227 -2.301,-2.205 -0.609,-1.23 -0.576,-2.559 0.078,-3.984 0.003,-0.009 0.006,-0.021 0.012,-0.03 0.672,-1.431 1.698,-2.301 3.084,-2.61 1.041,-0.234 2.073,-0.117 3.087,0.357 1.179,0.552 1.986,1.41 2.403,2.574 z M 26.997,24.384 v 0 l 2.277,3.951 -0.207,0.12 -0.141,-0.252 C 28.8,27.987 28.665,27.84 28.524,27.759 c -0.147,-0.084 -0.276,-0.12 -0.399,-0.105 -0.123,0.012 -0.375,0.129 -0.762,0.351 l -5.817,3.36 0.321,0.561 c 0.207,0.354 0.384,0.582 0.531,0.684 0.267,0.183 0.543,0.285 0.837,0.312 0.288,0.024 0.702,-0.039 1.239,-0.192 l 0.117,0.201 -2.04,1.179 -3.912,-6.777 2.04,-1.179 0.123,0.213 c -0.51,0.405 -0.816,0.858 -0.93,1.353 -0.084,0.354 0.024,0.786 0.315,1.293 l 0.315,0.543 5.82,-3.36 c 0.378,-0.216 0.6,-0.372 0.666,-0.465 0.09,-0.126 0.138,-0.255 0.135,-0.381 0,-0.18 -0.063,-0.378 -0.189,-0.597 l -0.147,-0.249 z m 1.257,75.285 v 0 l -1.581,2.439 -0.201,-0.132 c 0.27,-0.405 0.363,-0.762 0.264,-1.074 -0.072,-0.228 -0.336,-0.486 -0.777,-0.774 l -3.174,-2.061 2.214,6.618 -1.701,2.619 -0.201,-0.132 c 0.138,-0.228 0.216,-0.423 0.231,-0.582 0.018,-0.162 -0.024,-0.384 -0.114,-0.666 l -0.099,-0.285 -5.211,-3.387 c -0.39,-0.252 -0.72,-0.354 -0.99,-0.3 -0.264,0.054 -0.534,0.282 -0.801,0.687 l -0.201,-0.129 1.701,-2.622 0.201,0.132 -0.114,0.174 c -0.162,0.249 -0.228,0.522 -0.204,0.813 0.018,0.291 0.243,0.573 0.666,0.849 l 4.698,3.048 -2.91,-8.985 0.126,-0.186 6.147,3.993 c 0.348,0.225 0.612,0.354 0.792,0.39 0.186,0.033 0.345,0.015 0.474,-0.051 0.135,-0.063 0.324,-0.24 0.564,-0.528 z M 21.612,16.983 v 0 l 2.802,3.591 -0.186,0.147 -0.177,-0.228 c -0.15,-0.195 -0.3,-0.321 -0.459,-0.384 -0.153,-0.06 -0.288,-0.075 -0.405,-0.045 -0.12,0.03 -0.351,0.18 -0.702,0.456 l -4.521,3.528 c -0.339,0.267 -0.54,0.453 -0.591,0.555 -0.075,0.138 -0.102,0.27 -0.081,0.396 0.021,0.177 0.111,0.363 0.27,0.564 l 0.177,0.228 -0.189,0.147 -2.802,-3.591 0.189,-0.147 0.177,0.228 c 0.15,0.192 0.3,0.318 0.453,0.381 0.159,0.063 0.294,0.078 0.408,0.045 0.117,-0.03 0.351,-0.183 0.699,-0.459 l 4.518,-3.528 c 0.345,-0.267 0.546,-0.45 0.597,-0.552 0.075,-0.138 0.102,-0.27 0.084,-0.393 C 21.849,17.745 21.759,17.559 21.6,17.358 L 21.426,17.13 Z m 0.015,92.04 v 0 l -3.018,3.474 -0.183,-0.156 0.195,-0.222 c 0.159,-0.186 0.255,-0.36 0.288,-0.525 0.03,-0.165 0.018,-0.303 -0.033,-0.414 -0.051,-0.108 -0.252,-0.312 -0.588,-0.606 l -4.374,-3.801 c -0.33,-0.288 -0.552,-0.45 -0.663,-0.483 -0.15,-0.051 -0.288,-0.054 -0.405,-0.006 -0.171,0.057 -0.342,0.183 -0.507,0.375 l -0.192,0.219 -0.183,-0.156 3.021,-3.477 0.18,0.159 -0.189,0.222 c -0.162,0.186 -0.261,0.36 -0.291,0.525 -0.033,0.165 -0.021,0.303 0.027,0.414 0.054,0.111 0.252,0.315 0.588,0.609 l 4.374,3.801 c 0.336,0.291 0.552,0.453 0.663,0.483 0.153,0.048 0.291,0.051 0.414,0.003 0.171,-0.057 0.336,-0.183 0.504,-0.375 l 0.195,-0.222 z m -4.839,5.322 v 0 l 0.153,0.186 -2.742,2.304 -5.562,-2.913 1.836,6.039 -2.757,2.313 -0.153,-0.186 0.213,-0.177 c 0.189,-0.159 0.312,-0.318 0.372,-0.477 0.054,-0.159 0.069,-0.297 0.036,-0.411 -0.033,-0.117 -0.195,-0.345 -0.483,-0.687 L 4.122,116.07 c -0.258,-0.303 -0.399,-0.471 -0.435,-0.501 -0.171,-0.126 -0.324,-0.204 -0.462,-0.234 -0.138,-0.03 -0.291,-0.018 -0.465,0.039 -0.171,0.06 -0.336,0.15 -0.48,0.279 l -0.069,0.06 -0.156,-0.183 2.307,-1.938 0.159,0.183 c -0.309,0.261 -0.495,0.501 -0.549,0.729 -0.06,0.225 -0.036,0.438 0.057,0.639 0.048,0.09 0.21,0.303 0.492,0.633 l 3.981,4.752 -2.493,-8.313 0.117,-0.102 2.721,1.398 5.028,2.586 -4.197,-5.001 C 9.399,110.76 9.201,110.565 9.102,110.517 8.955,110.445 8.823,110.421 8.7,110.445 c -0.174,0.03 -0.363,0.129 -0.561,0.297 l -0.222,0.183 -0.153,-0.186 3.522,-2.952 0.153,0.183 -0.222,0.183 c -0.183,0.159 -0.312,0.318 -0.366,0.477 -0.063,0.159 -0.072,0.297 -0.039,0.414 0.039,0.117 0.201,0.348 0.489,0.693 l 3.735,4.446 c 0.276,0.336 0.468,0.528 0.576,0.576 0.138,0.069 0.273,0.093 0.39,0.069 0.183,-0.033 0.372,-0.132 0.57,-0.297 z M 13.353,8.619 v 0 L 13.209,8.805 C 13.017,8.667 12.813,8.598 12.597,8.589 c -0.15,0 -0.45,0.063 -0.906,0.186 L 8.211,9.75 c 0.327,0.438 0.519,0.852 0.588,1.245 0.09,0.615 -0.06,1.173 -0.465,1.674 -0.333,0.408 -0.744,0.669 -1.23,0.78 C 6.621,13.56 6.141,13.518 5.673,13.323 5.199,13.131 4.551,12.699 3.735,12.036 L 3.648,11.967 0.588,9.489 0.738,9.306 C 1.05,9.555 1.284,9.699 1.44,9.735 1.602,9.771 1.74,9.756 1.863,9.699 1.986,9.642 2.196,9.429 2.49,9.063 L 6.051,4.668 C 6.342,4.302 6.51,4.056 6.537,3.927 6.567,3.795 6.552,3.657 6.489,3.507 6.426,3.36 6.237,3.159 5.922,2.904 L 6.072,2.721 9.537,5.526 9.387,5.712 C 9.075,5.46 8.841,5.319 8.685,5.283 8.526,5.247 8.388,5.259 8.262,5.319 8.139,5.376 7.935,5.589 7.638,5.955 l -1.536,1.896 0.444,0.36 4.68,-1.317 z m -8.052,114.69 v 0 l 0.129,0.204 -3.906,2.439 -0.123,-0.204 0.246,-0.156 c 0.207,-0.129 0.354,-0.27 0.429,-0.417 0.078,-0.15 0.111,-0.285 0.087,-0.405 -0.015,-0.12 -0.147,-0.372 -0.384,-0.753 l -3.069,-4.914 c -0.234,-0.372 -0.396,-0.591 -0.495,-0.654 -0.126,-0.093 -0.255,-0.135 -0.387,-0.126 -0.177,0.003 -0.378,0.075 -0.591,0.21 l -0.249,0.156 -0.126,-0.204 3.9,-2.442 0.129,0.207 -0.249,0.153 c -0.207,0.132 -0.351,0.27 -0.429,0.42 -0.078,0.147 -0.111,0.282 -0.09,0.402 0.015,0.123 0.141,0.375 0.381,0.756 l 3.072,4.914 c 0.234,0.375 0.399,0.591 0.495,0.657 0.129,0.087 0.264,0.132 0.39,0.12 0.177,-0.003 0.378,-0.075 0.591,-0.21 z m -7.872,0.024 v 0 c 0.363,0.819 0.51,1.635 0.426,2.448 -0.081,0.813 -0.408,1.539 -0.981,2.178 -0.471,0.522 -1.185,0.996 -2.148,1.425 l -0.531,0.237 -3.069,1.365 -0.099,-0.219 0.27,-0.12 c 0.228,-0.099 0.39,-0.216 0.483,-0.354 0.099,-0.135 0.147,-0.264 0.144,-0.387 0,-0.12 -0.09,-0.39 -0.273,-0.801 l -2.361,-5.292 c -0.18,-0.414 -0.312,-0.654 -0.387,-0.723 -0.114,-0.099 -0.252,-0.159 -0.405,-0.177 -0.159,-0.015 -0.351,0.027 -0.585,0.132 l -0.267,0.117 -0.099,-0.219 3.603,-1.605 c 0.513,-0.231 0.903,-0.375 1.167,-0.435 0.594,-0.138 1.119,-0.201 1.581,-0.18 0.462,0.021 0.903,0.12 1.329,0.303 0.432,0.183 0.837,0.471 1.236,0.867 0.39,0.393 0.714,0.873 0.966,1.44 z M -8.661,4.521 v 0 l -0.084,0.225 -2.682,-0.978 0.078,-0.222 c 0.288,0.102 0.525,0.153 0.723,0.147 0.147,-0.003 0.264,-0.039 0.363,-0.108 0.102,-0.069 0.168,-0.165 0.213,-0.285 0.039,-0.105 0.063,-0.24 0.075,-0.405 0.009,-0.165 -0.003,-0.501 -0.036,-1.011 l -0.3,-4.218 -3.225,3.441 c -0.342,0.363 -0.549,0.591 -0.615,0.678 -0.072,0.084 -0.12,0.165 -0.147,0.237 -0.039,0.117 -0.027,0.222 0.048,0.315 0.096,0.135 0.321,0.267 0.675,0.396 l 0.135,0.048 -0.084,0.225 -3.924,-1.428 0.084,-0.222 c 0.327,0.078 0.576,0.072 0.738,-0.027 0.165,-0.093 0.561,-0.471 1.185,-1.134 l 5.178,-5.484 0.198,0.072 0.54,7.281 c 0.063,0.867 0.141,1.431 0.237,1.692 0.138,0.354 0.348,0.612 0.627,0.765 z m -4.287,125.034 v 0 l 0.675,2.514 -7.116,1.908 -0.063,-0.231 0.279,-0.078 c 0.276,-0.072 0.477,-0.189 0.609,-0.348 0.09,-0.111 0.138,-0.243 0.138,-0.402 0,-0.093 -0.057,-0.333 -0.159,-0.717 l -1.5,-5.595 c -0.114,-0.426 -0.204,-0.684 -0.276,-0.771 -0.099,-0.125 -0.21,-0.207 -0.336,-0.234 -0.174,-0.048 -0.378,-0.039 -0.627,0.027 l -0.285,0.078 -0.063,-0.234 7.356,-1.971 1.104,2.604 -0.234,0.06 c -0.408,-0.696 -0.903,-1.164 -1.479,-1.404 -0.576,-0.24 -1.263,-0.252 -2.061,-0.042 l -0.504,0.138 c -0.246,0.066 -0.411,0.147 -0.501,0.24 -0.093,0.096 -0.144,0.204 -0.156,0.318 -0.012,0.117 0.048,0.405 0.171,0.876 l 0.642,2.394 c 0.408,-0.108 0.699,-0.243 0.885,-0.408 0.186,-0.162 0.315,-0.423 0.396,-0.774 0.078,-0.354 0.078,-0.777 0,-1.275 l 0.237,-0.066 1.191,4.455 -0.237,0.063 c -0.246,-0.642 -0.534,-1.101 -0.864,-1.377 -0.336,-0.273 -0.774,-0.336 -1.311,-0.192 l -0.171,0.045 0.93,3.462 0.879,-0.233 c 0.645,-0.175 1.074,-0.328 1.287,-0.466 0.363,-0.233 0.624,-0.513 0.774,-0.84 0.147,-0.327 0.198,-0.813 0.15,-1.461 z M -17.016,-6.924 v 0 l -0.06,0.231 -0.276,-0.069 c -0.243,-0.06 -0.435,-0.066 -0.597,-0.021 -0.162,0.045 -0.276,0.117 -0.351,0.213 -0.075,0.096 -0.165,0.36 -0.276,0.792 l -1.386,5.562 c -0.102,0.423 -0.147,0.69 -0.126,0.801 0.027,0.159 0.09,0.279 0.18,0.363 0.132,0.126 0.318,0.216 0.558,0.279 l 0.285,0.069 -0.06,0.231 -4.422,-1.101 0.06,-0.231 0.279,0.069 c 0.237,0.06 0.435,0.066 0.597,0.021 0.162,-0.048 0.273,-0.12 0.348,-0.216 0.075,-0.096 0.165,-0.36 0.273,-0.792 l 1.386,-5.562 c 0.105,-0.423 0.144,-0.69 0.126,-0.801 -0.024,-0.156 -0.084,-0.276 -0.174,-0.36 -0.132,-0.126 -0.318,-0.219 -0.561,-0.279 l -0.282,-0.069 0.057,-0.231 z m -5.538,136.263 v 0 l 0.018,0.24 -4.275,0.3 -0.015,-0.243 0.228,-0.015 c 0.21,-0.015 0.387,-0.069 0.534,-0.159 0.138,-0.096 0.231,-0.192 0.276,-0.297 0.039,-0.105 0.048,-0.33 0.024,-0.675 l -0.132,-1.827 c -0.24,-0.069 -0.468,-0.12 -0.693,-0.15 -0.153,-0.021 -0.306,-0.03 -0.456,-0.03 -0.069,0 -0.138,0.003 -0.204,0.006 -0.609,0.045 -1.125,0.231 -1.542,0.558 -0.423,0.33 -0.711,0.819 -0.867,1.467 -0.153,0.648 -0.204,1.395 -0.141,2.235 0.048,0.696 0.186,1.369 0.411,2.017 0.228,0.647 0.576,1.142 1.038,1.478 0.462,0.339 1.017,0.486 1.674,0.441 0.69,-0.048 1.305,-0.315 1.851,-0.795 0.549,-0.48 0.939,-1.155 1.167,-2.019 l 0.246,-0.018 0.213,3.096 -0.237,0.018 c -0.105,-0.24 -0.213,-0.401 -0.324,-0.483 -0.105,-0.081 -0.225,-0.117 -0.342,-0.108 -0.084,0.003 -0.324,0.103 -0.738,0.294 -0.42,0.192 -0.72,0.312 -0.906,0.36 -0.342,0.093 -0.738,0.156 -1.17,0.186 -1.41,0.099 -2.61,-0.276 -3.6,-1.122 -0.996,-0.846 -1.533,-1.929 -1.629,-3.252 -0.051,-0.738 0.054,-1.416 0.318,-2.034 0.201,-0.477 0.501,-0.915 0.894,-1.314 0.396,-0.399 0.861,-0.732 1.395,-0.996 0.54,-0.267 1.224,-0.429 2.055,-0.486 0.144,-0.009 0.288,-0.018 0.429,-0.018 0.501,-0.015 0.993,0.009 1.476,0.075 0.615,0.087 1.212,0.234 1.791,0.447 l 0.126,1.827 c 0.024,0.318 0.057,0.516 0.099,0.597 0.084,0.153 0.186,0.255 0.321,0.312 0.129,0.06 0.357,0.087 0.687,0.087 z M -24.912,-0.033 v 0 l -0.021,0.237 -2.865,-0.249 0.021,-0.237 c 0.477,0.051 0.837,-0.039 1.062,-0.267 0.165,-0.171 0.267,-0.516 0.315,-1.038 l 0.324,-3.732 -4.749,5.007 -3.078,-0.267 0.018,-0.237 c 0.264,0.012 0.474,-0.009 0.621,-0.069 0.144,-0.06 0.324,-0.198 0.525,-0.411 l 0.204,-0.216 0.537,-6.123 c 0.039,-0.462 -0.027,-0.798 -0.198,-1.005 -0.168,-0.207 -0.492,-0.336 -0.969,-0.381 l 0.018,-0.237 3.081,0.27 -0.021,0.237 -0.204,-0.018 c -0.297,-0.027 -0.567,0.039 -0.807,0.195 -0.243,0.153 -0.39,0.48 -0.429,0.978 l -0.486,5.517 6.501,-6.711 0.216,0.018 -0.63,7.227 c -0.036,0.408 -0.024,0.699 0.027,0.876 0.06,0.174 0.147,0.303 0.264,0.39 0.12,0.087 0.36,0.168 0.723,0.246 z M -34.986,-0.72 v 0 l 0.015,0.237 -2.997,0.261 -0.024,-0.237 c 0.348,-0.03 0.618,-0.102 0.804,-0.216 0.114,-0.078 0.21,-0.201 0.276,-0.372 0.063,-0.174 0.081,-0.456 0.045,-0.843 l -0.309,-3.54 c -0.081,-0.921 -0.222,-1.56 -0.417,-1.917 -0.195,-0.36 -0.468,-0.627 -0.819,-0.81 -0.345,-0.183 -0.756,-0.252 -1.224,-0.213 -0.414,0.036 -0.744,0.15 -0.996,0.342 -0.255,0.186 -0.429,0.414 -0.525,0.678 -0.099,0.261 -0.111,0.78 -0.042,1.557 l 0.369,4.248 c 0.048,0.495 0.099,0.804 0.162,0.921 0.069,0.12 0.168,0.207 0.294,0.267 0.132,0.06 0.369,0.075 0.705,0.045 l 0.225,-0.021 0.018,0.24 -4.479,0.39 -0.021,-0.237 c 0.369,-0.027 0.621,-0.084 0.75,-0.168 0.126,-0.084 0.213,-0.189 0.258,-0.315 0.045,-0.126 0.051,-0.441 0.006,-0.939 l -0.375,-4.251 c -0.063,-0.72 0.006,-1.302 0.195,-1.752 0.198,-0.444 0.555,-0.831 1.092,-1.152 0.393,-0.237 0.963,-0.387 1.719,-0.453 0.9,-0.078 1.626,0.051 2.181,0.384 0.552,0.333 0.912,0.72 1.089,1.161 0.174,0.441 0.309,1.173 0.393,2.19 l 0.294,3.297 c 0.027,0.354 0.075,0.597 0.141,0.729 0.093,0.189 0.222,0.327 0.393,0.411 0.168,0.081 0.378,0.114 0.618,0.093 z m -21.489,1.647 v 0 l 1.02,2.718 -0.177,0.072 c -0.15,-0.222 -0.267,-0.351 -0.354,-0.39 -0.087,-0.039 -0.177,-0.039 -0.282,0.003 -0.108,0.042 -0.27,0.183 -0.483,0.42 -0.216,0.237 -0.411,0.417 -0.579,0.54 -0.219,0.165 -0.456,0.3 -0.72,0.405 -0.723,0.291 -1.407,0.306 -2.061,0.042 -0.657,-0.261 -1.113,-0.714 -1.377,-1.356 -0.15,-0.378 -0.204,-0.759 -0.156,-1.143 0.045,-0.384 0.177,-0.765 0.396,-1.152 0.216,-0.381 0.624,-0.903 1.212,-1.56 0.417,-0.471 0.699,-0.831 0.843,-1.071 0.138,-0.246 0.225,-0.477 0.255,-0.699 0.027,-0.219 0.006,-0.423 -0.075,-0.615 -0.129,-0.321 -0.375,-0.549 -0.735,-0.684 -0.363,-0.135 -0.765,-0.114 -1.209,0.063 -0.579,0.234 -1.023,0.678 -1.341,1.329 -0.315,0.651 -0.39,1.443 -0.213,2.37 l -0.225,0.09 -1.227,-3.051 0.219,-0.087 c 0.138,0.135 0.276,0.216 0.426,0.249 0.144,0.033 0.27,0.03 0.375,-0.012 0.126,-0.051 0.267,-0.156 0.426,-0.312 0.279,-0.279 0.525,-0.492 0.729,-0.633 0.207,-0.144 0.438,-0.267 0.69,-0.369 0.81,-0.33 1.575,-0.354 2.298,-0.081 0.726,0.276 1.224,0.747 1.494,1.422 0.219,0.534 0.243,1.071 0.087,1.617 -0.162,0.546 -0.624,1.242 -1.38,2.088 -0.543,0.606 -0.882,1.014 -1.014,1.218 -0.18,0.288 -0.288,0.546 -0.33,0.78 -0.024,0.171 0,0.348 0.069,0.525 0.111,0.282 0.33,0.483 0.657,0.606 0.324,0.12 0.687,0.099 1.092,-0.066 0.525,-0.21 0.927,-0.612 1.212,-1.206 0.288,-0.594 0.351,-1.251 0.195,-1.974 z m -8.082,1.686 v 0 c 0.669,1.11 0.852,2.256 0.552,3.441 -0.3,1.185 -1.056,2.112 -2.277,2.784 -0.015,0.009 -0.03,0.018 -0.045,0.027 -1.062,0.684 -2.184,0.885 -3.366,0.6 -1.194,-0.285 -2.13,-0.981 -2.793,-2.091 -0.594,-0.987 -0.819,-2.016 -0.669,-3.084 0.186,-1.353 0.954,-2.433 2.298,-3.24 0.126,-0.078 0.255,-0.147 0.381,-0.21 1.209,-0.615 2.406,-0.693 3.588,-0.225 0.987,0.384 1.764,1.053 2.331,1.998 z m -5.118,112.953 v 0 l -0.138,0.198 -0.243,-0.168 c -0.201,-0.141 -0.387,-0.219 -0.555,-0.234 -0.165,-0.015 -0.3,0.012 -0.408,0.075 -0.105,0.063 -0.282,0.279 -0.543,0.648 l -3.324,4.746 c -0.252,0.363 -0.39,0.597 -0.408,0.711 -0.03,0.156 -0.018,0.294 0.039,0.408 0.075,0.165 0.219,0.318 0.429,0.465 l 0.24,0.168 -0.144,0.198 -3.768,-2.643 0.135,-0.195 0.24,0.168 c 0.204,0.141 0.387,0.219 0.555,0.231 0.168,0.015 0.306,-0.009 0.405,-0.075 0.102,-0.063 0.288,-0.282 0.546,-0.651 l 3.318,-4.746 c 0.255,-0.36 0.393,-0.597 0.411,-0.708 0.039,-0.156 0.027,-0.291 -0.03,-0.405 -0.075,-0.165 -0.219,-0.318 -0.426,-0.465 l -0.243,-0.168 0.138,-0.198 z m -5.556,-4.44 v 0 l -5.001,5.364 c -0.279,0.303 -0.456,0.54 -0.519,0.714 -0.066,0.174 -0.075,0.333 -0.036,0.477 0.039,0.141 0.186,0.357 0.426,0.645 l -0.165,0.177 -2.13,-1.983 0.168,-0.177 c 0.345,0.339 0.687,0.489 1.008,0.447 0.237,-0.033 0.537,-0.243 0.9,-0.63 l 2.58,-2.769 -6.9,1.032 -2.286,-2.13 0.162,-0.177 c 0.207,0.177 0.381,0.288 0.537,0.333 0.156,0.042 0.381,0.042 0.675,0 l 0.3,-0.045 4.236,-4.545 c 0.321,-0.339 0.477,-0.648 0.471,-0.921 -0.006,-0.273 -0.189,-0.576 -0.543,-0.909 l 0.168,-0.177 2.286,2.133 -0.168,0.174 -0.15,-0.141 c -0.219,-0.204 -0.474,-0.321 -0.762,-0.348 -0.294,-0.03 -0.612,0.144 -0.957,0.513 l -3.813,4.095 9.351,-1.302 z m -4.551,-91.914 v 0 l -2.925,3.489 -0.186,-0.153 0.186,-0.222 c 0.159,-0.186 0.252,-0.363 0.276,-0.525 0.033,-0.165 0.018,-0.3 -0.036,-0.408 -0.057,-0.108 -0.258,-0.303 -0.594,-0.591 l -4.389,-3.684 c -0.336,-0.279 -0.561,-0.435 -0.669,-0.465 -0.15,-0.048 -0.282,-0.048 -0.399,0 -0.168,0.06 -0.333,0.186 -0.495,0.381 l -0.186,0.219 -0.183,-0.153 2.925,-3.489 0.183,0.153 -0.183,0.222 c -0.156,0.189 -0.249,0.363 -0.279,0.528 -0.027,0.162 -0.015,0.297 0.036,0.405 0.057,0.111 0.252,0.309 0.594,0.594 l 4.389,3.684 c 0.336,0.282 0.555,0.435 0.669,0.468 0.15,0.042 0.285,0.042 0.405,-0.006 0.168,-0.06 0.33,-0.186 0.495,-0.378 l 0.186,-0.222 z m -2.316,85.2 v 0 l -2.19,2.202 -0.168,-0.207 c 0.408,-0.594 0.681,-1.089 0.813,-1.491 0.132,-0.399 0.162,-0.771 0.093,-1.116 -0.069,-0.348 -0.249,-0.702 -0.543,-1.065 l -0.462,-0.57 c -0.258,-0.324 -0.438,-0.513 -0.537,-0.576 -0.144,-0.078 -0.282,-0.099 -0.408,-0.063 -0.126,0.039 -0.369,0.198 -0.717,0.483 l -4.359,3.531 c -0.342,0.276 -0.543,0.465 -0.591,0.57 -0.075,0.141 -0.102,0.276 -0.075,0.402 0.024,0.18 0.123,0.366 0.279,0.564 l 0.246,0.3 -0.189,0.15 -2.955,-3.648 0.186,-0.153 0.183,0.228 c 0.156,0.192 0.312,0.318 0.468,0.378 0.156,0.06 0.294,0.072 0.411,0.039 0.12,-0.033 0.357,-0.192 0.702,-0.474 l 4.506,-3.648 c 0.342,-0.276 0.537,-0.468 0.588,-0.57 0.075,-0.138 0.099,-0.273 0.075,-0.399 -0.027,-0.177 -0.12,-0.366 -0.282,-0.564 l -0.183,-0.228 0.189,-0.15 z m -7.764,-11.223 v 0 l 2.301,3.987 -0.213,0.12 -0.144,-0.252 c -0.126,-0.216 -0.258,-0.363 -0.405,-0.447 -0.144,-0.084 -0.276,-0.117 -0.396,-0.105 -0.123,0.012 -0.381,0.132 -0.774,0.357 l -5.013,2.898 c -0.381,0.219 -0.606,0.375 -0.675,0.471 -0.093,0.129 -0.138,0.258 -0.138,0.384 0,0.183 0.063,0.381 0.195,0.603 l 0.144,0.255 -0.207,0.12 -2.301,-3.99 0.207,-0.12 0.144,0.255 c 0.126,0.213 0.255,0.36 0.405,0.444 0.144,0.084 0.276,0.12 0.402,0.102 0.117,-0.012 0.375,-0.135 0.762,-0.36 l 5.019,-2.895 c 0.381,-0.222 0.606,-0.378 0.669,-0.471 0.099,-0.126 0.15,-0.252 0.144,-0.381 0,-0.18 -0.063,-0.381 -0.189,-0.603 l -0.15,-0.252 z m -2.4,-5.307 v 0 l -4.818,5.592 c -0.57,0.666 -0.918,1.125 -1.038,1.383 -0.156,0.348 -0.189,0.681 -0.099,0.99 l -0.219,0.102 -1.221,-2.616 0.219,-0.102 c 0.126,0.279 0.264,0.486 0.408,0.624 0.105,0.099 0.219,0.159 0.336,0.18 0.12,0.021 0.237,0.003 0.357,-0.051 0.099,-0.048 0.213,-0.126 0.339,-0.24 0.123,-0.108 0.36,-0.357 0.699,-0.747 l 2.799,-3.225 -4.767,0.15 c -0.501,0.015 -0.807,0.03 -0.921,0.045 -0.111,0.012 -0.198,0.036 -0.273,0.069 -0.108,0.054 -0.177,0.138 -0.195,0.255 -0.024,0.168 0.039,0.42 0.201,0.768 l 0.063,0.129 -0.219,0.102 -1.782,-3.825 0.219,-0.102 c 0.174,0.294 0.357,0.465 0.543,0.513 0.189,0.051 0.738,0.063 1.656,0.036 l 7.62,-0.222 z m -1.8,-45.048 v 0 l -0.063,0.24 c -0.219,-0.024 -0.393,-0.003 -0.513,0.069 -0.123,0.069 -0.204,0.171 -0.237,0.303 -0.03,0.105 -0.018,0.366 0.027,0.786 0.081,0.729 0.042,1.386 -0.12,1.977 -0.213,0.804 -0.612,1.509 -1.2,2.115 -0.588,0.609 -1.305,1.026 -2.133,1.251 -0.831,0.228 -1.65,0.234 -2.454,0.021 -0.762,-0.204 -1.425,-0.588 -2.001,-1.146 -0.57,-0.561 -0.945,-1.236 -1.119,-2.028 -0.174,-0.795 -0.138,-1.641 0.099,-2.538 0.189,-0.684 0.459,-1.251 0.813,-1.701 0.357,-0.453 0.846,-0.849 1.47,-1.188 l 0.726,0.195 c -0.702,0.336 -1.221,0.693 -1.575,1.071 -0.351,0.378 -0.594,0.834 -0.738,1.362 -0.171,0.645 -0.156,1.215 0.054,1.704 0.207,0.489 0.594,0.915 1.164,1.269 0.564,0.357 1.23,0.636 1.98,0.837 0.765,0.204 1.494,0.261 2.19,0.168 0.543,-0.072 1.023,-0.288 1.443,-0.645 0.417,-0.357 0.699,-0.798 0.837,-1.323 0.168,-0.63 0.12,-1.245 -0.15,-1.851 -0.276,-0.606 -0.768,-1.101 -1.482,-1.488 l 0.069,-0.243 z m -2.736,10.494 v 0 l -0.759,7.251 -0.237,-0.024 0.027,-0.288 c 0.03,-0.282 -0.006,-0.507 -0.108,-0.684 -0.069,-0.123 -0.174,-0.213 -0.318,-0.273 -0.087,-0.03 -0.33,-0.066 -0.72,-0.105 l -5.7,-0.6 c -0.435,-0.045 -0.705,-0.051 -0.813,-0.015 -0.15,0.045 -0.261,0.117 -0.33,0.225 -0.105,0.144 -0.174,0.339 -0.201,0.591 l -0.03,0.288 -0.237,-0.024 0.786,-7.488 2.796,-0.102 -0.021,0.237 c -0.792,0.132 -1.398,0.423 -1.824,0.873 -0.426,0.447 -0.681,1.074 -0.768,1.884 l -0.057,0.516 c -0.024,0.249 -0.006,0.432 0.045,0.549 0.06,0.117 0.141,0.204 0.243,0.255 0.099,0.051 0.393,0.102 0.867,0.153 l 2.439,0.255 c 0.045,-0.411 0.024,-0.732 -0.063,-0.963 -0.081,-0.228 -0.276,-0.441 -0.576,-0.636 -0.294,-0.198 -0.687,-0.348 -1.179,-0.453 l 0.03,-0.24 4.53,0.477 -0.024,0.24 c -0.681,-0.003 -1.206,0.102 -1.575,0.312 -0.375,0.213 -0.588,0.594 -0.642,1.143 l -0.021,0.171 3.525,0.369 0.096,-0.894 c 0.069,-0.654 0.081,-1.107 0.03,-1.353 -0.087,-0.423 -0.255,-0.759 -0.501,-1.011 -0.255,-0.252 -0.681,-0.474 -1.299,-0.663 l 0.03,-0.243 z m -0.633,8.925 v 0 l 0.27,7.818 -2.352,0.084 -0.012,-0.246 c 0.639,-0.12 1.125,-0.372 1.458,-0.756 0.243,-0.276 0.348,-0.705 0.33,-1.293 l -0.024,-0.627 -6.714,0.234 c -0.438,0.015 -0.705,0.048 -0.807,0.099 -0.144,0.069 -0.243,0.162 -0.3,0.273 -0.081,0.159 -0.123,0.363 -0.111,0.615 l 0.012,0.291 -0.243,0.006 -0.156,-4.557 0.237,-0.009 0.012,0.288 c 0.006,0.249 0.057,0.444 0.144,0.582 0.087,0.144 0.189,0.234 0.3,0.279 0.111,0.048 0.393,0.063 0.837,0.045 l 6.72,-0.234 -0.027,-0.648 c -0.012,-0.405 -0.06,-0.69 -0.141,-0.849 -0.153,-0.288 -0.351,-0.507 -0.594,-0.669 -0.246,-0.156 -0.639,-0.297 -1.188,-0.414 l -0.012,-0.231 z" transform="matrix(1.25 0 0 -1.25 -412.92 161.555)"/></g><g><path fill="#fff" d="m 0,0 c 11.796,1.842 23.832,-1.392 20.997,-11.925 -0.024,-0.099 -0.051,-0.198 -0.081,-0.297 -1.071,17.28 -26.61,12.165 -42.033,1.122 l -0.933,0.912 c -0.663,0.6 -1.332,1.176 -2.028,1.743 -0.612,0.483 -1.23,0.957 -1.851,1.428 -0.003,0.009 -0.012,0.021 -0.012,0.03 0,0.042 0.003,0.084 0.009,0.123 l 0.006,1.437 -0.03,0.705 -0.123,1.383 -0.225,1.341 -0.324,1.296 -0.432,1.239 -0.219,0.477 -0.321,0.702 -0.312,0.564 -0.336,0.546 -0.369,0.528 -0.399,0.507 -0.426,0.483 -0.294,0.303 c -0.03,0.081 -0.051,0.159 -0.075,0.24 4.395,6.819 9.333,10.569 14.484,11.592 C -5.4,13.923 6.105,11.76 14.457,8.811 6.933,9.03 3.084,4.902 0,0" transform="matrix(1.25 0 0 -1.25 -424.695 49.307)"/></g><g><path fill="#fff" d="m 0,0 c 0.051,-0.327 -0.009,-0.627 -0.171,-0.897 -0.156,-0.27 -0.468,-0.594 -0.93,-0.969 l -0.285,-0.231 -2.403,2.967 0.531,0.432 c 0.537,0.435 1.029,0.624 1.47,0.576 C -1.35,1.827 -0.921,1.542 -0.501,1.026 -0.213,0.669 -0.048,0.33 0,0" transform="matrix(1.25 0 0 -1.25 -403.92 148.678)"/></g><g><path fill="#fff" d="m 0,0 c 1.26,-8.37 -4.53,-3.849 -9.375,-2.613 0,0.267 0.321,0.477 0.657,0.639 3.813,-0.654 8.664,-4.929 7.878,1.221 C -0.87,-0.504 -0.354,0 0,0" transform="matrix(1.25 0 0 -1.25 -404.914 38.881)"/></g><g><path fill="#fff" d="m 0,0 -1.002,-0.612 -0.579,-0.315 c -6.696,1.695 -10.599,0.606 -16.26,-1.311 -0.051,0.111 -0.099,0.219 -0.153,0.33 -0.153,0.327 -0.318,0.651 -0.492,0.972 C -11.505,1.479 -7.737,2.226 0,0" transform="matrix(1.25 0 0 -1.25 -411.386 81.406)"/></g><g><path fill="#fff" d="m 0,0 c 0.192,-0.426 0.405,-0.654 0.831,-0.672 0.558,-0.024 0.744,0.276 0.903,0.657 0.159,0.39 0.252,1.491 0.21,2.397 0.045,-0.012 0.09,-0.021 0.135,-0.033 0.06,-0.558 0.147,-1.59 0.207,-2.136 0.06,-0.552 0.246,-1.521 0.306,-2.07 -0.732,0.264 -1.461,0.492 -2.181,0.645 -0.714,0.15 -1.422,0.231 -2.121,0.198 -0.015,0.09 -0.033,0.183 -0.051,0.276 0.054,0.003 0.108,0.009 0.159,0.015 0.144,0.009 0.243,0.069 0.312,0.174 0.051,0.072 0.075,0.192 0.081,0.36 0.003,0.123 -0.042,0.435 -0.132,0.939 -0.096,0.552 -0.189,1.104 -0.282,1.656 -0.09,0.555 -0.177,1.113 -0.261,1.668 -0.084,0.558 -0.162,1.116 -0.24,1.674 -0.078,0.561 -0.153,1.119 -0.225,1.68 -0.057,0.465 -0.093,0.75 -0.12,0.858 C -2.514,8.463 -2.583,8.604 -2.664,8.709 -2.778,8.862 -2.919,8.943 -3.09,8.946 -3.15,8.949 -3.204,8.943 -3.261,8.94 -3.273,9.033 -3.288,9.126 -3.297,9.222 -2.571,9.168 -1.848,9.036 -1.128,8.967 -0.411,8.898 0.303,8.829 1.011,8.742 1.047,8.223 1.047,8.298 1.092,7.779 1.137,7.26 1.173,6.612 1.23,6.09 1.182,6.102 1.134,6.108 1.092,6.12 0.942,6.894 0.837,7.317 0.681,7.665 0.525,8.016 0.291,8.226 0.042,8.412 -0.285,8.658 -0.879,8.667 -1.281,8.7 c 0.069,-0.678 0.144,-1.023 0.228,-1.701 0.081,-0.672 0.174,-1.35 0.27,-2.025 0.03,-0.006 0.066,-0.009 0.099,-0.015 0.315,-0.054 0.549,0.12 0.636,0.483 C 0.039,5.814 0.054,6.393 0,7.185 0.045,7.176 0.093,7.167 0.141,7.155 0.246,6.258 0.354,5.355 0.489,4.455 0.621,3.558 0.771,2.655 0.921,1.755 0.876,1.773 0.825,1.791 0.78,1.803 0.651,2.406 0.507,2.901 0.351,3.306 0.198,3.708 0.051,3.993 -0.096,4.155 -0.243,4.317 -0.468,4.386 -0.702,4.416 -0.63,3.948 -0.555,3.48 -0.48,3.015 -0.351,2.235 -0.279,0.621 0,0" transform="matrix(1.25 0 0 -1.25 -412.144 68.521)"/></g><g><path fill="#fff" d="m 0,0 c 0.045,-0.759 -0.159,-1.656 -0.618,-2.688 -0.567,-1.281 -1.227,-2.121 -1.974,-2.52 -0.546,-0.294 -1.155,-0.294 -1.815,0 -0.051,0.021 -0.096,0.045 -0.138,0.066 -0.129,0.072 -0.222,0.147 -0.285,0.228 -0.054,0.072 -0.087,0.153 -0.081,0.243 0.003,0.09 0.078,0.3 0.225,0.633 l 2.793,6.276 C -1.233,1.947 -0.783,1.68 -0.555,1.428 -0.231,1.074 -0.045,0.6 0,0" transform="matrix(1.25 0 0 -1.25 -418.065 2.896)"/></g><g><path fill="#fff" d="M 0,0 C 0.714,0.153 1.329,0.069 1.821,-0.204 2.424,-0.543 2.925,-1.131 3.318,-1.938 3.513,-2.343 3.675,-2.781 3.807,-3.246 3.939,-3.711 4.041,-4.203 4.116,-4.728 4.215,-5.451 4.251,-6.123 4.218,-6.735 4.182,-7.356 4.107,-7.872 3.984,-8.289 3.864,-8.7 3.699,-9.036 3.504,-9.303 3.309,-9.579 3.057,-9.81 2.748,-9.996 2.61,-10.08 2.382,-10.149 2.067,-10.221 l -0.135,0.564 c 0.033,0 0.069,0.003 0.108,0.012 0.405,0.084 0.666,0.423 0.783,1.032 0.081,0.411 0.102,0.924 0.078,1.539 -0.027,0.615 -0.105,1.332 -0.246,2.151 -0.111,0.66 -0.24,1.245 -0.387,1.761 -0.15,0.519 -0.312,0.969 -0.501,1.344 -0.294,0.591 -0.618,0.969 -0.957,1.134 -0.24,0.117 -0.606,0.126 -1.089,0.015 l -0.132,0.576 C -0.273,-0.06 -0.138,-0.03 0,0" transform="matrix(1.25 0 0 -1.25 -420.337 57.328)"/></g><g><path fill="#fff" d="m 0,0 c -0.732,-0.165 -1.455,-0.369 -2.175,-0.588 -0.018,0.093 -0.045,0.183 -0.069,0.276 0.054,0.018 0.108,0.039 0.159,0.057 0.144,0.042 0.243,0.117 0.294,0.231 0.051,0.114 0.078,0.258 0.075,0.426 0,0.111 -0.063,0.429 -0.189,0.954 -0.261,1.113 -0.531,2.226 -0.792,3.339 -0.264,1.113 -0.525,2.229 -0.789,3.342 -0.123,0.516 -0.216,0.837 -0.279,0.96 -0.06,0.117 -0.15,0.219 -0.27,0.288 -0.123,0.069 -0.264,0.081 -0.432,0.036 -0.066,-0.018 -0.129,-0.039 -0.192,-0.06 -0.021,0.093 -0.045,0.186 -0.069,0.279 0.744,0.207 1.494,0.414 2.25,0.588 l 0.132,-0.576 c 0.276,-1.329 0.558,-2.655 0.834,-3.984 0.279,-1.326 0.558,-2.652 0.837,-3.981 0.087,-0.42 0.153,-0.675 0.192,-0.768 0.042,-0.09 0.09,-0.153 0.144,-0.192 0.06,-0.042 0.123,-0.063 0.204,-0.063 z" transform="matrix(1.25 0 0 -1.25 -417.754 70.104)"/></g><g><path fill="#fff" d="m 0,0 c 0.783,-4.419 0.3,-9.273 -3.558,-12.282 l -0.027,0.021 -0.237,0.108 -0.246,0.072 -0.249,0.03 -0.474,-0.036 C -5.01,-12.141 -5.196,-12.21 -5.4,-12.303 l -0.183,-0.096 -0.369,-0.222 c -0.213,-0.159 -0.369,-0.306 -0.54,-0.51 l -0.255,-0.393 c -0.063,-0.129 -0.123,-0.261 -0.174,-0.39 -0.192,1.995 -0.237,3.777 -0.18,5.4 0.156,4.218 1.014,7.329 1.785,10.152 l 0.045,0.021 c 0.219,0.15 0.381,0.288 0.561,0.48 0.15,0.201 0.273,0.387 0.39,0.609 l 0.159,0.432 c 0.051,0.237 0.072,0.435 0.069,0.678 -0.027,0.24 -0.072,0.432 -0.147,0.66 -0.075,0.162 -0.15,0.303 -0.243,0.444 0.318,1.509 0.507,3.036 0.441,4.716 C -2.832,8.406 -0.783,4.422 0,0" transform="matrix(1.25 0 0 -1.25 -428.227 105.883)"/></g><g><path fill="#fff" d="M 0,0 C 0.105,0.321 0.138,0.711 0.102,1.179 0.063,1.647 -0.111,2.412 -0.426,3.48 -0.63,4.161 -0.834,4.848 -1.038,5.529 c -0.204,0.678 -0.405,1.362 -0.606,2.046 -0.135,0.45 -0.258,0.759 -0.369,0.933 -0.111,0.174 -0.216,0.285 -0.321,0.327 -0.159,0.069 -0.354,0.06 -0.585,-0.024 -0.027,0.09 -0.057,0.183 -0.084,0.273 0.657,0.24 1.326,0.474 1.995,0.696 C -0.984,9.687 -0.957,9.594 -0.93,9.501 -0.972,9.489 -1.011,9.474 -1.05,9.462 -1.212,9.408 -1.335,9.309 -1.407,9.165 -1.482,9.012 -1.512,8.817 -1.494,8.571 -1.485,8.403 -1.419,8.115 -1.299,7.701 -1.116,7.065 -0.93,6.429 -0.744,5.793 -0.558,5.157 -0.372,4.521 -0.192,3.885 0.15,2.706 0.357,1.836 0.435,1.281 0.513,0.729 0.477,0.174 0.33,-0.381 0.183,-0.939 -0.12,-1.323 -0.588,-1.545 -0.975,-1.731 -1.311,-1.77 -1.605,-1.647 -2.004,-1.482 -2.355,-1.185 -2.658,-0.759 -2.964,-0.33 -3.27,0.297 -3.585,1.131 -3.891,1.947 -4.2,2.763 -4.509,3.576 -4.818,4.395 -5.124,5.211 -5.433,6.027 -5.652,6.603 -5.799,6.954 -5.886,7.08 -5.973,7.203 -6.081,7.29 -6.198,7.335 -6.315,7.38 -6.489,7.35 -6.717,7.242 c -0.036,0.09 -0.072,0.183 -0.108,0.273 0.948,0.414 1.905,0.816 2.874,1.203 0.027,-0.093 0.06,-0.183 0.09,-0.276 C -3.915,8.424 -3.96,8.409 -4.008,8.391 -4.227,8.307 -4.362,8.202 -4.416,8.088 -4.467,7.974 -4.482,7.836 -4.467,7.68 c 0.012,-0.156 0.123,-0.519 0.321,-1.089 0.285,-0.819 0.57,-1.635 0.855,-2.451 0.285,-0.816 0.573,-1.629 0.858,-2.445 0.312,-0.897 0.552,-1.473 0.714,-1.731 0.165,-0.261 0.348,-0.45 0.555,-0.576 0.21,-0.126 0.42,-0.138 0.636,-0.039 C -0.276,-0.534 -0.102,-0.315 0,0" transform="matrix(1.25 0 0 -1.25 -422.857 70.614)"/></g><g><path fill="#fff" d="M 0,0 C 0.984,-0.096 1.554,-0.606 1.473,-1.605 1.317,-2.49 0.705,-2.997 -0.279,-2.901 c -0.843,0.081 -1.596,1.053 -1.785,1.476 l -1.596,0.153 0.027,0.291 1.584,-0.15 C -1.803,-0.762 -0.861,0.081 0,0" transform="matrix(1.25 0 0 -1.25 -433.264 126.11)"/></g><g><path fill="#fff" d="m 0,0 c -0.531,-0.321 -1.047,-0.642 -1.563,-0.963 0.105,-0.366 0.219,-0.729 0.333,-1.092 0.111,-0.369 0.225,-0.654 0.339,-0.87 0.147,-0.279 0.306,-0.456 0.468,-0.528 0.09,-0.042 0.258,-0.012 0.486,0.093 0.048,-0.09 0.093,-0.183 0.141,-0.273 -0.441,-0.306 -0.882,-0.615 -1.317,-0.906 -0.054,0.09 -0.102,0.183 -0.153,0.276 0.111,0.144 0.147,0.372 0.108,0.681 -0.039,0.309 -0.201,0.891 -0.462,1.752 -0.039,0.126 -0.075,0.252 -0.114,0.378 l -0.228,0.993 c 0.072,0.039 0.147,0.078 0.228,0.117 0.447,0.27 0.9,0.546 1.356,0.819 -0.39,0.51 -0.78,1.02 -1.179,1.524 -0.399,0.51 -0.807,1.02 -1.218,1.527 -0.042,0.027 -0.081,0.048 -0.12,0.066 l -0.756,3.282 c 0.405,-0.504 0.81,-1.008 1.212,-1.509 0.48,-0.606 0.957,-1.209 1.422,-1.815 0.465,-0.603 0.921,-1.209 1.371,-1.812 0.45,-0.603 0.894,-1.209 1.335,-1.812 0.498,-0.684 0.84,-1.095 1.02,-1.242 0.135,-0.108 0.276,-0.138 0.42,-0.084 0.042,-0.09 0.078,-0.18 0.114,-0.27 C 2.898,-1.878 2.553,-2.091 2.214,-2.304 1.872,-2.52 1.533,-2.736 1.203,-2.955 c -0.045,0.093 -0.09,0.18 -0.135,0.273 0.027,0.018 0.054,0.039 0.081,0.057 0.165,0.105 0.255,0.231 0.27,0.381 C 1.428,-2.136 1.395,-2.007 1.326,-1.86 1.284,-1.773 1.233,-1.686 1.179,-1.599 1.155,-1.557 1.038,-1.392 0.825,-1.104 0.552,-0.735 0.276,-0.369 0,0" transform="matrix(1.25 0 0 -1.25 -431.355 72.197)"/></g><g><path fill="#fff" d="m 0,0 -0.111,0.006 -1.634,0.18 -1.654,0.261 -1.674,0.345 -1.653,0.42 c 0.18,3.702 0.015,7.392 -1.08,9.954 1.866,-0.75 5.463,-5.838 7.047,-9.117 C -0.354,1.215 -0.081,0.498 0,0" transform="matrix(1.25 0 0 -1.25 -433.939 86.612)"/></g><g><path fill="#fff" d="M 0,0 C -0.036,0.444 0.177,1.689 0.903,2.157 1.731,2.694 2.364,2.88 3.051,1.812 3.615,0.939 3.435,0.447 2.889,0 L 2.736,0.036 C 2.469,0.075 2.253,0.084 1.986,0.063 L 1.515,-0.042 C 1.227,-0.15 0.963,-0.279 0.717,-0.432 0.489,-0.375 0.291,-0.306 0.168,-0.24 l -1.344,-0.87 -0.159,0.246 z" transform="matrix(1.25 0 0 -1.25 -436.219 125.199)"/></g><g><path fill="#fff" d="M 0,0 C -0.168,0.411 -0.345,1.665 0.198,2.331 0.825,3.096 1.572,3.288 2.349,2.661 3,2.043 3.084,1.254 2.457,0.486 1.92,-0.168 0.696,-0.252 0.234,-0.174 l -1.011,-1.242 -0.228,0.186 z" transform="matrix(1.25 0 0 -1.25 -437.962 103.16)"/></g><g><path fill="#fff" d="M 0,0 -0.122,-0.06 -0.423,1.422 0.624,2.637 Z" transform="matrix(1.25 0 0 -1.25 -437.858 107.637)"/></g><g><path fill="#fff" d="m 0,0 c 0.669,3.318 0.984,6.681 0.861,10.104 -0.057,1.545 -0.204,3.105 -0.45,4.674 -0.078,0.507 -0.168,1.014 -0.267,1.521 0.186,0 0.372,0.003 0.558,0.003 0.732,-2.181 0.993,-5.049 0.903,-8.298 -0.18,-6.777 -1.875,-15.213 -3.936,-22.539 -0.909,0 -1.815,0 -2.727,0 C -2.778,-9.768 -0.996,-4.938 0,0" transform="matrix(1.25 0 0 -1.25 -440.051 126.508)"/></g><g><path fill="#fff" d="M 0,0 -1.293,-0.051 -3.099,2.814 Z" transform="matrix(1.25 0 0 -1.25 -439.391 97.006)"/></g><g><path fill="#fff" d="m 0,0 c -0.396,0.21 -1.323,1.068 -1.323,1.929 0,0.99 0.189,1.62 1.455,1.62 1.044,0 1.359,-0.423 1.434,-1.125 L 1.452,2.316 C 1.278,2.115 1.152,1.938 1.02,1.704 L 0.855,1.248 C 0.789,0.951 0.756,0.66 0.753,0.369 0.579,0.207 0.414,0.081 0.291,0.012 V -1.59 H 0 Z" transform="matrix(1.25 0 0 -1.25 -440.126 102.279)"/></g><g><path fill="#fff" d="M 0,0 C 3.087,-3.729 12.384,-11.391 11.667,-18.141 4.26,-14.124 -0.735,-4.596 0,0" transform="matrix(1.25 0 0 -1.25 -455.411 89.574)"/></g><g><path fill="#fff" d="m 0,0 c 3.642,-4.608 13.263,-8.43 12.87,-17.865 -1.332,0.252 -2.745,0.885 -4.128,1.845 C 4.596,-13.134 0.711,-7.302 0,0" transform="matrix(1.25 0 0 -1.25 -457.065 103.989)"/></g><g><path fill="#fff" d="M 0,0 1.728,-2.868 1.302,-3.354 0.81,-2.253 -0.768,1.278 Z" transform="matrix(1.25 0 0 -1.25 -443.989 93.924)"/></g><g><path fill="#fff" d="m 0,0 c 0.459,-1.47 0.897,-3.084 1.32,-4.815 l -0.024,0.039 -0.027,0.099 -0.225,0.696 -0.27,0.69 -0.303,0.681 -0.339,0.678 -0.774,1.335 c -0.426,0.666 -0.867,1.308 -1.335,1.947 -0.48,0.63 -0.978,1.248 -1.479,1.863 -1.185,1.38 -2.451,2.691 -3.708,3.996 0.687,0.627 1.38,1.251 2.076,1.866 -0.015,0.006 -0.027,0.024 -0.03,0.054 1.266,-0.765 2.541,-2.604 3.642,-5.094 0.255,-0.573 0.498,-1.182 0.732,-1.821 V 2.202 L -0.756,1.77 C -0.741,1.506 -0.702,1.293 -0.627,1.041 L -0.429,0.612 C -0.3,0.393 -0.156,0.189 0,0" transform="matrix(1.25 0 0 -1.25 -441.851 102.107)"/></g><g><path fill="#fff" d="m 0,0 -1.743,0.033 -1.77,0.12 -1.797,0.216 -1.815,0.306 -1.836,0.405 -1.854,0.504 -1.863,0.603 -0.174,0.066 -0.909,0.345 0.309,0.735 C -11.1,2.445 -8.778,1.803 -6.507,1.392 1.434,-0.054 8.745,1.29 14.475,4.587 20.214,7.887 24.366,13.14 25.986,19.509 27.645,11.028 29.187,2.661 30.849,-5.82 21.834,-15.933 10.683,-18.63 2.514,-14.241 l -0.123,0.708 -0.054,0.309 0.924,-0.489 0.903,-0.423 0.93,-0.363 0.942,-0.306 0.972,-0.246 0.981,-0.189 1.005,-0.129 1.017,-0.072 1.029,-0.012 1.047,0.045 1.053,0.108 1.068,0.165 1.074,0.225 1.08,0.288 1.086,0.348 1.089,0.408 1.086,0.471 1.089,0.531 1.089,0.591 1.086,0.657 1.077,0.717 1.074,0.78 1.065,0.84 1.056,0.906 1.041,0.969 1.026,1.032 0.744,0.801 C 28.548,1.707 27.186,8.994 25.785,16.275 L 25.263,15.057 24.597,13.728 23.85,12.447 23.025,11.214 22.134,10.035 21.165,8.91 20.136,7.839 19.035,6.831 17.874,5.88 16.653,4.992 15.375,4.173 14.04,3.417 12.66,2.733 11.223,2.121 9.744,1.581 8.211,1.116 6.645,0.729 5.037,0.423 3.39,0.195 1.71,0.054 Z" transform="matrix(1.25 0 0 -1.25 -430.23 88.794)"/></g><g><path fill="#fff" d="m 0,0 -0.444,-0.135 c -0.027,-0.012 -0.051,-0.027 -0.077,-0.039 0.002,0.03 -0.004,0.057 -0.01,0.087 l -0.144,0.348 c -0.114,0.189 -0.222,0.324 -0.378,0.48 -0.18,0.141 -0.332,0.234 -0.54,0.327 l -0.411,0.117 c -0.42,0.066 -0.795,0.066 -1.217,0.021 L -3.66,1.095 c -0.156,0.423 -0.285,0.846 -0.393,1.269 -0.393,1.575 -0.447,3.147 -0.213,4.653 0.093,0.594 0.228,1.176 0.408,1.743 4.677,-3.525 12.096,-9.768 7.602,-20.037 -0.111,-0.258 -0.231,-0.516 -0.36,-0.78 -0.306,0.129 -0.798,0.429 -0.93,1.056 -0.471,2.274 -1.32,4.38 -2.439,6.198 0.345,0.042 0.678,0.126 1.017,0.252 l 0.411,0.207 c 0.219,0.15 0.381,0.288 0.561,0.483 0.153,0.198 0.273,0.384 0.393,0.606 l 0.159,0.432 c 0.048,0.237 0.069,0.438 0.066,0.678 -0.027,0.24 -0.069,0.432 -0.147,0.66 -0.098,0.213 -0.198,0.387 -0.332,0.579 L 1.815,-0.546 1.38,-0.249 0.939,-0.06 0.471,0.024 Z" transform="matrix(1.25 0 0 -1.25 -452.374 70.243)"/></g><g><path fill="#fff" d="m 0,0 -1.014,-1.242 -0.225,0.186 1.002,1.23 C -0.408,0.585 -0.579,1.839 -0.036,2.505 0.588,3.273 1.335,3.462 2.115,2.835 2.766,2.217 2.847,1.428 2.217,0.66 1.686,0.006 0.459,-0.078 0,0" transform="matrix(1.25 0 0 -1.25 -453.42 75.242)"/></g><g><path fill="#fff" d="M 0,0 0.231,0.78 0.363,1.608 0.387,2.475 0.3,3.36 0.099,4.245 l -0.324,0.861 -0.21,0.417 -0.249,0.402 -0.276,0.384 -0.315,0.366 -0.351,0.339 -0.393,0.309 -0.426,0.276 -0.456,0.24 -0.498,0.198 -0.144,0.039 0.684,0.381 c -2.037,0.711 -4.071,1.428 -6.096,2.172 -5.037,1.872 -10.029,3.864 -15.012,5.871 -1.011,0.405 -2.037,0.795 -3.036,1.23 0.873,0.966 1.749,1.929 2.619,2.895 -11.187,-1.164 -20.265,1.107 -24.714,10.926 l 0.906,3.255 c 1.821,-9.003 9.333,-13.131 18.507,-12.933 12.285,0.261 19.668,4.401 25.803,9.396 l 0.315,-0.384 0.429,-3.636 0.141,-0.918 0.174,-0.903 0.201,-0.885 0.234,-0.864 0.543,-1.674 0.648,-1.593 0.738,-1.506 L 0.357,17.493 1.242,16.176 2.19,14.958 3.189,13.851 4.227,12.852 5.298,11.97 5.847,11.589 6.39,11.211 7.5,10.578 7.644,10.512 C 5.157,5.337 1.887,0.21 -0.837,-1.671 l 0.138,0.492 0.129,0.15 0.222,0.321 0.189,0.345 z" transform="matrix(1.25 0 0 -1.25 -454.016 139.318)"/></g><g><path fill="#fff" d="M 0,0 C 0.15,1.473 0.687,3.414 0.579,3.459 0.42,3.528 -0.315,1.647 -0.618,0.339 c -4.479,2.529 -8.073,6.051 -9.756,9.771 -0.222,0.48 -0.408,0.966 -0.561,1.455 -0.135,0.438 -0.246,0.879 -0.324,1.32 2.253,-1.698 5.886,-3.231 9.171,-5.658 C 0.81,5.088 3.435,2.256 4.593,-1.995 3,-1.452 1.458,-0.78 0,0" transform="matrix(1.25 0 0 -1.25 -455.216 87.466)"/></g><g><path fill="#fff" d="m 0,0 c 5.373,-0.771 5.031,-8.697 1.98,-8.805 -1.428,0 -3.204,0.993 -3.204,3.489 0,2.754 2.151,2.766 2.163,3.681 0.006,0.582 -1.431,0.783 -1.863,1.044 0.219,0.162 0.444,0.312 0.687,0.459 z" transform="matrix(1.25 0 0 -1.25 -459.772 129.958)"/></g><g><path fill="#fff" d="m 0,0 c 0.291,-0.678 0.603,-1.332 0.939,-1.992 l 0.753,-1.338 0.852,-1.332 0.948,-1.305 1.035,-1.269 1.116,-1.215 1.2,-1.149 1.275,-1.065 1.35,-0.966 0.702,-0.441 1.8,-1.029 c -0.228,-1.149 -0.63,-2.508 -1.152,-3.984 l -0.264,0.561 -0.378,0.687 -0.411,0.66 -0.438,0.636 -0.471,0.612 -0.99,1.158 c -0.525,0.549 -1.059,1.077 -1.611,1.596 l -1.11,0.984 c -1.554,1.317 -3.171,2.565 -4.689,3.933 -0.414,0.393 -0.807,0.789 -1.194,1.212 l -2.103,2.514 -0.315,0.384 c 1.032,0.837 2.028,1.701 3.006,2.574 0.012,-0.054 0.027,-0.111 0.051,-0.165 z" transform="matrix(1.25 0 0 -1.25 -454.924 97.547)"/></g><g><path fill="#fff" d="m 0,0 v -1.602 h -0.297 v 1.59 c -0.39,0.21 -1.317,1.068 -1.317,1.929 0,0.99 0.186,1.62 1.452,1.62 1.047,0 1.359,-0.423 1.437,-1.122 L 1.161,2.304 C 0.984,2.103 0.861,1.926 0.729,1.692 L 0.564,1.236 C 0.498,0.939 0.462,0.648 0.459,0.357 0.288,0.195 0.123,0.069 0,0" transform="matrix(1.25 0 0 -1.25 -455.512 74.128)"/></g><g><path fill="#fff" d="m 0,0 -0.048,-0.324 -1.041,-0.225 -1.392,0.903 0.387,0.084 c 0.432,-0.219 0.861,-0.354 1.353,-0.426 0.186,-0.021 0.366,-0.033 0.552,-0.036 z" transform="matrix(1.25 0 0 -1.25 -457.012 141.954)"/></g><g><path fill="#fff" d="M 0,0 0.75,-1.194 0.474,-1.605 C 0.15,-1.128 -0.165,-0.684 -0.495,-0.207 -0.351,-0.099 -0.159,-0.042 0,0" transform="matrix(1.25 0 0 -1.25 -459.105 69.59)"/></g><g><path fill="#fff" d="M 0,0 C 0.024,0.462 0.249,1.008 0.411,0.999 0.495,0.996 0.588,0.834 0.651,0.615 0.711,0.42 0.747,0.18 0.735,-0.036 0.711,-0.498 0.486,-0.597 0.324,-0.588 0.288,-0.585 0.246,-0.579 0.21,-0.561 0.087,-0.504 -0.021,-0.351 0,0" transform="matrix(1.25 0 0 -1.25 -458.996 68.255)"/></g><g><path fill="#fff" d="m 0,0 -0.57,-0.324 -2.271,2.418 -1.434,1.527 1.797,0.003 C -1.716,2.547 -0.777,1.179 0,0" transform="matrix(1.25 0 0 -1.25 -460.492 70.224)"/></g><g><path fill="#fff" d="m 0,0 c -2.28,2.694 -3.897,5.139 -8.16,8.922 l 1.248,-0.153 c 0.9,-0.807 1.803,-1.71 2.676,-2.637 3.105,-3.315 5.787,-6.969 6.393,-7.89 C 2.262,-2.052 1.959,-1.917 1.782,-1.809 1.749,-1.791 1.719,-1.773 1.698,-1.758 1.068,-1.344 0.618,-1.053 0.183,-0.585 0.084,-0.48 0.096,-0.111 0,0" transform="matrix(1.25 0 0 -1.25 -459.289 75.778)"/></g><g><path fill="#fff" d="m 0,0 c -0.195,0.411 -0.357,0.813 -0.501,1.245 -0.111,0.405 -0.198,0.789 -0.249,1.206 -0.024,0.291 -0.03,0.567 -0.024,0.861 0.03,0.282 0.075,0.54 0.138,0.816 0.087,0.27 0.18,0.513 0.3,0.774 0.15,0.264 0.306,0.495 0.492,0.738 C 0.225,5.724 0.3,5.805 0.375,5.883 0.864,5.745 1.395,5.574 1.863,5.442 -0.888,3.045 -0.087,1.17 0.762,-0.66 L 0.357,-0.657 C 0.231,-0.441 0.114,-0.225 0,0" transform="matrix(1.25 0 0 -1.25 -462.334 138.883)"/></g><g><path fill="#fff" d="M 0,0 C 0.666,-0.501 5.076,-4.971 5.898,-6.096 4.188,-5.742 1.62,-4.518 1.074,-3.918 0.528,-3.315 -0.228,-2.661 0,0" transform="matrix(1.25 0 0 -1.25 -469.856 65.904)"/></g><g><path fill="#fff" d="m 0,0 c -4.563,-2.379 -3.975,-6.498 -1.563,-9.963 -10.644,3.888 -20.46,9.075 -30.186,14.523 0.231,2.208 0.174,6.336 4.281,5.949 C -23.823,9.447 -11.712,4.065 0,0" transform="matrix(1.25 0 0 -1.25 -460.069 128.957)"/></g><g><path fill="#fff" d="M 0,0 -0.168,0.423 -0.297,0.63 -0.462,0.822 -0.486,0.843 C -0.345,2.442 0.036,3.852 0.705,4.95 1.977,3.864 2.934,2.526 3.609,1.002 c 1.296,-2.916 1.554,-6.513 0.99,-10.32 -0.288,-1.956 -0.795,-3.969 -1.488,-5.973 -0.675,1.395 -1.293,2.925 -1.824,4.515 -0.636,1.905 -1.146,3.894 -1.467,5.829 l 0.219,0.264 c 0.528,0.009 1.005,0.102 1.503,0.288 l 0.411,0.207 c 0.219,0.15 0.384,0.288 0.561,0.48 0.153,0.201 0.276,0.387 0.393,0.606 l 0.159,0.432 c 0.048,0.24 0.069,0.438 0.066,0.681 -0.027,0.237 -0.069,0.432 -0.147,0.657 -0.096,0.216 -0.198,0.39 -0.333,0.582 L 2.325,-0.39 1.89,-0.096 1.449,0.093 0.981,0.18 0.51,0.153 0.066,0.021 C 0.045,0.009 0.021,-0.003 0.003,-0.012 0,-0.009 0,-0.006 0,0" transform="matrix(1.25 0 0 -1.25 -464.216 49.708)"/></g><g><path fill="#fff" d="M 0,0 C -0.171,0.411 -0.345,1.662 0.198,2.331 0.825,3.096 1.566,3.288 2.349,2.661 3,2.043 3.081,1.251 2.454,0.486 1.917,-0.168 0.693,-0.255 0.237,-0.177 l -1.014,-1.239 -0.231,0.186 z" transform="matrix(1.25 0 0 -1.25 -464.917 54.294)"/></g><g><path fill="#fff" d="m 0,0 c -3.156,-0.087 -5.655,2.079 -7.608,4.848 -2.037,2.889 -3.483,6.435 -4.461,8.754 C -7.713,11.403 -3.318,9.111 -0.288,0.822 -0.192,0.555 -0.096,0.279 0,0" transform="matrix(1.25 0 0 -1.25 -464.651 64.194)"/></g><g><path fill="#fff" d="M 0,0 C -0.174,0.516 -0.714,2.358 -1.524,3.852 -0.801,2.625 -0.114,1.695 0.519,0.417 0.609,0.24 0.717,-0.063 0.837,-0.423 1.035,-1.02 1.26,-1.77 1.455,-2.346 0.951,-1.452 0.3,-0.906 0,0" transform="matrix(1.25 0 0 -1.25 -464.23 62.84)"/></g><g><path fill="#fff" d="M 0,0 C 4.011,-4.524 2.016,-15.258 -2.028,-17.025 -3.816,-10.092 -3.156,-4.119 0,0" transform="matrix(1.25 0 0 -1.25 -466.815 27.838)"/></g><g><path fill="#fff" d="m 0,0 v -1.602 h -0.294 v 1.59 c -0.393,0.21 -1.323,1.068 -1.323,1.929 0,0.99 0.186,1.617 1.461,1.617 1.038,0 1.35,-0.423 1.431,-1.122 L 1.158,2.304 C 0.987,2.103 0.858,1.926 0.732,1.692 L 0.564,1.236 C 0.501,0.939 0.462,0.648 0.462,0.357 0.288,0.192 0.12,0.069 0,0" transform="matrix(1.25 0 0 -1.25 -466.718 53.398)"/></g><g><path fill="#fff" d="m 0,0 v -0.84 l -0.495,0.378 -0.024,0.576 z" transform="matrix(1.25 0 0 -1.25 -468.146 53.315)"/></g><g><path fill="#fff" d="m 0,0 c 0.012,-0.174 -0.144,-0.405 -0.498,-0.72 -0.675,-0.603 -1.758,-1.326 -2.283,-1.62 0,0.003 0,0.003 0,0.003 -9.492,-5.871 -17.868,-5.991 -24.843,-1.995 0.405,0.33 0.813,0.663 1.218,0.993 6.837,-4.008 14.676,-2.931 23.631,2.724 0.006,0.684 0.027,1.338 0.006,1.842 1.527,-0.168 2.31,-0.456 2.616,-0.828 C -0.054,0.276 -0.006,0.141 0,0" transform="matrix(1.25 0 0 -1.25 -468.701 75.65)"/></g><g><path fill="#fff" d="m 0,0 c -0.507,-1.248 -0.405,-3.6 0.105,-4.851 -15.237,2.736 -27.117,-2.01 -35.385,-13.512 -0.882,6.027 -1.764,12.054 -2.646,18.081 C -27.057,11.61 -14.112,13.821 0,0" transform="matrix(1.25 0 0 -1.25 -470.223 65.454)"/></g><g><path fill="#fff" d="M 0,0 C 2.523,-3.084 4.866,-6.723 4.422,-9.315 -1.38,-5.118 -5.103,0.3 -5.229,5.673 -3.687,3.465 -2.157,2.634 0,0" transform="matrix(1.25 0 0 -1.25 -476.351 39.23)"/></g><g><path fill="#fff" d="M 0,0 C 0.315,0.246 0.519,0.669 0.606,1.269 0.693,1.875 0.705,2.676 0.636,3.672 0.684,3.714 0.732,3.756 0.78,3.798 0.9,2.715 1.014,1.626 1.134,0.54 1.251,-0.543 1.371,-1.626 1.488,-2.712 1.437,-2.748 1.389,-2.778 1.347,-2.811 c -0.108,0.687 -0.231,1.218 -0.372,1.602 -0.141,0.375 -0.288,0.591 -0.429,0.651 -0.141,0.063 -0.33,0 -0.57,-0.18 0.066,-0.564 0.132,-1.128 0.198,-1.692 0.066,-0.561 0.135,-1.122 0.201,-1.686 0.078,-0.66 0.132,-1.059 0.171,-1.191 0.039,-0.132 0.099,-0.231 0.171,-0.285 0.072,-0.057 0.18,-0.036 0.318,0.045 0.099,0.06 0.192,0.12 0.288,0.177 0.459,0.282 0.801,0.78 1.023,1.5 0.222,0.732 0.33,1.716 0.336,2.946 0.048,0.036 0.093,0.066 0.144,0.099 0.03,-0.717 0.06,-1.437 0.09,-2.151 0.033,-0.711 0.063,-1.422 0.096,-2.133 -1.413,-0.822 -2.817,-1.662 -4.206,-2.493 -0.012,0.105 -0.024,0.207 -0.042,0.315 0.054,0.03 0.108,0.063 0.159,0.093 0.141,0.087 0.243,0.213 0.318,0.384 0.051,0.12 0.081,0.288 0.09,0.501 0.009,0.153 -0.024,0.519 -0.096,1.101 -0.159,1.278 -0.315,2.553 -0.474,3.831 -0.159,1.275 -0.327,2.55 -0.48,3.828 -0.066,0.525 -0.105,0.846 -0.135,0.954 -0.048,0.18 -0.117,0.294 -0.195,0.351 C -2.166,3.84 -2.304,3.813 -2.466,3.687 -2.52,3.645 -2.577,3.6 -2.634,3.552 -2.649,3.657 -2.661,3.762 -2.676,3.867 -1.266,5.04 0.147,6.333 1.569,7.725 1.635,7.083 1.701,6.45 1.764,5.811 1.824,5.178 1.89,4.539 1.956,3.906 1.908,3.861 1.86,3.819 1.818,3.78 1.644,4.641 1.476,5.214 1.302,5.496 1.131,5.769 0.915,5.883 0.657,5.847 0.507,5.826 0.24,5.637 -0.147,5.283 -0.324,5.124 -0.495,4.962 -0.669,4.806 -0.573,3.993 -0.477,3.177 -0.384,2.364 -0.288,1.551 -0.195,0.741 -0.102,-0.075 -0.069,-0.051 -0.033,-0.024 0,0" transform="matrix(1.25 0 0 -1.25 -469.335 89.994)"/></g><g><path fill="#fff" d="M 0,0 C 0.123,-0.912 0.525,-1.959 0.651,-3.021 -0.507,-1.713 -0.864,-1.491 -0.339,0 -0.225,0 -0.114,0 0,0" transform="matrix(1.25 0 0 -1.25 -473.52 37.49)"/></g><g><path fill="#fff" d="M 0,0 C 2.703,-2.844 1.692,-11.619 -0.519,-17.001 -3.066,-10.308 -2.679,-4.446 0,0" transform="matrix(1.25 0 0 -1.25 -474.896 12.598)"/></g><g><path fill="#fff" d="m 0,0 c 0.036,0.018 0.072,0.036 0.105,0.054 l 0.261,-0.48 C 0.273,-0.477 0.18,-0.525 0.093,-0.576 0.168,-1.089 0.243,-1.599 0.321,-2.112 0.402,-2.625 0.48,-3.138 0.558,-3.651 0.651,-4.245 0.723,-4.608 0.78,-4.746 0.837,-4.887 0.909,-4.977 0.999,-5.028 1.095,-5.076 1.254,-5.04 1.47,-4.929 1.482,-5.028 1.497,-5.13 1.515,-5.232 0.693,-5.655 -0.123,-6.054 -0.948,-6.42 c -0.015,0.099 -0.033,0.195 -0.051,0.297 0.225,0.099 0.372,0.21 0.438,0.342 0.063,0.126 0.099,0.279 0.105,0.444 0.006,0.165 -0.033,0.54 -0.129,1.131 -0.189,1.179 -0.378,2.358 -0.567,3.54 -0.186,1.179 -0.378,2.358 -0.564,3.537 -0.093,0.594 -0.168,0.957 -0.228,1.092 -0.057,0.138 -0.135,0.234 -0.237,0.282 -0.099,0.051 -0.264,0.021 -0.501,-0.081 -0.015,0.096 -0.033,0.198 -0.045,0.294 0.591,0.276 1.191,0.561 1.782,0.876 L -0.327,5.031 C -0.462,4.95 -0.594,4.884 -0.732,4.812 -0.606,4.011 -0.486,3.207 -0.366,2.406 -0.243,1.605 -0.12,0.801 0,0" transform="matrix(1.25 0 0 -1.25 -476.209 94.96)"/></g><g><path fill="#fff" d="M 0,0 C 0.288,-0.507 0.573,-1.017 0.858,-1.527 1.14,-2.04 1.419,-2.559 1.695,-3.078 1.914,-3.486 2.067,-3.723 2.151,-3.807 2.265,-3.924 2.391,-3.954 2.52,-3.891 2.535,-3.993 2.547,-4.101 2.559,-4.203 2.058,-4.506 1.551,-4.803 1.05,-5.094 c -0.375,0.699 -0.759,1.398 -1.14,2.091 -0.384,0.696 -0.768,1.386 -1.155,2.079 -0.018,-0.009 -0.036,-0.018 -0.051,-0.027 l -0.261,0.48 c 0.033,0.018 0.069,0.036 0.102,0.054 0.342,0.192 0.582,0.405 0.732,0.639 0.147,0.234 0.246,0.567 0.288,0.987 0.042,0.42 0.024,0.927 -0.057,1.512 -0.12,0.849 -0.297,1.416 -0.537,1.71 -0.24,0.291 -0.558,0.312 -0.96,0.075 l -0.618,0.303 c 0.198,0.102 0.396,0.21 0.591,0.324 0.618,0.357 1.077,0.567 1.383,0.57 0.309,0 0.591,-0.189 0.837,-0.57 C 0.45,4.752 0.615,4.218 0.708,3.534 0.822,2.703 0.789,1.923 0.597,1.206 0.477,0.759 0.276,0.357 0,0" transform="matrix(1.25 0 0 -1.25 -474.13 94.303)"/></g><g><path fill="#fff" d="m 0,0 c -0.153,0.099 -0.354,0.111 -0.591,0.045 0.093,-0.507 0.186,-1.02 0.279,-1.527 0.093,-0.507 0.186,-1.014 0.279,-1.521 0.108,-0.597 0.189,-0.954 0.237,-1.083 0.045,-0.126 0.102,-0.228 0.183,-0.294 0.078,-0.066 0.189,-0.075 0.33,-0.033 0.099,0.027 0.198,0.057 0.294,0.087 0.462,0.144 0.786,0.51 0.984,1.074 0.195,0.567 0.276,1.365 0.234,2.373 0.045,0.018 0.09,0.033 0.138,0.054 0.06,-0.591 0.117,-1.182 0.174,-1.776 0.057,-0.588 0.12,-1.179 0.183,-1.767 -1.407,-0.498 -2.826,-0.897 -4.263,-1.212 -0.021,0.099 -0.042,0.198 -0.06,0.297 0.054,0.009 0.114,0.021 0.168,0.033 0.144,0.027 0.249,0.108 0.318,0.234 0.048,0.09 0.072,0.228 0.078,0.417 0.003,0.132 -0.051,0.468 -0.153,1.011 -0.222,1.188 -0.45,2.376 -0.678,3.561 -0.225,1.185 -0.45,2.37 -0.675,3.558 -0.093,0.486 -0.156,0.789 -0.192,0.894 -0.06,0.18 -0.135,0.318 -0.222,0.402 -0.132,0.129 -0.279,0.18 -0.45,0.15 C -3.465,4.968 -3.528,4.959 -3.585,4.95 -3.606,5.049 -3.624,5.148 -3.642,5.247 -2.157,5.538 -0.69,5.928 0.762,6.435 0.852,5.898 0.942,5.364 1.032,4.827 1.122,4.293 1.212,3.756 1.302,3.225 1.251,3.204 1.206,3.183 1.158,3.162 0.951,3.921 0.753,4.449 0.561,4.749 0.372,5.04 0.135,5.223 -0.135,5.301 -0.294,5.346 -0.564,5.31 -0.966,5.196 -1.143,5.148 -1.326,5.097 -1.503,5.049 c 0.132,-0.735 0.264,-1.473 0.399,-2.205 0.135,-0.732 0.27,-1.467 0.402,-2.202 0.036,0.009 0.069,0.018 0.102,0.03 0.321,0.09 0.525,0.375 0.591,0.846 0.066,0.471 0.045,1.14 -0.06,1.995 0.048,0.015 0.096,0.03 0.144,0.048 C 0.24,2.613 0.408,1.671 0.573,0.726 0.735,-0.219 0.903,-1.164 1.071,-2.109 1.023,-2.127 0.975,-2.142 0.93,-2.151 0.792,-1.545 0.639,-1.065 0.474,-0.696 0.309,-0.33 0.153,-0.099 0,0" transform="matrix(1.25 0 0 -1.25 -481.654 97.869)"/></g><g><path fill="#fff" d="m 0,0 c 0.816,-0.045 1.626,-0.078 2.427,-0.048 0.789,0.033 1.401,-0.18 1.851,-0.69 0.444,-0.507 0.747,-1.179 0.909,-2.01 0.138,-0.702 0.15,-1.32 0.042,-1.851 C 5.118,-5.133 4.893,-5.511 4.557,-5.736 4.332,-5.889 3.921,-6 3.324,-6.048 3.429,-6.552 3.537,-7.059 3.642,-7.566 3.747,-8.073 3.855,-8.58 3.963,-9.081 c 0.126,-0.594 0.222,-0.966 0.288,-1.116 0.063,-0.15 0.15,-0.267 0.255,-0.348 0.105,-0.081 0.276,-0.105 0.504,-0.081 0.021,-0.099 0.042,-0.198 0.066,-0.294 -0.867,-0.105 -1.737,-0.198 -2.604,-0.282 -0.024,0.102 -0.048,0.204 -0.069,0.306 0.24,0.021 0.393,0.081 0.456,0.183 0.063,0.105 0.096,0.234 0.096,0.393 0.003,0.153 -0.063,0.531 -0.192,1.134 -0.258,1.197 -0.522,2.397 -0.777,3.6 -0.258,1.197 -0.522,2.397 -0.78,3.597 -0.129,0.603 -0.231,0.981 -0.3,1.137 C 0.834,-0.696 0.735,-0.567 0.624,-0.468 0.513,-0.372 0.327,-0.321 0.066,-0.306 0.045,-0.204 0.021,-0.102 0,0 Z m 3.192,-5.415 v 0 c 0.087,-0.009 0.153,-0.006 0.198,-0.003 0.321,0.024 0.522,0.24 0.615,0.645 0.093,0.402 0.057,1.014 -0.108,1.827 -0.165,0.807 -0.369,1.392 -0.624,1.752 -0.252,0.363 -0.555,0.525 -0.909,0.516 -0.057,-0.003 -0.111,0 -0.165,0 0.165,-0.792 0.333,-1.581 0.498,-2.37 0.162,-0.792 0.33,-1.578 0.495,-2.367" transform="matrix(1.25 0 0 -1.25 -492.487 91.591)"/></g><g><path fill="#fff" d="M 0,0 C 0.162,-0.372 0.189,-0.858 0.081,-1.458 -0.03,-2.061 -0.387,-2.853 -0.975,-3.84 -1.476,-4.671 -1.968,-5.289 -2.457,-5.697 -2.949,-6.105 -3.426,-6.33 -3.888,-6.372 c -0.246,-0.021 -0.492,0.018 -0.741,0.114 -0.123,0.045 -0.246,0.108 -0.372,0.183 -0.567,0.336 -0.873,0.81 -0.93,1.425 -0.081,0.879 0.264,1.953 1.026,3.228 0.642,1.071 1.287,1.809 1.917,2.205 0.732,0.459 1.422,0.516 2.07,0.177 C -0.879,0.939 -0.84,0.918 -0.801,0.894 -0.432,0.672 -0.162,0.372 0,0" transform="matrix(1.25 0 0 -1.25 -494.951 152.117)"/></g><g><path fill="#fff" d="M 0,0 -2.331,-1.29 -2.619,2.016 Z" transform="matrix(1.25 0 0 -1.25 -495.146 9.781)"/></g><g><path fill="#fff" d="M 0,0 C 0.564,-0.084 1.122,-0.156 1.683,-0.207 1.383,0.486 1.083,1.185 0.78,1.89 0.48,2.598 0.168,3.318 -0.135,4.044 -0.12,3.381 -0.105,2.715 -0.078,2.04 -0.054,1.362 -0.027,0.684 0,0 Z m 0.021,-0.651 v 0 C 0.039,-1.044 0.057,-1.44 0.081,-1.836 0.105,-2.232 0.147,-2.562 0.213,-2.829 0.297,-3.177 0.426,-3.444 0.591,-3.621 0.687,-3.726 0.882,-3.81 1.17,-3.87 c 0.027,-0.117 0.057,-0.228 0.081,-0.339 -0.591,0.033 -1.191,0.087 -1.8,0.162 -0.027,0.12 -0.057,0.237 -0.09,0.354 0.183,0.042 0.297,0.213 0.345,0.504 0.045,0.291 0.048,0.909 0.006,1.842 C -0.363,0.261 -0.429,1.845 -0.477,3.405 -0.528,4.944 -0.552,6.459 -0.576,7.962 -0.549,7.956 -0.519,7.95 -0.492,7.941 0.246,6.231 0.972,4.548 1.683,2.904 2.379,1.287 3.069,-0.309 3.75,-1.872 4.134,-2.757 4.407,-3.303 4.575,-3.525 4.701,-3.69 4.842,-3.786 5.007,-3.798 5.031,-3.903 5.052,-4.005 5.073,-4.107 4.242,-4.167 3.402,-4.209 2.559,-4.23 c -0.027,0.105 -0.051,0.216 -0.078,0.327 0.036,0 0.066,0 0.105,0 0.207,0 0.336,0.066 0.39,0.195 0.036,0.09 0.03,0.225 -0.012,0.396 -0.024,0.102 -0.054,0.21 -0.093,0.318 -0.021,0.051 -0.108,0.27 -0.273,0.651 -0.21,0.489 -0.42,0.981 -0.63,1.479 -0.642,0.048 -1.296,0.117 -1.947,0.213" transform="matrix(1.25 0 0 -1.25 -496.099 100.487)"/></g><g><path fill="#fff" d="m 0,0 c 0.195,-0.744 0.39,-1.485 0.588,-2.223 0.195,-0.741 0.393,-1.488 0.591,-2.232 -0.063,0.033 -0.123,0.057 -0.186,0.084 -0.378,1.158 -0.834,2.169 -1.377,3.048 -0.552,0.894 -1.053,1.491 -1.494,1.767 -0.342,0.216 -0.567,0.213 -0.669,-0.042 -0.102,-0.249 -0.084,-0.627 0.051,-1.134 0.087,-0.321 0.201,-0.624 0.339,-0.918 0.18,-0.393 0.423,-0.819 0.72,-1.263 0.213,-0.318 0.663,-0.927 1.365,-1.776 0.936,-1.137 1.623,-2.061 2.04,-2.832 0.411,-0.756 0.729,-1.563 0.948,-2.427 0.279,-1.098 0.327,-1.998 0.162,-2.712 -0.165,-0.723 -0.525,-1.02 -1.107,-0.864 -0.18,0.051 -0.363,0.147 -0.555,0.288 -0.189,0.141 -0.435,0.381 -0.75,0.72 -0.177,0.189 -0.315,0.3 -0.408,0.333 -0.075,0.024 -0.132,-0.021 -0.177,-0.138 -0.048,-0.12 -0.054,-0.318 -0.024,-0.606 -0.054,0.018 -0.108,0.036 -0.156,0.048 -0.258,0.945 -0.516,1.89 -0.771,2.835 -0.258,0.948 -0.516,1.893 -0.774,2.841 0.051,-0.027 0.111,-0.054 0.171,-0.084 0.567,-1.644 1.14,-2.952 1.734,-3.909 0.588,-0.942 1.086,-1.473 1.5,-1.602 0.318,-0.099 0.519,0.042 0.603,0.393 0.087,0.363 0.057,0.801 -0.081,1.341 -0.081,0.321 -0.195,0.642 -0.348,0.966 -0.153,0.321 -0.339,0.648 -0.567,0.981 -0.222,0.33 -0.6,0.798 -1.116,1.419 -0.744,0.897 -1.302,1.665 -1.683,2.259 -0.384,0.603 -0.729,1.233 -1.029,1.899 -0.3,0.666 -0.546,1.353 -0.738,2.058 -0.321,1.194 -0.396,2.076 -0.201,2.61 0.192,0.531 0.606,0.567 1.224,0.156 0.225,-0.15 0.456,-0.339 0.693,-0.579 0.177,-0.177 0.408,-0.441 0.687,-0.786 0.276,-0.342 0.459,-0.528 0.546,-0.576 0.087,-0.045 0.135,-0.033 0.159,0.045 0.024,0.075 0.006,0.306 -0.054,0.684 C -0.099,0.048 -0.048,0.024 0,0" transform="matrix(1.25 0 0 -1.25 -502.102 88.393)"/></g><g><path fill="#fff" d="m 0,0 -0.981,-0.543 -0.963,-0.582 -0.945,-0.621 -0.024,-0.018 -0.9,-0.642 -0.9,-0.699 -0.888,-0.741 -0.87,-0.777 L -7.32,-5.442 -8.151,-6.3 -8.964,-7.2 -9.756,-8.139 c -0.258,-0.324 -0.519,-0.651 -0.777,-0.978 -1.167,-1.572 -2.115,-3.483 -2.814,-5.748 -0.03,-0.099 -0.06,-0.198 -0.09,-0.3 -0.969,8.211 -2.352,16.422 -3.552,24.606 l 1.587,1.68 1.077,1.068 1.092,1.011 1.107,0.948 1.125,0.891 1.143,0.825 1.152,0.762 1.173,0.699 1.194,0.627 1.206,0.561 1.218,0.489 1.239,0.414 1.251,0.342 1.263,0.264 1.281,0.183 1.293,0.105 1.299,0.021 1.308,-0.06 1.317,-0.144 1.326,-0.228 1.326,-0.315 1.335,-0.402 1.338,-0.486 1.338,-0.576 1.344,-0.66 1.344,-0.75 1.344,-0.837 1.35,-0.924 0.444,-0.333 c 0.012,-0.018 0.024,-0.033 0.036,-0.051 0.561,-0.786 1.131,-1.563 1.689,-2.349 l -1.32,1.077 -1.32,0.993 -1.323,0.906 -1.314,0.816 -1.311,0.729 -1.302,0.642 -1.299,0.558 -1.293,0.471 -1.293,0.387 -1.281,0.303 -1.269,0.222 -1.269,0.138 -1.257,0.06 -1.251,-0.021 -1.236,-0.102 -1.233,-0.177 -1.212,-0.252 -1.206,-0.327 -1.194,-0.402 -1.179,-0.474 -1.164,-0.54 -1.155,-0.609 -1.14,-0.678 -1.125,-0.741 -1.11,-0.807 -1.101,-0.867 -1.083,-0.93 -1.074,-0.99 -1.056,-1.05 -1.305,-1.383 c 0.999,-6.804 2.049,-14.238 3.042,-21.045 l 1.908,3.258 0.786,0.996 0.813,0.96 0.831,0.918 0.849,0.879 0.87,0.84 0.888,0.798 0.912,0.759 0.93,0.717 0.945,0.678 0.975,0.639 0.987,0.597 1.008,0.558 1.029,0.519 1.044,0.477 1.071,0.435 1.086,0.396 1.107,0.357 1.131,0.315 1.149,0.273 1.17,0.234 1.188,0.192 1.212,0.15 1.23,0.108 1.251,0.066 1.275,0.027 1.293,-0.018 1.314,-0.06 L 18.504,4.089 19.86,3.945 21.237,3.759 22.998,3.438 23.145,2.955 23.262,2.568 21.111,2.952 19.761,3.135 18.429,3.279 17.118,3.378 15.831,3.435 14.562,3.453 13.317,3.429 12.093,3.363 10.893,3.258 9.711,3.111 8.55,2.922 7.41,2.694 6.288,2.43 5.193,2.121 4.113,1.776 3.054,1.392 2.019,0.966 0.999,0.501 Z" transform="matrix(1.25 0 0 -1.25 -498.559 76.93)"/></g><g><path fill="#fff" d="M 0,0 C 0.099,-0.225 0.138,-0.417 0.12,-0.585 0.105,-0.753 0.057,-0.879 -0.03,-0.969 -0.108,-1.056 -0.357,-1.191 -0.762,-1.374 l -2.25,-1.002 -1.251,2.811 2.25,1.002 c 0.399,0.18 0.657,0.267 0.768,0.267 0.162,0 0.288,-0.039 0.387,-0.117 0.144,-0.102 0.27,-0.269 0.375,-0.501 l 0.114,-0.267 0.255,-0.561 z" transform="matrix(1.25 0 0 -1.25 -527.317 116.507)"/></g><g><path fill="#fff" d="m 0,0 -0.219,-0.096 -0.249,0.564 0.219,0.096 -0.12,0.264 c -0.099,0.225 -0.144,0.417 -0.123,0.582 0.018,0.165 0.066,0.294 0.15,0.384 0.081,0.09 0.324,0.225 0.729,0.405 L 2.856,3.297 4.107,0.486 1.644,-0.612 C 1.245,-0.789 0.987,-0.876 0.876,-0.876 c -0.162,0 -0.294,0.039 -0.393,0.117 -0.144,0.099 -0.264,0.267 -0.369,0.504 z" transform="matrix(1.25 0 0 -1.25 -536.865 120.372)"/></g></g></g></svg>