<svg width="1318" height="696" viewBox="0 0 1318 696" fill="none" xmlns="http://www.w3.org/2000/svg">
<rect width="1318" height="696" fill="#6FF5FF"/>
<path d="M240.126 338.82L257.275 328.876C260.941 326.746 265.435 326.746 269.101 328.876L286.25 338.82C294.174 343.318 294.174 354.8 286.25 359.299L269.101 369.242C265.435 371.373 260.941 371.373 257.275 369.242L240.126 359.299C232.202 354.8 232.202 343.318 240.126 338.82ZM311.087 339.53L292.755 328.876C284.831 324.378 284.831 312.896 292.755 308.398L311.087 297.744C314.753 295.613 319.247 295.613 322.913 297.744L341.245 308.398C349.169 312.896 349.169 324.378 341.245 328.876L322.913 339.53C319.247 341.661 314.753 341.661 311.087 339.53ZM322.913 358.588L341.245 369.242C349.169 373.74 349.169 385.222 341.245 389.721L322.913 400.374C319.247 402.505 314.753 402.505 311.087 400.374L292.755 389.721C284.831 385.222 284.831 373.74 292.755 369.242L311.087 358.588C314.753 356.458 319.247 356.458 322.913 358.588ZM347.75 338.82L364.899 328.876C368.565 326.746 373.059 326.746 376.725 328.876L393.874 338.82C401.798 343.318 401.798 354.8 393.874 359.299L376.725 369.242C373.059 371.373 368.565 371.373 364.899 369.242L347.75 359.299C339.826 354.8 339.826 343.318 347.75 338.82ZM395.057 297.744L376.725 308.28C373.059 310.41 368.565 310.41 364.899 308.28L322.913 284.013C319.247 281.882 314.753 281.882 311.087 284.013L269.101 308.28C265.435 310.41 260.941 310.41 257.275 308.28L238.943 297.744C231.019 293.246 231.019 281.764 238.943 277.266L311.087 235.598C314.753 233.467 319.247 233.467 322.913 235.598L395.057 277.266C402.981 281.764 402.981 293.246 395.057 297.744ZM238.943 400.256L257.275 389.721C260.941 387.59 265.435 387.59 269.101 389.721L311.087 413.987C314.753 416.118 319.247 416.118 322.913 413.987L364.899 389.721C368.565 387.59 373.059 387.59 376.725 389.721L395.057 400.256C402.981 404.754 402.981 416.236 395.057 420.734L322.913 462.402C319.247 464.533 314.753 464.533 311.087 462.402L238.943 420.734C231.019 416.236 231.019 404.754 238.943 400.256Z" fill="black"/>
<path d="M529.84 404.015L486.812 291.581H508.622L542.997 383.185L576.186 291.581H596.93L554.613 404.015H529.84ZM664.257 407.447C629.882 407.447 604.634 382.948 604.634 347.68C604.634 312.411 629.882 288.148 664.257 288.148C698.631 288.148 723.879 312.411 723.879 347.68C723.879 382.948 698.631 407.447 664.257 407.447ZM626.445 347.443C626.445 372.178 641.024 389.694 664.257 389.694C687.489 389.694 702.069 371.705 702.069 347.443C702.069 323.181 687.726 305.665 664.257 305.665C640.787 305.665 626.445 322.707 626.445 347.443ZM755.172 442.716L778.404 391.825L731.702 291.581H754.935L789.309 368.154L820.957 291.581H843.242L777.456 442.716H755.172ZM907.605 446.148C872.994 446.148 855.925 430.526 854.147 406.619H875.72C876.194 417.271 883.899 429.106 907.605 429.106C931.312 429.106 942.217 417.034 942.217 394.31V380.463C934.038 391.825 920.407 398.216 902.153 398.216C875.483 398.216 851.895 378.451 851.895 344.366C851.895 310.28 873.468 288.267 903.101 288.267C932.734 288.267 936.29 298.208 942.691 305.783V291.699H963.434V392.535C963.434 427.33 940.676 446.148 907.724 446.148H907.605ZM873.468 343.892C873.468 365.196 886.269 380.936 908.554 380.936C930.838 380.936 943.639 365.314 943.639 343.892C943.639 322.471 930.719 305.665 908.554 305.665C886.388 305.665 873.468 319.985 873.468 343.892ZM1005.16 404.015V307.913H980.148V291.581H1025.9V312.766C1030.64 303.179 1042.02 290.515 1063.48 290.515H1084.81V311.819H1060.87C1036.1 311.819 1026.49 326.376 1026.49 348.626V404.015H1005.16Z" fill="black"/>
</svg>
