<svg width="800" height="143" viewBox="0 0 800 143" fill="none" xmlns="http://www.w3.org/2000/svg">
<path d="M118.78 142.277H58.0547L83.3784 101.697H144.104L118.78 142.277Z" fill="#FB3640"/>
<path d="M150.399 91.5575H28.9717L54.2954 50.978H175.712L150.399 91.5575Z" fill="#FB3640"/>
<path d="M182.04 40.8164H0L25.5714 0H207.601L182.04 40.8164Z" fill="#FB3640"/>
<path d="M344.961 34.1396L289.787 122.269H268.505L248.237 34.1396H268.505L283.143 99.6556L324.163 34.1396H344.961Z" fill="#010D1C"/>
<path d="M626.651 35.9555C633.074 33.9533 639.777 33.005 646.502 33.1472L642.708 52.7829C641.025 52.4716 639.318 52.3056 637.607 52.2866C620.8 52.2866 610.639 61.1439 607.126 78.8584L598.388 122.269H577.794L595.258 34.1397H614.873L612.565 45.5196C616.292 41.0938 621.166 37.7842 626.651 35.9555V35.9555Z" fill="#010D1C"/>
<path d="M791.522 40.7372C797.174 45.805 800 53.0682 800 62.527C799.993 66.1837 799.616 69.8302 798.874 73.4106L789.157 122.268H768.54L778.257 73.9069C778.702 71.6257 778.921 69.3062 778.91 66.9819C778.91 56.4104 773.31 51.1283 762.11 51.1358C747.495 51.1358 738.487 59.5533 735.086 76.3881L725.865 122.268H705.27L714.987 73.9069C715.436 71.6261 715.659 69.3065 715.652 66.9819C715.652 56.4104 710.048 51.1283 698.841 51.1358C684.225 51.1358 675.217 59.6059 671.817 76.546L662.595 122.268H642L659.464 34.1394H679.068L677.255 43.7034C684.717 36.6657 694.329 33.1469 706.092 33.1469C711.858 33.0123 717.57 34.2858 722.734 36.8575C727.356 39.2377 731.105 43.0245 733.442 47.6734C742.45 37.9815 754.037 33.1393 768.202 33.1469C778.088 33.1469 785.862 35.677 791.522 40.7372Z" fill="#010D1C"/>
<path d="M443.69 95.3582C443.733 94.0901 443.842 92.8252 444.017 91.5687L452.372 50.2222H471.334L481.637 33.722H455.896L458.599 20.9436H438.961L423.422 91.7378C422.972 94.0752 422.753 96.4514 422.769 98.8319C422.769 106.095 425.074 111.817 429.683 115.998C434.292 120.178 440.335 122.268 447.812 122.268H468.474L471.694 105.915V105.261H453.824C447.068 105.238 443.69 101.937 443.69 95.3582Z" fill="#010D1C"/>
<path d="M530.762 50.8995C545.783 50.8995 554.228 63.1365 552.156 78.1818C550.085 93.2272 538.194 105.475 523.173 105.475C508.152 105.475 500.507 93.2272 502.613 78.1818C504.718 63.1365 515.764 50.8995 530.762 50.8995ZM533.262 32.9443C505.574 32.9443 485.272 53.2454 481.793 78.1818C478.313 103.118 495.699 123.419 520.651 123.419C548.137 123.419 568.63 103.118 572.12 78.1818C575.611 53.2454 558.203 32.9443 533.262 32.9443Z" fill="#010D1C"/>
<path d="M396.621 74.4938C391.662 72.8651 386.598 71.5727 381.465 70.6253C376.826 69.7498 372.277 68.4512 367.875 66.7456C364.954 65.4824 363.498 63.4185 363.506 60.5537C363.506 57.362 365.172 54.7792 368.528 52.7942C371.883 50.8092 376.792 49.828 383.278 49.828C387.913 49.8324 392.532 50.3851 397.038 51.4747C400.707 52.35 404.238 53.7276 407.532 55.5687L416.878 40.749C412.546 38.1527 407.817 36.2858 402.882 35.2225C397.106 33.8387 391.187 33.1459 385.249 33.1586C372.615 33.1586 362.481 35.8278 354.847 41.1662C347.212 46.5047 343.395 53.7379 343.395 62.8658C343.395 68.3697 344.848 72.678 347.753 75.8246C350.592 78.9173 354.162 81.2445 358.135 82.5917C363.174 84.2386 368.321 85.5349 373.538 86.4714C378.074 87.3473 382.524 88.6229 386.836 90.2835C389.644 91.4865 391.048 93.4114 391.048 96.058C391.048 99.4415 389.37 102.081 386.014 103.896C382.659 105.712 377.693 106.615 371.106 106.615C365.374 106.642 359.664 105.883 354.137 104.359C349.688 103.18 345.451 101.307 341.582 98.8099L331.933 113.946C335.686 116.682 340.918 118.961 347.629 120.78C354.592 122.621 361.766 123.535 368.967 123.498C381.728 123.498 391.941 120.912 399.605 115.739C407.269 110.566 411.117 103.209 411.147 93.667C411.147 88.4038 409.717 84.2233 406.857 81.1255C404.044 78.1021 400.528 75.8236 396.621 74.4938Z" fill="#010D1C"/>
</svg>
