<svg xmlns="http://www.w3.org/2000/svg" role="img" viewBox="-6.08 -6.33 367.90 170.40"><g><g><path fill="#231f20" d="m 909.434,79.0039 2.195,20.7656 c 20.934,0 34.016,1.0195 39.254,3.0625 3.144,1.359 5.437,3.063 6.91,5.106 2.512,3.167 5.23,11.222 8.168,24.167 5.23,22.692 15.172,79.985 29.832,171.899 13.187,81.465 21.137,132.641 23.867,153.519 4.6,36.989 6.9,58.879 6.91,65.7 0,6.125 -1.05,10.316 -3.14,12.593 -1.89,2.266 -5.55,3.625 -10.99,4.086 -2.51,0.219 -15.706,1.125 -39.573,2.719 l 3.457,19.402 91.696,-1.699 c 11.94,0 35.69,0.563 71.29,1.699 l -1.88,-19.402 c -23.87,-1.594 -37.91,-2.953 -42.09,-4.082 -2.93,-0.684 -5.24,-1.937 -6.91,-3.746 -1.47,-1.594 -2.82,-4.422 -4.08,-8.508 -2.72,-7.945 -7.64,-32.23 -14.76,-72.844 -3.56,-20.203 -9.32,-55.039 -17.27,-104.503 40.82,-1.36 93.59,-2.043 158.28,-2.043 31.4,0 56.94,0.683 76.62,2.043 0.83,5.445 7.74,48.218 20.73,128.328 3.55,22.23 5.33,37.093 5.34,44.593 0,8.168 -2.2,13.278 -6.59,15.317 -4.4,2.043 -20.11,3.851 -47.11,5.445 l 1.88,19.402 76.32,-1.699 c 10.46,-0.457 17.88,-0.683 22.29,-0.683 15.71,0 35.49,0.789 59.35,2.382 l -1.88,-19.402 c -21.98,-0.68 -35.49,-2.273 -40.51,-4.766 -2.51,-1.359 -4.5,-3.402 -5.97,-6.125 -3.36,-6.359 -9.53,-36.421 -18.53,-90.203 L 1324.91,275.41 c -14.03,-87.14 -21.04,-139.558 -21.04,-157.262 0,-4.765 1.04,-8.402 3.14,-10.89 2.29,-2.278 7.43,-3.981 15.38,-5.11 4.61,-0.679 18,-1.476 40.2,-2.3785 l -2.82,-20.7656 c -48.79,1.8086 -77.99,2.7109 -87.62,2.7227 -14.66,0 -42.82,-0.9141 -84.48,-2.7227 l 2.51,20.7656 c 26.8,0.2227 42.92,1.9215 48.37,5.1055 2.72,1.582 5.01,4.648 6.91,9.188 4.39,10.66 11.3,44.921 20.72,102.8 9.63,58.09 14.97,92.133 16.02,102.121 -33.08,0.903 -71.5,1.348 -115.25,1.36 -51.09,0 -90.76,-1.024 -119.02,-3.063 -18.85,-111.429 -28.27,-178.371 -28.27,-200.836 0,-5.679 1.46,-9.531 4.4,-11.57 3.97,-2.277 20.51,-3.98 49.62,-5.1055 l -2.52,-20.7656 c -41.04,1.8086 -70.24,2.7109 -87.617,2.7227 -21.352,0 -46.063,-0.9141 -74.109,-2.7227" transform="matrix(.13333 0 0 -.13333 0 157.333)"/><path fill="#231f20" fill-rule="evenodd" d="M1617.91 155.934l4.08-13.278c-24.08-23.828-47.95-41.761-71.6-53.781-23.46-12.0195-43.34-18.0312-59.67-18.043-10.68 0-21.98 2.9571-33.92 8.8516-11.72 6.1289-21.03 15.543-27.94 28.2544-6.71 12.699-10.06 30.742-10.06 54.121 0 25.636 3.98 53.89 11.94 84.761 7.95 31.082 15.91 54.344 23.87 69.782 7.94 15.421 18.83 29.156 32.66 41.187 19.05 17.02 39.35 30.973 60.92 41.867 15.08 7.711 29.62 11.563 43.65 11.574 15.7 0 28.58-4.542 38.63-13.613 10.26-9.09 15.38-21.789 15.39-38.125 0-11.808-2.31-23.492-6.91-35.062-4.4-11.575-10.58-21.563-18.53-29.957-11.1-11.571-26.49-22.36-46.16-32.336-19.69-9.989-40.2-18.278-61.56-24.848l-40.82-10.555c-3.99-23.148-5.97-41.304-5.97-54.464 0-22.243 4.5-38.918 13.51-50.036 9.2-11.129 20.62-16.679 34.23-16.679 12.14 0 25.74 3.168 40.82 9.531 15.08 6.574 36.21 20.187 63.44 40.848zm-143.52 87.48c26.79 5.445 49.82 13.277 69.09 23.488 19.25 10.434 33.18 23.032 41.77 37.786 8.79 14.976 13.19 29.273 13.19 42.89 0 11.57-2.73 20.422-8.17 26.547-5.24 6.129-12.14 9.195-20.72 9.195-12.16 0-24.5-3.98-37.06-11.914-12.36-7.726-22.3-19.406-29.83-35.062-7.54-15.66-16.96-46.637-28.27-92.93M1920.02 151.508l3.45-14.637-47.11-39.4882c-14.86-11.5703-26.69-19.4023-35.48-23.4844-2.94-1.5859-5.65-2.375-8.17-2.3828-3.76 0-7.44 2.1563-10.99 6.4649-3.56 4.3086-5.34 9.6406-5.34 16 0 24.0505 6.91 64.1015 20.73 120.1605l-2.2 1.019c-15.7-24.062-28.06-41.762-37.05-53.101-16.34-21.102-32.98-39.379-49.94-54.801-16.75-15.4377-32.03-26.5549-45.85-33.3596-3.98-1.8086-7.75-2.7148-11.3-2.7265-5.66 0-10.16 2.9609-13.51 8.8515-5.65 9.5313-8.48 25.6366-8.48 48.3356 0 29.043 4.81 63.082 14.45 102.121 9.83 39.028 21.45 72.95 34.86 101.778 6.69 14.519 16.22 26.883 28.57 37.101 20.31 16.786 38.62 28.477 54.96 35.063 11.09 4.308 23.34 6.457 36.74 6.469 9.21 0 17.8-.801 25.76-2.383 8.16-1.594 18.52-4.883 31.09-9.871l20.09 12.933 6.91-6.129c-13.4-50.152-25.23-97.586-35.48-142.285-6.28-26.785-10.58-46.867-12.88-60.246-3.98-21.109-7.12-41.191-9.42-60.254-.42-3.636-.63-6.699-.63-9.187 0-4.543.84-8.067 2.51-10.555 1.47-1.594 3.45-2.383 5.97-2.383 3.35 0 7.64 1.469 12.88 4.426 5.43 2.945 17.05 11.797 34.86 26.551zm-52.13 213.769c-7.76 4.082-15.92 7.032-24.5 8.848-8.59 2.047-17.59 3.066-27.01 3.066-18.21 0-32.03-3.3-41.45-9.875-4.4-2.957-9.22-10.441-14.45-22.464-10.68-24.059-19.89-50.954-27.63-80.672-12.15-46.297-18.22-87.035-18.22-122.203 0-6.125.41-10.668 1.26-13.618 1.04-2.957 2.5-5.222 4.4-6.804 1.88-1.364 3.66-2.043 5.34-2.043 3.97 0 10.03 2.945 18.21 8.847 16.11 12.024 33.07 29.262 50.87 51.743 17.79 22.464 32.45 47.996 43.97 76.589 11.51 28.594 21.25 64.782 29.21 108.586" transform="matrix(.13333 0 0 -.13333 0 157.333)"/><path fill="#231f20" d="M2084.89 153.551l5.34-13.957c-5.45-5.223-18.22-15.774-38.32-31.656-20.09-15.6607-36.43-26.3286-48.99-31.9966-6.07-2.9492-11.72-4.418-16.96-4.4258-5.86 0-10.58 2.3828-14.13 7.1485-3.35 4.5312-5.02 11.7968-5.02 21.7849 0 8.391.73 16.668 2.19 24.848 2.1 13.613 12.04 63.199 29.84 148.754 12.77 61.269 20.82 101.32 24.18 120.16 8.37 46.059 14.34 83.164 17.9 111.309.84 6.125 1.25 12.136 1.26 18.039 0 6.355-1.47 10.777-4.4 13.277-2.73 2.723-8.48 4.086-17.27 4.086l-28.89.34 1.57 13.957c20.1 2.265 37.58 5.433 52.44 9.531 14.86 4.082 30.98 9.977 48.37 17.699l8.16-5.445c-4.19-20.656-19.47-98.375-45.85-233.172-21.36-109.16-33.6-176.102-36.74-200.832-.63-4.32-.94-8.066-.94-11.234 0-4.77 1.03-8.512 3.14-11.235 2.09-2.722 4.38-4.086 6.9-4.086 1.89 0 3.98.567 6.28 1.703 4.6 2.043 12.67 7.149 24.19 15.321l25.75 20.082M2291.53 160.02l7.22-12.254c-18.84-16.575-37.69-32-56.53-46.297-18.63-14.2971-32.34-23.4885-41.14-27.5706-4.82-2.2656-9.53-3.3945-14.13-3.4062-5.45 0-10.16 2.8398-14.13 8.5117-3.99 5.4453-5.97 14.5195-5.97 27.2301 0 5.446.42 11.575 1.26 18.383.83 7.031 2.29 16.446 4.39 28.254l14.14 69.777c4.81 24.735 12.23 66.602 22.29 125.61l-53.7-1.363 1.57 10.214c16.96 7.032 28.47 11.899 34.55 14.633 6.28 2.949 13.5 6.696 21.67 11.235 3.14 17.699 5.34 31.086 6.59 40.168 1.46 9.296 4.7 35.05 9.74 77.269l27.32 12.594 21.98 11.914 7.54-6.129c-8.39-36.535-12.88-56.164-13.51-58.887-1.68-7.945-6.81-34.953-15.38-81.015 9.42-.453 16.95-.68 22.61-.68 20.72 0 35.48 1.469 44.27 4.426l3.15-2.723-7.54-33.359c-8.79 0-31.41.566-67.83 1.703-3.77-18.84-9.74-50.953-17.91-96.332-7.95-45.168-13.18-77.953-15.69-98.375-1.06-8.168-1.58-14.531-1.58-19.063 0-5.222 1.15-9.191 3.46-11.914 2.3-2.5 5.12-3.746 8.47-3.746 2.73 0 5.55.567 8.49 1.703 6.06 2.723 13.71 7.489 22.92 14.297l31.41 25.192M2348.05 72.5352l-4.08 4.7656c15.49 64.6762 27.73 119.3632 36.74 164.0702 11.52 56.051 21.35 109.375 29.52 159.988 8.38 50.602 14.23 89.067 17.59 115.395.41 3.851.62 7.254.63 10.211 0 4.308-.85 7.476-2.51 9.531-1.48 2.266-4.3 3.734-8.48 4.426-4.19.906-17.81 1.348-40.83 1.363l1.57 13.953c47.52 8.172 82.07 17.7 103.64 28.594l6.28-6.805c-3.99-17.257-6.82-30.418-8.48-39.488L2452 401.02l-25.44-132.415 2.2-1.363c16.74 23.149 30.04 40.508 39.88 52.078 16.97 20.192 34.13 37.098 51.51 50.723 17.58 13.613 35.38 23.934 53.39 30.977 12.56 4.765 22.18 7.148 28.89 7.148 4.8 0 8.89-1.938 12.24-5.789 3.56-3.859 5.33-8.742 5.34-14.637 0-4.539-.53-9.648-1.57-15.316-1.47-7.723-5.87-27.465-13.19-59.231-13.4-57.644-23.97-106.882-31.71-147.73-3.57-18.617-5.34-30.754-5.34-36.422 0-3.406.72-6.129 2.19-8.172 1.67-1.816 3.66-2.723 5.97-2.723 7.95 0 26.06 11.575 54.33 34.723l6.28-12.598c-11.31-10.445-26.38-22.582-45.22-36.421-18.64-13.6137-34.54-23.6059-47.73-29.9536-3.77-1.8086-7.13-2.7148-10.06-2.7265-3.98 0-7.53 2.2773-10.67 6.8086-3.14 4.5312-4.71 11.7968-4.71 21.789 0 9.0705 2.19 23.3675 6.59 42.8865l23.56 108.926c8.37 38.125 13.91 66.262 16.64 84.418.83 5.672 1.25 10.203 1.26 13.621 0 3.848-1.05 6.797-3.15 8.848-2.09 2.265-5.13 3.39-9.1 3.406-6.28 0-12.88-1.937-19.79-5.789-17.8-9.988-36.74-25.766-56.84-47.316-19.89-21.563-35.48-44.368-46.79-68.418-11.1-23.829-19.69-50.039-25.75-78.633l-13.51-77.9495-32.34-7.4882c-3.98-1.129-7.75-2.375-11.31-3.7461M1022.36 789.023c1.57-10.457 4.14-25.367 7.73-44.714 6.73-36.305 10.46-56.258 11.21-59.864.37 1.2 4.5 16.2 12.38 44.989 4.05 14.843 7.24 27.07 9.6 36.691 1.4 5.586 2.22 9.344 2.47 11.27.05.476.07.925.07 1.351 0 1.082-.37 1.891-1.12 2.434-.7.597-3.77 1.05-9.22 1.351l.8 5.5c5.61-.422 10.22-.629 13.81-.629 3.71 0 7.59.207 11.64.629l-.75-5.5c-2.8-.179-4.52-.511-5.14-.992-.57-.422-1.11-1.144-1.6-2.164-.42-.781-2.87-8.895-7.37-24.34-3.84-13.226-8.94-31.254-15.29-54.094-5.33-19.05-8.88-32.964-10.65-41.738h-6.13l-2.29 16.047c-1.16 7.332-3.26 19.469-6.31 36.422-3.06 16.949-6.09 33.324-9.11 49.133-2.59-6.914-11.74-32.543-27.422-76.899-3.508-9.859-6.004-18.093-7.492-24.703h-6.313c-.168 10.098-1.343 29.957-3.531 59.59l-3.031 40.211c-1.074 12.441-1.84 19.316-2.289 20.644-.25.719-.602 1.262-1.055 1.622-.621.539-2.973.96-7.059 1.261l.805 5.5c4.539-.304 8.996-.453 13.375-.453 4.621 0 9.863.149 15.723.453l-.742-5.5c-3.758-.062-6.09-.301-6.996-.722-.911-.422-1.567-1.055-1.981-1.891-.371-.844-.559-2.195-.559-4.059 0-1.023.145-4.898.434-11.629.453-9.914 1.031-19.265 1.734-28.039 1.735-22.777 2.973-39.605 3.715-50.484l12.567 35.523 10.527 30.11c3.46 10.031 6.29 18.418 8.48 25.148 1.15 3.61 2.45 7.782 3.9 12.535h2.48" transform="matrix(.13333 0 0 -.13333 0 157.333)"/><path fill="none" stroke="#231f20" stroke-linecap="round" stroke-miterlimit="3.864" stroke-width=".4" d="m 1022.36,789.023 c 1.57,-10.457 4.14,-25.367 7.73,-44.714 6.73,-36.305 10.46,-56.258 11.21,-59.864 0.37,1.2 4.5,16.2 12.38,44.989 4.05,14.843 7.24,27.07 9.6,36.691 1.4,5.586 2.22,9.344 2.47,11.27 0.05,0.476 0.07,0.925 0.07,1.351 0,1.082 -0.37,1.891 -1.12,2.434 -0.7,0.597 -3.77,1.05 -9.22,1.351 l 0.8,5.5 c 5.61,-0.422 10.22,-0.629 13.81,-0.629 3.71,0 7.59,0.207 11.64,0.629 l -0.75,-5.5 c -2.8,-0.179 -4.52,-0.511 -5.14,-0.992 -0.57,-0.422 -1.11,-1.144 -1.6,-2.164 -0.42,-0.781 -2.87,-8.895 -7.37,-24.34 -3.84,-13.226 -8.94,-31.254 -15.29,-54.094 -5.33,-19.05 -8.88,-32.964 -10.65,-41.738 h -6.13 l -2.29,16.047 c -1.16,7.332 -3.26,19.469 -6.31,36.422 -3.06,16.949 -6.09,33.324 -9.11,49.133 -2.59,-6.914 -11.74,-32.543 -27.422,-76.899 -3.508,-9.859 -6.004,-18.093 -7.492,-24.703 h -6.313 c -0.168,10.098 -1.343,29.957 -3.531,59.59 l -3.031,40.211 c -1.074,12.441 -1.84,19.316 -2.289,20.644 -0.25,0.719 -0.602,1.262 -1.055,1.622 -0.621,0.539 -2.973,0.96 -7.059,1.261 l 0.805,5.5 c 4.539,-0.304 8.996,-0.453 13.375,-0.453 4.621,0 9.863,0.149 15.723,0.453 l -0.742,-5.5 c -3.758,-0.062 -6.09,-0.301 -6.996,-0.722 -0.911,-0.422 -1.567,-1.055 -1.981,-1.891 -0.371,-0.844 -0.559,-2.195 -0.559,-4.059 0,-1.023 0.145,-4.898 0.434,-11.629 0.453,-9.914 1.031,-19.265 1.734,-28.039 1.735,-22.777 2.973,-39.605 3.715,-50.484 l 12.567,35.523 10.527,30.11 c 3.46,10.031 6.29,18.418 8.48,25.148 1.15,3.61 2.45,7.782 3.9,12.535 z" transform="matrix(.13333 0 0 -.13333 0 157.333)"/><path fill="#231f20" fill-rule="evenodd" d="m 1120.39,679.309 0.68,-3.879 -9.28,-10.457 c -2.93,-3.067 -5.26,-5.137 -7,-6.219 -0.58,-0.422 -1.11,-0.629 -1.61,-0.633 -0.74,0 -1.46,0.574 -2.16,1.715 -0.71,1.141 -1.06,2.551 -1.06,4.234 0,6.371 1.36,16.977 4.09,31.825 l -0.43,0.269 c -3.1,-6.371 -5.53,-11.059 -7.31,-14.062 -3.22,-5.59 -6.5,-10.43 -9.84,-14.512 -3.31,-4.09 -6.32,-7.035 -9.04,-8.836 -0.79,-0.481 -1.53,-0.719 -2.23,-0.723 -1.11,0 -2,0.782 -2.66,2.344 -1.11,2.523 -1.67,6.789 -1.67,12.801 0,7.691 0.94,16.707 2.84,27.047 1.94,10.336 4.24,19.32 6.88,26.957 1.32,3.843 3.2,7.117 5.63,9.824 4,4.445 7.61,7.543 10.83,9.285 2.19,1.141 4.61,1.711 7.25,1.715 1.81,0 3.5,-0.211 5.08,-0.633 1.6,-0.422 3.65,-1.293 6.12,-2.613 l 3.96,3.426 1.37,-1.621 c -2.65,-13.286 -4.98,-25.848 -7,-37.684 -1.24,-7.098 -2.08,-12.414 -2.54,-15.957 -0.78,-5.594 -1.4,-10.91 -1.85,-15.957 -0.09,-0.965 -0.13,-1.777 -0.13,-2.434 0,-1.207 0.17,-2.136 0.5,-2.797 0.29,-0.421 0.68,-0.629 1.17,-0.629 0.66,0 1.51,0.387 2.54,1.172 1.07,0.778 3.36,3.121 6.87,7.032 z m -10.27,56.613 c -1.53,1.082 -3.14,1.863 -4.83,2.344 -1.7,0.543 -3.47,0.812 -5.33,0.812 -3.59,0 -6.31,-0.875 -8.17,-2.613 -0.86,-0.781 -1.81,-2.77 -2.84,-5.953 -2.11,-6.371 -3.93,-13.492 -5.45,-21.364 -2.4,-12.261 -3.59,-23.05 -3.59,-32.367 0,-1.621 0.08,-2.824 0.24,-3.605 0.21,-0.781 0.49,-1.383 0.87,-1.805 0.37,-0.355 0.72,-0.539 1.05,-0.539 0.79,0 1.98,0.781 3.59,2.344 3.18,3.183 6.52,7.754 10.03,13.703 3.51,5.953 6.4,12.711 8.67,20.285 2.27,7.574 4.19,17.156 5.76,28.758" transform="matrix(.13333 0 0 -.13333 0 157.333)"/><path fill="none" stroke="#231f20" stroke-linecap="round" stroke-miterlimit="3.864" stroke-width=".4" d="m 1120.39,679.309 0.68,-3.879 -9.28,-10.457 c -2.93,-3.067 -5.26,-5.137 -7,-6.219 -0.58,-0.422 -1.11,-0.629 -1.61,-0.633 -0.74,0 -1.46,0.574 -2.16,1.715 -0.71,1.141 -1.06,2.551 -1.06,4.234 0,6.371 1.36,16.977 4.09,31.825 l -0.43,0.269 c -3.1,-6.371 -5.53,-11.059 -7.31,-14.062 -3.22,-5.59 -6.5,-10.43 -9.84,-14.512 -3.31,-4.09 -6.32,-7.035 -9.04,-8.836 -0.79,-0.481 -1.53,-0.719 -2.23,-0.723 -1.11,0 -2,0.782 -2.66,2.344 -1.11,2.523 -1.67,6.789 -1.67,12.801 0,7.691 0.94,16.707 2.84,27.047 1.94,10.336 4.24,19.32 6.88,26.957 1.32,3.843 3.2,7.117 5.63,9.824 4,4.445 7.61,7.543 10.83,9.285 2.19,1.141 4.61,1.711 7.25,1.715 1.81,0 3.5,-0.211 5.08,-0.633 1.6,-0.422 3.65,-1.293 6.12,-2.613 l 3.96,3.426 1.37,-1.621 c -2.65,-13.286 -4.98,-25.848 -7,-37.684 -1.24,-7.098 -2.08,-12.414 -2.54,-15.957 -0.78,-5.594 -1.4,-10.91 -1.85,-15.957 -0.09,-0.965 -0.13,-1.777 -0.13,-2.434 0,-1.207 0.17,-2.136 0.5,-2.797 0.29,-0.421 0.68,-0.629 1.17,-0.629 0.66,0 1.51,0.387 2.54,1.172 1.07,0.778 3.36,3.121 6.87,7.032 z" transform="matrix(.13333 0 0 -.13333 0 157.333)"/><path fill="none" stroke="#231f20" stroke-linecap="round" stroke-miterlimit="3.864" stroke-width=".4" d="m 1110.12,735.922 c -1.53,1.082 -3.14,1.863 -4.83,2.344 -1.7,0.543 -3.47,0.812 -5.33,0.812 -3.59,0 -6.31,-0.875 -8.17,-2.613 -0.86,-0.781 -1.81,-2.77 -2.84,-5.953 -2.11,-6.371 -3.93,-13.492 -5.45,-21.364 -2.4,-12.261 -3.59,-23.05 -3.59,-32.367 0,-1.621 0.08,-2.824 0.24,-3.605 0.21,-0.781 0.49,-1.383 0.87,-1.805 0.37,-0.355 0.72,-0.539 1.05,-0.539 0.79,0 1.98,0.781 3.59,2.344 3.18,3.183 6.52,7.754 10.03,13.703 3.51,5.953 6.4,12.711 8.67,20.285 2.27,7.574 4.19,17.156 5.76,28.758 z" transform="matrix(.13333 0 0 -.13333 0 157.333)"/><path fill="#231f20" d="m 1126.34,662.18 c 0.95,6.187 1.59,10.812 1.91,13.883 0.34,3.062 0.58,6.546 0.75,10.457 h 3.09 l -0.05,-15.149 c 1.97,-2.344 3.81,-4.023 5.5,-5.043 2.23,-1.328 4.48,-1.988 6.75,-1.988 2.76,0 5.28,0.875 7.55,2.617 2.27,1.738 3.98,4.176 5.14,7.301 1.2,3.183 1.79,6.64 1.8,10.371 0,2.641 -0.37,4.926 -1.12,6.848 -0.7,1.921 -1.61,3.242 -2.72,3.968 -1.12,0.778 -3.49,1.559 -7.12,2.344 -5.2,1.141 -8.75,2.402 -10.65,3.785 -1.9,1.379 -3.4,3.485 -4.52,6.313 -1.07,2.883 -1.61,6.156 -1.61,9.824 0,3.426 0.46,6.582 1.37,9.469 0.94,2.883 2.32,5.558 4.14,8.019 1.86,2.528 4.02,4.871 6.5,7.035 2.48,2.164 4.63,3.664 6.44,4.508 1.86,0.84 4,1.258 6.44,1.262 2.39,0 4.62,-0.395 6.69,-1.172 2.1,-0.723 4.06,-1.867 5.88,-3.426 -0.58,-2.828 -0.99,-5.32 -1.24,-7.484 -0.17,-1.324 -0.52,-5.832 -1.05,-13.52 h -2.91 c -0.05,4.926 -0.11,8.621 -0.19,11.086 -1.45,2.344 -3.16,4.086 -5.14,5.227 -1.94,1.144 -4.13,1.715 -6.56,1.715 -3.88,0 -7.02,-1.621 -9.41,-4.867 -2.35,-3.247 -3.53,-7.184 -3.53,-11.813 0,-3.668 0.78,-6.578 2.35,-8.742 1.53,-2.227 4.69,-3.875 9.48,-4.957 4.78,-1.024 7.98,-1.985 9.59,-2.887 2.4,-1.383 4.21,-3.367 5.45,-5.949 1.24,-2.586 1.86,-5.68 1.86,-9.285 0,-4.27 -0.68,-8.325 -2.04,-12.172 -1.33,-3.848 -3.37,-7.453 -6.14,-10.82 -2.72,-3.305 -5.67,-6.102 -8.85,-8.383 -3.13,-2.282 -6.58,-3.422 -10.34,-3.426 -2.27,0 -4.41,0.394 -6.44,1.172 -2.02,0.722 -4.37,2.012 -7.05,3.879" transform="matrix(.13333 0 0 -.13333 0 157.333)"/><path fill="none" stroke="#231f20" stroke-linecap="round" stroke-miterlimit="3.864" stroke-width=".4" d="m 1126.34,662.18 c 0.95,6.187 1.59,10.812 1.91,13.883 0.34,3.062 0.58,6.546 0.75,10.457 h 3.09 l -0.05,-15.149 c 1.97,-2.344 3.81,-4.023 5.5,-5.043 2.23,-1.328 4.48,-1.988 6.75,-1.988 2.76,0 5.28,0.875 7.55,2.617 2.27,1.738 3.98,4.176 5.14,7.301 1.2,3.183 1.79,6.64 1.8,10.371 0,2.641 -0.37,4.926 -1.12,6.848 -0.7,1.921 -1.61,3.242 -2.72,3.968 -1.12,0.778 -3.49,1.559 -7.12,2.344 -5.2,1.141 -8.75,2.402 -10.65,3.785 -1.9,1.379 -3.4,3.485 -4.52,6.313 -1.07,2.883 -1.61,6.156 -1.61,9.824 0,3.426 0.46,6.582 1.37,9.469 0.94,2.883 2.32,5.558 4.14,8.019 1.86,2.528 4.02,4.871 6.5,7.035 2.48,2.164 4.63,3.664 6.44,4.508 1.86,0.84 4,1.258 6.44,1.262 2.39,0 4.62,-0.395 6.69,-1.172 2.1,-0.723 4.06,-1.867 5.88,-3.426 -0.58,-2.828 -0.99,-5.32 -1.24,-7.484 -0.17,-1.324 -0.52,-5.832 -1.05,-13.52 h -2.91 c -0.05,4.926 -0.11,8.621 -0.19,11.086 -1.45,2.344 -3.16,4.086 -5.14,5.227 -1.94,1.144 -4.13,1.715 -6.56,1.715 -3.88,0 -7.02,-1.621 -9.41,-4.867 -2.35,-3.247 -3.53,-7.184 -3.53,-11.813 0,-3.668 0.78,-6.578 2.35,-8.742 1.53,-2.227 4.69,-3.875 9.48,-4.957 4.78,-1.024 7.98,-1.985 9.59,-2.887 2.4,-1.383 4.21,-3.367 5.45,-5.949 1.24,-2.586 1.86,-5.68 1.86,-9.285 0,-4.27 -0.68,-8.325 -2.04,-12.172 -1.33,-3.848 -3.37,-7.453 -6.14,-10.82 -2.72,-3.305 -5.67,-6.102 -8.85,-8.383 -3.13,-2.282 -6.58,-3.422 -10.34,-3.426 -2.27,0 -4.41,0.394 -6.44,1.172 -2.02,0.722 -4.37,2.012 -7.05,3.879 z" transform="matrix(.13333 0 0 -.13333 0 157.333)"/><path fill="#231f20" d="m 1176.67,658.391 -0.81,1.261 c 3.06,17.129 5.47,31.618 7.25,43.457 2.27,14.844 4.21,28.965 5.82,42.371 1.65,13.399 2.8,23.586 3.46,30.559 0.09,1.02 0.13,1.922 0.13,2.707 0,1.141 -0.17,1.981 -0.5,2.524 -0.29,0.597 -0.84,0.988 -1.67,1.171 -0.83,0.239 -3.51,0.356 -8.05,0.36 l 0.31,3.695 c 9.37,2.168 16.18,4.688 20.43,7.574 l 1.24,-1.8 c -0.78,-4.571 -1.34,-8.059 -1.67,-10.461 l -5.45,-36.418 -5.01,-35.071 0.43,-0.359 c 3.3,6.129 5.92,10.727 7.86,13.789 3.35,5.352 6.73,9.824 10.15,13.438 3.47,3.605 6.98,6.335 10.53,8.203 2.48,1.261 4.38,1.89 5.7,1.89 0.94,0 1.75,-0.511 2.41,-1.535 0.7,-1.019 1.05,-2.312 1.05,-3.871 0,-1.207 -0.1,-2.559 -0.31,-4.059 -0.29,-2.046 -1.15,-7.273 -2.6,-15.687 -2.64,-15.266 -4.72,-28.309 -6.25,-39.125 -0.7,-4.93 -1.05,-8.145 -1.05,-9.645 0,-0.902 0.14,-1.625 0.43,-2.164 0.33,-0.484 0.72,-0.722 1.18,-0.722 1.57,0 5.13,3.066 10.71,9.195 l 1.24,-3.336 c -2.23,-2.766 -5.2,-5.98 -8.92,-9.648 -3.67,-3.606 -6.81,-6.25 -9.41,-7.93 -0.74,-0.481 -1.41,-0.719 -1.98,-0.723 -0.78,0 -1.48,0.602 -2.11,1.805 -0.62,1.199 -0.92,3.125 -0.92,5.769 0,2.403 0.43,6.188 1.3,11.36 l 4.64,28.848 c 1.65,10.097 2.74,17.546 3.28,22.355 0.17,1.504 0.25,2.703 0.25,3.609 0,1.02 -0.21,1.797 -0.62,2.344 -0.41,0.598 -1.01,0.899 -1.8,0.899 -1.23,0 -2.54,-0.512 -3.89,-1.532 -3.52,-2.644 -7.25,-6.824 -11.21,-12.531 -3.92,-5.711 -7,-11.75 -9.23,-18.121 -2.19,-6.309 -3.88,-13.25 -5.07,-20.824 l -2.67,-20.645 -6.37,-1.984 c -0.79,-0.297 -1.53,-0.629 -2.23,-0.992" transform="matrix(.13333 0 0 -.13333 0 157.333)"/><path fill="none" stroke="#231f20" stroke-linecap="round" stroke-miterlimit="3.864" stroke-width=".4" d="m 1176.67,658.391 -0.81,1.261 c 3.06,17.129 5.47,31.618 7.25,43.457 2.27,14.844 4.21,28.965 5.82,42.371 1.65,13.399 2.8,23.586 3.46,30.559 0.09,1.02 0.13,1.922 0.13,2.707 0,1.141 -0.17,1.981 -0.5,2.524 -0.29,0.597 -0.84,0.988 -1.67,1.171 -0.83,0.239 -3.51,0.356 -8.05,0.36 l 0.31,3.695 c 9.37,2.168 16.18,4.688 20.43,7.574 l 1.24,-1.8 c -0.78,-4.571 -1.34,-8.059 -1.67,-10.461 l -5.45,-36.418 -5.01,-35.071 0.43,-0.359 c 3.3,6.129 5.92,10.727 7.86,13.789 3.35,5.352 6.73,9.824 10.15,13.438 3.47,3.605 6.98,6.335 10.53,8.203 2.48,1.261 4.38,1.89 5.7,1.89 0.94,0 1.75,-0.511 2.41,-1.535 0.7,-1.019 1.05,-2.312 1.05,-3.871 0,-1.207 -0.1,-2.559 -0.31,-4.059 -0.29,-2.046 -1.15,-7.273 -2.6,-15.687 -2.64,-15.266 -4.72,-28.309 -6.25,-39.125 -0.7,-4.93 -1.05,-8.145 -1.05,-9.645 0,-0.902 0.14,-1.625 0.43,-2.164 0.33,-0.484 0.72,-0.722 1.18,-0.722 1.57,0 5.13,3.066 10.71,9.195 l 1.24,-3.336 c -2.23,-2.766 -5.2,-5.98 -8.92,-9.648 -3.67,-3.606 -6.81,-6.25 -9.41,-7.93 -0.74,-0.481 -1.41,-0.719 -1.98,-0.723 -0.78,0 -1.48,0.602 -2.11,1.805 -0.62,1.199 -0.92,3.125 -0.92,5.769 0,2.403 0.43,6.188 1.3,11.36 l 4.64,28.848 c 1.65,10.097 2.74,17.546 3.28,22.355 0.17,1.504 0.25,2.703 0.25,3.609 0,1.02 -0.21,1.797 -0.62,2.344 -0.41,0.598 -1.01,0.899 -1.8,0.899 -1.23,0 -2.54,-0.512 -3.89,-1.532 -3.52,-2.644 -7.25,-6.824 -11.21,-12.531 -3.92,-5.711 -7,-11.75 -9.23,-18.121 -2.19,-6.309 -3.88,-13.25 -5.07,-20.824 l -2.67,-20.645 -6.37,-1.984 c -0.79,-0.297 -1.53,-0.629 -2.23,-0.992 z" transform="matrix(.13333 0 0 -.13333 0 157.333)"/><path fill="#231f20" fill-rule="evenodd" d="m 1259.2,778.383 c 0,3.367 0.71,6.191 2.16,8.476 1.44,2.344 3.1,3.516 4.95,3.516 1.45,0 2.58,-0.664 3.41,-1.984 0.87,-1.262 1.3,-3.036 1.3,-5.321 0,-3.125 -0.62,-6.011 -1.86,-8.652 -1.23,-2.586 -2.89,-3.879 -4.95,-3.879 -1.45,0 -2.64,0.723 -3.59,2.168 -0.95,1.438 -1.42,3.332 -1.42,5.676 z m -15.98,-51.113 -1.05,3.605 c 7.31,7.391 12.2,11.957 14.67,13.699 2.48,1.742 4.42,2.614 5.82,2.617 0.79,0 1.38,-0.39 1.8,-1.171 0.58,-1.145 0.86,-2.793 0.86,-4.961 0,-1.02 -0.14,-2.461 -0.43,-4.325 -0.54,-3.605 -1.67,-10.187 -3.41,-19.742 -4.5,-24.344 -6.74,-38.707 -6.74,-43.094 0,-1.261 0.14,-2.195 0.43,-2.793 0.33,-0.542 0.76,-0.812 1.3,-0.812 0.82,0 1.85,0.418 3.1,1.262 1.27,0.902 3.59,3.156 6.93,6.761 l 1.24,-3.605 c -6.69,-7.457 -11.72,-12.441 -15.11,-14.965 -1.61,-1.199 -2.95,-1.805 -4.02,-1.805 -1.04,0 -1.97,0.692 -2.79,2.075 -0.78,1.379 -1.18,3.304 -1.18,5.769 0,1.922 0.15,4.055 0.44,6.403 0.29,2.343 1.01,6.582 2.17,12.707 4.82,25.246 7.24,40.871 7.24,46.882 0,1.262 -0.12,2.102 -0.37,2.524 -0.21,0.476 -0.52,0.719 -0.93,0.719 -0.49,0 -1.1,-0.211 -1.8,-0.629 -0.33,-0.243 -3.05,-2.614 -8.17,-7.121" transform="matrix(.13333 0 0 -.13333 0 157.333)"/><path fill="none" stroke="#231f20" stroke-linecap="round" stroke-miterlimit="3.864" stroke-width=".4" d="M1259.2 778.383c0 3.367.71 6.191 2.16 8.476 1.44 2.344 3.1 3.516 4.95 3.516 1.45 0 2.58-.664 3.41-1.984.87-1.262 1.3-3.036 1.3-5.321 0-3.125-.62-6.011-1.86-8.652-1.23-2.586-2.89-3.879-4.95-3.879-1.45 0-2.64.723-3.59 2.168-.95 1.438-1.42 3.332-1.42 5.676zM1243.22 727.27l-1.05 3.605c7.31 7.391 12.2 11.957 14.67 13.699 2.48 1.742 4.42 2.614 5.82 2.617.79 0 1.38-.39 1.8-1.171.58-1.145.86-2.793.86-4.961 0-1.02-.14-2.461-.43-4.325-.54-3.605-1.67-10.187-3.41-19.742-4.5-24.344-6.74-38.707-6.74-43.094 0-1.261.14-2.195.43-2.793.33-.542.76-.812 1.3-.812.82 0 1.85.418 3.1 1.262 1.27.902 3.59 3.156 6.93 6.761l1.24-3.605c-6.69-7.457-11.72-12.441-15.11-14.965-1.61-1.199-2.95-1.805-4.02-1.805-1.04 0-1.97.692-2.79 2.075-.78 1.379-1.18 3.304-1.18 5.769 0 1.922.15 4.055.44 6.403.29 2.343 1.01 6.582 2.17 12.707 4.82 25.246 7.24 40.871 7.24 46.882 0 1.262-.12 2.102-.37 2.524-.21.476-.52.719-.93.719-.49 0-1.1-.211-1.8-.629-.33-.243-3.05-2.614-8.17-7.121z" transform="matrix(.13333 0 0 -.13333 0 157.333)"/><path fill="#231f20" d="m 1280.18,658.574 -0.8,1.531 c 2.8,12.739 5.38,27.946 7.74,45.618 1.69,12.98 2.53,21.484 2.53,25.511 0,1.325 -0.14,2.223 -0.43,2.704 -0.29,0.542 -0.7,0.812 -1.24,0.812 -0.49,0 -1.01,-0.121 -1.55,-0.359 -1.03,-0.543 -2.3,-1.477 -3.83,-2.797 l -4.89,-4.688 -0.81,3.699 5.76,6.219 c 2.23,2.281 4.56,4.414 6.99,6.403 2.48,1.98 4.3,3.211 5.45,3.691 0.58,0.301 1.2,0.449 1.86,0.453 0.86,0 1.55,-0.391 2.04,-1.172 0.62,-1.14 0.93,-2.586 0.93,-4.324 0,-1.148 -0.08,-2.559 -0.25,-4.238 -0.33,-2.649 -1.11,-7.606 -2.35,-14.879 l -2.79,-16.676 0.44,-0.18 c 3.59,8.536 7.74,16.075 12.44,22.629 4.71,6.61 9.64,11.625 14.8,15.055 3.71,2.461 6.48,3.691 8.29,3.695 1.12,0 2.01,-0.511 2.67,-1.535 0.7,-1.019 1.05,-2.492 1.05,-4.414 0,-4.144 -1.43,-14.242 -4.27,-30.293 -3.84,-21.394 -5.76,-33.984 -5.76,-37.773 0,-1.203 0.14,-2.071 0.43,-2.614 0.33,-0.48 0.75,-0.718 1.24,-0.718 0.62,0 1.61,0.507 2.97,1.531 2.85,2.344 5.47,4.867 7.86,7.57 l 1.06,-3.605 c -3.51,-4.145 -6.38,-7.301 -8.61,-9.465 -4,-3.727 -6.95,-6.129 -8.85,-7.211 -0.78,-0.481 -1.61,-0.719 -2.48,-0.723 -1.16,0 -2.08,0.574 -2.78,1.715 -0.66,1.078 -0.99,2.762 -0.99,5.047 0,1.801 0.16,4.027 0.49,6.672 0.62,4.566 2.17,13.851 4.64,27.855 3.02,16.95 4.52,27.317 4.52,31.102 0,1.805 -0.2,3.035 -0.61,3.699 -0.42,0.719 -1,1.078 -1.74,1.078 -1.36,0 -3.01,-0.781 -4.95,-2.344 -3.18,-2.46 -6.48,-6.281 -9.91,-11.449 -3.42,-5.109 -6.27,-10.574 -8.54,-16.406 -2.27,-5.77 -4.27,-13.223 -6,-22.359 -0.67,-3.422 -1.68,-10.489 -3.04,-21.184 -3.01,-0.723 -5.92,-1.68 -8.73,-2.883" transform="matrix(.13333 0 0 -.13333 0 157.333)"/><path fill="none" stroke="#231f20" stroke-linecap="round" stroke-miterlimit="3.864" stroke-width=".4" d="m 1280.18,658.574 -0.8,1.531 c 2.8,12.739 5.38,27.946 7.74,45.618 1.69,12.98 2.53,21.484 2.53,25.511 0,1.325 -0.14,2.223 -0.43,2.704 -0.29,0.542 -0.7,0.812 -1.24,0.812 -0.49,0 -1.01,-0.121 -1.55,-0.359 -1.03,-0.543 -2.3,-1.477 -3.83,-2.797 l -4.89,-4.688 -0.81,3.699 5.76,6.219 c 2.23,2.281 4.56,4.414 6.99,6.403 2.48,1.98 4.3,3.211 5.45,3.691 0.58,0.301 1.2,0.449 1.86,0.453 0.86,0 1.55,-0.391 2.04,-1.172 0.62,-1.14 0.93,-2.586 0.93,-4.324 0,-1.148 -0.08,-2.559 -0.25,-4.238 -0.33,-2.649 -1.11,-7.606 -2.35,-14.879 l -2.79,-16.676 0.44,-0.18 c 3.59,8.536 7.74,16.075 12.44,22.629 4.71,6.61 9.64,11.625 14.8,15.055 3.71,2.461 6.48,3.691 8.29,3.695 1.12,0 2.01,-0.511 2.67,-1.535 0.7,-1.019 1.05,-2.492 1.05,-4.414 0,-4.144 -1.43,-14.242 -4.27,-30.293 -3.84,-21.394 -5.76,-33.984 -5.76,-37.773 0,-1.203 0.14,-2.071 0.43,-2.614 0.33,-0.48 0.75,-0.718 1.24,-0.718 0.62,0 1.61,0.507 2.97,1.531 2.85,2.344 5.47,4.867 7.86,7.57 l 1.06,-3.605 c -3.51,-4.145 -6.38,-7.301 -8.61,-9.465 -4,-3.727 -6.95,-6.129 -8.85,-7.211 -0.78,-0.481 -1.61,-0.719 -2.48,-0.723 -1.16,0 -2.08,0.574 -2.78,1.715 -0.66,1.078 -0.99,2.762 -0.99,5.047 0,1.801 0.16,4.027 0.49,6.672 0.62,4.566 2.17,13.851 4.64,27.855 3.02,16.95 4.52,27.317 4.52,31.102 0,1.805 -0.2,3.035 -0.61,3.699 -0.42,0.719 -1,1.078 -1.74,1.078 -1.36,0 -3.01,-0.781 -4.95,-2.344 -3.18,-2.46 -6.48,-6.281 -9.91,-11.449 -3.42,-5.109 -6.27,-10.574 -8.54,-16.406 -2.27,-5.77 -4.27,-13.223 -6,-22.359 -0.67,-3.422 -1.68,-10.489 -3.04,-21.184 -3.01,-0.723 -5.92,-1.68 -8.73,-2.883 z" transform="matrix(.13333 0 0 -.13333 0 157.333)"/><path fill="#231f20" fill-rule="evenodd" d="m 1365.55,663.441 c -1.32,2.039 -2.12,3.422 -2.41,4.149 -0.25,0.777 -0.37,1.496 -0.37,2.16 0,1.082 0.33,2.402 0.99,3.965 1.15,2.586 3.65,6.344 7.49,11.269 -1.16,-0.058 -2.12,-0.089 -2.91,-0.089 -5.16,0 -9.12,1.953 -11.89,5.863 -2.76,3.902 -4.15,9.402 -4.15,16.496 0,7.094 1.14,13.672 3.41,19.742 2.31,6.133 5.76,11.117 10.34,14.969 4.58,3.844 9.29,5.765 14.11,5.769 3.89,0 7.11,-1.023 9.66,-3.066 1.94,-1.563 3.59,-3.906 4.96,-7.031 3.79,0.179 5.86,0.269 6.18,0.269 1.16,0.18 2.67,0.477 4.53,0.903 l 0.24,-0.45 -0.99,-9.019 c -1.15,0.117 -2.14,0.18 -2.97,0.183 -1.36,0 -3.09,-0.125 -5.2,-0.363 0.16,-2.047 0.25,-3.785 0.25,-5.226 0,-4.09 -0.39,-7.754 -1.18,-11 -0.78,-3.188 -1.77,-6.129 -2.97,-8.832 -1.16,-2.649 -2.47,-5.024 -3.96,-7.125 -1.44,-2.043 -3.39,-4.055 -5.82,-6.039 -2.4,-1.985 -4.81,-3.399 -7.25,-4.239 -2.31,-3.183 -3.46,-5.922 -3.46,-8.203 0,-2.226 0.6,-4.328 1.8,-6.308 1.19,-2.047 4.88,-6.793 11.07,-14.247 3.43,-4.086 5.72,-7.722 6.88,-10.91 1.15,-3.179 1.73,-6.277 1.73,-9.285 0,-4.023 -0.97,-8.109 -2.91,-12.258 -1.9,-4.207 -5.34,-7.906 -10.34,-11.09 -4.99,-3.246 -10.85,-4.867 -17.58,-4.867 -7.63,0 -13.23,2.102 -16.78,6.309 -3.55,4.211 -5.32,9.406 -5.32,15.598 0,3.785 0.72,7.605 2.16,11.449 1.45,3.847 4.15,7.633 8.11,11.355 3.97,3.672 8.82,6.735 14.55,9.199 z m -4.27,47.239 c 0,-6.555 1.06,-11.512 3.16,-14.875 2.15,-3.305 4.99,-4.957 8.54,-4.957 3.1,0 5.74,1.351 7.93,4.054 2.18,2.707 3.84,6.731 4.95,12.082 1.16,5.344 1.73,10.696 1.73,16.047 0,6.309 -1.01,11.055 -3.03,14.242 -2.02,3.188 -4.75,4.778 -8.17,4.778 -4.91,0 -8.67,-3.094 -11.27,-9.285 -2.56,-6.192 -3.84,-13.551 -3.84,-22.086 z m 6.26,-50.485 c -3.64,-1.324 -7,-3.422 -10.09,-6.308 -3.1,-2.946 -5.31,-6.129 -6.63,-9.559 -1.32,-3.426 -1.98,-6.941 -1.98,-10.547 0,-5.41 1.46,-9.945 4.39,-13.613 2.98,-3.723 7.31,-5.586 13,-5.59 6.28,0 11.27,2.106 14.99,6.313 2.72,3.062 4.08,6.847 4.08,11.355 0,2.344 -0.43,4.692 -1.3,7.035 -0.82,2.344 -2.2,4.719 -4.14,7.121 l -12.32,13.793" transform="matrix(.13333 0 0 -.13333 0 157.333)"/><path fill="none" stroke="#231f20" stroke-linecap="round" stroke-miterlimit="3.864" stroke-width=".4" d="m 1365.55,663.441 c -1.32,2.039 -2.12,3.422 -2.41,4.149 -0.25,0.777 -0.37,1.496 -0.37,2.16 0,1.082 0.33,2.402 0.99,3.965 1.15,2.586 3.65,6.344 7.49,11.269 -1.16,-0.058 -2.12,-0.089 -2.91,-0.089 -5.16,0 -9.12,1.953 -11.89,5.863 -2.76,3.902 -4.15,9.402 -4.15,16.496 0,7.094 1.14,13.672 3.41,19.742 2.31,6.133 5.76,11.117 10.34,14.969 4.58,3.844 9.29,5.765 14.11,5.769 3.89,0 7.11,-1.023 9.66,-3.066 1.94,-1.563 3.59,-3.906 4.96,-7.031 3.79,0.179 5.86,0.269 6.18,0.269 1.16,0.18 2.67,0.477 4.53,0.903 l 0.24,-0.45 -0.99,-9.019 c -1.15,0.117 -2.14,0.18 -2.97,0.183 -1.36,0 -3.09,-0.125 -5.2,-0.363 0.16,-2.047 0.25,-3.785 0.25,-5.226 0,-4.09 -0.39,-7.754 -1.18,-11 -0.78,-3.188 -1.77,-6.129 -2.97,-8.832 -1.16,-2.649 -2.47,-5.024 -3.96,-7.125 -1.44,-2.043 -3.39,-4.055 -5.82,-6.039 -2.4,-1.985 -4.81,-3.399 -7.25,-4.239 -2.31,-3.183 -3.46,-5.922 -3.46,-8.203 0,-2.226 0.6,-4.328 1.8,-6.308 1.19,-2.047 4.88,-6.793 11.07,-14.247 3.43,-4.086 5.72,-7.722 6.88,-10.91 1.15,-3.179 1.73,-6.277 1.73,-9.285 0,-4.023 -0.97,-8.109 -2.91,-12.258 -1.9,-4.207 -5.34,-7.906 -10.34,-11.09 -4.99,-3.246 -10.85,-4.867 -17.58,-4.867 -7.63,0 -13.23,2.102 -16.78,6.309 -3.55,4.211 -5.32,9.406 -5.32,15.598 0,3.785 0.72,7.605 2.16,11.449 1.45,3.847 4.15,7.633 8.11,11.355 3.97,3.672 8.82,6.735 14.55,9.199 z" transform="matrix(.13333 0 0 -.13333 0 157.333)"/><path fill="none" stroke="#231f20" stroke-linecap="round" stroke-miterlimit="3.864" stroke-width=".4" d="M1361.28 710.68c0-6.555 1.06-11.512 3.16-14.875 2.15-3.305 4.99-4.957 8.54-4.957 3.1 0 5.74 1.351 7.93 4.054 2.18 2.707 3.84 6.731 4.95 12.082 1.16 5.344 1.73 10.696 1.73 16.047 0 6.309-1.01 11.055-3.03 14.242-2.02 3.188-4.75 4.778-8.17 4.778-4.91 0-8.67-3.094-11.27-9.285-2.56-6.192-3.84-13.551-3.84-22.086zM1367.54 660.195c-3.64-1.324-7-3.422-10.09-6.308-3.1-2.946-5.31-6.129-6.63-9.559-1.32-3.426-1.98-6.941-1.98-10.547 0-5.41 1.46-9.945 4.39-13.613 2.98-3.723 7.31-5.586 13-5.59 6.28 0 11.27 2.106 14.99 6.313 2.72 3.062 4.08 6.847 4.08 11.355 0 2.344-.43 4.692-1.3 7.035-.82 2.344-2.2 4.719-4.14 7.121z" transform="matrix(.13333 0 0 -.13333 0 157.333)"/><path fill="#231f20" d="m 1440.28,681.563 1.42,-3.247 c -3.71,-4.39 -7.43,-8.472 -11.14,-12.261 -3.67,-3.785 -6.38,-6.219 -8.11,-7.301 -0.95,-0.602 -1.88,-0.899 -2.79,-0.902 -1.07,0 -2,0.753 -2.78,2.253 -0.79,1.442 -1.18,3.844 -1.18,7.211 0,1.446 0.09,3.067 0.25,4.872 0.16,1.859 0.45,4.355 0.87,7.48 l 2.78,18.48 c 0.95,6.551 2.42,17.637 4.4,33.266 l -10.59,-0.359 0.31,2.703 c 3.34,1.863 5.61,3.156 6.81,3.879 1.24,0.781 2.66,1.769 4.27,2.972 0.62,4.688 1.06,8.235 1.3,10.641 0.29,2.461 0.93,9.281 1.92,20.461 l 5.39,3.34 4.33,3.152 1.49,-1.621 c -1.66,-9.68 -2.54,-14.879 -2.66,-15.598 -0.34,-2.105 -1.35,-9.257 -3.04,-21.453 1.86,-0.125 3.35,-0.183 4.46,-0.183 4.08,0 6.99,0.39 8.73,1.172 l 0.62,-0.723 -1.49,-8.832 c -1.73,0 -6.19,0.148 -13.37,0.449 -0.75,-4.988 -1.92,-13.492 -3.53,-25.512 -1.57,-11.964 -2.6,-20.644 -3.09,-26.054 -0.21,-2.164 -0.31,-3.848 -0.31,-5.047 0,-1.383 0.22,-2.434 0.68,-3.156 0.45,-0.665 1,-0.993 1.67,-0.993 0.53,0 1.09,0.149 1.67,0.453 1.2,0.719 2.7,1.981 4.52,3.786 l 6.19,6.672" transform="matrix(.13333 0 0 -.13333 0 157.333)"/><path fill="none" stroke="#231f20" stroke-linecap="round" stroke-miterlimit="3.864" stroke-width=".4" d="m 1440.28,681.563 1.42,-3.247 c -3.71,-4.39 -7.43,-8.472 -11.14,-12.261 -3.67,-3.785 -6.38,-6.219 -8.11,-7.301 -0.95,-0.602 -1.88,-0.899 -2.79,-0.902 -1.07,0 -2,0.753 -2.78,2.253 -0.79,1.442 -1.18,3.844 -1.18,7.211 0,1.446 0.09,3.067 0.25,4.872 0.16,1.859 0.45,4.355 0.87,7.48 l 2.78,18.48 c 0.95,6.551 2.42,17.637 4.4,33.266 l -10.59,-0.359 0.31,2.703 c 3.34,1.863 5.61,3.156 6.81,3.879 1.24,0.781 2.66,1.769 4.27,2.972 0.62,4.688 1.06,8.235 1.3,10.641 0.29,2.461 0.93,9.281 1.92,20.461 l 5.39,3.34 4.33,3.152 1.49,-1.621 c -1.66,-9.68 -2.54,-14.879 -2.66,-15.598 -0.34,-2.105 -1.35,-9.257 -3.04,-21.453 1.86,-0.125 3.35,-0.183 4.46,-0.183 4.08,0 6.99,0.39 8.73,1.172 l 0.62,-0.723 -1.49,-8.832 c -1.73,0 -6.19,0.148 -13.37,0.449 -0.75,-4.988 -1.92,-13.492 -3.53,-25.512 -1.57,-11.964 -2.6,-20.644 -3.09,-26.054 -0.21,-2.164 -0.31,-3.848 -0.31,-5.047 0,-1.383 0.22,-2.434 0.68,-3.156 0.45,-0.665 1,-0.993 1.67,-0.993 0.53,0 1.09,0.149 1.67,0.453 1.2,0.719 2.7,1.981 4.52,3.786 z" transform="matrix(.13333 0 0 -.13333 0 157.333)"/><path fill="#231f20" fill-rule="evenodd" d="m 1451.42,685.98 c 0,7.391 0.54,14.301 1.61,20.735 1.08,6.488 2.56,12.105 4.46,16.859 1.9,4.746 4.23,8.918 6.99,12.528 2.77,3.668 5.89,6.578 9.35,8.746 3.47,2.222 6.81,3.336 10.03,3.336 2.98,0 5.8,-0.965 8.48,-2.887 2.69,-1.863 4.77,-4.809 6.26,-8.832 1.48,-3.969 2.23,-9.442 2.23,-16.406 0,-9.258 -1.26,-18.516 -3.78,-27.77 -2.02,-7.332 -4.33,-13.285 -6.93,-17.851 -2.6,-4.504 -5.97,-8.383 -10.1,-11.625 -4.08,-3.188 -8.17,-4.778 -12.25,-4.782 -4.95,0 -8.92,2.313 -11.89,6.942 -2.97,4.687 -4.46,11.687 -4.46,21.007 z m 9.85,1.262 c 0,-5.773 0.43,-10.16 1.3,-13.164 0.86,-3.004 2.16,-5.289 3.9,-6.851 1.77,-1.563 3.88,-2.344 6.31,-2.344 2.68,0 4.99,1.019 6.93,3.066 1.99,2.043 3.93,5.797 5.83,11.27 1.93,5.469 3.34,11.894 4.21,19.289 0.86,7.453 1.29,14.125 1.29,20.015 0,7.512 -0.95,13.219 -2.84,17.129 -1.9,3.969 -4.71,5.95 -8.42,5.95 -5.95,0 -10.53,-5.168 -13.74,-15.504 -3.18,-10.34 -4.77,-23.293 -4.77,-38.856" transform="matrix(.13333 0 0 -.13333 0 157.333)"/><path fill="none" stroke="#231f20" stroke-linecap="round" stroke-miterlimit="3.864" stroke-width=".4" d="m 1451.42,685.98 c 0,7.391 0.54,14.301 1.61,20.735 1.08,6.488 2.56,12.105 4.46,16.859 1.9,4.746 4.23,8.918 6.99,12.528 2.77,3.668 5.89,6.578 9.35,8.746 3.47,2.222 6.81,3.336 10.03,3.336 2.98,0 5.8,-0.965 8.48,-2.887 2.69,-1.863 4.77,-4.809 6.26,-8.832 1.48,-3.969 2.23,-9.442 2.23,-16.406 0,-9.258 -1.26,-18.516 -3.78,-27.77 -2.02,-7.332 -4.33,-13.285 -6.93,-17.851 -2.6,-4.504 -5.97,-8.383 -10.1,-11.625 -4.08,-3.188 -8.17,-4.778 -12.25,-4.782 -4.95,0 -8.92,2.313 -11.89,6.942 -2.97,4.687 -4.46,11.687 -4.46,21.007 z" transform="matrix(.13333 0 0 -.13333 0 157.333)"/><path fill="none" stroke="#231f20" stroke-linecap="round" stroke-miterlimit="3.864" stroke-width=".4" d="m 1461.27,687.242 c 0,-5.773 0.43,-10.16 1.3,-13.164 0.86,-3.004 2.16,-5.289 3.9,-6.851 1.77,-1.563 3.88,-2.344 6.31,-2.344 2.68,0 4.99,1.019 6.93,3.066 1.99,2.043 3.93,5.797 5.83,11.27 1.93,5.469 3.34,11.894 4.21,19.289 0.86,7.453 1.29,14.125 1.29,20.015 0,7.512 -0.95,13.219 -2.84,17.129 -1.9,3.969 -4.71,5.95 -8.42,5.95 -5.95,0 -10.53,-5.168 -13.74,-15.504 -3.18,-10.34 -4.77,-23.293 -4.77,-38.856 z" transform="matrix(.13333 0 0 -.13333 0 157.333)"/><path fill="#231f20" d="m 1512.59,658.574 -0.8,1.531 c 2.8,12.739 5.38,27.946 7.73,45.618 1.69,12.98 2.54,21.484 2.54,25.511 0,1.325 -0.14,2.223 -0.43,2.704 -0.29,0.542 -0.7,0.812 -1.24,0.812 -0.5,0 -1.01,-0.121 -1.55,-0.359 -1.03,-0.543 -2.31,-1.477 -3.84,-2.797 l -4.89,-4.688 -0.8,3.699 5.76,6.219 c 2.22,2.281 4.56,4.414 6.99,6.403 2.48,1.98 4.29,3.211 5.45,3.691 0.58,0.301 1.2,0.449 1.86,0.453 0.86,0 1.54,-0.391 2.04,-1.172 0.62,-1.14 0.93,-2.586 0.93,-4.324 0,-1.148 -0.09,-2.559 -0.25,-4.238 -0.33,-2.649 -1.11,-7.606 -2.35,-14.879 l -2.79,-16.676 0.44,-0.18 c 3.59,8.536 7.74,16.075 12.44,22.629 4.71,6.61 9.63,11.625 14.8,15.055 3.71,2.461 6.48,3.691 8.29,3.695 1.12,0 2,-0.511 2.67,-1.535 0.7,-1.019 1.05,-2.492 1.05,-4.414 0,-4.144 -1.43,-14.242 -4.27,-30.293 -3.84,-21.394 -5.76,-33.984 -5.76,-37.773 0,-1.203 0.14,-2.071 0.43,-2.614 0.33,-0.48 0.74,-0.718 1.24,-0.718 0.62,0 1.61,0.507 2.97,1.531 2.85,2.344 5.47,4.867 7.86,7.57 l 1.05,-3.605 c -3.5,-4.145 -6.37,-7.301 -8.6,-9.465 -4.01,-3.727 -6.95,-6.129 -8.85,-7.211 -0.79,-0.481 -1.61,-0.719 -2.48,-0.723 -1.16,0 -2.09,0.574 -2.78,1.715 -0.67,1.078 -1,2.762 -1,5.047 0,1.801 0.17,4.027 0.5,6.672 0.62,4.566 2.17,13.851 4.64,27.855 3.02,16.95 4.52,27.317 4.52,31.102 0,1.805 -0.2,3.035 -0.62,3.699 -0.41,0.719 -0.99,1.078 -1.73,1.078 -1.36,0 -3.01,-0.781 -4.95,-2.344 -3.18,-2.46 -6.48,-6.281 -9.91,-11.449 -3.43,-5.109 -6.27,-10.574 -8.54,-16.406 -2.27,-5.77 -4.27,-13.223 -6.01,-22.359 -0.66,-3.422 -1.67,-10.489 -3.03,-21.184 -3.02,-0.723 -5.93,-1.68 -8.73,-2.883" transform="matrix(.13333 0 0 -.13333 0 157.333)"/><path fill="none" stroke="#231f20" stroke-linecap="round" stroke-miterlimit="3.864" stroke-width=".4" d="m 1512.59,658.574 -0.8,1.531 c 2.8,12.739 5.38,27.946 7.73,45.618 1.69,12.98 2.54,21.484 2.54,25.511 0,1.325 -0.14,2.223 -0.43,2.704 -0.29,0.542 -0.7,0.812 -1.24,0.812 -0.5,0 -1.01,-0.121 -1.55,-0.359 -1.03,-0.543 -2.31,-1.477 -3.84,-2.797 l -4.89,-4.688 -0.8,3.699 5.76,6.219 c 2.22,2.281 4.56,4.414 6.99,6.403 2.48,1.98 4.29,3.211 5.45,3.691 0.58,0.301 1.2,0.449 1.86,0.453 0.86,0 1.54,-0.391 2.04,-1.172 0.62,-1.14 0.93,-2.586 0.93,-4.324 0,-1.148 -0.09,-2.559 -0.25,-4.238 -0.33,-2.649 -1.11,-7.606 -2.35,-14.879 l -2.79,-16.676 0.44,-0.18 c 3.59,8.536 7.74,16.075 12.44,22.629 4.71,6.61 9.63,11.625 14.8,15.055 3.71,2.461 6.48,3.691 8.29,3.695 1.12,0 2,-0.511 2.67,-1.535 0.7,-1.019 1.05,-2.492 1.05,-4.414 0,-4.144 -1.43,-14.242 -4.27,-30.293 -3.84,-21.394 -5.76,-33.984 -5.76,-37.773 0,-1.203 0.14,-2.071 0.43,-2.614 0.33,-0.48 0.74,-0.718 1.24,-0.718 0.62,0 1.61,0.507 2.97,1.531 2.85,2.344 5.47,4.867 7.86,7.57 l 1.05,-3.605 c -3.5,-4.145 -6.37,-7.301 -8.6,-9.465 -4.01,-3.727 -6.95,-6.129 -8.85,-7.211 -0.79,-0.481 -1.61,-0.719 -2.48,-0.723 -1.16,0 -2.09,0.574 -2.78,1.715 -0.67,1.078 -1,2.762 -1,5.047 0,1.801 0.17,4.027 0.5,6.672 0.62,4.566 2.17,13.851 4.64,27.855 3.02,16.95 4.52,27.317 4.52,31.102 0,1.805 -0.2,3.035 -0.62,3.699 -0.41,0.719 -0.99,1.078 -1.73,1.078 -1.36,0 -3.01,-0.781 -4.95,-2.344 -3.18,-2.46 -6.48,-6.281 -9.91,-11.449 -3.43,-5.109 -6.27,-10.574 -8.54,-16.406 -2.27,-5.77 -4.27,-13.223 -6.01,-22.359 -0.66,-3.422 -1.67,-10.489 -3.03,-21.184 -3.02,-0.723 -5.93,-1.68 -8.73,-2.883 z" transform="matrix(.13333 0 0 -.13333 0 157.333)"/><path fill="#231f20" d="m 1614,664.25 c 0.82,4.75 1.46,9.133 1.92,13.164 0.49,4.024 0.92,8.922 1.29,14.695 h 3.59 l 0.25,-18.031 c 2.56,-2.883 4.93,-4.898 7.12,-6.039 2.89,-1.504 6.09,-2.254 9.6,-2.254 7.55,0 13.11,3.153 16.65,9.465 3.6,6.313 5.39,13.223 5.39,20.734 0,2.946 -0.35,5.676 -1.05,8.207 -0.67,2.524 -1.55,4.504 -2.66,5.95 -1.08,1.5 -2.42,2.699 -4.03,3.605 -1.61,0.961 -4.46,2.102 -8.54,3.426 -6.07,1.98 -10.4,4.023 -13,6.129 -2.6,2.101 -4.63,5.137 -6.07,9.105 -1.41,4.028 -2.1,8.895 -2.1,14.606 0,11.539 3.17,21.605 9.53,30.199 6.36,8.594 14.55,12.891 24.58,12.891 3.22,0 6.02,-0.481 8.42,-1.438 2.39,-0.906 4.82,-2.41 7.3,-4.512 -0.58,-3.367 -1.07,-6.64 -1.48,-9.824 -0.37,-3.129 -0.87,-8.176 -1.49,-15.144 h -3.65 v 13.972 c -1.61,2.762 -3.61,4.836 -6.01,6.219 -2.35,1.379 -5.08,2.07 -8.17,2.074 -3.92,0 -7.41,-1.172 -10.46,-3.515 -3.05,-2.344 -5.41,-5.77 -7.06,-10.278 -1.65,-4.449 -2.48,-9.195 -2.48,-14.246 0,-4.324 0.56,-8.019 1.68,-11.086 1.11,-3.008 2.68,-5.293 4.7,-6.851 2.06,-1.563 5.8,-3.246 11.21,-5.051 5.44,-1.801 8.91,-3.184 10.4,-4.145 2.47,-1.507 4.45,-3.398 5.94,-5.679 1.48,-2.285 2.58,-4.871 3.28,-7.754 0.74,-2.883 1.11,-6.16 1.11,-9.824 0,-5.352 -0.66,-10.313 -1.98,-14.875 -1.32,-4.512 -3.3,-8.836 -5.94,-12.985 -2.64,-4.144 -5.43,-7.57 -8.36,-10.277 -2.93,-2.645 -6,-4.629 -9.22,-5.949 -3.18,-1.325 -6.73,-1.981 -10.65,-1.985 -3.8,0 -7.26,0.602 -10.4,1.805 -3.1,1.203 -6.15,3.035 -9.16,5.496" transform="matrix(.13333 0 0 -.13333 0 157.333)"/><path fill="none" stroke="#231f20" stroke-linecap="round" stroke-miterlimit="3.864" stroke-width=".4" d="m 1614,664.25 c 0.82,4.75 1.46,9.133 1.92,13.164 0.49,4.024 0.92,8.922 1.29,14.695 h 3.59 l 0.25,-18.031 c 2.56,-2.883 4.93,-4.898 7.12,-6.039 2.89,-1.504 6.09,-2.254 9.6,-2.254 7.55,0 13.11,3.153 16.65,9.465 3.6,6.313 5.39,13.223 5.39,20.734 0,2.946 -0.35,5.676 -1.05,8.207 -0.67,2.524 -1.55,4.504 -2.66,5.95 -1.08,1.5 -2.42,2.699 -4.03,3.605 -1.61,0.961 -4.46,2.102 -8.54,3.426 -6.07,1.98 -10.4,4.023 -13,6.129 -2.6,2.101 -4.63,5.137 -6.07,9.105 -1.41,4.028 -2.1,8.895 -2.1,14.606 0,11.539 3.17,21.605 9.53,30.199 6.36,8.594 14.55,12.891 24.58,12.891 3.22,0 6.02,-0.481 8.42,-1.438 2.39,-0.906 4.82,-2.41 7.3,-4.512 -0.58,-3.367 -1.07,-6.64 -1.48,-9.824 -0.37,-3.129 -0.87,-8.176 -1.49,-15.144 h -3.65 v 13.972 c -1.61,2.762 -3.61,4.836 -6.01,6.219 -2.35,1.379 -5.08,2.07 -8.17,2.074 -3.92,0 -7.41,-1.172 -10.46,-3.515 -3.05,-2.344 -5.41,-5.77 -7.06,-10.278 -1.65,-4.449 -2.48,-9.195 -2.48,-14.246 0,-4.324 0.56,-8.019 1.68,-11.086 1.11,-3.008 2.68,-5.293 4.7,-6.851 2.06,-1.563 5.8,-3.246 11.21,-5.051 5.44,-1.801 8.91,-3.184 10.4,-4.145 2.47,-1.507 4.45,-3.398 5.94,-5.679 1.48,-2.285 2.58,-4.871 3.28,-7.754 0.74,-2.883 1.11,-6.16 1.11,-9.824 0,-5.352 -0.66,-10.313 -1.98,-14.875 -1.32,-4.512 -3.3,-8.836 -5.94,-12.985 -2.64,-4.144 -5.43,-7.57 -8.36,-10.277 -2.93,-2.645 -6,-4.629 -9.22,-5.949 -3.18,-1.325 -6.73,-1.981 -10.65,-1.985 -3.8,0 -7.26,0.602 -10.4,1.805 -3.1,1.203 -6.15,3.035 -9.16,5.496 z" transform="matrix(.13333 0 0 -.13333 0 157.333)"/><path fill="#231f20" d="m 1711.5,681.563 1.43,-3.247 c -3.72,-4.39 -7.43,-8.472 -11.14,-12.261 -3.68,-3.785 -6.38,-6.219 -8.11,-7.301 -0.95,-0.602 -1.88,-0.899 -2.79,-0.902 -1.07,0 -2,0.753 -2.79,2.253 -0.78,1.442 -1.17,3.844 -1.17,7.211 0,1.446 0.08,3.067 0.24,4.872 0.17,1.859 0.46,4.355 0.87,7.48 l 2.79,18.48 c 0.94,6.551 2.41,17.637 4.39,33.266 l -10.58,-0.359 0.31,2.703 c 3.34,1.863 5.61,3.156 6.8,3.879 1.24,0.781 2.67,1.769 4.28,2.972 0.61,4.688 1.05,8.235 1.3,10.641 0.28,2.461 0.92,9.281 1.92,20.461 l 5.38,3.34 4.33,3.152 1.49,-1.621 c -1.65,-9.68 -2.54,-14.879 -2.66,-15.598 -0.33,-2.105 -1.34,-9.257 -3.04,-21.453 1.86,-0.125 3.35,-0.183 4.46,-0.183 4.09,0 7,0.39 8.73,1.172 l 0.62,-0.723 -1.49,-8.832 c -1.73,0 -6.19,0.148 -13.37,0.449 -0.74,-4.988 -1.91,-13.492 -3.52,-25.512 -1.57,-11.964 -2.61,-20.644 -3.1,-26.054 -0.21,-2.164 -0.31,-3.848 -0.31,-5.047 0,-1.383 0.23,-2.434 0.68,-3.156 0.45,-0.665 1.01,-0.993 1.67,-0.993 0.54,0 1.09,0.149 1.67,0.453 1.2,0.719 2.71,1.981 4.52,3.786 l 6.19,6.672" transform="matrix(.13333 0 0 -.13333 0 157.333)"/><path fill="none" stroke="#231f20" stroke-linecap="round" stroke-miterlimit="3.864" stroke-width=".4" d="m 1711.5,681.563 1.43,-3.247 c -3.72,-4.39 -7.43,-8.472 -11.14,-12.261 -3.68,-3.785 -6.38,-6.219 -8.11,-7.301 -0.95,-0.602 -1.88,-0.899 -2.79,-0.902 -1.07,0 -2,0.753 -2.79,2.253 -0.78,1.442 -1.17,3.844 -1.17,7.211 0,1.446 0.08,3.067 0.24,4.872 0.17,1.859 0.46,4.355 0.87,7.48 l 2.79,18.48 c 0.94,6.551 2.41,17.637 4.39,33.266 l -10.58,-0.359 0.31,2.703 c 3.34,1.863 5.61,3.156 6.8,3.879 1.24,0.781 2.67,1.769 4.28,2.972 0.61,4.688 1.05,8.235 1.3,10.641 0.28,2.461 0.92,9.281 1.92,20.461 l 5.38,3.34 4.33,3.152 1.49,-1.621 c -1.65,-9.68 -2.54,-14.879 -2.66,-15.598 -0.33,-2.105 -1.34,-9.257 -3.04,-21.453 1.86,-0.125 3.35,-0.183 4.46,-0.183 4.09,0 7,0.39 8.73,1.172 l 0.62,-0.723 -1.49,-8.832 c -1.73,0 -6.19,0.148 -13.37,0.449 -0.74,-4.988 -1.91,-13.492 -3.52,-25.512 -1.57,-11.964 -2.61,-20.644 -3.1,-26.054 -0.21,-2.164 -0.31,-3.848 -0.31,-5.047 0,-1.383 0.23,-2.434 0.68,-3.156 0.45,-0.665 1.01,-0.993 1.67,-0.993 0.54,0 1.09,0.149 1.67,0.453 1.2,0.719 2.71,1.981 4.52,3.786 z" transform="matrix(.13333 0 0 -.13333 0 157.333)"/><path fill="#231f20" fill-rule="evenodd" d="m 1771.99,679.309 0.68,-3.879 -9.29,-10.457 c -2.93,-3.067 -5.26,-5.137 -6.99,-6.219 -0.58,-0.422 -1.12,-0.629 -1.61,-0.633 -0.74,0 -1.47,0.574 -2.17,1.715 -0.7,1.141 -1.05,2.551 -1.05,4.234 0,6.371 1.36,16.977 4.08,31.825 l -0.43,0.269 c -3.09,-6.371 -5.53,-11.059 -7.3,-14.062 -3.22,-5.59 -6.5,-10.43 -9.85,-14.512 -3.3,-4.09 -6.31,-7.035 -9.04,-8.836 -0.78,-0.481 -1.52,-0.719 -2.22,-0.723 -1.12,0 -2.01,0.782 -2.67,2.344 -1.11,2.523 -1.67,6.789 -1.67,12.801 0,7.691 0.95,16.707 2.85,27.047 1.94,10.336 4.23,19.32 6.87,26.957 1.32,3.843 3.2,7.117 5.64,9.824 4,4.445 7.61,7.543 10.83,9.285 2.19,1.141 4.6,1.711 7.24,1.715 1.82,0 3.51,-0.211 5.08,-0.633 1.61,-0.422 3.65,-1.293 6.13,-2.613 l 3.96,3.426 1.36,-1.621 c -2.64,-13.286 -4.97,-25.848 -6.99,-37.684 -1.24,-7.098 -2.09,-12.414 -2.54,-15.957 -0.78,-5.594 -1.41,-10.91 -1.86,-15.957 -0.08,-0.965 -0.12,-1.777 -0.12,-2.434 0,-1.207 0.16,-2.136 0.49,-2.797 0.29,-0.421 0.68,-0.629 1.18,-0.629 0.66,0 1.51,0.387 2.54,1.172 1.07,0.778 3.36,3.121 6.87,7.032 z m -10.28,56.613 c -1.53,1.082 -3.14,1.863 -4.83,2.344 -1.69,0.543 -3.46,0.812 -5.32,0.812 -3.59,0 -6.31,-0.875 -8.17,-2.613 -0.87,-0.781 -1.82,-2.77 -2.85,-5.953 -2.11,-6.371 -3.92,-13.492 -5.45,-21.364 -2.39,-12.261 -3.59,-23.05 -3.59,-32.367 0,-1.621 0.08,-2.824 0.25,-3.605 0.2,-0.781 0.49,-1.383 0.86,-1.805 0.38,-0.355 0.73,-0.539 1.06,-0.539 0.78,0 1.98,0.781 3.59,2.344 3.17,3.183 6.52,7.754 10.03,13.703 3.5,5.953 6.39,12.711 8.67,20.285 2.27,7.574 4.18,17.156 5.75,28.758" transform="matrix(.13333 0 0 -.13333 0 157.333)"/><path fill="none" stroke="#231f20" stroke-linecap="round" stroke-miterlimit="3.864" stroke-width=".4" d="m 1771.99,679.309 0.68,-3.879 -9.29,-10.457 c -2.93,-3.067 -5.26,-5.137 -6.99,-6.219 -0.58,-0.422 -1.12,-0.629 -1.61,-0.633 -0.74,0 -1.47,0.574 -2.17,1.715 -0.7,1.141 -1.05,2.551 -1.05,4.234 0,6.371 1.36,16.977 4.08,31.825 l -0.43,0.269 c -3.09,-6.371 -5.53,-11.059 -7.3,-14.062 -3.22,-5.59 -6.5,-10.43 -9.85,-14.512 -3.3,-4.09 -6.31,-7.035 -9.04,-8.836 -0.78,-0.481 -1.52,-0.719 -2.22,-0.723 -1.12,0 -2.01,0.782 -2.67,2.344 -1.11,2.523 -1.67,6.789 -1.67,12.801 0,7.691 0.95,16.707 2.85,27.047 1.94,10.336 4.23,19.32 6.87,26.957 1.32,3.843 3.2,7.117 5.64,9.824 4,4.445 7.61,7.543 10.83,9.285 2.19,1.141 4.6,1.711 7.24,1.715 1.82,0 3.51,-0.211 5.08,-0.633 1.61,-0.422 3.65,-1.293 6.13,-2.613 l 3.96,3.426 1.36,-1.621 c -2.64,-13.286 -4.97,-25.848 -6.99,-37.684 -1.24,-7.098 -2.09,-12.414 -2.54,-15.957 -0.78,-5.594 -1.41,-10.91 -1.86,-15.957 -0.08,-0.965 -0.12,-1.777 -0.12,-2.434 0,-1.207 0.16,-2.136 0.49,-2.797 0.29,-0.421 0.68,-0.629 1.18,-0.629 0.66,0 1.51,0.387 2.54,1.172 1.07,0.778 3.36,3.121 6.87,7.032 z" transform="matrix(.13333 0 0 -.13333 0 157.333)"/><path fill="none" stroke="#231f20" stroke-linecap="round" stroke-miterlimit="3.864" stroke-width=".4" d="m 1761.71,735.922 c -1.53,1.082 -3.14,1.863 -4.83,2.344 -1.69,0.543 -3.46,0.812 -5.32,0.812 -3.59,0 -6.31,-0.875 -8.17,-2.613 -0.87,-0.781 -1.82,-2.77 -2.85,-5.953 -2.11,-6.371 -3.92,-13.492 -5.45,-21.364 -2.39,-12.261 -3.59,-23.05 -3.59,-32.367 0,-1.621 0.08,-2.824 0.25,-3.605 0.2,-0.781 0.49,-1.383 0.86,-1.805 0.38,-0.355 0.73,-0.539 1.06,-0.539 0.78,0 1.98,0.781 3.59,2.344 3.17,3.183 6.52,7.754 10.03,13.703 3.5,5.953 6.39,12.711 8.67,20.285 2.27,7.574 4.18,17.156 5.75,28.758 z" transform="matrix(.13333 0 0 -.13333 0 157.333)"/><path fill="#231f20" d="m 1810,681.563 1.43,-3.247 c -3.72,-4.39 -7.43,-8.472 -11.15,-12.261 -3.67,-3.785 -6.37,-6.219 -8.11,-7.301 -0.95,-0.602 -1.88,-0.899 -2.78,-0.902 -1.08,0 -2.01,0.753 -2.79,2.253 -0.78,1.442 -1.17,3.844 -1.17,7.211 0,1.446 0.07,3.067 0.24,4.872 0.17,1.859 0.46,4.355 0.87,7.48 l 2.78,18.48 c 0.95,6.551 2.42,17.637 4.4,33.266 l -10.59,-0.359 0.31,2.703 c 3.35,1.863 5.61,3.156 6.81,3.879 1.24,0.781 2.66,1.769 4.27,2.972 0.62,4.688 1.06,8.235 1.3,10.641 0.29,2.461 0.93,9.281 1.92,20.461 l 5.39,3.34 4.33,3.152 1.49,-1.621 c -1.65,-9.68 -2.54,-14.879 -2.66,-15.598 -0.33,-2.105 -1.34,-9.257 -3.04,-21.453 1.86,-0.125 3.35,-0.183 4.46,-0.183 4.09,0 7,0.39 8.73,1.172 l 0.62,-0.723 -1.49,-8.832 c -1.73,0 -6.19,0.148 -13.37,0.449 -0.74,-4.988 -1.92,-13.492 -3.53,-25.512 -1.56,-11.964 -2.6,-20.644 -3.09,-26.054 -0.21,-2.164 -0.31,-3.848 -0.31,-5.047 0,-1.383 0.22,-2.434 0.68,-3.156 0.45,-0.665 1.01,-0.993 1.67,-0.993 0.54,0 1.09,0.149 1.67,0.453 1.2,0.719 2.71,1.981 4.52,3.786 l 6.19,6.672" transform="matrix(.13333 0 0 -.13333 0 157.333)"/><path fill="none" stroke="#231f20" stroke-linecap="round" stroke-miterlimit="3.864" stroke-width=".4" d="m 1810,681.563 1.43,-3.247 c -3.72,-4.39 -7.43,-8.472 -11.15,-12.261 -3.67,-3.785 -6.37,-6.219 -8.11,-7.301 -0.95,-0.602 -1.88,-0.899 -2.78,-0.902 -1.08,0 -2.01,0.753 -2.79,2.253 -0.78,1.442 -1.17,3.844 -1.17,7.211 0,1.446 0.07,3.067 0.24,4.872 0.17,1.859 0.46,4.355 0.87,7.48 l 2.78,18.48 c 0.95,6.551 2.42,17.637 4.4,33.266 l -10.59,-0.359 0.31,2.703 c 3.35,1.863 5.61,3.156 6.81,3.879 1.24,0.781 2.66,1.769 4.27,2.972 0.62,4.688 1.06,8.235 1.3,10.641 0.29,2.461 0.93,9.281 1.92,20.461 l 5.39,3.34 4.33,3.152 1.49,-1.621 c -1.65,-9.68 -2.54,-14.879 -2.66,-15.598 -0.33,-2.105 -1.34,-9.257 -3.04,-21.453 1.86,-0.125 3.35,-0.183 4.46,-0.183 4.09,0 7,0.39 8.73,1.172 l 0.62,-0.723 -1.49,-8.832 c -1.73,0 -6.19,0.148 -13.37,0.449 -0.74,-4.988 -1.92,-13.492 -3.53,-25.512 -1.56,-11.964 -2.6,-20.644 -3.09,-26.054 -0.21,-2.164 -0.31,-3.848 -0.31,-5.047 0,-1.383 0.22,-2.434 0.68,-3.156 0.45,-0.665 1.01,-0.993 1.67,-0.993 0.54,0 1.09,0.149 1.67,0.453 1.2,0.719 2.71,1.981 4.52,3.786 z" transform="matrix(.13333 0 0 -.13333 0 157.333)"/><path fill="#231f20" fill-rule="evenodd" d="m 1860.27,680.48 0.81,-3.515 c -4.75,-6.313 -9.45,-11.063 -14.12,-14.246 -4.62,-3.184 -8.54,-4.778 -11.76,-4.778 -2.11,0 -4.34,0.782 -6.69,2.344 -2.31,1.621 -4.15,4.117 -5.51,7.481 -1.32,3.367 -1.98,8.144 -1.98,14.336 0,6.789 0.78,14.269 2.36,22.449 1.56,8.23 3.13,14.394 4.7,18.48 1.57,4.082 3.71,7.723 6.44,10.907 3.75,4.507 7.76,8.203 12.01,11.089 2.97,2.043 5.84,3.063 8.6,3.063 3.1,0 5.64,-1.199 7.62,-3.606 2.02,-2.402 3.03,-5.769 3.03,-10.093 0,-3.129 -0.45,-6.223 -1.36,-9.286 -0.87,-3.066 -2.08,-5.71 -3.65,-7.933 -2.19,-3.067 -5.22,-5.922 -9.1,-8.567 -3.88,-2.644 -7.93,-4.835 -12.13,-6.582 l -8.06,-2.793 c -0.78,-6.128 -1.17,-10.937 -1.17,-14.421 0,-5.891 0.89,-10.313 2.66,-13.254 1.82,-2.95 4.07,-4.418 6.75,-4.418 2.39,0 5.07,0.84 8.05,2.523 2.97,1.742 7.14,5.348 12.5,10.82 z m -28.29,23.168 c 5.28,1.442 9.82,3.516 13.62,6.219 3.79,2.766 6.54,6.102 8.23,10.008 1.74,3.969 2.6,7.754 2.6,11.359 0,3.067 -0.54,5.411 -1.61,7.032 -1.03,1.625 -2.39,2.437 -4.08,2.437 -2.4,0 -4.83,-1.055 -7.31,-3.16 -2.43,-2.043 -4.39,-5.137 -5.88,-9.281 -1.48,-4.149 -3.34,-12.352 -5.57,-24.614" transform="matrix(.13333 0 0 -.13333 0 157.333)"/><path fill="none" stroke="#231f20" stroke-linecap="round" stroke-miterlimit="3.864" stroke-width=".4" d="m 1860.27,680.48 0.81,-3.515 c -4.75,-6.313 -9.45,-11.063 -14.12,-14.246 -4.62,-3.184 -8.54,-4.778 -11.76,-4.778 -2.11,0 -4.34,0.782 -6.69,2.344 -2.31,1.621 -4.15,4.117 -5.51,7.481 -1.32,3.367 -1.98,8.144 -1.98,14.336 0,6.789 0.78,14.269 2.36,22.449 1.56,8.23 3.13,14.394 4.7,18.48 1.57,4.082 3.71,7.723 6.44,10.907 3.75,4.507 7.76,8.203 12.01,11.089 2.97,2.043 5.84,3.063 8.6,3.063 3.1,0 5.64,-1.199 7.62,-3.606 2.02,-2.402 3.03,-5.769 3.03,-10.093 0,-3.129 -0.45,-6.223 -1.36,-9.286 -0.87,-3.066 -2.08,-5.71 -3.65,-7.933 -2.19,-3.067 -5.22,-5.922 -9.1,-8.567 -3.88,-2.644 -7.93,-4.835 -12.13,-6.582 l -8.06,-2.793 c -0.78,-6.128 -1.17,-10.937 -1.17,-14.421 0,-5.891 0.89,-10.313 2.66,-13.254 1.82,-2.95 4.07,-4.418 6.75,-4.418 2.39,0 5.07,0.84 8.05,2.523 2.97,1.742 7.14,5.348 12.5,10.82 z" transform="matrix(.13333 0 0 -.13333 0 157.333)"/><path fill="none" stroke="#231f20" stroke-linecap="round" stroke-miterlimit="3.864" stroke-width=".4" d="m 1831.98,703.648 c 5.28,1.442 9.82,3.516 13.62,6.219 3.79,2.766 6.54,6.102 8.23,10.008 1.74,3.969 2.6,7.754 2.6,11.359 0,3.067 -0.54,5.411 -1.61,7.032 -1.03,1.625 -2.39,2.437 -4.08,2.437 -2.4,0 -4.83,-1.055 -7.31,-3.16 -2.43,-2.043 -4.39,-5.137 -5.88,-9.281 -1.48,-4.149 -3.34,-12.352 -5.57,-24.614 z" transform="matrix(.13333 0 0 -.13333 0 157.333)"/><path fill="#231f20" fill-rule="evenodd" d="m 1904.79,660.105 v 4.145 c 3.46,2.043 5.28,3.156 5.44,3.34 0.38,0.476 0.7,1.199 0.99,2.16 0.79,2.586 1.92,10.309 3.41,23.172 3.59,31.308 5.61,49.129 6.07,53.457 1.81,17.851 2.72,28.187 2.72,31.016 0,1.738 -0.27,2.851 -0.8,3.332 -0.71,0.66 -4.15,1.351 -10.34,2.074 l 0.43,5.23 16.28,-0.629 24.95,0.539 c 9.12,0 15.77,-0.964 19.94,-2.882 4.16,-1.93 7.63,-4.723 10.4,-8.387 2.8,-3.606 4.93,-7.547 6.37,-11.809 2.36,-7.097 3.53,-15.418 3.53,-24.972 0,-10.34 -1.3,-20.258 -3.9,-29.75 -2.56,-9.438 -6.11,-17.7 -10.65,-24.793 -4.54,-7.032 -9.47,-12.684 -14.79,-16.95 -3.88,-3.125 -7.95,-5.351 -12.2,-6.671 -4.21,-1.262 -9.39,-1.891 -15.54,-1.891 -2.93,0 -6.13,0.09 -9.6,0.269 -5.94,0.36 -9.43,0.54 -10.46,0.54 z m 17.58,10.637 c 7.71,-1.922 14.75,-2.887 21.11,-2.887 5.4,0 10.09,1.145 14.05,3.43 2.56,1.442 5.16,3.695 7.8,6.762 2.64,3.125 5.04,6.82 7.18,11.086 3.06,6.066 5.51,13.523 7.37,22.359 1.9,8.895 2.85,17.699 2.85,26.414 0,9.555 -1.22,17.489 -3.66,23.797 -2.43,6.313 -5.86,10.973 -10.27,13.977 -4.38,3.066 -11.12,4.597 -20.25,4.597 -4.37,0 -8.95,-0.3 -13.74,-0.902 l -4.27,-34.168 c -1.69,-13.34 -3.86,-31.641 -6.5,-54.902 -0.54,-4.93 -0.93,-8.895 -1.18,-11.899 -0.2,-2.047 -0.37,-4.597 -0.49,-7.664" transform="matrix(.13333 0 0 -.13333 0 157.333)"/><path fill="none" stroke="#231f20" stroke-linecap="round" stroke-miterlimit="3.864" stroke-width=".4" d="m 1904.79,660.105 v 4.145 c 3.46,2.043 5.28,3.156 5.44,3.34 0.38,0.476 0.7,1.199 0.99,2.16 0.79,2.586 1.92,10.309 3.41,23.172 3.59,31.308 5.61,49.129 6.07,53.457 1.81,17.851 2.72,28.187 2.72,31.016 0,1.738 -0.27,2.851 -0.8,3.332 -0.71,0.66 -4.15,1.351 -10.34,2.074 l 0.43,5.23 16.28,-0.629 24.95,0.539 c 9.12,0 15.77,-0.964 19.94,-2.882 4.16,-1.93 7.63,-4.723 10.4,-8.387 2.8,-3.606 4.93,-7.547 6.37,-11.809 2.36,-7.097 3.53,-15.418 3.53,-24.972 0,-10.34 -1.3,-20.258 -3.9,-29.75 -2.56,-9.438 -6.11,-17.7 -10.65,-24.793 -4.54,-7.032 -9.47,-12.684 -14.79,-16.95 -3.88,-3.125 -7.95,-5.351 -12.2,-6.671 -4.21,-1.262 -9.39,-1.891 -15.54,-1.891 -2.93,0 -6.13,0.09 -9.6,0.269 -5.94,0.36 -9.43,0.54 -10.46,0.54 z" transform="matrix(.13333 0 0 -.13333 0 157.333)"/><path fill="none" stroke="#231f20" stroke-linecap="round" stroke-miterlimit="3.864" stroke-width=".4" d="m 1922.37,670.742 c 7.71,-1.922 14.75,-2.887 21.11,-2.887 5.4,0 10.09,1.145 14.05,3.43 2.56,1.442 5.16,3.695 7.8,6.762 2.64,3.125 5.04,6.82 7.18,11.086 3.06,6.066 5.51,13.523 7.37,22.359 1.9,8.895 2.85,17.699 2.85,26.414 0,9.555 -1.22,17.489 -3.66,23.797 -2.43,6.313 -5.86,10.973 -10.27,13.977 -4.38,3.066 -11.12,4.597 -20.25,4.597 -4.37,0 -8.95,-0.3 -13.74,-0.902 l -4.27,-34.168 c -1.69,-13.34 -3.86,-31.641 -6.5,-54.902 -0.54,-4.93 -0.93,-8.895 -1.18,-11.899 -0.2,-2.047 -0.37,-4.597 -0.49,-7.664 z" transform="matrix(.13333 0 0 -.13333 0 157.333)"/><path fill="#231f20" fill-rule="evenodd" d="m 2039.93,680.48 0.81,-3.515 c -4.75,-6.313 -9.45,-11.063 -14.12,-14.246 -4.62,-3.184 -8.54,-4.778 -11.76,-4.778 -2.11,0 -4.33,0.782 -6.68,2.344 -2.32,1.621 -4.15,4.117 -5.52,7.481 -1.32,3.367 -1.98,8.144 -1.98,14.336 0,6.789 0.78,14.269 2.36,22.449 1.56,8.23 3.13,14.394 4.7,18.48 1.57,4.082 3.71,7.723 6.44,10.907 3.75,4.507 7.76,8.203 12.01,11.089 2.97,2.043 5.84,3.063 8.61,3.063 3.09,0 5.63,-1.199 7.61,-3.606 2.02,-2.402 3.03,-5.769 3.03,-10.093 0,-3.129 -0.45,-6.223 -1.36,-9.286 -0.87,-3.066 -2.08,-5.71 -3.65,-7.933 -2.19,-3.067 -5.22,-5.922 -9.1,-8.567 -3.88,-2.644 -7.93,-4.835 -12.14,-6.582 l -8.05,-2.793 c -0.78,-6.128 -1.17,-10.937 -1.17,-14.421 0,-5.891 0.89,-10.313 2.66,-13.254 1.82,-2.95 4.07,-4.418 6.75,-4.418 2.39,0 5.07,0.84 8.05,2.523 2.97,1.742 7.14,5.348 12.5,10.82 z m -28.29,23.168 c 5.28,1.442 9.82,3.516 13.62,6.219 3.79,2.766 6.54,6.102 8.24,10.008 1.73,3.969 2.59,7.754 2.59,11.359 0,3.067 -0.53,5.411 -1.61,7.032 -1.03,1.625 -2.39,2.437 -4.08,2.437 -2.4,0 -4.83,-1.055 -7.31,-3.16 -2.43,-2.043 -4.39,-5.137 -5.88,-9.281 -1.48,-4.149 -3.34,-12.352 -5.57,-24.614" transform="matrix(.13333 0 0 -.13333 0 157.333)"/><path fill="none" stroke="#231f20" stroke-linecap="round" stroke-miterlimit="3.864" stroke-width=".4" d="m 2039.93,680.48 0.81,-3.515 c -4.75,-6.313 -9.45,-11.063 -14.12,-14.246 -4.62,-3.184 -8.54,-4.778 -11.76,-4.778 -2.11,0 -4.33,0.782 -6.68,2.344 -2.32,1.621 -4.15,4.117 -5.52,7.481 -1.32,3.367 -1.98,8.144 -1.98,14.336 0,6.789 0.78,14.269 2.36,22.449 1.56,8.23 3.13,14.394 4.7,18.48 1.57,4.082 3.71,7.723 6.44,10.907 3.75,4.507 7.76,8.203 12.01,11.089 2.97,2.043 5.84,3.063 8.61,3.063 3.09,0 5.63,-1.199 7.61,-3.606 2.02,-2.402 3.03,-5.769 3.03,-10.093 0,-3.129 -0.45,-6.223 -1.36,-9.286 -0.87,-3.066 -2.08,-5.71 -3.65,-7.933 -2.19,-3.067 -5.22,-5.922 -9.1,-8.567 -3.88,-2.644 -7.93,-4.835 -12.14,-6.582 l -8.05,-2.793 c -0.78,-6.128 -1.17,-10.937 -1.17,-14.421 0,-5.891 0.89,-10.313 2.66,-13.254 1.82,-2.95 4.07,-4.418 6.75,-4.418 2.39,0 5.07,0.84 8.05,2.523 2.97,1.742 7.14,5.348 12.5,10.82 z" transform="matrix(.13333 0 0 -.13333 0 157.333)"/><path fill="none" stroke="#231f20" stroke-linecap="round" stroke-miterlimit="3.864" stroke-width=".4" d="m 2011.64,703.648 c 5.28,1.442 9.82,3.516 13.62,6.219 3.79,2.766 6.54,6.102 8.24,10.008 1.73,3.969 2.59,7.754 2.59,11.359 0,3.067 -0.53,5.411 -1.61,7.032 -1.03,1.625 -2.39,2.437 -4.08,2.437 -2.4,0 -4.83,-1.055 -7.31,-3.16 -2.43,-2.043 -4.39,-5.137 -5.88,-9.281 -1.48,-4.149 -3.34,-12.352 -5.57,-24.614 z" transform="matrix(.13333 0 0 -.13333 0 157.333)"/><path fill="#231f20" fill-rule="evenodd" d="m 2047.86,609.531 -0.75,1.078 c 2.11,14.067 3.74,25.426 4.89,34.079 3.23,24.761 5.62,43.964 7.19,57.609 0.95,8.473 1.75,17.516 2.41,27.137 0.12,1.441 0.19,2.523 0.19,3.242 0,0.961 -0.17,1.711 -0.5,2.254 -0.33,0.543 -0.72,0.812 -1.17,0.812 -0.25,0 -0.54,-0.058 -0.87,-0.179 -0.33,-0.122 -0.89,-0.485 -1.67,-1.083 -0.74,-0.542 -1.92,-1.531 -3.53,-2.976 l -4.89,-4.508 -1.24,3.426 c 4.79,5.769 9.47,10.43 14.05,13.976 3.18,2.344 5.53,3.516 7.06,3.516 0.91,0 1.61,-0.363 2.11,-1.082 0.53,-0.723 0.8,-1.773 0.8,-3.156 0,-0.723 -0.04,-1.684 -0.12,-2.883 -0.09,-1.145 -0.31,-3.398 -0.68,-6.766 -0.62,-5.168 -1.02,-8.324 -1.18,-9.464 -0.79,-5.528 -1.26,-9.075 -1.42,-10.637 3.5,8.41 7.22,15.14 11.14,20.195 3.92,5.047 7.82,8.742 11.7,11.086 2.93,1.742 5.43,2.613 7.49,2.617 1.57,0 2.81,-0.543 3.72,-1.625 0.95,-1.082 1.79,-3.367 2.53,-6.851 0.79,-3.489 1.18,-7.512 1.18,-12.078 0,-7.457 -1.16,-16.079 -3.47,-25.875 -1.81,-7.817 -3.92,-14.153 -6.31,-19.02 -2.36,-4.871 -5.62,-9.379 -9.78,-13.523 -4.17,-4.09 -8.17,-7.247 -12.01,-9.469 -1.49,-0.836 -2.89,-1.258 -4.21,-1.262 -0.95,0 -1.88,0.152 -2.79,0.453 -0.91,0.239 -2.71,0.961 -5.39,2.16 -0.45,-4.625 -1.28,-12.195 -2.47,-22.714 l -2.73,-25.516 c -4.25,-0.84 -7.34,-1.828 -9.28,-2.973 z m 15.72,61.391 c 3.43,-2.883 6.98,-4.328 10.65,-4.328 3.1,0 5.63,0.929 7.62,2.797 2.02,1.922 3.94,5.136 5.75,9.644 2.89,7.215 5.14,15.059 6.75,23.531 1.61,8.532 2.42,15.954 2.42,22.27 0,5.344 -0.38,8.769 -1.12,10.273 -0.74,1.563 -1.82,2.344 -3.22,2.348 -1.98,0 -4.09,-0.785 -6.31,-2.348 -2.23,-1.562 -4.48,-3.937 -6.75,-7.121 -2.93,-4.144 -5.53,-9.136 -7.8,-14.965 -2.27,-5.769 -4.01,-12.347 -5.2,-19.742 -0.41,-2.586 -1.35,-10.039 -2.79,-22.359" transform="matrix(.13333 0 0 -.13333 0 157.333)"/><path fill="none" stroke="#231f20" stroke-linecap="round" stroke-miterlimit="3.864" stroke-width=".4" d="m 2047.86,609.531 -0.75,1.078 c 2.11,14.067 3.74,25.426 4.89,34.079 3.23,24.761 5.62,43.964 7.19,57.609 0.95,8.473 1.75,17.516 2.41,27.137 0.12,1.441 0.19,2.523 0.19,3.242 0,0.961 -0.17,1.711 -0.5,2.254 -0.33,0.543 -0.72,0.812 -1.17,0.812 -0.25,0 -0.54,-0.058 -0.87,-0.179 -0.33,-0.122 -0.89,-0.485 -1.67,-1.083 -0.74,-0.542 -1.92,-1.531 -3.53,-2.976 l -4.89,-4.508 -1.24,3.426 c 4.79,5.769 9.47,10.43 14.05,13.976 3.18,2.344 5.53,3.516 7.06,3.516 0.91,0 1.61,-0.363 2.11,-1.082 0.53,-0.723 0.8,-1.773 0.8,-3.156 0,-0.723 -0.04,-1.684 -0.12,-2.883 -0.09,-1.145 -0.31,-3.398 -0.68,-6.766 -0.62,-5.168 -1.02,-8.324 -1.18,-9.464 -0.79,-5.528 -1.26,-9.075 -1.42,-10.637 3.5,8.41 7.22,15.14 11.14,20.195 3.92,5.047 7.82,8.742 11.7,11.086 2.93,1.742 5.43,2.613 7.49,2.617 1.57,0 2.81,-0.543 3.72,-1.625 0.95,-1.082 1.79,-3.367 2.53,-6.851 0.79,-3.489 1.18,-7.512 1.18,-12.078 0,-7.457 -1.16,-16.079 -3.47,-25.875 -1.81,-7.817 -3.92,-14.153 -6.31,-19.02 -2.36,-4.871 -5.62,-9.379 -9.78,-13.523 -4.17,-4.09 -8.17,-7.247 -12.01,-9.469 -1.49,-0.836 -2.89,-1.258 -4.21,-1.262 -0.95,0 -1.88,0.152 -2.79,0.453 -0.91,0.239 -2.71,0.961 -5.39,2.16 -0.45,-4.625 -1.28,-12.195 -2.47,-22.714 l -2.73,-25.516 c -4.25,-0.84 -7.34,-1.828 -9.28,-2.973 z" transform="matrix(.13333 0 0 -.13333 0 157.333)"/><path fill="none" stroke="#231f20" stroke-linecap="round" stroke-miterlimit="3.864" stroke-width=".4" d="m 2063.58,670.922 c 3.43,-2.883 6.98,-4.328 10.65,-4.328 3.1,0 5.63,0.929 7.62,2.797 2.02,1.922 3.94,5.136 5.75,9.644 2.89,7.215 5.14,15.059 6.75,23.531 1.61,8.532 2.42,15.954 2.42,22.27 0,5.344 -0.38,8.769 -1.12,10.273 -0.74,1.563 -1.82,2.344 -3.22,2.348 -1.98,0 -4.09,-0.785 -6.31,-2.348 -2.23,-1.562 -4.48,-3.937 -6.75,-7.121 -2.93,-4.144 -5.53,-9.136 -7.8,-14.965 -2.27,-5.769 -4.01,-12.347 -5.2,-19.742 -0.41,-2.586 -1.35,-10.039 -2.79,-22.359 z" transform="matrix(.13333 0 0 -.13333 0 157.333)"/><path fill="#231f20" fill-rule="evenodd" d="m 2162.88,679.309 0.69,-3.879 -9.29,-10.457 c -2.93,-3.067 -5.26,-5.137 -6.99,-6.219 -0.59,-0.422 -1.12,-0.629 -1.61,-0.633 -0.75,0 -1.47,0.574 -2.17,1.715 -0.71,1.141 -1.06,2.551 -1.06,4.234 0,6.371 1.37,16.977 4.09,31.825 l -0.43,0.269 c -3.1,-6.371 -5.53,-11.059 -7.31,-14.062 -3.22,-5.59 -6.5,-10.43 -9.84,-14.512 -3.3,-4.09 -6.32,-7.035 -9.04,-8.836 -0.79,-0.481 -1.53,-0.719 -2.23,-0.723 -1.11,0 -2,0.782 -2.66,2.344 -1.12,2.523 -1.67,6.789 -1.67,12.801 0,7.691 0.94,16.707 2.85,27.047 1.93,10.336 4.22,19.32 6.87,26.957 1.32,3.843 3.19,7.117 5.63,9.824 4,4.445 7.61,7.543 10.84,9.285 2.18,1.141 4.59,1.711 7.24,1.715 1.82,0 3.51,-0.211 5.08,-0.633 1.61,-0.422 3.65,-1.293 6.12,-2.613 l 3.97,3.426 1.36,-1.621 c -2.64,-13.286 -4.98,-25.848 -7,-37.684 -1.24,-7.098 -2.08,-12.414 -2.53,-15.957 -0.79,-5.594 -1.41,-10.91 -1.86,-15.957 -0.09,-0.965 -0.13,-1.777 -0.13,-2.434 0,-1.207 0.17,-2.136 0.5,-2.797 0.29,-0.421 0.68,-0.629 1.18,-0.629 0.65,0 1.5,0.387 2.54,1.172 1.07,0.778 3.36,3.121 6.86,7.032 z m -10.27,56.613 c -1.53,1.082 -3.14,1.863 -4.83,2.344 -1.69,0.543 -3.47,0.812 -5.33,0.812 -3.58,0 -6.31,-0.875 -8.17,-2.613 -0.86,-0.781 -1.82,-2.77 -2.85,-5.953 -2.1,-6.371 -3.92,-13.492 -5.44,-21.364 -2.4,-12.261 -3.6,-23.05 -3.6,-32.367 0,-1.621 0.09,-2.824 0.25,-3.605 0.21,-0.781 0.5,-1.383 0.87,-1.805 0.37,-0.355 0.72,-0.539 1.05,-0.539 0.79,0 1.98,0.781 3.59,2.344 3.18,3.183 6.52,7.754 10.03,13.703 3.51,5.953 6.4,12.711 8.67,20.285 2.27,7.574 4.19,17.156 5.76,28.758" transform="matrix(.13333 0 0 -.13333 0 157.333)"/><path fill="none" stroke="#231f20" stroke-linecap="round" stroke-miterlimit="3.864" stroke-width=".4" d="m 2162.88,679.309 0.69,-3.879 -9.29,-10.457 c -2.93,-3.067 -5.26,-5.137 -6.99,-6.219 -0.59,-0.422 -1.12,-0.629 -1.61,-0.633 -0.75,0 -1.47,0.574 -2.17,1.715 -0.71,1.141 -1.06,2.551 -1.06,4.234 0,6.371 1.37,16.977 4.09,31.825 l -0.43,0.269 c -3.1,-6.371 -5.53,-11.059 -7.31,-14.062 -3.22,-5.59 -6.5,-10.43 -9.84,-14.512 -3.3,-4.09 -6.32,-7.035 -9.04,-8.836 -0.79,-0.481 -1.53,-0.719 -2.23,-0.723 -1.11,0 -2,0.782 -2.66,2.344 -1.12,2.523 -1.67,6.789 -1.67,12.801 0,7.691 0.94,16.707 2.85,27.047 1.93,10.336 4.22,19.32 6.87,26.957 1.32,3.843 3.19,7.117 5.63,9.824 4,4.445 7.61,7.543 10.84,9.285 2.18,1.141 4.59,1.711 7.24,1.715 1.82,0 3.51,-0.211 5.08,-0.633 1.61,-0.422 3.65,-1.293 6.12,-2.613 l 3.97,3.426 1.36,-1.621 c -2.64,-13.286 -4.98,-25.848 -7,-37.684 -1.24,-7.098 -2.08,-12.414 -2.53,-15.957 -0.79,-5.594 -1.41,-10.91 -1.86,-15.957 -0.09,-0.965 -0.13,-1.777 -0.13,-2.434 0,-1.207 0.17,-2.136 0.5,-2.797 0.29,-0.421 0.68,-0.629 1.18,-0.629 0.65,0 1.5,0.387 2.54,1.172 1.07,0.778 3.36,3.121 6.86,7.032 z" transform="matrix(.13333 0 0 -.13333 0 157.333)"/><path fill="none" stroke="#231f20" stroke-linecap="round" stroke-miterlimit="3.864" stroke-width=".4" d="m 2152.61,735.922 c -1.53,1.082 -3.14,1.863 -4.83,2.344 -1.69,0.543 -3.47,0.812 -5.33,0.812 -3.58,0 -6.31,-0.875 -8.17,-2.613 -0.86,-0.781 -1.82,-2.77 -2.85,-5.953 -2.1,-6.371 -3.92,-13.492 -5.44,-21.364 -2.4,-12.261 -3.6,-23.05 -3.6,-32.367 0,-1.621 0.09,-2.824 0.25,-3.605 0.21,-0.781 0.5,-1.383 0.87,-1.805 0.37,-0.355 0.72,-0.539 1.05,-0.539 0.79,0 1.98,0.781 3.59,2.344 3.18,3.183 6.52,7.754 10.03,13.703 3.51,5.953 6.4,12.711 8.67,20.285 2.27,7.574 4.19,17.156 5.76,28.758 z" transform="matrix(.13333 0 0 -.13333 0 157.333)"/><path fill="#231f20" d="m 2174.71,658.121 -1.11,1.262 c 2.06,10.156 3.63,18.57 4.7,25.246 2.06,13.039 3.61,24.605 4.64,34.707 0.58,5.828 0.87,9.855 0.87,12.078 0,1.563 -0.17,2.672 -0.49,3.336 -0.21,0.48 -0.54,0.719 -1,0.723 -1.4,0 -4.89,-2.95 -10.46,-8.836 l -1.48,2.976 c 5.57,6.731 10.44,11.715 14.6,14.961 2.9,2.285 5.04,3.426 6.45,3.43 0.74,0 1.34,-0.363 1.79,-1.086 0.45,-0.719 0.68,-1.832 0.68,-3.332 0,-1.621 -0.29,-4.57 -0.86,-8.836 -0.91,-7.57 -2.13,-16.289 -3.66,-26.145 4.37,11.122 8.79,20.586 13.25,28.399 2.8,4.93 4.95,8.019 6.44,9.285 1.48,1.262 2.93,1.895 4.33,1.895 0.74,0 1.57,-0.332 2.48,-0.993 -0.7,-5.293 -1.4,-11.933 -2.11,-19.921 l -1.67,-0.543 c -1.24,2.402 -2.62,3.605 -4.15,3.605 -1.4,0 -2.95,-0.84 -4.64,-2.523 -2.72,-2.645 -5.55,-7.184 -8.48,-13.614 -2.89,-6.371 -5.22,-14.093 -6.99,-23.168 -1,-4.929 -2.54,-14.847 -4.65,-29.75 -3.71,-1.199 -6.54,-2.25 -8.48,-3.156" transform="matrix(.13333 0 0 -.13333 0 157.333)"/><path fill="none" stroke="#231f20" stroke-linecap="round" stroke-miterlimit="3.864" stroke-width=".4" d="m 2174.71,658.121 -1.11,1.262 c 2.06,10.156 3.63,18.57 4.7,25.246 2.06,13.039 3.61,24.605 4.64,34.707 0.58,5.828 0.87,9.855 0.87,12.078 0,1.563 -0.17,2.672 -0.49,3.336 -0.21,0.48 -0.54,0.719 -1,0.723 -1.4,0 -4.89,-2.95 -10.46,-8.836 l -1.48,2.976 c 5.57,6.731 10.44,11.715 14.6,14.961 2.9,2.285 5.04,3.426 6.45,3.43 0.74,0 1.34,-0.363 1.79,-1.086 0.45,-0.719 0.68,-1.832 0.68,-3.332 0,-1.621 -0.29,-4.57 -0.86,-8.836 -0.91,-7.57 -2.13,-16.289 -3.66,-26.145 4.37,11.122 8.79,20.586 13.25,28.399 2.8,4.93 4.95,8.019 6.44,9.285 1.48,1.262 2.93,1.895 4.33,1.895 0.74,0 1.57,-0.332 2.48,-0.993 -0.7,-5.293 -1.4,-11.933 -2.11,-19.921 l -1.67,-0.543 c -1.24,2.402 -2.62,3.605 -4.15,3.605 -1.4,0 -2.95,-0.84 -4.64,-2.523 -2.72,-2.645 -5.55,-7.184 -8.48,-13.614 -2.89,-6.371 -5.22,-14.093 -6.99,-23.168 -1,-4.929 -2.54,-14.847 -4.65,-29.75 -3.71,-1.199 -6.54,-2.25 -8.48,-3.156 z" transform="matrix(.13333 0 0 -.13333 0 157.333)"/><path fill="#231f20" d="m 2250.24,681.563 1.42,-3.247 c -3.71,-4.39 -7.43,-8.472 -11.14,-12.261 -3.67,-3.785 -6.38,-6.219 -8.11,-7.301 -0.95,-0.602 -1.88,-0.899 -2.78,-0.902 -1.08,0 -2.01,0.753 -2.79,2.253 -0.79,1.442 -1.18,3.844 -1.18,7.211 0,1.446 0.08,3.067 0.25,4.872 0.16,1.859 0.45,4.355 0.87,7.48 l 2.78,18.48 c 0.95,6.551 2.41,17.637 4.4,33.266 l -10.59,-0.359 0.31,2.703 c 3.34,1.863 5.61,3.156 6.81,3.879 1.24,0.781 2.66,1.769 4.27,2.972 0.62,4.688 1.05,8.235 1.3,10.641 0.29,2.461 0.93,9.281 1.92,20.461 l 5.39,3.34 4.33,3.152 1.49,-1.621 c -1.65,-9.68 -2.54,-14.879 -2.67,-15.598 -0.32,-2.105 -1.34,-9.257 -3.03,-21.453 1.86,-0.125 3.35,-0.183 4.46,-0.183 4.09,0 7,0.39 8.73,1.172 l 0.62,-0.723 -1.49,-8.832 c -1.73,0 -6.19,0.148 -13.37,0.449 -0.74,-4.988 -1.92,-13.492 -3.53,-25.512 -1.57,-11.964 -2.6,-20.644 -3.1,-26.054 -0.2,-2.164 -0.31,-3.848 -0.31,-5.047 0,-1.383 0.23,-2.434 0.68,-3.156 0.46,-0.665 1.02,-0.993 1.68,-0.993 0.53,0 1.09,0.149 1.67,0.453 1.2,0.719 2.7,1.981 4.52,3.786 l 6.19,6.672" transform="matrix(.13333 0 0 -.13333 0 157.333)"/><path fill="none" stroke="#231f20" stroke-linecap="round" stroke-miterlimit="3.864" stroke-width=".4" d="m 2250.24,681.563 1.42,-3.247 c -3.71,-4.39 -7.43,-8.472 -11.14,-12.261 -3.67,-3.785 -6.38,-6.219 -8.11,-7.301 -0.95,-0.602 -1.88,-0.899 -2.78,-0.902 -1.08,0 -2.01,0.753 -2.79,2.253 -0.79,1.442 -1.18,3.844 -1.18,7.211 0,1.446 0.08,3.067 0.25,4.872 0.16,1.859 0.45,4.355 0.87,7.48 l 2.78,18.48 c 0.95,6.551 2.41,17.637 4.4,33.266 l -10.59,-0.359 0.31,2.703 c 3.34,1.863 5.61,3.156 6.81,3.879 1.24,0.781 2.66,1.769 4.27,2.972 0.62,4.688 1.05,8.235 1.3,10.641 0.29,2.461 0.93,9.281 1.92,20.461 l 5.39,3.34 4.33,3.152 1.49,-1.621 c -1.65,-9.68 -2.54,-14.879 -2.67,-15.598 -0.32,-2.105 -1.34,-9.257 -3.03,-21.453 1.86,-0.125 3.35,-0.183 4.46,-0.183 4.09,0 7,0.39 8.73,1.172 l 0.62,-0.723 -1.49,-8.832 c -1.73,0 -6.19,0.148 -13.37,0.449 -0.74,-4.988 -1.92,-13.492 -3.53,-25.512 -1.57,-11.964 -2.6,-20.644 -3.1,-26.054 -0.2,-2.164 -0.31,-3.848 -0.31,-5.047 0,-1.383 0.23,-2.434 0.68,-3.156 0.46,-0.665 1.02,-0.993 1.68,-0.993 0.53,0 1.09,0.149 1.67,0.453 1.2,0.719 2.7,1.981 4.52,3.786 z" transform="matrix(.13333 0 0 -.13333 0 157.333)"/><path fill="#231f20" d="m 2265.59,659.023 -0.86,1.532 3.52,18.39 c 1.32,7.332 2.48,14.453 3.47,21.368 1.28,8.894 2.23,16.675 2.85,23.351 0.29,3.063 0.43,5.406 0.43,7.031 0,1.739 -0.18,2.942 -0.55,3.606 -0.34,0.719 -0.75,1.082 -1.24,1.082 -0.62,0 -1.53,-0.481 -2.73,-1.445 -2.27,-1.684 -4.6,-3.758 -6.99,-6.219 l -0.87,3.875 c 1.98,2.285 4.68,5.047 8.11,8.297 3.47,3.304 6.36,5.617 8.67,6.941 1.19,0.598 2.23,0.898 3.09,0.902 0.87,0 1.53,-0.363 1.99,-1.082 0.49,-0.722 0.74,-1.867 0.74,-3.425 0,-1.446 -0.17,-3.52 -0.5,-6.223 -0.08,-0.84 -1.32,-9.555 -3.71,-26.145 4,7.993 7.34,13.946 10.03,17.852 4.54,6.488 9.18,11.566 13.92,15.234 3.18,2.407 5.97,3.606 8.36,3.606 1.04,0 1.8,-0.332 2.3,-0.988 0.49,-0.665 0.74,-1.688 0.74,-3.067 0,-2.344 -0.23,-5.41 -0.68,-9.195 -0.33,-2.586 -1.53,-10.488 -3.59,-23.711 4.16,8.414 8.44,15.351 12.81,20.824 4.42,5.527 8.98,9.887 13.69,13.07 3.21,2.102 5.87,3.157 7.98,3.157 1.03,0 1.79,-0.36 2.29,-1.078 0.5,-0.723 0.74,-1.868 0.74,-3.426 0,-1.805 -0.26,-4.571 -0.8,-8.297 -0.91,-6.371 -2.68,-16.676 -5.32,-30.922 -3.1,-16.766 -4.65,-26.926 -4.65,-30.469 0,-1.203 0.17,-2.136 0.5,-2.797 0.37,-0.601 0.78,-0.902 1.24,-0.902 0.53,0 1.13,0.211 1.79,0.633 0.91,0.48 2.12,1.437 3.66,2.883 l 4.82,4.871 0.99,-3.516 c -1.85,-2.285 -4.58,-5.172 -8.17,-8.656 -3.55,-3.488 -6.39,-5.86 -8.54,-7.121 -1.04,-0.602 -1.98,-0.903 -2.85,-0.903 -0.95,0 -1.8,0.606 -2.54,1.805 -0.74,1.199 -1.11,2.883 -1.11,5.047 0,1.684 0.08,3.242 0.24,4.687 0.17,1.442 0.7,4.536 1.61,9.29 0.95,4.804 2.44,13.128 4.46,24.968 1.65,9.856 2.68,16.918 3.1,21.184 0.45,4.269 0.68,6.762 0.68,7.484 0,1.082 -0.19,1.922 -0.56,2.524 -0.33,0.601 -0.74,0.902 -1.24,0.902 -1.07,0 -2.84,-0.93 -5.32,-2.793 -2.48,-1.867 -5.3,-5.051 -8.48,-9.559 -3.18,-4.445 -5.78,-9.015 -7.81,-13.703 -2.02,-4.629 -3.75,-10.304 -5.19,-17.039 -1.45,-6.672 -3,-17.16 -4.65,-31.461 -2.52,-0.601 -5.41,-1.468 -8.66,-2.613 l -0.87,1.262 c 1.94,10.035 3.82,20.941 5.63,32.722 1.86,11.84 3.14,21.364 3.84,28.582 0.5,5.165 0.74,8.649 0.74,10.454 0,1.324 -0.2,2.343 -0.61,3.066 -0.3,0.543 -0.71,0.813 -1.24,0.813 -1.12,0 -2.5,-0.661 -4.15,-1.985 -2.52,-1.863 -5.26,-4.957 -8.23,-9.285 -2.98,-4.328 -5.6,-9.195 -7.87,-14.605 -2.23,-5.348 -4.07,-11.75 -5.51,-19.2 -1.44,-7.457 -2.91,-17.129 -4.39,-29.031 -3.22,-0.781 -6.07,-1.59 -8.55,-2.434" transform="matrix(.13333 0 0 -.13333 0 157.333)"/><path fill="none" stroke="#231f20" stroke-linecap="round" stroke-miterlimit="3.864" stroke-width=".4" d="m 2265.59,659.023 -0.86,1.532 3.52,18.39 c 1.32,7.332 2.48,14.453 3.47,21.368 1.28,8.894 2.23,16.675 2.85,23.351 0.29,3.063 0.43,5.406 0.43,7.031 0,1.739 -0.18,2.942 -0.55,3.606 -0.34,0.719 -0.75,1.082 -1.24,1.082 -0.62,0 -1.53,-0.481 -2.73,-1.445 -2.27,-1.684 -4.6,-3.758 -6.99,-6.219 l -0.87,3.875 c 1.98,2.285 4.68,5.047 8.11,8.297 3.47,3.304 6.36,5.617 8.67,6.941 1.19,0.598 2.23,0.898 3.09,0.902 0.87,0 1.53,-0.363 1.99,-1.082 0.49,-0.722 0.74,-1.867 0.74,-3.425 0,-1.446 -0.17,-3.52 -0.5,-6.223 -0.08,-0.84 -1.32,-9.555 -3.71,-26.145 4,7.993 7.34,13.946 10.03,17.852 4.54,6.488 9.18,11.566 13.92,15.234 3.18,2.407 5.97,3.606 8.36,3.606 1.04,0 1.8,-0.332 2.3,-0.988 0.49,-0.665 0.74,-1.688 0.74,-3.067 0,-2.344 -0.23,-5.41 -0.68,-9.195 -0.33,-2.586 -1.53,-10.488 -3.59,-23.711 4.16,8.414 8.44,15.351 12.81,20.824 4.42,5.527 8.98,9.887 13.69,13.07 3.21,2.102 5.87,3.157 7.98,3.157 1.03,0 1.79,-0.36 2.29,-1.078 0.5,-0.723 0.74,-1.868 0.74,-3.426 0,-1.805 -0.26,-4.571 -0.8,-8.297 -0.91,-6.371 -2.68,-16.676 -5.32,-30.922 -3.1,-16.766 -4.65,-26.926 -4.65,-30.469 0,-1.203 0.17,-2.136 0.5,-2.797 0.37,-0.601 0.78,-0.902 1.24,-0.902 0.53,0 1.13,0.211 1.79,0.633 0.91,0.48 2.12,1.437 3.66,2.883 l 4.82,4.871 0.99,-3.516 c -1.85,-2.285 -4.58,-5.172 -8.17,-8.656 -3.55,-3.488 -6.39,-5.86 -8.54,-7.121 -1.04,-0.602 -1.98,-0.903 -2.85,-0.903 -0.95,0 -1.8,0.606 -2.54,1.805 -0.74,1.199 -1.11,2.883 -1.11,5.047 0,1.684 0.08,3.242 0.24,4.687 0.17,1.442 0.7,4.536 1.61,9.29 0.95,4.804 2.44,13.128 4.46,24.968 1.65,9.856 2.68,16.918 3.1,21.184 0.45,4.269 0.68,6.762 0.68,7.484 0,1.082 -0.19,1.922 -0.56,2.524 -0.33,0.601 -0.74,0.902 -1.24,0.902 -1.07,0 -2.84,-0.93 -5.32,-2.793 -2.48,-1.867 -5.3,-5.051 -8.48,-9.559 -3.18,-4.445 -5.78,-9.015 -7.81,-13.703 -2.02,-4.629 -3.75,-10.304 -5.19,-17.039 -1.45,-6.672 -3,-17.16 -4.65,-31.461 -2.52,-0.601 -5.41,-1.468 -8.66,-2.613 l -0.87,1.262 c 1.94,10.035 3.82,20.941 5.63,32.722 1.86,11.84 3.14,21.364 3.84,28.582 0.5,5.165 0.74,8.649 0.74,10.454 0,1.324 -0.2,2.343 -0.61,3.066 -0.3,0.543 -0.71,0.813 -1.24,0.813 -1.12,0 -2.5,-0.661 -4.15,-1.985 -2.52,-1.863 -5.26,-4.957 -8.23,-9.285 -2.98,-4.328 -5.6,-9.195 -7.87,-14.605 -2.23,-5.348 -4.07,-11.75 -5.51,-19.2 -1.44,-7.457 -2.91,-17.129 -4.39,-29.031 -3.22,-0.781 -6.07,-1.59 -8.55,-2.434 z" transform="matrix(.13333 0 0 -.13333 0 157.333)"/><path fill="#231f20" fill-rule="evenodd" d="m 2399.13,680.48 0.8,-3.515 c -4.74,-6.313 -9.45,-11.063 -14.11,-14.246 -4.62,-3.184 -8.54,-4.778 -11.76,-4.778 -2.11,0 -4.33,0.782 -6.69,2.344 -2.31,1.621 -4.15,4.117 -5.51,7.481 -1.32,3.367 -1.98,8.144 -1.98,14.336 0,6.789 0.78,14.269 2.35,22.449 1.57,8.23 3.14,14.394 4.71,18.48 1.57,4.082 3.71,7.723 6.44,10.907 3.75,4.507 7.75,8.203 12.01,11.089 2.97,2.043 5.84,3.063 8.6,3.063 3.1,0 5.64,-1.199 7.62,-3.606 2.02,-2.402 3.03,-5.769 3.03,-10.093 0,-3.129 -0.45,-6.223 -1.36,-9.286 -0.87,-3.066 -2.08,-5.71 -3.65,-7.933 -2.19,-3.067 -5.22,-5.922 -9.1,-8.567 -3.89,-2.644 -7.93,-4.835 -12.14,-6.582 l -8.05,-2.793 c -0.78,-6.128 -1.18,-10.937 -1.18,-14.421 0,-5.891 0.89,-10.313 2.67,-13.254 1.81,-2.95 4.06,-4.418 6.75,-4.418 2.39,0 5.07,0.84 8.05,2.523 2.97,1.742 7.14,5.348 12.5,10.82 z m -28.29,23.168 c 5.28,1.442 9.82,3.516 13.62,6.219 3.79,2.766 6.54,6.102 8.24,10.008 1.73,3.969 2.59,7.754 2.59,11.359 0,3.067 -0.54,5.411 -1.61,7.032 -1.03,1.625 -2.39,2.437 -4.08,2.437 -2.4,0 -4.83,-1.055 -7.31,-3.16 -2.43,-2.043 -4.4,-5.137 -5.88,-9.281 -1.48,-4.149 -3.34,-12.352 -5.57,-24.614" transform="matrix(.13333 0 0 -.13333 0 157.333)"/><path fill="none" stroke="#231f20" stroke-linecap="round" stroke-miterlimit="3.864" stroke-width=".4" d="m 2399.13,680.48 0.8,-3.515 c -4.74,-6.313 -9.45,-11.063 -14.11,-14.246 -4.62,-3.184 -8.54,-4.778 -11.76,-4.778 -2.11,0 -4.33,0.782 -6.69,2.344 -2.31,1.621 -4.15,4.117 -5.51,7.481 -1.32,3.367 -1.98,8.144 -1.98,14.336 0,6.789 0.78,14.269 2.35,22.449 1.57,8.23 3.14,14.394 4.71,18.48 1.57,4.082 3.71,7.723 6.44,10.907 3.75,4.507 7.75,8.203 12.01,11.089 2.97,2.043 5.84,3.063 8.6,3.063 3.1,0 5.64,-1.199 7.62,-3.606 2.02,-2.402 3.03,-5.769 3.03,-10.093 0,-3.129 -0.45,-6.223 -1.36,-9.286 -0.87,-3.066 -2.08,-5.71 -3.65,-7.933 -2.19,-3.067 -5.22,-5.922 -9.1,-8.567 -3.89,-2.644 -7.93,-4.835 -12.14,-6.582 l -8.05,-2.793 c -0.78,-6.128 -1.18,-10.937 -1.18,-14.421 0,-5.891 0.89,-10.313 2.67,-13.254 1.81,-2.95 4.06,-4.418 6.75,-4.418 2.39,0 5.07,0.84 8.05,2.523 2.97,1.742 7.14,5.348 12.5,10.82 z" transform="matrix(.13333 0 0 -.13333 0 157.333)"/><path fill="none" stroke="#231f20" stroke-linecap="round" stroke-miterlimit="3.864" stroke-width=".4" d="m 2370.84,703.648 c 5.28,1.442 9.82,3.516 13.62,6.219 3.79,2.766 6.54,6.102 8.24,10.008 1.73,3.969 2.59,7.754 2.59,11.359 0,3.067 -0.54,5.411 -1.61,7.032 -1.03,1.625 -2.39,2.437 -4.08,2.437 -2.4,0 -4.83,-1.055 -7.31,-3.16 -2.43,-2.043 -4.4,-5.137 -5.88,-9.281 -1.48,-4.149 -3.34,-12.352 -5.57,-24.614 z" transform="matrix(.13333 0 0 -.13333 0 157.333)"/><path fill="#231f20" d="m 2414.24,658.574 -0.81,1.531 c 2.81,12.739 5.39,27.946 7.74,45.618 1.69,12.98 2.54,21.484 2.54,25.511 0,1.325 -0.15,2.223 -0.44,2.704 -0.28,0.542 -0.7,0.812 -1.23,0.812 -0.5,0 -1.01,-0.121 -1.55,-0.359 -1.03,-0.543 -2.31,-1.477 -3.84,-2.797 l -4.89,-4.688 -0.8,3.699 5.75,6.219 c 2.23,2.281 4.56,4.414 7,6.403 2.47,1.98 4.29,3.211 5.45,3.691 0.57,0.301 1.19,0.449 1.86,0.453 0.86,0 1.54,-0.391 2.04,-1.172 0.62,-1.14 0.92,-2.586 0.92,-4.324 0,-1.148 -0.08,-2.559 -0.24,-4.238 -0.33,-2.649 -1.12,-7.606 -2.35,-14.879 l -2.79,-16.676 0.44,-0.18 c 3.58,8.536 7.73,16.075 12.44,22.629 4.7,6.61 9.63,11.625 14.79,15.055 3.72,2.461 6.48,3.691 8.3,3.695 1.11,0 2,-0.511 2.66,-1.535 0.7,-1.019 1.05,-2.492 1.06,-4.414 0,-4.144 -1.43,-14.242 -4.28,-30.293 -3.83,-21.394 -5.76,-33.984 -5.76,-37.773 0,-1.203 0.15,-2.071 0.44,-2.614 0.33,-0.48 0.74,-0.718 1.24,-0.718 0.62,0 1.61,0.507 2.97,1.531 2.85,2.344 5.46,4.867 7.86,7.57 l 1.05,-3.605 c -3.51,-4.145 -6.38,-7.301 -8.6,-9.465 -4.01,-3.727 -6.96,-6.129 -8.85,-7.211 -0.79,-0.481 -1.61,-0.719 -2.48,-0.723 -1.16,0 -2.09,0.574 -2.79,1.715 -0.66,1.078 -0.99,2.762 -0.99,5.047 0,1.801 0.17,4.027 0.5,6.672 0.61,4.566 2.17,13.851 4.64,27.855 3.01,16.95 4.52,27.317 4.52,31.102 0,1.805 -0.21,3.035 -0.62,3.699 -0.41,0.719 -0.99,1.078 -1.73,1.078 -1.37,0 -3.02,-0.781 -4.96,-2.344 -3.17,-2.46 -6.48,-6.281 -9.9,-11.449 -3.43,-5.109 -6.27,-10.574 -8.55,-16.406 -2.27,-5.77 -4.27,-13.223 -6,-22.359 -0.66,-3.422 -1.67,-10.489 -3.03,-21.184 -3.02,-0.723 -5.93,-1.68 -8.73,-2.883" transform="matrix(.13333 0 0 -.13333 0 157.333)"/><path fill="none" stroke="#231f20" stroke-linecap="round" stroke-miterlimit="3.864" stroke-width=".4" d="m 2414.24,658.574 -0.81,1.531 c 2.81,12.739 5.39,27.946 7.74,45.618 1.69,12.98 2.54,21.484 2.54,25.511 0,1.325 -0.15,2.223 -0.44,2.704 -0.28,0.542 -0.7,0.812 -1.23,0.812 -0.5,0 -1.01,-0.121 -1.55,-0.359 -1.03,-0.543 -2.31,-1.477 -3.84,-2.797 l -4.89,-4.688 -0.8,3.699 5.75,6.219 c 2.23,2.281 4.56,4.414 7,6.403 2.47,1.98 4.29,3.211 5.45,3.691 0.57,0.301 1.19,0.449 1.86,0.453 0.86,0 1.54,-0.391 2.04,-1.172 0.62,-1.14 0.92,-2.586 0.92,-4.324 0,-1.148 -0.08,-2.559 -0.24,-4.238 -0.33,-2.649 -1.12,-7.606 -2.35,-14.879 l -2.79,-16.676 0.44,-0.18 c 3.58,8.536 7.73,16.075 12.44,22.629 4.7,6.61 9.63,11.625 14.79,15.055 3.72,2.461 6.48,3.691 8.3,3.695 1.11,0 2,-0.511 2.66,-1.535 0.7,-1.019 1.05,-2.492 1.06,-4.414 0,-4.144 -1.43,-14.242 -4.28,-30.293 -3.83,-21.394 -5.76,-33.984 -5.76,-37.773 0,-1.203 0.15,-2.071 0.44,-2.614 0.33,-0.48 0.74,-0.718 1.24,-0.718 0.62,0 1.61,0.507 2.97,1.531 2.85,2.344 5.46,4.867 7.86,7.57 l 1.05,-3.605 c -3.51,-4.145 -6.38,-7.301 -8.6,-9.465 -4.01,-3.727 -6.96,-6.129 -8.85,-7.211 -0.79,-0.481 -1.61,-0.719 -2.48,-0.723 -1.16,0 -2.09,0.574 -2.79,1.715 -0.66,1.078 -0.99,2.762 -0.99,5.047 0,1.801 0.17,4.027 0.5,6.672 0.61,4.566 2.17,13.851 4.64,27.855 3.01,16.95 4.52,27.317 4.52,31.102 0,1.805 -0.21,3.035 -0.62,3.699 -0.41,0.719 -0.99,1.078 -1.73,1.078 -1.37,0 -3.02,-0.781 -4.96,-2.344 -3.17,-2.46 -6.48,-6.281 -9.9,-11.449 -3.43,-5.109 -6.27,-10.574 -8.55,-16.406 -2.27,-5.77 -4.27,-13.223 -6,-22.359 -0.66,-3.422 -1.67,-10.489 -3.03,-21.184 -3.02,-0.723 -5.93,-1.68 -8.73,-2.883 z" transform="matrix(.13333 0 0 -.13333 0 157.333)"/><path fill="#231f20" d="m 2510.94,681.563 1.42,-3.247 c -3.71,-4.39 -7.43,-8.472 -11.14,-12.261 -3.68,-3.785 -6.38,-6.219 -8.11,-7.301 -0.95,-0.602 -1.88,-0.899 -2.79,-0.902 -1.07,0 -2,0.753 -2.78,2.253 -0.79,1.442 -1.18,3.844 -1.18,7.211 0,1.446 0.09,3.067 0.25,4.872 0.16,1.859 0.45,4.355 0.87,7.48 l 2.78,18.48 c 0.95,6.551 2.42,17.637 4.4,33.266 l -10.59,-0.359 0.31,2.703 c 3.34,1.863 5.61,3.156 6.81,3.879 1.24,0.781 2.66,1.769 4.27,2.972 0.62,4.688 1.06,8.235 1.3,10.641 0.29,2.461 0.93,9.281 1.92,20.461 l 5.39,3.34 4.33,3.152 1.49,-1.621 c -1.66,-9.68 -2.54,-14.879 -2.66,-15.598 -0.34,-2.105 -1.35,-9.257 -3.04,-21.453 1.86,-0.125 3.35,-0.183 4.46,-0.183 4.08,0 6.99,0.39 8.73,1.172 l 0.62,-0.723 -1.49,-8.832 c -1.73,0 -6.19,0.148 -13.37,0.449 -0.75,-4.988 -1.92,-13.492 -3.53,-25.512 -1.57,-11.964 -2.6,-20.644 -3.09,-26.054 -0.21,-2.164 -0.32,-3.848 -0.32,-5.047 0,-1.383 0.23,-2.434 0.69,-3.156 0.45,-0.665 1,-0.993 1.67,-0.993 0.53,0 1.09,0.149 1.67,0.453 1.2,0.719 2.7,1.981 4.52,3.786 l 6.19,6.672" transform="matrix(.13333 0 0 -.13333 0 157.333)"/><path fill="none" stroke="#231f20" stroke-linecap="round" stroke-miterlimit="3.864" stroke-width=".4" d="m 2510.94,681.563 1.42,-3.247 c -3.71,-4.39 -7.43,-8.472 -11.14,-12.261 -3.68,-3.785 -6.38,-6.219 -8.11,-7.301 -0.95,-0.602 -1.88,-0.899 -2.79,-0.902 -1.07,0 -2,0.753 -2.78,2.253 -0.79,1.442 -1.18,3.844 -1.18,7.211 0,1.446 0.09,3.067 0.25,4.872 0.16,1.859 0.45,4.355 0.87,7.48 l 2.78,18.48 c 0.95,6.551 2.42,17.637 4.4,33.266 l -10.59,-0.359 0.31,2.703 c 3.34,1.863 5.61,3.156 6.81,3.879 1.24,0.781 2.66,1.769 4.27,2.972 0.62,4.688 1.06,8.235 1.3,10.641 0.29,2.461 0.93,9.281 1.92,20.461 l 5.39,3.34 4.33,3.152 1.49,-1.621 c -1.66,-9.68 -2.54,-14.879 -2.66,-15.598 -0.34,-2.105 -1.35,-9.257 -3.04,-21.453 1.86,-0.125 3.35,-0.183 4.46,-0.183 4.08,0 6.99,0.39 8.73,1.172 l 0.62,-0.723 -1.49,-8.832 c -1.73,0 -6.19,0.148 -13.37,0.449 -0.75,-4.988 -1.92,-13.492 -3.53,-25.512 -1.57,-11.964 -2.6,-20.644 -3.09,-26.054 -0.21,-2.164 -0.32,-3.848 -0.32,-5.047 0,-1.383 0.23,-2.434 0.69,-3.156 0.45,-0.665 1,-0.993 1.67,-0.993 0.53,0 1.09,0.149 1.67,0.453 1.2,0.719 2.7,1.981 4.52,3.786 z" transform="matrix(.13333 0 0 -.13333 0 157.333)"/><path fill="#231f20" fill-rule="evenodd" d="m 2553.78,685.98 c 0,7.391 0.54,14.301 1.61,20.735 1.07,6.488 2.56,12.105 4.46,16.859 1.9,4.746 4.23,8.918 6.99,12.528 2.77,3.668 5.88,6.578 9.35,8.746 3.47,2.222 6.81,3.336 10.03,3.336 2.97,0 5.8,-0.965 8.48,-2.887 2.68,-1.863 4.77,-4.809 6.26,-8.832 1.48,-3.969 2.22,-9.442 2.22,-16.406 0,-9.258 -1.25,-18.516 -3.77,-27.77 -2.03,-7.332 -4.34,-13.285 -6.94,-17.851 -2.59,-4.504 -5.96,-8.383 -10.09,-11.625 -4.08,-3.188 -8.17,-4.778 -12.25,-4.782 -4.96,0 -8.92,2.313 -11.89,6.942 -2.97,4.687 -4.46,11.687 -4.46,21.007 z m 9.85,1.262 c 0,-5.773 0.43,-10.16 1.3,-13.164 0.86,-3.004 2.16,-5.289 3.89,-6.851 1.78,-1.563 3.88,-2.344 6.32,-2.344 2.68,0 4.99,1.019 6.93,3.066 1.98,2.043 3.92,5.797 5.82,11.27 1.94,5.469 3.34,11.894 4.21,19.289 0.87,7.453 1.3,14.125 1.3,20.015 0,7.512 -0.95,13.219 -2.85,17.129 -1.89,3.969 -4.7,5.95 -8.42,5.95 -5.94,0 -10.52,-5.168 -13.74,-15.504 -3.18,-10.34 -4.76,-23.293 -4.76,-38.856" transform="matrix(.13333 0 0 -.13333 0 157.333)"/><path fill="none" stroke="#231f20" stroke-linecap="round" stroke-miterlimit="3.864" stroke-width=".4" d="m 2553.78,685.98 c 0,7.391 0.54,14.301 1.61,20.735 1.07,6.488 2.56,12.105 4.46,16.859 1.9,4.746 4.23,8.918 6.99,12.528 2.77,3.668 5.88,6.578 9.35,8.746 3.47,2.222 6.81,3.336 10.03,3.336 2.97,0 5.8,-0.965 8.48,-2.887 2.68,-1.863 4.77,-4.809 6.26,-8.832 1.48,-3.969 2.22,-9.442 2.22,-16.406 0,-9.258 -1.25,-18.516 -3.77,-27.77 -2.03,-7.332 -4.34,-13.285 -6.94,-17.851 -2.59,-4.504 -5.96,-8.383 -10.09,-11.625 -4.08,-3.188 -8.17,-4.778 -12.25,-4.782 -4.96,0 -8.92,2.313 -11.89,6.942 -2.97,4.687 -4.46,11.687 -4.46,21.007 z" transform="matrix(.13333 0 0 -.13333 0 157.333)"/><path fill="none" stroke="#231f20" stroke-linecap="round" stroke-miterlimit="3.864" stroke-width=".4" d="m 2563.63,687.242 c 0,-5.773 0.43,-10.16 1.3,-13.164 0.86,-3.004 2.16,-5.289 3.89,-6.851 1.78,-1.563 3.88,-2.344 6.32,-2.344 2.68,0 4.99,1.019 6.93,3.066 1.98,2.043 3.92,5.797 5.82,11.27 1.94,5.469 3.34,11.894 4.21,19.289 0.87,7.453 1.3,14.125 1.3,20.015 0,7.512 -0.95,13.219 -2.85,17.129 -1.89,3.969 -4.7,5.95 -8.42,5.95 -5.94,0 -10.52,-5.168 -13.74,-15.504 -3.18,-10.34 -4.76,-23.293 -4.76,-38.856 z" transform="matrix(.13333 0 0 -.13333 0 157.333)"/><path fill="#231f20" d="m 2612.47,729.613 0.56,4.055 c 5.08,2.703 8.71,5.078 10.9,7.125 2.06,14.66 3.21,22.652 3.46,23.977 0.54,2.824 1.47,5.437 2.79,7.847 1.36,2.403 4.06,5.918 8.11,10.547 4.09,4.625 7.22,7.66 9.41,9.106 1.48,0.957 3.18,1.437 5.07,1.441 2.56,0 5.25,-0.813 8.05,-2.438 -1.65,-6.488 -2.83,-11.476 -3.53,-14.96 l -1.36,-0.633 c -1.03,2.101 -2.35,3.754 -3.96,4.957 -1.57,1.199 -3.22,1.801 -4.95,1.804 -1.94,0 -3.59,-0.632 -4.96,-1.894 -1.32,-1.262 -2.39,-3.004 -3.22,-5.231 -0.82,-2.222 -1.71,-6.668 -2.66,-13.339 -1.36,-9.196 -2.41,-16.68 -3.15,-22.446 5.24,0.176 8.27,0.328 9.1,0.449 1.4,0.239 2.84,0.688 4.33,1.352 l 0.56,-1.082 c -0.95,-3.906 -1.68,-7.453 -2.17,-10.637 -2.31,0.18 -4.38,0.27 -6.19,0.27 -1.7,0 -3.96,-0.063 -6.81,-0.18 l -7.37,-50.305 c -2.68,-17.914 -5,-30.351 -6.93,-37.324 -1.94,-7.031 -4.52,-13.222 -7.74,-18.57 -3.18,-5.348 -6.52,-9.344 -10.03,-11.992 -2.19,-1.68 -4.33,-2.52 -6.44,-2.524 -1.32,0 -2.78,0.575 -4.39,1.715 1.4,6.012 2.37,10.938 2.91,14.785 l 1.54,0.539 c 1.82,-3.363 3.95,-5.047 6.38,-5.047 1.44,0 2.81,0.512 4.09,1.532 1.27,1.023 2.54,2.824 3.77,5.41 1.24,2.586 2.46,7.242 3.65,13.973 2.07,11.359 4.11,25.664 6.13,42.914 l 5.2,44.894 c -2.43,0.059 -4.06,0.086 -4.89,0.09 -1.44,0 -3.2,-0.063 -5.26,-0.18" transform="matrix(.13333 0 0 -.13333 0 157.333)"/><path fill="none" stroke="#231f20" stroke-linecap="round" stroke-miterlimit="3.864" stroke-width=".4" d="m 2612.47,729.613 0.56,4.055 c 5.08,2.703 8.71,5.078 10.9,7.125 2.06,14.66 3.21,22.652 3.46,23.977 0.54,2.824 1.47,5.437 2.79,7.847 1.36,2.403 4.06,5.918 8.11,10.547 4.09,4.625 7.22,7.66 9.41,9.106 1.48,0.957 3.18,1.437 5.07,1.441 2.56,0 5.25,-0.813 8.05,-2.438 -1.65,-6.488 -2.83,-11.476 -3.53,-14.96 l -1.36,-0.633 c -1.03,2.101 -2.35,3.754 -3.96,4.957 -1.57,1.199 -3.22,1.801 -4.95,1.804 -1.94,0 -3.59,-0.632 -4.96,-1.894 -1.32,-1.262 -2.39,-3.004 -3.22,-5.231 -0.82,-2.222 -1.71,-6.668 -2.66,-13.339 -1.36,-9.196 -2.41,-16.68 -3.15,-22.446 5.24,0.176 8.27,0.328 9.1,0.449 1.4,0.239 2.84,0.688 4.33,1.352 l 0.56,-1.082 c -0.95,-3.906 -1.68,-7.453 -2.17,-10.637 -2.31,0.18 -4.38,0.27 -6.19,0.27 -1.7,0 -3.96,-0.063 -6.81,-0.18 l -7.37,-50.305 c -2.68,-17.914 -5,-30.351 -6.93,-37.324 -1.94,-7.031 -4.52,-13.222 -7.74,-18.57 -3.18,-5.348 -6.52,-9.344 -10.03,-11.992 -2.19,-1.68 -4.33,-2.52 -6.44,-2.524 -1.32,0 -2.78,0.575 -4.39,1.715 1.4,6.012 2.37,10.938 2.91,14.785 l 1.54,0.539 c 1.82,-3.363 3.95,-5.047 6.38,-5.047 1.44,0 2.81,0.512 4.09,1.532 1.27,1.023 2.54,2.824 3.77,5.41 1.24,2.586 2.46,7.242 3.65,13.973 2.07,11.359 4.11,25.664 6.13,42.914 l 5.2,44.894 c -2.43,0.059 -4.06,0.086 -4.89,0.09 -1.44,0 -3.2,-0.063 -5.26,-0.18 z" transform="matrix(.13333 0 0 -.13333 0 157.333)"/><path fill="#bdbcbc" d="M677.52 1174.68l1.093-2.19-8.758-10.96v-2.19l-4.382-3.29-6.571-17.54-3.285-6.58h-2.191l-4.379-4.38-2.188-7.67-3.289-4.39h-2.187l-8.762-9.86v-1.1l-4.379-1.09-3.285-3.29v-4.39l-16.426-15.35v-2.18l-8.761-10.96-1.094-3.29-4.379-2.2v-5.48l-3.289-3.29-4.379 1.1-3.285-5.48-3.285-8.77-3.286-2.19-1.093-3.29-4.383-1.09-2.192-1.1-1.093-8.77h-3.285-3.286v-6.58l-7.664-6.57v-2.2l-2.191-1.09v-3.29l-4.379-4.385-7.664-8.77-1.098-2.191-2.191-1.098-1.094-7.672-8.758-10.961-6.57-6.578v-4.383l-3.285-4.386 1.094-1.094 5.476-1.098 1.094 1.098v2.191l2.191 1.098 1.094-4.387-4.379-3.289-5.476 4.387-4.379-1.098-4.383-4.383-2.188-1.097-1.097-4.383-2.188 1.098-2.191-3.293 3.285-2.188-4.379-2.195-1.098-4.383-4.378-1.098v-5.48l-5.477-5.481v-4.382l-6.57 1.093-3.285-3.285 2.191-1.097v-5.481l-3.285 1.094-2.192-3.285-1.093-7.672 6.57-9.867-3.285-2.192 4.379-6.578h-6.571l-3.285-4.383 1.094-4.383 5.477 1.094-2.192-7.672-2.187-1.097v-4.383l-6.571-7.676 1.094 12.059 2.191 2.191v3.289l-3.285 1.098-4.383 6.578-7.664-3.293 2.192-7.672h4.379l1.093-2.191v-3.289l-3.285-2.192-3.285-5.48h-2.187l5.472 10.961-2.187 2.191-8.762-2.191-1.094-2.192 1.094-1.097-1.094-10.961 1.094-2.192h1.098-8.762v-3.289l1.094-1.097-4.379-3.286 2.187-5.48h2.192l-4.379-5.481v3.29l-4.379 3.289-2.191-1.098-3.286-2.191 2.188-3.29-3.285-2.191v-2.195l4.383-4.383 1.093-3.289-4.379-4.387 1.094-2.187-3.285-4.387h-3.285l-2.192 1.098-2.187-2.192v-2.195l4.379-5.481 3.285 1.098 3.285-2.191 3.285-1.098 2.192-2.191 4.379-1.098-5.473-2.191 1.094-5.481-2.192-2.191-7.664 1.093-2.191 4.387 6.57 1.094 2.192 2.195-3.286 2.192-5.476-2.192v4.383l-5.473-1.098-2.191-3.285 1.094-6.578 1.097-1.098-1.097-3.289 1.097-2.191-3.285-2.191 1.094-3.286 3.285-2.195v-10.961l-7.668-10.961 2.191-3.289-8.761-9.863-6.571-10.961-1.093-4.387h-1.098l-3.285-3.289-1.094-7.672-6.57-7.672v-1.093l-2.188-2.196-6.574-5.48v-7.672l1.098-2.191 4.379 1.093 1.097 2.192 8.758-1.094-1.094-3.289 1.094-2.192-5.473-3.289v-3.289l-6.57-3.289-2.191 1.098-1.098-2.191 4.383-4.383-1.094-4.387-2.191 1.098-3.285-2.196v-4.382l-1.094-1.098-3.285 3.289-4.383-2.191v-3.29h3.285l3.285-2.191v-3.289l2.192-3.289-1.094-6.574 4.379-3.289-1.098-5.481-3.281-5.48 1.094-2.192-2.192-3.289 1.098-4.386-3.285 2.191-6.571-6.574h-5.476l-2.192-2.196 1.094-8.769 2.191-2.188-1.093-4.386-2.192-3.289 3.285-2.192v-6.578l-10.949 2.195-2.191-5.48 1.098-6.578-1.098 1.097-2.188-4.382 2.188-1.098 3.285-1.098-2.187-2.191v-2.191l-6.571-7.676v-8.77h-3.285l-2.191-4.383-2.192-7.671-5.476-4.383v-4.387l-3.285-2.191-3.282-7.672 1.094-5.485-3.285-3.285-1.098-2.191-2.187-2.196v-4.382l-2.192-1.094v-3.289l-5.476-4.387-4.379-13.152-9.856-2.196 4.379-4.378-2.187-1.098-2.192 1.098-6.57-4.387 4.379-2.192 2.191 1.094 2.192-3.285-6.571-5.484 1.094-4.383-2.187-9.867-4.383-1.094-3.285-6.574v-5.485l-4.379-3.285-2.192-6.578-4.378-6.578-3.286-2.192 2.188-6.578-8.758-8.765 3.285-5.481-9.855-18.633-5.477-6.578-1.094-5.48-4.382-7.676 2.191-1.094-3.285-1.097-3.285-7.672h-3.285l-1.094-4.387 4.379-3.285-2.192-6.578-4.379-1.094-2.191-2.195v-5.481l-4.379-8.769 2.188-2.192-1.094-4.382-2.188-5.481-2.191-6.578-3.285-10.961-2.192-3.289-1.093-6.578h-3.286l-1.097-3.285v-3.289l-2.188-4.383-1.093-5.481-4.383-5.484v-8.77l-5.477-5.476v-12.059l-5.472-9.867-1.094-6.574-7.668-9.867-1.094-1.098 2.191-3.285-4.382-10.961-1.094-4.387-1.098-2.191-1.094-7.672-2.187-6.574-4.383-5.481-1.094-4.387-5.476-9.867h-4.379l-6.57-7.672-4.383-1.093-3.285-3.289v-3.289l-2.188-2.192-3.285-1.098v-3.285l-7.668-8.7692h-4.379l-7.664-9.8633 1.094-2.1953-3.285-2.1953 1.093-3.2852-4.378-5.4804v-3.2891l-2.192-2.1914h-3.285l-6.57-6.5781-1.094-4.3829-6.5704-1.0976-4.3789-3.2891-3.2852-1.0937-7.668-8.7696-5.4726-4.3828-5.4766 1.0938-3.2851-3.2891H59.9063L46.7617 28.1484 44.5742 25.957 33.6211 24.8594 28.1484 20.4727H27.0547L21.5781 16.0898 9.53125 2.9375V.746094l-2.1875 1.093746 8.75785 15.34766-2.1914 2.1914 3.289 17.5391 1.0938 3.289v4.3828l-4.3828 5.4805h-2.1875l-1.0938 6.5742 1.0938 3.2891-1.0938 2.1953 2.1875 3.2852-1.0937 2.1953 2.1875 3.289-1.0938 3.2852 4.3828 24.1172 2.1875 3.2852-1.0937 2.195 2.1875 5.481v5.48l8.7617 27.403 1.0937 9.863 3.2852 1.097 2.1914-1.097 3.2852 4.387v8.765l7.664 9.867-2.1875 7.672 2.1875 4.387 1.0977 5.477 5.4726 7.675-1.0937 8.77 3.2851 3.289 3.2852 1.094-2.1914 3.289 7.668 18.633h2.1914l2.1875 2.191 1.0976 6.578 3.2852 1.098v15.343l4.3789 6.579h2.1914v6.574l2.1875 4.387v7.671l1.0976 7.676 4.379 2.188 1.0976 8.769 3.2813 3.289 5.4765 13.153 2.1914 3.293-1.0976 3.285 3.2855 6.578 1.097 3.285 2.188 1.098v5.48l1.097 1.098v4.383l3.286 3.289v4.382l3.285 4.387 1.094 5.481 3.285 3.289 1.093 6.574 4.383 3.289v6.578l1.094 2.192 1.094 3.289 5.476 2.191-1.093 8.77 5.472 5.48-1.094 5.48 2.192 2.192 1.094 6.578 9.855 20.824 1.094 3.289 2.191-2.191 3.285-1.098v-4.383l-4.379-5.48v-4.383l-3.285-4.387-1.097-8.769-4.379-1.094 1.094-5.484-3.286-3.285-1.093-7.676-3.286-3.289-2.191-9.864-2.187-2.191-1.098-6.578-8.758-10.961 2.188-4.383-8.758-14.25v-5.48l2.187-2.192 3.285-1.097-6.57 1.097-1.094-1.097v-9.864l-2.191-3.289v-4.386l-2.188-2.192v-3.285l7.665-5.484-3.286-2.192h-7.664l-2.191-1.093 3.285-4.387-1.094-3.289 2.188-2.192 2.191 3.289 1.094 2.192 3.285-2.192 4.383 4.383 5.473 4.387v7.672l4.382 4.383 1.094 5.48 2.192 5.481-2.192 4.386 7.664 3.289 3.285 12.059v6.574l3.286 6.574-1.094 3.289 2.191 3.289 2.188 3.29 2.191 2.191 3.285 9.867 3.285 2.192 2.192 12.054 5.472 8.77 2.192 7.676h2.191l3.285 8.765v4.387l5.477 4.383v6.578l3.281 1.097-1.094 4.383-2.187 2.192 2.187 5.48 5.477 2.195 1.094 5.477-2.188 1.098 8.758 13.152v3.289l-2.187 1.098h-3.286l-1.097 1.094 2.191 3.289-2.191 1.093-3.285-6.574 3.285-4.383-6.571-12.058-5.472 1.093 3.285 4.387-1.098 3.289 5.477 14.246 5.476 8.774 3.286 6.574 2.187 3.289-1.094 6.578 4.379 7.672h3.285l3.286 3.289v6.574h4.382l2.188 3.289-2.188 2.192v6.578l8.758 9.867v6.574l3.285 2.196 5.477 1.093 2.191 2.192v3.289l-2.191 3.289 2.191 4.383h3.282l2.191 2.191-3.285 2.195v-1.097 4.383l5.476 6.578v6.578l1.094 4.383-2.191-1.098-5.473-5.477-3.285-7.675-3.285-2.192-1.094-5.48-4.383-4.387 1.094 6.578 3.289 7.676 5.473 4.379 1.097 4.391 8.758 14.246 1.098-3.289-3.289-5.481 3.289-2.191 3.285 3.289v2.191l3.285 3.289h3.285l3.285 4.383-1.097 1.098 5.476 5.48 1.094 3.289 2.191 4.383-1.093 1.098 3.285 3.289 5.473 6.574v4.387l4.382 4.382 1.094 5.481 5.477 5.48-1.094 4.387h-6.574l-2.188-3.289v-2.191l-3.285-2.196v2.196l5.473 8.765 9.855 14.25h2.192l-1.094-2.191 4.379-5.481 4.379 5.481 2.191 1.098 3.285 2.191v8.769l-1.094 1.094 2.188 3.289-3.281 1.098-8.762-8.77 3.285-5.48-3.285 1.094v5.484l19.711 28.496 7.664 3.289 3.285 6.578 5.477 1.094 2.187 1.098 2.192 5.48-3.286 3.289 2.192 2.192v3.289l8.758 12.054 1.097 8.77 7.664 2.191 3.286 4.387-2.188 2.192h-3.285l4.379 5.48 3.285-1.098 4.379 13.157 2.191 1.093 6.571 14.25 6.57 6.578 6.57 2.192 2.192-1.098 3.285 2.196-1.098 3.285-3.285 1.097 2.191 3.289-1.093 2.192 4.379 4.387 1.093 1.093 3.285 6.578h5.477v-3.289l2.191-2.191-1.097-2.191 4.379-1.098 3.285 3.289 7.668 10.961-1.094 4.383-3.289-1.098 2.191 4.387 4.383-1.098 2.188 3.289-3.285 4.387 8.761 13.152-1.094 1.094h3.286l3.285 3.293 3.285-2.195 4.379 3.289v5.48l-2.192 4.383 2.192 1.098 3.285 1.097-1.094 3.285h-2.191l-3.285-2.191-3.285 3.289 3.285 1.098 4.379 7.672 3.285 3.289 2.191 5.476 2.192-5.476-1.098-2.192 7.668-2.195v2.195l-2.192 3.289 3.286 3.285 5.476-1.097 1.094 3.289 9.855 9.867 2.192 6.574-7.664 4.387-2.192-3.289 1.094-2.191-8.762-4.387 1.098 2.195 7.664 8.77 5.477 9.863h3.285l-1.098-6.578 2.192-2.192v-2.191l1.093-1.098 4.383 3.289v1.098l9.856 10.957 1.093 4.387 3.286 1.097 1.093 4.383 7.668 10.961 8.762 8.77 4.379 2.191 1.094 9.867 4.382 2.192 1.094 4.383 8.762 9.863v4.39l-3.285-1.1-2.192 2.19h-3.285l1.094 5.48 5.476 1.1v-2.19l-1.093-1.1 4.379-3.29 3.285 1.1 2.191 4.38 5.473 2.2 1.098 5.48 15.328 16.44 1.097 2.19 2.188 1.1 12.047 15.34 9.855 12.06-1.098 2.19-4.378-1.09h-1.094l4.379 4.38 2.191 2.2 1.094-3.29h2.191l12.047 10.95v3.29l4.379 2.19 13.141 14.26 17.519 19.72 6.574 8.77 6.567 6.58v2.19l4.383 4.39 5.472 2.19 5.477 8.77h2.191l1.094-12.06 7.668 12.06 1.094 2.19 5.472 2.19 3.289 3.29-3.289 3.29 5.477 2.19 5.477 5.48M627.969 1142.43l.832-3.05-3.613-1.95v1.95l2.781 3.05" transform="matrix(.13333 0 0 -.13333 0 157.333)"/><path fill="#bdbcbc" d="m 622.129,1134.64 1.945,-1.94 -8.617,-3.07 -1.664,-1.67 2.777,-3.05 -5.836,1.11 -5.562,-7.79 2.781,-1.12 4.727,3.9 -4.727,-5.57 -9.453,-9.74 0.836,4.73 -1.668,1.12 -5.84,-8.91 1.945,-2.78 -3.613,-3.9 h -3.055 l -2.781,2.79 7.504,13.63 h 1.945 l 4.727,5.85 7.508,8.63 3.89,1.94 1.946,2.78 5.562,1.95 3.055,-0.83 1.668,1.94" transform="matrix(.13333 0 0 -.13333 0 157.333)"/><path fill="#bdbcbc" fill-rule="evenodd" d="m 585.16,1094.02 v -2.79 l -2.781,-1.94 1.109,-1.11 -4.722,-3.63 -3.059,2.79 4.727,3.89 h 1.945 l 2.781,2.79" transform="matrix(.13333 0 0 -.13333 0 157.333)"/><path fill="#bdbcbc" d="M569.035 1087.34h2.778l-1.668-1.95-1.946-6.68-2.781-1.94-1.109-3.07-3.614-.83 7.504 11.41.836 3.06M557.637 1070.92h1.945l-1.945-5.01-2.782 1.11 2.782 3.9M557.914 1062.3l.836-1.95-4.727-3.9h-4.726l-1.945-1.95h-2.782l2.782 3.9 7.503-1.11 3.059 5.01M540.68 1052.55l2.781-3.89h3.891l-2.782-.84-1.109.84-3.617-3.89 1.945-2.79-1.945-1.11-1.11 1.95-6.671-1.95 5.835 8.63 1.668 1.11 1.114 1.94M522.609 1031.13l1.946-.84 1.113-2.78-5.84-3.89.836 3.89 1.945 3.62M495.09 993.563l3.058-.836-1.949-2.782-1.945.836.836 2.782M485.637 981.039h1.945l1.113-8.625-3.89-4.73v1.949l-4.727 4.726 4.727 2.786.832 3.894M475.352 961.84l4.726-.836-1.668-1.113-1.945 1.113-4.727-5.008 1.946-2.781-3.059-3.899-1.945 6.68 4.726 5.008 1.946.836M463.953 951.266l1.945-1.114v-2.785l-2.777-1.945-5.84.832 6.672 5.012M515.66 942.918l5.004-2.781v-4.735l-6.672-3.894-1.113-2.781h-4.727v1.668l3.895 3.894.832 6.68 2.781 1.949M495.09 907.301l2.777 1.113-2.777-4.73-1.113 2.781 1.113.836M487.305 899.785h3.89l-1.668-6.676-1.945-1.949-3.059 2.781 2.782 5.844M414.75 885.594l-2.781-10.574-3.891 1.113 3.059 3.617.832 3.895 2.781 1.949M404.465 870.289l1.945-3.059-3.89-1.949v3.895l1.945 1.113M391.121 854.707l3.891-.836-1.946-3.894-2.781-.836.836 5.566M448.652 825.023l3.286-4.386-1.094-4.383-8.762-8.77h-4.383l10.953 17.539M438.797 804.195l2.187-1.093-1.093-4.387-3.286-1.094-1.093 3.289 3.285 3.285M397.328 704.441l1.113 1.95h2.778l5.004-2.786-1.946-3.894-6.672.836-1.945-1.949 1.945-10.575-1.945 1.114.836 3.894-2.781 3.621 2.781 3.059.832 4.73M206.348 564.75l1.945-.832-.832-4.734-3.891 1.671 2.778 3.895M189.391 534.141l.836-1.114-4.45-11.406h-1.945l.836 5.567 4.723 3.89v3.063" transform="matrix(.13333 0 0 -.13333 0 157.333)"/><path fill="#231f20" d="M 841.188,453.965 C 698.859,237.75 558.148,115.746 501.438,71.2227 691.672,88.25 841.332,248.742 841.332,443.508 c 0,3.496 -0.047,6.984 -0.144,10.457" transform="matrix(.13333 0 0 -.13333 0 157.333)"/><path fill="#231f20" fill-rule="evenodd" d="M 839.203,483.559 C 829.766,571.816 789.496,650.996 729.422,710.055 713.578,679.168 686.809,624.512 668.461,587.5 657.344,565.238 649.559,549.656 649.559,549.656 618.148,485.098 573.391,395.219 529.469,267.211 v 0 c -45.035,-137.461 25.574,-91.824 25.574,-91.824 90.625,64.281 232.176,242.218 284.16,308.172" transform="matrix(.13333 0 0 -.13333 0 157.333)"/><path fill="#231f20" d="M150.031 444.25c20.567 52.293 41.965 100.414 63.641 143.25 50.039 99.063 97.566 169.828 136.484 210.734C201.793 748.746 94.5 608.41 94.5 443.508c0-32.43 3.6875-64.141 11.656-94.164l3.16 3.16v4.387l3.286 4.382 1.093 5.481 3.285 3.289 1.098 6.578 4.379 3.285v6.578l1.094 2.192 1.097 3.289 5.473 2.195-1.094 8.766 5.477 5.48-1.098 5.481 2.192 2.191 1.093 6.578 9.856 20.824 1.094 3.29 2.39-2.52M382.078 666.039l-2.82-4.984 1.633-1.637-1.094-4.387-2.192 1.098-3.285-2.191v-4.387l-1.093-1.094-1.997-3.785.903-.602v-3.289l2.187-3.285-1.093-6.578 4.378-3.289-1.093-5.481-3.285-5.48 1.093-2.191-2.187-3.289 1.094-4.383-3.286 2.191-6.57-6.578h-5.476l-2.188-2.191 1.094-8.77 2.187-2.191-1.093-4.383-2.188-3.289 3.281-2.196v-6.574l-10.949 2.192-2.187-5.481 1.093-6.574-1.093 1.094-2.192-4.383 2.192-1.098 3.281-1.094-2.188-2.195v-2.191l-6.57-7.672v-8.77h-3.285l-2.192-4.382-2.191-7.676-5.477-4.383v-4.387l-3.281-2.191-3.285-7.672 1.094-5.481-3.285-3.289-1.094-2.191-2.191-2.191v-2.633c21.605 26.57 51.562 61.629 86.125 97.324 62.55 64.836 142.054 134.125 221.281 168.91 11.121 4.731 19.246 8.754 30.086 11.817-45.164 28.261-113.387 48.75-178.535 49.679 0 0-28.075-37.289-70.606-112.699l2.684-1.602-1.946-3.894-3.797.488c-3.238-6.222-6.996-13.008-10.335-19.746l1.695-.211-1.094-3.289 1.094-2.187-5.473-3.293v-3.285l-4.289-2.149M190.176 193.945c49.902-55.586 116.172-96.1677 191.129-114.0622.832 86.8202 71.437 337.3162 172.902 506.2262 83.398 137.188-39.75 43.133-39.75 43.133C496.109 615.328 478.871 601.137 463.027 587.5 346.828 488.16 289.285 403.844 289.285 403.844 266.488 374.066 249.391 348.023 235.492 324.371l1.946-1.461-2.192-6.578-4.379-1.094-2.191-2.191v-5.484l-4.379-8.77 2.191-2.188-1.093-4.386-2.192-5.481-2.191-6.578-3.285-10.961-2.192-3.285-1.094-6.578h-3.285l-1.093-3.289v-3.289l-2.192-4.383-1.094-5.48-4.382-5.481v-8.769l-5.473-5.481v-12.059l-5.477-9.863-1.093-6.578-.176-.719" transform="matrix(.13333 0 0 -.13333 0 157.333)"/></g></g></svg>