<?xml version="1.0" encoding="UTF-8"?><svg width="153px" height="30px" xmlns="http://www.w3.org/2000/svg" version="1.2" baseProfile="tiny" viewBox="0 0 153 30"><g fill="#00bc8e"><rect height="1" x="10" width="1"/><rect x="11" width="1" height="1"/><rect x="12" width="1" height="1"/><rect width="1" height="1" x="13"/><rect width="1" height="1" x="14"/><rect x="15" width="1" height="1"/><rect width="1" height="1" x="9" y="1"/><rect x="10" y="1" width="1" height="1"/><rect width="3" height="2" x="11" y="1"/><rect x="14" y="1" width="1" height="2"/><rect width="1" height="1" x="15" y="1"/><rect x="16" y="1" width="1" height="1"/><rect y="1" width="1" height="1" x="17"/><rect x="7" y="2" width="1" height="1"/><rect width="1" height="1" x="8" y="2"/><rect y="2" width="7" height="1" x="9"/><rect height="12" x="16" y="2" width="1"/><rect x="17" y="2" width="1" height="1"/><rect x="18" y="2" width="1" height="1"/><rect x="5" y="3" width="1" height="1"/><rect width="1" height="1" x="6" y="3"/><rect x="7" y="3" width="1" height="1"/><rect x="8" y="3" width="9" height="1"/><rect x="17" y="3" width="1" height="12"/><rect x="18" y="3" width="1" height="1"/><rect x="19" y="3" width="1" height="1"/><rect x="20" y="3" width="1" height="1"/><rect width="1" height="1" x="4" y="4"/><rect x="5" y="4" width="1" height="1"/><rect x="6" y="4" width="4" height="2"/><rect x="10" y="4" width="1" height="1"/><rect x="11" y="4" width="1" height="1"/><rect width="1" height="1" x="12" y="4"/><rect x="13" y="4" width="1" height="1"/><rect height="1" x="14" y="4" width="1"/><rect width="4" height="1" x="15" y="4"/><rect width="1" height="2" x="19" y="4"/><rect y="4" width="1" height="1" x="20"/><rect x="21" y="4" width="1" height="1"/><rect x="22" y="4" width="1" height="1"/><rect x="2" y="5" width="1" height="1"/><rect y="5" width="1" height="1" x="3"/><rect x="4" y="5" width="5" height="1"/><rect height="1" x="10" y="5" width="1"/><rect x="11" y="5" width="1" height="1"/><rect width="1" height="1" x="14" y="5"/><rect x="15" y="5" width="1" height="1"/><rect x="18" y="5" width="3" height="1"/><rect x="21" y="5" width="1" height="2"/><rect x="22" y="5" width="1" height="1"/><rect y="5" width="1" height="1" x="23"/><rect y="6" width="1" height="1"/><rect x="1" y="6" width="1" height="1"/><rect y="6" width="1" height="1" x="2"/><rect width="6" height="1" x="3" y="6"/><rect x="9" y="6" width="1" height="8"/><rect x="10" y="6" width="1" height="8"/><rect width="1" height="8" x="15" y="6"/><rect y="6" width="5" height="1" x="18"/><rect height="17" x="23" y="6" width="1"/><rect y="6" width="1" height="1" x="24"/><rect height="1" x="25" y="6" width="1"/><rect y="7" width="1" height="1"/><rect x="1" y="7" width="4" height="1"/><rect x="5" y="7" width="1" height="1"/><rect height="1" x="6" y="7" width="1"/><rect x="7" y="7" width="1" height="1"/><rect x="8" y="7" width="1" height="8"/><rect width="1" height="1" x="18" y="7"/><rect x="19" y="7" width="1" height="1"/><rect x="20" y="7" width="4" height="1"/><rect width="1" height="15" x="24" y="7"/><rect x="25" y="7" width="1" height="1"/><rect x="26" y="7" width="1" height="1"/><rect width="4" height="1" y="8"/><rect x="4" y="8" width="1" height="1"/><rect height="1" x="5" y="8" width="1"/><rect x="6" y="8" width="1" height="1"/><rect height="1" x="7" y="8" width="1"/><rect y="8" width="1" height="1" x="18"/><rect x="19" y="8" width="1" height="1"/><rect width="1" height="1" x="20" y="8"/><rect x="21" y="8" width="1" height="1"/><rect y="8" width="3" height="1" x="22"/><rect x="25" y="8" width="1" height="13"/><rect x="26" y="8" width="1" height="1"/><rect y="9" width="2" height="12"/><rect width="1" height="13" x="2" y="9"/><rect x="3" y="9" width="1" height="1"/><rect x="4" y="9" width="1" height="1"/><rect x="7" y="9" width="1" height="7"/><rect x="18" y="9" width="1" height="6"/><rect x="21" y="9" width="1" height="1"/><rect x="22" y="9" width="1" height="1"/><rect y="9" width="1" height="11" x="26"/><rect x="3" y="10" width="1" height="9"/><rect x="22" y="10" width="1" height="1"/><rect x="22" y="11" width="1" height="7"/><rect height="1" x="9" y="14" width="1"/><rect x="10" y="14" width="1" height="1"/><rect y="14" width="1" height="1" x="15"/><rect x="16" y="14" width="1" height="1"/><rect y="15" width="1" height="1" x="8"/><rect y="15" width="1" height="1" x="9"/><rect height="1" x="10" y="15" width="1"/><rect x="15" y="15" width="1" height="1"/><rect y="15" width="1" height="1" x="16"/><rect x="17" y="15" width="1" height="1"/><rect y="15" width="1" height="1" x="18"/><rect x="7" y="16" width="1" height="1"/><rect x="8" y="16" width="1" height="1"/><rect x="9" y="16" width="1" height="1"/><rect x="16" y="16" width="1" height="1"/><rect x="17" y="16" width="1" height="1"/><rect height="1" x="18" y="16" width="1"/><rect x="7" y="17" width="1" height="1"/><rect x="18" y="17" width="1" height="1"/><rect height="1" x="22" y="18" width="1"/><rect x="3" y="19" width="1" height="1"/><rect y="19" width="1" height="1" x="22"/><rect y="20" width="1" height="1" x="3"/><rect x="4" y="20" width="1" height="1"/><rect x="21" y="20" width="1" height="1"/><rect x="22" y="20" width="1" height="1"/><rect x="26" y="20" width="1" height="1"/><rect y="21" width="4" height="1"/><rect y="21" width="1" height="3" x="4"/><rect width="1" height="1" x="5" y="21"/><rect height="1" x="6" y="21" width="1"/><rect y="21" width="1" height="1" x="19"/><rect x="20" y="21" width="1" height="1"/><rect y="21" width="1" height="1" x="21"/><rect x="22" y="21" width="3" height="1"/><rect x="25" y="21" width="1" height="1"/><rect y="21" width="1" height="1" x="26"/><rect y="22" width="1" height="1"/><rect x="1" y="22" width="4" height="1"/><rect x="5" y="22" width="1" height="2"/><rect x="6" y="22" width="1" height="1"/><rect x="7" y="22" width="1" height="1"/><rect x="8" y="22" width="1" height="1"/><rect x="17" y="22" width="1" height="1"/><rect y="22" width="1" height="1" x="18"/><rect height="1" x="19" y="22" width="1"/><rect x="20" y="22" width="4" height="1"/><rect y="22" width="1" height="1" x="24"/><rect x="25" y="22" width="1" height="1"/><rect x="26" y="22" width="1" height="1"/><rect height="1" y="23" width="1"/><rect x="1" y="23" width="1" height="1"/><rect x="2" y="23" width="1" height="1"/><rect height="1" x="3" y="23" width="4"/><rect x="7" y="23" width="1" height="2"/><rect y="23" width="1" height="1" x="8"/><rect width="1" height="1" x="9" y="23"/><rect x="10" y="23" width="1" height="1"/><rect x="16" y="23" width="1" height="1"/><rect x="17" y="23" width="1" height="1"/><rect height="1" x="18" y="23" width="5"/><rect x="23" y="23" width="1" height="1"/><rect width="1" height="1" x="24" y="23"/><rect x="25" y="23" width="1" height="1"/><rect y="24" width="1" height="1" x="2"/><rect x="3" y="24" width="1" height="1"/><rect y="24" width="5" height="1" x="4"/><rect height="3" x="9" y="24" width="1"/><rect x="10" y="24" width="1" height="1"/><rect x="11" y="24" width="1" height="1"/><rect x="14" y="24" width="1" height="1"/><rect y="24" width="1" height="1" x="15"/><rect x="16" y="24" width="5" height="1"/><rect x="21" y="24" width="1" height="1"/><rect y="24" width="1" height="1" x="22"/><rect width="1" height="1" x="23" y="24"/><rect x="4" y="25" width="1" height="1"/><rect width="1" height="1" x="5" y="25"/><rect x="6" y="25" width="4" height="1"/><rect y="25" width="1" height="2" x="10"/><rect height="1" x="11" y="25" width="1"/><rect width="1" height="1" x="12" y="25"/><rect x="13" y="25" width="1" height="1"/><rect x="14" y="25" width="1" height="1"/><rect height="1" x="15" y="25" width="4"/><rect x="19" y="25" width="1" height="1"/><rect x="20" y="25" width="1" height="1"/><rect y="25" width="1" height="1" x="21"/><rect x="22" y="25" width="1" height="1"/><rect x="5" y="26" width="1" height="1"/><rect x="6" y="26" width="1" height="1"/><rect x="7" y="26" width="1" height="1"/><rect x="8" y="26" width="9" height="1"/><rect x="17" y="26" width="1" height="1"/><rect y="26" width="1" height="1" x="18"/><rect x="19" y="26" width="1" height="1"/><rect width="1" height="1" x="20" y="26"/><rect x="7" y="27" width="1" height="1"/><rect y="27" width="1" height="1" x="8"/><rect y="27" width="7" height="1" x="9"/><rect x="16" y="27" width="1" height="1"/><rect width="1" height="1" x="17" y="27"/><rect x="18" y="27" width="1" height="1"/><rect width="1" height="1" x="9" y="28"/><rect y="28" width="1" height="1" x="10"/><rect x="11" y="28" width="3" height="1"/><rect y="28" width="1" height="1" x="14"/><rect width="1" height="1" x="15" y="28"/><rect x="16" y="28" width="1" height="1"/><rect x="17" y="28" width="1" height="1"/><rect x="10" y="29" width="1" height="1"/><rect x="11" y="29" width="1" height="1"/><rect x="12" y="29" width="1" height="1"/><rect width="1" height="1" x="13" y="29"/><rect x="14" y="29" width="1" height="1"/><rect x="15" y="29" width="1" height="1"/></g><g fill="#788591"><rect x="111" y="5" width="1" height="1"/><rect x="112" y="5" width="1" height="1"/><rect width="1" height="1" x="151" y="5"/><rect y="5" width="1" height="1" x="152"/><rect x="111" y="6" width="1" height="14"/><rect x="112" y="6" width="1" height="14"/><rect x="151" y="6" width="1" height="3"/><rect x="152" y="6" width="1" height="14"/><rect x="48" y="8" width="1" height="1"/><rect width="1" height="1" x="49" y="8"/><rect x="50" y="8" width="1" height="1"/><rect height="1" x="55" y="8" width="1"/><rect width="1" height="1" x="56" y="8"/><rect height="1" x="57" y="8" width="1"/><rect height="1" x="58" y="8" width="1"/><rect y="8" width="1" height="1" x="68"/><rect x="69" y="8" width="1" height="1"/><rect x="70" y="8" width="1" height="1"/><rect x="71" y="8" width="1" height="1"/><rect x="72" y="8" width="1" height="1"/><rect x="81" y="8" width="1" height="1"/><rect x="82" y="8" width="1" height="1"/><rect x="83" y="8" width="1" height="1"/><rect x="84" y="8" width="1" height="1"/><rect x="89" y="8" width="1" height="1"/><rect width="1" height="1" x="90" y="8"/><rect x="91" y="8" width="1" height="1"/><rect height="1" x="92" y="8" width="1"/><rect x="101" y="8" width="1" height="1"/><rect x="102" y="8" width="1" height="1"/><rect x="103" y="8" width="1" height="1"/><rect x="104" y="8" width="1" height="1"/><rect width="1" height="1" x="118" y="8"/><rect x="119" y="8" width="1" height="1"/><rect height="1" x="120" y="8" width="1"/><rect x="121" y="8" width="1" height="1"/><rect x="122" y="8" width="1" height="1"/><rect height="1" x="145" y="8" width="1"/><rect x="146" y="8" width="1" height="1"/><rect y="8" width="1" height="1" x="147"/><rect x="148" y="8" width="1" height="1"/><rect x="32" y="9" width="1" height="1"/><rect x="33" y="9" width="1" height="1"/><rect x="34" y="9" width="1" height="3"/><rect width="1" height="1" x="35" y="9"/><rect x="40" y="9" width="1" height="1"/><rect y="9" width="1" height="1" x="41"/><rect height="1" x="42" y="9" width="1"/><rect x="47" y="9" width="1" height="1"/><rect x="48" y="9" width="1" height="1"/><rect y="9" width="1" height="1" x="49"/><rect x="50" y="9" width="1" height="1"/><rect x="53" y="9" width="1" height="1"/><rect x="54" y="9" width="1" height="1"/><rect x="55" y="9" width="1" height="1"/><rect height="1" x="56" y="9" width="2"/><rect width="1" height="1" x="58" y="9"/><rect y="9" width="1" height="1" x="59"/><rect height="1" x="60" y="9" width="1"/><rect x="61" y="9" width="1" height="1"/><rect width="1" height="11" x="62" y="9"/><rect height="1" x="63" y="9" width="1"/><rect x="66" y="9" width="1" height="1"/><rect x="67" y="9" width="1" height="1"/><rect x="68" y="9" width="1" height="1"/><rect x="69" y="9" width="2" height="1"/><rect x="71" y="9" width="1" height="1"/><rect width="1" height="1" x="72" y="9"/><rect width="1" height="1" x="73" y="9"/><rect x="74" y="9" width="1" height="1"/><rect height="11" x="77" y="9" width="1"/><rect x="78" y="9" width="1" height="11"/><rect y="9" width="1" height="1" x="79"/><rect y="9" width="1" height="1" x="80"/><rect x="81" y="9" width="1" height="1"/><rect x="82" y="9" width="2" height="1"/><rect x="84" y="9" width="1" height="1"/><rect width="1" height="1" x="85" y="9"/><rect x="86" y="9" width="1" height="1"/><rect x="87" y="9" width="1" height="1"/><rect x="88" y="9" width="1" height="1"/><rect x="89" y="9" width="2" height="1"/><rect x="91" y="9" width="1" height="1"/><rect height="1" x="92" y="9" width="1"/><rect x="93" y="9" width="1" height="1"/><rect width="1" height="1" x="99" y="9"/><rect height="1" x="100" y="9" width="1"/><rect height="1" x="101" y="9" width="1"/><rect x="102" y="9" width="2" height="1"/><rect height="1" x="104" y="9" width="1"/><rect x="105" y="9" width="1" height="1"/><rect x="106" y="9" width="1" height="1"/><rect x="107" y="9" width="1" height="1"/><rect width="1" height="1" x="116" y="9"/><rect height="1" x="117" y="9" width="1"/><rect height="1" x="118" y="9" width="1"/><rect width="2" height="1" x="119" y="9"/><rect height="1" x="121" y="9" width="1"/><rect y="9" width="1" height="1" x="122"/><rect y="9" width="1" height="1" x="123"/><rect x="124" y="9" width="1" height="1"/><rect y="9" width="1" height="1" x="128"/><rect x="129" y="9" width="1" height="1"/><rect x="130" y="9" width="1" height="1"/><rect height="1" x="137" y="9" width="1"/><rect x="138" y="9" width="1" height="1"/><rect x="143" y="9" width="1" height="1"/><rect x="144" y="9" width="1" height="1"/><rect y="9" width="2" height="1" x="145"/><rect x="147" y="9" width="1" height="1"/><rect x="148" y="9" width="1" height="1"/><rect width="1" height="1" x="149" y="9"/><rect x="150" y="9" width="1" height="1"/><rect x="151" y="9" width="1" height="1"/><rect x="32" y="10" width="1" height="1"/><rect y="10" width="1" height="1" x="33"/><rect x="35" y="10" width="1" height="1"/><rect y="10" width="1" height="1" x="40"/><rect width="1" height="3" x="41" y="10"/><rect x="42" y="10" width="1" height="1"/><rect height="1" x="47" y="10" width="1"/><rect width="1" height="3" x="48" y="10"/><rect x="49" y="10" width="1" height="1"/><rect x="50" y="10" width="1" height="1"/><rect height="1" x="52" y="10" width="1"/><rect x="53" y="10" width="1" height="1"/><rect height="1" x="54" y="10" width="6"/><rect y="10" width="2" height="1" x="60"/><rect x="63" y="10" width="1" height="10"/><rect y="10" width="1" height="1" x="66"/><rect x="67" y="10" width="1" height="4"/><rect x="68" y="10" width="1" height="1"/><rect height="1" x="69" y="10" width="1"/><rect x="70" y="10" width="1" height="1"/><rect x="71" y="10" width="1" height="1"/><rect y="10" width="1" height="1" x="72"/><rect x="73" y="10" width="1" height="1"/><rect x="74" y="10" width="1" height="1"/><rect x="79" y="10" width="1" height="1"/><rect x="80" y="10" width="5" height="1"/><rect y="10" width="1" height="10" x="85"/><rect x="86" y="10" width="1" height="1"/><rect x="87" y="10" width="1" height="1"/><rect x="88" y="10" width="4" height="1"/><rect height="1" x="92" y="10" width="1"/><rect x="93" y="10" width="1" height="1"/><rect x="94" y="10" width="1" height="1"/><rect x="98" y="10" width="1" height="1"/><rect x="99" y="10" width="1" height="1"/><rect height="1" x="100" y="10" width="1"/><rect x="101" y="10" width="1" height="1"/><rect width="1" height="1" x="102" y="10"/><rect x="103" y="10" width="1" height="1"/><rect y="10" width="1" height="1" x="104"/><rect x="105" y="10" width="1" height="1"/><rect x="106" y="10" width="1" height="1"/><rect width="1" height="1" x="107" y="10"/><rect x="108" y="10" width="1" height="1"/><rect x="115" y="10" width="1" height="1"/><rect x="116" y="10" width="1" height="1"/><rect x="117" y="10" width="1" height="1"/><rect x="118" y="10" width="1" height="1"/><rect height="1" x="119" y="10" width="1"/><rect y="10" width="1" height="1" x="120"/><rect x="121" y="10" width="1" height="1"/><rect x="122" y="10" width="1" height="1"/><rect width="1" height="1" x="123" y="10"/><rect x="124" y="10" width="1" height="1"/><rect width="1" height="1" x="125" y="10"/><rect x="128" y="10" width="1" height="5"/><rect y="10" width="1" height="7" x="129"/><rect x="130" y="10" width="1" height="5"/><rect width="1" height="4" x="137" y="10"/><rect x="138" y="10" width="1" height="5"/><rect x="142" y="10" width="1" height="1"/><rect x="143" y="10" width="1" height="1"/><rect width="1" height="1" x="144" y="10"/><rect x="145" y="10" width="1" height="1"/><rect x="146" y="10" width="1" height="1"/><rect y="10" width="1" height="1" x="147"/><rect x="148" y="10" width="1" height="1"/><rect x="149" y="10" width="1" height="1"/><rect x="150" y="10" width="1" height="1"/><rect x="151" y="10" width="1" height="1"/><rect x="33" y="11" width="1" height="1"/><rect width="1" height="1" x="35" y="11"/><rect x="36" y="11" width="1" height="1"/><rect x="39" y="11" width="1" height="1"/><rect height="1" x="40" y="11" width="1"/><rect y="11" width="1" height="1" x="42"/><rect x="43" y="11" width="1" height="1"/><rect height="1" x="47" y="11" width="1"/><rect x="49" y="11" width="1" height="1"/><rect width="1" height="1" x="51" y="11"/><rect x="52" y="11" width="1" height="1"/><rect x="53" y="11" width="1" height="1"/><rect x="54" y="11" width="1" height="1"/><rect height="1" x="55" y="11" width="1"/><rect height="1" x="56" y="11" width="1"/><rect x="57" y="11" width="1" height="1"/><rect x="58" y="11" width="1" height="1"/><rect width="1" height="1" x="59" y="11"/><rect x="60" y="11" width="2" height="1"/><rect height="1" x="65" y="11" width="1"/><rect width="1" height="1" x="66" y="11"/><rect x="68" y="11" width="1" height="1"/><rect x="69" y="11" width="1" height="1"/><rect y="11" width="1" height="1" x="71"/><rect x="72" y="11" width="1" height="1"/><rect x="73" y="11" width="1" height="1"/><rect width="1" height="1" x="74" y="11"/><rect x="79" y="11" width="1" height="1"/><rect x="80" y="11" width="1" height="1"/><rect x="81" y="11" width="1" height="1"/><rect x="82" y="11" width="1" height="1"/><rect x="83" y="11" width="1" height="1"/><rect x="84" y="11" width="1" height="1"/><rect x="86" y="11" width="1" height="9"/><rect x="87" y="11" width="1" height="1"/><rect width="1" height="1" x="88" y="11"/><rect x="89" y="11" width="1" height="1"/><rect height="1" x="90" y="11" width="1"/><rect height="1" x="91" y="11" width="1"/><rect width="1" height="1" x="92" y="11"/><rect x="93" y="11" width="1" height="9"/><rect width="1" height="1" x="94" y="11"/><rect height="1" x="97" y="11" width="1"/><rect y="11" width="1" height="1" x="98"/><rect x="99" y="11" width="1" height="1"/><rect width="1" height="1" x="100" y="11"/><rect y="11" width="1" height="1" x="105"/><rect y="11" width="1" height="1" x="106"/><rect height="1" x="107" y="11" width="1"/><rect height="1" x="108" y="11" width="1"/><rect y="11" width="1" height="1" x="115"/><rect x="116" y="11" width="1" height="1"/><rect x="117" y="11" width="1" height="1"/><rect x="123" y="11" width="1" height="1"/><rect height="1" x="124" y="11" width="1"/><rect x="125" y="11" width="1" height="1"/><rect x="141" y="11" width="1" height="1"/><rect x="142" y="11" width="1" height="1"/><rect x="143" y="11" width="1" height="1"/><rect x="144" y="11" width="1" height="1"/><rect y="11" width="1" height="1" x="149"/><rect x="150" y="11" width="1" height="1"/><rect x="151" y="11" width="1" height="1"/><rect x="33" y="12" width="1" height="1"/><rect x="34" y="12" width="1" height="1"/><rect x="35" y="12" width="1" height="3"/><rect x="36" y="12" width="1" height="1"/><rect y="12" width="1" height="1" x="39"/><rect x="40" y="12" width="2" height="1"/><rect height="2" x="42" y="12" width="1"/><rect y="12" width="1" height="1" x="43"/><rect width="1" height="1" x="46" y="12"/><rect y="12" width="1" height="1" x="47"/><rect height="1" x="49" y="12" width="1"/><rect x="51" y="12" width="1" height="1"/><rect x="52" y="12" width="1" height="5"/><rect width="1" height="1" x="53" y="12"/><rect x="54" y="12" width="1" height="1"/><rect x="59" y="12" width="1" height="1"/><rect height="1" x="60" y="12" width="1"/><rect y="12" width="1" height="1" x="61"/><rect x="65" y="12" width="1" height="1"/><rect x="66" y="12" width="1" height="1"/><rect width="1" height="1" x="68" y="12"/><rect y="12" width="1" height="1" x="72"/><rect y="12" width="1" height="1" x="73"/><rect x="74" y="12" width="1" height="1"/><rect width="1" height="1" x="79" y="12"/><rect x="80" y="12" width="1" height="1"/><rect x="84" y="12" width="1" height="1"/><rect x="87" y="12" width="1" height="1"/><rect x="88" y="12" width="1" height="1"/><rect width="1" height="1" x="92" y="12"/><rect x="94" y="12" width="1" height="1"/><rect width="1" height="1" x="97" y="12"/><rect height="1" x="98" y="12" width="1"/><rect x="99" y="12" width="1" height="1"/><rect x="107" y="12" width="1" height="1"/><rect x="108" y="12" width="1" height="1"/><rect width="1" height="1" x="109" y="12"/><rect x="114" y="12" width="1" height="1"/><rect x="115" y="12" width="1" height="1"/><rect x="116" y="12" width="1" height="1"/><rect x="124" y="12" width="1" height="1"/><rect x="125" y="12" width="1" height="1"/><rect x="126" y="12" width="1" height="1"/><rect height="1" x="141" y="12" width="1"/><rect x="142" y="12" width="1" height="1"/><rect x="143" y="12" width="1" height="1"/><rect x="150" y="12" width="1" height="1"/><rect x="151" y="12" width="1" height="1"/><rect x="33" y="13" width="1" height="1"/><rect x="34" y="13" width="1" height="1"/><rect x="36" y="13" width="1" height="1"/><rect x="39" y="13" width="1" height="1"/><rect x="40" y="13" width="2" height="1"/><rect x="43" y="13" width="1" height="1"/><rect x="44" y="13" width="1" height="1"/><rect x="46" y="13" width="1" height="1"/><rect height="3" x="47" y="13" width="1"/><rect y="13" width="1" height="1" x="48"/><rect y="13" width="1" height="1" x="49"/><rect x="51" y="13" width="1" height="1"/><rect x="53" y="13" width="1" height="1"/><rect x="54" y="13" width="1" height="1"/><rect x="60" y="13" width="1" height="1"/><rect x="61" y="13" width="1" height="1"/><rect height="1" x="65" y="13" width="1"/><rect x="66" y="13" width="1" height="1"/><rect x="68" y="13" width="1" height="1"/><rect x="69" y="13" width="1" height="1"/><rect x="70" y="13" width="1" height="1"/><rect x="71" y="13" width="1" height="1"/><rect x="72" y="13" width="1" height="1"/><rect height="1" x="79" y="13" width="1"/><rect x="80" y="13" width="1" height="1"/><rect x="84" y="13" width="1" height="1"/><rect height="1" x="87" y="13" width="1"/><rect width="1" height="1" x="92" y="13"/><rect x="94" y="13" width="1" height="7"/><rect x="97" y="13" width="1" height="1"/><rect x="98" y="13" width="1" height="1"/><rect x="99" y="13" width="1" height="1"/><rect x="114" y="13" width="1" height="1"/><rect x="115" y="13" width="1" height="1"/><rect width="1" height="1" x="116" y="13"/><rect x="124" y="13" width="1" height="1"/><rect height="1" x="125" y="13" width="1"/><rect x="126" y="13" width="1" height="1"/><rect width="1" height="1" x="140" y="13"/><rect x="141" y="13" width="1" height="3"/><rect x="142" y="13" width="1" height="1"/><rect y="13" width="1" height="1" x="151"/><rect x="34" y="14" width="1" height="1"/><rect y="14" width="1" height="1" x="36"/><rect x="37" y="14" width="1" height="1"/><rect width="1" height="1" x="38" y="14"/><rect x="39" y="14" width="1" height="2"/><rect y="14" width="3" height="1" x="40"/><rect x="43" y="14" width="1" height="2"/><rect x="44" y="14" width="1" height="1"/><rect height="1" x="46" y="14" width="1"/><rect y="14" width="1" height="1" x="48"/><rect x="50" y="14" width="1" height="1"/><rect height="1" x="51" y="14" width="1"/><rect x="53" y="14" width="1" height="1"/><rect x="61" y="14" width="1" height="1"/><rect x="66" y="14" width="1" height="1"/><rect y="14" width="4" height="1" x="67"/><rect y="14" width="1" height="1" x="71"/><rect x="72" y="14" width="1" height="1"/><rect x="73" y="14" width="1" height="1"/><rect y="14" width="1" height="1" x="74"/><rect x="79" y="14" width="1" height="1"/><rect x="84" y="14" width="1" height="6"/><rect height="1" x="87" y="14" width="1"/><rect x="92" y="14" width="1" height="6"/><rect x="97" y="14" width="1" height="1"/><rect height="1" x="98" y="14" width="1"/><rect x="114" y="14" width="1" height="1"/><rect x="115" y="14" width="1" height="1"/><rect width="1" height="1" x="125" y="14"/><rect height="1" x="126" y="14" width="1"/><rect width="1" height="1" x="137" y="14"/><rect height="1" x="140" y="14" width="1"/><rect x="142" y="14" width="1" height="1"/><rect x="151" y="14" width="1" height="1"/><rect width="1" height="1" x="34" y="15"/><rect x="35" y="15" width="1" height="1"/><rect y="15" width="1" height="3" x="36"/><rect x="37" y="15" width="1" height="1"/><rect x="38" y="15" width="1" height="1"/><rect x="40" y="15" width="1" height="1"/><rect y="15" width="1" height="1" x="41"/><rect x="42" y="15" width="1" height="1"/><rect y="15" width="1" height="1" x="44"/><rect x="45" y="15" width="1" height="1"/><rect x="46" y="15" width="1" height="1"/><rect width="1" height="1" x="48" y="15"/><rect x="50" y="15" width="1" height="1"/><rect x="51" y="15" width="1" height="1"/><rect x="53" y="15" width="1" height="1"/><rect y="15" width="1" height="1" x="61"/><rect y="15" width="1" height="1" x="67"/><rect y="15" width="1" height="1" x="68"/><rect y="15" width="1" height="1" x="69"/><rect x="70" y="15" width="1" height="1"/><rect x="71" y="15" width="2" height="1"/><rect height="4" x="73" y="15" width="1"/><rect height="1" x="74" y="15" width="1"/><rect height="5" x="79" y="15" width="1"/><rect x="87" y="15" width="1" height="5"/><rect x="97" y="15" width="1" height="1"/><rect x="98" y="15" width="1" height="1"/><rect x="114" y="15" width="1" height="1"/><rect width="1" height="1" x="115" y="15"/><rect x="125" y="15" width="1" height="1"/><rect x="126" y="15" width="1" height="1"/><rect y="15" width="1" height="1" x="128"/><rect x="130" y="15" width="1" height="1"/><rect y="15" width="1" height="1" x="137"/><rect x="138" y="15" width="1" height="1"/><rect x="140" y="15" width="1" height="1"/><rect x="142" y="15" width="1" height="1"/><rect height="1" x="151" y="15" width="1"/><rect y="16" width="1" height="1" x="34"/><rect x="35" y="16" width="1" height="1"/><rect x="37" y="16" width="1" height="1"/><rect height="1" x="38" y="16" width="1"/><rect x="39" y="16" width="1" height="1"/><rect x="40" y="16" width="1" height="1"/><rect height="1" x="42" y="16" width="1"/><rect x="43" y="16" width="1" height="1"/><rect x="44" y="16" width="3" height="2"/><rect x="47" y="16" width="1" height="1"/><rect x="48" y="16" width="1" height="1"/><rect x="51" y="16" width="1" height="1"/><rect x="53" y="16" width="1" height="1"/><rect height="1" x="54" y="16" width="1"/><rect width="1" height="1" x="60" y="16"/><rect width="1" height="1" x="61" y="16"/><rect height="1" x="70" y="16" width="1"/><rect x="71" y="16" width="1" height="1"/><rect x="72" y="16" width="1" height="1"/><rect y="16" width="1" height="2" x="74"/><rect y="16" width="1" height="1" x="75"/><rect x="97" y="16" width="1" height="1"/><rect x="98" y="16" width="1" height="1"/><rect x="99" y="16" width="1" height="1"/><rect x="114" y="16" width="1" height="1"/><rect x="115" y="16" width="1" height="1"/><rect x="116" y="16" width="1" height="1"/><rect x="124" y="16" width="1" height="1"/><rect x="125" y="16" width="1" height="1"/><rect x="126" y="16" width="1" height="1"/><rect x="128" y="16" width="1" height="1"/><rect x="130" y="16" width="1" height="1"/><rect x="137" y="16" width="1" height="1"/><rect x="138" y="16" width="1" height="1"/><rect x="140" y="16" width="1" height="1"/><rect x="141" y="16" width="1" height="1"/><rect x="142" y="16" width="1" height="1"/><rect x="151" y="16" width="1" height="1"/><rect y="17" width="1" height="1" x="35"/><rect x="37" y="17" width="1" height="3"/><rect x="38" y="17" width="1" height="2"/><rect width="1" height="1" x="39" y="17"/><rect x="40" y="17" width="1" height="1"/><rect y="17" width="1" height="1" x="42"/><rect x="43" y="17" width="1" height="1"/><rect x="47" y="17" width="1" height="1"/><rect x="48" y="17" width="1" height="1"/><rect y="17" width="1" height="1" x="51"/><rect x="52" y="17" width="1" height="1"/><rect x="53" y="17" width="1" height="1"/><rect x="54" y="17" width="1" height="1"/><rect x="59" y="17" width="1" height="1"/><rect y="17" width="1" height="1" x="60"/><rect x="61" y="17" width="1" height="1"/><rect x="65" y="17" width="1" height="1"/><rect height="1" x="66" y="17" width="1"/><rect x="67" y="17" width="1" height="1"/><rect x="68" y="17" width="1" height="1"/><rect x="72" y="17" width="1" height="1"/><rect x="75" y="17" width="1" height="1"/><rect width="1" height="1" x="97" y="17"/><rect x="98" y="17" width="1" height="1"/><rect x="99" y="17" width="1" height="1"/><rect height="1" x="107" y="17" width="1"/><rect x="108" y="17" width="1" height="1"/><rect x="109" y="17" width="1" height="1"/><rect x="114" y="17" width="1" height="1"/><rect x="115" y="17" width="1" height="1"/><rect x="116" y="17" width="1" height="1"/><rect x="124" y="17" width="1" height="1"/><rect width="1" height="1" x="125" y="17"/><rect x="126" y="17" width="1" height="1"/><rect x="128" y="17" width="1" height="1"/><rect height="1" x="129" y="17" width="1"/><rect width="1" height="1" x="130" y="17"/><rect x="136" y="17" width="1" height="1"/><rect x="137" y="17" width="1" height="1"/><rect x="138" y="17" width="1" height="1"/><rect height="1" x="140" y="17" width="1"/><rect x="141" y="17" width="1" height="1"/><rect width="1" height="1" x="142" y="17"/><rect width="1" height="1" x="143" y="17"/><rect x="150" y="17" width="1" height="1"/><rect x="151" y="17" width="1" height="1"/><rect x="35" y="18" width="1" height="1"/><rect y="18" width="2" height="1" x="36"/><rect x="39" y="18" width="1" height="1"/><rect x="43" y="18" width="1" height="1"/><rect y="18" width="2" height="1" x="44"/><rect x="46" y="18" width="1" height="1"/><rect y="18" width="1" height="1" x="47"/><rect x="51" y="18" width="1" height="1"/><rect x="52" y="18" width="1" height="1"/><rect x="53" y="18" width="1" height="1"/><rect x="54" y="18" width="1" height="1"/><rect height="1" x="55" y="18" width="1"/><rect x="56" y="18" width="1" height="1"/><rect x="57" y="18" width="1" height="1"/><rect x="58" y="18" width="1" height="1"/><rect x="59" y="18" width="1" height="1"/><rect x="60" y="18" width="2" height="1"/><rect x="65" y="18" width="1" height="1"/><rect x="66" y="18" width="1" height="1"/><rect x="67" y="18" width="1" height="1"/><rect x="68" y="18" width="1" height="1"/><rect x="69" y="18" width="1" height="1"/><rect height="1" x="71" y="18" width="1"/><rect x="72" y="18" width="1" height="1"/><rect x="74" y="18" width="1" height="1"/><rect height="1" x="75" y="18" width="1"/><rect width="1" height="1" x="97" y="18"/><rect x="98" y="18" width="1" height="1"/><rect x="99" y="18" width="1" height="1"/><rect x="100" y="18" width="1" height="1"/><rect x="106" y="18" width="1" height="1"/><rect x="107" y="18" width="1" height="1"/><rect height="1" x="108" y="18" width="1"/><rect x="114" y="18" width="1" height="1"/><rect height="1" x="115" y="18" width="1"/><rect width="1" height="1" x="116" y="18"/><rect x="117" y="18" width="1" height="1"/><rect x="123" y="18" width="1" height="1"/><rect x="124" y="18" width="1" height="1"/><rect x="125" y="18" width="1" height="1"/><rect height="1" x="126" y="18" width="1"/><rect x="128" y="18" width="1" height="1"/><rect x="129" y="18" width="1" height="1"/><rect height="1" x="130" y="18" width="1"/><rect x="131" y="18" width="1" height="1"/><rect x="135" y="18" width="1" height="1"/><rect y="18" width="1" height="1" x="136"/><rect x="137" y="18" width="1" height="1"/><rect x="138" y="18" width="1" height="1"/><rect width="1" height="1" x="141" y="18"/><rect x="142" y="18" width="1" height="1"/><rect x="143" y="18" width="1" height="1"/><rect y="18" width="1" height="1" x="144"/><rect x="149" y="18" width="1" height="1"/><rect x="150" y="18" width="1" height="1"/><rect x="151" y="18" width="1" height="1"/><rect width="1" height="1" x="35" y="19"/><rect x="36" y="19" width="1" height="1"/><rect x="38" y="19" width="1" height="1"/><rect x="39" y="19" width="1" height="1"/><rect height="1" x="43" y="19" width="1"/><rect x="44" y="19" width="1" height="1"/><rect width="1" height="1" x="45" y="19"/><rect x="46" y="19" width="1" height="1"/><rect y="19" width="1" height="1" x="47"/><rect y="19" width="1" height="1" x="52"/><rect x="53" y="19" width="1" height="1"/><rect x="54" y="19" width="6" height="1"/><rect width="2" height="1" x="60" y="19"/><rect x="66" y="19" width="1" height="1"/><rect x="67" y="19" width="2" height="1"/><rect width="4" height="1" x="69" y="19"/><rect width="1" height="1" x="73" y="19"/><rect x="74" y="19" width="1" height="1"/><rect x="98" y="19" width="1" height="1"/><rect x="99" y="19" width="1" height="1"/><rect width="1" height="1" x="100" y="19"/><rect x="101" y="19" width="1" height="1"/><rect height="1" x="102" y="19" width="1"/><rect width="1" height="1" x="103" y="19"/><rect x="104" y="19" width="1" height="1"/><rect x="105" y="19" width="1" height="1"/><rect x="106" y="19" width="1" height="1"/><rect x="107" y="19" width="1" height="1"/><rect x="108" y="19" width="1" height="1"/><rect x="115" y="19" width="1" height="1"/><rect height="1" x="116" y="19" width="1"/><rect x="117" y="19" width="1" height="1"/><rect x="118" y="19" width="1" height="1"/><rect x="119" y="19" width="1" height="1"/><rect x="120" y="19" width="1" height="1"/><rect x="121" y="19" width="1" height="1"/><rect x="122" y="19" width="1" height="1"/><rect height="1" x="123" y="19" width="1"/><rect x="124" y="19" width="1" height="1"/><rect y="19" width="1" height="1" x="125"/><rect x="129" y="19" width="1" height="1"/><rect x="130" y="19" width="1" height="1"/><rect height="1" x="131" y="19" width="1"/><rect y="19" width="1" height="1" x="132"/><rect x="133" y="19" width="1" height="1"/><rect x="134" y="19" width="1" height="1"/><rect width="1" height="1" x="135" y="19"/><rect x="136" y="19" width="1" height="1"/><rect x="137" y="19" width="1" height="1"/><rect width="1" height="1" x="138" y="19"/><rect x="142" y="19" width="1" height="1"/><rect height="1" x="143" y="19" width="1"/><rect height="1" x="144" y="19" width="1"/><rect x="145" y="19" width="1" height="1"/><rect height="1" x="146" y="19" width="1"/><rect width="1" height="1" x="147" y="19"/><rect x="148" y="19" width="1" height="1"/><rect height="1" x="149" y="19" width="1"/><rect y="19" width="1" height="1" x="150"/><rect y="19" width="1" height="1" x="151"/><rect width="1" height="1" x="36" y="20"/><rect x="37" y="20" width="1" height="1"/><rect x="38" y="20" width="1" height="1"/><rect width="1" height="1" x="44" y="20"/><rect height="1" x="45" y="20" width="1"/><rect y="20" width="1" height="1" x="46"/><rect width="1" height="1" x="47" y="20"/><rect height="1" x="53" y="20" width="1"/><rect x="54" y="20" width="1" height="1"/><rect height="1" x="55" y="20" width="3"/><rect x="58" y="20" width="1" height="1"/><rect x="59" y="20" width="1" height="1"/><rect x="60" y="20" width="1" height="1"/><rect y="20" width="1" height="1" x="61"/><rect x="62" y="20" width="1" height="1"/><rect x="63" y="20" width="1" height="1"/><rect x="66" y="20" width="1" height="1"/><rect x="67" y="20" width="1" height="1"/><rect x="68" y="20" width="1" height="1"/><rect width="2" height="1" x="69" y="20"/><rect x="71" y="20" width="1" height="1"/><rect x="72" y="20" width="1" height="1"/><rect x="73" y="20" width="1" height="1"/><rect x="74" y="20" width="1" height="1"/><rect x="77" y="20" width="1" height="1"/><rect x="78" y="20" width="1" height="1"/><rect x="79" y="20" width="1" height="1"/><rect x="84" y="20" width="1" height="1"/><rect width="1" height="1" x="85" y="20"/><rect x="86" y="20" width="1" height="1"/><rect y="20" width="1" height="1" x="87"/><rect y="20" width="1" height="1" x="92"/><rect width="1" height="1" x="93" y="20"/><rect width="1" height="1" x="94" y="20"/><rect x="99" y="20" width="1" height="1"/><rect x="100" y="20" width="1" height="1"/><rect height="1" x="101" y="20" width="1"/><rect x="102" y="20" width="2" height="1"/><rect width="1" height="1" x="104" y="20"/><rect width="1" height="1" x="105" y="20"/><rect width="1" height="1" x="106" y="20"/><rect y="20" width="1" height="1" x="107"/><rect height="1" x="111" y="20" width="1"/><rect x="112" y="20" width="1" height="1"/><rect x="116" y="20" width="1" height="1"/><rect y="20" width="1" height="1" x="117"/><rect x="118" y="20" width="1" height="1"/><rect x="119" y="20" width="2" height="1"/><rect x="121" y="20" width="1" height="1"/><rect x="122" y="20" width="1" height="1"/><rect x="123" y="20" width="1" height="1"/><rect y="20" width="1" height="1" x="124"/><rect x="130" y="20" width="1" height="1"/><rect x="131" y="20" width="1" height="1"/><rect x="132" y="20" width="3" height="1"/><rect x="135" y="20" width="1" height="1"/><rect x="136" y="20" width="1" height="1"/><rect x="137" y="20" width="1" height="1"/><rect x="142" y="20" width="1" height="1"/><rect width="1" height="1" x="143" y="20"/><rect x="144" y="20" width="1" height="1"/><rect height="1" x="145" y="20" width="2"/><rect x="147" y="20" width="1" height="1"/><rect x="148" y="20" width="1" height="1"/><rect x="149" y="20" width="1" height="1"/><rect x="150" y="20" width="1" height="1"/><rect height="1" x="151" y="20" width="1"/><rect y="20" width="1" height="1" x="152"/><rect width="1" height="1" x="36" y="21"/><rect x="37" y="21" width="1" height="1"/><rect x="38" y="21" width="1" height="1"/><rect x="44" y="21" width="1" height="1"/><rect height="1" x="45" y="21" width="1"/><rect y="21" width="1" height="1" x="46"/><rect x="55" y="21" width="1" height="1"/><rect height="1" x="56" y="21" width="1"/><rect x="57" y="21" width="1" height="1"/><rect x="58" y="21" width="1" height="1"/><rect x="59" y="21" width="1" height="1"/><rect height="1" x="63" y="21" width="1"/><rect height="1" x="68" y="21" width="1"/><rect height="1" x="69" y="21" width="1"/><rect width="1" height="1" x="70" y="21"/><rect x="71" y="21" width="1" height="1"/><rect y="21" width="1" height="1" x="72"/><rect x="77" y="21" width="1" height="1"/><rect width="1" height="1" x="78" y="21"/><rect width="1" height="1" x="79" y="21"/><rect y="21" width="1" height="1" x="101"/><rect x="102" y="21" width="1" height="1"/><rect x="103" y="21" width="1" height="1"/><rect x="104" y="21" width="1" height="1"/><rect width="1" height="1" x="105" y="21"/><rect width="1" height="1" x="111" y="21"/><rect x="112" y="21" width="1" height="1"/><rect x="118" y="21" width="1" height="1"/><rect x="119" y="21" width="1" height="1"/><rect x="120" y="21" width="1" height="1"/><rect x="121" y="21" width="1" height="1"/><rect x="122" y="21" width="1" height="1"/><rect x="131" y="21" width="1" height="1"/><rect x="132" y="21" width="1" height="1"/><rect x="133" y="21" width="1" height="1"/><rect x="134" y="21" width="1" height="1"/><rect x="135" y="21" width="1" height="1"/><rect width="1" height="1" x="144" y="21"/><rect x="145" y="21" width="1" height="1"/><rect x="146" y="21" width="1" height="1"/><rect x="147" y="21" width="1" height="1"/><rect x="148" y="21" width="1" height="1"/><rect width="1" height="1" x="151" y="21"/><rect x="152" y="21" width="1" height="1"/><rect x="63" y="22" width="1" height="1"/><rect width="1" height="1" x="63" y="23"/></g></svg>