<svg xmlns="http://www.w3.org/2000/svg" role="img" viewBox="-28.00 -28.00 1284.00 1456.00"><title>webpack logo</title><path fill="#fff" d="M614.36545 0l472.23547 267.112v534.346L614.36545 1068.57 142.13 801.458V267.112z"/><path fill="#8ed6fb" d="M1002.28188 783.03228L629.9846 993.64685V829.6457l231.9689-127.6378zm25.50315-23.06267V319.5826L891.60551 398.2885v283.09724zm-802.80028 23.06267L597.282 993.64685V829.6457L365.19108 702.0079zm-25.50316-23.06267V319.5826l136.17953 78.70591v283.09724zm15.98523-468.94079L597.28201 75.04518v158.51003L352.62255 368.1484l-1.9524 1.09822zm796.33298 0L629.9846 75.04518v158.51003l244.65947 134.47118 1.95239 1.09823z"/><path fill="#1c78c0" d="M597.282 792.30617L368.36374 666.3767V417.0803L597.282 549.23301zm32.7026 0l228.91828-125.80745V417.0803l-228.91827 132.1527zm-246.12374-404.0237L613.6333 261.98696l229.77245 126.29553L613.6333 520.9233z"/><path fill="#2c3a42" d="M153.934 1343.3367h47.10517l48.01873-159.9862h-45.90613l-28.4344 113.5091-30.3186-113.5091h-39.73964l-30.60408 113.5091-28.14891-113.5091H0l47.73325 159.9862h47.10517l29.69053-102.4894zm97.57908-79.5363c0 48.0187 32.71668 83.5332 84.16124 83.5332 39.79674 0 61.20818-23.8667 67.31758-35.1719l-27.86343-21.126c-4.56777 6.7375-17.12915 19.5844-38.88318 19.5844-23.58113 0-40.71029-15.3021-41.62384-36.7135h112.65273c.28549-3.0833.28549-6.1094.28549-9.1927 0-52.301-28.14891-85.3602-77.70926-85.3602-45.62065 0-78.33733 36.0854-78.33733 84.4467zm44.36451-17.4718c1.82711-18.3282 14.67397-32.4312 34.60089-32.4312 19.29885 0 33.34475 12.8469 34.25831 32.4312zm127.61219 97.0081h39.79674v-16.501c4.28229 5.1958 20.2124 20.4979 47.44772 20.4979 45.9062 0 78.3374-34.5438 78.3374-83.8187 0-49.5604-29.9761-84.1042-75.8822-84.1042-27.52083 0-43.45094 15.3021-47.44774 20.7834v-78.0518h-42.19482v221.1944zm40.99578-79.5363c0-29.976 17.75722-47.1052 40.99578-47.1052 24.4947 0 40.9958 19.2989 40.9958 47.1052 0 28.4344-17.1292 46.1916-40.9958 46.1916-25.69374 0-40.99578-20.8405-40.99578-46.1916zm141.03008 136.7477h42.1948v-73.7695c3.9968 5.1958 19.8698 20.4979 47.4477 20.4979 45.9062 0 75.8822-34.5438 75.8822-84.1042 0-48.9323-32.4312-83.8186-78.3374-83.8186-27.2353 0-43.1654 15.302-47.4477 20.7833v-16.8436h-39.7967v217.2547zm40.9957-137.6613c0-25.4082 15.3021-46.1916 40.9958-46.1916 23.8666 0 40.9958 17.7572 40.9958 46.1916 0 27.8634-16.5011 47.1052-40.9958 47.1052-23.2386 0-40.9958-17.1292-40.9958-47.1052zm132.18 30.8896c0 33.6302 27.5208 53.5572 59.952 53.5572 18.3853 0 30.6041-5.4814 38.8832-14.3885l2.7407 10.3916h37.3415v-101.2903c0-35.8-15.302-62.6927-66.6895-62.6927-24.4947 0-48.6468 9.1926-63.0353 18.9562l15.9302 28.777a94.32454 94.32454 0 0 1 42.5374-11.3052c18.6707 0 29.0624 9.4781 29.0624 23.5811v10.3917c-5.8239-3.9968-18.3853-8.8501-34.6009-8.8501-37.3415-.057-62.1217 21.3544-62.1217 52.872zm42.1948-1.2561c0-13.1324 11.3053-22.325 27.5209-22.325 16.2156 0 27.8634 8.2791 27.8634 22.325 0 13.4749-11.6478 22.0395-27.5209 22.0395-15.873 0-27.8634-8.8501-27.8634-22.0395zm199.21206 17.4717c-26.60726 0-45.56356-19.2988-45.56356-46.4771 0-25.6937 16.8437-46.8197 44.07896-46.8197a54.35652 54.35652 0 0 1 37.3416 15.3021l11.9333-35.5145a81.42058 81.42058 0 0 0-50.4739-17.1291c-48.64676 0-85.07476 35.7999-85.07476 84.4467 0 48.6468 35.5145 83.5332 85.36026 83.5332a80.50702 80.50702 0 0 0 49.8458-17.1292l-11.3052-34.5438c-7.0801 5.7668-19.9269 14.3314-36.1425 14.3314zm63.3207 33.3447h42.1949v-82.6196l53.5571 82.6196h49.5604l-60.5801-87.5299 56.2978-72.5134h-47.4478l-51.3874 67.3175v-128.4686h-42.1949z"/></svg>