<?xml version="1.0" encoding="utf-8"?>
<!-- Generator: Adobe Illustrator 24.0.1, SVG Export Plug-In . SVG Version: 6.00 Build 0)  -->
<svg version="1.1" id="WeHealth_x5F_Color_x5F_Stacked"
	 xmlns="http://www.w3.org/2000/svg" xmlns:xlink="http://www.w3.org/1999/xlink" x="0px" y="0px" viewBox="0 0 1832.4 954.4"
	 style="enable-background:new 0 0 1832.4 954.4;" xml:space="preserve">
<style type="text/css">
	.st0{fill:#0D4D89;}
	.st1{fill:#27AE60;}
</style>
<path id="We" class="st0" d="M509.1,742.6c12.7-0.2,25.3,2,37.3,6.3c10.9,4,20.9,10.2,29.2,18.4c8.4,8.4,14.9,18.6,19.1,29.7
	c4.6,11.6,6.9,24.9,6.9,39.7c0,3.8-0.2,7.6-0.6,11.3c-0.2,2.4-1,4.8-2.2,6.9c-1,1.7-2.6,2.9-4.4,3.6c-2.2,0.8-4.5,1.1-6.8,1H468.9
	c2,17.2,7.2,29.7,15.7,37.5s19.4,11.5,32.8,11.5c6.3,0.1,12.5-0.8,18.5-2.6c4.7-1.5,9.3-3.4,13.7-5.8c4.1-2.1,7.8-4,11.1-5.8
	c3.3-1.7,7-2.6,10.7-2.6c4.9,0,8.6,1.8,11.1,5.4l17.9,22c-5.9,6.9-12.9,12.9-20.6,17.8c-7.1,4.4-14.7,8-22.6,10.7
	c-7.6,2.5-15.3,4.2-23.2,5.2c-7.3,1.1-14.6,1.6-22,1.6c-13.9,0.1-27.6-2.2-40.7-6.9c-12.4-4.7-23.6-11.8-33.1-21
	c-9.8-9.8-17.4-21.6-22.4-34.5c-5.4-13.7-8.1-29.7-8.1-48c-0.1-13.3,2.3-26.6,6.9-39.1c4.6-12,11.4-22.9,20.2-32.3
	c9.1-9.4,20-16.9,32-22C479.2,745.3,493.4,742.6,509.1,742.6z M510.3,785c-11.8,0-21,3.4-27.6,10.1s-11,16.2-13.1,28.8h76.8
	c0-4.8-0.7-9.6-2-14.3c-1.1-4.5-3.2-8.7-6.1-12.3c-2.9-3.8-6.7-6.9-11.1-8.9C522.6,786.1,516.9,785,510.3,785L510.3,785z M0,662.5
	h56.4c5.8,0,10.7,1.3,14.5,4c3.8,2.4,6.6,6.1,7.7,10.5l39.7,150.7c1.3,4.9,2.6,10.1,4,15.7c1.3,5.7,2.3,11.5,3,17.4
	c1.3-6.2,2.8-12,4.4-17.4c1.6-5.6,3.1-10.8,4.6-15.7L181.1,677c1.4-4,4-7.5,7.5-9.9c4.1-3.1,9.2-4.7,14.3-4.6h19.8
	c5.8,0,10.6,1.3,14.3,4c3.8,2.4,6.6,6.2,7.9,10.5l46.4,150.7c1.5,4.6,3,9.6,4.6,14.9c1.7,5.5,3.1,11.1,4.2,16.7
	c1.1-5.8,2.1-11.4,3.2-16.7s2.4-10.2,3.6-14.9L346.6,677c1.3-4.1,3.9-7.7,7.5-10.1c4.2-3,9.2-4.5,14.3-4.4h52.8l-89.3,288.9h-60.7
	l-54.4-179c-0.9-2.8-1.9-5.8-3-9.1c-0.9-3.3-1.9-6.8-2.8-10.5c-0.9,3.7-1.9,7.2-3,10.5c-0.9,3.3-1.9,6.3-2.8,9.1l-55.2,179H89.3
	L0,662.5z"/>
<path id="Health" class="st1" d="M895.7,951.2h-67.5V829.1H710.6v122.1h-67.5V662.3h67.5v120.8h117.6V662.3h67.5V951.2z
	 M1031.5,742.4c12.7-0.2,25.3,2,37.3,6.3c10.9,4,20.9,10.2,29.2,18.4c8.4,8.4,14.9,18.5,19.1,29.7c4.6,11.6,6.9,24.9,6.9,39.7
	c0,3.8-0.2,7.6-0.6,11.3c-0.2,2.4-1,4.8-2.2,6.9c-1,1.7-2.6,2.9-4.4,3.6c-2.2,0.8-4.5,1.1-6.8,1H991.2c2,17.2,7.2,29.7,15.7,37.5
	s19.4,11.5,32.8,11.5c6.3,0.1,12.5-0.8,18.5-2.6c4.7-1.5,9.3-3.4,13.7-5.8c4.1-2.1,7.8-4,11.1-5.8c3.3-1.7,7-2.6,10.7-2.6
	c4.9,0,8.6,1.8,11.1,5.4l17.9,22c-5.9,6.9-12.9,12.9-20.6,17.8c-7.1,4.4-14.7,8-22.6,10.7c-7.6,2.5-15.3,4.2-23.2,5.2
	c-7.3,1.1-14.6,1.6-22,1.6c-13.9,0.1-27.6-2.2-40.7-6.9c-12.4-4.7-23.7-11.8-33.2-21c-9.8-9.8-17.4-21.6-22.4-34.5
	c-5.4-13.7-8.1-29.7-8.1-48c-0.1-13.3,2.3-26.6,6.9-39.1c9.2-24.5,28.1-44.2,52.3-54.3C1001.6,745.1,1015.7,742.4,1031.5,742.4z
	 M1032.7,784.9c-11.8,0-21,3.4-27.6,10.1s-11,16.2-13.1,28.8h76.9c0-4.8-0.7-9.6-2-14.3c-1.1-4.5-3.2-8.7-6.2-12.3
	c-2.9-3.8-6.7-6.9-11.1-8.9C1044.9,786,1039.3,784.9,1032.7,784.9z M1301.5,951.2c-5.8,0-10.3-0.8-13.3-2.4s-5.4-4.9-7.3-9.9
	l-4.4-11.3c-5.2,4.4-10.1,8.2-14.9,11.5c-4.7,3.3-9.7,6.1-14.9,8.5c-5.2,2.3-10.7,4-16.3,5c-6.3,1.3-12.7,1.9-19.1,1.8
	c-8.7,0.1-17.3-1.1-25.6-3.6c-7.2-2.2-13.9-6-19.7-10.9c-5.4-4.9-9.6-10.9-12.3-17.6c-3.1-7.8-4.5-16.2-4.4-24.6
	c0.1-7.8,2-15.5,5.6-22.4c3.7-7.7,10.1-14.6,19.3-20.8s21.5-11.6,36.9-15.9s35-6.6,58.6-7.1v-8.7c0-12-2.5-20.7-7.5-26
	s-11.9-8.1-21-8.1c-7.3,0-13.2,0.8-17.9,2.4c-4.3,1.5-8.5,3.3-12.5,5.4c-3.6,2-7.1,3.8-10.5,5.4c-3.9,1.7-8.1,2.5-12.3,2.4
	c-3.9,0.1-7.6-0.9-10.9-3c-2.8-2-5.2-4.7-6.9-7.7l-11.1-19.2c12.1-10.7,26.1-19,41.3-24.4c15.7-5.5,32.2-8.2,48.8-8.1
	c12.5,0,23.6,2,33.6,6.1c9.6,3.7,18.3,9.5,25.4,16.9c7.1,7.3,12.6,16,16.1,25.6c3.8,10.4,5.7,21.4,5.6,32.5v128.5h-28.4
	L1301.5,951.2z M1230.8,913.8c7.2,0.2,14.3-1.3,20.9-4.2c6-2.8,12-7.3,18.1-13.5v-28.6c-10.2,0.3-20.4,1.4-30.4,3.2
	c-6.5,1.2-12.9,3.2-18.9,5.9c-4.6,2.4-7.9,5.1-9.7,8.1c-1.7,3-2.6,6.4-2.6,9.9c0,7,1.9,12,5.8,14.9S1223.4,913.8,1230.8,913.8
	L1230.8,913.8z M1437,654.4v296.8h-61.6V654.4H1437z M1559,954.4c-8.8,0.2-17.7-1.3-26-4.2c-7.1-2.7-13.5-6.8-18.9-12.1
	c-5.1-5.4-9.1-11.9-11.5-19c-2.8-8-4.1-16.4-4-24.8V788h-17.5c-3,0.1-5.9-1-8.1-3c-2.2-2.1-3.4-5.2-3.4-9.1v-24l32.8-6.3l12.1-50.2
	c1.6-6.3,6.1-9.5,13.5-9.5h32.2V746h50v42h-50v102.1c0,4.8,1.1,8.7,3.4,11.9c2.4,3,6.2,4.8,10.1,4.6c1.9,0,3.8-0.2,5.6-0.6
	c1.4-0.4,2.7-1,4-1.6c1-0.6,2.1-1.1,3.2-1.6c1.1-0.5,2.4-0.8,3.6-0.8c1.6-0.1,3.1,0.4,4.4,1.4c1.5,1.1,2.7,2.4,3.6,4l18.7,29.1
	c-8.1,6-17.2,10.6-26.8,13.5C1579.9,952.9,1569.5,954.4,1559,954.4z M1645.7,951.2V654.4h61.6v109.3c7.2-6.2,15.3-11.4,24-15.3
	c8.7-4,19.1-5.9,31.2-5.9c11.3,0,21.2,2,29.8,5.9c8.5,3.7,16,9.2,22,16.3c6.2,7.2,10.8,15.7,13.5,24.8c3.1,10.1,4.7,20.6,4.6,31.1
	v130.7h-61.6V820.6c0-10-2.3-17.8-7-23.4s-11.4-8.5-20.4-8.5c-6.6,0-13.2,1.5-19.1,4.4c-6.2,3.1-12,7-17.1,11.7v146.5h-61.5V951.2z"
	/>
<g id="Brandmark">
	<path class="st0" d="M1163.4,245.8c0,51.5-41.6,93.3-93.1,93.7l-75.6,0.5l46.7-80.9l6.7-12.5L1163.4,245.8z M828,30.7
		c21.4-12.4,46.8-15.8,70.7-9.5c23.9,6.3,44.4,21.9,56.9,43.2l38.3,65.2h-93.4l-14.2,0.5L828,30.7z M809.3,428.7
		c-44.6-25.8-60.1-82.7-34.6-127.4l37.4-65.8l46.7,80.9l7.5,12.1L809.3,428.7z"/>
	<path class="st1" d="M1048.1,246.6l-6.7,12.5L994.7,340l-37.8,65.5c-25.7,44.7-82.7,60.1-127.4,34.6l57.6-99.6l27-46.8
		c5.4-9.3,12.3-17.8,20.2-25.2c17.7-13,38.8-21.5,60.2-21.6L1048.1,246.6z M1019.8,383.2c22.1-12.8,50.4-5.4,63.2,16.7
		c12.8,22.1,5.4,50.4-16.7,63.2c-22.1,12.8-50.3,5.4-63.2-16.7C990.3,424.3,997.8,396,1019.8,383.2
		C1019.8,383.2,1019.8,383.2,1019.8,383.2z M886.4,130.2l14.2-0.5h169c51.5-0.1,93.4,41.5,93.7,93.1h-115h-54
		c-10.8-0.1-21.6-1.7-31.9-4.9c-20.2-8.9-38-22.9-48.8-41.3L886.4,130.2z M1018.8,86.4c-22.2-12.7-29.8-40.9-17.2-63.1
		c12.7-22.2,40.9-29.8,63.1-17.2c22.2,12.7,29.8,40.9,17.2,63.1C1069.2,91.3,1041,99,1018.8,86.4L1018.8,86.4z M866.2,328.5
		l-7.5-12.1L812,235.6L774.2,170C748.4,125.4,763.5,68.4,808,42.4l57.5,99.6l27,46.8c5.4,9.4,9.3,19.5,11.7,30.1
		c2.4,21.9-0.8,44.4-11.4,62.9L866.2,328.5z M762.1,235.7c0.1,25.5-20.5,46.3-46.1,46.4c-25.5,0.1-46.3-20.5-46.4-46.1
		c-0.1-25.5,20.5-46.3,46.1-46.4C741.2,189.6,762,210.2,762.1,235.7C762.1,235.7,762.1,235.7,762.1,235.7z"/>
</g>
</svg>
