<?xml version="1.0" encoding="utf-8"?>
<!-- Generator: Adobe Illustrator 23.0.2, SVG Export Plug-In . SVG Version: 6.00 Build 0)  -->
<svg version="1.1" id="Layer_1" xmlns="http://www.w3.org/2000/svg" xmlns:xlink="http://www.w3.org/1999/xlink" x="0px" y="0px"
	 viewBox="0 0 400 245" style="enable-background:new 0 0 400 245;" xml:space="preserve">
<style type="text/css">
	.st0{fill-rule:evenodd;clip-rule:evenodd;fill:#00378B;}
	.st1{clip-path:url(#SVGID_2_);fill-rule:evenodd;clip-rule:evenodd;fill:#00378B;}
	.st2{fill:#2A2676;}
	.st3{fill:#D1D700;}
	.st4{fill:#FFFFFF;}
	.st5{fill:#82CDE3;}
	.st6{fill:#2C2582;}
	.st7{fill:#44B4E4;}
	.st8{fill:#201F1E;}
	.st9{fill:#32324B;}
	.st10{fill:#00D2FF;}
	.st11{fill:#FF4B19;}
	.st12{fill:#00B26D;}
	.st13{fill:#0067A6;}
	.st14{fill:#231F20;}
	.st15{fill:#CC0000;}
	.st16{fill:#2F1157;}
	.st17{clip-path:url(#SVGID_4_);}
	.st18{clip-path:url(#SVGID_6_);}
	.st19{fill:#00AED6;}
	.st20{clip-path:url(#SVGID_10_);}
	.st21{clip-path:url(#SVGID_12_);fill:#004361;}
	.st22{clip-path:url(#SVGID_14_);}
	.st23{clip-path:url(#SVGID_16_);fill:#009BBA;}
	.st24{clip-path:url(#SVGID_18_);}
	.st25{clip-path:url(#SVGID_20_);fill:#52E2FF;}
	.st26{clip-path:url(#SVGID_22_);}
	.st27{clip-path:url(#SVGID_24_);fill:#004361;}
	.st28{clip-path:url(#SVGID_26_);}
	.st29{clip-path:url(#SVGID_28_);fill:#0D9CB9;}
	.st30{fill:none;}
	.st31{fill:#D6D8D6;}
	.st32{fill:#006DAA;}
	.st33{fill:#797E82;}
	.st34{fill:#626363;}
	.st35{fill:#F05928;}
	.st36{fill:#FF0033;}
	.st37{fill:#010101;}
	.st38{fill:#42A9D2;}
	.st39{fill:#737373;}
	.st40{fill:#868686;}
	.st41{fill:#008ED3;}
	.st42{fill:#3D3D3D;}
	.st43{fill:#F8BE34;}
	.st44{fill:#FECB33;stroke:#333333;stroke-width:2.7217;stroke-miterlimit:10;stroke-opacity:0;}
	.st45{fill:#EAA536;stroke:#333333;stroke-width:2.7217;stroke-miterlimit:10;stroke-opacity:0;}
	.st46{fill:#EF4136;}
	.st47{fill:#FFD100;}
	.st48{fill:none;stroke:#221F1F;stroke-width:0.3387;}
	.st49{fill:none;stroke:#221F1F;stroke-width:0.1129;}
	.st50{fill:#157715;}
	.st51{fill:#3D3E3F;}
	.st52{fill:none;stroke:#3D3E3F;stroke-width:0.2383;stroke-miterlimit:10;}
	.st53{fill:#363E49;}
	.st54{fill:#91C9E5;}
	.st55{fill:url(#SVGID_29_);}
	.st56{fill:url(#SVGID_30_);}
	.st57{fill:url(#SVGID_31_);}
	.st58{fill:url(#SVGID_32_);}
	.st59{fill:url(#SVGID_33_);}
	.st60{fill:url(#SVGID_34_);}
	.st61{fill:url(#SVGID_35_);}
	.st62{fill:url(#SVGID_36_);}
	.st63{fill:url(#SVGID_37_);}
	.st64{fill:url(#SVGID_38_);}
	.st65{fill:url(#SVGID_39_);}
	.st66{fill:url(#SVGID_40_);}
	.st67{fill:url(#SVGID_41_);}
	.st68{fill:url(#SVGID_42_);}
	.st69{fill:url(#SVGID_43_);}
	.st70{fill:url(#SVGID_44_);}
	.st71{fill:url(#SVGID_45_);}
	.st72{fill:url(#SVGID_46_);}
	.st73{fill:url(#SVGID_47_);}
	.st74{fill:url(#SVGID_48_);}
	.st75{fill:url(#SVGID_49_);}
	.st76{fill:url(#SVGID_50_);}
	.st77{fill:url(#SVGID_51_);}
</style>
<g>
	<circle class="st2" cx="50.74" cy="122.5" r="49.5"/>
	<path class="st3" d="M40.67,144.58c2.53,0,4.94-1.49,5.99-3.97l13.21-31.13c1.4-3.31-0.14-7.13-3.45-8.53
		c-3.31-1.4-7.13,0.14-8.53,3.45l-13.21,31.13c-1.4,3.31,0.14,7.13,3.45,8.53C38.95,144.41,39.82,144.58,40.67,144.58z"/>
	<path class="st4" d="M60.93,144.58c2.53,0,4.94-1.49,5.99-3.97l13.21-31.13c1.4-3.31-0.14-7.13-3.45-8.53
		c-3.31-1.4-7.13,0.14-8.53,3.45l-13.21,31.13c-1.4,3.31,0.14,7.13,3.45,8.53C59.22,144.41,60.08,144.58,60.93,144.58z"/>
	<path class="st3" d="M40.54,144.58c-2.53,0-4.94-1.49-5.99-3.97l-13.21-31.13c-1.4-3.31,0.14-7.13,3.45-8.53
		c3.31-1.4,7.13,0.14,8.53,3.45l13.21,31.13c1.4,3.31-0.14,7.13-3.45,8.53C42.25,144.41,41.39,144.58,40.54,144.58z"/>
	<path class="st5" d="M60.93,144.58c-2.53,0-4.94-1.49-5.99-3.97l-13.21-31.13c-1.4-3.31,0.14-7.13,3.45-8.53
		c3.31-1.4,7.13,0.14,8.53,3.45l13.21,31.13c1.4,3.31-0.14,7.13-3.45,8.53C62.64,144.41,61.78,144.58,60.93,144.58z"/>
	<path class="st6" d="M50.8,130.86l7.07-16.66l-4.16-9.81c-0.6-1.42-1.65-2.51-2.91-3.18c-1.26,0.68-2.31,1.77-2.91,3.18l-4.16,9.81
		L50.8,130.86z"/>
	<path class="st7" d="M50.8,130.86l7.07-16.66l-4.16-9.81c-0.6-1.42-1.65-2.51-2.91-3.18c-1.26,0.68-2.31,1.77-2.91,3.18l-4.16,9.81
		L50.8,130.86z"/>
	<g>
		<path class="st5" d="M218.07,129.65c3.89,0,6.93,3.04,6.93,6.93c0,3.72-3.04,6.76-6.93,6.76c-3.72,0-6.76-3.04-6.76-6.76
			C211.31,132.69,214.35,129.65,218.07,129.65z"/>
		<path class="st8" d="M153.21,141.86c-0.35,1.15-1.14,1.86-2.28,1.86c-1.14,0-1.84-0.71-2.19-1.86l-9.3-34.03l-9.21,34.03
			c-0.35,1.15-1.23,1.86-2.37,1.86c-1.14,0-2.02-0.71-2.37-1.86l-10.53-38.99c-0.09-0.26-0.18-0.62-0.18-0.88
			c0-1.42,0.96-2.39,2.19-2.39c1.05,0,1.93,0.53,2.19,1.5l8.86,34.56l8.86-34.03c0.35-1.24,1.32-2.04,2.55-2.04s2.28,0.8,2.63,2.04
			l8.86,34.03l8.86-34.56c0.26-0.97,1.05-1.5,2.11-1.5c1.23,0,2.1,0.97,2.1,2.39c0,0.27-0.09,0.62-0.18,0.88L153.21,141.86z"/>
		<path class="st8" d="M203.78,130.07c-0.35,7.89-6.32,13.25-15.53,13.25c-9.39,0-15.79-5.88-15.79-15.44v-11.93
			c0-10.09,6.4-16.32,15.79-16.32c9.21,0,15.53,6.23,15.53,16.32v4.03c0,1.32-0.88,2.19-2.2,2.19h-24.74v6.05
			c0,6.4,4.12,11.41,11.41,11.41c7.54,0,11.23-4.48,11.41-9.56c0-1.23,0.79-2.11,2.02-2.11S203.87,128.84,203.78,130.07z
			 M176.84,118.32h22.81v-2.72c0-6.93-4.12-12.28-11.41-12.28c-7.28,0-11.41,5.35-11.41,12.28V118.32z"/>
		<path class="st8" d="M226.2,99.63h7.72V90.6c0-1.31,0.88-2.19,2.19-2.19s2.19,0.88,2.19,2.19v9.03h7.72c1.05,0,1.75,0.7,1.75,1.75
			c0,1.05-0.7,1.93-1.75,1.93h-7.72v38.08c0,1.31-0.88,2.19-2.19,2.19s-2.19-0.88-2.19-2.19v-38.08h-7.72
			c-1.05,0-1.75-0.7-1.75-1.75S225.15,99.63,226.2,99.63z"/>
		<path class="st8" d="M260.26,106.16c2.63-4.21,6.93-6.58,12.28-6.58c1.4,0,2.19,0.88,2.19,2.19c0,1.14-0.7,2.02-1.75,1.93
			c-7.63-0.44-12.28,4.38-12.28,11.31v26.5c0,1.31-0.88,2.19-2.19,2.19c-1.31,0-2.19-0.88-2.19-2.19v-39.74
			c0-1.14,0.53-1.75,1.67-1.75c0.79,0,1.49,0.35,1.67,1.75L260.26,106.16z"/>
		<path class="st8" d="M308.09,137.97c-2.63,3.95-7.02,6.23-12.19,6.23c-9.21,0-15-5.88-15-15.44v-13.69c0-9.56,5.79-15.44,15-15.44
			c5.26,0,9.56,2.19,12.19,6.14l0.61-3.95c0.18-1.4,0.88-1.75,1.67-1.75c1.14,0,1.67,0.61,1.67,1.75v40.18
			c0,1.14-0.53,1.75-1.67,1.75c-0.79,0-1.49-0.35-1.67-1.75L308.09,137.97z M307.65,128.23V115.6c0-6.75-4.3-12.02-11.49-12.02
			s-10.88,4.91-10.88,11.14v14.39c0,6.23,3.69,11.14,10.88,11.14S307.65,134.99,307.65,128.23z"/>
		<path class="st8" d="M355.4,142.04c0,1.14-0.53,1.75-1.67,1.75c-0.79,0-1.49-0.35-1.67-1.75l-0.61-4.04
			c-2.63,3.95-7.02,6.23-12.19,6.23c-9.21,0-15-5.88-15-15.44v-13.69c0-9.56,5.79-15.44,15-15.44c4.91,0,9.13,2.02,11.76,5.7V85.72
			c0-1.31,0.88-2.19,2.19-2.19c1.32,0,2.2,0.88,2.2,2.19V142.04z M351.01,128.27v-12.63c0-6.75-4.3-12.02-11.49-12.02
			s-10.88,4.91-10.88,11.14v14.39c0,6.23,3.69,11.14,10.88,11.14S351.01,135.02,351.01,128.27z"/>
		<path class="st8" d="M398.76,130.07c-0.35,7.89-6.32,13.25-15.53,13.25c-9.39,0-15.79-5.88-15.79-15.44v-11.93
			c0-10.09,6.4-16.32,15.79-16.32c9.21,0,15.53,6.23,15.53,16.32v4.03c0,1.32-0.88,2.19-2.2,2.19h-24.74v6.05
			c0,6.4,4.12,11.41,11.4,11.41c7.54,0,11.23-4.48,11.41-9.56c0-1.23,0.79-2.11,2.02-2.11S398.85,128.84,398.76,130.07z
			 M371.83,118.32h22.81v-2.72c0-6.93-4.12-12.28-11.41-12.28c-7.28,0-11.4,5.35-11.4,12.28V118.32z"/>
	</g>
</g>
</svg>
