<?xml version="1.0" encoding="UTF-8"?>
<svg id="Layer_1" data-name="Layer 1" xmlns="http://www.w3.org/2000/svg" viewBox="0 0 1507.06 668.62">
  <defs>
    <style>
      .cls-1 {
        opacity: .8;
      }

      .cls-1, .cls-2, .cls-3, .cls-4 {
        fill: #f05a2b;
      }

      .cls-2 {
        opacity: .6;
      }

      .cls-3 {
        opacity: .4;
      }

      .cls-5 {
        fill: #26326d;
      }
    </style>
  </defs>
  <path class="cls-1" d="M286.59,114.14c123.06,0,227.16,83.99,255.95,191.46l17.11-6.16c-29.17-118.06-139.35-204.02-273.05-204.02-72.89,0-139.38,27.26-189.96,72.08l6.45,19.5c49.18-46.29,114.48-72.86,183.5-72.86Z"/>
  <path class="cls-2" d="M286.59,46.99c-76.04,0-147.74,24.97-206.34,71.04l5.5,16.61c56.56-46.18,126.51-71.3,200.84-71.3,141.78,0,264.15,93.37,304.55,224.65l15.36-5.68c-42.85-137.4-171.29-235.33-319.91-235.33Z"/>
  <path class="cls-3" d="M286.59,16.35c162.33,0,301.24,105.3,348.56,255.44l15.33-5.54C600.75,109.98,455.81,0,286.59,0c-79.89,0-157.41,25.04-221.88,71.07l5.4,16.31C132.62,41.42,208.41,16.35,286.59,16.35Z"/>
  <path class="cls-4" d="M260.72,663.22l1.42,4.29c8.07.68,16.21,1.11,24.45,1.11,42.9,0,83.57-9.49,120.11-26.39l-69.24-211.81-76.74,232.8Z"/>
  <path class="cls-4" d="M286.59,159.9c-64.62,0-125.37,27.99-167.32,76.02l104.59,315.96,77.93-242.44h72.03l82.53,254.57,54.29-181.97.28-5.05c0-122.48-101.85-217.08-224.33-217.08Z"/>
  <path class="cls-4" d="M0,382.02c0,120.58,74.5,223.7,179.96,266.01L42.3,232.16C15.49,275.77,0,327.08,0,382.02Z"/>
  <path class="cls-4" d="M259.38,667.3c.92.09,1.84.13,2.76.21l-1.42-4.29-1.34,4.08Z"/>
  <path class="cls-5" d="M688.03,473.03l30.2-114.22h26.91l-43.93,154.3h-24.98l-28.83-109.83-29.1,109.83h-24.98l-43.65-154.3h27.18l29.93,113.94,29.38-113.94h22.51l29.38,114.22Z"/>
  <circle class="cls-5" cx="780.05" cy="316.64" r="24.48"/>
  <path class="cls-5" d="M766.25,513.11v-154.3h25.54v154.3h-25.54Z"/>
  <path class="cls-5" d="M895.83,356.89v25.54h-3.02c-25.26,0-40.36,14-40.36,41.46v89.23h-25.53v-154.3h24.16v28c3.29-13.18,17.57-29.93,40.09-29.93h4.67Z"/>
  <path class="cls-5" d="M1025.69,443.1h-90.6v17.3c0,21.96,14.27,34.04,32.67,34.04s32.4-11.81,32.4-28.83v-2.47h25.54v1.09c0,28.28-21.42,51.62-57.93,51.62s-58.21-23.62-58.21-60.68v-37.34c0-37.61,21.42-61.22,58.21-61.22s57.93,21.96,57.93,59.85v26.63ZM935.08,424.43h65.07v-9.61c0-25.53-12.35-36.52-32.4-36.52s-32.67,11.81-32.67,34.32v11.81Z"/>
  <path class="cls-5" d="M1081.67,306.65v206.46h-25.81v-206.46h25.81Z"/>
  <path class="cls-5" d="M1229.38,443.1h-90.6v17.3c0,21.96,14.27,34.04,32.67,34.04s32.4-11.81,32.4-28.83v-2.47h25.54v1.09c0,28.28-21.42,51.62-57.93,51.62s-58.21-23.62-58.21-60.68v-37.34c0-37.61,21.42-61.22,58.21-61.22s57.93,21.96,57.93,59.85v26.63ZM1138.78,424.43h65.07v-9.61c0-25.53-12.35-36.52-32.4-36.52s-32.67,11.81-32.67,34.32v11.81Z"/>
  <path class="cls-5" d="M1343.03,410.43c0-23.62-11.26-31.85-32.4-31.85-19.22,0-28.83,7.97-28.83,21.14,0,37.35,87.04,14.55,87.04,70.84,0,28.83-19.77,45.31-57.11,45.31s-59.58-21.14-59.58-55.74h25.53c0,21.97,13.46,33.77,34.05,33.77,17.85,0,31.3-9.05,31.3-23.61,0-33.77-86.48-12.63-86.48-70.02,0-27.46,20.04-43.65,54.09-43.65,37.34,0,56.56,18.39,56.56,53.81h-24.16Z"/>
  <path class="cls-5" d="M1481.11,410.43c0-23.62-11.26-31.85-32.4-31.85-19.22,0-28.83,7.97-28.83,21.14,0,37.35,87.04,14.55,87.04,70.84,0,28.83-19.77,45.31-57.11,45.31s-59.58-21.14-59.58-55.74h25.53c0,21.97,13.46,33.77,34.05,33.77,17.85,0,31.3-9.05,31.3-23.61,0-33.77-86.48-12.63-86.48-70.02,0-27.46,20.04-43.65,54.09-43.65,37.34,0,56.56,18.39,56.56,53.81h-24.16Z"/>
  <path class="cls-5" d="M533.2,558.37v8.57c-16.23,0-26.45,9.17-26.45,25.85v51.26h-8.42v-84.48h8.12v15.78c3.31-9.01,12.33-16.98,25.56-16.98h1.2Z"/>
  <path class="cls-5" d="M604.61,603.77h-55.47v9.92c0,15.34,9.32,24.5,23.6,24.5s23.3-9.17,23.3-20.89v-.9h8.57v.61c0,15.48-11.88,28.56-31.87,28.56s-32.02-12.17-32.02-33.37v-20.29c0-21.19,11.72-33.67,32.02-33.67s31.87,12.17,31.87,32.92v12.63ZM549.15,597.15h46.9v-6.46c0-16.53-8.72-24.96-23.3-24.96s-23.6,9.17-23.6,24.8v6.61Z"/>
  <path class="cls-5" d="M673.31,588.29c0-15.34-7.82-22.55-23-22.55-13.53,0-20.89,6.77-20.89,15.78,0,25.71,52.76,9.02,52.76,39.99,0,13.98-10.37,24.05-30.96,24.05s-32.17-12.02-32.17-30.97h8.41c0,14.59,8.87,23.46,23.75,23.46,13.23,0,22.55-6.31,22.55-16.69,0-22.7-52.76-6.77-52.76-39.69,0-14.58,10.52-23.45,29.31-23.45,20.44,0,31.12,10.52,31.12,30.07h-8.12Z"/>
  <path class="cls-5" d="M761.41,603.77h-55.47v9.92c0,15.34,9.32,24.5,23.6,24.5s23.3-9.17,23.3-20.89v-.9h8.57v.61c0,15.48-11.88,28.56-31.87,28.56s-32.02-12.17-32.02-33.37v-20.29c0-21.19,11.72-33.67,32.02-33.67s31.87,12.17,31.87,32.92v12.63ZM705.94,597.15h46.9v-6.46c0-16.53-8.72-24.96-23.3-24.96s-23.6,9.17-23.6,24.8v6.61Z"/>
  <path class="cls-5" d="M777.35,612.03v-20.59c0-20.89,11.42-33.07,29.76-33.07,13.53,0,22.4,7.07,26.01,15.18v-13.98h8.12v84.48h-8.12v-13.83c-3.61,8.26-12.48,15.33-26.01,15.33-18.64,0-29.76-12.48-29.76-33.52ZM832.67,610.98v-19.54c0-16.24-8.87-25.71-23.3-25.71-15.18,0-23.45,9.92-23.45,26.61v18.64c0,17.28,8.27,27.2,23.45,27.2s23.3-10.07,23.3-27.2Z"/>
  <path class="cls-5" d="M897.31,558.37v8.57c-16.23,0-26.45,9.17-26.45,25.85v51.26h-8.42v-84.48h8.12v15.78c3.31-9.01,12.33-16.98,25.56-16.98h1.2Z"/>
  <path class="cls-5" d="M960.15,592.04c0-16.38-8.12-25.85-23.3-25.85s-23.6,9.17-23.6,26.6v19.99c0,15.49,8.27,25.26,23.6,25.26s23.3-9.48,23.3-25.71h8.57c0,20.74-11.57,33.22-31.87,33.22s-32.02-12.93-32.02-33.37v-19.84c0-20.74,11.72-33.82,32.02-33.82s31.87,12.32,31.87,33.51h-8.57Z"/>
  <path class="cls-5" d="M1043.13,644.05v-52.01c0-16.23-7.21-26.31-23.6-26.31s-23.45,9.32-23.45,26.31v52.01h-8.42v-112.59h8.42v42.24c3.76-9.92,13.68-15.33,26-15.33,17.59,0,29.61,11.27,29.61,32.32v53.36h-8.57Z"/>
  <path class="cls-5" d="M1158.59,592.04c0-16.38-8.12-25.85-23.3-25.85s-23.6,9.17-23.6,26.6v19.99c0,15.49,8.27,25.26,23.6,25.26s23.3-9.48,23.3-25.71h8.57c0,20.74-11.58,33.22-31.87,33.22s-32.02-12.93-32.02-33.37v-19.84c0-20.74,11.72-33.82,32.02-33.82s31.87,12.32,31.87,33.51h-8.57Z"/>
  <path class="cls-5" d="M1247.74,603.77h-55.47v9.92c0,15.34,9.32,24.5,23.6,24.5s23.3-9.17,23.3-20.89v-.9h8.57v.61c0,15.48-11.88,28.56-31.87,28.56s-32.02-12.17-32.02-33.37v-20.29c0-21.19,11.72-33.67,32.02-33.67s31.87,12.17,31.87,32.92v12.63ZM1192.27,597.15h46.9v-6.46c0-16.53-8.72-24.96-23.3-24.96s-23.6,9.17-23.6,24.8v6.61Z"/>
  <path class="cls-5" d="M1321.4,644.05v-51.71c0-16.38-7.52-26.61-23.6-26.61s-23.45,9.32-23.45,26.31v52.01h-8.42v-84.48h8.12v14.13c3.61-8.26,12.63-15.33,26.01-15.33,18.79,0,29.91,12.47,29.91,33.07v52.61h-8.57Z"/>
  <path class="cls-5" d="M1382.59,567.24h-23.75v44.34c0,16.98,1.5,25.7,16.08,25.7,2.26,0,4.96-.14,7.97-.3.15,2.55.15,5.26.15,7.82-2.71.3-5.26.45-7.52.45-21.95,0-25.25-12.33-25.25-32.76v-45.24h-9.62v-6.02c11.12,0,12.32-3.46,12.32-18.03h5.86v16.53h23.75v7.52Z"/>
  <path class="cls-5" d="M1453.99,603.77h-55.47v9.92c0,15.34,9.32,24.5,23.6,24.5s23.3-9.17,23.3-20.89v-.9h8.57v.61c0,15.48-11.88,28.56-31.87,28.56s-32.02-12.17-32.02-33.37v-20.29c0-21.19,11.72-33.67,32.02-33.67s31.87,12.17,31.87,32.92v12.63ZM1398.53,597.15h46.9v-6.46c0-16.53-8.72-24.96-23.3-24.96s-23.6,9.17-23.6,24.8v6.61Z"/>
  <path class="cls-5" d="M1507.06,558.37v8.57c-16.23,0-26.45,9.17-26.45,25.85v51.26h-8.42v-84.48h8.12v15.78c3.31-9.01,12.33-16.98,25.56-16.98h1.2Z"/>
</svg>