<svg width="635" height="274" viewBox="0 0 635 274" fill="none" xmlns="http://www.w3.org/2000/svg">
<g clip-path="url(#clip0_1957_70)">
<path d="M399.239 158.548C399.239 176.591 395.236 193.715 388.06 209.045C385.584 214.323 382.752 219.378 379.55 224.197C364.754 250.616 344.398 275.049 312.316 273.373C310.507 273.285 308.654 273.107 306.756 272.84C288.491 270.26 272.138 259.304 262.916 243.322L178.143 96.4881L174.911 90.8988C158.188 61.9294 168.121 24.8947 197.075 8.17136C206.608 2.67102 217.016 0.046875 227.29 0.046875C243.821 0.046875 259.981 6.97048 271.337 18.9793C276.111 24.02 279.743 29.98 283.153 35.9992C283.583 36.7553 284.25 37.9117 285.11 39.4239C292.849 52.7967 300.514 66.214 308.238 79.6016C311.826 85.858 315.592 92.3665 319.239 98.7416C322.871 105.087 326.192 111.788 330.507 117.689C333.413 121.662 337.03 125.102 341.537 127.162C349.617 130.869 359.165 130.439 366.859 125.991C379.091 118.919 383.879 103.901 378.423 91.2249C391.559 110.38 399.239 133.567 399.239 158.548Z" fill="#0A2482"/>
<path d="M463.991 60.0891C464.095 70.8822 460.893 81.1713 456.223 91.06C449.803 104.655 440.863 116.872 433.584 129.948C424.955 145.455 415.645 160.563 406.838 175.952C400.537 186.967 394.266 197.998 388.054 209.043C395.23 193.713 399.233 176.589 399.233 158.547C399.233 133.565 391.034 115.004 378.417 91.2231C377.988 90.2298 377.498 89.2661 376.95 88.3024L361.635 61.7644C349.048 39.9855 359.07 11.6387 382.895 3.60319C383.636 3.35115 390.219 0.63805 403.488 0.0450219C413.762 -0.414575 424.17 2.66917 433.703 8.16951C452.131 18.7995 463.784 38.8291 463.991 60.0891Z" fill="#FF5C9D"/>
<path d="M113.011 30.292C96.2866 1.32512 59.2497 -8.60131 30.2864 8.12065C1.32313 24.8426 -8.59876 61.8807 8.12525 90.8475L96.1232 243.264C112.847 272.231 149.884 282.158 178.847 265.436C207.811 248.714 217.733 211.676 201.009 182.709L113.011 30.292Z" fill="#0A2482"/>
</g>
<rect x="431" y="177" width="204" height="97" rx="48.5" fill="#0A2482"/>
<path d="M475.073 251L456 204H469.53L480.053 232.012L491.234 204H501.287L512.562 232.012L522.991 204H536.52L517.447 251H508.052L496.307 223.082L484.469 251H475.073Z" fill="white"/>
<path d="M553.803 204V251H541.401V204H553.803Z" fill="white"/>
<path d="M579.464 251L558.324 204H572.23L584.162 233.14L596.188 204H610L588.86 251H579.464Z" fill="white"/>
<defs>
<clipPath id="clip0_1957_70">
<rect width="464" height="273.564" fill="white"/>
</clipPath>
</defs>
</svg>
