<?xml version="1.0" encoding="UTF-8"?><svg height="48px" xmlns="http://www.w3.org/2000/svg" version="1.2" baseProfile="tiny" viewBox="0 0 130 48" width="130px"><g fill="#fff"><rect x="19" y="16" width="1" height="1" fill="#fff"/><rect x="20" y="16" width="1" height="1" fill="#fff"/><rect fill="#fff" x="21" y="16" width="1" height="24"/><rect height="23" fill="#fff" x="22" y="16" width="1"/><rect fill="#fff" x="23" y="16" width="1" height="1"/><rect fill="#fff" x="100" y="16" width="1" height="1"/><rect height="4" fill="#fff" x="101" y="16" width="3"/><rect fill="#fff" x="104" y="16" width="1" height="4"/><rect width="1" height="1" fill="#fff" x="105" y="16"/><rect x="19" y="17" width="3" height="23" fill="#fff"/><rect height="20" fill="#fff" x="23" y="17" width="1"/><rect x="100" y="17" width="1" height="1" fill="#fff"/><rect fill="#fff" x="105" y="17" width="1" height="2"/><rect x="100" y="18" width="1" height="1" fill="#fff"/><rect fill="#fff" x="100" y="19" width="1" height="1"/><rect width="1" height="1" fill="#fff" x="105" y="19"/><rect y="20" width="1" height="1" fill="#fff" x="100"/><rect fill="#fff" x="101" y="20" width="3" height="1"/><rect x="104" y="20" width="1" height="1" fill="#fff"/><rect fill="#fff" x="105" y="20" width="1" height="1"/><rect x="100" y="21" width="1" height="1" fill="#fff"/><rect height="1" fill="#fff" x="101" y="21" width="1"/><rect x="102" y="21" width="1" height="1" fill="#fff"/><rect height="1" fill="#fff" x="103" y="21" width="1"/><rect x="104" y="21" width="1" height="1" fill="#fff"/><rect fill="#fff" x="105" y="21" width="1" height="1"/><rect x="7" y="22" width="1" height="1" fill="#fff"/><rect fill="#fff" x="8" y="22" width="1" height="1"/><rect height="1" fill="#fff" x="9" y="22" width="9"/><rect x="18" y="22" width="1" height="1" fill="#fff"/><rect x="29" y="22" width="1" height="1" fill="#fff"/><rect x="30" y="22" width="1" height="1" fill="#fff"/><rect height="1" fill="#fff" x="31" y="22" width="12"/><rect x="43" y="22" width="1" height="1" fill="#fff"/><rect x="44" y="22" width="1" height="1" fill="#fff"/><rect y="22" width="1" height="1" fill="#fff" x="45"/><rect x="54" y="22" width="1" height="1" fill="#fff"/><rect height="1" fill="#fff" x="55" y="22" width="1"/><rect fill="#fff" x="56" y="22" width="12" height="1"/><rect x="68" y="22" width="1" height="1" fill="#fff"/><rect x="69" y="22" width="1" height="1" fill="#fff"/><rect width="1" height="1" fill="#fff" x="70" y="22"/><rect y="22" width="1" height="1" fill="#fff" x="77"/><rect height="1" fill="#fff" x="78" y="22" width="1"/><rect height="1" fill="#fff" x="79" y="22" width="10"/><rect y="22" width="1" height="1" fill="#fff" x="89"/><rect width="1" height="1" fill="#fff" x="90" y="22"/><rect x="91" y="22" width="1" height="1" fill="#fff"/><rect x="92" y="22" width="1" height="1" fill="#fff"/><rect x="100" y="22" width="1" height="1" fill="#fff"/><rect x="101" y="22" width="1" height="1" fill="#fff"/><rect y="22" width="1" height="1" fill="#fff" x="102"/><rect y="22" width="1" height="1" fill="#fff" x="103"/><rect x="104" y="22" width="1" height="1" fill="#fff"/><rect y="22" width="1" height="1" fill="#fff" x="105"/><rect width="1" height="1" fill="#fff" x="107" y="22"/><rect x="108" y="22" width="11" height="1" fill="#fff"/><rect height="1" fill="#fff" x="119" y="22" width="1"/><rect x="120" y="22" width="1" height="1" fill="#fff"/><rect fill="#fff" x="121" y="22" width="1" height="1"/><rect x="122" y="22" width="1" height="1" fill="#fff"/><rect y="23" width="1" height="1" fill="#fff" x="4"/><rect height="1" fill="#fff" x="5" y="23" width="1"/><rect height="1" fill="#fff" x="6" y="23" width="1"/><rect y="23" width="15" height="2" fill="#fff" x="7"/><rect x="27" y="23" width="1" height="1" fill="#fff"/><rect x="28" y="23" width="1" height="1" fill="#fff"/><rect x="29" y="23" width="15" height="2" fill="#fff"/><rect x="44" y="23" width="1" height="2" fill="#fff"/><rect height="1" fill="#fff" x="45" y="23" width="1"/><rect width="1" height="1" fill="#fff" x="46" y="23"/><rect height="1" fill="#fff" x="47" y="23" width="1"/><rect fill="#fff" x="52" y="23" width="1" height="1"/><rect fill="#fff" x="53" y="23" width="1" height="1"/><rect x="54" y="23" width="15" height="2" fill="#fff"/><rect width="1" height="3" fill="#fff" x="69" y="23"/><rect y="23" width="1" height="1" fill="#fff" x="70"/><rect x="71" y="23" width="1" height="1" fill="#fff"/><rect x="72" y="23" width="1" height="1" fill="#fff"/><rect height="1" fill="#fff" x="76" y="23" width="1"/><rect x="77" y="23" width="1" height="1" fill="#fff"/><rect x="78" y="23" width="13" height="2" fill="#fff"/><rect x="91" y="23" width="1" height="3" fill="#fff"/><rect fill="#fff" x="92" y="23" width="1" height="1"/><rect fill="#fff" x="93" y="23" width="1" height="1"/><rect height="1" fill="#fff" x="94" y="23" width="1"/><rect y="23" width="1" height="1" fill="#fff" x="100"/><rect x="101" y="23" width="3" height="17" fill="#fff"/><rect y="23" width="1" height="17" fill="#fff" x="104"/><rect fill="#fff" x="105" y="23" width="1" height="1"/><rect width="1" height="16" fill="#fff" x="107" y="23"/><rect fill="#fff" x="108" y="23" width="14" height="2"/><rect x="122" y="23" width="1" height="3" fill="#fff"/><rect height="1" fill="#fff" x="123" y="23" width="1"/><rect x="124" y="23" width="1" height="1" fill="#fff"/><rect x="125" y="23" width="1" height="1" fill="#fff"/><rect fill="#fff" x="3" y="24" width="1" height="1"/><rect width="1" height="1" fill="#fff" x="4" y="24"/><rect fill="#fff" x="5" y="24" width="17" height="1"/><rect height="1" fill="#fff" x="26" y="24" width="1"/><rect fill="#fff" x="27" y="24" width="1" height="1"/><rect fill="#fff" x="28" y="24" width="18" height="1"/><rect height="8" fill="#fff" x="46" y="24" width="1"/><rect x="47" y="24" width="1" height="1" fill="#fff"/><rect x="48" y="24" width="1" height="1" fill="#fff"/><rect x="51" y="24" width="1" height="1" fill="#fff"/><rect x="52" y="24" width="1" height="1" fill="#fff"/><rect x="53" y="24" width="18" height="1" fill="#fff"/><rect x="71" y="24" width="1" height="8" fill="#fff"/><rect x="72" y="24" width="1" height="1" fill="#fff"/><rect y="24" width="1" height="1" fill="#fff" x="73"/><rect x="75" y="24" width="1" height="1" fill="#fff"/><rect x="76" y="24" width="1" height="1" fill="#fff"/><rect height="1" fill="#fff" x="77" y="24" width="17"/><rect y="24" width="1" height="15" fill="#fff" x="94"/><rect x="95" y="24" width="1" height="1" fill="#fff"/><rect x="96" y="24" width="1" height="1" fill="#fff"/><rect fill="#fff" x="100" y="24" width="1" height="15"/><rect x="105" y="24" width="1" height="7" fill="#fff"/><rect width="1" height="4" fill="#fff" x="123" y="24"/><rect width="1" height="16" fill="#fff" x="124" y="24"/><rect height="1" fill="#fff" x="125" y="24" width="1"/><rect width="1" height="1" fill="#fff" x="126" y="24"/><rect x="2" y="25" width="1" height="1" fill="#fff"/><rect height="1" fill="#fff" x="3" y="25" width="1"/><rect x="4" y="25" width="18" height="1" fill="#fff"/><rect x="26" y="25" width="1" height="1" fill="#fff"/><rect width="20" height="1" fill="#fff" x="27" y="25"/><rect x="47" y="25" width="1" height="7" fill="#fff"/><rect height="1" fill="#fff" x="48" y="25" width="1"/><rect y="25" width="1" height="1" fill="#fff" x="49"/><rect y="25" width="1" height="1" fill="#fff" x="51"/><rect x="52" y="25" width="20" height="1" fill="#fff"/><rect height="7" fill="#fff" x="72" y="25" width="1"/><rect x="73" y="25" width="1" height="1" fill="#fff"/><rect x="75" y="25" width="1" height="1" fill="#fff"/><rect x="76" y="25" width="19" height="1" fill="#fff"/><rect x="95" y="25" width="1" height="13" fill="#fff"/><rect x="96" y="25" width="1" height="1" fill="#fff"/><rect width="17" height="1" fill="#fff" x="108" y="25"/><rect height="15" fill="#fff" x="125" y="25" width="1"/><rect width="1" height="1" fill="#fff" x="126" y="25"/><rect y="25" width="1" height="1" fill="#fff" x="127"/><rect x="2" y="26" width="1" height="1" fill="#fff"/><rect width="6" height="1" fill="#fff" x="3" y="26"/><rect width="1" height="1" fill="#fff" x="9" y="26"/><rect y="26" width="1" height="1" fill="#fff" x="10"/><rect height="1" fill="#fff" x="11" y="26" width="1"/><rect x="12" y="26" width="6" height="1" fill="#fff"/><rect height="1" fill="#fff" x="18" y="26" width="1"/><rect x="25" y="26" width="1" height="1" fill="#fff"/><rect x="26" y="26" width="4" height="10" fill="#fff"/><rect x="30" y="26" width="1" height="1" fill="#fff"/><rect x="31" y="26" width="1" height="1" fill="#fff"/><rect height="1" fill="#fff" x="32" y="26" width="1"/><rect x="33" y="26" width="8" height="1" fill="#fff"/><rect x="41" y="26" width="1" height="1" fill="#fff"/><rect y="26" width="1" height="1" fill="#fff" x="42"/><rect fill="#fff" x="43" y="26" width="1" height="1"/><rect height="1" fill="#fff" x="44" y="26" width="1"/><rect x="45" y="26" width="3" height="6" fill="#fff"/><rect width="1" height="5" fill="#fff" x="48" y="26"/><rect x="49" y="26" width="1" height="1" fill="#fff"/><rect fill="#fff" x="51" y="26" width="1" height="1"/><rect y="26" width="2" height="12" fill="#fff" x="52"/><rect x="54" y="26" width="1" height="13" fill="#fff"/><rect x="55" y="26" width="1" height="1" fill="#fff"/><rect fill="#fff" x="56" y="26" width="1" height="1"/><rect x="57" y="26" width="9" height="1" fill="#fff"/><rect y="26" width="1" height="1" fill="#fff" x="66"/><rect x="67" y="26" width="1" height="1" fill="#fff"/><rect x="68" y="26" width="1" height="1" fill="#fff"/><rect x="69" y="26" width="3" height="1" fill="#fff"/><rect fill="#fff" x="73" y="26" width="1" height="1"/><rect fill="#fff" x="75" y="26" width="1" height="20"/><rect height="20" fill="#fff" x="76" y="26" width="4"/><rect width="1" height="1" fill="#fff" x="80" y="26"/><rect x="81" y="26" width="1" height="1" fill="#fff"/><rect y="26" width="5" height="1" fill="#fff" x="82"/><rect x="87" y="26" width="1" height="1" fill="#fff"/><rect height="1" fill="#fff" x="88" y="26" width="1"/><rect x="89" y="26" width="1" height="1" fill="#fff"/><rect x="90" y="26" width="6" height="1" fill="#fff"/><rect x="96" y="26" width="1" height="10" fill="#fff"/><rect x="97" y="26" width="1" height="1" fill="#fff"/><rect fill="#fff" x="108" y="26" width="3" height="14"/><rect x="111" y="26" width="1" height="14" fill="#fff"/><rect x="112" y="26" width="1" height="1" fill="#fff"/><rect height="1" fill="#fff" x="113" y="26" width="5"/><rect height="1" fill="#fff" x="118" y="26" width="1"/><rect width="1" height="1" fill="#fff" x="119" y="26"/><rect width="1" height="1" fill="#fff" x="120" y="26"/><rect x="121" y="26" width="5" height="1" fill="#fff"/><rect x="126" y="26" width="1" height="14" fill="#fff"/><rect width="1" height="1" fill="#fff" x="127" y="26"/><rect x="1" y="27" width="1" height="1" fill="#fff"/><rect x="2" y="27" width="4" height="9" fill="#fff"/><rect x="6" y="27" width="1" height="1" fill="#fff"/><rect x="7" y="27" width="1" height="1" fill="#fff"/><rect x="8" y="27" width="1" height="1" fill="#fff"/><rect x="9" y="27" width="1" height="1" fill="#fff"/><rect fill="#fff" x="25" y="27" width="1" height="1"/><rect x="30" y="27" width="1" height="1" fill="#fff"/><rect height="1" fill="#fff" x="31" y="27" width="1"/><rect x="44" y="27" width="1" height="1" fill="#fff"/><rect height="3" fill="#fff" x="49" y="27" width="1"/><rect x="50" y="27" width="1" height="1" fill="#fff"/><rect x="51" y="27" width="3" height="8" fill="#fff"/><rect y="27" width="1" height="1" fill="#fff" x="55"/><rect x="69" y="27" width="1" height="1" fill="#fff"/><rect width="2" height="5" fill="#fff" x="70" y="27"/><rect x="73" y="27" width="1" height="3" fill="#fff"/><rect height="1" fill="#fff" x="80" y="27" width="1"/><rect y="27" width="1" height="1" fill="#fff" x="90"/><rect fill="#fff" x="91" y="27" width="1" height="1"/><rect y="27" width="1" height="1" fill="#fff" x="92"/><rect x="93" y="27" width="3" height="1" fill="#fff"/><rect height="1" fill="#fff" x="97" y="27" width="1"/><rect width="1" height="12" fill="#fff" x="112" y="27"/><rect x="120" y="27" width="1" height="1" fill="#fff"/><rect width="1" height="1" fill="#fff" x="121" y="27"/><rect y="27" width="1" height="1" fill="#fff" x="122"/><rect width="1" height="1" fill="#fff" x="127" y="27"/><rect x="1" y="28" width="1" height="1" fill="#fff"/><rect height="1" fill="#fff" x="6" y="28" width="1"/><rect y="28" width="1" height="1" fill="#fff" x="7"/><rect x="25" y="28" width="1" height="6" fill="#fff"/><rect x="30" y="28" width="1" height="1" fill="#fff"/><rect width="1" height="1" fill="#fff" x="44" y="28"/><rect x="50" y="28" width="1" height="7" fill="#fff"/><rect x="55" y="28" width="1" height="1" fill="#fff"/><rect width="1" height="1" fill="#fff" x="69" y="28"/><rect y="28" width="1" height="8" fill="#fff" x="80"/><rect height="1" fill="#fff" x="92" y="28" width="1"/><rect x="93" y="28" width="4" height="1" fill="#fff"/><rect width="1" height="7" fill="#fff" x="97" y="28"/><rect width="1" height="1" fill="#fff" x="98" y="28"/><rect x="122" y="28" width="1" height="1" fill="#fff"/><rect height="1" fill="#fff" x="123" y="28" width="3"/><rect height="1" fill="#fff" x="127" y="28" width="1"/><rect x="1" y="29" width="1" height="1" fill="#fff"/><rect y="29" width="1" height="1" fill="#fff" x="6"/><rect x="30" y="29" width="1" height="1" fill="#fff"/><rect x="31" y="29" width="11" height="1" fill="#fff"/><rect fill="#fff" x="42" y="29" width="1" height="1"/><rect x="43" y="29" width="1" height="1" fill="#fff"/><rect x="44" y="29" width="1" height="1" fill="#fff"/><rect fill="#fff" x="55" y="29" width="1" height="1"/><rect x="56" y="29" width="11" height="1" fill="#fff"/><rect height="1" fill="#fff" x="67" y="29" width="1"/><rect y="29" width="1" height="1" fill="#fff" x="68"/><rect width="1" height="1" fill="#fff" x="69" y="29"/><rect x="93" y="29" width="1" height="1" fill="#fff"/><rect x="98" y="29" width="1" height="1" fill="#fff"/><rect x="122" y="29" width="1" height="1" fill="#fff"/><rect x="123" y="29" width="1" height="1" fill="#fff"/><rect fill="#fff" x="127" y="29" width="1" height="1"/><rect x="1" y="30" width="1" height="1" fill="#fff"/><rect x="6" y="30" width="1" height="1" fill="#fff"/><rect width="18" height="2" fill="#fff" x="30" y="30"/><rect x="49" y="30" width="1" height="1" fill="#fff"/><rect x="55" y="30" width="17" height="2" fill="#fff"/><rect x="73" y="30" width="1" height="1" fill="#fff"/><rect width="1" height="1" fill="#fff" x="93" y="30"/><rect x="98" y="30" width="1" height="1" fill="#fff"/><rect x="123" y="30" width="1" height="9" fill="#fff"/><rect fill="#fff" x="127" y="30" width="1" height="9"/><rect fill="#fff" x="1" y="31" width="4" height="1"/><rect width="1" height="1" fill="#fff" x="48" y="31"/><rect fill="#fff" x="49" y="31" width="1" height="1"/><rect x="73" y="31" width="1" height="1" fill="#fff"/><rect fill="#fff" x="93" y="31" width="1" height="1"/><rect x="98" y="31" width="1" height="1" fill="#fff"/><rect x="105" y="31" width="1" height="1" fill="#fff"/><rect x="1" y="32" width="1" height="1" fill="#fff"/><rect x="30" y="32" width="17" height="1" fill="#fff"/><rect y="32" width="1" height="1" fill="#fff" x="47"/><rect fill="#fff" x="48" y="32" width="1" height="1"/><rect x="49" y="32" width="1" height="1" fill="#fff"/><rect x="55" y="32" width="17" height="1" fill="#fff"/><rect width="1" height="1" fill="#fff" x="72" y="32"/><rect x="73" y="32" width="1" height="1" fill="#fff"/><rect width="1" height="1" fill="#fff" x="93" y="32"/><rect x="98" y="32" width="1" height="1" fill="#fff"/><rect fill="#fff" x="105" y="32" width="1" height="1"/><rect x="1" y="33" width="1" height="1" fill="#fff"/><rect y="33" width="1" height="1" fill="#fff" x="6"/><rect y="33" width="14" height="1" fill="#fff" x="30"/><rect width="1" height="1" fill="#fff" x="44" y="33"/><rect y="33" width="1" height="1" fill="#fff" x="45"/><rect x="46" y="33" width="1" height="1" fill="#fff"/><rect x="47" y="33" width="1" height="1" fill="#fff"/><rect x="48" y="33" width="1" height="1" fill="#fff"/><rect x="55" y="33" width="14" height="1" fill="#fff"/><rect x="69" y="33" width="1" height="1" fill="#fff"/><rect x="70" y="33" width="1" height="1" fill="#fff"/><rect x="71" y="33" width="1" height="1" fill="#fff"/><rect x="72" y="33" width="1" height="1" fill="#fff"/><rect x="93" y="33" width="1" height="1" fill="#fff"/><rect x="98" y="33" width="1" height="1" fill="#fff"/><rect x="105" y="33" width="1" height="1" fill="#fff"/><rect x="1" y="34" width="1" height="1" fill="#fff"/><rect width="1" height="1" fill="#fff" x="6" y="34"/><rect x="25" y="34" width="1" height="1" fill="#fff"/><rect width="1" height="1" fill="#fff" x="30" y="34"/><rect x="31" y="34" width="13" height="1" fill="#fff"/><rect x="44" y="34" width="1" height="1" fill="#fff"/><rect width="1" height="1" fill="#fff" x="45" y="34"/><rect width="1" height="1" fill="#fff" x="55" y="34"/><rect width="13" height="1" fill="#fff" x="56" y="34"/><rect width="1" height="1" fill="#fff" x="69" y="34"/><rect x="70" y="34" width="1" height="1" fill="#fff"/><rect height="1" fill="#fff" x="92" y="34" width="1"/><rect height="1" fill="#fff" x="93" y="34" width="1"/><rect x="98" y="34" width="1" height="1" fill="#fff"/><rect x="105" y="34" width="1" height="5" fill="#fff"/><rect height="1" fill="#fff" x="1" y="35" width="1"/><rect x="6" y="35" width="1" height="1" fill="#fff"/><rect x="7" y="35" width="1" height="1" fill="#fff"/><rect width="1" height="1" fill="#fff" x="25" y="35"/><rect width="1" height="1" fill="#fff" x="30" y="35"/><rect fill="#fff" x="50" y="35" width="1" height="1"/><rect x="51" y="35" width="3" height="1" fill="#fff"/><rect x="55" y="35" width="1" height="1" fill="#fff"/><rect height="1" fill="#fff" x="92" y="35" width="1"/><rect fill="#fff" x="93" y="35" width="4" height="1"/><rect height="1" fill="#fff" x="97" y="35" width="1"/><rect x="98" y="35" width="1" height="1" fill="#fff"/><rect y="36" width="1" height="1" fill="#fff" x="1"/><rect x="2" y="36" width="4" height="1" fill="#fff"/><rect x="6" y="36" width="1" height="3" fill="#fff"/><rect width="1" height="1" fill="#fff" x="7" y="36"/><rect fill="#fff" x="8" y="36" width="1" height="1"/><rect height="1" fill="#fff" x="9" y="36" width="1"/><rect height="1" fill="#fff" x="18" y="36" width="1"/><rect x="25" y="36" width="1" height="1" fill="#fff"/><rect y="36" width="3" height="1" fill="#fff" x="26"/><rect x="29" y="36" width="1" height="3" fill="#fff"/><rect x="30" y="36" width="1" height="1" fill="#fff"/><rect x="31" y="36" width="1" height="1" fill="#fff"/><rect x="50" y="36" width="1" height="1" fill="#fff"/><rect fill="#fff" x="51" y="36" width="1" height="1"/><rect x="55" y="36" width="1" height="1" fill="#fff"/><rect x="56" y="36" width="1" height="1" fill="#fff"/><rect x="80" y="36" width="1" height="1" fill="#fff"/><rect y="36" width="1" height="1" fill="#fff" x="89"/><rect x="90" y="36" width="1" height="1" fill="#fff"/><rect fill="#fff" x="91" y="36" width="1" height="1"/><rect x="92" y="36" width="4" height="2" fill="#fff"/><rect x="96" y="36" width="1" height="1" fill="#fff"/><rect x="97" y="36" width="1" height="1" fill="#fff"/><rect x="2" y="37" width="1" height="1" fill="#fff"/><rect width="6" height="1" fill="#fff" x="3" y="37"/><rect x="9" y="37" width="1" height="3" fill="#fff"/><rect fill="#fff" x="10" y="37" width="1" height="1"/><rect x="11" y="37" width="5" height="1" fill="#fff"/><rect height="1" fill="#fff" x="16" y="37" width="1"/><rect x="17" y="37" width="1" height="1" fill="#fff"/><rect x="18" y="37" width="4" height="3" fill="#fff"/><rect x="23" y="37" width="1" height="1" fill="#fff"/><rect x="25" y="37" width="1" height="1" fill="#fff"/><rect x="26" y="37" width="1" height="1" fill="#fff"/><rect x="27" y="37" width="4" height="1" fill="#fff"/><rect x="31" y="37" width="1" height="3" fill="#fff"/><rect fill="#fff" x="32" y="37" width="1" height="1"/><rect x="33" y="37" width="14" height="1" fill="#fff"/><rect y="37" width="1" height="1" fill="#fff" x="47"/><rect width="1" height="1" fill="#fff" x="48" y="37"/><rect width="1" height="1" fill="#fff" x="51" y="37"/><rect y="37" width="1" height="3" fill="#fff" x="55"/><rect height="3" fill="#fff" x="56" y="37" width="1"/><rect x="57" y="37" width="1" height="1" fill="#fff"/><rect height="1" fill="#fff" x="58" y="37" width="13"/><rect x="71" y="37" width="1" height="1" fill="#fff"/><rect height="1" fill="#fff" x="72" y="37" width="1"/><rect x="73" y="37" width="1" height="1" fill="#fff"/><rect height="1" fill="#fff" x="80" y="37" width="1"/><rect x="81" y="37" width="6" height="1" fill="#fff"/><rect x="87" y="37" width="1" height="1" fill="#fff"/><rect height="1" fill="#fff" x="88" y="37" width="1"/><rect y="37" width="6" height="2" fill="#fff" x="89"/><rect height="1" fill="#fff" x="96" y="37" width="1"/><rect fill="#fff" x="97" y="37" width="1" height="1"/><rect x="2" y="38" width="1" height="1" fill="#fff"/><rect fill="#fff" x="3" y="38" width="1" height="1"/><rect width="18" height="1" fill="#fff" x="4" y="38"/><rect x="23" y="38" width="1" height="1" fill="#fff"/><rect x="26" y="38" width="1" height="1" fill="#fff"/><rect height="1" fill="#fff" x="27" y="38" width="20"/><rect y="38" width="1" height="2" fill="#fff" x="47"/><rect width="1" height="1" fill="#fff" x="48" y="38"/><rect x="51" y="38" width="1" height="1" fill="#fff"/><rect x="52" y="38" width="20" height="1" fill="#fff"/><rect width="1" height="2" fill="#fff" x="72" y="38"/><rect y="38" width="1" height="1" fill="#fff" x="73"/><rect width="15" height="1" fill="#fff" x="80" y="38"/><rect x="95" y="38" width="1" height="1" fill="#fff"/><rect x="96" y="38" width="1" height="1" fill="#fff"/><rect width="1" height="1" fill="#fff" x="3" y="39"/><rect x="4" y="39" width="1" height="1" fill="#fff"/><rect width="17" height="1" fill="#fff" x="5" y="39"/><rect x="22" y="39" width="1" height="1" fill="#fff"/><rect x="23" y="39" width="1" height="1" fill="#fff"/><rect x="26" y="39" width="1" height="1" fill="#fff"/><rect x="27" y="39" width="1" height="1" fill="#fff"/><rect height="1" fill="#fff" x="28" y="39" width="19"/><rect width="1" height="1" fill="#fff" x="48" y="39"/><rect x="51" y="39" width="1" height="1" fill="#fff"/><rect x="52" y="39" width="1" height="1" fill="#fff"/><rect x="53" y="39" width="19" height="1" fill="#fff"/><rect y="39" width="1" height="1" fill="#fff" x="73"/><rect width="14" height="1" fill="#fff" x="80" y="39"/><rect x="94" y="39" width="1" height="1" fill="#fff"/><rect x="95" y="39" width="1" height="1" fill="#fff"/><rect x="96" y="39" width="1" height="1" fill="#fff"/><rect width="1" height="1" fill="#fff" x="100" y="39"/><rect x="105" y="39" width="1" height="1" fill="#fff"/><rect x="107" y="39" width="1" height="1" fill="#fff"/><rect height="1" fill="#fff" x="112" y="39" width="1"/><rect y="39" width="1" height="1" fill="#fff" x="123"/><rect fill="#fff" x="127" y="39" width="1" height="1"/><rect x="4" y="40" width="1" height="1" fill="#fff"/><rect x="5" y="40" width="1" height="1" fill="#fff"/><rect x="6" y="40" width="1" height="1" fill="#fff"/><rect x="7" y="40" width="14" height="1" fill="#fff"/><rect width="1" height="1" fill="#fff" x="21" y="40"/><rect y="40" width="1" height="1" fill="#fff" x="22"/><rect x="23" y="40" width="1" height="1" fill="#fff"/><rect width="1" height="1" fill="#fff" x="27" y="40"/><rect y="40" width="1" height="1" fill="#fff" x="28"/><rect y="40" width="1" height="1" fill="#fff" x="29"/><rect x="30" y="40" width="17" height="1" fill="#fff"/><rect x="47" y="40" width="1" height="1" fill="#fff"/><rect width="1" height="1" fill="#fff" x="48" y="40"/><rect x="52" y="40" width="1" height="1" fill="#fff"/><rect fill="#fff" x="53" y="40" width="1" height="1"/><rect x="54" y="40" width="1" height="1" fill="#fff"/><rect x="55" y="40" width="17" height="1" fill="#fff"/><rect x="72" y="40" width="1" height="1" fill="#fff"/><rect width="1" height="1" fill="#fff" x="73" y="40"/><rect x="80" y="40" width="12" height="1" fill="#fff"/><rect x="92" y="40" width="1" height="1" fill="#fff"/><rect y="40" width="1" height="1" fill="#fff" x="93"/><rect x="94" y="40" width="1" height="1" fill="#fff"/><rect height="1" fill="#fff" x="100" y="40" width="1"/><rect x="101" y="40" width="3" height="1" fill="#fff"/><rect height="1" fill="#fff" x="104" y="40" width="1"/><rect x="105" y="40" width="1" height="1" fill="#fff"/><rect x="107" y="40" width="1" height="1" fill="#fff"/><rect height="1" fill="#fff" x="108" y="40" width="3"/><rect x="111" y="40" width="1" height="1" fill="#fff"/><rect x="112" y="40" width="1" height="1" fill="#fff"/><rect x="123" y="40" width="1" height="1" fill="#fff"/><rect x="124" y="40" width="2" height="1" fill="#fff"/><rect x="126" y="40" width="1" height="1" fill="#fff"/><rect width="1" height="1" fill="#fff" x="127" y="40"/><rect x="7" y="41" width="1" height="1" fill="#fff"/><rect x="8" y="41" width="1" height="1" fill="#fff"/><rect height="1" fill="#fff" x="9" y="41" width="1"/><rect x="10" y="41" width="3" height="1" fill="#fff"/><rect y="41" width="1" height="1" fill="#fff" x="13"/><rect y="41" width="1" height="1" fill="#fff" x="14"/><rect y="41" width="1" height="1" fill="#fff" x="15"/><rect x="16" y="41" width="1" height="1" fill="#fff"/><rect x="17" y="41" width="3" height="1" fill="#fff"/><rect y="41" width="1" height="1" fill="#fff" x="20"/><rect x="21" y="41" width="1" height="1" fill="#fff"/><rect x="22" y="41" width="1" height="1" fill="#fff"/><rect x="29" y="41" width="1" height="1" fill="#fff"/><rect y="41" width="1" height="1" fill="#fff" x="30"/><rect x="31" y="41" width="1" height="1" fill="#fff"/><rect fill="#fff" x="32" y="41" width="1" height="1"/><rect y="41" width="1" height="1" fill="#fff" x="33"/><rect x="34" y="41" width="1" height="1" fill="#fff"/><rect x="35" y="41" width="1" height="1" fill="#fff"/><rect y="41" width="10" height="1" fill="#fff" x="36"/><rect height="1" fill="#fff" x="46" y="41" width="1"/><rect width="1" height="1" fill="#fff" x="47" y="41"/><rect x="48" y="41" width="1" height="1" fill="#fff"/><rect x="54" y="41" width="1" height="1" fill="#fff"/><rect width="1" height="1" fill="#fff" x="55" y="41"/><rect fill="#fff" x="56" y="41" width="1" height="1"/><rect height="1" fill="#fff" x="57" y="41" width="1"/><rect x="58" y="41" width="1" height="1" fill="#fff"/><rect x="59" y="41" width="1" height="1" fill="#fff"/><rect x="60" y="41" width="11" height="1" fill="#fff"/><rect x="71" y="41" width="1" height="1" fill="#fff"/><rect y="41" width="1" height="1" fill="#fff" x="72"/><rect y="41" width="1" height="1" fill="#fff" x="80"/><rect height="1" fill="#fff" x="81" y="41" width="8"/><rect x="89" y="41" width="1" height="1" fill="#fff"/><rect x="90" y="41" width="1" height="1" fill="#fff"/><rect width="1" height="1" fill="#fff" x="91" y="41"/><rect height="1" fill="#fff" x="92" y="41" width="1"/><rect height="1" fill="#fff" x="100" y="41" width="1"/><rect x="101" y="41" width="3" height="1" fill="#fff"/><rect y="41" width="1" height="1" fill="#fff" x="104"/><rect width="1" height="1" fill="#fff" x="105" y="41"/><rect height="1" fill="#fff" x="107" y="41" width="1"/><rect width="1" height="1" fill="#fff" x="108" y="41"/><rect x="109" y="41" width="1" height="1" fill="#fff"/><rect width="1" height="1" fill="#fff" x="110" y="41"/><rect fill="#fff" x="111" y="41" width="1" height="1"/><rect fill="#fff" x="123" y="41" width="1" height="1"/><rect width="2" height="1" fill="#fff" x="124" y="41"/><rect x="126" y="41" width="1" height="1" fill="#fff"/><rect x="127" y="41" width="1" height="1" fill="#fff"/><rect y="42" width="1" height="4" fill="#fff" x="80"/><rect height="1" fill="#fff" x="75" y="46" width="1"/><rect x="76" y="46" width="3" height="1" fill="#fff"/><rect x="79" y="46" width="1" height="1" fill="#fff"/><rect x="80" y="46" width="1" height="1" fill="#fff"/><rect x="75" y="47" width="1" height="1" fill="#fff"/><rect y="47" width="1" height="1" fill="#fff" x="76"/><rect width="1" height="1" fill="#fff" x="77" y="47"/><rect x="78" y="47" width="1" height="1" fill="#fff"/><rect x="79" y="47" width="1" height="1" fill="#fff"/><rect x="80" y="47" width="1" height="1" fill="#fff"/></g></svg>