<?xml version="1.0" encoding="UTF-8"?>
<svg xmlns="http://www.w3.org/2000/svg" xmlns:xlink="http://www.w3.org/1999/xlink" width="340" height="130" viewBox="0 0 340 130">
<defs>
<g>
<g id="glyph-0-0">
<path d="M 32.9375 -32.8125 L 21.0625 -16.84375 L 33.546875 0 L 27.1875 0 L 17.640625 -12.890625 L 8.09375 0 L 1.734375 0 L 14.46875 -17.171875 L 2.8125 -32.8125 L 9.171875 -32.8125 L 17.875 -21.125 L 26.578125 -32.8125 Z M 32.9375 -32.8125 "/>
</g>
<g id="glyph-0-1">
<path d="M 22.671875 -38.578125 L 7.734375 -15.234375 L 22.671875 -15.234375 Z M 21.125 -43.734375 L 28.5625 -43.734375 L 28.5625 -15.234375 L 34.8125 -15.234375 L 34.8125 -10.3125 L 28.5625 -10.3125 L 28.5625 0 L 22.671875 0 L 22.671875 -10.3125 L 2.9375 -10.3125 L 2.9375 -16.03125 Z M 21.125 -43.734375 "/>
</g>
<g id="glyph-0-2">
<path d="M 19.078125 -39.84375 C 16.023438 -39.84375 13.734375 -38.34375 12.203125 -35.34375 C 10.671875 -32.34375 9.90625 -27.835938 9.90625 -21.828125 C 9.90625 -15.828125 10.671875 -11.328125 12.203125 -8.328125 C 13.734375 -5.335938 16.023438 -3.84375 19.078125 -3.84375 C 22.140625 -3.84375 24.4375 -5.335938 25.96875 -8.328125 C 27.5 -11.328125 28.265625 -15.828125 28.265625 -21.828125 C 28.265625 -27.835938 27.5 -32.34375 25.96875 -35.34375 C 24.4375 -38.34375 22.140625 -39.84375 19.078125 -39.84375 Z M 19.078125 -44.53125 C 23.972656 -44.53125 27.710938 -42.59375 30.296875 -38.71875 C 32.890625 -34.84375 34.1875 -29.210938 34.1875 -21.828125 C 34.1875 -14.460938 32.890625 -8.84375 30.296875 -4.96875 C 27.710938 -1.09375 23.972656 0.84375 19.078125 0.84375 C 14.171875 0.84375 10.421875 -1.09375 7.828125 -4.96875 C 5.242188 -8.84375 3.953125 -14.460938 3.953125 -21.828125 C 3.953125 -29.210938 5.242188 -34.84375 7.828125 -38.71875 C 10.421875 -42.59375 14.171875 -44.53125 19.078125 -44.53125 Z M 19.078125 -44.53125 "/>
</g>
<g id="glyph-0-3">
<path d="M 11.515625 -4.984375 L 32.171875 -4.984375 L 32.171875 0 L 4.390625 0 L 4.390625 -4.984375 C 6.640625 -7.304688 9.703125 -10.425781 13.578125 -14.34375 C 17.453125 -18.257812 19.890625 -20.785156 20.890625 -21.921875 C 22.785156 -24.046875 24.109375 -25.84375 24.859375 -27.3125 C 25.609375 -28.789062 25.984375 -30.242188 25.984375 -31.671875 C 25.984375 -33.992188 25.164062 -35.882812 23.53125 -37.34375 C 21.90625 -38.8125 19.785156 -39.546875 17.171875 -39.546875 C 15.316406 -39.546875 13.359375 -39.222656 11.296875 -38.578125 C 9.234375 -37.941406 7.03125 -36.96875 4.6875 -35.65625 L 4.6875 -41.625 C 7.070312 -42.582031 9.296875 -43.304688 11.359375 -43.796875 C 13.429688 -44.285156 15.328125 -44.53125 17.046875 -44.53125 C 21.578125 -44.53125 25.191406 -43.394531 27.890625 -41.125 C 30.585938 -38.863281 31.9375 -35.835938 31.9375 -32.046875 C 31.9375 -30.253906 31.597656 -28.550781 30.921875 -26.9375 C 30.242188 -25.320312 29.019531 -23.421875 27.25 -21.234375 C 26.757812 -20.671875 25.203125 -19.035156 22.578125 -16.328125 C 19.960938 -13.628906 16.273438 -9.847656 11.515625 -4.984375 Z M 11.515625 -4.984375 "/>
</g>
<g id="glyph-0-4">
<path d="M 5.890625 -43.734375 L 31.03125 -43.734375 L 31.03125 -38.765625 L 11.8125 -38.765625 L 11.8125 -25.875 L 29.15625 -25.875 L 29.15625 -20.890625 L 11.8125 -20.890625 L 11.8125 0 L 5.890625 0 Z M 5.890625 -43.734375 "/>
</g>
<g id="glyph-0-5">
<path d="M 18.375 -29.03125 C 15.476562 -29.03125 13.191406 -27.898438 11.515625 -25.640625 C 9.835938 -23.390625 9 -20.300781 9 -16.375 C 9 -12.445312 9.832031 -9.351562 11.5 -7.09375 C 13.164062 -4.84375 15.457031 -3.71875 18.375 -3.71875 C 21.238281 -3.71875 23.507812 -4.847656 25.1875 -7.109375 C 26.875 -9.378906 27.71875 -12.46875 27.71875 -16.375 C 27.71875 -20.257812 26.875 -23.335938 25.1875 -25.609375 C 23.507812 -27.890625 21.238281 -29.03125 18.375 -29.03125 Z M 18.375 -33.609375 C 23.0625 -33.609375 26.738281 -32.082031 29.40625 -29.03125 C 32.082031 -25.988281 33.421875 -21.769531 33.421875 -16.375 C 33.421875 -11.007812 32.082031 -6.796875 29.40625 -3.734375 C 26.738281 -0.679688 23.0625 0.84375 18.375 0.84375 C 13.664062 0.84375 9.976562 -0.679688 7.3125 -3.734375 C 4.644531 -6.796875 3.3125 -11.007812 3.3125 -16.375 C 3.3125 -21.769531 4.644531 -25.988281 7.3125 -29.03125 C 9.976562 -32.082031 13.664062 -33.609375 18.375 -33.609375 Z M 18.375 -33.609375 "/>
</g>
<g id="glyph-0-6">
<path d="M 5.09375 -12.953125 L 5.09375 -32.8125 L 10.484375 -32.8125 L 10.484375 -13.15625 C 10.484375 -10.050781 11.085938 -7.722656 12.296875 -6.171875 C 13.515625 -4.617188 15.332031 -3.84375 17.75 -3.84375 C 20.664062 -3.84375 22.96875 -4.769531 24.65625 -6.625 C 26.34375 -8.476562 27.1875 -11.003906 27.1875 -14.203125 L 27.1875 -32.8125 L 32.578125 -32.8125 L 32.578125 0 L 27.1875 0 L 27.1875 -5.046875 C 25.875 -3.046875 24.351562 -1.5625 22.625 -0.59375 C 20.90625 0.363281 18.898438 0.84375 16.609375 0.84375 C 12.835938 0.84375 9.972656 -0.328125 8.015625 -2.671875 C 6.066406 -5.015625 5.09375 -8.441406 5.09375 -12.953125 Z M 18.65625 -33.609375 Z M 18.65625 -33.609375 "/>
</g>
<g id="glyph-0-7">
<path d="M 32.9375 -19.8125 L 32.9375 0 L 27.546875 0 L 27.546875 -19.625 C 27.546875 -22.726562 26.9375 -25.050781 25.71875 -26.59375 C 24.507812 -28.144531 22.695312 -28.921875 20.28125 -28.921875 C 17.363281 -28.921875 15.066406 -27.988281 13.390625 -26.125 C 11.710938 -24.269531 10.875 -21.742188 10.875 -18.546875 L 10.875 0 L 5.453125 0 L 5.453125 -32.8125 L 10.875 -32.8125 L 10.875 -27.71875 C 12.15625 -29.6875 13.671875 -31.160156 15.421875 -32.140625 C 17.171875 -33.117188 19.1875 -33.609375 21.46875 -33.609375 C 25.238281 -33.609375 28.09375 -32.441406 30.03125 -30.109375 C 31.96875 -27.773438 32.9375 -24.34375 32.9375 -19.8125 Z M 32.9375 -19.8125 "/>
</g>
<g id="glyph-0-8">
<path d="M 27.25 -27.828125 L 27.25 -45.59375 L 32.640625 -45.59375 L 32.640625 0 L 27.25 0 L 27.25 -4.921875 C 26.113281 -2.972656 24.679688 -1.523438 22.953125 -0.578125 C 21.222656 0.367188 19.148438 0.84375 16.734375 0.84375 C 12.765625 0.84375 9.535156 -0.734375 7.046875 -3.890625 C 4.554688 -7.054688 3.3125 -11.21875 3.3125 -16.375 C 3.3125 -21.53125 4.554688 -25.691406 7.046875 -28.859375 C 9.535156 -32.023438 12.765625 -33.609375 16.734375 -33.609375 C 19.148438 -33.609375 21.222656 -33.132812 22.953125 -32.1875 C 24.679688 -31.238281 26.113281 -29.785156 27.25 -27.828125 Z M 8.875 -16.375 C 8.875 -12.414062 9.6875 -9.304688 11.3125 -7.046875 C 12.945312 -4.785156 15.191406 -3.65625 18.046875 -3.65625 C 20.898438 -3.65625 23.144531 -4.785156 24.78125 -7.046875 C 26.425781 -9.304688 27.25 -12.414062 27.25 -16.375 C 27.25 -20.34375 26.425781 -23.453125 24.78125 -25.703125 C 23.144531 -27.960938 20.898438 -29.09375 18.046875 -29.09375 C 15.191406 -29.09375 12.945312 -27.960938 11.3125 -25.703125 C 9.6875 -23.453125 8.875 -20.34375 8.875 -16.375 Z M 8.875 -16.375 "/>
</g>
<g id="glyph-0-9">
<path d="M 20.5625 -16.5 C 16.207031 -16.5 13.191406 -16 11.515625 -15 C 9.835938 -14 9 -12.300781 9 -9.90625 C 9 -7.988281 9.628906 -6.46875 10.890625 -5.34375 C 12.148438 -4.21875 13.863281 -3.65625 16.03125 -3.65625 C 19.019531 -3.65625 21.414062 -4.710938 23.21875 -6.828125 C 25.019531 -8.953125 25.921875 -11.773438 25.921875 -15.296875 L 25.921875 -16.5 Z M 31.3125 -18.71875 L 31.3125 0 L 25.921875 0 L 25.921875 -4.984375 C 24.691406 -2.992188 23.160156 -1.523438 21.328125 -0.578125 C 19.492188 0.367188 17.25 0.84375 14.59375 0.84375 C 11.226562 0.84375 8.554688 -0.0976562 6.578125 -1.984375 C 4.597656 -3.867188 3.609375 -6.390625 3.609375 -9.546875 C 3.609375 -13.242188 4.84375 -16.03125 7.3125 -17.90625 C 9.78125 -19.78125 13.46875 -20.71875 18.375 -20.71875 L 25.921875 -20.71875 L 25.921875 -21.234375 C 25.921875 -23.722656 25.101562 -25.644531 23.46875 -27 C 21.84375 -28.351562 19.554688 -29.03125 16.609375 -29.03125 C 14.734375 -29.03125 12.90625 -28.804688 11.125 -28.359375 C 9.351562 -27.910156 7.644531 -27.238281 6 -26.34375 L 6 -31.3125 C 7.976562 -32.082031 9.894531 -32.65625 11.75 -33.03125 C 13.601562 -33.414062 15.410156 -33.609375 17.171875 -33.609375 C 21.910156 -33.609375 25.453125 -32.375 27.796875 -29.90625 C 30.140625 -27.445312 31.3125 -23.71875 31.3125 -18.71875 Z M 31.3125 -18.71875 "/>
</g>
<g id="glyph-0-10">
<path d="M 10.984375 -42.125 L 10.984375 -32.8125 L 22.09375 -32.8125 L 22.09375 -28.625 L 10.984375 -28.625 L 10.984375 -10.8125 C 10.984375 -8.132812 11.347656 -6.414062 12.078125 -5.65625 C 12.816406 -4.894531 14.304688 -4.515625 16.546875 -4.515625 L 22.09375 -4.515625 L 22.09375 0 L 16.546875 0 C 12.390625 0 9.519531 -0.773438 7.9375 -2.328125 C 6.351562 -3.878906 5.5625 -6.707031 5.5625 -10.8125 L 5.5625 -28.625 L 1.609375 -28.625 L 1.609375 -32.8125 L 5.5625 -32.8125 L 5.5625 -42.125 Z M 10.984375 -42.125 "/>
</g>
<g id="glyph-0-11">
<path d="M 5.65625 -32.8125 L 11.046875 -32.8125 L 11.046875 0 L 5.65625 0 Z M 5.65625 -45.59375 L 11.046875 -45.59375 L 11.046875 -38.765625 L 5.65625 -38.765625 Z M 5.65625 -45.59375 "/>
</g>
</g>
</defs>
<g fill="rgb(0%, 0%, 0%)" fill-opacity="1">
<use xlink:href="#glyph-0-0" x="0" y="50"/>
<use xlink:href="#glyph-0-1" x="35.507812" y="50"/>
<use xlink:href="#glyph-0-2" x="73.681641" y="50"/>
<use xlink:href="#glyph-0-3" x="111.855469" y="50"/>
</g>
<g fill="rgb(0%, 0%, 0%)" fill-opacity="1">
<use xlink:href="#glyph-0-4" x="0" y="100"/>
<use xlink:href="#glyph-0-5" x="34.511719" y="100"/>
<use xlink:href="#glyph-0-6" x="71.220703" y="100"/>
<use xlink:href="#glyph-0-7" x="109.248047" y="100"/>
<use xlink:href="#glyph-0-8" x="147.275391" y="100"/>
<use xlink:href="#glyph-0-9" x="185.361328" y="100"/>
<use xlink:href="#glyph-0-10" x="222.128906" y="100"/>
<use xlink:href="#glyph-0-11" x="245.654297" y="100"/>
<use xlink:href="#glyph-0-5" x="262.324219" y="100"/>
<use xlink:href="#glyph-0-7" x="299.033203" y="100"/>
</g>
</svg>
