<svg width="472" height="178" viewBox="0 0 472 178" fill="none" xmlns="http://www.w3.org/2000/svg">
<path d="M10.5947 56.2786C11.1909 55.685 12.1569 55.6851 12.7532 56.2786L61.1001 104.409L79.6607 85.9848C80.2572 85.3926 81.222 85.3932 81.8177 85.9863L91.3288 95.4556C91.9274 96.0516 91.9264 97.0189 91.3266 97.6137L77.6103 111.218V121.075L121.117 164.388C121.715 164.983 121.715 165.949 121.117 166.544L111.606 176.014C111.009 176.607 110.043 176.607 109.447 176.014L61.1001 127.883L12.7532 176.014C12.1569 176.607 11.1909 176.607 10.5947 176.014L1.08278 166.544C0.485065 165.949 0.485138 164.983 1.08278 164.388L44.5899 121.075V111.218L1.08278 67.9046C0.48517 67.3094 0.485042 66.3431 1.08278 65.748L10.5947 56.2786Z" fill="black"/>
<path d="M355.912 143.484C355.912 141.102 356.845 138.814 358.511 137.107L444.976 48.5543C445.393 48.1276 445.626 47.5555 445.626 46.9598V39.919C445.626 39.3313 445.399 38.7662 444.992 38.3411L427.015 19.5544C426.583 19.1026 425.984 18.847 425.358 18.847L389.335 18.847C388.728 18.847 388.145 19.0877 387.715 19.5163L365.933 41.241C365.039 42.1334 363.588 42.1334 362.693 41.2409L354.053 32.6223C353.158 31.7298 353.158 30.2828 354.053 29.3904L378.742 4.76535C380.461 3.05106 382.792 2.08798 385.223 2.08799L429.608 2.08799C432.112 2.08799 434.508 3.11056 436.237 4.91785L459.894 29.6397C461.521 31.3402 462.429 33.6005 462.429 35.9511V50.985C462.429 53.3676 461.496 55.6565 459.83 57.3633L373.364 145.916C372.948 146.343 372.715 146.915 372.715 147.51L372.715 158.251C372.715 159.513 373.74 160.537 375.006 160.537H460.138C461.403 160.537 462.429 161.56 462.429 162.822V175.01C462.429 176.272 461.403 177.296 460.138 177.296L365.077 177.296C360.015 177.295 355.912 173.203 355.912 168.154L355.912 143.484Z" fill="black"/>
<path d="M302.513 2.08799C319.385 2.08806 333.062 15.7302 333.062 32.5587V146.818L333.053 147.605C332.641 163.808 319.547 176.868 303.301 177.278H264.168C247.922 176.868 234.828 163.808 234.416 147.605L234.406 146.818V32.5587C234.406 15.7302 248.085 2.08799 264.957 2.08799H302.513ZM251.209 136.926V146.818C251.209 154.391 257.365 160.529 264.957 160.529H302.513C310.105 160.529 316.259 154.391 316.26 146.818V72.044L251.209 136.926ZM264.957 18.8468C257.365 18.8468 251.209 24.9859 251.209 32.5587V113.226L316.26 48.3439V32.5587C316.26 24.986 310.105 18.8469 302.513 18.8468H264.957Z" fill="black"/>
<path d="M189.895 0C191.16 0 192.186 1.02317 192.186 2.28532V76.6146C192.186 77.8768 193.212 78.8999 194.477 78.8999H210.927C212.193 78.8999 213.218 79.9231 213.218 81.1852V93.3736C213.218 94.6357 212.193 95.6589 210.927 95.6589H194.477C193.212 95.6589 192.186 96.6821 192.186 97.9442V175.003C192.186 176.265 191.16 177.288 189.895 177.288H177.675C176.409 177.288 175.384 176.265 175.384 175.003V97.9442C175.384 96.6821 174.358 95.6589 173.092 95.6589H115.316C114.709 95.6589 114.127 95.4189 113.698 94.9916L93.7474 75.1447C92.8522 74.254 92.8495 72.8084 93.7414 71.9145L164.828 0.67322C165.258 0.242277 165.842 0 166.452 0H189.895ZM117.491 71.8707C116.599 72.7646 116.602 74.2101 117.497 75.1008L120.644 78.2326C121.074 78.6599 121.656 78.8999 122.263 78.8999H173.092C174.358 78.8999 175.384 77.8768 175.384 76.6146V18.8027C175.384 17.674 174.466 16.759 173.335 16.759C172.789 16.759 172.267 16.9756 171.882 17.361L117.491 71.8707Z" fill="black"/>
</svg>
