<svg width="400" height="400" viewBox="0 0 400 400" fill="none" xmlns="http://www.w3.org/2000/svg">
<rect width="400" height="400" fill="#0C0C0C"/>
<path fill-rule="evenodd" clip-rule="evenodd" d="M291.102 165C299.911 165 307.581 168.139 312.578 173.011C312.95 173.374 313.606 173.12 313.606 172.602V167.796C313.606 167.172 314.115 166.667 314.743 166.667H332.828C333.794 166.667 334.32 167.788 333.698 168.523L327.159 176.24C326.47 177.053 326.092 178.083 326.091 179.147V229.999C326.091 250.897 313.46 264.445 291.828 264.445C277.998 264.445 265.243 257.372 259.513 244.639C259.187 243.914 259.735 243.115 260.535 243.114H271.996C272.408 243.114 272.786 243.337 273 243.688C276.559 249.533 282.967 252.915 291.828 252.915C305.62 252.915 313.606 243.258 313.606 229.711V228.919C313.606 227.882 312.273 227.355 311.484 228.034C306.496 232.33 299.291 235.044 291.102 235.044C269.18 235.043 257.275 218.325 257.275 200.021C257.275 181.718 269.18 165 291.102 165ZM291.538 176.53C278.617 176.53 269.761 187.339 269.76 200.021C269.76 212.704 278.617 223.513 291.538 223.513C303.153 223.513 314.041 215.731 314.041 200.021C314.041 184.312 303.153 176.53 291.538 176.53Z" fill="#F4FFF7"/>
<path fill-rule="evenodd" clip-rule="evenodd" d="M174.428 165C193.592 165 207.24 180.133 207.24 199.157C207.24 200.474 207.239 202.09 207.073 203.673C207.015 204.227 206.535 204.634 205.973 204.634H154.385C153.698 204.634 153.165 205.237 153.295 205.907C155.268 216.07 164.14 223.513 175.154 223.513C182.746 223.513 188.976 220.676 192.527 215.131C192.744 214.792 193.115 214.578 193.519 214.578H204.751C205.538 214.578 206.086 215.355 205.783 216.076C200.776 227.997 189.237 235.044 175.154 235.044C154.974 235.044 140.165 220.343 140.165 199.878C140.165 179.989 154.248 165 174.428 165ZM174.428 176.53C163.444 176.53 155.39 183.007 153.453 192.543C153.316 193.215 153.849 193.825 154.54 193.825H192.846C193.544 193.824 194.078 193.205 193.937 192.527C191.947 183 184.85 176.53 174.428 176.53Z" fill="#F4FFF7"/>
<path d="M80.0764 166.667C80.3777 166.667 80.6667 166.785 80.88 166.997L105.015 190.924C105.459 191.364 106.178 191.364 106.622 190.924L130.757 166.997C130.971 166.785 131.26 166.667 131.561 166.667H145.049C146.061 166.667 146.569 167.882 145.853 168.593L122.866 191.445C122.653 191.657 122.363 191.776 122.061 191.776H108.622C107.609 191.776 107.101 192.993 107.818 193.704L145.847 231.406C146.564 232.117 146.057 233.333 145.044 233.333H131.383C131.081 233.333 130.791 233.214 130.578 233.002L106.607 209.174C106.163 208.732 105.441 208.732 104.997 209.174L81.0593 233.001C80.846 233.213 80.5562 233.333 80.2541 233.333H66.5905C65.5772 233.333 65.0698 232.117 65.7863 231.406L88.6958 208.664C88.9091 208.452 89.1983 208.333 89.5 208.333H103.018C104.031 208.333 104.538 207.118 103.823 206.406L65.7836 168.593C65.0679 167.882 65.5754 166.667 66.5882 166.667H80.0764Z" fill="#F4FFF7"/>
<path d="M223.773 166.667C224.401 166.667 224.91 167.172 224.91 167.796V188.57C224.91 189.576 226.134 190.08 226.851 189.369L249.417 166.997C249.63 166.785 249.919 166.667 250.221 166.667H263.708C264.721 166.667 265.229 167.882 264.513 168.593L241.526 191.445C241.312 191.657 241.023 191.776 240.721 191.776H226.047C225.419 191.776 224.91 192.281 224.91 192.905V232.204C224.91 232.828 224.401 233.333 223.773 233.333H213.562C212.933 233.333 212.424 232.828 212.424 232.204V167.796C212.424 167.172 212.933 166.667 213.562 166.667H223.773Z" fill="#F4FFF7"/>
</svg>
