<svg xmlns="http://www.w3.org/2000/svg" role="img" viewBox="120.44 461.44 575.12 98.62"><path fill="#fff" d="M723.1742 587.69706H93.20242V434.12144H723.1742z"/><path fill="#e6232a" d="M272.458 510.232v-24.94127l12.81197-12.8093H131.56369l133.11566 76.85314-4.69332-17.50396z"/><path fill="#332d2b" d="M474.914 517.784h31.91592v13.8853h-60.40785v-13.33997l32.89725-32.11992h-32.46658v-13.72796h59.80918v13.25996z"/><path fill="#332d2b" d="M684.88495 531.67053h-20.23061v-59.18785h20.23061z"/><path fill="#332d2b" d="M534.79 521.492l-3.61732 10.1773h-20.63195l22.73327-59.18784h29.58526l22.73061 59.18785h-20.63195L561.3406 521.492zm22.20928-12.22797l-8.92931-25.1266-8.94131 25.1266z"/><path fill="#332d2b" d="M392.186 521.492l-3.61466 10.1773h-20.63328L390.67 472.48147h29.58526l22.73328 59.18785h-20.63328l-3.61733-10.17731zm22.21061-12.22797l-8.93064-25.1266-8.93865 25.1266z"/><path fill="#332d2b" d="M328.878 531.667v-20.05462l-28.24526-39.1319H324.134l14.9853 23.92127 14.9613-23.92127h23.4946l-28.24126 39.1319V531.667z"/><path fill="#332d2b" d="M610.85714 531.67053h-20.19328v-59.18785h20.19328z"/><path fill="#332d2b" d="M610.872 500.928l22.42528-28.4466h23.7546l-23.8186 28.44393 25.33593 30.74393h-24.37327z"/></svg>