<svg xmlns="http://www.w3.org/2000/svg" role="img" viewBox="11.22 0.22 1028.56 426.56"><defs><clipPath id="clip-path"><path d="M115.33066 22.86833l-74.892 43.24a18.3191 18.3191 0 0 0-9.16 15.86531v86.476a18.31905 18.31905 0 0 0 9.16 15.86531l74.892 43.23869a18.32263 18.32263 0 0 0 18.32 0l74.89067-43.23869a18.31907 18.31907 0 0 0 9.16-15.86531v-86.476a18.31907 18.31907 0 0 0-9.16-15.86531l-74.89066-43.24a18.31376 18.31376 0 0 0-9.16-2.45467 18.31375 18.31375 0 0 0-9.16 2.45467" class="cls-1"/></clipPath><clipPath id="clip-path-2"><path d="M57.662 67.68h273.736v255.14H57.662z" class="cls-1"/></clipPath><style>.cls-1{fill:none}.cls-8{fill:#002a3a}.cls-9{fill:#0033a1}</style></defs><g id="g10"><g id="g12"><g id="g14"><g id="g20"><path id="path22" fill="#2b7de1" d="M208.542 66.10779L133.65 22.86912a18.3202 18.3202 0 0 0-18.31867 0l-74.892 43.23867a18.31912 18.31912 0 0 0-9.16 15.86533v86.47733a18.32076 18.32076 0 0 0 9.16 15.86534l74.892 43.23866a18.32015 18.32015 0 0 0 18.31867 0l74.892-43.23867a18.32075 18.32075 0 0 0 9.16-15.86534V81.97311a18.31912 18.31912 0 0 0-9.16-15.86532"/></g></g></g><g clip-path="url(#clip-path)" id="g24"><g id="g26"><g id="g32"><g clip-path="url(#clip-path-2)" id="g46"><g id="g44" opacity=".4"><g id="g42"><path id="path40" fill="#231f20" d="M331.25692 226.22122v-.05866l-.14-.08134v-.05866l-.14-.08134v-.05866l-.14-.08134v-.05866l-.14-.08134v-.05866l-.14-.08134v-.05866l-.14-.08134v-.05866l-.14-.08134v-.05866l-.14-.08134v-.05866l-.14-.08134v-.05866l-.14-.08134v-.05866l-.13867-.08134v-.05866l-.14-.08v-.06l-.14-.08v-.06l-.14-.08v-.06l-.14-.08v-.06l-.14-.08v-.06l-.14-.08v-.06l-.14-.08v-.06l-.14-.08v-.05867l-.14-.08133v-.05867l-.14-.08133v-.05867l-.14-.08133v-.05867l-.14-.08133v-.05867l-.14-.08133v-.05867l-.14-.08133v-.05867l-.14-.08133v-.05867l-.14-.08133v-.05867l-.14-.08133v-.05867l-.14-.08133v-.05867l-.14-.08133v-.05867l-.14-.08133v-.05867l-.13867-.08v-.06l-.14-.08133v-.05867l-.14-.08v-.06l-.14-.08v-.06l-.14-.08v-.06l-.14-.08v-.06l-.14-.08v-.06l-.14-.08v-.06l-.14-.08v-.05867l-.14-.08133v-.05867l-.14-.08133v-.05867l-.14-.08133v-.05867l-.14-.08133v-.05867l-.14-.08133v-.05867l-.14-.08133v-.05867l-.14-.08133v-.05867l-.14-.08133v-.05867l-.14-.08133v-.05867l-.14-.08133v-.05867l-.14-.08133v-.05867l-.14-.08133v-.05867l-.13866-.08v-.06l-.14-.08v-.06l-.14-.08v-.06l-.14-.08v-.06l-.14-.08v-.06l-.14-.08v-.06l-.14-.08v-.06l-.14-.08v-.06l-.14-.08v-.06l-.14-.08v-.05866l-.14-.08134v-.05866l-.14-.08134v-.05866l-.14-.08134v-.05866l-.14-.08134v-.05866l-.14-.08134v-.05866l-.14-.08134v-.05866l-.14-.08134v-.05866l-.14-.08134v-.05866l-.14-.08134v-.05866l-.14-.08134v-.05866l-.14-.08134v-.05866l-.14-.08134v-.05866l-.13867-.08v-.06l-.14-.08v-.06l-.14-.08v-.06l-.14-.08v-.06l-.14-.08v-.06l-.14-.08v-.06l-.14-.08v-.06l-.14-.08v-.05866l-.14-.08133v-.05867l-.14-.08133v-.05867l-.14-.08133v-.05867l-.14-.08133v-.05867l-.14-.08133v-.05867l-.14-.08133v-.05867l-.14-.08133v-.05867l-.14-.08133v-.05867l-.14-.08133v-.05867l-.14-.08133v-.05867l-.14-.08133v-.05867l-.14-.08133v-.05867l-.14-.08133v-.05867l-.13866-.08v-.06l-.14-.08v-.06l-.14-.08v-.06l-.14-.08v-.06l-.14-.08v-.06l-.14-.08v-.06l-.14-.08v-.06l-.14-.08v-.06l-.14-.08v-.05867l-.14-.08133v-.05867l-.14-.08133v-.05867l-.14-.08133v-.05867l-.14-.08133v-.05867l-.14-.08133v-.05867l-.14-.08133v-.05867l-.14-.08133v-.05867l-.14-.08133v-.05866l-.14-.08134v-.05866l-.14-.08134v-.05866l-.14-.08134v-.05866l-.14-.08134v-.05866l-.13866-.08v-.06l-.14-.08v-.06l-.14-.08v-.06l-.14-.08v-.06l-.14-.08v-.06l-.14-.08v-.06l-.14-.08v-.06l-.14-.08v-.06l-.14-.08v-.05866l-.14-.08134v-.05866l-.14-.08134v-.05866l-.14-.08134v-.05866l-.14-.08134v-.05866l-.14-.08133v-.05867l-.14-.08133v-.05867l-.14-.08133v-.05867l-.14-.08133v-.05867l-.14-.08133v-.05867l-.14-.08133v-.05867l-.14-.08133v-.05867l-.14-.08133v-.05867l-.14-.08133v-.05867l-.13867-.08v-.06l-.14-.08v-.06l-.14-.08v-.06l-.14-.08v-.06l-.14-.08v-.06l-.14-.08v-.06l-.14-.08v-.06l-.14-.08v-.05867l-.14-.08133v-.05867l-.14-.08133v-.05867l-.14-.08133v-.05867l-.14-.08133v-.05866l-.14-.08134v-.05866l-.14-.08134v-.05866l-.14-.08134v-.05866l-.14-.08134v-.05867l-.14-.08133v-.05867l-.14-.08133v-.05867l-.14-.08133v-.05867l-.14-.08134v-.05866l-.14-.08134v-.05867l-.13867-.08v-.06l-.14-.08v-.06l-.14-.08v-.06l-.14-.08v-.06l-.14-.08v-.06l-.14-.08v-.06l-.14-.08v-.06l-.14-.08v-.06l-.14-.08v-.05867l-.14-.08133v-.05867l-.14-.08133v-.05867l-.14-.08134v-.05866l-.14-.08134v-.05867l-.14-.08133v-.05867l-.14-.08133v-.05867l-.14-.08133v-.05867l-.14-.08134v-.05866l-.14-.08134v-.05866l-.14-.08134v-.05867l-.14-.08133v-.05867l-.14-.08133v-.05867l-.14-.08134v-.05866l-.13866-.08v-.06l-.14-.08v-.06l-.14-.08v-.06l-.14-.08v-.06l-.14-.08v-.06l-.14-.08v-.06l-.14-.08v-.06l-.14-.08v-.05867l-.14-.08133v-.05867l-.14-.08133v-.05867l-.14-.08133v-.05867l-.14-.08134v-.05863l-.14-.08134v-.05866l-.14-.08134v-.05867l-.14-.08133v-.05867l-.14-.08133v-.05867l-.14-.08133v-.05867l-.14-.08134v-.05866l-.14-.08134v-.05867l-.14-.08133v-.05867l-.14-.08133v-.05867l-.13867-.08v-.06l-.14-.08v-.06l-.14-.08v-.06l-.14-.08v-.06l-.14-.08v-.06l-.14-.08v-.06l-.14-.08v-.06l-.14-.08v-.05867l-.14-.08134v-.05866l-.14-.08134v-.05867l-.14-.08133v-.05867l-.14-.08133v-.05867l-.14-.08133v-.05867l-.14-.08134v-.05866l-.14-.08134v-.05867l-.14-.08133v-.05867l-.14-.08133v-.05867l-.14-.08133v-.05867l-.14-.08134v-.05866l-.14007-.0813v-.05867l-.14-.08133v-.05867l-.13866-.08v-.06l-.14-.08v-.06l-.14-.08v-.06l-.14-.08v-.06l-.14-.08v-.06l-.14-.08v-.06l-.14-.08v-.06l-.14-.08v-.06l-.14-.08v-.05866l-.14-.08134v-.05867l-.14-.08133v-.05867l-.14-.08133v-.05867l-.14-.08133v-.05867l-.14-.08134v-.05866l-.14-.08134v-.05866l-.14-.08134v-.05867l-.14-.08133v-.05867l-.14-.08133v-.05867l-.14-.08134v-.05866l-.14-.08134v-.05866l-.14-.08134v-.05867l-.14-.08133v-.05867l-.13867-.08v-.06l-.14-.08v-.06l-.14-.08v-.06l-.14-.08v-.06l-.14-.08v-.06l-.14-.08v-.06l-.14-.08v-.06l-.14-.08v-.05867l-.14-.08134v-.05866l-.14-.08134v-.05866l-.14-.08134v-.05867l-.14-.08133v-.05867l-.14-.08133v-.05867l-.14-.08133v-.05867l-.14-.08134v-.05866l-.14-.08134v-.05867l-.14-.08133v-.05867l-.14-.08133v-.05867l-.14-.08133v-.05867l-.14-.08134v-.05866l-.14-.08134v-.05867l-.13867-.08v-.06l-.14-.08v-.06l-.14-.08v-.06l-.14-.08v-.06l-.14-.08v-.06l-.14-.08v-.06l-.14-.08v-.06l-.14-.08v-.06l-.14-.08v-.05867l-.14-.08133v-.05867l-.14-.08133v-.05867l-.14-.08134v-.05866l-.14-.08134v-.05867l-.14-.08133v-.05867l-.14-.08133v-.05867l-.14-.08133v-.05867l-.14-.08134v-.05866l-.14-.08134v-.05866l-.14-.08134v-.05867l-.14-.08133v-.05867l-.14-.08133v-.05867l-.13866-.08v-.06l-.14-.08v-.06l-.14-.08v-.06l-.14-.08v-.06l-.14-.08v-.06l-.14-.08v-.06l-.14-.08v-.06l-.14-.08v-.06l-.14-.08v-.05866l-.14-.08134v-.05866l-.14-.08134v-.05867l-.14-.08133v-.05867l-.14-.08133v-.05867l-.14-.08133v-.05867l-.14-.08134v-.05866l-.14-.08134v-.05867l-.14-.08133v-.05867l-.14-.08133v-.05867l-.14-.08133v-.05867l-.14-.08133v-.05867l-.14-.08133v-.05867l-.14-.08133v-.05866l-.13867-.08v-.06l-.14-.08v-.06l-.14-.08v-.06l-.14-.08v-.06l-.14-.08v-.05994l-.14-.08v-.06l-.14-.08v-.06l-.14-.08v-.05866l-.14-.08134v-.05866l-.14-.08134v-.05866l-.14-.08133v-.05867l-.14-.08133v-.05867l-.14-.08133v-.05867l-.14006-.08134v-.05866l-.14-.08134v-.05866l-.14-.08134v-.05866l-.14-.08134v-.05866l-.14-.08134v-.05866l-.14-.08133v-.05867l-.14-.08133v-.05867l-.14-.08133v-.05867l-.13866-.08v-.06l-.14-.08v-.06l-.14-.08v-.06l-.14-.08v-.06l-.14-.08v-.06l-.14-.08v-.06l-.14-.08v-.06l-.14-.08v-.06l-.14-.08v-.05866l-.14-.08133v-.05867l-.14-.08133v-.05867l-.14-.08133v-.05867l-.14-.08133v-.05867l-.14-.08133v-.05867l-.14-.08133v-.05867l-.14-.08133v-.05867l-.14-.08133v-.05867l-.14-.08133v-.05866l-.14-.08134v-.05866l-.14-.08134v-.05866l-.14-.08134v-.05866l-.13867-.08v-.06l-.14-.08v-.06l-.14-.08v-.06l-.14-.08v-.06l-.14-.08v-.06l-.14-.08v-.06l-.14-.08v-.06l-.14-.08v-.06l-.14-.08v-.05866l-.14-.08134v-.05866l-.14-.08134v-.05866l-.14-.08134v-.05866l-.14-.08134v-.05866l-.14-.08134v-.05866l-.14-.08134v-.05866l-.14-.08134v-.05866l-.14-.08133v-.05867l-.14-.08133v-.05867l-.14-.08133v-.05867l-.14-.08133v-.05867l-.14-.08133v-.05867l-.14-.08v-.06l-.13866-.08v-.06l-.14-.08v-.06l-.14-.08v-.06l-.14-.08v-.06l-.14-.08v-.06l-.14-.08v-.06l-.14-.08v-.06l-.14-.08v-.05867l-.14-.08133v-.05867l-.14-.08133v-.05867l-.14-.08133v-.05867l-.14-.08133v-.05867l-.14-.08133v-.05867l-.14-.08133v-.05867l-.14-.08133v-.05866l-.14-.08134v-.05866l-.14-.08134v-.05866l-.14-.08134v-.05866l-.14-.08134v-.05866l-.14-.08134v-.05866l-.14-.08v-.06l-.13867-.08v-.06l-.14-.08v-.06l-.14-.08v-.06l-.14-.08v-.06l-.14-.08v-.06l-.14-.08v-.06l-.14-.08v-.05866l-.14-.08134v-.06l-.14-.08v-.05866l-.14-.08134v-.05866l-.14-.08134v-.05866l-.14-.08134v-.05866l-.14-.08134v-.05866l-.14-.08133v-.05867l-.14-.08133v-.05867l-.14-.08133v-.05867l-.14-.08133v-.05867l-.14-.08133v-.05867l-.14-.08133v-.05867l-.14-.08133v-.05867l-.13867-.08133v-.05872l-.14-.08v-.06l-.14-.08v-.06l-.14-.08v-.06l-.14-.08v-.06l-.14-.08v-.06l-.14-.08v-.06l-.14-.08v-.06l-.14-.08v-.05867l-.14005-.08134v-.05866l-.14-.08134v-.05866l-.14-.08134v-.05866l-.14-.08134v-.05866l-.14-.08134v-.05866l-.14-.08133v-.05867l-.14-.08133v-.05867l-.14-.08133v-.05867l-.14-.08133v-.05867l-.14-.08133v-.05867l-.14-.08133v-.05867l-.14-.08133v-.05867l-.13866-.08v-.06l-.14-.08133v-.05866l-.14-.08v-.06l-.14-.08v-.06l-.14-.08v-.06l-.14-.08v-.06l-.14-.08v-.06l-.14-.08v-.06l-.14-.08v-.05867l-.14-.08133v-.05867l-.14-.08133v-.05867l-.14-.08133v-.05867l-.14-.08133v-.05867l-.14-.08133v-.05866l-.14-.08134v-.05866l-.14-.08134v-.05866l-.14-.08134v-.05866l-.14-.08134v-.05866l-.14-.08134v-.05866l-.14-.08134v-.05866l-.14-.08134v-.05866l-.14-.08134v-.05866l-.13867-.08v-.06l-.14-.08v-.06l-.14-.08v-.06l-.14-.08v-.06l-.14-.08v-.06l-.14-.08v-.06l-.14-.08v-.06l-.14-.08v-.06l-.14-.08v-.05866l-.14-.08134v-.05866l-.14-.08134v-.05866l-.14-.08134v-.05866l-.14-.08133v-.05867l-.14-.08133v-.05867l-.14-.08133v-.05867l-.14-.08133v-.05867l-.14-.08133v-.05867l-.14-.08133v-.05867l-.14-.08133v-.05867l-.14-.08133v-.05867l-.14-.08133v-.05866l-.13867-.08v-.06l-.14-.08v-.06l-.14-.08v-.06l-.14-.08v-.06l-.14-.08v-.06l-.14-.08v-.06l-.14-.08v-.06l-.14-.08v-.06l-.14-.08v-.05867l-.14-.08133v-.05867l-.14-.08133v-.05867l-.14-.08133v-.05866l-.14-.08134v-.05866l-.14-.08134v-.05866l-.14-.08134v-.05866l-.14-.08134v-.05866l-.14-.08134v-.05866l-.14-.08134v-.05866l-.14-.08134v-.05866l-.14-.08133v-.05867l-.14-.08133v-.05867l-.13866-.08133v-.05867l-.14-.08v-.06l-.14-.08v-.06l-.14-.08v-.06l-.14-.08v-.06l-.14-.08v-.06l-.14-.08v-.06l-.14-.08v-.06l-.14-.08v-.05866l-.14-.08134v-.05866l-.14-.08133v-.05867l-.14-.08133v-.05867l-.14-.08133v-.05867l-.14-.08133v-.05867l-.14-.08133v-.05867l-.14-.08133v-.05867l-.14-.08133v-.05872l-.14-.08134v-.05866l-.14-.08134v-.05866l-.14-.08133v-.05867l-.14-.08133v-.05867l-.14-.08133v-.05867l-.13867-.08v-.06l-.14-.08v-.06l-.14-.08v-.06l-.14005-.08v-.06l-.14-.08v-.06l-.14-.08v-.06l-.14-.08v-.06l-.14-.08v-.05866l-.14-.08134v-.05866l-.14-.08133v-.05867l-.14-.08133v-.05867l-.14-.08133v-.05867l-.14-.08133v-.05867l-.14-.08133v-.05867l-.14-.08133v-.05867l-.14-.08133v-.05867l-.14-.08133v-.05867l-.14-.08133v-.05866l-.14-.08134v-.05866l-.14-.08134v-.05866l-.14-.08134v-.05866l-.13867-.08v-.06l-.14-.08v-.06l-.14-.08v-.06l-.14-.08v-.06l-.14-.08v-.06l-.14-.08v-.06l-.14-.08v-.06l-.14-.08v-.06l-.14-.08v-.05866l-.14-.08134v-.05866l-.14-.08134v-.05866l-.14-.08134v-.05866l-.14-.08134v-.05866l-.14-.08134v-.05866l-.14-.08134v-.05866l-.14-.08134v-.05866l-.14-.08133v-.05867l-.14-.08133v-.05867l-.14-.08133v-.05867l-.14-.08133v-.05867l-.14-.08133v-.05867l-.13866-.08v-.06l-.14-.08v-.06l-.14-.08v-.06l-.14-.08v-.06l-.14-.08v-.06l-.14-.08v-.06l-.14-.08v-.06l-.14-.08v-.06l-.14-.08v-.05867l-.14-.08133v-.05867l-.14-.08133v-.05867l-.14-.08133v-.05867l-.14-.08133v-.05867l-.14-.08133v-.05867l-.14-.08133v-.05867l-.14-.08133v-.05866l-.14-.08134v-.05866l-.14-.08134v-.05866l-.14-.08134v-.05866l-.14-.08134v-.05866l-.14-.08134v-.05866l-.14-.08134v-.05866l-.13867-.08v-.06l-.14-.08v-.06l-.14-.08v-.06l-.14-.08v-.06l-.14-.08v-.06l-.14-.08v-.06l-.14-.08v-.06l-.14-.08v-.05866l-.14-.08134v-.05866l-.14-.08134v-.05866l-.14-.08134v-.05866l-.14-.08134v-.05866l-.14-.08134v-.05866l-.14-.08133v-.05867l-.14-.08133v-.05867l-.14-.08133v-.05867l-.14-.08133v-.05867l-.14-.08133v-.05867l-.14-.08133v-.05867l-.14-.08133v-.05867l-.14-.08133v-.05867l-.13867-.08v-.06l-.14-.08v-.06l-.14-.08v-.06l-.14-.08v-.06l-.14-.08v-.06l-.14-.08v-.06l-.14-.08v-.06l-.14-.08v-.06l-.14-.08v-.05867l-.14-.08133v-.05866l-.14-.08133v-.05877l-.14-.08133v-.05866l-.14-.08133v-.05867l-.14-.08133v-.05866l-.14-.08133v-.05866l-.14-.08133v-.05867l-.14-.08133v-.05866l-.14-.08133v-.05867l-.14-.08133v-.05866l-.14-.08133v-.05867l-.14-.08133v-.05866l-.13866-.08v-.06l-.14-.08v-.06l-.14-.08v-.06l-.14-.08v-.06l-.14-.08v-.06l-.14-.08v-.06l-.14-.08v-.06l-.14-.08v-.06l-.14-.08v-.05867l-.14-.08133v-.05866l-.14-.08133v-.05866l-.14-.08133v-.05867l-.14-.08133v-.05866l-.14-.08133v-.05867l-.14-.08133v-.05866l-.14-.08133v-.05867l-.14-.08133v-.05866l-.14-.08133v-.05866l-.1399-.0815v-.05866l-.14-.08133v-.05867l-.14-.08133v-.05866l-.14-.08133v-.05866l-.13867-.08v-.06l-.14-.08v-.06l-.14-.08v-.06l-.14-.08v-.06l-.14-.08v-.06l-.14-.08v-.06l-.14-.08v-.06l-.14-.08v-.05844l-.14-.08133v-.05867l-.14-.08133v-.05867l-.14-.08132v-.05868l-.14-.08133v-.05867l-.14-.08133v-.05867l-.14-.08133v-.05867l-.14-.08133v-.05867l-.14-.08133v-.05867l-.14-.08133v-.05867l-.14-.08132v-.05868l-.14-.08133v-.05867l-.14-.08133v-.05867l-.14-.08133v-.05867l-.13866-.08v-.06l-.14-.08v-.06l-.14-.08v-.06l-.14-.08v-.06l-.14-.08v-.06l-.14-.08v-.06l-.14-.08v-.06l-.14-.08v-.06l-.14-.08v-.05867l-.14-.08133v-.05866l-.14-.08133v-.05867l-.14-.08133v-.05866l-.14-.08133v-.05867l-.14-.08132v-.05867l-.14-.08133v-.05866l-.14-.08133v-.05867l-.14-.08133v-.05866l-.14-.08133v-.05867l-.14-.08133v-.05866l-.14-.08133v-.05867l-.14-.08133v-.05866l-.13866-.08v-.06l-.14-.08v-.06l-.14-.08v-.06l-.14-.08v-.06l-.14-.08v-.06l-.14-.08v-.06l-.14-.08v-.06l-.14-.08v-.06l-.14-.08v-.05867l-.14-.08133v-.05866l-.14-.08133v-.05866l-.14-.08133v-.05867l-.14-.08133v-.05866l-.14-.08133v-.05867l-.14-.08133v-.05866l-.14-.08133v-.05867l-.14-.08133v-.05866l-.14-.08133v-.05866l-.14-.08133v-.05867l-.14-.08133v-.05866l-.14-.08133v-.05867l-.14-.08133v-.05866l-.13866-.08v-.06l-.14-.08v-.06l-.14-.08v-.06l-.14-.08v-.06l-.14-.08v-.06l-.14-.08v-.06l-.14-.08v-.06l-.14-.08v-.05866l-.14-.08133v-.05867l-.14-.08133v-.05866l-.14-.08133v-.05867l-.14-.08133v-.05866l-.14-.08133v-.05867l-.14-.08132v-.05867l-.14-.08133v-.05866l-.14-.08133v-.05867l-.14-.08133v-.05866l-.14-.08133v-.05867l-.14-.08133v-.05866l-.14-.08133v-.05867l-.14-.08132v-.05867l-.13866-.08v-.06l-.14-.08v-.06l-.14-.08v-.06l-.14-.08v-.06052l-.14-.08v-.06l-.14-.08v-.06l-.14-.08v-.06l-.14-.08v-.06l-.14-.08v-.05866l-.14-.08133v-.05867l-.14-.08133v-.05866l-.14-.08133v-.05867l-.1396-.08138v-.05866l-.14-.08133v-.05867l-.14-.08133v-.05866l-.14-.08133v-.05867l-.14-.08132v-.05867l-.14-.08133v-.05866l-.14-.08133v-.05867l-.14-.08133v-.05866l-.14-.08133v-.05867l-.14-.08133v-.05866l-.13866-.08v-.06l-.14-.08v-.06l-.14-.08v-.06l-.14-.08v-.06l-.14-.08v-.06l-.14-.08v-.06l-.14-.08v-.06l-.14-.08v-.05866l-.14-.08133v-.05867l-.14-.08133v-.05866l-.14-.08133v-.05867l-.14-.08133v-.05866l-.14-.08133v-.05866l-.14-.08133v-.05867l-.14-.08133v-.05866l-.14-.08133v-.05867l-.14-.08133v-.05866l-.14-.08133v-.05867l-.14-.08133v-.05866l-.14-.08133v-.05866l-.14-.08133v-.05867l-.13866-.08v-.06l-.14-.08v-.06l-.14-.08v-.06l-.14-.08v-.06l-.14-.08v-.06l-.14-.08v-.06l-.14-.08v-.06l-.14-.08v-.05866l-.14-.08133v-.05866l-.14-.08133v-.05867l-.14-.08133v-.05866l-.14-.08133v-.05867l-.14-.08133v-.05866l-.14-.08133v-.05867l-.14-.08133v-.05866l-.14-.08133v-.05866l-.14-.08133v-.05867l-.14-.08133v-.05866l-.14-.08133v-.05867l-.14-.08133v-.05866l-.14-.08133v-.05867l-.13867-.08v-.06l-.14-.08v-.06l-.14-.08v-.06l-.14-.08v-.06l-.14-.08v-.06l-.14-.08v-.06l-.14-.08v-.05866l-.14-.08133v-.06l-.14-.08v-.05866l-.14-.08133v-.05867l-.14-.08133v-.05866l-.14-.08133v-.05867l-.14-.08132v-.05867l-.14-.08133v-.05866l-.14-.08133v-.05867l-.14-.08133v-.05866l-.14-.08133v-.05867l-.14-.08133v-.05866l-.14-.08133v-.05867l-.14-.08132v-.05867l-.14-.08133v-.05866l-.14-.08v-.06l-.13866-.08v-.06l-.14-.08v-.06l-.14-.08v-.06l-.14-.08v-.06l-.14-.08v-.06l-.14-.08v-.06l-.14-.08v-.06l-.14-.08v-.0583l-.14-.08133v-.05867l-.14-.08133v-.05867l-.14-.08133v-.05867l-.14-.08133v-.05867l-.14-.08133v-.05866l-.14-.08133v-.05867l-.14-.08132v-.05867l-.14-.08133v-.05866l-.14-.08133v-.05867l-.14-.08133v-.05866l-.14-.08133v-.05919l-.14-.08v-.06l-.14-.08133v-.05866l-.13866-.08v-.06l-.14-.08v-.06l-.14-.08v-.06l-.14-.08v-.06l-.14-.08v-.06l-.14-.08v-.06005l-.1396-.08v-.05866l-.14-.08133v-.06l-.14-.08v-.05866l-.14-.08133v-.05867l-.14-.08133v-.05866l-.14-.08133v-.05866l-.14-.08133v-.05867l-.14-.08133v-.05866l-.14-.08133v-.05867l-.14-.08133v-.05853l-.14-.08133v-.05867l-.14-.08133v-.05867l-.14-.08133v-.05867l-.14-.08133v-.05867l-.13866-.08v-.06l-.14-.08v-.06l-.14-.08v-.06l-.14-.08v-.06l-.14-.08v-.06l-.14-.08v-.06l-.14-.08v-.06l-.14-.08v-.06l-.14-.08v-.05866l-.14-.08133v-.05867l-.14-.08133v-.05866l-.14-.08133v-.05867l-.14-.08133v-.05866l-.14-.08133v-.05867l-.14-.08133v-.05866l-.14-.08133v-.05866l-.14-.08133v-.05867l-.14-.08133v-.05866l-.14-.08133v-.05867l-.14-.08133v-.05866l-.14-.08133v-.05867l-.13866-.08v-.06l-.14-.08133v-.05866l-.14-.08v-.06l-.14-.08v-.06l-.14-.08v-.06l-.14-.08v-.06l-.14-.08v-.06l-.14-.08v-.06l-.14-.08v-.05866l-.14-.08133v-.05867l-.14-.08133v-.05866l-.14-.08133v-.05867l-.14-.08132v-.05867l-.14-.08133v-.05866l-.14-.08133v-.05867l-.14-.08133v-.05866l-.14-.08133v-.05867l-.14-.08133v-.05866l-.14-.08133v-.05867l-.14-.08132v-.05867l-.14-.08133v-.05866l-.14-.08133v-.05867l-.13866-.08v-.06l-.14-.08v-.06l-.14-.08v-.06l-.14-.08v-.06l-.14-.08v-.06l-.14-.08v-.06l-.14-.08v-.06l-.14-.08v-.05867l-.14-.08133v-.05866l-.14-.08133v-.05867l-.14-.08133v-.05866l-.14-.08133v-.05867l-.14-.08133v-.05866l-.14-.08133v-.05867l-.14-.08133v-.05855l-.14-.08133v-.05866l-.14-.08133v-.05867l-.14-.08133v-.05866l-.14-.08133v-.05867l-.14-.08133v-.05866l-.14-.08133v-.05867l-.13866-.08v-.06l-.14-.08v-.06l-.14-.08v-.06l-.14-.08v-.06l-.14-.08v-.06l-.14-.08v-.06l-.14-.08v-.06l-.14-.08v-.05867l-.14-.08133v-.05866l-.14-.08133v-.05867l-.14-.08133v-.05866l-.14-.08133v-.05866l-.14-.08133v-.05867l-.14-.08133v-.05866l-.14-.08133v-.05919l-.14-.08133v-.05866l-.14-.08133v-.05866l-.14-.08133v-.05867l-.14-.08133v-.05866l-.14-.08133v-.05867l-.14-.08133v-.05866l-.13866-.08v-.06l-.14-.08v-.06l-.1396-.08v-.06l-.14-.08v-.06l-.14-.08v-.06l-.14-.08v-.06l-.14-.08v-.06l-.14-.08v-.06l-.14-.08v-.05862l-.14-.08133v-.05866l-.14-.08133v-.05867l-.14-.08133v-.05866l-.14-.08133v-.05867l-.14-.08133v-.05866l-.14-.08133v-.05866l-.14-.08133v-.05867l-.14-.08133v-.05866l-.14-.08133v-.05867l-.14-.08133v-.05866l-.14-.08133v-.05867l-.14-.08133v-.05866l-.14-.08133v-.05866l-.13866-.08v-.06l-.14-.08v-.06l-.14-.08v-.06l-.14-.08v-.06l-.14-.08v-.06l-.14-.08v-.06l-.14-.08v-.06l-.14-.08v-.05867l-.14-.08133v-.05866l-.14-.08133v-.05867l-.14-.08132v-.05867l-.14-.08133v-.05866l-.14-.08133v-.05867l-.14-.08133v-.05866l-.14-.08133v-.05867l-.14-.08133v-.05862l-.14-.08133v-.05867l-.14-.08132v-.05867l-.14-.08133v-.05866l-.14-.08133v-.05867l-.14-.08133v-.05866l-.13866-.08v-.06l-.14-.08v-.06l-.14-.08v-.06l-.14-.08v-.06l-.14-.08v-.06l-.14-.08v-.06l-.14-.08v-.06l-.14-.08v-.06l-.14-.08v-.05867l-.14-.08133v-.05866l-.14-.08133v-.05867l-32.12-18.54532-31.34533 38.08532-.016-.01867-.01734.00934-.12266-.14933-.01733.01067-.12266-.15067-.01734.01068-.12266-.15067-.016.01067-.12266-.15066-.01733.01067-.12266-.15067-.01734.01067-.12266-.15066-.01733.01067-.12266-.15067-.01734.01067-.12266-.15066-.01733.01067-.12266-.15067-.01733.01068-.12266-.15067-.01734.01067-.12266-.14933-.01733.00934-.12266-.14934-.01734.00934-.12266-.14933-.01733.00934-.12266-.14933-.01734.00933-.12266-.14933-.01733.00934-.12266-.14933-.01733.00934-.12266-.14934-.01734.00934-.12266-.14933-.01733.00934-.12266-.14934-.01734.00934-.12266-.14933-.01733.00934-.12266-.14933-.01734.00933-.12266-.14933-.01733.00934-.12266-.14933-.016.01067-.124-.15067-.016.01067-.124-.15066-.016.01067-.12266-.15067-.01733.01068-.12266-.15067-.01734.01067-.12266-.15066-.01733.01067-.12266-.15067-.01734.01067-.12266-.15066-.01733.01067-.12266-.15067-.01734.01067-.12266-.14933-.01733.00934-.12266-.14933-.01733.00934-.12266-.14934-.01734.00934-.12266-.14933-.01733.00934-.12266-.14934-.01734.00934-.12266-.14933-.01733.00934-.12266-.14933-.01734.00933-.12266-.14933-.01733.00934-.12266-.14933-.01733.00934-.12266-.14934-.01734.00934-.12266-.14933-.01733.00934-.12266-.14934-.01734.00934-.12266-.14933-.01733.01067-.12266-.15066-.01734.01067-.12266-.15067-.016.01067-.12266-.15066-.01733.01067-.12266-.15067-.01734.01067-.12266-.15066-.01733.01067-.12266-.15067-.01733.01067-.12266-.15066-.01734.01067-.12266-.15066-.01733.01067-.12266-.14934-.01734.00934-.12266-.14933-.01733.00934-.12266-.14933-.01734.00933-.12266-.14933-.01733.00934-.12266-.14933-.01733.00933-.12266-.14933-.01734.00934-.12266-.14933-.01733.00934-.12266-.14934-.01734.00934-.12266-.14933-.01733.00934-.12266-.14934-.01734.00934-.12266-.14933-.01733.00934-.12266-.14933-.01733.00933-.12266-.14933-.01734.01067-.12266-.15066-.01733.01067-.12266-.15067-.016.01067-.124-.15066-.016.01067-.12266-.15067-.01733.01068-.12266-.15067-.01734.01067-.12266-.15066-.01733.01067-.12266-.15067-.01734.01067-.12266-.15066-.01733.01067-.12266-.15067-.01733.01067-.12266-.14933-.01734.00934-.12266-.14933-.01733.00934-.12266-.14934-.01734.00934-.12266-.14933-.01733.00934-.12266-.14934-.01734.00934-.12266-.14933-.01733.00934-.12266-.14933-.01733.00933-.12266-.14933-.01734.00934-.12266-.14933-.01733.00934-.12266-.14934-.01734.00934-.12266-.14933-.01733.00934-.12266-.14934-.01734.00934-.12266-.14933-.016.01067-.124-.15066-.016.01067-.124-.15067-.016.01067-.12266-.15066-.01733.01067-.12266-.15067-.01733.01067-.12267-.15066-.01733.01067-.12266-.15067-.01733.01068-.12266-.15067-.01734.01067-.12266-.15066-.01733.01067-.12266-.14934-.01734.00934-.12266-.14933-.01733.00934-.12266-.14933-.01733.00933-.12267-.14933-.01733.00934-.12266-.14933-.01733.00934-.12266-.14934-.01734.00934-.12266-.14933-.01733.00934-.12266-.14934-.01734.00934-.12266-.14933-.01733.00934-.12266-.14933-.01733.00933-.12267-.14933-.01733.00934-.12266-.14933-.01733.00934-.12266-.14934-.01734.01067-.12266-.15066-.01733.01067-.12266-.15067-.016.01068-.12266-.15067-.01734.01067-.12266-.15066-.01733.01067-.12266-.15067-.01734.01067-.12266-.15066-.01733.01067-.12266-.15067-.01734.01067-.12266-.15066-.01733.01067-.12266-.15067-.01733.01067-.12266-.14933-.01734.00934-.12266-.14933-.01733.00934-.12266-.14934-.01734.00934-.12266-.14933-.01733.00934-.12266-.14933-.01734.00933-.12266-.14933-.01733.00934-.12266-.14933-.01733.00933-.12266-.14933-.01734.00934-.12266-.14933-.01733.00934-.12266-.14934-.01734.00934-.12266-.14933-.01733.00934-.12266-.14933-.01734.00933-.12266-.14933-.01733.01067-.12266-.15066-.016.01067-.124-.15067-.016.01067-.12266-.15066-.01733.01067-.12266-.15067-.01733.01067-.12266-.15066-.01734.01067-.12266-.15067-.01733.01068-.12266-.15067-.01734.01067-.12266-.15066-.01733.01067-.12266-.14934-.01734.00934-.12266-.14933-.01733.00934-.12266-.14933-.01733.00933-.12266-.14933-.01734.00934-.12266-.14933-.01733.00934-.12266-.14934-.01734.00934-.12266-.14933-.01733.00934-.12266-.14934-.01734.00934-.12266-.14933-.01733.00934-.12266-.14933-.01733.00933-.12266-.14933-.01734.00934-.12266-.14933-.01733.00934-.12266-.14934-.016.01067-.124-.15066-.016.01067-.124-.15067-.016.01068-.12266-.15067-.01734.01067-.12266-.15066-.01733.01067-.12266-.15067-.01734.01067-.12266-.15066-.01733.01067-.12266-.15067-.01733.01067-.12266-.15066-.01734.01067-.12266-.14933-.01733.00934-.12266-.14934-.01734.00934-.12266-.14933-.01733.00934-.12266-.14934-.01734.00934-.12266-.14933-.01733.00934-.12266-.14933-.01733.00933-.12266-.14933-.01734.00934-.12266-.14933-.01733.00934-.12266-.14934-.01734.00934-.12266-.14933-.01733.00934-.12266-.14934-.01734.00934-.12266-.14933-.01733.00934-.12266-.14933-.01733.01067-.12266-.15067-.01734.01067-.12266-.15066-.016.01067-.12266-.15067-.01733.01067-.12266-.15066-.01734.01067-.12266-.15067-.01733.01068-.12266-.15067-.01734.01067-.12266-.15066-.01733.01067-.12266-.14934-.01734.00934-.12266-.15066-.01733.01067-.12266-.14933-.01733.00933-.12266-.14933-.01734.00934-.12266-.14933-.01733.00933-.12266-.14933-.01734.00934-.12266-.14933-.01733.00934-.12266-.14934-.01734.00934-.12266-.14933-.01733.00934-.12266-.14933-.01733.00933-.12266-.14933-.01734.00934-.12266-.14933-.01733.00933-.12266-.14933-.01734.00934-.12266-.14933-.01733.00934-.12391-.14924-.016.01067-.124-.15066-.016.01067-.124-.15066-.016.01067-.12266-.15067-.01734.01067-.12266-.15066-.01733.01067-.12264-.1507-.01733.01067-.12267-.15067-.01733.01067-.12266-.15067-.01733.01067-.12266-.15067-.01734.01067-.12266-.14933-.01733.00934-.12266-.14934-.01734.00934-.12266-.14933-.01733.00934-.12266-.14934-.01733.00934-.12267-.14933-.01733.00934-.12266-.14933-.01733.00933-.12266-.14933-.01734.00934-.12266-.14933-.01733.00934-.12266-.14934-.01734.00934-.12266-.14933-.01733.00934-.12266-.14934-.01733.00934-.12267-.14933-.01733.00934-.12266-.14933-.016.01067-.124-.15067-.016.01067-.124-.15066-.016.01067-.12266-.15067-.01733.01067-.12266-.15066-.01734.01067-.12266-.15067-.01733.01068-.12266-.15067-.01734.01067-.12266-.15066-.01733.01067-.12266-.14934-.01734.00934-.12266-.14933-.01733.00934-.12266-.14933-.01733.00933-.12266-.14933-.01734.00934-.12266-.14933-.01733.00934-.12266-.14934-.01734.00934-.12266-.14933-.01733.00934-.12266-.14934-.01734.00934-.12266-.14933-.01733.00934-.12266-.14933-.01733.00933-.12266-.14933-.01734.00934-.12266-.14933-.01733.00934-.12266-.14934-.016.00934-.124-.14933-.016.01067-.124-.15067-.016.01068-.124-.15067-.016.01067-.12266-.15066-.01733.01067-.12266-.15067-.01734.01067-.12266-.15066-.01733.01067-.12266-.15067-.01733.01067-.12266-.15066-.01734.01067-.12266-.15067-.01733.01068-.12266-.14934-.01734.00934-.12266-.14933-.01733.00934-.12266-.14934-.01734.00934-.12266-.14933-.01733.00934-.12266-.14933-.01733.00933-.12266-.14933-.01734.00934-.12266-.14933-.01733.00934-.12266-.14934-.01734.00934-.12266-.14933-.01733.00934-.12266-.14934-.01734.00934-.12266-.14933-.01733.00934-.12266-.14933-.01733.01067-.12266-.15067-.01734.00934-.12266-.14933-.016.01067-.124-.15067-.016.01067-.124-.15066-.016.01067-.12266-.15067-.01733.01067-.12266-.15066-.01734.01067-.12266-.15066-.01733.01067-.12266-.15067-.01734.01067-.12266-.15066-.01733.01067-.12266-.14934-.01733.00934-.12266-.14933-.01734.00934-.12266-.14933-.01733.00933-.12266-.14933-.01734.00934-.12266-.14933-.01733.00934-.12266-.14934-.01734.00934-.12266-.14933-32.1146 18.54133v77.16483l.14.08133v.05867l.14.08133v.05867l.14.08133v.05867l.14.08133v.05867l.14.08133v.05867l.14.08133v.05867l.14.08133v.05867l.14.08133v.05866l.14.08134v.05866l.14.08v.06l.14.08v.06l.14.08v.06l.14.08v.06l.14.08v.06l.14.08v.06l.14.08v.06l.14.08v.06l.14.08v.05867l.14.08133v.05867l.14.08133v.05866l.14.08134v.05866l.13867.08134v.05866l.14.08134v.05866l.14.08134v.05866l.14.08134v.05866l.14.08134v.05866l.14.08134v.05866l.14.08134v.05866l.14.08133v.05867l.14.08133v.05867l.14.08v.06l.14.08133v.05867l.14.08v.06l.14.08v.06l.14.08v.06l.14.08v.06l.14.08v.06l.14.08v.05866l.14.08134v.05866l.14.08134v.05866l.14.08133v.05867l.14.08133v.05867l.13867.08133v.05867l.14.08133v.05867l.14.08133v.05867l.14.08133v.05867l.14.08133v.05867l.14.08133v.05867l.14.08133v.05866l.14.08134v.05866l.14.08v.06l.14.08134v.05866l.14.08v.06l.14.08v.06l.14.08v.06l.14.08v.06l.14.08v.06l.14.08v.06l.14.08v.0587l.14.08134v.06l.14.08v.05866l.14.08133v.05867l.14.08133v.05867l.14.08134v.05866l.13867.08134v.05866l.14.08134v.05866l.14.08134v.05866l.14.08134v.05866l.14.08134v.05866l.14.08133v.05867l.14.08133v.05867l.14.08134v.05866l.14.08134v.05866l.14.08v.06l.14.08v.06l.14.08v.06l.14.08v.06l.14.08v.06l.14.08v.06l.14.08v.06l.14.08v.05867l.14.08133v.05866l.14.08134v.05866l.14.08134v.05866l.14.08134v.05866l.13867.08134v.05866l.14.08134v.05866l.14.08134v.05866l.14.08134v.05866l.14.08133v.05867l.14.08133v.05867l.14.08133v.05867l.14.08133v.05867l.14.08v.06l.14.08133v.05867l.14.08v.06l.14.08v.06l.14.08v.06l.14.08v.06l.14.08v.06l.14.08v.06l.14.08v.05867l.14.08133v.05867l.14.08133v.05867l.14.08133v.05867l.14.08133v.05867l.13867.08133v.05867l.14.08133v.05867l.14.08133v.05867l.14.08133v.05866l.14.08134v.05866l.14.08134v.05866l.14.08134v.05866l.14.08134v.05866l.14.08134v.05866l.14.08v.06l.14.08v.06l.14.08v.06l.14.08v.06l.14.08v.06l.14.08v.06l.14.08v.06l.14.08v.06l.14.08v.05866l.14.08134v.05866l.14.08134v.05866l.14.08134v.05866l.14.08134v.05866l.13867.08134v.05866l.14.08133v.05867l.14.08133v.05867l.14.08133v.05867l.14.08133v.05867l.14.08133v.05867l.14.08133v.05867l.14.08133v.05867l.14.08133v.05867l.14.08v.06l.14.08v.06l.14.08v.06l.14.08v.06l.14.08v.06l.14.08v.06l.14.08v.06l.14.08v.05867l.14.08133v.05867l.14.08133v.05867l.14.08134v.05866l.14.08134v.05867l.13867.08133v.05867l.14.08133v.05867l.14.08133v.05867l.14.08134v.05866l.14.08134v.05867l.14.08133v.05867l.14.08133v.05867l.14.08133v.05867l.14.08v.06l.14.08v.06l.14.08v.06l.14.08v.06l.14.08v.06l.14.08v.06l.14.08v.06l.14.08v.06l.14.08v.05868l.14.08134v.05866l.14.08134v.05866l.14.08134v.05867l.14.08133v.05866l.13868.08134v.05867l.14.08133v.05866l.14.08134v.05867l.14.08133v.05866l.14.08134v.05867l.14.08133v.05866l.14.08134v.05867l.14.08133v.05866l.14.08v.06l.14.08v.06l.14.08v.06l.14.08v.06l.14.08v.06l.14.08v.06l.14.08v.06l.14.08v.06l.14.08v.06l.14.08v.05867l.14.08133v.05867l.14.08134v.05866l.14.08134v.05867l.14.08133v.05867l.13867.08133v.05867l.14.08133v.05867l.14.08134v.05866l.14.08134v.05866l.14.08134v.05867l.14.08133v.05867l.14.08133v.05867l.14.08134v.05866l.14.08134v.05866l.14.08v.06l.14.08v.06l.14.08v.06l.14.08v.06l.14.08v.06l.14.08v.06l.14.08v.06l.14.08v.05867l.14.08133v.05867l.14.08133v.05867l.14.08134v.05866l.14.08134v.05866l.13868.08134v.05867l.14.08133v.05867l.14.08133v.05867l.14.08133v.05867l.14.08134v.05866l.14.08134v.05867l.14.08133v.05867l.14.08133v.05867l.14.08v.06l.14.08v.06l.14.08v.06l.14.08v.06l.14.08v.06l.14.08v.06l.14.08v.06l.14.08v.06l.14.08v.05867l.14.08134v.05866l.14.08134v.05867l.14.08133v.05867l.14.08133v.05867l.13867.08133v.05867l.14.08134v.05866l.14.08134v.05867l.14.08133v.05867l.14.08133v.05867l.14.08133v.05867l.14.08134v.05866l.14.08134v.05867l.14.08133v.05867l.14.08133v.05867l.14.08v.06l.14.08v.06l.14.08v.06l.14.08v.06l.14.08v.06l.14.08v.06l.14.08v.06l.14.08v.05867l.14.08134v.05866l.14.08134v.05867l.14.08133v.05867l.14.08133v.05867l.13868.08133v.05867l.14.08134v.05866l.14.08134v.05866l.14.08134v.05867l.14.08133v.05867l.14.08133v.05867l.14.08134v.05866l.14.08134v.05866l.14.08134v.05867l.14.08v.06l.14.08v.06l.14.08v.06l.14.08v.06l.14.08v.06l.14.08v.06l.14.08v.06l.14.08v.05859l.14.08133v.05867l.14.08133v.05867l.14.08133v.05867l.14.08133v.05867l.13867.08133v.05867l.14.08133v.05867l.14.08133v.05867l.14.08133v.05867l.14.08133v.05867l.14.08133v.05867l.14.08133v.05867l.14.08133v.05867l.14.08v.06l.14.08v.06l.14.08v.06l.14.08v.06l.14.08v.06l.14.08v.06l.14.08v.06l.14.08v.06l.14.08v.05867l.14.08134v.05866l.14.08134v.05867l.14.08133v.05867l.13867.08133v.05866l.14.08134v.05866l.14.08134v.05866l.14.08134v.05866l.14.08134v.05866l.14.08134v.05866l.14.08133v.05867l.14.08133v.05867l.14.08133v.05867l.14.08133v.05867l.14.08133v.05867l.14.08v.06l.14.08v.06l.14.08v.06l.14.08v.06l.14.08v.06l.14.08v.06l.14.08v.06l.14.08v.05867l.14.08133v.05867l.14.08133v.05867l.14.08133v.05867l.14.08133v.05867l.13867.08133v.05867l.14.08133v.05867l.14.08133v.05867l.14.08133v.05866l.14.08134v.05866l.14.08134v.05866l.14.08134v.05866l.14.08134v.05866l.14.08134v.05866l.14.08v.06l.14.08v.06l.14.08v.06l.14.08v.06l.14.08v.06l.14.08v.06l.14.08v.06l.14.08v.05866l.14.08134v.05866l.14.08134v.05866l.14.08134v.05866l.13867.08133v.05867l.14.08133v.05867l.14.08133v.05867l.14.08133v.05867l.14.08133v.05867l.14.08133v.05867l.14.08133v.05867l.14.08133v.05867l.14.08133v.05867l.14.08v.06l.14.08v.06l.14.08v.06l.14.08v.06l.14.08v.06l.14.08v.06l.14.08v.06l.14.08v.06l.14.08v.05866l.14.08134v.05866l.14.08134v.05866l.14.08134v.05866l.13867.08134v.05866l.14.08134v.05866l.14.08134v.05866l.14.08134v.05866l.14.08134v.05866l.14.08134v.05866l.14.08134v.05866l.14.08134v.05866l.14.08134v.05866l.14.08134v.05866l.14.08134v.05866l.14.08v.06l.14.08v.06l.14.08v.06l.14.08v.06l.14.08v.06l.14.08v.06l.14.08v.06l.14.08v.05867l.14.08133v.05867l.14.08133v.05867l.13918.08133v.05867l.14.08133v.05867l.14.08133v.05867l.14.08133v.05867l.14.08133v.05867l.14.08133v.05867l.14.08133v.05867l.14.08133v.05867l.14.08133v.05867l.14.08133v.05867l.14.08133v.05867l.14.08v.06l.14.08v.06l.14.08v.06l.14007.08v.06l.14.08v.06l.14.08v.06l.14.08v.05867l.14.08133v.05867l.14.08133v.05867l.14.08133v.05867l.14.08133v.05867l.13868.08133v.05867l.14.08133v.05867l.14.08133v.05867l.14.08133v.05867l.14.08133v.05867l.14.08133v.05867l.14.08133v.05867l.14.08133v.05867l.14.08133v.05867l.14.08v.06l.14.08v.06l.14.08v.06l.14.08v.06l.14.08v.06l.14.08v.06l.14.08v.06l.14.08v.06l.14.08v.06l.14.08v.05866l.14.08134v.05866l.14.08134v.05866l.13867.08134v.05866l.14.08134v.05866l.14.08134v.05866l.14.08134v.05866l.14.08134v.05866l.14.08134v.05866l.14.08134v.05866l.14.08134v.05866l.14.08134v.05866l.14.08v.06l.14.08134v.05866l.14.08v.06l.14.08v.06l.14.08v.06l.14.08v.06l.14.08v.06l.14.08v.06l.14.08v.05867l.14.08133v.05867l.14.08133v.05867l.14.08133v.05867l.13867.08133v.05867l.14.08133v.05867l.14.08133v.05867l.14.08133v.05867l.14.08133v.05867l.14.08133v.05867l.14.08133v.05867l.14.08133v.05867l.14.08133v.05867l.14.08133v.05867l.14.08v.06l.14.08v.06l.14.08v.06l.14.08v.06l.14.08v.06l.14.08v.06l.14.08v.06l.14.08v.06l.14.08v.05866l.14.08134v.05866l.14.08134v.05866l.14.08134v.05866l.13867.08134v.05866l.14.08134v.05866l.14.08134v.05866l.14.08134v.05866l.14.08134v.05866l.14.08134v.05866l.14.08134v.05866l.14.08134v.05866l.14.08134v.05866l.14.08v.06l.14.08v.06l.14.08v.06l.14.08v.06l.14.08v.06l.14.08v.06l.14.08v.06l.14.08v.05867l.14.08133v.05867l.14.08133v.05867l.14.08133v.05867l.14.08133v.05867l.13867.08133v.05867l.14.08133v.05867l.14.08133v.05867l.14.08133v.05867l.14.08133v.05867l.14.08133v.05867l.14.08133v.05867l.14.08133v.05867l.14.08v.06l.14.08133v.05867l.14.08v.06l.14.08v.06l.14.08v.06l.14.08v.06l.14.08v.06l.14.08v.06l.14.08v.05867l.14.08133v.05867l.14.08133v.05867l.14.08133v.05867l.14.08133v.05867l.13867.08133v.05867l.14.08133v.05867l.14.08133v.05867l.14.08133v.05867l.14.08133v.05867l.14.08133v.05867l.14.08133v.05867l.14.08133v.05867l.14.08133v.05867l.14.08133v.05867l.14.08v.06l.14.08v.06l.14.08v.06l.14.08v.06l.14.08v.06l.14.08v.06l.14.08v.06l.14.08v.05867l.14.08133v.05867l.14.08133v.05866l.14.08134v.05866l.14.08134v.05866l.13867.08134v.05866l.14.08134v.05866l.14.08134v.05866l.14.08133v.05867l.14.08133v.05867l.14.08133v.05867l.14.08133v.05867l.14.08133v.05867l.14.08133v.05867l.14.08v.06l.14.08v.06l.14.08v.06l.14.08v.06l.14.08v.06l.14.08v.06l.14.08v.06l.14.08v.05867l.14.08133v.05867l.14.08133v.05867l.14.08133v.05867l.14.08133v.05867l.13867.08133v.05867l.14.08133v.05867l.14.08133v.05866l.14.08134v.05866l.14.08134v.05866l.14.08134v.05866l.14.08134v.05866l.14.08134v.05866l.14.08v.06l.14.08v.06l.14.08v.06l.14.08v.06l.14.08v.06l.14.08v.06l.14.08v.06l.14.08v.06l.14.08v.05866l.14.08134v.05866l.14.08134v.05866l.14.08134v.05866l.14.08134v.05866l.14.08133v.05867l.13867.08133v.05867l.14.08133v.05867l.14.08133v.05867l.14.08133v.05867l.14.08133v.05867l.14.08133v.05867l.14.08133v.05867l.14.08133v.05867l.14.08133v.05867l.14.08v.06l.14.08v.06l.14.08v.06l.14.08v.06l.14.08v.06l.14.08v.06l.14.08v.06l.14.08v.05867l.14.08133v.05867l.14.08133v.05867l.14.08133v.05866l.14.08134v.05866l.13867.08134v.05866l.14.08134v.05866l.14.08134v.05866l.14.08134v.05866l.14.08133v.05867l.14.08134v.05866l.14.08134v.05866l.14.08134v.05867l.14.08v.06l.14.08v.06l.14.08v.06l.14.08v.06l.14.08v.06l.14.08v.06l.14.08v.06l.14.08v.06l.14.08v.05867l.14.08133v.05867l.14.08134v.05866l.14.08134v.05866l.14.08134v.05867l.13868.08133v.05867l.14.08133v.05867l.14.08133v.05867l.14.08134v.05866l.14.08134v.05867l.14.08133v.05867l.14.08133v.05867l.14.08133v.05867l.14.08v.06l.14.08v.06l.14.08v.06l.14.08v.06l.14.08v.06l.14.08v.06l.14.08v.06l.14.08v.06l.14.08v.06l.14.08v.05866l.14.08134v.05866l.14.08134v.05867l.14.08133v.05867l.14.08133v.05867l.13867.08134v.05866l.14.08134v.05866l.14.08134v.05867l.14.08133v.05867l.14.08133v.05867l.14.08133v.05867l.14.08134v.05866l.14.08134v.05867l.14.08133v.05867l.14.08v.06l.14.08v.06l.14.08v.06l.14.08v.06l.14.08v.06l.14.08v.06l.14.08v.06l.14.08v.05867l.14.08133v.05867l.14.08134v.05866l.14.08134v.05867l.14.08133v.05867l.13868.08133v.05867l.14.08133v.05867l.14.08134v.05866l.14.08134v.05867l.14.08133v.05867l.14.08133v.05867l.14.08133v.05867l.14.08134v.05866l.14.08v.06l.14.08v.06l.14.08v.06l.14.08v.06l.14.08v.06l.14.08v.06l.14.08v.06l.14.08v.06l.14.08v.05867l.14.08133v.05867l.14.08133v.05867l.14.08133v.05867l.14.08134v.05866l.13867.08134v.05867l.14.08133v.05867l.14.08133v.05867l.14.08133v.05867l.14.08134v.05866l.14.08134v.05866l.14.08134v.05867l.14.08133v.05867l.14.08v.06l.14.08v.06l.14.08v.06l.14.08v.06l.14.08v.06l.14.08v.06l.14.08v.06l.14.08v.06l.14.08v.06l.14.08v.05867l.14.08133v.05867l.14.08134v.05866l.14.08134v.05867l.14.08133v.05867l.13868.08133v.05867l.14.08133v.05867l.14.08134v.05866l.14.08134v.05867l.14.08133v.05867l.14.08133v.05867l.14.08133v.05867l.14.08134v.05857l.14.08133v.05867l.14.08v.06l.14.08v.06l.14.08v.06l.14.08v.06l.14.08v.06l.14.08v.06l.14.08v.06l.14.08v.05867l.14.08133v.05867l.14.08134v.05866l.14.08134v.05867l.14.08133v.05867l.13867.08133v.05867l.14.08133v.05867l.14.08134v.05866l.14.08134v.05867l.14.08133v.05867l.14.08133v.05867l.14.08133v.05867l.14.08134v.05866l.14.08v.06l.14.08v.06l.14.08v.06l.14.08v.06l.14.08v.06l.14.08v.06l.14.08v.06l.14.08v.06l.14.08v.05867l.14.08133v.05867l.14.08133v.05867l.14.08133v.05867l.13866.08134v.05866l.14.08134v.05867l.14.08133v.05867l.14.08133v.05867l.14.08133v.05867l.14.08134v.05866l.14.08134v.05866l.14.08134v.05867l.14.08133v.05867l.14.08133v.05867l.14.08133v.05867l.14.08v.06l.14.08v.06l.14.08v.06l.14.08v.06l.14.08v.06l.14.08v.06l.14.08v.06l.14.08v.05866l.14.08134v.05866l.14.08134v.05866l.13866.08134v.05866l.14.08133v.05867l.14.08133v.05867l.14.08133v.05867l.14.08133v.05867l.14.08133v.05867l.14.08133v.05867l.14.08133v.05867l.14.08133v.05867l.14.08133v.05866l.14.08134v.05866l.14.08v.06l.14.08v.06l.14.08v.06l.14.08v.06l.14.08v.06l.14.08v.06l.14.08v.06l.14.08v.05867l.14.08133v.05867l.14.08133v.05867l.14.08133v.05866l.13866.08134v.05866l.14.08134v.05866l.14.08134v.05866l.14.08134v.05866l.14.08134v.05866l.14.08134v.05866l.14.08134v.05866l.14.08133v.05867l.14.08133v.05867l.14.08v.06l.14.08v.06l.14.08v.06l.14.08v.06l.14.08v.06l.14.08v.06l.14.08v.06l.14.08v.06l.14.08v.05866l.14.08134v.05866l.14.08133v.05867l.14.08133v.05867l.13867.08133v.05867l.14.08133v.05867l.14.08133v.05867l.14.08133v.05866l.14.08133v.05867l.14.08133v.05867l.14.08133v.05866l.14.08134v.05866l.14.08134v.05866l.14.08134v.05866l.14.08134v.05866l.14.08v.06l.14.08v.06l.14.08v.06l.14.08v.06l.14.08v.06l.14.08v.06l.14.08v.06l.14.08v.05866l.14.08134v.05866l.14.08134v.05866l.13867.08134v.05866l.14.08134v.05866l.14.08134v.05866l.14.08134v.05866l.14.08134v.05866l.14.08133v.05867l.14.08133v.05867l.14.08133v.05867l.14.08133v.05867l.14.08133v.05867l.14.08133v.05867l.14.08v.06l.14.08v.06l.14.08v.06l.14.08v.06l.14.08v.06l.14.08v.06l.14.08v.05867l.14.08133v.05867l.14.08133v.05867l.14.08133v.05867l.14.08133v.05867l.13866.08133v.05867l.14.08133v.05867l.14.08133v.05867l.14.08133v.05866l.14.08134v.05866l.14.08134v.05866l.14.08134v.05866l.14.08134v.05866l.14.08134v.05866l.14.08v.06l.14.08v.06l.14.08v.06l.14.08v.06l.14.08v.06l.14.08v.06l.14.08v.06l.14.08v.06l.14.08v.05866l.14.08134v.05866l.14.08134v.05866l.14.08134v.05866l.13866.08134v.05866l.14.08134v.05866l.14.08133v.05867l.14.08133v.05867l.14.08133v.05867l.14.08133v.05867l.14.08133v.05867l.14.08133v.05867l.14.08133v.05867l.14.08v.06l.14.08v.06l.14.08v.06l.14.08v.06l.14.08v.06l.14.08v.06l.14.08v.06l.14.08v.06l.14.08v.05867l.14.08133v.05867l.14.08133v.05867l.14.08133v.05867l.13866.08133v.05867l.14.08133v.05866l.14.08134v.05866l.14.08134v.05866l.14.08134v.05866l.14.08134v.05866l.14.08134v.05866l.14.08134v.05866l.14.08134v.05866l.14.08133v.05867l.14.08133v.05867l.14.08v.06l.14.08v.06l.14.08v.06l.14.08v.06l.14.08v.06l.14.08v.06l.14.08v.05866l.14.08134v.05866l.14.08134v.05872l.14.08134v.05866l.14.08134v.05866l.13866.08134v.05866l.14.08133v.05867l.14.08133v.05867l.14.08133v.05867l.14.08133v.05867l.14.08133v.05867l.14.08133v.05867l.14.08133v.05867l.14.08133v.05867l.14.08v.06l.14.08v.06l.14.08v.06l.14.08v.06l.14.08v.06l.14.08v.06l.14.08v.06l.14.08v.05867l.14.08133v.05867l.14.08133v.05867l.14.08133v.05867l.14.08133v.05867l.13866.08133v.05866l.14.08134v.05866l.14.08134v.05866l.14.08134v.05866l.14.08134v.05866l.14.08134v.05866l.14.08134v.05866l.14.08134v.05866l.14.08v.06l.14.08v.06l.14.08v.06l.14.08v.06l.14.08v.06l.14.08v.06l.14.08v.06l.14.08v.06l.14.08v.05866l.14.08134v.05866l.14.08134v.05866l.14.08134v.05866l.14.08133v.05867l.13866.08133v.05867l.14.08133v.05867l.14.08133v.05867l.14.08133v.05867l.14.08133v.05867l.14.08133v.05867l.14.08133v.05867l.14.08133v.05866l.14.08134v.05866l.14.08134v.05866l.14.08v.06l.14.08v.06l.14.08v.06l.14.08v.06l.14.08v.06l.14.08v.06l.14.08v.06l.14.08v.05867l.14.08133v.05867l.14.08133v.05866l.14.08134v.05866l.14.08134v.05866l.13866.08134v.05866l.14.08134v.05866l.14.08134v.05866l.14.08134v.05866l.14.08134v.05866l.14.08133v.05867l.14.08133v.05867l.14.08133v.05867l.14.08133v.05867l.14.08v.06l.14.08v.06l.14.08v.06l.14.08v.06l.14.08v.06l.14.08v.06l.14.08v.06l.14.08v.05866l.14.08133v.05867l.14.08133v.05867l.14.08133v.05867l.14.08133v.05867l.13866.08133v.05867l32.48666 18.756v-59.32543h.016l.11333.14h.02533l.11467.14h.02533l.11466.14h.02533l.11467.14h.02533l.11466.14h.02533l.11467.14h.02532l.11467.14h.02533l.11333.14h.02666l.11334.14h.02666l.11333.14h.02666l.11333.14h.02667l.11333.14h.02666l.11333.14h.02666l.11334.14h.02666l.11333.14h.02666l.11334.14h.02666l.11333.14h.02666l.11333.14h.02667l.11333.14h.02666l.11333.13867h.02666l.11334.14h.02666l.11333.14h.02533l.11467.14h.02533l.11466.14h.02533l.11466.14h.02533l.11467.14h.02533l.11466.14h.02533l.11467.14h.02533l.11333.14h.02666l.11333.14h.02667l.11333.14h.02666l.11333.14h.02666l.11334.14h.02666l.11333.14h.02666l.11333.14h.02667l.11333.14h.02666l.11333.14h.02667l.11333.14h.02666l.11333.14h.02666l.11334.14h.02666l.11333.13866h.02666l.11333.14h.02667l.11333.14h.02533l.11466.14h.02533l.11467.14h.02533l.11466.14h.02533l.11467.14h.02533l.11466.14h.02533l.11466.14h.02533l.11467.14h.02533l.11333.14h.02666l.11334.14h.02666l.11333.14h.02666l.11333.14h.02667l.11333.14h.02666l.11333.14h.02666l.11334.14h.02666l.11333.14h.02666l.11334.14h.02666l.11333.14h.02666l.11333.14h.02667l.11333.13867h.02666l.11333.14h.02666l.11334.14h.02666l.11333.14h.02533l.11467.14h.02532l.11467.14h.02533l.11466.14h.02533l.11467.14h.02533l.11466.14h.02533l.11467.14h.02533l.11333.14h.02666l.11333.14h.02666l.11334.14h.02666l.11333.14h.02666l.11334.14h.02666l.11333.14h.02666l.11333.14h.02667l.11333.14h.02666l.11333.14h.02666l.11334.14h.02666l.11333.14h.02666l.11334.14h.02666l.11333.13867h.02666l.11333.14h.02667l.11333.14h.02533l.11466.14h.02533l.11467.14h.02533l.11466.14h.02533l.11467.14h.02533l.11466.14h.02533l.11466.14h.02533l.11334.14h.02666l.11333.14h.02666l.11333.14h.02667l.11333.14h.02666l.11333.14h.02667l.11333.14h.02666l.11333.14h.02666l.11334.14h.02666l.11333.14h.02666l.11333.14h.02667l.11333.14h.02666l.11333.14h.02667l.11333.13867h.02666l.11333.14h.02666l.11334.14h.02533l.11466.14h.02533l.11466.14h.02533l.11467.14h.02533l.11466.14h.02533l.11467.14h.02533l.11466.14h.02534l.11466.14h.02534l.11333.14h.02667l.11333.14h.02666l.11334.14h.02666l.11334.14h.02666l.11334.14h.02666l.11333.14h.02667l.11333.14h.02667l.11333.14h.02667l.11333.14h.02667l.11333.14h.02667l.11333.14h.02667l.11333.13867h.02667l.11333.14h.02667l.11333.14h.02667l.11333.14h.02533l.11467.14h.02533l.11467.14h.02533l.11467.14h.02533l.11467.14h.02533l.11467.14h.02533l.11467.14h.02533l.11333.14h.02667l.11333.14h.02667l.11333.14h.02667l.11333.14h.02667l.11333.14h.02667l.11333.14h.02667l.11333.14h.02667l.11333.14h.02667l.11333.14h.02666l.11334.14h.02666l.11334.14h.02666l.11334.14h.02666l.11333.13866h.02667l.11333.14h.02667l.11333.14h.02534l.11466.14h.02534l.11466.14h.02534l.11466.14h.02534l.11466.14h.02534l.11466.14h.02534l.11466.14h.02533l.11334.14h.02666l.11334.14h.02666l.11334.14h.02666l.11333.14h.02667l.11333.14h.02667l.11333.14h.02667l.11333.14h.02667l.11333.14h.02667l.11333.14h.02667l.11333.14h.02667l.11333.14h.02667l.11333.14h.02667l.11333.13867h.02667l.11333.14h.02533l.11467.14h.02533l.11467.14h.02533l.11467.14h.02533l.11467.14h.02533l.11467.14h.02533l.11467.14h.02533l.11466.14h.02534l.11466.14h.02534l.11333.14h.02667l.11333.14h.02667l.11333.14h.02667l.11333.14h.02667l.11333.14h.02667l.11333.14h.02666l.11334.14h.02666l.11334.14h.02666l.11334.14h.02666l.11334.14h.02666l.11333.14h.02667l.11333.13866h.02667l.11333.14h.02534l.11466.14h.02534l.11466.14h.02534l.11466.14h.02534l.11466.14h.02534l.11466.14h.02533l.11467.14h.02533l.11467.14h.02533l.11467.14h.02533l.11334.14h.02666l.11333.14h.02667l.11333.14h.02667l.11333.14h.02667l.11333.14h.02667l.11333.14h.02667l.11333.14h.02667l.11333.14h.02667l.11333.14h.02667l.11333.14h.02667l.11333.13867h.02667l.11333.14h.02667l.11333.14h.02666l.11334.14h.02533l.11467.14h.02533l.11467.14h.02533l.11467.14h.02533l.11466.14h.02534l.11466.14h.02534l.11466.14h.02534l.11466.14h.02534l.11333.14h.02667l.11333.14h.02667l.11333.14h.02667l.11333.14h.02666l.11334.14h.02666l.11334.14h.02666l.11334.14h.02666l.11334.14h.02666l.11333.14h.02667l.11333.14h.02667l.11333.14h.02667l.11333.14h2.83334l2.28133-2.81466v.18133l.14-.08v.22l.14-.08v.22l.14-.08v.22l.14-.08v.22l.14-.08v.22l.14-.08133v.22133l.13867-.08v.22l.14-.08134v.22134l.14-.08134v.22134l.14-.08134v.22134l.14-.08134v.22134l.14-.08134v.22134l.14-.08134v.22134l.14-.08134v.22133l.14-.08133v.22133l.14-.08133v.22133l.14-.08133v.22133l.14-.08133v.22133l.14-.08133v.22l.14-.08v.22l.14-.08v.22l.14-.08v.22l.14-.08v.22l.14-.08v.22l.14-.08v.22l.14-.08v.22l.14-.08v.22l.13866-.08v.22l.14-.08133v.22133l.14-.08133v.22133l.14-.08133v.22133l.14-.08133v.22133l.14-.08133v.22133l.14-.08133v.22133l.14-.08133v.22133l.14-.08134v.22134l.14-.08134v.22134l.14-.08134v.22134l.14-.08134v.22134l.14-.08134v.22l.14-.08v.22l.14-.08v.22l.14-.08v.22l.14-.08v.22l.14-.08v.22l.14-.08v.22l.14-.08v.22l.14-.08v.22l.13867-.08v.22l.14-.08134v.22134l.14-.08134v.22134l.14-.08134v.22134l.14-.08134v.22134l.14-.08134v.22133l.14-.08133v.22133l.14-.08133v.22133l.14-.08133v.22133l.14-.08133v.22133l.14-.08133v.22133l.14-.08133v.22133l.14-.08133v.22133l.14-.08133v.22l.14-.08v.22l.14-.08v.22l.14-.08v.22l.14-.08v.22l.14-.08v.22l.14-.08v.22l.14-.08v.22l.14-.08133v.22133l.13866-.08v.22l.14-.08133v.22133l.14-.08133v.22133l.14-.08133v.22133l.14-.08133v.22133l.14-.08134v.22134l.14-.08134v.22134l.14-.08134v.22134l.14-.08134v.22134l.14-.08134v.22134l.14-.08134v.22134l.14-.08134v.22133l.14-.08133v.22l.14-.08v.22023l.14-.08v.22l.14-.08v.22l.14-.08v.22l.14-.08v.22l.14-.08v.22l.14-.08v.22l.14-.08v.22l.13867-.08v.22l.14-.08133v.22133l.14-.08134v.22134l.14-.08134v.22134l.14-.08134v.22134l.14-.08134v.22134l.14-.08134v.22134l.14-.08134v.22134l.14-.08134v.22133l.14-.08133v.22133l.14-.08133v.22133l.14-.08133v.22133l.14-.08133v.22l.14-.08v.22l.14-.08v.22l.14-.08v.22l.14-.08v.22l.14-.08v.22l.14-.08v.22l.14-.08v.22l.14-.08v.22l.13867-.08v.22l.14-.08133v.22133l.14-.08133v.22133l.14-.08133v.22133l.14-.08133v.22133l.14-.08133v.22133l.14-.08133v.22133l.14-.08133v.22133l.14-.08133v.22133l.14-.08134v.22134l.14-.08134v.22134l.14-.08134v.22134l.14-.08134v.22134l.14-.08134v.22l.14-.08v.22l.14-.08v.22l.14-.08v.22l.14-.08v.22l.14-.08v.22l.14-.08v.22l.14-.08v.22l.14-.08134v.22134l.13867-.08v.22l.14-.08134v.22133l.14-.08133v.22134l.14-.08133v.22133l.14-.08133v.22134l.14-.08133v.22133l.14-.08133v.22133l.14-.08132v.22133l.14-.08133v.22133l.14-.08133v.22134l.14-.08133v.22133l.14-.08133v.22134l.14-.08133v.22l.14-.08v.22l.14-.08v.22l.14-.08v.22l.14-.08v.22l.14-.08v.22l.14-.08v.22l.14-.08v.22l.14-.08v.22l.13867-.08v.22l.14-.08133v.22133l.14-.08133v.22134l.14-.08133v.22133l.14-.08133v.22134l.14-.08133v.22133l.14-.08133v.22134l.14-.08133v.22133l.14-.08133v.22133l.14-.08132v.22133l.14-.08133v.22133l.14-.08133v.22134l.14-.08133v.22l.14-.08v.22l.14-.08v.22l.14-.08v.22l.14-.08v.22l.14-.08v.22l.14-.08v.22l.14-.08v.22l.14-.08v.22l.13866-.08v.22l.14-.08133v.22133l.14-.08132v.22133l.14-.08133v.22133l.14-.08133v.22134l.14-.08133v.22133l.14-.08133v.22134l.14-.08133v.22133l.14-.08133v.22134l.14-.08133v.22133l.14-.08133v.22133l.14-.08132v.22133l.14-.08133v.22133l.14-.08133v.22l.14-.08v.22l.14-.08v.22l.14-.08v.22l.14-.08v.22l.14-.08v.22l.14-.08v.22l.14-.08v.22l.14-.08133v.22133l.13867-.08v.22l.14-.08133v.22133l.14-.08133v.22133l.14-.08132v.22133l.14-.08133v.22133l.14-.08133v.22134l.14-.08133v.22106l.14-.08133v.22133l.14-.08133v.22134l.14-.08133v.22133l.14-.08133v.22134l.14-.08133v.22133l.14-.08133v.22l.14-.08v.22l.14-.08v.22l.14-.08v.22l.14-.08v.22l33.516-19.35067V226.3026z"/></g></g></g></g></g></g><g id="g48"><g id="g50"><g id="g56"><path id="path58" fill="#fff" d="M122.60226 155.28857h2.83333l32.368-39.924v67.37866l33.516-19.35066v-77.168l-32.12-18.544-34.79467 42.27467-34.62933-42.272-32.11466 18.54133v77.168l32.48666 18.756v-66.784z"/></g><g id="g60"><path id="path62" d="M744.18355 258.89456v18.19066h8.38533q5.644 0 8.58-2.38666a9.12889 9.12889 0 0 0 .06533-13.35333q-2.874-2.45-8.22533-2.45067zm-3.484-2.90267h12.41867q7.126 0 10.91733 3.19334a10.78332 10.78332 0 0 1 3.78933 8.708 11.0119 11.0119 0 0 1-3.82133 8.83733q-3.822 3.258-11.20934 3.25867h-8.61066v21.06h-3.484z" class="cls-8"/></g><g id="g64"><path id="path66" d="M783.20405 258.89456v17.64267h7.48267q5.708 0 8.72533-2.30667a8.48348 8.48348 0 0 0-.04933-13.01467q-3.064-2.322-8.804-2.32133zm-3.484-2.90267h11.548q7.256 0 11.09467 3.144a10.41021 10.41021 0 0 1 3.83733 8.49867q0 7.806-8.57866 10.96667 2.226 1.064 5.99866 6.87066l10.192 15.57734h-4.12266l-7.84933-12.348q-3.932-6.196-6.12534-7.728a11.17889 11.17889 0 0 0-6.416-1.53334h-6.09467v21.60934h-3.484z" class="cls-8"/></g><g id="g68"><path id="path70" d="M843.93314 298.40562a19.3677 19.3677 0 0 0 14.208-5.75866 20.12841 20.12841 0 0 0 0-28.252 19.36771 19.36771 0 0 0-14.208-5.75867 19.62014 19.62014 0 0 0-14.304 5.75867 19.972 19.972 0 0 0 0 28.252 19.62013 19.62013 0 0 0 14.304 5.75866m-.12934-42.99462a23.46012 23.46012 0 0 1 16.94934 6.72534 22.7839 22.7839 0 0 1 0 32.76933 24.63842 24.63842 0 0 1-33.83334 0 22.86027 22.86027 0 0 1 0-32.76933 23.31122 23.31122 0 0 1 16.884-6.72534" class="cls-8"/></g><g id="g72"><path id="path74" d="M885.213 255.99189v45.05866q0 7.45-2.80667 10.28933a9.03648 9.03648 0 0 1-6.64533 2.83734 19.95531 19.95531 0 0 1-2.09467-.12934l-.324-3.28933a9.12389 9.12389 0 0 0 2.06534.25867q6.32 0 6.32133-9.032v-45.99333z" class="cls-8"/></g><g id="g76"><path id="path78" d="M925.20071 255.99189v2.90267h-21.09333v18.02933h20.54533v2.936h-20.54533v18.28666H925.718v2.904h-25.09329v-45.05866z" class="cls-8"/></g><g id="g80"><path id="path82" d="M975.73757 259.185v3.80534a34.08588 34.08588 0 0 0-16.06266-4.35467 18.93505 18.93505 0 0 0-14.03067 5.71067 19.45808 19.45808 0 0 0-5.644 14.25466 19.09635 19.09635 0 0 0 5.676 14.224 19.80016 19.80016 0 0 0 14.48133 5.58q7.356 0 16.032-4.612v3.612a33.92473 33.92473 0 0 1-15.96533 4.22534 23.72989 23.72989 0 0 1-17.14267-6.596 23.091 23.091 0 0 1 .144-32.97866 23.38485 23.38485 0 0 1 16.676-6.644 37.91105 37.91105 0 0 1 15.836 3.77333" class="cls-8"/></g><g id="g84"><path id="path86" d="M1020.56488 255.99189v2.90267h-16.90133v42.156h-3.51467v-42.156h-16.90133v-2.90267z" class="cls-8"/></g><g id="g88"><path id="path90" d="M310.81 106.30631a31.93636 31.93636 0 0 0 23.42133-9.49066 31.5489 31.5489 0 0 0 9.544-23.26267 31.60829 31.60829 0 0 0-9.544-23.31467A31.93113 31.93113 0 0 0 310.81 40.74765a32.35058 32.35058 0 0 0-23.58133 9.49067A31.42817 31.42817 0 0 0 277.578 73.553a31.36959 31.36959 0 0 0 9.65067 23.26267 32.3559 32.3559 0 0 0 23.58133 9.49064m-.21333-70.876A38.68464 38.68464 0 0 1 338.538 46.51565 36.19253 36.19253 0 0 1 349.99531 73.553a36.12861 36.12861 0 0 1-11.45731 26.984 40.61875 40.61875 0 0 1-55.776 0 36.21316 36.21316 0 0 1-11.40533-26.984A36.27739 36.27739 0 0 1 282.762 46.51565a38.4379 38.4379 0 0 1 27.83467-11.08534" class="cls-8"/></g><g id="g92"><path id="path94" d="M369.72223 41.17257v29.988h13.824q9.304 0 14.144-3.93466 4.838-3.934 4.83733-11.112a13.59487 13.59487 0 0 0-4.732-10.9q-4.732-4.04-13.55733-4.04133zm-5.74267-4.78534h20.47067q11.75 0 17.99733 5.264 6.248 5.264 6.248 14.356 0 9.198-6.3 14.568-6.3 5.372-18.476 5.37067h-14.19733v34.72h-5.74267z" class="cls-8"/></g><g id="g96"><path id="path98" d="M460.21758 36.387v4.7853h-34.77333V70.895h33.86933v4.83867h-33.86933v30.14666h35.624v4.78534h-41.36666V36.387z" class="cls-8"/></g><g id="g100"><path id="path102" d="M539.81344 36.387v74.27867h-4.72533l-56.47333-64.92v64.92h-5.74266V36.387h4.86533l56.33466 64.92134V36.387z" class="cls-8"/></g><g id="g104"><path id="path106" d="M360.78969 225.31672h-22.22533v-42.696l-20.04533 24.724h-1.75466l-20.09734-24.724v42.696H275.079v-73.69333h20.152l22.65066 27.648 22.756-27.648h20.152z" class="cls-9"/></g><g id="g108"><path id="path110" d="M426.45424 197.56245l-10.79333-26.904-10.9 26.904zm33.86933 27.75467h-22.756l-6.00933-14.94h-32.008l-6.11467 14.94h-22.75733l32.59333-73.69467h24.56534z" class="cls-9"/></g><path id="path112" d="M492.43865 225.31631h-22.224V151.623h22.224z" class="cls-9"/><g id="g114"><path id="path116" d="M591.06942 225.31672h-19.78l-38.228-41.048v41.048h-22.012v-73.69333h19.72533l38.124 40.83333v-40.83333h22.17066z" class="cls-9"/></g><g id="g118"><path id="path120" d="M662.37 195.48791h-30.572v29.82933h-22.22537v-73.69466H662.37v14.78133h-30.572v14.25066h30.572z" class="cls-9"/></g><g id="g122"><path id="path124" d="M718.46505 174.91125q0-5.104-3.34934-7.12534-3.35-2.018-10.9-2.02h-4.67866v17.75866h4.78533q8.136 0 11.13866-1.78133 3.004-1.78 3.004-6.832m30.20133 50.40533H724.793l-5.796-13.07867a54.3087 54.3087 0 0 0-5.74266-10.50266 12.4029 12.4029 0 0 0-4.97067-4.25334 17.67574 17.67574 0 0 0-6.248-.92933h-2.49866v28.764h-22.2253v-73.69332h37.804q9.144 0 14.99333 3.72133a22.34783 22.34783 0 0 1 8.428 9.03867 23.19808 23.19808 0 0 1 2.57867 10.10267 19.12058 19.12058 0 0 1-2.152 9.43866 17.33757 17.33757 0 0 1-4.54667 5.60933 45.49536 45.49536 0 0 1-5.37066 3.34934 21.18327 21.18327 0 0 1 5.87466 4.91866q2.314 2.844 6.30134 11.51067z" class="cls-9"/></g><g id="g126"><path id="path128" d="M805.82409 197.56245l-10.79333-26.904-10.9 26.904zm33.86933 27.75467h-22.75733l-6.008-14.94h-32.008l-6.11467 14.94h-22.756l32.592-73.69467h24.56534z" class="cls-9"/></g><g id="g130"><path id="path132" d="M935.18582 225.31672h-22.224v-42.696l-20.04533 24.724h-1.75467l-20.09866-24.724v42.696h-21.58667v-73.69333h20.152l22.65066 27.648 22.756-27.648h20.15067z" class="cls-9"/></g><g id="g134"><path id="path136" d="M1009.3585 225.31672h-55.56266v-73.69333h54.66v14.78134h-32.43467v13.504h30.944v14.836h-30.944v15.73734h33.33733z" class="cls-9"/></g></g></g></g><path d="M116.67337 360.04466h19.02318l-20.41537 23.23092v8.1038h34.36847v-8.55055h-20.89329l20.1972-22.60755v-8.65446h-32.28019zm16.14529-9.53757zm35.4282-14.60763l-20.86212 55.47993h8.58172l20.93485-55.47993zm41.23592 1.64154l-11.80247 40.8723-11.6882-40.8723h-12.01025l18.18162 53.83839h10.62846l18.37903-53.8384zm54.05657 0l-9.71419 42.33721-9.7869-42.33721h-16.36347v53.83839h10.483v-36.4152c0-1.04934-.02077-2.51426-.04155-4.40515-.02078-1.8805-.03117-3.33503-.03117-4.36359l10.10899 45.18394h10.92975l10.1817-45.18394c0 1.02856-.01038 2.4831-.03116 4.3636-.02078 1.89088-.04156 3.3558-.04156 4.40514v36.4152h10.483v-53.8384zm52.6332 5.6311c-5.0389 5.08047-7.56355 12.33234-7.56355 21.72445 0 8.69601 2.22335 15.5427 6.64928 20.52965 4.43631 4.96619 10.52456 7.44928 18.26474 7.44928 6.25448 0 11.3869-1.83895 15.39724-5.51683 3.99996-3.6675 6.49344-8.44666 7.47005-14.31673h-11.14793c-.74805 2.774-1.70388 4.86229-2.84673 6.24409-2.0675 2.58699-5.07007 3.87528-9.01808 3.87528-3.84412 0-7.0233-1.50647-9.51679-4.50904-2.49348-3.01295-3.74022-7.53239-3.74022-13.56869s1.17402-10.71157 3.54282-14.00504c2.35842-3.30386 5.58955-4.9558 9.67263-4.9558 4.02073 0 7.05447 1.17402 9.1012 3.51166 1.14284 1.30907 2.0779 3.2623 2.80516 5.8389h11.25183c-.16623-3.35581-1.41297-6.70123-3.71944-10.04665-4.19736-5.9324-10.81547-8.9038-19.87511-8.9038-6.76357 0-12.34273 2.21296-16.7271 6.64928zm16.39463-7.27264zm56.43577 44.89303c-1.63115 2.16101-3.96879 3.25191-7.01291 3.25191-3.04413 0-5.38176-1.0909-7.0337-3.25191-1.64154-2.1714-2.4623-5.2467-2.4623-9.24666 0-3.98957.82076-7.06486 2.4623-9.22587 1.65194-2.15063 3.98957-3.23114 7.0337-3.23114 3.04412 0 5.38176 1.08051 7.0129 3.23114 1.63116 2.16101 2.45193 5.2363 2.45193 9.22587 0 3.99996-.82077 7.07525-2.45192 9.24666zm8.33238 5.7454c3.3558-4.14542 5.0389-9.14277 5.0389-14.99206 0-5.7454-1.6831-10.72196-5.0389-14.9401-3.3662-4.20775-8.46744-6.31681-15.30374-6.31681-6.84668 0-11.94792 2.10906-15.30373 6.31681-3.3662 4.21814-5.0493 9.1947-5.0493 14.9401 0 5.8493 1.6831 10.84664 5.0493 14.99205 3.3558 4.1558 8.45705 6.2337 15.30373 6.2337 6.8363 0 11.93754-2.0779 15.30374-6.2337zm-15.30374-36.0308zm77.46412 1.20519c-1.70388-.67532-3.42854-1.01817-5.18436-1.01817-2.62855 0-5.01813.54025-7.15837 1.64154-2.02595 1.0909-3.70905 2.81555-5.08047 5.15319-.7792-1.95323-1.92205-3.54282-3.42853-4.78956-1.8805-1.34025-4.33242-2.00517-7.37655-2.00517-3.22074 0-5.8389.7792-7.85446 2.33763-1.14284.87272-2.3688 2.34803-3.6571 4.41554v-5.80773H409.6365v39.73984h10.55573V367.4212c0-2.1714.28051-3.80256.84155-4.89345 1.02856-1.92206 3.02334-2.88828 5.99474-2.88828 2.55582 0 4.27008.96622 5.1532 2.88828.4779 1.07012.72726 2.78438.72726 5.15319v23.69845h10.483v-23.69845c0-1.787.28052-3.30386.84155-4.57138 1.0909-2.38959 3.0753-3.57399 5.95318-3.57399 2.4831 0 4.18697.92467 5.11164 2.774.4883.96622.72726 2.21296.72726 3.71944v25.35038h10.67002l.07273-25.09064c0-2.58699-.12468-4.54022-.36364-5.88046-.3948-2.02595-1.14284-3.72983-2.2649-5.11164-1.3922-1.70387-2.94024-2.89867-4.64411-3.58437zm66.51358 0c-1.70388-.67532-3.42854-1.01817-5.18436-1.01817-2.62855 0-5.01813.54025-7.15837 1.64154-2.02595 1.0909-3.70905 2.81555-5.08047 5.15319-.7792-1.95323-1.92205-3.54282-3.42853-4.78956-1.8805-1.34025-4.33242-2.00517-7.37655-2.00517-3.22074 0-5.8389.7792-7.85446 2.33763-1.14284.87272-2.3688 2.34803-3.6571 4.41554v-5.80773h-10.11938v39.73984h10.55574V367.4212c0-2.1714.28051-3.80256.84155-4.89345 1.02856-1.92206 3.02334-2.88828 5.99474-2.88828 2.55581 0 4.27008.96622 5.15319 2.88828.47792 1.07012.72726 2.78438.72726 5.15319v23.69845h10.48301v-23.69845c0-1.787.28052-3.30386.84155-4.57138 1.0909-2.38959 3.0753-3.57399 5.95318-3.57399 2.4831 0 4.18697.92467 5.11164 2.774.4883.96622.72726 2.21296.72726 3.71944v25.35038h10.67002l.07273-25.09064c0-2.58699-.12468-4.54022-.36364-5.88046-.3948-2.02595-1.14284-3.72983-2.2649-5.11164-1.3922-1.70387-2.94024-2.89867-4.64411-3.58437zm27.2101-.14546h-10.65963v23.99975c0 4.5506.57142 7.99991 1.71427 10.33755 2.04673 4.23892 6.01552 6.35838 11.90636 6.35838 2.04673 0 3.83373-.27013 5.3506-.81039 1.52725-.52986 3.09607-1.52725 4.72722-2.99217.54025-.46753 1.00778-.9974 1.3922-1.61037.3948-.6026.63375-.97662.72726-1.0909v5.62072h10.11937v-39.81257h-10.55573v21.66211c0 2.55582-.34286 4.61294-1.01817 6.17136-1.31947 2.8779-3.75061 4.31165-7.30382 4.31165-2.78439 0-4.6441-1.00778-5.58955-3.03374-.54026-1.14284-.81038-2.84672-.81038-5.11163zm7.30381-1.05973zm60.17599 3.34542c-2.60777-2.16101-5.97396-3.23113-10.0986-3.23113-3.28308 0-5.99474.8-8.14536 2.41036-1.1844.8935-2.45193 2.3688-3.79217 4.41554v-5.80773H588.6164v39.73984h10.36872v-21.54782c0-2.46232.34286-4.47788 1.02856-6.06747 1.30908-2.99218 3.74022-4.48827 7.26226-4.48827 2.8779 0 4.83112 1.01817 5.8493 3.0649.56103 1.12207.84154 2.73244.84154 4.82073v24.21793h10.65963v-26.80491c0-4.99735-1.30908-8.57134-3.92723-10.72197zm-13.93232-3.34542zm38.17102-3.68827v-9.61029h-10.55573v9.6103zm-10.55573 4.748v39.81257h10.55573v-39.81257zm16.55047 7.78174h5.548v24.50883c0 2.4831.5818 4.32203 1.75582 5.51682 1.79739 1.87011 5.16358 2.72205 10.07782 2.55582l4.93501-.18701v-7.78174c-.34285.03117-.6961.05195-1.03895.06234-.35324.0104-.6961.02078-1.00778.02078-2.11946 0-3.38698-.20779-3.80256-.61298-.41558-.3948-.62337-1.41297-.62337-3.04412v-21.03874h6.47266v-7.4181h-6.47266v-11.09599h-10.296v11.09599h-5.54799zm30.60747 39.66711v8.32199c1.12207.08312 1.95323.12467 2.51426.13506a118.98494 118.98494 0 0 0 2.23374.02078c4.60255 0 7.66745-.91427 9.2051-2.72205 1.52726-1.81816 3.61554-6.50382 6.24409-14.0466l13.6622-39.15803h-11.06483l-8.22848 29.37112-8.68562-29.37112h-11.5843l14.61803 41.5684c.0935.2909-.12467 1.0909-.64415 2.41036-.51947 1.30907-1.0909 2.1818-1.69349 2.59737-.63376.43636-1.41297.71688-2.33763.83116-.92467.12468-1.90128.16623-2.92984.11429zm14.09855-48.50858zm86.63804-12.9661h-43.61512v9.53757h16.18684v44.30083h11.31417v-44.30083h16.11411zm30.60747 43.2515c-1.63115 2.16101-3.96879 3.25191-7.01291 3.25191-3.04413 0-5.39215-1.0909-7.0337-3.25191-1.64154-2.1714-2.4623-5.2467-2.4623-9.24666 0-3.98957.82076-7.06486 2.4623-9.22587 1.64155-2.15063 3.98957-3.23114 7.0337-3.23114 3.04412 0 5.38176 1.08051 7.01291 3.23114 1.63115 2.16101 2.44153 5.2363 2.44153 9.22587 0 3.99996-.81038 7.07525-2.44153 9.24666zm8.33238 5.7454c3.3558-4.14542 5.0389-9.14277 5.0389-14.99206 0-5.7454-1.6831-10.72196-5.0389-14.9401-3.3662-4.20775-8.46744-6.31681-15.31412-6.31681-6.8363 0-11.93754 2.10906-15.30374 6.31681-3.3558 4.21814-5.0389 9.1947-5.0389 14.9401 0 5.8493 1.6831 10.84664 5.0389 14.99205 3.3662 4.1558 8.46744 6.2337 15.30374 6.2337 6.84668 0 11.94792-2.0779 15.31412-6.2337zm-15.31412-36.0308zm52.67476 30.2854c-1.63115 2.16101-3.96879 3.25191-7.01291 3.25191-3.04413 0-5.39215-1.0909-7.0337-3.25191-1.64153-2.1714-2.4623-5.2467-2.4623-9.24666 0-3.98957.82077-7.06486 2.4623-9.22587 1.64155-2.15063 3.98957-3.23114 7.0337-3.23114 3.04412 0 5.38176 1.08051 7.01291 3.23114 1.63115 2.16101 2.45192 5.2363 2.45192 9.22587 0 3.99996-.82077 7.07525-2.45192 9.24666zm8.33238 5.7454c3.3558-4.14542 5.0389-9.14277 5.0389-14.99206 0-5.7454-1.6831-10.72196-5.0389-14.9401-3.3662-4.20775-8.46744-6.31681-15.30373-6.31681-6.84668 0-11.94793 2.10906-15.31413 6.31681-3.3558 4.21814-5.0389 9.1947-5.0389 14.9401 0 5.8493 1.6831 10.84664 5.0389 14.99205 3.3662 4.1558 8.46745 6.2337 15.31413 6.2337 6.83629 0 11.93753-2.0779 15.30373-6.2337zm-15.30373-36.0308zm38.42037 40.8723v-53.8384h-10.41028v53.8384zm18.26474-12.70636H897.7352c0 4.08307 1.4857 7.44927 4.46748 10.0986 2.99218 2.63893 7.60512 3.9584 13.86998 3.9584 6.1298 0 10.67002-1.24675 13.59986-3.74023 2.94023-2.49348 4.40515-5.71422 4.40515-9.66223 0-2.99218-1.02856-5.49605-3.0753-7.49083-2.0675-1.974-5.17397-3.43893-9.30899-4.41554-6.21292-1.36102-9.82846-2.32725-10.84663-2.88828-1.02857-.52986-1.53765-1.40258-1.53765-2.58699 0-.95583.47792-1.78699 1.44414-2.49348.96622-.6961 2.5766-1.04934 4.8415-1.04934 2.75322 0 4.69606.6961 5.8389 2.10907.61299.77922.987 1.83894 1.13246 3.17919h10.41028c-.45714-4.86229-2.25452-8.29082-5.38176-10.27522-3.12724-1.98439-7.17915-2.98178-12.14533-2.98178-5.2363 0-9.2986 1.31946-12.18688 3.96879-2.8779 2.63893-4.32203 5.79734-4.32203 9.47522 0 3.11685.92466 5.50644 2.774 7.15837 1.84933 1.6831 5.02851 3.07529 9.53756 4.19735 6.25447 1.4857 9.87002 2.53504 10.84663 3.14802.96623.6026 1.45453 1.4961 1.45453 2.65972 0 1.21557-.60259 2.12984-1.80777 2.74282-1.20518.6026-2.82594.91428-4.87267.91428-3.48049 0-5.87007-.6961-7.15837-2.08829-.72727-.77921-1.20518-2.08829-1.42336-3.93762zm7.95836-28.16593z"/></svg>