<svg width="77" height="32" xmlns="http://www.w3.org/2000/svg" xmlns:xlink="http://www.w3.org/1999/xlink" xml:space="preserve" overflow="hidden"><defs><linearGradient x1="7.75" y1="28.4711" x2="2.61053" y2="23.25" gradientUnits="userSpaceOnUse" spreadMethod="pad" id="fill0"><stop offset="0" stop-color="#009CFF" stop-opacity="1"/><stop offset="0.1" stop-color="#0095F7" stop-opacity="1"/><stop offset="0.3" stop-color="#0082E4" stop-opacity="1"/><stop offset="0.5" stop-color="#0063C3" stop-opacity="1"/><stop offset="0.7" stop-color="#003896" stop-opacity="1"/><stop offset="1" stop-color="#00015D" stop-opacity="1"/></linearGradient><linearGradient x1="5.22105" y1="25.8605" x2="5.22105" y2="10.3605" gradientUnits="userSpaceOnUse" spreadMethod="pad" id="fill1"><stop offset="0" stop-color="#009CFF" stop-opacity="1"/><stop offset="0.1" stop-color="#0095F7" stop-opacity="1"/><stop offset="0.3" stop-color="#0082E4" stop-opacity="1"/><stop offset="0.5" stop-color="#0063C3" stop-opacity="1"/><stop offset="0.7" stop-color="#003896" stop-opacity="1"/><stop offset="1" stop-color="#00015D" stop-opacity="1"/></linearGradient><linearGradient x1="5.22105" y1="15.5" x2="5.22105" y2="0" gradientUnits="userSpaceOnUse" spreadMethod="pad" id="fill2"><stop offset="0" stop-color="#009CFF" stop-opacity="1"/><stop offset="0.1" stop-color="#0095F7" stop-opacity="1"/><stop offset="0.3" stop-color="#0082E4" stop-opacity="1"/><stop offset="0.5" stop-color="#0063C3" stop-opacity="1"/><stop offset="0.7" stop-color="#003896" stop-opacity="1"/><stop offset="1" stop-color="#00015D" stop-opacity="1"/></linearGradient></defs><g transform="translate(-1160 -20)"><g><g><g><g><path d="M25.6158 15.0105 19.1711 22.9237 25.6158 22.9237 25.6158 25.8605 15.0921 25.8605 15.0921 23.1684 21.5368 15.2553 15.3368 15.2553 15.3368 12.3184 25.6158 12.3184 25.6158 15.0105Z" fill="#1F1646" fill-rule="nonzero" fill-opacity="1" transform="matrix(1.00412 0 0 1 1160 21)"/><path d="M41.3605 12.3184 41.3605 25.7789 38.3421 25.7789 38.3421 24.3921C37.1184 25.5342 35.5684 26.1868 33.9368 26.1868 30.1026 26.2684 26.7579 22.9237 26.8395 19.0079 26.7579 15.1737 30.1026 11.7474 33.9368 11.8289 35.5684 11.8289 37.1184 12.4816 38.3421 13.6237L38.3421 12.2368 41.3605 12.2368ZM34.1816 14.9289C31.8974 14.9289 30.0211 16.8053 30.0211 19.0895 30.0211 21.3737 31.8974 23.25 34.1816 23.25 36.4658 23.25 38.3421 21.3737 38.3421 19.0895 38.3421 16.8053 36.4658 14.9289 34.1816 14.9289Z" fill="#1F1646" fill-rule="nonzero" fill-opacity="1" transform="matrix(1.00412 0 0 1 1160 21)"/><path d="M48.8658 12.3184 51.6395 12.3184 51.6395 15.2553 48.8658 15.2553 48.8658 25.8605 45.6842 25.8605 45.6842 15.2553 43.4 15.2553 43.4 12.3184 45.6842 12.3184 45.6842 10.85C45.6842 7.58684 47.9684 5.05789 51.6395 5.05789L51.6395 8.07631C50.0079 8.07631 48.8658 9.21842 48.8658 10.85L48.8658 12.3184Z" fill="#1F1646" fill-rule="nonzero" fill-opacity="1" transform="matrix(1.00412 0 0 1 1160 21)"/><path d="M55.0658 4.81316C56.1263 4.81316 56.9421 5.62895 56.9421 6.60789 56.9421 7.58684 56.1263 8.40263 55.0658 8.40263 54.0053 8.40263 53.1895 7.58684 53.1895 6.60789 53.1895 5.62895 54.0053 4.81316 55.0658 4.81316Z" fill="#0071CE" fill-rule="nonzero" fill-opacity="1" transform="matrix(1.00412 0 0 1 1160 21)"/><path d="M56.6974 12.3184 53.4342 12.3184 53.4342 25.7789 56.6974 25.7789 56.6974 12.3184Z" fill="#1F1646" fill-rule="nonzero" fill-opacity="1" transform="matrix(1.00412 0 0 1 1160 21)"/><path d="M72.1158 25.8605 68.8526 25.8605 68.8526 18.1105C68.8526 16.2342 67.6289 15.0105 65.8342 15.0105 64.0395 15.0105 62.8158 16.2342 62.8158 18.1105L62.8158 25.8605 59.5526 25.8605 59.5526 12.3184 62.571 12.3184 62.571 13.6237C63.55 12.4816 64.9368 11.9105 66.65 11.9105 69.75 11.9105 72.0342 14.1947 72.0342 17.2947L72.0342 25.7789Z" fill="#1F1646" fill-rule="nonzero" fill-opacity="1" transform="matrix(1.00412 0 0 1 1160 21)"/><path d="M5.22105 20.6395 0 25.8605 5.22105 31 10.4421 25.8605 5.22105 20.7211Z" fill="url(#fill0)" fill-rule="nonzero" transform="matrix(1.00412 0 0 1 1160 21)"/><path d="M0 25.8605 0 15.5 5.22105 10.3605 10.4421 15.5 0 25.8605Z" fill="url(#fill1)" fill-rule="nonzero" transform="matrix(1.00412 0 0 1 1160 21)"/><path d="M10.3605 15.5 10.3605 5.13947 5.22105 0 0 5.13947 10.3605 15.5Z" fill="url(#fill2)" fill-rule="nonzero" transform="matrix(1.00412 0 0 1 1160 21)"/></g></g></g></g></g></svg>