<?xml version="1.0" encoding="UTF-8"?><svg height="24px" xmlns="http://www.w3.org/2000/svg" version="1.2" baseProfile="tiny" viewBox="0 0 129 24" width="129px"><g fill="#99272b"><rect x="15" y="4" width="1" height="1"/><rect x="20" y="4" width="1" height="1"/></g><g fill="#97262c"><rect x="16" y="4" width="3" height="1"/><rect x="19" y="4" width="1" height="1"/><rect width="1" height="1" x="13" y="5"/><rect x="14" y="5" width="1" height="1"/><rect width="3" height="1" x="15" y="5"/><rect x="18" y="5" width="1" height="1"/><rect x="19" y="5" width="1" height="1"/><rect y="5" width="1" height="1" x="20"/><rect height="1" x="12" y="6" width="1"/><rect x="13" y="6" width="1" height="1"/><rect x="14" y="6" width="3" height="1"/><rect x="17" y="6" width="1" height="1"/><rect x="18" y="6" width="1" height="1"/><rect x="19" y="6" width="1" height="1"/><rect x="11" y="7" width="1" height="1"/><rect height="1" x="12" y="7" width="1"/><rect x="13" y="7" width="3" height="1"/><rect x="16" y="7" width="1" height="1"/><rect width="1" height="1" x="17" y="7"/><rect x="18" y="7" width="1" height="1"/><rect x="10" y="8" width="1" height="1"/><rect x="11" y="8" width="1" height="1"/><rect y="8" width="3" height="1" x="12"/><rect x="15" y="8" width="1" height="1"/><rect x="16" y="8" width="1" height="1"/><rect x="17" y="8" width="1" height="1"/><rect x="9" y="9" width="1" height="1"/><rect width="1" height="1" x="10" y="9"/><rect width="3" height="1" x="11" y="9"/><rect x="14" y="9" width="1" height="1"/><rect x="15" y="9" width="1" height="1"/><rect height="1" x="16" y="9" width="1"/><rect x="8" y="10" width="1" height="1"/><rect x="9" y="10" width="1" height="1"/><rect width="3" height="1" x="10" y="10"/><rect x="13" y="10" width="1" height="1"/><rect width="1" height="1" x="14" y="10"/><rect x="15" y="10" width="1" height="1"/><rect x="7" y="11" width="1" height="1"/><rect width="1" height="1" x="8" y="11"/><rect x="9" y="11" width="3" height="1"/><rect y="11" width="1" height="1" x="12"/><rect x="13" y="11" width="1" height="1"/><rect x="14" y="11" width="1" height="1"/><rect x="6" y="12" width="1" height="1"/><rect x="7" y="12" width="1" height="1"/><rect y="12" width="3" height="1" x="8"/><rect y="12" width="1" height="1" x="11"/><rect width="1" height="1" x="12" y="12"/><rect x="13" y="12" width="1" height="1"/><rect x="5" y="13" width="1" height="1"/><rect x="6" y="13" width="1" height="1"/><rect x="7" y="13" width="3" height="1"/><rect x="10" y="13" width="1" height="1"/><rect x="11" y="13" width="1" height="1"/><rect x="12" y="13" width="1" height="1"/><rect x="4" y="14" width="1" height="1"/><rect x="5" y="14" width="1" height="1"/><rect x="6" y="14" width="3" height="1"/><rect height="1" x="9" y="14" width="1"/><rect x="10" y="14" width="1" height="1"/><rect x="11" y="14" width="1" height="1"/><rect height="1" x="3" y="15" width="1"/><rect x="4" y="15" width="1" height="1"/><rect x="5" y="15" width="3" height="1"/><rect width="1" height="1" x="8" y="15"/><rect x="9" y="15" width="1" height="1"/><rect x="10" y="15" width="1" height="1"/><rect y="16" width="1" height="1" x="2"/><rect x="3" y="16" width="1" height="1"/><rect x="4" y="16" width="3" height="1"/><rect width="1" height="1" x="7" y="16"/><rect width="1" height="1" x="8" y="16"/><rect x="9" y="16" width="1" height="1"/><rect x="1" y="17" width="1" height="1"/><rect height="1" x="2" y="17" width="1"/><rect x="3" y="17" width="3" height="1"/><rect x="6" y="17" width="1" height="1"/><rect x="7" y="17" width="1" height="1"/><rect x="8" y="17" width="1" height="1"/><rect width="1" height="1" y="18"/><rect height="1" x="1" y="18" width="1"/><rect x="2" y="18" width="3" height="1"/><rect width="1" height="1" x="5" y="18"/><rect y="18" width="1" height="1" x="6"/><rect x="7" y="18" width="1" height="1"/><rect x="1" y="19" width="3" height="1"/><rect width="1" height="1" x="4" y="19"/><rect x="5" y="19" width="1" height="1"/></g><rect x="21" y="4" width="1" height="1" fill="#b4321f"/><rect y="19" width="1" height="1" fill="#9b282a"/><rect x="6" y="19" width="1" height="1" fill="#ae2f22"/><g fill="#fc5000"><rect width="20" height="3"/><rect width="1" height="3" x="20"/><rect height="3" x="21" width="1"/><rect x="25" width="1" height="3"/><rect width="16" height="3" x="26"/><rect x="42" width="1" height="3"/><rect x="43" width="1" height="3"/><rect x="47" width="1" height="3"/><rect height="3" x="48" width="5"/><rect x="53" width="1" height="3"/><rect x="54" width="1" height="1"/><rect x="55" width="1" height="1"/><rect x="56" width="1" height="1"/><rect x="57" width="1" height="1"/><rect x="58" width="1" height="1"/><rect x="64" width="1" height="1"/><rect x="65" width="1" height="1"/><rect x="66" width="15" height="1"/><rect width="1" height="3" x="81"/><rect x="82" width="1" height="3"/><rect x="86" width="1" height="3"/><rect x="87" width="5" height="3"/><rect height="3" x="92" width="1"/><rect width="1" height="1" x="93"/><rect x="94" width="1" height="1"/><rect x="95" width="1" height="1"/><rect x="96" width="1" height="1"/><rect height="1" x="97" width="1"/><rect x="116" width="1" height="1"/><rect x="117" width="1" height="1"/><rect height="2" x="54" y="1" width="3"/><rect height="2" x="57" y="1" width="1"/><rect x="58" y="1" width="1" height="1"/><rect x="59" y="1" width="1" height="1"/><rect x="60" y="1" width="1" height="1"/><rect x="65" y="1" width="1" height="1"/><rect x="66" y="1" width="15" height="1"/><rect x="93" y="1" width="3" height="2"/><rect x="96" y="1" width="1" height="2"/><rect x="97" y="1" width="1" height="1"/><rect width="1" height="1" x="98" y="1"/><rect x="99" y="1" width="1" height="1"/><rect x="115" y="1" width="1" height="1"/><rect y="1" width="1" height="1" x="116"/><rect width="1" height="1" x="117" y="1"/><rect x="58" y="2" width="1" height="2"/><rect x="59" y="2" width="1" height="3"/><rect height="1" x="60" y="2" width="1"/><rect x="61" y="2" width="1" height="1"/><rect x="66" y="2" width="1" height="1"/><rect x="67" y="2" width="14" height="1"/><rect height="2" x="97" y="2" width="1"/><rect x="98" y="2" width="1" height="3"/><rect height="1" x="99" y="2" width="1"/><rect x="100" y="2" width="1" height="1"/><rect x="115" y="2" width="1" height="1"/><rect x="116" y="2" width="1" height="5"/><rect x="117" y="2" width="1" height="5"/><rect x="118" y="2" width="1" height="1"/><rect height="1" y="3" width="20"/><rect x="20" y="3" width="1" height="1"/><rect x="21" y="3" width="1" height="1"/><rect x="25" y="3" width="1" height="1"/><rect x="26" y="3" width="16" height="1"/><rect x="42" y="3" width="1" height="1"/><rect x="43" y="3" width="1" height="1"/><rect height="1" x="47" y="3" width="1"/><rect x="48" y="3" width="12" height="1"/><rect x="60" y="3" width="1" height="3"/><rect height="1" x="61" y="3" width="1"/><rect y="3" width="1" height="1" x="62"/><rect x="66" y="3" width="1" height="1"/><rect x="67" y="3" width="1" height="1"/><rect x="68" y="3" width="13" height="1"/><rect x="81" y="3" width="1" height="1"/><rect x="82" y="3" width="1" height="1"/><rect x="86" y="3" width="1" height="1"/><rect x="87" y="3" width="12" height="1"/><rect x="99" y="3" width="1" height="3"/><rect width="1" height="1" x="100" y="3"/><rect x="101" y="3" width="1" height="1"/><rect x="114" y="3" width="1" height="1"/><rect x="115" y="3" width="1" height="1"/><rect x="118" y="3" width="1" height="1"/><rect y="4" width="13" height="1"/><rect x="13" y="4" width="1" height="1"/><rect x="25" y="4" width="1" height="1"/><rect width="16" height="1" x="26" y="4"/><rect x="42" y="4" width="1" height="1"/><rect x="43" y="4" width="1" height="1"/><rect x="47" y="4" width="1" height="1"/><rect y="4" width="4" height="1" x="48"/><rect height="1" x="52" y="4" width="1"/><rect y="4" width="1" height="1" x="53"/><rect x="54" y="4" width="1" height="1"/><rect height="1" x="55" y="4" width="1"/><rect y="4" width="1" height="1" x="56"/><rect x="57" y="4" width="1" height="1"/><rect y="4" width="3" height="1" x="58"/><rect y="4" width="1" height="4" x="61"/><rect x="62" y="4" width="1" height="1"/><rect x="63" y="4" width="1" height="1"/><rect y="4" width="1" height="1" x="67"/><rect x="68" y="4" width="13" height="1"/><rect x="81" y="4" width="1" height="1"/><rect x="82" y="4" width="1" height="1"/><rect height="1" x="86" y="4" width="1"/><rect x="87" y="4" width="4" height="1"/><rect y="4" width="1" height="1" x="91"/><rect x="92" y="4" width="1" height="1"/><rect width="1" height="1" x="93" y="4"/><rect height="1" x="94" y="4" width="1"/><rect x="95" y="4" width="1" height="1"/><rect width="1" height="1" x="96" y="4"/><rect height="1" x="97" y="4" width="3"/><rect height="4" x="100" y="4" width="1"/><rect x="101" y="4" width="1" height="1"/><rect y="4" width="1" height="1" x="102"/><rect x="114" y="4" width="1" height="1"/><rect y="4" width="3" height="3" x="115"/><rect x="118" y="4" width="1" height="5"/><rect x="119" y="4" width="1" height="1"/><rect x="57" y="5" width="1" height="1"/><rect x="58" y="5" width="1" height="1"/><rect height="1" x="59" y="5" width="3"/><rect y="5" width="1" height="13" x="62"/><rect x="63" y="5" width="1" height="1"/><rect x="64" y="5" width="1" height="1"/><rect x="96" y="5" width="1" height="1"/><rect height="1" x="97" y="5" width="1"/><rect x="98" y="5" width="3" height="1"/><rect x="101" y="5" width="1" height="13"/><rect height="1" x="102" y="5" width="1"/><rect x="103" y="5" width="1" height="1"/><rect y="5" width="1" height="1" x="113"/><rect x="114" y="5" width="1" height="1"/><rect x="119" y="5" width="1" height="1"/><rect height="1" x="58" y="6" width="1"/><rect x="59" y="6" width="1" height="1"/><rect x="60" y="6" width="3" height="1"/><rect x="63" y="6" width="1" height="11"/><rect x="64" y="6" width="1" height="1"/><rect x="97" y="6" width="1" height="1"/><rect x="98" y="6" width="1" height="1"/><rect x="99" y="6" width="3" height="1"/><rect x="102" y="6" width="1" height="11"/><rect x="103" y="6" width="1" height="1"/><rect x="113" y="6" width="1" height="1"/><rect x="114" y="6" width="5" height="1"/><rect x="119" y="6" width="1" height="5"/><rect height="1" x="120" y="6" width="1"/><rect x="59" y="7" width="1" height="1"/><rect x="60" y="7" width="1" height="1"/><rect x="64" y="7" width="1" height="1"/><rect x="98" y="7" width="1" height="1"/><rect x="99" y="7" width="1" height="1"/><rect x="103" y="7" width="1" height="1"/><rect x="112" y="7" width="1" height="1"/><rect x="113" y="7" width="1" height="1"/><rect x="114" y="7" width="5" height="1"/><rect x="120" y="7" width="1" height="1"/><rect height="1" x="60" y="8" width="1"/><rect width="3" height="1" x="61" y="8"/><rect x="64" y="8" width="1" height="7"/><rect width="1" height="1" x="65" y="8"/><rect x="99" y="8" width="1" height="1"/><rect y="8" width="3" height="1" x="100"/><rect height="7" x="103" y="8" width="1"/><rect x="104" y="8" width="1" height="1"/><rect x="112" y="8" width="1" height="1"/><rect width="2" height="3" x="113" y="8"/><rect height="1" x="115" y="8" width="1"/><rect x="116" y="8" width="1" height="1"/><rect y="8" width="1" height="1" x="117"/><rect x="120" y="8" width="1" height="5"/><rect y="8" width="1" height="1" x="121"/><rect x="25" y="9" width="1" height="1"/><rect x="26" y="9" width="16" height="1"/><rect x="42" y="9" width="1" height="1"/><rect x="43" y="9" width="1" height="1"/><rect x="60" y="9" width="1" height="1"/><rect width="1" height="1" x="61" y="9"/><rect x="65" y="9" width="1" height="1"/><rect x="69" y="9" width="1" height="1"/><rect x="70" y="9" width="11" height="1"/><rect height="1" x="81" y="9" width="1"/><rect y="9" width="1" height="1" x="82"/><rect y="9" width="1" height="1" x="99"/><rect x="100" y="9" width="1" height="1"/><rect height="1" x="104" y="9" width="1"/><rect x="111" y="9" width="1" height="1"/><rect x="112" y="9" width="1" height="1"/><rect x="115" y="9" width="1" height="1"/><rect x="116" y="9" width="1" height="1"/><rect x="117" y="9" width="1" height="1"/><rect height="1" x="118" y="9" width="2"/><rect width="1" height="1" x="121" y="9"/><rect width="1" height="3" x="25" y="10"/><rect width="16" height="3" x="26" y="10"/><rect x="42" y="10" width="1" height="3"/><rect x="43" y="10" width="1" height="3"/><rect x="61" y="10" width="1" height="1"/><rect x="65" y="10" width="1" height="1"/><rect x="69" y="10" width="1" height="1"/><rect x="70" y="10" width="11" height="3"/><rect width="1" height="3" x="81" y="10"/><rect y="10" width="1" height="3" x="82"/><rect x="100" y="10" width="1" height="1"/><rect x="104" y="10" width="1" height="1"/><rect height="1" x="111" y="10" width="1"/><rect x="112" y="10" width="2" height="3"/><rect x="115" y="10" width="1" height="1"/><rect x="116" y="10" width="1" height="1"/><rect x="117" y="10" width="1" height="1"/><rect width="1" height="1" x="118" y="10"/><rect x="121" y="10" width="1" height="6"/><rect x="122" y="10" width="1" height="1"/><rect x="61" y="11" width="1" height="1"/><rect y="11" width="1" height="1" x="65"/><rect y="11" width="1" height="1" x="69"/><rect x="100" y="11" width="1" height="1"/><rect x="104" y="11" width="1" height="1"/><rect y="11" width="1" height="1" x="110"/><rect height="1" x="111" y="11" width="1"/><rect x="114" y="11" width="1" height="1"/><rect x="115" y="11" width="1" height="1"/><rect x="118" y="11" width="1" height="1"/><rect x="119" y="11" width="2" height="1"/><rect x="122" y="11" width="1" height="1"/><rect x="61" y="12" width="1" height="1"/><rect x="65" y="12" width="1" height="1"/><rect x="69" y="12" width="1" height="1"/><rect x="100" y="12" width="1" height="1"/><rect height="1" x="104" y="12" width="1"/><rect x="110" y="12" width="1" height="1"/><rect x="111" y="12" width="2" height="3"/><rect y="12" width="1" height="1" x="114"/><rect width="1" height="1" x="115" y="12"/><rect x="118" y="12" width="1" height="1"/><rect x="119" y="12" width="1" height="1"/><rect x="122" y="12" width="1" height="6"/><rect y="12" width="1" height="1" x="123"/><rect x="25" y="13" width="1" height="1"/><rect x="26" y="13" width="16" height="1"/><rect width="1" height="1" x="42" y="13"/><rect x="43" y="13" width="1" height="1"/><rect x="61" y="13" width="1" height="1"/><rect x="65" y="13" width="1" height="1"/><rect width="1" height="1" x="69" y="13"/><rect x="70" y="13" width="11" height="1"/><rect width="1" height="1" x="81" y="13"/><rect x="82" y="13" width="1" height="1"/><rect height="1" x="100" y="13" width="1"/><rect x="104" y="13" width="1" height="1"/><rect height="1" x="109" y="13" width="1"/><rect x="110" y="13" width="1" height="1"/><rect y="13" width="1" height="1" x="113"/><rect x="114" y="13" width="1" height="1"/><rect x="119" y="13" width="1" height="1"/><rect x="120" y="13" width="2" height="1"/><rect width="1" height="1" x="123" y="13"/><rect height="1" x="25" y="14" width="1"/><rect width="16" height="1" x="26" y="14"/><rect height="1" x="42" y="14" width="1"/><rect height="1" x="43" y="14" width="1"/><rect x="60" y="14" width="1" height="1"/><rect x="61" y="14" width="1" height="1"/><rect x="65" y="14" width="1" height="1"/><rect x="69" y="14" width="1" height="1"/><rect x="70" y="14" width="11" height="1"/><rect x="81" y="14" width="1" height="1"/><rect x="82" y="14" width="1" height="1"/><rect height="1" x="99" y="14" width="1"/><rect x="100" y="14" width="1" height="1"/><rect x="104" y="14" width="1" height="1"/><rect y="14" width="1" height="1" x="109"/><rect width="2" height="3" x="110" y="14"/><rect x="113" y="14" width="1" height="1"/><rect width="1" height="1" x="114" y="14"/><rect x="119" y="14" width="1" height="1"/><rect x="120" y="14" width="1" height="1"/><rect y="14" width="1" height="6" x="123"/><rect height="1" x="124" y="14" width="1"/><rect x="60" y="15" width="1" height="1"/><rect height="2" x="61" y="15" width="3"/><rect x="64" y="15" width="1" height="1"/><rect x="65" y="15" width="1" height="1"/><rect y="15" width="1" height="1" x="99"/><rect x="100" y="15" width="3" height="2"/><rect y="15" width="1" height="1" x="103"/><rect x="104" y="15" width="1" height="1"/><rect width="1" height="1" x="108" y="15"/><rect y="15" width="1" height="1" x="109"/><rect x="112" y="15" width="1" height="1"/><rect x="113" y="15" width="1" height="1"/><rect y="15" width="1" height="1" x="120"/><rect x="124" y="15" width="1" height="1"/><rect x="59" y="16" width="1" height="1"/><rect y="16" width="1" height="1" x="60"/><rect height="1" x="64" y="16" width="1"/><rect x="98" y="16" width="1" height="1"/><rect x="99" y="16" width="1" height="1"/><rect height="1" x="103" y="16" width="1"/><rect x="108" y="16" width="1" height="1"/><rect x="109" y="16" width="2" height="3"/><rect x="112" y="16" width="1" height="1"/><rect height="1" x="113" y="16" width="1"/><rect x="120" y="16" width="1" height="1"/><rect y="16" width="3" height="1" x="121"/><rect x="124" y="16" width="1" height="6"/><rect x="125" y="16" width="1" height="1"/><rect height="1" x="58" y="17" width="1"/><rect x="59" y="17" width="1" height="1"/><rect x="60" y="17" width="3" height="1"/><rect x="63" y="17" width="1" height="1"/><rect width="1" height="1" x="64" y="17"/><rect x="97" y="17" width="1" height="1"/><rect height="1" x="98" y="17" width="1"/><rect x="99" y="17" width="3" height="1"/><rect height="1" x="102" y="17" width="1"/><rect width="1" height="1" x="103" y="17"/><rect x="107" y="17" width="1" height="1"/><rect height="1" x="108" y="17" width="1"/><rect x="111" y="17" width="1" height="1"/><rect x="112" y="17" width="1" height="1"/><rect y="17" width="1" height="1" x="121"/><rect height="1" x="125" y="17" width="1"/><rect x="57" y="18" width="1" height="1"/><rect x="58" y="18" width="1" height="1"/><rect height="1" x="59" y="18" width="3"/><rect width="1" height="1" x="62" y="18"/><rect x="63" y="18" width="1" height="1"/><rect x="64" y="18" width="1" height="1"/><rect width="1" height="1" x="96" y="18"/><rect x="97" y="18" width="1" height="1"/><rect x="98" y="18" width="3" height="1"/><rect width="1" height="1" x="101" y="18"/><rect height="1" x="102" y="18" width="1"/><rect x="103" y="18" width="1" height="1"/><rect x="107" y="18" width="1" height="1"/><rect height="3" x="108" y="18" width="2"/><rect x="111" y="18" width="1" height="1"/><rect y="18" width="1" height="1" x="112"/><rect x="121" y="18" width="1" height="1"/><rect x="122" y="18" width="3" height="1"/><rect x="125" y="18" width="1" height="5"/><rect x="126" y="18" width="1" height="1"/><rect x="7" y="19" width="13" height="1"/><rect y="19" width="1" height="1" x="20"/><rect width="1" height="1" x="21" y="19"/><rect height="1" x="25" y="19" width="1"/><rect x="26" y="19" width="16" height="1"/><rect height="1" x="42" y="19" width="1"/><rect x="43" y="19" width="1" height="1"/><rect x="47" y="19" width="1" height="1"/><rect y="19" width="4" height="1" x="48"/><rect height="1" x="52" y="19" width="1"/><rect x="53" y="19" width="1" height="1"/><rect x="54" y="19" width="1" height="1"/><rect x="55" y="19" width="1" height="1"/><rect x="56" y="19" width="1" height="1"/><rect x="57" y="19" width="1" height="1"/><rect x="58" y="19" width="3" height="1"/><rect height="1" x="61" y="19" width="1"/><rect y="19" width="1" height="1" x="62"/><rect width="1" height="1" x="63" y="19"/><rect x="67" y="19" width="1" height="1"/><rect x="68" y="19" width="13" height="1"/><rect width="1" height="1" x="81" y="19"/><rect x="82" y="19" width="1" height="1"/><rect x="86" y="19" width="1" height="1"/><rect height="1" x="87" y="19" width="4"/><rect y="19" width="1" height="1" x="91"/><rect width="1" height="1" x="92" y="19"/><rect x="93" y="19" width="1" height="1"/><rect height="1" x="94" y="19" width="1"/><rect x="95" y="19" width="1" height="1"/><rect x="96" y="19" width="1" height="1"/><rect x="97" y="19" width="3" height="1"/><rect width="1" height="1" x="100" y="19"/><rect y="19" width="1" height="1" x="101"/><rect width="1" height="1" x="102" y="19"/><rect height="1" x="106" y="19" width="1"/><rect x="107" y="19" width="1" height="1"/><rect height="1" x="110" y="19" width="1"/><rect x="111" y="19" width="1" height="1"/><rect x="122" y="19" width="1" height="1"/><rect x="126" y="19" width="1" height="1"/><rect y="20" width="20" height="3"/><rect x="20" y="20" width="1" height="3"/><rect y="20" width="1" height="3" x="21"/><rect width="1" height="3" x="25" y="20"/><rect x="26" y="20" width="16" height="3"/><rect x="42" y="20" width="1" height="3"/><rect x="43" y="20" width="1" height="3"/><rect x="47" y="20" width="1" height="3"/><rect height="1" x="48" y="20" width="12"/><rect width="1" height="1" x="60" y="20"/><rect x="61" y="20" width="1" height="1"/><rect height="1" x="62" y="20" width="1"/><rect x="66" y="20" width="1" height="1"/><rect height="1" x="67" y="20" width="1"/><rect x="68" y="20" width="13" height="3"/><rect y="20" width="1" height="3" x="81"/><rect width="1" height="3" x="82" y="20"/><rect x="86" y="20" width="1" height="3"/><rect x="87" y="20" width="12" height="1"/><rect x="99" y="20" width="1" height="1"/><rect width="1" height="1" x="100" y="20"/><rect x="101" y="20" width="1" height="1"/><rect x="106" y="20" width="1" height="1"/><rect height="3" x="107" y="20" width="2"/><rect x="110" y="20" width="1" height="1"/><rect height="1" x="111" y="20" width="1"/><rect x="122" y="20" width="1" height="1"/><rect x="123" y="20" width="3" height="1"/><rect width="1" height="3" x="126" y="20"/><rect x="127" y="20" width="1" height="1"/><rect y="21" width="11" height="1" x="48"/><rect x="59" y="21" width="1" height="1"/><rect x="60" y="21" width="1" height="1"/><rect x="61" y="21" width="1" height="1"/><rect y="21" width="1" height="1" x="66"/><rect x="67" y="21" width="14" height="2"/><rect height="1" x="87" y="21" width="11"/><rect width="1" height="1" x="98" y="21"/><rect x="99" y="21" width="1" height="1"/><rect x="100" y="21" width="1" height="1"/><rect x="105" y="21" width="1" height="1"/><rect x="106" y="21" width="1" height="1"/><rect x="109" y="21" width="1" height="1"/><rect x="110" y="21" width="1" height="1"/><rect width="1" height="1" x="123" y="21"/><rect x="127" y="21" width="1" height="1"/><rect x="48" y="22" width="9" height="1"/><rect x="57" y="22" width="1" height="1"/><rect x="58" y="22" width="1" height="1"/><rect height="1" x="59" y="22" width="1"/><rect height="1" x="60" y="22" width="1"/><rect height="1" x="65" y="22" width="1"/><rect x="66" y="22" width="15" height="1"/><rect x="87" y="22" width="9" height="1"/><rect height="1" x="96" y="22" width="1"/><rect x="97" y="22" width="1" height="1"/><rect x="98" y="22" width="1" height="1"/><rect width="1" height="1" x="99" y="22"/><rect x="105" y="22" width="1" height="1"/><rect x="106" y="22" width="2" height="1"/><rect x="109" y="22" width="1" height="1"/><rect x="110" y="22" width="1" height="1"/><rect x="123" y="22" width="1" height="1"/><rect x="124" y="22" width="3" height="1"/><rect y="22" width="1" height="1" x="127"/><rect width="1" height="1" x="128" y="22"/><rect width="20" height="1" y="23"/><rect x="20" y="23" width="1" height="1"/><rect x="21" y="23" width="1" height="1"/><rect x="25" y="23" width="1" height="1"/><rect y="23" width="16" height="1" x="26"/><rect y="23" width="1" height="1" x="42"/><rect x="43" y="23" width="1" height="1"/><rect x="47" y="23" width="1" height="1"/><rect width="5" height="1" x="48" y="23"/><rect height="1" x="53" y="23" width="1"/><rect x="54" y="23" width="1" height="1"/><rect x="55" y="23" width="1" height="1"/><rect x="56" y="23" width="1" height="1"/><rect x="57" y="23" width="1" height="1"/><rect height="1" x="58" y="23" width="1"/><rect height="1" x="64" y="23" width="1"/><rect x="65" y="23" width="1" height="1"/><rect height="1" x="66" y="23" width="15"/><rect x="81" y="23" width="1" height="1"/><rect x="82" y="23" width="1" height="1"/><rect x="86" y="23" width="1" height="1"/><rect x="87" y="23" width="5" height="1"/><rect x="92" y="23" width="1" height="1"/><rect x="93" y="23" width="1" height="1"/><rect x="94" y="23" width="1" height="1"/><rect height="1" x="95" y="23" width="1"/><rect x="96" y="23" width="1" height="1"/><rect x="97" y="23" width="1" height="1"/><rect x="104" y="23" width="1" height="1"/><rect x="105" y="23" width="1" height="1"/><rect x="106" y="23" width="2" height="1"/><rect x="108" y="23" width="1" height="1"/><rect width="1" height="1" x="109" y="23"/><rect x="123" y="23" width="1" height="1"/><rect y="23" width="1" height="1" x="124"/><rect x="125" y="23" width="2" height="1"/><rect width="1" height="1" x="127" y="23"/><rect x="128" y="23" width="1" height="1"/></g><rect x="14" y="4" width="1" height="1" fill="#c1371a"/></svg>