<svg xmlns="http://www.w3.org/2000/svg" role="img" viewBox="-5.99 -5.99 196.49 311.74"><title>Academy of Motion Picture Arts and Sciences logo</title><g fill="#b49823"><path d="M88.65895.0041l85.3337 193.69859h-54.0947l-7.05102-16.5862h-8.59725c-1.68339-2.4794-1.50793-2.96999-4.39375-3.29945-6.43769-.33668-7.29632-1.15193-7.29632-5.93277 0-4.29746 1.90715-12.37776 2.06817-15.49445.17508-3.9704-.33187-5.43977-.33187-8.24863 0-2.80887 1.86867-5.94239 2.19804-12.53889.3463-6.5917-1.22878-11.3557-1.22878-11.3557 1.37788-.18277 3.05415-1.16154 3.5736-2.32309.67086-1.6401 2.8762-10.55488 2.8762-14.17178 0-1.4862-.16545-2.79924-.5002-3.79004-1.55354-3.65297-6.06504-3.01809-8.09723-5.3556-.6372-.72867-1.0364-.68779-1.08218-3.3187 1.05813-1.45012 1.38288-3.63132 1.38288-6.77686 0-2.6237-2.04662-4.65339-4.7593-4.65339-2.72228 0-4.7616 2.0297-4.7616 4.65339 0 3.14554.32225 5.32674 1.38289 6.77687-.05002 2.6309-.4498 2.59002-1.0895 3.31869-2.02719 2.33751-6.53388 1.70263-8.10184 5.3556-.32706.9908-.48578 2.30385-.48578 3.79004 0 3.6169 2.20034 12.53168 2.8689 14.17178.51944 1.16155 2.20283 2.14032 3.56879 2.32309 0 0-1.57027 4.764-1.22647 11.3557.33437 6.5965 2.20284 9.73002 2.20284 12.53889 0 2.80886-.51214 4.27823-.33418 8.24863.16353 3.11669 2.07048 11.19699 2.07048 15.49445 0 4.78084-.85613 5.59609-7.29632 5.93277-2.881.32946-2.71267.82005-4.39125 3.29945h-8.59974l-7.04852 16.5862H3.32044L88.65894.0041zm91.50512 186.80744c-2.4216 0-4.39607 1.95986-4.39607 4.3697 0 2.4191 1.97448 4.38876 4.39607 4.38876 2.40735 0 4.3672-1.96967 4.3672-4.38875 0-2.40985-1.95985-4.36971-4.3672-4.36971m0 8.14282c-2.11627 0-3.77562-1.65684-3.77562-3.77311 0-2.06837 1.69302-3.75176 3.77562-3.75176 2.06817 0 3.74925 1.6834 3.74925 3.75176 0 2.11627-1.64742 3.77311-3.74925 3.77311"/><path d="M181.03424 191.29649c.41113-.2453.63238-.65643.63238-1.1905 0-.50502-.1924-.90172-.55062-1.15183-.36804-.27184-.79129-.27184-1.16645-.27184h-1.25995v5.0094h.68529v-2.1788h.51464l1.3419 2.16437.01924.01924h.743l-1.31054-2.25344c.11736-.03078.24048-.07696.35823-.14622m-.9908-.45692h-.66855v-1.4887h.62295c.21394 0 .43518 0 .60833.09235.27185.12313.37285.41613.37285.6493 0 .23588-.09427.4425-.26223.57967-.177.15584-.41132.16738-.67335.16738M10.3476 289.08077l1.9841 5.24507H8.35158l1.99602-5.24507zm-5.04287 10.27352h1.13509l1.51255-3.97993h4.77603l1.50794 3.97993h1.13259l-5.02133-13.14491-5.04287 13.1449zm14.6261-11.39842H18.8727v4.6125h1.15914c.76955 0 1.45503-.03847 2.09472-.51482.46885-.35342.74781-1.02428.74781-1.80364 0-.73088-.31013-1.65434-1.1928-2.04643-.48578-.22837-1.10373-.2501-1.75074-.2501m3.73483 11.39648l-3.6217-5.71854H18.8727v5.71854h-1.09661v-12.4475h2.01526c.92597 0 1.97679 0 2.86177.63988.8417.5939 1.289 1.54141 1.289 2.73672 0 1.1447-.4929 2.15705-1.31785 2.71498-.3967.26703-.85613.4425-1.39.5435l3.67941 5.81242h-1.24802zm2.67304-12.4502l-.40151 1.04621h3.21038v11.41092h1.0966v-11.41092h3.21058v-1.0462H26.3387zm50.26194 1.0516h2.0322c1.70494 0 2.81367.37265 3.8139 1.27938 1.0943 1.00523 1.70263 2.39042 1.70263 3.91278 0 1.40925-.55542 2.73903-1.56315 3.74657-1.00985.99099-2.18822 1.41655-3.95338 1.41655h-2.0322v-10.35528zm6.66144.51945c-1.40674-1.30112-2.85696-1.56566-4.6125-1.56566h-3.15036v12.45h3.15036c1.5391 0 3.1719-.2045 4.67733-1.65453 1.23629-1.188 1.91446-2.80636 1.91446-4.5571 0-1.81344-.69991-3.4728-1.9793-4.67271m-29.73298.59678l1.9816 5.24508h-3.97763l1.99603-5.24508zm-5.04538 10.27102h1.1399l1.51025-3.97512h4.77603l1.50544 3.97512h1.13509l-5.02133-13.1424-5.04538 13.1424zm12.23011.01462h1.0943v-10.1702l10.17964 10.82182v-13.10162h-1.09892v10.33854L60.71382 286.4968v12.85633zm67.6646 0h1.0966v-10.1702l10.17733 10.82182v-13.10162h-1.09912v10.33854l-10.17482-10.74487v12.85633zm-14.10243-.00019h1.0943v-12.45231h-1.0943v12.45231zm4.86549-12.44904v12.45h5.48787l.3992-1.0487h-4.78796v-5.09098h4.5163v-1.05082h-4.5163v-4.2133h5.61773l-.4017-1.0462h-6.31514zm36.20934 0v12.45h5.48537l.4042-1.0487h-4.79295v-5.09098h4.5188v-1.05082h-4.5188v-4.2133h5.62023l-.40171-1.0462h-6.31514zm-44.59669 11.6891c-.56273.35843-1.75073.95964-3.44605.95964-1.71957 0-3.33082-.66874-4.54517-1.8806-2.50585-2.50585-2.50585-6.58447 0-9.09033 1.21435-1.20973 2.8256-1.88078 4.54517-1.88078 2.41677 0 3.80678 1.22416 3.80678 1.22416l.51945 1.40193s-1.76997-1.56777-4.32623-1.56777c-1.42618 0-2.78001.55793-3.79967 1.57278-1.01003 1.01465-1.56796 2.36156-1.56796 3.79485s.55793 2.78231 1.56796 3.79235c1.01966 1.01254 2.3735 1.57047 3.79967 1.57047 1.8877 0 3.35467-.85863 3.98474-1.30824l-.53869 1.40674zm-15.53956.96387c-1.50544 0-2.84965-.76224-3.59997-2.03681l-.08465-.14237.47866-1.22878.34861.56504c.76474 1.21936 1.65704 1.76516 2.89313 1.76516 1.61125 0 2.8233-1.08218 2.8233-2.51547 0-1.35153-1.49351-2.10896-2.48181-2.61167-.0962-.0481-.19046-.09619-.27415-.13852-.08273-.04425-.18277-.09234-.2959-.14236-.91384-.44019-2.8256-1.35403-2.8256-3.2731 0-1.79633 1.37788-3.09264 3.26329-3.09264 1.40212 0 2.34482.73589 2.34482.73589l.48328 1.24802s-1.47889-.90884-2.8762-.90884c-1.22878 0-2.11858.84881-2.11858 2.01757 0 1.1928 1.2361 1.81326 2.33502 2.35906l.202.10197c.08465.04425.16738.08465.26223.13082 1.087.52657 3.10707 1.51256 3.10707 3.64094 0 1.9791-1.75074 3.52782-3.98494 3.52782m56.81006-.9656c-.56023.35843-1.75323.95964-3.44855.95964-1.71707 0-3.32581-.66874-4.54036-1.8806-2.50585-2.50585-2.50585-6.58447 0-9.09033 1.21455-1.20973 2.8233-1.88078 4.54036-1.88078 2.41928 0 3.81409 1.22416 3.81409 1.22416l.51714 1.40193s-1.77478-1.56777-4.33123-1.56777c-1.42367 0-2.7775.55793-3.79255 1.57278-1.01234 1.01465-1.57258 2.36156-1.57258 3.79485s.56024 2.78231 1.57258 3.79235c1.01504 1.01254 2.36888 1.57047 3.79255 1.57047 1.89502 0 3.35717-.85863 3.98974-1.30824l-.54119 1.40674zm15.38777.96387c-1.50543 0-2.85465-.76224-3.60477-2.03681l-.08273-.14237.47847-1.22878.3511.56504c.76244 1.21936 1.65204 1.76516 2.88814 1.76516 1.61125 0 2.8258-1.08218 2.8258-2.51547 0-1.35153-1.49332-2.10896-2.48181-2.61167-.09812-.0481-.19047-.09619-.27666-.13852-.08272-.04425-.18084-.09234-.2957-.14236-.91384-.44019-2.82079-1.35403-2.82079-3.2731 0-1.79633 1.37788-3.09264 3.25848-3.09264 1.40693 0 2.34713.73589 2.34713.73589l.47866 1.24802s-1.47427-.90884-2.8739-.90884c-1.22877 0-2.11626.84881-2.11626 2.01757 0 1.1928 1.2384 1.81326 2.3327 2.35906l.20682.10197c.07696.04425.16353.08465.25973.13082 1.08699.52657 3.10706 1.51256 3.10706 3.64094 0 1.9791-1.75073 3.52782-3.98243 3.52782m-128.95825-.00173c-1.50544 0-2.85216-.76224-3.60478-2.03681l-.07888-.14237.47866-1.22878.35342.56504c.75763 1.21936 1.64973 1.76516 2.88582 1.76516 1.61125 0 2.8233-1.08218 2.8233-2.51547 0-1.35153-1.49101-2.10896-2.48181-2.61167-.09427-.0481-.18854-.09619-.27165-.13852-.08273-.04425-.18277-.09234-.2959-.14236-.91634-.44019-2.8256-1.35403-2.8256-3.2731 0-1.79633 1.37789-3.09264 3.25848-3.09264 1.40924 0 2.34963.73589 2.34963.73589l.47847 1.24802s-1.47658-.90884-2.87389-.90884c-1.22878 0-2.11858.84881-2.11858 2.01757 0 1.1928 1.2384 1.81326 2.33502 2.35906l.2045.10197c.07696.04425.16546.08465.25973.13082 1.087.52657 3.10937 1.51256 3.10937 3.64094 0 1.9791-1.75053 3.52782-3.98474 3.52782m62.77544-26.70615L91.05629 262.1124v12.85633h1.0918V264.7939l10.17733 10.82413v-13.10162h-1.09661v10.33604zm-30.60085 2.11531h1.0943v-12.4475h-1.0943v12.4475zm85.03203-4.92898c0 1.07987 0 2.20053-.5939 2.96528-.58929.76474-1.75804 1.11104-2.59493 1.11104-.83689 0-2.01045-.3463-2.59955-1.11354-.5941-.76475-.5941-1.8829-.5941-2.96278v-7.51987h-1.10141v7.74362c0 1.26976 0 2.36637.86574 3.42931.81284.92577 2.08991 1.47658 3.42932 1.47658 1.33229 0 2.61417-.5508 3.427-1.48139.86325-1.05813.86325-2.15474.86325-3.4245v-7.74362H155.66v7.51987zm-149.23152 4.0719c-2.96509 0-5.36763-2.40486-5.36763-5.36763 0-2.96509 2.40254-5.36763 5.36763-5.36763 2.96277 0 5.36762 2.40254 5.36762 5.36763 0 2.96277-2.40485 5.36762-5.36762 5.36762m0-11.79107c-3.54956 0-6.42326 2.87639-6.42326 6.42345 0 3.54956 2.8737 6.42576 6.42326 6.42576s6.42345-2.8762 6.42345-6.42576c0-3.54706-2.8739-6.42345-6.42345-6.42345m46.11348 11.79107c-2.96509 0-5.36763-2.40485-5.36763-5.36762 0-2.96509 2.40254-5.36763 5.36763-5.36763 2.96527 0 5.36512 2.40254 5.36512 5.36763 0 2.96277-2.39985 5.36762-5.36512 5.36762m0-11.79107c-3.54956 0-6.42326 2.87639-6.42326 6.42345 0 3.54956 2.8737 6.42576 6.42326 6.42576s6.42095-2.8762 6.42095-6.42576c0-3.54706-2.8714-6.42345-6.42095-6.42345m-35.51656 6.37747h3.50146v-1.04852H17.0254v-4.07862h4.67503l-.40151-1.05083h-5.37244v12.4475h1.09892v-6.26953zm26.78118 6.2703h1.13759l-5.02383-13.1424-4.0161 10.4659-4.00167-10.4659-5.04537 13.1424h1.13759l3.90778-10.2687 3.43182 9.0711.56504 1.4958 4.02091-10.5669 3.88624 10.2687zm19.54373 0h1.09662v-11.4013h3.21057v-1.0462h-7.11124l-.40402 1.0462h3.20807v11.4013zm18.24243-.8567c-2.96278 0-5.36763-2.40485-5.36763-5.36762 0-2.96509 2.40485-5.36763 5.36763-5.36763 2.96527 0 5.37012 2.40254 5.37012 5.36763 0 2.96277-2.40485 5.36762-5.37012 5.36762m0-11.79107c-3.54706 0-6.42326 2.87639-6.42326 6.42345 0 3.54956 2.8762 6.42576 6.42326 6.42576 3.54956 0 6.42576-2.8762 6.42576-6.42576 0-3.54706-2.8762-6.42345-6.42576-6.42345m81.10693 1.25494h-1.05813v4.615h1.16164c.76705 0 1.45733-.0404 2.09202-.51713.46904-.35342.748-1.02678.748-1.80364 0-.73338-.31262-1.65454-1.1903-2.04412-.48828-.23318-1.10623-.2501-1.75323-.2501m3.73483 11.39417l-3.6194-5.71873h-1.17356v5.71873h-1.0943v-12.4498h2.01064c.93058 0 1.9791 0 2.86408.64199.8417.5916 1.289 1.5416 1.289 2.74153 0 1.1399-.49059 2.15474-1.31786 2.71036-.3992.26434-.85382.4473-1.39231.5458l3.68173 5.81012h-1.24802zm-52.0931-11.39572h-1.05813v4.61732h1.16164c.76705 0 1.45484-.0404 2.09453-.51714.46904-.35092.748-1.02428.748-1.80114 0-.73338-.31032-1.65684-1.1905-2.04662-.48808-.23318-1.10853-.25242-1.75303-.25242m.1135 5.68026h-1.17356v5.71623h-1.0943v-12.45212h2.01545c.92828 0 1.9791 0 2.86178.6445.8465.5939 1.29361 1.54141 1.29361 2.74153 0 1.1422-.50732 2.133-1.32016 2.71248-.87056.61814-1.70264.63738-2.58281.63738m6.98753 5.7145h1.09661v-12.4475h-1.09661v12.4475zm19.77537-.00038h1.09661v-11.4013h3.20807v-1.0462h-7.10874l-.40632 1.0462h3.21038v11.4013zm29.14447-12.4475v12.4475h5.48787l.3992-1.04852h-4.78795v-5.09097h4.51861v-1.04851h-4.51861v-4.2133h5.61773l-.40171-1.0462h-6.31514zm-34.84396 11.68602c-.56024.36073-1.75074.96194-3.44606.96194-1.71475 0-3.32831-.67085-4.54517-1.8854-2.50585-2.50335-2.50585-6.57717 0-9.08302 1.21686-1.21204 2.83042-1.8806 4.54517-1.8806 2.41678 0 3.8116 1.22167 3.8116 1.22167l.51232 1.39962s-1.76766-1.56565-4.32392-1.56565c-1.42367 0-2.78.55562-3.79254 1.57046-1.01485 1.01966-1.57508 2.36387-1.57508 3.79486 0 1.4356.56023 2.78231 1.57508 3.79235 1.01253 1.01485 2.36887 1.57277 3.79254 1.57277 1.89252 0 3.35467-.86094 3.98724-1.30574l-.54118 1.40193zM83.55778 240.144h1.61837c1.52236 0 2.50104.31994 3.3814 1.11584.96656.88749 1.50063 2.11396 1.50063 3.45337 0 1.2409-.49078 2.41447-1.37576 3.30426-.8873.86825-1.93581 1.2409-3.50627 1.2409h-1.61837V240.144zm6.23818-.1039c-1.41405-1.31074-2.86408-1.57758-4.60288-1.57758h-3.3235v12.47386h3.3235c1.53198 0 3.15266-.1995 4.67252-1.65934 1.23379-1.1928 1.91446-2.81368 1.91446-4.5644 0-1.81327-.70472-3.47261-1.9841-4.67254m38.7758-1.57315l-3.2754 5.54308-3.27541-5.5479h-1.89502l4.33104 7.50083v4.97554h1.67627v-4.97554l4.33585-7.49601h-1.89733zm-26.67806 1.62722l-.62526-1.6305h-6.70472v12.47156h5.89188l.62295-1.6328H96.2423v-4.22291h4.43224v-1.633H96.2423v-3.35235h5.6514zM67.82583 241.2s-1.76747-1.24321-4.30218-1.24321c-1.26015 0-2.45295.4929-3.35236 1.39-.89711.89692-1.3877 2.09222-1.3877 3.35717 0 1.26496.49059 2.45526 1.3877 3.35237l.10196.10196c.8873.83439 2.03931 1.289 3.25136 1.289 2.29172 0 4.17-1.3877 4.17-1.3877l-.78647 2.0851c-.60122.36554-1.78921.99561-3.38353.99561-1.71476 0-3.33312-.66854-4.55248-1.8854-1.21204-1.21204-1.8806-2.8281-1.8806-4.54997 0-1.72188.66856-3.34044 1.8806-4.55248 1.21936-1.21686 2.83772-1.8854 4.55248-1.8854 1.84692 0 3.09494.70702 3.59515 1.05813l.70703 1.87578zm-18.09179 4.94938l1.61125-3.9632 1.60644 3.9632h-3.21769zm5.16081 4.77603h1.76035l-5.3076-13.05584-5.3074 13.05584h1.76034l1.2817-3.15036h4.54035l1.27938 3.15036zm17.86611-4.77603l1.60894-3.9632 1.60875 3.9632h-3.21769zm5.156 4.77603h1.76285l-5.3051-13.05584-5.3099 13.05584h1.76035l1.27938-3.15036h4.54285l1.27688 3.15036zm37.5728-13.05468l-3.766 9.26598-3.7708-9.26598-5.3074 13.05352h1.75804l3.54936-8.73672 3.7733 9.27791 3.76831-9.27791 3.55206 8.73672h1.75785l-5.3074-13.05352z"/></g></svg>