<svg xmlns="http://www.w3.org/2000/svg" role="img" viewBox="-7.39 -7.39 384.28 93.03"><title>Addresscloud logo</title><defs><style>.cls-1{fill:#2e2d2c}</style></defs><path d="M143.02 51.3a13.46 13.46 0 0 0-4.68-.81c-2.94 0-4.69 1.2-4.69 3.29v.08c0 1.93 1.75 3 4 3 3.1 0 5.42-1.74 5.42-4.3zm-.11 8.67v-2.51a8.29 8.29 0 0 1-6.62 2.94c-3.88 0-7.28-2.21-7.28-6.31v-.08c0-4.41 3.52-6.58 8.28-6.58a17.24 17.24 0 0 1 5.65.85v-.51c0-2.82-1.78-4.37-5-4.37a14.29 14.29 0 0 0-5.84 1.27l-1.33-3.74a17.46 17.46 0 0 1 7.78-1.7c6 0 9 3.17 9 8.63v12.11zm18.23-16.79c-3.22 0-5.88 2.47-5.88 6.58s2.7 6.58 5.88 6.58 5.92-2.6 5.92-6.58-2.79-6.58-5.92-6.58m5.84 16.79v-3.4a8.18 8.18 0 0 1-7 3.83c-4.8 0-9.49-3.83-9.49-10.64s4.61-10.65 9.49-10.65a8.44 8.44 0 0 1 7 3.6V31.77h4.69v28.2zm18.3-16.79c-3.22 0-5.89 2.47-5.89 6.58s2.71 6.58 5.89 6.58 5.92-2.6 5.92-6.58-2.79-6.58-5.92-6.58m5.84 16.79v-3.4a8.18 8.18 0 0 1-7 3.83c-4.8 0-9.48-3.83-9.48-10.64s4.6-10.65 9.48-10.65a8.45 8.45 0 0 1 7 3.6V31.77h4.65v28.2zm12.37 0h-4.72V39.54h4.68v4.6c1.28-3.05 3.64-5.15 7.24-5v5h-.27c-4.11 0-7 2.68-7 8.09zm23.84-11.65c-.3-3-2.09-5.38-5.18-5.38-2.87 0-4.88 2.21-5.31 5.38zm-4.56 8.29a7.43 7.43 0 0 0 5.53-2.44l2.75 2.44a10.35 10.35 0 0 1-8.36 3.83 10.21 10.21 0 0 1-10.49-10.67c0-5.88 4.14-10.68 10-10.68 6.5 0 9.79 5.11 9.79 11 0 .43 0 .82-.08 1.28h-15a5.74 5.74 0 0 0 5.86 5.24m19.83 3.75a14.33 14.33 0 0 1-8.67-3.06l2.09-3.17a11.46 11.46 0 0 0 6.7 2.52c2 0 3.17-.85 3.17-2.21v-.08c0-1.58-2.17-2.13-4.56-2.86-3-.85-6.39-2.09-6.39-6v-.08c0-3.87 3.21-6.23 7.28-6.23a14.21 14.21 0 0 1 7.55 2.32l-1.86 3.33a11.91 11.91 0 0 0-5.77-1.94c-1.82 0-2.87.86-2.87 2.06v.07c0 1.47 2.21 2.09 4.61 2.87 3 .93 6.35 2.28 6.35 6v.08c0 4.29-3.33 6.42-7.59 6.42m18.13-.04a14.29 14.29 0 0 1-8.67-3.06l2.09-3.17a11.41 11.41 0 0 0 6.69 2.52c2 0 3.18-.85 3.18-2.21v-.08c0-1.58-2.17-2.13-4.57-2.86-3-.85-6.39-2.09-6.39-6v-.08c0-3.87 3.22-6.23 7.28-6.23a14.21 14.21 0 0 1 7.51 2.32l-1.86 3.33a11.84 11.84 0 0 0-5.77-1.94c-1.82 0-2.86.86-2.86 2.06v.07c0 1.47 2.21 2.09 4.61 2.87 3 .93 6.34 2.28 6.34 6v.08c0 4.29-3.32 6.42-7.58 6.42m20.67.04a10.16 10.16 0 0 1-10.06-10.26v-.08a10.25 10.25 0 0 1 10.06-10.33 10.35 10.35 0 0 1 7.9 3.64l-1.36 1.36c-1.7-1.74-3.64-3.25-6.58-3.25-4.49 0-8 3.75-8 8.48v.07a8.31 8.31 0 0 0 8.13 8.56 8.8 8.8 0 0 0 6.61-3.29l1.32 1.16a10.17 10.17 0 0 1-8.05 3.91" class="cls-1"/><path d="M292.52 31.72h1.9v28.26h-1.9z" class="cls-1"/><path d="M315.62 50.1a8.27 8.27 0 0 0-8.13-8.55c-4.68 0-8.05 3.83-8.05 8.48v.07a8.28 8.28 0 0 0 8.13 8.56c4.68 0 8.05-3.83 8.05-8.48zm-8.13 10.34a10.09 10.09 0 0 1-10.1-10.26v-.08a10.2 10.2 0 0 1 10.18-10.33 10.1 10.1 0 0 1 10.11 10.26v.07a10.21 10.21 0 0 1-10.19 10.34m28.19-.47V56.3a7.75 7.75 0 0 1-7.13 4.14c-5 0-7.89-3.41-7.89-8.13V40.23h1.89v11.73c0 4.07 2.29 6.74 6.28 6.74a6.77 6.77 0 0 0 6.85-7.05V40.23h1.89v19.74zm22.72-9.9a8.25 8.25 0 0 0-8.05-8.48c-4.3 0-7.75 3.13-7.75 8.44v.07c0 5.19 3.61 8.52 7.75 8.52a8.27 8.27 0 0 0 8.05-8.48zm-.12 9.9v-4.41c-1.7 2.6-4.22 4.88-8.13 4.88-4.76 0-9.6-3.83-9.6-10.26v-.08c0-6.42 4.84-10.33 9.6-10.33a9.48 9.48 0 0 1 8.13 4.72V31.77h1.9v28.2zm8.25-26.2h-.85v1.1h.85c.43 0 .69-.21.69-.55s-.26-.55-.69-.55m.56 1.56l.93 1.3h-.79l-.83-1.19h-.72v1.19h-.66V33.2h1.54c.8 0 1.33.41 1.33 1.1a1 1 0 0 1-.8 1m-.73-3.29a3 3 0 1 0 2.94 2.95 2.93 2.93 0 0 0-2.94-2.95m0 6.25a3.27 3.27 0 0 1-3.28-3.28 3.3 3.3 0 1 1 3.28 3.28" class="cls-1"/><path fill="#623d91" d="M105.5 22.95a32.36 32.36 0 0 0-25.11-9.43 35.7 35.7 0 0 1-5.4 44.59L54.77 78.4h27.35a32.46 32.46 0 0 0 23.43-55.42"/><path fill="#009cdc" d="M14.35 30.77a24.7 24.7 0 0 0-7 4.91A25 25 0 0 0 25.4 78.37h20L25.12 58.08A35.45 35.45 0 0 1 14.3 32.47v-1.75"/><path fill="#e94278" d="M50.07 43.31a10.84 10.84 0 1 1 10.84-10.84 10.85 10.85 0 0 1-10.84 10.84m0-43.31a32.46 32.46 0 0 0-22.62 55.77l22.64 22.65 22.6-22.65A32.46 32.46 0 0 0 50.07 0"/></svg>