<svg xmlns="http://www.w3.org/2000/svg" role="img" viewBox="-13.08 -13.08 680.16 680.16"><title>Adhara Limited (member) logo</title><defs><linearGradient id="a" x1="0" x2="1" y1="0" y2="0" gradientTransform="scale(6618.5 -6618.5) rotate(45.551 .878 -.343)" gradientUnits="userSpaceOnUse" spreadMethod="pad"><stop offset="0" stop-color="#29499e"/><stop offset="1" stop-color="#4f2991"/></linearGradient></defs><path fill="url(#a)" d="M0 4907.95h4907.95V0H0v4907.95" transform="matrix(.13333 0 0 -.13333 0 654.387)"/><path fill="#fff" d="M140.9538 525.44902l4.85322-11.12652 4.85321 11.12652zm2.16529-16.61305l-11.72184 26.13108h5.338l2.23994-4.92747h13.66366l2.20261 4.92747h5.37587l-11.72238-26.13108h-5.37586m75.43545 21.3916H213.18v-16.72505h5.37454c5.67585 0 8.06513 4.06923 8.17712 8.13727.112 4.25722-2.24127 8.58778-8.17712 8.58778zm0-21.3916h-10.26508v26.13108h10.26508c9.14643 0 13.17967-6.68103 13.06767-13.28873-.112-6.4585-4.1079-12.84235-13.06767-12.84235m79.518 11.0504H285.2302v-11.0144h-4.92787v26.13415h4.92787v-10.56534h12.84235v10.56534h4.89054v-26.13415h-4.89054v11.0144m61.78512 5.56265l4.85321-11.12652 4.85321 11.12652zm2.16528-16.61305l-11.72237 26.13108h5.33853l2.23994-4.92747h13.66366l2.20128 4.92747h5.3772l-11.72238-26.13108h-5.37586m69.63426 12.95434v-8.36379h7.50381c3.09859 0 4.47989 2.09195 4.47989 4.18257 0 2.08928-1.34397 4.18122-4.47989 4.18122zm16.91158-4.29322c0-4.51855-3.24792-8.62512-9.40777-8.66112-4.1439 0-8.2878-.03866-12.43036-.03866v26.16974h4.92655v-8.73418h4.74121l7.61581 8.73418h5.86119v-.33586l-7.91447-8.92217c4.96521-1.00838 6.60784-4.62962 6.60784-8.21193m55.5746 7.95193l4.85322-11.12652 4.85188 11.12652zm7.53982-16.61305h-5.37453l-11.72238 26.13108h5.33853l2.23995-4.92747h13.66366l2.20128 4.92747h5.37586l-11.72237-26.13108"/><path fill="#fff" fill-rule="evenodd" d="M328.92778 113.2032c-2.31328-4.44923-6.08252-4.4439-8.38113.016L155.70277 433.30053c-2.2986 4.46255-.076 8.11046 4.94255 8.11046h48.80411c5.01587 0 10.96773-3.66657 13.22367-8.14646l97.85622-194.14715c2.25594-4.48122 5.95185-4.48122 8.21046 0l67.26632 133.45933c2.25861 4.48122 0 8.13447-5.0132 8.12513l-70.83824-.15466c-5.01454-.012-10.99839 3.62924-13.29567 8.08513l-22.8421 44.3589c-2.29727 4.45855-.07199 8.11312 4.94255 8.12246l132.57802.19999c5.01588.00667 9.1291.03067 9.13977.05467.01334.02133 4.12523.04266 9.14244.04266h50.46674c5.01587 0 7.22915-3.64124 4.91588-8.0958l-166.27451-320.112"/></svg>