<svg xmlns="http://www.w3.org/2000/svg" role="img" viewBox="-0.40 -0.40 27.50 7.62"><title>Adtran Holdings, Inc. logo</title><g id="layer1" transform="translate(-92.597 -145.263)"><path id="path26967" fill="#00c8e6" fill-opacity="1" fill-rule="evenodd" stroke-width=".265" d="m 103.02783,145.39557 c 0.23041,0 0.41718,0.18495 0.41718,0.41314 l -0.004,5.66129 c 0,0.22009 -0.17012,0.40083 -0.38726,0.42023 l -0.0388,0.002 c -0.23532,0 -0.42608,-0.18891 -0.42608,-0.42196 v -0.17344 c -0.51578,0.47123 -0.97057,0.70967 -1.651,0.70967 -0.69241,0 -1.264941,-0.23873 -1.717631,-0.71642 -0.452731,-0.47759 -0.679081,-1.06507 -0.679081,-1.76257 0,-0.68568 0.22635,-1.26729 0.67908,-1.74498 0.45269,-0.47759 1.019242,-0.71642 1.699852,-0.71642 0.68043,0 1.14589,0.22714 1.6688,0.70406 l 0.004,-1.96118 c 0,-0.22819 0.18679,-0.41314 0.4172,-0.41314 z m -6.960522,0.27271 2.4815,5.61687 c 0.12897,0.29056 -0.0759,0.60679 -0.42272,0.60679 h -0.003 c -0.20186,0 -0.3831,-0.11169 -0.45654,-0.2814 l -2.00474,-4.68539 -1.02997,2.42365 h -0.0548 c -0.47863,0 -0.76483,-0.3536 -0.58534,-0.79301 l 1.26148,-2.88594 c 0.15408,-0.35246 0.6584,-0.35342 0.81386,-0.002 z m -1.80287,4.59168 -0.61686,1.35059 c -0.0734,0.16971 -0.25468,0.28139 -0.45654,0.28139 -0.34757,0 -0.55246,-0.31744 -0.42207,-0.60822 l 0.2578,-0.57502 c 0.10313,-0.25248 0.35713,-0.44874 0.63213,-0.44874 z m 6.712622,-2.36858 c -0.47041,0 -0.85054,0.1591 -1.140092,0.47721 -0.28979,0.3182 -0.43457,0.70443 -0.43457,1.15892 0,0.46587 0.14478,0.85785 0.43457,1.17596 0.289552,0.3182 0.669682,0.47721 1.140092,0.47721 0.47028,0 0.85035,-0.15901 1.14013,-0.47721 0.28956,-0.31811 0.4345,-0.71009 0.4345,-1.17596 0,-0.45449 -0.14494,-0.84072 -0.4345,-1.15892 -0.28978,-0.31811 -0.66985,-0.47721 -1.14013,-0.47721 z m -5.318512,1.30514 c 0.33899,0 0.61381,0.27215 0.61381,0.60787 0,0.33571 -0.27482,0.60787 -0.61381,0.60787 -0.33899,0 -0.6138,-0.27216 -0.6138,-0.60787 0,-0.33572 0.27481,-0.60787 0.6138,-0.60787 z m 10.978662,2.10904 c 0.0917,0.18661 0.0149,0.41359 -0.17389,0.50364 -0.27543,0.13136 -0.59064,0.19703 -0.94557,0.19703 -0.50309,0 -0.88186,-0.15383 -1.13621,-0.46152 -0.25455,-0.30766 -0.38169,-0.74285 -0.38169,-1.30544 v -2.33833 l 0.009,-0.72083 6.9e-4,-1.36226 c 0,-0.22815 0.18679,-0.41314 0.4172,-0.41314 0.23042,0 0.41717,0.18499 0.41717,0.41314 l -6.6e-4,1.36226 h 1.19356 c 0.20098,0 0.36393,0.16137 0.36393,0.36041 0,0.19905 -0.16295,0.36042 -0.36393,0.36042 h -1.19359 v 2.39988 c 0,0.62125 0.25745,0.93182 0.77229,0.93182 0.17443,0 0.35374,-0.0373 0.53798,-0.11197 0.18472,-0.0748 0.39652,0.007 0.48383,0.18489 m 5.31329,-4.23975 c 0.67459,0 1.17856,0.24125 1.67766,0.70405 v -0.1854 c 0,-0.21092 0.16307,-0.38411 0.37113,-0.4027 l 0.0372,-0.002 c 0.22551,0 0.40833,0.18102 0.40833,0.40435 v 3.90312 c 0,0.22333 -0.18282,0.40438 -0.40833,0.40438 -0.22547,0 -0.4083,-0.18105 -0.4083,-0.40438 v -0.19985 c -0.43514,0.4519 -0.98528,0.7185 -1.67765,0.7185 -0.68062,0 -1.24715,-0.2402 -1.69985,-0.72086 -0.45273,-0.48047 -0.67907,-1.07533 -0.67907,-1.78453 0,-0.70326 0.2248,-1.2848 0.67462,-1.74497 0.44966,-0.46002 1.01774,-0.69006 1.7043,-0.69006 z m -2.69227,-0.009 c 0.0472,0 0.0943,10e-4 0.1412,0.004 0.21789,0.0136 0.38403,0.1939 0.38306,0.40585 l -0.002,0.0377 c -0.0214,0.21844 -0.21467,0.38 -0.43573,0.36447 -0.035,-0.002 -0.0699,-0.004 -0.10434,-0.004 -0.37878,0 -0.65875,0.129 -0.90423,0.38684 -0.24562,0.25794 -0.40066,0.67079 -0.40066,1.17478 v 2.04266 c 0,0.2201 -0.17016,0.40083 -0.38727,0.42023 l -0.0388,0.002 c -0.23532,0 -0.42608,-0.18891 -0.42608,-0.42196 v -3.88995 c 0,-0.2086 0.16129,-0.37992 0.36712,-0.39831 l 0.0368,-0.002 c 0.22302,0 0.40384,0.17908 0.40384,0.39995 v 0.19864 c 0.26473,-0.42238 0.76204,-0.7217 1.36705,-0.7217 z m 2.74151,0.83324 c -0.47079,0 -0.84963,0.15923 -1.13661,0.47753 -0.2871,0.31843 -0.43053,0.70776 -0.43053,1.16823 0,0.46049 0.14343,0.84995 0.43053,1.16829 0.28698,0.31842 0.66582,0.47752 1.13661,0.47752 0.47064,0 0.85244,-0.1591 1.1452,-0.47752 0.29275,-0.31834 0.43911,-0.71061 0.43911,-1.17679 0,-0.45478 -0.14636,-0.8413 -0.43911,-1.15973 -0.29275,-0.3183 -0.67455,-0.47753 -1.1452,-0.47753 z m 2.97672,3.59735 v -3.90312 c 0,-0.22333 0.18282,-0.40435 0.40833,-0.40435 h 0.0178 c 0.22548,0 0.4083,0.18102 0.4083,0.40435 v 0.16783 c 0.35954,-0.45228 0.80472,-0.6953 1.509,-0.6953 0.53258,0 0.97934,0.17006 1.34037,0.50987 0.36093,0.33996 0.54149,0.82938 0.54149,1.46808 v 2.45264 c 0,0.22333 -0.18282,0.40435 -0.40833,0.40435 h -0.0266 c -0.22551,0 -0.40833,-0.18102 -0.40833,-0.40435 v -2.21531 c 0,-0.45711 -0.11248,-0.81008 -0.33728,-1.05929 -0.22495,-0.24902 -0.48563,-0.37358 -0.84649,-0.37358 -0.38478,0 -0.69992,0.13485 -0.9454,0.40435 -0.24562,0.26963 -0.40065,0.64733 -0.40065,1.06929 v 2.17454 c 0,0.22333 -0.18279,0.40435 -0.4083,0.40435 h -0.0355 c -0.22551,0 -0.40833,-0.18102 -0.40833,-0.40435"/></g></svg>