<svg xmlns="http://www.w3.org/2000/svg" role="img" viewBox="-356.14 45.36 410.28 124.28"><title>Adva Optical Networking SE logo</title><style>.st376{fill:#004a8e}.st376,.st377{fill-rule:evenodd;clip-rule:evenodd}.st377,.st378{fill:#507178}</style><style>.st376{fill:#004a8e}.st376,.st377{fill-rule:evenodd;clip-rule:evenodd}.st377,.st378{fill:#507178}</style><style>.st376{fill:#004a8e}.st376,.st377{fill-rule:evenodd;clip-rule:evenodd}.st377,.st378{fill:#507178}</style><style>.st376{fill:#004a8e}.st376,.st377{fill-rule:evenodd;clip-rule:evenodd}.st377,.st378{fill:#507178}</style><style>.st376{fill:#004a8e}.st376,.st377{fill-rule:evenodd;clip-rule:evenodd}.st377,.st378{fill:#507178}</style><style>.st376{fill:#004a8e}.st376,.st377{fill-rule:evenodd;clip-rule:evenodd}.st377,.st378{fill:#507178}</style><style>.st376{fill:#004a8e}.st376,.st377{fill-rule:evenodd;clip-rule:evenodd}.st377,.st378{fill:#507178}</style><style>.st376{fill:#004a8e}.st376,.st377{fill-rule:evenodd;clip-rule:evenodd}.st377,.st378{fill:#507178}</style><style>.st376{fill:#004a8e}.st376,.st377{fill-rule:evenodd;clip-rule:evenodd}.st377,.st378{fill:#507178}</style><style id="style268">.st376{fill:#004a8e}.st376,.st377{fill-rule:evenodd;clip-rule:evenodd}.st377,.st378{fill:#507178}</style><path id="path270" d="M-187.55 102.07c.86-14.52 1.56-33.04 1.56-48.5h37.02c17.06 0 31.82 7.18 31.82 32.24 0 6.49-1 11.84-2.68 16.26h-24.25c3.48-4.12 5.09-10.02 5.09-16.57 0-12.69-7.07-17.05-15.39-17.05h-11.23l-1.5 33.62zm33.8 20.87h-35.46c.4-3.23.85-8.42 1.28-14.78h65.05c-9.6 14.78-28.11 14.78-30.87 14.78zm-94.66-28.55l20.31-.03-8.18-25.81zm-24.84 7.68c9.56-17.82 21.21-40.41 25.01-48.5h26.21c5.59 16.26 11.48 32.41 17.53 48.5zm71.04 6.09c1.87 4.93 3.75 9.86 5.65 14.78h-23.09c-1.31-5-2.96-9.89-4.69-14.78zm-51.95 0l-6.78 14.78h-23.91c1.9-3.13 4.86-8.43 8.32-14.78z" class="st376"/><path id="path272" d="M-342.68 146.7c0 4.58 2.74 10.12 10.81 10.12s10.81-5.54 10.81-10.12c0-4.58-2.74-10.12-10.81-10.12s-10.81 5.54-10.81 10.12zm2.93 0c0-4.74 3.22-7.93 7.88-7.93s7.88 3.19 7.88 7.93-3.22 7.93-7.88 7.93-7.88-3.19-7.88-7.93zm23.9 14.72h2.61v-6.87c1.65 1.76 3.73 2.26 5.86 2.26 3.99 0 7.45-2.85 7.45-7.19s-3.46-7.19-7.45-7.19c-2.37 0-4.5.85-5.86 2.39 0-.77-.05-1.38-.11-1.89h-2.61c.05 1.06.11 2.02.11 3.04zm2.61-11.79c0-3.38 2.18-5.38 5.27-5.38 3.11 0 5.27 2 5.27 5.38s-2.16 5.38-5.27 5.38c-3.09 0-5.27-2-5.27-5.38z" class="st377"/><path id="path274" d="M-293.26 142.95h-3.49v1.81h3.49v7.88c0 2.98 1.49 3.83 4.13 3.83.8 0 1.65-.05 2.5-.16v-1.81c-.75.11-1.52.16-2 .16-1.62 0-2.02-.77-2.02-2.21v-7.69h3.94v-1.81h-3.94v-3.54l-2.61 1.09z" class="st378"/><path id="path276" d="M-282.14 156.31h2.61v-13.36h-2.61zm0-16.56h2.61v-2.66h-2.61z" class="st377"/><path id="path278" d="M-262.5 152c-.13 1.86-1.78 3.01-4.23 3.01-3.3 0-4.98-2.5-4.98-5.35 0-3.57 2.29-5.4 5.11-5.4 2.18 0 3.75 1.01 3.99 2.95h2.77c-.45-3.49-3.57-4.76-6.79-4.76-4.82 0-7.85 2.71-7.85 7.21 0 4.31 2.64 7.16 7.61 7.16 3.41 0 6.87-1.44 7.13-4.82z" class="st378"/><path id="path280" d="M-252.11 146.43c.13-1.46 1.68-2.18 3.51-2.18 2.58 0 4.18.8 4.18 3.35v.37c-1.23 0-2.58 0-4.55.05-4.74.13-6.87 1.6-6.87 4.42 0 2.5 2.32 4.37 5.7 4.37 2.61 0 4.31-.37 5.83-2.37h.05c0 .61.03 1.25.11 1.86h2.45c-.08-.72-.11-1.54-.11-2.56v-6.58c0-3.33-2.71-4.74-6.42-4.74-2.9 0-6.34.83-6.65 3.99h2.77zm7.7 3.97c0 3.22-1.81 4.61-5.03 4.61-2.53 0-3.62-1.3-3.62-2.64 0-1.94 1.78-2.4 4.5-2.5 2-.08 3.27-.08 4.15-.08z" class="st377"/><path id="path282" d="M-236.04 156.31h2.61v-19.22h-2.61zm35.18-2.82h-.05l-11.77-16.4h-3.78v19.22h2.77v-16.4h.05l11.77 16.4h3.78v-19.22h-2.77z" class="st378"/><path id="path284" d="M-190.52 148.51c.4-2.95 2.32-4.26 5-4.26 2.29 0 4.58 1.17 4.63 4.26zm12.41 1.01c0-4.52-2.61-7.08-7.35-7.08-4.85 0-7.77 2.58-7.77 7.45 0 4.23 2.8 6.92 7.69 6.92 2.96 0 6.58-.96 7.11-4.53h-2.77c-.59 1.92-2.58 2.72-4.47 2.72-2.93 0-4.69-1.94-4.95-4.69h12.51z" class="st377"/><path id="path286" d="M-171.63 142.95h-3.49v1.81h3.49v7.88c0 2.98 1.49 3.83 4.13 3.83.8 0 1.65-.05 2.5-.16v-1.81c-.75.11-1.52.16-2 .16-1.62 0-2.02-.77-2.02-2.21v-7.69h3.94v-1.81h-3.94v-3.54l-2.61 1.09zm14.82 13.36h3.19l5.14-11.18 5.24 11.18h3.38l5.97-13.36h-2.69l-4.88 11.18-5.21-11.18h-3.3l-5.09 11.02-4.79-11.02h-3.01z" class="st378"/><path id="path288" d="M-114.48 149.63c0-4.58-2.93-7.19-8.36-7.19-5.59 0-8.36 2.85-8.36 7.19 0 4.58 2.93 7.19 8.36 7.19 5.44 0 8.36-2.61 8.36-7.19zm-8.35-5.38c3.65 0 5.59 2.34 5.59 5.38 0 3.03-1.94 5.38-5.59 5.38s-5.59-2.34-5.59-5.38c-.01-3.04 1.94-5.38 5.59-5.38z" class="st377"/><path id="path290" d="M-109.61 156.31h2.61v-6.47c0-2.69 1.73-4.9 4.87-4.9.48 0 .85.03 1.25.16v-2.34h-.88c-2.98 0-4.15.69-5.35 2.85h-.05c0-.91-.05-1.86-.11-2.66h-2.45c.05 1.06.11 2.02.11 3.04zm12.92 0h2.61v-7.4l8.25 7.4h3.89l-8.7-7.59 7.42-5.77h-3.72l-7.14 5.48v-11.34h-2.61z" class="st378"/><path id="path292" d="M-78.04 156.31h2.61v-13.36h-2.61zm0-16.56h2.61v-2.66h-2.61z" class="st377"/><path id="path294" d="M-69.42 156.31h2.61V150c0-4.23 2.82-5.75 5.3-5.75 2.5 0 4.29 1.62 4.29 4.6v7.45h2.61v-7.59c0-4.18-2.72-6.28-6.47-6.28-2.4 0-4.31.83-5.83 2.87h-.05c0-.93-.05-1.7-.11-2.37h-2.45c.05 1.06.11 2.02.11 3.04v10.34z" class="st378"/><path id="path296" d="M-49.27 157.24c.16 3.04 2.1 4.55 7.19 4.55 5.51 0 8.17-1.94 8.17-7.35v-8.92c0-1.04.05-1.81.11-2.58h-2.45c-.08.61-.11 1.2-.11 1.81-1.6-1.62-3.38-2.32-5.73-2.32-4.5 0-7.67 2.71-7.67 6.81s3.17 6.82 7.67 6.82c2.16 0 4.23-.75 5.51-2.34h.05v.93c0 3.09-1.04 5.32-5.75 5.32-2.95 0-4.15-1.28-4.23-2.74h-2.76zm2.29-8.04c0-2.93 1.78-4.95 5.19-4.95 3.51 0 5.27 2.02 5.27 4.95 0 3.04-1.76 5.06-5.27 5.06-3.41 0-5.19-2.02-5.19-5.06z" class="st377"/><path id="path298" d="M-75.69 102.07c6.6-16.18 15-31.97 21.65-48.5h22.77c-8.39 16.12-16.72 32.24-24.79 48.5zm-22.36 0c-5.52-16.21-11.36-32.33-17.04-48.5h22.46c5.87 21.53 10.45 32.47 14.7 48.5zm31.83 20.87h-24.96c-1.57-4.94-3.18-9.87-4.82-14.78h36.93c-2.41 4.91-4.79 9.84-7.15 14.78z" class="st376"/><path id="path300" fill="#ee403d" d="M-342.44 121.03c-2.93-3.61-4.92-8.03-5.57-12.87h15.37c.25.74.57 1.44.96 2.09zm45.89-12.87c-1.71 12.68-12.57 22.47-25.73 22.47-6.03 0-11.58-2.06-15.99-5.51l10.83-10.83c1.53.82 3.29 1.29 5.15 1.29 4.81 0 8.89-3.11 10.34-7.43h15.4zm-41.96-23.75c4.44-3.56 10.09-5.7 16.23-5.7 13.46 0 24.53 10.25 25.83 23.37h-15.24c-1.17-4.77-5.47-8.31-10.6-8.31-1.97 0-3.82.52-5.42 1.44zm-9.6 17.66c.5-5.08 2.48-9.74 5.48-13.53l10.81 10.81c-.47.84-.84 1.75-1.07 2.72z"/><path id="path302" d="M-11.69 94.36l20.31-.03L.44 68.52zm-24.86 7.71c9.56-17.83 21.22-40.44 25.02-48.53h26.21c5.59 16.26 11.49 32.43 17.54 48.53zm71.08 6.09c1.87 4.92 3.75 9.84 5.63 14.75H17.08c-1.3-4.99-2.95-9.87-4.68-14.75zm-51.98 0l-6.76 14.75h-23.92c1.9-3.12 4.85-8.41 8.3-14.75zm45.51-44.87h2.12v-8.27h2.93v-1.63h-7.98v1.63h2.93zm16.44 0h1.97v-9.9h-2.98l-2.59 6.75-2.6-6.75h-2.98v9.9h1.97v-7.5h.05l2.81 7.5h1.49l2.81-7.5h.05z" class="st376"/></svg>