<svg xmlns="http://www.w3.org/2000/svg" role="img" viewBox="1.25 -2.00 104.00 43.13"><title>Advanced Driver Information Technology Corporation logo</title><defs><clipPath id="a"><path fill="none" d="M12.94.08l-9.57 39h8.71l1.48-7.23h9.79l1.42 7.23h8.6l-9.56-39zm23.53 0v39h10.42c11.27 0 17.14-7 17.14-19.44C64 7.43 58.39.08 46.95.08zm31.81 0v39h8.43v-39zm11.07 0v7.23H87v31.77h8.54V7.31h7.69V.08zM18.46 6.8h.23l.4 3.73L22 25.12h-7.07l3-14.58zm26.21.2h2.16c5.92 0 8.71 4.35 8.71 12.49 0 8.31-3.08 12.6-9.23 12.6h-1.64z"/></clipPath></defs><path d="M87 39.08h8.54V7.31h7.69V.08H79.35v7.23H87zm-18.72 0h8.43v-39h-8.43zm-31.81 0h10.42c11.27 0 17.14-7 17.14-19.44C64 7.43 58.39.08 46.95.08H36.47zm8.2-7V7h2.16c5.92 0 8.71 4.35 8.71 12.49 0 8.31-3.08 12.6-9.22 12.6zm-19.89 7h8.6l-9.57-39H12.94l-9.57 39h8.71l1.48-7.23h9.79zm-9.85-14l3-14.58.51-3.73h.23l.4 3.73L22 25.12z" fill="#ed1b24"/><g clip-path="url(#a)"><path fill="#cc2229" stroke="#fff" stroke-width="1.191" d="M87.22 18.83c-3.62-1-8.9-3.38-10.27-3.88s-7-2.13-8.43-2.38-4.56-.46-5.07-.48-2-.08-3.07-.07a30.07 30.07 0 0 0-5.53.48m32.37 6.33c.92.31 1.86.61 2.81.88a45.4 45.4 0 0 0 5.74 1C112 22.62 116 26.73 114.82 40L1 40.52C-.2 36.6.82 29.81 6.42 27.22c2.17-1.42 7.45-3.16 9-3.59a57.69 57.69 0 0 1 6.29-1.27c1.23-.13 6.48-.41 7.74-.45a57.65 57.65 0 0 0 7.25-.4c1.49-.36 6.9-3.27 8.2-4.15a53.08 53.08 0 0 1 9.94-4.87"/></g><path d="M87 39.08h8.54V7.31h7.69V.08H79.35v7.23H87zm-18.72 0h8.43v-39h-8.43zm-31.81 0h10.42c11.27 0 17.14-7 17.14-19.44C64 7.43 58.39.08 46.95.08H36.47zm8.2-7V7h2.16c5.92 0 8.71 4.35 8.71 12.49 0 8.31-3.08 12.6-9.22 12.6zm-19.89 7h8.6l-9.57-39H12.94l-9.57 39h8.71l1.48-7.23h9.79zm-9.85-14l3-14.58.51-3.73h.23l.4 3.73L22 25.12z" fill="none" stroke="#fff" stroke-width=".158"/></svg>