<svg xmlns="http://www.w3.org/2000/svg" role="img" viewBox="-2.27 -1.65 163.80 36.05"><title>aeolabs logo</title><style>svg {fill-rule:evenodd;clip-rule:evenodd;stroke-linecap:round;stroke-linejoin:round;stroke-miterlimit:1.5}</style><circle cx="368.597" cy="90.999" r="11.729" fill="#002880" transform="translate(-99.668 -22.93) scale(.30829)"/><circle cx="368.597" cy="90.999" r="11.729" fill="#ff005c" transform="translate(-52.841 .047) scale(.15112)"/><circle cx="368.597" cy="90.999" r="11.729" fill="#ff005c" transform="translate(-20.34 6.747) scale(.15112)"/><circle cx="368.597" cy="90.999" r="11.729" fill="#42dfff" transform="translate(-89.869 -19.203) scale(.30829)"/><circle cx="368.597" cy="90.999" r="11.729" fill="#42dfff" transform="translate(-82.7 -.398) scale(.30829)"/><circle cx="368.597" cy="90.999" r="11.729" fill="#42dfff" transform="translate(-69.372 -2.512) scale(.30829)"/><circle cx="368.597" cy="90.999" r="11.729" fill="#002880" transform="translate(-109.075 -5.698) scale(.30829)"/><circle cx="368.597" cy="90.999" r="11.729" fill="#002880" transform="translate(-93.643 -8.865) scale(.30829)"/><path fill="none" stroke="#002880" stroke-width="1.885" d="M14.16936 4.97823L4.63917 22.27657m9.4136-17.05763l5.79124 13.96275"/><path fill="none" stroke="#42dfff" stroke-width="1.885" d="M23.90277 9.29294l7.16797 18.29353m.00304.09196l13.06638-1.89963"/><path fill="#002880" fill-rule="nonzero" d="M62.02303 22.287h4.84307L61.52975 6.59185h-5.04487L51.12611 22.287h4.84307l.49328-1.81615h5.06729l.49328 1.81615zm-4.6637-5.20182l1.63677-6.09869 1.63678 6.09869h-3.27356zM68.36814 22.287h10.08974v-3.49778h-5.42604V16.1659h5.42604v-3.34082h-5.42604v-2.73544h5.42604V6.59185H68.36814V22.287zm20.2702.49328c5.44846 0 8.65476-3.87895 8.65476-8.34085 0-4.46191-3.2063-8.34085-8.65476-8.34085-5.44846 0-8.65475 3.87894-8.65475 8.34085 0 4.4619 3.2063 8.34085 8.65475 8.34085zm0-4.17043c-2.51122 0-3.78925-1.92826-3.78925-4.17042 0-2.24217 1.27803-4.17043 3.78925-4.17043 2.53365 0 3.81168 1.92826 3.78926 4.17043.02242 2.24216-1.25561 4.17042-3.78926 4.17042zm10.4698 3.67715h10.00005v-4.01347h-5.33635V6.59185h-4.6637V22.287z"/><path d="M111.97795 22.287h8.43053v-.9417h-7.44398V6.59184h-.98655V22.287zm20.60576 0h1.05382l-5.35877-15.69515h-.91929L122.0007 22.287h1.05381l1.05382-3.22872h7.39914l1.07624 3.22872zm-8.16148-4.148l3.38567-10.26911 3.4081 10.2691h-6.79377zm18.36252-3.76684c1.72647-.3139 2.93724-1.61436 2.93724-3.74441 0-2.53365-1.81615-4.0359-4.57402-4.0359h-5.00002V22.287h5.06729c2.78028 0 4.61886-1.56951 4.61886-4.12558 0-2.10764-1.3453-3.49778-3.04935-3.78926zm-1.6592-6.88344c2.19732 0 3.60989 1.16592 3.60989 3.22871 0 1.99553-1.39015 3.22872-3.18388 3.22872h-4.41706V7.48872h3.99105zm.08969 13.90141h-4.08074v-6.54711h4.50675c1.79373 0 3.2063 1.30045 3.2063 3.25113 0 2.08522-1.435 3.29598-3.63231 3.29598zm12.2423 1.21077c3.1166 0 5.00003-1.6592 5.00003-4.28253 0-2.1749-1.18835-3.56504-3.3184-4.05832l-2.6906-.67265c-2.0628-.47085-3.07177-1.50225-3.07177-3.27356 0-1.861 1.50225-3.16145 3.78926-3.16145 2.44396 0 3.9462 1.39014 3.9462 3.722h.98656c0-2.86997-1.90584-4.59644-4.91034-4.59644-2.86997 0-4.79823 1.63678-4.79823 4.05832 0 2.21974 1.1435 3.5202 3.47535 4.0359l2.6906.69506c1.90584.44843 2.91481 1.52467 2.91481 3.25114 0 2.10763-1.47982 3.38567-4.0359 3.38567-2.75785 0-4.55158-1.63678-4.55158-4.148h-.98656c0 3.07176 2.15248 5.04486 5.56057 5.04486z" fill="#ff005c" fill-rule="nonzero"/></svg>