<svg xmlns="http://www.w3.org/2000/svg" role="img" viewBox="-4.59 7.41 238.94 41.94"><title>AIFRICA logo</title><g fill="#fff"><path d="M12 12h1v1h-1zm1 0h1v1h-1zm1 0h1v1h-1zm1 0h1v2h-1zm1 0h1v1h-1zm1 0h1v1h-1zm1 0h1v1h-1zm-8 1h1v1h-1zm1 0h1v1h-1zm1 0h1v1h-1z"/><path d="M13 13h4v1h-4zm4 0h1v2h-1zm1 0h1v1h-1zm1 0h1v1h-1zm1 0h1v1h-1zM8 14h1v1H8zm1 0h1v1H9zm1 0h1v1h-1z"/><path d="M11 14h8v1h-8zm8 0h1v1h-1zm1 0h1v1h-1zm1 0h1v1h-1zm1 0h1v1h-1zM6 15h1v1H6zm1 0h1v1H7zm1 0h1v1H8zm1 0h4v1H9zm4 0h1v1h-1zm1 0h1v1h-1zm1 0h1v1h-1zm1 0h1v1h-1zm1 0h4v1h-4zm4 0h1v1h-1zm1 0h1v1h-1zm1 0h1v1h-1zm1 0h1v1h-1zM3 16h1v1H3zm1 0h1v1H4zm1 0h1v1H5zm1 0h4v1H6zm4 0h1v1h-1zm1 0h1v1h-1zm1 0h1v1h-1zm1 0h1v1h-1zm4 0h1v1h-1zm1 0h1v1h-1zm1 0h1v1h-1zm1 0h4v1h-4zm4 0h1v5h-1zm1 0h1v1h-1zm1 0h1v1h-1zM1 17h1v1H1zm1 0h1v1H2zm1 0h1v1H3zm1 0h4v1H4zm4 0h1v1H8zm1 0h1v1H9zm1 0h1v1h-1zm1 0h1v1h-1zm8 0h1v1h-1zm1 0h1v1h-1zm1 0h1v1h-1z"/><path d="M22 17h4v1h-4zm4 0h1v3h-1zm1 0h1v1h-1zm1 0h1v1h-1zm1 0h1v1h-1zM0 18h1v1H0zm1 0h1v1H1zm1 0h4v1H2zm4 0h1v1H6zm1 0h1v1H7zm1 0h1v1H8zm1 0h1v1H9zm12 0h1v1h-1zm1 0h1v1h-1zm1 0h1v1h-1z"/><path d="M25 18h3v2h-3zm3 0h1v19h-1zm1 0h1v1h-1zm1 0h1v1h-1zM0 19h1v1H0zm1 0h1v1H1zm1 0h1v1H2zm1 0h1v1H3zm1 0h1v1H4zm1 0h1v1H5zm1 0h1v1H6zm1 0h1v1H7zm15 0h1v1h-1zm1 0h1v1h-1zm6 0h1v18h-1zm1 0h1v1h-1zm10 0h1v1h-1zm1 0h1v17h-1zm1 0h1v17h-1zm1 0h1v1h-1zm11 0h1v9h-1zm1 0h3v16h-3zm3 0h1v16h-1zm1 0h1v14h-1zm6 0h1v1h-1zm1 0h12v3H66zm12 0h1v4h-1zm1 0h1v1h-1zm1 0h1v1h-1zm7 0h1v1h-1zm1 0h1v1h-1zm1 0h1v17h-1zm1 0h1v1h-1zm1 0h1v1h-1zm11 0h1v9h-1zm1 0h3v16h-3zm3 0h1v15h-1zm1 0h1v14h-1zm9 0h1v1h-1zm1 0h1v1h-1zm1 0h13v1h-13zm13 0h1v1h-1zm1 0h1v1h-1zm2 0h1v17h-1zm1 0h4v17h-4zm4 0h1v17h-1zm21 0h1v1h-1zm1 0h1v1h-1zm1 0h1v1h-1zm1 0h6v3h-6zm6 0h1v3h-1zm1 0h1v1h-1zm1 0h1v1h-1zm1 0h1v1h-1zm1 0h1v1h-1zm8 0h1v10h-1zm1 0h4v11h-4zm4 0h1v15h-1zm1 0h1v9h-1zm12 0h1v9h-1zm1 0h3v14h-3zm3 0h1v12h-1zm1 0h1v10h-1zm6 0h1v1h-1zm1 0h10v3h-10zm10 0h1v4h-1zm1 0h1v1h-1zm1 0h1v1h-1zM0 20h1v1H0zm1 0h1v1H1zm1 0h1v1H2zm1 0h1v1H3zm1 0h1v1H4zm1 0h1v1H5zm15 0h1v1h-1zm1 0h1v1h-1zm1 0h1v1h-1z"/><path d="M23 20h6v1h-6zm7 0h1v1h-1zm9 0h1v1h-1zm1 0h3v16h-3zm3 0h1v16h-1zm1 0h1v1h-1zm20 0h1v1h-1zm1 0h1v1h-1zm14 0h1v15h-1zm1 0h1v15h-1zm1 0h1v1h-1zm1 0h1v1h-1zm4 0h1v1h-1zm1 0h1v1h-1zm1 0h3v16h-3zm3 0h1v5h-1zm1 0h1v1h-1zm22 0h1v1h-1zm1 0h15v2h-15zm15 0h1v1h-1zm1 0h1v1h-1zm27 0h1v1h-1zm1 0h14v2h-14zm14 0h1v4h-1zm1 0h1v1h-1zm1 0h1v1h-1zm34 0h1v1h-1zm1 0h1v1h-1zm12 0h2v3h-2zm2 0h1v5h-1zm1 0h1v1h-1zM0 21h2v14H0zm2 0h1v16H2zm1 0h1v1H3zm15 0h1v1h-1zm1 0h1v1h-1zm1 0h4v1h-4zm4 0h1v1h-1zm1 0h1v1h-1zm1 0h1v1h-1zm1 0h1v1h-1zm3 0h1v14h-1zm9 0h1v1h-1zm5 0h1v4h-1zm1 0h1v1h-1zm1 0h1v1h-1zm18 0h1v1h-1z"/><path d="M65 21h16v1H65zm16 0h1v5h-1zm1 0h1v1h-1zm1 0h1v1h-1zm3 0h1v1h-1zm1 0h5v4h-5zm5 0h1v5h-1zm1 0h1v1h-1zm19 0h1v1h-1zm1 0h1v1h-1zm1 0h15v1h-15zm16 0h1v1h-1zm1 0h1v1h-1zm25 0h1v1h-1zm1 0h1v1h-1zm1 0h17v1h-17zm17 0h1v13h-1zm1 0h1v1h-1zm1 0h1v1h-1zm32 0h1v1h-1zm1 0h15v1h-15zm15 0h1v13h-1zm1 0h1v1h-1zm1 0h1v1h-1zM3 22h1v4H3zm1 0h1v1H4zm11 0h1v1h-1zm1 0h1v1h-1zm1 0h1v1h-1zm1 0h4v1h-4zm4 0h1v1h-1zm1 0h1v1h-1zm1 0h1v1h-1zm1 0h1v1h-1zm2 0h1v12h-1zm12 0h1v1h-1zm6 0h1v4h-1zm1 0h1v1h-1zm1 0h1v1h-1zm16 0h1v1h-1z"/><path d="M64 22h18v1H64zm18 0h1v3h-1zm1 0h1v1h-1zm3 0h1v14h-1zm7 0h1v5h-1zm1 0h1v1h-1zm17 0h1v1h-1zm1 0h1v1h-1zm1 0h16v1h-16zm16 0h1v1h-1zm1 0h1v1h-1zm25 0h1v1h-1zm1 0h20v1h-20zm20 0h1v11h-1zm1 0h1v1h-1zm31 0h1v1h-1zm1 0h17v1h-17zm17 0h1v11h-1zm1 0h1v1h-1zM4 23h1v1H4zm9 0h1v1h-1zm1 0h1v1h-1zm1 0h1v1h-1zm1 0h4v1h-4zm4 0h1v1h-1zm1 0h1v1h-1zm1 0h1v1h-1zm1 0h1v1h-1zm16 0h7v2h-7zm7 0h1v4h-1zm1 0h1v1h-1zm1 0h1v1h-1zm14 0h1v1h-1zm1 0h14v1H63zm14 0h1v1h-1zm1 0h4v1h-4zm5 0h1v1h-1zm11 0h1v5h-1zm1 0h1v1h-1zm16 0h1v1h-1zm1 0h6v1h-6zm6 0h1v1h-1zm1 0h1v1h-1zm1 0h8v1h-8zm8 0h1v1h-1zm1 0h1v1h-1zm26 0h1v1h-1zm1 0h6v1h-6zm6 0h1v1h-1zm1 0h1v1h-1zm1 0h5v1h-5zm5 0h1v1h-1z"/><path d="M170 23h7v1h-7zm7 0h1v9h-1zm1 0h1v1h-1zm29 0h1v2h-1zm1 0h11v1h-11zm11 0h1v1h-1zm1 0h1v1h-1zm1 0h6v1h-6zm6 0h1v9h-1zm1 0h1v1h-1zM4 24h1v3H4zm1 0h1v1H5zm7 0h1v1h-1zm1 0h1v1h-1zm1 0h4v1h-4zm4 0h1v1h-1zm1 0h1v1h-1zm1 0h1v1h-1zm1 0h1v1h-1zm26 0h1v4h-1zm1 0h1v1h-1zm1 0h1v1h-1zm29 0h1v1h-1zm5 0h1v1h-1zm12 0h1v4h-1zm1 0h1v1h-1zm14 0h1v1h-1zm1 0h5v1h-5zm5 0h1v1h-1zm1 0h1v1h-1zm37 0h1v1h-1zm1 0h4v7h-4zm4 0h1v1h-1zm1 0h1v1h-1zm1 0h1v1h-1zm11 0h1v1h-1zm1 0h4v1h-4zm5 0h1v1h-1zm44 0h1v1h-1z"/><path d="M223 24h5v1h-5zm5 0h1v6h-1zm1 0h1v1h-1zM5 25h1v1H5zm1 0h1v1H6zm6 0h1v1h-1zm1 0h1v1h-1zm1 0h1v1h-1zm1 0h1v1h-1zm1 0h1v1h-1zm1 0h1v1h-1zm1 0h1v1h-1zm1 0h1v1h-1zm20 0h10v1H39zm10 0h1v5h-1zm1 0h1v1h-1zm28 0h1v1h-1zm4 0h1v1h-1zm1 0h1v1h-1zm4 0h9v1h-9zm9 0h1v4h-1zm1 0h1v1h-1zm1 0h1v1h-1zm12 0h1v1h-1zm1 0h4v6h-4zm4 0h1v1h-1zm1 0h1v1h-1zm38 0h1v1h-1zm5 0h1v1h-1zm1 0h1v1h-1zm13 0h1v1h-1zm1 0h4v1h-4zm4 0h1v5h-1zm1 0h1v1h-1zm28 0h1v1h-1zm1 0h4v1h-4zm4 0h1v1h-1zm11 0h1v1h-1zm1 0h4v1h-4zm5 0h1v1h-1zM3 26h2v1H3zm2 0h1v3H5zm1 0h1v1H6zm6 0h1v10h-1zm1 0h1v17h-1zm1 0h1v1h-1zm1 0h1v1h-1zm1 0h1v1h-1zm1 0h1v1h-1zm22 0h4v10h-4zm5 0h1v1h-1z"/><path d="M45 26h5v1h-5zm5 0h1v5h-1zm1 0h1v1h-1zm17 0h1v1h-1zm1 0h1v1h-1zm1 0h11v3H70zm11 0h1v9h-1zm1 0h1v1h-1zm1 0h1v1h-1zm4 0h3v10h-3zm4 0h1v1h-1zm1 0h5v1h-5zm5 0h1v4h-1zm1 0h1v1h-1zm1 0h1v1h-1zm11 0h1v1h-1zm5 0h1v1h-1zm39 0h1v1h-1zm5 0h1v1h-1zm15 0h1v1h-1zm5 0h1v3h-1zm28 0h1v10h-1zm1 0h4v10h-4zm4 0h1v10h-1zm12 0h1v1h-1zm5 0h1v1h-1zM3 27h1v1H3zm1 0h1v1H4zm2 0h1v1H6zm1 0h1v1H7zm7 0h1v16h-1zm1 0h1v17h-1zm29 0h1v1h-1zm1 0h1v1h-1z"/><path d="M46 27h5v1h-5zm5 0h1v5h-1zm1 0h1v1h-1zm16 0h1v1h-1zm1 0h11v2H69zm13 0h1v1h-1zm9 0h1v9h-1zm1 0h1v1h-1zm1 0h5v1h-5zm5 0h1v4h-1zm1 0h1v1h-1zm1 0h1v1h-1zm10 0h1v1h-1zm5 0h1v1h-1zm39 0h1v1h-1zm5 0h1v1h-1zm15 0h1v1h-1zm50 0h1v1h-1zm5 0h1v1h-1zM3 28h1v1H3zm1 0h1v1H4zm2 0h1v3H6zm1 0h1v1H7zm39 0h1v1h-1z"/><path d="M47 28h5v1h-5zm5 0h1v5h-1zm1 0h1v1h-1zm1 0h1v1h-1zm13 0h1v1h-1zm1 0h13v1H68zm14 0h1v1h-1zm11 0h1v1h-1zm1 0h5v1h-5zm5 0h1v4h-1zm1 0h1v1h-1zm1 0h1v1h-1zm1 0h1v1h-1zm8 0h1v1h-1zm5 0h1v1h-1zm39 0h1v1h-1zm5 0h1v1h-1zm15 0h1v1h-1zm13 0h1v1h-1zm12 0h1v1h-1zm25 0h1v1h-1zm5 0h1v1h-1zM3 29h1v9H3zm1 0h1v1H4zm1 0h1v1H5zm2 0h1v1H7zm1 0h1v1H8zm39 0h1v1h-1z"/><path d="M48 29h5v1h-5zm5 0h5v4h-5zm13 0h1v1h-1zm1 0h1v1h-1zm1 0h14v1H68zm14 0h1v5h-1zm1 0h1v1h-1zm11 0h1v1h-1zm1 0h1v1h-1zm1 0h4v1h-4zm4 0h1v4h-1zm1 0h1v1h-1zm1 0h1v1h-1zm8 0h1v1h-1zm5 0h1v1h-1zm39 0h1v1h-1zm5 0h1v1h-1zm15 0h4v3h-4zm5 0h1v1h-1zm2 0h1v1h-1zm6 0h1v1h-1zm12 0h1v1h-1zm5 0h1v1h-1zm20 0h1v1h-1zm5 0h1v1h-1zM4 30h1v1H4zm1 0h1v1H5zm2 0h1v3H7zm1 0h1v1H8zm40 0h1v1h-1z"/><path d="M49 30h9v1h-9zm29 0h1v1h-1zm5 0h1v1h-1zm12 0h1v1h-1zm1 0h1v1h-1zm1 0h9v1h-9zm13 0h1v1h-1zm5 0h1v4h-1zm1 0h1v1h-1zm38 0h1v1h-1zm5 0h1v1h-1zm1 0h1v1h-1zm13 0h1v1h-1zm5 0h1v1h-1zm1 0h1v1h-1zm3 0h4v1h-4zm5 0h1v1h-1zm12 0h1v1h-1zm5 0h1v1h-1zm19 0h1v1h-1zm1 0h4v2h-4zm4 0h1v1h-1zm1 0h1v1h-1zM5 31h1v1H5zm1 0h1v1H6zm2 0h1v1H8zm1 0h1v1H9zm40 0h1v1h-1zm1 0h8v1h-8zm28 0h1v1h-1zm5 0h1v1h-1zm1 0h1v1h-1zm12 0h1v1h-1zm1 0h1v1h-1zm1 0h8v1h-8zm12 0h1v1h-1z"/><path d="M111 31h5v1h-5zm5 0h1v4h-1zm1 0h1v1h-1zm37 0h1v1h-1zm1 0h4v1h-4zm4 0h1v4h-1zm1 0h1v1h-1zm1 0h1v1h-1zm11 0h1v1h-1zm1 0h4v2h-4zm5 0h1v1h-1zm4 0h1v1h-1zm1 0h4v1h-4zm4 0h1v4h-1zm1 0h1v1h-1zm9 0h1v1h-1zm1 0h1v1h-1zm1 0h4v2h-4zm4 0h1v1h-1zm1 0h1v1h-1zm18 0h1v1h-1zm1 0h4v2h-4zm5 0h1v1h-1zm1 0h1v1h-1zM5 32h1v1H5zm1 0h1v1H6zm2 0h1v3H8zm1 0h1v1H9zm41 0h1v1h-1zm1 0h7v1h-7zm13 0h1v1h-1zm1 0h12v1H65zm12 0h1v1h-1zm1 0h5v2h-5zm5 0h1v1h-1zm1 0h1v1h-1zm13 0h1v1h-1zm1 0h1v1h-1zm1 0h7v1h-7zm12 0h1v1h-1z"/><path d="M112 32h6v1h-6zm6 0h1v4h-1zm1 0h1v1h-1zm1 0h11v1h-11zm11 0h1v1h-1zm1 0h2v1h-2zm8 0h12v1h-12zm12 0h1v1h-1zm1 0h1v1h-1zm2 0h1v1h-1zm1 0h6v1h-6zm6 0h1v3h-1zm1 0h1v1h-1zm1 0h5v1h-5zm5 0h1v1h-1zm1 0h7v1h-7zm7 0h1v1h-1zm1 0h1v1h-1zm4 0h1v1h-1zm1 0h6v1h-6zm6 0h1v3h-1zm1 0h1v1h-1zm1 0h4v1h-4zm4 0h1v1h-1zm1 0h1v1h-1zm1 0h5v2h-5zm6 0h1v1h-1zm1 0h1v1h-1zm9 0h6v1h-6zm6 0h1v1h-1zm1 0h1v1h-1zm1 0h6v1h-6zm6 0h1v1h-1zm1 0h1v1h-1zM6 33h1v1H6zm1 0h1v1H7zm2 0h1v1H9zm1 0h1v1h-1zm41 0h1v1h-1zm1 0h6v1h-6zm7 0h1v1h-1zm5 0h1v1h-1zm1 0h17v2H65zm18 0h1v1h-1zm16 0h1v1h-1zm1 0h6v1h-6zm7 0h1v1h-1zm5 0h1v1h-1z"/><path d="M113 33h17v1h-17zm17 0h1v1h-1zm1 0h1v1h-1zm1 0h1v1h-1zm8 0h11v2h-11zm11 0h1v1h-1zm1 0h1v1h-1zm3 0h1v1h-1zm1 0h20v1h-20zm20 0h1v1h-1zm1 0h1v1h-1zm6 0h1v1h-1zm1 0h18v1h-18zm18 0h1v1h-1zm1 0h1v1h-1zm10 0h13v1h-13zm13 0h1v1h-1zm1 0h1v1h-1zM6 34h1v1H6zm1 0h1v1H7zm2 0h1v2H9zm1 0h1v1h-1zm17 0h1v1h-1zm25 0h1v1h-1zm1 0h1v1h-1zm1 0h4v1h-4zm5 0h1v1h-1zm4 0h1v1h-1zm1 0h18v1H64zm18 0h1v1h-1zm1 0h1v1h-1zm17 0h1v1h-1zm1 0h5v1h-5zm5 0h1v1h-1zm1 0h1v1h-1zm5 0h1v1h-1zm1 0h1v1h-1zm1 0h16v1h-16zm16 0h1v1h-1zm1 0h1v1h-1zm20 0h1v1h-1zm1 0h1v1h-1zm4 0h1v1h-1zm1 0h1v1h-1zm1 0h17v1h-17zm17 0h1v1h-1zm1 0h1v1h-1zm1 0h1v1h-1zm6 0h1v1h-1zm1 0h1v1h-1zm1 0h16v1h-16zm16 0h1v1h-1zm1 0h1v1h-1zm11 0h12v1h-12zm12 0h1v1h-1zm1 0h1v1h-1zM0 35h2v1H0zm7 0h1v1H7z"/><path d="M8 35h2v1H8zm2 0h1v3h-1zm1 0h1v1h-1zm16 0h1v1h-1zm3 0h1v1h-1zm23 0h1v1h-1zm1 0h1v1h-1zm1 0h3v1h-3zm3 0h1v1h-1zm1 0h1v1h-1zm3 0h1v1h-1zm1 0h18v1H63zm18 0h1v1h-1zm1 0h1v1h-1zm19 0h1v1h-1zm1 0h3v1h-3zm3 0h1v1h-1zm1 0h1v1h-1zm8 0h1v1h-1zm1 0h1v1h-1zm1 0h13v1h-13zm13 0h1v1h-1zm1 0h1v1h-1zm10 0h10v1h-10zm10 0h1v1h-1zm1 0h1v1h-1zm6 0h1v1h-1zm1 0h1v1h-1zm1 0h14v1h-14zm14 0h1v1h-1zm1 0h1v1h-1zm1 0h1v1h-1zm10 0h1v1h-1zm1 0h1v1h-1zm1 0h12v1h-12zm12 0h1v1h-1zm1 0h1v1h-1zm1 0h1v1h-1zm12 0h10v1h-10zm10 0h1v1h-1zm1 0h1v1h-1zm1 0h1v1h-1zM0 36h1v1H0zm1 0h1v1H1zm7 0h1v1H8zm1 0h1v1H9zm2 0h1v1h-1zm1 0h1v1h-1zm13 0h1v1h-1zm1 0h1v1h-1zm1 0h1v1h-1zm3 0h1v1h-1zm9 0h4v1h-4zm4 0h1v1h-1zm11 0h1v1h-1zm1 0h1v1h-1zm1 0h1v1h-1zm1 0h1v1h-1zm1 0h1v1h-1zm3 0h1v1h-1zm1 0h1v1h-1zm1 0h15v1H63zm15 0h1v1h-1zm1 0h1v1h-1zm1 0h1v1h-1zm1 0h1v1h-1zm5 0h1v1h-1zm1 0h3v1h-3zm3 0h1v1h-1zm1 0h1v1h-1zm11 0h1v1h-1zm1 0h1v1h-1zm1 0h1v1h-1zm1 0h1v1h-1zm1 0h1v1h-1zm10 0h1v1h-1zm1 0h1v1h-1zm1 0h10v1h-10zm10 0h1v1h-1zm1 0h1v1h-1zm5 0h1v1h-1zm1 0h14v1h-14zm14 0h1v1h-1zm1 0h1v1h-1zm10 0h1v1h-1zm1 0h1v1h-1zm1 0h1v1h-1zm1 0h6v1h-6zm6 0h1v1h-1zm1 0h1v1h-1zm1 0h1v1h-1zm1 0h1v1h-1zm1 0h1v1h-1zm14 0h1v1h-1zm1 0h1v1h-1zm1 0h1v1h-1zm1 0h6v1h-6zm6 0h1v1h-1zm1 0h1v1h-1zm1 0h1v1h-1zm1 0h1v1h-1zm8 0h1v1h-1zm1 0h12v1h-12zm12 0h1v1h-1zm1 0h1v1h-1zm1 0h1v1h-1zm1 0h1v1h-1zM0 37h1v1H0zm1 0h1v1H1zm1 0h1v1H2zm6 0h1v1H8zm1 0h1v1H9zm2 0h3v3h-3zm12 0h1v1h-1zm1 0h1v1h-1zm1 0h1v1h-1zm1 0h3v1h-3zm3 0h1v1h-1zm1 0h1v1h-1zM0 38h1v1H0zm1 0h1v1H1zm1 0h1v1H2zm1 0h1v1H3zm6 0h1v1H9z"/><path d="M10 38h4v1h-4zm11 0h1v1h-1zm1 0h1v1h-1zm1 0h1v1h-1zm1 0h3v1h-3zm3 0h1v1h-1zm1 0h1v1h-1zm1 0h1v1h-1zm1 0h1v1h-1zM2 39h1v1H2zm1 0h1v1H3zm6 0h1v1H9zm1 0h1v1h-1zm9 0h1v1h-1zm1 0h1v1h-1zm1 0h1v1h-1zm1 0h3v1h-3zm3 0h1v1h-1zm1 0h1v1h-1zm1 0h1v1h-1zm1 0h1v1h-1zm-18 1h1v1h-1zm1 0h3v1h-3zm6 0h1v1h-1zm1 0h1v1h-1zm1 0h4v1h-4zm4 0h1v1h-1zm1 0h1v1h-1zm1 0h1v1h-1zm1 0h1v1h-1zm-16 1h1v1h-1zm1 0h1v1h-1zm1 0h2v1h-2zm4 0h1v1h-1zm1 0h4v1h-4zm4 0h1v1h-1zm1 0h1v1h-1zm1 0h1v1h-1zm1 0h1v1h-1zm-13 1h1v1h-1zm1 0h2v1h-2zm4 0h1v1h-1zm1 0h2v1h-2zm2 0h1v1h-1zm1 0h1v1h-1zm1 0h1v1h-1zm1 0h1v1h-1zm-11 1h1v1h-1zm1 0h1v1h-1zm1 0h1v1h-1zm1 0h1v1h-1zm2 0h1v1h-1zm1 0h1v1h-1zm1 0h1v1h-1zm1 0h1v1h-1zm1 0h1v1h-1zm-8 1h1v1h-1zm1 0h1v1h-1zm1 0h1v1h-1zm1 0h1v1h-1zm1 0h1v1h-1zm1 0h1v1h-1zm1 0h1v1h-1z"/></g></svg>