<svg xmlns="http://www.w3.org/2000/svg" role="img" viewBox="-218.60 -218.60 11367.20 11367.20"><title>Alerant Zrt. (member) logo</title><path fill="url(#paint0_linear_923_1686)" d="M0 0h10939v10939H0z"/><path fill="#fff" fill-rule="evenodd" d="M6576.65 2040.82l440.07 752.78 440.08 752.78 430.64-752.74-430.71-752.78-440.07-752.78-880.08-.04-870.72-.04-440.01 752.74 880.08.04 870.72.04zM3515.2 4298.97l-440 752.74-440.01 752.74 880.08.04 430.64-752.74 440.01-752.74 440.01-752.75-880.08-.04-430.65 752.75zm4372.24.05l440.08 752.78 440.07 752.78-440.01 752.75-440.07-752.78-430.71-752.78-880.08-.04-870.72-.04 430.64-752.74 880.09.03 870.71.04z" clip-rule="evenodd"/><path fill="#fff" d="M3297.45 8295v-965.05h200.78v790.17h445.94L3812.13 8295h-514.68zm847.73 0v-965.05h648.97v174.88h-448.19v218.91h422.29v174.88h-422.29v221.5h448.19V8295h-648.97zm924.23 0v-965.05h369.18c66.5 0 125.22 11.66 176.17 34.98 51.81 23.31 92.4 57.86 121.76 103.63 29.36 45.77 44.05 102.33 44.05 169.69 0 65.63-15.12 121.76-45.34 168.4-30.23 45.77-70.81 80.31-121.77 103.62L5833.68 8295h-225.4l-238.34-426.18 129.53 76.43h-229.28V8295h-200.78zm200.78-524.62h169.7c28.49 0 53.11-5.62 73.83-16.84 20.73-11.23 36.7-26.77 47.93-46.64 12.09-19.86 18.13-42.74 18.13-68.65 0-26.77-6.04-50.09-18.13-69.95-11.23-19.86-27.2-35.41-47.93-46.63-20.72-11.23-45.34-16.84-73.83-16.84h-169.7v265.55zM6014.13 8295l326.43-965.05h266.84L6933.83 8295h-218.91l-64.77-196.9h-353.63l-64.77 196.9h-217.62zm338.09-371.77h242.23l-147.67-455.97h54.4l-148.96 455.97zM7141.87 8295v-965.05h154.15l518.14 682.66-82.9 19.43v-702.09h200.78V8295H7776.6l-509.08-687.84 75.13-19.43V8295h-200.78zm1286.95 0v-790.17h-244.83v-174.88h787.14l-100.6 174.88H8629.6V8295h-200.78zM2181 8295l326.43-965.05h266.84L3100.71 8295h-218.92l-64.77-196.9h-353.63l-64.77 196.9H2181zm338.09-371.77h242.23l-147.67-455.97h54.41l-148.97 455.97zm-744.37 1572.65c-38.97 0-74.99-6.91-108.04-20.72-32.56-14.31-61.17-34.29-85.84-59.94-24.17-25.65-42.92-55.75-56.24-90.28s-19.98-72.27-19.98-113.22c0-41.44 6.66-79.43 19.98-113.96 13.32-34.53 32.07-64.63 56.24-90.28 24.17-25.65 52.79-45.39 85.84-59.2 33.05-14.31 69.07-21.46 108.04-21.46 37.99 0 72.03 6.66 102.12 19.98 30.59 13.32 56.24 30.59 76.96 51.8 21.21 21.21 36.26 43.91 45.14 68.08l-66.6 30.34c-12.83-30.59-32.81-55.25-59.94-74-27.13-19.24-59.69-28.86-97.68-28.86-38.48 0-72.77 9.13-102.86 27.38-29.6 18.25-52.79 43.66-69.56 76.22-16.77 32.56-25.16 70.55-25.16 113.96 0 42.92 8.39 80.66 25.16 113.22s39.96 57.97 69.56 76.22c30.09 18.25 64.38 27.38 102.86 27.38 37.99 0 70.55-9.37 97.68-28.12 27.13-19.24 47.11-44.15 59.94-74.74l66.6 30.34c-8.88 24.17-23.93 46.87-45.14 68.08-20.72 21.21-46.37 38.48-76.96 51.8-30.09 13.32-64.13 19.98-102.12 19.98zm314.72-8.88v-560.18h68.82V9487h-68.82zm365.05 8.88c-38.48 0-73.26-8.88-104.34-26.64-31.08-18.25-55.75-43.17-74-74.74-18.26-31.57-27.38-67.34-27.38-107.3 0-39.96 8.88-75.48 26.64-106.56 18.25-31.08 42.92-55.75 74-74s66.1-27.38 105.08-27.38c38.48 0 73.26 9.13 104.34 27.38 31.08 17.76 55.5 42.18 73.26 73.26 18.25 31.08 27.38 66.85 27.38 107.3s-9.38 76.47-28.12 108.04c-18.75 31.08-43.66 55.75-74.74 74-30.59 17.76-64.63 26.64-102.12 26.64zm0-66.6c24.66 0 46.86-6.17 66.6-18.5 20.22-12.33 36.01-29.35 47.36-51.06 11.84-21.71 17.76-45.88 17.76-72.52 0-27.13-5.92-51.06-17.76-71.78-11.35-21.21-27.14-37.99-47.36-50.32-19.74-12.83-41.94-19.24-66.6-19.24-25.16 0-47.86 6.41-68.08 19.24-19.74 12.33-35.52 29.11-47.36 50.32-11.84 20.72-17.76 44.65-17.76 71.78 0 26.64 5.92 50.81 17.76 72.52 11.84 21.71 27.62 38.73 47.36 51.06 20.22 12.33 42.92 18.5 68.08 18.5zm436.08 66.6c-28.62 0-54.52-6.66-77.7-19.98-22.7-13.32-40.46-31.82-53.28-55.5-12.34-24.17-18.5-51.8-18.5-82.88v-249.38h68.82v241.98c0 19.73 3.94 37 11.84 51.8 8.38 14.8 19.73 26.39 34.04 34.78 14.8 8.39 31.57 12.58 50.32 12.58 18.74 0 35.27-4.19 49.58-12.58 14.8-8.39 26.14-20.47 34.04-36.26 8.38-15.79 12.58-34.53 12.58-56.24v-236.06h69.56V9487h-67.34v-77.7l11.1 6.66c-9.38 25.16-25.41 44.89-48.1 59.2-22.2 13.81-47.86 20.72-76.96 20.72zm469.21 0c-37.49 0-71.28-9.13-101.38-27.38-29.6-18.25-53.03-43.17-70.3-74.74-17.26-31.57-25.9-66.85-25.9-105.82 0-39.96 8.64-75.48 25.9-106.56 17.27-31.57 40.7-56.49 70.3-74.74 30.1-18.25 63.89-27.38 101.38-27.38 33.06 0 62.41 7.15 88.06 21.46 25.66 13.81 45.88 32.56 60.68 56.24l-11.1 17.02v-247.16h69.56V9487h-67.34v-85.1l8.88 11.84c-13.81 26.15-34.04 46.37-60.68 60.68-26.14 14.31-55.5 21.46-88.06 21.46zm5.92-66.6c25.16 0 47.61-6.17 67.34-18.5 19.74-12.33 35.28-29.11 46.62-50.32 11.84-21.71 17.76-45.88 17.76-72.52 0-27.13-5.92-51.31-17.76-72.52-11.34-21.71-26.88-38.73-46.62-51.06-19.73-12.33-42.18-18.5-67.34-18.5-24.66 0-47.11 6.41-67.34 19.24-19.73 12.33-35.27 29.11-46.62 50.32-11.34 20.72-17.02 44.89-17.02 72.52 0 26.64 5.68 50.81 17.02 72.52 11.35 21.21 26.89 37.99 46.62 50.32 19.74 12.33 42.18 18.5 67.34 18.5zm443.85 57.72v-551.3h60.68l316.72 445.48-27.38 2.96V8935.7h73.26V9487h-60.68l-315.24-448.44 25.16-2.96V9487h-72.52zm655.11 8.88c-26.15 0-49.33-4.69-69.56-14.06-19.73-9.87-35.27-23.19-46.62-39.96-11.35-17.27-17.02-37-17.02-59.2 0-21.21 4.44-40.21 13.32-56.98 9.37-17.27 23.68-31.82 42.92-43.66 19.73-11.84 44.4-20.23 74-25.16l148-24.42v57.72l-132.46 22.2c-25.65 4.44-44.4 12.58-56.24 24.42-11.35 11.84-17.02 26.39-17.02 43.66 0 16.28 6.41 29.85 19.24 40.7 13.32 10.85 29.85 16.28 49.58 16.28 25.16 0 46.87-5.18 65.12-15.54 18.75-10.85 33.3-25.41 43.66-43.66 10.85-18.25 16.28-38.48 16.28-60.68v-101.38c0-21.71-8.14-39.22-24.42-52.54-15.79-13.81-36.75-20.72-62.9-20.72-22.69 0-42.92 5.92-60.68 17.76-17.27 11.35-30.09 26.64-38.48 45.88l-59.94-31.08c7.4-18.25 19.24-34.53 35.52-48.84 16.28-14.8 35.27-26.39 56.98-34.78 21.71-8.39 44.4-12.58 68.08-12.58 30.59 0 57.47 5.92 80.66 17.76 23.19 11.35 41.19 27.38 54.02 48.1 13.32 20.23 19.98 43.91 19.98 71.04V9487h-67.34v-75.48l12.58 4.44c-8.39 15.79-19.73 29.6-34.04 41.44-14.31 11.84-31.08 21.21-50.32 28.12-19.24 6.91-40.21 10.36-62.9 10.36zm463.56-4.44c-38.97 0-69.07-11.1-90.28-33.3-20.72-22.2-31.08-53.53-31.08-93.98V9154h-72.52v-65.86h14.8c17.76 0 31.82-5.43 42.18-16.28 10.36-10.85 15.54-25.16 15.54-42.92v-32.56h68.82v91.76h89.54V9154h-89.54v207.94c0 13.32 1.97 24.91 5.92 34.78 4.44 9.87 11.59 17.76 21.46 23.68 9.87 5.43 22.94 8.14 39.22 8.14 3.45 0 7.65-.25 12.58-.74 5.43-.49 10.36-.99 14.8-1.48V9487c-6.41 1.48-13.57 2.47-21.46 2.96-7.89.99-14.55 1.48-19.98 1.48zm131.34-4.44v-398.86h68.82V9487h-68.82zm0-462.5v-88.8h68.82v88.8h-68.82zm286.6 462.5l-156.14-398.86h76.96l125.06 337.44h-26.64l125.8-337.44h76.96L5411.28 9487h-65.12zm459.87 8.88c-38.48 0-72.77-9.13-102.86-27.38-30.1-18.25-53.78-43.17-71.04-74.74-17.27-32.07-25.9-67.83-25.9-107.3 0-39.96 8.38-75.48 25.16-106.56 17.26-31.08 40.45-55.5 69.56-73.26 29.6-18.25 62.65-27.38 99.16-27.38 29.6 0 55.74 5.43 78.44 16.28 23.18 10.36 42.67 24.67 58.46 42.92 16.28 17.76 28.61 38.23 37 61.42 8.88 22.69 13.32 46.37 13.32 71.04 0 5.43-.5 11.59-1.48 18.5-.5 6.41-1.24 12.58-2.22 18.5h-327.08v-59.2h287.12l-32.56 26.64c4.44-25.65 1.97-48.59-7.4-68.82-9.38-20.23-23.19-36.26-41.44-48.1-18.26-11.84-38.98-17.76-62.16-17.76-23.19 0-44.4 5.92-63.64 17.76-19.24 11.84-34.29 28.86-45.14 51.06-10.36 21.71-14.56 47.61-12.58 77.7-1.98 29.11 2.46 54.76 13.32 76.96 11.34 21.71 27.13 38.73 47.36 51.06 20.72 11.84 43.16 17.76 67.34 17.76 26.64 0 49.08-6.17 67.34-18.5 18.25-12.33 33.05-28.12 44.4-47.36l57.72 29.6c-7.9 18.25-20.23 35.03-37 50.32-16.28 14.8-35.77 26.64-58.46 35.52-22.2 8.88-47.12 13.32-74.74 13.32zm596.52 0c-35.03 0-67.1-6.41-96.2-19.24-29.11-13.32-53.78-31.33-74-54.02-20.23-22.69-34.78-48.1-43.66-76.22l62.9-25.9c13.32 35.52 33.05 62.9 59.2 82.14 26.64 18.75 57.72 28.12 93.24 28.12 21.7 0 40.7-3.45 56.98-10.36 16.28-6.91 28.86-16.53 37.74-28.86 9.37-12.83 14.06-27.63 14.06-44.4 0-23.19-6.66-41.44-19.98-54.76-12.83-13.81-31.82-24.17-56.98-31.08l-101.38-31.08c-39.96-12.33-70.55-31.82-91.76-58.46-21.22-26.64-31.82-57.23-31.82-91.76 0-30.09 7.15-56.49 21.46-79.18 14.8-23.19 35.02-41.19 60.68-54.02 26.14-13.32 55.74-19.98 88.8-19.98 33.05 0 62.9 5.92 89.54 17.76 27.13 11.84 50.07 27.87 68.82 48.1 18.74 19.73 32.56 42.43 41.44 68.08l-62.16 25.9c-11.84-31.08-29.6-54.51-53.28-70.3-23.68-16.28-51.56-24.42-83.62-24.42-19.74 0-37.25 3.45-52.54 10.36-14.8 6.41-26.4 16.03-34.78 28.86-7.9 12.33-11.84 27.13-11.84 44.4 0 20.23 6.41 38.23 19.24 54.02 12.82 15.79 32.31 27.87 58.46 36.26l92.5 27.38c43.41 13.32 76.22 32.31 98.42 56.98 22.2 24.67 33.3 55.25 33.3 91.76 0 30.09-7.9 56.73-23.68 79.92-15.3 23.19-36.76 41.44-64.38 54.76-27.14 12.83-58.71 19.24-94.72 19.24zm470.26 0c-38.48 0-73.26-8.88-104.34-26.64-31.08-18.25-55.75-43.17-74-74.74-18.26-31.57-27.38-67.34-27.38-107.3 0-39.96 8.88-75.48 26.64-106.56 18.25-31.08 42.92-55.75 74-74s66.1-27.38 105.08-27.38c38.48 0 73.26 9.13 104.34 27.38 31.08 17.76 55.5 42.18 73.26 73.26 18.25 31.08 27.38 66.85 27.38 107.3s-9.38 76.47-28.12 108.04c-18.75 31.08-43.66 55.75-74.74 74-30.59 17.76-64.63 26.64-102.12 26.64zm0-66.6c24.66 0 46.86-6.17 66.6-18.5 20.22-12.33 36.01-29.35 47.36-51.06 11.84-21.71 17.76-45.88 17.76-72.52 0-27.13-5.92-51.06-17.76-71.78-11.35-21.21-27.14-37.99-47.36-50.32-19.74-12.83-41.94-19.24-66.6-19.24-25.16 0-47.86 6.41-68.08 19.24-19.74 12.33-35.52 29.11-47.36 50.32-11.84 20.72-17.76 44.65-17.76 71.78 0 26.64 5.92 50.81 17.76 72.52 11.84 21.71 27.62 38.73 47.36 51.06 20.22 12.33 42.92 18.5 68.08 18.5zm294.74 57.72v-560.18h68.82V9487h-68.82zm316.94 8.88c-28.61 0-54.51-6.66-77.7-19.98-22.69-13.32-40.45-31.82-53.28-55.5-12.33-24.17-18.5-51.8-18.5-82.88v-249.38h68.82v241.98c0 19.73 3.95 37 11.84 51.8 8.39 14.8 19.73 26.39 34.04 34.78 14.8 8.39 31.57 12.58 50.32 12.58s35.27-4.19 49.58-12.58c14.8-8.39 26.15-20.47 34.04-36.26 8.39-15.79 12.58-34.53 12.58-56.24v-236.06h69.56V9487h-67.34v-77.7l11.1 6.66c-9.37 25.16-25.41 44.89-48.1 59.2-22.2 13.81-47.85 20.72-76.96 20.72zm449.98-4.44c-38.97 0-69.07-11.1-90.28-33.3-20.72-22.2-31.08-53.53-31.08-93.98V9154h-72.52v-65.86h14.8c17.76 0 31.82-5.43 42.18-16.28 10.36-10.85 15.54-25.16 15.54-42.92v-32.56h68.82v91.76h89.54V9154h-89.54v207.94c0 13.32 1.97 24.91 5.92 34.78 4.44 9.87 11.59 17.76 21.46 23.68 9.87 5.43 22.94 8.14 39.22 8.14 3.45 0 7.65-.25 12.58-.74 5.43-.49 10.36-.99 14.8-1.48V9487c-6.41 1.48-13.57 2.47-21.46 2.96-7.89.99-14.55 1.48-19.98 1.48zm131.34-4.44v-398.86h68.82V9487h-68.82zm0-462.5v-88.8h68.82v88.8h-68.82zm365.04 471.38c-38.48 0-73.26-8.88-104.34-26.64-31.08-18.25-55.74-43.17-74-74.74-18.25-31.57-27.38-67.34-27.38-107.3 0-39.96 8.88-75.48 26.64-106.56 18.26-31.08 42.92-55.75 74-74s66.11-27.38 105.08-27.38c38.48 0 73.26 9.13 104.34 27.38 31.08 17.76 55.5 42.18 73.26 73.26 18.26 31.08 27.38 66.85 27.38 107.3s-9.37 76.47-28.12 108.04c-18.74 31.08-43.66 55.75-74.74 74-30.58 17.76-64.62 26.64-102.12 26.64zm0-66.6c24.67 0 46.87-6.17 66.6-18.5 20.23-12.33 36.02-29.35 47.36-51.06 11.84-21.71 17.76-45.88 17.76-72.52 0-27.13-5.92-51.06-17.76-71.78-11.34-21.21-27.13-37.99-47.36-50.32-19.73-12.83-41.93-19.24-66.6-19.24-25.16 0-47.85 6.41-68.08 19.24-19.73 12.33-35.52 29.11-47.36 50.32-11.84 20.72-17.76 44.65-17.76 71.78 0 26.64 5.92 50.81 17.76 72.52 11.84 21.71 27.63 38.73 47.36 51.06 20.23 12.33 42.92 18.5 68.08 18.5zm294.74 57.72v-398.86h67.34v77.7l-11.1-6.66c9.87-25.16 25.66-44.65 47.36-58.46 22.2-14.31 48.1-21.46 77.7-21.46 28.62 0 54.02 6.41 76.22 19.24 22.7 12.83 40.46 30.59 53.28 53.28 13.32 22.69 19.98 48.35 19.98 76.96V9487h-69.56v-236.06c0-22.2-3.94-40.95-11.84-56.24-7.89-15.29-19.24-27.13-34.04-35.52-14.3-8.88-30.83-13.32-49.58-13.32-18.74 0-35.52 4.44-50.32 13.32-14.3 8.39-25.65 20.47-34.04 36.26-8.38 15.29-12.58 33.79-12.58 55.5V9487h-68.82zm572.08 8.88c-39.96 0-74.74-9.87-104.34-29.6-29.6-19.73-50.57-46.37-62.9-79.92l54.76-26.64c11.35 23.68 26.89 42.43 46.62 56.24 19.73 13.81 41.69 20.72 65.86 20.72 21.71 0 39.71-5.18 54.02-15.54 14.31-10.36 21.46-23.93 21.46-40.7 0-11.84-3.45-21.21-10.36-28.12-6.41-7.4-14.31-13.07-23.68-17.02-9.37-4.44-18.01-7.65-25.9-9.62l-59.94-17.02c-36.01-10.36-62.41-25.16-79.18-44.4-16.28-19.24-24.42-41.69-24.42-67.34 0-23.68 5.92-44.15 17.76-61.42 12.33-17.76 28.86-31.57 49.58-41.44 21.21-9.87 44.89-14.8 71.04-14.8 35.03 0 66.35 8.88 93.98 26.64 28.12 17.76 48.1 42.67 59.94 74.74l-56.24 25.9c-8.88-20.72-22.2-37-39.96-48.84-17.76-12.33-37.74-18.5-59.94-18.5-20.23 0-36.26 5.18-48.1 15.54-11.84 9.87-17.76 22.45-17.76 37.74 0 11.35 2.96 20.72 8.88 28.12 5.92 6.91 13.07 12.33 21.46 16.28 8.39 3.45 16.53 6.41 24.42 8.88l65.12 19.24c32.56 9.37 57.72 23.93 75.48 43.66 18.25 19.73 27.38 43.41 27.38 71.04 0 22.2-6.17 42.18-18.5 59.94-12.33 17.76-29.35 31.57-51.06 41.44-21.71 9.87-46.87 14.8-75.48 14.8z"/><defs><linearGradient id="paint0_linear_923_1686" x1="-205.661" x2="9996.1" y1="-3183.21" y2="9338.07" gradientUnits="userSpaceOnUse"><stop offset=".432" stop-color="#69C3A7"/><stop offset=".917" stop-color="#8D8AC4"/></linearGradient></defs></svg>