<svg xmlns="http://www.w3.org/2000/svg" role="img" viewBox="-17.37 -17.37 929.24 160.24"><title>Antimetal (member) logo</title><path fill-rule="evenodd" d="M46.8038 59.8752c-7.2397 0-13.1631-5.9234-13.1631-13.1631S39.5641 33.549 46.8038 33.549s13.1631 5.9234 13.1631 13.1631-5.9234 13.1631-13.1631 13.1631zm19.7446-46.071c0-7.23968 5.9234-13.16309 13.1631-13.16309S92.8746 6.56452 92.8746 13.8042c0 7.2398-5.9234 13.1632-13.1631 13.1632S66.5484 21.044 66.5484 13.8042zm32.9078 32.9079c0-7.2397 5.9238-13.1631 13.1628-13.1631 7.24 0 13.163 5.9234 13.163 13.1631s-5.923 13.1631-13.163 13.1631c-7.239 0-13.1628-5.9234-13.1628-13.1631zM.73291 79.6199c0-7.2397 5.9234-13.1631 13.16309-13.1631 7.2397 0 13.1631 5.9234 13.1631 13.1631 0 7.2398-5.9234 13.1632-13.1631 13.1632-7.23969 0-13.16309-5.9234-13.16309-13.1632zm131.63109 0c0-7.2397 5.923-13.1631 13.163-13.1631s13.163 5.9234 13.163 13.1631c0 7.2398-5.923 13.1632-13.163 13.1632s-13.163-5.9234-13.163-13.1632zM46.8038 92.6545c-7.2397 0-13.1631-5.9234-13.1631-13.1631s5.9234-13.1631 13.1631-13.1631 13.1631 5.9234 13.1631 13.1631-5.9234 13.1631-13.1631 13.1631zm19.7446-46.0709c0-7.2398 5.9234-13.1632 13.1631-13.1632s13.1631 5.9234 13.1631 13.1632c0 7.2397-5.9234 13.1631-13.1631 13.1631s-13.1631-5.9234-13.1631-13.1631zm32.9078 32.9078c0-7.2397 5.9238-13.1631 13.1628-13.1631 7.24 0 13.163 5.9234 13.163 13.1631s-5.923 13.1631-13.163 13.1631c-7.239 0-13.1628-5.9234-13.1628-13.1631zM.73291 112.399c0-7.239 5.9234-13.1629 13.16309-13.1629 7.2397 0 13.1631 5.9239 13.1631 13.1629 0 7.24-5.9234 13.163-13.1631 13.163-7.23969 0-13.16309-5.923-13.16309-13.163zm131.63109 0c0-7.239 5.923-13.1629 13.163-13.1629s13.163 5.9239 13.163 13.1629c0 7.24-5.923 13.163-13.163 13.163s-13.163-5.923-13.163-13.163zm84.803 8.774L264.123 5.02719h20.74L331.985 121.173h-19.579l-12.722-33.5167h-51.108l-12.66 33.5167h-18.749zm60.727-90.9257l16.185 42.642h-39.925l16.108-42.642c.332-.8849.663-1.7145.995-2.4888.443-.8849.775-1.7698.996-2.6548.442-.8849.774-1.7698.995-2.6547l.996-2.6547.995 2.9865c.332.9956.719 1.9911 1.162 2.9866l.663 2.3229c.332.6637.609 1.3827.83 2.157zm62.608 90.9257V40.8663h16.427V48.9965c-.111.4425-.166.9402-.166 1.4933v1.4933c2.212-3.9821 5.475-7.2453 9.789-9.7894 4.314-2.6547 9.236-3.9821 14.767-3.9821 6.084 0 11.283 1.2721 15.597 3.8162 4.424 2.5441 7.798 6.2497 10.121 11.1168 2.323 4.867 3.484 10.619 3.484 17.2558v50.7726h-16.426V72.7233c0-7.0793-1.382-12.3888-4.148-15.9285-2.765-3.6502-6.969-5.4754-12.61-5.4754-4.093 0-7.688.9955-10.785 2.9866-3.097 1.8805-5.475 4.5352-7.134 7.9643-1.66 3.3184-2.489 6.9687-2.489 10.9508v47.9519h-16.427zm106.648-1.494c3.65 1.659 7.854 2.489 12.61 2.489 1.991 0 3.872-.111 5.641-.332 1.881-.221 3.43-.498 4.646-.829v-13.274c-2.101.332-4.092.498-5.973.498-2.655 0-4.867-.443-6.637-1.328-1.659-.885-2.931-2.267-3.816-4.148-.885-1.88-1.327-4.3138-1.327-7.3004V54.1401h17.753V40.8663h-17.753v-27.543h-16.593v27.543h-16.26v13.2738h16.26v43.3056c0 5.7523.996 10.5083 2.987 14.2693 2.102 3.65 4.922 6.305 8.462 7.964zm35.277-92.916V8.17971h18.251V26.763h-18.251zm.995 80.97V40.8663H499.848V121.173h-16.426v-13.44zm36.218-66.8667v80.3067h16.426V74.2166c0-4.3139.774-8.1854 2.323-11.6145 1.549-3.5397 3.706-6.305 6.471-8.2961 2.765-1.9911 5.918-2.9866 9.458-2.9866 5.309 0 9.18 1.9358 11.614 5.8073 2.434 3.7609 3.65 9.2363 3.65 16.4263v47.62h16.592V73.7189c0-4.2034.719-7.9643 2.157-11.2827 1.438-3.4291 3.54-6.1391 6.305-8.1302 2.766-1.9911 5.974-2.9866 9.624-2.9866 5.42 0 9.347 1.8805 11.78 5.6414 2.545 3.7609 3.817 9.2363 3.817 16.4262v47.786h16.426V70.4004c0-6.8581-1.217-12.7207-3.65-17.5877-2.323-4.867-5.586-8.5173-9.79-10.9508-4.203-2.4336-9.015-3.6503-14.435-3.6503-5.531 0-10.619 1.438-15.265 4.314-4.535 2.7653-8.185 6.4709-10.951 11.1167-2.101-4.7564-5.199-8.5173-9.291-11.2827-3.982-2.7653-8.518-4.148-13.606-4.148-5.199 0-9.789 1.2721-13.771 3.8162-3.982 2.5441-7.19 5.8626-9.624 9.9553v-1.4933c.111-.4425.166-.9402.166-1.4933v-8.1302H519.64zm170.387 82.9607c-7.964 0-14.933-1.659-20.906-4.977-5.973-3.429-10.619-8.352-13.937-14.767-3.319-6.4161-4.978-14.2144-4.978-23.3954 0-8.1855 1.659-15.4861 4.978-21.9017 3.429-6.5263 8.075-11.5592 13.937-15.0989 5.973-3.6503 12.666-5.4754 20.077-5.4754 7.964 0 14.767 1.7698 20.408 5.3095 5.641 3.429 9.955 8.4067 12.942 14.933 2.987 6.4156 4.48 13.9374 4.48 22.5653v3.4844h-60.064c.111 5.3095 1.162 9.9553 3.153 13.9374 1.991 3.9818 4.701 7.0798 8.13 9.2918 3.54 2.102 7.522 3.152 11.946 3.152 5.088 0 9.403-1.216 12.942-3.65 3.65-2.433 5.863-6.25 6.637-11.4485h16.592c-.553 5.1985-2.323 9.9555-5.309 14.2695-2.987 4.203-7.135 7.577-12.444 10.121-5.199 2.434-11.394 3.65-18.584 3.65zm19.579-51.1037c0-6.6368-1.825-11.9463-5.475-15.9285-3.651-3.9821-8.628-5.9732-14.933-5.9732-6.084 0-11.172 2.1017-15.265 6.3051-3.982 4.0927-6.25 9.2916-6.803 15.5966h42.476zm49.633 46.9557c3.65 1.659 7.853 2.489 12.61 2.489 1.991 0 3.871-.111 5.641-.332 1.881-.221 3.429-.498 4.646-.829v-13.274c-2.102.332-4.093.498-5.973.498-2.655 0-4.867-.443-6.637-1.328-1.659-.885-2.931-2.267-3.816-4.148-.885-1.88-1.328-4.3138-1.328-7.3004V54.1401h17.754V40.8663h-17.754v-27.543H747.79v27.543h-16.26v13.2738h16.26v43.3056c0 5.7523.996 10.5083 2.987 14.2693 2.101 3.65 4.922 6.305 8.462 7.964zm59.335 4.148c-4.978 0-9.623-.995-13.937-2.986-4.204-1.991-7.577-4.867-10.122-8.628-2.433-3.761-3.65-8.13-3.65-13.1081 0-7.6324 2.6-13.4396 7.798-17.4218 5.199-4.0927 12.057-6.8028 20.575-8.1301l15.099-2.323c2.101-.3318 3.761-.7743 4.977-1.3273 1.217-.6637 2.102-1.4933 2.655-2.4889.553-.9955.83-2.2676.83-3.8162 0-3.8715-1.383-6.9687-4.148-9.2916-2.766-2.3229-6.416-3.4844-10.951-3.4844-5.42 0-9.679 1.3827-12.776 4.1481-3.097 2.7654-4.812 6.5263-5.144 11.2827h-16.758c.332-5.1989 1.881-9.9 4.646-14.1034 2.765-4.3139 6.637-7.6877 11.614-10.1212 4.978-2.5441 10.73-3.8162 17.256-3.8162 7.08 0 13.053 1.2721 17.92 3.8162 4.867 2.5441 8.517 6.2497 10.951 11.1168 2.433 4.867 3.65 10.6743 3.65 17.4218v50.6066h-15.597v-3.817c0-1.106.056-2.267.166-3.484.111-1.217.166-2.434.166-3.65-2.101 4.314-5.309 7.687-9.623 10.121-4.314 2.323-9.513 3.484-15.597 3.484zm3.319-12.61c3.871 0 7.411-.829 10.619-2.489 3.318-1.769 5.862-4.203 7.632-7.3 1.88-3.208 2.821-6.8583 2.821-10.951V79.858c-.553.6637-1.604 1.2721-3.153 1.8251-1.438.5531-3.429 1.1062-5.973 1.6592l-9.624 1.8252c-5.088.9955-9.125 2.5994-12.112 4.8117-2.876 2.1017-4.314 5.033-4.314 8.7939 0 3.7609 1.328 6.8029 3.982 9.1259 2.766 2.212 6.139 3.318 10.122 3.318zm56.015-92.7501V121.173h16.426V5.02719H877.908V18.4669z" clip-rule="evenodd"/></svg>