<svg xmlns="http://www.w3.org/2000/svg" role="img" viewBox="-38.38 -38.38 1995.76 755.76"><title>Antonio de Nebrija University (member) logo</title><style>svg {enable-background:new 0 0 1920 680}</style><path fill="#fff" d="M1920 451.6V0H0v680h1691.6z"/><path fill="#120c64" d="M1920 680h-163l163-163z"/><path d="M423.1 220.7c.1-1.8 1.1-3.5 2.4-4.9 1.1-1.2 2.5-2.3 4.1-2.1-.4.3-.1 1 .3 1.3.2.1.4.3.6.4 0-2.6 0-5.1-.2-7.7-.1-2.3-1.6-4.4-3.7-5.4-1.1 2.2-2.6 4.2-4.1 5.8-.4.5-1 .9-1.5 1.4h.4c-6.5 7.7-14 16.6-21.5 25.4.3.5.6 1 1 1.5 4.7-2.8 9.5-5.7 14.3-8.6 2 3.5 3.6 6.3 5.5 9.4-2 .7-3.8 1.2-5.5 1.9-1.8.7-3.6 1.5-6.8 2.8 11.4 1.3 18.7-1.9 20.4-10 .4-2 .7-3.9 1-6-.3.1-.5.2-.8.2-3 .5-6-2.3-5.9-5.4m-111.4 176l-.9-1c-.1.2-.3.5-.4.7l1.3.3z"/><path d="M301.3 409.6z"/><path d="M365.1 179.5c4.1 0 8 1.1 9.4-.2 2.3-2.3 3-6.1 4.4-9.3-4.7 2.4-10.4 3.5-13.8 9.5m38-19.5c-8 3.3-16 6.5-24 9.8 1.3 2 2.5 4 4.3 6.8 2.1-3.2 4-6.1 6.1-9.4 2 1.2 4.5 2.8 7.4 4.5 1.3-2.2 2.5-4.2 3.4-5.7 1.8.2 3.4.4 5 .6-.1-1.3 0-2.8-.4-4-.3-1-1.1-1.8-1.8-2.6"/><path d="M400.4 166c-.9 1.5-2 3.5-3.4 5.7-2.9-1.7-5.4-3.2-7.4-4.5-2.1 3.3-4.1 6.2-6.1 9.4-1.8-2.8-3.1-4.8-4.3-6.8 8-3.3 16-6.6 24-9.8.7.9 1.5 1.7 1.8 2.7.4 1.2.3 2.7.4 4-1.6-.3-3.2-.5-5-.7m-25.9 13.3c-1.3 1.4-5.3.2-9.4.2 3.4-6.1 9.1-7.1 13.7-9.6-1.3 3.3-2.1 7-4.3 9.4m120.1 91.5c-3.5-5-6.6-10.4-10.3-15.3-8.1-10.4-16.7-20.4-24.7-30.9-3.2-4.2-7.5-9-7.8-13.7-.5-9.6 1.3-19.4 2.2-29.5 4.5 1.6 7.5 2.6 10.4 3.6-6.1-11.2-7.2-24.6-19.4-32.9 3.4 8.5 6.2 15.7 9.1 22.9l-1.5.6-18.3-17.4c-1.1 3.2-.4 5.5-.7 7.7-.2 1.7-1.4 3.6-2.8 4.6-.8.6-3.6-.1-4.1-1.1-5.5-8.8-14.1-9.6-23.1-9.7.9-.6 1.7-1.3 2.6-1.9 10.6-7.3 23.2-5.8 35-7.5 6.1-.8 7.7-3 4.6-8.4-2.8-4.9-5.8-10.1-10-13.7-15.4-13-27.7-28.4-38.5-45.3-4-6.2-9.7-10.8-17.4-10.9-15.4-.2-31-1.4-46.1.9-23.4 3.6-46.4 9.4-69.5 15-20.3 4.9-40 11.7-52.9 29.6-7.5 10.3-17.8 16.7-27.2 24.6-11.2 9.4-25.3 14.7-34.4 27-7.2 9.7-10.2 19.9-7.9 31.3 3.4 16.6 13.1 29.7 25.2 41.2 9.6 9 20.1 16.7 26.2 29.3 4.3 9 11.3 17.3 24.1 12.1 2-.8 4.7 0 7.1-.2 2.2-.2 4.5-.6 6.7-.9-.6-2.1-1.1-4.2-1.7-6.3-.3-1.3-1.2-3.4-.8-3.7 1.1-.8 2.8-1.3 4.3-1.2 4.7.3 9.3 1.1 14 1.2 1.8.1 3.6-1.1 5.4-1.8l-2.1-5.7c-.7-1.9-1.5-3.9-2.2-5.8h.2l-.1-.1c2-1.3 4-2.9 6.2-3.7 5.5-2 11.5-2.7 16.6-5.4 9.6-4.9 18.7-10.8 28.1-16.4 10.3-9.7 20.4-19.6 30.9-29 7.7-6.9 16-13.2 24.5-20.2-2.9 13.2-5.5 24.6-8 36-.6-.1-1.2-.2-1.8-.2-.6-4.8-1.1-9.5-1.6-14.3-3.1 13.4 3.2 28.1-7.8 40.1 8.2-.5 14.6-6.5 15.8-15.5 1.3-10 1.9-20.1 2.9-30.2 0-.5.6-.9 1.3-1.9.2 2.2.3 3.6.4 4.8 5-4.3 9.6-8.3 14.5-12.5.7 1.2 1.5 2.5 2.4 3.9 2.5-3.2 4.8-6.1 7.2-9.1 1.1 1 1.9 1.8 2.9 2.8 2.6-3.3 5.1-6.5 8.1-10.3.5 2.4.9 4 1.3 5.5.3 1.4.6 2.8.6 3.2 4-3.3 8-6.6 12.4-10.1.5 1.1 1.1 2.3 1.9 4.1 4.1-3.7 7.9-7.3 11.9-10.9 5.6 4.8 11.2 9.7 17.3 15 1.4-3.3 2.7-6.2 3.9-9.2 6.9 2.1 10.5 5.3 8.5 13.1-1.5 5.7-1.3 11.8-2.1 17.7-1 7.5 1.2 14.2 6.8 18.6 16.4 13 25.2 31.8 37.8 47.7 5.3 6.7 3.3 17.8-3.4 21.3-2.4 1.3-5.8.8-9.6 1.2 1.6-3.4 2.5-5.2 3.5-7.4-1.8-.5-3.1-1.4-3.9-1-3.9 1.8-7.9 3.6-11.5 6-4.8 3.2-11.4 3-13.8-1.6-2.7-5.2-.7-9 4.6-11.3.5-.2.9-1 1.3-1.5-.4-.6-.8-1.2-1.2-1.9-2.9 2-7 3.3-8.5 6.1-3.2 6-5 12.7-7.4 19.1.3.2.6.3 1 .4 2.1-2.4 4.3-4.7 5.2-5.7 6 .8 10.8 2.5 15 1.6 4.2-.9 7.8-4.4 11.5-6.7.7 2.1.9 4.4 1.7 4.6 4.1 1 9 3.3 12.4 2 10-3.6 13-17.4 6.6-26.5M299 233.3s-.1 0 0 0zm88 263.4c.2-.1.3-.3.5-.4-.6 1.1-1.2 2.2-1.9 3.3-5.6 1.1-11.2-.3-14.8-2.3-25.9-14.2-53.6-22.5-82-28.9-28.8-6.5-57.9-10.1-87.5-8.9-.8 0-1.6-.6-3.3-1.2 9.7-7.7 44.1-32.2 44.1-32.2 10.2-3.9 27.6-9.9 39.3-12.6l-8.3-12.2 28.2 8.2-18.3-18.8 27.4 5.8c.1-.2.3-.5.4-.7l-16-18.3 26.2 6.7-10.6-17.9 31.1 10.7h3.8c4.1.3 7.4 1.2 9.5 2 4.1 2.2 8.1 4.5 12.1 6.7 5.9 3.2 11.3 5.2 18.1 4.5 7-.8 14 0 19.8 5.2-4.4.3-8.7-.1-13.1-.5-4.7-.5-9.3-1-14-1.4 2.5 1.8 5.3 2.9 8.2 3.4 7.7 1.2 15.5 2.1 23.2 3.3 8.8 1.4 12.1 6.9 9.5 15.3-.8 2.4-1.5 4.9-2.2 7.4.9.2 1.9.5 2.8.8 2.2-7.2 4.3-14.4 6.3-21.2 8.8-3 18.1-6.2 28.6-9.7-2-1.3-2.3-1.6-2.4-1.5-1.1.4-2.3.7-3.4 1.2-12.6 5.8-24.9 5.6-37.8.1-9.5-4-19.8-6.2-29.7-9.3-5.8-1.8-11.9-2.9-17.2-5.8-12.8-6.9-21.9-18.8-35-26-8.1-4.4-14.7-8.1-23.7-6.6-5.8 8.3-10.3 18-17.7 24.5-12.4 11-24.6 24.8-45.2 19.8 3.1 2.6 6.3 5.3 10.5 8.9-7.5 9.3-14.3 19.6-22.9 28.1-10.3 10.1-22.5 18.2-33.1 27.9-5.3 4.8-10.2 9.3-17.3 11.6-4.2 1.4-8.3 4.7-11.4 8-7.5 8-14 16.4-19.4 25.9-1.3 2.4-2.7 4.8-4.5 6.9l-.3.3c-2.9 1-5.1 4.3-7.6 6-5 3.6-1.1 7.4 1.4 10.2 17.3 19.9 37.3 36.7 60.4 49.1 34.9 18.8 72.2 30.4 111.8 35 40.4 4.7 78.9-1.7 116.6-15.9 4.8-1.8 9.4-4.4 14.1-6.8 1.6-.9 7.5-2.5 9.3-2.9-15.3-31.4-21.8-69.5-57.8-93.4-3.9.2-5.4 3.2-4.8 8.6"/><path d="M464 570.7c7.3-2.4 17.9-10 22.1-17.3-9.7-12.3-19.6-24.7-29.4-37.2-10-12.8-17.9-27.3-31.8-37-2.9-2.1-3.6-7.8-4.6-12.1-.7-3.1.1-6.6-.6-9.8-3.5-17.5 6-31 13.8-44.9.7-1.3 2.6-2 4.1-2.6 6.1-2.6 12.2-5.3 18.4-7.7 18-6.9 30.6-28.8 18.1-45.7-1.4-1.8-1.9-6.5-.7-7.7 7-6.7 12.6-13.3 6.6-23.5 6-10.9-3.1-18.4-6.3-27.2 0 4.1.7 8.1 2.1 11.8 3.6 9.7-.4 14.9-10.9 14.8-4.9 0-9.8 1.8-14.7 2.8.3 1 .5 2.1.8 3.1 2.6-.6 5.2-2 7.7-1.7 5.9.6 13.4.2 17 3.7 3.9 3.7-3.2 7-5.9 10.3-.3.3-.8.5-1.2.8.1-.5.1-.9.1-1.4-4.6-.5-9.3-1-14.2-1.5 4 2.9 7.7 4.7 10.1 7.6 2.1 2.5 2.6 6.4 4.3 9.3 4.2 7 7.4 14.5 3.1 22.1-4.7 8.3-9.9 16.2-20.6 19.2-7.5 2.1-15.7 5.4-21.2 10.7-6.1 5.8-9.7 14.4-14.2 22-1 1.7-1.6 4-1.6 6 0 11.3-.1 22.7.4 34 .5 11.7-2.9 14.8-13.9 11.4-.1 0-.3.2-.5.5 25.7 18 41.3 56.9 60.8 91.2.2-.3.5-.6.7-1 .5-.8 1.2-2.7 2.1-3M216 324.8l-.1.1h.4l-.3-.1z"/><path d="M194.3 360.7c-.6.5-1.9 1.6-3.7 3.2 9.3-.7 8.8.3 20.4 5.8 6.7 3.2 15.1 2.9 22.8 4.3l.4-2.3c-3.7-.8-7.4-1.6-11.1-2.5v-1.5c2.6-.7 5.3-1.4 6.8-1.8-3.5-3.3-7.3-6.9-12.4-11.7 8.4-1.7 14.3-2.9 20.3-4.1-11.7-1.2-20.9-6.4-28-15.9-.6.5-1.1.9-1.7 1.3 1.6 6.9 3.3 13.8 4.9 20.7-12.3 2.2-16.4.3-20.5-9.5H206c-4.1-5.4-8.2-10.8-12.2-16.2.5-.6 1.1-1.2 1.6-1.8 2.7-.1 5.4-.3 8.1-.4.4-.4.7-.8 1.1-1.2-2.3-1.2-4.7-2.5-7-3.8.5-.6 1-1.2 1.5-1.7 4.1 1.7 8.1 3.6 12.3 4.8 1.2.4 3-1 4.5-1.7-12.9-.9-17.6-12.1-25.8-21.7v16.9c-2.9-1.1-4.9-1.8-8-3 2.5 5.3 4.5 9.4 6.7 14.1-3.4-1-5.9-1.8-8.5-2.5-.4.5-.8 1-1.2 1.6 3.4 3.8 6.9 7.6 10.3 11.4-3-.8-6.2-1.6-10.4-2.7 5.6 8.2 10.5 15.1 15.3 21.9m17.5-63.5c4.5 1.9 9 3.7 14.8 6.2-4.4 1.8-7.3 2.9-9.8 4 6.3 4.9 12.4 9.7 19.2 15-.9.3-2.3.8-4.5 1.6 21.9 7.6 26.4 7.6 37.6.9h-20.2c2.6-4.2 4.5-7.2 6.2-10.3 1.6-2.9 3-5.9 4.6-8.9-16.6 15.6-17.8 13.6-27.4 3.7 2.1-3.3 4.2-6.7 6.4-10.1-4.9-.6-9.3-1.2-13.7-1.8l-.6-2.4c3.6-3.4 7.3-6.8 12.5-11.6-4.7 1.9-7.5 3-10.4 4.2h-.1c-4.8 3.1-9.5 6.2-14.6 9.5M388.2 221c8.6-6.7 15.2-15.9 25.4-20.7 7.5-3.5 15-2.8 21.2 4.1v-10.7c-4.3-.4-7.3-.6-10.3-.9-14.1-1.6-33.6 7.8-40.2 19.6-4.3 7.8-8.1 15.9-13 23.2-3.3 4.9-2.7 8.3-2.1 8.9 2.7-3.2 9.3-11.8 18.5-13.8-2.8-1.1-4.6-1.8-6.6-2.5 2.6-2.6 4.6-5.2 7.1-7.2m-84.9 39.1c-3 5.5-4.7 12.5-9.3 15.9-4.4 3.3-11.6 3-17.1 4.1 6.5 8.4 16.6 10.8 27.9 8.2 11.3-2.6 19.1-9.7 20.8-18-9.9 11.7-20.2 16.2-27 12.5 1.9-7.7 3.7-15.2 5.6-22.7h-.9"/><path d="M257.9 273.8h-26.7c5.3 4.9 9.7 8.9 14.7 13.5-3.8 2-6.9 3.6-10.7 5.6 11.1 7.5 22 10.6 33.9 7.1-6.8-1.7-13.8-3.4-21.3-5.3 2.8-5.9 4.5-9.6 6.3-13.4-.5-.3-.9-.5-1.4-.8-1.5 1.3-3 2.6-4.5 4-2.2-3.6-2.2-3.6 9.7-10.7m-73.3 19.4c5.4 4.3 9.2 8.2 13.7 10.6 4.7 2.5 10.3 3.4 15.5 5 .2-.3.4-.5.6-.8-4.2-3-8.4-6-14.3-10.3 9.9-3.8 18.1-7 26.3-10.1-10.1-.8-20.1-1.6-30.3-2.4 2.4 7.3-3.3 8.6-11.5 8m107.1-24.4c-10.1-.4-20.2 2.5-28.7-5.7 3-1.7 5.9-3.2 8.6-4.9 3-1.9 5.8-4.1 8.7-6.2 2.4-1.7 4.7-3.6 6.5-5-8.5 3.3-17 7-25.8 10-4 1.3-8.4 1.3-12.7 1.8 14.9 13.4 28.9 15.8 43.4 10m-54.4 116.8c7-.6 14.3-.8 20.9-3 12.3-4 23.4-10.1 28.9-25.2-21.6 21.9-40.9 28-59.3 19.3.6 6.1 3.5 9.5 9.5 8.9m99.8-73.4c-4.8 2.9-7.6 9.4-14.4 7.7.8-6.3 1.6-12.2 2.4-18.2-.6-.2-1.3-.4-1.9-.6-2.1 11.1-5.3 21.1-19.6 21.4 6.2 5.4 13.1 5.7 19.8 3.6 6.7-2 10.6-7.7 13.7-13.9m14.6-28c-4.6 10.8-12.4 13.3-20.7 6.9 3.1-5.2 6.2-10.3 9.3-15.5-.3-.1-.6-.1-.9-.2l-19.2 15c6.4 8.3 12.9 10.7 22.7 7.4 6.4-2.1 8.8-5.8 8.8-13.6m-57.7 23l-.2.2c.1-.1.2-.1.2-.2"/><path d="M311.9 313.9c4.6-5 6.5-16.4 3.5-21.7-1.5 15.3-3.2 17.9-12.8 20.1-.2-4-.5-8-.7-12.1-2.9 2.6-5.4 4.8-7.8 7-.4 3.4-.8 6.9-1.2 10.9 5.8 2.9 13.7 1.5 19-4.2m-66.1 31.4c-4.3-1.6-9.4-3.6-14.5-5.5.3-.6.5-1.2.8-1.8 4.3-1.7 8.6-3.4 12.9-5-.1-.6-.2-1.3-.3-1.9-3.8 0-7.6.3-11.4-.1-4.2-.5-8.2-1.7-12.9-2.7 4 14.5 14.4 21.3 25.4 17m32.8 8.6c-10 5.9-12.9 5.3-19.3-4.1-.5-.8-.8-1.8-1.1-2.4-.7 6.9-1.4 12.9-2 18.8 12.6-.9 26.6-8.6 33.9-19.9-4.7 3.1-8 5.5-11.5 7.6m-25.5 16.2c-3.6-1.4-6.9-2.7-10.5-4.2 4.5-7.8 8.3-14.6 12.2-21.3l-1.9-1.2c-5.1 8.5-11.2 15.7-22.2 16.3 6.1 9.8 13.1 13.1 22.4 10.4M299 233.3s-.1 0 0 0c-.1.1-.1.1 0 0-.1.1-.1 0 0 0m-1.2 3.3c2.5 6.9 3 13.4-4.6 19 15.8-.9 26-18 21.6-27.2-3 5.2-6.3 11-9.6 16.9-.7-.3-1.5-.6-2.2-.9-1.3-3.7-2.7-7.3-4.1-11-.4 1.1-1.4 2.4-1.1 3.2m-3 90.5c-4.7 6.3-10.3 10.2-19.3 9.1 1-3.7 1.8-6.8 2.8-10.5-4.9 4.4-9.4 8.5-14.4 13.1 7.2 4.7 14.8 3.9 22.3 0 6.6-3.5 8.8-6.7 8.6-11.7m40.4-123.3c-1.9 8.1-3.8 16.3-6.3 26.6-2.6-5.4-4.6-9.6-6.4-13.4-2.4 11.9 1.3 17.4 16.3 21-8.7-11.8-4.9-22.8-1-33.8-.9-.1-1.7-.3-2.6-.4"/><path d="M288.8 325.4c-1.8-.7-3.2-.9-4.1-1.8-2.8-2.6-5.4-5.4-8.1-8.2 2.6-2.3 4.8-5.2 7.8-6.6 2.6-1.3 6-1.2 9-1.5-2.4-.9-5.1-2.9-6.9-2.3-6.9 2.3-13.4 5.7-20.6 8.9 16.2 12.8 16.2 12.8 22.9 11.5m5.2-18.2c-.2 0-.4 0-.6.1.1 0 .2.1.3.1l.3-.2zm11.2 37.1c-.1 0-.1.1-.2.1l.2-.1z"/><path d="M318.7 330.7c-3.3 2.4-6.5 4.9-10.7 8l2.2-6.2c-5.6 5-11.3 10.1-17 15.2 3.6-1 7.8-2.2 11.9-3.3 5-4 9.9-8 14.9-12-.4-.7-.8-1.2-1.3-1.7m.3-93.4c-1 6.1-.1 12.5-1.3 18.4-1.3 5.9-4.8 11.3-7.1 16.6 10.8-5.6 12.5-11.6 8.4-35m-114.6 72.6c.8 7.6 5.2 12.2 11.7 15h-.1c2.8-1.1 5.7-2.3 8.5-3.4-9.8.9-15.4-4.5-20.1-11.6m125.7-61.7c4.3 6 8.7 12 13 18.1-.4-3.9-2.8-6.7-3.1-9.7-.2-2.3 2.3-4.9 3.1-6.4-3.9-.7-8.5-1.3-13-2M283 291.3c-4.4-1.1-9-2.2-13.8-3.4 2.4 6.9 5.9 7.8 13.8 3.4"/><path fill="#a50932" d="M1625.4 230.5c-.5 2.2-1.3 4.3-2.2 6.2-1 1.9-2.2 3.6-3.7 5.2-1.4 1.5-2.8 2.8-4.3 3.9-1.4 1-3.1 1.9-4.9 2.6-1.8.7-3.9 1.2-6.2 1.6-2.3.3-4.9.5-7.7.5-2.4 0-4.3-.2-5.4-.7-1.1-.4-1.9-1.1-2.2-1.9-.3-.8-.4-2.1-.4-3.8v-45.9c2.3-.3 4.7-.4 7.3-.4 7.5 0 13.5 1.3 18.1 3.8 4.6 2.5 7.8 5.7 9.6 9.6 1.9 3.9 2.8 8.1 2.8 12.5-.1 2.3-.3 4.6-.8 6.8m5.4-18.3c-1.6-3.3-3.8-6.3-6.7-8.7-2.9-2.5-6.5-4.4-10.6-5.7-4.2-1.4-8.8-2-13.8-2h-3.5c-1 0-3 .1-5.9.1-2.9.1-5.8.1-8.5.2-2.8.1-5.5.2-8.2.2v1.2c2.2.1 3.9.3 5.1.5 1.2.3 2.1.7 2.6 1.3.5.6.9 1.5 1.1 2.6.2 1.2.2 2.8.2 4.9V240c0 3.4-.1 5.7-.4 6.9-.3 1.2-1 2.1-2.2 2.6s-3.4.9-6.5 1.2v1.2c1.6 0 5.5.1 11.6.2 6.2.1 9.3.2 9.3.2 8.5 0 14.9-.8 19.4-2.5 3.9-1.4 7.3-3.5 10.2-6.2 2.9-2.7 5.1-5.9 6.7-9.4 1.6-3.6 2.3-7.3 2.3-11.2.1-3.8-.6-7.5-2.2-10.8M1492 224.8l8.3-24.3 8.4 24.3H1492zm39.2 26.2c-2.7-.5-4.5-.9-5.5-1.3s-1.9-1.2-2.5-2.2c-.7-1-1.5-3-2.5-5.9l-16.1-46.2h-6.1l.9 2.2-15 43.5c-1 2.8-1.9 4.9-2.8 6.2-.9 1.3-1.8 2.2-2.8 2.6-1 .4-2.5.8-4.6 1.1v1.2h20.7V251c-2.7-.2-4.8-.5-6.2-.8-1.4-.3-2.4-.8-3-1.3-.6-.5-.9-1.2-.9-2.1 0-.8.4-2.5 1.3-5l5.2-15h18.2l5.6 15.9c.7 2 1.1 3.4 1.1 4.4 0 .8-.2 1.4-.7 1.9-.4.5-1.2.8-2.4 1.1-1.1.3-3.1.6-5.8.9v1.2h23.9V251zm-103.5-20.5c-.5 2.2-1.3 4.3-2.2 6.2-1 1.9-2.2 3.6-3.7 5.2-1.4 1.5-2.8 2.8-4.3 3.9-1.5 1-3.1 1.9-4.9 2.6-1.8.7-3.9 1.2-6.2 1.6-2.3.3-4.9.5-7.7.5-2.4 0-4.2-.2-5.4-.7-1.2-.4-1.9-1.1-2.2-1.9-.3-.8-.4-2.1-.4-3.8v-45.9c2.3-.3 4.7-.4 7.3-.4 7.5 0 13.5 1.3 18.1 3.8 4.6 2.5 7.8 5.7 9.6 9.6 1.9 3.9 2.8 8.1 2.8 12.5-.1 2.3-.3 4.6-.8 6.8m5.4-18.3c-1.6-3.3-3.8-6.3-6.7-8.7-2.9-2.5-6.5-4.4-10.6-5.7-4.2-1.4-8.8-2-13.8-2h-3.5c-1 0-3 .1-5.9.1-2.9.1-5.8.1-8.5.2-2.8.1-5.5.2-8.2.2v1.2c2.2.1 3.9.3 5.1.5 1.2.3 2.1.7 2.6 1.3.5.6.9 1.5 1.1 2.6.2 1.2.2 2.8.2 4.9V240c0 3.4-.1 5.7-.4 6.9-.3 1.2-1 2.1-2.2 2.6s-3.4.9-6.5 1.2v1.2c1.6 0 5.5.1 11.6.2 6.2.1 9.3.2 9.3.2 8.5 0 14.9-.8 19.4-2.5 3.9-1.4 7.3-3.5 10.2-6.2 2.9-2.7 5.1-5.9 6.7-9.4 1.6-3.6 2.3-7.3 2.3-11.2.2-3.8-.6-7.5-2.2-10.8M1332.2 251c-2.1 0-3.7-.2-4.8-.5-1.1-.3-2-.8-2.5-1.5s-.8-1.5-.9-2.4c-.1-.9-.2-2.3-.2-4.2v-35.9c0-2 .1-3.5.2-4.5.1-.9.4-1.7.9-2.4.5-.6 1.3-1.1 2.5-1.4 1.2-.3 2.8-.6 4.8-.7v-1.2h-22.3v1.2c2.8.2 4.8.5 5.8 1s1.7 1.3 2 2.4c.2 1.2.4 3.3.4 6.5V242c0 2.8-.1 4.8-.4 5.9-.3 1.1-1 1.9-2.1 2.3-1.1.4-3 .6-5.6.6v1.2h22.3v-1zm-68.9-20c-1.4-2.1-3-3.9-5-5.4-1.9-1.5-4.6-3.3-7.9-5.4-3.5-2.2-6.2-3.9-8-5.2-1.8-1.3-3.2-2.6-4.2-4s-1.4-2.9-1.4-4.6c0-1.3.3-2.6 1-4 .7-1.3 1.8-2.5 3.4-3.5 1.6-1 3.5-1.4 5.9-1.4 1.7 0 3.4.3 5.1 1 1.6.7 3.1 1.6 4.3 2.7 1.2 1.1 2.2 2.3 3.1 3.7.9 1.4 1.5 2.8 1.9 4.3h1.1l-1.4-12.2h-1.1c-.1 1.4-.5 2.2-1.2 2.2-.3 0-.7-.2-1.3-.5-1.9-1.1-3.6-1.9-5.3-2.5-1.7-.6-3.5-.9-5.5-.9-3 0-5.6.6-7.8 1.9-2.2 1.3-3.8 2.9-5 4.8-1.1 2-1.7 4-1.7 6 0 3.3 1.2 6.2 3.5 8.6 2.4 2.5 5.9 5.1 10.6 8 3.2 1.9 5.7 3.5 7.7 5 1.9 1.5 3.4 3 4.5 4.6 1 1.6 1.6 3.4 1.6 5.4 0 2-.5 3.8-1.6 5.6-1.1 1.8-2.5 3.2-4.3 4.2-1.8 1-3.8 1.6-6 1.6-1.8 0-3.8-.4-6-1.3s-3.9-2.2-5.3-4.1c-1.8-2.3-3.2-5.1-4.3-8.4h-1l2.2 14.3h.9c.3-1.4.8-2 1.6-2 .1 0 1.4.5 3.9 1.6 1.9.8 3.4 1.3 4.6 1.6 1.1.3 2.5.5 4.1.5 3.1 0 5.9-.8 8.5-2.3 2.5-1.5 4.5-3.4 5.9-5.8 1.4-2.4 2.1-4.7 2.1-7-.1-2.6-.8-5-2.2-7.1m-97.2-9.5c-3.2 2-7.4 3.1-12.5 3.1h-4.4v-26.5c2.5-.3 4.7-.4 6.6-.4 3.6 0 6.5.6 8.8 1.9 2.3 1.3 3.9 2.9 4.9 5 1 2 1.5 4.3 1.5 6.7-.1 4.8-1.7 8.2-4.9 10.2m23.1 30.6c-1.8-.1-3.6-.9-5.4-2.4-1.8-1.5-3.5-3.2-4.9-5.2-1.5-2-2.8-4-3.9-6s-2.1-3.7-2.8-5c-.4-.8-1.3-2.2-2.7-4.4-1.3-2.1-2.2-3.6-2.6-4.2 1.8-.6 3.5-1.5 5.2-2.7 1.7-1.3 3-2.9 4.1-4.7 1.1-1.9 1.6-4 1.6-6.3 0-2-.4-3.9-1.2-5.7-.8-1.8-2.1-3.5-3.8-4.9-1.7-1.4-4-2.6-6.8-3.4-2.8-.8-6.1-1.3-9.8-1.3-.7 0-3.7.1-9 .2s-9.4.3-12.5.4v1.2c3.7.1 6.1.7 7.2 1.7 1.1 1 1.6 2.5 1.6 4.4v39.7c0 2-.2 3.5-.6 4.5-.4 1-1.2 1.7-2.4 2.2-1.2.5-3.1.8-5.7 1v1.2h24.7V251c-3.2-.3-5.5-.6-7-1.1-1.4-.5-2.3-1.1-2.7-1.9-.3-.8-.5-2.1-.5-3.9V226.5h4c2 0 4.6-.2 7.8-.5.3.4.7 1 1.2 1.8l1.5 2.4c.5.7 2.1 3.3 4.8 7.8 1.7 2.9 3.2 5.1 4.4 6.8 1.2 1.7 2.6 3.1 4 4.4 1.5 1.2 3.2 2.2 5.1 2.9 1.9.7 4.3 1 7.1 1.1v-1.1zM1089 238.4c-.8 3.8-1.6 6.5-2.5 8.1-.9 1.6-2.1 2.6-3.5 3-1.4.4-3.6.6-6.6.6h-8.2c-2.1 0-3.5-.2-4.2-.5-.7-.4-1.2-1-1.4-2-.2-1-.3-2.9-.3-5.8v-17.3h12.4c2 0 3.5.2 4.5.6 1 .4 1.7 1.1 2.2 2.2.4 1.1.7 2.8.9 5.2h1.2v-17.2h-1.2c-.1 1.7-.3 3-.6 4.1-.3 1-.8 1.8-1.4 2.2-.6.4-1.3.7-2.1.8-.8.1-2.2.1-4 .1h-11.9v-24.1h10.3c3.7 0 6.3.2 7.8.5 1.5.4 2.5 1.2 3.2 2.6.7 1.4 1.3 3.9 1.8 7.7h1.2l-.7-12.8h-38.6v1.2c3.2.2 5.4.6 6.6 1.1 1.2.5 2 1.2 2.3 2.2.3.9.4 2.5.4 4.7v36.6c0 2.8-.2 4.6-.5 5.6s-1.1 1.7-2.4 2.2c-1.3.4-3.5.8-6.9 1.1v1.2h41.9l1.4-13.7h-1.1zm-83.7-42.1h-19v1.2c3.1 0 5.3.3 6.7.8 1.4.5 2.1 1.4 2.1 2.7 0 .8-.2 1.8-.7 3l-16.2 42-14.7-37.3c-1.2-3-1.9-4.9-2.2-5.7-.3-.8-.5-1.6-.5-2.4 0-1.1.6-1.9 1.7-2.4 1.1-.4 3.2-.7 6.2-.8v-1.2h-22.5v1.2c2.3.1 3.9.2 4.9.5 1 .3 1.8 1.1 2.5 2.3.7 1.2 1.7 3.3 2.9 6.3l18.6 47h2.3l17.8-46.4c1.1-3 2.1-5.1 2.9-6.4.8-1.3 1.7-2.1 2.7-2.5 1-.4 2.5-.7 4.5-.8v-1.1zm-102 54.7c-2.1 0-3.7-.2-4.8-.5-1.1-.3-1.9-.8-2.5-1.5-.5-.7-.8-1.5-.9-2.4-.1-.9-.2-2.3-.2-4.2v-35.9c0-2 .1-3.5.2-4.5.1-.9.4-1.7.9-2.4.5-.6 1.3-1.1 2.5-1.4 1.2-.3 2.8-.6 4.8-.7v-1.2H881v1.2c2.8.2 4.8.5 5.8 1s1.7 1.3 2 2.4c.3 1.2.4 3.3.4 6.5V242c0 2.8-.1 4.8-.4 5.9-.3 1.1-1 1.9-2.1 2.3-1.1.4-3 .6-5.6.6v1.2h22.3v-1zm-65.9-54.7h-20.2v1.2c2.9.2 5 .6 6.3 1.3 1.3.6 2.2 1.5 2.6 2.7.4 1.2.6 3 .6 5.4v36.6l-37.1-47.1h-13.3v1.2c3.9.6 6.7 1.6 8.4 3v39.8c0 2.8-.2 4.9-.5 6.1-.4 1.2-1.1 2.2-2.2 2.8-1.1.6-3 1.2-5.6 1.7v1.2h20.3V251c-2.9-.2-5.1-.6-6.5-1.4-1.4-.7-2.3-1.7-2.7-3-.4-1.3-.6-3.1-.6-5.6v-38.7l40.2 50.9h1.9v-46c0-2.5.3-4.4.8-5.6.5-1.2 1.3-2.1 2.5-2.7 1.2-.5 3-1 5.4-1.5v-1.1zm-104.7 0h-19.5v1.2c2.7.3 4.6.6 5.8 1.1 1.2.5 2 1.2 2.5 2.3.4 1 .7 2.7.7 4.9v25.8c0 4.1-.8 7.6-2.4 10.5-1.6 2.9-3.8 5-6.5 6.5s-5.8 2.2-9.2 2.2c-5.8 0-10.1-1.6-13.1-4.8-3-3.2-4.5-7.7-4.5-13.6v-27.9c0-1.6.2-2.8.5-3.7.3-.9 1.1-1.6 2.3-2.2 1.2-.6 3.2-.9 5.8-1.1v-1.2h-22.8v1.2c2.7.2 4.7.6 5.9 1 1.2.4 1.9 1 2.2 1.8.3.8.4 1.9.4 3.5v30.1c0 2.8.4 5.4 1.3 7.8.9 2.4 2.2 4.4 4 6.2 1.8 1.8 4 3.1 6.7 4.1 2.7.9 5.9 1.4 9.4 1.4 3.2 0 6.2-.4 8.8-1.3 2.7-.8 5-2.2 7-4 2-1.8 3.5-4.2 4.6-7 1-2.9 1.6-6.3 1.6-10.2v-24.2c0-2.7.5-4.8 1.5-6.3 1-1.6 3.4-2.5 7-2.7v-1.4z"/><path d="M1611.9 402l26.4-76.9 26.8 76.9h-53.2zm124.2 82.8c-8.4-1.5-14.2-2.9-17.5-4.3-3.2-1.3-5.9-3.6-8-7-2.1-3.3-4.8-9.6-8-18.8l-51.1-146.2h-19.2l2.8 6.8-47.4 137.9c-3.1 9-6.1 15.5-8.8 19.7-2.8 4.2-5.7 7-8.9 8.3-3.2 1.3-8 2.5-14.6 3.4v3.7h65.7v-3.7c-8.6-.6-15.2-1.5-19.6-2.5-4.4-1-7.6-2.4-9.5-4.1-1.9-1.7-2.8-3.9-2.8-6.5s1.4-7.9 4.2-15.7l16.4-47.5h57.5l17.8 50.4c2.2 6.3 3.4 10.9 3.4 13.8 0 2.6-.7 4.6-2.2 6-1.4 1.4-4 2.6-7.6 3.5-3.6.9-9.7 1.8-18.2 2.8v3.7h75.7v-3.7zm-187.1-173h-73.5v3.7c9.5.7 16.2 1.9 19.9 3.5 3.8 1.6 6.1 4.1 7 7.4.9 3.3 1.3 9 1.3 17.2V492.3c0 8.7-.3 15-.8 18.8-.5 3.8-1.8 7.8-3.9 11.9-1.8 3.7-4.1 6.5-6.9 8.4-2.8 1.9-5.5 2.9-8 2.9-3.8 0-7.7-1.8-11.9-5.4-3.7-3.3-6.1-5.3-7.3-6.1-1.2-.8-2.4-1.1-3.8-1.1-1.9 0-3.6.6-5.2 1.9-1.5 1.2-2.7 2.7-3.6 4.3-.9 1.6-1.3 3.1-1.3 4.5 0 3 2.1 5.7 6.4 8.3 4.2 2.6 9.2 3.9 15 3.9 7 0 14.1-2.1 21.1-6.4 7-4.2 12.7-10.2 17.1-18 4.9-8.6 8-16.4 9.3-23.3 1.3-6.9 2-14.5 2-22.9V341.3c0-7.1.4-12.1 1.3-14.9.9-2.8 3-5 6.4-6.4 3.4-1.4 9.8-2.9 19.3-4.4v-3.8zm-103.9 173c-6.6 0-11.6-.5-15.2-1.5-3.6-1-6.2-2.6-7.8-4.8-1.6-2.2-2.6-4.8-3-7.7-.4-3-.5-7.4-.5-13.4V343.8c0-6.5.2-11.2.5-14.2.4-3 1.3-5.5 2.9-7.4 1.6-2 4.2-3.5 8-4.6 3.8-1.1 8.8-1.8 15.1-2.1v-3.7h-70.6v3.7c9 .6 15.1 1.7 18.4 3.2 3.3 1.5 5.4 4.1 6.2 7.7.8 3.7 1.2 10.5 1.2 20.5v109.7c0 8.9-.5 15.1-1.4 18.7-.9 3.6-3.1 6.1-6.5 7.4-3.4 1.4-9.4 2-17.9 2v3.7h70.6v-3.6zm-170.9-93.2c-10.2 6.4-23.4 9.7-39.7 9.7h-13.8v-83.8c7.9-.9 14.9-1.3 20.9-1.3 11.4 0 20.6 2 27.8 6.1 7.2 4 12.3 9.3 15.4 15.8 3.1 6.5 4.7 13.6 4.7 21.2 0 15.1-5.1 25.9-15.3 32.3m73.4 96.7c-5.7-.3-11.4-2.8-17.2-7.6-5.8-4.7-11-10.3-15.7-16.6-4.6-6.4-8.7-12.7-12.2-18.9-3.5-6.2-6.5-11.6-9-16-1.4-2.4-4.2-7-8.4-13.8-4.2-6.8-7-11.3-8.3-13.4 5.7-1.8 11.2-4.7 16.4-8.7 5.3-4 9.6-9 13-15 3.4-6 5-12.6 5-20 0-6.3-1.3-12.4-3.8-18.2-2.6-5.8-6.6-11-12.1-15.5s-12.7-8.1-21.5-10.8c-8.9-2.7-19.2-4-31-4-2.3 0-11.8.2-28.5.7-16.7.4-29.9.9-39.5 1.3v3.7c11.8.3 19.3 2.1 22.7 5.3 3.4 3.2 5 7.8 5 13.9v125.9c0 6.3-.6 11-1.9 14.1-1.2 3.1-3.8 5.4-7.7 6.8-3.9 1.5-9.9 2.6-18.2 3.3v3.7h78.1v-3.7c-10.2-.8-17.5-1.9-22.1-3.4-4.6-1.4-7.4-3.4-8.5-5.9-1.1-2.5-1.6-6.6-1.6-12.4V407.3h12.7c6.2 0 14.5-.5 24.8-1.4.9 1.2 2.2 3.1 3.9 5.8 1.7 2.7 3.3 5.2 4.8 7.5s6.5 10.6 15.2 24.7c5.5 9 10.2 16.2 14 21.5 3.8 5.3 8.1 10 12.8 13.9 4.7 4 10 7 16.1 9.1 6 2.1 13.5 3.2 22.5 3.5v-3.6zm-232.8-29.8c-3.2 6.9-8.7 12.6-16.4 17-7.8 4.4-17.8 6.7-30.1 6.7-8.5 0-14.6-1-18.5-3.1-3.8-2.1-6.2-5.1-7.1-8.9-.9-3.9-1.4-10.1-1.4-18.7V391h20.2c19.8 0 34.5 4.1 44 12.4s14.2 19.2 14.2 32.8c-.1 7.9-1.7 15.4-4.9 22.3m-13.2-82.6c-6.8 5.8-17.5 8.7-32.1 8.7h-28.2v-66.9c1-.1 3.5-.3 7.3-.7 3.8-.4 7.1-.6 9.8-.7 2.7-.1 5-.2 7-.2 8.1 0 15.1 1 21.2 2.9 6 2 10.9 4.6 14.5 7.8 3.6 3.2 6.3 7.1 8.1 11.5 1.8 4.4 2.7 9.1 2.7 13.9-.1 10-3.5 17.9-10.3 23.7m37.3 44.6c-1.6-4.7-4.1-9.3-7.5-13.6-3.4-4.4-8-8.2-13.6-11.6-5.6-3.4-12.1-6.1-19.6-8 10.4-2.7 18.4-7.2 24.1-13.3 5.7-6.2 8.5-13.8 8.5-23 0-5.4-1.6-11.1-4.8-17.2-3.2-6.1-9.8-11.6-19.7-16.5-9.9-4.9-24-7.3-42.1-7.3-2.4.1-7.6.2-15.5.4s-16.1.4-24.4.7c-8.4.3-13.6.4-15.7.5-2.1 0-7.3.2-15.5.4v3.7c10.5.8 17.6 1.8 21.4 3.1 3.8 1.2 6.1 3.4 7.1 6.6 1 3.2 1.4 8.9 1.4 17.1v109.7c0 9.6-.5 16.4-1.5 20.3-1 3.9-3.6 6.8-7.9 8.8-4.3 1.9-11.6 3.2-22 3.8v3.7h79.2c14.9 0 27.6-2.3 38.2-7 10.6-4.6 18.6-11.1 24.1-19.3 5.4-8.2 8.2-17.4 8.2-27.7-.1-4.9-.8-9.6-2.4-14.3M961 445.1c-2.4 12.1-5.1 20.6-8 25.7-2.9 5-6.6 8.2-11 9.5-4.4 1.3-11.4 1.9-20.9 1.9h-25.8c-6.6 0-11-.6-13.4-1.7-2.4-1.1-3.8-3.3-4.4-6.5-.6-3.2-.9-9.3-.9-18.4v-54.8h39.1c6.3 0 11.1.6 14.3 1.9 3.2 1.3 5.5 3.6 6.9 7 1.4 3.4 2.4 8.9 3 16.6h3.7v-54.6h-3.7c-.3 5.3-1 9.6-2 12.8-1 3.3-2.5 5.6-4.3 6.9-1.8 1.3-4.1 2.1-6.8 2.5-2.7.3-6.9.5-12.7.5h-37.6v-76.2h32.6c11.8 0 19.9.6 24.5 1.7 4.6 1.1 7.9 3.8 10 8.2 2.1 4.3 4 12.4 5.8 24.2h3.7l-2.3-40.6H828.7v3.7c10 .7 17 1.9 20.9 3.5 4 1.6 6.4 3.9 7.3 6.9.9 3 1.4 8 1.4 14.9v115.8c0 8.7-.5 14.7-1.5 17.9-1 3.2-3.5 5.5-7.5 6.9-4 1.4-11.2 2.5-21.7 3.4v3.7h132.7l4.4-43.5H961zM805 311.8h-64v3.7c9.1.7 15.8 2 20 4 4.2 1.9 6.9 4.7 8.2 8.4 1.2 3.7 1.9 9.4 1.9 17.2v115.8L653.5 311.8h-42.2v3.7c12.2 1.8 21.1 5 26.5 9.6v126.1c0 9-.6 15.4-1.7 19.3-1.1 3.9-3.4 6.9-7 8.9-3.5 2-9.5 3.8-17.9 5.3v3.7h64.2v-3.7c-9.2-.6-16.1-2-20.6-4.3s-7.4-5.5-8.7-9.5c-1.3-4-1.9-9.9-1.9-17.6V330.7L771.5 492h6V346.4c0-7.9.8-13.9 2.4-17.8 1.6-4 4.2-6.8 7.9-8.5 3.6-1.7 9.4-3.2 17.2-4.7v-3.6z"/></svg>