<svg xmlns="http://www.w3.org/2000/svg" role="img" viewBox="5.55 9.30 348.66 90.16"><title>Astera Labs, Inc. (member) logo</title><defs><style>.cls-1{fill:#656769}.cls-2{fill:#3c79bc}</style></defs><g id="Layer_1-2"><g id="_319577872"><path d="M78.43 85.29l3.31 5.7.66 1.15.4.66H16.37c-.75 0-1.41-.18-1.99-.53-.57-.31-1.1-.8-1.46-1.41-.35-.66-.53-1.33-.53-1.99s.18-1.32.53-1.99L31.65 54.5l21.07-36.48.66-1.15.4-.66.4.66.62 1.15 3.31 5.7c.35.62.53 1.28.53 1.94 0 .71-.18 1.37-.53 1.99L25.96 83.3h49.07c.75 0 1.41.18 1.99.53.57.31 1.06.84 1.41 1.46z" class="cls-1"/><path d="M72.55 78.7H40.79c-.71 0-1.41-.18-1.99-.53-.57-.35-1.06-.84-1.41-1.46-.35-.62-.57-1.28-.57-1.99 0-.66.22-1.32.57-1.94L58.5 36.21c.35-.62.84-1.15 1.41-1.46.62-.35 1.28-.53 1.99-.53s1.41.18 1.99.53c.57.31 1.06.84 1.41 1.46l31.62 54.77.66 1.15.4.66h-8.7c-.71 0-1.37-.18-1.94-.53-.62-.31-1.1-.8-1.46-1.41L61.9 49.29l-2.47 4.28-9.01 15.64h16.47c.71 0 1.37.18 1.94.49h.04c.57.35 1.06.84 1.41 1.46l3.27 5.7.66 1.15.4.71h-2.08z" class="cls-2"/><path d="M334.87 49.86l-1.63 2.43c-1.37-1.86-2.92-2.83-4.77-2.83-1.02 0-1.9.35-2.65 1.02-.75.66-1.1 1.41-1.1 2.25 0 .62.22 1.24.66 1.81.44.57 1.41 1.37 2.96 2.34 2.25 1.46 3.75 2.74 4.46 3.8.71 1.1 1.06 2.34 1.06 3.8 0 1.94-.66 3.58-2.03 4.9-1.41 1.28-3.18 1.94-5.39 1.94-2.91 0-5.39-1.33-7.38-3.89l1.86-2.16c1.72 2.12 3.62 3.18 5.7 3.18 1.15 0 2.16-.4 3.05-1.19.84-.84 1.28-1.77 1.28-2.87 0-.88-.31-1.72-.97-2.52-.4-.53-1.55-1.37-3.36-2.61-1.99-1.32-3.31-2.43-3.93-3.36-.62-.88-.88-1.86-.88-2.96 0-1.77.62-3.22 1.94-4.46 1.33-1.24 3-1.86 4.99-1.86 1.19 0 2.25.22 3.22.71.97.49 1.94 1.33 2.92 2.52zm-29.19-.49c-1.94 0-3.67.49-5.3 1.37-1.59.93-2.83 2.25-3.75 3.98-.97 1.68-1.41 3.53-1.41 5.56 0 2.43.75 4.42 2.3 5.96 1.55 1.5 3.53 2.25 5.96 2.25 2.87 0 5.34-1.02 7.38-3.09 2.08-2.12 3.09-4.68 3.09-7.73 0-2.47-.75-4.46-2.3-6.01-1.5-1.55-3.53-2.3-5.96-2.3zM295.3 38.11h3.09l-1.68 12.68c2.74-2.78 5.83-4.15 9.32-4.15 3.18 0 5.83 1.02 7.86 3.09 2.03 2.03 3.05 4.68 3.05 7.95 0 3.71-1.33 6.94-3.98 9.63-2.69 2.65-5.79 4.02-9.41 4.02-1.94 0-3.67-.44-5.17-1.24-1.46-.84-2.74-2.12-3.75-3.84l-.62 4.51h-3.14l4.42-32.64zm-23.36 30.43c1.94 0 3.71-.44 5.3-1.37 1.59-.88 2.83-2.21 3.75-3.93.93-1.72 1.41-3.58 1.41-5.61 0-2.43-.75-4.42-2.3-5.92-1.55-1.55-3.53-2.3-6.01-2.3-2.87 0-5.34 1.06-7.38 3.14-2.08 2.08-3.09 4.64-3.09 7.68 0 2.52.79 4.51 2.3 6.05 1.55 1.5 3.53 2.25 6.01 2.25zm11.57 2.21h-3.05l.44-3.58c-2.74 2.78-5.83 4.15-9.32 4.15-3.18 0-5.83-1.06-7.86-3.09-2.08-2.08-3.09-4.73-3.09-7.95 0-3.75 1.33-6.93 4.02-9.63 2.65-2.69 5.83-4.02 9.45-4.02 1.94 0 3.67.4 5.17 1.24 1.46.79 2.69 2.08 3.71 3.8l.62-4.46h3.09l-3.18 23.54zM244.29 38.9h3.22l-3.89 28.8h13.69l-.35 3.05H240l4.28-31.85z" class="cls-1"/><path d="M222.42 66.16c1.41 0 2.65-.31 3.71-.93 1.06-.62 1.94-1.63 2.65-2.96.75-1.37 1.1-2.74 1.1-4.15 0-1.85-.53-3.36-1.63-4.46-1.06-1.15-2.52-1.72-4.28-1.72-2.03 0-3.8.75-5.21 2.25-1.46 1.55-2.16 3.49-2.16 5.87 0 1.81.53 3.31 1.63 4.42 1.06 1.15 2.47 1.68 4.2 1.68zm8.66-18.95h5.83l-3.27 23.54h-5.74l.35-2.56c-1.28 1.15-2.43 1.99-3.53 2.43-1.1.49-2.3.71-3.67.71-3.09 0-5.56-1.15-7.42-3.45-1.86-2.3-2.74-4.95-2.74-7.99 0-2.3.57-4.51 1.72-6.58 1.19-2.12 2.78-3.75 4.77-4.9 1.99-1.19 4.02-1.77 6.18-1.77 1.46 0 2.83.31 4.06.97 1.19.66 2.21 1.63 3 2.92l.44-3.31zm-32.77 0h5.17l-.44 3.18c1.55-2.52 3.4-3.75 5.57-3.75.53 0 1.06.13 1.63.4l-2.08 5.3c-.44-.18-.8-.26-.97-.26-1.15 0-2.16.66-3.05 1.94-.88 1.32-1.59 3.93-2.12 7.91l-1.15 8.83h-5.74l3.18-23.54zm-11.09 9.23c-.44-1.46-1.15-2.52-2.16-3.27-1.02-.71-2.25-1.1-3.67-1.1s-2.69.4-3.84 1.15c-1.15.75-1.99 1.81-2.61 3.22h12.28zm-1.5 7.38l5.08 2.65c-1.1 1.5-2.65 2.65-4.51 3.53-1.9.88-3.97 1.33-6.27 1.33-3.58 0-6.4-1.02-8.48-3.05-2.08-1.99-3.09-4.68-3.09-7.99 0-3.84 1.28-7.07 3.89-9.67 2.56-2.65 5.7-3.98 9.36-3.98 2.21 0 4.15.49 5.87 1.46 1.72.93 3.09 2.34 4.11 4.2.97 1.81 1.46 3.8 1.46 5.96 0 .71-.04 1.46-.22 2.38h-18.77c.04 1.63.62 2.92 1.59 3.89 1.02.97 2.43 1.46 4.24 1.46 2.16 0 4.06-.71 5.74-2.16zm-26.54-25.4h5.74l-1.19 8.79h3.67l-.71 4.99h-3.62l-2.56 18.55h-5.74l2.52-18.55h-2.83l.66-4.99h2.87l1.19-8.79zm-7.77 12.1l-2.74 4.42c-.71-1.06-1.41-1.86-2.21-2.34s-1.5-.75-2.16-.75c-.53 0-.97.18-1.32.44-.35.31-.53.62-.53.97s.13.71.44 1.06c.27.31 1.1.97 2.47 1.99 2.16 1.59 3.62 2.92 4.33 4.06.71 1.15 1.06 2.34 1.06 3.67 0 1.72-.75 3.4-2.16 4.95-1.46 1.55-3.53 2.34-6.23 2.34-1.59 0-3-.35-4.33-.97-1.28-.62-2.69-1.81-4.28-3.49l3.53-4.15c1.63 2.12 3.4 3.18 5.3 3.18.79 0 1.37-.18 1.86-.53.44-.35.66-.79.66-1.32 0-.4-.18-.79-.53-1.24-.31-.4-1.28-1.15-2.83-2.25-1.77-1.28-3-2.34-3.67-3.27-.97-1.24-1.41-2.56-1.41-3.98 0-1.99.71-3.58 2.21-4.81 1.5-1.24 3.27-1.86 5.3-1.86 1.41 0 2.78.35 4.06 1.02 1.28.66 2.34 1.63 3.18 2.87zm-29.19 7.82l-2.56-10.42-5.57 10.42h8.13zm-4.02-19.43h5.03l7.91 31.85h-5.79l-1.68-6.8h-12.59l-3.62 6.8h-6.45l17.18-31.85z" class="cls-2"/></g></g><path d="M339.69 67.52c0-.73.17-1.4.52-2.03s.83-1.11 1.44-1.47 1.28-.54 1.99-.54 1.38.18 1.99.54 1.09.85 1.44 1.47.52 1.3.52 2.03-.17 1.4-.52 2.03-.83 1.12-1.44 1.48-1.28.54-2 .54-1.38-.18-1.99-.54-1.09-.85-1.44-1.48-.52-1.3-.52-2.03zm7.23 0c0-.6-.14-1.15-.42-1.67s-.67-.92-1.18-1.23c-.51-.31-1.07-.46-1.67-.46s-1.14.15-1.65.44c-.51.3-.91.7-1.2 1.22s-.44 1.08-.44 1.7.14 1.18.43 1.7.69.93 1.19 1.23c.51.3 1.06.45 1.65.45s1.15-.15 1.66-.46c.51-.31.91-.72 1.19-1.24s.42-1.08.42-1.68zm-4.08.41v1.82H342v-4.59h1.57c.57 0 1.01.12 1.33.36s.48.59.48 1.04c0 .42-.22.75-.67.97.24.1.41.26.51.46s.15.45.15.74 0 .5.02.62.04.23.08.31v.09h-.86c-.05-.12-.07-.47-.07-1.05 0-.27-.06-.47-.18-.59s-.33-.18-.61-.18h-.88zm0-.72h.8c.26 0 .47-.06.64-.17s.26-.26.26-.46c0-.25-.07-.43-.2-.54s-.37-.16-.72-.16h-.79v1.33z" class="cls-1"/></svg>