<svg xmlns="http://www.w3.org/2000/svg" role="img" viewBox="-8.23 52.52 414.70 139.70"><title>Astra Linux logo</title><style>svg {enable-background:new 0 0 400 245}</style><style>.st0{fill:#0b7abf}</style><path d="M35.5 112.4h6.8l12.9 46.1h-5.6L46 145.3H31.4L28 158.5h-5.6l13.1-46.1zm3.3 3.7h-.1l-6.1 24.5h12.2l-6-24.5zm25.5 27.8c0 6.8 1.9 11.1 8.7 11.1 5.2 0 8.8-2.2 8.8-7.7 0-5.9-2.8-7.4-7.5-9.2l-6.8-2.6c-4.2-1.6-7.4-4.8-7.4-12.1s5.1-11.9 12.5-11.9c8 0 12.7 4.5 13.1 13h-5.1c0-5.1-2.5-8.4-7.6-8.4-5.7 0-7.6 3.5-7.6 7.3 0 4.2 1.1 6.1 4 7.2l7.4 2.7c7.3 2.8 10.3 7.1 10.3 13.2 0 8.7-5.4 13-14.2 13-8.8 0-13.7-5.8-13.7-15.7l5.1.1zm42.6 14.6h-5.1V117h-12v-4.6h29v4.6h-11.9v41.5zm22.7 0h-5.1v-46.1h14c8.1 0 13.4 3.9 13.4 12.5 0 5.2-3 9.9-8.3 10.6v.1c4.9.6 7.9 4.7 7.9 10.4 0 9.6.8 9.9 1.5 11.3v1h-5.2c-1-3-1.5-5.7-1.5-10.7 0-6.1-2.7-9.6-8.4-9.6h-8.3v20.5zm0-24.9h8.9c3.6 0 8.1-1.7 8.1-8.4 0-6.6-3.8-8.1-8.3-8.1h-8.7v16.5zm41.8-21.2h6.8l12.9 46.1h-5.6l-3.6-13.2h-14.5l-3.4 13.2h-5.6l13-46.1zm3.4 3.7h-.1l-6.1 24.5h12.2l-6-24.5zm45.5 37.8h18.8v4.6h-23.9v-46.1h5.1v41.5zm30.1 4.6h-5.1v-46.1h5.1v46.1zm17.7-46.1l13.1 37.7c.6 1.6 1 2.9 1.6 5.1h.2c-.1-1.7-.2-3.5-.2-5.1v-37.6h5.1v46.1h-8.4l-12.9-36.8c-.8-2.1-1.3-4.2-1.7-6.9h-.1c.1 2.3.1 4.7.1 7v36.7h-5.1v-46.1h8.3v-.1zm34.3 0v33.1c0 3.6.5 9.4 8.7 9.4s8.7-5.8 8.7-9.4v-33.1h5.1v35c0 8.2-5.4 12.2-13.8 12.2s-13.8-4-13.8-12.2v-35h5.1zm35 0l9.7 18 9.7-18h5.7l-12.3 22.4 12.6 23.7H357l-9.8-19.3-10 19.3h-5.7l12.7-23.7-12.4-22.4h5.6z" class="st0"/><path d="M269.4 179.3H22.7c-9.7 0-17.6-7.9-17.6-17.6v-54.3c0-9.7 7.9-17.6 17.6-17.6h158.5c1.4 0 2.6-1.2 2.6-2.6 0-1.4-1.2-2.6-2.6-2.6H22.7C10.2 84.7 0 94.9 0 107.5v54.3c0 12.6 10.2 22.7 22.7 22.7h246.7v-5.2z" class="st0"/><path d="M376 84.7H217.5c-1.4 0-2.6 1.2-2.6 2.6 0 1.4 1.2 2.6 2.6 2.6H376c9.7 0 17.6 7.9 17.6 17.6v54.3c0 9.7-7.9 17.6-17.6 17.6H269.4v5.1H376c12.5 0 22.7-10.2 22.7-22.7v-54.3c0-12.6-10.2-22.8-22.7-22.8z" class="st0"/><path d="M219.3 76.4l-13.5-2.3c-1.2-2.5-5.1-10.8-5.1-10.8l-1.3-2.7-6.4 13.6-13.5 2.3 9.7 10.5-2.2 14.9 12.5-6.8 12.5 6.8-2.2-14.9c1.7-1.9 7.6-8.2 7.9-8.5l1.6-2.1zm-11.4 9.8l1.8 12.4-10.4-5.7-10.3 5.7 1.8-12.4-8.1-8.8 11.3-2 5.3-11.2 5.3 11.2 11.3 2-8 8.8z" class="st0"/><path d="M191.7 88.5l3.8 5.1 1.6-.9-6.2-12.9 8.2 11.8.3-.1 2.8 1.6-6.3-13.9 10.8 16.3 1.4.8-.2-1.6-6.9-16.2 5.9 9.5-.3-2.2 1.8-2-2.4-5.9 3.1 5.2 4.4-4.8-9.7-1.7-4.4-9.4-4.5 9.4-9.7 1.7 6.9 7.5zm-.4 2.7l-.7 5.1 2.6-1.4z" class="st0"/><g><path d="M377.6 118.3c0 3.4-2.7 6-6 6s-6-2.7-6-6 2.7-6 6-6 6 2.6 6 6zm-11.1 0c0 2.9 2.3 5.2 5.1 5.2s5.1-2.3 5.1-5.1-2.3-5.1-5.1-5.1-5.1 2.1-5.1 5zm2.8-3.4h3c1.2 0 2.4.4 2.4 1.8s-1 1.8-2.1 1.8l2 3.1h-1l-1.9-3.1h-1.5v3.1h-.9v-6.7zm.9 3h2c.6 0 1.7-.1 1.7-1.2 0-1-.9-1.1-1.7-1.1h-1.9v2.3h-.1z" class="st0"/></g></svg>