<svg xmlns="http://www.w3.org/2000/svg" role="img" xmlns:xlink="http://www.w3.org/1999/xlink" viewBox="-5.09 -1.09 277.42 57.17"><title>Auradine (member) logo</title><defs><path d="M20.51563-37.90625l-8.03126 21.76563H28.5625zm-3.34376-5.82813H23.875L40.54688 0h-6.15626l-3.98437-11.21875H10.6875L6.70312 0H.46875zm0 0" id="a"/><path d="M5.09375-12.95313V-32.8125h5.39063v19.65625c0 3.10547.60156 5.4336 1.8125 6.98438C13.51563-4.6172 15.33202-3.84375 17.75-3.84375c2.91406 0 5.21875-.92578 6.90625-2.78125 1.6875-1.85156 2.53125-4.3789 2.53125-7.57813V-32.8125h5.39063V0H27.1875v-5.04688c-1.3125 2-2.83594 3.48438-4.5625 4.45313-1.71875.95703-3.72656 1.4375-6.01563 1.4375-3.77343 0-6.63671-1.17188-8.59374-3.51563C6.0664-5.01563 5.09375-8.4414 5.09375-12.95313zm13.5625-20.65624zm0 0" id="b"/><path d="M24.67188-27.78125c-.60547-.34375-1.26563-.59766-1.98438-.76563-.71094-.16406-1.4961-.25-2.35938-.25-3.04296 0-5.3828.9922-7.01562 2.96876C11.6875-23.84766 10.875-21 10.875-17.28126V0H5.45312v-32.8125H10.875v5.09375c1.125-1.98828 2.59375-3.46875 4.40625-4.4375 1.82031-.96875 4.03516-1.45313 6.64063-1.45313.36328 0 .76953.02735 1.21874.07813.44532.05469.94532.125 1.5.21875zm0 0" id="c"/><path d="M20.5625-16.5c-4.35547 0-7.3711.5-9.04688 1.5C9.83595-14 9-12.30078 9-9.90625c0 1.91797.6289 3.4375 1.89063 4.5625 1.2578 1.125 2.97265 1.6875 5.14062 1.6875 2.98828 0 5.38281-1.05469 7.1875-3.17188 1.80078-2.125 2.70313-4.9453 2.70313-8.46875V-16.5zm10.75-2.21875V0h-5.39063v-4.98438c-1.23046 1.9922-2.76171 3.46094-4.59374 4.40625C19.49218.3672 17.25.84376 14.59375.84376c-3.36719 0-6.03906-.9414-8.01563-2.82813-1.98046-1.8828-2.96875-4.40625-2.96875-7.5625 0-3.6953 1.23438-6.48437 3.70313-8.35937s6.15625-2.8125 11.0625-2.8125h7.54688v-.51563c0-2.48828-.82032-4.41015-2.45313-5.76562-1.625-1.35156-3.91406-2.03125-6.85938-2.03125-1.875 0-3.70312.22656-5.48437.67188-1.77344.44921-3.48047 1.12109-5.125 2.01562v-4.96875c1.97656-.76953 3.89453-1.34375 5.75-1.71875 1.85156-.38281 3.66016-.57813 5.42188-.57813 4.73828 0 8.28124 1.23438 10.625 3.70313 2.34374 2.46094 3.51562 6.1875 3.51562 11.1875zm0 0" id="d"/><path d="M27.25-27.82813v-17.76562h5.39063V0H27.25v-4.92188c-1.13672 1.94922-2.57031 3.39844-4.29688 4.34375C21.22266.3672 19.14844.84376 16.73438.84376c-3.96876 0-7.19922-1.57813-9.6875-4.73438C4.55467-7.05469 3.3125-11.21875 3.3125-16.375s1.24219-9.3164 3.73438-12.48438c2.48828-3.16406 5.71875-4.75 9.6875-4.75 2.41406 0 4.48828.47657 6.21874 1.42188 1.72657.94922 3.16016 2.40234 4.29688 4.35938zM8.875-16.375c0 3.96094.8125 7.07031 2.4375 9.32813 1.63281 2.26171 3.8789 3.39062 6.73438 3.39062 2.85156 0 5.09765-1.1289 6.73437-3.39063C26.42578-9.30467 27.25-12.41406 27.25-16.375c0-3.96875-.82422-7.07813-2.46875-9.32813-1.63672-2.2578-3.88281-3.39062-6.73438-3.39062-2.85546 0-5.10156 1.13281-6.73437 3.39063-1.625 2.25-2.4375 5.35937-2.4375 9.32812zm0 0" id="e"/><path d="M5.65625-32.8125h5.39063V0H5.65625zm0-12.78125h5.39063v6.82813H5.65625zm0 0" id="f"/><path d="M32.9375-19.8125V0h-5.39063v-19.625c0-3.10156-.60937-5.42578-1.82812-6.96875-1.21094-1.55078-3.02344-2.32813-5.4375-2.32813-2.91797 0-5.21484.9336-6.89063 2.79688-1.67968 1.85547-2.51562 4.38281-2.51562 7.57813V0H5.45312v-32.8125H10.875v5.09375c1.28125-1.96875 2.79688-3.4414 4.54688-4.42188 1.75-.97656 3.76562-1.46874 6.04687-1.46874 3.76953 0 6.625 1.16796 8.5625 3.5 1.9375 2.33593 2.90625 5.76562 2.90625 10.29687zm0 0" id="g"/><path d="M33.71875-17.75v2.625H8.9375c.22656 3.71875 1.34375 6.55469 3.34375 8.5 2.00781 1.9375 4.80078 2.90625 8.375 2.90625 2.07031 0 4.07813-.2539 6.01563-.76563 1.9453-.5078 3.8789-1.26953 5.79687-2.28125v5.09375c-1.9375.82422-3.92188 1.44922-5.95313 1.875-2.03124.42579-4.09374.64063-6.1875.64063-5.23046 0-9.375-1.51953-12.4375-4.5625C4.83595-6.76953 3.3125-10.89063 3.3125-16.07813c0-5.375 1.44531-9.64062 4.34375-12.79687 2.90625-3.15625 6.8164-4.73438 11.73438-4.73438 4.41406 0 7.90624 1.42188 10.46874 4.26563C32.4297-26.5 33.71876-22.63281 33.71876-17.75zm-5.39063-1.59375c-.04296-2.94531-.87109-5.29688-2.48437-7.04688-1.60547-1.7578-3.73438-2.64062-6.39063-2.64062-3.01171 0-5.42187.85156-7.23437 2.54688-1.80469 1.69921-2.83984 4.08984-3.10938 7.17187zm0 0" id="h"/></defs><use y="50" xlink:href="#a"/><use x="41.045" y="50" xlink:href="#b"/><use x="79.072" y="50" xlink:href="#c"/><use x="103.74" y="50" xlink:href="#d"/><use x="140.508" y="50" xlink:href="#e"/><use x="178.594" y="50" xlink:href="#f"/><use x="195.264" y="50" xlink:href="#g"/><use x="233.291" y="50" xlink:href="#h"/></svg>