<svg xmlns="http://www.w3.org/2000/svg" role="img" viewBox="-4.99 -4.99 259.74 195.74"><title>Axiado logo</title><style>svg {enable-background:new 0 0 250 186}</style><linearGradient id="SVGID_1_" x1="102.04" x2="164.732" y1="141.21" y2="-31.035" gradientUnits="userSpaceOnUse"><stop offset="0" stop-color="#da291c"/><stop offset=".127" stop-color="#db2d1c"/><stop offset=".259" stop-color="#dd3a1b"/><stop offset=".393" stop-color="#e24e19"/><stop offset=".528" stop-color="#e76b18"/><stop offset=".664" stop-color="#ef9115"/><stop offset=".8" stop-color="#f8be12"/></linearGradient><path fill="url(#SVGID_1_)" d="M214.8 0H250l-26.5 41.7L205.9 14l8.9-14zm-42.6 122.5l18.3-28.8 18.2 28.7h35.2L166.2.1H131L172.9 66l-18.3 28.8-40.2-63.2-.2-.3c-2-3.5-4.3-6.7-6.9-9.7C95.8 8.1 78.9.4 61.1.4 27.4.4 0 27.8 0 61.4s27.4 61 61.1 61h45L87.4 93H61.1c-17.4 0-31.6-14.2-31.6-31.5C29.5 44.1 43.7 30 61.1 30 70.3 30 80 33.3 85 40.9c2.9 4.4 52 81.7 52 81.7h35.2z"/><path fill="#515254" d="M24.9 185.1l-1.4-4.4h-13l-1.4 4.4H0l13.1-36.5h7.8l13.3 36.5h-9.3zM17 159l-4.5 15h8.9L17 159zm52.1-10.5h9.4l-10.9 18.3 10.9 18.3h-9.4l-6.4-11.7-6.4 11.7H47l10.9-18.3L47 148.5h9.3l6.4 11.8 6.4-11.8zm23.8 0h8.6V185h-8.6v-36.5zm47.8 36.6l-1.4-4.4h-13.1l-1.4 4.4h-9.1l13.1-36.5h7.8l13.3 36.5h-9.2zm-7.9-26.1l-4.5 15h8.9l-4.4-15zm45.1-10.5c12.2 0 19.1 8.9 19.1 18.3s-6.9 18.3-19.1 18.3h-13.5v-36.5h13.5zm-5 7.3v21.9h4.6c6.9 0 10.8-5.3 10.8-11s-4-11-10.8-11h-4.6zm38.3 11c0-10 7.2-19.2 19.4-19.2s19.4 9.2 19.4 19.2-7.2 19.2-19.4 19.2-19.4-9.2-19.4-19.2zm30.2 0c0-6-4.1-11.6-10.7-11.6-6.7 0-10.7 5.6-10.7 11.6s4 11.6 10.7 11.6c6.6 0 10.7-5.6 10.7-11.6z"/></svg>