<svg xmlns="http://www.w3.org/2000/svg" role="img" viewBox="-8.45 -8.45 439.14 227.89"><title>Baidu USA LLC logo</title><path fill="#2319dc" d="M252.92903 113.95527c23.63463-5.0494 20.40812-33.16832 19.71586-39.3125-1.16496-9.4771-12.36625-26.02638-27.5656-24.70413-19.13644 1.69526-21.9299 29.18338-21.9299 29.18338-2.59218 12.72811 6.18465 39.89477 29.77964 34.83325m43.89028-47.1368c13.04631 0 23.59193-14.95106 23.59193-33.42002 0-18.47199-10.54562-33.3988-23.59193-33.3988-13.05242 0-23.62549 14.92681-23.62549 33.3988 0 18.46896 10.57002 33.42003 23.62549 33.42003m56.24737 2.19868c17.46523 2.2745 28.65432-16.25208 30.89275-30.2903 2.28723-14.02004-8.9964-30.3267-21.33216-33.12586-12.39065-2.83251-27.85837 16.89197-29.25205 29.7596-1.69864 15.73955 2.24453 31.43362 19.69146 33.65656m69.16256 23.58508c0-6.71433-5.58997-26.95437-26.40675-26.95437-20.85947 0-23.61633 19.09975-23.61633 32.59513 0 12.87975 1.07957 30.84529 26.98313 30.28728 25.8761-.57014 23.03995-29.16822 23.03995-35.92804m-84.78199-.57186c6.80859 5.13348 11.85106 12.2214 16.53976 19.34359 4.6887 7.1222 9.19609 14.47152 15.26103 20.46535 3.9683 3.92177 8.52801 7.18558 12.78531 10.79157 4.2573 3.60598 8.2893 7.65729 10.78471 12.64734 3.1477 6.29442 3.60401 13.73127 2.06952 20.59953-1.53449 6.86827-4.95538 13.20728-9.17793 18.83736-3.572 4.76267-7.7944 9.12359-12.88891 12.20388-5.09452 3.08029-11.12363 4.81724-17.04126 4.16615-4.69054-.51608-9.09181-2.4771-13.30443-4.60344-4.21262-2.12634-8.36436-4.45883-12.88447-5.81385-8.20117-2.45852-17.01691-1.53111-25.44064 0-10.43184 1.8961-20.82644 4.69552-31.42668 4.46456-11.11499-.24218-22.39495-4.09242-30.30429-11.90548-3.99964-3.95096-7.08033-8.86655-8.66537-14.26051-1.58504-5.39396-1.64295-11.26155.0604-16.61932 1.91275-6.01628 5.92974-11.17292 10.54473-15.48059 4.615-4.30768 9.85831-7.87393 14.89591-11.67878 8.93683-6.74991 17.26657-14.28605 25.06652-22.32277 6.00535-6.18764 11.72145-12.69414 18.33223-18.23026 2.63399-2.2058 5.41832-4.26039 8.47995-5.81918 3.06164-1.5588 6.41893-2.61307 9.85228-2.73788 5.94681-.2162 11.71008 2.37023 16.46159 5.95273z"/><path fill="#fff" d="M313.22767 189.72765h-15.49568v-7.52627q-3.85908 4.39032-9.14305 6.56136-5.2246 2.1228-10.56793 2.1228-10.86479 0-18.64232-7.09207-7.71815-7.1403-7.71815-19.87707 0-13.02624 7.54005-19.78059 7.54004-6.80259 19.0579-6.80259 10.56793 0 18.28609 7.1403V119h16.68309zm-44.52782-26.72791q0 8.2017 2.79041 11.86835 4.03719 5.30698 11.28038 5.30698 5.75893 0 9.79612-3.95611 4.03719-4.00437 4.03719-11.9166 0-8.8289-3.91845-12.68852-3.91844-3.90787-10.0336-3.90787-5.93704 0-9.97423 3.85962-3.97782 3.81138-3.97782 11.43415zm89.89313 26.78145v-7.59847q-2.78727 4.06207-7.35263 6.40374-4.51729 2.34167-9.5632 2.34167-5.14205 0-9.22682-2.24609-4.0848-2.24609-5.91094-6.30816-1.82615-4.06208-1.82615-11.23045v-32.1143h13.50385v23.3211q0 10.70476.72084 13.14201.7689 2.38946 2.73921 3.82313 1.9703 1.38588 4.99786 1.38588 3.46008 0 6.19929-1.86377 2.7392-1.91157 3.74839-4.68334 1.00918-2.81955 1.00918-13.71548v-21.40953h13.50385v50.75206z"/><path fill="#e20310" d="M.00028 75.49935h62.68479q15.6712 0 24.02424 8.1123 8.42696 8.1123 8.42696 20.08759 0 10.0438-5.98758 17.22898-3.99172 4.79012-11.67947 7.57147 11.67947 2.93589 17.1496 10.12106 5.54406 7.10792 5.54406 17.92432 0 8.80763-3.9178 15.83831-3.9178 7.03064-10.7185 11.12544-4.21349 2.54957-12.71437 3.70848-11.30987 1.54518-15.00591 1.54518H.00028zm33.78178 44.42448h14.56238q7.8356 0 10.86635-2.78136 3.10468-2.85861 3.10468-8.18955 0-4.94464-3.10468-7.726-3.03075-2.78136-10.64458-2.78136H33.78206zm0 44.50177h17.07569q8.64873 0 12.19692-3.16766 3.5482-3.24495 3.5482-8.65311 0-5.02192-3.5482-8.03506-3.47427-3.0904-12.27084-3.0904H33.78206zm95.5075-17.06075l-23.17005-2.42851q1.31039-6.04165 3.75247-9.4771 2.50166-3.49467 7.14757-6.04164 3.33554-1.83619 9.17272-2.84313t12.62738-1.00694q10.90004 0 17.51154 1.24387 6.6115 1.18463 11.01917 5.0347 3.09728 2.66543 4.88418 7.58168 1.78689 4.85701 1.78689 9.2994v27.77973q0 4.44238.53607 6.98937.59563 2.48773 2.50165 6.39702h-22.7531q-1.36995-2.4285-1.7869-3.67238-.41694-1.30307-.83388-4.02775-4.76504 4.56084-9.47053 6.51551-6.43281 2.60619-14.95033 2.60619-11.31699 0-17.21374-5.2124-5.83718-5.2124-5.83718-12.85331 0-7.16705 4.22898-11.78714 4.22898-4.62008 15.60553-6.8709 13.63995-2.72466 17.69024-3.79083 4.05029-1.1254 8.57708-2.90236 0-4.44239-1.84646-6.21934-1.84645-1.77696-6.49237-1.77696-5.95631 0-8.93447 1.89542-2.32295 1.4808-3.75247 5.5678zm21.02576 12.6756q-5.0033 1.77697-10.42354 3.1393-7.38582 1.95465-9.3514 3.85007-2.02515 1.95464-2.02515 4.44237 0 2.84314 1.96558 4.67933 2.02515 1.77696 5.89675 1.77696 4.05029 0 7.50495-1.95465 3.51422-1.95465 4.94373-4.73855 1.48908-2.84313 1.48908-7.34476zm32.84309-56.98101h24.24217v16.40722H183.1584zm0 23.92966h24.24217v62.9042H183.1584z"/></svg>