<svg xmlns="http://www.w3.org/2000/svg" role="img" viewBox="-20.00 -20.00 1040.00 291.00"><title>Banco de Crédito BCP (member) logo</title><style>svg {enable-background:new 0 0 1000 252}</style><style>.st0{fill:#004192}</style><path d="M343.5 118.6c24.5 8.2 38.4 22.3 40.2 46.8 2 27.2-9.7 47.5-31.6 62.5-12.6 8.8-26.9 14.1-41.9 16.8-28.5 5.3-57.2 5.5-85.6.9-28.7-4.6-41.3-22.1-35.1-50.8 12.8-59.2 26.5-118.4 40-177.4 1.1-4.6 2.4-8.2 8.4-8.6C270 6 302 1.1 334.4 6.6c11.9 2 23.4 4.9 34 10.2 36.6 18.1 40.4 61.8 7.9 86.4-9.2 6.8-19.6 11.2-32.8 15.4zm-84.4 22.6c-4.2 19.2-8.2 36.9-12.1 54.3-1.5 6.6-.7 11.9 7.3 12.4 18.5.9 37.1 0 53.6-9.7 12.6-7.3 17.9-18.8 16.1-33.4-1.8-13.9-11.7-19.4-23.8-23.2-13.5-4-26.5 2.7-41.1-.4zM300 44.6c-5.7 3.8-16.6-5.3-20.1 6.6-3.8 13.3-6.4 26.9-9.5 40.6-1.1 4.6.4 8.8 5.5 9.1 19.9 1.1 39.7 1.3 55.8-12.8 15.7-13.7 10.8-34.9-9.1-41.3-7-1.9-14.2-1.9-22.6-2.2zM822.7 48c-11.3-31-39.8-38.3-68.9-41.1-26.9-2.7-54.1-1.3-81 1.8-9.3 1.1-13.9 4.6-16.1 14.4-15.9 72.5-32.4 144.9-48.6 217.4-.7 2.7-2 5.5 1.5 8.8h21.2c26.9 0 34.9-6.4 40.8-32.5 3.5-15.5 7.1-31.1 10.4-46.2 5.5-2 9.9-.4 14.3-.2 38.8 1.3 75.7-5.1 104.2-34.2 24.4-24.9 34.5-54.9 22.2-88.2zm-48.6 38.6c-5.3 25.2-26.9 40.9-56.7 41.1-19.4 0-21.2-2.2-17-21.9 3.5-16.1 7.3-32 10.2-48.2 1.3-8 5.3-11 13-11 8.2-.2 16.3-.7 24.5.9 21.2 4 30.4 17.9 26 39.1zM604.8 11.1c-51-18.6-100-15.2-142.2 21.2-40.4 34.9-53.2 81.3-48.1 133.4 2.9 29.8 15.5 54.8 42.2 70 34 19.4 70.4 20.1 107.1 9.3 8.2-2.4 14.3-8.2 16.6-16.8 3.3-13 6.2-26.1 9.5-40.9-11.5 6.2-20.7 11.9-31.3 15.2-33.3 10.4-66.7-2.4-78.4-30.3-16.1-38.4 6.8-99 45-116.6 31.3-14.4 61.6-8 91.8 8.8 1.8-6.6 3.5-12.6 5.1-18.6 4.3-18.2.6-28.1-17.3-34.7z" class="st0"/><path fill="#f96a53" d="M92.7 29.2c30 15.2 54.1 37.1 71.7 65.4 10.8 17.4 9.5 36.7-2.6 53.5-24.9 34.9-58.1 60.5-96.5 78.2-25.8 11.9-54.3-2-65.3-30 15.5-8.2 30.9-16.6 45-26.9 21.2-15.5 39.5-33.4 48.6-58.8 12.4-27.3 13.5-54.5-.9-81.4zm827.8 0c30 15 54.1 37.3 72 65.4 10.8 17 9.9 35.8-1.8 52.3-25.2 35.8-58.9 61.8-98.2 79.7-25.6 11.5-53.4-2.7-64.2-30 14.6-8 29.4-15.9 42.8-25.8 21.9-15.9 41.3-34 50.5-60.3 12.5-27.4 13.4-54.6-1.1-81.3z"/><path d="M92.7 29.2c14.3 26.9 13 53.9.7 81.1C74.6 89.9 51.2 76 26.5 65c13-35.2 42.6-50.6 66.2-35.8zm827.8 0c14.6 26.9 13.7 53.9.9 81.3-18.5-20.3-41.7-34-67.8-45.7 8.6-19.4 21-33.6 40.4-40.9 9.9-4 18.5-1.1 26.5 5.3z" class="st0"/></svg>