<svg xmlns="http://www.w3.org/2000/svg" role="img" viewBox="-28.18 -27.18 1413.36 343.36"><title>basysKom GmbH logo</title><path d="M363.295 239.785V67.434h29.045v60.253c5.595-5.118 11.162-8.847 16.685-11.165 5.523-2.319 11.323-3.481 17.409-3.481 7.352 0 14.075 1.48 20.16 4.442 6.076 2.961 11.247 7.242 15.485 12.847 4.238 5.595 7.514 12.399 9.842 20.399 2.324 7.999 3.486 16.965 3.486 26.883 0 9.61-1.048 18.371-3.128 26.294-2.086 7.915-5.162 14.752-9.238 20.523-4.085 5.761-9.161 10.247-15.247 13.441-6.085 3.195-13.123 4.804-21.123 4.804-4 0-7.646-.323-10.922-.962-3.286-.646-6.362-1.647-9.243-3.003-2.881-1.357-5.676-3.073-8.404-5.157-2.724-2.081-5.514-4.567-8.399-7.442l-4.076 13.68h-22.332v-.005zm29.046-34.565c2.886 4.161 6.6 7.41 11.162 9.723 4.557 2.319 9.323 3.481 14.284 3.481 8.962 0 15.846-3.681 20.646-11.047 4.795-7.352 7.2-17.676 7.2-30.965 0-12.484-2.476-22.208-7.433-29.17-4.966-6.96-11.761-10.442-20.413-10.442-4.647 0-9.161 1.205-13.561 3.6-4.395 2.399-8.362 5.847-11.885 10.322v54.498zm172.77 34.565l-2.167-13.914c-6.076 5.123-12.513 9.123-19.327 11.999-6.8 2.881-14.037 4.328-21.717 4.328-10.562 0-18.837-3.009-24.851-9.009-5.995-6-8.999-14.284-8.999-24.846 0-8.166 1.714-15.004 5.161-20.523 3.438-5.527 8.594-10.203 15.48-14.051 6.243-3.514 14.004-6.471 23.289-8.871 9.285-2.399 19.604-4.728 30.964-6.966.8-8.48-.353-14.556-3.48-18.247-3.114-3.676-8.761-5.519-16.922-5.519-6.405 0-11.809 1.319-16.209 3.961-4.395 2.638-8.361 6.761-11.875 12.361l-20.894-12.966c5.6-9.275 12.69-15.841 21.247-19.684 8.562-3.842 18.441-5.756 29.646-5.756 16.166 0 28.045 3.566 35.65 10.68 7.589 7.123 11.399 18.128 11.399 33.002v61.453l2.162 22.562h-28.555v.006zm-3.124-63.368c-8.809 1.757-15.809 3.357-21.013 4.795-5.195 1.442-9.809 3.28-13.804 5.528-6.237 3.676-9.356 9.519-9.356 17.527 0 4.962 1.391 8.799 4.2 11.518 2.79 2.729 6.595 4.076 11.399 4.076 5.114 0 10.242-1.199 15.361-3.595 5.118-2.399 9.523-5.676 13.208-9.852v-29.998h.005zm119.687-28.332c-3.685-5.432-7.561-9.156-11.646-11.161-4.085-2-8.676-3-13.799-3-5.285 0-9.414 1.2-12.36 3.599-2.972 2.405-4.448 5.681-4.448 9.837 0 4.01 1.639 7.048 4.923 9.134 3.276 2.079 7.404 3.88 12.362 5.394 4.966 1.524 10.285 3.043 15.97 4.559 5.676 1.528 11 3.689 15.96 6.484 4.952 2.801 9.071 6.643 12.347 11.522 3.286 4.881 4.928 11.323 4.928 19.322 0 6.243-1.152 11.768-3.491 16.571-2.313 4.795-5.632 8.87-9.952 12.237-4.323 3.36-9.479 5.88-15.483 7.562-6 1.685-12.599 2.527-19.809 2.527-11.837 0-21.598-2.004-29.283-6.003-7.671-3.995-14.647-10.399-20.88-19.199l20.88-14.408c4.318 6.095 8.561 10.561 12.722 13.451 4.162 2.88 9.762 4.318 16.809 4.318 6.552 0 11.551-1.319 14.994-3.957 3.438-2.638 5.166-6.275 5.166-10.923 0-4.48-1.638-7.88-4.914-10.199-3.286-2.319-7.376-4.238-12.251-5.767-4.885-1.52-10.17-2.994-15.847-4.447-5.685-1.438-10.96-3.514-15.836-6.229-4.886-2.724-8.971-6.442-12.247-11.165-3.286-4.714-4.923-11.075-4.923-19.085 0-5.438 1.085-10.441 3.238-15.004 2.171-4.557 5.238-8.48 9.242-11.761 3.999-3.276 8.713-5.795 14.161-7.566 5.438-1.757 11.437-2.633 18.008-2.633 10.561 0 19.513 1.761 26.884 5.275 7.352 3.524 13.599 9.599 18.723 18.251l-20.148 12.464zm100.494 86.666c-3.191 9.447-6.276 17.285-9.243 23.522-2.956 6.237-6.322 11.28-10.07 15.127-3.771 3.839-8.133 6.558-13.09 8.157-4.961 1.6-11.046 2.404-18.241 2.404-3.691 0-7.167-.167-10.452-.485-3.276-.319-6.362-.719-9.238-1.195v-22.084c2.557.476 5.033.795 7.442.962 2.399.146 4.638.237 6.715.237 7.365 0 12.722-1.48 16.088-4.442 3.357-2.957 6.162-7.961 8.4-15.004l1.923-5.519-44.64-121.468h32.16l26.17 83.542h.476l25.445-83.542h30.736l-40.581 119.788zm115.611-86.666c-3.676-5.432-7.561-9.156-11.637-11.161-4.086-2-8.686-3-13.81-3-5.274 0-9.39 1.2-12.352 3.599-2.971 2.405-4.446 5.681-4.446 9.837 0 4.01 1.637 7.048 4.923 9.134 3.275 2.079 7.404 3.88 12.36 5.394 4.967 1.524 10.276 3.043 15.962 4.559 5.685 1.528 10.999 3.689 15.955 6.484 4.962 2.801 9.086 6.643 12.363 11.522 3.284 4.881 4.922 11.323 4.922 19.322 0 6.243-1.147 11.768-3.485 16.571-2.315 4.795-5.624 8.87-9.952 12.237-4.323 3.366-9.48 5.88-15.485 7.562-5.995 1.685-12.608 2.527-19.803 2.527-11.843 0-21.604-2.004-29.289-6.003-7.671-3.995-14.646-10.399-20.879-19.199l20.879-14.408c4.329 6.095 8.566 10.561 12.723 13.451 4.167 2.88 9.761 4.318 16.808 4.318 6.552 0 11.562-1.319 14.999-3.957 3.434-2.638 5.162-6.275 5.162-10.923 0-4.48-1.637-7.88-4.922-10.199-3.277-2.319-7.368-4.238-12.242-5.767-4.886-1.52-10.171-2.994-15.847-4.447-5.676-1.438-10.962-3.514-15.836-6.229-4.896-2.724-8.971-6.442-12.247-11.165-3.285-4.714-4.924-11.075-4.924-19.085 0-5.438 1.077-10.441 3.239-15.004 2.162-4.557 5.237-8.48 9.237-11.761 4-3.276 8.724-5.795 14.171-7.566 5.437-1.757 11.446-2.633 17.999-2.633 10.57 0 19.522 1.761 26.893 5.275 7.353 3.524 13.599 9.599 18.723 18.251l-20.162 12.464zm217.138 94.589c-8.638 0-16.446-1.49-23.408-4.442-6.966-2.957-12.842-7.232-17.646-12.841-4.8-5.601-8.476-12.404-11.043-20.413-2.557-8-3.838-17.037-3.838-27.118 0-10.241 1.281-19.446 3.838-27.607 2.562-8.161 6.238-15.08 11.043-20.76 4.804-5.681 10.68-10 17.646-12.966 6.962-2.962 14.767-4.438 23.408-4.438 17.438 0 31.083 5.757 40.921 17.28 9.853 11.528 14.771 27.683 14.771 48.492 0 20.322-4.923 36.208-14.771 47.649-9.838 11.436-23.484 17.164-40.921 17.164m0-23.05c9.123 0 15.723-3.839 19.804-11.519 4.075-7.686 6.123-17.766 6.123-30.246 0-6.08-.485-11.722-1.447-16.927-.957-5.199-2.486-9.724-4.562-13.567-2.085-3.836-4.767-6.837-8.038-8.998-3.285-2.157-7.242-3.242-11.885-3.242-4.647 0-8.637 1.085-11.999 3.242-3.366 2.161-6.085 5.162-8.176 8.998-2.075 3.844-3.586 8.372-4.552 13.567-.967 5.199-1.448 10.847-1.448 16.927 0 12.485 2.076 22.561 6.248 30.246 4.156 7.68 10.808 11.519 19.932 11.519m214.728 20.161v-84.738c0-3.515-.438-6.433-1.318-8.761-.886-2.315-2.048-4.157-3.485-5.519-1.438-1.357-3.087-2.319-4.925-2.881-1.838-.562-3.799-.838-5.875-.838-4.166 0-8.285 1.042-12.37 3.114-4.076 2.09-8.276 5.448-12.6 10.085v89.533h-29.284v-82.576c0-6.242-1.119-11.161-3.361-14.756-2.247-3.604-6.076-5.404-11.519-5.404-3.999 0-8.156 1.119-12.489 3.357-4.324 2.243-8.801 5.847-13.438 10.804v88.576h-29.046V115.198h26.884v15.127c5.601-5.605 11.686-10.047 18.237-13.328 6.575-3.276 13.047-4.919 19.446-4.919 7.842 0 14.17 1.523 18.961 4.557 4.809 3.042 8.57 7.918 11.294 14.651 6.714-6.405 13.199-11.204 19.433-14.409 6.237-3.2 13.208-4.8 20.884-4.8 10.723 0 19 3.043 24.847 9.119 5.838 6.085 8.766 16.084 8.766 30.007v88.576h-29.041v.006zm-360.523.009V198.92l20.93-24.228 34.96 65.102h32.324l-48.651-89.976 49.678-61.638h-33.369l-55.9 71.556.018-71.556h-29.018v151.614z" fill="#929191"/><g fill="#EF7D00"><path d="M127.82 289.743C57.339 289.743 0 232.403 0 161.923 0 91.442 57.339 34.107 127.82 34.107v30.231c-53.81 0-97.593 43.778-97.593 97.584 0 53.811 43.783 97.598 97.593 97.598 53.811 0 97.589-43.783 97.589-97.598h30.231c0 70.481-57.339 127.821-127.82 127.821z"/><path d="M291.152 142.938H148.223V0h15.118c34.136 0 66.234 13.299 90.38 37.44 24.141 24.137 37.436 56.24 37.436 90.39v15.109h-.005zm-112.697-30.231h81.309c-3.143-20.328-12.609-39.073-27.427-53.896-14.817-14.818-33.56-24.284-53.882-27.427v81.323z"/></g></svg>