<svg xmlns="http://www.w3.org/2000/svg" role="img" viewBox="-7.33 -7.33 381.16 72.91"><title>BearingPoint GmbH logo</title><path fill="#d52b1e" d="M41.0475 24.32745h14.67125c-.70375-3.6625-3.10625-5.81625-6.555-5.81625-3.84 0-6.80875 2.15125-8.11625 5.81625m9.42375 22.23625c-10.08625 0-17.41-7.32-17.41-17.41375 0-10.285 6.7875-17.46875 16.51-17.46875 9.885 0 14.30875 7.815 14.30875 15.56125 0 .76125-.115 2.10625-.13375 2.23375l-.12875 1.51375h-22.745c.75375 5.19 4.515 8.5 9.77875 8.5 4.41125 0 7.445-2.855 7.77625-3.18375l1.4925-1.55625 3.90875 6.03375-.9975.9875c-.19.19-4.88 4.7925-12.36 4.7925M7.61 18.61745h8.00125C18.885 18.61745 21 16.40995 21 12.9937c0-3.41-2.03625-5.44375-5.44375-5.44375H7.61v11.0675zm.004 20.03875l8.5475.0175c4.0375 0 6.44875-2.41875 6.44875-6.4675 0-3.99625-2.55875-6.57625-6.52-6.57625h-8.48l.004 13.02625zm-1.835 7.14875H.019l-.01-5.11375c-.006-.0688-.009-.155-.009-.245V.47245h.77875l.4575-.0537h14.435c7.81 0 13.055 4.93125 13.055 12.275 0 3.61875-1.3025 6.7325-3.69375 8.9C28.41875 23.75 30.405 27.675 30.405 32.33c0 8.05625-5.7275 13.47125-14.24625 13.47125l-10.38.004zm286.03375.0388h-5.01c-3.50875 0-5.36125-1.85-5.36125-5.35875V14.9275l7.5075-4.31875-.0125 28.2775h2.87375v6.9575zm-6.42-36.66375c-2.52875 0-4.585-2.05625-4.585-4.58875C280.80775 2.06 282.864 0 285.39275 0c2.53375 0 4.59375 2.06 4.59375 4.59125 0 2.5325-2.06 4.58875-4.59375 4.58875M135.5615 45.84375h-5.00875c-3.50125 0-5.35625-1.85-5.35625-5.35875l-.008-25.5575 7.51625-4.31875-.005 28.2775h2.86125v6.9575zm-6.41375-36.6575c-2.52875 0-4.58625-2.06125-4.58625-4.595C124.5615 2.06 126.619 0 129.14775 0c2.53125 0 4.5925 2.06 4.5925 4.59125 0 2.53375-2.06125 4.595-4.5925 4.595m-18.81125 36.6575h-7.4925V12.38h7.425v5.00125c1.93375-3.17375 4.79-5.28125 7.7775-5.28125.95875 0 1.83375.175 2.015.22125l1.315.305v7.3875l-1.9975-.33125c-.0925-.0163-.65375-.0937-1.20375-.0937-3.16375 0-5.87125 2.50375-7.0675 6.53-.50625 1.6025-.77125 3.44875-.77125 5.3575v14.3675zm218.3075 0h-4.99125c-3.50125 0-5.3525-1.85-5.3525-5.35875V26.10375c0-5.43375-1.16-7.1775-4.78125-7.1775-4.28 0-8.0925 2.96875-9.27 7.21875-.28125.98125-.41875 2.15625-.41875 3.6025v16.09625h-7.495l-.0125-33.40625 1.68375-.0575h5.77875v4c1.98875-2.31125 5.31375-4.69875 10.2-4.69875 7.935 0 11.795 4.37 11.795 13.355v13.85h2.85875v6.9575zm-155.96375 0h-4.99c-3.50125 0-5.3525-1.85-5.3525-5.35875V26.10375c0-5.43375-1.16-7.1775-4.7825-7.1775-4.27875 0-8.09125 2.96875-9.27 7.21875-.28125.98125-.41625 2.15625-.41625 3.6025v16.09625h-7.495l-.01-33.40625 1.685-.0575h5.77875v4c1.98875-2.31125 5.3125-4.69875 10.19875-4.69875 7.9375 0 11.79625 4.37 11.79625 13.355v13.85h2.8575v6.9575zm17.03875-27.0325c-4.855 0-7.52875 3.43875-7.52875 9.6825 0 6.135 3.16625 10.1 8.0675 10.1 4.79625 0 7.23125-3.37875 7.23125-10.03625 0-6.73875-2.3975-9.74625-7.77-9.74625m-.955 39.5675c-3.56375 0-7.3175-.9125-10.57-2.575l-1.46-.74 3.00625-6.60375 1.62625.915c.035.0163 3.41 1.8675 7.28 1.8675 5.66 0 8.77625-2.73875 8.77625-7.7125v-.20625c-2.05625 1.5575-4.65875 2.34-7.7675 2.34-8.87875 0-15.08-7.02875-15.08-17.10625 0-10.2525 5.77625-16.87625 14.72375-16.87625 3.9525 0 6.55375 1.32875 8.38375 3.15875l.007-2.4975h7.25625l-.0288 31.07c0 11.035-8.345 14.96625-16.15375 14.96625M345.884 46.08c-3.6525 0-12.15875-1.25375-12.15875-12.8675V19.23h-3.9375v-6.835h3.9925V6.8425l7.43-4.32v9.8725h7.52625v6.835h-7.52625v13.56c0 4.13125 1.69375 6.22375 5.0325 6.22375.49625 0 .8475-.055.95125-.0712l2.13875-.4575v7.2125l-1.43125.24c-.0312.005-.8425.1425-2.0175.1425M260.289 18.8113c-5.5975 0-9.985 4.465-9.985 10.16125 0 5.8975 4.3875 10.5175 9.985 10.5175 5.56 0 9.91375-4.62 9.91375-10.5175 0-5.69625-4.35375-10.16125-9.91375-10.16125m0 27.7525c-9.86375 0-17.5925-7.72625-17.5925-17.59125 0-9.69625 7.7025-17.29125 17.53875-17.29125 9.86125 0 17.58375 7.595 17.58375 17.29125 0 9.865-7.6975 17.59125-17.53 17.59125m-40.36375-24.32125h7.41375c4.67375 0 7.46375-2.77125 7.46375-7.41125 0-4.53125-2.7625-7.23625-7.40625-7.23625h-7.47125v14.6475zm0 23.60125h-7.61875l-.01-45.38h15.575c8.635 0 14.66625 5.91 14.66625 14.3675 0 8.5625-6.03125 14.54375-14.66625 14.54375h-7.94625V45.8438zM87.564 30.2663c-9.305 0-13.45375 1.68875-13.45375 5.515 0 2.12375 2.00625 4.2725 5.72125 4.2725 4.99875 0 7.63875-3.6625 7.63875-9.83625l.0937.0488zm-8.45625 16.2975c-5.9225 0-11.92125-3.6425-11.92125-10.61375 0-12.0425 14.975-12.10375 20.02125-12.10375-.25375-3.55875-1.99625-5.09375-5.7075-5.09375-4.22625 0-7.3675 2.45875-7.39875 2.48625l-1.51125 1.22875-3.69875-6.00875 1.0975-.95875c.18625-.16 4.5225-3.81875 11.8025-3.81875 8.2225 0 12.93625 4.8225 12.93625 13.235v13.97h3.52875v6.9575H92.714c-2.92125 0-4.255-1.42875-4.86125-3.285-1.8575 2.06-4.66 4.005-8.745 4.005M362.248 39.3517c-.26-.145-.67375-.21625-1.2425-.21625h-.87625v2.1075h.9275c.4325 0 .76-.0425.97625-.13.4025-.15875.6025-.46125.6025-.90875 0-.42375-.13-.7075-.3875-.8525m-1.1075-.9175c.72125 0 1.25125.07 1.58875.21.6025.25125.9025.7425.9025 1.475 0 .52-.19125.9025-.5675 1.14875-.2025.13-.4825.22375-.84375.28125.455.0725.79.2625 1 .57.21125.30875.3175.60875.3175.90125v.42625c0 .13375 0 .27875.0138.4325.0125.15375.0275.255.05.3025l.0375.0725h-.96125c0-.0187-.0125-.0387-.0138-.0575 0-.02-.0125-.0412-.015-.0638l-.0213-.1875v-.46125c0-.67125-.1825-1.11625-.54875-1.33125-.2175-.125-.59625-.1875-1.14125-.1875h-.80875v2.28875h-1.025v-5.82h2.03625zm-3.11875-.295c-.88625.89-1.32875 1.96625-1.32875 3.2275 0 1.27.44 2.35375 1.32125 3.24875.88625.895 1.96125 1.3425 3.2275 1.3425s2.3425-.4475 3.22625-1.3425c.88625-.895 1.33-1.97875 1.33-3.24875 0-1.26125-.44375-2.3375-1.33-3.2275-.88875-.89625-1.965-1.34375-3.22625-1.34375-1.25625 0-2.33.4475-3.22 1.34375m6.97375 6.98125c-1.035 1.04-2.285 1.56-3.75375 1.56-1.4675 0-2.7175-.52-3.7475-1.56-1.025-1.035-1.53875-2.28875-1.53875-3.76125 0-1.45875.5175-2.705 1.55375-3.74 1.03-1.03 2.27375-1.545 3.7325-1.545 1.46875 0 2.71875.515 3.75375 1.545 1.035 1.03 1.5525 2.27625 1.5525 3.74 0 1.4675-.5175 2.72125-1.5525 3.76125"/></svg>