<svg xmlns="http://www.w3.org/2000/svg" role="img" viewBox="-7.40 -10.40 644.80 304.30"><title>BFE logo</title><defs><style>.cls-1{fill:#3964dd}</style></defs><path d="M126.193 2.256l18.061 10.452L23.371 82.805 5.31 72.353 126.193 2.256z" class="cls-1"/><path d="M24.434 222.114L5.733 211.317V71.556l18.701 10.797v139.761zm150.971-189.79l18.061 10.453-120.884 70.107-18.06-10.453 120.883-70.107z" class="cls-1"/><path d="M73.645 252.182l-18.7-10.797V101.624l18.7 10.797v139.761zM227.569 61.851l18.061 10.453-120.883 70.106-18.061-10.452 120.883-70.107z" class="cls-1"/><path d="M125.81 281.709l-18.701-10.797V131.151l18.701 10.797v139.761z" class="cls-1"/><path d="M246.348 122.746v21.594l-121.031 69.88v-21.594l121.031-69.88zm-.462 67.784v21.594l-121.031 69.88V260.41l121.031-69.88zm148.146-33.04289q0 14.59563-10.80629 22.15233a37.96 37.96 0 0 1-20.533 5.40863h-50.25318V94.26865h52.41216q10.80631 0 18.374 5.40862 8.0965 6.47724 8.10746 18.363 0 11.346-7.5677 18.374 10.2665 7.56763 10.26653 21.07282m-15.65315-39.44679q0-10.79526-13.50512-10.80629h-39.46883v24.32244h34.58893q18.363 0 18.363-13.51615m3.24961 39.44681a12.30434 12.30434 0 0 0-4.8689-10.26653 13.64837 13.64837 0 0 0-9.187-3.23859h-42.14564v28.10078h37.28777q18.90275 0 18.91377-14.59566M508.253 108.093h-57.722v22.439h52.908v12.833h-52.908v41.694h-12.293V95.26h70.015v12.833zm116.875 77.43975h-33.78485q-19.828 0-27.88045-8.58111-8.05242-9.12094-8.05239-30.03953V95.4363H625.128v12.86619h-57.38022v24.67494h54.16366v12.32645h-54.16366v1.6083q0 15.01425 5.36459 20.37883 4.82479 5.37565 18.23078 5.36459H625.128z" class="cls-1"/></svg>