<svg xmlns="http://www.w3.org/2000/svg" role="img" xmlns:xlink="http://www.w3.org/1999/xlink" viewBox="1.05 2.80 192.66 51.41"><title>Bhuma (member) logo</title><defs><symbol overflow="visible"><path d="M2 0v-39.98438h15.9375V0zm1.98438-2H15.9375v-36H3.98437zm0 0"/></symbol><symbol id="a" overflow="visible"><path d="M36.85938-11.625c0 2.08594-.41407 3.86719-1.23438 5.34375-.82422 1.46875-1.92969 2.66797-3.3125 3.59375-1.38672.92969-2.9961 1.60938-4.82813 2.04688C25.64844-.21094 23.71876 0 21.6875 0H4.92187v-41.28125h15c2.28126 0 4.31641.19531 6.10938.57813 1.80078.375 3.32813.97656 4.57813 1.79687 1.25.82422 2.20312 1.86719 2.85937 3.125.65625 1.26172.98438 2.76563.98438 4.51563 0 1.15624-.16407 2.24609-.48438 3.26562-.32422 1.01172-.8125 1.9336-1.46875 2.76563-.64844.82421-1.46484 1.53906-2.45313 2.14062-.99218.59375-2.13671 1.03906-3.4375 1.32813 1.65626.19921 3.125.57812 4.40626 1.14062 1.28124.5625 2.34765 1.28906 3.20312 2.17188.86328.875 1.51953 1.89843 1.96875 3.0625.44531 1.15625.67188 2.41406.67188 3.76562zm-8.03126-18.96875c0-2.21875-.76171-3.80469-2.28124-4.76563-1.52344-.95703-3.73047-1.4375-6.625-1.4375h-9.40626v13.0625h9.40625c1.64454 0 3.03126-.16015 4.15626-.48437 1.1328-.32031 2.05078-.78125 2.75-1.375.70703-.59375 1.21874-1.30469 1.53124-2.14063.3125-.84374.46876-1.79687.46876-2.85937zm2.375 18.51563c0-1.30079-.24218-2.41016-.71874-3.32813-.48047-.91406-1.16797-1.66406-2.0625-2.25-.89844-.59375-1.97657-1.02344-3.23438-1.29688-1.26172-.26953-2.67188-.40624-4.23438-.40624h-10.4375v14.875h10.875c1.42579 0 2.73829-.11329 3.9375-.34375 1.19532-.23829 2.22657-.64844 3.09376-1.23438.875-.58203 1.55468-1.36328 2.04687-2.34375.48828-.97656.73438-2.20313.73438-3.67188zm0 0"/></symbol><symbol id="b" overflow="visible"><path d="M9.28125-26.28125c.59375-1.07031 1.22656-1.98438 1.90625-2.73438.6875-.75 1.4375-1.36718 2.25-1.85937.82031-.48828 1.72266-.84375 2.70313-1.0625.97656-.22656 2.0703-.34375 3.28124-.34375 2.03126 0 3.69532.27734 5 .82813 1.30079.54296 2.32813 1.30859 3.07813 2.29687.75.98047 1.26563 2.15625 1.54688 3.53125.28124 1.36719.42187 2.86719.42187 4.5V0h-5.29688v-20.09375c0-1.35156-.08593-2.53516-.25-3.54688-.16796-1.01953-.48437-1.86328-.95312-2.53124-.46875-.67579-1.13672-1.1875-2-1.53126-.85547-.34374-1.96484-.51562-3.32813-.51562-1.25 0-2.3828.23047-3.39062.6875-1 .44922-1.85938 1.08594-2.57813 1.90625-.71093.8125-1.26171 1.8086-1.65625 2.98438-.38671 1.16796-.57812 2.48437-.57812 3.95312V0H4.15625v-43.48438H9.4375v11.3125c0 .64844-.01172 1.29297-.03125 1.9375-.02344.64844-.04688 1.2461-.07813 1.79688-.03125.54297-.05859 1.00781-.07812 1.39063-.01172.375-.02734.6328-.04688.76562zm0 0"/></symbol><symbol id="c" overflow="visible"><path d="M9.20313-31.70313v20.09376c0 1.55468.10937 2.84375.32812 3.875.22656 1.03125.59375 1.86718 1.09375 2.5.50781.63671 1.17969 1.08984 2.01563 1.35937.83203.26172 1.86328.39063 3.09375.39063 1.25 0 2.375-.21875 3.375-.65625 1.0078-.44532 1.86718-1.08204 2.57812-1.90625.71875-.83204 1.26953-1.85938 1.65625-3.07813.39453-1.21875.59375-2.61719.59375-4.20313v-18.375h5.26563v24.9375c0 .66797.0039 1.3672.01562 2.09375.00781.73047.02344 1.42188.04688 2.07813.01953.65625.03906 1.21875.0625 1.6875.01953.46875.03906.77344.0625.90625h-4.98438c-.02344-.09375-.04297-.35156-.0625-.78125-.02344-.4375-.04688-.92969-.07813-1.48438-.02343-.5625-.04296-1.1289-.0625-1.70312-.02343-.57031-.03124-1.05469-.03124-1.45313h-.09376c-.5.91797-1.05859 1.75-1.67187 2.5-.60547.7422-1.3086 1.3711-2.10938 1.89063-.79296.51172-1.71093.90625-2.75 1.1875-1.03124.28906-2.23046.4375-3.59374.4375-1.76172 0-3.27735-.21484-4.54688-.64063-1.27344-.4375-2.32031-1.10156-3.14063-2-.8125-.90625-1.41406-2.0625-1.79687-3.46875-.38672-1.40625-.57813-3.09375-.57813-5.0625v-21.125zm0 0"/></symbol><symbol id="d" overflow="visible"><path d="M22.5 0v-20.09375c0-1.53906-.10156-2.82813-.29688-3.85938-.1875-1.03906-.51562-1.8789-.98437-2.51562-.46094-.63281-1.0586-1.08203-1.79688-1.34375-.74218-.26953-1.64843-.40625-2.71874-.40625-1.1172 0-2.125.22656-3.03126.67188-.89843.4375-1.66406 1.07421-2.29687 1.90624-.625.82422-1.10938 1.84376-1.45313 3.0625-.34375 1.21876-.51562 2.6211-.51562 4.20313V0h-5.25v-24.9375c0-.65625-.00781-1.34766-.01563-2.07813-.01171-.73828-.02734-1.4375-.04687-2.09374-.01172-.65626-.02734-1.21876-.04688-1.6875-.02343-.46876-.04296-.76954-.0625-.90626h4.98438c.01953.10547.03516.3711.04688.79688.01953.42969.04687.92188.07812 1.48438.03125.55468.05469 1.12109.07813 1.70312.01953.57422.03125 1.05469.03125 1.4375h.07812c.46875-.91406.97266-1.74219 1.51563-2.48438.55078-.75 1.1914-1.3789 1.92187-1.89062.73828-.51953 1.58203-.92188 2.53125-1.20313.94531-.28124 2.04688-.42187 3.29688-.42187 2.40624 0 4.30468.48047 5.70312 1.4375 1.39453.94922 2.36328 2.46875 2.90625 4.5625H27.25c.46875-.91406.99219-1.74219 1.57813-2.48438.58203-.75 1.26562-1.3789 2.04687-1.89062.78125-.51953 1.66016-.92188 2.64063-1.20313.97656-.28124 2.09374-.42187 3.34374-.42187 1.60157 0 2.98438.21484 4.14063.64063 1.16406.42968 2.11719 1.09374 2.85938 2 .73828.89843 1.28515 2.05468 1.64062 3.46874.35156 1.41797.53125 3.10157.53125 5.04688V0H40.8125v-20.09375c0-1.53906-.10156-2.82813-.29688-3.85938-.19921-1.03906-.52734-1.8789-.98437-2.51562-.46094-.63281-1.0586-1.08203-1.79688-1.34375-.74218-.26953-1.64843-.40625-2.71874-.40625-1.1172 0-2.125.21484-3.03126.64063-.89843.41796-1.66406 1.03906-2.29687 1.85937-.63672.8125-1.125 1.83984-1.46875 3.07813-.33594 1.23046-.5 2.65234-.5 4.26562V0zm0 0"/></symbol><symbol id="e" overflow="visible"><path d="M12.125.59375c-3.17969 0-5.57031-.83594-7.17188-2.51563-1.60546-1.6875-2.40625-3.99218-2.40625-6.92187 0-2.09375.39454-3.80469 1.1875-5.14063.78907-1.34375 1.82813-2.39453 3.10938-3.15625 1.28125-.7578 2.73828-1.28515 4.375-1.57812 1.64453-.28906 3.3164-.45703 5.01563-.5l7.10937-.125v-1.71875c0-1.3125-.13672-2.42578-.40625-3.34375-.27344-.91406-.69531-1.65625-1.26563-2.21875-.5625-.57031-1.27343-.98828-2.125-1.25-.84374-.25781-1.84374-.39063-3-.39063-1.01171 0-1.92968.07422-2.75.21876-.82421.14843-1.53906.41406-2.14062.79687-.60547.375-1.09375.89063-1.46875 1.54688-.36719.64843-.60547 1.46874-.71875 2.46874l-5.51563-.5c.19532-1.25.56641-2.39453 1.10938-3.4375.55078-1.03906 1.32813-1.9414 2.32813-2.70312 1.0078-.76953 2.26953-1.36328 3.78125-1.78125 1.51953-.41406 3.35156-.625 5.5-.625 3.97656 0 6.97265.91406 8.98437 2.73438 2.01953 1.82421 3.03125 4.46484 3.03125 7.92187v13.65625c0 1.5625.20313 2.74219.60938 3.53125.40624.79297 1.1875 1.1875 2.34374 1.1875.28907 0 .58204-.01953.875-.0625.28907-.03906.57813-.08594.85938-.14063v3.28125c-.66797.15626-1.32813.26954-1.98438.34376-.65624.08203-1.35546.125-2.09374.125-1 0-1.85547-.13282-2.5625-.39063-.71094-.26953-1.29297-.67188-1.75-1.20313-.44922-.53906-.79297-1.20703-1.03126-2-.23046-.78906-.37109-1.71093-.42187-2.76562h-.1875c-.5625 1.01172-1.1836 1.92969-1.85938 2.75-.66796.82422-1.45312 1.52344-2.35937 2.09375-.89844.57422-1.91797 1.01563-3.0625 1.32813-1.13672.3203-2.44922.48437-3.9375.48437zM13.32813-3.375c1.67578 0 3.14453-.30469 4.40625-.92188 1.2578-.61328 2.30468-1.39843 3.14062-2.35937.83203-.95703 1.45313-2 1.85938-3.125.40624-1.13281.60937-2.21875.60937-3.25v-2.60938l-5.76563.10938c-1.29296.02344-2.52343.11719-3.6875.28125-1.15625.16797-2.17968.4961-3.0625.98438-.875.49218-1.57421 1.17187-2.09375 2.04687-.51171.875-.76562 2.02734-.76562 3.45313 0 1.71875.46094 3.04687 1.39063 3.98437.92578.9375 2.25 1.40625 3.96875 1.40625zm0 0"/></symbol></defs><use y="50" xlink:href="#a"/><use x="40.02" y="50" xlink:href="#b"/><use x="73.389" y="50" xlink:href="#c"/><use x="106.758" y="50" xlink:href="#d"/><use x="156.738" y="50" xlink:href="#e"/></svg>