<svg xmlns="http://www.w3.org/2000/svg" role="img" viewBox="99.96 98.96 730.08 687.58"><title>BISDN logo</title><defs><clipPath id="a"><path d="M0 891.089h934.092V0H0z" transform="matrix(1 0 0 -1 0 891.089)"/></clipPath></defs><g clip-path="url(#a)"><path fill="#9fbede" d="M454.636 308.512c12.938 5.915 27.32 9.215 42.476 9.215 12.461 0 24.4-2.231 35.443-6.312l58.007 66.87 44.478-46.608-51.462-61.585c10.011-15.808 15.811-34.546 15.811-54.641 0-56.485-45.792-102.276-102.277-102.276-56.483 0-102.274 45.791-102.274 102.276 0 16.067 3.709 31.267 10.311 44.795L267.754 405.234c-12.638-4.914-26.381-7.616-40.756-7.616-62.133 0-112.502 50.37-112.502 112.502 0 62.134 50.369 112.505 112.502 112.505 50.933 0 93.954-33.851 107.812-80.281l106.592-3.439 63.384-68.634-172.103 1.189c-2.53-6.914-5.72-13.511-9.493-19.715z"/><path fill="#7f98b2" d="M724.254 404.568c-8.792 0-17.295 1.234-25.348 3.536l-63.866-76.428-44.478 46.609 57.646 66.457c-5.117 7.487-9.159 15.766-11.899 24.619l-131.523.909-63.385 68.634 198.069-6.391c13.991 33 46.684 56.149 84.784 56.149 50.837 0 92.048-41.211 92.048-92.048s-41.211-92.046-92.048-92.046"/><path fill="#24425f" d="M724.254 555.512c32.478 0 58.897-26.421 58.897-58.897 0-32.475-26.419-58.898-58.897-58.898-32.477 0-58.896 26.423-58.896 58.898 0 32.476 26.419 58.897 58.896 58.897"/><path fill="#24425f" d="M226.998 582.108c39.693 0 71.986-32.294 71.986-71.987 0-39.694-32.293-71.984-71.986-71.984-39.69 0-71.984 32.29-71.984 71.984 0 39.693 32.294 71.987 71.984 71.987"/><path fill="#24425f" d="M497.111 280.893c36.085 0 65.442-29.357 65.442-65.441 0-36.085-29.357-65.443-65.442-65.443-36.085 0-65.439 29.358-65.439 65.443 0 36.084 29.354 65.441 65.439 65.441"/><path fill="#2f4e6a" d="M317.55 733.452v22.841h12.11c5.116 0 8.892-.979 11.33-2.938 2.438-1.958 3.658-4.955 3.658-8.992 0-7.273-5.196-10.911-15.588-10.911zm0-14.748h10.791c5.036 0 8.683-.779 10.941-2.338 2.258-1.559 3.387-4.137 3.387-7.733 0-3.358-1.229-5.766-3.687-7.225-2.458-1.458-6.345-2.188-11.66-2.188h-9.772zm-18.585-34.712h27.278c12.429 0 21.452 1.769 27.067 5.306 5.615 3.537 8.424 9.163 8.424 16.877 0 5.235-1.229 9.531-3.687 12.888-2.458 3.358-5.726 5.377-9.802 6.056v.6c5.555 1.239 9.562 3.556 12.02 6.954 2.458 3.397 3.687 7.913 3.687 13.549 0 7.993-2.888 14.228-8.663 18.704-5.776 4.477-13.619 6.714-23.531 6.714h-32.793z"/><path fill="#2f4e6a" d="M381.457 683.992h18.585v87.648h-18.585z"/><path fill="#2f4e6a" d="M473.842 747.3c0 7.913-2.848 14.148-8.543 18.704-5.695 4.557-13.619 6.835-23.77 6.835-9.353 0-17.626-1.758-24.82-5.276v-17.266c5.915 2.638 10.921 4.497 15.018 5.576 4.096 1.079 7.843 1.618 11.24 1.618 4.077 0 7.204-.779 9.383-2.337 2.178-1.559 3.267-3.877 3.267-6.955 0-1.718-.48-3.247-1.439-4.587-.959-1.337-2.368-2.626-4.227-3.866-1.858-1.239-5.645-3.217-11.36-5.935-5.356-2.518-9.373-4.935-12.05-7.254-2.678-2.318-4.817-5.016-6.415-8.094-1.599-3.076-2.398-6.673-2.398-10.791 0-7.753 2.628-13.849 7.884-18.285 5.255-4.436 12.519-6.654 21.792-6.654 4.556 0 8.902.54 13.039 1.619 4.137 1.079 8.462 2.597 12.98 4.555l-5.996 14.449c-4.676-1.918-8.543-3.256-11.6-4.017-3.058-.759-6.066-1.139-9.023-1.139-3.517 0-6.215.821-8.093 2.458-1.879 1.639-2.818 3.777-2.818 6.414 0 1.64.38 3.069 1.139 4.288.759 1.218 1.968 2.397 3.627 3.537 1.659 1.138 5.585 3.187 11.781 6.144 8.193 3.917 13.808 7.844 16.846 11.78 3.037 3.938 4.556 8.764 4.556 14.479"/><path fill="#2f4e6a" d="M543.144 727.457c0-18.824-8.313-28.237-24.939-28.237h-9.892v57.073h7.974c17.904 0 26.857-9.611 26.857-28.836m19.305-.479c0 14.428-4.107 25.478-12.321 33.152-8.213 7.674-20.073 11.511-35.58 11.511h-24.82v-87.649h27.518c14.307 0 25.419 3.777 33.333 11.331 7.913 7.554 11.87 18.106 11.87 31.655"/><path fill="#2f4e6a" d="M658.37 771.64h-23.62l-38.129-66.306h-.54c.76 11.711 1.14 20.065 1.14 25.06v41.246h-16.607v-87.648h23.441l38.069 65.646h.419c-.6-11.391-.9-19.443-.9-24.16v-41.486h16.727z"/></g></svg>