<svg xmlns="http://www.w3.org/2000/svg" role="img" viewBox="-20.28 -19.28 1002.56 391.56"><title>BOSH logo</title><style>svg {enable-background:new 0 0 964.1 353.5}</style><style>.st0{fill:#16211f}.st3{fill:#00bce7}</style><path d="M672.6 167.9v8.3h-53.9V169c0-18.6-12.5-33.4-42.9-33.4-25 0-38.3 11-38.3 26.9 0 19.3 12.9 24.7 55.4 38.7 63.3 17.8 82.7 36.4 82.7 77.4 0 47.8-39.4 74.7-97.5 74.7-67.5 0-98.6-30.7-98.6-77.4v-11.4h53.9v7.6c0 23.5 15.6 37.2 46.3 37.2 26.5 0 41.3-10.2 41.3-27.7 0-20.1-9.9-25-56.9-40.2-59.5-15.9-81.1-34.4-81.1-76.5 0-43.2 35.3-73.2 94.4-73.2 64.9 0 95.2 31.1 95.2 76.2zM3.3 98h93.1c43.7 0 91.4 9.2 91.4 63.5 0 27.9-17.3 46.9-43 55v.7c32.8 4.2 54.7 28.6 54.7 61 0 52.2-49.4 69.5-93.8 69.5H3.3V98zm55 99.9h39.9c16.9 0 34.6-7.1 34.6-27.2 0-20.8-19.8-26.1-37-26.1H58.3v53.3zm0 103.3h49.4c17.3 0 36.7-7.4 36.7-29.3 0-23.6-26.5-27.5-44.4-27.5H58.3v56.8zM697.3 98h55v93.1h106.9V98h55v249.7h-55V239.8H752.4v107.9h-55V98z" class="st0"/><path fill="#2261ae" d="M314.7 220c1.3-11.9 11.4-21.3 23.7-21.3 13.1 0 23.8 10.7 23.8 23.8 0 9.5-5.5 17.6-13.5 21.5-.1.1-.8.6-.9 1.4-.1 1 .4 1.4.6 1.6 3.4 2.5 21.4 15.3 28.7 20.5.9.6 2 1 3 .9 1.1-.1 2.2-.7 2.6-1.2 11.5-11.4 18.7-27.2 18.7-44.7 0-34.8-28.2-63-63-63-25 0-46.5 14.5-56.7 35.6-.2.5-.7 1.9-.4 2.9.3 1.2 1.4 2 1.4 2s24.7 17.6 29.3 20.9c.2.1 1 .6 1.7.2.7-.1.9-.9 1-1.1z"/><path d="M423.7 229.8c-3.7 43.9-40.5 78.4-85.3 78.4h-.5c-45.4-.3-82.6-36.1-85-81 0-.2-.1-2.2-1.3-3.3-1.2-1.1-2.7-1.4-3.8-1.4h-34.2c-2.1 0-3.5.3-4.7 1.4-1.2 1.2-1.2 3.4-1.2 4.6 0 .4.1 1.5.1 2 4.2 68.3 60.9 122.5 130.1 122.8h.5c59.3 0 109.5-39.7 125.5-93.9.2-.6.7-2.5.3-4.3-.3-1.3-1.4-2.5-2.1-3.1-7.6-5.5-28-20.2-33.5-24.2-.6-.5-1.8-1-3.2-.5-1.5.7-1.7 2.3-1.7 2.5z" class="st0"/><path d="M253 215.4c3.7-43.9 40.5-78.4 85.3-78.4h.5c45.4.3 82.6 36.1 85 81 0 .2.1 2.2 1.3 3.3 1.2 1.1 2.7 1.4 3.8 1.4h34.2c2.1 0 3.5-.3 4.7-1.4 1.2-1.2 1.2-3.4 1.2-4.6 0-.4-.1-1.5-.1-2-4.1-68.4-60.8-122.7-130.1-122.9h-.5c-59.3 0-109.5 39.7-125.5 93.9-.2.6-.7 2.5-.3 4.3.3 1.3 1.4 2.5 2.1 3.1 7.6 5.5 28 20.2 33.5 24.2.6.5 1.8 1 3.2.5 1.5-.6 1.7-2.2 1.7-2.4z" class="st3"/><g><path d="M931.5 331.4h-6v-3h15.4v3h-6v16.4h-3.5v-16.4zm11.6-3h5.4l5 13.8h.1l5-13.8h5.4v19.4h-3.4v-15.6h-.1l-5.9 15.6h-2.4l-5.8-15.6h-.1v15.6H943v-19.4z" class="st0"/></g><g><path d="M44.8 44c-5.1 5-11.6 7.3-18.7 7.3C7.8 51.3.1 38.7 0 25.9-.1 13.1 8.3 0 26.1 0c6.7 0 13 2.5 18.1 7.5l-6.2 6c-3.2-3.2-7.6-4.6-11.9-4.6-11.9 0-17 8.9-16.9 17.1.1 8.2 4.8 16.7 16.9 16.7 4.3 0 9.1-1.8 12.4-5l6.3 6.3zM65.6 1v40.6h25.3v8.6H56.3V1h9.3zm85.7 24.9c-.1 12.7-7.9 25.4-25.2 25.4s-25.3-12.4-25.3-25.4S109.1 0 126.1 0c16.9 0 25.4 13 25.2 25.9zm-41.4.2c.2 8.1 4.6 16.7 16.2 16.7s16-8.7 16.1-16.8c.1-8.3-4.5-17.6-16.1-17.6s-16.4 9.4-16.2 17.7zm98.4-25v28.2c0 14.5-8.9 22-21.3 22-11.8 0-21.9-7.2-21.9-22V1.1h9.2v28.2c0 8.9 5.1 13.6 12.7 13.6 7.7 0 12-5.1 12-13.6V1.1h9.3zm59.4 24.1c.2 12.4-7.4 25-24.6 25h-19.3V1h19.3c16.9 0 24.4 12 24.6 24.2zM233 41.3h10.1c11.2 0 15.6-8.2 15.4-16.2-.2-7.7-4.7-15.3-15.4-15.3H233v31.5z" class="st3"/><path d="M294 24.6h28.3v3.6H294v22.3h-3.8V1.2h33.1V5H294v19.6z" class="st3"/><path d="M439.6 1.2v30.5c0 25.7-37.6 25.7-37.6 0V1.2h3.7v30.5c0 21.1 30.2 21 30.2 0V1.2h3.7zm17.3 0l33 40.6V1.2h3.7v49.1h-1.5l-33-40.6v40.5h-3.8v-49h1.6zm94.1 24c.3 12.5-7.7 25.1-24.9 25.1h-16.6V1.2h16.6c16.6 0 24.6 11.9 24.9 24zM513.3 4.8v41.9h12.8c14.6 0 21.3-10.9 21.1-21.5-.2-10.2-6.9-20.4-21.1-20.4h-12.8zM604 50.3h-5l-17-18.6h-13.4v18.6h-3.8V1.2h21.6c10.7 0 16.1 7.6 16.1 15.3.1 8-5.2 15-15.9 15L604 50.3zm-35.3-22.2H586c8.6 0 12.3-4.8 12.4-11.7.1-5.7-3.9-11.7-12-11.7h-17.8v23.4zm61.8 2.5L611.4 1.3v-.1h4.4L632.4 27l16.7-25.8h4.4v.1l-19.2 29.4v19.6h-3.8V30.6z" class="st3"/><path d="M386.9 25.6c-.1 12.8-8.2 25.2-24.6 25.2-16.4 0-24.6-12.4-24.6-25.3 0-13.1 8.2-25.1 24.6-25.1 16.4 0 24.6 12 24.6 25.2zm-45.5-.1c.1 11 7 21.7 20.9 21.7 13.9 0 21-10.7 21-21.7 0-11.3-7-21.7-21-21.7-14 .1-21 10.3-20.9 21.7z" class="st3"/></g></svg>