<svg xmlns="http://www.w3.org/2000/svg" role="img" viewBox="-5.66 45.59 411.06 204.31"><title>CPqD logo</title><style>svg {enable-background:new 0 0 400 245}</style><style>.st14{fill-rule:evenodd;clip-rule:evenodd;fill:#a19888}</style><path d="M113.76 83.6c-8.59-.05-8.69-.05-13.04-.05-6.99-.05-13.76.52-18.99 4.71-15.06 11.9-17.18 30.12-21.68 46.83-1.66 9.16-4.19 22.15 5.02 28.41 3.78 2.43 8.33 2.9 13.14 2.9 4.45-.05 8.38-.16 13.35-.1l-7.87 29.6-29.91.05c-19.92-.05-42.43-7.24-49.16-28.3-5.49-19.3-.16-40.05 6.42-57.33C23.67 77.1 58.28 54.28 93.47 53.87c9.26-.31 18.78-.1 28.2-.16l-7.91 29.89z" class="st14"/><path fill="#007ac1" fill-rule="evenodd" d="M346.1 53.69c20.03 1.09 42.9 7.04 49.47 28.67 5.43 21.37-.57 43.57-8.8 62.04-15.47 32.81-46 51.95-85.07 51.49h-12.78l7.81-29.5c1.45.16 2.95-.05 4.29-.05 9.78-.05 18.27-3.67 24.42-11.8 9.11-13.14 11.85-28.93 15.47-44.4.98-7.97 2.02-17.64-4.97-23.18-5.17-4.35-12.57-3.52-19.56-3.57-3.57 12.78-.83 3.21-4.4 16.04H257.7l12.11-45.9 76.29.16zM245.92 72.57c-5.12-13.25-19.04-17.85-31.93-18.73l-3.16-.16h-32.19V83.7c5.95 0 11.8.41 15.01 5.8 2.38 6.47-.21 13.09-3.26 18.42-3.1 4.24-7.19 6.57-11.75 7.87v31.41c21.94-1.29 42.02-7.14 56.45-25.3 9.79-13.93 16.31-31.78 10.83-49.33zm-67.27-18.88H125.4l-38.14 142.2h54.13l13.14-48.49c7.66 0 5.12-.05 13.76.05 3.52 0 6.93-.1 10.35-.26v-31.41c-4.97 1.35-10.45 1.45-15.99 1.35l9.06-33.43c2.22.1 4.61 0 6.93 0V53.69z" clip-rule="evenodd"/><path d="M272.52 242.15l-54.18-.05 12.42-46.21c-7.87 0-14.44.16-21.63 0-15.52-.36-30.37-2.38-40.83-14.39-6.36-8.12-6.57-21.01-3.88-31 0-.05 3.78 0 7.45 0 18.47 0 35.76-2.9 50.3-12.47-4.86 5.74-8.49 15.68-4.45 22.3 3.05 4.3 7.87 5.43 12.99 5.74 2.64.16 5.43 0 8.07.05l9.11-33.58c-7.04-.16-.1-.05-7.92-.16-4.66.05-9.26.47-13.19 2.38 11.07-8.49 18.01-20.03 21.89-32.19l61.78.05-37.93 139.53z" class="st14"/></svg>