<svg xmlns="http://www.w3.org/2000/svg" role="img" viewBox="3.70 3.95 353.60 173.60"><title>Carrier Grade Linux logo</title><defs><style>.cls-1{fill:none}.cls-3{fill:#949699}.cls-4{fill:#fdb140}</style></defs><path d="M90.779 120.01725c-.884-4.02932-1.87078-8.0381-2.89867-12.02628-6.76348 0-13.54747-.16447-20.311.1028-1.39792 3.90593-2.508 7.89415-3.577 11.9029q13.38299.12333 26.78667.02058zM236.83 84.844l-4.035 12.231h7.959l-3.924-12.231zm1.71-45.6927q1.84749-.88383 1.84542-3.50051 0-2.82336-1.784-3.79512a6.43 6.43 0 0 0-3.00339-.54832h-7.17289v8.35133h6.99286a7.41613 7.41613 0 0 0 3.122-.50738zm31.18757 0q1.84744-.88383 1.8454-3.50051 0-2.82336-1.784-3.79512a6.42974 6.42974 0 0 0-3.00333-.54832h-7.17291v8.35133h6.99286a7.41616 7.41616 0 0 0 3.12198-.50738zm-59.97733 51.82856q1.84743-.88382 1.84539-3.50051 0-2.82336-1.784-3.79516a6.43 6.43 0 0 0-3.00339-.54828h-7.17288v8.35133h6.99287a7.41611 7.41611 0 0 0 3.12201-.50738zM84.44716 97.65043c-2.15857-7.50356-4.31956-15.42885-6.61993-23.24826-2.92251 8.04526-5.13907 15.7036-7.46208 23.22774 4.68713.04109 9.39485.04109 14.08201.02052zM203.236 33.016l-4.034 12.23h7.958l-3.924-12.23zM61.01627 130.34c-1.17969 3.66607-2.42615 7.68513-3.31029 11.08915 13.56809.20557 26.39172.07087 39.98034.09143-1.59085-5.21766-2.2791-7.45347-3.42595-11.18058zm280.77166-98.48433a6.43007 6.43007 0 0 0-3.00338-.54832h-7.17289v8.35133h6.99283a7.41609 7.41609 0 0 0 3.122-.50738q1.84744-.88383 1.84537-3.50051.00006-2.82336-1.78393-3.79512zM274.249 98.89132a15.96657 15.96657 0 0 0 .99427-5.929 14.54965 14.54965 0 0 0-1.48938-7.28543q-1.49149-2.541-5.9249-2.541h-5.99857V103.425h5.9986q4.60322 0 6.41998-4.53368z" class="cls-1"/><path d="M90.77893 120.01729c-.884-4.0293-1.87073-8.03809-2.89862-12.02625-6.76349 0-13.54749-.16449-20.311.10279v-.00006c-1.39788 3.90594-2.508 7.89416-3.577 11.90295q13.40354.11307 26.78662.02057zm-6.33179-22.36688c-2.15857-7.50354-4.31952-15.42884-6.61993-23.24823-2.92249 8.04522-5.139 15.70361-7.462 23.22772 4.6871.0411 9.39479.0411 14.08193.02051zm13.23926 43.87017c-1.59094-5.21765-2.27917-7.45349-3.426-11.1806H60.13428v.00002h.882c-1.17969 3.66608-2.42615 7.68512-3.31031 11.08911 13.56808.20561 26.39175.07089 39.98043.09147z" class="cls-1"/><path fill="#231f20" d="M114.79034 164.52467c-1.9895-10.357-7.483-24.3609-11.22454-37.72345-5.42719-19.09808-11.59455-37.97-16.83674-57.12982 2.48749-4.60492 4.94141-8.47571 5.13947-13.83533-.80524-9.289-7.64753-15.25384-15.68553-14.57537a15.40307 15.40307 0 0 0-12.972 14.59588c-.45227 5.07782 2.75476 9.49768 4.99554 13.79425-8.40808 30.56928-18.3786 60.8097-26.78668 91.379-1.583 4.66663.09766 9.7489 4.25543 9.76495 6.4021.0246 8.13459-11.56164 10.27216-18.36773H100.034c1.60345 4.55365 1.93646 13.99457 7.335 16.35309 2.43013 1.06161 7.91994-1.66025 7.42134-4.25547zM77.82721 74.40218c2.30041 7.81939 4.46136 15.74469 6.61993 23.24823-4.68713.02056-9.39483.02056-14.082-.02051 2.32303-7.52411 4.53958-15.1825 7.46207-23.22772zm-10.25794 33.69159v.00006c6.76355-.26728 13.54755-.10279 20.311-.10279 1.02789 3.98816 2.01465 7.99695 2.89862 12.02625q-13.38309.09246-26.78668-.02057c1.06907-4.00879 2.17918-7.99701 3.57706-11.90295zM60.13428 130.34h34.1261c1.14685 3.72711 1.83508 5.963 3.426 11.1806-13.58868-.02056-26.41235.11414-39.98041-.09143.88416-3.404 2.13062-7.423 3.31031-11.08911z"/><path d="M99.38819 69.78881c-1.37158 2.52805.17522 4.77217 2.47959 6.11613 3.03092 1.76767 4.5889-.65661 5.80754-2.65789a32.76857 32.76857 0 0 0 5.26877-17.53005 32.3046 32.3046 0 0 0-4.88639-16.14542c-1.45452-2.423-3.317-4.93656-6.66839-2.84659-2.2969 1.43235-3.29736 3.80825-1.83494 6.31044 5.25696 8.99466 4.69387 17.79549-.16618 26.75338z"/><path d="M121.03863 30.25594c-2.2911-3.81666-3.99427-5.62679-6.39224-4.48391-3.84909 1.83447-5.1939 5.99869-2.89038 9.94 8.2806 14.16807 7.3936 28.03085-.26177 42.141-2.16045 3.9821-2.32916 6.02748-.20576 7.57813 4.46334 3.2595 7.22832 1.02154 9.14788-2.13084 4.92186-8.08281 7.41721-14.16623 7.41721-27.86235-.72487-8.25406-1.92376-17.03392-6.81494-25.18203z" class="cls-3"/><path d="M122.42494 11.29139c-5.75924 2.74487-1.60414 8.97557 1.84253 14.87286 12.39 21.1992 11.06284 41.94154-.39168 63.0541-3.23258 5.95826-3.32124 8.80963-.30786 11.33889 4.28564 3.59713 9.59865-2.16535 11.63187-7.29984 5.33658-13.47647 9.04234-17.08488 9.04234-37.57791a88.567 88.567 0 0 0-12.25271-37.679c-3.4281-5.7107-5.97649-8.41915-9.56449-6.7091z" class="cls-4"/><path d="M46.96468 72.89147c1.45452 2.423 3.31692 4.9366 6.66835 2.84662 2.297-1.43239 3.29737-3.80829 1.835-6.31048-5.257-8.99462-4.69387-17.79544.16618-26.75337 1.37158-2.528-.17521-4.77218-2.47959-6.1161-3.03093-1.7677-4.58893.65658-5.80758 2.65785a32.76867 32.76867 0 0 0-5.26874 17.53009 32.30375 32.30375 0 0 0 4.88638 16.14539z"/><path d="M43.26636 76.751c-8.28063-14.16806-7.39364-28.03084.26178-42.141 2.16044-3.98206 2.32911-6.02743.20571-7.57813-4.4633-3.2595-7.22828-1.02149-9.14783 2.13084-4.92191 8.08282-7.41724 14.16624-7.41724 27.86237.72486 8.25406 1.92375 17.034 6.815 25.18207 2.2911 3.81663 3.99426 5.62677 6.39224 4.48388 3.84905-1.83447 5.19387-5.99868 2.89034-9.94003z" class="cls-3"/><path d="M31.14659 23.24472c3.23259-5.95825 3.32125-8.80963.30782-11.33889-4.28563-3.59712-9.59861 2.16535-11.63183 7.29984-5.33658 13.47647-9.04234 17.08488-9.04234 37.57791A88.56752 88.56752 0 0 0 23.033 94.46262c3.4281 5.7107 5.97645 8.41912 9.56449 6.70906 5.75923-2.74488 1.6041-8.97557-1.84258-14.87287-12.39-21.19919-11.06291-41.94153.39168-63.05409z" class="cls-4"/><path d="M172.42705 57.85894a12.42213 12.42213 0 0 0 8.7953-3.18545A13.99551 13.99551 0 0 0 185.486 46.406h-6.45274a9.75945 9.75945 0 0 1-1.61014 3.6069 6.08682 6.08682 0 0 1-5.09424 2.23617 6.63871 6.63871 0 0 1-5.37663-2.60441q-2.11129-2.60544-2.11131-7.83577 0-5.2293 2.00085-8.08742a7.0541 7.0541 0 0 1 10.62229-.83268 8.83362 8.83362 0 0 1 1.58964 3.37367h6.49777a11.21288 11.21288 0 0 0-2.12776-5.798Q179.8332 25.318 172.071 25.317a12.80064 12.80064 0 0 0-9.55432 3.83809q-4.32087 4.40994-4.32089 12.54947 0 7.5279 3.79715 11.85184 3.79927 4.30254 10.43411 4.30254zm25.00695-7.25473h11.44882l2.05 6.38932h7.042l-10.99473-31.08528h-7.35294l-11.0928 31.08528h6.79237zm5.80215-17.58852l3.924 12.23032h-7.95852zm25.18898 11.78842h6.34635q2.71283 0 3.699.99018.98815.99434 1.027 3.965l.045 2.89083a14.8558 14.8558 0 0 0 .27416 2.67807c.08184.42146.225.97588.42144 1.66537h7.1688V56.214a2.595 2.595 0 0 1-1.1989-1.77172 15.6888 15.6888 0 0 1-.17183-2.88881v-2.08883a10.231 10.231 0 0 0-.8961-4.861 5.79887 5.79887 0 0 0-3.04838-2.45712 6.23947 6.23947 0 0 0 3.69077-3.02589 9.31434 9.31434 0 0 0 1.11707-4.35568 8.77223 8.77223 0 0 0-.57283-3.26729 9.7694 9.7694 0 0 0-1.56308-2.61666 7.6919 7.6919 0 0 0-2.91335-2.17069 13.5116 13.5116 0 0 0-4.90193-.802h-14.86955v31.08522h6.34634zm0-13.49676h7.17287a6.43012 6.43012 0 0 1 3.00338.54832q1.77993.96975 1.784 3.79512A3.49649 3.49649 0 0 1 238.54 39.1513a7.416 7.416 0 0 1-3.122.50738h-6.99284zm31.18754 13.49676h6.34633q2.71286 0 3.699.99018.98817.99434 1.027 3.965l.045 2.89083a14.86026 14.86026 0 0 0 .27411 2.67807c.08185.42146.22507.97588.42148 1.66537h7.16879V56.214a2.5949 2.5949 0 0 1-1.19891-1.77172 15.688 15.688 0 0 1-.17188-2.88881v-2.08883a10.23121 10.23121 0 0 0-.89608-4.861 5.79885 5.79885 0 0 0-3.04838-2.45712 6.23966 6.23966 0 0 0 3.6908-3.02589A9.315 9.315 0 0 0 278.087 34.765a8.7716 8.7716 0 0 0-.57288-3.26729 9.76888 9.76888 0 0 0-1.56308-2.61671 7.69181 7.69181 0 0 0-2.9133-2.17069 13.51178 13.51178 0 0 0-4.902-.802h-14.86943v31.08522h6.34636zm0-13.49676h7.17291a6.42989 6.42989 0 0 1 3.00333.54832q1.78.96975 1.784 3.79512a3.49653 3.49653 0 0 1-1.8454 3.50051 7.416 7.416 0 0 1-3.122.50738h-6.99286zM283.783 25.908h6.453v31.085h-6.453zm19.068 17.505h15.098v-5.399h-15.098v-6.602H319.3v-5.504h-22.8v31.086h23.556v-5.59h-17.205v-7.991zm46.54353 11.0293a15.69059 15.69059 0 0 1-.17181-2.88881v-2.08885a10.23075 10.23075 0 0 0-.89612-4.861 5.7988 5.7988 0 0 0-3.0484-2.45712 6.23963 6.23963 0 0 0 3.69079-3.02589 9.31485 9.31485 0 0 0 1.117-4.35568 8.772 8.772 0 0 0-.57285-3.26729 9.76926 9.76926 0 0 0-1.563-2.61671 7.69214 7.69214 0 0 0-2.91336-2.17069 13.51176 13.51176 0 0 0-4.902-.802h-14.86946v31.08527h6.34637V44.80411h6.34631q2.71284 0 3.69894.99018.98823.99434 1.02707 3.965l.045 2.89083a14.85852 14.85852 0 0 0 .27417 2.67807c.08185.42146.225.97588.42145 1.66537h7.16879V56.214a2.59512 2.59512 0 0 1-1.19889-1.7717zm-7.668-15.291a7.41609 7.41609 0 0 1-3.122.50738h-6.99283v-8.35133h7.17289a6.43007 6.43007 0 0 1 3.00338.54832q1.78.96975 1.784 3.79512a3.49661 3.49661 0 0 1-1.8454 3.50051z"/><path fill="#929598" d="M186.94263 92.13988h-12.94844v5.18836h7.19131a8.10064 8.10064 0 0 1-2.57371 4.91833 7.72538 7.72538 0 0 1-5.3582 1.874 8.59907 8.59907 0 0 1-5.94536-2.37734q-2.61463-2.38144-2.61466-8.1058 0-5.6835 2.41416-8.515A7.74475 7.74475 0 0 1 173.274 82.293a8.84052 8.84052 0 0 1 3.564.69557 6.08554 6.08554 0 0 1 3.611 4.44982h6.38725a11.18588 11.18588 0 0 0-4.12044-7.49819q-3.59663-3.00437-9.52362-3.0054a14.16839 14.16839 0 0 0-10.99052 4.55212q-4.15518 4.55415-4.15316 12.09733 0 7.46338 4.11225 11.75979a13.13963 13.13963 0 0 0 10.123 4.28 11.89624 11.89624 0 0 0 6.328-1.57531 14.88026 14.88026 0 0 0 3.37572-3.10567l.65469 3.879h4.30045zm12.69272 4.49276h6.34634q2.71287 0 3.699.99021.98816.99434 1.027 3.965l.045 2.89287a14.83759 14.83759 0 0 0 .27412 2.676c.08185.42145.22508.97795.42145 1.66533h7.16884v-.77741a2.5994 2.5994 0 0 1-1.1989-1.77176 15.68878 15.68878 0 0 1-.17188-2.88881v-2.09087a10.24253 10.24253 0 0 0-.8961-4.86107 5.79875 5.79875 0 0 0-3.04837-2.45708 6.2395 6.2395 0 0 0 3.69076-3.02588 9.31468 9.31468 0 0 0 1.1171-4.35572 8.77125 8.77125 0 0 0-.57288-3.2673 9.76919 9.76919 0 0 0-1.56308-2.61667 7.69161 7.69161 0 0 0-2.91334-2.17069 13.511 13.511 0 0 0-4.90193-.802H193.289V108.822h6.34636zm0-13.49673h7.17288a6.43 6.43 0 0 1 3.00338.54828q1.77993.96981 1.784 3.79516a3.4965 3.4965 0 0 1-1.84538 3.50051 7.41635 7.41635 0 0 1-3.122.50738h-6.99287zm42.84094 19.29889l2.05 6.38726h7.042l-10.9947-31.08525h-7.35289l-11.09286 31.08525h6.79237l2.10727-6.38726zm-5.64667-17.59059l3.924 12.23036h-7.95853zm42.52591 18.17979a20.687 20.687 0 0 0 2.48782-10.50358 24.13527 24.13527 0 0 0-.58923-5.14544 13.86789 13.86789 0 0 0-2.21774-5.02063 10.2697 10.2697 0 0 0-5.29883-3.94241 16.35 16.35 0 0 0-4.812-.67515H255.525V108.822h13.40058q7.0522.00006 10.42995-5.798zm-17.52512.401V83.13591h5.9986q4.43751 0 5.9249 2.541a14.54967 14.54967 0 0 1 1.48938 7.28543 15.96653 15.96653 0 0 1-.99427 5.929q-1.81677 4.53576-6.42 4.5337zm31.42459-8.184h15.099v-5.399h-15.099V83.24h16.449v-5.503h-22.799v31.085h23.556v-5.589h-17.206v-7.992z"/><path fill="#fcb040" d="M166.04 129.567h-6.494v31.086h22.02v-5.59H166.04v-25.496zm19.364 0h6.453v31.085h-6.453zm31.568 21.675l-12.341-21.675h-6.808v31.086h6.051v-22.059l12.656 22.059h6.494v-31.086h-6.052v21.675zm30.49628-2.58233a10.83511 10.83511 0 0 1-.757 4.67689q-1.17836 2.61463-5.10652 2.61057-3.94652 0-5.127-2.61057a10.8351 10.8351 0 0 1-.757-4.67689V129.5674h-6.6v19.10454a16.00088 16.00088 0 0 0 1.5385 7.72117q2.88466 5.05747 10.94553 5.06156 8.0649 0 10.92912-5.06156a16.053 16.053 0 0 0 1.53441-7.72117V129.5674h-6.6zM284.724 129.567h-7.508l-5.696 10.123-5.545-10.123h-7.762l9.514 15.246-9.997 15.84h7.55l6.24-10.602 5.904 10.602h7.889l-10.102-16.093 9.513-14.993z"/></svg>