<svg xmlns="http://www.w3.org/2000/svg" role="img" xmlns:xlink="http://www.w3.org/1999/xlink" viewBox="-2.17 1.33 191.10 256.10"><title>Carrier Grade Linux (CGL) logo</title><defs><path d="M35.27344-15.0586l5.6836 1.4336c-1.19141 4.66797-3.33595 8.23047-6.4297 10.67969C31.4297-.4922 27.64844.73438 23.17187.73438c-4.6289 0-8.39062-.94532-11.29296-2.82813-2.89844-1.88672-5.10547-4.61719-6.6211-8.1875-1.51172-3.57422-2.26953-7.41406-2.26953-11.51563 0-4.47265.85547-8.375 2.5625-11.70312 1.71094-3.33203 4.14063-5.85938 7.29688-7.58984C16-42.81641 19.47266-43.6797 23.26172-43.6797c4.29687 0 7.91015 1.09375 10.83984 3.28125 2.92969 2.1875 4.96875 5.26172 6.125 9.22657l-5.59765 1.3203c-.9961-3.125-2.44141-5.40234-4.33594-6.82812-1.89453-1.42578-4.27735-2.14062-7.14844-2.14062-3.30078 0-6.0586.79297-8.27734 2.375-2.21485 1.58203-3.77344 3.70703-4.67188 6.3711-.89843 2.66796-1.34765 5.41796-1.34765 8.24609 0 3.65234.53125 6.84374 1.59765 9.5664 1.0625 2.72656 2.71875 4.76172 4.96485 6.10938 2.24609 1.34765 4.67578 2.01953 7.29297 2.01953 3.18359 0 5.8828-.91406 8.08593-2.75 2.20703-1.83594 3.70313-4.5625 4.48438-8.17578zm0 0" id="a"/><path d="M24.25781-3.83594C22.3047-2.17578 20.42578-1.0078 18.6172-.3203 16.8125.36329 14.875.70313 12.80469.70313c-3.41797 0-6.04688-.83594-7.88282-2.50391-1.83593-1.67188-2.7539-3.80469-2.7539-6.40235 0-1.52343.34766-2.91406 1.03906-4.17578.69531-1.2578 1.60156-2.26953 2.72656-3.03125 1.1211-.76172 2.38672-1.33984 3.79297-1.73047 1.03516-.27343 2.59766-.53515 4.6875-.78906 4.25782-.50781 7.39063-1.11328 9.40625-1.8164.01953-.72266.02735-1.1836.02735-1.37891 0-2.14844-.4961-3.66016-1.4961-4.53906-1.34765-1.1914-3.34765-1.78907-6.0039-1.78907-2.48047 0-4.3125.4375-5.4922 1.3047-1.18359.87109-2.05859 2.40624-2.62109 4.61718l-5.15625-.70313c.46875-2.20703 1.23829-3.99218 2.3125-5.34765 1.07422-1.35938 2.625-2.40235 4.65625-3.13672 2.03125-.73047 4.38672-1.09766 7.0625-1.09766 2.65626 0 4.8125.3125 6.47657.9375 1.66015.625 2.8789 1.41016 3.66015 2.35938.78125.94531 1.32813 2.14453 1.64063 3.58984.17578.89844.26172 2.51563.26172 4.85938v7.03125c0 4.90234.11328 8.0039.33984 9.30468C29.71094-2.4375 30.15625-1.1914 30.82031 0H25.3125c-.54688-1.09375-.89844-2.375-1.05469-3.83594zm-.4375-11.78125c-1.91406.78125-4.78906 1.44532-8.61718 1.99219-2.16797.3125-3.69922.66406-4.59766 1.05469-.89844.39062-1.58985.96484-2.08203 1.71484-.48828.7539-.73047 1.58985-.73047 2.5039 0 1.40626.53125 2.57813 1.59765 3.51563 1.0625.9375 2.6211 1.40625 4.67188 1.40625 2.03125 0 3.83594-.4414 5.42188-1.33203 1.58203-.88672 2.74218-2.10547 3.48437-3.64453.5664-1.1914.85156-2.95313.85156-5.27344zm0 0" id="b"/><path d="M3.89844 0v-31.11328h4.74218v4.71484c1.21094-2.20703 2.33204-3.66015 3.35547-4.36328 1.02735-.70312 2.15235-1.05469 3.38672-1.05469 1.77735 0 3.58203.56641 5.41797 1.69922l-1.8164 4.89063c-1.28907-.76172-2.57813-1.14063-3.8672-1.14063-1.15234 0-2.1875.34766-3.10546 1.03907-.91797.6953-1.57422 1.65624-1.96485 2.88671-.58593 1.875-.875 3.92579-.875 6.15235V0zm0 0" id="c"/><path d="M3.98438-36.88281v-6.0664H9.2578v6.0664zM3.98438 0v-31.11328H9.2578V0zm0 0" id="d"/><path d="M25.2539-10.01953l5.44922.67578c-.85937 3.1836-2.45312 5.65234-4.77343 7.41016C23.60547-.1758 20.6328.70312 17.02344.70312 12.47266.70313 8.86328-.69921 6.1953-3.5c-2.66406-2.80469-4-6.73438-4-11.79297 0-5.23437 1.35156-9.29687 4.04688-12.1875 2.69531-2.89062 6.1875-4.33594 10.48437-4.33594 4.16016 0 7.5625 1.41797 10.19532 4.2461C29.55859-24.73828 30.8789-20.75 30.8789-15.6172c0 .3125-.01172.78125-.02735 1.40625H7.64844c.19531 3.41797 1.16015 6.03907 2.89844 7.85157 1.73828 1.8164 3.90625 2.72656 6.5039 2.72656 1.9336 0 3.58203-.50781 4.94922-1.52344 1.36719-1.01563 2.45313-2.63672 3.2539-4.86328zM7.9375-18.54688h17.375c-.23438-2.61718-.89844-4.57812-1.99219-5.88671-1.67968-2.03125-3.85937-3.04688-6.53125-3.04688-2.42187 0-4.46093.8086-6.10937 2.4336-1.65235 1.62109-2.5625 3.78906-2.74219 6.5zm0 0" id="e"/><path d="M24.72656-16.84375v-5.03906l18.19532-.03125v15.9375C40.1289-3.75 37.24609-2.07422 34.27734-.95312 31.3086.17188 28.26172.73438 25.13672.73438c-4.21875 0-8.05078-.90626-11.5-2.71094-3.44531-1.8086-6.05078-4.42188-7.8086-7.83594-1.7578-3.41797-2.6328-7.23828-2.6328-11.45703 0-4.17969.87109-8.08203 2.62109-11.70313 1.74609-3.625 4.26171-6.3164 7.54296-8.07422 3.28125-1.7578 7.0625-2.6328 11.33594-2.6328 3.10547 0 5.91407.5 8.42578 1.5078 2.50782 1.00391 4.47657 2.40626 5.90235 4.20313 1.42578 1.79688 2.50781 4.14063 3.25 7.03125l-5.125 1.40625c-.64453-2.1875-1.44532-3.90625-2.40235-5.15625-.95703-1.25-2.32422-2.25-4.10156-3.0039-1.77734-.75-3.75-1.12891-5.91797-1.12891-2.59765 0-4.84375.39843-6.73828 1.1875-1.89453.79297-3.42187 1.83203-4.58594 3.1211-1.16015 1.28905-2.0664 2.70702-2.70703 4.24609-1.09375 2.65624-1.64062 5.53906-1.64062 8.64453 0 3.82812.65625 7.03125 1.97656 9.60937 1.3164 2.57813 3.23438 4.49219 5.75781 5.74219 2.51953 1.25 5.19532 1.875 8.02344 1.875 2.46094 0 4.86719-.47266 7.21094-1.42188 2.34375-.9453 4.11718-1.95703 5.32812-3.03125v-7.99609zm0 0" id="f"/><path d="M24.14063 0v-3.92578c-1.97266 3.08594-4.875 4.6289-8.70313 4.6289-2.48047 0-4.75781-.68359-6.83984-2.05078C6.51953-2.71484 4.90625-4.625 3.76563-7.07422c-1.14454-2.45312-1.71485-5.26953-1.71485-8.45312 0-3.10547.51953-5.92188 1.55078-8.45313 1.03516-2.52734 2.58985-4.46484 4.66016-5.8164 2.07031-1.34766 4.38672-2.01954 6.9414-2.01954 1.875 0 3.54688.39454 5.01172 1.1875 1.46485.78907 2.65625 1.82032 3.57422 3.08985v-15.41016h5.24219V0zM7.46874-15.52734c0 3.98437.84375 6.96484 2.52344 8.93359 1.67968 1.97266 3.66015 2.96094 5.94531 2.96094 2.30469 0 4.26172-.9414 5.875-2.82813 1.60938-1.88281 2.41406-4.75781 2.41406-8.625 0-4.25781-.82031-7.38281-2.46093-9.375-1.64063-1.99218-3.66016-2.99218-6.0625-2.99218-2.34375 0-4.30079.96093-5.875 2.875-1.57032 1.91406-2.35938 4.92968-2.35938 9.05078zm0 0" id="g"/><path d="M4.39453 0v-42.94922h5.6836v37.8789h21.15234V0zm0 0" id="h"/><path d="M3.95313 0v-31.11328h4.75v4.42578c2.28515-3.41797 5.58593-5.1289 9.89843-5.1289 1.875 0 3.60157.33593 5.17188 1.01171 1.57422.67188 2.75 1.55469 3.53125 2.64844s1.32812 2.39453 1.64062 3.89844c.19532.97656.29297 2.6875.29297 5.125V0h-5.27344v-18.92578c0-2.14844-.20703-3.7539-.61328-4.82031-.41015-1.0625-1.14062-1.91407-2.1836-2.54688-1.04687-.63672-2.26952-.95312-3.67577-.95312-2.2461 0-4.1875.71484-5.8164 2.13671-1.63282 1.42579-2.44923 4.13282-2.44923 8.1172V0zm0 0" id="i"/><path d="M24.34375 0v-4.57031C21.92187-1.0547 18.63281.70313 14.47265.70313c-1.83593 0-3.55077-.35157-5.14062-1.0547C7.73828-1.05468 6.5586-1.9375 5.78516-3.0039c-.76954-1.0625-1.3125-2.36718-1.625-3.91015-.21485-1.03516-.32422-2.67578-.32422-4.92188v-19.27734h5.27343v17.2539c0 2.75391.10938 4.60938.32422 5.57032.33203 1.38672 1.03516 2.47265 2.10938 3.26562 1.07422.78906 2.40234 1.1875 3.98437 1.1875s3.06641-.40625 4.45313-1.21875c1.38672-.8086 2.36719-1.91406 2.94531-3.3086.57422-1.39843.86328-3.42577.86328-6.08202v-16.66797h5.27344V0zm0 0" id="j"/><path d="M.4375 0l11.36719-16.17188-10.51563-14.9414h6.59375l4.77344 7.29297c.89844 1.38672 1.6211 2.55078 2.16797 3.48828.85937-1.28906 1.65234-2.4336 2.3711-3.42578l5.24609-7.35547h6.30078l-10.7539 14.64844L29.5625 0h-6.47656l-6.38672-9.66797L15-12.27344 6.82812 0zm0 0" id="k"/><path d="M14.03125 12.625C11.12109 8.95312 8.66406 4.65625 6.64844-.26563 4.63672-5.1875 3.6328-10.28125 3.6328-15.55468c0-4.64843.75-9.10156 2.25781-13.35937 1.75782-4.9414 4.46875-9.86719 8.14063-14.76563h3.78125c-2.36328 4.0625-3.92578 6.96094-4.6875 8.69922-1.1914 2.69531-2.1289 5.50781-2.8125 8.4375-.83984 3.65235-1.25781 7.32422-1.25781 11.01563 0 9.39453 2.91797 18.77734 8.75781 28.15234zm0 0" id="l"/><path d="M7.41406 12.625H3.63281c5.83985-9.375 8.75782-18.75781 8.75782-28.15234 0-3.67188-.41797-7.31641-1.25782-10.92578-.66406-2.9297-1.59375-5.7422-2.78125-8.4375-.76172-1.75782-2.33593-4.6875-4.71875-8.78907h3.78125c3.67188 4.90235 6.38281 9.82032 8.14063 14.76563 1.5039 4.25781 2.25781 8.71093 2.25781 13.35937 0 5.27344-1.01172 10.36719-3.03125 15.28907-2.02344 4.92187-4.47656 9.21875-7.36719 12.89062zm0 0" id="m"/></defs><use y="50" xlink:href="#a"/><use x="43.33" y="50" xlink:href="#b"/><use x="76.699" y="50" xlink:href="#c"/><use x="96.68" y="50" xlink:href="#c"/><use x="116.66" y="50" xlink:href="#d"/><use x="129.99" y="50" xlink:href="#e"/><use x="163.359" y="50" xlink:href="#c"/><g><use y="120" xlink:href="#f"/><use x="46.67" y="120" xlink:href="#c"/><use x="66.65" y="120" xlink:href="#b"/><use x="100.02" y="120" xlink:href="#g"/><use x="133.389" y="120" xlink:href="#e"/></g><g><use y="180" xlink:href="#h"/><use x="33.369" y="180" xlink:href="#d"/><use x="46.699" y="180" xlink:href="#i"/><use x="80.068" y="180" xlink:href="#j"/><use x="113.438" y="180" xlink:href="#k"/></g><g><use y="240" xlink:href="#l"/><use x="19.98" y="240" xlink:href="#a"/><use x="63.311" y="240" xlink:href="#f"/><use x="109.98" y="240" xlink:href="#h"/><use x="143.35" y="240" xlink:href="#m"/></g></svg>