<svg xmlns="http://www.w3.org/2000/svg" role="img" viewBox="1.63 35.63 331.50 75.50"><title>CAST logo</title><path d="M9 42h1v1H9zm15 0h1v1h-1zm1 0h1v1h-1zm16 0h2v1h-2zm2 0h1v1h-1zm15 0h9v1h-9zm9 0h1v1h-1zm12 0h22v1H79zm22 0h1v1h-1zm16 0h34v1h-34zm34 0h1v1h-1zm18 0h156v1H169zm156 0h1v1h-1zm-171 1h1v1h-1zm13 1h1v34h-1zm35 10h1v1h-1zm91 0h1v1h-1zm10 1h1v1h-1zm-99 1h1v1h-1zm-5 1h1v1h-1zm100 1h1v1h-1zm-34 1h1v1h-1zm2 1h1v1h-1zm28 1h1v1h-1zm-100 2h1v1h-1zm66 3h1v1h-1zm-37 1h1v1h-1zm14 0h1v1h-1zm-71 11h1v1h-1zm-13 1h1v1h-1zM30 89h1v1h-1zm55 0h1v1h-1zm101 0h1v1h-1zm28 0h1v1h-1zm53 0h1v1h-1zM87 90h1v8h-1zm32 0h1v1h-1zm104 1h1v1h-1zm0 1h1v1h-1zm13 0h1v1h-1zm9 0h1v1h-1zm-141 1h1v1h-1zm107 0h1v1h-1zm8 0h1v1h-1zm15 0h1v1h-1zm57 0h1v1h-1zM14 94h1v1h-1zm123 0h1v1h-1zm21 0h1v1h-1zm58 0h1v1h-1zm9 0h1v1h-1zm9 0h1v2h-1zm20 0h1v1h-1zM24 95h1v1h-1zm34 0h1v1h-1zm17 0h1v1h-1zm59 0h1v1h-1zm50 0h1v1h-1zm90 0h1v1h-1zm13 0h1v1h-1zm-121 1h1v1h-1zm34 0h1v1h-1zm34 0h1v3h-1zm82 0h1v1h-1zm-185 1h1v1h-1zm29 0h1v1h-1zm33 0h1v1h-1zm50 0h1v1h-1zm3 0h1v1h-1zM18 98h1v1h-1zm28 0h1v1h-1zm41 0h1v1h-1zm25 0h1v1h-1zm85 0h1v2h-1zm71 0h1v1h-1zM99 99h1v1h-1zm20 0h1v1h-1zm81 0h1v1h-1zm26 0h1v1h-1zm8 0h1v1h-1zm-209 1h1v1h-1zm109 0h1v1h-1zm6 0h1v1h-1zm57 0h1v1h-1zm68 0h1v1h-1zm11 0h1v1h-1zm-264 1h1v1h-1zm45 0h1v1h-1zm17 0h1v1h-1zm88 0h1v1h-1zm9 0h1v1h-1zm20 0h1v1h-1zm58 0h1v1h-1zm30 0h1v1h-1zm18 0h1v1h-1z" fill="#dfe0e0"/><path d="M11 42h1v1h-1zm11 0h1v1h-1zm24 0h1v1h-1zm23 0h1v1h-1zm45 0h1v1h-1zm83 13h1v1h-1zm72 1h1v1h-1zm1 0h1v1h-1zm26 1h1v1h-1zm-32 1h1v1h-1zm0 1h1v1h-1zm32 1h1v1h-1zm-104 1h1v4h-1zm36 0h1v1h-1zm34 0h1v1h-1zm34 0h1v1h-1zm-32 1h1v1h-1zm2 1h1v1h-1zm32 0h1v1h-1zm-69 1h1v1h-1zm-37 1h1v1h-1zm45 0h1v1h-1zm60 0h1v1h-1zm-27 1h1v1h-1zm27 0h1v1h-1zm-100 1h1v1h-1zm4 0h1v1h-1zm34 0h1v1h-1zm-11 1h1v1h-1zm36 0h1v1h-1zM8 80h1v1H8zm15 0h1v1h-1zm3 0h1v1h-1zm14 0h1v1h-1zm5 0h1v1h-1zm33 0h1v1h-1zm37 0h1v1h-1zm39 0h1v1h-1zm172 0h1v1h-1zM15 89h1v1h-1zm14 0h1v1h-1zm8 0h1v1h-1zm77 0h1v4h-1zm121 0h1v2h-1zm6 0h1v1h-1zm14 0h1v4h-1zm13 0h1v1h-1zm31 0h1v1h-1zM38 90h1v1h-1zm143 0h1v1h-1zm43 0h1v1h-1zm40 0h1v10h-1zM17 91h1v1h-1zm4 0h1v1h-1zm38 0h1v1h-1zm10 0h1v1h-1zm4 0h2v1h-2zm2 0h1v1h-1zm18 0h2v1h-2zm2 0h1v1h-1zm15 0h1v1h-1zm17 0h1v1h-1zm4 0h2v1h-2zm2 0h1v1h-1zm9 0h1v1h-1zm10 0h2v1h-2zm2 0h1v1h-1zm16 0h2v1h-2zm2 0h1v1h-1zm18 0h2v1h-2zm2 0h1v1h-1zm9 0h1v1h-1zm27 0h1v1h-1zm7 0h1v1h-1zm9 0h1v1h-1zm5 0h2v1h-2zm2 0h1v1h-1zm45 0h1v1h-1zm11 0h1v1h-1zm15 0h1v1h-1zm1 0h1v1h-1zM27 92h1v1h-1zm27 0h1v1h-1zm17 0h1v1h-1zm41 0h2v1h-2zm15 0h1v2h-1zm32 0h1v1h-1zm67 0h1v1h-1zm94 0h1v1h-1zM18 93h1v1h-1zm52 0h1v1h-1zm35 0h1v1h-1zm9 0h1v1h-1zm44 0h1v1h-1zm29 0h1v1h-1zm68 0h1v1h-1zm38 0h1v1h-1zm-166 1h1v1h-1zm30 0h1v1h-1zm135 0h1v1h-1zm20 0h1v1h-1zM17 95h1v1h-1zm4 0h1v2h-1zm13 0h1v1h-1zm19 0h1v1h-1zm49 0h2v1h-2zm68 0h1v1h-1zm11 0h1v1h-1zm104 0h1v1h-1zm7 0h1v1h-1zm27 0h1v1h-1zm5 0h1v1h-1zm-80 1h2v1h-2zm2 0h1v1h-1zM21 97h1v1h-1zm20 0h1v1h-1zm124 0h1v1h-1zm59 0h1v3h-1zm59 0h1v1h-1zm20 0h1v1h-1zM17 98h1v1h-1zm41 0h1v1h-1zm69 0h1v2h-1zm11 0h1v1h-1zm58 0h1v1h-1zm23 0h1v1h-1zm1 0h1v2h-1zm30 0h1v1h-1zm37 0h1v1h-1zm1 0h1v1h-1zm4 0h1v1h-1zm-135 1h1v1h-1zm9 0h1v1h-1zm-67 1h1v1h-1zm7 0h1v1h-1zm21 0h2v1h-2zm2 0h1v1h-1zm4 0h1v1h-1zm24 0h1v1h-1zm63 0h1v1h-1zm4 0h1v1h-1zm40 0h1v1h-1zM9 101h1v1H9zm6 0h1v1h-1zm47 0h1v1h-1zm22 0h1v1h-1zm3 0h1v1h-1zm13 0h1v1h-1zm4 0h1v1h-1zm8 0h1v1h-1zm7 0h1v1h-1zm3 0h1v1h-1zm18 0h1v1h-1zm28 0h1v1h-1zm16 0h1v1h-1zm13 0h1v1h-1zm3 0h1v1h-1zm8 0h1v1h-1zm57 0h1v1h-1zm11 0h1v1h-1zm23 0h1v1h-1zm6 0h1v1h-1zm8 0h1v1h-1zm3 0h1v1h-1zm9 0h1v1h-1zm-197 2h1v1h-1zm97 0h1v1h-1z" fill="#fcfcfc"/><path d="M68 43h1v1h-1zm85 0h1v1h-1zm173 1h1v1h-1zm-32 9h1v1h-1zm-56 10h1v1h-1zm-9 4h1v1h-1zm1 0h2v1h-2zm2 0h1v1h-1zm-37 3h1v1h-1zm40 0h1v1h-1zM45 77h1v1h-1zm0 1h1v1h-1zm281 0h1v1h-1zm-173 1h1v1h-1zm62 11h1v1h-1zm-33 1h1v1h-1zm118 1h1v1h-1zM20 93h1v2h-1zm305 0h1v1h-1zM35 94h1v1h-1zm6 0h1v1h-1zm-21 1h1v1h-1zm147 0h1v1h-1zm50 0h1v1h-1zm103 0h1v1h-1zm-138 1h1v1h-1zm142 0h1v1h-1zm-142 1h1v1h-1zm5 0h1v1h-1zm136 0h1v1h-1zM91 98h1v1h-1zm137 0h1v1h-1zM23 99h1v1h-1zm101 0h1v1h-1zm18 0h1v1h-1zm149 0h1v1h-1zm-14 1h1v1h-1zm44 0h1v1h-1z" fill="#898989"/><g fill="#7e7f7f"><path d="M265 53h1v1h-1zm30 0h6v1h-6zm6 0h1v1h-1zm-29 1h1v1h-1zm-67 2h1v1h-1zm-6 2h1v1h-1zm100 4h1v1h-1zm-5 1h1v1h-1zm-1 6h1v1h-1zm-125 8h1v1h-1zm98 13h1v1h-1zM10 92h1v1h-1zm171 1h1v1h-1zM19 94h1v1h-1zm87 0h1v1h-1zm171 0h1v1h-1zm-166 1h1v1h-1zm-50 1h1v1h-1zm49 0h1v1h-1zm77 0h1v1h-1zm117 0h1v1h-1zm3 0h1v1h-1zm4 0h1v1h-1zm-181 1h1v2h-1zm28 0h1v1h-1zm60 0h1v1h-1z"/><path d="M129 98h2v1h-2zm2 0h1v1h-1zm102 0h1v1h-1zM91 99h1v1h-1zm39 0h1v1h-1zm114 0h1v1h-1zm-61 1h1v1h-1z"/></g><path d="M229 54h1v1h-1zm-1 2h1v1h-1zm9 0h1v1h-1zm-46 2h1v1h-1zm113 0h1v1h-1zm-105 1h1v1h-1zm33 3h1v1h-1zm26 5h1v1h-1zm14 0h1v1h-1zm-80 2h1v1h-1zm12 0h1v1h-1zm54 1h1v1h-1zm-37 1h1v1h-1zm3 0h1v1h-1zm1 0h1v1h-1zm14 0h1v1h-1zm55 0h1v1h-1zm1 0h1v1h-1zm-73 19h1v1h-1zm15 0h1v1h-1zm4 3h1v1h-1zm1 0h1v1h-1zM42 94h1v1h-1zm4 1h1v1h-1zm25 0h1v1h-1zm58 0h1v1h-1zm97 0h1v1h-1zM36 97h1v2h-1zm103 0h1v1h-1zm-84 1h1v1h-1zm-19 1h1v1h-1zm174 0h1v1h-1zm5 0h1v1h-1zm72 1h1v1h-1z" fill="#0f1010"/><path d="M193 56h1v1h-1zm76 2h1v1h-1zm1 0h1v1h-1zm-38 5h1v1h-1zm-42 2h1v1h-1zm109 0h1v1h-1zm-108 2h1v1h-1zm10 4h1v1h-1zm-18 20h1v1h-1zm27 1h1v2h-1zM95 93h1v1h-1zm7 0h1v1h-1zm8 0h1v1h-1zm42 0h1v1h-1zm18 0h2v1h-2zm2 0h1v1h-1zm71 0h1v1h-1zm34 0h1v1h-1zm3 0h1v1h-1zm37 0h1v1h-1zm-217 1h1v1h-1zm110 0h1v3h-1zm17 0h1v1h-1zm54 0h1v1h-1zm29 0h1v1h-1zm-136 1h1v1h-1zm20 0h1v1h-1zm-88 1h1v1h-1zm89 0h1v1h-1zm55 0h1v1h-1zM19 97h1v1h-1zm87 0h1v1h-1zm104 0h1v1h-1zm22 0h1v1h-1zm69 0h1v1h-1zm-85 1h1v1h-1zm1 0h1v1h-1zM21 99h1v1h-1zm104 0h1v1h-1zm58 0h1v1h-1zm60 0h1v1h-1zm67 0h1v1h-1zm-273 1h1v1h-1zm105 0h2v1h-2zm2 0h1v1h-1zm69 0h1v1h-1zm37 0h1v1h-1zm57 0h1v1h-1zm15 0h1v1h-1z" fill="#373838"/><path d="M68 44h1v1h-1zm85 0h1v1h-1zm78 9h1v1h-1zm-35 1h1v1h-1zm108 0h1v1h-1zm-102 4h1v1h-1zm-11 2h1v1h-1zm5 1h1v1h-1zm42 1h1v1h-1zm23 0h1v1h-1zm33 0h1v1h-1zm-29 2h1v1h-1zm7 0h1v1h-1zm-49 3h1v1h-1zm-31 1h1v1h-1zm36 0h1v1h-1zm-35 1h1v1h-1zm10 0h1v1h-1zm19 1h1v1h-1zm-69 8h1v1h-1zM24 79h1v1h-1zm19 0h1v1h-1zm15 0h8v1h-8zm8 0h1v1h-1zm14 0h19v1H80zm19 0h2v1h-2zm2 0h1v1h-1zm16 0h34v1h-34zm34 0h1v1h-1zm19 0h155v1H170zm155 0h1v1h-1zM210 90h1v1h-1zm4 0h1v1h-1zm-93 1h1v8h-1zm-75 2h1v1h-1zm14 0h1v1h-1zm31 0h1v1h-1zm1 0h1v1h-1zm41 0h1v1h-1zm10 0h1v1h-1zm46 0h1v1h-1zM52 94h1v1h-1zm20 0h1v1h-1zm62 0h2v1h-2zm97 0h1v1h-1zm10 0h1v1h-1zM25 95h1v1h-1zm227 0h1v2h-1zm24 0h1v1h-1zm-88 1h1v1h-1zm44 0h1v1h-1zm1 0h1v1h-1zM16 97h1v1h-1zm28 0h1v1h-1zm154 0h1v1h-1zm54 0h1v1h-1zM45 98h1v1h-1zm153 0h1v1h-1zm69 0h1v1h-1zM38 99h1v1h-1zm47 0h1v1h-1zm36 0h1v1h-1zm12 0h1v1h-1zm26 0h2v1h-2zm2 0h1v1h-1zm38 0h1v1h-1zm52 0h1v1h-1zm73 0h1v1h-1zm-266 1h1v1h-1zm38 0h1v1h-1zm5 0h1v1h-1zm109 0h1v1h-1zm38 0h1v1h-1zm76 0h1v1h-1zm-193 2h2v1h-2zm2 0h1v1h-1zm95 0h2v1h-2zm2 0h1v1h-1z" fill="#666"/><path d="M8 42h1v1H8zm15 0h1v1h-1zm17 0h1v1h-1zm38 0h1v1h-1zm37 0h1v1h-1zm211 0h1v1h-1zM46 43h1v1h-1zm154 11h1v1h-1zm69 0h1v1h-1zm-74 2h1v1h-1zm36 4h1v1h-1zm38 1h1v1h-1zm-39 1h1v1h-1zm35 1h1v1h-1zm33 1h1v1h-1zm-100 3h2v1h-2zm2 0h1v1h-1zm38 1h1v1h-1zm31 0h1v1h-1zm25 0h1v1h-1zM119 89h1v1h-1zm63 0h1v1h-1zm26 1h1v2h-1zm60 0h1v6h-1zM8 91h1v1H8zm25 0h1v1h-1zm69 0h1v1h-1zm116 0h1v1h-1zM16 92h1v1h-1zm9 0h1v1h-1zm15 0h1v1h-1zm56 0h1v1h-1zm8 0h1v1h-1zm33 0h1v1h-1zm60 0h1v1h-1zm3 0h1v1h-1zm8 0h1v1h-1zm26 0h1v1h-1zm42 0h1v1h-1zm34 0h1v1h-1zM12 93h1v1h-1zm38 0h1v1h-1zm13 0h1v1h-1zm83 0h1v1h-1zm93 0h1v1h-1zM18 94h1v1h-1zm51 0h1v1h-1zm36 0h1v1h-1zm188 0h1v1h-1zm20 0h1v1h-1zM73 95h1v1h-1zm1 0h1v1h-1zm18 0h1v1h-1zm16 0h2v1h-2zm2 0h1v1h-1zm32 0h1v1h-1zm5 0h1v1h-1zm101 0h1v1h-1zm31 0h1v1h-1zm38 0h1v1h-1zm-215 1h1v1h-1zm55 0h1v1h-1zm3 0h1v1h-1zm21 0h1v3h-1zm87 0h1v1h-1zm-111 1h1v1h-1zm164 0h1v1h-1zm-179 1h1v1h-1zm4 0h1v1h-1zm66 0h1v1h-1zm1 0h1v1h-1zm57 0h2v1h-2zm2 0h1v1h-1zm41 0h1v2h-1zm10 0h1v1h-1zM70 99h1v1h-1zm81 0h2v1h-2zm7 0h1v1h-1zm23 0h1v1h-1zm59 0h1v1h-1zm-178 1h1v1h-1zm60 0h1v1h-1zm52 0h1v1h-1zm20 0h1v1h-1zm14 0h1v1h-1zm76 0h1v1h-1zm27 0h2v1h-2zm2 0h1v1h-1zm3 0h1v1h-1zm-295 1h1v1h-1zm3 0h1v1h-1zm6 0h1v1h-1zm14 0h1v1h-1zm5 0h1v1h-1zm9 0h3v1h-3zm3 0h1v1h-1zm4 0h1v1h-1zm21 0h1v1h-1zm4 0h1v1h-1zm6 0h1v1h-1zm5 0h2v1h-2zm2 0h1v1h-1zm5 0h1v1h-1zm3 0h1v1h-1zm5 0h1v1h-1zm4 0h1v1h-1zm5 0h1v1h-1zm19 0h1v1h-1zm5 0h1v1h-1zm6 0h1v1h-1zm28 0h1v1h-1zm7 0h1v1h-1zm8 0h1v1h-1zm12 0h3v1h-3zm3 0h1v1h-1zm9 0h1v1h-1zm15 0h1v1h-1zm11 0h1v1h-1zm5 0h1v1h-1zm4 0h1v1h-1zm9 0h6v1h-6zm6 0h1v1h-1zm8 0h1v1h-1zm8 0h2v1h-2zm2 0h1v1h-1zm6 0h1v1h-1zm5 0h1v1h-1zm13 0h1v1h-1zm10 0h1v1h-1z" fill="#efefef"/><path d="M9 43h1v1H9zm33 0h1v1h-1zm1 0h1v1h-1zm16 0h8v1h-8zm8 0h1v1h-1zm13 0h20v1H80zm20 0h1v1h-1zm17 0h34v1h-34zm34 0h1v1h-1zm18 0h156v1H169zm156 0h1v1h-1zm-21 13h1v1h-1zm-99 1h1v1h-1zm89 3h1v1h-1zm-34 1h1v1h-1zm11 0h1v1h-1zm-75 1h1v1h-1zm0 1h1v1h-1zm35 0h1v1h-1zm62 3h1v1h-1zm-35 2h1v1h-1zm35 2h1v1h-1zM11 90h1v1h-1zm-2 2h1v1H9zm257 0h1v7h-1zM38 93h1v1h-1zm4 0h1v1h-1zm15 0h1v1h-1zm8 0h1v1h-1zm3 0h1v1h-1zm4 0h1v1h-1zm1 0h1v1h-1zm52 0h1v1h-1zm17 0h1v1h-1zm7 0h1v2h-1zm20 0h1v1h-1zm139 0h1v1h-1zM96 94h1v1h-1zm39 1h1v1h-1zm14 0h1v1h-1zm83 0h1v1h-1zm-132 1h1v2h-1zm45 0h1v1h-1zm38 0h1v1h-1zm98 0h1v1h-1zm-98 1h1v1h-1zm70 0h1v2h-1zm23 0h1v1h-1zm39 0h1v1h-1zM43 98h1v1h-1zm17 0h1v1h-1zm40 0h1v1h-1zm215 0h1v1h-1zM9 99h2v1H9zm2 0h1v1h-1zm75 0h1v1h-1zm4 0h1v1h-1zm54 0h1v1h-1zm88 0h1v1h-1zm21 0h1v1h-1zm13 0h2v1h-2zm2 0h1v1h-1zm3 0h1v1h-1zm10 0h1v1h-1zm-251 1h1v1h-1zm181 0h1v1h-1zm26 0h1v1h-1z" fill="#515151"/><path d="M23 43h1v1h-1zm55 0h1v1h-1zM8 45h1v32H8zm189 9h1v1h-1zm95 1h1v1h-1zm-89 3h1v1h-1zm92 0h1v1h-1zm-58 2h1v1h-1zm62 0h1v1h-1zm-29 1h1v1h-1zm-37 2h1v1h-1zm-42 2h1v1h-1zm75 1h1v1h-1zm-43 2h1v1h-1zm16 1h1v1h-1zM8 77h1v1H8zm2 2h1v1h-1zm47 0h1v1h-1zm45 0h1v1h-1zm13 0h1v1h-1zm211 0h1v1h-1zM120 89h1v1h-1zm62 1h1v1h-1zm41 0h1v1h-1zm33 0h1v1h-1zM38 92h1v1h-1zm21 0h1v1h-1zm14 0h2v1h-2zm2 0h1v1h-1zm42 0h1v5h-1zm14 0h1v1h-1zm30 0h1v1h-1zm31 0h1v1h-1zm23 0h1v1h-1zm13 0h1v1h-1zm68 0h2v1h-2zm2 0h1v1h-1zM28 93h1v1h-1zm166 0h1v1h-1zm22 0h1v1h-1zm20 0h1v1h-1zM26 94h1v1h-1zm30 0h1v1h-1zm37 0h1v1h-1zm9 0h1v1h-1zm6 0h1v1h-1zm44 0h1v1h-1zm96 0h1v1h-1zm27 0h1v1h-1zm11 0h1v1h-1zm25 0h1v1h-1zm11 0h2v1h-2zm2 0h1v1h-1zM31 95h1v1h-1zm14 0h1v1h-1zm70 0h2v1h-2zm13 0h1v1h-1zm61 0h1v1h-1zm34 0h1v2h-1zm4 0h1v1h-1zM55 96h1v1h-1zm60 0h2v1h-2zm39 0h1v1h-1zM20 97h1v1h-1zm90 0h1v1h-1zm5 0h2v1h-2zm2 0h1v1h-1zm26 0h1v1h-1zm80 0h1v1h-1zm26 0h1v1h-1zm30 0h1v2h-1zM10 98h1v1h-1zm205 0h1v1h-1zm91 0h1v1h-1zm20 0h1v1h-1zM39 99h1v1h-1zm199 0h1v1h-1zm41 0h1v1h-1zm44 0h1v1h-1zm-284 1h1v1h-1zm25 0h1v1h-1zm60 0h1v1h-1zm65 0h1v1h-1zm20 0h1v1h-1zm64 0h1v1h-1zm37 0h1v1h-1zm-177 3h1v1h-1z" fill="#b1b1b1"/><path d="M24 43h1v1h-1zm34 0h1v1h-1zm43 0h1v1h-1zm104 11h1v1h-1zm25 0h1v1h-1zm37 5h1v1h-1zm33 0h1v1h-1zm-75 4h1v1h-1zM44 79h1v1h-1zm168 11h1v1h-1zm1 0h1v1h-1zm-112 2h1v1h-1zM9 93h1v1H9zm49 0h1v1h-1zm41 0h1v1h-1zm92 0h2v1h-2zm2 0h1v1h-1zm34 0h1v1h-1zm52 0h1v1h-1zm21 0h1v1h-1zM90 94h1v2h-1zm-79 1h1v1h-1zm15 0h1v1h-1zm157 0h1v1h-1zM76 96h1v1h-1zm14 0h1v2h-1zm104 0h1v1h-1zm94 0h1v1h-1zM48 97h1v1h-1zm140 0h1v1h-1zm7 0h1v1h-1zM90 98h1v1h-1zm16 0h1v1h-1zm189 0h1v1h-1zm-101 1h1v1h-1zm76 0h1v1h-1zm10 0h1v1h-1zm-236 1h1v1h-1zm178 0h1v1h-1zm10 0h1v1h-1z" fill="#555"/><path d="M41 43h1v1h-1zm220 13h1v1h-1zm11 0h1v1h-1zm-12 2h1v1h-1zm6 0h1v1h-1zm-35 4h1v1h-1zm68 1h1v1h-1zm-36 3h2v1h-2zm2 0h1v1h-1zm28 1h1v1h-1zm-25 3h1v1h-1zM68 78h1v1h-1zM9 79h1v1H9zm16 0h1v1h-1zm17 0h1v1h-1zm25 0h1v1h-1zm12 0h1v1h-1zm37 0h1v1h-1zm53 0h1v1h-1zm-48 11h1v1h-1zm-36 1h1v1h-1zm156 1h1v1h-1zM10 93h1v1h-1zm41 0h1v1h-1zm23 0h1v1h-1zm16 0h1v1h-1zm21 0h1v1h-1zm133 0h1v1h-1zm6 0h1v1h-1zm71 0h1v1h-1zM67 94h1v1h-1zm34 0h1v1h-1zm28 0h1v1h-1zm170 0h1v1h-1zM76 95h1v1h-1zm15 0h1v1h-1zm184 0h1v1h-1zm25 0h1v1h-1zM48 96h1v1h-1zm59 0h1v1h-1zm4 0h1v1h-1zm63 0h1v1h-1zm74 0h1v1h-1zm5 0h1v1h-1zM49 97h1v1h-1zm16 0h1v1h-1zm69 1h1v1h-1zm97 0h1v1h-1zm-33 1h1v1h-1zm14 0h1v1h-1zm-191 1h1v1h-1zm28 0h1v1h-1zm54 0h1v1h-1zm13 0h1v1h-1zm98 0h1v1h-1zm30 0h1v1h-1zm23 0h1v1h-1zm47 0h1v1h-1z" fill="#5f5f5f"/><path d="M10 44h1v33h-1zm105 0h1v1h-1zm-58 1h1v32h-1zm269 0h1v31h-1zm-57 8h1v1h-1zm-76 4h1v1h-1zm68 0h1v1h-1zm-64 2h1v1h-1zm41 5h1v1h-1zm56 0h1v1h-1zm-91 3h1v1h-1zm36 1h1v1h-1zm59 0h1v1h-1zm-72 2h1v1h-1zm71 0h1v1h-1zm29 6h1v1h-1zM10 77h1v1h-1zm13 0h1v1h-1zm34 0h1v1h-1zm45 0h1v1h-1zm13 0h1v1h-1zm53 2h1v1h-1zm-53 11h1v1h-1zm127 0h1v1h-1zm16 0h1v1h-1zM12 91h1v1h-1zm10 1h1v1h-1zm77 0h1v1h-1zm3 0h1v1h-1zm7 0h1v1h-1zm23 0h1v1h-1zm11 0h1v1h-1zm19 0h1v1h-1zm9 0h1v1h-1zm20 0h1v1h-1zm38 0h1v1h-1zm50 0h1v1h-1zm29 0h1v1h-1zm-168 1h1v1h-1zm33 0h1v1h-1zM9 94h1v1H9zm3 0h1v1h-1zm49 0h1v1h-1zm3 0h1v1h-1zm67 0h1v1h-1zm22 0h1v1h-1zm98 0h1v1h-1zM10 95h1v1h-1zm54 0h1v1h-1zm94 0h1v1h-1zm29 0h1v1h-1zm102 0h1v1h-1zM42 97h1v1h-1zm30 0h1v1h-1zm234 0h1v1h-1zm-76 1h1v1h-1zm-120 1h1v1h-1zm24 0h1v1h-1zm20 0h1v1h-1zm8 0h1v1h-1zm61 0h1v1h-1zm35 0h1v1h-1zm26 0h1v1h-1zm-274 1h1v1h-1zm51 0h1v1h-1zm103 0h1v1h-1zm5 0h1v1h-1zm24 0h1v1h-1zm58 0h1v1h-1zm-122 1h1v1h-1zm7 0h1v1h-1zm91 0h1v1h-1zm-92 1h1v1h-1z" fill="#9b9b9b"/><path d="M237 57h1v1h-1zm57 4h1v1h-1zm-22 2h1v1h-1zm-76 1h1v1h-1zm1 1h1v1h-1zm69 0h1v1h-1zm-4 6h1v1h-1zm4 0h1v1h-1zm-114 8h1v1h-1zm59 11h1v1h-1zm56 1h1v1h-1zM86 92h1v6h-1zm23 1h1v1h-1zm21 0h2v1h-2zm2 0h1v1h-1zm28 0h1v1h-1zm69 0h1v1h-1zm49 0h1v1h-1zm9 0h1v1h-1zm28 0h1v1h-1zm7 0h1v1h-1zm-158 1h1v1h-1zm18 0h1v1h-1zm6 0h1v1h-1zm-88 1h1v1h-1zm39 0h1v1h-1zM14 96h1v1h-1zm185 0h1v1h-1zM56 97h1v1h-1zm9 1h1v1h-1zm21 0h1v1h-1zm190 0h1v1h-1zM50 99h1v1h-1zm9 0h1v1h-1zm104 0h1v1h-1zm106 0h1v1h-1zm56 0h1v1h-1zm-217 1h1v1h-1zm27 0h1v1h-1zm122 0h1v1h-1zm23 0h1v1h-1zm16 0h1v1h-1zm-162 2h1v1h-1z" fill="#595959"/><path d="M40 43h1v1h-1zm224 11h1v1h-1zm7 0h1v2h-1zm-35 2h1v1h-1zm35 0h1v1h-1zm21 0h1v1h-1zm-91 1h1v1h-1zm28 0h1v1h-1zm40 0h1v1h-1zm1 0h1v1h-1zm24 0h1v1h-1zm-102 2h1v1h-1zm36 0h1v1h-1zm33 2h1v1h-1zm-29 3h1v1h-1zm-36 1h1v1h-1zm66 1h1v1h-1zm-3 2h1v1h-1zm-65 1h1v1h-1zM8 79h1v1H8zm292 10h1v1h-1zm-59 1h1v1h-1zM32 92h1v2h-1zm58 0h1v1h-1zm5 0h1v1h-1zm38 0h1v1h-1zm16 0h1v1h-1zm53 0h1v2h-1zm30 0h1v1h-1zm8 0h1v1h-1zm8 0h1v1h-1zm41 0h1v1h-1zm28 0h1v1h-1zM71 93h1v1h-1zm55 0h1v4h-1zm3 0h1v1h-1zm30 0h1v1h-1zm67 0h1v1h-1zm19 0h2v1h-2zm2 0h1v1h-1zM32 94h1v1h-1zm11 0h1v1h-1zm12 0h1v1h-1zm18 0h1v1h-1zm66 0h1v1h-1zm7 0h1v1h-1zm16 0h1v1h-1zm19 0h1v1h-1zm21 0h1v1h-1zm42 0h1v1h-1zm5 0h1v1h-1zm39 0h1v1h-1zm9 0h1v1h-1zm1 0h1v1h-1zm6 0h1v1h-1zM29 95h1v1h-1zm23 0h1v1h-1zm45 0h1v1h-1zm183 0h1v1h-1zM37 96h1v1h-1zm12 0h1v1h-1zm-31 1h1v1h-1zm19 0h1v1h-1zm17 0h1v1h-1zm3 0h1v1h-1zm19 0h1v1h-1zm1 0h1v1h-1zm34 0h1v1h-1zm15 0h2v1h-2zm2 0h1v1h-1zm6 0h1v1h-1zm11 0h1v1h-1zm28 0h1v1h-1zm1 0h1v1h-1zm107 0h1v1h-1zm29 0h1v1h-1zm12 0h1v1h-1zM14 98h1v1h-1zm10 0h1v1h-1zm18 0h1v1h-1zm24 0h1v1h-1zm75 0h1v1h-1zm77 0h1v1h-1zm59 0h1v1h-1zm9 0h1v1h-1zM97 99h1v1h-1zm59 0h1v1h-1zm94 0h1v1h-1zm-195 1h1v1h-1zm62 0h1v1h-1zm104 0h1v1h-1z" fill="#c1c1c1"/><path d="M9 44h1v34H9zm15 0h1v1h-1zm1 0h1v1h-1zm17 0h2v1h-2zm2 0h1v34h-1zm15 0h8v1h-8zm8 0h1v34h-1zm12 0h21v1H79zm21 0h1v34h-1zm16 0h36v1h-36zm36 0h1v34h-1zm18 0h155v1H170zm155 0h1v1h-1zM42 45h2v1h-2zm17 0h1v33h-1zm20 0h1v33h-1zm37 0h1v33h-1zm-74 1h2v1h-2zm0 1h2v1h-2zm0 1h2v1h-2zm0 1h2v1h-2zm0 1h2v1h-2zm0 1h2v1h-2zm0 1h2v1h-2zm156 0h5v1h-5zm5 0h1v1h-1zm28 0h5v1h-5zm5 0h1v1h-1zm28 0h7v1h-7zm7 0h1v1h-1zm21 0h12v1h-12zm12 0h1v1h-1zM42 53h2v1h-2zm154 0h1v1h-1zm1 0h1v1h-1zm7 0h1v1h-1zm1 0h1v1h-1zm25 0h1v1h-1zm7 0h1v2h-1zm26 0h1v1h-1zm9 0h1v1h-1zm19 0h1v1h-1zm14 0h1v4h-1zM42 54h2v1h-2zm152 0h1v1h-1zm1 0h1v1h-1zm11 0h1v4h-1zm55 0h1v1h-1zm1 0h1v1h-1zm11 0h1v2h-1zm18 0h1v1h-1zM42 55h2v1h-2zm151 0h1v1h-1zm35 0h1v1h-1zm9 0h1v1h-1zm23 0h1v1h-1zm30 0h1v2h-1zM42 56h2v1h-2zm150 0h1v1h-1zm46 0h1v4h-1zm22 0h1v1h-1zm13 0h1v1h-1zM42 57h2v1h-2zm149 0h1v1h-1zm36 0h1v1h-1zm32 0h1v4h-1zm13 0h1v1h-1zm18 0h1v1h-1zm15 0h1v1h-1zM42 58h2v1h-2zm164 0h1v1h-1zM42 59h2v1h-2zm148 0h1v1h-1zm10 0h1v1h-1zm1 0h1v1h-1zm25 0h1v1h-1zm43 0h2v1h-2zm2 0h1v1h-1zm21 0h1v1h-1zm1 0h1v4h-1zm8 0h2v1h-2zm2 0h1v1h-1zM42 60h2v1h-2zm148 0h1v1h-1zm8 0h1v1h-1zm5 0h1v1h-1zm1 0h1v1h-1zm22 0h1v1h-1zm12 0h1v1h-1zm63 0h1v1h-1zM42 61h2v1h-2zm147 0h1v4h-1zm8 0h1v3h-1zm28 0h1v1h-1zm14 0h1v3h-1zm20 0h1v1h-1zm42 0h1v1h-1zM42 62h2v1h-2zm182 0h1v1h-1zm49 0h1v4h-1zM42 63h2v1h-2zm182 0h1v1h-1zm36 0h1v1h-1zm33 0h1v1h-1zm7 0h1v5h-1zM42 64h2v1h-2zm155 0h6v1h-6zm6 0h1v1h-1zm20 0h1v1h-1zm16 0h1v1h-1zm21 0h2v1h-2zm2 0h1v1h-1zm30 0h1v6h-1zM42 65h2v1h-2zm147 0h1v1h-1zm34 0h1v1h-1zm17 0h1v1h-1zm19 0h1v1h-1zm4 0h2v1h-2zm2 0h1v1h-1zM42 66h2v1h-2zm148 0h1v1h-1zm15 0h1v2h-1zm17 0h1v1h-1zm36 0h1v1h-1zm15 0h1v1h-1zM42 67h2v1h-2zm148 0h1v1h-1zm32 0h1v1h-1zM42 68h2v1h-2zm163 0h1v1h-1zm16 0h1v2h-1zm8 0h1v1h-1zm1 0h2v1h-2zm2 0h1v1h-1zm9 0h1v1h-1zm16 0h1v1h-1zm43 0h1v1h-1zM42 69h2v1h-2zm187 0h1v1h-1zm3 0h1v1h-1zm9 0h1v1h-1zm16 0h1v1h-1zm14 0h1v1h-1zm28 0h1v1h-1zM42 70h2v1h-2zm150 0h1v1h-1zm1 0h1v1h-1zm28 0h1v1h-1zm49 0h1v1h-1zm22 0h1v1h-1zm7 0h1v1h-1zM42 71h2v1h-2zm152 0h1v1h-1zm1 0h1v1h-1zm7 0h1v1h-1zm1 0h1v1h-1zm23 0h1v1h-1zm1 0h1v1h-1zm7 0h1v1h-1zm1 0h1v1h-1zm24 0h1v1h-1zm1 0h1v1h-1zm7 0h2v1h-2zm2 0h1v1h-1zm28 0h1v1h-1zm1 0h1v1h-1zM42 72h2v1h-2zm154 0h5v1h-5zm5 0h1v1h-1zm21 0h1v1h-1zm1 0h1v1h-1zm14 0h1v1h-1zm1 0h1v1h-1zm23 0h5v1h-5zm5 0h1v1h-1zM42 73h2v1h-2zm0 1h2v1h-2zm0 1h2v1h-2zm0 1h2v2h-2zm-17 1h1v1h-1zM9 78h1v1H9zm15 0h1v1h-1zm1 0h1v1h-1zm17 0h2v1h-2zm2 0h1v1h-1zm14 0h9v1h-9zm9 0h1v1h-1zm12 0h22v1H79zm22 0h1v1h-1zm15 0h36v1h-36zm36 0h1v1h-1zm17 0h156v1H169zm156 0h1v1h-1zM31 90h1v1h-1zm85 0h1v9h-1zm68 0h1v1h-1zm73 0h1v9h-1zM30 91h1v3h-1zm6 2h1v1h-1zm58 0h1v1h-1zm6 0h1v1h-1zm53 0h1v1h-1zm29 0h1v1h-1zm8 0h1v1h-1zM10 94h1v1h-1zm15 0h1v1h-1zm5 0h1v5h-1zm36 0h1v1h-1zm25 0h1v1h-1zm59 0h1v1h-1zm49 0h1v1h-1zm23 0h1v5h-1zm10 0h1v1h-1zm5 0h1v5h-1zm53 0h1v2h-1zm24 0h1v1h-1zm1 0h1v1h-1zM96 95h1v1h-1zm16 0h1v1h-1zm47 0h1v3h-1zm40 0h1v1h-1zm95 0h1v2h-1zM96 96h1v3h-1zm33 0h1v1h-1zm161 0h1v1h-1zM15 97h1v1h-1zm56 0h1v1h-1zm155 0h1v1h-1zm68 0h1v1h-1zm20 0h1v2h-1zM15 98h1v1h-1zm29 0h1v1h-1zm115 0h1v1h-1zm73 0h1v1h-1zm15 0h1v1h-1zm78 0h1v1h-1zM30 99h1v1h-1zm14 0h1v1h-1zm16 0h1v1h-1zm36 0h1v1h-1zm68 0h1v1h-1zm58 0h1v1h-1zm15 0h1v1h-1zm5 0h1v1h-1zm10 0h1v1h-1zm5 0h1v1h-1zm33 0h1v1h-1zm10 0h1v1h-1zm6 0h1v1h-1zm8 0h1v1h-1z"/><path d="M45 45h1v31h-1zm150 10h1v1h-1zm10 0h1v1h-1zm61 4h1v1h-1zm-41 5h1v1h-1zm8 3h1v1h-1zm37 1h1v1h-1zm-1 1h1v1h-1zM45 76h1v1h-1zM10 90h1v1h-1zm75 0h1v1h-1zm128 1h1v1h-1zm-4 1h1v7h-1zM33 93h1v1h-1zm33 0h1v1h-1zm224 0h1v1h-1zm26 0h1v1h-1zM29 94h1v1h-1zm8 0h1v1h-1zm22 0h1v1h-1zm35 0h1v1h-1zm-3 2h1v1h-1zm0 1h1v1h-1zm136 0h1v1h-1zm-77 1h1v1h-1zm-47 1h1v1h-1zm47 0h1v1h-1zm59 0h1v1h-1zm69 0h1v1h-1zm44 0h1v1h-1zm-201 1h1v1h-1zm20 0h1v1h-1zm57 0h1v1h-1zm28 1h1v1h-1zm-97 1h1v1h-1z" fill="#8a8a8a"/><path d="M58 45h1v31h-1zm43 0h1v31h-1zm159 12h1v1h-1zm44 0h1v1h-1zm-1 1h1v1h-1zm-105 1h1v1h-1zm29 0h1v1h-1zm-37 2h1v1h-1zm48 0h1v1h-1zm26 3h1v1h-1zm-60 1h1v1h-1zm58 0h1v1h-1zm37 1h1v1h-1zm-59 3h1v1h-1zm30 0h1v1h-1zm28 1h1v1h-1zM58 76h1v1h-1zm43 0h1v1h-1zm-60 2h1v1h-1zM15 91h1v1h-1zm201 0h1v1h-1zm85 0h1v1h-1zm-84 1h1v1h-1zm25 0h1v1h-1zM31 93h1v1h-1zm6 0h1v1h-1zm22 0h1v1h-1zm49 0h1v1h-1zm76 0h1v1h-1zm102 0h1v1h-1zm3 0h1v1h-1zm-159 1h1v1h-1zm15 0h1v1h-1zm9 0h1v1h-1zm46 0h1v1h-1zm76 0h1v1h-1zM12 95h2v1h-2zm2 0h1v1h-1zm141 0h1v1h-1zm155 0h1v1h-1zM15 96h1v1h-1zm125 0h1v1h-1zm15 0h1v2h-1zm167 0h1v1h-1zm1 0h1v1h-1zm-168 2h1v1h-1zm33 0h1v1h-1zm39 0h1v1h-1zm15 0h1v1h-1zm-135 1h1v1h-1zm34 0h1v1h-1zm73 0h1v1h-1zm34 0h1v1h-1zm51 0h1v1h-1zm-67 2h1v1h-1z" fill="#2b2c2c"/><path d="M325 45h1v31h-1zM24 46h1v30h-1zm247 7h1v1h-1zm-68 6h2v1h-2zm2 0h1v1h-1zm63 0h1v1h-1zm-68 6h1v1h-1zm59 1h1v1h-1zm-26 2h1v1h-1zm7 0h1v1h-1zm31 0h1v1h-1zm-49 3h1v1h-1zm1 0h1v1h-1zM24 76h1v1h-1zm301 0h1v1h-1zM183 90h1v1h-1zM29 93h1v1h-1zm6 0h1v1h-1zm66 0h1v1h-1zm62 0h1v1h-1zm151 0h1v1h-1zM65 94h1v1h-1zm251 0h1v1h-1zm5 0h1v1h-1zM47 95h1v1h-1zm141 0h1v1h-1zm127 0h1v1h-1zm-180 3h1v1h-1zm150 0h1v1h-1zM14 99h1v1h-1zm6 0h1v1h-1zm5 0h1v1h-1zm12 0h1v1h-1zm64 0h1v1h-1zm54 0h1v1h-1zm-143 1h1v1h-1zm10 0h1v1h-1zm1 0h1v1h-1zm51 0h1v1h-1zm1 0h1v1h-1zm34 0h1v1h-1zm53 0h1v1h-1zm8 0h1v1h-1zm73 0h1v1h-1zm54 0h1v1h-1zm-162 1h1v1h-1z" fill="#202121"/><path d="M304 53h1v1h-1zm-75 2h1v1h-1zm64 3h1v1h-1zm-67 3h1v1h-1zm67 4h1v1h-1zm-71 3h1v1h-1zm37 2h1v1h-1zM13 90h1v1h-1zm11 3h1v1h-1zm225 0h1v1h-1zm52 0h1v2h-1zM11 94h1v1h-1zm96 0h1v1h-1zm18 0h1v1h-1zm58 0h1v1h-1zm118 1h1v1h-1zm13 0h1v1h-1zM19 96h1v1h-1zm149 0h1v1h-1zm-28 1h1v1h-1zm145 0h1v1h-1zM20 98h1v1h-1zm129 0h1v1h-1zm151 0h1v1h-1zM56 99h1v1h-1zm52 0h1v1h-1zm84 1h1v1h-1zm20 0h1v1h-1zm57 0h2v1h-2zm2 0h1v1h-1z" fill="#3b3b3b"/><path d="M153 45h1v32h-1zm82 8h1v1h-1zm35 0h1v1h-1zm34 2h1v1h-1zm-75 1h1v1h-1zm42 1h1v1h-1zm29 1h1v1h-1zm-31 2h1v1h-1zm-67 5h1v1h-1zm22 0h1v1h-1zm35 2h1v1h-1zm12 0h1v1h-1zm22 1h1v1h-1zm-96 3h1v1h-1zm3 0h1v1h-1zm63 0h2v1h-2zm2 0h1v1h-1zm-112 6h1v1h-1zM41 79h1v1h-1zM14 90h1v1h-1zm17 2h1v1h-1zm36 1h1v1h-1zm36 0h1v1h-1zm31 0h2v1h-2zm2 0h1v2h-1zm15 0h1v1h-1zm47 0h1v3h-1zm1 0h1v1h-1zm124 0h1v1h-1zM24 94h1v1h-1zm145 0h1v1h-1zm98 0h1v1h-1zm13 0h1v1h-1zm37 0h1v1h-1zm-181 1h1v3h-1zm14 0h1v1h-1zm117 0h1v1h-1zm-109 1h1v1h-1zm40 0h1v1h-1zm19 0h1v1h-1zm65 0h1v1h-1zM51 97h1v1h-1zm56 0h1v1h-1zm193 0h1v1h-1zm25 0h1v1h-1zM16 98h1v1h-1zm85 0h1v1h-1zm6 0h1v1h-1zm29 0h1v2h-1zm90 0h1v1h-1zM13 99h1v1h-1zm30 0h1v1h-1zm30 0h1v1h-1zm62 0h1v1h-1zm57 0h1v1h-1zm41 0h1v1h-1zm53 0h1v1h-1zm19 0h1v1h-1zm15 0h1v1h-1zm-184 1h1v1h-1zm19 0h1v1h-1zm76 1h1v1h-1z" fill="#6e6f6f"/><path d="M26 42h1v1h-1zm-15 1h1v36h-1zm58 0h1v36h-1zm197 11h1v1h-1zm1 2h1v1h-1zm1 0h1v1h-1zm-74 1h1v1h-1zm71 0h1v1h-1zm-69 2h1v1h-1zm37 0h1v1h-1zm3 0h1v1h-1zm27 3h1v1h-1zm-68 2h1v1h-1zm42 0h1v1h-1zm-45 2h1v1h-1zm37 0h4v1h-4zm4 0h1v1h-1zm34 0h1v1h-1zm-1 1h1v1h-1zm-31 1h1v1h-1zm-12 1h1v1h-1zM11 79h1v1h-1zm35 0h1v1h-1zm23 0h1v1h-1zM10 89h1v1h-1zm112 0h1v1h-1zm93 0h1v1h-1zm27 0h1v1h-1zm23 0h1v1h-1zm-138 1h1v1h-1zm90 0h1v1h-1zm23 0h1v1h-1zm-59 1h1v1h-1zm5 0h1v1h-1zM13 92h1v1h-1zm30 0h2v1h-2zm2 0h1v1h-1zm3 0h1v1h-1zm92 0h1v1h-1zm5 0h1v1h-1zm20 0h1v1h-1zm3 0h1v1h-1zm12 0h1v1h-1zm23 0h1v2h-1zm10 0h1v1h-1zm68 0h1v1h-1zm24 0h1v1h-1zm8 0h1v1h-1zM40 93h1v1h-1zm99 0h1v1h-1zm17 0h1v1h-1zm11 0h1v1h-1zm115 0h1v1h-1zm22 0h1v1h-1zM53 94h1v1h-1zm9 0h1v1h-1zm1 0h1v5h-1zm15 0h1v1h-1zm26 0h1v2h-1zm99 0h1v1h-1zm81 0h1v1h-1zM16 95h1v1h-1zm33 0h1v1h-1zm20 0h1v1h-1zm74 0h1v1h-1zm10 0h1v3h-1zm4 0h1v1h-1zm7 0h2v1h-2zm2 0h1v1h-1zm5 0h1v1h-1zm4 0h1v2h-1zm41 0h1v1h-1zm24 0h1v1h-1zm38 0h1v1h-1zm5 0h1v1h-1zm13 0h1v2h-1zm11 0h1v1h-1zm5 0h1v2h-1zM34 96h1v2h-1zm20 0h1v1h-1zm38 0h1v4h-1zm12 0h1v1h-1zm34 0h1v1h-1zm13 0h2v1h-2zm73 0h1v1h-1zm7 0h1v1h-1zM8 97h2v1H8zm2 0h1v1h-1zm84 0h1v3h-1zm8 0h1v1h-1zm31 0h1v1h-1zm5 0h1v1h-1zm13 0h2v1h-2zm24 0h1v1h-1zm55 0h1v1h-1zm38 0h1v1h-1zm28 0h1v1h-1zm16 0h1v1h-1zm1 0h1v1h-1zM12 98h1v1h-1zm1 0h1v1h-1zm9 0h1v1h-1zm1 0h1v1h-1zm11 0h1v1h-1zm5 0h1v1h-1zm18 0h1v1h-1zm12 0h1v1h-1zm5 0h1v1h-1zm1 0h1v1h-1zm28 0h1v1h-1zm7 0h1v1h-1zm33 0h1v1h-1zm8 0h2v1h-2zm2 0h1v2h-1zm4 0h1v1h-1zm9 0h1v1h-1zm5 0h1v1h-1zm73 0h1v1h-1zm1 0h1v1h-1zm24 0h1v1h-1zm9 0h1v1h-1zm4 0h1v2h-1zm15 0h1v1h-1zm1 0h1v1h-1zm9 0h1v1h-1zm1 0h1v1h-1zm14 0h1v1h-1zM18 99h1v1h-1zm22 0h1v1h-1zm6 0h1v1h-1zm17 0h1v1h-1zm42 0h1v1h-1zm113 0h1v1h-1zm74 0h1v1h-1zm-200 1h2v1h-2zm2 0h1v1h-1zm52 0h1v1h-1zm5 0h2v1h-2zm2 0h1v1h-1zm28 0h1v1h-1zm7 0h1v1h-1zm40 0h1v1h-1zm54 0h1v1h-1zm10 0h1v1h-1zm-278 1h1v1h-1zm17 0h1v1h-1zm5 0h1v1h-1zm3 0h1v1h-1zm4 0h1v1h-1zm7 0h1v1h-1zm14 0h1v1h-1zm12 0h1v1h-1zm9 0h1v1h-1zm6 0h1v1h-1zm4 0h1v1h-1zm20 0h1v1h-1zm6 0h1v1h-1zm3 0h1v1h-1zm4 0h1v1h-1zm13 0h1v1h-1zm9 0h1v1h-1zm4 0h1v1h-1zm6 0h1v1h-1zm4 0h1v1h-1zm5 0h1v1h-1zm13 0h1v1h-1zm11 0h1v1h-1zm6 0h1v1h-1zm10 0h1v1h-1zm5 0h1v1h-1zm9 0h1v1h-1zm13 0h1v1h-1zm6 0h1v1h-1zm10 0h1v1h-1zm6 0h1v1h-1zm15 0h1v1h-1zm4 0h1v1h-1zm14 0h1v1h-1zm9 0h1v1h-1zm6 0h1v1h-1zm9 0h1v1h-1zm6 0h1v1h-1zm-193 1h1v1h-1zm7 1h1v1h-1zm97 0h1v1h-1z" fill="#f5f5f5"/><path d="M40 44h1v1h-1zm190 11h1v1h-1zm-32 3h1v1h-1zm97 1h1v1h-1zm-62 3h1v1h-1zm5 3h1v1h-1zm56 0h1v1h-1zm4 2h1v1h-1zm-97 3h1v1h-1zM40 78h1v1h-1zm-17 1h1v1h-1zm55 0h1v1h-1zM33 89h1v1h-1zm88 0h1v1h-1zm-20 1h1v1h-1zm83 1h1v1h-1zm72 0h1v8h-1zM15 92h1v1h-1zm6 0h1v1h-1zm47 0h1v1h-1zm25 0h1v1h-1zm15 0h1v1h-1zm44 0h2v1h-2zm2 0h1v1h-1zm64 0h1v1h-1zm26 0h1v1h-1zm42 0h1v1h-1zm28 0h1v1h-1zm4 0h1v1h-1zm-13 1h1v1h-1zM38 94h1v1h-1zm131 1h1v1h-1zM18 96h1v1h-1zm48 0h1v1h-1zm39 0h1v1h-1zm120 0h1v1h-1zM73 97h2v1h-2zm2 0h1v1h-1zm30 0h1v1h-1zm4 0h1v1h-1zm33 0h1v1h-1zm79 0h1v2h-1zm57 0h1v1h-1zm-91 1h1v1h-1zm42 0h1v1h-1zm9 0h1v1h-1zM8 99h1v1H8zm21 0h1v1h-1zm29 0h1v1h-1zm85 0h1v1h-1zm74 0h1v1h-1zm4 0h1v1h-1zm35 0h1v1h-1zm55 0h1v1h-1zm-280 1h1v1h-1zm123 0h1v1h-1zm141 0h1v1h-1zm-164 3h1v1h-1zm97 0h2v1h-2zm2 0h1v1h-1z" fill="#b3b4b4"/><path d="M41 44h1v1h-1zm195 9h1v1h-1zm-35 5h1v1h-1zm91 0h1v1h-1zm9 0h1v1h-1zm-110 1h1v1h-1zm103 0h1v1h-1zm-97 1h1v1h-1zm73 0h1v1h-1zm-38 1h1v1h-1zm68 0h1v1h-1zm-99 4h1v1h-1zm27 4h1v1h-1zm6 1h1v1h-1zM120 90h1v1h-1zm5 0h1v1h-1zm-25 2h1v1h-1zm201 0h1v1h-1zM75 93h1v1h-1zm66 0h1v1h-1zm3 0h1v1h-1zm17 0h1v1h-1zm3 0h1v1h-1zm37 0h1v1h-1zm16 0h1v1h-1zM95 94h1v1h-1zm64 0h1v1h-1zm67 0h1v1h-1zm16 0h1v1h-1zM19 95h1v1h-1zm58 0h1v1h-1zm141 0h1v1h-1zM57 96h1v1h-1zm55 0h1v1h-1zm137 0h1v1h-1zm52 0h1v1h-1zM26 97h1v1h-1zm109 0h1v1h-1zm33 0h1v1h-1zM25 98h1v1h-1zm25 0h1v1h-1zm90 0h1v1h-1zm28 0h1v1h-1zm42 0h1v1h-1zM24 99h1v1h-1zm31 0h1v1h-1zm65 0h1v1h-1zm91 0h1v1h-1zm17 0h1v1h-1zm44 0h1v1h-1zm29 0h1v1h-1zm-3 1h1v1h-1z" fill="#313232"/><path d="M45 44h1v1h-1zm123 1h1v31h-1zm64 8h2v1h-2zm2 0h1v1h-1zm68 0h1v1h-1zm-10 1h1v1h-1zm-60 6h1v1h-1zm-29 8h1v1h-1zm19 1h1v1h-1zm-54 7h1v1h-1zm99 14h1v1h-1zm-58 1h1v1h-1zm91 0h1v1h-1zm-193 2h1v1h-1zm178 0h1v1h-1zm14 0h1v1h-1zm-3 1h1v1h-1zm24 0h1v1h-1zM95 95h1v4h-1zm6 0h1v2h-1zm45 0h1v1h-1zm158 0h1v1h-1zM70 96h1v1h-1zm38 0h1v1h-1zm38 0h1v1h-1zm24 0h1v1h-1zm107 0h1v1h-1zM25 97h1v1h-1zm45 0h1v1h-1zm31 0h1v1h-1zm185 0h1v1h-1zM9 98h1v1H9zm17 0h1v1h-1zm113 0h1v1h-1zm43 0h1v1h-1zm7 0h1v1h-1zm59 0h1v1h-1zm27 0h1v1h-1zM75 99h1v1h-1zm20 0h1v1h-1zm87 0h1v1h-1zm6 0h1v1h-1zm110 0h1v1h-1zm-233 1h1v1h-1zm21 0h1v1h-1zm4 0h1v1h-1zm162 0h1v1h-1zm1 0h1v1h-1zm13 0h1v1h-1zm49 0h1v1h-1zm-181 1h1v1h-1zm92 1h1v1h-1z" fill="#818181"/><g fill="#040707"><path d="M101 44h1v1h-1zm-41 1h5v32h-5zm5 0h1v32h-1zm15 0h19v32H80zm19 0h1v32h-1zm19 0h33v32h-33zm33 0h1v32h-1zm20 0h152v5H171zm152 0h1v32h-1zm-152 5h152v1H171zm0 1h94v1h-94zm94 0h1v1h-1zm5 0h53v1h-53zm-99 1h25v1h-25zm25 0h1v1h-1zm9 0h25v1h-25zm25 0h1v1h-1zm7 0h26v1h-26zm26 0h1v1h-1zm9 0h19v1h-19zm19 0h1v1h-1zm14 0h18v1h-18zm-134 1h24v1h-24zm24 0h1v1h-1zm11 0h22v1h-22zm22 0h1v1h-1zm10 0h24v1h-24zm24 0h1v1h-1zm11 0h17v1h-17zm17 0h1v1h-1zm16 0h17v24h-17zm-135 1h22v1h-22zm22 0h1v1h-1zm14 0h20v3h-20zm20 0h1v1h-1zm11 0h22v1h-22zm22 0h1v1h-1zm14 0h16v23h-16zm16 0h1v1h-1zm-119 1h21v1h-21zm21 0h1v1h-1zm35 0h1v1h-1zm11 0h21v1h-21zm21 0h1v1h-1zm32 0h1v1h-1zm-120 1h20v1h-20zm20 0h1v1h-1zm48 0h20v4h-20zm20 0h1v1h-1zm-88 1h19v3h-19zm19 0h1v1h-1zm17 0h19v2h-19zm19 0h1v1h-1zm1 1h1v1h-1z"/><path d="M273 58h16v2h-16zm32 0h18v19h-18zm-103 1h1v4h-1zm5 0h18v2h-18zm18 0h1v1h-1zm65 0h1v18h-1z"/><path d="M304 59h19v18h-19zm-133 1h18v17h-18zm18 0h1v1h-1zm11 0h1v3h-1zm1 0h1v3h-1zm5 0h18v3h-18zm33 0h19v1h-19zm19 0h1v5h-1zm13 0h21v1h-21zm21 0h1v3h-1z"/><path d="M302 60h21v17h-21zm-104 1h26v2h-26zm26 0h1v1h-1zm16 0h18v3h-18zm32 0h20v1h-20zm19 1h1v15h-1zm-93 1h25v1h-25zm25 0h1v1h-1zm36 0h1v1h-1zm33 0h1v1h-1z"/><path d="M301 63h22v14h-22zm-96 1h17v1h-17zm17 0h1v1h-1zm18 0h19v1h-19zm19 0h1v1h-1zm-54 1h17v1h-17zm17 0h1v1h-1zm19 0h17v1h-17zm17 0h1v1h-1zm-52 1h15v11h-15zm15 0h1v1h-1zm19 0h17v1h-17zm17 0h1v1h-1zm-68 1h1v10h-1zm32 0h1v1h-1zm21 0h14v10h-14zm14 0h1v10h-1zm-65 1h1v9h-1zm81 0h19v9h-19zm-82 1h1v8h-1z"/><path d="M205 70h15v7h-15zm23 0h5v7h-5zm5 0h1v7h-1zm38 0h20v7h-20zm29 0h23v7h-23zm-108 1h1v6h-1zm1 0h1v6h-1z"/><path d="M204 71h16v6h-16zm37 0h16v6h-16zm16 0h1v6h-1zm13 0h23v6h-23zm23 0h1v6h-1zm3 0h1v6h-1zm3 0h24v6h-24zm-105 1h1v5h-1zm1 0h1v5h-1z"/><path d="M202 72h19v5h-19zm19 0h1v5h-1zm6 0h8v5h-8zm8 0h1v5h-1zm5 0h20v5h-20zm20 0h1v5h-1zm8 0h25v5h-25zm30 0h25v5h-25z"/><path d="M196 73h127v4H196zM60 77h6v1h-6zm6 0h1v1h-1zm14 0h19v1H80zm19 0h1v1h-1zm19 0h33v1h-33zm33 0h1v1h-1zm20 0h152v1H171zm152 0h1v1h-1zm-22 13h1v1h-1zm-91 1h1v1h-1zm86 2h1v1h-1zM36 94h1v2h-1zm11 0h1v1h-1zm4 0h1v1h-1zm-15 2h1v1h-1zm35 0h1v1h-1zm243 0h1v1h-1z"/></g><path d="M25 45h1v30h-1zm144 0h1v32h-1zm91 17h1v1h-1zm40 0h1v1h-1zm-39 1h1v1h-1zm32 1h1v1h-1zm-94 1h1v1h-1zm73 1h1v1h-1zm-68 2h1v1h-1zm33 3h1v1h-1zm1 0h1v1h-1zm23 0h1v1h-1zM25 75h1v1h-1zm144 2h1v1h-1zm156 0h1v1h-1zM60 94h1v2h-1zm80 0h1v1h-1zm112 0h1v1h-1zM51 95h1v1h-1zm14 0h1v1h-1zm-39 1h1v1h-1zm34 0h1v1h-1zm79 0h1v1h-1zm-90 2h1v1h-1zm241 0h1v1h-1zM72 99h1v1h-1zm4 0h1v1h-1zm117 0h1v1h-1z" fill="#131414"/><path d="M261 55h1v1h-1zm6 3h1v1h-1zm4 0h1v1h-1zm20 0h1v1h-1zm-66 4h1v1h-1zm38 2h1v1h-1zm-65 1h1v1h-1zm6 2h1v1h-1zm36 0h1v1h-1zm59 1h1v1h-1zm-66 1h1v1h-1zm7 1h1v1h-1zm29 0h1v1h-1zM25 76h1v1h-1zm-1 1h1v1h-1zM10 91h1v1h-1zm205 0h1v1h-1zm27 0h1v1h-1zM21 93h1v1h-1zm162 0h1v1h-1zm68 0h1v1h-1zM76 94h1v1h-1zm118 0h1v1h-1zm111 2h1v2h-1zm-15 1h1v1h-1zM71 98h1v1h-1zm234 0h1v1h-1zM49 99h1v1h-1zm83 0h1v1h-1zm37 0h1v1h-1zm20 0h1v1h-1zm106 0h1v1h-1zm-124 1h1v1h-1zm20 0h1v1h-1zm58 0h1v1h-1zm30 0h1v1h-1zm29 0h1v1h-1zm15 0h1v1h-1z" fill="#1a1b1b"/><path d="M262 55h1v1h-1zm-2 4h1v1h-1zm-33 1h1v1h-1zm33 0h1v1h-1zm-21 7h1v1h-1zm59 2h1v1h-1zm-59 1h1v1h-1zm21 0h1v1h-1zm-62 1h1v1h-1zm1 0h1v1h-1zM68 77h1v1h-1zM30 90h1v1h-1zm270 0h1v1h-1zm-199 1h1v1h-1zm-72 1h1v1h-1zm238 0h1v1h-1zM41 93h1v1h-1zm44 0h1v5h-1zm133 0h1v1h-1zm49 0h1v1h-1zm28 0h1v2h-1zm-183 1h1v1h-1zm89 0h1v1h-1zm16 0h1v1h-1zm72 0h1v1h-1zm17 0h1v2h-1zM61 95h1v1h-1zm5 0h1v1h-1zm129 0h1v1h-1zm38 0h1v1h-1zm49 0h1v1h-1zm13 0h1v1h-1zm16 0h1v1h-1zM46 96h1v1h-1zm89 0h1v1h-1zm34 0h1v1h-1zm3 0h1v1h-1zm95 0h1v1h-1zm13 0h1v1h-1zm26 0h1v1h-1zm3 0h1v1h-1zm-142 1h1v1h-1zm32 0h1v1h-1zM85 98h1v1h-1zm114 0h1v1h-1zm-99 1h1v1h-1zm70 0h2v1h-2zm2 0h1v1h-1zm55 0h1v1h-1zm-213 1h1v1h-1zm46 0h1v1h-1z" fill="#737373"/><g fill="#fff"><path d="M0 0h334v41H0zm334 0h1v149h-1zM0 41h334v1H0zm0 1h7v107H0zm7 0h1v107H7zm5 0h9v46h-9zm9 0h1v48h-1zm6 0h12v46H27zm12 0h1v49h-1zm8 0h9v48h-9zm9 0h1v49h-1zm14 0h7v48h-7zm7 0h1v50h-1zm26 0h10v48h-10zm10 0h1v51h-1zm42 0h11v48h-11zm11 0h1v52h-1zm161 0h7v107h-7zM198 55h5v1h-5zm5 0h1v1h-1zm28 0h4v3h-4zm4 0h1v11h-1zm29 0h6v1h-6zm6 0h1v1h-1zm23 0h9v1h-9zm9 0h1v1h-1zm-106 1h7v1h-7zm7 0h1v1h-1zm60 0h3v1h-3zm3 0h1v1h-1zm27 0h9v1h-9zm9 0h1v1h-1zm-107 1h2v1h-2zm2 0h1v1h-1zm65 0h2v3h-2zm2 0h1v1h-1zm33 0h1v7h-1zm1 0h1v5h-1zm-104 1h2v2h-2zm2 0h1v1h-1zm34 0h5v1h-5zm0 1h1v2h-1zm1 0h1v1h-1zm3 0h1v2h-1zm-41 1h2v6h-2zm2 0h1v1h-1zm34 0h1v2h-1zm7 0h1v9h-1zm26 0h4v1h-4zm4 0h1v2h-1zm-36 1h1v1h-1z"/><path d="M234 61h2v1h-2zm29 0h5v1h-5zm5 0h1v7h-1zm-41 1h2v3h-2zm2 0h1v1h-1z"/><path d="M265 62h4v1h-4zm4 0h1v5h-1zm27 0h2v2h-2zm2 0h1v1h-1z"/><path d="M267 63h3v1h-3zm3 0h1v2h-1zm25 1h2v5h-2zm2 0h1v1h-1zm-102 1h1v3h-1zm31 0h10v1h-10zm44 0h1v1h-1zm-77 1h2v1h-2zm33 0h1v3h-1zm1 0h1v1h-1zm8 0h2v1h-2zm2 0h1v3h-1z"/><path d="M194 67h2v1h-2zm2 0h1v2h-1zm29 0h1v2h-1zm36 0h1v2h-1zm6 0h2v1h-2zm2 0h1v1h-1z"/><path d="M194 68h7v1h-7zm7 0h1v1h-1zm61 0h6v1h-6zm6 0h1v1h-1zm-72 1h5v1h-5zm5 0h1v1h-1zm23 0h2v1h-2zm2 0h1v1h-1zm10 0h2v1h-2zm2 0h1v1h-1zm23 0h6v1h-6zm6 0h1v1h-1zm27 0h2v1h-2zm2 0h1v1h-1zM11 80h11v8H11zm11 0h1v10h-1zm24 0h10v10H46zm23 0h8v10h-8zm45 0h1v8h-1zm53 0h1v12h-1z"/><path d="M8 81h326v7H8zm0 7h326v1H8zm0 1h1v1H8zm1 0h1v1H9zm7 0h12v1H16zm12 0h1v2h-1zm10 0h45v1H38zm45 0h1v60h-1zm5 0h11v1H88zm11 0h1v1h-1zm3 0h11v1h-11zm16 0h1v60h-1zm5 0h1v60h-1zm5 0h53v1h-53zm53 0h1v1h-1zm6 0h20v1h-20zm20 0h1v60h-1zm9 0h3v1h-3zm3 0h1v2h-1zm5 0h10v1h-10zm10 0h1v2h-1zm5 0h1v2h-1zm1 0h1v1h-1zm3 0h11v1h-11zm11 0h1v3h-1zm5 0h5v60h-5zm5 0h1v1h-1zm5 0h29v1h-29zm29 0h1v2h-1zm5 0h31v1h-31zM8 90h1v1H8zm9 0h11v1H17zm23 0h43v1H40zm48 0h10v1H88zm10 0h1v1h-1zm5 0h10v1h-10zm25 0h52v1h-52zm52 0h1v1h-1zm7 0h20v1h-20zm31 0h1v1h-1zm7 0h9v1h-9zm19 0h10v1h-10zm25 0h29v1h-29zm34 0h31v1h-31zM18 91h2v1h-2zm2 0h1v1h-1zm4 0h4v1h-4zm4 0h1v1h-1zm11 0h13v1H39zm13 0h4v1h-4zm4 0h1v1h-1zm4 0h7v1h-7zm7 0h1v1h-1zm3 0h2v1h-2zm2 0h1v1h-1zm4 0h7v1h-7zm12 0h4v1h-4zm4 0h1v1h-1zm4 0h2v1h-2zm2 0h1v1h-1zm5 0h5v1h-5zm5 0h1v1h-1zm3 0h2v1h-2zm17 0h2v1h-2zm2 0h1v1h-1zm4 0h7v1h-7zm7 0h1v1h-1zm3 0h7v1h-7zm7 0h1v1h-1zm4 0h6v1h-6zm6 0h1v1h-1zm3 0h5v1h-5zm5 0h1v1h-1zm4 0h7v1h-7zm7 0h1v1h-1zm7 0h2v1h-2zm2 0h1v1h-1zm4 0h7v1h-7zm7 0h1v1h-1zm3 0h4v1h-4zm16 0h1v1h-1zm5 0h3v1h-3zm3 0h1v1h-1zm3 0h4v1h-4zm4 0h1v1h-1zm5 0h1v1h-1zm6 0h3v1h-3zm3 0h1v1h-1zm4 0h2v1h-2zm17 0h8v1h-8zm8 0h1v1h-1zm3 0h6v1h-6zm6 0h1v1h-1zm3 0h6v1h-6zm6 0h1v1h-1zm8 0h3v1h-3zm3 0h1v1h-1zm3 0h8v1h-8zm8 0h4v1h-4zm4 0h1v1h-1zm3 0h10v1h-10zM12 92h1v1h-1zm5 0h2v1h-2zm2 0h1v1h-1zm7 0h1v1h-1zm23 0h1v2h-1zm21 0h1v1h-1zm7 0h6v1h-6zm11 0h1v57h-1zm9 0h1v1h-1zm8 0h1v1h-1zm1 0h1v1h-1zm22 0h1v1h-1zm10 0h1v2h-1zm1 0h1v1h-1zm7 0h1v1h-1zm1 0h1v2h-1zm9 0h2v1h-2zm2 0h1v1h-1zm9 0h1v1h-1zm7 0h5v1h-5zm5 0h1v57h-1zm8 0h1v1h-1zm8 0h1v1h-1zm1 0h1v2h-1zm8 0h3v57h-3zm16 0h1v5h-1zm4 0h1v2h-1zm1 0h1v1h-1zm10 0h1v57h-1zm11 0h1v3h-1zm8 0h1v1h-1zm15 0h6v1h-6zm6 0h1v1h-1zm7 0h1v1h-1zm1 0h1v2h-1zm8 0h3v1h-3zm3 0h1v1h-1zm9 0h1v3h-1zm1 0h1v1h-1zm7 0h1v1h-1zm1 0h1v1h-1zM13 93h4v1h-4zm4 0h1v1h-1zm10 0h1v1h-1zm17 0h1v1h-1zm18 0h1v1h-1zm16 0h5v1h-5zm35 0h1v1h-1zm15 0h1v1h-1zm29 0h1v1h-1zm18 0h4v1h-4zm37 0h3v4h-3zm3 0h1v3h-1zm54 0h5v4h-5zm5 0h1v1h-1zm18 0h1v1h-1zM16 94h1v1h-1zm1 0h1v1h-1zm23 0h1v4h-1zm4 0h1v1h-1zm5 0h1v1h-1zm30 0h4v55h-4zm35 0h1v5h-1zm24 0h1v1h-1zm9 0h1v1h-1zm19 0h1v1h-1zm9 0h4v1h-4zm21 0h1v1h-1zm28 0h1v1h-1zm15 0h1v55h-1zm16 0h1v55h-1zm28 0h1v1h-1zM8 95h1v1H8zm14 0h1v2h-1zm1 0h1v2h-1zm5 0h1v54h-1zm4 0h1v54h-1zm1 0h1v54h-1zm5 0h2v1h-2zm16 0h1v1h-1zm1 0h1v1h-1zm13 0h1v54h-1zm25 0h1v54h-1zm5 0h1v54h-1zm29 0h1v2h-1zm5 0h1v1h-1zm1 0h1v1h-1zm19 0h1v54h-1zm9 0h2v2h-2zm2 0h1v2h-1z"/><path d="M176 95h4v54h-4zm4 0h1v54h-1zm5 0h1v54h-1zm5 0h2v2h-2zm2 0h1v2h-1zm10 0h5v54h-5zm26 0h2v1h-2zm2 0h1v1h-1zm14 0h3v1h-3zm3 0h1v1h-1zm37 0h1v1h-1zm13 0h1v2h-1zm1 0h1v2h-1zm5 0h1v1h-1zm15 0h1v54h-1zm7 0h9v1h-9zM8 96h2v1H8zm2 0h1v1h-1zm14 0h1v1h-1zm15 0h1v1h-1zm14 0h1v1h-1zm14 0h1v53h-1zm36 0h1v1h-1zm28 0h2v1h-2zm2 0h1v1h-1zm31 0h1v1h-1zm1 0h1v1h-1z"/><path d="M201 96h6v53h-6zm14 0h1v1h-1zm13 0h2v1h-2zm2 0h1v1h-1zm62 0h1v1h-1zm25 0h2v53h-2zm2 0h1v1h-1zM11 97h2v1h-2zm2 0h1v1h-1zm9 0h1v1h-1zm1 0h1v1h-1zm16 0h1v1h-1zm13 0h1v52h-1zm51 0h1v1h-1zm58 0h2v1h-2zm2 0h1v1h-1zm27 0h2v1h-2zm2 0h1v1h-1zm20 0h2v1h-2zm2 0h1v1h-1zm6 0h1v1h-1zm24 0h1v1h-1zm1 0h1v1h-1zm24 0h4v1h-4zm4 0h1v1h-1zm19 0h1v1h-1zm5 0h1v1h-1zm1 0h1v1h-1zm21 0h1v1h-1zm1 0h1v1h-1zM40 98h1v1h-1zm1 0h1v51h-1zm37 0h5v51h-5zm69 0h1v51h-1zm28 0h5v51h-5zm108 0h1v51h-1zm20 0h1v51h-1zm9 0h1v51h-1zM17 99h1v50h-1zm10 0h1v50h-1zm42 0h1v50h-1zm45 0h1v50h-1zm14 0h1v1h-1zm10 0h1v50h-1zm48 0h1v50h-1zm10 0h1v50h-1zm23 0h1v50h-1zm6 0h1v1h-1zm49 0h1v50h-1zM8 100h1v49H8z"/><path d="M16 100h3v49h-3zm3 0h1v49h-1zm7 0h2v49h-2zm8 0h1v49h-1zm12 0h1v49h-1zm1 0h1v49h-1zm6 0h1v49h-1zm17 0h1v49h-1zm35 0h1v49h-1zm8 0h1v49h-1zm17 0h1v1h-1zm9 0h1v49h-1zm19 0h1v49h-1zm8 0h1v49h-1zm1 0h1v49h-1zm20 0h1v49h-1zm8 0h1v49h-1zm22 0h2v49h-2zm8 0h2v1h-2zm2 0h1v1h-1zm3 0h1v1h-1zm10 0h1v49h-1zm6 0h1v49h-1zm29 0h1v49h-1zm18 0h1v49h-1zm11 0h1v49h-1zm22 0h8v49h-8z"/><path d="M25 101h3v48h-3zm10 0h1v48h-1zm5 0h2v48h-2zm2 0h1v48h-1zm9 0h3v48h-3zm3 0h1v48h-1zm9 0h1v48h-1zm8 0h1v48h-1zm6 0h6v48h-6zm15 0h2v48h-2zm2 0h1v48h-1zm5 0h1v48h-1zm7 0h1v48h-1zm21 0h1v48h-1zm19 0h1v48h-1zm5 0h2v48h-2zm2 0h1v48h-1zm4 0h2v48h-2zm2 0h1v48h-1zm6 0h2v48h-2zm9 0h7v48h-7zm7 0h1v48h-1zm7 0h1v48h-1zm6 0h2v48h-2zm22 0h4v48h-4zm4 0h1v48h-1zm4 0h1v48h-1zm17 0h1v48h-1zm23 0h1v48h-1zm18 0h2v48h-2zm2 0h1v48h-1zm8 0h2v48h-2zm2 0h1v48h-1zm17 0h1v48h-1zm8 0h1v48h-1z"/><path d="M9 102h118v47H9zm128 0h87v47h-87zm97 0h100v47H234z"/><path d="M136 103h88v46h-88zm97 0h101v46H233zm-105 1h2v45h-2zm2 0h1v45h-1z"/><path d="M134 104h93v45h-93zm93 0h1v45h-1zm4 0h103v45H231z"/><path d="M131 105h203v44H131zM0 149h334v1H0zm334 0h1v1h-1z"/></g><path d="M44 42h1v1h-1zm72 0h1v1h-1zm36 0h1v1h-1zm2 2h1v34h-1zm116 10h1v1h-1zm-74 1h1v1h-1zm99 2h1v1h-1zm-30 1h1v1h-1zm-28 4h1v1h-1zm-7 2h1v1h-1zm3 0h1v1h-1zm-8 1h1v1h-1zm73 0h1v1h-1zm-38 2h1v1h-1zm3 0h2v1h-2zm2 0h1v1h-1zm5 0h1v1h-1zm24 0h1v1h-1zm-92 2h1v1h-1zm66 0h1v1h-1zm-114 9h1v1h-1zM86 89h1v1h-1zm124 0h1v1h-1zm1 0h2v1h-2zm2 0h1v1h-1zm25 0h1v1h-1zm28 0h1v1h-1zM9 90h1v1H9zm20 0h1v1h-1zm6 0h2v1h-2zm2 0h1v1h-1zm228 0h1v9h-1zM32 91h1v1h-1zm67 0h1v1h-1zm25 0h2v1h-2zm2 0h1v1h-1zm95 0h1v1h-1zm15 0h1v1h-1zm7 0h1v1h-1zM39 92h1v2h-1zm21 0h1v1h-1zm7 0h1v1h-1zm57 0h1v1h-1zm27 0h1v1h-1zm9 0h1v1h-1zm29 0h1v1h-1zm96 0h1v1h-1zm10 0h1v1h-1zM19 93h1v1h-1zm26 0h1v1h-1zm24 0h1v1h-1zm29 0h1v1h-1zm8 0h1v1h-1zm31 0h1v1h-1zm60 0h1v1h-1zm97 0h1v1h-1zM39 94h1v1h-1zm104 0h1v1h-1zm13 0h1v1h-1zm31 0h1v1h-1zm10 0h1v1h-1zm14 0h1v2h-1zm20 1h1v1h-1zm62 0h1v2h-1zm6 0h1v1h-1zm3 0h1v3h-1zM99 96h1v2h-1zm90 0h1v1h-1zm22 0h1v1h-1zm5 0h1v1h-1zm27 0h1v1h-1zm31 0h1v1h-1zm51 0h1v1h-1zm-51 1h1v1h-1zm14 0h1v1h-1zm5 0h1v1h-1zM21 98h1v1h-1zm78 0h1v1h-1zm3 0h1v1h-1zm9 0h1v1h-1zm34 0h1v1h-1zm136 0h1v1h-1zm21 0h1v1h-1zm18 0h1v1h-1zM42 99h1v1h-1zm45 0h1v1h-1zm42 0h1v1h-1zm10 0h1v1h-1zm28 0h1v1h-1zm98 0h1v1h-1zm-153 1h1v1h-1zm72 0h1v1h-1zm70 0h1v1h-1zm-111 1h1v1h-1z" fill="#dcdcdc"/><path d="M10 43h1v1h-1zm47 0h1v1h-1zm45 0h1v1h-1zm13 0h1v1h-1zm211 0h1v1h-1zM8 44h1v1H8zm70 1h1v32h-1zm189 8h1v1h-1zm1 0h1v1h-1zm-64 1h1v1h-1zm32 1h1v1h-1zm31 2h1v1h-1zm1 0h1v1h-1zm0 3h1v1h-1zm-77 1h1v1h-1zm80 1h1v1h-1zm-73 4h2v1h-2zm2 0h1v1h-1zm3 0h1v1h-1zm21 0h1v1h-1zm47 0h1v1h-1zm-44 3h1v1h-1zm32 0h1v1h-1zm-36 1h2v1h-2zm2 0h1v1h-1zm11 0h2v1h-2zm2 0h1v1h-1zm57 0h1v1h-1zm1 0h1v1h-1zM78 77h1v1h-1zM8 78h1v1H8zm37 1h1v1h-1zm80 10h1v1h-1zm60 0h1v1h-1zm116 0h1v1h-1zm-201 1h1v1h-1zm26 0h1v1h-1zm-11 1h2v1h-2zm2 0h1v1h-1zm100 0h1v1h-1zm41 0h1v7h-1zm-148 1h1v1h-1zm5 0h1v2h-1zm27 0h1v1h-1zm21 0h1v1h-1zm27 0h1v1h-1zm59 0h2v1h-2zm2 0h1v1h-1zm56 0h1v1h-1zm15 0h1v1h-1zM55 93h1v1h-1zm41 0h1v1h-1zm49 0h1v1h-1zm78 0h1v1h-1zm58 0h1v1h-1zM68 94h1v1h-1zm9 0h1v1h-1zm22 0h1v1h-1zm16 0h1v1h-1zm46 0h1v1h-1zm31 0h1v1h-1zm36 0h1v1h-1zm8 0h1v5h-1zm89 0h1v1h-1zM15 95h1v1h-1zm28 0h1v1h-1zm27 0h1v1h-1zm60 0h1v1h-1zm111 0h1v1h-1zm81 0h1v1h-1zM16 96h1v1h-1zm112 0h1v1h-1zm167 0h1v1h-1zm-154 1h1v1h-1zm13 0h1v1h-1zm62 0h1v1h-1zm61 0h1v1h-1zM37 98h1v1h-1zm14 0h1v1h-1zm5 0h1v1h-1zm16 0h1v1h-1zm43 0h2v1h-2zm2 0h1v1h-1zm16 0h1v1h-1zm36 0h1v1h-1zm54 0h1v1h-1zm35 0h1v1h-1zm41 0h1v1h-1zM48 99h1v1h-1zm26 0h1v1h-1zm32 0h1v1h-1zm3 0h1v1h-1zm6 0h2v1h-2zm2 0h1v1h-1zm57 0h1v1h-1zm17 0h1v1h-1zm45 0h1v1h-1zm5 0h1v1h-1zm47 0h1v1h-1zm-245 1h1v1h-1zm48 0h1v1h-1zm4 0h1v1h-1zm55 0h1v1h-1zm23 0h1v1h-1zm112 0h1v1h-1zm6 0h1v1h-1zm-59 2h1v1h-1zm-100 1h1v1h-1z" fill="#a5a5a5"/><path d="M26 43h1v1h-1zm236 13h1v1h-1zm-60 1h2v1h-2zm2 0h1v1h-1zm32 0h1v1h-1zm-9 4h1v1h-1zm44 3h1v1h-1zm-74 2h1v1h-1zm37 1h1v1h-1zm-41 1h1v1h-1zm4 2h3v1h-3zm3 0h1v1h-1zm63 0h2v1h-2zm2 0h1v1h-1zM26 79h1v1h-1zM11 89h1v1h-1zm104 0h2v1h-2zm2 0h1v1h-1zm106 0h1v1h-1zm33 0h1v1h-1zm-70 1h1v1h-1zM28 92h1v1h-1zm23 0h1v1h-1zm13 0h1v1h-1zm8 0h1v1h-1zm19 0h1v1h-1zm20 0h1v1h-1zm19 0h1v1h-1zm34 0h1v1h-1zm5 0h1v1h-1zm24 0h1v1h-1zm6 0h1v1h-1zm12 0h1v1h-1zm16 0h1v1h-1zm94 0h1v1h-1zM43 93h1v1h-1zm18 0h1v1h-1zm51 0h1v1h-1zm-79 1h1v1h-1zm1 0h1v1h-1zm40 0h1v1h-1zm23 0h1v1h-1zm12 0h1v1h-1zm62 0h1v1h-1zm76 0h1v1h-1zm3 0h1v1h-1zm28 0h1v1h-1zm9 0h1v1h-1zm15 0h1v1h-1zm6 0h1v1h-1zM27 95h1v1h-1zm51 0h1v1h-1zm70 0h1v1h-1zm24 0h1v1h-1zm-24 1h1v1h-1zm8 0h1v1h-1zm28 0h1v2h-1zm35 0h1v1h-1zm35 0h1v2h-1zM47 97h1v1h-1zm11 0h1v1h-1zm98 0h1v1h-1zm94 0h1v1h-1zm76 0h1v1h-1zM59 98h1v1h-1zm17 0h1v1h-1zm29 0h1v1h-1zm79 0h1v1h-1zm70 0h1v1h-1zM51 99h1v1h-1zm253 0h1v1h-1zm-256 1h1v1h-1zm41 0h1v1h-1zm59 0h1v1h-1zm8 0h1v1h-1zm143 0h1v1h-1zm3 0h1v1h-1zm23 0h1v1h-1zm-191 3h1v1h-1zm97 0h1v1h-1z" fill="#d4d4d4"/><path d="M45 43h1v1h-1zm33 1h1v1h-1zm-55 1h1v31h-1zm79 0h1v31h-1zm13 0h1v31h-1zm151 8h1v1h-1zm6 2h1v1h-1zm-78 1h1v1h-1zm98 1h1v1h-1zm-88 1h1v1h-1zm-8 2h1v1h-1zm67 3h1v1h-1zm-29 5h1v1h-1zm27 2h1v1h-1zm6 0h1v1h-1zm27 0h1v1h-1zM23 76h1v1h-1zm79 0h1v1h-1zm13 0h1v1h-1zm-37 2h1v1h-1zM31 89h1v1h-1zm191 0h1v1h-1zm15 0h1v1h-1zm20 0h1v1h-1zM15 90h1v1h-1zm102 0h1v1h-1zm92 0h1v1h-1zm12 0h1v1h-1zM23 92h1v1h-1zm34 0h1v1h-1zm1 0h1v1h-1zm36 0h1v1h-1zm76 0h1v1h-1zm14 0h1v1h-1zm94 0h1v1h-1zm9 0h1v1h-1zm1 0h1v1h-1zm35 0h1v1h-1zM34 93h1v1h-1zm121 0h1v1h-1zm155 0h1v1h-1zM48 94h1v1h-1zm27 0h1v1h-1zm99 0h1v1h-1zm16 0h1v1h-1zm33 0h1v1h-1zm20 0h1v1h-1zm48 0h1v1h-1zm-91 1h1v1h-1zM13 96h1v1h-1zm18 0h1v2h-1zm19 0h1v1h-1zm235 0h1v1h-1zm-1 1h1v1h-1zm5 0h1v1h-1zM31 98h1v1h-1zm23 0h1v1h-1zm100 0h1v1h-1zm13 0h1v1h-1zm26 0h2v1h-2zm2 0h1v1h-1zM19 99h1v1h-1zm212 0h1v1h-1zm18 0h1v1h-1zm45 0h1v1h-1zm-235 1h1v1h-1zm13 0h1v1h-1zm88 0h1v1h-1zm22 0h1v1h-1zm33 0h1v1h-1zm85 0h1v1h-1z" fill="#a2a2a2"/><path d="M26 44h1v1h-1zm277 12h1v1h-1zm-103 1h1v1h-1zm66 0h1v1h-1zm-33 4h1v1h-1zm4 0h1v1h-1zm-46 1h1v1h-1zm39 1h1v1h-1zm1 1h1v1h-1zm35 0h1v1h-1zm5 1h1v1h-1zm23 1h1v1h-1zm4 0h1v1h-1zm-106 1h1v1h-1zm70 3h1v1h-1zm4 0h1v1h-1zM26 78h1v1h-1zm14 1h1v1h-1zM12 89h1v1h-1zm112 0h1v1h-1zm112 0h1v1h-1zm66 1h1v1h-1zM24 92h1v1h-1zm10 0h1v1h-1zm7 0h1v1h-1zm6 0h1v1h-1zm18 0h1v1h-1zm60 0h1v1h-1zm11 0h1v1h-1zm5 0h1v1h-1zm3 0h1v1h-1zm41 0h1v2h-1zm13 0h1v1h-1zm3 0h1v1h-1zm32 0h1v1h-1zm44 0h1v1h-1zm3 0h1v1h-1zm26 0h1v1h-1zm-53 1h1v1h-1zm67 0h1v1h-1zM13 94h1v1h-1zm32 0h1v1h-1zm58 0h1v1h-1zm39 0h1v1h-1zm25 0h1v1h-1zm3 0h1v1h-1zm15 0h1v1h-1zm6 0h1v1h-1zm49 0h1v1h-1zm42 0h1v1h-1zm25 0h1v1h-1zm11 0h1v1h-1zM18 95h1v1h-1zm17 0h2v1h-2zm2 0h1v1h-1zm68 0h1v1h-1zm8 0h1v1h-1zm47 0h1v1h-1zm33 0h1v1h-1zm26 0h1v1h-1zM12 96h1v1h-1zm8 0h1v1h-1zm7 0h1v1h-1zm51 0h1v1h-1zm19 0h1v2h-1zm16 0h1v1h-1zm114 0h1v1h-1zM27 97h1v1h-1zm39 0h1v1h-1zm123 0h1v1h-1zm36 0h1v1h-1zm57 0h1v1h-1zm5 0h1v1h-1zm24 0h1v1h-1zM97 98h1v1h-1zm146 0h1v1h-1zM26 99h1v1h-1zm9 0h1v1h-1zm19 0h1v1h-1zm35 0h1v1h-1zm57 0h2v1h-2zm2 0h1v1h-1zm178 0h1v1h-1zm-306 1h1v1h-1zm9 0h1v1h-1zm16 0h1v1h-1zm62 0h1v1h-1zm19 0h1v1h-1zm112 0h1v1h-1zm9 0h1v1h-1zm9 0h1v1h-1zm-29 3h1v1h-1z" fill="#c8c8c8"/><path d="M68 42h1v1h-1zm85 0h1v1h-1zm15 0h1v1h-1zm-1 1h1v1h-1zM46 44h1v1h-1zm153 10h1v1h-1zm33 0h2v1h-2zm2 0h1v1h-1zm31 0h1v1h-1zm29 0h8v1h-8zm8 0h1v1h-1zm-39 1h1v1h-1zm-33 1h1v1h-1zm-37 2h1v1h-1zm36 0h1v1h-1zm7 0h1v1h-1zm25 1h1v1h-1zm0 1h1v1h-1zm-66 2h1v1h-1zm42 1h1v1h-1zm30 2h1v1h-1zm-65 1h1v2h-1zm0 2h1v1h-1zm25 0h1v1h-1zm8 1h1v1h-1zm25 0h1v1h-1zm-93 10h1v1h-1zM14 89h1v1h-1zm195 0h1v1h-1zm93 0h1v1h-1zM16 90h1v1h-1zm68 0h1v9h-1zm38 0h1v2h-1zm-3 1h1v7h-1zm66 0h1v1h-1zm53 0h1v1h-1zM11 92h1v1h-1zm9 0h1v1h-1zm35 0h1v1h-1zm14 0h1v1h-1zm7 0h1v1h-1zm16 0h1v1h-1zm15 0h1v1h-1zm15 0h1v1h-1zm4 0h1v1h-1zm8 0h1v1h-1zm14 0h1v1h-1zm66 0h1v1h-1zm7 0h1v1h-1zm10 0h1v1h-1zm7 0h1v1h-1zm52 0h1v1h-1zm9 0h1v1h-1zm26 0h1v1h-1zM53 93h1v1h-1zm24 0h1v1h-1zm249 0h1v1h-1zM28 94h1v1h-1zm22 0h1v1h-1zm20 0h1v1h-1zm43 0h1v1h-1zm15 0h1v1h-1zm117 0h1v1h-1zM9 95h1v1H9zm48 0h1v1h-1zm5 0h1v1h-1zm5 0h1v1h-1zm32 0h1v1h-1zm38 0h1v1h-1zm14 0h1v1h-1zm46 0h1v2h-1zm46 0h1v1h-1zm6 0h1v1h-1zm1 0h1v1h-1zm38 0h1v1h-1zm35 0h1v1h-1zM11 96h1v1h-1zm30 0h1v1h-1zm11 0h1v1h-1zm95 0h1v1h-1zm-69 1h1v1h-1zm35 0h1v2h-1zm53 0h1v1h-1zm31 0h1v1h-1zm3 0h1v1h-1zm11 0h1v1h-1zm8 0h1v1h-1zM27 98h1v1h-1zm92 0h1v1h-1zm18 0h1v2h-1zm24 0h2v1h-2zm2 0h2v1h-2zm2 0h1v1h-1zm25 0h1v1h-1zm10 0h1v1h-1zm14 0h1v1h-1zm11 0h1v1h-1zm24 0h1v1h-1zm44 0h1v1h-1zm28 0h1v1h-1zM62 99h1v1h-1zm22 0h1v1h-1zm20 0h1v1h-1zm9 0h1v1h-1zm9 0h1v1h-1zm65 0h1v1h-1zm8 0h1v1h-1zM9 100h1v1H9zm78 0h1v1h-1zm17 0h1v1h-1zm33 0h1v1h-1zm94 0h1v1h-1zm3 0h1v1h-1zm7 0h1v1h-1zm64 0h1v1h-1zm-292 1h1v1h-1zm9 0h1v1h-1zm1 0h1v1h-1zm14 0h1v1h-1zm1 0h1v1h-1zm37 0h1v1h-1zm34 0h1v1h-1zm1 0h1v1h-1zm53 0h1v1h-1zm9 0h1v1h-1zm20 0h1v1h-1zm51 0h1v1h-1zm35 0h1v1h-1zm8 0h1v1h-1zm1 0h1v1h-1zm36 0h1v1h-1zm-187 1h1v1h-1z" fill="#e6e6e6"/><path d="M25 43h1v1h-1zm19 0h1v1h-1zm35 0h1v1h-1zm37 0h1v1h-1zm36 0h1v1h-1zm46 10h1v1h-1zm5 0h1v1h-1zm88 3h1v1h-1zm0 1h1v1h-1zm9 3h1v1h-1zm-110 3h1v1h-1zm72 0h1v1h-1zm-72 1h1v1h-1zm82 1h1v1h-1zm-33 1h1v1h-1zM14 91h1v1h-1zm72 0h1v1h-1zm34 0h1v7h-1zm146 0h1v1h-1zm-84 1h1v1h-1zm1 0h1v1h-1zm33 0h1v1h-1zM47 93h1v1h-1zm5 0h1v1h-1zm98 0h1v1h-1zm12 0h1v1h-1zm90 0h1v1h-1zm46 0h1v1h-1zm-187 1h1v1h-1zm82 0h1v1h-1zm112 0h1v1h-1zM42 95h1v1h-1zm83 0h1v2h-1zm20 0h1v1h-1zm-89 1h1v1h-1zm117 0h1v1h-1zm45 0h1v1h-1zm57 0h1v1h-1zm14 0h1v1h-1zm26 0h1v1h-1zM50 97h1v1h-1zm10 0h1v1h-1zm65 0h1v1h-1zm69 0h1v1h-1zm-74 1h1v1h-1zm63 0h1v1h-1zM65 99h1v1h-1zm46 0h1v1h-1zm62 0h1v1h-1zm116 0h1v1h-1zm7 0h1v1h-1zm19 0h1v1h-1zm-277 1h1v1h-1zm134 0h1v1h-1zm18 0h1v1h-1zm78 0h1v1h-1zm-41 2h1v1h-1z" fill="#474848"/><path d="M24 45h1v1h-1zm240 8h1v1h-1zm-70 2h1v1h-1zm-2 2h1v1h-1zm76 1h1v1h-1zm4 4h1v1h-1zm-12 3h1v1h-1zm-56 1h1v1h-1zm19 0h1v1h-1zm76 1h1v1h-1zm-96 3h1v1h-1zM58 77h1v1h-1zm43 0h1v1h-1zM12 90h1v1h-1zm44 3h1v1h-1zm98 0h1v1h-1zm68 0h1v1h-1zm6 0h1v1h-1zm9 0h1v1h-1zm87 0h1v1h-1zm-156 2h1v1h-1zm137 0h1v1h-1zm16 0h1v1h-1zm-95 1h1v1h-1zm61 0h1v1h-1zm-158 1h1v1h-1zm88 0h1v1h-1zm77 1h1v1h-1zm-163 1h1v1h-1zm18 0h1v1h-1zm67 0h1v1h-1zm13 0h1v1h-1zm48 0h1v1h-1zm8 0h1v1h-1zm36 0h1v1h-1zm-308 1h1v1h-1zm44 0h1v1h-1zm45 0h1v1h-1zm8 0h1v1h-1zm53 0h1v1h-1zm109 0h1v1h-1zm6 0h1v1h-1z" fill="#252626"/><path d="M26 45h1v32h-1zm172 9h1v1h-1zm5 0h1v1h-1zm28 0h1v1h-1zm4 0h1v1h-1zm68 0h1v1h-1zm-10 3h1v1h-1zm7 0h2v1h-2zm2 0h1v1h-1zm-41 1h1v1h-1zm38 1h1v1h-1zm-66 1h1v1h-1zm62 0h1v1h-1zm-33 2h1v1h-1zm-71 1h1v1h-1zm35 0h1v1h-1zm38 0h1v1h-1zm7 0h1v1h-1zm-80 1h1v1h-1zm10 2h1v1h-1zm37 0h1v1h-1zM26 77h1v1h-1zM13 89h1v1h-1zm113 0h1v1h-1zm95 0h1v1h-1zm37 0h1v1h-1zM16 91h1v1h-1zm286 0h1v2h-1zM8 92h1v1H8zm6 0h1v1h-1zm19 0h1v1h-1zm9 0h1v1h-1zm4 0h1v1h-1zm89 0h1v1h-1zm15 0h1v1h-1zm102 0h1v1h-1zm63 0h1v1h-1zM8 93h1v1H8zm3 0h1v1h-1zm37 0h1v1h-1zm41 0h1v5h-1zm59 0h1v1h-1zm17 0h1v1h-1zm23 0h1v1h-1zm114 0h1v1h-1zM57 94h1v1h-1zm1 0h1v1h-1zm74 0h1v1h-1zm16 0h1v1h-1zm17 0h1v1h-1zm30 0h1v1h-1zm24 0h1v1h-1zm10 0h1v1h-1zm50 0h1v1h-1zM50 95h1v1h-1zm106 0h1v1h-1zm95 0h1v2h-1zm3 0h1v1h-1zm23 0h1v1h-1zm32 0h1v1h-1zm11 1h1v1h-1zM14 97h1v1h-1zm132 0h2v1h-2zm2 0h1v1h-1zm103 0h1v1h-1zM8 98h1v1H8zm81 0h1v1h-1zm59 0h1v1h-1zm8 0h1v1h-1zm55 0h1v1h-1zm35 0h1v1h-1zm50 0h1v1h-1zm-112 1h1v1h-1zm61 0h1v1h-1zm9 0h1v1h-1zm21 0h1v1h-1zm27 0h1v1h-1zm-287 1h1v1h-1zm51 0h1v1h-1zm31 0h1v1h-1zm3 0h1v1h-1zm145 0h1v1h-1zm75 0h1v1h-1zm-189 1h2v1h-2zm2 0h1v1h-1zm95 0h2v1h-2zm2 0h1v1h-1zm-100 2h1v1h-1z" fill="#d0d0d0"/><path d="M228 57h1v1h-1zm-28 1h1v1h-1zm94 0h1v1h-1zm-104 4h1v1h-1zm71 3h1v1h-1zm-67 5h1v1h-1zm-94 21h1v1h-1zm188 2h1v1h-1zm9 0h1v1h-1zm9 0h1v1h-1zm1 0h1v1h-1zM71 94h1v1h-1zm84 0h1v1h-1zm5 0h1v1h-1zm8 0h1v1h-1zm5 0h1v1h-1zm-33 1h1v1h-1zm33 0h1v1h-1zm69 0h1v2h-1zM51 96h1v1h-1zm26 0h1v1h-1zm72 0h1v1h-1zM43 97h1v1h-1zm12 0h1v1h-1zm187 0h1v1h-1zm6 0h1v1h-1zm27 0h1v1h-1zm49 0h1v1h-1zM19 98h1v1h-1zm-4 1h1v1h-1zm130 0h1v1h-1zm45 0h1v1h-1zm23 0h1v1h-1zm34 0h1v1h-1zm29 0h1v1h-1zm-265 1h1v1h-1zm150 0h1v1h-1zm148 0h1v1h-1zm-179 2h1v1h-1z" fill="#434343"/><path d="M10 42h1v1h-1zm35 0h1v1h-1zm12 0h1v1h-1zm45 0h1v1h-1zm-56 3h1v33h-1zm155 9h1v1h-1zm3 1h1v1h-1zm-7 3h1v1h-1zm35 1h1v1h-1zm63 3h1v1h-1zM46 78h1v1h-1zm53 12h1v1h-1zm144 0h1v1h-1zm-3 1h1v1h-1zM53 92h1v1h-1zm13 0h1v1h-1zm23 0h1v1h-1zm9 0h1v1h-1zm57 0h1v1h-1zm18 0h1v1h-1zm13 0h1v2h-1zm61 0h1v1h-1zm69 0h1v1h-1zM26 93h1v1h-1zm96 0h1v5h-1zm52 0h1v1h-1zm6 0h1v1h-1zm28 0h1v6h-1zm67 0h1v1h-1zm9 0h1v1h-1zm27 0h2v1h-2zm2 0h1v1h-1zM8 94h1v1H8zm178 0h1v3h-1zm140 0h1v1h-1zM56 95h1v1h-1zm230 0h1v1h-1zM62 96h1v2h-1zm7 0h1v1h-1zm65 0h1v1h-1zm3 0h1v1h-1zm56 0h1v1h-1zm47 0h1v2h-1zm44 0h1v1h-1zM69 97h1v1h-1zm68 0h1v1h-1zm49 0h1v1h-1zm42 0h1v1h-1zm71 0h1v1h-1zm17 0h1v2h-1zM11 98h1v1h-1zm27 0h1v1h-1zm9 0h1v1h-1zm15 0h1v1h-1zm11 0h1v1h-1zm4 0h1v2h-1zm31 0h1v1h-1zm14 0h1v1h-1zm6 0h1v1h-1zm16 0h1v1h-1zm28 0h2v1h-2zm2 0h1v1h-1zm18 0h1v1h-1zm48 0h1v1h-1zm11 0h1v1h-1zm23 0h1v1h-1zm6 0h1v1h-1zm29 0h2v1h-2zm2 0h1v1h-1zm-103 1h1v1h-1zm38 0h1v1h-1zm70 0h1v1h-1zm-239 1h1v1h-1zm7 0h1v1h-1zm35 0h1v1h-1zm13 0h1v1h-1zm33 0h1v1h-1zm3 0h1v1h-1zm32 0h1v1h-1zm16 0h1v1h-1zm13 0h1v1h-1zm-218 1h1v1h-1zm45 0h1v1h-1zm17 0h1v1h-1zm69 0h1v1h-1zm19 0h1v1h-1zm9 0h1v1h-1zm55 0h1v1h-1zm19 0h1v1h-1zm6 0h1v1h-1zm48 0h1v1h-1zm9 0h2v1h-2zm2 0h1v1h-1zm13 0h1v1h-1zm-97 1h1v1h-1zm8 0h1v1h-1zm-104 1h1v1h-1zm97 0h1v1h-1z" fill="#ebebeb"/><path d="M58 44h1v1h-1zm111 0h1v1h-1zM66 45h1v1h-1zm51 0h1v32h-1zm53 0h1v32h-1zm154 0h1v32h-1zM66 46h1v5h-1zm0 5h1v5h-1zm200 0h3v1h-3zm3 0h1v1h-1zm-72 1h1v1h-1zm7 0h1v1h-1zm25 1h1v1h-1zm-1 1h1v1h-1zM66 56h1v5h-1zm161 0h1v1h-1zm46 1h1v1h-1zm-83 1h1v1h-1zm36 0h1v1h-1zm46 0h1v2h-1zm18 0h1v1h-1zm-84 1h1v1h-1zm85 0h1v1h-1zm-92 1h1v1h-1zm6 0h1v1h-1zm20 0h1v1h-1zM66 61h1v5h-1zm193 1h1v1h-1zm42 0h1v1h-1zm-97 2h1v1h-1zm20 0h1v1h-1zm15 1h1v1h-1zM66 66h1v5h-1zm123 0h1v1h-1zm52 1h1v1h-1zm16 0h1v1h-1zm16 0h1v1h-1zm-83 1h1v1h-1zm15 1h1v1h-1zm25 0h1v1h-1zm1 0h1v1h-1zm69 0h1v1h-1zm-96 1h1v1h-1zm37 0h1v1h-1zm16 0h1v1h-1zM66 71h1v5h-1zm170 0h1v1h-1zm4 0h1v1h-1zm18 0h1v1h-1zm-34 1h2v1h-2zm2 0h1v1h-1zm10 0h1v1h-1zm3 0h1v1h-1zm28 0h1v1h-1zm27 0h3v1h-3zm3 0h1v1h-1zM66 76h1v1h-1zm51 1h1v1h-1zm53 0h1v1h-1zm154 0h1v1h-1zM46 94h1v1h-1zm254 0h1v1h-1z" fill="#000303"/><path d="M168 44h1v1h-1zM68 45h1v31h-1zm131 8h1v1h-1zm3 0h1v1h-1zm91 0h1v1h-1zm10 0h1v1h-1zm-67 1h1v1h-1zm27 0h1v1h-1zm-71 4h1v1h-1zm36 0h1v1h-1zm9 0h1v1h-1zm-11 4h1v1h-1zm-23 3h1v1h-1zm-12 1h1v1h-1zm43 3h1v1h-1zm-32 1h1v1h-1zM68 76h1v1h-1zm100 2h1v1h-1zM86 90h1v1h-1zm99 0h1v1h-1zM11 91h1v1h-1zm20 0h1v1h-1zm180 0h1v1h-1zm3 0h1v1h-1zM35 92h2v1h-2zm2 0h1v1h-1zm48 0h1v1h-1zm-9 1h1v1h-1zm155 0h2v1h-2zm2 0h1v1h-1zm85 0h1v1h-1zM31 94h1v1h-1zm61 0h1v1h-1zm49 0h1v2h-1zm3 0h1v1h-1zm7 0h1v1h-1zm82 0h1v1h-1zm20 0h1v1h-1zm41 0h1v1h-1zM48 95h1v1h-1zm59 0h1v1h-1zm-65 1h1v1h-1zm1 0h2v1h-2zm2 0h1v1h-1zm27 0h3v1h-3zm3 0h1v1h-1zm34 0h1v1h-1zm32 0h2v1h-2zm2 0h1v1h-1zm24 0h1v1h-1zm4 0h1v1h-1zm107 0h1v1h-1zm1 0h1v1h-1zm21 0h1v1h-1zm8 0h1v1h-1zm13 0h1v1h-1zM61 97h1v2h-1zm172 0h1v1h-1zm34 0h1v1h-1zm37 0h1v1h-1zM48 98h1v1h-1zm204 0h1v1h-1zm32 0h1v1h-1zM61 99h1v1h-1zm10 0h1v1h-1zm41 0h1v1h-1zm56 0h1v1h-1zm139 0h2v1h-2zm2 0h1v1h-1zm-285 1h1v1h-1zm87 0h1v1h-1zm9 0h1v1h-1zm5 0h1v1h-1zm24 0h1v1h-1zm84 0h1v1h-1zm9 0h1v1h-1zm46 0h2v1h-2zm2 0h1v1h-1zm11 0h1v1h-1z" fill="#797979"/><path d="M154 42h1v1h-1zm13 0h1v1h-1zM22 43h1v36h-1zm92 0h1v34h-1zm153 11h1v1h-1zm1 0h1v1h-1zm-70 3h1v1h-1zm32 0h1v1h-1zm69 0h1v1h-1zm-3 1h1v1h-1zm-103 1h1v1h-1zm36 0h1v1h-1zm67 0h1v1h-1zm-104 1h1v1h-1zm36 0h1v1h-1zm-33 1h1v1h-1zm39 1h1v2h-1zm36 0h1v1h-1zm-41 1h1v1h-1zm66 0h1v1h-1zm-69 1h1v1h-1zm8 0h1v2h-1zm33 0h1v1h-1zm-71 2h1v1h-1zm29 0h1v1h-1zm3 0h1v1h-1zm6 0h1v1h-1zm-41 1h1v1h-1zm34 0h1v1h-1zm35 0h1v1h-1zm35 0h1v2h-1zm-102 2h1v1h-1zm102 0h1v1h-1zm-183 8h1v2h-1zm-92 2h1v1h-1zm92 0h1v1h-1zM9 80h1v1H9zm1 0h1v1h-1zm14 0h1v1h-1zm1 0h1v1h-1zm16 0h3v1h-3zm3 0h1v1h-1zm13 0h11v1H57zm11 0h1v1h-1zm11 0h23v1H79zm23 0h1v1h-1zm14 0h37v1h-37zm37 0h1v1h-1zm15 0h157v1H168zm157 0h1v1h-1zM34 89h2v1h-2zm2 0h1v1h-1zm48 0h1v1h-1zm3 0h1v1h-1zm13 0h1v1h-1zm1 0h1v1h-1zm26 0h1v1h-1zm81 0h1v1h-1zm12 0h1v2h-1zM34 90h1v1h-1zm68 0h1v1h-1zm197 0h1v1h-1zM22 91h1v1h-1zm1 0h1v1h-1zm11 0h1v1h-1zm4 0h1v1h-1zm19 0h1v1h-1zm1 0h1v1h-1zm10 0h1v1h-1zm41 0h1v1h-1zm34 0h1v1h-1zm19 0h1v1h-1zm1 0h1v1h-1zm39 0h1v1h-1zm18 0h1v1h-1zm9 0h1v1h-1zm49 0h1v1h-1zm1 0h1v1h-1zm8 0h1v1h-1zm1 0h1v1h-1zm9 0h2v1h-2zm2 0h1v1h-1zm9 0h1v1h-1zM50 92h1v1h-1zm11 0h2v1h-2zm2 0h1v1h-1zm66 0h1v1h-1zm59 0h1v1h-1zm6 0h1v1h-1zm18 0h1v1h-1zm7 0h1v1h-1zm20 0h1v1h-1zm14 0h1v1h-1zm31 0h1v1h-1zm35 0h1v2h-1zm7 0h1v1h-1zM54 93h1v1h-1zm43 0h1v1h-1zm98 0h1v1h-1zm30 0h1v1h-1zm29 0h1v1h-1zM15 94h1v1h-1zm12 0h1v1h-1zm27 0h1v1h-1zm44 0h1v1h-1zm82 0h1v1h-1zm94 0h1v1h-1zm45 0h1v1h-1zM44 95h1v1h-1zm50 0h1v1h-1zm37 0h1v1h-1zm7 0h1v1h-1zm58 0h1v2h-1zm5 0h1v1h-1zm23 0h1v1h-1zm84 0h1v1h-1zm5 0h1v1h-1zM17 96h1v1h-1zm21 0h1v1h-1zm56 0h1v1h-1zm189 0h1v1h-1zm16 0h1v1h-1zm4 0h1v1h-1zm10 0h1v1h-1zm13 0h1v1h-1zM17 97h1v1h-1zm7 0h1v1h-1zm14 0h1v1h-1zm15 0h1v2h-1zm51 0h1v1h-1zm28 0h1v1h-1zm32 0h1v1h-1zm32 0h1v1h-1zm19 0h1v1h-1zm14 0h1v1h-1zm-125 1h1v1h-1zm5 0h1v1h-1zm61 0h1v1h-1zm16 0h1v1h-1zm5 0h1v1h-1zm82 0h1v1h-1zm46 0h1v2h-1zM34 99h1v1h-1zm13 0h1v1h-1zm6 0h1v1h-1zm240 0h1v1h-1zm-258 1h1v1h-1zm5 0h2v1h-2zm2 0h1v1h-1zm9 0h1v1h-1zm3 0h1v1h-1zm9 0h1v1h-1zm8 0h1v1h-1zm60 0h1v1h-1zm28 0h1v1h-1zm135 0h1v1h-1zm25 0h1v1h-1zm-309 1h1v1h-1zm10 0h1v1h-1zm9 0h1v1h-1zm16 0h1v1h-1zm3 0h1v1h-1zm7 0h1v1h-1zm11 0h1v1h-1zm6 0h1v1h-1zm17 0h1v1h-1zm8 0h1v1h-1zm10 0h1v1h-1zm10 0h1v1h-1zm9 0h1v1h-1zm11 0h1v1h-1zm8 0h1v1h-1zm3 0h1v1h-1zm8 0h1v1h-1zm17 0h1v1h-1zm16 0h1v1h-1zm26 0h1v1h-1zm6 0h1v1h-1zm13 0h1v1h-1zm4 0h1v1h-1zm7 0h2v1h-2zm2 0h1v1h-1zm4 0h1v1h-1zm3 0h2v1h-2zm2 0h1v1h-1zm25 0h1v1h-1zm4 0h1v1h-1zm10 0h1v1h-1zm7 0h1v1h-1zm8 0h1v1h-1zm10 0h1v1h-1zm-189 3h2v1h-2zm2 0h1v1h-1zm95 0h2v1h-2zm2 0h1v1h-1z" fill="#f9f9f9"/><path d="M8 43h1v1H8zm32 2h1v32h-1zm191 16h1v1h-1zm-3 6h1v1h-1zm-32 3h1v1h-1zM40 77h1v1h-1zm143 12h1v1h-1zm33 1h1v1h-1zm22 0h1v1h-1zM29 91h1v1h-1zm6 0h2v1h-2zm2 0h1v1h-1zm185 0h1v1h-1zm15 0h1v1h-1zM52 92h1v1h-1zm4 0h1v1h-1zm47 0h1v1h-1zm69 0h1v1h-1zm9 0h1v1h-1zm41 0h1v1h-1zm8 0h1v2h-1zm7 0h1v1h-1zm72 0h1v1h-1zm15 0h1v1h-1zm-156 1h1v1h-1zm53 0h1v1h-1zm17 0h1v4h-1zM22 94h1v1h-1zm1 0h1v1h-1zm87 0h1v1h-1zm23 0h1v1h-1zm88 0h1v2h-1zm9 0h1v1h-1zm55 0h1v1h-1zM41 95h1v1h-1zm18 0h1v2h-1zm13 0h1v1h-1zm72 0h1v2h-1zm81 0h1v1h-1zM29 96h1v2h-1zm6 0h1v2h-1zm95 0h1v1h-1zm91 0h1v1h-1zm26 0h1v1h-1zM46 97h1v1h-1zm13 0h1v1h-1zm49 0h1v1h-1zm4 0h1v1h-1zm32 0h1v1h-1zm26 0h2v1h-2zm2 0h1v1h-1zm59 0h1v1h-1zm7 0h1v1h-1zm42 0h1v1h-1zm27 0h2v1h-2zm2 0h1v1h-1zM29 98h1v1h-1zm6 0h1v1h-1zm35 0h1v1h-1zm56 0h1v1h-1zm6 0h1v1h-1zm26 0h1v1h-1zm131 0h1v1h-1zM16 99h1v1h-1zm41 0h1v1h-1zm9 0h1v1h-1zm60 0h1v1h-1zm39 0h1v1h-1zm108 0h1v1h-1zm14 0h1v1h-1zm-172 1h1v1h-1zm30 0h1v1h-1zm78 0h1v1h-1zm13 0h1v1h-1zm22 0h1v1h-1zm23 0h1v1h-1zm-48 1h1v1h-1z" fill="#bbb"/><path d="M168 43h1v1h-1zM23 44h1v1h-1zm34 0h1v1h-1zm45 0h1v1h-1zm98 9h1v1h-1zm1 0h1v1h-1zm102 4h1v1h-1zm-66 2h1v1h-1zm62 2h1v1h-1zm-39 5h1v1h-1zm66 11h1v1h-1zM10 78h1v1h-1zm13 0h1v1h-1zm34 0h1v1h-1zm45 0h1v1h-1zm13 0h1v1h-1zm-47 1h1v1h-1zM32 89h1v1h-1zm152 0h1v1h-1zM33 90h1v1h-1zm91 0h1v1h-1zm112 0h1v1h-1zM9 91h1v1H9zm4 0h1v1h-1zm199 0h1v1h-1zm29 0h1v1h-1zm2 1h1v1h-1zM25 93h1v1h-1zm39 0h1v1h-1zm60 0h1v5h-1zm76 0h1v1h-1zm40 0h1v1h-1zm36 0h1v1h-1zM21 94h1v1h-1zm142 0h1v1h-1zm9 0h1v1h-1zm12 0h1v1h-1zm125 0h1v1h-1zm-155 1h1v1h-1zm28 0h1v1h-1zm109 0h1v3h-1zm25 0h1v1h-1zM25 96h1v1h-1zm22 0h1v1h-1zm17 0h1v3h-1zm86 0h1v1h-1zm91 0h1v2h-1zm-91 1h1v1h-1zm19 0h1v1h-1zm126 0h1v1h-1zm-171 1h1v1h-1zm36 0h1v1h-1zm81 0h1v1h-1zm50 0h1v1h-1zm13 0h1v1h-1zm20 0h1v1h-1zM12 99h1v1h-1zm10 0h1v1h-1zm9 0h1v1h-1zm14 0h1v1h-1zm19 0h1v1h-1zm233 0h1v1h-1zm-261 1h1v1h-1zm14 0h1v1h-1zm26 0h1v1h-1zm9 0h1v1h-1zm114 0h1v1h-1zm107 0h1v1h-1zm-176 1h1v1h-1z" fill="#959595"/><path d="M41 45h1v32h-1zm251 8h1v1h-1zm-87 5h1v1h-1zm97 0h1v1h-1zm-3 6h1v1h-1zm-41 5h1v1h-1zm-31 1h1v1h-1zm-31 1h1v1h-1zM41 77h1v1h-1zm-9 13h1v1h-1zm-10 3h1v1h-1zm1 0h1v1h-1zm70 0h1v1h-1zm155 0h1v1h-1zm61 0h1v1h-1zm-120 1h1v1h-1zm29 0h1v1h-1zm-112 1h1v1h-1zm147 0h1v1h-1zm28 0h1v1h-1zM58 96h1v1h-1zm7 0h1v1h-1zm211 0h1v1h-1zm10 0h1v1h-1zm24 0h1v1h-1zM45 97h1v1h-1zm104 0h1v1h-1zm98 0h1v1h-1zm-122 1h1v1h-1zm176 0h1v1h-1zm-199 1h1v1h-1zm38 0h1v1h-1zm90 0h1v1h-1zm-174 1h1v1h-1zm17 0h1v1h-1zm213 0h1v1h-1zm-55 2h1v1h-1z" fill="#404040"/></svg>