<svg xmlns="http://www.w3.org/2000/svg" role="img" viewBox="-2.40 -2.40 124.67 124.67"><title>Chaos Software LTD logo</title><path fill="#E1161C" d="M0 0h120v120H0z"/><path fill="#FFF" d="M105.49467 58.12008c-2.33033-.26377-4.29995-1.15307-4.29995-1.93937 0-1.2142 1.31615-1.39508 2.10216-1.39508.74323 0 2.47461.16915 2.47461 1.73506 0 .13482.09899.24368.21978.24368h5.07002c.12163 0 .21977-.10886.21977-.24368 0-3.8394-3.28326-6.52069-7.98418-6.52069-4.6271 0-7.98587 2.65701-7.98587 6.31636 0 3.16615 3.95268 5.33496 7.67214 5.76788 1.6475.206 2.63315.97639 2.63315 1.60024 0 .99396-1.19536 1.5299-2.31942 1.5299-.44291 0-2.64825-.08375-2.64825-1.73422 0-.13565-.09899-.24452-.22062-.24452h-5.11447c-.12164 0-.21978.10887-.21978.24452 0 4.28068 4.12714 6.51984 8.20312 6.51984S111.5 67.76084 111.5 63.48016c0-3.25825-3.0165-5.03936-6.00533-5.36008m-65.56041-8.1218c-1.48656 0-2.8783.47065-4.05445 1.36587V41.24369c0-.13482-.10906-.24369-.24496-.24369h-4.9588c-.13506 0-.24496.10887-.24496.2437v27.96627c0 .13483.1099.24369.24496.24369h4.9588c.1359 0 .24496-.10886.24496-.2437v-9.24532c0-2.40847 1.25333-4.83956 4.05445-4.83956 2.80111 0 4.05444 2.44784 4.05444 4.8739v9.21099c0 .13483.10906.24369.24497.24369h4.95963c.13422 0 .24412-.10886.24412-.2437v-9.21099c0-5.70211-4.08549-10.00069-9.50316-10.00069m26.2723 10.00214c0 2.68727-2.11559 4.87376-4.71519 4.87376-2.5996 0-4.71518-2.1865-4.71518-4.87376s2.11558-4.87376 4.71518-4.87376 4.71519 2.1865 4.71519 4.87376M61.39156 50c-5.54817 0-10.0637 4.48604-10.0637 10.00042 0 5.51354 4.51553 9.99958 10.0637 9.99958 1.84127 0 3.63809-.93874 4.92656-2.54407l.02098 1.75774c.00167.13399.11072.24117.2441.24117h4.62962c.13422 0 .24327-.1097.24327-.24368v-9.21074C71.45609 54.48604 66.94223 50 61.39155 50m26.70281 10.00042c0 2.68727-2.08623 4.87376-4.64975 4.87376-2.56354 0-4.64891-2.1865-4.64891-4.87376s2.08537-4.87376 4.64891-4.87376c2.56352 0 4.64975 2.1865 4.64975 4.87376M83.44461 50c-5.56746 0-10.09809 4.48604-10.09809 10.00042 0 5.51354 4.53063 9.99958 10.0981 9.99958 5.56743 0 10.09807-4.48604 10.09807-9.99958C93.5427 54.48604 89.01205 50 83.44461 50M20.46358 64.48212c-2.57516 1.11763-5.58557-.14785-6.5587-2.8234-.85397-2.35092.25239-5.01655 2.51889-6.08049 1.69304-.79465 3.59462-.53858 4.9906.48654.13156.09582.3012.12225.45015.05617l4.18462-1.81564c.27142-.1173.35582-.46423.1688-.69057-2.88628-3.4735-7.90584-4.69769-12.20631-2.5475-4.58679 2.29391-6.7002 7.78708-4.83503 12.55664 2.07783 5.31474 8.1359 7.79782 13.3284 5.54438 4.18296-1.81481 6.49415-6.1383 5.93973-10.43867-.03724-.29242-.34838-.46672-.62062-.34941l-4.18462 1.81646c-.14895.06526-.2466.20568-.2648.36759-.19694 1.6719-1.25282 3.1976-2.91111 3.9179"/></svg>