<svg xmlns="http://www.w3.org/2000/svg" role="img" viewBox="-0.31 -4.06 315.38 86.63"><title>Chislitel Lab logo</title><style>svg {enable-background:new 0 0 311.55 78.48}</style><path fill="#7873f5" d="M50.12 29.18v7.23c0 1.29-.51 2.53-1.42 3.44l-5.12 5.12c-.91.91-2.15 1.42-3.44 1.42h-7.23c-1.29 0-2.53-.51-3.44-1.42l-5.12-5.12c-.91-.91-1.42-2.15-1.42-3.44v-7.23c0-1.29.51-2.53 1.42-3.44l5.12-5.12c.91-.91 2.15-1.42 3.44-1.42h7.23c1.29 0 2.53.51 3.44 1.42l5.12 5.12c.91.91 1.42 2.15 1.42 3.44zM21.63 4.36L8.09 17.91c-1.41 1.41-2.2 3.32-2.2 5.31v19.16c0 1.99.79 3.9 2.2 5.31l13.55 13.55c1.41 1.41 3.32 2.2 5.31 2.2H46.1c1.99 0 3.9-.79 5.31-2.2l13.55-13.55c1.41-1.41 2.2-3.32 2.2-5.31V23.22c0-1.99-.79-3.9-2.2-5.31L51.41 4.36c-1.41-1.41-3.32-2.2-5.31-2.2H26.95c-2 0-3.91.79-5.32 2.2zm27.5 70.26v-5.2c0-1.07-.87-1.95-1.95-1.95H25c-1.07 0-1.95.87-1.95 1.95v5.2c0 1.07.87 1.95 1.95 1.95h22.18c1.08 0 1.95-.88 1.95-1.95z"/><path fill="#fff" d="M103.57 33.12c0-.48.39-.87.87-.87h5.39c.48 0 .87.39.87.87v21.84c0 .48-.39.87-.87.87h-5.37c-.49 0-.89-.4-.89-.89v-6.91H93.36c-3.03 0-5.49-2.46-5.49-5.49V33.1c0-.26.07-.46.21-.62.14-.15.35-.23.63-.23h5.41c.47 0 .85.38.85.85v7.07c0 .75.61 1.36 1.36 1.36h7.24l.01-4.06v-4.35zm17.5 11.78L129 32.87c.14-.2.27-.36.37-.45.11-.1.23-.14.38-.14h5.52c.19 0 .38.07.55.2.17.13.26.34.26.61v21.94c0 .26-.07.46-.21.6-.14.14-.34.21-.6.21h-5.48c-.54 0-.81-.27-.81-.81V43.38l-7.87 11.91c-.13.18-.24.31-.35.4-.1.09-.27.13-.5.13h-5.52c-.51 0-.77-.27-.77-.81V33.06c0-.24.08-.44.23-.59.15-.15.35-.22.58-.22h5.48c.19 0 .38.07.55.2.17.13.26.34.26.61V44.9zm33.47 3.21c.23 0 .39.08.48.25l2.64 3.87c.15.26.22.47.21.64-.01.17-.13.35-.35.54-.42.37-.93.73-1.51 1.08-.58.35-1.21.65-1.89.91-.67.26-1.37.47-2.08.63-.71.15-1.41.23-2.11.23-1.67-.01-3.24-.32-4.72-.92-1.48-.6-2.76-1.44-3.86-2.52s-1.96-2.36-2.6-3.85c-.63-1.49-.95-3.12-.95-4.89 0-1.67.31-3.23.94-4.7.63-1.46 1.49-2.74 2.57-3.83 1.08-1.09 2.35-1.95 3.81-2.59 1.46-.64 3.01-.95 4.67-.95.87 0 1.66.06 2.37.18.71.12 1.37.3 1.98.52.62.22 1.2.5 1.74.84.54.33 1.09.71 1.63 1.14.15.13.25.26.3.39.04.13.02.29-.09.45l-2.64 4.08c-.09.14-.24.21-.44.21-.18 0-.33-.04-.46-.13-.81-.56-1.55-.95-2.23-1.16-.68-.21-1.39-.32-2.12-.32-.71 0-1.38.14-2.02.43-.64.29-1.21.69-1.69 1.21-.49.52-.88 1.14-1.16 1.86-.29.72-.43 1.51-.43 2.39 0 .87.14 1.66.41 2.38.28.71.65 1.32 1.13 1.84.47.51 1.04.91 1.69 1.18.65.28 1.35.41 2.1.41.44 0 .85-.05 1.25-.15.4-.1.78-.23 1.14-.39.36-.16.69-.34.99-.53.3-.19.57-.37.8-.54.16-.13.33-.19.5-.19zm23.57-9.32l-6.97-.02v9.4c0 .99-.22 1.96-.66 2.92-.44.96-1.06 1.81-1.85 2.57-.79.76-1.73 1.37-2.81 1.83-1.08.46-2.26.69-3.53.69-.41 0-.73-.03-.96-.08-.23-.05-.4-.12-.52-.19-.12-.08-.19-.16-.21-.26s-.04-.19-.04-.28v-4.25c0-.1.01-.21.02-.33.01-.12.05-.22.12-.32.06-.1.17-.18.31-.25.14-.07.34-.11.6-.11.47 0 .87-.09 1.18-.28.31-.19.56-.44.75-.75.19-.31.32-.67.39-1.08.08-.4.12-.82.12-1.26V33.12c0-.58.29-.87.87-.87h19.45c.23 0 .42.07.58.22.15.15.23.34.23.59v21.96c0 .54-.27.81-.81.81h-5.45c-.54 0-.81-.27-.81-.81V38.79zm18.53 6.11l7.93-12.03c.14-.2.27-.36.37-.45.11-.1.23-.14.38-.14h5.52c.19 0 .37.07.55.2.17.13.26.34.26.61v21.94c0 .26-.07.46-.21.6-.14.14-.34.21-.6.21h-5.48c-.54 0-.81-.27-.81-.81V43.38l-7.87 11.91c-.13.18-.24.31-.35.4-.1.09-.27.13-.5.13h-5.52c-.51 0-.77-.27-.77-.81V33.06c0-.24.08-.44.23-.59.15-.15.35-.22.58-.22h5.48c.19 0 .37.07.55.2.17.13.26.34.26.61V44.9zm37.83-12.65c.5 0 .75.26.75.77v4.79c0 .19-.03.35-.09.47s-.13.22-.21.3c-.08.08-.17.13-.27.15-.1.03-.18.04-.24.04h-6.43v15.88c0 .32-.09.6-.27.83s-.43.35-.75.35h-5.25c-.19 0-.34-.04-.45-.12-.11-.08-.19-.18-.25-.3s-.1-.25-.12-.38c-.02-.13-.03-.26-.03-.38V38.78h-6.29c-.56 0-.85-.3-.85-.9v-4.7c0-.24.08-.46.25-.65.17-.19.37-.29.6-.29l19.9.01zm43.67 6.54l-6.97-.02v9.4c0 .99-.22 1.96-.66 2.92-.44.96-1.06 1.81-1.85 2.57-.79.76-1.73 1.37-2.81 1.83-1.08.46-2.26.69-3.53.69-.41 0-.73-.03-.96-.08-.23-.05-.4-.12-.52-.19-.12-.08-.19-.16-.21-.26s-.04-.19-.04-.28v-4.25c0-.1.01-.21.02-.33.01-.12.05-.22.12-.32.06-.1.17-.18.31-.25.14-.07.34-.11.6-.11.47 0 .87-.09 1.18-.28.31-.19.56-.44.75-.75.19-.31.32-.67.39-1.08.08-.4.12-.82.12-1.26V33.12c0-.58.29-.87.87-.87h19.45c.23 0 .42.07.58.22.15.15.23.34.23.59v21.96c0 .54-.27.81-.81.81h-5.45c-.54 0-.81-.27-.81-.81V38.79zm12.54 17.04c-.58 0-.99-.12-1.25-.37-.26-.24-.39-.64-.39-1.19V33.06c0-.27.09-.47.26-.61.17-.13.36-.2.55-.2h5.46c.23 0 .42.07.58.22.15.15.23.34.23.59v7.22h5.93c1 0 1.93.22 2.78.66.85.44 1.59 1.02 2.21 1.74.62.72 1.11 1.54 1.47 2.47.36.93.54 1.88.54 2.84 0 .99-.18 1.95-.55 2.89-.37.94-.87 1.77-1.5 2.5-.64.73-1.39 1.32-2.25 1.77s-1.81.67-2.82.67h-11.25zm11.26-8.87c-.15-.3-.37-.54-.64-.74-.27-.2-.58-.35-.93-.44-.35-.1-.72-.14-1.11-.14h-3.14v4.85h3.14c.4 0 .77-.05 1.13-.16.35-.11.66-.27.92-.48.26-.21.47-.47.63-.78.15-.31.23-.67.23-1.08 0-.4-.08-.74-.23-1.03zm-45.92 8.88h-17.86c-.49 0-.89-.4-.89-.89V33.18c0-.49.4-.89.89-.89h17.86c.49 0 .89.4.89.89v4.72c0 .49-.4.89-.89.89h-11.66v2.5h8.66c.49 0 .89.4.89.89v3.49c0 .49-.4.89-.89.89h-8.66v2.73h11.66c.49 0 .89.4.89.89v4.77c0 .5-.4.89-.89.89zM97.45 17.05l-4.67-.01v5.79c0 .48-.1.95-.3 1.4-.2.46-.48.87-.85 1.23s-.81.65-1.32.87c-.51.22-1.09.33-1.72.33-.18 0-.31-.01-.41-.04-.09-.03-.17-.06-.22-.1-.05-.04-.08-.08-.09-.12-.01-.04-.01-.08-.01-.11v-1.56c0-.04 0-.08.01-.13s.02-.1.05-.14c.03-.05.08-.09.14-.12.07-.03.16-.05.27-.05.29 0 .55-.05.76-.16.21-.1.39-.25.52-.43.14-.18.24-.39.3-.63.07-.24.1-.5.1-.77v-7.43c0-.27.13-.4.39-.4h9.38c.11 0 .2.03.27.1s.1.16.1.27v11.27c0 .26-.12.38-.37.38H97.8c-.25 0-.37-.13-.37-.38v-9.06zm24.93 9.06c0 .26-.12.39-.37.39h-1.68c-.17 0-.31-.06-.42-.17-.11-.11-.16-.25-.16-.42v-.78c-.51.5-1.08.89-1.72 1.17-.64.28-1.31.42-2.02.42-.8 0-1.56-.15-2.3-.46-.73-.3-1.38-.73-1.94-1.28s-1.01-1.2-1.34-1.95c-.33-.76-.5-1.58-.5-2.49 0-.85.16-1.65.48-2.4.32-.75.76-1.41 1.3-1.97.55-.56 1.19-1 1.93-1.33.74-.33 1.53-.49 2.36-.49.82 0 1.54.14 2.17.41.63.27 1.2.7 1.71 1.28l.17-1.18c.02-.13.06-.23.11-.29.05-.07.14-.1.27-.1H122c.25 0 .37.13.37.39v11.25zm-2.95-7.02c-.19-.45-.44-.85-.77-1.19-.32-.34-.7-.61-1.14-.81-.43-.2-.9-.3-1.4-.3-.48 0-.93.09-1.36.28-.43.19-.8.45-1.12.78s-.57.73-.76 1.19c-.19.46-.28.96-.28 1.5 0 .52.09 1.01.27 1.47.18.45.43.85.75 1.19.32.34.69.6 1.12.79.43.19.89.29 1.39.29.51 0 .98-.1 1.42-.3.44-.2.82-.47 1.14-.81.32-.34.57-.74.75-1.19.18-.45.27-.93.27-1.44 0-.51-.09-.99-.28-1.45zm15.9 7.16c-.7-.27-1.33-.66-1.88-1.17-.55-.51-1-1.13-1.34-1.86s-.51-1.55-.51-2.47v-5.3c0-2.61 2.12-4.73 4.73-4.73h4.75l.03 2.51h-4.51c-1.27 0-2.3 1.03-2.31 2.3v1.12c.16-.23.37-.44.62-.63s.52-.36.81-.5c.29-.14.58-.25.88-.33.3-.08.59-.12.85-.12.8 0 1.55.15 2.25.46.7.31 1.31.72 1.83 1.25s.94 1.14 1.24 1.84c.3.7.45 1.44.45 2.22 0 .78-.15 1.52-.45 2.22-.3.7-.71 1.32-1.23 1.86s-1.13.96-1.83 1.28c-.7.31-1.45.47-2.25.47-.71-.02-1.43-.15-2.13-.42zm.81-8.56c-.39.19-.73.44-1.02.76-.29.32-.51.69-.68 1.1-.17.42-.25.86-.25 1.32s.08.91.25 1.33c.17.42.39.79.68 1.11.29.32.63.57 1.02.76.39.19.81.28 1.25.28.44 0 .85-.09 1.24-.28.39-.19.72-.44 1.02-.76.29-.32.52-.69.69-1.11.17-.42.25-.86.25-1.33s-.08-.91-.25-1.32c-.17-.42-.4-.79-.69-1.1-.29-.32-.63-.57-1.02-.76s-.8-.28-1.24-.28c-.44 0-.86.09-1.25.28zm16 .43c.32-.75.76-1.4 1.32-1.96s1.21-1 1.96-1.32c.75-.32 1.55-.49 2.4-.49.86 0 1.66.16 2.42.49.76.32 1.42.77 1.99 1.32.57.56 1.01 1.21 1.34 1.96.33.75.49 1.55.49 2.4 0 .85-.16 1.65-.49 2.4-.33.75-.77 1.41-1.34 1.97-.57.56-1.23 1-1.98 1.33-.76.33-1.56.49-2.42.49-.85 0-1.65-.16-2.4-.49-.75-.33-1.41-.77-1.97-1.33s-1-1.22-1.32-1.97c-.32-.75-.49-1.55-.49-2.4.01-.85.17-1.65.49-2.4zm2.46 3.85c.17.45.41.84.72 1.17.31.33.68.6 1.1.79.43.2.9.29 1.42.29.52 0 1-.1 1.44-.29.43-.2.81-.46 1.12-.8.31-.34.55-.73.73-1.18.17-.45.26-.92.26-1.43s-.09-.98-.26-1.42c-.17-.44-.42-.83-.73-1.17-.31-.33-.69-.6-1.12-.79-.44-.19-.91-.29-1.43-.29-.51 0-.98.09-1.41.28-.43.19-.8.45-1.11.78-.31.33-.55.72-.72 1.17-.17.44-.26.92-.26 1.43-.01.53.08 1.01.25 1.46zm18.73-7.1c0-.26.13-.39.39-.39h1.34c.17 0 .3.05.39.15.09.1.15.23.18.4l.21 1.17c.5-.56 1.08-1 1.74-1.32.66-.33 1.37-.49 2.12-.49.8 0 1.56.15 2.27.44.72.29 1.35.71 1.89 1.25.54.54.97 1.18 1.29 1.92.32.75.48 1.57.48 2.47 0 .85-.15 1.65-.44 2.4-.29.75-.7 1.41-1.23 1.97s-1.15 1-1.88 1.32c-.73.32-1.52.49-2.38.49-.75 0-1.45-.15-2.08-.44-.63-.29-1.19-.69-1.66-1.19v4.72c0 .26-.12.39-.37.39h-1.86c-.26 0-.39-.13-.39-.39V14.87zm2.79 6.96c.17.44.41.84.72 1.2.31.35.69.64 1.12.86.44.22.93.33 1.47.33.53 0 1.01-.1 1.45-.29.43-.19.81-.46 1.12-.79.31-.34.55-.73.72-1.19.17-.45.26-.94.26-1.46s-.08-1-.25-1.44c-.16-.44-.4-.83-.7-1.16-.3-.33-.68-.58-1.11-.77-.44-.19-.93-.28-1.47-.28-.54 0-1.03.11-1.48.32-.44.21-.82.49-1.13.83-.31.34-.55.73-.72 1.17-.17.44-.25.88-.25 1.32 0 .45.08.9.25 1.35zm30.89 4.28c0 .26-.12.39-.37.39h-1.68c-.17 0-.31-.06-.42-.17-.11-.11-.16-.25-.16-.42v-.78c-.51.5-1.08.89-1.72 1.17-.64.28-1.31.42-2.02.42-.8 0-1.56-.15-2.3-.46-.73-.3-1.38-.73-1.94-1.28s-1.01-1.2-1.34-1.95c-.33-.76-.5-1.58-.5-2.49 0-.85.16-1.65.48-2.4.32-.75.76-1.41 1.3-1.97.55-.56 1.19-1 1.93-1.33.74-.33 1.53-.49 2.36-.49.82 0 1.54.14 2.17.41.63.27 1.2.7 1.71 1.28l.17-1.18c.02-.13.06-.23.11-.29.05-.07.14-.1.27-.1h1.57c.25 0 .37.13.37.39v11.25zm-2.95-7.02c-.19-.45-.44-.85-.77-1.19-.32-.34-.7-.61-1.14-.81-.43-.2-.9-.3-1.4-.3-.48 0-.93.09-1.36.28-.43.19-.8.45-1.12.78s-.57.73-.76 1.19c-.19.46-.28.96-.28 1.5 0 .52.09 1.01.27 1.47.18.45.43.85.75 1.19.32.34.69.6 1.12.79.43.19.89.29 1.39.29.51 0 .98-.1 1.42-.3.44-.2.82-.47 1.14-.81.32-.34.57-.74.75-1.19.18-.45.27-.93.27-1.44 0-.51-.09-.99-.28-1.45zm21.25-4.61c.25 0 .37.11.37.33v1.76c0 .17-.05.28-.14.34-.09.06-.17.08-.24.08h-3.55v8.99c0 .15-.04.28-.11.38-.07.1-.18.15-.33.15h-1.91c-.17 0-.28-.06-.32-.18-.05-.12-.07-.24-.07-.35v-8.99h-3.5c-.27 0-.4-.13-.4-.39v-1.72c0-.11.04-.21.12-.28.08-.08.17-.12.28-.12h9.8zm8.83 3.64c.32-.75.76-1.4 1.32-1.96s1.21-1 1.96-1.32c.75-.32 1.55-.49 2.4-.49.86 0 1.66.16 2.42.49.76.32 1.42.77 1.99 1.32.57.56 1.01 1.21 1.34 1.96.33.75.49 1.55.49 2.4 0 .85-.16 1.65-.49 2.4-.33.75-.77 1.41-1.34 1.97-.57.56-1.23 1-1.98 1.33-.76.33-1.56.49-2.42.49-.85 0-1.65-.16-2.4-.49-.75-.33-1.41-.77-1.97-1.33s-1-1.22-1.32-1.97c-.32-.75-.49-1.55-.49-2.4 0-.85.16-1.65.49-2.4zm2.45 3.85c.17.45.41.84.72 1.17.31.33.68.6 1.1.79.43.2.9.29 1.42.29.52 0 1-.1 1.44-.29.43-.2.81-.46 1.12-.8.31-.34.55-.73.73-1.18.17-.45.26-.92.26-1.43s-.09-.98-.26-1.42c-.17-.44-.42-.83-.73-1.17-.31-.33-.69-.6-1.12-.79-.44-.19-.91-.29-1.43-.29-.51 0-.98.09-1.41.28-.43.19-.8.45-1.11.78-.31.33-.55.72-.72 1.17-.17.44-.26.92-.26 1.43 0 .53.08 1.01.25 1.46zm18.74-7.1c0-.26.13-.39.39-.39h1.34c.17 0 .3.05.39.15.09.1.15.23.18.4l.21 1.17c.5-.56 1.08-1 1.74-1.32s1.37-.49 2.12-.49c.8 0 1.56.15 2.27.44.72.29 1.35.71 1.89 1.25.54.54.97 1.18 1.29 1.92.32.75.48 1.57.48 2.47 0 .85-.15 1.65-.44 2.4-.29.75-.7 1.41-1.23 1.97s-1.15 1-1.88 1.32c-.73.32-1.52.49-2.38.49-.75 0-1.45-.15-2.08-.44-.63-.29-1.19-.69-1.66-1.19v4.72c0 .26-.12.39-.37.39h-1.86c-.26 0-.39-.13-.39-.39V14.87zm2.78 6.96c.17.44.41.84.72 1.2.31.35.69.64 1.12.86.44.22.93.33 1.47.33.53 0 1.01-.1 1.45-.29.43-.19.81-.46 1.12-.79.31-.34.55-.73.72-1.19.17-.45.26-.94.26-1.46s-.08-1-.25-1.44c-.16-.44-.4-.83-.7-1.16-.3-.33-.68-.58-1.11-.77-.44-.19-.93-.28-1.47-.28-.54 0-1.03.11-1.48.32-.44.21-.82.49-1.13.83-.31.34-.55.73-.72 1.17-.17.44-.25.88-.25 1.32 0 .45.08.9.25 1.35zm21.66 4.34c-.08.11-.15.19-.22.25s-.15.08-.26.08h-1.96c-.12 0-.19-.03-.21-.09-.01-.06-.02-.16-.02-.29l-.01-11.26c0-.12.03-.21.1-.28.07-.07.16-.1.27-.1h1.79c.1 0 .18.03.26.1.07.07.11.16.11.28v7.46l5.42-7.58c.07-.09.12-.16.17-.2.05-.04.11-.06.19-.06h1.84c.1 0 .19.03.26.1s.11.16.11.28v11.26c0 .12-.03.21-.09.28-.06.07-.16.1-.28.1h-1.78c-.25 0-.37-.13-.37-.38v-7.34l-5.32 7.39zm24.76.34c-.12 0-.22-.04-.32-.12-.09-.08-.14-.21-.14-.4v-3.32h-2.94l-1.81 3.48c-.05.1-.1.19-.13.26-.04.07-.11.1-.23.1h-2.04c-.12 0-.22-.05-.3-.15-.08-.1-.09-.2-.04-.29l2.04-3.93c-.29-.18-.56-.39-.8-.64s-.44-.53-.61-.83c-.17-.3-.3-.62-.39-.96-.09-.34-.14-.69-.14-1.05 0-.53.1-1.04.29-1.54.2-.5.47-.94.81-1.33s.75-.7 1.23-.94.99-.35 1.55-.35h5.67c.35 0 .52.17.52.52v10.94c0 .37-.16.56-.48.56h-1.74zm-5.34-7.98c0 .27.05.52.16.73.1.21.24.39.41.54.17.15.36.26.58.33.22.08.44.11.67.11h3.06v-3.41h-3.06c-.24 0-.47.03-.69.1-.22.07-.41.17-.58.31-.17.14-.3.31-.4.52-.1.22-.15.47-.15.77z"/></svg>