<svg xmlns="http://www.w3.org/2000/svg" role="img" viewBox="1.35 1.85 501.80 129.80"><title>Cinepaint logo</title><defs><style>.cls-1{fill:#fff}</style></defs><path d="M400.90253 122.45738c-29.31378 0-58.62775-.0531-87.941.07306-3.33737.01438-4.51068-.62619-4.49466-4.27844q.22508-51.21483.00354-102.43088c-.01486-3.565 1.02005-4.34846 4.43847-4.3424q88.19084.15653 176.38208.01467c3.10041-.00434 4.25141.57625 4.23749 4.02254q-.20783 51.46488-.00372 102.93077c.01288 3.36441-.99524 4.09186-4.18146 4.07932-29.47993-.11621-58.9604-.06864-88.44074-.06864zM70.21779 42.7173c.26758 4.00122-.90685 8.3089-2.55071 12.538-.71812 1.8475-1.6137 3.793.13556 5.56149.93567.946 2.18534.7467 3.30236.38718 2.25347-.72535 3.92163-2.26435 3.83564-4.6724-.11192-3.13473-.88107-6.24075-1.10429-9.37784a16.97415 16.97415 0 0 1 10.09358-16.85031c5.838-2.526 13.28-.60486 18.15158 4.6857 8.23993 8.94867 3.282 23.55945-9.1076 26.60831a38.17621 38.17621 0 0 1-6.92993.72729c-2.16265.1229-4.01377.76877-4.81762 2.88889-.73272 1.93256.14293 3.61172 1.55889 4.93439a4.9439 4.9439 0 0 0 6.00079.96 39.07887 39.07887 0 0 0 5.09311-3.98871c8.05675-6.43106 18.01181-5.25616 23.55731 2.77792a15.9419 15.9419 0 0 1-4.6698 22.69791c-7.92256 4.84311-18.24159 1.61392-22.87372-7.16687-.62-1.17523-1.15947-2.39328-1.79-3.56244a4.69713 4.69713 0 0 0-5.49445-2.43744 5.35058 5.35058 0 0 0-4.54637 4.68131 4.74615 4.74615 0 0 0 2.58783 5.43542c1.47294.77033 3.02516 1.4032 4.44531 2.258 8.05029 4.84588 10.69482 15.40558 5.81323 23.037a15.68494 15.68494 0 0 1-22.35325 4.23324c-7.70508-5.46835-8.96369-15.41626-2.9281-23.3146a56.55778 56.55778 0 0 0 4-5.09223 5.17373 5.17373 0 0 0-.67146-6.46618c-1.30461-1.45783-2.96834-2.32184-4.90477-1.59906-2.37111.885-3.01425 3.00048-2.94389 5.28433.15979 5.18673-1.01453 9.89572-4.50628 13.88525-5.2951 6.05-13.04756 7.76505-19.32539 4.25357-6.83417-3.82272-10.56546-12.66571-8.27956-19.62228 2.33872-7.11722 10.08881-12.2157 17.48865-11.38 2.14136.24179 4.23236.89984 6.36536 1.25269 2.42622.40137 4.66252.03189 6.27176-2.0911a4.4493 4.4493 0 0 0 .81889-4.67981c-.90056-1.90323-2.75581-1.567-4.381-1.11413-2.39926.66849-4.72439 1.6177-7.1383 2.21676-17.73235 4.4007-33.80526-5.92706-36.70615-23.53311C8.80692 29.4232 21.151 13.31265 38.68016 11.8806 56.36609 10.43575 70.195 23.69734 70.21779 42.7173zm116.6067 50.96112a5.30414 5.30414 0 0 1-3.716 5.73569c-10.79712 4.26581-21.7312 4.89447-32.58328.53879-12.96143-5.20224-19.92423-18.04209-17.9314-32.2992 1.98911-14.23053 12.32806-24.13311 27.455-25.98214a53.58563 53.58563 0 0 1 23.16961 2.21423c2.32145.74841 3.84156 1.51965 2.88016 4.49979-.70343 2.18045-.682 4.59329-.99884 6.90051-.1282.93362.0694 2.10574-1.37662 2.208-1.37872.09753-1.4656-.85855-1.68347-1.90854-1.45578-7.0145-3.31833-8.69934-10.89026-10.03626-14.44131-2.5498-26.25991 4.6847-28.99173 17.74655-3.44748 16.48389 4.79779 30.90314 19.546 34.18171 8.42034 1.87189 13.08003 1.17789 25.12083-3.79913zm41.54673-31.88327c1.22055 2.06436-.27393 4.32581.67529 6.40534 1.78689-.26792 2.78857-1.7121 3.895-2.82547 4.79126-4.82129 10.3161-4.85923 16.11725-2.52573 5.67047 2.28091 6.91342 7.09757 6.87155 12.63684-.04526 5.98761.14609 11.97662.16055 17.96521.00739 3.06836.276 5.787 4.39273 5.6033.86847-.03878 1.72937.26288 1.685 1.33225-.04648 1.11847-.99271 1.10727-1.8215 1.12988-.33228.00906-.66574-.0217-.99793-.01114-10.50421.33411-10.49527.33454-10.45831-10.15823.01761-4.99.11539-9.984-.04251-14.96921-.1951-6.16-3.45859-9.4357-9.18241-9.54553-6.07373-.11658-10.98706 3.93768-11.11044 9.56549-.12741 5.81116.22015 11.63122.20139 17.4469-.00974 3.02441.42379 5.34619 4.25348 5.099.94973-.06131 2.22927.10061 2.14614 1.45086-.08651 1.40577-1.3862 1.11277-2.3204 1.11667q-7.98413.03351-15.96838.01343c-.96592-.00122-2.25974.18939-2.25037-1.21262.00858-1.27447 1.25558-1.45129 2.25156-1.38848 3.79477.23916 4.22152-2.05231 4.27615-5.09476.13431-7.48.46408-14.95029.08926-22.439-.14047-2.80706-.77761-4.49874-3.99374-4.09814-1.11841.13934-2.636.244-2.64645-1.37869-.01041-1.61054 1.58252-1.31134 2.66562-1.55542 3.70387-.83469 7.39998-1.7039 11.11147-2.56275zm71.35949 32.90451a4.94657 4.94657 0 0 1-2.63665 4.67911c-7.06449 4.68164-18.82129 4.34534-24.9271-.73767-6.71844-5.59311-8.67514-17.31073-4.46225-26.722 3.09522-6.91458 12.47339-11.64019 20.87079-10.51666 8.09415 1.083 13.60016 8.65823 12.70917 16.939-.30994 2.88021-2.28485 2.61084-3.85712 2.68673-6.63937.32044-13.2991.6673-19.93405.457-3.7554-.119-4.042 1.37259-3.57877 4.37384 1.40073 9.07453 9.44678 14.3787 18.32178 11.80329 2.46234-.71465 4.79382-1.88021 7.4942-2.96264zm-94.07141-15.2781c0 4.81533.04773 9.63131-.01748 14.44577-.04065 2.99707.45214 5.34008 4.283 5.07772.91113-.0624 2.213.05231 2.12738 1.45221-.0886 1.4506-1.377 1.10654-2.29084 1.11133q-7.9768.04175-15.95392.01084c-.93539-.00348-2.256.2723-2.35153-1.10285-.0899-1.29489 1.15641-1.52853 2.13611-1.47851 4.03241.20584 4.49008-2.26535 4.4563-5.45932-.07721-7.30817-.01746-14.61847.05331-21.92725.02585-2.66714-.459-4.64951-3.82428-4.25793-1.10665.12875-2.65991.32437-2.8525-1.20816-.20432-1.62558 1.37194-1.46351 2.4664-1.70725a84.489 84.489 0 0 0 9.18933-2.20639c2.71029-.93329 2.68866.30679 2.65255 2.31116-.08963 4.97748-.02945 9.9577-.02945 14.9368zm.48789-31.86414c-.14414 2.97162-1.60123 4.80908-4.59632 4.81726-2.938.008-4.65268-1.65005-4.6373-4.67969a4.1509 4.1509 0 0 1 4.28843-4.53289c2.967-.15754 4.63485 1.43206 4.94519 4.39532z"/><path d="M316.49 73.348c-.00091-8.32056.09439-16.64279-.05548-24.96066-.04889-2.71366.76236-3.78724 3.55832-4.01856 5.9798-.49472 11.92117-1.11157 17.88608.11408 7.78961 1.60061 12.56826 6.49337 13.5299 13.95907 1.03763 8.05536-2.38012 14.62134-9.4349 18.13147a27.27458 27.27458 0 0 1-15.067 2.47186c-2.59079-.25479-3.10238.39923-3.04437 2.77512.13809 5.6546-.13788 11.32306.11569 16.96963.14337 3.19239-1.64349 2.94489-3.72479 2.93357-2.0661-.01123-3.89249.27191-3.82425-2.91605.18158-8.48308.06174-16.97261.0608-25.45953zm109.71905-7.13274a54.976 54.976 0 0 1 5.06024-4.31311c9.25665-6.01343 20.83288-1.21573 22.70221 9.59948 1.59582 9.23325.4707 18.60733.70215 27.91556.08734 3.51187-2.70337 2.00077-4.37366 2.25-1.93048.28809-3.45191.19947-3.36939-2.65936.2016-6.98553.13123-13.98178.043-20.97214-.101-7.98617-3.44659-12.36764-9.27539-12.395-6.18475-.029-10.55969 5.13709-10.58826 12.56519-.02618 6.82483-.19006 13.65723.079 20.47156.1222 3.09573-1.39825 3.122-3.59137 3.04742-2.14459-.07288-4.216.48209-4.18255-3.07391.1112-11.814-.02887-23.6322-.23645-35.44589-.04053-2.30359.76294-2.98151 2.83838-2.74775 1.77026.19937 4.32452-.88931 4.04126 2.57556a28.99616 28.99616 0 0 0 .15083 3.18239zM380.9472 97.235c-3.74206 3.63623-7.434 5.53494-12.05767 5.50324-6.5127-.04465-11.0102-2.98337-12.55091-8.47589a13.08339 13.08339 0 0 1 5.78778-14.70258c4.64038-2.93658 9.89527-3.90558 15.24805-3.90186 2.93158.002 3.33215-1.02932 2.85437-3.53543-.74249-3.89416-2.844-6.27029-6.8114-6.84213a18.9362 18.9362 0 0 0-10.22522 1.47736c-1.2532.52948-2.55582 2.0159-3.39252-.61133-.58749-1.84482-1.3547-3.37769 1.17734-4.38727 5.70786-2.27594 11.52237-3.29126 17.51053-1.44678 5.89709 1.8165 9.15008 6.40647 9.44549 13.77109.33954 8.4642.23639 16.94553.48462 25.4147.04322 1.47651-.14184 2.41642-1.65539 2.13715-1.72339-.318-4.13458 1.44257-5.07831-1.48471-.24921-.77298-.40234-1.5769-.73676-2.91556zm93.89942-46.31408a3.68235 3.68235 0 0 1 .39245.96972c.60688 7.91889.59577 8.04636 8.16663 8.49747 2.32813.13876 2.63232 1.0163 2.66412 3.00027.03553 2.21238-.79394 2.73355-2.89636 2.85822-7.85425.46554-7.84881.55365-7.84857 8.30084.00018 4.66434-.06519 9.32984.01532 13.99277.10809 6.26117 1.35687 7.69781 7.44385 7.84152 2.09381.04944 2.4928.73593 2.59491 2.5311.10394 1.82681.09747 3.062-2.21009 3.6141-8.66626 2.07358-14.70282-2.08139-15.0686-11.00726-.29986-7.31766-.18732-14.65826-.04541-21.98459.04834-2.49658-.4953-3.77292-3.22046-3.35361-2.33722.35956-3.15234-.62274-3.24316-3.04748-.10871-2.901 1.5166-2.83218 3.44342-2.66489 1.92444.16709 3.44366-.17575 2.94842-2.59414-1.19458-5.83353 2.87268-6.31183 6.86353-6.95404zM399.48114 81.411c.00146-5.99308.17706-11.99326-.06384-17.97663-.14643-3.63467 2.14471-2.85543 4.2157-3.0094 2.31921-.17242 3.59185.146 3.54925 3.082q-.25754 17.7258-.00037 35.457c.05072 3.35644-1.946 2.723-3.85571 2.746-1.98938.024-4.0141.454-3.90228-2.821.19867-5.81986.05579-11.65137.05725-17.47797zm4.01959-27.73856c-3.00567-.14923-4.67474-1.65591-4.67639-4.61777-.00159-2.91168 1.50745-4.62771 4.52893-4.64257 2.98712-.01468 4.57 1.603 4.62042 4.5451.05115 2.98969-1.65484 4.4458-4.47296 4.71524z" class="cls-1"/><path fill="#020202" d="M48.12082 50.57338c.08014 6.68189-5.13123 11.67679-12.1823 11.67633-8.91037-.00058-17.10844-7.71927-17.10583-16.10559.0021-6.77435 5.07155-11.62765 12.17764-11.65848 8.8456-.03836 17.00912 7.63721 17.11049 16.08774z"/><path fill="#060606" d="M48.98517 42.25105c-4.2153-2.7937-6.90764-6.55712-7.08061-11.73678-.25315-7.58093 6.41426-11.90627 13.28-8.69882a13.15885 13.15885 0 0 1 6.75561 16.685.91451.91451 0 0 1-1.25274-.03167 6.522 6.522 0 0 1-.986-3.29834c-.42572-3.10312-2.03593-5.25516-5.11415-6.06342-2.19433-.57617-4.424-.47284-5.972 1.41532-2.081 2.5383-1.47279 5.27529-.10225 7.938a17.50033 17.50033 0 0 1 .91591 1.77369 1.90354 1.90354 0 0 1-.44377 2.01702z"/><path fill="#121212" d="M60.9545 38.49248q.4929-.00673.98562.008c-3.09985 5.37507-6.12641 6.25129-12.955 3.75058l.04715-1.59555c-1.48007-4.48474-.34323-7.264 3.5074-8.57455 3.52772-1.20068 6.23723.51581 7.44984 4.78375a2.66887 2.66887 0 0 0 .96499 1.62777z"/><path d="M283.69891 78.48686c-1.49435 0-2.98953.03226-4.48291-.00564-5.96679-.1514-6.55151-.95236-4.91577-6.65778 1.69092-5.89779 6.49368-8.81762 12.17771-7.40341 4.52517 1.12589 7.95855 7.33688 7.04013 12.36765-.28724 1.57354-1.067 1.803-2.3451 1.78869-2.49109-.02783-4.98272-.00818-7.47412-.00818z" class="cls-1"/><path d="M323.79948 50.30222c10.20992-1.81395 17.25527 1.03349 19.36574 6.26075a12.17733 12.17733 0 0 1-2.88583 13.30362c-3.161 2.77854-12.0556 4.34449-15.2139 2.82923-1.266-.34713-1.03107-2.57968-1.11523-3.9007-.15842-2.487-.04569-4.99118-.04544-7.48822m56.78512 23.94559c-.037 6.74829-2.54541 10.25607-7.85016 11.603-3.62957.92157-6.85986.21307-8.50311-3.25135-1.72223-3.63089-1.06635-7.25763 2.3399-9.79834 3.4939-2.606 7.71192-3.01461 11.8761-2.96966 2.53873.21192 2.14174 3.62886 2.13727 4.41635z"/><path fill="#f3f3f3" d="M45.03069 44.96926c-5.49434-.32807-8.942 2.015-8.805 5.984.12317 3.5687 2.9323 5.30921 8.01451 4.96573-4.51347 3.13465-9.45315 2.40518-12.73819-1.8811-2.90611-3.79187-2.47593-8.94724.97069-11.63306 3.88071-3.02411 8.51612-2.07754 12.55799 2.56443z"/><path fill="#f1f1f1" d="M60.9545 38.49248c-.67316-.26132-1.56958 1.66876-1.53464.46008.12071-4.17566-1.62848-6.63193-5.66554-6.15545-4.3543.51385-4.85588 4.19354-4.722 7.85839-3.61815-2.6398-4.39683-6.131-2.4477-9.98 1.53393-3.02911 4.48793-3.90469 7.66668-3.18515a8.121 8.121 0 0 1 6.82332 8.02665 27.38738 27.38738 0 0 1-.12012 2.97548z"/></svg>