<svg xmlns="http://www.w3.org/2000/svg" role="img" viewBox="-4.71 -4.71 244.92 82.42"><title>claion logo</title><defs><style>.cls-1{fill:#2b3c4e}</style></defs><g id="레이어_2" data-name="레이어 2"><g id="Layer_1" data-name="Layer 1"><path d="M235.66 63.88H226.4V40.73c-.15-9.39-6.62-13.62-13-13.62h0c-6.34 0-12.81 4.24-13 13.7V63.88h-9.26V40.73c.11-7 2.56-12.89 7.09-17.08a22.15 22.15 0 0 1 15.13-5.8h0c10.86 0 22 7.83 22.22 22.81zM102.05 18.52v3.26a22.2 22.2 0 0 0-35.18 18v1.85a22.2 22.2 0 0 0 35.18 18V63h9.26V18.52zm-13 36.11a13 13 0 0 1-13-13V39.81a13 13 0 0 1 25.92 0v1.85A13 13 0 0 1 89.09 54.62zM49.28 0H58.54V62.95H49.28zM120.57 18.52H129.82999999999998V27.78H120.57zM120.57 33.33H129.82999999999998V62.95H120.57zM160.38 63.88a22.24 22.24 0 0 1-22.22-22.22V39.81a22.22 22.22 0 0 1 44.44 0v1.85A22.24 22.24 0 0 1 160.38 63.88zm0-37a13 13 0 0 0-13 13v1.85a13 13 0 1 0 25.92 0V39.81A13 13 0 0 0 160.38 26.85z" class="cls-1"/><ellipse cx="160.38" cy="70.36" fill="#47bfdd" rx="9.26" ry="2.78"/><path d="M32,50.22v0A12.95,12.95,0,0,1,9.26,41.66V39.81A12.94,12.94,0,0,1,31.66,31v0l9-3.55A22.22,22.22,0,0,0,0,39.81v1.85a22.22,22.22,0,0,0,41,12Z" class="cls-1"/></g></g></svg>