<svg xmlns="http://www.w3.org/2000/svg" role="img" viewBox="3.96 -1.04 392.08 81.58"><title>CloudWize logo</title><style>svg {enable-background:new 0 0 400 80}</style><linearGradient id="a" x1="116.967" x2="306.183" y1="47.295" y2="47.295" gradientUnits="userSpaceOnUse"><stop offset="0" stop-color="#437fec"/><stop offset=".544" stop-color="#48b2ed"/><stop offset="1" stop-color="#4cd9ed"/></linearGradient><path fill="url(#a)" d="M138.7 38.1l-5.4 3.3c-1.8-2.7-4.6-4.3-8.1-4.3-5.7 0-9.9 4.2-9.9 10.2 0 6.3 4.4 10.2 9.9 10.2 3.5 0 6.3-1.6 8.2-4.3l5.1 3.7c-2.8 4.1-7.5 6.6-13.2 6.6-9.6 0-16.4-6.8-16.4-16.2s6.8-16.2 16.4-16.2c5.8 0 10.9 2.6 13.4 7z"/><linearGradient id="b" x1="116.967" x2="306.183" y1="47.295" y2="47.295" gradientUnits="userSpaceOnUse"><stop offset="0" stop-color="#437fec"/><stop offset=".544" stop-color="#48b2ed"/><stop offset="1" stop-color="#4cd9ed"/></linearGradient><path fill="url(#b)" d="M166.9 62.9h-22.8V31.7h6.2v25.5h16.5v5.7z"/><linearGradient id="c" x1="116.967" x2="306.183" y1="47.295" y2="47.295" gradientUnits="userSpaceOnUse"><stop offset="0" stop-color="#437fec"/><stop offset=".544" stop-color="#48b2ed"/><stop offset="1" stop-color="#4cd9ed"/></linearGradient><path fill="url(#c)" d="M201.2 47.3c0 9.3-6.8 16.2-16.4 16.2-9.6 0-16.4-6.9-16.4-16.2 0-9.3 6.8-16.2 16.4-16.2 9.6 0 16.4 6.9 16.4 16.2zm-26.3 0c0 6.1 4.2 10.2 9.9 10.2 5.8 0 9.9-4.2 9.9-10.2 0-6.1-4.2-10.2-9.9-10.2s-9.9 4.1-9.9 10.2z"/><linearGradient id="d" x1="116.967" x2="306.183" y1="47.575" y2="47.575" gradientUnits="userSpaceOnUse"><stop offset="0" stop-color="#437fec"/><stop offset=".544" stop-color="#48b2ed"/><stop offset="1" stop-color="#4cd9ed"/></linearGradient><path fill="url(#d)" d="M233.4 50.4c0 8.6-5.5 13-13.5 13s-13.5-4.4-13.5-13V31.7h6.3v18.5c0 5.1 2.9 7.4 7.2 7.4 4.3 0 7.2-2.3 7.2-7.4V31.7h6.3v18.7z"/><linearGradient id="e" x1="116.967" x2="306.183" y1="47.295" y2="47.295" gradientUnits="userSpaceOnUse"><stop offset="0" stop-color="#437fec"/><stop offset=".544" stop-color="#48b2ed"/><stop offset="1" stop-color="#4cd9ed"/></linearGradient><path fill="url(#e)" d="M253.1 31.7c9.8 0 16.2 6.2 16.2 15.6s-6.5 15.6-16.2 15.6h-12.9V31.7h12.9zm-6.7 5.8v19.6h6.6c6.6 0 9.8-4.1 9.8-9.8 0-5.7-3.2-9.8-9.8-9.8h-6.6z"/><linearGradient id="f" x1="116.967" x2="306.183" y1="47.295" y2="47.295" gradientUnits="userSpaceOnUse"><stop offset="0" stop-color="#437fec"/><stop offset=".544" stop-color="#48b2ed"/><stop offset="1" stop-color="#4cd9ed"/></linearGradient><path fill="url(#f)" d="M308.7 62.9h-3.3L296 35.2l-9.4 27.7h-3.3l-10.5-31.3h2.9l9.4 28.3 9.5-28.3h3.1l9.5 28.2 9.4-28.2h2.8l-10.7 31.3z"/><linearGradient id="g" x1="116.967" x2="306.183" y1="47.295" y2="47.295" gradientUnits="userSpaceOnUse"><stop offset="0" stop-color="#437fec"/><stop offset=".544" stop-color="#48b2ed"/><stop offset="1" stop-color="#4cd9ed"/></linearGradient><path fill="url(#g)" d="M328.1 62.9h-2.7V31.7h2.7v31.2z"/><linearGradient id="h" x1="116.967" x2="306.183" y1="47.295" y2="47.295" gradientUnits="userSpaceOnUse"><stop offset="0" stop-color="#437fec"/><stop offset=".544" stop-color="#48b2ed"/><stop offset="1" stop-color="#4cd9ed"/></linearGradient><path fill="url(#h)" d="M359.5 33.8l-20.3 26.6h20.4V63h-24v-2.1l20.3-26.6h-20v-2.6h23.6v2.1z"/><linearGradient id="i" x1="116.967" x2="306.183" y1="47.295" y2="47.295" gradientUnits="userSpaceOnUse"><stop offset="0" stop-color="#437fec"/><stop offset=".544" stop-color="#48b2ed"/><stop offset="1" stop-color="#4cd9ed"/></linearGradient><path fill="url(#i)" d="M388.6 62.9h-21.5V31.7h21.4v2.6h-18.7V46h18.1v2.5h-18.1v11.9h18.8v2.5z"/><g><g transform="translate(675 262)"><defs><filter id="j" width="82.2" height="66.4" x="-663.5" y="-255.3" filterUnits="userSpaceOnUse"><feColorMatrix values="1 0 0 0 0 0 1 0 0 0 0 0 1 0 0 0 0 0 1 0"/></filter></defs><mask id="l" width="82.2" height="66.4" x="-663.5" y="-255.3" maskUnits="userSpaceOnUse"><g filter="url(#j)"><path fill="#fff" fill-rule="evenodd" d="M-598.6-206.5c1.6-3.4 2.4-7.1 2.4-11.1 0-1.9-.2-3.7-.6-5.5 2.9-1.5 10.8-5.7 12.4-7 0 0 .5-.2 1.1-.2 1.2 0 2.8.7 1.6 4.8 0 0-1.5 3-4.2 4.6 0 0 .8-.2 1.6-.2 1.3 0 2.5.5.5 3.4 0 0-2.6 3-6.3 4.6 0 0 4.9.6.2 3.4 0 .2-5.3 3.2-8.7 3.2z" clip-rule="evenodd"/></g></mask><linearGradient id="k" x1="-894.668" x2="-894.622" y1="75.579" y2="75.604" gradientTransform="matrix(856.666 0 0 -692.251 765821.063 52092.547)" gradientUnits="userSpaceOnUse"><stop offset="0" stop-color="#437fec"/><stop offset=".544" stop-color="#48b2ed"/><stop offset="1" stop-color="#4cd9ed"/></linearGradient><path fill="url(#k)" fill-rule="evenodd" d="M-663.5-188.9h82.2v-66.4h-82.2z" clip-rule="evenodd" mask="url(#l)"/></g><defs><filter id="m" width="82.2" height="66.4" x="11.5" y="6.7" filterUnits="userSpaceOnUse"><feColorMatrix values="1 0 0 0 0 0 1 0 0 0 0 0 1 0 0 0 0 0 1 0"/></filter></defs><mask id="o" width="82.2" height="66.4" x="11.5" y="6.7" maskUnits="userSpaceOnUse"><g filter="url(#m)"><path fill="#fff" fill-rule="evenodd" d="M11.5 34.1c0-1.9 1.1-2.3 2-2.3.6 0 1.1.2 1.1.2 1.6 1.3 9.2 5.3 12.2 6.9-.4 1.8-.6 3.6-.6 5.6 0 4 .9 7.7 2.4 11.1-3.4-.1-8.5-3-8.5-3-4.7-2.7.2-3.4.2-3.4-3.6-1.7-6.3-4.6-6.3-4.6-2-2.9-.7-3.4.5-3.4.8 0 1.6.2 1.6.2-2.6-1.6-4.2-4.6-4.2-4.6-.2-1.2-.3-2.1-.4-2.7z" clip-rule="evenodd"/></g></mask><linearGradient id="n" x1="-219.69" x2="-219.728" y1="337.578" y2="337.605" gradientTransform="matrix(856.666 0 0 -692.251 188246.516 233724.297)" gradientUnits="userSpaceOnUse"><stop offset="0" stop-color="#437fec"/><stop offset=".544" stop-color="#48b2ed"/><stop offset="1" stop-color="#4cd9ed"/></linearGradient><path fill="url(#n)" fill-rule="evenodd" d="M11.5 73.1h82.2V6.7H11.5z" clip-rule="evenodd" mask="url(#o)"/><g transform="translate(510)"><defs><filter id="p" width="15.7" height="11.1" x="-449.5" y="6.7" filterUnits="userSpaceOnUse"><feColorMatrix values="1 0 0 0 0 0 1 0 0 0 0 0 1 0 0 0 0 0 1 0"/></filter></defs><mask id="r" width="15.7" height="11.1" x="-449.5" y="6.7" maskUnits="userSpaceOnUse"><g filter="url(#p)"><path fill="#fff" fill-rule="evenodd" d="M-436.9 17.7s.7-9.3 3.1-11.1l-15.7 6.8 2.2 3.4 10.4.9" clip-rule="evenodd"/></g></mask><linearGradient id="q" x1="-731.386" x2="-731.25" y1="335.623" y2="335.718" gradientTransform="matrix(164.121 0 0 -115.275 119588.773 38706.426)" gradientUnits="userSpaceOnUse"><stop offset="0" stop-color="#437fec"/><stop offset=".544" stop-color="#48b2ed"/><stop offset="1" stop-color="#4cd9ed"/></linearGradient><path fill="url(#q)" fill-rule="evenodd" d="M-436.9 17.7s.7-9.3 3.1-11.1l-15.7 6.8 2.2 3.4 10.4.9" clip-rule="evenodd" mask="url(#r)"/></g><g transform="translate(164 5)"><defs><filter id="s" width="15.7" height="11.1" x="-136.7" y="2.2" filterUnits="userSpaceOnUse"><feColorMatrix values="1 0 0 0 0 0 1 0 0 0 0 0 1 0 0 0 0 0 1 0"/></filter></defs><mask id="u" width="15.7" height="11.1" x="-136.7" y="2.2" maskUnits="userSpaceOnUse"><g filter="url(#s)"><path fill="#fff" fill-rule="evenodd" d="M-133.5 13.2s-.7-9.3-3.1-11.1l15.7 6.8-2.2 3.4-10.4.9" clip-rule="evenodd"/></g></mask><linearGradient id="t" x1="-383.412" x2="-383.551" y1="330.659" y2="330.762" gradientTransform="matrix(164.121 0 0 -115.275 62803.082 38130.063)" gradientUnits="userSpaceOnUse"><stop offset="0" stop-color="#437fec"/><stop offset=".544" stop-color="#48b2ed"/><stop offset="1" stop-color="#4cd9ed"/></linearGradient><path fill="url(#t)" fill-rule="evenodd" d="M-133.5 13.2s-.7-9.3-3.1-11.1l15.7 6.8-2.2 3.4-10.4.9" clip-rule="evenodd" mask="url(#u)"/></g><g transform="translate(153 53)"><defs><filter id="v" width="52.5" height="59" x="-126.7" y="-41.3" filterUnits="userSpaceOnUse"><feColorMatrix values="1 0 0 0 0 0 1 0 0 0 0 0 1 0 0 0 0 0 1 0"/></filter></defs><mask id="x" width="52.5" height="59" x="-126.7" y="-41.3" maskUnits="userSpaceOnUse"><g filter="url(#v)"><path fill="#fff" fill-rule="evenodd" d="M-100.5 17.7h-.6.6m.8 0h0m-2.2 0s-.1 0 0 0c-.1 0 0 0 0 0m-.4-.1h-.2.2m-.2 0h-.5.5m-.8 0h-.3c.1-.1.2-.1.3 0m-.5-.1s-.1 0 0 0c-.1 0 0 0 0 0m-1-.2h-.1.1M-105.4 17.2c-.1 0-.1 0 0 0-.1 0-.1 0 0 0m23.3-7s.1 0 0 0c.1 0 0 0 0 0m.2-.2c.8-.8 1.5-1.6 2.2-2.5-.6.9-1.4 1.7-2.2 2.5m2.3-2.6c-.2-12-10-21.8-22.1-21.8-10.8 0-19.8 7.8-21.7 18.1 0 .1 0 .2-.1.4-.3-.5-.6-1.1-.8-1.6-1.6-3.4-2.4-7.1-2.4-11.1 0-1.9.2-3.8.6-5.6 1-4.7 3.3-8.9 6.4-12.3 2.2-8.6 10-14.9 19.3-14.9s17.1 6.3 19.3 14.9c3.1 3.4 5.4 7.6 6.4 12.3.4 1.8.6 3.6.6 5.5 0 4-.9 7.7-2.4 11.1-1 1.9-2 3.5-3.1 5m-43.9-3.3c0-.1 0-.2.1-.3 0 .1 0 .2-.1.3" clip-rule="evenodd"/></g></mask><linearGradient id="w" x1="-372.878" x2="-372.569" y1="284.601" y2="284.601" gradientTransform="matrix(547.59 0 0 -614.61 204031.563 174906.938)" gradientUnits="userSpaceOnUse"><stop offset="0" stop-color="#4cd9ed"/><stop offset=".456" stop-color="#48b2ed"/><stop offset="1" stop-color="#437fec"/></linearGradient><path fill="url(#w)" fill-rule="evenodd" d="M-100.5 17.7h-.6.6m.8 0h0m-2.2 0s-.1 0 0 0c-.1 0 0 0 0 0m-.4-.1h-.2.2m-.2 0h-.5.5m-.8 0h-.3c.1-.1.2-.1.3 0m-.5-.1s-.1 0 0 0c-.1 0 0 0 0 0m-1-.2h-.1.1M-105.4 17.2c-.1 0-.1 0 0 0-.1 0-.1 0 0 0m23.3-7s.1 0 0 0c.1 0 0 0 0 0m.2-.2c.8-.8 1.5-1.6 2.2-2.5-.6.9-1.4 1.7-2.2 2.5m2.3-2.6c-.2-12-10-21.8-22.1-21.8-10.8 0-19.8 7.8-21.7 18.1 0 .1 0 .2-.1.4-.3-.5-.6-1.1-.8-1.6-1.6-3.4-2.4-7.1-2.4-11.1 0-1.9.2-3.8.6-5.6 1-4.7 3.3-8.9 6.4-12.3 2.2-8.6 10-14.9 19.3-14.9s17.1 6.3 19.3 14.9c3.1 3.4 5.4 7.6 6.4 12.3.4 1.8.6 3.6.6 5.5 0 4-.9 7.7-2.4 11.1-1 1.9-2 3.5-3.1 5m-43.9-3.3c0-.1 0-.2.1-.3 0 .1 0 .2-.1.3" clip-rule="evenodd" mask="url(#x)"/></g><g transform="translate(631 487)"><defs><filter id="y" width=".6" height="2.2" x="-558.9" y="-433.7" filterUnits="userSpaceOnUse"><feColorMatrix values="1 0 0 0 0 0 1 0 0 0 0 0 1 0 0 0 0 0 1 0"/></filter></defs><mask id="A" width=".6" height="2.2" x="-558.9" y="-433.7" maskUnits="userSpaceOnUse"><g filter="url(#y)"><path fill="#fff" fill-rule="evenodd" d="M-558.3-431.5c0-.1-.1-.3-.1-.4.1.1.1.3.1.4m-.5-2c0-.1 0-.1-.1-.2 0 .1 0 .2.1.2" clip-rule="evenodd"/></g></mask><linearGradient id="z" x1="-901.318" x2="-900.794" y1="-141.077" y2="-139.912" gradientTransform="matrix(6.722 0 0 -22.537 5500.501 -3615.24)" gradientUnits="userSpaceOnUse"><stop offset="0" stop-color="#3d90c0"/><stop offset="1" stop-color="#385d9a"/></linearGradient><path fill="url(#z)" fill-rule="evenodd" d="M-558.3-431.5c0-.1-.1-.3-.1-.4.1.1.1.3.1.4m-.5-2c0-.1 0-.1-.1-.2 0 .1 0 .2.1.2" clip-rule="evenodd" mask="url(#A)"/></g><g transform="translate(190 433)"><defs><filter id="B" width="3.2" height="7.3" x="-160.1" y="-384.7" filterUnits="userSpaceOnUse"><feColorMatrix values="1 0 0 0 0 0 1 0 0 0 0 0 1 0 0 0 0 0 1 0"/></filter></defs><mask id="D" width="3.2" height="7.3" x="-160.1" y="-384.7" maskUnits="userSpaceOnUse"><g filter="url(#B)"><path fill="#fff" fill-rule="evenodd" d="M-160.1-377.5c0-.1.1-.2.1-.3-.1.1-.1.2-.1.3m.3-1.3l.3-.9-.3.9m.9-2.3c0-.1.1-.2.1-.3 0 .1-.1.2-.1.3m.8-1.6c.1-.1.1-.3.2-.4-.1.1-.1.3-.2.4m.9-1.5c.1-.2.2-.3.3-.5-.1.1-.2.3-.3.5" clip-rule="evenodd"/></g></mask><linearGradient id="C" x1="-408.203" x2="-408.395" y1="-93.37" y2="-92.989" gradientTransform="matrix(33.867 0 0 -75.595 13666.464 -7437.81)" gradientUnits="userSpaceOnUse"><stop offset="0" stop-color="#3d90c0"/><stop offset="1" stop-color="#385d9a"/></linearGradient><path fill="url(#C)" fill-rule="evenodd" d="M-160.1-377.5c0-.1.1-.2.1-.3-.1.1-.1.2-.1.3m.3-1.3l.3-.9-.3.9m.9-2.3c0-.1.1-.2.1-.3 0 .1-.1.2-.1.3m.8-1.6c.1-.1.1-.3.2-.4-.1.1-.1.3-.2.4m.9-1.5c.1-.2.2-.3.3-.5-.1.1-.2.3-.3.5" clip-rule="evenodd" mask="url(#D)"/></g><g transform="translate(187 334)"><defs><filter id="E" width="43.8" height="32" x="-157.5" y="-295.3" filterUnits="userSpaceOnUse"><feColorMatrix values="1 0 0 0 0 0 1 0 0 0 0 0 1 0 0 0 0 0 1 0"/></filter></defs><mask id="G" width="43.8" height="32" x="-157.5" y="-295.3" maskUnits="userSpaceOnUse"><g filter="url(#E)"><path fill="#fff" fill-rule="evenodd" d="M-134.5-263.3h-1-1-.6H-137.7h-.1-.1-.1-.1H-138.4h-.5-.1c-.1 0-.2 0-.3-.1h-.2-.1-.1c-7.6-1.6-14.1-6.4-17.7-13 0-.1 0-.2.1-.3.1-.4.2-.9.3-1.3 0-.1.1-.2.1-.3 0 .1-.1.2-.1.3-.1.4-.2.8-.3 1.3 1.9-10.3 10.9-18.1 21.7-18.1 12.1 0 21.9 9.7 22.1 21.8-.7.9-1.4 1.7-2.2 2.5l-.1.1-.1.1c-4.5 4.4-10.7 7.3-17.5 7.5h-.1c-.4-.5-.7-.5-1-.5m20.7-12.5c0 .2 0 .5.1.7 0-.2 0-.4-.1-.7m-.1-1c0 .2.1.4.1.6-.1-.2-.1-.4-.1-.6m-.2-1.1c0 .2.1.4.1.6 0-.2-.1-.4-.1-.6m-.2-.6v.1c.1 0 0-.1 0-.1 0-.1-.1-.3-.1-.4.1.1.1.3.1.4m-42.2-2.2l-.3.9.3-.9m41.6 0c0 .1 0 .1.1.2-.1 0-.1-.1-.1-.2s-.1-.2-.1-.3c0 .1.1.2.1.3m-.5-1.2c0 .1.1.2.1.3 0-.1-.1-.2-.1-.3m-40.4-.5c-.1.1-.1.2-.1.3 0-.1.1-.2.1-.3m40-.4c.1.1.1.2.2.4-.1-.2-.1-.3-.2-.4m-.5-1c.1.1.1.3.2.4-.1-.1-.1-.3-.2-.4m-38.6-.3c-.1.1-.2.3-.2.4.1-.1.1-.3.2-.4m38.2-.3s0 .1.1.1c0-.1 0-.1-.1-.1m-.7-1.2c.1.1.2.3.2.4 0-.1-.1-.3-.2-.4m-36.5-.1c-.1.2-.2.3-.3.5.1-.2.2-.4.3-.5m1.2-1.6c-.1.1-.2.3-.3.4 0-.1.1-.2.3-.4m32.7-1.5l.3.3-.2-.2s-.1 0-.1-.1m-30.1-1.2c-.2.1-.3.3-.4.4l.4-.4m28.7-.1c.1 0 .1.1.2.1-.1 0-.2 0-.2-.1m-27.2-1.1c-.1 0-.1.1-.2.1.1 0 .1 0 .2-.1m24.4-.9c.1.1.2.1.3.2 0 0-.2-.1-.3-.2m-22.8-.1c-.1.1-.2.2-.4.2.2-.1.3-.1.4-.2m20.9-.9c.1 0 .1.1.2.1 0-.1-.1-.1-.2-.1m-.7-.4c.1 0 .1 0 .2.1-.1 0-.2 0-.2-.1m-16.9-.3c-.1 0-.2.1-.3.1.1 0 .2-.1.3-.1m15.6-.2c.1 0 .2.1.3.1-.1 0-.2 0-.3-.1m-13.7-.5c-.1 0-.3.1-.4.1.2 0 .3 0 .4-.1m1.8-.4c-.1 0-.2.1-.3.1.1-.1.2-.1.3-.1M-138.2-295.2s-.1 0 0 0c-.1 0 0 0 0 0m3.6-.1h0" clip-rule="evenodd"/></g></mask><linearGradient id="F" x1="-406.816" x2="-406.816" y1="3.932" y2="4.501" gradientTransform="matrix(456.811 0 0 -333.795 185702.625 1078.093)" gradientUnits="userSpaceOnUse"><stop offset="0" stop-color="#437fec"/><stop offset=".544" stop-color="#48b2ed"/><stop offset="1" stop-color="#4cd9ed"/></linearGradient><path fill="url(#F)" fill-rule="evenodd" d="M-134.5-263.3h-1-1-.6H-137.7h-.1-.1-.1-.1H-138.4h-.5-.1c-.1 0-.2 0-.3-.1h-.2-.1-.1c-7.6-1.6-14.1-6.4-17.7-13 0-.1 0-.2.1-.3.1-.4.2-.9.3-1.3 0-.1.1-.2.1-.3 0 .1-.1.2-.1.3-.1.4-.2.8-.3 1.3 1.9-10.3 10.9-18.1 21.7-18.1 12.1 0 21.9 9.7 22.1 21.8-.7.9-1.4 1.7-2.2 2.5l-.1.1-.1.1c-4.5 4.4-10.7 7.3-17.5 7.5h-.1c-.4-.5-.7-.5-1-.5m20.7-12.5c0 .2 0 .5.1.7 0-.2 0-.4-.1-.7m-.1-1c0 .2.1.4.1.6-.1-.2-.1-.4-.1-.6m-.2-1.1c0 .2.1.4.1.6 0-.2-.1-.4-.1-.6m-.2-.6v.1c.1 0 0-.1 0-.1 0-.1-.1-.3-.1-.4.1.1.1.3.1.4m-42.2-2.2l-.3.9.3-.9m41.6 0c0 .1 0 .1.1.2-.1 0-.1-.1-.1-.2s-.1-.2-.1-.3c0 .1.1.2.1.3m-.5-1.2c0 .1.1.2.1.3 0-.1-.1-.2-.1-.3m-40.4-.5c-.1.1-.1.2-.1.3 0-.1.1-.2.1-.3m40-.4c.1.1.1.2.2.4-.1-.2-.1-.3-.2-.4m-.5-1c.1.1.1.3.2.4-.1-.1-.1-.3-.2-.4m-38.6-.3c-.1.1-.2.3-.2.4.1-.1.1-.3.2-.4m38.2-.3s0 .1.1.1c0-.1 0-.1-.1-.1m-.7-1.2c.1.1.2.3.2.4 0-.1-.1-.3-.2-.4m-36.5-.1c-.1.2-.2.3-.3.5.1-.2.2-.4.3-.5m1.2-1.6c-.1.1-.2.3-.3.4 0-.1.1-.2.3-.4m32.7-1.5l.3.3-.2-.2s-.1 0-.1-.1m-30.1-1.2c-.2.1-.3.3-.4.4l.4-.4m28.7-.1c.1 0 .1.1.2.1-.1 0-.2 0-.2-.1m-27.2-1.1c-.1 0-.1.1-.2.1.1 0 .1 0 .2-.1m24.4-.9c.1.1.2.1.3.2 0 0-.2-.1-.3-.2m-22.8-.1c-.1.1-.2.2-.4.2.2-.1.3-.1.4-.2m20.9-.9c.1 0 .1.1.2.1 0-.1-.1-.1-.2-.1m-.7-.4c.1 0 .1 0 .2.1-.1 0-.2 0-.2-.1m-16.9-.3c-.1 0-.2.1-.3.1.1 0 .2-.1.3-.1m15.6-.2c.1 0 .2.1.3.1-.1 0-.2 0-.3-.1m-13.7-.5c-.1 0-.3.1-.4.1.2 0 .3 0 .4-.1m1.8-.4c-.1 0-.2.1-.3.1.1-.1.2-.1.3-.1M-138.2-295.2s-.1 0 0 0c-.1 0 0 0 0 0m3.6-.1h0" clip-rule="evenodd" mask="url(#G)"/></g><g transform="translate(119 93)"><defs><filter id="H" width="31.7" height="31.7" x="-96" y="-77.4" filterUnits="userSpaceOnUse"><feColorMatrix values="1 0 0 0 0 0 1 0 0 0 0 0 1 0 0 0 0 0 1 0"/></filter></defs><mask id="J" width="31.7" height="31.7" x="-96" y="-77.4" maskUnits="userSpaceOnUse"><g filter="url(#H)"><path fill="#fff" fill-rule="evenodd" d="M-64.3-61.6c0 8.8-7.1 15.9-15.9 15.9S-96-52.8-96-61.6s7.1-15.9 15.9-15.9 15.8 7.2 15.8 15.9" clip-rule="evenodd"/></g></mask><linearGradient id="I" x1="-338.577" x2="-338.577" y1="244.327" y2="244.592" gradientTransform="matrix(330.79 0 0 -330.79 111917.875 80786.75)" gradientUnits="userSpaceOnUse"><stop offset="0" stop-color="#437fec"/><stop offset=".544" stop-color="#48b2ed"/><stop offset="1" stop-color="#4cd9ed"/></linearGradient><path fill="url(#I)" fill-rule="evenodd" d="M-64.3-61.6c0 8.8-7.1 15.9-15.9 15.9S-96-52.8-96-61.6s7.1-15.9 15.9-15.9 15.8 7.2 15.8 15.9" clip-rule="evenodd" mask="url(#J)"/></g><g transform="translate(392 93)"><defs><filter id="K" width="31.7" height="31.7" x="-342.8" y="-77.4" filterUnits="userSpaceOnUse"><feColorMatrix values="1 0 0 0 0 0 1 0 0 0 0 0 1 0 0 0 0 0 1 0"/></filter></defs><mask id="M" width="31.7" height="31.7" x="-342.8" y="-77.4" maskUnits="userSpaceOnUse"><g filter="url(#K)"><path fill="#fff" fill-rule="evenodd" d="M-311.1-61.6c0 8.8-7.1 15.9-15.9 15.9s-15.9-7.1-15.9-15.9 7.1-15.9 15.9-15.9 15.9 7.2 15.9 15.9" clip-rule="evenodd"/></g></mask><linearGradient id="L" x1="-612.324" x2="-612.324" y1="244.327" y2="244.592" gradientTransform="matrix(330.79 0 0 -330.79 202223.703 80786.75)" gradientUnits="userSpaceOnUse"><stop offset="0" stop-color="#437fec"/><stop offset=".544" stop-color="#48b2ed"/><stop offset="1" stop-color="#4cd9ed"/></linearGradient><path fill="url(#L)" fill-rule="evenodd" d="M-311.1-61.6c0 8.8-7.1 15.9-15.9 15.9s-15.9-7.1-15.9-15.9 7.1-15.9 15.9-15.9 15.9 7.2 15.9 15.9" clip-rule="evenodd" mask="url(#M)"/></g><path fill="#fff" fill-rule="evenodd" d="M53 24.7c-.7 1.2-1.4 1.2-2 0-2.4-4.2-6.9-7-12.1-7-7.7 0-13.9 6.2-13.9 13.9s6.2 13.9 13.9 13.9c5.2 0 9.7-2.8 12.1-7 .7-1.2 1.4-1.2 2 0 2.4 4.2 6.9 7 12.1 7 7.7 0 13.9-6.2 13.9-13.9s-6.3-13.9-14-13.9c-5.1 0-9.6 2.9-12 7" clip-rule="evenodd"/><path fill="#f3f3f0" fill-rule="evenodd" d="M26.2 25.6c-.9 1.8-1.4 3.9-1.4 6.1 0 7.7 6.3 14 14 14 5.9 0 10.9-3.6 13-8.8-2.5 1.5-5.5 2.3-8.7 2.3-8.2 0-15.1-5.8-16.9-13.6" clip-rule="evenodd"/><path fill="#f3f3f0" fill-rule="evenodd" d="M52.5 25.6c-.9 1.8-1.4 3.9-1.4 6.1 0 7.7 6.3 14 14 14 5.9 0 10.9-3.6 13-8.8-2.5 1.5-5.5 2.3-8.7 2.3-8.3 0-15.2-5.8-16.9-13.6" clip-rule="evenodd"/><g transform="translate(219 193)"><defs><filter id="N" width="11.5" height="11.5" x="-186.4" y="-167.8" filterUnits="userSpaceOnUse"><feColorMatrix values="1 0 0 0 0 0 1 0 0 0 0 0 1 0 0 0 0 0 1 0"/></filter></defs><mask id="P" width="11.5" height="11.5" x="-186.4" y="-167.8" maskUnits="userSpaceOnUse"><g filter="url(#N)"><path fill="#fff" fill-rule="evenodd" d="M-174.9-162c0 3.2-2.6 5.8-5.8 5.8s-5.8-2.6-5.8-5.8c0-3.2 2.6-5.8 5.8-5.8s5.8 2.6 5.8 5.8" clip-rule="evenodd"/></g></mask><linearGradient id="O" x1="-438.703" x2="-438.638" y1="144.238" y2="144.182" gradientTransform="matrix(120.288 0 0 -120.287 52586.742 17185.049)" gradientUnits="userSpaceOnUse"><stop offset="0" stop-color="#4089bc"/><stop offset="1" stop-color="#334a8d"/></linearGradient><path fill="url(#O)" fill-rule="evenodd" d="M-174.9-162c0 3.2-2.6 5.8-5.8 5.8s-5.8-2.6-5.8-5.8c0-3.2 2.6-5.8 5.8-5.8s5.8 2.6 5.8 5.8" clip-rule="evenodd" mask="url(#P)"/></g><g transform="translate(257 215)"><defs><filter id="Q" width="5.8" height="5.8" x="-220.7" y="-187.7" filterUnits="userSpaceOnUse"><feColorMatrix values="1 0 0 0 0 0 1 0 0 0 0 0 1 0 0 0 0 0 1 0"/></filter></defs><mask id="S" width="5.8" height="5.8" x="-220.7" y="-187.7" maskUnits="userSpaceOnUse"><g filter="url(#Q)"><path fill="#fff" fill-rule="evenodd" d="M-215-184.8c0 1.6-1.3 2.9-2.9 2.9-1.6 0-2.9-1.3-2.9-2.9 0-1.6 1.3-2.9 2.9-2.9 1.6 0 2.9 1.3 2.9 2.9" clip-rule="evenodd"/></g></mask><linearGradient id="R" x1="-476.957" x2="-477.002" y1="121.825" y2="121.774" gradientTransform="matrix(60.143 0 0 -60.144 28468.795 7141.016)" gradientUnits="userSpaceOnUse"><stop offset="0" stop-color="#60615e"/><stop offset="1" stop-color="#2d2f2c"/></linearGradient><path fill="url(#R)" fill-rule="evenodd" d="M-215-184.8c0 1.6-1.3 2.9-2.9 2.9-1.6 0-2.9-1.3-2.9-2.9 0-1.6 1.3-2.9 2.9-2.9 1.6 0 2.9 1.3 2.9 2.9" clip-rule="evenodd" mask="url(#S)"/></g><path fill="#f3f3f0" fill-rule="evenodd" d="M41.5 29.1c0 1-.8 1.8-1.8 1.8s-1.8-.8-1.8-1.8.8-1.8 1.8-1.8 1.8.8 1.8 1.8" clip-rule="evenodd"/><g transform="translate(497 196)"><defs><filter id="T" width="11.5" height="11.5" x="-437.7" y="-170.6" filterUnits="userSpaceOnUse"><feColorMatrix values="1 0 0 0 0 0 1 0 0 0 0 0 1 0 0 0 0 0 1 0"/></filter></defs><mask id="V" width="11.5" height="11.5" x="-437.7" y="-170.6" maskUnits="userSpaceOnUse"><g filter="url(#T)"><path fill="#fff" fill-rule="evenodd" d="M-426.2-164.8c0 3.2-2.6 5.8-5.8 5.8-3.2 0-5.8-2.6-5.8-5.8 0-3.2 2.6-5.8 5.8-5.8 3.2 0 5.8 2.6 5.8 5.8" clip-rule="evenodd"/></g></mask><linearGradient id="U" x1="-718.793" x2="-718.729" y1="141.257" y2="141.201" gradientTransform="matrix(120.287 0 0 -120.287 86026.258 16823.693)" gradientUnits="userSpaceOnUse"><stop offset="0" stop-color="#4089bc"/><stop offset="1" stop-color="#334a8d"/></linearGradient><path fill="url(#U)" fill-rule="evenodd" d="M-426.2-164.8c0 3.2-2.6 5.8-5.8 5.8-3.2 0-5.8-2.6-5.8-5.8 0-3.2 2.6-5.8 5.8-5.8 3.2 0 5.8 2.6 5.8 5.8" clip-rule="evenodd" mask="url(#V)"/></g><g transform="translate(535 218)"><defs><filter id="W" width="5.8" height="5.8" x="-472.1" y="-190.5" filterUnits="userSpaceOnUse"><feColorMatrix values="1 0 0 0 0 0 1 0 0 0 0 0 1 0 0 0 0 0 1 0"/></filter></defs><mask id="Y" width="5.8" height="5.8" x="-472.1" y="-190.5" maskUnits="userSpaceOnUse"><g filter="url(#W)"><path fill="#fff" fill-rule="evenodd" d="M-466.3-187.6c0 1.6-1.3 2.9-2.9 2.9-1.6 0-2.9-1.3-2.9-2.9 0-1.6 1.3-2.9 2.9-2.9 1.6 0 2.9 1.3 2.9 2.9" clip-rule="evenodd"/></g></mask><linearGradient id="X" x1="-759.138" x2="-759.183" y1="118.862" y2="118.811" gradientTransform="matrix(60.143 0 0 -60.144 45188.71 6960.09)" gradientUnits="userSpaceOnUse"><stop offset="0" stop-color="#60615e"/><stop offset="1" stop-color="#2d2f2c"/></linearGradient><path fill="url(#X)" fill-rule="evenodd" d="M-466.3-187.6c0 1.6-1.3 2.9-2.9 2.9-1.6 0-2.9-1.3-2.9-2.9 0-1.6 1.3-2.9 2.9-2.9 1.6 0 2.9 1.3 2.9 2.9" clip-rule="evenodd" mask="url(#Y)"/></g><path fill="#f3f3f0" fill-rule="evenodd" d="M68.2 29.4c0 1-.8 1.8-1.8 1.8s-1.8-.8-1.8-1.8.8-1.8 1.8-1.8 1.8.8 1.8 1.8" clip-rule="evenodd"/><path fill="#fe9a33" fill-rule="evenodd" d="M49.1 70.4c-.2-.1-.4-.1-.6-.2-.3-.1-.5-.1-.8-.1-.3 0-.6 0-.8.1-.2 0-.4.1-.6.2-.8.3-1.5 1-1.9 1.7.3.6.6 1 1 1 .5 0 .9-.5 1.1-1.3.3.8.7 1.3 1.1 1.3s.9-.5 1.1-1.3c.3.8.7 1.3 1.1 1.3.4 0 .8-.4 1-1-.2-.7-.9-1.4-1.7-1.7m8.3 0c-.2-.1-.4-.2-.6-.2-.3-.1-.6-.1-.9-.1-.3 0-.5 0-.7.1-.2 0-.4.1-.6.2-.8.3-1.5.9-1.9 1.7.3.7.7 1.1 1.1 1.1.5 0 .9-.5 1.1-1.3.3.8.7 1.3 1.1 1.3s.9-.5 1.1-1.3c.3.8.7 1.3 1.1 1.3.4 0 .7-.3 1-.9-.3-.9-1-1.5-1.8-1.9" clip-rule="evenodd"/><g transform="translate(337 622)"><defs><filter id="Z" width="7.5" height="5.8" x="-293.1" y="-555.6" filterUnits="userSpaceOnUse"><feColorMatrix values="1 0 0 0 0 0 1 0 0 0 0 0 1 0 0 0 0 0 1 0"/></filter></defs><mask id="aa" width="7.5" height="5.8" x="-293.1" y="-555.6" maskUnits="userSpaceOnUse"><g filter="url(#Z)"><path fill="#fff" fill-rule="evenodd" d="M-287-555.6c-.5 0-.9.5-1.1 1.3-.3-.8-.7-1.3-1.1-1.3s-.9.5-1.1 1.3c-.3-.8-.7-1.3-1.1-1.3-.8 0-1.5 1.5-1.5 3.4 0 .9.2 1.8.4 2.4.4-.8 1.1-1.4 1.9-1.7.2-.1.4-.1.6-.2.3-.1.5-.1.8-.1s.6 0 .8.1c.2 0 .4.1.6.2.8.3 1.5 1 1.9 1.7.3-.6.4-1.5.4-2.4 0-1.9-.7-3.4-1.5-3.4" clip-rule="evenodd"/></g></mask><path fill="#fe9a33" fill-rule="evenodd" d="M-287-555.6c-.5 0-.9.5-1.1 1.3-.3-.8-.7-1.3-1.1-1.3s-.9.5-1.1 1.3c-.3-.8-.7-1.3-1.1-1.3-.8 0-1.5 1.5-1.5 3.4 0 .9.2 1.8.4 2.4.4-.8 1.1-1.4 1.9-1.7.2-.1.4-.1.6-.2.3-.1.5-.1.8-.1s.6 0 .8.1c.2 0 .4.1.6.2.8.3 1.5 1 1.9 1.7.3-.6.4-1.5.4-2.4 0-1.9-.7-3.4-1.5-3.4" clip-rule="evenodd" mask="url(#aa)"/></g><g transform="translate(423 622)"><defs><filter id="ab" width="7.5" height="5.9" x="-370.8" y="-555.6" filterUnits="userSpaceOnUse"><feColorMatrix values="1 0 0 0 0 0 1 0 0 0 0 0 1 0 0 0 0 0 1 0"/></filter></defs><mask id="ac" width="7.5" height="5.9" x="-370.8" y="-555.6" maskUnits="userSpaceOnUse"><g filter="url(#ab)"><path fill="#fff" fill-rule="evenodd" d="M-364.7-555.6c-.5 0-.9.5-1.1 1.3-.3-.8-.7-1.3-1.1-1.3s-.9.5-1.1 1.3c-.3-.8-.7-1.3-1.1-1.3-.8 0-1.5 1.5-1.5 3.4 0 .9.2 1.7.4 2.3.4-.8 1.1-1.3 1.9-1.7.2-.1.4-.1.6-.2.2 0 .5-.1.7-.1.3 0 .6 0 .9.1.2.1.4.1.6.2.8.4 1.5 1 1.8 1.8.3-.6.5-1.5.5-2.5-.1-1.8-.7-3.3-1.5-3.3" clip-rule="evenodd"/></g></mask><path fill="#fe9a33" fill-rule="evenodd" d="M-364.7-555.6c-.5 0-.9.5-1.1 1.3-.3-.8-.7-1.3-1.1-1.3s-.9.5-1.1 1.3c-.3-.8-.7-1.3-1.1-1.3-.8 0-1.5 1.5-1.5 3.4 0 .9.2 1.7.4 2.3.4-.8 1.1-1.3 1.9-1.7.2-.1.4-.1.6-.2.2 0 .5-.1.7-.1.3 0 .6 0 .9.1.2.1.4.1.6.2.8.4 1.5 1 1.8 1.8.3-.6.5-1.5.5-2.5-.1-1.8-.7-3.3-1.5-3.3" clip-rule="evenodd" mask="url(#ac)"/></g><path fill="#f9b06e" fill-rule="evenodd" d="M48.6 46.9c0 .2.1.4.2.6l2.5 4.7c.4.7 1 .7 1.4 0l2.4-4.7c.1-.2.2-.4.2-.6-1 .5-2.1.8-3.3.8-1.3 0-2.5-.3-3.4-.8" clip-rule="evenodd"/><path fill="#fe9a33" fill-rule="evenodd" d="M54.9 45l-2.1-3.5c-.4-.7-1.1-.7-1.6 0L48.9 45c-.3.5-.4 1.3-.3 1.9 1 .5 2.1.8 3.3.8 1.2 0 2.4-.3 3.3-.8.1-.6 0-1.4-.3-1.9" clip-rule="evenodd"/></g></svg>