<svg xmlns="http://www.w3.org/2000/svg" role="img" xmlns:xlink="http://www.w3.org/1999/xlink" viewBox="-11.80 -8.80 769.60 86.10"><title>Compassion8Innovation.org (member) logo</title><defs><path d="M35.27344-15.0586l5.6836 1.4336c-1.19141 4.66797-3.33595 8.23047-6.4297 10.67969C31.4297-.4922 27.64844.73438 23.17187.73438c-4.6289 0-8.39062-.94532-11.29296-2.82813-2.89844-1.88672-5.10547-4.61719-6.6211-8.1875-1.51172-3.57422-2.26953-7.41406-2.26953-11.51563 0-4.47265.85547-8.375 2.5625-11.70312 1.71094-3.33203 4.14063-5.85938 7.29688-7.58984C16-42.81641 19.47266-43.6797 23.26172-43.6797c4.29687 0 7.91015 1.09375 10.83984 3.28125 2.92969 2.1875 4.96875 5.26172 6.125 9.22657l-5.59765 1.3203c-.9961-3.125-2.44141-5.40234-4.33594-6.82812-1.89453-1.42578-4.27735-2.14062-7.14844-2.14062-3.30078 0-6.0586.79297-8.27734 2.375-2.21485 1.58203-3.77344 3.70703-4.67188 6.3711-.89843 2.66796-1.34765 5.41796-1.34765 8.24609 0 3.65234.53125 6.84374 1.59765 9.5664 1.0625 2.72656 2.71875 4.76172 4.96485 6.10938 2.24609 1.34765 4.67578 2.01953 7.29297 2.01953 3.18359 0 5.8828-.91406 8.08593-2.75 2.20703-1.83594 3.70313-4.5625 4.48438-8.17578zm0 0" id="a"/><path d="M1.99219-15.55469c0-5.76172 1.60156-10.03125 4.80468-12.80468 2.67579-2.3047 5.9375-3.45704 9.78516-3.45704 4.27735 0 7.77344 1.40235 10.48828 4.20313 2.71485 2.80469 4.07032 6.67578 4.07032 11.61719 0 4.0039-.59766 7.15234-1.80079 9.44922-1.19921 2.29296-2.94921 4.07812-5.24218 5.34375C21.80078.0664 19.29687.70311 16.58203.70311c-4.35547 0-7.875-1.39843-10.5625-4.1875-2.6836-2.79296-4.02734-6.8203-4.02734-12.0703zm5.42187 0c0 3.98438.86719 6.96485 2.60547 8.94922 1.73828 1.98047 3.92578 2.97266 6.5625 2.97266 2.61719 0 4.79297-.9961 6.53516-2.98828 1.73828-1.9922 2.60547-5.02735 2.60547-9.11329 0-3.84765-.875-6.76171-2.6211-8.74218-1.75-1.98438-3.92187-2.97657-6.51953-2.97657-2.63672 0-4.82422.98829-6.5625 2.96094-1.73828 1.97266-2.60547 4.95313-2.60547 8.9375zm0 0" id="b"/><path d="M3.95313 0v-31.11328h4.71875V-26.75c.97656-1.52344 2.27343-2.7461 3.89843-3.67578 1.6211-.92578 3.46485-1.39063 5.53516-1.39063 2.30469 0 4.19531.48047 5.66797 1.4336 1.47656.95703 2.51562 2.29687 3.1211 4.01562C29.35546-30 32.55858-31.8164 36.5039-31.8164c3.08593 0 5.45703.85547 7.12109 2.5625 1.66016 1.71094 2.48828 4.33985 2.48828 7.89454V0h-5.2461v-19.60156c0-2.10938-.16796-3.625-.51171-4.55469-.33984-.92578-.96094-1.67188-1.85938-2.24219-.89843-.5664-1.95312-.84765-3.16406-.84765-2.1875 0-4.0039.72656-5.44922 2.18359-1.44531 1.45313-2.16797 3.78125-2.16797 6.98438V0h-5.27343v-20.21484c0-2.34375-.4297-4.10157-1.28907-5.27344-.85937-1.17188-2.26562-1.75781-4.21875-1.75781-1.48437 0-2.85546.39062-4.11718 1.17187-1.25782.78125-2.17188 1.92578-2.73828 3.42578-.56641 1.5039-.85157 3.67188-.85157 6.50782V0zm0 0" id="c"/><path d="M3.95313 11.92188v-43.03516H8.7578v4.04297c1.13282-1.58203 2.41407-2.76953 3.83985-3.5586 1.42578-.79296 3.15234-1.1875 5.18359-1.1875 2.65625 0 5 .6836 7.03125 2.05079 2.03125 1.36718 3.5664 3.29687 4.60156 5.78515 1.03516 2.49219 1.55469 5.22266 1.55469 8.1914 0 3.1836-.57422 6.04688-1.71484 8.59766-1.14454 2.54688-2.8047 4.5-4.98047 5.85938C22.09375.02344 19.80469.70313 17.40234.70313c-1.7578 0-3.33593-.3711-4.73046-1.11329-1.39844-.74218-2.54688-1.67968-3.44532-2.8125v15.14454zm4.77734-27.3047c0 4.00391.8086 6.96485 2.4336 8.87891 1.62109 1.91407 3.58202 2.8711 5.88671 2.8711 2.34375 0 4.35156-.99219 6.01953-2.97266 1.67188-1.98437 2.50782-5.05469 2.50782-9.21484 0-3.96485-.81641-6.9336-2.44922-8.90625-1.62891-1.97266-3.57813-2.96094-5.84375-2.96094-2.2461 0-4.23438 1.05078-5.96094 3.15234-1.73047 2.09766-2.59375 5.15235-2.59375 9.15235zm0 0" id="d"/><path d="M24.25781-3.83594C22.3047-2.17578 20.42578-1.0078 18.6172-.3203 16.8125.36329 14.875.70313 12.80469.70313c-3.41797 0-6.04688-.83594-7.88282-2.50391-1.83593-1.67188-2.7539-3.80469-2.7539-6.40235 0-1.52343.34766-2.91406 1.03906-4.17578.69531-1.2578 1.60156-2.26953 2.72656-3.03125 1.1211-.76172 2.38672-1.33984 3.79297-1.73047 1.03516-.27343 2.59766-.53515 4.6875-.78906 4.25782-.50781 7.39063-1.11328 9.40625-1.8164.01953-.72266.02735-1.1836.02735-1.37891 0-2.14844-.4961-3.66016-1.4961-4.53906-1.34765-1.1914-3.34765-1.78907-6.0039-1.78907-2.48047 0-4.3125.4375-5.4922 1.3047-1.18359.87109-2.05859 2.40624-2.62109 4.61718l-5.15625-.70313c.46875-2.20703 1.23829-3.99218 2.3125-5.34765 1.07422-1.35938 2.625-2.40235 4.65625-3.13672 2.03125-.73047 4.38672-1.09766 7.0625-1.09766 2.65626 0 4.8125.3125 6.47657.9375 1.66015.625 2.8789 1.41016 3.66015 2.35938.78125.94531 1.32813 2.14453 1.64063 3.58984.17578.89844.26172 2.51563.26172 4.85938v7.03125c0 4.90234.11328 8.0039.33984 9.30468C29.71094-2.4375 30.15625-1.1914 30.82031 0H25.3125c-.54688-1.09375-.89844-2.375-1.05469-3.83594zm-.4375-11.78125c-1.91406.78125-4.78906 1.44532-8.61718 1.99219-2.16797.3125-3.69922.66406-4.59766 1.05469-.89844.39062-1.58985.96484-2.08203 1.71484-.48828.7539-.73047 1.58985-.73047 2.5039 0 1.40626.53125 2.57813 1.59765 3.51563 1.0625.9375 2.6211 1.40625 4.67188 1.40625 2.03125 0 3.83594-.4414 5.42188-1.33203 1.58203-.88672 2.74218-2.10547 3.48437-3.64453.5664-1.1914.85156-2.95313.85156-5.27344zm0 0" id="e"/><path d="M1.84375-9.28906l5.21875-.82032c.29297 2.08985 1.10547 3.69532 2.44531 4.8047 1.33594 1.11327 3.20703 1.67187 5.60938 1.67187 2.42187 0 4.21875-.49219 5.39062-1.48047 1.17188-.98438 1.75782-2.14453 1.75782-3.47266 0-1.1914-.51563-2.125-1.5547-2.8125-.72265-.46875-2.51562-1.0625-5.39062-1.78515-3.86718-.97657-6.54687-1.82032-8.03906-2.53516-1.4961-.71094-2.6289-1.69922-3.39844-2.95703-.77344-1.26172-1.15625-2.65235-1.15625-4.17578 0-1.38672.3164-2.67188.94922-3.85157.63672-1.18359 1.5-2.16406 2.59375-2.9453.82031-.60548 1.9375-1.1172 3.35547-1.53907 1.41406-.41797 2.9336-.6289 4.55469-.6289 2.4414 0 4.58593.35156 6.42968 1.05468 1.84766.70313 3.21094 1.65625 4.08594 2.85547.8789 1.20313 1.48438 2.8086 1.82032 4.82031l-5.15626.70313c-.23437-1.60157-.91406-2.85157-2.03906-3.75-1.1211-.89844-2.71093-1.34766-4.75781-1.34766-2.42188 0-4.15234.40235-5.1875 1.19922-1.03516.80078-1.55469 1.74219-1.55469 2.8125 0 .6836.21875 1.30078.64844 1.84766.42969.5664 1.10156 1.03515 2.01953 1.40625.52735.1953 2.08203.64453 4.66016 1.34765 3.73047.9961 6.33203 1.8125 7.80468 2.44532 1.47657.63671 2.63282 1.55859 3.47266 2.76953.83985 1.21093 1.26172 2.71484 1.26172 4.51172 0 1.7578-.51563 3.41406-1.53906 4.96484-1.02735 1.55469-2.50782 2.7539-4.4375 3.60547-1.9336.84765-4.125 1.27344-6.5625 1.27344-4.04297 0-7.125-.83985-9.2461-2.51954C3.78516-3.49609 2.4297-5.98437 1.84375-9.28906zm0 0" id="f"/><path d="M3.98438-36.88281v-6.0664H9.2578v6.0664zM3.98438 0v-31.11328H9.2578V0zm0 0" id="g"/><path d="M3.95313 0v-31.11328h4.75v4.42578c2.28515-3.41797 5.58593-5.1289 9.89843-5.1289 1.875 0 3.60157.33593 5.17188 1.01171 1.57422.67188 2.75 1.55469 3.53125 2.64844s1.32812 2.39453 1.64062 3.89844c.19532.97656.29297 2.6875.29297 5.125V0h-5.27344v-18.92578c0-2.14844-.20703-3.7539-.61328-4.82031-.41015-1.0625-1.14062-1.91407-2.1836-2.54688-1.04687-.63672-2.26952-.95312-3.67577-.95312-2.2461 0-4.1875.71484-5.8164 2.13671-1.63282 1.42579-2.44923 4.13282-2.44923 8.1172V0zm0 0" id="h"/><path d="M10.60547-23.28906c-2.1875-.80078-3.8086-1.94532-4.86328-3.42969-1.05469-1.48438-1.58203-3.26172-1.58203-5.33203 0-3.125 1.12109-5.7539 3.37109-7.8789 2.2461-2.12891 5.23438-3.19532 8.96094-3.19532 3.75 0 6.76953 1.08984 9.05468 3.26563 2.28516 2.17968 3.4297 4.82812 3.4297 7.95312 0 1.99219-.52344 3.72656-1.57032 5.20313-1.04297 1.47265-2.63281 2.60937-4.75781 3.41406 2.63672.85937 4.64062 2.24218 6.01953 4.15625 1.375 1.91406 2.0664 4.20312 2.0664 6.85937 0 3.67188-1.30078 6.75782-3.89843 9.25782-2.59766 2.5-6.01563 3.75-10.2539 3.75-4.23829 0-7.65626-1.25782-10.25391-3.76563-2.59766-2.51172-3.89844-5.64063-3.89844-9.39063 0-2.79296.71094-5.1328 2.125-7.01562 1.41797-1.88672 3.4336-3.17188 6.05078-3.85156zm-1.05469-8.9375c0 2.03125.65235 3.6914 1.96485 4.98047 1.30859 1.28906 3.0078 1.93359 5.09375 1.93359 2.03124 0 3.69921-.64063 4.99609-1.91797 1.30078-1.28125 1.94922-2.84765 1.94922-4.70312 0-1.9336-.66797-3.5586-2.00782-4.87891-1.33593-1.3164-3-1.97656-4.99218-1.97656-2.01172 0-3.6836.64453-5.01172 1.9336-1.32813 1.28905-1.99219 2.83202-1.99219 4.6289zM7.85156-12.39063c0 1.50391.35547 2.95704 1.07031 4.36329.71094 1.40625 1.77344 2.49609 3.1797 3.26562 1.40624.77344 2.91796 1.16016 4.53905 1.16016 2.51954 0 4.60157-.8125 6.2422-2.4336 1.64062-1.62109 2.46093-3.68359 2.46093-6.18359 0-2.53906-.84766-4.63672-2.53516-6.29688-1.6914-1.66015-3.80468-2.49218-6.34375-2.49218-2.48046 0-4.53515.82031-6.16796 2.46093-1.62891 1.64063-2.44532 3.69532-2.44532 6.15626zm0 0" id="i"/><path d="M5.59375 0v-42.94922h5.6875V0zm0 0" id="j"/><path d="M12.59766 0L.76172-31.11328h5.5664l6.6797 18.63281C13.73046-10.46875 14.39452-8.3789 15-6.21094c.46875-1.64062 1.125-3.61328 1.96094-5.91797L23.875-31.11328h5.42188L17.51953 0zm0 0" id="k"/><path d="M15.46875-4.71875l.76172 4.66016c-1.48438.3125-2.8125.46875-3.98438.46875-1.91406 0-3.39843-.30079-4.45312-.91016-1.05469-.60547-1.79688-1.39844-2.22656-2.38672-.4297-.98437-.64454-3.0586-.64454-6.22266v-17.90234H1.0547v-4.10156h3.86719v-7.70703l5.24218-3.16407v10.8711h5.30469v4.10156h-5.30469v18.1914c0 1.50391.09375 2.47266.28125 2.90235.1836.42969.48828.76953.90625 1.02735.42188.2539 1.02344.3789 1.80469.3789.58594 0 1.35547-.0664 2.3125-.20703zm0 0" id="l"/><path d="M5.44922 0v-6.00781h6.0039V0zm0 0" id="m"/><path d="M3.89844 0v-31.11328h4.74218v4.71484c1.21094-2.20703 2.33204-3.66015 3.35547-4.36328 1.02735-.70312 2.15235-1.05469 3.38672-1.05469 1.77735 0 3.58203.56641 5.41797 1.69922l-1.8164 4.89063c-1.28907-.76172-2.57813-1.14063-3.8672-1.14063-1.15234 0-2.1875.34766-3.10546 1.03907-.91797.6953-1.57422 1.65624-1.96485 2.88671-.58593 1.875-.875 3.92579-.875 6.15235V0zm0 0" id="n"/><path d="M2.98828 2.57813l5.1289.76171c.21485 1.58203.8086 2.73438 1.78516 3.45703 1.3086.97657 3.09766 1.46485 5.36328 1.46485 2.44141 0 4.32422-.48828 5.65235-1.46485 1.32812-.97656 2.22656-2.34375 2.69531-4.10156.27344-1.07422.40235-3.32812.3789-6.76562C21.6875-1.35547 18.82032 0 15.38282 0c-4.27734 0-7.58984-1.54297-9.9336-4.6289C3.10548-7.71485 1.9336-11.41407 1.9336-15.73438c0-2.96875.53516-5.70704 1.61329-8.21485 1.07421-2.51172 2.6289-4.44922 4.67187-5.8164 2.03906-1.3672 4.4375-2.05079 7.1914-2.05079 3.67188 0 6.69923 1.48438 9.08204 4.45313v-3.75h4.86328v26.89453c0 4.84375-.49219 8.27734-1.48047 10.29688-.98438 2.02343-2.54688 3.61718-4.6875 4.78906-2.13672 1.17187-4.76953 1.75781-7.89453 1.75781-3.71094 0-6.70703-.83203-8.9961-2.5039-2.28515-1.66798-3.38671-4.1836-3.30859-7.54298zm4.36328-18.69141c0 4.08203.8125 7.0586 2.4336 8.9336 1.62109 1.875 3.65234 2.8125 6.09375 2.8125 2.42187 0 4.45312-.9297 6.09375-2.79688 1.64062-1.86328 2.46093-4.78906 2.46093-8.77344 0-3.8086-.84375-6.67969-2.53515-8.61328-1.6875-1.9336-3.72657-2.90235-6.10938-2.90235-2.34375 0-4.33593.95313-5.97656 2.85938-1.64063 1.90234-2.46094 4.73047-2.46094 8.48047zm0 0" id="o"/></defs><use y="50" xlink:href="#a"/><use x="43.33" y="50" xlink:href="#b"/><use x="76.699" y="50" xlink:href="#c"/><use x="126.68" y="50" xlink:href="#d"/><use x="160.049" y="50" xlink:href="#e"/><use x="193.418" y="50" xlink:href="#f"/><use x="223.418" y="50" xlink:href="#f"/><use x="253.418" y="50" xlink:href="#g"/><use x="266.748" y="50" xlink:href="#b"/><use x="300.117" y="50" xlink:href="#h"/><use x="333.486" y="50" xlink:href="#i"/><use x="366.855" y="50" xlink:href="#j"/><use x="383.525" y="50" xlink:href="#h"/><use x="416.895" y="50" xlink:href="#h"/><use x="450.264" y="50" xlink:href="#b"/><use x="483.633" y="50" xlink:href="#k"/><use x="513.633" y="50" xlink:href="#e"/><use x="547.002" y="50" xlink:href="#l"/><use x="563.672" y="50" xlink:href="#g"/><use x="577.002" y="50" xlink:href="#b"/><use x="610.371" y="50" xlink:href="#h"/><use x="643.74" y="50" xlink:href="#m"/><use x="660.41" y="50" xlink:href="#b"/><use x="693.779" y="50" xlink:href="#n"/><use x="713.76" y="50" xlink:href="#o"/></svg>