<svg xmlns="http://www.w3.org/2000/svg" role="img" viewBox="-33.44 -33.44 1738.88 654.88"><title>ConfidentialMind (member) logo</title><path fill="url(#paint0_linear_61_2665)" fill-rule="evenodd" d="M3.92616 0H77.2589c2.1684 0 3.9262 1.76218 3.9262 3.93595V74.316c0 2.1738-1.7578 3.9359-3.9262 3.9359H3.92616C1.7578 78.2519 0 76.4898 0 74.316V3.93595C0 1.76218 1.7578 0 3.92616 0zM1573.99 258.874V96.1169c0-1.4037.81-2.7405 2.01-3.4757l91.18-50.2642c2.61-1.4705 5.82.4679 5.82 3.4757V576.3c0 2.206-1.74 3.944-3.95 3.944h-72.85c-1.6 0-3.01-.936-3.61-2.406l-10.7-25.734c-1.14-2.807-4.89-3.275-6.69-.869-7.49 10.026-18.47 18.515-32.91 25.399-17.2 8.289-34.86 12.366-52.79 12.366-52.91 0-92.98-17.178-120.21-51.668-22.34-28.14-33.51-64.568-33.51-109.151 0-65.036 18.73-114.565 56.12-148.52 27.63-25.733 60.68-38.567 99.08-38.567 30.1 0 55.79 7.019 76.99 21.189 2.61 1.738 6.02-.201 6.02-3.342v-.067zm0 107.814s0-.602-.06-.936c-3.48-16.309-10.71-29.477-21.81-39.57-11.11-10.092-24.28-15.306-39.34-15.306-23.81 0-42.41 9.224-55.72 27.672-13.38 18.448-20.07 43.647-20.07 75.73 0 69.381 21.34 104.071 64.09 104.071 16.99 0 33.04-7.152 48.1-21.455 15.05-14.304 23.28-30.48 24.75-48.393v-81.746l.06-.067zm-498.7-89.567c-2.01 2.006-5.49 1.137-6.43-1.604l-7.89-23.127c-.54-1.604-2.07-2.673-3.75-2.673h-77.73c-2.208 0-3.947 1.738-3.947 3.943v322.707c0 2.206 1.739 3.944 3.947 3.944h91.18c2.21 0 3.95-1.738 3.95-3.944V344.564c0-1.003.33-1.939 1-2.674 4.08-4.411 11.17-8.422 21.21-11.964 10.97-3.877 21.54-5.816 31.7-5.816 39.34 0 59.01 22.058 59.01 66.24v186.017c0 2.206 1.74 3.944 3.94 3.944h91.92c2.21 0 3.95-1.738 3.95-3.944V386.673c0-52.403-9.1-89.767-27.37-112.092-18.19-22.324-48.43-33.487-90.64-33.487-16.99 0-35.32 3.944-54.99 11.965-16.86 6.818-29.9 14.905-39.06 24.062zM908.447 576.233V253.66c0-2.205-1.74-3.943-3.947-3.943h-91.915c-2.208 0-3.947 1.738-3.947 3.943v322.573c0 2.206 1.739 3.944 3.947 3.944H904.5c2.207 0 3.947-1.738 3.947-3.944zm-51.845-444.891l5.954-9.893.067-.066c-7.225-6.15-14.249-9.224-21.139-9.224-10.436 0-18.463 3.342-24.217 10.026-5.686 6.55-8.562 15.507-8.562 26.803 0 8.422 2.007 15.774 6.02 21.99 5.887 8.957 14.851 13.435 26.96 13.435 8.428 0 15.72-3.141 21.808-9.424l-5.954-9.224c-5.486 3.409-10.168 5.147-13.981 5.147-5.954 0-10.637-2.34-14.115-6.952-3.145-4.278-4.75-9.224-4.75-14.972 0-7.219 1.605-13.034 4.75-17.245 3.144-4.211 7.425-6.35 12.844-6.35 4.214 0 8.964 2.005 14.315 5.949zm46.76-19.117c10.771 0 19.133 4.278 24.953 12.834 4.549 6.684 6.823 14.705 6.823 24.196 0 10.828-3.01 19.518-9.031 26.068-5.619 6.083-13.245 9.157-22.811 9.157-10.971 0-19.333-3.943-25.086-11.764-4.549-6.216-6.824-14.036-6.824-23.394 0-11.095 2.944-20.052 8.897-26.937 5.753-6.751 13.38-10.093 23.013-10.093l.066-.067zm.034 59.288c10.413-.016 15.62-7.435 15.62-22.191 0-7.82-1.471-13.903-4.482-18.114-2.809-3.81-6.489-5.748-11.104-5.748-5.085 0-8.965 2.072-11.707 6.283-2.743 4.211-4.148 10.026-4.148 17.579 0 14.756 5.273 22.176 15.821 22.191zm44.252-57.951v69.581h15.185v-45.05c15.654 21.188 27.294 36.161 34.853 45.05h13.114v-69.581h-15.522v46.588c-15.32-21.121-26.959-36.695-34.853-46.588h-12.777zm79.542 69.581v-.066h15.45v-29.544h25.62v-12.299h-25.62v-15.373h30.84v-12.299h-46.29v69.515h-.07l.07.066zm74.45-.066v-69.582h-15.18v69.582h15.18zm16.93-.067v-69.381c.93-.267 3.68-.601 8.22-.936 4.49-.334 8.3-.468 11.31-.468 12.64 0 22.28 3.677 28.97 10.962 5.62 6.217 8.49 14.371 8.49 24.397 0 12.566-3.61 21.924-10.9 28.274-6.62 5.748-15.86 8.555-27.83 8.555-7.43 0-13.45-.467-18.13-1.403h-.13zm15.52-57.951v46.722c1.27.334 2.67.534 4.28.534h.53c13.58 0 20.34-8.087 20.34-24.33 0-8.087-2.21-14.17-6.69-18.381-3.68-3.342-8.3-5.08-13.98-5.08h-.67c-.94 0-2.21.134-3.88.468l.07.067zm99.67-11.564h-46.36v69.582h47.77v-12.299h-32.25v-17.379h25.62v-12.298h-25.62v-15.307h30.84v-12.299zm14.45 69.648v-69.581h12.78c7.89 9.893 19.53 25.467 34.85 46.588v-46.588h15.52v69.581h-13.11c-7.56-8.889-19.2-23.862-34.85-45.05v45.05h-15.19zm72.78-57.282h19.87v57.282h15.66v-57.282h21.47v-12.299h-57v12.299zm81.88-12.366v69.582h-15.18v-69.582h15.18zm47.23 0h-12.71l-25.75 69.582h15.38c1.41-4.211 2.95-8.957 4.62-14.171h24.08c1.67 5.882 3.15 10.561 4.42 14.171h15.72l-25.76-69.582zm-13.98 42.645c3.48-10.294 6.09-17.713 7.69-22.191 1.88 5.614 4.35 13.034 7.5 22.191h-15.19zm48.3 27.003v-69.581h15.52v57.283h25.82v12.298h-41.34zm-906.209-63.931h147.93v455.97c0 2.201-1.731 3.936-3.927 3.936H627.92c-2.196 0-3.926-1.735-3.926-3.936V271.447c0-3.803-4.791-5.404-7.054-2.402l-136.883 180.72c-1.597 2.068-4.659 2.068-6.256 0L332.46 263.775c-2.263-3.002-7.054-1.334-7.054 2.402v309.005c0 2.201-1.73 3.936-3.926 3.936H167.654c-1.847 0-3.345-1.527-3.345-3.41v-83.502c0-1.883 1.498-3.409 3.345-3.409h57.734V329.406h-57.896c-1.758 0-3.183-1.453-3.183-3.245v-83.83c0-1.793 1.425-3.246 3.183-3.246h57.896V123.148c0-2.201 1.731-3.936 3.927-3.936h137.548c1.265 0 2.463.601 3.195 1.601l102.945 141.094c1.597 2.202 4.858 2.135 6.388-.133l95.559-140.827c.732-1.067 1.93-1.735 3.261-1.735zM186.369 371.91h-70.621c-2.453 0-4.442 1.994-4.442 4.453v70.79c0 2.459 1.989 4.452 4.442 4.452h70.621c2.453 0 4.442-1.993 4.442-4.452v-70.79c0-2.459-1.989-4.453-4.442-4.453zM127.833 99.2659h60.822c2.169 0 3.927 1.7621 3.927 3.9361v60.974c0 2.173-1.758 3.936-3.927 3.936h-60.822c-2.168 0-3.926-1.763-3.926-3.936v-60.974c0-2.174 1.758-3.9361 3.926-3.9361zM64.3491 187.991h66.2789c2.168 0 3.926 1.763 3.926 3.936v66.444c0 2.174-1.758 3.936-3.926 3.936H64.3491c-2.1683 0-3.9261-1.762-3.9261-3.936v-66.444c0-2.173 1.7578-3.936 3.9261-3.936z" clip-rule="evenodd"/><defs><linearGradient id="paint0_linear_61_2665" x1="233.732" x2="311.77" y1="0" y2="711.385" gradientUnits="userSpaceOnUse"><stop/><stop offset="1" stop-color="#000830"/></linearGradient></defs></svg>