<svg xmlns="http://www.w3.org/2000/svg" role="img" viewBox="-693.04 60.96 1354.08 213.08"><title>Contrast Security logo</title><style>svg {enable-background:new 0 0 771.7 325.7}</style><style>.st1{fill:#868787}.st2{fill:#3dbdaa}</style><path fill="#fff" d="M-201.6 114.7c0-.6.2-1.2.7-1.5.4-.4 1-.6 1.6-.6h51.8c.6 0 1.1.2 1.5.5.5.3.7.9.8 1.6v11.9c0 .6-.2 1.1-.6 1.7-.4.5-1 .8-1.7.8h-16.6v52.7c0 .6-.2 1.1-.6 1.6-.4.5-1 .7-1.6.7h-14.1c-.5 0-1.1-.2-1.5-.6s-.7-1-.7-1.6v-52.7h-16.5c-.6 0-1.2-.2-1.6-.6-.4-.4-.7-1-.7-1.8l-.2-12.1zm-49.5 45.4c-.3-.2-.6-.3-.9-.3-.4 0-1 .2-1.6.7l-8.3 7.9c-.7.7-1.1 1.3-1.1 1.8s.4 1.1 1.1 1.9l.1.1.1.1.1.1.1.1.1.1c.5.6 1.2 1.3 2.1 2.2s2 1.8 3.2 2.8c3.1 2.2 6.4 4 10 5.3 3.6 1.3 7.2 2 10.9 2 3.9 0 7.6-.6 11-1.7 3.4-1.1 6.4-2.7 8.9-4.7s4.5-4.5 5.9-7.3 2.2-6.1 2.2-9.6c0-3.3-.6-6.2-1.8-8.5-1.2-2.3-2.8-4.4-4.9-6-2.1-1.7-4.6-3.1-7.4-4.4-2.9-1.2-6-2.4-9.4-3.5-1.8-.6-3.3-1.1-4.6-1.6s-2.5-1-3.3-1.6c-.9-.6-1.6-1.2-2-1.8s-.7-1.4-.7-2.3c0-.9.2-1.7.6-2.3.4-.6 1-1.1 1.7-1.5.7-.4 1.5-.7 2.5-.8.9-.2 1.9-.3 3-.3 1 0 2 .2 3 .5s1.9.7 2.8 1.2c.9.5 1.7 1 2.5 1.6.8.6 1.5 1.1 2.1 1.7l.4.4c.5.4.9.7 1.2 1 .4.3.8.4 1.2.4.5 0 1.1-.3 1.6-.8l7.4-7.8c.4-.4.7-.8.9-1.2s.3-.7.3-1.2c0-.4-.2-.9-.7-1.5-.4-.6-1-1.2-1.8-1.8s-1.6-1.3-2.6-2-2-1.4-3.1-2c-2.6-1.4-5.2-2.5-7.9-3.2s-5.5-1-8.4-1c-3.9 0-7.4.5-10.5 1.4-3.1.9-5.8 2.3-8.1 4s-4 3.8-5.2 6.2-1.8 5.2-1.8 8.1c0 2.8.5 5.4 1.4 7.7s2.4 4.4 4.3 6.3c1.9 1.9 4.3 3.6 7.2 5.2 2.9 1.6 6.3 3 10.1 4.4.9.3 1.9.6 3.1 1.1 1.2.4 2.3.9 3.4 1.6 1.1.6 2 1.3 2.8 2.1.8.8 1.1 1.7 1.1 2.7 0 .9-.1 1.8-.4 2.6-.3.8-.7 1.5-1.4 2.1-.6.6-1.5 1.1-2.6 1.5-1.1.4-2.5.6-4.1.6-1.8 0-3.5-.3-5-.9s-3.2-1.5-4.9-2.6c-1.1-.7-2.1-1.5-2.9-2.2-.8-.8-1.5-1.4-2.1-1.8-.2-.9-.6-1.2-.9-1.3m-47.5-25.1c-.6 1.6-6.8 20.4-7.4 22h14.8l-7.4-22zm34.8 48.4c-.3.4-1 .6-1.8.6h-13.8c-.7 0-1.3-.1-1.7-.4s-.7-.7-.9-1.4c-.6-1.6-3.1-8.1-3.7-9.8h-25.5c-.6 1.6-3.1 8.1-3.7 9.8-.4 1.2-1.2 1.8-2.5 1.8h-14.2c-.6 0-1.1-.2-1.5-.5-.4-.3-.5-.8-.2-1.4l26.1-67.7c0-.2.1-.4.3-.6l.6-.6c.3-.2.5-.3.8-.5.3-.1.6-.2.8-.2h12.3c.5 0 1 .2 1.4.5.4.3.7.6.9.9l1.2 2.7 25.3 65.2c.2.7.1 1.2-.2 1.6m-93.9-47.3c0 1-.2 2-.5 3s-.8 1.9-1.4 2.6c-.6.8-1.4 1.4-2.3 2-.9.5-1.9.9-3 1-.5.1-1 .1-1.5.1s-1 .1-1.5.1h-8.9v-17.7h6.6c.9 0 1.8 0 2.6.1s1.6.1 2.5.2c1.1.2 2.1.5 3 1.1.9.6 1.7 1.2 2.3 2 .6.8 1.1 1.7 1.5 2.6.4 1 .6 2 .6 2.9m21.1 46.3c0-.4-.2-1-.5-1.6s-.6-1.1-.9-1.6l-12.4-23.3c1.7-1 3.3-2.2 4.8-3.6s2.7-2.9 3.8-4.7 1.9-3.6 2.5-5.5c.6-2 .9-4.1.9-6.2 0-3.2-.6-6.2-1.9-9.1-1.2-2.8-2.9-5.3-5.1-7.4-2.1-2.1-4.7-3.8-7.6-5-2.9-1.2-6-1.8-9.3-1.8h-31.1c-.7 0-1.2.2-1.6.6s-.5.9-.5 1.6V182c0 .7.2 1.2.6 1.6.4.3.9.5 1.5.5h14.3c1.5 0 2.2-.7 2.2-2.1v-21.7h7.8l11.7 22c.1.6.4 1 .8 1.3s.9.5 1.5.5h16.5c.6 0 1-.1 1.4-.4.5-.4.6-.8.6-1.3m-124.9-67.7c0-.6.2-1.2.6-1.5.4-.4 1-.6 1.6-.6h51.8c.6 0 1.1.2 1.5.5s.7.9.8 1.6v11.9c0 .6-.2 1.1-.6 1.7s-1 .8-1.7.8h-16.6v52.7c0 .6-.2 1.1-.6 1.6-.4.5-1 .7-1.6.7h-14.1c-.5 0-1.1-.2-1.5-.6s-.7-1-.7-1.6v-52.7h-16.5c-.6 0-1.2-.2-1.6-.6-.4-.4-.6-1-.6-1.8l-.2-12.1zm-72.9 67.2c0 .6.2 1.1.5 1.5.3.4.9.6 1.6.6h13.7c.8 0 1.4-.2 1.7-.5.3-.4.5-.9.5-1.6v-41.3c4.3 7.1 21.1 34.8 25.4 41.9.4.5.7.9 1 1.1.3.3.7.4 1.1.4h15.4c.7 0 1.2-.1 1.6-.5.4-.3.6-.8.6-1.4v-67.5c0-.7-.2-1.2-.7-1.6-.5-.4-1-.6-1.7-.6h-13.7c-.5 0-1 .2-1.4.5-.4.3-.6.8-.8 1.3v38.5c-4.1-6.6-20.2-32.3-24.3-38.9-.3-.6-.8-.9-1.2-1.2-.5-.2-.9-.3-1.4-.3h-15.7c-.7 0-1.2.2-1.6.6s-.5.9-.5 1.5l-.1 67.5zm-49.3-11.9c0-.9.1-4.3 3.6-4.3 0 0 10.1-.4 14.8-7.6 4.7-7.2 2.8-16.7-1.2-21.7-4.9-6.2-12.1-6-12.7-6-.6 0-4.5.2-4.5-3.6v-11.3c0-.7.3-3.8 3.8-3.8 10.6 0 18.1 3.2 24.3 8.2 9 7.3 13.2 18.8 13.2 27.1 0 7.7-1.3 11.1-2.5 14.8-1.7 5.2-6.7 11.3-9.6 13.9-12.1 10.5-25.6 9.2-25.6 9.2s-3.6-.1-3.6-3.7V170z"/><path d="M-593.1 87.6v119.3h-4.5V87.6zm422.4 140.1l11.3-20.5h-5.3l-8.6 15-8.8-15h-5.2l11.5 20.7V238h5.1v-10.3zm-33.4-15.9v-4.6h-24.6v4.6h9.7v26.1h5.2v-26.1h9.7zm-45.5-4.6h-5.2v30.7h5.2v-30.7zm-48.2 16.8v-12.1h7.3c4.7 0 7.5 1.9 7.5 6 0 4.2-2.7 6.2-7.5 6.2l-7.3-.1zm14.3 13.9h5.9l-6.9-10.3c4.1-1.6 6.4-5.1 6.4-10 0-6.7-4.5-10.5-12.4-10.5H-303v30.7h5.2v-9.3h8.7l5.6 9.4zm-43.3-30.7h-5.2v18c0 5.2-3.1 8.3-8.1 8.3s-8.2-3.1-8.2-8.3v-18h-5.2v18c0 8 5.1 12.9 13.4 12.9s13.3-4.9 13.3-12.9v-18zm-59.6-.1c-9.1 0-16.1 6.7-16.1 15.4 0 8.8 7 15.6 16 15.6 4.3 0 8.8-2 11.9-5.1l-3.1-3.4c-2.3 2.2-5.5 3.6-8.5 3.6-6.1 0-11-4.8-11-10.8s4.8-10.8 11-10.8c3.1 0 6.3 1.5 8.5 3.9l3-3.8c-3-2.8-7.3-4.6-11.7-4.6m-36.9 4.7v-4.6h-21.9v30.7h22.5v-4.6H-440v-8.5h15v-4.6h-15v-8.3l16.7-.1zm-55.5-4.8c-6.7 0-11.2 3.3-11.2 8.6 0 10.9 16.6 7.1 16.6 13.9 0 2.4-2.1 3.7-5.8 3.7-3.3 0-7.2-1.6-10.4-4.5l-2.2 4.5c3.2 2.9 7.7 4.9 12.5 4.9 6.8 0 11.6-3.4 11.6-8.9 0-11.1-16.5-7.5-16.5-14.2 0-2.1 2-3.2 5-3.2 2.3 0 5.7.8 9 2.9l2.1-4.6c-2.8-1.9-6.7-3.1-10.7-3.1" class="st1"/><path d="M-607.1 169.4s-.2-3.6-3.6-3.6H-627c-7.1 0-11.8-.4-16.4-7.6-4.7-7.2-2.8-16.4 1.2-21.7 4.8-6.4 11.9-6 13.8-6h17c2.2 0 4.4-.8 4.4-3.6v-11.3c0-1.8-1.1-3.8-3.8-3.8h-18.7c-9.3 0-17.3 3.2-23.6 8.2-9 7.3-13.2 18.8-13.2 27.1 0 7.7 1.3 11.1 2.5 14.8 1.7 5.2 12 23.1 33.8 23.1h18.9c1.6 0 4.1-.5 4.1-3.7-.1-3.6-.1-11.9-.1-11.9z" class="st2"/><path d="M579.5 125c0-.6.2-1.2.7-1.5.4-.4 1-.6 1.6-.6h51.8c.6 0 1.1.2 1.5.5.5.3.7.9.8 1.6v12c0 .6-.2 1.1-.6 1.7-.4.5-1 .8-1.7.8H617v52.7c0 .6-.2 1.1-.6 1.6-.4.5-1 .7-1.6.7h-14.1c-.5 0-1.1-.2-1.5-.6s-.7-1-.7-1.6v-52.7H582c-.6 0-1.2-.2-1.6-.6-.4-.4-.7-1-.7-1.8l-.2-12.2zM530 170.4c-.3-.2-.6-.3-.9-.3-.4 0-1 .2-1.6.7l-8.3 7.9c-.7.7-1.1 1.3-1.1 1.8s.4 1.1 1.1 1.9l.1.1.1.1.1.1.1.1.1.1c.5.6 1.2 1.3 2.1 2.2s2 1.8 3.2 2.8c3.1 2.2 6.4 4 10 5.3 3.6 1.3 7.2 2 10.9 2 3.9 0 7.6-.6 11-1.7 3.4-1.1 6.4-2.7 8.9-4.7s4.5-4.5 5.9-7.3 2.2-6.1 2.2-9.6c0-3.3-.6-6.2-1.8-8.5-1.2-2.3-2.8-4.4-4.9-6-2.1-1.7-4.6-3.1-7.4-4.4-2.9-1.2-6-2.4-9.4-3.5-1.8-.6-3.3-1.1-4.6-1.6s-2.5-1-3.3-1.6c-.9-.6-1.6-1.2-2-1.8s-.7-1.4-.7-2.3c0-.9.2-1.7.6-2.3.4-.6 1-1.1 1.7-1.5.7-.4 1.5-.7 2.5-.8.9-.2 1.9-.3 3-.3 1 0 2 .2 3 .5s1.9.7 2.8 1.1c.9.5 1.7 1 2.5 1.6.8.6 1.5 1.1 2.1 1.7l.4.4c.5.4.9.7 1.2 1 .4.3.8.4 1.2.4.5 0 1.1-.3 1.6-.8l7.4-7.8c.4-.4.7-.8.9-1.2.2-.3.3-.7.3-1.1 0-.4-.2-.9-.7-1.5-.4-.6-1-1.2-1.8-1.8s-1.6-1.3-2.6-2-2-1.4-3.1-2c-2.6-1.4-5.2-2.5-7.9-3.2s-5.5-1-8.4-1c-3.9 0-7.4.5-10.5 1.4-3.1.9-5.8 2.3-8.1 4s-4 3.8-5.2 6.3-1.8 5.1-1.8 8.1c0 2.8.5 5.4 1.4 7.7s2.4 4.4 4.3 6.3c1.9 1.9 4.3 3.6 7.2 5.2 2.9 1.6 6.3 3 10.1 4.4.9.3 1.9.6 3.1 1.1 1.2.4 2.3.9 3.4 1.6 1.1.6 2 1.3 2.8 2.1.8.8 1.1 1.7 1.1 2.7 0 .9-.1 1.8-.4 2.6-.3.8-.7 1.5-1.4 2.1-.6.6-1.5 1.1-2.6 1.5-1.1.4-2.5.6-4.1.6-1.8 0-3.5-.3-5-.9s-3.2-1.5-4.9-2.6c-1.1-.7-2.1-1.5-2.9-2.2-.8-.8-1.5-1.4-2.1-1.8-.2-1-.6-1.2-.9-1.4m-47.5-25.1c-.6 1.6-6.8 20.4-7.4 22h14.8l-7.4-22zm34.8 48.4c-.3.4-1 .6-1.8.6h-13.8c-.7 0-1.3-.1-1.7-.4s-.7-.7-.9-1.4c-.6-1.6-3.1-8.1-3.7-9.8h-25.5c-.6 1.6-3.1 8.1-3.7 9.8-.4 1.2-1.2 1.8-2.5 1.8h-14.2c-.6 0-1.1-.2-1.5-.5-.4-.3-.5-.8-.2-1.4l26.1-67.7c0-.2.1-.4.3-.6l.6-.6c.3-.2.5-.3.8-.5.3-.1.6-.2.8-.2h12.3c.5 0 1 .2 1.4.5.4.3.7.6.9.9l1.2 2.7 25.3 65.2c.2.7.1 1.2-.2 1.6m-93.9-47.2c0 1-.2 2-.5 3s-.8 1.9-1.4 2.6c-.6.8-1.4 1.4-2.3 2-.9.5-1.9.9-3 1-.5.1-1 .1-1.5.1s-1 .1-1.5.1h-8.9v-17.7h6.6c.9 0 1.8 0 2.6.1s1.6.1 2.5.2c1.1.2 2.1.5 3 1.1.9.6 1.7 1.2 2.3 2 .6.8 1.1 1.7 1.5 2.6.4.9.6 1.9.6 2.9m21.1 46.2c0-.4-.2-1-.5-1.6s-.6-1.1-.9-1.6l-12.4-23.3c1.7-1 3.3-2.2 4.8-3.6s2.7-2.9 3.8-4.7 1.9-3.6 2.5-5.5c.6-2 .9-4.1.9-6.2 0-3.2-.6-6.2-1.9-9.1-1.2-2.8-2.9-5.3-5.1-7.4-2.1-2.1-4.7-3.8-7.6-5-2.9-1.2-6-1.8-9.3-1.8h-31.1c-.7 0-1.2.2-1.6.6s-.5.9-.5 1.6v67.2c0 .7.2 1.2.6 1.6.4.3.9.5 1.5.5H402c1.5 0 2.2-.7 2.2-2.1v-21.7h7.8l11.7 22c.1.6.4 1 .8 1.3s.9.5 1.5.5h16.5c.6 0 1-.1 1.4-.4.4-.3.6-.7.6-1.3m-125-67.7c0-.6.2-1.2.6-1.5.4-.4 1-.6 1.6-.6h51.8c.6 0 1.1.2 1.5.5s.7.9.8 1.6v12c0 .6-.2 1.1-.6 1.7s-1 .8-1.7.8H357v52.7c0 .6-.2 1.1-.6 1.6-.4.5-1 .7-1.6.7h-14.1c-.5 0-1.1-.2-1.5-.6s-.7-1-.7-1.6v-52.7H322c-.6 0-1.2-.2-1.6-.6-.4-.4-.6-1-.6-1.8l-.3-12.2zm-72.8 67.3c0 .6.2 1.1.5 1.5s.9.6 1.6.6h13.7c.8 0 1.4-.2 1.7-.5s.5-.9.5-1.6V151c4.3 7.1 21.1 34.8 25.4 41.9.4.5.7.9 1 1.1.3.3.7.4 1.1.4h15.4c.7 0 1.2-.1 1.6-.5.4-.3.6-.8.6-1.4V125c0-.7-.2-1.2-.7-1.6-.5-.4-1-.6-1.7-.6h-13.7c-.5 0-1 .2-1.4.5-.4.3-.6.8-.8 1.3v38.5c-4.1-6.6-20.2-32.3-24.3-38.9-.4-.6-.8-.9-1.2-1.2s-1-.3-1.4-.3h-15.7c-.7 0-1.2.2-1.6.6s-.5.9-.5 1.5l-.1 67.5zm-49.3-11.9c0-.9.1-4.3 3.6-4.3 0 0 10.1-.4 14.8-7.6 4.7-7.2 2.8-16.7-1.2-21.7-4.9-6.2-12.1-6-12.7-6s-4.5.2-4.5-3.6v-11.4c0-.8.3-3.8 3.8-3.8 10.6 0 18.1 3.2 24.3 8.2 9 7.3 13.2 18.8 13.2 27.1 0 7.7-1.3 11.1-2.5 14.8-1.7 5.2-6.7 11.3-9.6 13.9-12.1 10.5-25.6 9.2-25.6 9.2s-3.6-.1-3.6-3.7v-11.1z"/><path d="M187.9 97.9v119.4h-4.5V97.9zM610.4 238l11.3-20.5h-5.3l-8.6 15-8.8-15h-5.2l11.5 20.7v10.1h5.1V238zm-33.5-15.8v-4.6h-24.6v4.6h9.7v26.1h5.2v-26.1h9.7zm-45.4-4.7h-5.2v30.7h5.2v-30.7zm-48.2 16.8v-12.1h7.3c4.7 0 7.5 1.9 7.5 6 0 4.2-2.7 6.2-7.5 6.2l-7.3-.1zm14.3 13.9h5.9l-6.9-10.3c4.1-1.6 6.4-5.1 6.4-10 0-6.7-4.5-10.5-12.4-10.5h-12.5v30.7h5.2V239h8.7l5.6 9.2zm-43.4-30.7H449v18c0 5.2-3.1 8.3-8.1 8.3s-8.2-3.1-8.2-8.3v-18h-5.2v18c0 8 5.1 12.9 13.4 12.9s13.3-4.9 13.3-12.9v-18zm-59.5-.1c-9.1 0-16.1 6.7-16.1 15.4 0 8.8 7 15.6 16 15.6 4.3 0 8.8-2 11.9-5.1l-3.1-3.4c-2.3 2.2-5.5 3.6-8.5 3.6-6.1 0-11-4.8-11-10.8s4.8-10.8 11-10.8c3.1 0 6.3 1.5 8.5 3.9l3-3.8c-3-2.8-7.3-4.6-11.7-4.6m-36.9 4.8v-4.6h-21.9v30.7h22.5v-4.6h-17.3v-8.5h15v-4.6h-15v-8.3l16.7-.1zm-55.6-4.9c-6.7 0-11.2 3.3-11.2 8.6 0 10.9 16.6 7.1 16.6 13.9 0 2.4-2.1 3.7-5.8 3.7-3.3 0-7.2-1.6-10.4-4.5l-2.2 4.5c3.2 2.9 7.7 4.9 12.5 4.9 6.8 0 11.6-3.4 11.6-8.9 0-11.1-16.5-7.5-16.5-14.2 0-2.1 2-3.2 5-3.2 2.3 0 5.7.8 9 2.9l2.1-4.6c-2.8-1.8-6.7-3.1-10.7-3.1" class="st1"/><path d="M173.9 179.7s-.2-3.6-3.6-3.6H154c-7.1 0-11.8-.4-16.4-7.6-4.7-7.2-2.8-16.4 1.2-21.7 4.8-6.4 11.9-6 13.8-6h17c2.2 0 4.4-.8 4.4-3.6v-11.3c0-1.8-1.1-3.8-3.8-3.8h-18.7c-9.3 0-17.3 3.2-23.6 8.2-9 7.3-13.2 18.8-13.2 27.1 0 7.7 1.3 11.1 2.5 14.8 1.7 5.2 12 23.1 33.8 23.1h18.9c1.6 0 4.1-.5 4.1-3.7-.1-3.6-.1-11.9-.1-11.9z" class="st2"/></svg>