<svg xmlns="http://www.w3.org/2000/svg" role="img" viewBox="-6.17 81.33 412.10 82.10"><title>Continental Automotive Systems logo</title><style>svg {enable-background:new 0 0 400 245}</style><style/><path fill="#ff8300" d="M36.43 89.42c2.52 0 4.89.24 7.11.72 2.22.48 4.37 1.11 6.46 1.89v-2.74l14.22 11.61v3.65c-3.13-3.65-7.24-6.07-12.33-7.24s-10.09-1.07-15.01.33c-4.92 1.39-9.16 4.15-12.72 8.29-3.57 4.13-5.35 9.63-5.35 16.51 0 6.44 1.59 11.83 4.76 16.18 3.18 4.35 7.09 7.46 11.74 9.33s9.61 2.37 14.88 1.5c5.26-.87 9.94-3.39 14.03-7.57-.09 2.44-.09 4.05 0 4.83-3.57 2.78-7.81 4.98-12.72 6.59-4.92 1.61-9.94 2.41-15.07 2.41-9.74 0-17.94-3.2-24.6-9.59s-9.98-14.16-9.98-23.29c0-4.52.96-8.79 2.87-12.79 1.91-4 4.46-7.5 7.63-10.5 3.18-3 6.85-5.39 11.03-7.18 4.17-1.79 8.52-2.77 13.05-2.94zm10.96 14.35c4.78 0 8.94 2 12.46 6 3.52 4 5.29 8.74 5.29 14.22 0 5.57-1.76 10.31-5.29 14.22-3.52 3.91-7.68 5.87-12.46 5.87-4.96 0-9.18-1.96-12.66-5.87s-5.22-8.66-5.22-14.22c0-5.48 1.74-10.22 5.22-14.22s7.7-6 12.66-6zm.52 3.79c-2.52 0-3.78 1.26-3.78 3.78v25.84c0 2.52 1.26 3.78 3.78 3.78s3.78-1.26 3.78-3.78v-25.84c0-2.52-1.26-3.78-3.78-3.78zm19.31-2.35H83.4v2.35c6.44-3.13 11.37-4.2 14.81-3.2 3.44 1 5.85 3.33 7.24 6.98v28.32h3.78v3.26H92.02v-31.06c-.43-1.39-1.87-2.31-4.31-2.74-2.52 0-3.78 1.09-3.78 3.26v27.27h3.26v3.26H67.22v-3.26h3.26V108.6h-3.26v-3.39zm44.37.52l16.7-15.66v15.66h3.91v3.26h-3.91v30.67h3.65v3.26h-20.36v-3.26h3.26v-30.67h-3.26v-3.26zm22.45 0h16.18v33.93H154v3.26h-19.97v-3.26h3.78v-30.93h-3.78v-3zm9.39-15.4c2.09 0 3.91.63 5.48 1.89 1.57 1.26 2.35 2.76 2.35 4.5 0 1.83-.78 3.37-2.35 4.63-1.57 1.26-3.39 1.89-5.48 1.89-2.17 0-4.02-.63-5.55-1.89-1.52-1.26-2.28-2.81-2.28-4.63 0-1.74.76-3.24 2.28-4.5 1.53-1.26 3.38-1.89 5.55-1.89zm13.44 15.4h16.18v1.57c6.44-3.13 11.37-4.18 14.81-3.13 3.44 1.04 5.85 3.35 7.24 6.92v28.58h3.78v3.26h-17.22V111.6c-.43-1.48-1.87-2.35-4.31-2.61-2.52 0-3.78 1.04-3.78 3.13v27.53h3.26v3.26h-19.97v-3.26h3.26v-30.67h-3.26v-3.25zm60.16-1.04c5.13 0 9.74 2.02 13.83 6.07 4.09 4.05 5.74 8.81 4.96 14.29h-22.71v9.4c1.48 5.22 4.42 7.42 8.81 6.59 4.39-.83 7.55-4.24 9.46-10.24h3.65c-1.3 4.18-3.59 7.59-6.85 10.24-3.26 2.65-6.98 3.98-11.16 3.98-5.22 0-9.68-1.98-13.38-5.94-3.7-3.96-5.55-8.72-5.55-14.29 0-5.48 1.85-10.2 5.55-14.16 3.71-3.96 8.17-5.94 13.39-5.94zm-.13 2.61c-2.52 0-3.78 1.26-3.78 3.78v10.83h7.57v-10.83c-.01-2.52-1.27-3.78-3.79-3.78zm19.7-1.31h16.18v2.48c6.44-3.22 11.37-4.31 14.81-3.26 3.44 1.04 5.85 3.35 7.24 6.92v27.53h3.78v3.26H261.4v-30.27c-.43-1.3-1.87-2.17-4.31-2.61-2.52 0-3.78 1.09-3.78 3.26v26.36h3.26v3.26H236.6v-3.26h3.26v-29.62h-3.26v-4.05zm43.46 1.05l16.7-15.66v15.66h3.91v3.13h-3.91v29.49h3.52v3.26h-20.23v-3.26h3.13v-29.49h-3.13v-3.13zm23.23 1.17c1.22-1.91 3.52-3.26 6.92-4.05 3.39-.78 6.87-1.02 10.44-.72 3.57.3 6.76 1.22 9.59 2.74 2.83 1.52 4.28 3.63 4.37 6.33v27.01h3.13l.13 3.13-15.66.13v-2.22c-1.04 1.13-2.13 2.04-3.26 2.74-1.13.7-2.87 1.04-5.22 1.04-2.87 0-5.11-.72-6.72-2.15-1.61-1.44-2.81-3.07-3.59-4.89-.78-1.83-1.26-3.57-1.44-5.22-.17-1.65-.26-2.7-.26-3.13-.09-.35-.02-1.35.2-3s.72-3.37 1.5-5.15c.78-1.78 1.98-3.39 3.59-4.83 1.61-1.44 3.85-2.15 6.72-2.15 1.04 0 2.28.17 3.72.52 1.44.35 3.02 1.17 4.76 2.48v-6.26c-2.09-2.44-4.78-3.46-8.09-3.07-3.31.39-6.92 2.28-10.83 5.68v-4.96zm15.26 10.05c-2.35 0-3.52 1.26-3.52 3.78v12.92c0 1.04.35 1.94 1.04 2.68.7.74 1.52 1.11 2.48 1.11 2.17 0 3.26-1.26 3.26-3.78v-12.92c.01-2.53-1.08-3.79-3.26-3.79zm21.14-28.19h16.7v49.59h3.52v3.26h-20.23v-3.26h3.13V93.2h-3.13v-3.13zm40.72-.65c4.87 0 9.05 1.74 12.53 5.22s5.22 7.66 5.22 12.53c0 4.96-1.74 9.16-5.22 12.59-3.48 3.44-7.66 5.15-12.53 5.15-4.96 0-9.16-1.72-12.59-5.15-3.44-3.44-5.15-7.63-5.15-12.59 0-4.87 1.72-9.05 5.15-12.53 3.43-3.48 7.63-5.22 12.59-5.22zm0 .78c-4.7 0-8.7 1.67-12.01 5.02-3.31 3.35-4.96 7.33-4.96 11.94 0 4.7 1.65 8.72 4.96 12.07 3.31 3.35 7.31 5.02 12.01 5.02s8.72-1.67 12.07-5.02c3.35-3.35 5.02-7.37 5.02-12.07 0-4.61-1.67-8.59-5.02-11.94-3.35-3.34-7.37-5.02-12.07-5.02zm-11.36 21.66l-3.26 1.04-.13-.39 2.87-.91-.52-1.57.39-.13.65 1.96zm-2.08-3.91c-.09.09-.22.13-.39.13-.26 0-.43-.04-.52-.13-.09-.17-.13-.3-.13-.39.09-.17.13-.3.13-.39.17-.17.3-.26.39-.26.17 0 .35.09.52.26.09 0 .13.13.13.39 0 .17-.05.3-.13.39zm3-7.57c0-.17-.13-.39-.39-.65l.26-.26c.35.35.52.61.52.78 0 .43-.04.74-.13.91-.26.35-.48.57-.65.65-.35.17-.61.22-.78.13-.26 0-.57-.09-.91-.26-.17-.09-.39-.26-.65-.52-.17-.17-.26-.43-.26-.78 0-.43.04-.74.13-.91l.65-.65h.91l-.13.39c-.35 0-.57.04-.65.13-.17 0-.3.13-.39.39-.09.09-.13.3-.13.65 0 .17.09.35.26.52.17.17.35.3.52.39.35.17.57.26.65.26.35 0 .57-.04.65-.13l.39-.39c.08-.17.13-.39.13-.65zm.78 14.49l-3.52.78-.26-.39 2.09-3 .26.39-.65.91.78 1.17 1.04-.26.26.4zm-1.7 0l-.65-1.04-.52.91-.52.52c.09 0 .17-.02.26-.07.09-.04.22-.11.39-.2l1.04-.12zm3.01.91l-2.09 2.09.78.78-.39.26-1.83-1.96.39-.26.78.78 2.09-1.96.27.27zm-1.7-17.1c-.35 0-.57-.13-.65-.39-.43-.26-.65-.65-.65-1.17s.13-.91.39-1.17c.17-.17.43-.35.78-.52.35 0 .65.04.91.13l.78.39.39.78c.09.26.13.57.13.91-.17.35-.35.57-.52.65-.09.17-.3.35-.65.52-.43.01-.74-.04-.91-.13zm10.05-2.61c3.13 0 5.81 1.09 8.03 3.26 2.22 2.17 3.33 4.78 3.33 7.83 0 3.13-1.11 5.76-3.33 7.89-2.22 2.13-4.89 3.2-8.03 3.2s-5.81-1.07-8.03-3.2c-2.22-2.13-3.33-4.76-3.33-7.89 0-3.04 1.11-5.65 3.33-7.83 2.22-2.17 4.9-3.26 8.03-3.26zm-10.96.92c0 .35.17.7.52 1.04.26.26.57.39.91.39s.61-.13.78-.39c.26-.09.39-.35.39-.78 0-.26-.17-.57-.52-.91-.17-.26-.39-.39-.65-.39-.09-.09-.26-.13-.52-.13-.17.09-.35.22-.52.39-.26.17-.39.43-.39.78zm10.96-.13c-2.96 0-5.46 1.02-7.5 3.07-2.04 2.04-3.07 4.46-3.07 7.24 0 2.87 1.02 5.33 3.07 7.37 2.04 2.04 4.55 3.07 7.5 3.07 2.87 0 5.37-1.02 7.5-3.07 2.13-2.04 3.2-4.5 3.2-7.37 0-2.78-1.07-5.2-3.2-7.24-2.13-2.05-4.63-3.07-7.5-3.07zm-7.96 9.52l-.13.26-1.17.26.26-1.3.26-.13h.13l.13-.13.39-.39.39-.13.65-.39h.52l.39-.13.65.13.26.13.78.39v-.52l.39-.39.13-.26.13-.13.26-.26.26-.26.13-.26.26-.13.13-.26.13-.13.39-.26h.13l.13-.39v-.78l-.26-.13h-1.04l-.13.13-.13.13h-.39l-.13-.13-.13-.13v-.26h.26l.65-.13v-.39l-.13-.13-.78.39-.26-.26v-.54l.39-.26h.13l1.7-.39h.13l1.3-.52v-.78l.91 1.04h.39v.52h-.13v.13h.65v.52l-.26.13.26.13h.13v.39l-.13.13v.39h.26v.26l-.13.26h-.13v.26l.13.13v.39l-.13.13h-.39l.13.13.26.26v.13l-.39.13h-.13v.39h.13v.26h-.13v.13h-.13v.52l.13.13.65.13 1.17.26h.13l.52-.26h.78l.78.26.52.13.26.39.39.26h.13l.13.13h.26l.26-.13h.13l.39-.13.26-.13.39-.26.26-.13h.39l.26.13.39.39.13.39v.78l-.13.65v.39l-.39.65v.65l-.13.52v.52l.13.13.26.13.13.13h-.65l-.65-.13-.65-.39-.13-.78v-.39l.13-.39.13-.26.13-.52.26-.65v-.26l-.39-.26-.13-.13h-.39l-.65.39.26.65v.39l-.26.39-.13.13-.13.52v.78l.13.13v.39l.13.13.26.13.13.13.13.26h.13v.52l-.26.13-.39.26-.26.52-.39.52-.13.26v.26l-.13.26h-.52l-.26.13.13.13h.13v.39h-1.3l.13-.65.65-.52.26-.26.26-.39.39-.13.13-.39.13-.13v-.13l.13-.13v-.13l-.13-.26-.26-.26-.39-.26-.26-.26-.26-.13-.13-.39-.13-.13v-.52l-.13.13v.26h-.26v.65l.39.39.26.52.26.26v.26l-.26.13-.13.13-.52.39-.39.26-.39.39v.39l-.13.26h-.78v.26h.26l-.13.39h5.22l-.13.39h-13.57v-.39h7.18l.13-.52.13-.13.26-.13.13-.39.13-.13.13-.13h.26l.26-.39h.39l.13-.13.13-.13.39-.26v-.39l-.26-.39-.13-.26-.26-.26v-.13l-.26-.13-.13-.13-.13-.13-.13-.39v-.52l.13-.65h-1.04l-.78.26h-.78l-.13-.26h-.26l-1.57-.65-.13.39-.39.13-2.48-1.3h-.26l-.13.39-.26.13-.26.26-.13.39v.65l-.26-.13h-.13l-.13.13.13.13v.13h.39v.39l-1.04.78V110l-.13-.52v-1.17l.13-.26v-.39l.13-.13.39-.26.52-.65.13-.52.91-.26v.26l1.04.26-1.04-1.04-.65-.26-1.04.52-.26.26h-.26v-.13h-.13l-.39.13v.26h.13l.26.13.14.15zm3.13 11.88l-1.83 2.87-.39-.26-.13-3.13-1.3 2.22-.39-.13 1.7-2.87.39.26.13 3.13 1.44-2.22.38.13zm-1.7-21.27l-1.7-2.87.52-.26 2.74 1.44-1.17-2.35.26-.13 1.7 3-.39.13-2.87-1.44 1.3 2.35-.39.13zm4.57 22.31l-.91 3.26-2.35-.78.13-.39 1.96.65.26-1.04-1.83-.52.13-.39 1.83.52.26-1.04-1.96-.65.13-.39 2.35.77zm-.78-24.01l-.65-2.87-1.04.26-.13-.39 2.61-.65v.39l-1.04.26.78 2.87-.53.13zm4.17 24.14l.13 3.39h-.52l-1.83-2.61.13 2.61h-.52v-3.39h.52l1.7 2.61v-2.61h.39zm-2.08-24.53l-.13-3.39h.39l.26 3.39h-.52zm1.3-.13l.52-3.26h.39l1.44 2.87.39-2.61.39.13-.52 3.26h-.39l-1.44-2.87-.39 2.61-.39-.13zm2.09 24.53l.52 3.26-.39.13-.65-3.39h.52zm1.3-23.88l1.3-3.13 2.22.91-.13.39-1.96-.78-.39.91 1.83.78-.26.26-1.7-.65-.39 1.04 1.96.78-.26.39-2.22-.9zm.66 23.23l.91 2.87 1.04-.39.13.39-2.48.78-.13-.39 1.04-.26-.91-2.87.4-.13zm3.65-2.09l1.96 2.74-.39.26-2.87-1.17 1.44 2.22-.39.26-1.83-2.74.39-.26 2.87 1.17-1.44-2.22.26-.26zm-1.44-19.96l2.22-2.61.26.39-.39 3.13 1.83-2.09.26.39-2.22 2.48-.26-.26.39-3.13-1.83 1.96-.26-.26zm5.22 18.14c.35.43.61.83.78 1.17 0 .52-.13.91-.39 1.17-.17.17-.43.35-.78.52-.17.09-.43.13-.78.13-.35-.17-.61-.35-.78-.52-.26-.09-.48-.3-.65-.65-.09-.17-.13-.48-.13-.91 0-.09.04-.2.13-.33s.17-.28.26-.46l.78-.39c.17-.09.43-.13.78-.13.09.09.2.17.33.26s.28.14.45.14zm.26 1.3c0-.35-.17-.65-.52-.91-.43-.26-.78-.39-1.04-.39s-.52.13-.78.39c-.17.35-.26.65-.26.91.17.52.39.83.65.91.17.17.39.26.65.26.17.17.35.17.52 0 .17 0 .35-.09.52-.26.26-.26.35-.56.26-.91zm-2.47-16.57l2.35-1.83-.65-.78.26-.26 1.7 2.09-.26.26-.78-.91-2.35 1.83-.27-.4zm.91 1.04l3.65-.13.13.39-2.48 2.61-.26-.39.78-.78-.52-1.3h-1.04l-.26-.4zm1.04 12.27c.09.17.26.39.52.65l-.26.39c-.26-.17-.48-.43-.65-.78-.09-.17-.04-.52.13-1.04.17-.35.35-.57.52-.65.17-.17.43-.26.78-.26s.65.04.91.13c.35.17.61.35.78.52.17.35.26.61.26.78.09.17.04.43-.13.78-.09.26-.26.52-.52.78-.17.09-.43.13-.78.13v-.39c.09 0 .2-.02.33-.07.13-.04.24-.07.33-.07.17-.17.3-.35.39-.52v-.65c0-.17-.09-.35-.26-.52-.17 0-.3-.04-.39-.13l-.26-.26c-.17 0-.39-.04-.65-.13-.26 0-.48.09-.65.26l-.39.39c-.01.18-.01.4-.01.66zm.26-9.01l3.26-.78.13.39-2.87.65.39 1.7h-.39l-.52-1.96zm.4-2.87l.39 1.04.78-.78c.52-.26.7-.39.52-.39h-.65l-1.04.13zm1.3 7.05c.09-.09.22-.13.39-.13.26 0 .39.09.39.26.17.17.22.3.13.39 0 .17-.04.3-.13.39-.09.09-.22.13-.39.13-.26 0-.39-.09-.39-.26-.35 0-.39-.13-.13-.39 0-.17.04-.3.13-.39z"/></svg>