<svg xmlns="http://www.w3.org/2000/svg" role="img" viewBox="-19.90 -19.90 1034.80 416.80"><title>Core Toolchain Infrastructure (CTI) logo</title><style>svg {enable-background:new 0 0 995.3 377.3}</style><style>.st0,.st2{fill:#0c3555}.st2,.st3,.st4,.st5,.st6,.st8,.st9{fill-rule:evenodd;clip-rule:evenodd}.st3{fill:#6898b8}.st4{fill:#f8c37a}.st5{fill:#a2c9d2}.st6{fill:#fce6ad}.st8{fill:#d2e5ea}.st9{fill:#fff}</style><path d="M360.2 234.3c0 11.7-5.8 17.5-17.4 17.5h-62.1c-11.3 0-17-5.8-17-17.5V77.9c0-11.7 5.7-17.6 17-17.6h62.1c11.6 0 17.4 5.9 17.4 17.6v156.4zm-28.6-7.1V84.9h-39.3v142.3h39.3zm132.6-.3c0 10-3.6 17-10.8 21-5.2 2.9-13.1 4.3-23.7 4.3-2.4 0-5.9-.1-10.3-.2-4.4-.2-7.6-.2-9.6-.2v45.1h-28V128.2h28v4.5c6.5-1 13-2 19.6-3.1 8.2-1.3 14.8-2 19.6-2 10.2 0 15.3 5 15.3 15v84.3zm-28.1-7.7v-67.6l-26.3.5v76.4h17.4c5.9 0 8.9-3.1 8.9-9.3zm127.8 17.3c0 10.2-5.3 15.3-15.8 15.3h-48.3c-10.5 0-15.8-5.1-15.8-15.3v-93c0-10.2 5.3-15.3 15.8-15.3h48.3c10.5 0 15.8 5.1 15.8 15.3v45.4l-7.7 7.7h-45.4v34.6h26.3v-20.5h26.8v25.8zm-26.8-58.1v-29.6h-26.3v29.6h26.3zm129.5 73.3h-28.1V151.6l-26.3.5v99.7h-28V128.2h28v4.5c6.5-1.1 13-2.1 19.4-3.1 8-1.3 14.6-2 19.7-2 10.2 0 15.3 5 15.3 15v109.1zm113.3-17.4c0 11.7-5.8 17.5-17.4 17.5h-57.6c-11.5 0-17.2-5.8-17.2-17.5v-45.6h28.6v39h35v-37.6l-57.4-54.3c-4.2-4-6.2-9.1-6.2-15.3V77.9c0-11.7 5.7-17.6 17.2-17.6h57.6c11.6 0 17.4 5.8 17.4 17.4v42.8h-28.6V84.4h-35V119l57.4 54.1c4.2 3.9 6.2 9.1 6.2 15.5v45.7zm114.5 0c0 11.7-5.8 17.5-17.4 17.5h-57.6c-11.5 0-17.2-5.8-17.2-17.5v-45.6h28.6v39h35v-37.6l-57.4-54.3c-4.2-4-6.2-9.1-6.2-15.3V77.9c0-11.7 5.7-17.6 17.2-17.6H877c11.6 0 17.4 5.8 17.4 17.4v42.8h-28.6V84.4h-35V119l57.4 54.1c4.2 3.9 6.2 9.1 6.2 15.5v45.7zM995.3 85.6h-49.5v56.6h42.3V167h-42.3v84.6h-28.6V60.3h78.2v25.3z" class="st0"/><path fill="#a2c9d2" d="M287 348.6c0 3.9-1 7-3.1 9.2-2.1 2.2-4.9 3.3-8.4 3.3-3.4 0-6.2-1.1-8.2-3.3-2-2.2-3-5.2-3-9.2v-9.1c0-3.9 1-7 3.1-9.2 2-2.2 4.8-3.3 8.2-3.3 3.5 0 6.3 1.1 8.3 3.3 2.1 2.2 3.1 5.3 3.1 9.2v9.1zm-4.7-9.2c0-2.9-.6-5.1-1.8-6.6-1.2-1.5-2.8-2.2-5-2.2-2.1 0-3.8.7-4.9 2.2-1.1 1.5-1.7 3.7-1.7 6.6v9.2c0 2.9.6 5.1 1.7 6.6s2.8 2.2 4.9 2.2c2.2 0 3.8-.7 5-2.2 1.2-1.5 1.8-3.7 1.8-6.6v-9.2zm14.8 8.1v13.1h-4.7v-33.1h11.1c3.2 0 5.6.9 7.4 2.8 1.8 1.8 2.7 4.2 2.7 7.2s-.9 5.4-2.7 7.3c-1.8 1.8-4.3 2.7-7.4 2.7h-6.4zm0-3.5h6.4c1.8 0 3.1-.6 4-1.8.9-1.2 1.4-2.8 1.4-4.6 0-1.9-.5-3.4-1.4-4.7-.9-1.2-2.3-1.9-4.1-1.9H297v13zm38.9 1.2h-12.6v11.9H338v3.5h-19.3v-33.1h19.1v3.5h-14.4v10.7H336v3.5zm28.8 15.4h-4.7L347.3 336h-.1v24.6h-4.7v-33.1h4.7L360 352h.1v-24.5h4.7v33.1zm32.5-8.4c0-1.6-.4-2.8-1.3-3.8s-2.5-1.9-4.7-2.6c-3.2-1-5.7-2.2-7.4-3.7-1.7-1.5-2.6-3.6-2.6-6.1 0-2.6 1-4.7 2.9-6.4 1.9-1.7 4.4-2.5 7.4-2.5 3.1 0 5.7 1 7.6 2.9 1.9 1.9 2.8 4.3 2.8 7v.1h-4.5c0-1.9-.5-3.5-1.5-4.7-1-1.2-2.4-1.8-4.3-1.8-1.8 0-3.1.5-4.1 1.5-1 1-1.4 2.3-1.4 3.9 0 1.4.5 2.6 1.5 3.6s2.7 1.8 5.1 2.6c3.1.9 5.4 2.2 7 3.8 1.6 1.6 2.4 3.7 2.4 6.3 0 2.7-1 4.9-2.9 6.5-1.9 1.6-4.4 2.4-7.5 2.4-3 0-5.7-.9-7.9-2.6-2.3-1.7-3.3-4.2-3.3-7.4v-.1h4.5c0 2.3.6 3.9 1.8 5 1.2 1.1 2.8 1.6 4.8 1.6 1.8 0 3.2-.5 4.2-1.4.9-1.2 1.4-2.5 1.4-4.1zm31.3-3.6c0 3.9-1 7-3.1 9.2-2.1 2.2-4.9 3.3-8.4 3.3-3.4 0-6.2-1.1-8.2-3.3-2-2.2-3-5.2-3-9.2v-9.1c0-3.9 1-7 3.1-9.2 2-2.2 4.8-3.3 8.2-3.3 3.5 0 6.3 1.1 8.3 3.3 2.1 2.2 3.1 5.3 3.1 9.2v9.1zm-4.7-9.2c0-2.9-.6-5.1-1.8-6.6-1.2-1.5-2.8-2.2-5-2.2-2.1 0-3.8.7-4.9 2.2-1.1 1.5-1.7 3.7-1.7 6.6v9.2c0 2.9.6 5.1 1.7 6.6s2.8 2.2 4.9 2.2c2.2 0 3.8-.7 5-2.2 1.2-1.5 1.8-3.7 1.8-6.6v-9.2zm31.2-11.9v22.9c0 3.4-1 6.1-3 7.9-2 1.8-4.6 2.7-7.9 2.7-3.2 0-5.8-.9-7.7-2.7-2-1.8-3-4.5-3-7.9v-22.9h4.7v22.9c0 2.4.5 4.1 1.6 5.3 1.1 1.2 2.6 1.8 4.4 1.8 1.9 0 3.4-.6 4.5-1.7 1.1-1.2 1.7-3 1.7-5.4v-22.9h4.7zm10.7 18.8v14.3H461v-33.1h10.5c3.2 0 5.7.8 7.4 2.4 1.8 1.6 2.6 3.9 2.6 7 0 1.7-.4 3.2-1.2 4.5-.8 1.3-2 2.3-3.5 3 1.7.6 2.9 1.5 3.7 2.9.8 1.3 1.1 3 1.1 5v2.9c0 1 .1 2 .3 2.8.2.9.6 1.6 1.1 2.1v.5h-4.9c-.5-.5-.9-1.3-1-2.3-.1-1-.2-2.1-.2-3.2v-2.8c0-1.9-.4-3.3-1.3-4.4-.9-1.1-2-1.6-3.5-1.6h-6.3zm0-3.5h5.6c1.9 0 3.3-.5 4.2-1.5.9-1 1.4-2.4 1.4-4.3s-.4-3.4-1.3-4.4c-.9-1-2.2-1.6-4-1.6h-5.8v11.8zm42.3 7.7l.1.1c0 3.3-.9 5.9-2.7 7.7-1.8 1.8-4.3 2.7-7.6 2.7s-6-1.1-8-3.3c-2-2.2-3-5.2-3-9.1v-9.2c0-3.9 1-7 2.9-9.2 2-2.2 4.6-3.3 7.9-3.3 3.3 0 5.9.9 7.7 2.7 1.8 1.8 2.7 4.4 2.7 7.8l-.1.1h-4.5c0-2.4-.5-4.2-1.5-5.3-.9-1.1-2.4-1.7-4.4-1.7-1.9 0-3.4.8-4.5 2.3-1.1 1.5-1.6 3.7-1.6 6.6v9.3c0 2.9.5 5.1 1.6 6.6s2.6 2.3 4.6 2.3c2 0 3.4-.6 4.3-1.7.9-1.1 1.4-2.9 1.4-5.3h4.7zm22.5-5.3H518v11.9h14.6v3.5h-19.3v-33.1h19.1v3.5H518v10.7h12.6v3.5zm32.2 7c0-1.6-.4-2.8-1.3-3.8s-2.5-1.9-4.7-2.6c-3.2-1-5.7-2.2-7.4-3.7-1.7-1.5-2.6-3.6-2.6-6.1 0-2.6 1-4.7 2.9-6.4 1.9-1.7 4.4-2.5 7.4-2.5 3.1 0 5.7 1 7.6 2.9 1.9 1.9 2.8 4.3 2.8 7v.1H563c0-1.9-.5-3.5-1.5-4.7-1-1.2-2.4-1.8-4.3-1.8-1.8 0-3.1.5-4.1 1.5-1 1-1.4 2.3-1.4 3.9 0 1.4.5 2.6 1.5 3.6s2.7 1.8 5.1 2.6c3.1.9 5.4 2.2 7 3.8 1.6 1.6 2.4 3.7 2.4 6.3 0 2.7-1 4.9-2.9 6.5-1.9 1.6-4.4 2.4-7.5 2.4-3 0-5.7-.9-7.9-2.6-2.3-1.7-3.3-4.2-3.3-7.4v-.1h4.5c0 2.3.6 3.9 1.8 5 1.2 1.1 2.8 1.6 4.8 1.6 1.8 0 3.2-.5 4.2-1.4.9-1.2 1.4-2.5 1.4-4.1zm27.1-7h-12.6v11.9h14.6v3.5h-19.3v-33.1h19.1v3.5h-14.4v10.7h12.6v3.5zm26.4 5.3l.1.1c0 3.3-.9 5.9-2.7 7.7-1.8 1.8-4.3 2.7-7.6 2.7s-6-1.1-8-3.3c-2-2.2-3-5.2-3-9.1v-9.2c0-3.9 1-7 2.9-9.2 2-2.2 4.6-3.3 7.9-3.3 3.3 0 5.9.9 7.7 2.7 1.8 1.8 2.7 4.4 2.7 7.8l-.1.1h-4.5c0-2.4-.5-4.2-1.5-5.3-.9-1.1-2.4-1.7-4.4-1.7-1.9 0-3.4.8-4.5 2.3-1.1 1.5-1.6 3.7-1.6 6.6v9.3c0 2.9.5 5.1 1.6 6.6s2.6 2.3 4.6 2.3c2 0 3.4-.6 4.3-1.7.9-1.1 1.4-2.9 1.4-5.3h4.7zm26.2-23v22.9c0 3.4-1 6.1-3 7.9-2 1.8-4.6 2.7-7.9 2.7-3.2 0-5.8-.9-7.7-2.7-2-1.8-3-4.5-3-7.9v-22.9h4.7v22.9c0 2.4.5 4.1 1.6 5.3 1.1 1.2 2.6 1.8 4.4 1.8 1.9 0 3.4-.6 4.5-1.7 1.1-1.2 1.7-3 1.7-5.4v-22.9h4.7zm10.7 18.8v14.3h-4.7v-33.1H659c3.2 0 5.7.8 7.4 2.4 1.8 1.6 2.6 3.9 2.6 7 0 1.7-.4 3.2-1.2 4.5-.8 1.3-2 2.3-3.5 3 1.7.6 2.9 1.5 3.7 2.9.8 1.3 1.1 3 1.1 5v2.9c0 1 .1 2 .3 2.8.2.9.6 1.6 1.1 2.1v.5h-4.9c-.5-.5-.9-1.3-1-2.3-.1-1-.2-2.1-.2-3.2v-2.8c0-1.9-.4-3.3-1.3-4.4-.9-1.1-2-1.6-3.5-1.6h-6.4zm0-3.5h5.6c1.9 0 3.3-.5 4.2-1.5.9-1 1.4-2.4 1.4-4.3s-.4-3.4-1.3-4.4c-.9-1-2.2-1.6-4-1.6h-5.8v11.8zm27.4 17.8h-4.7v-33.1h4.7v33.1zm25.8-29.6h-8.7v29.6H693V331h-8.7v-3.5h22.1v3.5zm13.9 12.5h.1l6.9-16.1h5.2l-10 21.2v11.9h-4.7v-12.2l-9.8-20.9h5.3l7 16.1zm43.8 2.3h-12.6v14.7h-4.7v-33.1h19.3v3.5h-14.6v11.4h12.6v3.5zm28 2.8c0 3.9-1 7-3.1 9.2-2.1 2.2-4.9 3.3-8.4 3.3-3.4 0-6.2-1.1-8.2-3.3-2-2.2-3-5.2-3-9.2v-9.1c0-3.9 1-7 3.1-9.2 2-2.2 4.8-3.3 8.2-3.3 3.5 0 6.3 1.1 8.3 3.3 2.1 2.2 3.1 5.3 3.1 9.2v9.1zm-4.7-9.2c0-2.9-.6-5.1-1.8-6.6-1.2-1.5-2.8-2.2-5-2.2-2.1 0-3.8.7-4.9 2.2-1.1 1.5-1.7 3.7-1.7 6.6v9.2c0 2.9.6 5.1 1.7 6.6s2.8 2.2 4.9 2.2c2.2 0 3.8-.7 5-2.2 1.2-1.5 1.8-3.7 1.8-6.6v-9.2zm31.1-11.9v22.9c0 3.4-1 6.1-3 7.9-2 1.8-4.6 2.7-7.9 2.7-3.2 0-5.8-.9-7.7-2.7-2-1.8-3-4.5-3-7.9v-22.9h4.7v22.9c0 2.4.5 4.1 1.6 5.3 1.1 1.2 2.6 1.8 4.4 1.8 1.9 0 3.4-.6 4.5-1.7 1.1-1.2 1.7-3 1.7-5.4v-22.9h4.7zm28.4 33.1h-4.7L829.4 336h-.1v24.6h-4.7v-33.1h4.7l12.8 24.5h.1v-24.5h4.7v33.1zm6.6 0v-33.1h9.3c3.6 0 6.5 1.3 8.8 4 2.3 2.7 3.4 6.1 3.4 10.2v4.7c0 4.2-1.1 7.6-3.4 10.2-2.3 2.6-5.2 4-8.8 4h-9.3zm4.7-29.6v26.1h4.4c2.4 0 4.2-1 5.6-3 1.4-2 2.1-4.6 2.1-7.7v-4.8c0-3.1-.7-5.7-2.1-7.7-1.4-2-3.2-3-5.6-3h-4.4zm37.1 21.2h-10.8l-2.5 8.4h-4.8l10.4-33.1h4.6l10.3 33.1h-4.8l-2.4-8.4zm-9.7-3.7h8.6l-4.2-14.4h-.1l-4.3 14.4zm37.3-17.5h-8.7v29.6h-4.7V331h-8.7v-3.5h22.1v3.5zm9.1 29.6h-4.7v-33.1h4.7v33.1zm28.5-12c0 3.9-1 7-3.1 9.2-2.1 2.2-4.9 3.3-8.4 3.3-3.4 0-6.2-1.1-8.2-3.3-2-2.2-3-5.2-3-9.2v-9.1c0-3.9 1-7 3.1-9.2 2-2.2 4.8-3.3 8.2-3.3 3.5 0 6.3 1.1 8.3 3.3 2.1 2.2 3.1 5.3 3.1 9.2v9.1zm-4.7-9.2c0-2.9-.6-5.1-1.8-6.6-1.2-1.5-2.8-2.2-5-2.2-2.1 0-3.8.7-4.9 2.2-1.1 1.5-1.7 3.7-1.7 6.6v9.2c0 2.9.6 5.1 1.7 6.6s2.8 2.2 4.9 2.2c2.2 0 3.8-.7 5-2.2 1.2-1.5 1.8-3.7 1.8-6.6v-9.2zm32.5 21.2h-4.7L970.8 336h-.1v24.6H966v-33.1h4.7l12.8 24.5h.1v-24.5h4.7v33.1z"/><path d="M124.8 119.2c2.4.2 4.6 1.1 6.3 2.8 2.1 2 3.3 4.8 3.4 7.7 2.5 1.4 4.9 2.9 7.1 4.6 3.5-.2 7.4.3 10.6 1.8l.6-.6c1.1-1 2.2-2.1 3.1-3.2.8-1 1.8-1.5 3.1-1.5 1.2 0 2.3.5 3.1 1.5.9 1.2 2 2.2 3.1 3.2 2.8 2.6 6 4.9 9.3 6.7 10.9 6 22.8 7 34.8 3.6 1-.3 2.1-.2 3 .4.9.5 1.6 1.3 1.8 2.4 3.7 13.9 5.7 28.2 5.9 42.6.1 7.4-.3 14.9-1.1 22.3-.8 7.3-2.2 14.6-4 21.8-1.8 6.9-4.1 13.9-7.5 20.2-2.8 5.2-6.2 9.9-10.4 14-4.6 4.4-9.9 7.9-15.4 11-3.1 1.7-6.3 3.4-9.5 4.9-3.4 1.6-6.7 3.2-10.1 4.8l2.9 14.6c1.8.3 3.2 1.6 4.1 3.1 1.7 2.6 2.4 7.3 2.7 10.5 6.7 5.1 13.2 10.5 19.2 16.3 6.5 4.6 12.9 10.7 15.8 18.2 1.3 3.3 1.9 7 1.3 10.5-.4 2.4-1.3 4.7-2.7 6.7-2.2 3.1-5.4 5.1-9 6.1-6.7 1.9-13.6 1.2-19.9-1.6-10.1-4.3-18-13.3-23.9-22.3-.3-.4-.5-.9-.6-1.3-1.1-1.7-2.3-3.3-3.3-5-2.4-3.7-5.3-8.9-4.4-13.5.2-.8.4-1.6.6-2.3v-.3c.2-2.8 1.4-5.7 3.7-7.4.3-.5.7-.9 1-1.3-.3-1.8-.8-3.5-1.1-5.3-.5-2.5-.9-5.3.9-7.4.3-.4.7-.8 1.2-1.1-1.1-4.1-2.2-8.1-3.3-12.2-1-3.6-2-7.3-3.1-10.9-9.4-4.7-18.7-9.9-25.8-17.8h-.2c-4.3 0-8.5-.5-12.7-1.5-.4 2.4-2 4.4-4.1 5.8l5.8 24c.5.3 1 .7 1.4 1 4.1 3.3 6.1 8.7 7.1 13.8.5 2.9.8 5.9.9 8.8.1 2.8 0 5.7-.4 8.5-.2 2.1-2 3.6-4.1 3.6H36.4c-1.3 0-2.5-.6-3.3-1.6-.8-1-1-2.3-.7-3.6.6-2.2 1.2-4.4 1.8-6.7 0-.1.1-.3.1-.4 0-.1.1-.3.1-.4 0-.1.1-.3.1-.4 0-.1.1-.3.2-.4.1-.1.1-.3.2-.4.1-.1.1-.3.2-.4.1-.1.1-.3.2-.4.1-.1.1-.3.2-.4.1-.1.1-.3.2-.4.1-.1.1-.3.2-.4.1-.1.1-.2.2-.4.1-.1.1-.2.2-.4.1-.1.2-.2.2-.4.1-.1.2-.2.2-.3.1-.1.2-.2.2-.3l.3-.3.3-.3.3-.3.3-.3.3-.3.3-.3.3-.3.3-.3.3-.3.3-.3.3-.3.3-.3.3-.3.3-.3c.1-.1.2-.2.3-.2.1-.1.2-.2.3-.2.1-.1.2-.2.3-.2.1-.1.2-.2.4-.2.1-.1.2-.2.4-.2.1-.1.2-.1.4-.2.1-.1.2-.1.4-.2.1-.1.2-.1.4-.2.1-.1.2-.1.4-.2.1-.1.2-.1.4-.2.1-.1.2-.1.4-.2.1-.1.3-.1.4-.2.1-.1.3-.1.4-.2.1-.1.3-.1.4-.2.1-.1.3-.1.4-.2.1-.1.3-.1.4-.2.1-.1.3-.1.4-.2.1-.1.3-.1.4-.2.1-.1.3-.1.4-.2.1-.1.3-.1.4-.2.1-.1.3-.1.4-.2.1-.1.3-.1.4-.1.1 0 .3-.1.4-.1.1 0 .3-.1.4-.1.1 0 .3-.1.4-.1.1 0 .3-.1.4-.1.1 0 .3-.1.4-.1.1 0 .3-.1.4-.1.1 0 .3-.1.4-.1.1 0 .3-.1.4-.1.1 0 .3-.1.4-.1.1 0 .3-.1.4-.1.1 0 .3-.1.4-.1.1 0 .3-.1.4-.1.1 0 .3-.1.4-.1.1 0 .2 0 .2-.1l.2-.1h.8c2.4-.5 4.9-.7 7.4-.7 2.7-.1 5.3 0 8 .1 3.1.1 6.3.3 9.4.4 2.8.1 5.7.3 8.5.6v-.1c.6-2.1 1.5-4.1 2.8-5.7-2.4-8.2-4.9-16.4-7.3-24.6-3.7-1.4-7.3-4.4-7.3-8.7-1.9-1.5-3.6-3.2-5.1-5-3.8-4.6-6.4-10.2-7.6-16-1.5 1-3.1 2-4.7 2.7-3.1 1.4-6.7.1-9.5-1.4-.4-.1-.8-.3-1.1-.6l-.3-.2c-.6-.4-1.2-.7-1.8-1.1-.9-.6-1.8-1.2-2.5-2-2.7-2-5.4-4-8.1-6.1-3-2.4-6-4.8-8.7-7.5-.9-.9-1.7-1.7-2.4-2.7-1.5-1.9-2.5-4.3-1.3-6.7 1-1.9 2.8-2.7 4.8-2.7 0-1 .2-1.9.8-2.8.6-1 1.5-1.6 2.6-2 0-.1-.1-.1-.1-.2-2.8-4.3-5.4-8.7-7.5-13.4-2.3-5.1-4.8-11.1-3.4-16.7.7-2.8 2.2-5.2 3.9-7.5 2.1-2.8 4.4-5.5 6.6-8.3 2.8-3.7 6.2-7.1 9.5-10.4 4.1-3.9 8.4-7.6 12.9-11 4.2-3.1 8.5-6.1 13.1-8.6 3.8-2.1 7.9-4 12.1-5.1.7-6.6 3.1-11.2 10.3-12.4.7-.1 1.4-.2 2.1-.1 1.4-3.7 3.1-7.4 4.8-11 2-4.1 4.2-8.1 6.5-12.1 3.7-6.5 7.8-12.8 12.2-18.9-2.6-.3-5.1-.9-7.5-1.8-3.4 1.1-6.8 2.2-10.2 3.2-8.6 2.5-17 4.7-26 3.3-.2 0-.4-.1-.6-.1-1.7.3-3.4.5-5.1.6-4.2.3-11.5.6-13.2-4.4-.2-.7-.3-1.5-.3-2.2.2-2.9 2.6-5.5 4.6-7.4 2.9-2.8 6.1-5.3 9.2-7.8.7-.6 1.4-1.1 2.1-1.7 2.7-2.2 5.3-4.4 7.9-6.7 1.5-1.4 3-2.8 4.4-4.3.8-.9 1.9-2.2 2.5-3.3-.2-1.4-.3-2.9-.3-4.4C82.9 16.7 99.6 0 120.1 0c20.6 0 37.3 16.7 37.3 37.3 0 10.8-4.6 20.9-12.7 28-1.8 3.9-3.7 7.8-5.5 11.8-3.2 7.1-6.3 14.4-8.9 21.8-2.3 6.6-4.3 13.4-5.5 20.3z" class="st2"/><path d="M35 210.6c5.6.4 11.6 4.6 15.7 8.3 3.8 3.4 7.7 6.7 11.6 10l2.3 1.9-9.6 10.8-2.2-1.8c-4-3.4-8-6.9-11.8-10.5-2.7-2.6-5.5-5.3-7.9-8.2-1.8-2.2-4.5-5.7-2.7-8.6 1.1-1.6 2.9-2 4.6-1.9z" class="st2"/><path d="M34.8 213.5c4.5.4 9.9 3.9 14 7.5s11.7 10 11.7 10l-5.7 6.4c-4.1-3.3-28.9-24.6-20-23.9z" class="st3"/><path d="M29.3 215.7c5.6 0 11.9 3.7 16.3 7 3 2.3 6 4.5 9 6.7 1.4 1 2.3 2.4 2.6 4.1.5 3.3-1.6 5.9-3.1 8.5-.4.7-1.1 1.2-1.9 1.4-.8.2-1.6 0-2.3-.5-4.3-3.1-8.6-6.1-12.7-9.4-3-2.3-6-4.8-8.6-7.4-2-2-5.1-5.2-3.5-8.2.8-1.7 2.5-2.2 4.2-2.2z" class="st2"/><path d="M29.3 218.6c4.6 0 10.2 3.1 14.5 6.4 2.5 1.9 6.4 4.7 9.1 6.7 3.3 2.4.1 6.2-1.3 8.7-4.3-3-31.2-21.8-22.3-21.8z" class="st3"/><path d="M82.3 244.9l11.2 3.8c1 .3 1.7 1.1 1.9 2.1l13.3 54.8c.2.9 0 1.8-.5 2.5-.6.7-1.4 1.1-2.3 1.1h-7.1c-1.3 0-2.4-.8-2.8-2.1-5.8-19.5-11.6-39.1-17.3-58.6-.3-1.1 0-2.2.8-3 .7-.7 1.8-.9 2.8-.6z" class="st2"/><path d="M81.4 247.7l17.3 58.6h7.1l-13.3-54.8-11.1-3.8z" class="st4"/><path d="M91.4 254.9c7.2 0 13.1 4 13.1 8.9s-5.9 8.9-13.1 8.9c-7.2 0-13.1-4-13.1-8.9.1-4.9 5.9-8.9 13.1-8.9z" class="st2"/><path d="M91.4 257.9c5.6 0 10.2 2.7 10.2 6s-4.5 6-10.2 6c-5.6 0-10.2-2.7-10.2-6 .1-3.4 4.6-6 10.2-6z" class="st5"/><path d="M86.3 208c.9 0 1.7.1 2.6.2 6.6.8 12.3 4.8 16.4 9.8 4.6 5.6 7.4 12.6 8.1 19.8.6 5.8-.1 11.9-2.6 17.3-2.2 4.8-5.7 8.9-10.5 11.2-2.6 1.3-5.4 1.9-8.3 1.9-.9 0-1.7-.1-2.6-.2-6.6-.8-12.3-4.8-16.4-9.8-4.6-5.6-7.4-12.6-8.1-19.8-.6-5.8.1-11.9 2.6-17.3 2.2-4.8 5.7-8.9 10.5-11.2 2.6-1.3 5.4-1.9 8.3-1.9z" class="st2"/><ellipse cx="89.1" cy="238.1" class="st3" rx="21" ry="27.5" transform="rotate(-14.828 89.141 238.087)"/><path d="M50 233c0-.4-.4-1.3-.6-1.7-1.8-2.1-3.6-4.4-5.3-6.6-3.9-5-7.7-10.1-11.1-15.4-2.7-4.2-5.4-8.7-7.4-13.2-2.1-4.8-4.6-10.7-3.3-16.1.7-2.7 2.1-5 3.7-7.2 2.1-2.8 4.4-5.5 6.6-8.3 9.9-12.7 35.8-34.6 52.3-35.5l2.2-.1.7 2.1c1.4 3.9.2 10.4-.6 14.4-1.3 6.5-3.2 13.1-5.2 19.4-2.1 6.7-4.4 13.4-6.7 20.1-.8 2.4-1.7 4.8-2.5 7.3-.4 1.2-.9 2.6-1.2 3.8-.2.8-.2 1.8-.3 2.6-.1 1.5-.2 3-.2 4.5-.1 4-.1 8-.1 12 0 6.8.1 13.7.3 20.5v1.6l-1.3.9c-1.8 1.2-3.5 2.4-5.3 3.5-1.6 1-3.6 2.4-5.3 3.1-3.7 1.7-8.7-1.2-11.8-3.2-1.8-1.1-3.8-2.7-3.1-5.1.7-2.4 3.1-2.4 5-3.2.2-.1.4-.2.5-.2z" class="st2"/><path d="M85 131.8c-14.9.8-40.2 21.5-50.1 34.4-9.9 12.8-13.3 13.7-6.6 28.6 6.6 14.9 23.6 34.8 23.6 34.8 5 9.3-9.4 5.2-2.6 9.4 2.5 1.6 6.7 4 9 3s10.2-6.4 10.2-6.4-.9-34.5.3-40.3c1.2-5.8 19.9-53 16.2-63.5z" class="st5"/><path d="M55.3 193.3c-1.9-6.8-4.5-10.8-11.2-13.8-4-1.8-7.2-1.9-11.4-2.3l4-1.1c3.9-.5 8.8.9 12.2 2.8 6.3 3.5 8.2 7.3 10.4 13.7.2 1.1-.5 2.2-1.6 2.5-1 .1-2.1-.6-2.4-1.8z" class="st2"/><path d="M107.6 126.4c-31.8 0-54.6 31.4-52.5 70.2 4.4 80.9 119 94.8 113.8 0-2.1-38.8-29.6-70.2-61.3-70.2z" class="st2"/><path d="M60.6 210.3c20.2 16.9 63.3 12.5 86.4 4.2 4.7-1.7 13.2-4.5 17.9-1.3 1.5 1 2.4 2.5 2.9 4.2.1.3.2.7.2 1 .4.1.7.3 1 .5.9.7 1.3 1.8 1.1 2.9-3.7 18.2-13.7 33.7-31.5 40.5-15 5.7-32 3.7-46.4-2.9-15.8-7.2-28.7-20-35.7-35.9-.7-1.6-1.6-3.2-2.3-4.7-.6-1.2-1.2-2.3-1.8-3.5-.4-.8-1.1-1.9-1.1-2.8-.1-1.2.4-2.5 1.1-3.5 1.3-2 3.8-3.3 6-1.8 1.4.8 1.6 1.9 2.2 3.1z" class="st2"/><path d="M59.3 222.3c21.2 48.3 95.6 59.5 108-1.1-4.9 2.3 4-12.4-19.3-4-22.6 8.1-67.8 13.5-89.6-5-.4-.4-.9-2.3-1.4-2.6-1.1-.7-2.7 1.6-2.6 2.7-.1.2 4.1 8.3 4.9 10z" class="st5"/><path d="M72.3 223c22.5 8.1 55.5 3.7 74.6-3.1 4.8-1.7 13.4-4.7 18.1-1.5 1.5 1 2.5 2.5 3 4.2.2.6.3 1.1.4 1.7 0 .2.1.4.1.6.4.7.5 1.5.3 2.3-6.7 24.6-25.4 38.5-50.8 38.5-12.3 0-24.8-4.7-35-11.4-11.5-7.5-20.9-18.2-26.5-30.8-.7-1.6-1.6-3.2-2.3-4.7-.5-.9-.9-1.8-1.4-2.8-.5-1-.4-2.2.3-3.1.7-.9-.4-2.8.7-2.5.1.3.2.5.3.8 1 2.2 4 4.9 8.2 7.3 3.4 1.8 8 3.8 10 4.5z" class="st2"/><path d="M59.3 222.3c10.9 24.9 37.1 40.4 58.8 40.4 23.4 0 41.4-12.4 47.9-36.3-1.4-1.8 1.8-11-18.1-4-22.3 7.9-66.5 13.3-89.1-3.7-2.7-2-2.7-2.7-.9.9.7 1.3 1.2 2.2 1.4 2.7z" class="st5"/><path d="M168.7 183.7l-.2.2c-5.1 4.6-14.7 7.5-21.2 9.2-5.1 1.3-10.2 2.4-15.4 3.2-2 .3-4 .6-5.9.8-1.3.1-2.6.3-3.9.3-4.1 0-8.2-5-10.5-8-1.9-2.6-3.8-5.4-5.4-8.3l-25.4-2.2-10 11.3c-.6.6-1.3 1-2.1 1-1.4 0-3-.2-4.3-.5-3.6-.6-7.1-1.7-10.4-3.1-1.2-.5-1.9-1.7-1.8-3 1.2-14.6 6.3-29.4 15.3-40.9 5-6.4 19.7-11.3 28.4-10.6 6.7-3.3 4.2-9.8 11.7-9.8 6.3 0 12.5 1.1 18.4 3.3 22.9 8.4 38.2 30.6 43.7 54.1.1 1.2-.2 2.2-1 3z" class="st2"/><path d="M107.4 126.4c-28.2 0-49.7 25.3-52.5 58.5 8 3.3 13.7 3.3 13.7 3.3l10.9-12.4 28.4 2.5s8.9 16.2 14.2 16.2c5.3 0 35.2-4.6 44.6-12.8l.1-.1c-7.5-31.6-31.2-55.2-59.4-55.2z" class="st5"/><path d="M150.6 50.3c-12.2 27-29.1 57.4-27.8 84.1.5 10.7-21.1 11.2-29 7.9-16-6.7 10.4-52.9 27.6-74.7 4.9-6.2 9.8-10.1 11.8-11 7.7-3.3 17.4-4.9 17.4-6.3z" class="st2"/><path d="M145.7 55c-3 .9-5.9 1.7-8.8 2.8-.9.3-1.8.7-2.7 1.1-1.3.6-3.1 2.1-4.2 3.1-2.4 2.2-4.7 4.6-6.7 7.2-6.3 8-12.2 16.9-17.3 25.8-2.7 4.6-5.2 9.3-7.5 14.1-2 4.3-3.9 8.7-5.3 13.2-1.3 4-3.6 13-.3 16.6.5.6 1.1 1 1.8 1.2 3.4 1.4 8.7 1.8 12.3 1.6 4-.2 13.6-1.4 13.3-7.1-.5-9.9 1.4-19.8 4.2-29.3 3-10.1 7.2-20 11.5-29.6 3.2-6.9 6.5-13.8 9.7-20.7z" class="st2"/><path d="M92.8 121.8c-.4.8-.2 2.3.1 3.1.7.9 3.5 2.2 4.5 2.6 3.2 1.2 6.7 1.9 10.1 2 1.5.1 3.1 0 4.6-.1 2-.2 7-1 7.9-3.1.1-.2.1-.4.2-.6.1-.5.1-1.1.2-1.7 0-.3 0-.6.1-.9.2-1.5 1.2-2.8 2.8-2.9 2.7-.2 5.3.7 7.2 2.5 2.3 2.2 3.3 5.4 3 8.5-.3 3.6-2.4 6.7-5.2 8.9-5.5 4.2-13.1 5.8-19.9 6-5.6.1-11.7-.7-17-2.8-4.5-1.8-9.1-4.9-10.6-9.7-.4-1.3-.5-2.5-.4-3.8.5-6.5 2.4-11.2 9.5-12.4 1.2-.2 2.9-.3 3.6.7.6.9 0 2.7-.7 3.7zm0 .1" class="st2"/><path d="M90.4 120.2c-5.6.9-6.7 4.6-7.1 9.7-1 12.9 29.8 18 43.2 7.8 7.3-5.5 4.1-15.2-3-14.7-.3 0 0 2.6-.7 4.3-1.9 4.1-9.6 5.2-15.3 5-8.9-.3-16.6-4-17.3-6.6-1.1-3.6.2-5.5.2-5.5z" class="st5"/><circle cx="120.1" cy="37.3" r="36.3" class="st2"/><circle cx="120.1" cy="37.3" r="33.4" class="st3" transform="rotate(-45.001 120.147 37.27)"/><path d="M120.1 3.9c-16 0-29.3 11.2-32.6 26.2 2.4 16.1 16.2 28.5 33 28.5 16 0 29.3-11.2 32.6-26.2-2.3-16.1-16.2-28.5-33-28.5z" class="st5"/><path d="M92.9 15.6c-5.2 5.9-7.2 17-7.2 21.6 0 4.6 1.1 1.5 1.1 2.2 7.3-7.2 9.6-5 13-3 3.5 2.1 4.1 8.9 13.7 10.4 9.5 1.5 22.2-13.5 15.3-21.1-5.4-6-20.3-11-31.6-10.7-.7 0-3.6.6-4.3.6zm-3 288.5c.1-.3.2-.6.2-.9 2.4-9.1 10.7-12.2 17.8-6.5 3.9 3.2 5.8 8.4 6.7 13.2 1 5.2 1.1 11.7.5 17-.2 1.6-1.5 2.8-3.1 2.8H36.4c-1 0-1.9-.4-2.5-1.2-.6-.8-.8-1.7-.5-2.7.6-2.2 1.2-4.4 1.8-6.7 2.4-9 11.4-13 19.6-15.2 4.7-1.3 11.4-1.1 16.3-.9 5.3.2 13.5.5 18.8 1.1z" class="st2"/><path d="M93.2 304l-1 3.6s-5-.1-8.6-.5c-7.9-.8-21.7-1.9-28-.2-9.1 2.4-15.6 6.3-17.4 13l-1.8 6.7h75.7c3-25.5-14.4-39.6-18.9-22.6z" class="st5"/><path d="M69.8 303.1c4.2 1.4 8.4 2.9 11.9 5.7C87 313 89.1 319 90 325.4c.1.4.1.9.1 1.3-.1 1.7-1.5 3-3.1 3H36.4c-1 0-1.9-.4-2.5-1.2-.6-.8-.8-1.7-.5-2.7.6-2.2 1.2-4.4 1.8-6.7 2.4-9 11.4-13 19.6-15.2 4.2-1.1 9.8-1.1 14.1-.9.3-.1.6 0 .9.1z" class="st2"/><path d="M68.8 306c-5.2-.2-10.1 0-13.2.8-9.1 2.4-15.6 6.3-17.4 13l-1.8 6.7H87v-.7c-2-13.6-8.6-16.6-18.2-19.8z" class="st6"/><path d="M64.7 326.5H87v-.7c-.5-3.2-1.2-5.9-2.2-8-3-.5-6.9-.4-10.5.8-3.8 1.2-7.3 3.5-9.3 7.4-.1.2-.2.4-.3.5z" class="st4"/><path d="M157.9 327.3h-.3c-1.6-.1-2.7-1.5-2.7-3.1 0-.3.1-.6.2-.9-.1-.7-.3-1.7-.4-2.2-.5-2.9-1.3-5.9-2-8.7-1.4-5.8-3-11.5-4.6-17.2-2.6-9.5-5.4-18.9-8.2-28.4-.3-1.1 0-2.2.8-3 .8-.8 1.9-1 3-.7l11.2 3.8c1 .3 1.7 1.1 1.9 2.2l11 54.6c.2.9 0 1.7-.6 2.4s-1.4 1.1-2.3 1.1h-7z" class="st2"/><path d="M142.7 265.9c17.3 58.6 15.1 58.4 15.1 58.4h7.1l-11-54.6-11.2-3.8z" class="st4"/><path d="M150.6 321.7c-.3-1.9-.8-3.8-1.2-5.8-.5-2.2-.9-4.7.7-6.6 1-1.3 2.6-1.7 4.2-1.7 3.5 0 4.8 5 5.5 7.6.3 1 .6 2 .8 3.1l1.5-.4-1.6-7.9c-.1-.6-.1-1.1.1-1.6.4-1 1.2-1.9 2.3-2.3 2.3-.9 4.3.6 5.5 2.5 1.6 2.4 2.3 7.1 2.5 10.5 6.9 5.2 13.6 10.8 19.7 16.8 6.5 6.4 18.6 19.1 15.5 29.2-1.4 4.7-5.7 7.4-10.1 8.9-6.7 2.3-13.5 2.6-20-.4-8.5-3.9-14.9-13-21.2-19.7-.1-.2-.2-.3-.4-.5-1.5-2.6-3.4-5-5-7.6-2.2-3.4-5.1-8.5-4.3-12.7.9-4.3 2.7-8.3 5.5-11.4z" class="st2"/><path d="M153.7 322.7c-3.6 3.4-5.1 7.9-5.7 10.8-1 5 6.1 13.6 8.9 18.2 11.4 12.4 19.2 25.7 38.1 19.3 26.7-9-16.1-42.3-27-50.5 0 0-.4-7.7-2.1-10.4-1.8-2.7-2.6-.7-2.6-.7l2.1 10.6-7.1 1.9s-2.3-11.3-4.1-11.3c-4.3-.1-1.5 4.6-.5 12.1z" class="st5"/><path d="M150.1 265.1c7.2 0 13.1 4 13.1 8.9s-5.9 8.9-13.1 8.9c-7.2 0-13.1-4-13.1-8.9s5.8-8.9 13.1-8.9z" class="st2"/><path d="M150.1 268c5.6 0 10.2 2.7 10.2 6s-4.5 6-10.2 6c-5.6 0-10.2-2.7-10.2-6s4.6-6 10.2-6z" class="st5"/><path d="M190.1 335.3c6.4 4.5 12.9 10.6 15.8 18 2.1 5.4 2.2 11.4-1.3 16.3-2.1 2.9-5.1 4.8-8.5 5.7-6.5 1.8-13.1 1.1-19.3-1.5-9.9-4.3-17.7-13.1-23.5-22-.7-1.1-.6-2.5.2-3.5 8.9-10.5 21.8-17.2 35.6-13.5.4.2.7.3 1 .5z" class="st2"/><path d="M155.8 350.3c15.4 23.5 30.6 24.8 39.5 22.3 12.2-3.4 14.2-20.2-6.9-34.8-12.7-3.5-24.5 2.7-32.6 12.5z" class="st4"/><path d="M140.6 217.9c7.1 0 13.5 3.7 18.2 8.9 5.2 5.7 8.4 13.2 9.4 20.8.7 5.8.1 11.8-2.2 17.1-2 4.8-5.4 8.9-10.1 11.3-2.7 1.4-5.6 2.1-8.6 2.1-7.1 0-13.5-3.7-18.2-8.9-5.2-5.7-8.4-13.2-9.4-20.8-.7-5.8-.1-11.8 2.2-17.1 2-4.8 5.4-8.9 10.1-11.3 2.7-1.4 5.6-2.1 8.6-2.1z" class="st2"/><ellipse cx="144" cy="248" class="st5" rx="20.9" ry="27.7" transform="rotate(-17.067 144.01 247.94)"/><path d="M151.6 188.8c-1.5-1.1-3-2.3-4.4-3.5-5.5-4.6-10.8-10-14.9-16-4-6.1 13.3-7.1 13.6-14.5v-2.7c.6-5-13-10.4-8.5-13.1-6.4-2.3 6.2-6 14.7-1.7 5.6 2.8 10.9 7 15.3 11.2 10.7 10 35.6 34.6 36.1 50.1.3 7.2-7.7 12.1-13.4 14.8-8.4 3.9-18.5 6.3-27.6 7.5-4.9.7-10 1.1-15 1.1-2.9 0-6 .1-8.9.5-.2 0-.7.1-1.1.2.2.2.5.3.6.4 1.3.7 1.9 2.2 1.4 3.5-.5 1.4-1.8 2.2-3.3 2-2-.3-4.3-1.3-6-2.4-4-2.5-6.6-6.2-7.2-10.9-.5-3.7 2.2-7.3 4.6-9.8 3-3.1 6.7-5.9 10.3-8.3 3.9-2.7 7.9-5.1 12-7.5.7-.4 1.2-.7 1.7-.9z" class="st2"/><path d="M128.6 148.9c.8-6.6 3.8-10.5 8.4-11.7 6.8-1.8 17.1 2.7 28.5 13.4 19.1 17.8 34.8 36.9 35.2 48.1.4 11.2-29.4 20.3-53 20.3s-10.8 6.6-10.8 6.6-9.5-1.7-10.8-10.8c-1.2-9.1 31.1-25.7 31.1-25.7s-29.4-18.7-28.6-40.2zm-8.8-75.1c2.2.1 5 .4 7.9 1.1 2.5.6 5.1 1.5 7.5 2.8-.3.6-.5 1.2-.8 1.8-2.2-1.3-4.7-2.1-7.1-2.7-3.4-.8-6.7-1.1-8.8-1.1.4-.7.9-1.3 1.3-1.9zm-6.7 9.6c-.4.7-.9 1.4-1.3 2 2.5-.2 5.3 0 8.2.7 3.2.8 6.5 2.2 9.8 4.3.2-.6.5-1.2.7-1.8-3.3-2.1-6.7-3.5-10.1-4.3-2.5-.7-4.9-1-7.3-.9zm-7.5 12.3c-.4.6-.7 1.3-1.1 1.9 3.8.1 7.5.5 11.1 1.3 3.4.8 6.7 1.9 9.9 3.4.2-.6.4-1.2.6-1.9-3.3-1.5-6.7-2.6-10.1-3.4-3.4-.8-6.8-1.2-10.4-1.3zm-6.5 12.2c-.2.4-.4.7-.5 1.1l-.3.6c2 .6 4.8 1.3 7.9 1.8 5.6 1 12.1 1.9 16.2 2.4.1-.6.3-1.3.4-1.9-4-.4-10.6-1.3-16.3-2.4-2.9-.5-5.6-1.1-7.4-1.6zm-4.9 11.6c-.2.6-.4 1.2-.6 1.9 2.9 1.6 7.3 2.7 11.9 3.3 5.4.7 11.1.6 15.1-.2.1-.7.1-1.4.2-2-3.8.9-9.6 1-15.1.3-4.6-.6-9-1.7-11.5-3.3zM120 29.2c-3 0-5.4 2.4-5.4 5.4 0 3 2.4 5.4 5.4 5.4 3 0 5.4-2.4 5.4-5.4 0-3-2.4-5.4-5.4-5.4z" class="st5"/><path d="M119.7 52.3c1 .3 3.3.3 4.3.4 2.7.2 7.4.3 8.3 3.5.2.8.2 1.6-.1 2.3-1.3 3.2-6.3 5.7-9.2 7-4.9 2.3-10.1 4.2-15.3 5.9-3.4 1.1-6.9 2.2-10.4 3.2-8.5 2.4-16.7 4.7-25.6 3.3-2.6-.4-5.5-1.3-6.4-4.1-.8-2.4.4-4.8 1.9-6.6 1.8-2.2 4.1-4.2 6.3-6 4-3.3 10.1-8.5 12.4-13.4 1.3-2.8 3-5.8 5.2-8.1 1.8-1.9 4.3-3.5 7-3.2 4.5.5 6.7 5.4 7.8 9.3 1.5 5.2 9.7 4.3 13.8 6.5z" class="st2"/><path d="M103.2 46.7c2.1 7.2 11.6 6.1 15.2 8.2 1.8 1 12 .2 11 2.5-1.7 4.2-19.6 10.6-33 14.5-8 2.3-15.9 4.5-24.3 3.2-7-1.1-4.7-5 3.2-11.5 8.1-6.7 11.6-10.9 13.2-14.4 5.3-10.9 11.4-13.6 14.7-2.5z" class="st4"/><path d="M120.4 55.3c-.4 1.5-1.8 2.8-3.1 3.7-2.1 1.5-4.4 2.8-6.7 4-6.6 3.6-13.8 6.7-20.9 9.4-7.3 2.7-16.1 5.6-23.9 6.1-3.6.2-10.7.7-12.2-3.7-1.1-3.3 1.9-6.5 4.1-8.6 2.8-2.7 6-5.2 9.1-7.7.7-.6 1.4-1.1 2.1-1.7C72.4 53.9 82.1 46 84 42c1.2-2.6 2.9-5.3 5-7.2 1.9-1.7 4.2-2.8 6.7-2.5 1.3.1 2.5.6 3.6 1.3 2 1.3 3.7 2.9 5.4 4.6 1.2 1.2 2.4 2.6 3.8 3.7 1.5 1.3 3 2 5 2.4 3.2.6 6.9.1 10-.4 2.1-.4 4.8-.6 5.8 1.9.8 2.1-.7 3.7-2.2 4.9-1.1.9-2.3 1.7-3.5 2.4-.8.6-1.7 1.1-2.5 1.7-.1.1-.4.3-.7.5z" class="st2"/><path d="M116.6 55.8c-5.5 4.8-34.7 18.7-51 19.8-18.4 1.2-5.4-7.9 5.2-16.6 8.1-6.7 14.3-12.3 15.9-15.8 3.4-7.1 7.6-9.5 11-7.2 8.8 5.9 8.5 14 26.3 10.7 7.4-1.4-5.2 7.2-7.4 9.1z" class="st6"/><path d="M126.6 43.1c4.8 0 8.7 3.9 8.7 8.7 0 4.8-3.9 8.7-8.7 8.7-4.8 0-8.7-3.9-8.7-8.7 0-4.8 3.9-8.7 8.7-8.7z" class="st2"/><path d="M126.6 45.2c-3.6 0-6.6 3-6.6 6.6 0 3.6 3 6.6 6.6 6.6 3.6 0 6.6-3 6.6-6.6 0-3.7-2.9-6.6-6.6-6.6z" class="st5"/><path d="M130.3 48.1c2 2 2 5.3 0 7.3s-5.3 2-7.3 0-2-5.3 0-7.3 5.3-2 7.3 0z" class="st2"/><path d="M129.6 48.8c-1.6-1.6-4.3-1.6-5.9 0-1.6 1.6-1.6 4.3 0 5.9 1.6 1.6 4.3 1.6 5.9 0 1.6-1.6 1.6-4.3 0-5.9z" class="st5"/><path d="M129.6 48.8c-.2-.2-.4-.4-.6-.5l-5.8 5.8c.1.2.3.4.5.6.2.2.4.4.6.5l5.8-5.8c-.2-.2-.3-.4-.5-.6z" class="st2"/><path d="M122.3 31.1c-1.3 0-2.3 1-2.3 2.3 0 1.3 1 2.3 2.3 2.3 1.3 0 2.3-1 2.3-2.3 0-1.3-1-2.3-2.3-2.3z" class="st2"/><path d="M92.8 25.9c-1.2-.4-2.7 1.1-3.4 3.4-.7 2.2-.3 4.3.8 4.7 1.2.4 2.7-1.1 3.4-3.4.7-2.2.4-4.3-.8-4.7z" class="st5"/><path d="M93.2 27.6c-.5-.2-1.2.5-1.5 1.5-.3 1-.1 1.9.4 2 .5.2 1.2-.5 1.5-1.5.3-.9.1-1.8-.4-2zM57.1 327.2c.3-2.1 1-4 1.8-5.6 2.4-4.6 6.5-7.4 10.9-8.8 4.3-1.4 8.9-1.5 12.3-.8 1.7.3 3.1.9 4.1 1.5l-1.4 2.7c-.8-.5-1.9-.9-3.2-1.2-3.1-.6-7.2-.6-11 .7-3.8 1.2-7.3 3.5-9.3 7.4-.7 1.3-1.2 2.9-1.5 4.6l-2.7-.5z" class="st2"/><path d="M41.3 327.7c0-.5.1-.9.1-1.4.7-5.5 4.1-10.7 9.9-14.4 5.6-3.6 13.4-5.7 22.9-5.4 1.6.1 3.2.2 4.8.4l-.4 3.1c-1.6-.2-3.1-.3-4.6-.4-8.8-.3-16 1.6-21.1 4.9-4.9 3.1-7.9 7.5-8.4 12.1 0 .4-.1.8-.1 1.1h-3.1zM181.9 373c1.6-4.7.3-10-2.2-15-4-8.1-11-15-13.9-16.8l1.5-2.5c3.2 2 10.7 9.4 15 18 2.8 5.6 4.2 11.7 2.3 17.3l-2.7-1zm14.3-.6c1.9-5.8.4-12-2.4-17.6-4.3-8.7-12.7-16.8-16.1-18.5l2.2-1.5c3.8 1.8 11.9 9.4 16.5 18.7 3.1 6.2 4.7 13.2 2.5 19.8l-2.7-.9z" class="st2"/><path d="M76.9 185.1c-2.4 7.1-2.1 13.8-1 18.7 1.7 7.7 5 9.6 12.6 13.6 7.6-2.5 11.1-3.8 13.4-10.9 1.5-4.7 2.4-11.5.5-19.2-8.1 1.4-12.7-4.5-12.7-4.5s-4.9 5.1-12.8 2.3z" class="st6"/><path fill="#fbe7ac" fill-rule="evenodd" d="M99.7 190.9c-2.9-.1-5.8-.9-8.4-2.4-.6-.4-1.2-.8-1.8-1.3-.6.4-1.3.7-1.9.9-2.7 1.1-5.5 1.4-8.3 1-1 4.5-1 9.3 0 13.9.5 2.1 1.2 4.3 2.6 5.9 1.6 1.9 4.6 3.4 7 4.7 2.4-.8 5.3-1.8 7-3.2 1.5-1.3 2.3-3.1 2.9-5 1.4-4.6 1.6-9.6.9-14.5z" clip-rule="evenodd"/><path d="M98.6 192.1c-1.2-.1-2.4-.3-3.6-.6-1.5-.4-2.9-1.1-4.3-1.9-.3-.2-.7-.4-1-.6-.1-.1-.2-.2-.3-.2-.1.1-.2.1-.3.1-.3.2-.7.3-1 .5-1.4.6-2.9 1-4.4 1.1-1.1.1-2.3.2-3.4.1-.4 1.8-.5 3.7-.5 5.6 0 2.2.2 4.5.7 6.6.2 1 .5 2 .9 2.9.4.9.8 1.7 1.5 2.5s1.8 1.6 2.9 2.3c1.1.7 2.2 1.3 3.2 1.8 1-.3 2.1-.7 3.2-1.2s2.2-1 2.9-1.7c.6-.5 1.1-1.2 1.5-1.9.4-.8.7-1.6 1-2.5.7-2.2 1.1-4.5 1.3-6.8 0-2 0-4-.3-6.1zm-2.9-3c1.3.4 2.7.6 4 .6h1l.2 1c.4 2.5.5 5.1.4 7.7-.2 2.5-.6 5-1.4 7.4-.3 1-.7 2-1.2 2.9-.5 1-1.2 1.9-2 2.6-.9.8-2.2 1.5-3.5 2.1-1.3.5-2.6 1-3.9 1.4l-.5.2-.5-.2c-1.2-.6-2.6-1.4-3.9-2.2-1.3-.8-2.6-1.8-3.5-2.8-.8-.9-1.4-2-1.9-3.1-.4-1.1-.7-2.2-1-3.3-.5-2.3-.8-4.8-.8-7.2 0-2.4.3-4.9.8-7.2l.2-1.1 1.1.2c1.3.2 2.6.2 3.9 0 1.3-.2 2.5-.5 3.7-1 .3-.1.6-.2.9-.4.3-.2.6-.3.9-.5l.7-.4.6.5.9.6.9.6c1.3.7 2.6 1.2 3.9 1.6zm-8.1-59.9c1 0 1.9.9 1.8 1.9 0 1-.9 1.9-1.9 1.8-1 0-1.9-.9-1.8-1.9 0-1 .9-1.8 1.9-1.8zm38 1.6c1 0 1.9.9 1.8 1.9 0 1-.9 1.9-1.9 1.8-1 0-1.9-.9-1.8-1.9 0-1 .9-1.8 1.9-1.8zm-6.7 3.9c1 0 1.9.9 1.8 1.9 0 1-.9 1.9-1.9 1.8-1 0-1.9-.9-1.8-1.9 0-1 .9-1.9 1.9-1.8zm-8.2 1.7c1 0 1.9.9 1.8 1.9 0 1-.9 1.9-1.9 1.8-1 0-1.9-.9-1.8-1.9 0-1 .9-1.8 1.9-1.8zm-8.8-.7c1 0 1.9.9 1.8 1.9 0 1-.9 1.9-1.9 1.8-1 0-1.9-.9-1.8-1.9 0-1 .8-1.8 1.9-1.8zm-8-2.5c1 0 1.9.9 1.8 1.9 0 1-.9 1.9-1.9 1.8-1 0-1.9-.9-1.8-1.9 0-1 .9-1.8 1.9-1.8zm-37.1 97.7c1.9 3.8 1.1 8.2-1.9 9.9-3 1.7-7 .1-8.9-3.7-1.9-3.8-1.1-8.2 1.9-9.9 3-1.7 7-.1 8.9 3.7z" class="st2"/><path d="M55.5 231.7c-1.5-2.9-4.5-4.1-6.8-2.8-2.3 1.3-2.9 4.7-1.5 7.6 1.5 2.9 4.5 4.1 6.8 2.8 2.3-1.4 3-4.8 1.5-7.6z" class="st5"/><path d="M55.1 235.6c-.5 2.3-2.5 3.5-4.6 2.6-2.1-.9-3.4-3.5-3-5.8.5-2.3 2.5-3.5 4.6-2.6 2.2.9 3.5 3.5 3 5.8z" class="st2"/><path d="M54.4 235.3c.4-1.9-.7-3.9-2.4-4.6-1.7-.7-3.3.2-3.7 2.1-.4 1.9.7 3.9 2.4 4.6 1.7.7 3.3-.2 3.7-2.1z" class="st5"/><path d="M54.4 235.3c0-.2.1-.5.1-.7l-5.9-2.5c-.1.2-.1.4-.2.6 0 .2-.1.5-.1.7l5.9 2.5c.1-.2.1-.4.2-.6zm54.7 78.1c.5 4.5-2.7 8.5-7.2 9.1-4.5.5-8.5-2.7-9.1-7.2-.5-4.5 2.7-8.5 7.2-9.1 4.6-.5 8.6 2.7 9.1 7.2z" class="st2"/><path d="M107.2 313.7c-.4-3.4-3.5-5.9-6.9-5.5-3.4.4-5.9 3.5-5.5 6.9.4 3.4 3.5 5.9 6.9 5.5 3.4-.4 5.9-3.5 5.5-6.9z" class="st5"/><path d="M104.8 317.4c-1.7 2.1-4.8 2.5-6.9.8-2.1-1.7-2.5-4.8-.8-6.9 1.7-2.1 4.8-2.5 6.9-.8 2.2 1.7 2.5 4.8.8 6.9z" class="st2"/><path d="M104.1 316.8c1.4-1.7 1.1-4.2-.6-5.5-1.7-1.4-4.2-1.1-5.5.6-1.4 1.7-1.1 4.2.6 5.5 1.6 1.4 4.1 1.1 5.5-.6z" class="st5"/><path d="M104.1 316.8c.2-.2.3-.4.4-.6l-6-4.8c-.2.2-.4.3-.5.6-.2.2-.3.4-.4.6l6 4.8c.1-.2.3-.4.5-.6zm55.2 14.8c-.3 4.7-3.5 8.1-7.2 7.7-3.7-.4-6.5-4.5-6.2-9.2.3-4.7 3.5-8.1 7.2-7.7 3.6.4 6.4 4.6 6.2 9.2z" class="st2"/><path d="M157.6 331.5c.2-3.6-1.9-6.7-4.8-7-2.8-.3-5.3 2.3-5.5 5.9-.2 3.6 1.9 6.7 4.8 7 2.9.2 5.3-2.4 5.5-5.9z" class="st5"/><path d="M154.1 334.8c-1.7 1.8-4.2 1.5-5.7-.6-1.5-2.2-1.3-5.4.4-7.2 1.7-1.8 4.3-1.5 5.7.6 1.5 2.2 1.3 5.4-.4 7.2z" class="st2"/><path d="M153.6 334c1.4-1.4 1.5-4 .3-5.7-1.2-1.7-3.2-2-4.6-.5-1.4 1.4-1.5 4-.3 5.7 1.2 1.7 3.2 1.9 4.6.5z" class="st5"/><path d="M153.6 334c.2-.2.3-.4.4-.6l-4.2-6.1c-.2.1-.4.3-.5.4-.2.2-.3.4-.4.6l4.2 6.1c.2-.1.3-.2.5-.4zM55.3 180.5c6.5 2.7 10.9 3.2 12.3 3.3l11.6-12.6 29.4 2.6.3.5s3.3 6 7.1 10.7l-1.5 1.2c-3.2-4-5.7-9.7-6.6-11.2l-28.3-2.3L68.3 185h-.4s-5.2.7-13.4-2.6l.8-1.9z" class="st2"/><path d="M144.7 35.6c0-14.4-8.5-23.6-21.7-28.1-7.7-2.6 1.9.9-6.1-2.1 4.4-.7 5.3-.8 9.9.3 14.9 3.6 23.5 15 24.6 30 0 1.8-1.5 3.3-3.3 3.3-1.9-.1-3.4-1.6-3.4-3.4z" class="st8"/><path d="M95.5 41.3c-5 9.7-7.8 10.8-16.4 17-5.9 4.2-12 8.9-18.5 12 4.2-6.1 10.1-10.8 15.6-15.7 7-6.2 9.5-7.1 13.2-15.9.7-1.7 2.6-2.5 4.3-1.8 1.7.8 2.5 2.7 1.8 4.4z" class="st9"/><path d="M214.3 148.7c3.7 13.9 5.7 28.2 5.9 42.6.1 7.4-.3 14.9-1.1 22.3-.8 7.3-2.2 14.6-4 21.8-8.8 34.1-24.2 41.6-54.3 55.5-1.1.5-2.2.5-3.3 0-31.3-14.4-46.2-22-54.8-57.5-3.4-14-4.9-28.6-4.6-43 .3-14 2.2-28.1 5.9-41.6.3-1 .9-1.9 1.8-2.4s2-.7 3-.4c12 3.4 23.9 2.4 34.8-3.6 3.4-1.8 6.5-4.1 9.3-6.7 1.1-1 2.2-2.1 3.1-3.2.8-1 1.8-1.5 3.1-1.5 1.2 0 2.3.5 3.1 1.5.9 1.2 2 2.2 3.1 3.2 2.8 2.6 6 4.9 9.3 6.7 10.9 6 22.8 7 34.8 3.6 1-.3 2.1-.2 3 .4.9.4 1.6 1.3 1.9 2.3z" class="st2"/><path d="M213.3 149c7.4 27.7 7.9 58.3.7 86.1-8.7 33.8-23.8 41-53.7 54.8-.8.4-1.7.4-2.5 0-31.1-14.4-45.7-21.7-54.2-56.8-6.6-27.3-6-57 1.2-84.1.2-.8.7-1.4 1.4-1.8.7-.4 1.5-.5 2.2-.3 12.2 3.4 24.4 2.4 35.5-3.7 3.4-1.9 6.6-4.2 9.5-6.8 1.1-1 2.3-2.2 3.2-3.4.6-.7 1.4-1.1 2.3-1.1.9 0 1.7.4 2.3 1.1.9 1.2 2.1 2.4 3.2 3.4 2.9 2.6 6.1 5 9.5 6.8 11.2 6.2 23.3 7.2 35.5 3.7.8-.2 1.5-.1 2.2.3 1 .4 1.5 1 1.7 1.8z" class="st2"/><path d="M107.7 149.7c-8.6 32.1-6.3 61.7-1.2 82.7 8.1 33.5 21.2 40.4 52.6 54.9 30.2-13.9 43.8-20.8 52.1-52.9 5.4-21.1 8.1-51.6-.7-84.7-32.3 9.1-51.4-14.9-51.4-14.9s-19.1 24-51.4 14.9z" class="st5"/><path d="M113.8 154.6c11.6 1.8 23.1-.1 33.4-5.8 3.3-1.8 6.5-4.1 9.4-6.5 1.5-1.2 3.6-1.2 5.1 0 2.9 2.5 6.1 4.7 9.4 6.5 10.3 5.7 21.8 7.6 33.4 5.8 2-.3 4 1 4.4 3 4.6 20.7 5.2 42.3 1.7 63.2-1.4 8.4-3.4 16.6-6.4 24.6-7.9 21.3-24.4 28.1-43.4 37.3-1.1.5-2.3.5-3.4 0-19-9.2-35.5-15.9-43.4-37.3-2.9-8-5-16.2-6.4-24.6-3.5-20.9-2.9-42.5 1.7-63.2.5-2 2.4-3.3 4.5-3z" class="st3"/><path d="M113.5 156.5c12 1.9 23.9-.1 34.6-6 3.4-1.9 6.8-4.2 9.7-6.7.7-.6 1.8-.6 2.5 0 3 2.5 6.3 4.9 9.7 6.7 10.7 5.9 22.6 7.9 34.6 6 1-.2 2 .5 2.2 1.5 4.5 20.4 5.1 41.8 1.7 62.4-1.4 8.2-3.4 16.4-6.3 24.2-7.6 20.7-23.9 27.2-42.4 36.2-.6.3-1.1.3-1.7 0-18.5-8.9-34.8-15.5-42.4-36.2-2.9-7.8-4.9-16-6.3-24.2-3.4-20.6-2.8-42 1.7-62.4.4-1 1.4-1.6 2.4-1.5z" class="st2"/><path d="M205 158.4c-12.3 1.9-24.6 0-35.9-6.3-3.2-1.8-6.8-4.2-10.1-7-3.2 2.7-6.8 5.2-10.1 7-11.3 6.2-23.5 8.2-35.9 6.3-4.5 20.2-5 41.3-1.6 61.7 1.3 8.1 3.3 16.2 6.2 23.9 7.3 19.8 22.8 26.1 41.4 35.1 18.6-9 34.1-15.2 41.4-35.1 2.8-7.7 4.8-15.8 6.2-23.9 3.5-20.3 2.9-41.5-1.6-61.7z" class="st6"/><path fill="#fff6d1" fill-rule="evenodd" d="M205 158.4c-12.3 1.9-24.6 0-35.9-6.3-3.2-1.8-6.8-4.2-10.1-7-3.2 2.7-6.8 5.2-10.1 7-11.3 6.2-23.5 8.2-35.9 6.3-2.9 13.1-4.2 26.6-3.8 40 20 13.9 50.9 22.8 85.5 22.8 3.9 0 7.8-.1 11.6-.3 0-.3.1-.5.1-.8 3.7-20.3 3.1-41.5-1.4-61.7z" clip-rule="evenodd"/><path d="M64.7 147.4c-10.5 9.4-21.9 21.1-24.3 25-1.1 1.8-1.8 2.9-2.2 3.6 3.6-.1 7.8 1.2 10.8 2.8 1.3.7 2.4 1.5 3.4 2.2 1.5-11.9 5.6-23.7 12.3-33.6zm-13.4 73.1c-1.2-.3-3.5-2.5-6.2-5.9-6.7-8.5-16.2-24.5-19.3-36-1.8 4-1.2 8 2.4 16.2 2.3 5.2 5.9 11 9.5 16.3 1 1.5 2.1 3 3.1 4.4 2.3 3.2 4.6 6.2 6.4 8.5.8 1 1.5 1.9 2.1 2.7.4-.1.9-.1 1.4-.1 2.3.2 4.7 1.8 6 4.4.5 1 .8 2.1 1 3.2.3 2.8-.7 5.5-2.9 6.7h-.1c-.1.1-.2.1-.3.2-.3.1-.6.2-.8.3.2.1.5.2.7.3 1.5.6 3 .8 4 .4 1.2-.6 4.2-2.4 6.5-4 .1-.1.2-.1.3-.2-.1-.1-.2-.3-.3-.4-.9-1.2-1.8-2.5-2.7-3.8-2-3-3.7-6.1-5.2-9.4-.1-.3-.2-.5-.3-.8-.5-1.2-1.1-2.3-1.7-3.5-.8.3-1.5.5-2.2.6-.5 0-1 0-1.4-.1z" class="st3"/><path d="M30.9 172.7c6.6-10.7 20.3-22.9 31-29.6 2.5-1.5 1.9-1.2 4.5-2.2C55.1 151 42 160.7 34.3 174.2c-.4.9-1.5 1.4-2.4 1-1-.5-1.4-1.5-1-2.5z" class="st8"/><path d="M99.1 174.3l-19.7-1.6-4.9 5.4-6.2 6.8h-.4s-4.8.7-12.5-2.3c-.1 0-.2-.1-.3-.1 0 .4-.1.7-.1 1.1 0 .4-.1.9-.1 1.3.1 0 .2.1.3.1.4.2.8.3 1.2.5 7.2 2.7 12.2 2.7 12.2 2.7l4-4.6 5.1-5.8 1.8-2.1 19.3 1.7c.1-1 .2-2 .3-3.1zm7.4 72.7c-11.4 0-24.1-4.3-35.1-12-1-.7-2-1.4-3-2.2-.2-.2-.5-.4-.7-.6-.9-.7-1.8-1.5-2.7-2.3-.3-.2-.6-.5-.8-.7-1-.9-1.9-1.8-2.9-2.7.5 1 1 1.9 1.6 2.9.4.7.8 1.4 1.3 2.1l.6.9c.9 1.4 1.9 2.7 2.9 3.9 0 0 0 .1.1.1.6.8 1.2 1.5 1.8 2.2 2.8 3.2 5.8 6.2 9 8.8 1.2 1 2.4 1.9 3.6 2.8 2.1 1.5 4.3 3 6.6 4.2.4.2.8.4 1.2.7 1.3.7 2.7 1.4 4.1 2 1.1.5 2.2 1 3.4 1.5 2 .8 4.1 1.5 6.1 2.1.1 0 .1 0 .2.1 1 .3 2.1.6 3.1.8 2.8.6 5.6 1 8.3 1.2-3.2-4.4-5.9-9.4-8.2-15.6-.3-.2-.4-.2-.5-.2z" class="st3"/><path d="M78.1 250.8c-3.5-2.7-6.7-5.7-9.7-9 1.6 7.7 5.7 14.4 11 18.6.8.6 1.6 1.2 2.4 1.7.3.2.7.4 1 .6 1.1.6 2.3 1.2 3.5 1.6 1.8.6 3.8.9 5.7.9h.1c-2.4-1-4.7-2.5-6.8-4.4-.4-.4-.8-.7-1.1-1.1-.7-.7-1.3-1.4-1.9-2.2-.6-.7-1.1-1.4-1.6-2.2-1-1.4-1.9-2.9-2.6-4.5z" class="st5"/><path d="M57 178.5c1.6-11.3 8.4-27.4 16.1-35.6l3.5-3.1c-6.2 14-12.4 23.2-13.5 39.2-.1 1.7-1.6 2.9-3.3 2.8-1.7-.1-3-1.6-2.8-3.3z" class="st8"/><path d="M48.6 326.5h8.6c.4-1.8.9-3.5 1.7-4.9 2.4-4.6 6.5-7.4 10.9-8.8 3.6-1.2 7.4-1.4 10.6-1-.2-.2-.4-.3-.6-.5-.7-.1-1.3-.1-2-.1-8.8-.3-16 1.6-21.1 4.9-4.3 2.7-7.1 6.4-8.1 10.4z" class="st4"/><path d="M180 368.3c-1.1-7.5-7.9-16.7-16.9-25-2.6 1.9-5 4.2-7.1 6.8l-.2.2c8.5 13 17 19.2 24.3 21.7v-.2c.1-1 .1-2.2-.1-3.5zm14.2-3.2c-.8-9.3-9-21.5-17.4-27.9-2.8.5-5.4 1.4-7.9 2.6 3.6 2.9 9.8 9.5 13.5 16.9 2.6 5.2 4 10.7 2.7 15.9 0 .2-.1.4-.1.6 3.4.5 6.4.3 9-.3.1-.5.2-1 .2-1.6.1-1.7.2-3.7 0-6.2z" class="st6"/><path d="M201.9 361c-.6-9.6-7.4-16-16.2-23.9-1-.2-1.9-.3-2.9-.3 4.2 3.2 9.9 9.5 13.6 16.7 2.4 4.7 3.8 9.9 3.5 15.1 0 .6-.1 1.2-.2 1.9.5-.4.9-.8 1.4-1.2.2-.7.4-1.4.6-2.2.2-1.8.4-3.7.2-6.1zm-47.5-53.4c2 .1 3.3 2.1 4.1 4.1-1.3-5.3-3.3-12.7-6.2-23.2-1.2-.6-2.4-1.1-3.6-1.7 2.6 8.8 4.4 15.6 5.7 20.8zM98 294.1c-1.4-4.9-3.5-11.7-6.3-21.3h-.3c-.9 0-1.8-.1-2.7-.2 3.1 10.5 5.2 17.7 6.7 22.7.9-.5 1.7-.9 2.6-1.2z" class="st6"/><path d="M89.9 123.5c-1 9.2 24.1 11.9 31.7 6.6l.7-.5c-3.5 7.9-36.5 7.9-35.6-6.6.1-.9 1-1.5 1.8-1.3 1 .1 1.6 1 1.4 1.8zm5.3 181.3c.6-1.5 1.2-2.7 2-3.6 2-2.4 4.5-2.7 7.1-1.4 1.3.7 2.6 1.8 3.8 3.3.2.2.3.4.5.7-.2-.4-.4-.7-.6-1-1.3-2.1-2.7-3.7-4.2-4.7-2.6-1.8-5.4-2-7.6.1-.8.7-1.5 1.8-2.1 3.1-.4.8-.7 1.8-1 2.8l-1 3.6s-5-.1-8.6-.5c-1.5-.2-3.3-.3-5.2-.5 1.1.6 2.2 1.3 3.2 2.1.2.2.5.4.7.6 1 .1 1.9.2 2.8.3 3.5.4 8.6.5 8.6.5l1-3.6c.3-.7.4-1.3.6-1.8z" class="st8"/><path d="M143.3 256.4c-8-3.6-15.2-9.1-20.6-16.6-.8-1.1-1.6-2.3-2.4-3.5-1.4-2.2-2.6-4.6-3.6-7.1-.2-.6-.4-1.1-.7-1.7l-.3-.9c-.3-.8-.6-1.6-.8-2.4-.3-.9-.6-1.9-.9-2.9-1.8-5.8-3.1-11.8-4.1-17.8l-.3-2.1c.3 6.3 1 12.5 2 18.7.1.5.2.9.2 1.4.2 1 .3 1.9.5 2.9.2.8.3 1.6.5 2.5.2.9.4 1.7.6 2.6 1.2 5 2.6 9.9 4.3 14.6.7 1.8 1.4 3.5 2.2 5.1 1.5 3 3.3 5.7 5.2 8.1 1.3 1.6 2.7 3 4.1 4.4l.1.1.1.1c.9.8 1.7 1.5 2.7 2.3.1 0 .1.1.2.1 2.2 1.7 4.5 3.3 7 4.8.5.3 1.1.6 1.6.9.3.2.7.4 1 .6.9.5 1.8 1 2.6 1.4 1.9 1 3.8 1.9 5.8 2.9 1.3.6 2.6 1.3 4 1.9l1.2.6 1.8.9c.5.2 1 .5 1.5.7.1 0 .2.1.3.1 1-.5 1.9-.9 2.9-1.4 16.4-7.9 30.1-14.2 37.4-30.9-8.3 9.2-19.9 13.8-32 14.3h-3.1c-5.8-.1-11.6-1.2-17.1-3.2h-.1c-1.1-.4-2.2-.8-3.3-1.3 0 0-.1 0-.1-.1-.2 0-.3-.1-.4-.1z" class="st4"/><path d="M184.5 334c-6.5-6-13.1-11-16.5-13.5 0 0-.4-7.7-2.1-10.4-.4-.6-.8-1-1.1-1.2-.2-.1-.4-.2-.6-.2l2.2 12.6 1 .9 13.5 11.7c1.2-.1 2.4 0 3.6.1z" class="st8"/><path d="M1.9 327.1h135.5c1 0 1.9.8 1.9 1.9 0 1-.8 1.9-1.9 1.9H1.9c-1 0-1.9-.8-1.9-1.9 0-1.1.8-1.9 1.9-1.9zm191.4 0h23.6c1 0 1.9.8 1.9 1.9 0 1-.8 1.9-1.9 1.9h-23.6c-1 0-1.9-.8-1.9-1.9 0-1.1.9-1.9 1.9-1.9z" class="st2"/><path d="M115.4 161.9c-2.9 18.9-4.1 36.9-1.5 46.8l2.7 9.9 42.9-70.2c0 .1-15.5 16.7-44.1 13.5z" class="st9"/><g><path d="M74.9 155.6c-.4-.2-.9-.4-1.3-.5l1.2-2.4c-.8-.4-1.7-.7-2.5-1.1-.4.8-.8 1.6-1.3 2.3l-1.2-.6c1.1-1.9 2.1-3.7 3-5.6l1.2.6-1.2 2.4c.8.4 1.6.8 2.5 1.1.4-.8.8-1.7 1.1-2.5.4.2.8.3 1.2.5-.9 2-1.8 3.9-2.7 5.8zm7.5 0c-.3.7-.8 1.3-1.5 1.6-.7.3-1.5.3-2.3 0-.8-.3-1.4-.8-1.7-1.4-.3-.7-.3-1.3.1-2.1.2-.4.3-.7.5-1.1.3-.7.8-1.2 1.5-1.5.7-.3 1.4-.3 2.1 0 .8.3 1.3.7 1.6 1.4.3.6.4 1.3.1 2.1-.1.2-.3.6-.4 1zm-.9-1.5c.2-.5.2-.9.1-1.3s-.4-.6-.8-.8c-.4-.2-.8-.1-1.2.1-.4.2-.6.5-.8 1-.1.4-.3.7-.5 1.1-.2.5-.2.9-.1 1.3s.4.7.8.8c.5.2.9.1 1.2-.1.4-.2.7-.6.8-1 .2-.4.4-.8.5-1.1zm6.7 5.7c-.5-.1-.9-.2-1.4-.3-.5-1.6-1-3.2-1.4-4.9-.5 1.4-.9 2.8-1.4 4.1-.5-.1-.9-.3-1.4-.4.8-2 1.5-4 2.2-6 .4.1.9.2 1.3.4.4 1.6.9 3.2 1.4 4.9.4-1.4.9-2.8 1.2-4.2.4.1.9.2 1.3.3-.6 2-1.2 4-1.8 6.1zm4.3-1.9c-.3 0-.5-.1-.8-.1-.2.9-.5 1.7-.7 2.6-.5-.1-1-.2-1.4-.3.6-2.1 1.2-4.1 1.7-6.2.5.1.9.2 1.4.2-.2.8-.4 1.7-.6 2.5.2 0 .4.1.6.1.8-.7 1.6-1.5 2.4-2.3.6.1 1.1.2 1.7.2-1 .9-1.9 1.8-3 2.6.6 1.2 1.2 2.5 1.8 3.7-.6-.1-1.2-.2-1.8-.2-.5-.9-.9-1.8-1.3-2.8z" class="st0"/></g></svg>