<svg xmlns="http://www.w3.org/2000/svg" role="img" viewBox="110.22 179.22 742.56 380.06"><title>cregit logo</title><defs><clipPath id="a" clipPathUnits="userSpaceOnUse"><path d="M0 612h792V0H0z"/></clipPath></defs><path d="M597.04876 337.17122h48.0122v16.76617h-27.28312q7.46856 7.46856 10.36453 13.56535 3.65807 8.23066 3.65807 17.22342 0 15.24197-8.5355 26.52102-8.38308 11.12664-23.01537 17.52827-14.47986 6.2492-25.75892 6.2492-.91452 0-18.29036-.7621-6.85889 0-11.5839 4.5726-4.57259 4.42016-4.57259 10.66937 0 5.48711 4.11533 8.99276 4.26776 3.50565 13.71778 3.50565l26.3686-.30483q32.00813 0 44.04928 7.0113 17.22342 9.75486 17.22342 30.02667 0 12.95568-7.92582 23.47264-7.92582 10.66937-20.8815 15.69922-19.66213 7.46857-45.26863 7.46857-19.20488 0-35.05653-3.8105-15.85164-3.65807-22.71053-10.36453-6.85889-6.55405-6.85889-13.8702 0-7.0113 5.18227-12.65083 5.3347-5.4871 19.66214-9.2976-19.81456-9.75486-19.81456-27.1307 0-10.51696 8.07825-20.42424 8.07824-9.90727 25.6065-17.22342-20.42423-7.46856-29.56941-19.66214-9.14519-12.19357-9.14519-28.19764 0-20.8815 17.071-36.12346 17.07101-15.39438 43.89687-15.39438 14.17503 0 29.26458 5.94436zm-26.3686 3.50566q-8.84034 0-14.93713 8.99276-6.09679 8.84034-6.09679 36.88556 0 22.71053 5.94437 31.24603 6.09679 8.38308 14.32745 8.38308 9.14518 0 15.24197-8.38308 6.09678-8.38308 6.09678-32.61781 0-27.28312-6.85888-37.1904-4.87743-7.31614-13.71777-7.31614zm-8.99276 158.36404q-15.5468 0-20.57666 2.59113-8.68792 4.72501-8.68792 12.80325 0 7.7734 8.99276 14.02261 8.99276 6.40163 33.83717 6.40163 21.18633 0 33.22749-5.63953 12.19357-5.63953 12.19357-15.85165 0-3.81049-2.2863-6.40162-4.11533-4.5726-12.4984-6.2492-8.23067-1.67662-44.20171-1.67662zm134.28172-232.59243q9.90729 0 16.76618 7.01131 6.85887 6.85888 6.85887 16.61375 0 9.75486-7.0113 16.61373-6.85888 6.8589-16.61375 6.8589-9.75485 0-16.61374-6.8589-6.85888-6.85887-6.85888-16.61373 0-9.75487 6.85888-16.61375 6.85889-7.01131 16.61374-7.01131zm21.33876 69.04612v112.94297q0 15.08955 3.50565 19.3573 3.50566 4.11533 13.71778 4.72501v5.48711h-76.97194v-5.4871q9.45003-.30485 14.02262-5.48712 3.04839-3.50565 3.04839-18.5952v-83.22114q0-15.08955-3.50566-19.20488-3.50564-4.26775-13.56535-4.87743v-5.63952zm87.69376-52.12754v52.12754h33.83717v15.08954h-33.83717v87.94616q0 12.34599 1.06693 16.00406 1.21936 3.50565 4.11534 5.79195 2.89596 2.13387 5.33468 2.13387 9.90728 0 18.74762-15.08954l4.5726 3.35323q-12.346 29.26458-40.08638 29.26458-13.56536 0-23.01537-7.46857-9.2976-7.62098-11.88873-16.91858-1.52421-5.18227-1.52421-28.04522v-76.97194h-18.5952v-5.33468q19.20489-13.56536 32.61782-28.50248 13.56535-14.93714 23.62504-33.37992z" fill="#f05133"/><path fill="#fff" stroke="#fff" stroke-miterlimit="10" d="M645.41972 364.73446h-38.1679V328.4679h38.1679z" stroke-width="1.33333"/><g clip-path="url(#a)" transform="matrix(1.33333 0 0 -1.33333 0 816)"><path fill="#231f20" d="M473.388 323.92c0-25.979-21.053-47.031-47.031-47.031-25.978 0-47.031 21.052-47.031 47.031 0 25.974 21.053 47.026 47.031 47.026 25.978 0 47.031-21.052 47.031-47.026"/><path fill="none" stroke="#231f20" stroke-miterlimit="10" d="M473.388 323.92c0-25.979-21.053-47.031-47.031-47.031-25.978 0-47.031 21.052-47.031 47.031 0 25.974 21.053 47.026 47.031 47.026 25.978 0 47.031-21.052 47.031-47.026z"/><path fill="#231f20" stroke="#231f20" stroke-miterlimit="10" d="M435.745 361.253c40.624 71.557 54.057 104.746 54.057 104.746l34.952-24.33-68.075-90.466"/><path fill="#fff" d="M464.38 323.915c0-21.001-17.019-38.024-38.024-38.024-21 0-38.024 17.023-38.024 38.024 0 21.005 17.024 38.028 38.024 38.028 21.005 0 38.024-17.023 38.024-38.028"/><path fill="none" stroke="#231f20" stroke-miterlimit="10" d="M464.38 323.915c0-21.001-17.019-38.024-38.024-38.024-21 0-38.024 17.023-38.024 38.024 0 21.005 17.024 38.028 38.024 38.028 21.005 0 38.024-17.023 38.024-38.028z"/><path fill="none" stroke="#231f20" stroke-miterlimit="10" stroke-width="5" d="M455.407 324.144c.938-20.4-19.257-29.084-19.257-29.084"/></g><path d="M248.02066 380.57023l-34.6249 6.24999q-1.75-10.37498-7.99999-15.62496-6.12498-5.24999-15.99996-5.24999-13.12497 0-20.99995 9.12498-7.74998 8.99998-7.74998 30.24992 0 23.62494 7.87498 33.37492 7.99998 9.74997 21.37495 9.74997 9.99998 0 16.37496-5.62498 6.37498-5.74999 8.99998-19.62495l34.49991 5.87498q-5.37499 23.74994-20.62495 35.87491Q213.89575 477.07 188.27081 477.07q-29.12492 0-46.49988-18.37495-17.24996-18.37496-17.24996-50.87487 0-32.87492 17.37496-51.12488 17.37496-18.37495 46.99988-18.37495 24.24994 0 38.4999 10.49997 14.37497 10.37498 20.62495 31.74992zM308.23151 474.07h-35.1249V341.32033h32.62491v18.87495q8.37498-13.37496 14.99996-17.62495 6.74999-4.25 15.24996-4.25 11.99997 0 23.12495 6.625l-10.87498 30.62492q-8.87497-5.74999-16.49995-5.74999-7.37499 0-12.49997 4.12499-5.125 3.99999-8.12498 14.62496-2.875 10.62498-2.875 44.4999zm142.83365-42.2499l34.99991 5.875q-6.74998 19.24994-21.37495 29.37492-14.49996 9.99997-36.3749 9.99997-34.62492 0-51.24988-22.62494-13.12497-18.12496-13.12497-45.74989 0-32.99991 17.24996-51.62487 17.24996-18.74995 43.6249-18.74995 29.62492 0 46.74988 19.62495 17.12495 19.49995 16.37495 59.87485h-87.99978q.375 15.62496 8.49998 24.37494 8.12498 8.62498 20.24995 8.62498 8.24998 0 13.87497-4.5 5.62498-4.49998 8.49998-14.49995zm2-35.4999q-.375-15.24997-7.87499-23.12495-7.49998-7.99998-18.24995-7.99998-11.49997 0-18.99996 8.37498-7.49998 8.37498-7.37498 22.74994z" fill="#231f20"/></svg>