<svg xmlns="http://www.w3.org/2000/svg" role="img" viewBox="3.28 64.28 193.18 73.18"><title>croit GmbH logo</title><path d="M107 70h1v1h-1zm9 0h1v1h-1zm-14 7h1v1h-1zm51 0h1v1h-1zm-55 2h1v1h-1zm29 0h1v1h-1zM27 80h3v1h-3zm3 0h1v1h-1zm5 1h1v1h-1zm157 2h1v5h-1zM91 87h1v1h-1zm14 1h1v1h-1zm87 0h1v1h-1zm-98 1h1v1h-1zm41 0h1v1h-1zM10 90h1v1h-1zm159 0h5v1h-5zm5 0h1v1h-1zm12 0h4v1h-4zm4 0h1v1h-1zM75 91h1v1h-1zm61 0h1v1h-1zM36 93h1v1h-1zM8 94h1v1H8zm130 4h1v1h-1zm-11 3h1v1h-1zm12 0h1v1h-1zm4 0h1v1h-1zm-16 1h1v1h-1zM7 106h1v1H7zm90 0h1v1h-1zm-77 3h1v1h-1zm29 1h1v1h-1zm-27 1h1v1h-1zm59 0h1v1h-1zm-47 1h1v1h-1zm14 0h1v1h-1zm75 0h1v1h-1zm19 0h1v1h-1zm-111 1h1v1h-1zm91 0h1v1h-1zm7 1h1v1h-1zm-118 1h1v1h-1zm121 0h1v1h-1zm-49 1h1v1h-1zm34 0h1v1h-1zm-5 1h1v1h-1zm-1 1h1v1h-1zm21 0h1v1h-1zm-117 1h1v1h-1zm109 0h1v1h-1zm-106 2h1v1h-1zm19 1h1v1h-1zm29 0h1v1h-1zm23 0h1v1h-1zm39 0h1v1h-1zm25 0h1v1h-1zm-119 1h1v1h-1zm74 5h1v1h-1zm3 1h1v1h-1zm11 3h1v1h-1zm-11 1h1v1h-1z" fill="#f9f9f9"/><path d="M111 70h1v1h-1zm1 0h1v1h-1zm16 7h1v1h-1zm-15 4h1v1h-1zm1 0h1v1h-1zm15 1h1v1h-1zM16 84h1v1h-1zm83 1h1v1h-1zm33 0h1v1h-1zM11 89h1v1h-1zm84 0h1v1h-1zm27 1h1v1h-1zm-98 1h1v1h-1zm49 0h1v1h-1zm50 0h1v1h-1zM21 93h1v1h-1zm28 4h1v1h-1zm78 2h1v1h-1zm11 1h1v1h-1zM7 104h1v1H7zm120 0h1v1h-1zm-47 1h1v1h-1zm63 2h1v1h-1zm-106 3h1v1h-1zm-14 2h1v1h-1zm-13 1h1v1h-1zm22 0h1v1h-1zm109 1h1v1h-1zm-96 2h1v1h-1zm82 0h1v1h-1zm-83 1h1v1h-1zm70 0h1v1h-1zm12 0h1v1h-1zm-83 1h1v1h-1zm96 0h1v1h-1zm-54 1h1v1h-1zm6 1h1v1h-1zm31 0h1v1h-1zm-18 1h1v1h-1zm16 0h1v1h-1zm-99 1h1v1h-1zm86 0h1v1h-1zm68 0h1v1h-1zm-150 1h1v1h-1zm96 1h1v1h-1zm-10 4h1v1h-1zm15 2h1v1h-1zm-5 2h1v1h-1zm-4 1h1v1h-1z" fill="#e1e1e1"/><path d="M154 70h1v5h-1zm0 5h1v1h-1zm-33 1h1v1h-1zm-14 1h1v1h-1zm-84 5h1v1h-1zm88 0h1v1h-1zm-91 1h1v1h-1zm85 0h1v1h-1zm-87 1h1v1h-1zm136 0h1v35h-1zm-89 3h1v1h-1zm-37 2h1v1h-1zm1 0h1v1h-1zm68 5h1v1h-1zm-89 7h1v2H8zm0 2h1v1H8zm84 2h1v1h-1zm41 2h1v1h-1zm-94 2h1v1h-1zm50 4h1v1h-1zm31 3h1v1h-1zm-35 1h1v1h-1zm4 0h1v1h-1zm-49 2h1v1h-1zm114 0h1v1h-1zm-67 1h1v1h-1zm45 0h1v1h-1zm-75 1h7v1h-7zm7 0h1v1h-1zm91 0h6v1h-6zm6 0h1v1h-1zm15 0h6v1h-6zm6 0h1v1h-1zm-150 1h1v1h-1zm98 0h1v1h-1zm-32 1h1v1h-1zm24 4h1v1h-1z" fill="#1a1a1a"/><path d="M118 75h1v1h-1zm37 1h7v1h-7zm7 0h1v1h-1zm-61 3h1v1h-1zm-2 1h1v1h-1zm9 0h1v1h-1zm7 0h1v1h-1zm4 1h1v1h-1zm-47 1h1v1h-1zm30 0h1v1h-1zm-1 3h1v1h-1zm10 0h1v1h-1zm15 0h1v1h-1zm2 2h1v1h-1zM27 89h1v1h-1zm3 0h1v1h-1zm97 0h1v1h-1zm57 0h1v1h-1zM72 90h1v1h-1zm62 0h1v1h-1zM11 91h1v1h-1zm84 0h1v1h-1zm-28 2h1v1h-1zm21 0h1v1h-1zm3 1h1v1h-1zm39 0h1v1h-1zm-37 1h1v1h-1zm34 0h1v1h-1zm-31 1h1v1h-1zm37 0h1v1h-1zm-68 3h1v1h-1zm27 0h1v1h-1zm3 1h1v1h-1zm-14 3h1v1h-1zm14 0h1v1h-1zm-3 1h1v1h-1zm47 1h1v1h-1zm-122 1h1v1h-1zm73 0h1v1h-1zm-81 2h1v1H9zm10 2h1v1h-1zm28 1h1v1h-1zm-26 1h1v1h-1zm14 1h1v1h-1zm93 0h1v1h-1zm-116 1h1v1h-1zm83 2h1v1h-1zm2 2h1v1h-1zm18 0h1v1h-1zm8 0h1v1h-1zm10 1h1v1h-1zm4 0h1v1h-1zm-99 1h1v1h-1zm78 1h1v1h-1zm-90 1h1v1h-1zm5 0h1v1h-1zm86 1h1v1h-1zm12 0h1v1h-1zm-29 1h1v1h-1zm14 5h1v1h-1zm1 3h1v1h-1z" fill="#101010"/><path d="M108 75h1v1h-1zm-6 3h1v1h-1zm89 6h1v3h-1zm0 3h1v1h-1zM46 90h1v1h-1zm129 0h1v1h-1zm-46 1h1v1h-1zm-63 5h1v1h-1zm-49 4h1v1h-1zm122 2h1v1h-1zm-6 3h1v1h-1zm-48 1h1v1h-1zm52 0h1v1h-1zm-1 4h1v1h-1zm-89 2h1v1h-1zm-20 2h1v1h-1zm105 0h1v1h-1zm-118 3h1v1h-1zm77 0h1v1h-1zm-49 1h1v1h-1zm-5 3h1v1h-1zm81 0h1v1h-1zm-84 1h1v1h-1zm75 1h1v1h-1zm13 8h1v1h-1z" fill="#5e5e5e"/><path d="M185 68h1v1h-1zm-64 3h1v1h-1zm5 2h1v1h-1zm-22 1h1v1h-1zm25 1h1v1h-1zM26 80h1v1h-1zm5 0h1v1h-1zm43 0h2v1h-2zm2 0h1v1h-1zm51 0h1v1h-1zm47 1h1v1h-1zM19 82h1v1h-1zm19 0h1v1h-1zm154 0h1v1h-1zM17 83h1v1h-1zm105 1h1v1h-1zm-2 5h1v1h-1zm72 0h1v1h-1zm-24 1h1v1h-1zm23 0h1v1h-1zM76 91h1v1h-1zm-8 3h1v1h-1zm30 1h1v1h-1zm-31 1h1v1h-1zM7 97h1v1H7zm131 0h1v1h-1zm-58 4h1v1h-1zm-62 3h1v1h-1zm108 3h1v1h-1zm17 2h1v1h-1zM9 112h1v1H9zm73 2h1v1h-1zm48 0h1v1h-1zm-34 1h1v1h-1zm23 0h1v1h-1zm-21 2h1v1h-1zm-14 1h1v1h-1zm-43 2h1v1h-1zm97 0h1v1h-1zm-118 2h1v1h-1zm89 0h2v1h-2zm2 0h1v1h-1zm74 0h1v1h-1zm-162 1h1v1h-1zm74 1h1v1h-1zm28 0h1v1h-1zm5 4h1v1h-1z" fill="#fcfcfc"/><path d="M184 70h1v11h-1zm-75 1h1v1h-1zm11 1h1v1h-1zm3 1h1v1h-1zm-17 4h1v1h-1zm19 1h1v1h-1zm-2 1h1v1h-1zm-13 1h1v1h-1zm3 0h1v1h-1zm-8 1h1v1h-1zm79 0h1v1h-1zm-76 1h1v1h-1zm-10 5h1v1h-1zm-1 1h1v1h-1zm-52 1h1v1h-1zm47 0h1v1h-1zm-68 1h1v1h-1zm160 0h1v30h-1zm-53 6h1v1h-1zm2 1h1v1h-1zm-43 7h1v1h-1zm38 0h1v1h-1zM8 105h1v1H8zm122 5h1v1h-1zm-38 1h1v1h-1zm-56 1h1v1h-1zm-25 1h1v1h-1zm123 1h1v1h-1zm-14 6h1v1h-1zm64 0h1v1h-1zm-119 1h1v1h-1zm30 0h1v1h-1zm59 0h1v1h-1zm-121 1h1v1h-1zm71 0h1v1h-1zm12 1h1v1h-1zm4 1h1v1h-1zm6 5h1v1h-1z" fill="#333"/><path d="M114 71h1v1h-1zm3 4h1v2h-1zm0 2h1v1h-1zm58 5h1v1h-1zM73 90h1v1h-1zm52 2h1v1h-1zM19 94h1v1h-1zm20 1h1v1h-1zM8 99h1v1H8zm82 0h1v1h-1zm47 0h1v1h-1zm0 5h1v1h-1zm-56 1h1v1h-1zm6 3h1v1h-1zm-64 5h1v1h-1zm9 1h1v1h-1zm104 0h1v1h-1zm4 0h1v1h-1zm-26 4h1v1h-1zm-21 1h1v1h-1zm1 1h1v1h-1zm6 0h1v1h-1zm17 1h1v1h-1zm17 2h1v1h-1zm-1 1h1v1h-1zm-23 3h1v1h-1zm3 0h1v1h-1z" fill="#2c2c2c"/><path d="M116 71h1v1h-1zM27 81h1v1h-1zm3 0h1v1h-1zm45 0h1v1h-1zm28 1h1v1h-1zm4 0h1v1h-1zm21 0h1v1h-1zm63 1h1v1h-1zM65 86h1v1h-1zm126 2h1v1h-1zm-56 3h1v1h-1zm-37 2h1v1h-1zM9 94h1v1H9zm77 6h1v1h-1zm46 1h1v1h-1zm0 1h1v1h-1zm-46 1h1v1h-1zm-69 1h1v1h-1zm-9 2h1v1H8zm88 0h1v1h-1zm-15 1h1v1h-1zm10 1h1v1h-1zm40 0h1v1h-1zm7 0h1v1h-1zm-51 1h1v1h-1zm10 0h1v1h-1zm35 0h1v1h-1zm-50 2h1v1h-1zm-48 2h1v1h-1zm60 1h1v1h-1zm23 3h1v1h-1zm-78 3h1v1h-1zm80 2h1v1h-1zm-20 2h1v1h-1zm2 1h1v1h-1zm30 1h1v1h-1zm-16 1h1v1h-1zm6 0h1v1h-1z" fill="#5b5b5b"/><path d="M124 73h1v1h-1zm-10 2h1v1h-1zm14 1h1v1h-1zm-1 5h1v1h-1zm42 1h1v1h-1zm-47 1h1v1h-1zM17 84h1v1h-1zm108 1h1v1h-1zm1 2h1v1h-1zm-94 3h1v1h-1zm104 3h1v1h-1zm-4 2h1v1h-1zm-41 1h1v1h-1zm1 0h1v1h-1zm40 3h1v1h-1zm1 1h1v1h-1zm-48 5h1v1h-1zm53 2h1v1h-1zm-99 1h1v1h-1zm87 1h1v1h-1zm-30 1h1v1h-1zm-2 1h1v1h-1zm-84 1h1v1h-1zm114 0h1v1h-1zm-2 2h1v1h-1zm13 1h1v1h-1zm-46 1h1v1h-1zm-4 2h1v1h-1zm48 0h1v1h-1zm4 2h1v1h-1zm-48 1h1v1h-1zm25 1h1v1h-1zm-3 1h1v1h-1zm1 0h1v1h-1zm8 0h1v1h-1zm-17 3h1v1h-1zm17 0h1v1h-1z" fill="#7d7d7d"/><path d="M162 69h1v1h-1zm-40 4h1v1h-1zm-14 4h1v1h-1zm7 0h1v1h-1zm-11 4h1v1h-1zm-71 1h1v1h-1zm67 1h1v1h-1zm11 0h1v1h-1zm-8 1h1v1h-1zm8 0h1v1h-1zm58 0h1v3h-1zm-63 2h1v1h-1zm-40 1h1v1h-1zm59 0h1v1h-1zm7 0h1v1h-1zm37 0h1v1h-1zm-67 1h1v1h-1zm24 0h1v1h-1zm3 0h1v1h-1zm-39 1h1v1h-1zm-56 1h1v1h-1zm12 1h1v1h-1zm85 0h1v1h-1zm-94 1h1v1h-1zm61 0h1v1h-1zm31 0h1v1h-1zM10 93h1v1h-1zm28 0h1v1h-1zm9 0h1v1h-1zm79 0h1v1h-1zm6 0h1v1h-1zM18 95h1v1h-1zm22 1h8v1h-8zm8 0h1v1h-1zm39 1h1v1h-1zm3 0h1v1h-1zm-25 1h1v1h-1zm63 0h1v1h-1zm-36 2h1v3h-1zm0 3h1v1h-1zm3 1h1v1h-1zm47 1h1v1h-1zm-11 1h1v1h-1zm-44 1h1v1h-1zm-39 1h1v1h-1zm88 0h1v1h-1zm-54 1h1v1h-1zm56 1h1v1h-1zm-3 1h1v1h-1zm-11 2h1v1h-1zm-91 1h1v1h-1zm54 0h1v1h-1zm36 0h1v1h-1zm10 0h1v1h-1zm-42 2h1v1h-1zm-75 2h1v1h-1zm82 1h1v1h-1zm21 1h1v1h-1zm-18 1h1v1h-1zm-74 1h1v1h-1zm1 0h2v1h-2zm2 0h1v1h-1zm73 0h1v1h-1zm3 1h1v1h-1zm9 6h1v1h-1zm8 1h1v1h-1zm-3 1h1v1h-1z" fill="#090909"/><path d="M163 69h1v6h-1zm-52 6h1v1h-1zm1 0h1v1h-1zm51 0h1v1h-1zm-53 1h1v1h-1zm3 0h1v1h-1zm6 0h1v1h-1zm0 1h1v1h-1zm3 0h1v1h-1zm-90 4h1v1h-1zm74 1h1v1h-1zm57 1h1v37h-1zm-54 3h1v1h-1zm16 0h1v1h-1zm1 0h1v1h-1zm-5 1h1v1h-1zm7 1h1v1h-1zm-26 1h1v1h-1zm89 0h1v1h-1zM23 91h1v1h-1zm48 0h1v1h-1zm28 1h1v1h-1zm-60 4h1v1h-1zm94 5h1v1h-1zm0 1h1v1h-1zm-37 3h1v1h-1zm-5 2h1v1h-1zm-4 5h1v1h-1zm6 0h1v1h-1zm30 1h1v1h-1zm12 0h1v1h-1zm-89 1h1v1h-1zm44 2h1v1h-1zm49 1h1v1h-1zm-41 1h1v1h-1zm-57 1h1v1h-1zm50 0h1v1h-1zm30 1h1v1h-1zm42 0h1v1h-1zm-48 2h1v1h-1zm10 8h1v1h-1z" fill="#8e8e8e"/><path d="M175 70h1v11h-1zm-68 1h1v1h-1zm-2 6h1v1h-1zm70 4h1v1h-1zm-70 6h1v1h-1zm-15 1h1v1h-1zm1 0h1v1h-1zm43 1h1v1h-1zm41 2h1v29h-1zm-89 13h1v1h-1zm6 3h1v1h-1zm35 0h1v1h-1zm-41 3h1v1h-1zm-41 5h1v1h-1zm-32 1h1v1h-1zm86 3h1v1h-1zm-9 1h1v1h-1zm85 0h1v1h-1z" fill="#636363"/><path d="M163 76h1v1h-1zm-39 3h1v1h-1zm-51 2h1v1h-1zm34 0h1v1h-1zm-71 1h1v1h-1zm34 0h1v1h-1zm-14 1h1v37h-1zm44 1h1v1h-1zm27 3h1v1h-1zm6 0h1v1h-1zm-40 6h1v1h-1zm-27 4h1v1h-1zm66 1h1v1h-1zm-47 6h1v1h-1zm58 0h1v1h-1zm-11 1h1v1h-1zm-46 1h1v1h-1zm6 2h1v1h-1zm5 0h1v1h-1zm-10 2h1v1h-1zm-31 10h1v1h-1zm31 1h1v1h-1zm40 8h1v1h-1z" fill="#959595"/><path d="M110 71h1v1h-1zm17 4h1v1h-1zm27 1h1v1h-1zm-40 4h1v1h-1zm7 2h1v1h-1zm-84 1h1v1h-1zm62 0h1v1h-1zm-31 1h1v1h-1zm-1 1h1v1h-1zm-52 1h1v1h-1zm27 0h1v1h-1zm91 2h1v1h-1zm-5 2h1v1h-1zM22 91h1v1h-1zm44 4h1v1h-1zm26 3h1v1h-1zm36 1h1v1h-1zm9 1h1v1h-1zm0 3h1v1h-1zm-6 4h1v1h-1zm-113 1h1v1h-1zm75 1h1v1h-1zm43 0h2v1h-2zm2 0h1v1h-1zm-56 1h1v1h-1zm4 1h2v1h-2zm2 0h1v1h-1zm49 1h1v1h-1zm-54 1h1v1h-1zm10 0h1v1h-1zm-3 2h1v1h-1zm49 1h1v1h-1zm-122 3h1v1h-1zm4 2h1v1h-1zm103 5h1v1h-1zm-12 1h1v1h-1zm9 4h1v1h-1zm-4 1h1v1h-1z" fill="#262626"/><g fill="#fff"><path d="M0 0h199v67H0zm199 0h1v199h-1zM0 67h199v1H0zm0 1h152v1H0zm152 0h1v131h-1zm12 0h10v13h-10zm10 0h1v12h-1zm12 0h13v13h-13zM0 69h152v1H0zm0 1h106v1H0zm106 0h1v1h-1zm11 0h35v1h-35zM0 71h103v5H0zm103 0h1v5h-1zm19 0h30v1h-30zm2 1h28v1h-28zm3 1h25v1h-25zm1 1h24v1h-24zm-24 1h1v1h-1zm26 0h22v7h-22zM0 76h104v1H0zm104 0h1v1h-1z"/><path d="M129 76h23v5h-23zM0 77h101v1H0zm101 0h1v1h-1zM0 78h99v1H0zm99 0h1v1h-1z"/><path d="M128 78h46v2h-46zM0 79h97v1H0zm97 0h1v1h-1zM0 80h25v1H0zm25 0h1v1h-1zm7 0h41v1H32zm41 0h1v1h-1zm4 0h19v6H77zm19 0h1v7h-1zm32 0h46v1h-46zm46 0h1v1h-1zM0 81h21v1H0zm21 0h1v1h-1zm15 0h34v1H36zm34 0h1v1h-1zm59 0h44v1h-44zm44 0h1v1h-1zm13 0h13v1h-13zM0 82h18v1H0zm18 0h1v1h-1zm21 0h16v1H39zm16 0h1v117h-1zm11 0h2v1h-2zm2 0h1v1h-1zm45 0h4v34h-4zm4 0h1v33h-1zm13 0h22v1h-22zm34 0h3v117h-3zm3 0h1v117h-1zm26 0h6v117h-6zM0 83h16v1H0zm16 0h1v1h-1zm24 0h15v1H40zm26 0h1v1h-1zm1 0h1v1h-1zm30 0h1v3h-1zm21 0h2v31h-2zm2 0h1v4h-1zm11 0h21v1h-21zM0 84h15v1H0zm15 0h1v1h-1zm27 0h13v1H42zm24 0h1v1h-1zm32 0h1v1h-1zm23 0h1v1h-1zm11 0h20v1h-20zM0 85h14v1H0zm14 0h1v1h-1zm29 0h12v1H43zm55 0h1v1h-1zm23 0h1v1h-1zm12 0h19v1h-19zM0 86h13v1H0zm13 0h1v1h-1zm31 0h11v1H44z"/><path d="M77 86h20v1H77zm20 0h1v1h-1zm37 0h18v1h-18zM0 87h12v1H0zm12 0h1v1h-1zm33 0h10v1H45zm32 0h12v2H77zm12 0h1v1h-1zm3 0h4v1h-4zm4 0h1v1h-1zm12 0h12v27h-12zm12 0h1v1h-1zm14 0h18v1h-18zM0 88h11v1H0zm11 0h1v1h-1zm35 0h9v1h-9zm47 0h2v1h-2zm2 0h1v1h-1z"/><path d="M106 88h13v27h-13zm29 0h17v1h-17zM0 89h10v2H0zm10 0h1v1h-1zm37 0h8v1h-8zm30 0h11v2H77zm11 0h1v1h-1z"/><path d="M104 89h15v26h-15zm32 0h16v1h-16zm-88 1h7v1h-7z"/><path d="M102 90h19v24h-19zm19 0h1v23h-1zm15 0h16v1h-16zm56 0h7v109h-7zM0 91h9v2H0zm9 0h1v1H9zm16 0h7v21h-7zm7 0h1v21h-1zm16 0h7v1h-7zm29 0h10v3H77zm10 0h1v1h-1z"/><path d="M101 91h21v22h-21zm21 0h1v21h-1zm15 0h15v2h-15zm31 0h6v108h-6zm6 0h1v108h-1zm12 0h13v108h-13zM23 92h11v19H23zm11 0h1v19h-1zm15 0h6v1h-6zm22 0h15v8H71z"/><path d="M100 92h23v20h-23zm23 0h1v19h-1zM0 93h8v3H0zm8 0h1v1H8zm14 0h13v17H22zm13 0h1v18h-1zm14 0h6v1h-6zm20 0h17v7H69zm55 0h1v17h-1zm13 0h15v1h-15z"/><path d="M21 94h15v16H21zm15 0h1v16h-1zm14 0h5v105h-5zm36 0h1v1h-1zm13 0h25v17H99zm39 0h14v2h-14z"/><path d="M20 95h17v13H20zm17 0h1v14h-1zm31 0h17v5H68zm57 0h1v14h-1zM0 96h7v103H0zm7 0h1v1H7zm31 0h1v12h-1zm60 0h27v12H98zm40 0h14v1h-14z"/><path d="M19 97h19v10H19zm48 0h18v3H67zm59 0h1v9h-1zm13 0h13v3h-13zM39 98h16v8H39zm58 0h29v7H97z"/><path d="M18 100h37v3H18zm49 0h18v1H67zm18 0h1v1h-1zm54 0h13v1h-13zm-72 1h12v98H67zm12 0h1v98h-1zm65 0h8v98h-8zm-126 2h37v1H18zm79 2h29v1H97zm-58 1h16v1H39zm87 0h1v1h-1zM7 107h1v92H7zm12 0h19v1H19zm61 0h1v92h-1zm-60 1h18v1H20zm18 0h1v1h-1zm60 0h27v2H98zm-61 1h1v1h-1zm88 0h1v1h-1zM8 110h1v89H8zm13 0h15v1H21zm15 0h1v1h-1zm62 0h26v1H98zm26 0h1v1h-1z"/><path d="M143 110h9v89h-9zm-120 1h12v1H23zm12 0h1v1h-1zm14 0h6v88h-6zm47 0h27v1H96zm27 0h1v1h-1zm-99 1h9v1h-9zm9 0h1v1h-1zm48 0h1v87h-1zm13 0h28v1H94zm28 0h1v1h-1zM9 113h1v86H9zm18 0h3v1h-3zm3 0h1v1h-1z"/><path d="M48 113h7v86h-7zm47 0h26v1H95zm26 0h1v1h-1zm21 0h10v86h-10zm-132 1h1v85h-1z"/><path d="M47 114h8v85h-8zm49 0h24v1H96zm24 0h1v1h-1zm-38 1h1v84h-1zm15 0h21v1H97zm21 0h1v1h-1zm11 0h2v5h-2zm2 0h1v4h-1zm10 0h11v84h-11zm-130 1h1v83h-1z"/><path d="M46 116h9v83h-9zm51 0h19v1H97zm19 0h1v1h-1zm12 0h5v1h-5zm5 0h1v1h-1zm-121 1h1v82h-1z"/><path d="M45 117h10v82H45zm38 0h1v82h-1zm16 0h12v1H99zm12 0h1v1h-1zm16 0h5v2h-5zm5 0h1v1h-1zm8 0h12v82h-12zm-127 1h1v81h-1z"/><path d="M44 118h11v81H44zm56 0h10v1h-10zm10 0h1v4h-1zm16 0h5v2h-5zm-112 1h1v80h-1z"/><path d="M43 119h12v80H43zm41 0h1v80h-1zm17 0h9v1h-9zm24 0h6v1h-6zm6 0h1v1h-1zm8 0h13v80h-13zm-124 1h1v79h-1zm1 0h1v79h-1z"/><path d="M42 120h13v79H42zm43 0h1v79h-1zm7 0h1v79h-1zm11 0h7v1h-7zm20 0h7v1h-7zm7 0h1v1h-1zm-113 1h1v78h-1z"/><path d="M40 121h15v78H40zm46 0h1v78h-1zm5 0h2v78h-2zm2 0h1v78h-1zm12 0h5v1h-5zm16 0h8v1h-8zm8 0h1v1h-1zm9 0h14v78h-14zm-120 1h1v77h-1zm1 0h1v77h-1z"/><path d="M38 122h17v77H38zm52 0h4v77h-4zm4 0h1v77h-1zm27 0h6v1h-6zm6 0h1v1h-1zm10 0h15v77h-15zm-117 1h2v76h-2zm2 0h1v76h-1z"/><path d="M35 123h60v76H35zm60 0h1v76h-1zm26 0h5v1h-5zm5 0h1v1h-1zm10 0h63v76h-63z"/><path d="M23 124h73v75H23zm73 0h1v75h-1zm26 0h2v1h-2zm2 0h1v1h-1zm11 0h64v75h-64zm-38 1h1v74h-1zm1 0h1v74h-1zm24 0h1v1h-1zm1 0h1v1h-1z"/><path d="M134 125h65v74h-65zm-35 1h1v73h-1zm1 0h1v73h-1z"/><path d="M133 126h66v73h-66zm-32 1h2v72h-2zm2 0h1v72h-1z"/><path d="M132 127h67v72h-67zm-28 1h3v71h-3zm3 0h1v71h-1z"/><path d="M131 128h68v71h-68zm-23 1h2v70h-2zm2 0h1v70h-1z"/><path d="M129 129h70v70h-70z"/><path d="M127 130h72v69h-72z"/><path d="M125 131h74v68h-74z"/><path d="M123 132h76v67h-76z"/><path d="M119 133h80v66h-80z"/><path d="M111 134h88v65h-88zM0 199h199v1H0zm199 0h1v1h-1z"/></g><path d="M163 68h1v1h-1zm-10 1h1v7h-1zm-26 5h1v1h-1zm26 2h1v1h-1zm-50 1h1v1h-1zm-6 3h1v1h-1zm-63 1h1v1h-1zm78 0h1v1h-1zm-75 1h1v1h-1zm131 0h1v1h-1zm-47 1h1v1h-1zm9 0h1v1h-1zm23 0h1v38h-1zm-22 1h1v1h-1zm-39 4h1v1h-1zm-46 1h1v1h-1zm-18 1h1v1h-1zm-8 4h1v1h-1zM8 95h1v1H8zm30 0h1v1h-1zm29 0h1v1h-1zm-49 3h1v1h-1zm-11 2h1v1H7zm131 1h1v1h-1zm-58 1h1v2h-1zm0 2h1v1h-1zm-31 3h1v2h-1zm48 0h1v1h-1zm-78 1h1v1h-1zm30 1h1v1h-1zm32 1h1v1h-1zm16 0h1v1h-1zm-88 1h1v1H9zm27 0h1v1h-1zm106 0h1v1h-1zm-60 2h1v1h-1zm58 3h1v1h-1zm-40 3h1v1h-1zm-83 1h1v1h-1zm49 1h1v1h-1zm87 0h1v1h-1zm-88 1h1v1h-1zm30 0h1v1h-1zm41 0h1v1h-1zm18 0h1v1h-1zm30 0h1v1h-1zm-152 1h1v1h-1zm92 2h1v1h-1zm8 1h1v1h-1z" fill="#d6d6d6"/><path d="M175 69h1v1h-1zm-60 6h1v1h-1zm-17 5h1v1h-1zm-72 1h1v1h-1zm80 0h1v1h-1zm-87 2h1v1h-1zm46 0h1v1h-1zm43 3h1v1h-1zm24 0h1v1h-1zm-3 3h1v1h-1zM11 90h1v1h-1zm82 1h1v1h-1zm-55 3h1v1h-1zm48 5h1v1h-1zm46 1h1v1h-1zm0 3h1v1h-1zm-84 7h1v1h-1zm89 1h1v1h-1zm-107 3h1v1h-1zm59 0h1v1h-1zm-5 2h1v1h-1zm-66 4h1v1h-1zm95 2h1v1h-1zm1 1h1v1h-1z" fill="#676767"/><path d="M184 69h1v1h-1zm-79 4h1v1h-1zm18 4h1v1h-1zm-11 3h1v1h-1zm-41 2h1v1h-1zm36 4h1v1h-1zm-95 3h1v1h-1zm77 1h1v1h-1zm41 0h1v1h-1zm-60 1h1v1h-1zm66 3h1v1h-1zm-8 6h1v1h-1zm-111 5h1v1h-1zm68 2h1v1h-1zm57 1h1v1h-1zM9 109h1v1H9zm120 3h1v1h-1zm6 0h1v1h-1zm-43 6h1v1h-1zm20 1h1v2h-1zm10 0h1v1h-1zm-10 2h1v1h-1zm-88 1h1v1h-1zm111 0h1v1h-1zm-31 4h1v1h-1zm15 0h1v1h-1zm-10 1h1v1h-1zm5 0h1v1h-1zm-2 3h1v1h-1zm12 0h1v1h-1zm-12 1h1v1h-1z" fill="#393939"/><path d="M105 71h1v1h-1zm17 1h1v1h-1zm-89 9h1v1h-1zm75 0h1v1h-1zm-43 1h1v1h-1zm34 2h1v1h-1zm-56 2h1v1h-1zm67 0h1v1h-1zm-97 1h1v1h-1zm13 3h1v1h-1zm5 0h1v1h-1zm-21 1h1v1h-1zm81 7h1v1h-1zm0 7h1v1h-1zm-51 2h1v1h-1zm46 0h1v1h-1zm46 0h1v1h-1zm-46 1h1v1h-1zm7 3h1v1h-1zm-58 1h1v1h-1zm95 0h1v1h-1zm4 3h1v1h-1zm-44 2h1v1h-1zm16 5h1v1h-1zm-79 1h1v1h-1zm94 2h1v1h-1z" fill="#b1b1b1"/><path d="M154 68h1v1h-1zm-46 8h1v1h-1zm7 0h1v1h-1zm1 5h1v1h-1zm-11 1h1v1h-1zm86 0h1v1h-1zm-89 1h1v1h-1zm-58 4h1v1h-1zm57 3h1v1h-1zm28 0h1v1h-1zm-95 1h1v1h-1zm13 0h1v1h-1zm53 0h1v1h-1zM9 93h1v1H9zm83 1h1v1h-1zm0 1h1v1h-1zm40 1h1v1h-1zm-46 1h1v1h-1zm5 7h1v1h-1zm5 0h1v1h-1zm47 1h1v1h-1zm-102 2h7v1h-7zm7 0h1v1h-1zm89 1h1v1h-1zm-45 1h1v1h-1zm-59 4h1v1h-1zm96 0h1v1h-1zm-118 1h1v1h-1zm122 1h1v1h-1zm-10 4h1v1h-1zm8 1h1v1h-1zm-1 1h1v1h-1zm-102 2h2v1h-2zm2 0h1v1h-1zm85 5h1v1h-1zm8 3h1v1h-1zm-3 1h1v1h-1zm-8 1h1v1h-1z" fill="#acacac"/><path d="M117 71h1v1h-1zm9 3h1v1h-1zm-17 1h1v1h-1zm8 6h1v1h-1zm-60 1h7v1h-7zm7 0h1v1h-1zm56 0h1v1h-1zm35 0h7v1h-7zm7 0h1v1h-1zm8 0h4v1h-4zm4 0h1v1h-1zm12 0h4v1h-4zm4 0h1v1h-1zm-90 3h1v1h-1zm-75 5h1v1h-1zm11 2h1v1h-1zm31 2h1v1h-1zm20 0h1v1h-1zm9 4h1v1h-1zm-79 3h1v1h-1zm0 1h1v1h-1zm115 2h1v1h-1zm1 0h1v1h-1zm-47 1h1v1h-1zm-68 2h1v1h-1zm113 4h1v1h-1zm-109 1h1v1h-1zm7 2h1v1h-1zm-17 1h1v1h-1zm107 1h1v1h-1zm-7 2h1v1h-1zm63 3h1v1h-1zm-47 2h1v1h-1zm-3 2h1v1h-1zm-2 1h1v1h-1zm-7 1h1v1h-1zm1 1h1v1h-1zm2 4h1v1h-1z" fill="#787878"/><path d="M106 71h1v1h-1zm4 4h1v1h-1zm3 0h1v1h-1zm-2 1h1v1h-1zm1 0h1v1h-1zm-87 5h1v1h-1zm-4 1h1v1h-1zm133 0h1v1h-1zM40 84h1v1h-1zm87 4h1v1h-1zm-58 4h1v1h-1zm-32 1h1v1h-1zm90 4h1v1h-1zm-41 1h1v1h-1zm47 5h1v1h-1zm10 0h1v1h-1zM8 107h1v1H8zm129 0h1v1h-1zm-56 1h1v1h-1zm-72 2h1v1H9zm83 0h1v1h-1zm38 1h1v1h-1zm-106 2h1v1h-1zm112 0h1v1h-1zm-41 2h1v1h-1zm45 0h1v1h-1zm-28 7h1v1h-1zm6 0h1v1h-1zm-21 1h1v1h-1zm33 4h1v1h-1z" fill="#868686"/><path d="M108 71h1v1h-1zm-1 4h1v1h-1zm18 5h1v1h-1zm-7 1h1v1h-1zm-49 2h1v1h-1zm60 0h1v1h-1zM16 85h1v1h-1zm83 1h1v1h-1zm22 2h1v1h-1zm-25 1h1v1h-1zm-21 1h1v1h-1zm-40 1h1v1h-1zm89 0h1v1h-1zM10 92h1v1h-1zm11 0h1v1h-1zm67 0h1v1h-1zm5 2h1v1h-1zm-6 1h1v1h-1zm40 1h1v1h-1zM8 98h1v1H8zm9 1h1v1h-1zm111 2h1v2h-1zm-44 1h1v1h-1zm6 1h1v1h-1zm38 0h1v1h-1zm5 3h1v1h-1zm-46 7h1v1h-1zm15 8h1v1h-1zm6 2h1v1h-1zm19 1h1v1h-1z" fill="#424242"/><path d="M119 72h1v1h-1zm-3 5h1v1h-1zm4 1h1v1h-1zm6 0h1v1h-1zm0 3h1v1h-1zm-16 1h1v1h-1zm74 0h1v1h-1zm-30 1h1v1h-1zm-30 3h1v1h-1zm3 0h1v1h-1zm-23 1h1v1h-1zm-3 2h1v1h-1zm-2 2h1v1h-1zm-31 1h1v1h-1zm67 0h1v1h-1zm-87 3h1v1h-1zm88 0h1v1h-1zm-49 1h1v1h-1zm44 1h1v1h-1zm-66 3h1v20h-1zm30 1h1v1h-1zm0 1h1v1h-1zm44 2h1v1h-1zm-11 1h1v1h-1zm14 1h1v1h-1zm-122 5h1v1h-1zm5 3h1v1h-1zm59 1h1v1h-1zm12 2h1v1h-1zm-77 3h1v1h-1zm46 0h1v1h-1zm89 0h1v1h-1zm-66 1h1v1h-1zm95 0h1v1h-1zm-81 4h1v1h-1zm24 0h1v1h-1zm-21 1h1v1h-1zm13 0h1v1h-1zm11 1h1v1h-1zm-16 2h1v1h-1zm3 3h1v1h-1z" fill="#161616"/><path d="M175 68h1v1h-1zm-56 3h1v1h-1zm-13 5h1v1h-1zm15 1h1v1h-1zm4 2h1v1h-1zm-10 2h1v1h-1zm-59 1h1v1h-1zm56 0h1v1h-1zm7 0h1v1h-1zM18 83h1v1h-1zm-3 2h1v1h-1zm27 0h1v1h-1zm70 0h1v1h-1zm10 0h1v1h-1zm-25 2h1v1h-1zm-70 3h1v1h-1zm3 0h1v1h-1zm64 0h1v1h-1zm-22 1h1v1h-1zm-50 1h1v1h-1zm114 0h1v1h-1zm-38 2h1v1h-1zm39 1h1v1h-1zm-41 6h1v1h-1zm0 1h1v1h-1zm-78 4h1v1h-1zm125 0h1v1h-1zm-18 4h1v1h-1zm-78 3h1v1h-1zm36 2h1v1h-1zm37 0h1v1h-1zm14 1h1v1h-1zm-50 1h1v1h-1zm8 2h1v1h-1zm-52 1h1v1h-1zm-21 1h1v1h-1zm75 0h1v1h-1zm-6 1h1v1h-1zm47 1h1v1h-1zm-37 1h1v1h-1zm36 0h1v1h-1zm-1 1h1v1h-1zm-31 1h1v1h-1zm19 0h1v1h-1zm-16 1h1v1h-1zm14 0h1v1h-1zm-7 1h1v1h-1zm1 0h1v1h-1z" fill="#c7c7c7"/><path d="M184 68h1v1h-1zm-77 8h1v1h-1zm9 0h2v1h-2zm2 0h1v1h-1zm2 1h1v1h-1zm-19 1h1v1h-1zm26 0h1v1h-1zm-28 1h1v1h-1zm27 0h1v1h-1zm0 1h1v1h-1zm42 3h1v5h-1zM67 84h1v1h-1zm56 0h1v1h-1zM14 86h1v1h-1zm92 1h1v1h-1zm62 1h1v1h-1zm-33 2h1v1h-1zm-42 2h1v1h-1zm33 3h1v1h-1zm-60 3h1v1h-1zm25 1h1v1h-1zm5 1h1v1h-1zm-11 2h1v1h-1zm53 3h1v1h-1zM8 108h1v1H8zm73 1h1v1h-1zm50 1h1v1h-1zm-43 3h1v1h-1zm42 0h1v1h-1zm-41 2h1v1h-1zm2 3h1v1h-1zm47 1h1v1h-1zm-52 1h1v1h-1zm-48 1h1v1h-1zm62 4h1v1h-1zm18 2h1v1h-1zm-3 6h1v1h-1z" fill="#b7b7b7"/><path d="M154 69h1v1h-1zm-43 2h2v1h-2zm2 0h1v1h-1zm-8 1h1v1h-1zm20 2h1v1h-1zm-19 1h1v1h-1zm-3 3h1v1h-1zm6 2h1v2h-1zm-75 2h1v1h-1zm75 0h1v1h-1zm14 1h1v1h-1zm-84 1h1v1h-1zm-25 3h1v1h-1zm29 0h1v1h-1zm-30 1h1v1h-1zm31 0h1v1h-1zm131 1h1v1h-1zm-82 1h1v1h-1zm7 0h1v1h-1zm-8 2h1v1h-1zM9 95h1v1H9zm8 3h1v1h-1zm73 0h1v1h-1zm-82 2h1v1H8zm129 1h1v1h-1zm0 1h1v1h-1zm2 1h1v1h-1zM8 104h1v1H8zm73 0h1v1h-1zm9 1h1v1h-1zm6 2h1v1h-1zm46 0h1v1h-1zm-57 1h1v1h-1zm42 0h1v1h-1zm-79 1h1v1h-1zm43 0h1v1h-1zm4 1h1v1h-1zm31 0h1v1h-1zm6 0h1v1h-1zm-122 1h1v1h-1zm131 0h1v1h-1zm-10 1h1v1h-1zm-85 1h1v1h-1zm85 0h1v1h-1zm4 3h1v1h-1zm-17 1h1v1h-1zm-82 4h1v1h-1zm95 0h1v1h-1zm31 0h1v1h-1zm-137 1h1v1h-1zm82 1h1v1h-1zm4 4h1v1h-1zm8 1h1v1h-1z" fill="#202020"/><path d="M155 69h6v1h-6zm6 0h1v1h-1zm15 0h7v1h-7zm7 0h1v1h-1zm-65 3h1v1h-1zm6 5h1v1h-1zm-20 1h1v1h-1zm18 1h1v1h-1zm-15 1h1v1h-1zm9 0h1v1h-1zm8 0h1v1h-1zm-26 1h1v1h-1zm-74 1h1v1h-1zm103 0h1v1h-1zm-57 1h1v1h-1zm99 0h1v1h-1zm-44 1h1v1h-1zm-85 1h1v1h-1zm70 0h1v1h-1zm12 2h1v1h-1zm47 1h1v1h-1zM26 89h1v1h-1zm5 0h1v1h-1zm-8 1h1v1h-1zm13 1h1v1h-1zm33 0h1v1h-1zm20 0h1v1h-1zm5 2h1v1h-1zM9 96h1v1H9zm8 1h1v1h-1zm48 0h1v1h-1zm30 2h1v1h-1zm-8 7h1v1h-1zm41 0h1v1h-1zm11 0h1v1h-1zm-99 2h7v1h-7zm7 0h1v1h-1zm46 0h1v1h-1zm3 0h1v1h-1zm37 0h1v1h-1zm-48 1h1v1h-1zm45 0h1v1h-1zm-42 1h1v1h-1zm53 0h1v1h-1zm-58 2h1v1h-1zm3 0h1v1h-1zm6 0h1v1h-1zm33 0h1v1h-1zm15 1h1v1h-1zm-95 1h1v1h-1zm-32 1h1v1h-1zm81 0h1v1h-1zm28 0h1v1h-1zm-34 1h1v1h-1zm-47 2h1v1h-1zm75 0h1v1h-1zm18 0h1v1h-1zm-45 2h1v1h-1zm-67 1h1v1h-1zm75 1h1v1h-1zm23 3h1v1h-1zm10 1h1v1h-1zm-10 2h1v1h-1zm7 0h1v1h-1zm-11 1h1v1h-1zm-2 3h1v1h-1z" fill="#040404"/><path d="M109 70h1v1h-1zm1 0h1v1h-1zm3 0h1v1h-1zm1 0h1v1h-1zm-10 1h1v2h-1zm16 0h1v1h-1zm3 1h1v1h-1zm-19 1h1v1h-1zm1 3h1v1h-1zm58 1h1v1h-1zm-92 4h1v1h-1zm57 0h1v1h-1zm-59 1h1v1h-1zm28 0h1v1h-1zm56 0h1v1h-1zM41 84h1v1h-1zm80 2h1v1h-1zm-31 1h1v1h-1zm17 0h1v1h-1zm13 1h1v1h-1zm-32 2h1v1h-1zm97 0h1v1h-1zM33 91h1v1h-1zm41 0h1v1h-1zM9 92h1v1H9zm26 0h1v1h-1zm13 0h1v1h-1zm22 0h1v1h-1zm17 0h1v1h-1zm50 2h1v1h-1zm-51 1h1v1h-1zm11 2h1v1h-1zM7 99h1v1H7zm131 0h1v1h-1zm-11 1h1v1h-1zm-109 5h1v1h-1zm21 2h1v1h-1zm-31 2h1v1H8zm116 2h1v1h-1zm-98 2h1v1h-1zm95 1h1v1h-1zm7 1h1v1h-1zm-116 1h1v1h-1zm1 1h1v1h-1zm100 0h1v1h-1zm20 0h1v1h-1zm-119 1h1v1h-1zm111 0h1v1h-1zm-23 2h1v1h-1zm35 1h1v1h-1zm-81 1h1v1h-1zm52 0h1v1h-1zm55 0h1v1h-1zm-130 1h1v1h-1zm63 0h1v1h-1zm31 0h1v1h-1zm-23 4h1v1h-1zm27 0h1v1h-1zm-22 1h1v1h-1zm1 0h1v1h-1zm18 1h1v1h-1zm-4 2h1v1h-1z" fill="#ededed"/><path d="M121 72h1v1h-1zm-16 2h1v1h-1zm-74 7h1v1h-1zm43 0h1v1h-1zm2 1h1v7h-1zm109 0h1v1h-1zM38 83h1v1h-1zm27 1h1v1h-1zm0 1h1v1h-1zm11 4h1v1h-1zm19 1h1v1h-1zm-3 3h1v1h-1zm5 2h1v1h-1zm34 0h1v1h-1zM8 97h1v1H8zm129 0h1v1h-1zm-4 2h1v1h-1zm-116 4h1v1h-1zm2 6h1v1h-1zm123 0h1v1h-1zm-49 1h1v1h-1zm-5 2h1v1h-1zm-60 2h1v1h-1zm55 0h1v1h-1zm45 0h1v1h-1zm-113 4h1v1h-1zm109 0h1v1h-1zm-104 3h1v1h-1zm3 1h1v1h-1zm82 0h1v1h-1zm5 1h1v1h-1zm3 0h1v1h-1zm-6 4h1v1h-1z" fill="#707070"/><path d="M125 73h1v1h-1zm29 4h8v1h-8zm8 0h1v1h-1zM23 81h1v1h-1zm-3 1h1v1h-1zm19 1h1v1h-1zm59 0h1v1h-1zm-32 2h1v1h-1zm32 1h1v1h-1zm-2 2h1v1h-1zm38 0h1v1h-1zm34 1h1v1h-1zM29 90h1v1h-1zm95 2h1v1h-1zm-75 3h1v1h-1zm37 1h1v1h-1zm-20 3h1v21h-1zm-59 2h1v2H7zm0 2h1v1H7zm120 2h1v1h-1zm-1 3h1v1h-1zm-31 3h1v1h-1zm-70 2h1v1h-1zm69 0h1v1h-1zm37 1h1v1h-1zm-13 2h1v1h-1zm-3 1h1v1h-1zm-49 3h1v1h-1zm-30 2h1v1h-1zm21 0h7v1h-7zm7 0h1v1h-1zm56 0h1v1h-1zm35 0h7v1h-7zm7 0h1v1h-1zm14 0h7v1h-7zm7 0h1v1h-1zm-61 4h1v1h-1zm-6 7h1v1h-1z" fill="#d2d2d2"/><path d="M116 75h1v1h-1zm5 3h1v1h-1zm-86 4h1v1h-1zm67 2h1v1h-1zm-61 1h1v1h-1zm90 0h1v1h-1zm39 4h4v1h-4zm4 0h1v1h-1zm11 0h5v1h-5zm5 0h1v1h-1zM20 93h1v1h-1zm110 0h1v1h-1zM18 96h1v1h-1zm74 1h1v1h-1zm45 1h1v1h-1zm-47 3h1v1h-1zm-9 1h1v1h-1zm9 0h1v1h-1zm-53 9h1v1h-1zm7 5h1v1h-1zm82 0h1v1h-1zm-83 1h1v1h-1zm91 0h1v1h-1zm50 4h1v1h-1zm-66 7h1v1h-1zm10 0h1v1h-1zm-10 4h1v1h-1z" fill="#4b4b4b"/><path d="M153 68h1v1h-1zm32 1h1v12h-1zm-77 1h1v1h-1zm7 0h1v1h-1zm-15 8h1v1h-1zm-78 3h1v1h-1zm163 0h1v1h-1zm-67 1h1v1h-1zm-6 4h1v1h-1zm21 0h1v1h-1zm-44 2h1v1h-1zm14 1h1v1h-1zm-56 1h1v1h-1zm138 1h1v30h-1zm-86 2h1v1h-1zm-62 1h1v1h-1zm12 0h1v1h-1zm76 0h1v1h-1zM19 96h1v1h-1zm107 0h1v1h-1zm-87 1h1v1h-1zM7 98h1v1H7zm11 1h1v1h-1zm63 2h4v1h-4zm4 0h1v1h-1zm55 0h2v1h-2zm2 0h1v1h-1zm-15 2h1v1h-1zM7 105h1v1H7zm73 1h1v1h-1zm63 2h1v1h-1zm-48 6h1v1h-1zm-49 1h1v1h-1zm53 3h1v1h-1zm-57 1h1v1h-1zm69 0h1v2h-1zm-72 2h1v1h-1zm51 0h1v1h-1zm21 0h1v1h-1zm74 0h1v1h-1zm-98 1h1v1h-1zm-63 1h1v1h-1zm75 2h1v1h-1zm2 1h1v1h-1zm10 4h1v2h-1zm0 2h1v1h-1zm7 1h1v1h-1z" fill="#f3f3f3"/><path d="M155 68h7v1h-7zm7 0h1v1h-1zm14 0h7v1h-7zm7 0h1v1h-1zm-78 7h1v1h-1zm-81 6h1v1h-1zm86 0h1v1h-1zm1 0h1v1h-1zm-7 1h1v1h-1zm-1 1h1v1h-1zm-2 1h1v1h-1zm-12 5h1v1h-1zm4 0h1v1h-1zm1 2h1v1h-1zm36 1h1v1h-1zm-82 1h1v1h-1zm77 0h1v1h-1zm6 0h1v1h-1zm0 1h1v1h-1zM19 95h1v1h-1zM8 96h1v1H8zm124 1h1v1h-1zm-41 3h1v1h-1zm52 2h1v1h-1zm-52 1h1v1h-1zm0 3h1v1h-1zm36 0h1v1h-1zm5 0h1v1h-1zm5 4h1v1h-1zm5 0h1v1h-1zm-6 1h1v1h-1zm-39 6h1v1h-1zm-41 4h1v1h-1zm47 0h1v1h-1zm-81 1h1v1h-1zm95 0h1v1h-1zm3 5h1v1h-1zm-6 6h1v1h-1z" fill="#a4a4a4"/><path d="M118 71h1v1h-1zm10 4h1v1h-1zm-19 1h1v1h-1zm5 0h1v1h-1zm-10 1h1v1h-1zm18 1h2v1h-2zm2 0h1v1h-1zm-48 3h1v1h-1zm21 0h1v1h-1zm27 4h1v1h-1zm4 4h1v1h-1zm-52 1h1v1h-1zm12 1h1v1h-1zm42 0h1v1h-1zm-62 2h1v1h-1zm-19 3h1v1h-1zm88 0h1v1h-1zM18 97h1v1h-1zm73 0h1v1h-1zm5 2h1v1h-1zm-5 2h1v1h-1zm0 1h1v1h-1zm-6 1h1v1h-1zm53 3h1v1h-1zm-6 2h1v1h-1zm-46 1h1v1h-1zm45 0h1v1h-1zm-111 1h1v1h-1zm1 1h1v1h-1zm61 1h1v1h-1zm59 1h1v1h-1zm-53 1h1v1h-1zm8 2h1v1h-1zm20 1h1v1h-1zm-100 2h1v1h-1zm116 0h1v1h-1zm-31 1h1v1h-1zm18 1h1v1h-1zm44 0h1v1h-1zm-128 1h1v1h-1zm81 0h1v1h-1zm13 0h1v1h-1zm-23 5h1v1h-1zm11 0h1v1h-1zm-1 1h1v1h-1zm-3 5h1v1h-1z" fill="#9b9b9b"/><path d="M72 81h1v1h-1zm91 1h1v1h-1zm-95 1h1v1h-1zm44 0h1v1h-1zm0 1h1v1h-1zm-1 2h1v1h-1zm-99 2h1v1h-1zm33 0h1v1h-1zm59 0h1v1h-1zm17 1h1v1h-1zm-34 4h1v1h-1zm10 3h1v1h-1zm-57 1h8v1h-8zm8 0h1v1h-1zm79 1h1v1h-1zm11 4h1v2h-1zm-42 1h1v1h-1zm42 1h1v1h-1zm-100 5h1v1h-1zm10 2h1v1h-1zm88 1h1v1h-1zm-1 2h1v1h-1zm-42 6h1v1h-1zm-67 3h1v1h-1zm5 0h1v1h-1zm95 1h1v1h-1zm-12 4h1v1h-1zm15 0h1v1h-1z" fill="silver"/><path d="M155 70h7v5h-7zm7 0h1v5h-1zm14 0h7v50h-7zm7 0h1v50h-1zm-77 2h11v2h-11zm11 0h1v2h-1zm1 1h3v1h-3zm3 0h1v2h-1z"/><path d="M106 74h18v1h-18zm18 0h1v2h-1z"/><path d="M119 75h7v1h-7zm7 0h1v2h-1zm29 0h7v1h-7zm7 0h1v1h-1z"/><path d="M122 76h5v1h-5zm5 0h1v1h-1zm-18 1h5v2h-5zm5 0h1v2h-1zm11 0h1v1h-1zm1 0h1v1h-1z"/><path d="M105 78h14v1h-14zm14 0h1v2h-1z"/><path d="M102 79h19v1h-19zm19 0h1v2h-1zm-21 1h6v1h-6zm6 0h1v1h-1z"/><path d="M117 80h6v1h-6zm6 0h1v2h-1zm-24 1h4v1h-4zm4 0h1v1h-1z"/><path d="M120 81h5v1h-5zm5 0h1v2h-1zM25 82h7v6h-7zm7 0h1v7h-1zm41 0h2v7h-2zm2 0h1v7h-1zm24 0h2v1h-2zm2 0h1v1h-1z"/><path d="M122 82h4v1h-4zm4 0h1v2h-1zM21 83h15v5H21zm15 0h1v7h-1zm21 0h7v37h-7zm7 0h1v37h-1zm7 0h4v6h-4zm35 0h4v2h-4zm4 0h1v1h-1z"/><path d="M124 83h4v1h-4zm4 0h1v3h-1zm27 0h7v37h-7zm7 0h1v37h-1zm8 0h20v5h-20zm20 0h1v5h-1zM19 84h19v4H19zm19 0h1v8h-1zm31 0h6v5h-6zm35 0h6v1h-6zm6 0h1v1h-1z"/><path d="M126 84h3v1h-3zm3 0h1v3h-1zM17 85h22v3H17zm22 0h1v9h-1zm29 0h7v4h-7zm34 0h7v1h-7zm7 0h1v1h-1z"/><path d="M127 85h3v1h-3zm3 0h1v4h-1zM16 86h25v2H16zm25 0h1v9h-1zm26 0h8v3h-8zm33 0h5v1h-5zm5 0h1v1h-1zm18 0h1v3h-1z"/><path d="M128 86h3v1h-3zm3 0h1v4h-1zM15 87h27v1H15zm27 0h1v8h-1zm57 0h4v1h-4zm4 0h1v1h-1zm21 0h1v3h-1zm5 0h2v1h-2z"/><path d="M14 88h29v1H14zm29 0h1v7h-1zm22 0h10v1H65zm33 0h3v1h-3zm3 0h1v1h-1zm21 0h3v1h-3zm3 0h1v3h-1zm7 0h1v4h-1zm38 0h20v1h-20zm20 0h1v1h-1zM13 89h12v1H13zm12 0h1v1h-1z"/><path d="M32 89h12v1H32zm12 0h1v6h-1zm21 0h10v1H65zm10 0h1v1h-1zm16 0h1v4h-1zm6 0h3v1h-3zm3 0h1v1h-1zm23 0h3v1h-3zm3 0h1v3h-1zm4 0h3v1h-3zm3 0h1v6h-1zM12 90h10v1H12zm10 0h1v1h-1z"/><path d="M35 90h10v1H35zm10 0h1v5h-1zm20 0h6v1h-6zm6 0h1v1h-1zm19 0h2v3h-2zm2 0h1v1h-1zm4 0h3v1h-3zm3 0h1v1h-1zm25 0h3v1h-3zm3 0h1v4h-1zm4 0h2v1h-2zM12 91h9v1h-9zm9 0h1v1h-1zm16 0h8v1h-8zm28 0h3v1h-3zm3 0h1v1h-1zm24 0h1v1h-1zm4 0h2v2h-2zm2 0h1v1h-1z"/><path d="M125 91h3v1h-3zm3 0h1v6h-1zm6 0h1v10h-1zM11 92h9v1h-9zm9 0h1v1h-1zm18 0h8v1h-8zm8 0h1v3h-1zm19 0h2v2h-2zm2 0h1v1h-1zm22 0h2v4h-2zm6 0h2v3h-2zm31 0h2v1h-2zm6 0h2v1h-2zM11 93h8v1h-8zm8 0h1v1h-1zm21 0h6v2h-6zm51 0h1v1h-1zm6 0h1v1h-1zm32 0h1v18h-1zm6 0h1v17h-1zM10 94h8v2h-8zm8 0h1v1h-1z"/><path d="M39 94h8v1h-8zm8 0h1v1h-1zm18 0h1v2h-1zm1 0h1v1h-1zm22 0h2v15h-2zm6 0h2v4h-2zm33 0h2v1h-2zm-87 1h7v1h-7zm7 0h1v1h-1zm49 0h1v1h-1zm34 0h1v13h-1zm3 0h2v1h-2zM10 96h7v14h-7zm7 0h1v1h-1zm48 0h1v1h-1zm25 0h1v1h-1z"/><path d="M93 96h2v11h-2zm43 0h1v11h-1zM9 97h7v10H9zm119 0h2v1h-2zm-41 1h2v7h-2zm8 0h1v1h-1zm36 0h1v7h-1zm3 3h2v9h-2zm-52 2h2v5h-2zm2 0h1v11h-1zm56 0h2v6h-2zm2 0h1v1h-1zm0 1h1v1h-1zm-55 1h2v1h-2zm8 0h1v4h-1zm36 0h1v1h-1zM9 107h8v1H9zm8 0h1v11h-1zm73 0h1v7h-1zm3 0h2v1h-2zm35 0h2v4h-2zm8 0h1v1h-1z"/><path d="M139 107h2v5h-2zm-57 1h2v1h-2zm12 0h1v2h-1zm36 0h1v1h-1zm-112 1h1v10h-1zm22 0h7v3h-7zm7 0h1v1h-1zm36 0h1v2h-1zm5 0h2v1h-2zm7 0h1v1h-1zm1 0h1v1h-1zm31 0h2v3h-2zm6 0h2v4h-2zm8 0h1v1h-1zm-131 1h8v1h-8z"/><path d="M39 110h8v2h-8zm8 0h1v1h-1zm38 0h1v6h-1zm4 0h2v2h-2zm2 0h1v5h-1zm3 0h1v1h-1zm41 0h1v1h-1zm-124 1h8v1h-8zm8 0h1v8h-1z"/><path d="M38 111h8v2h-8zm45 0h2v1h-2zm43 0h3v1h-3zm3 0h1v1h-1zm3 0h2v2h-2zm6 0h2v4h-2zm-127 1h9v1h-9zm9 0h1v8h-1z"/><path d="M37 112h9v1h-9zm9 0h1v1h-1zm43 0h2v1h-2zm37 0h2v2h-2zm2 0h1v1h-1zm12 0h1v1h-1zm-128 1h10v1H12zm10 0h1v7h-1zm14 0h9v2h-9zm9 0h1v1h-1zm41 0h1v5h-1zm6 0h1v4h-1z"/><path d="M125 113h2v2h-2zm7 0h2v1h-2zm2 0h1v1h-1zm3 0h2v4h-2zm-124 1h11v1H13zm11 0h1v7h-1zm10 0h10v2H34zm50 0h2v1h-2zm6 0h3v1h-3zm3 0h1v4h-1z"/><path d="M124 114h3v1h-3zm3 0h1v1h-1zm-113 1h30v1H14zm30 0h1v1h-1zm43 0h1v4h-1zm4 0h2v1h-2zm32 0h3v1h-3zm3 0h1v1h-1zm10 0h3v2h-3zm3 0h1v1h-1zm-125 1h29v1H14zm29 0h1v1h-1zm42 0h2v1h-2zm9 0h1v3h-1zm27 0h4v1h-4zm4 0h1v1h-1zm-110 1h27v1H15zm27 0h1v1h-1zm46 0h1v3h-1z"/><path d="M92 117h3v1h-3zm3 0h1v3h-1zm24 0h5v1h-5zm5 0h1v1h-1zm11 0h3v1h-3zm3 0h1v1h-1zm-121 1h23v1H17zm23 0h1v1h-1zm46 0h3v1h-3zm3 0h1v1h-1z"/><path d="M93 118h3v1h-3zm3 0h1v3h-1zm21 0h5v1h-5zm5 0h1v1h-1zm13 0h2v2h-2zm2 0h1v1h-1zm-119 1h21v1H18zm21 0h1v1h-1zm48 0h3v1h-3zm3 0h1v1h-1z"/><path d="M94 119h3v1h-3zm3 0h1v2h-1zm16 0h8v1h-8zm8 0h1v1h-1zm13 0h2v2h-2zm-114 1h17v1H20zm17 0h1v1h-1zm20 0h7v1h-7zm7 0h1v1h-1zm24 0h1v1h-1z"/><path d="M95 120h4v1h-4zm4 0h1v3h-1zm14 0h5v1h-5zm5 0h1v1h-1zm15 0h3v1h-3zm3 0h1v1h-1zm19 0h7v1h-7zm7 0h1v1h-1zm14 0h7v1h-7zm7 0h1v1h-1zm-160 1h12v1H23zm12 0h1v1h-1z"/><path d="M96 121h4v1h-4zm4 0h1v2h-1zm13 0h2v1h-2zm2 0h1v1h-1zm17 0h3v1h-3zm3 0h1v1h-1z"/><path d="M98 122h4v1h-4zm4 0h1v2h-1zm29 0h3v1h-3zm3 0h1v1h-1z"/><path d="M99 123h6v1h-6zm6 0h1v2h-1zm13 0h1v2h-1zm1 0h1v2h-1zm11 0h3v1h-3zm3 0h1v1h-1z"/><path d="M101 124h18v1h-18zm27 0h4v1h-4zm4 0h1v1h-1zm-29 1h16v1h-16zm16 0h1v1h-1zm8 0h4v1h-4zm4 0h1v1h-1zm-25 1h11v1h-11zm11 0h1v1h-1zm8 0h4v1h-4zm4 0h1v1h-1zm-6 1h5v1h-5zm5 0h1v1h-1zm-7 1h5v1h-5zm5 0h1v1h-1zm-9 1h8v1h-8zm8 0h1v1h-1zm-12 1h9v1h-9zm9 0h1v1h-1zm-9 1h6v1h-6zm6 0h1v1h-1zm-6 1h1v1h-1z"/><g fill="#3f3f3f"><path d="M115 71h1v1h-1zm12 6h1v1h-1zm-16 3h1v1h-1zm-89 2h1v1h-1zm108 2h1v1h-1zm-8 5h1v1h-1zm-89 1h1v1h-1zm41 0h1v1h-1zm-27 2h1v1h-1zm47 0h1v1h-1zm38 2h1v1h-1zm-41 1h1v1h-1zm5 2h1v1h-1zm-6 3h1v1h-1zm-8 2h1v1h-1zm1 0h1v1h-1zm57 0h2v1h-2zm2 0h1v1h-1zm-5 3h1v1h-1zm-56 1h1v1h-1zm11 0h1v1h-1zm-54 4h1v1h-1zm-12 4h1v1h-1zm62 1h1v1h-1zm2 3h1v1h-1zm23 0h1v1h-1zm25 0h1v1h-1zm-52 1h1v1h-1zm46 6h1v1h-1zm-20 7h1v1h-1z"/></g><g fill="#505050"><path d="M120 76h1v1h-1zm-2 1h1v1h-1zm-18 2h1v1h-1zm-72 2h1v1h-1zm1 0h1v1h-1zm69 1h1v1h-1zm3 1h1v1h-1zm3 0h1v1h-1zm20 1h1v1h-1zm-1 1h1v1h-1zm-57 1h1v1h-1zm56 0h1v1h-1zm-19 2h1v1h-1zm66 1h1v1h-1zm-46 1h1v1h-1zm8 2h1v1h-1zm-83 2h1v1h-1zm78 0h1v1h-1zm7 4h1v1h-1zm-47 3h1v1h-1zm0 1h1v1h-1zm39 9h1v1h-1zm16 1h1v1h-1zm-110 2h1v1h-1zm90 1h1v1h-1zm6 0h1v1h-1zm-2 2h1v1h-1zm11 4h1v1h-1zm-40 1h1v1h-1zm19 1h1v1h-1zm-7 4h1v1h-1zm4 2h1v1h-1z"/></g></svg>