<svg xmlns="http://www.w3.org/2000/svg" role="img" viewBox="75.47 -2.03 248.82 248.82"><title>Cumulus Networks, Inc. logo</title><style>svg {enable-background:new 0 0 400 245}</style><style>.st29{fill:none;stroke:#fff;stroke-width:5.1331;stroke-linecap:round}</style><path fill="#00833c" fill-rule="evenodd" d="M80.27 2.77h239.47v239.47H80.27z" clip-rule="evenodd"/><path d="M163.19 108.44c-14.32-14.32-14.32-37.53 0-51.86 13.18-13.17 34.54-13.18 47.71 0 12.13 12.11 12.13 31.78 0 43.89-11.14 11.15-29.22 11.15-40.38 0-10.26-10.25-10.26-26.88 0-37.14 9.44-9.44 24.74-9.44 34.18 0" class="st29"/><path d="M227.35 75.12c15.5 13.03 17.49 36.17 4.45 51.67-12 14.26-33.27 16.09-47.53 4.09-13.12-11.04-14.81-30.61-3.77-43.73 10.15-12.06 28.16-13.62 40.24-3.47 11.09 9.33 12.52 25.9 3.18 37.01-8.59 10.21-23.85 11.53-34.05 2.93" class="st29"/><path fill="#fff" fill-rule="evenodd" d="M180.31 199.28c-1.31 0-2.12-1.02-2.12-2.67V183.3c-.01-4.02-3.04-7.18-6.9-7.18-3.89 0-6.95 3.13-6.98 7.13-.01 2.74-.01 5.47-.01 8.22 0 1.69.01 3.39 0 5.08 0 2.54-1.63 2.73-2.13 2.73-1.39-.03-2.1-.94-2.11-2.72l-.01-1.43c0-3.93-.01-7.84.01-11.75.03-5.04 2.94-9.28 7.45-10.83 1.24-.43 2.53-.65 3.78-.65 3.24 0 6.31 1.45 8.6 4.1l.43.49.41-.5c1.5-1.77 3.37-2.99 5.54-3.63 1.03-.3 2.09-.45 3.15-.45 6.01 0 11.02 4.89 11.17 10.91.09 3.41.06 6.89.04 10.25l-.03 3.84c0 1.37-.92 2.39-2.14 2.39-1.26-.03-2.12-.98-2.12-2.38-.01-2.01-.01-4.03-.01-6.05.01-2.5.01-4.98-.01-7.48-.04-4.25-2.89-7.21-6.95-7.21-.4 0-.8.03-1.21.09-3.2.46-5.74 3.54-5.75 7.04-.02 2.81-.02 5.61-.01 8.42v4.88c-.01 2.48-1.59 2.67-2.09 2.67zm36.13 0c-6.15 0-11.27-4.74-11.42-10.55-.09-3.74-.07-7.5-.05-11.15l.01-3.39c0-1.26.98-2.28 2.16-2.28 1.23.03 2.07.94 2.07 2.29.01 2.53.01 5.07.01 7.6v5.7c0 4.27 3.08 7.49 7.17 7.49 4.11-.01 7.09-3.19 7.1-7.54V174.6c0-1.62.83-2.68 2.12-2.7 1.28 0 2.13 1.04 2.14 2.66.01 1.49.01 2.97.01 4.45l-.01 2.83-.03.55.01 1.46c.02 1.62.03 3.23-.01 4.8-.17 5.83-5.2 10.59-11.22 10.62h-.06zm-71.98 0c-6.14 0-11.25-4.7-11.4-10.46-.09-3.6-.08-7.26-.06-10.8v-.15c.01-1.2.02-2.4.02-3.6 0-1.32.95-2.36 2.15-2.36 1.31.05 2.09.97 2.09 2.42l.01 13.3c0 4.16 3.07 7.32 7.13 7.36 4.05 0 7.13-3.15 7.13-7.33.01-2.32.01-4.63.01-6.95v-6.14c0-1.6.87-2.67 2.16-2.67s2.1 1.02 2.11 2.69v7.28l-.03.55.01 1.47c.01 1.6.02 3.21-.02 4.8-.18 5.81-5.22 10.55-11.25 10.58h-.06zm110.36 0c-6.14 0-11.25-4.7-11.4-10.46-.1-3.67-.07-7.36-.05-10.92.01-1.21.01-2.42.01-3.63.01-1.32.96-2.36 2.16-2.36 1.3.05 2.08.97 2.08 2.42.01 1.96.01 6.87.01 6.87 0 2.14-.01 4.29 0 6.43.01 4.16 3.07 7.32 7.13 7.36 4.05 0 7.12-3.15 7.13-7.33.01-2.7.01-5.4.01-8.11v-4.98c0-1.6.86-2.67 2.14-2.67 1.3 0 2.1 1.02 2.12 2.69 0 1.37-.01 7.28-.01 7.28l-.03.55.01 1.61c.02 1.53.03 3.11-.02 4.67-.16 5.81-5.21 10.55-11.25 10.58h-.04zm-135.29-.15c-6.95-.04-12.91-5.26-13.55-11.88-.7-7.32 3.85-13.66 10.8-15.06.94-.2 1.89-.29 2.81-.29 2.79 0 5.44.89 7.89 2.63.78.56 1.23 1.15 1.33 1.78.08.52-.06 1.04-.46 1.58-.39.55-.89.83-1.49.83-.54 0-1.13-.23-1.8-.68-1.77-1.19-3.74-1.84-5.7-1.84-2.89 0-5.49 1.33-7.32 3.73-2.7 3.58-2.46 8.57.57 11.89 1.77 1.92 4.3 3.04 6.95 3.04 1.73 0 3.43-.48 4.87-1.39.18-.11.35-.23.51-.36.22-.16.44-.33.7-.47.42-.24.84-.36 1.22-.36.63 0 1.16.31 1.57.92.74 1.09.61 2.1-.39 2.9-2.46 2.01-5.3 3.02-8.44 3.02h-.07zm116.93-.82c-1.95-1.81-3.88-5.45-3.88-13.14 0-5.6-.01-22.3-.01-22.3.01-1.54.87-2.53 2.21-2.53 1.36.03 2.18 1.02 2.18 2.57v21.96c0 3.11.33 6.63 2.1 9.47.64 1.05 2.65 3.28 1.41 4.52-1.04 1.07-2.6.77-4.01-.55zm42.35 1.12c-2.63 0-4.31-.23-6.89-.95-.66-.18-1.23-.43-1.63-.69-.37-.25-.57-1.08-.27-1.75.29-.64.84-1 1.53-1h.14c.23.03 1.36.18 1.52.23.19.03 3.17.51 5.98.51 1.28 0 5.51-.14 6.31-2.03.99-2.36-1-3.57-1.67-3.96l-.14-.09c-.84-.53-1.71-.94-2.55-1.32-.31-.14-.61-.28-.92-.43-.7-.34-1.41-.68-2.13-1.01-1.48-.7-2.98-1.41-4.39-2.18-1.58-.87-2.68-2.16-3.24-3.81-1.04-3.02-.06-5.56 2.83-7.31 1.66-1.02 3.67-1.58 6.12-1.71.42-.03.85-.04 1.26-.04 2.29 0 4.6.37 6.87 1.08.57.18 1.06.42 1.4.68.33.24.51 1.1.23 1.79-.25.63-.72.98-1.27.98h-.12c-.18-.03-1.16-.17-1.32-.22-.22-.04-3.64-.66-6.13-.66-1.13 0-4.91.15-5.62 2.06-.87 2.32.82 3.38 1.72 3.94 1.19.76 2.5 1.35 3.75 1.91.43.2.78.35 1.13.53.65.29 1.31.59 1.97.87l.56.25c.9.39 1.84.79 2.69 1.25 2.7 1.48 4.07 3.53 4.07 6.07 0 2.02-.55 3.54-3.36 5.28-1.66 1.02-3.81 1.56-7 1.71-.48 0-.94.02-1.43.02z" clip-rule="evenodd"/><path fill="#fff" d="M292.55 162.66c0-1.36.34-2.63 1.02-3.82.68-1.19 1.61-2.12 2.79-2.81 1.19-.68 2.46-1.03 3.83-1.03 1.36 0 2.63.34 3.82 1.02 1.19.68 2.12 1.61 2.81 2.8.68 1.19 1.03 2.46 1.03 3.83 0 1.33-.33 2.59-.99 3.76-.66 1.17-1.58 2.11-2.76 2.82-1.19.71-2.49 1.06-3.9 1.06-1.4 0-2.7-.35-3.88-1.05-1.18-.7-2.11-1.64-2.77-2.81-.67-1.17-1-2.43-1-3.77zm1.25 0c0 1.15.29 2.22.86 3.2.57.99 1.36 1.77 2.34 2.33.99.57 2.05.86 3.19.86 1.15 0 2.23-.29 3.21-.87.99-.58 1.77-1.36 2.33-2.34s.85-2.04.85-3.19c0-1.14-.29-2.2-.86-3.2-.58-.99-1.36-1.77-2.35-2.34-.99-.57-2.05-.85-3.19-.85-1.14 0-2.2.28-3.17.84-.98.56-1.76 1.34-2.35 2.33-.57 1-.86 2.07-.86 3.23zm9.49-1.81c0 1.16-.52 1.95-1.55 2.37l2.41 4.04H302l-1.95-3.52h-.91v3.52h-1.92v-9.18h2.67c1.18 0 2.04.23 2.59.69.54.46.81 1.15.81 2.08zm-4.16 1.41h.7c.5 0 .88-.12 1.14-.36.26-.24.39-.58.39-1.02 0-.49-.12-.83-.37-1.02-.25-.19-.64-.29-1.18-.29h-.68v2.69z"/></svg>