<svg xmlns="http://www.w3.org/2000/svg" role="img" xmlns:xlink="http://www.w3.org/1999/xlink" viewBox="-1.33 0.42 303.16 125.91"><title>DAOS Foundation logo</title><defs><path d="M4.6289 0v-42.94922h14.79297c3.33985 0 5.89063.20703 7.64844.61328 2.46094.5664 4.5625 1.59375 6.29688 3.07813 2.26562 1.91406 3.96093 4.35937 5.08593 7.33984 1.1211 2.97656 1.6836 6.3789 1.6836 10.20703 0 3.26172-.3789 6.15625-1.14453 8.67188-.76172 2.51953-1.73438 4.60547-2.92969 6.25781-1.1914 1.64844-2.49219 2.94922-3.91016 3.89453-1.41406.94922-3.125 1.66797-5.125 2.15234C25.02344-.24608 22.72656 0 20.125 0zm5.6836-5.07031h9.17188c2.83203 0 5.05078-.26172 6.66406-.78906C27.7578-6.38673 29.04297-7.12892 30-8.08595c1.34766-1.34765 2.39844-3.16015 3.14844-5.4336.7539-2.27734 1.1289-5.03515 1.1289-8.27734 0-4.49218-.73828-7.9453-2.21093-10.35546C30.58984-34.56641 28.79688-36.1797 26.6875-37c-1.52344-.58594-3.97266-.88281-7.35156-.88281H10.3125zm0 0" id="a"/><path d="M-.08594 0l16.49219-42.94922h6.125L40.10938 0H33.6328L28.625-13.00781H10.66406L5.94531 0zM12.3047-17.63672h14.5625L22.3828-29.53125C21.01563-33.14453 20-36.11328 19.33594-38.4375c-.54688 2.7539-1.32032 5.48828-2.3125 8.20313zm0 0" id="b"/><path d="M2.89844-20.91797c0-7.1289 1.91406-12.71094 5.74218-16.74219 3.82813-4.03515 8.77344-6.05078 14.82813-6.05078 3.96484 0 7.53906.94532 10.71875 2.84375 3.1836 1.89453 5.61328 4.53516 7.28125 7.92188 1.67188 3.39062 2.50781 7.23437 2.50781 11.53125 0 4.35547-.88281 8.25-2.64062 11.6875-1.75782 3.4375-4.2461 6.03906-7.46875 7.8086C30.64453-.15235 27.16797.73436 23.4375.73436c-4.04297 0-7.65625-.97656-10.83984-2.92968-3.1836-1.95313-5.59766-4.6211-7.23828-8-1.64063-3.3789-2.46094-6.95313-2.46094-10.72266zm5.85937.08985c0 5.17578 1.39453 9.25 4.17578 12.23046 2.78516 2.97657 6.27735 4.46485 10.47266 4.46485 4.27734 0 7.80078-1.5 10.5625-4.50781 2.76563-3.00782 4.14844-7.27735 4.14844-12.8047 0-3.49609-.59375-6.54687-1.77344-9.15624-1.1836-2.60547-2.91016-4.6289-5.1875-6.0625-2.27344-1.4375-4.82813-2.15625-7.66016-2.15625-4.02343 0-7.48437 1.38281-10.38671 4.14843-2.89844 2.76172-4.35157 7.375-4.35157 13.84376zm0 0" id="c"/><path d="M2.69531-13.79688l5.35938-.46875c.2539 2.14844.84765 3.91016 1.77343 5.28516.9297 1.3789 2.3672 2.49219 4.32032 3.33985 1.95312.85156 4.15234 1.27343 6.59375 1.27343 2.16797 0 4.08203-.32031 5.74218-.96484 1.66016-.64453 2.89454-1.52735 3.70704-2.65235.80859-1.12109 1.21484-2.34765 1.21484-3.67578 0-1.34765-.39063-2.52343-1.17188-3.53125-.78124-1.0039-2.0703-1.84765-3.86718-2.53515-1.15235-.44922-3.70313-1.14453-7.64844-2.09375-3.94531-.94532-6.70703-1.83985-8.28906-2.67969-2.05078-1.07422-3.57813-2.40625-4.58594-4-1.0039-1.58984-1.50781-3.375-1.50781-5.34375 0-2.16797.61719-4.19531 1.84375-6.08203 1.23047-1.88281 3.03125-3.3164 5.39062-4.29297 2.36328-.97656 4.99219-1.46094 7.88282-1.46094 3.18359 0 5.99218.51172 8.42187 1.53516 2.4336 1.02734 4.30469 2.53516 5.60938 4.52734 1.30859 1.99219 2.01562 4.25 2.10937 6.76563l-5.44531.41406c-.29297-2.71484-1.28516-4.76563-2.97657-6.15625-1.6875-1.38672-4.18359-2.07813-7.48437-2.07813-3.4375 0-5.9414.62891-7.51563 1.89063-1.5703 1.25781-2.35937 2.77734-2.35937 4.55469 0 1.54297.5586 2.8125 1.67188 3.8086 1.09375.99609 3.94921 2.01562 8.5703 3.0625 4.6172 1.04296 7.78907 1.95702 9.50782 2.73827 2.5 1.15235 4.34375 2.61328 5.53516 4.3789 1.1914 1.76954 1.78515 3.8047 1.78515 6.10938 0 2.28516-.65234 4.4375-1.96093 6.46094-1.3086 2.01953-3.1875 3.59375-5.64063 4.71485-2.44922 1.125-5.21094 1.6875-8.27344 1.6875-3.88672 0-7.14453-.57032-9.77343-1.70313-2.625-1.13281-4.6875-2.83594-6.1797-5.10938-1.49609-2.27734-2.28124-4.85156-2.35937-7.71875zm0 0" id="d"/><path d="M4.92188 0v-42.94922h28.97656v5.0664H10.60547v13.3047h20.15625v5.0664H10.60547V0zm0 0" id="e"/><path d="M1.99219-15.55469c0-5.76172 1.60156-10.03125 4.80468-12.80468 2.67579-2.3047 5.9375-3.45704 9.78516-3.45704 4.27735 0 7.77344 1.40235 10.48828 4.20313 2.71485 2.80469 4.07032 6.67578 4.07032 11.61719 0 4.0039-.59766 7.15234-1.80079 9.44922-1.19921 2.29296-2.94921 4.07812-5.24218 5.34375C21.80078.0664 19.29687.70311 16.58203.70311c-4.35547 0-7.875-1.39843-10.5625-4.1875-2.6836-2.79296-4.02734-6.8203-4.02734-12.0703zm5.42187 0c0 3.98438.86719 6.96485 2.60547 8.94922 1.73828 1.98047 3.92578 2.97266 6.5625 2.97266 2.61719 0 4.79297-.9961 6.53516-2.98828 1.73828-1.9922 2.60547-5.02735 2.60547-9.11329 0-3.84765-.875-6.76171-2.6211-8.74218-1.75-1.98438-3.92187-2.97657-6.51953-2.97657-2.63672 0-4.82422.98829-6.5625 2.96094-1.73828 1.97266-2.60547 4.95313-2.60547 8.9375zm0 0" id="f"/><path d="M24.34375 0v-4.57031C21.92187-1.0547 18.63281.70313 14.47265.70313c-1.83593 0-3.55077-.35157-5.14062-1.0547C7.73828-1.05468 6.5586-1.9375 5.78516-3.0039c-.76954-1.0625-1.3125-2.36718-1.625-3.91015-.21485-1.03516-.32422-2.67578-.32422-4.92188v-19.27734h5.27343v17.2539c0 2.75391.10938 4.60938.32422 5.57032.33203 1.38672 1.03516 2.47265 2.10938 3.26562 1.07422.78906 2.40234 1.1875 3.98437 1.1875s3.06641-.40625 4.45313-1.21875c1.38672-.8086 2.36719-1.91406 2.94531-3.3086.57422-1.39843.86328-3.42577.86328-6.08202v-16.66797h5.27344V0zm0 0" id="g"/><path d="M3.95313 0v-31.11328h4.75v4.42578c2.28515-3.41797 5.58593-5.1289 9.89843-5.1289 1.875 0 3.60157.33593 5.17188 1.01171 1.57422.67188 2.75 1.55469 3.53125 2.64844s1.32812 2.39453 1.64062 3.89844c.19532.97656.29297 2.6875.29297 5.125V0h-5.27344v-18.92578c0-2.14844-.20703-3.7539-.61328-4.82031-.41015-1.0625-1.14062-1.91407-2.1836-2.54688-1.04687-.63672-2.26952-.95312-3.67577-.95312-2.2461 0-4.1875.71484-5.8164 2.13671-1.63282 1.42579-2.44923 4.13282-2.44923 8.1172V0zm0 0" id="h"/><path d="M24.14063 0v-3.92578c-1.97266 3.08594-4.875 4.6289-8.70313 4.6289-2.48047 0-4.75781-.68359-6.83984-2.05078C6.51953-2.71484 4.90625-4.625 3.76563-7.07422c-1.14454-2.45312-1.71485-5.26953-1.71485-8.45312 0-3.10547.51953-5.92188 1.55078-8.45313 1.03516-2.52734 2.58985-4.46484 4.66016-5.8164 2.07031-1.34766 4.38672-2.01954 6.9414-2.01954 1.875 0 3.54688.39454 5.01172 1.1875 1.46485.78907 2.65625 1.82032 3.57422 3.08985v-15.41016h5.24219V0zM7.46874-15.52734c0 3.98437.84375 6.96484 2.52344 8.93359 1.67968 1.97266 3.66015 2.96094 5.94531 2.96094 2.30469 0 4.26172-.9414 5.875-2.82813 1.60938-1.88281 2.41406-4.75781 2.41406-8.625 0-4.25781-.82031-7.38281-2.46093-9.375-1.64063-1.99218-3.66016-2.99218-6.0625-2.99218-2.34375 0-4.30079.96093-5.875 2.875-1.57032 1.91406-2.35938 4.92968-2.35938 9.05078zm0 0" id="i"/><path d="M24.25781-3.83594C22.3047-2.17578 20.42578-1.0078 18.6172-.3203 16.8125.36329 14.875.70313 12.80469.70313c-3.41797 0-6.04688-.83594-7.88282-2.50391-1.83593-1.67188-2.7539-3.80469-2.7539-6.40235 0-1.52343.34766-2.91406 1.03906-4.17578.69531-1.2578 1.60156-2.26953 2.72656-3.03125 1.1211-.76172 2.38672-1.33984 3.79297-1.73047 1.03516-.27343 2.59766-.53515 4.6875-.78906 4.25782-.50781 7.39063-1.11328 9.40625-1.8164.01953-.72266.02735-1.1836.02735-1.37891 0-2.14844-.4961-3.66016-1.4961-4.53906-1.34765-1.1914-3.34765-1.78907-6.0039-1.78907-2.48047 0-4.3125.4375-5.4922 1.3047-1.18359.87109-2.05859 2.40624-2.62109 4.61718l-5.15625-.70313c.46875-2.20703 1.23829-3.99218 2.3125-5.34765 1.07422-1.35938 2.625-2.40235 4.65625-3.13672 2.03125-.73047 4.38672-1.09766 7.0625-1.09766 2.65626 0 4.8125.3125 6.47657.9375 1.66015.625 2.8789 1.41016 3.66015 2.35938.78125.94531 1.32813 2.14453 1.64063 3.58984.17578.89844.26172 2.51563.26172 4.85938v7.03125c0 4.90234.11328 8.0039.33984 9.30468C29.71094-2.4375 30.15625-1.1914 30.82031 0H25.3125c-.54688-1.09375-.89844-2.375-1.05469-3.83594zm-.4375-11.78125c-1.91406.78125-4.78906 1.44532-8.61718 1.99219-2.16797.3125-3.69922.66406-4.59766 1.05469-.89844.39062-1.58985.96484-2.08203 1.71484-.48828.7539-.73047 1.58985-.73047 2.5039 0 1.40626.53125 2.57813 1.59765 3.51563 1.0625.9375 2.6211 1.40625 4.67188 1.40625 2.03125 0 3.83594-.4414 5.42188-1.33203 1.58203-.88672 2.74218-2.10547 3.48437-3.64453.5664-1.1914.85156-2.95313.85156-5.27344zm0 0" id="j"/><path d="M15.46875-4.71875l.76172 4.66016c-1.48438.3125-2.8125.46875-3.98438.46875-1.91406 0-3.39843-.30079-4.45312-.91016-1.05469-.60547-1.79688-1.39844-2.22656-2.38672-.4297-.98437-.64454-3.0586-.64454-6.22266v-17.90234H1.0547v-4.10156h3.86719v-7.70703l5.24218-3.16407v10.8711h5.30469v4.10156h-5.30469v18.1914c0 1.50391.09375 2.47266.28125 2.90235.1836.42969.48828.76953.90625 1.02735.42188.2539 1.02344.3789 1.80469.3789.58594 0 1.35547-.0664 2.3125-.20703zm0 0" id="k"/><path d="M3.98438-36.88281v-6.0664H9.2578v6.0664zM3.98438 0v-31.11328H9.2578V0zm0 0" id="l"/></defs><use y="50" xlink:href="#a"/><use x="43.33" y="50" xlink:href="#b"/><use x="83.525" y="50" xlink:href="#c"/><use x="130.195" y="50" xlink:href="#d"/><g><use y="120" xlink:href="#e"/><use x="36.65" y="120" xlink:href="#f"/><use x="70.02" y="120" xlink:href="#g"/><use x="103.389" y="120" xlink:href="#h"/><use x="136.758" y="120" xlink:href="#i"/><use x="170.127" y="120" xlink:href="#j"/><use x="203.496" y="120" xlink:href="#k"/><use x="220.166" y="120" xlink:href="#l"/><use x="233.496" y="120" xlink:href="#f"/><use x="266.865" y="120" xlink:href="#h"/></g></svg>