<svg xmlns="http://www.w3.org/2000/svg" role="img" viewBox="-25.40 -25.40 1320.80 244.80"><title>DataKind logo</title><g data-name="Layer 2"><path fill="#f79122" d="M.05 0H96.6c63.65 0 86.09 47.1 86.08 95.23C182.66 153.8 151.62 191 85 191H0zm58.8 142h23c36.63 0 42-29.67 42-47.59 0-12-3.74-45.45-46.26-45.46H58.86zm270.05 18c0 10.41.52 22.2 6.4 31h-54a37.15 37.15 0 0 1-1.88-13.1h-.54c-11.22 12.84-27.53 16.56-44.65 16.56-26.74 0-48.94-12.83-48.93-42 0-43.82 51.36-42.21 78.37-47.26 7.23-1.34 14.44-3.48 14.44-12.31 0-9.36-8.82-12.84-17.37-12.84-16.32 0-19.53 8.27-19.8 14.17h-49.2c.81-19.51 10.43-31 24.08-37.42 13.37-6.43 31-8 47.33-8 66.32 0 65.77 27.56 65.76 54.29zm-50.81-31.3c-6.42 3.19-13.64 5.09-20.85 6.68-11.78 2.67-17.92 5.62-17.93 15 0 6.4 6.95 12.8 16.58 12.82 12 0 21.4-7.2 22.19-21.64zM412.5 52.25h28.35V84.9h-28.36v48.4c0 12.83 3 18.45 16.32 18.45a90 90 0 0 0 12-.8v40.12c-10.69 0-22.72 1.59-33.95 1.59-22.46 0-47.33-3.49-47.32-41.47v-66.3H336V52.23h23.54V10h52.95zm179.92 107.82c0 10.44.53 22.19 6.41 31h-54A37 37 0 0 1 543 178h-.53c-11.24 12.85-27.54 16.6-44.67 16.58-26.74 0-48.93-12.87-48.93-42 0-43.84 51.36-42.22 78.36-47.31 7.24-1.34 14.45-3.47 14.45-12.3 0-9.34-8.82-12.82-17.38-12.82-16.31 0-19.52 8.29-19.79 14.15h-49.2c.8-19.53 10.43-31 24.08-37.43 13.37-6.43 31-8 47.34-8 66.3 0 65.76 27.56 65.74 54.3zm-50.79-31.3c-6.43 3.21-13.65 5.08-20.87 6.68-11.77 2.67-17.91 5.61-17.91 15 0 6.42 6.94 12.85 16.57 12.85 12 0 21.39-7.22 22.19-21.67zM612.45.18h58.84V66h.53L724.24.19h72.46l-69.27 74.6 80.45 116.35h-73.26l-47.06-74.34-16.3 17.91v56.42h-58.82zm250.82 37.24h-52.95V.21h52.95zm-53 14.95h53v138.79h-53zm73.31.03h51.06V70h.54c9.9-13.87 24.08-21.1 45.21-21.08C1005.24 49 1028 64.21 1028 96v95.21h-53v-72.74c0-16-1.87-27.26-17.39-27.29-9.07 0-21.11 4.55-21.11 26.75v73.26h-53zm305.16 138.71l-51.08.06v-15.24h-.53c-6.67 8.85-14.68 18.75-40.62 18.79-39.32.05-58.32-38.71-58.4-73.45 0-32.64 12.5-72.22 59-72.29 15.8 0 30 6.93 38 18.67h.54l-.09-67.41 53-.06zm-74.47-103.66c-19 0-23.22 18-23.21 34.25 0 16.59 4.31 34.49 23.31 34.48s23.24-18 23.24-34.53c-.03-16.31-4.35-34.23-23.34-34.2zm88.81-66.33a34.63 34.63 0 0 1 7.59-11 35.34 35.34 0 0 1 11.17-7.31 35 35 0 0 1 45.66 18.29 33.54 33.54 0 0 1 2.79 13.68 34.34 34.34 0 0 1-2.79 13.92 35.43 35.43 0 0 1-7.5 11.1 33.92 33.92 0 0 1-11.08 7.3 36.32 36.32 0 0 1-27 0 34.31 34.31 0 0 1-11.17-7.3 35.07 35.07 0 0 1-7.59-11.08 34.34 34.34 0 0 1-2.79-13.92 33.54 33.54 0 0 1 2.71-13.68zm5.73 25.55a29 29 0 0 0 6 9.45 27.89 27.89 0 0 0 9.19 6.28 28.21 28.21 0 0 0 11.4 2.29 27.66 27.66 0 0 0 11.27-2.29 28.1 28.1 0 0 0 9.07-6.28 28.83 28.83 0 0 0 6-9.45A31.49 31.49 0 0 0 1264 34.8a30.66 30.66 0 0 0-2.19-11.63 28.21 28.21 0 0 0-15.12-15.59 27.82 27.82 0 0 0-11.27-2.28 28.2 28.2 0 0 0-26.57 17.87 30.66 30.66 0 0 0-2.19 11.63 31.49 31.49 0 0 0 2.15 11.87zm28.72-32.06q7.26 0 10.75 2.88t3.49 8.75c0 3.66-1 6.35-3.07 8.05a13.81 13.81 0 0 1-7.64 3l11.64 18h-6.8l-11.07-17.5h-6.71v17.5h-6.33V14.61zm-2.8 18c1.43 0 2.78 0 4-.14a10.1 10.1 0 0 0 3.4-.79 5.31 5.31 0 0 0 2.37-2 6.82 6.82 0 0 0 .89-3.77 6 6 0 0 0-.79-3.26 5.47 5.47 0 0 0-2.05-1.86 9 9 0 0 0-2.89-.88 21.88 21.88 0 0 0-3.21-.24h-8.38v12.99z" data-name="Layer 6"/></g></svg>