<svg xmlns="http://www.w3.org/2000/svg" role="img" xmlns:xlink="http://www.w3.org/1999/xlink" viewBox="-10.61 -10.61 551.72 132.72"><title>Datachain, Inc. logo</title><defs><linearGradient id="b" x1="42.2" x2="84.4" y1="28.45" y2="28.45" gradientUnits="userSpaceOnUse"><stop offset="0" stop-color="#1337aa"/><stop offset="1" stop-color="#0d64ff"/></linearGradient><linearGradient id="a" x1="53.17" x2="84.4" y1="61.26" y2="61.26" gradientUnits="userSpaceOnUse"><stop offset="0" stop-color="#002162"/><stop offset="1" stop-color="#1337aa"/></linearGradient><linearGradient id="c" x1="84.4" x2="115.63" y1="61.26" y2="61.26" xlink:href="#a"/><linearGradient id="d" x1="103.81" x2="115.63" y1="37.02" y2="37.02" xlink:href="#a"/><linearGradient id="e" x1="84.4" x2="115.63" y1="12.78" y2="12.78" xlink:href="#a"/><linearGradient id="f" x1="53.17" x2="84.4" y1="12.78" y2="12.78" xlink:href="#a"/><linearGradient id="g" x1="0" x2="13.5" y1="61.95" y2="61.95" xlink:href="#b"/><linearGradient id="h" x1="0" x2="42.2" y1="95.45" y2="95.45" xlink:href="#b"/><linearGradient id="i" x1="42.2" x2="84.4" y1="95.45" y2="95.45" xlink:href="#b"/><linearGradient id="j" x1="70.9" x2="84.4" y1="61.95" y2="61.95" gradientUnits="userSpaceOnUse"><stop offset="0" stop-color="#1b52ce"/><stop offset="1" stop-color="#0d64ff"/></linearGradient><linearGradient id="k" x1="0" x2="42.2" y1="28.45" y2="28.45" xlink:href="#b"/><linearGradient id="l" x1="53.17" x2="64.99" y1="37.02" y2="37.02" xlink:href="#a"/></defs><path fill="#2f3233" d="M136.07 31.19h22a35.6 35.6 0 0 1 16.08 3.36 23.5 23.5 0 0 1 10.28 9.76 31 31 0 0 1 3.56 15.28A31.47 31.47 0 0 1 184.47 75a23.44 23.44 0 0 1-10.24 9.8 35.41 35.41 0 0 1-16.16 3.4h-22zm21.2 46.88q18.24 0 18.24-18.48 0-18.31-18.24-18.32h-8.72v36.8zm80.32-30.48v40.56h-11.92v-6a12.77 12.77 0 0 1-5.2 4.88 16.19 16.19 0 0 1-7.6 1.76 16.61 16.61 0 0 1-15.64-9.88 25.17 25.17 0 0 1-2.28-11 26 26 0 0 1 2.28-11.12 17.85 17.85 0 0 1 6.36-7.56 16.57 16.57 0 0 1 9.28-2.68 15.65 15.65 0 0 1 7.6 1.84 13.36 13.36 0 0 1 5.2 5v-5.76zm-14.32 29c1.6-2 2.4-5 2.4-8.8s-.8-6.79-2.4-8.84a9.2 9.2 0 0 0-13.84.12c-1.66 2.14-2.48 5.09-2.48 8.88s.81 6.68 2.44 8.68a8.49 8.49 0 0 0 7 3 8.25 8.25 0 0 0 6.88-3.08zm39.28-19.96v15.76c0 2.24.58 3.88 1.76 4.92a6.61 6.61 0 0 0 4.56 1.56 16.43 16.43 0 0 0 4-.56v9.36a19.16 19.16 0 0 1-7 1.12q-7.53 0-11.48-4.24t-4-11.92v-16h-7.56v-9h7.68v-9.52l12.08-3.92v13.44h10.24v9zm57.11-9.04v40.56h-11.91v-6a12.77 12.77 0 0 1-5.2 4.88 16.19 16.19 0 0 1-7.6 1.76 16.61 16.61 0 0 1-15.64-9.88 25.17 25.17 0 0 1-2.28-11 26 26 0 0 1 2.28-11.12 17.9 17.9 0 0 1 6.35-7.56 16.62 16.62 0 0 1 9.29-2.68 15.65 15.65 0 0 1 7.6 1.84 13.36 13.36 0 0 1 5.2 5v-5.76zm-14.31 29c1.6-2 2.4-5 2.4-8.8s-.8-6.79-2.4-8.84a9.2 9.2 0 0 0-13.84.12c-1.66 2.14-2.48 5.09-2.48 8.88s.81 6.68 2.44 8.68a8.49 8.49 0 0 0 7 3 8.25 8.25 0 0 0 6.88-3.08zm27.71 6.6q-5.64-5.6-5.64-15.28a22.44 22.44 0 0 1 2.72-11.16 19.09 19.09 0 0 1 7.65-7.52 23.49 23.49 0 0 1 11.39-2.68 27.34 27.34 0 0 1 8.57 1.36 17.51 17.51 0 0 1 6.63 3.68l-3.2 8.4a19.13 19.13 0 0 0-5.27-3 15.92 15.92 0 0 0-5.61-1.08 10 10 0 0 0-7.72 3q-2.75 3-2.75 8.76c0 3.9.9 6.84 2.71 8.84s4.41 3 7.76 3a15.92 15.92 0 0 0 5.61-1.08 19.13 19.13 0 0 0 5.27-3l3.2 8.4a18.62 18.62 0 0 1-6.88 3.64 29.64 29.64 0 0 1-8.88 1.32q-9.91 0-15.56-5.6zm76.52-19.6v24.56H397.5v-24q0-4.23-1.56-6.2a5.93 5.93 0 0 0-4.92-2 8.35 8.35 0 0 0-6.4 2.56 9.66 9.66 0 0 0-2.4 6.88v22.72h-12.08V29.27h12.08v23.84a14.31 14.31 0 0 1 5.52-4.88 16.4 16.4 0 0 1 7.44-1.68q14.4 0 14.4 17.04zm50.25-16v40.56H447.9v-6a12.77 12.77 0 0 1-5.2 4.88 16.16 16.16 0 0 1-7.6 1.76 17 17 0 0 1-9.32-2.56 17.22 17.22 0 0 1-6.32-7.32 25.17 25.17 0 0 1-2.28-11 26 26 0 0 1 2.28-11.12 17.85 17.85 0 0 1 6.36-7.56 16.57 16.57 0 0 1 9.28-2.68 15.62 15.62 0 0 1 7.6 1.84 13.36 13.36 0 0 1 5.2 5v-5.76zm-14.32 29c1.6-2 2.4-5 2.4-8.8s-.8-6.79-2.4-8.84a8.21 8.21 0 0 0-6.88-3.08 8.31 8.31 0 0 0-7 3.2c-1.65 2.14-2.48 5.09-2.48 8.88s.82 6.68 2.44 8.68a8.51 8.51 0 0 0 7 3 8.24 8.24 0 0 0 6.91-3.08zm23.67-48.04h12.88v11.36h-12.88zm.4 59.6V47.59h12.08v40.56zm61.36-24.56v24.56h-12.11v-24q0-4.23-1.56-6.2a5.93 5.93 0 0 0-4.92-2 8.34 8.34 0 0 0-6.4 2.56 9.66 9.66 0 0 0-2.4 6.88v22.72H491.5v-29a93.62 93.62 0 0 0-.64-11.6h11.36l.8 6.4a14.92 14.92 0 0 1 5.64-5.52 16 16 0 0 1 7.88-1.92q14.4.08 14.4 17.12z"/><path fill="url(#b)" d="M70.9 45v-.32L42.2 27.6V11.9l42.2 25.12L70.9 45z"/><path fill="url(#a)" d="M84.4 60.28v13.76L53.17 55.45l11.82-6.97v.25L84.4 60.28z"/><path fill="url(#c)" d="M115.63 55.45L84.4 74.04V60.28l19.41-11.55v-.25l11.82 6.97z"/><path fill="url(#d)" d="M115.63 18.59v36.86l-11.82-6.97V25.56l11.82-6.97z"/><path fill="url(#e)" d="M103.81 25.56v-.26L84.4 13.76V0l31.23 18.59-11.82 6.97z"/><path fill="url(#f)" d="M84.4 0v13.76L64.99 25.3v.26l-11.82-6.97L84.4 0z"/><path fill="url(#g)" d="M13.5 45v33.9L0 86.88V37.02L13.5 45z"/><path fill="url(#h)" d="M42.2 96.3V112L0 86.88l13.5-7.98v.32L42.2 96.3z"/><path fill="url(#i)" d="M84.4 86.88L42.2 112V96.3l28.7-17.08v-.32l13.5 7.98z"/><path fill="url(#j)" d="M84.4 37.02v49.86L70.9 78.9V45l13.5-7.98z"/><path fill="url(#k)" d="M42.2 11.9v15.7L13.5 44.68V45L0 37.02 42.2 11.9z"/><path fill="url(#l)" d="M64.99 25.56v22.92l-11.82 6.97V18.59l11.82 6.97z"/></svg>