<svg xmlns="http://www.w3.org/2000/svg" role="img" viewBox="-5.40 51.86 410.54 141.04"><title>Deepdive Digital Technologies International Inc. logo</title><style>svg {enable-background:new 0 0 400 245}</style><path d="M67.83 64.02v4.23l1.36.1c14.74 1.04 28.34 7.97 37.85 19.3 10.65 12.7 14.91 29.45 11.61 45.73-3.27 16.13-13.94 30.12-28.66 37.56-4.39 2.22-8.47 3.67-13.22 4.7-2.22.48-5.67.95-7.64 1.05-.51.03-1.01.06-1.11.09l-.19.03v8.42h.27c.57 0 2.8-.18 4.21-.33 13.23-1.44 25.52-6.99 35.42-16.01 10.93-9.95 18.09-23.7 19.93-38.25.57-4.56.66-10.09.2-14.48-1.18-11.48-5.37-22.18-12.28-31.36-1.92-2.56-3.48-4.33-5.79-6.65-5.77-5.76-12.36-10.22-19.77-13.38-6.41-2.73-13.9-4.51-20.42-4.85-.51-.02-1.12-.06-1.35-.09l-.43-.04v4.23zm-9.22-3.9c-17.4 1.96-32.93 10.82-43.43 24.78-6.75 8.98-11.04 19.94-12.16 31.06-.44 4.31-.44 8.85 0 13.14 1.32 13.01 6.83 25.43 15.62 35.26 1.23 1.37 3.87 4 5.2 5.18 8.31 7.35 18.47 12.39 29.36 14.55 1.91.38 5.45.9 6.12.9h.19v-8.48l-.78-.09c-15.44-1.88-29.57-10.57-38.35-23.62-4.75-7.06-7.78-15.13-8.82-23.5-.32-2.59-.37-3.51-.37-6.79 0-3.84.16-5.84.73-9.2 2.3-13.49 9.73-25.69 20.74-34.06 7.29-5.54 16.23-9.28 25.07-10.48.69-.09 1.37-.19 1.52-.21l.26-.04v-4.24c0-4-.01-4.25-.14-4.24-.09 0-.43.04-.76.08z"/><path d="M67.83 80.92v4.24l.99.14c6.15.86 12.02 3.24 17.08 6.96 2.94 2.16 5.83 5.05 8.02 8.03 3.93 5.33 6.36 11.58 7.1 18.23.28 2.53.24 6.15-.09 8.77-2.1 16.41-14.74 29.56-31.07 32.3-.82.14-1.61.25-1.76.25h-.27v8.54l.63-.06c12.71-1.3 24.36-7.92 32.08-18.22 8.6-11.48 11.32-26.44 7.35-40.33-1.73-6.08-4.8-11.82-9.01-16.89-1.08-1.29-4.28-4.49-5.57-5.57-2.98-2.47-5.73-4.26-9.15-5.97-3.98-1.99-7.99-3.32-12.37-4.11-1.02-.19-3.49-.52-3.82-.52-.13-.02-.14.18-.14 4.21zm106.03 8.75v7.55l-.59-.59c-1.84-1.84-4.26-3.02-6.89-3.37-1.09-.14-3.59-.05-4.61.17-5.87 1.25-10.52 5.94-11.69 11.78-.22 1.12-.3 3.49-.15 4.73.36 3.11 1.78 6.08 4.04 8.43 2.99 3.11 6.58 4.67 10.8 4.67 4.04 0 7.61-1.49 10.48-4.36 2.17-2.18 3.44-4.5 4.13-7.57l.19-.81.02-14.1.02-14.09h-5.74v7.56zm-6.77 9.36c1.47.39 2.81 1.13 3.92 2.19 4.2 3.96 3.83 10.95-.77 14.4-1.99 1.5-4.5 2.1-6.97 1.71-4.44-.72-7.69-4.62-7.69-9.21 0-2.48.91-4.79 2.56-6.52 1.34-1.42 2.85-2.26 4.76-2.67 1.08-.24 3.08-.19 4.19.1zm152.66-9.39v7.54l-.62-.6c-2-1.9-4.23-2.98-6.84-3.31-1.16-.15-3.58-.06-4.63.16-1.09.23-2.34.66-3.32 1.12-1.59.76-2.73 1.56-4.08 2.87-1.92 1.88-3.28 4.12-4 6.6-.62 2.16-.7 4.92-.22 7.25 1.04 4.98 5.01 9.39 9.93 11.03 1.7.57 3.26.78 5.31.7 2.52-.09 4.68-.71 6.79-1.95 3.78-2.22 6.44-5.98 7.26-10.26.18-.91.18-.96.2-14.8l.03-13.89h-5.83v7.54zm-6.71 9.4c.95.26 2.36.95 3.1 1.5 1.73 1.31 2.92 3.13 3.46 5.29.24.95.3 2.91.12 3.89-.82 4.41-4.28 7.5-8.63 7.7-4 .19-7.51-2.13-8.98-5.91-1.08-2.77-.74-6.08.88-8.59 1.34-2.07 3.37-3.47 5.8-4 1.09-.23 3.18-.17 4.25.12zm19.28-16.1c-.7.27-1.26.7-1.65 1.29-.46.69-.59 1.2-.55 2.16.02.66.06.86.28 1.33.34.72.98 1.36 1.7 1.7.52.24.61.26 1.44.26 1.15 0 1.61-.18 2.35-.87 1.8-1.69 1.37-4.65-.83-5.74-.49-.24-.61-.27-1.4-.28-.72-.04-.92-.01-1.34.15zM195.1 93.32c-5.28.82-9.9 4.78-11.62 9.97-.61 1.83-.69 2.35-.69 4.86 0 2.01.02 2.3.19 3.07 1.37 6.3 6.54 11.02 12.83 11.73 3.23.36 6.82-.42 9.54-2.06 1.67-1.01 3.23-2.41 4.37-3.94.61-.82 1.47-2.22 1.41-2.29-.02-.02-1.57-.04-3.45-.05l-3.42-.02-.5.49c-2.91 2.78-8.03 3.19-11.43.9-.64-.43-1.59-1.35-2.02-1.96-.66-.93-1.25-2.35-1.38-3.35l-.06-.41h23.3l.05-.35c.29-2.13.06-4.67-.64-6.76-1.73-5.22-6.51-9.1-12.14-9.83-1.14-.16-3.37-.16-4.34 0zm4.07 5.58c2.58.49 4.83 2.17 6.2 4.64.26.46.61 1.33.71 1.71l.06.23h-8.62c-4.74 0-8.62-.01-8.62-.02 0-.15.47-1.33.73-1.85 1.23-2.45 3.36-4.1 6.07-4.67.88-.21 2.56-.22 3.47-.04zm28.36-5.58c-5.93.92-10.87 5.71-12.11 11.72-.37 1.81-.37 4.35 0 6.2.9 4.42 3.86 8.23 8 10.3 6.32 3.15 14.4 1.2 18.69-4.53.5-.68 1.29-1.93 1.42-2.24.05-.12-.21-.14-3.37-.16l-3.42-.02-.54.5c-1.82 1.68-4.13 2.47-6.85 2.35-2.27-.11-4.3-.97-5.77-2.46-.73-.74-1.05-1.21-1.51-2.17-.36-.76-.73-1.94-.73-2.36v-.19h23.26l.07-.63c.11-1.05.06-3.2-.1-4.1-.53-3.01-1.72-5.48-3.67-7.58-2.31-2.49-5.61-4.19-9.04-4.63-1.13-.16-3.36-.16-4.33 0zm4.07 5.58c2.67.5 5.03 2.33 6.31 4.87.31.61.65 1.48.65 1.65 0 .03-3.87.06-8.61.06h-8.61l.05-.23c.1-.39.61-1.58.9-2.08 1.12-1.92 2.74-3.27 4.76-3.96 1.26-.43 3.2-.57 4.55-.31zm28.96-5.62c-.91.12-2.34.52-3.34.91-4.32 1.74-7.76 5.64-8.92 10.12-.45 1.75-.44 1.47-.44 16.22v13.58h5.82v-15.06l.74.7c1.68 1.58 3.65 2.6 5.9 3.05.78.15 1.16.19 2.61.18 1.52 0 1.8-.02 2.72-.22 4.88-1.03 9.01-4.47 10.91-9.08.84-2.05 1.09-3.53 1.03-6.07-.04-1.87-.17-2.62-.67-4.15-1.46-4.43-5.26-8.21-9.66-9.61-1.57-.5-2.21-.6-4.24-.62-1.02-.02-2.13.01-2.46.05zm3.85 5.61c3.41.66 6.13 3.13 7.1 6.47.29 1.02.38 1.65.38 2.79 0 2.62-.99 4.97-2.85 6.75-1.12 1.08-2.3 1.76-3.73 2.18-4.75 1.37-9.73-1.24-11.26-5.9-.82-2.53-.66-5 .52-7.36 1.26-2.55 3.52-4.3 6.31-4.9.88-.19 2.64-.2 3.53-.03zm116.12-5.65c-2.46.36-4.38 1.09-6.28 2.37-3.01 2.02-5.31 5.27-6.16 8.7-.37 1.5-.42 1.92-.41 3.92 0 1.74.02 1.99.22 2.92.62 2.94 1.86 5.26 3.97 7.42 1.33 1.36 2.65 2.31 4.29 3.09 5.16 2.43 11.6 1.57 16.07-2.16.82-.69 1.93-1.88 2.52-2.69.54-.75 1.27-1.96 1.27-2.09 0-.07-.85-.1-3.37-.12l-3.38-.02-.53.48c-1.77 1.59-3.9 2.39-6.35 2.39-2.51 0-4.72-.87-6.32-2.46-1.18-1.18-1.93-2.66-2.25-4.44l-.06-.3h23.3l.06-.23c.04-.12.06-1.09.06-2.16-.01-1.79-.02-2.02-.23-2.96-1.25-5.89-5.6-10.17-11.65-11.44-.86-.18-1.23-.21-2.77-.23-.96-.02-1.86-.01-2 .01zm4.13 5.77c.76.2 2.15.85 2.74 1.27 1.54 1.09 2.73 2.62 3.4 4.37.16.41.29.77.29.79 0 .02-3.87.04-8.61.04-7.9 0-8.61-.01-8.61-.13 0-.21.56-1.57.87-2.09.7-1.2 1.79-2.39 2.8-3.06.94-.62 2.25-1.14 3.45-1.35.2-.04.97-.06 1.71-.04 1.03.01 1.45.06 1.96.2zm-53.99 9.06v14.48h5.74V93.59h-5.74v14.48zm8.02-14.34c.02.08 2.62 6.55 5.77 14.38s5.74 14.28 5.76 14.33c.03.08.69.11 2.93.11h2.88l5.78-14.33c3.18-7.88 5.79-14.39 5.81-14.47.02-.15-.07-.15-2.98-.14l-3 .02-4.23 10.66c-2.33 5.86-4.25 10.67-4.26 10.68-.02.02-1.92-4.78-4.24-10.66l-4.21-10.68-3.02-.02c-2.85-.02-3.02-.01-2.99.12zM223.03 151.5v16.9h3.47l.03-7.42c.02-7.23.03-7.43.19-8.11.23-.92.58-1.81 1-2.52.46-.79 1.63-1.93 2.42-2.38 2.44-1.37 6.25-1.45 8.75-.19 1.79.9 3.05 2.47 3.65 4.54.4 1.38.4 1.36.44 8.94l.03 7.14h3.48l-.03-7.34c-.03-7.06-.04-7.37-.2-8.22-.57-2.97-1.8-5.18-3.68-6.62-2.1-1.62-4.48-2.31-7.88-2.32-2.12 0-3.45.23-4.84.85-1.04.46-2.26 1.45-2.98 2.4l-.36.49V134.6h-3.48v16.9zm83.78 0v16.9h3.48v-33.8h-3.48v16.9zm-153.66-11.08v3.8h-3.96v3.08h3.96v5.11c0 2.88.04 5.54.09 6.08.46 5.33 3.29 8.67 8.25 9.75.42.09 1 .19 1.31.22l.54.06v-3.08l-.42-.06c-.66-.09-2.06-.58-2.68-.95-1.86-1.11-2.91-2.73-3.42-5.33-.11-.59-.14-1.48-.17-6.25l-.04-5.56h6.72v-3.08h-6.72v-7.6h-3.48v3.81zm53.38 3.48c-5.97.44-11.15 4.77-12.23 10.22-.23 1.16-.23 3.24.01 4.38 1.01 4.94 5.12 8.81 10.6 10 .74.16 1.08.18 2.79.19 2.03 0 2.47-.05 3.94-.41 3.23-.8 6.09-2.75 7.81-5.31.22-.32.46-.71.53-.86l.14-.26h-3.84l-.82.79c-1.58 1.53-3.36 2.47-5.53 2.9-1.09.22-3.12.19-4.22-.05-3.91-.86-6.83-3.49-7.83-7.04-.19-.7-.22-.9-.22-2.14 0-1.15.03-1.49.18-2.07.56-2.19 1.98-4.2 3.9-5.48.97-.66 1.47-.91 2.52-1.27 2.71-.95 5.81-.78 8.37.44 1.14.54 1.97 1.12 2.86 2.01l.77.75h1.84c1.02 0 1.84-.02 1.84-.06 0-.09-.53-.95-.91-1.46-.19-.25-.63-.77-.99-1.14-2.8-2.94-7.04-4.46-11.51-4.13zm82.33 0c-4.56.35-8.79 2.98-10.99 6.83-1.29 2.26-1.76 5.1-1.25 7.73.64 3.38 2.96 6.49 6.28 8.39 1.59.91 3.23 1.48 5.1 1.75 1.28.19 4.04.12 5.18-.13 5.4-1.16 9.54-5.03 10.56-9.89.15-.66.18-1.11.18-2.24.01-1.53-.1-2.29-.49-3.51-.87-2.78-3.04-5.39-5.86-7.05-2.48-1.46-5.53-2.12-8.71-1.88zm3.72 3.21c2.07.48 3.79 1.41 5.16 2.77 1.76 1.76 2.7 4 2.7 6.42 0 4.46-3.22 8.17-7.97 9.2-1.11.23-3.23.26-4.26.04-1.01-.22-2.05-.57-2.83-.96-4.48-2.26-6.53-7.01-4.89-11.35 1.24-3.28 4.34-5.66 8.17-6.26.8-.12 3.13-.03 3.92.14zm32.97-3.21c-5.31.38-10.2 3.97-11.84 8.69-.55 1.59-.74 3.68-.48 5.44.75 5.07 5.12 9.32 10.74 10.47.82.17 1.13.19 2.98.19 1.83-.01 2.16-.02 2.91-.19 5.54-1.19 9.78-5.26 10.64-10.23.16-.94.16-2.93 0-3.93-.42-2.56-2-5.25-4.16-7.06-3.04-2.57-6.62-3.68-10.79-3.38zm3.28 3.15c4.03.7 7.09 3.41 8.08 7.17.11.39.19 1.02.21 1.65.16 3.64-1.79 6.91-5.17 8.65-1.62.83-3.02 1.16-5 1.16-1.88.01-3.1-.26-4.74-1.04-1.87-.89-3.57-2.47-4.51-4.18-.74-1.36-1.05-2.59-1.04-4.24 0-1.35.16-2.16.67-3.39.6-1.44 2.05-3.16 3.43-4.09 2.34-1.56 5.26-2.18 8.07-1.69zm26.82-3.15c-5.95.44-11.1 4.72-12.26 10.19-.23 1.08-.2 3.49.04 4.61 1.08 4.84 5.29 8.72 10.62 9.8.82.16 1.14.19 2.86.19 1.7-.01 2.05-.03 2.78-.19 3.01-.66 5.44-2.05 7.14-4.08l.39-.47v1.16c0 .64-.04 1.48-.09 1.88-.17 1.36-.74 2.78-1.56 3.88-2.84 3.77-8.32 5.14-12.81 3.21-1.46-.63-3.02-1.88-3.96-3.15l-.37-.5h-2.01c-2.34 0-2.18-.1-1.59.93 1.8 3.15 5.16 5.48 9.08 6.32 1.33.28 3.99.36 5.35.16 4.37-.64 8.31-3.38 10.21-7.08.5-.98.72-1.54 1.01-2.63.17-.64.17-.81.19-6.93.03-6.12.02-6.31-.14-7.12-.23-1.12-.49-1.88-1.03-2.92-.62-1.22-1.29-2.14-2.33-3.18-3-3.01-6.97-4.42-11.52-4.08zm3.73 3.21c2 .47 3.61 1.31 4.97 2.6 1.25 1.19 2.18 2.73 2.61 4.33.19.73.22.95.22 2.22.01 1.2-.02 1.52-.17 2.1-.42 1.65-1.26 3.12-2.48 4.33-2.82 2.81-7.17 3.76-11.07 2.41-3.14-1.09-5.56-3.53-6.41-6.46-1.33-4.59 1.37-9.4 6.24-11.14.5-.18 1.73-.47 2.42-.57.62-.08 3 .03 3.67.18zm-183.83-3.06c-5.08.89-9.05 4.16-10.51 8.66-.47 1.44-.53 1.85-.53 3.8 0 1.65.01 1.79.23 2.62.59 2.25 1.69 4.12 3.38 5.76 2.07 2 4.68 3.28 7.62 3.7 1.08.16 3.3.17 4.42.01 3.34-.48 6.32-1.92 8.53-4.13.61-.61 1.74-2.01 1.74-2.15 0-.04-.95-.06-2.12-.06h-2.11l-.53.52c-1.79 1.76-4.39 2.81-7.24 2.94-4.72.2-8.85-2.54-10.02-6.63-.11-.39-.23-.95-.26-1.23l-.06-.53h23.38l.05-.19c.14-.53-.02-2.46-.32-3.7-1.1-4.63-4.96-8.18-10.09-9.27-.86-.19-1.21-.22-2.84-.24-1.54-.03-2.01 0-2.72.12zm4.73 3.03c1.96.44 3.52 1.28 4.88 2.62.81.8 1.32 1.48 1.8 2.41.29.56.69 1.66.84 2.31l.05.23h-9.87c-5.69 0-9.87-.03-9.87-.07s.09-.39.2-.77c1.01-3.49 4.17-6.18 8.01-6.81.84-.14 3.18-.09 3.96.08zm79.63-3.14c-.15.02-.68.11-1.16.2-4.13.77-7.08 3.43-8.1 7.3-.49 1.84-.47 1.48-.5 9.53l-.03 7.42h3.49v-6.78c0-7.65.02-7.95.54-9.6.42-1.3 1.02-2.26 1.99-3.16 1.45-1.35 3.26-1.97 5.72-1.97 2.49 0 4.3.64 5.77 2.02 1.05.99 1.72 2.15 2.1 3.64.36 1.37.38 1.85.38 9.03v6.82h3.48v-6.99c0-7.55-.02-8-.44-9.68-1.04-4.11-3.85-6.72-8.18-7.6-.74-.15-1.2-.18-2.82-.19-1.09-.01-2.09 0-2.24.01zm113.95 7.19c0 4.36.03 7.21.09 7.71.59 5.39 3.64 8.75 8.81 9.68 1.03.19 3.48.25 4.48.13 2.52-.32 4.86-1.48 6.19-3.08l.41-.49v1.52c0 1.16-.04 1.69-.15 2.25-.59 2.89-2.72 5.01-5.82 5.85-.7.19-.93.2-2.23.21-1.33 0-1.53-.02-2.26-.22-1.07-.29-2.27-.89-3.09-1.54-.64-.52-1.51-1.5-1.76-2l-.13-.23h-3.9l.06.18c.27.87 1.33 2.43 2.37 3.47 1.67 1.66 3.65 2.7 6.11 3.2 1.13.23 4.14.2 5.26-.04 2.43-.53 4.27-1.5 5.9-3.13 1.52-1.5 2.35-2.98 2.89-5.14.17-.68.17-.76.19-12.96l.02-12.27h-3.47l-.03 7.46c-.02 7.34-.03 7.47-.2 8.18-.19.78-.58 1.75-1 2.46-.4.7-1.6 1.85-2.35 2.27-2.48 1.4-6.27 1.52-8.75.27-2.1-1.06-3.32-2.74-3.94-5.42-.18-.78-.18-.91-.2-8.01l-.03-7.21h-3.47v6.9z"/></svg>