<svg xmlns="http://www.w3.org/2000/svg" role="img" viewBox="-3.99 -3.99 207.74 207.74"><title>Delta Electronics Worldwide logo</title><path d="M50 77h1v1h-1zm-24 27h1v1h-1zm139 0h1v1h-1z" fill="#67b7ea"/><path d="M25 90h1v1h-1zm79 23h1v1h-1z" fill="#98cef1"/><path d="M36 91h1v1h-1zm122 6h6v1h-6zm6 0h1v1h-1z" fill="#50ace6"/><path fill="#cae6f8" d="M24 92h1v1h-1z"/><path d="M173 93h1v1h-1zM29 98h1v1h-1z" fill="#8ecaef"/><path fill="#3aa2e3" d="M43 97h1v1h-1z"/><path d="M49 75h1v1h-1zM24 91h1v1h-1zm48 22h1v1h-1zm-62 1h1v1h-1z" fill="#36a0e3"/><path fill="#ebf6fc" d="M50 78h1v1h-1z"/><path fill="#2597e0" d="M127 92h1v1h-1z"/><path d="M44 68h1v1h-1zm69 33h1v1h-1zm54 1h1v1h-1z" fill="#e6f3fb"/><path fill="#9cd0f1" d="M51 79h1v1h-1z"/><path d="M64 100h1v1h-1zm-9 2h1v1h-1zm49 12h1v1h-1z" fill="#54aee7"/><path fill="#2799e1" d="M150 116h1v1h-1z"/><path d="M150 97h1v1h-1zm11 18h1v1h-1z" fill="#77bfec"/><path fill="#d8ecf9" d="M176 102h1v1h-1z"/><path d="M66 103h1v1h-1zm-18 7h1v1h-1z" fill="#2c9be1"/><path d="M54 83h1v1h-1zM33 93h1v1h-1zm92 13h1v1h-1z" fill="#1b93df"/><path fill="#d1e9f8" d="M28 100h1v1h-1z"/><path fill="#f1f9fd" d="M40 100h1v1h-1z"/><path d="M114 106h10v1h-10zm10 0h1v1h-1z" fill="#6fbbeb"/><path fill="#c5e4f7" d="M39 112h1v1h-1z"/><path fill="#8fcaef" d="M45 69h1v1h-1z"/><path d="M28 86h1v1h-1zm4 4h1v1h-1zm11 6h1v1h-1zm114 1h1v1h-1zm-68 4h1v1h-1zm-21 7h1v1h-1zm38 6h1v1h-1z" fill="#f9fcfe"/><path d="M163 106h1v1h-1zm-62 11h1v1h-1zm25 0h1v1h-1z" fill="#088adc"/><path d="M69 109h1v1h-1zm26 1h1v1h-1z" fill="#c4e3f7"/><path d="M42 65h1v1h-1zm128 33h1v1h-1zm-105 5h1v1h-1zm106 4h1v1h-1zm-132 1h1v1h-1zm-25 1h1v1h-1zm159 4h1v2h-1zm0 2h1v1h-1z" fill="#f8fcfe"/><path fill="#bfe1f6" d="M26 97h1v1h-1z"/><path d="M13 109h1v1h-1zm12 1h1v1h-1z" fill="#2e9ce1"/><path fill="#5ab1e8" d="M44 67h1v1h-1z"/><path fill="#62b4e9" d="M45 85h1v1h-1z"/><path fill="#43a6e5" d="M32 91h1v1h-1z"/><path d="M41 108h1v1h-1zm120 1h1v1h-1zm-70 2h1v1h-1z" fill="#118edd"/><path fill="#51ace6" d="M160 113h1v1h-1z"/><path d="M29 84h1v1h-1zm8 7h1v1h-1zm144 2h1v1h-1zm-117 8h1v1h-1zm-49 6h1v1h-1z" fill="#e2f1fb"/><path d="M18 101h1v1h-1zm149 0h1v1h-1z" fill="#4aa9e5"/><path d="M174 113h1v2h-1zm0 2h1v1h-1z" fill="#0e8ddd"/><path fill="#3aa1e3" d="M38 68h1v1h-1z"/><path d="M136 93h1v17h-1zm0 17h1v1h-1z" fill="#92ccf0"/><path fill="#fbfdff" d="M71 113h1v1h-1z"/><path d="M46 85h1v1h-1zm-31 21h1v1h-1zm98 1h1v3h-1zm0 3h1v1h-1z" fill="#55aee7"/><path d="M54 97h1v1h-1zm44 6h1v1h-1zm-31 3h1v1h-1zm-39 3h1v1h-1z" fill="#e5f3fb"/><path d="M114 97h11v1h-11zm11 0h1v1h-1zm37 19h1v1h-1z" fill="#68b7ea"/><path d="M144 97h5v1h-5zm5 0h1v1h-1z" fill="#5cb2e8"/><path d="M106 115h1v1h-1zm42 0h1v1h-1z" fill="#b2daf4"/><path fill="#bbdff5" d="M171 96h1v1h-1z"/><path fill="#b0d9f4" d="M166 103h1v1h-1z"/><path d="M47 73h1v1h-1zm-5 24h1v1h-1zm28 14h1v1h-1z" fill="#e8f4fc"/><path d="M42 88h1v1h-1zM28 99h1v1h-1zm13 7h1v1h-1z" fill="#3fa4e4"/><path d="M54 94h1v1h-1zm89 3h1v1h-1z" fill="#37a0e3"/><path fill="#75bdeb" d="M170 97h1v1h-1z"/><path d="M53 98h1v1h-1zm-12 2h1v1h-1zm134 3h1v1h-1zm-107 3h1v1h-1z" fill="#108edd"/><path d="M169 98h1v1h-1zM69 108h1v1h-1z" fill="#319de2"/><path fill="#e4f2fb" d="M30 110h1v1h-1z"/><path fill="#c3e2f7" d="M41 64h1v1h-1z"/><path d="M89 91h1v1h-1zm-8 5h1v1h-1zm-62 3h1v1h-1zm5 9h1v1h-1z" fill="#1e94df"/><path d="M151 92h1v1h-1zm24 0h1v1h-1zM34 110h1v1h-1zm39 6h1v1h-1z" fill="#ebf5fc"/><path d="M22 94h1v1h-1zm77 9h1v1h-1zm-68 8h2v1h-2zm2 0h1v1h-1zm140 0h1v1h-1z" fill="#1891de"/><path d="M183 98h1v17h-1zm0 17h1v1h-1z" fill="#79bfec"/><path fill="#7dc2ed" d="M169 111h1v1h-1z"/><g fill="#fff"><path d="M41 65h1v19h-1zm1 1h1v18h-1z"/><path d="M40 67h3v17h-3zm3 0h1v17h-1z"/><path d="M39 69h5v15h-5zm5 0h1v15h-1z"/><path d="M38 70h6v14h-6zm7 1h1v13h-1z"/><path d="M37 72h9v12h-9zm9 0h1v12h-1z"/><path d="M36 74h11v10H36zm11 0h1v10h-1z"/><path d="M35 75h12v9H35zm13 1h1v8h-1z"/><path d="M34 77h15v7H34zm15 0h1v7h-1z"/><path d="M33 79h17v5H33zm17 0h1v5h-1z"/><path d="M32 80h18v4H32zm19 1h1v4h-1z"/><path d="M31 82h21v2H31zm21 0h1v4h-1z"/><path d="M30 83h22v1H30zm0 1h23v1H30zm23 0h1v3h-1zm-24 1h11v1H29zm11 0h1v1h-1zm11 0h2v1h-2zm-22 1h9v1h-9zm9 0h1v1h-1z"/><path d="M52 86h2v1h-2zm2 0h1v2h-1zm-26 1h8v1h-8zm8 0h1v1h-1z"/><path d="M53 87h2v1h-2zm2 0h1v12h-1zm-28 1h7v1h-7zm7 0h1v1h-1zm20 0h1v1h-1zm-27 1h6v1h-6zm6 0h1v1h-1zm9 0h6v5h-6zm6 0h1v5h-1zm8 0h1v27h-1zm-30 1h5v1h-5zm5 0h1v1h-1z"/><path d="M40 90h9v4h-9zm9 0h1v4h-1zm-23 1h4v1h-4zm4 0h1v1h-1z"/><path d="M38 91h12v3H38zm12 0h1v3h-1zm7 0h1v25h-1zm-32 1h4v1h-4zm4 0h1v1h-1z"/><path d="M37 92h13v2H37zm21 0h1v24h-1zm28 0h2v24h-2zm2 0h1v24h-1zm88 0h2v8h-2zm2 0h1v24h-1zM24 93h4v1h-4zm4 0h1v1h-1z"/><path d="M35 93h16v1H35zm16 0h1v1h-1zm33 0h6v7h-6zm6 0h1v9h-1zm16 0h20v3h-20zm20 0h1v3h-1zm4 0h5v21h-5zm5 0h1v23h-1zm9 0h20v3h-20zm20 0h1v3h-1zm10 0h6v7h-6zm6 0h1v23h-1zM24 94h3v2h-3zm3 0h1v1h-1zm7 0h16v1H34zm16 0h1v1h-1zm9 0h1v22h-1z"/><path d="M83 94h8v6h-8zm8 0h1v9h-1zm90 0h1v22h-1zM23 95h3v2h-3zm10 0h11v1H33zm11 0h1v1h-1zm129 0h8v5h-8zM26 96h1v1h-1zm6 0h10v1H32zm10 0h1v1h-1zm18 0h1v20h-1zm32 0h1v8h-1zm14 0h20v1h-20zm20 0h1v1h-1zm18 0h20v1h-20zm20 0h1v1h-1z"/><path d="M172 96h10v4h-10zm10 0h1v20h-1zM22 97h3v2h-3zm3 0h1v1h-1zm6 0h10v2H31zm10 0h1v1h-1zm20 0h1v19h-1zm21 0h11v3H82zm11 0h1v9h-1zm13 0h6v16h-6zm6 0h1v19h-1zm39 0h5v19h-5zm5 0h1v19h-1z"/><path d="M171 97h11v3h-11zM21 98h3v4h-3zm9 0h10v9H30zm64 0h1v9h-1zm-70 1h1v1h-1zm16 0h1v1h-1zm15 0h7v1h-7zm7 0h1v17h-1z"/><path d="M170 99h12v1h-12zm-150 1h3v16h-3zm9 0h10v8H29zm34 0h1v16h-1zm19 0h13v1H82zm13 0h1v9h-1zm74 0h13v1h-13z"/><path d="M28 101h11v7H28zm54 0h6v15h-6zm14 0h1v9h-1zm73 0h5v2h-5zm5 0h1v1h-1zm3 0h5v15h-5zm-158 1h4v14h-4zm4 0h1v1h-1zm41 0h1v14h-1zm26 0h6v1h-6zm23 0h11v3h-11zm11 0h1v3h-1z"/><path d="M168 102h6v1h-6zm6 0h1v1h-1zm-156 1h4v13h-4zm73 0h6v1h-6zm6 0h1v13h-1zm70 0h6v2h-6zm6 0h1v1h-1zm-146 1h12v3H27zm38 0h1v12h-1z"/><path d="M92 104h6v1h-6zm6 0h1v12h-1zm68 0h6v2h-6zm-149 1h5v11h-5zm49 0h1v11h-1zm33 0h1v11h-1zm14 0h11v1h-11zm11 0h1v1h-1zm48 0h1v1h-1z"/><path d="M93 106h6v1h-6zm72 0h6v2h-6zm6 0h1v1h-1zm-155 1h6v9h-6zm11 0h13v1H27zm13 0h1v1h-1zm15 0h12v9H55zm12 0h1v9h-1zm27 0h6v1h-6zm6 0h1v9h-1z"/><path d="M164 107h6v2h-6zm-149 1h7v8h-7zm13 0h10v1H28zm10 0h1v1h-1zm63 0h1v7h-1zm69 0h1v1h-1zm-147 1h1v7h-1zm6 0h7v1h-7zm7 0h1v1h-1zm18 0h14v7H54zm14 0h1v7h-1zm27 0h6v1h-6zm68 0h6v6h-6zm6 0h1v1h-1z"/><path d="M14 110h9v6h-9zm38 0h17v6H52zm17 0h1v6h-1zm27 0h6v5h-6zm6 0h1v5h-1zm60 0h6v4h-6z"/><path d="M13 111h11v5H13zm11 0h1v5h-1zm18 0h27v5H42zm61 0h1v3h-1zm-78 1h1v4h-1z"/><path d="M41 112h29v4H41zm29 0h1v4h-1zm43 0h13v4h-13zm13 0h1v3h-1zm35 0h7v1h-7zm-149 1h15v3H12zm15 0h1v3h-1z"/><path d="M38 113h32v3H38zm54 0h11v2H92zm14 0h20v1h-20zm30 0h11v3h-11zm11 0h1v2h-1zm14 0h11v1h-11zm11 0h1v3h-1zm-144 1h2v2h-2zm2 0h1v2h-1z"/><path d="M33 114h38v2H33zm38 0h1v2h-1zm32 0h1v1h-1zm4 0h19v1h-19zm23 0h17v1h-17zm32 0h10v1h-10z"/><path d="M11 115h61v1H11zm61 0h1v1h-1zm20 0h10v1H92zm10 0h1v1h-1zm5 0h19v1h-19zm19 0h1v1h-1zm5 0h16v1h-16zm16 0h1v1h-1zm16 0h9v1h-9zm-153 1h62v1H10zm62 0h1v1h-1zm10 0h6v1h-6zm6 0h1v1h-1zm4 0h8v1h-8zm8 0h1v1h-1zm9 0h16v1h-16zm16 0h1v1h-1zm7 0h14v1h-14zm14 0h1v1h-1zm5 0h5v1h-5zm5 0h1v1h-1zm8 0h8v1h-8zm8 0h1v1h-1zm5 0h5v1h-5zm5 0h1v1h-1z"/></g><path d="M29 83h1v1h-1zm57 8h1v1h-1zm74 21h1v1h-1z" fill="#56afe7"/><path d="M26 89h1v1h-1zm-14 23h1v1h-1z" fill="#e7f4fc"/><path d="M88 91h1v1h-1zm-61 10h1v1h-1z" fill="#5cb1e8"/><path fill="#9bcff1" d="M24 101h1v1h-1z"/><path fill="#85c5ee" d="M24 109h1v1h-1z"/><path d="M43 65h1v1h-1zm-16 44h1v1h-1zm100 3h1v1h-1z" fill="#2b9be1"/><path fill="#43a6e4" d="M35 73h1v1h-1z"/><path fill="#83c4ee" d="M31 80h1v1h-1z"/><path fill="#b4dbf4" d="M44 88h1v1h-1z"/><path d="M82 117h1v1h-1zm18 0h1v1h-1z" fill="#2095df"/><path d="M36 72h1v1h-1zm19 33h1v1h-1zm106 5h1v1h-1z" fill="#a4d4f2"/><path fill="#b9def5" d="M30 82h1v1h-1z"/><path d="M53 88h1v1h-1zm-17 25h1v1h-1zm71 3h1v1h-1z" fill="#abd7f3"/><path fill="#82c3ed" d="M40 89h1v1h-1z"/><path d="M57 90h1v1h-1zm3 5h1v1h-1zm115 6h1v1h-1zm-135 5h1v1h-1z" fill="#fefeff"/><path fill="#c6e4f7" d="M30 97h1v1h-1z"/><path d="M40 64h1v1h-1zm7 7h1v1h-1zm3 5h1v1h-1zM27 97h1v1h-1zm-15 13h1v1h-1zm115 1h1v1h-1zm-99 1h1v1h-1zm-19 3h1v1H9z" fill="#0387db"/><path fill="#dbeefa" d="M32 79h1v1h-1z"/><path fill="#dff0fa" d="M39 86h1v1h-1z"/><path d="M41 89h1v1h-1zm13 9h1v1h-1zm120 5h1v1h-1zm-83 1h1v1h-1z" fill="#e1f1fb"/><path fill="#8ac7ee" d="M25 99h1v1h-1z"/><path d="M83 93h1v1h-1zm-48 17h1v1h-1z" fill="#b6dcf5"/><path fill="#edf7fd" d="M43 110h1v1h-1z"/><path d="M39 90h1v1h-1zm111 2h1v1h-1zm-91 1h1v1h-1zm-9 2h1v1h-1zm-25 3h1v1h-1zm140 7h1v1h-1zm-4 9h1v1h-1zm-4 1h1v1h-1z" fill="#f5fafe"/><path d="M100 105h1v1h-1zM9 116h1v1H9zm139 0h1v1h-1z" fill="#69b8ea"/><path d="M39 67h1v1h-1zm-4 25h1v1h-1zm19 4h1v1h-1z" fill="#99cff1"/><path fill="#60b4e9" d="M47 72h1v1h-1z"/><path d="M34 75h1v1h-1zm-7 21h1v1h-1zm62 6h1v1h-1zm82 6h1v1h-1z" fill="#78bfec"/><path d="M49 76h1v1h-1zm0 9h1v1h-1z" fill="#c9e5f7"/><path fill="#3ba2e3" d="M52 80h1v1h-1z"/><path d="M53 81h1v1h-1zM23 92h1v1h-1zm59 1h1v1h-1zm89 16h1v1h-1zm-137 2h1v1h-1z" fill="#0588dc"/><path fill="#2296e0" d="M170 110h1v1h-1z"/><path d="M37 87h1v1h-1zm139 29h1v1h-1z" fill="#d5ebf9"/><path d="M26 88h1v1h-1zm87 10h1v2h-1zm0 2h1v1h-1zm-43 10h1v1h-1z" fill="#61b4e9"/><path d="M48 88h1v1h-1zm81 5h1v20h-1zm-89 11h1v1h-1zm89 9h1v1h-1z" fill="#9acff1"/><path fill="#72bceb" d="M130 116h1v1h-1z"/><path d="M39 68h1v1h-1zm9 7h1v1h-1zM29 99h1v1h-1zm147 2h1v1h-1zm-13 7h1v1h-1zm-61 1h1v1h-1z" fill="#fbfdfe"/><path d="M54 84h1v1h-1zm38 10h1v1h-1zm-70 1h1v1h-1zm153 7h1v1h-1z" fill="#a3d3f2"/><path fill="#eff7fd" d="M28 94h1v1h-1z"/><path d="M23 105h1v1h-1zm0 1h1v1h-1zm134 10h1v1h-1z" fill="#acd8f3"/><path d="M28 110h1v1h-1zm132 4h1v1h-1z" fill="#1691de"/><path fill="#3ea3e4" d="M30 113h1v1h-1z"/><path d="M39 66h1v1h-1zm9 7h1v1h-1zM25 89h1v1h-1zm80 4h1v20h-1zm-55 3h1v1h-1zm40 8h1v1h-1zm-53 6h1v1h-1zm68 3h1v1h-1zm1 3h1v1h-1zm-15 1h1v1h-1zm17 0h1v1h-1z" fill="#138fde"/><path fill="#d6ebf9" d="M35 74h1v1h-1z"/><path d="M51 78h1v1h-1zM39 89h1v1h-1zm46 2h1v1h-1zm81 11h1v1h-1zm-92 14h1v1h-1z" fill="#1791de"/><path fill="#b4dcf4" d="M34 89h1v1h-1z"/><path d="M46 95h1v1h-1zm9 5h1v1h-1zm-32 7h1v1h-1z" fill="#cfe8f8"/><path fill="#1992de" d="M9 117h1v1H9z"/><path d="M40 65h1v1h-1zm7 20h1v1h-1zm136 11h1v1h-1zM42 110h1v1h-1z" fill="#63b5e9"/><path d="M33 77h1v1h-1zm115 35h1v1h-1z" fill="#aed9f4"/><path d="M31 81h1v1h-1zm20 11h1v1h-1zm56 0h18v1h-18zm18 0h1v1h-1zm19 0h5v1h-5zm5 0h1v1h-1zM41 98h1v1h-1zm21 0h1v1h-1zm95 0h1v16h-1zm-140 6h1v1h-1zm27 6h1v1h-1zm113 4h1v1h-1zm16 2h1v1h-1z" fill="#f6fbfe"/><path d="M51 87h1v1h-1zm-10 23h1v1h-1zm53 0h1v1h-1zm-64 1h1v1h-1z" fill="#0388db"/><path d="M175 91h1v1h-1zm-48 6h1v1h-1zm-62 4h1v1h-1zm-14 8h1v1h-1z" fill="#0c8cdd"/><path d="M165 93h1v3h-1zm0 3h1v1h-1zM12 111h1v1h-1z" fill="#5eb3e8"/><path d="M61 95h1v1h-1zm-6 8h1v1h-1zm-29 4h1v1h-1z" fill="#4eabe6"/><path d="M46 71h1v1h-1zm5 20h1v1h-1z" fill="#c3e3f7"/><path d="M48 74h1v1h-1zm23 38h1v1h-1zm-60 1h1v1h-1z" fill="#96cdf0"/><path d="M54 89h1v1h-1zm72 3h1v1h-1zm-75 2h1v1h-1zm-27 6h1v1h-1z" fill="#f4fafd"/><path fill="#b0daf4" d="M60 94h1v1h-1z"/><path fill="#108ddd" d="M91 92h1v1h-1z"/><path fill="#9ed1f1" d="M45 110h1v1h-1z"/><path d="M38 69h1v1h-1zm53 24h1v1h-1zm-64 9h1v1h-1z" fill="#cce7f8"/><path d="M53 89h1v1h-1zm-9 20h1v1h-1zm48 2h2v1h-2zm2 0h1v1h-1zm43 0h10v1h-10zm10 0h1v1h-1zm23 0h2v1h-2zm2 0h1v1h-1zm-25 6h1v1h-1z" fill="#1c93df"/><path fill="#c9e6f7" d="M164 106h1v1h-1z"/><path fill="#6ab9ea" d="M174 92h1v1h-1z"/><path fill="#70bbeb" d="M82 94h1v1h-1z"/><path fill="#128fde" d="M11 112h1v1h-1z"/><path fill="#6ebaea" d="M37 70h1v1h-1z"/><path fill="#078adc" d="M56 86h1v1h-1z"/><path d="M45 88h1v1h-1zm51 12h1v1h-1zm-3 7h1v1h-1zm33 9h1v1h-1z" fill="#d4ebf9"/><path fill="#94ccf0" d="M97 101h1v1h-1z"/><path fill="#daeefa" d="M18 102h1v1h-1z"/><path d="M44 85h1v1h-1zm50 24h1v1h-1zm-65 4h1v1h-1z" fill="#7bc0ec"/><path d="M48 85h1v1h-1zm-8 17h1v1h-1zm62 6h1v1h-1z" fill="#88c7ee"/><path d="M59 91h1v1h-1zm-25 1h1v1h-1zm49 0h1v1h-1zm-59 11h1v1h-1z" fill="#098adc"/><path fill="#bde0f6" d="M66 104h1v1h-1z"/><path d="M26 105h1v1h-1zm-12 3h1v1h-1zm36 2h1v1h-1z" fill="#8bc8ef"/><path d="M32 77h1v1h-1zm-3 5h1v1h-1zm143 11h1v1h-1zM61 94h1v1h-1zm-43 6h1v1h-1zm82 4h1v1h-1zm60 6h1v1h-1zm-12 7h1v1h-1z" fill="#0186db"/><path d="M171 95h1v1h-1zM45 96h1v1h-1zm49 0h1v1h-1zm-5 7h1v12h-1zm-56 10h1v1h-1zm56 2h1v1h-1zm-1 2h1v1h-1z" fill="#1f95df"/><path fill="#1490de" d="M151 117h1v1h-1z"/><path d="M178 91h1v1h-1zM54 95h1v1h-1z" fill="#5db2e8"/><path d="M68 107h1v1h-1zm-16 2h1v1h-1zm-23 1h1v1h-1z" fill="#90caef"/><path fill="#f8fbfe" d="M94 108h1v1h-1z"/><path fill="#c0e1f6" d="M13 110h1v1h-1z"/><path d="M57 89h1v1h-1zm86 4h1v3h-1zm0 3h1v1h-1z" fill="#aad7f3"/><path fill="#7cc1ed" d="M59 92h1v1h-1z"/><path d="M20 98h1v1h-1zm163 18h1v1h-1z" fill="#76beec"/><path fill="#68b8ea" d="M73 115h1v1h-1z"/><path d="M44 66h1v1h-1zm-2 20h1v1h-1zm-16 1h1v1h-1zm26 1h1v1h-1zm-18 2h1v1h-1zm139 2h1v1h-1zm-92 3h1v1h-1zm14 2h1v1h-1zm-31 2h1v1h-1zm101 4h1v1h-1zm-98 1h1v1h-1zm-52 1h1v1h-1zm26 0h1v1h-1zm120 11h1v1h-1zm-80 1h1v1h-1zm76 0h1v1h-1z" fill="#0287db"/><path d="M38 87h1v1h-1zm55 8h1v1h-1zm-66 17h1v1h-1z" fill="#59b0e8"/><path d="M54 91h1v1h-1zm13 14h1v1h-1zm-29 7h1v1h-1z" fill="#5bb1e8"/><path d="M180 92h1v1h-1zm-140 9h1v1h-1zm51 12h1v3h-1zm57 0h1v1h-1zm0 1h1v1h-1zm-57 2h1v1h-1z" fill="#b3dbf4"/><path d="M40 66h1v1h-1zm90 26h5v1h-5zm5 0h1v1h-1zm17 0h12v1h-12zm12 0h1v1h-1zM51 110h1v1h-1zm-25 2h1v1h-1z" fill="#eaf5fc"/><path d="M40 86h1v1h-1zm96 6h1v1h-1z" fill="#7fc2ed"/><path d="M52 92h1v2h-1zm0 2h1v1h-1zm-32 3h1v1h-1zm9 0h1v1h-1zm24 0h1v1h-1zm49 10h1v1h-1z" fill="#0789dc"/><path fill="#cee8f8" d="M52 81h1v1h-1z"/><path d="M39 87h1v1h-1zm2 1h1v1h-1zm-15 20h1v1h-1z" fill="#0689dc"/><path fill="#39a1e3" d="M49 88h1v1h-1z"/><path fill="#2497e0" d="M32 94h1v1h-1z"/><path d="M113 106h1v1h-1zm23 5h1v1h-1z" fill="#9fd1f1"/><path d="M33 78h1v1h-1zm21 7h1v1h-1zm-4 5h1v1h-1zm123 4h1v1h-1zm-81 1h1v1h-1zm-76 11h1v1h-1zm24 6h1v1h-1zm96 0h1v1h-1zm-105 2h1v1h-1zm99 1h1v1h-1zm32 0h1v1h-1zm-15 1h1v1h-1z" fill="#feffff"/><path fill="#2397e0" d="M26 111h1v1h-1z"/><path d="M50 86h1v1h-1zm46 13h1v1h-1zm76 8h1v1h-1z" fill="#329ee2"/><path d="M43 88h1v1h-1zm-3 15h1v1h-1z" fill="#82c4ed"/><path d="M90 92h1v1h-1zm53 0h1v1h-1zM38 109h1v1h-1z" fill="#9dd1f1"/><path fill="#a9d6f3" d="M47 95h1v1h-1z"/><path d="M55 85h1v1h-1zM21 96h1v1h-1zm3 6h1v1h-1z" fill="#41a5e4"/><path d="M92 106h1v1h-1zm10 10h1v1h-1z" fill="#91cbef"/><path d="M42 63h1v1h-1zm-28 44h1v1h-1zm160 5h1v1h-1zm-47 4h1v1h-1zm47 0h1v1h-1z" fill="#0d8cdd"/><path d="M53 82h1v1h-1zm60 29h1v1h-1z" fill="#6ebaeb"/><path fill="#d9edfa" d="M46 88h1v1h-1z"/><path d="M54 92h1v1h-1zm39 16h1v1h-1z" fill="#349fe2"/><path d="M181 92h1v1h-1zm1 1h1v1h-1zM31 113h1v1h-1zm58 3h1v1h-1zm75 1h1v1h-1zm9 0h1v1h-1z" fill="#1d94df"/><path fill="#83c4ed" d="M62 97h1v1h-1z"/><path d="M42 64h1v1h-1zm23 38h1v1h-1z" fill="#89c7ee"/><path d="M165 92h1v1h-1zm-67 10h1v1h-1z" fill="#4baae6"/><path fill="#e6f3fc" d="M32 95h1v1h-1z"/><path fill="#2999e1" d="M26 103h1v1h-1z"/><path d="M101 107h1v1h-1zm-91 8h1v1h-1z" fill="#cbe6f8"/><path d="M53 108h1v1h-1zm51 3h1v1h-1z" fill="#6cb9ea"/><path d="M36 71h1v1h-1zm-6 25h1v1h-1zm135 1h1v1h-1z" fill="#1992df"/><path fill="#cde7f8" d="M47 88h1v1h-1z"/><path d="M38 90h1v1h-1zm-12 16h1v1h-1zm137 1h1v1h-1z" fill="#87c6ee"/><path d="M45 70h1v1h-1zM27 95h1v1h-1zm18 0h1v1h-1z" fill="#fafcfe"/><path d="M37 71h1v1h-1zm16 12h1v1h-1zM23 94h1v1h-1zm149 1h1v1h-1z" fill="#eef7fd"/><path d="M28 85h1v1h-1zm16 11h1v1h-1z" fill="#8ec9ef"/><path d="M82 95h1v1h-1zm21 15h1v1h-1z" fill="#e0f0fb"/><path d="M173 104h1v1h-1zm-12 7h1v1h-1zm-53 5h1v1h-1z" fill="#fcfdff"/><path d="M127 93h1v3h-1zm0 3h1v1h-1zm0 17h1v2h-1zm0 2h1v1h-1z" fill="#2d9be1"/><path fill="#c5e3f7" d="M49 95h1v1h-1z"/><path fill="#339ee2" d="M51 96h1v1h-1z"/><path d="M97 100h1v1h-1zm-60 12h1v1h-1zm66 4h1v1h-1zm80 1h1v1h-1z" fill="#0b8bdd"/><path fill="#80c3ed" d="M55 101h1v1h-1z"/><path fill="#d3eaf9" d="M28 113h1v1h-1z"/><path d="M43 66h1v1h-1zm8 20h1v1h-1z" fill="#bcdff6"/><path d="M34 74h1v1h-1zm3 14h1v1h-1z" fill="#0589dc"/><path d="M27 86h1v1h-1zm20 24h1v1h-1z" fill="#2f9ce2"/><path fill="#1f94df" d="M57 88h1v1h-1z"/><path fill="#dceefa" d="M61 96h1v1h-1z"/><path d="M70 109h1v1h-1zm19 8h1v1h-1zm61 0h1v1h-1z" fill="#0187db"/><path d="M40 108h1v1h-1zm89 6h1v1h-1z" fill="#92cbf0"/><path fill="#deeffa" d="M25 111h1v1h-1z"/><path d="M36 73h1v1h-1zm15 7h1v1h-1zm-10 5h1v1h-1zm-5 7h1v1h-1zm143 0h1v1h-1zm3 3h1v1h-1zM22 96h1v1h-1zm60 0h1v1h-1zm-63 5h1v1h-1zm149 0h1v1h-1zm-71 1h1v1h-1zm-70 1h1v1h-1zm27 5h1v1h-1zm-1 1h1v1h-1zm39 3h3v1h-3zm3 0h1v1h-1zm42 0h10v1h-10zm10 0h1v1h-1zm22 0h3v1h-3zm3 0h1v1h-1z" fill="#fdfeff"/><path fill="#f2f9fd" d="M34 76h1v1h-1z"/><path d="M52 87h1v1h-1zm32 5h1v1h-1zm89 13h1v1h-1z" fill="#8dc9ef"/><path d="M56 88h1v1h-1zm113 22h1v1h-1zm-68 6h1v1h-1z" fill="#f1f8fd"/><path fill="#0b8bdc" d="M62 96h1v1h-1z"/><path d="M125 102h1v3h-1zm0 3h1v1h-1zm-79 5h1v1h-1z" fill="#53ade7"/><path fill="#2d9ce1" d="M31 92h1v1h-1z"/><path d="M99 104h1v1h-1zm-58 3h1v1h-1zm50 5h1v1h-1z" fill="#b1daf4"/><path fill="#c7e5f7" d="M41 111h1v1h-1z"/><path d="M31 79h1v1h-1zm137 20h1v1h-1zm-151 3h1v1h-1zm156 4h1v1h-1zm-81 1h1v1h-1zm39 10h1v1h-1z" fill="#0a8bdc"/><path d="M85 92h1v1h-1zm10 7h1v1h-1zm-58 10h1v1h-1zm-13 1h1v1h-1z" fill="#f7fbfe"/><path fill="#7ec2ed" d="M41 99h1v1h-1z"/><path d="M125 101h1v1h-1zm-91 12h1v1h-1z" fill="#3ca3e4"/><path d="M35 88h1v1h-1zm58 8h1v1h-1z" fill="#ecf6fc"/><path d="M36 88h1v1h-1zm141 3h1v1h-1zM36 110h1v1h-1z" fill="#6ab8ea"/><path d="M35 89h1v1h-1zm8 20h1v1h-1z" fill="#1a92df"/><path d="M20 99h1v1h-1zm35 7h1v1h-1zm45 0h1v1h-1z" fill="#f3f9fd"/><path d="M174 104h1v1h-1zm-134 7h1v1h-1z" fill="#44a6e5"/><path fill="#9bd0f1" d="M54 107h1v1h-1z"/><path d="M179 91h1v1h-1zM30 93h1v1h-1zm51 4h1v18h-1zm-55 1h1v1h-1zm37 0h1v1h-1zm51 13h11v1h-11zm11 0h1v1h-1zm35 0h1v1h-1zm-79 4h1v1h-1z" fill="#2698e0"/><path fill="#6bb9ea" d="M23 93h1v1h-1z"/><path fill="#add8f3" d="M19 100h1v1h-1z"/><path d="M50 89h1v1h-1zm79 3h1v1h-1zM17 103h1v1h-1z" fill="#81c3ed"/><path d="M58 90h1v1h-1zm118 1h1v1h-1zM49 110h1v1h-1zm80 5h1v1h-1z" fill="#48a8e5"/><path fill="#edf6fc" d="M31 91h1v1h-1z"/><path d="M183 95h1v1h-1zm-33 3h1v17h-1zm0 17h1v1h-1z" fill="#2b9ae1"/><path fill="#f3fafd" d="M173 112h1v1h-1z"/><path d="M41 86h1v1h-1zm60 20h1v1h-1z" fill="#2a9ae1"/><path d="M55 86h1v1h-1zM21 97h1v1h-1zm148 2h1v1h-1zm3 7h1v1h-1zm-145 2h1v1h-1z" fill="#d2eaf9"/><path d="M56 87h1v1h-1zm127 10h1v1h-1zm-88 1h1v1h-1z" fill="#75beec"/><path d="M30 92h1v1h-1zm133 24h1v1h-1z" fill="#e3f2fb"/><path fill="#93ccf0" d="M168 100h1v1h-1z"/><path d="M54 106h1v1h-1zm-22 7h1v1h-1zm120 4h3v1h-3zm3 0h1v1h-1z" fill="#1590de"/><path d="M42 85h1v1h-1zm-9 9h1v1h-1zm-2 2h1v1h-1z" fill="#ddeffa"/><path fill="#bee0f6" d="M94 97h1v1h-1z"/><path fill="#359fe2" d="M42 98h1v1h-1z"/><path fill="#1892de" d="M176 117h1v1h-1z"/><path d="M37 69h1v1h-1zm133 27h1v1h-1zm-143 4h1v1h-1zm136 17h1v1h-1z" fill="#0488dc"/><path d="M32 78h1v1h-1zm22 21h1v1h-1z" fill="#4caae6"/><path d="M54 90h1v1h-1zm59 7h1v1h-1zm-9 15h1v1h-1z" fill="#a1d2f2"/><path d="M34 93h1v1h-1zm17 2h1v1h-1zm-28 9h1v1h-1zm49 10h1v1h-1z" fill="#c8e5f7"/><path fill="#d6ecf9" d="M40 105h1v1h-1z"/><path d="M50 85h1v1h-1zm-1 4h1v1h-1zm-24 2h1v1h-1zm67 14h1v1h-1zm-61 5h2v1h-2zm2 0h1v1h-1z" fill="#fcfeff"/><path d="M87 91h1v1h-1zm-52 22h1v1h-1z" fill="#6dbaea"/><path d="M63 99h1v1h-1zm40 16h1v1h-1z" fill="#b6ddf5"/><path d="M73 114h1v1h-1zm31 1h1v1h-1z" fill="#0488db"/><path d="M41 63h1v1h-1zM30 81h1v1h-1zm134 24h1v1h-1zm-125 4h1v1h-1z" fill="#2899e1"/><path d="M89 92h1v1h-1zm-66 16h1v1h-1zm-12 6h1v1h-1zm21 0h1v1h-1z" fill="#fafdfe"/><path d="M106 92h1v1h-1zm-69 21h1v1h-1z" fill="#f0f8fd"/><path fill="#e5f2fb" d="M29 93h1v1h-1z"/><path fill="#58b0e7" d="M172 94h1v1h-1z"/><path d="M25 100h1v1h-1zm46 11h1v1h-1zm85 6h1v1h-1z" fill="#148fde"/><path d="M43 85h1v1h-1zm47 18h1v1h-1z" fill="#a6d5f2"/><path d="M27 87h1v1h-1zm143 22h1v1h-1z" fill="#c2e2f6"/><path fill="#71bceb" d="M33 90h1v1h-1z"/><path fill="#a7d5f3" d="M48 95h1v1h-1z"/><path d="M126 97h1v1h-1zm-71 7h1v1h-1z" fill="#66b6e9"/><path fill="#0c8bdd" d="M74 117h1v1h-1z"/><path d="M46 70h1v1h-1zM29 94h1v1h-1z" fill="#309de2"/><path fill="#52ade7" d="M51 90h1v1h-1z"/><path d="M58 91h1v1h-1zm56 10h10v1h-10zm10 0h1v1h-1zm52 2h1v12h-1zm0 12h1v1h-1z" fill="#d7ecf9"/><path d="M54 93h1v1h-1zm-23 2h1v1h-1zm-15 9h1v1h-1zm110 7h1v1h-1zm-45 5h1v1h-1z" fill="#2598e0"/><path d="M162 108h1v1h-1zm-59 1h1v1h-1z" fill="#40a5e4"/><path fill="#42a5e4" d="M95 111h1v1h-1z"/><path fill="#dff0fb" d="M162 109h1v1h-1z"/><g fill="#0086db"><path d="M0 0h199v62H0zm199 0h1v199h-1zM0 62h199v1H0zm0 1h40v2H0zm40 0h1v1h-1zm3 0h156v1H43zm0 1h156v1H43zM0 65h39v2H0zm39 0h1v1h-1zm5 0h155v1H44zm1 1h154v1H45zM0 67h38v1H0zm38 0h1v1h-1zm7 0h154v1H45zM0 68h37v2H0zm37 0h1v1h-1zm9 0h153v1H46zm0 1h153v1H46zM0 70h36v2H0zm36 0h1v1h-1zm11 0h152v1H47zm1 1h151v1H48zM0 72h35v1H0zm35 0h1v1h-1zm13 0h151v1H48zM0 73h34v2H0zm34 0h1v1h-1zm15 0h150v1H49zm0 1h150v1H49zM0 75h33v1H0zm33 0h1v1h-1zm17 0h149v1H50zM0 76h32v2H0zm32 0h1v1h-1zm19 0h148v1H51zm0 1h148v1H51zM0 78h31v2H0zm31 0h1v1h-1zm21 0h147v1H52zm0 1h147v1H52zM0 80h30v1H0zm30 0h1v1h-1zm23 0h146v1H53zM0 81h29v2H0zm29 0h1v1h-1zm25 0h145v1H54zm0 1h145v1H54zM0 83h28v2H0zm28 0h1v1h-1zm27 0h144v1H55zm0 1h144v1H55zM0 85h27v1H0zm27 0h1v1h-1zm29 0h143v1H56zM0 86h26v2H0zm26 0h1v1h-1zm17 0h6v1h-6zm6 0h1v1h-1zm8 0h142v1H57zm-17 1h10v1H40zm10 0h1v1h-1zm7 0h142v1H57zM0 88h25v2H0zm25 0h1v1h-1zm13 0h2v1h-2zm2 0h1v1h-1zm10 0h1v1h-1zm1 0h1v1h-1zm7 0h141v1H58zm-22 1h2v1h-2zm2 0h1v1h-1zm13 0h1v1h-1zm1 0h1v2h-1zm6 0h141v1H58zM0 90h24v1H0zm24 0h1v1h-1zm11 0h1v1h-1zm1 0h1v1h-1zm17 0h1v6h-1zm6 0h140v1H59zM0 91h23v2H0zm23 0h1v1h-1zm10 0h2v1h-2zm2 0h1v1h-1zm17 0h1v1h-1zm8 0h24v1H60zm24 0h1v1h-1zm6 0h84v1H90zm84 0h1v1h-1zm6 0h19v1h-19zM32 92h1v1h-1zm1 0h1v1h-1zm27 0h22v1H60zm22 0h1v1h-1zm10 0h12v1H92zm12 0h1v17h-1zm24 0h1v107h-1zm9 0h5v18h-5zm5 0h1v18h-1zm24 0h6v2h-6zm6 0h1v1h-1zm10 0h17v1h-17zM0 93h22v2H0zm22 0h1v1h-1zm9 0h1v1h-1zm1 0h1v1h-1zm29 0h20v1H61zm20 0h1v1h-1zm12 0h11v1H93zm90 0h16v1h-16zM30 94h1v1h-1zm1 0h1v1h-1zm31 0h19v1H62zm19 0h1v1h-1zm12 0h11v1H93zm73 0h5v1h-5zm5 0h1v1h-1zm12 0h16v1h-16zM0 95h21v1H0zm21 0h1v1h-1zm8 0h1v1h-1zm1 0h1v1h-1zm22 0h1v13h-1zm10 0h18v1H62zm18 0h1v104h-1zm14 0h10v1H94zm72 0h4v2h-4zm4 0h1v1h-1zm14 0h15v104h-15zM0 96h20v2H0zm20 0h1v1h-1zm8 0h1v2h-1zm1 0h1v1h-1zm17 0h3v13h-3zm3 0h1v13h-1zm4 0h1v1h-1zm10 0h17v1H63zm32 0h9v1h-9z"/><path d="M44 97h8v11h-8zm19 0h17v1H63zm33 0h8v1h-8zm70 0h3v1h-3zm3 0h1v1h-1zM0 98h19v1H0zm19 0h1v1h-1zm8 0h1v1h-1zm1 0h1v1h-1z"/><path d="M43 98h9v10h-9zm21 0h16v1H64zm32 0h8v1h-8zm18 0h14v2h-14zm29 0h6v12h-6zm6 0h1v101h-1zm9 0h10v2h-10zm10 0h1v1h-1zM0 99h18v2H0zm18 0h1v1h-1zm8 0h1v3h-1zm1 0h1v1h-1z"/><path d="M42 99h11v9H42zm11 0h1v8h-1zm12 0h15v1H65zm32 0h7v1h-7zm-43 1h1v5h-1zm11 0h15v1H65zm33 0h6v1h-6zm16 0h14v1h-14zm44 0h9v1h-9zm9 0h1v1h-1zM0 101h17v2H0zm17 0h1v1h-1zm8 0h1v8h-1z"/><path d="M41 101h13v3H41zm25 0h14v1H66zm32 0h6v1h-6zm28 0h2v9h-2zm32 0h8v1h-8zm8 0h1v1h-1zm-140 1h1v1h-1zm40 0h14v1H66zm33 0h5v1h-5zm59 0h7v2h-7zm7 0h1v1h-1zM0 103h16v1H0zm16 0h1v1h-1zm51 0h13v1H67zm33 0h4v1h-4zM0 104h15v2H0zm15 0h1v1h-1zm9 0h1v3h-1zm17 0h13v1H41zm27 0h12v1H68zm33 0h3v1h-3zm57 0h6v1h-6zm6 0h1v1h-1zm11 0h1v95h-1zm-121 1h1v1h-1zm14 0h12v1H68zm22 0h1v94h-1zm11 0h3v1h-3zm57 0h5v2h-5zm5 0h1v1h-1zm11 0h1v6h-1zM0 106h14v2H0zm14 0h1v1h-1zm55 0h11v1H69zm22 0h1v4h-1zm11 0h2v1h-2zm-78 1h1v1h-1zm29 0h1v1h-1zm16 0h11v1H69zm34 0h1v1h-1z"/><path d="M114 107h14v3h-14zm44 0h4v1h-4zm4 0h1v1h-1zm11 0h2v3h-2zM0 108h13v1H0zm13 0h1v1h-1zm29 0h10v1H42zm10 0h1v1h-1zm18 0h10v1H70zm22 0h1v2h-1zm11 0h1v1h-1zm55 0h3v1h-3zm3 0h1v1h-1z"/><path d="M172 108h3v2h-3zM0 109h12v2H0zm12 0h1v1h-1zm13 0h1v1h-1zm1 0h1v1h-1zm14 0h2v1h-2zm2 0h1v1h-1zm3 0h5v1h-5zm5 0h1v1h-1zm21 0h9v1h-9zm22 0h1v1h-1zm11 0h1v1h-1zm54 0h2v90h-2zm2 0h1v1h-1zm-134 1h1v1h-1zm1 0h1v1h-1zm11 0h2v1h-2zm2 0h1v1h-1zm31 0h9v1h-9zm20 0h2v1h-2zm2 0h1v1h-1zm21 0h14v1h-14zm23 0h12v1h-12zm34 0h4v1h-4zM0 111h11v2H0zm11 0h1v1h-1zm16 0h2v1h-2zm2 0h1v1h-1zm6 0h4v1h-4zm4 0h1v1h-1zm33 0h8v1h-8zm102 0h1v1h-1zm-145 1h7v1h-7zm7 0h1v1h-1zm36 0h8v1h-8zm-72 1h10v1H0zm10 0h1v1h-1zm63 0h7v1h-7zm-73 1h9v85H0zm9 0h1v1H9zm65 0h6v1h-6zm0 1h6v1h-6zm31 0h1v84h-1zm55 0h1v84h-1zm-85 1h5v83h-5zm29 0h1v83h-1zm25 0h1v83h-1z"/><path d="M102 117h5v82h-5zm5 0h1v82h-1zm20 0h3v82h-3zm3 0h1v82h-1zm31 0h1v82h-1zm1 0h1v82h-1zm12 0h1v82h-1z"/><path d="M9 118h190v81H9zm-9 81h199v1H0zm199 0h1v1h-1z"/></g><path d="M45 68h1v1h-1zM28 84h1v1h-1zm9 6h1v1h-1zm68 2h1v1h-1zm-13 1h1v1h-1zm12 17h1v1h-1zm44 1h1v1h-1zm-43 3h1v1h-1z" fill="#0f8ddd"/><path d="M33 76h1v1h-1zm27 17h1v1h-1zm-50 24h63v1H10zm63 0h1v1h-1zm10 0h4v1h-4zm4 0h1v1h-1zm5 0h7v1h-7zm7 0h1v1h-1zm10 0h16v1h-16zm16 0h1v1h-1zm7 0h14v1h-14zm14 0h1v1h-1zm19 0h7v1h-7zm7 0h1v1h-1zm5 0h5v1h-5zm5 0h1v1h-1z" fill="#2196e0"/><path d="M182 94h1v1h-1zM16 105h1v1h-1z" fill="#b7ddf5"/><path d="M28 95h1v1h-1zm63 10h1v1h-1z" fill="#46a7e5"/><path d="M23 103h1v1h-1zm108 13h1v1h-1z" fill="#eff8fd"/></svg>