<svg xmlns="http://www.w3.org/2000/svg" role="img" viewBox="23.95 27.95 808.60 187.60"><title>Design Barn Inc logo</title><defs><linearGradient id="a" x1=".261%" x2="95.394%" y1="10.304%" y2="72.462%"><stop offset="0%" stop-color="#2BEAED"/><stop offset="100%" stop-color="#0FCCCE"/></linearGradient></defs><g transform="translate(39.608 43.766)" fill="none" fill-rule="evenodd" stroke="none" stroke-width="1"><rect width="156.235" height="156.644" x="0" y="0" fill="url(#a)" fill-rule="nonzero" rx="12.688"/><path fill="#FFF" fill-rule="nonzero" d="M119.0516 30.8255c4.28535.63488 7.2434 4.62882 6.611 8.9189-.6326 4.29152-4.61907 7.2589-8.90585 6.62382-7.59092-1.1246-18.96301 10.69648-31.69478 35.00287-16.25369 31.03014-31.38233 45.81476-47.30988 44.63493-4.32057-.32005-7.56167-4.08778-7.2429-8.41292.31884-4.32587 4.07834-7.57618 8.39964-7.25608 7.86529.58262 19.41813-11.74206 32.26384-36.26597 16.35766-31.22864 31.69161-45.6437 47.87892-43.24555z"/><g transform="translate(193.071 29.291)"><path fill="#18C8CA" d="M.25404 94.24128V3.8206h18.16392v74.50156h39.8844v15.91913H.25405zm98.44082 1.14618c-19.81519 0-33.0253-13.62678-33.0253-32.22033 0-18.59355 13.21011-32.09298 33.0253-32.09298 19.3071 0 32.89828 12.99002 32.89828 32.09298 0 18.97561-13.59118 32.22033-32.89828 32.22033zm0-15.02766c8.89143 0 16.00457-7.00442 16.00457-17.19267s-6.8591-17.19267-16.00457-17.19267c-9.65355 0-16.1316 7.38648-16.1316 17.19267 0 9.67884 6.60507 17.19267 16.1316 17.19267zm61.98596 15.02766c-10.66972 0-17.65584-6.74971-17.65584-20.75855V45.8471h-7.36718V31.96562h7.36718V11.71648l16.63967-1.78294v22.03208h16.7667v13.8815h-16.7667V72.2092c0 5.47618 1.39723 8.02324 5.33486 8.02324 2.03233 0 5.08082-.76411 7.87527-2.165l4.19167 13.37208c-3.93763 2.165-8.00229 3.94794-16.38563 3.94794zm46.87053 0c-10.66972 0-17.65584-6.74971-17.65584-20.75855V45.8471h-7.36718V31.96562h7.36718V11.71648l16.63967-1.78294v22.03208h16.7667v13.8815h-16.7667V72.2092c0 5.47618 1.39723 8.02324 5.33486 8.02324 2.03233 0 5.08082-.76411 7.87527-2.165l4.19167 13.37208c-3.93763 2.165-8.00229 3.94794-16.38563 3.94794zm36.96294-71.82714c-6.09698 0-10.5427-4.58471-10.5427-10.3156 0-5.60353 4.44572-10.18825 10.5427-10.18825 5.96995 0 10.54269 4.58472 10.54269 10.18825 0 5.73089-4.57274 10.3156-10.5427 10.3156zm-8.51037 70.68096V31.96562h16.63967v62.27566h-16.63967zm87.89812-31.71091c0 2.03764-.25404 4.96677-.38106 5.98559h-43.568c2.03233 7.51383 8.00228 11.97119 16.38563 11.97119 6.98612 0 11.8129-2.92912 15.11543-7.00442l10.79674 10.0609c-5.20784 6.7497-13.21013 11.84383-27.05535 11.84383-19.05306 0-32.51723-12.86266-32.51723-32.34768 0-18.97561 13.0831-31.96563 31.50106-31.96563 17.52882 0 29.72278 13.24472 29.72278 31.45622zm-29.8498-16.93797c-6.73208 0-12.06693 3.8206-13.97224 10.95237h27.30939c-1.65127-6.62236-6.09698-10.95237-13.33714-10.95237z"/><path fill="#006B78" d="M335.84196 94.24128V3.8206h59.82661v15.91914H353.4978V43.9368h35.18465v16.0465H353.4978v34.25797h-17.65584zm82.1822-70.68096c-6.09698 0-10.5427-4.58471-10.5427-10.3156 0-5.60353 4.44572-10.18825 10.5427-10.18825 5.96996 0 10.5427 4.58472 10.5427 10.18825 0 5.73089-4.57274 10.3156-10.5427 10.3156zm-8.51036 70.68096V31.96562h16.63967v62.27566H409.5138zm30.23085 0V.50941h16.63968v93.73187h-16.63968zm87.89813-31.71091c0 2.03764-.25405 4.96677-.38107 5.98559h-43.568c2.03233 7.51383 8.00229 11.97119 16.38564 11.97119 6.98612 0 11.8129-2.92912 15.11543-7.00442l10.79673 10.0609c-5.20784 6.7497-13.21012 11.84383-27.05535 11.84383-19.05306 0-32.51722-12.86266-32.51722-32.34768 0-18.97561 13.0831-31.96563 31.50106-31.96563 17.52882 0 29.72278 13.24472 29.72278 31.45622zm-29.8498-16.93797c-6.73208 0-12.06694 3.8206-13.97224 10.95237h27.30938c-1.65126-6.62236-6.09698-10.95237-13.33714-10.95237zm62.8751 49.79506c-9.90759 0-18.41796-3.31118-25.15004-9.16942l8.00229-11.58913c5.08081 4.71206 10.41567 7.13177 17.27477 7.13177 4.82678 0 7.4942-2.03765 7.4942-5.09412 0-2.67442-3.1755-4.0753-11.17779-6.74972-10.28865-3.43853-19.18008-8.27795-19.18008-20.37649 0-11.20707 9.65355-18.4662 22.48261-18.4662 8.51037 0 15.4965 2.29236 22.60963 7.76854l-8.1293 12.35325c-4.69976-4.58471-10.28866-6.62236-14.86139-6.62236-2.5404 0-5.84294 1.27353-5.84294 4.58471 0 2.54706 3.0485 4.33 9.14547 6.62236 13.46416 4.96677 21.33943 7.8959 21.33943 20.24914 0 10.95237-7.74825 19.35767-24.00686 19.35767z"/></g></g></svg>