<svg xmlns="http://www.w3.org/2000/svg" role="img" viewBox="-11.83 26.17 667.16 575.66"><title>dimitra logo</title><g fill="#117443"><path d="M288.5 40.5c-20.3 3-44.2 10.9-61.5 20.2-35.9 19.3-62.9 47.2-81 83.8-8.9 18-13.1 29.7-16.5 46.3-6.7 31.8-5.1 64.3 4.6 95.6 3.2 10.2 11.5 30.2 13 31.1.9.6 14-2.4 15.2-3.5.4-.3-.6-3.5-2.2-7.1-4.2-9.3-8.6-23.8-11.3-36.9-2-10.1-2.3-14.3-2.3-34.5.1-21.1.3-24 2.8-35.6 8-37.7 25.9-69.8 53.5-96 13.2-12.6 25.9-21.5 42.4-29.8 52.5-26.4 111.5-26.7 163.8-.7 20.8 10.3 37.6 23.2 55.9 43.1 8.2 8.9 8.3 8.5.2-2.5-6.9-9.4-22.3-25.3-32.1-33.3-26.4-21.3-58.8-35.4-92.5-40.2-12.4-1.8-39.8-1.8-52 0z"/><path fill="#53B047" d="M347.5 74.7c-5.5.7-18.9 3.5-21.5 4.5-2.3.9-2 1.1 4.6 3.7 15 5.8 26 15.7 44 39.3 19.1 25 30.1 34.5 46.1 39.4 7.6 2.4 9.5 2.6 21.3 2.2 7.7-.2 13.4-.8 14.1-1.5 1.5-1.5-2.4-10.1-9.6-20.8-5.5-8.3-16.7-19.8-24.6-25.2-7.1-4.9-19.6-10.9-30.1-14.5-9.3-3.1-12.4-4.9-7.5-4.2 9.8 1.4 17.4 3.1 24.4 5.6 39.3 13.7 65.3 49.9 73.4 102.3 1.6 10.3 1.6 36.7 0 47-8.6 55.4-41.7 101.6-90.9 126.6-26.8 13.7-59.9 20.4-87.9 17.9-40.1-3.7-75.9-19.3-102.7-44.9-3.8-3.6-6.4-5.7-5.8-4.6 1.8 3.4 21.3 21.9 29.2 27.6 34.9 25.4 75 37.1 116 33.9 78.8-6 142-62 158.1-140 2.1-10.1 2.4-14.1 2.3-33 0-19.4-.3-22.7-2.7-34.2C483.6 135 434.6 84.3 375.8 75.6c-9.8-1.5-21.1-1.8-28.3-.9z"/><path d="M380 169.6c-4.1 2-10.4 4.5-13.9 5.5-7.2 2.1-28.3 5.4-40.6 6.4-4.4.4-14.3 1.6-22 2.7-12.2 1.8-16.1 1.9-30.5 1.2-9.1-.5-26.8-.9-39.5-.9-22.7 0-23.1 0-28.6 2.6-11.1 5.2-14.2 14.3-15.9 46.9-.7 12.6-1.5 19.3-3 24-2.1 6.7-2.6 17.8-1 21.5.7 1.6.9 1 1.1-2.5l.2-4.5.7 5.5c.4 3 .5 7.1.3 9-.4 3.3-.4 3.4 1.1 1.6 5.7-7.1 8.3-26.2 5.1-37.2-1.4-4.8-1.6-7.9-1-16.2 1-14.9 2.1-17.7 2.7-7.1.3 7.2.9 9.6 3.7 14.9 3.6 6.9 3.7 9.6.5 18.4-1.5 4.4-1.6 6.1-.6 18 .7 7.2 1.2 16.6 1.2 20.8 0 7 .2 7.8 1.9 7.8 1.6 0 3.7 2.7 2.8 3.6-.2.2-6.1 1.5-13.3 2.9-43.1 8.7-81.8 21.4-111.7 36.7-5.4 2.8-9.6 5.2-9.4 5.5.3.2 6.3-1.4 13.3-3.6 13.4-4.2 36.3-10.3 44.9-12.1 2.8-.5 10.4-2.1 17-3.4 10.2-2.1 12.1-2.2 12.8-1 .4.7 3.4 4.6 6.6 8.6 30.4 38.3 73.2 63.2 120.8 70.3 15.4 2.3 18.3 1.7 5.4-1.2-37.2-8-68.3-25.2-94.2-51.9-11.2-11.6-24.2-28.6-22.7-29.9.6-.5 22.4-3.5 40.3-5.5 65.2-7.2 138.2-7 204.3.6 12.3 1.5 22.4 2.5 22.6 2.3 4.5-5.8 8.8-12.1 8.4-12.4-.7-.7-13.8-3.3-30.1-6-13.4-2.2-25.5-3.7-47.7-6-6.3-.7-6.6-.9-9.8-5.2-5.4-7.3-7.4-15.6-6.7-27.1.3-5.3 1-11.3 1.5-13.2.9-3.3.9-3.3.6 1.2-.2 2.6-.1 4.9.1 5.2.9.9 13.2-11.6 14.8-15.1.9-1.9 2.2-6.4 2.7-9.9 1.9-11 9.8-21.4 16.4-21.4 1.2 0 5.2-1.6 8.8-3.5 3.7-1.9 7.5-3.5 8.7-3.5 1.1 0 3.8-.9 5.9-2 3.8-1.9 4-2.3 4-6.5 0-2.4-.5-4.7-1-5-2.5-1.5-9-10.8-9-12.8 0-1.2 1.9-3.8 4.5-6.3 6.3-5.7 6-6.6-2.3-6.3-5.7.3-7.3 0-9.9-1.9-3.4-2.4-11.1-6.1-12.8-6.2-.6 0-4.4 1.6-8.5 3.6zm-124.5 89.6c11.2 3.3 15.5 5.6 18.6 9.9 2.5 3.5 4.3 3.7 6.4.5 2.1-3.2 15.7-9.3 23.5-10.5 10.2-1.7 17.9-1.3 22.5.9 3.2 1.6 3.4 1.9 1.3 1.5-3.3-.6-3.2-1.3-1.2 9.2 1.2 6.7 1.3 9.8.5 15.3-1.4 9.1-1.4 11 .4 11 .9 0 1.4.9 1.2 2.9l-.2 2.8-27.5.7c-15.1.4-31.9 1.1-37.3 1.6-9.7 1-9.9.9-13.2-1.6-2.1-1.6-5.4-6.3-8.5-12.2-4.8-8.9-5.1-9.9-4.7-15.1.3-3.1 1.5-8.4 2.7-11.9 2.3-6.1 2.3-6.3.4-7.7-1.7-1.3-1.6-1.4 1.6-.8 1.9.3 8 1.9 13.5 3.5zm-31.1 3c-.8 2.4-2.1 5.3-2.9 6.5-2.3 3.4-1.9 5 2.9 12.7 5 8.1 9.2 16.8 10.1 20.9.3 1.6 1.5 3.1 2.8 3.6 2.9 1.2 1.5 1.6-10.2 3l-9.5 1.2-2.5-2.5c-2.8-2.8-4.9-10.8-5-18.7-.1-5.5 3.2-14.2 6.9-18.4 1.5-1.7 4-5.1 5.5-7.8 1.5-2.6 2.9-4.7 3.1-4.7.1 0-.4 1.9-1.2 4.2zM347.2 292c.7 5.2 1.6 8.8 2.5 9.3 2.1 1.3.5 2.7-3 2.7-2.6 0-3.9-.8-6.3-4-3-3.8-3.1-4.3-3-13.7.1-5.6.7-11.1 1.5-12.8l1.3-3 2.9 6.5c1.9 4.1 3.4 9.6 4.1 15zM481 331.1c-1.7 2.8-3 5.2-2.8 5.3.2.2 5.3 1.3 11.3 2.5 13.9 2.8 46.1 11.1 58.5 15 5.2 1.7 9.6 2.8 9.9 2.6.6-.7-28.7-14.6-39.9-19-7.7-3.1-32.4-11.5-33.5-11.5-.2 0-1.7 2.3-3.5 5.1zm92 170.1c-4.1 9.5-14.3 32.8-22.6 51.8s-15 34.8-14.7 35.3c.2.4 4.2.7 8.8.7 9.9 0 9 .9 15.5-14.8l4.3-10.2h49.3l5.1 12.2 5.1 12.3 9.6.3c5.3.1 9.6-.1 9.6-.6s-2-5.3-4.4-10.8c-2.5-5.4-11.5-26.1-20.1-45.9-8.6-19.8-16.8-38.6-18.2-41.8l-2.6-5.7H580.4l-7.4 17.2zm24.9 26.1c4.5 10.3 8.1 19 8.1 19.2 0 .3-7.6.5-17 .5-9.3 0-17-.3-17-.7 0-2 16.6-39.1 17.2-38.5.4.4 4.3 9.1 8.7 19.5zM1 537.1v52.1l25.8-.5c22.7-.4 26.5-.7 32.3-2.6 17-5.5 30.1-19.1 34.4-35.8 1.7-6.6 1.9-19.7.4-26.3-3.2-14-13.7-27-26.9-33.2-10.8-5.2-15.3-5.8-42-5.8H1v52.1zm56.3-31.6c7 3.5 12 8.8 15.6 16.4 2.2 4.8 2.6 6.9 2.5 15.1 0 8.1-.4 10.3-2.6 15.2-3.5 7.5-10.3 14.1-17.6 16.9-4.7 1.9-8.3 2.3-20.4 2.7l-14.8.4v-70.4l15.8.4c15 .3 15.9.4 21.5 3.3zm60.9 31.2l.3 51.8h18l.3-51.8.2-51.7h-19l.2 51.7zm46 0l.3 51.8h18l.5-36 .5-36 15.5 23.2c8.5 12.8 15.8 23.2 16.1 23.3.3 0 7.8-10.6 16.5-23.6l15.9-23.6.5 36.4.5 36.3h18l.3-51.8.2-51.7h-10.2l-10.3.1-15.1 23.6c-8.2 12.9-15.4 23.6-15.9 23.5-.5 0-7.7-10.5-16-23.3l-15-23.4-10.3-.3-10.2-.3.2 51.8zm130 0l.3 51.8h18l.3-51.8.2-51.7h-19l.2 51.7zm38.8-43.2v8.5h33v87h18l.2-43.3.3-43.2 16.3-.3 16.2-.2v-17h-84v8.5zm103.2 43.2l.3 51.8h18l.3-17.8.2-17.7h22.9l12.6 18 12.6 18h10.6c8.5 0 10.4-.3 10-1.4-.3-.7-6.2-9.3-13.1-19-6.9-9.7-12.6-18-12.6-18.4 0-.4 2.1-1.7 4.8-2.9 13.9-6.4 20.9-20.3 18.1-35.7-1.3-7.5-3.7-12.1-8.6-16.7-9.2-8.8-14.5-9.9-48.6-9.9H436l.2 51.7zm58.8-32.2c4.8 2.9 7.4 7.8 7.4 14 0 6.4-2.4 10.8-7.6 14.3-4.1 2.7-4.5 2.7-22 3l-17.8.4v-34.4l18.3.4c16.1.3 18.6.5 21.7 2.3z"/></g></svg>