<svg xmlns="http://www.w3.org/2000/svg" role="img" viewBox="11.25 4.25 715.00 232.00"><title>DLT Global Inc. logo</title><g fill="#fff"><path d="M25 18h1v1h-1zm1 0h102v1H26zm102 0h1v1h-1zm1 0h1v1h-1zm94 0h1v1h-1zm1 0h47v1h-47zm47 0h1v1h-1zm1 0h1v1h-1zm35 0h1v1h-1zm1 0h181v1H308zm181 0h1v1h-1zm1 0h1v1h-1zM25 19h1v202h-1zm1 0h106v36H26zm106 0h1v38h-1zm1 0h1v1h-1zm1 0h1v1h-1zm1 0h1v1h-1zm1 0h1v1h-1zm1 0h1v1h-1zm1 0h1v1h-1zm1 0h1v1h-1zm1 0h1v1h-1zm83 0h1v81h-1zm1 0h47v202h-47zm47 0h1v202h-1zm1 0h1v164h-1zm35 0h1v36h-1zm1 0h181v36H308zm181 0h1v36h-1zm1 0h1v36h-1zm-357 1h8v38h-8zm8 0h1v40h-1zm1 0h1v1h-1zm1 0h1v1h-1zm1 0h1v1h-1zm1 0h1v1h-1zm1 0h1v1h-1zm-4 1h5v40h-5zm5 0h1v42h-1zm1 0h1v1h-1zm1 0h1v1h-1zm1 0h1v1h-1zm1 0h1v1h-1zm-3 1h3v41h-3zm3 0h1v43h-1zm1 0h1v1h-1zm1 0h1v1h-1zm1 0h1v1h-1zm1 0h1v1h-1zm-3 1h3v43h-3zm3 0h1v45h-1zm1 0h1v1h-1zm1 0h1v1h-1zm1 0h1v1h-1zm1 0h1v1h-1zm-3 1h3v45h-3zm3 0h1v48h-1zm1 0h1v1h-1zm1 0h1v1h-1zm1 0h1v1h-1zm-2 1h2v48h-2zm2 0h1v50h-1zm1 0h1v1h-1zm1 0h1v1h-1zm1 0h1v1h-1zm-2 1h2v51h-2zm2 0h1v54h-1zm1 0h1v1h-1zm1 0h1v1h-1zm-1 1h1v55h-1zm1 0h1v56h-1zm1 0h1v1h-1zm1 0h1v1h-1zm1 0h1v1h-1zm-2 1h2v58h-2zm2 0h1v63h-1zm1 0h1v1h-1zm1 0h1v1h-1zm-1 1h1v65h-1zm1 0h1v69h-1zm1 0h1v1h-1zm1 0h1v1h-1zm-1 1h1v73h-1zm1 0h1v81h-1zm1 0h1v1h-1zm1 0h1v1h-1zm-1 1h1v178h-1zm1 0h1v178h-1zm1 0h1v1h-1zm1 0h1v1h-1zm-1 1h1v176h-1zm1 0h1v176h-1zm1 0h1v1h-1zm1 0h1v1h-1zm-1 1h1v174h-1zm1 0h1v1h-1zm1 0h1v1h-1zm-1 1h1v172h-1zm1 0h1v172h-1zm1 0h1v1h-1zm1 0h1v1h-1zm-1 1h1v170h-1zm1 0h1v169h-1zm1 0h1v1h-1zm0 1h1v168h-1zm1 0h1v1h-1zm1 0h1v1h-1zm-1 1h1v166h-1zm1 0h1v165h-1zm1 0h1v1h-1zm0 1h1v164h-1zm1 0h1v1h-1zm1 0h1v1h-1zm-1 1h1v162h-1zm1 0h1v1h-1zm1 0h1v1h-1zm-1 1h1v160h-1zm1 0h1v159h-1zm1 0h1v1h-1zm0 1h1v157h-1zm1 0h1v1h-1zm0 1h1v156h-1zm1 0h1v1h-1zm1 0h1v1h-1zm-1 1h1v154h-1zm1 0h1v1h-1zm1 0h1v1h-1zm-1 1h1v152h-1zm1 0h1v1h-1zm1 0h1v1h-1zm-1 1h1v150h-1zm1 0h1v1h-1zm1 0h1v1h-1zm-1 1h1v148h-1zm1 0h1v1h-1zm1 0h1v1h-1zm-1 1h1v146h-1zm1 0h1v1h-1zm1 0h1v1h-1zm-1 1h1v144h-1zm1 0h1v1h-1zm1 0h1v1h-1zm-1 1h1v142h-1zm1 0h1v1h-1zm0 1h1v140h-1zm1 0h1v1h-1zm0 1h1v137h-1zm1 0h1v1h-1zm0 1h1v135h-1zm1 0h1v1h-1zm0 1h1v1h-1zm1 0h1v1h-1zm-1 1h1v132h-1zm1 0h1v1h-1zm1 0h1v1h-1z"/><path d="M26 55h178v1H26zm178 0h1v130h-1zm1 0h1v1h-1zm102 0h1v1h-1zm1 0h181v1H308zm181 0h1v1h-1zm1 0h1v1h-1zM26 56h48v165H26zm48 0h1v165h-1zm1 0h37v1H75zm37 0h1v1h-1zm1 0h1v1h-1zm1 0h3v1h-3zm3 0h1v1h-1zm1 0h1v1h-1z"/><path d="M119 56h86v1h-86zm86 0h1v127h-1zm1 0h1v1h-1zm101 0h1v1h-1zm1 0h87v1h-87zm87 0h1v1h-1zm1 0h48v165h-48zm48 0h1v165h-1zm1 0h1v1h-1zm1 0h43v1h-43zm43 0h1v1h-1zm1 0h1v1h-1zm-369 1h1v1h-1zm1 0h1v1h-1zm1 0h1v1h-1zm1 0h1v1h-1zm1 0h1v1h-1zm1 0h1v1h-1zm1 0h1v1h-1zm1 0h77v1h-77zm78 0h1v1h-1zm1 0h1v1h-1zm238 0h1v164h-1zm-316 1h1v1h-1zm1 0h1v1h-1zm1 0h1v1h-1zm1 0h1v1h-1z"/><path d="M133 58h73v1h-73zm73 0h1v124h-1zm1 0h1v1h-1zm-74 1h1v1h-1zm1 0h1v1h-1zm1 0h1v1h-1zm1 0h1v1h-1z"/><path d="M137 59h70v1h-70zm70 0h1v121h-1zm1 0h1v1h-1zm-71 1h1v1h-1zm1 0h1v1h-1zm1 0h1v1h-1zm1 0h67v1h-67zm68 0h1v1h-1zm1 0h1v1h-1zm-69 1h1v1h-1zm1 0h1v1h-1z"/><path d="M142 61h66v1h-66zm66 0h1v118h-1zm1 0h1v1h-1zm-67 1h1v1h-1zm1 0h1v1h-1zm1 0h1v1h-1z"/><path d="M145 62h64v1h-64zm64 0h1v115h-1zm1 0h1v1h-1zm-65 1h1v1h-1zm1 0h1v1h-1zm1 0h62v1h-62zm63 0h1v1h-1zm-63 1h1v1h-1zm1 0h1v1h-1z"/><path d="M149 64h61v1h-61zm61 0h1v111h-1zm1 0h1v1h-1zm-63 1h1v1h-1zm1 0h1v1h-1zm1 0h60v1h-60zm61 0h1v1h-1zm1 0h1v1h-1zm-62 1h1v1h-1zm1 0h1v1h-1z"/><path d="M152 66h59v1h-59zm59 0h1v107h-1zm1 0h1v1h-1zm-60 1h1v1h-1zm1 0h58v1h-58zm59 0h1v1h-1zm1 0h1v1h-1zm-60 1h1v1h-1zm1 0h1v1h-1z"/><path d="M155 68h57v1h-57zm57 0h1v103h-1zm1 0h1v1h-1zm-59 1h1v1h-1zm1 0h1v1h-1zm1 0h56v1h-56zm57 0h1v1h-1zm1 0h1v1h-1zm-59 1h1v1h-1zm1 0h1v1h-1z"/><path d="M157 70h56v1h-56zm56 0h1v99h-1zm1 0h1v1h-1zm-57 1h1v1h-1zm1 0h55v1h-55zm56 0h1v1h-1zm-56 1h1v1h-1z"/><path d="M159 72h55v1h-55zm55 0h1v95h-1zm1 0h1v1h-1zm-56 1h1v1h-1zm1 0h54v1h-54zm55 0h1v1h-1zm-55 1h1v1h-1z"/><path d="M161 74h54v1h-54zm54 0h1v91h-1zm1 0h1v1h-1zm-56 1h1v1h-1zm1 0h1v1h-1zm1 0h53v1h-53zm54 0h1v1h-1zm-55 1h1v1h-1zm1 0h1v1h-1zm54 0h1v86h-1zm1 0h1v1h-1zm-55 1h1v1h-1z"/><path d="M163 77h53v1h-53zm54 0h1v1h-1zm-54 1h1v1h-1zm1 0h52v1h-52zm53 0h1v1h-1zm-54 1h1v1h-1zm1 0h1v1h-1zm53 0h1v80h-1zm1 0h1v1h-1zm-54 1h1v1h-1zm1 0h52v1h-52zm53 0h1v1h-1zm-53 1h1v1h-1zm53 0h1v1h-1zm-53 1h1v1h-1z"/><path d="M166 82h52v1h-52zm52 0h1v74h-1zm1 0h1v1h-1zm-53 1h1v1h-1zm1 0h51v1h-51zm52 0h1v1h-1zm-53 1h1v1h-1zm1 0h1v1h-1zm52 0h1v1h-1zm-52 1h1v1h-1zm52 0h1v68h-1zm-52 1h1v1h-1z"/><path d="M168 86h51v1h-51zm52 0h1v1h-1zm-52 1h1v1h-1zm1 0h50v1h-50zm51 0h1v1h-1zm-52 1h1v1h-1zm1 0h50v1h-50zm51 0h1v1h-1zm-51 1h1v1h-1zm51 0h1v60h-1zm-51 1h1v1h-1zm52 0h1v1h-1zm-52 1h1v1h-1zm1 0h50v1h-50zm51 0h1v1h-1zm-51 1h1v1h-1zm51 0h1v1h-1zm-51 1h1v1h-1zm51 0h1v1h-1zm-51 1h1v1h-1z"/><path d="M171 94h50v1h-50zm50 0h1v50h-1zm1 0h1v1h-1zm-51 1h1v1h-1zm51 0h1v1h-1zm-51 1h1v1h-1zm51 0h1v1h-1zm-51 1h1v1h-1zm51 0h1v1h-1zm-51 1h1v1h-1zm1 0h49v1h-49zm50 0h1v1h-1zm-50 1h1v1h-1zm50 0h1v1h-1zm-50 1h1v1h-1zm50 0h49v1h-49zm-50 1h1v1h-1zm50 0h49v1h-49zm-50 1h1v1h-1zm50 0h49v1h-49z"/><path d="M173 103h49v1h-49zm49 0h49v1h-49zm-49 1h1v1h-1zm49 0h49v1h-49zm-49 1h1v1h-1zm49 0h49v1h-49zm-49 1h1v1h-1zm49 0h49v1h-49zm-49 1h1v1h-1zm49 0h49v1h-49zm-49 1h1v1h-1zm49 0h49v20h-49zm-49 1h1v1h-1z"/><path d="M174 111h97v1h-97zm0 1h1v1h-1zm0 1h1v1h-1zm0 1h1v1h-1zm0 1h1v1h-1zm0 1h1v5h-1zm0 5h1v1h-1zm0 1h1v1h-1zm0 1h1v1h-1zm0 1h1v1h-1zm0 1h1v5h-1zm48 3h49v1h-49zm0 1h49v1h-49zm-48 1h1v1h-1zm48 0h49v1h-49zm-48 1h1v1h-1zm48 0h49v1h-49zm-48 1h1v1h-1zm48 0h49v1h-49zm-48 1h1v1h-1zm48 0h49v1h-49zm-48 1h48v10h-48zm48 0h49v1h-49zm0 1h49v1h-49zm-49 1h1v1h-1zm49 0h49v1h-49zm-49 1h1v1h-1zm49 0h49v1h-49zm-49 1h1v1h-1zm49 0h49v1h-49zm-49 1h1v1h-1zm49 0h1v1h-1zm1 0h1v82h-1zm-50 1h1v1h-1zm49 0h1v1h-1z"/><path d="M173 141h48v8h-48zm49 0h1v1h-1zm-50 1h1v1h-1zm50 0h1v1h-1zm-50 1h1v1h-1zm50 0h1v1h-1zm-50 1h1v1h-1zm49 0h1v1h-1zm-49 1h1v1h-1zm49 0h1v1h-1zm-50 1h1v1h-1z"/><path d="M172 146h48v7h-48zm49 0h1v1h-1zm-50 1h1v1h-1zm50 0h1v1h-1zm-50 1h1v1h-1zm50 0h1v1h-1zm-51 1h1v1h-1z"/><path d="M171 149h49v4h-49zm49 0h1v1h-1zm-50 1h1v1h-1zm50 0h1v1h-1zm-50 1h1v1h-1zm50 0h1v1h-1zm-51 1h1v1h-1z"/><path d="M170 152h49v4h-49zm50 0h1v1h-1zm440 0h1v2h-1zm1 0h19v2h-19zm19 0h1v2h-1zm1 0h1v2h-1zm4 0h1v20h-1zm1 0h6v4h-6zm6 0h1v8h-1zm1 0h1v1h-1zm12 0h1v1h-1zm1 0h5v4h-5zm5 0h1v20h-1zm1 0h1v20h-1zm-543 1h1v1h-1zm50 0h1v1h-1zm474 0h1v1h-1zm11 0h1v1h-1z"/><path d="M705 153h6v3h-6zm-537 1h1v1h-1zm1 0h49v5h-49zm50 0h1v1h-1zm406 0h1v1h-1zm1 0h1v1h-1zm1 0h1v1h-1zm1 0h1v1h-1zm1 0h2v1h-2zm2 0h1v1h-1zm1 0h1v4h-1zm1 0h1v4h-1zm1 0h1v1h-1zm1 0h1v1h-1zm1 0h1v1h-1zm1 0h1v1h-1zm1 0h1v1h-1zm1 0h1v1h-1zm1 0h1v1h-1zm20 0h1v1h-1zm1 0h19v1h-19zm19 0h1v1h-1zm1 0h1v1h-1zm12 0h1v1h-1zm1 0h1v1h-1zm10 0h1v1h-1zm-536 1h1v1h-1zm51 0h1v1h-1zm237 0h5v1h-5zm5 0h1v1h-1zm1 0h1v1h-1zm58 0h1v1h-1zm1 0h5v1h-5zm5 0h1v1h-1zm1 0h1v1h-1zm27 0h1v1h-1zm1 0h30v1h-30zm30 0h1v1h-1zm1 0h1v1h-1zm1 0h1v1h-1zm1 0h1v1h-1zm34 0h1v1h-1zm1 0h1v1h-1zm1 0h1v1h-1z"/><path d="M625 155h15v3h-15zm15 0h1v4h-1zm1 0h1v1h-1zm1 0h1v1h-1zm1 0h1v1h-1zm1 0h1v1h-1zm16 0h1v1h-1zm1 0h6v1h-6zm6 0h1v1h-1zm1 0h1v1h-1zm1 0h3v17h-3zm3 0h1v17h-1zm1 0h1v1h-1zm1 0h6v1h-6zm6 0h1v1h-1zm1 0h1v1h-1zm12 0h1v7h-1zm1 0h1v1h-1zm9 0h1v1h-1zm1 0h7v1h-7zm-537 1h1v1h-1zm1 0h1v1h-1zm50 0h1v1h-1zm1 0h1v1h-1zm237 0h5v63h-5zm5 0h1v63h-1zm1 0h1v58h-1zm57 0h1v1h-1zm1 0h6v5h-6zm6 0h1v12h-1zm1 0h1v1h-1zm27 0h1v63h-1zm1 0h34v4h-34zm34 0h1v4h-1zm1 0h1v1h-1zm1 0h1v1h-1zm1 0h1v1h-1zm28 0h1v1h-1zm1 0h1v1h-1z"/><path d="M622 156h21v2h-21zm21 0h1v5h-1zm1 0h1v1h-1zm1 0h1v1h-1zm1 0h1v1h-1zm22 0h1v16h-1zm5 0h1v16h-1zm13 0h7v1h-7zm8 0h1v1h-1zm9 0h1v1h-1zm1 0h7v1h-7zm-537 1h1v1h-1zm1 0h49v5h-49zm50 0h1v1h-1zm301 0h1v1h-1zm8 0h1v13h-1zm1 0h1v1h-1zm62 0h2v4h-2zm2 0h1v5h-1zm1 0h1v1h-1zm1 0h1v1h-1zm1 0h1v1h-1zm23 0h1v1h-1zm1 0h1v1h-1z"/><path d="M620 157h26v1h-26zm26 0h1v6h-1zm1 0h1v1h-1zm1 0h1v1h-1zm38 0h3v15h-3zm3 0h5v1h-5zm5 0h1v8h-1zm1 0h1v1h-1zm8 0h1v1h-1zm1 0h2v4h-2zm2 0h5v1h-5zm-540 1h1v1h-1zm1 0h1v1h-1zm51 0h1v1h-1zm300 0h1v1h-1zm1 0h1v1h-1zm9 0h1v1h-1zm65 0h2v4h-2zm2 0h1v7h-1zm1 0h1v1h-1zm1 0h1v1h-1zm20 0h1v1h-1zm1 0h1v1h-1z"/><path d="M619 158h28v1h-28zm28 0h1v6h-1zm1 0h1v1h-1zm1 0h1v1h-1zm40 0h1v14h-1zm1 0h1v14h-1zm1 0h1v1h-1zm4 0h1v1h-1zm7 0h1v1h-1zm1 0h3v3h-3zm3 0h5v1h-5zm-540 1h1v1h-1zm1 0h50v3h-50zm50 0h1v1h-1zm1 0h1v1h-1zm300 0h1v1h-1zm1 0h8v2h-8zm9 0h1v1h-1zm68 0h1v7h-1zm1 0h1v1h-1zm1 0h1v1h-1zm18 0h1v1h-1zm1 0h12v1h-12zm12 0h1v1h-1zm1 0h5v1h-5zm5 0h1v1h-1zm1 0h1v1h-1z"/><path d="M637 159h12v1h-12zm12 0h1v7h-1zm1 0h1v1h-1zm1 0h1v1h-1zm40 0h1v1h-1zm4 0h1v8h-1zm1 0h1v1h-1zm6 0h1v1h-1zm4 0h1v1h-1zm2 0h3v13h-3zm-543 1h1v1h-1zm1 0h50v5h-50zm51 0h1v1h-1zm301 0h1v1h-1zm10 0h1v13h-1zm1 0h1v1h-1zm26 0h42v1h-42zm42 0h1v22h-1zm1 0h1v1h-1zm1 0h1v1h-1zm16 0h1v1h-1zm1 0h8v1h-8zm8 0h1v1h-1zm1 0h1v1h-1zm1 0h1v1h-1zm1 0h1v1h-1zm1 0h1v1h-1zm10 0h1v1h-1zm1 0h1v1h-1zm1 0h1v1h-1z"/><path d="M641 160h9v1h-9zm9 0h1v8h-1zm1 0h1v1h-1zm1 0h1v1h-1zm39 0h1v1h-1zm1 0h3v1h-3zm4 0h1v1h-1zm5 0h1v1h-1zm1 0h3v3h-3zm4 0h1v1h-1zm-541 1h1v1h-1zm52 0h1v1h-1zm300 0h1v1h-1zm1 0h10v1h-10zm11 0h1v1h-1zm26 0h5v58h-5zm5 0h1v58h-1zm1 0h1v22h-1zm24 0h1v1h-1zm1 0h1v1h-1zm1 0h1v1h-1zm1 0h1v1h-1zm1 0h1v1h-1zm1 0h8v1h-8zm8 0h1v20h-1zm1 0h1v1h-1zm1 0h1v1h-1zm14 0h1v1h-1zm1 0h7v1h-7zm7 0h1v1h-1zm1 0h1v1h-1zm1 0h1v1h-1zm17 0h1v1h-1zm1 0h1v1h-1z"/><path d="M643 161h8v1h-8zm8 0h1v12h-1zm1 0h1v1h-1zm40 0h1v1h-1zm4 0h1v1h-1zm5 0h1v1h-1zm4 0h1v1h-1zm1 0h1v1h-1zm-542 1h1v1h-1zm1 0h51v3h-51zm51 0h1v1h-1zm1 0h1v1h-1zm300 0h1v1h-1zm1 0h4v3h-4zm4 0h7v1h-7zm7 0h1v14h-1zm1 0h1v1h-1zm60 0h1v1h-1zm1 0h1v1h-1zm1 0h7v1h-7zm7 0h1v18h-1zm1 0h1v1h-1zm1 0h1v1h-1zm12 0h1v1h-1zm1 0h6v1h-6zm6 0h1v1h-1zm1 0h1v1h-1zm1 0h1v1h-1zm21 0h1v1h-1zm1 0h1v1h-1z"/><path d="M645 162h7v1h-7zm7 0h1v11h-1zm1 0h1v1h-1zm39 0h1v1h-1zm1 0h3v1h-3zm3 0h1v8h-1zm1 0h1v1h-1zm3 0h1v1h-1zm1 0h1v1h-1zm4 0h1v1h-1zm-542 1h1v1h-1zm1 0h51v4h-51zm52 0h1v1h-1zm300 0h1v1h-1zm1 0h5v2h-5zm5 0h7v1h-7zm8 0h1v1h-1zm62 0h1v1h-1zm1 0h1v1h-1zm1 0h6v1h-6zm6 0h1v16h-1zm1 0h1v1h-1zm12 0h1v1h-1zm1 0h5v2h-5zm5 0h1v1h-1zm1 0h1v1h-1zm1 0h1v1h-1zm24 0h1v1h-1z"/><path d="M646 163h7v1h-7zm7 0h1v10h-1zm1 0h1v1h-1zm39 0h1v1h-1zm4 0h1v1h-1zm3 0h1v1h-1zm1 0h3v3h-3zm3 0h1v1h-1zm1 0h1v1h-1zm-542 1h1v1h-1zm53 0h1v1h-1zm300 0h1v1h-1zm6 0h2v1h-2zm2 0h1v1h-1zm1 0h4v1h-4zm5 0h1v1h-1zm63 0h1v1h-1zm1 0h1v1h-1zm7 0h1v13h-1zm1 0h1v1h-1zm10 0h1v1h-1zm1 0h5v3h-5zm6 0h1v1h-1zm1 0h1v1h-1zm26 0h1v1h-1zm1 0h6v1h-6zm7 0h1v1h-1zm1 0h1v1h-1zm38 0h1v1h-1zm4 0h1v8h-1zm1 0h1v1h-1zm2 0h1v1h-1zm4 0h1v1h-1zm-542 1h1v1h-1zm1 0h52v2h-52zm52 0h1v1h-1zm1 0h1v1h-1zm300 0h1v1h-1zm1 0h4v3h-4zm4 0h1v1h-1zm1 0h2v1h-2zm2 0h1v1h-1zm1 0h5v1h-5zm5 0h1v13h-1zm1 0h1v1h-1zm63 0h1v1h-1zm1 0h6v1h-6zm7 0h1v1h-1zm10 0h1v1h-1zm6 0h1v1h-1zm1 0h1v1h-1zm28 0h1v1h-1z"/><path d="M648 165h6v1h-6zm6 0h1v8h-1zm1 0h1v1h-1zm38 0h1v1h-1zm1 0h3v1h-3zm4 0h1v1h-1zm1 0h1v1h-1zm1 0h3v3h-3zm4 0h1v1h-1zm-543 1h1v1h-1zm1 0h52v3h-52zm53 0h1v1h-1zm300 0h1v1h-1zm1 0h4v4h-4zm5 0h1v1h-1zm4 0h1v1h-1zm6 0h1v1h-1zm64 0h1v1h-1zm1 0h5v1h-5zm6 0h1v1h-1zm9 0h1v1h-1zm1 0h5v12h-5zm6 0h1v1h-1zm30 0h1v1h-1zm1 0h5v1h-5zm6 0h1v1h-1zm1 0h1v1h-1zm38 0h1v1h-1zm4 0h1v1h-1zm1 0h1v1h-1zm4 0h1v1h-1zm1 0h1v1h-1zm-544 1h1v1h-1z"/><path d="M161 167h53v2h-53zm53 0h1v1h-1zm1 0h1v1h-1zm300 0h1v1h-1zm6 0h1v1h-1zm4 0h1v1h-1zm6 0h1v14h-1zm1 0h1v1h-1zm63 0h1v1h-1zm1 0h1v1h-1zm6 0h1v8h-1zm1 0h1v1h-1zm8 0h1v1h-1zm6 0h1v1h-1zm1 0h1v1h-1zm30 0h1v1h-1zm1 0h1v1h-1zm6 0h1v6h-1zm1 0h1v1h-1zm38 0h1v1h-1zm1 0h7v1h-7zm8 0h1v1h-1zm-544 1h1v1h-1zm1 0h1v1h-1zm54 0h1v1h-1zm300 0h1v1h-1zm1 0h5v2h-5zm5 0h1v1h-1zm1 0h1v1h-1zm4 0h1v1h-1zm1 0h5v1h-5zm6 0h1v1h-1zm64 0h1v1h-1zm7 0h1v1h-1zm8 0h1v1h-1zm6 0h1v1h-1zm32 0h1v1h-1zm1 0h5v1h-5zm6 0h1v1h-1zm39 0h1v1h-1zm3 0h4v3h-4zm4 0h1v1h-1zm1 0h1v1h-1zm-545 1h1v1h-1zm1 0h1v1h-1zm1 0h53v2h-53zm53 0h1v1h-1zm1 0h1v1h-1zm300 0h1v1h-1zm6 0h1v1h-1zm6 0h1v1h-1zm6 0h1v1h-1zm64 0h1v1h-1zm7 0h1v4h-1zm8 0h1v1h-1zm6 0h1v1h-1zm33 0h1v1h-1zm6 0h1v4h-1zm39 0h1v1h-1zm7 0h1v1h-1zm-545 1h1v1h-1zm1 0h1v1h-1z"/><path d="M159 170h53v3h-53zm54 0h1v1h-1zm1 0h1v1h-1zm300 0h1v1h-1zm1 0h4v3h-4zm4 0h1v1h-1zm1 0h1v1h-1zm6 0h1v1h-1zm1 0h5v1h-5zm5 0h1v14h-1zm1 0h1v1h-1zm63 0h1v1h-1zm14 0h1v1h-1zm1 0h5v5h-5zm6 0h1v1h-1zm33 0h1v1h-1zm7 0h1v1h-1zm38 0h1v1h-1zm1 0h5v1h-5zm6 0h1v1h-1zm-546 1h1v1h-1zm1 0h1v1h-1z"/><path d="M158 171h54v2h-54zm54 0h1v1h-1zm1 0h1v1h-1zm300 0h1v1h-1zm1 0h4v4h-4zm5 0h1v1h-1zm7 0h1v1h-1zm1 0h1v1h-1zm6 0h1v1h-1zm77 0h1v2h-1zm7 0h1v2h-1zm33 0h1v1h-1zm7 0h1v1h-1zm39 0h1v1h-1zm2 0h3v1h-3zm3 0h1v1h-1zm1 0h1v1h-1zm-547 1h1v1h-1zm1 0h1v1h-1z"/><path d="M157 172h54v3h-54zm55 0h1v1h-1zm1 0h1v1h-1zm300 0h1v1h-1zm6 0h1v1h-1zm8 0h1v1h-1zm6 0h1v14h-1zm1 0h1v1h-1zm116 0h1v1h-1zm7 0h1v1h-1zm11 0h1v1h-1zm1 0h3v1h-3zm3 0h1v1h-1zm1 0h1v1h-1zm12 0h1v1h-1zm1 0h3v1h-3zm3 0h1v1h-1zm1 0h1v1h-1zm6 0h1v1h-1zm1 0h3v1h-3zm3 0h1v1h-1zm1 0h1v1h-1zm7 0h3v1h-3zm3 0h1v1h-1zm1 0h1v1h-1zm-558 1h1v1h-1z"/><path d="M155 173h56v2h-56zm56 0h1v1h-1zm1 0h1v1h-1zm300 0h1v1h-1zm1 0h5v2h-5zm5 0h1v1h-1zm1 0h1v1h-1zm8 0h1v1h-1zm1 0h5v1h-5zm6 0h1v1h-1zm69 0h1v1h-1zm7 0h1v1h-1zm7 0h1v1h-1zm34 0h5v1h-5zm5 0h1v1h-1zm1 0h1v1h-1zm11 0h1v1h-1zm1 0h3v1h-3zm3 0h1v1h-1zm1 0h1v1h-1zm12 0h1v1h-1zm1 0h3v1h-3zm3 0h1v1h-1zm1 0h1v1h-1zm7 0h3v1h-3zm3 0h1v1h-1zm1 0h1v1h-1zm7 0h3v1h-3zm3 0h1v1h-1zm1 0h1v1h-1zm-560 1h1v1h-1zm1 0h1v1h-1z"/><path d="M154 174h56v3h-56zm57 0h1v1h-1zm1 0h1v1h-1zm300 0h1v1h-1zm6 0h1v1h-1zm10 0h1v1h-1zm6 0h1v1h-1zm69 0h1v1h-1zm7 0h1v1h-1zm7 0h1v1h-1zm34 0h5v1h-5zm5 0h1v1h-1zm1 0h1v1h-1zm-506 1h1v1h-1zm1 0h1v1h-1z"/><path d="M153 175h57v2h-57zm57 0h1v1h-1zm1 0h1v1h-1zm301 0h1v1h-1zm1 0h4v3h-4zm4 0h1v1h-1zm1 0h1v1h-1zm10 0h1v1h-1zm6 0h1v14h-1zm1 0h1v1h-1zm61 0h1v1h-1zm6 0h1v1h-1zm1 0h1v1h-1zm8 0h5v1h-5zm6 0h1v1h-1zm-468 1h1v1h-1zm1 0h1v1h-1z"/><path d="M151 176h58v3h-58zm59 0h1v1h-1zm1 0h1v1h-1zm300 0h1v1h-1zm1 0h4v4h-4zm5 0h1v1h-1zm11 0h1v1h-1zm1 0h5v1h-5zm6 0h1v1h-1zm61 0h1v1h-1zm6 0h1v1h-1zm9 0h1v1h-1zm6 0h1v8h-1zm1 0h1v1h-1zm-470 1h1v1h-1zm1 0h1v1h-1z"/><path d="M150 177h59v2h-59zm59 0h1v1h-1zm1 0h1v1h-1zm301 0h1v1h-1zm6 0h1v1h-1zm12 0h1v1h-1zm6 0h1v1h-1zm1 0h1v1h-1zm59 0h1v1h-1zm1 0h1v1h-1zm5 0h1v1h-1zm1 0h1v1h-1zm9 0h1v1h-1zm7 0h1v1h-1zm-472 1h1v1h-1zm1 0h1v1h-1z"/><path d="M148 178h60v2h-60zm61 0h1v1h-1zm301 0h1v1h-1zm1 0h5v2h-5zm5 0h1v1h-1zm1 0h1v1h-1zm12 0h1v1h-1zm1 0h5v1h-5zm5 0h1v14h-1zm1 0h1v1h-1zm59 0h1v1h-1zm1 0h4v2h-4zm5 0h1v1h-1zm1 0h1v1h-1zm9 0h1v1h-1zm1 0h6v1h-6zm6 0h1v6h-1zm1 0h1v1h-1zm-476 1h1v1h-1zm1 0h1v1h-1zm1 0h1v1h-1z"/><path d="M146 179h62v1h-62zm62 0h1v1h-1zm1 0h1v1h-1zm301 0h1v1h-1zm6 0h1v1h-1zm13 0h1v1h-1zm1 0h1v1h-1zm6 0h1v1h-1zm58 0h1v1h-1zm1 0h5v1h-5zm5 0h1v1h-1zm1 0h1v1h-1zm11 0h1v1h-1zm1 0h6v1h-6zm6 0h1v6h-1zm1 0h1v1h-1zm-479 1h1v1h-1zm1 0h1v1h-1zm1 0h1v1h-1zm1 0h63v2h-63zm63 0h1v1h-1zm1 0h1v1h-1zm302 0h1v1h-1zm1 0h4v3h-4zm4 0h1v1h-1zm1 0h1v1h-1zm14 0h1v1h-1zm6 0h1v19h-1zm1 0h1v1h-1zm56 0h1v1h-1zm1 0h1v1h-1zm1 0h4v1h-4zm4 0h1v1h-1zm1 0h1v1h-1zm12 0h1v1h-1z"/><path d="M613 180h7v1h-7zm7 0h1v5h-1zm1 0h1v1h-1zm1 0h1v1h-1zm-484 1h1v1h-1zm1 0h1v1h-1zm1 0h1v1h-1zm1 0h65v2h-65zm66 0h1v1h-1zm1 0h1v1h-1zm301 0h1v1h-1zm1 0h4v5h-4zm5 0h1v1h-1zm1 0h1v1h-1zm14 0h1v1h-1zm1 0h5v1h-5zm6 0h1v1h-1zm54 0h1v1h-1zm1 0h1v1h-1zm1 0h5v1h-5zm5 0h1v1h-1zm1 0h1v1h-1zm1 0h1v1h-1zm13 0h1v1h-1z"/><path d="M614 181h8v1h-8zm8 0h1v5h-1zm1 0h1v1h-1zm1 0h1v1h-1zm1 0h1v1h-1zm-491 1h1v1h-1zm1 0h1v1h-1zm1 0h1v1h-1zm1 0h1v1h-1zm1 0h68v1h-68zm68 0h1v1h-1zm1 0h1v1h-1zm302 0h1v1h-1zm6 0h1v1h-1zm16 0h1v1h-1zm6 0h1v1h-1zm52 0h1v1h-1zm1 0h1v1h-1zm1 0h1v1h-1zm1 0h5v1h-5zm5 0h1v1h-1zm1 0h1v1h-1zm1 0h1v1h-1zm14 0h1v1h-1zm1 0h1v1h-1z"/><path d="M615 182h10v1h-10zm10 0h1v5h-1zm1 0h1v1h-1zm1 0h1v1h-1zm1 0h1v1h-1zm1 0h1v1h-1zm-501 1h1v1h-1zm1 0h1v1h-1zm1 0h1v1h-1zm1 0h1v1h-1zm1 0h1v1h-1zm1 0h72v2h-72zm72 0h1v1h-1zm1 0h1v1h-1zm66 0h1v1h-1zm236 0h1v1h-1zm1 0h5v3h-5zm5 0h1v1h-1zm1 0h1v1h-1zm16 0h1v1h-1zm6 0h1v16h-1zm1 0h1v1h-1zm23 0h1v1h-1zm24 0h1v1h-1zm1 0h1v1h-1zm1 0h1v1h-1zm1 0h1v1h-1zm1 0h7v1h-7zm7 0h1v1h-1zm1 0h1v1h-1zm1 0h1v1h-1zm16 0h1v1h-1zm1 0h1v1h-1z"/><path d="M616 183h13v1h-13zm13 0h1v5h-1zm1 0h1v1h-1zm1 0h1v1h-1zm1 0h1v1h-1zm1 0h1v1h-1zm-558 1h48v1H75zm48 0h1v1h-1zm1 0h1v1h-1zm1 0h1v1h-1zm1 0h1v1h-1zm1 0h77v2h-77zm78 0h1v1h-1zm1 0h1v1h-1zm66 0h1v1h-1zm1 0h108v1H273zm108 0h1v1h-1zm127 0h1v1h-1zm6 0h1v1h-1zm17 0h1v1h-1zm1 0h5v1h-5zm6 0h1v1h-1zm23 0h34v1h-34zm34 0h1v1h-1zm1 0h1v1h-1zm1 0h1v1h-1zm18 0h1v1h-1zm1 0h1v1h-1z"/><path d="M617 184h16v1h-16zm16 0h1v5h-1zm1 0h1v1h-1zm1 0h1v1h-1zm1 0h1v1h-1zm1 0h1v1h-1zm-562 1h129v1H75zm129 0h1v1h-1zm1 0h1v1h-1zm67 0h109v36H272zm109 0h1v36h-1zm127 0h1v1h-1zm6 0h1v1h-1zm18 0h1v1h-1zm6 0h1v14h-1zm1 0h1v1h-1zm22 0h31v3h-31zm31 0h1v5h-1zm1 0h1v1h-1zm1 0h1v1h-1zm1 0h1v1h-1zm22 0h1v1h-1zm1 0h1v1h-1z"/><path d="M619 185h18v1h-18zm18 0h1v5h-1zm1 0h1v1h-1zm1 0h1v1h-1zm1 0h1v1h-1zm1 0h1v1h-1zm-566 1h128v1H75zm128 0h1v1h-1zm1 0h1v1h-1zm303 0h1v1h-1zm1 0h5v2h-5zm5 0h1v1h-1zm1 0h1v1h-1zm18 0h1v1h-1zm1 0h5v1h-5zm6 0h1v1h-1zm54 0h1v1h-1zm1 0h1v1h-1zm1 0h1v1h-1zm24 0h1v1h-1zm1 0h1v1h-1z"/><path d="M621 186h20v1h-20zm20 0h1v5h-1zm1 0h1v1h-1zm1 0h1v1h-1zm1 0h1v1h-1zm1 0h1v1h-1zm-570 1h127v1H75zm127 0h1v1h-1zm1 0h1v1h-1zm304 0h1v1h-1zm6 0h1v1h-1zm20 0h1v1h-1zm6 0h1v1h-1zm54 0h2v3h-2zm2 0h1v4h-1zm1 0h1v1h-1zm1 0h1v1h-1zm24 0h1v1h-1zm1 0h1v1h-1zm1 0h1v1h-1z"/><path d="M624 187h21v1h-21zm21 0h1v5h-1zm1 0h1v1h-1zm1 0h1v1h-1zm-572 1h126v2H75zm126 0h1v1h-1zm1 0h1v1h-1zm1 0h1v1h-1zm303 0h1v1h-1zm1 0h5v3h-5zm5 0h1v1h-1zm1 0h1v1h-1zm20 0h1v1h-1zm6 0h1v14h-1zm1 0h1v1h-1zm21 0h36v1h-36zm36 0h1v5h-1zm1 0h1v1h-1zm1 0h1v1h-1zm25 0h1v1h-1zm1 0h1v1h-1zm1 0h1v1h-1zm1 0h1v1h-1z"/><path d="M628 188h19v1h-19zm19 0h1v5h-1zm1 0h1v1h-1zm1 0h1v1h-1zm1 0h1v1h-1zm-449 1h1v1h-1zm1 0h1v1h-1zm304 0h1v1h-1zm6 0h1v1h-1zm21 0h1v1h-1zm1 0h5v1h-5zm6 0h1v1h-1zm21 0h1v1h-1zm1 0h21v1h-21zm21 0h1v1h-1zm1 0h1v1h-1zm1 0h1v1h-1zm1 0h1v1h-1zm1 0h1v1h-1zm1 0h10v1h-10zm10 0h1v6h-1zm1 0h1v1h-1zm1 0h1v1h-1zm28 0h1v1h-1zm1 0h1v1h-1zm1 0h1v1h-1zm1 0h1v1h-1z"/><path d="M632 189h18v1h-18zm18 0h1v6h-1zm1 0h1v1h-1zm1 0h1v1h-1zm-577 1h125v1H75zm125 0h1v1h-1zm1 0h1v1h-1zm305 0h1v1h-1zm6 0h1v1h-1zm22 0h1v1h-1zm6 0h1v14h-1zm1 0h1v1h-1zm20 0h1v24h-1zm27 0h1v1h-1zm1 0h1v1h-1zm1 0h1v1h-1zm1 0h1v1h-1zm1 0h8v1h-8zm8 0h1v24h-1zm1 0h1v1h-1zm31 0h1v1h-1zm1 0h1v1h-1zm1 0h1v1h-1zm1 0h1v1h-1z"/><path d="M636 190h15v1h-15zm15 0h1v6h-1zm1 0h1v1h-1zm1 0h1v1h-1zm-578 1h124v1H75zm124 0h1v1h-1zm1 0h1v1h-1zm305 0h1v1h-1zm1 0h5v2h-5zm5 0h1v1h-1zm1 0h1v1h-1zm22 0h1v1h-1zm7 0h1v1h-1zm51 0h1v1h-1zm1 0h1v1h-1zm1 0h7v1h-7zm7 0h1v22h-1zm1 0h1v1h-1zm34 0h1v1h-1zm1 0h1v1h-1zm1 0h1v1h-1zm1 0h1v1h-1z"/><path d="M640 191h13v1h-13zm13 0h1v9h-1zm1 0h1v1h-1zm-579 1h123v1H75zm123 0h1v1h-1zm1 0h1v1h-1zm306 0h1v1h-1zm6 0h1v1h-1zm23 0h1v1h-1zm1 0h5v1h-5zm6 0h1v1h-1zm53 0h1v1h-1zm1 0h1v1h-1zm1 0h5v1h-5zm6 0h1v1h-1zm1 0h1v1h-1zm37 0h1v1h-1zm1 0h1v1h-1zm1 0h1v1h-1zm1 0h1v1h-1z"/><path d="M644 192h10v1h-10zm10 0h1v22h-1zm1 0h1v1h-1zm-580 1h122v1H75zm122 0h1v1h-1zm1 0h1v1h-1zm306 0h1v1h-1zm1 0h5v6h-5zm5 0h1v6h-1zm1 0h1v1h-1zm24 0h1v1h-1zm6 0h1v14h-1zm1 0h1v1h-1zm53 0h1v1h-1zm1 0h1v1h-1zm1 0h5v1h-5zm5 0h1v19h-1zm1 0h1v1h-1zm41 0h1v1h-1zm1 0h1v1h-1z"/><path d="M646 193h9v1h-9zm9 0h1v20h-1zm1 0h1v1h-1zm-581 1h121v1H75zm121 0h1v1h-1zm1 0h1v1h-1zm307 0h1v1h-1zm31 0h1v1h-1zm7 0h1v1h-1zm54 0h1v1h-1zm1 0h1v1h-1zm2 0h4v3h-4zm4 0h1v16h-1zm1 0h1v1h-1zm42 0h1v1h-1zm1 0h1v1h-1z"/><path d="M648 194h8v1h-8zm8 0h1v18h-1zm1 0h1v1h-1zm-582 1h120v1H75zm120 0h1v1h-1zm1 0h1v1h-1zm308 0h1v1h-1zm7 0h31v4h-31zm31 0h1v15h-1zm1 0h1v1h-1zm54 0h1v1h-1zm1 0h5v1h-5zm6 0h1v1h-1zm44 0h1v1h-1zm1 0h1v1h-1zm1 0h6v1h-6zm7 0h1v1h-1zm1 0h1v1h-1zm-583 1h119v1H75zm119 0h1v1h-1zm1 0h1v1h-1zm308 0h1v1h-1z"/><path d="M504 196h38v3h-38zm39 0h1v1h-1zm55 0h1v1h-1zm6 0h1v12h-1zm1 0h1v1h-1zm44 0h1v1h-1zm1 0h1v1h-1zm1 0h6v1h-6zm6 0h1v14h-1zm1 0h1v1h-1zm-583 1h118v1H75zm118 0h1v1h-1zm1 0h1v1h-1zm309 0h1v1h-1zm40 0h1v1h-1zm55 0h1v1h-1zm1 0h5v1h-5zm6 0h1v1h-1zm45 0h1v1h-1zm1 0h1v1h-1zm1 0h5v1h-5zm6 0h1v1h-1zm-583 1h117v1H75zm117 0h1v1h-1zm1 0h1v1h-1zm309 0h1v1h-1z"/><path d="M503 198h40v1h-40zm40 0h1v14h-1zm1 0h1v1h-1zm55 0h1v1h-1zm6 0h1v1h-1zm46 0h1v1h-1zm1 0h6v1h-6zm6 0h1v10h-1zm1 0h1v1h-1zm-584 1h115v1H75zm115 0h1v1h-1zm1 0h1v1h-1zm1 0h1v1h-1zm310 0h1v1h-1zm1 0h40v1h-40zm41 0h1v1h-1zm55 0h1v1h-1zm6 0h1v1h-1zm3 0h1v1h-1zm1 0h5v1h-5zm5 0h1v1h-1zm38 0h1v1h-1zm7 0h1v1h-1zm-584 1h114v1H75zm114 0h1v1h-1zm1 0h1v1h-1zm1 0h1v1h-1zm311 0h1v1h-1zm1 0h4v4h-4zm4 0h1v1h-1zm1 0h1v1h-1zm1 0h28v1h-28zm28 0h1v1h-1zm1 0h1v1h-1zm6 0h1v15h-1zm1 0h1v1h-1zm54 0h1v3h-1zm6 0h1v3h-1zm3 0h1v3h-1zm1 0h5v5h-5zm5 0h1v14h-1zm1 0h1v1h-1zm37 0h1v1h-1zm1 0h5v1h-5zm6 0h1v1h-1zm-584 1h113v1H75zm113 0h1v1h-1zm1 0h1v1h-1zm1 0h1v1h-1zm311 0h1v1h-1z"/><path d="M502 201h5v3h-5zm5 0h1v1h-1zm1 0h1v1h-1zm30 0h1v1h-1zm7 0h1v1h-1zm70 0h1v1h-1zm38 0h1v1h-1zm6 0h1v4h-1zm-584 1h112v1H75zm112 0h1v1h-1zm1 0h1v1h-1zm313 0h1v1h-1zm6 0h1v1h-1zm31 0h1v1h-1zm1 0h5v1h-5zm6 0h1v1h-1zm70 0h1v1h-1zm38 0h1v3h-1zm-578 1h110v1H75zm110 0h1v1h-1zm1 0h1v1h-1zm1 0h1v1h-1zm313 0h1v1h-1z"/><path d="M501 203h5v3h-5zm6 0h1v1h-1zm32 0h1v1h-1zm6 0h1v14h-1zm1 0h1v1h-1zm53 0h1v1h-1zm6 0h1v1h-1zm3 0h1v1h-1zm7 0h1v1h-1zm-540 1h109v1H75zm109 0h1v1h-1zm1 0h1v1h-1zm1 0h1v1h-1zm314 0h1v1h-1zm6 0h1v1h-1zm1 0h1v1h-1zm32 0h1v1h-1zm1 0h5v1h-5zm6 0h1v1h-1zm53 0h1v1h-1zm6 0h1v1h-1zm3 0h1v1h-1zm7 0h1v1h-1zm-540 1h107v1H75zm107 0h1v1h-1zm1 0h1v1h-1zm1 0h1v1h-1zm316 0h1v1h-1zm6 0h1v1h-1zm33 0h1v1h-1zm1 0h1v1h-1zm6 0h1v1h-1zm1 0h1v1h-1zm52 0h1v1h-1zm6 0h1v1h-1zm4 0h5v1h-5zm6 0h1v1h-1zm38 0h1v1h-1zm6 0h1v1h-1zm-584 1h106v1H75zm106 0h1v1h-1zm1 0h1v1h-1zm1 0h1v1h-1zm316 0h1v1h-1zm1 0h5v3h-5zm5 0h1v1h-1zm1 0h1v1h-1zm34 0h1v1h-1zm6 0h1v13h-1zm1 0h1v1h-1zm51 0h1v1h-1zm1 0h5v4h-5zm6 0h1v1h-1zm4 0h1v1h-1zm1 0h5v2h-5zm5 0h1v9h-1zm1 0h1v1h-1zm37 0h5v4h-5zm6 0h1v1h-1zm-584 1h104v1H75zm104 0h1v1h-1zm1 0h1v1h-1zm1 0h1v1h-1zm318 0h1v1h-1zm6 0h1v1h-1zm1 0h1v1h-1zm34 0h1v1h-1z"/><path d="M541 207h5v1h-5zm6 0h1v1h-1zm51 0h1v1h-1zm7 0h1v1h-1zm4 0h1v1h-1zm7 0h1v1h-1zm36 0h1v1h-1zm7 0h1v1h-1zm-584 1h103v1H75zm103 0h1v1h-1zm1 0h1v1h-1zm1 0h1v1h-1zm318 0h1v1h-1zm1 0h5v4h-5zm6 0h1v1h-1zm36 0h1v1h-1zm6 0h1v11h-1zm1 0h1v1h-1zm50 0h1v1h-1zm6 0h1v1h-1zm1 0h1v1h-1zm4 0h1v1h-1zm1 0h6v1h-6zm6 0h1v8h-1zm1 0h1v1h-1zm35 0h1v1h-1zm6 0h1v1h-1zm1 0h1v1h-1zm-584 1h101v1H75zm101 0h1v1h-1zm1 0h1v1h-1zm1 0h1v1h-1zm320 0h1v1h-1zm6 0h1v1h-1zm1 0h1v1h-1zm36 0h1v1h-1zm7 0h1v1h-1zm49 0h1v1h-1zm1 0h5v3h-5zm6 0h1v1h-1zm6 0h1v1h-1zm1 0h5v1h-5zm6 0h1v1h-1zm34 0h1v1h-1zm1 0h5v3h-5zm6 0h1v1h-1zm-583 1h99v1H75zm99 0h1v1h-1zm1 0h1v1h-1zm1 0h1v1h-1zm322 0h1v1h-1zm6 0h1v1h-1zm37 0h1v1h-1zm1 0h5v1h-5zm6 0h1v1h-1zm48 0h1v1h-1z"/><path d="M597 210h6v2h-6zm6 0h1v1h-1zm1 0h1v1h-1zm6 0h1v1h-1zm1 0h6v1h-6zm6 0h1v6h-1zm1 0h1v1h-1zm32 0h1v1h-1zm1 0h1v1h-1zm6 0h1v1h-1zm1 0h1v1h-1zm-583 1h97v1H75zm97 0h1v1h-1zm1 0h1v1h-1zm1 0h1v1h-1zm323 0h1v1h-1zm1 0h5v3h-5zm6 0h1v1h-1zm38 0h1v1h-1zm6 0h1v8h-1zm1 0h1v1h-1zm46 0h1v1h-1zm1 0h1v1h-1zm7 0h1v1h-1zm8 0h1v1h-1z"/><path d="M612 211h6v1h-6zm6 0h1v6h-1zm1 0h1v1h-1zm30 0h1v1h-1zm1 0h1v1h-1zm1 0h5v2h-5zm6 0h1v1h-1zm1 0h1v1h-1zm-583 1h95v1H75zm95 0h1v1h-1zm1 0h1v1h-1zm1 0h1v1h-1zm325 0h1v1h-1zm6 0h1v1h-1zm1 0h1v1h-1zm38 0h1v1h-1zm1 0h5v1h-5zm6 0h1v1h-1zm45 0h1v1h-1zm1 0h7v1h-7zm7 0h1v1h-1zm1 0h1v1h-1zm8 0h1v1h-1z"/><path d="M612 212h7v1h-7zm7 0h1v6h-1zm1 0h1v1h-1zm28 0h1v1h-1zm1 0h1v1h-1zm1 0h6v1h-6zm6 0h1v1h-1zm1 0h1v1h-1zm-582 1h93v1H75zm93 0h1v1h-1zm1 0h1v1h-1zm1 0h1v1h-1zm326 0h1v1h-1zm1 0h5v4h-5zm6 0h1v1h-1zm40 0h1v1h-1zm6 0h1v6h-1zm1 0h1v1h-1zm42 0h1v1h-1zm1 0h1v1h-1zm1 0h7v1h-7zm7 0h1v1h-1zm1 0h1v1h-1zm10 0h1v1h-1z"/><path d="M613 213h7v1h-7zm7 0h1v5h-1zm1 0h1v1h-1zm1 0h1v1h-1zm24 0h1v1h-1zm1 0h1v1h-1zm1 0h7v1h-7zm7 0h1v1h-1zm1 0h1v1h-1zm-581 1h90v1H75zm90 0h1v1h-1zm1 0h1v1h-1zm1 0h1v1h-1zm1 0h1v1h-1zm294 0h1v1h-1zm34 0h1v1h-1zm6 0h1v1h-1zm1 0h1v1h-1zm40 0h1v1h-1zm7 0h1v1h-1zm11 0h1v1h-1zm27 0h1v1h-1zm1 0h1v1h-1zm1 0h1v1h-1zm1 0h1v1h-1zm1 0h8v1h-8zm8 0h1v1h-1zm1 0h1v1h-1zm12 0h1v1h-1z"/><path d="M614 214h8v1h-8zm8 0h1v5h-1zm1 0h1v1h-1zm1 0h1v1h-1zm21 0h1v1h-1zm1 0h1v1h-1zm1 0h7v1h-7zm7 0h1v1h-1zm1 0h1v1h-1zm1 0h1v1h-1zm-581 1h88v1H75zm88 0h1v1h-1zm1 0h1v1h-1zm1 0h1v1h-1zm297 0h1v1h-1zm1 0h32v1h-32zm32 0h1v1h-1zm1 0h1v1h-1zm6 0h1v1h-1zm41 0h1v1h-1zm1 0h5v1h-5zm6 0h1v1h-1zm11 0h1v1h-1zm1 0h23v1h-23zm23 0h1v1h-1zm1 0h1v1h-1zm1 0h12v1h-12zm12 0h1v1h-1zm1 0h1v1h-1zm1 0h1v1h-1zm12 0h1v1h-1zm1 0h1v1h-1z"/><path d="M615 215h9v1h-9zm9 0h1v4h-1zm1 0h1v1h-1zm1 0h1v1h-1zm1 0h1v1h-1zm1 0h1v1h-1zm14 0h1v1h-1zm1 0h1v1h-1zm1 0h1v1h-1zm1 0h8v1h-8zm8 0h1v1h-1zm1 0h1v1h-1zm1 0h1v1h-1zm-580 1h85v1H75zm85 0h1v1h-1zm1 0h1v1h-1zm1 0h1v1h-1zm1 0h1v1h-1zm299 0h39v3h-39zm40 0h1v1h-1zm42 0h1v1h-1zm6 0h1v3h-1zm1 0h1v1h-1zm10 0h37v1h-37zm37 0h1v1h-1zm1 0h1v1h-1zm15 0h1v1h-1zm1 0h1v1h-1z"/><path d="M616 216h12v1h-12zm12 0h1v4h-1zm1 0h1v1h-1zm1 0h1v1h-1zm1 0h1v1h-1zm1 0h1v1h-1zm1 0h1v1h-1zm1 0h1v1h-1zm1 0h1v1h-1zm1 0h1v1h-1zm1 0h1v1h-1zm1 0h1v1h-1zm1 0h1v1h-1zm1 0h1v1h-1zm1 0h11v1h-11zm11 0h1v1h-1zm1 0h1v1h-1zm1 0h1v1h-1zm-579 1h82v1H75zm82 0h1v1h-1zm1 0h1v1h-1zm1 0h1v1h-1zm1 0h1v1h-1zm341 0h1v1h-1zm1 0h1v1h-1zm42 0h1v1h-1zm1 0h5v1h-5zm6 0h1v1h-1zm10 0h35v1h-35zm35 0h1v1h-1zm1 0h1v1h-1zm1 0h1v1h-1zm18 0h1v1h-1zm1 0h1v1h-1z"/><path d="M618 217h33v1h-33zm33 0h1v1h-1zm1 0h1v1h-1zm1 0h1v1h-1zm-578 1h78v1H75zm78 0h1v1h-1zm1 0h1v1h-1zm1 0h1v1h-1zm1 0h1v1h-1zm345 0h1v1h-1zm44 0h1v1h-1zm6 0h1v1h-1zm1 0h1v1h-1zm9 0h33v1h-33zm33 0h1v1h-1zm1 0h1v1h-1zm1 0h1v1h-1zm21 0h1v1h-1zm1 0h1v1h-1zm1 0h30v1h-30zm30 0h1v1h-1zm1 0h1v1h-1zm1 0h1v1h-1zm-576 1h73v1H75zm73 0h1v1h-1zm1 0h1v1h-1zm1 0h1v1h-1zm1 0h1v1h-1zm1 0h1v1h-1zm1 0h1v1h-1zm303 0h44v1h-44zm44 0h1v1h-1zm1 0h1v1h-1zm44 0h1v1h-1zm1 0h5v1h-5zm5 0h1v1h-1zm1 0h1v1h-1zm2 0h1v1h-1zm1 0h35v1h-35zm35 0h1v1h-1zm1 0h1v1h-1zm1 0h1v1h-1zm1 0h1v1h-1zm1 0h1v1h-1zm25 0h1v1h-1zm1 0h1v1h-1zm1 0h1v1h-1zm1 0h25v1h-25zm25 0h1v1h-1zm1 0h1v1h-1zm1 0h1v1h-1zm1 0h1v1h-1zm-575 1h68v1H75zm68 0h1v1h-1zm1 0h1v1h-1zm1 0h1v1h-1zm1 0h1v1h-1zm1 0h1v1h-1zm1 0h1v1h-1zm308 0h37v1h-37zm37 0h1v1h-1zm1 0h1v1h-1zm1 0h2v1h-2zm2 0h1v1h-1zm1 0h1v1h-1zm1 0h1v1h-1zm1 0h1v1h-1zm45 0h1v1h-1zm1 0h5v1h-5zm5 0h1v1h-1zm1 0h1v1h-1zm2 0h1v1h-1zm1 0h31v1h-31zm31 0h1v1h-1zm1 0h1v1h-1zm1 0h1v1h-1zm1 0h1v1h-1zm1 0h1v1h-1zm31 0h1v1h-1zm1 0h1v1h-1zm1 0h1v1h-1zm1 0h1v1h-1zm1 0h19v1h-19zm19 0h1v1h-1zm1 0h1v1h-1zm1 0h1v1h-1zm1 0h1v1h-1zm-622 1h1v1h-1zm1 0h109v1H26zm109 0h1v1h-1zm1 0h1v1h-1zm1 0h1v1h-1zm1 0h1v1h-1zm1 0h1v1h-1zm1 0h1v1h-1zm1 0h1v1h-1zm1 0h1v1h-1zm81 0h1v1h-1zm1 0h157v1H224zm157 0h1v1h-1zm15 0h48v1h-48zm48 0h1v1h-1zm1 0h1v1h-1zm180 0h1v1h-1zm1 0h1v1h-1zm1 0h1v1h-1zm1 0h1v1h-1zm1 0h1v1h-1zm1 0h9v1h-9zm9 0h1v1h-1zm1 0h1v1h-1zm1 0h1v1h-1zm1 0h1v1h-1zm1 0h1v1h-1zm1 0h1v1h-1zm-619 1h1v1h-1zm1 0h101v1H26zm101 0h1v1h-1zm1 0h4v1h-4zm4 0h1v1h-1zm91 0h1v1h-1zm1 0h157v1H224zm157 0h1v1h-1zm15 0h48v1h-48zm48 0h1v1h-1zm1 0h1v1h-1zm189 0h1v1h-1zm1 0h1v1h-1z"/></g><path d="M496 18h1v1h-1zm1 0h44v1h-44zm44 0h1v1h-1zm1 0h1v1h-1zm-46 1h1v36h-1zm1 0h44v36h-44zm44 0h1v36h-1zm1 0h1v36h-1zm-46 36h1v1h-1zm1 0h44v1h-44zm44 0h1v1h-1zm1 0h1v1h-1zm-46 1h1v1h-1zm1 0h44v1h-44zm44 0h1v1h-1zm1 0h1v1h-1z" fill="#32bbaf"/></svg>