<svg xmlns="http://www.w3.org/2000/svg" role="img" viewBox="25.84 25.84 268.06 268.06"><title>DocArray logo</title><g transform="translate(31 31)" fill="none" fill-rule="evenodd" stroke="none" stroke-width="1"><path d="M93 10c0 5.52285 4.47715 10 10 10h26c59.00108 0 107.0532 46.87801 108.94232 105.41995l.04308 1.77754L238 129c0 59.59705-47.82982 108.02284-107.19749 108.9854L103 237.99614c-5.52347.00213-10 4.48039-10 10.00386 0 5.52285 4.47715 10 10 10h26c70.53229 0 127.84355-56.60594 128.98272-126.86675L258 129C258 58.46771 201.39406 1.15645 131.13325.01728L103 .00453c-5.52035-.0025-9.9975 4.4706-10 9.99094V10zM18 0C8.16933 0 .17932 7.88078.00298 17.66933L0 18v230c0 5.42924 4.32667 9.84793 9.7201 9.99616L10 258h44c5.52285 0 10-4.47715 10-10s-4.47715-10-10-10H20V20h34c5.52285 0 10-4.47715 10-10S59.52285 0 54 0H18z" fill="#009191" fill-rule="nonzero"/><path fill="#FF455A" fill-rule="nonzero" d="M116.68831 65l.17627.0051c1.57481.09124 2.82373 1.39722 2.82373 2.9949l.00069 49.855-.01792-.00377a157.91468 157.91468 0 0 0-1.17497-.24653l-1.13546-.22893a130.66722 130.66722 0 0 0-.55292-.10786l-1.07622-.20252a109.7636 109.7636 0 0 0-.5233-.09465l-1.01697-.1761-.97747-.15848a80.46262 80.46262 0 0 0-.47393-.07265l-.91822-.13207-.87873-.11446C109.22494 116.10566 107.74397 116 106.5 116l-.5995.00373c-12.37378.15397-23.95299 5.06996-32.59692 13.52138l-.47858.47389-15.13674.001c-1.6568 0-2.99995-1.34315-2.99995-3V68c0-1.65685 1.34315-3 3-3h59z"/><path fill="#009191" d="M106.5 126c6.00451 0 11.67941 1.41124 16.71111 3.92012l-2.25162 3.82259c-4.20608 7.13708-1.83003 16.33254 5.30706 20.53862a15 15 0 0 0 7.61578 2.07716l9.4385.00007c.44574 2.3119.67917 4.6994.67917 7.14144 0 20.71068-16.78932 37.5-37.5 37.5S69 184.21068 69 163.5 85.78932 126 106.5 126z"/><path fill="#FFC92A" fill-rule="nonzero" d="M168.24509 88.02421l28.38857 50.89876a5 5 0 0 1 .63328 2.43552c0 2.76142-2.23858 5-5 5h-58.3846a5 5 0 0 1-2.5386-.69239c-2.37903-1.40202-3.17105-4.46718-1.76902-6.8462l29.99604-50.89876a5 5 0 0 1 1.87209-1.82813c2.41167-1.3451 5.45714-.48047 6.80224 1.9312z"/></g></svg>