<svg xmlns="http://www.w3.org/2000/svg" role="img" viewBox="-6.56 -6.56 341.12 106.62"><title>Dojo logo</title><defs><linearGradient id="linear-gradient" x1="31.06" x2="30.96" y1="62.93" y2="63.36" gradientUnits="userSpaceOnUse"><stop offset="0" stop-color="#ff1d25" stop-opacity=".5"/><stop offset=".06" stop-color="#ff1d25" stop-opacity=".54"/><stop offset=".37" stop-color="#ff1d25" stop-opacity=".74"/><stop offset=".64" stop-color="#ff1d25" stop-opacity=".88"/><stop offset=".86" stop-color="#ff1d25" stop-opacity=".97"/><stop offset="1" stop-color="#ff1d25"/></linearGradient><linearGradient id="linear-gradient-2" x1="34.44" x2="34.44" y1="72.55" y2="62.2" gradientUnits="userSpaceOnUse"><stop offset="0" stop-color="#fffa8f"/><stop offset="1" stop-color="#fb784b"/></linearGradient><linearGradient id="linear-gradient-3" x1="111.57" x2="115.39" y1="27.14" y2="24" gradientUnits="userSpaceOnUse"><stop offset="0" stop-color="#5bcb99"/><stop offset="1" stop-color="#85a8e8"/></linearGradient><linearGradient id="linear-gradient-4" x1="39.29" x2="158.3" y1="65.08" y2="3.33" gradientUnits="userSpaceOnUse"><stop offset="0" stop-color="#34e28b"/><stop offset="1"/></linearGradient><linearGradient id="linear-gradient-5" x1="61.15" x2="70.51" y1="77.04" y2="77.04" gradientUnits="userSpaceOnUse"><stop offset="0" stop-color="#c297ff"/><stop offset="1" stop-color="#ae31bb"/></linearGradient><linearGradient id="linear-gradient-6" x1="23.01" x2="141.34" y1="122.13" y2="29.84" gradientUnits="userSpaceOnUse"><stop offset="0"/><stop offset="1" stop-color="#d23de2"/></linearGradient><linearGradient id="linear-gradient-7" x1="110.54" x2="105.75" y1="21.93" y2="38.1" gradientUnits="userSpaceOnUse"><stop offset="0"/><stop offset="1" stop-opacity="0"/></linearGradient><linearGradient id="linear-gradient-8" x1="66.74" x2="100.39" y1="84.5" y2="92.65" gradientUnits="userSpaceOnUse"><stop offset="0" stop-color="#2db5f9"/><stop offset="1"/></linearGradient><linearGradient id="linear-gradient-9" x1="40.44" x2="18.21" y1="-.23" y2="60.84" gradientUnits="userSpaceOnUse"><stop offset="0"/><stop offset=".21" stop-color="#48080a"/><stop offset=".42" stop-color="#891014"/><stop offset=".61" stop-color="#bc151b"/><stop offset=".78" stop-color="#e01a21"/><stop offset=".91" stop-color="#f71c24"/><stop offset="1" stop-color="#ff1d25"/></linearGradient><style>.cls-5{fill:#f15a24}.cls-7{fill:#c1272d}</style></defs><g style="isolation:isolate"><g id="Layer_2" data-name="Layer 2"><g id="Layer_1-2" data-name="Layer 1"><path fill="#fff" d="M259.41 24.11h2.43V75c0 6.12-1.83 7.35-4.78 7.35a5.3 5.3 0 01-1.26-.17v3.22a6.92 6.92 0 001.5.18c5.22 0 8-3.43 8-9.91V20.8h-5.87zm-96.99-3.3h-16.21v3.28h2.61V66.4h-2.59v3.28h16.2c16.09 0 25.32-8.88 25.32-24.36s-9.48-24.51-25.33-24.51zm.08 45.59h-10.24V24.09h10.24c19 0 21.8 13.3 21.8 21.24s-2.83 21.07-21.8 21.07zm61.08-46.72c-14.21 0-24.52 10.75-24.52 25.56s10.31 25.56 24.52 25.56 24.52-10.74 24.52-25.56-10.31-25.56-24.52-25.56zm0 47.84c-12.41 0-21.08-9.16-21.08-22.28S211.18 23 223.58 23s21.08 9.16 21.08 22.28-8.66 22.24-21.08 22.24zm79.95-47.84c-14.2 0-24.53 10.75-24.53 25.56s10.31 25.56 24.52 25.56 24.52-10.75 24.52-25.56-10.3-25.56-24.51-25.56zm0 47.84c-12.41 0-21.08-9.16-21.08-22.28S291.13 23 303.53 23s21.08 9.16 21.08 22.28-8.67 22.24-21.08 22.24z"/><path fill="none" stroke="url(#linear-gradient)" stroke-miterlimit="10" stroke-width=".45" d="M31.01 63.14h0"/><path fill="url(#linear-gradient-2)" d="M15.94 60.34l.31.49A34.84 34.84 0 0021.81 67a27.17 27.17 0 0017.26 6.15h1.19A40.43 40.43 0 0052.94 70a40.47 40.47 0 01-5.46.5A22.17 22.17 0 0131 63.14a40.13 40.13 0 01-15.06-2.8z"/><path d="M39.06 18.59a27.26 27.26 0 0123.36 13.17 22.22 22.22 0 00-21.16-4.87c5 2.41 11.81 4.25 21.19 4.89 0 0-.46-8.93-11.89-13.6-16-6.51-18.21-5.22-22.26-12a18.07 18.07 0 003.62 13.3 27.3 27.3 0 017.14-.89z" class="cls-5"/><path fill="#ed1c24" d="M50.56 18.18c-5.47-2.18-9.32-3.54-12.2-4.58a20.06 20.06 0 003 5.08 27.27 27.27 0 0121.1 13.08 22.14 22.14 0 00-12.33-5.61 65.46 65.46 0 0012 5.6h.35s-.48-8.9-11.92-13.57z"/><path d="M62.43 31.78h.06c.18-1 1.25-8.69-7.45-15.44C42.06 6.27 39.53 5.33 38.91 0a16.7 16.7 0 00-.55 13.6c2.87 1 6.73 2.35 12.19 4.58 11.45 4.67 11.9 13.6 11.9 13.6z" class="cls-7"/><path fill="url(#linear-gradient-3)" d="M101.82 23a20.2 20.2 0 0113.26 4.94 17.9 17.9 0 0111.42 4.78s-10.91-15.85-30.14-9.26a25.06 25.06 0 00-4.92 2.41A20.2 20.2 0 01101.82 23z"/><path fill="url(#linear-gradient-4)" d="M101.82 23a20.19 20.19 0 00-10.38 2.86l.56-.34c-15.54 9.15-34.59 37.27-61 37.62a22.17 22.17 0 0016.48 7.31 40.47 40.47 0 005.46-.5c17.18-7.08 33.68-24 41.17-32.21 6.94-7.61 14.55-10.2 21-9.81A20.2 20.2 0 00101.82 23z"/><path fill="url(#linear-gradient-5)" d="M61.7 77.5a12.58 12.58 0 00-.55 3.5 13.36 13.36 0 00.62 4.05 10 10 0 013.3-8.85l.08-.3a12.23 12.23 0 015.36-6.9 22.73 22.73 0 00-2.39.92 12.53 12.53 0 00-6.42 7.58z"/><path fill="url(#linear-gradient-6)" d="M131.24 47.55a25.47 25.47 0 00-4.77-14.87 17.91 17.91 0 00-11.39-4.74 20.24 20.24 0 017 15.35c0 6.81-2.47 14.6-10.48 18.79-11.66 6.1-29.55 3.2-41.17 7a12.23 12.23 0 00-5.35 6.89l-.08.3c3.4-3 10.11-5.13 23.2-3.44 9.35 1.2 16.77 1.53 23.15-.3a24.74 24.74 0 0015.15-10.21 25.47 25.47 0 004.74-14.77z"/><path fill="url(#linear-gradient-7)" d="M131.24 47.55a25.47 25.47 0 00-4.77-14.87 17.91 17.91 0 00-11.39-4.74 20.24 20.24 0 017 15.35c0 6.81-2.47 14.6-10.48 18.79-11.66 6.1-29.55 3.2-41.17 7a12.23 12.23 0 00-5.35 6.89l-.08.3c3.4-3 10.11-5.13 23.2-3.44 9.35 1.2 16.77 1.53 23.15-.3a24.74 24.74 0 0015.15-10.21 25.47 25.47 0 004.74-14.77z" opacity=".49"/><path fill="url(#linear-gradient-8)" d="M73.31 91.25a12.28 12.28 0 01-8.22-15.08 10 10 0 00-3.3 8.85A12.57 12.57 0 0082 90.69a12.23 12.23 0 01-8.69.56z"/><path d="M77.57 90.36c1.27-3.71 5.39-9.43 9.8-6.81 0 0 3.59 2 4.34-3.67 0 0 2.69 13.38-10.27 12.93 0 0 2.92-2.13 2.89-4.32a14.85 14.85 0 01-6.76 1.87z" style="mix-blend-mode:screen" fill="#2db5f9"/><path d="M82.75 82.17a4.72 4.72 0 014.85-.26c1.83.81 4.13-2.36 2.14-5.2 0 0 .13 2.93-2.23 2.9a5.29 5.29 0 00-4.76 2.56z" style="mix-blend-mode:screen" fill="#5fd2ff"/><path fill="#219058" d="M95.77 39.6c-3.1 4.23-7.66 7.77-8.19 8.64s.9 3.67 3 3.87.49-.81.31-1.8.63.63 3.17.25-.92-1.32-.68-2.6 2.85-3.71 3.89-6.15 2.82 0 1.91 1.91c-.36.76 2.89-2.13 1.25-4.33s-2.85-2.26-4.66.21zm-8.85 9.25c-.46.44-1.8 1.42-1.8 1.42s1.32 1.83 3 1.8c0 0 .36-.17-.16-.71a4.84 4.84 0 01-1.04-2.51z"/><path fill="url(#linear-gradient-9)" d="M41.26 26.89a25 25 0 01-9.33-7.35 27.28 27.28 0 00-16 40.8A40.13 40.13 0 0031 63.14a22.23 22.23 0 0110.26-36.25z"/><path fill="none" stroke="#fff" stroke-miterlimit="10" stroke-width="1.12" d="M31.01 63.14h0"/><path fill="#f7b852" d="M41.31 18.68c1.21 1.75 4.69 4.77 8.79 7.47a22.14 22.14 0 0112.32 5.61 27.27 27.27 0 00-21.11-13.08z"/><path fill="#ff8431" d="M41.31 18.68c-.74-.06-1.49-.09-2.24-.09a27.3 27.3 0 00-7.14 1 25 25 0 009.33 7.35 22.05 22.05 0 018.84-.73c-4.1-2.76-7.58-5.78-8.79-7.53z"/><path fill="#fffb69" d="M56.45 24.89a20 20 0 00-7.33-4.38c1.76 3.35 3.28 4.38 7.33 4.38z"/><path d="M48.73 10.64a37.93 37.93 0 013.93 2.75c.31.24-.56-2.13-1.57-2.58a4.5 4.5 0 00-2.36-.17zm4.85 3.43a42.49 42.49 0 013.9 2.79c.32.23-.54-2.14-1.55-2.6a4.5 4.5 0 00-2.35-.19zm4.56 3.36a11.76 11.76 0 012.11 2.64c.16.23 0-1.55-.55-2.06a3.17 3.17 0 00-1.56-.58z" class="cls-7"/><path fill="#44c688" d="M37.12 60.67c-.12-.39 1.41-.89 1.82-.91a7.15 7.15 0 012.14.71 9.82 9.82 0 01-2.94.62 2.68 2.68 0 01-1.02-.42zm5.51-1.31c-.13-.3 1.05-.83 1.38-.88a5.75 5.75 0 011.77.39 7.9 7.9 0 01-2.3.74 2.15 2.15 0 01-.85-.25zm4.62-1.69c-.13-.24.79-.77 1.05-.85a4.76 4.76 0 011.49.16 6.53 6.53 0 01-1.79.82 1.78 1.78 0 01-.75-.13zM50.92 56c-.14-.21.67-.76.9-.85a4.35 4.35 0 011.37 0 6 6 0 01-1.61.87 1.63 1.63 0 01-.66-.02zm3.42-1.87c-.13-.17.54-.69.74-.78a3.79 3.79 0 011.19 0 5.2 5.2 0 01-1.35.84 1.42 1.42 0 01-.58-.06zm-22.75 6.98c-.06-.44 1.64-.7 2.08-.65a7.67 7.67 0 012.14 1.12 10.52 10.52 0 01-3.21.16 2.87 2.87 0 01-1.01-.63z"/><path d="M32.64 9.54a10.87 10.87 0 004 2.25 11.42 11.42 0 01-.56-4.55c0-.11-3.45-.06-4-2.89-.15-.57-.64 3.83.56 5.19z" class="cls-7"/><path d="M20.9 74.92a3.3 3.3 0 011.35-2.33l.11-.06a8.41 8.41 0 00-.86-.15c-4.11-.61-5.16 1.84-5.37 4.59v.47a5 5 0 014.74-2.52z" class="cls-5"/><path d="M25.91 74c-4.09-2.48-6.39-2.66-7.3 4.29 0 0 4.3-3.4 6.34-1.15 2.21 2.45 5.21.19 3.64-1.23A11.27 11.27 0 0025.91 74z" class="cls-5"/><path d="M24.22 74.83C21.9 76.37 21.9 80 21.9 80s4.23-2.29 3.9-3.72a1.76 1.76 0 00-1.58-1.45zM5 46.26a3.3 3.3 0 012.66-.41h.12a8.41 8.41 0 00-.42-.76c-2.14-3.55-4.7-2.83-6.98-1.28-.14.09-.26.19-.38.29a5 5 0 014.93 2.12z" class="cls-5"/><path d="M9.34 50.53c-1.49-5.9-2.69-8.18-8.39-4.1 0 0 4.88-1.4 5.44 5.54.26 3.28 3.42 3.94 3.38 1.82a11.27 11.27 0 00-.43-3.26z" class="cls-5"/><path d="M7.26 47.37c-2.71-.64-5.37 1.84-5.37 1.84s4.17-.14 4.67 2.38c.29 1.41.7-4.22.7-4.22z" class="cls-5"/><path fill="#29b36e" d="M94.11 37.75a33.26 33.26 0 019.3-7.51 25.19 25.19 0 0111.11-2.77l1.11 1h-.58a22.67 22.67 0 00-11.44 2.26 33 33 0 00-9.5 7.02z"/><path fill="#6fd191" d="M114.94 27.51a20.72 20.72 0 016.28 1.61 16.47 16.47 0 015.29 3.6 16.25 16.25 0 00-5.51-3.19 26.21 26.21 0 00-5.41-1.1l-1.11-1z"/><path fill="#c83ad7" d="M65.33 75.39a16.47 16.47 0 011.87-1.14 15.22 15.22 0 011.39-.62c.47-.2 1-.35 1.43-.51A27.4 27.4 0 0175.93 72a57.46 57.46 0 0111.92.47 116.71 116.71 0 0011.81 1.13 39.79 39.79 0 0011.77-1.16 39.9 39.9 0 01-11.77 1.38 117 117 0 01-11.86-.91A56.91 56.91 0 0076 72.7a26.68 26.68 0 00-5.73 1.16c-.46.16-.92.31-1.36.51a14.41 14.41 0 00-1.31.62 12.84 12.84 0 00-2.36 1.62l-.32.28a11.06 11.06 0 01.41-1.5z"/><path fill="none" d="M65.07 76.21"/><path d="M42 28.65c-3.82.84-3.23 3.87-3.23 3.87s1.21-1.46 7.86-2.25A31.44 31.44 0 0142 28.65z" class="cls-7"/><path fill="#fba9ff" d="M61.77 85.07a9.85 9.85 0 01-.05-2.54 11.19 11.19 0 01.55-2.53 11.33 11.33 0 011.12-2.35 11.9 11.9 0 011.67-2l.27-.25s-.38 1.21-.42 1.51a11.57 11.57 0 00-1 1.16 10.71 10.71 0 00-2 4.5 9.74 9.74 0 00-.14 2.5z"/><path fill="#ff737d" d="M30.12 63.14a22.48 22.48 0 01-4.77-9.73 22.09 22.09 0 01-.49-5.7l.08-1.43.2-1.42a13.78 13.78 0 01.28-1.4 11.8 11.8 0 01.36-1.38 21.38 21.38 0 012.3-5.19 23.69 23.69 0 011.61-2.34l.92-1.08c.3-.36.66-.68 1-1a22.34 22.34 0 014.49-3.41 23.91 23.91 0 015.18-2.17 23.83 23.83 0 00-5.09 2.32 22.09 22.09 0 00-4.33 3.5c-.31.34-.65.66-.94 1L30 34.82a23.23 23.23 0 00-1.51 2.34 20.79 20.79 0 00-2.09 5.12 11.27 11.27 0 00-.31 1.35 13.15 13.15 0 00-.2 1.37l-.15 1.37v1.38a21.17 21.17 0 00.64 5.45 21.72 21.72 0 005.17 9.51l.4.43s-1.5.03-1.83 0z"/><path fill="#fff4c0" d="M52.94 70a28.31 28.31 0 01-6 .68 22.27 22.27 0 01-6-1 28 28 0 01-5.6-2.35 20.76 20.76 0 01-4.88-3.7l-.42-.44h1.78a20.16 20.16 0 004 3.3A27.18 27.18 0 0041.23 69 21.74 21.74 0 0047 70.25a28.69 28.69 0 005.94-.25z"/></g></g></g></svg>