<svg xmlns="http://www.w3.org/2000/svg" role="img" viewBox="-15.82 -18.82 1030.64 145.64"><title>EdgeX Foundry logo</title><style>svg {enable-background:new 0 0 1000 109.52}</style><path fill="#3d1152" d="M403.46 1.65h21.88l-47.2 62 26.94 35.25h-7.77l-26.77-35.25L413.4 7.12h-6.5l-76.69 100.75-21.52.15 40.69-53.94-39.79-52.43h7.78l39.79 52.27-36.53 48.48h6.15zM37.9 91.95c-1.21 2.4-3.03 6.13-3.48 6.92-.76 1.2-2.42 2.53-5.9 2.53H4.29V10.85c.15-1.47 1.51-2.66 3.33-2.66h28.31l-3.63 6.92c-.61 1.2-2.27 2.66-5.75 2.66h-8.78c-1.52 0-2.57.93-2.57 2.26v27.7h16.35c-1.21 2.4-3.03 6.26-3.48 7.06-.76 1.2-2.27 2.53-5.75 2.53h-4.54c-1.36 0-2.57 1.07-2.57 2.26v32.36H37.9zM99.81 8.19c7.42 0 13.32 5.19 13.47 11.72V89.7c-.15 6.53-6.06 11.72-13.47 11.72H78.76V8.19h21.05zm2.72 14.38c0-3.46-2.72-4.79-5.75-4.79h-7.11v74.18h7.11c3.03 0 5.75-1.33 5.75-4.93V22.57zm89.62 11.05c0 3.2-1.51 4.53-3.03 5.19-.76.4-5 2.13-7.87 3.2V20.7c0-2.8-2.57-5.06-5.75-5.06s-5.75 2.27-5.75 5.06v68.19c0 2.8 2.57 5.06 5.75 5.06s5.75-2.26 5.75-5.06V61.06h-.45c-2.42 0-3.94-3.06-3.94-3.06l-3.63-6.66h13.63c3.33 0 5.3 1.6 5.3 5.19v33.96c0 6.39-5.9 11.58-13.17 11.85h-6.66c-7.42 0-13.47-5.33-13.47-11.85V19.11c0-6.53 6.05-11.85 13.47-11.85h6.66c7.27.27 13.17 5.46 13.17 11.85v14.51zm84.16 58.33c-1.21 2.4-3.03 6.13-3.48 6.92-.76 1.2-2.42 2.53-5.9 2.53H242.7V10.85c.15-1.47 1.51-2.66 3.33-2.66h28.31l-3.63 6.92c-.61 1.2-2.27 2.66-5.75 2.66h-8.78c-1.52 0-2.57.93-2.57 2.26v27.7h16.35c-1.21 2.4-3.03 6.26-3.48 7.06-.76 1.2-2.27 2.53-5.75 2.53h-4.54c-1.36 0-2.57 1.07-2.57 2.26v32.36h22.69z"/><path fill="#922c48" d="M367.47 30.37l21.7-28.87h7.78l-36.53 48.17L322.98 1.5h22.42l18.81 24.62-3.79 5.16-18.63-24.31h-6.88l25.51 32.67 6.87-8.96zm21.34 28.57l.54.76 36.89 48.17h-36.16L367.1 78.24l-22.78 29.63h-7.78l30.39-39.66 26.76 34.19h20.62l-29.48-38.29zM494.79 8c-1.07 2.41-3.04 6.15-3.5 6.95-.76 1.2-2.28 2.67-5.78 2.67h-12.16c-1.37 0-2.58 1.07-2.58 2.27v29.15h19.46l-3.65 6.95c-.76 1.2-2.28 2.68-5.77 2.68h-7.3c-1.52 0-2.74.94-2.74 2.27V98.8c0 1.61-1.52 2.81-3.19 2.81h-7.6v-90.8c0-1.47 1.37-2.81 3.19-2.81h31.62zm62.17-.93c7.3.27 13.23 5.48 13.23 11.9v71.81c-.15 6.42-5.93 11.5-13.23 11.77h-8.36c-7.45 0-13.53-5.35-13.68-11.77V18.97c0-6.55 6.08-11.9 13.68-11.9h8.36zm-3.65 87.05c3.19 0 5.78-2.27 5.78-5.21v-68.2c0-2.94-2.58-5.22-5.78-5.22h-1.67c-3.19.13-5.77 2.41-5.77 5.22v68.2c0 2.81 2.58 5.08 5.77 5.21h1.67zm96.52-3.48c0 6.42-5.93 11.23-13.07 11.37v.13h-8.36c-7.45 0-13.53-4.95-13.53-11.5V10.68c.15-1.48 1.52-2.68 3.19-2.68h7.75v80.9c0 2.81 2.43 5.08 5.62 5.08h1.67c3.19 0 5.78-2.27 5.78-5.08V8h10.94v82.64zm79.79 10.97h-5.02c-5.93 0-6.84-4.15-7.3-6.02l-11.7-46.27v52.28h-10.94V8h5.02c6.08 0 7.14 2.54 7.75 5.21l11.25 48.67V8h10.94v93.61zM795.74 8c7.45 0 13.38 5.21 13.53 11.77v70.07c-.15 6.55-6.08 11.77-13.53 11.77h-21.13V8h21.13zm2.74 14.44c0-3.48-2.74-4.81-5.78-4.81h-7.14v74.48h7.14c3.04 0 5.78-1.34 5.78-4.95V22.44zm154.73 40.25v38.91h-7.75c-1.67 0-3.04-1.2-3.19-2.81v-36.1L929.19 8h8.06c.31 0 3.04.13 3.5 3.21l6.99 35.44 6.99-35.44c.46-3.07 3.19-3.21 3.5-3.21h8.06l-13.08 54.69zm-76 38.92V67.37c0-4.55-2.74-6.02-5.62-6.02h-5.78v40.25h-10.94V8h19.91c7.3 0 13.38 5.21 13.38 11.77v28.88c0 2.71-4.07 7.36-8.47 8.29 4.26 1.87 8.49 6.01 8.47 8.82-.04 10.01 0 35.84 0 35.84h-10.95zm-5.62-49.35c2.89 0 5.62-1.07 5.62-5.35V21.77c0-3.48-2.74-4.81-5.62-4.81h-5.78v35.3h5.78z"/><path fill="#922c48" fill-rule="evenodd" d="M981.45 7.74h-9.08v1.61h3.45v9.2H978v-9.2h3.45V7.74zm5.38 0h-3v10.81h1.97V9.64l3.5 8.91h1.11l3.33-8.91v8.91h1.98V7.74h-3l-2.83 7.72-3.06-7.72z" clip-rule="evenodd"/></svg>