<svg xmlns="http://www.w3.org/2000/svg" role="img" viewBox="-17.38 -17.38 903.76 511.26"><title>Elementl logo</title><path fill="#28b7ea" fill-rule="evenodd" d="M379.527 249.195l-38.2559 66.26117-43.74656-75.77181-46.12789-79.89447 46.12789-79.89447 43.74522-75.77047 38.25724 66.2625-24.6186 42.63989-26.9986 46.76255 26.9986 46.76522z"/><path fill="#1a243c" fill-rule="evenodd" d="M541.52 163.913h76.5118l-43.74655 75.77048-46.12655 79.89446H348.41248l38.25724-66.26116H489.9028l26.9986-46.76389z"/><path fill="#3090ce" fill-rule="evenodd" d="M528.159 0l46.12788 79.89447 43.74656 75.7718H541.5203l-24.61727-42.63989-26.9986-46.76521H386.66869L348.41279 0h87.4931z"/><path fill="#1a243c" fill-rule="evenodd" d="M386.668 74.51l49.23721 85.27979-49.23721 85.27978-49.23588-85.27978z"/><path fill="#3090ce" fill-rule="evenodd" d="M386.668 245.07l49.23721-85.27979h98.47309L485.14109 245.07z"/><path fill="#28b7ea" fill-rule="evenodd" d="M534.379 159.79l-98.47309.00133-49.23587-85.28112 98.47175.00134z"/><path fill="#1a243c" d="M0 476.915h47.38388v-11.8973H11.79464v-17.74263h35.58924v-11.79463H11.79464V417.6338h35.58924v-11.8973H0zm122.398-71.179h-11.79464v71.17849h47.38388v-11.8973H122.398zm98.821 71.179h47.38388v-11.8973h-35.58924v-17.74263h35.58924v-11.79463h-35.58924V417.6338h35.58924v-11.8973H221.219zm110.604-71.179v71.17849h11.79464v-42.5639l23.7946 23.79461 23.69195-23.7946v42.56389h11.99997V405.736l-35.69192 35.58791zm134.51 71.179h47.38388v-11.8973h-35.58924v-17.74263h35.58924v-11.79463h-35.58924V417.6338h35.58924v-11.8973H466.333zM624.322 448.3l-47.38388-42.66656v71.17849h11.79464v-42.5639l47.48654 42.66657v-71.28116H624.322zm75.136-30.667h23.7946v59.28119h11.89731V417.633h23.69194v-11.8973H699.458zm134.399 47.385v-59.28119h-11.79464v71.1785h47.38388V465.018z"/></svg>