<svg xmlns="http://www.w3.org/2000/svg" role="img" viewBox="26.12 50.12 513.76 87.26"><title>EnergyEcoLab logo</title><defs><clipPath id="a" clipPathUnits="userSpaceOnUse"><path d="M0 141.732h425.197V0H0z"/></clipPath></defs><g transform="matrix(1.33333 0 0 -1.33333 0 188.976)"><path fill="#00325d" fill-opacity="1" fill-rule="nonzero" stroke="none" d="M33.68 48.989h20.746v-2.964h-23.71V81.59h23.71v-2.964H33.68V65.29h20.746v-2.964H33.68z"/><path fill="#00325d" fill-opacity="1" fill-rule="nonzero" stroke="none" d="M62.044 46.025H59.08V81.59l26.674-28.452V81.59h2.963V46.025L62.044 74.477z"/><path fill="#00325d" fill-opacity="1" fill-rule="nonzero" stroke="none" d="M96.156 48.989h20.746v-2.964h-23.71V81.59h23.71v-2.964H96.156V65.29h20.746v-2.964H96.156z"/><g clip-path="url(#a)"><path fill="#00325d" fill-opacity="1" fill-rule="nonzero" stroke="none" d="M124.52 78.626V65.29h11.114c4.446 0 6.668 2.222 6.668 6.668 0 4.445-2.222 6.668-6.668 6.668zm6.816-16.3l14.226-16.301h-3.853l-14.226 16.301h-2.963V46.025h-2.964V81.59h14.078c6.421 0 9.632-3.211 9.632-9.632 0-6.422-3.211-9.632-9.632-9.632z"/><path fill="#00325d" fill-opacity="1" fill-rule="nonzero" stroke="none" d="M180.06 60.843h-14.552v2.964h17.782c0-4.92-1.733-9.113-5.201-12.581-3.467-3.468-7.661-5.201-12.581-5.201s-9.114 1.733-12.581 5.201c-3.468 3.468-5.201 7.661-5.201 12.581s1.733 9.114 5.201 12.581c3.467 3.468 7.661 5.202 12.581 5.202s9.118-1.73 12.596-5.187c1.738-1.759 3.042-3.705 3.912-5.839l-2.667-1.333c-.732 1.857-1.848 3.546-3.35 5.068-2.904 2.884-6.401 4.327-10.491 4.327s-7.583-1.448-10.477-4.342c-2.895-2.895-4.342-6.387-4.342-10.477 0-4.09 1.447-7.582 4.342-10.477 2.894-2.894 6.387-4.341 10.477-4.341 4.09 0 7.587 1.452 10.491 4.356 2.154 2.153 3.507 4.653 4.061 7.498"/><path fill="#00325d" fill-opacity="1" fill-rule="nonzero" stroke="none" d="M194.7 63.452V46.025h-2.964v17.456l-.207.326-11.648 17.783h3.408l9.929-15.174 9.928 15.174h3.409l-11.618-17.783z"/><path fill="#ee9f00" fill-opacity="1" fill-rule="nonzero" stroke="none" d="M211.238 48.989h20.746v-2.964h-23.71V81.59h23.71v-2.964h-20.746V65.29h20.746v-2.964h-20.746z"/><path fill="#ee9f00" fill-opacity="1" fill-rule="nonzero" stroke="none" d="M267.163 58.383l2.667-1.333c-.869-2.134-2.174-4.071-3.912-5.81-3.478-3.477-7.676-5.215-12.596-5.215s-9.113 1.733-12.581 5.201c-3.468 3.468-5.201 7.661-5.201 12.581s1.733 9.114 5.201 12.581c3.468 3.468 7.661 5.202 12.581 5.202s9.118-1.73 12.596-5.187c1.738-1.759 3.043-3.705 3.912-5.839l-2.667-1.333c-.731 1.857-1.848 3.546-3.349 5.068-2.905 2.884-6.402 4.327-10.492 4.327-4.09 0-7.582-1.448-10.476-4.342-2.895-2.895-4.342-6.387-4.342-10.477 0-4.09 1.447-7.582 4.342-10.477 2.894-2.894 6.386-4.342 10.476-4.342 4.09 0 7.587 1.453 10.492 4.357 1.501 1.501 2.618 3.181 3.349 5.038"/><path fill="#ee9f00" fill-opacity="1" fill-rule="nonzero" stroke="none" d="M289.688 48.989c4.09 0 7.582 1.447 10.477 4.342 2.894 2.894 4.341 6.387 4.341 10.476 0 4.09-1.447 7.582-4.341 10.477-2.895 2.894-6.387 4.342-10.477 4.342-4.09 0-7.582-1.448-10.477-4.342-2.894-2.895-4.341-6.387-4.341-10.477 0-4.089 1.447-7.582 4.341-10.476 2.895-2.895 6.387-4.342 10.477-4.342m0-2.964c-4.92 0-9.113 1.734-12.581 5.201-3.468 3.468-5.201 7.661-5.201 12.581s1.733 9.114 5.201 12.581c3.468 3.468 7.661 5.202 12.581 5.202s9.113-1.734 12.581-5.202c3.468-3.467 5.201-7.661 5.201-12.581s-1.733-9.113-5.201-12.581c-3.468-3.467-7.661-5.201-12.581-5.201"/><path fill="#00325d" fill-opacity="1" fill-rule="nonzero" stroke="none" d="M312.004 46.025V81.59h2.964V48.989h17.782v-2.964z"/><path fill="#00325d" fill-opacity="1" fill-rule="nonzero" stroke="none" d="M345.85 60.843h13.93l-6.965 13.93zm15.412-2.964h-16.893l-5.928-11.854h-3.408l16.092 32.156 1.69 3.409 1.72-3.409 16.062-32.156h-3.408z"/><path fill="#00325d" fill-opacity="1" fill-rule="nonzero" stroke="none" d="M375.428 62.326V48.989h11.114c4.446 0 6.668 2.223 6.668 6.668 0 4.446-2.222 6.669-6.668 6.669zm0 16.3V65.29h8.891c4.446 0 6.669 2.223 6.669 6.668 0 4.446-2.223 6.668-6.669 6.668zm-2.964-32.601V81.59h11.855c6.422 0 9.632-3.211 9.632-9.632 0-3.378-.889-5.868-2.668-7.469 3.261-1.324 4.891-4.267 4.891-8.832 0-6.421-3.211-9.632-9.632-9.632z"/><path fill="none" stroke="#ee9f00" stroke-dasharray="none" stroke-linecap="butt" stroke-linejoin="miter" stroke-miterlimit="10" stroke-opacity="1" stroke-width="1.842" d="M27.362 95.707h370.472"/></g></g></svg>