<svg xmlns="http://www.w3.org/2000/svg" role="img" viewBox="-46.25 -46.25 2405.00 670.00"><title>Enfabrica logo</title><path fill="#FFF" d="M2313 428v150c-666.03088 0-1332.06183 0-1998.3498-.37915 3.66505-.79059 7.58283-1.24951 11.50993-1.60535 17.29278-1.5667 33.99963-5.7912 50.53253-10.90747 19.23639-5.953 37.44497-14.1294 55.0177-23.96618 18.94763-10.60645 36.44092-23.18671 52.33194-37.8598 13.232-12.2179 25.5083-25.37846 36.27331-39.96015 17.16516-23.251 31.50714-48.02527 40.5744-75.47849 4.98255-15.08587 8.96564-30.60272 12.01508-46.19595 2.695-13.78097 4.36255-27.90662 4.84363-41.93634.47986-13.99216-.90497-28.0651-1.7868-42.08285-1.14289-18.16852-5.49653-35.73516-10.76801-53.0801-6.3714-20.96423-15.16998-40.86-26.19556-59.8179-10.07385-17.32146-21.62689-33.5914-35.2168-48.2388-12.69732-13.68528-26.19848-26.5696-41.34692-37.7176-21.8341-16.06812-45.19272-29.1889-70.54944-38.71528-31.05237-11.66622-63.06836-18.32101-96.3703-18.10393C294.67871 1.96011 293.83838 1.33241 293 1h2020c0 97.03062 0 194.06168-.3999 291.38171-1.1338-5.362-1.40503-11.12081-2.69239-16.64279-3.25659-13.97247-10.12084-26.08008-21.15478-35.33246-13.70459-11.49185-30.24146-16.91383-47.65479-18.16525-19.28271-1.38574-38.72729-.9767-57.05444 6.80977-10.6289 4.51582-19.79565 10.9432-27.1477 20.1228-9.3623 11.68929-13.97364 24.96465-15.3916 39.71648 10.93041 1.11386 21.6001 2.20117 32.04418 3.2655 1.95728-11.46438 5.22779-21.22137 14.73194-28.07205 9.93335-7.16006 21.32373-9.31389 32.92944-9.87099 8.61157-.41337 17.43872.43955 25.94946 1.96108 10.81324 1.93316 19.95777 7.13208 26.36206 16.70456 7.2439 10.82739 6.71167 22.74841 6.3252 34.6022-.49097.29636-.62549.44855-.76001.44876-18.83276.03076-37.68188-.42252-56.49194.2413-12.02588.42438-24.29932 1.2594-35.91577 4.1236-17.54737 4.32654-32.17042 13.84537-40.29346 30.94565-4.45679 9.38232-4.71338 19.40713-4.55982 29.7185.33716 22.62915 16.88184 41.3075 36.45801 48.15131 9.89038 3.45764 19.92651 5.12827 30.36621 6.15698 16.06739 1.58332 31.8269.62043 47.37183-2.95675 8.2019-1.88743 15.99805-5.53888 24.1975-8.4726V428H2313m-636.45862-35.03299c1.82556-3.94205 3.91016-7.78748 5.42505-11.84549 3.61902-9.69357 5.33276-19.79419 4.99658-30.13086-.78564-24.15802 2.23902-48.44131-2.01282-72.4746-2.83264-16.0106-10.93395-29.18755-23.5271-39.33103-13.52722-10.89601-29.7135-15.82877-46.61144-16.96947-23.09131-1.55876-46.02552-.22964-67.09534 12.8258v-82.71003h-31.38843v275.33414h31.92139v-12.98139c16.18054 9.8137 33.66992 12.85791 51.56921 13.11273 9.73267.13855 19.66944-.96734 29.20716-2.97247 19.65087-4.13123 36.26953-13.46374 47.51574-31.85733m-343.77368 28.99747c15.25696 4.9511 30.99792 6.20508 46.9049 5.99359 3.92396-.05219 7.87488-.40473 11.7538-1.00488 7.50158-1.16068 15.10192-2.07843 22.3966-4.0676 6.82776-1.86185 13.31299-4.97968 20.36157-7.70425v12.53222h31.4497c.18665-.42965.30408-.57318.30323-.71588-.30713-46.9119-.3357-93.82846-1.109-140.73273-.23731-14.3893-6.08607-27.38058-15.49891-38.35823-14.79785-17.25778-34.7655-24.20997-56.52673-25.63615-12.56531-.8235-25.43934.14683-37.94153 1.93605-20.24622 2.89746-36.93067 12.64708-48.4607 29.9994-6.8911 10.37094-10.44311 21.9454-11.55175 34.60791l31.97888 3.3045c.46423-2.49416.46423-4.56286 1.24011-6.28103 2.4884-5.50982 4.47852-11.49008 8.08069-16.20385 9.46509-12.38538 23.81348-14.54139 37.99438-15.41332 8.5896-.52817 17.39905.57114 25.95179 1.932 8.8778 1.41253 17.29638 4.97024 23.3136 11.9089 9.93493 11.45605 10.4724 25.5708 10.5421 40.93887-25.2268 0-49.82043-.5467-74.36803.27533-9.51075.31845-19.32373 2.64822-28.27637 5.995-13.26465 4.95892-24.38623 13.13284-30.89331 26.6404-4.94385 10.26237-5.896 20.9445-5.37927 31.95127.56506 12.03412 4.99145 22.59128 12.97046 31.61298 6.59985 7.46212 14.86584 12.48406 24.76379 16.4895m-545.77264-39.47464c-10.38806-11.95859-12.04004-26.15006-10.69-41.55173h139.62737c-.9928-21.05093-1.20483-41.7269-3.2235-62.22494-1.1938-12.12174-7.34864-22.95116-15.66315-32.12444-14.5918-16.09897-33.76795-22.72197-54.57233-24.3525-14.20135-1.11305-28.53674-.7325-42.71442 2.65665-33.47009 8.001-55.52978 34.52161-55.73755 69.21607-.1187 19.82477-.17639 39.65277.07032 59.47519.07672 6.16415.70886 12.42993 2.00958 18.44977 3.70276 17.1357 12.71552 30.8381 27.2857 40.92202 15.39643 10.65561 32.98267 13.77304 50.99286 14.91043 13.75946.86893 27.56519-.19198 40.93451-3.91845 22.52918-6.27954 39.78644-18.91962 48.59809-41.69187-10.11066-4.16354-20.17462-8.30792-30.24646-12.4555-3.9704 10.93545-11.99866 17.17743-22.11096 21.18695-10.44013 4.1395-21.39374 3.94113-32.38544 4.10165-15.20563.22199-29.41083-2.37863-42.17462-12.5993M957 276.5v151.19898h32c0-2.94422-.01752-5.5922.00256-8.23994.32971-43.41183.35279-86.82989 1.22754-130.23077.20575-10.20822 5.28559-19.03152 14.16962-25.36807 9.98614-7.12274 21.36615-9.02995 33.02606-9.727 6.70728-.40096 13.56848.02317 20.22803.98939 9.65991 1.40152 18.83752 4.48953 26.26648 11.30298 9.83886 9.02395 11.80432 21.21734 11.92566 33.41775.40613 40.82434.15405 81.65519.15405 122.48355v5.42691h32v-5.64007c0-41.6616.0337-83.32324-.04468-124.98468-.00928-4.91751-.1759-9.91641-1.04736-14.737-5.02527-27.80086-20.90857-46.3928-47.78589-55.40425-13.20862-4.42856-26.83545-5.17517-40.66687-5.08187-17.53345.1183-33.9118 4.14386-49.63574 12.81182v-12.42925H957V276.5m1101.36401 148.49728c11.89331-2.81692 23.03516-7.39297 32.63355-15.05017 8.51025-6.78872 15.62842-14.81585 19.0503-25.44983.29858-.92785-.50977-3.0249-1.3208-3.37219-8.97755-3.84402-18.05714-7.4494-27.21607-11.16269-3.7212 7.6894-8.66748 14.14166-16.41993 18.0336-18.33532 9.20456-37.68322 9.20108-56.82019 4.44788-20.78527-5.16263-30.00976-18.637-30.25036-40.59223-.11865-10.8313-.15015-21.66693.0166-32.49694.16028-10.41336-.03772-20.89567 1.1051-31.21662 2.05835-18.5902 15.42468-28.78177 32.21558-32.1182 10.67395-2.12093 21.34582-2.65002 32.25317-1.138 15.37024 2.13065 28.58264 7.33042 36.28723 21.82267 1.23828 2.32934 2.20313 2.56665 4.55152 1.55447 8.7959-3.79116 17.70752-7.31323 26.72387-10.99667-7.0603-20.03691-21.91772-31.7302-40.69873-39.2269-13.92187-5.55702-28.54748-6.19383-43.36352-6.14471-16.59155.055-32.33313 3.17962-46.72376 11.43844-12.8756 7.38925-22.45764 17.84308-28.5492 31.71454-5.39709 12.29032-6.26684 25.18729-6.72314 38.14179-.50427 14.31457-.47302 28.67279.01429 42.98855.30981 9.10166.88574 18.40616 3.06775 27.19113 5.78247 23.27994 20.302 39.24717 42.92175 47.67783 18.46362 6.88162 37.53186 7.89264 56.89367 5.90717 3.19385-.32752 6.3235-1.28128 10.35132-1.95292M1228.53442 222H1219c0-5.20789.026-9.85022-.0061-14.49216-.04786-6.93583 3.12414-12.32795 8.50268-16.25749 5.8822-4.29765 12.83606-5.98015 20.02039-6.19476 8.08789-.2416 16.18872-.05559 24.17395-.05559v-33.47783c-9.22815.5044-18.11292 1.15824-27.0094 1.4376-13.99634.43952-26.74256 4.58798-37.76953 13.12817-9.77063 7.56709-16.86023 17.25456-18.83423 29.78053-1.34363 8.52548-1.93921 17.16884-2.91846 26.21472h-26.90124v32.03473h27.8645V427.729h33.00806V253.86723h52.58764V222h-43.18384m533.49378 65.95868c.3186-.73786.76294-1.44733.93713-2.21784 2.64612-11.70654 8.52222-21.35095 20.06604-25.52236 8.53894-3.08567 17.70203-4.85415 26.74048-6.02068 7.49182-.9669 15.20764-.1978 23.02258-.1978v-30.99999c-12.56823 0-24.96753-.62731-37.27331.17676-12.25928.80106-23.64807 5.38474-34.81653 11.85965V222.3302h-31.42053v205.38318h32.71826c0-46.47842 0-92.67041.02588-139.7547M1867 289.5v138.20734h31.71582V222.29257H1867V289.5m18.30481-97.5c1.89404-.32695 3.91602-.3346 5.66064-1.03418 9.27503-3.7192 12.33191-10.8901 12.22022-20.57605-.07031-6.10042-5.58142-14.483-12.47522-17.0974-7.00086-2.65501-18.54724-.10696-22.41235 5.06783-5.25391 7.03435-7.44959 14.79605-3.08948 23.04102 3.99402 7.55284 10.35498 11.47795 20.09619 10.59878z"/><path fill="#F27521" d="M292.5625 1c1.27588.33241 2.11621.96011 2.9524.95466 33.30193-.21708 65.31793 6.43771 96.3703 18.10393 25.35671 9.52638 48.71533 22.64716 70.54943 38.71528 15.14844 11.148 28.6496 24.03232 41.34692 37.7176 13.58991 14.6474 25.14295 30.91734 35.2168 48.2388 11.02558 18.9579 19.82416 38.85367 26.19556 59.8179 5.27148 17.34494 9.62512 34.91158 10.768 53.0801.88184 14.01776 2.26667 28.0907 1.7868 42.08285-.48107 14.02972-2.14861 28.15537-4.84362 41.93634-3.04944 15.59323-7.03253 31.11008-12.01508 46.19595-9.06726 27.45322-23.40924 52.22748-40.5744 75.47849-10.76501 14.5817-23.04132 27.74225-36.27331 39.96014-15.89102 14.6731-33.38431 27.25336-52.33194 37.8598-17.57273 9.8368-35.78131 18.01319-55.0177 23.9662-16.5329 5.11626-33.23975 9.34075-50.53253 10.90746-3.9271.35584-7.84488.81476-11.96354 1.60535-16.2175.37915-32.23837.37915-48.92453-.00006-9.11279-1.45575-17.58184-2.38709-26.00377-3.6363-24.3217-3.60778-47.50607-11.19012-69.79917-21.29662-26.82369-12.16034-51.36367-28.13013-73.08656-48.0127-15.82943-14.48837-30.30543-30.29135-42.60832-48.06961-13.34087-19.27823-24.6714-39.54077-33.12004-61.39798C11.5641 371.6908 5.20047 347.5065 2.9598 322.31284 2.5337 317.52167 1.66467 312.76993 1 308c0-11.68756 0-23.37512.3816-35.73181 1.78667-12.37247 2.80791-24.13748 4.67507-35.76666 4.1563-25.88666 12.7169-50.47464 24.23401-73.9038 8.85311-18.0098 19.58637-34.93202 32.13321-50.76922C76.56016 93.9851 92.32776 77.82204 110.0286 63.69278c21.63716-17.27133 45.4408-31.1028 71.23493-41.37957 31.70818-12.633 64.48922-19.98142 98.72545-20.35393C281.99591 1.93744 283.99646 1.3332 286 1h6.5625m-.89166 486.78314c13.88296-7.8931 27.70913-15.88913 41.69082-23.60333 3.2937-1.81726 4.64621-3.73587 4.608-7.6839-.2289-23.64896-.00308-47.30224-.21093-70.9516-.03934-4.47711 1.14145-7.04242 5.25995-9.34732 35.12896-19.65942 70.05304-39.68494 105.17431-59.3583 4.49588-2.5184 6.14682-5.29383 5.94468-10.45457-.44294-11.30859-.12961-22.64645-.1468-33.97238-.00213-1.4053-.13568-2.81042-.2485-4.99264-38.85428 22.09988-77.06006 43.83087-115.88376 65.91336 0-11.07865-.081-21.22101.09772-31.3588.02356-1.3385 1.03217-3.24383 2.15756-3.89218 21.06769-12.13779 42.23569-24.10125 63.35382-36.15185 15.78586-9.00785 31.483-18.17284 47.34107-27.05101 2.64056-1.47835 3.25723-3.17266 3.23636-5.89684-.09958-12.99072-.01636-25.9828-.08558-38.97392-.00729-1.37177-.58734-2.74048-1.19339-4.72646-30.53234-18.04579-61.03805-36.13691-91.60607-54.12211-21.86454-12.86437-43.86997-25.49057-65.66175-38.47605-3.27188-1.94967-5.57275-3.05662-9.27713-.84363-18.02972 10.77104-36.25467 21.21475-54.37836 31.82924-26.82498 15.71056-53.6422 31.43459-80.42016 47.22507-7.79195 4.59477-15.43875 9.43567-23.37929 15.06886-.0148 13.66036-.12089 27.32196.06743 40.97953.02443 1.77093 1.08702 4.32281 2.4812 5.1601 20.31972 12.2032 40.79067 24.15418 61.199 36.21027 16.64638 9.83371 33.26778 19.70996 49.85782 29.6383.97294.58222 2.22113 1.78922 2.23542 2.72239.1592 10.39899.1004 20.8013.1004 32.22473L127.9994 264.73676c0 15.01007-.1049 29.00238.1388 42.98858.02897 1.66342 1.56982 3.94916 3.06817 4.84311 34.38813 20.5174 68.6525 41.26209 103.50191 60.97064 7.46242 4.22022 10.13315 8.361 9.42984 16.40885-.65228 7.46383-.1391 15.02954-.1391 23.29333a483875296.569 483875296.569 0 0 1-115.99956-68.43503c0 16.66004-.03722 32.31684.07561 47.97257.0084 1.16449.7852 2.83215 1.72692 3.39993 6.93264 4.17987 13.99684 8.14163 21.02212 12.16776 40.6434 23.29226 81.27304 46.60867 121.94725 69.84695 5.95941 3.40476 12.13217 6.43607 18.89948 9.5897z"/><path fill="#15151C" d="M2313 427.53134C2302.19019 428 2291.38062 428 2280.21924 428v-12.16269c-8.19946 2.93372-15.9956 6.58517-24.19751 8.4726-15.54492 3.57718-31.30444 4.54007-47.37183 2.95675-10.4397-1.02871-20.47583-2.69934-30.3662-6.15698-19.57618-6.84381-36.12086-25.52216-36.45802-48.1513-.15356-10.31138.10303-20.33619 4.55982-29.71851 8.12305-17.10028 22.7461-26.61911 40.29345-30.94565 11.61646-2.8642 23.8899-3.69922 35.91578-4.1236 18.81006-.66381 37.65918-.21054 56.49194-.2413.13452-.00021.26904-.1524.76001-.44876.38647-11.85379.9187-23.77481-6.3252-34.6022-6.4043-9.57248-15.54882-14.7714-26.36206-16.70456-8.51074-1.52153-17.33789-2.37445-25.94946-1.96108-11.60571.5571-22.9961 2.71093-32.92944 9.87099-9.50415 6.85068-12.77466 16.60767-14.73194 28.07205-10.44409-1.06433-21.11377-2.15164-32.04419-3.2655 1.41797-14.75183 6.0293-28.0272 15.3916-39.71648 7.35206-9.1796 16.5188-15.60698 27.14771-20.1228 18.32715-7.78647 37.77173-8.19551 57.05444-6.80977 17.41333 1.25142 33.9502 6.6734 47.65479 18.16525 11.03393 9.25238 17.8982 21.35999 21.15478 35.33246 1.28736 5.52197 1.5586 11.2808 2.69239 17.0964.3999 44.85224.3999 89.5398.3999 134.69602M2217.51562 395c8.57154-.33334 17.20386-.14533 25.69825-1.13846 9.56958-1.11883 18.73266-4.43033 25.63403-11.38434 11.48535-11.5729 11.97656-26.3084 10.86475-41.4772-22.8921 0-45.36084-.09543-67.82862.04571-9.3313.05863-18.09717 2.39777-26.47339 6.81125-9.48364 4.99692-12.00293 13.00486-11.39697 22.76575.52613 8.4754 4.53491 14.62894 12.25342 18.43393 9.57495 4.72015 19.71753 6.27216 31.24854 5.94336z"/><path fill="#FFF" d="M285.53134 1c-1.53488.3332-3.53543.93744-5.54236.95928-34.23623.37251-67.01727 7.72094-98.72545 20.35393-25.79412 10.27676-49.59777 24.10824-71.23493 41.37957-17.70084 14.12926-33.46844 30.2923-47.6047 48.13573-12.54685 15.8372-23.2801 32.75943-32.13322 50.76922-11.51712 23.42916-20.07771 48.01714-24.23401 73.9038-1.86716 11.62918-2.8884 23.3942-4.67508 35.29803C1 181.73778 1 91.47554 1 1h284.53134zM1 308.46866c.66467 4.30127 1.5337 9.053 1.9598 13.84418 2.24067 25.19366 8.60429 49.37796 17.6944 72.89474 8.44864 21.8572 19.77917 42.11975 33.12004 61.39798 12.3029 17.77826 26.7789 33.58124 42.60832 48.06961 21.7229 19.88257 46.26287 35.85236 73.08656 48.0127 22.2931 10.1065 45.47747 17.68884 69.79917 21.29663 8.42193 1.2492 16.89098 2.18054 25.53512 3.63629C177.07214 578 89.14429 578 1 578V308.46866z"/><path fill="#15151C" d="M1676.29443 393.25458c-10.99926 18.10602-27.61792 27.43854-47.2688 31.56976-9.53772 2.00513-19.47448 3.11102-29.20715 2.97247-17.8993-.25482-35.38867-3.29904-51.56921-13.11273v12.98139h-31.92139V152.33133h31.38843v82.71004c21.06982-13.05545 44.00403-14.38457 67.09534-12.8258 16.89794 1.1407 33.08422 6.07345 46.61145 16.96946 12.59314 10.14348 20.69445 23.32043 23.5271 39.33102 4.25183 24.0333 1.22717 48.3166 2.01281 72.47461.33618 10.33667-1.37756 20.43729-4.99658 30.13086-1.5149 4.05802-3.59949 7.90344-5.672 12.13306m-109.25012-131.80942c-13.78723 7.40326-18.47485 20.324-18.82287 34.52695-.51978 21.22052-.15186 42.50934.98168 63.70797.79773 14.91678 10.13819 26.18534 24.5791 31.34876 14.7826 5.28564 30.00391 5.0776 45.1073 2.73993 8.33118-1.2895 16.44385-4.16812 23.1338-10.16132 10.12268-9.0687 12.68835-21.05401 12.82739-33.548.22363-20.0726.05139-40.18814-1.08338-60.22153-.59448-10.49588-4.95385-19.97238-14.51123-26.22272-8.21691-5.37371-17.13379-7.64636-26.81433-8.79618-15.59033-1.85173-30.4768-.49042-45.39746 6.62614zm-234.63012 160.3244c-9.54444-3.81052-17.81043-8.83246-24.41028-16.29458-7.979-9.0217-12.4054-19.57886-12.97046-31.61298-.51673-11.00678.43542-21.6889 5.37927-31.95126 6.50708-13.50757 17.62866-21.6815 30.89331-26.64041 8.95264-3.34678 18.76563-5.67655 28.27637-5.995 24.5476-.82202 49.14123-.27533 74.36804-.27533-.0697-15.36807-.60718-29.48282-10.54211-40.93887-6.01722-6.93866-14.4358-10.49637-23.3136-11.9089-8.55274-1.36086-17.36219-2.46017-25.95179-1.932-14.1809.87193-28.5293 3.02794-37.99438 15.41332-3.60217 4.71377-5.59229 10.69403-8.08069 16.20385-.77588 1.71817-.77588 3.78687-1.24011 6.28104-10.49927-1.08493-20.98877-2.16886-31.97888-3.3045 1.10864-12.66251 4.66064-24.23698 11.55175-34.60792 11.53003-17.35232 28.21448-27.10194 48.4607-29.9994 12.5022-1.78922 25.37622-2.75955 37.94153-1.93605 21.76123 1.42618 41.72888 8.37837 56.52673 25.63615 9.41284 10.97765 15.2616 23.96892 15.4989 38.35823.77332 46.90427.80188 93.82083 1.10901 140.73273.00085.1427-.11658.28623-.30322.71588h-31.44971v-12.53222c-7.04858 2.72457-13.53381 5.8424-20.36157 7.70425-7.29468 1.98917-14.89502 2.90692-22.3966 4.0676-3.87892.60015-7.82984.9527-11.7538 1.00488-15.90698.21149-31.64794-1.04248-47.25842-6.1885m-3.39465-43.5847c2.42236 2.94916 4.453 6.37437 7.34436 8.75348 7.16211 5.89316 16.15625 7.50135 24.94348 7.86103 11.6969.47873 23.50171.08072 35.16626-.97641 9.01538-.81705 17.5619-4.03562 24.51282-10.315 12.75867-11.52594 12.51855-26.92353 13.08533-42.50797-22.40369 0-44.17945-.14206-65.95093.09262-5.9878.06451-12.10584.66925-17.90747 2.08072-6.81519 1.65811-13.64807 4.07791-18.1952 9.99564-5.67882 7.39087-6.57116 15.56347-2.99865 25.0159zM787.2561 382.7498c12.50275 9.96072 26.70795 12.56134 41.91358 12.33935 10.9917-.16052 21.94531.03784 32.38544-4.10165 10.1123-4.00952 18.14056-10.2515 22.11096-21.18695 10.07184 4.14758 20.1358 8.29196 30.24646 12.4555-8.81165 22.77225-26.06891 35.41233-48.59809 41.69187-13.36932 3.72647-27.17505 4.78738-40.9345 3.91845-18.0102-1.13739-35.59644-4.25482-50.99287-14.91043-14.57018-10.08392-23.58294-23.78631-27.2857-40.92203-1.30072-6.01983-1.93286-12.2856-2.00958-18.44976-.2467-19.82242-.18903-39.65042-.07032-59.4752.20777-34.69445 22.26746-61.21507 55.73755-69.21606 14.17768-3.38916 28.51306-3.7697 42.71442-2.65666 20.80438 1.63054 39.98053 8.25354 54.57233 24.35251 8.31451 9.17328 14.46936 20.0027 15.66314 32.12444 2.01868 20.49804 2.23072 41.174 3.22351 62.22494H776.30505c-1.35003 15.40167.30194 29.59314 10.95105 41.81168M882 295.57959c-.00409-22.08972-12.86676-35.6406-34.16199-39.68468-11.27899-2.14194-22.47473-2.5567-33.73102-.835-9.17083 1.40267-18.0393 4.17492-25.06463 10.49993-12.6806 11.41639-13.83295 26.49268-12.83008 42.16932H882v-12.14957zM957 276v-53.71152h31.81946v12.42925c15.72394-8.66796 32.1023-12.69351 49.63574-12.81182 13.83142-.0933 27.45825.6533 40.66687 5.08187 26.87732 9.01144 42.76062 27.6034 47.78589 55.40425.87146 4.82059 1.03808 9.81949 1.04736 14.737.07837 41.66144.04468 83.32309.04468 124.98468v5.64007h-32v-5.4269c0-40.82837.25208-81.65922-.15405-122.48356-.12134-12.2004-2.0868-24.3938-11.92566-33.41775-7.42896-6.81345-16.60657-9.90146-26.26648-11.30298-6.65955-.96622-13.52075-1.39035-20.22803-.9894-11.65991.69706-23.03992 2.60427-33.02606 9.727-8.88403 6.33656-13.96387 15.15986-14.16962 25.36808-.87475 43.40088-.89783 86.81894-1.22754 130.23077-.02008 2.64774-.00256 5.29572-.00256 8.23994h-32V276zm1100.92969 149.00095c-3.5935.66797-6.72315 1.62173-9.917 1.94925-19.36181 1.98547-38.43005.97445-56.89367-5.90717-22.61975-8.43066-37.13928-24.39789-42.92175-47.67783-2.18201-8.78497-2.75794-18.08947-3.06775-27.19113-.4873-14.31576-.51856-28.67398-.01429-42.98855.4563-12.9545 1.32605-25.85147 6.72315-38.14179 6.09155-13.87146 15.67358-24.32528 28.5492-31.71454 14.39062-8.25882 30.1322-11.38344 46.72375-11.43844 14.81604-.04912 29.44165.58769 43.36352 6.14471 18.781 7.4967 33.63843 19.18999 40.69873 39.2269-9.01635 3.68344-17.92798 7.2055-26.72387 10.99667-2.3484 1.01218-3.31324.77488-4.55152-1.55447-7.70459-14.49225-20.91699-19.69202-36.28723-21.82268-10.90735-1.512-21.57922-.98292-32.25317 1.13802-16.7909 3.33642-30.15723 13.52798-32.21558 32.1182-1.14282 10.32094-.94482 20.80325-1.1051 31.2166-.16675 10.83002-.13525 21.66566-.0166 32.49695.2406 21.95524 9.46509 35.4296 30.25036 40.59223 19.13697 4.7532 38.48487 4.75668 56.8202-4.44788 7.75244-3.89193 12.69873-10.3442 16.41992-18.0336 9.15893 3.71329 18.23852 7.31867 27.21606 11.1627.81104.34728 1.61939 2.44433 1.3208 3.37218-3.42187 10.63398-10.54004 18.6611-19.0503 25.44983-9.59838 7.6572-20.74023 12.23325-33.06786 15.05384zM1229.02905 222h42.68921v31.86723h-52.58765V427.729h-33.00805V254.11792h-27.8645v-32.03473h26.90124c.97925-9.04588 1.57483-17.68924 2.91846-26.21472 1.974-12.52597 9.0636-22.21344 18.83423-29.78053 11.02697-8.5402 23.7732-12.68865 37.76953-13.12818 8.89648-.27935 17.78125-.9332 27.0094-1.43759V185c-7.98523 0-16.08606-.186-24.17395.05559-7.18433.21461-14.13819 1.8971-20.02039 6.19476-5.37854 3.92954-8.55054 9.32166-8.50268 16.2575.0321 4.64193.0061 9.28426.0061 14.49215h10.02905zm532.9862 66.40485c-.01293 46.63812-.01293 92.8301-.01293 139.30853h-32.71826V222.3302h31.42053v12.70622c11.16846-6.47491 22.55725-11.0586 34.81653-11.85965 12.30578-.80407 24.70508-.17676 37.27331-.17676V254c-7.81494 0-15.53076-.7691-23.02258.1978-9.03845 1.16653-18.20154 2.93501-26.74048 6.02068-11.54382 4.17141-17.41992 13.81582-20.06604 25.52236-.1742.77051-.61853 1.47998-.95007 2.664zM1867 289v-66.70743h31.71582v205.41477H1867V289zm17.85034-97c-9.28674.87917-15.6477-3.04594-19.64172-10.59878-4.3601-8.24497-2.16443-16.00667 3.08948-23.04102 3.8651-5.17479 15.4115-7.72284 22.41235-5.06783 6.8938 2.6144 12.4049 10.99698 12.47522 17.0974.1117 9.68594-2.9452 16.85686-12.22022 20.57605-1.74462.69958-3.7666.70723-6.1151 1.03418z"/><path fill="#F2F2F2" d="M128.2706 185.05766c7.71335-4.72807 15.36015-9.56897 23.1521-14.16374 26.77797-15.79048 53.59518-31.51451 80.42016-47.22507 18.1237-10.6145 36.34864-21.0582 54.37836-31.82924 3.70438-2.213 6.00525-1.10604 9.27713.84363 21.79178 12.98548 43.79721 25.61168 65.66174 38.47605 30.56803 17.9852 61.07374 36.07632 91.55982 54.71626-9.8758 6.4101-19.66254 12.29993-29.54437 18.02557-16.93262 9.81096-33.90573 19.55245-50.89777 29.26026-14.07034 8.0386-28.23633 15.91043-42.27875 23.99713-13.05984 7.52084-26.0125 15.22781-39.36401 22.81256-18.29654-10.45425-36.27957-20.8031-54.17685-31.2982-24.06062-14.10932-48.04594-28.34694-72.08166-42.49877-12.0146-7.07399-24.06932-14.0798-36.1059-21.11644z"/><path fill="#FFFFFA" d="M128.15701 185.51022c12.15016 6.58408 24.2049 13.5899 36.21948 20.66388 24.03573 14.15183 48.02105 28.38945 72.08167 42.49877 17.89728 10.4951 35.88031 20.84395 54.18042 31.7656.34985 69.4702.34442 138.43265.33899 207.39515-6.07404-3.2041-12.2468-6.23541-18.2062-9.64017-40.67422-23.23828-81.30386-46.55469-121.94726-69.84695-7.02528-4.02613-14.08948-7.98789-21.02212-12.16776-.94171-.56778-1.71852-2.23544-1.72692-3.39993-.11283-15.65573-.07561-31.31253-.07561-47.97257 38.7188 22.84253 76.90679 45.3719 115.99956 68.43503 0-8.2638-.51318-15.8295.1391-23.29333.70331-8.04786-1.96742-12.18863-9.42984-16.40885-34.8494-19.70855-69.11378-40.45324-103.5019-60.97064-1.49836-.89395-3.0392-3.17969-3.06818-4.8431-.2437-13.98621-.1388-27.97852-.1388-42.9886l115.98528 68.16135c0-11.42343.0588-21.82574-.1004-32.22473-.01429-.93317-1.26248-2.14017-2.23541-2.72238-16.59005-9.92835-33.21145-19.8046-49.85782-29.6383-20.40834-12.0561-40.8793-24.00709-61.199-36.21027-1.39419-.8373-2.45678-3.38918-2.48121-5.16011-.18832-13.65757-.08223-27.31917.04617-41.43209z"/><path fill="#ECECEC" d="M291.32422 487.80838c-.34122-68.93726-.33579-137.89972-.33399-207.32962 12.99628-8.09244 25.94895-15.7994 39.0088-23.32025 14.04241-8.0867 28.2084-15.95853 42.27874-23.99713 16.99204-9.70781 33.96515-19.4493 50.89777-29.26026 9.88183-5.72564 19.66858-11.61548 29.69021-17.71765.50647 1.08391 1.08652 2.45262 1.09381 3.82439.06922 12.99112-.014 25.9832.08558 38.97392.02087 2.72418-.5958 4.41849-3.23636 5.89684-15.85807 8.87817-31.5552 18.04316-47.34107 27.051-21.11813 12.0506-42.28613 24.01407-63.35382 36.15186-1.1254.64835-2.134 2.55368-2.15756 3.89218-.17871 10.13779-.09772 20.28015-.09772 31.3588 38.8237-22.0825 77.02948-43.81348 115.88376-65.91336.11282 2.18222.24637 3.58734.2485 4.99264.01719 11.32593-.29614 22.6638.1468 33.97238.20214 5.16074-1.4488 7.93616-5.94468 10.45456-35.12127 19.67337-70.04535 39.69889-105.17431 59.35831-4.1185 2.3049-5.29929 4.87021-5.25995 9.34732.20785 23.64936-.01798 47.30264.21094 70.9516.0382 3.94803-1.3143 5.86664-4.608 7.6839-13.9817 7.7142-27.80787 15.71024-42.03745 23.62857z"/><path fill="#FFF" d="M2217.01953 395c-11.03491.3288-21.17749-1.2232-30.75244-5.94336-7.7185-3.805-11.7273-9.95853-12.25342-18.43393-.60595-9.7609 1.91333-17.76883 11.39698-22.76575 8.37622-4.41348 17.14208-6.75262 26.47338-6.81125 22.46778-.14114 44.93653-.04571 67.82862-.04571 1.11181 15.1688.6206 29.9043-10.86475 41.4772-6.90137 6.95401-16.06445 10.2655-25.63403 11.38434-8.49439.99313-17.12671.80512-26.19434 1.13846zm-649.6538-133.76096c14.59924-6.91044 29.48571-8.27175 45.07604-6.42002 9.68054 1.14982 18.59742 3.42247 26.81433 8.79618 9.55738 6.25034 13.91675 15.72684 14.51123 26.22272 1.13477 20.03339 1.30701 40.14893 1.08338 60.22153-.13904 12.49399-2.70471 24.4793-12.8274 33.548-6.68994 5.9932-14.8026 8.87183-23.13378 10.16132-15.1034 2.33767-30.32471 2.54571-45.1073-2.73993-14.44092-5.16342-23.78138-16.43198-24.5791-31.34876-1.13355-21.19863-1.50147-42.48745-.9817-63.70797.34803-14.20294 5.03565-27.1237 19.1443-34.73307zM1328.95018 377.7851c-3.50317-9.05265-2.61083-17.22526 3.068-24.61612 4.54712-5.91773 11.38-8.33753 18.19519-9.99564 5.80164-1.41147 11.91968-2.0162 17.90747-2.08072 21.77148-.23468 43.54724-.09262 65.95093-.09262-.56678 15.58444-.32666 30.98203-13.08533 42.50797-6.95093 6.27938-15.49744 9.49795-24.51282 10.315-11.66455 1.05713-23.46936 1.45514-35.16626.9764-8.78723-.35967-17.78137-1.96786-24.94348-7.86102-2.89136-2.37912-4.922-5.80432-7.4137-9.15326zM882 296.06506v11.6641H776.21228c-1.00287-15.67664.14948-30.75293 12.83008-42.16931 7.02533-6.32502 15.8938-9.09726 25.06463-10.49994 11.2563-1.7217 22.45203-1.30694 33.73102.835 21.29523 4.04408 34.1579 17.59496 34.16199 40.17015z"/></svg>