<svg xmlns="http://www.w3.org/2000/svg" role="img" viewBox="-2.26 -2.26 117.39 59.39"><title>ernst and young logo</title><style>svg {enable-background:new 0 0 113 55}</style><clipPath id="ey-logo-first-line"><path d="M42 36h71v10H42z"/></clipPath><clipPath id="ey-logo-second-line"><path d="M42 46h71v10H42z"/></clipPath><path d="M51.2 0L0 19.3 51.2 10z" class="ey-logo-yellow"/><path d="M34.3 27L30 35.5 25.6 27H17l9.1 15.7v10.2h7.7V42.7l9-15.7zM7.7 42.7H17v-5.4H7.7V33H18l-3.4-6H0v25.9h20.6V47H7.7z"/><g clip-path="url(#ey-logo-second-line)"><path d="M99.8 51.9c-.4 0-.9-.3-.9-1.6 0-1.2.5-1.4.9-1.4.5 0 .7.3.9.5v2c-.2.3-.5.5-.9.5zm.9-3.6c-.3-.3-.7-.5-1.1-.5-1.2 0-2 1-2 2.6 0 1.7.7 2.7 1.9 2.7.4 0 .8-.2 1.1-.5v.4h1.2v-7.1l-1.2.6.1 1.8zm-5.2-1.9l1.2-.6V53h-1.2zm-.9 2.9c-.3-.1-.6-.3-.9-.3-.6 0-.9.4-.9 1.2V53h-1.2v-5h1.2v.4c.3-.4.7-.5 1.1-.5.3 0 .7.1.9.3l-.2 1.1zm-6 2.6c-.6 0-1-.6-1-1.5s.4-1.5 1-1.5 1 .6 1 1.5-.4 1.5-1 1.5zm0-4.1c-1.3 0-2.3 1.1-2.3 2.6s1 2.6 2.3 2.6 2.3-1.1 2.3-2.6c-.1-1.5-1-2.6-2.3-2.6zm-3.8.1H86l-1.4 5h-1.1l-.5-2c-.1-.4-.2-.8-.3-1.1 0 .2-.2.8-.3 1.1l-.5 2.1h-1.1l-1.4-5h1.3l.5 1.9c.1.3.2.9.3 1.2.1-.4.2-.9.3-1.3l.5-1.9h1.1l.5 1.9c.1.3.2.9.3 1.3.1-.3.2-.8.3-1.3l.3-1.9zm-9.6 1.5v2c-.2.3-.4.5-.9.5-.4 0-.9-.3-.9-1.6 0-1.2.5-1.4.9-1.4.5 0 .8.3.9.5zm0-1.1c-.3-.3-.7-.5-1.1-.5-1.2 0-2 1-2 2.6 0 1.7.7 2.7 1.9 2.7.4 0 .8-.2 1.1-.5v.1c0 .6 0 1.3-1.6 1.3h-.1l.4 1c1.6 0 2.4-.8 2.4-2.5v-4.6H75v.4h.2zm-7 4.7H67v-5h1.2v.4c.3-.3.7-.5 1.3-.5 1.2 0 1.8.8 1.8 2.3V53h-1.2v-2.8c0-.8-.3-1.2-.9-1.2s-.9.4-.9 1.2V53h-.1zm-2.3-6.4v.6h-1.2V46h1.2zm-1.3 1.3h1.2V53h-1.2zm-2.3 1.7l1.5 3.4h-1.4l-1.1-2.3-.7.8V53h-1.2v-6.5l1.2-.6v4c.2-.2.3-.5.5-.6l1-1.3h1.4l-1.2 1.6zm-3.6-.3c-.2-.2-.5-.3-.8-.3-.6 0-.9.4-.9 1.2V53h-1.2v-5H57v.4c.3-.4.7-.5 1.1-.5.3 0 .7.1.9.3l-.3 1.1zm-6 2.6c-.6 0-1-.6-1-1.5s.4-1.5 1-1.5 1 .6 1 1.5-.4 1.5-1 1.5zm0-4.1c-1.3 0-2.3 1.1-2.3 2.6s1 2.6 2.3 2.6 2.3-1.1 2.3-2.6-1-2.6-2.3-2.6zm-3.8.1h1.2l-1.4 5h-1.1l-.6-2.1c-.1-.4-.2-.8-.3-1.1 0 .2-.2.8-.3 1.1l-.4 2.1h-1l-1.4-5h1.3l.5 1.9c.1.3.2.9.3 1.2.1-.4.2-.9.3-1.3l.5-1.9h1.1l.5 1.9c.1.3.2.9.3 1.3.1-.3.2-.8.3-1.3l.2-1.8z"/></g><g clip-path="url(#ey-logo-first-line)"><path d="M112.7 40.5c-.2-.2-.5-.3-.8-.3-.6 0-.9.4-.9 1.2v2.7h-1.2v-5h1.2v.4c.3-.4.7-.5 1.1-.5.3 0 .7.1.9.3l-.3 1.2zm-6.8.6c0-.6.4-1 .9-1 .7 0 .9.5.9 1h-1.8zm2 1.6c-.2.2-.5.4-1 .4-.2 0-1-.1-1.1-1.1h3.1v-.4c0-1.6-.8-2.6-2.1-2.6s-2.2 1.1-2.2 2.6c0 1.6.9 2.6 2.4 2.6.7 0 1.3-.3 1.8-.8l-.9-.7zm-5-.3c0 .4.2.7.5.7s.5-.1.7-.2L104 44c-.3.2-.6.2-1 .2-1 0-1.3-.8-1.3-1.5v-2.4h-.8v-1.2h.8v-1.3l1.2-.6v1.9h1.1v1.2h-1.1v2.1zm-2.4 1.6c-.3.2-.6.2-1 .2-1 0-1.3-.8-1.3-1.5v-2.4h-.8v-1.2h.8v-1.3l1.2-.6v1.9h1.1v1.2h-1.1v2.1c0 .4.2.7.5.7s.5-.1.7-.2l-.1 1.1zm-6.6-2.9c0-.6.4-1 .9-1 .7 0 .9.5.9 1h-1.8zm2.1 1.6c-.2.2-.5.4-1 .4-.2 0-1.1-.1-1.1-1.1H97v-.4c0-1.6-.8-2.6-2.1-2.6s-2.2 1.1-2.2 2.6c0 1.6.9 2.6 2.4 2.6.7 0 1.3-.3 1.8-.8l-.9-.7zm-6.1-2.6c.5 0 .9.4.9 1.4s-.3 1.6-.9 1.6c-.5 0-.8-.3-.9-.5v-2c.2-.3.5-.5.9-.5zm.2-1.1c-.4 0-.8.2-1.1.5v-2.3l-1.2.6v6.4H89v-.4c.3.3.7.5 1.1.5 1.2 0 1.9-1 1.9-2.7.1-1.6-.7-2.6-1.9-2.6zm-8.6 3.5c0-.4.3-.7.9-.7.4 0 .7.1 1 .2v.7c-.2.3-.5.5-1 .5-.6 0-.9-.3-.9-.7zm-.4-2.2c.4-.2.8-.3 1.3-.3.6 0 .9.2.9.7v.3c-.3-.1-.7-.2-1.1-.2-.9 0-2 .4-2 1.7s1 1.8 1.9 1.8c.4 0 .9-.1 1.2-.5v.4h1.2v-3.4c0-1.1-.8-1.7-2-1.7-.7 0-1.3.2-1.9.5l.5.7zm-5.1.3v2c-.2.3-.4.5-.9.5-.4 0-.9-.3-.9-1.6 0-1.2.5-1.4.9-1.4.5 0 .8.3.9.5zm0-1.1c-.3-.3-.7-.5-1.1-.5-1.2 0-2 1-2 2.6 0 1.7.7 2.7 1.9 2.7.4 0 .8-.2 1.1-.5v.1c0 .6 0 1.3-1.6 1.3h-.1l.4 1c1.6 0 2.4-.9 2.4-2.5v-4.6h-1v.4zm-6.9 4.6h-1.2v-5h1.2v.4c.3-.3.7-.5 1.3-.5 1.2 0 1.8.8 1.8 2.3v2.8H71v-2.8c0-.8-.3-1.2-.9-1.2s-.9.4-.9 1.2l-.1 2.8zm-2.4-6.3v.6h-1.2v-1.2h1.2zm-1.2 1.3h1.2v5h-1.2zm-3.2 4c-.4 0-.9-.3-.9-1.6 0-1.2.5-1.4.9-1.4.5 0 .7.3.9.5v2c-.3.3-.5.5-.9.5zm.8-3.6c-.3-.3-.7-.5-1.1-.5-1.2 0-2 1-2 2.6 0 1.7.7 2.7 1.9 2.7.4 0 .8-.2 1.1-.5v.4h1.2V37l-1.2.6.1 1.9zM58 37.6l1.2-.6V44.2H58zm-1.1.2v.6h-1.2v-1.2h1.2zm0 3.1v3.3h-1.2v-5h1.2zM50.2 42v-2.8h1.2V42c0 .8.3 1.2.9 1.2.6 0 .9-.4.9-1.2v-2.8h1.2v5h-1.2v-.4c-.3.3-.7.5-1.2.5-1.6 0-1.8-1.5-1.8-2.3zm-3.3-2.1h-1.6v-1.5h1.5c.6 0 .9.2.9.7.1.4-.1.8-.8.8zm0 3.1h-1.6v-2h1.6c.7 0 1 .3 1 1 .1.6-.3 1-1 1zm2.4-1.1c0-1-.7-1.4-1-1.5.5-.3.8-.8.8-1.4 0-1.1-.8-1.8-2.1-1.8h-3v6.9h2.9c1.5 0 2.4-.8 2.4-2.2z"/></g></svg>