<svg xmlns="http://www.w3.org/2000/svg" role="img" xmlns:xlink="http://www.w3.org/1999/xlink" viewBox="-5.13 68.88 409.50 107.00"><title>Estateably Inc. logo</title><style>svg {enable-background:new 0 0 400 245}</style><style id="style2" type="text/css"/><g id="Page-1"><g id="text20" fill="#1d1d1b" transform="translate(98.136 142.766)"><path id="path282" d="M 5.6004214,-41.59915 H 31.902898 v 4.736675 H 11.228706 v 12.315355 h 19.810445 v 4.736674 H 11.228706 V -4.7366748 H 32.404428 V 0 H 5.6004214 Z"/><path id="path284" d="m 61.381733,-30.286856 v 4.848126 q -2.173298,-1.114512 -4.513772,-1.671767 -2.340475,-0.557256 -4.848126,-0.557256 -3.817203,0 -5.739736,1.170237 -1.89467,1.170237 -1.89467,3.510712 0,1.783219 1.365277,2.814142 1.365277,1.003061 5.48897,1.922533 l 1.755356,0.390079 q 5.461108,1.170237 7.745857,3.315672 2.312612,2.117572 2.312612,5.934775 0,4.3465957 -3.454987,6.8821098 -3.427123,2.53551419 -9.445487,2.53551419 -2.507651,0 -5.238205,-0.50153027 -2.70269,-0.47366748 -5.711872,-1.44886522 v -5.2939306 q 2.842005,1.476728 5.600421,2.2290234 2.758417,0.7244326 5.461108,0.7244326 3.622163,0 5.572558,-1.2259629 1.950396,-1.2538257 1.950396,-3.5107119 0,-2.0897091 -1.421003,-3.2042211 -1.393139,-1.114512 -6.157677,-2.145435 l -1.783219,-0.417942 q -4.764537,-1.003061 -6.882109,-3.064907 -2.117573,-2.08971 -2.117573,-5.711873 0,-4.402321 3.120633,-6.798521 3.120633,-2.3962 8.860368,-2.3962 2.842005,0 5.349656,0.417942 2.507652,0.417941 4.625224,1.253825 z"/><path id="path286" d="m 75.438545,-40.066696 v 8.860368 h 10.559999 v 3.984379 H 75.438545 v 16.940578 q 0,3.8172031 1.030924,4.903852 1.058786,1.0866489 4.263007,1.0866489 h 5.266068 V 0 h -5.266068 q -5.934775,0 -8.191661,-2.2011606 -2.256886,-2.2290235 -2.256886,-8.0802104 v -16.940578 h -3.761478 v -3.984379 h 3.761478 v -8.860368 z"/><path id="path288" d="m 108.00968,-15.686752 q -6.21341,0 -8.609605,1.421002 -2.396201,1.421003 -2.396201,4.848126 0,2.7305537 1.783219,4.3465957 1.811077,1.5881792 4.903847,1.5881792 4.26301,0 6.82639,-3.0091816 2.59124,-3.0370444 2.59124,-8.0523473 v -1.142374 z m 10.22564,-2.117573 V 0 h -5.12675 v -4.7366748 q -1.75536,2.8420049 -4.37446,4.20728174 -2.6191,1.33741405 -6.40844,1.33741405 -4.792403,0 -7.634407,-2.67482809 -2.814143,-2.7026909 -2.814143,-7.2164634 0,-5.2660675 3.510712,-7.9408955 3.538575,-2.674829 10.532138,-2.674829 h 7.1886 v -0.50153 q 0,-3.538574 -2.34048,-5.461107 -2.31261,-1.950396 -6.51989,-1.950396 -2.67483,0 -5.210342,0.640845 -2.535514,0.640844 -4.875989,1.922532 v -4.736675 q 2.814143,-1.086648 5.461108,-1.616042 2.646963,-0.557255 5.154613,-0.557255 6.77066,0 10.1142,3.510712 3.34353,3.510711 3.34353,10.643586 z"/><path id="path290" d="m 132.10855,-40.066696 v 8.860368 h 10.56 v 3.984379 h -10.56 v 16.940578 q 0,3.8172031 1.03092,4.903852 1.05879,1.0866489 4.26301,1.0866489 h 5.26607 V 0 h -5.26607 q -5.93477,0 -8.19166,-2.2011606 -2.25689,-2.2290235 -2.25689,-8.0802104 v -16.940578 h -3.76147 v -3.984379 h 3.76147 v -8.860368 z"/><path id="path292" d="m 176.95008,-16.884852 v 2.507651 h -23.57192 q 0.33435,5.2939305 3.17636,8.0802098 2.86986,2.7584165 7.96875,2.7584165 2.95346,0 5.71188,-0.7244326 2.78628,-0.7244326 5.51683,-2.1732978 v 4.8481259 q -2.75842,1.17023731 -5.65615,1.78321875 -2.89773,0.61298144 -5.87905,0.61298144 -7.46723,0 -11.84168,-4.34659569 -4.3466,-4.3465957 -4.3466,-11.7580983 0,-7.662268 4.12369,-12.148178 4.15156,-4.513772 11.17298,-4.513772 6.29699,0 9.94702,4.067967 3.67789,4.040105 3.67789,11.005804 z m -5.12675,-1.504591 q -0.0557,-4.207282 -2.36834,-6.714933 -2.28475,-2.507652 -6.07409,-2.507652 -4.29087,0 -6.88211,2.424063 -2.56338,2.424063 -2.95346,6.826385 z"/><path id="path294" d="m 197.70967,-15.686752 q -6.2134,0 -8.6096,1.421002 -2.3962,1.421003 -2.3962,4.848126 0,2.7305537 1.78322,4.3465957 1.81108,1.5881792 4.90385,1.5881792 4.26301,0 6.82639,-3.0091816 2.59124,-3.0370444 2.59124,-8.0523473 v -1.142374 z m 10.22565,-2.117573 V 0 h -5.12675 v -4.7366748 q -1.75536,2.8420049 -4.37446,4.20728174 -2.61911,1.33741405 -6.40845,1.33741405 -4.7924,0 -7.6344,-2.67482809 -2.81414,-2.7026909 -2.81414,-7.2164634 0,-5.2660675 3.51071,-7.9408955 3.53857,-2.674829 10.53214,-2.674829 h 7.1886 v -0.50153 q 0,-3.538574 -2.34048,-5.461107 -2.31261,-1.950396 -6.51989,-1.950396 -2.67483,0 -5.21034,0.640845 -2.53552,0.640844 -4.87599,1.922532 v -4.736675 q 2.81414,-1.086648 5.4611,-1.616042 2.64697,-0.557255 5.15462,-0.557255 6.77066,0 10.11419,3.510712 3.34354,3.510711 3.34354,10.643586 z"/><path id="path296" d="m 239.07921,-15.575301 q 0,-5.656147 -2.34048,-8.860368 -2.31261,-3.232084 -6.38058,-3.232084 -4.06796,0 -6.40844,3.232084 -2.31261,3.204221 -2.31261,8.860368 0,5.6561468 2.31261,8.8882307 2.34048,3.2042212 6.40844,3.2042212 4.06797,0 6.38058,-3.2042212 2.34048,-3.2320839 2.34048,-8.8882307 z M 221.6371,-26.469653 q 1.61604,-2.786279 4.06797,-4.123694 2.47979,-1.365276 5.90691,-1.365276 5.68401,0 9.22258,4.513772 3.56644,4.513772 3.56644,11.86955 0,7.3557771 -3.56644,11.8695496 -3.53857,4.51377239 -9.22258,4.51377239 -3.42712,0 -5.90691,-1.33741405 -2.45193,-1.36527684 -4.06797,-4.15155614 V 0 h -5.15462 v -43.354506 h 5.15462 z"/><path id="path298" d="m 252.89915,-43.354506 h 5.12676 V 0 h -5.12676 z"/><path id="path300" d="m 284.90159,2.8977305 q -2.1733,5.5725585 -4.23515,7.2721885 -2.06184,1.699631 -5.51683,1.699631 h -4.09583 V 7.5786797 h 3.00918 q 2.11757,0 3.28781,-1.0030606 1.17024,-1.0030605 2.59124,-4.7366748 l 0.91947,-2.34047457 -12.62184,-30.70479773 h 5.43324 l 9.75198,24.4078065 9.75198,-24.4078065 h 5.43324 z"/></g><g id="g38"><defs id="defs23"><path id="SVGID_92_" d="M2.75 111.62H3.58V133.37H2.75z"/></defs><clipPath id="SVGID_1_"><use id="use25" width="100%" height="100%" x="0" y="0" overflow="visible" xlink:href="#SVGID_92_"/></clipPath><g id="g36" clip-path="url(#SVGID_1_)"><defs id="defs29"><path id="SVGID_94_" d="M2.74 76.75H81.99V168.29000000000002H2.74z"/></defs><clipPath id="SVGID_2_"><use id="use31" width="100%" height="100%" x="0" y="0" overflow="visible" xlink:href="#SVGID_94_"/></clipPath><path id="rect34" fill="#1d1d1b" d="M 0.76999998,109.64 H 5.5599999 v 25.72 H 0.76999998 Z" clip-path="url(#SVGID_2_)"/></g></g><g id="g56"><defs id="defs41"><path id="SVGID_96_" d="m 4,111.62 38.21,33.76 38.2,-33.76 -38.2,-33.76 z M 42.21,146.5 2.74,111.62 42.21,76.75 81.68,111.62 Z"/></defs><clipPath id="SVGID_3_"><use id="use43" width="100%" height="100%" x="0" y="0" overflow="visible" xlink:href="#SVGID_96_"/></clipPath><g id="g54" clip-path="url(#SVGID_3_)"><defs id="defs47"><path id="SVGID_98_" d="M2.74 76.75H81.99V168.29000000000002H2.74z"/></defs><clipPath id="SVGID_4_"><use id="use49" width="100%" height="100%" x="0" y="0" overflow="visible" xlink:href="#SVGID_98_"/></clipPath><path id="rect52" fill="#1d1d1b" d="M 0.75999999,74.769997 H 83.660002 V 148.48 H 0.75999999 Z" clip-path="url(#SVGID_4_)"/></g></g><g id="g74"><defs id="defs59"><path id="SVGID_100_" d="m 4,133.38 38.21,33.76 38.2,-33.76 -38.2,-33.76 z M 42.21,168.25 2.74,133.38 42.21,98.51 81.68,133.38 Z"/></defs><clipPath id="SVGID_5_"><use id="use61" width="100%" height="100%" x="0" y="0" overflow="visible" xlink:href="#SVGID_100_"/></clipPath><g id="g72" clip-path="url(#SVGID_5_)"><defs id="defs65"><path id="SVGID_102_" d="M2.74 76.75H81.99V168.29000000000002H2.74z"/></defs><clipPath id="SVGID_6_"><use id="use67" width="100%" height="100%" x="0" y="0" overflow="visible" xlink:href="#SVGID_102_"/></clipPath><path id="rect70" fill="#1d1d1b" d="M 0.75999999,96.529999 H 83.660002 V 170.23 H 0.75999999 Z" clip-path="url(#SVGID_6_)"/></g></g><g id="g92"><defs id="defs77"><path id="SVGID_104_" d="M41.8 77.31H42.629999999999995V99.06H41.8z"/></defs><clipPath id="SVGID_7_"><use id="use79" width="100%" height="100%" x="0" y="0" overflow="visible" xlink:href="#SVGID_104_"/></clipPath><g id="g90" clip-path="url(#SVGID_7_)"><defs id="defs83"><path id="SVGID_106_" d="M2.74 76.75H81.99V168.29000000000002H2.74z"/></defs><clipPath id="SVGID_8_"><use id="use85" width="100%" height="100%" x="0" y="0" overflow="visible" xlink:href="#SVGID_106_"/></clipPath><path id="rect88" fill="#1d1d1b" d="m 39.810001,75.330002 h 4.79 V 101.05 h -4.79 z" clip-path="url(#SVGID_8_)"/></g></g><g id="g110"><defs id="defs95"><path id="SVGID_108_" d="M80.91 111.62H81.74V133.37H80.91z"/></defs><clipPath id="SVGID_9_"><use id="use97" width="100%" height="100%" x="0" y="0" overflow="visible" xlink:href="#SVGID_108_"/></clipPath><g id="g108" clip-path="url(#SVGID_9_)"><defs id="defs101"><path id="SVGID_110_" d="M2.74 76.75H81.99V168.29000000000002H2.74z"/></defs><clipPath id="SVGID_10_"><use id="use103" width="100%" height="100%" x="0" y="0" overflow="visible" xlink:href="#SVGID_110_"/></clipPath><path id="rect106" fill="#1d1d1b" d="m 78.93,109.64 h 4.79 v 25.72 h -4.79 z" clip-path="url(#SVGID_10_)"/></g></g><g id="g128"><defs id="defs113"><path id="SVGID_112_" d="M41.8 145.72H42.629999999999995V167.47H41.8z"/></defs><clipPath id="SVGID_11_"><use id="use115" width="100%" height="100%" x="0" y="0" overflow="visible" xlink:href="#SVGID_112_"/></clipPath><g id="g126" clip-path="url(#SVGID_11_)"><defs id="defs119"><path id="SVGID_114_" d="M2.74 76.75H81.99V168.29000000000002H2.74z"/></defs><clipPath id="SVGID_12_"><use id="use121" width="100%" height="100%" x="0" y="0" overflow="visible" xlink:href="#SVGID_114_"/></clipPath><path id="rect124" fill="#1d1d1b" d="m 39.810001,143.74001 h 4.79 V 169.46 h -4.79 z" clip-path="url(#SVGID_12_)"/></g></g><g id="g146"><defs id="defs131"><path id="SVGID_116_" d="M53.4 108.95L42.21 99.06 15.56 122.39 27.41 132.87z"/></defs><clipPath id="SVGID_13_"><use id="use133" width="100%" height="100%" x="0" y="0" overflow="visible" xlink:href="#SVGID_116_"/></clipPath><g id="g144" clip-path="url(#SVGID_13_)"><defs id="defs137"><path id="SVGID_118_" d="M2.74 76.75H81.99V168.29000000000002H2.74z"/></defs><clipPath id="SVGID_14_"><use id="use139" width="100%" height="100%" x="0" y="0" overflow="visible" xlink:href="#SVGID_118_"/></clipPath><path id="rect142" fill="#1d9dd9" d="M 13.58,97.080002 H 55.379999 V 134.85 H 13.58 Z" clip-path="url(#SVGID_14_)"/></g></g><g id="g164"><defs id="defs149"><path id="SVGID_120_" d="M 16.19,122.39 27.4,132.3 52.76,108.95 42.2,99.61 Z m 11.23,11.04 -12.49,-11.04 27.29,-23.88 11.81,10.43 z"/></defs><clipPath id="SVGID_15_"><use id="use151" width="100%" height="100%" x="0" y="0" overflow="visible" xlink:href="#SVGID_120_"/></clipPath><g id="g162" clip-path="url(#SVGID_15_)"><defs id="defs155"><path id="SVGID_122_" d="M2.74 76.75H81.99V168.29000000000002H2.74z"/></defs><clipPath id="SVGID_16_"><use id="use157" width="100%" height="100%" x="0" y="0" overflow="visible" xlink:href="#SVGID_122_"/></clipPath><path id="rect160" fill="#1d1d1b" d="M 12.95,96.529999 H 56.010001 V 135.41 H 12.95 Z" clip-path="url(#SVGID_16_)"/></g></g><g id="g182"><defs id="defs167"><path id="SVGID_124_" d="M55.91 126.14L37.99 142.21 31.64 136.59 49.11 120.57z"/></defs><clipPath id="SVGID_17_"><use id="use169" width="100%" height="100%" x="0" y="0" overflow="visible" xlink:href="#SVGID_124_"/></clipPath><g id="g180" clip-path="url(#SVGID_17_)"><defs id="defs173"><path id="SVGID_126_" d="M2.74 76.75H81.99V168.29000000000002H2.74z"/></defs><clipPath id="SVGID_19_"><use id="use175" width="100%" height="100%" x="0" y="0" overflow="visible" xlink:href="#SVGID_126_"/></clipPath><path id="rect178" fill="#1d9dd9" d="m 29.65,118.59 h 28.239999 v 25.6 H 29.65 Z" clip-path="url(#SVGID_19_)"/></g></g><g id="g200"><defs id="defs185"><path id="SVGID_128_" d="m 32.26,136.59 5.75,5.06 17.28,-15.49 -6.14,-5.03 z m 5.75,6.18 -6.99,-6.17 18.08,-16.58 7.45,6.11 z"/></defs><clipPath id="SVGID_20_"><use id="use187" width="100%" height="100%" x="0" y="0" overflow="visible" xlink:href="#SVGID_128_"/></clipPath><g id="g198" clip-path="url(#SVGID_20_)"><defs id="defs191"><path id="SVGID_130_" d="M2.74 76.75H81.99V168.29000000000002H2.74z"/></defs><clipPath id="SVGID_22_"><use id="use193" width="100%" height="100%" x="0" y="0" overflow="visible" xlink:href="#SVGID_130_"/></clipPath><path id="rect196" fill="#1d1d1b" d="m 29.040001,118.04 h 29.49 v 26.71 h -29.49 z" clip-path="url(#SVGID_22_)"/></g></g><g id="g218"><defs id="defs203"><path id="SVGID_132_" d="M81.33 133.38L42.21 167.48 42.21 145.72 68.62 122.39z"/></defs><clipPath id="SVGID_23_"><use id="use205" width="100%" height="100%" x="0" y="0" overflow="visible" xlink:href="#SVGID_132_"/></clipPath><g id="g216" clip-path="url(#SVGID_23_)"><defs id="defs209"><path id="SVGID_134_" d="M2.74 76.75H81.99V168.29000000000002H2.74z"/></defs><clipPath id="SVGID_25_"><use id="use211" width="100%" height="100%" x="0" y="0" overflow="visible" xlink:href="#SVGID_134_"/></clipPath><path id="rect214" fill="#1d9dd9" d="m 40.23,120.41 h 43.080001 v 49.05 H 40.23 Z" clip-path="url(#SVGID_25_)"/></g></g><g id="g236"><defs id="defs221"><path id="SVGID_136_" d="m 42.63,145.92 v 20.65 L 80.7,133.39 68.63,122.96 Z m -0.83,21.97 v -22.36 l 26.82,-23.7 12.71,11.54 z"/></defs><clipPath id="SVGID_26_"><use id="use223" width="100%" height="100%" x="0" y="0" overflow="visible" xlink:href="#SVGID_136_"/></clipPath><g id="g234" clip-path="url(#SVGID_26_)"><defs id="defs227"><path id="SVGID_138_" d="M2.74 76.75H81.99V168.29000000000002H2.74z"/></defs><clipPath id="SVGID_28_"><use id="use229" width="100%" height="100%" x="0" y="0" overflow="visible" xlink:href="#SVGID_138_"/></clipPath><path id="rect232" fill="#1d1d1b" d="m 39.810001,119.86 h 43.490002 v 50.02 H 39.810001 Z" clip-path="url(#SVGID_28_)"/></g></g><g id="g254"><defs id="defs239"><path id="SVGID_140_" d="M42.21 145.72L42.21 167.48 3.37 133.38 15.56 122.39z"/></defs><clipPath id="SVGID_29_"><use id="use241" width="100%" height="100%" x="0" y="0" overflow="visible" xlink:href="#SVGID_140_"/></clipPath><g id="g252" clip-path="url(#SVGID_29_)"><defs id="defs245"><path id="SVGID_142_" d="M2.74 76.75H81.99V168.29000000000002H2.74z"/></defs><clipPath id="SVGID_31_"><use id="use247" width="100%" height="100%" x="0" y="0" overflow="visible" xlink:href="#SVGID_142_"/></clipPath><path id="rect250" fill="#1d9dd9" d="m 1.39,120.41 h 42.799999 v 49.05 H 1.39 Z" clip-path="url(#SVGID_31_)"/></g></g><g id="g272"><defs id="defs257"><path id="SVGID_144_" d="m 4,133.37 37.8,33.18 V 145.91 L 15.57,122.95 Z m 38.21,34.88 -39.47,-34.87 12.81,-11.54 27.07,23.7 z"/></defs><clipPath id="SVGID_32_"><use id="use259" width="100%" height="100%" x="0" y="0" overflow="visible" xlink:href="#SVGID_144_"/></clipPath><g id="g270" clip-path="url(#SVGID_32_)"><defs id="defs263"><path id="SVGID_146_" d="M2.74 76.75H81.99V168.29000000000002H2.74z"/></defs><clipPath id="SVGID_34_"><use id="use265" width="100%" height="100%" x="0" y="0" overflow="visible" xlink:href="#SVGID_146_"/></clipPath><path id="rect268" fill="#1d1d1b" d="M 0.75999999,119.86 H 44.6 v 50.37 H 0.75999999 Z" clip-path="url(#SVGID_34_)"/></g></g></g></svg>