<svg xmlns="http://www.w3.org/2000/svg" role="img" viewBox="460.82 190.82 997.36 697.36"><title>Ethereum Foundation logo</title><path d="M566.6 822.2c0 2.1-1.9 3.8-4 3.8h-74.8c1.9 18.5 15.8 35.4 35.4 35.4 13.4 0 23.3-5.1 30.8-15.8.8-1.1 1.9-1.9 3.2-1.9 2.1 0 3.8 1.6 3.8 3.8 0 .8-.3 1.3-.5 1.9C553 862.5 538 869 523.2 869c-25.2 0-43.2-22.5-43.2-46.7 0-24.1 18-46.7 43.2-46.7 25.2-.1 43.4 22.4 43.4 46.6zm-8-3.8c-1.6-18.5-15.8-35.4-35.4-35.4s-33.5 16.9-35.4 35.4zm98.9-41c2.1 0 3.8 1.9 3.8 3.8 0 2.1-1.6 3.8-3.8 3.8h-20.1v78.8c0 1.9-1.6 3.8-3.8 3.8-2.1 0-3.8-1.9-3.8-3.8V785h-19.3c-2.1 0-3.8-1.6-3.8-3.8 0-1.9 1.6-3.8 3.8-3.8h19.3v-29c0-2.1 1.6-3.8 3.8-3.8 2.1 0 3.8 1.6 3.8 3.8v29zm122.6 38.1v47.7c0 2.1-1.9 3.8-3.8 3.8-2.1 0-3.8-1.6-3.8-3.8v-47.7c0-16.1-9.1-32.2-27.1-32.2-23.1 0-33 20.1-31.6 40.8 0 .5.3 2.9.3 3.2v35.9c0 2.1-1.6 3.8-3.8 3.8-2.1 0-3.8-1.6-3.8-3.8V706.3c0-1.9 1.6-3.8 3.8-3.8 2.1 0 3.8 1.9 3.8 3.8v88.8c6.4-11.5 18-19.3 31.4-19.3 22 0 34.6 19.3 34.6 39.7zm134.3 6.7c0 2.1-1.9 3.8-4 3.8h-74.8c1.9 18.5 15.8 35.4 35.4 35.4 13.4 0 23.3-5.1 30.8-15.8.8-1.1 1.9-1.9 3.2-1.9 2.1 0 3.8 1.6 3.8 3.8 0 .8-.3 1.3-.5 1.9-7.5 13.1-22.5 19.6-37.3 19.6-25.2 0-43.2-22.5-43.2-46.7 0-24.1 18-46.7 43.2-46.7s43.4 22.4 43.4 46.6zm-8-3.8c-1.6-18.5-15.8-35.4-35.4-35.4s-33.5 16.9-35.4 35.4zm100-37.5c0 2.4-1.3 3.8-3.5 4-22 3.2-31.9 21.2-31.9 42.1v35.9c0 2.1-1.6 3.8-3.8 3.8-2.1 0-3.8-1.6-3.8-3.8v-81.8c0-2.1 1.6-3.8 3.8-3.8 2.1 0 3.8 1.6 3.8 3.8v16.6c6.2-10.5 18.5-20.4 31.4-20.4 1.8.1 4 1.4 4 3.6zm123.1 41.3c0 2.1-1.9 3.8-4 3.8h-74.8c1.9 18.5 15.8 35.4 35.4 35.4 13.4 0 23.3-5.1 30.8-15.8.8-1.1 1.9-1.9 3.2-1.9 2.1 0 3.8 1.6 3.8 3.8 0 .8-.3 1.3-.5 1.9-7.5 13.1-22.5 19.6-37.3 19.6-25.2 0-43.2-22.5-43.2-46.7 0-24.1 18-46.7 43.2-46.7 25.1-.1 43.4 22.4 43.4 46.6zm-8.1-3.8c-1.6-18.5-15.8-35.4-35.4-35.4s-33.5 16.9-35.4 35.4zm129-36.7v82c0 2.1-1.9 3.8-3.8 3.8-2.1 0-3.8-1.6-3.8-3.8v-15.6c-6.2 12.3-17.2 21.2-31.1 21.2-22.3 0-34.6-19.3-34.6-39.7v-48c0-1.9 1.6-3.8 3.8-3.8s3.8 1.9 3.8 3.8v48c0 16.1 9.1 32.2 27.1 32.2 25.2 0 31.1-23.6 31.1-49.6v-30.6c0-1.9 1.6-3.8 3.8-3.8 1.8.1 3.7 2 3.7 3.9zm189.6 33.5v48c0 2.1-1.9 3.8-3.8 3.8-2.1 0-3.8-1.6-3.8-3.8v-48c0-16.1-9.1-31.9-27.1-31.9-22.5 0-31.1 24.1-31.1 42.9v37c0 2.1-1.9 3.8-3.8 3.8-2.1 0-3.8-1.6-3.8-3.8v-48c0-16.1-9.1-31.9-27.1-31.9-22.8 0-32.2 18-31.4 41.8 0 .5.3 1.6 0 1.9v36.2c0 2.1-1.6 3.8-3.8 3.8-2.1 0-3.8-1.6-3.8-3.8v-82.1c0-2.1 1.6-3.8 3.8-3.8 2.1 0 3.8 1.6 3.8 3.8v13.7c6.4-11.5 18-19 31.4-19 15.3 0 27.1 9.7 31.9 23.9 6.2-13.9 18.2-23.9 33.8-23.9 22.2 0 34.8 19 34.8 39.4zM960 210.6L834.6 418.7l125.4-57z" fill="#8a92b2"/><path fill="#62688f" d="M960 361.7l-125.4 57L960 492.9zm125.4 57L960 210.6v151.1z"/><path fill="#454a75" d="M960 492.9l125.4-74.2-125.4-57z"/><path fill="#8a92b2" d="M834.6 442.5L960 619.3V516.6z"/><path fill="#62688f" d="M960 516.6v102.7l125.5-176.8z"/></svg>