<svg xmlns="http://www.w3.org/2000/svg" role="img" xmlns:xlink="http://www.w3.org/1999/xlink" viewBox="-3.84 -2.09 446.42 131.17"><title>Fachhochschule Kiel (member) logo</title><defs><symbol overflow="visible"><path d="M2 0v-39.98438h15.9375V0zm1.98438-2H15.9375v-36H3.98437zm0 0"/></symbol><symbol id="a" overflow="visible"><path d="M10.51563-36.70313v15.34376h23.03124v4.625H10.51563V0H4.92188v-41.28125H34.25v4.57813zm0 0"/></symbol><symbol id="b" overflow="visible"><path d="M12.125.59375c-3.17969 0-5.57031-.83594-7.17188-2.51563-1.60546-1.6875-2.40625-3.99218-2.40625-6.92187 0-2.09375.39454-3.80469 1.1875-5.14063.78907-1.34375 1.82813-2.39453 3.10938-3.15625 1.28125-.7578 2.73828-1.28515 4.375-1.57812 1.64453-.28906 3.3164-.45703 5.01563-.5l7.10937-.125v-1.71875c0-1.3125-.13672-2.42578-.40625-3.34375-.27344-.91406-.69531-1.65625-1.26563-2.21875-.5625-.57031-1.27343-.98828-2.125-1.25-.84374-.25781-1.84374-.39063-3-.39063-1.01171 0-1.92968.07422-2.75.21876-.82421.14843-1.53906.41406-2.14062.79687-.60547.375-1.09375.89063-1.46875 1.54688-.36719.64843-.60547 1.46874-.71875 2.46874l-5.51563-.5c.19532-1.25.56641-2.39453 1.10938-3.4375.55078-1.03906 1.32813-1.9414 2.32813-2.70312 1.0078-.76953 2.26953-1.36328 3.78125-1.78125 1.51953-.41406 3.35156-.625 5.5-.625 3.97656 0 6.97265.91406 8.98437 2.73438 2.01953 1.82421 3.03125 4.46484 3.03125 7.92187v13.65625c0 1.5625.20313 2.74219.60938 3.53125.40624.79297 1.1875 1.1875 2.34374 1.1875.28907 0 .58204-.01953.875-.0625.28907-.03906.57813-.08594.85938-.14063v3.28125c-.66797.15626-1.32813.26954-1.98438.34376-.65624.08203-1.35546.125-2.09374.125-1 0-1.85547-.13282-2.5625-.39063-.71094-.26953-1.29297-.67188-1.75-1.20313-.44922-.53906-.79297-1.20703-1.03126-2-.23046-.78906-.37109-1.71093-.42187-2.76562h-.1875c-.5625 1.01172-1.1836 1.92969-1.85938 2.75-.66796.82422-1.45312 1.52344-2.35937 2.09375-.89844.57422-1.91797 1.01563-3.0625 1.32813-1.13672.3203-2.44922.48437-3.9375.48437zM13.32813-3.375c1.67578 0 3.14453-.30469 4.40625-.92188 1.2578-.61328 2.30468-1.39843 3.14062-2.35937.83203-.95703 1.45313-2 1.85938-3.125.40624-1.13281.60937-2.21875.60937-3.25v-2.60938l-5.76563.10938c-1.29296.02344-2.52343.11719-3.6875.28125-1.15625.16797-2.17968.4961-3.0625.98438-.875.49218-1.57421 1.17187-2.09375 2.04687-.51171.875-.76562 2.02734-.76562 3.45313 0 1.71875.46094 3.04687 1.39063 3.98437.92578.9375 2.25 1.40625 3.96875 1.40625zm0 0"/></symbol><symbol id="c" overflow="visible"><path d="M8.0625-16c0 1.82422.1289 3.4961.39063 5.01563.2578 1.52343.70312 2.83593 1.32812 3.9375.625 1.10546 1.44531 1.96093 2.46875 2.5625 1.03125.60546 2.30078.90625 3.8125.90625 1.875 0 3.4375-.50391 4.6875-1.51563 1.25781-1.01953 2.03906-2.58203 2.34375-4.6875l5.32813.34375c-.1797 1.3125-.5625 2.57422-1.15626 3.78125-.58593 1.21094-1.3828 2.27734-2.39062 3.20313-1 .91796-2.22656 1.65625-3.67188 2.21875-1.4375.55078-3.10546.82812-5 .82812-2.48046 0-4.58984-.42188-6.32812-1.26563-1.74219-.84374-3.15234-2-4.23438-3.46875C4.5547-5.61719 3.76954-7.35938 3.28125-9.35938c-.49219-2-.73438-4.17187-.73438-6.51562 0-2.13281.17579-4.01563.53125-5.64063.35157-1.6328.84766-3.0625 1.48438-4.28124.63281-1.21876 1.3789-2.2422 2.23438-3.07813.86328-.83203 1.79687-1.49219 2.79687-1.98438 1.00781-.5 2.0664-.85937 3.17188-1.07812 1.11328-.22656 2.23828-.34375 3.375-.34375 1.78124 0 3.36328.2461 4.75.73438 1.3828.48046 2.57812 1.14843 3.57812 2 1.00781.85546 1.82813 1.85937 2.45313 3.01562.625 1.14844 1.0664 2.38281 1.32812 3.70313l-5.42188.42187c-.28124-1.75781-.98046-3.15625-2.09374-4.1875-1.10547-1.03906-2.6836-1.5625-4.73438-1.5625-1.51172 0-2.77344.25-3.78125.75-1 .5-1.8125 1.25781-2.4375 2.26563-.625 1-1.07031 2.26171-1.32813 3.78124C8.19141-19.83593 8.0625-18.05078 8.0625-16zm0 0"/></symbol><symbol id="d" overflow="visible"><path d="M9.28125-26.28125c.59375-1.07031 1.22656-1.98438 1.90625-2.73438.6875-.75 1.4375-1.36718 2.25-1.85937.82031-.48828 1.72266-.84375 2.70313-1.0625.97656-.22656 2.0703-.34375 3.28124-.34375 2.03126 0 3.69532.27734 5 .82813 1.30079.54296 2.32813 1.30859 3.07813 2.29687.75.98047 1.26563 2.15625 1.54688 3.53125.28124 1.36719.42187 2.86719.42187 4.5V0h-5.29688v-20.09375c0-1.35156-.08593-2.53516-.25-3.54688-.16796-1.01953-.48437-1.86328-.95312-2.53124-.46875-.67579-1.13672-1.1875-2-1.53126-.85547-.34374-1.96484-.51562-3.32813-.51562-1.25 0-2.3828.23047-3.39062.6875-1 .44922-1.85938 1.08594-2.57813 1.90625-.71093.8125-1.26171 1.8086-1.65625 2.98438-.38671 1.16796-.57812 2.48437-.57812 3.95312V0H4.15625v-43.48438H9.4375v11.3125c0 .64844-.01172 1.29297-.03125 1.9375-.02344.64844-.04688 1.2461-.07813 1.79688-.03125.54297-.05859 1.00781-.07812 1.39063-.01172.375-.02734.6328-.04688.76562zm0 0"/></symbol><symbol id="e" overflow="visible"><path d="M30.84375-15.875c0 5.54297-1.21875 9.67188-3.65625 12.39063S21.20312.59375 16.54687.59375c-2.19921 0-4.16796-.33594-5.90624-1-1.7422-.66406-3.21485-1.67969-4.42188-3.04688-1.19922-1.375-2.11719-3.08593-2.75-5.14062-.63672-2.0625-.95313-4.48828-.95313-7.28125 0-10.9375 4.73829-16.40625 14.21875-16.40625 2.45704 0 4.57813.34375 6.35938 1.03125 1.78906.67969 3.2539 1.69922 4.39063 3.0625 1.14453 1.36719 1.98828 3.07422 2.53124 5.125.55079 2.05469.82813 4.44922.82813 7.1875zm-5.53125 0c0-2.46875-.19531-4.5-.57813-6.09375-.375-1.60156-.93359-2.88281-1.67187-3.84375-.73047-.95703-1.6211-1.625-2.67188-2-1.05468-.38281-2.24609-.57813-3.57812-.57813-1.34375 0-2.5586.20313-3.64063.60938-1.08593.39844-2.0078 1.07813-2.76562 2.04688-.76172.96874-1.34375 2.2578-1.75 3.85937-.39844 1.59375-.59375 3.59375-.59375 6 0 2.46094.21094 4.4961.64063 6.10938.42578 1.60546 1.01562 2.88671 1.76562 3.84375.75781.96093 1.64844 1.63671 2.67188 2.03125 1.01953.38671 2.14062.57812 3.35937.57812 1.34375 0 2.5625-.1875 3.65625-.5625 1.09375-.38281 2.01953-1.05469 2.78125-2.01563.75781-.95703 1.34375-2.24218 1.75-3.85937.41406-1.625.625-3.66406.625-6.125zm0 0"/></symbol><symbol id="f" overflow="visible"><path d="M27.82813-8.76563c0 1.4922-.28907 2.82032-.85938 3.98438-.57422 1.15625-1.40625 2.13281-2.5 2.92188-1.09375.79296-2.4375 1.40234-4.03125 1.82812-1.59375.41406-3.41797.625-5.46875.625-1.83594 0-3.49219-.14844-4.96875-.4375C8.53125-.125 7.23828-.57813 6.125-1.20313c-1.11719-.625-2.04688-1.4453-2.79688-2.46875-.75-1.03125-1.30468-2.28515-1.65625-3.76562l4.65625-.90625c.44532 1.69922 1.375 2.94531 2.78125 3.73438 1.40625.79296 3.35938 1.1875 5.85938 1.1875 1.13281 0 2.17578-.07813 3.125-.23438.94531-.15625 1.75781-.42578 2.4375-.8125.6875-.38281 1.21875-.89063 1.59375-1.51563.38281-.6328.57813-1.42187.57813-2.35937 0-.95703-.22657-1.74219-.67188-2.35938-.44922-.61328-1.07422-1.125-1.875-1.53125-.80469-.41406-1.77734-.77343-2.92188-1.07812-1.13671-.30078-2.38671-.64063-3.75-1.01563-1.27343-.33203-2.53125-.70312-3.78125-1.10937-1.25-.41406-2.3828-.95703-3.39062-1.625-1-.67578-1.8125-1.50781-2.4375-2.5-.625-1-.9375-2.2539-.9375-3.76563 0-2.8828 1.02344-5.08203 3.07813-6.59374 2.0625-1.51954 5.0664-2.28126 9.01562-2.28126 3.5 0 6.27344.6211 8.32813 1.85938 2.0625 1.23047 3.36718 3.19922 3.92187 5.90625l-4.75.59375c-.17969-.82031-.5-1.50781-.96875-2.0625-.46875-.5625-1.03906-1.01563-1.70313-1.35938-.65624-.34374-1.40234-.58593-2.23437-.73437-.83594-.14453-1.69922-.21875-2.59375-.21875-2.38672 0-4.14844.36719-5.28125 1.09375-1.125.71875-1.6875 1.8125-1.6875 3.28125 0 .85547.20703 1.5625.625 2.125.41406.55469 1 1.02344 1.75 1.40625.75781.375 1.66406.71094 2.71875 1 1.05078.28125 2.21094.57813 3.48438.89063.84374.21093 1.70312.4375 2.57812.6875.875.24218 1.72656.53124 2.5625.875.83203.34374 1.61328.74609 2.34375 1.20312.72656.46094 1.36328 1.01172 1.90625 1.65625.55078.64844.98828 1.40234 1.3125 2.26563.32031.85546.48438 1.84375.48438 2.96875zm0 0"/></symbol><symbol id="g" overflow="visible"><path d="M9.20313-31.70313v20.09376c0 1.55468.10937 2.84375.32812 3.875.22656 1.03125.59375 1.86718 1.09375 2.5.50781.63671 1.17969 1.08984 2.01563 1.35937.83203.26172 1.86328.39063 3.09375.39063 1.25 0 2.375-.21875 3.375-.65625 1.0078-.44532 1.86718-1.08204 2.57812-1.90625.71875-.83204 1.26953-1.85938 1.65625-3.07813.39453-1.21875.59375-2.61719.59375-4.20313v-18.375h5.26563v24.9375c0 .66797.0039 1.3672.01562 2.09375.00781.73047.02344 1.42188.04688 2.07813.01953.65625.03906 1.21875.0625 1.6875.01953.46875.03906.77344.0625.90625h-4.98438c-.02344-.09375-.04297-.35156-.0625-.78125-.02344-.4375-.04688-.92969-.07813-1.48438-.02343-.5625-.04296-1.1289-.0625-1.70312-.02343-.57031-.03124-1.05469-.03124-1.45313h-.09376c-.5.91797-1.05859 1.75-1.67187 2.5-.60547.7422-1.3086 1.3711-2.10938 1.89063-.79296.51172-1.71093.90625-2.75 1.1875-1.03124.28906-2.23046.4375-3.59374.4375-1.76172 0-3.27735-.21484-4.54688-.64063-1.27344-.4375-2.32031-1.10156-3.14063-2-.8125-.90625-1.41406-2.0625-1.79687-3.46875-.38672-1.40625-.57813-3.09375-.57813-5.0625v-21.125zm0 0"/></symbol><symbol id="h" overflow="visible"><path d="M4.04688 0v-43.48438H9.3125V0zm0 0"/></symbol><symbol id="i" overflow="visible"><path d="M8.09375-14.73438c0 1.65625.16406 3.1836.5 4.57813.34375 1.39844.86719 2.60156 1.57813 3.60938.71875 1 1.6328 1.78125 2.75 2.34375 1.11328.55468 2.45312.82812 4.01562.82812 2.28125 0 4.10938-.45703 5.48438-1.375 1.3828-.91406 2.3164-2.07813 2.79687-3.48438l4.64063 1.3125c-.33594.88672-.8047 1.77344-1.40626 2.65625-.59374.88672-1.39062 1.6875-2.39062 2.40625-.99219.71094-2.23438 1.29688-3.73438 1.76563-1.49218.45703-3.28906.6875-5.39062.6875-4.6875 0-8.26172-1.39453-10.71875-4.1875-2.44922-2.80078-3.67188-6.95703-3.67188-12.46875 0-2.96875.3672-5.47656 1.10938-7.53125.75-2.0625 1.76563-3.73828 3.04688-5.03125 1.28906-1.28906 2.79687-2.22266 4.51562-2.79688 1.71875-.5703 3.55469-.85937 5.51563-.85937 2.65624 0 4.875.4336 6.65624 1.29688 1.78907.85546 3.22657 2.03906 4.3125 3.54687 1.08204 1.51172 1.85157 3.29297 2.3125 5.34375.45704 2.05469.6875 4.27344.6875 6.65625v.70313zM25.25-18.78124c-.29297-3.34375-1.14063-5.78125-2.54688-7.3125-1.40624-1.53125-3.42968-2.29688-6.0625-2.29688-.875 0-1.79687.14063-2.76562.42188-.96875.28125-1.86719.78906-2.6875 1.51563-.8125.71874-1.50781 1.69921-2.07813 2.9375-.5625 1.24218-.88671 2.8203-.96875 4.73437zm0 0"/></symbol><symbol id="j" overflow="visible"><path d="M32.40625 0l-16.5-19.92188-5.39063 4.09376V0H4.92188v-41.28125h5.59375v20.6875l19.89063-20.6875H37l-17.57813 17.9375L39.34376 0zm0 0"/></symbol><symbol id="k" overflow="visible"><path d="M4.01563-38.4375v-5.04688h5.26562v5.04688zm0 38.4375v-31.70313h5.26562V0zm0 0"/></symbol></defs><use y="50" xlink:href="#a"/><use x="36.65" y="50" xlink:href="#b"/><use x="70.02" y="50" xlink:href="#c"/><use x="100.02" y="50" xlink:href="#d"/><use x="133.389" y="50" xlink:href="#d"/><use x="166.758" y="50" xlink:href="#e"/><use x="200.127" y="50" xlink:href="#c"/><use x="230.127" y="50" xlink:href="#d"/><use x="263.496" y="50" xlink:href="#f"/><use x="293.496" y="50" xlink:href="#c"/><use x="323.496" y="50" xlink:href="#d"/><use x="356.865" y="50" xlink:href="#g"/><use x="390.234" y="50" xlink:href="#h"/><use x="403.564" y="50" xlink:href="#i"/><g><use y="120" xlink:href="#j"/><use x="40.02" y="120" xlink:href="#k"/><use x="53.35" y="120" xlink:href="#i"/><use x="86.719" y="120" xlink:href="#h"/></g></svg>