<svg xmlns="http://www.w3.org/2000/svg" role="img" viewBox="108.85 188.85 3179.80 577.30"><title>Factory (member) logo</title><path d="M850.34 642.2V314.85h239v58.45H913.5V450h157.13v56.58H913.5V642.2h-63.16zm280.13 0l98.08-281.4c4.68-13.425 13.42-25.061 25.02-33.294 11.59-8.233 25.45-12.657 39.67-12.656 14.31-.002 28.26 4.477 39.89 12.808 11.63 8.331 20.36 20.095 24.97 33.642l95.51 280.9h-65l-22.92-68.28h-145.9l-23.85 68.28h-65.47zm108-125.33h108.5l-39.22-118c-4.68-14.1-24.6-14.15-29.35-.08l-39.93 118.08zm264.25-38.35c0-92.12 74.35-167.42 166.48-167.42 67.81 0 123 41.16 149.18 99.61l-59.86 17.31c-16.83-33.21-47.7-57.06-89.32-57.06-59.86 0-103.82 47.7-103.82 107.56s44 107.09 103.82 107.09c41.62 0 71.55-21.51 87.92-55.18l60.79 16.37c-25.72 58-80.43 98.67-148.71 98.67-92.13 0-166.48-74.79-166.48-166.95zm482.15 163.68V373.3h-102.89v-58.45h264.69v58.45h-99.14v268.9h-62.66zm225.89-165.871c1.43-91.85 75.62-165.3 167.47-164.76 91.66.55 165.48 75.161 165.94 167.421.46 92.26-74.82 167-166.95 167-93.01-.05-167.91-76.311-166.46-169.661zm270.28 2.661c0-59.86-44-109-103.82-109-59.39 0-103.82 49.1-103.82 109 0 59.39 44 108 103.82 108 59.82 0 103.82-48.14 103.82-108zm148.72 163.21V314.85h147.31c64.54 0 113.17 51.44 113.17 110.83-.05 21.252-6.63 41.976-18.84 59.371-12.21 17.396-29.46 30.624-49.43 37.899l72.95 119.25h-71.55l-67.81-111.3h-62.63v111.3h-63.17zm63.14-166h83.24c29.93 0 53.31-22 53.31-52.37 0-29.46-22-52.38-52.38-52.38h-84.14l-.03 104.75zm361.03 63.58l-113.64-224.93h66.88l77.63 153.85 77.63-153.85h66.87l-112.24 223.06V642.2h-63.13V539.78zM500.76 329.29c-.86-.213-1.663-.61-2.356-1.162-.692-.553-1.258-1.248-1.656-2.039-.399-.791-.622-1.659-.655-2.544-.032-.886.127-1.767.467-2.585 11.74-28.57 16.92-51.43 8.56-61-22.14-25.39-110.93 25.099-139.24 42.199-.758.456-1.606.743-2.485.841-.879.098-1.769.005-2.609-.272-.84-.277-1.611-.732-2.259-1.334-.648-.602-1.158-1.337-1.497-2.154-11.9-28.51-24.41-48.34-37.09-49.2-33.61-2.3-60.7 96.189-68.63 128.289-.212.86-.607 1.664-1.158 2.356-.552.693-1.247 1.258-2.037 1.657-.79.399-1.657.622-2.542.654-.884.033-1.765-.126-2.583-.466-28.57-11.74-51.44-16.92-61-8.56-25.39 22.14 25.09 110.93 42.19 139.24.457.757.745 1.605.844 2.485.099.879.007 1.77-.27 2.61-.277.841-.733 1.612-1.336 2.26-.603.648-1.339 1.157-2.158 1.494-28.5 11.9-48.33 24.41-49.2 37.09-2.29 33.61 96.19 60.701 128.3 68.631.858.214 1.659.611 2.35 1.163.69.552 1.254 1.247 1.651 2.037.398.789.621 1.655.653 2.539.033.883-.125 1.764-.464 2.58-11.74 28.57-16.92 51.44-8.56 61 22.14 25.39 110.94-25.09 139.25-42.19a6.1455 6.1455 0 0 1 2.486-.844c.879-.099 1.77-.007 2.61.271.841.277 1.611.733 2.259 1.336.648.603 1.158 1.339 1.495 2.157 11.9 28.5 24.4 48.331 37.09 49.201 33.61 2.29 60.7-96.19 68.62-128.3.214-.859.611-1.662 1.164-2.353.553-.692 1.249-1.256 2.04-1.654.791-.397 1.658-.62 2.543-.651.885-.032 1.766.127 2.583.468 28.57 11.74 51.43 16.909 61 8.559 25.39-22.14-25.1-110.94-42.2-139.25-.454-.758-.739-1.606-.836-2.484-.098-.879-.004-1.769.273-2.608.277-.84.731-1.61 1.332-2.258.601-.648 1.335-1.16 2.151-1.499 28.51-11.9 48.34-24.411 49.2-37.091 2.3-33.61-96.19-60.699-128.29-68.619zm-38.56-32.221c6.46 11.58-26.83 88.741-51.59 142.711-.414.902-1.094 1.656-1.95 2.16-.855.504-1.845.734-2.835.659-.99-.075-1.934-.452-2.703-1.079-.77-.628-1.329-1.476-1.602-2.431-10-35.09-21.43-76.319-33.66-111.319-.48-1.374-.456-2.874.068-4.231.524-1.358 1.514-2.485 2.792-3.18 30.54-16.68 82.8-38.83 91.48-23.29zm-146.36 9.55c12.75 3.62 43.77 81.721 64.42 137.391.345.93.396 1.943.148 2.904-.249.96-.785 1.821-1.537 2.468-.753.647-1.685 1.048-2.672 1.149-.987.102-1.981-.101-2.849-.581-31.91-17.71-69.12-38.81-102.52-54.91-1.308-.635-2.348-1.712-2.936-3.042-.588-1.329-.685-2.824-.274-4.218 9.83-33.36 31.09-86.011 48.22-81.161zm-96.74 110.25c11.57-6.46 88.74 26.831 142.7 51.591.903.414 1.657 1.094 2.161 1.95.504.855.734 1.845.659 2.835-.076.99-.452 1.933-1.08 2.703-.627.769-1.475 1.329-2.43 1.602-35.08 10-76.32 21.43-111.32 33.66-1.372.477-2.87.452-4.225-.072-1.355-.524-2.481-1.512-3.175-2.789-16.65-30.54-38.84-82.8-23.29-91.48zm9.55 146.361c3.61-12.75 81.72-43.771 137.39-64.421.93-.344 1.944-.395 2.904-.147.961.249 1.822.785 2.469 1.537.646.752 1.048 1.685 1.149 2.671.101.987-.102 1.981-.582 2.85-17.72 31.91-38.82 69.12-54.92 102.51-.629 1.312-1.706 2.357-3.037 2.947-1.33.59-2.827.687-4.223.273-33.36-9.77-86.01-31.09-81.15-48.22zm110.25 96.74c-6.47-11.57 26.83-88.74 51.59-142.7.414-.903 1.095-1.657 1.95-2.161.856-.504 1.845-.734 2.835-.659.991.075 1.934.452 2.703 1.079.77.628 1.329 1.476 1.602 2.431 10 35.08 21.43 76.32 33.66 111.32.477 1.373.45 2.871-.075 4.227-.526 1.355-1.517 2.48-2.795 3.173-30.53 16.65-82.8 38.84-91.44 23.29h-.03zm146.36-9.551c-12.76-3.61-43.78-81.719-64.43-137.389-.346-.932-.399-1.948-.15-2.91.248-.962.786-1.825 1.54-2.472.754-.648 1.689-1.048 2.677-1.148.989-.1 1.985.106 2.853.589 31.9 17.71 69.12 38.821 102.51 54.921 1.311.631 2.353 1.708 2.942 3.038.588 1.331.683 2.827.268 4.222-9.82 33.41-31.08 86.009-48.21 81.149zM582 540.169c-11.58 6.47-88.74-26.83-142.71-51.59-.903-.414-1.657-1.094-2.161-1.95-.504-.855-.733-1.845-.658-2.835.075-.99.451-1.933 1.079-2.703.627-.77 1.475-1.328 2.43-1.601 35.09-10 76.32-21.431 111.32-33.661 1.375-.477 2.875-.451 4.232.075 1.357.526 2.483 1.517 3.178 2.796 16.64 30.53 38.83 82.799 23.29 91.469zm-9.55-146.36c-3.62 12.76-81.72 43.781-137.39 64.431-.932.346-1.947.398-2.909.15-.962-.249-1.825-.786-2.473-1.54-.647-.754-1.047-1.689-1.147-2.678-.1-.988.105-1.984.589-2.853 17.71-31.9 38.81-69.12 54.91-102.51.633-1.309 1.71-2.35 3.04-2.938 1.33-.588 2.826-.685 4.22-.272 33.36 9.82 86.01 31.08 81.16 48.21z"/></svg>