<svg xmlns="http://www.w3.org/2000/svg" role="img" viewBox="-4.08 58.92 406.90 114.90"><title>Federal University of Campina Grande logo</title><path fill="#0064b1" fill-rule="evenodd" d="M202.494 140.942v-.434h28.927l.29-.074.364-.18.179-.363.072-.289v-.182l.073-.108.073-.252v-.905l-.11-1.414-.071-.65-.074-.58-.142-.615-.148-.542-.179-.545-.181-.469-.254-.508-.254-.435-.29-.435-.29-.36-.361-.399-.361-.326-.398-.327-.363-.253v-.071l-.941-.543-1.015-.398-.579-.218-.614-.18-1.303-.255-1.52-.253-1.594-.145-.868-.074-.908-.036h-8.651l-1.918-.034-1.739.107-1.59.146-1.45.253-1.34.255-1.159.397-1.05.435-.869.543-.868.542-.4.29-.324.361-.362.327-.29.398-.47.869-.399.941-.252 1.05-.182 1.123-.036 1.268v3.619l.036.725.108.724.146.687.216.687v-.071l.182.577.289.581.326.507.398.543.399.435.507.47.506.397.615.4.87.434.47.18.542.219.545.143.615.183 1.339.324 1.412.183.759.07.834.108 1.702.11 1.882.072h8.036l1.484-.072 1.45-.073.652-.071.143-.037h.544l1.303-.144 1.124-.217.54-.145.255-.073.29-.035.978-.293.903-.286h.037l.18-.146.218-.11.4-.215.361-.254.362-.218.29-.288.289-.255.254-.29.288-.253.073-.181.11-.146.218-.288.324-.651.108-.362v-.11l.037-.071.072-.146.073-.362.073-.326v-.977l-.146-.363-.18-.252-.182-.145-.144-.072-.327-.036h-4.526l-.398.036-.253.217-.252.252v.616l-.074.18v.218l-.108.146-.072.07h-.036v.11l-.145.145-.146.18-.397.29-.145.036-.109.073-.217.146-.615.145-.616.143-.725.11-.758.146-.87.07-.905.073h-.761l-.217.037-1.011.072h-7.134l-1.196-.037-.577-.035h-.51l-.975-.11-.905-.107-.835-.182-.396-.109-.326-.071-.616-.218-.508-.216-.398-.29-.287-.254-.29-.326-.18-.29v.072l-.22-.506-.143-.506-.108-.545-.039-.578zm.074-4.96l.036-.398.109-.326.326-.617.181-.287.254-.218.616-.398.506-.254.614-.217.687-.182.835-.109.869-.145.978-.071 1.085-.037h9.194l1.16.037 1.013.071.941.109.796.11.726.145.614.179.507.256.254.143.252.218.398.542.146.29.145.363.072.36.073.436zm25.16 7.71zm45.472-23.097l-.181-.145-.146-.072-.324-.036h-4.272l-.326.036-.253.217-.256.253-.072.363v8.58l-.542-.326-.544-.254-.579-.253-.542-.143-1.195-.328-.651-.144-.616-.072-1.413-.11-1.484-.037h-10.21l-1.626.11-1.523.145-1.34.253-1.267.254-1.086.362-1.012.398-.798.507-.868.542-.687.653-.618.725-.47.867-.398.943-.252 1.048-.181 1.123-.037 1.266v3.622l.037.688.108.614.108.761.255.76.181.578.251.581.29.507.364.543.362.435.433.47.471.397.543.4h.037l.795.434.978.399.506.143.58.183.616.143.688.181.65.074.727.109.723.07.795.108.799.037.866.073 1.812.072h7.313l.035-.035h1.085l.51-.037h.541l.977-.073.906-.071.833-.144.76-.146.144-.073.073-.035h.109l.362-.074.688-.144.507-.254.253-.144.291-.108.506-.327.035-.072.073-.037.145-.07.29-.147v.831l-.037.145.036.183.072.144.181.182.256.182.36.07h3.84l.142-.036.074-.034h.107l.146-.11.181-.072.072-.182.108-.144v-.109l.036-.074.037-.145v-27.33l-.073-.364-.18-.253zm-6.372 22.482h.036l-.218.255-.217.252-.252.217-.254.219-.544.215-.65.219-.761.145-.436.071-.215.037-.183.071-.505.037-.472.07h-.506l-.037.04-.543.072h-.614l-.58.037-1.303.07h-6.12l-1.338-.07-1.193-.037-1.125-.111-.506-.07-.434-.038-.907-.18-.722-.144-.652-.219-.472-.215-.541-.436-.218-.252-.145-.255v-.072l-.181-.253-.109-.255-.109-.29-.036-.287-.108-.472-.036-.543-.035-.977v-2.934l.07-.614.109-.616.18-.47.182-.471.29-.398.289-.364.398-.252.472-.29.616-.216.724-.181.904-.146.943-.145 1.12-.071 1.195-.037h8.798l1.194.037 1.086.071 1.014.145.87.146.758.181.654.216.543.29.326.252.29.364.252.398.22.472.142.47.144.615.072.614.073.727v2.207l-.073.977-.108 1.015-.29.614-.216.543zm-106.654-22.482l-.181-.145-.145-.072-.326-.036h-4.2l-.398.036-.253.217-.217.253-.037.363v27.332l.037.327.072.144.145.182.253.182.399.07h3.693l.144-.036.073-.034h.108l.145-.11.18-.072.074-.182.108-.144v-.109l.037-.074.036-.145v-.83l.471.325.543.327.543.252.615.254.543.144.688.182.76.146.833.144.905.071 1.013.073h.508l.578.037 1.195.035h7.277l1.737-.072.833-.073.073-.037h.76l.362-.071.073-.037h.326l.76-.07.325-.074.363-.035.723-.074.29-.108.326-.073.615-.143.11-.074.144-.036.29-.073.578-.143.508-.219.507-.18.904-.434.218-.219.035-.071.073-.037.145-.073.217-.216.037-.072.071-.037.146-.073.434-.47.398-.434.145-.29.073-.144.036-.073.072-.036.327-.507.252-.58.254-.578h.072l.109-.653.108-.65.073-.724.073-.725v-3.694l-.073-1.266-.145-1.123-.29-1.048-.181-.509-.18-.434-.254-.47-.253-.397-.29-.398-.254-.327-.361-.362-.326-.29-.761-.543-.904-.507-1.015-.398-1.157-.362-1.232-.254-1.412-.253-1.52-.145-1.63-.11h-10.027l-1.594.036-1.41.111-.69.072-.614.144-1.123.328-1.194.396-1.05.58v-8.58l-.073-.363-.181-.253zm1.774 13.288v-.074l.47-.29.615-.216.726-.181.868-.146.942-.145 1.085-.071 1.195-.037h8.762l1.194.037 1.086.071.978.145.833.146.759.181.653.216.543.29.325.252.326.364.253.398.253.472.145.47.146.615.072.614.072.727v2.207l-.072.435v.47l-.145.578-.145.58-.073.108-.035.145-.074.29-.072.108-.036.147-.072.288-.217.255-.073.035-.037.074-.07.143-.255.217-.216.219-.543.215-.653.219-.76.145-.434.071-.217.037-.18.071-.508.037-.471.07h-.507l-.036.04-.543.072h-.616l-.578.037-1.304.07h-6.082l-1.34-.07-1.194-.037-1.122-.111-.507-.07-.435-.038-.47-.108-.398-.071-.726-.145-.65-.219-.508-.215-.288-.22-.219-.216-.216-.252-.146-.255-.252-.506-.182-.506-.144-.58-.073-.58-.036-.507.036-.47v-2.934l.073-.614.108-.616.218-.47.181-.471.29-.361.325-.326.398-.253zm-45.47-4.925l-.761-.217-.869-.182-.978-.143-1.05-.11-1.194-.11-1.303-.036-1.412-.036h-2.932l-1.304.036-1.231.037-1.123.074-1.049.072-.905.108-.833.145-.723.182-.797.144-.688.216-.652.256-.542.323v-.432l-.146-.399-.18-.254-.182-.181-.144-.072-.181-.073h-4.562l-.145.073-.145.072-.072.181-.254.254-.072.399v19.402l.072.183.073.144.18.182.073.072.145.11.145.034.217.037h4.345l.289-.07.326-.183.072-.181.109-.145v-.108l.036-.075.036-.144v-12.2l.108-.469.145-.471.254-.399.254-.4.398-.287.435-.29.542-.218.688-.29.833-.216.905-.181 1.05-.146 1.122-.145 1.267-.071 1.34-.037h2.86l1.266.037 1.124.035 1.013.11.869.108.795.146.653.181.542.215v-.071l.255.18.253.255.217.288.217.398.145.363.109.472.072.506.072.615v11.982l-.035.144.035.183.072.144.182.182.253.182.398.07h4.164l.29-.07.325-.182.072-.182.11-.144v-.109l.036-.074.036-.144V136.74l.072-.543.181-.47.181-.433.326-.364.29-.398.397-.29.435-.289.543-.216.652-.254.76-.217.869-.182.978-.109 1.05-.144 1.122-.072 1.23-.037h2.753l1.41.037 1.268.072 1.267.144.977.146.87.218.76.252.65.29.254.109.254.216.218.218.18.29h.036l.074.324.072.508v.254l.036.326.072.76v11.656l.036.327.073.144.144.182.254.182.398.07h3.946l.145-.036.073-.034h.108l.145-.11.181-.072.073-.182.108-.144.072-.183.073-.145v-12.56l-.073-.579-.036-.507-.181-.977-.326-.906-.217-.434-.181-.362-.579-.76-.327-.364-.325-.288-.796-.544-.869-.47-.47-.219-.508-.215-1.086-.327-1.303-.325-1.376-.218-1.592-.216-.833-.074-.87-.037-1.881-.07-2.029.034-1.23-.034-1.122.034-1.122.073-.978.109-.977.11-.905.18-.87.182-.76.252h.073l-1.304.327-1.121.47-1.014.543-.833.689-.652-.69-.397-.325-.4-.253-.94-.47-.544-.218-.543-.145zm-67.881 8.436v3.62l.036.725.11.724.144.687.216.687v-.071l.182.577.29.581.325.507.399.543.398.435.507.47.507.397.614.4.869.434.471.18.543.219.543.143.615.183 1.34.324 1.412.183.76.07.833.108 1.701.11 1.884.072h8.109l1.484-.072 1.448-.073.652-.071.144-.037h.544l1.266-.144 1.122-.217.544-.145.253-.073.29-.035.978-.292.904-.287.182-.146.217-.11.398-.215.362-.254.362-.218.29-.288.289-.255.254-.29.29-.252.072-.182.11-.146.216-.288.325-.651.11-.362v-.11l.035-.071.074-.146.072-.362.071-.326v-.977l-.143-.363-.182-.252-.29-.217-.288-.036h-4.6l-.399.036-.253.217-.217.252-.036.363v.253l-.036.072v.108l-.036.218-.11.146-.072.07h-.037v.11l-.143.145-.146.18-.398.29-.145.036-.108.073-.217.146-.616.145-.615.143-.724.11-.761.145-.833.071-.904.073h-.76l-.218.037-1.014.072h-7.095l-1.196-.037-.579-.035h-.506l-.543-.073-.471-.037-.905-.107-.833-.182-.687-.18-.617-.218-.506-.217-.397-.29-.327-.253-.289-.326-.217-.29v.072l-.218-.506-.144-.506-.11-.546-.035-.577v-.434h28.925l.147-.037.07-.037h.109l.146-.108.18-.073.181-.362.074-.289v-.182l.072-.108.071-.252v-.905l-.108-1.414-.072-.65-.073-.58-.145-.615-.144-.542-.182-.545-.18-.469-.255-.508-.252-.435-.29-.435-.289-.36-.362-.399-.362-.326-.398-.327-.363-.253v-.071l-.941-.543-1.014-.398-.579-.218-.615-.18-1.304-.255-1.52-.253-1.594-.145-.869-.074-.905-.036h-8.651l-1.884-.034-1.737.107-1.593.146-1.448.253-1.339.255-1.159.397-1.014.435-.868.543-.905.542-.399.29-.325.361-.363.327-.289.398-.471.869-.253.434-.181.507-.253 1.05-.182 1.123-.036 1.268zm7.784-3.656l.506-.254.616-.217.688-.182.833-.109.868-.145.977-.071 1.087-.037h9.195l1.158.037 1.014.071.941.109.797.11.724.145.616.179.507.256.253.143.254.218.398.542.145.29.144.363.073.36.072.436H54.86l.036-.398.11-.326.325-.617.181-.287.254-.218.615-.398zm23.64 9.955zm286.728-9.884l.472-.29.648-.216.725-.181.905-.146.978-.145 1.122-.071 1.196-.037h8.797l1.193.037 1.085.071 1.017.145.867.146.761.181.65.216.545.29.326.252.288.364.254.398.218.472.142.47.112.615.07.614.037.727v3.184l-.178 1.015-.221.614-.143.255-.108.288-.22.255-.07.035-.037.073-.071.144-.256.217-.216.219-.544.215-.65.219-.761.145-.433.071-.22.037-.18.071-.507.037-.472.07h-.506l-.035.04-.544.072h-.614l-.58.037-1.304.07h-6.117l-1.34-.07-1.195-.037-1.123-.111-.507-.071-.432-.037-.908-.18-.722-.144-.653-.219-.47-.215-.542-.436-.255-.252-.18-.255v-.072l-.253-.508-.108-.577-.146-.472-.072-.543-.037-.977v-2.934l.074-.614.108-.616.181-.47.18-.471.29-.398.292-.364.397-.252zm-7.603 3.511v3.622l-.039.325.039.363.035.29.108.324v.363l.074.398.108.362.181.399.181.577.252.581.291.507.362.543.363.435.433.47.471.397.544.4.797.434.47.18.542.219.506.143.581.183.615.143.689.181.65.074.725.109.723.07.798.108.795.037.87.073 1.81.072h7.24l.036-.035h1.088l.506-.037h.542l.977-.073.941-.071.835-.144.758-.146.145-.073.073-.035h.11l.362-.074.65-.144h.073l.506-.254.255-.144.29-.108.216-.182.256-.145.505-.326v.831l.035.328.074.144.142.182.255.182.397.07h3.875l.29-.07.362-.182.071-.182.11-.144v-.109l.037-.074.035-.145v-27.33l-.072-.364-.181-.253-.361-.217-.29-.036h-4.273l-.397.036-.256.217-.216.253-.035.363v8.58l-.544-.326-.543-.254-.577-.253-.546-.143-1.194-.328-.652-.144-.651-.072-1.412-.11-1.483-.037H371.31l-1.629.11-1.522.145-1.375.253-1.267.254-1.086.362-.977.398-.795.507-.87.542-.399.29-.327.363-.614.725-.472.867-.398.943-.253 1.048-.18 1.123v1.266zm-12.201-3.69l.253.143.254.218.433.542.11.29.146.363.07.36.074.436h-23.351l.035-.398.11-.326.327-.617.179-.287.253-.218.616-.398.509-.254.614-.217.687-.182.834-.109.867-.145.978-.071 1.088-.037h9.194l1.158.037 1.013.071.943.109.795.11.726.145.579.179.506.256zm-24.256-3.659l-.218.073-.18.182-.869.542-.397.29-.327.361-.361.327-.29.398-.47.869-.255.434-.181.507-.252 1.05-.182 1.123-.037 1.268v3.619l.037.725.107.724.148.687.216.687v-.071l.181.577.29.581.325.507.397.543.398.435.471.47.506.397.617.4.326.182.398.179.471.219 1.013.36 1.124.29 1.302.29.653.072.722.11 1.523.142 1.627.11 1.81.072h8.109l1.486-.072 1.447-.073.653-.071.142-.037h.545l1.302-.144 1.125-.217.542-.145.252-.073.29-.035.979-.293.903-.286.363-.256.398-.215.363-.254.361-.218.29-.288.29-.255.253-.29.29-.253.073-.181.108-.146.217-.288.327-.651.108-.362v-.11l.036-.071.074-.146.07-.362.072-.326v-.977l-.142-.363-.182-.252-.29-.217-.29-.036H349.3l-.364.036-.252.217-.219.252-.035.363v.253l-.036.072v.108l-.037.218-.145.146-.07.07h-.038v.11l-.145.145-.144.18-.4.29-.143.036-.108.073-.218.146-.617.145-.614.143-.724.11-.759.145-.835.071-.904.073h-.761l-.215.037-1.015.072h-7.094l-1.197-.037-.58-.035h-.505l-.543-.073-.472-.037-.47-.07-.399-.037-.833-.182-.687-.18-.616-.218-.506-.217-.399-.29-.325-.253-.29-.326-.216-.29v.072l-.219-.506-.143-.506-.11-.546-.036-.577v-.434h28.927l.143-.037.073-.037h.108l.147-.108.18-.073.18-.362.073-.289.036-.29.072-.252v-.905l-.108-1.414-.074-.65-.07-.58-.146-.615-.143-.542-.181-.545-.182-.469-.255-.509-.25-.434-.29-.435-.29-.36-.363-.4-.327-.325-.399-.327-.36-.254v-.07l-.943-.543-1.012-.398-.579-.218-.617-.181-1.303-.254-1.519-.253-1.592-.145-1.811-.11h-8.654l-1.81-.034-1.627.107-1.523.109-1.375.218-1.303.254-1.123.325-1.013.399-.869.47zm-15.314 13.106h.035l-.216.255-.217.252-.254.217-.25.219-.546.215-.653.219-.76.145-.433.071-.217.037-.182.071-.506.037-.47.07h-.507l-.037.04-.542.072h-.617l-.58.037-1.303.07h-6.117l-1.339-.07-1.196-.037-1.122-.111-.506-.07-.437-.038-.904-.18-.724-.144-.65-.219-.472-.215-.54-.436-.22-.252-.145-.255v-.072l-.181-.253-.107-.255-.108-.29-.039-.287-.109-.472-.035-.543-.036-.977v-2.934l.071-.614.11-.616.18-.47.181-.471.29-.398.29-.364.398-.252.471-.29.614-.216.727-.181.904-.146.942-.145 1.12-.071 1.196-.037h8.797l1.196.037 1.086.071 1.01.145.87.146.761.181.653.216.541.29.328.252.289.364.252.398.217.472.147.47.144.615.071.614.074.727v2.207l-.074.977-.107 1.015-.29.614-.217.543zm6.37-22.482l-.18-.145-.144-.072-.326-.036h-4.27l-.329.036-.251.217-.256.253-.071.363v8.58l-.543-.326-.544-.254-.58-.253-.54-.143-1.196-.328-.65-.144-.617-.072-1.412-.11-1.484-.037h-10.21l-1.629.11-1.52.145-1.34.253-1.266.254-1.086.362-1.014.398-.797.507-.868.542-.689.653-.615.725-.472.867-.397.943-.252 1.048-.18 1.123-.038 1.266v3.622l.037.688.107.614.109.761.253.76.182.578.253.581.29.507.362.543.361.435.435.47.472.397.54.4h.039l.796.434.976.399.507.143.58.183.614.143.69.181.65.074.724.109.725.07.796.108.796.037.869.073 1.813.072h7.311l.035-.035h1.086l.508-.037h.542l.978-.073.905-.071.834-.144.761-.146.143-.073.073-.035h.108l.364-.074.685-.144.508-.254.254-.144.289-.108.508-.327.035-.072.073-.037.143-.07.29-.147v.831l-.035.145.035.183.073.144.183.182.25.182.364.07h3.837l.145-.036.073-.034h.108l.144-.11.18-.072.074-.182.108-.144v-.109l.037-.074.037-.145v-27.33l-.074-.364z"/><path fill="#0060a8" fill-rule="evenodd" d="M132.393 113.12v-.008c-.553-.04-1.117-.039-1.693-.06-23.858-.937-47.102-.867-70.959.039-24.483.93-24.464 41.893 0 43.146 23.794 1.217 47.187 1.584 71.124 0 1.02-.067 1.842-.108 2.79-.228-5.679 6.125-13.633 10.098-21.966 10.098H40.405c-14.6 0-36.572-4.848-36.572-26.582v-10.3c0-21.578 21.952-26.3 36.572-26.3h71.284a30.536 30.536 0 0 1 20.704 8.551V75.16a8.237 8.237 0 0 1 8.213-8.213 8.24 8.24 0 0 1 8.213 8.213v49.823a18.8 18.8 0 0 0-16.426-11.864z"/></svg>