<svg xmlns="http://www.w3.org/2000/svg" role="img" viewBox="-6.13 -4.13 371.02 98.02"><title>Feilong logo</title><defs><style>.cls-1{fill:#0033a1}.cls-2{fill:#2a7de1}</style></defs><path d="M107.70957 28.14886h36.36854v9.55263H118.2173v10.167h22.79044v9.553H118.2173v18.49133h-10.50773zm40.87402 29.68203v-.13645c0-10.43991 7.43777-19.03744 18.08194-19.03744 12.21408 0 17.809 9.4844 17.809 19.8561 0 .81865-.06822 1.77416-.13644 2.72926h-25.45062c1.02332 4.70809 4.29877 7.16488 8.93864 7.16488 3.47929 0 6.0043-1.09195 8.87041-3.753l5.93608 5.25386c-3.41189 4.23055-8.32464 6.82337-14.94293 6.82337-10.9861.00001-19.10608-7.71023-19.10608-18.90058zm25.79259-3.07079c-.614-4.63987-3.34367-7.77846-7.71065-7.77846-4.29877 0-7.09584 3.07037-7.91532 7.77846zm18.01618-28.65829h10.91787v9.21152h-10.91787zm.27288 13.2374h10.37211v36.57361h-10.37211zm20.60695-13.2374h10.3721v49.811h-10.3721zm18.35564 31.72908v-.13645c0-10.50813 8.46109-19.03744 19.85569-19.03744 11.3272 0 19.72007 8.39286 19.72007 18.901v.13644c0 10.50773-8.46109 19.037-19.85651 19.037-11.32638.00004-19.71925-8.39244-19.71925-18.90055zm29.3401 0v-.13645c0-5.39071-3.88944-10.09881-9.62085-10.09881-5.93608 0-9.48441 4.57165-9.48441 9.96237v.13644c0 5.39031 3.88944 10.0984 9.62085 10.0984 5.9369 0 9.48441-4.57165 9.48441-9.96195zm17.74247-18.49168h10.37128v5.18605c2.38857-3.07078 5.45935-5.86826 10.71321-5.86826 7.8471 0 12.41875 5.18564 12.41875 13.57851v23.67731h-10.37211V55.511c0-4.91317-2.31952-7.43777-6.27718-7.43777s-6.48267 2.5246-6.48267 7.43777v20.40182H278.7104zm42.7164 43.8063l3.54833-7.77846a23.86809 23.86809 0 0 0 12.35053 3.34326c7.09583 0 10.4395-3.41148 10.4395-9.962v-1.77413c-3.07078 3.68478-6.41363 5.93649-11.9412 5.93649-8.5293 0-16.23913-6.20937-16.23913-17.05861v-.13645c0-10.91746 7.84627-17.05861 16.23913-17.05861 5.664 0 9.00686 2.38816 11.80476 5.45853v-4.77632H358V67.6564c0 6.55048-1.56909 11.32679-4.63987 14.39757-3.41107 3.41148-8.66575 4.91276-15.76159 4.91276a34.7028 34.7028 0 0 1-16.17174-3.82122zm26.33836-27.29345v-.13645c0-4.98138-3.88944-8.46108-8.93864-8.46108s-8.87041 3.4797-8.87041 8.46108v.13645c0 5.0492 3.82121 8.46108 8.87041 8.46108s8.93864-3.48014 8.93864-8.46108z" class="cls-1"/><path d="M289.26241 3.51605h3.04666a4.05151 4.05151 0 0 1 2.67848.7834 2.64647 2.64647 0 0 1 .92965 2.13644 2.7014 2.7014 0 0 1-.93749 2.16815 4.13647 4.13647 0 0 1-2.75007.79942h-2.11258v5.16708h-.85465zm.85465.71215V8.691h2.05735a3.27075 3.27075 0 0 0 2.10474-.58533 2.011 2.011 0 0 0 .72033-1.65373 2.02376 2.02376 0 0 0-.7043-1.62236 3.02238 3.02238 0 0 0-2.01781-.60135zm8.71861-.71215h2.83291a4.2 4.2 0 0 1 2.72212.77147 2.554 2.554 0 0 1 .94158 2.085 2.76042 2.76042 0 0 1-2.10474 2.69042 4.96192 4.96192 0 0 1 1.47168 1.68577l2.50053 3.82187h-1.01147l-1.92576-3.02961a7.398 7.398 0 0 0-1.5027-1.89611 2.74348 2.74348 0 0 0-1.5743-.376h-1.4952v5.30174h-.85465zm.85465.71215v4.32845h1.83577a3.47176 3.47176 0 0 0 2.14053-.5659 1.89868 1.89868 0 0 0 .7401-1.60224 1.88248 1.88248 0 0 0-.752-1.59066 3.52386 3.52386 0 0 0-2.16-.56965zm14.86749-.85465a5.75592 5.75592 0 0 1 4.15835 1.65 5.38588 5.38588 0 0 1 1.70554 4.02368 5.37681 5.37681 0 0 1-1.70554 4.01585 6.04485 6.04485 0 0 1-8.30067 0 5.38933 5.38933 0 0 1-1.69736-4.01585 5.39844 5.39844 0 0 1 1.69736-4.02368 5.71886 5.71886 0 0 1 4.14232-1.65zm.03171 10.54825a4.75211 4.75211 0 0 0 3.48574-1.41271 4.6936 4.6936 0 0 0 1.42054-3.46188 4.70305 4.70305 0 0 0-1.42054-3.46971 4.75211 4.75211 0 0 0-3.48574-1.41271 4.8138 4.8138 0 0 0-3.50927 1.41271 4.67665 4.67665 0 0 0-1.43625 3.46971 4.66732 4.66732 0 0 0 1.43622 3.46188 4.8138 4.8138 0 0 0 3.5093 1.41271zm10.12757-10.40575v11.05449a3.57891 3.57891 0 0 1-.68863 2.52439 2.2163 2.2163 0 0 1-1.6302.69612 4.84208 4.84208 0 0 1-.51408-.0317l-.07944-.80692a2.23533 2.23533 0 0 0 .50659.06341q1.55094 0 1.55111-2.21587V3.51605zm9.81052 0v.71215h-5.17492v4.42323h5.04061v.72032h-5.04061v4.48664h5.30174v.71215h-6.15638V3.51605zm12.39867.7834v.93373a8.3623 8.3623 0 0 0-3.94084-1.06839 4.646 4.646 0 0 0-3.44211 1.40077 4.77432 4.77432 0 0 0-1.38475 3.49734 4.6845 4.6845 0 0 0 1.39259 3.48983 4.85756 4.85756 0 0 0 3.5529 1.36907 8.47023 8.47023 0 0 0 3.933-1.1318v.88635a8.32533 8.32533 0 0 1-3.917 1.03668 5.8234 5.8234 0 0 1-4.20573-1.61827 5.366 5.366 0 0 1-1.68168-4.03186 5.36805 5.36805 0 0 1 1.71714-4.05914 5.73712 5.73712 0 0 1 4.0912-1.63021 9.30051 9.30051 0 0 1 3.88528.9259zm10.9979-.7834v.71215h-4.14641v10.34234h-.86249V4.2282h-4.14641v-.71215zM174.34387 15.3463h-3.69438v-7.097l-3.332 4.10966h-.2916l-3.34077-4.10966v7.097h-3.58836V3.09664h3.34965l3.76506 4.59586 3.78273-4.59586h3.34966zm16.54491 0h-3.78273l-.99872-2.4834h-5.32053l-1.01639 2.4834h-3.78272l5.41777-12.24966h4.08322zm-5.62992-4.61341l-1.79407-4.47218-1.81185 4.47218zm10.96824 4.61341h-3.6941V3.09664h3.69415zm16.39466 0h-3.28787l-6.35436-6.82311v6.82311h-3.659V3.09664h3.27887l6.337 6.78766V3.09664h3.68537zm11.85182-4.95825h-5.08183v4.95825h-3.69438V3.09664h8.77621v2.45707h-5.08183v2.36861h5.08183zM238.818 15.3463h-3.96831l-.96338-2.17413a9.0447 9.0447 0 0 0-.9546-1.74568 2.06059 2.06059 0 0 0-.82619-.707 2.93942 2.93942 0 0 0-1.03867-.15452h-.41529v4.78133h-3.69438V3.09664h6.284a4.57024 4.57024 0 0 1 2.49217.61866 3.71468 3.71468 0 0 1 1.40084 1.50246 3.85593 3.85593 0 0 1 .42868 1.67928 3.17628 3.17628 0 0 1-.35777 1.56887 2.87866 2.87866 0 0 1-.75574.93243 7.51265 7.51265 0 0 1-.8927.55664 3.52576 3.52576 0 0 1 .97655.81764 10.267 10.267 0 0 1 1.04745 1.91336zm-5.02015-8.37858a1.26874 1.26874 0 0 0-.55664-1.18431 3.66724 3.66724 0 0 0-1.812-.33583h-.77768v2.95181h.79546a3.9882 3.9882 0 0 0 1.85147-.296 1.209 1.209 0 0 0 .49942-1.13567zm20.15109 8.37858h-3.78284l-.99872-2.4834H243.847l-1.0165 2.4834h-3.78261l5.41761-12.24966h4.08334zm-5.62994-4.61341l-1.79418-4.47218-1.81174 4.47218zm21.503 4.61341h-3.69415v-7.097l-3.332 4.10966h-.29171l-3.34077-4.10966v7.097H255.575V3.09664h3.34977l3.76506 4.59586 3.78261-4.59586h3.34956zm12.32919 0h-9.23584V3.09664h9.08571v2.45707h-5.39133v2.24481h5.14373v2.466h-5.14373v2.616h5.54146zM114.23208 3.50408a6.42969 6.42969 0 0 1 4.64448 1.84269 6.01627 6.01627 0 0 1 1.90458 4.49423 6.006 6.006 0 0 1-1.90458 4.48534 6.75183 6.75183 0 0 1-9.27118 0 6.01913 6.01913 0 0 1-1.89581-4.48534 6.02951 6.02951 0 0 1 1.89581-4.49423 6.38857 6.38857 0 0 1 4.6267-1.84269zm.03545 11.78125a5.30834 5.30834 0 0 0 3.89313-1.57764 5.24335 5.24335 0 0 0 1.58643-3.86669 5.25428 5.25428 0 0 0-1.58643-3.87558 5.30824 5.30824 0 0 0-3.89313-1.57753 5.37839 5.37839 0 0 0-3.91981 1.57753 5.22459 5.22459 0 0 0-1.60409 3.87558 5.21379 5.21379 0 0 0 1.60409 3.86669 5.37848 5.37848 0 0 0 3.91981 1.57764zm8.83811-11.62223h3.40266a4.52431 4.52431 0 0 1 2.99165.875 2.95577 2.95577 0 0 1 1.03856 2.38627 3.01618 3.01618 0 0 1-1.04733 2.42163 4.61894 4.61894 0 0 1-3.07123.8927h-2.35983V16.01h-.95448zm.95448.79547v4.9847h2.29793a3.65309 3.65309 0 0 0 2.35094-.654 2.24607 2.24607 0 0 0 .80424-1.84719 2.26034 2.26034 0 0 0-.78657-1.81185 3.376 3.376 0 0 0-2.2537-.67166zm15.04245-.79547v.79547h-5.78016V9.399h5.62991v.80435h-5.62991v5.01115h5.92152v.7955h-6.876V3.6631zm13.23071 0V16.01h-.78553l-9.38712-10.79131V16.01h-.95463V3.6631h.80886l9.364 10.79143V3.6631z" class="cls-2"/><path fill="none" d="M55.31773 12.37806a2.13541 2.13541 0 0 0 1.01867.22659c.31718-.02415.72126-.01365.79823-.3828.0999-.4788-.34755-.52508-.67727-.62128-.306-.08931-.61507-.168-.91335-.24886-.34767.08455-.82219.04166-.889.43969-.05937.35424.37191.46016.66272.58666zm13.2025-.03825c.32224.00059.57087-.10025.56883-.51028-.04663-.35479-.31147-.42152-.62455-.40653-.32315.01547-.57835.14413-.57072.50741.00858.40881.33311.40885.62644.4094z"/><path d="M69.28892 18.87961c1.29733-1.9423 2.67921-3.80833 2.219-5.98493-.20708-.9791-.3579-2.12235-1.40246-2.50913-1.19677-.44311-1.93561.57261-2.71723 1.27857l-.08991.01955a2.06223 2.06223 0 0 0-1.08958.52323 25.803 25.803 0 0 1-5.58841-.13417 9.59756 9.59756 0 0 1-2.00954-.92448c-.992-.44175-2.038-.762-3.05887-1.13306a1.0016 1.0016 0 0 0-.85138-.08731c-.48491.39051-.87518.16234-1.24453-.18942-.26012-.07165-.52209-.14448-.78406-.21731-.09191-.03269-.18386-.06539-.27448-.097-.54341-.2757-1.09257-.544-1.63177-.83107-.808-.43014-1.06834-.24194-1.09494.70477-.01416.50281.44855.91674.2218 1.58252a9.87955 9.87955 0 0 1-1.67856-1.6878A28.56654 28.56654 0 0 0 45.3 5.44474a4.19 4.19 0 0 0-3.361-1.33345 9.09059 9.09059 0 0 1 4.59378 4.93137c.171.38709.65394.87778.27822 1.20078-.27869.23954-.69325-.30451-1.03588-.52075-1.88123-1.18724-3.80956-2.21257-6.15834-1.8001a.14317.14317 0 0 1-.18056.1562c-.04116-.0072-.06984-.0857-.10337-.13185a4.861 4.861 0 0 0-2.91289 1.5259 5.199 5.199 0 0 1 1.9164.15534 1.50218 1.50218 0 0 1 .81715 2.45612 4.09714 4.09714 0 0 1-1.40164 1.11877c-1.47631.73-3.12151.97548-4.61081 1.66629a4.33054 4.33054 0 0 0-2.68126 3.43537c-.05524.37053-.18037.86511.15475 1.086.32335.21322.5102-.27936.76064-.44969a3.38487 3.38487 0 0 1 3.72611.195c.82891.8267.798 1.98219-.11139 3.264a4.1919 4.1919 0 0 1-.71437.78563c-.64414.53936-1.30823 1.0557-1.977 1.56461a2.77571 2.77571 0 0 0-.98571 3.43522c.2.47944.33362.89309.9911.29533a1.97421 1.97421 0 0 1 3.37321.78461c1.46022 3.79831 4.12854 6.70255 6.95109 9.47419 4.53236 4.45063 8.22172 9.36308 9.32617 15.82691a41.47167 41.47167 0 0 1 .72886 4.39094 27.58691 27.58691 0 0 1-1.50217 10.41107c.11387.00724.22777.01444.34145.02227q.19836-.31877.39716-.63875a1.06218 1.06218 0 0 1 .39433-.75616 5.08583 5.08583 0 0 0 .83214-1.30481c1.04925-2.01914 2.07812-4.04933 3.16152-6.05a23.9507 23.9507 0 0 0 1.36843-2.10484c.798-1.95737 2.44806-3.21456 3.816-4.65394a17.09422 17.09422 0 0 1 6.18188-3.68805 14.78874 14.78874 0 0 1 6.382-1.06994c5.06738.272 8.45995 2.54339 9.94131 7.335a12.4369 12.4369 0 0 1-1.40715 9.97853 15.36562 15.36562 0 0 1-2.856 3.29987 22.05414 22.05414 0 0 0 9.05448-6.8979c.57414-.73134 1.21722-1.41817 1.71373-2.19857a24.949 24.949 0 0 0 1.89351-4.335 29.71872 29.71872 0 0 0 2.03174-9.15426 42.473 42.473 0 0 0-5.78023-24.21526 35.89191 35.89191 0 0 0-12.8952-13.21736c-.18937-.11265-.37737-.32256-.61392-.17966-.25705.1553-.089.419-.061.62144.10167.73472.2286 1.46621.35888 2.1966a34.75339 34.75339 0 0 1 .18272 13.05333 14.64092 14.64092 0 0 1-3.83368 7.60532 13.80448 13.80448 0 0 1-6.32962 3.61519c-4.50072 1.25912-8.98861 1.61226-13.42429-.30809-3.69129-1.598-6.819-3.80732-8.626-7.57179a6.34862 6.34862 0 0 1 3.53189-8.94c.955-.36281 1.8723-.65712 2.7925.11643a2.994 2.994 0 0 0 .98287.40715 27.023 27.023 0 0 1 4.91575 1.76406c2.51958 1.42749 3.95561 3.76766 5.09926 6.30889a4.54988 4.54988 0 0 1 .14259 3.05647c-.05749.22246-.201.455-.07315.70658 1.03847-.5815 1.0692-1.74108 1.47541-2.81177.59248.862.08177 1.62709.395 2.42382a6.4028 6.4028 0 0 0 .79-3.0078 3.00487 3.00487 0 0 1 .86484-2.38967c.537-.53444 1.01-1.13325 1.52817-1.72255-.37536-.20515-.62376.04226-.89658.083a3.153 3.153 0 0 1-2.69366-.47917 12.37453 12.37453 0 0 1-3.7619-5.55016c-.37171-1.14416-.01511-1.73927 1.0651-2.25046 1.32983-.62935 2.784-.55192 4.1738-.83242a.09481.09481 0 0 1 .14849-.00905 5.67261 5.67261 0 0 0 1.70213-.0129c.64846-.013 1.32239-.13618 1.837.42258a6.23976 6.23976 0 0 1 1.29863 1.15261c.40126.50982-.00614 1.19228.367 1.80856m.374-7.57293c.31308-.015.57792.05174.62455.40653.002.41-.24659.51087-.56883.51028-.29333-.00055-.61786-.00059-.62644-.4094-.00754-.36327.24766-.49193.57081-.5074zm-13.80946.3684c.06677-.398.54129-.35514.889-.43969.29828.08081.60735.15955.91335.24886.32972.0962.77717.14248.67727.62128-.077.36915-.48105.35865-.79823.3828a2.13541 2.13541 0 0 1-1.01867-.22659c-.29076-.12649-.72204-.23241-.66263-.58665z" class="cls-2"/><path d="M49.74 53.67954a18.861 18.861 0 0 0-8.025-11.7253 58.50458 58.50458 0 0 0-10.79289-5.0686c-1.12039-.44351-2.0865-1.27062-3.33872-1.38175.09994-.26424-.12112-.34747-.27367-.42758a20.44334 20.44334 0 0 1-5.62715-4.25207 14.19047 14.19047 0 0 1-3.95192-8.56531A21.6616 21.6616 0 0 1 19.6287 11.751a8.9147 8.9147 0 0 0 .89683-2.41134c-.604.35624-1.04563.60417-1.47494.87189A36.63446 36.63446 0 0 0 5.60624 25.31866a42.94141 42.94141 0 0 0-4.60093 20.1657 35.5588 35.5588 0 0 0 1.34412 8.9989 23.12282 23.12282 0 0 0 3.02177 6.39011l3.09625 3.95923a19.75919 19.75919 0 0 0 4.71027 3.70029 13.119 13.119 0 0 0 3.30528 1.55982c.05577-.36726-.17612-.481-.31219-.6479a13.18348 13.18348 0 0 1-3.07606-5.85265 16.10447 16.10447 0 0 1 1.11051-10.46011A13.13912 13.13912 0 0 1 20.676 46.443c3.159-1.36256 9.65694-.10637 12.611 1.26177a43.243 43.243 0 0 1 7.06665 4.19909 33.655 33.655 0 0 1 2.93287 3.33633c2.16679 2.67855 2.7366 5.85393 2.6287 9.18486a18.60885 18.60885 0 0 1-1.13834 5.26727 23.01509 23.01509 0 0 1-6.417 9.50531l-7.27409 4.97256a25.32272 25.32272 0 0 0 6.79379-2.81819 26.57317 26.57317 0 0 0 7.46927-6.26359 22.04792 22.04792 0 0 0 5.022-12.3062 26.51514 26.51514 0 0 0-.63085-9.10267z" class="cls-1"/></svg>