<svg xmlns="http://www.w3.org/2000/svg" role="img" viewBox="-2.82 5.18 146.51 45.51"><title>Finicity logo</title><path d="M3 10h1v1H3zm81 7h1v1h-1z" fill="#265787"/><path fill="#ed9b30" d="M63 12h1v1h-1z"/><path d="M52 19h1v1h-1zm5 5h1v1h-1zM22 34h1v1h-1zm47 3h1v1h-1zm55 0h1v1h-1z" fill="#0e447a"/><path fill="#6a8cae" d="M93 24h1v1h-1z"/><path d="M65 25h1v1h-1zM27 35h1v1h-1z" fill="#6486ab"/><path d="M98 11h1v1h-1zm27 14h1v1h-1zM1 39h3v1H1zm3 0h1v1H4zm27 0h1v1h-1z" fill="#668aab"/><path d="M2 12h1v1H2zm37 10h1v1h-1zm33 1h1v1h-1zm21 3h1v1h-1zM69 38h1v1h-1z" fill="#7ba1bd"/><path d="M84 16h1v1h-1zm-22 5h1v1h-1zM27 31h1v1h-1z" fill="#2c5b8b"/><path d="M119 21h1v1h-1zM27 34h1v1h-1z" fill="#597da3"/><path d="M29 17h1v1h-1zm15 3h1v1h-1z" fill="#688aad"/><path d="M97 19h1v1h-1zm23 4h1v1h-1zm-73 3h1v1h-1zm5 10h1v1h-1zm9 0h1v1h-1z" fill="#7595b5"/><path fill="#7293b2" d="M6 31h1v1H6z"/><path d="M24 9h1v1h-1zm86 9h1v1h-1zM68 37h1v1h-1zm-33 2h1v1h-1z" fill="#6789ab"/><path d="M20 13h1v1h-1zm109 4h1v1h-1zm-64 9h1v1h-1zm7 7h1v1h-1zm47 14h1v1h-1z" fill="#5178a0"/><path d="M46 15h1v1h-1zm27 19h1v1h-1z" fill="#32608e"/><path d="M81 19h1v1h-1zM27 30h1v1h-1zm88 17h2v1h-2zm2 0h1v1h-1z" fill="#174b80"/><path d="M62 22h1v1h-1zm-30 2h1v1h-1zm70 1h1v1h-1zm-37 5h1v1h-1zm-38 2h1v1h-1z" fill="#3e6895"/><path d="M53 23h1v1h-1zm18 1h1v1h-1z" fill="#537aa1"/><path d="M33 17h1v1h-1zm95 3h1v1h-1zm-76 9h1v1h-1zm9 0h1v1h-1zm57 5h1v1h-1z" fill="#13487d"/><path d="M58 15h1v1h-1zm59 0h1v1h-1zm-50 4h1v1h-1zm59 3h1v1h-1zm-39 1h1v1h-1zm-16 7h1v1h-1zm50 15h1v1h-1z" fill="#71aac6"/><path d="M84 18h1v1h-1zm-27 4h1v1h-1zM22 32h1v1h-1z" fill="#386491"/><path d="M6 25h11v1H6zm11 0h1v1h-1z" fill="#3d6994"/><path fill="#5a7fa5" d="M96 32h1v1h-1z"/><path d="M29 16h1v1h-1zm7 20h1v1h-1z" fill="#5d82a6"/><path d="M18 25h1v1h-1zm13 8h1v1h-1z" fill="#416b96"/><path fill="#698cae" d="M74 34h1v1h-1z"/><path fill="#f8c53a" d="M60 8h1v1h-1z"/><path d="M103 14h1v1h-1zm-32 9h1v1h-1zM31 35h1v1h-1zm89 10h1v1h-1z" fill="#1d4f83"/><path d="M52 18h1v1h-1zm72 20h1v1h-1z" fill="#567ca2"/><path fill="#4b739d" d="M88 19h1v1h-1z"/><path d="M74 20h1v1h-1zm45 17h1v1h-1zm2 6h1v1h-1z" fill="#184b80"/><path fill="#50789f" d="M53 22h1v1h-1z"/><path d="M34 15h1v1h-1zm-2 5h1v1h-1zm30 6h1v1h-1zM46 36h1v1h-1zm9 0h1v1h-1zm63 0h1v1h-1zm-92 3h1v1h-1z" fill="#6e8fb0"/><path d="M49 15h1v1h-1zm45 1h1v1h-1z" fill="#7493b6"/><path fill="#f6bb36" d="M61 8h1v1h-1z"/><path d="M99 9h1v1h-1zm-2 27h1v1h-1z" fill="#245586"/><path fill="#eea531" d="M63 10h1v1h-1z"/><path d="M104 10h1v1h-1zM2 14h1v1H2zm115 19h1v1h-1zm-20 4h1v1h-1z" fill="#6b8cad"/><path d="M104 11h1v1h-1zm-61 9h1v1h-1zm-6 9h1v1h-1z" fill="#7392b4"/><path d="M9 13h9v1H9zm9 0h1v1h-1zm6 3h1v1h-1zm69 4h1v1h-1zM5 25h1v1H5zm110 1h1v1h-1z" fill="#396592"/><path d="M135 17h1v1h-1zm-11 10h1v1h-1z" fill="#6b8bae"/><path d="M88 18h1v1h-1zm14 9h1v1h-1zm-6 6h1v1h-1z" fill="#587da3"/><path d="M67 21h1v1h-1zm-44 4h1v1h-1zm94 17h1v1h-1z" fill="#0a4078"/><path d="M38 22h1v1h-1zm89 0h1v1h-1zm-25 1h1v1h-1zm-15 8h1v1h-1zm-11 4h1v1h-1z" fill="#1a4d81"/><path d="M28 25h1v1h-1zM5 38h1v1H5z" fill="#5b80a6"/><path d="M38 16h1v1h-1zm90 14h1v1h-1zm-76 2h1v1h-1zm9 0h1v1h-1zm41 2h1v1h-1z" fill="#49729b"/><path d="M50 16h1v1h-1zm34 3h1v1h-1z" fill="#49729a"/><path d="M100 8h1v1h-1zm-62 7h1v1h-1zm-15 3h1v1h-1zm73 11h1v1h-1zm-60 9h1v1h-1z" fill="#7191b3"/><path fill="#f8c63a" d="M59 9h1v1h-1z"/><path d="M62 9h1v1h-1zm-2 2h1v1h-1z" fill="#f2b134"/><path d="M103 13h1v1h-1zM7 15h1v1H7zm120 16h1v1h-1zm-20 5h1v1h-1zm3 0h1v1h-1z" fill="#063d75"/><path d="M48 15h1v1h-1zm-16 7h1v1h-1zm30 2h1v1h-1zm61 16h1v1h-1z" fill="#597ea4"/><path d="M116 15h1v1h-1zm-2 31h1v1h-1z" fill="#6c8eaf"/><path d="M39 17h1v1h-1zm64 4h1v1h-1zm-1 11h1v1h-1zm-72 5h1v1h-1z" fill="#7998b6"/><path d="M91 37h1v1h-1zm-20 1h1v1h-1z" fill="#1f5184"/><path d="M101 8h2v1h-2zm2 0h1v1h-1zm20 21h1v1h-1zM60 39h1v1h-1z" fill="#708fb2"/><path d="M42 15h1v1h-1zm86 3h1v1h-1zM1 21h1v1H1zm-1 9h1v1H0z" fill="#7b9eb9"/><path fill="#5278a1" d="M77 15h1v1h-1z"/><path d="M109 15h1v1h-1zM56 26h1v1h-1zm74 1h1v1h-1zM21 36h1v1h-1zm70 3h1v1h-1z" fill="#7595b3"/><path d="M117 16h1v1h-1zm-89 7h1v1h-1zM5 36h1v1H5zm95 3h1v1h-1z" fill="#416b97"/><path d="M23 24h1v1h-1zm96 14h1v1h-1z" fill="#225385"/><path d="M98 15h1v1h-1zm-75 8h1v1h-1zm101 5h1v1h-1zm-88 5h1v1h-1z" fill="#34618f"/><path d="M104 15h4v1h-4zm4 0h1v1h-1zm4 0h3v1h-3zm3 0h1v1h-1zm17 0h3v1h-3zm3 0h1v1h-1zM23 19h1v1h-1z" fill="#6889ad"/><path d="M104 9h1v1h-1zm-61 6h1v1h-1zm32 5h1v1h-1zm18 3h1v1h-1z" fill="#6185a9"/><path d="M82 15h1v1h-1zM22 29h1v1h-1zm81 11h1v1h-1z" fill="#6084a8"/><path d="M58 16h1v1h-1zm30 5h1v1h-1zm37 5h1v1h-1z" fill="#2b5a8a"/><path d="M110 17h1v1h-1zm-42 1h1v1h-1zm7 16h1v1h-1zm-54 1h1v1h-1zm102 6h1v1h-1z" fill="#79a1bc"/><path d="M42 20h1v1h-1zm74 10h1v1h-1zm-30 5h1v1h-1z" fill="#6789ad"/><path fill="#1b4e82" d="M106 36h1v1h-1z"/><path d="M76 15h1v1h-1zm-6 2h1v1h-1zm-17 7h1v1h-1z" fill="#5a7fa4"/><path d="M136 15h1v1h-1zm-85 1h1v1h-1zm43 1h1v1h-1zm33 3h1v1h-1zm-53 1h1v1h-1zm37 15h1v1h-1zm-10 4h1v1h-1z" fill="#7896c3"/><path d="M112 17h1v1h-1zm-19 2h1v1h-1zm-23 9h1v1h-1zm7 7h1v1h-1z" fill="#265688"/><path d="M93 18h1v1h-1zm30 21h1v1h-1z" fill="#11467c"/><path d="M65 33h1v1h-1zm7 6h1v1h-1z" fill="#7897b6"/><path fill="#ffa246" d="M60 13h1v1h-1z"/><path d="M71 25h1v1h-1zm9 14h1v1h-1z" fill="#6c8eb0"/><path fill="#f1b132" d="M63 8h1v1h-1z"/><path d="M19 13h1v1h-1zm69 7h1v1h-1zm-51 5h1v1h-1z" fill="#3c6793"/><path d="M129 16h1v1h-1zm-45 4h1v1h-1zM6 32h1v1H6z" fill="#789cb8"/><path d="M110 19h1v1h-1zM92 30h1v1h-1z" fill="#456e99"/><path d="M21 13h1v1h-1zm81 27h1v1h-1z" fill="#6d8faf"/><path d="M62 20h1v1h-1zm-30 6h1v1h-1z" fill="#184c80"/><path fill="#52789f" d="M36 35h1v1h-1z"/><path d="M8 15h1v1H8zm49 1h1v1h-1zm-28 4h1v1h-1zm48 0h1v1h-1zm26 2h1v1h-1zm22 2h1v1h-1zm-29 3h1v1h-1zm-24 5h1v1h-1zm-42 4h1v1h-1zm88 1h1v1h-1zm-9 3h1v1h-1zm11 7h1v1h-1z" fill="#0ff"/><path d="M135 16h1v1h-1zM32 25h1v1h-1z" fill="#2d5b8c"/><path d="M57 18h1v1h-1zM8 20h10v1H8zm10 0h1v1h-1zm35 0h1v1h-1zM1 23h1v1H1zm21 5h1v1h-1zm49 3h1v1h-1zM0 32h1v1H0zm0 7h1v1H0z" fill="#6a8bae"/><path fill="#ffb13b" d="M64 9h1v1h-1z"/><path d="M2 13h1v1H2zm-1 9h1v1H1zm46 1h1v1h-1zm18 1h1v1h-1zm66 1h1v1h-1zm-50 9h1v1h-1zm11 0h1v1h-1zm16 6h1v1h-1z" fill="#7293b4"/><path d="M46 21h1v1h-1zm40 13h1v1h-1z" fill="#6f90b0"/><path d="M65 28h1v1h-1zm58 2h1v1h-1z" fill="#3c6894"/><path fill="#0b4178" d="M0 38h1v1H0z"/><path fill="#f5bb35" d="M60 9h1v1h-1z"/><path d="M49 16h1v1h-1zM32 27h1v1h-1zm97 0h1v1h-1zm-13 17h1v1h-1z" fill="#023a73"/><path d="M98 17h1v1h-1zM2 20h1v1H2zm90 7h1v1h-1zM1 29h1v1H1zm124 6h1v1h-1z" fill="#0c4279"/><path d="M69 18h1v1h-1zm45 5h1v1h-1zm-43 9h1v1h-1zm20 6h1v1h-1z" fill="#33608f"/><path d="M46 20h1v1h-1zm24 10h1v1h-1zm-3 5h1v1h-1zm-36 1h1v1h-1z" fill="#053c75"/><path d="M82 20h1v1h-1zm-26 5h1v1h-1zm61 15h1v1h-1z" fill="#799eb6"/><path d="M40 16h1v1h-1zm12 1h1v1h-1zm1 2h1v1h-1zm-7 15h1v1h-1zm9 0h1v1h-1z" fill="#74a2b9"/><path fill="#4d749d" d="M122 30h1v1h-1z"/><path d="M22 12h1v1h-1zM7 18h1v1H7z" fill="#477099"/><path fill="#f1a334" d="M61 13h1v1h-1z"/><path d="M97 23h1v1h-1zm5 3h1v1h-1zm-75 7h1v1h-1z" fill="#4c749d"/><path d="M97 24h1v1h-1zm34 0h1v1h-1z" fill="#3e6894"/><path d="M109 35h1v1h-1zm9 4h1v1h-1z" fill="#5f83a7"/><path d="M72 22h1v1h-1zm58 4h1v1h-1z" fill="#426d97"/><path fill="#6e8eb1" d="M87 25h1v1h-1z"/><path d="M5 26h1v1H5zm42 7h1v1h-1zm9 0h1v1h-1z" fill="#14497e"/><path d="M47 31h1v1h-1zm9 0h1v1h-1zm5 0h1v1h-1z" fill="#3b6793"/><g fill="#003872"><path d="M4 9h19v2H4zm19 0h1v1h-1zm77 0h3v12h-3zm3 0h1v3h-1z"/><path d="M99 10h4v11h-4zM4 11h18v1H4zm18 0h1v1h-1zM3 12h18v1H3zm18 0h1v1h-1zm82 0h1v1h-1zM3 13h4v11H3zm4 0h1v1H7zm0 1h1v1H7zm18 2h3v12h-3zm3 0h1v3h-1zm6 0h3v14h-3zm3 0h1v7h-1zm6 0h5v3h-5zm5 0h1v22h-1zm11 0h3v12h-3zm3 0h1v2h-1zm12 0h9v2h-9zm9 0h1v3h-1zm7 0h3v10h-3zm3 0h1v1h-1zm10 0h5v3h-5zm5 0h1v3h-1zm4 0h4v1h-4zm4 0h1v11h-1zm15 0h3v3h-3zm3 0h1v1h-1z"/><path d="M24 17h4v11h-4zm17 0h9v2h-9zm9 0h1v21h-1zm8 0h4v11h-4zm14 0h11v1H72zm17 0h4v9h-4zm4 0h1v1h-1zm20 0h3v2h-3zm17 0h4v2h-4zm4 0h1v1h-1zM33 18h1v1h-1z"/><path d="M40 18h11v1H40zm11 0h1v19h-1zm11 0h1v1h-1zm8 0h13v1H70zm28 0h11v1H98zm11 0h1v1h-1zm8 0h1v12h-1zm-89 1h1v1h-1zm5 0h4v11h-4zm6 0h12v1H39zm30 0h7v1h-7zm7 0h1v1h-1zm6 0h1v1h-1zm1 0h1v1h-1zm15 0h11v1H98zm11 0h1v1h-1zm4 0h4v1h-4zm16 0h4v2h-4zm4 0h1v1h-1zm-95 1h1v1h-1zm1 0h1v1h-1z"/><path d="M47 20h5v1h-5zm5 0h1v8h-1zm16 0h5v1h-5zm5 0h1v1h-1zm25 0h4v16h-4zm16 0h3v1h-3zm4 0h1v1h-1zM2 21h16v3H2zm16 0h1v3h-1zm20 0h1v1h-1zm11 0h3v16h-3zm19 0h4v1h-4zm4 0h1v1h-1zm30 0h1v1h-1zm12 0h4v1h-4zm4 0h1v12h-1zm10 0h4v1h-4zm4 0h1v1h-1zm-65 1h4v3h-4zm4 0h1v1h-1zm44 0h3v2h-3zm13 0h3v2h-3zm3 0h1v1h-1zm-94 1h1v1h-1zm82 0h1v13h-1z"/><path d="M127 23h3v3h-3zm4 0h1v1h-1zM2 24h16v1H2zm16 0h1v1h-1zm48 0h4v8h-4zm22 0h4v11h-4zm27 0h4v1h-4zm15 0h1v1h-1zM2 25h1v13H2zm1 0h1v13H3zm54 0h4v12h-4zm13 0h1v1h-1z"/><path d="M126 25h3v3h-3zM4 26h1v12H4zm19 0h4v11h-4zm69 0h1v1h-1zm28 0h1v18h-1zm9 0h1v1h-1zM5 27h1v5H5zm111 0h4v1h-4z"/><path d="M125 27h3v3h-3zm-98 1h1v1h-1zm5 0h4v10h-4zm20 0h1v1h-1zm9 0h1v1h-1zm36 0h4v7h-4zm31 0h1v1h-1zm-7 1h1v13h-1z"/><path d="M124 29h3v3h-3zM1 30h4v8H1zm35 0h1v1h-1zm81 0h4v1h-4zm10 0h1v1h-1zm-57 1h1v6h-1zm53 0h1v1h-1zM5 32h1v1H5zm61 0h4v1h-4zm56 0h4v2h-4zm4 0h1v1h-1z"/><path d="M67 33h4v1h-4zm4 0h1v4h-1zm16 0h4v5h-4zm31 0h7v1h-7zm-71 1h1v1h-1zm9 0h1v1h-1z"/><path d="M67 34h5v1h-5zm5 0h1v4h-1zm50 0h3v2h-3zm3 0h1v1h-1zM22 35h4v3h-4zm25 0h4v3h-4zm9 0h4v3h-4z"/><path d="M68 35h6v1h-6zm6 0h1v3h-1zm7 0h1v3h-1zm10 0h1v1h-1zm6 0h4v1h-4z"/><path d="M69 36h12v1H69zm29 0h6v1h-6zm6 0h1v3h-1zm4 0h1v3h-1zm1 0h1v2h-1zm10 0h5v1h-5zm5 0h1v1h-1zm-98 1h1v1h-1zm5 0h4v1h-4zm20 0h1v1h-1zm9 0h1v1h-1zm10 0h11v1H70zm28 0h1v1h-1z"/><path d="M99 37h11v1H99zm11 0h1v1h-1zm12 0h1v3h-1zm1 0h1v1h-1zM1 38h3v1H1zm3 0h1v1H4zm18 0h3v1h-3zm3 0h1v1h-1zm6 0h4v1h-4zm4 0h1v1h-1zm12 0h3v1h-3zm3 0h1v1h-1zm6 0h3v1h-3zm3 0h1v1h-1zm13 0h9v1h-9zm9 0h1v1h-1zm6 0h3v1h-3zm3 0h1v1h-1zm10 0h10v1h-10zm10 0h1v1h-1zm13 0h1v1h-1zm-21 1h6v1h-6zm6 0h1v1h-1zm11 0h3v3h-3zm3 1h1v1h-1z"/><path d="M118 41h3v3h-3zm3 1h1v1h-1z"/><path d="M117 43h3v3h-3zm3 1h1v1h-1z"/><path d="M116 45h3v1h-3zm-1 1h4v1h-4zm4 0h1v1h-1z"/></g><path fill="#f7b33c" d="M59 12h1v1h-1z"/><path d="M44 15h1v1h-1zm-25 7h1v1h-1zm110 6h1v1h-1zM0 35h1v1H0z" fill="#466f99"/><path d="M90 15h1v1h-1zm-52 8h1v1h-1zm-1 5h1v1h-1zM6 30h1v1H6zm105 7h1v1h-1z" fill="#6a8dad"/><path d="M98 16h1v1h-1zm-59 2h1v1h-1zm87 6h1v1h-1zm-6 1h1v1h-1zM0 37h1v1H0z" fill="#225386"/><path d="M28 20h1v1h-1zm74 2h1v1h-1zm13 3h1v1h-1zm-18 2h1v1h-1zm31 2h1v1h-1zm-53 6h1v1h-1zm24 3h1v1h-1zm2 1h1v1h-1z" fill="#043b74"/><path d="M2 16h1v1H2zm55 4h1v1h-1zm-20 6h1v1h-1zm80 15h1v1h-1z" fill="#547ba2"/><path d="M23 17h1v1h-1zm-2 22h1v1h-1z" fill="#7999b9"/><path d="M23 10h1v1h-1zm64 22h1v1h-1z" fill="#033b74"/><path d="M25 15h1v1h-1zm58 0h1v1h-1zm51 4h1v1h-1zm-81 7h1v1h-1zM27 36h1v1h-1zm24 3h1v1h-1z" fill="#6d8eaf"/><path d="M7 17h1v1H7zm32 4h1v1h-1zm27 13h1v1h-1z" fill="#356290"/><path d="M79 19h1v1h-1zm39 0h1v1h-1zM87 30h1v1h-1z" fill="#2e5d8c"/><path d="M126 23h1v1h-1zM52 34h1v1h-1zm9 0h1v1h-1z" fill="#6284a9"/><path fill="#eea031" d="M62 12h1v1h-1z"/><path d="M78 15h1v1h-1zm-46 8h1v1h-1zm30 0h1v1h-1zm65 9h1v1h-1zm-24 3h1v1h-1z" fill="#4c749c"/><path fill="#194c81" d="M97 26h1v1h-1z"/><path fill="#688bad" d="M92 33h1v1h-1z"/><path d="M32 21h1v1h-1zm21 4h1v1h-1zm9 0h1v1h-1zm48 10h1v1h-1zm-64 2h1v1h-1z" fill="#6486a9"/><path d="M28 22h1v1h-1zm3 12h1v1h-1z" fill="#305e8d"/><path d="M109 16h1v1h-1zm5 31h1v1h-1z" fill="#3c6794"/><path d="M62 11h1v1h-1zm-1 1h1v1h-1z" fill="#efa532"/><path d="M113 21h1v1h-1zM31 31h1v1h-1z" fill="#5b80a5"/><path fill="#eea335" d="M64 10h1v1h-1z"/><path d="M84 15h1v1h-1zm5 0h1v1h-1zm8 3h1v1h-1zm18 10h1v1h-1zm-63 9h1v1h-1zm9 0h1v1h-1z" fill="#7a9bbc"/><path d="M117 17h1v1h-1zm-55 2h1v1h-1zm52 3h1v1h-1zm-26 1h1v1h-1zm42 2h1v1h-1zM27 29h1v1h-1zm39 4h1v1h-1zm14 2h1v1h-1zm22 0h1v1h-1zm-34 1h1v1h-1zm-42 2h1v1h-1z" fill="#013973"/><path d="M113 20h1v1h-1zm-11 4h1v1h-1zm-5 1h1v1h-1z" fill="#2d5c8b"/><path d="M122 31h1v1h-1zm-62 7h1v1h-1z" fill="#0f457b"/><path fill="#f4b636" d="M62 8h1v1h-1z"/><path d="M33 16h1v1h-1zm24 5h1v1h-1zM22 31h1v1h-1z" fill="#47719a"/><path fill="#12477d" d="M89 16h1v1h-1z"/><path d="M87 26h1v1h-1zm20 14h1v1h-1z" fill="#6587ab"/><path d="M99 8h1v1h-1zm-1 1h1v1h-1zm-75 3h1v1h-1zm40 7h1v1h-1zm-25 5h1v1h-1zm-7 3h1v1h-1zm87 11h1v1h-1zm-82 1h1v1h-1z" fill="#69c"/><path d="M62 10h1v1h-1zm-2 2h1v1h-1z" fill="#f0aa32"/><path fill="#1f5183" d="M70 27h1v1h-1z"/><path d="M24 8h1v1h-1zm106 7h1v1h-1zm-98 3h1v1h-1zm21 10h1v1h-1zm9 0h1v1h-1zm54 3h1v1h-1zm-36 3h1v1h-1zm-53 4h1v1h-1zm95 5h1v1h-1z" fill="#769dc4"/><path d="M98 10h1v1h-1zm-69 8h1v1h-1zm104 3h1v1h-1zM82 34h1v1h-1z" fill="#7092b1"/><path d="M32 19h1v1h-1zm80 0h1v1h-1zm17 10h1v1h-1zm-83 6h1v1h-1zm9 0h1v1h-1z" fill="#7596b4"/><path fill="#7597b6" d="M19 20h1v1h-1z"/><path d="M53 27h1v1h-1zm9 0h1v1h-1zm46 8h1v1h-1zm-81 2h1v1h-1z" fill="#7596b6"/><path d="M79 35h1v1h-1zm43 6h1v1h-1z" fill="#14487d"/><path fill="#f4b735" d="M59 11h1v1h-1z"/><path d="M8 13h1v1H8zm126 5h1v1h-1zM5 35h1v1H5z" fill="#315f8e"/><path d="M119 20h1v1h-1zm-72 4h1v1h-1zm40 0h1v1h-1z" fill="#7795b4"/><path d="M88 22h1v1h-1zm-6 13h1v1h-1zm36 5h1v1h-1z" fill="#15497e"/><path fill="#ee9a31" d="M62 13h1v1h-1z"/><path d="M29 15h1v1h-1zm73 15h1v1h-1z" fill="#7496b4"/><path d="M104 20h1v1h-1zm-39 7h1v1h-1z" fill="#436d98"/><path d="M93 21h1v1h-1zm23 22h1v1h-1z" fill="#49719b"/><path d="M4 8h1v1H4zm53 9h1v1h-1zM22 27h1v1h-1zM0 31h1v1H0zm66 4h1v1h-1zm20 4h1v1h-1z" fill="#7393b3"/><path d="M7 19h1v1H7zm86 3h1v1h-1z" fill="#557ba1"/><path fill="#164a7e" d="M109 39h1v1h-1z"/><path fill="#245487" d="M118 47h1v1h-1z"/><path fill="#7a99b8" d="M124 39h1v1h-1z"/><path fill="#f5bc36" d="M59 10h1v1h-1z"/><path d="M45 15h1v1h-1zm88 5h1v1h-1zM1 27h1v1H1zm91 2h1v1h-1zM0 36h1v1H0z" fill="#366291"/><path d="M80 15h1v1h-1zM7 20h1v1H7zm80 8h1v1h-1zm-22 3h1v1h-1z" fill="#4e769e"/><path d="M81 15h1v1h-1zM1 25h1v1H1zm-1 9h1v1H0z" fill="#547aa1"/><path d="M40 17h1v1h-1zm12 13h1v1h-1zm9 0h1v1h-1zm-14 2h1v1h-1zm35 4h1v1h-1z" fill="#295889"/><path fill="#7896b9" d="M81 39h1v1h-1z"/><path d="M5 8h17v1H5zm17 0h1v1h-1zm37 7h1v1h-1zm72 0h1v1h-1zm-34 5h1v1h-1zm-50 7h1v1h-1zm9 0h1v1h-1zM21 37h1v1h-1z" fill="#6b8dae"/><path d="M72 16h1v1h-1zm-34 2h1v1h-1zm74 0h1v1h-1zM78 39h1v1h-1z" fill="#577da4"/><path d="M2 19h1v1H2zm76 0h1v1h-1zM1 28h1v1H1zm91 0h1v1h-1z" fill="#235386"/><path fill="#587ea4" d="M97 22h1v1h-1z"/><path d="M46 38h1v1h-1zm9 0h1v1h-1zm49 2h1v1h-1z" fill="#5a80a5"/><path d="M26 15h2v1h-2zm2 0h1v1h-1zm7 0h2v1h-2zm2 0h1v1h-1zm23 0h2v1h-2zm2 0h1v1h-1zm13 0h1v1h-1zm16 0h2v1h-2zm2 0h1v1h-1zm3 15h1v1h-1z" fill="#698aac"/><path d="M41 16h1v1h-1zm34 23h1v1h-1z" fill="#557ba2"/><path d="M73 21h1v1h-1zm-7 1h1v1h-1zm-47 1h1v1h-1zm73 8h1v1h-1zm33 5h1v1h-1z" fill="#5379a0"/><path d="M24 15h1v1h-1zm9 0h1v1h-1zm36 2h1v1h-1zm17 15h1v1h-1z" fill="#5aa"/><path d="M42 16h1v1h-1zm29 1h1v1h-1zm6 2h1v1h-1zm-7 7h1v1h-1zM5 33h1v1H5zm86 3h1v1h-1z" fill="#073e76"/><path d="M38 17h1v1h-1zm14 16h1v1h-1zm9 0h1v1h-1zm50 5h1v1h-1zm-6 2h1v1h-1z" fill="#567da2"/><path d="M47 21h1v1h-1zm-10 3h1v1h-1zm14 14h1v1h-1z" fill="#0e437a"/><path fill="#688bac" d="M36 37h1v1h-1z"/><path fill="#f1ac33" d="M63 9h1v1h-1z"/><path d="M7 16h1v1H7zm66 0h1v1h-1zm5 19h1v1h-1z" fill="#205184"/><path d="M130 16h1v1h-1zM28 21h1v1h-1zm93 7h1v1h-1z" fill="#1c4e82"/><path d="M19 25h1v1h-1zm9 3h1v1h-1z" fill="#7697b3"/><path fill="#6487ab" d="M55 37h1v1h-1z"/><path fill="#f4b634" d="M61 9h1v1h-1z"/><path fill="#f4b635" d="M60 10h1v1h-1z"/><path fill="#eda031" d="M63 11h1v1h-1z"/><path d="M63 15h1v1h-1zm48 0h1v1h-1z" fill="#7696b6"/><path fill="#eb9c35" d="M64 11h1v1h-1z"/><path d="M111 16h1v1h-1zm-18 9h1v1h-1zm9 8h1v1h-1zm13 11h1v1h-1z" fill="#7495b3"/><path fill="#285788" d="M119 22h1v1h-1z"/><path d="M102 29h1v1h-1zm-50 6h1v1h-1zm9 0h1v1h-1z" fill="#6c8dae"/><path fill="#6d8db0" d="M23 8h1v1h-1z"/><path d="M41 20h1v1h-1zm-18 1h1v1h-1zm54 18h1v1h-1z" fill="#5279a0"/><path d="M103 20h1v1h-1zm-84 1h1v1h-1zm113 1h1v1h-1zm-80 9h1v1h-1zm30 6h1v1h-1zm33 8h1v1h-1z" fill="#3a6693"/><path fill="#376491" d="M68 19h1v1h-1z"/><path d="M97 21h1v1h-1zm-1 13h1v1h-1zm-75 4h1v1h-1z" fill="#6386a9"/><path d="M24 10h1v1h-1zm13 20h1v1h-1z" fill="#7897b7"/><path d="M98 12h1v1h-1zm20 6h1v1h-1zm9 3h1v1h-1zM86 36h1v1h-1zm-12 3h1v1h-1z" fill="#5c80a6"/><path d="M104 12h1v1h-1zm10 13h1v1h-1zm-12 6h1v1h-1zm9 8h1v1h-1z" fill="#7896bc"/><path d="M98 14h1v1h-1zm8 6h1v1h-1zm1 0h1v1h-1zm1 0h1v1h-1zm-85 2h1v1h-1zm13 12h1v1h-1z" fill="#446e98"/><path d="M103 15h1v1h-1zM36 32h1v1h-1z" fill="#215285"/><path d="M63 16h1v1h-1zM28 26h1v1h-1zm-6 13h3v1h-3zm3 0h1v1h-1zm7 0h2v1h-2zm2 0h1v1h-1zm13 0h3v1h-3zm3 0h1v1h-1zm6 0h3v1h-3zm3 0h1v1h-1zm28 0h3v1h-3zm3 0h1v1h-1z" fill="#6689ab"/><path d="M47 15h1v1h-1zm40 14h1v1h-1zm29 0h1v1h-1z" fill="#3f6a95"/><path d="M28 29h1v1h-1zm89 5h1v1h-1z" fill="#6d92b6"/><path fill="#2a5a89" d="M56 32h1v1h-1z"/><path d="M59 8h1v1h-1zm5 4h1v1h-1zm-1 1h1v1h-1zm74 1h1v1h-1zm1 0h1v1h-1zm1 0h1v1h-1zm1 0h1v1h-1zm-3 1h1v1h-1zm1 0h1v1h-1zm1 0h1v1h-1zm1 0h1v1h-1zm-3 1h1v1h-1zm1 0h1v1h-1zm1 0h1v1h-1zm1 0h1v1h-1zm-3 1h1v1h-1zm1 0h1v1h-1zm1 0h1v1h-1zm1 0h1v1h-1zm-3 1h1v1h-1zm1 0h1v1h-1zm1 0h1v1h-1zm1 0h1v1h-1z" fill="#fff"/><path d="M74 15h1v1h-1zm-45 4h1v1h-1zm67 9h1v1h-1z" fill="#779ab8"/><path d="M53 21h1v1h-1zm34 6h1v1h-1zm-5 11h1v1h-1z" fill="#5b80a4"/><path d="M120 24h1v1h-1zM6 28h1v1H6zm16 2h1v1h-1z" fill="#557aa1"/><path fill="#f1ab33" d="M61 11h1v1h-1z"/><path d="M63 18h1v1h-1zm13 2h1v1h-1zm-36 1h1v1h-1zm26 0h1v1h-1zm-35 7h1v1h-1zm97 3h1v1h-1zm-82 8h1v1h-1zm9 0h1v1h-1z" fill="#7698b5"/><path d="M104 8h1v1h-1zM8 14h1v1H8zm63 2h1v1h-1zm47 1h1v1h-1zm9 16h1v1h-1zm-11 9h1v1h-1z" fill="#7799b5"/><path d="M3 9h1v1H3zm62 23h1v1h-1zm2 4h1v1h-1zm31 2h1v1h-1z" fill="#5e82a7"/><path d="M109 20h1v1h-1zm8 12h1v1h-1z" fill="#456f99"/><path fill="#f2b033" d="M61 10h1v1h-1z"/><path d="M2 15h1v1H2zm55 4h1v1h-1zM1 24h1v1H1zm36 3h1v1h-1zM6 29h1v1H6z" fill="#6083a7"/><path d="M38 19h1v1h-1zM4 25h1v1H4zm32 6h1v1h-1zm90 2h1v1h-1z" fill="#093f77"/><path d="M80 19h1v1h-1zm-23 4h1v1h-1zM22 33h1v1h-1z" fill="#255687"/><path d="M83 20h1v1h-1zm49 3h1v1h-1zM30 38h1v1h-1z" fill="#7191b1"/><path fill="#5c81a6" d="M122 42h1v1h-1z"/><path d="M66 23h1v1h-1zm4 6h1v1h-1zM5 34h1v1H5z" fill="#1e5083"/><path d="M47 30h1v1h-1zm9 0h1v1h-1zm62 5h1v1h-1z" fill="#4a729c"/><path d="M23 11h1v1h-1zm75 2h1v1h-1zm-53 7h1v1h-1zm76 7h1v1h-1zM86 37h1v1h-1z" fill="#51779f"/><path d="M63 17h1v1h-1zM28 27h1v1h-1zm3 2h1v1h-1zm91 0h1v1h-1z" fill="#6f90b2"/><path d="M128 19h1v1h-1zm-61 1h1v1h-1zm-20 9h1v1h-1zm9 0h1v1h-1zm14 9h1v1h-1z" fill="#577ca3"/><path d="M23 20h1v1h-1zM6 26h1v1H6zm100 14h1v1h-1z" fill="#5e83a6"/><path d="M110 20h1v1h-1zm-63 2h1v1h-1zm-19 2h1v1h-1zm82 15h1v1h-1z" fill="#4f769e"/><path d="M113 22h1v1h-1zm-66 3h1v1h-1zm39 8h1v1h-1zm18 2h1v1h-1z" fill="#7798b8"/><path d="M94 15h1v1h-1zm-6 1h1v1h-1zM22 26h1v1h-1zm49 0h1v1h-1zm54 11h1v1h-1zm-95 2h1v1h-1z" fill="#79b"/><path fill="#325f8f" d="M51 17h1v1h-1z"/><path d="M109 17h1v1h-1zm7 11h1v1h-1z" fill="#083f76"/><path d="M105 20h1v1h-1zM86 38h1v1h-1z" fill="#436c97"/><path d="M31 30h1v1h-1zm42 9h1v1h-1z" fill="#6689ac"/><path d="M3 11h1v1H3zm126 7h1v1h-1zm-89 2h1v1h-1zm77 11h1v1h-1zm-12 5h1v1h-1z" fill="#0d4279"/><path d="M2 18h1v1H2zm63 11h1v1h-1z" fill="#366390"/><path d="M121 26h1v1h-1zm-25 9h1v1h-1zm3 4h1v1h-1z" fill="#7191b2"/><path d="M92 35h1v1h-1zm34 0h1v1h-1zM5 39h1v1H5z" fill="#799ab5"/><path fill="#4f769f" d="M76 39h1v1h-1z"/><path d="M79 15h1v1h-1zM2 17h1v1H2zm-1 9h1v1H1zm5 1h1v1H6z" fill="#47709a"/><path d="M19 24h1v1h-1zm95 0h1v1h-1zm-18 7h1v1h-1zm-4 1h1v1h-1zM0 33h1v1H0zm79 6h1v1h-1zm42 5h1v1h-1z" fill="#5f83a8"/><path d="M31 32h1v1h-1zm95 2h1v1h-1zM5 37h1v1H5z" fill="#50779f"/><path d="M88 17h1v1h-1zm27 10h1v1h-1z" fill="#6385a9"/><path d="M47 28h1v1h-1zm9 0h1v1h-1zm46 0h1v1h-1zm18 18h1v1h-1z" fill="#6285aa"/></svg>