<svg xmlns="http://www.w3.org/2000/svg" role="img" viewBox="-0.35 -0.35 23.19 9.29"><title>Ford Motor Company logo</title><path fill="#003478" d="M11.3115.13237C5.10607.13237.13176 1.9924.13176 4.32444c0 2.31784 5.0153 4.19223 11.17974 4.19223 6.16459 0 11.1799-1.88068 11.1799-4.19223 0-2.31155-5.01531-4.19207-11.1799-4.19207"/><path fill="#fff" d="M15.71512 5.21246c.003.0192.0282.0376.0526.0463.009.003.0134.009.004.0294-.0696.14921-.13361.23523-.22087.36488-.0803.11979-.17072.21326-.28018.30316-.16513.13664-.39446.28538-.58404.18539-.0842-.0437-.12064-.16156-.11901-.25697.004-.2683.12336-.54375.34376-.81446.26869-.33079.56572-.50236.76066-.40858.20169.0962.13733.32971.047.513-.007.0142-.007.0262-.004.0378m2.16435-2.09052c.0145-.0256-.00077-.0443-.0331-.0443-.16846 0-.38949.00038-.56502.00038-.0418 0-.0634.005-.0831.044-.0648.12413-.85436 1.30743-1.00132 1.53722-.0248.035-.055.0301-.0585-.01-.0149-.13648-.13276-.29338-.31846-.36845-.14152-.0574-.27987-.0678-.42372-.0487-.25969.0349-.49104.17188-.69444.32638-.30657.23305-.57107.53513-.91251.75832-.18639.1215-.44165.22747-.61245.0693-.15457-.14331-.1371-.46161.0994-.70779.0249-.0258.0548-.004.0501.0189-.0223.11133.005.22204.0896.29967.10317.0925.25083.10294.37722.0412.14913-.0739.23678-.21659.26232-.37854.0395-.25122-.15387-.47279-.39585-.49057-.19657-.0138-.38507.0546-.56875.2062-.0921.0764-.1444.13283-.22405.2461-.0194.0279-.0492.0307-.0483-.0105.009-.32164-.1239-.5026-.3898-.5085-.20642-.005-.42691.10705-.59879.24408-.18841.15131-.35315.35183-.52977.54025-.022.0232-.0411.0221-.0473-.0229-.005-.21311-.0589-.41953-.15752-.56611-.0349-.051-.10837-.0762-.17009-.0418-.0285.0156-.12763.0612-.19983.11932-.0358.0295-.0498.0722-.0339.12693.0952.31838.0743.68038-.0549.98611-.11862.28002-.34912.53256-.62006.61804-.17848.0566-.36402.0289-.47884-.12934-.15768-.21838-.094-.59817.14106-.91352.20743-.27769.50749-.45408.80677-.56766.0352-.0136.0425-.0362.0325-.0661-.0162-.0492-.0422-.11622-.0527-.1468-.0275-.0731-.10434-.0849-.1982-.0747-.21746.0253-.41364.0998-.60741.20356-.50742.27172-.76182.79761-.8733 1.07895-.0537.13516-.0996.21947-.15892.29423-.08.10054-.18042.19207-.36403.35332-.0166.0148-.029.0456-.015.0743.0187.0388.1142.17367.14114.1857.0299.0147.0646-.006.0785-.0158.12848-.0871.2822-.22514.35742-.31877.0264-.0321.0535-.0186.0675.0301.0702.25045.25402.45494.5082.54049.46526.1569.94783-.0702 1.31209-.46557.2315-.2513.31503-.41294.40377-.52279.15038-.18632.44702-.60313.80033-.87074.12957-.0987.28289-.17398.35999-.12398.0619.0401.0819.1333-.0174.31387-.36023.6578-.89023 1.43064-.98743 1.61805-.0178.0325-.002.0581.0318.0581.1885-.00093.37536-.00047.54647-.00047.0285-.001.0412-.0144.0555-.0345.27645-.43273.5366-.84458.81546-1.2704.0156-.0251.03-.006.0306.005.006.0988.03.23391.0887.32265.10542.16404.25479.23453.42046.23561.13182.002.19851-.0185.34066-.0716.11567-.0429.20852-.0992.27979-.15015.0416-.029.0489.0195.0479.0269-.064.34353.015.75057.35642.91934.40859.20146.85746-.0817 1.11575-.33732.0253-.0246.0524-.022.055.0311.006.0976.0496.21341.13034.29446.21645.21722.65322.13113 1.09154-.20813.28142-.21722.57588-.52411.84186-.84908.01-.0126.0172-.0328-.002-.0533-.0405-.0424-.0991-.0909-.13927-.12825-.0183-.0156-.0452-.0111-.0606.00054-.27265.2593-.51806.55501-.87276.79955-.11964.0835-.31031.15085-.39594.0349-.0334-.045-.0296-.10721.003-.18889.10341-.2579 1.74079-2.7508 1.82579-2.89783"/><path fill="#fff" d="M10.17579 3.42267c.007.037.0214.0442.0382.0411.0834-.0167.17467-.0853.22871-.16482.0492-.0721.0723-.17615.0234-.21784-.0436-.0375-.11459-.0269-.16722.0196-.10481.0926-.13664.22398-.12313.32203M6.00254 6.63166c-.61051.004-1.14836-.37303-1.21008-1.02617-.0343-.36193.068-.68449.27281-.95023.18174-.23679.48925-.43351.74955-.48157.0847-.0155.19851-.006.24556.0504.0738.0859.0526.18026-.0212.21791-.19859.10139-.43755.27498-.55579.512-.0959.19346-.11528.4266.0312.64871.24517.37016.92858.38033 1.56401-.21.15737-.14448.2982-.28329.44135-.44772.27987-.32.37296-.43661.74498-.95264.004-.006.006-.0138.004-.0176-.003-.007-.008-.008-.0191-.009-.24835.007-.46488.0809-.67534.23818-.0606.0442-.14782.038-.18601-.0202-.0425-.0658-.012-.15146.0579-.19983.33856-.23546.70841-.27816 1.0861-.3419-.00031 0 .0262.001.0478-.0274.15504-.19898.27211-.37847.43739-.5797.16653-.20417.38165-.39166.546-.53249.22941-.19726.37653-.26364.52605-.345.0394-.0206-.005-.0452-.017-.0452-.8348-.1569-1.70251-.35992-2.53157-.053-.57418.21427-.82579.66959-.70476.97384.0861.21582.36993.25091.63567.12087.22071-.10814.42497-.28243.56976-.50679.081-.1246.25168-.0347.15946.18166-.24261.57022-.70608 1.02252-1.27064 1.04162-.48047.0156-.79047-.33787-.78946-.77394.002-.8601.95948-1.42667 1.96577-1.51137 1.21186-.10015 2.35968.22265 3.56293.3686.9219.11164 1.80576.11397 2.7324-.0989.10954-.0238.1864.0461.17926.15674-.009.15993-.13291.31395-.43809.4804-.3471.19036-.7102.24812-1.08944.25122-.91701.008-1.77121-.34981-2.65515-.54188.001.0387.0112.0848-.0212.10923-.48963.36115-.93222.72789-1.22863 1.243-.01.0119-.005.0232.0127.022.25736-.0137.48879-.0203.72906-.0395.042-.004.0436-.014.0399-.0446-.0213-.17755.0306-.38002.18678-.51929.15985-.14332.35999-.15962.49267-.0564.15084.11754.13749.32894.055.48747-.084.16085-.22273.24687-.35587.28864 0 0-.028.006-.0238.0314.005.0406.18664.14114.20216.16792.015.0255.007.065-.0203.0953-.0192.022-.0493.0426-.0878.0419-.0311-.00062-.05-.0114-.0898-.0329-.0814-.0441-.18313-.1166-.25099-.20208-.0231-.0289-.0349-.0295-.0926-.0263-.26.015-.6654.0542-.94007.0885-.0666.008-.0764.0207-.0901.0438-.43793.72215-.90552 1.5009-1.41891 2.02229-.55066.55904-1.00839.70623-1.4943.71004"/><path fill="#fff" d="M11.31126.81788C5.60245.81788.97501 2.3954.97501 4.32577c0 1.93052 4.62744 3.50819 10.33625 3.50819 5.70873 0 10.33586-1.57767 10.33586-3.50819 0-1.93037-4.62713-3.50789-10.33586-3.50789m0 7.33399c-5.91663 0-10.71293-1.71299-10.71293-3.8261 0-2.11343 4.7963-3.82611 10.71293-3.82611 5.91609 0 10.71208 1.71268 10.71208 3.82611 0 2.11311-4.79599 3.8261-10.71208 3.8261"/></svg>