<svg xmlns="http://www.w3.org/2000/svg" role="img" viewBox="-4.19 -4.19 217.62 74.62"><title>Genesys logo</title><style>svg {enable-background:new 0 0 209.5 66.1}</style><style>.st0{fill:#4e5054}</style><path d="M38.6 56.2v1.1c.7-.8 1.7-1.3 2.9-1.3 1.4 0 2.3.5 2.8 1.6.3-.5.7-.8 1.3-1.1.5-.3 1.1-.4 1.8-.4 2.1 0 3.2 1.1 3.2 3.4V66h-1.7v-6.4c0-.7-.2-1.2-.5-1.6-.3-.3-.8-.5-1.6-.5-.6 0-1.1.2-1.5.6-.4.4-.6.9-.7 1.5V66H43v-6.4c0-1.4-.7-2.1-2.1-2.1-1.1 0-1.8.5-2.2 1.4V66H37v-9.7h1.6zm14 4.8c0-1 .2-1.8.6-2.6.4-.8.9-1.3 1.6-1.8.7-.4 1.4-.6 2.3-.6 1.3 0 2.4.5 3.2 1.4.8.9 1.2 2.1 1.2 3.7v.1c0 .9-.2 1.8-.5 2.5-.4.8-.9 1.3-1.6 1.8-.7.4-1.4.6-2.3.6-1.3 0-2.4-.5-3.2-1.4-.8-.9-1.2-2.1-1.2-3.6V61zm1.7.2c0 1.1.2 1.9.7 2.6.5.7 1.2 1 2 1s1.5-.3 2-1 .7-1.6.7-2.8c0-1.1-.3-1.9-.8-2.6-.5-.7-1.2-1-2-1s-1.5.3-2 1c-.4.6-.6 1.6-.6 2.8zm10.7-5v1.1c.7-.8 1.7-1.3 2.9-1.3 1.4 0 2.3.5 2.8 1.6.3-.5.7-.8 1.3-1.1.5-.3 1.1-.4 1.8-.4 2.1 0 3.2 1.1 3.2 3.4V66h-1.7v-6.4c0-.7-.2-1.2-.5-1.6-.3-.3-.8-.5-1.6-.5-.6 0-1.1.2-1.5.6-.4.4-.6.9-.7 1.5V66h-1.7v-6.4c0-1.4-.7-2.1-2.1-2.1-1.1 0-1.8.5-2.2 1.4V66h-1.7v-9.7H65zm18.6 9.9c-1.3 0-2.4-.4-3.2-1.3-.8-.9-1.2-2-1.2-3.5V61c0-1 .2-1.8.6-2.6.4-.8.9-1.3 1.5-1.8.7-.4 1.4-.6 2.1-.6 1.3 0 2.2.4 2.9 1.2.7.8 1.1 2 1.1 3.6v.7h-6.6c0 1 .3 1.7.8 2.3.5.6 1.2.9 2 .9.6 0 1.1-.1 1.5-.4.4-.2.8-.6 1.1-1l1 .8c-.8 1.4-2 2-3.6 2zm-.2-8.7c-.7 0-1.2.2-1.7.7-.5.5-.7 1.2-.8 2.1h4.9v-.1c0-.8-.3-1.5-.7-2-.5-.5-1.1-.7-1.7-.7zm7.5-1.2l.1 1.2c.7-.9 1.7-1.4 2.9-1.4 2.1 0 3.1 1.2 3.1 3.5v6.4h-1.7v-6.4c0-.7-.2-1.2-.5-1.6-.3-.3-.8-.5-1.5-.5-.5 0-1 .1-1.4.4-.4.3-.7.7-1 1.1v6.9h-1.7v-9.7h1.7zm10.9-2.3v2.4h1.8v1.3h-1.8v6c0 .4.1.7.2.9.2.2.4.3.8.3.2 0 .5 0 .8-.1V66c-.4.1-.9.2-1.3.2-.7 0-1.3-.2-1.7-.7-.4-.4-.6-1.1-.6-1.9v-6h-1.8v-1.3h1.8v-2.4h1.8zm9.2 9.5c0-.4-.2-.8-.5-1-.3-.2-.9-.5-1.8-.6-.8-.2-1.5-.4-2-.6-.5-.3-.9-.6-1.1-.9-.2-.3-.4-.8-.4-1.2 0-.8.3-1.5 1-2 .7-.6 1.5-.8 2.6-.8s2 .3 2.7.9c.7.6 1 1.3 1 2.2h-1.7c0-.5-.2-.8-.6-1.2-.4-.3-.9-.5-1.5-.5s-1.1.1-1.4.4c-.3.3-.5.6-.5 1s.2.7.5.9c.3.2.9.4 1.7.6.8.2 1.5.4 2 .7.5.3.9.6 1.1.9.2.4.4.8.4 1.3 0 .9-.3 1.6-1 2.1s-1.6.8-2.7.8c-.8 0-1.5-.1-2.1-.4-.6-.3-1.1-.7-1.4-1.2-.3-.5-.5-1-.5-1.6h1.7c0 .6.3 1 .7 1.3.4.3 1 .5 1.6.5.6 0 1.1-.1 1.5-.4.5-.5.7-.8.7-1.2zm12.7 1.4c.6 0 1.1-.2 1.6-.5.4-.4.7-.8.7-1.3h1.6c0 .6-.2 1.1-.6 1.6-.4.5-.8.9-1.4 1.2-.6.3-1.2.4-1.9.4-1.3 0-2.4-.4-3.2-1.3-.8-.9-1.2-2.1-1.2-3.6V61c0-.9.2-1.8.5-2.5s.8-1.3 1.5-1.7c.6-.4 1.4-.6 2.3-.6 1.1 0 2 .3 2.7 1 .7.7 1.1 1.5 1.2 2.5h-1.6c0-.6-.3-1.1-.7-1.5-.4-.4-1-.6-1.6-.6-.8 0-1.5.3-2 .9-.5.6-.7 1.5-.7 2.6v.3c0 1.1.2 2 .7 2.6.5.5 1.2.8 2.1.8zM129 61c0-1 .2-1.8.6-2.6.4-.8.9-1.3 1.6-1.8.7-.4 1.4-.6 2.3-.6 1.3 0 2.4.5 3.2 1.4.8.9 1.2 2.1 1.2 3.7v.1c0 .9-.2 1.8-.5 2.5-.4.8-.9 1.3-1.6 1.8-.7.4-1.4.6-2.3.6-1.3 0-2.4-.5-3.2-1.4-.8-.9-1.2-2.1-1.2-3.6V61zm1.7.2c0 1.1.3 1.9.7 2.6.5.7 1.2 1 2 1s1.5-.3 2-1 .7-1.6.7-2.8c0-1.1-.3-1.9-.8-2.6-.5-.7-1.2-1-2-1s-1.5.3-2 1c-.4.6-.6 1.6-.6 2.8zm10.7-5l.1 1.2c.7-.9 1.7-1.4 2.9-1.4 2.1 0 3.1 1.2 3.1 3.5v6.4h-1.7v-6.4c0-.7-.2-1.2-.5-1.6-.3-.3-.8-.5-1.5-.5-.5 0-1 .1-1.4.4-.4.3-.7.7-1 1.1v6.9h-1.7v-9.7h1.7zm10.1 0l.1 1.2c.7-.9 1.7-1.4 2.9-1.4 2.1 0 3.1 1.2 3.1 3.5v6.4h-1.7v-6.4c0-.7-.2-1.2-.5-1.6-.3-.3-.8-.5-1.5-.5-.5 0-1 .1-1.4.4-.4.3-.7.7-1 1.1v6.9H150v-9.7h1.5zm12.5 9.9c-1.3 0-2.4-.4-3.2-1.3-.8-.9-1.2-2-1.2-3.5V61c0-1 .2-1.8.6-2.6.4-.8.9-1.3 1.5-1.8.7-.4 1.4-.6 2.1-.6 1.3 0 2.2.4 2.9 1.2.7.8 1 2 1 3.6v.7h-6.6c0 1 .3 1.7.8 2.3.5.6 1.2.9 2 .9.6 0 1.1-.1 1.5-.4.4-.2.8-.6 1.1-1l1 .8c-.6 1.4-1.9 2-3.5 2zm-.2-8.7c-.7 0-1.2.2-1.7.7-.5.5-.7 1.2-.8 2.1h4.9v-.1c0-.8-.3-1.5-.7-2-.4-.5-1-.7-1.7-.7zm10.1 7.4c.6 0 1.1-.2 1.6-.5.4-.4.7-.8.7-1.3h1.6c0 .6-.2 1.1-.6 1.6-.4.5-.8.9-1.4 1.2-.6.3-1.2.4-1.9.4-1.3 0-2.4-.4-3.2-1.3-.8-.9-1.2-2.1-1.2-3.6V61c0-.9.2-1.8.5-2.5s.8-1.3 1.5-1.7c.6-.4 1.4-.6 2.3-.6 1.1 0 2 .3 2.7 1 .7.7 1.1 1.5 1.2 2.5h-1.6c0-.6-.3-1.1-.7-1.5-.4-.4-1-.6-1.6-.6-.8 0-1.5.3-2 .9-.5.6-.7 1.5-.7 2.6v.3c0 1.1.2 2 .7 2.6.6.5 1.2.8 2.1.8zm8.1-10.9v2.4h1.8v1.3H182v6c0 .4.1.7.2.9.2.2.4.3.8.3.2 0 .5 0 .8-.1V66c-.4.1-.9.2-1.3.2-.7 0-1.3-.2-1.7-.7-.4-.4-.6-1.1-.6-1.9v-6h-1.8v-1.3h1.8v-2.4h1.8zm7.4 12.2c-1.3 0-2.4-.4-3.2-1.3-.8-.9-1.2-2-1.2-3.5V61c0-1 .2-1.8.6-2.6.4-.8.9-1.3 1.5-1.8s1.4-.6 2.1-.6c1.3 0 2.2.4 2.9 1.2.7.8 1 2 1 3.6v.7h-6.6c0 1 .3 1.7.8 2.3.5.6 1.2.9 2 .9.6 0 1.1-.1 1.5-.4.4-.2.8-.6 1.1-1l1 .8c-.7 1.4-1.9 2-3.5 2zm-.2-8.7c-.7 0-1.2.2-1.7.7-.5.5-.7 1.2-.8 2.1h4.9v-.1c0-.8-.3-1.5-.7-2-.5-.5-1.1-.7-1.7-.7zm5.5 3.6c0-1.5.4-2.7 1.1-3.6.7-.9 1.6-1.4 2.8-1.4 1.1 0 2 .4 2.7 1.2v-5.1h1.7v13.8h-1.5l-.1-1c-.7.8-1.6 1.2-2.8 1.2-1.1 0-2-.5-2.8-1.4-.7-.9-1.1-2.1-1.1-3.6V61zm1.7.2c0 1.1.2 2 .7 2.6.5.6 1.1.9 1.9.9 1.1 0 1.8-.5 2.3-1.4v-4.5c-.5-.9-1.3-1.4-2.3-1.4-.8 0-1.4.3-1.9.9-.5.7-.7 1.7-.7 2.9z" class="st0"/><path fill="#ff4f1f" d="M18.3 13.3c2.4 0 4.4 2 4.4 4.4s-2 4.4-4.4 4.4H7.2c-2.4 0-4.4-2-4.4-4.4s2-4.4 4.4-4.4h11.1m0-2.8H7.2c-4 0-7.2 3.2-7.2 7.2s3.2 7.2 7.2 7.2h11.1c4 0 7.2-3.2 7.2-7.2.1-4-3.2-7.2-7.2-7.2zm0 19.7c2.4 0 4.4 2 4.4 4.4s-2 4.4-4.4 4.4h-4.7c-2.4 0-4.4-2-4.4-4.4s2-4.4 4.4-4.4h4.7m0-2.8h-4.7c-4 0-7.2 3.2-7.2 7.2s3.2 7.2 7.2 7.2h4.7c4 0 7.2-3.2 7.2-7.2.1-4-3.2-7.2-7.2-7.2zm2.9-24.9c1 0 1.9.8 1.9 1.9 0 1-.8 1.9-1.9 1.9h-.1c-1 0-1.7-.8-1.8-1.8 0-.5.2-1 .5-1.4.4-.4.9-.6 1.4-.6m0-2.5c-2.5 0-4.4 2.1-4.3 4.5.1 2.2 1.9 4 4.1 4.1h.2c2.4 0 4.3-1.9 4.3-4.3S23.6 0 21.2 0z"/><path d="M64.2 41.8V10.5h17.6v3.1H67.3v10.8h13v3.1h-13v11.2h14.5v3.1zm51.9 0V10.5h17.6v3.1h-14.5v10.8h13.1v3.1h-13.1v11.2h14.5v3.1zm52.8 0v-13l-10.6-18.3h3.5l8.7 15 8.6-15h3.5L172 28.8v13zm-59.2 0V10.5h-3.1v25.6L91 10.5h-3.1v31.3H91V16.2l15.6 25.6zM47.6 28.3h7.5v2.5c0 6.1-3.9 8.3-7.5 8.3s-7.5-2.2-7.5-8.3v-9.4c0-6.1 3.9-8.3 7.5-8.3 4 0 6.7 2.4 7.4 6.4h3.1c-.7-5.8-4.8-9.5-10.5-9.5C41.2 10 37 14.6 37 21.4v9.4c0 6.8 4.3 11.4 10.6 11.4 6.4 0 10.6-4.6 10.6-11.4v-5.6H47.6v3.1zm93.1 4c.3 4.2 3.1 6.8 7 6.8 4 0 6.1-1.9 6.1-5.5 0-2.6-1.6-4.5-4.3-5.2l-5.3-1.4c-3.9-1-6.2-4.2-6.2-8.4 0-5.1 3.6-8.5 9-8.5 6.2 0 8.9 4.3 9.5 8.6h-3.1c-.7-3.6-3-5.5-6.3-5.5-3.6 0-5.9 2.1-5.9 5.4 0 2.7 1.5 4.7 4.1 5.4l5.5 1.5c3 .8 6.3 3.4 6.3 8.3 0 5.3-3.6 8.6-9.3 8.6-7.1 0-10-5.4-10.1-9.9l3-.2zm46.4 0c.3 4.2 3.1 6.8 7 6.8 4 0 6.1-1.9 6.1-5.5 0-2.6-1.6-4.5-4.3-5.2l-5.3-1.4c-3.9-1-6.2-4.2-6.2-8.4 0-5.1 3.6-8.5 9-8.5 6.2 0 8.9 4.3 9.5 8.6h-3.1c-.7-3.6-3-5.5-6.3-5.5-3.6 0-5.9 2.1-5.9 5.4 0 2.7 1.5 4.7 4.1 5.4l5.5 1.5c3 .8 6.3 3.4 6.3 8.3 0 5.3-3.6 8.6-9.3 8.6-7.1 0-10-5.4-10.1-9.9l3-.2zm17.3-21.4h-1v-.4h2.5v.4h-1v2.8h-.5v-2.8zm3.3 2.7l-.9-2.7v2.7h-.5v-3.2h.8l.8 2.6.8-2.6h.8v3.2h-.5v-2.7l-.9 2.7h-.4z" class="st0"/></svg>