<svg xmlns="http://www.w3.org/2000/svg" role="img" viewBox="-16.43 -15.93 828.36 332.36"><title>Ghost Locomotion Inc. logo</title><path d="M97.5 1.1c-24.4 2.3-48.2 13.7-66 31.4-15.7 15.8-25.9 35-30 56.8C.2 96 0 112.1 0 196.5v99.3l3.1 2.6c4.1 3.5 8 3.4 12.1-.3l3.3-2.9.5-101.4.5-101.3 3.3-9.5C27.8 68.1 34 58 45 46.9c19.3-19.5 40.1-27.7 67.4-26.6 15.1.6 21.6 2.2 34.1 8.2 19.8 9.4 34.2 23.9 43.4 43.7 8.9 18.9 9.3 23.9 8.9 124.1l-.3 80.9-2.8 2.4c-3.5 3-4.9 3-8.4 0l-2.8-2.4-.5-91.9c-.6-102.2-.1-94.4-7.6-109.7C169 60.7 157.9 49.5 143 42c-10.7-5.4-17.3-7.1-30.6-7.7-15.2-.7-24.2 1.1-36.9 7.2-19.4 9.4-32.4 24.5-39.7 46l-2.3 7-.3 92c-.2 68.3 0 93.1.9 96.3 1.4 5.1 7.7 12.6 12.9 15.2 12.3 6.3 28.6 1.1 35.3-11.4l2.2-4.1.5-89.5c.6-98.8.1-93 7-99.8 9.3-9.3 23.2-9.6 32.5-.5 7.9 7.7 7.5 1.3 7.5 97.6 0 58.6-.3 86.5-1.1 87.8-2.5 4.8-10.9 3.9-12.3-1.3-.3-1.3-.6-40.2-.6-86.6v-84.4l-2.9-2.9c-4.1-4-9.1-4-13.2 0l-2.9 3 .2 88.3.3 88.3 2.2 4.1c8.6 16 30.5 18.9 42.5 5.6 7.3-8 6.9-2.3 6.6-103.3l-.3-90.5-3.7-7.5c-4.6-9.3-11.2-15.8-20.6-20.2-6.3-3-7.4-3.2-17.8-3.2-10.7 0-11.2.1-18.6 3.8-9.1 4.5-15.7 11.2-20.2 20.7l-3.1 6.5-.5 90c-.3 49.5-.7 90.1-.8 90.2-.1.1-1.5.9-3.1 1.8-3.5 1.8-7.4.7-9-2.4-1.5-2.8-1.5-173 0-180.3C56.3 82.1 69.3 65.7 84 58.7c8.8-4.1 15.6-5.7 24.8-5.7 24.4.1 46.4 16.5 54.3 40.5 1.1 3.1 1.5 23.7 1.9 96l.5 92 3.1 5.5c5.2 9.2 15.7 14.8 25.6 13.7 8.7-1.1 16-6 20.3-13.8l3-5.4.3-86.5c.3-89.2 0-98.7-3.7-113.2-9.5-37.1-40.5-68-77.8-77.8-6.5-1.7-26.6-4.3-29.8-3.9-.5.1-4.6.5-9 1zm253 99.2c-15.4 4-26.5 15.6-31.3 33-2.5 9.1-2.5 59 .1 69 3.6 14.4 10.6 23.6 22.5 29.4 7.6 3.8 7.6 3.8 20.2 3.8s12.6 0 20.2-3.8c9.3-4.6 16.6-12.1 19.9-20.5 2.1-5.2 2.3-7.7 2.7-27 .3-15.7.1-21.7-.8-22.7-1.6-2-37.9-2.2-39.8-.3-1.7 1.7-1.6 15.2.1 16.6.7.6 5.8 1.3 11.3 1.4l9.9.3v11.7c0 11.3-.1 11.7-3 16-1.7 2.3-5.1 5.4-7.5 6.8-3.8 2.1-5.8 2.5-13 2.5-9.4 0-12.5-1.1-17.8-6.6-6.7-6.8-8.1-14.5-8.1-42.4 0-20 1-30.9 3.5-35.7 5.5-11 17.5-16 29.8-12.4 9.7 2.8 16.6 11.7 16.6 21.3 0 4.4 1.6 5.3 9.6 5.3 9.2 0 9.9-.8 9.1-9.8-.8-8.8-2.9-14.6-7.5-20.6-4.6-6.2-11.4-11.1-18.9-13.8-7.2-2.5-20.8-3.3-27.8-1.5zm203.5.3c-14.5 3.9-24.6 14.3-29.4 30.4-2.7 9-3.9 33.3-2.7 52.3 1.6 24 4.8 32.6 15.6 42.5 8.4 7.7 14.3 9.7 29 9.6 10.8 0 12.6-.2 17.7-2.6 6.6-3.1 14.9-10.4 18.4-16.3 5-8.6 6.4-15 7.5-33.6 1.8-31.2-.7-52.7-7.4-64.2-9-15.4-29.9-23.1-48.7-18.1zm19.6 18.9c6.3 1.9 11.6 6.3 14.3 12 5.2 11.2 5.6 58.8.5 71.5-2 5-9 11.3-14.2 12.8-12.4 3.7-24.9-1.5-29.9-12.4-2-4.5-2.5-7.7-3.3-20.6-.4-8.5-.4-22.1.1-30.6.7-12.9 1.2-16.2 3.2-20.6 2.7-5.9 7-9.6 13.7-12 5.7-1.9 9.4-2 15.6-.1zm81.4-19c-10.6 3-19.9 10.3-24.3 19-6.8 13.6-3.2 32.4 8.1 42.6 5.9 5.3 11.5 7.8 26.1 11.4 11.7 2.9 19 6.2 21.9 10 3 3.8 4.5 9.1 4 13.9-1.4 12-10.5 19.5-23.8 19.5-13.9 0-23.9-8.8-24-20.9 0-2.6-.5-5.1-1.2-5.8-.7-.7-4.1-1.2-8.4-1.2-9.2 0-9.8.7-9.2 10.5.9 14.2 9.6 26.2 23.5 32.7 8.5 4 22.5 5 31.9 2.3 18.3-5.3 29-18.1 30.2-36 1.4-22.6-10.9-36.3-38.7-43-11.8-2.9-16.4-5-20.5-9.4-7-7.3-4.2-20.6 5.5-25.6 1.4-.8 4.8-1.7 7.5-2 12-1.6 23.4 5.9 23.4 15.4 0 1.6.4 4.1 1 5.5.9 2.5 1.3 2.6 8.9 2.6 10 0 10.7-.8 9.2-11-1.7-12.6-9.2-22.3-21.6-28.1-8-3.8-20.8-4.8-29.5-2.4zm-230.3 1.2c-.4.3-.7 29.9-.7 65.8 0 49.3.3 65.4 1.2 66.3 1.8 1.8 14.3 1.6 16.2-.4 1.4-1.3 1.6-5.4 1.6-29.5V176h44v27.3c0 32.8-.4 31.7 10 31.7 6 0 7.1-.3 8.4-2.2 1.4-2 1.6-9.8 1.6-65.1 0-41.4-.4-63.5-1-64.8-.9-1.6-2.2-1.9-9-1.9s-8.1.3-9 1.9c-.6 1.2-1 12-1 28.1v26l-21.7-.2-21.8-.3-.3-26.4c-.1-17.5-.6-26.9-1.3-27.8-1.2-1.4-15.9-1.9-17.2-.6zm290.9.9c-.3.9-.6 4.7-.6 8.4 0 5.8.3 7.1 1.9 8 1.1.5 8.1 1 15.5 1H746v56.3c0 42.5.3 56.6 1.2 57.5 1.6 1.6 15 1.6 16.6 0 .9-.9 1.2-15 1.2-57.5V120h13.3c16.7 0 17.7-.5 17.7-9.1 0-10.8 3.6-9.9-40.9-9.9-34.5 0-39 .2-39.5 1.6z"/></svg>