<svg xmlns="http://www.w3.org/2000/svg" role="img" viewBox="-5.40 74.60 410.54 95.54"><title>Global Peersafe Technology Corp logo</title><style>svg {enable-background:new 0 0 400 245}</style><style>.st48{fill:#1d7db9}</style><path d="M183.67 120.68c4.88 0 7.54.45 10.26 2.44 2.44 1.77 4.16 5.49 4.16 9.21 0 3.71-1.72 7.43-4.16 9.2-2.72 1.99-5.49 2.44-10.26 2.44h-7.88v17.74h-1.66v-41.04h9.54zm-7.87 21.79h7.93c4.6 0 6.99-.55 9.32-2.28 1.99-1.44 3.37-4.71 3.37-7.81 0-3.22-1.38-6.49-3.37-7.93-2.33-1.72-4.66-2.28-9.32-2.28h-7.93v20.3zm26.29 4.72c.11 9.59 8.15 13.87 13.91 13.81 5.44 0 10.21-2.77 12.54-7.76h1.72c-1.32 3.11-3.44 5.44-5.93 6.99-2.49 1.49-5.38 2.22-8.38 2.22-11.08 0-15.47-8.81-15.47-15.36 0-8.82 6.77-15.47 15.52-15.47 3.94 0 7.71 1.38 10.54 3.93 3.21 2.89 5.1 7.32 4.82 11.65h-29.27zm27.72-1.44c-.34-7.1-6.93-12.98-13.81-12.7-7.26 0-13.41 5.26-13.86 12.7h27.67zm6.61 1.44c.11 9.59 8.15 13.87 13.91 13.81 5.44 0 10.21-2.77 12.54-7.76h1.71c-1.32 3.11-3.44 5.44-5.93 6.99-2.5 1.49-5.38 2.22-8.37 2.22-11.1 0-15.48-8.81-15.48-15.36 0-8.82 6.76-15.47 15.52-15.47 3.95 0 7.72 1.38 10.55 3.93 3.21 2.89 5.1 7.32 4.82 11.65h-29.27zm27.72-1.44c-.34-7.1-6.92-12.98-13.81-12.7-7.27 0-13.41 5.26-13.86 12.7h27.67zm7.6-13.42h1.55v5.6c2.78-5.82 7.82-6.16 10.38-6.32v1.5h-.45c-6.27 0-9.93 4.54-9.93 12.53v16.08h-1.55v-29.39zm16.58 19.01c1.01 7.88 7 9.6 10.15 9.6 5.15 0 10.31-3.88 10.31-9.76 0-7.54-6.54-9.1-10.47-10.15-3.61-.88-10.77-2.61-10.77-10.37-.16-6.82 5.22-10.7 11.15-10.7 4.83 0 9.7 2.83 10.6 9.54h-1.67c-.61-3.28-2.44-8.05-9.04-8.05-5.22 0-9.38 3.55-9.38 8.93-.06 6.54 5.38 8.15 11.03 9.59 2 .56 10.21 2.06 10.21 10.98 0 6.77-5.83 11.48-11.92 11.48-4.93 0-11.31-3.33-11.87-11.09h1.67zm57.62 10.37h-1.55v-7.59c-2.66 5.27-7.54 8.32-13.74 8.32-9.66 0-15.47-7.48-15.47-15.41 0-8.1 5.99-15.42 15.47-15.42 7.09 0 12.19 4.38 13.74 8.48v-7.76h1.55v29.38zm-29.23-14.63c.06 6.6 4.61 13.92 14.1 13.92 6.27 0 11.03-3.83 12.92-9.15.62-1.61.89-3.38.83-5.16 0-1.77-.32-3.55-.99-5.1-2-5.1-6.93-8.54-12.92-8.54-7.67 0-13.93 5.71-13.93 13.97v.06zm38.77-13.31h-4.82v-1.44h4.82v-2.94c0-9.37 7.66-9.37 9.21-9.43v1.5c-2.22.17-7.67.17-7.67 8.37v2.5h7.67v1.44h-7.67v27.95h-1.55v-27.95zm12.69 13.42c.13 9.59 8.16 13.87 13.93 13.81 5.43 0 10.21-2.77 12.53-7.76h1.71c-1.32 3.11-3.42 5.44-5.92 6.99-2.5 1.49-5.38 2.22-8.37 2.22-11.1 0-15.48-8.81-15.48-15.36 0-8.82 6.77-15.47 15.53-15.47 3.94 0 7.71 1.38 10.54 3.93 3.22 2.89 5.1 7.32 4.82 11.65h-29.29zm27.73-1.44c-.34-7.1-6.92-12.98-13.81-12.7-7.26 0-13.42 5.26-13.86 12.7h27.67z" class="st48"/><path d="M4.75 160.39H2.51c0-21.65 17.61-39.26 39.26-39.26 13.07 0 25.23 6.47 32.56 17.31l-1.85 1.25c-6.91-10.22-18.39-16.32-30.71-16.32-20.41 0-37.02 16.6-37.02 37.02z" class="st48"/><path d="M61.62 102.4c0 10.96-8.89 19.84-19.84 19.84-10.96 0-19.84-8.88-19.84-19.84 0-10.96 8.88-19.84 19.84-19.84 10.95 0 19.84 8.88 19.84 19.84z" class="st48"/><path d="M111.95 145.44c-5.52-9-15.12-14.37-25.67-14.37-5.6 0-11.07 1.55-15.82 4.49l-1.17-1.91c5.09-3.15 10.96-4.81 16.99-4.81 11.33 0 21.64 5.77 27.58 15.44l-1.91 1.16z" class="st48"/><path d="M102.52 113.72c0-8.97-7.27-16.23-16.24-16.23-8.96 0-16.23 7.27-16.23 16.23 0 8.97 7.27 16.23 16.23 16.23 8.97 0 16.24-7.27 16.24-16.23z" class="st48"/><path d="M145.83 161.16h-2.24c0-11.67-9.49-21.17-21.17-21.17-4.02 0-7.93 1.13-11.31 3.28l-1.2-1.89c3.74-2.37 8.07-3.62 12.51-3.62 12.91-.01 23.41 10.5 23.41 23.4z" class="st48"/><path d="M122.42 115.68c-6.4 0-11.59 5.19-11.59 11.6 0 6.4 5.19 11.59 11.59 11.59 6.41 0 11.59-5.19 11.59-11.59 0-6.41-5.19-11.6-11.59-11.6z" class="st48"/><g><path d="M181.5 95.39h2.06c-.1.73-.19 1.73-.27 3.01-.2.82-.29 1.42-.29 1.78 1.46 1.46 3.51 3.6 6.16 6.42-.09-.08.04.05.41.41l-1.5 1.37c-1.92-2.18-2.14-2.46-.69-.82-1.46-1.64-3.05-3.42-4.8-5.32-.9 5.28-3.82 9.66-8.74 13.12-.28-.45-.74-.96-1.37-1.5 6.12-3.93 9.13-10.08 9.03-18.47zm22.84 1.1c-7.11-2.92-12.16-6.43-15.17-10.53-3.56 4.46-8.66 8.25-15.31 11.35-.19-.46-.5-1-.96-1.64-.09-.09-.18-.18-.27-.28 7.65-3.28 13.13-7.47 16.4-12.58l2.05.41c-.27.55-.59 1-.96 1.37 3.56 4.19 8.7 7.57 15.45 10.12-.35.46-.77 1.05-1.23 1.78zm-10.25-1.1h1.92c-.1.82-.14 1.55-.14 2.19.64 7.02 3.87 12.39 9.7 16.13-.64.64-1.1 1.18-1.37 1.64-5.29-3.83-8.3-8.15-9.03-12.98-.81 5.29-3.96 9.8-9.43 13.53-.46-.55-.96-1.1-1.51-1.64 6.85-3.92 10.14-10.2 9.86-18.87zm29.27 9.84l8.33-2.59H210.5V101h25.16v1.77l-10.38 3.69v.82h15.17v1.64h-15.17v2.87c.08 2.55-1.24 3.83-3.97 3.83h-4.38c-.08-.73-.23-1.37-.41-1.91.91.09 2.32.14 4.23.14 1.93.09 2.79-.59 2.61-2.05v-2.87h-15.87v-1.64h15.87v-2.06zm-15.45-18.04h15.72c-.37-1.27-.83-2.51-1.37-3.69l1.92-.54c.09.36.28.95.55 1.77.36 1.1.64 1.92.82 2.46h14.63v1.64h-32.26v-1.64zm4.64 4.37h22.7v6.43h-22.7v-6.43zm1.78 1.65v3.15h19.14v-3.15h-19.14zm32.54-9.16V94.3h9.7v1.92h-9.7v15.59c2.65-1.28 2.91-1.41.82-.41 2.09-1 4.96-2.32 8.61-3.97v2.19c-4.01 1.55-6.87 2.78-8.61 3.69-.82.36-1.55.82-2.18 1.37l-1.51-1.77c.64-.73.97-1.51.97-2.32V84.05h1.9zm12.71-.96h1.9V98c4.57-3 8.4-6.43 11.49-10.25l1.65 1.23c-4.01 4.47-8.39 8.25-13.14 11.35v9.98c0 1.82 1.06 2.69 3.16 2.6h4.78c2 .09 3.19-.73 3.55-2.46 0-.28.06-.73.14-1.37.08-.37.22-1.51.41-3.42.28.09.69.19 1.23.27.28.18.5.28.69.28-.09 1.91-.36 3.64-.82 5.19-.54 2.18-2.1 3.33-4.64 3.42h-5.89c-3.1.09-4.61-1.27-4.51-4.1V83.09zm24.07.13h1.77v8.07h4.12v1.64h-4.12v7.8c.45-.18 1.09-.41 1.92-.68.91-.37 1.55-.59 1.92-.69.18.64.31 1.23.41 1.78-.36.09-.96.27-1.78.55-1.09.36-1.91.64-2.46.82v13.26h-1.77v-12.58c-1.91.64-3.87 1.37-5.88 2.19l-.41-1.91c.55-.18 1.36-.46 2.46-.82 1.64-.55 2.91-1 3.82-1.37v-8.34h-3.56c-.46 1.83-.95 3.56-1.5 5.2-.46-.28-.96-.55-1.51-.82 1.19-3.28 1.96-6.88 2.32-10.8l1.78.14c-.27 1.64-.55 3.19-.82 4.65h3.28v-8.09zm15.72-.13h1.79v4.79h7.93v1.64h-7.93v5.74h9.42v1.64h-20.51v-1.64h9.3v-5.74h-7.79v-1.64h7.79v-4.79zm4.37 15.45h1.78v3.7h5.05v1.64h-5.05v7.93c.08 2.46-1.28 3.7-4.11 3.7h-4.1c0-.46-.1-1.01-.27-1.65 0 .09-.05 0-.13-.28.9.09 2.27.14 4.1.14 1.91.09 2.83-.64 2.73-2.19v-7.65h-13.53v-1.64h13.53v-3.7zm-11.89 8.06l1.23-1.09c1.55 1.37 3.01 2.83 4.38 4.38l-1.51 1.23c-.83-1.19-2.18-2.69-4.1-4.52z" class="st48"/></g></svg>