<svg xmlns="http://www.w3.org/2000/svg" role="img" viewBox="-8.26 70.00 416.26 104.76"><title>Gremlin, Inc. logo</title><path fill="none" d="M0 0h400v245H0z" pointer-events="none"/><g data-name="Layer 2"><path fill="#222" fill-rule="evenodd" d="M42.19284 133.97237v-15.91614H88.8894v5.60497c0 24.32113-17.98035 43.2842-43.14593 43.2842C19.22974 166.9454 0 147.4243 0 122.5007 0 97.48327 19.34826 78.056 45.0373 78.056c17.52602 0 32.1829 8.4445 40.06442 22.17297l.45433.79012-16.0643 9.5655-.49382-.86421C63.8127 100.27835 55.92625 95.5919 45.15582 95.5919a26.83472 26.83472 0 0 0-26.93843 26.9088c0 15.2544 11.7334 26.9088 27.52608 26.9088 11.39266 0 19.8569-5.51608 23.18038-15.43713zm89.44742-27.98535a18.35566 18.35566 0 0 0-4.78521-.58765c-4.78521 0-12.32106 1.88643-15.42725 8.48893v-7.90128H93.8277v58.62256h18.18282v-25.5952c0-11.67908 6.57782-15.92602 13.87169-15.92602a24.89397 24.89397 0 0 1 5.74324.5926v-17.69394zm61.04727 28.30634c0-18.86924-11.3581-30.07425-29.78289-30.07425-15.43219 0-29.66437 12.0297-29.66437 30.90388 0 19.69395 14.59268 31.2545 30.97796 31.2545 15.07169 0 24.5236-8.49387 27.39275-18.63714l-15.19021-4.24694c-1.67409 4.6025-5.38275 7.64943-11.97538 7.64943-7.05683 0-13.16057-4.71608-13.51613-11.32352h41.38296a37.00268 37.00268 0 0 0 .3753-5.52596zm-41.31876-6.01485c.3605-4.36052 4.18768-9.90623 11.85192-9.90623 8.6124 0 11.72353 5.43213 11.96056 9.90623zm64.1584 36.33107v-33.71377c0-5.30867 3.4568-10.14327 9.80746-10.14327 6.57781 0 9.56549 4.36052 9.56549 9.90623v33.97057h17.94084v-33.8718c0-5.19016 3.45681-10.02475 9.93092-10.02475s9.44697 4.36052 9.44697 9.90623v33.97056h17.58529v-37.98046c0-15.92108-10.7655-22.41-22.01-22.41-8.01487 0-13.75317 2.5926-18.41987 9.20005-2.9926-5.77781-9.0914-9.19018-17.58034-9.19018-6.4593 0-14.1186 3.30372-17.10628 8.49388v-6.73585h-17.3433v58.62256zm98.5981.01976v-85.4326h-18.27172v85.4326h18.27171zm24.00507-.02963v-58.61762h-18.089v58.61762h18.089zM318.57467 88.7573a10.51364 10.51364 0 1 0 10.37043-10.51364 10.5087 10.5087 0 0 0-10.37043 10.51364zm43.7484 42.23728c0-5.92596 3.83212-10.2618 9.8124-10.2618 6.57782 0 9.684 4.36053 9.684 10.14328v33.73352h18.18283v-36.8002c0-12.83959-6.69633-23.35323-21.6495-23.35323-6.0988 0-13.39762 2.71113-16.62726 8.25684v-6.72597h-17.58035v58.62256h18.17788v-33.615z" class="cls-1" data-name="logo dark"/></g></svg>