<svg xmlns="http://www.w3.org/2000/svg" role="img" viewBox="2.14 -6.11 395.72 256.97"><title>Guangzhishu (Beijing) Technology Co., Ltd. logo</title><style>svg {enable-background:new 0 0 400 245}</style><style>.st0{fill-rule:evenodd;clip-rule:evenodd;fill:#e8903d}</style><path d="M9.8 138.6l138-136c1.3-1.3 3.3-1.2 4.6 0 1.3 1.3 1.2 3.3 0 4.6l-.1.1L9.8 138.6z" class="st0"/><path d="M9.8 138.6L190.2 3.4c1.4-1.1 3.5-.8 4.5.6 1.1 1.4.8 3.5-.6 4.5 0 0-.1 0-.1.1L9.8 138.6z" class="st0"/><path d="M9.8 138.6l227-135.3c1.5-.9 3.5-.4 4.4 1.1.9 1.5.4 3.5-1.1 4.4h-.1L9.8 138.6z" class="st0"/><path d="M9.8 138.6L259.3 23.7c1.6-.7 3.5 0 4.3 1.6.7 1.6 0 3.5-1.6 4.3h-.1L9.8 138.6z" class="st0"/><path d="M9.8 138.6l250.7-15.2c1.8-.1 3.3 1.3 3.4 3 .1 1.8-1.2 3.3-3 3.4h-.1l-251 8.8z" class="st0"/><path d="M9.8 138.6l265.7-89.9c1.7-.6 3.5.3 4.1 2 .6 1.7-.3 3.5-2 4.1h-.1L9.8 138.6z" class="st0"/><path d="M9.8 138.6l267.6-64c1.7-.4 3.5.7 3.9 2.4.4 1.7-.7 3.5-2.4 3.9h-.1l-269 57.7z" class="st0"/><path d="M9.8 138.6l262.8-39.7c1.8-.3 3.4.9 3.7 2.7.3 1.8-.9 3.4-2.7 3.7h-.1L9.8 138.6z" class="st0"/><path d="M9.8 138.6l224.6 9.2c1.8.1 3.2 1.6 3.1 3.4-.1 1.8-1.6 3.2-3.4 3.1h-.1L9.8 138.6z" class="st0"/><path d="M9.8 138.6l141.4 49c1.7.6 2.6 2.4 2 4.1-.6 1.7-2.4 2.6-4.1 2h-.1L9.8 138.6z" class="st0"/><path d="M9.8 138.6l140.3 23.8c1.8.3 2.9 2 2.6 3.7-.3 1.8-2 2.9-3.7 2.6h-.1L9.8 138.6z" class="st0"/><path d="M9.8 138.6l142.1 98.9c1.5 1 1.8 3 .8 4.5s-3 1.8-4.5.8l-.1-.1L9.8 138.6z" class="st0"/><path d="M9.8 138.6l141.8 72.5c1.6.8 2.2 2.8 1.4 4.4-.8 1.6-2.8 2.2-4.4 1.4 0-.1-46.3-26.2-138.8-78.3z" class="st0"/><path d="M363.1 211.7c.3 2.6 1.3 4.4 3 5.5s3.8 1.6 6.2 1.6c.8 0 1.8-.1 2.9-.2 1.1-.1 2.1-.4 3-.7.9-.4 1.7-.9 2.3-1.6.6-.7.9-1.6.8-2.8-.1-1.1-.5-2.1-1.3-2.8-.8-.7-1.8-1.3-3-1.8-1.2-.4-2.6-.8-4.2-1.1-1.6-.3-3.2-.7-4.8-1-1.7-.4-3.3-.8-4.8-1.3s-2.9-1.2-4.2-2.1c-1.2-.9-2.2-2-2.9-3.4-.7-1.4-1.1-3.1-1.1-5.1 0-2.2.5-4 1.6-5.5s2.4-2.7 4.1-3.6c1.6-.9 3.5-1.6 5.5-1.9 2-.4 3.9-.5 5.8-.5 2.1 0 4.1.2 6 .7 1.9.4 3.6 1.2 5.2 2.2 1.5 1 2.8 2.3 3.8 3.9s1.7 3.5 1.9 5.8h-9.3c-.4-2.1-1.4-3.6-2.9-4.3-1.5-.7-3.3-1.1-5.3-1.1-.6 0-1.4.1-2.2.2-.9.1-1.7.3-2.4.6-.8.3-1.4.7-1.9 1.3-.5.5-.8 1.3-.8 2.2 0 1.1.4 2 1.1 2.7.8.7 1.7 1.2 3 1.7 1.2.4 2.6.8 4.2 1.1 1.6.3 3.2.7 4.9 1 1.6.4 3.2.8 4.8 1.3 1.6.5 3 1.2 4.2 2.1 1.2.9 2.2 2 3 3.4.8 1.4 1.1 3 1.1 5 0 2.4-.5 4.4-1.6 6.1-1.1 1.7-2.5 3-4.3 4.1-1.7 1-3.7 1.8-5.8 2.3-2.1.5-4.3.7-6.3.7-2.6 0-4.9-.3-7.1-.9-2.2-.6-4-1.4-5.6-2.6-1.6-1.2-2.8-2.6-3.8-4.4-.9-1.7-1.4-3.8-1.4-6.2h8.6zm-36.8-27.5h6.7v-12.1h8.9v12.1h8.1v6.7h-8.1v21.6c0 .9 0 1.7.1 2.4s.3 1.3.5 1.7c.3.5.7.8 1.3 1.1.6.2 1.4.4 2.3.4h1.9c.6 0 1.3-.1 1.9-.3v6.9c-1 .1-2 .2-2.9.3-.9.1-1.9.2-2.9.2-2.3 0-4.2-.2-5.7-.7-1.4-.4-2.6-1.1-3.4-2-.8-.9-1.4-1.9-1.6-3.2-.3-1.3-.5-2.8-.5-4.5v-23.9h-6.7v-6.7zm-40.9 0h8.5v6l.2.2c1.4-2.2 3.1-4 5.3-5.3 2.2-1.3 4.6-1.9 7.3-1.9 4.4 0 7.9 1.1 10.5 3.4 2.6 2.3 3.8 5.7 3.8 10.3v27.8h-9v-25.4c-.1-3.2-.8-5.5-2-6.9-1.3-1.4-3.2-2.2-5.9-2.2-1.5 0-2.9.3-4.1.8s-2.2 1.3-3.1 2.3c-.8 1-1.5 2.1-2 3.4-.5 1.3-.7 2.7-.7 4.1v23.9h-8.9v-40.5zm-18.7 0h8.9v40.5h-8.9v-40.5zm0-15.4h8.9v8.5h-8.9v-8.5zm-28.1 50c2 0 3.7-.4 5.2-1.3 1.5-.8 2.7-1.9 3.6-3.3.9-1.4 1.6-2.9 2.1-4.6.4-1.7.7-3.4.7-5.2 0-1.7-.2-3.4-.7-5.2-.4-1.7-1.1-3.2-2.1-4.6s-2.1-2.4-3.6-3.2c-1.5-.8-3.2-1.3-5.2-1.3s-3.7.4-5.2 1.3c-1.5.8-2.7 1.9-3.6 3.2-.9 1.3-1.6 2.9-2.1 4.6-.4 1.7-.7 3.4-.7 5.2 0 1.8.2 3.5.7 5.2.4 1.7 1.1 3.2 2.1 4.6.9 1.4 2.1 2.5 3.6 3.3 1.5.8 3.3 1.3 5.2 1.3zm0 7c-3.2 0-6.1-.5-8.7-1.6-2.5-1.1-4.7-2.5-6.4-4.4-1.7-1.9-3.1-4.1-4-6.7-.9-2.6-1.4-5.5-1.4-8.6 0-3.1.5-5.9 1.4-8.5.9-2.6 2.2-4.9 4-6.7 1.7-1.9 3.9-3.4 6.4-4.4 2.5-1.1 5.4-1.6 8.7-1.6 3.2 0 6.1.5 8.7 1.6 2.5 1.1 4.7 2.5 6.4 4.4s3.1 4.1 4 6.7c.9 2.6 1.4 5.5 1.4 8.5 0 3.1-.5 6-1.4 8.6-.9 2.6-2.2 4.9-4 6.7-1.7 1.9-3.9 3.4-6.4 4.4-2.5 1.1-5.4 1.6-8.7 1.6zm-35-21.3c0-1.8-.2-3.6-.7-5.3-.5-1.7-1.2-3.2-2.1-4.6-.9-1.3-2.1-2.4-3.5-3.2s-3-1.2-4.9-1.2c-3.8 0-6.6 1.3-8.5 3.9-1.9 2.6-2.9 6.1-2.9 10.4 0 2 .2 3.9.7 5.7.5 1.7 1.2 3.2 2.2 4.5 1 1.3 2.2 2.2 3.6 3 1.4.7 3 1.1 4.8 1.1 2 0 3.8-.4 5.2-1.3 1.4-.8 2.6-1.9 3.5-3.2.9-1.3 1.6-2.8 2-4.5.4-1.8.6-3.5.6-5.3zm-31.1-20.3h8.5v5.5h.2c1.3-2.3 3-4 5.2-5.1 2.2-1 4.7-1.5 7.3-1.5 3.2 0 6 .6 8.3 1.7 2.4 1.1 4.3 2.7 5.9 4.6 1.6 2 2.7 4.2 3.5 6.9.8 2.6 1.2 5.4 1.2 8.4 0 2.7-.4 5.4-1.1 7.9-.7 2.6-1.8 4.8-3.2 6.8-1.4 2-3.2 3.5-5.4 4.7-2.2 1.2-4.8 1.8-7.8 1.8-1.3 0-2.6-.1-3.9-.4-1.3-.2-2.6-.6-3.8-1.1-1.2-.5-2.3-1.2-3.3-2s-1.9-1.8-2.5-2.9h-.2v20.2h-8.9v-55.5z" class="st0"/></svg>