<svg xmlns="http://www.w3.org/2000/svg" role="img" xmlns:xlink="http://www.w3.org/1999/xlink" viewBox="-7.99 45.01 415.74 154.74"><title>Hortonworks, Inc. ( acquired by Cloudera) logo</title><path fill="none" d="M0 0h400v245H0z" pointer-events="none"/><defs><linearGradient id="a" x1="341.85" x2="309.48" y1="30.59" y2="108.21" gradientUnits="userSpaceOnUse"><stop offset="0" stop-color="#1cce28"/><stop offset=".21" stop-color="#20c52b"/><stop offset=".56" stop-color="#2aad33"/><stop offset="1" stop-color="#3b8640"/></linearGradient><linearGradient id="b" x1="276.19" x2="248.86" y1="42.59" y2="108.96" xlink:href="#a"/><linearGradient id="c" x1="338.35" x2="305.59" y1="16.48" y2="93.91" xlink:href="#a"/><linearGradient id="d" x1="208.16" x2="182.27" y1="44.21" y2="106.3" xlink:href="#a"/><linearGradient id="e" x1="155.63" x2="133.77" y1="53.81" y2="106.9" xlink:href="#a"/><linearGradient id="f" x1="205.36" x2="179.16" y1="32.92" y2="94.87" xlink:href="#a"/><linearGradient id="g" x1="101.25" x2="80.53" y1="55.1" y2="104.78" xlink:href="#a"/><linearGradient id="h" x1="59.22" x2="41.74" y1="62.78" y2="105.26" xlink:href="#a"/><linearGradient id="i" x1="99.01" x2="78.04" y1="46.08" y2="95.63" xlink:href="#a"/></defs><path fill="url(#a)" d="M314.05 69.67c4.25 8.55-1.06 27.09-1.64 29H323c8.78-13.5 9.91-20 9.91-20-9.09-8.57-18.86-9-18.86-9z" transform="translate(0 53.014) scale(.93095)"/><path fill="url(#b)" d="M258 60.44c-.68 16.12-7.41 36.83-8 38.25h10.5c7.34-7.66 10.83-18.36 10.83-18.36C269.91 68.87 258 60.44 258 60.44z" transform="translate(0 53.014) scale(.93095)"/><path fill="url(#c)" d="M375.27 51.81c.53-26.31-14.67-38.32-14.67-38.32-11.92-5.64-17-5.8-17-5.8C331.77.67 325.26 0 321.89 0a7.56 7.56 0 00-2.48.3s-1.06 1.14-1.33 1.55c-2.33 3.08-7.54 10.66-9.16 27 2.23 7.33 15.35 17.53 15.35 17.53-11.25-3.16-18.35-16-18.35-16-1.19-10.19 1.45-19.46 1.14-20.07a.19.19 0 00-.12 0c-22.12 2.8-37.07 11.44-37.07 11.44-10.08 6.32-16.94 21.61-16.94 21.61s-3.14 5.77-4.67 16.55c-.71 5-3.17 15.14-3.17 15.14a1.61 1.61 0 001.2-.39c5-12.89 9.54-18.31 9.57-18.3C279 66 275.7 96.5 275.43 98.69H286c5-11.21 5-26.57 5-26.57 43.38-19.46 55.53 24.57 56.1 26.57h10.56c-.1-2.34-4.46-21.85-10.46-34.76-5.63-12.14.68-15.79 1.62-16 4.38-.78 9 1.19 11.79 2.9 3.22 2 4.21 5.49 5.07 10 1.78 9.32 3.09 21.41 12.13 21.41 7.13 0 10.09-6.78 10.09-8.27l-1.49-.42c-2 2-4.25 3.13-6 3-4.41-.46-5.5-7.13-5.14-24.74zm-13.55-17.76a2.54 2.54 0 112.54-2.54 2.54 2.54 0 01-2.54 2.54z" transform="translate(0 53.014) scale(.93095)"/><path fill="#231f20" d="M240.1851 109.28062c-.05586 1.25678-.25136 3.45382-.36307 4.65475 8.29476 8.45302 9.46776 21.41185 9.46776 21.41185a52.02149 52.02149 0 003.3235-7.52208c-1.34058-10.69661-12.42819-18.54452-12.42819-18.54452zm65.753-11.44138c6.23736 3.4259 10.30562 6.6656 18.18145 16.82227-5.7812-11.02245-2.08533-15.91925.33514-16.87812 0 0-10.13804 2.78354-18.5166.05585z" opacity=".15"/><path fill="#231f20" d="M296.49827 106.77636c-18.44212-10.65007-39.975-9.8029-54.64677.55857 17.50186 10.51974 14.8021 35.64608 14.56937 37.56384h9.83083c4.65475-10.43595 4.65475-24.73535 4.65475-24.73535 40.3753-18.11628 51.69565 22.86414 52.2263 24.73535-1.955-14.84866-11.44138-29.35286-26.63448-38.1224z" opacity=".1"/><path fill="#fff" d="M290.38192 79.1737c1.8619-13.78737 5.16678-20.22024 7.7362-22.49176a8.79748 8.79748 0 014.72922-1.5733c5.00852-.12103 10.53836 2.02947 16.98053 5.05506-10.9759-6.52596-17.02707-7.1497-20.16437-7.1497a7.03798 7.03798 0 00-2.30876.27929s-.9868 1.06128-1.23816 1.44297c-2.16912 2.86732-7.01937 9.92392-8.5275 25.13565 2.07601 6.82386 14.29008 16.31955 14.29008 16.31955S290.2609 84.7687 290.38192 79.1737z" opacity=".2"/><path fill="#231f20" d="M260.3681 99.97112c7.09384 3.31418 11.09692 11.43206 10.53835 20.183 0 0 2.32737-1.06129 4.55235-1.8619-.74476-8.29477-7.1404-15.55618-15.10932-18.33972z" opacity=".1"/><path fill="url(#d)" d="M185.93 75.48c3.4 6.84-.84 21.67-1.31 23.21h8.46c7-10.8 7.93-16 7.93-16a25.71 25.71 0 00-15.08-7.21z" transform="translate(0 53.014) scale(.93095)"/><path fill="url(#e)" d="M141.1 68.09c-.55 12.89-5.93 29.46-6.38 30.6h8.4C149 92.56 151.79 84 151.79 84c-1.18-9.17-10.69-15.91-10.69-15.91z" transform="translate(0 53.014) scale(.93095)"/><path fill="url(#f)" d="M234.9 61.19c.43-21.05-11.73-30.66-11.73-30.66-9.53-4.51-13.58-4.64-13.58-4.64-9.48-5.61-14.69-6.15-17.39-6.15a6 6 0 00-2 .24s-.85.91-1.07 1.24c-1.86 2.47-6 8.53-7.33 21.64 1.79 5.87 12.28 14 12.28 14C185.1 54.35 179.42 44 179.42 44c-1-8.15 1.16-15.57.91-16.05a.15.15 0 00-.1 0 86.22 86.22 0 00-29.66 9.15C142.51 42.18 137 54.42 137 54.42s-2.51 4.61-3.74 13.24c-.57 4-2.54 12.11-2.54 12.11a1.29 1.29 0 001-.31c4-10.32 7.64-14.65 7.65-14.64 18.5 7.74 15.88 32.11 15.66 33.87h8.44c4-9 4-21.25 4-21.25 34.7-15.57 44.42 19.66 44.88 21.25h8.45c-.08-1.87-3.57-17.48-8.37-27.81-4.51-9.71.54-12.63 1.3-12.76 3.5-.62 7.2.95 9.43 2.32 2.58 1.58 3.37 4.39 4.06 8 1.42 7.45 2.47 17.13 9.7 17.13a8.41 8.41 0 008.08-6.63l-1.19-.34c-1.57 1.64-3.4 2.5-4.82 2.36-3.53-.35-4.38-5.69-4.09-19.77zM224.06 47a2 2 0 112-2 2 2 0 01-2 2z" transform="translate(0 53.014) scale(.93095)"/><path fill="#231f20" d="M131.35704 116.40239c0 1.00542-.2048 2.79285-.28859 3.7238 6.63767 6.7587 7.57793 17.10155 7.57793 17.10155a41.62277 41.62277 0 002.66252-6.01394c-1.09852-8.53681-9.95185-14.81141-9.95185-14.81141zm52.58937-9.15124c4.9899 2.7463 8.24822 5.32503 14.54144 13.46153-4.65475-8.8254-1.6664-12.7354.26998-13.50808 0 0-8.10858 2.22497-14.81142.04655z" opacity=".15"/><path fill="#231f20" d="M176.3871 114.40084c-14.75556-8.51819-31.97814-7.8386-43.75465.44686 13.96425 8.37855 11.84168 28.515 11.6555 30.05107h7.8572c3.7238-8.37856 3.7238-19.7827 3.7238-19.7827 32.29466-14.49488 41.3528 18.28387 41.78104 19.7827-1.50813-11.87893-9.10469-23.47856-21.2629-30.49793z" opacity=".1"/><path fill="#fff" d="M171.4996 92.3187c1.51746-11.03175 4.13343-16.1799 6.19083-17.99525a7.03798 7.03798 0 013.77965-1.25679c4.0124-.1024 8.43441 1.62917 13.58256 4.04033-8.80678-5.21332-13.64772-5.70673-16.15198-5.70673a5.5857 5.5857 0 00-1.8619.22343s-.7913.84717-.99611 1.15438c-1.73157 2.29945-5.5857 7.941-6.82387 20.14576 1.6664 5.46467 11.43207 13.0333 11.43207 13.0333s-9.24434-9.18848-9.15124-13.63842z" opacity=".2"/><path fill="#231f20" d="M147.4811 108.95479c5.6788 2.69044 8.88126 9.14192 8.4344 16.14267 0 0 1.8619-.84717 3.64933-1.4709-.5958-6.63768-5.71603-12.4468-12.10235-14.67177z" opacity=".1"/><path fill="url(#g)" d="M83.46 80.12c2.72 5.47-.68 17.34-1.05 18.57h6.77c5.62-8.64 6.34-12.82 6.34-12.82a20.57 20.57 0 00-12.06-5.75z" transform="translate(0 53.014) scale(.93095)"/><path fill="url(#h)" d="M47.6 74.21c-.44 10.32-4.75 23.57-5.1 24.48h6.72a35 35 0 006.93-11.75c-.94-7.34-8.55-12.73-8.55-12.73z" transform="translate(0 53.014) scale(.93095)"/><path fill="url(#i)" d="M122.64 68.69c.34-16.84-9.39-24.53-9.39-24.53-7.63-3.61-10.87-3.71-10.87-3.71-7.58-4.45-11.75-4.92-13.9-4.92a4.84 4.84 0 00-1.59.19s-.68.73-.85 1c-1.49 2-4.83 6.82-5.86 17.31C81.6 58.71 90 65.24 90 65.24 82.8 63.22 78.25 55 78.25 55c-.76-6.52.93-12.45.73-12.84a.12.12 0 00-.08 0 69 69 0 00-23.72 7.32c-6.45 4-10.84 13.83-10.84 13.83a34.11 34.11 0 00-3 10.6c-.45 3.2-2 9.69-2 9.69a1 1 0 00.77-.25c3.17-8.25 6.11-11.72 6.12-11.71 14.8 6.2 12.7 25.69 12.53 27.09h6.75c3.22-7.18 3.22-17 3.22-17 27.76-12.46 35.54 15.73 35.9 17h6.76a102.29 102.29 0 00-6.69-22.25c-3.61-7.77.43-10.1 1-10.21 2.8-.5 5.76.76 7.55 1.86 2.06 1.27 2.7 3.51 3.24 6.39 1.14 6 2 13.7 7.76 13.7a6.73 6.73 0 006.46-5.3l-1-.27a5.16 5.16 0 01-3.86 1.89c-2.76-.31-3.44-4.54-3.21-15.85zM114 57.32a1.63 1.63 0 111.63-1.63 1.63 1.63 0 01-1.63 1.63z" transform="translate(0 53.014) scale(.93095)"/><path fill="#231f20" d="M44.31322 122.0998c0 .80062-.15826 2.21566-.23274 2.98835 5.30642 5.40882 6.06049 13.68496 6.06049 13.68496a33.29077 33.29077 0 002.13187-4.813c-.87509-6.84249-7.95962-11.86031-7.95962-11.86031zm42.06963-7.31727c3.99378 2.19704 6.60044 4.26375 11.63688 10.7711-3.7238-7.0566-1.34057-10.1939.21411-10.80834 0 0-6.48872 1.77812-11.85099.03724z" opacity=".15"/><path fill="#231f20" d="M80.34099 120.49857c-11.80445-6.81456-25.58251-6.2746-34.9758.35376 11.1714 6.73077 9.46777 22.80827 9.3095 24.03713h6.28392c2.99766-6.68423 2.99766-15.82615 2.99766-15.82615 25.84317-11.59033 33.08596 14.63453 33.4211 15.82615-1.23816-9.4957-7.31727-18.77727-17.03639-24.3909z" opacity=".1"/><path fill="#fff" d="M76.42169 102.82913c1.21023-8.8254 3.30487-12.9402 4.95265-14.39248a5.5857 5.5857 0 013.02559-.9775c3.21177-.08379 6.74938 1.30333 10.86418 3.2397-7.01936-4.17065-10.89211-4.6082-12.89365-4.6082a4.5058 4.5058 0 00-1.48021.17688s-.63305.6796-.79131.93095c-1.38712 1.8619-4.49649 6.34908-5.45537 16.11475 1.32195 4.35684 9.14193 10.43595 9.14193 10.43595s-7.4476-7.33589-7.36381-10.92005z" opacity=".2"/><path fill="#231f20" d="M57.21619 116.14172c4.54303 2.1505 7.10315 7.31727 6.74938 12.91228 0 0 1.48952-.6796 2.91388-1.173-.47479-5.31573-4.57097-9.95186-9.66326-11.73928z" opacity=".1"/><path d="M19.3079 191.66038V176.579H9.35605v15.0814H0V153.5566h9.35605v14.65315h9.95185V153.5566h9.35605v38.07586H19.3079zm40.9618-3.95653a13.96425 13.96425 0 01-10.64076 4.28237 13.96425 13.96425 0 01-10.64075-4.28237c-4.0124-4.0124-3.85414-9.35605-3.85414-15.0814s-.15826-11.06899 3.85414-15.08138a13.96425 13.96425 0 0110.64075-4.28237 13.96425 13.96425 0 0110.64076 4.28237c4.0124 4.0124 3.85414 9.35604 3.85414 15.08139s.15826 11.0783-3.85414 15.08139zm-6.89834-24.43744a5.05506 5.05506 0 00-7.4476 0c-.85647 1.12645-1.38711 2.40185-1.38711 9.35605s.53064 8.18305 1.38711 9.3095a4.95265 4.95265 0 007.4476 0c.85648-1.12645 1.38712-2.3553 1.38712-9.3095s-.53064-8.2296-1.38712-9.35605zm36.47462 28.39397l-6.74007-14.16906H79.9593v14.16906h-9.35605V153.5566H85.6474c8.45303 0 13.0333 5.986 13.0333 12.2513a10.95728 10.95728 0 01-6.20013 9.94255l8.23891 15.882h-10.8735zM85.2471 161.9817h-5.2878v7.69895h5.29711a3.85413 3.85413 0 10-.0093-7.69895zm36.70736-.04655v29.73454h-9.37467v-29.73454h-9.35604v-8.37855h28.04021v8.37855h-9.3095zm37.6383 25.7687a15.36998 15.36998 0 01-21.2815 0c-4.0124-4.0124-3.85414-9.35605-3.85414-15.0814s-.15826-11.06899 3.85413-15.08138a15.36998 15.36998 0 0121.28152 0c4.0124 4.0124 3.85413 9.35604 3.85413 15.08139s.15826 11.0783-3.85413 15.08139zm-6.91695-24.43744a5.05506 5.05506 0 00-7.4476 0c-.85647 1.12645-1.38712 2.40185-1.38712 9.35605s.53065 8.18305 1.38712 9.3095a4.95265 4.95265 0 007.4476 0c.85647-1.12645 1.38712-2.3553 1.38712-9.3095s-.51203-8.2296-1.38712-9.35605zm38.79269 28.39397l-12.19545-19.14964v19.14964H169.917V153.5566h8.18305l12.19545 19.14964V153.5566h9.35605v38.07586h-8.18305zm50.05718 0h-7.6431l-6.15358-18.76795-6.16289 18.76795h-7.59655l-10.46388-38.10378h9.78428l4.97128 20.10852 6.15358-20.10852h6.62836l6.15358 20.10852 4.97127-20.10852h9.78429zm37.65693-3.95653a15.36998 15.36998 0 01-21.28152 0c-4.0124-4.0124-3.85413-9.35605-3.85413-15.0814s-.15827-11.06899 3.85413-15.08138a15.36998 15.36998 0 0121.28152 0c4.01239 4.0124 3.85413 9.35604 3.85413 15.08139s.15826 11.0783-3.85413 15.08139zm-6.89834-24.43744a5.05506 5.05506 0 00-7.4476 0c-.85648 1.12645-1.38712 2.40185-1.38712 9.35605s.53064 8.18305 1.38712 9.3095a4.95265 4.95265 0 007.4476 0c.85647-1.12645 1.38711-2.3553 1.38711-9.3095s-.53064-8.2296-1.38711-9.35605zm36.47462 28.39397l-6.74008-14.16906h-3.18385v14.16906h-9.3095V153.5566h15.08139c8.45303 0 13.0333 5.986 13.0333 12.2513a10.94797 10.94797 0 01-6.20013 9.94255l8.23891 15.882h-10.92004zm-4.5989-29.67868h-5.32503v7.69895h5.2971a3.85413 3.85413 0 10.02793-7.69895zm41.4552 29.67868l-8.76954-15.61203-3.21178 3.7238v11.92547h-9.25364V153.5566h9.25364v13.48016L344.647 153.5566h11.44138l-13.0333 15.39791 13.49877 22.70587h-10.93866zm25.61044.32584c-5.82774 0-10.5849-1.0706-14.43903-5.02713l5.986-5.98601c1.97362 1.98292 5.45537 2.67182 8.49958 2.67182 3.7238 0 5.45537-1.22885 5.45537-3.4259a3.18385 3.18385 0 00-.74476-2.24358 4.23582 4.23582 0 00-2.51357-1.01474l-4.5989-.64235c-3.37003-.4841-5.93945-1.60124-7.6431-3.37004s-2.61596-4.38478-2.61596-7.6431c0-6.9542 5.24125-12.02787 13.89908-12.02787 5.45537 0 9.57017 1.2847 12.8378 4.54303l-5.8836 5.8836c-2.41116-2.41116-5.5857-2.24358-7.21486-2.24358-3.25833 0-4.5989 1.8619-4.5989 3.5283a2.50426 2.50426 0 00.74476 1.7688 4.29168 4.29168 0 002.61597 1.12645l4.5989.64236c3.4259.48409 5.8836 1.55468 7.4476 3.15592 2.02947 1.97361 2.79285 4.813 2.79285 8.37855.08378 7.69895-6.60044 11.92547-14.62523 11.92547zm23.49718-28.18917a5.25056 5.25056 0 115.25056-5.25056 5.25056 5.25056 0 01-5.25056 5.25056zm0-9.53293a4.28237 4.28237 0 104.18928 4.28237 4.2079 4.2079 0 00-4.18928-4.3103zm1.09852 7.11246l-1.09852-2.23428h-.72614v2.2529H392.954v-5.66949h2.13187a1.7595 1.7595 0 011.8619 1.74088 1.58262 1.58262 0 01-1.11714 1.53607l1.2661 2.39254h-1.173zm-.93095-4.78508h-.93095v1.71295h.93095a.87055.87055 0 10.02793-1.74088z"/></svg>