<svg xmlns="http://www.w3.org/2000/svg" role="img" viewBox="-13.43 -13.43 698.36 299.36"><title>Hushmesh logo</title><path fill="#BEC0C5" d="M35.8831 208.41c5.0528 0 9.553.984 13.5006 2.952 4.0265 1.968 7.1845 4.999 9.4741 9.093 2.2895 4.014 3.4343 9.21 3.4343 15.586v36.132H47.4889V237.93c0-5.589-1.3422-9.761-4.0265-12.516-2.6054-2.755-6.2766-4.133-11.0137-4.133-3.4738 0-6.5529.709-9.2372 2.126-2.6843 1.417-4.7765 3.542-6.2766 6.376-1.4211 2.755-2.1316 6.258-2.1316 10.509v31.881H0v-87.615h14.8033v41.564l-3.1975-5.195c2.2106-4.015 5.4081-7.085 9.5925-9.21 4.2633-2.204 9.1583-3.307 14.6848-3.307zM114.349 273c-5.369 0-10.106-.984-14.211-2.952-4.1059-2.047-7.3034-5.117-9.5929-9.21-2.2896-4.172-3.4344-9.407-3.4344-15.705v-36.014h14.8033v34.007c0 5.668 1.263 9.919 3.79 12.752 2.605 2.756 6.276 4.133 11.013 4.133 3.474 0 6.474-.708 9.001-2.125 2.605-1.417 4.618-3.543 6.039-6.376 1.5-2.834 2.25-6.337 2.25-10.51v-31.881h14.804v63.054h-14.093V255.17l2.487 5.195c-2.132 4.094-5.25 7.243-9.356 9.447-4.105 2.125-8.605 3.188-13.5 3.188zm79.898 0c-5.29 0-10.382-.669-15.277-2.007-4.816-1.417-8.646-3.11-11.488-5.078l5.685-11.217c2.842 1.81 6.237 3.306 10.184 4.487 3.948 1.18 7.895 1.771 11.843 1.771 4.658 0 8.013-.63 10.066-1.889 2.132-1.26 3.198-2.952 3.198-5.078 0-1.732-.711-3.031-2.132-3.896-1.421-.945-3.276-1.654-5.566-2.126s-4.856-.905-7.698-1.299c-2.763-.393-5.566-.905-8.408-1.535-2.763-.708-5.29-1.692-7.579-2.952-2.29-1.338-4.145-3.109-5.566-5.313-1.421-2.205-2.132-5.117-2.132-8.738 0-4.015 1.145-7.479 3.434-10.391 2.29-2.992 5.487-5.274 9.593-6.849 4.184-1.653 9.119-2.48 14.803-2.48 4.264 0 8.566.473 12.909 1.417 4.342.945 7.934 2.283 10.776 4.015l-5.684 11.218c-3-1.811-6.04-3.031-9.119-3.661-3-.708-6-1.063-9-1.063-4.5 0-7.856.67-10.066 2.008-2.132 1.338-3.198 3.031-3.198 5.077 0 1.89.711 3.306 2.132 4.251 1.421.945 3.276 1.693 5.566 2.244 2.289.551 4.816 1.023 7.579 1.417 2.842.314 5.645.826 8.408 1.535 2.764.708 5.29 1.692 7.58 2.952 2.368 1.18 4.263 2.873 5.684 5.077 1.421 2.204 2.132 5.077 2.132 8.62 0 3.936-1.185 7.36-3.553 10.273-2.29 2.912-5.566 5.195-9.83 6.848-4.263 1.575-9.355 2.362-15.276 2.362zm83.804-64.59c5.052 0 9.553.984 13.5 2.952 4.027 1.968 7.185 4.999 9.474 9.093 2.29 4.014 3.435 9.21 3.435 15.586v36.132h-14.804V237.93c0-5.589-1.342-9.761-4.026-12.516-2.606-2.755-6.277-4.133-11.014-4.133-3.474 0-6.553.709-9.237 2.126-2.684 1.417-4.777 3.542-6.277 6.376-1.421 2.755-2.131 6.258-2.131 10.509v31.881h-14.804v-87.615h14.804v41.564l-3.198-5.195c2.211-4.015 5.408-7.085 9.593-9.21 4.263-2.204 9.158-3.307 14.685-3.307z"/><path fill="#2759DD" d="M410.583 208.41c5.053 0 9.513.984 13.382 2.952 3.948 1.968 7.027 4.999 9.237 9.093 2.211 4.014 3.316 9.21 3.316 15.586v36.132h-14.803V237.93c0-5.589-1.224-9.761-3.671-12.516-2.448-2.755-5.961-4.133-10.54-4.133-3.237 0-6.119.709-8.645 2.126-2.448 1.417-4.382 3.503-5.803 6.258-1.342 2.755-2.013 6.258-2.013 10.509v31.999h-14.804V237.93c0-5.589-1.223-9.761-3.671-12.516-2.447-2.755-5.961-4.133-10.54-4.133-3.237 0-6.119.709-8.645 2.126-2.447 1.417-4.382 3.503-5.803 6.258-1.342 2.755-2.013 6.258-2.013 10.509v31.999h-14.803v-63.054h14.092v16.767l-2.487-4.959c2.132-4.094 5.211-7.203 9.238-9.328 4.105-2.126 8.763-3.189 13.974-3.189 5.921 0 11.053 1.457 15.395 4.369 4.422 2.913 7.343 7.321 8.764 13.225l-5.803-2.007c2.053-4.723 5.448-8.502 10.185-11.336 4.737-2.834 10.224-4.251 16.461-4.251zM491.789 273c-7.027 0-13.185-1.378-18.475-4.133-5.21-2.834-9.276-6.691-12.197-11.572-2.843-4.88-4.264-10.43-4.264-16.649 0-6.297 1.382-11.847 4.145-16.649 2.842-4.881 6.711-8.699 11.606-11.454 4.974-2.755 10.619-4.133 16.935-4.133 6.158 0 11.645 1.339 16.461 4.015 4.816 2.677 8.606 6.455 11.369 11.336 2.763 4.88 4.145 10.627 4.145 17.239 0 .63-.04 1.339-.119 2.126 0 .787-.039 1.535-.118 2.243h-52.7v-9.8h44.884l-5.803 3.07c.079-3.621-.671-6.809-2.25-9.565-1.579-2.755-3.75-4.92-6.514-6.494-2.684-1.574-5.802-2.362-9.355-2.362-3.632 0-6.829.788-9.593 2.362-2.684 1.574-4.816 3.779-6.395 6.612-1.5 2.756-2.25 6.023-2.25 9.801v2.362c0 3.778.869 7.124 2.606 10.036 1.736 2.913 4.184 5.157 7.342 6.731 3.158 1.574 6.79 2.362 10.895 2.362 3.553 0 6.75-.551 9.593-1.654 2.842-1.102 5.368-2.833 7.579-5.195l7.935 9.092c-2.843 3.306-6.435 5.865-10.777 7.675-4.264 1.732-9.159 2.598-14.685 2.598zm69.998 0c-5.29 0-10.382-.669-15.277-2.007-4.816-1.417-8.645-3.11-11.487-5.078l5.684-11.217c2.842 1.81 6.237 3.306 10.185 4.487 3.947 1.18 7.895 1.771 11.842 1.771 4.659 0 8.014-.63 10.067-1.889 2.131-1.26 3.197-2.952 3.197-5.078 0-1.732-.71-3.031-2.132-3.896-1.421-.945-3.276-1.654-5.566-2.126-2.289-.472-4.855-.905-7.697-1.299-2.763-.393-5.566-.905-8.408-1.535-2.764-.708-5.29-1.692-7.58-2.952-2.289-1.338-4.145-3.109-5.566-5.313-1.421-2.205-2.131-5.117-2.131-8.738 0-4.015 1.144-7.479 3.434-10.391 2.289-2.992 5.487-5.274 9.592-6.849 4.185-1.653 9.119-2.48 14.804-2.48 4.263 0 8.566.473 12.908 1.417 4.342.945 7.935 2.283 10.777 4.015l-5.685 11.218c-3-1.811-6.039-3.031-9.118-3.661-3-.708-6.001-1.063-9.001-1.063-4.5 0-7.855.67-10.066 2.008-2.132 1.338-3.197 3.031-3.197 5.077 0 1.89.71 3.306 2.131 4.251 1.421.945 3.277 1.693 5.566 2.244 2.29.551 4.816 1.023 7.58 1.417 2.842.314 5.644.826 8.408 1.535 2.763.708 5.289 1.692 7.579 2.952 2.369 1.18 4.263 2.873 5.684 5.077 1.422 2.204 2.132 5.077 2.132 8.62 0 3.936-1.184 7.36-3.553 10.273-2.289 2.912-5.566 5.195-9.829 6.848-4.263 1.575-9.356 2.362-15.277 2.362zm83.804-64.59c5.053 0 9.553.984 13.501 2.952 4.026 1.968 7.184 4.999 9.474 9.093 2.289 4.014 3.434 9.21 3.434 15.586v36.132h-14.803V237.93c0-5.589-1.342-9.761-4.027-12.516-2.605-2.755-6.276-4.133-11.013-4.133-3.474 0-6.553.709-9.237 2.126-2.685 1.417-4.777 3.542-6.277 6.376-1.421 2.755-2.132 6.258-2.132 10.509v31.881h-14.803v-87.615h14.803v41.564l-3.197-5.195c2.21-4.015 5.408-7.085 9.592-9.21 4.264-2.204 9.159-3.307 14.685-3.307z"/><path fill="#BEC0C5" d="M353.771 94.5192l-33.51-60.0141a1.00092 1.00092 0 0 0-.874-.5125h-38.426c-.357 0-.686.1898-.865.4981l-19.141 32.9872c-.18.3105-.18.6938 0 1.0042l19.17 32.9979c.179.308.509.498.865.498h26.682c.36 0 .692.193.87.506l18.154 31.993c.378.666-.103 1.493-.87 1.493h-64.487c-.356 0-.686-.189-.864-.497l-38.913-66.9807c-.18-.3105-.181-.6937 0-1.0043L260.434.49811c.178-.30833.508-.49811.865-.49811h77.755c.36 0 .693.19351.87.50666l34.437 60.71644c.175.3097.173.6895-.006.9971l-18.847 32.3153c-.39.6688-1.36.6597-1.737-.0163z"/><path fill="#2759DD" d="M319.259 41.451l33.511 60.014c.176.317.51.513.873.513h38.426c.357 0 .686-.19.865-.498l19.141-32.9877c.181-.3105.18-.6938 0-1.0042l-19.17-32.998c-.179-.308-.509-.4976-.865-.4976h-26.682c-.36 0-.692-.1935-.87-.5065L346.334 1.49341c-.378-.66664.103-1.49353.87-1.49353l64.487.00001c.356 0 .686.18959.865.49767L451.468 67.478c.18.3104.181.6937 0 1.0042l-38.872 66.9898c-.178.308-.508.498-.864.498h-77.756c-.36 0-.693-.193-.87-.506l-34.437-60.7169c-.175-.3097-.173-.6895.006-.9971l18.847-32.3153c.39-.6688 1.36-.6597 1.737.0163z"/></svg>