<svg xmlns="http://www.w3.org/2000/svg" role="img" viewBox="-5.44 -5.44 282.62 70.62"><title>IIT Madras (member) logo</title><path fill="#72504d" d="M32 22h1v1h-1z"/><path fill="#c5c4c3" d="M33 31h1v1h-1z"/><path fill="#91908f" d="M28 34h1v1h-1z"/><path fill="#deb666" d="M43 47h1v1h-1z"/><path fill="#70120b" d="M8 15h1v1H8z"/><path fill="#e9eaed" d="M35 31h1v1h-1z"/><path fill="#645452" d="M25 35h1v1h-1z"/><path fill="#af231b" d="M30 21h1v1h-1z"/><path fill="#79221d" d="M6 34h1v1H6z"/><path fill="#dfc4a9" d="M33 7h1v1h-1z"/><path d="M122 9h1v1h-1zm1 0h1v1h-1zm25 0h1v1h-1zm15 0h1v1h-1zm73 0h1v1h-1zM71 10h1v1h-1zm1 0h3v1h-3zm3 0h1v1h-1zm1 0h1v1h-1zm6 0h1v1h-1zm1 0h3v1h-3zm3 0h1v1h-1zm1 0h1v1h-1zm5 0h1v1h-1zm1 0h15v1H93zm15 0h1v1h-1zm1 0h1v1h-1zm13 0h1v25h-1zm1 0h1v1h-1zm1 0h1v1h-1zm23 0h1v1h-1zm1 0h1v1h-1zm14 0h1v1h-1zm1 0h1v1h-1zm1 0h1v1h-1zm14 0h1v1h-1zm1 0h5v1h-5zm5 0h1v1h-1zm1 0h1v1h-1zm1 0h1v1h-1zm1 0h1v1h-1zm1 0h1v1h-1zm1 0h1v1h-1zm15 0h1v1h-1zm1 0h6v1h-6zm6 0h1v1h-1zm1 0h1v1h-1zm1 0h1v1h-1zm1 0h1v1h-1zm1 0h1v1h-1zm20 0h1v1h-1zm1 0h1v1h-1zm1 0h1v1h-1zm18 0h1v1h-1zm1 0h1v1h-1zm1 0h1v1h-1zm1 0h1v1h-1zm1 0h1v1h-1zm1 0h1v1h-1zm1 0h1v1h-1zm1 0h1v1h-1zm1 0h1v1h-1zM71 11h1v24h-1zm1 0h3v24h-3zm3 0h1v24h-1zm1 0h1v24h-1zm6 0h1v24h-1zm1 0h3v24h-3zm3 0h1v24h-1zm1 0h1v24h-1zm5 0h1v2h-1zm1 0h15v2H93zm15 0h1v2h-1zm1 0h1v2h-1zm14 0h1v24h-1zm1 0h1v1h-1zm22 0h1v1h-1zm1 0h1v1h-1zm1 0h1v24h-1zm14 0h1v1h-1zm1 0h1v6h-1zm1 0h1v1h-1zm14 0h1v24h-1zm1 0h10v2h-10zm10 0h1v3h-1zm1 0h1v1h-1zm1 0h1v1h-1zm1 0h1v1h-1zm12 0h1v24h-1zm1 0h9v2h-9zm9 0h1v2h-1zm1 0h1v1h-1zm1 0h1v1h-1zm1 0h1v1h-1zm18 0h1v1h-1zm1 0h1v6h-1zm1 0h1v1h-1zm17 0h1v1h-1zm1 0h1v1h-1zm1 0h7v2h-7zm7 0h1v2h-1zm1 0h1v1h-1zm1 0h1v1h-1zm1 0h1v1h-1zm-142 1h1v1h-1zm1 0h1v1h-1zm21 0h1v1h-1zm1 0h1v23h-1zm14 0h1v1h-1zm1 0h1v1h-1zm2 0h1v1h-1zm26 0h1v2h-1zm1 0h1v2h-1zm1 0h1v1h-1zm1 0h1v1h-1zm1 0h1v1h-1zm21 0h1v2h-1zm1 0h1v2h-1zm1 0h1v1h-1zm1 0h1v1h-1zm1 0h1v1h-1zm15 0h1v1h-1zm1 0h1v1h-1zm2 0h1v1h-1zm15 0h1v1h-1zm1 0h1v1h-1zm1 0h1v1h-1z"/><path d="M255 12h10v1h-10zm10 0h1v1h-1zm1 0h1v1h-1zM92 13h1v1h-1zm1 0h15v1H93zm15 0h1v1h-1zm1 0h1v1h-1zm15 0h1v22h-1zm1 0h1v1h-1zm1 0h1v1h-1zm19 0h1v1h-1zm1 0h1v1h-1zm15 0h1v1h-1zm1 0h2v4h-2zm2 0h1v6h-1zm1 0h1v1h-1zm14 0h14v1h-14zm14 0h1v3h-1zm1 0h1v1h-1zm1 0h1v1h-1zm10 0h13v1h-13zm13 0h1v11h-1zm1 0h1v1h-1zm15 0h1v1h-1zm1 0h2v4h-2zm2 0h1v6h-1zm1 0h1v1h-1zm14 0h1v1h-1zm1 0h12v1h-12zm12 0h1v1h-1zm1 0h1v1h-1zM92 14h1v1h-1zm1 0h4v1h-4zm4 0h1v1h-1zm1 0h1v1h-1zm1 0h2v21h-2zm2 0h1v21h-1zm1 0h1v1h-1zm1 0h5v1h-5zm5 0h1v1h-1zm1 0h1v1h-1zm16 0h1v21h-1zm1 0h1v1h-1zm18 0h1v1h-1zm1 0h1v1h-1zm1 0h1v21h-1zm15 0h1v1h-1zm4 0h1v1h-1zm14 0h3v21h-3zm3 0h1v21h-1zm1 0h1v1h-1zm1 0h1v1h-1zm1 0h1v1h-1zm1 0h1v1h-1zm1 0h1v1h-1zm1 0h1v1h-1z"/><path d="M189 14h5v1h-5zm5 0h1v3h-1zm1 0h1v1h-1zm1 0h1v1h-1zm9 0h3v21h-3zm3 0h1v21h-1zm1 0h1v1h-1zm1 0h1v1h-1zm1 0h1v1h-1zm1 0h1v1h-1zm1 0h1v1h-1zm1 0h1v1h-1zm1 0h3v1h-3zm4 0h1v1h-1zm1 0h1v1h-1zm14 0h1v1h-1zm4 0h1v1h-1zm13 0h1v1h-1zm1 0h1v1h-1zm1 0h2v6h-2zm2 0h1v1h-1zm1 0h1v1h-1zm1 0h1v1h-1zm1 0h1v1h-1zm1 0h1v1h-1zm1 0h1v1h-1zm1 0h1v1h-1zm1 0h1v1h-1zm1 0h1v1h-1zm1 0h1v1h-1zm1 0h1v1h-1zm1 0h1v1h-1zM98 15h1v20h-1zm4 0h1v20h-1zm24 0h1v20h-1zm1 0h1v1h-1zm16 0h1v1h-1zm1 0h1v1h-1zm1 0h2v20h-2zm15 0h1v1h-1zm1 0h3v2h-3zm4 0h1v1h-1zm1 0h1v1h-1zm17 0h1v15h-1zm6 0h1v1h-1zm1 0h1v1h-1zm1 0h1v1h-1z"/><path d="M192 15h3v1h-3zm3 0h1v4h-1zm1 0h1v1h-1zm1 0h1v1h-1zm12 0h1v7h-1zm6 0h1v1h-1zm1 0h1v1h-1zm1 0h2v1h-2zm2 0h1v7h-1zm1 0h1v1h-1zm13 0h1v1h-1zm1 0h3v2h-3zm4 0h1v1h-1zm1 0h1v1h-1zm12 0h1v1h-1zm1 0h2v4h-2zm3 0h1v1h-1zm1 0h1v1h-1zm8 0h1v1h-1zm1 0h1v1h-1zm-138 1h1v1h-1zm1 0h1v1h-1zm15 0h1v1h-1zm1 0h3v5h-3zm16 0h1v1h-1zm5 0h1v5h-1zm1 0h1v1h-1zm25 0h1v1h-1zm1 0h1v1h-1z"/><path d="M193 16h3v1h-3zm3 0h1v14h-1zm1 0h1v1h-1zm19 0h1v1h-1zm1 0h2v1h-2zm3 0h1v1h-1zm1 0h1v1h-1zm12 0h1v1h-1zm5 0h1v5h-1zm1 0h1v1h-1zm12 0h1v1h-1zm4 0h1v1h-1zm-128 1h1v4h-1zm1 0h1v1h-1zm1 0h1v1h-1zm13 0h1v1h-1zm1 0h1v1h-1zm16 0h1v1h-1zm1 0h1v1h-1zm1 0h4v1h-4zm5 0h1v1h-1zm1 0h1v1h-1zm25 0h1v1h-1zm1 0h1v1h-1z"/><path d="M194 17h3v1h-3zm3 0h1v11h-1zm1 0h1v1h-1zm18 0h1v1h-1zm1 0h1v1h-1zm3 0h1v3h-1zm1 0h1v1h-1zm11 0h1v1h-1zm1 0h1v1h-1zm1 0h4v1h-4zm5 0h1v1h-1zm1 0h1v1h-1zm11 0h1v1h-1zm4 0h1v1h-1zm-127 1h1v4h-1zm1 0h1v1h-1zm12 0h1v1h-1zm1 0h1v1h-1zm1 0h4v3h-4zm16 0h1v1h-1zm1 0h2v3h-2zm2 0h4v1h-4zm4 0h1v6h-1zm1 0h1v1h-1zm26 0h1v1h-1zm1 0h1v1h-1zm4 0h1v1h-1zm19 0h1v1h-1zm4 0h1v1h-1zm11 0h1v1h-1zm1 0h2v3h-2zm2 0h4v1h-4zm4 0h1v6h-1zm1 0h1v1h-1zm11 0h1v1h-1zm4 0h1v1h-1zm1 0h1v1h-1zM1 19h1v1H1zm128 0h1v1h-1zm1 0h1v1h-1zm11 0h1v1h-1z"/><path d="M142 19h5v2h-5zm16 0h1v1h-1zm1 0h1v1h-1zm3 0h1v1h-1zm1 0h1v1h-1zm1 0h2v1h-2zm3 0h1v1h-1zm27 0h1v1h-1zm1 0h2v1h-2zm3 0h1v1h-1zm1 0h1v1h-1zm18 0h1v1h-1zm4 0h1v1h-1zm10 0h1v1h-1zm1 0h1v1h-1zm3 0h1v1h-1zm1 0h1v1h-1zm1 0h2v1h-2zm3 0h1v1h-1zm11 0h1v1h-1zm1 0h3v1h-3zm3 0h1v3h-1zm1 0h1v1h-1zm1 0h1v1h-1zm-128 1h1v3h-1zm1 0h1v1h-1zm1 0h1v1h-1zm9 0h1v1h-1z"/><path d="M141 20h6v1h-6zm17 0h1v1h-1zm1 0h2v3h-2zm3 0h1v1h-1zm2 0h1v1h-1zm3 0h1v8h-1zm1 0h1v1h-1zm26 0h1v1h-1zm1 0h1v1h-1zm3 0h1v6h-1zm1 0h1v1h-1zm17 0h1v1h-1zm1 0h3v2h-3zm3 0h1v1h-1zm1 0h1v1h-1zm10 0h1v1h-1zm1 0h2v3h-2zm3 0h1v1h-1zm2 0h1v1h-1zm3 0h1v8h-1zm1 0h1v1h-1zm10 0h1v1h-1zm1 0h1v1h-1zm1 0h4v1h-4zm4 0h1v2h-1zm1 0h1v1h-1zm1 0h1v1h-1zm1 0h1v1h-1zm-133 1h3v1h-3zm3 0h1v4h-1zm1 0h1v1h-1zm8 0h1v1h-1zm1 0h1v1h-1zm1 0h6v1h-6zm17 0h1v1h-1zm3 0h1v1h-1zm1 0h1v1h-1zm2 0h1v1h-1zm1 0h2v1h-2zm3 0h1v1h-1zm27 0h1v1h-1zm4 0h1v1h-1zm16 0h1v1h-1zm1 0h1v1h-1zm4 0h1v1h-1zm1 0h1v1h-1zm10 0h1v1h-1zm3 0h1v1h-1zm1 0h1v1h-1zm2 0h1v1h-1zm1 0h2v1h-2zm3 0h1v1h-1zm11 0h1v1h-1zm1 0h1v1h-1z"/><path d="M254 21h5v1h-5zm5 0h1v2h-1zm1 0h1v1h-1zm1 0h1v1h-1zm1 0h1v1h-1zm-135 1h1v1h-1zm1 0h3v1h-3zm3 0h1v4h-1zm1 0h1v1h-1zm6 0h1v1h-1zm1 0h1v1h-1zm1 0h2v2h-2zm2 0h1v1h-1zm1 0h1v1h-1zm1 0h1v13h-1zm13 0h1v1h-1zm1 0h2v6h-2zm3 0h1v1h-1zm3 0h1v1h-1zm1 0h1v1h-1zm3 0h1v1h-1zm1 0h1v1h-1zm26 0h1v1h-1zm4 0h1v1h-1zm10 0h1v1h-1zm4 0h1v1h-1zm1 0h1v1h-1zm1 0h1v1h-1zm1 0h3v2h-3zm3 0h1v1h-1zm1 0h1v1h-1zm10 0h1v1h-1zm1 0h2v6h-2zm3 0h1v1h-1zm3 0h1v1h-1zm1 0h1v1h-1zm3 0h1v1h-1zm1 0h1v1h-1zm11 0h1v1h-1zm1 0h1v1h-1z"/><path d="M255 22h6v1h-6zm6 0h1v2h-1zm1 0h1v1h-1zm1 0h1v1h-1zm1 0h1v1h-1zm-137 1h1v1h-1zm1 0h1v1h-1zm1 0h2v1h-2zm3 0h1v1h-1zm1 0h1v1h-1zm5 0h1v1h-1zm1 0h2v2h-2zm3 0h1v1h-1zm1 0h1v1h-1zm14 0h1v1h-1zm3 0h1v1h-1zm1 0h1v1h-1zm4 0h1v1h-1zm3 0h1v5h-1zm1 0h1v1h-1zm26 0h1v1h-1zm4 0h1v1h-1zm10 0h1v1h-1zm1 0h1v1h-1zm1 0h1v1h-1zm1 0h1v1h-1zm1 0h1v1h-1zm1 0h4v1h-4zm5 0h1v1h-1zm1 0h1v1h-1zm10 0h1v1h-1zm3 0h1v1h-1zm1 0h1v1h-1zm4 0h1v1h-1zm3 0h1v5h-1zm1 0h1v1h-1zm13 0h1v1h-1zm1 0h1v1h-1zm1 0h1v1h-1z"/><path d="M258 23h5v1h-5zm5 0h1v3h-1zm1 0h1v1h-1zm1 0h1v1h-1zm-138 1h1v11h-1zm1 0h1v1h-1zm1 0h1v1h-1zm3 0h1v3h-1zm1 0h1v1h-1zm1 0h1v1h-1zm3 0h1v1h-1zm1 0h1v1h-1zm3 0h1v1h-1zm1 0h1v1h-1zm14 0h1v1h-1zm1 0h1v1h-1zm3 0h1v1h-1zm1 0h1v1h-1zm4 0h1v1h-1zm1 0h2v4h-2zm3 0h1v1h-1zm1 0h1v1h-1zm25 0h1v1h-1zm4 0h1v1h-1zm10 0h9v1h-9zm9 0h1v1h-1zm1 0h1v1h-1zm10 0h1v1h-1zm1 0h1v1h-1zm3 0h1v1h-1zm1 0h1v1h-1zm4 0h1v1h-1zm1 0h2v4h-2zm3 0h1v1h-1zm1 0h1v1h-1zm14 0h1v1h-1zm1 0h1v1h-1zm1 0h1v1h-1z"/><path d="M260 24h4v1h-4zm4 0h1v9h-1zm1 0h1v1h-1zm1 0h1v1h-1zm-137 1h1v1h-1zm1 0h3v1h-3zm3 0h1v4h-1zm1 0h1v1h-1zm2 0h1v1h-1zm1 0h1v1h-1zm1 0h2v2h-2zm2 0h1v1h-1zm1 0h1v1h-1zm1 0h1v1h-1zm14 0h1v1h-1zm1 0h2v3h-2zm3 0h1v1h-1zm1 0h4v1h-4zm4 0h1v1h-1zm4 0h1v6h-1zm1 0h1v1h-1zm24 0h1v1h-1zm1 0h3v3h-3zm4 0h1v1h-1zm10 0h7v1h-7zm7 0h1v5h-1zm1 0h1v1h-1zm1 0h1v1h-1zm11 0h1v1h-1zm1 0h2v3h-2zm3 0h1v1h-1zm1 0h4v1h-4zm4 0h1v1h-1zm4 0h1v6h-1zm1 0h1v1h-1zm16 0h1v1h-1zm1 0h1v1h-1zm1 0h1v1h-1z"/><path d="M262 25h3v1h-3zm3 0h1v7h-1zm1 0h1v1h-1zm1 0h1v1h-1zm-137 1h1v1h-1zm1 0h3v1h-3zm3 0h1v4h-1zm1 0h1v1h-1zm1 0h1v1h-1zm1 0h2v2h-2zm3 0h1v1h-1zm1 0h1v1h-1zm14 0h1v1h-1zm1 0h1v1h-1zm4 0h9v2h-9zm10 0h1v1h-1zm24 0h1v1h-1zm4 0h1v1h-1zm1 0h1v1h-1zm10 0h7v1h-7zm8 0h1v1h-1zm1 0h1v1h-1zm10 0h1v1h-1zm1 0h1v1h-1zm4 0h9v2h-9zm10 0h1v1h-1zm18 0h1v1h-1zm1 0h1v1h-1z"/><path d="M263 26h3v1h-3zm3 0h1v5h-1zm1 0h1v1h-1zm-137 1h1v1h-1zm1 0h1v1h-1zm1 0h2v1h-2zm3 0h1v1h-1zm1 0h3v1h-3zm3 0h1v1h-1zm1 0h1v1h-1zm15 0h1v1h-1zm1 0h14v1h-14zm14 0h1v6h-1zm1 0h1v1h-1zm23 0h1v1h-1zm4 0h1v1h-1zm1 0h1v1h-1zm10 0h1v1h-1zm1 0h2v1h-2zm2 0h1v1h-1zm1 0h1v1h-1zm1 0h3v1h-3zm3 0h1v5h-1zm1 0h1v1h-1zm10 0h1v1h-1zm1 0h14v1h-14zm14 0h1v6h-1zm1 0h1v1h-1zm19 0h1v1h-1zm4 0h1v1h-1zm-136 1h1v1h-1zm1 0h1v1h-1zm3 0h3v2h-3zm3 0h1v1h-1zm1 0h1v1h-1zm1 0h1v1h-1zm15 0h1v1h-1zm1 0h14v1h-14zm15 0h1v1h-1zm22 0h1v1h-1zm1 0h3v2h-3zm3 0h1v1h-1zm1 0h1v1h-1zm11 0h1v7h-1zm4 0h1v1h-1zm1 0h1v1h-1zm1 0h2v1h-2zm3 0h1v1h-1zm1 0h1v1h-1zm9 0h1v1h-1zm1 0h14v1h-14zm15 0h1v1h-1zm19 0h1v1h-1zm4 0h1v1h-1zm-135 1h1v1h-1z"/><path d="M133 29h4v1h-4zm5 0h1v1h-1zm1 0h1v1h-1zm15 0h1v1h-1zm1 0h2v4h-2zm2 0h1v1h-1zm1 0h1v1h-1zm1 0h1v1h-1zm1 0h6v1h-6zm6 0h1v1h-1zm1 0h1v1h-1zm1 0h1v1h-1zm3 0h1v1h-1zm1 0h1v1h-1zm20 0h1v1h-1zm1 0h1v1h-1zm4 0h1v1h-1zm1 0h1v1h-1zm16 0h1v1h-1zm1 0h3v1h-3zm3 0h1v4h-1zm1 0h1v1h-1zm1 0h1v1h-1zm7 0h1v1h-1zm1 0h2v4h-2zm2 0h1v1h-1zm1 0h1v1h-1zm1 0h1v1h-1zm1 0h6v1h-6zm6 0h1v1h-1zm1 0h1v1h-1zm1 0h1v1h-1zm3 0h1v1h-1zm1 0h1v1h-1zm18 0h1v1h-1zm4 0h1v1h-1zm-135 1h1v1h-1zm1 0h1v1h-1zm1 0h3v1h-3zm3 0h1v1h-1zm1 0h1v1h-1zm16 0h1v1h-1zm3 0h1v1h-1zm1 0h1v1h-1zm10 0h1v1h-1zm3 0h1v5h-1zm1 0h1v1h-1zm11 0h1v1h-1zm7 0h1v1h-1zm1 0h1v1h-1zm1 0h1v1h-1zm1 0h3v1h-3zm3 0h1v1h-1zm1 0h1v1h-1zm18 0h1v1h-1z"/><path d="M216 30h3v1h-3zm3 0h1v5h-1zm1 0h1v1h-1zm7 0h1v1h-1zm3 0h1v1h-1zm1 0h1v1h-1zm10 0h1v1h-1zm3 0h1v5h-1zm1 0h1v1h-1zm6 0h1v1h-1zm1 0h1v1h-1zm10 0h1v1h-1zm1 0h1v1h-1zm4 0h1v1h-1zm-134 1h1v1h-1zm1 0h1v1h-1zm1 0h1v1h-1zm1 0h1v1h-1zm1 0h1v1h-1zm16 0h1v1h-1zm1 0h1v1h-1zm3 0h1v1h-1zm1 0h1v1h-1zm10 0h1v1h-1zm1 0h2v1h-2zm3 0h1v1h-1zm1 0h1v1h-1zm10 0h1v1h-1zm1 0h1v1h-1zm1 0h1v1h-1zm1 0h1v1h-1zm1 0h1v1h-1zm1 0h1v1h-1zm1 0h1v1h-1zm1 0h1v1h-1zm1 0h4v1h-4zm4 0h1v1h-1zm1 0h1v1h-1zm19 0h1v1h-1zm1 0h1v1h-1zm4 0h1v1h-1zm1 0h1v1h-1zm5 0h1v1h-1zm1 0h1v1h-1zm3 0h1v1h-1zm1 0h1v1h-1zm10 0h1v1h-1zm1 0h2v1h-2zm3 0h1v1h-1zm1 0h1v1h-1zm4 0h1v1h-1zm1 0h1v1h-1zm1 0h1v3h-1zm1 0h1v1h-1zm1 0h1v1h-1zm1 0h1v1h-1zm1 0h1v1h-1zm2 0h1v1h-1zm1 0h1v1h-1zm1 0h1v1h-1zm1 0h1v1h-1zm1 0h4v1h-4zm4 0h1v1h-1zm1 0h1v1h-1zm-133 1h1v1h-1zm1 0h1v1h-1zm1 0h1v1h-1zm1 0h1v1h-1zm16 0h1v1h-1zm1 0h2v3h-2zm3 0h1v1h-1zm12 0h1v1h-1zm3 0h1v3h-1zm1 0h1v1h-1zm10 0h11v1h-11zm11 0h1v1h-1zm1 0h1v1h-1zm1 0h1v1h-1zm20 0h1v1h-1z"/><path d="M217 32h3v1h-3zm3 0h1v3h-1zm1 0h1v1h-1zm5 0h1v1h-1zm1 0h2v3h-2zm3 0h1v1h-1zm12 0h1v1h-1zm3 0h1v3h-1zm1 0h1v1h-1zm4 0h1v1h-1zm1 0h5v1h-5zm5 0h1v3h-1zm1 0h1v1h-1zm1 0h1v1h-1zm1 0h6v1h-6zm6 0h1v1h-1zm1 0h1v1h-1zm1 0h1v1h-1zm-132 1h1v1h-1zm1 0h1v1h-1zm16 0h1v1h-1zm1 0h1v1h-1zm3 0h1v1h-1zm1 0h1v1h-1zm12 0h1v1h-1zm1 0h2v1h-2zm3 0h1v1h-1zm10 0h9v1h-9zm9 0h1v1h-1zm1 0h1v1h-1zm1 0h1v1h-1zm1 0h1v1h-1zm21 0h1v1h-1zm1 0h1v1h-1z"/><path d="M218 33h3v1h-3zm3 0h1v2h-1zm1 0h1v1h-1zm3 0h1v1h-1zm1 0h1v1h-1zm3 0h1v1h-1zm1 0h1v1h-1zm12 0h1v1h-1zm1 0h2v1h-2zm3 0h1v1h-1zm3 0h1v1h-1zm1 0h1v1h-1zm1 0h13v1h-13zm13 0h1v1h-1zm1 0h1v1h-1zm1 0h1v1h-1zm-131 1h1v1h-1zm17 0h1v1h-1zm1 0h2v1h-2zm3 0h1v1h-1zm1 0h1v1h-1zm12 0h1v1h-1zm1 0h1v1h-1zm3 0h1v1h-1zm1 0h1v1h-1zm9 0h8v1h-8zm8 0h1v1h-1zm1 0h1v1h-1zm1 0h1v1h-1zm24 0h1v1h-1zm1 0h1v1h-1zm4 0h1v1h-1zm1 0h1v1h-1zm2 0h1v1h-1zm1 0h2v1h-2zm3 0h1v1h-1zm1 0h1v1h-1zm12 0h1v1h-1zm1 0h1v1h-1zm3 0h1v1h-1zm1 0h1v1h-1zm2 0h1v1h-1zm1 0h1v1h-1zm1 0h1v1h-1zm1 0h10v1h-10zm10 0h1v1h-1zm1 0h1v1h-1zm1 0h1v1h-1zm1 0h1v1h-1zM71 35h1v1h-1zm1 0h3v1h-3zm3 0h1v1h-1zm1 0h1v1h-1zm6 0h1v1h-1zm1 0h3v1h-3zm3 0h1v1h-1zm1 0h1v1h-1zm11 0h1v1h-1zm1 0h2v1h-2zm2 0h1v1h-1zm1 0h1v1h-1zm20 0h1v1h-1zm1 0h3v1h-3zm3 0h1v1h-1zm1 0h1v1h-1zm17 0h1v1h-1zm1 0h2v1h-2zm2 0h1v1h-1zm1 0h1v1h-1zm4 0h1v1h-1zm1 0h2v1h-2zm2 0h1v1h-1zm1 0h1v1h-1zm14 0h1v1h-1zm1 0h2v1h-2zm2 0h1v1h-1zm1 0h1v1h-1zm4 0h1v1h-1zm1 0h7v1h-7zm7 0h1v1h-1zm1 0h1v1h-1zm1 0h1v1h-1zm1 0h1v1h-1zm1 0h1v1h-1zm1 0h1v1h-1zm13 0h1v1h-1zm1 0h3v1h-3zm3 0h1v1h-1zm1 0h1v1h-1zm9 0h1v1h-1zm1 0h3v1h-3zm3 0h1v1h-1zm1 0h1v1h-1zm2 0h1v1h-1zm1 0h2v1h-2zm2 0h1v1h-1zm1 0h1v1h-1zm14 0h1v1h-1zm1 0h2v1h-2zm2 0h1v1h-1zm1 0h1v1h-1zm4 0h1v1h-1zm1 0h1v1h-1zm1 0h1v1h-1zm1 0h1v1h-1zm1 0h4v1h-4zm4 0h1v1h-1zm1 0h1v1h-1zm1 0h1v1h-1zm1 0h1v1h-1zm1 0h1v1h-1zm-9 1h1v1h-1zm1 0h1v1h-1zm1 0h1v1h-1zm1 0h1v1h-1zm1 0h1v1h-1zm1 0h1v1h-1zM72 43h1v1h-1zm1 0h1v1h-1zm12 0h1v1h-1zm1 0h1v1h-1zm2 0h1v1h-1zm1 0h1v1h-1zm18 0h1v1h-1zm1 0h1v1h-1zm15 0h1v1h-1zm3 0h1v1h-1zm1 0h1v1h-1zm1 0h1v1h-1zm3 0h1v1h-1zm11 0h1v1h-1zm20 0h1v1h-1zm1 0h1v1h-1zm1 0h1v1h-1zm4 0h1v1h-1zm1 0h4v1h-4zm4 0h1v1h-1zm1 0h1v1h-1zm14 0h1v1h-1zm1 0h1v1h-1zm19 0h1v1h-1zm1 0h1v1h-1zm24 0h1v1h-1zm1 0h1v1h-1zm1 0h1v1h-1zm6 0h1v1h-1zm1 0h1v1h-1zm12 0h1v1h-1zm1 0h1v1h-1zM72 44h1v7h-1zm1 0h1v7h-1zm12 0h1v1h-1zm1 0h1v6h-1zm2 0h1v2h-1zm1 0h1v1h-1zm18 0h1v7h-1zm1 0h1v7h-1zm15 0h1v1h-1zm1 0h1v1h-1zm2 0h1v1h-1zm1 0h1v1h-1zm1 0h1v1h-1zm2 0h1v1h-1zm1 0h1v1h-1zm10 0h1v1h-1zm1 0h1v1h-1zm20 0h1v1h-1zm1 0h1v1h-1zm1 0h1v1h-1zm4 0h1v1h-1zm1 0h1v1h-1zm1 0h1v1h-1zm1 0h1v7h-1zm1 0h1v1h-1zm1 0h1v1h-1zm1 0h1v1h-1zm14 0h1v7h-1zm1 0h1v1h-1zm19 0h1v7h-1zm1 0h1v7h-1zm24 0h1v7h-1zm1 0h1v1h-1zm1 0h1v1h-1zm5 0h1v1h-1zm1 0h1v1h-1zm1 0h1v7h-1zm12 0h1v1h-1zm1 0h1v6h-1zM85 45h1v1h-1zm37 0h1v1h-1zm1 0h1v1h-1zm1 0h1v1h-1zm6 0h1v1h-1zm1 0h1v4h-1zm10 0h1v1h-1zm1 0h1v4h-1zm19 0h1v1h-1zm1 0h1v6h-1zm1 0h1v1h-1zm7 0h1v6h-1zm2 0h1v6h-1zm17 0h1v1h-1zm45 0h1v1h-1zm1 0h1v1h-1zm1 0h1v1h-1zm4 0h1v1h-1zm1 0h1v1h-1zm13 0h1v1h-1zM75 46h1v1h-1zm1 0h1v1h-1zm1 0h1v1h-1zm1 0h1v1h-1zm1 0h1v1h-1zm3 0h1v1h-1zm1 0h1v1h-1zm1 0h1v1h-1zm1 0h1v1h-1zm3 0h1v1h-1zm1 0h1v1h-1zm2 0h1v1h-1zm1 0h1v1h-1zm1 0h1v1h-1zm1 0h1v1h-1zm1 0h1v1h-1zm2 0h1v1h-1zm1 0h1v1h-1zm1 0h1v1h-1zm1 0h1v1h-1zm1 0h1v1h-1zm1 0h1v1h-1zm8 0h1v1h-1zm1 0h1v1h-1zm1 0h1v1h-1zm1 0h1v1h-1zm1 0h1v1h-1zm1 0h1v1h-1zm2 0h1v1h-1zm1 0h1v1h-1zm1 0h1v1h-1zm1 0h1v1h-1zm1 0h1v1h-1zm1 0h1v1h-1zm1 0h1v4h-1zm1 0h1v1h-1zm1 0h2v1h-2zm2 0h1v1h-1zm1 0h1v1h-1zm1 0h1v1h-1zm1 0h1v1h-1zm2 0h1v1h-1zm1 0h1v1h-1zm1 0h1v1h-1zm1 0h1v1h-1zm3 0h1v1h-1zm1 0h1v1h-1zm1 0h1v1h-1zm1 0h1v1h-1zm2 0h1v1h-1zm1 0h1v1h-1zm1 0h1v1h-1zm1 0h1v1h-1zm1 0h1v1h-1zm1 0h1v1h-1zm1 0h1v1h-1zm6 0h1v1h-1zm1 0h1v1h-1zm1 0h1v1h-1zm1 0h1v1h-1zm1 0h1v1h-1zm1 0h1v1h-1zm1 0h1v1h-1zm2 0h1v1h-1zm1 0h1v1h-1zm12 0h1v1h-1zm1 0h1v1h-1zm1 0h1v1h-1zm1 0h1v1h-1zm1 0h1v1h-1zm2 0h1v1h-1zm1 0h1v1h-1zm1 0h1v1h-1zm1 0h1v1h-1zm1 0h1v1h-1zm1 0h1v1h-1zm2 0h1v1h-1zm1 0h1v1h-1zm1 0h1v1h-1zm1 0h1v1h-1zm2 0h1v1h-1zm1 0h1v1h-1zm1 0h1v1h-1zm1 0h1v1h-1zm1 0h1v1h-1zm1 0h1v1h-1zm2 0h1v1h-1zm1 0h1v1h-1zm1 0h1v1h-1zm1 0h1v1h-1zm1 0h1v1h-1zm1 0h1v1h-1zm5 0h1v1h-1zm1 0h1v1h-1zm1 0h1v1h-1zm1 0h1v1h-1zm1 0h1v1h-1zm3 0h1v1h-1zm1 0h1v1h-1zm1 0h1v1h-1zm1 0h1v1h-1zm1 0h1v1h-1zm1 0h1v1h-1zm1 0h1v1h-1zm1 0h1v1h-1zm2 0h1v1h-1zm1 0h1v1h-1zm1 0h1v1h-1zm5 0h1v5h-1zm1 0h1v1h-1zm1 0h1v1h-1zm3 0h1v1h-1zm1 0h1v1h-1zm1 0h1v1h-1zm3 0h1v1h-1zm1 0h1v1h-1zm1 0h1v1h-1zm1 0h1v1h-1zm1 0h1v1h-1zm3 0h1v1h-1zm1 0h1v1h-1zm1 0h1v1h-1zm1 0h1v1h-1zm3 0h1v1h-1zm1 0h1v1h-1zm1 0h1v1h-1zm1 0h1v1h-1zm1 0h1v1h-1zm1 0h1v1h-1zm1 0h1v1h-1zm1 0h1v1h-1zm1 0h1v1h-1zm2 0h1v1h-1zm1 0h1v1h-1zm1 0h1v1h-1zm1 0h1v1h-1zm1 0h1v1h-1zM75 47h1v4h-1zm1 0h1v1h-1zm1 0h1v1h-1zm1 0h1v1h-1zm1 0h1v1h-1zm1 0h1v1h-1zm1 0h1v1h-1zm1 0h1v1h-1zm1 0h1v1h-1zm2 0h1v1h-1zm3 0h1v4h-1zm1 0h1v4h-1zm2 0h1v1h-1zm1 0h1v1h-1zm2 0h1v1h-1zm1 0h1v1h-1zm2 0h1v4h-1zm1 0h1v1h-1zm1 0h1v1h-1zm1 0h1v1h-1zm1 0h1v1h-1zm1 0h1v1h-1zm8 0h1v4h-1zm1 0h1v1h-1zm1 0h1v1h-1zm1 0h1v1h-1zm1 0h1v1h-1zm1 0h1v1h-1zm1 0h1v1h-1zm1 0h1v1h-1zm1 0h1v1h-1zm2 0h1v1h-1zm2 0h1v1h-1zm2 0h1v1h-1zm3 0h1v4h-1zm1 0h1v4h-1zm2 0h1v1h-1zm4 0h1v2h-1zm1 0h1v1h-1zm3 0h1v2h-1zm1 0h1v3h-1zm2 0h1v1h-1zm4 0h1v1h-1zm1 0h1v1h-1zm1 0h1v1h-1zm1 0h1v1h-1zm1 0h1v1h-1zm1 0h1v1h-1zm4 0h1v1h-1zm1 0h1v1h-1zm1 0h1v1h-1zm1 0h1v1h-1zm1 0h1v1h-1zm1 0h1v1h-1zm1 0h1v1h-1zm1 0h1v1h-1zm2 0h1v4h-1zm12 0h2v1h-2zm2 0h1v1h-1zm2 0h1v1h-1zm1 0h1v1h-1zm2 0h1v1h-1zm1 0h1v1h-1zm1 0h1v1h-1zm1 0h1v1h-1zm1 0h1v1h-1zm3 0h1v1h-1zm1 0h1v1h-1zm1 0h1v1h-1zm1 0h1v1h-1zm1 0h1v1h-1zm1 0h1v4h-1zm1 0h1v1h-1zm1 0h1v1h-1zm1 0h1v1h-1zm1 0h1v1h-1zm1 0h1v1h-1zm2 0h1v1h-1zm1 0h1v1h-1zm1 0h1v1h-1zm1 0h1v1h-1zm1 0h1v1h-1zm1 0h1v1h-1zm5 0h1v1h-1zm1 0h1v1h-1zm1 0h1v1h-1zm1 0h1v1h-1zm1 0h1v1h-1zm1 0h1v1h-1zm1 0h1v1h-1zm1 0h1v1h-1zm1 0h1v1h-1zm2 0h1v1h-1zm1 0h1v1h-1zm1 0h1v1h-1zm1 0h1v1h-1zm1 0h1v1h-1zm2 0h1v1h-1zm1 0h1v1h-1zm1 0h1v1h-1zm6 0h1v1h-1zm1 0h1v1h-1zm1 0h1v1h-1zm2 0h1v1h-1zm1 0h1v1h-1zm1 0h1v4h-1zm3 0h1v1h-1zm1 0h1v1h-1zm1 0h1v1h-1zm1 0h1v1h-1zm1 0h1v1h-1zm1 0h1v1h-1zm1 0h1v1h-1zm1 0h1v1h-1zm1 0h1v1h-1zm2 0h1v1h-1zm3 0h1v4h-1zm1 0h1v1h-1zm1 0h1v1h-1zm1 0h1v1h-1zm1 0h1v1h-1zm1 0h1v1h-1zm1 0h1v1h-1zm1 0h1v1h-1zm1 0h1v1h-1zm1 0h1v1h-1zm1 0h1v1h-1zm1 0h1v1h-1zm2 0h1v1h-1zm1 0h1v1h-1zM76 48h1v3h-1zm3 0h1v1h-1zm1 0h1v1h-1zm1 0h1v1h-1zm1 0h1v1h-1zm3 0h1v1h-1zm7 0h1v1h-1zm1 0h1v1h-1zm1 0h1v1h-1zm1 0h1v1h-1zm3 0h1v3h-1zm3 0h1v1h-1zm1 0h1v1h-1zm9 0h1v3h-1zm3 0h1v1h-1zm1 0h1v1h-1zm1 0h1v1h-1zm1 0h1v1h-1zm1 0h1v1h-1zm1 0h1v1h-1zm1 0h1v1h-1zm2 0h1v1h-1zm2 0h1v1h-1zm6 0h1v1h-1zm5 0h1v1h-1zm6 0h1v1h-1zm4 0h1v1h-1zm1 0h1v1h-1zm1 0h1v1h-1zm1 0h1v1h-1zm1 0h1v1h-1zm1 0h1v1h-1zm4 0h1v1h-1zm1 0h1v1h-1zm3 0h1v1h-1zm1 0h1v1h-1zm1 0h1v1h-1zm1 0h1v3h-1zm14 0h1v1h-1zm1 0h1v1h-1zm1 0h1v1h-1zm1 0h1v1h-1zm1 0h1v1h-1zm1 0h1v1h-1zm2 0h1v1h-1zm1 0h1v1h-1zm6 0h1v3h-1zm3 0h1v1h-1zm1 0h1v1h-1zm2 0h1v3h-1zm3 0h1v1h-1zm1 0h1v1h-1zm2 0h1v1h-1zm1 0h1v1h-1zm3 0h1v1h-1zm1 0h1v1h-1zm4 0h1v1h-1zm1 0h1v1h-1zm1 0h1v1h-1zm3 0h1v1h-1zm1 0h1v1h-1zm2 0h1v1h-1zm1 0h1v1h-1zm1 0h1v1h-1zm1 0h1v1h-1zm1 0h1v1h-1zm2 0h1v1h-1zm1 0h1v1h-1zm2 0h1v1h-1zm1 0h1v1h-1zm8 0h1v1h-1zm1 0h1v1h-1zm1 0h1v1h-1zm1 0h1v1h-1zm1 0h1v1h-1zm6 0h1v1h-1zm1 0h1v1h-1zm1 0h1v1h-1zm1 0h1v1h-1zm1 0h1v1h-1zm1 0h1v1h-1zm3 0h1v1h-1zm4 0h1v1h-1zm5 0h1v1h-1zm1 0h1v1h-1zm1 0h1v1h-1zm1 0h1v1h-1zm1 0h1v1h-1zm1 0h1v1h-1zm1 0h1v1h-1zm1 0h1v1h-1zM79 49h1v2h-1zm1 0h1v2h-1zm1 0h1v1h-1zm1 0h1v1h-1zm3 0h1v1h-1zm6 0h1v1h-1zm1 0h1v1h-1zm1 0h1v1h-1zm1 0h1v1h-1zm1 0h1v1h-1zm6 0h1v2h-1zm1 0h1v2h-1zm12 0h1v2h-1zm1 0h1v2h-1zm2 0h1v1h-1zm1 0h1v1h-1zm1 0h1v1h-1zm1 0h1v1h-1zm1 0h1v1h-1zm1 0h1v1h-1zm2 0h1v1h-1zm6 0h1v1h-1zm1 0h1v1h-1zm3 0h1v1h-1zm1 0h1v1h-1zm3 0h1v1h-1zm3 0h1v1h-1zm1 0h1v1h-1zm3 0h1v1h-1zm1 0h1v1h-1zm1 0h2v1h-2zm2 0h1v1h-1zm1 0h1v1h-1zm4 0h1v1h-1zm1 0h1v1h-1zm3 0h1v1h-1zm1 0h1v1h-1zm1 0h1v1h-1zm15 0h1v1h-1zm1 0h1v1h-1zm1 0h2v1h-2zm2 0h1v1h-1zm1 0h1v1h-1zm2 0h1v1h-1zm1 0h1v1h-1zm9 0h1v2h-1zm1 0h1v2h-1zm5 0h1v2h-1zm1 0h1v2h-1zm2 0h1v1h-1zm1 0h1v1h-1zm3 0h1v1h-1zm1 0h1v1h-1zm4 0h1v1h-1zm1 0h1v1h-1zm1 0h1v1h-1zm3 0h1v1h-1zm1 0h1v1h-1zm2 0h1v1h-1zm1 0h1v1h-1zm1 0h1v1h-1zm1 0h1v1h-1zm1 0h1v1h-1zm2 0h1v1h-1zm1 0h1v1h-1zm1 0h1v1h-1zm1 0h1v1h-1zm1 0h1v1h-1zm8 0h1v1h-1zm1 0h1v1h-1zm1 0h1v1h-1zm1 0h1v1h-1zm5 0h1v1h-1zm1 0h1v1h-1zm1 0h1v1h-1zm1 0h1v1h-1zm1 0h1v1h-1zm1 0h1v2h-1zm1 0h1v1h-1zm1 0h1v1h-1zm3 0h1v1h-1zm4 0h1v2h-1zm3 0h1v1h-1zm1 0h1v1h-1zm1 0h1v1h-1zm1 0h1v1h-1zm1 0h1v1h-1zm1 0h1v2h-1zm2 0h1v1h-1zm1 0h1v1h-1zm1 0h1v1h-1zm1 0h1v1h-1zM81 50h1v1h-1zm1 0h1v1h-1zm1 0h1v1h-1zm1 0h1v1h-1zm1 0h1v1h-1zm1 0h1v1h-1zm5 0h1v1h-1zm1 0h1v1h-1zm2 0h1v1h-1zm1 0h1v1h-1zm21 0h1v1h-1zm1 0h1v1h-1zm2 0h1v1h-1zm1 0h1v1h-1zm1 0h1v1h-1zm1 0h1v1h-1zm1 0h1v1h-1zm1 0h1v1h-1zm1 0h1v1h-1zm5 0h1v1h-1zm1 0h1v1h-1zm1 0h1v1h-1zm1 0h1v1h-1zm1 0h1v1h-1zm1 0h1v1h-1zm1 0h1v1h-1zm1 0h1v1h-1zm1 0h1v1h-1zm1 0h1v1h-1zm2 0h1v1h-1zm1 0h1v1h-1zm1 0h1v1h-1zm1 0h1v1h-1zm1 0h1v1h-1zm1 0h1v1h-1zm1 0h1v1h-1zm2 0h1v1h-1zm1 0h1v1h-1zm4 0h1v1h-1zm1 0h1v1h-1zm1 0h1v1h-1zm1 0h1v1h-1zm1 0h1v1h-1zm1 0h1v1h-1zm1 0h1v1h-1zm15 0h1v1h-1zm1 0h1v1h-1zm1 0h1v1h-1zm2 0h1v1h-1zm1 0h1v1h-1zm2 0h1v1h-1zm1 0h1v1h-1zm1 0h1v1h-1zm1 0h1v1h-1zm1 0h1v1h-1zm15 0h1v1h-1zm1 0h1v1h-1zm1 0h1v1h-1zm1 0h1v1h-1zm1 0h1v1h-1zm1 0h1v1h-1zm5 0h1v1h-1zm1 0h1v1h-1zm1 0h1v1h-1zm1 0h1v1h-1zm1 0h1v1h-1zm1 0h1v1h-1zm2 0h1v1h-1zm1 0h1v1h-1zm1 0h1v1h-1zm1 0h1v1h-1zm1 0h1v1h-1zm3 0h1v1h-1zm1 0h1v1h-1zm1 0h1v1h-1zm10 0h1v1h-1zm1 0h1v1h-1zm1 0h1v1h-1zm5 0h1v1h-1zm1 0h1v1h-1zm2 0h1v1h-1zm1 0h1v1h-1zm2 0h1v1h-1zm1 0h1v1h-1zm1 0h1v1h-1zm1 0h1v1h-1zm1 0h1v1h-1zm1 0h1v1h-1zm6 0h1v1h-1zm1 0h1v1h-1zm2 0h1v1h-1zm1 0h1v1h-1zm2 0h1v1h-1zm1 0h1v1h-1zm2 0h1v1h-1zm1 0h1v1h-1zM72 51h1v1h-1zm1 0h1v1h-1zm2 0h1v1h-1zm1 0h1v1h-1zm3 0h1v1h-1zm1 0h1v1h-1zm2 0h1v1h-1zm1 0h1v1h-1zm1 0h1v1h-1zm1 0h1v1h-1zm1 0h1v1h-1zm2 0h1v1h-1zm1 0h1v1h-1zm2 0h1v1h-1zm1 0h1v1h-1zm1 0h1v1h-1zm1 0h1v1h-1zm1 0h1v1h-1zm2 0h1v1h-1zm1 0h1v1h-1zm3 0h1v1h-1zm1 0h1v1h-1zm5 0h1v1h-1zm1 0h1v1h-1zm2 0h1v1h-1zm1 0h1v1h-1zm3 0h1v1h-1zm1 0h1v1h-1zm1 0h1v1h-1zm1 0h1v1h-1zm1 0h1v1h-1zm1 0h1v1h-1zm1 0h1v1h-1zm3 0h1v1h-1zm1 0h1v1h-1zm1 0h1v1h-1zm2 0h1v1h-1zm1 0h1v1h-1zm2 0h1v1h-1zm1 0h1v1h-1zm1 0h1v1h-1zm1 0h1v1h-1zm1 0h1v1h-1zm1 0h1v1h-1zm1 0h1v1h-1zm1 0h1v1h-1zm1 0h1v1h-1zm1 0h1v1h-1zm2 0h1v1h-1zm1 0h1v1h-1zm1 0h1v1h-1zm1 0h1v1h-1zm1 0h1v1h-1zm1 0h1v1h-1zm1 0h1v1h-1zm1 0h1v1h-1zm1 0h1v1h-1zm1 0h1v1h-1zm5 0h1v1h-1zm1 0h1v1h-1zm1 0h1v1h-1zm1 0h1v1h-1zm1 0h1v1h-1zm2 0h1v1h-1zm1 0h1v1h-1zm1 0h1v1h-1zm7 0h1v1h-1zm1 0h1v1h-1zm1 0h1v1h-1zm4 0h1v1h-1zm1 0h1v1h-1zm1 0h1v1h-1zm1 0h1v1h-1zm1 0h1v1h-1zm2 0h1v1h-1zm1 0h1v1h-1zm1 0h1v1h-1zm1 0h1v1h-1zm1 0h1v1h-1zm1 0h1v1h-1zm1 0h1v1h-1zm1 0h1v1h-1zm3 0h1v1h-1zm1 0h1v1h-1zm1 0h1v1h-1zm1 0h1v1h-1zm3 0h1v1h-1zm1 0h1v1h-1zm2 0h1v1h-1zm1 0h1v1h-1zm1 0h1v1h-1zm1 0h1v1h-1zm1 0h1v1h-1zm1 0h1v1h-1zm2 0h1v1h-1zm1 0h1v1h-1zm2 0h1v1h-1zm1 0h1v1h-1zm1 0h1v1h-1zm1 0h1v1h-1zm1 0h1v1h-1zm2 0h1v1h-1zm1 0h1v1h-1zm1 0h1v1h-1zm1 0h1v1h-1zm1 0h1v1h-1zm1 0h1v1h-1zm1 0h1v1h-1zm2 0h1v1h-1zm1 0h1v1h-1zm1 0h1v1h-1zm6 0h1v1h-1zm1 0h1v1h-1zm7 0h1v1h-1zm1 0h1v1h-1zm2 0h1v1h-1zm1 0h1v1h-1zm1 0h1v1h-1zm1 0h1v1h-1zm1 0h1v1h-1zm1 0h1v1h-1zm2 0h1v1h-1zm1 0h1v1h-1zm1 0h1v1h-1zm1 0h1v1h-1zm1 0h1v1h-1zm2 0h1v1h-1zm1 0h1v1h-1zm3 0h1v1h-1zm1 0h1v1h-1zm1 0h1v1h-1zm1 0h1v1h-1zm1 0h1v1h-1zm1 0h1v1h-1zm1 0h1v1h-1zm1 0h1v1h-1zm1 0h1v1h-1zm1 0h1v1h-1zm1 0h1v1h-1zM83 52h1v1h-1zm9 0h1v1h-1zm1 0h1v1h-1zm25 0h1v1h-1zm1 0h1v1h-1zm5 0h1v1h-1zm7 0h1v1h-1zm1 0h1v1h-1zm4 0h1v1h-1zm6 0h1v1h-1zm1 0h1v1h-1zm4 0h1v1h-1zm1 0h1v1h-1zm9 0h1v1h-1zm21 0h1v1h-1zm1 0h1v1h-1zm5 0h1v1h-1zm1 0h1v1h-1zm18 0h1v1h-1zm1 0h1v1h-1zm9 0h1v1h-1zm1 0h1v1h-1zm3 0h1v1h-1zm1 0h1v1h-1zm3 0h1v2h-1zm1 0h1v1h-1zm1 0h1v1h-1zm2 0h1v1h-1zm1 0h1v1h-1zm19 0h1v1h-1zm1 0h1v1h-1zm6 0h1v1h-1zm10 0h1v1h-1zm1 0h1v1h-1zm6 0h1v1h-1zm-52 1h1v1h-1zm1 0h1v1h-1zm1 0h1v1h-1zm1 0h1v1h-1zm2 0h1v1h-1zm2 0h1v1h-1zm1 0h1v1h-1zm1 0h1v1h-1zm-7 1h1v1h-1zm1 0h1v1h-1zm1 0h1v1h-1zm3 0h1v1h-1zm1 0h1v1h-1z"/><path fill="#cccccf" d="M22 31h1v1h-1z"/><path fill="#c59f9c" d="M28 56h1v1h-1z"/><path fill="#87352f" d="M23 57h1v1h-1z"/><path d="M25 2h1v1h-1zM3 22h1v1H3z" fill="#bf9592"/><path fill="#706362" d="M44 34h1v1h-1z"/><path fill="#7e2823" d="M3 36h1v1H3z"/><path fill="#eadddb" d="M53 41h1v1h-1z"/><path fill="#f9f2e5" d="M29 47h1v1h-1z"/><path d="M34 1h1v1h-1zm13 6h1v1h-1z" fill="#771913"/><path fill="#b98a87" d="M7 14h1v1H7z"/><path d="M55 15h1v1h-1zM2 20h1v1H2z" fill="#771c17"/><path fill="#7f2c29" d="M52 22h1v1h-1z"/><path fill="#741717" d="M0 23h1v1H0z"/><path fill="#e2e4e4" d="M41 34h1v1h-1z"/><path d="M45 7h1v1h-1zM5 27h1v1H5zm14 28h1v1h-1z" fill="#a46864"/><path fill="#dbc3c2" d="M39 6h1v1h-1z"/><path fill="#9b5b59" d="M52 23h1v1h-1z"/><path fill="#f7f8f9" d="M25 27h1v1h-1z"/><path fill="#985654" d="M52 36h1v1h-1z"/><path fill="#624629" d="M22 42h1v1h-1z"/><path fill="#7e2620" d="M49 50h1v1h-1z"/><path fill="#7a2018" d="M33 0h1v1h-1z"/><path fill="#761d1a" d="M57 18h1v1h-1z"/><path fill="#82302a" d="M33 55h1v1h-1z"/><path fill="#bcbdbf" d="M32 16h1v1h-1z"/><path fill="#a37d39" d="M39 30h1v1h-1z"/><path fill="#e1ba6f" d="M40 49h1v1h-1z"/><path fill="#8f443e" d="M50 49h1v1h-1z"/><path fill="#7c7368" d="M35 22h1v1h-1z"/><path d="M52 12h1v1h-1zm3 4h1v1h-1z" fill="#781a13"/><path d="M27 13h1v1h-1zm5 0h1v1h-1zM17 30h1v1h-1zm25 0h1v1h-1z" fill="#daa84e"/><path fill="#bebec1" d="M34 20h1v1h-1z"/><path fill="#d8261c" d="M29 22h1v1h-1z"/><path fill="#e0c4ab" d="M52 26h1v1h-1z"/><path fill="#bb2219" d="M29 28h1v1h-1z"/><path fill="#573924" d="M20 41h1v1h-1z"/><path fill="#8d403b" d="M10 9h1v1h-1z"/><path fill="#a76e6a" d="M21 56h1v1h-1z"/><path d="M26 43h1v1h-1zm7 0h1v1h-1z" fill="#5e3f26"/><path fill="#812923" d="M56 19h1v1h-1z"/><g fill="#781f19"><path d="M32 0h1v1h-1zm9 2h1v1h-1zM17 3h1v1h-1zm1 1h1v1h-1zm29 4h1v1h-1zm6 4h1v1h-1zm-3 2h1v1h-1zm8 9h1v1h-1zM0 29h1v1H0zm58 0h1v1h-1zM0 30h1v1H0zm1 0h1v1H1zm17 7h1v1h-1zm1 0h1v1h-1zm7 0h7v4h-7zm7 0h1v4h-1zm6 0h2v1h-2zm2 0h1v1h-1zm17 0h1v1h-1z"/><path d="M19 38h21v1H19zm21 0h1v1h-1zM2 39h1v1H2zm19 0h17v1H21zm17 0h1v1h-1zm-15 1h13v1H23zm13 0h1v1h-1zm-10 1h7v1h-7zm7 0h1v1h-1zm23 2h1v1h-1zm-3 4h1v1h-1zm-42 3h1v1h-1zm-1 2h1v1h-1z"/></g><path d="M51 16h1v1h-1zM30 56h1v1h-1z" fill="#bb8f8c"/><path fill="#837f7e" d="M32 19h1v1h-1z"/><path d="M37 22h1v1h-1zM12 32h1v1h-1zm35 0h1v1h-1z" fill="#d8a74f"/><path fill="#cdaba9" d="M48 48h1v1h-1z"/><path fill="#e9d2b0" d="M41 49h1v1h-1z"/><path fill="#dfc3aa" d="M33 52h1v1h-1z"/><path d="M44 3h1v1h-1zm10 9h1v1h-1zm3 5h1v1h-1zm2 6h1v1h-1zM2 42h1v1H2zm34 17h1v1h-1z" fill="#711c1c"/><path fill="#914a48" d="M39 51h1v1h-1z"/><path d="M42 8h1v1h-1zm-7 46h1v1h-1zm-10 1h1v1h-1z" fill="#af7a77"/><path fill="#dbaa51" d="M39 29h1v1h-1z"/><path fill="#bc908b" d="M7 24h1v1H7z"/><path fill="#781b15" d="M5 14h1v1H5z"/><path fill="#761e1a" d="M55 14h1v1h-1z"/><path fill="#6f6b69" d="M25 30h1v1h-1z"/><path fill="#781d1b" d="M50 51h1v1h-1z"/><path d="M47 5h1v1h-1zM5 12h1v1H5z" fill="#731a1a"/><path fill="#dfbb77" d="M30 49h1v1h-1z"/><path fill="#b07d79" d="M5 22h1v1H5z"/><path fill="#771d18" d="M7 38h1v1H7z"/><path fill="#daae60" d="M35 47h1v1h-1z"/><path fill="#f3eceb" d="M4 32h1v1H4z"/><path d="M4 14h1v1H4zm50 32h1v1h-1zM25 59h1v1h-1zm3 0h1v1h-1zm6 0h1v1h-1z" fill="#771f18"/><path fill="#e6c685" d="M11 17h1v1h-1z"/><path d="M53 19h1v1h-1zm2 15h1v1h-1z" fill="#dfc9c8"/><path fill="#98534f" d="M42 51h1v1h-1z"/><path d="M33 4h1v1h-1zM8 13h1v1H8zm39 34h1v1h-1zm-25 9h1v1h-1z" fill="#d5bab8"/><path d="M13 6h1v1h-1zm40 7h1v1h-1z" fill="#7c1e18"/><path d="M43 8h1v1h-1zM2 34h1v1H2z" fill="#bc908d"/><path d="M6 15h1v1H6zm1 28h1v1H7zm23 11h1v1h-1z" fill="#ab7370"/><path fill="#bd928e" d="M10 17h1v1h-1z"/><path fill="#761d17" d="M58 22h1v1h-1z"/><path fill="#7c7978" d="M25 31h1v1h-1z"/><path fill="#73562f" d="M34 43h1v1h-1z"/><path d="M38 1h1v1h-1zM8 19h1v1H8zm-7 2h1v1H1zm0 1h1v1H1zm5 2h1v1H6zm53 6h1v1h-1zM31 59h1v1h-1zm1 0h1v1h-1z" fill="#771e19"/><path fill="#a9706b" d="M26 54h1v1h-1z"/><path d="M9 12h1v1H9zm45 10h1v1h-1zM4 23h1v1H4z" fill="#7d2721"/><path fill="#9a9ca1" d="M45 33h1v1h-1z"/><path fill="#d5a249" d="M12 42h1v1h-1z"/><path d="M27 1h1v1h-1zm31 26h1v1h-1zm1 7h1v1h-1z" fill="#7a2019"/><path d="M10 15h1v1h-1zm47 9h1v1h-1z" fill="#9d5b57"/><path fill="#791d16" d="M57 36h1v1h-1z"/><path d="M18 41h1v1h-1zm23 0h1v1h-1z" fill="#daaa51"/><path fill="#e0bc7b" d="M28 46h1v1h-1z"/><path d="M11 47h1v1h-1zm24 10h1v1h-1z" fill="#84332d"/><path fill="#e4c58d" d="M23 47h1v1h-1z"/><path fill="#dfb975" d="M38 48h1v1h-1z"/><path d="M22 4h1v1h-1zm-9 3h1v1h-1z" fill="#c49e9b"/><path d="M5 42h1v1H5zm31 14h1v1h-1z" fill="#ae7975"/><path fill="#b6b5b8" d="M43 32h1v1h-1z"/><path d="M32 4h1v1h-1zm8 2h1v1h-1z" fill="#b07c78"/><path d="M26 7h1v1h-1zM7 33h1v1H7z" fill="#e0c5aa"/><path fill="#7f2a24" d="M42 7h1v1h-1z"/><path d="M13 11h1v1h-1zM7 42h2v1H7zm2 0h1v1H9z" fill="#8d413c"/><path fill="#83312b" d="M55 32h1v1h-1z"/><path fill="#786d6b" d="M35 35h1v1h-1z"/><path fill="#72140e" d="M51 47h1v1h-1z"/><path d="M36 3h1v1h-1zm7 50h1v1h-1zm-23 1h1v1h-1zm4 0h1v1h-1z" fill="#b78784"/><path d="M51 26h1v1h-1zm-29 1h1v1h-1zm15 0h1v1h-1zm-18 2h1v1h-1zm-6 2h1v1h-1zm33 0h1v1h-1zM9 37h1v1H9zm8 4h1v1h-1zm25 0h1v1h-1zm-20 9h1v1h-1z" fill="#d8a850"/><path fill="#c6231a" d="M30 28h1v1h-1z"/><path d="M50 39h1v1h-1zM39 50h1v1h-1z" fill="#e9d1ab"/><path fill="#a36764" d="M38 52h1v1h-1z"/><path d="M28 8h1v1h-1zm3 0h1v1h-1zM8 29h1v1H8zm43 0h1v1h-1zM8 30h1v1H8zm43 0h1v1h-1zM23 48h1v1h-1zm3 0h1v1h-1zm3 3h1v1h-1zm1 0h1v1h-1z" fill="#d5a349"/><path d="M19 8h1v1h-1zm30 8h1v1h-1zm1 26h1v1h-1z" fill="#751a15"/><path d="M7 27h1v1H7zm0 5h1v1H7z" fill="#e4caa5"/><path fill="#873732" d="M57 35h1v1h-1z"/><path d="M10 46h1v1h-1zm12 8h1v1h-1z" fill="#b98c89"/><path d="M18 2h1v1h-1zm27 53h1v1h-1z" fill="#7a1e1b"/><path fill="#d9ab55" d="M46 15h1v1h-1z"/><path fill="#7a1b15" d="M2 21h1v1H2z"/><path fill="#b27f7b" d="M6 21h1v1H6z"/><path d="M3 30h1v1H3zm50 14h1v1h-1z" fill="#72150f"/><g fill="#fff"><path d="M29 14h1v3h-1zm1 0h1v3h-1z"/><path d="M28 16h3v1h-3zm3 0h1v1h-1zm-4 1h5v1h-5zm5 0h1v1h-1zm-6 2h1v2h-1zm7 0h1v2h-1zm-7 2h1v1h-1zm7 0h1v1h-1zm-8 1h1v2h-1zm9 0h1v2h-1zm-9 2h1v1h-1zm9 0h1v1h-1zm-8 5h1v1h-1zm7 0h1v1h-1zm-7 1h1v1h-1zm1 0h1v1h-1zm5 0h1v1h-1zm1 0h1v1h-1zm-6 1h1v1h-1zm1 0h1v2h-1zm3 0h1v2h-1zm1 0h1v1h-1zm-13 1h5v1h-5zm5 0h1v2h-1zm11 0h5v1h-5zm5 0h1v1h-1z"/><path d="M15 33h10v1H15zm10 0h1v1h-1zm3 0h1v1h-1zm3 0h1v1h-1zm3 0h10v1H34zm10 0h1v1h-1zm-24 1h5v1h-5zm5 0h1v1h-1zm10 0h3v1h-3zm3 0h1v1h-1zM24 46h1v1h-1z"/></g><path fill="#fefefe" d="M34 25h1v1h-1z"/><path fill="#dbb165" d="M20 45h1v1h-1z"/><path fill="#bab9b8" d="M26 25h1v1h-1z"/><path d="M10 12h1v1h-1zM5 25h1v1H5z" fill="#cfb0ae"/><path fill="#807973" d="M25 19h1v1h-1z"/><path fill="#301916" d="M29 19h1v1h-1z"/><path d="M57 30h1v1h-1zM5 32h1v1H5z" fill="#bf9492"/><path fill="#bc918e" d="M4 40h1v1H4z"/><path d="M56 44h1v1h-1zM15 56h1v1h-1zm27 1h1v1h-1z" fill="#6d2424"/><path fill="#741712" d="M24 6h1v1h-1z"/><path d="M8 46h1v1H8zm11 7h1v1h-1z" fill="#bd918e"/><path d="M17 43h2v1h-2zm2 0h1v1h-1z" fill="#d6a750"/><path d="M23 7h1v1h-1zm24 7h1v1h-1zM7 36h1v1H7z" fill="#9b5a58"/><path fill="#735c38" d="M28 13h1v1h-1z"/><path d="M10 14h1v1h-1zm5 39h1v1h-1z" fill="#85342f"/><path fill="#944f4d" d="M8 20h1v1H8z"/><path fill="#881e17" d="M29 29h1v1h-1z"/><path fill="#dcb15d" d="M51 34h1v1h-1z"/><path fill="#82302b" d="M6 36h1v1H6z"/><path fill="#843331" d="M22 7h1v1h-1z"/><path fill="#8f4544" d="M8 39h1v1H8z"/><path fill="#6e542f" d="M18 40h1v1h-1z"/><path d="M25 7h1v1h-1zm9 0h1v1h-1z" fill="#d2b1a2"/><path fill="#761c14" d="M3 17h1v1H3z"/><path fill="#92211a" d="M29 26h1v1h-1z"/><path fill="#c19442" d="M23 27h1v1h-1z"/><path fill="#daa84f" d="M45 31h1v1h-1z"/><path fill="#52311f" d="M45 35h1v1h-1z"/><path fill="#d5a248" d="M47 42h1v1h-1z"/><path fill="#722" d="M54 47h1v1h-1z"/><path d="M35 1h1v1h-1zm10 10h1v1h-1zm5 0h1v1h-1zM1 23h1v1H1zm-1 9h1v1H0zm59 1h1v1h-1zM1 35h1v1H1zm0 2h1v1H1zm47 8h1v1h-1zm-35 3h1v1h-1zm20 8h1v1h-1zm-4 3h1v1h-1z" fill="#771e18"/><path fill="#bd9548" d="M36 43h1v1h-1z"/><path d="M10 8h1v1h-1zm45 9h1v1h-1zM7 47h1v1H7zm9 8h1v1h-1zm2 1h1v1h-1z" fill="#791c16"/><path fill="#bbbbbe" d="M27 16h1v1h-1z"/><path fill="#a8803a" d="M36 24h1v1h-1z"/><path fill="#883a38" d="M6 27h1v1H6z"/><path d="M12 44h1v1h-1zm32 3h1v1h-1z" fill="#e7d1b7"/><path d="M29 0h1v1h-1zm1 0h1v1h-1zm-2 3h1v1h-1zm-9 1h1v1h-1zM6 12h1v1H6zm51 7h1v1h-1zm-2 3h1v1h-1zM4 44h1v1H4zm10 9h1v1h-1zm20 4h1v1h-1zm5 0h1v1h-1zm-4 1h1v1h-1z" fill="#771d17"/><path fill="#9c5b57" d="M48 10h1v1h-1z"/><path d="M55 27h1v1h-1zM32 54h1v1h-1z" fill="#873833"/><path fill="#a36765" d="M22 52h1v1h-1z"/><path d="M21 2h1v1h-1zm36 36h1v1h-1zm-5 9h1v1h-1z" fill="#791a14"/><path d="M38 9h1v1h-1zM8 24h1v1H8zm1 14h1v1H9zm12 12h1v1h-1z" fill="#e2bd74"/><path d="M15 10h1v1h-1zm39 22h1v1h-1zm-9 18h1v1h-1z" fill="#9c5b56"/><path fill="#a66b67" d="M6 18h1v1H6z"/><path fill="#4f2623" d="M28 28h1v1h-1z"/><path d="M14 6h1v1h-1zm44 24h1v1h-1zM28 54h1v1h-1z" fill="#7b241e"/><path d="M42 9h1v1h-1zm11 26h1v1h-1z" fill="#802d28"/><path d="M23 25h1v1h-1zm13 0h1v1h-1z" fill="#a77f3a"/><path d="M7 29h1v1H7zm0 1h1v1H7z" fill="#e8ce9e"/><path fill="#b6b6b7" d="M21 31h1v1h-1z"/><path d="M30 4h1v1h-1zm6 0h1v1h-1zM6 44h1v1H6z" fill="#d9c0be"/><path d="M25 9h1v1h-1zm9 0h1v1h-1zm2 37h1v1h-1zm1 0h1v1h-1zm-16 1h1v1h-1zm1 1h1v1h-1zm13 1h1v1h-1zm-10 1h1v1h-1zm8 0h1v1h-1z" fill="#d6a54e"/><path fill="#7c6134" d="M33 16h1v1h-1z"/><path fill="#e0ba6d" d="M49 19h1v1h-1z"/><path fill="#a56965" d="M54 31h1v1h-1z"/><path d="M34 3h1v2h-1zm0 2h1v1h-1zm20 23h1v1h-1zM7 46h1v1H7z" fill="#a76d69"/><path d="M3 25h1v1H3zm49 16h1v1h-1z" fill="#b68582"/><path fill="#7d653d" d="M36 30h1v1h-1z"/><path fill="#7e7b7a" d="M29 33h1v1h-1z"/><path fill="#dabeb1" d="M43 48h1v1h-1z"/><path fill="#812e29" d="M16 54h1v1h-1z"/><path fill="#8a3f3d" d="M48 15h1v1h-1z"/><path fill="#7b221d" d="M28 58h1v1h-1z"/><path d="M51 24h1v1h-1zM24 51h1v1h-1z" fill="#e3bf77"/><path d="M51 17h1v1h-1zm4 11h1v1h-1zM6 42h1v1H6z" fill="#ceaeac"/><path fill="#d6a64c" d="M48 41h1v1h-1z"/><path d="M9 43h1v1H9zm36 8h1v1h-1z" fill="#944d48"/><path fill="#802720" d="M37 2h1v1h-1z"/><path fill="#644a2a" d="M44 37h1v1h-1z"/><path fill="#e9d2ae" d="M10 41h1v1h-1z"/><path fill="#6b1917" d="M37 41h1v1h-1z"/><path fill="#f1e1c4" d="M26 47h1v1h-1z"/><path fill="#cfa24e" d="M46 35h1v1h-1z"/><path d="M15 9h1v1h-1zm25 43h1v1h-1z" fill="#924a45"/><path fill="#aa716e" d="M4 29h1v1H4z"/><path fill="#cfb0ad" d="M20 53h1v1h-1z"/><path d="M27 8h1v1h-1zm5 0h1v1h-1zM8 27h1v1H8zm0 5h1v1H8zm19 19h1v1h-1z" fill="#d6a54a"/><path fill="#7c633b" d="M23 30h1v1h-1z"/><path fill="#56140f" d="M16 35h1v1h-1z"/><path fill="#604f4c" d="M39 35h1v1h-1z"/><path fill="#b27e7b" d="M4 38h1v1H4z"/><path fill="#9c7b3e" d="M21 42h1v1h-1z"/><path d="M4 45h1v1H4zm29 14h1v1h-1z" fill="#781e1a"/><path fill="#904641" d="M43 54h1v1h-1z"/><path fill="#e8d2b5" d="M12 15h1v1h-1z"/><path fill="#785d30" d="M46 33h1v1h-1z"/><path fill="#e0c6ad" d="M22 51h1v1h-1z"/><path fill="#d9ac55" d="M44 13h1v1h-1z"/><path fill="#751a13" d="M52 13h1v1h-1z"/><path fill="#7d2825" d="M6 26h1v1H6z"/><path fill="#ccaba9" d="M4 34h1v1H4z"/><path fill="#e8d2af" d="M49 41h1v1h-1z"/><path fill="#ddb46a" d="M31 49h1v1h-1z"/><path fill="#77221a" d="M39 58h1v1h-1z"/><path d="M11 10h1v1h-1zm38 4h1v1h-1zM3 37h1v1H3zm49 5h1v1h-1z" fill="#d7bdbb"/><path d="M58 20h1v1h-1zm1 12h1v1h-1zM1 39h1v1H1zm54 6h1v1h-1zM20 58h1v1h-1z" fill="#782018"/><path fill="#e1bd73" d="M9 21h1v1H9z"/><path d="M20 42h1v1h-1zm19 0h1v1h-1z" fill="#d3a54f"/><path fill="#d7a854" d="M29 49h1v1h-1z"/><path d="M43 5h1v1h-1zm14 34h1v1h-1zm-46 6h1v1h-1zm35 4h1v1h-1zm1 0h1v1h-1zm-32 1h1v1h-1zm29 0h1v1h-1zm-3 1h1v1h-1zm3 0h1v1h-1zm-31 1h1v1h-1zm33 0h1v1h-1z" fill="#751a14"/><path d="M45 8h1v1h-1zm10 21h1v1h-1z" fill="#dcc4c3"/><path fill="#c8a3a1" d="M53 16h1v1h-1z"/><path d="M2 24h1v1H2zm55 5h1v1h-1zM23 56h1v1h-1z" fill="#9c5a55"/><path fill="#f5e9d3" d="M27 47h1v1h-1z"/><path fill="#7d2620" d="M20 56h1v1h-1z"/><path d="M29 4h1v1h-1zM3 31h1v1H3z" fill="#893a35"/><path fill="#873934" d="M5 23h1v1H5z"/><path fill="#bf9491" d="M3 28h1v1H3z"/><path fill="#d8aa52" d="M14 45h1v1h-1z"/><path fill="#8f4641" d="M46 8h1v1h-1z"/><path fill="#701913" d="M39 36h1v1h-1z"/><path d="M29 44h1v1h-1zm1 0h1v1h-1z" fill="#c09749"/><path fill="#b4827e" d="M47 48h1v1h-1z"/><path fill="#806333" d="M29 10h1v1h-1z"/><path fill="#9f5e5a" d="M56 20h1v1h-1z"/><path fill="#a8803b" d="M23 24h1v1h-1z"/><path fill="#533330" d="M27 24h1v1h-1z"/><path fill="#4d1b17" d="M42 35h1v1h-1z"/><path fill="#751812" d="M3 39h1v1H3z"/><path fill="#721611" d="M34 53h1v1h-1z"/><path d="M15 55h1v1h-1zm15 4h1v1h-1z" fill="#781e17"/><path fill="#6d0d07" d="M11 14h1v1h-1z"/><path fill="#e9d1a8" d="M9 20h1v1H9z"/><path d="M7 28h1v1H7zm0 3h1v1H7z" fill="#e7cda0"/><path fill="#d1b3b0" d="M3 32h1v1H3z"/><path d="M39 5h1v1h-1zm10 37h1v1h-1zm-32 7h1v1h-1z" fill="#b98b88"/><path fill="#d9c1bf" d="M7 16h1v1H7z"/><path d="M5 21h1v1H5zm49 21h1v1h-1z" fill="#d3b7b5"/><path fill="#a66c68" d="M29 57h1v1h-1z"/><path fill="#725c39" d="M31 13h1v1h-1z"/><path fill="#625138" d="M30 11h1v1h-1z"/><path fill="#706c6b" d="M34 30h1v1h-1z"/><path fill="#dfc4aa" d="M52 33h1v1h-1z"/><path d="M9 44h1v1H9zm9 10h1v1h-1zm19 2h1v1h-1z" fill="#aa716d"/><path d="M28 10h1v1h-1zm3 0h1v1h-1z" fill="#deac51"/><path d="M50 21h1v1h-1zM8 35h1v1H8z" fill="#e2be75"/><path fill="#72150e" d="M20 7h1v1h-1z"/><path fill="#934d4b" d="M20 8h1v1h-1z"/><path d="M53 14h1v1h-1zm1 13h1v1h-1z" fill="#822f29"/><path d="M56 15h1v1h-1zm3 21h1v1h-1zM3 44h1v1H3zm14 13h1v1h-1z" fill="#802020"/><path d="M50 16h1v1h-1zM10 45h1v1h-1zm17 10h1v1h-1z" fill="#ac7571"/><path fill="#807a73" d="M34 19h1v1h-1z"/><path fill="#d9bfbd" d="M54 21h1v1h-1z"/><path d="M21 5h1v1h-1zm-8 46h1v1h-1z" fill="#97534e"/><path fill="#4d1c18" d="M17 35h1v1h-1z"/><path fill="#573c39" d="M26 35h1v1h-1z"/><path fill="#573a24" d="M39 41h1v1h-1z"/><path fill="#d7a54b" d="M28 45h1v1h-1z"/><path fill="#d7a853" d="M32 46h1v1h-1z"/><path fill="#dcb05d" d="M51 25h1v1h-1z"/><path d="M8 10h1v1H8zm43 0h1v1h-1zM1 33h1v1H1zm35 8h1v1h-1zM25 58h1v1h-1z" fill="#7a1e18"/><g fill="#d6a64f"><path d="M26 9h1v4h-1zm1 0h1v2h-1zm5 0h1v2h-1zm1 0h1v4h-1z"/><path d="M22 10h5v3h-5zm12 0h3v4h-3zm3 0h1v11h-1z"/><path d="M20 11h7v2h-7zm7 0h1v1h-1zm5 0h7v1h-7zm7 0h1v17h-1z"/><path d="M18 12h8v2h-8zm20 0h3v16h-3zm3 0h1v16h-1z"/><path d="M17 13h9v1h-9zm9 0h1v1h-1zm7 0h9v1h-9zm9 0h1v16h-1zm-26 1h9v2h-9zm9 0h1v1h-1z"/><path d="M34 14h9v1h-9zm9 0h1v15h-1zm-28 1h9v3h-9z"/><path d="M35 15h9v1h-9zm9 0h1v14h-1zm-30 1h10v2H14zm10 0h1v1h-1z"/><path d="M35 16h10v1H35zm10 0h1v14h-1zm-32 1h10v4H13z"/><path d="M36 17h10v1H36zm10 0h1v13h-1zm-34 1h11v3H12zm11 0h1v1h-1z"/><path d="M36 18h11v1H36zm11 0h1v13h-1zm-36 2h11v8H11zm37 0h1v19h-1zm-26 1h1v1h-1z"/><path d="M37 21h11v1H37zm-27 1h11v6H10zm39 0h1v15h-1z"/><path d="M9 26h12v2H9zm41 0h1v7h-1zM9 28h13v1H9zm13 0h1v1h-1zm15 0h13v1H37zM9 29h8v1H9zm8 0h1v1h-1zm25 0h8v1h-8zM9 30h5v1H9zm5 0h1v1h-1zm31 0h5v1h-5zM9 31h3v2H9zm3 0h1v1h-1zm35 0h3v1h-3zM9 33h2v1H9zm2 0h1v6h-1zm39 0h1v1h-1zm-40 1h1v3h-1zm2 2h1v5h-1zm35 0h2v3h-2z"/><path d="M10 37h2v1h-2zm39 0h1v1h-1zm-36 1h1v4h-1zm33 0h2v3h-2z"/><path d="M11 39h3v1h-3zm3 0h1v4h-1zm31 0h3v2h-3zm3 0h1v1h-1zm-33 1h1v4h-1z"/><path d="M44 40h3v2h-3zm-32 1h4v1h-4zm4 0h1v4h-1z"/><path d="M43 41h4v1h-4zm4 0h1v1h-1zm-34 1h4v1h-4zm4 0h1v1h-1zm24 0h5v1h-5zm5 0h1v1h-1zm-32 1h2v1h-2zm26 0h5v1h-5zm5 0h1v1h-1zm-30 1h1v1h-1zm22 0h7v1h-7zm7 0h1v1h-1zm-28 1h1v1h-1zm1 0h1v1h-1zm16 0h10v1H33zm10 0h1v1h-1zm-26 1h2v1h-2zm2 0h1v1h-1zm21 0h2v1h-2zm2 0h1v1h-1zm-24 1h2v1h-2zm2 0h1v1h-1zm21 0h1v1h-1zm-21 1h1v1h-1zm1 0h1v1h-1zm1 1h5v1h-5zm5 0h1v1h-1zm-1 1h2v1h-2zm2 0h1v1h-1z"/></g><path d="M30 2h1v1h-1zm3 1h1v1h-1z" fill="#e4d2d1"/><path fill="#6d0d06" d="M15 8h1v1h-1z"/><path fill="#ead2ad" d="M10 18h1v1h-1z"/><path fill="#b6b5b5" d="M30 18h1v1h-1z"/><path fill="#cca9a1" d="M50 19h1v1h-1z"/><path fill="#f8fafa" d="M40 34h1v1h-1z"/><path fill="#6c1b15" d="M29 35h1v1h-1z"/><path d="M23 1h1v1h-1zM3 42h1v1H3zm51 3h1v1h-1zM9 51h1v1H9z" fill="#791f1a"/><path fill="#e7cc9d" d="M29 52h1v1h-1z"/><path fill="#61504e" d="M34 35h1v1h-1z"/><path d="M51 9h1v1h-1zm3 4h1v1h-1zm5 12h1v1h-1zM27 59h1v1h-1z" fill="#782019"/><path fill="#9d5d58" d="M54 18h1v1h-1z"/><path d="M54 19h1v1h-1zM3 21h1v1H3zm49 19h1v1h-1zM41 54h1v1h-1z" fill="#c49d9b"/><path fill="#7a231d" d="M56 21h1v1h-1z"/><path fill="#5b3d3a" d="M32 24h1v1h-1z"/><path fill="#d1b2b0" d="M54 24h1v1h-1z"/><path fill="#cacccc" d="M17 34h1v1h-1z"/><path fill="#802b15" d="M23 0h1v1h-1z"/><path fill="#812822" d="M19 56h1v1h-1z"/><path fill="#731a14" d="M19 36h1v1h-1z"/><path fill="#781d18" d="M3 43h1v1H3z"/><path fill="#d7a955" d="M39 47h1v1h-1z"/><path fill="#ae853c" d="M36 26h1v1h-1z"/><path fill="#7b231a" d="M58 39h1v1h-1z"/><path fill="#fefdfb" d="M31 48h1v1h-1z"/><path fill="#4b413f" d="M32 25h1v1h-1z"/><path fill="#e0c6ae" d="M51 37h1v1h-1z"/><path fill="#83322b" d="M20 52h1v1h-1z"/><path d="M47 16h1v1h-1zM12 43h1v1h-1zm4 4h1v1h-1z" fill="#deb565"/><path d="M42 10h1v1h-1zm15 24h1v1h-1z" fill="#bb8d8a"/><path d="M2 32h1v1H2zm9 17h1v1h-1zm6 4h1v1h-1zm11 2h1v1h-1z" fill="#be9390"/><path fill="#731710" d="M45 48h1v1h-1z"/><path d="M37 3h1v1h-1zM20 4h1v1h-1zm26 7h1v1h-1z" fill="#d1b3b1"/><path fill="#822b25" d="M12 7h1v1h-1z"/><path fill="#b78885" d="M12 8h1v1h-1z"/><path fill="#cdadaa" d="M52 15h1v1h-1z"/><path fill="#b98b87" d="M49 17h1v1h-1z"/><path fill="#70110c" d="M51 19h1v1h-1z"/><path fill="#bdbdbf" d="M34 29h1v1h-1z"/><path fill="#8d4241" d="M28 53h1v1h-1z"/><path d="M29 3h1v1h-1zm20 9h1v1h-1zm-37 1h1v1h-1zm15 41h1v1h-1z" fill="#863631"/><path fill="#52130f" d="M31 35h1v1h-1z"/><path fill="#dec7c6" d="M4 37h1v1H4z"/><path d="M12 46h1v1h-1zm23 7h1v1h-1z" fill="#6e0f09"/><path d="M21 53h1v1h-1zm8 3h1v1h-1z" fill="#ad7774"/><path d="M29 2h1v1h-1zm8 52h1v1h-1z" fill="#c19996"/><path fill="#a36867" d="M13 13h1v1h-1z"/><path fill="#771d19" d="M53 25h1v1h-1z"/><path fill="#802c2a" d="M6 33h1v1H6z"/><path fill="#cca9a0" d="M40 9h1v1h-1z"/><path fill="#a1645f" d="M22 5h1v1h-1z"/><path fill="#7e7872" d="M26 17h1v1h-1z"/><path fill="#751d1d" d="M1 20h1v1H1z"/><path fill="#745f3e" d="M42 31h1v1h-1z"/><path fill="#f8f8f7" d="M27 32h1v1h-1z"/><path fill="#d6bcba" d="M20 5h1v1h-1z"/><path fill="#d0b2af" d="M56 30h1v1h-1z"/><path fill="#bc9447" d="M23 43h1v1h-1z"/><path fill="#f3ebeb" d="M9 47h1v1H9z"/><path fill="#886936" d="M35 20h1v1h-1z"/><path d="M40 5h1v1h-1zm17 23h1v1h-1z" fill="#dbc4c2"/><path fill="#eee3e2" d="M41 6h1v1h-1z"/><path fill="#e7c685" d="M17 11h1v1h-1z"/><path fill="#6a1515" d="M17 2h1v1h-1z"/><path fill="#771c15" d="M7 48h1v1H7z"/><path d="M36 6h1v1h-1zM23 55h1v1h-1z" fill="#ab736f"/><path d="M40 10h1v1h-1zM10 40h1v1h-1z" fill="#e0b96c"/><path fill="#deb363" d="M16 12h1v1h-1z"/><path fill="#c6c4c4" d="M26 31h1v1h-1z"/><path fill="#e5e7e7" d="M18 34h1v1h-1z"/><path fill="#721510" d="M35 6h1v1h-1z"/><path fill="#7f2c26" d="M13 12h1v1h-1z"/><path fill="#b1873d" d="M28 12h1v1h-1z"/><path d="M2 28h1v1H2zm49 14h1v1h-1zM17 52h1v1h-1z" fill="#b88a87"/><path fill="#8c6b34" d="M24 29h1v1h-1z"/><path fill="#f1dfc0" d="M22 45h1v1h-1z"/><path d="M26 0h1v1h-1zm30 16h1v1h-1zm2 22h1v1h-1z" fill="#792018"/><path fill="#7b221c" d="M1 32h1v1H1z"/><path fill="#94753b" d="M24 43h1v1h-1z"/><path fill="#7a2017" d="M7 10h1v1H7z"/><path fill="#573c25" d="M17 39h1v1h-1z"/><path fill="#f6ecd9" d="M23 45h1v1h-1z"/><path d="M43 9h1v1h-1zM2 27h1v1H2zm1 8h1v1H3zm47 12h1v1h-1z" fill="#802d27"/><path d="M18 48h1v1h-1zm23 0h1v1h-1z" fill="#d6a64b"/><path fill="#736248" d="M24 28h1v1h-1z"/><path fill="#382929" d="M14 34h1v1h-1z"/><path fill="#601716" d="M16 37h1v1h-1z"/><path fill="#cba8a0" d="M40 50h1v1h-1z"/><path fill="#771a13" d="M27 58h1v1h-1z"/><path fill="#c9a5a3" d="M49 10h1v1h-1z"/><path fill="#d5b9b7" d="M16 6h1v1h-1z"/><path d="M19 39h1v1h-1zm21 0h1v1h-1z" fill="#7b1e19"/><path fill="#532f20" d="M27 43h1v1h-1z"/><path d="M17 4h1v1h-1zm31 3h1v1h-1zm10 25h1v1h-1zM11 51h1v1h-1zm37 0h1v1h-1zm1 0h1v1h-1zm-38 1h1v1h-1zm36 1h1v1h-1zm-13 5h1v1h-1z" fill="#7a1f19"/><path fill="#755d39" d="M25 18h1v1h-1z"/><path fill="#c0bfbe" d="M33 25h1v1h-1z"/><path fill="#6f1812" d="M20 36h1v1h-1z"/><path fill="#f7eede" d="M28 47h1v1h-1z"/><path fill="#7a2119" d="M16 56h1v1h-1z"/><path d="M41 5h1v1h-1zm13 11h1v1h-1zM22 53h1v1h-1zm19 2h1v1h-1z" fill="#9e5e5a"/><path d="M18 9h1v1h-1zm26 39h1v1h-1zm-24 3h1v1h-1z" fill="#8e4442"/><path fill="#73160f" d="M50 10h1v1h-1z"/><path fill="#924b49" d="M9 18h1v1H9z"/><path fill="#c6a19f" d="M57 31h1v1h-1z"/><path fill="#caa7a5" d="M54 41h1v1h-1z"/><path fill="#802c28" d="M34 6h1v1h-1z"/><path fill="#c39b95" d="M8 21h1v1H8z"/><path d="M54 23h1v1h-1zm-4 23h1v1h-1zm-10 9h1v1h-1z" fill="#8f4540"/><path fill="#583f3c" d="M40 35h1v1h-1z"/><path fill="#96504b" d="M50 15h1v1h-1z"/><path fill="#761f19" d="M29 20h1v1h-1z"/><path d="M55 24h1v1h-1zM41 53h1v1h-1z" fill="#ccaaa7"/><path fill="#db261c" d="M30 25h1v1h-1z"/><path d="M32 1h1v1h-1zm13 3h1v1h-1zM1 27h1v1H1zm44 27h1v1h-1zm1 0h1v1h-1z" fill="#791f18"/><path d="M28 6h3v1h-3zm3 0h1v1h-1z" fill="#904847"/><path fill="#741710" d="M11 8h1v1h-1z"/><path d="M56 25h1v2h-1zm0 2h1v1h-1z" fill="#812e28"/><path d="M22 35h1v1h-1zm1 0h1v1h-1z" fill="#7d7573"/><path fill="#dfb667" d="M47 43h1v1h-1z"/><path fill="#f0dfc1" d="M25 46h1v1h-1z"/><path fill="#e8d1b7" d="M15 47h1v1h-1z"/><path d="M25 5h1v1h-1zM4 26h1v1H4z" fill="#bf9693"/><path fill="#d8aa53" d="M45 45h1v1h-1z"/><path fill="#ead5b4" d="M46 45h1v1h-1z"/><path fill="#680500" d="M52 16h1v1h-1z"/><path fill="#8b6b34" d="M35 29h1v1h-1z"/><path fill="#63130f" d="M44 35h1v1h-1z"/><path d="M8 45h1v1H8zm34 4h1v1h-1z" fill="#ba8d8a"/><path fill="#ddc1a7" d="M26 52h1v1h-1z"/><path d="M5 15h1v1H5zm49 0h1v1h-1z" fill="#85302a"/><path fill="#e8cb96" d="M23 8h1v1h-1z"/><path d="M48 8h1v1h-1zM31 58h1v1h-1z" fill="#7c241e"/><path d="M6 19h1v1H6zm50 19h1v1h-1zm-4 7h1v1h-1z" fill="#c9a6a4"/><path fill="#802d29" d="M25 6h1v1h-1z"/><path fill="#b58582" d="M17 7h1v1h-1z"/><path d="M51 14h1v1h-1zM6 45h1v1H6z" fill="#7d2621"/><path d="M5 26h1v1H5zm-2 1h1v1H3zm51 3h1v1h-1z" fill="#904742"/><path fill="#87201a" d="M30 26h1v1h-1z"/><path fill="#be938f" d="M5 34h1v1H5z"/><path fill="#e4c798" d="M30 52h1v1h-1z"/><path fill="#791a13" d="M16 4h1v1h-1z"/><path fill="#e0b86a" d="M10 19h1v1h-1z"/><path fill="#e7cca1" d="M52 28h1v1h-1z"/><path fill="#dfdede" d="M25 32h1v1h-1z"/><path fill="#58140f" d="M43 35h1v1h-1z"/><path d="M36 42h1v1h-1zm-6 1h1v1h-1z" fill="#4e241b"/><path fill="#ad7874" d="M9 15h1v1H9z"/><path fill="#d9a84e" d="M28 11h1v1h-1z"/><path fill="#741d18" d="M31 27h1v1h-1z"/><path fill="#dba84b" d="M21 43h1v1h-1z"/><path fill="#c49c97" d="M21 51h1v1h-1z"/><path fill="#caa8a5" d="M22 6h1v1h-1z"/><path fill="#8f4645" d="M6 31h1v1H6z"/><path fill="#faf3e8" d="M31 47h1v1h-1z"/><path d="M17 54h1v1h-1zm17 0h1v1h-1z" fill="#995652"/><path fill="#c19795" d="M19 54h1v1h-1z"/><path d="M21 7h1v1h-1zM9 8h1v1H9zm47 9h1v1h-1zm2 4h1v1h-1zM0 26h1v1H0zm59 1h1v1h-1zM0 31h1v1H0zm1 5h1v1H1zm57 0h1v1h-1zM1 38h1v1H1zm7 12h1v1H8zm40 3h1v1h-1z" fill="#781f1a"/><path d="M20 40h1v1h-1zm19 0h1v1h-1z" fill="#6f1a17"/><path d="M5 38h1v1H5zm16 14h1v1h-1zm18 2h1v1h-1z" fill="#b48380"/><path d="M55 19h1v1h-1zm0 4h1v1h-1zm1 8h1v1h-1zM3 33h1v1H3zm50 4h1v1h-1zm-4 8h1v1h-1z" fill="#cdacaa"/><path fill="#be938d" d="M51 21h1v1h-1z"/><path d="M4 31h1v1H4zm23 26h1v1h-1z" fill="#914843"/><path fill="#dcdde0" d="M23 31h1v1h-1z"/><path fill="#634629" d="M37 42h1v1h-1z"/><path fill="#e6d1b7" d="M47 44h1v1h-1z"/><path fill="#761e15" d="M21 58h1v1h-1z"/><path d="M28 1h1v1h-1zm-9 1h1v1h-1zm28 4h1v1h-1zM16 9h1v1h-1zM0 35h1v1H0zm2 6h1v1H2zm37 11h1v1h-1z" fill="#79201a"/><path d="M49 8h1v1h-1zm1 1h1v1h-1z" fill="#781c15"/><path fill="#8e423d" d="M49 9h1v1h-1z"/><path d="M3 23h1v1H3zm46 21h1v1h-1z" fill="#7c2721"/><path fill="#533020" d="M32 43h1v1h-1z"/><path d="M19 45h1v1h-1zm21 2h1v1h-1z" fill="#d6a650"/><path fill="#761d18" d="M31 0h1v1h-1z"/><path d="M44 8h1v1h-1zM9 46h1v1H9z" fill="#ccaba8"/><path d="M53 29h1v1h-1zM15 48h1v1h-1zm26 2h1v1h-1zm-4 2h1v1h-1z" fill="#8f4644"/><path fill="#b8b7b9" d="M38 31h1v1h-1z"/><path fill="#e5c892" d="M26 46h1v1h-1z"/><path fill="#c8a4a1" d="M25 56h1v1h-1z"/><path fill="#7f251e" d="M21 57h1v1h-1z"/><path d="M26 8h1v1h-1zm7 0h1v1h-1zm4 1h1v1h-1z" fill="#d8a84f"/><path d="M52 21h1v1h-1zM16 51h1v1h-1zm21 2h1v1h-1z" fill="#8d423d"/><path d="M54 35h1v1h-1zm-5 14h1v1h-1z" fill="#c19895"/><path d="M54 37h1v1h-1zM32 55h1v1h-1z" fill="#caa6a4"/><path fill="#c6a09b" d="M38 51h1v1h-1z"/><path d="M32 3h1v1h-1zm-1 51h1v1h-1z" fill="#9d5c58"/><path d="M15 14h1v1h-1zm29 0h1v1h-1zm-30 1h1v1h-1zm31 0h1v1h-1zM14 44h1v1h-1zm1 1h1v1h-1zm3 0h1v1h-1zm14 5h1v1h-1z" fill="#d5a54d"/><path fill="#ddb463" d="M12 16h1v1h-1z"/><path fill="#ae863c" d="M23 26h1v1h-1z"/><path fill="#a1a2a1" d="M31 29h1v1h-1z"/><path d="M26 42h1v1h-1zm7 0h1v1h-1z" fill="#711b17"/><path fill="#d8a64c" d="M29 45h1v1h-1z"/><path fill="#761a14" d="M22 58h1v1h-1z"/><path fill="#e9d2ad" d="M18 10h1v1h-1z"/><path fill="#7d211b" d="M33 58h1v1h-1z"/><path d="M14 14h1v1h-1zm23 36h1v1h-1z" fill="#d8a851"/><path fill="#e7e8eb" d="M24 31h1v1h-1z"/><path fill="#d9bdb0" d="M48 43h1v1h-1z"/><path d="M42 5h1v1h-1zm-31 7h1v1h-1zm-3 5h1v1H8z" fill="#c9a6a3"/><path fill="#e2ae51" d="M36 29h1v1h-1z"/><path fill="#8a3934" d="M36 57h1v1h-1z"/><path fill="#a26460" d="M4 21h1v1H4z"/><path d="M25 16h1v1h-1zm9 0h1v1h-1z" fill="#dcaa50"/><path fill="#e6d6d5" d="M5 18h1v1H5z"/><path fill="#c09694" d="M4 36h1v1H4z"/><path fill="#e3c287" d="M27 46h1v1h-1z"/><path fill="#e8cb97" d="M36 8h1v1h-1z"/><path fill="#58413e" d="M19 35h1v1h-1z"/><path fill="#c89d4c" d="M15 38h1v1h-1z"/><path fill="#b2807c" d="M18 52h1v1h-1z"/><path fill="#401411" d="M27 26h1v1h-1z"/><path d="M52 24h1v1h-1zm0 11h1v1h-1z" fill="#b88984"/><path fill="#807c7b" d="M34 31h1v1h-1z"/><path fill="#362726" d="M45 34h1v1h-1z"/><path fill="#c29a96" d="M22 3h1v1h-1z"/><path fill="#dcc5c3" d="M46 10h1v1h-1z"/><path fill="#812c27" d="M2 35h1v1H2z"/><path d="M22 36h1v1h-1zm1 0h1v1h-1z" fill="#63140f"/><path fill="#d8a74c" d="M22 43h1v1h-1z"/><path fill="#772116" d="M53 48h1v1h-1z"/><path fill="#85352f" d="M13 9h1v1h-1z"/><path d="M42 3h1v1h-1zM12 6h1v1h-1zm16 17h1v1h-1zm31 8h1v1h-1zm-41 5h1v1h-1zm2 21h1v1h-1z" fill="#781d17"/><path fill="#c29a94" d="M21 8h1v1h-1z"/><path fill="#96504c" d="M48 14h1v1h-1z"/><path d="M13 44h1v1h-1zm2 2h1v1h-1z" fill="#d9ac56"/><path fill="#f2eae9" d="M9 45h1v1H9z"/><path fill="#dcb368" d="M33 47h1v1h-1z"/><path fill="#802b2b" d="M44 56h1v1h-1z"/><path d="M35 3h1v1h-1zM18 6h1v1h-1zM7 18h1v1H7zm47 20h1v1h-1z" fill="#7b231d"/><path fill="#9e5f5d" d="M12 14h1v1h-1z"/><path d="M8 16h1v1H8zm46 13h1v1h-1zM6 37h1v1H6zm40 13h1v1h-1z" fill="#9f605c"/><path fill="#8c3c36" d="M4 17h1v1H4z"/><path fill="#ba8e40" d="M19 30h1v1h-1z"/><path fill="#e1e3e6" d="M17 32h1v1h-1z"/><path d="M18 39h1v1h-1zm23 0h1v1h-1z" fill="#5b1716"/><path fill="#dbdbde" d="M30 13h1v1h-1z"/><path d="M30 3h1v1h-1zm25 36h1v1h-1z" fill="#d8bfbd"/><path fill="#a96f6c" d="M46 7h1v1h-1z"/><path fill="#a09e9e" d="M39 31h1v1h-1z"/><path fill="#e9d9d9" d="M56 34h1v1h-1z"/><path d="M30 1h1v1h-1zm1 0h1v1h-1zm4 1h1v1h-1zm20 16h1v1h-1zM8 44h1v1H8z" fill="#802c26"/><path fill="#83322f" d="M33 6h1v1h-1z"/><path fill="#bc908c" d="M17 10h1v1h-1z"/><path fill="#716e6c" d="M30 31h1v1h-1z"/><path fill="#f7f7f6" d="M32 32h1v1h-1z"/><path fill="#daac57" d="M46 44h1v1h-1z"/><path d="M34 2h1v1h-1zM4 18h1v1H4zm18 37h1v1h-1zm4 1h1v1h-1z" fill="#bb8e8b"/><path fill="#605756" d="M26 26h1v1h-1z"/><path d="M28 26h1v1h-1zm3 0h1v1h-1z" fill="#211917"/><path fill="#a46965" d="M56 35h1v1h-1z"/><path d="M6 41h1v1H6zm46 5h1v1h-1z" fill="#b27f7c"/><path fill="#c09795" d="M11 46h1v1h-1z"/><path d="M41 4h1v1h-1zm-31 9h1v1h-1zM0 33h1v1H0zm55 11h1v1h-1z" fill="#78201a"/><path fill="#fcfcfc" d="M25 25h1v1h-1z"/><path fill="#e1e0e0" d="M34 32h1v1h-1z"/><path d="M37 4h1v1h-1zm8 2h1v1h-1zM5 16h1v1H5zM2 31h1v1H2zm5 9h1v1H7zm-2 1h1v1H5zm18 12h1v1h-1zm10 4h1v1h-1z" fill="#7e2923"/><path fill="#83302a" d="M9 10h1v1H9z"/><path fill="#8f4440" d="M53 18h1v1h-1z"/><path fill="#827a71" d="M35 27h1v1h-1z"/><path fill="#746867" d="M38 35h1v1h-1z"/><path fill="#b3827e" d="M50 48h1v1h-1z"/><path d="M25 0h1v1h-1zm34 26h1v1h-1zM49 52h1v1h-1z" fill="#77201a"/><path d="M17 6h1v1h-1zm-3 2h1v1h-1zm-3 1h1v1h-1zM7 39h1v1H7z" fill="#a86f6b"/><path fill="#cfaeac" d="M12 12h1v1h-1z"/><path fill="#ccaaa8" d="M7 19h1v1H7z"/><path fill="#8c413f" d="M51 20h1v1h-1z"/><path fill="#a2a09f" d="M26 33h1v1h-1z"/><path d="M31 2h1v1h-1zm11 52h1v1h-1z" fill="#b3807d"/><path fill="#5f130e" d="M28 20h1v1h-1z"/><path fill="#76201b" d="M48 6h1v1h-1z"/><path fill="#78211a" d="M3 16h1v1H3z"/><path d="M23 19h1v1h-1zm13 0h1v1h-1zm1 24h1v1h-1z" fill="#d9a950"/><path fill="#61605f" d="M27 34h1v1h-1z"/><path fill="#d8ab59" d="M22 47h1v1h-1z"/><path fill="#e1c7ac" d="M22 8h1v1h-1z"/><path fill="#d4a44c" d="M36 28h1v1h-1z"/><path fill="#822f2a" d="M55 40h1v1h-1z"/><path fill="#d3b5b3" d="M35 55h1v1h-1z"/><path d="M49 11h1v1h-1zm-1 1h1v1h-1zM20 55h1v1h-1zm7 1h1v1h-1z" fill="#b17e7a"/><path d="M53 30h1v1h-1zm-2 9h1v1h-1z" fill="#904846"/><path d="M24 1h1v1h-1zm7 2h1v1h-1zM18 5h1v1h-1zm33 8h1v1h-1zm2 10h1v1h-1zm5 1h1v1h-1zM13 49h1v1h-1zm-1 1h1v1h-1z" fill="#741913"/><path fill="#6d2400" d="M57 42h1v1h-1z"/><path fill="#bc241b" d="M29 21h1v1h-1z"/><path fill="#cc9d48" d="M41 30h1v1h-1z"/><path fill="#c19896" d="M55 30h1v1h-1z"/><path fill="#771d16" d="M17 56h1v1h-1z"/><path fill="#7c251f" d="M1 28h1v1H1z"/><path d="M53 11h1v1h-1zM11 53h1v1h-1z" fill="#761d19"/><path d="M50 22h1v1h-1zm1 11h1v1h-1zM26 51h1v1h-1z" fill="#d8a950"/><path d="M29 23h1v1h-1zm0 1h1v1h-1zm1 0h1v1h-1z" fill="#e0261c"/><path fill="#e1c7ae" d="M37 51h1v1h-1z"/><path fill="#dec8c7" d="M25 4h1v1h-1z"/><path d="M6 20h1v1H6zm51 12h1v1h-1zM14 48h1v1h-1z" fill="#731610"/><path fill="#8e6d36" d="M43 31h1v1h-1z"/><path fill="#706c6a" d="M30 32h1v1h-1z"/><path fill="#e5c790" d="M21 45h1v1h-1z"/><path fill="#ddb56e" d="M29 46h1v1h-1z"/><path d="M37 6h1v1h-1zM26 55h1v1h-1z" fill="#c39c99"/><path fill="#d7bcba" d="M51 45h1v1h-1z"/><path fill="#856b68" d="M27 20h1v1h-1z"/><path d="M51 22h1v1h-1zM8 37h1v1H8z" fill="#e1c8ae"/><path fill="#9d7c3e" d="M38 42h1v1h-1z"/><path fill="#e7cea3" d="M28 52h1v1h-1z"/><path fill="#8d4342" d="M50 18h1v1h-1z"/><path fill="#ba8f40" d="M15 31h1v1h-1z"/><path d="M7 35h1v1H7zm28 17h1v1h-1z" fill="#ba8c87"/><path fill="#e7d7d6" d="M13 8h1v1h-1z"/><path fill="#641914" d="M28 22h1v1h-1z"/><path fill="#f2f3f5" d="M25 28h1v1h-1z"/><path fill="#b98d40" d="M44 31h1v1h-1z"/><path fill="#dac2c1" d="M55 37h1v1h-1z"/><path fill="#7c2623" d="M43 49h1v1h-1z"/><path d="M25 1h1v1h-1zM3 18h1v1H3z" fill="#771812"/><path fill="#802b26" d="M37 5h1v1h-1z"/><path fill="#7e2a27" d="M26 6h1v1h-1z"/><path fill="#79211d" d="M53 34h1v1h-1z"/><path fill="#cda14d" d="M17 40h1v1h-1z"/><path d="M7 41h1v1H7zm4 7h1v1h-1z" fill="#cfafad"/><path d="M29 5h1v1h-1zm28 28h1v1h-1zm-5 11h1v1h-1z" fill="#7f2b25"/><path d="M10 11h1v1h-1zM4 28h1v1H4zm52 9h1v1h-1zM16 53h1v1h-1zm8 2h1v1h-1z" fill="#b88885"/><path fill="#8e4543" d="M15 11h1v1h-1z"/><path fill="#5d5654" d="M30 30h1v1h-1z"/><path d="M26 36h1v1h-1zm7 0h1v1h-1zm12 13h1v1h-1zm-33 2h1v1h-1zm35 0h1v1h-1z" fill="#751b15"/><path fill="#e6ca96" d="M20 44h1v1h-1z"/><path fill="#954f49" d="M44 10h1v1h-1z"/><path d="M22 23h1v1h-1zm15 0h1v1h-1zm3 6h1v1h-1zm-25 1h1v1h-1zm29 0h1v1h-1zm-30 8h1v1h-1zm31 0h1v1h-1zm-9 6h1v1h-1z" fill="#d9a850"/><path fill="#7a633e" d="M45 32h1v1h-1z"/><path fill="#7b716f" d="M24 35h1v1h-1z"/><path fill="#cea24d" d="M42 40h1v1h-1z"/><path fill="#781a14" d="M55 43h1v1h-1z"/><path fill="#bb8d88" d="M24 52h1v1h-1z"/><path fill="#ae7a79" d="M26 53h1v1h-1z"/><path fill="#e2bd73" d="M21 9h1v1h-1z"/><path d="M43 4h1v1h-1zM13 53h1v1h-1zm33 0h1v1h-1z" fill="#7d201a"/><path fill="#d8bebd" d="M36 5h1v1h-1z"/><path d="M16 8h1v1h-1zm38 25h1v1h-1zm1 2h1v1h-1z" fill="#b3817e"/><path fill="#bcbcbe" d="M25 29h1v1h-1z"/><path fill="#4d221f" d="M32 35h1v1h-1z"/><path fill="#94753c" d="M45 36h1v1h-1z"/><path d="M28 2h1v1h-1zm24 36h1v1h-1zM29 58h1v1h-1z" fill="#7c2620"/><path fill="#d4a349" d="M12 17h1v1h-1z"/><path fill="#8d7977" d="M32 20h1v1h-1z"/><path fill="#9c9999" d="M24 24h1v1h-1z"/><path fill="#4f2d29" d="M18 35h1v1h-1z"/><path fill="#6e1812" d="M25 36h1v1h-1z"/><path d="M36 36h1v1h-1zm1 0h1v1h-1z" fill="#64150f"/><path d="M23 41h1v1h-1zm6 1h1v1h-1zm1 0h1v1h-1z" fill="#7a1e19"/><path d="M10 10h1v1h-1zm23 44h1v1h-1z" fill="#812d28"/><path d="M45 44h1v1h-1zm-1 1h1v1h-1z" fill="#d5a54c"/><path fill="#c39b99" d="M7 44h1v1H7z"/><path fill="#e9d2af" d="M49 18h1v1h-1z"/><path fill="#ceaba2" d="M9 19h1v1H9z"/><path fill="#8b3b35" d="M55 42h1v1h-1z"/><path fill="#ac7572" d="M18 53h1v1h-1z"/><path d="M11 13h1v1h-1zM3 29h1v1H3zm0 9h1v1H3zm27 19h1v1h-1z" fill="#a36662"/><path d="M56 28h1v1h-1zm-1 5h1v1h-1z" fill="#e2cfce"/><path d="M12 10h1v1h-1zm-8 9h1v1H4zm49 20h1v1h-1zM34 55h1v1h-1z" fill="#af7b77"/><path d="M27 7h1v1h-1zm5 0h1v1h-1z" fill="#e5caa6"/><path fill="#8e8b89" d="M28 14h1v1h-1z"/><path fill="#908a86" d="M24 23h1v1h-1z"/><path fill="#dcab50" d="M24 44h1v1h-1z"/><path fill="#bc908e" d="M10 49h1v1h-1z"/><path fill="#d4a348" d="M38 49h1v1h-1z"/><path fill="#7c2724" d="M33 53h1v1h-1z"/><path fill="#c7a19f" d="M24 3h1v1h-1z"/><path fill="#c29993" d="M8 38h1v1H8z"/><path fill="#a36766" d="M13 46h1v1h-1z"/><path fill="#f7fafa" d="M26 22h1v1h-1z"/><path fill="#cb9c47" d="M26 15h1v1h-1z"/><path fill="#b98d3f" d="M40 30h1v1h-1z"/><path fill="#e6c788" d="M17 48h1v1h-1z"/><path d="M25 51h1v1h-1zm9 0h1v1h-1z" fill="#dcb15e"/><path fill="#97514d" d="M24 5h1v1h-1z"/><path fill="#96928e" d="M24 26h1v1h-1z"/><path fill="#cccdd0" d="M37 31h1v1h-1z"/><path fill="#dfb974" d="M22 44h1v1h-1z"/><path fill="#a09d9d" d="M35 25h1v1h-1z"/><path fill="#7c2622" d="M10 16h1v1h-1z"/><path d="M50 17h1v1h-1zM38 56h1v1h-1z" fill="#8b3e39"/><path fill="#d6a751" d="M34 49h1v1h-1z"/><path d="M9 13h1v1H9zm0 3h1v1H9zm46 9h1v1h-1zM15 51h1v1h-1z" fill="#731711"/><path d="M12 11h1v1h-1zM5 37h1v1H5z" fill="#dac2c0"/><path d="M15 13h1v1h-1zm-2 2h1v1h-1z" fill="#d9ab54"/><path fill="#751711" d="M58 34h1v1h-1z"/><path fill="#995651" d="M53 36h1v1h-1z"/><path fill="#85342e" d="M54 40h1v1h-1z"/><path fill="#e2be76" d="M35 8h1v1h-1z"/><path d="M56 23h1v1h-1zM4 24h1v1H4zm13 27h1v1h-1zm22 4h1v1h-1z" fill="#c29a97"/><path d="M58 33h1v1h-1zm-30 3h1v1h-1zm3 0h1v1h-1zm-14 1h1v1h-1zm25 0h1v1h-1zm15 0h1v1h-1zm-36 3h1v1h-1zm17 0h1v1h-1zM3 41h1v1H3zm21 0h1v1h-1zm11 0h1v1h-1z" fill="#7b1f19"/><path fill="#51130f" d="M28 35h1v1h-1z"/><path fill="#63492a" d="M15 37h1v1h-1z"/><path fill="#d4a247" d="M25 48h1v1h-1z"/><path fill="#7f2721" d="M42 55h1v1h-1z"/><path d="M23 9h1v1h-1zm13 0h1v1h-1zm-19 3h1v1h-1zm25 0h1v1h-1zm5 5h1v1h-1zM9 23h1v1H9zm41 0h1v1h-1zM9 36h1v1H9zm41 0h1v1h-1zM17 47h1v1h-1zm25 0h1v1h-1zm-3 2h1v1h-1zm-16 1h1v1h-1zm13 0h1v1h-1z" fill="#d5a348"/><path d="M25 17h1v1h-1zm-2 6h1v1h-1zm13 0h1v1h-1z" fill="#b3883e"/><path fill="#791d1a" d="M52 49h1v1h-1z"/><path d="M13 10h1v1h-1zM4 30h1v1H4zm38 20h1v1h-1z" fill="#70120c"/><path fill="#ececec" d="M32 18h1v1h-1z"/><path fill="#937137" d="M21 30h1v1h-1z"/><path fill="#906e36" d="M16 31h1v1h-1z"/><path fill="#f0f3f3" d="M26 34h1v1h-1z"/><path fill="#761c17" d="M58 35h1v1h-1z"/><path fill="#84322d" d="M55 41h1v1h-1z"/><path fill="#e0cbc9" d="M14 9h1v1h-1z"/><path fill="#65130e" d="M31 20h1v1h-1z"/><path fill="#751610" d="M51 48h1v1h-1z"/><path fill="#dcc2b3" d="M16 11h1v1h-1z"/><path d="M7 12h1v1H7zM5 44h1v1H5z" fill="#832d27"/><path fill="#eeeff2" d="M25 21h1v1h-1z"/><path fill="#e2c9ae" d="M8 22h1v1H8z"/><path d="M23 22h1v1h-1zm13 0h1v1h-1z" fill="#c59744"/><path fill="#959392" d="M32 33h1v1h-1z"/><path fill="#493c3a" d="M30 34h1v1h-1z"/><path d="M21 46h1v1h-1zm3 2h1v1h-1z" fill="#d4a248"/><path fill="#cba8a6" d="M23 54h1v1h-1z"/><path fill="#7a221e" d="M16 10h1v1h-1z"/><path d="M38 4h1v1h-1zM17 9h1v1h-1z" fill="#83312c"/><path d="M15 7h1v1h-1zm40 14h1v1h-1zm2 4h1v1h-1z" fill="#84332e"/><path d="M25 8h1v1h-1zm9 0h1v1h-1zM8 34h1v1H8z" fill="#dcb05c"/><path d="M7 25h1v1H7zm45 0h1v1h-1z" fill="#d2b2a3"/><path d="M38 3h1v1h-1zm17 17h1v1h-1zm-4 26h1v1h-1zm-13 7h1v1h-1z" fill="#b88986"/><path fill="#cdaaa2" d="M9 40h1v1H9z"/><path d="M31 4h1v1h-1zM5 20h1v1H5z" fill="#72160f"/><path d="M19 40h1v1h-1zm21 0h1v1h-1z" fill="#4b1b18"/><path fill="#d6a74f" d="M14 37h1v1h-1z"/><path d="M17 8h1v1h-1zm36 13h1v1h-1zm1 18h1v1h-1z" fill="#dec8c6"/><path d="M14 10h1v1h-1zm20 46h1v1h-1z" fill="#9a5853"/><path fill="#7c6032" d="M13 33h1v1h-1z"/><path fill="#7f2c2a" d="M37 7h1v1h-1z"/><path fill="#ecedf0" d="M28 15h1v1h-1z"/><path fill="#6a1e18" d="M30 20h1v1h-1z"/><path fill="#771e17" d="M59 28h1v1h-1z"/><path d="M50 37h1v1h-1zM33 51h1v1h-1z" fill="#d8a951"/><path fill="#8a3d3b" d="M11 44h1v1h-1z"/><path fill="#d8a952" d="M45 14h1v1h-1z"/><path d="M42 6h1v1h-1zm12 37h1v1h-1zm-41 7h1v1h-1z" fill="#a0625e"/><path d="M24 18h1v1h-1zm11 0h1v1h-1zM14 31h1v1h-1z" fill="#daa94f"/><path fill="#908b86" d="M35 23h1v1h-1z"/><path fill="#636261" d="M32 34h1v1h-1z"/><path fill="#bf948f" d="M51 38h1v1h-1z"/><path fill="#b58581" d="M50 43h1v1h-1z"/><path d="M35 5h1v1h-1zm18 35h1v1h-1z" fill="#97524d"/><path d="M24 8h1v1h-1zm14 42h1v1h-1z" fill="#e2bd75"/><path fill="#ceaca3" d="M19 9h1v1h-1z"/><path fill="#bbbaba" d="M31 18h1v1h-1z"/><path fill="#985550" d="M5 28h1v1H5z"/><path d="M52 29h1v1h-1zm0 1h1v1h-1z" fill="#e8cd9f"/><path fill="#b07b77" d="M5 43h1v1H5z"/><path fill="#daad57" d="M44 46h1v1h-1z"/><path d="M23 3h1v1h-1zm-4 4h1v1h-1zM7 15h1v1H7zM1 29h1v1H1zm51 14h1v1h-1zm-4 7h1v1h-1z" fill="#79211b"/><path fill="#fbf5ec" d="M32 48h1v1h-1z"/><path fill="#c09794" d="M9 11h1v1H9z"/><path d="M48 17h1v1h-1zM11 42h1v1h-1z" fill="#e6c787"/><path d="M31 21h1v1h-1zm7 15h1v1h-1z" fill="#691610"/><path d="M58 26h1v1h-1zM2 37h1v1H2zm10 15h1v1h-1zm35 0h1v1h-1z" fill="#7c201a"/><path fill="#645451" d="M20 35h1v1h-1z"/><path fill="#e1cdcc" d="M51 44h1v1h-1z"/><path fill="#9a5752" d="M21 4h1v1h-1z"/><path fill="#dadbde" d="M29 13h1v1h-1z"/><path d="M24 21h1v1h-1zm11 0h1v1h-1z" fill="#736146"/><path fill="#827a70" d="M24 27h1v1h-1z"/><path d="M2 33h1v1H2zm3 0h1v1H5zm-1 8h1v1H4zm47 0h1v1h-1z" fill="#8a3d38"/><path d="M25 42h1v1h-1zm9 0h1v1h-1z" fill="#661816"/><path fill="#dcaf5d" d="M23 44h1v1h-1z"/><path fill="#7b1f1a" d="M48 52h1v1h-1z"/><path d="M20 1h1v1h-1zm-6 3h1v1h-1zm45 20h1v1h-1zM35 59h1v1h-1z" fill="#79221b"/><path fill="#7f2a25" d="M13 47h1v1h-1z"/><path fill="#83140e" d="M27 27h1v1h-1z"/><path d="M25 15h1v1h-1zm9 0h1v1h-1z" fill="#d8a750"/><path fill="#7b211b" d="M2 23h1v1H2z"/><path fill="#77613e" d="M17 31h1v1h-1z"/><path fill="#85332e" d="M39 56h1v1h-1z"/><path fill="#781e1b" d="M52 10h1v1h-1z"/><path fill="#d6a44a" d="M20 43h1v1h-1z"/><path fill="#76211a" d="M24 59h1v1h-1z"/><path fill="#331c19" d="M30 19h1v1h-1z"/><path fill="#8d8884" d="M30 12h1v1h-1z"/><path d="M23 21h1v1h-1zm13 0h1v1h-1z" fill="#d6a54c"/><path fill="#7a1c15" d="M46 6h1v1h-1z"/><path d="M45 13h1v1h-1zm1 1h1v1h-1zM14 46h1v1h-1z" fill="#ebd5b2"/><path fill="#3e1410" d="M32 26h1v1h-1z"/><path fill="#867f78" d="M19 31h1v1h-1z"/><path fill="#e0cbca" d="M44 7h1v1h-1z"/><path fill="#4e2a26" d="M41 35h1v1h-1z"/><path fill="#cca9a7" d="M42 52h1v1h-1z"/><path d="M41 9h1v1h-1zM9 41h1v1H9zm39 3h1v1h-1z" fill="#8d4341"/><path d="M49 7h1v1h-1zM14 55h1v1h-1z" fill="#781d1a"/><path fill="#e7c787" d="M42 11h1v1h-1z"/><path fill="#362523" d="M28 19h1v1h-1z"/><path fill="#f9fbfb" d="M19 34h1v1h-1z"/><path fill="#50301e" d="M14 35h1v1h-1z"/><path d="M38 6h1v1h-1zM6 35h1v1H6z" fill="#8a3c37"/><path fill="#756957" d="M18 31h1v1h-1z"/><path d="M16 36h1v1h-1zm27 0h1v1h-1z" fill="#7e1f19"/><path d="M40 8h1v1h-1zM25 53h1v1h-1z" fill="#7f2a26"/><path d="M28 7h1v1h-1zm3 0h1v1h-1z" fill="#e7cda1"/><path fill="#e9d3ae" d="M41 10h1v1h-1z"/><path fill="#73140e" d="M8 11h1v1H8z"/><path fill="#e8cd99" d="M51 23h1v1h-1z"/><path fill="#c89a4a" d="M46 32h1v1h-1z"/><path d="M21 41h1v1h-1zm17 0h1v1h-1z" fill="#511a17"/><path d="M28 5h1v1h-1zM1 24h1v1H1zm1 6h1v1H2zm47 16h1v1h-1z" fill="#741912"/><path d="M6 22h1v1H6zm-4 4h1v1H2z" fill="#ceafac"/><path d="M30 5h1v1h-1zM18 8h1v1h-1z" fill="#ab7470"/><path d="M50 12h1v1h-1zm-1 36h1v1h-1z" fill="#d6bab8"/><path fill="#edeef0" d="M31 15h1v1h-1z"/><path fill="#f0e7e6" d="M3 26h1v1H3z"/><path d="M29 7h1v1h-1zm1 0h1v1h-1z" fill="#e8ce9d"/><path d="M43 10h1v1h-1zM16 49h1v1h-1z" fill="#7d2824"/><path fill="#c79a4a" d="M13 32h1v1h-1z"/><path fill="#c49c99" d="M10 47h1v1h-1z"/><path fill="#7d221c" d="M44 5h1v1h-1z"/><path fill="#62130f" d="M15 35h1v1h-1z"/><path fill="#995551" d="M8 41h1v1H8z"/><path fill="#6c0c05" d="M47 13h1v1h-1z"/><path fill="#9c5b59" d="M45 47h1v1h-1z"/><path fill="#944e49" d="M18 55h1v1h-1z"/><path fill="#95753c" d="M35 43h1v1h-1z"/><path d="M18 3h1v1h-1zm23 0h1v1h-1zm16 20h1v1h-1z" fill="#7b201a"/><path fill="#924843" d="M56 39h1v1h-1z"/><path fill="#4d231b" d="M23 42h1v1h-1z"/><path fill="#e9ce9e" d="M24 47h1v1h-1z"/><path d="M27 0h1v1h-1zM10 7h1v1h-1zM8 9h1v1H8zm41 34h1v1h-1zM5 46h1v1H5z" fill="#771f1a"/><path d="M27 3h1v2h-1zm1 1h1v1h-1zm-9 1h1v1h-1zm8 0h1v1h-1zM12 9h1v1h-1zm43 17h2v1h-2zm2 0h1v1h-1zM46 48h1v1h-1zm-3 2h1v1h-1zm-7 3h1v1h-1zm0 5h1v1h-1z" fill="#761c16"/><path d="M43 7h1v1h-1zm5 4h1v1h-1zm5 27h1v1h-1zM38 55h1v1h-1z" fill="#d2b4b2"/><path fill="#deb564" d="M43 12h1v1h-1z"/><path fill="#e8d2b7" d="M44 12h1v1h-1z"/><path fill="#ddc7c6" d="M49 13h1v1h-1z"/><path fill="#f9fcfc" d="M33 24h1v1h-1z"/><path fill="#641816" d="M17 38h1v1h-1z"/><path fill="#781913" d="M22 2h1v1h-1z"/><path fill="#832c26" d="M15 54h1v1h-1z"/><path fill="#72120b" d="M9 49h1v1H9z"/><path d="M3 34h1v1H3zm47 11h1v1h-1z" fill="#e8d9d8"/><path d="M30 46h1v1h-1zm2 3h1v1h-1z" fill="#daaf60"/><path d="M15 49h1v1h-1zm29 0h1v1h-1zm3 1h1v1h-1zm-3 2h1v1h-1z" fill="#751913"/><path fill="#96524d" d="M46 51h1v1h-1z"/><path fill="#fcfdff" d="M41 32h1v1h-1z"/><path d="M8 18h1v1H8zM4 39h1v1H4z" fill="#71140d"/><path d="M54 25h1v1h-1zm0 1h1v1h-1zM4 35h1v1H4zm52 7h1v1h-1zm-42 7h1v1h-1zm0 3h1v1h-1zm31 0h1v1h-1z" fill="#761b15"/><path fill="#fbfcfe" d="M18 32h1v1h-1z"/><path fill="#ae7875" d="M6 38h1v1H6z"/><path d="M23 4h1v1h-1zm27 40h1v1h-1zM31 56h1v1h-1z" fill="#b4837f"/><path d="M52 18h1v1h-1zM29 54h1v1h-1z" fill="#9e5f5a"/><path fill="#883833" d="M3 20h1v1H3z"/><path fill="#e0c6aa" d="M7 26h1v1H7z"/><path fill="#bc9191" d="M18 50h1v1h-1z"/><path d="M50 8h1v1h-1zm1 42h1v1h-1z" fill="#78201b"/><path fill="#c09342" d="M36 27h1v1h-1z"/><path d="M52 31h1v1h-1zM31 52h1v1h-1z" fill="#e6cca1"/><path fill="#6d6968" d="M33 32h1v1h-1z"/><path d="M31 46h1v1h-1zm7 1h1v1h-1z" fill="#d8ab58"/><path fill="#d9ad5d" d="M36 47h1v1h-1z"/><path fill="#b88a86" d="M30 55h1v1h-1z"/><path fill="#b0873c" d="M31 12h1v1h-1z"/><path fill="#742317" d="M12 5h1v1h-1z"/><path d="M20 9h1v1h-1zm19 0h1v1h-1zm11 11h1v1h-1zM9 39h1v1H9zm11 11h1v1h-1z" fill="#e9d1a9"/><path d="M28 9h1v1h-1zm3 0h1v1h-1zm-9 13h1v1h-1zm-4 7h1v1h-1zm23 0h1v1h-1zm-29 6h1v1h-1zm35 0h1v1h-1zm-8 8h1v1h-1zm-7 2h1v1h-1z" fill="#d7a74f"/><path fill="#771811" d="M4 43h1v1H4z"/><path fill="#4f241b" d="M29 43h1v1h-1z"/><path d="M12 48h1v1h-1zm29 4h1v1h-1z" fill="#bc8f8c"/><path fill="#a76c68" d="M32 57h1v1h-1z"/><path d="M19 3h1v1h-1zm37 37h1v1h-1z" fill="#7a1c16"/><path fill="#dbb05b" d="M8 25h1v1H8z"/><path d="M17 5h1v1h-1zm29 4h1v1h-1zm-3 43h1v1h-1z" fill="#934d48"/><path d="M32 2h1v1h-1zm7 2h1v1h-1zM5 39h1v1H5z" fill="#883934"/><path fill="#7b201b" d="M6 11h1v1H6z"/><path d="M47 12h1v1h-1zM7 13h1v1H7zm45 4h1v1h-1zM3 24h1v1H3zm53 5h1v1h-1z" fill="#c8a4a2"/><path fill="#ca9c47" d="M33 15h1v1h-1z"/><path fill="#e2c186" d="M19 44h1v1h-1z"/><path d="M26 1h1v1h-1zm12 1h1v1h-1zm19 19h1v1h-1zM27 36h1v1h-1zm5 0h1v1h-1zM2 38h1v1H2zm41 17h1v1h-1z" fill="#7b1e18"/><path d="M6 32h1v1H6zm26 21h1v1h-1z" fill="#853533"/><path fill="#f3e5cb" d="M34 48h1v1h-1z"/><path fill="#5e3633" d="M32 23h1v1h-1z"/><path fill="#d8aa57" d="M33 49h1v1h-1z"/><path fill="#655236" d="M24 30h1v1h-1z"/><path fill="#745d39" d="M34 18h1v1h-1z"/><path fill="#fdffff" d="M39 34h1v1h-1z"/><path fill="#dcb266" d="M18 44h1v1h-1z"/><path d="M47 10h1v1h-1zm4 33h1v1h-1z" fill="#934c47"/><path fill="#563a37" d="M33 35h1v1h-1z"/><path fill="#a07f40" d="M19 41h1v1h-1z"/><path fill="#8b1717" d="M36 0h1v1h-1z"/><path fill="#ead5b2" d="M13 45h1v1h-1z"/><path fill="#bb8f8f" d="M30 53h1v1h-1z"/><path d="M28 43h1v1h-1zm3 0h1v1h-1z" fill="#4f271d"/><path fill="#dedfe2" d="M36 31h1v1h-1z"/><path d="M27 42h1v1h-1zm5 0h1v1h-1z" fill="#761c18"/><path d="M52 20h1v1h-1zm1 0h1v1h-1zm-5 26h1v1h-1zm-9 7h1v1h-1z" fill="#b17d7a"/><path fill="#e1c8ad" d="M37 8h1v1h-1z"/><path d="M31 11h1v1h-1zm-1 34h1v1h-1zm1 0h1v1h-1z" fill="#d8a74e"/><path fill="#84322c" d="M6 14h1v1H6z"/><path d="M9 25h1v1H9zm41 0h1v1h-1zM9 34h1v1H9zm41 0h1v1h-1zm-32 8h1v1h-1zm4 4h1v1h-1zm16 0h1v1h-1zm1 0h1v1h-1zm-10 4h1v1h-1z" fill="#d6a64e"/><path fill="#8f1b15" d="M30 29h1v1h-1z"/><path d="M6 43h1v1H6zm42 4h1v1h-1z" fill="#ad7773"/><path fill="#842f29" d="M15 5h1v1h-1z"/><path d="M40 3h1v1h-1zm0 53h1v1h-1z" fill="#7f241e"/><path fill="#d3b2a3" d="M7 34h1v1H7z"/><path fill="#995654" d="M23 52h1v1h-1z"/><path d="M21 3h1v1h-1zm19 1h1v1h-1zM23 5h1v1h-1zm30 37h1v1h-1z" fill="#c6a09e"/><path fill="#96928f" d="M35 26h1v1h-1z"/><path fill="#726f6d" d="M30 33h1v1h-1z"/><path fill="#9f6160" d="M46 46h1v1h-1z"/><path fill="#9a5858" d="M29 53h1v1h-1z"/><path d="M21 1h1v1h-1zM5 13h1v1H5zm1 35h1v1H6z" fill="#781e19"/><path fill="#ebebeb" d="M27 18h1v1h-1z"/><path d="M4 20h1v1H4zm39 31h1v1h-1z" fill="#7d2822"/><path fill="#721610" d="M46 47h1v1h-1z"/><path fill="#791e1b" d="M41 57h1v1h-1z"/><path fill="#9d5c57" d="M49 15h1v1h-1z"/><path d="M21 6h1v1h-1zm32 11h1v1h-1z" fill="#d6bbb9"/><path d="M27 12h1v1h-1zm5 0h1v1h-1zm-8 5h1v1h-1zm11 0h1v1h-1zm-13 9h1v1h-1zm15 0h1v1h-1zM15 39h1v1h-1zm29 0h1v1h-1zm-28 1h1v1h-1zm27 0h1v1h-1z" fill="#daa950"/><path d="M22 29h1v1h-1zm15 0h1v1h-1z" fill="#ddab50"/><path fill="#927037" d="M38 30h1v1h-1z"/><path d="M20 46h1v1h-1zm13 0h2v1h-2zm2 0h1v1h-1zm5 2h1v1h-1zm-12 1h1v1h-1zm6 1h1v1h-1z" fill="#d6a54d"/><path fill="#7a1f17" d="M43 56h1v1h-1z"/><path d="M20 6h1v1h-1zM2 29h1v1H2zm19 25h1v1h-1z" fill="#985450"/><path d="M27 44h1v1h-1zm5 0h1v1h-1z" fill="#cca04d"/><path d="M43 11h1v1h-1zm5 5h1v1h-1zM11 43h1v1h-1zm5 5h1v1h-1z" fill="#dbc0b2"/><path d="M22 30h1v1h-1zm15 0h1v1h-1z" fill="#856838"/><path fill="#9b793c" d="M13 34h1v1h-1z"/><path fill="#edd8b2" d="M25 47h1v1h-1z"/><path fill="#e8cc99" d="M36 51h1v1h-1z"/><path fill="#6b5e4a" d="M27 15h1v1h-1z"/><path fill="#b68683" d="M16 5h1v1h-1z"/><path fill="#e8ebeb" d="M26 23h1v1h-1z"/><path fill="#655339" d="M35 30h1v1h-1z"/><path fill="#9e9c9b" d="M43 34h1v1h-1z"/><path fill="#822e29" d="M29 1h1v1h-1z"/><path fill="#8d8d8c" d="M31 34h1v1h-1z"/><path fill="#d4a145" d="M26 45h1v1h-1z"/><path fill="#cdaba3" d="M19 50h1v1h-1z"/><path d="M32 5h1v1h-1zm18 8h1v1h-1zM4 27h1v1H4zm12 25h1v1h-1z" fill="#a86e6a"/><path d="M47 45h1v1h-1zm-11 7h1v1h-1z" fill="#985554"/><path fill="#543924" d="M16 38h1v1h-1z"/><path fill="#d7bcbb" d="M41 7h1v1h-1z"/><path d="M54 14h1v1h-1zM2 36h1v1H2zm48 14h1v1h-1z" fill="#781c16"/><path fill="#8d433e" d="M52 19h1v1h-1z"/><path fill="#7b2522" d="M53 33h1v1h-1z"/><path fill="#a09f9f" d="M16 34h1v1h-1z"/><path fill="#7c231c" d="M32 58h1v1h-1z"/><path d="M33 2h1v1h-1zm0 3h1v1h-1zM9 14h1v1H9z" fill="#d0b1af"/><path d="M19 11h1v1h-1zm21 0h1v1h-1zm-29 8h1v1h-1zm12 9h1v1h-1zM11 40h1v1h-1zm16 8h1v1h-1zm4 2h1v1h-1z" fill="#d5a44c"/><path fill="#a26563" d="M46 13h1v1h-1z"/><path d="M4 25h1v1H4zm4 18h1v1H8z" fill="#dec9c7"/><path d="M17 50h1v1h-1zm2 1h1v1h-1z" fill="#893c37"/><path d="M36 2h1v1h-1zm5 54h1v1h-1z" fill="#761812"/><path fill="#9c7a3d" d="M46 34h1v1h-1z"/><path fill="#b2883e" d="M34 17h1v1h-1z"/><path fill="#924b46" d="M53 22h1v1h-1z"/><path fill="#6b6563" d="M33 26h1v1h-1z"/><path fill="#4e2420" d="M31 28h1v1h-1z"/><path fill="#761811" d="M1 34h1v1H1z"/><path fill="#796e6c" d="M21 35h1v1h-1z"/><path fill="#a07a38" d="M32 14h1v1h-1z"/><path d="M18 11h1v1h-1zm23 0h1v1h-1zm-30 7h1v1h-1zm37 0h1v1h-1zm3 9h1v1h-1zm0 5h1v1h-1zm-40 9h1v1h-1zm21 10h1v1h-1z" fill="#d6a54b"/><path fill="#635138" d="M29 11h1v1h-1z"/><path fill="#c09693" d="M6 16h1v1H6z"/><path fill="#e1bb6f" d="M49 40h1v1h-1z"/><path fill="#74140e" d="M4 42h1v1H4z"/><path fill="#dbb063" d="M34 47h1v1h-1z"/><path d="M24 4h1v1h-1zM6 40h1v1H6zm43 7h1v1h-1z" fill="#aa726e"/><path fill="#bd908a" d="M24 7h1v1h-1z"/><path fill="#8c8783" d="M29 12h1v1h-1z"/><path fill="#ce9e48" d="M18 30h1v1h-1z"/><path d="M54 36h1v1h-1zM25 54h1v1h-1z" fill="#a0615d"/><path fill="#ca9e4c" d="M44 38h1v1h-1z"/><path fill="#e4caa7" d="M27 52h1v1h-1z"/><path fill="#c7a3a0" d="M25 3h1v1h-1z"/><path fill="#572e2a" d="M27 23h1v1h-1z"/><path fill="#f0f3f4" d="M33 23h1v1h-1z"/><path fill="#5f1813" d="M31 22h1v1h-1z"/><path fill="#a57e3a" d="M20 30h1v1h-1z"/><path fill="#8b403e" d="M53 31h1v1h-1z"/><path d="M56 33h1v1h-1zm-2 1h1v1h-1zM9 48h1v1H9z" fill="#aa726f"/><path fill="#631816" d="M42 38h1v1h-1z"/><path fill="#e1261c" d="M29 25h1v1h-1z"/><path d="M24 19h1v1h-1zm11 0h1v1h-1z" fill="#b88d40"/><path fill="#e3d0cf" d="M4 22h1v1H4z"/><path fill="#66150f" d="M24 36h1v1h-1z"/><path fill="#9b5958" d="M31 53h1v1h-1z"/><path d="M47 11h1v1h-1zM5 29h1v1H5zm35 25h1v1h-1z" fill="#954f4a"/><path d="M45 12h1v1h-1zM7 23h1v1H7z" fill="#9b5a59"/><path fill="#ddc2b3" d="M11 16h1v1h-1z"/><path d="M26 18h1v1h-1zm7 0h1v1h-1z" fill="#d8d9dc"/><path d="M56 22h1v1h-1zM38 54h1v1h-1zm-2 1h1v1h-1z" fill="#af7a76"/><path d="M1 26h1v1H1zm53 18h1v1h-1z" fill="#791b15"/><path fill="#fdfdfd" d="M34 26h1v1h-1z"/><path d="M22 1h1v1h-1zm17 2h1v1h-1zm7 2h1v1h-1zM1 31h1v1H1zm28 5h1v1h-1zm1 0h1v1h-1zm-10 1h5v1h-5zm5 0h1v1h-1zm9 0h4v1h-4zm4 0h1v1h-1zm-18 2h1v1h-1zm19 0h1v1h-1zm-17 1h1v1h-1zm15 0h1v1h-1zm20 0h1v1h-1zm-32 1h1v1h-1zm9 0h1v1h-1zm18 7h1v1h-1zM7 49h1v1H7zm30 9h1v1h-1z" fill="#791f19"/><path fill="#584d4b" d="M26 27h1v1h-1z"/><path fill="#9e9b9a" d="M20 31h1v1h-1z"/><path fill="#4e2320" d="M27 35h1v1h-1z"/><path fill="#eee2e1" d="M44 9h1v1h-1z"/><path fill="#6e0e08" d="M14 11h1v1h-1z"/><path fill="#bebec0" d="M25 20h1v1h-1z"/><path fill="#f2f4f5" d="M34 28h1v1h-1z"/><path fill="#e0b86b" d="M19 10h1v1h-1z"/><path d="M14 7h1v1h-1zm-6 5h1v1H8z" fill="#a56a66"/><path fill="#7f6233" d="M30 10h1v1h-1z"/><path fill="#886935" d="M24 20h1v1h-1z"/><path d="M27 29h1v1h-1zm5 0h1v1h-1zm-4 1h1v1h-1zm6 4h1v1h-1z" fill="#feffff"/><path fill="#a18040" d="M40 41h1v1h-1z"/><path fill="#be9391" d="M21 55h1v1h-1z"/><path d="M15 4h1v1h-1zm-1 1h1v1h-1zM4 15h1v1H4zm49 30h1v1h-1zm-2 4h1v1h-1zm-28 9h1v1h-1z" fill="#771c16"/><path d="M5 17h1v1H5zm0 7h1v1H5zm37 29h1v1h-1zm-11 2h1v1h-1z" fill="#b58481"/><path fill="#f9fafb" d="M34 27h1v1h-1z"/><path fill="#eedab5" d="M23 46h1v1h-1z"/><path fill="#f6ecda" d="M33 48h1v1h-1z"/><path fill="#c19892" d="M38 8h1v1h-1z"/><path d="M45 37h1v1h-1zm-19 7h1v1h-1zm7 0h1v1h-1z" fill="#d7a850"/><path fill="#6b5e4b" d="M32 15h1v1h-1z"/><path d="M56 24h1v1h-1zm-1 7h1v1h-1zM29 55h1v1h-1z" fill="#cba9a7"/><path fill="#ae7874" d="M45 9h1v1h-1z"/><path fill="#c6a19e" d="M8 14h1v1H8z"/><path fill="#cea14d" d="M13 35h1v1h-1z"/><path fill="#e8cd9a" d="M51 36h1v1h-1z"/><path d="M55 36h1v1h-1zM10 48h1v1h-1z" fill="#7b231e"/><path d="M26 5h1v1h-1zM5 30h1v1H5zm51 6h1v1h-1zm-4 3h1v1h-1z" fill="#6f110a"/><path fill="#a17b38" d="M27 14h1v1h-1z"/><path fill="#6a4542" d="M27 22h1v1h-1z"/><path d="M8 36h1v1H8zm15 15h1v1h-1z" fill="#e8cc98"/><path fill="#be9491" d="M12 47h1v1h-1z"/><path d="M11 7h1v1h-1zm-4 4h1v1H7zm45 0h1v1h-1zM28 27h1v1h-1zM0 34h1v1H0zm57 7h1v1h-1z" fill="#791e17"/><path fill="#791b14" d="M2 22h1v1H2z"/><path fill="#6c6866" d="M26 32h1v1h-1z"/><path fill="#9e5f5e" d="M14 12h1v1h-1z"/><path d="M21 44h1v1h-1zm4 1h1v1h-1zm12 3h1v1h-1z" fill="#e4c58c"/><path d="M11 6h1v1h-1zm15 53h1v1h-1z" fill="#791e1a"/><path d="M52 14h1v1h-1zM8 47h1v1H8z" fill="#97524e"/><path d="M23 20h1v1h-1zm13 0h1v1h-1zM16 30h1v1h-1zm27 0h1v1h-1zm-31 3h1v1h-1zm35 0h1v1h-1zm-34 3h1v1h-1zm33 0h1v1h-1zm-11 8h1v1h-1z" fill="#ddab51"/><path fill="#721b15" d="M31 24h1v1h-1z"/><path fill="#acb0af" d="M28 29h1v1h-1z"/><path fill="#caa59d" d="M50 40h1v1h-1z"/><path fill="#e0b96d" d="M19 49h1v1h-1z"/><path fill="#86332d" d="M51 11h1v1h-1z"/><path d="M47 9h1v1h-1zm4 6h1v1h-1zM5 40h1v1H5z" fill="#d8bebc"/><path fill="#bdbcbb" d="M28 18h1v1h-1z"/><path fill="#886c6a" d="M32 21h1v1h-1z"/><path fill="#7c7367" d="M24 22h1v1h-1z"/><path fill="#561915" d="M28 25h1v1h-1z"/><path d="M7 37h1v1H7zm45 0h1v1h-1z" fill="#82302d"/><path d="M10 44h1v1h-1zm9 8h1v1h-1z" fill="#a26661"/><path fill="#781812" d="M6 46h1v1H6z"/><path d="M51 12h1v1h-1zM36 54h1v1h-1z" fill="#a76d6a"/><path fill="#e5d4d3" d="M5 36h1v1H5z"/><path d="M43 6h1v1h-1zm5 7h1v1h-1z" fill="#8e443f"/><path fill="#ecdfde" d="M16 7h1v1h-1z"/><path fill="#e8cc97" d="M8 23h1v1H8z"/><path fill="#f2f5f5" d="M26 24h1v1h-1z"/><path fill="#5d5452" d="M33 27h1v1h-1z"/><path d="M57 27h1v1h-1zM44 53h1v1h-1z" fill="#7b251f"/><path fill="#736249" d="M35 28h1v1h-1z"/><path d="M36 1h1v1h-1zm3 1h1v1h-1zM16 3h1v1h-1zm-3 2h1v1h-1zM2 19h1v1H2zm-2 8h1v1H0zm59 2h1v1h-1z" fill="#781f18"/><path fill="#914844" d="M26 57h1v1h-1z"/><path d="M6 13h1v1H6zm-2 3h1v1H4zM3 40h1v1H3zm34 17h1v1h-1z" fill="#7b1d17"/><path fill="#914944" d="M54 20h1v1h-1z"/><path fill="#583d25" d="M42 39h1v1h-1z"/><path fill="#7a211b" d="M24 57h1v1h-1z"/><path d="M33 1h1v1h-1zm5 56h1v1h-1z" fill="#791c15"/><path fill="#792019" d="M43 3h1v1h-1z"/><path fill="#832e28" d="M42 4h1v1h-1z"/><path fill="#7d2823" d="M38 7h1v1h-1z"/><path d="M24 9h1v1h-1zm11 0h1v1h-1zm-14 1h1v1h-1zm17 0h1v1h-1zm-22 3h1v1h-1zm27 0h1v1h-1zm-30 3h1v1h-1zm33 0h1v1h-1zm2 3h1v1h-1zm-38 2h1v1h-1zm39 0h1v1h-1zM9 24h1v1H9zm41 0h1v1h-1zM9 35h1v1H9zm41 0h1v1h-1zm-40 3h1v1h-1zm39 0h1v1h-1zm-1 2h1v1h-1zm-35 3h1v1h-1zm33 0h1v1h-1zm-30 3h1v1h-1zm27 0h1v1h-1zm-24 2h1v1h-1zm2 1h1v1h-1zm15 0h1v1h-1zm1 0h1v1h-1zm-13 1h1v1h-1zm6 0h1v1h-1zm5 0h1v1h-1z" fill="#d5a44b"/><path fill="#6d1b15" d="M30 35h1v1h-1z"/><path d="M48 42h1v1h-1zm-6 6h1v1h-1z" fill="#e7c889"/><path fill="#ecd7b1" d="M30 48h1v1h-1z"/><path d="M24 0h1v1h-1zm21 5h1v1h-1zM0 24h1v1H0zm58 1h1v1h-1zM28 42h1v1h-1zm3 0h1v1h-1zM9 50h1v1H9zm1 1h1v1h-1zm4 3h1v1h-1zm28 2h1v1h-1zm-23 1h1v1h-1zm21 0h1v1h-1z" fill="#791e18"/><path d="M12 53h1v1h-1zm1 1h1v1h-1z" fill="#7a1f1a"/><path fill="#863731" d="M41 8h1v1h-1z"/><path fill="#802c27" d="M45 10h1v1h-1z"/><path fill="#ebd5b1" d="M14 13h1v1h-1z"/><path fill="#33211f" d="M31 19h1v1h-1z"/><path fill="#671711" d="M28 21h1v1h-1z"/><path d="M37 24h1v1h-1zm-15 1h1v1h-1zm15 0h1v1h-1zm-17 4h1v1h-1z" fill="#dbaa50"/><path fill="#771b15" d="M20 2h1v1h-1z"/><path fill="#c7c9c8" d="M42 34h1v1h-1z"/><path d="M21 36h1v1h-1zm14 0h1v1h-1z" fill="#681510"/><path fill="#70552f" d="M41 40h1v1h-1z"/><path fill="#7e5b59" d="M27 28h1v1h-1z"/><path fill="#7e2924" d="M7 20h1v1H7z"/><path fill="#dba950" d="M22 24h1v1h-1z"/><path d="M52 27h1v1h-1zm0 5h1v1h-1z" fill="#e4caa6"/><path fill="#6f1913" d="M34 36h1v1h-1z"/><path fill="#8b3c37" d="M8 48h1v1H8z"/><path fill="#c29997" d="M32 56h1v1h-1z"/><path fill="#7f2b26" d="M9 17h1v1H9z"/><path fill="#761e18" d="M2 18h1v1H2z"/><path fill="#721b16" d="M31 23h1v1h-1z"/><path d="M35 0h1v1h-1zM3 19h1v1H3zm15 19h1v1h-1zm23 0h1v1h-1z" fill="#7c1f19"/><path fill="#d1b0a1" d="M52 34h1v1h-1z"/><path d="M37 47h1v1h-1zm-8 1h1v1h-1z" fill="#d9ac5b"/><path fill="#822a24" d="M44 54h1v1h-1z"/><path fill="#812f2c" d="M7 22h1v1H7z"/><path fill="#852e29" d="M57 22h1v1h-1z"/><path d="M5 47h1v1H5zm7 7h1v1h-1z" fill="#781e1e"/><path d="M48 9h1v1h-1zM35 56h1v1h-1z" fill="#cdaca9"/><path fill="#4c1814" d="M31 25h1v1h-1z"/><path fill="#c49a4a" d="M16 39h1v1h-1z"/><path fill="#7b241f" d="M51 40h1v1h-1z"/><path fill="#f5ead5" d="M24 45h1v1h-1z"/><path fill="#9b5854" d="M14 50h1v1h-1z"/><path d="M23 2h1v1h-1zM9 9h1v1H9z" fill="#771a14"/><path fill="#696362" d="M29 30h1v1h-1z"/><path d="M4 33h1v1H4zm2 6h1v1H6z" fill="#be928f"/><path fill="#9f9d9d" d="M24 25h1v1h-1z"/><path fill="#9d9fa5" d="M14 33h1v1h-1z"/><path fill="#caa8a6" d="M53 15h1v1h-1z"/><path d="M26 2h1v2h-1zm0 2h1v1h-1z" fill="#9a5854"/><path fill="#481c18" d="M30 27h1v1h-1z"/><path fill="#7d7978" d="M29 31h1v1h-1z"/><path fill="#71140e" d="M8 40h1v1H8z"/><path fill="#eedbb8" d="M35 48h1v1h-1z"/><path fill="#893c3a" d="M27 6h1v1h-1z"/><path fill="#a1635f" d="M6 23h1v1H6z"/><path fill="#de261c" d="M30 23h1v1h-1z"/><path fill="#4e4240" d="M29 34h1v1h-1z"/><path d="M37 1h1v1h-1zm3 1h1v1h-1zm4 2h1v1h-1zM0 28h1v1H0zm2 12h1v1H2zm4 7h1v1H6zm39 6h1v1h-1zm-1 2h1v1h-1zm-20 3h1v1h-1z" fill="#781e18"/><path fill="#413937" d="M27 25h1v1h-1z"/><path fill="#f9f9f9" d="M25 26h1v1h-1z"/><path d="M5 35h1v1H5zm50 3h1v1h-1z" fill="#9c5a56"/><path fill="#85332d" d="M10 50h1v1h-1z"/><path fill="#ebd6b1" d="M13 14h1v1h-1z"/><path d="M31 5h1v1h-1zm7 0h1v1h-1zm18 27h1v1h-1z" fill="#71130d"/><path d="M32 6h1v1h-1zm21 21h1v1h-1zm0 5h1v1h-1z" fill="#873937"/><path fill="#dac1c0" d="M44 6h1v1h-1z"/><path fill="#bc8f8a" d="M35 7h1v1h-1z"/><path fill="#815f5d" d="M27 21h1v1h-1z"/><path fill="#f9f2e6" d="M30 47h1v1h-1z"/><path fill="#a46863" d="M40 53h1v1h-1z"/><path d="M39 1h1v1h-1zm20 34h1v1h-1z" fill="#751c1c"/><path d="M7 17h1v1H7zm7 34h1v1h-1zm11 6h1v1h-1z" fill="#934b47"/><path fill="#cfcece" d="M26 28h1v1h-1z"/><path d="M39 8h1v1h-1zM6 28h1v1H6zm44 13h1v1h-1z" fill="#8e4443"/><path fill="#6f110c" d="M7 21h1v1H7z"/><path fill="#fbfdfd" d="M33 22h1v1h-1z"/><path d="M6 25h1v1H6zm47 1h1v1h-1z" fill="#7e2a26"/><path d="M53 28h1v1h-1zM27 53h1v1h-1z" fill="#8c4240"/><path fill="#b5b5b7" d="M16 32h1v1h-1z"/><path fill="#daae5f" d="M39 48h1v1h-1z"/><path d="M28 0h1v1h-1zm10 58h1v1h-1z" fill="#791e19"/><path d="M29 8h1v1h-1zm1 0h1v1h-1zm-3 37h1v1h-1z" fill="#d6a449"/><path fill="#6c0b05" d="M6 17h1v1H6z"/><path fill="#e2af51" d="M23 29h1v1h-1z"/><path fill="#88817b" d="M40 31h1v1h-1z"/><path fill="#741a14" d="M40 36h1v1h-1z"/><path fill="#71140f" d="M40 51h1v1h-1z"/><path fill="#bb8e8c" d="M15 6h1v1h-1z"/><path fill="#787372" d="M27 19h1v1h-1z"/><path d="M51 35h1v1h-1zM35 51h1v1h-1z" fill="#e3bf78"/><path d="M15 12h1v1h-1zm32 3h1v1h-1z" fill="#e8d2b6"/><path fill="#989594" d="M27 33h1v1h-1z"/><path fill="#a6a4a3" d="M33 33h1v1h-1z"/><path fill="#746866" d="M15 34h1v1h-1z"/><path d="M43 39h1v1h-1zm-15 5h1v1h-1zm3 0h1v1h-1z" fill="#c59b4b"/><path fill="#9d5e5d" d="M12 45h1v1h-1z"/><path fill="#70130d" d="M24 53h1v1h-1z"/><path d="M24 2h1v1h-1zm-6 49h1v1h-1z" fill="#9f5f5b"/><path d="M18 49h1v1h-1zm14 3h1v1h-1z" fill="#e5cba8"/><path fill="#8e3d38" d="M22 57h1v1h-1z"/><path fill="#9d9a99" d="M35 24h1v1h-1z"/><path fill="#e2e3e6" d="M42 32h1v1h-1z"/><path d="M17 36h1v1h-1zm25 0h1v1h-1zM26 58h1v1h-1z" fill="#7b1f18"/><path fill="#72562f" d="M25 43h1v1h-1z"/><path d="M20 3h1v1h-1zm11 54h1v1h-1z" fill="#8e433e"/><path fill="#7f140d" d="M32 27h1v1h-1z"/><path fill="#924b4a" d="M6 29h1v1H6z"/><path fill="#944e4d" d="M6 30h1v1H6z"/><path fill="#8c413c" d="M5 31h1v1H5z"/><path fill="#d7a751" d="M17 44h1v1h-1z"/><path fill="#d1b0a3" d="M34 52h1v1h-1z"/><path fill="#995655" d="M36 7h1v1h-1z"/><path fill="#7d2520" d="M58 28h1v1h-1z"/><path fill="#5f1816" d="M43 37h1v1h-1z"/><path d="M24 42h1v1h-1zm11 0h1v1h-1z" fill="#561917"/><path fill="#96514c" d="M5 19h1v1H5z"/><path d="M42 2h1v1h-1zM15 3h1v1h-1zM3 15h1v1H3zm-1 2h1v1H2zM0 36h1v1H0zm23 23h1v1h-1z" fill="#801a1a"/><path fill="#92733b" d="M14 36h1v1h-1z"/><path d="M10 42h1v1h-1zm27 13h1v1h-1z" fill="#b98c88"/><path fill="#721" d="M47 54h1v1h-1z"/><path d="M34 0h1v1h-1zm22 18h1v1h-1zM41 36h1v1h-1zm15 5h1v1h-1zM5 45h1v1H5zm3 4h1v1H8z" fill="#791d17"/><path fill="#7a1e17" d="M1 25h1v1H1z"/><path d="M40 7h1v1h-1zM2 25h1v1H2z" fill="#863630"/><path fill="#7a633d" d="M14 32h1v1h-1z"/><path fill="#d7a852" d="M28 48h1v1h-1z"/><path fill="#832d28" d="M17 55h1v1h-1z"/><path fill="#b3b2b1" d="M29 18h1v1h-1z"/><path fill="#8b3f3d" d="M44 11h1v1h-1z"/><path fill="#451c18" d="M29 27h1v1h-1z"/><path fill="#7f7871" d="M15 32h1v1h-1z"/><path fill="#553a24" d="M43 38h1v1h-1z"/><path fill="#6b1a17" d="M22 41h1v1h-1z"/><path fill="#dcaa4e" d="M25 44h1v1h-1z"/><path fill="#d1afa1" d="M25 52h1v1h-1z"/><path d="M23 6h1v1h-1zm23 6h1v1h-1zm5 6h1v1h-1zm2 6h1v1h-1z" fill="#8b3f3a"/><path fill="#79211a" d="M18 57h1v1h-1z"/><path fill="#7f5f5c" d="M32 28h1v1h-1z"/><path d="M27 2h1v1h-1zm-8 4h1v1h-1zm38 14h1v1h-1zM12 49h1v1h-1zm4 1h1v1h-1zm-1 2h1v1h-1z" fill="#741812"/><path fill="#7d6134" d="M26 16h1v1h-1z"/><path fill="#7c2621" d="M54 17h1v1h-1z"/><path fill="#eef0f2" d="M34 21h1v1h-1z"/><path fill="#fcfdfd" d="M31 30h1v1h-1z"/><path fill="#e3be77" d="M50 38h1v1h-1z"/><path fill="#9c5c5b" d="M14 47h1v1h-1z"/><path d="M26 14h1v1h-1zm7 0h1v1h-1zM21 29h1v1h-1zm17 0h1v1h-1zm-26 5h1v1h-1zm35 0h1v1h-1zm-28 8h1v1h-1zm21 0h1v1h-1zm-2 1h1v1h-1zm-4 1h1v1h-1z" fill="#dcab51"/><path d="M22 9h1v1h-1zM9 22h1v1H9zm-1 4h1v1H8zm0 7h1v1H8z" fill="#d7a84f"/><path d="M20 10h1v1h-1zm19 0h1v1h-1zM10 20h1v1h-1zm39 0h1v1h-1zM8 28h1v1H8zm43 0h1v1h-1zM8 31h1v1H8zm43 0h1v1h-1zm-41 8h1v1h-1zm39 0h1v1h-1zM20 49h1v1h-1zm8 2h1v1h-1zm3 0h1v1h-1z" fill="#d5a449"/><path d="M11 11h1v1h-1zM7 45h1v1H7zm41 4h1v1h-1zm-18 9h1v1h-1z" fill="#7a221c"/><path fill="#7e7873" d="M33 17h1v1h-1z"/><path fill="#f0f2f2" d="M33 34h1v1h-1z"/><path d="M15 36h1v1h-1zm29 0h1v1h-1z" fill="#511916"/><path fill="#904743" d="M47 46h1v1h-1z"/><path d="M35 4h1v1h-1zM18 7h1v1h-1zm21 0h1v1h-1z" fill="#95504b"/><path fill="#ba8d8b" d="M28 57h1v1h-1z"/><path fill="#7b1e17" d="M53 46h1v1h-1z"/><path fill="#7f7972" d="M44 32h1v1h-1z"/><g fill="#7c7472"><path d="M36 35h1v1h-1zm1 0h1v1h-1z"/></g><g fill="#c49d9a"><path d="M53 43h1v1h-1zM24 56h1v1h-1z"/></g><path fill="#e9d1a3" d="M36 48h1v1h-1z"/><path fill="#8d4240" d="M11 15h1v1h-1z"/><path fill="#7b7776" d="M29 32h1v1h-1z"/><g fill="#d7a64f"><path d="M13 37h1v1h-1zm33 0h1v1h-1z"/></g><path fill="#f0ddbd" d="M32 47h1v1h-1z"/><path fill="#7e2721" d="M58 31h1v1h-1z"/><path fill="#d1261c" d="M30 22h1v1h-1z"/><path fill="#756959" d="M41 31h1v1h-1z"/><path fill="#ead5b3" d="M45 46h1v1h-1z"/><g fill="#c99c4b"><path d="M29 9h1v1h-1zm1 0h1v1h-1z"/></g><path fill="#7b1c16" d="M28 24h1v1h-1z"/><g fill="#771e1a"><path d="M0 25h1v1H0zm10 18h1v1h-1z"/></g><path fill="#d2d2d2" d="M33 28h1v1h-1z"/><path fill="#8e8b8a" d="M31 14h1v1h-1z"/></svg>