<svg xmlns="http://www.w3.org/2000/svg" role="img" viewBox="104.25 56.75 871.00 243.00"><title>Indicio logo</title><path d="M121.35 93.8H152v187h-30.65zm170.89 104.11c0-27.17-14.8-41.16-37.13-41.16-22.6 0-37.39 14-37.39 41.16v82.86h-30.67V132.54h30.67v17c9.95-12.11 26.36-19.38 44.12-19.38 34.7 0 60.79 21.8 60.79 63.23v87.43h-30.39zm124.12-67.8c19.37 0 39.81 9.15 51.11 23.14V81.69h30.94v199.08h-30.94v-22.33c-9.41 13.45-27.17 24.75-51.38 24.75-39 0-69.95-31.48-69.95-77.21s30.94-75.87 70.22-75.87zm6.19 26.64c-22.87 0-44.93 17.21-44.93 49.23s22.06 50.57 44.93 50.57c23.13 0 44.92-18 44.92-50 0-31.78-21.79-49.8-44.92-49.8zm237.57-26.64c36.31 0 60 18 68.33 49.24h-33.09c-5.11-14.26-17-23.41-35.24-23.41-24.75 0-41.16 18.29-41.16 50.58 0 32.55 16.41 50.84 41.16 50.84 18.29 0 29.59-8.07 35.24-23.4h33.09c-8.34 29-32 49.23-68.33 49.23-42.51 0-72.64-30.13-72.64-76.67 0-46.27 30.13-76.41 72.64-76.41zM881.7 283.19c-42.23 0-74.24-30.13-74.24-76.67s33.35-76.41 75.59-76.41 75.6 29.87 75.6 76.41-34.44 76.67-76.95 76.67zm0-26.64c22.87 0 45.47-16.41 45.47-50s-21.79-49.77-44.66-49.77c-23.13 0-43.85 16.14-43.85 49.77s19.91 50 43.04 50z"/><path fill="#f16922" d="M547.91 136.65a17.74 17.74 0 0 1-11-3.82 1.37 1.37 0 0 0-.85-.29H534a1.37 1.37 0 0 0-1.38 1.37v146.86h30.67V133.91a1.37 1.37 0 0 0-1.37-1.37h-2.1a1.34 1.34 0 0 0-.84.29 17.74 17.74 0 0 1-11.07 3.82zm-19.37-43.39a19.51 19.51 0 1 1 19.64 19.64 19.41 19.41 0 0 1-19.64-19.64zm239.07 43.39a17.76 17.76 0 0 1-11-3.82 1.34 1.34 0 0 0-.84-.29h-2.1a1.37 1.37 0 0 0-1.37 1.37v146.86H783V133.91a1.37 1.37 0 0 0-1.38-1.37h-2.09a1.39 1.39 0 0 0-.85.29 17.74 17.74 0 0 1-11.07 3.82zm-19.37-43.39a19.51 19.51 0 1 1 19.64 19.64 19.41 19.41 0 0 1-19.64-19.64z"/></svg>