<svg xmlns="http://www.w3.org/2000/svg" role="img" viewBox="-6.91 -6.91 359.06 153.31"><title>International Game Developers Association (member) logo</title><g fill-opacity="1" fill-rule="nonzero" stroke="none" transform="matrix(1.33333 0 0 -1.33333 0 139.56) scale(.1)"><path fill="#070807" d="M2524.04 737.57h11.16c5.34 0 8.98.778 10.93 2.375 1.93 1.598 2.9 3.707 2.9 6.309 0 1.707-.48 3.199-1.41 4.535-.93 1.336-2.23 2.336-3.88 2.969-1.67.683-4.75 1.004-9.23 1.004h-10.47zm-9.18-32.054v56.941h19.56c6.7 0 11.53-.508 14.56-1.582 2.97-1.02 5.36-2.863 7.13-5.5 1.78-2.617 2.67-5.395 2.67-8.348 0-4.148-1.49-7.765-4.46-10.859-2.97-3.078-6.91-4.816-11.83-5.203 2-.844 3.64-1.828 4.85-2.988 2.29-2.25 5.1-6.028 8.44-11.301l6.92-11.16h-11.23l-5.04 8.98c-3.96 7.067-7.19 11.477-9.6 13.254-1.68 1.316-4.16 1.949-7.38 1.949h-5.41v-24.183zm23.22 73.425c-7.42 0-14.68-1.886-21.69-5.695-7.04-3.848-12.55-9.277-16.53-16.344-3.98-7.097-5.96-14.48-5.96-22.14 0-7.629 1.95-14.907 5.87-21.918 3.88-6.992 9.35-12.442 16.34-16.344 7.03-3.918 14.34-5.852 21.97-5.852 7.63 0 14.94 1.934 21.95 5.852 7.03 3.902 12.48 9.352 16.33 16.344 3.9 7.011 5.83 14.289 5.83 21.918 0 7.66-1.98 15.043-5.92 22.14-3.96 7.067-9.44 12.496-16.52 16.344-7.05 3.809-14.29 5.695-21.67 5.695zm0 8.77c8.87 0 17.56-2.266 26.01-6.824 8.49-4.563 15.08-11.082 19.79-19.59 4.73-8.469 7.1-17.328 7.1-26.535 0-9.106-2.34-17.875-7.01-26.293-4.63-8.434-11.15-14.938-19.55-19.578-8.38-4.672-17.17-7.012-26.34-7.012-9.17 0-17.94 2.34-26.34 7.012-8.37 4.64-14.92 11.144-19.58 19.578-4.69 8.418-7.03 17.187-7.03 26.293 0 9.207 2.37 18.066 7.12 26.535 4.74 8.508 11.35 15.027 19.8 19.59 8.47 4.558 17.16 6.824 26.03 6.824"/><path fill="#070807" d="M1310.14 839.238h47.12v-61.445h-47.12zm1.41-200.679c0 9.984-5.7 15.711-15.7 15.711h-30.01v42.144h50.72c30.72 0 43.55-12.863 43.55-43.586V395.012c0-10.668 5.74-15.676 15.72-15.676h29.99v-42.16h-50.7c-30.71 0-43.57 12.883-43.57 43.586v257.797"/><path fill="#070807" d="M1700.77 523.586c0 104.988-50 137.113-113.57 137.113-69.96 0-110.7-50.699-110.7-136.375 0-85.726 46.41-141.437 117.13-141.437 57.14 0 107.14 34.992 107.14 140.699m-118.56 181.367c96.41 0 119.24-61.402 119.24-61.402h1.44v13.566c0 25.692 11.43 39.297 40.71 39.297h49.99V654.27h-29.27c-10.02 0-15.73-4.993-15.73-15.711V345.785c0-114.277-84.25-158.547-172.81-158.547-40.72 0-82.13 10.688-117.13 28.563l18.57 40.699s44.27-24.992 97.13-24.992c69.99 0 125.68 32.867 125.68 112.836v31.39c0 13.602.74 25.731.74 25.731h-1.46c-21.41-39.266-57.1-62.145-112.83-62.145-96.41 0-159.98 76.43-159.98 184.266 0 107.836 59.28 181.367 155.71 181.367"/><path fill="#070807" d="M2091.36 517.188c0 72.812-37.14 144.218-114.25 144.218-63.57 0-115.68-53.566-115.68-144.218 0-88.59 46.4-145.004 113.52-145.004 59.99 0 116.41 42.847 116.41 145.004m-118.54 187.765c87.13 0 117.1-67.098 117.1-67.098h1.44s-1.44 12.125-1.44 27.118v116.422c0 9.992-5.7 15.691-15.7 15.691h-30v42.152h50.72c30.69 0 43.55-12.863 43.55-43.574V395.012c0-10.668 5.71-15.676 15.71-15.676h30v-42.16h-49.98c-30 0-42.86 13.586-42.86 40.035 0 13.566 1.42 22.828 1.42 22.828h-1.42s-29.28-71.441-123.53-71.441c-96.42 0-156.41 77.136-156.41 188.59 0 113.515 67.13 187.765 161.4 187.765"/><path fill="#070807" d="M2345.57 370.039c68.57 0 109.98 71.402 109.98 133.551v16.414h-20.72c-56.39 0-169.24-1.41-169.24-82.109 0-33.571 26.45-67.856 79.98-67.856m89.98 188.539h20v4.305c0 74.972-27.13 101.371-92.83 101.371-17.85 0-69.98-4.992-69.98-31.391V610h-46.41v34.27c0 50 85.67 60.683 117.1 60.683 113.56 0 140.7-60.683 140.7-137.816V395.012c0-10.684 5.69-15.676 15.69-15.676h30v-42.16h-49.28c-30.7 0-42.84 13.586-42.84 42.883 0 15.675.7 26.394.7 26.394h-1.41c.71 0-29.28-77.855-119.26-77.855-60 0-122.12 35.007-122.12 106.433 0 119.258 157.83 123.547 219.94 123.547"/><path fill="#f6d706" d="M596.746 1046.03l-27.574-199.557c142.547 7.625 257.027-92.821 245.918-244.559-11.547-157.625-158.188-301.328-322.438-309.59l-3.636-26.386S1137.9 94.7461 1129.76 597.523c0 0 47.36 449.147-496.776 449.147-11.808 0-23.882-.21-36.238-.64"/><path fill="#d91e25" d="M22.9961 574.711S-150.27 75.6445 454.41 0l40.332 291.957c-3.531-.191-7.047-.387-10.594-.441-162.597-2.356-260.242 129.523-229.699 280.398 29.297 144.816 163.934 261.238 307.481 273.59 3.129.273 6.222.434 9.332.582l2.41 17.391s-52.582 11.472-125.711 11.472c-142.422 0-362.8399-43.523-424.9649-300.238"/></g></svg>