<svg xmlns="http://www.w3.org/2000/svg" role="img" viewBox="9.13 14.13 643.24 233.24"><title>International Securities Lending Association logo</title><style>svg {enable-background:new 0 0 655.1 261.6}</style><path fill="#09a09a" d="M258.9 93.1h-4.6c0-18.8-14.1-61.1-57.3-61.1-19.5 0-38.3 10.2-38.3 34.7C158.7 128.3 275 87.6 275 169c0 40.6-24.2 66.3-71.2 66.3-29.1 0-42-14.5-51.4-14.5-7.6 0-9.5 2.9-9.5 10h-4.3v-64.4h4.3c0 26.2 11.9 63.5 59.2 63.5 23.1 0 45.4-15.2 45.4-40.9 0-59.8-111.9-23.8-111.9-97.5 0-35.5 23.4-64.8 62.7-64.8 20 0 40 17.8 47.7 17.8 6.5 0 8.2-10.9 8.2-12.7h4.6v61.3zm68-56.8h-23.2v-4.5H389v4.5h-23.2v190h26.1c54.3 0 71.2-6.4 71.2-59.8h4.5v64.3h-164v-4.5h23.2v-190z"/><path fill="#575756" d="M563.3 226.3h-8.2v4.5h85.3v-4.6H622L554.9 31.8h-13.8l-14.5 36.1 2.8 8.3 29.1 85.6h-54.9l-1.7 4.7h58l20.4 59.7zM45.1 36.3H21.7v-4.5h85.4v4.5h-23v190h23v4.5H21.7v-4.5h23.4v-190z"/></svg>