<svg xmlns="http://www.w3.org/2000/svg" role="img" viewBox="-23.98 -23.98 1246.96 646.96"><title>Integrated Computer Solutions, Inc. (member) logo</title><g data-name="Layer 2"><g data-name="Layer 2-2"><rect width="1200" height="600" fill="#422b6f" stroke-width="0" data-name="Purple Rectangle" rx="30" ry="30"/><path fill="#fff" stroke-width="0" d="M292.5 505.29H186v-410h106.5v410zm381.79-9.68c-34.86 13.79-67.14 20.68-96.85 20.68-51.73 0-98.07-16.51-139-49.53-52.14-42.22-78.21-97.24-78.2-165.07 0-68.04 26.07-123.17 78.2-165.38 40.9-33.02 87.52-49.53 139.85-49.52 28.47 0 60.45 6.89 95.95 20.67v127.33c-10.05-12.14-20.3-21.3-30.75-27.48-18.56-11.19-39.83-17.07-61.5-17-27.74 0-51.86 8.31-72.36 24.92-25.93 21.02-38.9 49.85-38.89 86.48 0 36.43 12.96 65.16 38.89 86.17 20.5 16.62 44.62 24.93 72.36 24.93 21.67.07 42.94-5.81 61.5-17 10.25-6 20.5-15.16 30.75-27.47l.05 127.27zm351.25-125.72c0 69.2-30.39 114.3-91.17 135.3-21.2 7.39-43.99 11.09-68.37 11.1-51.19 0-98.68-15.47-142.46-46.4l45.5-85.6c32.04 28.67 63.37 43 94 43 13.82 0 25.54-3.22 35.15-9.66C909.4 410.4 915 400.15 915 386.86c0-12.07-6.21-22.13-18.63-30.17-9.22-6-24.75-12.13-46.58-18.4-26.42-7.82-43.02-13.23-49.79-16.23-9.94-4.07-19.25-9.54-27.65-16.23-21.84-18-32.76-45.24-32.76-81.72 0-38.07 11.31-69.62 33.92-94.65 26.4-29.45 61.61-44.18 105.64-44.17 44.21 0 87.52 11.09 129.94 33.27l-42.5 82.73c-23.28-18-46.76-27-70.44-27-10.88-.16-21.56 2.9-30.71 8.79-10.29 6.68-15.44 15.58-15.44 26.69s6.71 20.32 20.13 28.21c6 3.64 24.03 9.91 54.1 18.81 37.66 11 64.51 26.6 80.54 46.79 13.85 17.21 20.77 39.32 20.77 66.31z" data-name="ICS White"/></g></g></svg>