<svg xmlns="http://www.w3.org/2000/svg" role="img" viewBox="5.78 2.66 115.18 64.18"><title>ITGix (member) logo</title><style>svg {enable-background:new 0 0 126 73.7}</style><style>.st0{fill:#6bdc6e}.st1{fill:#0d1e66}</style><path d="M61.4 4.9c-12 0-21.7 9.7-21.7 21.7s9.7 21.7 21.7 21.7 21.7-9.7 21.7-21.7c-.1-12-9.8-21.7-21.7-21.7zm12.4 30.5c-2.9 4-7.5 6.4-12.5 6.4C52.9 41.8 46 35 46 26.5c0-8.4 6.8-15.3 15.3-15.3 4.8 0 9.4 2.3 12.3 6.2.8 1.1.6 2.7-.5 3.5-1.1.8-2.7.6-3.5-.5-2-2.6-5-4.2-8.2-4.2-5.7 0-10.3 4.6-10.3 10.3s4.6 10.3 10.3 10.3c3.3 0 6.5-1.6 8.4-4.3.8-1.1 2.4-1.4 3.5-.6 1 .9 1.3 2.4.5 3.5zm.9-6.3H63.4c-1.4 0-2.5-1.1-2.5-2.5s1.1-2.5 2.5-2.5h11.3c1.4 0 2.5 1.1 2.5 2.5s-1.1 2.5-2.5 2.5z" class="st0"/><path d="M34.8 21.7H19.5c-1.4 0-2.5-1.1-2.5-2.5s1.1-2.5 2.5-2.5h15.3c1.4 0 2.5 1.1 2.5 2.5s-1.2 2.5-2.5 2.5z" class="st1"/><path d="M27.1 39.4c-1.4 0-2.5-1.1-2.5-2.5v-11c0-1.4 1.1-2.5 2.5-2.5s2.5 1.1 2.5 2.5v11c0 1.3-1.1 2.5-2.5 2.5z" class="st1"/><path d="M90.6 39.4c-1.4 0-2.5-1.1-2.5-2.5V19c0-1.4 1.1-2.5 2.5-2.5s2.5 1.1 2.5 2.5v17.8c0 1.4-1.1 2.6-2.5 2.6z" class="st0"/><path d="M11.1 39.4c-1.4 0-2.5-1.1-2.5-2.5V19c0-1.4 1.1-2.5 2.5-2.5s2.5 1.1 2.5 2.5v17.8c0 1.4-1.2 2.6-2.5 2.6z" class="st1"/><path d="M115.2 39.6c-.7 0-1.4-.3-1.9-.9l-14.8-18c-.9-1.1-.7-2.6.3-3.5 1.1-.9 2.6-.7 3.5.3l14.8 18c.9 1.1.7 2.6-.3 3.5-.5.4-1.1.6-1.6.6z" class="st0"/><path d="M112.1 25.4c-.6 0-1.1-.2-1.6-.6-1.1-.9-1.2-2.5-.3-3.5l3.1-3.8c.9-1.1 2.5-1.2 3.5-.3 1.1.9 1.2 2.5.3 3.5l-3.1 3.8c-.5.6-1.2.9-1.9.9z" class="st0"/><path d="M100.4 39.6c-.6 0-1.1-.2-1.6-.6-1.1-.9-1.2-2.5-.3-3.5l3.1-3.8c.9-1.1 2.5-1.2 3.5-.3 1.1.9 1.2 2.5.3 3.5l-3.1 3.8c-.5.6-1.2.9-1.9.9z" class="st0"/><g><path d="M8.1 58.2h2.2c2 0 3.3 1.4 3.3 3.2 0 1.8-1.4 3.2-3.3 3.2H8.1v-6.4zm2.2 5.7c1.6 0 2.6-1.1 2.6-2.5s-1-2.5-2.6-2.5H8.8v5h1.5zm6.3-5.7h4.6v.6h-3.8V61h3.4v.6h-3.4v2.2h3.9v.6h-4.6v-6.2zm6.9 0h.8l2.2 5.4 2.3-5.4h.8l-2.7 6.3h-.6l-2.8-6.3zm8.1 3.2c0-1.7 1.3-3.3 3.2-3.3 1.9 0 3.2 1.5 3.2 3.3 0 1.7-1.3 3.3-3.2 3.3-1.9-.1-3.2-1.6-3.2-3.3zm5.7 0c0-1.4-1-2.6-2.5-2.6s-2.5 1.2-2.5 2.6c0 1.4 1 2.6 2.5 2.6s2.5-1.2 2.5-2.6zm3.7-3.2h2.4c1.4 0 2.4.8 2.4 2 0 1.4-1.1 2.1-2.5 2.1h-1.5v2.2H41v-6.3zm2.3 3.4c1 0 1.7-.6 1.7-1.4 0-.9-.7-1.4-1.7-1.4h-1.6v2.8h1.6zm4.8 2l.4-.5c.7.6 1.3.9 2.2.9.8 0 1.4-.5 1.4-1.1 0-.6-.3-.9-1.6-1.2-1.4-.3-2.1-.8-2.1-1.8s.9-1.7 2.1-1.7c.9 0 1.6.3 2.2.8l-.4.5c-.6-.5-1.2-.7-1.8-.7-.8 0-1.3.5-1.3 1 0 .6.3.9 1.7 1.2 1.4.3 2.1.8 2.1 1.8 0 1.1-.9 1.8-2.2 1.8-1.2 0-2-.3-2.7-1zm15.5 0l.4-.5c.7.6 1.3.9 2.2.9.8 0 1.4-.5 1.4-1.1 0-.6-.3-.9-1.6-1.2-1.4-.3-2.1-.8-2.1-1.8s.9-1.7 2.1-1.7c.9 0 1.6.3 2.2.8l-.4.5c-.6-.5-1.2-.7-1.8-.7-.8 0-1.3.5-1.3 1 0 .6.3.9 1.7 1.2 1.4.3 2.1.8 2.1 1.8 0 1.1-.9 1.8-2.2 1.8-1.2 0-2-.3-2.7-1zm7.6-5.4h4.6v.6H72V61h3.4v.6H72v2.2h3.9v.6h-4.6v-6.2zm7.5 0h2.7c.8 0 1.4.2 1.8.6.3.3.5.7.5 1.3 0 1-.7 1.7-1.7 1.8l1.9 2.6H83l-1.8-2.4h-1.8v2.4h-.7v-6.3zm2.6 3.2c.9 0 1.6-.5 1.6-1.3s-.6-1.2-1.6-1.2h-1.9v2.6h1.9zm4.6-3.2h.8l2.2 5.4 2.3-5.4h.8l-2.7 6.3h-.6l-2.8-6.3zm8.8 0h.7v6.3h-.7v-6.3zm3.7 3.2c0-1.8 1.3-3.3 3.2-3.3 1.1 0 1.8.4 2.4 1l-.5.5c-.5-.5-1.1-.9-2-.9-1.4 0-2.4 1.1-2.4 2.6s1.1 2.6 2.4 2.6c.9 0 1.4-.3 2-.9l.5.5c-.7.7-1.4 1.1-2.5 1.1-1.7 0-3.1-1.4-3.1-3.2zm8.4-3.2h4.6v.6h-3.8V61h3.4v.6h-3.4v2.2h3.9v.6h-4.6v-6.2zm7.1 5.4l.4-.5c.7.6 1.3.9 2.2.9.8 0 1.4-.5 1.4-1.1 0-.6-.3-.9-1.6-1.2-1.4-.3-2.1-.8-2.1-1.8s.9-1.7 2.1-1.7c.9 0 1.6.3 2.2.8l-.4.5c-.6-.5-1.2-.7-1.8-.7-.8 0-1.3.5-1.3 1 0 .6.3.9 1.7 1.2 1.4.3 2.1.8 2.1 1.8 0 1.1-.9 1.8-2.2 1.8-1.2 0-2-.3-2.7-1z" class="st1"/></g></svg>