<svg xmlns="http://www.w3.org/2000/svg" role="img" viewBox="-8.15 -8.15 423.80 186.05"><title>ITAM FORUM (member) logo</title><g fill-rule="evenodd"><path fill="#00a5f2" d="M203.6852 0l14.3657 14.3657-13.9431 13.9419-13.8359 13.8368L176.33 56.0857l-47.8168 47.7193h-28.66L203.6852 0zm.44 37.1775l-66.65 66.6275h28.6926l28.97-28.9111 28.9111 28.9111h27.9423l-42.9027-42.86 9.4028-9.402-14.3662-14.3655zm18.3685-18.3691L307.82 103.805l-27.938-.0008-71.331-71.0547 13.943-13.9411z"/><path fill="#38454d" d="M9.2906 169.2516v-42.23H0v42.23zm43.5687-33.6634v-8.5663H17.869v8.5663h12.85v33.6634h9.291v-33.6634zm49.3 33.6634L84.0609 126.72h-8.5663l-18.0987 42.5316h9.4714l3.8611-9.4714h17.8569l3.861 9.4714zm-16.8916-17.676H74.0466l5.6106-13.6951 5.6107 13.6951zm66.6745 17.676v-42.23h-10.0149l-11.1 17.8571-11.1-17.8571h-10.0146v42.23h9.17v-27.3892l11.7636 17.8576h.2418l11.8845-18.0386v27.57zm61.4256-33.8443v-8.3854h-32.1543v42.23h9.29v-16.3494h20.15v-8.3852h-20.15v-9.11zm51.4724 12.729v-.12a21.6734 21.6734 0 0 0-1.6591-8.4767 20.799 20.799 0 0 0-4.6452-6.8774 22.3566 22.3566 0 0 0-7.0888-4.6446 24.4268 24.4268 0 0 0-18.0083 0 21.6018 21.6018 0 0 0-11.7942 11.6424 21.34 21.34 0 0 0-1.6885 8.4759v.121a21.668 21.668 0 0 0 1.659 8.4759 20.77 20.77 0 0 0 4.6455 6.8774 22.3367 22.3367 0 0 0 7.088 4.6455 24.4282 24.4282 0 0 0 18.0083 0 21.5966 21.5966 0 0 0 11.794-11.6431 21.3407 21.3407 0 0 0 1.69-8.4767zm-9.7132.121a13.8226 13.8226 0 0 1-.9349 5.0976 13.3524 13.3524 0 0 1-2.594 4.193 11.7241 11.7241 0 0 1-4.0121 2.8358 12.6973 12.6973 0 0 1-5.1279 1.0252 12.323 12.323 0 0 1-5.1576-1.0558 12.7278 12.7278 0 0 1-6.6966-7.0887 14.0619 14.0619 0 0 1-.9357-5.1281v-.12a13.8273 13.8273 0 0 1 .9357-5.0984 13.353 13.353 0 0 1 2.594-4.1922 11.7843 11.7843 0 0 1 3.9821-2.8357 12.6329 12.6329 0 0 1 5.1574-1.0253 12.3689 12.3689 0 0 1 5.1281 1.0556 12.6526 12.6526 0 0 1 6.7269 7.0881 14.0621 14.0621 0 0 1 .9349 5.1278v.121zm55.5143 20.9943L300.3256 154.17a14.5022 14.5022 0 0 0 6.5455-4.7359 13.2439 13.2439 0 0 0 2.5033-8.3557v-.12q0-6.5766-4.1922-10.2558-4.1937-3.6809-11.734-3.68h-19.3048v42.23h9.29v-13.5143h7.3l9.049 13.5133zm-10.6776-27.6911a5.5153 5.5153 0 0 1-1.84 4.3438 7.7185 7.7185 0 0 1-5.2793 1.6294h-9.4116v-12.1264h9.23a8.5237 8.5237 0 0 1 5.3688 1.5081 5.3867 5.3867 0 0 1 1.9315 4.5252v.12zm54.9706 9.2908v-23.8294h-9.2903v24.192q0 5.0674-2.4132 7.6011a8.8082 8.8082 0 0 1-6.6965 2.5338 8.6427 8.6427 0 0 1-6.6966-2.6243q-2.4135-2.6247-2.4132-7.8125v-23.89h-9.2908v24.131q0 9.3512 4.8873 14.0569t13.3925 4.7053a23.5581 23.5581 0 0 0 7.6618-1.1767 15.1937 15.1937 0 0 0 5.8524-3.5592 15.8168 15.8168 0 0 0 3.7094-5.9417 24.48 24.48 0 0 0 1.2974-8.3863zm52.7386 18.4v-42.23h-10.0147l-11.1 17.8571-11.1-17.8571h-10.0145v42.23h9.17v-27.3889L386.377 159.72h.2417l11.8846-18.0386v27.57z" data-name="fullLogo"/></g></svg>