<svg xmlns="http://www.w3.org/2000/svg" role="img" viewBox="20.69 -8.31 432.38 125.13"><title>JDF International logo</title><g><path d="M1565 1076c-66-29-105-106-90-178 17-75 72-118 152-118 65 0 109 28 135 86 58 132-69 266-197 210zm110-81c51-50 18-145-50-145-46 0-75 32-75 82 0 47 35 88 75 88 14 0 37-11 50-25zM290 984l0-95 33 3c32 3 32 4 35 61l3 57 294 0 295 0 0-295 0-295-327-2-328-3 0-30 0-30 363-3 362-2 0 365 0 365-365 0-365 0 0-96zM1350 971c0-126-9-143-63-123-26 10-34 9-49-5-25-22-23-30 12-48 47-24 116-20 145 10 24 23 25 30 25 150l0 125-35 0-35 0 0-109zM1830 932l0-148 35-2 35-3 0 151 0 150-35 0-35 0 0-148zM1960 930l0-151 35 3 35 2 0 83c0 46 3 83 8 83 4 0 33-38 64-83 50-74 60-83 87-83l31 0 0 148 0 148-35 0-34 0-3-82-3-83-58 83c-54 75-61 82-93 82l-34 0 0-150zM2260 1048c0-32 1-33 42-33l43 0 3-118 3-118 37 3 37 3 3 118 3 117 44 0c43 0 45 1 45 30l0 30-130 0-130 0 0-32zM2720 632c-52-26-80-74-80-137 0-63 28-111 80-137 105-53 220 19 220 137 0 88-65 155-150 155-19 0-51-8-70-18zm120-72c29-29 35-67 17-106-45-93-169-27-137 72 6 19 19 38 28 44 28 16 71 11 92-10zM1240 495l0-145 83 0c61 0 91 5 116 18 65 35 89 125 54 199-24 50-77 73-175 73l-78 0 0-145zm173 54c44-54 3-139-68-139l-35 0 0 78c0 43 3 82 8 86 13 14 77-3 95-25zM1560 495l0-145 110 0 110 0 0 30 0 30-75 0-75 0 0 30c0 30 1 30 55 30 54 0 55 0 55 30 0 30-1 30-55 30-52 0-55 1-55 25 0 24 2 25 70 25l70 0 0 30 0 30-105 0-105 0 0-145zM1831 558c17-46 41-110 53-143l21-60 43 0 44 0 49 133c27 74 49 138 49 144 0 5-17 8-37 6l-37-3-32-100c-18-60-34-94-38-85-3 8-19 53-34 100l-29 85-41 3-41 3 30-83zM2130 495l0-145 110 0 110 0 0 30 0 30-70 0-70 0 0 30c0 30 1 30 55 30 54 0 55 0 55 30 0 30-1 30-55 30-52 0-55 1-55 25 0 24 2 25 65 25l65 0 0 30 0 30-105 0-105 0 0-145zM2400 495l0-145 105 0 105 0 0 30 0 30-65 0-65 0 0 115 0 115-40 0-40 0 0-145zM2990 495l0-145 34 0c34 0 35 1 38 48l3 47 51 5c60 6 79 19 94 65 9 26 8 41-4 69-19 45-46 56-142 56l-74 0 0-145zm148 57c5-32-16-54-47-50-22 3-26 9-29 41l-3 38 38-3c31-2 39-7 41-26zM3257 543c-4-54-7-119-7-145l0-48 35 0 35 0 0 80c0 44 4 80 9 80 4 0 19-20 32-45 17-32 30-45 45-45 15 0 28 13 45 45 13 25 27 45 31 45 5 0 8-36 8-80l0-80 38 0 38 0-3 93c-2 50-6 116-9 145-5 51-6 52-39 52-31 0-37-5-67-60-18-33-36-60-40-60-4 0-22 27-40 60-31 56-35 60-69 60l-36 0-6-97zM3620 495l0-145 110 0 110 0 0 30 0 30-70 0-70 0 0 30c0 30 1 30 55 30 54 0 55 0 55 30 0 30-1 30-55 30-52 0-55 1-55 25 0 24 2 25 65 25l65 0 0 30 0 30-105 0-105 0 0-145zM3890 495l0-145 41 0 41 0-4 80c-2 44 0 80 3 80 3 0 30-36 60-80 49-72 57-80 87-80l32 0 0 145 0 145-35 0-34 0-3-82-3-83-55 82c-52 78-57 82-92 83l-38 0 0-145zM4190 610c0-29 2-30 45-30l45 0 0-115 0-115 40 0 40 0 0 115 0 115 45 0c43 0 45 1 45 30l0 30-130 0-130 0 0-30zM1481 186c-56-31-66-99-22-148 24-27 36-33 71-33 57 0 90 37 90 100 0 36-5 47-31 69-33 28-71 33-108 12zm79-46c22-22 25-42 10-71-12-22-59-26-78-7-17 17-15 58 5 80 21 23 38 23 63-2zM3131 174c-26-21-31-33-31-68 0-49 18-79 59-96 42-17 96 2 116 40 52 101-59 196-144 124zm91-31c20-18 24-63 6-81-19-19-66-15-78 7-15 29-12 49 10 71 24 24 38 25 62 3zM1230 100c0-82 2-90 19-90 15 0 21 8 23 33 3 28 7 32 36 35 19 2 32 9 32 17 0 8-13 15-32 17-25 2-33 8-33 23 0 16 8 21 43 23 28 2 42 8 42 18 0 11-15 14-65 14l-65 0 0-90zM1710 130c0-32 5-70 11-84 22-47 88-56 132-18 13 12 17 31 17 89 0 66-2 73-20 73-18 0-20-7-20-57 0-69-9-86-41-81-22 3-24 8-27 71-3 64-4 67-27 67-24 0-25-3-25-60zM1970 100c0-89 0-90 24-90 23 0 25 4 28 52l3 53 34-53c24-38 39-52 56-52 23 0 23 3 23 90 0 88 0 90-23 90-22 0-24-5-27-52l-3-53-34 53c-25 39-39 52-57 52-24 0-24-2-24-90zM2240 100l0-90 54 0c74 0 109 28 109 89 0 65-30 91-105 91l-58 0 0-90zm108 32c27-35 2-82-44-82-22 0-24 4-24 48 0 27 3 52 7 55 10 10 46-2 61-21zM2533 173c-3-10-19-51-34-90l-27-73 23 0c15 0 26 7 30 20 9 28 71 28 80 0 4-13 15-20 30-20l24 0-31 90c-28 86-31 90-59 90-19 0-32-6-36-17zm51-70c6-20 4-23-18-23-30 0-29-2-15 40 12 34 19 30 33-17zM2710 176c0-9 12-16 28-18 26-3 27-5 30-75 3-70 4-73 27-73 23 0 24 3 27 73 3 69 4 72 28 72 15 0 26 7 28 18 3 15-6 17-82 17-68 0-86-3-86-14zM2960 100c0-83 1-90 20-90 19 0 20 7 20 90 0 83-1 90-20 90-19 0-20-7-20-90zM3380 100c0-83 1-90 20-90 17 0 20 7 20 50 0 28 3 50 8 50 4 0 22-23 41-50 20-30 42-50 53-50 16 0 18 9 18 90 0 83-2 90-19 90-17 0-20-8-23-52l-3-53-34 53c-25 39-39 52-57 52-24 0-24-2-24-90z" transform="matrix(.1 0 0 -.1 0 109)"/></g></svg>