<svg xmlns="http://www.w3.org/2000/svg" role="img" viewBox="-16.86 -16.86 1032.72 282.72"><title>Joint Development Foundation logo</title><style>svg {enable-background:new 0 0 1000 250}</style><style>.st0{fill:#0076bc}</style><path d="M284.82 52.79c1.27 1.47 2.83 2.78 4.67 3.92 1.84 1.14 3.97 1.71 6.38 1.71 3.08 0 5.26-.82 6.53-2.46 1.27-1.64 1.91-3.9 1.91-6.78V5.28h17.78v45.9c0 3.61-.62 6.85-1.86 9.69-1.24 2.85-2.96 5.26-5.17 7.23-2.21 1.97-4.81 3.46-7.79 4.47-2.98 1-6.21 1.51-9.69 1.51-4.42 0-8.71-.85-12.86-2.56-4.16-1.71-7.63-4.3-10.45-7.79l10.55-10.94zm81.08 21.09c-5.02 0-9.66-.89-13.91-2.66s-7.94-4.22-11.05-7.33c-3.12-3.11-5.54-6.83-7.28-11.15-1.74-4.32-2.61-9.02-2.61-14.11s.87-9.79 2.61-14.11c1.74-4.32 4.17-8.04 7.28-11.15 3.11-3.11 6.8-5.54 11.05-7.28 4.25-1.74 8.89-2.61 13.91-2.61s9.67.87 13.96 2.61c4.28 1.74 7.97 4.17 11.05 7.28 3.08 3.12 5.49 6.83 7.23 11.15 1.74 4.32 2.61 9.02 2.61 14.11s-.87 9.79-2.61 14.11c-1.74 4.32-4.15 8.04-7.23 11.15-3.08 3.12-6.76 5.56-11.05 7.33-4.29 1.77-8.94 2.66-13.96 2.66m0-16.67c2.61 0 4.94-.49 6.98-1.46s3.76-2.29 5.17-3.97c1.41-1.67 2.48-3.65 3.22-5.92.73-2.28 1.1-4.69 1.1-7.23s-.37-4.95-1.1-7.23c-.74-2.27-1.81-4.25-3.22-5.92-1.41-1.68-3.13-3-5.17-3.97-2.04-.97-4.37-1.46-6.98-1.46-2.61 0-4.94.49-6.98 1.46s-3.76 2.29-5.17 3.97c-1.41 1.67-2.48 3.65-3.21 5.92-.73 2.28-1.1 4.69-1.1 7.23 0 2.55.37 4.96 1.1 7.23.74 2.28 1.81 4.25 3.21 5.92 1.41 1.68 3.13 3 5.17 3.97 2.04.97 4.37 1.46 6.98 1.46m44.26-51.93h17.78v66.99h-17.78zm30.36 0h16.17l25.71 37.36V5.28h17.58v66.99h-15.16L458.1 33.8v38.47h-17.58zm86.87 15.57H506.8V5.28h58.96v15.57h-20.39v51.42h-17.98zm-248.1 82.13H305c5.15 0 9.92.67 14.31 2.01 4.38 1.34 8.19 3.38 11.4 6.13 3.21 2.75 5.72 6.26 7.53 10.55 1.8 4.29 2.71 9.34 2.71 15.16 0 5.56-.92 10.4-2.76 14.52-1.84 4.12-4.37 7.57-7.59 10.34-3.21 2.78-7.03 4.85-11.45 6.22-4.42 1.37-9.17 2.06-14.26 2.06h-25.61v-66.99zm25.01 51.32c5.82 0 10.33-1.66 13.51-4.97 3.18-3.31 4.77-7.62 4.77-12.91 0-2.68-.37-5.11-1.1-7.28-.74-2.17-1.86-4.05-3.36-5.62-1.51-1.57-3.4-2.79-5.68-3.66-2.28-.87-4.99-1.31-8.13-1.31h-7.23v35.75h7.22zm46.07-51.32h48.21v15.37h-30.43v10.34h25.01v14.46h-25.01v11.45h32.54v15.37h-50.32zm54.21 0h19.38l15.07 46.6 14.06-46.6h18.98l-24.41 66.99h-18.78zm73.88 0h48.2v15.37h-30.43v10.34h25.01v14.46h-25.01v11.45h32.55v15.37h-50.32zm60.23 0h17.77v51.32h31.04v15.67h-48.81zm87.35 68.6c-5.02 0-9.66-.89-13.91-2.66s-7.94-4.22-11.05-7.33c-3.12-3.11-5.54-6.83-7.28-11.14-1.74-4.32-2.61-9.02-2.61-14.11s.87-9.79 2.61-14.11c1.74-4.32 4.17-8.04 7.28-11.15 3.11-3.11 6.8-5.54 11.05-7.28 4.25-1.74 8.89-2.61 13.91-2.61s9.67.87 13.96 2.61c4.28 1.74 7.97 4.17 11.05 7.28 3.08 3.11 5.49 6.83 7.23 11.15 1.74 4.32 2.61 9.02 2.61 14.11s-.87 9.79-2.61 14.11c-1.74 4.32-4.15 8.03-7.23 11.14-3.08 3.12-6.76 5.56-11.05 7.33-4.29 1.77-8.94 2.66-13.96 2.66m0-16.67c2.61 0 4.94-.48 6.98-1.46 2.04-.97 3.76-2.29 5.17-3.97 1.41-1.68 2.48-3.65 3.22-5.93.73-2.27 1.1-4.69 1.1-7.23s-.37-4.96-1.1-7.23c-.74-2.28-1.81-4.25-3.22-5.93-1.41-1.68-3.13-3-5.17-3.97-2.04-.97-4.37-1.46-6.98-1.46-2.61 0-4.94.49-6.98 1.46s-3.76 2.29-5.17 3.97c-1.41 1.67-2.48 3.65-3.21 5.93s-1.1 4.69-1.1 7.23.37 4.96 1.1 7.23c.74 2.28 1.81 4.25 3.21 5.93 1.41 1.67 3.13 3 5.17 3.97 2.04.97 4.37 1.46 6.98 1.46m44.36-51.93h27.32c3.61 0 6.88.49 9.79 1.46 2.92.97 5.41 2.38 7.48 4.22 2.07 1.84 3.68 4.16 4.82 6.93 1.14 2.78 1.71 5.98 1.71 9.59 0 3.41-.59 6.51-1.76 9.29-1.17 2.78-2.78 5.16-4.82 7.13-2.04 1.98-4.49 3.48-7.33 4.52-2.85 1.04-5.98 1.56-9.4 1.56h-10.44v22.3H670.4v-67zm25.81 30.73c2.41 0 4.32-.77 5.73-2.31 1.41-1.54 2.11-3.52 2.11-5.93 0-2.54-.67-4.58-2.01-6.13-1.34-1.54-3.31-2.31-5.92-2.31h-8.34v16.67h8.43zm34.11-30.73h16.97l16.27 29.23 15.97-29.23h17.07l3.12 66.99h-17.98l-1.61-39.27-11.75 22.9h-9.74l-13.06-22.9-1.3 39.27H727.2zm80.63 0h48.21v15.37h-30.43v10.34h25.01v14.46h-25.01v11.45h32.54v15.37h-50.32zm60.23 0h16.17l25.71 37.36v-37.36h17.57v66.99h-15.16l-26.72-38.47v38.47h-17.57zm86.87 15.57h-20.59v-15.57h58.95v15.57h-20.39v51.42h-17.97zm-726.48 50.37H71.86c-2.3 0-4.17-1.86-4.17-4.17v-8.06c0-2.3 1.87-4.17 4.17-4.17h143.32V21.43H84.08v23.26c0 2.3-1.86 4.17-4.17 4.17h-8.06c-2.3 0-4.17-1.87-4.17-4.17V5.04h163.88v163.88z" class="st0"/><path fill="#7cc24d" d="M115.83 57.9h-70.6c-2.3 0-4.17 1.87-4.17 4.17v8.06c0 2.3 1.87 4.17 4.17 4.17h89.38V60.75h31c2.3 0 4.17-1.87 4.17-4.17v-8.06c0-2.3-1.87-4.17-4.17-4.17h-49.74l18.74 13.54h-18.78m0 34.13H7.75c-2.3 0-4.16 1.87-4.16 4.17v8.06c0 2.3 1.86 4.17 4.16 4.17h126.86V94.87h60.15c2.3 0 4.17-1.87 4.17-4.17v-8.06c0-2.3-1.87-4.17-4.17-4.17h-78.89l18.74 13.54h-18.78m0 34.13H28.57c-2.3 0-4.17 1.87-4.17 4.17v8.06c0 2.3 1.87 4.17 4.17 4.17h106.04V129h60.15c2.3 0 4.17-1.87 4.17-4.17v-8.06c0-2.3-1.87-4.17-4.17-4.17h-78.89l18.74 13.54h-18.78"/><path d="M277.11 202.77h29.74v9.92h-18.42v8.25h14.27v9.34h-14.27v15.16h-11.32zm67.34 43.69c-3.2 0-6.15-.57-8.86-1.7-2.71-1.13-5.05-2.69-7.04-4.67-1.98-1.98-3.53-4.35-4.64-7.1-1.11-2.75-1.66-5.75-1.66-8.99s.55-6.24 1.66-8.99c1.11-2.75 2.66-5.12 4.64-7.1 1.99-1.98 4.33-3.53 7.04-4.64 2.71-1.11 5.66-1.66 8.86-1.66 3.2 0 6.16.55 8.89 1.66 2.73 1.11 5.07 2.66 7.03 4.64 1.96 1.98 3.5 4.35 4.61 7.1 1.11 2.75 1.66 5.75 1.66 8.99s-.55 6.24-1.66 8.99c-1.11 2.75-2.65 5.12-4.61 7.1-1.96 1.98-4.31 3.54-7.03 4.67-2.73 1.13-5.69 1.7-8.89 1.7m0-10.62c1.66 0 3.14-.31 4.44-.92 1.3-.62 2.4-1.46 3.29-2.53.9-1.07 1.58-2.33 2.05-3.77.47-1.45.71-2.98.71-4.6 0-1.62-.23-3.16-.71-4.61-.47-1.45-1.15-2.71-2.05-3.77-.89-1.07-1.99-1.91-3.29-2.53-1.3-.62-2.78-.93-4.44-.93-1.67 0-3.15.31-4.45.93-1.3.62-2.4 1.46-3.29 2.53-.9 1.07-1.58 2.33-2.05 3.77-.47 1.45-.71 2.98-.71 4.61 0 1.62.23 3.15.71 4.6.47 1.45 1.15 2.71 2.05 3.77.89 1.07 1.99 1.91 3.29 2.53 1.3.61 2.78.92 4.45.92m40.68-33.07h11.32v25.01c0 2.34.54 4.26 1.63 5.76 1.09 1.49 2.89 2.24 5.41 2.24 2.51 0 4.3-.75 5.37-2.27 1.07-1.51 1.6-3.42 1.6-5.72v-25.01h11.45v26.03c0 2.73-.45 5.19-1.34 7.39-.9 2.2-2.16 4.06-3.8 5.6-1.64 1.53-3.58 2.71-5.82 3.52s-4.7 1.22-7.39 1.22-5.16-.41-7.42-1.22-4.21-1.97-5.85-3.49c-1.64-1.52-2.91-3.37-3.8-5.57-.9-2.2-1.34-4.68-1.34-7.45v-26.04zm57.51 0h10.3l16.37 23.8v-23.8h11.2v42.67h-9.66l-17.02-24.5v24.5h-11.19zm58.84 0h16.38c3.28 0 6.32.43 9.11 1.28 2.79.85 5.21 2.15 7.26 3.9s3.65 3.99 4.8 6.72c1.15 2.73 1.73 5.95 1.73 9.66 0 3.54-.59 6.62-1.76 9.25-1.17 2.62-2.78 4.82-4.83 6.59-2.05 1.77-4.48 3.09-7.29 3.97-2.81.87-5.84 1.31-9.08 1.31h-16.31v-42.68zm15.93 32.69c3.71 0 6.58-1.05 8.6-3.16 2.02-2.11 3.04-4.85 3.04-8.22 0-1.7-.24-3.25-.71-4.64-.47-1.38-1.18-2.58-2.14-3.58-.96-1-2.17-1.78-3.62-2.33-1.45-.55-3.18-.83-5.18-.83h-4.61v22.77h4.62zm52.45-32.69h12.98l15.1 42.67h-12.22l-2.75-8.83h-14.26l-2.81 8.83h-11.7l15.66-42.67zm10.81 25.59l-4.73-15.67-4.93 15.67h9.66zm40.46-15.67h-13.12v-9.92h37.55v9.92h-12.98v32.75h-11.45zm41.82-9.92h11.32v42.67h-11.32zm52.63 43.69c-3.2 0-6.15-.57-8.86-1.7-2.71-1.13-5.05-2.69-7.04-4.67-1.98-1.98-3.53-4.35-4.64-7.1-1.11-2.75-1.66-5.75-1.66-8.99s.55-6.24 1.66-8.99c1.11-2.75 2.66-5.12 4.64-7.1 1.99-1.98 4.33-3.53 7.04-4.64 2.71-1.11 5.66-1.66 8.86-1.66 3.2 0 6.16.55 8.89 1.66 2.73 1.11 5.07 2.66 7.03 4.64 1.96 1.98 3.5 4.35 4.61 7.1 1.11 2.75 1.66 5.75 1.66 8.99s-.55 6.24-1.66 8.99c-1.11 2.75-2.65 5.12-4.61 7.1-1.96 1.98-4.31 3.54-7.03 4.67-2.73 1.13-5.69 1.7-8.89 1.7m0-10.62c1.66 0 3.14-.31 4.44-.92 1.3-.62 2.4-1.46 3.29-2.53.9-1.07 1.58-2.33 2.05-3.77.47-1.45.71-2.98.71-4.6 0-1.62-.23-3.16-.71-4.61-.47-1.45-1.15-2.71-2.05-3.77-.89-1.07-1.99-1.91-3.29-2.53-1.3-.62-2.78-.93-4.44-.93-1.67 0-3.15.31-4.45.93-1.3.62-2.4 1.46-3.29 2.53-.9 1.07-1.58 2.33-2.05 3.77-.47 1.45-.71 2.98-.71 4.61 0 1.62.23 3.15.71 4.6.47 1.45 1.15 2.71 2.05 3.77.89 1.07 1.99 1.91 3.29 2.53 1.3.61 2.78.92 4.45.92m41.21-33.07h10.3l16.37 23.8v-23.8h11.2v42.67H785l-17.02-24.5v24.5h-11.19z" class="st0"/></svg>