<svg xmlns="http://www.w3.org/2000/svg" role="img" viewBox="2.78 0.66 64.44 69.81"><title>JSON Schema logo</title><g fill="#000" stroke-width=".353" transform="translate(-104.228 -45.508)"><path d="M122.99401 114.18985c-4.32897-.9404-7.58044-3.47848-8.71251-6.80095-.78921-2.31618-.67682-6.07238.33363-11.1506.48507-2.43783.88169-5.34784.88139-6.46669-.00098-3.7181-1.71106-5.73541-5.1001-6.01646l-1.9549-.16211v-4.78532l1.85208-.25085c2.70243-.36603 3.74441-1.02838 4.57629-2.90899.61121-1.38172.68884-2.06864.50552-4.47286-.11913-1.56225-.53527-4.34857-.92477-6.19184-.98954-4.68286-.94822-8.48547.11707-10.77316 1.56862-3.36859 5.43705-5.85455 9.93248-6.3829l1.93299-.22719v5.03603h-1.29973c-1.77186 0-4.2497 1.26242-4.8835 2.48806-.60797 1.17567-.65405 2.86414-.15834 5.80222.78343 4.6435 1.04707 9.09834.67592 11.42164-.42464 2.65814-1.97477 5.79632-3.6791 7.44823l-1.18012 1.14381 1.61497 1.98276c1.99051 2.4438 2.76458 4.14874 3.24284 7.14256.37835 2.36834.0844 7.28267-.67072 11.21398-1.05359 5.48514.1623 7.65141 4.66209 8.30613l1.67569.24382v2.44782c0 2.79211.17086 2.69708-3.43917 1.91286z"/><path d="M152.2304 112.24932v-2.42987l2.04969-.42336c2.26276-.46736 4.054-1.8634 4.45842-3.47475.1274-.50758-.11267-3.16398-.53347-5.90311-1.37183-8.92955-.6114-13.53704 2.85482-17.29745l1.48237-1.60818-1.1108-1.26512c-3.97855-4.53132-4.66885-8.55221-3.15364-18.36955.76342-4.9463.76409-4.99432.087-6.17361-.79713-1.38828-3.28385-2.77603-4.97438-2.77603h-1.15997v-2.46945c0-2.81105-.0583-2.77384 3.24583-2.07279 3.9645.84118 6.80448 2.85328 8.27787 5.86478.84544 1.72802.97275 2.40013.94911 5.01089-.015 1.65835-.35758 4.68205-.76125 6.71934-1.49867 7.5636-1.3651 9.5762.7654 11.53282.98915.90842 1.64012 1.17274 3.37032 1.36849l2.14439.2426v4.84776l-1.6757.0007c-2.1517.0007-3.9323.90925-4.83869 2.4689-.95194 1.63803-.89239 5.20675.17364 10.40695.90648 4.4219 1.05253 8.45845.3882 10.72875-.70059 2.39406-3.81995 5.29609-6.74745 6.27718-1.26118.42266-2.96775.87096-3.79236.99623l-1.49931.22775z"/><path d="M131.74239 108.26592c-1.02163-1.2988-.87294-3.53652.38087-5.73185.92776-1.62446 4.80862-6.94855 7.61066-10.44095l1.13094-1.40958-1.80213-5.22523c-2.02147-5.86123-2.0098-5.97467.65581-6.37225l1.46834-.219 1.64076 3.3506c.90242 1.84283 1.76982 3.35061 1.92755 3.35061.15774 0 1.77489-1.75542 3.59368-3.90092 3.15918-3.72667 3.35688-3.89165 4.42591-3.69334.64552.11974 1.21858.0465 1.35432-.17316.31818-.5148 1.23083.24704 1.23083 1.02746 0 .3201-.45438 1.1341-1.00972 1.80888-2.26771 2.7555-7.10417 9.27155-7.10417 9.5713 0 .17685.97502 2.45302 2.16671 5.05816l2.1667 4.73661-.65823.98459c-.36203.54152-.66236 1.12603-.6674 1.29891-.005.17288-.27769.48371-.60588.69073-.83174.52464-1.44656-.11541-3.9894-4.15312-1.16417-1.84856-2.23163-3.3649-2.37215-3.36967-.31309-.0106-3.7911 5.13197-6.47955 9.58064-2.37093 3.92324-1.93885 3.4204-3.26614 3.80106-.95533.27398-1.19348.19843-1.79831-.57048z"/><path d="M131.98567 83.6771c-2.15148-3.8472-6.0183-9.4283-7.57842-10.93816-.79252-.76698-1.44094-1.57494-1.44094-1.79546 0-.6016 1.61695-1.21975 3.19058-1.21975 1.69822 0 3.49597 1.47777 5.0997 4.19203.58208.98515 1.15641 1.79434 1.27629 1.7982.11988.004.80873-1.65117 1.53078-3.6778 1.5464-4.34039 5.62351-12.778 7.22453-14.95123 1.3726-1.86316 3.42936-2.86516 5.90274-2.87567 3.23375-.01374 3.24268.13006.20474 3.29666-4.63599 4.83233-6.76321 8.80963-11.25155 21.03725-1.24637 3.3955-2.39032 6.47895-2.54212 6.85214-.23022.56597-.49833.28096-1.61633-1.71822z"/></g></svg>