<svg xmlns="http://www.w3.org/2000/svg" role="img" viewBox="27.12 12.37 266.76 175.76"><title>KINX logo</title><defs><clipPath id="a" clipPathUnits="userSpaceOnUse"><path d="M0 151.534h232.515V0H0z"/></clipPath></defs><g transform="matrix(1.33333 0 0 -1.33333 0 202.045)"><path fill="#009154" fill-opacity="1" fill-rule="nonzero" stroke="none" d="M24.988 99.463h11.448V86.749l12 12.714h15.195L50.176 86.801l14.045-20.983h-14.08L42.357 79.63l-5.921-5.614v-8.198H24.988z"/><path fill="#009154" fill-opacity="1" fill-rule="nonzero" stroke="none" d="M68.477 99.463h11.448V65.818H68.477z"/><path fill="#009154" fill-opacity="1" fill-rule="nonzero" stroke="none" d="M88.217 99.463H98.89l13.888-18.583v18.583h10.802V65.818h-10.802L98.965 84.3V65.818H88.217z"/><path fill="#009154" fill-opacity="1" fill-rule="nonzero" stroke="none" d="M128.696 99.463h12.576l6.542-10.35 6.357 10.35h12.468l-11.506-16.294 12.583-17.351H154.87l-7.282 10.81-7.283-10.81h-12.791l12.77 17.534z"/><path fill="#373535" fill-opacity="1" fill-rule="nonzero" stroke="none" d="M24.215 60.636h3.67l1.59-4.78 2.021 4.78h3.394l2.088-4.771 1.598 4.771h3.643l-3.641-7.604h-3.371l-2.004 4.575-1.933-4.575h-3.389z"/><path fill="#373535" fill-opacity="1" fill-rule="nonzero" stroke="none" d="M42.234 60.636h3.671l1.589-4.78 2.022 4.78h3.393l2.088-4.771 1.599 4.771h3.643l-3.643-7.604h-3.371l-2.002 4.575-1.935-4.575H45.9z"/><path fill="#373535" fill-opacity="1" fill-rule="nonzero" stroke="none" d="M60.252 60.636h3.67l1.589-4.78 2.022 4.78h3.394l2.087-4.771 1.599 4.771h3.644l-3.642-7.604h-3.372l-2.002 4.575-1.935-4.575h-3.388z"/><path fill="#373535" fill-opacity="1" fill-rule="nonzero" stroke="none" d="M77.778 55.96h4.058v-2.929h-4.058z"/><path fill="#373535" fill-opacity="1" fill-rule="nonzero" stroke="none" d="M84.135 63.537h3.869v-5.396l2.829 2.495h4.669l-3.545-2.662 3.76-4.943h-4.279l-2.011 3.043-1.423-1.066v-1.977h-3.869z"/><path fill="#373535" fill-opacity="1" fill-rule="nonzero" stroke="none" d="M97.002 60.636h3.789v-7.604h-3.789zm0 2.901h3.789v-1.988h-3.789z"/><g clip-path="url(#a)"><path fill="#373535" fill-opacity="1" fill-rule="nonzero" stroke="none" d="M103.225 60.636h3.529v-1.245c.528.504 1.061.864 1.6 1.081.541.217 1.197.325 1.974.325 1.048 0 1.87-.24 2.461-.719.594-.478.889-1.219.889-2.22v-4.826h-3.815v4.172c0 .478-.115.814-.343 1.011-.23.199-.551.298-.966.298-.456 0-.828-.134-1.113-.399-.284-.268-.427-.747-.427-1.438v-3.644h-3.789z"/><path fill="#373535" fill-opacity="1" fill-rule="nonzero" stroke="none" d="M115.098 60.636h4.488l1.573-2.12 1.813 2.12h4.192l-3.371-3.624 3.614-3.98h-4.435l-1.813 2.448-2.137-2.448h-4.112l3.59 3.98z"/><path fill="#373535" fill-opacity="1" fill-rule="nonzero" stroke="none" d="M128.692 55.96h4.058v-2.929h-4.058z"/><path fill="#373535" fill-opacity="1" fill-rule="nonzero" stroke="none" d="M135.05 60.636h3.528v-1.245c.528.504 1.061.864 1.601 1.081.539.217 1.197.325 1.973.325 1.048 0 1.87-.24 2.462-.719.592-.478.889-1.219.889-2.22v-4.826h-3.816v4.172c0 .478-.115.814-.344 1.011-.229.199-.55.298-.965.298-.457 0-.828-.134-1.113-.399-.285-.268-.426-.747-.426-1.438v-3.644h-3.789z"/><path fill="#373535" fill-opacity="1" fill-rule="nonzero" stroke="none" d="M154.903 57.519c-.074.558-.271.956-.59 1.197-.319.241-.738.362-1.259.362-.6 0-1.081-.182-1.44-.546-.229-.227-.375-.565-.437-1.013zm3.87-1.397h-7.604c.067-.465.232-.813.494-1.04.366-.329.844-.492 1.435-.492.373 0 .727.073 1.063.216.205.091.426.252.662.483l3.735-.269c-.572-.768-1.262-1.316-2.071-1.65-.809-.334-1.969-.5-3.479-.5-1.312 0-2.345.142-3.097.425-.752.283-1.376.733-1.871 1.35-.494.615-.741 1.34-.741 2.174 0 1.185.496 2.145 1.488 2.879.991.732 2.362 1.099 4.109 1.099 1.418 0 2.537-.164 3.359-.492.82-.328 1.446-.803 1.875-1.426.429-.621.643-1.432.643-2.43z"/><path fill="#373535" fill-opacity="1" fill-rule="nonzero" stroke="none" d="M165.057 63.537v-2.901h2.096v-2.123h-2.096v-2.689c0-.324.04-.539.121-.642.125-.163.342-.244.654-.244.28 0 .672.063 1.175.186l.28-2.018c-.936-.158-1.811-.237-2.624-.237-.942 0-1.637.094-2.084.279-.446.186-.776.469-.991.848-.214.378-.32.993-.32 1.841v2.676h-1.398v2.123h1.398v1.4z"/><path fill="#009154" fill-opacity="1" fill-rule="nonzero" stroke="none" d="M155.144 109.782h-.001v-3.007h.001c16.943 0 30.679-13.735 30.679-30.679s-13.736-30.678-30.679-30.678h-.001v-3.007h.001c18.604 0 33.688 15.081 33.688 33.685 0 18.605-15.084 33.686-33.688 33.686"/><path fill="#009154" fill-opacity="1" fill-rule="nonzero" stroke="none" d="M155.165 14.188l3.594 16.344-3.563 7.537-3.691-7.471z"/><path fill="#009154" fill-opacity="1" fill-rule="nonzero" stroke="none" d="M216.765 76.053l-16.345 3.594-7.537-3.561 7.473-3.693z"/><path fill="#009154" fill-opacity="1" fill-rule="nonzero" stroke="none" d="M155.202 138.302l-3.595-16.345 3.563-7.536 3.692 7.471z"/></g></g></svg>