<svg xmlns="http://www.w3.org/2000/svg" role="img" viewBox="-18.37 -17.87 929.24 237.24"><title>Kiwimoore (member) logo</title><defs><linearGradient id="_未命名的渐变_11" x1="193.44" x2="193.44" y1="10.26" y2="201.26" data-name="未命名的渐变 11" gradientUnits="userSpaceOnUse"><stop offset="0" stop-color="#4d91ce"/><stop offset="1" stop-color="#3056a5"/></linearGradient><style>.cls-1{fill:#132d41}</style></defs><path d="M408.83 51.69h119.3v6.89h-13.78v38.98c0 9.51-3.8 16.16-11.41 19.96-3.8 1.9-7.6 2.85-11.41 2.85l-2.38-4.52c4.59-3.09 6.89-9.19 6.89-18.3V58.58h-87.22v-6.89zm2.5-41.23h42.78c1.98-2.93 3.76-5.98 5.35-9.15h18.3c-.95 3.17-2.14 6.22-3.56 9.15h51.81v6.89h-43.49l43.37 29.83H500.7l-34.46-23.77c-12.36 15.61-29.91 24.28-52.64 26.02l-2.26-4.63c15.69-6.97 28.24-16.12 37.67-27.45h-37.67v-6.89zm4.63 96.25V67.73h68.68v38.98h-68.68zm50.38-6.89V74.63h-32.08v25.19h32.08zm64.41-20.68h16.04V63.1h18.3v16.04h50.38V63.1h18.3v16.04h16.04v6.89h-16.04v34.34h-18.3V86.03h-50.38c0 12.44-4.6 21.9-13.78 28.4-4.6 3.25-9.15 5.23-13.67 5.94l-2.38-4.52c7.68-7.68 11.53-17.62 11.53-29.83h-16.04v-6.89zm6.89-34.34c0 2.3.55 4.6 1.66 6.89 2.3 4.6 6.3 6.89 12 6.89h98.51v-6.89h-89.36c-3.01 0-4.52-1.5-4.52-4.52V37.9h86.98V5.94H537.63V44.8zm18.3-32.08h68.68v18.41h-68.68V12.71zm151.39-2.26V1.31h18.3v9.15h45.87v6.89h-93.87v48.13c0 20.99-3.84 36.44-11.53 46.34-3.8 4.99-7.6 7.84-11.41 8.55l-2.02-4.52c4.44-9.19 6.65-25.98 6.65-50.38V10.46h48.01zm7.13 52.64l-3.45-29.71h-1.78V63.1h-13.78V33.39h-1.78c0 10.46-2.02 18.58-6.06 24.36-1.98 2.85-3.96 4.63-5.94 5.35l-1.78-2.26c2.3-6.1 3.45-15.25 3.45-27.45h-3.45V26.5h15.57v-6.89h13.78v6.89h15.57v6.89h-3.45l3.45 29.71h-10.34zm20.44 11.53v6.89h31.96v6.77H734.9v6.89h36.6v6.89h-36.96c-1.19 7.61-5.31 12.95-12.36 16.04-3.56 1.5-6.97 2.26-10.22 2.26l-2.26-4.52c3.48-2.38 5.66-6.97 6.54-13.78h-36.36v-6.89h36.6v-6.89h-31.96v-6.77h31.96v-6.89h-34.34v-6.89h64.17c10.69 0 18.34-1.54 22.93-4.63V70c-3.09 3.09-10.74 4.63-22.93 4.63H734.9zm22.82-41.23c0 10.46 2.02 18.58 6.06 24.36 1.98 2.85 3.96 4.63 5.94 5.35l1.78-2.26c-2.3-6.1-3.45-15.25-3.45-27.45h3.45v-6.89h-15.57v-6.89h-13.78v6.89h-15.57v6.89h3.45c0 12.2-1.15 21.35-3.45 27.45l1.66 2.26c2.06-.71 4.08-2.5 6.06-5.35 4.04-5.78 6.06-13.9 6.06-24.36h1.78v29.71h13.78V33.4h1.78zm130.83-16.05l-6.77 29.83h-18.42l6.89-29.83h-63.22c-3.88 10.85-10.14 19.84-18.77 26.97-4.36 3.56-8.32 6.02-11.88 7.37l-2.26-4.52c9.11-13.78 15.21-29.07 18.3-45.87h18.3c-.4 3.17-.95 6.22-1.66 9.15h79.5v6.89zM787.78 56.33c-1.51 24.4-6.06 44.25-13.67 59.53l2.26 4.52c4.59-1.51 9.27-5.31 14.02-11.41 9.58-12.2 14.85-29.75 15.8-52.64h-18.42zM842.8 33.4h-18.3v64.16c0 9.11-2.3 15.21-6.89 18.3l2.26 4.52c3.8 0 7.64-.95 11.53-2.85 7.6-3.8 11.41-10.46 11.41-19.96V33.39zm36.6 22.93l13.78 61.79h-18.3L861.1 56.33h18.3z" class="cls-1"/><path fill="url(#_未命名的渐变_11)" d="M270.13 6.43l-43.84 44c-2.23 2.23-2.23 5.85 0 8.08l12.53 12.53c2.23 2.23 5.85 2.23 8.08 0l29.27-29.42c5.25-5.25 13.75-5.25 18.99 0l50.54 50.54c4.05 4.05 4.05 10.6 0 14.65l-53.38 51.69c-5.51 5.51-14.46 5.49-19.95-.04L156.54 41.59c-18.35-17.75-42.87-27.05-68.55-25.87C39.08 17.96.09 58.83 0 107.79c-.09 50.99 41.37 92.5 92.34 92.5 24.03 0 46.79-9.18 64.09-25.86l.19-.18 18.41-18.69c2.23-2.23 2.23-5.85 0-8.08l-12.53-12.53c-2.23-2.23-5.85-2.23-8.08 0l-18.31 18.59c-12.78 12.28-29.9 18.59-47.76 17.49-32.51-2-58.44-29.03-59.19-61.59C28.34 73.92 57 44.75 92.34 44.75c16.44 0 32 6.28 43.84 17.67l132.56 133.76c7.44 7.5 19.56 7.53 27.03.06l85.92-84.22c6.93-6.93 6.93-18.16 0-25.09l-80.5-80.5c-8.58-8.58-22.48-8.58-31.06 0z"/><path d="M425.26 184.24v16.19h-14.48v-73.44h14.48v44.56l22.45-24.28h17.42l-24.76 24.68 25.08 28.48h-18.26l-17.31-20.98-4.62 4.8zm53.93-56.75c2.38 0 4.3.68 5.77 2.05 1.47 1.36 2.2 3.12 2.2 5.25s-.74 3.96-2.2 5.3c-1.47 1.33-3.39 2-5.77 2s-4.3-.66-5.77-2c-1.47-1.33-2.2-3.1-2.2-5.3s.74-3.88 2.2-5.25c1.47-1.36 3.39-2.05 5.77-2.05zm-7.24 72.94v-53.16h14.48v53.16h-14.48zm90.87 0h-16.37l-9.44-40.47-9.55 40.47h-16.47l-17.73-53.16h16.16l9.86 41.66 9.13-41.47h17.42l9.44 41.37 9.76-41.57h15.53l-17.73 53.16zm31.48-72.94c2.38 0 4.3.68 5.77 2.05 1.47 1.36 2.2 3.12 2.2 5.25s-.74 3.96-2.2 5.3-3.39 2-5.77 2-4.3-.66-5.77-2c-1.47-1.33-2.2-3.1-2.2-5.3s.74-3.88 2.2-5.25c1.47-1.36 3.39-2.05 5.77-2.05zm-7.24 72.94v-53.16h14.48v53.16h-14.48zm99.89-38.67c.14 1.33.24 2.58.31 3.75s.1 2.81.1 4.94v29.98h-3.99v-28.28c0-2-.04-3.68-.11-5.04s-.17-2.71-.31-4.05c-.49-4.13-1.82-7.41-3.99-9.84-2.17-2.43-5.35-3.65-9.55-3.65-2.17 0-4.21.42-6.14 1.25-1.92.83-3.58 2.12-4.98 3.85-1.4 1.73-2.52 3.98-3.36 6.74-.84 2.77-1.26 6.05-1.26 9.84v29.18h-3.99v-28.28c0-2-.04-3.68-.1-5.04-.07-1.36-.18-2.71-.31-4.05-.56-4.13-1.93-7.41-4.09-9.84-2.17-2.43-5.35-3.65-9.55-3.65-2.17 0-4.2.42-6.09 1.25-1.89.83-3.55 2.12-4.98 3.85-1.43 1.73-2.57 3.98-3.41 6.74-.84 2.77-1.26 6.05-1.26 9.84v29.18h-3.99v-52.66h3.99v10.29l2.73-5.8c1.82-2 3.9-3.48 6.24-4.45 2.34-.96 4.91-1.45 7.71-1.45 4.47 0 8.04 1.12 10.7 3.35s4.47 5.35 5.46 9.34l3.67-6.79c3.5-3.93 8.11-5.9 13.85-5.9 5.04 0 8.94 1.37 11.7 4.1 2.76 2.73 4.42 6.49 4.98 11.29zm37.09-15.38c4.14 0 7.83.68 11.09 2.05 3.26 1.37 6.01 3.28 8.25 5.74 2.24 2.47 3.98 5.4 5.2 8.79s1.84 7.13 1.84 11.19-.61 7.78-1.84 11.14c-1.23 3.36-2.96 6.28-5.2 8.74-2.24 2.47-4.99 4.38-8.25 5.75-3.26 1.36-6.96 2.05-11.09 2.05s-7.74-.68-11.04-2.05c-3.29-1.36-6.06-3.28-8.31-5.75-2.24-2.46-3.98-5.38-5.2-8.74-1.23-3.36-1.84-7.08-1.84-11.14s.61-7.79 1.84-11.19c1.23-3.4 2.96-6.33 5.2-8.79 2.24-2.46 5.01-4.38 8.31-5.74 3.29-1.36 6.97-2.05 11.04-2.05zm-.05 52.26c2.94 0 5.73-.52 8.39-1.55s5-2.56 7.03-4.59c2.03-2.03 3.64-4.58 4.83-7.64 1.19-3.06 1.78-6.63 1.78-10.69s-.59-7.73-1.78-10.79c-1.19-3.06-2.8-5.61-4.83-7.64-2.03-2.03-4.37-3.56-7.03-4.6-2.66-1.03-5.45-1.55-8.39-1.55s-5.74.52-8.4 1.55-4.98 2.57-6.98 4.6c-1.99 2.03-3.58 4.58-4.78 7.64-1.19 3.06-1.78 6.66-1.78 10.79s.59 7.63 1.78 10.69c1.19 3.06 2.78 5.61 4.78 7.64 1.99 2.03 4.32 3.56 6.98 4.59 2.66 1.03 5.46 1.55 8.4 1.55zM783 146.38c4.14 0 7.83.68 11.09 2.05 3.26 1.37 6.01 3.28 8.25 5.74 2.24 2.47 3.98 5.4 5.2 8.79 1.23 3.4 1.84 7.13 1.84 11.19s-.61 7.78-1.84 11.14c-1.23 3.36-2.96 6.28-5.2 8.74-2.24 2.47-4.99 4.38-8.25 5.75-3.26 1.36-6.96 2.05-11.09 2.05s-7.74-.68-11.04-2.05c-3.29-1.36-6.06-3.28-8.31-5.75-2.24-2.46-3.98-5.38-5.2-8.74-1.23-3.36-1.84-7.08-1.84-11.14s.61-7.79 1.84-11.19c1.23-3.4 2.96-6.33 5.2-8.79 2.24-2.46 5.01-4.38 8.31-5.74 3.29-1.36 6.97-2.05 11.04-2.05zm-.05 52.26c2.94 0 5.73-.52 8.39-1.55s5-2.56 7.03-4.59 3.64-4.58 4.83-7.64c1.19-3.06 1.78-6.63 1.78-10.69s-.59-7.73-1.78-10.79c-1.19-3.06-2.8-5.61-4.83-7.64-2.03-2.03-4.37-3.56-7.03-4.6-2.66-1.03-5.45-1.55-8.39-1.55s-5.74.52-8.4 1.55-4.98 2.57-6.98 4.6c-1.99 2.03-3.58 4.58-4.78 7.64-1.19 3.06-1.78 6.66-1.78 10.79s.59 7.63 1.78 10.69c1.19 3.06 2.78 5.61 4.78 7.64s4.32 3.56 6.98 4.59c2.66 1.03 5.46 1.55 8.4 1.55zm55.2-52.26c1.05 0 1.99.1 2.83.3v3.2c-2.52-.2-4.81.07-6.87.8-2.06.73-3.85 1.96-5.35 3.69-1.51 1.73-2.68 3.99-3.51 6.78-.84 2.79-1.26 6.18-1.26 10.17v29.12H820v-52.66h3.99v10.69l2.94-6.4c1.4-1.8 3.06-3.2 4.98-4.2 1.92-1 4-1.5 6.24-1.5zm54.04 26.28v.95c0 .37-.04.88-.11 1.55h-43.96c.14 4.26.82 7.89 2.05 10.89 1.22 3 2.78 5.43 4.67 7.29 1.89 1.86 4 3.21 6.35 4.05 2.34.83 4.7 1.25 7.08 1.25 2.1 0 4.15-.3 6.14-.9 1.99-.6 3.83-1.5 5.51-2.7 1.68-1.2 3.16-2.71 4.46-4.55 1.29-1.83 2.29-3.98 2.99-6.44h3.99c-.77 3-1.92 5.6-3.45 7.79-1.54 2.2-3.33 4.05-5.39 5.55-2.06 1.5-4.33 2.62-6.81 3.35-2.48.73-5.04 1.1-7.7 1.1-3.28 0-6.38-.59-9.32-1.75-2.93-1.16-5.5-2.91-7.7-5.25-2.2-2.33-3.93-5.25-5.18-8.74-1.26-3.5-1.88-7.54-1.88-12.14 0-4.2.65-7.99 1.94-11.39 1.29-3.4 3.07-6.3 5.34-8.69 2.27-2.4 4.92-4.25 7.96-5.55 3.04-1.3 6.3-1.95 9.79-1.95 3.91 0 7.31.74 10.21 2.2 2.9 1.47 5.32 3.42 7.28 5.85 1.95 2.43 3.4 5.23 4.34 8.39s1.41 6.44 1.41 9.84zm-23.4-23.08c-2.38 0-4.77.45-7.19 1.35-2.42.9-4.58 2.29-6.51 4.17-1.92 1.87-3.53 4.2-4.83 6.98-1.29 2.78-2.01 6.07-2.15 9.89h40.08c-.14-4.08-.8-7.54-1.99-10.39-1.19-2.84-2.68-5.15-4.46-6.92-1.78-1.77-3.81-3.06-6.09-3.86-2.27-.8-4.56-1.2-6.87-1.2z" class="cls-1"/></svg>