<svg xmlns="http://www.w3.org/2000/svg" role="img" viewBox="-33.86 -33.86 1760.72 354.72"><title>Komodor Inc. logo</title><path fill="#1347FF" d="M620.41 89.2617l-21.829 22.2443-21.48-22.2443h-78.04l-26.013 27.1803V89.2617H432.18V288.005h43.378v-139.1l23.084-23.426h49.935l11.995 11.957v150.569h43.379V141.12l15.622-15.641h57.396l11.996 11.957v150.569h43.309v-163.36l-34.662-35.3833H620.41zm-433.017-.0046h-57.396L43.3089 174.413V0H0v288h43.3089v-67.499l34.3124-30.865L146.107 288h53.281l-90.802-126.726 78.807-72.0169zm53.842.0046l-34.661 35.3833v127.977l34.661 35.383h118.49l34.661-35.383V124.645l-34.661-35.3833h-118.49zM350.658 239.831l-11.577 11.956h-77.202l-11.508-11.956V137.436l11.577-11.957h77.203l11.577 11.957v102.395h-.07zM1383.29 89.2617l-34.66 35.3833v127.977l34.66 35.383h118.49l34.66-35.383V124.645l-34.66-35.3833h-118.49zm109.43 150.5693l-11.58 11.956h-77.2l-11.58-11.956V137.436l11.58-11.957h77.2l11.58 11.957v102.395zm151.27-150.5693l-28.87 29.6133V89.2617h-40.87V288.005h43.38V153.493l23.09-23.078H1694V89.2617h-50.01zm-842.036 0l-34.661 35.3833v127.977l34.661 35.383h256.086l34.66-35.383V124.645l-34.66-35.3833H801.954zM1048.91 239.831l-11.58 11.956H822.528l-11.577-11.956V137.436l11.577-11.957h214.802l11.58 11.957v102.395zm218.21-125.896l-23.93-24.6779h-82.57l-34.66 35.3829v127.977L1160.62 288h82.57l23.93-24.261V288h43.3V0h-43.3v113.935zm0 114.838l-23.09 23.01h-62.76l-12-11.957V137.431l12-11.957h62.76l23.09 23.427v79.872z"/></svg>