<svg xmlns="http://www.w3.org/2000/svg" role="img" viewBox="-6.44 74.06 412.62 96.62"><title>KompiTech logo</title><style>svg {enable-background:new 0 0 400 245}</style><style>.st1{fill:#10121f}</style><g id="Vrstva_2"><g id="Vrstva_1-2"><g id="kompitech_platform_color"><path fill="#6146ff" d="M75.5 82.1H32c-16.7 0-30.3 13.6-30.3 30.3v43.5c0 3.9 3.2 7 7 7h43.5c16.7 0 30.3-13.6 30.3-30.3V89.1c0-3.9-3.1-7-7-7zM67.7 114H50.6v17h17.1c0 9.4-7.6 17.1-17.1 17.1V131h-17v17.1H21.5c-2.8 0-5-2.2-5-5V114c0-9.4 7.6-17.1 17-17.1V114h17.1V96.9h12.2c2.7 0 4.8 2.2 4.9 4.8V114z" id="Logo"/><path d="M116.5 105.1l-4.8-6.4h-1.8v6.4h-2.5V90.5h2.5v6h1.8l4.4-6h3.1l-5.2 7.1 5.7 7.6h-3.2z" class="st1"/><path d="M128.4 104.6c-2 1-4.4 1-6.5 0-.9-.5-1.7-1.2-2.3-2.1-1.1-1.9-1.1-4.2 0-6.1.5-.9 1.3-1.6 2.3-2.1 2-1 4.4-1 6.5 0 2.9 1.5 3.9 5.1 2.4 7.9 0 .1-.1.2-.1.2-.6 1-1.4 1.7-2.3 2.2zm-6-2.5c1.6 1.4 4 1.4 5.6 0 .7-.7 1.1-1.7 1.1-2.7 0-1-.4-2-1.1-2.7-1.6-1.4-4-1.4-5.6 0-.7.7-1.1 1.7-1.1 2.7 0 1.1.4 2 1.1 2.7zm24.3-8.6c1.1 0 2.2.4 3 1.2.8.9 1.2 2 1.2 3.1v7.2h-2.4v-6.6c0-.7-.2-1.5-.6-2.1-.4-.5-1.1-.8-1.7-.7-.8 0-1.5.3-2 1-.5.6-.8 1.5-.8 2.3v6.2H141v-6.6c0-.7-.2-1.5-.6-2.1-.4-.5-1.1-.8-1.7-.7-.8 0-1.5.3-2 1-.6.7-.8 1.5-.8 2.4v6.2h-2.4V93.8h1.7l.4 1.5c.9-1.1 2.3-1.7 3.7-1.7.7 0 1.5.2 2.1.5.6.3 1.1.8 1.4 1.5.9-1.3 2.4-2.1 3.9-2.1zm13.3 0c1.1 0 2.2.2 3.2.8.9.5 1.7 1.2 2.2 2.1.5.9.8 2 .8 3 0 1.6-.6 3.1-1.7 4.2-2.3 2.1-5.9 2.3-8.3.3v5.1h-2.4V93.8h1.6l.5 1.4c.5-.5 1.2-1 1.9-1.2.6-.3 1.4-.5 2.2-.5zm-3 8.6c.8.7 1.8 1.1 2.8 1.1 1 0 2-.3 2.8-1.1.7-.7 1.1-1.7 1.1-2.7 0-1-.4-2-1.1-2.7-1.6-1.4-4-1.4-5.6 0-1.5 1.5-1.5 3.9 0 5.4-.1 0 0 0 0 0zm11-10v-2.4h2.5v2.4H168zm.1 13V93.8h2.4v11.3h-2.4zm15.3-14.6v2.2h-4.5v12.4h-2.5V92.7h-4.5v-2.2h11.5zm11.2 9c0 .3 0 .5-.1.8h-9.7c.1.8.5 1.6 1.2 2.2.7.5 1.6.8 2.4.8.7 0 1.3-.1 1.9-.4.5-.3 1-.7 1.3-1.2h2.6c-.4 1.1-1.2 2.1-2.3 2.8-1 .7-2.3 1-3.5 1-1.6 0-3.2-.6-4.4-1.7-1.2-1.1-1.8-2.6-1.8-4.2 0-1.1.3-2.1.8-3 .5-.9 1.3-1.6 2.2-2.1 1-.5 2-.8 3.1-.8s2.2.3 3.2.8c.9.5 1.6 1.3 2.1 2.2.8.7 1 1.7 1 2.8zm-6.1-3.9c-.8 0-1.7.2-2.3.7-.6.5-1.1 1.2-1.3 2h7.2c-.2-.8-.6-1.5-1.3-2-.6-.4-1.4-.7-2.3-.7zm13.4 9.8c-1.1 0-2.2-.3-3.2-.8-2.9-1.6-3.9-5.2-2.3-8.1 0 0 0-.1.1-.1.5-.9 1.3-1.6 2.2-2.1 1-.5 2.1-.8 3.2-.8 1.4 0 2.7.4 3.8 1.2 1 .8 1.8 1.9 2.1 3.1h-2.4c-.3-.6-.8-1.2-1.4-1.5-.6-.4-1.4-.6-2.1-.6-1 0-2 .4-2.7 1.1-1.4 1.5-1.4 3.8 0 5.3.7.7 1.7 1.1 2.7 1.1.7 0 1.5-.2 2.1-.6.6-.4 1.1-.9 1.4-1.6h2.5c-.3 1.3-1.1 2.4-2.1 3.2-1.2.8-2.6 1.2-3.9 1.2zm13.9-11.9c1.2-.1 2.4.4 3.3 1.3.8 1 1.3 2.2 1.2 3.5v6.8h-2.4v-6.3c.1-.8-.2-1.7-.7-2.3-.5-.6-1.3-.9-2-.8-.9 0-1.7.3-2.3 1-.6.7-.9 1.6-.9 2.5v6h-2.4V89.8h2.4v5.3c.5-.5 1.1-.9 1.7-1.1.7-.3 1.4-.5 2.1-.5zm-84.7 42.9c1.7.8 3.1 2.1 4.1 3.6 1 1.6 1.5 3.5 1.4 5.3 0 3-1.2 5.6-3.7 7.7-2.5 2.1-5.6 3.3-8.8 3.2h-16.8v-37.7h16.4c3.4 0 6.3.9 8.5 2.8 2.2 1.6 3.4 4.2 3.4 6.9 0 1.6-.4 3.2-1.2 4.6-.8 1.5-1.9 2.7-3.3 3.6zm-5.1-4c.8-.8 1.2-1.8 1.2-2.9 0-1.1-.4-2.2-1.2-2.9-.9-.8-2-1.2-3.2-1.1h-7.2v8h7.2c1.2.1 2.3-.3 3.2-1.1zm-2.7 16.4c1.2.1 2.5-.4 3.4-1.2 1.7-1.6 1.7-4.3.1-6l-.1-.1c-.9-.8-2.2-1.2-3.4-1.2h-7.6v8.4h7.6zm17.4 7.5v-39.6h8.3v39.6h-8.3zm28.5.8c-2.9 0-5.9-.7-8.5-2-2.4-1.3-4.5-3.2-5.9-5.5-4.3-7.1-2.1-16.3 4.9-20.6.3-.2.7-.4 1-.6 5.3-2.6 11.6-2.6 16.9 0 2.4 1.3 4.5 3.2 5.9 5.5 2.9 4.8 2.9 10.9 0 15.7-1.4 2.3-3.5 4.2-5.9 5.5-2.6 1.3-5.5 2-8.4 2zm-5.9-9.6c3.4 3 8.4 3 11.7 0 3.1-3.2 3.1-8.3 0-11.5-3.4-3-8.4-3-11.7 0-3 3.2-3 8.3 0 11.5zm40.3 9.6c-2.2 0-4.4-.4-6.4-1.2-1.9-.7-3.7-1.8-5.2-3.2-1.5-1.4-2.6-3.1-3.4-4.9-.8-1.9-1.3-4-1.2-6.1 0-2.1.4-4.1 1.2-6 .8-1.8 1.9-3.5 3.4-4.9 1.5-1.4 3.3-2.5 5.2-3.2 2.1-.8 4.3-1.2 6.5-1.2 3.9 0 7.3 1.1 10.2 3.3 2.8 2.1 4.7 5.2 5.4 8.7H211c-.6-1.4-1.7-2.6-3-3.3-1.3-.8-2.9-1.2-4.4-1.2-2.1-.1-4.1.8-5.6 2.3-1.5 1.5-2.3 3.5-2.3 5.6 0 2.1.8 4.2 2.3 5.7 1.5 1.5 3.5 2.4 5.6 2.3 1.6 0 3.1-.4 4.4-1.3 1.3-.9 2.3-2.1 3-3.6h8.3c-.6 3.5-2.6 6.7-5.4 8.9-2.9 2.2-6.6 3.4-10.3 3.3zm47.8-.8h-10l-9.8-13.9v13.9h-8.3v-39.6h8.3v23.4l9.2-12.9h9.5L239.9 141l11.5 15.3z" class="st1"/><path d="M265.8 157.1c-2.2 0-4.4-.4-6.4-1.2-1.9-.7-3.7-1.8-5.2-3.2-4.6-4.4-5.9-11.2-3.4-17 .8-1.8 1.9-3.5 3.4-4.9 1.5-1.4 3.3-2.5 5.2-3.2 2.1-.8 4.3-1.2 6.5-1.2 3.9 0 7.3 1.1 10.2 3.3 2.8 2.1 4.7 5.2 5.4 8.7h-8.2c-.6-1.4-1.7-2.6-3-3.3-1.3-.8-2.9-1.2-4.4-1.2-2.1-.1-4.1.8-5.6 2.3-1.5 1.5-2.3 3.5-2.3 5.6 0 2.1.8 4.2 2.3 5.7 1.5 1.5 3.5 2.4 5.6 2.3 1.6 0 3.1-.4 4.4-1.3 1.3-.9 2.3-2.1 3-3.6h8.3c-.6 3.5-2.6 6.7-5.4 8.9-3 2.2-6.7 3.4-10.4 3.3zm36.4-30.6c3.5 0 6.2 1.1 8.2 3.3 2 2.2 3 5.1 3 8.8v17.7h-8.3v-16.4c0-2.2-.4-3.8-1.3-4.9-.9-1.1-2.2-1.6-4.1-1.6-1.9-.1-3.7.7-5 2-1.2 1.4-1.9 3.2-1.9 5.6v15.3h-8.3v-39.6h8.3v13.2c2.7-2.3 5.8-3.4 9.4-3.4zm41.5.6h6.2v29.1h-6.5l-.7-2.6c-2.8 2.3-6.3 3.5-9.9 3.5-2.9 0-5.7-.7-8.2-2-2.4-1.3-4.4-3.2-5.8-5.5-1.4-2.4-2.1-5.1-2.1-7.9 0-2.7.7-5.5 2.1-7.8 1.4-2.3 3.4-4.2 5.8-5.5 2.5-1.3 5.4-2 8.2-2 3.7-.1 7.2 1.2 10 3.5l.9-2.8zm-16.2 20.3c3.4 3 8.5 3 11.9 0 3.1-3.2 3.1-8.2 0-11.4-3.4-3-8.5-3-11.9 0-3.1 3.1-3.2 8.2 0 11.4zm28.1-24.1V116h8.2v7.3h-8.2zm0 33v-29.1h8.3v29.1h-8.3zm31.4-29.8c3.5 0 6.2 1.1 8.3 3.3 2.1 2.2 3.1 5.2 3.1 8.8v17.6H390v-16.4c0-4.4-1.8-6.5-5.3-6.5-2.1 0-3.8.7-5 2-1.2 1.4-1.8 3.2-1.8 5.6v15.3h-8.3v-29.1h5.7l1.6 3.6c1.2-1.4 2.7-2.4 4.4-3.1 1.7-.7 3.7-1.1 5.7-1.1z" class="st1"/></g></g></g></svg>