<svg xmlns="http://www.w3.org/2000/svg" role="img" viewBox="6.41 5.41 290.94 122.94"><title>Konsulko Group logo</title><path fill="#757577" d="M97 68h1v1h-1z"/><path fill="#373436" d="M58 69h1v1h-1z"/><path fill="#1b5f85" d="M83 59h1v1h-1z"/><path d="M70 61h1v1h-1zm4 0h1v1h-1z" fill="#236387"/><path fill="#206286" d="M73 61h1v1h-1z"/><path fill="#6c8a9c" d="M78 61h1v1h-1z"/><path fill="#262224" d="M59 67h1v1h-1z"/><path fill="#a3a5a8" d="M97 67h1v1h-1z"/><path fill="#135b83" d="M78 60h1v1h-1z"/><path fill="#7e94a1" d="M81 60h1v1h-1z"/><path fill="#4b7992" d="M77 61h1v1h-1z"/><path fill="#99a2a8" d="M68 62h1v1h-1z"/><path fill="#87888a" d="M57 70h1v1h-1z"/><g fill="#0e5881"><path d="M202 11h1v1h-1zm1 0h1v1h-1zm1 0h7v1h-7zm7 0h1v1h-1zm1 0h1v1h-1zm1 0h1v1h-1zm8 0h1v1h-1zm1 0h1v1h-1zm1 0h7v1h-7zm7 0h1v1h-1zm1 0h1v1h-1zm1 0h1v1h-1zM13 12h1v1h-1zm1 0h9v1h-9zm9 0h1v1h-1zm1 0h1v1h-1zm19 0h1v1h-1zm1 0h1v1h-1zm1 0h8v1h-8zm8 0h1v1h-1zm1 0h1v1h-1zm1 0h1v1h-1zm147 0h1v1h-1zm1 0h1v1h-1zm1 0h7v1h-7zm7 0h1v1h-1zm1 0h1v1h-1zm1 0h1v1h-1zm8 0h1v1h-1zm1 0h1v1h-1zm1 0h7v1h-7zm7 0h1v1h-1zm1 0h1v1h-1zm1 0h1v1h-1zM12 13h1v1h-1zm1 0h1v1h-1zm1 0h8v1h-8zm8 0h1v1h-1zm1 0h1v1h-1zm1 0h1v1h-1zm17 0h1v1h-1zm1 0h1v1h-1zm1 0h1v1h-1zm1 0h1v1h-1zm1 0h1v1h-1zm1 0h7v1h-7zm7 0h1v1h-1zm1 0h1v1h-1zm1 0h1v1h-1zm147 0h1v47h-1zm1 0h1v47h-1zm1 0h7v47h-7zm7 0h1v47h-1zm1 0h1v47h-1zm1 0h1v47h-1zm8 0h1v47h-1zm1 0h1v47h-1zm1 0h7v47h-7zm7 0h1v47h-1zm1 0h1v25h-1zm1 0h1v25h-1zM12 14h1v46h-1zm1 0h1v46h-1zm1 0h8v46h-8zm8 0h1v46h-1zm1 0h1v18h-1zm1 0h1v17h-1zm16 0h1v1h-1zm1 0h1v1h-1zm1 0h1v1h-1zm1 0h1v1h-1zm1 0h8v2h-8zm8 0h1v1h-1zm1 0h1v1h-1zm1 0h1v1h-1zm1 0h1v1h-1zm-16 1h1v1h-1zm1 0h1v1h-1zm1 0h1v1h-1z"/><path d="M42 15h9v2h-9zm10 0h1v1h-1zm1 0h1v1h-1zm1 0h1v1h-1zm-15 1h1v1h-1zm1 0h1v1h-1z"/><path d="M41 16h10v1H41zm10 0h1v1h-1zm1 0h1v1h-1zm1 0h1v1h-1zm-15 1h1v1h-1zm1 0h1v1h-1zm1 0h1v1h-1zm1 0h9v1h-9zm9 0h1v1h-1zm1 0h1v1h-1zm1 0h1v1h-1zm1 0h1v1h-1zm-16 1h1v1h-1zm1 0h1v1h-1zm1 0h1v1h-1zm1 0h9v2h-9zm9 0h1v1h-1zm1 0h1v1h-1zm1 0h1v1h-1zm1 0h1v1h-1zm-15 1h1v1h-1zm1 0h1v1h-1z"/><path d="M39 19h9v2h-9zm10 0h1v1h-1zm1 0h1v1h-1zm1 0h1v1h-1zm-15 1h1v1h-1zm1 0h1v1h-1zm1 0h1v1h-1zm10 0h1v1h-1zm1 0h1v1h-1zm1 0h1v1h-1zm-15 1h1v1h-1zm1 0h1v1h-1zm1 0h1v1h-1zm1 0h9v1h-9zm9 0h1v1h-1zm1 0h1v1h-1zm1 0h1v1h-1zm1 0h1v1h-1zm-16 1h1v1h-1zm1 0h1v1h-1zm1 0h1v1h-1zm1 0h9v2h-9zm9 0h1v1h-1zm1 0h1v1h-1zm1 0h1v1h-1zm1 0h1v1h-1zm-15 1h1v1h-1zm1 0h1v1h-1zm1 0h1v1h-1zm10 0h1v1h-1zm1 0h1v1h-1zm1 0h1v1h-1zm-15 1h1v1h-1zm1 0h1v1h-1zm1 0h1v1h-1zm1 0h9v1h-9zm9 0h1v1h-1zm1 0h1v1h-1zm1 0h1v1h-1zm-15 1h1v1h-1zm1 0h1v1h-1zm1 0h1v1h-1zm1 0h9v1h-9zm9 0h1v1h-1zm1 0h1v1h-1zm1 0h1v1h-1zm1 0h1v1h-1zm-15 1h1v1h-1zm1 0h1v1h-1zm1 0h1v1h-1zm1 0h8v2h-8zm8 0h1v1h-1zm1 0h1v1h-1zm1 0h1v1h-1zm1 0h1v1h-1zm20 0h1v1h-1zm1 0h1v1h-1zm1 0h1v1h-1zm1 0h1v1h-1zm1 0h1v1h-1zm1 0h1v1h-1zm1 0h1v1h-1zm1 0h1v1h-1zm1 0h1v1h-1zm1 0h1v1h-1zm1 0h1v1h-1zm1 0h1v1h-1zm1 0h1v1h-1zm16 0h1v1h-1zm1 0h1v1h-1zm1 0h4v1h-4zm4 0h1v1h-1zm1 0h1v1h-1zm1 0h1v1h-1zm7 0h1v1h-1zm1 0h1v1h-1zm1 0h1v1h-1zm1 0h1v1h-1zm1 0h2v1h-2zm2 0h1v1h-1zm1 0h1v1h-1zm1 0h1v1h-1zm1 0h1v1h-1zm1 0h1v1h-1zm20 0h1v1h-1zm1 0h1v1h-1zm1 0h1v1h-1zm1 0h1v1h-1zm1 0h1v1h-1zm1 0h1v1h-1zm1 0h1v1h-1zm1 0h1v1h-1zm1 0h1v1h-1zm1 0h1v1h-1zm1 0h1v1h-1zm1 0h1v1h-1zm1 0h1v1h-1zm11 0h1v1h-1zm1 0h1v1h-1zm1 0h8v1h-8zm8 0h1v1h-1zm1 0h1v1h-1zm10 0h1v1h-1zm1 0h9v1h-9zm9 0h1v1h-1zm1 0h1v1h-1zm50 0h1v1h-1zm1 0h1v1h-1zm1 0h8v1h-8zm8 0h1v1h-1zm1 0h1v1h-1zm12 0h1v1h-1zm1 0h1v1h-1zm1 0h1v1h-1zm1 0h1v1h-1zm1 0h1v1h-1zm1 0h1v1h-1zm1 0h1v1h-1zm1 0h1v1h-1zm1 0h1v1h-1zm1 0h1v1h-1zm1 0h1v1h-1zm1 0h1v1h-1zm1 0h1v1h-1zM31 27h1v1h-1zm1 0h1v1h-1zm1 0h1v1h-1z"/><path d="M34 27h8v2h-8zm9 0h1v1h-1zm1 0h1v1h-1zm1 0h1v1h-1zm18 0h1v1h-1zm1 0h1v1h-1zm1 0h1v1h-1zm1 0h1v1h-1zm1 0h1v1h-1zm1 0h1v1h-1zm1 0h1v1h-1zm1 0h1v1h-1zm1 0h2v1h-2zm2 0h1v1h-1zm1 0h1v1h-1zm1 0h1v1h-1zm1 0h1v1h-1zm1 0h1v1h-1zm1 0h1v1h-1zm1 0h1v1h-1zm1 0h1v1h-1zm1 0h1v1h-1zm13 0h1v1h-1zm1 0h1v1h-1zm1 0h4v1h-4zm4 0h1v1h-1zm1 0h1v1h-1zm1 0h1v1h-1zm1 0h1v1h-1zm1 0h1v1h-1zm3 0h1v1h-1zm1 0h1v1h-1zm1 0h1v1h-1zm1 0h1v1h-1zm1 0h1v1h-1zm1 0h1v1h-1zm1 0h2v1h-2zm2 0h1v1h-1zm1 0h1v1h-1zm1 0h1v1h-1zm1 0h1v1h-1zm1 0h1v1h-1zm1 0h1v1h-1zm1 0h1v1h-1zm15 0h1v1h-1zm1 0h1v1h-1zm1 0h1v1h-1zm1 0h1v1h-1zm1 0h1v1h-1zm1 0h1v1h-1zm1 0h1v1h-1zm1 0h1v1h-1zm1 0h2v1h-2zm2 0h1v1h-1zm1 0h1v1h-1zm1 0h1v1h-1zm1 0h1v1h-1zm1 0h1v1h-1zm1 0h1v1h-1zm1 0h1v1h-1zm1 0h1v1h-1zm9 0h1v1h-1zm1 0h1v1h-1zm1 0h7v1h-7zm7 0h1v1h-1zm1 0h1v1h-1zm1 0h1v1h-1zm10 0h1v1h-1zm1 0h1v1h-1zm1 0h7v1h-7zm7 0h1v1h-1zm1 0h1v1h-1zm1 0h1v1h-1zm48 0h1v1h-1zm1 0h1v1h-1zm1 0h1v1h-1zm1 0h1v1h-1zm1 0h7v1h-7zm7 0h1v1h-1zm1 0h1v1h-1zm1 0h1v1h-1zm9 0h1v1h-1zm1 0h1v1h-1zm1 0h1v1h-1zm1 0h1v1h-1zm1 0h1v1h-1zm1 0h1v1h-1zm1 0h1v1h-1zm1 0h1v1h-1zm1 0h1v1h-1zm1 0h1v1h-1zm1 0h1v1h-1zm1 0h1v1h-1zm1 0h1v1h-1zm1 0h1v1h-1zm1 0h1v1h-1zm1 0h1v1h-1zm1 0h1v1h-1zm1 0h1v1h-1zm1 0h1v1h-1zM30 28h1v1h-1zm1 0h1v1h-1zm1 0h1v1h-1z"/><path d="M33 28h9v1h-9zm9 0h1v1h-1zm1 0h1v1h-1zm1 0h1v1h-1zm1 0h1v1h-1zm17 0h1v1h-1zm1 0h1v1h-1zm1 0h1v1h-1zm1 0h1v1h-1zm1 0h12v4H66zm12 0h1v6h-1zm1 0h1v1h-1zm1 0h1v1h-1zm1 0h1v1h-1zm1 0h1v1h-1zm1 0h1v1h-1zm11 0h1v32h-1zm1 0h1v32h-1zm1 0h5v32h-5zm5 0h1v32h-1zm1 0h1v1h-1zm1 0h1v1h-1zm1 0h1v1h-1zm2 0h1v1h-1zm1 0h1v1h-1zm1 0h1v1h-1zm1 0h1v1h-1zm1 0h8v5h-8zm8 0h1v32h-1zm1 0h1v1h-1zm1 0h1v1h-1zm1 0h1v1h-1zm1 0h1v1h-1zm13 0h1v1h-1zm1 0h1v1h-1zm1 0h1v1h-1zm1 0h1v1h-1zm1 0h11v4h-11zm11 0h1v5h-1zm1 0h1v1h-1zm1 0h1v1h-1zm1 0h1v1h-1zm1 0h1v1h-1zm1 0h1v1h-1zm7 0h1v20h-1zm1 0h1v20h-1zm1 0h7v25h-7zm7 0h1v32h-1zm1 0h1v20h-1zm1 0h1v20h-1zm10 0h1v22h-1zm1 0h1v22h-1zm1 0h7v29h-7zm7 0h1v32h-1zm1 0h1v32h-1zm1 0h1v32h-1zm48 0h1v1h-1zm1 0h1v1h-1zm1 0h8v2h-8zm8 0h1v1h-1zm1 0h1v1h-1zm1 0h1v1h-1zm1 0h1v1h-1zm7 0h1v1h-1zm1 0h1v1h-1zm1 0h1v1h-1zm1 0h1v1h-1zm1 0h1v1h-1zm1 0h11v4h-11zm11 0h1v6h-1zm1 0h1v1h-1zm1 0h1v1h-1zm1 0h1v1h-1zm1 0h1v1h-1zm1 0h1v1h-1zM30 29h1v1h-1zm1 0h1v1h-1zm1 0h9v2h-9zm9 0h1v1h-1zm1 0h1v1h-1zm1 0h1v1h-1zm1 0h1v1h-1zm16 0h1v1h-1zm1 0h1v1h-1zm1 0h1v1h-1zm1 0h1v1h-1z"/><path d="M64 29h16v3H64zm16 0h1v13h-1zm1 0h1v1h-1zm1 0h1v1h-1zm1 0h1v1h-1zm1 0h1v1h-1zm18 0h1v31h-1zm1 0h1v1h-1zm1 0h1v1h-1zm1 0h1v1h-1zm1 0h1v1h-1zm1 0h1v1h-1zm1 0h12v4h-12zm12 0h1v31h-1zm1 0h1v1h-1zm1 0h1v1h-1zm1 0h1v1h-1zm11 0h1v1h-1zm1 0h1v1h-1zm1 0h1v1h-1zm1 0h1v1h-1zm1 0h14v3h-14zm14 0h1v5h-1zm1 0h1v1h-1zm1 0h1v1h-1zm1 0h1v1h-1zm1 0h1v1h-1zm85 0h1v1h-1zm1 0h1v1h-1zm1 0h1v1h-1zm9 0h1v1h-1zm1 0h1v1h-1zm1 0h1v1h-1zm7 0h1v1h-1zm1 0h1v1h-1zm1 0h1v1h-1zm1 0h1v1h-1zm1 0h15v3h-15zm15 0h1v9h-1zm1 0h1v1h-1zm1 0h1v1h-1zm1 0h1v1h-1zm1 0h1v1h-1zM29 30h1v1h-1zm1 0h1v1h-1zm1 0h1v1h-1zm10 0h1v1h-1zm1 0h1v1h-1zm1 0h1v1h-1zm16 0h1v1h-1zm1 0h1v1h-1zm1 0h1v1h-1zm1 0h1v1h-1z"/><path d="M63 30h18v2H63zm18 0h1v28h-1zm1 0h1v1h-1zm1 0h1v1h-1zm1 0h1v1h-1zm1 0h1v1h-1zm18 0h1v1h-1zm1 0h1v1h-1zm1 0h1v1h-1zm1 0h1v1h-1zm1 0h14v3h-14zm14 0h1v30h-1zm1 0h1v1h-1zm1 0h1v1h-1zm1 0h1v1h-1zm9 0h1v1h-1zm1 0h1v1h-1zm1 0h1v1h-1zm1 0h18v2h-18zm18 0h1v3h-1zm1 0h1v1h-1zm1 0h1v1h-1zm1 0h1v1h-1zm83 0h1v1h-1zm1 0h1v1h-1zm1 0h1v1h-1zm1 0h8v1h-8zm8 0h1v1h-1zm1 0h1v1h-1zm1 0h1v1h-1zm7 0h1v1h-1zm1 0h1v1h-1zm1 0h1v1h-1zm1 0h19v2h-19zm19 0h1v28h-1zm1 0h1v1h-1zm1 0h1v1h-1zm1 0h1v1h-1zm1 0h1v1h-1zM24 31h1v1h-1zm4 0h1v1h-1zm1 0h1v1h-1zm1 0h1v1h-1zm1 0h9v1h-9zm9 0h1v1h-1zm1 0h1v1h-1zm1 0h1v1h-1zm16 0h1v1h-1zm1 0h1v1h-1zm1 0h1v1h-1z"/><path d="M61 31h22v1H61zm22 0h1v25h-1zm1 0h1v1h-1zm1 0h1v1h-1zm1 0h1v1h-1zm17 0h19v2h-19zm19 0h1v29h-1zm1 0h1v1h-1zm1 0h1v1h-1zm8 0h1v1h-1zm1 0h1v1h-1zm1 0h1v1h-1zm1 0h20v1h-20zm20 0h1v1h-1zm1 0h1v1h-1zm1 0h1v1h-1zm82 0h1v1h-1zm1 0h1v1h-1zm1 0h1v1h-1zm1 0h8v2h-8zm8 0h1v1h-1zm1 0h1v1h-1zm1 0h1v1h-1zm1 0h1v1h-1zm6 0h1v1h-1zm1 0h1v1h-1zm1 0h1v1h-1zm1 0h21v1h-21zm21 0h1v26h-1zm1 0h1v1h-1zm1 0h1v1h-1zm1 0h1v1h-1zm1 0h1v1h-1zM23 32h1v1h-1zm1 0h1v1h-1zm1 0h1v1h-1zm1 0h1v1h-1zm1 0h1v1h-1zm1 0h1v1h-1zm1 0h1v1h-1zm1 0h9v1h-9zm9 0h1v1h-1zm1 0h1v1h-1zm1 0h1v1h-1zm1 0h1v1h-1zm15 0h1v1h-1zm1 0h1v1h-1zm1 0h1v1h-1zm1 0h1v1h-1z"/><path d="M61 32h23v1H61zm23 0h1v24h-1zm1 0h1v1h-1zm1 0h1v1h-1zm1 0h1v1h-1zm36 0h1v1h-1zm1 0h1v1h-1zm1 0h1v1h-1zm7 0h1v1h-1zm1 0h1v1h-1zm1 0h20v1h-20zm21 0h1v1h-1zm1 0h1v1h-1zm1 0h1v1h-1zm82 0h1v1h-1zm1 0h1v1h-1zm1 0h8v2h-8zm9 0h1v1h-1zm1 0h1v1h-1zm1 0h1v1h-1zm6 0h1v1h-1zm1 0h1v1h-1zm1 0h1v1h-1zm1 0h23v1h-23zm23 0h1v24h-1zm1 0h1v1h-1zm1 0h1v1h-1zm1 0h1v1h-1zM23 33h1v6h-1zm1 0h1v1h-1zm1 0h1v1h-1zm1 0h1v1h-1zm1 0h1v1h-1zm1 0h1v1h-1zm1 0h9v1h-9zm9 0h1v1h-1zm1 0h1v1h-1zm1 0h1v1h-1zm1 0h1v1h-1zm16 0h1v1h-1zm1 0h1v1h-1zm1 0h1v1h-1zm1 0h11v1H60zm11 0h1v1h-1zm1 0h1v1h-1zm1 0h1v1h-1z"/><path d="M74 33h11v1H74zm11 0h1v22h-1zm1 0h1v1h-1zm1 0h1v1h-1zm1 0h1v1h-1zm15 0h20v1h-20zm20 0h1v27h-1zm1 0h1v1h-1zm1 0h1v1h-1zm6 0h1v1h-1zm1 0h1v1h-1zm1 0h1v1h-1zm1 0h8v1h-8zm8 0h1v1h-1zm1 0h1v1h-1zm1 0h1v1h-1zm1 0h1v1h-1zm1 0h1v1h-1zm1 0h1v1h-1zm1 0h1v1h-1zm1 0h5v1h-5zm5 0h1v1h-1zm1 0h1v1h-1zm1 0h1v1h-1zm82 0h1v1h-1zm1 0h1v1h-1zm1 0h1v1h-1zm9 0h1v1h-1zm1 0h1v1h-1zm1 0h1v1h-1zm6 0h1v1h-1zm1 0h1v1h-1zm1 0h1v1h-1zm1 0h11v1h-11zm11 0h1v1h-1zm1 0h1v1h-1zm1 0h1v1h-1zm1 0h11v1h-11zm11 0h1v22h-1zm1 0h1v1h-1zm1 0h1v1h-1zm1 0h1v1h-1zM24 34h13v5H24zm13 0h1v1h-1zm1 0h1v1h-1zm1 0h1v1h-1zm1 0h1v1h-1zm16 0h1v1h-1zm1 0h1v1h-1zm1 0h1v1h-1zm1 0h8v1h-8zm8 0h1v1h-1zm1 0h1v1h-1zm1 0h1v1h-1zm1 0h1v1h-1zm1 0h1v1h-1zm1 0h1v1h-1zm1 0h1v1h-1zm1 0h1v1h-1zm1 0h1v1h-1zm1 0h1v1h-1zm1 0h8v1h-8zm9 0h1v1h-1zm1 0h1v1h-1zm1 0h1v1h-1zm15 0h3v1h-3zm3 0h1v1h-1zm1 0h1v1h-1zm1 0h1v1h-1zm1 0h1v1h-1zm1 0h1v1h-1zm1 0h1v1h-1zm1 0h1v1h-1zm1 0h1v1h-1zm1 0h1v1h-1zm1 0h8v1h-8zm9 0h1v1h-1zm1 0h1v1h-1zm1 0h1v1h-1zm5 0h1v1h-1zm1 0h1v1h-1zm1 0h7v6h-7zm7 0h1v12h-1zm1 0h1v1h-1zm1 0h1v1h-1zm1 0h1v1h-1zm1 0h1v1h-1zm1 0h1v1h-1zm1 0h1v1h-1zm1 0h1v1h-1zm1 0h1v1h-1zm1 0h1v1h-1zm1 0h1v1h-1zm1 0h1v1h-1zm1 0h1v1h-1zm1 0h1v1h-1zm1 0h1v1h-1zm1 0h1v1h-1zm82 0h1v1h-1zm1 0h1v1h-1zm1 0h1v1h-1zm1 0h8v1h-8zm8 0h1v1h-1zm1 0h1v1h-1zm1 0h1v1h-1zm7 0h1v1h-1zm1 0h1v1h-1zm1 0h8v2h-8zm8 0h1v1h-1zm1 0h1v1h-1zm1 0h1v1h-1zm1 0h1v1h-1zm1 0h1v1h-1zm1 0h1v1h-1zm1 0h1v1h-1zm1 0h1v1h-1zm1 0h1v1h-1zm1 0h1v1h-1zm1 0h1v1h-1z"/><path d="M278 34h8v1h-8zm8 0h1v20h-1zm1 0h1v1h-1zm1 0h1v1h-1zm1 0h1v1h-1zM37 35h1v1h-1zm1 0h1v1h-1zm1 0h1v1h-1zm17 0h1v1h-1zm1 0h1v1h-1zm1 0h8v2h-8zm8 0h1v1h-1zm1 0h1v1h-1zm1 0h1v1h-1zm1 0h1v1h-1zm1 0h1v1h-1zm5 0h1v1h-1zm1 0h1v1h-1zm1 0h1v1h-1zm1 0h1v1h-1zm1 0h7v1h-7zm7 0h1v18h-1zm1 0h1v1h-1zm1 0h1v1h-1zm1 0h1v1h-1zm14 0h1v25h-1zm1 0h1v1h-1zm1 0h1v1h-1zm1 0h1v1h-1zm1 0h1v1h-1zm1 0h1v1h-1zm1 0h1v1h-1zm4 0h1v1h-1zm1 0h1v1h-1zm1 0h1v1h-1zm1 0h8v1h-8zm8 0h1v25h-1zm1 0h1v1h-1zm1 0h1v1h-1zm5 0h1v1h-1zm1 0h1v1h-1zm9 0h1v1h-1zm1 0h1v1h-1zm7 0h1v1h-1zm1 0h1v1h-1zm1 0h1v1h-1zm1 0h1v1h-1zm1 0h1v1h-1zm1 0h1v1h-1zm1 0h1v1h-1zm82 0h1v1h-1zm1 0h1v1h-1zm1 0h1v1h-1zm1 0h7v1h-7zm7 0h1v1h-1zm1 0h1v1h-1zm1 0h1v1h-1zm1 0h1v1h-1zm6 0h1v1h-1zm1 0h1v1h-1zm1 0h1v1h-1zm9 0h1v1h-1zm1 0h1v1h-1zm1 0h1v1h-1zm1 0h1v1h-1zm5 0h1v1h-1zm1 0h1v1h-1zm1 0h1v1h-1zm1 0h1v1h-1z"/><path d="M279 35h8v1h-8zm8 0h1v17h-1zm1 0h1v1h-1zm1 0h1v1h-1zM37 36h1v1h-1zm1 0h1v1h-1zm1 0h1v1h-1zm1 0h1v1h-1zm16 0h1v1h-1zm1 0h1v1h-1zm9 0h1v1h-1zm1 0h1v1h-1zm1 0h1v1h-1zm8 0h1v1h-1zm1 0h1v1h-1zm1 0h1v1h-1zm1 0h8v1h-8zm8 0h1v16h-1zm1 0h1v1h-1zm1 0h1v1h-1zm15 0h1v1h-1zm1 0h1v1h-1zm1 0h1v1h-1zm1 0h1v1h-1zm7 0h1v1h-1zm1 0h1v1h-1zm1 0h8v1h-8zm9 0h1v1h-1zm1 0h1v1h-1zm5 0h1v1h-1zm1 0h1v1h-1zm9 0h1v1h-1zm1 0h1v1h-1zm9 0h1v1h-1zm1 0h1v1h-1zm1 0h1v1h-1zm1 0h1v1h-1zm82 0h1v1h-1zm1 0h1v1h-1zm1 0h1v1h-1zm1 0h7v2h-7zm7 0h1v1h-1zm1 0h1v1h-1zm1 0h1v1h-1zm1 0h1v1h-1zm7 0h1v1h-1zm1 0h1v1h-1zm1 0h8v2h-8zm8 0h1v1h-1zm1 0h1v1h-1zm1 0h1v1h-1zm1 0h1v1h-1zm8 0h1v1h-1zm1 0h1v1h-1zm1 0h1v1h-1zm2 0h6v18h-6zm7 0h1v1h-1zm1 0h1v1h-1zm1 0h1v1h-1zM37 37h1v12h-1zm1 0h1v14h-1zm1 0h1v1h-1zm1 0h1v1h-1zm1 0h1v1h-1zm14 0h1v1h-1zm1 0h1v1h-1zm1 0h8v14h-8zm8 0h1v1h-1zm1 0h1v1h-1zm1 0h1v1h-1zm10 0h1v1h-1zm1 0h1v1h-1zm1 0h1v1h-1zm3 0h5v16h-5zm6 0h1v1h-1zm1 0h1v1h-1zm15 0h1v1h-1zm1 0h1v1h-1zm1 0h1v1h-1zm9 0h1v1h-1zm1 0h1v1h-1zm1 0h7v23h-7zm8 0h1v1h-1zm1 0h1v1h-1zm5 0h1v1h-1zm1 0h1v1h-1zm9 0h1v1h-1zm1 0h1v1h-1zm93 0h1v1h-1zm1 0h1v1h-1zm1 0h1v1h-1z"/><path d="M238 37h7v2h-7zm8 0h1v1h-1zm1 0h1v1h-1zm1 0h1v1h-1zm7 0h1v1h-1zm1 0h1v1h-1zm1 0h1v1h-1zm9 0h1v1h-1zm1 0h1v1h-1zm1 0h1v1h-1zm10 0h1v1h-1zm1 0h1v1h-1zm9 0h1v13h-1zm1 0h1v1h-1zm1 0h1v1h-1zM39 38h1v14h-1zm1 0h1v1h-1zm1 0h1v1h-1zm1 0h1v1h-1zm13 0h1v1h-1zm1 0h1v1h-1zm9 0h1v1h-1zm1 0h1v1h-1zm1 0h1v1h-1zm11 0h1v1h-1zm1 0h1v1h-1zm9 0h1v12h-1zm1 0h1v1h-1zm1 0h1v1h-1zm14 0h1v22h-1zm1 0h1v22h-1zm10 0h1v1h-1zm1 0h1v1h-1zm9 0h1v1h-1zm1 0h1v1h-1zm5 0h1v1h-1zm1 0h1v1h-1zm9 0h1v1h-1zm1 0h1v1h-1zm1 0h1v1h-1zm1 0h1v1h-1zm87 0h1v1h-1zm1 0h1v1h-1zm2 0h1v1h-1zm1 0h1v1h-1zm1 0h1v1h-1z"/><path d="M237 38h8v1h-8zm8 0h1v1h-1zm1 0h1v1h-1zm1 0h1v1h-1zm8 0h1v1h-1zm1 0h1v1h-1zm1 0h8v11h-8zm8 0h1v1h-1zm1 0h1v1h-1zm1 0h1v1h-1zm11 0h1v1h-1zm1 0h1v1h-1zm1 0h8v1h-8zm9 0h1v1h-1zm1 0h1v1h-1zM23 39h17v1H23zm17 0h1v15h-1zm1 0h1v1h-1zm1 0h1v1h-1zm13 0h1v1h-1zm1 0h1v1h-1zm9 0h1v1h-1zm1 0h1v1h-1zm12 0h1v1h-1zm1 0h1v1h-1zm10 0h1v1h-1zm1 0h1v1h-1zm25 0h1v1h-1zm1 0h1v1h-1zm9 0h1v21h-1zm1 0h1v21h-1zm5 0h1v1h-1zm1 0h1v1h-1zm9 0h1v7h-1zm1 0h1v1h-1zm1 0h1v1h-1zm1 0h1v1h-1zm1 0h1v1h-1zm1 0h1v1h-1zm1 0h1v1h-1zm84 0h1v1h-1zm1 0h1v1h-1zm1 0h1v1h-1zm1 0h1v1h-1zm1 0h1v1h-1zm1 0h1v1h-1zm1 0h7v1h-7zm7 0h1v1h-1zm1 0h1v1h-1zm1 0h1v1h-1zm1 0h1v1h-1zm8 0h1v1h-1zm1 0h1v1h-1zm9 0h1v1h-1zm1 0h1v1h-1zm1 0h1v1h-1zm12 0h1v1h-1zm1 0h1v1h-1zm9 0h1v1h-1zm1 0h1v1h-1zM23 40h1v1h-1zm1 0h1v1h-1zm1 0h1v1h-1zm1 0h1v1h-1zm1 0h1v1h-1zm1 0h1v1h-1zm1 0h1v1h-1zm1 0h10v1H30zm11 0h1v1h-1zm1 0h1v1h-1zm1 0h1v1h-1zm11 0h1v1h-1zm1 0h1v1h-1zm1 0h1v1h-1zm9 0h1v1h-1zm1 0h1v1h-1zm12 0h1v1h-1zm1 0h1v1h-1zm10 0h1v1h-1zm1 0h1v1h-1zm25 0h1v20h-1zm1 0h1v20h-1zm15 0h1v1h-1zm1 0h1v1h-1z"/><path d="M133 40h10v1h-10zm10 0h1v7h-1zm1 0h1v1h-1zm1 0h1v1h-1zm1 0h1v1h-1zm1 0h1v1h-1zm1 0h1v1h-1zm1 0h1v1h-1zm1 0h1v1h-1zm81 0h1v1h-1zm1 0h1v1h-1zm1 0h1v1h-1zm1 0h1v1h-1zm1 0h8v4h-8zm8 0h1v1h-1zm1 0h1v1h-1zm1 0h1v1h-1zm1 0h1v1h-1zm9 0h1v1h-1zm1 0h1v1h-1zm9 0h1v1h-1zm1 0h1v1h-1zm13 0h1v1h-1zm1 0h1v1h-1zm9 0h1v1h-1zm1 0h1v1h-1zm1 0h1v1h-1zM23 41h1v19h-1zm1 0h1v1h-1zm1 0h1v1h-1zm1 0h1v1h-1zm1 0h1v1h-1zm1 0h1v1h-1zm1 0h1v1h-1zm1 0h1v1h-1zm1 0h1v1h-1zm1 0h9v1h-9zm9 0h1v14h-1zm1 0h1v1h-1zm1 0h1v1h-1zm1 0h1v1h-1zm10 0h1v1h-1zm1 0h1v1h-1zm1 0h8v6h-8zm9 0h1v1h-1zm1 0h1v1h-1zm12 0h1v1h-1zm1 0h1v1h-1zm10 0h1v1h-1zm1 0h1v1h-1zm41 0h1v1h-1zm1 0h1v1h-1zm1 0h1v1h-1z"/><path d="M134 41h12v1h-12zm12 0h1v7h-1zm1 0h1v1h-1zm1 0h1v1h-1zm1 0h1v1h-1zm1 0h1v1h-1zm1 0h1v1h-1zm1 0h1v1h-1zm79 0h11v3h-11zm12 0h1v1h-1zm1 0h1v1h-1zm1 0h1v1h-1zm10 0h1v1h-1zm1 0h1v1h-1zm9 0h1v1h-1zm1 0h1v1h-1zm13 0h1v1h-1zm1 0h1v1h-1zm9 0h1v6h-1zm1 0h1v1h-1zm1 0h1v1h-1zM24 42h1v18h-1zm6 0h1v1h-1zm1 0h1v1h-1zm1 0h10v1H32zm10 0h1v15h-1zm1 0h1v1h-1zm1 0h1v1h-1zm1 0h1v1h-1zm9 0h1v1h-1zm1 0h1v1h-1zm10 0h1v1h-1zm1 0h1v1h-1zm12 0h1v1h-1zm1 0h1v1h-1zm1 0h8v1h-8zm9 0h1v1h-1zm1 0h1v1h-1zm42 0h1v1h-1zm1 0h1v1h-1z"/><path d="M134 42h15v1h-15zm15 0h1v17h-1zm1 0h1v1h-1zm1 0h1v1h-1zm1 0h1v1h-1zm1 0h1v1h-1zm1 0h1v1h-1zm89 0h1v1h-1zm1 0h1v1h-1zm1 0h1v1h-1zm10 0h1v3h-1zm1 0h8v3h-8zm9 0h1v1h-1zm1 0h1v1h-1zm13 0h1v1h-1zm1 0h1v1h-1zm10 0h1v1h-1zm1 0h1v1h-1zM30 43h1v1h-1zm1 0h1v1h-1zm1 0h1v1h-1zm1 0h9v1h-9zm10 0h1v1h-1zm1 0h1v1h-1zm1 0h1v1h-1zm9 0h1v1h-1zm1 0h1v1h-1zm10 0h1v1h-1zm1 0h1v1h-1zm13 0h1v1h-1zm1 0h1v2h-1zm9 0h1v2h-1zm1 0h1v1h-1zm42 0h1v1h-1zm1 0h1v1h-1zm1 0h1v1h-1z"/><path d="M135 43h16v1h-16zm16 0h1v15h-1zm1 0h1v1h-1zm1 0h1v1h-1zm1 0h1v1h-1zm1 0h1v1h-1zm88 0h1v1h-1zm1 0h1v1h-1zm1 0h1v1h-1zm20 0h1v2h-1zm1 0h1v1h-1zm13 0h1v1h-1zm1 0h1v1h-1zm10 0h1v1h-1zm1 0h1v2h-1zM31 44h1v1h-1zm1 0h1v1h-1zm1 0h1v1h-1zm1 0h9v1h-9zm9 0h1v14h-1zm1 0h1v1h-1zm1 0h1v1h-1zm1 0h1v1h-1zm8 0h1v1h-1zm1 0h1v1h-1zm10 0h1v1h-1zm1 0h1v1h-1zm13 0h1v1h-1zm11 0h1v1h-1zm43 0h1v1h-1zm1 0h1v1h-1zm1 0h1v1h-1z"/><path d="M136 44h17v1h-17zm17 0h1v13h-1zm1 0h1v1h-1zm1 0h1v1h-1zm1 0h1v1h-1zm75 0h12v1h-12zm12 0h1v13h-1zm1 0h1v1h-1zm1 0h1v1h-1zm1 0h1v1h-1zm20 0h1v1h-1zm13 0h1v1h-1zm1 0h1v1h-1zm10 0h1v1h-1zM32 45h1v1h-1zm1 0h1v1h-1zm1 0h10v1H34zm10 0h1v14h-1zm1 0h1v1h-1zm1 0h1v1h-1zm1 0h1v1h-1zm7 0h1v1h-1zm1 0h1v1h-1zm10 0h1v1h-1zm1 0h1v1h-1zm13 0h1v1h-1zm1 0h1v1h-1zm9 0h1v1h-1zm1 0h1v1h-1zm44 0h1v1h-1zm1 0h1v1h-1zm1 0h1v1h-1zm1 0h1v1h-1z"/><path d="M138 45h16v1h-16zm16 0h1v11h-1zm1 0h1v1h-1zm1 0h1v1h-1zm75 0h1v1h-1zm1 0h1v1h-1zm1 0h1v1h-1zm1 0h1v1h-1zm1 0h1v1h-1zm1 0h8v1h-8zm8 0h1v14h-1zm1 0h1v1h-1zm1 0h1v1h-1zm1 0h1v1h-1zm8 0h1v1h-1zm1 0h8v1h-8zm9 0h1v1h-1zm1 0h1v1h-1zm13 0h1v1h-1zm1 0h1v1h-1zm10 0h1v1h-1zm1 0h1v1h-1zM32 46h1v1h-1zm1 0h1v1h-1zm1 0h1v1h-1zm1 0h9v1h-9zm10 0h1v1h-1zm1 0h1v1h-1zm1 0h1v1h-1zm7 0h1v1h-1zm1 0h1v1h-1zm10 0h1v1h-1zm1 0h1v1h-1zm12 0h1v1h-1zm1 0h1v1h-1zm1 0h8v6h-8zm9 0h1v1h-1zm1 0h1v1h-1zm45 0h1v1h-1zm1 0h1v1h-1zm1 0h1v1h-1zm1 0h1v1h-1zm1 0h1v1h-1zm1 0h14v1h-14zm15 0h1v1h-1zm1 0h1v1h-1zm1 0h1v1h-1zm74 0h1v1h-1zm1 0h1v1h-1zm1 0h1v1h-1zm1 0h1v1h-1zm1 0h1v1h-1zm1 0h1v1h-1z"/><path d="M237 46h8v1h-8zm8 0h1v13h-1zm1 0h1v1h-1zm1 0h1v1h-1zm8 0h1v1h-1zm1 0h1v1h-1zm9 0h1v1h-1zm1 0h1v1h-1zm13 0h1v1h-1zm1 0h1v1h-1zm10 0h1v1h-1zm1 0h1v1h-1zM33 47h1v1h-1zm1 0h1v1h-1zm1 0h1v1h-1zm1 0h9v1h-9zm9 0h1v12h-1zm1 0h1v1h-1zm1 0h1v1h-1zm1 0h1v1h-1zm6 0h1v1h-1zm1 0h1v1h-1zm1 0h8v1h-8zm9 0h1v1h-1zm1 0h1v1h-1zm12 0h1v1h-1zm1 0h1v1h-1zm10 0h1v1h-1zm1 0h1v1h-1zm47 0h1v1h-1zm1 0h1v1h-1zm1 0h1v1h-1zm1 0h1v1h-1zm1 0h1v1h-1zm1 0h1v1h-1zm1 0h12v1h-12zm12 0h1v7h-1zm1 0h1v1h-1zm1 0h1v1h-1zm74 0h1v13h-1zm1 0h1v13h-1zm3 0h1v1h-1zm1 0h1v1h-1zm1 0h1v1h-1zm1 0h7v1h-7zm8 0h1v1h-1zm1 0h1v1h-1zm1 0h1v1h-1zm7 0h1v1h-1zm1 0h1v1h-1zm9 0h1v1h-1zm1 0h1v1h-1zm13 0h1v1h-1zm1 0h1v1h-1zm9 0h1v1h-1zm1 0h1v1h-1zm1 0h1v1h-1zM34 48h1v1h-1zm1 0h1v1h-1z"/><path d="M36 48h10v1H36zm10 0h1v12h-1zm1 0h1v1h-1zm1 0h1v1h-1zm6 0h1v1h-1zm1 0h1v1h-1zm1 0h1v1h-1zm9 0h1v1h-1zm1 0h1v1h-1zm12 0h1v1h-1zm1 0h1v1h-1zm10 0h1v1h-1zm1 0h1v1h-1zm49 0h1v1h-1zm1 0h1v1h-1zm1 0h1v1h-1zm1 0h1v1h-1zm1 0h1v1h-1zm1 0h1v1h-1zm1 0h1v1h-1zm1 0h9v1h-9zm10 0h1v1h-1zm1 0h1v1h-1zm5 0h1v1h-1zm1 0h1v1h-1zm9 0h1v1h-1zm1 0h1v1h-1zm63 0h1v1h-1zm1 0h1v1h-1zm1 0h8v1h-8zm8 0h1v12h-1zm1 0h1v1h-1zm1 0h1v1h-1zm7 0h1v1h-1zm1 0h1v1h-1zm9 0h1v1h-1zm1 0h1v1h-1zm1 0h1v1h-1zm12 0h1v1h-1zm1 0h1v1h-1zm9 0h1v1h-1zm1 0h1v1h-1zM34 49h1v1h-1zm1 0h1v1h-1zm1 0h1v1h-1zm1 0h9v1h-9zm10 0h1v1h-1zm1 0h1v1h-1zm1 0h1v1h-1zm6 0h1v1h-1zm1 0h1v1h-1zm9 0h1v1h-1zm1 0h1v1h-1zm1 0h1v1h-1zm11 0h1v1h-1zm1 0h1v1h-1zm10 0h1v1h-1zm1 0h1v1h-1zm52 0h1v1h-1zm1 0h1v1h-1zm1 0h1v1h-1zm1 0h1v1h-1zm1 0h1v1h-1zm1 0h1v1h-1zm1 0h8v1h-8zm8 0h1v2h-1zm1 0h1v1h-1zm1 0h1v1h-1zm4 0h1v1h-1zm1 0h1v1h-1zm9 0h1v1h-1zm1 0h1v1h-1zm63 0h1v1h-1zm1 0h1v1h-1zm1 0h1v1h-1zm1 0h7v1h-7zm8 0h1v1h-1zm1 0h1v1h-1zm1 0h1v1h-1zm6 0h1v1h-1zm1 0h1v1h-1zm1 0h8v1h-8zm8 0h1v9h-1zm1 0h1v1h-1zm1 0h1v1h-1zm12 0h1v1h-1zm1 0h1v1h-1zm9 0h1v1h-1zm1 0h1v1h-1zM35 50h1v1h-1zm1 0h1v1h-1zm1 0h1v1h-1zm10 0h1v10h-1zm1 0h1v1h-1zm1 0h1v1h-1zm1 0h1v1h-1zm5 0h1v1h-1zm1 0h1v1h-1zm9 0h1v9h-1zm1 0h1v1h-1zm1 0h1v1h-1zm11 0h1v1h-1zm1 0h1v1h-1zm9 0h1v1h-1zm1 0h1v1h-1zm56 0h1v1h-1zm1 0h1v1h-1zm1 0h1v1h-1zm1 0h1v1h-1zm2 0h6v4h-6zm7 0h1v1h-1zm1 0h1v1h-1zm4 0h1v1h-1zm1 0h1v1h-1zm9 0h1v10h-1zm1 0h1v1h-1zm1 0h1v1h-1zm9 0h1v1h-1zm1 0h1v1h-1zm53 0h1v1h-1zm1 0h1v1h-1z"/><path d="M239 50h8v1h-8zm8 0h1v10h-1zm1 0h1v1h-1zm1 0h1v1h-1zm1 0h1v1h-1zm5 0h1v1h-1zm1 0h1v1h-1zm1 0h1v1h-1zm1 0h7v2h-7zm8 0h1v1h-1zm1 0h1v1h-1zm11 0h1v1h-1zm1 0h1v1h-1zm1 0h8v2h-8zm8 0h1v1h-1zm1 0h1v1h-1zm1 0h1v1h-1zM36 51h1v1h-1zm1 0h1v1h-1zm1 0h10v1H38zm10 0h1v9h-1zm1 0h1v1h-1zm1 0h1v1h-1zm5 0h1v1h-1zm1 0h1v1h-1zm1 0h8v1h-8zm9 0h1v1h-1zm1 0h1v1h-1zm10 0h1v1h-1zm1 0h1v1h-1zm1 0h1v1h-1zm9 0h1v1h-1zm1 0h1v1h-1zm58 0h1v1h-1zm1 0h1v1h-1zm8 0h1v1h-1zm1 0h1v1h-1zm1 0h1v1h-1zm4 0h1v1h-1zm1 0h1v1h-1zm10 0h1v1h-1zm1 0h1v1h-1zm8 0h1v1h-1zm1 0h1v1h-1zm1 0h1v1h-1zm53 0h1v1h-1zm1 0h1v1h-1zm1 0h1v1h-1z"/><path d="M240 51h8v1h-8zm8 0h1v9h-1zm1 0h1v1h-1zm1 0h1v1h-1zm6 0h1v1h-1zm1 0h1v1h-1zm9 0h1v1h-1zm1 0h1v1h-1zm1 0h1v1h-1zm9 0h1v1h-1zm1 0h1v1h-1zm1 0h1v1h-1zm9 0h1v1h-1zm1 0h1v1h-1zm1 0h1v1h-1zM36 52h1v1h-1zm1 0h1v1h-1zm1 0h1v1h-1zm1 0h9v1h-9zm10 0h1v1h-1zm1 0h1v1h-1zm1 0h1v1h-1zm5 0h1v1h-1zm1 0h1v1h-1zm1 0h8v1h-8zm8 0h1v7h-1zm1 0h1v1h-1zm1 0h1v1h-1zm1 0h1v1h-1zm7 0h1v1h-1zm1 0h1v1h-1zm1 0h1v1h-1zm1 0h8v1h-8zm8 0h1v1h-1zm1 0h1v1h-1zm1 0h1v1h-1zm44 0h1v1h-1zm1 0h1v1h-1zm1 0h1v1h-1zm1 0h1v1h-1zm1 0h1v1h-1zm1 0h1v1h-1zm9 0h1v1h-1zm1 0h1v1h-1zm8 0h1v1h-1zm1 0h1v1h-1zm5 0h1v1h-1zm1 0h1v1h-1zm10 0h1v1h-1zm1 0h1v1h-1zm1 0h1v1h-1zm6 0h1v1h-1zm1 0h1v1h-1zm1 0h1v1h-1zm1 0h1v1h-1zm54 0h1v1h-1zm1 0h1v1h-1zm1 0h8v1h-8zm9 0h1v1h-1zm1 0h1v1h-1zm1 0h1v1h-1zm5 0h1v1h-1zm1 0h1v1h-1zm1 0h8v1h-8zm8 0h1v7h-1zm1 0h1v1h-1zm1 0h1v1h-1zm1 0h1v1h-1zm7 0h1v1h-1zm1 0h1v1h-1zm1 0h1v1h-1zm1 0h8v2h-8zm8 0h1v1h-1zm1 0h1v1h-1zm1 0h1v1h-1zM37 53h1v1h-1zm1 0h1v1h-1zm1 0h1v1h-1zm10 0h1v7h-1zm1 0h1v1h-1zm1 0h1v1h-1zm1 0h1v1h-1zm4 0h1v1h-1zm1 0h1v1h-1zm1 0h8v1h-8zm9 0h1v1h-1zm1 0h1v1h-1zm1 0h1v1h-1zm1 0h1v1h-1zm1 0h1v1h-1zm1 0h1v1h-1zm1 0h1v1h-1zm1 0h1v1h-1zm1 0h1v1h-1zm1 0h1v1h-1zm1 0h1v1h-1zm1 0h8v2h-8zm8 0h1v1h-1zm1 0h1v1h-1zm1 0h1v1h-1zm1 0h1v1h-1zm43 0h1v1h-1zm1 0h1v1h-1zm1 0h1v1h-1zm1 0h1v1h-1zm1 0h1v1h-1zm1 0h1v1h-1zm1 0h1v1h-1zm1 0h1v1h-1zm1 0h1v1h-1zm6 0h1v1h-1zm1 0h1v1h-1zm1 0h1v1h-1zm8 0h1v1h-1zm1 0h1v1h-1zm5 0h1v1h-1zm1 0h1v1h-1zm1 0h8v1h-8zm9 0h1v1h-1zm1 0h1v1h-1zm1 0h1v1h-1zm1 0h1v1h-1zm1 0h1v1h-1zm1 0h1v1h-1zm1 0h1v1h-1zm1 0h1v1h-1zm1 0h1v1h-1zm1 0h1v1h-1zm1 0h9v3h-9zm56 0h1v1h-1zm1 0h1v1h-1z"/><path d="M241 53h8v1h-8zm8 0h1v7h-1zm1 0h1v1h-1zm1 0h1v1h-1zm6 0h1v1h-1zm1 0h1v1h-1zm1 0h8v1h-8zm8 0h1v6h-1zm1 0h1v1h-1zm1 0h1v1h-1zm1 0h1v1h-1zm1 0h1v1h-1zm1 0h1v1h-1zm1 0h1v1h-1zm1 0h1v1h-1zm1 0h1v1h-1zm1 0h1v1h-1zm1 0h1v1h-1zm1 0h1v1h-1zm9 0h1v1h-1zm1 0h1v1h-1zm1 0h1v1h-1zM38 54h1v1h-1zm1 0h1v1h-1zm1 0h10v1H40zm10 0h1v6h-1zm1 0h1v1h-1zm1 0h1v1h-1zm4 0h1v1h-1zm1 0h1v1h-1zm1 0h1v1h-1zm1 0h8v1h-8zm8 0h1v5h-1zm1 0h1v1h-1zm1 0h1v1h-1zm1 0h1v1h-1zm1 0h1v1h-1zm1 0h1v1h-1zm1 0h1v1h-1zm1 0h1v1h-1zm1 0h1v1h-1zm1 0h1v1h-1zm1 0h8v2h-8zm9 0h1v1h-1zm1 0h1v1h-1zm1 0h1v1h-1zm43 0h1v1h-1zm1 0h1v1h-1zm1 0h1v1h-1zm1 0h3v4h-3zm3 0h1v5h-1zm1 0h1v1h-1zm1 0h1v1h-1zm1 0h1v1h-1zm1 0h1v1h-1zm1 0h2v1h-2zm2 0h1v1h-1zm1 0h1v1h-1zm1 0h1v1h-1zm1 0h1v1h-1zm1 0h7v2h-7zm7 0h1v1h-1zm1 0h1v1h-1zm1 0h1v1h-1zm6 0h1v1h-1zm1 0h1v1h-1zm1 0h8v1h-8zm8 0h1v6h-1zm1 0h1v1h-1zm1 0h1v1h-1zm1 0h1v1h-1zm1 0h1v1h-1zm1 0h1v1h-1zm1 0h1v1h-1zm1 0h1v1h-1zm1 0h1v1h-1zm1 0h10v2h-10zm57 0h1v1h-1zm1 0h1v1h-1zm1 0h8v1h-8zm9 0h1v1h-1zm1 0h1v1h-1zm1 0h1v1h-1zm5 0h1v1h-1zm1 0h1v1h-1z"/><path d="M259 54h9v1h-9zm9 0h1v6h-1zm1 0h1v1h-1zm1 0h1v1h-1zm1 0h1v1h-1zm1 0h1v1h-1zm1 0h1v1h-1zm1 0h1v1h-1zm1 0h1v1h-1zm1 0h1v1h-1zm1 0h9v1h-9zm9 0h1v1h-1zm1 0h1v1h-1zm1 0h1v1h-1zM38 55h1v1h-1zm1 0h1v1h-1zm1 0h1v1h-1zm1 0h9v1h-9zm10 0h1v1h-1zm1 0h1v1h-1zm1 0h1v1h-1zm4 0h1v1h-1zm1 0h1v1h-1zm1 0h1v1h-1zm1 0h25v1H60zm25 0h1v1h-1zm1 0h1v1h-1zm1 0h1v1h-1zm44 0h1v1h-1zm1 0h1v1h-1zm1 0h1v1h-1zm5 0h1v4h-1zm1 0h1v5h-1zm1 0h1v1h-1zm1 0h1v1h-1zm1 0h2v1h-2zm2 0h1v1h-1zm1 0h1v1h-1zm1 0h1v1h-1zm1 0h7v2h-7zm8 0h1v1h-1zm1 0h1v1h-1zm1 0h1v1h-1zm6 0h1v1h-1zm1 0h1v1h-1zm1 0h27v1h-27zm74 0h1v1h-1zm1 0h1v1h-1zm1 0h1v1h-1zm1 0h8v1h-8zm8 0h1v5h-1zm1 0h1v1h-1zm1 0h1v1h-1zm1 0h1v1h-1zm4 0h1v1h-1zm1 0h1v1h-1zm1 0h1v1h-1z"/><path d="M260 55h25v1h-25zm25 0h1v1h-1zm1 0h1v1h-1zm1 0h1v1h-1zm1 0h1v1h-1zM39 56h1v1h-1zm1 0h1v1h-1zm1 0h1v1h-1zm10 0h1v4h-1zm1 0h1v1h-1zm1 0h1v1h-1zm1 0h1v1h-1zm4 0h1v1h-1zm1 0h1v1h-1zm1 0h1v1h-1zm1 0h23v1H61zm23 0h1v1h-1zm1 0h1v1h-1zm1 0h1v1h-1zm1 0h1v1h-1zm43 0h1v1h-1zm1 0h1v1h-1zm1 0h1v1h-1zm1 0h21v1h-21zm21 0h1v1h-1zm1 0h1v1h-1zm1 0h1v1h-1zm7 0h1v1h-1zm1 0h1v1h-1zm1 0h1v1h-1zm1 0h26v1h-26zm74 0h1v1h-1zm1 0h1v1h-1zm1 0h1v1h-1zm9 0h1v1h-1zm1 0h1v1h-1zm1 0h1v1h-1zm5 0h1v1h-1zm1 0h1v1h-1zm1 0h1v1h-1zm1 0h23v1h-23zm23 0h1v1h-1zm1 0h1v1h-1zm1 0h1v1h-1zm1 0h1v1h-1zM40 57h1v1h-1zm1 0h1v1h-1z"/><path d="M42 57h10v1H42zm10 0h1v3h-1zm1 0h1v1h-1zm1 0h1v1h-1zm5 0h1v1h-1zm1 0h1v1h-1zm1 0h1v1h-1zm1 0h20v1H62zm20 0h1v1h-1zm1 0h1v1h-1zm1 0h1v1h-1zm1 0h1v1h-1zm1 0h1v1h-1zm44 0h1v1h-1zm1 0h1v1h-1zm1 0h21v1h-21zm21 0h1v1h-1zm1 0h1v1h-1zm1 0h1v1h-1zm9 0h1v1h-1zm1 0h1v1h-1zm1 0h1v1h-1zm1 0h15v1h-15zm15 0h1v1h-1zm1 0h1v1h-1zm1 0h1v1h-1zm1 0h7v1h-7zm56 0h1v1h-1zm1 0h1v1h-1zm1 0h8v1h-8zm8 0h1v3h-1zm1 0h1v1h-1zm1 0h1v1h-1zm1 0h1v1h-1zm5 0h1v1h-1zm1 0h1v1h-1zm1 0h1v1h-1zm1 0h21v1h-21zm21 0h1v1h-1zm1 0h1v1h-1zm1 0h1v1h-1zm1 0h1v1h-1zM40 58h1v1h-1zm1 0h1v1h-1zm1 0h1v1h-1zm1 0h9v1h-9zm10 0h1v1h-1zm1 0h1v1h-1zm1 0h1v1h-1zm5 0h1v1h-1zm1 0h1v1h-1zm1 0h1v1h-1zm1 0h18v1H63zm18 0h1v1h-1zm1 0h1v1h-1zm1 0h1v1h-1zm1 0h1v1h-1zm1 0h1v1h-1zm45 0h1v1h-1zm1 0h1v1h-1zm1 0h1v1h-1zm1 0h18v1h-18zm18 0h1v1h-1zm1 0h1v1h-1zm1 0h1v1h-1zm1 0h1v1h-1zm1 0h1v1h-1zm10 0h1v1h-1zm1 0h1v1h-1zm1 0h14v1h-14zm14 0h1v1h-1zm1 0h1v1h-1zm1 0h1v1h-1zm1 0h1v1h-1zm1 0h1v1h-1zm1 0h6v1h-6zm55 0h1v1h-1zm1 0h1v1h-1zm1 0h1v1h-1zm9 0h1v2h-1zm1 0h1v1h-1zm1 0h1v1h-1zm6 0h1v1h-1zm1 0h1v1h-1zm1 0h1v1h-1zm1 0h1v1h-1zm1 0h18v1h-18zm18 0h1v1h-1zm1 0h1v1h-1zm1 0h1v1h-1zm1 0h1v1h-1zM41 59h1v1h-1zm1 0h1v1h-1zm1 0h1v1h-1z"/><path d="M44 59h9v1h-9zm9 0h1v1h-1zm1 0h1v1h-1zm1 0h1v1h-1zm1 0h1v1h-1zm5 0h1v1h-1zm1 0h1v1h-1zm1 0h1v1h-1zm1 0h1v1h-1zm1 0h14v1H65zm14 0h1v1h-1zm52 0h1v1h-1zm1 0h1v1h-1zm1 0h1v1h-1zm1 0h1v1h-1zm1 0h1v1h-1zm1 0h14v1h-14zm14 0h1v1h-1zm1 0h1v1h-1zm1 0h1v1h-1zm1 0h1v1h-1zm1 0h1v1h-1zm11 0h1v1h-1zm1 0h1v1h-1zm1 0h1v1h-1zm1 0h1v1h-1zm1 0h11v1h-11zm11 0h1v1h-1zm1 0h1v1h-1zm1 0h1v1h-1zm1 0h1v1h-1zm1 0h1v1h-1zm1 0h1v1h-1zm1 0h6v1h-6zm56 0h1v1h-1zm1 0h1v1h-1zm1 0h8v1h-8zm9 0h1v1h-1zm1 0h1v1h-1zm1 0h1v1h-1zm6 0h1v1h-1zm1 0h1v1h-1zm1 0h1v1h-1zm1 0h1v1h-1zm1 0h1v1h-1zm1 0h14v1h-14zm14 0h1v1h-1zm1 0h1v1h-1zm1 0h1v1h-1zm1 0h1v1h-1zm1 0h1v1h-1zM12 60h1v1h-1zm1 0h1v1h-1zm1 0h8v1h-8zm8 0h1v1h-1zm1 0h1v1h-1zm1 0h1v1h-1zm17 0h1v1h-1zm1 0h1v1h-1zm1 0h1v1h-1zm1 0h1v1h-1zm1 0h1v1h-1zm1 0h8v1h-8zm8 0h1v1h-1zm1 0h1v1h-1zm1 0h1v1h-1zm6 0h1v1h-1zm1 0h1v1h-1zm1 0h1v1h-1zm1 0h1v1h-1zm1 0h1v1h-1zm1 0h1v1h-1zm1 0h9v1h-9zm9 0h1v1h-1zm17 0h1v1h-1zm1 0h1v1h-1zm1 0h7v1h-7zm7 0h1v1h-1zm1 0h1v1h-1zm1 0h1v1h-1zm10 0h1v1h-1zm1 0h1v1h-1zm1 0h7v1h-7zm7 0h1v1h-1zm1 0h1v1h-1zm1 0h1v1h-1zm7 0h1v1h-1zm1 0h1v1h-1zm1 0h1v1h-1zm1 0h1v1h-1zm1 0h1v1h-1zm1 0h1v1h-1zm1 0h8v1h-8zm8 0h1v1h-1zm1 0h1v1h-1zm1 0h1v1h-1zm1 0h1v1h-1zm1 0h1v1h-1zm1 0h1v1h-1zm14 0h1v1h-1zm1 0h1v1h-1zm1 0h1v1h-1zm1 0h1v1h-1zm1 0h1v1h-1zm1 0h6v1h-6zm6 0h1v1h-1zm1 0h1v1h-1zm1 0h1v1h-1zm1 0h1v1h-1zm1 0h1v1h-1zm1 0h1v1h-1zm2 0h1v1h-1zm1 0h1v1h-1zm1 0h1v1h-1zm1 0h5v1h-5zm5 0h1v1h-1zm1 0h1v1h-1zm1 0h1v1h-1zm8 0h1v1h-1zm1 0h1v1h-1zm1 0h7v1h-7zm7 0h1v1h-1zm1 0h1v1h-1zm1 0h1v1h-1zm8 0h1v1h-1zm1 0h1v1h-1zm1 0h7v1h-7zm7 0h1v1h-1zm1 0h1v1h-1zm1 0h1v1h-1zm10 0h1v1h-1zm1 0h1v1h-1zm1 0h1v1h-1zm1 0h1v1h-1zm1 0h7v1h-7zm7 0h1v1h-1zm1 0h1v1h-1zm1 0h1v1h-1zm8 0h1v1h-1zm1 0h1v1h-1zm1 0h1v1h-1zm1 0h1v1h-1zm1 0h1v1h-1zm1 0h9v1h-9zm9 0h1v1h-1zm1 0h1v1h-1zm1 0h1v1h-1zm1 0h1v1h-1zm1 0h1v1h-1zm1 0h1v1h-1zm1 0h1v1h-1zM12 61h1v1h-1zm1 0h1v1h-1zm1 0h8v1h-8zm8 0h1v1h-1zm1 0h1v1h-1zm1 0h1v1h-1zm18 0h1v1h-1zm1 0h1v1h-1zm1 0h1v1h-1zm1 0h1v1h-1zm1 0h1v1h-1zm1 0h7v1h-7zm7 0h1v1h-1zm1 0h1v1h-1zm1 0h1v1h-1zm8 0h1v1h-1zm1 0h1v1h-1zm1 0h1v1h-1zm1 0h1v1h-1zm27 0h1v1h-1zm1 0h1v1h-1zm1 0h7v1h-7zm7 0h1v1h-1zm1 0h1v1h-1zm1 0h1v1h-1zm10 0h1v1h-1zm1 0h1v1h-1zm1 0h7v1h-7zm7 0h1v1h-1zm1 0h1v1h-1zm1 0h1v1h-1zm9 0h1v1h-1zm1 0h1v1h-1zm1 0h1v1h-1zm1 0h1v1h-1zm1 0h1v1h-1zm1 0h1v1h-1zm1 0h1v1h-1zm1 0h1v1h-1zm1 0h1v1h-1zm1 0h1v1h-1zm1 0h1v1h-1zm1 0h1v1h-1zm1 0h1v1h-1zm1 0h1v1h-1zm1 0h1v1h-1zm1 0h1v1h-1zm1 0h1v1h-1zm17 0h1v1h-1zm1 0h1v1h-1zm1 0h1v1h-1zm1 0h1v1h-1zm1 0h1v1h-1zm1 0h1v1h-1zm1 0h1v1h-1zm1 0h1v1h-1zm1 0h1v1h-1zm1 0h1v1h-1zm1 0h1v1h-1zm1 0h1v1h-1zm1 0h1v1h-1zm1 0h1v1h-1zm4 0h1v1h-1zm1 0h1v1h-1zm1 0h1v1h-1zm1 0h4v1h-4zm4 0h1v1h-1zm1 0h1v1h-1zm1 0h1v1h-1zm8 0h1v1h-1zm1 0h1v1h-1zm1 0h7v1h-7zm7 0h1v1h-1zm1 0h1v1h-1zm1 0h1v1h-1zm8 0h1v1h-1zm1 0h1v1h-1zm1 0h7v1h-7zm7 0h1v1h-1zm1 0h1v1h-1zm1 0h1v1h-1zm11 0h1v1h-1zm1 0h1v1h-1zm1 0h1v1h-1zm1 0h1v1h-1zm1 0h6v1h-6zm6 0h1v1h-1zm1 0h1v1h-1zm1 0h1v1h-1zm1 0h1v1h-1zm9 0h1v1h-1zm1 0h1v1h-1zm1 0h1v1h-1zm1 0h1v1h-1zm1 0h1v1h-1zm1 0h1v1h-1zm1 0h1v1h-1zm1 0h1v1h-1zm1 0h1v1h-1zm1 0h1v1h-1zm1 0h1v1h-1zm1 0h1v1h-1zm1 0h1v1h-1zm1 0h1v1h-1zm1 0h1v1h-1zm1 0h1v1h-1zM13 62h1v1h-1zm1 0h9v1h-9zm9 0h1v1h-1zm1 0h1v1h-1zm21 0h1v1h-1zm1 0h9v1h-9zm9 0h1v1h-1zm1 0h1v1h-1zm38 0h1v1h-1zm1 0h9v1h-9zm9 0h1v1h-1zm1 0h1v1h-1zm10 0h1v1h-1zm1 0h9v1h-9zm9 0h1v1h-1zm1 0h1v1h-1zm12 0h1v1h-1zm1 0h1v1h-1zm1 0h1v1h-1zm1 0h1v1h-1zm1 0h1v1h-1zm1 0h1v1h-1zm1 0h1v1h-1zm1 0h1v1h-1zm1 0h1v1h-1zm1 0h1v1h-1zm1 0h1v1h-1zm22 0h1v1h-1zm1 0h1v1h-1zm1 0h1v1h-1zm1 0h1v1h-1zm1 0h1v1h-1zm1 0h1v1h-1zm1 0h1v1h-1zm1 0h1v1h-1zm1 0h1v1h-1zm9 0h1v1h-1zm1 0h5v1h-5zm5 0h1v1h-1zm1 0h1v1h-1zm8 0h1v1h-1zm1 0h9v1h-9zm9 0h1v1h-1zm1 0h1v1h-1zm8 0h1v1h-1zm1 0h9v1h-9zm9 0h1v1h-1zm1 0h1v1h-1zm13 0h1v1h-1zm1 0h8v1h-8zm8 0h1v1h-1zm1 0h1v1h-1zm13 0h1v1h-1zm1 0h1v1h-1zm1 0h1v1h-1zm1 0h1v1h-1zm1 0h1v1h-1zm1 0h1v1h-1zm1 0h1v1h-1zm1 0h1v1h-1zm1 0h1v1h-1zm1 0h1v1h-1zm1 0h1v1h-1z"/></g><path fill="#346c8c" d="M76 61h1v1h-1z"/><path fill="#8f9ca5" d="M73 62h1v1h-1z"/><path fill="#9ca3a9" d="M76 62h1v1h-1z"/><path fill="#a5a7aa" d="M60 69h1v1h-1z"/><path fill="#125a82" d="M81 59h1v1h-1z"/><path fill="#4b7892" d="M80 60h1v1h-1z"/><path fill="#115a82" d="M68 61h1v1h-1z"/><path fill="#1f6186" d="M69 61h1v1h-1z"/><path fill="#3a3738" d="M59 68h1v1h-1z"/><path fill="#206186" d="M72 61h1v1h-1z"/><path fill="#919da6" d="M79 61h1v1h-1z"/><path d="M69 62h1v1h-1zm6 0h1v1h-1z" fill="#97a1a7"/><path fill="#858588" d="M98 67h1v1h-1z"/><path d="M60 67h1v1h-1zm0 1h1v1h-1z" fill="#949598"/><path fill="#282425" d="M99 67h1v1h-1z"/><path fill="#145b83" d="M82 59h1v1h-1z"/><path fill="#256487" d="M79 60h1v1h-1z"/><path fill="#256488" d="M75 61h1v1h-1z"/><path d="M80 61h1v1h-1zm-3 1h1v1h-1z" fill="#a3a7ab"/><path fill="#96a0a7" d="M70 62h1v1h-1z"/><path fill="#949fa7" d="M74 62h1v1h-1z"/><path d="M96 68h1v1h-1zm-37 2h1v1h-1z" fill="#a6a8ab"/><path fill="#2a2627" d="M98 68h1v1h-1z"/><path fill="#808083" d="M59 69h1v1h-1z"/><path fill="#0f5981" d="M80 59h1v1h-1z"/><path d="M82 60h1v1h-1zm-15 2h1v1h-1z" fill="#a1a6aa"/><g fill="#a7a9ac"><path d="M83 60h1v1h-1zm1 0h1v1h-1zm1 0h1v1h-1zm1 0h1v1h-1zm1 0h1v1h-1zm1 0h1v1h-1zm-7 1h3v7h-3zm3 0h1v7h-1zm1 0h1v1h-1zm1 0h1v1h-1zm1 0h1v1h-1zm1 0h1v1h-1zm1 0h1v1h-1zm1 0h1v1h-1zm1 0h1v1h-1zm-25 1h1v1h-1z"/><path d="M78 62h10v6H78zm10 0h1v7h-1zm1 0h1v1h-1zm1 0h1v1h-1zm1 0h1v1h-1zm1 0h1v1h-1zm1 0h1v1h-1zm-29 1h1v1h-1zm1 0h1v1h-1zm1 0h1v1h-1zm1 0h1v1h-1zm1 0h1v1h-1z"/><path d="M69 63h21v5H69zm21 0h1v8h-1zm1 0h1v1h-1zm1 0h1v1h-1zm1 0h1v1h-1zm1 0h1v1h-1zm1 0h1v1h-1zm-32 1h1v1h-1zm1 0h1v1h-1zm1 0h1v1h-1zm1 0h1v1h-1z"/><path d="M67 64h26v4H67zm26 0h1v7h-1zm1 0h1v1h-1zm1 0h1v1h-1zm1 0h1v1h-1zm1 0h1v1h-1zm-35 1h1v1h-1zm1 0h1v1h-1zm1 0h1v1h-1z"/><path d="M65 65h29v3H65zm29 0h1v5h-1zm1 0h1v1h-1zm1 0h1v1h-1zm1 0h1v1h-1zm1 0h1v1h-1zm-38 1h1v1h-1zm1 0h1v1h-1zm1 0h1v1h-1zm1 0h1v1h-1z"/><path d="M64 66h31v2H64zm31 0h1v3h-1zm1 0h1v1h-1zm1 0h1v1h-1zm1 0h1v1h-1zm1 0h1v1h-1zm-38 1h1v1h-1zm1 0h1v1h-1z"/><path d="M63 67h33v1H63zm33 0h1v1h-1zm-35 1h34v1H61zm0 1h13v1H61zm13 0h1v1h-1zm1 0h1v1h-1zm1 0h1v1h-1zm1 0h1v1h-1zm1 0h1v1h-1zm1 0h1v1h-1zm1 0h1v1h-1zm1 0h1v1h-1zm1 0h1v1h-1zm1 0h1v1h-1zm1 0h1v1h-1zm1 0h10v1H85zm10 0h1v1h-1zm-35 1h11v1H60zm11 0h1v1h-1zm1 0h1v1h-1zm1 0h1v1h-1zm1 0h1v1h-1zm1 0h1v1h-1zm1 0h1v1h-1zm1 0h1v1h-1zm1 0h1v1h-1zm1 0h1v1h-1zm1 0h1v1h-1zm1 0h1v1h-1zm1 0h1v1h-1zm1 0h1v1h-1zm1 0h1v1h-1zm1 0h1v1h-1zm1 0h1v1h-1zm1 0h1v1h-1zm1 0h1v1h-1zm1 0h5v1h-5zm5 0h1v1h-1zm1 0h1v1h-1zm1 0h1v1h-1zm-40 1h1v1h-1zm1 0h1v1h-1zm1 0h1v1h-1zm1 0h11v1H59zm11 0h1v1h-1zm1 0h1v1h-1zm1 0h1v1h-1zm1 0h1v1h-1zm1 0h1v1h-1zm1 0h1v1h-1zm10 0h1v1h-1zm1 0h1v1h-1zm1 0h1v1h-1zm1 0h1v1h-1zm1 0h1v1h-1zm1 0h3v1h-3zm3 0h1v1h-1zm1 0h1v1h-1zm1 0h1v1h-1zm1 0h1v1h-1zm-40 1h1v1h-1zm1 0h1v1h-1zm1 0h11v1H58zm11 0h1v1h-1zm1 0h1v1h-1zm1 0h1v1h-1zm1 0h1v1h-1zm16 0h1v1h-1zm1 0h1v1h-1zm1 0h1v1h-1zm1 0h1v1h-1zm1 0h1v1h-1zm1 0h1v1h-1zm1 0h1v1h-1zm1 0h1v1h-1zm-39 1h1v1h-1zm1 0h1v1h-1zm1 0h10v1H58zm10 0h1v1h-1zm1 0h1v1h-1zm1 0h1v1h-1zm1 0h1v1h-1zm18 0h1v1h-1zm1 0h1v1h-1zm1 0h1v1h-1zm1 0h1v1h-1zm1 0h1v1h-1zm1 0h1v1h-1zm1 0h1v1h-1zm28 0h1v1h-1zm1 0h1v1h-1zm102 0h2v1h-2zm2 0h1v1h-1zM55 74h1v1h-1zm1 0h1v1h-1zm1 0h10v2H57zm10 0h1v1h-1zm1 0h1v1h-1zm1 0h1v1h-1zm1 0h1v1h-1zm21 0h1v1h-1zm1 0h1v1h-1zm1 0h1v1h-1zm10 0h1v1h-1zm1 0h1v1h-1zm1 0h5v1h-5zm5 0h1v1h-1zm1 0h1v1h-1zm1 0h1v1h-1zm7 0h1v1h-1zm1 0h1v1h-1zm1 0h1v1h-1zm1 0h1v1h-1zm1 0h1v1h-1zm1 0h1v1h-1zm1 0h1v1h-1zm1 0h1v1h-1zm1 0h1v1h-1zm12 0h1v1h-1zm1 0h1v1h-1zm1 0h1v1h-1zm1 0h1v1h-1zm1 0h1v1h-1zm1 0h1v1h-1zm1 0h1v1h-1zm1 0h1v1h-1zm1 0h1v1h-1zm1 0h1v1h-1zm1 0h1v1h-1zm1 0h1v1h-1zm1 0h1v1h-1zm1 0h1v1h-1zm16 0h1v1h-1zm1 0h8v1h-8zm8 0h1v1h-1zm1 0h1v1h-1zm1 0h1v1h-1zm10 0h1v1h-1zm1 0h1v1h-1zm1 0h7v1h-7zm7 0h1v1h-1zm1 0h1v1h-1zm1 0h1v1h-1zm6 0h1v1h-1zm1 0h5v1h-5zm5 0h1v1h-1zm1 0h1v1h-1zm1 0h1v1h-1zm7 0h1v1h-1zm1 0h1v1h-1zm1 0h1v1h-1zm1 0h1v1h-1zm1 0h1v1h-1zm1 0h1v1h-1zm1 0h1v1h-1zm1 0h1v1h-1zm1 0h1v1h-1zm1 0h1v1h-1zm1 0h1v1h-1zm1 0h1v1h-1zM55 75h1v1h-1zm1 0h1v1h-1zm11 0h1v1h-1zm1 0h1v1h-1zm1 0h1v1h-1zm34 0h1v1h-1zm1 0h1v1h-1zm1 0h5v1h-5zm5 0h1v1h-1zm1 0h1v1h-1zm1 0h1v1h-1zm1 0h1v1h-1zm4 0h1v1h-1zm1 0h1v1h-1zm1 0h1v1h-1zm1 0h1v1h-1zm1 0h1v1h-1zm1 0h2v8h-2zm2 0h1v8h-1zm1 0h1v1h-1zm1 0h1v1h-1zm1 0h1v1h-1zm9 0h1v1h-1zm1 0h1v1h-1zm1 0h1v1h-1zm1 0h1v1h-1zm1 0h1v1h-1zm1 0h1v1h-1zm1 0h1v1h-1zm1 0h1v1h-1zm1 0h2v5h-2zm2 0h1v5h-1zm1 0h1v1h-1zm1 0h1v1h-1zm1 0h1v1h-1zm1 0h1v1h-1zm1 0h1v1h-1zm1 0h1v1h-1zm1 0h1v1h-1zm1 0h1v1h-1zm13 0h1v1h-1zm1 0h1v1h-1zm1 0h8v1h-8zm8 0h1v1h-1zm1 0h1v1h-1zm1 0h1v1h-1zm10 0h1v1h-1zm1 0h1v1h-1zm1 0h7v1h-7zm7 0h1v1h-1zm1 0h1v1h-1zm1 0h1v1h-1zm6 0h1v1h-1zm1 0h1v1h-1zm1 0h4v1h-4zm4 0h1v1h-1zm1 0h1v1h-1zm1 0h1v1h-1zm1 0h1v1h-1zm4 0h1v1h-1zm1 0h1v1h-1zm1 0h1v1h-1zm1 0h1v1h-1zm1 0h1v1h-1zm1 0h1v1h-1zm1 0h3v6h-3zm3 0h1v8h-1zm1 0h1v1h-1zm1 0h1v1h-1zm1 0h1v1h-1zm1 0h1v1h-1zm1 0h1v1h-1zM54 76h1v1h-1zm1 0h1v1h-1zm1 0h1v1h-1zm1 0h9v3h-9zm9 0h1v1h-1zm1 0h1v1h-1zm1 0h1v1h-1zm35 0h1v33h-1zm1 0h1v33h-1zm1 0h6v33h-6zm6 0h1v33h-1zm1 0h1v1h-1zm1 0h1v1h-1zm3 0h1v1h-1zm1 0h1v1h-1zm1 0h1v1h-1zm1 0h1v1h-1z"/><path d="M120 76h5v7h-5zm5 0h1v3h-1zm1 0h1v1h-1zm1 0h1v1h-1zm8 0h1v1h-1zm1 0h1v1h-1zm1 0h1v1h-1zm1 0h1v1h-1zm1 0h1v1h-1zm1 0h11v4h-11zm11 0h1v6h-1zm1 0h1v1h-1zm1 0h1v1h-1zm1 0h1v1h-1zm1 0h1v1h-1zm1 0h1v1h-1zm11 0h1v21h-1zm1 0h1v21h-1zm1 0h8v23h-8zm8 0h1v33h-1zm1 0h1v20h-1zm1 0h1v20h-1zm10 0h1v22h-1zm1 0h1v23h-1zm1 0h7v29h-7zm7 0h1v33h-1zm1 0h1v33h-1zm1 0h1v33h-1zm6 0h1v44h-1zm1 0h1v44h-1zm1 0h5v44h-5zm5 0h1v44h-1zm1 0h1v1h-1zm1 0h1v1h-1zm1 0h1v1h-1zm2 0h1v1h-1zm1 0h1v1h-1zm1 0h1v1h-1zm1 0h1v1h-1zm1 0h9v4h-9zm9 0h1v31h-1zm1 0h1v1h-1zm1 0h1v1h-1zm1 0h1v1h-1zm1 0h1v1h-1zM54 77h1v1h-1zm1 0h1v1h-1zm1 0h9v16h-9zm10 0h1v1h-1zm1 0h1v1h-1zm1 0h1v1h-1zm44 0h1v1h-1zm1 0h1v1h-1zm2 0h1v1h-1zm1 0h1v1h-1zm1 0h1v1h-1zm1 0h1v1h-1z"/><path d="M119 77h6v6h-6zm7 0h1v1h-1zm1 0h1v1h-1zm6 0h1v1h-1zm1 0h1v1h-1zm1 0h1v1h-1zm1 0h1v1h-1zm1 0h1v1h-1zm1 0h15v3h-15zm15 0h1v11h-1zm1 0h1v1h-1zm1 0h1v1h-1zm1 0h1v1h-1zm1 0h1v1h-1zm57 0h1v43h-1zm1 0h1v1h-1zm1 0h1v1h-1zm1 0h1v1h-1zm1 0h1v1h-1zm1 0h1v1h-1zm1 0h1v1h-1zm1 0h11v3h-11zm11 0h1v29h-1zm1 0h1v1h-1zm1 0h1v1h-1zm1 0h1v1h-1zm1 0h1v1h-1zM54 78h1v1h-1zm1 0h1v1h-1zm11 0h1v1h-1zm1 0h1v1h-1zm45 0h1v1h-1zm1 0h1v1h-1zm1 0h1v1h-1zm1 0h1v1h-1zm1 0h1v1h-1z"/><path d="M117 78h8v5h-8zm9 0h1v1h-1zm1 0h1v1h-1zm5 0h1v1h-1zm1 0h1v1h-1zm1 0h1v1h-1zm1 0h1v1h-1zm1 0h19v2h-19zm19 0h1v28h-1zm1 0h1v1h-1zm1 0h1v1h-1zm1 0h1v1h-1zm1 0h1v1h-1zm56 0h1v1h-1zm1 0h1v1h-1zm1 0h1v1h-1zm1 0h1v1h-1zm1 0h14v2h-14zm14 0h1v28h-1zm1 0h1v1h-1zm1 0h1v1h-1zm1 0h1v1h-1zM54 79h1v1h-1zm1 0h1v1h-1zm10 0h1v1h-1zm1 0h1v1h-1zm1 0h1v1h-1zm45 0h1v30h-1zm1 0h1v1h-1zm1 0h1v1h-1zm1 0h1v1h-1z"/><path d="M116 79h9v4h-9zm9 0h1v1h-1zm1 0h1v1h-1zm1 0h1v1h-1zm4 0h1v1h-1zm1 0h1v1h-1zm1 0h1v1h-1zm1 0h22v1h-22zm22 0h1v27h-1zm1 0h1v1h-1zm1 0h1v1h-1zm1 0h1v1h-1zm56 0h1v1h-1zm1 0h1v1h-1zm1 0h1v1h-1zm1 0h16v1h-16zm16 0h1v26h-1zm1 0h1v1h-1zm1 0h1v1h-1zm1 0h1v1h-1zM53 80h1v1h-1zm1 0h1v1h-1zm1 0h9v10h-9zm10 0h1v1h-1zm1 0h1v1h-1zm1 0h1v1h-1zm46 0h1v1h-1zm1 0h1v1h-1zm1 0h1v1h-1zm10 0h1v1h-1zm1 0h1v1h-1zm4 0h1v1h-1zm1 0h1v1h-1zm1 0h1v1h-1z"/><path d="M133 80h24v1h-24zm24 0h1v25h-1zm1 0h1v1h-1zm1 0h1v1h-1zm1 0h1v1h-1zm55 0h20v1h-20zm20 0h1v24h-1zm1 0h1v1h-1zm1 0h1v1h-1zm1 0h1v1h-1zM53 81h1v1h-1zm1 0h1v1h-1zm11 0h1v1h-1zm1 0h1v1h-1zm47 0h1v1h-1zm1 0h1v1h-1zm1 0h9v2h-9zm10 0h1v1h-1zm1 0h1v1h-1zm4 0h1v1h-1zm1 0h1v1h-1zm1 0h11v1h-11zm11 0h1v1h-1zm1 0h1v1h-1zm1 0h1v1h-1zm1 0h1v1h-1zm1 0h1v1h-1z"/><path d="M148 81h10v1h-10zm10 0h1v23h-1zm1 0h1v1h-1zm1 0h1v1h-1zm1 0h1v1h-1zm54 0h7v1h-7zm7 0h14v1h-14zm14 0h1v21h-1zm1 0h1v1h-1zm1 0h1v1h-1zM53 82h1v1h-1zm1 0h1v1h-1zm11 0h1v1h-1zm1 0h1v1h-1zm47 0h11v1h-11zm12 0h1v1h-1zm1 0h1v1h-1zm3 0h1v1h-1zm1 0h1v1h-1zm1 0h1v1h-1zm1 0h8v1h-8zm8 0h1v1h-1zm1 0h1v1h-1zm1 0h1v1h-1zm1 0h1v1h-1zm1 0h1v1h-1zm1 0h1v1h-1zm1 0h1v1h-1zm1 0h1v1h-1zm1 0h1v1h-1zm1 0h1v1h-1zm1 0h1v1h-1z"/><path d="M151 82h8v1h-8zm8 0h1v21h-1zm1 0h1v1h-1zm1 0h1v1h-1zm1 0h1v1h-1zm53 0h3v1h-3zm3 0h1v1h-1zm1 0h1v1h-1zm1 0h1v1h-1zm1 0h1v1h-1zm1 0h1v1h-1zm1 0h1v1h-1zm1 0h1v1h-1zm1 0h1v1h-1zm1 0h1v1h-1zm1 0h9v1h-9zm10 0h1v1h-1zm1 0h1v1h-1zm1 0h1v1h-1zM53 83h1v1h-1zm1 0h1v1h-1zm11 0h1v1h-1zm1 0h1v1h-1zm47 0h11v1h-11zm11 0h1v1h-1zm1 0h1v1h-1zm1 0h1v1h-1zm3 0h1v1h-1zm1 0h1v1h-1zm1 0h8v3h-8zm8 0h1v1h-1zm1 0h1v1h-1zm1 0h1v1h-1zm1 0h1v1h-1zm1 0h1v1h-1zm1 0h1v1h-1zm3 0h1v1h-1zm1 0h1v1h-1zm1 0h1v1h-1zm1 0h1v1h-1zm1 0h1v1h-1z"/><path d="M152 83h8v1h-8zm8 0h1v18h-1zm1 0h1v1h-1zm1 0h1v1h-1zm53 0h2v1h-2zm2 0h1v1h-1zm1 0h1v1h-1zm1 0h1v1h-1zm1 0h1v1h-1zm1 0h1v1h-1zm1 0h1v1h-1zm2 0h1v1h-1zm1 0h1v1h-1zm1 0h1v1h-1zm1 0h1v1h-1zm1 0h9v1h-9zm9 0h1v17h-1zm1 0h1v1h-1zm1 0h1v1h-1zM53 84h1v1h-1zm1 0h1v2h-1zm11 0h1v1h-1zm1 0h1v1h-1zm14 0h1v1h-1zm1 0h1v1h-1zm1 0h14v1H82zm14 0h1v1h-1zm1 0h1v1h-1zm1 0h1v1h-1zm15 0h3v1h-3zm3 0h1v1h-1zm1 0h1v1h-1zm1 0h1v1h-1zm1 0h1v1h-1zm1 0h1v1h-1zm1 0h1v1h-1zm1 0h1v1h-1zm1 0h1v1h-1zm1 0h1v1h-1zm1 0h1v1h-1zm1 0h1v1h-1zm2 0h1v1h-1zm1 0h1v1h-1zm1 0h1v1h-1zm9 0h1v1h-1zm1 0h1v1h-1zm1 0h1v1h-1zm8 0h1v1h-1zm1 0h1v1h-1zm1 0h1v1h-1zm1 0h8v1h-8zm9 0h1v1h-1zm1 0h1v1h-1zm1 0h1v1h-1zm52 0h1v36h-1zm1 0h1v1h-1zm1 0h1v1h-1zm1 0h1v1h-1zm1 0h1v1h-1zm7 0h1v1h-1zm1 0h1v1h-1zm1 0h1v1h-1zm1 0h8v1h-8zm9 0h1v1h-1zm1 0h1v1h-1zM53 85h1v1h-1zm12 0h1v1h-1zm1 0h1v1h-1zm14 0h1v1h-1zm1 0h1v1h-1zm1 0h14v1H82zm14 0h1v1h-1zm1 0h1v1h-1zm1 0h1v1h-1zm15 0h1v24h-1zm1 0h1v1h-1zm1 0h1v1h-1zm1 0h1v1h-1zm1 0h1v1h-1zm1 0h1v1h-1zm1 0h1v1h-1zm1 0h1v1h-1zm2 0h1v1h-1zm1 0h1v1h-1zm1 0h1v1h-1zm1 0h1v1h-1zm3 0h1v1h-1zm1 0h1v1h-1zm1 0h8v15h-8zm9 0h1v1h-1zm1 0h1v1h-1zm10 0h1v1h-1zm1 0h1v1h-1zm1 0h1v1h-1z"/><path d="M154 85h7v16h-7zm7 0h1v14h-1zm1 0h1v1h-1zm1 0h1v1h-1zm53 0h1v1h-1zm1 0h1v1h-1zm1 0h1v1h-1zm9 0h1v1h-1zm1 0h1v1h-1zm1 0h9v1h-9zm9 0h1v13h-1zm1 0h1v1h-1zm1 0h1v1h-1zM53 86h1v1h-1zm1 0h1v1h-1zm11 0h1v1h-1zm1 0h1v1h-1zm14 0h1v4h-1zm1 0h1v4h-1zm1 0h14v5H82zm14 0h1v19h-1zm1 0h1v18h-1zm1 0h1v18h-1zm16 0h1v1h-1zm1 0h1v1h-1zm1 0h1v1h-1zm1 0h1v1h-1zm11 0h1v1h-1zm1 0h1v1h-1zm9 0h1v1h-1zm1 0h1v1h-1zm1 0h1v1h-1zm11 0h1v1h-1zm1 0h1v1h-1zm10 0h1v1h-1zm1 0h1v1h-1zm53 0h1v1h-1zm1 0h1v1h-1zm11 0h1v1h-1zm1 0h1v1h-1zm1 0h8v14h-8zm9 0h1v1h-1zm1 0h1v1h-1zM53 87h1v1h-1zm1 0h1v1h-1zm11 0h1v1h-1zm1 0h1v1h-1zm48 0h1v1h-1zm1 0h1v1h-1zm1 0h1v1h-1zm11 0h1v1h-1zm1 0h1v1h-1zm1 0h1v1h-1zm9 0h1v1h-1zm1 0h1v1h-1zm12 0h1v1h-1zm1 0h1v1h-1zm10 0h1v1h-1zm1 0h1v1h-1zm53 0h1v12h-1zm1 0h1v12h-1zm11 0h1v1h-1zm1 0h1v1h-1zm10 0h1v1h-1zm1 0h1v1h-1zM53 88h1v1h-1zm1 0h1v1h-1zm11 0h1v1h-1zm1 0h1v1h-1zm48 0h1v1h-1zm1 0h1v1h-1zm12 0h1v1h-1zm1 0h1v1h-1zm1 0h8v9h-8zm9 0h1v1h-1zm1 0h1v1h-1zm12 0h1v1h-1zm1 0h1v1h-1z"/><path d="M153 88h8v1h-8zm9 0h1v1h-1zm1 0h1v1h-1zm65 0h1v1h-1zm1 0h1v1h-1zm10 0h1v1h-1zm1 0h1v1h-1zM53 89h1v1h-1zm1 0h1v1h-1zm11 0h1v1h-1zm1 0h1v1h-1zm48 0h1v1h-1zm1 0h1v20h-1zm12 0h1v1h-1zm1 0h1v1h-1zm10 0h1v1h-1zm1 0h1v1h-1zm13 0h1v1h-1zm1 0h1v1h-1zm9 0h1v1h-1zm1 0h1v1h-1zm1 0h1v1h-1zm64 0h1v1h-1zm1 0h1v1h-1zm10 0h1v1h-1zm1 0h1v1h-1zM53 90h1v1h-1zm1 0h1v1h-1zm1 0h9v1h-9zm10 0h1v1h-1zm1 0h1v1h-1zm14 0h1v1h-1zm1 0h1v1h-1zm33 0h1v19h-1zm13 0h1v1h-1zm1 0h1v1h-1zm10 0h1v1h-1zm1 0h1v1h-1zm13 0h1v1h-1zm1 0h1v1h-1zm9 0h1v5h-1zm1 0h1v1h-1zm1 0h1v1h-1zm64 0h1v1h-1zm1 0h1v1h-1zm10 0h1v1h-1zm1 0h1v1h-1zM54 91h1v1h-1zm1 0h1v1h-1zm10 0h1v1h-1zm1 0h1v1h-1zm1 0h1v1h-1zm13 0h1v1h-1zm1 0h1v1h-1zm1 0h14v1H82zm45 0h1v1h-1zm1 0h1v1h-1zm10 0h1v1h-1zm1 0h1v1h-1zm13 0h1v1h-1zm1 0h1v1h-1zm10 0h1v1h-1zm1 0h1v1h-1zm64 0h1v2h-1zm1 0h1v1h-1zm10 0h1v1h-1zm1 0h1v1h-1zM54 92h1v1h-1zm1 0h1v1h-1zm10 0h1v13h-1zm1 0h1v1h-1zm1 0h1v1h-1zm13 0h1v1h-1zm1 0h1v1h-1zm1 0h1v1h-1zm1 0h3v1h-3zm3 0h1v1h-1zm1 0h1v1h-1zm1 0h1v1h-1zm1 0h7v13h-7zm38 0h1v1h-1zm1 0h1v1h-1zm10 0h1v1h-1zm1 0h1v1h-1zm13 0h1v1h-1zm1 0h1v1h-1zm10 0h1v1h-1zm1 0h1v1h-1zm65 0h1v1h-1zm10 0h1v1h-1zm1 0h1v1h-1zM54 93h1v1h-1zm1 0h1v1h-1zm1 0h9v1h-9zm10 0h1v1h-1zm1 0h1v1h-1zm14 0h1v1h-1zm1 0h1v1h-1zm1 0h3v1h-3zm3 0h1v1h-1zm1 0h1v1h-1zm1 0h1v1h-1zm39 0h1v1h-1zm1 0h1v1h-1zm10 0h1v1h-1zm1 0h1v1h-1zm13 0h1v1h-1zm1 0h1v1h-1zm10 0h1v1h-1zm1 0h1v1h-1zm64 0h1v1h-1zm1 0h1v1h-1zm10 0h1v1h-1zm1 0h1v1h-1zM54 94h1v1h-1zm1 0h1v1h-1zm1 0h1v1h-1z"/><path d="M57 94h9v2h-9zm9 0h1v11h-1zm1 0h1v1h-1zm1 0h1v1h-1zm19 0h1v5h-1zm1 0h1v5h-1zm39 0h1v1h-1zm1 0h1v1h-1zm10 0h1v1h-1zm1 0h1v1h-1zm13 0h1v1h-1zm1 0h1v1h-1zm10 0h1v1h-1zm1 0h1v1h-1zm64 0h1v1h-1zm1 0h1v1h-1zm10 0h1v1h-1zm1 0h1v1h-1zM55 95h1v1h-1zm1 0h1v1h-1zm11 0h1v1h-1zm1 0h1v1h-1zm59 0h1v1h-1zm1 0h1v1h-1zm10 0h1v1h-1zm1 0h1v1h-1zm13 0h1v1h-1zm1 0h1v1h-1zm9 0h1v1h-1zm1 0h1v1h-1zm1 0h1v1h-1zm64 0h1v1h-1zm1 0h1v1h-1zm10 0h1v1h-1zm1 0h1v1h-1zM55 96h1v1h-1zm1 0h1v1h-1zm1 0h9v1h-9zm10 0h1v1h-1zm1 0h1v1h-1zm1 0h1v1h-1zm58 0h1v1h-1zm1 0h1v1h-1zm10 0h1v1h-1zm1 0h1v1h-1zm13 0h1v1h-1zm1 0h1v1h-1zm9 0h1v1h-1zm1 0h1v1h-1zm15 0h1v1h-1zm1 0h1v1h-1zm49 0h1v1h-1zm1 0h1v1h-1zm10 0h1v1h-1zm1 0h1v1h-1zM56 97h1v1h-1zm1 0h1v1h-1z"/><path d="M58 97h9v1h-9zm9 0h1v9h-1zm1 0h1v1h-1zm1 0h1v1h-1zm1 0h1v1h-1zm57 0h1v1h-1zm1 0h1v1h-1zm1 0h8v1h-8zm9 0h1v1h-1zm1 0h1v1h-1zm12 0h1v1h-1zm1 0h1v1h-1zm1 0h8v4h-8zm9 0h1v1h-1zm1 0h1v1h-1zm4 0h1v1h-1zm1 0h1v1h-1zm10 0h1v1h-1zm1 0h1v1h-1zm49 0h1v1h-1zm1 0h1v1h-1zm10 0h1v1h-1zm1 0h1v1h-1zM56 98h1v1h-1zm1 0h1v1h-1z"/><path d="M58 98h10v1H58zm10 0h1v9h-1zm1 0h1v1h-1zm1 0h1v1h-1zm1 0h1v1h-1zm56 0h1v1h-1zm1 0h1v1h-1zm1 0h1v1h-1zm9 0h1v1h-1zm1 0h1v1h-1zm1 0h1v1h-1zm11 0h1v1h-1zm1 0h1v1h-1zm10 0h1v1h-1zm1 0h1v1h-1zm4 0h1v1h-1zm1 0h1v1h-1zm10 0h1v1h-1zm1 0h1v1h-1zm10 0h1v1h-1zm39 0h1v1h-1zm1 0h1v1h-1zm9 0h1v1h-1zm1 0h1v1h-1zm1 0h1v1h-1zM56 99h1v1h-1zm1 0h1v1h-1zm1 0h1v1h-1z"/><path d="M59 99h10v1H59zm10 0h1v8h-1zm1 0h1v1h-1zm1 0h1v1h-1zm1 0h1v1h-1zm1 0h1v1h-1zm14 0h1v1h-1zm1 0h1v1h-1zm40 0h1v1h-1zm1 0h1v1h-1zm9 0h1v9h-1zm1 0h1v1h-1zm1 0h1v1h-1zm11 0h1v1h-1zm1 0h1v1h-1zm9 0h1v1h-1zm1 0h1v1h-1zm1 0h1v1h-1zm4 0h1v1h-1zm1 0h1v1h-1zm1 0h8v1h-8zm9 0h1v1h-1zm1 0h1v1h-1zm10 0h1v1h-1zm1 0h1v1h-1zm26 0h1v1h-1zm1 0h1v1h-1zm10 0h1v1h-1zm1 0h1v1h-1zm1 0h8v3h-8zm9 0h1v1h-1zm1 0h1v1h-1zm-182 1h1v1h-1zm1 0h1v1h-1zm1 0h1v1h-1z"/><path d="M60 100h10v1H60zm10 0h1v7h-1zm1 0h1v1h-1zm1 0h1v1h-1zm1 0h1v1h-1zm1 0h1v1h-1zm1 0h1v1h-1zm10 0h1v1h-1zm1 0h1v1h-1zm1 0h1v1h-1zm1 0h1v1h-1zm40 0h1v1h-1zm1 0h1v1h-1zm1 0h8v1h-8zm9 0h1v1h-1zm1 0h1v1h-1zm1 0h1v1h-1zm9 0h1v1h-1zm1 0h1v1h-1zm1 0h1v1h-1zm9 0h1v1h-1zm1 0h1v1h-1zm1 0h1v1h-1zm5 0h1v1h-1zm1 0h1v1h-1zm1 0h7v2h-7zm8 0h1v1h-1zm1 0h1v1h-1zm1 0h1v1h-1zm8 0h1v1h-1zm1 0h1v1h-1zm1 0h1v1h-1zm26 0h1v1h-1zm1 0h1v1h-1zm9 0h1v1h-1zm1 0h1v1h-1zm1 0h1v1h-1zm9 0h1v1h-1zm1 0h1v1h-1zm1 0h1v1h-1zm-181 1h1v1h-1zm1 0h1v1h-1zm1 0h1v1h-1z"/><path d="M61 101h11v1H61zm11 0h1v7h-1zm1 0h1v1h-1zm1 0h1v1h-1zm1 0h1v1h-1zm1 0h1v1h-1zm1 0h1v1h-1zm1 0h1v1h-1zm1 0h1v1h-1zm1 0h1v1h-1zm1 0h1v1h-1zm1 0h1v1h-1zm1 0h1v1h-1zm1 0h1v1h-1zm1 0h1v1h-1zm1 0h1v1h-1zm1 0h1v1h-1zm1 0h1v1h-1zm40 0h1v1h-1zm1 0h1v1h-1zm1 0h1v1h-1zm1 0h8v1h-8zm8 0h1v7h-1zm1 0h1v1h-1zm1 0h1v1h-1zm1 0h1v1h-1zm7 0h1v1h-1zm1 0h1v1h-1zm1 0h1v1h-1zm1 0h8v2h-8zm8 0h1v1h-1zm1 0h1v1h-1zm1 0h1v1h-1zm6 0h1v1h-1zm1 0h1v1h-1zm9 0h1v8h-1zm1 0h1v1h-1zm1 0h1v1h-1zm1 0h1v1h-1zm5 0h1v1h-1zm1 0h1v1h-1zm1 0h1v1h-1zm1 0h1v1h-1zm1 0h8v4h-8zm26 0h1v1h-1zm1 0h1v1h-1zm1 0h1v1h-1zm1 0h1v1h-1zm6 0h1v1h-1zm1 0h1v1h-1zm1 0h1v1h-1zm1 0h8v3h-8zm9 0h1v1h-1zm1 0h1v1h-1zm1 0h1v1h-1zm-180 1h1v1h-1zm1 0h1v1h-1z"/><path d="M61 102h13v1H61zm13 0h1v7h-1zm1 0h1v1h-1zm1 0h1v1h-1zm1 0h1v1h-1zm1 0h1v1h-1zm1 0h1v1h-1zm1 0h1v1h-1zm1 0h1v1h-1zm1 0h1v1h-1zm1 0h1v1h-1zm1 0h1v1h-1zm1 0h1v1h-1zm1 0h10v3H86zm43 0h1v1h-1zm1 0h1v1h-1zm1 0h9v1h-9zm9 0h1v6h-1zm1 0h1v1h-1zm1 0h1v1h-1zm1 0h1v1h-1zm1 0h1v1h-1zm1 0h1v1h-1zm1 0h1v1h-1zm1 0h1v1h-1zm1 0h1v1h-1zm1 0h1v1h-1zm1 0h1v1h-1zm1 0h8v2h-8zm9 0h1v1h-1zm1 0h1v1h-1zm1 0h1v1h-1zm6 0h1v1h-1zm1 0h1v1h-1zm1 0h8v1h-8zm9 0h1v1h-1zm1 0h1v1h-1zm1 0h1v1h-1zm1 0h1v1h-1zm1 0h1v1h-1zm1 0h1v1h-1zm1 0h1v1h-1zm1 0h1v1h-1zm1 0h1v1h-1zm1 0h1v1h-1zm1 0h9v3h-9zm27 0h1v4h-1zm1 0h1v1h-1zm1 0h1v1h-1zm1 0h1v1h-1zm1 0h1v1h-1zm1 0h2v1h-2zm2 0h1v1h-1zm1 0h1v1h-1zm1 0h1v1h-1zm1 0h1v1h-1zm1 0h9v2h-9zm9 0h1v1h-1zm1 0h1v1h-1zm1 0h1v1h-1zm-179 1h1v1h-1zm1 0h1v1h-1zm1 0h1v1h-1zm1 0h1v1h-1z"/><path d="M63 103h33v1H63zm66 0h1v1h-1zm1 0h1v1h-1zm1 0h1v1h-1zm1 0h9v1h-9zm9 0h1v6h-1zm1 0h1v1h-1zm1 0h1v1h-1zm1 0h1v1h-1zm1 0h1v1h-1zm1 0h1v1h-1zm1 0h1v1h-1zm1 0h1v1h-1zm1 0h1v1h-1zm1 0h9v1h-9zm9 0h1v1h-1zm1 0h1v1h-1zm1 0h1v1h-1zm7 0h1v1h-1zm1 0h1v1h-1zm1 0h1v1h-1zm1 0h9v2h-9zm9 0h1v6h-1zm1 0h1v1h-1zm1 0h1v1h-1zm1 0h1v1h-1zm1 0h1v1h-1zm1 0h1v1h-1zm1 0h1v1h-1zm1 0h11v2h-11zm30 0h1v3h-1zm1 0h1v4h-1zm1 0h1v1h-1zm1 0h1v1h-1zm1 0h2v1h-2zm2 0h1v1h-1zm1 0h1v1h-1zm1 0h1v1h-1zm1 0h9v2h-9zm10 0h1v1h-1zm1 0h1v1h-1zm1 0h1v1h-1zm-178 1h1v1h-1zm1 0h1v1h-1zm1 0h1v1h-1zm1 0h1v1h-1zm1 0h32v1H64zm33 0h1v1h-1zm1 0h1v1h-1zm32 0h1v1h-1zm1 0h1v1h-1zm1 0h1v1h-1z"/><path d="M133 104h25v1h-25zm25 0h1v1h-1zm1 0h1v1h-1zm1 0h1v1h-1zm1 0h1v1h-1zm8 0h1v1h-1zm1 0h1v1h-1zm11 0h17v1h-17zm38 0h16v1h-16zm16 0h1v1h-1zm1 0h1v1h-1zm1 0h1v1h-1zm-176 1h1v1h-1zm1 0h1v1h-1zm1 0h1v1h-1zm1 0h1v1h-1zm1 0h31v1H65zm31 0h1v1h-1zm1 0h1v1h-1zm1 0h1v1h-1zm33 0h1v1h-1zm1 0h1v1h-1zm1 0h1v1h-1zm1 0h23v1h-23zm23 0h1v1h-1zm1 0h1v1h-1zm1 0h1v1h-1zm1 0h1v1h-1zm9 0h1v1h-1zm1 0h1v1h-1zm1 0h27v1h-27zm48 0h15v1h-15zm15 0h1v1h-1zm1 0h1v1h-1zm1 0h1v1h-1zm1 0h1v1h-1zm-175 1h1v1h-1zm1 0h1v1h-1zm1 0h1v1h-1zm1 0h1v1h-1zm1 0h1v1h-1zm1 0h27v1H67zm27 0h1v1h-1zm1 0h1v1h-1zm1 0h1v1h-1zm1 0h1v1h-1zm1 0h1v1h-1zm33 0h1v1h-1zm1 0h1v1h-1zm1 0h1v1h-1zm1 0h1v1h-1zm1 0h21v1h-21zm21 0h1v1h-1zm1 0h1v1h-1zm1 0h1v1h-1zm1 0h1v1h-1zm10 0h1v1h-1zm1 0h1v1h-1zm1 0h1v1h-1zm1 0h16v1h-16zm16 0h1v1h-1zm1 0h1v1h-1zm1 0h1v1h-1zm1 0h1v1h-1zm1 0h6v2h-6zm24 0h17v1h-17zm17 0h1v1h-1zm1 0h1v1h-1zm1 0h1v1h-1zm1 0h1v1h-1zm-172 1h1v1h-1zm1 0h1v1h-1zm1 0h1v1h-1zm1 0h1v1h-1zm1 0h24v1H68zm24 0h1v1h-1zm1 0h1v1h-1zm1 0h1v1h-1zm1 0h1v1h-1zm1 0h1v1h-1zm1 0h1v1h-1zm36 0h1v1h-1zm1 0h1v1h-1zm1 0h1v1h-1zm1 0h1v1h-1zm1 0h17v1h-17zm17 0h1v1h-1zm1 0h1v1h-1zm1 0h1v1h-1zm1 0h1v1h-1zm1 0h1v1h-1zm12 0h1v1h-1zm1 0h1v1h-1zm1 0h1v1h-1zm1 0h14v1h-14zm14 0h1v1h-1zm1 0h1v1h-1zm1 0h1v1h-1zm1 0h1v1h-1zm1 0h1v1h-1zm25 0h1v1h-1zm1 0h1v1h-1zm1 0h13v1h-13zm13 0h1v1h-1zm1 0h1v1h-1zm1 0h1v1h-1zm1 0h1v1h-1zm1 0h1v1h-1zm-169 1h1v1h-1zm1 0h1v1h-1zm1 0h1v1h-1zm1 0h1v1h-1zm1 0h1v1h-1zm1 0h19v1H71zm19 0h1v1h-1zm1 0h1v1h-1zm1 0h1v1h-1zm1 0h1v1h-1zm1 0h1v1h-1zm1 0h1v1h-1zm39 0h1v1h-1zm1 0h1v1h-1zm1 0h1v1h-1zm1 0h1v1h-1zm1 0h15v1h-15zm15 0h1v1h-1zm1 0h1v1h-1zm1 0h1v1h-1zm1 0h1v1h-1zm1 0h1v1h-1zm14 0h1v1h-1zm1 0h1v1h-1zm1 0h1v1h-1zm1 0h1v1h-1zm1 0h10v1h-10zm10 0h1v1h-1zm1 0h1v1h-1zm1 0h1v1h-1zm1 0h1v1h-1zm1 0h1v1h-1zm1 0h1v1h-1zm1 0h1v1h-1zm1 0h6v1h-6zm24 0h1v1h-1zm1 0h1v1h-1zm1 0h1v1h-1zm1 0h11v1h-11zm11 0h1v1h-1zm1 0h1v1h-1zm1 0h1v1h-1zm1 0h1v1h-1zm1 0h1v1h-1zm-167 1h1v1h-1zm1 0h1v1h-1zm1 0h1v1h-1zm1 0h1v1h-1zm1 0h1v1h-1zm1 0h1v1h-1zm1 0h1v1h-1zm1 0h12v1H74zm12 0h1v1h-1zm1 0h1v1h-1zm1 0h1v1h-1zm1 0h1v1h-1zm1 0h1v1h-1zm1 0h1v1h-1zm1 0h1v1h-1zm1 0h1v1h-1zm10 0h1v1h-1zm1 0h1v1h-1zm1 0h8v1h-8zm8 0h1v1h-1zm1 0h1v1h-1zm1 0h1v1h-1zm20 0h1v1h-1zm1 0h1v1h-1zm1 0h1v1h-1zm1 0h1v1h-1zm1 0h1v1h-1zm1 0h1v1h-1zm1 0h9v1h-9zm9 0h1v1h-1zm1 0h1v1h-1zm1 0h1v1h-1zm1 0h1v1h-1zm1 0h1v1h-1zm1 0h1v1h-1zm17 0h1v1h-1zm1 0h1v1h-1zm1 0h1v1h-1zm1 0h1v1h-1zm1 0h1v1h-1zm1 0h6v1h-6zm6 0h1v1h-1zm1 0h1v1h-1zm1 0h1v1h-1zm1 0h1v1h-1zm1 0h1v1h-1zm1 0h1v1h-1zm2 0h1v1h-1zm1 0h1v1h-1zm1 0h1v1h-1zm1 0h5v1h-5zm5 0h1v1h-1zm1 0h1v1h-1zm1 0h1v1h-1zm16 0h1v11h-1zm1 0h1v1h-1zm1 0h1v1h-1zm1 0h1v1h-1zm1 0h1v1h-1zm1 0h7v1h-7zm7 0h1v1h-1zm1 0h1v1h-1zm1 0h1v1h-1zm1 0h1v1h-1zm1 0h1v1h-1zm1 0h1v1h-1zm-163 1h1v1h-1zm1 0h1v1h-1zm1 0h1v1h-1zm1 0h1v1h-1zm1 0h1v1h-1zm1 0h1v1h-1zm1 0h1v1h-1zm1 0h1v1h-1zm1 0h1v1h-1zm1 0h1v1h-1zm1 0h1v1h-1zm1 0h1v1h-1zm1 0h1v1h-1zm1 0h1v1h-1zm1 0h1v1h-1zm1 0h1v1h-1zm1 0h1v1h-1zm1 0h1v1h-1zm1 0h1v1h-1zm1 0h1v1h-1zm1 0h1v1h-1zm13 0h1v1h-1zm1 0h1v1h-1zm1 0h8v1h-8zm8 0h1v1h-1zm1 0h1v1h-1zm1 0h1v1h-1zm22 0h1v1h-1zm1 0h1v1h-1zm1 0h1v1h-1zm1 0h1v1h-1zm1 0h1v1h-1zm1 0h1v1h-1zm1 0h1v1h-1zm1 0h1v1h-1zm1 0h1v1h-1zm1 0h1v1h-1zm1 0h1v1h-1zm1 0h1v1h-1zm1 0h1v1h-1zm1 0h1v1h-1zm1 0h1v1h-1zm1 0h1v1h-1zm1 0h1v1h-1zm21 0h1v1h-1zm1 0h1v1h-1zm1 0h1v1h-1zm1 0h1v1h-1zm1 0h1v1h-1zm1 0h1v1h-1zm1 0h1v1h-1zm1 0h1v1h-1zm1 0h1v1h-1zm1 0h1v1h-1zm1 0h1v1h-1zm1 0h1v1h-1zm1 0h1v1h-1zm5 0h1v1h-1zm1 0h1v1h-1zm1 0h1v1h-1zm1 0h1v1h-1zm1 0h3v1h-3zm3 0h1v1h-1zm1 0h1v1h-1zm1 0h1v1h-1zm17 0h1v10h-1zm1 0h1v1h-1zm1 0h1v1h-1zm1 0h1v1h-1zm1 0h1v1h-1zm1 0h1v1h-1zm1 0h1v1h-1zm1 0h1v1h-1zm1 0h1v1h-1zm1 0h1v1h-1zm1 0h1v1h-1zm1 0h1v1h-1zm1 0h1v1h-1zm1 0h1v1h-1zm1 0h1v1h-1zm-157 1h1v1h-1zm1 0h1v1h-1zm1 0h1v1h-1zm1 0h1v1h-1zm1 0h1v1h-1zm1 0h1v1h-1zm1 0h1v1h-1zm1 0h1v1h-1zm1 0h1v1h-1zm1 0h1v1h-1zm1 0h1v1h-1zm1 0h1v1h-1zm1 0h1v1h-1zm18 0h9v1h-9zm9 0h1v1h-1zm28 0h1v1h-1zm1 0h1v1h-1zm1 0h1v1h-1zm1 0h1v1h-1zm1 0h1v1h-1zm1 0h1v1h-1zm1 0h1v1h-1zm1 0h1v1h-1zm1 0h1v1h-1zm1 0h1v1h-1zm26 0h1v1h-1zm1 0h1v1h-1zm1 0h1v1h-1zm1 0h1v1h-1zm1 0h1v1h-1zm1 0h1v1h-1zm1 0h1v1h-1zm1 0h1v1h-1zm1 0h1v1h-1zm9 0h6v1h-6zm6 0h1v1h-1zm22 0h1v1h-1zm1 0h1v1h-1zm1 0h1v1h-1zm1 0h1v1h-1zm1 0h1v1h-1zm1 0h1v1h-1zm1 0h1v1h-1zm1 0h1v1h-1zm-22 9h1v1h-1zm1 0h1v1h-1zm1 0h7v1h-7zm7 0h1v1h-1zm1 0h1v1h-1zm1 0h1v1h-1zm-11 1h1v1h-1zm1 0h1v1h-1zm1 0h7v1h-7zm7 0h1v1h-1zm1 0h1v1h-1zm1 0h1v1h-1zm-10 1h9v1h-9zm9 0h1v1h-1z"/></g><path fill="#8e9ca5" d="M72 62h1v1h-1z"/><path fill="#525052" d="M97 69h1v1h-1z"/><path fill="#a4a6a9" d="M58 70h1v1h-1z"/><path fill="#4d7993" d="M84 59h1v1h-1z"/><path fill="#216286" d="M71 61h1v1h-1z"/><path fill="#919ea6" d="M71 62h1v1h-1z"/><path d="M12 67h1v1h-1zm1 0h1v1h-1zm1 0h44v1H14zm44 0h1v1h-1zm42 0h184v1H100zm184 0h1v1h-1zm1 0h1v1h-1zM12 68h1v1h-1zm1 0h1v1h-1zm1 0h44v1H14zm44 0h1v1h-1zm41 0h185v1H99zm185 0h1v1h-1zm1 0h1v1h-1zm1 0h1v1h-1zM12 69h1v1h-1zm1 0h1v1h-1zm1 0h43v1H14zm43 0h1v1h-1zm41 0h186v1H98zm186 0h1v1h-1zm1 0h1v1h-1zm1 0h1v1h-1zM13 70h43v1H13zm43 0h1v1h-1zm42 0h186v1H98zm186 0h1v1h-1zm1 0h1v1h-1z" fill="#231f20"/><path fill="#a5a6a9" d="M96 69h1v1h-1z"/><path fill="#706f71" d="M97 70h1v1h-1z"/></svg>