<svg xmlns="http://www.w3.org/2000/svg" role="img" viewBox="4.90 6.65 161.07 61.07"><title>Laminas logo</title><path fill="#013755" d="M56.912 19.227c.26-.968.889-1.301 1.818-1.052.971.26 1.391.872 1.13 1.842L48.195 63.548c-.258.97-.887 1.3-1.858 1.04-.969-.26-1.348-.86-1.089-1.83l11.664-43.531z"/><path fill="#013755" d="M81.674 19.227c.261-.97.89-1.3 1.82-1.05.969.26 1.389.871 1.128 1.84L72.958 63.548c-.26.97-.888 1.3-1.858 1.038-.969-.259-1.35-.858-1.09-1.828l11.664-43.531z"/><path d="M8 12.973c0-1.004.482-1.485 1.445-1.485 1.003 0 1.485.481 1.485 1.485v25.373h12.887c1.004 0 1.485.482 1.485 1.445 0 1.004-.481 1.485-1.485 1.485H9.967C8.643 41.276 8 40.514 8 38.988V12.973zm28.117 5.46c5.339 0 8.149 3.211 8.149 7.266v14.414c0 .763-.522 1.485-1.485 1.485s-1.445-.683-1.485-1.445-.04-1.004-.04-1.365c-1.727 1.847-4.296 2.811-6.865 2.811-3.934 0-7.708-2.208-7.708-6.706 0-4.697 4.296-7.106 8.511-7.106 2.289 0 4.737.683 6.062 2.007V25.98c0-2.77-2.249-4.617-6.022-4.617-2.61 0-4.296.963-5.541.963-.682 0-1.365-.321-1.365-1.245 0-.522.441-1.164 1.124-1.445 1.767-.722 3.895-1.203 6.665-1.203zm-1.204 20.354c3.051 0 6.303-1.605 6.303-4.376 0-2.449-3.051-3.854-6.022-3.854-2.81 0-5.5 1.285-5.5 4.095-.001 2.891 2.489 4.135 5.219 4.135zm57.94-29.026c1.124 0 2.007.883 2.007 2.007s-.883 2.007-2.007 2.007-2.007-.883-2.007-2.007.883-2.007 2.007-2.007zm-1.406 10.197c0-1.004.521-1.485 1.485-1.485 1.004 0 1.565.481 1.565 1.485v19.833c0 1.004-.521 1.485-1.525 1.485s-1.525-.481-1.525-1.485V19.958zm10.625.281c0-1.043.481-1.565 1.445-1.565 1.003 0 1.484.522 1.484 1.565v1.526c1.325-2.409 3.654-3.493 6.022-3.493 3.854 0 7.828 2.89 7.828 7.667v13.892c0 .964-.481 1.445-1.485 1.445-.963 0-1.445-.481-1.445-1.445V27.224c0-4.055-2.689-6.021-5.379-6.021-2.771 0-5.541 2.047-5.541 6.021v12.607c0 .964-.481 1.445-1.484 1.445-.964 0-1.445-.481-1.445-1.445V20.239zm31.112-1.806c5.34 0 8.15 3.211 8.15 7.266v14.414c0 .763-.522 1.485-1.486 1.485-.963 0-1.445-.683-1.484-1.445-.041-.763-.041-1.004-.041-1.365-1.727 1.847-4.295 2.811-6.865 2.811-3.934 0-7.707-2.208-7.707-6.706 0-4.697 4.295-7.106 8.51-7.106 2.289 0 4.738.683 6.062 2.007V25.98c0-2.77-2.248-4.617-6.021-4.617-2.609 0-4.296.963-5.54.963-.683 0-1.365-.321-1.365-1.245 0-.522.441-1.164 1.124-1.445 1.765-.722 3.893-1.203 6.663-1.203zm-1.205 20.354c3.052 0 6.303-1.605 6.303-4.376 0-2.449-3.051-3.854-6.022-3.854-2.81 0-5.499 1.285-5.499 4.095 0 2.891 2.489 4.135 5.218 4.135zm22.71-.04c2.168 0 4.938-.884 4.938-3.494 0-1.967-2.488-3.091-4.617-3.854-3.652-1.325-8.068-3.091-8.068-6.503 0-4.537 3.813-6.544 8.068-6.544 2.088 0 4.297.401 6.223 1.445.522.281.764.843.764 1.405 0 .923-.603 1.405-1.365 1.405-.281 0-.602-.08-.883-.241-.964-.562-2.932-1.044-4.818-1.044-2.368 0-4.816.843-4.816 3.212 0 1.847 3.131 2.81 6.142 4.055 3.292 1.365 6.664 2.77 6.664 6.383 0 4.939-4.335 6.745-8.31 6.745-2.891 0-5.219-.964-7.428-2.368-.361-.241-.521-.723-.521-1.205 0-1.123.562-1.646 1.324-1.646.361 0 .764.161 1.164.441 1.405.924 3.291 1.808 5.539 1.808z" fill="#013755"/><path fill="#013755" d="M67.599 24.514c.261-.969.89-1.3 1.819-1.05.971.26 1.389.871 1.129 1.84l-5.135 19.163c-.26.97-.889 1.3-1.858 1.039-.97-.26-1.349-.859-1.089-1.83l5.134-19.162z"/></svg>