<svg xmlns="http://www.w3.org/2000/svg" role="img" viewBox="-53.95 -58.95 3065.40 622.90"><title>Leading Point (member) logo</title><path fill="#003EE3" d="M0 0 C0.33 0 0.66 0 1 0 C1.95949489 35.72175014 2.13863299 71.43017678 2.10353777 107.16194957 C2.09620466 114.8414703 2.09487173 122.52098928 2.09374207 130.20051301 C2.09158016 143.88367848 2.08499991 157.56683783 2.07543945 171.25 C2.06618975 184.50260387 2.05914645 197.75520604 2.05493164 211.0078125 C2.05453756 212.24343455 2.05453756 212.24343455 2.05413551 213.50401866 C2.05283 217.63856815 2.05156641 221.77311765 2.05032361 225.90766716 C2.04004059 259.93844921 2.0225029 293.96922384 2 328 C1.27522461 328.41773682 0.55044922 328.83547363 -0.19628906 329.26586914 C-2.94740768 330.85172315 -5.69836382 332.43785856 -8.44921875 334.02416992 C-10.20040015 335.03390074 -11.95175998 336.04332207 -13.703125 337.05273438 C-21.14838437 341.3464493 -28.58021766 345.66241934 -36 350 C-45.41054214 355.49836448 -54.84469942 360.95448838 -64.2890625 366.39453125 C-71.5395149 370.57349128 -78.77488269 374.77740506 -86 379 C-95.4099033 384.49945536 -104.84470563 389.95449196 -114.2890625 395.39453125 C-121.5395149 399.57349128 -128.77488269 403.77740506 -136 408 C-145.4099033 413.49945536 -154.84470563 418.95449196 -164.2890625 424.39453125 C-171.5395149 428.57349128 -178.77488269 432.77740506 -186 437 C-195.4099033 442.49945536 -204.84470563 447.95449196 -214.2890625 453.39453125 C-222.5160493 458.13633868 -230.72124091 462.91450638 -238.91918945 467.70629883 C-247.77216963 472.87683862 -256.65131345 478.00136815 -265.53710938 483.11523438 C-267.08688477 484.00758789 -267.08688477 484.00758789 -268.66796875 484.91796875 C-269.57828857 485.44156982 -270.4886084 485.9651709 -271.42651367 486.50463867 C-273.19862443 487.53434917 -274.93782827 488.62213227 -276.64575195 489.75512695 C-277.42265381 490.16593506 -278.19955566 490.57674316 -279 491 C-279.99 490.67 -280.98 490.34 -282 490 C-281.6596875 489.41959961 -281.319375 488.83919922 -280.96875 488.24121094 C-273.59214967 475.6509629 -266.27894031 463.02778384 -259.05126953 450.35144043 C-254.22500287 441.88692013 -249.3757911 433.43612703 -244.5 425 C-239.30759561 416.01459169 -234.14318892 407.01363123 -229 398 C-223.24496542 387.91408633 -217.45754152 377.84736534 -211.64672852 367.79345703 C-207.39240995 360.42748802 -203.16641946 353.04572029 -198.953125 345.65625 C-193.68135856 336.4103827 -188.3770493 327.18518608 -183 318 C-175.92295072 305.90848817 -168.97346 293.74544885 -162.03662109 281.57324219 C-158.67347956 275.67198324 -155.30631826 269.77301988 -151.9375 263.875 C-151.60640228 263.29530457 -151.27530457 262.71560913 -150.93417358 262.11834717 C-143.04951284 248.31664809 -135.09878696 234.5532459 -127.14550781 220.79101562 C-119.72883989 207.95522527 -112.33718198 195.10572232 -104.99002075 182.2300415 C-99.57110619 172.73444767 -94.11761125 163.25921566 -88.64672852 153.79345703 C-83.70988315 145.2457544 -78.81432158 136.67489713 -73.92538452 128.09976196 C-68.70145878 118.94054522 -63.40710245 109.82437935 -58.07788086 100.72607422 C-54.15665823 94.01817607 -50.30877307 87.27230525 -46.5 80.5 C-41.56850807 71.73141019 -36.53593099 63.02732495 -31.45019531 54.34741211 C-27.18100757 47.05097143 -22.97031522 39.72301432 -18.78485107 32.37838745 C-9.01434128 15.23375034 -9.01434128 15.23375034 -4.0625 6.75 C-3.65547852 6.04689697 -3.24845703 5.34379395 -2.82910156 4.61938477 C-1.91507691 3.06219493 -0.96246606 1.52772391 0 0 Z" transform="translate(288 1)"/><path fill="#003EE3" d="M0 0 C0.66 0 1.32 0 2 0 C2.41137207 0.72251953 2.82274414 1.44503906 3.24658203 2.18945312 C11.02766251 15.84894899 18.83876716 29.4881392 26.77783203 43.05664062 C31.04653955 50.35510406 35.28036097 57.67306854 39.5 65 C44.30844723 73.34802448 49.13897095 81.68248303 54 90 C59.49945536 99.4099033 64.95449196 108.84470563 70.39453125 118.2890625 C74.57349158 125.53951541 78.77747989 132.77483863 83 140 C91.02281678 153.73046817 98.95858328 167.51078086 106.89550781 181.29101562 C114.14033048 193.8676392 121.4073281 206.43036957 128.73071289 218.96142578 C133.65051282 227.38569339 138.52522138 235.83553896 143.39453125 244.2890625 C147.57349128 251.5395149 151.77740506 258.77488269 156 266 C161.49945536 275.4099033 166.95449196 284.84470563 172.39453125 294.2890625 C176.57349158 301.53951541 180.77747989 308.77483863 185 316 C193.02281678 329.73046817 200.95858328 343.51078086 208.89550781 357.29101562 C216.14033048 369.8676392 223.4073281 382.43036957 230.73071289 394.96142578 C235.65051282 403.38569339 240.52522138 411.83553896 245.39453125 420.2890625 C250.13765379 428.518331 254.91643927 436.72621781 259.71069336 444.92578125 C262.83531816 450.27443756 265.94541913 455.63111429 269.03515625 461 C269.37243744 461.58587891 269.70971863 462.17175781 270.05722046 462.77539062 C271.68680007 465.6068348 273.31443228 468.4393741 274.93945312 471.2734375 C277.52894286 475.77739117 280.13117181 480.24971998 282.93359375 484.625 C285 488 285 488 285 490 C280.70404177 488.69520126 277.01809322 487.03928404 273.1328125 484.796875 C272.01261719 484.15363281 270.89242188 483.51039063 269.73828125 482.84765625 C268.53377488 482.14857408 267.32934987 481.44935174 266.125 480.75 C264.86612719 480.02432 263.60700897 479.29906559 262.34765625 478.57421875 C253.56874683 473.51478801 244.81887725 468.40510638 236.07373047 463.28759766 C228.49140014 458.85510048 220.87804346 454.47820282 213.25 450.125 C212.37510925 449.62567963 212.37510925 449.62567963 211.48254395 449.11627197 C207.32258771 446.74261615 203.16142877 444.371073 199 442 C194.24917808 439.29310624 189.49888166 436.58529654 184.75 433.875 C184.16641724 433.54195862 183.58283447 433.20891724 182.98156738 432.86578369 C173.98021232 427.72647333 165.0178681 422.52288709 156.07275391 417.28637695 C147.86056671 412.48564601 139.60722821 407.75850731 131.34375 403.046875 C122.88179246 398.22207465 114.43357068 393.37431361 106 388.5 C97.01459064 383.307595 88.01354666 378.14333816 79 373 C66.7379841 366.00229287 54.50342235 358.95774009 42.27929688 351.89404297 C38.85903194 349.91858024 35.43754365 347.94525228 32.015625 345.97265625 C30.85042131 345.30086587 29.68521947 344.62907228 28.52001953 343.95727539 C26.33880563 342.69977562 24.15749843 341.44243765 21.97607422 340.18530273 C20.0311458 339.06368661 18.09656097 337.92382592 16.17577744 336.76134586 C13.07993881 334.93508281 13.07993881 334.93508281 9.84552383 333.85615444 C6.11691107 332.32296382 3.78872078 330.93748051 1 328 C-1.33514051 321.55891731 -0.57181474 314.166549 -0.45410156 307.43188477 C-0.46058523 305.30090692 -0.47234653 303.16993961 -0.4889679 301.03901672 C-0.51924122 295.22642179 -0.47526323 289.41643359 -0.41865635 283.60412335 C-0.37134106 277.42166952 -0.39277062 271.23943507 -0.40643311 265.05686951 C-0.42040506 254.57903774 -0.39246559 244.10190369 -0.33251953 233.62426758 C-0.25026773 219.21965427 -0.23047028 204.81543489 -0.23064518 190.41058278 C-0.22965355 168.79321142 -0.18220355 147.17628548 -0.09960938 125.55908203 C0.00436789 98.23647659 0.02764735 70.91428335 0.0168314 43.59150195 C0.01563041 40.41664364 0.01473003 37.24178539 0.0139389 34.06692696 C0.01110057 22.71128344 0.00675862 11.35564186 0 0 Z" transform="translate(305 1)"/><path fill="#003EE3" d="M0 0 C2.7027738 1.23784 5.25097159 2.52626348 7.80371094 4.04736328 C9.18212158 4.8612854 9.18212158 4.8612854 10.58837891 5.69165039 C11.57467285 6.28083252 12.5609668 6.87001465 13.57714844 7.47705078 C15.73790275 8.75298335 17.89939096 10.02767373 20.06152344 11.30126953 C21.19009766 11.96690918 22.31867188 12.63254883 23.48144531 13.31835938 C29.23160169 16.69717328 35.03156713 19.98953519 40.82714844 23.28955078 C43.19724631 24.64057673 45.56696798 25.99226124 47.93652344 27.34423828 C48.52175781 27.67812057 49.10699219 28.01200287 49.70996094 28.35600281 C61.2202026 34.92661168 72.68595851 41.5749678 84.16113281 48.20654297 C96.40873449 55.28334868 108.66689962 62.34081526 120.95214844 69.35205078 C135.38340633 77.58802137 149.77471074 85.89253946 164.16113281 94.20654297 C167.38283119 96.0680775 170.60485922 97.92903917 173.82714844 99.78955078 C174.89320313 100.40507812 175.95925781 101.02060547 177.05761719 101.65478516 C185.6421044 106.6065812 194.24795137 111.52029946 202.85687256 116.42941284 C211.88888815 121.58166622 220.88244947 126.7967153 229.85473633 132.05224609 C237.10314407 136.29127833 244.38641125 140.4660266 251.6829834 144.62130737 C268.45720678 154.1752365 268.45720678 154.1752365 276.20214844 158.78955078 C276.81002197 159.14895752 277.41789551 159.50836426 278.04418945 159.87866211 C279.36510657 160.67353434 280.66238656 161.50756384 281.95214844 162.35205078 C281.95214844 162.68205078 281.95214844 163.01205078 281.95214844 163.35205078 C233.93935991 163.52328496 185.92654577 163.68649486 137.91370702 163.84300643 C135.148828 163.85202085 132.38394903 163.86104862 129.61907005 163.87007666 C43.56167689 164.15082882 -42.49547244 164.40394533 -183.79785156 164.41455078 C-185.11201317 164.41412655 -186.42617478 164.41370232 -187.78015947 164.41326523 C-220.20273133 164.40261297 -252.62529303 164.38338874 -285.04785156 164.35205078 C-285.04785156 163.69205078 -285.04785156 163.03205078 -285.04785156 162.35205078 C-284.02691406 161.79259766 -283.00597656 161.23314453 -281.95410156 160.65673828 C-272.04982954 155.20451543 -262.2507329 149.58948282 -252.49462891 143.87670898 C-245.06946357 139.52894893 -237.62787384 135.21091229 -230.17285156 130.91455078 C-228.55564209 129.98231689 -228.55564209 129.98231689 -226.90576172 129.03125 C-222.52321955 126.50559558 -218.14001233 123.98109649 -213.75683594 121.45654297 C-201.18021236 114.2117203 -188.61748199 106.94472268 -176.08642578 99.62133789 C-167.66215817 94.70153796 -159.2123126 89.82682941 -150.75878906 84.95751953 C-143.50833667 80.7785595 -136.27296887 76.57464572 -129.04785156 72.35205078 C-119.63794826 66.85259542 -110.20314593 61.39755882 -100.75878906 55.95751953 C-93.50833616 51.7785592 -86.27301293 47.57457089 -79.04785156 43.35205078 C-67.52102315 36.61683744 -55.95983634 29.94210555 -44.39160156 23.27832031 C-39.78007731 20.62171062 -35.16933016 17.96375521 -30.55908203 15.30493164 C-28.38120274 14.04892181 -26.2031565 12.79320139 -24.02490234 11.5378418 C-22.52419189 10.67243774 -22.52419189 10.67243774 -20.99316406 9.78955078 C-20.01637695 9.23267578 -19.03958984 8.67580078 -18.03320312 8.10205078 C-15.94084131 6.87551746 -13.87676157 5.60004651 -11.8359375 4.28955078 C-10.26634277 3.29955078 -10.26634277 3.29955078 -8.66503906 2.28955078 C-7.73030762 1.67982422 -6.79557617 1.07009766 -5.83251953 0.44189453 C-3.04785156 -0.64794922 -3.04785156 -0.64794922 0 0 Z" transform="translate(300.048 342.648)"/><path fill="#003EE3" d="M0 0 C10.89 0 21.78 0 33 0 C43.8331073 14.04809398 43.8331073 14.04809398 46.51171875 20.34765625 C49.50217302 27.09530352 53.03771908 33.26581769 57 39.5 C58.13157401 41.35044281 59.25911596 43.20335673 60.3828125 45.05859375 C62.66605725 48.81018567 64.95154638 52.56039681 67.2387085 56.30960083 C68.74937109 58.78688648 70.25837103 61.26518252 71.76708984 63.74365234 C72.48840479 64.92782959 73.21037635 66.1116072 73.93310547 67.29492188 C81.66521281 79.95611042 88.96811618 92.81177966 96 105.875 C97.07019481 107.85960123 98.14051571 109.84413447 99.2109375 111.82861328 C100.140625 113.55240885 101.0703125 115.27620443 102 117 C101.910103 116.18875168 101.910103 116.18875168 101.81838989 115.3611145 C99.42750869 92.62235755 99.76378342 69.86334105 99.8626709 47.03057861 C99.88344668 41.71311051 99.89233115 36.39562233 99.90234375 31.078125 C99.92353861 20.71869009 99.95859563 10.35937386 100 0 C109.57 0 119.14 0 129 0 C129 51.48 129 102.96 129 156 C118.44 156 107.88 156 97 156 C90.25170068 145.87755102 90.25170068 145.87755102 87.29296875 140.98046875 C86.63280762 139.89032471 85.97264648 138.80018066 85.29248047 137.67700195 C84.59078982 136.51385303 83.88913052 135.3506852 83.1875 134.1875 C82.44177512 132.95454654 81.69583967 131.72172042 80.94970703 130.48901367 C79.40271985 127.93291504 77.85663202 125.37627545 76.31103516 122.81933594 C73.73624333 118.56173807 71.15146482 114.31024487 68.56549072 110.05943298 C65.73273054 105.40253957 62.90595649 100.74204205 60.08172607 96.07997131 C57.75921628 92.24754344 55.42589457 88.42184049 53.08984375 84.59765625 C44.20304712 69.98937941 35.96038196 55.12825212 28 40 C28.14361795 42.75013092 28.28986828 45.50008381 28.4375 48.25 C28.47681641 49.00796875 28.51613281 49.7659375 28.55664062 50.546875 C28.82365299 55.48985874 28.82365299 55.48985874 29.24621582 60.42138672 C30.24047883 70.26872003 30.1262735 80.09972188 30.09765625 89.984375 C30.09578749 91.89536502 30.09436575 93.80635552 30.09336853 95.71734619 C30.08957941 100.70834717 30.07978056 105.6993183 30.06866455 110.69030762 C30.05837227 115.79874264 30.05385428 120.90718256 30.04882812 126.015625 C30.0381545 136.01043178 30.02058757 146.00520872 30 156 C20.1 156 10.2 156 0 156 C0 104.52 0 53.04 0 0 Z" transform="translate(2627 189)"/><path fill="#003EE3" d="M0 0 C10.89 0 21.78 0 33 0 C43.8331073 14.04809398 43.8331073 14.04809398 46.51171875 20.34765625 C49.50217302 27.09530352 53.03771908 33.26581769 57 39.5 C58.13157401 41.35044281 59.25911596 43.20335673 60.3828125 45.05859375 C62.66605725 48.81018567 64.95154638 52.56039681 67.2387085 56.30960083 C68.74937109 58.78688648 70.25837103 61.26518252 71.76708984 63.74365234 C72.48840479 64.92782959 73.21037635 66.1116072 73.93310547 67.29492188 C81.66521281 79.95611042 88.96811618 92.81177966 96 105.875 C97.07019481 107.85960123 98.14051571 109.84413447 99.2109375 111.82861328 C100.140625 113.55240885 101.0703125 115.27620443 102 117 C101.910103 116.18875168 101.910103 116.18875168 101.81838989 115.3611145 C99.42750869 92.62235755 99.76378342 69.86334105 99.8626709 47.03057861 C99.88344668 41.71311051 99.89233115 36.39562233 99.90234375 31.078125 C99.92353861 20.71869009 99.95859563 10.35937386 100 0 C109.57 0 119.14 0 129 0 C129 51.48 129 102.96 129 156 C118.44 156 107.88 156 97 156 C90.25170068 145.87755102 90.25170068 145.87755102 87.29296875 140.98046875 C86.63280762 139.89032471 85.97264648 138.80018066 85.29248047 137.67700195 C84.59078982 136.51385303 83.88913052 135.3506852 83.1875 134.1875 C82.44177512 132.95454654 81.69583967 131.72172042 80.94970703 130.48901367 C79.40271985 127.93291504 77.85663202 125.37627545 76.31103516 122.81933594 C73.73624333 118.56173807 71.15146482 114.31024487 68.56549072 110.05943298 C65.73273054 105.40253957 62.90595649 100.74204205 60.08172607 96.07997131 C57.75921628 92.24754344 55.42589457 88.42184049 53.08984375 84.59765625 C44.20304712 69.98937941 35.96038196 55.12825212 28 40 C28.14361795 42.75013092 28.28986828 45.50008381 28.4375 48.25 C28.47681641 49.00796875 28.51613281 49.7659375 28.55664062 50.546875 C28.82365299 55.48985874 28.82365299 55.48985874 29.24621582 60.42138672 C30.24047883 70.26872003 30.1262735 80.09972188 30.09765625 89.984375 C30.09578749 91.89536502 30.09436575 93.80635552 30.09336853 95.71734619 C30.08957941 100.70834717 30.07978056 105.6993183 30.06866455 110.69030762 C30.05837227 115.79874264 30.05385428 120.90718256 30.04882812 126.015625 C30.0381545 136.01043178 30.02058757 146.00520872 30 156 C20.1 156 10.2 156 0 156 C0 104.52 0 53.04 0 0 Z" transform="translate(1604 189)"/><path fill="#003EE3" d="M0 0 C13.70814469 12.42608799 21.46317644 31.14107223 23.375 49.3125 C24.55314631 76.25015563 21.91422758 101.01512109 3.91015625 122.21484375 C-7.97611845 134.93891755 -24.9118484 143.38702413 -42.43896484 144.48950195 C-66.53981669 144.99930423 -87.23574958 142.45012605 -105.625 125.3125 C-117.99330141 113.28213032 -125.18465953 97.30975513 -127.625 80.3125 C-127.73585938 79.55066406 -127.84671875 78.78882813 -127.9609375 78.00390625 C-130.72777003 55.23362231 -127.88706414 28.42832164 -113.36474609 9.68603516 C-85.09760206 -24.47732297 -34.32553004 -26.82914992 0 0 Z M-83.625 21.3125 C-95.10860409 36.40351899 -98.16572565 54.94716043 -95.9375 73.5 C-93.96532883 87.68585308 -89.35794508 100.71139839 -78.71875 110.74609375 C-67.83758701 118.88666532 -56.7807931 120.38978104 -43.625 119.3125 C-33.27740459 117.33613445 -25.11026359 110.95756537 -18.8125 102.6875 C-7.95634633 86.01920746 -6.4451749 64.69376401 -9.6875 45.5 C-12.50390485 33.29996592 -18.40694207 21.22295108 -28.78125 13.76171875 C-46.9708629 2.90559415 -69.53040159 4.93229104 -83.625 21.3125 Z" transform="translate(2419.625 203.688)"/><path fill="#003EE3" d="M0 0 C88.82129397 0 88.82129397 0 111.546875 21.33203125 C128.94254726 40.25120984 130.9614966 63.94182889 130.18652344 88.54882812 C129.20832091 106.64813558 121.93248457 124.13049831 109 137 C78.18945815 163.58801277 38.91089614 156 0 156 C0 104.52 0 53.04 0 0 Z M32 23 C32 59.3 32 95.6 32 133 C56.85242237 133.49940735 56.85242237 133.49940735 79 124 C79.68320313 123.52046875 80.36640625 123.0409375 81.0703125 122.546875 C90.71373011 114.99347566 95.48749087 103.62769294 97.5546875 91.8359375 C99.5879144 74.32164968 98.77305199 56.20007409 89 41 C79.35310767 28.99630996 66.95431708 24.86928963 52 23 C45.4 23 38.8 23 32 23 Z" transform="translate(1289 189)"/><path fill="#003EE3" d="M0 0 C1.37562239 1.13778113 2.71648193 2.31746081 4.046875 3.5078125 C2.5032643 7.10127181 0.32069166 9.58969454 -2.328125 12.4453125 C-5.34262297 15.70681783 -8.21339466 19.01121601 -10.953125 22.5078125 C-14.94082115 21.87362468 -17.68958625 19.83939471 -21.015625 17.6328125 C-33.41358814 9.80580681 -47.01682004 8.52398233 -61.265625 11.6328125 C-74.08553023 15.36033929 -83.0901051 22.28808915 -89.60546875 33.859375 C-98.51866457 51.37574244 -98.68379687 71.27050136 -93.23828125 89.9296875 C-88.93151899 101.92055141 -82.00768724 110.81532092 -70.453125 116.3828125 C-62.57840824 119.85838194 -54.61836651 120.89682912 -46.078125 120.8828125 C-45.20623535 120.88337646 -44.3343457 120.88394043 -43.43603516 120.88452148 C-36.68878009 120.76961848 -31.00839167 119.61020221 -24.953125 116.5078125 C-24.293125 116.1778125 -23.633125 115.8478125 -22.953125 115.5078125 C-22.623125 104.6178125 -22.293125 93.7278125 -21.953125 82.5078125 C-32.513125 82.5078125 -43.073125 82.5078125 -53.953125 82.5078125 C-53.953125 74.5878125 -53.953125 66.6678125 -53.953125 58.5078125 C-33.823125 58.5078125 -13.693125 58.5078125 7.046875 58.5078125 C7.4880719 75.65655676 7.4880719 75.65655676 7.58398438 83 C7.64960452 88.00033897 7.72697848 92.9984505 7.87670898 97.99707031 C7.99675792 102.03031127 8.0621019 106.06116382 8.09052467 110.09605408 C8.11076046 111.63050448 8.15028446 113.16483225 8.20990562 114.69825745 C8.65633606 126.66251533 8.65633606 126.66251533 4.71157837 131.18530273 C1.90265469 133.27420711 -0.82915291 134.93596194 -3.953125 136.5078125 C-5.36220879 137.25061462 -5.36220879 137.25061462 -6.79975891 138.00842285 C-27.24323206 148.3665943 -54.48507614 150.22425944 -76.39453125 143.703125 C-85.96386006 140.48883892 -94.00486659 136.79752582 -101.953125 130.5078125 C-103.20416016 129.53908203 -103.20416016 129.53908203 -104.48046875 128.55078125 C-119.60692185 115.98813376 -127.02207444 97.25181863 -129.640625 78.1328125 C-131.75625612 54.02343287 -127.39163886 29.73921519 -111.58496094 10.875 C-84.16785918 -20.3296189 -33.05497815 -25.25400331 0 0 Z" transform="translate(1935.953 201.492)"/><path fill="#003EE3" d="M0 0 C1.56047445 0.00015913 3.12095416 0.00585397 4.68139648 0.01586914 C5.5012352 0.01728409 6.32107391 0.01869904 7.16575623 0.02015686 C9.79470406 0.0257725 12.42356797 0.0383276 15.05249023 0.05102539 C16.8304838 0.05603838 18.60847869 0.06060163 20.38647461 0.06469727 C24.75434569 0.07574701 29.12215371 0.09302208 33.48999023 0.11352539 C33.84346024 1.11209061 33.84346024 1.11209061 34.20407104 2.13082886 C44.38744803 30.89581387 54.57489124 59.65890557 64.92749023 88.36352539 C65.65504194 90.38158724 66.38258109 92.39965361 67.11010742 94.41772461 C68.17838707 97.38069119 69.24671623 100.34363988 70.31515503 103.30654907 C73.91885146 113.30076846 77.51964496 123.29600953 81.10452271 133.29699707 C81.77236205 135.15850015 82.4413482 137.01959223 83.11154175 138.88024902 C84.0244972 141.41529371 84.93353887 143.95170731 85.84155273 146.48852539 C86.24787178 147.61263824 86.24787178 147.61263824 86.66239929 148.75946045 C88.48999023 153.88518398 88.48999023 153.88518398 88.48999023 156.11352539 C77.59999023 156.11352539 66.70999023 156.11352539 55.48999023 156.11352539 C53.40565735 151.250082 51.56959917 146.5584138 50.00952148 141.53540039 C49.68294807 140.49551971 49.68294807 140.49551971 49.34977722 139.43463135 C48.89508698 137.98311743 48.44225165 136.53102125 47.99121094 135.07836914 C47.29946904 132.8538096 46.59919014 130.63205861 45.89819336 128.41040039 C45.45562265 126.99389403 45.01354756 125.57723271 44.57202148 124.16040039 C44.36269485 123.49788269 44.15336823 122.83536499 43.93769836 122.152771 C43.07293478 119.34846591 42.48999023 117.06896838 42.48999023 114.11352539 C23.67999023 114.11352539 4.86999023 114.11352539 -14.51000977 114.11352539 C-15.17000977 117.08352539 -15.83000977 120.05352539 -16.51000977 123.11352539 C-17.26306637 125.74344329 -18.03479612 128.35021881 -18.85766602 130.95727539 C-19.0744249 131.65244263 -19.29118378 132.34760986 -19.51451111 133.06384277 C-19.96734685 134.51293347 -20.42199434 135.96145921 -20.87841797 137.40942383 C-21.57918307 139.6347166 -22.27248475 141.86224292 -22.96508789 144.09008789 C-23.40800984 145.50428747 -23.85135351 146.91835504 -24.29516602 148.33227539 C-24.50246841 148.99884155 -24.70977081 149.66540771 -24.9233551 150.35217285 C-26.39480662 154.99832225 -26.39480662 154.99832225 -27.51000977 156.11352539 C-29.88569496 156.2019221 -32.23209651 156.22882844 -34.60766602 156.21118164 C-35.67095375 156.20905922 -35.67095375 156.20905922 -36.75572205 156.20689392 C-39.02802689 156.20127982 -41.30023452 156.18872502 -43.57250977 156.17602539 C-45.10961772 156.1710122 -46.64672722 156.16644898 -48.18383789 156.16235352 C-51.95926618 156.15130581 -55.73462147 156.1340318 -59.51000977 156.11352539 C-57.19866452 148.02476209 -54.45955477 140.1081662 -51.64282227 132.18383789 C-51.16684334 130.83934446 -50.69105327 129.49478416 -50.21543884 128.15016174 C-48.95248693 124.58183521 -47.68639698 121.01463027 -46.41945267 117.44771957 C-45.63059632 115.22609598 -44.8426026 113.00416832 -44.05490112 110.78213501 C-37.07196724 91.08431231 -30.07097997 71.39323406 -22.92388916 51.7542572 C-21.05412754 46.61603954 -19.19361104 41.47452223 -17.3356781 36.33201599 C-15.8456363 32.20901463 -14.35308827 28.08692318 -12.8600769 23.96499634 C-12.13143846 21.95210913 -11.403664 19.93890895 -10.67678833 17.92538452 C-9.67072755 15.13947096 -8.6611297 12.35486437 -7.65063477 9.57055664 C-7.34715622 8.72776154 -7.04367767 7.88496643 -6.73100281 7.01663208 C-4.22707422 0.13671764 -4.22707422 0.13671764 0 0 Z M13.48999023 22.11352539 C13.06085327 23.6124231 13.06085327 23.6124231 12.62304688 25.14160156 C11.27012072 29.86254111 9.91218016 34.58202984 8.55249023 39.30102539 C8.30655121 40.15499908 8.06061218 41.00897278 7.80722046 41.88882446 C4.08315496 54.80191817 0.22117165 67.66118459 -3.8671875 80.46386719 C-4.21724854 81.56899658 -4.56730957 82.67412598 -4.92797852 83.81274414 C-5.23501709 84.77011475 -5.54205566 85.72748535 -5.85839844 86.71386719 C-6.64103668 89.18162615 -6.64103668 89.18162615 -6.51000977 92.11352539 C7.34999023 92.11352539 21.20999023 92.11352539 35.48999023 92.11352539 C33.50999023 85.76102539 31.52999023 79.40852539 29.48999023 72.86352539 C24.25519743 56.009054 19.20741863 39.12069442 14.48999023 22.11352539 C14.15999023 22.11352539 13.82999023 22.11352539 13.48999023 22.11352539 Z" transform="translate(1143.51 188.886)"/><path fill="#003EE3" d="M0 0 C34.32 0 68.64 0 104 0 C104 7.92 104 15.84 104 24 C80.24 24 56.48 24 32 24 C32 36.87 32 49.74 32 63 C52.13 63 72.26 63 93 63 C93 70.92 93 78.84 93 87 C72.87 87 52.74 87 32 87 C32 101.85 32 116.7 32 132 C56.75 132 81.5 132 107 132 C107 139.92 107 147.84 107 156 C71.69 156 36.38 156 0 156 C0 104.52 0 53.04 0 0 Z" transform="translate(927 189)"/><path fill="#003EE3" d="M0 0 C93.33056133 0 93.33056133 0 109.96875 15.87890625 C120.26671115 27.02775826 121.59154754 39.22575504 121.3125 53.84375 C120.78644005 65.94312884 115.61955265 75.77730708 107 84.125 C90.53053451 97.88152525 70.44708457 99.66162383 49.875 99.25 C43.97625 99.1675 38.0775 99.085 32 99 C32 117.81 32 136.62 32 156 C21.44 156 10.88 156 0 156 C0 104.52 0 53.04 0 0 Z M32 23 C32 40.49 32 57.98 32 76 C37.053125 76.061875 42.10625 76.12375 47.3125 76.1875 C48.88298096 76.21481201 50.45346191 76.24212402 52.0715332 76.27026367 C64.07956239 76.34100205 75.4273992 75.1476079 84.53125 66.5546875 C90.38047778 60.05932409 90.44756793 52.98334458 90.30859375 44.63671875 C89.75315793 38.09101304 87.49890597 34.17773083 82.8125 29.6875 C75.29692992 23.75245754 65.68360397 22.86526558 56.4140625 22.90234375 C55.12967285 22.90484131 53.8452832 22.90733887 52.52197266 22.90991211 C50.09797119 22.92356812 50.09797119 22.92356812 47.625 22.9375 C39.890625 22.9684375 39.890625 22.9684375 32 23 Z" transform="translate(2109 189)"/><path fill="#003EE3" d="M0 0 C43.23 0 86.46 0 131 0 C131 7.92 131 15.84 131 24 C114.5 24 98 24 81 24 C81 67.56 81 111.12 81 156 C70.77 156 60.54 156 50 156 C50 112.44 50 68.88 50 24 C33.5 24 17 24 0 24 C0 16.08 0 8.16 0 0 Z" transform="translate(2823 189)"/><path fill="#003EE3" d="M0 0 C10.56 0 21.12 0 32 0 C32 43.56 32 87.12 32 132 C55.43 132 78.86 132 103 132 C103 139.92 103 147.84 103 156 C69.01 156 35.02 156 0 156 C0 104.52 0 53.04 0 0 Z" transform="translate(757 189)"/><path fill="#003EE3" d="M0 0 C10.56 0 21.12 0 32 0 C32 51.48 32 102.96 32 156 C21.44 156 10.88 156 0 156 C0 104.52 0 53.04 0 0 Z" transform="translate(2515 189)"/><path fill="#003EE3" d="M0 0 C10.56 0 21.12 0 32 0 C32 51.48 32 102.96 32 156 C21.44 156 10.88 156 0 156 C0 104.52 0 53.04 0 0 Z" transform="translate(1492 189)"/></svg>