<svg xmlns="http://www.w3.org/2000/svg" role="img" viewBox="-14.01 -17.51 962.52 306.52"><title>Linux Distributions Working Group logo</title><style>svg {enable-background:new 0 0 935 275}</style><style>.st2{fill:#007be9}.st3{fill:#0033a1}</style><path d="M359.9 222.7l-19.4 31.7-2-31.8h-3.6L316 254.4l-2.4-31.7h-4.5l3.4 38.4h3.7l18.7-30.8 2.2 30.8h3.7l23.9-38.4zm17.5 9.3c-4.4 0-8.5 2-11.5 5-3.2 3.1-5.1 7.4-5.1 11.8 0 7.3 5.1 12.6 12.8 12.6 4.4 0 8.6-2 11.6-5 3.1-3.2 5.1-7.4 5.1-11.9-.1-7.2-5.2-12.5-12.9-12.5zm4.5 22.2c-2.1 2.1-5 3.5-8 3.5-5.2 0-8.8-3.3-8.8-9 0-3.5 1.6-7 4-9.4 2.1-2.1 5-3.5 8-3.5 5.2 0 8.8 3.3 8.8 9 0 3.4-1.5 6.9-4 9.4zm35.1-22c-5.6-.3-10 2.9-13.4 7.8l1.9-7.4h-4.2l-7.5 28.2h4.2l3-11.1c2.3-8.5 8.4-13 14.6-13h.3l1.1-4.5zm31 .4h-5.8l-18.9 15.5 7.3-27.1h-4.2l-10.7 39.8h4.2l2-7.3 7.5-6 6.5 13.3h4.8l-7.8-16zm-1 28.2h4.2l7.6-28.2h-4.2zm10.2-38.9l-1.2 4.6h4.8l1.2-4.6zm24.2 10.1c-4.3 0-7.3 2.3-9.8 5.2l1.2-4.6h-4.2l-7.5 28.2h4.2l4.3-15.9c1.5-5.3 5.8-9.1 10.2-9.1 3.9 0 6.3 2.2 6.3 5.9 0 .9-.2 2.2-.4 3.2l-4.3 16h4.2l4.2-15.7c.3-1.5.7-3.1.7-4.4-.2-5.4-3.7-8.8-9.1-8.8zm41.3 6.8c-1.6-3.4-4.3-6.8-10.4-6.8-4 0-8.1 1.7-11.1 4.7-2.8 2.8-4.7 6.7-4.7 11.3 0 6.8 5.6 10.6 11.4 10.6 4.6 0 8-2.2 10.8-5.1l-.8 2.8c-.8 2.9-1.8 5.1-3.5 6.8-1.7 1.7-4.4 2.9-7.9 2.9-4.3 0-8.1-1.7-11.1-4.3l-2.6 2.9c3.5 3.1 8.6 4.9 13.8 4.9 4.8 0 8.3-1.4 10.9-4 2-2 3.4-4.5 4.6-8.9l6.4-24.1h-4.2l-1.6 6.3zm-4.9 12.5c-2.2 2.2-5.3 3.7-8.6 3.7-4.3 0-8.2-2.6-8.2-7.6 0-3.3 1.4-6.2 3.5-8.3 2.2-2.2 5.1-3.4 8.1-3.4 5.4 0 8.7 3.8 8.7 8 0 2.8-1.3 5.5-3.5 7.6zm55.8-25.4c6.2 0 9.3 2.5 11.5 5.6l3.3-2.6c-2.4-3.6-6.5-7-14.4-7-6.5 0-12.3 2.7-16.4 6.9-4.4 4.4-7.1 10.4-7.1 16.4 0 10.2 7.6 16.2 16.9 16.2 5.3 0 9.5-1.5 13.6-4l4.9-17.1h-15.8l-1 3.9h11.5l-3 10.6c-2.5 1.5-5.7 2.7-9.9 2.7-7.4 0-12.6-4.6-12.6-12.4 0-5.1 2.2-10.1 5.8-13.8 3.3-3.2 7.7-5.4 12.7-5.4zm25.7 14.1l1.9-7.4H597l-7.5 28.2h4.2l3-11.1c2.3-8.5 8.4-13 14.6-13h.3l1.2-4.5c-5.7-.4-10.1 2.9-13.5 7.8zm30.1-8c-4.4 0-8.5 2-11.5 5-3.2 3.1-5.1 7.4-5.1 11.8 0 7.3 5.1 12.6 12.8 12.6 4.4 0 8.6-2 11.6-5 3.1-3.2 5.1-7.4 5.1-11.9 0-7.2-5.1-12.5-12.9-12.5zm4.6 22.2c-2.1 2.1-5 3.5-8 3.5-5.2 0-8.8-3.3-8.8-9 0-3.5 1.6-7 4-9.4 2.1-2.1 5-3.5 8-3.5 5.2 0 8.8 3.3 8.8 9 0 3.4-1.5 6.9-4 9.4zm39.3-21.6l-4.3 15.9c-1.5 5.4-5.8 9.2-10.2 9.2-3.9 0-6.3-2.2-6.3-5.9 0-.9.2-2.2.4-3.2l4.3-16H653l-4.1 15.7c-.4 1.5-.7 3.1-.7 4.4 0 5.3 3.5 8.7 9 8.7 4.3 0 7.2-2.3 9.8-5.2l-1.2 4.6h4.1l7.6-28.2h-4.2zm27.1-.6c-4.5 0-8 2.3-10.7 5.5l1.3-4.9h-4.2l-9.9 36.9h4.2l4-15c1.6 3.7 4.8 7 10.6 7 3.9 0 7.7-1.7 10.6-4.6 3.2-3.2 5.2-7.7 5.2-12.9.1-7.2-4.7-12-11.1-12zm2.7 22.5c-2 2-4.7 3.3-7.7 3.3-5.2 0-8.7-3.9-8.7-8.8 0-3.6 1.7-7 4.2-9.5 2.3-2.3 5.3-3.8 8.3-3.8 4.7 0 8 3.4 8 8.6 0 4-1.6 7.6-4.1 10.2z" class="st2"/><path d="M759.6 6.9h7.6c2.4-.2 4.7.5 6.7 1.9 1.5 1.3 2.4 3.3 2.3 5.3.1 2.1-.8 4-2.3 5.4-2 1.5-4.4 2.2-6.8 2h-5.2v12.8h-2.1V6.9zm2.2 1.8v11.1h5.1c1.9.1 3.7-.4 5.2-1.5 1.2-1 1.9-2.5 1.8-4.1.1-1.5-.6-3-1.7-4-1.4-1.1-3.2-1.6-5-1.5h-5.4zm21.6-1.8h7c2.4-.2 4.8.5 6.8 1.9 1.6 1.3 2.4 3.2 2.3 5.2 0 3.2-2.2 5.9-5.2 6.7 1.5 1.1 2.8 2.5 3.7 4.2l6.2 9.5h-2.5l-4.8-7.5c-1-1.8-2.2-3.4-3.7-4.7-1.2-.7-2.5-1-3.9-.9h-3.7v13.2h-2.1V6.9zm2.1 1.8v10.8h4.6c1.9.1 3.7-.4 5.3-1.4 1.2-.9 1.9-2.4 1.8-4 .1-1.5-.6-3-1.9-4-1.6-1-3.5-1.5-5.4-1.4h-4.4zm37-2.1c3.9-.1 7.6 1.4 10.3 4.1 2.8 2.6 4.3 6.2 4.2 10 .1 3.8-1.5 7.4-4.2 10-5.8 5.5-14.8 5.5-20.6 0-2.7-2.6-4.3-6.2-4.2-10-.1-3.8 1.5-7.4 4.2-10 2.7-2.7 6.4-4.2 10.3-4.1zm.1 26.2c3.2.1 6.4-1.2 8.7-3.5 2.3-2.3 3.6-5.4 3.5-8.6.1-3.2-1.2-6.4-3.5-8.6-2.3-2.3-5.4-3.6-8.7-3.5-3.3-.1-6.4 1.2-8.7 3.5-2.3 2.2-3.6 5.4-3.6 8.6-.1 3.2 1.2 6.4 3.6 8.6 2.2 2.3 5.4 3.5 8.7 3.5zm25.1-25.9v27.5c.2 2.2-.4 4.5-1.7 6.3-1.1 1.1-2.5 1.7-4 1.7-.4 0-.9 0-1.3-.1l-.2-2c.4.1.8.2 1.3.2 2.6 0 3.9-1.8 3.9-5.5V7h2zm24.4 0v1.8h-12.9v11h12.5v1.8h-12.5v11.1h13.2v1.8h-15.3V6.9h15zm30.8 2v2.3c-3-1.7-6.4-2.6-9.8-2.7-3.2-.1-6.3 1.2-8.5 3.5-2.3 2.3-3.5 5.4-3.4 8.7-.1 3.2 1.1 6.4 3.5 8.7 2.4 2.3 5.5 3.5 8.8 3.4 3.4-.1 6.8-1.1 9.8-2.8v2.2c-3 1.6-6.3 2.5-9.7 2.6-3.9.1-7.6-1.3-10.4-4-2.7-2.6-4.3-6.2-4.2-10-.1-3.8 1.5-7.5 4.3-10.1 2.7-2.6 6.4-4.1 10.2-4 3.1-.1 6.4.7 9.4 2.2zm27.3-2v1.8h-10.3v25.7h-2.1V8.7h-10.3V6.9h22.7zm-456 29.4H465V18.7l-8.3 10.2h-.7l-8.3-10.2v17.6h-8.9V5.9h8.3l9.4 11.4 9.4-11.4h8.3v30.4zm41.1 0h-9.4l-2.5-6.2h-13.2l-2.5 6.2h-9.4l13.5-30.4h10.1l13.4 30.4zm-14-11.5l-4.5-11.1-4.5 11.1h9zm27.3 11.5h-9.2V5.9h9.2v30.4zm40.7 0h-8.2l-15.8-16.9v16.9h-9.1V5.9h8.1L560 22.8V5.9h9.2l.1 30.4zM598.7 24h-12.6v12.3h-9.2V5.9h21.8V12h-12.6v5.9h12.6V24zm35.7 12.3h-9.9l-2.4-5.4c-.6-1.5-1.4-3-2.4-4.3-.5-.8-1.2-1.4-2.1-1.8-.8-.3-1.7-.4-2.6-.4h-1v11.9h-9.2V5.9h15.6c2.2-.1 4.3.4 6.2 1.5 1.5.9 2.7 2.2 3.5 3.7.7 1.3 1 2.7 1.1 4.2 0 1.4-.3 2.7-.9 3.9-.5.9-1.1 1.7-1.9 2.3-.7.5-1.4 1-2.2 1.4.9.5 1.7 1.2 2.4 2 1 1.5 1.9 3.1 2.6 4.8l3.2 6.6zm-12.5-20.8c.1-1.2-.4-2.3-1.4-2.9-1.4-.7-3-.9-4.5-.8h-1.9V19h2c1.6.1 3.1-.1 4.6-.7.8-.6 1.3-1.7 1.2-2.8zm50 20.8h-9.4l-2.5-6.2h-13.2l-2.5 6.2h-9.4l13.5-30.4h10.1l13.4 30.4zM658 24.8l-4.5-11.1-4.5 11.1h9zm53.4 11.5h-9.2V18.7l-8.3 10.2h-.7l-8.3-10.2v17.6H676V5.9h8.3l9.4 11.4L703 5.9h8.3v30.4zm30.6 0h-23V5.9h22.6V12h-13.4v5.6H741v6.1h-12.8v6.5H742v6.1zM324.9 6.9c4.3-.1 8.5 1.6 11.5 4.6 3.1 2.9 4.8 6.9 4.7 11.2.1 4.2-1.7 8.3-4.7 11.1-6.5 6.1-16.6 6.1-23 0-3.1-2.9-4.8-6.9-4.7-11.1-.1-4.2 1.6-8.3 4.7-11.2 3.1-3.1 7.2-4.7 11.5-4.6zm.1 29.2c3.6.1 7.1-1.3 9.7-3.9 2.6-2.5 4-6 3.9-9.6.1-3.6-1.3-7.1-3.9-9.6-2.5-2.6-6-4-9.7-3.9-3.6-.1-7.2 1.3-9.7 3.9-2.6 2.5-4.1 6-4 9.6-.1 3.6 1.4 7.1 4 9.6 2.5 2.6 6 4 9.7 3.9zm21.9-28.8h8.5c2.7-.2 5.3.6 7.4 2.2 1.7 1.5 2.7 3.7 2.6 5.9.1 2.3-.9 4.5-2.6 6-2.2 1.6-4.9 2.4-7.6 2.2h-5.9v14.3h-2.4V7.3zm2.4 2v12.4h5.7c2.1.1 4.1-.4 5.8-1.6 1.4-1.1 2.1-2.8 2-4.6.1-1.7-.6-3.4-2-4.5-1.6-1.2-3.6-1.8-5.6-1.7h-5.9zm37.4-2v2h-14.4v12.3h14v2h-14V36H387v2h-17.1V7.3h16.8zm32.8 0V38h-2l-23.3-26.8V38h-2.4V7.3h2l23.3 26.8V7.3h2.4z" class="st3"/><path d="M309.4 63.9h12.1V108H349v11h-39.6V63.9zm47.8-2.4h12.6v10.6h-12.6V61.5zm.3 15.3h12V119h-12V76.8zm23.2 0h12v6c2.8-3.5 6.3-6.8 12.4-6.8 9.1 0 14.3 6 14.3 15.7V119h-12V95.5c0-5.7-2.7-8.6-7.2-8.6s-7.5 2.9-7.5 8.6v23.6h-12V76.8zm48.8 27.4V76.8h12v23.6c0 5.7 2.7 8.6 7.2 8.6s7.5-2.9 7.5-8.6V76.8h12V119h-12v-6c-2.8 3.5-6.3 6.8-12.4 6.8-9 0-14.3-5.9-14.3-15.6zm67.1-15l8-12.4h12.5l-14.3 20.6 14.9 21.6h-12.8l-8.5-13.2-8.5 13.2h-12.5l14.8-21.4-14.3-20.8h12.8l7.9 12.4zm-187.2 46.7h21.5c17.3 0 29.3 11.9 29.3 27.4v.2c0 15.5-12 27.6-29.3 27.6h-21.5v-55.2zm12.1 11v33.2h9.4c9.9 0 16.6-6.7 16.6-16.5v-.2c0-9.8-6.7-16.6-16.6-16.6h-9.4zm48.5-13.3h12.6v10.6H370v-10.6zm.3 15.3h12v42.2h-12v-42.2zm19.9 36.6l5.1-7.9c4.6 3.3 9.4 5 13.3 5 3.5 0 5-1.3 5-3.2v-.2c0-2.6-4.1-3.5-8.7-4.9-5.9-1.7-12.6-4.5-12.6-12.7v-.2c0-8.6 6.9-13.4 15.4-13.4 5.4 0 11.2 1.8 15.8 4.9l-4.6 8.3c-4.2-2.4-8.4-3.9-11.4-3.9-2.9 0-4.4 1.3-4.4 2.9v.2c0 2.4 4 3.5 8.6 5 5.9 2 12.8 4.8 12.8 12.5v.2c0 9.4-7 13.6-16.2 13.6-5.8.2-12.5-1.8-18.1-6.2zm44.1-6.4v-20h-5v-10.2h5v-10.8h12v10.8h9.9v10.2h-9.9v18c0 2.8 1.2 4.1 3.9 4.1 2.2 0 4.2-.6 5.9-1.5v9.6c-2.5 1.5-5.4 2.4-9.5 2.4-7.4.1-12.3-2.8-12.3-12.6zm30.7-30.2h12v8.5c2.4-5.8 6.4-9.6 13.5-9.3v12.5h-.6c-8 0-12.8 4.8-12.8 14.9v15.6h-12v-42.2zm33.2-15.3h12.6v10.6h-12.6v-10.6zm.3 15.3h12v42.2h-12v-42.2zm35.2 36.7v5.5h-12v-57.5h12v21.3c2.9-3.9 6.9-6.9 13.2-6.9 9.8 0 19.2 7.7 19.2 21.8v.2c0 14.1-9.2 21.8-19.2 21.8-6.4.1-10.4-2.8-13.2-6.2zm20.4-15.5v-.2c0-7-4.7-11.7-10.3-11.7s-10.2 4.6-10.2 11.7v.2c0 7 4.6 11.7 10.2 11.7s10.3-4.7 10.3-11.7zm20.5 6.1v-27.3h12v23.6c0 5.7 2.7 8.6 7.2 8.6s7.5-2.9 7.5-8.6v-23.6h12v42.2h-12v-6c-2.8 3.5-6.3 6.8-12.4 6.8-9 0-14.3-6-14.3-15.7zm51.4 2.9v-20h-5v-10.2h5v-10.8h12v10.8h9.9v10.2H638v18c0 2.8 1.2 4.1 3.9 4.1 2.2 0 4.2-.6 5.9-1.5v9.6c-2.5 1.5-5.4 2.4-9.5 2.4-7.4.1-12.3-2.8-12.3-12.6zm30.9-45.5h12.6v10.6h-12.6v-10.6zm.3 15.3h12v42.2h-12v-42.2zm21.2 21.3v-.2c0-12.1 9.8-22 22.9-22 13.1 0 22.8 9.7 22.8 21.8v.2c0 12.1-9.8 22-22.9 22-13.1 0-22.8-9.7-22.8-21.8zm33.9 0v-.2c0-6.2-4.5-11.7-11.1-11.7-6.9 0-11 5.3-11 11.5v.2c0 6.2 4.5 11.7 11.1 11.7 6.9 0 11-5.3 11-11.5zm20.5-21.3h12v6c2.8-3.5 6.3-6.8 12.4-6.8 9.1 0 14.3 6 14.3 15.7v27.3h-12v-23.6c0-5.7-2.7-8.6-7.2-8.6s-7.5 2.9-7.5 8.6v23.6h-12v-42.2zm45.8 36.6l5.1-7.9c4.6 3.3 9.4 5 13.3 5 3.5 0 5-1.3 5-3.2v-.2c0-2.6-4.1-3.5-8.7-4.9-5.9-1.7-12.6-4.5-12.6-12.7v-.2c0-8.6 6.9-13.4 15.4-13.4 5.4 0 11.2 1.8 15.8 4.9l-4.6 8.3c-4.2-2.4-8.4-3.9-11.4-3.9-2.9 0-4.4 1.3-4.4 2.9v.2c0 2.4 4 3.5 8.6 5 5.9 2 12.8 4.8 12.8 12.5v.2c0 9.4-7 13.6-16.2 13.6-5.9.2-12.5-1.8-18.1-6.2z" class="st2"/><g><path fill="#2a7de1" d="M125.9 91.6c1.7-2.2 1.2-5.3-1-7l-.6-.5c-2.2-1.7-5.3-1.2-7 1-1.7 2.2-1.2 5.3 1 7l.6.5c.9.7 2 1 3 1 1.6 0 3.1-.7 4-2zm4.2 9.4l.6.5c.9.7 2 1 3 1 1.5 0 3-.7 4-2 1.7-2.2 1.2-5.3-1-7l-.6-.5c-2.2-1.7-5.3-1.2-7 1-1.6 2.2-1.2 5.3 1 7zm9.5 131.6l-.7.1c-2.7.3-4.7 2.7-4.5 5.5.3 2.6 2.4 4.5 5 4.5h.5l.7-.1c2.7-.3 4.7-2.7 4.5-5.5-.3-2.8-2.8-4.8-5.5-4.5zm14.7-1.6l-.7.1c-2.7.3-4.7 2.7-4.5 5.5.3 2.6 2.4 4.5 5 4.5h.5l.7-.1c2.7-.3 4.7-2.7 4.5-5.5-.3-2.8-2.8-4.7-5.5-4.5zm79.9-35l-.3.7c-1.1 2.5 0 5.5 2.5 6.6.7.3 1.4.4 2 .4 1.9 0 3.7-1.1 4.6-3l.3-.7c1.1-2.5 0-5.5-2.5-6.6-2.5-1-5.5.1-6.6 2.6zm8.2-6.1c.7.3 1.4.4 2 .4 1.9 0 3.7-1.1 4.6-3l.3-.7c1.1-2.5 0-5.5-2.5-6.6-2.5-1.1-5.5 0-6.6 2.5l-.3.7c-1.1 2.6 0 5.5 2.5 6.7zm-28.8-98.6c2.5-1.2 3.5-4.2 2.3-6.7l-.3-.7c-1.2-2.5-4.2-3.5-6.7-2.3-2.5 1.2-3.5 4.2-2.3 6.7l.3.7c.9 1.8 2.6 2.8 4.5 2.8.7 0 1.5-.1 2.2-.5zm-.2 11c.9 1.8 2.6 2.8 4.5 2.8.7 0 1.5-.2 2.2-.5 2.5-1.2 3.5-4.2 2.3-6.7l-.3-.7c-1.2-2.5-4.2-3.5-6.7-2.3-2.5 1.2-3.5 4.2-2.3 6.7l.3.7zm-79.2-36.6c.3 0 .6 0 .9-.1l.7-.1c2.7-.5 4.5-3.1 4.1-5.8-.5-2.7-3.1-4.5-5.8-4.1l-.7.1c-2.7.5-4.5 3.1-4.1 5.8.4 2.5 2.5 4.2 4.9 4.2zm14.5-2.5c.3 0 .6 0 .9-.1l.7-.1c2.7-.5 4.5-3.1 4.1-5.8s-3.1-4.5-5.8-4.1l-.7.1c-2.7.5-4.5 3.1-4.1 5.8.4 2.4 2.5 4.2 4.9 4.2zm46.6 76.5c.1-2.8-2.1-5-4.9-5.1h-.7-.1c-2.7 0-4.9 2.2-5 4.9-.1 2.8 2.1 5 4.9 5.1H190.3c2.7 0 5-2.2 5-4.9zm9.1-4.8c-2.7 0-5 2.1-5.1 4.9-.1 2.8 2.1 5 4.9 5.1h.9c2.7 0 4.9-2.2 5-4.9.1-2.8-2.1-5-4.9-5.1h-.8zm-36.2-51.5c-2.6-1-5.5.3-6.4 2.9l-.3.7c-1 2.6.3 5.5 2.9 6.4.6.2 1.2.3 1.8.3 2 0 3.9-1.2 4.7-3.2l.3-.7c.9-2.5-.4-5.4-3-6.4zm7.9-6.7l.3-.7c1-2.6-.3-5.5-2.9-6.4-2.6-1-5.5.3-6.4 2.9l-.3.7c-1 2.6.3 5.5 2.9 6.4.6.2 1.2.3 1.8.3 1.9.1 3.8-1.2 4.6-3.2zm-54.4 109.1c-2.5-1.2-5.5-.3-6.7 2.2l-.3.7c-1.2 2.5-.3 5.5 2.2 6.7.7.4 1.5.5 2.3.5 1.8 0 3.6-1 4.5-2.7l.3-.7c1.2-2.5.2-5.5-2.3-6.7zm8.5-5.8l.3-.7c1.2-2.5.3-5.5-2.2-6.7-2.5-1.2-5.5-.3-6.7 2.2l-.3.7c-1.2 2.5-.3 5.5 2.2 6.7.7.4 1.5.5 2.3.5 1.8 0 3.6-1 4.4-2.7zm52.9 15.9c1 1.5 2.6 2.3 4.2 2.3.9 0 1.8-.3 2.7-.8 2.3-1.5 3-4.6 1.5-6.9l-.4-.6c-1.5-2.3-4.6-3-6.9-1.5-2.3 1.5-3 4.6-1.5 6.9l.4.6zm.5-17.9l-.4-.6c-1.5-2.3-4.6-3-6.9-1.5-2.3 1.5-3 4.6-1.5 6.9l.4.6c1 1.5 2.6 2.3 4.2 2.3.9 0 1.8-.3 2.7-.8 2.3-1.4 3-4.5 1.5-6.9zm-58.7-38.4c.1-2.8-2.1-5-4.9-5.1h-.8c-2.7 0-5 2.1-5.1 4.9-.1 2.8 2.1 5 4.9 5.1h.9c2.7-.1 5-2.2 5-4.9zm-19.6-5.5h-.8c-2.8-.1-5 2.1-5.1 4.9-.1 2.8 2.1 5 4.9 5.1h.9c2.7 0 4.9-2.2 5-4.9 0-2.7-2.2-5-4.9-5.1zM67.8 101c-2.6-.9-5.5.5-6.4 3.1l-.2.7c-.9 2.6.5 5.5 3.1 6.4.5.2 1.1.3 1.6.3 2.1 0 4-1.3 4.7-3.4l.2-.7c1-2.7-.4-5.5-3-6.4zm7.7-6.9l.2-.7c.9-2.6-.5-5.5-3.1-6.4-2.6-.9-5.5.5-6.4 3.1l-.2.7c-.9 2.6.5 5.5 3.1 6.4.5.2 1.1.3 1.6.3 2.1 0 4.1-1.3 4.8-3.4zm7.3 97.4c-2.1 1.8-2.4 4.9-.7 7l.5.6c1 1.2 2.4 1.8 3.9 1.8 1.1 0 2.2-.4 3.2-1.1 2.1-1.8 2.4-4.9.7-7l-.5-.6c-1.8-2.1-5-2.4-7.1-.7zm-5.7-1.9c1.1 0 2.2-.4 3.2-1.1 2.1-1.8 2.4-4.9.7-7l-.5-.6c-1.8-2.1-4.9-2.4-7-.7-2.1 1.8-2.4 4.9-.7 7l.5.6c.9 1.2 2.3 1.8 3.8 1.8z"/><path d="M43.6 147.5l-32.4-17.1-6.4 9.5 30.8 17.7zm7.7 0l8 10.1 30.9-17.7-6.5-10.2zm-3.9-3.6l31.7-17.4-31.6-14.9-31.6 15.6z" class="st3"/><path d="M35 163l-22.1-12.7v16.6l32.1 17v-30l-6.8 8.5c-.8.9-2.1 1.2-3.2.6zm24.9 0c-1.1.6-2.4.4-3.2-.6l-6.8-8.5v29.9L82 166.2v-15.9L59.9 163zM187.2 47.1l8-10-32.4-17.2-6.4 9.6zm23.7 0l30.9-17.6-6.5-10.2L202.9 37zm19.8-31L199.1 1.2l-31.6 15.6L199 33.4z" class="st3"/><path d="M196.6 43.4l-6.8 8.5c-.8 1-2.1 1.2-3.2.6l-22.1-12.7v16.6l32.1 17v-30zm11.7 8.5l-6.8-8.5v29.9l32.1-17.6V39.8l-22.1 12.7c-1 .6-2.4.4-3.2-.6zM193 243.1l8-10-32.4-17.2-6.4 9.6zm15.7-10.1l8 10.1 30.9-17.7-6.5-10.2zm27.8-20.9l-31.6-14.9-31.6 15.6 31.5 16.6z" class="st3"/><path d="M192.4 248.5l-22.1-12.7v16.6l32.1 17v-30l-6.8 8.5c-.8 1-2.1 1.2-3.2.6zm21.7-.6l-6.8-8.5v29.9l32.1-17.6v-15.9l-22.1 12.7c-1 .6-2.4.4-3.2-.6zm-63.1-122c.9.3 1.8.4 2.7.6.5.1.9.1 1.4.1.5 0 .9 0 1.4-.1.9-.1 1.8-.3 2.7-.6.4-.1.9-.3 1.3-.5.9-.4 1.6-.8 2.4-1.3 0 0 .1 0 .1-.1 1.4-1 2.6-2.2 3.6-3.6.5-.7.9-1.5 1.3-2.3.4-.8.6-1.6.8-2.4 0-.1.1-.1.1-.2.2-.9.3-1.8.3-2.8 0-.5 0-.9-.1-1.4-.4-4.5-3.1-8.4-6.8-10.6-.5-.3-1-.6-1.6-.8-.7-.3-1.6-.6-2.3-.7-.6-.1-1.1-.2-1.6-.3-.5-.1-.9-.1-1.4-.1-.5 0-.9 0-1.4.1-.6.1-1.1.1-1.6.3-.8.2-1.6.4-2.3.7-.9.4-1.6.8-2.3 1.3-.7.5-1.4 1.1-2.1 1.7-.6.6-1.2 1.3-1.7 2.1-.5.7-.9 1.5-1.3 2.3-.3.7-.6 1.6-.7 2.3-.1.6-.2 1.1-.3 1.6-.1.5-.1.9-.1 1.4 0 .9.1 1.9.3 2.8.1 1 .4 1.8.7 2.7.4.9.8 1.6 1.3 2.3.5.7 1.1 1.4 1.7 2.1.6.6 1.3 1.1 2 1.6.8.5 1.6.9 2.4 1.3.2.2.7.4 1.1.5zm4.1 45.2H157.5c.4 0 .8 0 1.2-.1.4 0 .7 0 1.1-.1.4 0 .9-.1 1.2-.1.4 0 .7-.1 1-.1.4-.1.9-.1 1.3-.1.4-.1.6-.1 1-.1.4-.1.9-.1 1.3-.1.3-.1.6-.1.9-.1.4-.1.9-.1 1.3-.2.3-.1.6-.1.9-.1l1.5-.3c.2-.1.5-.1.7-.1.7-.1 1.5-.4 2.2-.5.7-.1 1.5-.4 2.1-.6l2.1-.9c1.3-.7 2.6-1.6 3.8-2.5.6-.6.9-1.3 1-2.1 0-.1.1-.3 0-.4v-5.3c0-8.3-3.8-16-10.2-21.1-.5-.4-1-.8-1.5-1.1-1.1-.7-2.1-1.3-3.3-1.9-1.1-.6-2.3-1.1-3.5-1.4-1.2-.4-2.4-.7-3.6-.9-.8-.1-1.6-.3-2.5-.4s-1.6-.1-2.5-.1c-9.8 0-18.3 5.2-23.1 13-.4.7-.9 1.5-1.3 2.3-.6 1.2-1.1 2.4-1.4 3.7-.8 2.6-1.2 5.3-1.2 8v5.3c0 .2 0 .4.1.6.1.6.4 1.3.9 1.7 1.1 1.1 2.4 1.9 4 2.6 2.1 1 4.6 1.7 7.2 2.2 1.3.3 2.6.5 3.8.6 1.6.2 3.3.4 4.7.5 1.1.1 2.3.1 3.2.2h3.2zM88.8 36.3c.9.3 1.8.4 2.7.6.5.1.9.1 1.4.1.5 0 .9 0 1.4-.1.9-.1 1.8-.3 2.7-.6.4-.1.9-.3 1.3-.5.9-.4 1.6-.8 2.4-1.3 0 0 .1 0 .1-.1 1.4-1 2.6-2.2 3.6-3.6.5-.7.9-1.5 1.3-2.3.4-.8.6-1.6.8-2.4 0-.1.1-.1.1-.2.2-.9.3-1.8.3-2.8 0-.5 0-.9-.1-1.4-.4-4.5-3.1-8.4-6.8-10.6-.5-.3-1-.6-1.6-.8-.7-.3-1.6-.6-2.3-.7-.6-.1-1.1-.2-1.6-.3-.5-.1-1-.1-1.5-.1s-.9 0-1.4.1c-.6 0-1.1.1-1.6.3-.8.2-1.6.4-2.3.7-.9.4-1.6.8-2.3 1.3s-1.4 1.1-2.1 1.7-1.2 1.3-1.7 2.1c-.5.7-.9 1.5-1.3 2.3-.3.7-.6 1.6-.7 2.3-.1.6-.2 1.1-.3 1.6-.1.5-.1.9-.1 1.4 0 .9.1 1.9.3 2.8.1 1 .4 1.8.7 2.7.4.9.8 1.6 1.3 2.3.5.7 1.1 1.4 1.7 2.1.6.6 1.3 1.1 2 1.6.8.5 1.6.9 2.4 1.3.4.1.8.4 1.2.5zm-21.9 39c1.1 1.1 2.4 1.9 4 2.6 2.1 1 4.6 1.7 7.2 2.2 1.3.3 2.6.5 3.8.6 1.6.2 3.3.4 4.7.5 1.1.1 2.3.1 3.2.2 1.4.1 2.5.1 3.1.1H95.3c.4 0 .8 0 1.2-.1.4 0 .7 0 1.1-.1.4 0 .9-.1 1.2-.1.4 0 .7-.1 1-.1.4-.1.9-.1 1.3-.1.4-.1.6-.1 1-.1.4-.1.9-.1 1.3-.1.3-.1.6-.1.9-.1.4-.1.9-.1 1.3-.2.3-.1.6-.1.9-.1l1.5-.3c.2-.1.5-.1.7-.1.7-.1 1.5-.4 2.2-.5.7-.1 1.5-.4 2.1-.6l2.1-.9c1.3-.7 2.6-1.6 3.8-2.5.6-.6.9-1.3 1-2.1 0-.1.1-.3 0-.4v-5.3c0-8.3-3.8-16-10.2-21.1-.5-.4-1-.8-1.5-1.1-1.1-.7-2.1-1.3-3.3-1.9-1.1-.6-2.3-1.1-3.5-1.4-1.2-.4-2.4-.7-3.6-.9-.8-.1-1.6-.3-2.5-.4-.9-.1-1.6-.1-2.5-.1-9.8 0-18.3 5.2-23.1 13-.4.7-.9 1.5-1.3 2.3-.6 1.2-1.1 2.4-1.4 3.7-.8 2.6-1.2 5.3-1.2 8v5.3c0 .2 0 .4.1.6.2.5.5 1.1 1 1.6zm35.2 150.2c.9.3 1.8.4 2.7.6.5.1.9.1 1.4.1.5 0 .9 0 1.4-.1.9-.1 1.8-.3 2.7-.6.4-.1.9-.3 1.3-.5.9-.4 1.6-.8 2.4-1.3 0 0 .1 0 .1-.1 1.4-1 2.6-2.2 3.6-3.6.5-.7.9-1.5 1.3-2.3.4-.8.6-1.6.8-2.4 0-.1.1-.1.1-.2.2-.9.3-1.8.3-2.8 0-.5 0-.9-.1-1.4-.4-4.5-3.1-8.4-6.8-10.6-.5-.3-1-.6-1.6-.8-.7-.3-1.6-.6-2.3-.7-.6-.1-1.1-.2-1.6-.3-.5-.1-.9-.1-1.4-.1-.5 0-.9 0-1.4.1-.6.1-1.1.1-1.6.3-.8.2-1.6.4-2.3.7-.9.4-1.6.8-2.3 1.3s-1.4 1.1-2.1 1.7-1.2 1.3-1.7 2.1-.9 1.5-1.3 2.3c-.3.7-.6 1.6-.7 2.3-.1.6-.2 1.1-.3 1.6-.1.5-.1.9-.1 1.4 0 .9.1 1.9.3 2.8.1 1 .4 1.8.7 2.7.4.9.8 1.6 1.3 2.3.5.7 1.1 1.4 1.7 2.1.6.6 1.3 1.1 2 1.6.8.5 1.6.9 2.4 1.3.2.1.6.3 1.1.5zm31 31.3c0-8.3-3.8-16-10.2-21.1-.5-.4-1-.8-1.5-1.1-1.1-.7-2.1-1.3-3.3-1.9s-2.3-1.1-3.5-1.4c-1.2-.4-2.4-.7-3.6-.9-.8-.1-1.6-.3-2.5-.4-.9-.1-1.6-.1-2.5-.1-9.8 0-18.3 5.2-23.1 13-.4.7-.9 1.5-1.3 2.3-.6 1.2-1.1 2.4-1.4 3.7-.8 2.6-1.2 5.3-1.2 8v5.3c0 .2 0 .4.1.6.1.6.4 1.3.9 1.7 1.1 1.1 2.4 1.9 4 2.6 2.1 1 4.6 1.7 7.2 2.2 1.3.3 2.6.5 3.8.6 1.6.2 3.3.4 4.7.5 1.1.1 2.3.1 3.2.2 1.4.1 2.5.1 3.1.1H108.4c.4 0 .8 0 1.2-.1.4 0 .7 0 1.1-.1.4 0 .9-.1 1.2-.1.4 0 .7-.1 1-.1.4-.1.9-.1 1.3-.1.4-.1.6-.1 1-.1.4-.1.9-.1 1.3-.1.3-.1.6-.1.9-.1.4-.1.9-.1 1.3-.2.3-.1.6-.1.9-.1l1.5-.3c.2-.1.5-.1.7-.1.7-.1 1.5-.4 2.2-.5s1.5-.4 2.1-.6l2.1-.9c1.3-.7 2.6-1.6 3.8-2.5.6-.6.9-1.3 1-2.1 0-.1.1-.3 0-.4v-5.4zm92.4-147c-.3.7-.6 1.6-.7 2.3-.1.6-.2 1.1-.3 1.6-.1.5-.1.9-.1 1.4 0 .9.1 1.9.3 2.8.1 1 .4 1.8.7 2.7.4.9.8 1.6 1.3 2.3.5.7 1.1 1.4 1.7 2.1s1.3 1.1 2 1.6c.8.5 1.6.9 2.4 1.3.4.1.9.4 1.3.5.9.3 1.8.4 2.7.6.5.1.9.1 1.4.1.5 0 .9 0 1.4-.1.9-.1 1.8-.3 2.7-.6.4-.1.9-.3 1.3-.5.9-.4 1.6-.8 2.4-1.3 0 0 .1 0 .1-.1 1.4-1 2.6-2.2 3.6-3.6.5-.7.9-1.5 1.3-2.3.4-.8.6-1.6.8-2.4 0-.1.1-.1.1-.2.2-.9.3-1.8.3-2.8 0-.5 0-.9-.1-1.4-.4-4.5-3.1-8.4-6.8-10.6-.5-.3-1-.6-1.6-.8-.7-.3-1.6-.6-2.3-.7-.6-.1-1.1-.2-1.6-.3-.5-.1-.9-.1-1.4-.1s-.9 0-1.4.1c-.6.1-1.1.1-1.6.3-.8.2-1.6.4-2.3.7-.9.4-1.6.8-2.3 1.3-.7.5-1.4 1.1-2.1 1.7-.6.6-1.2 1.3-1.7 2.1-.7.7-1.1 1.4-1.5 2.3zm39.7 50c0-8.3-3.8-16-10.2-21.1-.5-.4-1-.8-1.5-1.1-1.1-.7-2.1-1.3-3.3-1.9s-2.3-1.1-3.5-1.4c-1.2-.4-2.4-.7-3.6-.9-.8-.1-1.6-.3-2.5-.4-.9-.1-1.6-.1-2.5-.1-9.8 0-18.3 5.2-23.1 13-.4.7-.9 1.5-1.3 2.3-.6 1.2-1.1 2.4-1.4 3.7-.8 2.6-1.2 5.3-1.2 8v5.3c0 .2 0 .4.1.6.1.6.4 1.3.9 1.7 1.1 1.1 2.4 1.9 4 2.6 2.1 1 4.6 1.7 7.2 2.2 1.3.3 2.6.5 3.8.6 1.6.2 3.3.4 4.7.5 1.1.1 2.3.1 3.2.2 1.4.1 2.5.1 3.1.1H240.5c.4 0 .8 0 1.2-.1.4 0 .7 0 1.1-.1.4 0 .9-.1 1.2-.1.4 0 .7-.1 1-.1.4-.1.9-.1 1.3-.1.4-.1.6-.1 1-.1.4-.1.9-.1 1.3-.1.3-.1.6-.1.9-.1.4-.1.9-.1 1.3-.2.3-.1.6-.1.9-.1l1.5-.3c.2-.1.5-.1.7-.1.7-.1 1.5-.4 2.2-.5.7-.1 1.5-.4 2.1-.6l2.1-.9c1.3-.7 2.6-1.6 3.8-2.5.6-.6.9-1.3 1-2.1 0-.1.1-.3 0-.4v-5.4z" class="st3"/></g></svg>