<svg xmlns="http://www.w3.org/2000/svg" role="img" viewBox="21.21 41.21 457.08 436.08"><title>LinuxBoot logo</title><path d="M316 110h1v1h-1zm-34 13h1v1h-1zm10 49h1v1h-1zm-14 22h1v1h-1zm50 57h1v1h-1zm-70 58h1v1h-1zm13 8h1v1h-1zm-29 25h1v1h-1z" fill="#1e1e1e"/><path d="M270 209h1v1h-1zm0 39h1v1h-1zm30 6h1v1h-1zm-28 34h1v1h-1zm74 21h1v1h-1zm-36 7h1v1h-1zm-12 1h1v1h-1zm-56 2h1v1h-1zm0 26h1v1h-1z" fill="#3e3e3e"/><path d="M333 107h1v1h-1zm-14 3h1v1h-1zm29 10h1v1h-1zm-136 10h1v1h-1zm110 9h1v1h-1zm8 115h1v1h-1zm-57 19h1v1h-1zm-13 24h1v1h-1zm-2 46h1v1h-1z" fill="#ddd"/><path d="M322 109h1v1h-1zm-23 188h1v1h-1zm-28 29h1v1h-1z" fill="#9b9b9b"/><path d="M306 113h1v1h-1zm-122 18h1v1h-1zm-15 4h1v1h-1zm-57 54h1v1h-1zm170 27h1v1h-1zm-5 38h1v1h-1zm22 26h1v1h-1zm58 22h1v1h-1z" fill="#111"/><path d="M216 130h1v1h-1zm-101 54h1v1h-1zm210 97h1v1h-1z" fill="#9a9a9a"/><path d="M251 135h1v1h-1zm-116 21h1v1h-1zm122 175h1v1h-1z" fill="#181818"/><path d="M285 211h1v1h-1zm-7 16h1v1h-1zm31 18h1v1h-1zm-51 101h1v1h-1z" fill="#bababa"/><path d="M360 114h1v1h-1zm-194 22h1v1h-1zm-19 10h1v1h-1zm143 64h1v1h-1zm69 98h1v1h-1zm1 13h1v1h-1zm-1 6h1v1h-1zm-102 10h1v1h-1zm-15 3h1v1h-1z" fill="#080808"/><path d="M292 119h1v1h-1zm8 42h1v1h-1zm-14 48h1v1h-1zm14 61h1v1h-1zm37 26h1v1h-1zm-27 5h1v1h-1zm32 0h1v1h-1z" fill="#bfbfbf"/><path d="M357 104h1v1h-1zm-5 14h1v1h-1zm-207 30h1v1h-1zm158 99h1v1h-1z" fill="#6d6d6d"/><path d="M375 104h1v1h-1zM273 277h1v1h-1zm-2 45h1v1h-1z" fill="#616161"/><path d="M377 104h1v1h-1zm-28 16h1v1h-1zm-44 36h1v1h-1zm-31 45h1v1h-1zm-32 145h1v1h-1z" fill="#484848"/><path d="M374 107h1v1h-1zm-66 46h1v1h-1zm-89 13h1v1h-1zm39 72h1v1h-1zm18 20h1v1h-1zm36 2h1v1h-1zm-67 30h1v1h-1zm53 24h1v1h-1zm-56 8h1v1h-1z" fill="#252525"/><path d="M327 135h1v1h-1zm-6 5h1v1h-1zm-48 62h1v1h-1zm64 68h1v1h-1zm-38 32h1v1h-1zm-40 3h1v1h-1zm99 2h1v1h-1zm-30 42h1v1h-1z" fill="#c3c3c3"/><path d="M159 140h1v1h-1zm-26 19h1v1h-1zm204 112h1v1h-1zm-37 2h1v1h-1zm37 2h1v1h-1z" fill="#d8d8d8"/><path d="M248 273h1v1h-1zm111 36h1v1h-1z" fill="#3d3d3d"/><path d="M335 129h1v1h-1zm-132 40h1v1h-1zm81 44h1v1h-1zm-8 19h1v1h-1zm34 71h1v1h-1zm-12 28h1v1h-1zm-188 2h1v1h-1z" fill="#aeaeae"/><path d="M216 172h1v1h-1zm70 8h1v1h-1zm32 78h1v1h-1zm4 4h1v1h-1zm-76 20h1v1h-1zm-121 67h1v1h-1z" fill="#787878"/><path d="M242 314h1v1h-1zm16 1h1v1h-1zm90 5h1v1h-1z" fill="#8b8b8b"/><path d="M356 104h1v1h-1zm-39 6h1v1h-1zm-35 125h1v1h-1zm20 13h1v1h-1zm-59 56h1v1h-1zm15 8h1v1h-1zm88 32h1v1h-1z" fill="#5f5f5f"/><path d="M304 157h1v1h-1zm-18 65h1v1h-1zm-18 33h1v1h-1zm31 33h1v1h-1z" fill="#525252"/><path d="M290 207h1v1h-1zm-39 51h1v1h-1zm10 32h1v1h-1zm82 12h1v1h-1zm2 42h1v1h-1z" fill="#e5e5e5"/><path d="M249 267h1v1h-1zm-2 9h1v1h-1zm-2 11h1v1h-1zm16 1h1v1h-1zm-2 15h1v1h-1zm51 3h1v1h-1zm-190 41h1v1h-1z" fill="#959595"/><path d="M300 271h1v1h-1zm10 29h1v1h-1zm49 12h1v1h-1z" fill="#c8c8c8"/><path d="M371 108h1v1h-1zm-144 23h1v1h-1zm34 3h1v1h-1zm27 81h1v1h-1zm35 33h1v1h-1zm-57 15h1v1h-1z" fill="#757575"/><path d="M345 122h1v1h-1zm-81 99h1v1h-1zm62 52h1v1h-1zm-64 10h1v1h-1zm36 51h1v1h-1zm-40 11h1v1h-1z" fill="#c6c6c6"/><path d="M281 187h1v1h-1zm-4 7h1v1h-1zm-25 60h1v1h-1zm67 4h1v1h-1zm28 32h1v1h-1zm4 4h1v1h-1zm-81 19h1v1h-1zm1 17h1v1h-1zm-30 3h1v1h-1z" fill="#f5f5f5"/><path d="M264 222h1v1h-1zm12 35h1v1h-1zm59 38h1v1h-1z" fill="#595959"/><path d="M330 107h1v1h-1zm35 4h1v1h-1zm-88 142h1v1h-1zm23 3h1v1h-1zm37 11h1v1h-1zm-65 67h1v1h-1z" fill="#4e4e4e"/><path d="M366 110h1v1h-1zm-219 37h1v1h-1zm71 13h1v1h-1zm-97 14h1v1h-1zm147 38h1v1h-1zm13 8h1v1h-1zm-4 31h1v1h-1zm-14 27h1v1h-1z" fill="#d0d0d0"/><path d="M130 162h1v1h-1zm122 93h1v1h-1zm91 32h1v1h-1zm-72 40h1v1h-1z" fill="#b1b1b1"/><path d="M277 195h1v1h-1zm-19 119h1v1h-1zm13 10h1v1h-1zm59 25h1v1h-1z" fill="#7c7c7c"/><path d="M176 133h1v1h-1zm-27 12h1v1h-1zm130 47h1v1h-1zm5 20h1v1h-1z" fill="#373737"/><path d="M268 213h1v1h-1zm32 44h1v1h-1zm-28 30h1v1h-1zm26 33h1v1h-1zm33 29h1v1h-1z" fill="#565656"/><path fill="#a9a9a9" d="M282 234h1v1h-1z"/><path d="M288 121h1v1h-1zm-113 13h1v1h-1zm44 35h1v1h-1zm67 51h1v1h-1zm-27 13h1v1h-1zm8 28h1v1h-1zm58 21h1v1h-1zm-55 28h1v1h-1z" fill="#ececec"/><path d="M284 123h1v1h-1zm45 10h1v1h-1zm-13 11h1v1h-1zm-103 30h1v1h-1zm75 2h1v1h-1zm-2 3h1v1h-1zm-1 44h1v1h-1zm-9 10h1v1h-1zm-7 21h1v1h-1zm42 11h1v1h-1zm-11 12h1v1h-1zm36 3h1v1h-1zm22 28h1v1h-1zm-88 6h1v1h-1zm39 10h1v1h-1zm-68 12h1v1h-1zm-120 11h1v1h-1z" fill="#f8f8f8"/><path d="M309 113h1v1h-1zm-6 2h1v1h-1zm53 0h1v1h-1zm-16 10h1v1h-1zm-75 93h1v1h-1zm15 5h1v1h-1zm42 38h1v1h-1zm-75 13h1v1h-1zm97 14h1v1h-1zm-100 3h1v1h-1zm-3 36h1v1h-1zm0 11h1v1h-1zm88 0h1v1h-1z" fill="#fafafa"/><path d="M232 132h1v1h-1zm64 34h1v1h-1zm-171 2h1v1h-1zm153 25h1v1h-1zm8 28h1v1h-1zm60 87h1v1h-1zm-37 26h1v1h-1z" fill="#a1a1a1"/><path d="M174 134h1v1h-1zm126 133h1v1h-1zm-54 14h1v1h-1zm113 30h1v1h-1z" fill="#a7a7a7"/><path d="M205 159h1v1h-1zm92 6h1v1h-1zm-32 102h1v1h-1z" fill="#737373"/><path d="M318 110h1v1h-1zm-10 135h1v1h-1zm18 5h1v1h-1zm-26 16h1v1h-1zm-27 9h1v1h-1zm-10 2h1v1h-1zm85 44h1v1h-1z" fill="#9f9f9f"/><path d="M276 126h1v1h-1zm20 41h1v1h-1zm-6 8h1v1h-1zm32 72h1v1h-1zm-69 7h1v1h-1zm59 9h1v1h-1zm-64 11h1v1h-1zm15 0h1v1h-1zm-16 5h1v1h-1zm63 43h1v1h-1zm33 9h1v1h-1zm-86 5h1v1h-1zm-142 8h1v1h-1zm230 1h1v1h-1zm-12 4h1v1h-1z" fill="#0a0a0a"/><path d="M240 133h1v1h-1zm12 2h1v1h-1zm48 27h1v1h-1zm-22 88h1v1h-1zm53 4h1v1h-1zm-19 8h1v1h-1zm25 4h1v1h-1zm-16 22h1v1h-1zm35 12h1v1h-1zm-114 24h1v1h-1z" fill="#141414"/><path d="M166 137h1v1h-1zm39 35h1v1h-1zm72 58h1v1h-1zm-32 55h1v1h-1zm25 24h1v1h-1z" fill="#eaeaea"/><path d="M314 147h1v1h-1zm-95 17h1v1h-1zm-98 9h1v1h-1zm168 3h1v1h-1zm-5 53h1v1h-1zm63 60h1v1h-1z" fill="#2f2f2f"/><path d="M314 245h1v1h-1zm-66 27h1v1h-1zm63 8h1v1h-1zm33 65h1v1h-1z" fill="#767676"/><path d="M245 288h1v1h-1zm95 46h1v1h-1zm13 4h1v1h-1z" fill="#707070"/><path d="M349 105h1v1h-1zm2 13h1v1h-1zm-149 12h1v1h-1zm6 0h2v1h-2zm2 0h1v1h-1zm104 16h1v1h-1zm-23 26h1v1h-1zm-33 151h1v1h-1zm90 19h1v1h-1z" fill="#eee"/><path d="M270 130h1v1h-1zm67 148h1v1h-1zm-14 13h1v1h-1zm-52 7h1v1h-1z" fill="#747474"/><path d="M323 138h1v1h-1zm-199 32h1v1h-1zm189 86h1v1h-1zm-38 3h1v1h-1zm50 8h1v1h-1zm1 11h1v1h-1zm14 8h1v1h-1z" fill="#f1f1f1"/><path d="M339 106h1v1h-1zm-161 27h1v1h-1zm110 72h1v1h-1zm23 66h1v1h-1zm46 33h1v1h-1zm-99 15h1v1h-1zm51 11h1v1h-1zm32 16h1v1h-1z" fill="#c4c4c4"/><path d="M358 114h1v1h-1zm-99 21h1v1h-1zm-55 36h1v1h-1zm132 124h1v1h-1zm-26 1h1v1h-1zm-11 11h1v1h-1zm-29 1h1v1h-1zm-157 32h1v1h-1zm6 6h1v1h-1z" fill="#ebebeb"/><path d="M218 161h1v1h-1zm73 45h1v1h-1zm-20 1h1v1h-1zm8 39h1v1h-1zm25 0h1v1h-1zm-50 4h1v1h-1zm65 9h1v1h-1zm41 60h1v1h-1z" fill="#343434"/><path d="M328 108h1v1h-1zm-218 88h1v1h-1zm218 56h1v1h-1zm-17 15h1v1h-1zm26 7h1v1h-1zm-95 35h1v1h-1z" fill="#e7e7e7"/><path d="M307 113h1v1h-1zm-149 27h1v1h-1zm142 118h1v1h-1zm-2 63h1v1h-1zm20 17h1v1h-1zm-76 10h1v1h-1zm94 0h1v1h-1z" fill="#5e5e5e"/><path d="M339 126h1v1h-1zm-52 52h1v1h-1zm3 24h1v1h-1zm43 56h1v1h-1zm3 7h1v1h-1zm-93 35h1v1h-1z" fill="#cecece"/><path d="M195 130h1v1h-1zm77 155h1v1h-1zm52 6h1v1h-1zm-53 6h1v1h-1zm85 4h1v1h-1zm-58 25h1v1h-1z" fill="#868686"/><path d="M343 105h1v1h-1zm-115 26h1v1h-1zm70 33h1v1h-1zm26 119h1v1h-1zm19 20h1v1h-1zm-85 8h1v1h-1z" fill="#4c4c4c"/><path d="M257 135h1v1h-1zm36 35h1v1h-1zm43 94h1v1h-1zm-64 72h1v1h-1z" fill="#848484"/><path d="M344 105h1v1h-1zm-141 57h1v1h-1zm97 97h1v1h-1zm36 23h1v1h-1zm-94 34h1v1h-1z" fill="#676767"/><path d="M312 111h1v1h-1zm30 14h1v1h-1zm-167 8h1v1h-1zm70 1h1v1h-1zm-116 28h1v1h-1zm164 9h1v1h-1zm-84 2h1v1h-1zm59 41h1v1h-1zm19 6h1v1h-1zm-25 8h1v1h-1zm11 10h1v1h-1zm8 2h1v1h-1zm-9 1h1v1h-1zm-1 3h1v1h-1zm-1 3h1v1h-1zm42 17h1v1h-1zm8 25h1v1h-1zm27 34h1v1h-1zm-105 3h1v1h-1zm87 11h1v1h-1zm-215 6h1v1h-1z" fill="#030303"/><path d="M278 125h1v1h-1zm-3 108h1v1h-1zm35 88h1v1h-1zm-198 19h1v1h-1z" fill="#121212"/><path d="M146 147h1v1h-1zm128 89h1v1h-1zm55 16h1v1h-1zm-30 31h1v1h-1z" fill="#2a2a2a"/><path fill="#858585" d="M140 152h1v1h-1z"/><path d="M360 113h1v1h-1zm-48 35h1v1h-1zm-4 4h1v1h-1zm-28 37h1v1h-1zm-1 36h1v1h-1zm-18 3h1v1h-1zm10 64h1v1h-1zm28 14h1v1h-1z" fill="#e3e3e3"/><path d="M223 131h1v1h-1zm71 37h1v1h-1zm-24 143h1v1h-1zm89 11h1v1h-1zm-50 3h1v1h-1z" fill="#efefef"/><path d="M301 160h1v1h-1zm-94 13h1v1h-1zm51 144h1v1h-1zm101 7h1v1h-1z" fill="#a8a8a8"/><path d="M274 238h1v1h-1zm-9 31h1v1h-1z" fill="#e4e4e4"/><path d="M334 106h1v1h-1zm-155 26h1v1h-1zm-22 8h1v1h-1zm164 1h1v1h-1zm-118 26h1v1h-1zm-81 4h1v1h-1zm166 7h1v1h-1zm-12 52h1v1h-1zm56 25h1v1h-1zm3 5h1v1h-1zm-11 22h1v1h-1zm-79 9h1v1h-1zm12 36h1v1h-1zm0 11h1v1h-1zm-141 7h1v1h-1zm209 5h1v1h-1z" fill="#050505"/><path d="M189 131h1v1h-1zm143 0h1v1h-1zm-91 3h1v1h-1zm46 83h1v1h-1zm30 40h1v1h-1zm-18 48h1v1h-1zm48 5h1v1h-1z" fill="#dbdbdb"/><path d="M373 104h1v1h-1zm-36 2h1v1h-1zm-104 26h1v1h-1zm92 5h1v1h-1zm-205 38h1v1h-1zm180 86h1v1h-1zm-2 63h1v1h-1zm24 14h1v1h-1z" fill="#777"/><path d="M377 106h1v1h-1zm-11 5h1v1h-1zm-2 1h1v1h-1zm-97 19h1v1h-1zm-31 1h1v1h-1zm-75 6h1v1h-1zm-6 3h1v1h-1zm165 1h1v1h-1zm-176 6h1v1h-1zm-5 4h1v1h-1zm141 39h1v1h-1zm-5 9h1v1h-1zm16 7h1v1h-1zm-22 5h1v1h-1zm-15 39h1v1h-1zm60 6h1v1h-1zm-15 21h1v1h-1zm26 0h1v1h-1zm-64 6h1v1h-1zm10 22h1v1h-1zm75 4h1v1h-1zm6 30h1v1h-1zm-5 4h1v1h-1zm-50 6h1v1h-1z" fill="#010101"/><path d="M218 170h1v1h-1zm-102 12h1v1h-1zm159 79h1v1h-1zm34 75h1v1h-1zm43 3h1v1h-1z" fill="#909090"/><path d="M378 105h1v1h-1zm-19 220h1v1h-1z" fill="#717171"/><path d="M311 112h1v1h-1zm26 157h1v1h-1zm-39 61h1v1h-1z" fill="#a6a6a6"/><path d="M294 118h1v1h-1zm-11 5h1v1h-1zm-40 179h1v1h-1zm55 26h1v1h-1z" fill="#969696"/><path d="M282 124h1v1h-1zm-79 6h1v1h-1zm-34 6h1v1h-1zm135 20h1v1h-1zm-182 17h1v1h-1zm-7 12h1v1h-1zm147 40h1v1h-1zm11 47h1v1h-1zm-10 7h1v1h-1zm-3 19h1v1h-1zm-18 10h1v1h-1zm16 17h1v1h-1zm100 2h1v1h-1zm-248 3h1v1h-1zm131 7h1v1h-1zm-129 1h1v1h-1zm17 11h1v1h-1z" fill="#f9f9f9"/><path d="M337 128h1v1h-1zm-93 6h1v1h-1zm71 12h1v1h-1zm-50 74h1v1h-1zm47 38h1v1h-1zm-52 34h1v1h-1zm71 1h1v1h-1zm21 1h1v1h-1zm-110 26h1v1h-1zm115 12h1v1h-1zm-233 17h1v1h-1z" fill="#363636"/><path d="M173 134h1v1h-1zm103 63h1v1h-1zm13 15h1v1h-1zm-8 7h1v1h-1zm29 93h1v1h-1zm28 23h1v1h-1z" fill="#606060"/><path d="M131 161h1v1h-1zm154 20h1v1h-1zm-28 58h1v1h-1zm67 26h1v1h-1zm-77 10h1v1h-1z" fill="#c9c9c9"/><path d="M345 105h1v1h-1zm-107 28h1v1h-1zm16 116h1v1h-1z" fill="#818181"/><path d="M359 104h1v1h-1zm-60 12h1v1h-1zm-20 9h1v1h-1zm59 2h1v1h-1zm-19 15h1v1h-1zm-209 53h1v1h-1zm201 83h1v1h-1z" fill="#888"/><path d="M372 108h1v1h-1zm-14 7h1v1h-1zm-22 14h1v1h-1zm-193 20h1v1h-1zm-12 11h1v1h-1zm87 9h1v1h-1zm32 96h1v1h-1zm21 39h1v1h-1zm0 12h1v1h-1zm-14 13h1v1h-1zm87 1h1v1h-1zm-87 4h1v1h-1z" fill="#101010"/><path d="M273 128h1v1h-1zm34 26h1v1h-1zm-35 51h1v1h-1zm-6 57h1v1h-1zm-4 18h1v1h-1zm66 12h1v1h-1z" fill="#323232"/><path d="M148 146h1v1h-1zm129 106h1v1h-1zm23 12h1v1h-1z" fill="#8f8f8f"/><path d="M358 104h1v1h-1zm-81 22h1v1h-1zm-19 111h1v1h-1zm79 31h1v1h-1zm-94 35h1v1h-1z" fill="#7b7b7b"/><path d="M353 117h1v1h-1zM250 262h1v1h-1zm61 7h1v1h-1zm-65 11h1v1h-1z" fill="#d6d6d6"/><path d="M265 133h1v1h-1zm-108 8h1v1h-1zm-23 17h1v1h-1zm68 6h1v1h-1zm81 66h1v1h-1zm-15 27h1v1h-1zm32 17h1v1h-1zm-42 47h1v1h-1z" fill="#e0e0e0"/><path d="M346 105h1v1h-1zm-48 224h1v1h-1z" fill="#9e9e9e"/><path d="M374 106h1v1h-1zm-40 1h1v1h-1zm-71 27h1v1h-1zm-99 4h1v1h-1zm-15 8h1v1h-1zm154 11h1v1h-1zm-101 6h1v1h-1zm95 1h1v1h-1zm-169 1h1v1h-1zm89 7h1v1h-1zm61 56h1v1h-1zm-18 2h1v1h-1zm-4 11h1v1h-1zm23 2h1v1h-1zm37 3h1v1h-1zm-2 10h1v1h-1zm22 10h1v1h-1zm-64 14h1v1h-1zm64 5h1v1h-1zm14 8h1v1h-1zm-80 13h1v1h-1zm78 7h1v1h-1zm7 21h1v1h-1zm-114 5h1v1h-1zm17 1h1v1h-1z" fill="#fdfdfd"/><path d="M368 109h1v1h-1zm-79 66h1v1h-1zm-19 75h1v1h-1zm56 22h1v1h-1zm-17 56h1v1h-1zm29 19h1v1h-1zm-4 1h1v1h-1z" fill="#d5d5d5"/><path d="M317 246h1v1h-1zm6 17h1v1h-1zm-24 41h1v1h-1zm-41 16h1v1h-1z" fill="#d3d3d3"/><path d="M342 105h1v1h-1zm-57 77h1v1h-1zm47 167h1v1h-1z" fill="#303030"/><path d="M336 106h1v1h-1zm40 0h1v1h-1zm-51 2h1v1h-1zm-50 19h1v1h-1zm-41 5h1v1h-1zm-74 7h1v1h-1zm187 173h1v1h-1zm-49 7h1v1h-1z" fill="#4d4d4d"/><path d="M332 107h1v1h-1zm2 187h1v1h-1zm-1 43h1v1h-1z" fill="#b4b4b4"/><path d="M309 112h1v1h-1zm-6 2h1v1h-1zm-32 15h1v1h-1zm30 120h1v1h-1zm54 49h1v1h-1zm-98 35h1v1h-1zm-15 8h1v1h-1zm-123 6h1v1h-1z" fill="#131313"/><path d="M359 114h1v1h-1zm-231 50h1v1h-1zm129 76h1v1h-1zm42 52h1v1h-1zm11 18h1v1h-1z" fill="#727272"/><path d="M296 117h1v1h-1zm-115 15h1v1h-1zm122 26h1v1h-1zm-28 76h1v1h-1zm32 11h1v1h-1z" fill="#6c6c6c"/><path d="M274 128h1v1h-1zm-76 2h1v1h-1zm64 4h1v1h-1zm25 73h1v1h-1zm1 7h1v1h-1zm43 41h1v1h-1zm-89 56h1v1h-1zm102 20h1v1h-1zm-17 7h1v1h-1z" fill="#c2c2c2"/><path d="M177 133h1v1h-1zm104 55h1v1h-1zm-2 36h1v1h-1zm22 26h1v1h-1zm-1 12h1v1h-1zm11 17h1v1h-1z" fill="#7f7f7f"/><path d="M250 135h1v1h-1zm-108 15h1v1h-1zm158 103h1v1h-1zm-48 4h1v1h-1zm92 30h1v1h-1zm-101 19h1v1h-1zm-1 37h1v1h-1z" fill="#282828"/><path d="M357 115h1v1h-1zm-98 119h1v1h-1zm17 22h1v1h-1zm22 71h1v1h-1z" fill="#8e8e8e"/><path d="M268 131h1v1h-1zm-4 140h1v1h-1zm46 42h1v1h-1zm-197 28h1v1h-1z" fill="#585858"/><path d="M216 158h1v1h-1zm42 78h1v1h-1zm62 11h1v1h-1zm-19 4h1v1h-1zm-174 98h1v1h-1z" fill="#d2d2d2"/><path d="M306 114h1v1h-1zm40 7h1v1h-1zm-9 6h1v1h-1zm-53 55h1v1h-1zm-29 62h1v1h-1zm49 3h1v1h-1zm28 10h1v1h-1zm-68 17h1v1h-1zm89 63h1v1h-1z" fill="#fbfbfb"/><path d="M276 127h1v1h-1zm52 7h1v1h-1zm-125 27h1v1h-1zm145 153h1v1h-1zm-50 23h1v1h-1zm30 1h1v1h-1z" fill="#dfdfdf"/><path d="M379 104h1v1h-1zm-33 18h1v1h-1zm-6 4h1v1h-1zm-81 109h1v1h-1zm53 24h1v1h-1zm-14 56h1v1h-1zm62 2h1v1h-1zm-118 4h1v1h-1z" fill="#2d2d2d"/><path d="M311 149h1v1h-1zm-1 1h1v1h-1zm-1 1h1v1h-1zm-26 33h1v1h-1zm51 76h1v1h-1zm-24 37h1v1h-1zm35 33h1v1h-1zm-234 6h1v1h-1zm12 12h1v1h-1z" fill="#e2e2e2"/><path d="M271 206h1v1h-1zm18 5h1v1h-1zm-9 11h1v1h-1zm52 71h1v1h-1zm-6 45h1v1h-1z" fill="#adadad"/><path d="M354 117h1v1h-1zm-135 50h1v1h-1zm43 60h1v1h-1zm48 88h1v1h-1zm-68 3h1v1h-1z" fill="#474747"/><path d="M351 119h1v1h-1zm-215 36h1v1h-1zm83 10h1v1h-1zm-103 16h1v1h-1zm147 44h1v1h-1zm48 66h1v1h-1zm31 11h1v1h-1z" fill="#171717"/><path d="M180 132h1v1h-1zm67 146h1v1h-1zm11 32h1v1h-1zm40 6h1v1h-1zm12 1h1v1h-1z" fill="#353535"/><path fill="#0f0f0f" d="M311 292h1v1h-1z"/><path d="M321 109h1v1h-1zm-104 62h1v1h-1zm34 89h1v1h-1zm9 33h1v1h-1z" fill="#5d5d5d"/><path d="M370 109h1v1h-1zm-8 4h1v1h-1zm-9 5h1v1h-1zm-63 1h1v1h-1zm-25 13h1v1h-1zm-115 12h1v1h-1zm136 37h1v1h-1zm-10 17h1v1h-1zm2 27h1v1h-1zm44 38h1v1h-1zm3 8h1v1h-1zm2 21h1v1h-1zm10 5h1v1h-1zm4 4h1v1h-1zm-43 9h1v1h-1zm-27 5h1v1h-1z" fill="#040404"/><path d="M364 111h1v1h-1zm-165 19h1v1h-1zm14 0h1v1h-1zm18 2h1v1h-1zm-21 42h1v1h-1zm64 26h1v1h-1zm36 45h1v1h-1zm1 0h1v1h-1zm-35 10h1v1h-1zm-12 18h1v1h-1zm45 56h1v1h-1z" fill="#ccc"/><path d="M362 112h1v1h-1zm-219 38h1v1h-1zm59 16h1v1h-1zm-84 13h1v1h-1zm208 98h1v1h-1zm20 12h1v1h-1zm13 34h1v1h-1zm-61 13h1v1h-1zm29 13h1v1h-1z" fill="#d7d7d7"/><path d="M260 134h1v1h-1zm51 155h1v1h-1zm49 27h1v1h-1z" fill="#292929"/><path d="M151 144h1v1h-1zm170 103h1v1h-1zm-5 10h1v1h-1zm-44 29h1v1h-1zm78 6h1v1h-1zm-92 21h1v1h-1z" fill="#6f6f6f"/><path d="M314 111h1v1h-1zm-14 152h1v1h-1zm48 54h1v1h-1zm-237 20h1v1h-1zm198 0h1v1h-1zm14 1h1v1h-1zm-201 10h1v1h-1z" fill="#878787"/><path d="M300 116h1v1h-1zm13 31h1v1h-1zm-47 69h1v1h-1zm7 25h1v1h-1zm-1 3h1v1h-1zm-1 3h1v1h-1zm7 0h1v1h-1zm44 1h1v1h-1zm-2 11h1v1h-1zm-72 11h1v1h-1zm89 2h1v1h-1zm0 1h1v1h-1zm-94 26h1v1h-1zm116 14h1v1h-1z" fill="#e9e9e9"/><path d="M285 122h1v1h-1zm-59 9h1v1h-1zm57 84h1v1h-1zm-21 67h1v1h-1zm62 56h1v1h-1z" fill="#949494"/><path d="M273 129h1v1h-1zm-66 1h1v1h-1zm-17 1h1v1h-1zm-18 4h1v1h-1zm152 2h1v1h-1zm-7 6h1v1h-1zm-203 44h1v1h-1zm174 26h1v1h-1zm-4 1h1v1h-1zm-8 40h1v1h-1zm-27 11h1v1h-1zm-3 14h1v1h-1zm64 15h1v1h-1zm-11 15h1v1h-1zm34 39h1v1h-1z" fill="#fcfcfc"/><path d="M125 167h1v1h-1zm152 29h1v1h-1zm15 7h1v1h-1zm35 47h1v1h-1zm-27 2h1v1h-1zm-1 27h1v1h-1zm41 6h1v1h-1zm6 3h1v1h-1zm-4 44h1v1h-1zm-5 3h1v1h-1z" fill="#090909"/><path d="M354 104h1v1h-1zm-74 117h1v1h-1zm-8 21h1v1h-1zm-1 3h1v1h-1zm66 34h1v1h-1zm-26 7h1v1h-1zm-67 10h1v1h-1z" fill="#434343"/><path d="M355 104h1v1h-1zm-61 65h1v1h-1zm-16 57h1v1h-1zm47 23h1v1h-1z" fill="#515151"/><path d="M360 104h1v1h-1zm-173 27h1v1h-1zm97 52h1v1h-1zm3 35h1v1h-1zm33 73h1v1h-1zm-21 4h1v1h-1z" fill="#8a8a8a"/><path d="M372 104h1v1h-1zm-54 142h1v1h-1zm14 10h1v1h-1zm-22 52h1v1h-1z" fill="#838383"/><path d="M305 114h1v1h-1zm-16 89h1v1h-1zm-29 28h1v1h-1zm66 43h1v1h-1z" fill="#b8b8b8"/><path d="M217 130h1v1h-1zm85 29h1v1h-1zm-28 78h1v1h-1zm-4 12h1v1h-1zm4 19h1v1h-1zm81 31h1v1h-1zm-84 26h1v1h-1z" fill="#898989"/><path d="M247 135h1v1h-1zm16 89h1v1h-1zm21 4h1v1h-1zm55 70h1v1h-1zm19 8h1v1h-1zm-10 12h1v1h-1zm-16 19h1v1h-1z" fill="#7d7d7d"/><path d="M119 177h1v1h-1zm192 97h1v1h-1zm-40 21h1v1h-1zm28 4h1v1h-1zm-173 50h1v1h-1z" fill="#ababab"/><path d="M353 104h1v1h-1zm-24 30h1v1h-1zm-75 1h1v1h-1zm69 150h1v1h-1zm-81 59h1v1h-1zm57 6h1v1h-1zm23 0h1v1h-1z" fill="#333"/><path d="M347 105h1v1h-1zm-150 25h1v1h-1zm40 3h1v1h-1zm-99 21h1v1h-1zm132 54h1v1h-1zm-4 56h1v1h-1zm34 5h1v1h-1zm36 12h1v1h-1zm-64 2h1v1h-1zm38 19h1v1h-1z" fill="#b7b7b7"/><path d="M361 113h1v1h-1zm-72 7h1v1h-1zm30 218h1v1h-1zm1 0h1v1h-1z" fill="#666"/><path d="M152 143h1v1h-1zm159 7h1v1h-1zm-1 1h1v1h-1zm-1 1h1v1h-1zm-98 5h1v1h-1zm84 11h1v1h-1zm-172 2h1v1h-1zm82 1h1v1h-1zm-95 23h1v1h-1zm167 34h1v1h-1zm-28 41h1v1h-1zm24 10h1v1h-1zm85 26h1v1h-1zm2 10h1v1h-1zm-20 32h1v1h-1z" fill="#232323"/><path d="M112 191h1v1h-1zm170 27h1v1h-1zm-19 5h1v1h-1zm61 26h1v1h-1zm-71 2h1v1h-1zm76 2h1v1h-1zm-20 73h1v1h-1zm-37 12h1v1h-1z" fill="#e6e6e6"/><path d="M352 104h1v1h-1zm-9 20h1v1h-1zm-33 195h1v1h-1z" fill="#242424"/><path d="M361 104h9v1h-9zm9 0h1v1h-1zm-32 2h1v1h-1zm-27 170h1v1h-1zm27 9h1v1h-1zm-67 11h1v1h-1zm-13 20h1v1h-1zm51 19h1v1h-1zm46 0h1v1h-1zm-20 13h1v1h-1z" fill="#999"/><path d="M335 106h1v1h-1zm-144 24h1v1h-1zm38 1h1v1h-1zm6 1h1v1h-1zm18 3h1v1h-1zm59 14h1v1h-1zm-186 17h1v1h-1zm-13 21h1v1h-1zm131 110h1v1h-1zm28 35h1v1h-1zm51 18h1v1h-1z" fill="#222"/><path d="M249 135h1v1h-1zm-95 7h1v1h-1zm127 97h1v1h-1zm52 18h1v1h-1zm13 70h1v1h-1zm-74 6h1v1h-1zm-162 2h1v1h-1zm211 15h1v1h-1z" fill="#383838"/><path d="M292 171h1v1h-1zm-17 89h1v1h-1zm-2 14h1v1h-1zm64 2h1v1h-1zm-66 18h1v1h-1zm27 39h1v1h-1z" fill="#bebebe"/><path d="M279 191h1v1h-1zm-10 19h1v1h-1zm10 34h1v1h-1zm-8 84h1v1h-1z" fill="#c7c7c7"/><path d="M121 50h1v1h-1zm1 0h1v1h-1zm1 0h1v1h-1zm1 0h1v1h-1zm1 0h1v1h-1zm1 0h1v1h-1zm1 0h1v1h-1zm1 0h1v1h-1zm1 0h1v1h-1zm1 0h239v53H130zm239 0h1v53h-1zm1 0h1v1h-1zm1 0h1v1h-1zm1 0h1v1h-1zm1 0h1v1h-1zm1 0h1v1h-1zm1 0h1v1h-1zm1 0h1v1h-1zm1 0h1v1h-1zm1 0h1v1h-1zm-261 1h1v1h-1zm1 0h1v1h-1zm1 0h1v1h-1zm1 0h1v1h-1z"/><path d="M121 51h256v52H121zm256 0h1v52h-1zm1 0h1v1h-1zm1 0h1v1h-1zm1 0h1v1h-1zm1 0h1v1h-1zm1 0h1v1h-1zm-268 1h1v1h-1zm1 0h1v1h-1zm1 0h1v1h-1zm1 0h1v1h-1z"/><path d="M118 52h263v51H118zm263 0h1v315h-1zm1 0h1v1h-1zm1 0h1v1h-1zm1 0h1v1h-1zm1 0h1v1h-1zm-273 1h1v1h-1zm1 0h1v1h-1zm1 0h1v1h-1z"/><path d="M115 53h269v50H115zm269 0h1v313h-1zm1 0h1v1h-1zm1 0h1v1h-1zm1 0h1v1h-1zm-277 1h1v1h-1zm1 0h1v1h-1zm1 0h1v1h-1z"/><path d="M113 54h273v49H113zm273 0h1v311h-1zm1 0h1v1h-1zm1 0h1v1h-1zm1 0h1v1h-1zm-280 1h1v1h-1zm1 0h1v1h-1z"/><path d="M111 55h277v48H111zm277 0h1v309h-1zm1 0h1v1h-1zm1 0h1v1h-1zm-283 1h1v1h-1zm1 0h1v1h-1z"/><path d="M109 56h281v47H109zm281 0h1v307h-1zm1 0h1v1h-1zm1 0h1v1h-1zm-286 1h1v1h-1zm1 0h1v1h-1z"/><path d="M108 57h283v46H108zm283 0h1v305h-1zm1 0h1v1h-1zm1 0h1v1h-1zm-289 1h1v1h-1zm1 0h1v1h-1z"/><path d="M106 58h287v45H106zm287 0h1v303h-1zm1 0h1v1h-1zm1 0h1v1h-1zm-292 1h1v1h-1zm1 0h1v1h-1z"/><path d="M105 59h289v44H105zm289 0h1v301h-1zm1 0h1v1h-1zm1 0h1v1h-1zm-294 1h1v1h-1zm1 0h1v1h-1z"/><path d="M104 60h291v43H104zm291 0h1v299h-1zm1 0h1v1h-1zm1 0h1v1h-1zm-296 1h1v1h-1zm1 0h1v1h-1z"/><path d="M103 61h293v42H103zm293 0h1v297h-1zm1 0h1v1h-1zm1 0h1v1h-1zm-298 1h1v1h-1zm1 0h1v1h-1z"/><path d="M102 62h295v41H102zm295 0h1v295h-1zm1 0h1v1h-1zm1 0h1v1h-1zM99 63h1v1h-1zm1 0h1v1h-1z"/><path d="M101 63h297v40H101zm297 0h1v293h-1zm1 0h1v1h-1zm1 0h1v1h-1zM98 64h1v1h-1zm1 0h1v1h-1z"/><path d="M100 64h299v39H100zm299 0h1v291h-1zm1 0h1v1h-1zm1 0h1v1h-1zM98 65h1v1h-1z"/><path d="M99 65h301v38H99zm301 0h1v289h-1zm1 0h1v1h-1zM97 66h1v1h-1z"/><path d="M98 66h303v37H98zm303 0h1v287h-1zm1 0h1v1h-1zM96 67h1v1h-1zm1 0h1v1h-1zm305 0h1v1h-1zm1 0h1v1h-1zM96 68h1v1h-1z"/><path d="M97 68h305v35H97zm305 0h1v283h-1zm1 0h1v1h-1zM95 69h1v1h-1z"/><path d="M96 69h307v34H96zm307 0h1v281h-1zm1 0h1v1h-1zM94 70h1v1h-1zm1 0h1v1h-1zm309 0h1v1h-1zm1 0h1v1h-1zM94 71h1v1h-1z"/><path d="M95 71h309v32H95zm309 0h1v277h-1zm1 0h1v1h-1zM93 72h1v1h-1zm1 0h1v1h-1zm311 0h1v1h-1zm1 0h1v1h-1zM93 73h1v1h-1z"/><path d="M94 73h311v30H94zm311 0h1v273h-1zm1 0h1v1h-1zM92 74h1v1h-1zm1 0h1v1h-1zm313 0h1v1h-1zm1 0h1v1h-1zM92 75h1v1h-1z"/><path d="M93 75h313v28H93zm313 0h1v269h-1zm1 0h1v1h-1zM92 76h1v1h-1zm315 0h1v1h-1zM91 77h1v1h-1zm1 0h1v1h-1zm315 0h1v1h-1zm1 0h1v1h-1zM91 78h1v1h-1z"/><path d="M92 78h315v25H92zm315 0h1v263h-1zm1 0h1v1h-1zM91 79h1v1h-1zm317 0h1v1h-1zM91 80h1v1h-1zm317 0h1v1h-1zM90 81h1v1h-1zm1 0h1v1h-1zm317 0h1v1h-1zm1 0h1v1h-1zM90 82h1v1h-1z"/><path d="M91 82h317v21H91zm317 0h1v255h-1zm1 0h1v1h-1zM90 83h1v1h-1zm319 0h1v1h-1zM90 84h1v1h-1zm319 0h1v1h-1zM90 85h1v1h-1zm319 0h1v1h-1zM90 86h1v1h-1zm319 0h1v1h-1zM90 87h1v1h-1zm319 0h1v1h-1zM90 88h1v1h-1zm319 0h1v1h-1zM90 89h1v1h-1zm319 0h1v1h-1zM42 90h1v1h-1zm1 0h1v1h-1zm1 0h1v1h-1zm1 0h1v1h-1zm1 0h1v1h-1zm1 0h1v1h-1z"/><path d="M48 90h403v13H48zm403 0h1v36h-1zm1 0h1v1h-1zm1 0h1v1h-1zm1 0h1v1h-1zm1 0h1v1h-1zm1 0h1v1h-1zm1 0h1v1h-1zM40 91h1v1h-1zm1 0h1v1h-1zm1 0h1v1h-1z"/><path d="M43 91h413v12H43zm413 0h1v34h-1zm1 0h1v1h-1zm1 0h1v1h-1zm1 0h1v1h-1zM38 92h1v1h-1zm1 0h1v1h-1zm1 0h1v1h-1z"/><path d="M41 92h417v11H41zm417 0h1v32h-1zm1 0h1v1h-1zm1 0h1v1h-1zm1 0h1v1h-1zM37 93h1v1h-1zm1 0h1v1h-1z"/><path d="M39 93h421v10H39zm421 0h1v30h-1zm1 0h1v1h-1zm1 0h1v1h-1zM35 94h1v1h-1zm1 0h1v1h-1zm1 0h1v1h-1z"/><path d="M38 94h423v9H38zm423 0h1v28h-1zm1 0h1v1h-1zm1 0h1v1h-1zM34 95h1v1h-1zm1 0h1v1h-1z"/><path d="M36 95h427v8H36zm427 0h1v26h-1zm1 0h1v1h-1zM34 96h1v1h-1z"/><path d="M35 96h429v7H35zm429 0h1v24h-1zm1 0h1v1h-1zM33 97h1v1h-1zm1 0h1v1h-1zm431 0h1v1h-1zm1 0h1v1h-1zM32 98h1v1h-1zm1 0h1v1h-1z"/><path d="M34 98h431v5H34zm431 0h1v21h-1zm1 0h1v1h-1zm1 0h1v1h-1zM32 99h1v1h-1z"/><path d="M33 99h433v4H33zm433 0h1v18h-1zm1 0h1v1h-1zm-436 1h1v1h-1zm1 0h1v1h-1zm435 0h1v1h-1zm1 0h1v1h-1zm-437 1h1v1h-1z"/><path d="M32 101h435v2H32zm435 0h1v15h-1zm1 0h1v1h-1zm-438 1h1v1h-1zm1 0h1v1h-1zm437 0h1v1h-1zm1 0h1v1h-1zm-439 1h1v1h-1z"/><path d="M31 103h437v1H31zm437 0h1v10h-1zm1 0h1v1h-1zm-439 1h1v1h-1zm1 0h318v1H31zm318 0h1v1h-1zm33 0h86v12h-86zm87 0h1v1h-1zm-439 1h1v1h-1zm1 0h309v1H31zm309 0h1v1h-1z"/><path d="M380 105h88v11h-88zm89 0h1v1h-1zm-439 1h1v1h-1zm1 0h302v1H31zm302 0h1v1h-1z"/><path d="M378 106h90v10h-90zm91 0h1v1h-1zm-439 1h1v1h-1zm1 0h297v1H31zm297 0h1v1h-1z"/><path d="M375 107h93v9h-93zm94 0h1v1h-1zm-439 1h1v1h-1zm1 0h292v1H31zm292 0h1v1h-1z"/><path d="M373 108h95v8h-95zm96 0h1v1h-1zm-439 1h1v1h-1zm1 0h288v1H31zm288 0h1v1h-1z"/><path d="M371 109h97v7h-97zm98 0h1v1h-1zm-439 1h1v1h-1zm1 0h284v1H31zm284 0h1v1h-1z"/><path d="M369 110h99v6h-99zm100 0h1v1h-1zm-439 1h1v1h-1zm1 0h280v1H31zm280 0h1v1h-1z"/><path d="M367 111h101v5H367zm102 0h1v1h-1zm-439 1h1v1h-1zm1 0h277v1H31zm277 0h1v1h-1z"/><path d="M365 112h103v4H365zm104 0h1v1h-1zm-439 1h1v1h-1zm1 0h274v1H31zm274 0h1v1h-1z"/><path d="M363 113h105v3H363zm105 0h1v1h-1zm1 0h1v1h-1zm-439 1h1v1h-1zm1 0h1v1h-1zm1 0h270v1H32zm270 0h1v1h-1z"/><path d="M361 114h106v3H361zm107 0h1v1h-1zm1 0h1v1h-1zm-438 1h1v1h-1zm1 0h267v1H32zm267 0h1v1h-1z"/><path d="M359 115h108v2H359zm109 0h1v1h-1zm-437 1h1v1h-1zm1 0h265v1H32zm265 0h1v1h-1z"/><path d="M357 116h110v1H357zm110 0h1v1h-1zm1 0h1v1h-1zm-436 1h1v1h-1zm1 0h261v1H33zm261 0h1v1h-1zm61 0h111v2H355zm111 0h1v1h-1zm1 0h1v1h-1zm-435 1h1v1h-1zm1 0h1v1h-1zm1 0h258v1H34zm258 0h1v1h-1z"/><path d="M354 118h111v2H354zm112 0h1v1h-1zm1 0h1v1h-1zm-434 1h1v1h-1zm1 0h255v1H34zm255 0h1v1h-1z"/><path d="M352 119h113v1H352zm113 0h1v1h-1zm1 0h1v1h-1zm-433 1h1v1h-1zm1 0h1v1h-1zm1 0h252v1H35zm252 0h1v1h-1zm63 0h114v1H350zm114 0h1v1h-1zm1 0h1v1h-1zm1 0h1v1h-1zm-432 1h1v1h-1zm1 0h1v1h-1zm1 0h249v1H36zm249 0h1v1h-1zm64 0h114v1H349zm114 0h1v1h-1zm1 0h1v1h-1zm1 0h1v1h-1zm-430 1h1v1h-1zm1 0h1v1h-1zm1 0h246v1H37zm246 0h1v1h-1zm64 0h115v1H347zm115 0h1v1h-1zm1 0h1v1h-1zm1 0h1v1h-1zm-428 1h1v1h-1zm1 0h1v1h-1zm1 0h1v1h-1zm1 0h242v1H39zm242 0h1v1h-1zm65 0h114v1H346zm114 0h1v1h-1zm1 0h1v1h-1zm1 0h1v1h-1zm1 0h1v1h-1zm-425 1h1v1h-1zm1 0h1v1h-1zm1 0h239v1H40zm239 0h1v1h-1zm65 0h115v1H344zm115 0h1v1h-1zm1 0h1v1h-1zm1 0h1v1h-1zm-422 1h1v1h-1zm1 0h1v1h-1zm1 0h1v1h-1zm1 0h235v1H42zm235 0h1v1h-1zm66 0h114v1H343zm114 0h1v1h-1zm1 0h1v1h-1zm1 0h1v1h-1zm1 0h1v1h-1zm-418 1h1v1h-1zm1 0h1v1h-1zm1 0h1v1h-1zm1 0h1v1h-1zm1 0h229v1H46zm229 0h1v1h-1zm66 0h112v1H341zm112 0h1v1h-1zm1 0h1v1h-1zm1 0h1v1h-1zm1 0h1v1h-1zm1 0h1v1h-1zm-411 1h1v1h-1zm1 0h1v1h-1zm1 0h41v1H48zm41 0h1v1h-1zm1 0h184v1H90zm184 0h1v1h-1zm66 0h69v157h-69zm69 0h1v202h-1zm1 0h41v1h-41zm41 0h1v1h-1zm1 0h1v1h-1zm1 0h1v1h-1zm-363 1h182v1H90zm182 0h1v1h-1z"/><path d="M338 128h71v156h-71zm-248 1h180v1H90zm180 0h1v1h-1z"/><path d="M337 129h72v136h-72zm-247 1h99v1H90zm99 0h1v1h-1zm34 0h45v1h-45zm45 0h1v1h-1z"/><path d="M335 130h74v129h-74zm-245 1h93v1H90zm93 0h1v1h-1zm48 0h35v1h-35zm35 0h1v1h-1z"/><path d="M334 131h75v126h-75zm-244 1h88v1H90zm88 0h1v1h-1zm59 0h27v1h-27zm27 0h1v1h-1z"/><path d="M333 132h76v124h-76zm-243 1h84v1H90zm84 0h1v1h-1zm67 0h21v1h-21zm21 0h1v1h-1z"/><path d="M331 133h78v120h-78zm-241 1h81v1H90zm81 0h1v1h-1zm75 0h13v1h-13zm13 0h1v1h-1z"/><path d="M330 134h79v118h-79zm-240 1h78v1H90zm78 0h1v1h-1z"/><path d="M329 135h80v116h-80zm-239 1h75v1H90zm75 0h1v1h-1z"/><path d="M328 136h81v114h-81zm-238 1h73v1H90zm73 0h1v1h-1z"/><path d="M326 137h83v112h-83zm-236 1h70v1H90zm70 0h1v1h-1z"/><path d="M325 138h84v110h-84zm-235 1h68v1H90zm68 0h1v1h-1z"/><path d="M324 139h85v108h-85zm-234 1h66v1H90zm66 0h1v1h-1z"/><path d="M323 140h86v107h-86zm-233 1h64v1H90zm64 0h1v1h-1z"/><path d="M322 141h87v105h-87zm-232 1h63v1H90zm63 0h1v1h-1z"/><path d="M321 142h88v104h-88zm-231 1h61v1H90zm61 0h1v1h-1z"/><path d="M319 143h90v102h-90zm-229 1h59v1H90zm59 0h1v1h-1z"/><path d="M318 144h91v101h-91zm-228 1h58v1H90zm58 0h1v1h-1z"/><path d="M317 145h92v100h-92zm-227 1h56v1H90zm56 0h1v1h-1z"/><path d="M316 146h93v98h-93zm-226 1h55v1H90zm55 0h1v1h-1z"/><path d="M315 147h94v97h-94zm-225 1h53v1H90zm53 0h1v1h-1z"/><path d="M314 148h95v96h-95zm-224 1h52v1H90zm52 0h1v1h-1z"/><path d="M313 149h96v95h-96zm-223 1h51v1H90zm51 0h1v1h-1z"/><path d="M312 150h97v94h-97zm-222 1h50v1H90zm50 0h1v1h-1z"/><path d="M311 151h98v93h-98zm-221 1h48v1H90zm48 0h1v1h-1z"/><path d="M310 152h99v92h-99zm-220 1h47v1H90zm47 0h1v1h-1z"/><path d="M309 153h100v91H309zm-219 1h46v1H90zm46 0h1v1h-1z"/><path d="M308 154h101v90H308zm-218 1h45v1H90zm45 0h1v1h-1z"/><path d="M307 155h102v89H307zm-217 1h44v1H90zm44 0h1v1h-1z"/><path d="M306 156h103v88H306zm-261 1h1v1h-1zm1 0h1v1h-1zm1 0h1v1h-1zm1 0h41v1H48zm41 0h1v1h-1zm1 0h43v1H90zm43 0h1v1h-1z"/><path d="M305 157h104v87H305zm105 0h41v1h-41zm41 0h1v1h-1zm1 0h1v1h-1zm1 0h1v1h-1zm1 0h1v1h-1zm-413 1h1v1h-1zm1 0h1v1h-1zm1 0h1v1h-1zm1 0h1v1h-1zm1 0h87v1H45zm87 0h1v1h-1zm76 0h6v14h-6zm6 0h1v14h-1z"/><path d="M304 158h150v35H304zm150 0h1v35h-1zm1 0h1v1h-1zm1 0h1v1h-1zm1 0h1v1h-1zm1 0h1v1h-1zm-419 1h1v1h-1zm1 0h1v1h-1zm1 0h1v1h-1zm1 0h89v1H42zm89 0h1v1h-1zm75 0h9v12h-9zm9 0h1v12h-1z"/><path d="M303 159h154v34H303zm154 0h1v33h-1zm1 0h1v1h-1zm1 0h1v1h-1zm1 0h1v1h-1zm-422 1h1v1h-1zm1 0h1v1h-1zm1 0h90v1H40zm90 0h1v1h-1zm75 0h11v10h-11zm11 0h1v11h-1zm242 0h1v32h-1zm1 0h1v31h-1zm1 0h1v1h-1zm1 0h1v1h-1zm-425 1h1v1h-1zm1 0h1v1h-1zm1 0h91v2H38zm91 0h1v1h-1zm88 0h1v9h-1z"/><path d="M302 161h159v30H302zm159 0h1v29h-1zm1 0h1v1h-1zm1 0h1v1h-1zm-428 1h1v1h-1zm1 0h1v1h-1zm1 0h91v2H37zm167 0h14v7h-14zm14 0h1v6h-1z"/><path d="M301 162h161v28H301zm161 0h1v27h-1zm1 0h1v1h-1zm1 0h1v1h-1zm-430 1h1v1h-1zm1 0h1v1h-1zm1 0h92v1H36zm92 0h1v1h-1z"/><path d="M300 163h163v26H300zm163 0h1v25h-1zm1 0h1v1h-1zm1 0h1v1h-1zm-432 1h1v1h-1zm1 0h1v1h-1zm1 0h92v1H35zm92 0h1v1h-1zm76 0h15v2h-15z"/><path d="M299 164h165v24H299zm165 0h1v23h-1zm1 0h1v1h-1zm1 0h1v1h-1zm-433 1h1v1h-1zm1 0h92v1H34zm92 0h1v1h-1z"/><path d="M298 165h167v22H298zm167 0h1v21h-1zm1 0h1v1h-1zm-434 1h1v1h-1zm1 0h1v1h-1zm1 0h91v2H34zm91 0h1v1h-1zm78 0h15v1h-15z"/><path d="M297 166h168v21H297zm169 0h1v1h-1zm1 0h1v1h-1zm-436 1h1v1h-1zm1 0h1v1h-1zm1 0h91v2H33zm433 0h1v18h-1zm1 0h1v1h-1zm-436 1h1v1h-1z"/><path d="M32 168h92v1H32zm92 0h1v1h-1zm94 0h1v1h-1zm78 0h171v17H296zm171 0h1v15h-1zm1 0h1v1h-1zm-437 1h1v1h-1zm1 0h91v1H32zm91 0h1v1h-1zm81 0h13v1h-13z"/><path d="M295 169h172v16H295zm173 0h1v1h-1zm-438 1h1v1h-1zm1 0h1v1h-1zm1 0h90v2H32zm90 0h1v1h-1zm83 0h12v1h-12zm12 0h1v1h-1z"/><path d="M294 170h173v15H294zm174 0h1v1h-1zm1 0h1v1h-1zm-439 1h1v1h-1zm1 0h90v2H31zm175 0h10v1h-10zm10 0h1v1h-1zm252 0h1v10h-1zm1 0h1v1h-1zm-439 1h1v1h-1zm91 0h1v1h-1zm86 0h7v1h-7zm7 0h1v1h-1z"/><path d="M293 172h175v11H293zm176 0h1v1h-1zm-439 1h1v1h-1zm1 0h89v2H31zm89 0h1v1h-1zm90 0h2v1h-2zm2 0h1v1h-1z"/><path d="M292 173h176v10H292zm177 0h1v1h-1zm-439 1h1v1h-1z"/><path d="M291 174h177v9H291zm178 0h1v1h-1zm-439 1h1v1h-1zm1 0h88v2H31zm88 0h1v1h-1zm350 0h1v1h-1zm-439 1h1v1h-1z"/><path d="M290 176h178v7H290zm179 0h1v1h-1zm-439 1h1v1h-1zm1 0h87v1H31zm87 0h1v1h-1z"/><path d="M289 177h179v6H289zm180 0h1v1h-1zm-439 1h1v1h-1zm1 0h86v2H31zm86 0h1v1h-1zm352 0h1v1h-1zm-439 1h1v1h-1z"/><path d="M288 179h180v4H288zm181 0h1v1h-1zm-439 1h1v1h-1zm1 0h85v1H31zm85 0h1v1h-1z"/><path d="M287 180h181v3H287zm182 0h1v1h-1zm-439 1h1v1h-1zm1 0h84v1H31zm84 0h1v1h-1zm353 0h1v1h-1zm1 0h1v1h-1zm-439 1h1v1h-1zm1 0h1v1h-1zm1 0h83v1H32zm83 0h1v1h-1z"/><path d="M286 182h181v3H286zm182 0h1v1h-1zm1 0h1v1h-1zm-438 1h1v1h-1zm1 0h82v1H32zm82 0h1v1h-1z"/><path d="M285 183h182v2H285zm182 0h1v1h-1zm1 0h1v1h-1zm-437 1h1v1h-1zm1 0h1v1h-1zm1 0h81v1H33zm81 0h1v1h-1zm353 0h1v1h-1zm1 0h1v1h-1zm-436 1h1v1h-1zm1 0h80v1H33zm80 0h1v1h-1zm171 0h182v1H284zm182 0h1v1h-1zm1 0h1v1h-1zm-435 1h1v1h-1zm1 0h1v1h-1zm1 0h79v1H34zm79 0h1v1h-1zm170 0h182v1H283zm182 0h1v1h-1zm1 0h1v1h-1zm1 0h1v1h-1zm-434 1h1v1h-1zm1 0h1v1h-1zm1 0h77v1H35zm77 0h1v1h-1zm171 0h181v1H283zm181 0h1v1h-1zm1 0h1v1h-1zm1 0h1v1h-1zm-432 1h1v1h-1zm1 0h1v1h-1zm1 0h76v1H36zm76 0h1v1h-1zm170 0h181v1H282zm181 0h1v1h-1zm1 0h1v1h-1zm1 0h1v1h-1zm-430 1h1v1h-1zm1 0h1v1h-1zm1 0h74v1H37zm74 0h1v1h-1zm171 0h180v1H282zm180 0h1v1h-1zm1 0h1v1h-1zm1 0h1v1h-1zm-428 1h1v1h-1zm1 0h1v1h-1zm1 0h73v1H38zm73 0h1v1h-1zm170 0h180v1H281zm180 0h1v1h-1zm1 0h1v1h-1zm1 0h1v1h-1zm-426 1h1v1h-1zm1 0h1v1h-1zm1 0h71v1H39zm71 0h1v2h-1zm171 0h179v1H281zm179 0h1v1h-1zm1 0h1v1h-1zm1 0h1v1h-1zm-424 1h1v1h-1zm1 0h1v1h-1zm1 0h1v1h-1zm1 0h69v1H41zm239 0h178v1H280zm178 0h1v1h-1zm1 0h1v1h-1zm1 0h1v1h-1zm1 0h1v1h-1zm-421 1h1v1h-1zm1 0h1v1h-1zm1 0h1v1h-1zm1 0h67v1H43zm67 0h1v1h-1zm169 0h177v1H279zm177 0h1v1h-1zm1 0h1v1h-1zm1 0h1v1h-1zm1 0h1v1h-1zm-416 1h1v1h-1zm1 0h1v1h-1zm1 0h1v1h-1zm1 0h1v1h-1zm1 0h1v1h-1zm1 0h1v1h-1zm1 0h40v1H49zm40 0h1v1h-1zm1 0h19v135H90zm19 0h1v169h-1zm170 0h130v6H279zm131 0h40v1h-40zm40 0h1v1h-1zm1 0h1v1h-1zm1 0h1v1h-1zm1 0h1v1h-1zm1 0h1v1h-1zm1 0h1v1h-1zm1 0h1v1h-1z"/><path d="M278 195h131v5H278z"/><path d="M277 197h132v3H277z"/><path d="M276 199h133v1H276zm0 1h133v1H276zm-1 1h14v2h-14zm14 0h1v1h-1zm3 0h117v1H292z"/><path d="M274 202h14v3h-14zm19 0h116v42H293zm-5 1h1v1h-1z"/><path d="M273 204h14v3h-14zm19 0h117v40H292zm-5 1h1v1h-1z"/><path d="M272 206h14v3h-14zm14 1h1v1h-1z"/><path d="M271 208h14v3h-14zm20 0h118v36H291zm-6 1h1v1h-1z"/><path d="M270 210h14v3h-14zm14 1h1v1h-1zm6 0h119v33H290zm-21 2h14v2h-14zm14 0h1v1h-1z"/><path d="M289 214h120v30H289zm-21 1h14v2h-14zm14 0h1v1h-1zm-15 2h14v3h-14zm14 0h1v1h-1z"/><path d="M288 217h121v27H288zm-22 2h14v3h-14zm14 1h1v1h-1z"/><path d="M265 221h14v3h-14zm22 0h122v23H287zm-8 1h1v1h-1zm-15 2h14v3h-14zm14 0h1v1h-1z"/><path d="M286 224h123v20H286zm-243 1h1v1h-1zm1 0h1v1h-1zm1 0h1v1h-1zm1 0h1v1h-1zm1 0h1v1h-1zm1 0h41v1H48zm41 0h1v1h-1zm321 0h41v1h-41zm41 0h1v1h-1zm1 0h1v1h-1zm1 0h1v1h-1zm1 0h1v1h-1zm1 0h1v1h-1zm1 0h1v1h-1zm-415 1h1v1h-1zm1 0h1v1h-1zm1 0h1v1h-1zm1 0h65v34H44zm219 0h14v3h-14zm147 0h45v35h-45zm45 0h1v34h-1zm1 0h1v1h-1zm1 0h1v1h-1zm1 0h1v1h-1zm-419 1h1v1h-1zm1 0h1v1h-1z"/><path d="M41 227h68v32H41zm236 0h1v1h-1zm8 0h173v17H285zm173 0h1v32h-1zm1 0h1v1h-1zm1 0h1v1h-1zm-423 1h1v1h-1zm1 0h1v1h-1z"/><path d="M39 228h70v30H39zm420 0h1v31h-1zm1 0h1v30h-1zm1 0h1v1h-1zm1 0h1v1h-1zm-426 1h1v1h-1zm1 0h1v1h-1z"/><path d="M38 229h71v29H38zm224 0h14v3h-14zm14 0h1v1h-1zm185 0h1v29h-1zm1 0h1v1h-1zm1 0h1v1h-1zm-428 1h1v1h-1zm1 0h1v1h-1z"/><path d="M37 230h72v27H37zm247 0h178v14H284zm178 0h1v27h-1zm1 0h1v1h-1zm1 0h1v1h-1zm-430 1h1v1h-1zm1 0h1v1h-1z"/><path d="M36 231h73v25H36zm225 0h14v4h-14zm202 0h1v25h-1zm1 0h1v1h-1zm1 0h1v1h-1zm-432 1h1v1h-1zm1 0h1v1h-1z"/><path d="M35 232h74v23H35zm240 0h1v1h-1zm189 0h1v23h-1zm1 0h1v1h-1zm1 0h1v1h-1zm-434 1h1v1h-1zm1 0h1v1h-1z"/><path d="M34 233h75v21H34zm431 0h1v21h-1zm1 0h1v1h-1zm1 0h1v1h-1zm-435 1h1v1h-1z"/><path d="M33 234h76v19H33zm227 0h14v3h-14zm23 0h183v10H283zm183 0h1v19h-1zm1 0h1v1h-1zm-436 1h1v1h-1zm1 0h1v1h-1zm242 0h1v1h-1zm193 0h1v1h-1zm1 0h1v1h-1zm-437 1h1v1h-1z"/><path d="M32 236h77v15H32zm227 0h14v4h-14zm208 0h1v15h-1zm1 0h1v1h-1zm-437 1h1v1h-1zm242 0h1v1h-1zm9 0h185v7H282zm186 0h1v1h-1zm-438 1h1v1h-1z"/><path d="M31 238h78v11H31zm437 0h1v10h-1zm1 0h1v1h-1zm-439 1h1v1h-1zm228 0h14v4h-14zm211 0h1v1h-1zm-439 1h1v1h-1zm242 0h1v1h-1zm197 0h1v1h-1zm-439 1h1v1h-1zm251 0h187v3H281zm188 0h1v1h-1zm-439 1h1v1h-1z"/><path d="M257 242h14v4h-14zm212 0h1v1h-1zm-439 1h1v1h-1zm241 0h1v1h-1zm198 0h1v1h-1zm-439 1h1v1h-1zm250 0h188v1H280zm189 0h1v1h-1zm-439 1h1v1h-1z"/><path d="M256 245h14v5h-14zm24 0h25v1h-25zm25 0h1v1h-1zm12 0h151v1H317zm152 0h1v1h-1zm-439 1h1v1h-1zm240 0h1v1h-1zm10 0h23v1h-23zm23 0h1v1h-1zm17 0h148v1H320zm149 0h1v1h-1zm-439 1h1v1h-1zm250 0h22v1h-22zm22 0h1v1h-1zm21 0h145v1H323zm146 0h1v1h-1zm-439 1h1v1h-1z"/><path d="M255 248h14v5h-14zm24 0h22v3h-22zm22 0h1v1h-1zm24 0h143v1H325zm143 0h1v1h-1zm1 0h1v1h-1zm-439 1h1v1h-1zm1 0h78v1H31zm295 0h141v1H326zm142 0h1v1h-1zm1 0h1v1h-1zm-438 1h1v1h-1zm238 0h1v1h-1zm59 0h139v1H328zm140 0h1v1h-1zm-437 1h1v1h-1zm1 0h77v1H32zm246 0h22v26h-22zm22 0h1v1h-1zm29 0h138v1H329zm138 0h1v1h-1zm1 0h1v1h-1zm-437 1h1v1h-1zm1 0h1v1h-1z"/><path d="M254 252h14v5h-14zm76 0h136v1H330zm137 0h1v1h-1zm1 0h1v1h-1zm-436 1h1v1h-1zm1 0h76v1H33zm235 0h1v1h-1zm63 0h135v1H331zm135 0h1v1h-1zm1 0h1v1h-1zm-434 1h1v1h-1zm1 0h75v1H34zm298 0h133v1H332zm133 0h1v1h-1zm1 0h1v1h-1zm-433 1h1v1h-1zm1 0h1v1h-1zm1 0h74v1H35z"/><path d="M253 255h14v5h-14zm24 0h22v54h-22zm179 0h8v1h-8zm8 0h1v1h-1zm1 0h1v1h-1zm1 0h1v1h-1zm-432 1h1v1h-1zm1 0h1v1h-1zm1 0h73v1H36zm297 0h130v1H333zm130 0h1v1h-1zm1 0h1v1h-1zm1 0h1v1h-1zm-430 1h1v1h-1zm1 0h1v1h-1zm1 0h72v1H37zm230 0h1v1h-1zm46 0h1v80h-1zm21 0h128v1H334zm128 0h1v1h-1zm1 0h1v1h-1zm1 0h1v1h-1zm-428 1h1v1h-1zm1 0h1v1h-1zm1 0h71v1H38z"/><path d="M252 258h14v6h-14zm62 0h2v79h-2zm2 0h1v79h-1zm140 0h5v1h-5zm5 0h1v1h-1zm1 0h1v1h-1zm1 0h1v1h-1zm-426 1h1v1h-1zm1 0h1v1h-1zm1 0h1v1h-1zm1 0h69v1H40zm277 0h1v78h-1zm1 0h1v78h-1zm17 0h124v1H335zm124 0h1v1h-1zm1 0h1v1h-1zm1 0h1v1h-1zm1 0h1v1h-1zm-423 1h1v1h-1zm1 0h1v1h-1zm1 0h1v1h-1zm1 0h67v1H42zm224 0h1v1h-1zm10 0h23v49h-23zm43 0h1v30h-1zm17 0h121v1H336zm121 0h1v1h-1zm1 0h1v1h-1zm1 0h1v1h-1zm1 0h1v1h-1zm-419 1h1v1h-1zm1 0h1v1h-1zm1 0h1v1h-1zm1 0h1v1h-1zm1 0h64v1H45zm275 0h1v27h-1zm16 0h118v1H336zm118 0h1v1h-1zm1 0h1v1h-1zm1 0h1v1h-1zm1 0h1v1h-1zm1 0h1v1h-1zm-414 1h1v1h-1zm1 0h1v1h-1zm1 0h1v1h-1zm1 0h1v1h-1zm1 0h41v1H48zm41 0h1v1h-1z"/><path d="M251 262h14v7h-14zm70 0h1v25h-1zm15 0h73v1h-73zm74 0h41v1h-41zm41 0h1v1h-1zm1 0h1v1h-1zm1 0h1v1h-1zm1 0h1v1h-1zm1 0h1v1h-1zm-190 2h1v1h-1zm57 0h1v22h-1z"/><path d="M312 265h11v21h-11zm11 0h1v19h-1zm14 0h72v1h-72zm-87 1h14v7h-14zm25 0h24v43h-24zm49 2h1v13h-1zm-60 1h1v1h-1z"/><path d="M249 270h14v8h-14zm76 2h1v5h-1zm-62 1h1v1h-1zm11 0h25v36h-25z"/><path d="M248 275h14v8h-14zm51 2h1v1h-1zm26 0h1v1h-1zm-63 1h1v1h-1z"/><path d="M247 280h14v10h-14zm26 1h25v56h-25zm51 0h1v1h-1zm13 0h72v3h-72zm-76 2h1v1h-1zm62 1h1v1h-1zm14 0h72v1h-72z"/><path d="M246 285h14v12h-14zm95 0h68v1h-68zm-29 1h10v1h-10zm10 0h1v1h-1zm21 0h66v1h-66zm-31 1h9v1h-9zm9 0h1v1h-1zm24 0h64v1h-64zm-33 1h8v2h-8zm8 0h1v1h-1zm27 0h62v1h-62zm1 1h61v1h-61zm-88 1h1v1h-1zm52 0h7v47h-7zm7 0h1v47h-1zm30 0h60v1h-60zm-77 1h26v39h-26zm78 0h59v1h-59z"/><path d="M245 292h14v15h-14zm75 0h6v45h-6zm6 0h1v45h-1zm25 0h58v1h-58zm-309 1h1v1h-1zm1 0h1v1h-1zm1 0h1v1h-1zm1 0h1v1h-1zm1 0h1v1h-1zm1 0h1v1h-1zm1 0h61v36H48zm279 0h3v43h-3zm3 0h1v43h-1zm22 0h99v1h-99zm99 0h1v36h-1zm1 0h1v1h-1zm1 0h1v1h-1zm1 0h1v1h-1zm1 0h1v1h-1zm1 0h1v1h-1zm1 0h1v1h-1zm-417 1h1v1h-1zm1 0h1v1h-1zm1 0h1v1h-1z"/><path d="M43 294h66v34H43zm268 0h21v42h-21zm21 0h1v42h-1zm21 0h103v1H353zm103 0h1v34h-1zm1 0h1v1h-1zm1 0h1v1h-1zm1 0h1v1h-1zm-421 1h1v1h-1zm1 0h1v1h-1zm1 0h1v1h-1z"/><path d="M41 295h68v32H41zm292 0h1v41h-1zm1 0h1v40h-1zm20 0h104v1H354zm104 0h1v32h-1zm1 0h1v1h-1zm1 0h1v1h-1zm1 0h1v1h-1zm-424 1h1v1h-1zm1 0h1v1h-1z"/><path d="M39 296h70v30H39zm296 0h1v39h-1zm19 0h106v1H354zm106 0h1v30h-1zm1 0h1v1h-1zm1 0h1v1h-1zm-426 1h1v1h-1zm1 0h1v1h-1z"/><path d="M38 297h71v28H38zm221 0h1v1h-1zm77 0h1v38h-1zm19 0h106v1H355zm106 0h1v28h-1zm1 0h1v1h-1zm1 0h1v1h-1zm-428 1h1v1h-1z"/><path d="M36 298h73v26H36zm301 0h1v36h-1zm1 0h1v36h-1zm18 0h107v1H356zm107 0h1v26h-1zm1 0h1v1h-1zm-430 1h1v1h-1z"/><path d="M35 299h74v24H35zm209 0h14v27h-14zm95 0h1v34h-1zm17 0h108v1H356zm108 0h1v24h-1zm1 0h1v1h-1zm-432 1h1v1h-1zm1 0h1v1h-1zm306 0h1v33h-1zm17 0h107v1H357zm108 0h1v1h-1zm1 0h1v1h-1zm-434 1h1v1h-1zm1 0h1v1h-1z"/><path d="M34 301h75v21H34zm323 0h108v1H357zm108 0h1v21h-1zm1 0h1v1h-1zm1 0h1v1h-1zm-435 1h1v1h-1z"/><path d="M33 302h76v18H33zm308 0h1v30h-1zm17 0h108v2H358zm108 0h1v18h-1zm1 0h1v1h-1zm-436 1h1v1h-1zm1 0h1v1h-1zm310 0h1v28h-1zm125 0h1v1h-1zm1 0h1v1h-1zm-437 1h1v1h-1z"/><path d="M32 304h77v15H32zm311 0h1v26h-1zm15 0h109v1H358zm109 0h1v15h-1zm1 0h1v1h-1zm-438 1h1v1h-1zm1 0h1v1h-1zm328 0h108v2H359zm109 0h1v1h-1zm1 0h1v1h-1zm-439 1h1v1h-1z"/><path d="M31 306h78v10H31zm313 0h1v23h-1zm124 0h1v10h-1zm1 0h1v1h-1zm-439 1h1v1h-1zm228 0h1v1h-1zm13 0h27v7h-27zm88 0h109v1H359zm110 0h1v1h-1zm-439 1h1v1h-1zm213 0h14v61h-14zm102 0h1v20h-1zm15 0h108v5H360zm109 0h1v1h-1zm-439 1h1v1h-1zm268 0h1v1h-1zm171 0h1v1h-1zm-439 1h1v1h-1zm439 0h1v1h-1zm-439 1h1v1h-1zm316 0h1v15h-1zm123 0h1v1h-1zm-439 1h1v1h-1zm439 0h1v1h-1zm-439 1h1v1h-1zm330 0h108v1H360zm109 0h1v1h-1zm-439 1h1v1h-1zm241 0h26v1h-26zm76 0h1v8h-1zm14 0h107v5H361zm108 0h1v1h-1zm-439 1h1v1h-1zm439 0h1v1h-1zm-439 1h1v1h-1zm1 0h78v1H31zm437 0h1v1h-1zm1 0h1v1h-1zm-439 1h1v1h-1zm1 0h1v1h-1zm437 0h1v1h-1zm1 0h1v1h-1zm-438 1h1v1h-1zm437 0h1v1h-1zm-437 1h1v1h-1zm1 0h77v1H32zm329 0h106v1H361zm106 0h1v1h-1zm1 0h1v1h-1zm-436 1h1v1h-1zm1 0h76v1H33zm328 0h105v2H361zm105 0h1v1h-1zm1 0h1v1h-1zm-435 1h1v1h-1zm1 0h1v1h-1zm433 0h1v1h-1zm1 0h1v1h-1zm-434 1h1v1h-1zm1 0h75v1H34zm313 0h1v1h-1zm13 0h105v1H360zm105 0h1v1h-1zm1 0h1v1h-1zm-433 1h1v1h-1zm1 0h1v1h-1zm1 0h74v1H35zm325 0h104v1H360zm104 0h1v1h-1zm1 0h1v1h-1zm1 0h1v1h-1zm-432 1h1v1h-1zm1 0h1v1h-1zm1 0h73v1H36z"/><path d="M310 324h36v4h-36zm50 0h103v1H360zm103 0h1v1h-1zm1 0h1v1h-1zm1 0h1v1h-1zm-430 1h1v1h-1zm1 0h1v1h-1zm1 0h72v1H37zm323 0h102v1H360zm102 0h1v1h-1zm1 0h1v1h-1zm1 0h1v1h-1zm-428 1h1v1h-1zm1 0h1v1h-1zm1 0h1v1h-1zm1 0h70v1H39zm218 0h1v1h-1zm89 0h1v1h-1zm14 0h100v1H360zm100 0h1v1h-1zm1 0h1v1h-1zm1 0h1v1h-1zm1 0h1v1h-1zm-425 1h1v1h-1zm1 0h1v1h-1zm1 0h69v1H40zm202 0h14v12h-14zm118 0h99v1h-99zm99 0h1v1h-1zm1 0h1v1h-1zm1 0h1v1h-1zm-422 1h1v1h-1zm1 0h1v1h-1zm1 0h1v1h-1zm1 0h67v1H42zm268 0h35v1h-35zm35 0h1v1h-1zm14 0h98v1h-98zm98 0h1v1h-1zm1 0h1v1h-1zm1 0h1v1h-1zm1 0h1v1h-1zm-418 1h1v1h-1zm1 0h1v1h-1zm1 0h1v1h-1zm1 0h1v1h-1zm1 0h63v1H46zm264 0h34v1h-34zm34 0h1v1h-1zm15 0h94v1h-94zm94 0h1v1h-1zm1 0h1v1h-1zm1 0h1v1h-1zm1 0h1v1h-1zm1 0h1v1h-1zm-411 1h1v1h-1zm1 0h1v1h-1zm1 0h41v1H48zm41 0h1v1h-1zm1 0h1v1h-1zm1 0h18v7H91zm181 0h25v1h-25zm38 0h33v1h-33zm33 0h1v1h-1zm16 0h49v11h-49zm50 0h1v1h-1zm1 0h41v1h-41zm41 0h1v1h-1zm1 0h1v1h-1zm1 0h1v1h-1zm-363 1h1v1h-1zm220 0h32v1h-32zm32 0h1v1h-1z"/><path d="M358 331h50v10h-50zm51 0h1v1h-1zm-319 1h1v1h-1zm220 0h31v1h-31zm31 0h1v1h-1zm68 0h1v1h-1zm-319 1h1v1h-1zm220 0h30v1h-30zm30 0h1v1h-1z"/><path d="M357 333h51v8h-51zm52 0h1v1h-1zm-319 1h1v1h-1zm220 0h28v1h-28zm28 0h1v1h-1zm71 0h1v1h-1zm-319 1h1v1h-1zm220 0h26v1h-26zm26 0h1v1h-1z"/><path d="M356 335h52v6h-52zm53 0h1v1h-1zm-319 1h1v1h-1zm220 0h23v1h-23zm23 0h1v1h-1zm76 0h1v1h-1zm-319 1h1v1h-1zm1 0h19v1H91zm19 0h1v26h-1zm163 0h24v1h-24zm24 0h1v1h-1zm13 0h18v1h-18zm18 0h1v1h-1z"/><path d="M355 337h53v4h-53zm53 0h1v1h-1zm1 0h1v1h-1zm-319 1h1v1h-1zm1 0h1v1h-1zm1 0h18v3H92z"/><path d="M354 338h53v6h-53zm54 0h1v1h-1zm1 0h1v1h-1zm-318 1h1v1h-1zm20 0h1v25h-1zm131 0h14v1h-14z"/><path d="M353 339h54v5h-54zm55 0h1v1h-1zm-317 1h1v1h-1zm166 0h1v29h-1zm151 0h1v1h-1zm-317 1h1v1h-1zm1 0h20v1H92zm20 0h1v23h-1z"/><path d="M351 341h56v3h-56zm56 0h1v1h-1zm1 0h1v1h-1zm-317 1h1v1h-1zm1 0h1v1h-1zm1 0h20v2H93zm20 0h1v23h-1z"/><path d="M350 342h56v4h-56zm57 0h1v1h-1zm1 0h1v1h-1zm-316 1h1v1h-1z"/><path d="M349 343h57v3h-57zm58 0h1v1h-1zm-315 1h1v1h-1zm1 0h21v1H93zm21 0h1v21h-1z"/><path d="M348 344h58v2h-58zm58 0h1v1h-1zm1 0h1v1h-1zm-315 1h1v1h-1zm1 0h1v1h-1zm1 0h21v1H94zm21 0h1v21h-1z"/><path d="M346 345h59v3h-59zm60 0h1v1h-1zm1 0h1v1h-1zm-314 1h1v1h-1zm1 0h23v1H94zm23 0h1v20h-1z"/><path d="M344 346h61v2h-61zm61 0h1v1h-1zm1 0h1v1h-1zm-313 1h1v1h-1zm1 0h1v1h-1zm1 0h23v1H95zm23 0h1v20h-1z"/><path d="M341 347h63v3h-63zm64 0h1v1h-1zm1 0h1v1h-1zm-312 1h1v1h-1zm1 0h25v1H95zm25 0h1v19h-1z"/><path d="M338 348h66v2h-66zm66 0h1v1h-1zm1 0h1v1h-1zm-311 1h1v1h-1zm1 0h1v1h-1zm1 0h26v1H96zm26 0h1v19h-1z"/><path d="M334 349h69v2h-69zm70 0h1v1h-1zm1 0h1v1h-1zm-310 1h1v1h-1zm1 0h200v1H96zm200 0h1v19h-1z"/><path d="M326 350h77v1h-77zm77 0h1v1h-1zm1 0h1v1h-1zm-308 1h1v1h-1zm1 0h305v1H97zm305 0h1v1h-1zm1 0h1v1h-1zm-307 1h1v1h-1zm1 0h1v1h-1zm1 0h303v1H98zm304 0h1v1h-1zm1 0h1v1h-1zm-306 1h1v1h-1zm1 0h303v1H98zm303 0h1v1h-1zm1 0h1v1h-1zm-304 1h1v1h-1zm1 0h301v1H99zm301 0h1v1h-1zm1 0h1v1h-1zm-303 1h1v1h-1zm1 0h1v1h-1zm1 0h299v1H100zm299 0h1v1h-1zm1 0h1v1h-1zm1 0h1v1h-1zm-302 1h1v1h-1zm1 0h1v1h-1zm1 0h297v1H101zm297 0h1v1h-1zm1 0h1v1h-1zm1 0h1v1h-1zm-300 1h1v1h-1zm1 0h1v1h-1zm1 0h295v1H102zm295 0h1v1h-1zm1 0h1v1h-1zm1 0h1v1h-1zm-298 1h1v1h-1zm1 0h1v1h-1zm1 0h293v1H103zm293 0h1v1h-1zm1 0h1v1h-1zm1 0h1v1h-1zm-296 1h1v1h-1zm1 0h1v1h-1zm1 0h291v1H104zm291 0h1v1h-1zm1 0h1v1h-1zm1 0h1v1h-1zm-294 1h1v1h-1zm1 0h1v1h-1zm1 0h289v1H105zm289 0h1v1h-1zm1 0h1v1h-1zm1 0h1v1h-1zm-292 1h1v1h-1zm1 0h1v1h-1zm1 0h287v1H106zm287 0h1v1h-1zm1 0h1v1h-1zm1 0h1v1h-1zm-289 1h1v1h-1zm1 0h1v1h-1zm1 0h283v1H108zm283 0h1v1h-1zm1 0h1v1h-1zm1 0h1v1h-1zm-286 1h1v1h-1zm1 0h1v1h-1zm1 0h281v1H109zm281 0h1v1h-1zm1 0h1v1h-1zm1 0h1v1h-1zm-283 1h1v1h-1zm1 0h1v1h-1zm1 0h277v1H111zm277 0h1v1h-1zm1 0h1v1h-1zm1 0h1v1h-1zm-280 1h1v1h-1zm1 0h1v1h-1zm1 0h1v1h-1zm1 0h273v1H113zm273 0h1v1h-1zm1 0h1v1h-1zm1 0h1v1h-1zm1 0h1v1h-1zm-277 1h1v1h-1zm1 0h1v1h-1zm1 0h1v1h-1zm1 0h269v1H115zm269 0h1v1h-1zm1 0h1v1h-1zm1 0h1v1h-1zm1 0h1v1h-1zm-273 1h1v1h-1zm1 0h1v1h-1zm1 0h1v1h-1zm1 0h1v1h-1zm1 0h263v1H118zm263 0h1v1h-1zm1 0h1v1h-1zm1 0h1v1h-1zm1 0h1v1h-1zm1 0h1v1h-1zm-268 1h1v1h-1zm1 0h1v1h-1zm1 0h1v1h-1zm1 0h1v1h-1zm1 0h1v1h-1zm1 0h255v1H122zm255 0h1v1h-1zm1 0h1v1h-1zm1 0h1v1h-1zm1 0h1v1h-1zm1 0h1v1h-1zm1 0h1v1h-1zm-261 1h1v1h-1zm1 0h1v1h-1zm1 0h1v1h-1zm1 0h1v1h-1zm1 0h1v1h-1zm1 0h1v1h-1zm1 0h1v1h-1zm1 0h1v1h-1zm1 0h1v1h-1zm1 0h239v1H130zm239 0h1v1h-1zm1 0h1v1h-1zm1 0h1v1h-1zm1 0h1v1h-1zm1 0h1v1h-1zm1 0h1v1h-1zm1 0h1v1h-1zm1 0h1v1h-1zm1 0h1v1h-1zm1 0h1v1h-1zM89 397h1v1h-1zm1 0h1v1h-1zm1 0h1v1h-1zm1 0h1v1h-1zm1 0h1v1h-1zm1 0h1v1h-1zm1 0h1v1h-1zm1 0h1v1h-1zm1 0h1v1h-1zm-10 1h1v1h-1zm1 0h1v1h-1zm1 0h1v1h-1zm1 0h6v11h-6zm6 0h1v11h-1zm1 0h1v1h-1zm1 0h1v1h-1zm-11 1h1v1h-1z"/><path d="M88 399h10v9H88zm10 0h1v9h-1zm1 0h1v1h-1zm-13 1h1v1h-1zm1 0h1v1h-1zm12 0h1v1h-1zm1 0h1v1h-1zm-62 1h1v1h-1zm1 0h12v1H39zm12 0h1v1h-1zm1 0h1v1h-1zm34 0h1v1h-1z"/><path d="M87 401h12v5H87zm12 0h1v5h-1zm1 0h1v1h-1zm177 0h1v1h-1zm1 0h16v1h-16zm16 0h1v1h-1zm1 0h1v1h-1zm1 0h1v1h-1zm1 0h1v1h-1zm1 0h1v1h-1zm1 0h1v1h-1zm1 0h1v1h-1zm1 0h1v1h-1zm1 0h1v1h-1zm-264 1h1v64h-1zm1 0h12v64H39zm12 0h1v64h-1zm1 0h1v52h-1zm34 0h1v1h-1zm14 0h1v1h-1zm177 0h1v64h-1zm1 0h24v5h-24zm24 0h1v6h-1zm1 0h1v1h-1zm1 0h1v1h-1zm1 0h1v1h-1zm1 0h1v1h-1zm1 0h1v1h-1zm-221 1h1v1h-1zm14 0h1v1h-1zm203 0h4v5h-4zm4 0h1v7h-1zm1 0h1v1h-1zm1 0h1v1h-1zm1 0h1v1h-1zm-224 1h1v1h-1zm14 0h1v1h-1zm208 0h1v7h-1zm1 0h1v8h-1zm1 0h1v1h-1zm1 0h1v1h-1zm1 0h1v1h-1zm-226 1h1v1h-1zm14 0h1v1h-1zm210 0h1v9h-1zm1 0h1v24h-1zm1 0h1v1h-1zm1 0h1v1h-1zm-227 1h1v1h-1zm1 0h12v1H87zm12 0h1v1h-1zm1 0h1v1h-1zm212 0h1v22h-1zm1 0h1v21h-1zm1 0h1v1h-1zm1 0h1v1h-1zm135 0h1v1h-1zm1 0h3v1h-3zm3 0h1v1h-1zm1 0h1v1h-1zm-369 1h1v1h-1zm1 0h1v1h-1zm12 0h1v1h-1zm1 0h1v1h-1z"/><path d="M278 407h36v1h-36zm36 0h1v20h-1zm1 0h1v1h-1zm135 0h1v1h-1zm1 0h3v57h-3zm3 0h1v58h-1zm1 0h1v9h-1zm-368 1h1v1h-1zm1 0h10v1H88zm10 0h1v1h-1zm1 0h1v1h-1zm179 0h6v58h-6zm6 0h1v58h-1zm1 0h1v1h-1zm1 0h9v1h-9zm9 0h1v1h-1zm1 0h1v1h-1zm1 0h1v1h-1zm1 0h1v1h-1zm1 0h1v1h-1zm1 0h1v1h-1zm1 0h13v1h-13zm14 0h1v1h-1zm1 0h1v1h-1zm133 0h1v1h-1zm1 0h1v1h-1zm-362 1h1v1h-1zm1 0h1v1h-1zm1 0h6v1h-6zm6 0h1v1h-1zm1 0h1v1h-1zm1 0h1v1h-1zm187 0h1v19h-1zm16 0h1v1h-1zm1 0h1v1h-1zm1 0h1v1h-1zm1 0h1v1h-1z"/><path d="M305 409h10v1h-10zm10 0h1v16h-1zm1 0h1v1h-1zm1 0h1v1h-1zm132 0h1v1h-1zm1 0h4v53h-4zm-361 1h1v1h-1zm1 0h1v1h-1zm1 0h1v1h-1zm1 0h1v1h-1zm1 0h1v1h-1zm1 0h1v1h-1zm1 0h1v1h-1zm1 0h1v1h-1zm1 0h1v1h-1zm208 0h1v1h-1zm1 0h1v1h-1z"/><path d="M307 410h9v1h-9zm9 0h1v14h-1zm1 0h1v1h-1zm132 0h1v1h-1zm-143 1h1v1h-1zm1 0h1v1h-1zm1 0h8v1h-8zm9 0h1v1h-1zm1 0h1v1h-1zm130 0h1v1h-1zm1 0h1v1h-1zm-141 1h1v1h-1z"/><path d="M309 412h8v1h-8zm8 0h1v10h-1zm1 0h1v1h-1zm130 0h1v1h-1zm1 0h5v49h-5zm-141 1h1v1h-1zm1 0h1v1h-1zm9 0h1v1h-1zm130 0h1v1h-1zm-139 1h1v1h-1zm1 0h7v1h-7zm8 0h1v1h-1zm129 0h1v1h-1zm1 0h1v1h-1zm-139 1h1v1h-1zm1 0h1v1h-1zm8 0h1v1h-1zm129 0h1v1h-1z"/><path d="M448 415h6v43h-6zm-362 1h1v1h-1zm1 0h12v1H87zm12 0h1v1h-1zm1 0h1v1h-1zm14 0h1v1h-1zm1 0h9v1h-9zm9 0h1v1h-1zm1 0h1v1h-1zm10 0h1v1h-1zm1 0h1v1h-1zm1 0h1v1h-1zm1 0h1v1h-1zm1 0h1v1h-1zm1 0h1v1h-1zm1 0h1v1h-1zm1 0h1v1h-1zm1 0h1v1h-1zm1 0h1v1h-1zm1 0h1v1h-1zm1 0h1v1h-1zm1 0h1v1h-1zm1 0h1v1h-1zm24 0h1v1h-1zm1 0h11v1h-11zm11 0h1v1h-1zm1 0h1v1h-1zm16 0h1v1h-1zm1 0h12v1h-12zm12 0h1v1h-1zm1 0h1v1h-1zm9 0h1v1h-1zm1 0h13v1h-13zm13 0h1v1h-1zm1 0h1v1h-1zm17 0h1v1h-1zm1 0h14v1h-14zm14 0h1v1h-1zm1 0h1v1h-1zm38 0h1v1h-1zm8 0h1v1h-1zm33 0h1v1h-1zm1 0h1v1h-1zm1 0h1v1h-1zm57 0h1v1h-1zm1 0h1v1h-1zm35 0h1v1h-1zm1 0h1v1h-1zm8 0h1v1h-1zm-369 1h1v49h-1zm1 0h12v49H87zm12 0h1v49h-1zm1 0h1v49h-1zm14 0h1v49h-1zm1 0h9v49h-9zm9 0h1v49h-1zm1 0h1v1h-1zm8 0h1v1h-1zm1 0h1v1h-1zm1 0h1v1h-1zm1 0h11v8h-11zm11 0h1v49h-1zm1 0h1v1h-1zm1 0h1v1h-1zm1 0h1v1h-1zm22 0h1v32h-1zm1 0h11v39h-11zm11 0h1v49h-1zm1 0h1v28h-1zm16 0h1v22h-1zm1 0h12v42h-12zm12 0h1v49h-1zm1 0h1v49h-1zm9 0h1v1h-1zm1 0h13v1h-13zm13 0h1v20h-1zm1 0h1v1h-1zm1 0h1v1h-1zm15 0h1v1h-1zm1 0h1v1h-1zm1 0h13v2h-13zm13 0h1v1h-1zm1 0h1v1h-1zm39 0h1v1h-1zm8 0h1v1h-1zm27 0h1v1h-1zm1 0h1v1h-1zm1 0h1v1h-1zm1 0h1v1h-1zm1 0h1v1h-1zm1 0h1v1h-1zm1 0h2v5h-2zm2 0h1v5h-1zm1 0h1v1h-1zm1 0h1v1h-1zm1 0h1v1h-1zm1 0h1v1h-1zm1 0h1v1h-1zm1 0h1v1h-1zm45 0h1v1h-1zm1 0h1v1h-1zm1 0h1v1h-1zm1 0h1v1h-1zm1 0h1v1h-1zm1 0h1v1h-1zm1 0h2v5h-2zm2 0h1v5h-1zm1 0h1v1h-1zm1 0h1v1h-1zm1 0h1v1h-1zm1 0h1v1h-1zm1 0h1v1h-1zm1 0h1v1h-1zm27 0h1v1h-1zm1 0h1v1h-1z"/><path d="M447 417h7v6h-7zm8 0h1v1h-1zm1 0h10v1h-10zm10 0h1v1h-1zm1 0h1v1h-1zm-342 1h1v1h-1zm6 0h1v1h-1zm1 0h1v1h-1zm1 0h1v1h-1zm1 0h15v7h-15zm15 0h1v48h-1zm1 0h1v1h-1zm1 0h1v1h-1zm1 0h1v1h-1zm72 0h1v1h-1zm1 0h1v1h-1zm1 0h13v1h-13zm13 0h1v20h-1zm1 0h1v1h-1zm15 0h1v1h-1zm1 0h13v2h-13zm14 0h1v1h-1zm1 0h1v1h-1zm39 0h1v1h-1zm8 0h1v1h-1zm24 0h1v1h-1zm1 0h1v1h-1zm1 0h1v1h-1zm1 0h1v1h-1zm1 0h12v4h-12zm12 0h1v5h-1zm1 0h1v1h-1zm1 0h1v1h-1zm1 0h1v1h-1zm40 0h1v1h-1zm1 0h1v1h-1zm1 0h1v1h-1zm1 0h13v4h-13zm13 0h1v5h-1zm1 0h1v1h-1zm1 0h1v1h-1zm1 0h1v1h-1zm23 0h1v1h-1zm1 0h1v1h-1z"/><path d="M445 418h21v5h-21zm21 0h1v5h-1zm1 0h1v5h-1zm-342 1h1v1h-1zm5 0h1v1h-1zm1 0h1v1h-1zm1 0h19v6h-19zm19 0h1v47h-1zm1 0h1v1h-1zm1 0h1v1h-1zm72 0h1v1h-1zm1 0h1v1h-1zm1 0h12v1h-12zm13 0h1v1h-1zm1 0h1v1h-1zm13 0h1v1h-1zm1 0h1v1h-1zm14 0h1v1h-1zm1 0h1v1h-1zm40 0h1v1h-1zm8 0h1v1h-1zm22 0h1v1h-1zm1 0h1v1h-1zm1 0h1v1h-1zm1 0h17v3h-17zm17 0h1v6h-1zm1 0h1v1h-1zm1 0h1v1h-1zm1 0h1v1h-1zm36 0h1v1h-1zm1 0h1v1h-1zm1 0h1v1h-1zm1 0h17v3h-17zm17 0h1v6h-1zm1 0h1v1h-1zm1 0h1v1h-1zm1 0h1v1h-1zm19 0h1v1h-1zm1 0h1v1h-1z"/><path d="M443 419h23v4h-23zm-318 1h1v46h-1zm1 0h1v1h-1zm3 0h1v1h-1zm1 0h1v1h-1zm1 0h21v5h-21zm21 0h1v46h-1zm1 0h1v1h-1zm1 0h1v1h-1zm72 0h1v1h-1zm1 0h13v1h-13zm13 0h1v20h-1zm1 0h1v1h-1zm13 0h1v1h-1zm1 0h13v2h-13zm13 0h1v1h-1zm1 0h1v1h-1zm41 0h1v1h-1zm8 0h1v1h-1zm21 0h1v1h-1zm1 0h1v1h-1zm1 0h21v2h-21zm21 0h1v7h-1zm1 0h1v1h-1zm1 0h1v1h-1zm34 0h1v1h-1zm1 0h1v1h-1zm1 0h21v2h-21zm21 0h1v7h-1zm1 0h1v1h-1zm1 0h1v1h-1zm17 0h1v1h-1z"/><path d="M441 420h25v3h-25zm-315 1h1v1h-1zm2 0h1v1h-1zm1 0h1v1h-1zm1 0h23v4h-23zm23 0h1v45h-1zm1 0h1v1h-1zm72 0h1v1h-1zm1 0h1v1h-1zm1 0h12v1h-12zm13 0h1v1h-1zm1 0h1v1h-1zm11 0h1v1h-1zm1 0h1v1h-1zm14 0h1v1h-1zm1 0h1v1h-1zm40 0h1v1h-1zm1 0h1v1h-1zm8 0h1v1h-1zm20 0h1v1h-1zm1 0h1v1h-1zm1 0h24v1h-24zm24 0h1v10h-1zm1 0h1v1h-1zm1 0h1v1h-1zm31 0h1v1h-1zm1 0h1v1h-1zm1 0h23v1h-23zm23 0h1v8h-1zm1 0h1v1h-1zm1 0h1v1h-1zm1 0h1v1h-1zm15 0h1v2h-1zm-314 1h1v1h-1zm2 0h1v1h-1z"/><path d="M129 422h25v3h-25zm25 0h1v44h-1zm1 0h1v1h-1zm72 0h1v1h-1zm1 0h1v1h-1zm1 0h12v1h-12zm12 0h1v38h-1zm1 0h1v1h-1zm11 0h1v1h-1zm1 0h13v1h-13zm13 0h1v1h-1zm1 0h1v1h-1zm41 0h1v1h-1zm1 0h7v2h-7zm7 0h1v1h-1zm1 0h1v1h-1zm19 0h1v1h-1zm1 0h1v1h-1zm1 0h26v1h-26zm26 0h1v14h-1zm1 0h1v1h-1zm1 0h1v1h-1zm29 0h1v1h-1zm1 0h27v1h-27zm27 0h1v14h-1zm1 0h1v1h-1zm-299 1h1v1h-1zm1 0h1v1h-1z"/><path d="M128 423h26v2h-26zm27 0h1v1h-1zm1 0h1v1h-1zm72 0h1v1h-1zm1 0h13v1h-13zm13 0h1v35h-1zm1 0h1v1h-1zm9 0h1v1h-1zm1 0h1v1h-1zm1 0h12v2h-12zm12 0h1v1h-1zm1 0h1v1h-1zm42 0h1v1h-1zm8 0h1v1h-1zm1 0h1v1h-1zm18 0h1v1h-1zm1 0h1v1h-1zm1 0h10v1h-10zm10 0h1v1h-1zm1 0h1v1h-1zm1 0h1v1h-1zm1 0h1v1h-1zm1 0h1v1h-1zm1 0h1v1h-1zm1 0h1v1h-1zm1 0h1v1h-1zm1 0h10v1h-10zm10 0h1v38h-1zm1 0h1v1h-1zm1 0h1v1h-1zm27 0h1v1h-1zm1 0h1v1h-1zm1 0h10v1h-10zm10 0h1v1h-1zm1 0h1v1h-1zm1 0h1v1h-1zm1 0h1v1h-1zm1 0h1v1h-1zm1 0h1v1h-1zm1 0h1v1h-1zm1 0h1v1h-1zm1 0h10v1h-10zm10 0h1v38h-1zm1 0h1v1h-1zm14 0h1v1h-1zm1 0h25v1h-25zm25 0h1v1h-1zm1 0h1v1h-1z"/><path d="M126 424h29v1h-29zm29 0h1v42h-1zm1 0h1v1h-1zm72 0h1v1h-1zm1 0h1v1h-1zm1 0h12v1h-12zm13 0h1v1h-1zm1 0h1v1h-1zm8 0h1v1h-1zm1 0h12v2h-12zm13 0h1v1h-1zm1 0h1v1h-1zm41 0h1v1h-1zm1 0h1v1h-1zm1 0h6v1h-6zm6 0h1v1h-1zm1 0h1v1h-1zm18 0h1v1h-1zm1 0h1v1h-1zm1 0h8v1h-8zm8 0h1v1h-1zm1 0h1v1h-1zm1 0h1v1h-1zm1 0h1v1h-1zm7 0h1v1h-1zm1 0h1v1h-1zm1 0h1v1h-1zm1 0h1v1h-1zm1 0h8v1h-8zm8 0h1v36h-1zm1 0h1v1h-1zm26 0h1v1h-1zm1 0h1v1h-1zm1 0h8v1h-8zm8 0h1v1h-1zm1 0h1v1h-1zm1 0h1v1h-1zm1 0h1v1h-1zm7 0h1v1h-1zm1 0h1v1h-1zm1 0h1v1h-1zm1 0h1v1h-1zm1 0h7v1h-7zm8 0h1v1h-1zm1 0h1v1h-1zm20 0h1v27h-1zm8 0h1v28h-1zm-329 1h29v1h-29zm30 0h1v1h-1zm73 0h1v1h-1zm1 0h1v1h-1zm1 0h12v1h-12zm12 0h1v32h-1zm1 0h1v1h-1zm7 0h1v1h-1z"/><path d="M252 425h13v1h-13zm13 0h1v1h-1zm1 0h1v1h-1zm42 0h1v1h-1zm1 0h6v2h-6zm6 0h1v1h-1zm1 0h1v1h-1zm1 0h1v1h-1zm17 0h1v1h-1zm1 0h1v1h-1zm1 0h7v1h-7zm7 0h1v1h-1zm1 0h1v1h-1zm1 0h1v1h-1zm1 0h1v1h-1zm12 0h1v1h-1zm1 0h1v1h-1zm1 0h7v1h-7zm8 0h1v1h-1zm1 0h1v1h-1zm24 0h1v1h-1zm1 0h1v1h-1zm1 0h7v1h-7zm7 0h1v1h-1zm1 0h1v1h-1zm1 0h1v1h-1zm13 0h1v1h-1zm1 0h1v1h-1zm1 0h7v1h-7zm7 0h1v35h-1zm1 0h1v1h-1zm1 0h1v1h-1zm-302 1h10v1h-10zm10 0h20v1h-20zm20 0h1v40h-1zm1 0h1v1h-1zm73 0h1v1h-1zm1 0h12v1h-12zm13 0h1v1h-1zm1 0h1v1h-1zm5 0h1v1h-1zm1 0h1v1h-1zm1 0h12v2h-12zm12 0h1v1h-1zm1 0h1v1h-1zm41 0h1v1h-1zm1 0h1v1h-1z"/><path d="M308 426h6v1h-6zm7 0h1v1h-1zm1 0h1v1h-1zm18 0h1v1h-1zm1 0h7v2h-7zm7 0h1v1h-1zm1 0h1v1h-1zm1 0h1v1h-1zm16 0h1v1h-1zm1 0h1v1h-1zm2 0h5v2h-5zm5 0h1v33h-1zm1 0h1v1h-1zm1 0h1v1h-1zm23 0h1v1h-1zm1 0h7v1h-7zm7 0h1v1h-1zm1 0h1v1h-1zm1 0h1v1h-1zm15 0h1v1h-1zm1 0h1v1h-1zm1 0h7v1h-7zm7 0h1v32h-1zm1 0h1v1h-1zm-302 1h6v1h-6zm6 0h1v1h-1zm1 0h1v1h-1zm1 0h1v1h-1zm1 0h1v1h-1zm1 0h1v1h-1zm2 0h1v1h-1zm1 0h1v1h-1zm1 0h1v1h-1zm1 0h1v1h-1zm1 0h14v1h-14zm15 0h1v1h-1zm73 0h1v1h-1zm1 0h1v1h-1zm1 0h12v1h-12zm12 0h1v28h-1zm1 0h1v1h-1zm5 0h1v1h-1zm1 0h12v2h-12zm13 0h1v1h-1zm1 0h1v1h-1zm40 0h1v1h-1zm1 0h1v1h-1zm1 0h7v1h-7zm7 0h1v1h-1zm1 0h1v1h-1zm18 0h1v1h-1zm1 0h1v1h-1zm8 0h1v1h-1zm1 0h1v1h-1zm18 0h1v1h-1z"/><path d="M362 427h7v1h-7zm7 0h1v30h-1zm1 0h1v1h-1zm22 0h1v1h-1zm1 0h1v1h-1zm1 0h6v2h-6zm6 0h1v1h-1zm1 0h1v1h-1zm1 0h1v1h-1zm18 0h1v1h-1zm1 0h7v1h-7zm7 0h1v30h-1zm1 0h1v1h-1zm-303 1h4v3h-4zm4 0h1v1h-1zm1 0h1v1h-1zm1 0h1v1h-1zm1 0h1v1h-1zm8 0h1v1h-1zm1 0h1v1h-1zm1 0h13v1h-13zm14 0h1v1h-1zm74 0h1v1h-1zm1 0h1v1h-1zm1 0h11v1h-11zm12 0h1v1h-1zm1 0h1v1h-1zm3 0h1v1h-1zm1 0h1v1h-1zm13 0h1v1h-1zm1 0h1v1h-1zm21 0h1v1h-1zm16 0h1v1h-1zm1 0h1v1h-1zm1 0h1v1h-1zm1 0h1v1h-1zm1 0h7v1h-7zm7 0h1v1h-1zm1 0h1v1h-1zm1 0h1v1h-1zm19 0h1v1h-1zm1 0h7v2h-7zm7 0h1v1h-1zm1 0h1v1h-1zm20 0h1v1h-1zm1 0h6v1h-6zm7 0h1v1h-1zm1 0h1v1h-1zm21 0h1v1h-1z"/><path d="M393 428h6v5h-6zm7 0h1v1h-1zm1 0h1v1h-1zm19 0h1v1h-1zm1 0h1v1h-1zm2 0h5v3h-5zm6 0h1v1h-1zm1 0h1v1h-1zm-300 1h1v1h-1zm1 0h1v1h-1zm11 0h1v1h-1zm1 0h13v1h-13zm14 0h1v1h-1zm75 0h1v1h-1zm1 0h12v1h-12zm12 0h1v24h-1zm1 0h1v1h-1zm3 0h1v1h-1zm1 0h12v2h-12zm12 0h1v1h-1zm1 0h1v1h-1zm22 0h1v1h-1zm1 0h10v1h-10zm10 0h1v1h-1zm1 0h1v1h-1zm1 0h1v1h-1zm1 0h1v1h-1zm1 0h1v1h-1zm1 0h1v1h-1zm1 0h9v1h-9zm9 0h1v1h-1zm1 0h1v1h-1zm1 0h1v1h-1zm19 0h1v1h-1zm1 0h1v1h-1zm8 0h1v1h-1zm21 0h1v1h-1zm1 0h1v1h-1zm7 0h1v26h-1zm1 0h1v1h-1zm20 0h1v1h-1zm1 0h1v1h-1zm7 0h1v1h-1zm1 0h1v1h-1zm21 0h1v1h-1z"/><path d="M422 429h7v1h-7zm7 0h1v26h-1zm1 0h1v1h-1zm-300 1h1v1h-1zm1 0h1v1h-1zm12 0h1v1h-1zm1 0h12v1h-12zm13 0h1v1h-1zm1 0h1v1h-1zm74 0h1v1h-1zm1 0h1v1h-1zm1 0h11v1h-11zm12 0h1v1h-1zm1 0h1v1h-1zm1 0h1v1h-1zm1 0h1v1h-1zm13 0h1v1h-1zm1 0h1v1h-1zm22 0h24v1h-24zm24 0h1v1h-1zm1 0h1v1h-1zm1 0h1v1h-1zm1 0h1v1h-1zm20 0h1v1h-1zm1 0h7v3h-7zm7 0h1v1h-1zm1 0h1v1h-1zm22 0h1v1h-1zm8 0h1v1h-1zm20 0h1v1h-1zm1 0h6v24h-6zm7 0h1v1h-1zm1 0h1v1h-1zm22 0h1v1h-1zm8 0h1v1h-1zm-304 1h3v3h-3zm3 0h1v1h-1zm1 0h1v1h-1zm13 0h1v1h-1zm1 0h13v1h-13zm13 0h1v35h-1zm1 0h1v1h-1zm75 0h1v1h-1zm1 0h12v1h-12zm12 0h1v20h-1zm1 0h1v1h-1zm1 0h1v1h-1zm1 0h12v1h-12zm12 0h1v1h-1zm1 0h1v1h-1zm23 0h21v4h-21zm21 0h1v5h-1zm1 0h1v1h-1zm1 0h1v1h-1zm1 0h1v1h-1zm1 0h1v1h-1zm22 0h1v1h-1zm8 0h1v1h-1zm23 0h1v1h-1zm1 0h7v1h-7zm7 0h1v22h-1zm1 0h1v1h-1zm19 0h1v1h-1zm8 0h1v1h-1zm23 0h1v1h-1zm1 0h6v1h-6zm7 0h1v1h-1zm1 0h1v1h-1zm-302 1h1v1h-1zm14 0h1v1h-1zm1 0h1v1h-1zm1 0h12v34h-12zm13 0h1v1h-1zm76 0h1v1h-1z"/><path d="M235 432h25v1h-25zm25 0h1v1h-1zm1 0h1v1h-1zm46 0h1v1h-1zm24 0h1v1h-1zm1 0h1v1h-1zm8 0h1v1h-1zm23 0h1v1h-1zm1 0h1v1h-1zm8 0h1v1h-1zm18 0h1v1h-1zm1 0h1v1h-1zm8 0h1v1h-1zm23 0h1v1h-1zm1 0h1v1h-1zm7 0h1v20h-1zm1 0h1v1h-1zm-302 1h1v1h-1zm15 0h1v1h-1zm14 0h1v1h-1zm76 0h1v1h-1zm1 0h1v1h-1zm1 0h23v1h-23zm23 0h1v1h-1zm1 0h1v1h-1zm1 0h1v1h-1zm46 0h1v1h-1zm1 0h1v1h-1zm1 0h1v1h-1zm1 0h1v1h-1zm21 0h1v1h-1zm1 0h7v17h-7zm7 0h1v1h-1zm1 0h1v1h-1zm24 0h1v1h-1zm8 0h1v1h-1zm18 0h1v1h-1zm1 0h7v18h-7zm7 0h1v1h-1zm1 0h1v1h-1zm24 0h1v1h-1zm8 0h1v1h-1zm-305 1h2v32h-2zm2 0h1v1h-1zm1 0h1v1h-1zm15 0h1v1h-1zm14 0h1v1h-1zm77 0h1v1h-1zm1 0h23v1h-23zm23 0h1v1h-1zm1 0h1v1h-1zm47 0h2v3h-2zm2 0h1v4h-1zm1 0h1v1h-1zm1 0h1v1h-1zm1 0h1v1h-1zm19 0h1v1h-1zm8 0h1v1h-1zm1 0h1v1h-1zm24 0h1v1h-1zm8 0h1v1h-1zm1 0h1v1h-1zm17 0h1v1h-1zm8 0h1v1h-1zm25 0h1v1h-1zm8 0h1v1h-1zm-303 1h1v1h-1zm1 0h1v1h-1zm15 0h1v1h-1zm14 0h1v31h-1zm78 0h1v1h-1zm1 0h21v1h-21zm21 0h1v1h-1zm1 0h1v1h-1z"/><path d="M285 435h27v1h-27zm27 0h1v27h-1zm1 0h1v1h-1zm1 0h1v1h-1zm17 0h1v1h-1zm8 0h1v1h-1zm25 0h1v1h-1zm8 0h1v14h-1zm1 0h1v1h-1zm17 0h1v1h-1zm8 0h1v1h-1zm25 0h1v1h-1zm8 0h1v1h-1zm1 0h1v1h-1zm-304 1h1v1h-1zm16 0h1v1h-1zm92 0h1v1h-1zm1 0h1v1h-1zm10 0h10v2h-10zm10 0h1v1h-1zm1 0h1v1h-1zm1 0h1v1h-1zm26 0h1v1h-1zm1 0h10v1h-10zm10 0h1v1h-1zm1 0h1v1h-1zm1 0h1v1h-1zm1 0h1v1h-1zm1 0h1v1h-1zm1 0h1v1h-1zm1 0h1v1h-1zm1 0h1v1h-1z"/><path d="M304 436h9v1h-9zm9 0h1v25h-1zm1 0h1v1h-1zm1 0h1v1h-1zm1 0h1v1h-1zm15 0h1v1h-1zm8 0h1v1h-1zm25 0h1v1h-1zm1 0h7v1h-7zm8 0h1v1h-1zm17 0h1v1h-1zm8 0h1v1h-1zm25 0h1v1h-1zm1 0h7v1h-7zm7 0h1v13h-1zm1 0h1v1h-1zm-304 1h1v1h-1zm16 0h1v1h-1zm93 0h1v1h-1zm1 0h19v1h-19zm19 0h1v1h-1zm1 0h1v1h-1zm27 0h1v22h-1zm18 0h1v1h-1zm1 0h1v1h-1zm1 0h1v1h-1zm1 0h1v1h-1z"/><path d="M307 437h8v1h-8zm8 0h1v23h-1zm1 0h1v1h-1zm1 0h1v1h-1zm14 0h1v1h-1zm8 0h1v1h-1zm26 0h1v1h-1zm8 0h1v1h-1zm16 0h1v1h-1zm1 0h1v1h-1zm8 0h1v1h-1zm25 0h1v1h-1zm1 0h1v1h-1zm8 0h1v1h-1zm-304 1h1v1h-1zm16 0h1v28h-1zm94 0h1v1h-1zm1 0h17v1h-17zm17 0h1v1h-1zm1 0h1v1h-1zm49 0h1v1h-1zm1 0h1v1h-1z"/><path d="M308 438h8v1h-8zm8 0h1v21h-1zm1 0h1v1h-1zm1 0h1v1h-1zm13 0h1v1h-1zm8 0h1v1h-1zm26 0h1v1h-1zm8 0h1v1h-1zm16 0h1v1h-1zm1 0h7v8h-7zm8 0h1v1h-1zm26 0h1v1h-1zm8 0h1v1h-1zm-304 1h1v1h-1zm73 0h1v1h-1zm37 0h1v1h-1zm1 0h1v1h-1zm8 0h8v10h-8zm8 0h1v1h-1zm1 0h1v1h-1zm1 0h1v1h-1zm51 0h1v1h-1zm1 0h1v1h-1z"/><path d="M310 439h7v1h-7zm7 0h1v18h-1zm1 0h1v1h-1zm12 0h1v1h-1zm1 0h7v5h-7zm8 0h1v1h-1zm26 0h1v1h-1zm8 0h1v1h-1zm16 0h1v1h-1zm9 0h1v1h-1zm26 0h1v1h-1zm8 0h1v1h-1zm-304 1h1v1h-1zm73 0h1v1h-1zm38 0h1v1h-1zm1 0h15v9h-15zm15 0h1v22h-1zm1 0h1v2h-1zm53 0h1v1h-1zm1 0h7v1h-7zm8 0h1v1h-1zm1 0h1v1h-1zm11 0h1v1h-1zm9 0h1v1h-1zm26 0h1v1h-1zm8 0h1v1h-1zm16 0h1v1h-1zm9 0h1v1h-1zm26 0h1v1h-1zm8 0h1v1h-1zm-304 1h1v1h-1zm73 0h1v1h-1zm38 0h1v1h-1zm71 0h1v1h-1z"/><path d="M311 441h7v1h-7zm7 0h1v14h-1zm1 0h1v1h-1zm11 0h1v1h-1zm9 0h1v1h-1zm26 0h1v1h-1zm8 0h1v1h-1zm16 0h1v1h-1zm9 0h1v1h-1zm26 0h1v1h-1zm8 0h1v1h-1zm-304 1h1v1h-1zm73 0h1v1h-1zm38 0h1v1h-1zm17 0h1v1h-1zm54 0h1v1h-1zm1 0h1v1h-1zm3 0h4v15h-4zm5 0h1v1h-1zm1 0h1v1h-1zm10 0h1v1h-1zm9 0h1v1h-1zm26 0h1v1h-1zm8 0h1v1h-1zm16 0h1v1h-1zm9 0h1v1h-1zm26 0h1v1h-1zm8 0h1v1h-1zm-304 1h1v1h-1zm73 0h1v1h-1zm37 0h1v1h-1zm1 0h1v1h-1zm17 0h1v1h-1zm1 0h1v1h-1zm54 0h1v1h-1zm8 0h1v9h-1zm1 0h1v1h-1zm10 0h1v1h-1zm9 0h1v1h-1zm26 0h1v1h-1zm8 0h1v1h-1zm16 0h1v1h-1zm9 0h1v1h-1zm26 0h1v1h-1zm8 0h1v1h-1zm-304 1h1v22h-1zm73 0h1v1h-1zm37 0h1v1h-1zm1 0h17v5h-17zm17 0h1v20h-1zm1 0h1v1h-1zm54 0h1v1h-1zm9 0h1v1h-1zm10 0h1v1h-1zm1 0h7v1h-7zm8 0h1v1h-1zm26 0h1v1h-1zm8 0h1v1h-1zm16 0h1v1h-1zm9 0h1v1h-1zm26 0h1v1h-1zm8 0h1v1h-1zm-247 1h1v1h-1zm16 0h1v1h-1zm36 0h1v1h-1z"/><path d="M238 445h19v4h-19zm19 0h1v20h-1zm1 0h1v1h-1zm53 0h1v1h-1zm9 0h1v1h-1zm10 0h1v1h-1zm1 0h1v1h-1zm8 0h1v1h-1zm26 0h1v1h-1zm8 0h1v1h-1zm16 0h1v1h-1zm9 0h1v1h-1zm26 0h1v1h-1zm8 0h1v1h-1zm-247 1h1v1h-1zm16 0h1v1h-1zm35 0h1v1h-1zm1 0h1v1h-1zm21 0h1v1h-1zm1 0h1v1h-1zm52 0h1v1h-1zm9 0h1v1h-1zm11 0h1v1h-1zm8 0h1v1h-1zm26 0h1v1h-1zm8 0h1v1h-1zm16 0h1v1h-1zm1 0h7v1h-7zm8 0h1v1h-1zm26 0h1v1h-1zm8 0h1v1h-1zm-247 1h1v1h-1zm16 0h1v1h-1zm35 0h1v1h-1z"/><path d="M237 447h21v2h-21zm21 0h1v19h-1zm1 0h1v1h-1zm52 0h1v1h-1zm9 0h1v1h-1zm11 0h1v1h-1zm8 0h1v1h-1zm26 0h1v1h-1zm8 0h1v1h-1zm17 0h1v1h-1zm8 0h1v1h-1zm25 0h1v1h-1zm1 0h7v5h-7zm8 0h1v1h-1zm-247 1h1v1h-1zm16 0h1v1h-1zm34 0h1v1h-1z"/><path d="M236 448h23v1h-23zm23 0h1v18h-1zm1 0h1v1h-1zm51 0h1v1h-1zm9 0h1v1h-1zm11 0h1v1h-1zm8 0h1v1h-1zm25 0h1v1h-1zm1 0h7v5h-7zm8 0h1v1h-1zm17 0h1v1h-1zm8 0h1v1h-1zm25 0h1v1h-1zm9 0h1v1h-1zm-260 1h1v1h-1zm13 0h1v1h-1zm16 0h1v1h-1zm33 0h1v1h-1zm1 0h1v1h-1zm1 0h23v1h-23zm24 0h1v1h-1zm1 0h1v1h-1zm50 0h1v1h-1zm9 0h1v1h-1zm11 0h1v1h-1zm8 0h1v1h-1zm25 0h1v1h-1zm8 0h1v1h-1zm1 0h1v1h-1zm17 0h1v1h-1zm8 0h1v1h-1zm25 0h1v1h-1zm8 0h1v1h-1zm1 0h1v1h-1zm-260 1h1v1h-1zm13 0h1v16h-1zm1 0h1v1h-1zm14 0h1v1h-1zm1 0h13v9h-13zm33 0h1v1h-1zm1 0h12v1h-12z"/><path d="M247 450h13v1h-13zm13 0h1v16h-1zm1 0h1v1h-1zm50 0h1v1h-1zm9 0h1v1h-1zm11 0h1v1h-1zm1 0h7v1h-7zm7 0h1v12h-1zm1 0h1v1h-1zm24 0h1v1h-1zm8 0h1v1h-1zm1 0h1v1h-1zm17 0h1v1h-1zm8 0h1v1h-1zm1 0h1v1h-1zm24 0h1v1h-1zm8 0h1v1h-1zm-259 1h1v1h-1zm14 0h1v1h-1zm14 0h1v1h-1zm33 0h1v1h-1zm1 0h12v2h-12zm12 0h1v1h-1zm1 0h1v1h-1zm1 0h1v1h-1z"/><path d="M249 451h12v1h-12zm12 0h1v15h-1zm1 0h1v1h-1zm49 0h1v1h-1zm9 0h1v1h-1zm11 0h1v1h-1zm1 0h1v1h-1zm1 0h6v2h-6zm7 0h1v1h-1zm24 0h1v1h-1zm8 0h1v1h-1zm18 0h1v1h-1zm1 0h7v1h-7zm7 0h1v11h-1zm1 0h1v1h-1zm24 0h1v1h-1zm8 0h1v1h-1zm16 0h1v1h-1zm-275 1h1v1h-1zm14 0h1v1h-1zm13 0h1v1h-1zm1 0h1v1h-1zm32 0h1v1h-1zm1 0h1v1h-1zm13 0h1v1h-1zm1 0h1v1h-1zm1 0h1v1h-1zm1 0h1v1h-1zm1 0h11v1h-11zm12 0h1v1h-1zm1 0h1v1h-1zm48 0h1v1h-1zm8 0h1v1h-1zm1 0h1v1h-1zm12 0h1v1h-1zm8 0h1v1h-1zm23 0h1v1h-1zm1 0h1v1h-1zm8 0h1v1h-1zm18 0h1v1h-1zm1 0h1v1h-1zm8 0h1v1h-1zm23 0h1v1h-1zm1 0h1v1h-1zm1 0h6v3h-6zm6 0h1v1h-1zm1 0h1v1h-1zm16 0h1v1h-1zm8 0h1v1h-1zm-283 1h1v1h-1zm14 0h1v1h-1zm1 0h1v1h-1zm12 0h1v1h-1zm1 0h14v6h-14zm32 0h1v1h-1zm1 0h12v2h-12zm12 0h1v1h-1zm1 0h1v1h-1zm3 0h1v1h-1z"/><path d="M250 453h12v1h-12zm12 0h1v13h-1zm1 0h1v1h-1zm47 0h1v1h-1zm1 0h1v1h-1zm8 0h1v1h-1zm1 0h1v1h-1zm12 0h1v1h-1zm1 0h6v1h-6zm7 0h1v1h-1zm1 0h1v1h-1zm22 0h1v1h-1zm1 0h7v2h-7zm7 0h1v1h-1zm1 0h1v1h-1zm19 0h1v1h-1zm8 0h1v1h-1zm23 0h1v1h-1zm1 0h6v4h-6zm7 0h1v1h-1zm1 0h1v1h-1zm16 0h1v1h-1zm8 0h1v1h-1zm-403 1h1v1h-1zm120 0h1v1h-1zm14 0h1v12h-1zm1 0h1v1h-1zm11 0h1v1h-1zm1 0h1v1h-1zm32 0h1v1h-1zm1 0h12v3h-12zm13 0h1v1h-1zm1 0h1v1h-1zm3 0h1v1h-1zm1 0h1v1h-1z"/><path d="M251 454h12v1h-12zm12 0h1v12h-1zm1 0h1v1h-1zm46 0h1v1h-1zm1 0h7v3h-7zm8 0h1v1h-1zm13 0h1v1h-1zm1 0h1v1h-1zm1 0h6v2h-6zm6 0h1v9h-1zm1 0h1v1h-1zm22 0h1v1h-1zm8 0h1v1h-1zm1 0h1v1h-1zm19 0h1v1h-1zm1 0h7v1h-7zm7 0h1v9h-1zm1 0h1v1h-1zm22 0h1v1h-1zm8 0h1v1h-1zm17 0h1v1h-1zm8 0h1v1h-1zm-403 1h1v1h-1zm1 0h22v1H53zm22 0h1v1h-1zm1 0h1v1h-1zm96 0h1v1h-1zm15 0h1v1h-1zm1 0h1v1h-1zm9 0h1v1h-1zm1 0h1v1h-1zm1 0h15v4h-15zm31 0h1v1h-1zm1 0h1v1h-1zm13 0h1v1h-1zm1 0h1v1h-1zm5 0h1v1h-1zm1 0h12v1h-12zm13 0h1v1h-1zm1 0h1v1h-1zm44 0h1v1h-1zm1 0h1v1h-1zm8 0h1v1h-1zm1 0h1v1h-1zm14 0h1v1h-1zm8 0h1v1h-1zm1 0h1v1h-1zm20 0h1v1h-1zm1 0h1v1h-1zm1 0h6v2h-6zm6 0h1v1h-1zm1 0h1v1h-1zm20 0h1v1h-1zm1 0h1v1h-1zm1 0h6v1h-6zm7 0h1v1h-1zm21 0h1v1h-1zm1 0h7v2h-7zm7 0h1v1h-1zm1 0h1v1h-1zm17 0h1v1h-1zm8 0h1v1h-1zm-403 1h23v10H52zm23 0h1v10h-1zm1 0h1v10h-1zm96 0h1v1h-1zm1 0h14v1h-14zm14 0h1v10h-1zm1 0h1v1h-1zm1 0h1v1h-1zm1 0h1v1h-1zm4 0h1v1h-1zm1 0h1v1h-1zm1 0h1v1h-1zm1 0h1v1h-1z"/><path d="M198 456h16v3h-16zm32 0h1v1h-1zm1 0h12v2h-12zm13 0h1v1h-1zm1 0h1v1h-1zm5 0h1v1h-1zm1 0h1v1h-1zm1 0h12v1h-12zm12 0h1v10h-1zm1 0h1v1h-1zm43 0h1v1h-1zm1 0h1v1h-1zm1 0h7v3h-7zm8 0h1v1h-1zm1 0h1v1h-1zm14 0h1v1h-1zm1 0h7v1h-7zm7 0h1v7h-1zm1 0h1v1h-1zm20 0h1v1h-1zm1 0h6v3h-6zm7 0h1v1h-1zm1 0h1v1h-1zm21 0h1v1h-1zm1 0h6v1h-6zm7 0h1v1h-1zm1 0h1v1h-1zm19 0h1v1h-1zm1 0h1v1h-1zm8 0h1v1h-1zm1 0h1v1h-1zm17 0h1v1h-1zm8 0h1v1h-1zm-283 1h1v1h-1zm1 0h1v1h-1zm1 0h16v2h-16zm16 0h1v9h-1zm1 0h1v1h-1zm1 0h1v1h-1zm1 0h1v1h-1z"/><path d="M194 457h20v2h-20zm35 0h1v1h-1zm1 0h13v1h-13zm13 0h1v1h-1zm1 0h1v1h-1zm7 0h1v1h-1zm1 0h13v1h-13zm13 0h1v9h-1zm1 0h1v1h-1zm41 0h1v1h-1zm1 0h1v1h-1zm1 0h8v2h-8zm8 0h1v1h-1zm1 0h1v1h-1zm16 0h1v1h-1zm1 0h6v1h-6zm7 0h1v1h-1zm1 0h1v1h-1zm18 0h1v1h-1zm1 0h7v2h-7zm7 0h1v1h-1zm1 0h1v1h-1zm22 0h1v1h-1zm1 0h1v1h-1zm1 0h6v1h-6zm6 0h1v7h-1zm1 0h1v1h-1zm1 0h1v1h-1zm18 0h1v1h-1zm1 0h7v1h-7zm7 0h1v1h-1zm1 0h1v1h-1zm18 0h1v1h-1zm8 0h1v1h-1zm1 0h1v1h-1zm-283 1h1v1h-1z"/><path d="M191 458h23v1h-23zm37 0h1v1h-1zm1 0h1v1h-1zm1 0h12v2h-12zm12 0h1v1h-1zm1 0h1v1h-1zm9 0h1v1h-1zm1 0h12v1h-12zm13 0h1v1h-1zm1 0h1v1h-1zm37 0h1v1h-1zm1 0h1v1h-1zm1 0h1v1h-1zm1 0h9v2h-9zm10 0h1v1h-1zm1 0h1v1h-1zm16 0h1v1h-1zm1 0h1v1h-1zm1 0h6v1h-6zm6 0h1v6h-1zm1 0h1v1h-1zm1 0h1v1h-1zm16 0h1v1h-1zm1 0h1v1h-1zm8 0h1v1h-1zm1 0h1v1h-1zm23 0h1v1h-1zm1 0h7v1h-7zm7 0h1v6h-1zm1 0h1v1h-1zm1 0h1v1h-1zm15 0h1v1h-1zm1 0h1v1h-1zm1 0h7v2h-7zm7 0h1v1h-1zm1 0h1v1h-1zm1 0h1v1h-1zm18 0h1v1h-1zm1 0h7v1h-7zm7 0h1v8h-1zm1 0h1v1h-1zm-283 1h1v1h-1zm1 0h40v1h-40zm54 0h1v1h-1z"/><path d="M229 459h12v3h-12zm13 0h1v1h-1zm1 0h1v1h-1zm9 0h1v1h-1zm1 0h1v1h-1zm1 0h12v1h-12zm12 0h1v7h-1zm1 0h1v1h-1zm18 0h1v1h-1zm14 0h1v1h-1zm1 0h1v1h-1zm1 0h1v1h-1zm1 0h1v1h-1zm1 0h1v1h-1zm1 0h1v1h-1zm1 0h11v1h-11zm11 0h1v1h-1zm1 0h1v1h-1zm18 0h1v1h-1zm1 0h7v1h-7zm7 0h1v6h-1zm1 0h1v1h-1zm1 0h1v1h-1zm1 0h1v1h-1zm12 0h1v1h-1zm1 0h1v1h-1zm1 0h8v1h-8zm8 0h1v1h-1zm1 0h1v1h-1zm25 0h1v1h-1zm1 0h7v1h-7zm7 0h1v6h-1zm1 0h1v1h-1zm1 0h1v1h-1zm1 0h1v1h-1zm12 0h1v1h-1zm1 0h1v1h-1zm1 0h7v2h-7zm8 0h1v1h-1zm1 0h1v1h-1zm19 0h1v1h-1zm1 0h1v1h-1zm8 0h1v1h-1zm1 0h1v1h-1zm-283 1h1v1h-1zm1 0h26v1h-26zm26 0h1v1h-1zm1 0h1v1h-1zm1 0h1v1h-1zm1 0h10v2h-10zm23 0h1v1h-1z"/><path d="M228 460h13v2h-13zm13 0h1v1h-1zm1 0h1v1h-1zm11 0h1v1h-1zm1 0h13v1h-13zm13 0h1v6h-1zm1 0h1v1h-1zm17 0h1v1h-1zm1 0h11v1h-11zm11 0h1v1h-1zm1 0h1v1h-1zm1 0h16v1h-16zm16 0h1v1h-1zm1 0h1v1h-1zm19 0h1v1h-1zm1 0h1v1h-1zm1 0h8v1h-8zm8 0h1v5h-1zm1 0h1v1h-1zm1 0h1v1h-1zm1 0h1v1h-1zm1 0h1v1h-1zm6 0h1v1h-1zm1 0h1v1h-1zm1 0h1v1h-1zm1 0h1v1h-1zm1 0h8v1h-8zm8 0h1v1h-1zm1 0h1v1h-1zm26 0h1v1h-1zm1 0h1v1h-1zm1 0h8v1h-8zm8 0h1v5h-1zm1 0h1v1h-1zm1 0h1v1h-1zm1 0h1v1h-1zm7 0h1v1h-1zm1 0h1v1h-1zm1 0h1v1h-1zm1 0h1v1h-1zm1 0h8v1h-8zm8 0h1v1h-1zm1 0h1v1h-1zm21 0h1v1h-1zm8 0h1v6h-1zm1 0h1v1h-1zm1 0h1v1h-1zm1 0h1v1h-1zm6 0h1v1h-1zm1 0h1v1h-1zm1 0h1v1h-1zm1 0h1v1h-1zm-294 1h1v1h-1zm1 0h1v1h-1zm1 0h24v1h-24zm24 0h1v1h-1zm1 0h1v1h-1zm1 0h1v1h-1zm1 0h1v1h-1zm23 0h1v1h-1zm1 0h1v1h-1zm14 0h1v1h-1zm1 0h1v1h-1zm11 0h1v1h-1zm1 0h1v1h-1zm14 0h1v1h-1zm1 0h1v1h-1zm16 0h29v1h-29zm29 0h1v1h-1zm1 0h1v1h-1zm1 0h1v1h-1zm20 0h1v1h-1zm1 0h1v1h-1z"/><path d="M338 461h10v1h-10zm10 0h1v5h-1zm1 0h1v1h-1zm1 0h1v1h-1zm1 0h1v1h-1zm1 0h1v1h-1zm1 0h1v1h-1zm1 0h1v1h-1zm1 0h1v1h-1zm1 0h10v1h-10zm10 0h1v1h-1zm1 0h1v1h-1zm1 0h1v1h-1zm27 0h1v1h-1zm1 0h1v1h-1zm1 0h10v1h-10zm10 0h1v5h-1zm1 0h1v1h-1zm1 0h1v1h-1zm1 0h1v1h-1zm1 0h1v1h-1zm1 0h1v1h-1zm1 0h1v1h-1zm1 0h1v1h-1zm1 0h10v1h-10zm10 0h1v1h-1zm1 0h1v1h-1zm1 0h1v1h-1zm21 0h1v1h-1zm1 0h9v1h-9zm9 0h1v5h-1zm1 0h1v1h-1zm1 0h1v1h-1zm1 0h1v1h-1zm1 0h1v1h-1zm1 0h1v1h-1zm1 0h1v1h-1zm1 0h1v1h-1zm1 0h1v5h-1zm1 0h1v4h-1zm1 0h1v4h-1zm-293 1h1v1h-1zm1 0h23v1h-23zm23 0h1v1h-1zm1 0h1v1h-1zm1 0h1v1h-1zm2 0h1v1h-1zm1 0h10v1h-10zm22 0h1v1h-1zm1 0h13v2h-13zm13 0h1v1h-1zm1 0h1v1h-1zm13 0h1v1h-1zm1 0h13v1h-13zm13 0h1v4h-1zm1 0h1v1h-1zm16 0h27v1h-27zm27 0h1v1h-1zm1 0h1v1h-1zm1 0h1v1h-1zm1 0h1v1h-1zm22 0h1v1h-1zm1 0h1v1h-1z"/><path d="M339 462h26v1h-26zm26 0h1v1h-1zm1 0h1v1h-1zm1 0h1v1h-1zm29 0h1v1h-1zm1 0h1v1h-1zm1 0h26v1h-26zm26 0h1v1h-1zm1 0h1v1h-1zm1 0h1v1h-1zm23 0h1v1h-1zm1 0h17v1h-17zm-274 1h1v1h-1zm1 0h22v1h-22zm22 0h1v1h-1zm1 0h1v1h-1zm4 0h1v1h-1zm1 0h9v2h-9zm20 0h1v1h-1zm1 0h13v2h-13zm14 0h1v1h-1zm1 0h1v1h-1zm13 0h1v1h-1zm1 0h1v1h-1zm14 0h1v3h-1zm1 0h1v1h-1zm15 0h26v1h-26zm26 0h1v1h-1zm1 0h1v1h-1zm1 0h1v1h-1zm25 0h1v1h-1zm1 0h1v1h-1zm1 0h24v1h-24zm24 0h1v1h-1zm1 0h1v1h-1zm1 0h1v1h-1zm31 0h1v1h-1zm1 0h1v1h-1zm1 0h24v1h-24zm24 0h1v1h-1zm1 0h1v1h-1zm1 0h1v1h-1zm24 0h1v1h-1zm1 0h1v1h-1zm7 0h10v3h-10zm-281 1h1v1h-1zm1 0h1v1h-1zm1 0h19v1h-19zm19 0h1v1h-1zm1 0h1v1h-1zm1 0h1v1h-1zm5 0h1v1h-1zm20 0h1v1h-1zm1 0h1v1h-1zm14 0h1v1h-1zm1 0h1v1h-1zm15 0h1v1h-1zm1 0h13v1h-13zm14 0h1v1h-1zm1 0h1v1h-1zm14 0h24v1h-24zm24 0h1v1h-1zm1 0h1v1h-1zm1 0h1v1h-1zm1 0h1v1h-1zm27 0h1v1h-1zm1 0h1v1h-1zm1 0h1v1h-1zm1 0h20v1h-20zm20 0h1v1h-1zm1 0h1v1h-1zm1 0h1v1h-1zm1 0h1v1h-1zm33 0h1v1h-1zm1 0h1v1h-1zm1 0h21v1h-21zm21 0h1v1h-1zm1 0h1v1h-1zm1 0h1v1h-1zm27 0h1v1h-1z"/><path d="M451 464h16v1h-16zm-273 1h1v1h-1zm1 0h1v1h-1zm1 0h16v1h-16zm16 0h1v1h-1zm1 0h1v1h-1zm1 0h1v1h-1zm6 0h1v1h-1zm1 0h9v1h-9zm19 0h1v1h-1zm1 0h13v1h-13zm13 0h1v1h-1zm1 0h1v1h-1zm17 0h1v1h-1zm1 0h13v1h-13zm13 0h1v1h-1zm1 0h1v1h-1zm14 0h21v1h-21zm21 0h1v1h-1zm1 0h1v1h-1zm1 0h1v1h-1zm1 0h1v1h-1zm1 0h1v1h-1zm31 0h1v1h-1zm1 0h1v1h-1zm1 0h17v1h-17zm17 0h1v1h-1zm1 0h1v1h-1zm1 0h1v1h-1zm1 0h1v1h-1zm37 0h1v1h-1zm1 0h1v1h-1zm1 0h17v1h-17zm17 0h1v1h-1zm1 0h1v1h-1zm1 0h1v1h-1zm1 0h1v1h-1zm29 0h1v1h-1zm1 0h1v1h-1zm1 0h14v1h-14zm14 0h1v1h-1zm1 0h1v1h-1zm-430 1h1v1h-1zm1 0h36v1H39zm36 0h1v1h-1zm1 0h1v1h-1zm10 0h1v1h-1zm1 0h12v1H87zm12 0h1v1h-1zm1 0h1v1h-1zm14 0h1v1h-1zm1 0h12v1h-12zm12 0h1v1h-1zm1 0h1v1h-1zm16 0h1v1h-1zm1 0h12v1h-12zm12 0h1v1h-1zm1 0h1v1h-1zm21 0h1v1h-1zm1 0h1v1h-1zm1 0h1v1h-1zm1 0h11v1h-11zm11 0h1v1h-1zm1 0h1v1h-1zm1 0h1v1h-1zm1 0h1v1h-1zm8 0h1v1h-1zm1 0h1v1h-1zm1 0h8v1h-8zm8 0h1v1h-1zm1 0h1v1h-1zm8 0h1v1h-1zm1 0h13v1h-13zm13 0h1v1h-1zm1 0h1v1h-1zm1 0h1v1h-1zm17 0h1v1h-1zm1 0h1v1h-1zm1 0h13v1h-13zm13 0h1v1h-1zm1 0h1v1h-1zm5 0h1v1h-1zm1 0h23v1h-23zm23 0h1v1h-1zm1 0h1v1h-1zm1 0h1v1h-1zm1 0h1v1h-1zm1 0h1v1h-1zm1 0h1v1h-1zm1 0h1v1h-1zm36 0h1v1h-1zm1 0h1v1h-1zm1 0h1v1h-1zm1 0h12v1h-12zm12 0h1v1h-1zm1 0h1v1h-1zm1 0h1v1h-1zm1 0h1v1h-1zm40 0h1v1h-1zm1 0h1v1h-1zm1 0h1v1h-1zm1 0h1v1h-1zm1 0h12v1h-12zm12 0h1v1h-1zm1 0h1v1h-1zm1 0h1v1h-1zm1 0h1v1h-1zm32 0h1v1h-1zm1 0h1v1h-1zm1 0h1v1h-1zm1 0h11v1h-11zm11 0h1v1h-1zm1 0h1v1h-1zm1 0h1v1h-1zm-430 1h1v1h-1zm1 0h36v1H39zm36 0h1v1h-1zm1 0h1v1h-1zm10 0h1v1h-1zm1 0h12v1H87zm12 0h1v1h-1zm1 0h1v1h-1zm14 0h1v1h-1zm1 0h12v1h-12zm12 0h1v1h-1zm1 0h1v1h-1zm16 0h1v1h-1zm1 0h12v1h-12zm12 0h1v1h-1zm1 0h1v1h-1zm23 0h1v1h-1zm1 0h1v1h-1zm1 0h1v1h-1zm1 0h1v1h-1zm1 0h1v1h-1zm1 0h1v1h-1zm1 0h1v1h-1zm1 0h1v1h-1zm1 0h1v1h-1zm1 0h1v1h-1zm1 0h1v1h-1zm1 0h1v1h-1zm1 0h1v1h-1zm1 0h1v1h-1zm11 0h1v1h-1zm1 0h8v1h-8zm8 0h1v1h-1zm1 0h1v1h-1zm8 0h1v1h-1zm1 0h13v1h-13zm13 0h1v1h-1zm1 0h1v1h-1zm19 0h1v1h-1zm1 0h13v1h-13zm13 0h1v1h-1zm1 0h1v1h-1zm5 0h1v1h-1zm1 0h22v1h-22zm22 0h1v1h-1zm1 0h1v1h-1zm1 0h1v1h-1zm43 0h1v1h-1zm1 0h1v1h-1zm1 0h1v1h-1zm1 0h1v1h-1zm1 0h1v1h-1zm1 0h1v1h-1zm1 0h2v1h-2zm2 0h1v1h-1zm1 0h1v1h-1zm1 0h1v1h-1zm1 0h1v1h-1zm1 0h1v1h-1zm1 0h1v1h-1zm1 0h1v1h-1zm45 0h1v1h-1zm1 0h1v1h-1zm1 0h1v1h-1zm1 0h1v1h-1zm1 0h1v1h-1zm1 0h1v1h-1zm1 0h2v1h-2zm2 0h1v1h-1zm1 0h1v1h-1zm1 0h1v1h-1zm1 0h1v1h-1zm1 0h1v1h-1zm1 0h1v1h-1zm1 0h1v1h-1zm36 0h1v1h-1zm1 0h1v1h-1zm1 0h1v1h-1zm1 0h1v1h-1zm1 0h1v1h-1zm1 0h1v1h-1zm1 0h1v1h-1zm1 0h1v1h-1zm1 0h1v1h-1zm1 0h1v1h-1zm1 0h1v1h-1zm1 0h1v1h-1zm1 0h1v1h-1zm1 0h1v1h-1zm-279 1h1v1h-1zm163 0h1v1h-1zm1 0h1v1h-1zm58 0h1v1h-1zm1 0h1v1h-1zm48 0h1v1h-1zm1 0h1v1h-1z"/><g fill="#b3b3b3"><path d="M327 108h1v1h-1zm-19 5h1v1h-1zm-6 2h1v1h-1zm-114 16h1v1h-1zm37 0h1v1h-1zm-81 18h1v1h-1zm167 124h1v1h-1zm13 11h1v1h-1zm-3 5h1v1h-1zm-77 4h1v1h-1zm55 7h1v1h-1z"/></g><g fill="#1c1c1c"><path d="M280 124h1v1h-1zm5 102h1v1h-1zm-28 15h1v1h-1zm-6 20h1v1h-1zm23 10h1v1h-1zm-15 28h1v1h-1zm85 6h1v1h-1zm-102 18h1v1h-1zm-131 15h1v1h-1z"/></g><g fill="#626262"><path d="M219 163h1v1h-1zm48 52h1v1h-1zm67 44h1v1h-1zm-35 31h1v1h-1zm-28 9h1v1h-1z"/></g><g fill="#4f4f4f"><path d="M283 185h1v1h-1zm-12 115h1v1h-1zm39 14h1v1h-1zm21 23h1v1h-1z"/></g><g fill="#505050"><path d="M276 231h1v1h-1zm-26 33h1v1h-1zm72 23h1v1h-1zm29 6h1v1h-1zm-39 45h1v1h-1zm37 4h1v1h-1z"/></g><g fill="#f3f3f3"><path d="M372 107h1v1h-1zm-67 48h1v1h-1zm-185 21h1v1h-1zm-7 13h1v1h-1zm170 27h1v1h-1zm52 67h1v1h-1zm20 17h1v1h-1zm-114 31h1v1h-1zm100 3h1v1h-1z"/></g><g fill="#0e0e0e"><path d="M295 117h1v1h-1zm37 15h1v1h-1zm4 151h1v1h-1zm-76 8h1v1h-1zm-17 16h1v1h-1zm112 29h1v1h-1z"/></g><g fill="#272727"><path d="M313 148h1v1h-1zm-25 68h1v1h-1zm42 37h1v1h-1zm-15 4h1v1h-1zm10 22h1v1h-1zm16 54h1v1h-1z"/></g><g fill="#d9d9d9"><path d="M275 198h1v1h-1zm62 87h1v1h-1zm-93 7h1v1h-1zm86 0h1v1h-1z"/></g><g fill="#424242"><path d="M204 170h1v1h-1zm82 38h1v1h-1zm-13 31h1v1h-1zm39 18h1v1h-1zm-39 21h1v1h-1z"/></g><g fill="#1a1a1a"><path d="M115 183h1v1h-1zm209 167h1v1h-1z"/></g><g fill="#262626"><path d="M306 245h1v1h-1zm-39 13h1v1h-1zm53 2h1v1h-1zm-48 29h1v1h-1z"/></g><g fill="#191919"><path d="M324 108h1v1h-1zm-117 50h1v1h-1zm72 65h1v1h-1zm3 13h1v1h-1zm17 45h1v1h-1zm-53 3h1v1h-1zm99 23h1v1h-1z"/></g><g fill="#1f1f1f"><path d="M263 133h1v1h-1zm-129 24h1v1h-1zm148 30h1v1h-1zm-21 43h1v1h-1zm14 34h1v1h-1zm85 56h1v1h-1zm-12 23h1v1h-1z"/></g><g fill="#afafaf"><path d="M153 143h1v1h-1zm121 124h1v1h-1zm26 1h1v1h-1zm-52 3h1v1h-1zm-133 72h1v1h-1zm143 4h1v1h-1z"/></g><g fill="#dcdcdc"><path d="M135 157h1v1h-1zm132 57h1v1h-1z"/></g><g fill="#020202"><path d="M380 104h1v1h-1zm-12 6h1v1h-1zm-23 13h1v1h-1zm-115 8h1v1h-1zm-71 8h1v1h-1zm143 21h1v1h-1zm-87 12h1v1h-1zm75 29h1v1h-1zm2 1h1v1h-1zm-13 45h1v1h-1zm55 11h1v1h-1zm-58 1h1v1h-1zm-10 2h1v1h-1zm9 4h1v1h-1zm-1 7h1v1h-1zm-15 26h1v1h-1zm51 25h1v1h-1zm-200 13h1v1h-1zm147 3h1v1h-1zm-134 10h1v1h-1z"/></g><g fill="#494949"><path d="M127 165h1v1h-1zm119 118h1v1h-1z"/></g><g fill="#b6b6b6"><path d="M282 186h1v1h-1zm66 129h1v1h-1zm-90 3h1v1h-1zm40 14h1v1h-1z"/></g><path fill="silver" d="M111 193h1v1h-1z"/><g fill="#1d1d1d"><path d="M320 109h1v1h-1zm-36 13h1v1h-1zm-165 54h1v1h-1zm142 109h1v1h-1zm37 28h1v1h-1zm0 37h1v1h-1z"/></g><g fill="#f6f6f6"><path d="M286 122h1v1h-1zm-6 3h1v1h-1zm-164 58h1v1h-1zm155 108h1v1h-1zm56 0h1v1h-1zm19 16h1v1h-1zm-105 27h1v1h-1z"/></g><g fill="#989898"><path d="M281 124h1v1h-1zm-9 119h1v1h-1zm-1 3h1v1h-1zm-18 6h1v1h-1zm-139 90h1v1h-1z"/></g><g fill="#151515"><path d="M351 104h1v1h-1zm-10 1h1v1h-1zm38 0h1v1h-1zm-93 16h1v1h-1zm42 14h1v1h-1zm-39 67h1v1h-1zm0 11h1v1h-1zm9 99h1v1h-1zm-41 20h1v1h-1z"/></g><g fill="#e1e1e1"><path d="M370 108h1v1h-1zm-169 22h1v1h-1zm75 66h1v1h-1zm15 6h1v1h-1zm63 134h1v1h-1z"/></g><g fill="#2b2b2b"><path d="M298 116h1v1h-1zm58 0h1v1h-1zm-63 2h1v1h-1zm-72 12h1v1h-1zm102 9h1v1h-1zm-4 107h1v1h-1zm17 17h1v1h-1zm-11 7h1v1h-1zm-54 32h1v1h-1zm0 16h1v1h-1z"/></g><g fill="#bbb"><path d="M375 106h1v1h-1zm-20 10h1v1h-1zm-141 14h1v1h-1zm-43 5h1v1h-1zm43 22h1v1h-1zm41 88h1v1h-1zm44 56h1v1h-1zm10 30h1v1h-1z"/></g><g fill="#f4f4f4"><path d="M343 123h1v1h-1zm-113 9h1v1h-1zm-78 12h1v1h-1zm-10 7h1v1h-1zm65 6h1v1h-1zm-5 10h1v1h-1zm-85 14h1v1h-1zm172 29h1v1h-1zm-23 55h1v1h-1zm44 30h1v1h-1zm-40 12h1v1h-1zm29 1h1v1h-1zm-41 16h1v1h-1zm99 6h1v1h-1zm-116 2h1v1h-1zm93 5h1v1h-1zm-76 4h1v1h-1z"/></g><g fill="#a3a3a3"><path d="M182 132h1v1h-1zm-43 21h1v1h-1zm67 5h1v1h-1zm-92 28h1v1h-1zm151 33h1v1h-1zm-7 129h1v1h-1zm71 1h1v1h-1z"/></g><g fill="#8c8c8c"><path d="M371 104h1v1h-1zm-167 56h1v1h-1zm73 69h1v1h-1zm68 59h1v1h-1zm-35 19h1v1h-1z"/></g><g fill="gray"><path d="M326 108h1v1h-1zm-39 13h1v1h-1zm54 4h1v1h-1zm-176 12h1v1h-1zm-43 35h1v1h-1zm144 45h1v1h-1zm-5 12h1v1h-1zm12 47h1v1h-1zm56 16h1v1h-1zm21 49h1v1h-1zm-11 6h1v1h-1z"/></g><g fill="#5b5b5b"><path d="M310 112h1v1h-1zm-44 20h1v1h-1zm-110 9h1v1h-1zm-45 51h1v1h-1zm169 50h1v1h-1zm-21 59h1v1h-1z"/></g><g fill="#aaa"><path d="M215 130h1v1h-1zm116 2h1v1h-1zm-69 94h1v1h-1zm91 70h1v1h-1zm-44 37h1v1h-1zm-36 5h24v1h-24zm24 0h1v1h-1z"/></g><g fill="#dedede"><path d="M269 131h1v1h-1zm30 31h1v1h-1zm12 106h1v1h-1zm-2 59h1v1h-1zm-38 2h1v1h-1zm68 6h1v1h-1z"/></g><path fill="#646464" d="M274 269h1v1h-1z"/><g fill="#696969"><path d="M334 130h1v1h-1zm-121 27h1v1h-1zm43 86h1v1h-1zm11 16h1v1h-1zm90 44h1v1h-1zm-47 8h1v1h-1zm-38 24h1v1h-1zm49 3h1v1h-1z"/></g><g fill="#b2b2b2"><path d="M258 135h1v1h-1zm-90 1h1v1h-1zm158 139h1v1h-1zm9 9h1v1h-1zm-12 2h1v1h-1zm-80 15h1v1h-1zm66 31h1v1h-1z"/></g><path fill="#8d8d8d" d="M244 294h1v1h-1z"/><g fill="#393939"><path d="M306 155h1v1h-1zm-91 3h1v1h-1zm50 108h1v1h-1zm34 19h1v1h-1zm-28 34h1v1h-1zm88 7h1v1h-1z"/></g><g fill="#a2a2a2"><path d="M313 245h1v1h-1zm-2 30h1v1h-1zm26 2h1v1h-1zm-38 21h1v1h-1zm10 40h1v1h-1z"/></g><g fill="#d4d4d4"><path d="M348 105h1v1h-1zm29 0h1v1h-1zm-241 51h1v1h-1zm76 18h1v1h-1zm62 92h1v1h-1zm-32 44h1v1h-1zm-132 22h1v1h-1z"/></g><g fill="#636363"><path d="M304 114h1v1h-1zm-118 17h1v1h-1zm-16 4h1v1h-1zm92 146h1v1h-1zm80 65h1v1h-1z"/></g><g fill="#cfcfcf"><path d="M297 117h1v1h-1zm-165 43h1v1h-1zm122 88h1v1h-1zm-5 18h1v1h-1zm51 6h1v1h-1zm-28 10h1v1h-1zm26 53h1v1h-1z"/></g><g fill="#444"><path d="M203 168h1v1h-1zm-85 10h1v1h-1zm165 54h1v1h-1zm-40 73h1v1h-1zm67 33h1v1h-1zm1 0h1v1h-1zm-10 12h3v1h-3zm3 0h1v1h-1zm14 0h2v1h-2zm2 0h1v1h-1z"/></g><g fill="#a4a4a4"><path d="M280 241h1v1h-1zm77 90h1v1h-1z"/></g><path fill="#2e2e2e" d="M333 294h1v1h-1z"/><g fill="#555"><path d="M376 104h1v1h-1zm-59 40h1v1h-1zm-108 13h1v1h-1zm82 16h1v1h-1zm-31 59h1v1h-1zm-18 85h1v1h-1zm71 21h4v1h-4zm4 0h1v1h-1zm-11 12h10v1h-10zm10 0h1v1h-1z"/></g><g fill="#fff"><path d="M350 105h26v1h-26zm26 0h1v1h-1zm-35 1h32v1h-32zm32 0h1v1h-1zm-38 1h36v1h-36zm36 0h1v1h-1zm-42 1h40v1h-40zm40 0h1v1h-1zm-45 1h43v1h-43zm43 0h1v1h-1zm-47 1h45v1h-45zm45 0h1v1h-1zm-49 1h47v1h-47zm47 0h1v1h-1zm-50 1h48v1h-48zm48 0h1v1h-1zm-51 1h49v1h-49zm49 0h1v1h-1zm-52 1h50v1h-50zm50 0h1v1h-1zm-53 1h51v1h-51zm51 0h1v1h-1zm-54 1h53v1h-53zm53 0h1v1h-1zm-56 1h54v1h-54zm54 0h1v1h-1zm-56 1h54v1h-54zm54 0h1v1h-1zm-57 1h56v1h-56zm56 0h1v1h-1zm-58 1h56v1h-56zm56 0h1v1h-1zm-58 1h56v1h-56zm56 0h1v1h-1zm-58 1h57v1h-57zm57 0h1v1h-1zm-59 1h57v1h-57zm57 0h1v1h-1zm-59 1h58v1h-58zm58 0h1v1h-1zm-60 1h58v1h-58zm58 0h1v1h-1zm-60 1h59v1h-59zm59 0h1v1h-1zm-61 1h59v1h-59zm59 0h1v1h-1zm-61 1h60v1h-60zm60 0h1v1h-1zm-61 1h60v1h-60zm60 0h1v1h-1zm-130 1h2v28h-2zm2 0h1v27h-1zm66 0h60v1h-60zm60 0h1v1h-1z"/><path d="M191 131h31v25h-31zm31 0h1v218h-1zm48 0h61v1h-61zm61 0h1v1h-1z"/><path d="M184 132h45v24h-45zm45 0h1v217h-1zm39 0h62v1h-62zm62 0h1v1h-1z"/><path d="M180 133h55v23h-55zm55 0h1v216h-1zm31 0h62v1h-62zm62 0h1v1h-1z"/><path d="M176 134h64v22h-64zm64 0h1v215h-1zm24 0h63v1h-63zm63 0h1v1h-1z"/><path d="M173 135h71v21h-71zm71 0h1v155h-1zm16 0h66v1h-66zm66 0h1v1h-1z"/><path d="M170 136h155v1H170zm155 0h1v1h-1zm-158 1h156v1H167zm156 0h1v1h-1zm-158 1h157v1H165zm157 0h1v1h-1zm-160 1h159v1H162zm159 0h1v1h-1zm-161 1h160v1H160zm160 0h1v1h-1zm-162 1h161v1H158zm161 0h1v1h-1zm-163 1h162v1H156zm162 0h1v1h-1zm-164 1h162v1H154zm162 0h1v1h-1zm-163 1h162v1H153zm162 0h1v1h-1zm-164 1h163v1H151zm163 0h1v1h-1zm-164 1h163v1H150zm163 0h1v1h-1zm-165 1h164v1H148zm164 0h1v1h-1zm-165 1h164v1H147zm164 0h1v1h-1zm-166 1h165v1H145zm165 0h1v1h-1zm-166 1h165v1H144zm165 0h1v1h-1zm-166 1h165v1H143zm165 0h1v1h-1zm-166 1h165v1H142zm165 0h1v1h-1zm-167 1h166v1H140zm166 0h1v1h-1zm-167 1h166v1H139zm166 0h1v1h-1zm-167 1h166v1H138zm166 0h1v1h-1zm-167 1h166v1H137zm166 0h1v1h-1zm-167 1h70v1h-70zm70 0h1v1h-1zm10 0h86v1h-86zm86 0h1v1h-1zm-167 1h70v1h-70zm70 0h1v1h-1zm12 0h85v1h-85zm85 0h1v1h-1zm-168 1h70v1h-70zm70 0h1v1h-1zm14 0h83v1h-83zm83 0h1v1h-1zm-168 1h70v2h-70zm70 0h1v1h-1zm16 0h81v1h-81zm81 0h1v1h-1z"/><path d="M132 161h70v188h-70zm88 0h79v1h-79zm79 0h1v1h-1z"/><path d="M131 162h71v187h-71zm71 0h1v1h-1zm18 0h78v1h-78zm78 0h1v1h-1z"/><path d="M130 163h71v186h-71zm90 0h77v2h-77zm77 0h1v1h-1z"/><path d="M129 164h72v184h-72zm91 1h76v1h-76zm76 0h1v1h-1z"/><path d="M128 166h73v182h-73zm92 0h75v1h-75zm75 0h1v1h-1z"/><path d="M127 167h74v181h-74zm93 0h74v1h-74zm74 0h1v1h-1z"/><path d="M126 168h76v180h-76zm76 0h1v181h-1zm18 0h73v2h-73zm73 0h1v1h-1z"/><path d="M125 169h77v179h-77zm94 1h73v1h-73zm73 0h1v1h-1z"/><path d="M124 171h79v177h-79zm79 0h1v178h-1zm16 0h72v2h-72zm72 0h1v1h-1z"/><path d="M123 172h81v175h-81zm81 0h1v177h-1zm14 0h72v2h-72zm-13 1h1v176h-1z"/><path d="M216 173h74v1h-74zm74 0h1v1h-1zm-168 1h86v173h-86zm86 0h1v175h-1zm6 0h75v1h-75zm75 0h1v1h-1z"/><path d="M121 175h167v2H121zm167 0h1v1h-1zm-168 2h167v1H120zm167 0h1v1h-1zm-168 1h167v2H119zm167 0h1v1h-1zm-168 2h167v1H118zm167 0h1v1h-1zm-167 1h166v2H118zm166 0h1v1h-1z"/><path d="M117 182h166v3H117zm166 1h1v1h-1z"/><path d="M116 184h166v2H116zm166 1h1v1h-1zm-167 1h166v2H115zm166 0h1v1h-1zm-167 2h166v2H114zm166 0h1v1h-1zm-167 2h166v1H113zm166 0h1v1h-1zm-166 1h165v2H113zm165 0h1v1h-1z"/><path d="M112 192h165v3H112zm165 1h1v1h-1zm-166 2h165v2H111zm165 0h1v1h-1zm-166 2h165v2H110zm165 0h1v1h-1zm-165 2h164v2H110zm164 0h1v1h-1zm-164 2h163v2H110zm163 0h1v1h-1zm-163 2h162v1H110zm162 0h1v1h-1zm18 0h1v3h-1zm-180 1h161v3H110zm161 0h1v1h-1zm18 0h1v5h-1z"/><path d="M288 206h2v3h-2zm2 0h1v1h-1zm-180 1h160v2H110zm160 0h1v1h-1z"/><path d="M287 208h2v4h-2zm-177 1h159v2H110zm159 0h1v1h-1zm20 0h1v1h-1z"/><path d="M286 210h2v6h-2zm-176 1h158v2H110zm158 0h1v1h-1z"/><path d="M285 212h3v4h-3zm3 0h1v1h-1zm-178 1h157v2H110zm157 0h1v1h-1zm-157 2h156v2H110zm156 0h1v1h-1z"/><path d="M284 215h3v4h-3zm3 1h1v1h-1zm-177 1h155v3H110zm155 0h1v1h-1z"/><path d="M283 217h3v5h-3z"/><path d="M282 219h4v3h-4zm4 0h1v1h-1zm-176 1h154v2H110zm154 0h1v1h-1z"/><path d="M281 221h4v4h-4zm-171 1h153v2H110zm153 0h1v1h-1zm22 0h1v1h-1zm-175 2h152v3H110zm152 0h1v1h-1z"/><path d="M280 224h4v5h-4zm4 1h1v1h-1z"/><path d="M279 226h4v6h-4zm-169 1h151v2H110zm151 0h1v1h-1zm-151 2h150v3H110zm150 0h1v1h-1z"/><path d="M278 229h5v3h-5zm5 0h1v1h-1z"/><path d="M277 231h5v4h-5zm-167 1h149v3H110zm149 0h1v1h-1zm23 0h1v1h-1z"/><path d="M276 234h5v5h-5zm-166 1h148v3H110zm148 0h1v1h-1zm23 0h1v1h-1z"/><path d="M275 236h5v6h-5zm-165 2h147v2H110zm147 0h1v1h-1z"/><path d="M274 239h6v3h-6zm6 0h1v1h-1zm-170 1h146v3H110zm146 0h1v1h-1zm17 2h6v4h-6zm6 0h1v1h-1zm-169 1h145v4H110zm145 0h1v1h-1z"/><path d="M272 245h6v4h-6zm6 1h1v1h-1zm29 0h8v9h-8zm8 0h1v10h-1zm-205 1h144v3H110zm144 0h1v1h-1z"/><path d="M305 247h14v8h-14zm14 0h1v10h-1zm-48 1h6v5h-6z"/><path d="M304 248h17v7h-17zm17 0h1v11h-1zm-44 1h1v1h-1z"/><path d="M303 249h20v6h-20zm20 0h1v13h-1zm-213 1h143v3H110zm143 0h1v1h-1z"/><path d="M302 250h23v5h-23zm23 0h1v16h-1zm-55 1h6v7h-6zm56 0h1v19h-1zm1 1h1v38h-1zm-217 1h142v4H110zm142 0h1v1h-1zm24 0h1v1h-1z"/><path d="M301 253h27v2h-27zm27 0h1v38h-1zm1 1h1v37h-1zm-60 1h6v9h-6z"/><path d="M301 255h29v1h-29zm29 0h1v36h-1zm-29 1h11v8h-11zm11 0h1v1h-1z"/><path d="M315 256h16v1h-16zm16 0h1v36h-1zm-221 1h141v4H110zm141 0h1v1h-1zm67 0h13v1h-13zm-50 1h7v6h-7zm7 0h1v1h-1z"/><path d="M320 258h12v1h-12zm12 0h1v34h-1z"/><path d="M321 259h12v1h-12zm12 0h1v33h-1zm-11 1h11v1h-11zm-212 1h140v3H110zm140 0h1v1h-1z"/><path d="M324 261h10v3h-10zm10 0h1v32h-1zm-67 1h7v9h-7z"/><path d="M323 262h11v1h-11zm12 1h1v19h-1zm-225 1h139v5H110zm139 0h1v1h-1zm25 0h1v1h-1zm27 0h10v29h-10zm10 0h1v1h-1zm13 0h11v1h-11zm-58 2h7v13h-7zm59 0h10v1h-10zm11 1h1v12h-1zm-226 2h138v4H110zm138 0h1v1h-1z"/><path d="M265 270h8v9h-8zm61 0h10v1h-10zm-53 1h1v1h-1zm-163 2h137v5H110zm137 0h1v1h-1z"/><path d="M264 275h8v15h-8zm-154 3h136v6H110zm136 0h1v1h-1zm26 1h1v1h-1zm28 0h10v43h-10zm26 0h10v3h-10zm10 0h1v1h-1z"/><path d="M263 280h8v25h-8zm63 2h9v8h-9zm9 0h1v1h-1z"/><path d="M325 283h9v7h-9zm-215 1h135v6H110zm135 0h1v1h-1zm17 1h9v20h-9zm73 0h1v9h-1z"/><path d="M324 286h15v4h-15zm15 0h1v11h-1z"/><path d="M323 287h18v3h-18zm18 0h1v12h-1zm1 1h1v12h-1zm1 0h1v13h-1z"/><path d="M322 289h23v1h-23zm23 0h1v15h-1zm-235 1h134v7H110zm134 0h1v1h-1zm27 0h1v1h-1z"/><path d="M321 290h25v1h-25zm25 0h1v16h-1z"/><path d="M328 291h19v1h-19zm19 0h1v18h-1zm-86 1h9v57h-9z"/><path d="M331 292h18v1h-18zm18 0h1v48h-1zm-39 1h1v1h-1zm24 0h15v1h-15z"/><path d="M335 294h15v1h-15zm15 0h1v46h-1z"/><path d="M337 295h14v1h-14zm14 0h1v44h-1z"/><path d="M338 296h14v1h-14zm14 0h1v42h-1zm-242 1h133v10H110zm133 0h1v1h-1z"/><path d="M339 297h14v1h-14zm14 0h1v39h-1zm-13 1h13v1h-13zm-80 1h10v50h-10z"/><path d="M341 299h13v1h-13zm13 0h1v36h-1zm-12 1h12v1h-12z"/><path d="M343 301h12v1h-12zm12 0h1v32h-1zm-11 1h11v1h-11z"/><path d="M344 303h12v1h-12zm12 0h1v29h-1zm-11 1h11v1h-11zm-75 1h1v1h-1zm78 0h8v7h-8z"/><path d="M346 306h11v1h-11zm11 0h1v23h-1zm-247 1h132v19H110zm132 0h1v1h-1zm17 1h10v41h-10z"/><path d="M347 309h11v1h-11zm11 0h1v17h-1zm-59 1h10v39h-10zm49 2h10v1h-10zm11 2h1v7h-1zm-89 1h1v34h-1zm89 6h1v1h-1zm-50 1h1v1h-1zm39 2h10v5h-10zm-238 2h131v3H110zm131 0h1v1h-1zm117 0h1v1h-1zm-100 1h12v12h-12z"/><path d="M347 327h10v5h-10zm-237 2h130v1H110z"/><path d="M346 329h11v3h-11zm11 0h1v1h-1zm-246 1h129v5H111zm160 1h1v18h-1z"/><path d="M345 331h11v2h-11z"/><path d="M344 332h12v1h-12zm12 0h1v1h-1zm-13 1h12v2h-12zm12 0h1v1h-1z"/><path d="M342 334h12v2h-12zm-231 1h129v1H111z"/><path d="M340 335h14v1h-14zm14 0h1v1h-1zm-242 1h128v1H112zm226 0h15v2h-15zm15 0h1v1h-1zm-241 1h128v1H112z"/><path d="M335 337h17v2h-17zm-222 1h127v1H113z"/><path d="M330 338h22v1h-22zm22 0h1v1h-1zm-239 1h127v1H113zm145 0h39v1h-39zm39 0h54v1h-54zm54 0h1v1h-1zm-237 1h127v1H114zm127 0h1v9h-1zm31 0h25v9h-25zm25 0h53v1h-53zm53 0h1v1h-1zm-236 1h127v1H114zm183 0h51v1h-51zm51 0h1v1h-1zm-233 1h126v1H115zm182 0h50v1h-50zm50 0h1v1h-1zm-231 1h125v1H116zm181 0h49v1h-49zm49 0h1v1h-1zm-229 1h124v1H117zm180 0h47v1h-47zm47 0h1v1h-1zm-226 1h123v1H118zm179 0h45v1h-45zm45 0h1v1h-1zm-222 1h121v1H120zm177 0h42v1h-42zm42 0h1v1h-1zm-217 1h119v1H122zm175 0h40v1h-40zm40 0h1v1h-1zm-213 1h117v1H124zm173 0h35v1h-35zm35 0h1v1h-1zm-202 1h111v1H130zm111 0h1v1h-1zm18 0h37v1h-37zm37 0h29v1h-29zm29 0h1v1h-1z"/></g><g fill="#6e6e6e"><path d="M194 130h1v1h-1zm49 4h1v1h-1zm26 118h1v1h-1zm31 8h1v1h-1zm-37 16h1v1h-1zm48 5h1v1h-1zm-50 6h1v1h-1zm88 4h1v1h-1zm-78 32h1v1h-1zm27 0h1v1h-1zm49 2h1v1h-1z"/></g><g fill="#0d0d0d"><path d="M222 130h1v1h-1zm64 93h1v1h-1zm30 22h1v1h-1zm-44 45h1v1h-1zm26 21h1v1h-1zm49 2h1v1h-1zm-90 22h1v1h-1z"/></g><g fill="#414141"><path d="M255 135h1v1h-1zm60 110h1v1h-1zm-16 41h1v1h-1zm36 50h1v1h-1z"/></g><g fill="#dadada"><path d="M323 109h1v1h-1zm-33 11h1v1h-1zm46 8h1v1h-1zm-136 2h1v1h-1zm-17 2h1v1h-1zm127 166h1v1h-1zm-51 8h1v1h-1z"/></g><g fill="#6b6b6b"><path d="M344 123h1v1h-1zm-14 10h1v1h-1zm-75 113h1v1h-1zm-3 10h1v1h-1z"/></g><g fill="#313131"><path d="M333 131h1v1h-1zm-123 26h1v1h-1zm89 127h1v1h-1zm12 4h1v1h-1zm49 30h1v1h-1zm-13 6h1v1h-1zm9 10h1v1h-1z"/></g><g fill="#b5b5b5"><path d="M163 138h1v1h-1zm54 21h1v1h-1zm2 3h1v1h-1zm53 42h1v1h-1zm13 20h1v1h-1zm73 104h1v1h-1zm-15 4h1v1h-1zm-227 12h1v1h-1z"/></g><g fill="#828282"><path d="M331 107h1v1h-1zm-40 98h1v1h-1zm-10 33h1v1h-1zm18 56h1v1h-1zm41 5h1v1h-1z"/></g><g fill="#0b0b0b"><path d="M288 120h1v1h-1zm-71 40h1v1h-1zm64 29h1v1h-1zm55 95h1v1h-1zm-94 41h1v1h-1zm15 3h1v1h-1zm101 2h1v1h-1zm-86 1h1v1h-1z"/></g><g fill="#c5c5c5"><path d="M342 124h1v1h-1zm-187 18h1v1h-1zm171 134h1v1h-1zm0 15h1v1h-1z"/></g><g fill="#2c2c2c"><path d="M299 163h1v1h-1zm-12 16h1v1h-1zm55 107h1v1h-1zm-32 32h1v1h-1z"/></g><g fill="#f7f7f7"><path d="M333 130h1v1h-1zm-154 3h1v1h-1zm-33 15h1v1h-1zm128 117h1v1h-1zm52 6h1v1h-1zm19 34h1v1h-1zm-104 30h1v1h-1z"/></g><g fill="#686868"><path d="M318 143h1v1h-1zm-33 82h1v1h-1zm37 66h1v1h-1zm-78 4h1v1h-1zm-2 54h1v1h-1z"/></g><g fill="#212121"><path d="M133 158h1v1h-1zm150 56h1v1h-1zm-14 37h1v1h-1zm30 31h1v1h-1zm31 55h1v1h-1zm7 11h1v1h-1z"/></g><g fill="#202020"><path d="M114 185h1v1h-1zm141 62h1v1h-1zm9 23h1v1h-1zm47 20h1v1h-1z"/></g><g fill="#3f3f3f"><path d="M378 104h1v1h-1zm-62 41h1v1h-1zm-110 27h1v1h-1zm67 31h1v1h-1zm1 67h1v1h-1zm80 67h1v1h-1z"/></g><g fill="#cbcbcb"><path d="M123 171h1v1h-1zm152 64h1v1h-1zm6 2h1v1h-1zm54 25h1v1h-1zm-36 41h1v1h-1z"/></g><g fill="#3c3c3c"><path d="M313 111h1v1h-1zm-105 62h1v1h-1zm79 46h1v1h-1zm-24 56h1v1h-1zm-4 25h1v1h-1zm12 1h1v1h-1z"/></g><g fill="#060606"><path d="M300 115h1v1h-1zm39 12h1v1h-1zm-12 9h1v1h-1zm-189 17h1v1h-1zm-18 21h1v1h-1zm-3 5h1v1h-1zm-6 12h1v1h-1zm170 27h1v1h-1zm-17 5h1v1h-1zm19 10h1v1h-1zm-18 32h1v1h-1zm-3 14h1v1h-1zm49 14h1v1h-1zm28 41h1v1h-1zm-5 2h1v1h-1z"/></g><g fill="#4a4a4a"><path d="M220 130h1v1h-1zm19 3h1v1h-1zm-77 5h1v1h-1zm162 0h1v1h-1zm-36 66h1v1h-1zm2 5h1v1h-1zm-21 2h1v1h-1zm30 76h1v1h-1zm-54 2h1v1h-1zm100 40h1v1h-1z"/></g><g fill="#e8e8e8"><path d="M307 153h1v1h-1zm14 107h1v1h-1zm-21 15h1v1h-1zm-28 6h1v1h-1zm50 7h1v1h-1zm30 7h1v1h-1zm2 3h1v1h-1zm-96 24h1v1h-1zm0 20h1v1h-1zm85 3h1v1h-1z"/></g><g fill="#464646"><path d="M287 206h1v1h-1zm13 49h1v1h-1zm23 9h1v1h-1zm-25 54h1v1h-1zm-27 2h1v1h-1zm46 30h1v1h-1z"/></g><g fill="#1b1b1b"><path d="M329 107h1v1h-1zm-165 30h1v1h-1zm102 81h1v1h-1zm46 43h1v1h-1zm-41 42h1v1h-1zm39 17h1v1h-1zm-189 28h1v1h-1z"/></g><g fill="#939393"><path d="M373 107h1v1h-1zm-244 56h1v1h-1zm90 5h1v1h-1zm-106 20h1v1h-1zm137 75h1v1h-1zm70 27h1v1h-1zm21 10h1v1h-1zm7 16h1v1h-1z"/></g><g fill="#f2f2f2"><path d="M295 118h1v1h-1zm20 27h1v1h-1zm-17 18h1v1h-1zm-36 121h1v1h-1zm94 18h1v1h-1zm-86 10h1v1h-1zm78 11h1v1h-1zm-107 5h1v2h-1zm0 2h1v1h-1z"/></g><g fill="#ededed"><path d="M312 112h1v1h-1zm-101 18h1v1h-1zm25 3h1v1h-1zm9 2h1v1h-1zm-118 31h1v1h-1zm82 8h1v1h-1zm71 66h1v1h-1zm22 9h1v1h-1zm-192 82h1v1h-1zm18 18h1v1h-1zm198 0h1v1h-1z"/></g><g fill="#acacac"><path d="M246 135h1v1h-1zm21 125h1v1h-1zm-2 8h1v1h-1zm-6 36h1v1h-1zm85 0h1v1h-1zm2 24h1v1h-1z"/></g><g fill="#9d9d9d"><path d="M326 136h1v1h-1zm-6 5h1v1h-1zm-60 154h1v1h-1zm50 10h1v1h-1zm-68 8h1v1h-1z"/></g><g fill="#cdcdcd"><path d="M161 139h1v1h-1zm-35 28h1v1h-1zm201 84h1v1h-1zm-16 19h1v1h-1zm36 56h1v1h-1z"/></g><g fill="#cacaca"><path d="M202 165h1v1h-1zm82 62h1v1h-1z"/></g><g fill="#bcbcbc"><path d="M305 246h1v1h-1zm6 26h1v1h-1zm-66 14h1v1h-1z"/></g><path fill="#b0b0b0" d="M242 312h1v1h-1z"/><g fill="#0c0c0c"><path d="M348 121h1v1h-1zm-211 33h1v1h-1zm79 5h1v1h-1zm-86 2h1v1h-1zm83 12h1v1h-1zm71 11h1v1h-1zm40 64h1v1h-1zm-56 6h1v1h-1zm69 26h1v1h-1zm23 34h1v1h-1z"/></g><g fill="#797979"><path d="M218 130h1v1h-1zm70 47h1v1h-1zm33 114h1v1h-1zm-79 24h1v1h-1zm106 4h1v1h-1z"/></g><g fill="#575757"><path d="M141 151h1v1h-1zm-17 18h1v1h-1zm90 4h1v1h-1zm64 76h1v1h-1zm70 41h1v1h-1zm-230 56h1v1h-1z"/></g><g fill="#979797"><path d="M290 174h1v1h-1zm0 34h1v1h-1zm-17 32h1v1h-1zm27 25h1v1h-1zm36 71h1v1h-1zm-224 3h1v1h-1zm5 6h1v1h-1zm141 4h1v1h-1z"/></g><path fill="#c1c1c1" d="M256 242h1v1h-1z"/><g fill="#656565"><path d="M219 130h1v1h-1zm28 147h1v1h-1zm64 5h1v1h-1zm-13 40h1v1h-1z"/></g><g fill="#161616"><path d="M172 134h1v1h-1zm150 6h1v1h-1zm-190 19h1v1h-1zm71 4h1v1h-1zm77 80h1v1h-1zm-24 1h1v1h-1zm97 51h1v1h-1zm-17 1h1v1h-1zm-79 34h1v1h-1z"/></g><g fill="#5c5c5c"><path d="M256 135h1v1h-1zm79 126h1v1h-1zm-86 7h1v1h-1zm76 1h1v1h-1zm0 11h1v1h-1zm-14 3h1v1h-1z"/></g><g fill="#fefefe"><path d="M141 152h1v1h-1zm74 5h1v1h-1zm4 4h1v1h-1zm74 8h1v1h-1zm-90 1h1v1h-1zm15 1h1v1h-1zm-12 2h1v1h-1zm72 19h1v1h-1zm-167 2h1v1h-1zm180 9h1v1h-1zm-20 2h1v1h-1zm13 21h1v1h-1zm-3 10h1v1h-1zm25 10h1v1h-1zm-3 2h1v1h-1zm-26 2h1v1h-1zm24 2h1v1h-1zm-1 26h1v1h-1zm24 7h1v1h-1zm18 2h1v1h-1zm-81 4h1v1h-1zm87 0h1v1h-1zm-15 2h1v1h-1zm-90 5h1v1h-1zm114 7h1v1h-1zm-48 18h1v1h-1zm-51 3h1v1h-1zm91 15h1v1h-1zm-9 5h1v1h-1z"/></g><g fill="#929292"><path d="M283 231h1v1h-1zm-19 41h1v1h-1zm35 24h1v1h-1zm39 1h1v1h-1zm9 14h1v1h-1zm4 29h1v1h-1z"/></g><g fill="#b9b9b9"><path d="M312 245h1v1h-1zm-43 8h1v1h-1zm87 80h1v1h-1z"/></g><g fill="#4b4b4b"><path d="M253 253h1v1h-1zm58 32h1v1h-1z"/></g><g fill="#f0f0f0"><path d="M340 106h1v1h-1zm-62 20h1v1h-1zm-7 4h1v1h-1zm35 24h1v1h-1zm-24 79h1v1h-1zm29 33h1v1h-1zm-11 10h1v1h-1zm-41 31h1v1h-1zm78 29h1v1h-1zm-39 2h1v1h-1z"/></g><g fill="#535353"><path d="M301 115h1v1h-1zm-53 20h1v1h-1zm91 150h1v1h-1zm15 12h1v1h-1zm-112 50h1v1h-1z"/></g><g fill="#919191"><path d="M347 121h1v1h-1zm-75 8h1v1h-1zm39 148h1v1h-1zm34 29h1v1h-1z"/></g><g fill="#bdbdbd"><path d="M211 174h1v1h-1zm50 115h1v1h-1zm-1 7h1v1h-1zm88 26h1v1h-1zm-1 21h1v1h-1z"/></g><g fill="#070707"><path d="M350 104h1v1h-1zm-160 26h1v1h-1zm79 0h1v1h-1zm-65 31h1v1h-1zm97 0h1v1h-1zm-10 40h1v1h-1zm-24 15h1v1h-1zm-7 17h1v1h-1zm57 25h1v1h-1zm7 9h1v1h-1zm-51 13h1v1h-1zm-29 18h1v1h-1zm27 7h1v1h-1zm-13 3h1v1h-1zm85 38h1v1h-1z"/></g><g fill="#6a6a6a"><path d="M374 104h1v1h-1zm-99 158h1v1h-1zm24 29h1v1h-1z"/></g><g fill="#3a3a3a"><path d="M185 131h1v1h-1zm27 26h1v1h-1zm73 53h1v1h-1zm36 51h1v1h-1zm-10 26h1v1h-1z"/></g><g fill="#7a7a7a"><path d="M117 180h1v1h-1zm-5 10h1v1h-1zm170 27h1v1h-1zm17 76h1v1h-1zm-40 9h1v1h-1zm51 7h1v1h-1zm49 1h1v1h-1zm-249 24h1v1h-1z"/></g><g fill="#9c9c9c"><path d="M268 256h1v1h-1zm73 30h1v1h-1zm-16 5h1v1h-1z"/></g><g fill="#5a5a5a"><path d="M369 109h1v1h-1zm-202 27h1v1h-1zm113 54h1v1h-1zm44 76h1v1h-1zm-25 23h1v1h-1zm59 40h1v1h-1z"/></g><g fill="#545454"><path d="M367 110h1v1h-1zm-4 2h1v1h-1zm-72 7h1v1h-1zm-98 11h1v1h-1zm82 69h1v1h-1zm36 85h1v1h-1zm-40 37h1v1h-1zm34 29h1v1h-1z"/></g><g fill="#3b3b3b"><path d="M192 130h1v1h-1zm108 220h1v1h-1z"/></g><g fill="#454545"><path d="M275 263h1v1h-1zm-14 23h1v1h-1z"/></g><g fill="#d1d1d1"><path d="M315 111h1v1h-1zm-91 20h1v1h-1zm43 1h1v1h-1zm-117 13h1v1h-1zm-13 10h1v1h-1zm158 12h1v1h-1zm-80 6h1v1h-1zm76 31h1v1h-1zm-20 89h1v1h-1zm39 6h1v1h-1zm32 34h1v1h-1zm-84 11h1v1h-1z"/></g><g fill="#a5a5a5"><path d="M350 119h1v1h-1zm-108 15h1v1h-1zm83 134h1v1h-1zm-15 36h1v1h-1z"/></g><g fill="#7e7e7e"><path d="M264 133h1v1h-1zm15 112h1v1h-1zm-19 49h1v1h-1zm38 31h1v1h-1z"/></g><g fill="#a0a0a0"><path d="M196 130h1v1h-1zm12 27h1v1h-1zm70 91h1v1h-1zm-27 11h1v1h-1zm21 25h1v1h-1zm0 53h1v1h-1zm53 1h1v1h-1z"/></g></svg>