<svg xmlns="http://www.w3.org/2000/svg" role="img" viewBox="64.65 59.65 3918.20 1058.20"><title>LitmusChaos logo</title><defs><clipPath id="a" clipPathUnits="userSpaceOnUse"><path d="M0 17.704h73.585V0H0z"/></clipPath></defs><g transform="matrix(1.33333 0 0 -1.33333 0 1180.273)"><rect width="536.818" height="482.226" x="191.071" y="475.131" fill="#fff" fill-opacity="1" stroke="none" stroke-dasharray="none" stroke-miterlimit="4" stroke-opacity="1" stroke-width="3.719" opacity="1" rx="16.668" ry="16.668" transform="matrix(.75 0 0 -.75 0 885.205)"/><g transform="translate(105.127 102.495) scale(38.42149)"><path fill="#1be0e6" fill-opacity="1" fill-rule="nonzero" stroke="none" d="M3.686 10.48H1.778v5.313h1.908z"/><g clip-path="url(#a)"><path fill="#001959" fill-opacity="1" fill-rule="nonzero" stroke="none" d="M11.078 2.162H5.41v1.907h5.668zm-7.392 0H1.778v13.631h1.908zM0 17.704V1.739C0 .922.663.26 1.48.26h9.913c.809 0 1.463.654 1.463 1.462v15.982z"/><path fill="#001959" fill-opacity="1" fill-rule="nonzero" stroke="none" d="M27.356 13.343c-.354 0-.662-.131-.914-.39-.25-.256-.377-.562-.377-.909s.127-.653.377-.909c.251-.258.561-.39.922-.39.359 0 .669.128.92.379s.379.561.379.92c0 .36-.128.669-.379.92s-.564.379-.928.379"/><path fill="#001959" fill-opacity="1" fill-rule="nonzero" stroke="none" d="M62.879 6.285c0-1.181-.051-1.973-.151-2.354-.098-.37-.278-.724-.536-1.055-.257-.329-.57-.59-.929-.775-.717-.369-1.532-.328-2.038-.11-.248.107-.448.266-.608.485-.167.226-.295.51-.382.843-.089.342-.134 1.013-.134 1.994v4.593h-1.843V4.978c0-1.286.138-2.219.423-2.854.286-.638.721-1.146 1.295-1.509.572-.364 1.217-.549 1.919-.549 1.122 0 2.124.42 2.984 1.25V.302h1.86v9.604h-1.86z"/><path fill="#001959" fill-opacity="1" fill-rule="nonzero" stroke="none" d="M49.618 10.14c-.676 0-1.325-.18-1.929-.535-.485-.285-.908-.678-1.263-1.169-.245.478-.589.865-1.03 1.154-.556.365-1.183.55-1.863.55-1.043 0-1.948-.382-2.7-1.136v.902H38.99V.301h1.843v4.123c0 1.114.101 1.915.301 2.381.193.454.496.826.898 1.106.399.279.825.419 1.266.419.442 0 .795-.109 1.079-.335.284-.225.463-.505.546-.859.091-.383.136-1.03.136-1.924V.301h1.827v3.838c0 1.1.086 1.937.256 2.487.165.532.451.939.872 1.247.415.304.861.457 1.328.457.463 0 .837-.109 1.112-.326.279-.22.456-.484.538-.805.09-.348.136-.915.136-1.685V.301h1.876v5.213c0 1.78-.324 2.969-.99 3.636-.658.657-1.463.99-2.396.99"/><path fill="#001959" fill-opacity="1" fill-rule="nonzero" stroke="none" d="M71.235 5.948c-.65.341-1.104.629-1.351.854-.213.196-.318.414-.318.666 0 .251.091.459.277.632.514.477 1.389.315 2.364-.594l.169-.158 1.21 1.256-.167.162c-.935.912-1.845 1.374-2.704 1.374-.858 0-1.561-.258-2.09-.769-.532-.514-.8-1.143-.8-1.87 0-.718.189-1.311.565-1.759.361-.432.893-.826 1.583-1.174.643-.325 1.099-.609 1.356-.844.224-.207.335-.458.335-.766 0-.309-.124-.573-.378-.809-.26-.24-.564-.357-.931-.357-.552 0-1.112.328-1.666.974l-.174.203-1.181-1.318.122-.154C68.236.504 69.228 0 70.405 0c.854 0 1.584.293 2.168.872.586.579.883 1.301.883 2.144 0 .67-.202 1.245-.601 1.712-.382.446-.927.856-1.62 1.22"/><path fill="#001959" fill-opacity="1" fill-rule="nonzero" stroke="none" d="M19.292 13.343h-1.927V.302h6.554v1.859h-4.627z"/><path fill="#001959" fill-opacity="1" fill-rule="nonzero" stroke="none" d="M26.434.302h1.859v9.604h-1.859z"/><path fill="#001959" fill-opacity="1" fill-rule="nonzero" stroke="none" d="M34.497 13.343h-1.86V9.906h-1.576V8.231h1.576V1.877c0-.631.152-1.106.453-1.413.301-.309.758-.464 1.357-.464.293 0 .718.046 1.262.137l.196.033v1.622h-1.039c-.235 0-.329.025-.344.016-.008.023-.025.094-.025.253v6.17h1.811v1.675h-1.811z"/></g></g></g></svg>