<svg xmlns="http://www.w3.org/2000/svg" role="img" viewBox="-7.52 -7.52 390.78 148.78"><title>Living Open Source Foundation logo</title><path d="M67 37h1v1h-1zm-12 2h1v1h-1zm15 1h1v1h-1zm-29 1h1v1h-1zm12 2h1v1h-1zm35 1h1v1h-1zm-58 1h1v1h-1zm76 5h1v1h-1zm-6 1h1v1h-1zm-89 1h1v1h-1zm100 3h1v1h-1zm-51 2h1v1h-1zm24 4h1v1h-1zM6 63h1v1H6zm215 1h1v1h-1zm2 1h1v1h-1zM93 67h1v1h-1zm9 0h1v24h-1zm74 3h1v1h-1zm65 0h1v1h-1zm50 0h1v1h-1zm23 0h1v1h-1zm-88 1h1v1h-1zm40 0h1v1h-1zm92 1h1v1h-1zm-51 1h1v1h-1zm-41 2h1v1h-1zm85 0h1v1h-1zm-3 1h1v2h-1zm0 2h1v1h-1zm-122 1h1v1h-1zm71 0h1v1h-1zM68 80h1v1h-1zm77 0h1v1h-1zm68 0h1v1h-1zm-88 1h1v1h-1zm114 0h1v1h-1zM83 82h1v1h-1zm140 0h1v1h-1zm1 0h1v1h-1zm-29 3h1v1h-1zm-93 6h1v1h-1zm-1 5h1v1h-1zm54 0h1v1h-1zm73 1h1v1h-1zm-49 1h1v1h-1zm-79 1h1v1h-1zm78 0h1v1h-1zm29 0h1v1h-1zm-97 1h1v1h-1zm46 0h1v1h-1zm55 2h1v1h-1zm38 0h1v1h-1zm-38 1h1v1h-1zm-81 1h1v1h-1zm-18 4h1v1h-1zm1 0h1v1h-1zm-10 3h3v1h-3zm3 0h1v1h-1z" fill="#f1a979"/><path d="M61 41h1v1h-1zm25 2h1v1h-1zm0 3h1v1h-1zm0 8h1v1h-1zm-31 7h1v1h-1zm160 2h1v1h-1zm78 0h1v1h-1zm4 0h1v1h-1zm-10 5h1v1h-1zm-109 4h1v1h-1zm58 0h2v1h-2zm2 0h1v1h-1zm21 0h1v1h-1zm98 0h1v1h-1zm17 0h1v1h-1zm-232 1h1v1h-1zm147 0h1v1h-1zm-13 1h1v1h-1zm76 0h1v1h-1zm-199 2h1v1h-1zm28 0h1v2h-1zm137 0h1v1h-1zm0 1h1v1h-1zm-137 1h1v1h-1zm10 2h1v1h-1zm-4 1h1v1h-1zm51 0h1v1h-1zm62 0h1v1h-1zm-166 3h1v1h-1zm41 0h1v1h-1zm3 0h1v1h-1zm62 0h1v1h-1zm23 0h1v1h-1zm3 0h1v1h-1zm23 0h1v1h-1zm7 0h1v1h-1zM164 96h1v1h-1zm8 0h1v9h-1zm-15 1h1v1h-1zm41 2h1v1h-1zm33 0h1v1h-1zm1 0h1v1h-1zm-103 1h1v1h-1zm32 0h2v1h-2zm2 0h1v1h-1zm47 0h1v1h-1zm32 0h1v1h-1zm-76 1h1v4h-1zm79 0h1v2h-1zm-84 1h1v1h-1zm84 1h1v1h-1zm-79 2h1v1h-1zm6 0h2v1h-2zm2 0h1v1h-1zm45 0h1v1h-1zm-97 1h1v1h-1zm1 0h1v1h-1zm23 0h1v1h-1zm13 0h1v1h-1zm4 0h1v1h-1zm17 0h1v1h-1zm27 0h1v1h-1zm7 0h2v1h-2zm2 0h1v1h-1zm4 0h1v1h-1zm4 0h1v1h-1zm14 0h1v1h-1zm1 0h1v1h-1z" fill="#fbdec9"/><path d="M69 32h2v1h-2zm2 0h1v1h-1zm-7 5h1v1h-1zm11 5h1v1h-1zm4 0h1v1h-1zm-1 1h1v1h-1zm5 1h1v1h-1zm-61 4h1v1h-1zm89 3h1v1h-1zM55 62h1v1h-1zm56 0h1v1h-1zm-29 2h1v1h-1zm27 0h1v1h-1zm15 0h1v1h-1zm-24 1h1v1h-1zm-4 1h1v1h-1zm118 1h1v1h-1zM24 68h1v1h-1zm188 0h1v1h-1zm14 0h1v1h-1zM89 69h1v1h-1zm96 1h1v1h-1zm42 0h1v1h-1zm80 0h1v1h-1zm-95 1h1v1h-1zm30 0h1v1h-1zm7 0h1v1h-1zm-79 1h1v1h-1zm56 0h1v1h-1zm82 0h1v1h-1zm-18 1h1v1h-1zm62 0h1v1h-1zm-142 2h1v1h-1zm16 0h1v1h-1zM89 76h1v5h-1zm138 1h1v1h-1zm114 0h1v6h-1zm25 0h1v1h-1zm8 0h1v1h-1zm-163 1h1v1h-1zm36 1h1v1h-1zM70 80h1v1h-1zm112 0h1v1h-1zm44 0h1v1h-1zm14 0h1v1h-1zM36 81h1v1h-1zm53 0h1v1h-1zm136 0h1v1h-1zm88 0h1v1h-1zm53 0h1v1h-1zM30 82h1v1h-1zm62 0h1v1h-1zm238 0h1v1h-1zM88 83h1v1h-1zm226 0h1v1h-1zm9 0h1v1h-1zm18 0h1v1h-1zm-146 1h1v1h-1zm-4 3h1v1h-1zm-7 3h1v1h-1zm-72 1h1v1h-1zm-2 3h1v1h-1zm1 1h1v1h-1zm52 1h1v1h-1zm-18 1h1v1h-1zm-36 1h1v1h-1zm18 1h1v1h-1zm1 0h1v1h-1zm73 0h1v1h-1zm-87 1h1v1h-1zm103 0h1v1h-1zm12 0h1v1h-1zm-65 1h1v2h-1zm11 0h1v1h-1zm65 0h1v1h-1zm1 0h1v1h-1zm8 0h1v1h-1zm-26 1h1v1h-1zm-59 1h1v1h-1zm15 0h1v1h-1zm38 0h1v1h-1zm0 1h1v1h-1z" fill="#f39f68"/><path d="M72 32h1v1h-1zm-11 2h1v1h-1zm7 3h1v1h-1zm8 5h1v1h-1zm11 3h1v1h-1zm0 1h1v1h-1zm-35 2h1v1h-1zm28 0h1v1h-1zm12 0h1v1h-1zm3 0h1v1h-1zm-76 1h1v1h-1zm79 0h1v1h-1zm10 2h1v1h-1zm-49 3h1v1h-1zm56 3h1v1h-1zm-43 6h1v1h-1zm54 1h1v1h-1zm35 0h1v1h-1zm52 0h1v1h-1zm-105 2h1v10h-1zm29 0h1v1h-1zm80 0h1v1h-1zm1 0h1v1h-1zm6 0h1v1h-1zm2 1h1v1h-1zm-4 2h1v1h-1zm41 1h1v12h-1zm-30 1h1v1h-1zm-22 2h1v1h-1zm-26 1h1v1h-1zm26 0h1v1h-1zm-36 1h1v1h-1zm118 0h1v1h-1zm-185 1h1v1h-1zm158 0h1v6h-1zm-36 1h1v10h-1zm70 1h1v1h-1zm-92 1h1v1h-1zm92 0h1v1h-1zm-149 1h1v1h-1zm68 1h1v1h-1zm5 0h1v1h-1zm125 0h1v1h-1zm4 0h1v1h-1zm-111 1h1v1h-1zm21 0h1v1h-1zm3 0h1v1h-1zm-82 1h1v1h-1zm74 0h1v1h-1zm-25 1h1v6h-1zm-3 3h1v2h-1zm-45 1h1v1h-1zm45 1h1v1h-1zm3 1h1v1h-1zm-123 3h1v1h-1zm40 4h1v1h-1zm10 0h1v1h-1zm-34 1h1v1h-1zm-1 2h1v1h-1zm120 0h1v1h-1zm-119 2h1v1h-1zm30 0h1v1h-1zm19 1h1v1h-1zm-63 2h1v1h-1zm76 0h1v1h-1zm26 0h1v1h-1zm14 0h1v1h-1zm16 0h1v1h-1z" fill="#f5af7f"/><path d="M75 33h1v1h-1zm-39 1h1v7h-1zm26 0h1v1h-1zm15 0h1v1h-1zm-45 1h1v6h-1zm40 1h1v1h-1zm-19 1h1v1h-1zm-21 4h1v1h-1zm4 0h1v1h-1zm17 1h1v1h-1zm29 1h1v1h-1zm3 1h1v1h-1zm14 5h1v1h-1zm2 3h1v1h-1zm-91 1h1v1h-1zm100 0h1v1h-1zm4 1h1v1h-1zm3 1h1v1h-1zm-5 1h1v1h-1zm6 1h1v1h-1zm-4 1h1v1h-1zm4 0h1v1h-1zm-41 1h1v1h-1zm37 0h1v2h-1zm0 2h1v1h-1zm-75 1h11v1H39zm11 0h1v1h-1zm23 0h1v1h-1zm85 2h1v1h-1zm-20 1h1v1h-1zm152 0h1v1h-1zm4 0h2v1h-2zm2 0h1v1h-1zM79 67h1v1h-1zm143 1h1v1h-1zM66 69h1v1h-1zm222 0h1v1h-1zm-151 1h1v1h-1zm5 0h1v1h-1zm1 0h1v1h-1zm17 0h1v1h-1zm7 0h1v1h-1zm27 0h1v1h-1zm119 0h1v1h-1zm19 0h1v1h-1zm1 0h1v13h-1zm6 0h1v1h-1zm19 0h1v1h-1zm-105 1h1v1h-1zm1 0h1v1h-1zm3 0h1v1h-1zm115 0h1v1h-1zM25 72h1v2h-1zm127 0h1v1h-1zm82 0h1v1h-1zm22 0h1v1h-1zm49 0h1v1h-1zm11 0h1v1h-1zm34 0h1v1h-1zm-197 1h1v1h-1zm32 0h1v1h-1zm58 0h1v1h-1zm30 0h1v1h-1zm22 0h1v1h-1zM25 74h1v4h-1zm250 0h1v1h-1zm74 0h1v1h-1zm1 2h1v1h-1zm12 0h1v1h-1zm-63 1h1v1h-1zm51 0h1v1h-1zm12 0h1v1h-1zM25 78h1v4h-1zm120 0h1v1h-1zm39 0h1v1h-1zm131 0h1v1h-1zM49 79h1v1h-1zm1 0h1v1h-1zm274 1h1v1h-1zm-132 1h1v1h-1zm50 0h1v1h-1zm6 0h1v1h-1zm104 0h1v1h-1zM25 82h1v1h-1zm101 0h1v1h-1zm64 0h1v1h-1zm28 0h1v1h-1zm17 0h1v1h-1zm22 0h1v1h-1zm38 0h1v1h-1zm44 0h1v1h-1zm-190 1h1v1h-1zm10 0h1v1h-1zm1 0h1v1h-1zm59 0h1v1h-1zm20 0h1v1h-1zm17 0h1v1h-1zm18 0h1v1h-1zm54 0h1v1h-1zm5 0h1v1h-1zm6 0h1v1h-1zm1 0h1v1h-1zm13 0h1v1h-1zm18 0h1v1h-1zM171 97h1v7h-1zm-46 1h1v1h-1zm-12 1h1v1h-1zm23 0h1v1h-1zm41 0h1v1h-1zm25 0h1v1h-1zm-35 1h1v1h-1zm-4 1h1v1h-1zm32 0h1v3h-1zm29 0h1v1h-1zm9 0h1v3h-1zm-134 1h1v1h-1zm16 1h1v1h-1zm129 0h1v1h-1zm-77 1h1v1h-1zm4 0h1v1h-1zm24 0h1v1h-1zm9 0h1v1h-1zm29 0h1v1h-1zm-110 1h1v1h-1zm62 0h1v1h-1zm63 0h1v1h-1zm-134 1h1v1h-1zm-6 4h1v1h-1z" fill="#f1883d"/><path d="M56 37h1v1h-1zm15 2h2v1h-2zm2 0h1v1h-1zm-29 1h1v1h-1zm30 2h1v1h-1zm13 6h1v4h-1zm4 0h1v1h-1zm18 1h1v1h-1zm-50 3h1v1h-1zm28 0h1v1h-1zm29 4h1v1h-1zm-54 4h1v1h-1zm54 0h1v1h-1zm-51 2h1v1h-1zM7 63h1v1H7zm100 1h1v1h-1zm3 0h1v1h-1zm109 0h1v1h-1zM81 65h1v1h-1zm18 0h1v1h-1zm25 0h1v15h-1zm98 0h1v1h-1zm77 0h1v1h-1zm-84 1h1v1h-1zm84 0h1v1h-1zM60 67h1v1h-1zm231 0h1v1h-1zM62 68h1v1h-1zm5 1h1v1h-1zm144 0h1v1h-1zm-21 1h1v1h-1zm181 0h1v1h-1zm-219 1h1v1h-1zm18 0h1v1h-1zm143 1h1v1h-1zm28 0h2v1h-2zm2 0h1v1h-1zm10 0h1v1h-1zm-200 2h1v1h-1zm80 0h1v1h-1zm118 0h1v1h-1zm-92 1h1v1h-1zm115 0h1v1h-1zm-228 1h1v1h-1zm64 0h1v1h-1zm31 0h1v1h-1zm-89 1h1v1h-1zm-7 2h1v1h-1zm186 0h1v1h-1zm-207 1h1v1h-1zm25 0h1v1h-1zm43 0h1v1h-1zm17 0h1v1h-1zm12 0h1v1h-1zm13 1h1v1h-1zm-102 1h1v1h-1zm59 0h1v1h-1zm118 0h1v1h-1zm17 0h1v1h-1zm31 0h1v1h-1zm-173 6h1v1h-1zm6 2h1v1h-1zm-83 1h1v1h-1zm-5 1h1v1h-1zm7 1h1v1h-1zm37 4h1v1h-1zm82 1h1v1h-1zm-15 1h1v1h-1zm8 0h1v1h-1zm6 0h1v1h-1zm-93 1h1v1h-1zm23 0h1v1h-1zm47 0h1v1h-1zm8 0h1v1h-1zm32 0h1v1h-1zm-70 2h1v1h-1zm14 0h1v1h-1zm58 0h1v1h-1zm-72 1h1v1h-1zm63 0h1v1h-1zm-124 1h1v1h-1zm126 0h1v1h-1zm-127 2h1v1h-1zm-2 3h1v1h-1z" fill="#f29151"/><path d="M33 33h2v1h-2zm2 0h1v1h-1zm32 0h1v1h-1zm-4 1h1v1h-1zm17 2h1v1h-1zm1 1h1v1h-1zm-30 1h1v1h-1zm32 1h1v1h-1zm-37 1h1v1h-1zm22 0h1v1h-1zm-25 1h1v1h-1zm10 0h1v1h-1zm9 0h1v1h-1zm18 1h1v1h-1zm-48 1h1v1h-1zm20 1h1v1h-1zm26 0h1v1h-1zm1 4h1v1h-1zm11 0h1v1h-1zm-69 1h1v1h-1zm-5 2h1v1h-1zm82 0h1v1h-1zm8 0h1v1h-1zm-93 1h1v1h-1zm66 1h1v1h-1zm-19 1h1v1h-1zM5 55h1v1H5zm104 0h1v1h-1zM2 56h1v1H2zm50 1h1v1h-1zm9 0h1v1h-1zm53 0h1v1h-1zm-28 2h1v1h-1zm32 0h1v1h-1zm-65 1h1v1h-1zm10 0h1v1h-1zm13 0h1v1h-1zm-12 1h1v1h-1zm11 0h1v1h-1zm10 0h1v1h-1zm-19 1h1v1h-1zm6 0h1v1h-1zm-59 2h1v1h-1zm124 1h1v1h-1zm22 0h1v1h-1zm1 0h1v1h-1zm57 0h1v1h-1zm1 0h1v1h-1zm75 0h1v1h-1zm4 0h1v1h-1zM20 66h1v1h-1zm38 0h1v1h-1zm36 0h1v1h-1zm9 0h1v1h-1zm108 0h1v1h-1zM90 67h1v1h-1zm13 0h1v1h-1zm106 1h1v1h-1zm81 0h1v1h-1zM75 69h1v1h-1zm148 0h1v1h-1zm67 0h1v1h-1zM92 70h1v10h-1zm62 0h1v1h-1zm32 0h1v1h-1zm24 0h1v1h-1zm15 0h1v1h-1zm6 0h1v19h-1zm1 0h1v1h-1zm8 0h1v1h-1zm24 0h1v1h-1zm1 0h1v1h-1zm58 0h1v8h-1zm21 0h2v1h-2zm2 0h1v1h-1zm-170 1h1v1h-1zm56 0h1v1h-1zm32 0h1v1h-1zm43 0h1v1h-1zm45 0h1v1h-1zm-209 1h1v1h-1zm65 0h1v1h-1zm34 0h1v1h-1zm7 0h1v1h-1zm115 0h1v1h-1zm-212 1h1v1h-1zm25 0h1v1h-1zm47 0h1v1h-1zm34 0h1v1h-1zm36 0h1v1h-1zm22 0h1v1h-1zm47 0h1v1h-1zm10 0h1v1h-1zm-189 1h1v1h-1zm40 0h1v1h-1zm69 0h1v1h-1zm22 0h1v1h-1zm26 0h1v1h-1zm-190 1h1v1h-1zm144 0h1v1h-1zm9 0h1v1h-1zm11 0h1v1h-1zm34 0h1v1h-1zm15 0h1v1h-1zm-188 1h1v6h-1zm32 0h1v2h-1zm24 0h1v2h-1zm18 0h1v1h-1zm115 0h1v1h-1zm-215 1h1v3h-1zm73 0h2v1h-2zm2 0h1v1h-1zm-17 1h1v1h-1zm24 0h1v1h-1zm9 0h1v1h-1zm63 0h1v1h-1zm19 0h1v1h-1zm-114 1h1v1h-1zm106 0h1v1h-1zm34 0h1v1h-1zM37 80h1v1h-1zm55 0h1v1h-1zm54 0h1v1h-1zm4 0h1v1h-1zm213 0h1v1h-1zM31 81h2v1h-2zm2 0h1v1h-1zm49 0h1v1h-1zm9 0h1v1h-1zm94 0h1v1h-1zm65 0h1v1h-1zm38 0h1v1h-1zm26 0h1v1h-1zM26 82h1v1h-1zm61 0h1v1h-1zm1 0h1v1h-1zm39 0h3v1h-3zm3 0h1v1h-1zm46 0h1v1h-1zm1 0h1v1h-1zm35 0h1v1h-1zm7 0h1v1h-1zm56 0h1v1h-1zm14 0h1v1h-1zm25 0h1v1h-1zm15 0h1v1h-1zm24 0h1v1h-1zm-166 1h1v1h-1zm1 0h1v1h-1zm44 0h1v6h-1zm5 0h1v1h-1zm1 0h1v1h-1zm15 0h2v1h-2zm2 0h1v1h-1zm20 0h1v1h-1zm17 0h1v1h-1zm1 0h1v1h-1zm17 0h1v1h-1zm1 0h1v1h-1zm15 0h1v1h-1zm1 0h1v1h-1zm27 0h2v1h-2zm2 0h1v1h-1zm12 0h2v1h-2zm2 0h1v1h-1zm-176 2h1v1h-1zm0 1h1v1h-1zm-1 2h1v1h-1zm-9 1h5v1h-5zm5 0h2v1h-2zm2 0h1v1h-1zm40 0h1v1h-1zm1 0h1v1h-1zm-120 3h1v2h-1zm-11 2h1v1h-1zm11 0h1v1h-1zm59 2h1v1h-1zm-59 1h1v1h-1zm15 0h1v1h-1zm30 2h1v1h-1zm42 1h1v1h-1zm42 0h1v1h-1zm-141 1h1v1h-1zm24 0h1v1h-1zm14 0h1v3h-1zm0 3h1v1h-1zm-24 1h1v1h-1zm85 0h1v1h-1zm46 0h1v1h-1zm-147 2h1v1h-1zm1 1h1v1h-1zm8 2h1v1h-1z" fill="#f18438"/><path d="M62 33h1v1h-1zm-2 1h1v1h-1zm-2 1h1v1h-1zm23 9h1v1h-1zm-28 1h1v1h-1zm-38 5h1v1h-1zM4 54h1v1H4zm76 1h1v1h-1zm39 2h1v1h-1zm0 1h1v1h-1zM0 62h1v1H0zm219 1h1v1h-1zm71 1h1v1h-1zM15 66h1v1h-1zm80 1h1v1h-1zm80 2h1v1h-1zm65 0h1v1h-1zm-75 1h1v13h-1zm21 3h1v1h-1zm128 2h1v1h-1zm16 4h1v1h-1zm-43 1h1v1h-1zm9 0h1v1h-1zM41 81h1v1h-1zm31 0h1v1h-1zm63 0h1v2h-1zm159 0h1v1h-1zm15 0h1v1h-1zm12 0h1v1h-1zm5 0h1v1h-1zm28 0h1v1h-1zm3 0h1v1h-1zm-132 1h1v1h-1zm-90 1h1v1h-1zm30 0h1v1h-1zm26 0h1v1h-1zm-58 1h1v1h-1zm88 0h1v1h-1zm-29 6h1v1h-1zm-25 5h1v1h-1zm28 0h1v1h-1zm38 0h1v1h-1zm-39 1h1v1h-1zm33 2h1v1h-1zm-61 1h1v1h-1zm22 0h1v1h-1zm47 0h1v1h-1zm-136 1h1v1h-1zm36 0h1v1h-1zm79 0h1v1h-1zm7 0h1v1h-1zm-32 1h1v1h-1zm16 1h1v3h-1zm-23 1h1v1h-1zm-85 2h1v1h-1zm108 0h1v1h-1zm35 0h1v1h-1zm-65 1h1v1h-1zm42 0h1v1h-1zm-120 2h1v1h-1zm11 3h1v1h-1z" fill="#fbdece"/><path d="M76 61h1v1h-1zm-6 8h1v1h-1zm88 1h1v1h-1zm17 4h1v1h-1zm-25 2h1v1h-1zm156 2h1v1h-1zm18 1h1v1h-1zm-91 3h1v1h-1zm-66 17h1v1h-1zm28 0h1v1h-1zm38 0h1v1h-1zm-54 2h1v1h-1z" fill="#f4a066"/><path d="M68 31h3v1h-3zm3 0h1v1h-1zm-39 1h4v1h-4zm4 0h1v1h-1zm19 8h1v1h-1zm-16 1h1v1h-1zm20 3h1v1h-1zm31 0h1v1h-1zm-62 1h1v1h-1zm52 0h1v1h-1zm6 2h1v1h-1zm12 0h1v1h-1zm3 1h1v1h-1zm2 1h2v1h-2zm2 0h1v1h-1zm-19 4h1v1h-1zm-33 2h1v1h-1zm9 6h1v1h-1zm75 1h1v1h-1zm22 0h1v1h-1zM3 63h1v1H3zm119 0h2v1h-2zm2 0h1v1h-1zm90 0h1v1h-1zm7 0h1v1h-1zm71 0h1v1h-1zM7 64h1v1H7zm74 0h1v1h-1zm-70 1h1v1h-1zm146 0h1v1h-1zm68 0h1v1h-1zm-16 1h1v1h-1zM18 67h1v1h-1zm78 0h1v1h-1zm120 0h1v1h-1zm82 0h1v1h-1zM22 68h1v1h-1zm51 0h1v1h-1zm68 1h1v2h-1zm11 0h1v1h-1zm38 0h1v1h-1zm40 0h1v1h-1zm3 0h1v1h-1zm18 0h1v1h-1zm12 0h1v1h-1zm3 0h1v1h-1zm55 0h1v1h-1zm3 0h1v1h-1zm47 0h1v1h-1zm-122 1h1v1h-1zm81 0h1v8h-1zm34 0h1v1h-1zm-223 1h1v1h-1zm102 0h1v1h-1zm5 0h1v1h-1zm45 0h1v1h-1zm70 0h1v1h-1zm6 1h1v1h-1zm-72 1h1v1h-1zm51 0h1v1h-1zm5 0h1v1h-1zm13 0h1v1h-1zm-76 1h1v1h-1zm-109 1h1v1h-1zm65 0h1v1h-1zm26 0h1v1h-1zm70 0h1v1h-1zm19 1h1v1h-1zm-212 1h1v1h-1zm36 0h1v1h-1zm37 0h1v1h-1zm139 0h1v1h-1zm-109 1h7v1h-7zm7 0h1v1h-1zm71 0h1v1h-1zm37 0h7v1h-7zm7 0h1v1h-1zm-193 1h1v1h-1zm126 0h1v1h-1zm45 0h1v1h-1zM53 80h1v1h-1zm7 0h1v1h-1zm1 0h1v1h-1zm147 0h1v1h-1zm95 0h1v1h-1zm22 0h1v1h-1zM43 81h1v1h-1zm145 0h1v1h-1zm1 0h1v1h-1zm48 0h1v1h-1zm16 0h1v1h-1zm57 0h1v1h-1zm7 0h1v1h-1zm10 0h1v1h-1zm28 0h1v1h-1zm1 0h1v1h-1zm12 0h1v1h-1zm6 0h1v1h-1zm-223 1h1v1h-1zm198 0h1v1h-1zM85 83h1v1h-1zm61 1h1v1h-1zm4 0h1v1h-1zm72 0h1v1h-1zm13 0h1v1h-1zm41 0h1v1h-1zm58 0h1v1h-1zm4 0h1v1h-1zm27 0h1v1h-1zm-181 3h1v1h-1zm-23 8h1v1h-1zm1 0h1v1h-1zm34 0h1v1h-1zm-15 1h1v4h-1zm-53 1h1v1h-1zm106 0h1v1h-1zm-97 1h1v1h-1zm10 0h1v7h-1zm29 0h1v1h-1zm27 0h1v1h-1zm18 0h1v1h-1zm26 0h1v1h-1zm-94 1h1v6h-1zm30 0h1v1h-1zm-2 1h1v1h-1zm41 0h1v1h-1zm-64 1h1v1h-1zm69 0h1v2h-1zm-97 1h1v1h-1zm120 0h1v1h-1zm-77 1h1v1h-1zm54 0h1v1h-1zm22 0h1v1h-1zm-28 1h1v1h-1zm-74 1h1v1h-1zm6 0h1v1h-1zm28 0h1v1h-1zm56 0h1v1h-1zm-108 1h1v1h-1zm39 0h2v1h-2zm2 0h1v1h-1zm18 0h1v1h-1zm8 0h1v1h-1zm7 0h1v1h-1zm25 0h1v1h-1zm3 0h1v1h-1zm3 0h1v1h-1zm-136 3h1v1h-1z" fill="#fdede3"/><path d="M65 32h1v1h-1zm-20 7h1v1h-1zm33 3h1v1h-1zm-55 5h1v1h-1zm85 1h1v1h-1zm1 0h1v1h-1zm5 5h1v1h-1zM1 55h1v1H1zm52 1h1v1h-1zm6 0h1v1h-1zm-5 3h1v1h-1zm65 1h1v1h-1zm-2 1h1v1h-1zm-3 1h1v1h-1zm-49 1h1v1h-1zm96 0h1v1h-1zm-81 2h1v1h-1zm59 0h1v1h-1zm-79 1h1v1h-1zm39 0h1v1h-1zm37 3h1v1h-1zm1 0h1v1h-1zm5 0h1v1h-1zm11 0h1v1h-1zm1 0h1v1h-1zm5 0h1v1h-1zm1 0h1v1h-1zm33 0h1v1h-1zm1 0h1v1h-1zm37 0h1v1h-1zm1 0h1v1h-1zm32 0h1v1h-1zm1 0h1v1h-1zm43 0h1v1h-1zm5 0h1v1h-1zm9 0h1v1h-1zm1 0h1v1h-1zm9 0h1v1h-1zm1 0h1v1h-1zm6 0h1v1h-1zm1 0h1v1h-1zm-118 1h1v1h-1zm6 0h1v1h-1zm-77 1h1v1h-1zm118 1h1v1h-1zm19 0h1v1h-1zm-97 1h1v1h-1zm49 1h1v1h-1zm32 0h1v1h-1zm35 0h1v1h-1zm-15 1h1v1h-1zm-149 1h1v1h-1zm85 1h1v1h-1zm18 0h1v1h-1zm-61 1h1v1h-1zm129 0h1v1h-1zm4 0h1v1h-1zm-104 1h1v1h-1zm7 0h1v1h-1zM51 80h1v1h-1zm11 0h1v1h-1zm153 0h1v1h-1zm41 1h1v1h-1zm106 0h1v1h-1zm-128 2h1v1h-1zm81 0h1v1h-1zm15 0h1v1h-1zm-117 1h1v1h-1zm139 0h1v1h-1zm6 0h1v1h-1zm-172 7h2v1h-2zm2 0h1v1h-1zm19 4h1v1h-1zm9 0h1v1h-1zm1 0h1v1h-1zm-58 3h1v1h-1zm5 2h1v1h-1zm13 0h1v1h-1zm17 0h1v5h-1zm11 1h1v1h-1zm-71 1h1v3h-1zm24 0h1v1h-1zm78 0h1v1h-1zm-60 2h2v1h-2zm2 0h1v1h-1zm-44 1h1v1h-1zm60 0h1v1h-1zm-49 1h1v1h-1zm39 0h1v1h-1zm24 0h1v1h-1zm-93 2h1v1h-1zm-5 2h1v1h-1z" fill="#fbe2d3"/><path d="M67 32h1v1h-1zm4 5h1v1h-1zm-34 5h1v1h-1zm-13 5h1v1h-1zm83 3h1v1h-1zm8 9h1v1h-1zm96 13h1v1h-1zm16 0h1v2h-1zm0 2h1v1h-1zm-2 6h1v1h-1z" fill="#f3b68b"/><path d="M68 32h1v1h-1zm8 1h1v1h-1zm2 1h1v1h-1zm-26 3h1v1h-1zm14 0h1v1h-1zm7 0h1v1h-1zm-2 1h1v1h-1zm3 1h1v1h-1zm2 2h1v1h-1zm-24 6h1v1h-1zm55 4h1v1h-1zm-27 1h1v1h-1zm-28 2h1v1h-1zm66 1h1v1h-1zM0 56h1v1H0zm86 1h1v1h-1zm-9 3h1v1h-1zm-10 3h1v1h-1zm41 0h1v1h-1zm28 0h1v1h-1zm-85 1h1v1h-1zm8 2h1v1h-1zm151 0h1v1h-1zM21 67h1v1h-1zm57 0h1v1h-1zm-15 1h1v1h-1zm164 1h1v1h-1zm-75 1h1v1h-1zm200 0h1v1h-1zm-11 1h1v1h-1zm-187 1h1v1h-1zm85 0h1v1h-1zm124 0h1v1h-1zm-212 1h1v1h-1zm18 0h1v1h-1zm41 0h1v1h-1zm0 1h1v1h-1zm37 0h1v1h-1zm115 0h1v1h-1zm-209 1h1v1h-1zm80 0h1v1h-1zm-21 1h1v1h-1zm94 0h1v1h-1zm-162 1h1v1h-1zm159 0h1v1h-1zm3 0h1v1h-1zm-79 1h1v1h-1zm-78 1h1v1h-1zM44 80h1v1h-1zm1 0h1v1h-1zm24 0h1v1h-1zm220 1h1v1h-1zm36 0h1v1h-1zm-147 1h1v1h-1zm127 0h1v1h-1zm-93 1h1v1h-1zm-104 9h2v1h-2zm2 0h1v1h-1zm1 2h1v1h-1zm15 2h1v1h-1zm23 0h5v1h-5zm5 0h1v1h-1zm-53 1h1v1h-1zm24 0h1v1h-1zm28 0h1v1h-1zm26 0h1v1h-1zm33 0h1v1h-1zm-67 1h1v5h-1zm42 2h1v1h-1zm21 0h1v5h-1zm-93 2h1v1h-1zm13 1h1v1h-1zm17 0h1v2h-1zm39 1h1v1h-1zm27 0h1v1h-1zm-89 1h1v1h-1zm23 0h1v1h-1zm13 0h1v1h-1zm50 0h1v1h-1zm-109 4h1v1h-1z" fill="#f4a674"/><path d="M48 38h1v1h-1zm19 0h1v1h-1zm-38 7h1v1h-1zm51 1h1v1h-1zm-62 3h1v1h-1zm81 1h1v1h-1zm11 4h1v1h-1zm6 7h1v1h-1zm-3 1h1v1h-1zm-15 4h1v1h-1zm-7 2h2v1h-2zm2 0h1v1h-1zm-3 1h1v1h-1zm-66 2h1v10h-1zm292 0h1v1h-1zM49 80h1v1h-1zm15 0h1v1h-1zm-40 1h1v2h-1zm110 0h1v1h-1zM24 83h1v1h-1zm98 1h1v1h-1zm98 0h1v1h-1zm104 0h1v1h-1zm-223 8h1v1h-1zm14 9h1v1h-1zm10 0h1v1h-1zm-9 6h1v1h-1zm-14 4h1v1h-1z" fill="#f6cdb3"/><path d="M50 38h1v1h-1zm15 0h1v1h-1zm20 5h1v1h-1zm-6 1h1v1h-1zm11 1h1v1h-1zm-62 1h1v1h-1zm31 2h1v1h-1zm42 2h1v1h-1zm-87 1h1v1h-1zm93 1h1v1h-1zm4 0h1v1h-1zM9 53h1v1H9zm103 0h1v1h-1zm-4 1h1v1h-1zm7 0h1v1h-1zm1 3h1v1h-1zm0 1h1v1h-1zm-42 4h1v1h-1zm-5 1h1v1h-1zm1 0h1v1h-1zm41 1h1v24h-1zm12 0h1v1h-1zm97 0h1v1h-1zm72 0h1v2h-1zm6 0h1v1h-1zm-79 2h1v1h-1zm73 0h1v1h-1zm-84 3h1v1h-1zm-40 1h1v1h-1zm3 0h1v1h-1zm24 0h1v13h-1zm61 0h1v1h-1zm-65 2h1v1h-1zm1 1h1v1h-1zm58 0h1v1h-1zm54 0h1v1h-1zm-161 1h1v1h-1zm116 0h1v1h-1zm-36 2h1v1h-1zm24 1h1v1h-1zm3 0h1v1h-1zm-3 1h1v1h-1zM55 79h1v1h-1zm307 0h1v1h-1zM71 80h1v1h-1zm179 0h1v1h-1zm115 0h1v1h-1zM79 81h1v1h-1zm69 0h1v1h-1zm43 0h1v1h-1zm23 0h1v1h-1zm22 1h1v1h-1zm57 0h1v1h-1zm35 0h1v1h-1zm22 0h1v1h-1zm21 0h2v1h-2zm2 0h1v1h-1zM25 83h1v1h-1zm107 0h1v1h-1zm36 0h1v1h-1zm22 0h1v1h-1zm5 0h1v1h-1zm26 0h1v1h-1zm14 0h1v1h-1zm15 0h1v1h-1zm-139 5h1v1h-1zm2 6h1v1h-1zm48 2h1v1h-1zm19 0h1v1h-1zm36 0h1v1h-1zm-65 1h1v1h-1zm-14 2h1v1h-1zm104 0h1v1h-1zm-103 1h1v1h-1zm46 0h1v1h-1zm19 0h1v1h-1zm13 0h1v1h-1zm-104 1h1v1h-1zm116 0h1v2h-1zm-65 1h1v2h-1zm22 0h2v1h-2zm2 0h1v1h-1zm60 0h1v1h-1zm-19 1h1v1h-1zm-65 1h1v1h-1zm44 0h1v1h-1z" fill="#ef9456"/><path d="M84 62h1v1h-1zm8 7h1v1h-1zm79 2h1v1h-1zm87 11h1v1h-1zm40 0h1v1h-1zM152 98h1v6h-1zm-19 2h1v1h-1zm0 1h1v1h-1zm50 0h1v2h-1zm5 0h1v1h-1zm-5 2h1v1h-1zm-31 1h1v1h-1z" fill="#f07d25"/><path d="M69 33h2v1h-2zm2 0h1v1h-1zm-39 1h1v1h-1zm32 0h1v2h-1zm-2 1h1v1h-1zm2 1h3v1h-3zm3 0h1v1h-1zm6 0h1v1h-1zm1 0h1v1h-1zm5 0h1v1h-1zm-3 2h1v1h-1zm-26 1h1v1h-1zm27 0h1v1h-1zm1 0h1v1h-1zm4 0h1v1h-1zm-35 1h1v1h-1zm6 0h1v1h-1zm11 0h3v1h-3zm3 0h1v1h-1zm12 0h1v1h-1zm-35 1h1v1h-1zm19 0h1v1h-1zm8 0h1v1h-1zm12 0h1v2h-1zm-51 1h1v1h-1zm1 0h1v1h-1zm7 0h2v1h-2zm2 0h1v1h-1zm30 0h1v1h-1zm1 0h1v1h-1zm-34 1h1v1h-1zm44 0h1v1h-1zm1 0h1v1h-1zm-23 1h1v1h-1zm-10 1h1v1h-1zm0 1h1v1h-1zm-23 1h1v1h-1zm-5 1h2v1h-2zm2 0h1v1h-1zm35 0h1v5h-1zm28 0h1v5h-1zm1 0h1v1h-1zm-67 1h1v1h-1zm69 0h1v1h-1zm-71 1h1v1h-1zm74 0h1v1h-1zm1 0h1v1h-1zm-78 1h1v1h-1zm80 0h1v1h-1zm7 0h1v1h-1zm1 0h1v1h-1zm-91 1h1v1h-1zm92 0h1v1h-1zm4 0h1v1h-1zm-98 1h1v1h-1zm48 0h1v1h-1zm28 0h1v1h-1zM9 54h1v1H9zm98 0h1v1h-1zM6 55h1v1H6zm45 0h1v1h-1zm57 0h1v1h-1zM3 56h1v1H3zm48 0h1v1h-1zm10 0h1v1h-1zm17 0h1v1h-1zm9 0h1v1h-1zm30 0h1v3h-1zM1 57h1v1H1zm86 0h1v1h-1zm26 0h1v1h-1zm-51 1h1v1h-1zm15 0h1v1h-1zm40 1h1v1h-1zm-31 1h1v1h-1zM1 61h2v1H1zm2 0h1v1H3zm62 0h1v1h-1zm9 0h1v1h-1zm36 0h3v1h-3zm3 0h1v1h-1zM7 62h1v1H7zm47 0h1v1h-1zm14 0h3v1h-3zm3 0h1v1h-1zm37 0h1v1h-1zm-98 1h1v1h-1zm42 0h1v1h-1zm3 0h1v1h-1zm29 0h1v1h-1zm23 0h1v1h-1zm-93 1h1v1h-1zm1 0h1v1h-1zm40 0h1v1h-1zm28 0h1v1h-1zm16 0h1v1h-1zm1 0h2v1h-2zm2 0h1v1h-1zm-84 1h1v1h-1zm77 0h1v1h-1zm1 0h1v1h-1zm7 0h1v1h-1zm111 0h1v1h-1zm1 0h1v1h-1zM22 66h1v1h-1zm59 0h1v1h-1zm11 0h1v1h-1zm18 0h1v25h-1zm13 0h1v16h-1zm90 0h1v1h-1zm7 0h2v1h-2zm2 0h1v1h-1zM24 67h1v1h-1zm56 0h1v1h-1zm11 0h1v1h-1zm131 0h1v1h-1zm1 0h1v1h-1zm66 0h1v1h-1zm1 0h1v1h-1zM25 68h1v1h-1zm5 0h1v1h-1zm22 0h1v1h-1zm8 0h1v1h-1zm1 0h1v1h-1zm17 0h1v1h-1zm133 0h1v1h-1zm13 0h1v1h-1zm64 0h1v1h-1zM51 69h1v1h-1zm11 0h1v1h-1zm14 0h1v1h-1zm12 0h1v12h-1zm121 0h1v1h-1zm1 0h1v1h-1zM67 70h5v1h-5zm5 0h1v1h-1zm19 0h1v1h-1zm46 1h1v11h-1zm6 0h1v1h-1zm17 0h1v11h-1zm7 0h1v1h-1zm7 0h1v1h-1zm12 0h1v1h-1zm8 0h1v12h-1zm30 0h1v1h-1zm48 0h1v1h-1zm1 0h1v1h-1zm40 0h1v1h-1zm26 0h1v1h-1zm14 0h1v1h-1zm-209 1h1v2h-1zm15 0h1v9h-1zm10 0h1v1h-1zm6 0h1v1h-1zm9 0h1v1h-1zm1 0h1v1h-1zm7 0h2v1h-2zm17 0h1v4h-1zm16 0h1v3h-1zm15 0h1v1h-1zm10 0h1v1h-1zm7 0h1v1h-1zm16 0h1v1h-1zm17 0h2v1h-2zm2 0h1v1h-1zm14 0h1v1h-1zm1 0h1v1h-1zm7 0h1v1h-1zm1 0h1v1h-1zm17 0h1v7h-1zm8 0h1v1h-1zm11 0h1v1h-1zm1 0h1v1h-1zm13 0h1v1h-1zm-197 1h1v1h-1zm25 0h1v1h-1zm49 0h1v4h-1zm7 0h1v1h-1zm17 0h1v1h-1zm8 0h1v9h-1zm18 0h1v1h-1zm1 0h1v1h-1zm13 0h1v1h-1zm9 0h1v1h-1zm26 0h1v1h-1zm10 0h1v1h-1zm13 0h1v1h-1zm8 0h1v1h-1zm-228 1h1v1h-1zm8 0h1v1h-1zm15 0h1v7h-1zm9 0h1v1h-1zm7 0h1v5h-1zm10 0h1v1h-1zm39 0h1v1h-1zm33 0h1v1h-1zm30 0h1v1h-1zm10 0h1v1h-1zm11 0h1v5h-1zm-91 1h1v1h-1zm23 0h1v4h-1zm48 0h1v1h-1zm1 0h1v1h-1zm8 0h1v1h-1zm35 0h1v1h-1zm23 0h1v1h-1zm-154 1h1v1h-1zm15 0h1v1h-1zm73 0h1v1h-1zm1 0h1v2h-1zm42 0h1v1h-1zm32 0h1v1h-1zm-221 1h1v1h-1zm91 0h1v1h-1zm122 0h1v1h-1zM54 78h5v1h-5zm5 0h1v1h-1zm151 0h1v2h-1zm88 0h1v3h-1zm7 0h1v2h-1zm45 0h1v2h-1zm13 0h1v1h-1zM41 79h4v1h-4zm4 0h1v1h-1zm3 0h1v1h-1zm3 0h2v1h-2zm2 0h1v1h-1zm9 0h1v1h-1zm1 0h2v1h-2zm2 0h1v1h-1zm3 0h4v1h-4zm4 0h1v1h-1zm111 0h1v1h-1zm10 0h1v1h-1zm30 0h1v1h-1zm9 0h1v1h-1zm16 0h1v1h-1zm68 0h1v1h-1zm7 0h1v1h-1zm9 0h1v1h-1zm31 0h1v1h-1zM34 80h2v1h-2zm2 0h1v1h-1zm3 0h1v1h-1zm36 0h4v1h-4zm4 0h1v1h-1zm105 0h1v1h-1zm9 0h1v1h-1zm17 0h1v1h-1zm1 0h1v1h-1zm11 0h1v1h-1zm1 0h1v1h-1zm10 0h1v1h-1zm8 0h1v1h-1zm8 0h1v1h-1zm56 0h1v1h-1zm1 0h1v1h-1zm9 0h1v1h-1zm16 0h1v1h-1zm19 0h1v1h-1zm14 0h1v1h-1zM30 81h1v1h-1zm54 0h1v1h-1zm4 0h1v1h-1zm71 0h1v1h-1zm8 0h1v2h-1zm44 0h1v1h-1zm1 0h1v1h-1zm9 0h1v1h-1zm1 0h1v1h-1zm11 0h1v1h-1zm7 0h1v1h-1zm1 0h1v1h-1zm8 0h1v1h-1zm48 0h1v1h-1zm1 0h1v1h-1zm8 0h1v1h-1zm9 0h1v1h-1zm16 0h1v1h-1zm33 0h1v1h-1zm1 0h1v1h-1zm-242 1h2v1h-2zm2 0h1v1h-1zm12 0h1v1h-1zm10 0h2v1h-2zm2 0h1v1h-1zm11 0h1v1h-1zm25 0h1v1h-1zm1 0h1v1h-1zm27 0h1v1h-1zm1 0h2v1h-2zm2 0h1v1h-1zm4 0h1v1h-1zm1 0h1v1h-1zm11 0h1v1h-1zm7 0h1v1h-1zm1 0h1v1h-1zm10 0h1v1h-1zm24 0h1v1h-1zm16 0h1v1h-1zm7 0h1v1h-1zm10 0h1v1h-1zm1 0h1v1h-1zm17 0h1v1h-1zm7 0h1v1h-1zm20 0h1v1h-1zm-185 1h1v1h-1zm10 0h1v1h-1zm9 0h1v1h-1zm8 0h1v1h-1zm21 0h1v1h-1zm80 0h1v1h-1zm17 0h1v1h-1zm20 0h1v1h-1zm25 0h1v1h-1zm-164 1h1v3h-1zm0 3h1v1h-1zm38 3h1v1h-1zm1 0h1v1h-1zm-122 1h1v1h-1zm1 0h1v1h-1zm-8 1h1v1h-1zm-2 1h1v1h-1zm1 0h1v1h-1zm6 0h1v1h-1zm1 1h1v1h-1zm-7 2h1v1h-1zm0 1h1v1h-1zm9 0h1v1h-1zm-3 1h1v1h-1zm3 0h1v1h-1zm1 0h1v2h-1zm-11 2h1v1h-1zm8 0h1v1h-1zm3 0h1v1h-1zm-3 1h1v1h-1zm4 0h1v1h-1zm1 0h1v3h-1zm130 0h1v1h-1zm-134 1h1v1h-1zm3 0h1v1h-1zm15 0h1v1h-1zm-18 1h1v1h-1zm-11 1h1v1h-1zm12 0h1v2h-1zm3 0h1v1h-1zm1 1h1v1h-1zm-17 1h1v1h-1zm13 0h1v2h-1zm-1 2h1v1h-1zm1 0h1v1h-1zm-10 1h1v1h-1z" fill="#f1863c"/><path d="M60 35h1v1h-1zm-5 3h1v1h-1zm-7 1h1v1h-1zm6 1h1v1h-1zm25 1h1v1h-1zm2 2h1v1h-1zm3 1h1v1h-1zm3 0h1v1h-1zm5 2h1v1h-1zm-74 4h1v1h-1zm85 1h1v1h-1zm6 1h1v1h-1zM0 61h1v1H0zm19 5h1v1h-1zm61 0h1v1h-1zm-3 2h1v1h-1zm-52 1h1v1h-1zm200 0h1v1h-1zM25 70h1v1h-1zm113 0h1v13h-1zm28 0h1v1h-1zm27 0h1v1h-1zm80 0h1v1h-1zm35 0h1v1h-1zm45 0h1v1h-1zm-211 1h1v1h-1zm24 0h1v1h-1zm27 0h1v1h-1zm17 0h1v1h-1zm64 0h1v1h-1zm77 0h1v1h-1zm17 0h1v1h-1zm-193 2h1v1h-1zm139 0h1v1h-1zm-22 1h1v1h-1zm14 0h1v1h-1zm-65 1h1v1h-1zm8 0h1v3h-1zm49 0h1v1h-1zm19 0h1v1h-1zm-124 1h1v1h-1zm103 0h1v1h-1zm19 0h1v1h-1zm-169 1h1v1h-1zm36 0h1v1h-1zm11 0h1v1h-1zm104 0h1v1h-1zm18 0h1v1h-1zm-90 1h1v1h-1zm24 0h1v1h-1zm113 0h1v1h-1zM59 79h1v1h-1zm-19 1h1v1h-1zm274 0h1v1h-1zm-165 1h1v1h-1zm1 0h1v1h-1zm149 0h1v1h-1zm8 0h1v1h-1zm23 0h1v1h-1zM29 82h1v1h-1zm137 0h1v1h-1zm45 0h1v1h-1zm6 0h1v1h-1zm98 0h1v1h-1zm-191 1h6v1h-6zm6 0h1v1h-1zm8 0h1v1h-1zm10 0h1v1h-1zm18 0h1v1h-1zm27 0h1v1h-1zm27 0h1v1h-1zm20 0h1v1h-1zm11 0h1v1h-1zm62 0h1v1h-1zm53 0h1v1h-1zm-180 7h3v1h-3zm3 0h1v1h-1zm-76 2h1v1h-1zm-2 4h1v1h-1zm-10 2h1v1h-1zm75 1h1v1h-1zm35 0h1v1h-1zm1 0h1v1h-1zm11 0h1v1h-1zm5 0h1v1h-1zm19 0h1v1h-1zm-119 1h1v1h-1zm39 1h1v2h-1zm37 0h1v2h-1zm-37 2h1v1h-1zm37 0h1v1h-1zm16 0h1v2h-1zm-91 1h1v1h-1zm29 0h1v1h-1zm-60 1h1v1h-1zm40 0h1v1h-1zm39 0h1v1h-1zm18 0h1v1h-1zm25 0h1v1h-1zm18 0h1v1h-1zm-124 2h1v1h-1zm-14 2h1v1h-1z" fill="#f18941"/><path d="M50 37h1v1h-1zm-8 3h1v1h-1zm12 2h1v1h-1zm-1 4h1v1h-1zm42 0h1v1h-1zM9 52h1v1H9zm108 2h1v1h-1zm2 1h1v1h-1zm-35 5h1v1h-1zm51 3h1v1h-1zm-14 1h1v1h-1zm-56 4h1v1h-1zm90 1h1v1h-1zm3 0h1v1h-1zm78 0h1v1h-1zm105 0h1v1h-1zm25 0h1v1h-1zm-189 1h1v1h-1zm30 0h1v1h-1zm-18 2h1v1h-1zm106 0h1v1h-1zm15 0h1v1h-1zm46 0h1v1h-1zm-182 1h1v1h-1zm77 0h1v1h-1zm-97 1h1v1h-1zm102 0h1v1h-1zm44 2h1v1h-1zm14 0h1v1h-1zm0 1h1v1h-1zm-68 1h1v1h-1zm5 2h1v1h-1zm115 0h1v1h-1zm-130 1h1v1h-1zm75 0h1v1h-1zM34 82h1v1h-1zm340 0h1v1h-1zm-163 1h1v1h-1zm111 0h1v1h-1zm-161 1h1v1h-1zm30 2h1v1h-1zm-21 9h1v1h-1zm-2 2h1v1h-1zm-54 1h1v1h-1zm22 0h1v1h-1zm41 0h1v1h-1zm8 0h1v1h-1zm17 0h1v1h-1zm21 0h1v1h-1zm23 0h1v2h-1zm-52 1h1v1h-1zm49 1h1v1h-1zm3 0h1v1h-1zm-64 1h1v1h-1zm56 0h1v1h-1zm-65 1h1v1h-1zm-57 1h1v1h-1zm6 0h1v1h-1zm63 0h3v1h-3zm3 0h1v1h-1zm58 0h2v1h-2zm2 0h1v1h-1zm-35 1h1v1h-1zm14 0h1v1h-1zm-76 2h1v1h-1zm74 0h1v1h-1zm-113 4h1v1h-1zm-9 2h1v1h-1z" fill="#fae7dc"/><path d="M51 37h1v1h-1zm5 1h1v1h-1zm-19 3h1v1h-1zm40 1h1v1h-1zm-46 2h1v1h-1zm22 0h1v1h-1zm35 2h1v1h-1zm3 1h1v1h-1zm-70 1h1v1h-1zm80 3h1v1h-1zm1 0h1v1h-1zm6 2h1v1h-1zm-49 2h1v1h-1zm27 0h1v1h-1zm-33 2h1v1h-1zM1 62h1v1H1zm37 1h1v1h-1zm35 0h1v1h-1zm-57 3h1v1h-1zm63 0h1v1h-1zm-46 2h16v1H33zm16 0h1v1h-1zm15 0h1v1h-1zm157 0h1v1h-1zm-32 1h1v1h-1zm48 0h1v1h-1zm35 0h1v1h-1zm40 0h1v1h-1zm34 0h1v1h-1zm8 0h1v1h-1zm3 0h1v1h-1zm-196 1h1v13h-1zm198 0h1v1h-1zm-152 1h1v1h-1zm-56 1h1v1h-1zm39 0h1v1h-1zm122 0h1v1h-1zm42 0h1v1h-1zm-208 2h1v1h-1zm104 0h1v1h-1zm115 0h1v1h-1zm-215 1h1v1h-1zm-1 3h1v1h-1zm101 1h1v1h-1zm115 0h1v1h-1zM48 80h1v1h-1zm17 0h1v1h-1zm170 1h1v1h-1zm22 0h1v1h-1zm38 0h1v1h-1zm64 0h1v1h-1zM81 82h1v1h-1zm-54 1h1v1h-1zm134 0h1v1h-1zm177 0h1v1h-1zm-202 1h1v1h-1zm11 0h1v1h-1zm29 0h1v1h-1zm1 0h1v1h-1zm12 0h1v1h-1zm3 0h1v1h-1zm44 0h1v1h-1zm28 0h1v1h-1zm1 0h1v1h-1zm25 0h1v1h-1zm18 0h1v1h-1zm45 0h1v1h-1zm4 0h1v1h-1zm14 0h1v1h-1zM171 95h1v1h-1zm-1 1h1v9h-1zm-9 1h1v1h-1zm34 0h1v1h-1zm-61 2h1v1h-1zm108 0h1v1h-1zm-110 1h1v2h-1zm91 0h1v1h-1zm11 0h1v5h-1zm6 0h1v1h-1zm-53 1h1v1h-1zm9 0h1v4h-1zm27 0h1v1h-1zm-91 1h1v2h-1zm109 0h1v1h-1zm-22 1h1v1h-1zm-107 1h1v1h-1zm20 0h1v1h-1zm91 0h1v1h-1zm20 0h2v1h-2zm2 0h1v1h-1zm-75 1h1v1h-1zm26 0h1v1h-1zm15 0h1v1h-1zm23 0h1v1h-1zm-74 1h2v1h-2zm2 0h1v1h-1zm15 0h1v1h-1zm8 0h1v1h-1zm37 0h1v1h-1zm7 0h1v1h-1zm-116 1h1v1h-1zm-13 3h1v1h-1z" fill="#f8cbae"/><path d="M47 39h1v1h-1zm27 1h1v1h-1zm-54 9h1v1h-1zm-3 1h1v1h-1zm93 12h1v1h-1zm-27 1h1v1h-1zm140 3h1v1h-1zm-55 5h1v1h-1zm83 1h1v1h-1zm15 2h1v1h-1zm-98 1h1v7h-1zm105 0h1v8h-1zm-26 1h1v1h-1zM42 80h1v1h-1zm182 0h1v1h-1zm72 1h1v1h-1zm-128 1h1v1h-1zm88 0h1v1h-1zm36 0h1v1h-1zm39 0h1v1h-1zm-58 1h1v1h-1zm-79 4h1v1h-1zm13 9h1v1h-1zm-61 2h1v6h-1zm66 0h1v1h-1zm-87 1h1v1h-1zm82 1h1v1h-1zm29 0h1v1h-1zm-126 1h1v1h-1zm47 0h1v1h-1zm91 1h1v1h-1zm-125 1h1v1h-1zm23 1h1v1h-1zm66 0h1v1h-1zm16 0h1v1h-1z" fill="#f29357"/><path d="M225 66h1v1h-1zM51 67h1v1h-1zm270 3h1v8h-1zM90 72h1v2h-1zm0 2h1v1h-1zm88 1h1v6h-1zm48 1h1v1h-1zm95 2h1v1h-1zm-108 1h1v1h-1zm-35 2h1v1h-1z" fill="#f3a872"/><path d="M67 31h1v1h-1zm-30 1h1v1h-1zm27 0h1v1h-1zm-3 1h1v1h-1zm-9 3h1v1h-1zm-3 1h1v1h-1zm12 0h1v1h-1zm22 0h1v1h-1zm-42 3h1v1h-1zm44 0h1v1h-1zm-55 4h1v1h-1zm-8 3h1v1h-1zm-3 1h1v1h-1zm34 0h1v1h-1zm57 0h1v1h-1zm-52 1h1v1h-1zm-47 2h1v1h-1zm47 1h1v1h-1zM6 53h1v1H6zm47 0h1v1h-1zM3 54h1v1H3zm77 2h1v1h-1zm-26 2h1v1h-1zm22 4h1v1h-1zm62 0h1v1h-1zm1 1h1v1h-1zm18 0h1v1h-1zm65 0h1v1h-1zM6 64h1v1H6zm66 0h1v1h-1zm55 0h1v16h-1zm-68 1h1v1h-1zm-45 1h1v1h-1zm121 0h1v1h-1zM17 67h1v1h-1zm200 0h1v1h-1zm1 0h1v1h-1zm82 0h1v1h-1zM21 68h1v1h-1zm45 0h1v1h-1zm69 1h1v1h-1zm30 0h1v1h-1zm11 0h1v1h-1zm16 0h1v1h-1zm22 0h1v1h-1zm27 0h1v1h-1zm73 0h1v1h-1zm29 0h1v1h-1zm16 0h1v1h-1zm6 0h1v1h-1zm-214 1h1v1h-1zm107 0h1v1h-1zm9 0h1v1h-1zm8 0h1v1h-1zm98 0h1v1h-1zm2 3h1v1h-1zm-233 1h1v1h-1zm210 1h1v1h-1zm9 0h1v1h-1zm-121 3h1v1h-1zm107 0h1v1h-1zm28 0h1v1h-1zm-79 1h1v1h-1zm5 0h1v1h-1zm17 0h1v1h-1zM58 80h1v1h-1zm69 0h1v1h-1zm25 0h1v1h-1zm67 0h1v1h-1zm8 0h1v1h-1zm81 0h1v1h-1zm21 0h1v1h-1zm30 0h1v1h-1zM44 81h1v1h-1zm1 0h1v1h-1zm23 0h1v1h-1zm1 0h1v1h-1zm190 0h1v1h-1zm89 0h1v1h-1zM37 82h1v1h-1zm108 0h1v1h-1zm37 0h1v1h-1zm77 0h1v1h-1zm62 0h1v1h-1zM29 83h1v1h-1zm276 0h1v1h-1zM25 84h1v1h-1zm247 0h1v1h-1zm16 0h1v1h-1zm9 0h1v1h-1zm33 0h1v1h-1zm-134 1h1v1h-1zm-11 2h1v1h-1zm5 4h1v1h-1zm-63 4h1v1h-1zm18 0h1v1h-1zm21 0h1v1h-1zm15 0h1v1h-1zm13 0h1v1h-1zm-94 1h1v1h-1zm109 0h1v1h-1zm-85 1h1v1h-1zm8 1h1v1h-1zm43 0h1v1h-1zm3 0h1v1h-1zm6 0h1v1h-1zm23 0h1v1h-1zm1 0h2v1h-2zm2 0h1v1h-1zm4 0h3v1h-3zm3 0h1v1h-1zm3 0h1v1h-1zm4 0h1v1h-1zm6 0h1v1h-1zm12 0h1v1h-1zm6 0h1v1h-1zM99 99h1v1h-1zm75 0h1v1h-1zm35 0h1v1h-1zm9 0h1v3h-1zm7 0h1v1h-1zm-36 1h1v1h-1zm16 0h1v1h-1zm14 0h1v1h-1zm7 0h1v1h-1zm21 1h1v1h-1zm-131 1h1v1h-1zm102 0h1v1h-1zm-56 1h1v1h-1zm27 0h1v1h-1zm-29 1h1v1h-1zm13 0h1v1h-1zm-49 1h1v1h-1zm4 0h1v1h-1zm87 0h1v1h-1zm-94 1h1v1h-1zm32 0h1v1h-1zm5 0h1v1h-1zm6 0h1v1h-1zm17 0h1v1h-1zm13 0h1v1h-1zm55 0h1v1h-1zm-135 3h1v1h-1zm-5 2h1v1h-1z" fill="#fef7f3"/><g fill="#f18840"><path d="M33 34h2v7h-2zm2 0h1v7h-1zm30 0h10v1H65zm10 0h1v2h-1z"/><path d="M63 35h14v1H63zm14 0h1v3h-1z"/><path d="M75 36h3v1h-3zm3 0h1v2h-1z"/><path d="M76 37h4v1h-4zm4 0h1v4h-1zm-27 1h1v1h-1zm1 0h1v1h-1z"/><path d="M77 38h4v1h-4zm4 0h1v4h-1zm-30 1h2v3h-2zm2 0h1v1h-1zm12 0h1v21h-1zm14 0h2v1h-2z"/><path d="M48 40h4v4h-4zm21 0h1v21h-1zm13 0h1v2h-1zm-49 1h2v1h-2zm2 0h1v1h-1z"/><path d="M45 41h7v3h-7zm19 0h5v19h-5zm16 0h2v1h-2z"/><path d="M43 42h9v2h-9zm9 0h1v1h-1zm11 0h8v17h-8zm8 0h1v19h-1zm10 0h2v1h-2z"/><path d="M40 43h11v18H40zm22 0h12v14H62zm12 0h2v17h-2zm2 0h1v16h-1z"/><path d="M39 44h12v17H39zm12 0h1v1h-1zm26 0h1v13h-1z"/><path d="M61 45h17v10H61zm17 0h1v10h-1zm-49 1h1v35h-1zm-3 2h3v33h-3z"/><path d="M23 49h6v17h-6zm66 0h1v19h-1zm1 0h1v17h-1z"/><path d="M21 50h8v15h-8zm70 0h2v15h-2zm2 0h1v15h-1z"/><path d="M18 51h11v13H18zm76 0h2v13h-2zm2 0h1v13h-1zm3 0h1v12h-1zm10 0h1v1h-1z"/><path d="M15 52h14v11H15zm82 0h2v12h-2zm5 0h3v11h-3zm3 0h1v57h-1z"/><path d="M13 53h16v10H13zm87 0h6v10h-6zm6 0h1v56h-1z"/><path d="M10 54h19v8H10zm78 0h18v9H88z"/><path d="M7 55h22v6H7zm54 0h17v1H61zm17 0h1v1h-1zm9 0h20v1H87zm20 0h1v7h-1z"/><path d="M4 56h25v5H4zm104 0h2v5h-2zm2 0h1v4h-1z"/><path d="M2 57h27v3H2zm49 0h1v5h-1zm11 0h15v1H62zm15 0h1v1h-1zm34 0h1v3h-1zm1 0h1v3h-1z"/><path d="M0 58h29v2H0zm72 0h4v2h-4zm15 0h26v2H87zm26 0h1v2h-1zm-61 1h1v3h-1z"/><path d="M63 59h13v1H63zm13 0h1v1h-1zM0 60h29v1H0zm64 0h11v1H64zm11 0h1v1h-1zm12 0h26v1H87zm26 0h1v1h-1zM4 61h25v1H4zm35 0h14v1H39zm14 0h1v17h-1zm13 0h7v1h-7zm7 0h1v1h-1zm13 0h23v1H86zm23 0h1v1h-1zM8 62h21v1H8zm43 0h2v1h-2zm34 0h22v1H85zm22 0h1v1h-1zm-96 1h18v1H11zm43 0h1v14h-1zm31 0h21v1H85zm-69 1h13v1H16zm40 0h1v13h-1zm28 0h14v1H84zm14 0h1v1h-1zm5 0h3v1h-3zm-87 1h1v1h-1zm3 0h10v1H19zm36 0h1v12h-1zm28 0h11v1H83zm11 0h1v1h-1zm4 0h1v1h-1zm6 0h2v44h-2zm-81 1h6v1h-6zm34 0h1v11h-1zm25 0h9v1h-9zm9 0h1v1h-1zm121 0h1v1h-1zm78 0h1v1h-1zM25 67h4v1h-4zm33 0h1v10h-1zm23 0h8v1h-8zm130 0h1v1h-1zm1 0h1v1h-1zM59 68h1v9h-1zm20 0h10v1H79zm10 0h1v1h-1zm121 0h1v1h-1zm13 0h1v1h-1zm66 0h1v2h-1zM30 69h1v11h-1z"/><path d="M52 69h9v8h-9zm9 0h1v10h-1zm16 0h10v10H77zm10 0h1v12h-1zm137 0h1v1h-1z"/><path d="M31 70h35v7H31zm35 0h1v8h-1zm7 0h14v9H73zm136 0h1v1h-1zm15 0h1v1h-1zm64 0h1v1h-1zm1 0h1v1h-1z"/><path d="M25 71h62v1H25zm66 0h1v9h-1zm84 0h1v1h-1zm34 0h1v1h-1zM67 72h20v6H67zm100 0h1v1h-1zm1 0h1v1h-1zm8 0h1v1h-1zm56 0h1v1h-1zm33 0h1v1h-1zm74 0h1v9h-1zm-172 1h1v1h-1zm9 0h1v1h-1zm8 0h1v1h-1zm48 0h1v1h-1zm33 0h1v1h-1zm75 0h1v1h-1zm-46 1h1v1h-1zm46 0h1v1h-1zm32 0h1v1h-1zm-179 1h1v1h-1zm179 0h1v1h-1zm-55 1h1v2h-1zm46 0h1v1h-1zm1 0h1v1h-1z"/><path d="M31 77h56v1H31zm178 0h1v1h-1zm154 0h1v1h-1zM31 78h22v1H31zm22 0h1v1h-1zm7 0h27v1H60zm133 0h1v1h-1zm16 0h1v1h-1zm15 0h1v1h-1zm18 0h1v1h-1zm75 0h1v1h-1zM31 79h9v1h-9zm9 0h1v1h-1zm20 0h1v1h-1zm1 0h1v1h-1zm12 0h14v1H73zm138 0h1v1h-1zM30 80h3v1h-3zm3 0h1v1h-1zm41 0h1v1h-1zm6 0h7v1h-7zm11 0h1v1h-1zm141 0h1v1h-1zm91 0h1v1h-1zm9 0h1v1h-1zM26 81h3v1h-3zm3 0h1v1h-1zm56 0h2v1h-2zm2 0h1v1h-1zm60 0h1v1h-1zm37 0h1v1h-1zm9 0h1v1h-1zm39 0h1v1h-1zm91 0h1v1h-1zm9 0h1v1h-1zm7 0h1v1h-1zm12 0h1v1h-1zm-27 1h1v1h-1zm-201 1h1v1h-1zm8 0h1v1h-1zm6 0h1v1h-1zm77 0h1v1h-1zm76 0h1v1h-1zm18 0h1v1h-1zm16 0h1v1h-1zm-132 5h1v1h-1zm-85 4h1v17h-1zm4 0h1v1h-1zm-8 1h4v16h-4z"/><path d="M102 94h6v1h-6zm6 0h1v1h-1zm-7 1h7v1h-7zm7 0h1v1h-1zm-6 3h5v11h-5zm6 1h1v10h-1z"/><path d="M101 101h7v7h-7z"/><path d="M100 102h9v6h-9zm9 0h1v6h-1zm1 2h1v3h-1z"/><path d="M99 105h11v2H99zm60 0h1v1h-1zm-60 2h12v1H99zm1 1h9v1h-9zm9 0h1v1h-1zm-7 1h6v1h-6zm6 0h1v1h-1z"/></g><path d="M79 35h1v1h-1zm-17 1h1v1h-1zm6 0h1v1h-1zm1 0h2v1h-2zm2 0h1v1h-1zm-6 1h1v1h-1zm13 3h1v1h-1zm6 1h1v1h-1zm-51 2h1v1h-1zm44 0h1v1h-1zm11 2h1v1h-1zm-1 2h1v1h-1zm7 0h1v1h-1zm4 1h1v1h-1zm-5 1h1v1h-1zm14 4h1v1h-1zm-20 1h1v1h-1zm26 0h1v1h-1zm-52 4h1v1h-1zm25 0h1v1h-1zM4 62h1v1H4zm105 0h1v1h-1zm107 2h2v1h-2zm2 0h1v1h-1zm76 0h2v1h-2zm2 0h1v1h-1zm-187 1h1v25h-1zm13 0h1v1h-1zM22 67h1v1h-1zm199 0h1v1h-1zM91 69h1v1h-1zm53 1h1v1h-1zm125 0h1v1h-1zm-115 1h1v1h-1zm152 0h1v1h-1zm-140 1h1v9h-1zm17 0h1v1h-1zm83 0h1v1h-1zm1 0h1v1h-1zm22 0h1v1h-1zm82 0h2v1h-2zm2 0h1v1h-1zm-31 1h1v1h-1zm-174 1h1v1h-1zm14 2h2v1h-2zm2 0h1v1h-1zm115 0h1v1h-1zm75 0h1v1h-1zm-192 2h1v1h-1zM54 79h1v1h-1zm128 0h1v1h-1zm124 0h1v1h-1zM73 80h1v1h-1zm74 0h1v1h-1zm38 0h1v1h-1zm-61 1h1v1h-1zm42 0h1v1h-1zm47 0h1v1h-1zm7 0h1v1h-1zm-27 1h1v1h-1zm29 0h1v1h-1zm30 0h1v1h-1zm60 0h1v1h-1zm55 0h1v1h-1zm-182 1h1v1h-1zm104 0h1v1h-1zm7 0h1v1h-1zm11 0h1v1h-1zm45 0h1v1h-1zm-243 7h1v1h-1zm0 5h1v1h-1zm18 3h1v1h-1zm-18 1h1v1h-1zm-9 1h1v1h-1zm24 0h1v1h-1zm38 1h1v1h-1zm75 0h1v1h-1zm3 1h1v1h-1zm-2 2h1v1h-1zm-75 1h1v1h-1zm4 0h1v1h-1zm4 0h1v1h-1zm4 0h1v1h-1zm9 0h1v1h-1zm3 0h1v1h-1zm46 0h1v1h-1zm-118 2h1v1h-1z" fill="#f18b46"/><path d="M70 38h1v1h-1zm-6 1h1v1h-1zm8 2h1v1h-1zm7 2h1v1h-1zm1 0h1v1h-1zm-20 1h1v1h-1zm-8 2h1v1h-1zm41 1h1v1h-1zm3 0h1v1h-1zm-37 6h1v1h-1zm56 2h1v1h-1zm-2 1h1v1h-1zm3 3h1v1h-1zm-65 4h1v1h-1zm17 0h1v1h-1zm69 0h1v1h-1zm22 0h1v1h-1zm55 1h1v1h-1zm-112 1h1v1h-1zm-10 2h1v1h-1zm-41 1h1v1h-1zm25 0h1v1h-1zm-5 1h1v1h-1zm260 1h1v6h-1zm-43 1h1v1h-1zm-143 1h1v1h-1zm65 0h1v1h-1zm16 1h1v1h-1zm123 0h1v1h-1zm16 0h1v1h-1zm-183 1h1v1h-1zm44 0h1v1h-1zm21 1h1v1h-1zm59 0h1v1h-1zm25 1h1v2h-1zm34 1h1v1h-1zm-34 1h1v1h-1zM56 79h1v1h-1zm1 0h1v1h-1zm-22 2h1v1h-1zm43 0h1v1h-1zm11 1h1v1h-1zm61 0h1v1h-1zm39 0h1v1h-1zm122 0h1v1h-1zm44 0h1v1h-1zm-67 1h1v1h-1zm9 0h1v1h-1zm-105 3h1v1h-1zm-81 3h1v1h-1zm0 1h1v1h-1zm51 6h1v1h-1zm55 0h1v1h-1zm-54 1h1v1h-1zm17 0h1v2h-1zm-22 1h1v1h-1zm-23 1h1v1h-1zm45 0h1v4h-1zm19 0h1v1h-1zm31 0h1v1h-1zm15 0h1v1h-1zm-57 1h1v1h-1zm23 0h1v1h-1zm-37 1h1v1h-1zm33 0h1v2h-1zm9 0h1v3h-1zm32 0h1v1h-1zm-119 1h1v1h-1zm93 0h1v1h-1zm-98 1h1v1h-1zm56 0h1v1h-1zm27 0h1v1h-1zm9 1h1v1h-1zm-100 1h1v1h-1zm30 0h1v1h-1zm32 0h1v1h-1zm8 0h1v1h-1zm36 0h1v1h-1zm25 0h1v1h-1z" fill="#f39b5d"/><path d="M37 33h1v7h-1zm38 6h1v1h-1zm-38 1h1v1h-1zm60 7h1v1h-1zM5 63h1v1H5zm70 18h1v1h-1zm33 10h1v1h-1zm8 13h1v1h-1zm-3 5h1v1h-1z" fill="#eec1a3"/><path d="M63 33h1v1h-1zm12 5h1v1h-1zm-5 1h1v1h-1zm16 5h1v1h-1zm6 3h1v1h-1zm17 6h1v1h-1zm-30 4h1v1h-1zm36 1h1v1h-1zm-5 5h1v1h-1zm-2 2h1v1h-1zm101 2h1v1h-1zm16 0h1v1h-1zM31 68h1v1h-1zm199 2h1v6h-1zm3 0h1v1h-1zm33 0h1v1h-1zm58 0h1v8h-1zm22 2h1v1h-1zm-123 1h1v1h-1zm0 1h1v1h-1zm-12 1h1v1h-1zm-36 1h1v7h-1zm55 0h1v1h-1zm-122 1h1v1h-1zm125 1h1v1h-1zm70 0h1v1h-1zm21 0h1v1h-1zm-112 1h1v1h-1zm-20 3h1v1h-1zm-46 1h1v1h-1zm29 0h1v1h-1zm47 0h1v1h-1zm11 0h1v1h-1zm-3 7h1v1h-1zm-75 7h1v1h-1zm74 1h1v1h-1zm-19 1h1v1h-1zm7 0h1v1h-1zm-94 3h1v1h-1zm96 2h1v1h-1z" fill="#f6b385"/><path d="M54 36h1v1h-1zm6 0h1v1h-1zm14 5h1v1h-1zm12 4h1v1h-1zm-27 1h1v1h-1zm21 1h1v1h-1zm10 0h1v1h-1zm3 1h1v1h-1zm9 1h1v1h-1zm11 6h1v1h-1zm2 1h1v1h-1zm0 5h1v1h-1zm-6 2h1v1h-1zm-52 1h1v1h-1zm68 0h1v1h-1zm-24 1h1v1h-1zm59 1h1v1h-1zm60 1h1v1h-1zm-8 2h1v1h-1zm23 1h1v1h-1zm-1 1h1v1h-1zm108 0h1v1h-1zm-46 2h1v1h-1zm75 0h1v1h-1zm-179 1h1v1h-1zm173 1h1v1h-1zm-213 3h1v1h-1zm196 1h1v1h-1zM47 80h1v1h-1zm78 0h1v1h-1zm-49 1h1v1h-1zm140 0h1v1h-1zm88 0h1v1h-1zM91 82h1v1h-1zm208 0h1v1h-1zm-113 2h1v1h-1zm29 0h1v1h-1zm40 0h1v1h-1zm72 0h1v1h-1zm40 0h1v1h-1zm-267 9h1v1h-1zm68 3h1v1h-1zm-4 1h1v1h-1zm-54 2h1v1h-1zm41 0h1v5h-1zm69 1h1v1h-1zm-17 1h1v1h-1zm40 0h1v1h-1zm-92 3h1v1h-1zm86 0h1v1h-1z" fill="#f7bc98"/><path d="M63 37h1v1h-1zm9 0h1v1h-1zm-26 2h1v1h-1zm30 0h1v1h-1zm-1 2h1v1h-1zm-37 1h1v1h-1zm14 8h1v2h-1zm46 0h1v1h-1zm-46 2h1v1h-1zm34 4h1v1h-1zm-1 3h1v1h-1zm-21 3h1v1h-1zm-8 1h1v1h-1zm55 0h1v1h-1zM9 64h1v1H9zm152 1h1v1h-1zm128 0h1v1h-1zM61 67h1v1h-1zm14 1h1v1h-1zm80 2h1v1h-1zm71 0h1v1h-1zm24 0h1v1h-1zm18 0h1v1h-1zm-99 1h1v1h-1zm89 0h1v1h-1zm-51 1h1v1h-1zm-29 1h1v1h-1zm4 0h1v1h-1zm30 0h1v1h-1zm22 0h1v1h-1zm-22 1h1v1h-1zm-69 1h1v1h-1zm107 0h1v1h-1zm98 0h1v1h-1zm-122 2h1v1h-1zm-34 2h1v1h-1zm55 1h1v1h-1zm53 0h1v1h-1zm30 0h1v1h-1zm22 0h1v1h-1zm10 0h1v1h-1zm-236 1h1v1h-1zm203 0h1v1h-1zm29 0h1v1h-1zM82 82h1v1h-1zm5 1h1v1h-1zm63 0h1v1h-1zm156 0h1v1h-1zm67 0h1v1h-1zm-185 1h1v1h-1zm30 0h1v1h-1zm34 0h1v1h-1zm42 0h1v1h-1zm15 0h1v1h-1zm16 0h1v1h-1zm31 0h1v1h-1zm-164 1h1v1h-1zm1 4h1v1h-1zm-85 1h1v1h-1zm2 5h1v1h-1zm-1 1h1v1h-1zm36 0h1v1h-1zm14 0h1v1h-1zm70 1h1v1h-1zm-105 2h1v1h-1zm84 0h1v1h-1zm12 0h1v1h-1zm-44 1h1v1h-1zm-47 1h1v1h-1zm107 0h1v1h-1zm-125 1h1v1h-1zm14 1h1v1h-1zm-12 2h1v1h-1zm-2 4h1v1h-1zm1 0h1v1h-1zm-5 2h1v1h-1z" fill="#f6b994"/><path d="M73 32h1v1h-1zm10 6h1v1h-1zm-11 2h1v1h-1zm5 0h1v1h-1zm19 9h1v1h-1zm4 1h1v1h-1zm11 4h1v1h-1zm111 10h1v1h-1zm-87 1h1v1h-1zm53 4h1v1h-1zm38 0h1v1h-1zm45 0h1v1h-1zm39 0h1v1h-1zm1 0h1v1h-1zm34 0h1v1h-1zm10 0h1v1h-1zm-5 2h1v1h-1zm-163 1h1v1h-1zm68 0h1v1h-1zm-11 3h1v2h-1zm12 0h1v1h-1zm115 0h1v1h-1zm-160 1h1v1h-1zm0 1h1v1h-1zm33 0h1v1h-1zm-18 1h1v1h-1zm-78 2h1v1h-1zm173 0h1v1h-1zm-138 7h1v1h-1zm0 3h1v1h-1zm51 6h1v1h-1zm-72 1h1v1h-1zm5 0h1v1h-1zm66 0h1v1h-1zm-77 2h1v1h-1zm-29 1h1v1h-1zm41 0h1v1h-1zm-57 1h1v1h-1zm92 1h1v1h-1z" fill="#f6c3a0"/><path d="M74 32h1v1h-1zm3 1h1v1h-1zm2 1h1v1h-1zm-23 1h1v1h-1zm2 1h1v1h-1zm-1 1h1v1h-1zm5 0h1v1h-1zm23 4h1v1h-1zm-26 4h1v1h-1zm25 0h1v1h-1zm8 0h1v1h-1zm-66 1h1v1h-1zm74 2h1v1h-1zm19 8h1v1h-1zm-59 2h1v1h-1zm25 0h1v1h-1zm34 1h1v1h-1zm-36 3h1v1h-1zM4 63h1v1H4zm212 0h2v1h-2zm2 0h1v1h-1zm76 0h2v1h-2zm2 0h1v1h-1zM8 64h1v1H8zm204 0h1v1h-1zm11 0h1v1h-1zm-65 2h1v1h-1zM19 67h1v1h-1zm4 1h1v1h-1zm51 0h1v1h-1zm-50 1h1v1h-1zm162 0h1v1h-1zm101 0h1v1h-1zm4 0h1v1h-1zm53 0h1v1h-1zm-209 1h1v10h-1zm49 0h1v1h-1zm29 0h1v1h-1zm93 0h1v1h-1zm9 0h1v1h-1zm19 0h1v13h-1zm-179 1h1v1h-1zm73 0h1v1h-1zm-57 1h2v1h-2zm2 0h1v1h-1zm79 0h1v1h-1zm115 0h1v1h-1zm-123 2h1v1h-1zm54 0h1v1h-1zm-22 1h1v8h-1zm23 0h1v1h-1zm-71 1h1v1h-1zm12 3h1v1h-1zM50 80h1v1h-1zm13 0h1v1h-1zm72 0h1v1h-1zm85 0h1v1h-1zm128 0h1v1h-1zM73 81h1v1h-1zm179 0h1v1h-1zm35 0h1v1h-1zm4 0h1v1h-1zm21 0h1v1h-1zM33 82h1v1h-1zm47 0h1v1h-1zm10 0h1v1h-1zm197 0h1v1h-1zM86 83h1v1h-1zm106 0h1v1h-1zm84 0h1v1h-1zm58 0h1v1h-1zm-176 1h1v1h-1zm27 0h1v1h-1zm128 0h1v1h-1zm28 0h1v1h-1zm-228 7h1v1h-1zm1 1h1v1h-1zm65 3h1v1h-1zm-54 1h1v1h-1zm41 0h1v1h-1zm-18 1h1v1h-1zm60 0h1v1h-1zm-70 2h1v1h-1zm96 0h1v1h-1zm10 0h1v1h-1zm-78 1h1v1h-1zm19 0h1v1h-1zm16 0h1v1h-1zm1 0h1v1h-1zm28 0h1v1h-1zm17 0h1v1h-1zm-124 1h1v1h-1zm11 0h1v1h-1zm48 1h1v1h-1zm7 0h1v1h-1zm-59 1h1v1h-1zm68 2h1v1h-1zm33 0h1v1h-1zm1 0h1v1h-1zm-94 1h1v1h-1zm29 0h1v1h-1zm4 0h1v1h-1zm24 0h1v1h-1zm9 0h1v1h-1zm29 0h1v1h-1zm15 0h1v1h-1z" fill="#fad7c2"/><path d="M75 32h1v1h-1zm-28 6h1v1h-1zm13 4h1v1h-1zm27 1h1v1h-1zm-4 2h1v1h-1zm10 0h1v1h-1zm-76 4h1v1h-1zm94 0h1v1h-1zm-25 3h1v1h-1zm-1 5h1v1h-1zm-7 3h1v1h-1zm-1 1h1v1h-1zm-21 1h1v1h-1zm104 0h1v1h-1zm-34 1h1v1h-1zm-58 1h3v1h-3zm3 0h1v1h-1zm41 0h1v26h-1zm49 2h1v1h-1zm65 0h1v1h-1zm-55 3h1v1h-1zm85 0h1v1h-1zm-60 1h1v13h-1zm146 0h1v1h-1zm-160 2h1v1h-1zm72 0h1v1h-1zm22 0h1v1h-1zm86 0h1v1h-1zm-216 1h1v1h-1zm24 0h1v1h-1zm74 0h1v1h-1zm59 0h1v1h-1zm-69 1h1v1h-1zm38 2h1v7h-1zm22 0h1v1h-1zm48 0h1v1h-1zm-91 2h1v1h-1zm115 0h1v1h-1zm-218 1h1v1h-1zm-89 1h1v1h-1zm127 0h1v1h-1zm53 0h1v1h-1zm19 0h1v1h-1zm55 0h1v1h-1zm60 0h1v1h-1zm-119 1h1v1h-1zm1 0h1v1h-1zm114 0h1v1h-1zm1 0h1v1h-1zM35 82h1v1h-1zm1 0h1v1h-1zm41 0h2v1h-2zm2 0h1v1h-1zm225 0h1v1h-1zM90 83h1v1h-1zm106 0h1v1h-1zm28 0h1v1h-1zm48 0h1v1h-1zm70 0h1v1h-1zm8 0h1v1h-1zM89 84h1v1h-1zm46 0h1v1h-1zm30 0h1v1h-1zm25 0h1v1h-1zm60 0h1v1h-1zm-68 3h1v2h-1zm0 2h1v1h-1zm-70 1h1v1h-1zm73 1h1v1h-1zm45 0h1v1h-1zm3 0h1v1h-1zm-73 4h1v1h-1zm8 0h1v1h-1zm4 0h1v1h-1zm62 0h1v1h-1zm-121 1h1v1h-1zm34 1h1v1h-1zm66 0h1v1h-1zm14 0h1v1h-1zm5 0h1v1h-1zm-99 1h2v1h-2zm2 0h1v1h-1zm18 0h1v1h-1zm88 0h1v1h-1zm4 0h1v1h-1zm-5 1h1v1h-1zm-125 1h1v1h-1zm116 0h1v1h-1zm4 0h1v1h-1zm-108 1h1v1h-1zm12 0h1v1h-1zm34 0h1v1h-1zm8 0h1v3h-1zm4 0h1v1h-1zm28 0h1v2h-1zm37 0h1v1h-1zm-152 1h1v1h-1zm115 1h1v1h-1zm9 0h1v1h-1zm-41 1h1v1h-1zm68 0h1v1h-1zm-118 1h1v1h-1zm26 0h1v1h-1zm-25 1h1v1h-1zm46 0h1v1h-1zm20 0h2v1h-2zm2 0h1v1h-1zm23 0h1v1h-1zm-122 5h1v1h-1zm6 1h1v1h-1z" fill="#fdf1e9"/><path d="M32 33h1v1h-1zm4 0h1v1h-1zm29 0h1v1h-1zm1 0h1v1h-1zm7 0h1v1h-1zm1 0h1v1h-1zm-13 2h1v1h-1zm-5 1h1v1h-1zm-2 1h1v1h-1zm-9 3h1v1h-1zm18 0h1v1h-1zm-28 2h1v1h-1zm3 1h1v19h-1zm41 2h1v2h-1zm10 0h1v1h-1zm-59 1h1v1h-1zm61 0h1v1h-1zm-65 1h1v1h-1zm53 0h1v1h-1zm16 0h1v1h-1zm2 1h1v1h-1zm3 1h1v1h-1zm10 1h1v1h-1zm-95 1h1v1h-1zm96 2h1v1h-1zm-32 1h1v1h-1zM4 55h1v1H4zm56 0h1v1h-1zm19 0h1v1h-1zm37 0h1v1h-1zm2 1h1v1h-1zm-40 1h1v1h-1zm-16 2h1v1h-1zm55 1h1v1h-1zm-79 2h1v1h-1zM9 63h1v1H9zm2 1h1v1h-1zm1 0h1v1h-1zm124 0h2v1h-2zm2 0h1v1h-1zm22 0h1v1h-1zM57 65h1v1h-1zm79 0h1v1h-1zm76 0h1v1h-1zm86 0h1v1h-1zm-9 1h1v1h-1zM23 67h1v1h-1zm9 2h18v1H32zm18 0h1v1h-1zm14 0h1v1h-1zm1 0h1v1h-1zm8 0h1v1h-1zm1 0h1v1h-1zm62 1h1v13h-1zm36 0h2v1h-2zm2 0h1v1h-1zm13 0h2v1h-2zm2 0h1v1h-1zm19 0h1v1h-1zm15 0h1v1h-1zm14 0h2v1h-2zm2 0h1v1h-1zm13 0h3v1h-3zm3 0h1v1h-1zm15 0h2v1h-2zm2 0h1v1h-1zm37 0h3v1h-3zm3 0h1v1h-1zm42 0h3v1h-3zm3 0h1v1h-1zm10 0h3v1h-3zm3 0h1v1h-1zm-226 1h1v1h-1zm28 0h1v1h-1zm1 0h1v1h-1zm14 0h3v1h-3zm3 0h1v1h-1zm18 0h1v1h-1zm27 0h3v1h-3zm3 0h1v1h-1zm14 0h1v1h-1zm3 0h1v1h-1zm13 0h3v1h-3zm3 0h1v1h-1zm38 0h3v1h-3zm3 0h1v1h-1zm31 0h3v1h-3zm3 0h1v1h-1zm8 0h4v1h-4zm4 0h1v1h-1zm7 0h2v1h-2zm2 0h1v1h-1zm-190 1h1v1h-1zm81 0h1v1h-1zm-115 1h2v1h-2zm2 0h1v1h-1zm38 0h1v1h-1zm65 0h1v1h-1zm-103 1h1v1h-1zm96 0h2v1h-2zm2 0h1v1h-1zm61 0h1v1h-1zm60 0h1v1h-1zm-220 1h1v1h-1zm40 0h1v1h-1zm59 0h1v4h-1zm-91 1h1v1h-1zm99 0h5v1h-5zm5 0h1v1h-1zm110 0h5v1h-5zm5 0h1v1h-1zm-220 2h1v1h-1zm72 0h1v1h-1zm141 0h1v1h-1zm-180 1h1v1h-1zm57 0h2v1h-2zm2 0h1v1h-1zm61 0h1v1h-1zm60 0h1v1h-1zm-48 1h1v1h-1zm6 0h1v1h-1zM81 81h1v1h-1zm11 0h1v1h-1zm54 0h1v1h-1zm37 0h1v1h-1zm139 0h1v1h-1zM27 82h1v1h-1zm1 0h1v1h-1zm57 0h1v1h-1zm1 0h1v1h-1zm45 0h1v1h-1zm53 0h1v1h-1zm57 0h1v1h-1zm8 0h1v1h-1zm57 0h1v1h-1zm17 0h1v1h-1zm28 0h1v1h-1zm7 0h1v1h-1zm-222 1h1v1h-1zm47 5h1v1h-1zm0 1h1v1h-1zm9 0h1v1h-1zm3 7h1v1h-1zm38 0h1v1h-1zm-107 1h1v1h-1zm26 0h1v1h-1zm5 1h1v1h-1zm18 2h1v1h-1zm4 0h1v1h-1zm16 0h1v1h-1zm29 0h1v1h-1zm-96 1h1v1h-1zm71 0h1v3h-1zm-66 1h1v1h-1zm-34 1h1v1h-1zm30 0h1v1h-1zm4 0h1v2h-1zm-18 1h1v1h-1zm8 0h1v1h-1zm56 0h1v1h-1zm-49 1h1v1h-1zm3 0h1v1h-1zm19 0h1v1h-1zm8 0h2v1h-2zm2 0h1v1h-1zm14 0h1v1h-1zm36 0h1v1h-1zm1 0h1v1h-1zm16 0h1v1h-1zm-117 2h1v1h-1zm-10 3h1v1h-1z" fill="#f08233"/><path d="M73 40h1v1h-1zm3 0h1v1h-1zm8 0h1v1h-1zm-50 3h1v1h-1zm25 4h1v1h-1zm21 2h1v2h-1zm22 1h1v1h-1zm-22 1h1v1h-1zm-27 7h1v1h-1zm107 5h1v1h-1zM51 65h1v1h-1zm75 0h1v14h-1zm-75 1h1v1h-1zm39 4h1v1h-1zm122 0h1v1h-1zm129 0h1v1h-1zM90 71h1v1h-1zm102 0h1v1h-1zm172 0h1v1h-1zm-141 1h1v1h-1zm52 0h1v1h-1zm-16 5h1v1h-1zm38 1h1v1h-1zm-171 1h1v1h-1zm88 1h1v1h-1zM77 81h1v1h-1zm109 0h1v1h-1zm-52 1h1v1h-1zm49 0h1v1h-1zm139 0h1v1h-1zm-188 1h1v1h-1zm44 0h1v1h-1zm1 13h1v1h-1zm32 2h1v1h-1zm26 2h1v1h-1zm-81 1h1v1h-1zm61 0h1v1h-1zm-92 1h1v1h-1zm92 0h1v1h-1zm12 2h1v1h-1zm11 0h1v1h-1zm-23 1h1v1h-1z" fill="#f5a771"/><path d="M40 41h1v1h-1zm-5 2h1v1h-1zm-4 3h1v20h-1zm-21 6h1v1h-1zm29 11h10v1H39zm10 0h1v1h-1zm-18 3h1v1h-1zm107 0h1v1h-1zm-61 1h1v1h-1zm222 0h1v1h-1zM32 68h1v1h-1zm259 0h1v1h-1zm-119 1h1v1h-1zm80 0h1v1h-1zm57 0h1v1h-1zm58 0h1v1h-1zm-176 1h1v1h-1zm147 0h1v12h-1zm-63 1h1v1h-1zm29 1h1v1h-1zm45 0h1v1h-1zm-102 1h1v1h-1zm115 0h1v1h-1zm-14 1h1v1h-1zm-96 1h3v1h-3zm3 0h1v1h-1zm112 0h3v1h-3zm3 0h1v1h-1zm-223 2h1v1h-1zm45 1h1v1h-1zm52 0h1v1h-1zm44 2h1v1h-1zM39 81h1v1h-1zm35 0h1v1h-1zm77 0h1v1h-1zm31 0h1v1h-1zm8 0h1v1h-1zm28 0h1v1h-1zm25 0h1v1h-1zm-33 1h1v1h-1zm128 0h1v1h-1zm-89 1h1v1h-1zm49 0h1v1h-1zm61 0h1v1h-1zm5 0h1v1h-1zm-241 1h8v1h-8zm8 0h1v1h-1zm6 0h1v1h-1zm1 0h1v1h-1zm10 0h1v1h-1zm1 0h1v1h-1zm10 0h1v1h-1zm1 0h1v1h-1zm6 0h1v1h-1zm1 0h1v1h-1zm47 0h1v1h-1zm37 0h1v1h-1zm5 0h1v1h-1zm18 0h1v1h-1zm1 0h1v1h-1zm57 0h1v1h-1zm1 0h1v1h-1zm6 0h1v1h-1zm1 0h1v1h-1zm26 0h1v1h-1zM232 96h1v1h-1zm-25 1h1v1h-1zm-49 2h1v1h-1zm10 0h1v1h-1zm28 0h1v1h-1zm8 0h1v1h-1zm33 0h1v1h-1zm-101 1h1v1h-1zm102 2h1v1h-1zm-82 1h1v1h-1zm65 0h1v1h-1zm-99 1h1v1h-1zm127 1h1v1h-1zm-62 1h1v1h-1zm25 0h1v1h-1z" fill="#f9ceb4"/><path d="M54 60h1v1h-1zm157 5h1v1h-1zm2 3h1v1h-1zm-36 3h1v1h-1zm50 0h1v1h-1zm-85 1h1v1h-1zm93 0h1v1h-1zm5 1h1v1h-1zm19 0h1v1h-1zm58 0h1v1h-1zm-139 1h1v1h-1zm-88 1h1v1h-1zm56 0h1v1h-1zm77 0h1v1h-1zm4 1h1v1h-1zm76 0h1v1h-1zm-78 3h1v1h-1zm96 0h1v1h-1zm52 2h1v1h-1zm-110 2h1v1h-1zm3 0h1v1h-1zm85 0h1v1h-1zm-160 7h1v1h-1zm-42 7h1v1h-1zm5 0h1v1h-1zm62 2h1v1h-1zm-33 1h1v1h-1zm28 1h1v1h-1zm-99 1h1v1h-1zm15 0h1v1h-1zm52 0h1v1h-1z" fill="#f5ae7d"/><g fill="#fff"><path d="M0 0h375v30H0zm375 0h1v72h-1zM0 30h375v1H0zm0 1h66v1H0zm66 0h1v1h-1zm8 0h301v1H74zM0 32h30v12H0zm30 0h1v11h-1zm8 0h25v1H38zm25 0h1v1h-1zm13 0h299v1H76zm-38 1h22v1H38zm22 0h1v1h-1zm19 0h296v1H79zm-41 1h21v1H38zm21 0h1v1h-1zm21 0h295v1H80zm-42 1h16v1H38zm16 0h1v1h-1zm27 0h294v1H81zm-43 1h13v1H38zm13 0h1v1h-1zm32 0h292v1H83zm-45 1h10v1H38zm10 0h1v1h-1zm10 0h2v6h-2zm2 0h1v4h-1zm24 0h291v1H84zm-46 1h8v1h-8zm8 0h1v1h-1z"/><path d="M57 38h6v1h-6zm6 0h1v1h-1zm21 0h291v1H84zm-46 1h6v1h-6zm6 0h1v1h-1zm13 0h5v1h-5zm5 0h1v1h-1zm23 0h290v1H85zm-47 1h2v1h-2zm2 0h1v1h-1zm16 0h5v1h-5zm5 0h1v1h-1zm25 0h289v1H86zm-48 1h1v1h-1zm17 0h5v2h-5zm5 0h1v1h-1zm26 0h289v1H86zm1 1h288v1H87zm-57 1h1v1h-1zm25 0h4v3h-4zm4 0h1v1h-1zm29 0h287v1H88zM0 44h29v1H0zm29 0h1v1h-1zm5 0h2v23h-2zm2 0h1v23h-1z"/><path d="M54 44h4v13h-4zm38 0h283v1H92zM0 45h27v1H0zm27 0h1v1h-1zm5 0h4v22h-4zm49 0h1v18h-1zm1 0h1v17h-1zm12 0h281v1H94zM0 46h24v1H0zm24 0h1v1h-1zm34 0h1v1h-1zm25 0h1v15h-1zm1 0h1v12h-1zm12 0h279v1H96zM0 47h21v1H0zm21 0h1v1h-1zm64 0h1v9h-1zm15 0h275v1H100zM0 48h18v1H0zm18 0h1v1h-1zm84 0h4v1h-4zm4 0h1v1h-1zm5 0h264v1H111zM0 49h16v1H0zm16 0h1v1h-1zm96 0h263v1H112zM0 50h14v1H0zm14 0h1v1h-1zm99 0h262v2H113zM0 51h10v1H0zm10 0h1v1h-1zM0 52h7v1H0zm7 0h1v1H7zm106 0h262v1H113zM0 53h5v1H0zm5 0h1v1H5zm110 0h260v1H115zM0 54h2v1H0zm2 0h1v1H2zm117 0h256v1H119zm-61 1h1v9h-1zm62 0h255v6H120zm-35 1h1v1h-1zm-31 1h4v1h-4z"/><path d="M80 57h4v4h-4zm-25 1h4v2h-4zm4 0h1v6h-1zm25 0h1v1h-1z"/><path d="M55 60h5v1h-5zm5 0h1v5h-1zm19 0h4v2h-4z"/><path d="M56 61h5v1h-5zm5 0h1v4h-1zm17 0h5v1h-5zm5 0h1v1h-1zm36 0h256v1H119z"/><path d="M57 62h5v1h-5zm5 0h1v4h-1zm15 0h5v1h-5zm5 0h1v1h-1zm34 0h19v1h-19zm19 0h1v1h-1zm4 0h18v1h-18zm18 0h1v1h-1zm4 0h214v1H161zM0 63h1v70H0zm1 0h1v70H1zm62 0h1v4h-1zm12 0h6v1h-6zm6 0h1v1h-1zm32 0h7v27h-7zm7 0h1v70h-1zm7 0h7v1h-7zm7 0h1v17h-1zm6 0h16v5h-16zm16 0h1v5h-1zm6 0h50v1h-50zm50 0h1v1h-1zm11 0h68v1h-68zm68 0h1v1h-1zm9 0h75v1h-75zM2 64h3v69H2zm3 0h1v69H5zm32 0h13v3H37zm13 0h1v3h-1z"/><path d="M58 64h7v1h-7zm7 0h1v3h-1zm8 0h7v1h-7zm7 0h1v1h-1zm48 0h6v15h-6zm35 0h48v1h-48zm48 0h1v1h-1zm14 0h64v1h-64zm64 0h1v1h-1zm12 0h74v4h-74zM6 65h4v68H6zm4 0h1v68h-1z"/><path d="M60 65h19v1H60zm19 0h1v1h-1zm83 0h47v1h-47zm47 0h1v1h-1zm17 0h61v1h-61zm61 0h1v1h-1zM11 66h2v67h-2zm2 0h1v67h-1zm49 0h15v1H62zm15 0h1v1h-1zm24 0h1v25h-1zm38 0h17v2h-17zm23 0h46v2h-46zm46 0h1v1h-1zm19 0h60v1h-60zm60 0h1v1h-1zM14 67h2v66h-2zm2 0h1v66h-1zm16 0h18v1H32zm18 0h1v1h-1zm13 0h12v1H63zm12 0h1v1h-1zm23 0h3v24h-3zm37 0h1v1h-1z"/><path d="M136 67h22v1h-22zm22 0h1v1h-1zm3 0h46v1h-46zm67 0h58v1h-58zm58 0h1v66h-1zm8 0h2v4h-2zm2 0h1v5h-1zM17 68h3v65h-3zm3 0h1v65h-1zm47 0h4v1h-4zm4 0h1v1h-1zm24 0h6v23h-6zm40 0h72v1h-72zm72 0h1v1h-1zm9 0h4v11h-4zm4 0h1v11h-1zm8 0h58v1h-58z"/><path d="M292 68h83v1h-83zM21 69h2v64h-2zm2 0h1v64h-1zm117 0h1v64h-1zm6 0h5v3h-5zm5 0h1v1h-1zm11 0h2v25h-2zm2 0h1v26h-1zm6 0h1v1h-1zm7 0h7v1h-7zm7 0h1v1h-1zm7 0h1v1h-1zm6 0h10v25h-10zm10 0h1v1h-1zm8 0h6v10h-6zm6 0h1v9h-1zm8 0h1v26h-1zm5 0h1v1h-1zm8 0h7v1h-7zm7 0h1v1h-1zm9 0h4v1h-4zm4 0h1v64h-1zm5 0h1v1h-1zm8 0h11v1h-11zm17 0h14v1h-14zm14 0h1v1h-1zm9 0h5v1h-5zm5 0h1v64h-1zm5 0h4v10h-4zm4 0h1v10h-1zm6 0h2v64h-2zm2 0h1v64h-1zm5 0h1v1h-1zm5 0h4v1h-4zm4 0h1v1h-1zm9 0h4v1h-4zm4 0h1v1h-1zm9 0h2v1h-2zm-195 1h4v1h-4zm4 0h1v1h-1z"/><path d="M214 70h7v8h-7zm29 0h5v1h-5zm5 0h1v1h-1zm11 0h3v1h-3zm17 0h10v1h-10zm17 0h11v1h-11zm11 0h1v1h-1zm13 0h3v1h-3zm31 0h2v1h-2zm2 0h1v1h-1zm10 0h3v1h-3zm3 0h1v1h-1zm11 0h1v1h-1zm-218 1h1v24h-1zm23 0h3v2h-3zm3 0h1v1h-1zm62 0h3v1h-3zm3 0h1v1h-1zm12 0h3v1h-3zm17 0h10v1h-10zm18 0h9v1h-9zm9 0h1v1h-1zm14 0h3v1h-3zm31 0h1v1h-1zm1 0h1v1h-1zm11 0h2v2h-2zm2 0h1v1h-1zm-221 1h1v61h-1zm5 0h4v1h-4zm4 0h1v1h-1z"/><path d="M213 72h9v3h-9zm9 0h1v4h-1zm23 0h1v25h-1zm1 0h1v1h-1zm14 0h2v1h-2zm17 0h10v61h-10zm10 0h1v7h-1zm9 0h7v1h-7zm7 0h1v1h-1zm15 0h2v1h-2zm30 0h1v1h-1zm27 0h1v1h-1zm-228 1h2v2h-2zm2 0h1v3h-1zm6 0h1v21h-1zm16 0h2v21h-2zm2 0h1v27h-1zm6 0h2v21h-2zm2 0h1v1h-1zm6 0h3v7h-3zm3 0h1v7h-1zm46 0h2v7h-2zm2 0h1v7h-1zm8 0h1v1h-1zm6 0h3v1h-3zm3 0h1v1h-1zm5 0h2v1h-2zm8 0h3v60h-3zm3 0h1v60h-1zm17 0h1v6h-1zm10 0h4v1h-4zm4 0h1v60h-1zm7 0h3v7h-3zm3 0h1v7h-1zm6 0h2v1h-2zm26 0h3v60h-3zm3 0h1v1h-1zm7 0h4v7h-4zm4 0h3v6h-3zm3 0h1v1h-1zm6 0h3v1h-3zm3 0h1v1h-1z"/><path d="M170 74h4v20h-4zm4 0h1v24h-1zm12 0h5v5h-5zm5 0h1v5h-1zm44 0h4v6h-4zm4 0h1v5h-1zm12 0h4v1h-4zm4 0h1v1h-1zm6 0h1v59h-1zm28 0h1v5h-1zm10 0h3v1h-3zm9 0h5v5h-5zm5 0h1v5h-1zm6 0h1v59h-1zm24 0h4v59h-4zm4 0h1v1h-1zm6 0h7v5h-7zm13 0h4v1h-4zm4 0h1v1h-1zm-228 1h1v58h-1zm5 0h2v1h-2zm7 0h2v19h-2zm59 0h9v1h-9z"/><path d="M234 75h5v4h-5zm33 0h4v58h-4zm23 0h1v5h-1zm10 0h2v1h-2zm7 0h6v3h-6zm-159 1h1v2h-1zm1 0h1v1h-1zm73 0h1v1h-1zm18 0h1v1h-1zm51 0h2v4h-2zm2 0h1v4h-1zm8 0h1v1h-1zm51 0h8v2h-8zm-112 1h1v1h-1zm54 0h1v3h-1zm1 0h1v3h-1zm6 0h1v1h-1zm-158 1h1v55h-1zm5 0h1v1h-1zm5 0h3v16h-3zm61 0h7v1h-7zm7 0h1v1h-1zm86 0h6v1h-6zm45 0h8v1h-8zm-224 1h6v1h-6zm58 0h5v1h-5zm5 0h1v1h-1zm16 0h1v15h-1zm8 0h5v1h-5zm5 0h1v1h-1zm8 0h1v16h-1zm6 0h5v1h-5zm5 0h1v1h-1zm12 0h11v1h-11z"/><path d="M287 79h8v1h-8zm21 0h5v1h-5zm5 0h1v1h-1zm12 0h4v1h-4zm4 0h1v1h-1zm24 0h7v1h-7zm7 0h1v1h-1zm6 0h9v1h-9zm9 0h1v54h-1zM56 80h1v53h-1zm1 0h1v53h-1zm76 0h1v1h-1zm1 0h1v1h-1zm10 0h1v15h-1zm37 0h1v14h-1zm6 0h3v1h-3zm3 0h1v1h-1zm27 0h1v1h-1zm1 0h1v1h-1zm17 0h3v1h-3zm3 0h1v1h-1zm8 0h1v17h-1zm6 0h5v1h-5zm5 0h1v1h-1zm3 0h2v53h-2zm30 0h5v1h-5zm5 0h1v1h-1zm6 0h1v53h-1zm8 0h3v1h-3zm3 0h1v1h-1zm6 0h2v53h-2zm8 0h2v1h-2zm2 0h1v1h-1zm19 0h1v53h-1zm7 0h3v1h-3zm3 0h1v1h-1zm3 0h1v53h-1zm1 0h1v53h-1zm6 0h5v1h-5zm5 0h1v1h-1z"/><path d="M47 81h20v52H47zm20 0h1v52h-1zm85 0h4v13h-4zm56 0h1v13h-1zm19 0h2v14h-2zm17 0h2v16h-2z"/><path d="M39 82h36v51H39zm36 0h1v51h-1zm134 0h1v13h-1zm17 0h3v13h-3zm21 0h1v15h-1zm53 0h3v51h-3zm3 0h1v51h-1zm14 0h3v51h-3zm31 0h1v51h-1z"/><path d="M30 83h53v50H30zm53 0h1v50h-1zm8 0h10v8H91zm54 0h1v11h-1zm6 0h5v11h-5zm31 0h1v3h-1zm28 0h1v14h-1zm15 0h4v12h-4zm18 0h5v14h-5zm5 0h1v14h-1zm11 0h3v50h-3zm40 0h5v50h-5zm5 0h1v50h-1zm12 0h5v50h-5zm5 0h1v50h-1zm28 0h1v50h-1zm13 0h1v50h-1zm1 0h1v50h-1z"/><path d="M26 84h61v49H26zm61 0h1v49h-1zm3 0h11v7H90zm93 0h1v2h-1zm8 0h1v1h-1zm20 0h1v12h-1zm1 0h1v11h-1zm11 0h6v11h-6zm11 0h1v10h-1zm7 0h8v13h-8zm8 0h1v14h-1zm9 0h4v49h-4zm29 0h1v49h-1zm11 0h8v49h-8zm8 0h1v49h-1zm9 0h7v49h-7zm7 0h1v49h-1zm28 0h1v49h-1zm1 0h1v49h-1zm13 0h1v49h-1zm9 0h2v49h-2z"/><path d="M24 85h77v6H24zm97 0h65v1h-65zm65 0h1v2h-1zm3 0h2v1h-2zm2 0h1v1h-1zm22 0h2v10h-2zm2 0h1v10h-1zm3 0h11v9h-11zm17 0h1v12h-1zm1 0h1v12h-1zm3 0h13v12h-13zm13 0h1v48h-1zm3 0h36v48h-36zm36 0h1v48h-1zm3 0h15v48h-15zm15 0h1v48h-1zm3 0h13v48h-13zm13 0h28v48h-28zm28 0h1v48h-1zm3 0h11v48h-11zm11 0h1v48h-1zm3 0h5v48h-5z"/><path d="M121 86h69v1h-69zm69 0h1v1h-1zm26 0h13v8h-13zm21 0h138v11H237zm-116 1h60v7h-60zm65 0h2v1h-2zm2 0h1v1h-1z"/><path d="M196 87h33v7h-33z"/><path d="M195 89h34v5h-34zm-82 1h68v1h-68z"/><path d="M193 90h36v4h-36zM24 91h77v1H24zm77 0h1v1h-1zm14 0h69v3h-69zm69 0h1v6h-1z"/><path d="M191 91h38v3h-38zM24 92h75v9H24zm75 0h1v1h-1z"/><path d="M185 92h190v2H185zm-70 2h260v1H115zm-1 1h10v2h-10zm10 0h1v1h-1zm4 0h16v1h-16zm16 0h1v1h-1zm3 0h1v1h-1zm9 0h2v1h-2zm2 0h1v1h-1zm6 0h1v1h-1zm1 0h1v38h-1zm4 0h1v38h-1zm6 0h3v2h-3zm3 0h1v2h-1zm4 0h11v2h-11zm11 0h1v38h-1zm4 0h8v2h-8zm8 0h1v4h-1zm4 0h6v1h-6zm6 0h1v3h-1zm4 0h12v1h-12zm12 0h1v2h-1zM99 96h1v2h-1zm25 0h1v1h-1zm4 0h15v1h-15zm29 0h1v1h-1zm54 0h1v1h-1zm3 0h1v1h-1zm5 0h8v1h-8zm8 0h1v1h-1zm3 0h1v1h-1zm-116 1h9v1h-9zm9 0h1v3h-1zm6 0h14v1h-14zm46 0h3v1h-3zm3 0h1v1h-1zm4 0h11v1h-11zm15 0h8v1h-8zm12 0h1v1h-1zm1 0h1v1h-1zm4 0h1v1h-1zm5 0h7v1h-7zm7 0h1v1h-1zm4 0h1v1h-1zm1 0h1v1h-1zm4 0h140v1H235zM99 98h1v1h-1zm16 0h8v1h-8zm14 0h2v1h-2zm2 0h1v6h-1zm7 0h5v1h-5zm10 0h2v35h-2zm2 0h1v1h-1zm4 0h1v35h-1zm1 0h1v2h-1zm5 0h3v1h-3zm3 0h2v1h-2zm11 0h1v1h-1zm8 0h1v2h-1zm1 0h1v1h-1zm5 0h5v1h-5zm18 0h1v1h-1zm12 0h1v1h-1zm1 0h1v1h-1zm6 0h1v1h-1zm13 0h2v2h-2zm2 0h1v1h-1zm3 0h1v1h-1zm1 0h1v1h-1zm5 0h126v1H249zm-134 1h8v1h-8zm15 0h1v1h-1zm9 0h4v1h-4zm20 0h6v1h-6zm30 0h4v1h-4zm8 0h1v34h-1zm8 0h1v1h-1zm38 0h1v1h-1zm7 0h125v1H250zm-134 1h7v1h-7zm7 0h1v1h-1zm7 0h1v1h-1zm9 0h4v1h-4zm16 0h1v33h-1zm4 0h1v3h-1zm14 0h1v1h-1zm9 0h1v1h-1zm8 0h3v33h-3zm48 0h1v1h-1zm1 0h1v1h-1zm11 0h125v1H250zm-226 1h74v2H24zm74 0h1v1h-1zm18 0h6v1h-6zm6 0h1v1h-1zm4 0h1v1h-1zm9 0h1v32h-1zm41 0h2v2h-2zm2 0h1v2h-1zm23 0h1v32h-1zm1 0h1v32h-1zm7 0h1v32h-1zm1 0h1v32h-1zm4 0h1v3h-1zm5 0h1v1h-1zm7 0h1v32h-1zm4 0h1v3h-1zm1 0h1v3h-1zm4 0h1v32h-1zm4 0h1v1h-1zm12 0h124v32H251zm-134 1h5v2h-5zm5 0h1v1h-1zm120 0h1v31h-1zm-218 1h73v30H24zm73 0h1v1h-1zm62 0h2v1h-2zm2 0h1v1h-1zm15 0h2v1h-2zm2 0h1v1h-1zm58 0h1v30h-1zm-119 1h4v1h-4zm4 0h1v1h-1zm10 0h1v1h-1zm30 0h1v1h-1zm25 0h1v1h-1z"/><path d="M187 104h6v1h-6zm27 0h1v1h-1zm8 0h1v1h-1zm8 0h1v1h-1zm1 0h1v1h-1zm10 0h1v29h-1zm5 0h1v1h-1zm1 0h1v1h-1zm3 0h125v29H250zm-133 1h3v28h-3zm8 0h2v28h-2zm2 0h1v28h-1zm29 0h1v28h-1zm26 0h1v28h-1z"/><path d="M124 106h4v27h-4zm4 0h1v27h-1zm8 0h1v27h-1zm8 0h1v27h-1zm6 0h1v27h-1zm7 0h1v27h-1zm16 0h1v27h-1zm1 0h1v27h-1zm9 0h1v27h-1zm6 0h4v27h-4zm30 0h1v27h-1zm8 0h1v27h-1zm10 0h1v27h-1zm6 0h1v27h-1z"/><path d="M121 107h254v26H121z"/><path d="M116 108h259v25H116zm-19 1h1v24h-1z"/><path d="M115 109h260v24H115zm-17 1h1v23h-1z"/><path d="M113 110h262v23H113zm-14 1h1v22h-1zm1 0h1v22h-1z"/><path d="M110 111h265v22H110zm-9 1h1v21h-1z"/><path d="M108 112h267v21H108z"/><path d="M102 113h273v20H102zM0 133h375v1H0zm375 0h1v1h-1z"/></g><path d="M72 31h1v1h-1zm-41 1h1v1h-1zm47 1h1v1h-1zm4 3h1v1h-1zm-46 7h1v1h-1zm17 4h1v1h-1zm33 1h1v1h-1zm21 0h1v1h-1zm-21 1h1v2h-1zm20 0h1v1h-1zm-48 1h1v1h-1zm0 1h1v1h-1zm28 0h1v1h-1zm26 0h1v1h-1zm-59 3h1v1h-1zM0 55h1v1H0zm59 2h1v1h-1zm2 3h1v1h-1zm57 1h1v1h-1zm-55 1h1v1h-1zm73 0h1v1h-1zm-24 1h1v1h-1zm13 0h1v1h-1zm-58 1h1v1h-1zm143 1h1v1h-1zm90 0h1v1h-1zM78 66h1v1h-1zm222 0h1v1h-1zM76 67h1v1h-1zm211 0h1v1h-1zm-126 2h1v1h-1zm24 0h1v1h-1zm43 0h1v1h-1zm79 0h1v1h-1zm27 0h1v1h-1zm4 0h1v1h-1zm14 0h1v1h-1zm-213 1h1v13h-1zm18 0h1v13h-1zm190 0h1v2h-1zm-134 1h1v1h-1zm-58 1h2v1h-2zm98 0h1v1h-1zm94 0h1v1h-1zm21 0h1v1h-1zm-218 1h1v1h-1zm158 0h1v1h-1zm-48 1h1v1h-1zm7 0h1v1h-1zm51 0h1v1h-1zm29 2h1v1h-1zm-204 1h1v1h-1zm199 0h1v5h-1zm5 0h1v1h-1zm-140 1h1v1h-1zm21 0h1v1h-1zm68 0h1v1h-1zm65 0h1v1h-1zm-115 1h1v1h-1zM54 80h1v1h-1zm235 0h1v1h-1zm64 0h1v1h-1zM70 81h1v1h-1zm173 1h1v1h-1zm99 0h1v1h-1zm-203 1h1v1h-1zm18 0h1v1h-1zm26 0h1v1h-1zm59 0h1v1h-1zm132 0h1v1h-1zm-253 1h1v1h-1zm48 0h1v1h-1zm27 0h1v1h-1zm127 0h1v1h-1zm-223 8h1v1h-1zm26 3h1v1h-1zm20 0h1v1h-1zm3 0h6v1h-6zm6 0h1v1h-1zm8 0h1v1h-1zm69 0h1v1h-1zm-85 1h1v1h-1zm9 0h1v2h-1zm56 0h1v1h-1zm17 0h1v1h-1zm-63 1h1v1h-1zm28 0h1v1h-1zm-38 1h1v1h-1zm31 0h1v1h-1zm14 0h1v1h-1zm-72 1h1v1h-1zm77 0h1v6h-1zm43 0h1v1h-1zm-63 2h1v1h-1zm35 0h1v1h-1zm25 0h1v1h-1zm-107 1h1v3h-1zm80 0h1v1h-1zm22 1h1v1h-1zm-59 1h1v1h-1zm3 0h1v1h-1zm63 0h1v1h-1zm-127 1h1v1h-1zm18 0h1v1h-1zm67 0h1v1h-1zm21 0h1v1h-1zm-96 1h1v1h-1zm3 0h1v1h-1zm32 0h1v1h-1zm6 0h1v1h-1zm33 0h1v1h-1zm27 0h1v1h-1zm-133 4h1v1h-1z" fill="#fef5ee"/><path d="M81 36h1v1h-1zm1 1h1v1h-1zm-33 1h1v1h-1zm19 1h1v1h-1zm5 2h1v1h-1zm5 0h1v1h-1zm7 1h1v1h-1zm0 3h1v1h-1zm-58 1h1v1h-1zm72 2h1v1h-1zm-4 1h1v1h-1zm12 0h1v1h-1zm3 0h1v1h-1zm-94 1h1v1h-1zm-8 3h1v1H8zm44 0h1v1h-1zM5 54h1v1H5zm109 2h1v1h-1zm-53 3h1v1h-1zm54 1h1v1h-1zM2 62h1v1H2zm110 0h1v1h-1zm26 1h1v1h-1zm153 1h1v1h-1zm8 0h1v1h-1zM13 65h1v1h-1zm211 0h1v1h-1zM17 66h1v1h-1zm80 0h1v1h-1zm62 0h1v1h-1zm134 0h1v1h-1zm4 0h1v1h-1zM90 68h1v1h-1zm135 0h1v1h-1zM93 69h1v11h-1zm120 0h1v1h-1zm130 1h1v1h-1zm22 0h1v1h-1zm-73 1h1v1h-1zm-80 1h1v1h-1zm-5 1h1v1h-1zm167 0h1v1h-1zm-167 1h1v1h-1zm5 1h1v1h-1zm-65 3h1v1h-1zm65 0h1v1h-1zm139 0h1v1h-1zM46 80h1v1h-1zm21 0h1v1h-1zm26 0h1v2h-1zm214 0h1v1h-1zM37 81h1v1h-1zm271 0h1v1h-1zM31 82h1v1h-1zm62 0h1v1h-1zm-67 1h1v1h-1zm161 1h1v1h-1zm29 0h1v1h-1zm1 0h1v1h-1zm20 0h1v1h-1zm1 0h1v1h-1zm15 0h1v1h-1zm1 0h1v1h-1zm38 0h1v1h-1zm1 0h1v1h-1zm17 0h1v1h-1zm1 0h1v1h-1zm15 0h1v1h-1zm29 0h1v1h-1zm13 0h1v1h-1zm1 0h1v1h-1zm-180 4h1v1h-1zm-43 8h1v1h-1zm29 3h1v1h-1zm9 0h1v1h-1zm40 0h1v1h-1zm24 0h1v1h-1zm-149 2h1v1h-1zm38 0h1v4h-1zm83 1h1v1h-1zm23 0h1v1h-1zm-117 1h1v1h-1zm112 0h1v1h-1zm5 0h1v1h-1zm-114 2h1v1h-1zm8 0h1v1h-1zm27 0h1v1h-1zm-67 2h1v1h-1zm12 3h1v1h-1z" fill="#f2b086"/><path d="M64 38h1v1h-1zm9 0h1v1h-1zm1 0h1v1h-1zm-11 1h1v1h-1zm26 5h1v1h-1zm-58 1h1v1h-1zM7 53h1v1H7zm43 10h1v1h-1zm89 1h1v1h-1zM12 65h1v1h-1zm19 2h1v1h-1zm19 1h1v1h-1zm158 0h1v1h-1zm19 0h1v1h-1zm28 1h1v1h-1zm115 0h1v1h-1zM24 70h1v1h-1zm146 0h1v1h-1zm22 0h1v1h-1zm159 0h1v1h-1zm-168 1h1v1h-1zm126 1h1v1h-1zm-140 2h1v1h-1zm134 0h1v1h-1zm-118 1h1v1h-1zm7 0h1v2h-1zm59 0h1v1h-1zm115 0h1v1h-1zm9 0h1v2h-1zm-183 2h1v1h-1zm15 0h1v1h-1zm168 0h1v1h-1zm-125 1h1v1h-1zm115 0h1v1h-1zm-131 2h1v1h-1zM40 81h1v1h-1zm93 0h1v1h-1zm12 0h1v1h-1zm64 0h1v1h-1zm8 0h1v1h-1zm150 0h1v1h-1zm-51 1h1v1h-1zm-184 2h1v1h-1zm36 0h1v1h-1zm105 0h1v1h-1zm55 0h1v1h-1zm3 0h1v1h-1zM180 95h1v1h-1zm-32 1h1v1h-1zm68 1h1v1h-1zm1 0h1v1h-1zm-117 1h1v1h-1zm32 1h1v1h-1zm66 1h1v4h-1zm27 0h1v1h-1zm7 0h1v4h-1zm-70 2h1v1h-1zm38 0h1v3h-1zm-76 2h1v1h-1zm74 0h2v1h-2zm34 0h1v1h-1zm-100 1h1v1h-1zm51 0h1v1h-1zm17 0h1v1h-1zm-70 1h1v1h-1zm3 0h1v1h-1zm19 0h1v1h-1zm93 0h1v1h-1z" fill="#fad5bc"/><path d="M73 31h1v1h-1zm-18 4h1v1h-1zm1 4h1v1h-1zm30 3h1v1h-1zm-32 1h1v1h-1zm26 1h1v1h-1zm11 0h1v1h-1zm-66 2h1v1h-1zm60 0h1v1h-1zm-27 1h1v1h-1zm41 0h1v1h-1zm-41 1h1v1h-1zm-5 1h1v3h-1zm59 1h1v1h-1zM8 52h1v1H8zm45 0h1v1h-1zm5 1h1v1h-1zm0 1h1v1h-1zm60 0h1v1h-1zm-58 5h1v1h-1zm19 0h1v1h-1zm5 0h1v1h-1zm31 3h1v1h-1zm43 0h1v1h-1zM2 63h1v1H2zm55 0h1v1h-1zm7 0h1v1h-1zm57 0h1v1h-1zm92 0h1v1h-1zm86 0h1v1h-1zM66 64h1v1h-1zm96 0h1v1h-1zm62 0h1v1h-1zm76 0h1v1h-1zm-12 1h1v1h-1zM61 66h1v1h-1zm39 0h1v1h-1zm57 0h1v1h-1zm-60 1h1v1h-1zm62 0h1v1h-1zm1 0h1v1h-1zm48 0h1v1h-1zm19 0h1v1h-1zm66 0h1v1h-1zm4 0h1v1h-1zM72 68h1v1h-1zm22 0h1v12h-1zm121 0h1v1h-1zm-76 1h1v1h-1zm6 0h1v1h-1zm11 0h1v1h-1zm1 0h1v1h-1zm12 0h1v1h-1zm27 0h1v1h-1zm39 0h1v1h-1zm15 0h1v1h-1zm7 0h1v1h-1zm11 0h1v1h-1zm6 0h1v1h-1zm56 0h1v1h-1zm42 0h1v1h-1zm-216 1h1v1h-1zm27 0h1v1h-1zm51 0h1v1h-1zm58 0h1v1h-1zm13 0h1v1h-1zm11 0h1v1h-1zm-138 1h1v1h-1zm44 0h1v1h-1zm65 0h1v1h-1zm17 0h1v1h-1zm70 0h1v1h-1zm-130 1h1v1h-1zm3 0h1v1h-1zm-12 1h1v1h-1zm4 0h1v1h-1zm-58 1h1v1h-1zm65 0h1v1h-1zm115 0h1v1h-1zm-121 1h1v1h-1zm51 0h1v1h-1zm56 0h1v1h-1zm-134 1h1v1h-1zm-60 1h1v1h-1zm107 1h1v1h-1zm41 0h1v1h-1zm46 1h1v1h-1zm14 0h1v1h-1zM55 80h1v1h-1zm39 0h1v2h-1zm34 0h4v1h-4zm4 0h1v1h-1zm84 0h1v1h-1zm28 0h1v1h-1zm15 0h1v1h-1zm99 0h1v1h-1zm16 0h1v1h-1zM46 81h1v1h-1zm257 0h1v1h-1zM38 82h1v1h-1zm38 0h1v1h-1zm18 0h1v1h-1zm268 0h1v1h-1zM84 83h1v1h-1zm-60 1h1v1h-1zm64 0h1v1h-1zm51 0h1v1h-1zm18 0h1v1h-1zm27 0h1v1h-1zm130 0h1v1h-1zm15 0h1v1h-1zm13 0h1v1h-1zm17 0h1v1h-1zm-172 1h1v1h-1zm1 0h1v1h-1zm28 0h1v1h-1zm1 0h1v1h-1zm20 0h1v1h-1zm1 0h1v1h-1zm15 0h1v1h-1zm1 0h1v1h-1zm38 0h1v1h-1zm1 0h1v1h-1zm17 0h1v1h-1zm1 0h1v1h-1zm43 0h1v1h-1zm1 0h1v1h-1zm13 0h1v1h-1zm1 0h1v1h-1zm-173 1h1v1h-1zm-7 1h1v1h-1zm6 1h1v1h-1zm-1 1h1v1h-1zm-12 1h1v1h-1zm-68 1h1v1h-1zm-15 2h1v2h-1zm0 2h1v1h-1zm26 0h1v1h-1zm23 0h1v1h-1zm11 0h1v1h-1zm47 0h1v2h-1zm12 0h1v2h-1zm-74 1h1v9h-1zm69 0h1v1h-1zm15 0h1v1h-1zm-128 1h1v1h-1zm106 0h1v1h-1zm12 0h1v1h-1zm-52 1h2v1h-2zm2 0h1v1h-1zm26 0h2v1h-2zm2 0h2v1h-2zm2 0h2v1h-2zm2 0h1v1h-1zm4 0h1v1h-1zm22 0h1v1h-1zm5 0h1v1h-1zm1 0h3v1h-3zm3 0h2v1h-2zm2 0h1v1h-1zm-87 1h1v6h-1zm65 0h1v5h-1zm4 0h1v1h-1zm-93 1h1v1h-1zm34 0h1v2h-1zm49 0h1v1h-1zm-79 1h1v1h-1zm6 0h1v4h-1zm84 0h1v1h-1zm22 0h1v1h-1zm-82 1h1v1h-1zm58 1h1v1h-1zm32 0h1v1h-1zm-153 1h1v1h-1zm28 0h2v1h-2zm2 0h1v1h-1zm29 0h1v1h-1zm59 0h1v1h-1zm3 0h1v2h-1zm-82 1h1v1h-1zm8 0h1v1h-1zm6 0h1v1h-1zm39 0h1v1h-1zm54 0h1v1h-1zm-104 1h1v1h-1zm8 0h1v1h-1zm59 0h1v1h-1zm5 0h1v1h-1zm7 0h1v1h-1zm22 0h1v1h-1zm4 0h1v1h-1zm-142 6h1v1h-1z" fill="#fffcfa"/><path d="M53 36h1v1h-1zm6 0h1v1h-1zm25 3h1v1h-1zm-51 5h1v1h-1zm-13 4h1v1h-1zm-8 3h1v1h-1zm100 1h1v1h-1zm-33 6h1v1h-1zm-42 5h1v1h-1zm37 0h1v1h-1zm8 0h1v1h-1zm138 0h1v1h-1zm78 0h1v1h-1zm-141 1h1v1h-1zm-36 1h1v18h-1zm-59 2h1v1h-1zm157 0h1v1h-1zm73 0h1v1h-1zm-154 2h1v1h-1zm5 0h1v1h-1zm1 0h1v1h-1zm22 0h2v1h-2zm2 0h1v1h-1zm27 0h1v1h-1zm74 0h1v1h-1zm4 0h1v1h-1zm58 0h1v1h-1zm22 0h1v1h-1zm5 0h1v1h-1zm-213 1h1v1h-1zm24 0h1v1h-1zm73 0h1v1h-1zm45 0h1v1h-1zm-99 2h1v1h-1zm82 0h1v1h-1zm41 0h1v1h-1zm6 0h1v1h-1zm38 0h1v1h-1zm-79 1h1v1h-1zm37 0h1v1h-1zm30 0h1v1h-1zm-193 1h1v1h-1zm221 0h1v1h-1zm4 0h1v1h-1zm-206 1h1v8h-1zm91 0h1v2h-1zm58 0h1v1h-1zm-171 1h1v1h-1zm38 0h1v1h-1zm61 0h1v1h-1zm-33 1h1v1h-1zm47 0h1v1h-1zm-116 2h1v1h-1zm8 0h1v1h-1zm92 0h1v1h-1zM52 80h1v1h-1zm-10 1h1v1h-1zm29 0h1v1h-1zm155 0h1v1h-1zm21 0h1v1h-1zm45 0h1v1h-1zm1 0h1v1h-1zm35 0h1v1h-1zm43 0h1v1h-1zM28 83h1v1h-1zm93 0h1v1h-1zm48 0h1v1h-1zm118 0h1v1h-1zm-30 1h1v1h-1zm50 0h1v1h-1zm65 0h1v1h-1zm-182 3h1v1h-1zm5 0h1v1h-1zm-6 4h1v1h-1zm42 0h1v1h-1zm1 0h1v1h-1zm-118 3h1v1h-1zm-1 1h1v1h-1zm95 0h1v1h-1zm-50 1h1v1h-1zm38 1h1v1h-1zm-72 1h1v1h-1zm62 0h1v2h-1zm27 0h1v1h-1zm9 0h1v1h-1zm-96 1h1v1h-1zm100 0h1v1h-1zm-68 1h1v1h-1zm28 0h1v1h-1zm36 1h1v1h-1zm17 1h1v1h-1zm-16 1h1v1h-1zm-95 1h1v1h-1zm34 0h1v1h-1zm-25 2h1v1h-1zm42 0h1v1h-1zm-68 4h1v1h-1zm-7 2h2v1h-2zm2 0h1v1h-1z" fill="#fbe5d8"/><path d="M69 37h1v1h-1zm1 0h1v1h-1zm-2 1h1v1h-1zm-14 3h1v1h-1zm23 0h1v1h-1zm-25 8h1v1h-1zm56 3h1v1h-1zm-28 1h1v1h-1zm34 2h1v1h-1zm21 9h1v1h-1zm-77 1h1v1h-1zm67 0h1v14h-1zm86 5h1v1h-1zm56 1h1v1h-1zm-24 1h1v1h-1zm25 0h1v1h-1zm26 0h1v1h-1zm50 0h1v1h-1zm-30 2h1v1h-1zm-107 1h1v1h-1zm20 0h1v1h-1zm76 0h1v1h-1zM90 76h1v5h-1zm143 0h1v1h-1zm62 0h1v1h-1zm-62 1h1v1h-1zm-125 1h1v11h-1zm17 1h1v1h-1zm1 1h1v1h-1zm191 0h1v1h-1zM90 81h1v1h-1zm151 2h1v1h-1zm88 0h1v1h-1zm25 1h1v1h-1zm-246 5h1v1h-1zm2 7h1v2h-1zm17 0h1v1h-1zm69 0h1v1h-1zm-86 2h1v1h-1zm104 1h1v1h-1zm-103 1h1v1h-1zm118 1h1v2h-1zm-54 1h1v1h-1zm-48 1h1v1h-1zm102 0h1v1h-1z" fill="#f6b88d"/><path d="M72 38h1v1h-1zm19 7h1v1h-1zm3 1h1v1h-1zm8 20h1v1h-1zm11 31h1v1h-1z" fill="#edb28e"/><path d="M61 36h1v1h-1zm8 2h1v1h-1zm-2 1h1v1h-1zm-28 3h1v1h-1zm22 0h1v1h-1zm29 4h1v1h-1zm3 0h1v1h-1zm-4 1h1v1h-1zm7 1h1v1h-1zm-2 1h1v1h-1zm7 0h1v1h-1zm-4 1h1v1h-1zm7 0h1v1h-1zm8 4h1v1h-1zM3 55h1v1H3zm49 0h1v1h-1zm11 6h1v1h-1zM3 62h1v1H3zm68 1h1v1h-1zm-61 1h1v1h-1zm112 0h1v1h-1zM14 65h1v1h-1zm4 1h1v1h-1zm198 0h1v1h-1zm82 0h1v1h-1zm-85 1h1v1h-1zm11 0h1v1h-1zM68 69h1v1h-1zm1 0h1v1h-1zm20 1h1v5h-1zm69 1h1v12h-1zm16 1h1v1h-1zm74 0h1v1h-1zm118 0h1v1h-1zm-69 2h1v1h-1zm77 0h1v1h-1zM89 75h1v1h-1zm252 1h1v1h-1zm-129 1h1v1h-1zm39 0h7v1h-7zm7 0h1v1h-1zm109 0h6v1h-6zm6 0h1v1h-1zm-226 2h1v1h-1zm86 0h1v1h-1zm118 0h1v1h-1zM43 80h1v1h-1zm200 0h1v1h-1zm-28 1h1v1h-1zm36 0h1v1h-1zm7 0h1v1h-1zm-70 1h1v1h-1zm49 0h1v1h-1zm16 0h2v1h-2zm2 0h1v1h-1zm55 0h1v1h-1zm17 0h1v1h-1zm29 0h1v1h-1zm12 0h2v1h-2zm2 0h1v1h-1zM89 83h1v1h-1zm69 0h1v1h-1zm173 0h1v1h-1zm-222 8h1v1h-1zm2 2h1v1h-1zm-11 1h1v1h-1zm60 2h1v1h-1zm48 0h1v1h-1zm-97 3h1v1h-1zm22 0h1v1h-1zm46 0h1v1h-1zm8 0h1v1h-1zm49 0h1v1h-1zm-24 2h1v2h-1zm-101 2h1v1h-1zm101 0h1v1h-1zm-114 1h1v1h-1zm66 0h1v1h-1zm10 0h1v1h-1zm6 0h1v1h-1zm-1 1h1v1h-1zm1 0h1v1h-1zm27 0h1v1h-1zm9 0h1v1h-1zm7 0h1v1h-1zm-109 3h1v1h-1zm-13 2h1v1h-1z" fill="#f49e65"/><path d="M133 82h1v1h-1zm0 1h1v1h-1z" fill="#e9a474"/><path d="M66 32h1v1h-1zm-7 3h1v1h-1zm21 0h1v1h-1zm-14 3h1v1h-1zm3 1h1v1h-1zm-26 1h1v1h-1zm19 0h1v1h-1zm9 0h1v1h-1zm-34 4h1v18h-1zm60 5h1v1h-1zm6 1h1v1h-1zm-90 1h1v1h-1zm67 3h1v1h-1zm29 0h1v1h-1zm7 0h1v1h-1zM2 55h1v1H2zm110 0h1v1h-1zm-75 7h1v1h-1zm99 4h1v1h-1zm152 0h1v1h-1zm6 0h2v1h-2zm2 0h1v1h-1zM20 67h1v1h-1zm74 0h1v1h-1zm121 0h1v1h-1zm-1 1h1v1h-1zm-41 1h1v1h-1zm1 0h1v1h-1zm13 0h1v1h-1zm52 0h1v1h-1zm31 0h1v1h-1zm99 0h1v1h-1zm-112 1h1v1h-1zm17 0h1v1h-1zm98 0h1v1h-1zm-227 1h1v1h-1zm66 0h1v1h-1zm94 0h1v1h-1zm-77 1h1v1h-1zm117 0h1v1h-1zm14 0h1v1h-1zm-205 1h1v1h-1zm113 0h1v1h-1zm5 0h1v1h-1zm70 1h1v1h-1zm-114 1h1v1h-1zm68 2h1v1h-1zm-152 1h1v1h-1zm69 0h1v1h-1zm-28 1h1v1h-1zm42 0h1v1h-1zm76 0h1v1h-1zm11 0h1v1h-1zM66 80h1v1h-1zm66 1h1v1h-1zm158 0h1v1h-1zm82 0h1v1h-1zM32 82h1v1h-1zm216 0h1v1h-1zm115 0h1v1h-1zm-140 1h1v1h-1zm16 1h1v1h-1zm56 0h1v1h-1zm17 0h1v1h-1zm-126 4h2v1h-2zm2 0h1v1h-1zm6 0h1v1h-1zm-80 5h1v1h-1zm0 6h1v1h-1zm86 0h1v2h-1zm-22 1h1v1h-1zm18 0h1v1h-1zm17 0h1v1h-1zm14 0h1v1h-1zm-59 1h1v4h-1zm32 0h1v1h-1zm-102 2h1v1h-1zm14 0h1v1h-1zm127 0h1v1h-1zm-80 1h1v1h-1zm9 1h1v1h-1zm-71 1h1v1h-1zm16 0h1v1h-1zm63 0h1v1h-1zm10 0h1v1h-1zm27 0h1v1h-1zm8 0h1v1h-1zm9 0h1v1h-1zm16 0h1v1h-1zm1 0h1v1h-1z" fill="#f5c2a1"/><path d="M31 33h1v10h-1zm26 2h1v1h-1zm-26 8h1v1h-1zm6 0h1v1h-1zm23 0h1v1h-1zm-28 1h1v1h-1zm50 0h1v1h-1zm7 2h1v1h-1zm5 2h1v1h-1zm17 2h1v1h-1zm2 3h1v1h-1zm-35 6h1v1h-1zm-3 3h1v1h-1zm-9 1h1v1h-1zm92 0h1v1h-1zm-50 1h1v1h-1zm130 5h1v1h-1zm15 0h1v1h-1zm1 0h1v1h-1zm102 0h1v1h-1zm12 0h1v1h-1zm-9 2h1v1h-1zm14 0h1v1h-1zm-102 1h1v1h-1zm99 0h1v1h-1zm-142 1h1v1h-1zm28 0h1v1h-1zm-28 1h1v1h-1zm63 0h1v1h-1zm-84 2h1v1h-1zm144 0h1v1h-1zm-51 1h1v1h-1zm51 0h1v1h-1zm-129 1h1v1h-1zM38 81h1v1h-1zm89 0h4v1h-4zm4 0h1v1h-1zm228 1h1v1h-1zm-140 2h1v1h-1zm72 0h1v1h-1zm79 0h1v1h-1zm-175 2h1v1h-1zm-95 9h1v1h-1zm9 2h1v1h-1zm102 0h1v1h-1zm-83 1h1v1h-1zm23 0h1v1h-1zm23 2h1v1h-1zm75 0h1v1h-1zm-65 1h1v2h-1zm41 0h1v4h-1zm-67 2h1v1h-1zm26 0h1v1h-1zm19 0h1v2h-1zm-52 2h1v1h-1zm52 0h1v1h-1zm22 0h1v1h-1z" fill="#f7bf9e"/><path d="M64 33h1v1h-1zm-9 3h1v1h-1zm19 1h1v1h-1zm-8 2h1v1h-1zm-24 2h1v1h-1zm-6 1h1v1h-1zm16 3h1v1h-1zm-27 2h1v1h-1zm34 2h1v2h-1zm49 0h1v1h-1zm-12 1h1v1h-1zm9 0h1v1h-1zm3 0h1v1h-1zm-49 1h1v1h-1zm-47 1h1v1h-1zm75 1h1v1h-1zM6 54h1v1H6zm104 1h1v1h-1zM1 56h1v1H1zm51 0h1v1h-1zm8 0h1v1h-1zm19 0h1v1h-1zm-1 2h1v1h-1zm7 2h1v1h-1zm33 0h1v1h-1zm97 4h1v1h-1zm78 0h1v1h-1zm4 0h1v1h-1zM15 65h1v1h-1zm92 0h1v25h-1zm51 0h1v1h-1zm-63 1h1v1h-1zm27 0h1v17h-1zm92 0h1v1h-1zm74 1h1v1h-1zM72 69h1v1h-1zm164 1h1v1h-1zm15 0h1v1h-1zm115 0h1v1h-1zm-182 1h1v1h-1zm7 0h1v1h-1zm32 0h1v1h-1zm92 0h1v1h-1zm-129 1h1v1h-1zm47 0h1v1h-1zm39 0h1v1h-1zm21 0h1v1h-1zm-18 1h1v1h-1zm-124 1h1v1h-1zm106 0h1v1h-1zm16 0h1v1h-1zm44 0h1v1h-1zm-135 1h1v1h-1zm75 0h1v1h-1zm84 0h1v1h-1zm21 0h1v1h-1zm-218 1h1v1h-1zm115 0h1v1h-1zm-75 1h1v1h-1zm57 0h1v1h-1zM58 79h1v1h-1zm93 0h1v1h-1zm71 0h1v1h-1zm95 0h1v1h-1zM41 80h1v1h-1zm31 0h1v1h-1zm140 0h1v1h-1zm85 0h1v1h-1zm7 0h1v1h-1zm45 0h1v1h-1zM34 81h1v1h-1zm176 0h1v1h-1zm13 0h1v1h-1zm93 0h1v1h-1zm47 0h1v1h-1zM84 82h1v1h-1zm103 0h1v1h-1zm47 0h1v1h-1zm4 0h1v1h-1zm53 0h1v1h-1zm3 0h1v1h-1zm60 0h1v1h-1zm-232 1h1v1h-1zm91 0h1v1h-1zm44 0h1v1h-1zm101 0h1v1h-1zm7 0h1v1h-1zm7 0h1v1h-1zm-182 5h1v1h-1zm-83 2h1v1h-1zm78 0h1v1h-1zm-27 7h1v1h-1zm-45 1h1v1h-1zm72 1h1v1h-1zm18 0h1v1h-1zm19 0h1v1h-1zm7 0h1v1h-1zm-92 1h1v1h-1zm91 0h1v1h-1zm-71 2h1v2h-1zm64 0h1v1h-1zm3 1h1v2h-1zm-67 1h1v1h-1zm18 0h1v1h-1zm29 1h1v1h-1zm17 0h1v1h-1zm3 0h1v1h-1zm6 0h1v1h-1zm16 0h1v1h-1zm-130 1h1v1h-1zm-18 2h1v1h-1z" fill="#f18e49"/><path d="M68 33h1v1h-1zm4 0h1v1h-1zm4 1h1v1h-1zm2 1h1v1h-1zm-21 1h1v1h-1zm6 0h1v1h-1zm-8 1h1v1h-1zm20 0h1v1h-1zm-23 1h1v1h-1zm30 0h1v1h-1zm-33 1h1v1h-1zm5 0h1v1h-1zm21 1h1v1h-1zm8 0h1v1h-1zm-13 1h1v1h-1zm-36 1h1v1h-1zm28 0h1v1h-1zm22 0h1v1h-1zm-32 1h1v1h-1zm9 0h1v1h-1zm-1 2h1v2h-1zm-33 2h1v1h-1zm3 0h1v20h-1zm21 0h1v7h-1zm9 0h1v1h-1zm28 0h1v1h-1zm-9 2h1v3h-1zm13 0h1v1h-1zm-73 1h1v1h-1zm90 0h1v1h-1zm1 1h1v1h-1zm-31 1h1v1h-1zm21 0h1v1h-1zm-89 1h1v1h-1zm-4 1h1v1H7zm1 0h1v1H8zm43 0h1v1h-1zm60 2h1v1h-1zM0 57h1v1H0zm52 1h1v1h-1zm1 1h1v1h-1zm1 2h1v1h-1zM5 62h1v1H5zm1 0h1v1H6zm61 0h1v1h-1zM8 63h1v1H8zm44 1h1v3h-1zm107 0h1v1h-1zM17 65h1v1h-1zm65 0h1v1h-1zm15 0h1v1h-1zm13 0h1v1h-1zm13 0h1v1h-1zm90 0h1v1h-1zm3 0h1v1h-1zm3 0h2v1h-2zm2 0h1v1h-1zm70 0h1v1h-1zM21 66h1v1h-1zm72 0h1v1h-1zm198 0h1v1h-1zM30 67h1v1h-1zm22 0h1v1h-1zm7 0h1v1h-1zm151 0h1v1h-1zm-107 1h1v23h-1zm-72 1h1v1h-1zm32 0h1v1h-1zm90 1h1v2h-1zm6 0h1v1h-1zm16 0h1v1h-1zm115 0h1v1h-1zm32 0h1v9h-1zm18 0h1v1h-1zm-181 1h1v1h-1zm26 0h1v1h-1zm40 0h1v1h-1zm14 0h2v1h-2zm2 0h1v2h-1zm9 0h1v1h-1zm1 0h1v1h-1zm5 0h1v1h-1zm9 0h1v1h-1zm24 0h2v1h-2zm2 0h1v2h-1zm17 0h1v1h-1zm6 0h1v1h-1zm18 0h1v1h-1zm8 0h1v1h-1zm29 0h2v1h-2zm2 0h1v1h-1zm-218 1h1v1h-1zm71 0h1v1h-1zm40 0h1v9h-1zm10 0h1v1h-1zm-66 1h1v2h-1zm25 0h1v1h-1zm8 0h1v1h-1zm16 0h1v1h-1zm34 0h1v1h-1zm14 0h1v1h-1zm45 0h1v2h-1zm-173 1h1v7h-1zm71 0h1v1h-1zm1 0h1v1h-1zm9 0h1v2h-1zm38 0h1v1h-1zm67 0h1v1h-1zm10 0h1v2h-1zm-228 1h1v2h-1zm7 0h1v1h-1zm24 0h1v1h-1zm32 0h1v1h-1zm16 0h1v1h-1zm8 0h1v1h-1zm33 0h1v6h-1zm10 0h1v6h-1zm19 0h1v1h-1zm56 0h1v1h-1zm-199 1h1v1h-1zm74 0h1v1h-1zm32 0h1v1h-1zm1 0h1v1h-1zm46 0h1v1h-1zm1 0h1v1h-1zm44 0h1v2h-1zm24 0h1v1h-1zm-228 1h1v1h-1zm65 0h1v1h-1zm94 0h1v1h-1zm1 0h1v1h-1zm35 0h1v5h-1zm-194 1h1v1h-1zm153 0h1v2h-1zm50 0h1v1h-1zM46 79h1v1h-1zm1 0h1v1h-1zm19 0h1v1h-1zm1 0h1v1h-1zm79 0h1v1h-1zm78 0h1v1h-1zm25 0h1v1h-1zm73 0h1v1h-1zM38 80h1v1h-1zm145 0h1v1h-1zm59 0h1v1h-1zm6 0h1v1h-1zm51 0h1v1h-1zm52 0h1v1h-1zM80 81h1v1h-1zm3 0h1v1h-1zm94 0h1v1h-1zm87 0h1v2h-1zm1 0h1v2h-1zm10 0h1v1h-1zm30 0h1v1h-1zm19 0h1v1h-1zm26 0h1v1h-1zm-204 1h1v1h-1zm13 0h1v1h-1zm92 0h1v1h-1zm37 0h1v1h-1zm8 0h1v1h-1zm17 0h1v1h-1zm27 0h1v1h-1zm24 0h2v1h-2zm2 0h1v1h-1zm-219 1h1v1h-1zm29 0h1v1h-1zm13 0h1v1h-1zm27 0h2v1h-2zm2 0h1v1h-1zm18 0h1v1h-1zm16 0h1v1h-1zm12 0h1v1h-1zm1 0h1v1h-1zm26 0h1v1h-1zm3 0h1v1h-1zm15 0h1v1h-1zm16 0h1v1h-1zm42 0h1v1h-1zm-173 1h1v1h-1zm-2 3h1v1h-1zm-1 1h1v1h-1zm-88 3h1v1h-1zm10 2h1v1h-1zm-1 2h1v1h-1zm-4 1h1v1h-1zm4 0h1v1h-1zm55 0h1v1h-1zm-59 1h1v1h-1zm51 0h1v1h-1zm-58 2h1v1h-1zm12 1h1v1h-1zm120 0h1v1h-1zm15 0h1v1h-1zm-87 1h1v1h-1zm-37 1h1v1h-1zm100 0h1v1h-1zm13 0h1v1h-1zm7 0h1v1h-1zm-131 1h1v1h-1zm127 0h1v1h-1zm-57 1h1v1h-1zm56 1h1v1h-1zm-124 1h1v1h-1zm-6 3h1v1h-1zm-6 1h3v1h-3zm3 0h1v1h-1z" fill="#f1853a"/></svg>