<svg xmlns="http://www.w3.org/2000/svg" role="img" viewBox="-10.23 -10.23 531.96 266.96"><title>Lloyds Banking Group logo</title><path fill="#15854f" d="M511.6832 247.003H0V.0065h511.6832V247.003"/><path fill="#fff" d="M149.86159 143.37746c-.97065-.324-2.58527-.70105-4.30923-.70105-5.97718 0-10.44774 3.98643-10.44774 9.80242 0 5.54773 3.98524 9.90909 10.28641 9.90909 1.61596 0 3.7159-.376 4.90121-.69999h.05333v-9.74762h-3.17725v7.27008c-.43066.0536-1.18397.16307-1.88529.16307-4.09323 0-6.83982-3.12446-6.83982-6.89463-.05334-3.71604 2.8546-6.6785 7.10915-6.6785 1.39997 0 3.01593.37706 4.30923.80785zm26.37534.0052c-.97065-.324-2.5866-.69999-4.30923-.69999-5.97852 0-10.44907 3.98537-10.44907 9.80136 0 5.54666 3.98657 9.90909 10.28774 9.90909 1.61596 0 3.7159-.376 4.90121-.69999h.05334v-9.74762h-3.17726v7.27168c-.43199.05307-1.18397.16147-1.88528.16147-4.09324 0-6.83983-3.12392-6.83983-6.89463-.05334-3.71604 2.8546-6.6769 7.10915-6.6769 1.39997 0 3.01593.37546 4.30923.80625zm31.61387 15.94133c3.76924 0 6.51584-3.06925 6.51584-6.83996 0-3.71604-2.7466-6.78636-6.51584-6.78636-3.77057 0-6.5705 3.07032-6.51717 6.78636 0 3.7707 2.7466 6.83996 6.51717 6.83996zm0-16.69545c5.54653 0 9.85576 4.36243 9.85576 9.85549 0 5.54666-4.30923 9.90909-9.85576 9.90909-5.54786 0-9.85708-4.36243-9.85708-9.90909 0-5.49306 4.30922-9.85549 9.85708-9.85549zm-155.63184 4.0343l2.74687 7.21595h-5.602zm5.97799 15.45588h3.50097l-7.91753-19.33445h-3.23112l-7.8086 19.33445h3.44618l2.04634-5.27747h7.8638zm69.58319-19.28138V156.249l-10.5024-13.41166h-2.9618v19.28138h3.17806v-14.05591l10.98612 14.05591h2.47754v-19.28138zm-93.81846 2.96299c1.56197 0 2.96193.80785 2.96193 2.42394 0 1.56143-1.1849 2.5838-2.801 2.5838h-3.6083v-5.00774zm154.01495.05987c1.93996 0 3.33859.86144 3.33859 2.8546 0 1.88381-1.29197 2.85312-3.17726 2.85312h-3.06925v-5.70772zm59.72651.0532c2.10128 0 3.39458 1.23903 3.39458 3.12378 0 1.88542-1.34663 3.01606-3.60924 3.01606h-2.6386v-6.13985zm-213.25707 7.80393c1.83116 0 3.0702 1.07758 3.0702 2.69313 0 1.7229-1.2937 2.74687-3.66245 2.74687H30.5143v-5.44zm70.98303-10.88v19.2814h3.28592v-19.2814zM27.15345 80.55517v43.00253h27.1228v-7.08743H34.47366v-35.9151zm34.80287 0v43.00253h27.12585v-7.08743h-19.8027v-35.9151zm107.77677 0l-11.52105 19.81817-12.36102-19.81817h-8.52245l16.68225 26.18468-10.20108 16.81785h8.16113l25.92335-43.00253zm27.60464 6.9665c8.52112 0 14.5223 6.24517 14.5223 14.5343s-6.00118 14.6539-14.5223 14.6539h-6.3625v-29.1882zm33.84582-4.44523c-2.99992 2.16261-4.56255 5.2852-4.56255 9.00911 0 7.20649 5.64253 10.4504 11.40372 12.2517 5.15987 1.68262 9.35976 3.00392 9.35976 7.20915 0 4.08283-3.9599 5.88478-7.68114 5.88478-4.79988 0-9.3611-1.92128-12.12236-3.7243l-.24-.1192v7.32728h.12133c2.51994 1.44063 7.20116 3.12286 12.36236 3.12286 7.55981 0 14.64097-4.92481 14.64097-12.73275 0-7.20649-4.92121-10.6904-11.76237-12.85301-7.08116-2.16262-9.23977-3.72258-9.23977-6.4865 0-3.9639 4.07856-5.16521 7.7998-5.16521 2.88126 0 6.7225.72131 10.20241 2.4026h.12v-6.84649c-3.23992-1.44263-6.72117-2.16261-10.8024-2.16261-3.5999 0-7.08115 1.0813-9.59976 2.8826zM113.5649 117.31144c8.4014 0 14.52257-6.8477 14.52257-15.25548 0-8.28913-6.12118-15.13562-14.52257-15.13562-8.28112 0-14.6423 6.8465-14.52097 15.13562 0 8.40779 6.12012 15.25548 14.52097 15.25548zm70.21052-36.75628v43.00253h13.56232c12.24236 0 22.08212-9.1295 22.08212-21.50173 0-12.3717-9.95975-21.5008-22.08212-21.5008zm-70.21052-.48132c12.24236 0 21.96372 9.72909 21.96372 21.98212 0 12.37222-9.6015 22.10171-21.96372 22.10171-12.48142 0-21.96251-9.72949-21.96251-22.10171 0-12.25303 9.72109-21.98212 21.96251-21.98212zm119.86794 62.76923v12.22623c0 2.5318-1.45463 4.2547-4.1479 4.2547-2.58526 0-4.20122-1.7229-4.20122-4.2547v-12.22623h-3.23059v12.3341c0 4.41602 2.96126 7.21595 7.43181 7.21595 4.4159 0 7.43182-2.79993 7.43182-7.21596v-12.33409zm-135.27435-.00573l-8.02473 9.04924v-9.04924h-3.23072v19.28138h3.23072v-9.20923l8.18673 9.20923h4.36189l-8.88631-9.85602 8.45552-9.42536zm143.56748.00573v19.28085h3.12392v-6.89316h2.79993c3.8239 0 6.73316-2.36967 6.73316-6.24664 0-3.71711-2.7466-6.14105-6.51717-6.14105zm-163.60245-.00573V156.249l-10.50173-13.41166h-2.96193v19.28138h3.23112v-14.05591l10.93253 14.05591h2.47807v-19.28138zm103.71328.00573v19.28085h3.23192v-7.59314h2.6386l4.20123 7.59314h3.66257l-4.63188-8.0774c2.26127-.8625 3.66257-2.90779 3.66257-5.33173 0-3.82377-2.63993-5.87172-6.46384-5.87172zm-154.5536-.00573v19.28138h6.73156c3.7703 0 6.8405-1.66982 6.8405-5.59986 0-1.99381-1.02398-3.60937-2.8546-4.68535 1.13064-.59318 2.15408-2.04781 2.15408-3.82537 0-3.39325-2.63847-5.1708-5.92439-5.1708h-6.94716m467.27512 87.10102H281.69296V17.07275H494.5583v212.86561"/><path fill="#231f20" d="M467.55364 126.9248c3.26392 2.39154 6.63717 4.13417 6.63717 7.9398 0 1.09998-1.41463 2.19328-4.56788 2.19328-2.39328 0-5.00521-.65731-6.20252-2.4094-.9773-1.3077.43466-3.04886-.43465-4.3499-.65199-1.09157-2.17728-.54785-3.15592-1.09157-1.19464-.65212-1.30264-1.19637-2.06928-2.82753-.86665-1.95888-3.80658-5.2244-7.28916-8.70445-2.93459-2.93699-6.09184-4.45935-7.50514-4.35269-.99331.108-1.31463.108-2.29461.108-2.50527 0-4.68388 2.3962-8.27046 3.9191-2.49994 1.0849-3.91857 1.74062-5.5492 1.95889l-.54265.65305 3.26125-.10787c3.04526 0 7.07316-.43639 10.11842-.43639 3.16659 0 4.69055 2.82753 5.88785 5.7644 2.39727 5.98638 5.98785 14.5935 10.23041 21.77185 2.06395 3.37338 3.80657 5.54933 3.80657 9.70402 0 1.30664-.10933 3.04513-1.85328 3.04513-2.39061 0-8.48246-2.5014-8.48246-5.23214 0-2.07701 1.63196-2.9462 1.63196-5.0128 0-1.30678-1.95995-1.08705-2.39327-2.28382-1.5253-6.41864-3.37592-12.74248-6.97583-16.55172-1.85195-1.95875-2.06928-2.8286-3.91457-2.8286-.98264 0-1.96395.2172-2.8346.54586-5.00253 1.84995-11.63704 7.40915-19.9075 9.91335-3.15458.97704-3.69857-.8709-6.96382-.21773h.22c-2.62394.5416-4.69456 2.06395-8.2838 3.04526-5.00254 1.41503-13.60233 2.06555-20.45549 1.1989-4.89188-.65465-11.21838-1.63222-13.93832-1.52396-2.06395 5.98212-6.5265 13.82472-13.053 16.88185-3.48125 1.52036-4.57189 3.6963-3.48125 7.6066 1.30663 4.89309 5.6572 8.493 7.9398 12.62516 2.06795 3.58284 5.4372 9.2503 9.03044 11.10079 3.59058 1.84528 5.77986 4.56135 5.77986 6.8441 0 1.08797-.44932 1.74115-1.53463 1.74115h-7.17849c-1.09464 0-1.63596-.65318-1.85595-1.09064-.97598-1.84622-.324-3.58524-1.6253-5.216-.9853-1.19317-1.74528-.86918-2.94125-1.84636-2.17728-2.06554-.54399-3.26125-2.17728-5.88358-4.56789-7.17329-6.52784-8.91178-10.33308-14.03459-2.17461-2.71713-4.78788-4.0239-4.78788-7.6102 0-4.34576 4.35056-5.10828 4.24256-9.48003-2.82793 2.07701-6.09585 3.70777-11.11039 4.37175-.65331.1084-2.39594 1.41357-3.15725 2.28275-1.73996 1.74009-2.3906 3.47964-2.61194 6.08784-.53998 5.88119-1.73462 11.86224-.9773 17.72623.9773 3.82123 1.63329 5.12534 4.78654 7.19302 1.95995 1.30156 4.24656 3.15098 4.46256 5.86652 0 .76144-.216 1.63329-1.30397 1.63329h-7.72914c-.75865 0-1.41063-.54532-1.63063-.98118-.87064-1.51876-.32399-2.60673-.64931-4.34789-.76398-3.58524-4.78922-3.37071-4.78922-7.06382 0-1.10104.65065-2.5146.75865-4.79575.21866-4.9988 1.74262-13.05847.21866-22.8385-.65065-5.67692 5.22387-5.89051 8.27046-10.89812 1.84796-2.83326 1.3053-1.63076 2.39194-3.6999 1.0893-2.17449.87465-3.69992.76665-5.00255 0-1.6333-1.63596-5.1296-.54665-12.20023.43599-3.15619 1.95461-6.3097 4.02656-9.03044 0-.1084 0-.54225-.65598-.54225-3.04526.21773-3.04526-.54372-5.1132-.54372-1.95729 0-3.48125 1.63076-3.80658 2.49847-.9813-.43386-1.4133-1.5209-1.4133-2.17448 0-1.08904.21733-2.06608 1.30397-3.15472.43466-.43466 0-.65065-.54265-.65065-2.39594 0-4.68122 2.933-5.22654 5.00014-1.41063-.21666-1.51863-2.06715-2.17328-2.06715-.65198 0-1.0893.98384-1.0893 1.96249 0 6.96182 11.31705 8.48418 11.31705 17.62396 0 10.5664-12.73302 8.38632-12.73302 12.19716 0 .76504.54666 1.41556 1.5293 1.85195-.43732.97611-1.5293 1.4105-2.72127 1.4105-2.82793 0-4.89987-2.06142-4.89987-4.89321 0-5.76906 7.7238-5.87745 7.7238-10.24081 0-2.06715-1.3013-2.72127-2.49994-3.69884-7.39581-5.2244-11.53304-10.44508-11.53304-19.0382 0-9.2491 6.4185-16.33292 14.79696-16.33292 12.18503 0 12.51302 14.04498 23.62208 15.24362 4.13323-2.82926 9.03044-4.45989 13.81699-4.45989 7.18115 0 10.33307 1.84929 17.96221 1.84929 3.0506 0 8.16647-.86931 14.25298-5.00388 2.28661-1.52396 3.26659-1.84662 5.33054-3.70657 4.7892-4.1399 9.25043-12.1917 9.25043-17.95688v.32399c0-1.84796-.43599-2.93726-1.3053-2.93726-2.61193 0-4.89588 2.39594-7.50781 4.89987-1.63196 1.73863.8693 2.4986-2.82793 4.56656-1.30664.65331-2.82793-.54399-4.2439-.54399-2.93726 0-4.24256-3.47991-4.24256-6.5265 0-1.5253 1.1973-1.95995 1.84796-3.37325 1.5293-2.93993 1.4173-4.02657 2.8306-6.9625.86797-1.96395 2.39727-3.26525 2.2866-4.67988 0-.54132-.43465-.8733-.43465-1.4173 0-2.95059 3.9159-4.90654 3.9159-7.84247 0-1.63062-1.85062-2.3946-2.28661-3.6999-.43599-1.30397-.10933-1.63063-.10933-1.63063.10933-.22.328-.32932.54532-.32932 1.5253 0 2.17728 1.63329 3.5879 2.50393.11334-1.95595-.53998-2.3946-.53998-3.80657 0-.76131-.10933-1.95862.65332-1.95862.97864 0 .86664 1.3053 1.74129 1.95862 1.08664.86665 2.06395.76265 3.26258 1.5213 1.5213.9813 2.39061 2.6106 2.9346 2.7186 1.52396.21866 1.95862-1.63196 1.1973-2.7186 1.73996-.10933 3.48258 1.30796 5.77852 1.30796 3.59191 0 4.79188.97731 5.44253 1.51863 2.28661 1.96129 2.71994 3.48392 5.2212 3.48392 1.30397 0 1.9573-1.08931 2.28528-1.52263 1.74263 1.30396 1.85062 4.56788 0 7.28648.76132 2.30261 4.0239 2.5186 5.5492 3.60391 1.52263 1.08664 1.30663 1.6333 2.39194 2.28794.87331.54532 1.63462.43466 2.28527 0 .76399 3.0426-1.85062 5.76653-5.00254 6.19718.10933 3.9199 4.24256 6.31184 6.09052 7.29049-1.08798 2.39727-3.04793 3.15458-4.78655 3.5919.54399 2.39461 3.15592 5.8772 1.84795 9.02778-1.19597-.53865-2.93459 0-2.93459 1.73996 0 1.96128 2.49994 2.95592-.108 4.36789-1.19997.65332-1.41863 2.39327.75865 4.0279 2.83193-.76265 5.54653-.65465 8.70112-.65465 1.96261 0 4.57455-.54399 6.31184-.54399 3.27725 0 5.2372 1.3053 7.63047 3.91724 5.98519 6.5253 11.42372 13.38086 17.62356 18.06101"/><path fill="#656263" d="M306.04835 109.5171c1.30797 0 3.6999-7.18115 8.59445-7.18115 1.4173 0 1.74129.54399 1.74129 1.0853 0 .98132-1.63196 1.8533-1.63196 3.1586 0 .21732.10933.54131.54399.54131 1.1973 0 2.06795-2.6106 6.95982-2.6106 1.31064 0 2.39594.108 3.59058.436.54399.10932 1.6333.65464 1.19997-.86932-1.19997-3.37192-4.89588-6.54384-10.11975-6.54384-5.22253 0-10.65973 4.69722-11.31438 10.35041-.10933.97998-.10933 1.6333.43599 1.6333m90.32707-44.83889c-1.41463-.55598-1.63062-1.31863-1.1933-3.05859.32266-1.84928.43199-2.6106-.43732-2.8306-.76265-.21732-1.74263.22-2.72127 1.30798-.86798 1.19463-2.2866 2.61193-2.71993 3.80657-.43599 1.53596 1.4133 1.31596.10933 3.82124-2.28528 4.1319-2.83193 5.0012-3.91857 7.9438-.9773 3.04525-1.73862 3.47991-2.2826 4.45855-.65466.87331.87197.98131 2.61193.44 1.85062-.66 1.95728 1.51862 1.30396 3.04125-.54665 1.09064-.11066 1.52263 1.41464.32932 1.4133-1.09197-.76132-1.96128-.216-5.44253.54132-3.15592 1.19464-4.89587 3.15459-8.0478 1.63196-2.7226 3.04659-4.68388 5.87452-3.70124 1.08664.54399.54532-1.41463-.97998-2.06795m60.5185 92.41503c.54264 0 .65064-.76665.65064-1.42917 0-1.51863-.86931-3.81337-2.06528-4.79201-.32533 2.29208-1.41463 3.81604-1.41463 4.79201 0 .77612 2.06795 1.42917 2.82926 1.42917m13.48766-21.89839c.87065 0 2.17995-.33026 2.17995-.98224 0-1.3057-1.95995-3.59058-3.70124-4.13176 1.1973 2.27967 0 5.114 1.5213 5.114m-59.73985-29.70432c12.2957 5.65719 11.53038 15.99266 12.62102 13.37766.436-1.08597 2.06528-6.19518-2.28794-11.09372-3.37192-3.91857-4.67455-2.93726-3.37192-6.19718 5.33454-12.96234 8.70645-32.54852-7.28781-39.41501-1.8493-.76265-3.38525-.76265-3.38525-.43332 0 .32399 1.75329.87197 3.82123 2.28127 10.66107 7.08516 7.39449 26.34334-2.3946 35.70044-3.27592 3.16926-1.75196 3.93057 2.28527 5.77986m-42.02295 90.21534c.87065 0 .432-1.30316.108-1.84942-.75998-1.30263-2.17328-2.17181-3.37325-2.71606.32533 1.3041.436 4.56548 1.74396 4.56548h1.5213m-37.11241 0c.87064 0 .21733-1.30316-.10667-1.84942-.76264-1.30263-2.28794-2.06301-3.48524-2.60833.32799 1.3057.54798 4.45775 1.85062 4.45775h1.74129m44.95887-73.67896c6.7465-.76091 7.83448-2.2822 9.02911-7.39821.54399-2.39167 2.28661-4.89561 3.80924-6.5289.97864-1.08664 1.95862-1.95462 2.93726-3.58925.328-.65465.54399-1.19597 0-.9773-.75998.54398-3.04659 2.06794-4.02657 2.82792-4.78654 3.37192-12.0797 5.00254-15.01162 5.00254-6.21584 0-11.54771-1.84662-17.20357-1.84662-16.97158 0-23.29942 13.2754-22.42344 20.99668.108 1.19837.324 1.30717.75998 1.30717 1.1973 0 2.18928-4.57229 6.43184-8.59512 6.20118-5.87639 12.94901-9.24977 22.52344-9.24977 6.96249 0 9.80109 2.28594 9.80109 3.15312 0 1.73902-2.94793 1.85155-2.7306 3.59364 0 .54319 1.64396 1.84782 6.10384 1.3041"/></svg>