<svg xmlns="http://www.w3.org/2000/svg" role="img" viewBox="-7.06 -7.06 367.12 108.87"><title>Loopback logo</title><defs><style>.cls-1{fill:#3f5dff}</style></defs><path d="M31.11 79l12.35-7.93 15.61 8.91 15.76-9.21 13.06 7.44L59.15 95 31.11 79zm-5.2-59.8L58.75 0l33.07 18.86.11 33.19-13.04-7.44-.06-18.18-19.99-11.4-19.9 11.62.05 18.17-4.43 2.59-8.55 5.48-.1-33.69z" class="cls-1"/><path d="M43.63 31.29l9.4 5.35-9.36 5.46-.04-10.81zm21.31 27.09l12.94-7.58 16.07 9.15 10.91-6.37-.07-12.63-8.23-4.7-.05-15 21.39 12.2.01 27.57-23.88 13.95-29.09-16.59z" class="cls-1"/><path d="M.14 61.63L0 33.98l21.23-12.4.05 15.04-8.23 4.8.06 12.63 10.98 6.26 50.08-29.22.05 15.04-50.06 29.2L.14 61.63z" class="cls-1"/><path fill="#001956" d="M143.95 61V26.51h6.51V55.2h13.59V61zm21.59-13c0-8.25 4.59-13.43 11.95-13.43s12 5.18 12 13.43-4.59 13.53-12 13.53-11.95-5.19-11.95-13.53zm17.33 2.42v-4.75c0-3.85-2.07-6-5.38-6s-5.33 2.13-5.33 6v4.79c0 3.9 2.07 6 5.33 6s5.38-2.1 5.38-6zm8.99-2.42c0-8.25 4.6-13.43 12-13.43s12 5.18 12 13.43-4.6 13.53-12 13.53-12-5.19-12-13.53zm17.34 2.42v-4.75c0-3.85-2.08-6-5.38-6s-5.34 2.13-5.34 6v4.79c0 3.9 2.08 6 5.34 6s5.38-2.1 5.38-6zm10.75-15.22h6.32v4.25h.2a7.12 7.12 0 0 1 7.11-4.84c6.52 0 10.12 4.84 10.12 13.43s-3.6 13.53-10.12 13.53a7.27 7.27 0 0 1-7.11-4.89h-.2v14.18h-6.32zm17.1 15.11v-4.44c0-3.66-2.27-6.08-5.53-6.08-3 0-5.28 1.63-5.28 4.15v8.2c0 2.67 2.27 4.2 5.28 4.2 3.26 0 5.53-2.34 5.53-6.03zm11.41-23.8h16c5.68 0 9.13 3.5 9.13 8.84s-3 7.21-6.17 7.41v.29c3 0 7.46 2.18 7.46 8 0 5.54-3.81 9.88-8.89 9.88h-17.53zm6.49 14.37H263a3.41 3.41 0 0 0 3.76-3.66v-1.53c0-2.32-1.39-3.65-3.76-3.65h-8.05zm0 14.57h9.09c2.47 0 3.95-1.33 3.95-3.75V50c0-2.42-1.48-3.81-3.95-3.81h-9.09zM277.5 54c0-5.29 4-7.9 11-7.9h4.45v-1.91c0-2.87-1.43-4.54-4.79-4.54a6.71 6.71 0 0 0-5.87 3.25l-3.76-3.35c1.88-3 4.89-4.94 10.08-4.94 7 0 10.67 3.31 10.67 9.18v12.15h2.56v5h-3.5c-2.72 0-4.4-1.78-4.79-4.44h-.3c-.84 3.31-3.65 5-7.51 5-5.27.07-8.24-2.94-8.24-7.5zm15.45-.72v-3.41h-4c-3.4 0-5 1.13-5 3.13v.84c0 2.07 1.43 3.11 3.9 3.11 2.79.05 5.1-1.25 5.1-3.67zM303.73 48c0-8.25 4.3-13.43 11.9-13.43 5.19 0 8.6 2.47 10.13 6.52l-5.19 2.32a4.81 4.81 0 0 0-4.94-3.76c-3.5 0-5.28 2.47-5.28 6.08v4.69c0 3.61 1.78 6 5.28 6 3 0 4.5-1.73 5.44-4l4.88 2.34c-1.68 4.54-5.29 6.81-10.28 6.81-7.64 0-11.94-5.23-11.94-13.57zm25.58-23.57h6.33v22h.24l3.41-4.64 5.78-6.62h7.16l-8.89 10L353.17 61h-7.51l-6.62-11.56-3.4 3.71V61h-6.33z"/></svg>