<svg xmlns="http://www.w3.org/2000/svg" role="img" viewBox="-14.97 -13.97 830.44 327.44"><title>LTSI logo</title><path d="M554 93h1v1h-1zm1 0h18v1h-18zm18 0h1v1h-1zm1 0h1v1h-1zm1 0h40v1h-40zm40 0h1v1h-1zm1 0h1v1h-1zm1 0h41v1h-41zm41 0h1v1h-1zm1 0h1v1h-1zm1 0h40v1h-40zm40 0h1v1h-1zm1 0h1v1h-1zm1 0h1v1h-1zm1 0h1v1h-1zm-149 1h1v16h-1zm1 0h147v20H555zm147 0h1v20h-1zm1 0h1v20h-1zm-149 16h1v1h-1zm0 1h1v1h-1zm0 1h1v2h-1zm0 2h1v1h-1zm1 0h147v1H555zm147 0h1v1h-1zm1 0h1v1h-1zm-149 1h1v1h-1zm1 0h10v1h-10zm10 0h1v1h-1zm1 0h1v1h-1zm1 0h40v1h-40zm40 0h1v1h-1zm1 0h1v1h-1zm1 0h41v1h-41zm41 0h1v1h-1zm1 0h1v1h-1zm1 0h40v1h-40zm40 0h1v1h-1zm1 0h1v1h-1zm1 0h8v1h-8zm8 0h1v1h-1zm1 0h1v1h-1zm40 95h1v1h-1zm1 0h25v1h-25zm25 0h1v1h-1zm1 0h1v1h-1zm1 0h28v1h-28zm28 0h1v1h-1zm-56 1h1v20h-1zm1 0h55v20h-55zm55 0h1v20h-1zm-56 20h1v1h-1zm1 0h55v1h-55zm55 0h1v1h-1zm-56 1h1v1h-1zm1 0h17v1h-17zm17 0h1v1h-1zm1 0h1v1h-1zm1 0h36v1h-36zm36 0h1v1h-1zm-342 36h1v1h-1zm1 0h25v1h-25zm25 0h1v1h-1zm1 0h1v1h-1zm1 0h40v1h-40zm40 0h1v1h-1zm1 0h1v1h-1zm1 0h40v1h-40zm40 0h1v1h-1zm1 0h1v1h-1zm1 0h36v1h-36zm36 0h1v1h-1zm1 0h1v1h-1zm-149 1h1v15h-1zm1 0h147v20H458zm147 0h1v20h-1zm1 0h1v20h-1zm-149 15h1v1h-1zm0 1h1v1h-1zm0 1h1v3h-1zm0 3h1v1h-1zm1 0h147v1H458zm147 0h1v1h-1zm1 0h1v1h-1zm-149 1h1v1h-1zm1 0h17v1h-17zm17 0h1v1h-1zm1 0h1v1h-1zm1 0h40v1h-40zm40 0h1v1h-1zm1 0h1v1h-1zm1 0h40v1h-40zm40 0h1v1h-1zm1 0h1v1h-1zm1 0h40v1h-40zm40 0h1v1h-1zm1 0h1v1h-1zm1 0h2v1h-2zm2 0h1v1h-1zm1 0h1v1h-1z" fill="#00a19c"/><g fill="#25cbd3"><path d="M7 2h1v1H7zm1 0h1v1H8zm1 0h1v1H9zm1 0h1v1h-1zm1 0h1v1h-1zm1 0h1v291h-1zm1 0h1v291h-1zm1 0h1v1h-1zm1 0h1v1h-1zm1 0h1v1h-1zm1 0h1v1h-1zM5 3h1v1H5zm1 0h1v1H6zm1 0h1v1H7z"/><path d="M8 3h9v289H8zm9 0h1v289h-1zm1 0h1v1h-1zm1 0h1v1h-1zM4 4h1v1H4zm1 0h1v1H5z"/><path d="M6 4h12v287H6zm12 0h1v287h-1zm1 0h1v1h-1zm1 0h1v1h-1zM3 5h1v1H3zm1 0h1v1H4z"/><path d="M5 5h14v285H5zm14 0h1v285h-1zm1 0h1v1h-1zm1 0h1v1h-1zM2 6h1v1H2zm1 0h1v1H3z"/><path d="M4 6h16v283H4zm16 0h1v284h-1zm1 0h1v1h-1zm1 0h1v1h-1zM2 7h1v1H2z"/><path d="M3 7h18v281H3zm18 0h1v281h-1zm1 0h1v1h-1zm1 0h1v1h-1zM1 8h1v1H1zm1 0h1v1H2zm20 0h1v279h-1zm1 0h1v1h-1zM1 9h1v1H1z"/><path d="M2 9h20v277H2zm21 0h1v1h-1zM1 10h1v1H1zm22 0h1v275h-1zm1 0h1v1h-1zM1 11h1v1H1zm23 0h1v1h-1zM1 12h1v1H1zm23 0h1v1h-1z"/><path d="M1 13h22v269H1zm23 0h1v1h-1zm0 1h1v267h-1zm87 23h1v1h-1zm1 0h1v1h-1zm1 0h1v1h-1zm1 0h1v1h-1zm1 0h1v1h-1zm1 0h1v1h-1zm1 0h1v1h-1zm1 0h1v1h-1zm-9 1h1v1h-1zm1 0h1v1h-1zm1 0h1v1h-1zm1 0h5v242h-5zm5 0h1v247h-1zm1 0h1v1h-1zm1 0h1v1h-1zm1 0h1v1h-1zm1 0h1v1h-1zm-14 1h1v1h-1zm1 0h1v1h-1z"/><path d="M109 39h11v237h-11zm11 0h1v249h-1zm1 0h1v1h-1zm1 0h1v1h-1zm-16 1h1v1h-1zm1 0h1v1h-1z"/><path d="M108 40h13v234h-13zm13 0h1v248h-1zm1 0h1v1h-1zm1 0h1v1h-1zm-18 1h1v1h-1zm1 0h1v1h-1z"/><path d="M107 41h15v231h-15zm15 0h1v248h-1zm1 0h1v1h-1zm1 0h1v1h-1zm-19 1h1v1h-1z"/><path d="M106 42h17v227h-17zm17 0h1v247h-1zm1 0h1v1h-1zm1 0h1v1h-1zm-21 1h1v1h-1z"/><path d="M105 43h19v222h-19zm19 0h1v247h-1zm1 0h1v1h-1zm-21 1h1v1h-1zm21 0h1v1h-1zm1 0h1v1h-1zm-23 1h1v1h-1z"/><path d="M104 45h21v214h-21zm21 0h1v245h-1zm1 0h1v1h-1zm-23 1h1v1h-1zm23 0h1v1h-1zm-23 1h1v1h-1zm23 0h1v1h-1zm-23 1h1v1h-1zm23 0h1v1h-1zm-23 1h1v43h-1zm23 0h1v43h-1zm142 38h1v1h-1zm1 0h1v1h-1zm1 0h1v1h-1zm1 0h1v1h-1zm1 0h1v1h-1zm1 0h1v1h-1zm1 0h1v1h-1zm1 0h2v1h-2zm2 0h1v1h-1zm1 0h1v1h-1zm1 0h1v1h-1zm1 0h1v1h-1zm1 0h1v1h-1zm1 0h1v1h-1zm1 0h1v1h-1zm1 0h1v1h-1zm-24 1h1v1h-1zm1 0h1v1h-1zm1 0h1v1h-1zm1 0h1v1h-1zm1 0h1v1h-1zm1 0h1v1h-1zm1 0h1v1h-1zm1 0h1v1h-1zm1 0h16v19h-16zm16 0h1v20h-1zm1 0h1v1h-1zm1 0h1v1h-1zm1 0h1v1h-1zm1 0h1v1h-1zm1 0h1v1h-1zm1 0h1v1h-1zm1 0h1v1h-1zm106 0h1v1h-1zm1 0h1v1h-1zm1 0h1v1h-1zm1 0h1v1h-1zm1 0h1v1h-1zm-146 1h1v1h-1zm1 0h1v1h-1zm1 0h1v1h-1zm1 0h1v1h-1zm1 0h1v1h-1z"/><path d="M260 89h31v18h-31zm31 0h1v20h-1zm1 0h1v1h-1zm1 0h1v1h-1zm1 0h1v1h-1zm1 0h1v1h-1zm1 0h1v1h-1zm98 0h1v1h-1zm1 0h1v1h-1zm1 0h1v1h-1zm1 0h1v1h-1zm1 0h3v204h-3zm3 0h1v203h-1zm1 0h1v1h-1zm1 0h1v1h-1zm1 0h1v1h-1zm1 0h1v1h-1zm-154 1h1v1h-1zm1 0h1v1h-1zm1 0h1v1h-1zm1 0h1v1h-1zm1 0h1v1h-1z"/><path d="M256 90h40v17h-40zm40 0h1v20h-1zm1 0h1v1h-1zm1 0h1v1h-1zm1 0h1v1h-1zm1 0h1v1h-1zm92 0h1v1h-1zm1 0h1v1h-1zm1 0h1v1h-1zm1 0h9v202h-9zm9 0h1v202h-1zm1 0h1v1h-1zm1 0h1v1h-1zm-158 1h1v1h-1zm1 0h1v1h-1zm1 0h1v1h-1zm1 0h1v1h-1z"/><path d="M252 91h48v16h-48zm48 0h1v21h-1zm1 0h1v1h-1zm1 0h1v1h-1zm1 0h1v1h-1zm1 0h1v1h-1zm87 0h1v1h-1zm1 0h1v1h-1zm1 0h12v200h-12zm12 0h1v200h-1zm1 0h1v1h-1zm1 0h1v1h-1zm-304 1h1v1h-1zm23 0h1v1h-1zm119 0h1v1h-1zm1 0h1v1h-1zm1 0h1v1h-1zm1 0h1v1h-1z"/><path d="M249 92h54v15h-54zm54 0h1v21h-1zm1 0h1v1h-1zm1 0h1v1h-1zm1 0h1v1h-1zm1 0h1v1h-1zm83 0h1v1h-1zm1 0h1v1h-1zm1 0h15v198h-15zm15 0h1v198h-1zm1 0h1v1h-1zM70 93h1v1h-1zm1 0h1v1h-1zm1 0h1v1h-1zm1 0h1v1h-1zm1 0h1v1h-1zm1 0h27v1H75zm27 0h1v1h-1zm1 0h1v1h-1zm23 0h1v1h-1zm1 0h38v1h-38zm38 0h1v1h-1zm1 0h1v1h-1zm1 0h1v1h-1zm1 0h1v1h-1zm1 0h1v1h-1zm74 0h1v1h-1zm1 0h1v1h-1zm1 0h1v1h-1z"/><path d="M246 93h60v14h-60zm60 0h1v21h-1zm1 0h1v1h-1zm1 0h1v1h-1zm1 0h1v1h-1zm1 0h1v1h-1zm79 0h1v1h-1zm1 0h1v1h-1zm1 0h17v196h-17zm17 0h1v195h-1zm1 0h1v1h-1zM68 94h1v1h-1zm1 0h1v1h-1zm1 0h99v19H70zm99 0h1v19h-1zm1 0h1v1h-1zm1 0h1v1h-1zm70 0h1v1h-1zm1 0h1v1h-1zm1 0h1v1h-1z"/><path d="M244 94h65v13h-65zm65 0h1v22h-1zm1 0h1v1h-1zm1 0h1v1h-1zm1 0h1v1h-1zm77 0h1v1h-1zm1 0h18v194h-18zm19 0h1v1h-1zm1 0h1v1h-1zM67 95h1v1h-1zm1 0h1v1h-1zm1 0h101v17H69zm101 0h1v18h-1zm1 0h1v1h-1zm1 0h1v1h-1zm66 0h1v1h-1zm1 0h1v1h-1zm1 0h1v1h-1z"/><path d="M241 95h70v12h-70zm70 0h1v22h-1zm1 0h1v1h-1zm1 0h1v1h-1zm1 0h1v1h-1zm74 0h1v1h-1zm1 0h1v1h-1zm20 0h1v192h-1zm1 0h1v1h-1zM66 96h1v1h-1zm1 0h105v15H67zm105 0h1v16h-1zm1 0h1v1h-1zm64 0h1v1h-1zm1 0h1v1h-1z"/><path d="M239 96h75v11h-75zm75 0h1v23h-1zm1 0h1v1h-1zm1 0h1v1h-1zm72 0h1v1h-1zm1 0h20v190h-20zm21 0h1v1h-1zM65 97h1v1h-1zm1 0h107v13H66zm107 0h1v14h-1zm1 0h1v1h-1zm61 0h1v1h-1zm1 0h1v1h-1z"/><path d="M237 97h79v10h-79zm79 0h1v23h-1zm1 0h1v1h-1zm1 0h1v1h-1zm70 0h1v1h-1zm22 0h1v188h-1zm1 0h1v1h-1zM64 98h1v1h-1zm1 0h1v1h-1zm109 0h1v1h-1zm1 0h1v1h-1zm58 0h1v1h-1zm1 0h1v1h-1zm1 0h1v1h-1z"/><path d="M236 98h82v9h-82zm82 0h1v24h-1zm1 0h1v1h-1zm1 0h1v1h-1zm68 0h1v1h-1zm23 0h1v1h-1zM64 99h1v1h-1zm1 0h109v10H65zm109 0h1v11h-1zm1 0h1v1h-1zm57 0h1v1h-1zm1 0h1v1h-1z"/><path d="M234 99h85v8h-85zm85 0h1v24h-1zm1 0h1v1h-1zm1 0h1v1h-1zm1 0h1v1h-1zm65 0h1v1h-1zm1 0h22v184h-22zm23 0h1v1h-1zm-348 1h1v1h-1zm1 0h1v1h-1zm111 0h1v8h-1zm1 0h1v1h-1zm54 0h1v1h-1zm1 0h1v1h-1z"/><path d="M232 100h89v7h-89zm89 0h1v25h-1zm1 0h1v1h-1zm1 0h1v1h-1zm64 0h1v182h-1zm24 0h1v182h-1zm-348 1h1v1h-1zm1 0h111v6H64zm112 0h1v1h-1zm53 0h1v1h-1zm1 0h1v1h-1z"/><path d="M231 101h92v6h-92zm92 0h1v26h-1zm1 0h1v1h-1zm1 0h1v1h-1zm-262 1h1v1h-1zm113 0h1v1h-1zm52 0h1v1h-1zm1 0h1v1h-1z"/><path d="M230 102h94v5h-94zm94 0h1v26h-1zm1 0h1v1h-1zm1 0h1v1h-1zm-263 1h1v1h-1zm113 0h1v1h-1zm1 0h1v1h-1zm49 0h1v1h-1zm1 0h1v1h-1z"/><path d="M228 103h98v4h-98zm98 0h1v27h-1zm1 0h1v1h-1zm1 0h1v1h-1zm-265 1h1v1h-1zm113 0h1v1h-1zm1 0h1v1h-1zm48 0h1v1h-1zm1 0h1v1h-1z"/><path d="M227 104h100v3H227zm100 0h1v26h-1zm1 0h1v1h-1zm1 0h1v1h-1zm-266 1h1v1h-1zm113 0h1v1h-1zm1 0h1v1h-1zm47 0h1v1h-1zm1 0h1v1h-1z"/><path d="M226 105h102v2H226zm102 0h1v26h-1zm1 0h1v1h-1zm1 0h1v1h-1zm-267 1h1v1h-1zm113 0h1v1h-1zm47 0h1v1h-1zm1 0h1v1h-1z"/><path d="M225 106h104v1H225zm104 0h1v25h-1zm1 0h1v1h-1zm1 0h1v1h-1zm-268 1h1v1h-1zm1 0h111v1H64zm112 0h1v1h-1zm46 0h1v1h-1zm1 0h1v1h-1z"/><path d="M224 107h107v1H224zm107 0h1v25h-1zm1 0h1v1h-1zm1 0h1v1h-1zm-270 1h1v1h-1zm1 0h1v1h-1zm111 0h1v1h-1zm1 0h1v1h-1zm45 0h1v1h-1zm1 0h1v1h-1zm1 0h44v1h-44zm44 0h1v1h-1zm1 0h1v1h-1zm1 0h1v1h-1zm1 0h1v1h-1zm1 0h1v1h-1zm1 0h1v1h-1zm1 0h1v1h-1zm1 0h1v1h-1zm1 0h1v1h-1zm1 0h1v1h-1zm1 0h1v1h-1zm1 0h1v1h-1zm1 0h1v1h-1zm1 0h1v1h-1zm1 0h1v1h-1zm1 0h1v1h-1z"/><path d="M283 108h49v1h-49zm49 0h1v24h-1zm1 0h1v1h-1zm1 0h1v1h-1zm-270 1h1v1h-1zm1 0h109v1H65zm110 0h1v1h-1zm1 0h1v1h-1zm44 0h1v1h-1zm1 0h1v1h-1zm1 0h38v1h-38zm38 0h1v1h-1zm1 0h1v1h-1zm1 0h1v1h-1zm1 0h1v1h-1zm1 0h1v1h-1zm1 0h1v1h-1zm1 0h1v1h-1zm1 0h1v1h-1zm16 0h1v1h-1zm1 0h1v1h-1zm1 0h1v1h-1zm1 0h1v1h-1zm1 0h1v1h-1zm1 0h1v1h-1zm1 0h1v1h-1z"/><path d="M290 109h43v1h-43zm43 0h1v23h-1zm1 0h1v1h-1zm1 0h1v1h-1zm-271 1h1v1h-1zm1 0h1v1h-1zm1 0h108v1H66zm108 0h1v1h-1zm1 0h1v1h-1zm44 0h1v1h-1zm1 0h1v1h-1zm1 0h35v1h-35zm35 0h1v1h-1zm1 0h1v1h-1zm1 0h1v1h-1zm1 0h1v1h-1zm1 0h1v1h-1zm1 0h1v1h-1zm28 0h1v1h-1zm1 0h1v1h-1zm1 0h1v1h-1zm1 0h1v1h-1zm1 0h1v1h-1z"/><path d="M294 110h40v1h-40zm40 0h1v22h-1zm1 0h1v1h-1zm1 0h1v1h-1zm-271 1h1v1h-1zm1 0h1v1h-1zm1 0h106v1H67zm106 0h1v1h-1zm1 0h1v1h-1zm1 0h1v1h-1zm44 0h1v1h-1zm1 0h33v1h-33zm33 0h1v1h-1zm1 0h1v1h-1zm1 0h1v1h-1zm1 0h1v1h-1zm1 0h1v1h-1zm36 0h1v1h-1zm1 0h1v1h-1zm1 0h1v1h-1zm1 0h1v1h-1z"/><path d="M297 111h38v1h-38zm38 0h1v20h-1zm1 0h1v1h-1zm1 0h1v1h-1zm-271 1h1v1h-1zm1 0h1v1h-1zm1 0h104v1H68zm104 0h1v1h-1zm1 0h1v1h-1zm1 0h1v1h-1zm44 0h1v1h-1zm1 0h31v1h-31zm31 0h1v1h-1zm1 0h1v1h-1zm1 0h1v1h-1zm1 0h1v1h-1zm44 0h1v1h-1zm1 0h1v1h-1zm1 0h1v1h-1z"/><path d="M300 112h36v1h-36zm36 0h1v19h-1zm1 0h1v1h-1zm1 0h1v1h-1zm-271 1h1v1h-1zm1 0h1v1h-1zm1 0h1v1h-1zm1 0h100v1H70zm100 0h1v1h-1zm1 0h1v1h-1zm1 0h1v1h-1zm1 0h1v1h-1zm44 0h1v1h-1zm1 0h1v1h-1zm1 0h29v1h-29zm29 0h1v1h-1zm1 0h1v1h-1zm1 0h1v1h-1zm1 0h1v1h-1zm49 0h1v1h-1zm1 0h1v1h-1zm1 0h1v1h-1z"/><path d="M303 113h34v1h-34zm34 0h1v18h-1zm1 0h1v1h-1zm-269 1h1v1h-1zm1 0h1v1h-1zm1 0h1v1h-1zm1 0h96v1H72zm96 0h1v1h-1zm1 0h1v1h-1zm1 0h1v1h-1zm1 0h1v1h-1zm45 0h1v1h-1zm1 0h1v1h-1zm1 0h28v1h-28zm28 0h1v1h-1zm1 0h1v1h-1zm1 0h1v1h-1zm1 0h1v1h-1zm53 0h1v1h-1zm1 0h1v1h-1zm1 0h1v1h-1z"/><path d="M305 114h33v1h-33zm33 0h1v16h-1zm1 0h1v1h-1zm-267 1h1v1h-1zm1 0h1v1h-1zm1 0h1v1h-1zm1 0h27v1H75zm27 0h1v1h-1zm1 0h1v1h-1zm23 0h1v1h-1zm1 0h38v1h-38zm38 0h1v1h-1zm1 0h1v1h-1zm1 0h1v1h-1zm1 0h1v1h-1zm48 0h1v1h-1zm1 0h27v1h-27zm27 0h1v1h-1zm1 0h1v1h-1zm1 0h1v1h-1zm1 0h1v1h-1zm57 0h1v1h-1zm1 0h1v1h-1zm1 0h1v1h-1z"/><path d="M307 115h32v1h-32zm32 0h1v14h-1zm1 0h1v1h-1zm-237 1h1v133h-1zm23 0h1v131h-1zm89 0h1v1h-1zm1 0h1v1h-1zm1 0h26v1h-26zm26 0h1v1h-1zm1 0h1v1h-1zm1 0h1v1h-1zm61 0h1v1h-1zm1 0h1v1h-1zm1 0h1v1h-1z"/><path d="M309 116h31v1h-31zm31 0h1v12h-1zm1 0h1v1h-1zm-127 1h1v1h-1zm1 0h1v1h-1zm1 0h25v1h-25zm25 0h1v1h-1zm1 0h1v1h-1zm1 0h1v1h-1zm65 0h1v1h-1zm1 0h1v1h-1zm1 0h1v1h-1zm1 0h29v1h-29zm30 0h1v1h-1zm1 0h1v1h-1zm-128 1h1v1h-1zm1 0h25v1h-25zm25 0h1v1h-1zm1 0h1v1h-1zm1 0h1v1h-1zm68 0h1v1h-1zm1 0h1v1h-1z"/><path d="M312 118h29v1h-29zm29 0h1v8h-1zm1 0h1v1h-1zm-129 1h1v1h-1zm1 0h1v1h-1zm1 0h24v1h-24zm24 0h1v1h-1zm1 0h1v1h-1zm1 0h1v1h-1zm71 0h1v1h-1zm1 0h1v1h-1zm1 0h27v1h-27zm28 0h1v1h-1zm-129 1h1v1h-1zm1 0h24v1h-24zm24 0h1v1h-1zm1 0h1v1h-1zm74 0h1v1h-1zm1 0h1v1h-1z"/><path d="M315 120h27v1h-27zm27 0h1v4h-1zm1 0h1v1h-1zm-131 1h1v1h-1zm1 0h1v1h-1zm1 0h23v1h-23zm23 0h1v1h-1zm1 0h1v1h-1zm77 0h1v1h-1zm1 0h1v1h-1zm1 0h25v1h-25zm26 0h1v1h-1zm-131 1h1v1h-1zm1 0h23v1h-23zm23 0h1v1h-1zm1 0h1v1h-1zm79 0h1v1h-1zm1 0h1v1h-1zm1 0h24v1h-24zm25 0h1v1h-1zm-132 1h1v1h-1zm1 0h1v1h-1zm1 0h22v1h-22zm22 0h1v1h-1zm1 0h1v1h-1zm81 0h1v1h-1zm1 0h1v1h-1zm1 0h23v1h-23zm24 0h1v1h-1zm-132 1h1v1h-1zm1 0h22v2h-22zm22 0h1v1h-1zm1 0h1v1h-1zm1 0h1v1h-1zm82 0h1v1h-1zm1 0h1v1h-1zm1 0h22v1h-22zm22 0h1v1h-1zm1 0h1v1h-1zm-132 1h1v1h-1zm23 0h1v1h-1zm1 0h1v1h-1zm85 0h1v1h-1zm1 0h20v1h-20zm21 0h1v1h-1zm1 0h1v1h-1zm-133 1h1v1h-1zm1 0h22v2h-22zm22 0h1v1h-1zm1 0h1v1h-1zm87 0h1v1h-1zm1 0h19v1h-19zm19 0h1v1h-1zm1 0h1v1h-1zm-132 1h1v1h-1zm23 0h1v1h-1zm1 0h1v1h-1zm88 0h1v1h-1zm1 0h17v1h-17zm18 0h1v1h-1zm1 0h1v1h-1zm-132 1h1v1h-1zm1 0h21v3h-21zm21 0h1v1h-1zm1 0h1v1h-1zm90 0h1v1h-1zm1 0h16v1h-16zm16 0h1v1h-1zm1 0h1v1h-1zm-132 1h1v1h-1z"/><path d="M210 129h21v6h-21zm22 0h1v1h-1zm1 0h1v1h-1zm91 0h1v1h-1zm1 0h14v1h-14zm14 0h1v1h-1zm1 0h1v1h-1zm1 0h1v1h-1zm-132 1h1v1h-1zm23 0h1v1h-1zm92 0h1v1h-1zm1 0h1v1h-1zm1 0h12v1h-12zm12 0h1v1h-1zm1 0h1v1h-1zm1 0h1v1h-1zm-131 1h1v1h-1zm22 0h1v1h-1zm1 0h1v1h-1zm94 0h1v1h-1zm1 0h1v1h-1zm1 0h9v1h-9zm9 0h1v1h-1zm1 0h1v1h-1zm1 0h1v1h-1zm-130 1h1v1h-1zm22 0h1v1h-1zm1 0h1v1h-1zm95 0h1v1h-1zm1 0h1v1h-1zm1 0h1v1h-1zm1 0h4v1h-4zm4 0h1v1h-1zm1 0h1v1h-1zm1 0h1v1h-1zm1 0h1v1h-1zm1 0h1v1h-1zm-130 1h1v1h-1zm1 0h1v1h-1zm22 0h1v1h-1zm98 0h1v1h-1zm1 0h1v1h-1zm1 0h1v1h-1zm1 0h1v1h-1zm1 0h1v1h-1zm1 0h1v1h-1zm1 0h1v1h-1zm-127 1h1v1h-1z"/><path d="M209 134h21v20h-21zm22 0h1v1h-1zm-23 1h1v1h-1zm22 0h1v1h-1zm1 0h1v1h-1zm-23 1h1v1h-1zm22 0h1v1h-1zm1 0h1v1h-1zm-23 1h1v1h-1zm22 0h1v1h-1zm-22 1h1v1h-1zm22 0h1v1h-1zm-22 1h1v1h-1zm22 0h1v1h-1zm-22 1h1v1h-1zm22 0h1v1h-1zm-22 1h1v1h-1zm22 0h1v1h-1z"/><path d="M208 142h21v3h-21zm22 0h1v1h-1zm0 1h1v1h-1zm0 1h1v1h-1zm-22 1h21v1h-21zm22 0h1v1h-1zm-22 1h1v1h-1zm22 0h1v1h-1zm-22 1h1v1h-1zm22 0h1v1h-1zm-22 1h1v1h-1zm22 0h1v36h-1zm1 0h1v1h-1zm-23 1h1v1h-1zm23 0h1v1h-1zm-23 1h1v1h-1zm23 0h1v1h-1zm-23 1h1v1h-1zm23 0h1v1h-1zm226 0h1v1h-1zm1 0h9v1h-9zm9 0h1v1h-1zm1 0h1v1h-1zm1 0h40v1h-40zm40 0h1v1h-1zm1 0h1v1h-1zm1 0h40v1h-40zm40 0h1v1h-1zm1 0h1v1h-1zm1 0h40v1h-40zm40 0h1v1h-1zm1 0h1v1h-1zm1 0h10v1h-10zm10 0h1v1h-1zm1 0h1v1h-1zm-398 1h1v1h-1zm23 0h1v32h-1zm1 0h1v1h-1zm225 0h1v15h-1zm1 0h147v20H458zm147 0h1v20h-1zm1 0h1v20h-1zm-398 1h1v1h-1zm24 0h1v1h-1zm-24 1h1v1h-1z"/><path d="M209 154h22v1h-22zm23 0h1v1h-1zm1 0h1v1h-1zm-24 1h1v1h-1zm1 0h22v3h-22zm22 0h1v30h-1zm1 0h1v1h-1zm-24 1h1v1h-1zm24 0h1v1h-1zm1 0h1v1h-1zm-25 1h1v1h-1zm24 0h1v28h-1zm1 0h1v1h-1zm-25 1h1v1h-1z"/><path d="M210 158h23v1h-23zm24 0h1v1h-1zm1 0h1v1h-1zm-26 1h1v1h-1zm1 0h1v1h-1zm1 0h23v2h-23zm23 0h1v27h-1zm1 0h1v1h-1zm1 0h1v1h-1zm-26 1h1v1h-1zm25 0h1v27h-1zm1 0h1v1h-1zm1 0h1v1h-1zm-27 1h1v1h-1z"/><path d="M211 161h25v1h-25zm25 0h1v26h-1zm1 0h1v1h-1zm-27 1h1v1h-1zm1 0h1v1h-1z"/><path d="M212 162h25v2h-25zm25 0h1v26h-1zm1 0h1v1h-1zm-27 1h1v1h-1zm27 0h1v25h-1zm1 0h1v1h-1zm1 0h1v1h-1zm-29 1h1v1h-1z"/><path d="M212 164h27v1h-27zm27 0h1v25h-1zm1 0h1v1h-1zm1 0h1v1h-1zm-29 1h1v1h-1z"/><path d="M213 165h27v1h-27zm27 0h1v24h-1zm1 0h1v1h-1zm1 0h1v1h-1zm-30 1h1v1h-1z"/><path d="M213 166h28v1h-28zm28 0h1v24h-1zm1 0h1v1h-1zm1 0h1v1h-1zm1 0h1v1h-1zm-31 1h1v1h-1z"/><path d="M214 167h29v1h-29zm29 0h1v24h-1zm1 0h1v1h-1zm1 0h1v1h-1zm212 0h1v1h-1zm-244 1h1v1h-1z"/><path d="M214 168h31v1h-31zm31 0h1v24h-1zm1 0h1v1h-1zm1 0h1v1h-1zm210 0h1v1h-1zm-243 1h1v1h-1z"/><path d="M215 169h31v1h-31zm31 0h1v23h-1zm1 0h1v1h-1zm1 0h1v1h-1zm1 0h1v1h-1zm208 0h1v3h-1zm-243 1h1v1h-1zm1 0h1v1h-1z"/><path d="M216 170h32v1h-32zm32 0h1v23h-1zm1 0h1v1h-1zm1 0h1v1h-1zm1 0h1v1h-1zm-36 1h1v1h-1z"/><path d="M216 171h34v1h-34zm34 0h1v23h-1zm1 0h1v1h-1zm1 0h1v1h-1zm1 0h1v1h-1zm-38 1h1v1h-1zm1 0h1v1h-1z"/><path d="M217 172h35v1h-35zm35 0h1v23h-1zm1 0h1v1h-1zm1 0h1v1h-1zm1 0h1v1h-1zm202 0h1v1h-1zm1 0h147v1H458zm147 0h1v1h-1zm1 0h1v1h-1zm-390 1h1v1h-1zm1 0h1v1h-1z"/><path d="M218 173h37v1h-37zm37 0h1v23h-1zm1 0h1v1h-1zm1 0h1v1h-1zm1 0h1v1h-1zm199 0h1v1h-1zm1 0h1v1h-1zm1 0h1v1h-1zm1 0h1v1h-1zm1 0h40v1h-40zm40 0h1v1h-1zm1 0h1v1h-1zm1 0h40v1h-40zm40 0h1v1h-1zm1 0h1v1h-1zm1 0h40v1h-40zm40 0h1v1h-1zm1 0h1v1h-1zm1 0h18v1h-18zm18 0h1v1h-1zm1 0h1v1h-1zm-389 1h1v1h-1zm1 0h1v1h-1z"/><path d="M219 174h38v1h-38zm38 0h1v22h-1zm1 0h1v1h-1zm1 0h1v1h-1zm1 0h1v1h-1zm-42 1h1v1h-1z"/><path d="M219 175h41v1h-41zm41 0h1v23h-1zm1 0h1v1h-1zm1 0h1v1h-1zm1 0h1v1h-1zm-44 1h1v1h-1z"/><path d="M220 176h42v1h-42zm42 0h1v22h-1zm1 0h1v1h-1zm1 0h1v1h-1zm1 0h1v1h-1zm1 0h1v1h-1zm-46 1h1v1h-1z"/><path d="M221 177h44v1h-44zm44 0h1v22h-1zm1 0h1v1h-1zm1 0h1v1h-1zm1 0h1v1h-1zm1 0h1v1h-1zm-48 1h1v1h-1z"/><path d="M222 178h46v1h-46zm46 0h1v22h-1zm1 0h1v1h-1zm1 0h1v1h-1zm1 0h1v1h-1zm1 0h1v1h-1zm-50 1h1v1h-1zm1 0h1v1h-1z"/><path d="M224 179h47v1h-47zm47 0h1v22h-1zm1 0h1v1h-1zm1 0h1v1h-1zm1 0h1v1h-1zm1 0h1v1h-1zm-52 1h1v1h-1zm1 0h1v1h-1z"/><path d="M225 180h50v1h-50zm50 0h1v22h-1zm1 0h1v1h-1zm1 0h1v1h-1zm1 0h1v1h-1zm1 0h1v1h-1zm-55 1h1v1h-1zm1 0h1v1h-1z"/><path d="M226 181h52v1h-52zm52 0h1v22h-1zm1 0h1v1h-1zm1 0h1v1h-1zm1 0h1v1h-1zm1 0h1v1h-1zm1 0h1v1h-1zm-58 1h1v1h-1zm1 0h1v1h-1z"/><path d="M227 182h55v1h-55zm55 0h1v22h-1zm1 0h1v1h-1zm1 0h1v1h-1zm1 0h1v1h-1zm1 0h1v1h-1zm-59 1h1v1h-1zm1 0h1v1h-1z"/><path d="M229 183h57v1h-57zm57 0h1v22h-1zm1 0h1v1h-1zm1 0h1v1h-1zm1 0h1v1h-1zm1 0h1v1h-1zm-62 1h1v1h-1zm1 0h1v1h-1z"/><path d="M230 184h59v1h-59zm59 0h1v22h-1zm1 0h1v1h-1zm1 0h1v1h-1zm1 0h1v1h-1zm1 0h1v1h-1zm1 0h1v1h-1zm-64 1h1v1h-1zm1 0h1v1h-1z"/><path d="M232 185h61v1h-61zm61 0h1v22h-1zm1 0h1v1h-1zm1 0h1v1h-1zm1 0h1v1h-1zm1 0h1v1h-1zm-66 1h1v1h-1zm1 0h1v1h-1zm1 0h1v1h-1z"/><path d="M234 186h62v1h-62zm62 0h1v22h-1zm1 0h1v1h-1zm1 0h1v1h-1zm1 0h1v1h-1zm1 0h1v1h-1zm-67 1h1v1h-1zm1 0h1v1h-1z"/><path d="M235 187h64v1h-64zm64 0h1v23h-1zm1 0h1v1h-1zm1 0h1v1h-1zm1 0h1v1h-1zm1 0h1v1h-1zm-69 1h1v1h-1zm1 0h1v1h-1zm1 0h1v1h-1z"/><path d="M237 188h65v1h-65zm65 0h1v23h-1zm1 0h1v1h-1zm1 0h1v1h-1zm1 0h1v1h-1zm1 0h1v1h-1zm-70 1h1v1h-1zm1 0h1v1h-1zm1 0h1v1h-1z"/><path d="M239 189h66v1h-66zm66 0h1v23h-1zm1 0h1v1h-1zm1 0h1v1h-1zm1 0h1v1h-1zm1 0h1v1h-1zm-71 1h1v1h-1zm1 0h1v1h-1zm1 0h1v1h-1z"/><path d="M241 190h67v1h-67zm67 0h1v24h-1zm1 0h1v1h-1zm1 0h1v1h-1zm1 0h1v1h-1zm-71 1h1v1h-1zm1 0h1v1h-1zm1 0h1v1h-1z"/><path d="M243 191h67v1h-67zm67 0h1v24h-1zm1 0h1v1h-1zm1 0h1v1h-1zm1 0h1v1h-1zm1 0h1v1h-1zm-72 1h1v1h-1zm1 0h1v1h-1zm1 0h1v1h-1z"/><path d="M245 192h68v1h-68zm68 0h1v25h-1zm1 0h1v1h-1zm1 0h1v1h-1zm1 0h1v1h-1zm-72 1h1v1h-1zm1 0h1v1h-1zm1 0h1v1h-1z"/><path d="M247 193h68v1h-68zm68 0h1v25h-1zm1 0h1v1h-1zm1 0h1v1h-1zm1 0h1v1h-1zm-71 1h1v1h-1zm1 0h1v1h-1zm1 0h1v1h-1z"/><path d="M250 194h67v1h-67zm67 0h1v26h-1zm1 0h1v1h-1zm1 0h1v1h-1zm1 0h1v1h-1zm-71 1h1v1h-1zm1 0h1v1h-1zm1 0h1v1h-1z"/><path d="M252 195h67v1h-67zm67 0h1v27h-1zm1 0h1v1h-1zm1 0h1v1h-1zm1 0h1v1h-1zm-70 1h1v1h-1zm1 0h1v1h-1zm1 0h1v1h-1z"/><path d="M255 196h66v1h-66zm66 0h1v28h-1zm1 0h1v1h-1zm1 0h1v1h-1zm1 0h1v1h-1zm-70 1h1v1h-1zm1 0h1v1h-1zm1 0h1v1h-1zm1 0h1v1h-1z"/><path d="M258 197h65v1h-65zm65 0h1v30h-1zm1 0h1v1h-1zm1 0h1v1h-1zm-68 1h1v1h-1zm1 0h1v1h-1zm1 0h1v1h-1z"/><path d="M260 198h64v1h-64zm64 0h1v31h-1zm1 0h1v1h-1zm1 0h1v1h-1zm1 0h1v1h-1zm-67 1h1v1h-1zm1 0h1v1h-1zm1 0h1v1h-1z"/><path d="M263 199h63v1h-63zm63 0h1v38h-1zm1 0h1v1h-1zm1 0h1v1h-1zm-65 1h1v1h-1zm1 0h1v1h-1zm1 0h1v1h-1zm1 0h1v1h-1z"/><path d="M267 200h60v1h-60zm60 0h1v81h-1zm1 0h1v1h-1zm1 0h1v1h-1zm-63 1h1v1h-1zm1 0h1v1h-1zm1 0h1v1h-1zm1 0h1v1h-1z"/><path d="M270 201h58v1h-58zm58 0h1v80h-1zm1 0h1v1h-1zm1 0h1v1h-1zm-61 1h1v1h-1zm1 0h1v1h-1zm1 0h1v1h-1zm1 0h1v1h-1zm1 0h1v1h-1z"/><path d="M274 202h56v1h-56zm56 0h1v77h-1zm1 0h1v1h-1zm1 0h1v1h-1zm-59 1h1v1h-1zm1 0h1v1h-1zm1 0h1v1h-1zm1 0h1v1h-1z"/><path d="M277 203h54v1h-54zm54 0h1v75h-1zm1 0h1v1h-1zm1 0h1v1h-1zm-56 1h1v1h-1zm1 0h1v1h-1zm1 0h1v1h-1zm1 0h1v1h-1z"/><path d="M281 204h51v1h-51zm51 0h1v73h-1zm1 0h1v1h-1zm1 0h1v1h-1zm-54 1h1v1h-1zm1 0h1v1h-1zm1 0h1v1h-1zm1 0h1v1h-1zm1 0h1v1h-1z"/><path d="M285 205h48v1h-48zm48 0h1v71h-1zm1 0h1v1h-1zm1 0h1v1h-1zm-51 1h1v1h-1zm1 0h1v1h-1zm1 0h1v1h-1zm1 0h1v1h-1z"/><path d="M288 206h46v1h-46zm46 0h1v69h-1zm1 0h1v1h-1zm1 0h1v1h-1zm-49 1h1v1h-1zm1 0h1v1h-1zm1 0h1v1h-1zm1 0h1v1h-1z"/><path d="M291 207h44v1h-44zm44 0h1v67h-1zm1 0h1v1h-1zm1 0h1v1h-1zm-47 1h1v1h-1zm1 0h1v1h-1zm1 0h1v1h-1zm1 0h1v1h-1z"/><path d="M294 208h42v1h-42zm42 0h1v65h-1zm1 0h1v1h-1zm-44 1h1v1h-1zm1 0h1v1h-1zm1 0h1v1h-1zm1 0h1v1h-1z"/><path d="M297 209h40v1h-40zm40 0h1v63h-1zm1 0h1v1h-1zm-42 1h1v1h-1zm1 0h1v1h-1zm1 0h1v1h-1zm1 0h38v1h-38zm39 0h1v1h-1zm1 0h1v1h-1zm-41 1h1v1h-1zm1 0h1v1h-1zm1 0h1v1h-1zm1 0h1v1h-1z"/><path d="M302 211h36v1h-36zm36 0h1v60h-1zm1 0h1v1h-1zm1 0h1v1h-1zm-39 1h1v1h-1zm1 0h1v1h-1zm1 0h1v1h-1z"/><path d="M304 212h35v1h-35zm35 0h1v57h-1zm1 0h1v1h-1zm-37 1h1v1h-1zm1 0h1v1h-1zm1 0h1v1h-1z"/><path d="M306 213h34v1h-34zm34 0h1v55h-1zm1 0h1v1h-1zm-36 1h1v1h-1zm1 0h1v1h-1zm1 0h1v1h-1zm1 0h32v1h-32zm33 0h1v1h-1zm1 0h1v1h-1zm-35 1h1v1h-1zm1 0h1v1h-1zm1 0h1v1h-1z"/><path d="M310 215h31v1h-31zm31 0h1v51h-1zm1 0h1v1h-1zm-33 1h1v1h-1zm1 0h1v1h-1zm1 0h1v1h-1zm1 0h29v1h-29zm30 0h1v1h-1zm1 0h1v1h-1zm-32 1h1v1h-1zm1 0h1v1h-1z"/><path d="M313 217h29v1h-29zm29 0h1v47h-1zm1 0h1v1h-1zm-30 1h1v1h-1zm1 0h1v1h-1zm1 0h27v1h-27zm28 0h1v1h-1zm1 0h1v1h-1zm-30 1h1v1h-1zm1 0h1v1h-1z"/><path d="M316 219h27v1h-27zm27 0h1v43h-1zm1 0h1v1h-1zm-29 1h1v1h-1zm1 0h1v1h-1zm1 0h26v1h-26zm27 0h1v1h-1zm-27 1h1v1h-1z"/><path d="M318 221h26v1h-26zm26 0h1v39h-1zm1 0h1v1h-1zm-27 1h1v1h-1zm1 0h25v1h-25zm26 0h1v1h-1zm-26 1h1v1h-1zm1 0h24v1h-24zm25 0h1v1h-1zm-25 1h1v1h-1z"/><path d="M321 224h24v1h-24zm24 0h1v33h-1zm1 0h1v1h-1zm-26 1h1v1h-1zm1 0h1v1h-1zm1 0h23v1h-23zm24 0h1v1h-1zm-25 1h1v1h-1zm1 0h1v1h-1zm3 0h20v6h-20zm21 0h1v1h-1zm-24 1h1v1h-1z"/><path d="M323 227h22v1h-22zm23 0h1v1h-1zm-24 1h1v1h-1zm1 0h1v1h-1zm23 0h1v25h-1zm1 0h1v1h-1zm-24 1h1v1h-1zm1 0h22v1h-22zm23 0h1v1h-1zm-24 1h1v1h-1zm1 0h1v1h-1zm23 0h1v1h-1zm-23 1h1v1h-1zm23 0h1v1h-1zm-23 1h1v1h-1zm1 0h21v1h-21zm22 0h1v1h-1zm-23 1h1v1h-1zm1 0h1v1h-1zm4 0h17v24h-17zm18 0h1v1h-1zm-22 1h1v1h-1zm22 0h1v1h-1zm1 0h1v1h-1zm-23 1h1v1h-1zm22 0h1v13h-1zm1 0h1v1h-1zm-23 1h1v1h-1zm23 0h1v1h-1zm-23 1h1v1h-1z"/><path d="M326 237h21v1h-21zm22 0h1v1h-1zm-22 1h1v1h-1zm22 0h1v1h-1zm-22 1h1v1h-1zm22 0h1v1h-1zm-22 1h1v1h-1zm22 0h1v1h-1zm-22 1h1v1h-1zm22 0h1v1h-1zm-22 1h1v1h-1zm22 0h1v1h-1zm-143 1h1v1h-1zm1 0h1v1h-1zm1 0h1v1h-1zm1 0h1v1h-1zm1 0h1v1h-1zm1 0h1v1h-1zm1 0h1v1h-1zm1 0h1v1h-1zm1 0h1v1h-1zm113 0h1v1h-1zm22 0h1v1h-1zm-145 1h1v1h-1zm1 0h1v1h-1zm1 0h1v1h-1zm1 0h7v22h-7zm7 0h1v29h-1zm1 0h1v1h-1zm1 0h1v1h-1zm111 0h1v1h-1zm22 0h1v1h-1zm-146 1h1v1h-1zm1 0h1v1h-1z"/><path d="M204 245h10v19h-10zm10 0h1v29h-1zm1 0h1v1h-1zm1 0h1v1h-1zm110 0h1v1h-1zm22 0h1v1h-1zm-147 1h1v1h-1zm1 0h1v1h-1z"/><path d="M203 246h13v17h-13zm13 0h1v30h-1zm1 0h1v1h-1zm1 0h1v1h-1zm108 0h1v1h-1zm22 0h1v1h-1zm-222 1h1v1h-1zm74 0h1v1h-1z"/><path d="M201 247h16v13h-16zm16 0h1v30h-1zm1 0h1v1h-1zm108 0h1v1h-1zm22 0h1v1h-1zm-222 1h1v1h-1zm73 0h1v1h-1z"/><path d="M200 248h18v10h-18zm18 0h1v30h-1zm1 0h1v1h-1zm106 0h1v1h-1zm1 0h1v1h-1zm21 0h1v1h-1zm1 0h1v1h-1zm-245 1h1v1h-1zm23 0h1v1h-1zm72 0h1v1h-1zm1 0h1v1h-1zm20 0h1v1h-1zm1 0h1v1h-1zm105 0h1v1h-1zm1 0h20v8h-20zm21 0h1v1h-1zm-244 1h1v1h-1zm23 0h1v1h-1zm72 0h1v1h-1z"/><path d="M199 250h20v6h-20zm20 0h1v28h-1zm1 0h1v1h-1zm1 0h1v1h-1zm104 0h1v1h-1zm22 0h1v1h-1zm-244 1h1v1h-1zm23 0h1v39h-1zm1 0h1v1h-1zm71 0h1v1h-1zm22 0h1v28h-1zm1 0h1v1h-1zm1 0h1v1h-1zm103 0h1v1h-1zm22 0h1v1h-1zm-244 1h1v1h-1zm24 0h1v1h-1zm71 0h1v1h-1zm23 0h1v28h-1zm1 0h1v1h-1zm1 0h1v1h-1zm102 0h1v1h-1zm22 0h1v1h-1zm-244 1h1v1h-1zm24 0h1v1h-1zm71 0h1v1h-1zm24 0h1v27h-1zm1 0h1v1h-1zm101 0h1v1h-1zm1 0h21v4h-21zm21 0h1v1h-1zm1 0h1v1h-1zm-244 1h1v1h-1zm24 0h1v1h-1zm71 0h1v1h-1zm25 0h1v27h-1zm1 0h1v1h-1zm100 0h1v1h-1zm22 0h1v1h-1zm1 0h1v1h-1zm-244 1h1v1h-1zm24 0h1v1h-1zm71 0h1v1h-1zm26 0h1v27h-1zm1 0h1v1h-1zm98 0h1v1h-1zm1 0h1v1h-1zm22 0h1v1h-1zm-243 1h1v1h-1zm24 0h1v1h-1zm71 0h1v1h-1z"/><path d="M199 256h26v1h-26zm26 0h1v26h-1zm1 0h1v1h-1zm97 0h1v1h-1zm1 0h21v4h-21zm22 0h1v1h-1zm-243 1h1v1h-1zm24 0h1v1h-1zm71 0h1v1h-1zm1 0h1v1h-1zm27 0h1v26h-1zm1 0h1v1h-1zm95 0h1v1h-1zm1 0h1v1h-1zm22 0h1v1h-1zm1 0h1v1h-1zm-243 1h1v1h-1zm24 0h1v1h-1zm72 0h1v1h-1z"/><path d="M200 258h27v1h-27zm27 0h1v26h-1zm1 0h1v1h-1zm1 0h1v1h-1zm93 0h1v1h-1zm1 0h21v4h-21zm22 0h1v1h-1zm1 0h1v1h-1zm-243 1h1v1h-1zm1 0h23v1h-23zm23 0h1v32h-1zm1 0h1v1h-1zm71 0h1v1h-1zm1 0h1v1h-1zm28 0h1v25h-1zm1 0h1v1h-1zm1 0h1v1h-1zm91 0h1v1h-1zm1 0h1v1h-1zm23 0h1v1h-1zm-242 1h1v1h-1zm1 0h1v1h-1zm24 0h1v1h-1zm72 0h1v1h-1z"/><path d="M201 260h28v1h-28zm28 0h1v25h-1zm1 0h1v1h-1zm1 0h1v1h-1zm90 0h1v1h-1zm1 0h22v2h-22zm22 0h1v1h-1zm1 0h1v1h-1zm-241 1h1v1h-1zm24 0h1v1h-1zm72 0h1v1h-1zm1 0h1v1h-1z"/><path d="M202 261h28v1h-28zm28 0h1v24h-1zm1 0h1v1h-1zm1 0h1v1h-1zm88 0h1v1h-1zm1 0h22v3h-22zm23 0h1v1h-1zm-240 1h1v1h-1zm24 0h1v1h-1zm1 0h1v1h-1zm72 0h1v1h-1z"/><path d="M202 262h29v1h-29zm29 0h1v24h-1zm1 0h1v1h-1zm1 0h1v1h-1zm86 0h1v1h-1zm1 0h1v1h-1zm23 0h1v1h-1zm1 0h1v1h-1zm-240 1h1v1h-1zm24 0h1v28h-1zm1 0h1v1h-1zm73 0h1v1h-1z"/><path d="M203 263h29v1h-29zm29 0h1v23h-1zm1 0h1v1h-1zm1 0h1v1h-1zm1 0h1v1h-1zm83 0h1v1h-1zm1 0h1v1h-1zm1 0h22v3h-22zm23 0h1v1h-1zm1 0h1v1h-1zm-240 1h1v1h-1zm25 0h1v1h-1zm1 0h1v1h-1zm72 0h1v1h-1zm1 0h1v1h-1z"/><path d="M204 264h30v1h-30zm30 0h1v23h-1zm1 0h1v1h-1zm1 0h1v1h-1zm81 0h1v1h-1zm1 0h1v1h-1zm1 0h23v2h-23zm23 0h1v1h-1zm1 0h1v1h-1zm-239 1h1v1h-1zm1 0h24v1h-24zm24 0h1v26h-1zm1 0h1v1h-1zm73 0h1v1h-1zm1 0h1v1h-1z"/><path d="M205 265h30v1h-30zm30 0h1v23h-1zm1 0h1v1h-1zm1 0h1v1h-1zm79 0h1v1h-1zm1 0h1v1h-1zm1 0h23v3h-23zm24 0h1v1h-1zm1 0h1v1h-1zm-239 1h1v1h-1zm1 0h1v1h-1zm25 0h1v1h-1zm1 0h1v1h-1zm73 0h1v1h-1zm1 0h1v1h-1z"/><path d="M206 266h31v1h-31zm31 0h1v23h-1zm1 0h1v1h-1zm1 0h1v1h-1zm76 0h1v1h-1zm1 0h1v1h-1zm1 0h24v2h-24zm24 0h1v1h-1zm1 0h1v1h-1zm-237 1h1v1h-1zm25 0h1v24h-1zm1 0h1v1h-1zm1 0h1v1h-1zm73 0h1v1h-1zm1 0h1v1h-1z"/><path d="M207 267h31v1h-31zm31 0h1v22h-1zm1 0h1v1h-1zm1 0h1v1h-1zm1 0h1v1h-1zm72 0h1v1h-1zm1 0h1v1h-1zm1 0h1v1h-1zm1 0h24v2h-24zm25 0h1v1h-1zm1 0h1v1h-1zm-237 1h1v1h-1zm26 0h1v24h-1zm1 0h1v1h-1zm1 0h1v1h-1zm73 0h1v1h-1zm1 0h1v1h-1z"/><path d="M208 268h32v1h-32zm32 0h1v22h-1zm1 0h1v1h-1zm1 0h1v1h-1zm70 0h1v1h-1zm1 0h1v1h-1zm1 0h26v1h-26zm26 0h1v1h-1zm1 0h1v1h-1zm310 0h1v1h-1zm1 0h27v1h-27zm27 0h1v1h-1zm1 0h1v1h-1zm1 0h40v1h-40zm40 0h1v1h-1zm1 0h40v1h-40zm40 0h1v1h-1zm1 0h1v1h-1zm1 0h35v1h-35zm35 0h1v1h-1zm-694 1h1v1h-1zm1 0h26v1h-26zm26 0h1v23h-1zm1 0h1v1h-1zm1 0h1v1h-1zm1 0h1v1h-1zm72 0h1v1h-1zm1 0h1v1h-1z"/><path d="M209 269h33v1h-33zm33 0h1v22h-1zm1 0h1v1h-1zm1 0h1v1h-1zm66 0h1v1h-1zm1 0h1v1h-1zm1 0h1v1h-1zm1 0h26v2h-26zm26 0h1v1h-1zm1 0h1v1h-1zm311 0h1v17h-1zm1 0h147v20H652zm147 0h1v20h-1zm-694 1h1v1h-1zm1 0h1v1h-1zm27 0h1v22h-1zm1 0h1v22h-1zm1 0h1v1h-1zm1 0h1v1h-1zm72 0h1v1h-1zm1 0h1v1h-1z"/><path d="M210 270h34v1h-34zm34 0h1v21h-1zm1 0h1v1h-1zm1 0h1v1h-1zm63 0h1v1h-1zm1 0h1v1h-1zm1 0h27v2h-27zm28 0h1v1h-1zm1 0h1v1h-1zm-234 1h1v1h-1zm29 0h1v21h-1zm1 0h1v21h-1zm1 0h1v1h-1zm1 0h1v1h-1zm1 0h1v1h-1zm14 0h1v1h-1zm1 0h1v1h-1zm1 0h1v1h-1zm1 0h1v1h-1zm1 0h1v1h-1zm1 0h1v1h-1zm1 0h1v1h-1zm1 0h1v1h-1zm1 0h1v1h-1zm48 0h1v1h-1zm1 0h1v1h-1z"/><path d="M211 271h35v1h-35zm35 0h1v21h-1zm1 0h1v1h-1zm1 0h1v1h-1zm1 0h1v1h-1zm58 0h1v1h-1zm1 0h1v1h-1zm1 0h29v1h-29zm29 0h1v1h-1zm1 0h1v1h-1zm-233 1h1v1h-1zm1 0h31v1h-31zm31 0h1v20h-1zm1 0h1v1h-1zm1 0h1v1h-1zm1 0h1v1h-1zm1 0h1v1h-1zm1 0h1v1h-1zm1 0h1v1h-1zm4 0h1v1h-1zm1 0h1v1h-1zm1 0h1v1h-1zm1 0h1v1h-1zm1 0h1v1h-1zm1 0h7v17h-7zm7 0h1v17h-1zm1 0h1v1h-1zm1 0h1v1h-1zm1 0h1v1h-1zm47 0h1v1h-1zm1 0h1v1h-1z"/><path d="M212 272h36v1h-36zm36 0h1v21h-1zm1 0h1v1h-1zm1 0h1v1h-1zm1 0h1v1h-1zm53 0h1v1h-1zm1 0h1v1h-1zm1 0h1v1h-1zm1 0h30v1h-30zm30 0h1v1h-1zm1 0h1v1h-1zm-232 1h1v1h-1zm1 0h1v1h-1zm30 0h7v19h-7zm7 0h1v20h-1zm1 0h2v1h-2zm2 0h1v1h-1zm1 0h1v1h-1zm1 0h13v15h-13zm13 0h1v14h-1zm1 0h1v1h-1zm1 0h1v1h-1zm47 0h1v1h-1zm1 0h1v1h-1z"/><path d="M213 273h37v1h-37zm37 0h1v20h-1zm1 0h1v1h-1zm1 0h1v1h-1zm1 0h1v1h-1zm1 0h1v1h-1zm48 0h1v1h-1zm1 0h1v1h-1zm1 0h1v1h-1zm1 0h31v1h-31zm31 0h1v1h-1zm1 0h1v1h-1zm1 0h1v1h-1zm-231 1h1v1h-1zm1 0h55v1h-55zm55 0h1v12h-1zm1 0h1v1h-1zm48 0h1v1h-1zm1 0h1v1h-1z"/><path d="M214 274h39v1h-39zm39 0h1v20h-1zm1 0h1v1h-1zm1 0h1v1h-1zm1 0h1v1h-1zm1 0h1v1h-1zm42 0h1v1h-1zm1 0h1v1h-1zm1 0h1v1h-1zm1 0h1v1h-1zm1 0h32v1h-32zm32 0h1v1h-1zm1 0h1v1h-1zm1 0h1v1h-1zm-230 1h1v1h-1zm1 0h1v1h-1zm37 0h19v11h-19zm19 0h1v10h-1zm1 0h1v1h-1zm48 0h1v1h-1zm1 0h1v1h-1z"/><path d="M215 275h42v1h-42zm42 0h1v20h-1zm1 0h1v1h-1zm1 0h1v1h-1zm1 0h1v1h-1zm1 0h1v1h-1zm34 0h1v1h-1zm1 0h1v1h-1zm1 0h1v1h-1zm1 0h1v1h-1zm1 0h1v1h-1zm1 0h34v1h-34zm34 0h1v1h-1zm1 0h1v1h-1zm1 0h1v1h-1zm-228 1h1v1h-1zm1 0h55v1h-55zm56 0h1v1h-1zm1 0h1v1h-1zm48 0h1v1h-1zm1 0h1v1h-1z"/><path d="M216 276h45v1h-45zm45 0h1v19h-1zm1 0h1v1h-1zm1 0h1v1h-1zm1 0h1v1h-1zm1 0h1v1h-1zm1 0h1v1h-1zm1 0h1v1h-1zm23 0h1v1h-1zm1 0h1v1h-1zm1 0h1v1h-1zm1 0h1v1h-1zm1 0h1v1h-1zm1 0h1v1h-1zm1 0h37v1h-37zm37 0h1v1h-1zm1 0h1v1h-1zm1 0h1v1h-1zm-227 1h1v1h-1zm1 0h1v1h-1zm1 0h55v1h-55zm55 0h1v7h-1zm1 0h1v1h-1zm49 0h1v1h-1zm1 0h1v1h-1z"/><path d="M217 277h50v1h-50zm50 0h1v19h-1zm1 0h1v1h-1zm1 0h1v1h-1zm1 0h1v1h-1zm1 0h1v1h-1zm1 0h1v1h-1zm1 0h1v1h-1zm1 0h1v1h-1zm1 0h1v1h-1zm1 0h1v1h-1zm1 0h1v1h-1zm1 0h2v1h-2zm2 0h1v1h-1zm1 0h1v1h-1zm1 0h1v1h-1zm1 0h1v1h-1zm1 0h1v1h-1zm1 0h1v1h-1zm1 0h1v1h-1zm1 0h1v1h-1zm1 0h1v1h-1zm1 0h1v1h-1zm1 0h1v1h-1zm1 0h41v1h-41zm41 0h1v1h-1zm1 0h1v1h-1zm1 0h1v1h-1zm-225 1h1v1h-1zm1 0h55v1h-55zm56 0h1v1h-1zm50 0h1v1h-1zm1 0h1v1h-1z"/><path d="M218 278h113v1H218zm113 0h1v1h-1zm1 0h1v1h-1zm1 0h1v1h-1zm-223 1h1v1h-1zm1 0h54v1h-54zm55 0h1v1h-1zm52 0h1v1h-1zm1 0h1v1h-1zm1 0h110v1H220zm110 0h1v1h-1zm1 0h1v1h-1zm1 0h1v1h-1zm-222 1h1v1h-1zm1 0h1v1h-1zm1 0h53v1h-53zm54 0h1v1h-1zm53 0h1v1h-1zm1 0h1v1h-1zm1 0h108v1H221zm108 0h1v1h-1zm1 0h1v1h-1zm1 0h1v1h-1zm-307 1h1v1h-1zm87 0h1v1h-1zm1 0h1v1h-1zm1 0h52v1h-52zm53 0h1v1h-1zm54 0h1v1h-1zm1 0h1v1h-1zm1 0h1v1h-1zm1 0h105v1H223zm105 0h1v1h-1zm1 0h1v1h-1zm1 0h1v1h-1zM1 282h22v1H1zm23 0h1v1h-1zm88 0h1v1h-1zm1 0h1v1h-1zm1 0h51v1h-51zm52 0h1v1h-1zm56 0h1v1h-1zm1 0h1v1h-1zm1 0h102v1H224zm102 0h1v1h-1zm1 0h1v1h-1zm1 0h1v1h-1zm59 0h1v1h-1zm24 0h1v1h-1zM1 283h1v1H1zm23 0h1v1h-1zm89 0h1v1h-1zm1 0h1v1h-1zm1 0h50v1h-50zm51 0h1v1h-1zm57 0h1v1h-1zm1 0h1v1h-1zm1 0h1v1h-1zm1 0h99v1h-99zm99 0h1v1h-1zm1 0h1v1h-1zm1 0h1v1h-1zm60 0h1v1h-1zm1 0h22v1h-22zm23 0h1v1h-1zM1 284h1v1H1zm23 0h1v1h-1zm90 0h1v1h-1zm1 0h50v1h-50zm50 0h1v1h-1zm1 0h1v1h-1zm59 0h1v1h-1zm1 0h1v1h-1zm1 0h97v1h-97zm97 0h1v1h-1zm1 0h1v1h-1zm1 0h1v1h-1zm62 0h1v1h-1zm23 0h1v1h-1zM1 285h1v1H1zm22 0h1v1h-1zm1 0h1v1h-1zm91 0h1v1h-1zm1 0h1v1h-1zm1 0h47v1h-47zm47 0h1v1h-1zm1 0h1v1h-1zm62 0h1v1h-1zm1 0h1v1h-1zm1 0h93v1h-93zm93 0h1v1h-1zm1 0h1v1h-1zm1 0h1v1h-1zm64 0h1v1h-1zm22 0h1v1h-1zm1 0h1v1h-1zM1 286h1v1H1zm1 0h20v1H2zm21 0h1v1h-1zm93 0h1v1h-1zm1 0h1v1h-1zm1 0h45v1h-45zm45 0h1v1h-1zm1 0h1v1h-1zm1 0h1v1h-1zm63 0h1v1h-1zm1 0h1v1h-1zm1 0h1v1h-1zm1 0h89v1h-89zm89 0h1v1h-1zm1 0h1v1h-1zm1 0h1v1h-1zm1 0h1v1h-1zm65 0h1v1h-1zm1 0h20v1h-20zm21 0h1v1h-1zm241 0h1v1h-1zM1 287h1v1H1zm1 0h1v1H2zm20 0h1v1h-1zm1 0h1v1h-1zm94 0h1v1h-1zm1 0h1v1h-1zm1 0h43v1h-43zm43 0h1v1h-1zm1 0h1v1h-1zm1 0h1v1h-1zm66 0h1v1h-1zm1 0h1v1h-1zm1 0h1v1h-1zm1 0h86v1h-86zm86 0h1v1h-1zm1 0h1v1h-1zm1 0h1v1h-1zm67 0h1v1h-1zm1 0h1v1h-1zm20 0h1v1h-1zm1 0h1v1h-1zm241 0h1v1h-1zM2 288h1v1H2zm1 0h18v1H3zm18 0h1v1h-1zm1 0h1v1h-1zm1 0h1v1h-1zm95 0h1v1h-1zm1 0h1v1h-1zm1 0h41v1h-41zm41 0h1v1h-1zm1 0h1v1h-1zm1 0h1v1h-1zm69 0h1v1h-1zm1 0h1v1h-1zm1 0h1v1h-1zm1 0h82v1h-82zm82 0h1v1h-1zm1 0h1v1h-1zm1 0h1v1h-1zm70 0h1v1h-1zm1 0h18v1h-18zm18 0h1v1h-1zm1 0h1v1h-1zm1 0h1v1h-1zm241 0h1v1h-1zM2 289h1v1H2zm1 0h1v1H3zm1 0h16v1H4zm17 0h1v1h-1zm1 0h1v1h-1zm98 0h1v1h-1zm1 0h1v1h-1zm1 0h38v1h-38zm38 0h1v1h-1zm1 0h1v1h-1zm1 0h1v1h-1zm72 0h1v1h-1zm1 0h1v1h-1zm1 0h1v1h-1zm1 0h78v1h-78zm78 0h1v1h-1zm1 0h1v1h-1zm1 0h1v1h-1zm1 0h1v1h-1zm71 0h1v1h-1zm1 0h1v1h-1zm1 0h16v1h-16zm17 0h1v1h-1zm1 0h1v1h-1zm242 0h1v1h-1zm1 0h147v1H652zm147 0h1v1h-1zM3 290h1v1H3zm1 0h1v1H4zm1 0h15v1H5zm15 0h1v1h-1zm1 0h1v1h-1zm100 0h1v1h-1zm1 0h1v1h-1zm1 0h1v1h-1zm1 0h34v1h-34zm34 0h1v1h-1zm1 0h1v1h-1zm1 0h1v1h-1zm1 0h1v1h-1zm75 0h1v1h-1zm1 0h1v1h-1zm1 0h1v1h-1zm1 0h74v1h-74zm74 0h1v1h-1zm1 0h1v1h-1zm1 0h1v1h-1zm1 0h1v1h-1zm74 0h1v1h-1zm1 0h1v1h-1zm1 0h15v1h-15zm15 0h1v1h-1zm1 0h1v1h-1zm243 0h1v1h-1zm1 0h19v1h-19zm19 0h1v1h-1zm1 0h1v1h-1zm1 0h40v1h-40zm40 0h1v1h-1zm1 0h1v1h-1zm1 0h39v1h-39zm39 0h1v1h-1zm1 0h1v1h-1zm1 0h40v1h-40zm40 0h1v1h-1zm1 0h1v1h-1zm1 0h1v1h-1zm1 0h1v1h-1zM4 291h1v1H4zm1 0h1v1H5zm1 0h12v1H6zm12 0h1v1h-1zm1 0h1v1h-1zm1 0h1v1h-1zm103 0h1v1h-1zm1 0h1v1h-1zm1 0h1v1h-1zm1 0h1v1h-1zm1 0h29v1h-29zm29 0h1v1h-1zm1 0h1v1h-1zm1 0h1v1h-1zm1 0h1v1h-1zm80 0h1v1h-1zm1 0h1v1h-1zm1 0h1v1h-1zm1 0h68v1h-68zm68 0h1v1h-1zm1 0h1v1h-1zm1 0h1v1h-1zm1 0h1v1h-1zm78 0h1v1h-1zm1 0h1v1h-1zm1 0h12v1h-12zm12 0h1v1h-1zm1 0h1v1h-1zm1 0h1v1h-1zM5 292h1v1H5zm1 0h1v1H6zm1 0h1v1H7zm1 0h9v1H8zm9 0h1v1h-1zm1 0h1v1h-1zm1 0h1v1h-1zm107 0h1v1h-1zm1 0h1v1h-1zm1 0h1v1h-1zm1 0h1v1h-1zm1 0h1v1h-1zm1 0h22v1h-22zm22 0h1v1h-1zm1 0h1v1h-1zm1 0h1v1h-1zm1 0h1v1h-1zm1 0h1v1h-1zm84 0h1v1h-1zm1 0h1v1h-1zm1 0h1v1h-1zm1 0h1v1h-1zm1 0h63v1h-63zm63 0h1v1h-1zm1 0h1v1h-1zm1 0h1v1h-1zm1 0h1v1h-1zm81 0h1v1h-1zm1 0h1v1h-1zm1 0h1v1h-1zm1 0h9v1h-9zm9 0h1v1h-1zm1 0h1v1h-1zm1 0h1v1h-1zM7 293h1v1H7zm1 0h1v1H8zm1 0h1v1H9zm1 0h1v1h-1zm1 0h2v1h-2zm2 0h1v1h-1zm1 0h1v1h-1zm1 0h1v1h-1zm1 0h1v1h-1zm1 0h1v1h-1zm114 0h1v1h-1zm1 0h1v1h-1zm1 0h1v1h-1zm1 0h1v1h-1zm1 0h1v1h-1zm1 0h1v1h-1zm1 0h1v1h-1zm1 0h1v1h-1zm1 0h1v1h-1zm1 0h1v1h-1zm1 0h6v1h-6zm6 0h1v1h-1zm1 0h1v1h-1zm1 0h1v1h-1zm1 0h1v1h-1zm1 0h1v1h-1zm1 0h1v1h-1zm1 0h1v1h-1zm1 0h1v1h-1zm90 0h1v1h-1zm1 0h1v1h-1zm1 0h1v1h-1zm1 0h1v1h-1zm1 0h57v1h-57zm57 0h1v1h-1zm1 0h1v1h-1zm1 0h1v1h-1zm1 0h1v1h-1zm86 0h1v1h-1zm1 0h1v1h-1zm1 0h1v1h-1zm1 0h1v1h-1zm1 0h2v1h-2zm2 0h1v1h-1zm1 0h1v1h-1zm1 0h1v1h-1zm1 0h1v1h-1zm1 0h1v1h-1zm-393 1h1v1h-1zm1 0h1v1h-1zm1 0h1v1h-1zm1 0h1v1h-1zm129 0h1v1h-1zm1 0h2v1h-2zm2 0h1v1h-1zm1 0h1v1h-1zm100 0h1v1h-1zm1 0h1v1h-1zm1 0h1v1h-1zm1 0h1v1h-1zm1 0h1v1h-1zm1 0h49v1h-49zm49 0h1v1h-1zm1 0h1v1h-1zm1 0h1v1h-1zm1 0h1v1h-1zm1 0h1v1h-1zm93 0h1v1h-1zm1 0h1v1h-1zm1 0h1v1h-1zm-149 1h1v1h-1zm1 0h1v1h-1zm1 0h1v1h-1zm1 0h1v1h-1zm1 0h1v1h-1zm1 0h41v1h-41zm41 0h1v1h-1zm1 0h1v1h-1zm1 0h1v1h-1zm1 0h1v1h-1zm1 0h1v1h-1zm1 0h1v1h-1zm-46 1h1v1h-1zm1 0h1v1h-1zm1 0h1v1h-1zm1 0h1v1h-1zm1 0h1v1h-1zm1 0h1v1h-1zm1 0h29v1h-29zm29 0h1v1h-1zm1 0h1v1h-1zm1 0h1v1h-1zm1 0h1v1h-1zm1 0h1v1h-1zm1 0h1v1h-1zm1 0h1v1h-1zm-35 1h1v1h-1zm1 0h1v1h-1zm1 0h1v1h-1zm1 0h1v1h-1zm1 0h1v1h-1zm1 0h1v1h-1zm1 0h1v1h-1zm1 0h1v1h-1zm1 0h1v1h-1zm1 0h1v1h-1zm1 0h1v1h-1zm1 0h1v1h-1zm1 0h1v1h-1zm1 0h5v1h-5zm5 0h1v1h-1zm1 0h1v1h-1zm1 0h1v1h-1zm1 0h1v1h-1zm1 0h1v1h-1zm1 0h1v1h-1zm1 0h1v1h-1zm1 0h1v1h-1zm1 0h1v1h-1zm1 0h1v1h-1zm1 0h1v1h-1zm1 0h1v1h-1zm1 0h1v1h-1z"/></g><path d="M390 36h1v1h-1zm1 0h33v1h-33zm33 0h1v1h-1zm1 0h64v1h-64zm64 0h1v1h-1zm1 0h1v1h-1zm1 0h62v1h-62zm62 0h1v1h-1zm1 0h1v1h-1zm1 0h50v1h-50zm50 0h1v1h-1zm1 0h1v1h-1zm-216 1h1v20h-1zm1 0h214v20H391zm214 0h1v20h-1zm1 0h1v20h-1zM390 57h1v1h-1zm1 0h214v1H391zm214 0h1v1h-1zm1 0h1v1h-1zm-195 1h1v1h-1zm1 0h62v1h-62zm62 0h1v1h-1zm1 0h1v1h-1zm1 0h64v1h-64zm64 0h1v1h-1zm1 0h1v1h-1zm1 0h63v1h-63zm63 0h1v1h-1zm1 0h1v1h-1zm45 93h1v1h-1zm1 0h8v1h-8zm8 0h1v1h-1zm1 0h1v1h-1zm1 0h40v1h-40zm40 0h1v1h-1zm1 0h1v1h-1zm1 0h40v1h-40zm40 0h1v1h-1zm1 0h1v1h-1zm1 0h40v1h-40zm40 0h1v1h-1zm1 0h1v1h-1zm1 0h11v1h-11zm11 0h1v1h-1zm-148 1h1v17h-1zm1 0h147v20H652zm147 0h1v20h-1zm-148 17h1v1h-1zm0 1h1v1h-1zm0 1h1v1h-1zm0 1h1v1h-1zm1 0h147v1H652zm147 0h1v1h-1zm-148 1h1v1h-1zm1 0h1v1h-1zm1 0h1v1h-1zm1 0h40v1h-40zm40 0h1v1h-1zm1 0h1v1h-1zm1 0h40v1h-40zm40 0h1v1h-1zm1 0h1v1h-1zm1 0h40v1h-40zm40 0h1v1h-1zm1 0h1v1h-1zm1 0h19v1h-19zm19 0h1v1h-1zm-342 37h1v1h-1zm1 0h42v1h-42zm42 0h1v1h-1zm1 0h1v1h-1zm1 0h10v1h-10zm10 0h1v1h-1zm1 0h1v1h-1zm-56 1h1v14h-1zm1 0h54v20h-54zm54 0h1v20h-1zm1 0h1v2h-1zm0 2h1v1h-1zm0 1h1v1h-1zm0 1h1v16h-1zm-56 10h1v1h-1zm0 1h1v1h-1zm0 1h1v4h-1zm0 4h1v1h-1zm1 0h54v1h-54zm54 0h1v1h-1zm1 0h1v1h-1zm-56 1h1v1h-1zm1 0h31v1h-31zm31 0h1v1h-1zm1 0h1v1h-1zm1 0h21v1h-21zm21 0h1v1h-1zm1 0h1v1h-1z" fill="#33d5ad"/><path d="M651 36h1v1h-1zm1 0h24v1h-24zm24 0h1v1h-1zm1 0h1v1h-1zm1 0h40v1h-40zm40 0h1v1h-1zm1 0h1v1h-1zm1 0h40v1h-40zm40 0h1v1h-1zm1 0h1v1h-1zm1 0h37v1h-37zm37 0h1v1h-1zm-148 1h1v17h-1zm1 0h147v20H652zm147 0h1v20h-1zM651 54h1v1h-1zm0 1h1v1h-1zm0 1h1v1h-1zm0 1h1v1h-1zm1 0h147v1H652zm147 0h1v1h-1zm-130 1h1v1h-1zm1 0h40v1h-40zm40 0h1v1h-1zm1 0h1v1h-1zm1 0h40v1h-40zm40 0h1v1h-1zm1 0h1v1h-1zm1 0h40v1h-40zm40 0h1v1h-1zm1 0h1v1h-1zm1 0h3v1h-3zm3 0h1v1h-1zM457 93h1v1h-1zm1 0h21v1h-21zm21 0h1v1h-1zm1 0h1v1h-1zm1 0h31v1h-31zm31 0h1v1h-1zm1 0h1v1h-1zm230 0h1v1h-1zm1 0h6v1h-6zm6 0h1v1h-1zm1 0h1v1h-1zm1 0h42v1h-42zm42 0h1v1h-1zm1 0h1v1h-1zm1 0h3v1h-3zm3 0h1v1h-1zm-342 1h1v11h-1zm1 0h54v20h-54zm54 0h1v20h-1zm1 0h1v6h-1zm230 0h1v9h-1zm1 0h55v20h-55zm55 0h1v20h-1zm-286 6h1v1h-1zm0 1h1v1h-1zm0 1h1v12h-1zm230 1h1v1h-1zm0 1h1v1h-1zm-286 1h1v1h-1zm286 0h1v9h-1zm-286 1h1v1h-1zm0 1h1v7h-1zm0 7h1v1h-1zm1 0h54v1h-54zm54 0h1v1h-1zm1 0h1v1h-1zm230 0h1v1h-1zm1 0h55v1h-55zm55 0h1v1h-1zm-342 1h1v1h-1zm1 0h13v1h-13zm13 0h1v1h-1zm1 0h1v1h-1zm1 0h39v1h-39zm39 0h1v1h-1zm1 0h1v1h-1zm230 0h1v1h-1zm1 0h40v1h-40zm40 0h1v1h-1zm1 0h14v1h-14zm14 0h1v1h-1zm-245 95h1v1h-1zm1 0h38v1h-38zm38 0h1v1h-1zm1 0h40v1h-40zm40 0h1v1h-1zm1 0h1v1h-1zm1 0h40v1h-40zm40 0h1v1h-1zm1 0h1v1h-1zm1 0h24v1h-24zm24 0h1v1h-1zm1 0h1v1h-1zm-149 1h1v16h-1zm1 0h147v20H555zm147 0h1v20h-1zm1 0h1v20h-1zm-149 16h1v1h-1zm0 1h1v1h-1zm0 1h1v2h-1zm0 2h1v1h-1zm1 0h147v1H555zm147 0h1v1h-1zm1 0h1v1h-1zm-149 1h1v1h-1zm1 0h30v1h-30zm30 0h1v1h-1zm1 0h1v1h-1zm1 0h39v1h-39zm39 0h1v1h-1zm1 0h1v1h-1zm1 0h40v1h-40zm40 0h1v1h-1zm1 0h1v1h-1zm1 0h32v1h-32zm32 0h1v1h-1zm1 0h1v1h-1z" fill="#0099a8"/></svg>