<svg xmlns="http://www.w3.org/2000/svg" role="img" xmlns:xlink="http://www.w3.org/1999/xlink" viewBox="-2.36 -3.86 421.46 74.21"><title>Lucidity.cloud (member) logo</title><defs><path d="M5.89063-43.73438h5.92187v38.75h21.29688V0H5.89062zm0 0" id="a"/><path d="M5.09375-12.95313V-32.8125h5.39063v19.65625c0 3.10547.60156 5.4336 1.8125 6.98438C13.51563-4.6172 15.33202-3.84375 17.75-3.84375c2.91406 0 5.21875-.92578 6.90625-2.78125 1.6875-1.85156 2.53125-4.3789 2.53125-7.57813V-32.8125h5.39063V0H27.1875v-5.04688c-1.3125 2-2.83594 3.48438-4.5625 4.45313-1.71875.95703-3.72656 1.4375-6.01563 1.4375-3.77343 0-6.63671-1.17188-8.59374-3.51563C6.0664-5.01563 5.09375-8.4414 5.09375-12.95313zm13.5625-20.65624zm0 0" id="b"/><path d="M29.26563-31.54688v5.03126c-1.52344-.84376-3.04688-1.47266-4.57813-1.89063-1.53125-.41406-3.07813-.625-4.64063-.625-3.5 0-6.21874 1.10938-8.15624 3.32813C9.96092-23.4922 9-20.38283 9-16.375c0 4 .96094 7.10938 2.89063 9.32813 1.9375 2.21875 4.65625 3.32812 8.15625 3.32812 1.5625 0 3.10937-.20703 4.64062-.625 1.53125-.42578 3.05469-1.05469 4.57813-1.89063v4.96875c-1.5.71094-3.0586 1.23438-4.67188 1.57813-1.61719.35156-3.32813.53125-5.14063.53125-4.9375 0-8.86718-1.55078-11.78124-4.65625C4.76563-6.91406 3.3125-11.10156 3.3125-16.375c0-5.35156 1.46875-9.5625 4.40625-12.625 2.9375-3.07031 6.96875-4.60938 12.09375-4.60938 1.65625 0 3.27344.17188 4.85938.51563 1.58203.34375 3.11328.85938 4.59374 1.54688zm0 0" id="c"/><path d="M5.65625-32.8125h5.39063V0H5.65625zm0-12.78125h5.39063v6.82813H5.65625zm0 0" id="d"/><path d="M27.25-27.82813v-17.76562h5.39063V0H27.25v-4.92188c-1.13672 1.94922-2.57031 3.39844-4.29688 4.34375C21.22266.3672 19.14844.84376 16.73438.84376c-3.96876 0-7.19922-1.57813-9.6875-4.73438C4.55467-7.05469 3.3125-11.21875 3.3125-16.375s1.24219-9.3164 3.73438-12.48438c2.48828-3.16406 5.71875-4.75 9.6875-4.75 2.41406 0 4.48828.47657 6.21874 1.42188 1.72657.94922 3.16016 2.40234 4.29688 4.35938zM8.875-16.375c0 3.96094.8125 7.07031 2.4375 9.32813 1.63281 2.26171 3.8789 3.39062 6.73438 3.39062 2.85156 0 5.09765-1.1289 6.73437-3.39063C26.42578-9.30467 27.25-12.41406 27.25-16.375c0-3.96875-.82422-7.07813-2.46875-9.32813-1.63672-2.2578-3.88281-3.39062-6.73438-3.39062-2.85546 0-5.10156 1.13281-6.73437 3.39063-1.625 2.25-2.4375 5.35937-2.4375 9.32812zm0 0" id="e"/><path d="M10.98438-42.125v9.3125h11.10937v4.1875H10.98437v17.8125c0 2.67969.36329 4.39844 1.09375 5.15625.73829.76172 2.22657 1.14063 4.46875 1.14063h5.54688V0h-5.54688C12.39063 0 9.51954-.77344 7.9375-2.32813c-1.58594-1.55078-2.375-4.3789-2.375-8.48437V-28.625H1.60937v-4.1875H5.5625v-9.3125zm0 0" id="f"/><path d="M19.3125 3.04688C17.78125 6.95313 16.28906 9.5 14.84375 10.6875c-1.4375 1.19531-3.3711 1.79688-5.79688 1.79688H4.75V7.96875h3.15625c1.48828 0 2.64063-.35547 3.45313-1.0625.8203-.69922 1.73437-2.35547 2.73437-4.96875l.96875-2.46875L1.78125-32.8125H7.5L17.75-7.15625 28.01563-32.8125h5.70312zm0 0" id="g"/><path d="M6.42188-7.4375h6.17187V0H6.42187zm0 0" id="h"/><path d="M5.65625-45.59375h5.39063V0H5.65625zm0 0" id="i"/><path d="M18.375-29.03125c-2.89844 0-5.1836 1.13281-6.85938 3.39063C9.83595-23.39063 9-20.30079 9-16.375c0 3.92969.83203 7.02344 2.5 9.28125 1.66406 2.25 3.95703 3.375 6.875 3.375 2.86328 0 5.13281-1.1289 6.8125-3.39063 1.6875-2.26953 2.53125-5.35937 2.53125-9.26562 0-3.88281-.84375-6.96094-2.53125-9.23438-1.67969-2.28124-3.94922-3.42187-6.8125-3.42187zm0-4.57813c4.6875 0 8.36328 1.52735 11.03125 4.57813 2.67578 3.04297 4.01563 7.26172 4.01563 12.65625 0 5.36719-1.33985 9.57813-4.01563 12.64063C26.73828-.6797 23.0625.84375 18.375.84375c-4.71094 0-8.39844-1.52344-11.0625-4.57813-2.66797-3.0625-4-7.27343-4-12.64062 0-5.39453 1.33203-9.61328 4-12.65625 2.66406-3.05078 6.35156-4.57813 11.0625-4.57813zm0 0" id="j"/></defs><use y="50" xlink:href="#a"/><use x="33.428" y="50" xlink:href="#b"/><use x="71.455" y="50" xlink:href="#c"/><use x="104.443" y="50" xlink:href="#d"/><use x="121.113" y="50" xlink:href="#e"/><use x="159.199" y="50" xlink:href="#d"/><use x="175.869" y="50" xlink:href="#f"/><use x="199.395" y="50" xlink:href="#g"/><use x="234.902" y="50" xlink:href="#h"/><use x="253.975" y="50" xlink:href="#c"/><use x="286.963" y="50" xlink:href="#i"/><use x="303.633" y="50" xlink:href="#j"/><use x="340.342" y="50" xlink:href="#b"/><use x="378.369" y="50" xlink:href="#e"/></svg>