<svg xmlns="http://www.w3.org/2000/svg" role="img" viewBox="-9.19 -9.19 477.88 157.88"><title>Ludwig logo</title><g fill-rule="nonzero" fill="none" stroke="none" stroke-width="1"><path fill="#404040" d="M0 0h460v140H0z"/><path fill="#FFF" d="M20 20h20v100H20z"/><path fill="#FFF" d="M20 100h100v20H20zm120 0h40v20h-40zM60 60h60v20H60zm80-40h40v20h-40z"/><path fill="#FFF" d="M60 20h20v60H60zm40 0h20v40h-20zm40 0h20v100h-20zm40 20h20v60h-20zm40-20h20v100h-20zm40 0h20v100h-20zm40 0h20v80h-20zm40 0h20v100h-20zm40 0h20v100h-20z"/><path fill="#FFF" d="M380 100h40v20h-40zm40-20h20v40h-20zm-10-20h30v20h-30zm-30-40h60v20h-60zm-160 80h100v20H220z"/><path fill="#FFF" d="M180 120l8.693-.144L200 108.21V100h-20z"/><path fill="#FFF" d="M180 20l8.693.144L200 31.79V40h-20z"/></g></svg>