<svg xmlns="http://www.w3.org/2000/svg" role="img" viewBox="86.25 46.25 819.00 320.50"><title>MLflow logo</title><style>svg {enable-background:new 0 0 954 408}</style><style>.st0{fill:#0194e2}</style><path d="M102 286.9V173.6h25.8V188c6.5-11.6 20.7-17.7 33.5-17.7 14.9 0 27.9 6.7 34 20 8.8-14.9 22.1-20 36.8-20 20.5 0 40 13 40 43.1v73.5H246v-69.1c0-13.3-6.7-23.3-21.9-23.3-14.2 0-23.5 11.2-23.5 25.1v67.3h-26.5v-69.1c0-13-6.5-23.3-21.9-23.3-14.4 0-23.5 10.7-23.5 25.1v67.3H102zm203.1 0V118.4h27v168.5h-27z"/><path d="M321.3 348.6c6.1 1.7 11.5 2.7 23.1 2.7 21.5 0 46.9-12.1 53.6-46.2l27.6-136.7h40.1l6-22.7h-41.5l5.5-27.2c4.3-21.1 15.9-31.8 34.7-31.8 4.9 0 3.5.4 7.9 1.3l6-23.3c-5.7-1.7-10.9-2.7-22.1-2.7-12.4 0-23.9 3.7-33 10.8-10.5 8.1-17.4 20-20.6 35.5l-7.8 37.4H364l-3 22.7h35.2l-25.3 126.4c-2.7 14.3-10.9 31.5-34.3 31.5-5.3 0-3.4-.4-8.2-1.2l-7.1 23.5z" class="st0"/><path fill="#43c9ed" d="M625.7 180.8c-14.2-10.1-32.2-13.3-48.9-8.7-24.7 7-42.8 30-42.4 56.9.2 13.3 4.8 25.4 12.3 35.1l17.7-13c-5-6.1-8-13.9-8.1-22.4-.2-20.2 15.9-36.7 36.1-37l-.4 13.8 33.7-24.7z"/><path d="M491 286h-27l37-170h27zm147.7-92.3l-1.8-2.4-17 12.5c5.8 6.4 9.4 14.8 9.5 24.1.2 20.2-15.9 36.7-36.1 37l.4-13.8-34.1 25c19.7 13.3 46.5 13.6 66.8-1.3 25.7-19 31.3-55.3 12.3-81.1zm32.8-20.1H701l6 77.4 42-77.4 28 .4 11 77 37-77.4 27 .4-56 113h-27l-13-81-43 81h-28z" class="st0"/><path d="M863.3 174.6h-5.6v-2h13.5v2h-5.6V191h-2.3v-16.4zm11.2-2h2.8l3.5 9.8c.4 1.3.9 2.6 1.3 3.8h.1c.4-1.3.8-2.6 1.3-3.8l3.5-9.8h2.8V191h-2.2v-10.1c0-1.6.2-3.8.3-5.4h-.1l-1.5 4.2-3.5 9.5h-1.5l-3.5-9.5-1.5-4.2h-.1c.1 1.6.3 3.8.3 5.4V191h-2.1v-18.4z" class="st0"/></svg>