<svg xmlns="http://www.w3.org/2000/svg" role="img" viewBox="-12.67 -12.67 658.84 553.84"><title>Marko logo</title><g><path fill="#272525" d="M200.354,435.875c-2.972-3.963-6.934-7.182-11.888-9.411c-4.953-2.229-11.392-3.467-19.317-3.467 c-2.972,0-6.191,0.248-9.163,0.991c-2.972,0.743-5.944,1.486-8.668,2.477c-2.724,0.991-5.201,1.981-7.43,3.22 c-2.229,1.238-3.962,2.229-5.448,3.22c-2.972-2.972-6.687-5.448-11.145-7.182c-4.458-1.734-10.154-2.724-17.088-2.724 c-8.173,0-15.85,0.495-23.032,1.734c-7.182,1.238-13.126,2.477-17.584,3.715v97.329h23.28v-81.231 c1.486-0.248,3.962-0.495,6.934-0.991c2.972-0.495,5.944-0.495,8.42-0.495c7.182,0,12.135,2.229,14.612,6.934 c2.724,4.706,3.963,12.383,3.963,22.784v52.998h23.28v-55.723c0-4.21-0.248-7.925-0.495-11.64 c-0.495-3.715-0.991-6.934-2.229-10.154c1.734-1.238,4.21-2.229,7.43-3.467s6.934-1.734,10.649-1.734 c7.43,0,12.135,2.229,14.859,6.934c2.477,4.706,3.962,12.383,3.962,22.784v52.998h23.775v-56.466 c0-6.687-0.495-13.126-1.734-18.822C205.307,444.791,203.326,439.838,200.354,435.875z M290.748,433.646 c-3.22-3.467-7.43-6.191-12.63-8.173c-5.201-1.981-11.392-2.724-19.07-2.972h-0.495c-6.439,0-12.383,0.495-18.079,1.486 c-5.696,0.991-9.906,1.981-12.878,2.972l2.972,18.822c2.724-0.991,6.439-1.981,10.897-2.724c4.458-0.743,9.411-1.238,14.859-1.238 h2.724c2.724,0.248,5.201,0.743,7.182,1.486c2.724,0.991,4.705,2.477,6.439,4.21c1.486,1.981,2.724,3.963,3.467,6.439 s0.991,4.953,0.991,7.677v3.963c-3.22-0.743-6.191-1.238-9.163-1.734c-2.724-0.248-5.448-0.495-8.173-0.495h-0.743 c-5.201,0-10.402,0.495-15.107,1.734c-4.953,0.991-9.411,2.972-13.373,5.448s-6.934,5.696-9.163,9.659 c-2.229,3.963-3.467,8.916-3.467,14.612c0,5.944,0.991,11.145,2.972,15.107c1.981,4.21,4.705,7.43,8.173,9.906 s7.677,4.458,12.878,5.696c4.953,1.238,10.402,1.734,16.593,1.734h0.495c8.916,0,16.841-0.495,24.023-1.734 c7.182-0.991,12.63-1.981,16.345-2.724v-60.923c0-5.944-0.743-11.392-1.981-16.345 C296.197,441.323,293.968,437.113,290.748,433.646z M277.127,508.438c-3.715,0.743-9.163,1.238-16.345,1.238h-1.486 c-5.201-0.248-9.411-1.238-12.63-3.22c-3.467-2.229-5.201-5.944-5.201-11.392c0-2.724,0.743-5.201,1.981-6.934 c1.238-1.981,2.972-3.22,5.201-4.21c2.229-0.991,4.458-1.734,7.182-2.229c1.238-0.248,2.477-0.248,3.715-0.495 c1.486,0,2.724-0.248,4.21-0.248c2.972,0,5.696,0.248,8.173,0.495c2.477,0.495,4.21,0.743,5.696,1.238v25.756H277.127z M367.522,424.235c-1.981-0.248-4.21-0.495-6.191-0.743c-1.981-0.248-3.962-0.248-5.448-0.248c-8.173,0-15.602,0.743-22.537,2.229 c-6.687,1.486-12.383,2.972-16.841,4.705v95.843h23.28v-80.736c1.238-0.495,3.22-0.743,5.944-1.238 c2.972-0.495,5.696-0.743,8.173-0.743c4.458,0,8.42,0.248,11.888,0.991c3.467,0.743,5.944,1.486,7.925,1.981l3.963-19.565 c-1.238-0.495-2.724-0.743-4.705-1.238C371.732,424.73,369.751,424.483,367.522,424.235z M452.468,496.303 c-3.962-5.201-8.173-9.906-12.383-14.612c-4.21-4.458-8.173-8.42-12.135-11.64c7.182-7.43,14.364-14.859,21.298-22.537 c7.182-7.677,13.869-15.107,20.308-22.289h-27.49c-1.981,2.477-4.458,5.201-7.43,8.668c-2.972,3.22-5.944,6.687-9.163,10.154 c-3.22,3.467-6.439,6.934-9.906,10.649c-3.22,3.467-6.439,6.934-9.411,9.906v-88.166l-23.28,3.963v145.374h23.28V479.71 c3.467,2.477,6.934,5.696,10.649,9.411s7.182,7.43,10.649,11.64c3.467,4.21,6.687,8.42,9.659,12.63 c2.972,4.458,5.696,8.42,7.925,12.63h26.995c-2.229-4.458-5.201-9.163-8.668-14.364 C460.145,506.457,456.43,501.256,452.468,496.303z M560.446,453.706c-2.477-6.439-5.696-12.135-9.906-16.593 c-4.21-4.705-9.411-8.173-15.355-10.649c-5.944-2.477-12.383-3.715-19.565-3.715c-6.934,0-13.621,1.238-19.317,3.715 c-5.944,2.477-10.897,5.944-15.355,10.649c-4.21,4.705-7.677,10.154-9.906,16.593c-2.477,6.439-3.467,13.621-3.467,21.546 c0,7.925,1.238,15.107,3.467,21.794c2.477,6.439,5.696,12.135,9.906,16.841s9.411,8.173,15.107,10.897 c5.944,2.477,12.383,3.963,19.565,3.963c7.182,0,13.869-1.238,19.813-3.963c5.944-2.477,11.145-6.191,15.355-10.897 c4.21-4.705,7.43-10.154,9.906-16.841c2.229-6.439,3.467-13.869,3.467-21.794C564.161,467.327,562.923,460.145,560.446,453.706z M533.699,499.523c-4.21,5.944-10.402,8.916-18.079,8.916c-7.677,0-13.621-2.972-18.079-8.916 c-4.21-5.944-6.439-13.869-6.439-24.023c0-9.906,2.229-17.831,6.439-23.775c4.21-5.944,10.402-8.668,18.079-8.668 c7.677,0,13.621,2.972,18.079,8.668c4.21,5.944,6.439,13.869,6.439,23.775C540.138,485.654,537.909,493.579,533.699,499.523z"/><path fill="#8DC220" d="M317.248,0h89.404c-32.938,53.989-69.344,113.427-105.749,172.616h-89.404 C247.904,113.427,284.309,53.989,317.248,0z"/><path fill="#44BFEF" d="M105.749,0h89.404c-17.584,28.728-35.415,57.704-52.998,86.432s-35.167,57.456-52.751,86.184 c17.584,28.728,35.167,57.704,52.751,86.432s35.167,57.456,52.998,86.184h-89.404c-17.584-28.728-35.415-57.456-52.998-86.184 C35.167,230.568,17.584,201.592,0,172.864c17.584-28.728,35.167-57.456,52.751-86.184C70.334,57.704,88.166,28.976,105.749,0z"/><path fill="#00AC71" d="M105.749,0L105.749,0c36.405,59.438,72.811,118.875,105.749,172.616h89.404 C267.964,118.875,231.559,59.438,195.153,0l0,0H105.749z"/><path fill="#F9BC00" d="M406.652,0h-89.404c17.584,28.728,35.167,57.704,52.998,86.432c17.584,28.728,35.167,57.456,52.998,86.184 c-17.584,28.728-35.415,57.704-52.998,86.432s-35.167,57.456-52.998,86.184h89.404c17.584-28.728,35.167-57.456,52.998-86.184 c17.584-28.728,35.167-57.456,52.998-86.432c-17.831-28.728-35.415-57.456-52.998-86.184C442.066,57.704,424.235,28.976,406.652,0z"/><linearGradient id="SVGID_1_" x1="35.7" x2="35.7" y1="828.069" y2="830.546" gradientTransform="matrix(63.8 0 0 -45.2 -1986.9 37601.605)" gradientUnits="userSpaceOnUse"><stop offset="0" stop-color="#8ac23e"/><stop offset="1" stop-color="#8ac23e" stop-opacity="0"/></linearGradient><path fill="url(#SVGID_1_)" d="M369.751,60.923h-89.404c-11.392,18.574-22.784,37.396-34.177,55.97s-22.784,37.396-34.424,55.97 h89.404c11.392-18.574,23.032-37.396,34.424-55.97C346.719,98.072,358.111,79.498,369.751,60.923z"/><linearGradient id="SVGID_2_" x1="36.05" x2="36.05" y1="831.35" y2="828.873" gradientTransform="matrix(63.7 0 0 -45.2 -1968.6 37577)" gradientUnits="userSpaceOnUse"><stop offset="0" stop-color="#698932"/><stop offset="1" stop-color="#698932" stop-opacity="0"/></linearGradient><path fill="url(#SVGID_2_)" d="M248.895,111.941h89.404c11.392-18.574,22.784-37.396,34.177-55.97 C383.867,37.396,395.259,18.574,406.652,0h-89.404c-11.392,18.574-22.784,37.396-34.177,55.97 C271.679,74.792,260.287,93.366,248.895,111.941z"/><linearGradient id="SVGID_3_" x1="36.686" x2="36.686" y1="831.35" y2="828.873" gradientTransform="matrix(63.8 0 0 -45.2 -1944.3 37577)" gradientUnits="userSpaceOnUse"><stop offset="0" stop-color="#ffed01"/><stop offset="1" stop-color="#ffed01" stop-opacity="0"/></linearGradient><path fill="url(#SVGID_3_)" d="M475.252,111.941h-89.404c-11.392-18.574-23.032-37.396-34.424-55.97 C340.032,37.396,328.64,18.574,317.248,0h89.404c11.392,18.574,22.784,37.396,34.177,55.97 C452.468,74.792,463.86,93.366,475.252,111.941z"/><path fill="#DF1B1C" d="M528.003,0h-89.404c17.584,28.976,35.167,57.704,52.751,86.432c17.584,28.728,35.415,57.456,52.998,86.184 c-17.584,28.728-35.415,57.704-52.998,86.432c-17.584,28.728-35.167,57.456-52.998,86.184h89.404 c17.584-28.728,35.167-57.456,52.998-86.184c17.584-28.728,35.167-57.456,52.998-86.432 c-17.584-28.728-35.167-57.456-52.998-86.184C563.418,57.704,545.587,28.976,528.003,0z"/><linearGradient id="SVGID_4_" x1="37.82" x2="37.82" y1="831.35" y2="828.873" gradientTransform="matrix(63.8 0 0 -45.2 -1895.3 37577)" gradientUnits="userSpaceOnUse"><stop offset="0" stop-color="#e02a89"/><stop offset="1" stop-color="#e02a89" stop-opacity="0"/></linearGradient><path fill="url(#SVGID_4_)" d="M596.604,111.941H507.2c-11.64-18.574-23.032-37.396-34.424-55.97 C461.384,37.396,449.991,18.574,438.599,0h89.404c11.392,18.574,22.784,37.396,34.177,55.97 C573.572,74.792,585.212,93.366,596.604,111.941z"/><linearGradient id="SVGID_5_" x1="38.169" x2="38.169" y1="829.069" y2="826.593" gradientTransform="matrix(63.8 0 0 -45.2 -1880.2 37646.797)" gradientUnits="userSpaceOnUse"><stop offset="0" stop-color="#7f1e4f"/><stop offset="1" stop-color="#7f1e4f" stop-opacity="0"/></linearGradient><path fill="url(#SVGID_5_)" d="M475.995,284.805h89.404c11.392-18.574,22.784-37.148,34.177-55.97 c11.392-18.574,22.784-37.396,34.424-55.97h-89.652c-11.392,18.574-22.784,37.396-34.177,55.97S487.388,265.983,475.995,284.805z"/><linearGradient id="SVGID_6_" x1="37.035" x2="37.035" y1="829.069" y2="826.593" gradientTransform="matrix(63.8 0 0 -45.2 -1929.2 37646.797)" gradientUnits="userSpaceOnUse"><stop offset="0" stop-color="#e95506"/><stop offset="1" stop-color="#e95506" stop-opacity="0"/></linearGradient><path fill="url(#SVGID_6_)" d="M354.644,284.805h89.404c11.392-18.574,22.784-37.396,34.177-55.97 c11.392-18.574,22.784-37.396,34.424-55.97h-89.404c-11.392,18.574-22.784,37.396-34.177,55.97 C377.428,247.409,366.036,265.983,354.644,284.805z"/><linearGradient id="SVGID_7_" x1="33.721" x2="33.721" y1="828.069" y2="830.546" gradientTransform="matrix(63.8 0 0 -45.2 -2072.4 37601.605)" gradientUnits="userSpaceOnUse"><stop offset="0" stop-color="#88d0f1"/><stop offset="1" stop-color="#88d0f1" stop-opacity="0"/></linearGradient><path fill="url(#SVGID_7_)" d="M158.005,60.923H68.601c-11.392,18.574-22.784,37.396-34.177,55.97 C22.784,135.468,11.392,154.29,0,172.864h89.404c11.392-18.574,22.784-37.148,34.177-55.97 C134.973,98.32,146.365,79.498,158.005,60.923z"/><linearGradient id="SVGID_8_" x1="34.068" x2="34.068" y1="831.35" y2="828.873" gradientTransform="matrix(63.8 0 0 -45.2 -2057.4 37577)" gradientUnits="userSpaceOnUse"><stop offset="0" stop-color="#00828b"/><stop offset=".833" stop-color="#00828b" stop-opacity="0"/></linearGradient><path fill="url(#SVGID_8_)" d="M37.148,111.941h89.404c11.392-18.574,22.784-37.396,34.177-55.97 c11.64-18.574,23.032-37.396,34.424-55.97h-89.404C94.357,18.574,82.965,37.148,71.573,55.97 C60.18,74.545,48.788,93.366,37.148,111.941z"/><linearGradient id="SVGID_9_" x1="34.068" x2="34.068" y1="825.793" y2="828.269" gradientTransform="matrix(63.7 0 0 -45.2 -2054.1 37671.297)" gradientUnits="userSpaceOnUse"><stop offset="0" stop-color="#2073ba"/><stop offset="1" stop-color="#2073ba" stop-opacity="0"/></linearGradient><path fill="url(#SVGID_9_)" d="M37.148,233.54h89.404c11.392,18.574,22.784,37.396,34.177,55.97 c11.392,18.574,22.784,37.396,34.177,55.97h-89.404c-11.392-18.574-23.032-37.148-34.424-55.97 C59.933,270.936,48.541,252.362,37.148,233.54z"/><linearGradient id="SVGID_10_" x1="34.709" x2="34.709" y1="831.35" y2="828.873" gradientTransform="matrix(63.8 0 0 -45.2 -2029.7 37577)" gradientUnits="userSpaceOnUse"><stop offset="0" stop-color="#8ed0e1"/><stop offset="1" stop-color="#88d0f1" stop-opacity="0"/></linearGradient><path fill="url(#SVGID_10_)" d="M263.754,111.941H174.35c-11.392-18.574-22.784-37.396-34.177-55.97 C128.534,37.396,117.141,18.574,105.749,0h89.404c11.392,18.574,22.784,37.148,34.177,55.97 C240.97,74.545,252.362,93.366,263.754,111.941z"/></g></svg>