<svg xmlns="http://www.w3.org/2000/svg" role="img" viewBox="55.00 197.00 390.00 105.50"><title>Maryville Consulting Group logo</title><path fill="#FEFEFE" d="M0 0 C165 0 330 0 500 0 C500 165 500 330 500 500 C335 500 170 500 0 500 C0 335 0 170 0 0 Z"/><path fill="#0C2A3E" d="M0 0 C1.03769531 -0.02578125 2.07539063 -0.0515625 3.14453125 -0.078125 C6.54901636 0.28898251 8.41142285 1.3000752 11.1875 3.25 C11.5175 2.59 11.8475 1.93 12.1875 1.25 C15.8175 1.25 19.4475 1.25 23.1875 1.25 C23.1875 14.78 23.1875 28.31 23.1875 42.25 C19.5575 42.25 15.9275 42.25 12.1875 42.25 C11.8575 41.59 11.5275 40.93 11.1875 40.25 C10.12982422 40.97509766 10.12982422 40.97509766 9.05078125 41.71484375 C4.22802154 44.30057985 -0.48625751 44.08698096 -5.8125 43.25 C-9.10936152 41.77451935 -11.35444938 39.87267757 -13.8125 37.25 C-14.33972656 36.71632813 -14.86695313 36.18265625 -15.41015625 35.6328125 C-19.71593916 30.23559159 -19.72471328 23.66928056 -19.3671875 17.046875 C-18.37026084 10.22284181 -15.0186514 7.20545237 -10.0625 2.8125 C-6.47936242 0.32421002 -4.35611918 0.06445552 0 0 Z" transform="translate(152.813 223.75)"/><path fill="#0C2A3E" d="M0 0 C3.41467943 1.58587796 6.19135844 3.50342973 9 6 C9.36609375 5.566875 9.7321875 5.13375 10.109375 4.6875 C13.88294891 0.80610969 16.59969679 -0.46045511 22.0625 -0.5625 C28.56698197 -0.1975353 32.16271426 1.16271426 36.8125 5.8125 C40.21734801 10.77384996 40.12570957 15.60099054 40.09765625 21.4921875 C40.09282227 23.29042969 40.09282227 23.29042969 40.08789062 25.125 C40.07532227 26.98125 40.07532227 26.98125 40.0625 28.875 C40.05798828 30.13570312 40.05347656 31.39640625 40.04882812 32.6953125 C40.0370796 35.79692386 40.02065167 38.89843725 40 42 C36.7 42 33.4 42 30 42 C29.98541748 41.23856689 29.97083496 40.47713379 29.95581055 39.69262695 C29.88119459 36.23208112 29.78457741 32.77248555 29.6875 29.3125 C29.65366211 27.51522461 29.65366211 27.51522461 29.61914062 25.68164062 C29.58369141 24.52470703 29.54824219 23.36777344 29.51171875 22.17578125 C29.48553467 21.11270752 29.45935059 20.04963379 29.43237305 18.9543457 C28.94599772 15.63100983 27.98610408 13.6885179 26 11 C23.2904711 10.1696605 20.76654019 10.46286381 18 11 C15.32568511 12.81163267 15.04079641 13.87761077 14 17 C13.85060226 18.91765594 13.75189717 20.83946522 13.68359375 22.76171875 C13.62075195 24.43911133 13.62075195 24.43911133 13.55664062 26.15039062 C13.51732422 27.31763672 13.47800781 28.48488281 13.4375 29.6875 C13.37272461 31.45577148 13.37272461 31.45577148 13.30664062 33.25976562 C13.20048824 36.17305883 13.09843758 39.08643757 13 42 C9.7 42 6.4 42 3 42 C2.98541748 41.26885986 2.97083496 40.53771973 2.95581055 39.78442383 C2.8811709 36.45992629 2.78456199 33.13641533 2.6875 29.8125 C2.66494141 28.66201172 2.64238281 27.51152344 2.61914062 26.32617188 C2.5659668 24.65844727 2.5659668 24.65844727 2.51171875 22.95703125 C2.48553467 21.93585205 2.45935059 20.91467285 2.43237305 19.86254883 C1.89463411 16.30241951 0.56710071 13.56710071 -2 11 C-7.07083963 10.39280642 -7.07083963 10.39280642 -11.59350586 12.11938477 C-13.63710554 14.85187015 -13.43515683 17.0339319 -13.51171875 20.41796875 C-13.54716797 21.67158203 -13.58261719 22.92519531 -13.61914062 24.21679688 C-13.65297852 26.18229492 -13.65297852 26.18229492 -13.6875 28.1875 C-13.72067666 29.52282013 -13.75516666 30.85810832 -13.79101562 32.19335938 C-13.87362057 35.46215504 -13.94273229 38.73067812 -14 42 C-17.3 42 -20.6 42 -24 42 C-24.0995024 37.71336002 -24.1717631 33.42734669 -24.21972656 29.13989258 C-24.23973822 27.68404416 -24.26695677 26.22827506 -24.30175781 24.77270508 C-24.65074002 9.79213043 -24.65074002 9.79213043 -20 4 C-14.62061575 -1.52094699 -7.19705978 -1.10723997 0 0 Z" transform="translate(87 224)"/><path fill="#0E2C3F" d="M0 0 C5.75636242 2.03578671 9.0962689 5.65713477 12 11 C13 14 13 14 13 25 C3.43 25 -6.14 25 -16 25 C-12.80645045 30.58060456 -12.80645045 30.58060456 -8 33 C-3.10797329 33.10501667 1.59221514 32.13279912 6 30 C8.5 32.3125 8.5 32.3125 11 35 C11 35.99 11 36.98 11 38 C4.49238167 42.93803017 -1.38292478 43.77157829 -9.4609375 43.48828125 C-15.7536492 42.62008151 -19.10859599 39.99095159 -23.375 35.5 C-26.50612654 30.68288225 -27.29379297 26.8055568 -27.3125 21.0625 C-27.32925781 19.87785156 -27.34601563 18.69320312 -27.36328125 17.47265625 C-26.74842497 11.59515916 -24.43455965 7.9112335 -19.9375 4.1875 C-18.89916016 3.31158203 -18.89916016 3.31158203 -17.83984375 2.41796875 C-12.74474223 -1.50882923 -6.1330102 -0.59178169 0 0 Z" transform="translate(410 224)"/><path fill="#0D2B3F" d="M0 0 C3.96 0 7.92 0 12 0 C13.48237286 2.60238792 14.96100131 5.20678228 16.4375 7.8125 C16.85837891 8.55048828 17.27925781 9.28847656 17.71289062 10.04882812 C18.11572266 10.76103516 18.51855469 11.47324219 18.93359375 12.20703125 C19.4913147 13.18893433 19.4913147 13.18893433 20.06030273 14.19067383 C21 16 21 16 22 19 C22.66 19.33 23.32 19.66 24 20 C24.08121094 19.33613281 24.16242188 18.67226562 24.24609375 17.98828125 C25.24807812 14.01668518 27.08633454 10.75415441 29.0625 7.1875 C29.43955078 6.49462891 29.81660156 5.80175781 30.20507812 5.08789062 C31.13083852 3.38871015 32.06462312 1.69390575 33 0 C36.96 0 40.92 0 45 0 C44.015272 3.93891202 42.51003166 7.08463592 40.60546875 10.6171875 C40.26159119 11.26309845 39.91771362 11.9090094 39.56341553 12.57449341 C38.44246516 14.67702137 37.31514109 16.776054 36.1875 18.875 C35.41646918 20.31755932 34.64571865 21.76026848 33.87524414 23.203125 C27.65350178 34.84015557 21.3574478 46.43654966 15 58 C11.04 58 7.08 58 3 58 C3.87701604 54.49193585 4.7390275 52.4796931 6.5390625 49.4453125 C7.28542969 48.15173828 7.28542969 48.15173828 8.046875 46.83203125 C9.09755454 45.02975174 10.15745387 43.2328151 11.2265625 41.44140625 C14.17720554 36.39267968 14.17720554 36.39267968 15.03515625 30.72265625 C13.88140981 27.68808542 12.52019182 25.07571877 10.8125 22.3125 C10.18730469 21.27609375 9.56210938 20.2396875 8.91796875 19.171875 C8.28503906 18.12515625 7.65210938 17.0784375 7 16 C5.86045662 14.02917109 4.7344707 12.0504136 3.625 10.0625 C3.14289063 9.20785156 2.66078125 8.35320312 2.1640625 7.47265625 C1 5 1 5 0 0 Z" transform="translate(219 225)"/><path fill="#0F2C40" d="M0 0 C3.96 0 7.92 0 12 0 C15.66059603 8.57625355 18.93971252 17.19679005 22 26 C25.27568375 22.31363351 26.52927498 18.15433249 28.0625 13.5625 C28.5733196 12.06349538 29.08501678 10.56478948 29.59765625 9.06640625 C29.81945557 8.40584229 30.04125488 7.74527832 30.26977539 7.06469727 C31.11157057 4.68453617 32.0623738 2.3440655 33 0 C36.96 0 40.92 0 45 0 C42.92367438 6.42302597 40.60149605 12.68431545 38.0625 18.9375 C37.72798828 19.76701172 37.39347656 20.59652344 37.04882812 21.45117188 C36.37633476 23.11879993 35.70268057 24.78596036 35.02783203 26.45263672 C33.61527966 29.95348504 32.22197771 33.46193944 30.82983398 36.97094727 C30 39 30 39 29 41 C24.71 41 20.42 41 16 41 C12.31750478 33.10893881 9.05388959 25.15263508 6 17 C5.45093802 15.55062314 4.90143914 14.10141173 4.3515625 12.65234375 C3.79660028 11.18499971 3.24190897 9.71755317 2.6875 8.25 C2.42074463 7.54593018 2.15398926 6.84186035 1.87915039 6.11645508 C0 1.11548036 0 1.11548036 0 0 Z" transform="translate(267 225)"/><path fill="#133043" d="M0 0 C3.96 0 7.92 0 12 0 C12 20.13 12 40.26 12 61 C8.04 61 4.08 61 0 61 C0 40.87 0 20.74 0 0 Z" transform="translate(340 205)"/><path fill="#0F2D40" d="M0 0 C3.63 0 7.26 0 11 0 C11 20.13 11 40.26 11 61 C7.37 61 3.74 61 0 61 C0 40.87 0 20.74 0 0 Z" transform="translate(363 205)"/><path fill="#0E2C3F" d="M0 0 C0.90105469 0.00902344 1.80210937 0.01804688 2.73046875 0.02734375 C3.41753906 0.03894531 4.10460937 0.05054688 4.8125 0.0625 C4.88692057 3.93236958 4.85952186 7.3360915 3.8125 11.0625 C2.96945313 11.11148438 2.12640625 11.16046875 1.2578125 11.2109375 C0.16210938 11.28570312 -0.93359375 11.36046875 -2.0625 11.4375 C-3.69832031 11.54191406 -3.69832031 11.54191406 -5.3671875 11.6484375 C-8.31796474 11.79503491 -8.31796474 11.79503491 -10.1875 14.0625 C-10.56018887 16.97438245 -10.56018887 16.97438245 -10.6015625 20.3828125 C-10.65957031 22.26806641 -10.65957031 22.26806641 -10.71875 24.19140625 C-10.7496875 25.51011719 -10.780625 26.82882813 -10.8125 28.1875 C-10.85068029 29.52736918 -10.88973206 30.86721383 -10.9296875 32.20703125 C-11.0242203 35.49204619 -11.10977156 38.77705138 -11.1875 42.0625 C-14.8175 42.0625 -18.4475 42.0625 -22.1875 42.0625 C-22.1875 28.5325 -22.1875 15.0025 -22.1875 1.0625 C-18.8875 1.0625 -15.5875 1.0625 -12.1875 1.0625 C-11.8575 2.0525 -11.5275 3.0425 -11.1875 4.0625 C-10.754375 3.588125 -10.32125 3.11375 -9.875 2.625 C-6.8539065 -0.1723088 -3.91519873 -0.05084674 0 0 Z" transform="translate(209.188 223.938)"/><path fill="#0E2C3F" d="M0 0 C3.63 0 7.26 0 11 0 C11 13.53 11 27.06 11 41 C7.37 41 3.74 41 0 41 C0 27.47 0 13.94 0 0 Z" transform="translate(318 225)"/><path fill="#F5F7F7" d="M0 0 C3.1857067 2.65475559 4.60238212 4.17486873 5.4765625 8.1875 C5.744612 12.3634291 5.31390312 15.17907691 2.6875 18.5 C-0.42849609 21.39860101 -2.1528957 21.8721352 -6.3125 22.5 C-10.16298406 21.97790047 -10.86265987 21.70445682 -13.4375 19.0625 C-16.12268271 15.49669285 -16.83406115 12.58095684 -16.53125 8.15234375 C-15.60734822 4.40918287 -13.80972913 2.61370151 -11 0 C-7.12534507 -1.29155164 -3.8605882 -1.19422865 0 0 Z" transform="translate(161 235)"/><path fill="#E9ECED" d="M0 0 C1.875 1.5 1.875 1.5 3 3 C3.350625 2.505 3.70125 2.01 4.0625 1.5 C6.99435344 -0.76982201 9.40895535 -0.3264586 13 0 C15 2 15 2 15.265625 4.3125 C15.26046875 5.199375 15.2553125 6.08625 15.25 7 C15.25515625 7.886875 15.2603125 8.77375 15.265625 9.6875 C15 12 15 12 13 14 C9.08656623 14.21741299 5.76993838 13.97739143 2 13 C1.01 13.495 1.01 13.495 0 14 C-3.5 14.1875 -3.5 14.1875 -7 14 C-9.52017426 11.47982574 -9.29730377 10.48500151 -9.3125 7 C-9.32925781 6.113125 -9.34601563 5.22625 -9.36328125 4.3125 C-9.24339844 3.549375 -9.12351563 2.78625 -9 2 C-5.53076119 -0.31282587 -4.07794425 -0.42478586 0 0 Z" transform="translate(258 281)"/><path fill="#0F2C40" d="M0 0 C2.50041894 0.08168338 3.83455801 0.19140582 6.0625 1.375 C7.64683618 4.44465135 7.42498449 6.92931143 7.0625 10.3125 C6.0625 12.25 6.0625 12.25 4.0625 13.3125 C1.28022014 13.82838106 -1.16562414 13.92334998 -3.9375 13.3125 C-6 11.1875 -6 11.1875 -6.9375 8.3125 C-6.60592918 2.67579604 -5.95938361 0.47296695 0 0 Z" transform="translate(322.938 204.688)"/><path fill="#1B374A" d="M0 0 C2 2 2 2 2.265625 4.3125 C2.26046875 5.199375 2.2553125 6.08625 2.25 7 C2.25515625 7.886875 2.2603125 8.77375 2.265625 9.6875 C2 12 2 12 0 14 C-3.5 14.25 -3.5 14.25 -7 14 C-9 12 -9 12 -9.1953125 9.3984375 C-9.17210937 8.40070313 -9.14890625 7.40296875 -9.125 6.375 C-9.10695313 5.37210937 -9.08890625 4.36921875 -9.0703125 3.3359375 C-9.04710937 2.56507813 -9.02390625 1.79421875 -9 1 C-5.98675805 -0.50662097 -3.31713623 -0.17770373 0 0 Z" transform="translate(408 281)"/><path fill="#1D394B" d="M0 0 C3.5 0.25 3.5 0.25 5.5 2.25 C5.765625 4.5625 5.765625 4.5625 5.75 7.25 C5.75515625 8.136875 5.7603125 9.02375 5.765625 9.9375 C5.5 12.25 5.5 12.25 3.5 14.25 C0 14.5 0 14.5 -3.5 14.25 C-5.5 12.25 -5.5 12.25 -5.765625 9.9375 C-5.76046875 9.050625 -5.7553125 8.16375 -5.75 7.25 C-5.75515625 6.363125 -5.7603125 5.47625 -5.765625 4.5625 C-5.30264583 0.53185785 -3.88850494 0.27775035 0 0 Z" transform="translate(267.5 280.75)"/><path fill="#E7EAEC" d="M0 0 C2.4375 2.375 2.4375 2.375 4 5 C4 5.99 4 6.98 4 8 C-1.94 8 -7.88 8 -14 8 C-12 2 -12 2 -9.8125 0.0625 C-6.03803207 -1.36341011 -3.86026811 -1.12298709 0 0 Z" transform="translate(408 234)"/><path fill="#213D4F" d="M0 0 C6.93359375 -0.09765625 6.93359375 -0.09765625 9 0 C10 1 10 1 10.125 3.9375 C10 7 10 7 9 9 C9.89363605 11.60931266 9.89363605 11.60931266 11 14 C9.68 13.67 8.36 13.34 7 13 C6.67 11.68 6.34 10.36 6 9 C5.01 9 4.02 9 3 9 C3 10.65 3 12.3 3 14 C2.01 14 1.02 14 0 14 C0 9.38 0 4.76 0 0 Z" transform="translate(386 281)"/><path fill="#334C5D" d="M0 0 C4 1 4 1 5.75 3.5625 C6.1625 4.366875 6.575 5.17125 7 6 C7.33 4.02 7.66 2.04 8 0 C8.99 0 9.98 0 11 0 C11 4.62 11 9.24 11 14 C9.68 13.67 8.36 13.34 7 13 C5.25 9.9375 5.25 9.9375 4 7 C3.67 9.31 3.34 11.62 3 14 C2.01 14 1.02 14 0 14 C0 9.38 0 4.76 0 0 Z" transform="translate(276 281)"/><path fill="#2E4859" d="M0 0 C6.8359375 -0.1953125 6.8359375 -0.1953125 9 0 C9.66 0.66 10.32 1.32 11 2 C10.625 5.125 10.625 5.125 10 8 C7.69 8.33 5.38 8.66 3 9 C3 10.65 3 12.3 3 14 C2.01 14 1.02 14 0 14 C0 9.38 0 4.76 0 0 Z" transform="translate(426 281)"/><path fill="#2F4959" d="M0 0 C1.32 0 2.64 0 4 0 C5.32 2.31 6.64 4.62 8 7 C8.33 4.69 8.66 2.38 9 0 C9.66 0 10.32 0 11 0 C11 4.62 11 9.24 11 14 C6.47653527 11.73826764 5.94171334 10.46594067 4 6 C3.67 8.64 3.34 11.28 3 14 C2.01 14 1.02 14 0 14 C0 9.38 0 4.76 0 0 Z" transform="translate(340 281)"/><path fill="#3B5363" d="M0 0 C1.9453125 -0.29296875 1.9453125 -0.29296875 4.125 -0.1875 C5.40375 -0.125625 6.6825 -0.06375 8 0 C8.33 1.32 8.66 2.64 9 4 C6.69 3.67 4.38 3.34 2 3 C2 5.64 2 8.28 2 11 C3.32 11 4.64 11 6 11 C6.33 10.34 6.66 9.68 7 9 C6.01 9 5.02 9 4 9 C4 8.01 4 7.02 4 6 C5.98 6 7.96 6 10 6 C10.21917317 8.70313576 10.32851983 10.43958382 8.9375 12.8125 C5.91496844 14.66501934 3.45067281 14.37643703 0 14 C-1.99825961 11.00261059 -2.27550398 10.36652492 -2.25 7 C-2.25515625 6.319375 -2.2603125 5.63875 -2.265625 4.9375 C-2 3 -2 3 0 0 Z" transform="translate(374 281)"/><path fill="#264152" d="M0 0 C3.625 -0.1875 3.625 -0.1875 7 0 C7.66 1.32 8.32 2.64 9 4 C6.69 3.67 4.38 3.34 2 3 C2 5.64 2 8.28 2 11 C3.32 11 4.64 11 6 11 C6.33 10.34 6.66 9.68 7 9 C6.01 9 5.02 9 4 9 C4 8.01 4 7.02 4 6 C5.65 6 7.3 6 9 6 C9.125 8.875 9.125 8.875 9 12 C7 14 7 14 3.5 14.3125 C1.7675 14.1578125 1.7675 14.1578125 0 14 C-1.99825961 11.00261059 -2.27550398 10.36652492 -2.25 7 C-2.25515625 6.319375 -2.2603125 5.63875 -2.265625 4.9375 C-2 3 -2 3 0 0 Z" transform="translate(356 281)"/><path fill="#233E50" d="M0 0 C1.670625 0.061875 1.670625 0.061875 3.375 0.125 C3.705 1.445 4.035 2.765 4.375 4.125 C2.065 3.465 -0.245 2.805 -2.625 2.125 C-2.295 3.115 -1.965 4.105 -1.625 5.125 C1.38347418 6.35020264 1.38347418 6.35020264 4.375 7.125 C4.41754356 9.12454746 4.41580783 11.12541636 4.375 13.125 C3.375 14.125 3.375 14.125 1.52734375 14.22265625 C-0.5234375 14.19010417 -2.57421875 14.15755208 -4.625 14.125 C-4.955 12.805 -5.285 11.485 -5.625 10.125 C-4.635 10.125 -3.645 10.125 -2.625 10.125 C-2.625 10.785 -2.625 11.445 -2.625 12.125 C-0.975 12.125 0.675 12.125 2.375 12.125 C2.375 11.135 2.375 10.145 2.375 9.125 C0.065 8.465 -2.245 7.805 -4.625 7.125 C-5.25 4.75 -5.25 4.75 -5.625 2.125 C-3.625 0.125 -3.625 0.125 0 0 Z" transform="translate(294.625 280.875)"/><path fill="#314B5B" d="M0 0 C0.99 0 1.98 0 3 0 C3.33 3.63 3.66 7.26 4 11 C5.32 11 6.64 11 8 11 C8.33 7.37 8.66 3.74 9 0 C9.66 0 10.32 0 11 0 C11.05389087 1.95803507 11.09274217 3.91648909 11.125 5.875 C11.14820313 6.96554687 11.17140625 8.05609375 11.1953125 9.1796875 C11 12 11 12 9 14 C5.5 14.3125 5.5 14.3125 2 14 C-0.28062828 10.57905758 -0.21925007 9.31812778 -0.125 5.3125 C-0.10695313 4.31863281 -0.08890625 3.32476562 -0.0703125 2.30078125 C-0.04710937 1.54152344 -0.02390625 0.78226562 0 0 Z" transform="translate(301 281)"/><path fill="#81919B" d="M0 0 C3.0625 0.1875 3.0625 0.1875 5.0625 2.1875 C4.49431818 7.75568182 4.49431818 7.75568182 3.0625 9.1875 C0.125 9.4375 0.125 9.4375 -2.9375 9.1875 C-4.9375 6.1875 -4.9375 6.1875 -4.625 3.5625 C-3.63731654 0.1505026 -3.65603948 0.23336422 0 0 Z" transform="translate(432.938 256.813)"/><path fill="#193548" d="M0 0 C0.33 1.65 0.66 3.3 1 5 C0.34 5 -0.32 5 -1 5 C-1.33 4.34 -1.66 3.68 -2 3 C-3.32 3 -4.64 3 -6 3 C-6 5.64 -6 8.28 -6 11 C-4.68 11 -3.36 11 -2 11 C-1.67 10.34 -1.34 9.68 -1 9 C-0.34 9 0.32 9 1 9 C0.67 10.65 0.34 12.3 0 14 C-3.375 14.125 -3.375 14.125 -7 14 C-9.52017426 11.47982574 -9.29730377 10.48500151 -9.3125 7 C-9.32925781 6.113125 -9.34601563 5.22625 -9.36328125 4.3125 C-9.24339844 3.549375 -9.12351563 2.78625 -9 2 C-5.5647952 -0.29013653 -4.014669 -0.17842973 0 0 Z" transform="translate(258 281)"/><path fill="#153245" d="M0 0 C0.66 0 1.32 0 2 0 C2.33 3.63 2.66 7.26 3 11 C4.32 11 5.64 11 7 11 C7.33 7.37 7.66 3.74 8 0 C8.66 0 9.32 0 10 0 C10.05389087 1.95803507 10.09274217 3.91648909 10.125 5.875 C10.14820313 6.96554687 10.17140625 8.05609375 10.1953125 9.1796875 C10 12 10 12 8 14 C4.4375 14.1875 4.4375 14.1875 1 14 C0 13 0 13 -0.09765625 10.05859375 C-0.08605469 8.86363281 -0.07445312 7.66867187 -0.0625 6.4375 C-0.05347656 5.23996094 -0.04445313 4.04242188 -0.03515625 2.80859375 C-0.02355469 1.88175781 -0.01195312 0.95492188 0 0 Z" transform="translate(413 281)"/><path fill="#E1E5E7" d="M0 0 C4.70588235 0.70588235 4.70588235 0.70588235 6 2 C6.1875 4.9375 6.1875 4.9375 6 8 C5.34 8.66 4.68 9.32 4 10 C1.375 9.625 1.375 9.625 -1 9 C-1.09765625 2.84765625 -1.09765625 2.84765625 -1 1 C-0.67 0.67 -0.34 0.34 0 0 Z" transform="translate(265 283)"/><path fill="#233E50" d="M0 0 C3.63 0 7.26 0 11 0 C11 0.66 11 1.32 11 2 C9.68 2 8.36 2 7 2 C7 5.96 7 9.92 7 14 C6.01 14 5.02 14 4 14 C4 10.04 4 6.08 4 2 C2.68 2 1.36 2 0 2 C0 1.34 0 0.68 0 0 Z" transform="translate(322 281)"/><path fill="#E8EAEC" d="M0 0 C1.67542976 0.28604898 3.34385343 0.61781233 5 1 C5.09765625 7.15234375 5.09765625 7.15234375 5 9 C4 10 4 10 1.4375 10.0625 C0.633125 10.041875 -0.17125 10.02125 -1 10 C-1.02689216 8.52093108 -1.04634621 7.04172517 -1.0625 5.5625 C-1.07410156 4.73878906 -1.08570313 3.91507812 -1.09765625 3.06640625 C-1 1 -1 1 0 0 Z" transform="translate(402 283)"/><path fill="#2D4758" d="M0 0 C0.99 0 1.98 0 3 0 C3 3.96 3 7.92 3 12 C4.98 12 6.96 12 9 12 C9 12.66 9 13.32 9 14 C6.03 14 3.06 14 0 14 C0 9.38 0 4.76 0 0 Z" transform="translate(315 281)"/><path fill="#F1F3F4" d="M0 0 C3 2 3 2 3.6875 4.625 C3.8421875 5.800625 3.8421875 5.800625 4 7 C5.98 7.66 7.96 8.32 10 9 C10 9.99 10 10.98 10 12 C8.35 12 6.7 12 5 12 C5 11.34 5 10.68 5 10 C4.01 10 3.02 10 2 10 C1.34 11.32 0.68 12.64 0 14 C0 9.38 0 4.76 0 0 Z" transform="translate(287 281)"/><path fill="#EBEEEF" d="M0 0 C2.69082872 0.17635452 5.32851446 0.61835921 8 1 C8 1.66 8 2.32 8 3 C6.02 3.33 4.04 3.66 2 4 C2 4.99 2 5.98 2 7 C2.99 7 3.98 7 5 7 C4.67 7.99 4.34 8.98 4 10 C2.35 9.67 0.7 9.34 -1 9 C-1.09765625 2.84765625 -1.09765625 2.84765625 -1 1 C-0.67 0.67 -0.34 0.34 0 0 Z" transform="translate(376 283)"/><path fill="#344D5D" d="M0 0 C2.475 0.495 2.475 0.495 5 1 C5.12375 1.886875 5.2475 2.77375 5.375 3.6875 C5.94412736 6.70387502 6.76614436 9.20326054 8 12 C6.68 11.67 5.36 11.34 4 11 C3.896875 10.360625 3.79375 9.72125 3.6875 9.0625 C3.460625 8.381875 3.23375 7.70125 3 7 C2.01 6.67 1.02 6.34 0 6 C0 4.02 0 2.04 0 0 Z" transform="translate(389 283)"/><path fill="#2F4859" d="M0 0 C2.475 0.495 2.475 0.495 5 1 C5 4.3 5 7.6 5 11 C3.68 11.33 2.36 11.66 1 12 C1.01160156 11.30132812 1.02320313 10.60265625 1.03515625 9.8828125 C1.04417969 8.97273438 1.05320312 8.06265625 1.0625 7.125 C1.07410156 6.22007812 1.08570313 5.31515625 1.09765625 4.3828125 C1.16249257 1.9831415 1.16249257 1.9831415 0 0 Z" transform="translate(405 282)"/><path fill="#DBDFE2" d="M0 0 C4.75 0.875 4.75 0.875 7 2 C7.33 1.34 7.66 0.68 8 0 C8.33 0.33 8.66 0.66 9 1 C8.91062197 2.52519276 8.75462854 4.04681929 8.5625 5.5625 C8.46066406 6.38878906 8.35882813 7.21507812 8.25390625 8.06640625 C8.17011719 8.70449219 8.08632813 9.34257812 8 10 C7.67 10 7.34 10 7 10 C7 8.35 7 6.7 7 5 C4.69 4.34 2.38 3.68 0 3 C0 2.01 0 1.02 0 0 Z" transform="translate(292 283)"/><path fill="#143144" d="M0 0 C0.66 0 1.32 0 2 0 C2.05389087 1.95803507 2.09274217 3.91648909 2.125 5.875 C2.14820313 6.96554687 2.17140625 8.05609375 2.1953125 9.1796875 C2 12 2 12 0 14 C-2.625 14.125 -2.625 14.125 -5 14 C-5 13.34 -5 12.68 -5 12 C-3.68 11.67 -2.36 11.34 -1 11 C-0.67 7.37 -0.34 3.74 0 0 Z" transform="translate(310 281)"/><path fill="#123042" d="M0 0 C2.0625 0.4375 2.0625 0.4375 4 1 C3.01 1.495 3.01 1.495 2 2 C1.72364839 6.02130715 1.72364839 6.02130715 2 10 C3.84188612 12.05270463 3.84188612 12.05270463 6 13 C3.625 13.125 3.625 13.125 1 13 C-1 11 -1 11 -1.23046875 8.65234375 C-1.21628906 7.75644531 -1.20210938 6.86054688 -1.1875 5.9375 C-1.18105469 5.03902344 -1.17460937 4.14054687 -1.16796875 3.21484375 C-1 1 -1 1 0 0 Z" transform="translate(263 282)"/><path fill="#1A3749" d="M0 0 C2.05078125 0.03255208 4.1015625 0.06510417 6.15234375 0.09765625 C6.48234375 1.41765625 6.81234375 2.73765625 7.15234375 4.09765625 C4.84234375 3.76765625 2.53234375 3.43765625 0.15234375 3.09765625 C-0.50765625 5.40765625 -1.16765625 7.71765625 -1.84765625 10.09765625 C-2.17765625 10.09765625 -2.50765625 10.09765625 -2.84765625 10.09765625 C-2.87454841 8.61858733 -2.89400246 7.13938142 -2.91015625 5.66015625 C-2.92175781 4.83644531 -2.93335938 4.01273437 -2.9453125 3.1640625 C-2.8198894 0.51010975 -2.66068535 0.14062819 0 0 Z" transform="translate(375.848 280.902)"/><path fill="#133043" d="M0 0 C0.66 0 1.32 0 2 0 C2 4.62 2 9.24 2 14 C1.01 13.67 0.02 13.34 -1 13 C-0.67 8.71 -0.34 4.42 0 0 Z" transform="translate(349 281)"/><path fill="#1A3649" d="M0 0 C0.99 0 1.98 0 3 0 C2.67 4.62 2.34 9.24 2 14 C1.34 14 0.68 14 0 14 C0 9.38 0 4.76 0 0 Z" transform="translate(276 281)"/><path fill="#EAEDEE" d="M0 0 C2.0625 0.4375 2.0625 0.4375 4 1 C3.01 1.33 2.02 1.66 1 2 C1.33 3.65 1.66 5.3 2 7 C2.99 7 3.98 7 5 7 C4.67 7.99 4.34 8.98 4 10 C2.35 9.67 0.7 9.34 -1 9 C-1.09765625 2.84765625 -1.09765625 2.84765625 -1 1 C-0.67 0.67 -0.34 0.34 0 0 Z" transform="translate(358 283)"/><path fill="#D0D6DA" d="M0 0 C0.99 0.33 1.98 0.66 3 1 C3 3.97 3 6.94 3 10 C2.01 10.33 1.02 10.66 0 11 C-1.76062164 7.67438135 -2.10784228 6.40826005 -1.125 2.6875 C-0.568125 1.3571875 -0.568125 1.3571875 0 0 Z" transform="translate(396 283)"/><path fill="#536977" d="M0 0 C2.0625 2.3125 2.0625 2.3125 4 5 C3.67 5.99 3.34 6.98 3 8 C2.34 7.34 1.68 6.68 1 6 C0.67 8.31 0.34 10.62 0 13 C-0.33 13 -0.66 13 -1 13 C-1.02696365 11.20841511 -1.04637917 9.41671527 -1.0625 7.625 C-1.07410156 6.62726563 -1.08570313 5.62953125 -1.09765625 4.6015625 C-1 2 -1 2 0 0 Z" transform="translate(279 282)"/><path fill="#334C5C" d="M0 0 C0.99 0 1.98 0 3 0 C3 0.66 3 1.32 3 2 C5.97 2.495 5.97 2.495 9 3 C9 3.33 9 3.66 9 4 C6.36 4 3.72 4 1 4 C0.67 2.68 0.34 1.36 0 0 Z" transform="translate(289 291)"/><path fill="#344D5E" d="M0 0 C1.65 0 3.3 0 5 0 C5 1.98 5 3.96 5 6 C4.34 6 3.68 6 3 6 C3 5.01 3 4.02 3 3 C2.01 3 1.02 3 0 3 C0 2.01 0 1.02 0 0 Z" transform="translate(360 287)"/><path fill="#EAECEE" d="M0 0 C2.97 0.495 2.97 0.495 6 1 C6 1.99 6 2.98 6 4 C4.35 4 2.7 4 1 4 C0.67 2.68 0.34 1.36 0 0 Z" transform="translate(291 289)"/><path fill="#ECEEEF" d="M0 0 C2.475 0.495 2.475 0.495 5 1 C5 1.99 5 2.98 5 4 C3.35 4 1.7 4 0 4 C0 2.68 0 1.36 0 0 Z" transform="translate(429 283)"/><path fill="#EBEDEF" d="M0 0 C2.475 0.495 2.475 0.495 5 1 C5 1.99 5 2.98 5 4 C3.35 4 1.7 4 0 4 C0 2.68 0 1.36 0 0 Z" transform="translate(389 283)"/><path fill="#294455" d="M0 0 C0.33 0 0.66 0 1 0 C1.33 4.62 1.66 9.24 2 14 C1.01 13.67 0.02 13.34 -1 13 C-0.67 8.71 -0.34 4.42 0 0 Z" transform="translate(303 281)"/><path fill="#274153" d="M0 0 C2.31 0 4.62 0 7 0 C7.66 1.32 8.32 2.64 9 4 C5.85262818 3.30058404 2.97411124 2.23921302 0 1 C0 0.67 0 0.34 0 0 Z" transform="translate(264 281)"/><path fill="#8A98A1" d="M0 0 C1.32 0 2.64 0 4 0 C4 1.65 4 3.3 4 5 C2.68 5 1.36 5 0 5 C0 3.35 0 1.7 0 0 Z" transform="translate(431 260)"/><path fill="#264152" d="M0 0 C1.67542976 0.28604898 3.34385343 0.61781233 5 1 C5 2.32 5 3.64 5 5 C4.34 5 3.68 5 3 5 C2.67 4.34 2.34 3.68 2 3 C1.01 2.34 0.02 1.68 -1 1 C-0.67 0.67 -0.34 0.34 0 0 Z" transform="translate(254 281)"/><path fill="#153245" d="M0 0 C1.65 0 3.3 0 5 0 C5.66 1.32 6.32 2.64 7 4 C4.36 3.34 1.72 2.68 -1 2 C-0.67 1.34 -0.34 0.68 0 0 Z" transform="translate(358 281)"/></svg>