<svg xmlns="http://www.w3.org/2000/svg" role="img" xmlns:xlink="http://www.w3.org/1999/xlink" viewBox="1.73 2.23 209.04 52.54"><title>Metoro (member) logo</title><defs><path d="M5.89063-43.73438h8.8125L25.875-13.96874l11.21875-29.76563h8.8125V0h-5.76563v-38.40625l-11.28124 30h-5.95313l-11.28125-30V0H5.89062zm0 0" id="a"/><path d="M33.71875-17.75v2.625H8.9375c.22656 3.71875 1.34375 6.55469 3.34375 8.5 2.00781 1.9375 4.80078 2.90625 8.375 2.90625 2.07031 0 4.07813-.2539 6.01563-.76563 1.9453-.5078 3.8789-1.26953 5.79687-2.28125v5.09375c-1.9375.82422-3.92188 1.44922-5.95313 1.875-2.03124.42579-4.09374.64063-6.1875.64063-5.23046 0-9.375-1.51953-12.4375-4.5625C4.83595-6.76953 3.3125-10.89063 3.3125-16.07813c0-5.375 1.44531-9.64062 4.34375-12.79687 2.90625-3.15625 6.8164-4.73438 11.73438-4.73438 4.41406 0 7.90624 1.42188 10.46874 4.26563C32.4297-26.5 33.71876-22.63281 33.71876-17.75zm-5.39063-1.59375c-.04296-2.94531-.87109-5.29688-2.48437-7.04688-1.60547-1.7578-3.73438-2.64062-6.39063-2.64062-3.01171 0-5.42187.85156-7.23437 2.54688-1.80469 1.69921-2.83984 4.08984-3.10938 7.17187zm0 0" id="b"/><path d="M10.98438-42.125v9.3125h11.10937v4.1875H10.98437v17.8125c0 2.67969.36329 4.39844 1.09375 5.15625.73829.76172 2.22657 1.14063 4.46875 1.14063h5.54688V0h-5.54688C12.39063 0 9.51954-.77344 7.9375-2.32813c-1.58594-1.55078-2.375-4.3789-2.375-8.48437V-28.625H1.60937v-4.1875H5.5625v-9.3125zm0 0" id="c"/><path d="M18.375-29.03125c-2.89844 0-5.1836 1.13281-6.85938 3.39063C9.83595-23.39063 9-20.30079 9-16.375c0 3.92969.83203 7.02344 2.5 9.28125 1.66406 2.25 3.95703 3.375 6.875 3.375 2.86328 0 5.13281-1.1289 6.8125-3.39063 1.6875-2.26953 2.53125-5.35937 2.53125-9.26562 0-3.88281-.84375-6.96094-2.53125-9.23438-1.67969-2.28124-3.94922-3.42187-6.8125-3.42187zm0-4.57813c4.6875 0 8.36328 1.52735 11.03125 4.57813 2.67578 3.04297 4.01563 7.26172 4.01563 12.65625 0 5.36719-1.33985 9.57813-4.01563 12.64063C26.73828-.6797 23.0625.84375 18.375.84375c-4.71094 0-8.39844-1.52344-11.0625-4.57813-2.66797-3.0625-4-7.27343-4-12.64062 0-5.39453 1.33203-9.61328 4-12.65625 2.66406-3.05078 6.35156-4.57813 11.0625-4.57813zm0 0" id="d"/><path d="M24.67188-27.78125c-.60547-.34375-1.26563-.59766-1.98438-.76563-.71094-.16406-1.4961-.25-2.35938-.25-3.04296 0-5.3828.9922-7.01562 2.96876C11.6875-23.84766 10.875-21 10.875-17.28126V0H5.45312v-32.8125H10.875v5.09375c1.125-1.98828 2.59375-3.46875 4.40625-4.4375 1.82031-.96875 4.03516-1.45313 6.64063-1.45313.36328 0 .76953.02735 1.21874.07813.44532.05469.94532.125 1.5.21875zm0 0" id="e"/></defs><use y="50" xlink:href="#a"/><use x="51.768" y="50" xlink:href="#b"/><use x="88.682" y="50" xlink:href="#c"/><use x="112.207" y="50" xlink:href="#d"/><use x="148.916" y="50" xlink:href="#e"/><use x="173.584" y="50" xlink:href="#d"/></svg>