<svg xmlns="http://www.w3.org/2000/svg" role="img" viewBox="-36.18 -36.18 1881.36 500.36"><title>MIA s.r.l. logo</title><path fill="#F93" d="M69.4074 32.6108l41.2006 23.89v47.7802l-41.2006 23.522-41.2378-23.816V56.5008l41.2378-23.89zm0-32.0494L.42041 40.3658v79.6452l68.98699 39.842 68.9506-39.842V40.3658L69.4074.5614z"/><path fill="#F03F44" d="M145.712 164.899l41.311 23.854v47.78l-41.311 23.522-41.201-23.78v-47.522l41.201-23.78v-.074zm0-31.976l-68.9503 39.731V252.3l68.9503 39.841 68.987-39.841v-79.646l-68.987-39.804v.073z"/><path fill="#1890FF" d="M222.391 297.273l41.201 23.816v47.78l-41.201 23.78-41.238-24v-47.56l41.238-23.779v-.037zm0-32.049l-68.987 39.804v79.646l68.987 39.804 68.95-39.804v-79.646l-68.95-39.841v.037z"/><path fill="#26A570" d="M69.0798 297.273l41.2012 23.816v47.78l-41.2012 23.78-41.2011-24v-47.56l41.2011-23.78v-.036zm0-32.05L.09277 305.028v79.645l68.98703 39.805 68.9872-39.805v-79.645l-68.9872-39.841v.036z"/><path fill="#5F36DD" d="M298.348 164.901l41.238 23.853v47.78l-41.238 23.523-41.201-23.78v-47.523l41.201-23.78v-.073zm0-31.976l-68.987 39.731v79.646l68.987 39.841 68.987-39.841v-79.646l-68.987-39.804v.073z"/><path fill="#414748" d="M450.514 35.6927h16.135v11.504c-.003 2.1237-.113 4.2459-.331 6.3584h.331c2.618-5.7838 6.806-10.717 12.088-14.2386 5.282-3.5215 11.447-5.4902 17.793-5.682 14.701 0 23.191 6.6892 26.132 19.7368h.331a34.97901 34.97901 0 0 1 12.662-14.2425c5.457-3.4845 11.774-5.3865 18.248-5.4943 19.589 0 28.704 11.0262 28.704 33.3358v55.6457h-16.686V70.5721c0-12.2022-2.389-21.8317-15.437-21.8317-12.202 0-21.317 10.3278-24.404 22.0523a52.54753 52.54753 0 0 0-1.213 12.0185v39.8048h-16.65V70.5721c0-11.3569-1.727-21.8317-15.105-21.8317-12.717 0-21.648 10.4748-24.919 22.8609-.785 3.7201-1.131 7.5195-1.03 11.3201v39.6946h-16.649V35.6927zM603.888 1.34509h16.834V18.3621h-16.834V1.34509zm.184 34.36491h16.65v86.923h-16.65V35.71zm84.669 32.6233h3.675v-1.5436c0-14.2605-8.086-19.0753-19.075-19.0753-8.729.345-17.159 3.2743-24.221 8.4167l-6.873-12.2023c9.454-6.8105 20.839-10.4167 32.49-10.2911 22.053 0 34.328 12.0185 34.328 33.9973v54.984h-15.436v-8.233c-.007-2.295.103-4.589.331-6.873h-.331c-2.491 5.237-6.443 9.643-11.378 12.688-4.936 3.045-10.647 4.599-16.445 4.476-14.959 0-29.403-9.115-29.403-26.4628-.037-28.668 37.746-29.8809 52.338-29.8809zm-19.223 42.9287c14.077 0 23.192-14.7017 23.192-27.6391v-2.7565h-4.3c-12.533 0-35.21.8821-35.21 16.5025 0 7.0571 5.476 13.8931 16.318 13.8931zm-218.526 54.057h94.715c47.376 0 81.52 31.939 81.52 81.116s-34.144 82.218-81.52 82.218h-58.365v95.818h-36.35V165.319zm88.871 131.763c31.204 0 50.316-19.443 50.316-50.647 0-31.204-19.112-49.544-49.948-49.544h-52.889v100.191h52.521zm117.068-131.763h35.614v202.147c0 22.419 8.821 26.426 19.847 26.426 2.088-.008 4.174-.131 6.249-.368v31.572c-3.903.475-7.83.721-11.762.735-20.177 0-49.948-5.477-49.948-52.117V165.319zm189.059 143.16h8.086v-3.308c0-30.469-17.238-40.76-40.724-40.76-28.668 0-51.786 18.009-51.786 18.009l-14.701-26.058c20.167-14.575 44.473-22.304 69.354-22.053 47.008 0 73.508 25.728 73.508 72.699v117.613h-33.079v-17.605c-.013-4.91.232-9.818.736-14.702h-.736c-5.301 11.217-13.739 20.657-24.293 27.18-10.554 6.522-22.771 9.848-35.174 9.574-31.939 0-63.143-19.443-63.143-56.527 0-61.49 80.748-64.062 111.952-64.062zm-41.091 91.884c30.101 0 49.544-31.571 49.544-59.1v-5.881h-9.151c-26.831 0-75.272 1.838-75.272 35.247 0 14.959 11.761 29.624 34.879 29.624v.11zM942.17 269.94h-24.221v-28.631h25.324v-53.587h34.511v53.587h44.806v28.631h-44.806v82.623c0 37.047 26.096 41.826 39.656 41.826 2.84.034 5.67-.212 8.46-.736v31.572c-4.15.512-8.32.757-12.5.735-23.854 0-71.23-7.351-71.23-69.354V269.94zm126.29-.006h-23.12v-28.631h23.12v-8.821c0-61.306 46.27-68.987 69.83-68.987 4.56-.039 9.11.33 13.6 1.102v30.469c-3.03-.518-6.11-.764-9.19-.735-13.6 0-38.92 4.411-38.92 38.886v8.086h44.11v28.631h-44.11v154.55h-35.25l-.07-154.55zm192.74-35.606c55.42 0 100.23 40.76 100.23 96.92 0 56.16-44.81 97.655-100.23 97.655-55.43 0-100.19-41.091-100.19-97.655s44.76-96.92 100.19-96.92zm0 163.739c35.25 0 63.88-27.896 63.88-66.819 0-38.922-28.63-66.157-63.88-66.157s-63.88 27.566-63.88 66.157c0 38.592 29 66.819 63.88 66.819zm135.02-159.356h34.51v32.307c0 4.665-.24 9.327-.73 13.966h.73c8.42-27.161 30.1-48.478 58.81-48.478 3.06.02 6.12.266 9.15.735v35.247c-3.37-.715-6.81-1.084-10.25-1.102-22.76 0-43.71 16.171-52.16 43.7-3.1 10.858-4.58 22.117-4.37 33.409v75.97h-35.69V238.711zm130.42.028h34.51v24.625c-.01 4.531-.27 9.059-.77 13.562h.77c8.78-21.648 34.84-42.598 63.88-42.598 31.17 0 49.54 14.334 55.79 42.231h.74c6.02-12.48 15.4-23.039 27.09-30.496 11.68-7.457 25.2-11.52 39.06-11.735 41.83 0 61.31 23.89 61.31 71.229v118.936h-35.69V313.276c0-26.059-5.15-46.641-33.08-46.641-26.06 0-45.54 22.052-52.15 47.376-1.85 8.447-2.7 17.082-2.54 25.727v84.792h-35.72V313.276c0-24.221-3.68-46.641-32.31-46.641-27.16 0-46.27 22.42-53.26 48.846-1.69 7.957-2.43 16.088-2.2 24.221v84.791h-35.58l.15-185.754z"/><path fill="#F93" d="M69.4079 32.5931l41.2011 23.89v47.7799l-41.2011 23.523-41.2378-23.817V56.4831l41.2378-23.89zm0-32.0494L.4209 40.3481v79.6459l68.987 39.841 68.9501-39.841V40.3481L69.4079.5437z"/></svg>