<svg xmlns="http://www.w3.org/2000/svg" role="img" viewBox="-19.18 -19.18 997.36 997.36"><title>Montreal AI Ethics Institute logo</title><path d="M0 480v480h960V0H0v480zm740.6-88.5c-.3.9-1.5 4.7-2.7 8.5l-2.1 7h-40.7c-44.1 0-46.6.3-53.3 5.4-1.9 1.4-4.3 4.4-5.3 6.5-1.9 4.4-1.6 4.4-11.2-.7L621 416l2.5-5.6c4.6-10.4 12.1-17 22-19.5 1.7-.4 23.9-.7 49.4-.8 41.2-.1 46.2.1 45.7 1.4zM174.1 400c2.1 4.7 16.9 37.5 32.9 73 15.9 35.5 29.5 64.5 30.1 64.5.7 0 16.1-33 34.3-73.3l33-73.2H326v176h-16v-73.7c0-40.7-.4-73.3-.9-72.7-.4.5-10.2 21.8-21.6 47.4-11.5 25.6-26.1 58.2-32.5 72.5l-11.7 26h-12.7l-11.3-25c-6.2-13.8-21.1-46.8-33.1-73.4l-21.7-48.5-.5 73.5-.5 73.4-7.7.3-7.8.3V390.9l11.1.3 11.2.3 3.8 8.5zm294.1 37c26.5 67.6 36.4 92.6 44 111.8 3.7 9.6 6.8 17.6 6.8 17.8 0 .3-3.9.3-8.6.2l-8.7-.3-9.9-25.3-10-25.2H398.5l-10 25.3-10 25.2-8.4.3c-7.6.3-8.3.1-7.8-1.5.3-1 5.3-14 11.2-28.8 5.8-14.9 14.8-37.8 20-51 5.2-13.2 14.2-36.2 20-51 5.9-14.9 12.1-30.7 13.8-35.3l3.2-8.3 9.9.3 10 .3 17.8 45.5zM571 479v88h-16V391h16v88zm247 0v88h-16V391h16v88zm-97-7v9h-67v-18h67v9zm23.7 66.9l6.2 3-1.3 3.9c-4.6 13-13.6 20-28.2 22.2-8.1 1.1-90.7 1.4-90.2.2.2-.4 1.6-4.2 3.2-8.5l2.9-7.7h38.3c23.5 0 40.2-.4 43.3-1.1 6.2-1.3 12.3-5.6 15.3-10.9 1.3-2.2 2.8-4 3.3-4 .6 0 3.8 1.3 7.2 2.9z"/><path d="M429.8 434.7c-5.3 13.7-13.2 33.8-17.6 44.8l-7.9 20 35.5.3c19.5.1 35.6.1 35.8-.1.5-.5-34.8-89.7-35.5-89.7-.3 0-5 11.1-10.3 24.7z"/></svg>