<svg xmlns="http://www.w3.org/2000/svg" role="img" viewBox="-3.38 -3.38 175.63 31.38"><title>Moxa Inc. logo</title><g fill="#008880" fill-rule="evenodd"><path d="M165.16151 2.97269V1.62147h.853c.58644 0 .853.21619.853.70263 0 .4324-.31988.64859-1.01294.64859h-.69306zm2.1858 1.72956l-.95961-1.45932c.53312-.1081.79968-.4324.79968-.91883 0-.64859-.4265-.97288-1.17287-.97288h-1.17287V4.8644h.31987V3.29698h.90631l.95962 1.51337v.05405h.3732l-.05332-.16215zm-55.9246 7.67493c-.15993-.1081-.15993-.32429 0-.43239L123.8978 1.56742c.15994-.1081.10663-.2162-.05331-.2162h-9.1164c-.21325 0-.47982.1081-.63975.2162l-7.46372 6.32371c-.15994.1081-.37319.1081-.53313 0l-7.4104-6.32371c-.15994-.1081-.4265-.2162-.63976-.2162h-9.1164c-.21325 0-.21325.1081-.05331.2162l12.47508 10.37737c.15994.1081.15994.3243 0 .4324l-13.11483 11.08c-.15994.1081-.26656.2162-.26656.27025h8.95647c.21325 0 .4798-.1081.63974-.2162l8.58329-7.1885c.15993-.10809.37318-.10809.53312 0l8.6366 7.1885c.15993.1081.42649.2162.63974.2162h8.95647l-.26657-.27025-13.22145-11.08z"/><path d="M167.08076 23.72744c.21325 0 .26656-.1081.10662-.27025L150.12745 1.62147c-.10663-.16215-.3732-.27025-.58644-.27025h-7.03723c-.21324 0-.4265.1081-.58643.27025l-17.00662 21.83572c-.10663.16215-.05332.27025.10662.27025h7.99685c.21325 0 .4265-.1081.53312-.27025l12.20852-16.2687c.10662-.16214.31987-.16214.4265 0l12.1552 16.2687c.10662.16215.37319.27025.53312.27025h8.2101zm-84.65994-11.4043c0 4.91844-6.13091 8.21542-13.75457 8.21542-7.57035 0-13.70127-3.35103-13.70127-8.21543s6.13092-8.21542 13.70127-8.21542c7.62366 0 13.75457 3.35103 13.75457 8.21542m7.09054 0C89.51136 5.51298 80.1817 0 68.71956 0c-11.46215 0-20.7918 5.51298-20.7918 12.32313 0 6.81016 9.32965 12.37719 20.7918 12.37719 11.46214 0 20.7918-5.56703 20.7918-12.37719m76.39653-6.5399c-1.43944 0-2.66562-1.18908-2.66562-2.70245 0-1.45931 1.17287-2.70244 2.66562-2.70244 1.43943 0 2.66561 1.18908 2.66561 2.70244 0 1.45932-1.17287 2.70245-2.66561 2.70245m0-5.67513c-1.65269 0-2.93218 1.35122-2.93218 2.97268 0 1.67552 1.3328 2.97269 2.93218 2.97269 1.65268 0 2.98548-1.35122 2.98548-2.97269 0-1.62146-1.3328-2.97268-2.98548-2.97268M34.06656 1.35122c-.21325 0-.4265.1081-.53312.27025L22.01798 18.2685c-.10662.16214-.26656.16214-.4265 0L10.02271 1.6755c-.10662-.16214-.37318-.27024-.53312-.27024H.31987C.15994 1.35122 0 1.51337 0 1.72957v21.67358c0 .2162.15994.37834.37319.37834h7.51703c.21325 0 .37319-.16215.37319-.37834V8.91805c0-.21619.10662-.21619.21325-.05404l10.3959 14.59318c.10662.16215.37318.27025.53312.27025h4.85142c.21325 0 .4265-.1081.53312-.27025l10.3959-14.64723c.10662-.16215.21325-.1081.21325.05405V23.3491c0 .2162.15994.37834.37319.37834h7.46372c.21325 0 .37318-.16215.37318-.37834V1.72956c0-.2162-.15993-.37834-.37318-.37834h-9.16972z"/></g></svg>