<svg xmlns="http://www.w3.org/2000/svg" role="img" viewBox="-6.70 66.81 413.14 111.14"><title>National Instruments Corporation logo</title><style>svg {enable-background:new 0 0 400 245}</style><style>.st19{fill:#0067ab}</style><path d="M58.82 87.61c.27-4.72 4.34-8.72 8.53-9.91 10.45-2.97 16.05-2.42 34.79-2.58-11.24 10.06-20.21 25.9-18.2 41.4-4.04-3.3-6.76-8.03-10.27-11.81 1.3-2.53 2.63-5.02 3.38-7.88 1.24-4.69 4.62-5.8 8.9-5.67.32.01-.25-3.61-1.44-3.93-3.19-.86-5.9.17-9.6-1.27-1.2-.46-2.54.16-3.54.68-3.04 1.55-4.97 4.87-8.39 5.93l-4.16-4.96zM1.51 84.57c6.4-4.37 12.59-7.38 20.18-8.77 9.57-1.75 19.93-1.88 27.08 5.01 13.49 13 24.42 26.64 36.26 41.49.47.59.43 2.18.02 2.42-8.41 4.79-16.74 8.73-25.7 12.03-1.43.53-3.22-.1-4.12-.91-13.49-12.26-22.74-26.94-35.69-39.7-4.99-4.92-10.99-8.43-17.69-10.52-.54-.16-.64-.85-.34-1.05z" class="st19"/><path d="M48.67 144.41c-9.74 6.93-18.05 15.57-24.21 25.8-2.35-10.03-2.51-20.62.97-30.36 3.39-9.48 4.03-18.69 4.49-28.57 6.15 7.09 13.15 14.93 18.9 22.04l-.15 11.09z" class="st19"/><path fill="#fff" d="M73.67 104.72c1.3-2.53 2.63-5.02 3.38-7.88 1.24-4.69 4.62-5.8 8.9-5.67.32.01-.25-3.61-1.44-3.93-3.19-.86-5.9.17-9.6-1.27-1.2-.46-2.54.16-3.54.68-3.04 1.55-4.97 4.87-8.39 5.93l10.69 12.14z"/><path d="M134.18 106.89h-6.24c-4.65-5.62-10.93-13.01-13.89-18.14h-.09v18.14h-7.34V75.92h6.77c4.47 5.49 11.15 13.54 13.36 17.74h.09V75.92h7.34v30.97zm21.64-30.97l11.77 30.97h-9.91l-2.43-7.39h-9.6l-2.96 7.39h-7.3L148 75.92h7.82zm-2.08 18.67c-1.02-3.67-1.9-6.64-3.01-11.06h-.09c-1.19 4.42-2.26 7.39-3.41 11.06h6.51zm16.81 12.3V81.71h-8.94v-5.8h27.21v5.8h-8.94v25.18h-9.33zm21.28 0V75.92h9.34v30.97h-9.34zm11.59-15.84c0-8.67 6.5-15.66 15.4-15.66 8.89 0 15.4 6.99 15.4 15.66 0 9.25-5.88 16.37-15.4 16.37s-15.4-7.12-15.4-16.37zm21.06 0c0-5.49-1.68-9.2-5.66-9.2-3.98 0-5.66 3.72-5.66 9.2 0 5.84 1.5 9.91 5.66 9.91 4.15 0 5.66-4.07 5.66-9.91zm39.55 15.84h-6.24c-4.65-5.62-10.93-13.01-13.89-18.14h-.09v18.14h-7.34V75.92h6.77c4.47 5.49 11.15 13.54 13.36 17.74h.09V75.92h7.34v30.97zm21.19-30.97l11.77 30.97h-9.91l-2.43-7.39h-9.6l-2.96 7.39h-7.3l12.61-30.97h7.82zm-2.08 18.67c-1.02-3.67-1.9-6.64-3.01-11.06h-.09c-1.19 4.42-2.26 7.39-3.41 11.06h6.51zm15.93-18.67h9.34v25.18h11.33v5.8h-20.66V75.92zM92.68 147.45v-30.97h9.34v30.97h-9.34zm40.88 0h-6.24c-4.65-5.62-10.93-13.01-13.89-18.14h-.09v18.14H106v-30.97h6.77c4.47 5.49 11.15 13.54 13.36 17.74h.09v-17.74h7.34v30.97zm19.68-24.55c-1.24-.75-2.83-1.15-4.56-1.15-1.81 0-2.74.88-2.74 1.9 0 1.73 2.61 3.14 5.62 5.93 3.98 3.72 4.96 6.06 4.96 9.29 0 2.74-2.26 9.11-11.55 9.11-3.63 0-7.26-.84-9.73-2.83l2.83-5.13c1.33 1.02 3.1 2.17 5.31 2.17 1.86 0 3.89-.93 3.89-3.23 0-2.48-3.01-4.29-5.44-6.42-3.23-2.83-5.13-4.47-5.13-8.27 0-4.96 5-8.32 10.84-8.32 3.94 0 7.04 1.42 8.1 2.08l-2.4 4.87zm12.48 24.55v-25.18h-8.94v-5.8h27.21v5.8h-8.94v25.18h-9.33zM187 116.48h13.8c7.3 0 11.24 3.19 11.24 8.27 0 4.73-2.35 7.52-5.22 8.94l6.86 13.27-10 1.02-4.91-12.26h-2.43v11.73H187v-30.97zm9.33 13.41h2.65c2.48 0 3.72-2.12 3.72-3.81 0-3.05-1.9-3.81-3.89-3.81h-2.48v7.62zm27.84-13.41v16.19c0 5.57.84 8.85 4.78 8.85 3.1 0 4.87-3.1 4.87-8.98v-16.06h8.05v18.72c0 9.25-6.28 12.79-13.36 12.79-7.92 0-13.67-3.32-13.67-12.57v-18.94h9.33zm59.42 30.97h-9.34v-21.68h-.09c-2.39 8.1-4.87 14.91-7.34 21.68h-5.88c-2.52-6.77-5.04-13.58-7.48-21.68h-.09v21.68h-7.34v-30.97h12.65c2.12 5.93 4.25 11.81 6.33 19.07h.09c1.99-7.26 4.07-13.14 6.11-19.07h12.39v30.97zm22.79-25.17h-9.47v6.11h9.25v5.8h-9.25v7.48h11.37v5.8h-20.71V116.5h18.8v5.78zm31.15 25.17h-6.24c-4.65-5.62-10.93-13.01-13.89-18.14h-.09v18.14h-7.34v-30.97h6.77c4.47 5.49 11.15 13.54 13.36 17.74h.09v-17.74h7.34v30.97zm10.62 0v-25.18h-8.94v-5.8h27.21v5.8h-8.94v25.18h-9.33zm36.54-24.55c-1.24-.75-2.83-1.15-4.56-1.15-1.81 0-2.74.88-2.74 1.9 0 1.73 2.61 3.14 5.62 5.93 3.98 3.72 4.96 6.06 4.96 9.29 0 2.74-2.26 9.11-11.55 9.11-3.63 0-7.26-.84-9.73-2.83l2.83-5.13c1.33 1.02 3.1 2.17 5.31 2.17 1.86 0 3.89-.93 3.89-3.23 0-2.48-3.01-4.29-5.44-6.42-3.23-2.83-5.13-4.47-5.13-8.27 0-4.96 5-8.32 10.84-8.32 3.94 0 7.04 1.42 8.1 2.08l-2.4 4.87zm4.95-1.09v-4.38h-1.66v-.56h4.17v.56h-1.65v4.38h-.86zm9.02 0h-.86v-3.64h-.02l-1.96 3.64h-.4l-1.82-3.64h.01-.02v3.64h-.7v-4.94h.99l1.86 3.71 2.02-3.71h.9v4.94z"/></svg>