<svg xmlns="http://www.w3.org/2000/svg" role="img" viewBox="31.02 28.02 934.96 251.46"><title>NetApp, Inc. (member) logo</title><style>svg {enable-background:new 0 0 1000 300}</style><style>.st1{fill:#001050}</style><path fill="#00bbeb" d="M49 46h30.1v25.4H49z"/><path d="M49 82.4h30.1v25.4H49zm0 36.6h30.1v25.4H49zm0 36.1h30.1v25.4H49z" class="st1"/><path d="M176.3 91.1c-2.8-3.4-6.6-6.6-11.3-8.5s-10.7-3.1-17.9-3.1c-5.6 0-11.3 1.3-16.9 4.1-4.1 1.9-7.5 4.7-10.3 8.2v-9.7H91v98.7h30.1v-51.4c0-9.1 1.6-15.7 4.4-19.4 2.8-3.8 7.2-5.6 13.8-5.6 5.6 0 9.4 1.6 11.3 5 2.2 3.4 3.1 9.1 3.1 16.3v55.5h30.1v-60.5c0-6-.6-11.3-1.6-16.3-1.2-5.1-3.1-9.5-5.9-13.3m97.8 37c-3.1-2.2-6.6-3.8-10-5-3.4-1.3-7.5-2.2-11.3-3.1s-7.5-1.6-11-2.5-6.6-1.6-9.1-2.5-4.7-1.9-6-3.1c-1.3-1.3-1.9-2.5-1.9-4.1s.3-2.5.9-3.4c.6-.9 1.6-1.6 2.8-2.2 1.3-.6 2.5-.9 4.1-.9s3.1-.3 4.7-.3c4.4 0 8.2.9 11.3 2.5 2.8 1.6 4.4 4.4 4.7 8.5v1.9h28.8v-2.2c-.6-6.3-2.2-11.3-5-15.4s-6-7.5-10-9.7c-4.1-2.5-8.5-4.1-13.5-5s-10-1.6-15.4-1.6c-5.3 0-10.3.3-15.4 1.6-5 .9-9.7 2.5-13.8 5s-7.5 5.6-10 10c-2.5 4.1-3.8 9.7-3.8 16 0 4.7.9 8.5 2.8 11.6s4.4 5.6 7.5 7.8c3.1 1.9 6.3 3.4 10 5 3.4 1.3 7.5 2.2 11.3 3.1 9.1 1.9 16.3 3.8 21.3 5.6 6.6 2.5 6.6 5.6 6.6 6.9 0 1.9-.3 3.4-1.3 4.7-.9 1.3-1.9 2.2-3.4 3.1s-3.1 1.6-5 1.9c-1.9.3-3.8.6-5.3.6-2.5 0-4.7-.3-6.9-.9-2.2-.6-4.1-1.6-5.6-2.5-1.6-1.3-2.8-2.5-3.8-4.4-.9-1.6-1.6-3.8-1.6-6.3v-1.9h-29.2v2.2c.3 6.6 1.9 12.2 4.7 16.9 2.8 4.4 6.6 8.2 10.7 11 4.1 2.8 9.1 4.7 14.7 5.6 5.3 1.3 11 1.6 16.6 1.6 5.3 0 11-.6 16.3-1.6 5.3-1.3 10.3-3.1 14.7-5.6s7.8-6.6 10.3-11c2.8-4.7 4.1-10 4.1-16.6 0-4.7-.9-8.8-2.8-12.2-2.5-4-5-6.6-7.8-9.1m57.4-74.3h-30.1V82h-15.7v21.3h15.7V157c0 5 .9 9.4 2.5 12.5s4.1 6 7.2 7.5 6.6 2.8 10.3 3.4c3.8.6 7.5.9 11.6.9h8.2c2.8 0 5.3-.3 7.5-.6l1.6-.3v-24.1l-2.5.3c-1.3.3-2.5.3-3.4.6h-4.1c-5 0-9.1-1.6-9.1-9.7v-43.9h19.1V82.4h-19.1l.3-28.6zm284.6 117.9c2.8 3.4 6.6 6.6 11.3 8.5s10.7 3.1 17.9 3.1c5.6 0 11.3-1.3 16.9-4.1 4.1-1.9 7.5-4.7 10.3-8.2v9.7h28.8V82.1h-30.1v51.7c0 9.1-1.6 15.7-4.4 19.4-2.8 3.8-7.2 5.6-13.8 5.6-5.6 0-9.4-1.6-11.3-5-2.2-3.4-3.1-9.1-3.1-16.3V82.1h-30.1v60.2c0 6 .6 11.3 1.6 16.3 1.3 5.3 3.5 9.7 6 13.1M792 128.1c-3.1-2.2-6.6-3.8-10-5-3.4-1.3-7.5-2.2-11.3-3.1s-7.5-1.6-11-2.5c-3.4-.6-6.6-1.6-9.1-2.5s-4.7-1.9-6-3.1c-1.3-1.3-1.9-2.5-1.9-4.1s.3-2.5.9-3.4 1.6-1.6 2.8-2.2c1.3-.6 2.5-.9 4.1-.9s3.1-.3 4.7-.3c4.4 0 8.2.9 11.3 2.5 2.8 1.6 4.4 4.4 4.7 8.5v1.9H800v-2.2c-.6-6.3-2.2-11.3-5-15.4s-6-7.5-10-9.7c-4.1-2.5-8.5-4.1-13.5-5s-10-1.6-15.4-1.6c-5.3 0-10.3.3-15.4 1.6-5 .9-9.7 2.5-13.8 5s-7.5 5.6-10 10c-2.5 4.1-3.8 9.7-3.8 16 0 4.7.9 8.5 2.8 11.6s4.4 5.6 7.5 7.8c3.1 1.9 6.3 3.4 10 5 3.4 1.3 7.5 2.2 11.3 3.1 9.1 1.9 16.3 3.8 21.3 5.6 6.6 2.5 6.6 5.6 6.6 6.9 0 1.9-.3 3.4-1.3 4.7-.9 1.3-1.9 2.2-3.4 3.1s-3.1 1.6-5 1.9c-1.9.3-3.8.6-5.3.6-2.5 0-4.7-.3-6.9-.9s-4.1-1.6-5.6-2.5c-1.6-1.3-2.8-2.5-3.8-4.4-.9-1.6-1.6-3.8-1.6-6.3v-1.9h-28.8v2.2c.3 6.6 1.9 12.2 4.7 16.9 2.8 4.4 6.6 8.2 10.7 11s9.1 4.7 14.7 5.6c5.3 1.3 11 1.6 16.6 1.6 5.3 0 11-.6 16.3-1.6 5.3-1.3 10.3-3.1 14.7-5.6 4.4-2.8 7.8-6.6 10.3-11 2.8-4.7 4.1-10 4.1-16.6 0-4.7-.9-8.8-2.8-12.2-2.9-4-5.4-6.6-8.2-9.1m57.4-74.3h-30.1V82h-15.7v21.3h15.7V157c0 5 .9 9.4 2.5 12.5s4.1 6 7.2 7.5 6.6 2.8 10.3 3.4c3.8.6 7.5.9 11.6.9h8.2c2.8 0 5.3-.3 7.5-.6l1.6-.3v-24.1l-2.5.3c-1.3.3-2.5.3-3.4.6h-4.1c-5 0-9.1-1.6-9.1-9.7v-43.9h19.1V82.4h-19.1l.3-28.6zm-427.9 88.4c0 1.3 0 3.1-.3 5.6-.3 2.2-.9 4.4-2.2 6.6-1.3 1.9-3.1 3.8-5.6 5.3-2.5 1.6-6.3 2.2-11 2.2-1.9 0-3.8 0-5.6-.6-1.6-.3-3.1-.9-4.4-1.6-1.3-.6-2.2-1.6-2.8-3.1-.6-1.3-.9-2.8-.9-5s.3-3.8.9-5 1.6-2.5 2.8-3.1c1.3-.9 2.8-1.6 4.4-2.2 1.9-.6 3.8-.9 5.3-1.6 1.9-.3 4.1-.6 6.3-.9 2.2-.3 4.1-.6 6.3-.9 1.9-.3 3.8-.9 5.6-1.6.6 0 .9-.3 1.6-.6l-.4 6.5zm30.7 27.6c-.3-3.8-.6-7.8-.6-11.9v-49.5c0-6.3-1.6-11.3-4.4-15s-6.3-6.6-10.7-8.8c-4.1-1.9-8.8-3.4-14.1-4.1-5-.6-9.7-.9-14.7-.9-5.3 0-10.7.6-16 1.6-5.3 1.3-10.3 2.8-14.7 5.3-4.4 2.5-8.2 6-11 10.3-2.8 4.4-4.7 9.7-5 16.3v2.2h30v-1.9c.3-4.7 1.9-7.8 4.4-9.7 2.5-1.9 6.3-2.8 11-2.8 2.2 0 4.4 0 6.3.3 1.6.3 3.1.9 4.7 1.6 1.3.6 2.2 1.6 3.1 3.1.6 1.3 1.3 3.1 1.3 5.6 0 1.9-.3 3.4-1.6 4.4-1.6 1.3-3.4 2.2-6.3 2.8s-6.3 1.3-9.7 1.6c-3.8.3-7.8.9-11.6 1.6-4.1.6-8.2 1.6-11.9 2.5-4.1 1.3-7.8 2.8-11 5-3.1 2.2-6 5.3-8.2 9.1-1.9 3.8-3.1 8.5-3.1 14.4 0 5 .9 9.7 2.8 13.5 1.6 3.8 4.4 6.9 7.5 9.7 3.1 2.5 6.9 4.4 11 5.3 4.1 1.3 8.5 1.6 13.2 1.6 6 0 11.9-.9 17.9-2.8 4.7-1.6 8.8-3.8 12.5-6.6v.9c.3 1.6.6 3.1 1.3 4.7l.3 1.6h31.3l-1.9-3.1c-.9-1.6-1.8-4.4-2.1-7.9m76.8-29.1l-.3 1.6c-.9 5.3-2.8 9.7-5.6 12.9-3.1 3.1-7.2 4.7-12.9 4.7-3.4 0-6.6-.9-9.1-2.5s-4.7-3.8-6-6.3c-1.6-2.8-2.8-5.6-3.1-9.1-.6-3.4-.9-6.6-.9-10s.3-6.9.9-10.3 1.9-6.6 3.4-9.4 3.8-5 6.3-6.6 5.6-2.5 9.4-2.5c10 0 15.7 4.7 17.2 14.7l.3 1.6h29.2v-2.2c-.3-6.6-1.9-11.9-4.7-16.6s-6.3-8.5-10.7-11.9c-4.4-3.1-9.1-5.3-14.7-6.9-5.3-1.6-11-2.2-16.6-2.2-7.8 0-15 1.3-21.3 4.1-6.3 2.8-11.6 6.6-16 11.3s-7.5 10.3-9.7 16.9-3.1 13.5-3.1 21c0 7.2 1.3 14.1 3.4 20.4 2.5 6.3 6 11.6 10 16 4.1 4.4 9.7 8.2 16 10.3 6.3 2.5 13.2 3.8 20.4 3.8 13.2 0 23.8-3.4 32.3-10.3 8.5-6.9 13.5-16.9 15.4-30.1l-.3-2.2H529v-.2z" class="st1"/><path d="M566.9 53.8v127H597v-127zm380.9 26.7c-3.1-.6-7.2-.9-11.3-.9-5.6 0-11.3 1.3-16.9 4.1-4.1 1.9-7.5 4.7-10.3 8.2v-9.7h-28.8v98.7h30.1v-49.2c0-9.1 1.6-15.7 4.4-19.4 2.8-3.8 7.2-5.6 13.8-5.6 12.9 0 19.4 3.1 19.4 3.1l-.4-29.3z" class="st1"/><g><path d="M656.2 235.5c0 2.5-.3 4.7-1 6.6-.7 1.9-1.6 3.5-2.8 4.8-1.2 1.3-2.6 2.3-4.2 3-1.6.7-3.3 1-5 1-2.4 0-4.5-.6-6.3-1.8-1.7-1.2-3.1-2.8-4-4.8v6.2h-6.4v-42.2h6.4v18.8c1-2.2 2.5-3.9 4.4-5 1.9-1.1 4-1.7 6.3-1.7 1.7 0 3.3.3 4.8.9 1.5.6 2.9 1.5 4 2.7 1.1 1.2 2.1 2.8 2.7 4.7.7 2 1.1 4.3 1.1 6.8zm-15 10.1c2.8 0 4.9-.9 6.4-2.7 1.4-1.8 2.1-4.2 2.1-7.2 0-3.1-.7-5.6-2.2-7.3-1.5-1.8-3.6-2.7-6.4-2.7-1.4 0-2.7.3-3.8.8-1.1.5-2 1.2-2.7 2.1-.7.9-1.3 2-1.6 3.2-.4 1.2-.5 2.6-.5 4 0 2.9.7 5.2 2.1 7.1 1.3 1.8 3.5 2.7 6.6 2.7zm47.8-24.7L671.5 262h-6.7l5.2-11.9-12.4-29.2h6.6l7.9 19.1 1.2 3.9 1.3-3.9 7.7-19.1h6.7zm29.4.8v28.8h-6.3v-38.7h7.7l16.8 28.2 1.6 3.5-.2-3.8v-27.9h6.3v38.7h-7.2l-17.4-29.3-1.7-3.2.4 3.7zm60.5 22.3c-1.2 2-2.9 3.7-5.1 5.1-2.2 1.4-4.9 2-8.2 2-2.5 0-4.8-.4-6.7-1.2-1.9-.8-3.5-1.8-4.8-3.2-1.3-1.3-2.2-2.9-2.9-4.8-.7-1.9-1-3.9-1-6s.4-4.1 1.1-6c.7-1.9 1.7-3.6 3-5s2.9-2.5 4.8-3.4c1.9-.8 4-1.2 6.4-1.2 2.4 0 4.5.4 6.3 1.2 1.8.8 3.3 1.9 4.4 3.2 1.2 1.3 2 2.9 2.6 4.7.6 1.8.9 3.7.9 5.7v2.2h-23.2c.2 2.5 1.1 4.6 2.6 6 1.5 1.5 3.7 2.2 6.4 2.2 2 0 3.6-.4 4.8-1.2 1.2-.8 2.3-2 3.2-3.5l5.4 3.2zm-13.5-18.4c-2.5 0-4.5.7-6 2.1-1.5 1.4-2.5 3.3-2.8 5.7h16.8c-.1-2.3-.8-4.1-2.1-5.6s-3.2-2.2-5.9-2.2zm37.8 19.1v5.2c-.8.4-1.6.6-2.5.8-.9.2-1.8.3-2.9.3-3.2 0-5.5-.8-6.9-2.5-1.4-1.7-2.1-4.2-2.1-7.4v-14.9H782v-5.3h6.8v-7.6l6-3.6v11.2h8.4v5.3h-8.4v14.2c0 1.9.4 3.2 1.1 4s1.9 1.2 3.3 1.2c.8 0 1.5-.1 2-.2.7-.2 1.4-.4 2-.7zm3.9 5.9l15-38.7h7.4l15 38.7h-6.8l-3-8.1h-17.9l-3 8.1h-6.7zm17.4-28.6l-5.8 15.7H833l-5.9-15.7-1.3-4.2-1.3 4.2zm54 13.5c0 2.5-.3 4.7-1 6.6-.7 1.9-1.6 3.5-2.8 4.8-1.2 1.3-2.6 2.3-4.2 3-1.6.7-3.3 1-5.1 1-2.4 0-4.5-.6-6.3-1.8-1.7-1.2-3.1-2.8-4-4.8V262h-6.4v-41.1h6.4v6.5c1-2.3 2.5-4 4.4-5.1 1.9-1.1 4-1.7 6.4-1.7 1.7 0 3.3.3 4.8.9 1.5.6 2.9 1.5 4 2.7 1.1 1.2 2.1 2.8 2.7 4.7.8 1.8 1.1 4.1 1.1 6.6zm-15 10.1c2.8 0 4.9-.9 6.4-2.7 1.4-1.8 2.1-4.2 2.1-7.2 0-3.1-.7-5.6-2.2-7.3-1.5-1.8-3.6-2.7-6.4-2.7-1.4 0-2.7.3-3.8.8-1.1.5-2 1.2-2.7 2.1-.7.9-1.2 2-1.6 3.2-.4 1.2-.5 2.6-.5 4 0 2.9.7 5.2 2.1 7.1 1.3 1.8 3.5 2.7 6.6 2.7zm50.6-10.1c0 2.5-.3 4.7-1 6.6-.7 1.9-1.6 3.5-2.8 4.8-1.2 1.3-2.6 2.3-4.2 3-1.6.7-3.3 1-5.1 1-2.4 0-4.5-.6-6.3-1.8-1.7-1.2-3.1-2.8-4-4.8V262h-6.4v-41.1h6.4v6.5c1-2.3 2.5-4 4.4-5.1 1.9-1.1 4-1.7 6.4-1.7 1.7 0 3.3.3 4.8.9 1.5.6 2.9 1.5 4 2.7 1.1 1.2 2.1 2.8 2.7 4.7.8 1.8 1.1 4.1 1.1 6.6zm-15 10.1c2.8 0 4.9-.9 6.4-2.7 1.4-1.8 2.1-4.2 2.1-7.2 0-3.1-.7-5.6-2.2-7.3-1.5-1.8-3.6-2.7-6.4-2.7-1.4 0-2.7.3-3.8.8-1.1.5-2 1.2-2.7 2.1-.7.9-1.2 2-1.6 3.2-.4 1.2-.5 2.6-.5 4 0 2.9.7 5.2 2.1 7.1 1.3 1.8 3.5 2.7 6.6 2.7z"/></g></svg>