<svg xmlns="http://www.w3.org/2000/svg" role="img" viewBox="-11.90 -15.90 1086.80 229.80"><title>NETSIA Inc. logo</title><path fill="#404040" d="M715.71857 84.10321q-16.02045-8.16486-53.04834-16.14477-14.96164-3.11481-18.95023-6.73218-4.11429-3.48881-4.11426-7.85425a12.79892 12.79892 0 0 1 4.98694-10.16052q4.986-4.17655 14.83606-4.17652 11.96667 0 18.76331 5.61017 6.79275 5.61017 8.91406 17.95252l53.23535-3.11676q-3.49191-28.42383-21.88013-41.45282Q700.071 5 665.039 5q-28.552.001-44.94458 7.16852-16.39637 7.16857-24.56073 19.69787a47.9167 47.9167 0 0 0-8.16608 26.61713q-.00183 21.4432 15.95813 35.28162 15.83259 13.84029 52.986 22.19128 22.68851 4.98689 28.92407 10.59705 6.23364 5.61016 6.23364 12.71631.00009 7.48122-6.54529 13.15271-6.5472 5.6725-18.63855 5.67248-16.2094.002-24.93457-11.09564-5.362-6.85684-7.10632-19.94721l-53.734 3.36609h.00006q2.36884 27.67676 20.32172 45.62928Q618.78344 194 665.413 194q26.55342 0 44.00947-7.66724 17.45415-7.66524 27.17871-22.503a57.94279 57.94279 0 0 0 9.72454-32.41424 51.36408 51.36408 0 0 0-7.29339-27.05341q-7.29533-12.092-23.31376-20.2589zM393.14 53.247h57.599v137.636h56.476V53.247h57.599V8.117H393.14v45.13zm-262.312 55.985L62.009 8.117H9.272v182.766h53.111V90.532l68.445 100.351h53.236V8.117h-53.236v101.115zm147.234 4.231h87.895V76.187h-87.895V47.139h94.752V8.117H221.461v182.766h154.096v-41.39h-97.495v-36.03zM777 8.117h56.601v182.766H777zm209.09766-.00024h-61.604L855.799 190.88324h57.665l8.90832-30.17017h64.11884l9.144 30.17017h59.14173zm-51.45874 113.07587l19.96325-65.70117 20.17365 65.70117z"/></svg>