<svg xmlns="http://www.w3.org/2000/svg" role="img" viewBox="-6.13 -7.13 371.02 78.02"><title>Nomura Group logo</title><g fill="#fff"><path d="M78 0h1v1h-1zm1 0h1v1h-1zm1 0h1v1h-1zm1 0h1v1h-1zm1 0h1v1h-1zm1 0h1v1h-1zm1 0h1v1h-1zm1 0h1v1h-1zm1 0h1v1h-1zm1 0h1v1h-1zm1 0h1v1h-1zm1 0h1v1h-1zm1 0h1v1h-1zm1 0h1v1h-1zM74 1h1v1h-1zm1 0h1v1h-1zm1 0h1v1h-1zm1 0h1v1h-1zm1 0h13v6H78zm13 0h1v8h-1zm1 0h1v1h-1zm1 0h1v1h-1zm1 0h1v1h-1zm1 0h1v1h-1zM1 2h13v1H1zm13 0h1v1h-1zm1 0h1v1h-1zm25 0h1v1h-1zm1 0h8v1h-8zm8 0h1v1h-1zm23 0h1v1h-1zm1 0h1v1h-1zm1 0h1v1h-1z"/><path d="M75 2h19v5H75zm19 0h1v10h-1zm1 0h1v1h-1zm1 0h1v1h-1zm1 0h1v1h-1zm35 0h1v1h-1zm1 0h10v1h-10zm10 0h1v1h-1zm1 0h1v1h-1zm10 0h1v1h-1zm1 0h11v1h-11zm11 0h1v1h-1zm1 0h1v1h-1zm23 0h1v1h-1zm1 0h13v1h-13zm13 0h1v1h-1zm1 0h1v1h-1zm22 0h1v1h-1zm1 0h9v1h-9zm9 0h1v1h-1zm1 0h1v1h-1zm10 0h1v1h-1zm1 0h27v1h-27zm27 0h1v1h-1zm1 0h1v1h-1zm1 0h1v1h-1zm1 0h1v1h-1zm1 0h1v1h-1zm40 0h1v1h-1zm1 0h12v1h-12zm12 0h1v1h-1zm1 0h1v1h-1zM1 3h13v18H1zm13 0h1v21h-1zm1 0h1v1h-1zm25 0h1v30h-1zm1 0h8v56h-8zm8 0h1v57h-1zm21 0h1v1h-1zm1 0h1v1h-1zm1 0h1v1h-1z"/><path d="M73 3h24v4H73zm24 0h1v14h-1zm1 0h1v1h-1zm1 0h1v1h-1zm33 0h1v1h-1zm1 0h10v17h-10zm10 0h1v36h-1zm1 0h1v1h-1zm10 0h1v1h-1zm1 0h11v17h-11zm11 0h1v38h-1zm1 0h1v1h-1zm23 0h1v38h-1zm1 0h13v43h-13zm13 0h1v58h-1zm1 0h1v38h-1zm22 0h1v37h-1zm1 0h9v46h-9zm9 0h1v43h-1zm1 0h1v38h-1zm10 0h1v57h-1zm1 0h30v6h-30zm30 0h1v13h-1zm1 0h1v1h-1zm1 0h1v1h-1zm1 0h1v1h-1zm1 0h1v1h-1zm37 0h1v1h-1zm1 0h12v14h-12zm12 0h1v41h-1zm1 0h1v1h-1zm1 0h1v1h-1zM15 4h1v22h-1zm1 0h1v1h-1zm53 0h1v1h-1zm1 0h1v1h-1z"/><path d="M71 4h27v3H71zm27 0h1v16h-1zm1 0h1v1h-1zm1 0h1v1h-1zm1 0h1v1h-1zm30 0h1v1h-1zm1 0h1v1h-1zm12 0h1v1h-1zm1 0h1v1h-1zm9 0h1v1h-1zm13 0h1v1h-1zm113 0h3v30h-3zm3 0h1v29h-1zm1 0h1v1h-1zm1 0h1v1h-1zm35 0h1v1h-1zm14 0h1v40h-1zm1 0h1v1h-1zM16 5h1v22h-1zm1 0h1v1h-1zm50 0h1v1h-1zm1 0h1v1h-1z"/><path d="M69 5h31v2H69zm31 0h1v53h-1zm1 0h1v1h-1zm1 0h1v1h-1zm29 0h1v1h-1zm1 0h12v15h-12zm12 0h1v37h-1zm1 0h1v1h-1zm8 0h1v1h-1zm1 0h13v14h-13zm13 0h1v39h-1zm1 0h1v1h-1zm116 0h1v28h-1zm1 0h1v28h-1zm1 0h1v1h-1zm1 0h1v1h-1zm32 0h1v1h-1zm1 0h14v12h-14zm15 0h1v1h-1zM17 6h1v1h-1zm1 0h1v1h-1zm48 0h1v1h-1zm1 0h1v1h-1z"/><path d="M68 6h33v1H68zm33 0h1v51h-1zm1 0h1v1h-1zm1 0h1v1h-1zm28 0h1v1h-1zm14 0h1v1h-1zm8 0h1v1h-1zm15 0h1v1h-1zm118 0h1v26h-1zm1 0h1v1h-1zm1 0h1v1h-1zm31 0h1v1h-1zm16 0h1v38h-1zm1 0h1v1h-1zM17 7h1v21h-1zm1 0h1v1h-1zm1 0h1v1h-1zm46 0h1v1h-1zm1 0h1v1h-1z"/><path d="M67 7h35v1H67zm35 0h1v49h-1zm1 0h1v1h-1zm1 0h1v1h-1zm26 0h1v1h-1zm1 0h14v13h-14zm14 0h1v37h-1zm1 0h1v1h-1zm7 0h1v1h-1zm15 0h1v1h-1zm1 0h1v1h-1zm118 0h1v24h-1zm1 0h1v1h-1zm1 0h1v1h-1zm29 0h1v1h-1zm1 0h1v1h-1zm17 0h1v1h-1zM18 8h1v22h-1zm1 0h1v1h-1zm45 0h1v1h-1zm1 0h1v1h-1zm1 0h14v1H66zm14 0h1v1h-1zm1 0h1v1h-1zm1 0h1v1h-1zm1 0h1v1h-1zm1 0h1v1h-1zm1 0h1v1h-1zm1 0h1v1h-1zm1 0h1v1h-1zm1 0h1v1h-1z"/><path d="M89 8h15v1H89zm15 0h1v46h-1zm1 0h1v1h-1zm25 0h1v1h-1zm16 0h1v1h-1zm6 0h1v1h-1zm1 0h15v8h-15zm15 0h1v39h-1zm1 0h1v1h-1zm119 0h1v23h-1zm1 0h1v1h-1zm1 0h1v1h-1zm28 0h1v1h-1zm1 0h16v9h-16zm17 0h1v1h-1zm1 0h1v1h-1zM19 9h1v22h-1zm1 0h1v1h-1zm43 0h1v1h-1zm1 0h1v1h-1zm1 0h13v1H65zm13 0h1v1h-1zm1 0h1v1h-1zm1 0h1v1h-1zm1 0h1v1h-1zm8 0h1v1h-1zm1 0h1v1h-1zm1 0h13v1H91zm14 0h1v1h-1zm1 0h1v1h-1zm24 0h1v1h-1zm16 0h1v1h-1zm6 0h1v1h-1zm17 0h1v1h-1z"/><path d="M249 9h40v1h-40zm40 0h1v21h-1zm1 0h1v1h-1zm1 0h1v1h-1zm27 0h1v1h-1zm18 0h1v37h-1zm1 0h1v1h-1zM20 10h1v22h-1zm1 0h1v1h-1zm41 0h1v1h-1zm1 0h1v1h-1zm1 0h13v1H64zm13 0h1v1h-1zm1 0h1v1h-1zm1 0h1v1h-1zm11 0h1v1h-1zm1 0h1v1h-1zm1 0h13v1H92zm13 0h1v43h-1zm1 0h1v1h-1zm1 0h1v1h-1zm22 0h1v1h-1zm1 0h16v10h-16zm16 0h1v37h-1zm1 0h1v1h-1zm4 0h1v1h-1zm1 0h1v1h-1zm17 0h1v1h-1zm1 0h1v1h-1zm79 0h12v50h-12zm12 0h1v50h-1zm1 0h1v1h-1zm1 0h7v1h-7zm7 0h1v1h-1z"/><path d="M271 10h19v1h-19zm19 0h1v19h-1zm1 0h1v1h-1zm26 0h1v1h-1zm1 0h18v7h-18zm19 0h1v1h-1zM21 11h1v1h-1zm1 0h1v1h-1zm40 0h1v1h-1zm1 0h13v1H63zm13 0h1v1h-1zm1 0h1v1h-1zm15 0h1v1h-1zm1 0h13v1H93zm13 0h1v41h-1zm1 0h1v1h-1zm22 0h1v1h-1zm18 0h1v1h-1zm4 0h1v1h-1zm1 0h17v2h-17zm17 0h1v39h-1zm1 0h1v1h-1zm92 0h1v49h-1zm9 0h1v1h-1zm1 0h1v1h-1zm1 0h1v1h-1zm1 0h1v1h-1z"/><path d="M275 11h16v1h-16zm16 0h1v16h-1zm1 0h1v1h-1zm25 0h1v1h-1zm20 0h1v37h-1zm1 0h1v1h-1zM21 12h1v21h-1zm1 0h1v1h-1zm1 0h1v1h-1zm38 0h1v1h-1zm1 0h13v1H62zm13 0h1v1h-1zm1 0h1v1h-1zm17 0h1v1h-1zm1 0h13v1H94zm13 0h1v39h-1zm1 0h1v1h-1zm20 0h1v1h-1zm1 0h1v1h-1zm18 0h1v1h-1zm1 0h1v1h-1zm3 0h1v1h-1zm19 0h1v1h-1zm104 0h1v1h-1zm1 0h1v1h-1zm1 0h1v1h-1zm1 0h14v1h-14zm15 0h1v1h-1zm24 0h1v1h-1zm1 0h1v1h-1zm21 0h1v1h-1zM22 13h1v22h-1zm1 0h1v1h-1zm37 0h1v1h-1zm1 0h1v1h-1zm1 0h12v2H62zm12 0h1v1h-1zm1 0h1v1h-1zm19 0h1v1h-1zm1 0h12v1H95zm13 0h1v1h-1zm1 0h1v1h-1zm19 0h1v1h-1zm1 0h18v7h-18zm18 0h1v37h-1zm1 0h1v1h-1zm3 0h1v1h-1zm1 0h18v1h-18zm18 0h1v40h-1zm1 0h1v1h-1zm105 0h1v1h-1zm1 0h1v1h-1z"/><path d="M278 13h14v1h-14zm14 0h1v12h-1zm1 0h1v1h-1zm23 0h1v1h-1zm1 0h20v4h-20zm21 0h1v1h-1zm1 0h1v1h-1zM23 14h1v22h-1zm1 0h1v1h-1zm36 0h1v1h-1zm1 0h12v3H61zm13 0h1v1h-1zm1 0h1v1h-1zm19 0h1v1h-1zm1 0h1v1h-1zm1 0h12v1H96zm12 0h1v35h-1zm1 0h1v1h-1zm19 0h1v1h-1zm20 0h1v1h-1zm3 0h1v1h-1zm1 0h1v1h-1zm19 0h1v1h-1zm106 0h1v1h-1zm1 0h14v1h-14zm15 0h1v1h-1zm23 0h1v1h-1zm22 0h1v37h-1zm1 0h1v1h-1zM24 15h1v1h-1zm1 0h1v1h-1zm34 0h1v1h-1zm1 0h1v1h-1zm13 0h1v1h-1zm1 0h1v1h-1zm21 0h1v1h-1zm1 0h12v1H96zm13 0h1v1h-1zm1 0h1v1h-1zm17 0h1v1h-1zm1 0h1v1h-1zm20 0h1v38h-1zm1 0h1v1h-1zm3 0h1v1h-1zm19 0h1v1h-1zm1 0h1v1h-1zm106 0h1v1h-1zm15 0h1v1h-1zm22 0h1v1h-1z"/><path d="M316 15h22v2h-22zm23 0h1v1h-1zM24 16h1v21h-1zm1 0h1v1h-1zm1 0h1v1h-1zm33 0h1v1h-1zm1 0h12v5H60zm13 0h1v1h-1zm23 0h1v1h-1zm3 0h10v11H99zm10 0h1v31h-1zm1 0h1v1h-1zm17 0h1v1h-1zm1 0h20v4h-20zm21 0h1v1h-1zm3 0h1v1h-1zm1 0h18v1h-18zm18 0h1v39h-1zm1 0h1v1h-1zm106 0h1v1h-1zm1 0h13v1h-13zm14 0h1v1h-1zm1 0h1v1h-1zm21 0h1v1h-1zm24 0h1v37h-1zm1 0h1v1h-1zM25 17h1v22h-1zm1 0h1v1h-1zm33 0h1v1h-1zm13 0h1v1h-1zm1 0h1v1h-1zm23 0h1v1h-1z"/><path d="M97 17h12v1H97zm13 0h1v1h-1zm1 0h1v1h-1zm16 0h1v1h-1zm22 0h1v1h-1zm1 0h2v1h-2zm2 0h1v1h-1zm1 0h1v1h-1zm19 0h1v1h-1zm106 0h1v1h-1zm1 0h1v1h-1zm14 0h1v5h-1zm1 0h1v1h-1zm21 0h1v1h-1zm1 0h23v1h-23zm24 0h1v1h-1zM26 18h1v22h-1zm1 0h1v1h-1zm31 0h1v1h-1zm1 0h12v10H59zm13 0h1v1h-1zm1 0h1v1h-1zm23 0h1v1h-1zm1 0h1v1h-1zm13 0h1v27h-1zm1 0h1v1h-1zm15 0h1v1h-1zm1 0h22v2h-22zm22 0h1v37h-1zm1 0h1v1h-1zm3 0h1v1h-1zm19 0h1v1h-1zm1 0h1v1h-1zm106 0h1v1h-1zm15 0h1v2h-1zm20 0h1v1h-1zm1 0h8v3h-8zm8 0h16v1h-16zm17 0h1v1h-1zm1 0h1v1h-1zM27 19h1v22h-1zm1 0h1v1h-1zm30 0h1v1h-1zm14 0h1v1h-1zm25 0h1v1h-1zm14 0h1v1h-1zm15 0h1v1h-1zm24 0h1v1h-1zm3 0h1v1h-1zm1 0h18v1h-18zm18 0h1v39h-1zm1 0h1v1h-1zm106 0h1v1h-1zm35 0h1v1h-1zm9 0h1v1h-1zm1 0h1v1h-1zm1 0h1v1h-1zm1 0h14v1h-14zm14 0h1v37h-1zm1 0h1v1h-1zM28 20h1v1h-1zm1 0h1v1h-1zm29 0h1v1h-1zm14 0h1v1h-1zm25 0h1v1h-1zm1 0h12v1H98zm13 0h1v1h-1zm15 0h1v1h-1zm1 0h22v1h-22zm23 0h1v1h-1zm1 0h1v1h-1zm3 0h1v1h-1zm1 0h17v1h-17zm18 0h1v1h-1zm106 0h1v2h-1zm15 0h1v1h-1zm19 0h1v1h-1zm1 0h1v1h-1zm9 0h1v1h-1zm2 0h1v1h-1zm1 0h14v1h-14zm15 0h1v1h-1z"/><path d="M1 21h27v1H1zm27 0h1v21h-1zm1 0h1v1h-1zm1 0h1v1h-1zm27 0h1v1h-1zm1 0h13v7H58zm13 0h1v1h-1zm1 0h1v1h-1zm25 0h1v1h-1zm1 0h1v1h-1zm13 0h1v21h-1zm1 0h1v1h-1zm13 0h1v1h-1zm1 0h9v2h-9zm9 0h15v1h-15zm15 0h1v37h-1zm1 0h1v1h-1zm3 0h1v1h-1zm1 0h2v1h-2zm2 0h16v1h-16zm16 0h1v39h-1zm1 0h1v1h-1zm120 0h1v1h-1zm19 0h1v1h-1zm1 0h8v3h-8zm8 0h1v1h-1zm1 0h1v1h-1zm2 0h1v1h-1zm1 0h1v1h-1zm1 0h14v2h-14zm14 0h1v37h-1zm1 0h1v1h-1zM1 22h9v38H1z"/><path d="M10 22h19v1H10zm19 0h1v22h-1zm1 0h1v1h-1zm27 0h1v1h-1zm14 0h1v1h-1zm27 0h1v1h-1zm14 0h1v1h-1zm13 0h1v1h-1zm10 0h1v1h-1zm1 0h1v1h-1zm1 0h13v1h-13zm14 0h1v1h-1zm3 0h1v1h-1zm1 0h2v1h-2zm2 0h1v1h-1zm1 0h1v1h-1zm1 0h14v1h-14zm15 0h1v1h-1zm105 0h1v1h-1zm14 0h1v1h-1zm1 0h1v1h-1zm19 0h1v1h-1zm9 0h1v1h-1zm1 0h1v1h-1zm3 0h1v1h-1zm16 0h1v1h-1zM10 23h1v37h-1zm2 0h1v1h-1z"/><path d="M13 23h17v1H13zm17 0h1v22h-1zm1 0h1v1h-1zm26 0h1v1h-1zm14 0h1v1h-1zm27 0h1v1h-1zm14 0h1v1h-1zm12 0h1v1h-1zm1 0h1v1h-1zm1 0h8v3h-8zm8 0h1v1h-1zm1 0h1v1h-1zm1 0h1v1h-1zm1 0h14v1h-14zm14 0h1v37h-1zm1 0h1v1h-1zm3 0h1v1h-1zm1 0h1v1h-1zm1 0h1v1h-1zm2 0h1v1h-1zm1 0h13v2h-13zm14 0h1v1h-1zm1 0h1v1h-1zm104 0h1v1h-1zm14 0h1v1h-1zm19 0h1v1h-1zm1 0h8v4h-8zm9 0h1v1h-1zm4 0h1v1h-1zm1 0h14v1h-14zm15 0h1v1h-1zm1 0h1v1h-1zM12 24h1v1h-1zm1 0h1v1h-1z"/><path d="M14 24h17v1H14zm17 0h1v22h-1zm1 0h1v1h-1zm25 0h1v1h-1zm14 0h1v1h-1zm27 0h1v1h-1zm14 0h1v1h-1zm12 0h1v1h-1zm1 0h8v5h-8zm9 0h1v1h-1zm1 0h1v1h-1zm2 0h1v1h-1zm1 0h13v1h-13zm14 0h1v1h-1zm3 0h1v1h-1zm1 0h1v1h-1zm1 0h1v1h-1zm2 0h1v1h-1zm15 0h1v36h-1zm1 0h1v1h-1zm104 0h1v1h-1zm14 0h1v1h-1zm19 0h1v1h-1zm9 0h1v1h-1zm1 0h1v1h-1zm5 0h1v1h-1zm1 0h14v1h-14zm14 0h1v36h-1zm1 0h1v1h-1zM13 25h1v1h-1zm1 0h1v1h-1zm18 0h1v1h-1zm1 0h1v1h-1zm23 0h1v1h-1zm1 0h1v1h-1zm14 0h1v1h-1zm27 0h1v1h-1zm14 0h1v13h-1zm1 0h1v1h-1zm11 0h1v1h-1zm10 0h1v1h-1zm3 0h1v1h-1zm1 0h13v1h-13zm14 0h1v1h-1zm1 0h2v1h-2zm2 0h2v1h-2zm2 0h1v1h-1zm2 0h1v1h-1zm1 0h14v1h-14zm15 0h1v1h-1zm103 0h1v1h-1zm1 0h1v1h-1zm13 0h1v1h-1zm1 0h1v1h-1zm18 0h1v1h-1zm1 0h1v1h-1zm9 0h1v1h-1zm6 0h1v1h-1zm1 0h14v1h-14zm15 0h1v1h-1zM14 26h1v1h-1z"/><path d="M15 26h17v1H15zm17 0h1v22h-1zm1 0h1v1h-1zm1 0h1v1h-1zm22 0h1v1h-1zm1 0h13v11H57zm14 0h1v1h-1zm27 0h1v1h-1zm15 0h1v1h-1zm10 0h1v1h-1zm1 0h1v1h-1zm9 0h1v1h-1zm1 0h1v1h-1zm3 0h1v1h-1zm1 0h1v1h-1zm1 0h13v2h-13zm13 0h1v34h-1zm1 0h1v1h-1zm3 0h1v1h-1zm4 0h1v1h-1zm1 0h13v2h-13zm14 0h1v1h-1zm1 0h1v1h-1zm102 0h1v1h-1zm1 0h12v3h-12zm13 0h1v1h-1zm1 0h1v1h-1zm18 0h1v1h-1zm1 0h8v3h-8zm9 0h1v1h-1zm6 0h1v1h-1zm1 0h1v1h-1zm1 0h14v2h-14zm14 0h1v34h-1zm1 0h1v1h-1zM15 27h1v1h-1z"/><path d="M16 27h17v1H16zm17 0h1v22h-1zm1 0h1v1h-1zm22 0h1v1h-1zm15 0h1v1h-1zm27 0h1v1h-1zm1 0h13v1H99zm14 0h1v1h-1zm10 0h1v1h-1zm1 0h8v5h-8zm9 0h1v1h-1zm1 0h1v1h-1zm4 0h1v1h-1zm15 0h1v1h-1zm7 0h1v1h-1zm15 0h1v33h-1zm1 0h1v1h-1zm101 0h1v1h-1zm1 0h1v1h-1zm13 0h1v1h-1zm1 0h1v1h-1zm19 0h1v1h-1zm9 0h1v1h-1zm1 0h1v1h-1zm7 0h1v1h-1zm16 0h1v1h-1zM15 28h1v1h-1zm1 0h1v1h-1z"/><path d="M17 28h17v1H17zm17 0h1v22h-1zm1 0h1v1h-1zm21 0h1v1h-1zm14 0h1v1h-1zm1 0h1v1h-1zm28 0h1v1h-1zm4 0h9v14h-9zm10 0h1v1h-1zm10 0h1v1h-1zm10 0h1v1h-1zm5 0h1v1h-1zm1 0h13v1h-13zm14 0h1v1h-1zm1 0h1v1h-1zm6 0h1v1h-1zm1 0h14v1h-14zm15 0h1v1h-1zm100 0h1v1h-1zm1 0h1v1h-1zm1 0h12v2h-12zm13 0h1v1h-1zm1 0h1v1h-1zm18 0h1v1h-1zm1 0h8v4h-8zm9 0h1v1h-1zm8 0h1v1h-1zm1 0h14v1h-14zm15 0h1v1h-1zm1 0h1v1h-1zM16 29h1v1h-1zm1 0h1v1h-1zm18 0h1v1h-1zm1 0h1v1h-1zm20 0h1v1h-1zm14 0h1v1h-1zm29 0h1v1h-1zm14 0h1v1h-1zm9 0h1v1h-1zm1 0h9v3h-9zm9 0h1v1h-1zm1 0h1v1h-1zm5 0h1v1h-1zm1 0h1v1h-1zm1 0h13v2h-13zm13 0h1v31h-1zm1 0h1v1h-1zm7 0h1v1h-1zm1 0h14v1h-14zm14 0h1v31h-1zm1 0h1v1h-1zm98 0h1v1h-1zm1 0h1v1h-1z"/><path d="M277 29h13v1h-13zm13 0h1v1h-1zm1 0h1v1h-1zm19 0h1v1h-1zm9 0h1v1h-1zm1 0h1v1h-1zm9 0h1v1h-1zm1 0h14v1h-14zm14 0h1v31h-1zm1 0h1v1h-1zM17 30h1v1h-1zm1 0h17v1H18zm17 0h1v21h-1zm1 0h1v1h-1zm1 0h1v1h-1zm19 0h1v1h-1zm14 0h1v1h-1zm29 0h1v1h-1zm14 0h1v1h-1zm9 0h1v1h-1zm10 0h1v1h-1zm7 0h1v1h-1zm15 0h1v1h-1zm7 0h1v1h-1zm1 0h14v1h-14zm15 0h1v1h-1zm96 0h1v1h-1zm1 0h1v1h-1zm1 0h1v1h-1zm1 0h13v1h-13zm13 0h1v1h-1zm1 0h1v1h-1zm19 0h1v1h-1zm1 0h1v1h-1zm9 0h1v1h-1zm1 0h1v1h-1zm9 0h1v1h-1zm1 0h14v1h-14zm15 0h1v1h-1zM18 31h1v1h-1z"/><path d="M19 31h17v1H19zm17 0h1v22h-1zm1 0h1v1h-1zm1 0h1v1h-1zm18 0h1v1h-1zm14 0h1v1h-1zm29 0h1v1h-1zm14 0h1v1h-1zm9 0h1v1h-1zm10 0h1v1h-1zm7 0h1v1h-1zm1 0h14v1h-14zm14 0h1v29h-1zm1 0h1v1h-1zm6 0h1v1h-1zm1 0h1v1h-1zm1 0h13v2h-13zm14 0h1v1h-1zm1 0h1v1h-1zm91 0h1v1h-1zm1 0h1v1h-1zm1 0h1v1h-1zm1 0h1v1h-1zm1 0h15v1h-15zm15 0h1v1h-1zm1 0h1v1h-1zm20 0h1v1h-1zm1 0h8v3h-8zm9 0h1v1h-1zm10 0h1v1h-1zm1 0h1v1h-1zm1 0h14v2h-14zm14 0h1v29h-1zm1 0h1v1h-1zM19 32h1v1h-1z"/><path d="M20 32h17v1H20zm17 0h1v22h-1zm1 0h2v1h-2zm18 0h1v1h-1zm14 0h1v1h-1zm29 0h1v1h-1zm14 0h1v1h-1zm8 0h1v1h-1zm1 0h9v2h-9zm9 0h1v1h-1zm1 0h1v1h-1zm8 0h1v1h-1zm1 0h13v2h-13zm14 0h1v1h-1zm7 0h1v1h-1zm15 0h1v28h-1zm1 0h1v1h-1zm87 0h1v1h-1zm1 0h1v1h-1zm1 0h1v1h-1zm1 0h18v1h-18zm18 0h1v1h-1zm1 0h1v1h-1zm1 0h1v1h-1zm21 0h1v1h-1zm9 0h1v1h-1zm1 0h1v1h-1zm11 0h1v1h-1zm16 0h1v1h-1zM19 33h1v1h-1zm1 0h1v1h-1z"/><path d="M21 33h17v1H21zm17 0h1v22h-1zm1 0h1v1h-1zm1 0h1v1h-1zm16 0h1v1h-1zm14 0h1v1h-1zm29 0h1v1h-1zm14 0h1v1h-1zm8 0h1v1h-1zm10 0h1v1h-1zm9 0h1v1h-1zm15 0h1v1h-1zm1 0h1v1h-1zm6 0h1v1h-1zm1 0h14v1h-14zm15 0h1v1h-1zm87 0h1v1h-1zm1 0h1v1h-1zm1 0h18v1h-18zm18 0h1v1h-1zm1 0h1v1h-1zm1 0h1v1h-1zm21 0h1v1h-1zm1 0h8v11h-8zm9 0h1v1h-1zm12 0h1v1h-1zm1 0h14v1h-14zm15 0h1v1h-1zm1 0h1v1h-1zM20 34h1v1h-1zm1 0h1v1h-1zm18 0h1v1h-1zm1 0h1v1h-1zm16 0h1v1h-1zm14 0h1v1h-1zm29 0h1v1h-1zm14 0h1v1h-1zm7 0h1v1h-1zm1 0h1v1h-1zm1 0h8v3h-8zm8 0h1v1h-1zm1 0h1v1h-1zm9 0h1v1h-1zm1 0h14v1h-14zm14 0h1v26h-1zm1 0h1v1h-1zm6 0h1v1h-1zm1 0h1v1h-1zm1 0h14v2h-14zm14 0h1v26h-1zm1 0h1v1h-1zm87 0h1v1h-1zm1 0h15v1h-15zm15 0h1v1h-1zm1 0h1v1h-1zm1 0h1v1h-1zm1 0h1v1h-1zm23 0h1v1h-1zm9 0h1v1h-1zm1 0h1v1h-1zm13 0h1v1h-1zm1 0h14v10h-14zm14 0h1v26h-1zm1 0h1v1h-1zM21 35h1v1h-1z"/><path d="M22 35h27v1H22zm34 0h1v1h-1zm14 0h1v23h-1zm1 0h1v1h-1zm28 0h1v1h-1zm14 0h1v1h-1zm7 0h1v1h-1zm1 0h8v5h-8zm9 0h1v1h-1zm1 0h1v1h-1zm10 0h1v1h-1zm1 0h13v1h-13zm14 0h1v1h-1zm7 0h1v1h-1zm16 0h1v1h-1zm87 0h1v1h-1zm1 0h1v1h-1zm1 0h13v1h-13zm13 0h1v25h-1zm1 0h1v1h-1zm1 0h1v1h-1zm24 0h1v1h-1zm1 0h1v1h-1zm9 0h1v1h-1zm1 0h1v1h-1zm13 0h1v1h-1zm16 0h1v1h-1zM22 36h1v1h-1zm1 0h26v1H23zm33 0h1v1h-1zm15 0h1v1h-1zm27 0h1v1h-1zm1 0h13v6H99zm14 0h1v1h-1zm7 0h1v1h-1zm10 0h1v1h-1zm11 0h1v1h-1zm1 0h13v1h-13zm14 0h1v1h-1zm1 0h1v1h-1zm6 0h1v1h-1zm1 0h14v1h-14zm15 0h1v1h-1zm88 0h1v1h-1zm1 0h13v1h-13zm14 0h1v1h-1zm1 0h1v1h-1zm24 0h1v1h-1zm1 0h8v8h-8zm9 0h1v1h-1zm1 0h12v1h-12zm12 0h1v1h-1zm1 0h1v1h-1zm16 0h1v24h-1zm1 0h1v1h-1zM22 37h1v1h-1zm1 0h1v1h-1zm1 0h25v1H24zm32 0h1v1h-1zm1 0h13v1H57zm14 0h1v1h-1zm27 0h1v1h-1zm15 0h1v1h-1zm6 0h1v1h-1zm1 0h1v1h-1zm9 0h1v1h-1zm1 0h1v1h-1zm11 0h1v1h-1zm1 0h1v1h-1zm14 0h1v23h-1zm1 0h1v1h-1zm7 0h1v1h-1zm1 0h14v2h-14zm14 0h1v23h-1zm1 0h1v1h-1zm87 0h1v1h-1zm1 0h1v1h-1z"/><path d="M269 37h13v1h-13zm13 0h1v23h-1zm1 0h1v1h-1zm24 0h1v1h-1zm10 0h30v7h-30zm31 0h1v1h-1zM23 38h1v1h-1zm1 0h1v1h-1zm15 0h10v19H39zm18 0h1v1h-1zm1 0h12v4H58zm13 0h1v1h-1zm27 0h1v1h-1zm14 0h1v1h-1zm1 0h1v1h-1zm6 0h1v1h-1zm1 0h8v5h-8zm9 0h1v1h-1zm1 0h1v1h-1zm12 0h1v1h-1zm15 0h1v1h-1zm7 0h1v1h-1zm16 0h1v1h-1zm88 0h1v1h-1zm1 0h13v1h-13zm14 0h1v1h-1zm1 0h1v1h-1zm22 0h1v1h-1z"/><path d="M307 38h40v6h-40zm41 0h1v1h-1zm1 0h1v1h-1zM24 39h1v1h-1zm1 0h24v1H25zm32 0h1v1h-1zm14 0h1v1h-1zm27 0h1v1h-1zm14 0h1v1h-1zm7 0h1v1h-1zm10 0h1v1h-1zm13 0h1v1h-1zm1 0h14v1h-14zm14 0h1v21h-1zm1 0h1v1h-1zm6 0h1v1h-1zm1 0h14v1h-14zm15 0h1v1h-1zm1 0h1v1h-1zm88 0h1v1h-1zm1 0h13v1h-13zm13 0h1v21h-1zm1 0h1v1h-1zm22 0h1v1h-1zm42 0h1v21h-1zm1 0h1v1h-1zM25 40h1v1h-1zm1 0h23v1H26zm31 0h1v1h-1zm14 0h1v1h-1zm27 0h1v1h-1zm14 0h1v1h-1zm6 0h1v1h-1zm1 0h9v3h-9zm9 0h1v1h-1zm1 0h1v1h-1zm11 0h1v1h-1zm3 0h1v1h-1zm15 0h1v1h-1zm7 0h1v1h-1zm15 0h1v20h-1zm1 0h1v1h-1zm46 0h1v1h-1zm42 0h1v1h-1z"/><path d="M270 40h14v1h-14zm14 0h1v20h-1zm1 0h1v1h-1zm20 0h1v1h-1zm1 0h1v1h-1zm43 0h1v1h-1zM25 41h1v1h-1zm1 0h1v1h-1zm1 0h22v1H27zm30 0h1v1h-1zm14 0h1v1h-1zm27 0h1v1h-1zm14 0h1v1h-1zm6 0h1v1h-1zm10 0h1v1h-1zm11 0h1v1h-1zm1 0h1v1h-1zm3 0h1v1h-1zm15 0h1v1h-1zm1 0h1v1h-1zm6 0h1v1h-1zm1 0h14v1h-14zm15 0h1v1h-1zm9 0h1v1h-1zm15 0h1v1h-1zm22 0h1v1h-1zm11 0h1v1h-1zm32 0h1v1h-1zm1 0h13v1h-13zm14 0h1v1h-1zm20 0h1v1h-1zm1 0h43v3h-43zm43 0h1v19h-1zm1 0h1v1h-1zM26 42h1v1h-1zm1 0h1v1h-1zm1 0h21v1H28zm29 0h1v1h-1zm1 0h13v1H58zm13 0h1v17h-1zm1 0h1v1h-1zm25 0h1v1h-1zm1 0h1v1h-1zm1 0h12v3H99zm12 0h1v1h-1zm1 0h1v1h-1zm6 0h1v1h-1zm10 0h1v1h-1zm11 0h1v1h-1zm1 0h1v1h-1zm3 0h1v1h-1zm1 0h14v1h-14zm14 0h1v18h-1zm1 0h1v1h-1zm6 0h1v1h-1zm1 0h1v1h-1zm15 0h1v18h-1zm1 0h1v1h-1zm8 0h1v1h-1zm15 0h1v1h-1zm22 0h1v1h-1zm11 0h1v1h-1zm32 0h1v1h-1z"/><path d="M271 42h14v1h-14zm14 0h1v18h-1zm1 0h1v1h-1zm19 0h1v1h-1zm45 0h1v1h-1zM27 43h1v1h-1zm1 0h1v1h-1zm30 0h1v1h-1zm1 0h12v2H59zm13 0h1v1h-1zm25 0h1v1h-1zm1 0h12v4H98zm13 0h1v1h-1zm6 0h1v1h-1zm1 0h9v2h-9zm9 0h1v1h-1zm1 0h1v1h-1zm11 0h1v1h-1zm1 0h1v17h-1zm1 0h1v1h-1zm3 0h1v1h-1zm15 0h1v1h-1zm7 0h1v1h-1zm16 0h1v1h-1zm8 0h1v1h-1zm15 0h1v1h-1zm22 0h1v1h-1zm11 0h1v1h-1zm33 0h1v1h-1zm1 0h13v1h-13zm14 0h1v1h-1zm18 0h1v1h-1zm1 0h44v1h-44zm45 0h1v1h-1zM28 44h1v1h-1zm1 0h20v1H29zm29 0h1v1h-1zm14 0h1v1h-1zm25 0h1v1h-1zm14 0h1v1h-1zm6 0h1v1h-1zm10 0h1v1h-1zm11 0h1v1h-1zm1 0h1v16h-1zm2 0h1v1h-1zm3 0h1v1h-1zm1 0h13v1h-13zm14 0h1v1h-1zm1 0h1v1h-1zm6 0h1v1h-1zm1 0h14v1h-14zm15 0h1v1h-1zm8 0h1v1h-1zm15 0h1v1h-1zm22 0h1v1h-1zm11 0h1v1h-1zm33 0h1v1h-1z"/><path d="M272 44h14v1h-14zm14 0h1v16h-1zm1 0h1v1h-1zm17 0h1v1h-1zm1 0h45v1h-45zm45 0h1v16h-1zm1 0h1v1h-1zM29 45h1v1h-1zm1 0h19v1H30zm28 0h1v1h-1zm1 0h12v1H59zm13 0h1v1h-1zm1 0h1v1h-1zm23 0h1v1h-1zm1 0h1v1h-1zm13 0h1v1h-1zm1 0h1v1h-1zm5 0h1v1h-1zm1 0h1v1h-1zm1 0h8v3h-8zm8 0h1v1h-1zm1 0h1v1h-1zm11 0h1v1h-1zm3 0h1v1h-1zm3 0h1v1h-1zm1 0h1v1h-1zm14 0h1v15h-1zm1 0h1v1h-1zm6 0h1v1h-1zm1 0h1v1h-1zm15 0h1v15h-1zm1 0h1v1h-1zm7 0h1v1h-1zm15 0h1v1h-1zm22 0h1v1h-1zm11 0h1v1h-1zm34 0h1v1h-1zm1 0h13v1h-13zm14 0h1v1h-1zm16 0h1v1h-1zm1 0h1v1h-1zm1 0h7v5h-7zm7 0h1v2h-1zm1 0h1v1h-1zm1 0h1v1h-1zm1 0h19v1h-19zm19 0h1v1h-1zm1 0h1v1h-1zm16 0h1v1h-1zM29 46h1v1h-1zm1 0h1v1h-1zm1 0h18v1H31zm28 0h1v1h-1zm1 0h12v1H60zm12 0h1v13h-1zm1 0h1v1h-1zm23 0h1v1h-1zm1 0h12v3H97zm13 0h1v1h-1zm6 0h1v1h-1z"/><path d="M117 46h8v5h-8zm9 0h1v1h-1zm1 0h1v1h-1zm10 0h1v1h-1zm1 0h1v1h-1zm3 0h1v14h-1zm1 0h1v1h-1zm3 0h1v1h-1zm15 0h1v1h-1zm7 0h1v1h-1zm16 0h1v1h-1zm7 0h1v1h-1zm1 0h13v1h-13zm14 0h1v1h-1zm22 0h1v1h-1zm10 0h1v1h-1zm1 0h1v1h-1zm34 0h1v1h-1zm1 0h14v1h-14zm14 0h1v14h-1zm1 0h1v1h-1zm15 0h1v1h-1zm1 0h8v4h-8zm9 0h1v1h-1zm22 0h1v1h-1zm1 0h14v1h-14zm15 0h1v1h-1zm1 0h1v1h-1zM30 47h1v1h-1zm1 0h1v1h-1zm28 0h1v1h-1zm1 0h12v1H60zm13 0h1v1h-1zm1 0h1v1h-1zm22 0h1v1h-1zm13 0h1v1h-1zm1 0h1v1h-1zm6 0h1v1h-1zm10 0h1v1h-1zm11 0h1v1h-1zm1 0h3v13h-3zm4 0h1v1h-1zm3 0h1v1h-1zm1 0h14v1h-14zm14 0h1v13h-1zm1 0h1v1h-1zm6 0h1v1h-1zm1 0h14v1h-14zm15 0h1v1h-1zm1 0h1v1h-1zm7 0h1v1h-1zm1 0h13v2h-13zm13 0h1v14h-1zm1 0h1v1h-1zm20 0h1v1h-1zm1 0h9v5h-9zm10 0h1v1h-1zm36 0h1v1h-1zm1 0h13v1h-13zm14 0h1v1h-1zm1 0h1v1h-1zm14 0h1v1h-1zm9 0h1v1h-1zm1 0h1v1h-1zm23 0h1v1h-1zm15 0h1v13h-1zm1 0h1v1h-1zM31 48h1v1h-1zm1 0h17v1H32zm27 0h1v1h-1zm1 0h1v1h-1zm1 0h12v1H61zm12 0h1v12h-1zm1 0h1v1h-1zm21 0h1v1h-1zm1 0h12v3H96zm13 0h1v1h-1zm1 0h1v1h-1zm5 0h1v1h-1zm1 0h1v1h-1zm9 0h1v1h-1zm1 0h1v1h-1zm11 0h1v1h-1zm5 0h1v1h-1zm1 0h1v1h-1zm2 0h1v1h-1zm1 0h1v1h-1zm15 0h1v1h-1zm7 0h1v1h-1zm15 0h1v12h-1zm1 0h1v1h-1zm7 0h1v1h-1zm15 0h1v1h-1zm20 0h1v1h-1zm11 0h1v1h-1zm36 0h1v1h-1zm1 0h1v1h-1z"/><path d="M275 48h13v1h-13zm13 0h1v12h-1zm1 0h1v1h-1zm13 0h1v1h-1zm1 0h8v4h-8zm9 0h1v1h-1zm24 0h1v1h-1zm1 0h14v1h-14zm15 0h1v1h-1zM32 49h1v1h-1zm1 0h16v1H33zm27 0h1v1h-1zm1 0h12v1H61zm13 0h1v1h-1zm1 0h1v1h-1zm19 0h1v1h-1zm1 0h1v1h-1zm13 0h1v1h-1zm1 0h1v1h-1zm6 0h1v1h-1zm1 0h8v5h-8zm9 0h1v1h-1zm1 0h1v1h-1zm10 0h1v1h-1zm1 0h1v1h-1zm5 0h1v9h-1zm1 0h1v1h-1zm3 0h1v1h-1zm15 0h1v1h-1zm1 0h1v1h-1zm6 0h1v1h-1zm16 0h1v1h-1zm7 0h1v1h-1zm1 0h13v1h-13zm14 0h1v1h-1zm1 0h1v1h-1zm19 0h1v1h-1zm10 0h1v1h-1zm1 0h1v1h-1zm37 0h1v1h-1zm1 0h13v1h-13zm14 0h1v1h-1zm1 0h1v1h-1zm12 0h1v1h-1zm10 0h1v1h-1zm24 0h1v1h-1zm1 0h1v1h-1zm15 0h1v11h-1zm1 0h1v1h-1zM33 50h1v1h-1zm1 0h15v1H34zm26 0h1v1h-1zm1 0h1v1h-1zm1 0h12v1H62zm12 0h1v10h-1zm1 0h1v1h-1zm19 0h1v1h-1zm1 0h12v2H95zm13 0h1v1h-1zm1 0h1v1h-1zm6 0h1v1h-1zm10 0h1v1h-1zm11 0h1v1h-1zm1 0h5v10h-5zm6 0h1v1h-1zm3 0h1v1h-1zm1 0h14v1h-14zm14 0h1v10h-1zm1 0h1v1h-1zm6 0h1v1h-1zm1 0h15v1h-15zm15 0h1v10h-1zm1 0h1v1h-1zm6 0h1v1h-1zm1 0h1v1h-1zm1 0h13v2h-13zm13 0h1v11h-1zm1 0h1v1h-1zm18 0h1v1h-1zm1 0h9v3h-9zm10 0h1v1h-1zm1 0h1v1h-1zm37 0h1v1h-1zm1 0h1v1h-1z"/><path d="M276 50h13v1h-13zm13 0h1v10h-1zm1 0h1v1h-1zm12 0h1v1h-1zm9 0h1v1h-1zm1 0h1v1h-1zm25 0h1v1h-1zm16 0h1v1h-1zM33 51h1v1h-1zm1 0h1v1h-1zm1 0h14v1H35zm26 0h1v1h-1zm1 0h13v1H62zm13 0h1v10h-1zm1 0h1v1h-1zm17 0h1v1h-1zm1 0h13v1H94zm13 0h1v1h-1zm1 0h1v1h-1zm6 0h1v1h-1zm1 0h9v3h-9zm9 0h1v1h-1zm1 0h1v1h-1zm11 0h1v1h-1zm7 0h1v4h-1zm1 0h1v1h-1zm3 0h1v1h-1zm15 0h1v1h-1zm7 0h1v1h-1zm16 0h1v1h-1zm7 0h1v1h-1zm15 0h1v1h-1zm1 0h1v1h-1zm16 0h1v1h-1zm1 0h1v1h-1zm11 0h1v1h-1zm39 0h1v1h-1zm1 0h13v1h-13zm14 0h1v1h-1zm1 0h1v1h-1zm10 0h1v1h-1zm1 0h8v4h-8zm9 0h1v1h-1zm26 0h1v1h-1zm1 0h14v1h-14zm15 0h1v1h-1zm1 0h1v1h-1zM34 52h1v1h-1zm1 0h1v1h-1zm27 0h1v1h-1z"/><path d="M63 52h13v1H63zm13 0h1v9h-1zm1 0h1v1h-1zm15 0h1v1h-1zm1 0h13v1H93zm13 0h1v1h-1zm1 0h1v1h-1zm7 0h1v1h-1zm10 0h1v1h-1zm11 0h1v1h-1zm1 0h7v6h-7zm8 0h1v1h-1zm3 0h1v1h-1zm15 0h1v1h-1zm1 0h1v1h-1zm6 0h1v1h-1zm16 0h1v1h-1zm7 0h1v1h-1zm1 0h14v1h-14zm14 0h1v9h-1zm1 0h1v1h-1zm1 0h1v1h-1zm14 0h1v1h-1zm1 0h1v1h-1zm1 0h10v1h-10zm10 0h1v1h-1zm1 0h1v1h-1zm39 0h1v1h-1zm1 0h1v1h-1zm1 0h13v1h-13zm13 0h1v8h-1zm1 0h1v1h-1zm10 0h1v1h-1zm9 0h1v1h-1zm1 0h1v1h-1zm27 0h1v1h-1zm15 0h1v8h-1zm1 0h1v1h-1zM35 53h1v1h-1zm1 0h13v1H36zm26 0h1v1h-1zm1 0h1v1h-1z"/><path d="M64 53h13v1H64zm13 0h1v8h-1zm1 0h1v1h-1zm1 0h1v1h-1zm11 0h1v1h-1zm1 0h1v1h-1zm1 0h13v1H92zm13 0h1v1h-1zm1 0h1v1h-1zm1 0h1v1h-1zm7 0h1v1h-1zm10 0h1v1h-1zm11 0h1v1h-1zm9 0h1v1h-1zm3 0h1v1h-1zm1 0h14v1h-14zm14 0h1v7h-1zm1 0h1v1h-1zm6 0h1v1h-1zm1 0h15v1h-15zm15 0h1v7h-1zm1 0h1v1h-1zm7 0h1v1h-1zm1 0h15v1h-15zm15 0h1v9h-1zm1 0h1v1h-1zm1 0h1v1h-1zm1 0h1v1h-1zm8 0h1v1h-1zm1 0h1v1h-1zm1 0h1v1h-1zm1 0h11v2h-11zm11 0h1v1h-1zm1 0h1v1h-1zm41 0h1v1h-1zm1 0h14v1h-14zm14 0h1v7h-1zm1 0h1v1h-1zm8 0h1v1h-1zm1 0h1v1h-1zm9 0h1v1h-1zm1 0h1v1h-1zm27 0h1v1h-1zm1 0h14v1h-14zm15 0h1v1h-1zM36 54h1v1h-1zm1 0h12v1H37zm26 0h1v1h-1zm1 0h1v1h-1z"/><path d="M65 54h13v1H65zm13 0h1v7h-1zm1 0h1v1h-1zm1 0h1v1h-1zm1 0h1v1h-1zm7 0h1v1h-1zm1 0h1v1h-1zm1 0h1v1h-1zm1 0h13v1H91zm13 0h1v1h-1zm1 0h1v1h-1zm1 0h1v1h-1zm7 0h1v1h-1zm1 0h9v2h-9zm9 0h1v1h-1zm1 0h1v1h-1zm11 0h1v1h-1zm9 0h1v1h-1zm4 0h1v1h-1zm15 0h1v1h-1zm7 0h1v1h-1zm16 0h1v1h-1zm7 0h1v1h-1zm1 0h18v1h-18zm18 0h1v8h-1zm1 0h1v1h-1zm1 0h1v1h-1zm1 0h2v1h-2zm2 0h1v1h-1zm1 0h1v1h-1zm1 0h1v1h-1zm1 0h13v2h-13zm14 0h1v1h-1zm1 0h1v1h-1zm41 0h1v1h-1zm1 0h1v1h-1zm1 0h13v1h-13zm14 0h1v1h-1zm8 0h1v1h-1zm1 0h8v3h-8zm9 0h1v1h-1zm28 0h1v1h-1zm1 0h1v1h-1zm15 0h1v6h-1zm1 0h1v1h-1zM36 55h1v1h-1zm1 0h1v1h-1zm1 0h11v1H38zm26 0h1v1h-1zm1 0h1v1h-1z"/><path d="M66 55h14v1H66zm14 0h1v7h-1zm1 0h1v1h-1zm1 0h1v1h-1zm1 0h1v1h-1zm1 0h1v1h-1zm1 0h1v1h-1zm1 0h1v1h-1zm1 0h1v1h-1zm1 0h1v1h-1zm1 0h14v1H89zm14 0h1v1h-1zm1 0h1v1h-1zm1 0h1v1h-1zm8 0h1v1h-1zm10 0h1v1h-1zm11 0h1v1h-1zm1 0h8v3h-8zm8 0h1v1h-1zm1 0h1v1h-1zm4 0h1v1h-1zm1 0h14v1h-14zm14 0h1v5h-1zm1 0h1v1h-1zm6 0h1v1h-1zm1 0h14v1h-14zm15 0h1v1h-1zm1 0h1v1h-1zm7 0h1v1h-1zm1 0h38v1h-38zm38 0h1v1h-1zm1 0h1v1h-1zm43 0h1v1h-1zm1 0h14v1h-14zm14 0h1v5h-1zm1 0h1v1h-1zm7 0h1v1h-1zm9 0h1v1h-1zm1 0h1v1h-1zm29 0h1v1h-1zm16 0h1v1h-1zM37 56h1v1h-1zm1 0h1v1h-1zm27 0h1v1h-1zm1 0h1v1h-1z"/><path d="M67 56h35v1H67zm35 0h1v1h-1zm1 0h1v1h-1zm1 0h1v1h-1zm8 0h1v1h-1zm1 0h1v1h-1zm1 0h8v3h-8zm8 0h1v1h-1zm1 0h1v1h-1zm11 0h1v1h-1zm9 0h1v1h-1zm5 0h1v1h-1zm1 0h1v1h-1zm15 0h1v1h-1zm6 0h1v1h-1zm1 0h1v1h-1zm15 0h1v4h-1zm1 0h1v1h-1zm8 0h1v1h-1zm1 0h36v1h-36zm36 0h1v1h-1zm1 0h1v1h-1zm44 0h1v1h-1zm1 0h1v1h-1zm1 0h13v1h-13zm14 0h1v1h-1zm6 0h1v1h-1zm1 0h8v4h-8zm9 0h1v1h-1zm30 0h1v1h-1zm1 0h14v1h-14zm15 0h1v1h-1zm1 0h1v1h-1zM38 57h1v1h-1zm1 0h10v1H39zm27 0h1v1h-1zm1 0h1v1h-1zm1 0h33v1H68zm33 0h1v1h-1zm1 0h1v1h-1zm1 0h1v1h-1zm9 0h1v1h-1z"/><path d="M113 57h8v3h-8zm9 0h1v1h-1zm1 0h1v1h-1zm11 0h1v1h-1zm9 0h1v1h-1zm6 0h1v1h-1zm15 0h1v1h-1zm1 0h1v1h-1zm6 0h1v1h-1zm16 0h1v1h-1zm8 0h1v1h-1zm1 0h1v1h-1zm1 0h34v1h-34zm34 0h1v1h-1zm1 0h1v1h-1zm1 0h1v1h-1zm45 0h1v1h-1zm1 0h14v1h-14zm14 0h1v3h-1zm1 0h1v1h-1zm5 0h1v1h-1zm9 0h1v1h-1zm1 0h1v1h-1zm31 0h1v1h-1zm15 0h1v3h-1zm1 0h1v1h-1zM39 58h1v1h-1zm1 0h9v1h-9zm27 0h1v1h-1zm1 0h1v1h-1zm1 0h31v1H69zm31 0h1v1h-1zm1 0h1v1h-1zm1 0h1v1h-1zm10 0h1v1h-1zm10 0h1v1h-1zm11 0h1v1h-1zm1 0h8v2h-8zm8 0h1v1h-1zm1 0h1v1h-1zm6 0h1v1h-1zm1 0h14v1h-14zm14 0h1v2h-1zm1 0h1v1h-1zm6 0h1v1h-1zm1 0h15v1h-15zm15 0h1v2h-1zm1 0h1v1h-1zm8 0h1v1h-1zm1 0h1v1h-1zm1 0h32v1h-32zm32 0h1v1h-1zm1 0h1v1h-1zm1 0h1v1h-1zm46 0h1v1h-1zm1 0h1v1h-1zm1 0h13v1h-13zm14 0h1v1h-1zm4 0h1v1h-1zm1 0h1v1h-1zm9 0h1v1h-1zm1 0h1v1h-1zm31 0h1v1h-1zm1 0h14v1h-14zm15 0h1v1h-1zM39 59h1v1h-1zm1 0h1v1h-1zm1 0h8v1h-8zm28 0h1v1h-1zm1 0h1v1h-1zm1 0h27v1H71zm27 0h1v1h-1zm1 0h1v1h-1zm1 0h1v1h-1zm11 0h1v1h-1z"/><path d="M112 59h9v1h-9zm9 0h1v1h-1zm1 0h1v1h-1zm11 0h1v1h-1zm9 0h1v1h-1zm8 0h1v1h-1zm15 0h1v1h-1zm6 0h1v1h-1zm1 0h1v1h-1zm16 0h1v1h-1zm10 0h1v1h-1zm1 0h1v1h-1zm1 0h28v1h-28zm28 0h1v1h-1zm1 0h1v1h-1zm1 0h1v1h-1zm49 0h1v1h-1zm1 0h14v1h-14zm14 0h1v1h-1zm1 0h1v1h-1zm3 0h1v1h-1zm1 0h8v1h-8zm9 0h1v1h-1zm32 0h1v1h-1zm1 0h1v1h-1zm15 0h1v1h-1zm1 0h1v1h-1zM1 60h9v1H1zm9 0h1v1h-1zm30 0h1v1h-1zm1 0h1v1h-1zm1 0h7v1h-7zm7 0h1v1h-1zm21 0h1v1h-1zm1 0h1v1h-1zm1 0h1v1h-1zm1 0h23v1H73zm23 0h1v1h-1zm1 0h1v1h-1zm1 0h1v1h-1zm1 0h1v1h-1zm12 0h1v1h-1zm1 0h8v1h-8zm8 0h1v1h-1zm1 0h1v1h-1zm1 0h1v1h-1zm10 0h1v1h-1zm1 0h1v1h-1zm1 0h7v1h-7zm7 0h1v1h-1zm1 0h1v1h-1zm8 0h1v1h-1zm1 0h13v1h-13zm13 0h1v1h-1zm1 0h1v1h-1zm1 0h1v1h-1zm6 0h1v1h-1zm1 0h14v1h-14zm14 0h1v1h-1zm1 0h1v1h-1zm11 0h1v1h-1zm1 0h1v1h-1zm1 0h26v1h-26zm26 0h1v1h-1zm1 0h1v1h-1zm1 0h1v1h-1zm19 0h1v1h-1zm1 0h12v1h-12zm12 0h1v1h-1zm1 0h1v1h-1zm18 0h1v1h-1zm1 0h13v1h-13zm13 0h1v1h-1zm1 0h1v1h-1zm1 0h1v1h-1zm2 0h1v1h-1zm1 0h8v1h-8zm8 0h1v1h-1zm1 0h1v1h-1zm33 0h1v1h-1zm1 0h14v1h-14zm14 0h1v1h-1zm1 0h1v1h-1zM1 61h9v1H1zm9 0h1v1h-1zm31 0h1v1h-1zm1 0h7v1h-7zm7 0h1v1h-1zm23 0h1v1h-1zm1 0h1v1h-1zm1 0h1v1h-1zm1 0h19v1H75zm19 0h1v1h-1zm1 0h1v1h-1zm1 0h1v1h-1zm1 0h1v1h-1zm14 0h1v1h-1zm1 0h8v1h-8zm8 0h1v1h-1zm1 0h1v1h-1zm11 0h1v1h-1zm1 0h8v1h-8zm8 0h1v1h-1zm1 0h1v1h-1zm8 0h1v1h-1zm1 0h14v1h-14zm14 0h1v1h-1zm1 0h1v1h-1zm6 0h1v1h-1zm1 0h15v1h-15zm15 0h1v1h-1zm1 0h1v1h-1zm12 0h1v1h-1zm1 0h1v1h-1zm1 0h1v1h-1zm1 0h20v1h-20zm20 0h1v1h-1zm1 0h1v1h-1zm1 0h1v1h-1zm1 0h1v1h-1zm21 0h1v1h-1zm1 0h12v1h-12zm12 0h1v1h-1zm1 0h1v1h-1zm18 0h1v1h-1zm1 0h14v1h-14zm14 0h1v1h-1zm1 0h1v1h-1zm1 0h1v1h-1zm1 0h9v1h-9zm9 0h1v1h-1zm34 0h1v1h-1zm1 0h15v1h-15zm15 0h1v1h-1zM75 62h1v1h-1zm1 0h1v1h-1zm1 0h1v1h-1zm1 0h1v1h-1zm1 0h11v1H79zm11 0h1v1h-1zm1 0h1v1h-1zm1 0h1v1h-1zm1 0h1v1h-1zm1 0h1v1h-1zm109 0h1v1h-1zm1 0h1v1h-1zm1 0h1v1h-1zm1 0h1v1h-1zm1 0h1v1h-1zm1 0h12v1h-12zm12 0h1v1h-1zm1 0h1v1h-1zm1 0h1v1h-1zm1 0h1v1h-1zm1 0h1v1h-1zm1 0h1v1h-1zM78 63h1v1h-1zm1 0h1v1h-1zm1 0h1v1h-1zm1 0h1v1h-1zm1 0h1v1h-1zm1 0h3v1h-3zm3 0h1v1h-1zm1 0h1v1h-1zm1 0h1v1h-1zm1 0h1v1h-1zm1 0h1v1h-1zm1 0h1v1h-1zm116 0h1v1h-1zm1 0h1v1h-1zm1 0h1v1h-1zm1 0h1v1h-1zm1 0h1v1h-1zm1 0h1v1h-1zm1 0h2v1h-2zm2 0h1v1h-1zm1 0h1v1h-1zm1 0h1v1h-1zm1 0h1v1h-1zm1 0h1v1h-1zm1 0h1v1h-1zm1 0h1v1h-1z"/></g></svg>