<svg xmlns="http://www.w3.org/2000/svg" role="img" viewBox="-10.84 -10.34 537.68 144.18"><title>nops.io (member) logo</title><style>svg {enable-background:new 0 0 517 124}</style><path fill="#0c1218" d="M291.2 95.8h-16.4V58.4c0-7.7-3.8-11.6-11.4-11.6-5.9 0-10.6 2.4-14.2 7.3v41.8h-16.4v-62h16.4V42c5.4-6.4 12.6-9.6 21.7-9.6 6.6 0 11.7 1.8 15.2 5.3 3.4 3.5 5.1 8.4 5.1 14.5v43.6zm126.4 1.6c-7.7 0-14.2-3.2-19.2-9.5v31.6H382V33.8h16.4v7.8c4.9-6.3 11.3-9.4 19.2-9.4 8.2 0 14.7 2.9 19.9 8.6 5.1 5.7 7.6 13.7 7.6 23.9 0 10.1-2.5 18-7.6 23.9-5.2 5.9-11.8 8.8-19.9 8.8zm-5.2-14.5c4.8 0 8.5-1.7 11.4-5s4.3-7.7 4.3-13.2c0-5.3-1.4-9.6-4.3-12.9-2.9-3.3-6.6-5-11.4-5-2.7 0-5.3.7-8 2.1-2.7 1.3-4.6 3.1-6.1 5v22c1.3 2 3.4 3.6 6.1 5 2.8 1.3 5.4 2 8 2zm62.5 14.5c-5.4 0-10.5-.9-15.5-2.5-5-1.7-9.1-4.1-12.3-7.1l7.1-11.4c2.4 2.2 5.6 4.2 9.7 5.9 4.1 1.8 8 2.5 11.7 2.5 3.4 0 6-.6 7.8-1.8s2.7-2.9 2.7-4.9c0-1.5-.9-2.8-2.8-3.8s-4.1-1.7-6.9-2.1c-2.7-.4-5.6-1.1-8.9-1.9-3.2-.9-6.2-1.9-8.9-3.1-2.7-1.2-5-3.1-6.9-5.7-1.9-2.7-2.8-5.9-2.8-9.7 0-5.5 2.3-10.1 6.9-13.8 4.5-3.8 10.7-5.6 18.6-5.6 9.6 0 17.9 2.9 25.1 8.5L493 52c-2-2.1-4.6-3.8-7.9-5.1s-6.8-2.1-10.5-2.1c-2.9 0-5.3.6-7.1 1.8-1.8 1.1-2.7 2.7-2.7 4.4 0 1.3.9 2.5 2.7 3.4 1.8.9 4.1 1.5 6.9 2 2.8.4 5.8 1.1 8.9 2 3.2.9 6.1 2 8.9 3.2s5 3.2 6.9 6c1.8 2.8 2.7 6.1 2.7 10.1 0 5.9-2.3 10.6-7.1 14.4-4.8 3.4-11.4 5.3-19.8 5.3zM299.1 53c0-29.1 14.9-44.3 37.8-44.3 22.8 0 37.8 15.3 37.8 44.3 0 29.1-14.9 44.3-37.8 44.3-22.8.1-37.8-15.2-37.8-44.3zm55.7 6.5V46.6c0-13.6-6.8-21.3-17.9-21.3-11.2 0-17.9 7.7-17.9 21.3v12.7c0 13.6 6.8 21.3 17.9 21.3 11.2.2 17.9-7.5 17.9-21.1zm150.9-25.7h-.9v-7h-2.5V26h6v.9h-2.5v6.9h-.1zm11.3 0h-1v-6.5l-2.7 6.5h-.4l-2.7-6.5v6.5h-1V26h1.4l2.4 6 2.4-6h1.4v7.8h.2z"/><path fill="#22c7e3" d="M190.3 98.1c-6.3 0-11.5-5.1-11.5-11.5v-45c0-6.3 5.1-11.5 11.5-11.5 6.3 0 11.5 5.1 11.5 11.5v45.2c0 6.3-5.1 11.3-11.5 11.3zM156.4 124c-6.3 0-11.5-5.1-11.5-11.5V12c0-6.3 5.1-11.5 11.5-11.5 6.3 0 11.5 5.1 11.5 11.5v100.5c-.1 6.3-5.2 11.5-11.5 11.5z"/><path fill="#0071e9" d="M122.4 119.9c-6.3 0-11.5-5.1-11.5-11.5V18c0-6.3 5.1-11.5 11.5-11.5 6.3 0 11.5 5.1 11.5 11.5v90.4c.1 6.3-5.1 11.5-11.5 11.5zM100 25.4v78.9c0 10.8-8.9 19.7-19.7 19.7H48.9C21.9 123.4 0 101.3 0 74c0-27.2 21.9-49.4 49-49.8v0h.9-.9C49.7 10.7 60.9 0 74.5 0S99.3 10.7 100 24.2v1.2z"/></svg>