<svg xmlns="http://www.w3.org/2000/svg" role="img" viewBox="10.52 9.77 427.70 112.20"><title>NTT DATA MSE CORPORATION logo</title><defs><clipPath id="a" clipPathUnits="userSpaceOnUse"><path d="M0 95h335V0H0z"/></clipPath></defs><g transform="matrix(1.33333 0 0 -1.33333 0 126.667)"><path fill="#332d2b" fill-opacity="1" fill-rule="nonzero" stroke="none" d="M14.12 31.24h3.168l7.825-12.625h.048V31.24h2.856V14.102h-3.168l-7.801 12.602h-.072V14.102H14.12z"/><path fill="#332d2b" fill-opacity="1" fill-rule="nonzero" stroke="none" d="M30.416 31.24H44.29v-2.593h-5.448V14.102h-3v14.545h-5.426z"/><path fill="#332d2b" fill-opacity="1" fill-rule="nonzero" stroke="none" d="M46.087 31.24H59.96v-2.593h-5.448V14.102h-3v14.545h-5.425z"/><g clip-path="url(#a)"><path fill="#332d2b" fill-opacity="1" fill-rule="nonzero" stroke="none" d="M72.584 16.55h2.952c4.704 0 5.712 2.688 5.712 6.12 0 3.433-1.008 6.121-5.712 6.121h-2.952zm-3 14.689h7.104c5.281 0 7.56-3.84 7.56-8.569 0-4.727-2.279-8.568-7.56-8.568h-7.104z"/><path fill="#332d2b" fill-opacity="1" fill-rule="nonzero" stroke="none" d="M88.76 20.919h5.232l-2.568 7.369h-.072zm1.057 10.321h3.191l6.601-17.137h-3.216l-1.609 4.536h-6.84l-1.608-4.536h-3.097z"/><path fill="#332d2b" fill-opacity="1" fill-rule="nonzero" stroke="none" d="M97.926 31.24H111.8v-2.593h-5.449V14.102h-3v14.545h-5.425z"/><path fill="#332d2b" fill-opacity="1" fill-rule="nonzero" stroke="none" d="M115.638 20.919h5.232l-2.568 7.369h-.071zm1.057 10.321h3.191l6.602-17.137h-3.217l-1.608 4.536h-6.84l-1.609-4.536h-3.096z"/><path fill="#332d2b" fill-opacity="1" fill-rule="nonzero" stroke="none" d="M134.742 31.24h4.225l4.728-13.417h.048l4.608 13.417h4.176V14.102h-2.855v13.226h-.049l-4.752-13.226h-2.473l-4.752 13.226h-.048V14.102h-2.856z"/><path fill="#332d2b" fill-opacity="1" fill-rule="nonzero" stroke="none" d="M158.094 19.815c0-2.641 1.944-3.673 4.345-3.673 2.639 0 3.624 1.296 3.624 2.593 0 1.319-.72 1.848-1.417 2.111-1.199.456-2.76.769-5.112 1.417-2.928.792-3.793 2.568-3.793 4.344 0 3.433 3.168 5.041 6.265 5.041 3.576 0 6.577-1.896 6.577-5.473h-3.001c-.143 2.208-1.632 3.025-3.696 3.025-1.393 0-3.145-.505-3.145-2.233 0-1.2.817-1.872 2.041-2.208.264-.072 4.057-1.056 4.944-1.32 2.257-.672 3.337-2.593 3.337-4.368 0-3.841-3.408-5.377-6.817-5.377-3.913 0-7.081 1.872-7.153 6.121z"/><path fill="#332d2b" fill-opacity="1" fill-rule="nonzero" stroke="none" d="M171.677 31.24h12.338v-2.593h-9.338v-4.488h8.642v-2.448h-8.642v-5.017h9.506v-2.592h-12.506z"/><path fill="#332d2b" fill-opacity="1" fill-rule="nonzero" stroke="none" d="M205.039 25.792c-.504 1.968-1.776 3.408-4.273 3.408-3.672 0-5.208-3.24-5.208-6.529 0-3.288 1.536-6.528 5.208-6.528 2.665 0 4.128 1.992 4.369 4.488h2.927c-.24-4.105-3.144-6.937-7.296-6.937-5.136 0-8.208 4.08-8.208 8.977 0 4.896 3.072 8.977 8.208 8.977 3.865-.024 6.913-2.16 7.273-5.856z"/><path fill="#332d2b" fill-opacity="1" fill-rule="nonzero" stroke="none" d="M219.63 20.32c0 2.136-1.08 4.368-3.528 4.368-2.449 0-3.529-2.232-3.529-4.368 0-2.16 1.08-4.393 3.529-4.393 2.448 0 3.528 2.233 3.528 4.393m-9.792 0c0 3.792 2.279 6.528 6.264 6.528 3.984 0 6.264-2.736 6.264-6.528 0-3.816-2.28-6.553-6.264-6.553-3.985 0-6.264 2.737-6.264 6.553"/><path fill="#332d2b" fill-opacity="1" fill-rule="nonzero" stroke="none" d="M224.644 26.512h2.568v-2.4h.048c.312 1.32 1.945 2.736 3.624 2.736.625 0 .793-.048 1.033-.072v-2.64c-.384.048-.793.12-1.176.12-1.872 0-3.361-1.513-3.361-4.249v-5.904h-2.736z"/><path fill="#332d2b" fill-opacity="1" fill-rule="nonzero" stroke="none" d="M239.285 24.688c-2.305 0-3.48-1.752-3.48-4.393 0-2.496 1.271-4.368 3.48-4.368 2.496 0 3.432 2.208 3.432 4.368 0 2.256-1.176 4.393-3.432 4.393m-6.121 1.824h2.593v-1.68h.048c.767 1.417 2.255 2.016 3.839 2.016 3.912 0 5.809-2.976 5.809-6.6 0-3.336-1.68-6.481-5.352-6.481-1.584 0-3.289.576-4.152 1.944h-.049V9.519h-2.736z"/><path fill="#332d2b" fill-opacity="1" fill-rule="nonzero" stroke="none" d="M256.972 20.32c0 2.136-1.08 4.368-3.528 4.368-2.449 0-3.529-2.232-3.529-4.368 0-2.16 1.08-4.393 3.529-4.393 2.448 0 3.528 2.233 3.528 4.393m-9.793 0c0 3.792 2.28 6.528 6.265 6.528 3.984 0 6.264-2.736 6.264-6.528 0-3.816-2.28-6.553-6.264-6.553-3.985 0-6.265 2.737-6.265 6.553"/><path fill="#332d2b" fill-opacity="1" fill-rule="nonzero" stroke="none" d="M261.987 26.512h2.568v-2.4h.048c.313 1.32 1.945 2.736 3.625 2.736.623 0 .791-.048 1.031-.072v-2.64c-.383.048-.791.12-1.175.12-1.872 0-3.361-1.513-3.361-4.249v-5.904h-2.736z"/><path fill="#332d2b" fill-opacity="1" fill-rule="nonzero" stroke="none" d="M278.091 20.32c-.84-.553-2.16-.528-3.36-.744-1.176-.193-2.232-.624-2.232-2.065 0-1.223 1.56-1.584 2.52-1.584 1.2 0 3.072.624 3.072 2.353zm2.736-3.457c0-.672.145-.936.649-.936.168 0 .384 0 .672.048v-1.896c-.409-.144-1.273-.312-1.729-.312-1.103 0-1.896.384-2.111 1.512-1.08-1.056-2.833-1.512-4.297-1.512-2.232 0-4.248 1.2-4.248 3.624 0 3.097 2.472 3.601 4.775 3.865 1.969.36 3.721.144 3.721 1.752 0 1.416-1.464 1.68-2.568 1.68-1.536 0-2.616-.624-2.737-1.968h-2.736c.192 3.192 2.904 4.128 5.641 4.128 2.423 0 4.968-.984 4.968-3.6z"/><path fill="#332d2b" fill-opacity="1" fill-rule="nonzero" stroke="none" d="M282.53 26.512h2.064v3.721h2.737v-3.721h2.472v-2.04h-2.472v-6.625c0-1.128.095-1.704 1.32-1.704.384 0 .768 0 1.152.096v-2.112c-.6-.049-1.176-.144-1.777-.144-2.855 0-3.384 1.104-3.432 3.168v7.321h-2.064z"/><path fill="#332d2b" fill-opacity="1" fill-rule="nonzero" stroke="none" d="M291.843 26.512h2.736V14.103h-2.736zm0 4.728h2.736v-2.593h-2.736z"/><path fill="#332d2b" fill-opacity="1" fill-rule="nonzero" stroke="none" d="M306.771 20.32c0 2.136-1.08 4.368-3.528 4.368-2.449 0-3.529-2.232-3.529-4.368 0-2.16 1.08-4.393 3.529-4.393 2.448 0 3.528 2.233 3.528 4.393m-9.793 0c0 3.792 2.28 6.528 6.265 6.528 3.984 0 6.264-2.736 6.264-6.528 0-3.816-2.28-6.553-6.264-6.553-3.985 0-6.265 2.737-6.265 6.553"/><path fill="#332d2b" fill-opacity="1" fill-rule="nonzero" stroke="none" d="M311.786 26.512h2.593v-1.824l.048-.048c.815 1.368 2.231 2.208 3.864 2.208 2.687 0 4.392-1.44 4.392-4.225v-8.52h-2.736v7.801c-.049 1.944-.816 2.784-2.424 2.784-1.824 0-3.001-1.441-3.001-3.265v-7.32h-2.736z"/><path fill="#5989c7" fill-opacity="1" fill-rule="nonzero" stroke="none" d="M86.076 81.1v-7.002h10.673V47.825h7.557v26.273h10.672V81.1z"/><path fill="#5989c7" fill-opacity="1" fill-rule="nonzero" stroke="none" d="M199.5 54.942c-1.145 0-2.423.58-2.423 3.439 0 2.852 1.265 3.35 2.423 3.35h14.246v-6.789zM210.469 81.1h-19.024v-7.062h18.524c2.719 0 3.777-1.237 3.777-4.426.004-.014.004-.906.004-1.166h-15.354c-5.833 0-8.744-2.924-8.744-9.525v-1.573c0-6.787 3.012-9.517 9.06-9.517h22.52v21.873c0 8.379-2.774 11.396-10.763 11.396"/><path fill="#5989c7" fill-opacity="1" fill-rule="nonzero" stroke="none" d="M262.246 54.942c-1.141 0-2.426.58-2.426 3.439 0 2.852 1.268 3.35 2.426 3.35h14.248v-6.789zM273.222 81.1h-19.027v-7.062h18.524c2.717 0 3.775-1.237 3.775-4.426v-1.166h-15.35c-5.837 0-8.742-2.924-8.742-9.525v-1.573c0-6.787 3.008-9.517 9.061-9.517h22.512v21.873c0 8.379-2.768 11.396-10.753 11.396"/><path fill="#5989c7" fill-opacity="1" fill-rule="nonzero" stroke="none" d="M117.386 81.1v-7.002h10.674V47.825h7.555v26.273h10.675V81.1z"/><path fill="#5989c7" fill-opacity="1" fill-rule="nonzero" stroke="none" d="M222.753 81.1v-7.002h10.664V47.825h7.563v26.273h10.673V81.1z"/><path fill="#5989c7" fill-opacity="1" fill-rule="nonzero" stroke="none" d="M179.003 59.34c0-3.186-1.072-4.424-3.793-4.424h-12.168v19.098h12.168c2.721 0 3.793-1.236 3.793-4.422zm7.715.148v9.948c0 8.722-3.381 11.664-11.002 11.664h-20.234V47.83h20.585c8.096 0 10.651 4.026 10.651 11.658"/><path fill="#5989c7" fill-opacity="1" fill-rule="nonzero" stroke="none" d="M75.415 55.755c-.156.307-10.263 19.98-11.493 21.92-1.424 2.242-3.156 3.793-6.481 3.793-3.084 0-6.737-1.367-6.737-8.774V47.819h7.454v20.747c0 1.49-.092 3.695-.114 4.144-.017.361 0 .707.186.813.215.127.429-.075.575-.352.144-.273 9.507-18.801 11.498-21.918 1.422-2.24 3.155-3.797 6.476-3.797 3.084 0 6.739 1.367 6.739 8.778v24.875h-7.454V60.36c0-1.49.095-3.693.112-4.142.017-.363 0-.707-.185-.818-.216-.12-.43.076-.576.355"/></g></g></svg>