<svg xmlns="http://www.w3.org/2000/svg" role="img" viewBox="-25.02 -25.02 1249.04 1249.04"><title>Occentus Network logo</title><path fill="#7dba00" fill-rule="evenodd" stroke="#7dba00" stroke-miterlimit="3.864" stroke-width=".94" d="M.47.47h1199.06v1199.06H.47z" clip-rule="evenodd"/><path fill="#fff" fill-rule="evenodd" d="M230.76628 575.31885c0 7.72568-2.3732 14.01224-7.11128 18.85128-4.73808 4.73808-11.03304 7.11128-18.85128 7.11128H147.9218c-7.52368 0-13.70088-2.42376-18.53992-7.2628-4.83904-4.83904-7.26272-11.07512-7.26272-18.69976v-34.62232c0-7.31328 2.47416-13.4484 7.42264-18.3884 5.04944-5.04944 11.17608-7.57416 18.3884-7.57416h56.882c7.41424 0 13.59136 2.47424 18.53984 7.42264 4.94848 4.94008 7.42264 11.12568 7.42264 18.54832v34.61392z" clip-rule="evenodd"/><path fill="#7dba00" fill-rule="evenodd" d="M213.45516 575.31885v-34.62232c0-5.87416-2.88664-8.81128-8.65144-8.81128H147.9218c-2.46584 0-4.52768.8752-6.1772 2.62568-1.64104 1.64952-2.47416 3.70296-2.47416 6.1772v34.62232c0 5.7732 2.88656 8.65136 8.65136 8.65136h56.88192c5.7648.016 8.65144-2.86976 8.65144-8.64296z" clip-rule="evenodd"/><path fill="#fff" fill-rule="evenodd" d="M352.20539 601.28141h-82.83607c-7.42272 0-13.59984-2.42376-18.54832-7.2628-4.83904-4.9484-7.2544-11.17608-7.2544-18.69976v-34.62232c0-7.62464 2.41536-13.86072 7.2544-18.69976 4.84744-4.83904 11.03304-7.2628 18.54832-7.2628h82.83607l-14.81168 17.15968h-68.02439c-5.7732 0-8.65144 2.93712-8.65144 8.81128v34.62232c0 5.7732 2.88664 8.65144 8.65144 8.65144h68.02439zm123.39992 0h-82.83608c-7.42264 0-13.59984-2.42376-18.54824-7.2628-4.83912-4.9484-7.2628-11.17608-7.2628-18.69976v-34.62232c0-7.62464 2.42368-13.86072 7.2628-18.69976 4.84744-4.83904 11.03296-7.2628 18.54824-7.2628h82.83608l-14.81168 17.15968h-68.0244c-5.7732 0-8.65136 2.93712-8.65136 8.81128v34.62232c0 5.7732 2.88656 8.65144 8.65136 8.65144h68.0244z" clip-rule="evenodd"/><path fill="#fff" fill-rule="evenodd" d="M601.72422 583.97935v17.30276h-108.6388v-86.54747h108.6388v17.1597H510.2367V549.357h91.4875v17.31118h-91.4875v17.31117zm169.52666 17.30276v-69.38777h-45.58806v-17.1597h108.6472v17.1597h-45.74796v69.38777z" clip-rule="evenodd"/><path fill="#fff" fill-rule="evenodd" d="M957.70932 575.31885c0 7.52368-2.47424 13.75136-7.42272 18.69976-4.83904 4.84752-11.02456 7.2628-18.53984 7.2628h-56.87352c-7.21232 0-13.34736-2.47424-18.3968-7.42264-4.94848-5.04952-7.41432-11.22664-7.41432-18.53992v-60.58488H866.205v60.58488c0 2.46584.83312 4.52768 2.48264 6.1772 1.64104 1.64944 3.70296 2.47416 6.17712 2.47416h56.8736c5.7732 0 8.65136-2.88656 8.65136-8.65136v-60.58488h17.3112v60.58488zm122.70988 0c0 7.11128-2.5248 13.238-7.5658 18.3884-5.0494 5.04944-11.1761 7.57416-18.3968 7.57416h-82.67616v-17.3112l82.67616-.16c2.3733 0 4.3846-.8248 6.0341-2.47424 1.7505-1.64952 2.6257-3.66088 2.6257-6.02568 0-2.37328-.8752-4.38464-2.6257-6.02568-1.6495-1.75048-3.6608-2.62568-6.0341-2.62568h-56.87352c-7.11128 0-13.18744-2.52472-18.23688-7.57416-5.04944-5.15048-7.56576-11.27712-7.56576-18.3884 0-7.21232 2.52472-13.33896 7.56576-18.3884 5.04944-5.04944 11.1256-7.57416 18.23688-7.57416h75.43862v17.15968h-75.43862c-2.3648 0-4.42672.87528-6.17712 2.62568-1.64952 1.75048-2.47424 3.8124-2.47424 6.1772 0 2.3648.82472 4.42664 2.47424 6.18552 1.7504 1.64112 3.81232 2.47424 6.17712 2.47424h56.87352c7.2123 0 13.3474 2.51632 18.3968 7.56576 5.0494 5.04944 7.5658 11.18456 7.5658 18.3968z" clip-rule="evenodd"/><path fill="#fff" fill-rule="evenodd" d="M622.78881 514.9198h86.54747v85.79846H692.1766v-68.6472H640.1v68.6472h-17.31118z" clip-rule="evenodd"/><path fill="#fff" fill-rule="evenodd" d="M1097.065 584.669h54.239v15.78h-54.239zM77.002 574.418h24.044v24.044H77.002zm0-46.69h24.044v24.044H77.002zm1013.4656-16.75587c1.7588 0 3.4756.4544 5.142 1.36336 1.6747.89208 2.9792 2.18808 3.9133 3.8628.9257 1.67472 1.4055 3.4252 1.4055 5.24304 0 1.80096-.4712 3.53456-1.3887 5.20088-.9173 1.65792-2.2133 2.9624-3.8712 3.87968-1.6579.91728-3.3831 1.37176-5.2009 1.37176-1.8178 0-3.5515-.4544-5.2094-1.37176-1.6578-.91728-2.9539-2.22176-3.8712-3.87968-.9258-1.66632-1.3886-3.39992-1.3886-5.20088 0-1.81784.4712-3.56832 1.4054-5.24304.9342-1.68312 2.2554-2.97072 3.9218-3.8628 1.6747-.91736 3.3915-1.36336 5.142-1.36336zm0 1.73368c-1.4728 0-2.9035.3784-4.3004 1.13608-1.3887.7488-2.4743 1.82624-3.257 3.23168-.7912 1.39696-1.1866 2.85288-1.1866 4.36776 0 1.5064.3872 2.95392 1.153 4.34248.7744 1.38016 1.8598 2.45744 3.2485 3.23168 1.3885.7744 2.8361 1.15296 4.3425 1.15296 1.5064 0 2.9539-.3784 4.3425-1.15296 1.3886-.7744 2.4658-1.85152 3.2316-3.23168.7744-1.38856 1.153-2.82768 1.153-4.34248 0-1.51488-.3872-2.9708-1.1782-4.36776-.7824-1.40544-1.8683-2.48264-3.2653-3.23168-1.3886-.7576-2.8193-1.13608-4.2836-1.13608zm-4.595 14.51712v-11.26024h3.8712c1.3213 0 2.2807.1096 2.8782.32.5888.2016 1.0604.564 1.4139 1.08568.3536.5216.5216 1.06872.5216 1.64944 0 .82472-.2944 1.54008-.8837 2.146-.5808.6144-1.355.95096-2.3227 1.02672.3952.168.7072.3616.9509.5976.4544.4464 1.0015 1.18664 1.658 2.23016l1.3801 2.20496h-2.2217l-1.0015-1.77576c-.7912-1.39696-1.4223-2.27224-1.902-2.62568-.3368-.2608-.8247-.3872-1.4559-.3872h-1.0688v4.78856zm1.8262-6.33704h2.2049c1.052 0 1.7673-.16 2.1544-.4712.3872-.3112.572-.732.572-1.24552 0-.328-.093-.6224-.2696-.88368-.1848-.2608-.4456-.4632-.7824-.5888-.32-.1344-.9257-.1936-1.8177-.1936h-2.062z" clip-rule="evenodd"/><g fill="#fff" fill-rule="evenodd" clip-rule="evenodd"><path d="M143.52925 688.99937v-15.67852l-13.583-26.82938h4.79697l10.8563 22.06607 11.0078-22.06607h4.67073l-13.6335 26.88829v15.61961zm22.36062-16.0909c0 3.69452 1.1782 6.79993 3.53461 9.31623 2.35641 2.49106 5.28509 3.7366 8.78604 3.7366 3.44203 0 6.33705-1.24554 8.6682-3.7366 2.33117-2.5163 3.50096-5.63854 3.50096-9.37513 0-3.7955-1.18662-6.90932-3.55986-9.34147-2.3564-2.4574-5.35241-3.6861-8.98801-3.6861-3.27372 0-6.08458 1.25395-8.44099 3.77025-2.33116 2.51631-3.50095 5.62172-3.50095 9.31623zm-4.32569.06733c0-4.71281 1.61583-8.74395 4.84747-12.09341 3.23164-3.34105 7.0608-5.0242 11.47065-5.0242 4.6539 0 8.6093 1.64107 11.88303 4.93162 3.29055 3.29056 4.93162 7.2123 4.93162 11.7652 0 4.78856-1.59899 8.87861-4.8138 12.26174-3.21481 3.38313-7.10289 5.0831-11.68105 5.0831-4.6539 0-8.59247-1.64948-11.8157-4.96528-3.2064-3.32422-4.82222-7.31328-4.82222-11.95877zm37.86242-16.0909h4.05638v17.0503c0 4.3846.71534 7.4816 2.1376 9.3078 1.41385 1.8094 3.75342 2.7183 7.0019 2.7183 1.85146 0 3.4757-.3703 4.87271-1.11089 1.40543-.75741 2.53314-1.85146 3.38313-3.27372.48811-.83316.84157-1.8178 1.05197-2.9455.21039-1.15297.3198-3.13908.3198-5.95835V656.8849h4.1153v32.11446h-4.1153v-3.4757c-1.23712 1.52325-2.63413 2.62571-4.17421 3.29897-1.54008.67326-3.39155 1.02672-5.57122 1.02672-4.63707 0-7.9697-1.24553-10.00632-3.73659-2.04502-2.50789-3.07174-6.66526-3.07174-12.4637zm37.60994 32.11447h-4.1742v-32.11446h3.87965v3.70292c1.00989-1.41384 2.11235-2.4574 3.30738-3.12223 1.20346-.66485 2.60888-1.0183 4.19946-1.05197l.03366 4.46876c-2.59205.23564-4.4435 1.00988-5.57963 2.33116-1.11088 1.30444-1.6579 3.43362-1.6579 6.39596v19.38986zm27.70462-32.11446h3.99747v3.65243c1.26236-1.45592 2.7267-2.54155 4.3846-3.24006 1.67474-.6985 3.5851-1.05197 5.7227-1.05197 2.35641 0 4.44352.43762 6.27815 1.31286 1.85146.87524 3.30738 2.12918 4.3846 3.77025.74058 1.14454 1.26236 2.49947 1.58216 4.05639.32821 1.54008.49653 3.81233.49653 6.83358v16.7894h-4.05639v-17.98444c0-3.7955-.73217-6.54744-2.1881-8.26425-1.43908-1.71682-3.75341-2.5668-6.94298-2.5668-1.8767 0-3.51778.3787-4.94004 1.13612-1.39701.74058-2.50789 1.80938-3.33263 3.2064-.50494.87523-.86682 1.88512-1.07722 3.00442-.19356 1.11087-.29455 3.05491-.29455 5.84052v15.61961H264.758v-32.11446zm64.86852 17.34484h-28.99222c.25247 3.50936 1.52324 6.32864 3.7955 8.49148 2.27224 2.16285 5.11676 3.24006 8.52514 3.24006 2.41532 0 4.58658-.62276 6.50537-1.8683 1.9272-1.26235 3.41679-3.01283 4.46875-5.25142h4.67074c-1.48117 3.55986-3.55986 6.29498-6.24448 8.20535-2.66779 1.91037-5.76478 2.86135-9.28256 2.86135-4.67915 0-8.62613-1.66631-11.85778-4.99053-3.23164-3.32422-4.83905-7.33011-4.83905-12.00085 0-4.88954 1.57374-8.92068 4.72965-12.11025 3.17273-3.18956 7.2207-4.78855 12.14391-4.78855 4.82222 0 8.75237 1.6579 11.79045 4.99053 3.05492 3.3158 4.57816 7.61625 4.58658 12.935zm-4.56133-3.4757c-.78267-3.60194-2.21334-6.3118-4.29203-8.12119-2.07869-1.82622-4.78855-2.74353-8.14643-2.74353-3.11383 0-5.75637.98464-7.90238 2.95392-2.16285 1.94404-3.48412 4.58658-3.98065 7.9108zm16.20871 18.24532h-4.1237v-27.9655h-6.093v-4.14896h6.093v-10.39344h4.1237v10.39344h6.093v4.14896h-6.093z"/><path d="M366.68101 656.8849h2.97918l7.35535 24.06061 7.76773-24.0606h4.37619l-10.83106 32.11446h-2.68462l-7.53209-24.46455-7.42268 24.46455h-2.6762l-10.83107-32.11446h4.29203l7.85189 24.0606zm28.02442 16.02358c0 3.6945 1.1782 6.79992 3.5262 9.31622 2.3564 2.49106 5.28508 3.7366 8.79444 3.7366 3.44204 0 6.33705-1.24554 8.66821-3.7366 2.33116-2.5163 3.50095-5.63854 3.50095-9.37513 0-3.7955-1.19503-6.90932-3.55986-9.34147-2.3564-2.4574-5.36082-3.6861-8.988-3.6861-3.27373 0-6.08459 1.25395-8.441 3.77025-2.33115 2.51631-3.50094 5.62172-3.50094 9.31623zm-4.31728.06732c0-4.71281 1.61583-8.74395 4.84747-12.09341 3.23164-3.34105 7.05239-5.0242 11.47065-5.0242 4.6455 0 8.60089 1.64107 11.87461 4.93162 3.29056 3.29056 4.93163 7.2123 4.94004 11.7652 0 4.78856-1.59899 8.87861-4.8138 12.26174-3.21481 3.38313-7.1113 5.0831-11.68105 5.0831-4.6539 0-8.59247-1.64948-11.82411-4.96528-3.21482-3.32422-4.8138-7.31328-4.8138-11.95877zm42.09554 16.02357h-4.17421v-32.11446h3.88807v3.70292c1.00989-1.41384 2.10394-2.4574 3.29897-3.12223 1.21187-.66485 2.60888-1.0183 4.20787-1.05197l.02525 4.46876c-2.59205.23564-4.44351 1.00988-5.57122 2.33116-1.11088 1.30444-1.66632 3.43362-1.66632 6.39596v19.38986zm15.00526 0h-4.1153v-42.5079h4.1153v25.28088l11.58847-14.88744h4.72965l-11.64738 14.88744 14.15527 17.22702h-5.19251l-13.6335-16.73049zm40.02526-16.0909c0 3.69452 1.1782 6.79993 3.53461 9.31623 2.348 2.49106 5.28508 3.7366 8.78603 3.7366 3.44204 0 6.33706-1.24554 8.66822-3.7366 2.33116-2.5163 3.50094-5.63854 3.50094-9.37513 0-3.7955-1.18662-6.90932-3.55986-9.34147-2.3564-2.4574-5.36082-3.6861-8.988-3.6861-3.27373 0-6.08459 1.25395-8.441 3.77025-2.33957 2.51631-3.50094 5.62172-3.50094 9.31623zm-4.3257.06733c0-4.71281 1.61583-8.74395 4.84748-12.09341 3.23164-3.34105 7.0608-5.0242 11.47065-5.0242 4.6539 0 8.6093 1.64107 11.88302 4.93162 3.29056 3.29056 4.93163 7.2123 4.93163 11.7652 0 4.78856-1.599 8.87861-4.8138 12.26174-3.21482 3.38313-7.1113 5.0831-11.68105 5.0831-4.6539 0-8.59247-1.64948-11.8157-4.96528-3.21481-3.32422-4.82222-7.31328-4.82222-11.95877zm37.86242-16.0909h4.05639v17.0503c0 4.3846.70692 7.4816 2.1376 9.3078 1.41384 1.8094 3.745 2.7183 7.0019 2.7183 1.85146 0 3.46728-.3703 4.8727-1.11089 1.40544-.75741 2.53314-1.85146 3.38313-3.27372.48812-.83316.84158-1.8178 1.05197-2.9455.2104-1.15297.3198-3.13908.3198-5.95835V656.8849h4.1153v32.11446h-4.10688v-3.4757c-1.24553 1.52325-2.63413 2.62571-4.17421 3.29897-1.54008.67326-3.39154 1.02672-5.57122 1.02672-4.63707 0-7.9697-1.24553-10.00632-3.73659-2.04502-2.50789-3.07174-6.66526-3.07174-12.4637V656.8849zm40.40397 32.11447h-4.10688v-27.9655h-6.10983v-4.14896h6.10983v-10.39344h4.10688v10.39344h6.10141v4.14896h-6.1014zm7.36377-10.09889h4.23312v.11783c0 2.00294.56386 3.66926 1.71681 4.99053 1.15296 1.30444 2.57522 1.95245 4.26678 1.95245 1.61582 0 2.96234-.50494 4.03114-1.51483 1.07722-1.0183 1.599-2.28908 1.599-3.82916 0-1.54008-.42921-2.76878-1.2792-3.70293-.84157-.93415-2.36482-1.80938-4.58658-2.62571-3.55986-1.26236-5.8826-2.55839-6.96823-3.87966-1.09405-1.32127-1.63266-3.09699-1.63266-5.31033 0-2.50789.90049-4.63707 2.70987-6.39596 1.83463-1.75047 4.03114-2.62571 6.6232-2.62571 2.74352 0 4.9232.78266 6.53902 2.33116 1.61582 1.56533 2.48264 3.72817 2.60046 6.50537h-4.40143c-.10099-1.51484-.58068-2.69304-1.46434-3.5262-.8584-.83316-2.02819-1.25395-3.5262-1.25395-1.34651 0-2.4658.45445-3.35787 1.37177-.89207.89207-1.3381 2.01136-1.3381 3.34946 0 .95098.17673 1.7589.54702 2.42374.3703.6396.97622 1.2287 1.84305 1.75047.78266.48811 1.91037.95098 3.38312 1.40543 1.498.44603 2.49948.78266 3.00442.99306 1.99453.8584 3.46729 1.99453 4.40143 3.41679.95098 1.42226 1.43068 3.23164 1.43068 5.43657 0 2.76036-.9594 5.04944-2.8866 6.85882-1.9272 1.80939-4.37618 2.71829-7.3301 2.71829-3.01284 0-5.43658-.98464-7.2712-2.95393-1.82622-1.99453-2.78562-4.66232-2.8866-8.00337zm27.87293-5.992c0 3.6945 1.1782 6.79992 3.53462 9.31622 2.34799 2.49106 5.28508 3.7366 8.78603 3.7366 3.44204 0 6.33705-1.24554 8.66821-3.7366 2.33116-2.5163 3.50095-5.63854 3.50095-9.37513 0-3.7955-1.18662-6.90932-3.55986-9.34147-2.3564-2.4574-5.35241-3.6861-8.98801-3.6861-3.27372 0-6.08458 1.25395-8.44099 3.77025-2.33116 2.51631-3.50095 5.62172-3.50095 9.31623zm-4.31727.06732c0-4.71281 1.61582-8.74395 4.84747-12.09341 3.23164-3.34105 7.05239-5.0242 11.47065-5.0242 4.6539 0 8.6093 1.64107 11.88302 4.93162 3.29056 3.29056 4.93163 7.2123 4.93163 11.7652 0 4.78856-1.599 8.87861-4.8138 12.26174-3.21482 3.38313-7.10289 5.0831-11.68105 5.0831-4.6539 0-8.59247-1.64948-11.82412-4.96528-3.2064-3.32422-4.8138-7.31328-4.8138-11.95877zm37.87083-16.0909h4.04797v17.0503c0 4.3846.71534 7.4816 2.12918 9.3078 1.42226 1.8094 3.76184 2.7183 7.01031 2.7183 1.85147 0 3.4757-.3703 4.87272-1.11089 1.40543-.75741 2.53314-1.85146 3.38313-3.27372.49652-.83316.84157-1.8178 1.05196-2.9455.2104-1.15297.3198-3.13908.3198-5.95835V656.8849h4.1153v32.11446h-4.1153v-3.4757c-1.23711 1.52325-2.63413 2.62571-4.1742 3.29897-1.54009.67326-3.39155 1.02672-5.57123 1.02672-4.63707 0-7.9697-1.24553-10.01473-3.73659-2.0366-2.50789-3.05491-6.66526-3.05491-12.4637zm37.5847 32.11447h-4.17421v-32.11446h3.88807v3.70292c1.00989-1.41384 2.11235-2.4574 3.29897-3.12223 1.21187-.66485 2.6173-1.0183 4.20787-1.05197l.03366 4.46876c-2.60046.23564-4.45192 1.00988-5.57963 2.33116-1.11088 1.30444-1.66632 3.43362-1.66632 6.39596v19.38986zm36.5243-22.25121c-1.26235-2.33116-2.81085-4.05639-4.63707-5.16727-1.8178-1.1277-3.98064-1.69156-6.48853-1.69156-3.3158 0-6.12666 1.25394-8.44099 3.77025-2.28908 2.50789-3.44204 5.6133-3.44204 9.31622 0 3.70293 1.16138 6.7915 3.4757 9.28257 2.31433 2.47422 5.17568 3.71134 8.58406 3.71134 2.49106 0 4.69598-.61435 6.59794-1.84305 1.91037-1.2287 3.35788-2.9455 4.35094-5.16726h4.55291c-1.23711 3.48411-3.19798 6.17715-5.86577 8.08752-2.65937 1.91037-5.79844 2.86135-9.42563 2.86135-4.6539 0-8.58405-1.64107-11.79045-4.93162-3.18957-3.30739-4.78014-7.28803-4.78014-11.93352 0-4.74648 1.6074-8.7692 4.83905-12.05976 3.24848-3.3158 7.19546-4.96528 11.84936-4.96528 3.48412 0 6.54745.94256 9.1984 2.82769 2.65938 1.8683 4.66233 4.51083 5.9836 7.9108h-4.56133zm14.71072-13.6335H714.958v-6.62319h4.10688zm-4.10688 35.88471v-32.11446h4.10688v32.11446zm10.76373-32.11446h4.0059v3.65243c1.26235-1.45592 2.71828-2.54155 4.3846-3.24006 1.67473-.6985 3.5851-1.05197 5.7227-1.05197 2.3564 0 4.4435.43762 6.27814 1.31286 1.85146.87524 3.30738 2.12918 4.3846 3.77025.73217 1.14454 1.25394 2.49947 1.57374 4.05639.33663 1.54008.50495 3.81233.50495 6.83358v16.7894h-4.05639v-17.98444c0-3.7955-.73217-6.54744-2.1881-8.26425-1.43908-1.71682-3.75341-2.5668-6.9514-2.5668-1.86829 0-3.50936.3787-4.93162 1.13612-1.40543.74058-2.50789 1.80938-3.33263 3.2064-.51336.87523-.87524 1.88512-1.08563 3.00442-.18515 1.11087-.28614 3.05491-.28614 5.84052v15.61961h-4.00589v-32.11446zm38.86389 34.74017c.62276 1.8683 1.75047 3.3158 3.38312 4.35094 1.63266 1.05197 3.62719 1.57374 5.95835 1.57374 3.66085 0 6.5811-1.22028 8.78603-3.65243 2.22176-2.43215 3.33263-5.68062 3.33263-9.75384v-.84999c-1.5569 2.12077-3.33263 3.72817-5.31033 4.8138-1.98611 1.0688-4.1742 1.60741-6.56427 1.60741-4.83064 0-8.84495-1.6074-12.03451-4.8138-3.18957-3.23165-4.78014-7.24595-4.78014-12.05976 0-4.72964 1.57374-8.70187 4.72964-11.91669 3.14749-3.2064 7.0524-4.8138 11.7063-4.8138 2.70145 0 5.04103.48811 7.0103 1.46434 1.9777.96781 3.72818 2.49106 5.25143 4.55292v-5.25984h4.03114v26.79571c0 5.60489-1.40543 9.98949-4.23312 13.14539-2.80244 3.1559-6.67368 4.72965-11.62213 4.72965-3.6356 0-6.75784-.90049-9.36672-2.70987-2.60888-1.79256-4.29203-4.19946-5.04945-7.2123h4.77173zm-2.86135-18.94383c0 3.75342 1.19503 6.90091 3.56827 9.43405 2.39007 2.53314 5.26825 3.7955 8.63455 3.7955 3.17273 0 5.97517-1.26236 8.40732-3.7955 2.43215-2.54997 3.65243-5.53756 3.65243-8.96277 0-3.66084-1.20345-6.78308-3.59352-9.36671-2.39007-2.58364-5.21776-3.87966-8.46623-3.88808-3.34105 0-6.21923 1.23712-8.6093 3.71135-2.39849 2.44056-3.59352 5.47023-3.59352 9.07216zm77.29857-5.9331c-1.26236-2.33115-2.81086-4.05638-4.63707-5.16726-1.8178-1.1277-3.98065-1.69156-6.48854-1.69156-3.3158 0-6.12666 1.25394-8.44099 3.77025-2.28908 2.50789-3.44204 5.6133-3.44204 9.31622 0 3.70293 1.16138 6.7915 3.4757 9.28257 2.31433 2.47422 5.17569 3.71134 8.58406 3.71134 2.49106 0 4.69598-.61435 6.59794-1.84305 1.91037-1.2287 3.35788-2.9455 4.35094-5.16726h4.55291c-1.23711 3.48411-3.19798 6.17715-5.86577 8.08752-2.65937 1.91037-5.79844 2.86135-9.42563 2.86135-4.6539 0-8.58405-1.64107-11.79045-4.93162-3.18956-3.30739-4.78014-7.28803-4.78014-11.93352 0-4.74648 1.6074-8.7692 4.83905-12.05976 3.24848-3.3158 7.19546-4.96528 11.84936-4.96528 3.48412 0 6.54745.94256 9.1984 2.82769 2.65938 1.8683 4.67074 4.51083 5.9836 7.9108h-4.56133zm13.11172 6.16033c0 3.6945 1.1782 6.79992 3.53461 9.31622 2.3564 2.49106 5.28509 3.7366 8.78603 3.7366 3.45046 0 6.33706-1.24554 8.66822-3.7366 2.33116-2.5163 3.50936-5.63854 3.50936-9.37513 0-3.7955-1.19504-6.90932-3.56827-9.34147-2.348-2.4574-5.35241-3.6861-8.98801-3.6861-3.27373 0-6.08458 1.25395-8.43258 3.77025-2.33957 2.51631-3.50936 5.62172-3.50936 9.31623zm-4.31727.06732c0-4.71281 1.6074-8.74395 4.83905-12.09341 3.23164-3.34105 7.0608-5.0242 11.47065-5.0242 4.6539 0 8.6093 1.64107 11.88303 4.93162 3.29055 3.29056 4.93162 7.2123 4.93162 11.7652 0 4.78856-1.599 8.87861-4.8138 12.26174-3.21482 3.38313-7.10289 5.0831-11.68105 5.0831-4.6539 0-8.59247-1.64948-11.8157-4.96528-3.2064-3.32422-4.8138-7.31328-4.8138-11.95877zm63.2022-11.0667c1.29603-1.85146 2.92027-3.24847 4.84747-4.20786 1.93562-.97623 4.10688-1.45593 6.50537-1.46434 4.35935 0 7.53208 1.31285 9.5182 3.94698 1.9777 2.60888 2.97917 6.81675 2.97917 12.60678v16.20871h-3.94698v-17.05029c0-4.24153-.6985-7.25436-2.09552-9.04692-1.40543-1.80938-3.6861-2.70987-6.85883-2.70987-1.83463 0-3.44204.37871-4.84747 1.13613-1.38018.74058-2.48264 1.80938-3.29897 3.2064-.4881.87523-.84157 1.88512-1.05196 3.00442-.2104 1.11087-.3198 3.05491-.3198 5.84052v15.61961h-3.87966v-17.98443c0-3.69451-.75741-6.42963-2.25542-8.1801-1.498-1.7673-3.7955-2.65096-6.88407-2.65096-1.87671 0-3.51778.3787-4.94004 1.13612-1.39701.74059-2.50789 1.80939-3.33263 3.2064-.50495.87524-.86682 1.88513-1.07722 3.00442-.19356 1.11088-.28613 3.05491-.28613 5.84052v15.61962h-4.05639v-32.11447h4.05639v3.65243c1.22028-1.41384 2.65937-2.49105 4.31727-3.2064 1.67473-.72375 3.55986-1.0772 5.6638-1.08562 2.43214 0 4.6539.52177 6.65685 1.5485 2.00294 1.0183 3.5346 2.39006 4.58657 4.1237zm30.32191-5.0242h4.0564v5.25985c1.16978-1.80939 2.8361-3.24848 4.99894-4.3257 2.17968-1.08562 4.48559-1.63265 6.94299-1.63265 4.84746 0 8.85335 1.61582 12.02609 4.84747 3.19798 3.2064 4.78855 7.22912 4.78855 12.05975 0 4.71282-1.58215 8.67663-4.72964 11.90828-3.13907 3.23164-7.0608 4.84746-11.7652 4.84746-2.60888 0-4.9653-.51336-7.06923-1.52325-2.07868-1.00989-3.81233-2.48264-5.1925-4.40143v15.46813h-4.0564zm4.0648 15.84685c0 3.66084 1.21187 6.79992 3.6272 9.40038 2.4069 2.59205 5.25141 3.87966 8.52514 3.87966 3.3663 0 6.2529-1.2287 8.6682-3.67768 2.40691-2.47423 3.61878-5.49548 3.6272-9.08059 0-3.75342-1.2287-6.89249-3.65244-9.42563-2.41532-2.54996-5.344-3.82916-8.79445-3.82916-3.17273 0-5.96676 1.2792-8.37366 3.82916-2.42373 2.55839-3.62718 5.52073-3.62718 8.90386zm60.8374 0c0-3.39996-1.2203-6.37072-3.65244-8.90386-2.43215-2.54996-5.23459-3.82916-8.40732-3.82916-3.44204 0-6.38755 1.2792-8.8197 3.82916-2.4069 2.53314-3.61877 5.67221-3.61877 9.42563 0 3.5851 1.21187 6.60636 3.61877 9.08059 2.41532 2.44898 5.31875 3.67768 8.70188 3.67768 3.27372 0 6.10982-1.29603 8.52514-3.87966 2.44057-2.60046 3.65243-5.73954 3.65243-9.40038zm0 11.19293c-1.2792 1.85146-3.02126 3.29897-5.22618 4.35094-2.17968 1.05197-4.53609 1.58216-7.0608 1.58216-4.72124 0-8.63456-1.6074-11.76521-4.8138-3.13066-3.23165-4.7044-7.2123-4.7044-11.94194 0-4.80539 1.59057-8.82811 4.78855-12.05976 3.21482-3.23164 7.2123-4.84746 12.0261-4.84746 2.47422 0 4.73806.51336 6.80833 1.52325 2.06186.99305 3.77025 2.43215 5.1336 4.31727v-5.1336h4.03114v32.11446h-4.03114zm10.5365-27.03977h4.00589v3.65243c1.26236-1.45592 2.7267-2.54155 4.3846-3.24006 1.66632-.6985 3.57669-1.05197 5.7227-1.05197 2.35641 0 4.44351.43762 6.27815 1.31286 1.85146.87524 3.30738 2.12918 4.3846 3.77025.74058 1.14454 1.26236 2.49947 1.57374 4.05639.33663 1.54008.50494 3.81233.50494 6.83358v16.7894h-4.05638v-17.98444c0-3.7955-.73217-6.54744-2.1881-8.26425-1.4475-1.71682-3.76183-2.5668-6.9514-2.5668-1.86829 0-3.50936.3787-4.93162 1.13612-1.40543.74058-2.5163 1.80938-3.33263 3.2064-.51336.87523-.86682 1.88512-1.07722 3.00442-.19356 1.11087-.29455 3.05491-.29455 5.84052v15.61961h-4.00589v-32.11446zm54.15528 0h4.78856l-17.33642 42.49949h-4.40985l4.29203-10.44394-12.37956-32.05555h4.72965l9.92216 26.07196z"/></g></svg>