<svg xmlns="http://www.w3.org/2000/svg" role="img" xmlns:xlink="http://www.w3.org/1999/xlink" viewBox="-2.41 1.09 268.32 124.57"><title>ODL Controller logo</title><defs><path d="M2.89844-20.91797c0-7.1289 1.91406-12.71094 5.74218-16.74219 3.82813-4.03515 8.77344-6.05078 14.82813-6.05078 3.96484 0 7.53906.94532 10.71875 2.84375 3.1836 1.89453 5.61328 4.53516 7.28125 7.92188 1.67188 3.39062 2.50781 7.23437 2.50781 11.53125 0 4.35547-.88281 8.25-2.64062 11.6875-1.75782 3.4375-4.2461 6.03906-7.46875 7.8086C30.64453-.15235 27.16797.73436 23.4375.73436c-4.04297 0-7.65625-.97656-10.83984-2.92968-3.1836-1.95313-5.59766-4.6211-7.23828-8-1.64063-3.3789-2.46094-6.95313-2.46094-10.72266zm5.85937.08985c0 5.17578 1.39453 9.25 4.17578 12.23046 2.78516 2.97657 6.27735 4.46485 10.47266 4.46485 4.27734 0 7.80078-1.5 10.5625-4.50781 2.76563-3.00782 4.14844-7.27735 4.14844-12.8047 0-3.49609-.59375-6.54687-1.77344-9.15624-1.1836-2.60547-2.91016-4.6289-5.1875-6.0625-2.27344-1.4375-4.82813-2.15625-7.66016-2.15625-4.02343 0-7.48437 1.38281-10.38671 4.14843-2.89844 2.76172-4.35157 7.375-4.35157 13.84376zm0 0" id="a"/><path d="M4.6289 0v-42.94922h14.79297c3.33985 0 5.89063.20703 7.64844.61328 2.46094.5664 4.5625 1.59375 6.29688 3.07813 2.26562 1.91406 3.96093 4.35937 5.08593 7.33984 1.1211 2.97656 1.6836 6.3789 1.6836 10.20703 0 3.26172-.3789 6.15625-1.14453 8.67188-.76172 2.51953-1.73438 4.60547-2.92969 6.25781-1.1914 1.64844-2.49219 2.94922-3.91016 3.89453-1.41406.94922-3.125 1.66797-5.125 2.15234C25.02344-.24608 22.72656 0 20.125 0zm5.6836-5.07031h9.17188c2.83203 0 5.05078-.26172 6.66406-.78906C27.7578-6.38673 29.04297-7.12892 30-8.08595c1.34766-1.34765 2.39844-3.16015 3.14844-5.4336.7539-2.27734 1.1289-5.03515 1.1289-8.27734 0-4.49218-.73828-7.9453-2.21093-10.35546C30.58984-34.56641 28.79688-36.1797 26.6875-37c-1.52344-.58594-3.97266-.88281-7.35156-.88281H10.3125zm0 0" id="b"/><path d="M4.39453 0v-42.94922h5.6836v37.8789h21.15234V0zm0 0" id="c"/><path d="M35.27344-15.0586l5.6836 1.4336c-1.19141 4.66797-3.33595 8.23047-6.4297 10.67969C31.4297-.4922 27.64844.73438 23.17187.73438c-4.6289 0-8.39062-.94532-11.29296-2.82813-2.89844-1.88672-5.10547-4.61719-6.6211-8.1875-1.51172-3.57422-2.26953-7.41406-2.26953-11.51563 0-4.47265.85547-8.375 2.5625-11.70312 1.71094-3.33203 4.14063-5.85938 7.29688-7.58984C16-42.81641 19.47266-43.6797 23.26172-43.6797c4.29687 0 7.91015 1.09375 10.83984 3.28125 2.92969 2.1875 4.96875 5.26172 6.125 9.22657l-5.59765 1.3203c-.9961-3.125-2.44141-5.40234-4.33594-6.82812-1.89453-1.42578-4.27735-2.14062-7.14844-2.14062-3.30078 0-6.0586.79297-8.27734 2.375-2.21485 1.58203-3.77344 3.70703-4.67188 6.3711-.89843 2.66796-1.34765 5.41796-1.34765 8.24609 0 3.65234.53125 6.84374 1.59765 9.5664 1.0625 2.72656 2.71875 4.76172 4.96485 6.10938 2.24609 1.34765 4.67578 2.01953 7.29297 2.01953 3.18359 0 5.8828-.91406 8.08593-2.75 2.20703-1.83594 3.70313-4.5625 4.48438-8.17578zm0 0" id="d"/><path d="M1.99219-15.55469c0-5.76172 1.60156-10.03125 4.80468-12.80468 2.67579-2.3047 5.9375-3.45704 9.78516-3.45704 4.27735 0 7.77344 1.40235 10.48828 4.20313 2.71485 2.80469 4.07032 6.67578 4.07032 11.61719 0 4.0039-.59766 7.15234-1.80079 9.44922-1.19921 2.29296-2.94921 4.07812-5.24218 5.34375C21.80078.0664 19.29687.70311 16.58203.70311c-4.35547 0-7.875-1.39843-10.5625-4.1875-2.6836-2.79296-4.02734-6.8203-4.02734-12.0703zm5.42187 0c0 3.98438.86719 6.96485 2.60547 8.94922 1.73828 1.98047 3.92578 2.97266 6.5625 2.97266 2.61719 0 4.79297-.9961 6.53516-2.98828 1.73828-1.9922 2.60547-5.02735 2.60547-9.11329 0-3.84765-.875-6.76171-2.6211-8.74218-1.75-1.98438-3.92187-2.97657-6.51953-2.97657-2.63672 0-4.82422.98829-6.5625 2.96094-1.73828 1.97266-2.60547 4.95313-2.60547 8.9375zm0 0" id="e"/><path d="M3.95313 0v-31.11328h4.75v4.42578c2.28515-3.41797 5.58593-5.1289 9.89843-5.1289 1.875 0 3.60157.33593 5.17188 1.01171 1.57422.67188 2.75 1.55469 3.53125 2.64844s1.32812 2.39453 1.64062 3.89844c.19532.97656.29297 2.6875.29297 5.125V0h-5.27344v-18.92578c0-2.14844-.20703-3.7539-.61328-4.82031-.41015-1.0625-1.14062-1.91407-2.1836-2.54688-1.04687-.63672-2.26952-.95312-3.67577-.95312-2.2461 0-4.1875.71484-5.8164 2.13671-1.63282 1.42579-2.44923 4.13282-2.44923 8.1172V0zm0 0" id="f"/><path d="M15.46875-4.71875l.76172 4.66016c-1.48438.3125-2.8125.46875-3.98438.46875-1.91406 0-3.39843-.30079-4.45312-.91016-1.05469-.60547-1.79688-1.39844-2.22656-2.38672-.4297-.98437-.64454-3.0586-.64454-6.22266v-17.90234H1.0547v-4.10156h3.86719v-7.70703l5.24218-3.16407v10.8711h5.30469v4.10156h-5.30469v18.1914c0 1.50391.09375 2.47266.28125 2.90235.1836.42969.48828.76953.90625 1.02735.42188.2539 1.02344.3789 1.80469.3789.58594 0 1.35547-.0664 2.3125-.20703zm0 0" id="g"/><path d="M3.89844 0v-31.11328h4.74218v4.71484c1.21094-2.20703 2.33204-3.66015 3.35547-4.36328 1.02735-.70312 2.15235-1.05469 3.38672-1.05469 1.77735 0 3.58203.56641 5.41797 1.69922l-1.8164 4.89063c-1.28907-.76172-2.57813-1.14063-3.8672-1.14063-1.15234 0-2.1875.34766-3.10546 1.03907-.91797.6953-1.57422 1.65624-1.96485 2.88671-.58593 1.875-.875 3.92579-.875 6.15235V0zm0 0" id="h"/><path d="M3.83594 0v-42.94922h5.27343V0zm0 0" id="i"/><path d="M25.2539-10.01953l5.44922.67578c-.85937 3.1836-2.45312 5.65234-4.77343 7.41016C23.60547-.1758 20.6328.70312 17.02344.70312 12.47266.70313 8.86328-.69921 6.1953-3.5c-2.66406-2.80469-4-6.73438-4-11.79297 0-5.23437 1.35156-9.29687 4.04688-12.1875 2.69531-2.89062 6.1875-4.33594 10.48437-4.33594 4.16016 0 7.5625 1.41797 10.19532 4.2461C29.55859-24.73828 30.8789-20.75 30.8789-15.6172c0 .3125-.01172.78125-.02735 1.40625H7.64844c.19531 3.41797 1.16015 6.03907 2.89844 7.85157 1.73828 1.8164 3.90625 2.72656 6.5039 2.72656 1.9336 0 3.58203-.50781 4.94922-1.52344 1.36719-1.01563 2.45313-2.63672 3.2539-4.86328zM7.9375-18.54688h17.375c-.23438-2.61718-.89844-4.57812-1.99219-5.88671-1.67968-2.03125-3.85937-3.04688-6.53125-3.04688-2.42187 0-4.46093.8086-6.10937 2.4336-1.65235 1.62109-2.5625 3.78906-2.74219 6.5zm0 0" id="j"/></defs><use y="50" xlink:href="#a"/><use x="46.67" y="50" xlink:href="#b"/><use x="90" y="50" xlink:href="#c"/><g><use y="120" xlink:href="#d"/><use x="43.33" y="120" xlink:href="#e"/><use x="76.699" y="120" xlink:href="#f"/><use x="110.068" y="120" xlink:href="#g"/><use x="126.738" y="120" xlink:href="#h"/><use x="146.719" y="120" xlink:href="#e"/><use x="180.088" y="120" xlink:href="#i"/><use x="193.418" y="120" xlink:href="#i"/><use x="206.748" y="120" xlink:href="#j"/><use x="240.117" y="120" xlink:href="#h"/></g></svg>