<svg xmlns="http://www.w3.org/2000/svg" role="img" viewBox="72.74 51.74 1053.52 395.52"><title>Open 3D Foundation logo</title><style>svg {enable-background:new 0 0 1200 500}</style><style>.st0{fill:#1ba266}.st1{fill:#49b585}.st3{fill:#a4dac2}.st4{fill:#76c7a3}</style><path d="M454 394c12.6 0 21 7.4 21 17s-8.4 17-21 17c-12.7 0-21-7.4-21-17 0-9.7 8.3-17 21-17zm0 2.5c-10.5 0-17.1 6.1-17.1 14.4s6.6 14.4 17.1 14.4c10.4 0 17.1-6.2 17.1-14.4 0-8.3-6.7-14.4-17.1-14.4zm30.1-2h16.2c8.3 0 13 4.4 13 9.6 0 5.2-4.8 9.6-13 9.6h-12.5v13.6h-3.7v-32.8zm15.8 2.6h-12.1v14.1h12.1c5.7 0 9.5-2.9 9.5-7 .1-4.2-3.8-7.1-9.5-7.1zm21.2-2.6h27.4v2.6h-23.7v12.2h23.3v2.6h-23.3v13h23.7v2.6h-27.4v-33zm40.3 4.5v28.3h-3.7v-32.8h3.8l27.1 27.9v-27.9h3.7v32.8h-3.6L561.4 399zm57.6 21.8c2.4 2.6 6.6 4.6 12.1 4.6 6.7 0 10.9-2.7 10.9-7 0-4.7-5.1-6.6-11.6-6.6h-4v-2.7h4c5.7 0 11-1.9 11-6.2 0-4.1-4.8-6.3-10.4-6.3-4.9 0-8.4 1.5-11.6 4.2L617 399c3-2.8 7.8-5 14.1-5 7.5 0 13.9 3.1 13.9 8.7 0 5-5.6 7.2-9.3 7.7 3.8.3 9.9 2.8 9.9 8.2 0 5.4-5.4 9.4-14.6 9.4-7.1 0-12.3-2.5-14.7-5.5l2.7-1.7zm36-26.3h13.8c13.4 0 21.8 7.4 21.8 16.4 0 9.1-8.4 16.4-21.8 16.4H655v-32.8zm13.8 30.3c11.4 0 18-6.1 18-13.8 0-7.7-6.5-13.9-18-13.9h-10.1v27.7h10.1zm47.9-30.3h27.4v2.6h-23.7v12.2h23.3v2.6h-23.3v15.5h-3.7v-32.9zm54.5-.5c12.6 0 21 7.4 21 17s-8.4 17-21 17c-12.7 0-21-7.4-21-17 0-9.7 8.3-17 21-17zm0 2.5c-10.5 0-17.1 6.1-17.1 14.4s6.6 14.4 17.1 14.4c10.4 0 17.1-6.2 17.1-14.4 0-8.3-6.8-14.4-17.1-14.4zm30.1-2h3.8v20.2c0 6.6 4.6 10.7 13.1 10.7s13.1-4 13.1-10.7v-20.2h3.8v20.2c0 8.1-5.7 13.2-16.9 13.2-11.1 0-16.9-5.1-16.9-13.2v-20.2zm48.2 4.5v28.3h-3.7v-32.8h3.8l27.1 27.9v-27.9h3.7v32.8h-3.6L849.5 399zm41.6-4.5h13.8c13.4 0 21.8 7.4 21.8 16.4 0 9.1-8.4 16.4-21.8 16.4h-13.8v-32.8zm13.8 30.3c11.4 0 18-6.1 18-13.8 0-7.7-6.5-13.9-18-13.9h-10.1v27.7h10.1zm55.6-5.6h-23l-4.3 8.1H929l17.7-32.8h4.6l17.7 32.8h-4.1l-4.4-8.1zm-21.9-2.5h20.7l-10.4-19.4-10.3 19.4zm43.3-19.6h-14.1v-2.6h32v2.6h-14.1v30.3h-3.8v-30.3zm25.5-2.6h3.7v32.8h-3.7v-32.8zm33.8-.5c12.6 0 21 7.4 21 17s-8.4 17-21 17c-12.7 0-21-7.4-21-17 0-9.7 8.3-17 21-17zm0 2.5c-10.5 0-17.1 6.1-17.1 14.4s6.6 14.4 17.1 14.4c10.4 0 17.1-6.2 17.1-14.4 0-8.3-6.7-14.4-17.1-14.4zm33.9 2.5v28.3h-3.7v-32.8h3.8l27.1 27.9v-27.9h3.7v32.8h-3.6l-27.3-28.3z" id="Subtitle"/><g id="Gem"><path d="M370.6 302.8l8 24.7 8.1 24.9c15.6-17.3 27.6-37.8 35-60.5l-25.6 5.4-25.5 5.5zm-82.6 60l-13 22.5-13.1 22.7c24.3 0 47.5-5.2 68.3-14.5L309 378.1l-21-15.3z" class="st0"/><path d="M335.7 341.6l-2.7 25.9-2.7 26c21.6-9.6 40.8-23.7 56.5-41.1l-25.6-5.4-25.5-5.4z" class="st0"/><path d="M153.2 302.8l-25.5-5.4-25.6-5.4c7.4 22.6 19.4 43.2 35 60.5l8.1-24.9 8-24.8zm233.5-49.6l17.4 19.3 17.5 19.5c5.3-16.3 8.2-33.8 8.2-51.9 0-5.9-.3-11.8-.9-17.6l-21.2 15.4-21 15.3zm-5.4-51.9l23.8 10.6 23.9 10.6c-2.5-24-10-46.5-21.6-66.4l-13.1 22.7-13 22.5z" class="st1"/><path d="M188.1 341.6l-25.5 5.4-25.6 5.4c15.6 17.4 34.9 31.4 56.5 41.1l-2.7-26-2.7-25.9zm47.7 21.2l-21.1 15.3-21.2 15.4c20.9 9.3 44 14.5 68.3 14.5l-13.1-22.7-12.9-22.5zm52.2 0l21 15.3 21.2 15.4 2.7-26 2.7-25.9c-14 10.2-30.1 17.5-47.6 21.2zm82.6-60c-8.8 15.2-20.8 28.4-34.9 38.7v.1l25.5 5.4 25.6 5.4-8.1-24.9-8.1-24.7z" class="st1"/><path fill="#d1ece0" d="M312.9 125.4l-8-24.8-8.1-24.9-17.5 19.4-17.4 19.3c18.2.2 35.4 4.1 51 11zm-51.1-10.8l-17.4-19.4L227 75.8l-8.1 24.9-8 24.7c15.5-6.9 32.8-10.8 50.9-10.8zm-93.2 41.5c11.7-13 26.1-23.5 42.2-30.7L187 114.8l-23.9-10.6 2.7 26 2.8 25.9zm0 0l-26-.1h-26.2l13.1 22.7 13 22.5c5.5-16.8 14.5-32.2 26.1-45.1zm-73.8 66.4l21.2 15.4 21.1 15.3c-.4-4.3-.7-8.7-.7-13.1 0-13.5 2.2-26.6 6.1-38.8l-23.8 10.6-23.9 10.6z"/><g><path d="M168.6 156.1l-2.7-25.9-2.7-26c-19 13.8-34.9 31.5-46.7 51.9H168.6zm-49.9 55.8l23.8-10.6-13-22.5-13.1-22.6c-11.5 19.9-19.1 42.4-21.6 66.4l23.9-10.7z" class="st3"/><path d="M210.8 125.4l8-24.7 8.1-24.9c-23.4 5-45.1 14.8-63.8 28.4l23.9 10.6 23.8 10.6zm51.1-10.9l17.4-19.3 17.5-19.5c-11.3-2.4-22.9-3.6-34.9-3.6s-23.7 1.3-34.9 3.6l17.5 19.5 17.4 19.3zm119.3 86.8l13-22.5 13.1-22.7h-52.2v.1c11.7 12.8 20.6 28.2 26.1 45.1zm-68.3-75.9c16.1 7.2 30.5 17.7 42.2 30.7h.1l2.7-25.9 2.7-26-23.9 10.6-23.8 10.6zM137.1 253.2l-17.4 19.3-17.6 19.5 25.6 5.4 25.5 5.4c-8.6-14.9-14.2-31.7-16.1-49.6zm51 88.4c-14.2-10.4-26.1-23.6-34.9-38.8l-8 24.7-8.1 24.9 25.6-5.4 25.4-5.4z" class="st3"/></g><g><path d="M137.1 253.2L116 237.9l-21.2-15.4c-.6 5.8-.9 11.6-.9 17.6 0 18.1 2.9 35.6 8.2 51.9l17.5-19.5 17.5-19.3zm218.1-97.1h52.2c-11.8-20.4-27.8-38.1-46.7-51.9l-2.7 26-2.8 25.9zm-42.3-30.7l23.8-10.6 23.9-10.6c-18.7-13.6-40.4-23.5-63.8-28.4l8.1 24.9 8 24.7zM288 362.8c-8.4 1.8-17.2 2.7-26.1 2.7-8.9 0-17.7-.9-26.1-2.7l13 22.5 13.1 22.7 13.1-22.7 13-22.5zm82.6-60l25.5-5.4 25.6-5.4-17.5-19.4-17.4-19.3c-2 17.8-7.6 34.6-16.2 49.5zm16.8-62.7c0 4.4-.2 8.8-.7 13.1l21.1-15.3 21.2-15.4-24-10.6-23.8-10.6c4 12.2 6.2 25.2 6.2 38.8z" class="st4"/><path d="M188.2 341.6l2.7 25.9 2.7 26 21.2-15.4 21.1-15.3c-17.6-3.7-33.8-11-47.7-21.2z" class="st4"/></g></g><g id="Letters"><path d="M906.7 115.1h199.4v45.6H959.8v54.2h146.3v45.6H959.8v103.9h-53.1V115.1z"/><path d="M641.3 115.1h98.3c78.1 0 132.4 49.7 132.4 124.9s-54.2 124.5-132.4 124.5h-98.3V115.1zm97.9 204.4c50.5 0 79.9-36.3 79.9-79.5 0-45.1-27.5-79.9-79.9-79.9H693v159.4h46.2zm-149.9-68.8c-9.5-8.4-23.1-14.1-40.5-17 14.4-4.3 25.9-11.1 34.4-20.3 10.1-10.8 15.1-24.2 15.1-39.6 0-18.6-8.1-33.3-24.1-43.7-15.7-10.2-37.3-15.4-64.2-15.4-27.4 0-51.9 5.7-73 16.8 8.3 13.3 15 27.6 20.1 42.7 8.6-4.9 16.6-8.5 23.9-10.6 8.5-2.6 17-3.8 25.2-3.8 23.2 0 34.5 8.2 34.5 25.1 0 11.1-4.2 18.6-12.7 23.2-8.9 4.7-23.2 7.1-42.7 7.1h-18.9c1 8.1 1.5 16.4 1.5 24.8 0 6.1-.3 12.2-.8 18.1h17.8c21.2 0 36.7 2.3 46.2 6.8 9.2 4.4 13.6 11.6 13.6 22.1 0 11.9-3.9 20.3-11.9 25.6-8.2 5.4-21.2 8.2-38.6 8.2-11.5 0-23.3-1.5-35-4.4-1.8-.5-3.6-.9-5.4-1.4-5.5 14.1-12.6 27.5-20.9 39.9 19.9 6.8 42.4 10.2 67.2 10.2 33.6 0 59.9-6.6 78.1-19.6 18.4-13.2 27.8-31.9 27.8-55.5.1-16.3-5.6-29.6-16.7-39.3zM261.9 114.5c-69.3 0-125.5 56.2-125.5 125.5s56.2 125.5 125.5 125.5S387.4 309.3 387.4 240s-56.2-125.5-125.5-125.5zm0 206.9c-44.9 0-81.4-36.4-81.4-81.4s36.4-81.4 81.4-81.4 81.4 36.4 81.4 81.4-36.5 81.4-81.4 81.4z"/></g></svg>