<svg xmlns="http://www.w3.org/2000/svg" role="img" viewBox="-3.14 -3.14 163.15 56.15"><title>Open Sourcing Mental Illness, LTD logo</title><path fill="#fdfdfd" d="M47 13h1v1h-1z"/><path d="M12 21h1v1h-1zm88 26h1v1h-1z" fill="#fcfcfc"/><g fill="#fff"><path d="M13 0h2v1h-2zm2 0h1v1h-1zm3 0h1v1h-1zm2 0h1v1h-1zm1 0h1v1h-1zm1 0h1v1h-1zm1 0h4v1h-4zm4 0h1v1h-1zm1 0h1v1h-1zm1 0h1v1h-1zm1 0h1v1h-1zm2 0h1v3h-1zm3 0h1v1h-1zm1 0h1v1h-1zm27 0h1v1h-1zm1 0h1v1h-1zm1 0h1v1h-1zm1 0h1v1h-1zm1 0h6v1h-6zm6 0h1v1h-1zm1 0h1v1h-1zm1 0h1v1h-1zm1 0h1v1h-1zm1 0h1v1h-1zm11 0h1v1h-1zm1 0h2v1h-2zm2 0h1v1h-1zm1 0h1v1h-1zm1 0h5v1h-5zm5 0h1v1h-1zm1 0h2v1h-2zm2 0h1v1h-1zm1 0h1v2h-1zm7 0h1v1h-1zm1 0h11v1h-11zm11 0h1v1h-1zm1 0h1v1h-1zm1 0h1v1h-1zm7 0h1v1h-1zm1 0h12v1h-12zm12 0h1v1h-1zm4 0h1v1h-1zm1 0h6v1h-6zm6 0h1v1h-1zm1 0h1v1h-1zm1 0h1v1h-1zM12 1h1v1h-1zm4 0h1v1h-1zm2 0h1v1h-1zm2 0h1v1h-1zm1 0h8v1h-8zm8 0h1v1h-1zm1 0h1v1h-1zm4 0h1v1h-1zm3 0h1v1h-1zm1 0h1v1h-1zm23 0h1v1h-1zm1 0h1v1h-1zm16 0h1v1h-1zm9 0h1v1h-1zm16 0h1v1h-1zm5 0h1v1h-1zm16 0h1v1h-1zm5 0h1v2h-1zm17 0h1v1h-1zM11 2h1v1h-1zm2 0h1v1h-1zm1 0h1v1h-1zm1 0h2v1h-2zm2 0h1v1h-1zm3 0h1v1h-1zm1 0h1v2h-1zm1 0h1v1h-1zm1 0h3v1h-3zm3 0h1v1h-1zm1 0h1v1h-1zm1 0h1v1h-1zm1 0h1v1h-1zm1 0h1v1h-1zm3 0h1v1h-1zm2 0h1v1h-1zm1 0h1v1h-1zm3 0h1v1h-1zm21 0h1v1h-1zm3 0h1v1h-1zm1 0h1v1h-1zm1 0h1v1h-1zm1 0h1v1h-1zm1 0h5v1h-5zm5 0h1v1h-1zm1 0h1v1h-1zm1 0h1v1h-1zm1 0h1v1h-1zm1 0h1v1h-1zm1 0h2v1h-2zm2 0h1v1h-1zm7 0h1v1h-1zm3 0h1v1h-1zm1 0h1v1h-1zm1 0h1v1h-1zm1 0h1v1h-1zm1 0h4v1h-4zm4 0h1v1h-1zm1 0h1v1h-1zm1 0h1v1h-1zm1 0h1v1h-1zm1 0h1v1h-1zm1 0h1v1h-1zm2 0h1v1h-1zm3 0h1v1h-1zm2 0h1v1h-1zm1 0h1v1h-1zm1 0h1v1h-1zm1 0h8v1h-8zm8 0h1v1h-1zm1 0h1v1h-1zm1 0h1v1h-1zm1 0h1v1h-1zm2 0h1v2h-1zm5 0h1v1h-1zm1 0h1v1h-1zm1 0h1v1h-1zm1 0h7v1h-7zm7 0h1v1h-1zm1 0h1v1h-1zm1 0h1v1h-1zm1 0h1v1h-1zm1 0h1v1h-1zm3 0h1v1h-1zm1 0h1v1h-1zm1 0h1v1h-1zm1 0h3v1h-3zm3 0h1v1h-1zm1 0h1v1h-1zm1 0h1v1h-1zm1 0h1v1h-1zM9 3h1v1H9zm1 0h1v1h-1zm2 0h1v1h-1zm1 0h1v1h-1zm1 0h1v1h-1zm1 0h1v1h-1zm3 0h1v1h-1zm1 0h1v1h-1zm1 0h1v1h-1zm2 0h1v1h-1zm1 0h3v1h-3zm3 0h2v1h-2zm2 0h1v1h-1zm1 0h1v1h-1zm1 0h1v1h-1zm1 0h1v1h-1zm1 0h1v1h-1zm3 0h1v1h-1zm1 0h1v1h-1zm1 0h1v1h-1zm1 0h1v1h-1zm2 0h1v1h-1zm19 0h1v2h-1zm2 0h1v1h-1zm1 0h1v1h-1zm1 0h13v1H63zm13 0h1v1h-1zm1 0h1v1h-1zm1 0h1v1h-1zm2 0h1v1h-1zm5 0h1v1h-1zm2 0h1v1h-1zm1 0h1v1h-1zm1 0h12v1H89zm12 0h1v1h-1zm1 0h1v1h-1zm1 0h1v1h-1zm2 0h2v1h-2zm2 0h1v1h-1zm2 0h1v1h-1zm1 0h12v1h-12zm12 0h1v4h-1zm1 0h1v1h-1zm4 0h2v1h-2zm2 0h1v1h-1zm2 0h11v1h-11zm11 0h1v43h-1zm1 0h1v1h-1zm1 0h1v1h-1zm1 0h1v43h-1zm2 0h1v1h-1zm1 0h7v1h-7zm7 0h1v43h-1zm1 0h1v1h-1zM8 4h1v1H8zm3 0h1v1h-1zm1 0h2v1h-2zm2 0h1v1h-1zm1 0h1v2h-1zm1 0h1v1h-1zm1 0h1v1h-1zm1 0h1v1h-1zm1 0h11v1H19zm11 0h1v1h-1zm1 0h1v1h-1zm1 0h1v1h-1zm1 0h1v1h-1zm1 0h1v1h-1zm1 0h2v1h-2zm2 0h1v2h-1zm1 0h1v1h-1zm1 0h1v1h-1zm2 0h1v1h-1zm1 0h1v1h-1zm16 0h1v1h-1zm2 0h1v1h-1zm1 0h1v1h-1zm1 0h1v2h-1zm2 0h1v1h-1zm1 0h1v1h-1zm1 0h7v1h-7zm7 0h1v1h-1zm1 0h1v1h-1zm1 0h1v1h-1zm1 0h1v1h-1zm1 0h1v2h-1zm1 0h1v1h-1zm1 0h1v1h-1zm2 0h1v1h-1zm3 0h1v1h-1zm2 0h1v1h-1zm1 0h1v1h-1zm1 0h1v2h-1zm1 0h1v1h-1zm1 0h1v1h-1zm1 0h1v1h-1zm1 0h6v1h-6zm6 0h1v1h-1zm1 0h1v1h-1zm1 0h1v1h-1zm1 0h1v1h-1zm1 0h1v2h-1zm1 0h1v1h-1zm1 0h1v1h-1zm2 0h1v1h-1zm1 0h1v1h-1zm2 0h1v41h-1zm1 0h1v1h-1zm1 0h1v1h-1zm1 0h1v1h-1zm1 0h7v1h-7zm7 0h1v1h-1zm1 0h1v1h-1zm2 0h1v1h-1zm2 0h2v1h-2zm2 0h1v1h-1zm2 0h1v1h-1zm1 0h1v1h-1zm1 0h1v1h-1zm1 0h1v1h-1zm1 0h7v1h-7zm7 0h1v1h-1zm1 0h1v1h-1zm2 0h1v1h-1zm1 0h1v42h-1zm3 0h1v41h-1zm1 0h1v42h-1zm1 0h1v1h-1zm1 0h1v1h-1zm1 0h2v1h-2zm2 0h1v1h-1zm1 0h1v1h-1zm2 0h1v1h-1zM7 5h1v1H7zm2 0h1v1H9zm1 0h1v1h-1zm1 0h1v2h-1zm1 0h1v1h-1zm1 0h1v1h-1zm1 0h1v1h-1zm2 0h3v1h-3zm3 0h1v1h-1zm1 0h1v1h-1zm1 0h1v1h-1zm1 0h1v1h-1zm1 0h1v1h-1zm1 0h1v1h-1zm1 0h1v1h-1zm1 0h1v1h-1zm1 0h1v1h-1zm1 0h1v1h-1zm1 0h1v1h-1zm1 0h1v1h-1zm1 0h3v1h-3zm3 0h1v1h-1zm1 0h1v1h-1zm1 0h1v1h-1zm2 0h1v1h-1zm1 0h1v1h-1zm1 0h1v1h-1zm3 0h1v1h-1zm14 0h1v1h-1zm2 0h1v1h-1zm1 0h1v1h-1zm1 0h1v1h-1zm2 0h1v38h-1zm1 0h3v2h-3zm3 0h3v1h-3zm3 0h2v1h-2zm2 0h1v2h-1zm3 0h1v5h-1zm1 0h1v1h-1zm2 0h1v1h-1zm1 0h1v2h-1zm1 0h1v1h-1zm2 0h1v1h-1zm1 0h1v1h-1zm2 0h1v1h-1zm1 0h1v1h-1zm1 0h1v1h-1zm2 0h7v1h-7zm7 0h1v1h-1zm3 0h2v4h-2zm2 0h1v8h-1zm2 0h1v1h-1zm1 0h1v2h-1zm1 0h1v1h-1zm2 0h1v1h-1zm3 0h1v39h-1zm1 0h1v41h-1zm1 0h1v1h-1zm1 0h7v2h-7zm7 0h1v14h-1zm1 0h1v1h-1zm2 0h1v1h-1zm1 0h1v1h-1zm2 0h1v1h-1zm1 0h1v1h-1zm2 0h1v1h-1zm1 0h1v1h-1zm1 0h1v1h-1zm1 0h1v1h-1zm1 0h7v2h-7zm7 0h1v39h-1zm1 0h1v38h-1zm2 0h1v38h-1zm6 0h1v27h-1zm1 0h3v38h-3zm3 0h1v1h-1zm1 0h1v2h-1zm2 0h1v40h-1zM5 6h1v2H5zm3 0h1v1H8zm1 0h1v1H9zm1 0h1v2h-1zm2 0h1v1h-1zm1 0h1v1h-1zm1 0h1v1h-1zm1 0h1v1h-1zm1 0h1v1h-1zm1 0h1v1h-1zm1 0h1v1h-1zm1 0h1v1h-1zm1 0h1v1h-1zm9 0h1v1h-1zm1 0h1v1h-1zm1 0h1v1h-1zm1 0h1v1h-1zm1 0h1v1h-1zm1 0h1v1h-1zm1 0h1v1h-1zm1 0h1v1h-1zm1 0h3v1h-3zm3 0h1v1h-1zm1 0h1v1h-1zm1 0h1v1h-1zm2 0h1v1h-1zm13 0h1v1h-1zm2 0h1v1h-1zm1 0h2v1h-2zm2 0h1v1h-1z"/><path d="M67 6h9v1h-9zm9 0h1v1h-1zm1 0h2v1h-2zm3 0h1v1h-1zm2 0h1v1h-1zm1 0h1v1h-1zm2 0h1v1h-1zm1 0h2v1h-2zm2 0h1v1h-1zm1 0h5v1h-5zm5 0h7v1h-7zm8 0h2v1h-2zm3 0h1v1h-1zm2 0h1v1h-1zm14 0h1v1h-1zm2 0h1v1h-1zm1 0h1v1h-1zm2 0h1v1h-1zm1 0h1v3h-1zm2 0h1v1h-1zm1 0h1v7h-1zm1 0h1v1h-1zm1 0h8v1h-8zM4 7h1v1H4zm3 0h1v1H7zm1 0h1v1H8zm1 0h2v1H9zm2 0h1v2h-1zm1 0h1v1h-1zm1 0h1v1h-1zm1 0h1v1h-1zm1 0h1v1h-1zm1 0h1v1h-1zm1 0h1v1h-1zm4 0h1v1h-1zm1 0h1v1h-1zm1 0h1v1h-1zm1 0h1v1h-1zm1 0h1v1h-1zm1 0h1v1h-1zm1 0h1v1h-1zm1 0h1v1h-1zm5 0h1v1h-1zm1 0h1v1h-1zm1 0h1v1h-1zm1 0h1v1h-1zm1 0h1v1h-1zm2 0h1v1h-1zm1 0h1v2h-1zm1 0h1v2h-1zm1 0h1v1h-1zm1 0h1v1h-1zm2 0h1v1h-1zm12 0h1v1h-1zm2 0h1v1h-1zm1 0h1v36h-1zm1 0h1v1h-1zm3 0h2v2h-2zm2 0h1v1h-1zm3 0h1v1h-1zm1 0h1v1h-1zm1 0h1v1h-1zm1 0h3v1h-3zm5 0h1v35h-1zm1 0h1v1h-1zm1 0h1v1h-1zm1 0h1v1h-1zm1 0h1v1h-1zm2 0h1v1h-1zm2 0h1v1h-1zm1 0h1v14h-1zm1 0h1v1h-1zm1 0h5v1h-5zm5 0h1v1h-1zm1 0h2v1h-2zm2 0h1v1h-1zm1 0h5v1h-5zm5 0h1v6h-1zm1 0h1v1h-1zm1 0h1v1h-1zm1 0h1v1h-1zm1 0h1v1h-1zm7 0h7v3h-7zm9 0h1v1h-1zm1 0h1v1h-1zm1 0h1v1h-1zm2 0h1v1h-1zm3 0h1v1h-1zm2 0h1v1h-1zm1 0h8v3h-8zm22 0h1v5h-1zM5 8h1v1H5zm2 0h1v1H7zm1 0h2v1H8z"/><path d="M10 8h3v1h-3zm3 0h1v1h-1zm1 0h1v1h-1zm1 0h1v1h-1zm3 0h1v1h-1zm1 0h1v1h-1zm1 0h1v1h-1zm1 0h1v1h-1zm3 0h1v1h-1zm3 0h2v1h-2zm2 0h1v2h-1zm1 0h1v1h-1zm1 0h1v1h-1zm1 0h1v2h-1zm3 0h1v1h-1zm1 0h1v1h-1zm1 0h1v1h-1zm1 0h1v1h-1zm4 0h1v1h-1zm1 0h1v1h-1zm2 0h1v1h-1zm11 0h1v1h-1zm2 0h1v1h-1zm1 0h1v1h-1zm2 0h1v1h-1zm1 0h3v33h-3zm5 0h1v2h-1zm1 0h3v1h-3zm3 0h1v1h-1zm1 0h1v1h-1zm2 0h1v1h-1zm4 0h1v33h-1zm1 0h1v1h-1zm1 0h1v32h-1zm1 0h1v1h-1zm3 0h1v1h-1zm1 0h1v1h-1zm2 0h1v1h-1zm1 0h4v1h-4zm4 0h1v1h-1zm1 0h1v1h-1zm1 0h2v1h-2zm2 0h1v1h-1zm1 0h6v1h-6zm6 0h1v2h-1zm2 0h1v7h-1zm1 0h1v1h-1zm15 0h1v17h-1zm1 0h1v1h-1zm1 0h1v7h-1zm1 0h1v1h-1zm2 0h1v1h-1zm3 0h1v1h-1zm2 0h1v1h-1zM5 9h1v1H5zm2 0h1v1H7zm1 0h1v1H8zm1 0h2v1H9zm2 0h1v1h-1zm1 0h1v1h-1zm1 0h1v1h-1zm3 0h1v1h-1zm1 0h1v1h-1zm2 0h1v1h-1zm3 0h1v1h-1zm1 0h1v1h-1zm1 0h1v1h-1zm1 0h1v1h-1zm3 0h1v1h-1zm2 0h1v1h-1zm1 0h1v1h-1zm2 0h1v1h-1zm1 0h1v1h-1zm2 0h1v1h-1zm1 0h1v1h-1zm1 0h1v1h-1zm1 0h1v1h-1zm1 0h1v1h-1zm1 0h1v3h-1zm1 0h1v1h-1zm2 0h1v1h-1zm12 0h1v31h-1zm2 0h1v1h-1zm1 0h1v1h-1zm2 0h1v1h-1zm4 0h1v1h-1zm1 0h1v1h-1zm2 0h1v1h-1zm1 0h1v1h-1zm1 0h1v1h-1zm1 0h1v1h-1zm1 0h1v1h-1zm1 0h1v1h-1zm1 0h4v1h-4zm5 0h1v1h-1zm2 0h1v1h-1zm3 0h1v1h-1zm1 0h1v1h-1zm2 0h1v1h-1zm1 0h3v1h-3zm3 0h1v1h-1zm1 0h1v1h-1zm1 0h1v1h-1zm1 0h1v1h-1zm1 0h1v1h-1zm1 0h1v1h-1zm1 0h1v1h-1zm1 0h5v1h-5zm6 0h1v1h-1zm2 0h1v1h-1zm16 0h1v1h-1zm2 0h1v1h-1zm2 0h1v2h-1zm1 0h1v1h-1zm2 0h1v1h-1zm2 0h1v1h-1zM3 10h1v1H3zm3 0h1v1H6zm2 0h1v1H8zm1 0h1v1H9zm1 0h1v1h-1zm1 0h1v1h-1zm1 0h1v1h-1zm2 0h1v1h-1zm1 0h2v1h-2zm2 0h1v1h-1zm3 0h1v1h-1zm1 0h1v1h-1zm1 0h1v1h-1zm1 0h2v1h-2zm2 0h1v1h-1zm1 0h1v1h-1zm3 0h1v1h-1zm3 0h1v1h-1zm3 0h1v1h-1zm3 0h1v1h-1zm1 0h1v1h-1zm1 0h1v1h-1zm2 0h1v1h-1zm2 0h1v1h-1zm2 0h1v1h-1zm1 0h1v1h-1zm11 0h1v29h-1zm1 0h1v2h-1zm2 0h1v29h-1zm5 0h1v28h-1zm1 0h1v1h-1zm1 0h1v1h-1zm2 0h1v1h-1zm1 0h1v1h-1zm1 0h1v1h-1zm1 0h1v29h-1zm1 0h1v1h-1zm1 0h3v1h-3zm4 0h1v3h-1zm2 0h1v9h-1zm3 0h1v1h-1zm1 0h1v7h-1zm2 0h3v7h-3zm3 0h1v1h-1zm1 0h1v1h-1zm1 0h1v7h-1zm1 0h1v1h-1zm1 0h1v1h-1zm3 0h1v1h-1zm1 0h1v5h-1zm1 0h1v1h-1zm4 0h1v2h-1zm1 0h1v3h-1zm2 0h1v1h-1zm6 0h1v1h-1zm1 0h8v7h-8zm9 0h1v1h-1zm2 0h1v1h-1zm3 0h1v1h-1zm2 0h1v1h-1zm2 0h1v1h-1zm1 0h8v1h-8zM4 11h1v1H4zm1 0h1v1H5zm2 0h1v1H7zm1 0h1v1H8zm1 0h1v1H9zm1 0h1v1h-1zm1 0h1v1h-1zm2 0h1v1h-1zm3 0h1v1h-1zm2 0h1v1h-1zm1 0h1v1h-1zm1 0h1v1h-1zm1 0h1v1h-1zm1 0h1v1h-1zm1 0h1v1h-1zm1 0h1v1h-1zm1 0h1v1h-1zm1 0h1v1h-1zm2 0h1v1h-1zm1 0h1v1h-1zm1 0h1v1h-1zm2 0h1v1h-1zm4 0h1v1h-1zm1 0h1v1h-1zm2 0h1v1h-1zm1 0h1v1h-1zm2 0h1v1h-1zm2 0h1v1h-1zm1 0h1v1h-1zm3 0h1v1h-1zm17 0h1v27h-1zm2 0h1v1h-1zm1 0h1v1h-1zm2 0h1v1h-1zm2 0h1v1h-1zm2 0h1v27h-1zm10 0h1v5h-1zm6 0h2v1h-2zm3 0h1v1h-1zm2 0h1v1h-1zm2 0h1v1h-1zm2 0h1v2h-1zm7 0h1v2h-1z"/><path d="M112 11h5v1h-5zm10 0h1v1h-1zm2 0h1v1h-1zm2 0h2v1h-2zm2 0h1v1h-1zm1 0h1v1h-1zm2 0h1v1h-1zm1 0h3v6h-3zm3 0h1v5h-1zm3 0h2v7h-2zm15 0h2v1h-2zM3 12h1v1H3zm3 0h1v1H6zm1 0h1v1H7zm1 0h1v1H8zm1 0h1v1H9zm1 0h1v1h-1zm2 0h1v1h-1zm5 0h1v1h-1zm1 0h1v1h-1zm1 0h1v1h-1zm1 0h1v1h-1zm1 0h1v1h-1zm1 0h1v1h-1zm1 0h1v1h-1zm1 0h1v1h-1zm1 0h1v1h-1zm2 0h1v1h-1zm1 0h2v1h-2zm2 0h1v1h-1zm1 0h1v1h-1zm2 0h1v1h-1zm4 0h1v1h-1zm1 0h1v1h-1zm2 0h1v1h-1zm1 0h1v1h-1zm1 0h1v1h-1zm1 0h1v1h-1zm4 0h1v1h-1zm12 0h1v1h-1zm8 0h1v24h-1zm1 0h1v1h-1zm2 0h1v1h-1zm2 0h1v1h-1zm4 0h2v4h-2zm15 0h1v3h-1zm2 0h1v1h-1zm2 0h1v3h-1zm2 0h1v1h-1zm6 0h1v1h-1zm9 0h9v1h-9zm10 0h1v1h-1zm2 0h1v1h-1zm2 0h1v1h-1zm2 0h1v1h-1zm1 0h1v1h-1zm2 0h1v1h-1zm22 0h2v1h-2zM0 13h1v1H0zm2 0h1v1H2zm1 0h1v1H3zm1 0h1v1H4zm1 0h1v1H5zm1 0h1v1H6zm1 0h1v1H7zm1 0h1v1H8zm1 0h1v1H9zm2 0h1v1h-1zm3 0h1v1h-1zm2 0h1v1h-1zm1 0h1v1h-1zm1 0h1v1h-1zm1 0h1v1h-1zm1 0h1v1h-1zm1 0h1v1h-1zm1 0h1v1h-1zm1 0h1v1h-1zm1 0h1v1h-1zm2 0h1v1h-1zm1 0h1v1h-1zm2 0h1v1h-1zm1 0h1v2h-1zm1 0h1v1h-1zm1 0h1v1h-1zm2 0h1v1h-1zm4 0h1v1h-1zm3 0h1v1h-1zm1 0h1v1h-1zm1 0h1v1h-1zm1 0h1v1h-1zm1 0h1v1h-1zm1 0h1v1h-1zm3 0h1v1h-1zm10 0h1v1h-1zm9 0h1v23h-1zm2 0h1v23h-1zm2 0h1v22h-1z"/><path d="M75 13h3v3h-3zm4 0h1v2h-1zm14 0h1v1h-1zm4 0h1v1h-1zm2 0h1v1h-1zm2 0h1v1h-1zm1 0h1v1h-1zm2 0h1v1h-1zm2 0h1v1h-1zm16 0h1v1h-1zm2 0h1v1h-1zm1 0h1v1h-1zm1 0h1v1h-1zm2 0h1v1h-1zm1 0h1v1h-1zm1 0h1v1h-1zm1 0h9v3h-9zm23 0h1v1h-1zM0 14h1v1H0zm2 0h1v1H2zm1 0h4v1H3zm4 0h1v1H7zm1 0h1v1H8zm2 0h1v1h-1zm3 0h1v1h-1zm2 0h1v1h-1zm1 0h1v1h-1zm1 0h1v2h-1zm1 0h1v1h-1zm1 0h1v1h-1zm2 0h1v1h-1zm2 0h1v1h-1zm2 0h1v1h-1zm1 0h1v1h-1zm1 0h1v1h-1zm1 0h1v1h-1zm1 0h2v1h-2zm2 0h1v1h-1zm1 0h1v1h-1zm1 0h1v1h-1zm2 0h1v1h-1zm4 0h1v1h-1zm2 0h1v1h-1zm1 0h1v1h-1zm1 0h3v1h-3zm3 0h1v1h-1zm1 0h1v1h-1zm1 0h1v1h-1zm2 0h1v1h-1zm9 0h1v1h-1zm34 0h1v1h-1zm4 0h1v1h-1zm2 0h1v1h-1zm1 0h3v1h-3zm3 0h1v1h-1zm1 0h1v1h-1zm2 0h1v1h-1zm16 0h1v1h-1zm2 0h1v1h-1zm1 0h1v1h-1zm3 0h1v1h-1zm1 0h1v7h-1zm1 0h1v1h-1zm24 0h1v1h-1zM0 15h1v1H0zm2 0h1v1H2zm1 0h1v1H3zm1 0h1v1H4zm1 0h1v1H5zm1 0h1v1H6zm1 0h1v1H7zm1 0h1v1H8zm2 0h1v1h-1zm2 0h1v1h-1zm2 0h1v1h-1zm1 0h1v1h-1zm1 0h1v1h-1zm2 0h1v2h-1zm1 0h1v1h-1zm1 0h1v1h-1zm1 0h1v1h-1zm3 0h1v1h-1zm1 0h1v1h-1zm1 0h1v1h-1zm1 0h1v1h-1zm2 0h1v11h-1zm1 0h2v1h-2zm2 0h1v2h-1zm1 0h1v1h-1zm2 0h1v1h-1zm5 0h1v1h-1zm2 0h1v1h-1zm1 0h1v1h-1zm1 0h1v1h-1zm1 0h1v2h-1zm1 0h1v1h-1zm1 0h1v2h-1zm1 0h1v1h-1zm2 0h1v1h-1zm9 0h1v1h-1zm20 0h1v1h-1zm12 0h1v1h-1zm2 0h1v1h-1zm2 0h1v1h-1zm2 0h1v1h-1zm1 0h7v1h-7zm7 0h1v1h-1zm1 0h1v1h-1zm17 0h1v1h-1zm1 0h1v1h-1zm1 0h1v1h-1zm3 0h1v1h-1zm2 0h1v1h-1zm24 0h1v2h-1zM1 16h1v1H1zm1 0h1v1H2zm1 0h1v1H3zm1 0h1v1H4zm1 0h1v1H5zm1 0h1v1H6zm1 0h1v1H7zm2 0h1v1H9zm2 0h1v1h-1zm2 0h1v1h-1zm1 0h1v2h-1zm1 0h1v1h-1zm1 0h1v1h-1z"/><path d="M17 16h3v1h-3zm3 0h1v1h-1zm1 0h1v1h-1zm2 0h1v1h-1zm1 0h1v1h-1zm1 0h1v1h-1zm1 0h4v10h-4zm4 0h1v3h-1zm1 0h1v1h-1zm2 0h1v1h-1zm2 0h1v1h-1zm5 0h1v1h-1zm2 0h1v1h-1zm1 0h1v1h-1zm1 0h1v1h-1zm2 0h1v1h-1zm2 0h1v1h-1zm2 0h1v1h-1zm9 0h1v1h-1zm16 0h3v1h-3zm4 0h1v3h-1zm5 0h1v1h-1zm7 0h1v1h-1zm2 0h1v1h-1zm2 0h1v1h-1zm2 0h1v1h-1zm1 0h1v1h-1zm1 0h1v1h-1zm1 0h1v1h-1zm1 0h1v1h-1zm1 0h1v1h-1zm1 0h1v1h-1zm1 0h1v1h-1zm1 0h1v1h-1zm1 0h1v1h-1zm16 0h1v1h-1zm1 0h1v1h-1zm1 0h1v7h-1zm1 0h1v1h-1zm3 0h1v1h-1zm2 0h1v1h-1zm1 0h9v1h-9zM1 17h1v1H1zm1 0h1v2H2zm1 0h1v1H3zm1 0h1v1H4zm1 0h1v3H5zm2 0h1v1H7zm2 0h1v1H9zm1 0h1v1h-1zm3 0h1v1h-1zm2 0h1v1h-1zm1 0h2v1h-2zm2 0h1v1h-1zm1 0h1v1h-1zm1 0h1v1h-1zm1 0h1v1h-1zm1 0h1v1h-1zm1 0h1v3h-1zm1 0h1v1h-1z"/><path d="M25 17h5v9h-5zm7 0h1v2h-1zm1 0h1v1h-1zm1 0h1v1h-1zm2 0h1v1h-1zm5 0h1v1h-1zm2 0h1v1h-1zm1 0h1v1h-1zm1 0h1v1h-1zm1 0h1v2h-1zm1 0h1v1h-1zm1 0h1v1h-1zm3 0h1v1h-1zm8 0h1v1h-1zm25 0h1v1h-1zm1 0h1v1h-1zm2 0h3v1h-3zm3 0h1v5h-1zm1 0h1v1h-1zm1 0h1v2h-1zm1 0h1v1h-1zm1 0h1v1h-1zm2 0h1v1h-1zm11 0h1v1h-1zm6 0h8v1h-8zm10 0h1v3h-1zm2 0h1v1h-1zm3 0h1v1h-1zm2 0h1v1h-1zm1 0h3v1h-3zm3 0h1v1h-1zm1 0h1v1h-1zm1 0h1v1h-1zm1 0h3v1h-3zm17 0h1v10h-1zM1 18h1v1H1zm2 0h1v1H3zm1 0h1v1H4zm2 0h1v1H6zm2 0h1v1H8zm2 0h1v2h-1zm2 0h1v1h-1zm1 0h1v1h-1zm1 0h1v2h-1zm1 0h1v1h-1zm1 0h1v2h-1zm1 0h1v1h-1zm1 0h1v1h-1zm1 0h1v2h-1zm1 0h1v1h-1zm1 0h1v1h-1zm1 0h1v1h-1zm2 0h1v2h-1zm7 0h1v7h-1zm2 0h1v2h-1zm1 0h1v1h-1zm1 0h1v1h-1zm2 0h1v1h-1zm4 0h1v1h-1zm2 0h1v1h-1zm1 0h1v1h-1zm1 0h1v3h-1zm2 0h1v1h-1zm1 0h1v3h-1zm1 0h1v1h-1zm2 0h1v1h-1zm8 0h1v1h-1zm17 0h2v1h-2zm8 0h1v1h-1zm1 0h1v1h-1z"/><path d="M88 18h3v2h-3zm3 0h1v4h-1zm2 0h1v2h-1zm1 0h1v1h-1zm1 0h1v1h-1zm3 0h1v1h-1zm1 0h1v1h-1zm1 0h5v1h-5zm5 0h1v1h-1zm1 0h1v1h-1zm1 0h1v7h-1zm6 0h1v26h-1zm1 0h1v1h-1zm1 0h1v28h-1zm1 0h1v1h-1zm1 0h1v1h-1zm1 0h1v3h-1zm7 0h1v1h-1zm3 0h1v1h-1zm2 0h1v1h-1zm1 0h2v1h-2zm2 0h1v1h-1zm1 0h1v3h-1zm1 0h1v1h-1zm1 0h1v1h-1zm1 0h1v7h-1zm1 0h2v1h-2zM1 19h1v1H1zm1 0h1v2H2zm1 0h1v1H3zm1 0h1v1H4zm2 0h1v1H6zm2 0h1v1H8zm3 0h1v1h-1zm2 0h1v1h-1zm2 0h2v1h-2zm2 0h2v1h-2zm3 0h1v1h-1zm2 0h1v1h-1zm8 0h1v6h-1zm2 0h2v1h-2zm2 0h1v1h-1zm1 0h1v1h-1zm2 0h1v1h-1zm5 0h1v1h-1zm2 0h1v1h-1zm2 0h1v2h-1zm1 0h1v1h-1zm2 0h1v1h-1zm2 0h1v1h-1zm8 0h1v4h-1zm16 0h3v1h-3zm4 0h1v5h-1zm2 0h1v1h-1zm3 0h1v1h-1zm1 0h1v1h-1zm2 0h1v1h-1z"/><path d="M92 19h3v1h-3zm3 0h1v1h-1zm1 0h1v1h-1zm1 0h1v1h-1zm2 0h1v1h-1zm15 0h1v24h-1zm2 0h1v1h-1zm1 0h1v1h-1zm2 0h1v1h-1zm1 0h1v3h-1zm5 0h1v1h-1zm2 0h1v1h-1zm1 0h1v1h-1zm2 0h1v1h-1zm1 0h1v7h-1zm2 0h1v1h-1zm2 0h1v1h-1zm1 0h1v2h-1zm3 0h1v24h-1zM0 20h1v1H0zm1 0h1v1H1zm2 0h1v1H3zm1 0h1v9H4zm1 0h1v1H5zm1 0h1v1H6zm2 0h1v1H8zm2 0h1v1h-1zm2 0h1v1h-1zm1 0h1v1h-1zm1 0h1v1h-1zm1 0h1v1h-1zm1 0h2v1h-2zm2 0h1v1h-1zm1 0h1v1h-1zm1 0h1v1h-1zm1 0h1v1h-1zm1 0h1v1h-1zm1 0h1v1h-1zm1 0h1v1h-1zm8 0h1v1h-1zm1 0h1v1h-1zm1 0h1v1h-1zm1 0h1v1h-1zm2 0h1v1h-1zm5 0h1v1h-1zm2 0h1v1h-1zm3 0h1v1h-1zm2 0h1v1h-1zm3 0h1v2h-1zm23 0h3v4h-3zm6 0h1v1h-1zm2 0h1v10h-1zm2 0h1v1h-1zm2 0h1v1h-1zm1 0h4v1h-4zm4 0h1v3h-1zm1 0h1v1h-1zm1 0h1v1h-1zm1 0h1v1h-1zm1 0h1v2h-1zm1 0h1v1h-1zm1 0h1v1h-1zm2 0h1v1h-1zm1 0h1v1h-1zm15 0h1v1h-1zm1 0h1v1h-1zm2 0h1v1h-1zm3 0h1v14h-1zm1 0h1v1h-1zm2 0h1v1h-1zm2 0h1v1h-1zm1 0h1v1h-1zm2 0h1v1h-1zm3 0h1v1h-1zm2 0h1v1h-1zm3 0h1v2h-1zM0 21h1v1H0zm1 0h3v1H1zm4 0h1v1H5zm1 0h1v1H6zm2 0h1v1H8zm2 0h1v1h-1zm3 0h1v1h-1zm1 0h1v1h-1zm1 0h1v1h-1zm1 0h1v1h-1zm1 0h1v2h-1zm1 0h1v1h-1zm1 0h1v1h-1zm2 0h1v1h-1zm1 0h1v1h-1zm1 0h1v1h-1zm1 0h9v3h-9zm9 0h1v2h-1zm1 0h1v1h-1zm1 0h1v1h-1zm1 0h1v1h-1zm2 0h1v1h-1zm4 0h1v1h-1zm2 0h1v1h-1zm1 0h4v1h-4zm4 0h1v1h-1zm1 0h1v1h-1zm31 0h1v1h-1zm4 0h1v1h-1zm1 0h1v1h-1zm1 0h1v1h-1z"/><path d="M89 21h6v1h-6zm6 0h1v4h-1zm2 0h1v1h-1zm1 0h1v1h-1zm1 0h1v1h-1zm3 0h1v1h-1zm14 0h1v1h-1zm1 0h1v1h-1zm1 0h1v1h-1zm1 0h1v1h-1zm4 0h1v1h-1zm2 0h1v1h-1zm2 0h1v1h-1zm1 0h1v8h-1zm1 0h1v1h-1zm1 0h3v1h-3zm3 0h1v1h-1zm1 0h1v1h-1zm1 0h1v1h-1zm1 0h1v1h-1zM0 22h1v1H0zm1 0h1v1H1zm1 0h1v1H2zm1 0h1v1H3zm2 0h1v1H5zm2 0h1v1H7zm1 0h1v1H8zm2 0h1v1h-1zm2 0h1v1h-1zm1 0h1v1h-1zm1 0h2v1h-2zm2 0h1v1h-1zm2 0h1v1h-1zm1 0h1v1h-1zm1 0h1v1h-1zm1 0h1v2h-1zm1 0h1v1h-1zm1 0h1v1h-1zm11 0h1v1h-1zm1 0h1v1h-1zm1 0h1v1h-1zm2 0h1v1h-1zm4 0h1v1h-1zm2 0h1v1h-1zm2 0h1v5h-1zm1 0h1v1h-1zm1 0h1v1h-1zm1 0h1v1h-1zm1 0h1v1h-1zm2 0h1v1h-1zm29 0h1v1h-1zm5 0h1v1h-1zm1 0h1v1h-1zm1 0h1v1h-1zm1 0h6v1h-6zm7 0h3v1h-3zm3 0h1v1h-1zm1 0h1v1h-1zm1 0h1v1h-1zm2 0h1v1h-1zm13 0h1v1h-1zm1 0h1v1h-1zm1 0h1v1h-1zm1 0h1v6h-1zm1 0h2v1h-2zm3 0h1v1h-1zm2 0h1v1h-1zm1 0h1v1h-1zm1 0h1v1h-1zm2 0h1v1h-1zm1 0h2v1h-2zm2 0h1v1h-1zm1 0h1v7h-1zm1 0h1v1h-1zm1 0h1v1h-1zm1 0h1v1h-1zm2 0h1v1h-1zM3 23h1v1H3zm2 0h1v1H5zm2 0h1v1H7zm4 0h1v1h-1zm2 0h1v1h-1zm1 0h1v1h-1zm1 0h1v1h-1zm1 0h1v1h-1zm1 0h1v1h-1zm1 0h1v1h-1zm1 0h1v1h-1zm1 0h1v1h-1zm2 0h1v1h-1zm1 0h10v1H23zm10 0h1v1h-1zm1 0h1v1h-1zm1 0h1v1h-1zm1 0h1v1h-1zm2 0h1v1h-1zm4 0h1v3h-1zm2 0h1v1h-1zm1 0h1v1h-1zm2 0h1v1h-1zm12 0h1v8h-1zm22 0h1v4h-1zm3 0h1v1h-1zm2 0h1v1h-1zm1 0h1v1h-1zm1 0h1v1h-1zm1 0h1v1h-1zm1 0h1v1h-1z"/><path d="M92 23h4v1h-4zm4 0h1v3h-1zm2 0h1v1h-1zm1 0h1v1h-1zm1 0h1v2h-1zm2 0h1v1h-1zm2 0h1v1h-1zm1 0h1v1h-1zm7 0h2v1h-2zm4 0h1v1h-1zm1 0h1v1h-1zm1 0h1v1h-1zm2 0h1v1h-1zm3 0h1v1h-1zm1 0h1v1h-1zm1 0h1v6h-1zm1 0h1v1h-1zm1 0h1v1h-1zm2 0h1v3h-1zm3 0h1v1h-1zm2 0h1v1h-1zm1 0h1v1h-1zm1 0h1v1h-1zM0 24h1v1H0zm1 0h1v1H1zm1 0h1v1H2zm1 0h1v1H3zm2 0h1v1H5zm2 0h1v1H7zm3 0h1v1h-1zm2 0h1v1h-1zm1 0h1v1h-1zm1 0h1v2h-1zm1 0h1v1h-1zm1 0h1v1h-1zm1 0h1v1h-1zm1 0h1v1h-1zm2 0h1v1h-1zm1 0h1v1h-1zm1 0h1v1h-1zm1 0h9v1h-9zm9 0h1v1h-1zm1 0h1v1h-1zm1 0h1v1h-1zm1 0h1v1h-1zm3 0h1v2h-1zm6 0h1v1h-1zm1 0h1v1h-1zm2 0h1v1h-1zm2 0h1v1h-1zm26 0h3v1h-3zm4 0h1v2h-1zm6 0h1v1h-1zm2 0h1v1h-1zm1 0h1v1h-1zm1 0h1v1h-1zm1 0h2v1h-2zm2 0h1v2h-1z"/><path d="M93 24h6v1h-6zm6 0h1v6h-1zm2 0h1v2h-1zm1 0h1v1h-1zm1 0h1v1h-1zm2 0h1v1h-1zm7 0h2v1h-2zm4 0h1v1h-1zm1 0h1v1h-1zm1 0h1v1h-1zm2 0h1v1h-1zm3 0h1v1h-1zm1 0h1v1h-1zm2 0h1v1h-1zm1 0h1v1h-1zm5 0h1v1h-1zm2 0h1v1h-1zm1 0h1v1h-1zm1 0h1v22h-1zm2 0h2v1h-2zM0 25h1v1H0zm1 0h1v1H1zm1 0h1v1H2zm1 0h1v1H3zm2 0h1v1H5zm2 0h1v1H7zm3 0h1v1h-1zm2 0h1v1h-1zm1 0h1v1h-1zm2 0h1v1h-1zm1 0h1v1h-1zm1 0h1v1h-1zm2 0h1v1h-1zm1 0h1v1h-1zm1 0h1v1h-1zm1 0h9v1h-9zm9 0h1v1h-1zm1 0h1v1h-1zm1 0h1v1h-1zm1 0h1v1h-1zm3 0h1v1h-1zm7 0h1v1h-1zm1 0h1v1h-1zm2 0h1v1h-1zm2 0h1v1h-1zm26 0h3v2h-3zm11 0h1v1h-1zm3 0h1v1h-1zm1 0h1v1h-1zm1 0h1v1h-1zm2 0h6v1h-6z"/><path d="M100 25h3v1h-3zm3 0h1v1h-1zm1 0h1v1h-1zm2 0h1v1h-1zm1 0h1v1h-1zm9 0h1v1h-1zm1 0h1v1h-1zm1 0h1v1h-1zm2 0h1v1h-1zm1 0h2v3h-2zm2 0h1v1h-1zm1 0h1v2h-1zm2 0h1v1h-1zm1 0h1v1h-1zm3 0h1v11h-1zm2 0h1v1h-1zm2 0h1v1h-1zm1 0h1v1h-1zm2 0h1v1h-1zm1 0h2v4h-2zM3 26h1v1H3zm2 0h1v1H5zm2 0h1v1H7zm3 0h1v1h-1zm2 0h1v1h-1zm1 0h1v1h-1zm1 0h1v1h-1zm1 0h1v1h-1zm1 0h1v1h-1zm1 0h1v1h-1zm1 0h1v1h-1zm1 0h1v1h-1zm1 0h1v1h-1zm1 0h8v1h-8zm8 0h1v1h-1zm1 0h1v1h-1zm1 0h1v1h-1zm1 0h1v1h-1zm1 0h1v1h-1zm4 0h1v1h-1zm1 0h1v1h-1zm4 0h1v1h-1zm2 0h1v1h-1zm1 0h1v1h-1zm2 0h1v1h-1zm32 0h1v2h-1zm8 0h1v1h-1zm1 0h1v1h-1zm2 0h1v1h-1zm1 0h1v1h-1zm1 0h1v1h-1zm1 0h1v1h-1zm1 0h1v1h-1zm1 0h1v2h-1zm1 0h4v1h-4zm4 0h1v5h-1zm1 0h1v1h-1zm1 0h1v1h-1zm1 0h1v1h-1zm1 0h1v1h-1zm1 0h1v1h-1zm2 0h1v1h-1zm9 0h1v1h-1zm1 0h1v1h-1zm1 0h1v1h-1zm2 0h1v1h-1zm6 0h1v1h-1zm1 0h1v1h-1zm2 0h1v1h-1zm2 0h1v3h-1zm1 0h1v1h-1zm2 0h1v1h-1zm1 0h1v1h-1zM0 27h1v1H0zm1 0h1v1H1zm1 0h1v1H2zm1 0h1v1H3zm2 0h1v1H5zm2 0h1v1H7zm1 0h1v1H8zm3 0h1v2h-1zm2 0h1v1h-1zm1 0h1v1h-1zm1 0h1v1h-1zm1 0h1v1h-1zm3 0h1v1h-1zm1 0h1v1h-1zm1 0h6v1h-6zm6 0h1v1h-1zm2 0h1v1h-1zm1 0h1v1h-1zm1 0h1v1h-1zm1 0h1v1h-1zm3 0h1v1h-1zm1 0h1v1h-1zm2 0h1v1h-1zm1 0h1v1h-1zm3 0h1v1h-1zm2 0h1v1h-1zm1 0h1v1h-1zm1 0h1v1h-1zm1 0h1v1h-1zm1 0h1v1h-1zm1 0h1v1h-1zm1 0h1v1h-1zm25 0h3v3h-3zm6 0h1v12h-1zm8 0h1v1h-1zm2 0h1v2h-1zm1 0h1v1h-1zm1 0h1v1h-1zm1 0h1v1h-1z"/><path d="M97 27h4v1h-4zm4 0h1v16h-1zm2 0h1v1h-1zm1 0h1v1h-1zm1 0h1v1h-1zm1 0h1v1h-1zm1 0h1v1h-1zm9 0h1v1h-1zm1 0h1v1h-1zm1 0h1v1h-1zm2 0h1v1h-1zm4 0h1v1h-1zm2 0h1v1h-1zm1 0h1v1h-1zm2 0h1v1h-1zm3 0h1v1h-1zm2 0h1v1h-1zm1 0h1v1h-1zm2 0h3v2h-3zm17 0h1v3h-1zM0 28h1v1H0zm1 0h3v1H1zm4 0h1v1H5zm1 0h1v1H6zm2 0h1v1H8zm4 0h1v1h-1zm5 0h1v1h-1zm1 0h1v1h-1zm1 0h1v1h-1zm1 0h4v1h-4zm4 0h1v1h-1zm1 0h2v1h-2zm2 0h2v1h-2zm2 0h1v1h-1zm1 0h1v1h-1zm1 0h1v1h-1zm3 0h1v1h-1zm1 0h1v1h-1zm1 0h1v1h-1zm1 0h1v1h-1zm2 0h1v1h-1zm1 0h1v1h-1zm2 0h1v2h-1zm2 0h1v1h-1zm1 0h3v1h-3zm3 0h1v3h-1zm1 0h1v1h-1zm1 0h1v1h-1zm2 0h1v1h-1zm27 0h1v1h-1zm11 0h1v1h-1zm3 0h1v1h-1zm1 0h1v1h-1zm1 0h1v1h-1zm1 0h1v1h-1z"/><path d="M97 28h6v1h-6zm6 0h1v1h-1zm1 0h1v1h-1zm1 0h1v13h-1zm1 0h1v1h-1zm10 0h1v1h-1zm1 0h1v1h-1zm1 0h1v1h-1zm1 0h1v1h-1zm2 0h1v1h-1zm3 0h1v1h-1zm2 0h1v1h-1zm1 0h1v1h-1zm2 0h1v1h-1zm3 0h1v1h-1zm2 0h1v1h-1zm1 0h1v1h-1zM0 29h1v1H0zm1 0h1v1H1zm1 0h1v1H2zm1 0h1v1H3zm1 0h1v1H4zm1 0h1v1H5zm1 0h1v1H6zm2 0h1v2H8zm3 0h1v1h-1zm1 0h1v1h-1zm2 0h1v1h-1zm1 0h1v1h-1zm1 0h1v1h-1zm1 0h1v1h-1zm1 0h4v1h-4zm4 0h1v1h-1zm1 0h6v1h-6zm6 0h1v1h-1zm1 0h1v1h-1zm3 0h1v1h-1zm1 0h1v1h-1zm1 0h1v1h-1zm1 0h1v1h-1zm1 0h1v1h-1zm1 0h1v1h-1zm3 0h1v1h-1zm3 0h1v1h-1zm1 0h1v2h-1zm1 0h1v1h-1zm1 0h1v1h-1zm2 0h1v1h-1zm1 0h1v1h-1zm2 0h1v1h-1zm27 0h1v1h-1zm6 0h4v1h-4zm4 0h1v1h-1zm1 0h1v1h-1zm1 0h1v1h-1zm1 0h1v1h-1zm2 0h1v1h-1zm1 0h1v1h-1zm1 0h1v1h-1zm1 0h1v1h-1zm1 0h5v1h-5zm5 0h1v1h-1zm1 0h1v1h-1zm2 0h1v1h-1zm10 0h1v1h-1zm1 0h1v1h-1zm1 0h1v1h-1zm1 0h1v1h-1zm1 0h1v5h-1zm1 0h1v1h-1zm2 0h1v6h-1zm1 0h1v2h-1zm1 0h1v1h-1zm1 0h1v1h-1zm1 0h1v1h-1zm1 0h1v1h-1zm1 0h2v7h-2zm2 0h1v1h-1zm1 0h1v1h-1zm1 0h1v1h-1zm1 0h1v1h-1zm1 0h1v1h-1zm2 0h3v4h-3zM0 30h1v1H0zm1 0h1v1H1zm1 0h1v2H2zm1 0h1v1H3zm1 0h1v1H4zm1 0h1v2H5zm1 0h1v1H6zm4 0h1v1h-1zm3 0h1v1h-1zm1 0h2v1h-2zm2 0h1v1h-1zm1 0h1v1h-1zm1 0h3v1h-3zm3 0h1v1h-1zm1 0h2v1h-2zm2 0h1v1h-1zm1 0h1v1h-1zm1 0h1v1h-1zm1 0h1v1h-1zm1 0h1v1h-1zm1 0h1v2h-1zm3 0h1v1h-1zm1 0h1v1h-1zm1 0h1v1h-1zm1 0h1v1h-1zm1 0h1v1h-1zm1 0h1v1h-1zm1 0h1v1h-1zm1 0h1v1h-1zm3 0h1v1h-1zm2 0h1v1h-1zm2 0h1v1h-1zm1 0h1v1h-1zm2 0h1v1h-1zm2 0h1v1h-1zm24 0h3v2h-3zm4 0h1v2h-1zm4 0h1v1h-1zm13 0h1v1h-1zm1 0h1v1h-1zm1 0h1v1h-1zm1 0h3v1h-3zm3 0h1v12h-1zm2 0h1v10h-1zm2 0h1v1h-1zm10 0h1v3h-1zm1 0h1v1h-1zm2 0h1v1h-1zm2 0h1v1h-1zm4 0h1v14h-1zm1 0h1v1h-1z"/><path d="M128 30h2v9h-2zm3 0h1v1h-1zm1 0h1v6h-1zm1 0h1v1h-1zm1 0h1v1h-1zm1 0h1v1h-1zm19 0h1v2h-1zM1 31h1v1H1zm2 0h1v1H3zm1 0h1v1H4zm2 0h1v1H6zm2 0h1v1H8zm1 0h1v1H9zm3 0h1v1h-1zm1 0h1v1h-1zm1 0h1v1h-1zm1 0h1v1h-1zm1 0h1v1h-1zm1 0h3v1h-3zm3 0h1v1h-1zm2 0h1v1h-1zm1 0h1v1h-1zm1 0h1v1h-1zm1 0h1v1h-1zm1 0h1v1h-1zm1 0h1v1h-1zm1 0h1v1h-1zm3 0h1v1h-1zm1 0h1v1h-1zm1 0h1v1h-1zm1 0h1v1h-1zm1 0h2v2h-2zm2 0h1v2h-1zm1 0h1v1h-1zm1 0h1v2h-1zm1 0h1v1h-1zm1 0h1v1h-1zm2 0h1v1h-1zm1 0h1v1h-1zm1 0h1v1h-1zm1 0h1v1h-1zm1 0h1v1h-1zm1 0h1v1h-1zm1 0h1v1h-1zm2 0h1v1h-1zm8 0h1v8h-1zm25 0h1v1h-1zm1 0h1v1h-1zm1 0h4v1h-4zm4 0h1v1h-1zm1 0h1v1h-1zm1 0h1v1h-1zm1 0h1v1h-1zm2 0h1v1h-1zm2 0h1v1h-1zm1 0h1v8h-1zm1 0h1v6h-1zm1 0h2v12h-2zm3 0h2v1h-2zm3 0h1v7h-1zm11 0h1v1h-1zm2 0h1v1h-1zm2 0h1v2h-1z"/><path d="M124 31h6v1h-6zm7 0h1v1h-1zm2 0h1v1h-1zm2 0h1v1h-1zM1 32h1v1H1zm1 0h1v1H2zm1 0h1v1H3zm1 0h1v1H4zm1 0h1v1H5zm1 0h1v1H6zm1 0h1v1H7zm2 0h1v1H9zm2 0h1v1h-1zm1 0h1v3h-1zm1 0h1v1h-1zm1 0h5v1h-5zm5 0h1v1h-1zm2 0h1v1h-1zm1 0h1v1h-1zm1 0h1v1h-1zm1 0h1v1h-1zm2 0h1v1h-1zm2 0h1v1h-1zm1 0h1v1h-1zm1 0h1v1h-1zm1 0h1v2h-1zm1 0h1v1h-1zm2 0h3v1h-3zm4 0h1v1h-1zm2 0h1v1h-1zm1 0h1v1h-1zm2 0h1v1h-1zm1 0h1v1h-1zm1 0h1v1h-1zm1 0h1v1h-1zm1 0h1v2h-1zm1 0h1v1h-1zm1 0h1v1h-1zm2 0h1v1h-1zm24 0h3v3h-3zm4 0h1v1h-1zm5 0h1v1h-1zm1 0h7v1h-7zm7 0h1v7h-1zm1 0h1v1h-1zm2 0h1v1h-1zm2 0h1v1h-1zm6 0h2v1h-2zm14 0h1v1h-1zm2 0h1v1h-1zm7 0h4v3h-4zm5 0h1v1h-1zm2 0h1v1h-1zm2 0h1v1h-1zm14 0h1v12h-1zm5 0h1v4h-1zM1 33h1v1H1zm1 0h1v1H2zm1 0h1v2H3zm1 0h1v1H4zm1 0h1v1H5zm1 0h1v2H6zm1 0h1v1H7zm3 0h1v1h-1zm1 0h1v1h-1zm2 0h5v1h-5zm5 0h1v1h-1zm2 0h1v1h-1zm1 0h1v1h-1zm1 0h1v1h-1zm1 0h1v1h-1zm2 0h1v1h-1zm1 0h1v1h-1zm2 0h1v1h-1zm1 0h1v1h-1zm1 0h1v1h-1zm2 0h1v1h-1zm2 0h3v1h-3zm3 0h1v1h-1zm1 0h1v1h-1zm1 0h1v1h-1zm1 0h1v1h-1zm2 0h1v1h-1zm1 0h1v1h-1zm1 0h1v2h-1zm1 0h1v1h-1zm1 0h1v1h-1zm2 0h1v1h-1zm2 0h1v1h-1zm29 0h1v3h-1zm5 0h1v6h-1zm1 0h1v1h-1zm1 0h1v1h-1zm1 0h1v1h-1zm1 0h2v1h-2zm2 0h1v1h-1zm1 0h1v1h-1zm2 0h1v1h-1zm2 0h1v1h-1zm2 0h1v3h-1zm6 0h2v1h-2zm13 0h1v1h-1zm1 0h1v1h-1zm2 0h1v1h-1zm2 0h1v1h-1zm10 0h1v1h-1zm2 0h1v1h-1zm2 0h1v3h-1zm2 0h3v4h-3zM0 34h1v1H0zm2 0h1v1H2zm2 0h1v1H4zm1 0h1v1H5zm2 0h1v1H7zm1 0h1v1H8zm2 0h1v1h-1zm1 0h1v1h-1zm2 0h1v1h-1zm1 0h3v1h-3zm3 0h1v1h-1zm2 0h1v1h-1zm1 0h1v1h-1zm1 0h1v1h-1zm1 0h1v1h-1zm2 0h1v1h-1zm3 0h1v1h-1zm3 0h1v1h-1zm1 0h1v1h-1zm1 0h1v1h-1zm1 0h1v1h-1zm2 0h1v1h-1zm1 0h2v2h-2zm2 0h1v1h-1zm1 0h1v1h-1zm3 0h1v1h-1zm1 0h1v2h-1zm2 0h1v1h-1zm1 0h1v1h-1zm1 0h1v1h-1zm1 0h1v1h-1zm2 0h1v1h-1zm35 0h1v5h-1zm1 0h1v9h-1zm1 0h2v5h-2zm2 0h1v9h-1zm1 0h2v1h-2zm3 0h1v3h-1zm2 0h1v3h-1zm8 0h2v1h-2zm13 0h1v1h-1zm1 0h1v1h-1zm2 0h1v1h-1zm1 0h1v1h-1z"/><path d="M121 34h9v1h-9zm10 0h1v1h-1zm2 0h1v1h-1zM0 35h1v1H0zm2 0h1v1H2zm1 0h4v1H3zm4 0h1v1H7zm1 0h1v1H8zm3 0h1v1h-1zm1 0h1v1h-1zm1 0h1v1h-1zm2 0h2v1h-2zm2 0h1v1h-1zm1 0h1v1h-1zm1 0h1v1h-1zm1 0h1v1h-1zm1 0h2v1h-2zm2 0h1v1h-1zm5 0h1v1h-1zm3 0h1v1h-1zm1 0h1v1h-1zm1 0h1v1h-1zm1 0h1v1h-1zm1 0h2v1h-2zm3 0h1v1h-1zm1 0h1v1h-1zm2 0h1v1h-1zm1 0h1v1h-1zm2 0h2v1h-2zm2 0h1v1h-1zm1 0h1v1h-1zm1 0h1v1h-1zm2 0h1v1h-1zm22 0h1v2h-1zm3 0h3v2h-3zm15 0h2v1h-2zm13 0h2v1h-2zm13 0h1v1h-1zm1 0h1v1h-1zm2 0h1v1h-1zm1 0h1v1h-1zm1 0h1v5h-1zm1 0h1v1h-1zm1 0h7v1h-7zm8 0h1v1h-1zm2 0h1v1h-1zM0 36h1v1H0zm2 0h1v1H2zm1 0h1v1H3zm1 0h1v1H4zm1 0h1v1H5zm1 0h1v1H6zm1 0h1v1H7zm1 0h1v2H8zm1 0h1v1H9zm3 0h1v1h-1zm1 0h1v1h-1zm1 0h1v1h-1zm1 0h1v1h-1zm1 0h1v1h-1zm1 0h1v1h-1zm1 0h1v1h-1zm1 0h1v1h-1zm1 0h1v2h-1zm2 0h1v1h-1zm7 0h1v1h-1zm1 0h1v1h-1zm2 0h1v1h-1zm1 0h1v1h-1zm1 0h3v1h-3zm3 0h1v1h-1zm1 0h1v1h-1zm3 0h1v1h-1zm1 0h1v1h-1zm1 0h1v1h-1zm1 0h1v1h-1zm1 0h1v1h-1zm1 0h1v1h-1zm1 0h1v1h-1zm2 0h1v1h-1zm18 0h1v1h-1zm1 0h1v1h-1zm2 0h1v1h-1zm9 0h1v1h-1zm11 0h2v1h-2zm7 0h1v1h-1zm6 0h2v1h-2zm13 0h1v7h-1zm1 0h1v1h-1zm2 0h1v1h-1zm1 0h1v1h-1zm2 0h1v1h-1zm4 0h4v3h-4zm4 0h1v1h-1zm1 0h1v1h-1zm1 0h1v1h-1zm1 0h1v1h-1zm2 0h1v1h-1zm19 0h1v3h-1zM3 37h1v1H3zm1 0h1v1H4zm2 0h1v1H6zm1 0h1v1H7zm2 0h1v1H9zm1 0h1v1h-1zm3 0h1v1h-1zm1 0h1v1h-1zm1 0h1v1h-1zm1 0h1v1h-1zm1 0h1v1h-1zm1 0h1v1h-1zm3 0h1v1h-1zm9 0h1v1h-1zm1 0h1v1h-1zm2 0h1v1h-1zm1 0h2v1h-2zm2 0h1v1h-1zm1 0h1v1h-1zm3 0h1v1h-1zm1 0h1v1h-1zm1 0h1v1h-1zm1 0h1v1h-1zm3 0h1v1h-1zm1 0h1v1h-1zm2 0h1v1h-1zm18 0h1v1h-1zm1 0h1v1h-1zm2 0h1v1h-1zm2 0h1v1h-1zm3 0h3v5h-3zm4 0h1v3h-1zm11 0h2v1h-2zm3 0h1v1h-1zm2 0h1v1h-1zm2 0h1v1h-1zm2 0h1v2h-1zm4 0h2v1h-2zm14 0h1v8h-1zm3 0h1v1h-1zm2 0h1v2h-1z"/><path d="M124 37h5v5h-5zm6 0h1v1h-1zm1 0h1v6h-1zm1 0h1v1h-1zm1 0h1v1h-1zm2 0h1v1h-1zm2 0h3v5h-3zM5 38h1v1H5zm2 0h1v1H7zm1 0h1v1H8zm1 0h1v2H9zm1 0h1v1h-1zm1 0h1v1h-1zm3 0h1v1h-1zm1 0h1v1h-1zm1 0h1v1h-1zm1 0h1v1h-1zm3 0h1v1h-1zm12 0h1v1h-1zm2 0h1v1h-1zm1 0h1v1h-1zm1 0h1v1h-1zm3 0h1v1h-1zm1 0h1v1h-1zm1 0h1v2h-1zm1 0h1v1h-1zm1 0h1v1h-1zm2 0h1v1h-1zm3 0h1v1h-1zm17 0h1v1h-1zm1 0h1v1h-1zm1 0h1v1h-1zm1 0h1v1h-1zm4 0h1v1h-1zm2 0h1v1h-1zm16 0h2v1h-2zm3 0h1v1h-1zm2 0h1v1h-1zm2 0h1v1h-1zm6 0h2v1h-2zm3 0h1v1h-1zm14 0h1v1h-1z"/><path d="M123 38h6v2h-6zm7 0h1v1h-1zm2 0h1v1h-1zm1 0h1v1h-1zm2 0h1v1h-1zM3 39h1v1H3zm1 0h1v1H4zm2 0h1v1H6zm2 0h1v1H8zm2 0h1v2h-1zm1 0h1v1h-1zm1 0h1v1h-1zm3 0h1v1h-1zm1 0h1v1h-1zm3 0h1v2h-1zm14 0h1v1h-1zm5 0h1v1h-1zm1 0h1v1h-1zm1 0h1v1h-1zm2 0h1v1h-1zm2 0h1v1h-1zm2 0h1v1h-1zm1 0h1v1h-1zm11 0h1v1h-1zm1 0h1v1h-1zm2 0h1v1h-1zm4 0h1v4h-1zm1 0h1v4h-1zm1 0h1v1h-1zm1 0h1v1h-1zm1 0h1v1h-1zm1 0h1v1h-1zm1 0h1v1h-1zm1 0h1v1h-1zm1 0h1v1h-1zm1 0h1v1h-1zm7 0h1v1h-1zm3 0h1v1h-1zm1 0h1v1h-1zm2 0h3v1h-3zm3 0h1v5h-1zm1 0h1v1h-1zm1 0h1v1h-1zm1 0h1v1h-1zm1 0h1v1h-1zm1 0h1v1h-1zm1 0h1v1h-1zm1 0h1v1h-1zm1 0h1v1h-1zm1 0h1v1h-1zm4 0h2v1h-2zm3 0h1v1h-1zm14 0h1v1h-1zm2 0h1v1h-1zm7 0h1v4h-1zm1 0h1v1h-1zm2 0h1v1h-1zm3 0h1v1h-1zm19 0h1v3h-1zM5 40h1v1H5zm3 0h1v1H8z"/><path d="M9 40h2v1H9zm2 0h1v2h-1zm1 0h1v1h-1zm1 0h1v1h-1zm4 0h1v1h-1zm1 0h1v1h-1zm15 0h1v1h-1zm1 0h1v1h-1zm3 0h1v1h-1zm1 0h1v1h-1zm1 0h2v1h-2zm2 0h1v2h-1zm1 0h1v1h-1zm2 0h1v1h-1zm12 0h1v1h-1zm2 0h1v1h-1zm1 0h1v1h-1zm2 0h1v1h-1zm6 0h1v1h-1zm1 0h1v1h-1zm1 0h1v1h-1zm1 0h1v1h-1zm1 0h1v1h-1zm1 0h1v1h-1zm1 0h1v1h-1zm1 0h4v2h-4zm5 0h1v1h-1zm1 0h1v1h-1zm1 0h1v1h-1zm3 0h1v1h-1zm1 0h1v1h-1zm2 0h1v1h-1zm1 0h3v2h-3zm3 0h1v3h-1zm1 0h1v1h-1zm1 0h1v1h-1zm1 0h1v1h-1zm1 0h1v1h-1zm1 0h1v1h-1zm1 0h1v1h-1zm1 0h1v1h-1zm1 0h3v3h-3zm5 0h1v1h-1zm2 0h1v1h-1zm14 0h1v1h-1zm1 0h1v1h-1zm1 0h6v1h-6zm8 0h1v1h-1zm2 0h1v1h-1zm3 0h1v5h-1zM5 41h1v1H5zm2 0h1v1H7zm1 0h2v1H8z"/><path d="M10 41h3v1h-3zm3 0h1v1h-1zm1 0h1v1h-1zm1 0h1v1h-1zm3 0h1v1h-1zm1 0h1v1h-1zm1 0h1v1h-1zm10 0h1v1h-1zm1 0h1v1h-1zm1 0h1v1h-1zm3 0h1v1h-1zm1 0h1v1h-1zm1 0h1v2h-1zm1 0h2v1h-2zm2 0h1v1h-1zm2 0h1v1h-1zm1 0h1v1h-1zm2 0h1v1h-1zm11 0h1v1h-1zm3 0h1v1h-1zm2 0h1v1h-1zm1 0h5v2h-5zm5 0h1v2h-1zm1 0h1v1h-1zm1 0h1v1h-1zm1 0h1v1h-1zm1 0h1v1h-1zm1 0h1v1h-1zm6 0h1v1h-1zm1 0h1v2h-1zm1 0h1v1h-1zm1 0h1v1h-1zm3 0h1v1h-1zm1 0h1v1h-1zm2 0h1v1h-1zm5 0h1v2h-1zm1 0h1v1h-1zm1 0h2v1h-2zm2 0h1v1h-1zm1 0h1v1h-1zm1 0h5v1h-5zm5 0h1v1h-1zm1 0h1v1h-1zm1 0h1v1h-1zm1 0h1v1h-1zm14 0h1v1h-1zm1 0h1v1h-1zm1 0h1v5h-1zm1 0h1v1h-1zm7 0h1v1h-1zm2 0h1v1h-1zM4 42h1v1H4zm3 0h1v1H7zm1 0h1v1H8zm1 0h2v1H9zm2 0h3v1h-3zm3 0h1v1h-1zm1 0h1v1h-1zm1 0h1v1h-1zm1 0h1v1h-1zm4 0h1v1h-1zm1 0h6v1h-6zm6 0h1v1h-1zm1 0h1v1h-1zm4 0h1v1h-1zm1 0h1v1h-1zm1 0h1v1h-1zm1 0h1v2h-1zm2 0h1v1h-1zm1 0h1v1h-1zm1 0h1v1h-1zm1 0h1v1h-1zm1 0h1v1h-1zm1 0h1v1h-1zm2 0h1v1h-1zm12 0h1v1h-1zm2 0h1v1h-1zm2 0h1v1h-1zm7 0h1v1h-1zm1 0h1v1h-1zm1 0h1v1h-1zm1 0h6v1h-6zm6 0h1v1h-1zm1 0h1v1h-1zm2 0h1v1h-1zm1 0h1v1h-1zm2 0h1v1h-1zm2 0h1v1h-1zm2 0h1v1h-1z"/><path d="M88 42h5v1h-5zm5 0h1v1h-1zm1 0h2v1h-2zm2 0h1v1h-1zm1 0h5v1h-5zm5 0h1v1h-1zm1 0h1v1h-1zm1 0h1v2h-1zm1 0h1v1h-1zm1 0h1v1h-1zm14 0h1v1h-1zm1 0h1v1h-1zm2 0h1v1h-1zm1 0h5v1h-5zm6 0h1v1h-1zm2 0h1v1h-1zm5 0h3v1h-3zm17 0h1v2h-1zM5 43h1v1H5zm3 0h1v1H8zm1 0h1v1H9zm1 0h1v1h-1zm1 0h1v1h-1zm1 0h1v1h-1zm2 0h1v2h-1zm1 0h1v2h-1zm1 0h1v1h-1zm1 0h1v1h-1zm1 0h1v1h-1zm1 0h1v1h-1zm1 0h1v1h-1zm10 0h1v1h-1zm1 0h1v1h-1zm1 0h1v1h-1zm1 0h1v1h-1zm1 0h1v1h-1zm1 0h2v1h-2zm2 0h1v2h-1zm1 0h1v1h-1zm1 0h1v1h-1zm1 0h1v1h-1zm1 0h1v1h-1zm1 0h1v1h-1zm2 0h1v1h-1zm13 0h1v1h-1zm2 0h1v1h-1zm1 0h1v1h-1zm1 0h1v1h-1zm1 0h14v1H62zm14 0h1v1h-1zm1 0h2v1h-2zm2 0h1v1h-1zm1 0h1v1h-1zm2 0h1v1h-1zm1 0h1v1h-1zm2 0h1v1h-1zm1 0h2v1h-2zm2 0h1v2h-1zm1 0h12v1H89zm12 0h1v1h-1zm1 0h2v2h-2zm3 0h1v1h-1zm2 0h1v1h-1zm5 0h1v2h-1zm2 0h1v2h-1zm2 0h1v2h-1zm3 0h1v1h-1zm2 0h1v1h-1zm2 0h1v2h-1zm3 0h3v1h-3zm3 0h1v1h-1zm2 0h1v1h-1zm1 0h1v1h-1zm5 0h3v1h-3zm4 0h1v2h-1zm2 0h1v2h-1zm7 0h2v1h-2zm2 0h1v1h-1z"/><path d="M153 43h2v1h-2zM6 44h1v1H6zm1 0h1v1H7zm2 0h1v1H9zm1 0h1v1h-1zm1 0h1v1h-1zm1 0h1v1h-1zm1 0h1v1h-1zm3 0h2v1h-2zm2 0h1v1h-1zm1 0h1v1h-1zm1 0h1v1h-1zm1 0h1v1h-1zm1 0h1v1h-1zm1 0h1v1h-1zm1 0h1v1h-1zm1 0h1v1h-1zm1 0h1v1h-1zm1 0h1v1h-1zm1 0h1v1h-1zm1 0h1v1h-1zm1 0h1v1h-1zm1 0h3v1h-3zm3 0h2v1h-2zm2 0h3v1h-3zm3 0h1v1h-1zm1 0h1v1h-1zm3 0h1v1h-1zm14 0h1v1h-1zm3 0h1v1h-1zm1 0h1v1h-1zm1 0h1v1h-1zm1 0h1v1h-1zm1 0h1v1h-1zm2 0h3v2h-3zm3 0h2v2h-2zm2 0h1v2h-1zm4 0h1v1h-1zm1 0h1v1h-1zm1 0h1v1h-1zm1 0h1v1h-1zm1 0h1v1h-1zm1 0h1v1h-1zm2 0h1v1h-1zm1 0h1v1h-1zm2 0h1v1h-1zm1 0h1v1h-1zm1 0h1v1h-1zm2 0h1v1h-1zm1 0h1v1h-1zm5 0h3v2h-3zm3 0h1v2h-1zm2 0h1v1h-1zm1 0h1v1h-1zm3 0h1v1h-1zm1 0h1v1h-1zm2 0h1v1h-1zm3 0h1v1h-1zm3 0h1v1h-1zm6 0h1v1h-1zm2 0h1v1h-1zm3 0h3v1h-3zm3 0h1v1h-1zm2 0h1v1h-1zm1 0h1v2h-1zm1 0h1v1h-1zm1 0h1v1h-1zm5 0h1v1h-1zm1 0h1v1h-1zm2 0h1v1h-1zm9 0h1v1h-1zm1 0h1v1h-1zm2 0h1v1h-1zm1 0h1v1h-1zm1 0h1v1h-1zM8 45h1v1H8zm3 0h1v1h-1zm1 0h1v1h-1zm1 0h2v1h-2zm2 0h1v1h-1zm1 0h1v1h-1zm1 0h1v1h-1zm1 0h1v1h-1zm1 0h12v1H19zm12 0h1v1h-1zm1 0h1v1h-1zm1 0h1v1h-1zm1 0h1v1h-1zm1 0h2v1h-2zm2 0h1v1h-1zm1 0h1v1h-1zm1 0h1v1h-1zm3 0h1v1h-1zm16 0h1v1h-1zm2 0h1v1h-1zm1 0h1v1h-1zm1 0h1v1h-1zm1 0h1v1h-1zm1 0h1v1h-1z"/><path d="M65 45h9v1h-9zm9 0h1v1h-1zm1 0h1v1h-1zm1 0h1v1h-1zm1 0h1v1h-1zm1 0h1v1h-1zm1 0h1v1h-1zm2 0h1v1h-1zm3 0h1v1h-1zm2 0h1v1h-1zm1 0h1v1h-1zm1 0h1v1h-1zm1 0h1v1h-1zm1 0h1v1h-1zm1 0h8v1h-8zm8 0h1v1h-1zm1 0h1v1h-1zm1 0h2v1h-2zm2 0h1v1h-1zm1 0h1v1h-1zm2 0h1v1h-1zm1 0h1v1h-1zm2 0h1v1h-1zm1 0h1v1h-1zm2 0h1v1h-1zm2 0h1v1h-1zm2 0h1v1h-1zm1 0h1v1h-1zm2 0h1v1h-1zm2 0h1v1h-1zm2 0h1v1h-1zm1 0h2v1h-2zm2 0h1v1h-1zm3 0h1v1h-1zm2 0h1v1h-1zm1 0h1v1h-1zm3 0h1v1h-1zm5 0h2v1h-2zm3 0h1v1h-1zm4 0h1v1h-1zm2 0h1v1h-1zm4 0h2v1h-2zm3 0h1v1h-1zM9 46h1v1H9zm3 0h1v1h-1zm1 0h1v1h-1zm1 0h1v1h-1zm1 0h1v1h-1zm3 0h1v1h-1zm1 0h1v1h-1zm1 0h1v1h-1zm1 0h1v2h-1zm1 0h1v1h-1zm1 0h1v1h-1zm1 0h2v1h-2zm2 0h1v1h-1zm1 0h2v1h-2zm2 0h1v1h-1zm1 0h1v1h-1zm1 0h1v1h-1zm1 0h1v1h-1zm2 0h1v1h-1zm1 0h1v1h-1zm1 0h1v1h-1zm1 0h1v1h-1zm1 0h1v1h-1zm2 0h1v1h-1zm1 0h1v1h-1zm18 0h1v1h-1zm2 0h1v1h-1zm1 0h1v1h-1zm1 0h1v1h-1zm1 0h11v1H64zm11 0h1v1h-1zm1 0h1v1h-1zm1 0h1v1h-1zm1 0h1v1h-1zm2 0h1v1h-1zm5 0h1v1h-1zm2 0h1v1h-1zm1 0h1v1h-1zm1 0h1v1h-1zm1 0h11v1H90zm11 0h1v1h-1zm1 0h1v1h-1zm1 0h1v1h-1zm2 0h1v1h-1zm2 0h1v1h-1zm2 0h1v1h-1zm1 0h1v1h-1zm1 0h4v1h-4zm4 0h1v1h-1zm1 0h1v1h-1zm1 0h1v1h-1zm2 0h1v1h-1zm2 0h1v1h-1zm1 0h8v1h-8zm8 0h1v1h-1zm1 0h1v1h-1zm2 0h1v1h-1zm2 0h1v1h-1zm1 0h6v1h-6zm6 0h1v1h-1zm1 0h1v1h-1zm1 0h1v1h-1zm1 0h1v1h-1zm2 0h1v1h-1zm1 0h7v1h-7zm7 0h1v1h-1zm1 0h1v1h-1zM10 47h1v1h-1zm1 0h1v1h-1zm2 0h1v1h-1zm1 0h1v1h-1zm1 0h1v1h-1zm2 0h1v1h-1zm3 0h1v1h-1zm2 0h1v1h-1zm1 0h3v1h-3zm3 0h1v1h-1zm1 0h1v1h-1zm1 0h1v1h-1zm1 0h1v1h-1zm1 0h1v1h-1zm3 0h1v1h-1zm2 0h1v1h-1zm1 0h1v1h-1zm3 0h1v1h-1zm21 0h1v1h-1zm3 0h1v1h-1zm1 0h1v1h-1zm1 0h1v1h-1zm1 0h1v1h-1zm1 0h1v1h-1zm1 0h3v1h-3zm3 0h1v1h-1zm1 0h1v1h-1zm1 0h1v1h-1zm1 0h1v1h-1zm1 0h1v1h-1zm1 0h1v1h-1zm3 0h1v1h-1zm7 0h1v1h-1zm3 0h1v1h-1zm1 0h1v1h-1zm1 0h1v1h-1zm1 0h1v1h-1zm1 0h1v1h-1zm1 0h2v1h-2zm2 0h2v1h-2zm2 0h1v1h-1zm1 0h1v1h-1zm2 0h1v1h-1zm3 0h1v1h-1zm5 0h1v1h-1zm1 0h1v1h-1zm1 0h1v1h-1zm1 0h2v1h-2zm2 0h1v1h-1zm1 0h1v1h-1zm1 0h1v1h-1zm1 0h1v1h-1zm2 0h1v1h-1zm2 0h1v1h-1zm1 0h1v1h-1zm1 0h1v1h-1zm1 0h5v1h-5zm5 0h1v1h-1zm1 0h1v1h-1zm1 0h1v1h-1zm2 0h1v1h-1zm2 0h1v1h-1zm1 0h1v1h-1zm1 0h4v1h-4zm4 0h1v1h-1zm1 0h1v1h-1zm1 0h1v1h-1zm1 0h1v1h-1zm3 0h1v1h-1zm1 0h1v1h-1zm1 0h5v1h-5zm5 0h1v1h-1zm1 0h1v1h-1zm1 0h1v1h-1zM12 48h1v1h-1zm4 0h1v1h-1zm2 0h1v1h-1zm2 0h1v1h-1zm1 0h8v1h-8zm8 0h1v1h-1zm1 0h1v1h-1zm2 0h1v1h-1zm2 0h1v1h-1zm4 0h1v1h-1zm23 0h1v1h-1zm1 0h1v1h-1zm15 0h1v1h-1zm1 0h1v1h-1zm9 0h1v1h-1zm1 0h1v1h-1zm14 0h1v1h-1zm1 0h1v1h-1zm17 0h1v1h-1zm12 0h2v1h-2zm2 0h1v1h-1zm12 0h1v1h-1zM13 49h1v1h-1zm1 0h1v1h-1zm1 0h1v1h-1zm3 0h1v1h-1zm2 0h1v1h-1zm1 0h1v1h-1zm1 0h1v1h-1zm1 0h3v1h-3zm3 0h1v1h-1zm1 0h1v1h-1zm1 0h1v1h-1zm1 0h1v1h-1zm1 0h1v1h-1zm2 0h1v1h-1zm3 0h1v1h-1zm1 0h1v1h-1zm1 0h1v1h-1zm26 0h1v1h-1zm1 0h11v1H64zm11 0h1v1h-1zm1 0h1v1h-1zm13 0h1v1h-1zm1 0h10v1H90zm10 0h1v1h-1zm1 0h1v1h-1zm1 0h1v1h-1zm8 0h6v1h-6zm6 0h1v1h-1zm5 0h1v1h-1zm1 0h8v1h-8zm8 0h1v1h-1zm1 0h1v1h-1zm4 0h1v1h-1zm1 0h7v1h-7zm7 0h1v1h-1zm4 0h1v1h-1zm1 0h7v1h-7zm7 0h1v1h-1zm1 0h1v1h-1z"/></g><path d="M130 3h1v1h-1zM63 4h1v1h-1zm10 1h1v1h-1zm1 0h1v1h-1zm23 0h1v1h-1zm1 0h1v1h-1zm14 1h1v1h-1zm41 0h1v1h-1zM38 7h1v1h-1zm24 0h1v1h-1zm5 0h1v1h-1zm1 0h1v1h-1zm8 0h1v1h-1zm36 0h1v2h-1zm9 0h1v1h-1zm32 0h1v3h-1zM39 8h1v1h-1zm27 0h1v1h-1zm7 0h1v1h-1zm3 0h1v1h-1zm28 0h1v1h-1zm8 1h1v1h-1zm-47 1h1v1h-1zm35 0h1v1h-1zm53 0h1v1h-1zm-78 1h1v1h-1zm1 0h1v1h-1zm24 0h1v2h-1zm36 0h1v1h-1zm1 0h1v1h-1zm-62 1h1v1h-1zm15 0h1v1h-1zm46 0h1v1h-1zm1 0h1v1h-1zM28 13h1v1h-1zm62 0h1v3h-1zm10 0h1v1h-1zm3 0h1v1h-1zm9 0h1v3h-1zm41 0h1v3h-1zM28 15h1v1h-1zm94 0h1v1h-1zm-32 1h1v1h-1zm22 0h1v3h-1zm41 0h1v11h-1zM6 17h1v1H6zm25 0h1v1h-1zm44 0h1v1h-1zm1 0h1v1h-1zm46 0h1v2h-1zm-47 1h1v1h-1zm12 0h1v1h-1zm32 0h1v1h-1zm-7 1h1v3h-1zm10 0h1v1h-1zm10 0h1v1h-1zm6 0h1v1h-1zm-6 1h1v1h-1zm-44 1h1v1h-1zm-43 1h1v1h-1zm67 0h1v1h-1zm-21 1h1v1h-1zm6 0h1v1h-1zm4 0h1v1h-1zm29 0h1v1h-1zm8 0h1v1h-1zm-8 1h1v1h-1zm-18 1h1v2h-1zm11 1h1v2h-1zm14 0h1v1h-1zM18 27h1v1h-1zm10 0h1v1h-1zm68 0h1v1h-1zm6 0h1v1h-1zm10 0h1v5h-1zm41 0h1v5h-1zm-33 1h1v1h-1zm3 0h1v1h-1zm-20 2h1v1h-1zm24 0h1v3h-1zM21 31h1v1h-1zm-1 1h1v1h-1zm13 0h1v1h-1zm79 0h1v3h-1zm12 0h1v1h-1zm29 0h1v3h-1zM19 33h1v1h-1zm14 0h1v1h-1zm91 0h1v1h-1zM18 34h1v1h-1zm16 0h1v1h-1zm-20 1h1v1h-1zm98 0h1v7h-1zm41 0h1v7h-1zm-30 1h1v1h-1zm1 0h1v1h-1zm-1 1h1v1h-1zm-20 3h1v1h-1zm-30 1h1v1h-1zm39 1h1v1h-1zm41 0h1v1h-1zM13 43h1v1h-1zm111 0h1v1h-1zm6 0h1v1h-1zm-65 1h1v1h-1zm7 0h2v1h-2zm2 0h1v1h-1zm17 0h1v1h-1zm1 0h2v1h-2zm2 0h1v1h-1zm5 0h1v1h-1zm29 0h1v1h-1zm11 0h1v1h-1zm12 0h1v1h-1zm-38 1h1v1h-1zm14 0h1v1h-1zm1 0h1v1h-1zm9 0h2v1h-2zm2 0h1v1h-1zm11 0h2v1h-2zm2 0h1v1h-1z" fill="#fefefe"/></svg>