<svg xmlns="http://www.w3.org/2000/svg" role="img" viewBox="2.83 1.83 944.84 252.84"><title>OpenKruise logo</title><path d="M191 54h1v1h-1zm-28 91h1v1h-1zm-36 21h1v1h-1z" fill="#838282"/><path fill="#b7b7b7" d="M163 79h1v1h-1z"/><path d="M112 94h1v1h-1zm-8 5h1v1h-1zm-34 24h1v1h-1zm21 2h1v1h-1zm131 5h1v1h-1zm-55 7h1v1h-1zm52 2h1v1h-1zm-157 4h1v1h-1zm128 47h1v1h-1zM76 202h1v1h-1zm53 25h1v1h-1z" fill="#747373"/><path d="M170 129h1v1h-1zm-4 12h1v1h-1zm-3 6h1v1h-1zm-5 8h50v1h-50zm50 0h1v1h-1zm-51 1h51v1h-51zm51 0h1v1h-1z" fill="#a3a4a4"/><path d="M170 97h1v1h-1zm-1 38h50v1h-50zm50 0h1v1h-1zm-50 1h50v1h-50zm50 0h1v1h-1z" fill="#acadad"/><path fill="#747273" d="M224 118h1v1h-1z"/><path d="M153 158h1v1h-1zm-13 7h1v1h-1zm48 8h1v1h-1zm-4 2h1v1h-1zm-35 6h1v1h-1z" fill="#929393"/><path d="M122 173h1v1h-1zm4 2h1v1h-1zm11 4h1v1h-1z" fill="#8c8d8d"/><path d="M137 47h1v1h-1zm11 13h50v1h-50zm50 0h1v1h-1zm-49 1h50v1h-50zm50 0h1v1h-1z" fill="#cececf"/><path fill="#7d7b7c" d="M130 50h1v1h-1z"/><path d="M188 52h1v1h-1zm-84 42h1v1h-1zm-27 19h1v1h-1zm58 114h1v1h-1z" fill="#676565"/><path d="M201 62h1v1h-1zm-41 12h1v1h-1zm10 19h50v1h-50zm50 0h1v1h-1zm-50 1h50v1h-50zm50 0h1v1h-1z" fill="#bfbfc0"/><path fill="#9a9a9b" d="M221 132h1v1h-1z"/><path fill="#939393" d="M167 138h1v1h-1z"/><path d="M167 139h51v1h-51zm51 0h1v1h-1zm-51 1h50v1h-50zm50 0h1v1h-1z" fill="#aaabab"/><path d="M149 161h1v1h-1zm-30 10h1v1h-1z" fill="#959696"/><path d="M162 76h50v1h-50zm50 0h1v1h-1z" fill="#c7c7c8"/><path d="M172 104h50v1h-50zm50 0h1v1h-1z" fill="#babbbb"/><path d="M223 124h1v1h-1zM96 147h1v1h-1zm9 13h1v1h-1zm1 1h1v1h-1zm1 1h1v1h-1zm35 2h1v1h-1zm59 0h1v1h-1zm-66 2h1v1h-1z" fill="#8c8c8c"/><path fill="#7c7b7c" d="M170 127h1v1h-1z"/><g fill="#9fa0a0"><path d="M146 163h1v2h-1zm-35 1h2v1h-2zm2 0h1v1h-1z"/><path d="M144 164h56v1h-56zm56 0h1v1h-1zm-88 1h4v1h-4zm4 0h1v1h-1zm21 0h1v1h-1zm5 0h57v1h-57zm57 0h1v1h-1z"/></g><path d="M178 207h1v1h-1zm-31 18h1v1h-1z" fill="#616060"/><path fill="#a5a4a5" d="M185 51h1v1h-1z"/><path d="M98 150h1v1h-1zm1 2h1v1h-1z" fill="#8b8a8b"/><path d="M170 132h50v1h-50zm50 0h1v1h-1z" fill="#aeaeaf"/><path d="M128 166h1v1h-1zm9 0h1v1h-1zm54 5h1v1h-1zm-70 1h1v1h-1zm6 3h56v1h-56zm56 0h1v1h-1zm-53 1h51v1h-51zm51 0h1v1h-1z" fill="#9a9b9b"/><path d="M159 44h1v1h-1zm7 95h1v1h-1zm-42 88h1v1h-1z" fill="#6a6868"/><path d="M138 54h1v1h-1zm76 23h1v1h-1zM71 122h1v1h-1zm117 71h1v1h-1z" fill="#848383"/><path fill="#949394" d="M170 98h1v1h-1z"/><path d="M91 121h1v1h-1zm-24 8h1v1h-1zm24 5h1v1h-1z" fill="#7d7d7d"/><path d="M170 131h50v1h-50zm50 0h1v1h-1z" fill="#aeafaf"/><path fill="#5d5c5c" d="M60 163h1v1h-1z"/><path d="M182 49h1v1h-1zm-69 42h1v1h-1zm-48 41h1v1h-1zm125 59h1v1h-1zm-10 14h1v1h-1zm-101 1h1v1h-1zm2 2h1v1h-1zm1 1h1v1h-1zm88 5h1v1h-1z" fill="#5e5c5c"/><path d="M153 66h1v1h-1zm70 35h1v1h-1zm1 12h1v1h-1zm0 1h1v1h-1zm-67 68h1v1h-1z" fill="#888787"/><path d="M102 95h1v1h-1zm5 2h1v1h-1zm-11 12h1v1h-1zm98 72h1v1h-1zm-26 34h1v1h-1z" fill="#6f6e6e"/><path d="M171 97h50v1h-50zm50 0h1v1h-1z" fill="#bdbebe"/><path d="M153 44h1v1h-1zm4 0h1v1h-1zm-12 15h1v1h-1zM94 99h1v1h-1zm-6 4h1v1h-1zm83 4h1v1h-1zM69 192h1v1h-1zm96 25h1v1h-1zm-53 8h1v1h-1zm13 2h1v1h-1zm8 0h1v1h-1z" fill="#6d6c6c"/><path d="M114 92h1v1h-1zm-8 2h1v1h-1zm-7 3h1v1h-1zm-2 1h1v1h-1zm7 0h1v1h-1zm-15 5h1v1h-1zm10 0h1v1h-1zm-15 4h1v1h-1zm-6 6h1v1h-1zm15 0h1v1h-1zm-23 11h1v1h-1zm-4 8h1v1h-1zm98 12h1v1h-1zm-102 1h1v1h-1zm-1 7h1v1h-1zm44 6h1v1h-1zm102 0h1v1h-1zm-94 5h1v1h-1zm21 3h1v1h-1zm-16 5h1v1h-1zm73 1h1v1h-1zm-68 2h1v1h-1zm4 2h1v1h-1zm68 0h1v1h-1zm-15 1h1v1h-1zm1 0h1v1h-1zm-49 1h1v1h-1zm3 1h1v1h-1zm39 0h1v1h-1zm-4 1h1v1h-1zm-6 1h1v1h-1zm3 0h1v1h-1zm-102 1h1v1h-1zm88 0h1v1h-1zm5 0h1v1h-1zm32 7h1v1h-1zm-7 11h1v1h-1zm-96 12h1v1h-1zm80 3h1v1h-1zm-71 3h1v1h-1zm66 0h1v1h-1zm-6 3h1v1h-1z" fill="#888"/><path d="M107 96h1v1h-1zm-10 10h1v1h-1zm-24 13h1v1h-1zm18 1h1v1h-1zm-27 17h1v1h-1zm-3 14h1v1h-1zm58 14h1v1h-1zm5 1h1v1h-1zm-62 6h1v1h-1zm122 27h1v1h-1zm-5 6h1v1h-1zm-98 2h1v1h-1zm95 1h1v1h-1zm-88 5h1v1h-1zm60 11h1v1h-1zm-34 1h1v1h-1z" fill="#848484"/><path fill="#8c8c8d" d="M100 154h1v1h-1z"/><path d="M109 93h1v1h-1zm1 1h1v1h-1zm-9 2h1v1h-1zm-6 13h1v1h-1zm-4 27h1v1h-1zm75 4h1v1h-1zm-69 9h1v1h-1zm26 17h1v1h-1zm9 0h1v1h-1zm55 8h1v1h-1zm-2 1h1v1h-1zm-2 1h1v1h-1zm-53 1h1v1h-1zm3 1h1v1h-1zm45 0h1v1h-1zm-3 1h1v1h-1zm-36 1h1v1h-1zm1 0h1v1h-1zm6 1h1v1h-1zm8 1h2v1h-2zm2 0h1v1h-1zm35 5h1v1h-1zm-2 4h1v1h-1zm-114 9h1v1h-1zm16 15h1v1h-1zm11 6h1v1h-1zm36 5h1v1h-1z" fill="#878787"/><path d="M173 115h50v1h-50zm50 0h1v1h-1z" fill="#b5b6b6"/><path d="M223 123h1v1h-1zm-9 25h1v1h-1z" fill="#9a9a9a"/><path d="M189 173h1v1h-1zm-64 2h1v1h-1z" fill="#878888"/><path d="M181 49h1v1h-1zm-23 23h1v1h-1z" fill="#898889"/><path d="M188 53h1v1h-1zm-38 9h50v1h-50zm50 0h1v1h-1zm-49 1h50v1h-50zm50 0h1v1h-1z" fill="#cdcdce"/><path fill="#666465" d="M211 72h1v1h-1z"/><path fill="#a8a7a8" d="M159 73h1v1h-1z"/><path d="M186 174h1v1h-1zm-25 7h1v1h-1z" fill="#959595"/><path d="M144 45h1v1h-1zm34 3h1v1h-1z" fill="#979697"/><path d="M148 45h14v1h-14zm14 0h1v1h-1z" fill="#d5d5d6"/><path d="M216 80h1v1h-1zm2 4h1v1h-1zm-108 8h1v1h-1zm-39 29h1v1h-1zm94 20h1v1h-1z" fill="#686666"/><path fill="#8e8f8f" d="M115 164h1v1h-1z"/><path d="M148 161h1v1h-1zm-17 16h1v1h-1zm31 4h1v1h-1z" fill="#8f9090"/><path fill="#939292" d="M175 47h1v1h-1z"/><path d="M172 111h1v1h-1zm0 6h51v1h-51zm51 0h1v1h-1z" fill="#b4b5b5"/><path d="M171 125h1v2h-1zm0 2h50v1h-50zm50 0h1v1h-1z" fill="#b0b0b1"/><path d="M104 157h1v1h-1zm40 68h1v1h-1z" fill="#858484"/><path d="M92 138h1v1h-1zm123 9h1v1h-1z" fill="#7b7b7b"/><path d="M149 44h1v1h-1zm12 0h1v1h-1zm54 34h1v1h-1zm-46 18h1v1h-1zm54 3h1v1h-1zM76 114h1v1h-1zm141 30h1v1h-1zm-156 2h1v1h-1zm-1 16h1v1h-1zm117 46h1v1h-1zm-10 8h1v1h-1zm-5 3h1v1h-1zm-64 1h1v1h-1zm60 1h1v1h-1z" fill="#615f5f"/><path d="M172 46h1v1h-1zm-1 59h1v1h-1zm-76 41h1v1h-1zm-17 58h1v1h-1z" fill="#807f7f"/><path d="M206 67h1v1h-1zm8 11h1v1h-1zm-47 9h1v1h-1zm3 9h51v1h-51zm51 0h1v1h-1z" fill="#bebebf"/><path d="M172 103h50v1h-50zm50 0h1v1h-1z" fill="#bbbbbc"/><path d="M180 49h1v1h-1zm-7 63h50v1h-50zm50 0h1v1h-1z" fill="#b7b7b8"/><path d="M171 128h50v1h-50zm50 0h1v1h-1zm-50 1h50v1h-50zm50 0h1v1h-1z" fill="#afb0b0"/><path d="M166 143h50v1h-50zm50 0h1v1h-1z" fill="#a9a9aa"/><path d="M218 140h1v1h-1zm-3 6h1v1h-1zm-58 9h1v1h-1zm-1 1h1v1h-1zm0 1h51v1h-51zm51 0h1v1h-1zm-55 1h1v1h-1zm2 0h52v1h-52zm52 0h1v1h-1z" fill="#a2a3a3"/><path d="M99 153h1v1h-1zm4 5h1v1h-1zm6 6h1v1h-1zm29 16h1v1h-1z" fill="#898a8a"/><path d="M142 45h1v1h-1zm60 17h1v1h-1zm15 20h1v1h-1zm-19 85h1v1h-1z" fill="#6c6a6a"/><path fill="#acabac" d="M145 45h1v1h-1z"/><path fill="#6a6869" d="M186 51h1v1h-1z"/><path d="M172 107h51v1h-51zm51 0h1v1h-1z" fill="#b9b9ba"/><path d="M92 118h1v1h-1zm71 100h1v1h-1z" fill="#757575"/><path fill="#636262" d="M62 175h1v1h-1z"/><path d="M152 44h1v1h-1zm-30 46h1v1h-1zm102 29h1v1h-1z" fill="#6c6b6b"/><path fill="#b4b4b4" d="M133 48h1v1h-1z"/><path d="M141 56h1v1h-1zm-25 36h1v1h-1zm-11 6h1v1h-1zm-6 6h1v1h-1zm-8 22h1v1h-1zm0 5h1v1h-1zm-18 67h1v1h-1zm109 4h1v1h-1zm-97 9h1v1h-1zm67 12h1v1h-1z" fill="#777676"/><path fill="#787676" d="M164 82h1v1h-1z"/><path fill="#b8b8b8" d="M174 47h1v1h-1z"/><path d="M123 173h64v1h-64zm64 0h1v1h-1zm-62 1h60v1h-60zm60 0h1v1h-1z" fill="#9b9c9c"/><path fill="#8b8c8c" d="M163 181h1v1h-1z"/><path d="M134 51h49v1h-49zm49 0h1v1h-1zm-47 1h49v1h-49zm49 0h1v1h-1z" fill="#d2d2d3"/><path d="M159 154h50v1h-50zm50 0h1v1h-1z" fill="#a4a4a5"/><path fill="#a1a1a2" d="M165 143h1v1h-1z"/><path d="M107 161h1v1h-1zm1 0h1v1h-1zm42 0h53v1h-53zm53 0h1v1h-1zm-95 1h1v1h-1zm1 0h1v1h-1zm39 0h54v1h-54zm54 0h1v1h-1zm-93 1h2v1h-2zm2 0h1v1h-1zm36 0h54v1h-54zm54 0h1v1h-1z" fill="#a0a1a1"/><path fill="#c1c2c2" d="M162 77h1v1h-1z"/><path d="M164 80h50v1h-50zm50 0h1v1h-1zm-49 1h50v1h-50zm50 0h1v1h-1z" fill="#c5c5c6"/><path fill="#a7a7a7" d="M223 122h1v1h-1z"/><path d="M168 137h51v1h-51zm51 0h1v1h-1zm-51 1h50v1h-50zm50 0h1v1h-1z" fill="#abacac"/><path d="M171 98h50v1h-50zm50 0h1v1h-1z" fill="#bdbdbe"/><path fill="#787878" d="M91 132h1v1h-1z"/><path d="M148 44h1v1h-1zm14 0h1v1h-1zm-25 2h1v1h-1zm10 15h1v1h-1zm-38 31h1v1h-1zm61 9h1v1h-1zm54 20h1v1h-1zm-154 1h1v1h-1zm100 3h1v1h-1zm-2 8h1v1h-1zm51 7h1v1h-1zm-12 19h1v1h-1zm-11 17h1v1h-1zM66 187h1v1h-1zm123 6h1v1h-1zm-116 6h1v1h-1zm4 5h1v1h-1zm97 7h1v1h-1z" fill="#5b5959"/><path d="M118 91h1v1h-1zm-3 1h1v1h-1zm-47 35h1v1h-1zm27 18h1v1h-1zm-34 5h1v1h-1zm120 53h1v1h-1z" fill="#7e7d7d"/><path d="M113 93h1v1h-1zm-22 29h1v1h-1zm94 76h1v1h-1zm-24 21h1v1h-1zm-16 6h1v1h-1z" fill="#7a7979"/><path d="M109 95h1v1h-1zm-11 10h1v1h-1zm-6 12h1v1h-1zm104 56h1v1h-1zM84 210h1v1h-1z" fill="#7c7c7c"/><path d="M119 91h1v1h-1zm105 17h1v1h-1zM72 120h1v1h-1zm19 10h1v1h-1zm-25 1h1v1h-1zm-5 18h1v1h-1zm138 17h1v1h-1zM97 219h1v1h-1z" fill="#787777"/><path d="M111 92h1v1h-1zm3 1h1v1h-1zm-14 3h1v1h-1zm8 0h1v1h-1zm115 4h1v1h-1zM64 136h1v1h-1zm127 52h1v1h-1zm-90 33h1v1h-1zm8 3h1v1h-1z" fill="#757474"/><path d="M171 108h1v1h-1zM63 138h1v1h-1zm-3 22h1v1h-1zm27 53h1v1h-1zm18 10h1v1h-1z" fill="#646363"/><path d="M168 136h1v1h-1zm-4 10h50v1h-50zm50 0h1v1h-1zm-50 1h50v1h-50zm50 0h1v1h-1z" fill="#a7a8a8"/><g fill="#595757"><path d="M114 20h1v1h-1zm1 0h1v1h-1zm1 0h1v1h-1zm1 0h1v1h-1zm1 0h1v1h-1zm1 0h1v1h-1zm1 0h1v1h-1zm1 0h1v1h-1zm1 0h1v1h-1zm1 0h1v1h-1zm1 0h1v1h-1zm1 0h1v1h-1zm1 0h1v1h-1zm1 0h4v28h-4zm4 0h1v27h-1zm1 0h1v1h-1zm1 0h1v1h-1zm1 0h1v1h-1zm1 0h1v1h-1zm1 0h1v1h-1zm1 0h1v1h-1zm1 0h1v1h-1zm1 0h1v1h-1zm1 0h1v1h-1zm1 0h1v1h-1zm1 0h1v1h-1zm1 0h1v1h-1zm1 0h1v1h-1zm-36 1h1v1h-1zm1 0h1v1h-1zm1 0h1v1h-1zm1 0h1v1h-1zm1 0h1v1h-1zm1 0h1v1h-1zm1 0h1v1h-1z"/><path d="M115 21h28v23h-28zm28 0h1v23h-1zm1 0h1v1h-1zm1 0h1v1h-1zm1 0h1v1h-1zm1 0h1v1h-1zm1 0h1v1h-1zm1 0h1v1h-1zm1 0h1v1h-1zm-46 1h1v1h-1zm1 0h1v1h-1zm1 0h1v1h-1zm1 0h1v1h-1zm1 0h1v1h-1z"/><path d="M109 22h40v21h-40zm40 0h1v21h-1zm1 0h1v1h-1zm1 0h1v1h-1zm1 0h1v1h-1zm1 0h1v1h-1zm1 0h1v1h-1zm-54 1h1v1h-1zm1 0h1v1h-1zm1 0h1v1h-1zm1 0h1v1h-1z"/><path d="M104 23h50v20h-50zm50 0h1v20h-1zm1 0h1v1h-1zm1 0h1v1h-1zm1 0h1v1h-1zm1 0h1v1h-1zm-62 1h1v1h-1zm1 0h1v1h-1zm1 0h1v1h-1zm1 0h1v1h-1z"/><path d="M100 24h58v19h-58zm58 0h1v19h-1zm1 0h1v1h-1zm1 0h1v1h-1zm1 0h1v1h-1zm1 0h1v1h-1zm-69 1h1v1h-1zm1 0h1v1h-1zm1 0h1v1h-1zm1 0h1v1h-1z"/><path d="M97 25h64v18H97zm64 0h1v18h-1zm1 0h1v1h-1zm1 0h1v1h-1zm1 0h1v1h-1zm1 0h1v1h-1zm-74 1h1v1h-1zm1 0h1v1h-1zm1 0h1v1h-1z"/><path d="M94 26h70v17H94zm70 0h1v18h-1zm1 0h1v1h-1zm1 0h1v1h-1zm1 0h1v1h-1zm-79 1h1v1h-1zm1 0h1v1h-1zm1 0h1v1h-1z"/><path d="M91 27h76v16H91zm76 0h1v17h-1zm1 0h1v1h-1zm1 0h1v1h-1zm1 0h1v1h-1zm-84 1h1v1h-1zm1 0h1v1h-1zm1 0h1v1h-1z"/><path d="M89 28h80v15H89zm80 0h1v16h-1zm1 0h1v1h-1zm1 0h1v1h-1zm1 0h1v1h-1zm-88 1h1v1h-1zm1 0h1v1h-1z"/><path d="M86 29h86v14H86zm86 0h1v16h-1zm1 0h1v1h-1zm1 0h1v1h-1zm-93 1h1v1h-1zm1 0h1v1h-1zm1 0h1v1h-1z"/><path d="M84 30h90v13H84zm90 0h1v16h-1zm1 0h1v1h-1zm1 0h1v1h-1zm1 0h1v1h-1zm-98 1h1v1h-1zm1 0h1v1h-1zm1 0h1v1h-1z"/><path d="M82 31h94v12H82zm94 0h1v15h-1zm1 0h1v1h-1zm1 0h1v1h-1zm1 0h1v1h-1zM77 32h1v1h-1zm1 0h1v1h-1zm1 0h1v1h-1z"/><path d="M80 32h98v11H80zm98 0h1v15h-1zm1 0h1v1h-1zm1 0h1v1h-1zm1 0h1v1h-1zM76 33h1v1h-1zm1 0h1v1h-1z"/><path d="M78 33h102v10H78zm102 0h1v15h-1zm1 0h1v1h-1zm1 0h1v1h-1zM74 34h1v1h-1zm1 0h1v1h-1z"/><path d="M76 34h106v9H76zm106 0h1v14h-1zm1 0h1v1h-1zm1 0h1v1h-1zM72 35h1v1h-1zm1 0h1v1h-1zm1 0h1v1h-1z"/><path d="M75 35h108v8H75zm108 0h1v14h-1zm1 0h1v1h-1zm1 0h1v1h-1zm1 0h1v1h-1zM71 36h1v1h-1zm1 0h1v1h-1z"/><path d="M73 36h112v7H73zm112 0h1v14h-1zm1 0h1v1h-1zm1 0h1v1h-1zM69 37h1v1h-1zm1 0h1v1h-1zm1 0h1v1h-1z"/><path d="M72 37h114v6H72zm114 0h1v13h-1zm1 0h1v1h-1zm1 0h1v1h-1zm1 0h1v1h-1zM68 38h1v1h-1zm1 0h1v1h-1z"/><path d="M70 38h118v5H70zm118 0h1v13h-1zm1 0h1v1h-1zm1 0h1v1h-1zM66 39h1v1h-1zm1 0h1v1h-1z"/><path d="M68 39h122v4H68zm122 0h1v13h-1zm1 0h1v1h-1zm1 0h1v1h-1zM65 40h1v1h-1zm1 0h1v1h-1z"/><path d="M67 40h124v3H67zm124 0h1v13h-1zm1 0h1v1h-1zm1 0h1v1h-1zM64 41h1v1h-1zm1 0h1v1h-1z"/><path d="M66 41h126v2H66zm126 0h1v13h-1zm1 0h1v1h-1zm1 0h1v1h-1zM62 42h1v1h-1zm1 0h1v1h-1z"/><path d="M64 42h130v1H64zm130 0h1v13h-1zm1 0h1v1h-1zm1 0h1v1h-1zM61 43h1v1h-1zm1 0h1v1h-1z"/><path d="M63 43h132v1H63zm132 0h1v13h-1zm1 0h1v1h-1zm1 0h1v1h-1zM60 44h1v1h-1zm1 0h1v1h-1zm1 0h85v1H62zm85 0h1v1h-1z"/><path d="M163 44h33v1h-33zm33 0h1v12h-1zm1 0h1v1h-1zm1 0h1v1h-1zM59 45h1v1h-1zm1 0h1v1h-1zm1 0h80v1H61zm80 0h1v1h-1z"/><path d="M170 45h27v1h-27zm27 0h1v12h-1zm1 0h1v1h-1zm1 0h1v1h-1zM57 46h1v1h-1zm1 0h1v1h-1zm1 0h77v1H59zm77 0h1v1h-1z"/><path d="M174 46h25v1h-25zm25 0h1v12h-1zm1 0h1v1h-1zm1 0h1v1h-1zM56 47h1v1h-1zm1 0h1v1h-1zm1 0h75v1H58zm75 0h1v1h-1z"/><path d="M177 47h23v1h-23zm23 0h1v12h-1zm1 0h1v1h-1zm1 0h1v1h-1zM55 48h1v1h-1zm1 0h1v1h-1zm1 0h73v41H57zm73 0h1v1h-1z"/><path d="M180 48h21v1h-21zm21 0h1v12h-1zm1 0h1v1h-1zm1 0h1v1h-1zM54 49h1v1h-1zm1 0h1v1h-1zm1 0h72v40H56z"/><path d="M183 49h19v1h-19zm19 0h1v12h-1zm1 0h1v1h-1zm1 0h1v1h-1zM53 50h1v1h-1zm1 0h1v1h-1zm1 0h74v39H55z"/><path d="M185 50h18v1h-18zm18 0h1v12h-1zm1 0h1v1h-1zm1 0h1v1h-1zM52 51h1v1h-1zm1 0h1v1h-1zm1 0h77v38H54zm77 0h1v38h-1z"/><path d="M187 51h17v1h-17zm17 0h1v12h-1zm1 0h1v1h-1zm1 0h1v1h-1zM51 52h1v1h-1zm1 0h1v1h-1zm1 0h80v37H53zm80 0h1v37h-1z"/><path d="M189 52h16v1h-16zm16 0h1v12h-1zm1 0h1v1h-1zm1 0h1v1h-1zM50 53h1v1h-1zm1 0h1v1h-1zm1 0h83v36H52zm83 0h1v36h-1z"/><path d="M191 53h15v1h-15zm15 0h1v12h-1zm1 0h1v1h-1zm1 0h1v1h-1zM49 54h1v1h-1zm1 0h1v1h-1zm1 0h86v35H51zm86 0h1v35h-1z"/><path d="M192 54h15v1h-15zm15 0h1v12h-1zm1 0h1v1h-1zm1 0h1v1h-1zM48 55h1v1h-1zm1 0h1v1h-1zm1 0h88v34H50zm88 0h1v34h-1z"/><path d="M194 55h14v1h-14zm14 0h1v12h-1zm1 0h1v1h-1zm1 0h1v1h-1zM47 56h1v1h-1zm1 0h1v1h-1zm1 0h91v33H49zm91 0h1v34h-1z"/><path d="M195 56h14v1h-14zm14 0h1v12h-1zm1 0h1v1h-1zm1 0h1v1h-1zM47 57h1v1h-1zm1 0h93v32H48zm93 0h1v33h-1z"/><path d="M197 57h13v1h-13zm13 0h1v13h-1zm1 0h1v1h-1zM46 58h1v1h-1zm1 0h96v31H47zm96 0h1v33h-1z"/><path d="M198 58h13v1h-13zm13 0h1v13h-1zm1 0h1v1h-1zM45 59h1v1h-1zm1 0h1v1h-1zm98 0h1v32h-1zm56 0h11v1h-11zm12 0h1v1h-1zm1 0h1v1h-1zM44 60h1v1h-1zm1 0h1v1h-1z"/><path d="M46 60h99v29H46zm99 0h1v32h-1zm56 0h11v1h-11zm11 0h1v12h-1zm1 0h1v1h-1zm1 0h1v1h-1zM43 61h1v1h-1zm1 0h1v1h-1z"/><path d="M45 61h101v28H45zm101 0h1v31h-1zm56 0h11v1h-11zm11 0h1v13h-1zm1 0h1v1h-1zm1 0h1v1h-1zM43 62h1v1h-1z"/><path d="M44 62h104v27H44zm104 0h1v31h-1zm55 0h11v1h-11zm11 0h1v13h-1zm1 0h1v1h-1zM42 63h1v1h-1z"/><path d="M43 63h106v26H43zm106 0h1v31h-1zm55 0h11v1h-11zm11 0h1v14h-1zm1 0h1v1h-1zM41 64h1v1h-1zm1 0h1v1h-1zm108 0h1v30h-1zm55 0h10v1h-10zm11 0h1v1h-1zm1 0h1v1h-1zM40 65h1v1h-1zm1 0h1v1h-1z"/><path d="M42 65h109v24H42zm109 0h1v30h-1zm55 0h10v1h-10zm10 0h1v14h-1zm1 0h1v1h-1zm1 0h1v1h-1zM40 66h1v1h-1z"/><path d="M41 66h111v23H41zm111 0h1v30h-1zm55 0h10v1h-10zm10 0h1v15h-1zm1 0h1v1h-1zM39 67h1v1h-1z"/><path d="M40 67h113v22H40zm113 0h1v30h-1zm55 0h10v1h-10zm10 0h1v16h-1zm1 0h1v1h-1zM38 68h1v1h-1zm1 0h1v1h-1zm115 0h1v29h-1zm55 0h9v1h-9zm10 0h1v1h-1zm1 0h1v1h-1zM38 69h1v1h-1z"/><path d="M39 69h115v20H39zm180 0h1v16h-1zm1 0h1v1h-1zM37 70h1v1h-1zm1 0h1v1h-1zm117 0h1v28h-1zm55 0h9v1h-9zm10 0h1v1h-1zm1 0h1v1h-1zM36 71h1v1h-1zm1 0h1v1h-1z"/><path d="M38 71h118v18H38zm118 0h1v28h-1zm55 0h9v1h-9zm9 0h1v17h-1zm1 0h1v1h-1zm1 0h1v1h-1zM36 72h1v1h-1z"/><path d="M37 72h120v17H37zm120 0h1v28h-1zm55 0h9v1h-9zm9 0h1v18h-1zm1 0h1v1h-1zM35 73h1v1h-1zm1 0h1v1h-1zm122 0h1v28h-1zm64 0h1v1h-1zm1 0h1v1h-1zM35 74h1v1h-1z"/><path d="M36 74h122v15H36zm177 0h9v1h-9zm9 0h1v20h-1zm1 0h1v1h-1zM34 75h1v1h-1z"/><path d="M35 75h124v14H35zm124 0h1v27h-1zm55 0h9v1h-9zm9 0h1v23h-1zm1 0h1v1h-1zM33 76h1v1h-1zm1 0h1v1h-1zm126 0h1v28h-1zm64 0h1v1h-1zm1 0h1v1h-1zM33 77h1v1h-1z"/><path d="M34 77h126v12H34zm181 0h9v1h-9zm9 0h1v27h-1zm1 0h1v1h-1zM32 78h1v1h-1zm1 0h1v1h-1zm128 0h1v27h-1zm64 0h1v1h-1zm1 0h1v1h-1zM32 79h1v1h-1z"/><path d="M33 79h128v10H33zm183 0h9v1h-9zm9 0h1v98h-1zm1 0h1v1h-1zM31 80h1v1h-1zm1 0h1v1h-1zm130 0h1v26h-1zm64 0h1v1h-1zm1 0h1v1h-1zM31 81h1v1h-1z"/><path d="M32 81h131v8H32zm131 0h1v27h-1zm54 0h9v1h-9zm9 0h1v94h-1zm1 0h1v1h-1zM31 82h1v1h-1zm196 0h1v1h-1zM30 83h1v1h-1z"/><path d="M31 83h133v6H31zm133 0h1v27h-1zm54 0h9v1h-9zm9 0h1v90h-1zm1 0h1v1h-1zM30 84h1v1h-1zm198 0h1v1h-1zM29 85h1v1h-1z"/><path d="M30 85h134v4H30zm189 0h9v1h-9zm9 0h1v86h-1zm1 0h1v1h-1zM29 86h1v1h-1zm136 0h1v26h-1zm64 0h1v1h-1zM28 87h1v1h-1zm1 0h1v1h-1zm200 0h1v1h-1zm1 0h1v1h-1zM28 88h1v1h-1z"/><path d="M29 88h137v1H29zm137 0h1v27h-1zm54 0h9v1h-9zm9 0h1v80h-1zm1 0h1v1h-1zM28 89h1v1h-1zm1 0h137v1H29zm201 0h1v1h-1zM27 90h1v1h-1zm1 0h89v1H28zm89 0h1v1h-1zm10 0h1v1h-1zm1 0h1v1h-1zm2 0h1v1h-1zm1 0h1v1h-1zm1 0h1v1h-1zm1 0h1v1h-1zm1 0h1v1h-1zm1 0h1v1h-1zm1 0h1v1h-1zm1 0h1v1h-1zm1 0h1v1h-1z"/><path d="M139 90h28v1h-28zm28 0h1v28h-1zm54 0h9v1h-9zm9 0h1v76h-1zm1 0h1v1h-1zM27 91h1v1h-1zm1 0h84v1H28zm84 0h1v1h-1zm26 0h1v1h-1zm1 0h1v1h-1zm1 0h1v1h-1zm1 0h1v1h-1zm1 0h25v1h-25zm89 0h1v1h-1zM26 92h1v1h-1zm1 0h1v1h-1zm1 0h80v1H28zm80 0h1v1h-1zm33 0h1v1h-1zm1 0h1v1h-1zm1 0h1v1h-1zm1 0h1v1h-1zm1 0h22v1h-22zm86 0h1v1h-1zm1 0h1v1h-1zM26 93h1v1h-1zm1 0h78v1H27zm78 0h1v1h-1zm39 0h1v1h-1zm1 0h1v1h-1zm1 0h1v1h-1z"/><path d="M147 93h21v1h-21zm21 0h1v34h-1zm63 0h1v70h-1zm1 0h1v1h-1zM26 94h1v1h-1zm1 0h76v1H27zm76 0h1v1h-1zm43 0h1v1h-1zm1 0h1v1h-1zm1 0h1v1h-1zm1 0h19v1h-19zm73 0h9v1h-9zm10 0h1v1h-1zM25 95h1v1h-1zm1 0h1v1h-1zm1 0h73v1H27zm73 0h1v1h-1zm48 0h1v1h-1zm1 0h1v1h-1zm1 0h1v1h-1zm1 0h17v1h-17zm81 0h1v1h-1zm1 0h1v1h-1zM25 96h1v1h-1zm1 0h72v1H26zm72 0h1v1h-1zm52 0h1v1h-1zm1 0h1v1h-1zm1 0h16v1h-16zm80 0h1v64h-1zm1 0h1v1h-1zM25 97h1v1h-1zm1 0h70v1H26zm70 0h1v1h-1zm55 0h1v1h-1zm1 0h1v1h-1z"/><path d="M153 97h16v1h-16zm16 0h1v32h-1zm64 0h1v1h-1zM25 98h1v1h-1zm1 0h68v1H26zm68 0h1v1h-1zm59 0h1v1h-1zm1 0h1v1h-1zm1 0h14v1h-14zm68 0h9v1h-9zm10 0h1v1h-1zM24 99h1v1h-1zm1 0h68v1H25zm68 0h1v1h-1zm61 0h1v1h-1zm1 0h1v1h-1zm1 0h13v1h-13zm77 0h1v58h-1zm1 0h1v1h-1zm-210 1h1v1h-1zm1 0h66v1H25zm66 0h1v1h-1zm64 0h1v1h-1zm1 0h1v1h-1zm1 0h12v1h-12zm77 0h1v1h-1zm-210 1h1v1h-1zm1 0h64v1H25zm64 0h1v1h-1zm67 0h1v1h-1zm1 0h1v1h-1zm1 0h11v1h-11zm76 0h1v1h-1zm-210 1h1v1h-1zm1 0h63v1H25zm63 0h1v1h-1zm69 0h1v1h-1zm1 0h1v1h-1z"/><path d="M159 102h11v1h-11zm11 0h1v22h-1zm64 0h1v1h-1zm-211 1h1v1h-1zm1 0h63v1H24zm63 0h1v1h-1zm71 0h1v1h-1zm1 0h1v1h-1zm75 0h1v50h-1zm1 0h1v1h-1zm-212 1h1v1h-1zm1 0h61v1H24zm61 0h1v1h-1zm74 0h1v1h-1zm1 0h10v1h-10zm64 0h10v1h-10zm11 0h1v1h-1zm-212 1h1v1h-1zm1 0h60v1H24zm60 0h1v1h-1zm15 0h1v1h-1zm61 0h1v1h-1zm1 0h9v1h-9zm74 0h1v1h-1zm-212 1h1v1h-1zm1 0h59v1H24zm59 0h1v1h-1zm77 0h1v1h-1zm1 0h1v1h-1zm1 0h8v1h-8zm73 0h1v1h-1zm-213 1h1v1h-1zm1 0h1v1h-1zm1 0h58v1H24zm58 0h1v1h-1zm79 0h1v1h-1zm1 0h1v1h-1zm73 0h1v1h-1zm1 0h1v1h-1zm-214 1h1v1h-1zm1 0h58v1H23zm58 0h1v1h-1zm81 0h1v1h-1zm1 0h7v1h-7zm72 0h1v40h-1zm1 0h1v1h-1zm-214 1h1v1h-1zm1 0h57v1H23zm57 0h1v1h-1zm82 0h1v1h-1zm1 0h1v1h-1zm73 0h1v1h-1zm-214 1h1v1h-1zm1 0h56v1H23zm56 0h1v1h-1zm84 0h1v1h-1zm1 0h6v1h-6zm72 0h1v1h-1zm-214 1h1v1h-1zm1 0h55v1H23zm55 0h1v1h-1zm85 0h1v1h-1zm1 0h1v1h-1zm7 0h1v4h-1zm65 0h1v1h-1zm-214 1h1v1h-1zm1 0h54v1H23zm54 0h1v1h-1zm87 0h1v1h-1z"/><path d="M165 112h6v1h-6zm71 0h1v1h-1zm-215 1h1v1h-1zm1 0h1v1h-1zm1 0h53v1H23zm53 0h1v1h-1zm88 0h1v1h-1zm1 0h1v1h-1zm71 0h1v1h-1zm1 0h1v1h-1zm-216 1h1v1h-1zm1 0h53v1H22zm53 0h1v1h-1zm90 0h1v1h-1zm71 0h1v28h-1zm1 0h1v1h-1zm-216 1h1v1h-1zm1 0h52v2H22zm52 0h1v1h-1zm91 0h1v1h-1zm1 0h5v1h-5zm5 0h1v1h-1zm66 0h1v1h-1zm-216 1h1v1h-1zm144 0h1v1h-1zm1 0h1v1h-1zm71 0h1v1h-1zm-216 1h1v1h-1zm1 0h51v1H22zm51 0h1v1h-1zm93 0h1v1h-1zm71 0h1v1h-1zm-216 1h1v1h-1zm1 0h50v2H22zm50 0h1v1h-1zm94 0h1v1h-1zm1 0h3v1h-3zm70 0h1v1h-1zm-216 1h1v1h-1zm145 0h1v1h-1zm1 0h1v1h-1zm70 0h1v1h-1zm-216 1h1v1h-1zm1 0h49v1H22zm49 0h1v1h-1zm96 0h1v1h-1zm70 0h1v1h-1zm-216 1h1v1h-1zm1 0h48v2H22zm48 0h1v1h-1zm97 0h1v1h-1zm70 0h1v1h-1zm-216 1h1v1h-1zm146 0h1v1h-1zm57 0h12v26h-12zm13 0h1v1h-1zm-216 1h1v1h-1zm1 0h47v2H22zm47 0h1v1h-1zm98 0h1v1h-1zm70 0h1v1h-1zm-216 1h1v1h-1zm146 0h1v1h-1zm3 0h1v1h-1zm67 0h1v1h-1zm-216 1h1v1h-1zm1 0h46v2H22zm46 0h1v1h-1zm99 0h1v1h-1zm70 0h1v1h-1z"/><path d="M21 126h46v3H21zm146 0h1v1h-1zm70 0h1v4h-1zm-170 1h1v1h-1zm101 0h1v5h-1zm55 1h14v14h-14zm-202 1h45v1H21zm45 0h1v1h-1zm103 0h1v1h-1zm-148 1h44v1H21zm44 0h1v1h-1zm102 0h1v1h-1zm70 0h1v1h-1zm-216 1h1v1h-1zm1 0h43v3H22zm43 0h1v1h-1zm102 0h1v1h-1zm70 0h1v1h-1zm-216 1h1v1h-1zm146 0h1v1h-1zm1 0h1v1h-1z"/><path d="M222 132h14v16h-14zm15 0h1v1h-1zm-216 1h1v1h-1zm146 0h1v1h-1zm70 0h1v1h-1zm-216 1h1v1h-1zm1 0h42v3H22zm42 0h1v1h-1zm103 0h1v1h-1zm70 0h1v1h-1zm-216 1h1v1h-1zm146 0h1v1h-1z"/><path d="M221 135h15v13h-15zm16 0h1v1h-1zm-216 1h1v1h-1zm216 0h1v1h-1zm-216 1h1v1h-1zm1 0h41v3H22zm41 0h1v1h-1zm103 0h1v1h-1zm71 0h1v1h-1zm-216 1h1v1h-1zm145 0h1v1h-1z"/><path d="M220 138h16v10h-16zm17 0h1v1h-1zm-216 1h1v1h-1zm216 0h1v1h-1zm-216 1h1v1h-1zm1 0h40v2H22zm40 0h1v1h-1zm103 0h1v1h-1zm72 0h1v1h-1zm-216 1h1v1h-1z"/><path d="M219 141h17v7h-17zm18 0h1v1h-1zm-216 1h1v1h-1zm1 0h39v1H22zm39 0h1v2h-1zm175 0h1v1h-1zm1 0h1v1h-1zm-216 1h1v1h-1zm1 0h1v1h-1zm1 0h38v5H23z"/><path d="M218 143h17v10h-17zm18 0h1v1h-1zm1 0h1v1h-1zm-215 1h1v1h-1zm39 0h1v1h-1zm175 0h1v1h-1zm-214 1h1v1h-1z"/><path d="M217 145h18v8h-18zm19 0h1v1h-1zm-214 1h1v1h-1zm214 0h1v1h-1zm-214 1h1v1h-1z"/><path d="M216 147h19v6h-19zm20 0h1v1h-1zm-214 1h1v1h-1zm1 0h37v1H23zm37 0h1v4h-1zm175 0h1v1h-1zm1 0h1v1h-1zm-214 1h1v1h-1zm1 0h1v1h-1zm1 0h36v4H24z"/><path d="M215 149h19v8h-19zm20 0h1v1h-1zm1 0h1v1h-1zm-213 1h1v1h-1z"/><path d="M214 150h20v7h-20zm21 0h1v1h-1zm-212 1h1v1h-1zm212 0h1v1h-1zm-212 1h1v1h-1zm37 0h1v1h-1z"/><path d="M213 152h21v5h-21zm22 0h1v1h-1zm-212 1h1v1h-1zm1 0h35v1H24zm35 0h1v57h-1z"/><path d="M212 153h22v4h-22zm22 0h1v1h-1zm1 0h1v1h-1zm-211 1h1v1h-1zm1 0h34v3H25zm209 0h1v1h-1zm-210 1h1v1h-1z"/><path d="M211 155h22v5h-22zm23 0h1v1h-1zm-210 1h1v1h-1z"/><path d="M210 156h23v4h-23zm24 0h1v1h-1zm-210 1h1v1h-1zm1 0h34v1H25z"/><path d="M209 157h24v3h-24zm24 0h1v1h-1zm1 0h1v1h-1zm-209 1h1v1h-1zm1 0h33v2H26z"/><path d="M208 158h24v5h-24zm25 0h1v1h-1zm-208 1h1v1h-1zm208 0h1v1h-1zm-208 1h1v1h-1zm1 0h33v1H26z"/><path d="M207 160h25v3h-25zm25 0h1v1h-1zm1 0h1v1h-1zm-208 1h1v1h-1zm1 0h1v1h-1zm1 0h32v2H27z"/><path d="M206 161h25v5h-25zm26 0h1v1h-1zm1 0h1v1h-1zm-207 1h1v1h-1z"/><path d="M205 162h26v4h-26zm27 0h1v1h-1zm-206 1h1v1h-1zm1 0h32v1H27z"/><path d="M204 163h27v3h-27zm27 0h1v1h-1zm1 0h1v1h-1zm-206 1h1v1h-1zm1 0h1v1h-1zm1 0h31v2H28z"/><path d="M203 164h27v4h-27zm28 0h1v1h-1zm1 0h1v1h-1zm-205 1h1v1h-1zm33 0h1v45h-1z"/><path d="M202 165h28v3h-28zm29 0h1v1h-1zm-204 1h1v1h-1zm1 0h32v1H28z"/><path d="M200 166h30v2h-30zm30 0h1v1h-1zm1 0h1v1h-1zm-203 1h1v1h-1zm1 0h31v1H29z"/><path d="M199 167h30v4h-30zm31 0h1v1h-1zm-202 1h1v1h-1zm1 0h31v1H29z"/><path d="M198 168h31v3h-31zm31 0h1v1h-1zm1 0h1v1h-1zm-202 1h1v1h-1zm1 0h1v1h-1zm1 0h30v2H30zm199 0h1v1h-1zm1 0h1v1h-1zm-201 1h1v1h-1zm200 0h1v1h-1zm-200 1h1v1h-1zm1 0h30v1H30zm168 0h30v2h-30zm30 0h1v1h-1zm1 0h1v1h-1zm-199 1h1v1h-1zm1 0h30v1H31zm30 0h1v39h-1z"/><path d="M197 172h30v3h-30zm31 0h1v1h-1zm-198 1h1v1h-1zm1 0h30v1H31zm196 0h1v1h-1zm1 0h1v1h-1zm-197 1h1v1h-1zm1 0h29v1H32zm195 0h1v1h-1zm-196 1h1v1h-1zm1 0h29v1H32zm165 0h29v2h-29zm29 0h1v1h-1zm1 0h1v1h-1zm-196 1h1v1h-1zm1 0h1v1h-1zm1 0h28v1H33zm193 0h1v1h-1zm1 0h1v1h-1zm-195 1h1v1h-1zm1 0h29v1H33zm29 0h1v35h-1zm134 0h29v2h-29zm29 0h1v1h-1zm1 0h1v1h-1zm-194 1h1v1h-1zm1 0h1v1h-1zm1 0h28v1H34zm191 0h1v1h-1zm1 0h1v1h-1zm-193 1h1v1h-1zm1 0h28v1H34zm162 0h28v2h-28zm28 0h1v1h-1zm1 0h1v1h-1zm-192 1h1v1h-1zm1 0h1v1h-1z"/><path d="M35 180h28v1H35zm28 0h1v33h-1zm132 0h28v2h-28zm29 0h1v1h-1zm1 0h1v1h-1zm-191 1h1v1h-1zm1 0h28v1H35zm188 0h1v1h-1zm1 0h1v1h-1zm-189 1h1v1h-1zm1 0h27v1H36zm159 0h27v2h-27zm27 0h1v1h-1zm1 0h1v1h-1zm-188 1h1v1h-1zm1 0h1v1h-1z"/><path d="M37 183h27v1H37zm27 0h1v31h-1zm130 0h27v2h-27zm28 0h1v1h-1zm1 0h1v1h-1zm-187 1h1v1h-1zm1 0h27v1H37zm184 0h1v1h-1zm1 0h1v1h-1zm-186 1h1v1h-1zm1 0h1v1h-1z"/><path d="M38 185h27v1H38zm27 0h1v29h-1zm129 0h26v2h-26zm26 0h1v1h-1zm1 0h1v1h-1zm1 0h1v1h-1zm-185 1h1v1h-1zm1 0h1v1h-1zm1 0h26v1H39z"/><path d="M193 186h26v3h-26zm27 0h1v1h-1zm1 0h1v1h-1zm-183 1h1v1h-1zm1 0h26v1H39zm180 0h1v1h-1zm1 0h1v1h-1zm-182 1h1v1h-1zm1 0h1v1h-1zm1 0h26v1H40zm26 0h1v27h-1z"/><path d="M192 188h26v2h-26zm27 0h1v1h-1zm1 0h1v1h-1zm-181 1h1v1h-1zm1 0h26v1H40zm178 0h1v1h-1zm1 0h1v1h-1zm-179 1h1v1h-1zm1 0h26v1H41zm26 0h1v26h-1zm124 0h26v1h-26zm26 0h1v1h-1zm1 0h1v1h-1zm-178 1h1v1h-1zm1 0h1v1h-1zm1 0h25v1H42zm149 0h25v2h-25zm25 0h1v1h-1zm1 0h1v1h-1zm1 0h1v1h-1zm-177 1h1v1h-1zm1 0h1v1h-1z"/><path d="M43 192h25v1H43zm25 0h1v25h-1zm122 0h25v2h-25zm26 0h1v1h-1zm1 0h1v1h-1zm-175 1h1v1h-1zm1 0h25v1H43zm172 0h1v1h-1zm1 0h1v1h-1zm-173 1h1v1h-1z"/><path d="M44 194h25v1H44zm25 0h1v23h-1zm120 0h25v1h-25zm25 0h1v1h-1zm1 0h1v1h-1zm-172 1h1v1h-1zm1 0h1v1h-1z"/><path d="M45 195h25v1H45zm25 0h1v23h-1zm118 0h25v1h-25zm25 0h1v1h-1zm1 0h1v1h-1zm1 0h1v1h-1zm-171 1h1v1h-1zm1 0h1v1h-1zm1 0h24v1H46zm142 0h24v2h-24zm24 0h1v1h-1zm1 0h1v1h-1zm1 0h1v1h-1zm-169 1h1v1h-1zm1 0h1v1h-1z"/><path d="M47 197h24v1H47zm24 0h1v21h-1zm116 0h24v2h-24zm25 0h1v1h-1zm1 0h1v1h-1zm-167 1h1v1h-1z"/><path d="M47 198h25v1H47zm25 0h1v21h-1zm114 0h25v1h-25zm25 0h1v1h-1zm1 0h1v1h-1zm-165 1h1v1h-1zm1 0h24v1H48zm138 0h24v1h-24zm24 0h1v1h-1zm1 0h1v1h-1zm-164 1h1v1h-1zm1 0h1v1h-1z"/><path d="M49 200h24v1H49zm24 0h1v20h-1zm112 0h24v1h-24zm24 0h1v1h-1zm1 0h1v1h-1zm1 0h1v1h-1zm-163 1h1v1h-1zm1 0h1v1h-1z"/><path d="M50 201h24v1H50zm24 0h1v19h-1zm110 0h24v1h-24zm24 0h1v1h-1zm1 0h1v1h-1zm1 0h1v1h-1zm-161 1h1v1h-1zm1 0h1v1h-1z"/><path d="M51 202h24v1H51zm24 0h1v19h-1zm108 0h24v1h-24zm24 0h1v1h-1zm1 0h1v1h-1zm1 0h1v1h-1zm-159 1h1v1h-1zm1 0h1v1h-1zm1 0h23v1H52zm131 0h23v1h-23zm23 0h1v1h-1zm1 0h1v1h-1zm1 0h1v1h-1zm-157 1h1v1h-1zm1 0h1v1h-1z"/><path d="M53 204h23v1H53zm23 0h1v18h-1zm106 0h23v1h-23zm23 0h1v1h-1zm1 0h1v1h-1zm1 0h1v1h-1zm-155 1h1v1h-1zm1 0h1v1h-1z"/><path d="M54 205h23v1H54zm23 0h1v17h-1zm104 0h23v1h-23zm23 0h1v1h-1zm1 0h1v1h-1zm1 0h1v1h-1zm-153 1h1v1h-1zm1 0h1v1h-1z"/><path d="M55 206h23v1H55zm23 0h1v17h-1zm102 0h23v1h-23zm23 0h1v1h-1zm1 0h1v1h-1zm1 0h1v1h-1zm-151 1h1v1h-1zm1 0h1v1h-1z"/><path d="M56 207h23v1H56zm23 0h1v16h-1zm100 0h23v1h-23zm23 0h1v1h-1zm1 0h1v1h-1zm1 0h1v1h-1zm-149 1h1v1h-1zm1 0h1v1h-1z"/><path d="M57 208h23v1H57zm23 0h1v16h-1zm98 0h23v1h-23zm23 0h1v1h-1zm1 0h1v1h-1zm1 0h1v1h-1zm-147 1h1v1h-1zm1 0h1v1h-1z"/><path d="M58 209h23v1H58zm23 0h1v15h-1zm96 0h23v1h-23zm23 0h1v1h-1zm1 0h1v1h-1zm1 0h1v1h-1zm-145 1h1v1h-1zm1 0h1v1h-1z"/><path d="M59 210h23v1H59zm23 0h1v15h-1zm94 0h23v1h-23zm23 0h1v1h-1zm1 0h1v1h-1zm1 0h1v1h-1zm-142 1h1v1h-1zm1 0h1v1h-1z"/><path d="M61 211h22v1H61zm22 0h1v14h-1zm92 0h22v1h-22zm22 0h1v1h-1zm1 0h1v1h-1zm1 0h1v1h-1zm-139 1h1v1h-1zm1 0h1v1h-1z"/><path d="M62 212h23v1H62zm23 0h1v14h-1zm88 0h23v1h-23zm23 0h1v1h-1zm1 0h1v1h-1zm1 0h1v1h-1zm-137 1h1v1h-1zm1 0h1v1h-1z"/><path d="M63 213h23v1H63zm23 0h1v14h-1zm86 0h23v1h-23zm23 0h1v1h-1zm1 0h1v1h-1zm1 0h1v1h-1zm-135 1h1v1h-1zm1 0h1v1h-1z"/><path d="M64 214h23v1H64zm23 0h1v13h-1zm84 0h23v1h-23zm23 0h1v1h-1zm1 0h1v1h-1zm1 0h1v1h-1zm-132 1h1v1h-1zm1 0h1v1h-1z"/><path d="M66 215h23v1H66zm23 0h1v13h-1zm80 0h23v1h-23zm23 0h1v1h-1zm1 0h1v1h-1zm1 0h1v1h-1zm-129 1h1v1h-1zm1 0h1v1h-1z"/><path d="M67 216h23v1H67zm23 0h1v12h-1zm78 0h23v1h-23zm23 0h1v1h-1zm1 0h1v1h-1zm1 0h1v1h-1zm-127 1h1v1h-1zm1 0h1v1h-1z"/><path d="M68 217h24v1H68zm24 0h1v12h-1zm74 0h24v1h-24zm24 0h1v1h-1zm1 0h1v1h-1zm1 0h1v1h-1zm-124 1h1v1h-1zm1 0h1v1h-1z"/><path d="M70 218h23v1H70zm23 0h1v11h-1zm72 0h23v1h-23zm23 0h1v1h-1zm1 0h1v1h-1zm1 0h1v1h-1zm-121 1h1v1h-1zm1 0h1v1h-1zm1 0h1v1h-1z"/><path d="M72 219h23v1H72zm23 0h1v11h-1zm68 0h23v1h-23zm23 0h1v1h-1zm1 0h1v1h-1zm1 0h1v1h-1zm1 0h1v1h-1zm-118 1h1v1h-1zm1 0h1v1h-1z"/><path d="M73 220h24v1H73zm24 0h1v11h-1zm64 0h24v1h-24zm24 0h1v1h-1zm1 0h1v1h-1zm1 0h1v1h-1zm-115 1h1v1h-1zm1 0h1v1h-1zm1 0h1v1h-1z"/><path d="M75 221h24v1H75zm24 0h1v10h-1zm60 0h24v1h-24zm24 0h1v1h-1zm1 0h1v1h-1zm1 0h1v1h-1zm1 0h1v1h-1zm-112 1h1v1h-1zm1 0h1v1h-1z"/><path d="M76 222h25v1H76zm25 0h1v10h-1zm56 0h25v1h-25zm25 0h1v1h-1zm1 0h1v1h-1zm1 0h1v1h-1zm-108 1h1v1h-1zm1 0h1v1h-1z"/><path d="M78 223h26v1H78zm26 0h1v10h-1zm50 0h26v1h-26zm26 0h1v1h-1zm1 0h1v1h-1zm1 0h1v1h-1zm-105 1h1v1h-1zm1 0h1v1h-1zm1 0h1v1h-1z"/><path d="M80 224h26v1H80zm26 0h1v9h-1zm46 0h26v1h-26zm26 0h1v1h-1zm1 0h1v1h-1zm1 0h1v1h-1zm1 0h1v1h-1zm-102 1h1v1h-1zm1 0h1v1h-1zm1 0h1v1h-1z"/><path d="M82 225h28v1H82zm28 0h1v9h-1zm38 0h28v1h-28zm28 0h1v1h-1zm1 0h1v1h-1zm1 0h1v1h-1zm1 0h1v1h-1zm-98 1h1v1h-1zm1 0h1v1h-1zm1 0h1v1h-1z"/><path d="M84 226h30v1H84zm30 0h1v8h-1zm30 0h30v1h-30zm30 0h1v1h-1zm1 0h1v1h-1zm1 0h1v1h-1zm1 0h1v1h-1zm-93 1h1v1h-1zm1 0h1v1h-1z"/><path d="M86 227h34v1H86zm34 0h1v8h-1zm18 0h34v1h-34zm34 0h1v1h-1zm1 0h1v1h-1zm1 0h1v1h-1zm-88 1h1v1h-1zm1 0h1v1h-1zm1 0h1v1h-1z"/><path d="M89 228h80v1H89zm80 0h1v1h-1zm1 0h1v1h-1zm1 0h1v1h-1zm1 0h1v1h-1zm-84 1h1v1h-1zm1 0h1v1h-1zm1 0h1v1h-1zm1 0h76v1H91zm76 0h1v1h-1zm1 0h1v1h-1zm1 0h1v1h-1zm1 0h1v1h-1zm-79 1h1v1h-1zm1 0h1v1h-1zm1 0h1v1h-1zm1 0h70v1H94zm70 0h1v1h-1zm1 0h1v1h-1zm1 0h1v1h-1zm1 0h1v1h-1zm-74 1h1v1h-1zm1 0h1v1h-1zm1 0h1v1h-1zm1 0h1v1h-1zm1 0h64v1H97zm64 0h1v1h-1zm1 0h1v1h-1zm1 0h1v1h-1zm1 0h1v1h-1zm1 0h1v1h-1zm-69 1h1v1h-1zm1 0h1v1h-1zm1 0h1v1h-1zm1 0h1v1h-1zm1 0h58v1h-58zm58 0h1v1h-1zm1 0h1v1h-1zm1 0h1v1h-1zm1 0h1v1h-1zm1 0h1v1h-1zm-62 1h1v1h-1zm1 0h1v1h-1zm1 0h1v1h-1zm1 0h1v1h-1zm1 0h50v1h-50zm50 0h1v1h-1zm1 0h1v1h-1zm1 0h1v1h-1zm1 0h1v1h-1zm1 0h1v1h-1zm-54 1h1v1h-1zm1 0h1v1h-1zm1 0h1v1h-1zm1 0h1v1h-1zm1 0h1v1h-1zm1 0h40v1h-40zm40 0h1v1h-1zm1 0h1v1h-1zm1 0h1v1h-1zm1 0h1v1h-1zm1 0h1v1h-1zm1 0h1v1h-1zm-46 1h1v1h-1zm1 0h1v1h-1zm1 0h1v1h-1zm1 0h1v1h-1zm1 0h1v1h-1zm1 0h1v1h-1zm1 0h1v1h-1zm1 0h28v1h-28zm28 0h1v1h-1zm1 0h1v1h-1zm1 0h1v1h-1zm1 0h1v1h-1zm1 0h1v1h-1zm1 0h1v1h-1zm1 0h1v1h-1zm1 0h1v1h-1zm-36 1h1v1h-1zm1 0h1v1h-1zm1 0h1v1h-1zm1 0h1v1h-1zm1 0h1v1h-1zm1 0h1v1h-1zm1 0h1v1h-1zm1 0h1v1h-1zm1 0h1v1h-1zm1 0h1v1h-1zm1 0h1v1h-1zm1 0h1v1h-1zm1 0h1v1h-1zm1 0h4v1h-4zm4 0h1v1h-1zm1 0h1v1h-1zm1 0h1v1h-1zm1 0h1v1h-1zm1 0h1v1h-1zm1 0h1v1h-1zm1 0h1v1h-1zm1 0h1v1h-1zm1 0h1v1h-1zm1 0h1v1h-1zm1 0h1v1h-1zm1 0h1v1h-1zm1 0h1v1h-1zm1 0h1v1h-1z"/></g><path d="M147 45h1v1h-1zm-6 1h1v1h-1zm52 10h1v1h-1zm-40 8h49v1h-49zm49 0h1v1h-1zm-49 1h50v1h-50zm50 0h1v1h-1z" fill="#cccccd"/><path d="M140 55h1v1h-1zm8 6h1v1h-1z" fill="#9f9e9f"/><path d="M217 83h1v1h-1zm-56 67h1v1h-1z" fill="#9f9f9f"/><path d="M155 69h1v1h-1zm7 10h1v1h-1zm-56 14h1v1h-1zm-5 2h1v1h-1zm-6 3h1v1h-1zm-23 21h1v1h-1zm151 8h1v1h-1zm-56 9h1v1h-1zm44 18h1v1h-1zm-9 10h1v1h-1zM68 191h1v1h-1zm15 19h1v1h-1zm11 8h1v1h-1z" fill="#5c5a5a"/><g fill="#a1a2a2"><path d="M164 145h1v1h-1zm-9 12h1v3h-1zm-51 1h1v1h-1zm1 1h1v1h-1z"/><path d="M153 159h52v1h-52zm52 0h1v1h-1zm-99 1h1v1h-1zm43 0h1v1h-1zm3 0h52v1h-52zm52 0h1v1h-1z"/></g><path d="M65 184h1v1h-1zm106 29h1v1h-1zm-48 14h1v1h-1z" fill="#666565"/><path d="M143 45h1v1h-1zm78 88h1v1h-1zm-1 3h1v1h-1zM61 166h1v1h-1zm22 43h1v1h-1z" fill="#818080"/><path d="M165 45h1v1h-1zm-18 15h1v1h-1zm9 9h1v1h-1z" fill="#afaeaf"/><path d="M183 50h1v1h-1zm35 35h1v1h-1z" fill="#999898"/><path d="M151 64h1v1h-1zm73 46h1v1h-1zm-112 52h1v1h-1zm4 2h1v1h-1z" fill="#828181"/><path d="M151 44h1v1h-1zM72 197h1v1h-1zm70 29h1v1h-1z" fill="#696767"/><path fill="#959495" d="M220 90h1v1h-1z"/><path fill="#817f80" d="M222 96h1v1h-1z"/><path d="M169 133h1v1h-1zm-4 11h50v1h-50zm50 0h1v1h-1zm-50 1h50v1h-50zm50 0h1v1h-1z" fill="#a8a9a9"/><path d="M205 65h1v1h-1zm15 24h1v1h-1z" fill="#6f6d6e"/><path d="M217 84h1v2h-1zm-50 2h50v1h-50zm50 0h1v1h-1z" fill="#c2c3c3"/><path d="M117 91h1v1h-1zm-14 4h1v1h-1zm-27 20h1v1h-1zm17 27h1v1h-1zm123 3h1v1h-1zm-16 20h1v1h-1zm-75 1h1v1h-1zm-59 19h1v1h-1zm14 21h1v1h-1zm74 16h1v1h-1zm-44 2h1v1h-1z" fill="#838383"/><path fill="#9b9b9c" d="M171 103h1v1h-1z"/><path d="M103 100h1v1h-1zm-9 13h1v1h-1zm-20 4h1v1h-1zm18 2h1v1h-1zm72 24h1v1h-1zm-103 5h1v1h-1zm131 38h1v1h-1zm-124 4h1v1h-1zm104 22h1v1h-1zm-31 14h1v1h-1zm-14 1h1v1h-1zm1 0h1v1h-1zm3 0h1v1h-1zm1 0h1v1h-1z" fill="#717070"/><path d="M173 111h50v1h-50zm50 0h1v1h-1z" fill="#b7b8b8"/><path d="M97 148h1v1h-1zm66 0h50v1h-50zm50 0h1v1h-1zm-51 1h51v1h-51zm51 0h1v1h-1z" fill="#a6a7a7"/><path d="M162 150h50v1h-50zm50 0h1v1h-1z" fill="#a6a6a7"/><path d="M179 48h1v1h-1zm27 18h1v1h-1zm7 9h1v1h-1zm-79 152h1v1h-1z" fill="#6a6969"/><path d="M197 58h1v1h-1zm-34 22h1v1h-1z" fill="#7c7a7b"/><path d="M200 61h1v1h-1zm20 30h1v1h-1zm-48 19h51v1h-51zm51 0h1v1h-1z" fill="#b8b8b9"/><path d="M93 100h1v1h-1zm0 40h1v1h-1zm125 1h1v1h-1zm-124 3h1v1h-1z" fill="#7f7f7f"/><path d="M132 48h1v1h-1zm90 81h1v1h-1z" fill="#8a8989"/><g fill="#898989"><path d="M113 92h1v1h-1zm-3 1h1v1h-1zm1 0h1v1h-1zm-4 1h2v1h-2zm2 0h1v1h-1zm-5 1h4v1h-4zm4 0h1v1h-1zm-6 1h4v1h-4zm4 0h1v1h-1zm-6 1h5v1h-5zm5 0h1v1h-1zm-7 1h5v1h-5zm5 0h1v1h-1zm-7 1h6v1h-6zm6 0h1v1h-1zm-8 1h7v1h-7zm7 0h1v1h-1zm-9 1h8v1h-8zm8 0h1v1h-1zm-9 1h8v2h-8zm8 0h1v1h-1z"/><path d="M90 103h8v2h-8z"/><path d="M88 104h10v1H88zm10 0h1v1h-1zm-11 1h10v2H87zm10 0h1v1h-1z"/><path d="M86 106h10v2H86z"/><path d="M85 107h11v1H85zm11 0h1v1h-1zm-13 1h12v2H83zm12 0h1v1h-1z"/><path d="M82 109h12v3H82z"/><path d="M81 110h13v2H81zm13 0h1v1h-1z"/><path d="M80 111h13v4H80z"/><path d="M79 112h14v3H79zm14 0h1v1h-1z"/><path d="M78 114h14v5H78z"/><path d="M77 115h15v4H77zm15 0h1v1h-1z"/><path d="M76 116h15v85H76z"/><path d="M75 117h16v82H75z"/><path d="M74 118h17v80H74zm17 1h1v1h-1z"/><path d="M73 120h17v77H73z"/><path d="M72 121h18v74H72z"/><path d="M71 123h19v71H71z"/><path d="M70 125h20v67H70z"/><path d="M69 126h21v64H69z"/><path d="M68 128h22v60H68z"/><path d="M67 130h23v56H67z"/><path d="M66 133h24v51H66z"/><path d="M65 135h25v46H65zm27 1h1v1h-1zm-1 1h1v77h-1z"/><path d="M64 138h27v41H64zm28 2h1v75h-1z"/><path d="M63 141h29v34H63zm30 2h1v73h-1zm1 2h1v71h-1z"/><path d="M62 146h32v25H62zm33 1h1v70h-1zm66 2h1v1h-1zm-65 1h1v67h-1zm1 0h1v1h-1zm116 0h1v1h-1zm-116 1h1v67h-1zm1 0h1v1h-1zm0 1h1v67h-1z"/><path d="M61 153h37v11H61zm39 0h1v1h-1zm-1 1h1v65h-1zm1 1h1v65h-1zm1 1h1v64h-1zm1 1h1v63h-1zm1 2h1v62h-1zm1 1h1v61h-1zm1 1h1v61h-1zm1 1h1v60h-1zm5 0h1v1h-1zm-4 1h1v59h-1z"/><path d="M61 164h47v1H61zm47 0h1v59h-1zm1 1h1v58h-1zm1 1h1v57h-1zm1 0h1v58h-1zm20 0h1v1h-1zm-19 1h1v57h-1zm1 1h1v56h-1zm1 1h1v55h-1zm82 0h1v2h-1zm-81 1h1v55h-1zm80 0h1v5h-1z"/><path d="M62 171h55v1H62zm55 0h1v54h-1zm75 0h4v4h-4zm4 0h1v1h-1z"/><path d="M116 172h3v53h-3zm3 0h1v53h-1zm1 1h1v52h-1zm70 0h5v6h-5zm-69 1h1v52h-1zm1 0h1v52h-1z"/><path d="M188 174h7v5h-7zm-125 1h61v1H63zm61 0h1v51h-1z"/><path d="M186 175h9v4h-9zm9 0h1v1h-1zm-72 1h3v50h-3zm3 0h1v50h-1z"/><path d="M184 176h10v6h-10zm-57 1h2v49h-2zm2 0h1v49h-1z"/><path d="M182 177h12v5h-12zm-52 1h1v48h-1zm1 0h1v48h-1z"/><path d="M179 178h15v4h-15zm-115 1h70v1H64zm70 0h1v47h-1z"/><path d="M176 179h18v3h-18zm18 0h1v1h-1zm-62 1h5v46h-5zm5 0h1v46h-1z"/><path d="M172 180h21v4h-21zm-107 1h78v1H65zm78 0h1v44h-1z"/><path d="M168 181h25v3h-25zm-30 1h12v41h-12zm12 0h2v40h-2zm2 0h1v40h-1z"/><path d="M160 182h33v2h-33zm33 0h1v1h-1z"/><path d="M153 183h39v3h-39z"/><path d="M66 184h126v1H66zm126 0h1v1h-1zm-125 2h124v1H67zm124 0h1v1h-1zm-38 1h37v3h-37zm37 0h1v1h-1z"/><path d="M68 188h122v1H68zm122 0h1v1h-1zm-121 2h120v1H69zm120 0h1v1h-1zm-36 1h35v3h-35zm35 0h1v1h-1z"/><path d="M70 192h118v1H70zm118 0h1v1h-1zm-117 2h116v1H71zm116 0h1v1h-1zm-115 1h114v1H72zm114 0h1v1h-1zm-33 1h32v2h-32zm32 0h1v1h-1z"/><path d="M73 197h112v1H73zm112 0h1v1h-1zm-111 1h110v1H74zm110 0h1v1h-1zm-109 1h108v1H75zm108 0h1v1h-1zm-30 1h29v2h-29zm29 0h1v1h-1z"/><path d="M76 201h106v1H76zm106 0h1v1h-1zm-105 1h104v1H77zm104 0h1v1h-1zm-103 1h102v1H78zm102 0h1v1h-1zm-101 1h100v1H79zm100 0h1v1h-1zm-99 1h98v1H80zm98 0h1v1h-1zm-97 1h96v1H81zm96 0h1v1h-1zm-95 1h94v1H82zm94 0h1v1h-1zm-93 1h92v1H83zm92 0h1v1h-1zm-91 1h90v1H84zm90 0h1v1h-1zm-89 1h88v1H85zm88 0h1v1h-1zm-87 1h86v1H86zm86 0h1v1h-1zm-84 1h83v1H88zm83 0h1v1h-1zm-82 1h80v1H89zm80 0h1v1h-1zm-79 1h78v1H90zm78 0h1v1h-1zm-76 1h74v1H92zm74 0h1v1h-1zm-73 1h72v1H93zm72 0h1v1h-1zm-70 1h68v1H95zm68 0h1v1h-1zm-66 1h64v1H97zm64 0h1v1h-1zm-63 1h62v1H98zm62 0h1v1h-1zm-60 1h58v1h-58zm58 0h1v1h-1zm-55 1h52v1h-52zm52 0h1v1h-1zm-50 1h48v1h-48zm48 0h1v1h-1zm-45 1h42v1h-42zm42 0h1v1h-1zm-39 1h36v1h-36zm36 0h1v1h-1zm-32 1h28v1h-28zm28 0h1v1h-1zm-22 1h16v1h-16zm16 0h1v1h-1z"/></g><path fill="#888788" d="M224 112h1v1h-1z"/><path fill="#9b9b9b" d="M117 165h1v1h-1z"/><path fill="#8c8b8b" d="M194 56h1v1h-1z"/><path fill="#929192" d="M221 93h1v1h-1z"/><path d="M160 150h1v1h-1zm-51 11h1v1h-1zm9 4h1v1h-1zm4 1h1v1h-1zm-5 4h1v1h-1z" fill="#8d8d8d"/><path d="M173 46h1v1h-1zm-84 56h1v1h-1zm-29 53h1v1h-1zm0 6h1v1h-1zm14 39h1v1h-1zm48 27h1v1h-1z" fill="#626060"/><path d="M115 169h1v1h-1zm79 1h1v1h-1z" fill="#888989"/><path d="M131 49h1v1h-1zm13 8h50v1h-50zm50 0h1v1h-1zm-48 1h49v1h-49zm49 0h1v1h-1z" fill="#cfcfd0"/><path fill="#6e6c6d" d="M168 92h1v1h-1z"/><path d="M169 132h1v1h-1zm-13 23h1v1h-1zm-6 5h1v1h-1zm-5 3h1v1h-1zm-32 4h1v1h-1zm60 12h1v1h-1z" fill="#919191"/><path fill="#c7c6c7" d="M139 54h1v1h-1z"/><path d="M200 60h1v1h-1zm19 26h1v1h-1zM99 96h1v1h-1zm-2 1h1v1h-1zm74 12h1v1h-1zm0 8h1v1h-1zm45 29h1v1h-1zm-3 5h1v1h-1zm-153 3h1v1h-1zm144 8h1v1h-1zm-10 20h1v1h-1zm-3 7h1v1h-1zm-15 20h1v1h-1zm-85 7h1v1h-1zm52 10h1v1h-1z" fill="#5f5d5d"/><path d="M107 160h1v1h-1zm25 17h46v1h-46zm46 0h1v1h-1zm-43 1h40v1h-40zm40 0h1v1h-1z" fill="#999a9a"/><path fill="#8a8b8b" d="M177 178h1v1h-1z"/><path d="M114 91h1v1h-1zm83 79h1v1h-1zm-9 24h1v1h-1z" fill="#686767"/><path d="M223 103h1v1h-1zm-63 49h51v1h-51zm51 0h1v1h-1z" fill="#a5a5a6"/><path d="M172 126h50v1h-50zm50 0h1v1h-1z" fill="#b0b1b1"/><path fill="#a0a0a0" d="M209 155h1v1h-1z"/><path d="M167 45h1v1h-1zm-15 20h1v1h-1z" fill="#878586"/><path fill="#a6a6a6" d="M217 142h1v1h-1z"/><path d="M155 156h1v1h-1zm-1 1h1v1h-1zm48 6h1v1h-1z" fill="#909090"/><path d="M154 44h2v1h-2zm2 0h1v1h-1zm-35 46h1v1h-1zm-39 18h1v1h-1zm132 41h1v1h-1zM66 186h1v1h-1zm20 26h1v1h-1z" fill="#6e6c6c"/><path d="M120 91h1v1h-1zM71 195h1v1h-1zm86 26h1v1h-1z" fill="#777"/><path d="M171 99h51v1h-51zm51 0h1v1h-1z" fill="#bcbdbd"/><path d="M172 105h51v1h-51zm51 0h1v1h-1z" fill="#bababb"/><path d="M167 89h1v1h-1zm-76 12h1v1h-1zm10 1h1v1h-1zm-10 26h1v1h-1zm105 46h1v1h-1zM67 188h1v1h-1zm63 39h1v1h-1z" fill="#727171"/><path d="M146 45h1v1h-1zm25 55h51v1h-51zm51 0h1v1h-1z" fill="#bcbcbd"/><path d="M169 45h1v1h-1zm-51 45h1v1h-1zm106 15h1v1h-1zM75 115h1v1h-1zm-13 26h1v1h-1zm144 19h1v1h-1zm-1 1h1v1h-1zm-2 2h1v1h-1zm-142 8h1v1h-1zm2 8h1v1h-1zm1 3h1v1h-1zm128 5h1v1h-1zm-125 2h1v1h-1zm4 7h1v1h-1zm114 3h1v1h-1zm-4 5h1v1h-1zm-103 1h1v1h-1zm97 5h1v1h-1zm-87 4h1v1h-1zm76 4h1v1h-1zm-62 4h1v1h-1zm54 0h1v1h-1zm-19 5h1v1h-1z" fill="#5d5b5b"/><path d="M138 46h1v1h-1zM98 97h1v1h-1zm73 9h1v1h-1zm0 14h1v1h-1zm-80 3h1v1h-1zm0 1h1v1h-1zm15 99h1v1h-1zm43 1h1v1h-1z" fill="#767575"/><path d="M133 51h1v1h-1zm75 18h1v1h-1z" fill="#a8a8a8"/><g fill="#cbcbcc"><path d="M152 64h1v1h-1zm2 2h50v1h-50zm50 0h1v2h-1z"/><path d="M155 67h50v1h-50zm50 0h1v1h-1zm-49 1h50v1h-50zm50 0h1v1h-1z"/></g><path d="M221 131h1v1h-1zm-51 2h50v1h-50zm50 0h1v1h-1z" fill="#adaeae"/><path d="M193 170h1v1h-1zm-14 7h1v1h-1z" fill="#949595"/><path d="M147 59h50v1h-50zm50 0h1v1h-1z" fill="#cecfcf"/><path d="M117 92h1v1h-1zm-9 1h1v1h-1zm116 24h1v1h-1zm-155 8h1v1h-1zm-8 42h1v1h-1zm16 36h1v1h-1zm12 11h1v1h-1zm70 6h1v1h-1z" fill="#7b7a7a"/><path d="M222 127h1v1h-1zm-52 3h51v1h-51zm51 0h1v1h-1z" fill="#afafb0"/><path fill="#969596" d="M159 152h1v1h-1z"/><path d="M112 166h1v1h-1zm9 0h1v1h-1zm-5 3h1v1h-1zm52 11h1v1h-1zm-17 1h9v1h-9zm9 0h1v1h-1z" fill="#979898"/><path d="M163 45h1v1h-1zm21 6h1v1h-1zm-43 4h50v1h-50zm50 0h1v1h-1zm-48 1h49v1h-49zm49 0h1v1h-1z" fill="#d0d0d1"/><path d="M136 47h1v1h-1zm77 29h1v1h-1z" fill="#aeaeae"/><path d="M172 101h50v1h-50zm50 0h1v1h-1zm-50 1h50v1h-50zm50 0h1v1h-1z" fill="#bbbcbc"/><path d="M85 106h1v1h-1zm9 5h1v1h-1zm130 0h1v1h-1zm-132 5h1v1h-1zm119 37h1v1h-1zm-45 28h1v1h-1z" fill="#868585"/><path d="M172 115h1v1h-1zm0 6h50v1h-50zm50 0h1v1h-1zm-50 1h50v1h-50zm50 0h1v1h-1z" fill="#b2b3b3"/><path d="M168 135h1v1h-1zm-60 28h1v1h-1zm87 6h1v1h-1zm-54 11h1v1h-1z" fill="#8b8b8b"/><path fill="#a7a6a6" d="M130 49h1v1h-1z"/><path d="M132 51h1v1h-1zm80 101h1v1h-1zm-3 4h1v1h-1z" fill="#716f6f"/><path fill="#a1a0a0" d="M155 68h1v1h-1z"/><path d="M169 91h50v1h-50zm50 0h1v1h-1zm-50 1h51v1h-51zm51 0h1v1h-1z" fill="#c0c0c1"/><path d="M159 153h51v1h-51zm51 0h1v1h-1z" fill="#a4a5a5"/><path fill="#5e5c5d" d="M208 68h1v1h-1z"/><path d="M160 75h1v1h-1zm10 24h1v1h-1zM62 144h1v1h-1zm146 13h1v1h-1zm-88 8h1v1h-1zm54 45h1v1h-1z" fill="#7f7e7e"/><path d="M137 53h1v1h-1zm35 65h51v1h-51zm51 0h1v1h-1z" fill="#b4b4b5"/><path d="M171 121h1v1h-1zm-64 38h1v1h-1zm59 57h1v1h-1z" fill="#7e7e7e"/><path d="M162 148h1v1h-1zm-4 5h1v1h-1zm47 7h1v1h-1zm-59 2h1v1h-1zm1 0h1v1h-1z" fill="#929292"/><path d="M221 94h1v1h-1zm1 4h1v1h-1zm-50 14h1v1h-1zm0 13h50v1h-50zm50 0h1v1h-1z" fill="#b1b1b2"/><path d="M93 115h1v1h-1zm-2 12h1v1h-1zm-30 41h1v1h-1z" fill="#747474"/><path d="M176 178h1v1h-1zm-38 1h1v1h-1zm12 2h1v1h-1z" fill="#969797"/><path d="M219 88h1v1h-1zm-47 35h50v1h-50zm50 0h1v1h-1z" fill="#b2b2b3"/><path d="M168 45h1v1h-1zm36 19h1v1h-1z" fill="#727070"/><path fill="#969595" d="M139 46h1v1h-1z"/><path fill="#c4c3c4" d="M177 48h1v1h-1z"/><path fill="#b6b5b6" d="M207 68h1v1h-1z"/><path d="M170 128h1v1h-1zm-7 18h1v1h-1zm-39 28h1v1h-1zm58 2h1v1h-1zm-13 4h1v1h-1z" fill="#8e8e8e"/><path d="M101 155h1v1h-1zm95 13h1v1h-1zm-62 10h1v1h-1z" fill="#919292"/><path d="M134 47h1v1h-1zm-8 43h1v1h-1zm94 47h1v1h-1zm-36 63h1v1h-1z" fill="#646262"/><g fill="#d3d3d4"><path d="M173 47h1v3h-1zm-39 1h1v2h-1z"/><path d="M132 49h47v1h-47zm47 0h1v1h-1zm-47 1h49v1h-49zm49 0h1v1h-1z"/></g><path fill="#a5a5a5" d="M161 76h1v1h-1z"/><path fill="#7f7d7e" d="M224 116h1v1h-1z"/><path fill="#656364" d="M171 118h1v1h-1z"/><path fill="#a4a4a4" d="M171 124h1v1h-1z"/><path fill="#c6c6c6" d="M190 54h1v1h-1z"/><path d="M215 80h1v1h-1zm-48 5h50v1h-50z" fill="#c3c3c4"/><path fill="#737172" d="M221 92h1v1h-1z"/><path fill="#999" d="M222 97h1v1h-1z"/><path d="M90 102h1v1h-1zm-4 3h1v1h-1zm5 30h1v1h-1zm1 4h1v1h-1zm22 24h1v1h-1zm3 1h1v1h-1zm-47 29h1v1h-1zm110 11h1v1h-1zm-76 18h1v1h-1zm35 4h1v1h-1z" fill="#818181"/><path d="M160 44h1v1h-1zm-87 74h1v1h-1zm123 57h1v1h-1zM70 194h1v1h-1zm38 30h1v1h-1z" fill="#666464"/><path fill="#757373" d="M136 53h1v1h-1z"/><path d="M196 58h1v1h-1zm7 6h1v1h-1zm1 1h1v1h-1zm-46 6h1v1h-1zm5 7h50v1h-50zm50 0h1v1h-1z" fill="#c6c6c7"/><path fill="#c2c1c2" d="M210 72h1v1h-1z"/><path d="M87 104h1v1h-1zm4 29h1v1h-1zm-29 40h1v1h-1zm1 4h1v1h-1zm2 6h1v1h-1zm75 43h1v1h-1z" fill="#797979"/><path fill="#989898" d="M210 154h1v1h-1z"/><path fill="#959494" d="M198 59h1v1h-1z"/><path d="M202 63h1v1h-1zm-37 19h51v1h-51zm51 0h1v1h-1zm-50 1h50v1h-50zm50 0h1v1h-1z" fill="#c4c4c5"/><path d="M156 70h1v1h-1zm3 4h1v1h-1zm-67 26h1v1h-1zm132 20h1v1h-1zM66 130h1v1h-1zm103 0h1v1h-1zM60 156h1v1h-1zm100 64h1v1h-1z" fill="#636161"/><path fill="#b5b5b5" d="M166 85h1v1h-1z"/><path fill="#a3a3a4" d="M158 154h1v1h-1z"/><path d="M151 159h1v1h-1zm-7 4h1v1h-1zm-8 3h1v1h-1z" fill="#909191"/><g fill="#d1d1d2"><path d="M169 46h1v1h-1zm17 6h1v2h-1z"/><path d="M138 53h49v1h-49zm49 0h1v1h-1zm-47 1h49v1h-49zm49 0h1v1h-1z"/></g><path d="M168 89h51v1h-51zm51 0h1v1h-1zm-50 1h50v1h-50zm50 0h1v1h-1z" fill="#c1c1c2"/><path d="M222 128h1v1h-1zm-2 7h1v1h-1z" fill="#9e9e9e"/><path d="M218 142h1v1h-1zm-31 54h1v1h-1zm-72 30h1v1h-1z" fill="#5e5d5d"/><path fill="#b4b3b4" d="M131 50h1v1h-1z"/><path d="M124 90h1v1h-1zm-41 17h1v1h-1zm-21 35h1v1h-1zm-1 5h1v1h-1zm132 37h1v1h-1z" fill="#696868"/><path d="M168 90h1v1h-1zm1 3h1v1h-1zm3 23h51v1h-51zm51 0h1v1h-1z" fill="#b5b5b6"/><path d="M168 91h1v1h-1zm-11 63h1v1h-1z" fill="#919091"/><path d="M166 84h50v1h-50zm50 0h1v1h-1z" fill="#c3c4c4"/><path d="M86 104h1v1h-1zm-26 49h1v1h-1z" fill="#5b5a5a"/><path d="M173 114h50v1h-50zm50 0h1v1h-1z" fill="#b6b6b7"/><path fill="#626161" d="M136 227h1v1h-1z"/><path fill="#bebdbe" d="M157 70h1v1h-1z"/><path d="M161 75h50v1h-50zm50 0h1v1h-1z" fill="#c7c8c8"/><path d="M219 138h1v1h-1zM99 151h1v1h-1z" fill="#969696"/><path d="M102 156h1v1h-1zm39 8h1v1h-1zm56 3h1v1h-1zm-68 9h1v1h-1zm10 3h33v1h-33zm33 0h1v1h-1zm-29 1h24v1h-24zm24 0h1v1h-1z" fill="#989999"/><path d="M166 86h1v1h-1zm-54 7h1v1h-1zm-17 6h1v1h-1zm70 43h1v1h-1zm-3 5h1v1h-1zm-60 8h1v1h-1zm-41 10h1v1h-1zm135 7h1v1h-1zm-133 4h1v1h-1zm73 3h1v1h-1zm35 1h1v1h-1zm-27 1h1v1h-1zm21 0h1v1h-1zm-98 6h1v1h-1zm2 4h1v1h-1zm95 26h1v1h-1zm-13 6h1v1h-1zm-31 3h1v1h-1z" fill="#868686"/><path d="M115 91h1v1h-1zm-5 4h1v1h-1zm-14 3h1v1h-1zm6 3h1v1h-1zm-2 2h1v1h-1zm-3 4h1v1h-1zm-34 32h1v1h-1zm32 79h1v1h-1z" fill="#737272"/><path fill="#5c5b5b" d="M121 227h1v1h-1z"/><path fill="#9c9b9b" d="M171 46h1v1h-1z"/><path d="M142 57h1v1h-1zm-57 48h1v1h-1zm137 26h1v1h-1z" fill="#5f5e5e"/><path d="M199 59h1v1h-1zm10 10h1v1h-1zm3 4h1v1h-1zm2 3h1v1h-1zm-49 9h1v1h-1zm56 6h1v1h-1zM90 101h1v1h-1zm81 9h1v1h-1zm-97 6h1v1h-1zm97 0h1v1h-1zM61 145h1v1h-1zm154 3h1v1h-1zM60 164h1v1h-1zm141 1h1v1h-1zM62 176h1v1h-1zm131 9h1v1h-1zm-124 8h1v1h-1zm7 10h1v1h-1zm106 0h1v1h-1zm-98 8h1v1h-1zm23 13h1v1h-1zm44 0h1v1h-1z" fill="#5a5858"/><path d="M160 73h50v1h-50zm50 0h1v1h-1zm-49 1h50v1h-50zm50 0h1v1h-1z" fill="#c8c8c9"/><path d="M158 44h1v1h-1zm-33 46h1v1h-1zm-18 3h1v1h-1zm-29 19h1v1h-1zm15 4h1v1h-1zm-18 85h1v1h-1zm18 16h1v1h-1z" fill="#6b6969"/><path fill="#919090" d="M149 62h1v1h-1z"/><path d="M103 157h1v1h-1zm9 6h1v1h-1zm82 6h1v1h-1zm-74 2h70v1h-70zm70 0h1v1h-1zm-68 1h67v1h-67zm67 0h1v1h-1z" fill="#9c9d9d"/><path d="M222 95h1v1h-1zm2 11h1v1h-1zm-3 28h1v1h-1zm-71 90h1v1h-1zm-34 2h1v1h-1z" fill="#676666"/><path d="M102 100h1v1h-1zm-1 1h1v1h-1zm32 65h1v1h-1zm59 19h1v1h-1zM72 196h1v1h-1zm106 10h1v1h-1zm-1 1h1v1h-1zm-7 6h1v1h-1zm-76 4h1v1h-1zm13 6h1v1h-1z" fill="#858585"/><path d="M171 122h1v1h-1zm-75 27h1v1h-1zm8 10h1v1h-1zm35 6h1v1h-1zm-25 3h1v1h-1zm2 2h1v1h-1zm4 2h1v1h-1zm8 4h1v1h-1zm19 5h1v1h-1zm12 1h1v1h-1z" fill="#8a8a8a"/><path d="M140 46h1v1h-1zm32 67h1v1h-1z" fill="#b1b1b1"/><path fill="#b9b8b9" d="M170 46h1v1h-1z"/><path d="M134 52h1v1h-1zm69 11h1v1h-1zM79 111h1v1h-1zm16 0h1v1h-1zm-34 58h1v1h-1zm1 5h1v1h-1zm133 4h1v1h-1zm-12 23h1v1h-1zm-80 21h1v1h-1zm43 3h1v1h-1z" fill="#6e6d6d"/><path fill="#b2b1b2" d="M192 55h1v1h-1z"/><path d="M131 48h1v1h-1zm59 5h1v1h-1zm-51 2h1v1h-1zm27 32h1v1h-1zm31 84h1v1h-1zm-2 8h1v1h-1zm-16 27h1v1h-1zm-99 1h1v1h-1zm16 12h1v1h-1zm4 2h1v1h-1z" fill="#605e5e"/><path d="M223 104h1v1h-1zm-51 15h51v1h-51zm51 0h1v1h-1zm-51 1h51v1h-51zm51 0h1v1h-1z" fill="#b3b4b4"/><path d="M204 161h1v1h-1zm-1 1h1v1h-1zm-60 2h1v1h-1zm-1 16h1v1h-1z" fill="#939494"/><path d="M157 71h1v1h-1zm-59 35h1v1h-1zm126 1h1v1h-1zm-143 2h1v1h-1zm-1 1h1v1h-1zm-15 23h1v1h-1zm103 1h1v1h-1zm29 35h1v1h-1zm-8 23h1v1h-1zm-34 30h1v1h-1zm-38 4h1v1h-1zm9 1h1v1h-1z" fill="#706f6f"/><path d="M215 79h1v1h-1zm8 23h1v1h-1zm-52 21h1v1h-1zm-11 28h1v1h-1zm-8 8h1v1h-1z" fill="#979797"/><path d="M173 113h50v1h-50zm50 0h1v1h-1z" fill="#b6b7b7"/><g fill="#d4d4d5"><path d="M142 46h26v2h-26zm26 0h1v2h-1z"/><path d="M138 47h34v1h-34zm34 0h1v1h-1zm-37 1h41v1h-41zm41 0h1v1h-1z"/></g><path d="M165 84h1v1h-1zm-69 24h1v1h-1zm-4 29h1v1h-1zm1 4h1v1h-1zm17 20h1v1h-1zm-18 55h1v1h-1z" fill="#7c7b7b"/><path d="M171 102h1v1h-1zm-4 39h50v1h-50zm50 0h1v1h-1zm-51 1h50v1h-50zm50 0h1v1h-1z" fill="#a9aaaa"/><path d="M216 144h1v1h-1zm-57 7h1v1h-1zm2 0h50v1h-50zm50 0h1v1h-1z" fill="#a5a6a6"/><path d="M184 50h1v1h-1zm-65 40h1v1h-1zm-51 36h1v1h-1zm-1 2h1v1h-1zm143 27h1v1h-1zm-150 2h1v2h-1zm0 2h1v1h-1zm1 11h1v1h-1zm92 53h1v1h-1z" fill="#656464"/><path fill="#858485" d="M144 58h1v1h-1z"/><path d="M219 87h1v1h-1zM103 99h1v1h-1zm-3 3h1v1h-1zm-23 12h1v1h-1zm19 34h1v1h-1zm5 6h1v1h-1zm-33 35h1v1h-1zm118 7h1v1h-1z" fill="#878686"/><path d="M171 119h1v1h-1zM64 181h1v1h-1zm26 34h1v1h-1z" fill="#6d6b6b"/><path fill="#8d8e8e" d="M148 181h1v1h-1z"/><path fill="#868586" d="M217 143h1v1h-1z"/><path fill="#7b797a" d="M210 71h1v1h-1z"/><path d="M164 81h1v1h-1zm8 33h1v1h-1z" fill="#b1b0b1"/><g fill="#464646"><path d="M351 90h1v1h-1zm1 0h1v1h-1zm1 0h1v1h-1zm1 0h1v1h-1zm1 0h2v1h-2zm2 0h1v1h-1zm1 0h1v1h-1zm1 0h5v13h-5zm5 0h1v13h-1zm1 0h2v1h-2zm2 0h1v1h-1zm1 0h1v1h-1zm1 0h1v1h-1zm1 0h1v1h-1zm1 0h1v1h-1zm-24 1h1v1h-1zm1 0h1v1h-1zm1 0h1v1h-1zm1 0h1v1h-1z"/><path d="M351 91h21v12h-21zm21 0h1v14h-1zm1 0h1v1h-1zm1 0h1v1h-1zm1 0h1v1h-1zm241 0h1v1h-1zm1 0h13v1h-13zm13 0h1v1h-1zm1 0h1v1h-1zm29 0h1v1h-1zm1 0h15v1h-15zm15 0h1v1h-1zm1 0h1v1h-1zm111 0h1v1h-1zm1 0h14v1h-14zm14 0h1v1h-1zm1 0h1v1h-1zm-460 1h1v1h-1zm1 0h1v1h-1zm1 0h1v1h-1z"/><path d="M347 92h28v11h-28zm28 0h1v14h-1zm1 0h1v1h-1zm1 0h1v1h-1zm1 0h1v1h-1zm238 0h1v82h-1zm1 0h13v82h-13zm13 0h1v82h-1zm1 0h1v39h-1zm28 0h1v1h-1zm1 0h15v2h-15zm15 0h1v1h-1zm1 0h1v1h-1zm1 0h1v1h-1zm111 0h1v13h-1zm1 0h14v13h-14zm14 0h1v13h-1zm1 0h1v13h-1zm-463 1h1v1h-1zm1 0h1v1h-1zm1 0h1v1h-1z"/><path d="M344 93h34v10h-34zm34 0h1v16h-1zm1 0h1v1h-1zm1 0h1v1h-1zm1 0h1v1h-1zm277 0h1v1h-1zm1 0h16v1h-16zm16 0h1v1h-1zm1 0h1v1h-1zm-337 1h1v1h-1zm1 0h1v1h-1z"/><path d="M341 94h40v9h-40zm40 0h1v18h-1zm1 0h1v1h-1zm1 0h1v1h-1zm274 0h1v1h-1zm1 0h1v1h-1zm1 0h15v2h-15zm15 0h1v1h-1zm1 0h1v1h-1zm-338 1h1v1h-1zm1 0h1v1h-1z"/><path d="M339 95h44v8h-44zm44 0h1v21h-1zm1 0h1v1h-1zm1 0h1v1h-1zm272 0h1v1h-1zm1 0h15v2h-15zm16 0h1v1h-1zm1 0h1v1h-1zm-339 1h1v1h-1zm1 0h1v1h-1z"/><path d="M338 96h46v7h-46zm46 0h1v23h-1zm1 0h1v1h-1zm1 0h1v1h-1zm270 0h1v1h-1zm1 0h16v1h-16zm16 0h1v1h-1zm1 0h1v1h-1zm-340 1h1v1h-1zm1 0h1v1h-1z"/><path d="M336 97h50v6h-50zm50 0h1v33h-1zm1 0h1v1h-1zm1 0h1v1h-1zm267 0h1v1h-1zm1 0h1v1h-1zm1 0h15v1h-15zm15 0h1v1h-1zm1 0h1v1h-1zm-340 1h1v1h-1zm1 0h1v1h-1z"/><path d="M335 98h52v5h-52zm52 0h1v70h-1zm1 0h1v1h-1zm1 0h1v1h-1zm266 0h1v1h-1zm1 0h15v2h-15zm15 0h1v1h-1zm1 0h1v1h-1zm-340 1h1v1h-1zm1 0h1v1h-1z"/><path d="M334 99h54v4h-54zm54 0h1v68h-1zm1 0h1v1h-1zm1 0h1v1h-1zm264 0h1v1h-1zm1 0h15v2h-15zm16 0h1v1h-1zm1 0h1v1h-1zm-341 1h1v1h-1zm1 0h1v1h-1z"/><path d="M333 100h56v3h-56zm56 0h1v66h-1zm1 0h1v1h-1zm1 0h1v1h-1zm262 0h1v1h-1zm1 0h1v1h-1zm16 0h1v1h-1zm1 0h1v1h-1zm-341 1h1v1h-1zm1 0h1v1h-1z"/><path d="M332 101h58v2h-58zm58 0h1v64h-1zm1 0h1v1h-1zm1 0h1v1h-1zm261 0h1v1h-1zm1 0h15v2h-15zm15 0h1v1h-1zm1 0h1v1h-1zm-341 1h1v1h-1zm1 0h1v1h-1z"/><path d="M331 102h60v1h-60zm60 0h1v62h-1zm1 0h1v1h-1zm1 0h1v1h-1zm259 0h1v1h-1zm1 0h15v2h-15zm16 0h1v1h-1zm1 0h1v1h-1zm-341 1h1v1h-1z"/><path d="M330 103h62v1h-62zm62 0h1v60h-1zm1 0h1v1h-1zm1 0h1v1h-1zm257 0h1v1h-1zm1 0h1v1h-1zm16 0h1v1h-1zm1 0h1v1h-1zm-341 1h1v1h-1zm1 0h24v1h-24zm24 0h1v1h-1zm1 0h1v1h-1zm1 0h1v1h-1zm1 0h1v1h-1zm1 0h1v1h-1zm1 0h1v1h-1zm6 0h1v1h-1zm1 0h1v1h-1zm1 0h1v1h-1zm1 0h1v1h-1zm1 0h1v1h-1z"/><path d="M369 104h24v1h-24zm24 0h1v58h-1zm1 0h1v1h-1zm257 0h1v1h-1zm1 0h15v1h-15zm15 0h1v1h-1zm1 0h1v1h-1zm-341 1h1v1h-1zm1 0h22v1h-22zm22 0h1v1h-1zm1 0h1v1h-1zm1 0h1v1h-1zm1 0h1v1h-1zm16 0h1v1h-1zm1 0h1v1h-1zm1 0h1v1h-1z"/><path d="M372 105h22v1h-22zm22 0h1v55h-1zm1 0h1v1h-1zm255 0h1v1h-1zm1 0h15v2h-15zm15 0h1v1h-1zm1 0h1v1h-1zm121 0h1v1h-1zm1 0h14v1h-14zm14 0h1v1h-1zm1 0h1v1h-1zm-478 1h1v1h-1zm1 0h1v1h-1zm1 0h20v1h-20zm20 0h1v1h-1zm1 0h1v1h-1zm1 0h1v1h-1zm22 0h1v1h-1zm1 0h1v1h-1zm1 0h20v1h-20zm21 0h1v1h-1zm1 0h1v1h-1zm253 0h1v1h-1z"/><path d="M650 106h15v2h-15zm16 0h1v1h-1zm1 0h1v1h-1zm121 0h1v1h-1zm1 0h14v1h-14zm14 0h1v1h-1zm1 0h1v1h-1zm-478 1h1v1h-1zm1 0h19v1h-19zm19 0h1v1h-1zm1 0h1v1h-1zm1 0h1v1h-1zm26 0h1v1h-1zm1 0h1v1h-1zm1 0h19v1h-19zm19 0h1v52h-1zm1 0h1v1h-1zm253 0h1v1h-1zm16 0h1v1h-1zm1 0h1v1h-1zm-341 1h1v1h-1zm1 0h1v1h-1zm1 0h18v1h-18zm18 0h1v1h-1zm1 0h1v1h-1zm1 0h1v1h-1zm28 0h1v1h-1zm1 0h1v1h-1z"/><path d="M377 108h19v1h-19zm19 0h1v49h-1zm1 0h1v1h-1zm251 0h1v1h-1zm1 0h15v2h-15zm15 0h1v1h-1zm1 0h1v1h-1zm-340 1h1v1h-1zm1 0h18v1h-18zm18 0h1v1h-1zm1 0h1v1h-1zm1 0h1v1h-1zm31 0h1v1h-1zm1 0h18v1h-18zm19 0h1v1h-1zm250 0h1v1h-1z"/><path d="M648 109h15v2h-15zm16 0h1v1h-1zm1 0h1v1h-1zm-341 1h1v1h-1zm1 0h1v1h-1zm1 0h17v1h-17zm17 0h1v1h-1zm1 0h1v1h-1zm34 0h1v1h-1zm1 0h18v1h-18zm18 0h1v45h-1zm1 0h1v1h-1zm248 0h1v1h-1zm1 0h1v1h-1zm16 0h1v1h-1zm1 0h1v1h-1zm-340 1h1v1h-1zm1 0h17v2h-17zm17 0h1v1h-1zm1 0h1v1h-1zm36 0h1v1h-1zm1 0h17v1h-17zm18 0h1v1h-1zm248 0h1v1h-1zm1 0h15v1h-15zm15 0h1v1h-1zm1 0h1v1h-1zm-339 1h1v1h-1zm18 0h1v1h-1zm1 0h1v1h-1zm36 0h1v1h-1zm1 0h1v1h-1zm1 0h16v1h-16zm17 0h1v1h-1zm247 0h1v1h-1zm1 0h15v2h-15zm15 0h1v1h-1zm1 0h1v1h-1zm-339 1h1v1h-1zm1 0h17v1h-17zm17 0h1v1h-1zm1 0h1v1h-1zm38 0h1v1h-1zm1 0h1v1h-1z"/><path d="M382 113h16v1h-16zm16 0h1v40h-1zm1 0h1v1h-1zm245 0h1v1h-1zm1 0h1v1h-1zm16 0h1v1h-1zm1 0h1v1h-1zm-339 1h1v1h-1zm1 0h16v2h-16zm16 0h1v1h-1zm1 0h1v1h-1zm40 0h1v1h-1zm1 0h16v1h-16zm17 0h1v1h-1zm99 0h1v1h-1zm1 0h1v1h-1zm1 0h1v1h-1zm1 0h1v1h-1zm1 0h1v1h-1zm1 0h1v1h-1zm1 0h4v12h-4zm4 0h1v12h-1zm1 0h1v1h-1zm1 0h1v1h-1zm1 0h1v1h-1zm1 0h1v1h-1zm1 0h1v1h-1zm1 0h1v1h-1zm130 0h1v1h-1zm1 0h15v1h-15zm15 0h1v1h-1zm1 0h1v1h-1zm43 0h1v1h-1zm1 0h1v1h-1zm1 0h1v1h-1zm1 0h1v1h-1zm1 0h1v1h-1zm1 0h1v13h-1zm1 0h1v12h-1zm1 0h1v12h-1zm180 0h1v1h-1zm1 0h1v1h-1zm1 0h1v1h-1zm1 0h1v1h-1zm1 0h1v1h-1zm1 0h5v12h-5zm5 0h1v12h-1zm1 0h1v1h-1zm1 0h1v1h-1zm1 0h1v1h-1zm1 0h1v1h-1zm1 0h1v1h-1zm1 0h1v1h-1zm-584 1h1v1h-1zm17 0h1v1h-1zm1 0h1v1h-1zm41 0h1v1h-1zm3 0h13v7h-13zm14 0h1v1h-1zm15 0h30v1h-30zm30 0h1v1h-1zm1 0h1v1h-1zm1 0h1v1h-1zm1 0h1v1h-1zm1 0h1v1h-1zm46 0h1v1h-1zm1 0h1v1h-1zm1 0h1v1h-1z"/><path d="M497 115h18v11h-18zm18 0h1v13h-1zm1 0h1v1h-1zm1 0h1v1h-1zm1 0h1v1h-1zm30 0h1v1h-1zm1 0h31v1h-31zm31 0h1v1h-1zm1 0h1v1h-1zm1 0h1v1h-1zm1 0h1v1h-1zm60 0h1v1h-1zm1 0h15v2h-15zm15 0h1v1h-1zm1 0h1v1h-1zm41 0h1v1h-1zm1 0h1v1h-1zm1 0h1v1h-1zm1 0h6v12h-6zm19 0h1v1h-1zm1 0h13v1h-13zm13 0h1v1h-1zm1 0h1v1h-1zm20 0h1v1h-1zm1 0h13v1h-13zm13 0h1v1h-1zm1 0h1v1h-1zm15 0h1v1h-1zm1 0h14v1h-14zm14 0h1v1h-1zm27 0h1v1h-1zm1 0h1v1h-1zm1 0h1v1h-1zm1 0h1v1h-1zm1 0h21v1h-21zm21 0h1v1h-1zm1 0h1v1h-1zm31 0h1v1h-1zm1 0h1v1h-1zm1 0h1v1h-1zm1 0h17v11h-17zm17 0h1v13h-1zm1 0h1v1h-1zm1 0h1v1h-1zm1 0h1v1h-1zm1 0h1v1h-1zm-589 1h1v1h-1zm1 0h16v3h-16zm16 0h1v1h-1zm1 0h1v1h-1zm42 0h1v1h-1zm1 0h16v1h-16zm16 0h1v34h-1zm1 0h1v1h-1zm14 0h34v11h-34zm34 0h1v13h-1zm1 0h1v1h-1zm1 0h1v1h-1zm1 0h1v1h-1zm41 0h1v1h-1zm1 0h1v1h-1z"/><path d="M494 116h24v10h-24zm24 0h1v14h-1zm1 0h1v1h-1zm1 0h1v1h-1zm28 0h1v58h-1zm1 0h34v11h-34zm34 0h1v18h-1zm1 0h1v1h-1zm1 0h1v1h-1zm1 0h1v1h-1zm56 0h1v1h-1zm1 0h1v1h-1zm16 0h1v1h-1zm1 0h1v1h-1zm38 0h1v1h-1zm1 0h1v1h-1zm1 0h1v1h-1zm1 0h9v11h-9zm22 0h1v41h-1zm1 0h13v43h-13zm13 0h1v57h-1zm1 0h1v36h-1zm20 0h1v45h-1zm1 0h13v58h-13zm13 0h1v58h-1zm1 0h1v58h-1zm15 0h1v58h-1zm1 0h14v58h-14zm14 0h1v58h-1zm24 0h1v1h-1zm1 0h1v1h-1zm1 0h1v1h-1zm1 0h25v11h-25zm25 0h1v11h-1zm1 0h1v11h-1zm28 0h1v1h-1zm1 0h1v1h-1zm1 0h1v1h-1zm1 0h24v10h-24zm24 0h1v14h-1zm1 0h1v1h-1zm1 0h1v1h-1zm-591 1h1v1h-1zm17 0h1v1h-1zm44 0h1v1h-1zm17 0h1v1h-1zm49 0h2v13h-2zm2 0h1v17h-1zm1 0h1v1h-1zm1 0h1v1h-1zm1 0h1v1h-1zm36 0h1v1h-1zm1 0h1v1h-1z"/><path d="M492 117h28v9h-28zm28 0h1v16h-1zm1 0h1v1h-1zm1 0h1v1h-1zm62 0h2v57h-2zm2 0h1v57h-1zm1 0h1v1h-1zm1 0h1v1h-1zm54 0h1v1h-1zm1 0h15v1h-15zm15 0h1v1h-1zm1 0h1v1h-1zm37 0h1v1h-1zm1 0h1v1h-1zm1 0h1v1h-1zm1 0h11v10h-11zm126 0h1v1h-1zm1 0h1v1h-1zm1 0h28v10h-28zm55 0h1v1h-1zm1 0h1v1h-1zm1 0h1v1h-1zm1 0h28v9h-28zm28 0h1v16h-1zm1 0h1v1h-1zm1 0h1v1h-1zm-593 1h1v1h-1zm17 0h1v1h-1zm44 0h1v1h-1zm17 0h1v1h-1zm52 0h1v46h-1zm1 0h1v46h-1zm1 0h1v1h-1zm1 0h1v1h-1zm1 0h1v1h-1zm32 0h1v1h-1zm1 0h1v1h-1z"/><path d="M490 118h32v8h-32zm32 0h1v33h-1zm1 0h1v1h-1zm1 0h1v1h-1zm63 0h1v56h-1zm1 0h1v56h-1zm1 0h1v1h-1zm1 0h1v1h-1zm51 0h1v1h-1zm1 0h15v1h-15zm15 0h1v1h-1zm1 0h1v1h-1zm37 0h1v1h-1zm1 0h1v1h-1zm1 0h13v9h-13zm126 0h1v1h-1zm1 0h1v1h-1zm1 0h30v9h-30zm56 0h1v1h-1zm1 0h1v1h-1zm1 0h32v8h-32zm32 0h1v33h-1zm1 0h1v1h-1zm1 0h1v1h-1zm-595 1h16v4h-16zm16 0h1v1h-1zm1 0h1v1h-1zm44 0h1v1h-1zm1 0h16v1h-16zm16 0h1v27h-1zm54 0h1v44h-1zm1 0h1v44h-1zm1 0h1v1h-1zm1 0h1v1h-1zm29 0h1v1h-1zm1 0h1v1h-1z"/><path d="M488 119h36v7h-36zm36 0h1v32h-1zm1 0h1v1h-1zm1 0h1v1h-1zm63 0h1v55h-1zm1 0h1v1h-1zm1 0h1v1h-1zm49 0h1v1h-1zm1 0h1v1h-1zm1 0h14v2h-14zm14 0h1v1h-1zm1 0h1v1h-1zm36 0h1v1h-1zm1 0h1v1h-1zm1 0h15v8h-15zm127 0h1v1h-1zm1 0h32v8h-32zm56 0h1v1h-1zm1 0h1v1h-1zm1 0h36v7h-36zm36 0h1v32h-1zm1 0h1v1h-1zm-597 1h1v1h-1zm17 0h1v1h-1zm46 0h1v1h-1zm17 0h1v1h-1zm55 0h1v42h-1zm1 0h1v41h-1zm1 0h1v1h-1zm27 0h1v1h-1zm1 0h1v1h-1z"/><path d="M487 120h38v6h-38zm38 0h1v31h-1zm1 0h1v1h-1zm1 0h1v1h-1zm63 0h1v54h-1zm1 0h1v54h-1zm1 0h1v1h-1zm48 0h1v1h-1zm1 0h14v2h-14zm15 0h1v1h-1zm1 0h1v1h-1zm35 0h1v1h-1zm1 0h1v1h-1zm1 0h16v7h-16zm126 0h1v1h-1zm1 0h1v1h-1zm1 0h33v7h-33zm56 0h1v1h-1zm1 0h1v1h-1zm1 0h38v6h-38zm38 0h1v31h-1zm1 0h1v1h-1zm1 0h1v1h-1zm-599 1h1v1h-1zm17 0h1v1h-1zm46 0h1v1h-1zm17 0h1v1h-1zm57 0h1v39h-1zm1 0h1v1h-1zm25 0h1v1h-1zm1 0h1v1h-1z"/><path d="M486 121h40v5h-40zm40 0h1v30h-1zm1 0h1v1h-1zm1 0h1v1h-1zm64 0h1v53h-1zm1 0h1v1h-1zm46 0h1v1h-1zm1 0h15v1h-15zm15 0h1v1h-1zm1 0h1v1h-1zm35 0h1v1h-1zm1 0h1v1h-1zm1 0h17v6h-17zm127 0h1v1h-1zm1 0h34v6h-34zm56 0h1v1h-1zm1 0h41v5h-41zm41 0h1v30h-1zm1 0h1v1h-1zm1 0h1v1h-1zm-600 1h1v1h-1zm17 0h1v1h-1zm46 0h1v1h-1zm1 0h15v1h-15zm16 0h1v1h-1zm58 0h1v38h-1zm1 0h1v1h-1zm23 0h1v1h-1zm1 0h1v1h-1z"/><path d="M485 122h42v4h-42zm42 0h1v29h-1zm1 0h1v1h-1zm1 0h1v1h-1zm64 0h1v52h-1zm1 0h1v1h-1zm44 0h1v1h-1zm1 0h1v1h-1zm1 0h14v2h-14zm14 0h1v1h-1zm1 0h1v1h-1zm35 0h1v1h-1zm1 0h19v5h-19zm128 0h1v1h-1zm1 0h35v5h-35zm56 0h1v1h-1zm1 0h43v4h-43zm43 0h1v29h-1zm1 0h1v1h-1zm1 0h1v1h-1zm-601 1h1v1h-1zm1 0h15v23h-15zm15 0h1v1h-1zm48 0h1v1h-1zm16 0h1v1h-1zm59 0h1v35h-1zm1 0h1v1h-1zm21 0h1v1h-1zm1 0h1v1h-1z"/><path d="M484 123h44v3h-44zm44 0h1v28h-1zm1 0h1v1h-1zm1 0h1v1h-1zm64 0h1v1h-1zm1 0h1v1h-1zm43 0h1v1h-1zm1 0h14v2h-14zm15 0h1v1h-1zm1 0h1v1h-1zm34 0h1v1h-1zm1 0h20v4h-20zm128 0h1v1h-1zm1 0h36v4h-36zm56 0h1v1h-1zm1 0h45v3h-45zm45 0h1v28h-1zm1 0h1v1h-1zm1 0h1v1h-1zm-602 1h1v1h-1zm16 0h1v1h-1zm48 0h1v1h-1zm16 0h1v1h-1zm60 0h1v33h-1zm1 0h1v1h-1zm19 0h1v1h-1zm1 0h1v1h-1z"/><path d="M483 124h46v2h-46zm46 0h1v27h-1zm1 0h1v1h-1zm1 0h1v1h-1zm63 0h1v50h-1zm1 0h1v1h-1zm42 0h1v1h-1zm1 0h15v1h-15zm15 0h1v1h-1zm1 0h1v1h-1zm34 0h1v1h-1zm1 0h1v1h-1zm128 0h1v1h-1zm1 0h1v1h-1zm56 0h1v1h-1zm1 0h1v1h-1zm47 0h1v27h-1zm1 0h1v1h-1zm-602 1h15v15h-15zm16 0h1v1h-1zm48 0h1v1h-1zm16 0h1v16h-1zm61 0h1v1h-1zm1 0h1v1h-1zm18 0h1v1h-1z"/><path d="M482 125h48v1h-48zm48 0h1v26h-1zm1 0h1v1h-1zm64 0h1v49h-1zm1 0h1v1h-1zm40 0h1v1h-1zm1 0h15v1h-15zm15 0h1v1h-1zm1 0h1v1h-1zm34 0h1v1h-1zm1 0h1v1h-1zm1 0h21v2h-21zm128 0h1v1h-1zm1 0h37v2h-37zm55 0h1v1h-1zm1 0h1v1h-1zm1 0h48v1h-48zm48 0h1v26h-1zm1 0h1v1h-1zm-587 1h1v1h-1zm48 0h1v1h-1zm77 0h1v30h-1zm1 0h1v1h-1zm17 0h1v1h-1z"/><path d="M481 126h50v1h-50zm50 0h1v25h-1zm1 0h1v1h-1zm64 0h1v1h-1zm40 0h1v1h-1zm1 0h14v2h-14zm14 0h1v1h-1zm1 0h1v1h-1zm35 0h1v1h-1zm1 0h22v1h-22zm22 0h1v1h-1zm1 0h1v1h-1zm106 0h1v1h-1zm56 0h1v1h-1zm1 0h50v1h-50zm50 0h1v25h-1zm1 0h1v1h-1zm-605 1h1v1h-1zm17 0h1v1h-1zm48 0h1v1h-1zm17 0h1v11h-1zm12 0h49v1h-49zm49 0h1v27h-1zm1 0h1v1h-1zm15 0h1v1h-1zm1 0h1v1h-1zm1 0h20v1h-20zm20 0h1v1h-1zm1 0h1v1h-1zm1 0h1v1h-1zm1 0h4v1h-4zm4 0h1v1h-1zm1 0h1v1h-1zm1 0h1v1h-1zm1 0h1v1h-1zm1 0h19v1h-19zm20 0h1v1h-1zm1 0h1v1h-1zm16 0h47v1h-47zm47 0h1v47h-1zm1 0h1v1h-1zm38 0h1v1h-1z"/><path d="M636 127h14v2h-14zm15 0h1v1h-1zm1 0h1v1h-1zm34 0h1v1h-1zm1 0h22v1h-22zm22 0h1v1h-1zm1 0h1v1h-1zm1 0h1v1h-1zm105 0h1v1h-1zm1 0h38v1h-38zm38 0h1v1h-1zm1 0h1v1h-1zm16 0h1v1h-1zm1 0h21v1h-21zm21 0h1v1h-1zm1 0h1v1h-1zm1 0h1v1h-1zm1 0h4v1h-4zm4 0h1v1h-1zm1 0h1v1h-1zm1 0h1v1h-1zm1 0h20v1h-20zm21 0h1v1h-1zm-605 1h1v10h-1zm17 0h1v1h-1zm77 0h14v70h-14zm14 0h1v70h-1zm1 0h1v1h-1zm1 0h9v1h-9zm9 0h1v1h-1zm1 0h1v1h-1zm1 0h1v1h-1zm1 0h1v1h-1zm1 0h1v1h-1zm1 0h19v1h-19zm20 0h1v1h-1zm15 0h1v1h-1zm1 0h18v1h-18zm18 0h1v1h-1zm1 0h1v1h-1zm1 0h1v1h-1zm1 0h1v1h-1zm11 0h1v1h-1zm1 0h1v1h-1zm1 0h1v1h-1zm1 0h17v1h-17zm17 0h1v23h-1zm1 0h1v1h-1zm16 0h14v46h-14zm14 0h1v46h-1zm1 0h9v1h-9zm9 0h1v1h-1zm1 0h1v1h-1zm1 0h1v1h-1zm1 0h20v1h-20zm21 0h1v1h-1zm37 0h1v1h-1z"/><path d="M635 128h15v1h-15zm15 0h1v1h-1zm1 0h1v1h-1zm34 0h1v1h-1zm1 0h1v1h-1zm1 0h19v1h-19zm19 0h1v1h-1zm1 0h1v1h-1zm1 0h1v1h-1zm1 0h1v1h-1zm107 0h1v1h-1zm1 0h17v1h-17zm17 0h1v1h-1zm1 0h1v1h-1zm1 0h19v1h-19zm19 0h1v1h-1zm1 0h1v1h-1zm16 0h1v1h-1zm1 0h18v1h-18zm18 0h1v1h-1zm1 0h1v1h-1zm1 0h1v1h-1zm1 0h1v1h-1zm11 0h1v1h-1zm1 0h1v1h-1zm1 0h18v1h-18zm18 0h1v23h-1zm1 0h1v1h-1zm-589 1h1v1h-1zm92 0h1v24h-1zm16 0h1v1h-1zm1 0h1v1h-1zm1 0h17v1h-17zm17 0h1v23h-1zm1 0h1v1h-1zm13 0h1v1h-1zm1 0h17v1h-17zm17 0h1v1h-1zm1 0h1v1h-1zm1 0h1v1h-1zm16 0h1v1h-1zm1 0h1v1h-1zm1 0h16v1h-16zm17 0h1v1h-1zm1 0h1v1h-1zm42 0h1v1h-1zm1 0h1v1h-1zm1 0h1v1h-1zm1 0h17v1h-17zm18 0h1v1h-1zm36 0h1v1h-1zm1 0h1v1h-1zm1 0h14v2h-14zm14 0h1v1h-1zm1 0h1v1h-1zm35 0h1v1h-1zm1 0h18v1h-18zm18 0h1v1h-1zm1 0h1v1h-1zm1 0h1v1h-1zm110 0h1v1h-1zm1 0h15v1h-15zm15 0h1v1h-1zm1 0h1v1h-1zm1 0h1v1h-1zm37 0h1v1h-1zm1 0h17v1h-17zm17 0h1v1h-1zm1 0h1v1h-1zm1 0h1v1h-1zm16 0h1v1h-1zm1 0h1v1h-1zm1 0h16v1h-16zm17 0h1v1h-1zm-540 1h15v1h-15zm61 0h1v1h-1zm1 0h1v1h-1zm1 0h15v1h-15zm16 0h1v1h-1zm13 0h1v1h-1zm1 0h16v1h-16zm16 0h1v1h-1zm1 0h1v1h-1zm1 0h1v1h-1zm19 0h1v1h-1zm1 0h1v1h-1zm1 0h15v1h-15zm15 0h1v21h-1zm1 0h1v1h-1zm45 0h1v1h-1zm1 0h17v1h-17zm17 0h1v44h-1zm1 0h1v1h-1zm35 0h1v1h-1z"/><path d="M634 130h14v6h-14zm15 0h1v1h-1zm1 0h1v1h-1zm34 0h1v1h-1zm1 0h17v1h-17zm17 0h1v1h-1zm1 0h1v1h-1zm1 0h1v1h-1zm112 0h1v2h-1zm1 0h14v6h-14zm14 0h1v1h-1zm1 0h1v1h-1zm39 0h1v1h-1zm1 0h16v1h-16zm16 0h1v1h-1zm1 0h1v1h-1zm1 0h1v1h-1zm19 0h1v1h-1zm1 0h1v1h-1zm1 0h15v1h-15zm15 0h1v21h-1zm1 0h1v1h-1zm-541 1h1v3h-1zm62 0h1v1h-1zm1 0h1v1h-1zm1 0h14v1h-14zm15 0h1v1h-1zm13 0h1v1h-1zm1 0h15v2h-15zm15 0h1v1h-1zm1 0h1v1h-1zm1 0h1v1h-1zm21 0h1v1h-1zm1 0h1v1h-1zm1 0h14v1h-14zm15 0h1v1h-1zm46 0h1v1h-1zm1 0h16v1h-16zm17 0h1v1h-1zm33 0h1v1h-1zm1 0h1v1h-1z"/><path d="M633 131h15v3h-15zm15 0h1v1h-1zm1 0h1v1h-1zm35 0h1v1h-1zm1 0h16v1h-16zm16 0h1v1h-1zm1 0h1v1h-1zm1 0h1v1h-1zm128 0h1v1h-1zm39 0h1v1h-1zm1 0h16v2h-16zm16 0h1v1h-1zm1 0h1v1h-1zm22 0h1v1h-1zm1 0h1v1h-1zm1 0h14v1h-14zm15 0h1v1h-1zm-478 1h1v1h-1zm1 0h1v1h-1zm15 0h1v17h-1zm1 0h1v1h-1zm11 0h1v1h-1zm1 0h15v3h-15zm16 0h1v1h-1zm1 0h1v1h-1zm23 0h1v1h-1zm1 0h1v1h-1zm2 0h13v4h-13zm13 0h1v19h-1zm1 0h1v1h-1zm46 0h1v1h-1zm1 0h15v1h-15zm16 0h1v1h-1zm33 0h1v1h-1zm1 0h1v1h-1zm16 0h1v1h-1zm35 0h1v1h-1zm1 0h16v2h-16zm16 0h1v1h-1zm1 0h1v1h-1zm1 0h1v1h-1zm114 0h1v1h-1zm15 0h1v1h-1zm39 0h1v1h-1zm17 0h1v1h-1zm1 0h1v1h-1zm23 0h1v1h-1zm1 0h15v1h-15zm15 0h1v19h-1zm1 0h1v1h-1zm-478 1h1v1h-1zm16 0h1v1h-1zm11 0h1v1h-1zm16 0h1v1h-1zm1 0h1v1h-1zm25 0h1v1h-1z"/><path d="M520 133h14v1h-14zm15 0h1v1h-1zm47 0h1v1h-1zm16 0h1v41h-1zm33 0h1v1h-1zm1 0h15v1h-15zm16 0h1v1h-1zm35 0h1v1h-1zm17 0h1v1h-1zm1 0h1v1h-1zm115 0h1v1h-1zm15 0h1v1h-1zm1 0h1v1h-1zm38 0h1v1h-1zm1 0h15v2h-15zm15 0h1v1h-1zm1 0h1v1h-1zm25 0h1v1h-1zm1 0h14v1h-14zm15 0h1v1h-1zm-542 1h1v1h-1zm64 0h1v1h-1zm1 0h14v1h-14zm15 0h1v1h-1zm11 0h1v1h-1zm16 0h1v1h-1zm27 0h1v1h-1zm15 0h1v1h-1zm47 0h1v1h-1zm1 0h14v1h-14zm48 0h1v40h-1zm1 0h1v1h-1zm1 0h14v1h-14zm15 0h1v1h-1zm1 0h1v1h-1zm34 0h1v1h-1zm1 0h15v1h-15zm15 0h1v1h-1zm1 0h1v1h-1zm116 0h1v1h-1zm15 0h1v13h-1zm1 0h1v1h-1zm1 0h1v1h-1zm36 0h1v1h-1z"/><path d="M870 134h15v21h-15zm16 0h1v1h-1zm26 0h1v1h-1zm1 0h1v1h-1zm1 0h13v2h-13zm14 0h1v1h-1zm-542 1h1v1h-1zm65 0h1v1h-1zm15 0h1v1h-1zm10 0h1v1h-1zm1 0h15v19h-15zm15 0h1v1h-1zm1 0h1v1h-1zm27 0h1v1h-1zm15 0h1v16h-1zm1 0h1v1h-1zm47 0h1v1h-1zm49 0h1v1h-1zm1 0h1v1h-1zm15 0h1v20h-1zm1 0h1v1h-1zm33 0h1v1h-1zm1 0h15v3h-15zm15 0h1v1h-1zm1 0h1v1h-1zm117 0h1v1h-1zm16 0h1v13h-1zm1 0h1v13h-1zm1 0h1v1h-1zm1 0h1v1h-1zm34 0h1v1h-1zm16 0h1v1h-1zm1 0h1v1h-1zm27 0h1v1h-1zm15 0h1v16h-1zm-542 1h15v10h-15zm65 0h1v1h-1zm15 0h1v1h-1zm10 0h1v1h-1zm16 0h1v1h-1zm28 0h1v1h-1zm1 0h14v1h-14zm15 0h1v1h-1zm47 0h1v1h-1zm50 0h1v1h-1z"/><path d="M634 136h15v1h-15zm15 0h1v21h-1zm1 0h1v1h-1zm32 0h1v1h-1zm16 0h1v1h-1zm1 0h1v1h-1zm117 0h1v1h-1zm1 0h18v1h-18zm18 0h1v13h-1zm1 0h1v1h-1zm1 0h1v1h-1zm1 0h1v1h-1zm31 0h1v1h-1zm16 0h1v1h-1zm28 0h1v1h-1zm1 0h14v1h-14zm15 0h1v1h-1zm-592 1h1v1h-1zm114 0h1v1h-1zm15 0h1v8h-1zm10 0h1v1h-1zm16 0h1v1h-1zm29 0h1v1h-1zm2 0h12v14h-12zm13 0h1v1h-1zm47 0h1v37h-1zm51 0h1v1h-1zm1 0h14v1h-14zm15 0h1v1h-1zm1 0h1v1h-1zm31 0h1v1h-1zm16 0h1v1h-1zm119 0h1v1h-1z"/><path d="M818 137h20v1h-20zm20 0h1v13h-1zm1 0h1v1h-1zm1 0h1v1h-1zm1 0h1v1h-1zm28 0h1v1h-1zm16 0h1v1h-1zm29 0h1v1h-1zm2 0h12v14h-12zm13 0h1v1h-1zm-609 1h1v1h-1zm17 0h1v1h-1zm48 0h1v1h-1zm17 0h1v1h-1zm49 0h1v5h-1zm25 0h1v1h-1zm16 0h1v1h-1zm29 0h1v1h-1zm15 0h1v1h-1zm99 0h1v1h-1zm1 0h14v1h-14zm14 0h1v20h-1zm1 0h1v1h-1zm31 0h1v1h-1zm1 0h14v36h-14zm14 0h1v1h-1zm1 0h1v1h-1zm119 0h1v1h-1z"/><path d="M818 138h23v1h-23zm23 0h1v13h-1zm1 0h1v1h-1zm1 0h1v1h-1zm1 0h1v1h-1zm25 0h1v1h-1zm16 0h1v1h-1zm29 0h1v1h-1zm15 0h1v1h-1zm-609 1h1v1h-1zm17 0h1v1h-1zm48 0h1v1h-1zm17 0h1v1h-1zm74 0h1v1h-1zm16 0h1v1h-1zm29 0h1v1h-1zm15 0h1v1h-1zm99 0h1v1h-1zm1 0h1v1h-1zm1 0h14v1h-14zm14 0h1v20h-1zm1 0h1v1h-1zm30 0h14v35h-14zm15 0h1v1h-1zm121 0h1v1h-1z"/><path d="M819 139h25v1h-25zm25 0h1v14h-1zm1 0h1v1h-1zm1 0h1v1h-1zm1 0h1v1h-1zm22 0h15v11h-15zm16 0h1v1h-1zm29 0h1v1h-1zm15 0h1v1h-1zm-608 1h15v1h-15zm16 0h1v1h-1zm48 0h1v1h-1zm82 0h1v1h-1zm9 0h59v9h-59zm60 0h1v1h-1zm100 0h1v1h-1zm1 0h15v1h-15zm15 0h1v21h-1zm1 0h1v1h-1zm44 0h1v1h-1zm121 0h1v1h-1z"/><path d="M819 140h28v1h-28zm28 0h1v33h-1zm1 0h1v1h-1zm1 0h1v1h-1zm19 0h1v1h-1zm17 0h43v11h-43zm44 0h1v1h-1zm-608 1h1v1h-1zm16 0h1v1h-1zm48 0h1v1h-1zm16 0h1v1h-1zm66 0h1v1h-1zm69 0h1v10h-1zm101 0h1v1h-1zm1 0h14v1h-14zm15 0h1v1h-1zm1 0h1v1h-1zm27 0h1v33h-1zm16 0h1v1h-1zm122 0h1v1h-1z"/><path d="M820 141h29v1h-29zm29 0h1v31h-1zm1 0h1v1h-1zm1 0h1v1h-1zm17 0h1v7h-1zm61 0h1v1h-1zm-608 1h1v1h-1zm16 0h1v1h-1zm48 0h1v1h-1zm16 0h1v1h-1zm66 0h1v1h-1zm170 0h1v1h-1zm1 0h1v1h-1zm1 0h14v1h-14zm14 0h1v20h-1zm1 0h1v1h-1zm43 0h1v32h-1zm122 0h1v1h-1zm1 0h1v1h-1z"/><path d="M821 142h30v1h-30zm30 0h1v29h-1zm1 0h1v1h-1zm1 0h1v1h-1zm76 0h1v9h-1zm-608 1h1v1h-1zm16 0h1v26h-1zm1 0h1v1h-1zm47 0h1v1h-1zm16 0h1v1h-1zm50 0h1v1h-1zm24 0h1v2h-1zm163 0h1v1h-1zm1 0h15v1h-15zm15 0h1v21h-1zm1 0h1v1h-1zm165 0h1v1h-1zm1 0h1v1h-1z"/><path d="M822 143h31v1h-31zm31 0h1v27h-1zm1 0h1v1h-1zm1 0h1v1h-1zm-534 1h1v1h-1zm17 0h1v1h-1zm46 0h1v1h-1zm1 0h15v6h-15zm16 0h1v1h-1zm50 0h1v1h-1zm188 0h1v1h-1zm1 0h15v1h-15zm15 0h1v21h-1zm1 0h1v1h-1zm165 0h1v1h-1zm1 0h1v1h-1z"/><path d="M823 144h31v1h-31zm31 0h1v25h-1zm1 0h1v1h-1zm1 0h1v1h-1zm-535 1h1v1h-1zm17 0h1v1h-1zm46 0h1v1h-1zm17 0h1v1h-1zm50 0h1v1h-1zm15 0h1v1h-1zm9 0h1v1h-1zm165 0h1v1h-1zm1 0h14v1h-14zm15 0h1v1h-1zm1 0h1v1h-1zm165 0h1v1h-1zm1 0h1v1h-1z"/><path d="M824 145h32v1h-32zm32 0h1v22h-1zm1 0h1v1h-1zm-536 1h1v1h-1zm1 0h15v1h-15zm16 0h1v1h-1zm46 0h1v1h-1zm16 0h1v1h-1zm1 0h1v1h-1zm50 0h1v1h-1zm15 0h1v1h-1zm9 0h1v1h-1zm165 0h1v1h-1zm1 0h1v1h-1zm1 0h14v1h-14zm14 0h1v20h-1zm1 0h1v1h-1zm167 0h1v1h-1zm1 0h1v1h-1z"/><path d="M826 146h31v1h-31zm31 0h1v20h-1zm1 0h1v1h-1zm-536 1h1v1h-1zm1 0h15v3h-15zm15 0h1v23h-1zm1 0h1v1h-1zm44 0h1v1h-1zm1 0h15v6h-15zm16 0h1v1h-1zm51 0h1v1h-1zm15 0h1v1h-1zm175 0h1v1h-1zm1 0h15v1h-15zm15 0h1v21h-1zm1 0h1v1h-1zm168 0h1v1h-1zm1 0h1v1h-1zm1 0h1v1h-1zm1 0h28v1h-28zm29 0h1v1h-1zm1 0h1v1h-1zm-537 1h1v1h-1zm17 0h1v1h-1zm44 0h1v1h-1zm17 0h1v1h-1zm50 0h1v1h-1zm1 0h14v4h-14zm15 0h1v1h-1zm176 0h1v1h-1z"/><path d="M643 148h15v1h-15zm15 0h1v21h-1zm1 0h1v1h-1zm170 0h1v1h-1zm1 0h1v1h-1zm1 0h1v1h-1zm1 0h26v1h-26zm26 0h1v16h-1zm1 0h1v1h-1zm9 0h1v1h-1zm-546 1h1v1h-1zm17 0h1v21h-1zm1 0h1v1h-1zm42 0h1v1h-1zm1 0h1v1h-1zm17 0h1v1h-1zm50 0h1v1h-1zm15 0h1v1h-1zm1 0h1v1h-1zm10 0h60v1h-60zm166 0h1v1h-1zm1 0h1v1h-1zm1 0h14v1h-14zm15 0h1v1h-1zm1 0h1v1h-1zm171 0h1v1h-1zm1 0h1v1h-1zm1 0h1v1h-1z"/><path d="M834 149h25v1h-25zm25 0h1v14h-1zm1 0h1v1h-1zm-538 1h1v1h-1zm1 0h16v1h-16zm17 0h1v1h-1zm42 0h1v1h-1zm1 0h16v3h-16zm16 0h1v1h-1zm1 0h1v1h-1zm49 0h1v1h-1zm1 0h14v4h-14zm15 0h1v1h-1zm11 0h1v1h-1zm16 0h44v1h-44zm151 0h1v1h-1zm1 0h15v1h-15zm15 0h1v21h-1zm1 0h1v1h-1zm174 0h1v1h-1zm1 0h1v1h-1zm1 0h1v1h-1zm1 0h22v1h-22zm23 0h1v1h-1zm9 0h60v1h-60zm-546 1h1v1h-1zm1 0h16v2h-16zm16 0h1v20h-1zm1 0h1v1h-1zm40 0h1v1h-1zm1 0h1v1h-1zm17 0h1v1h-1zm49 0h1v1h-1zm1 0h1v1h-1zm16 0h1v1h-1zm11 0h1v1h-1zm16 0h44v1h-44zm44 0h1v1h-1zm108 0h1v1h-1z"/><path d="M645 151h15v1h-15zm15 0h1v21h-1zm1 0h1v1h-1zm176 0h1v1h-1zm1 0h1v1h-1zm1 0h1v1h-1zm1 0h19v1h-19zm20 0h1v1h-1zm9 0h1v1h-1zm16 0h44v1h-44zm44 0h1v1h-1zm-606 1h1v1h-1zm18 0h1v1h-1zm40 0h1v1h-1zm1 0h16v3h-16zm17 0h1v1h-1zm47 0h1v1h-1zm1 0h1v1h-1zm1 0h16v2h-16zm16 0h1v1h-1zm1 0h1v1h-1zm11 0h1v1h-1zm16 0h1v20h-1zm1 0h1v1h-1zm1 0h42v1h-42zm42 0h1v1h-1zm109 0h1v1h-1z"/><path d="M646 152h15v1h-15zm15 0h1v21h-1zm1 0h1v1h-1zm76 0h1v1h-1zm102 0h1v1h-1zm1 0h1v1h-1zm1 0h18v1h-18zm18 0h1v8h-1zm1 0h1v1h-1zm8 0h1v1h-1zm16 0h1v1h-1zm1 0h43v1h-43zm43 0h1v1h-1zm-606 1h1v1h-1zm1 0h17v1h-17zm17 0h1v18h-1zm1 0h1v1h-1zm38 0h1v1h-1zm1 0h17v2h-17zm17 0h1v1h-1zm1 0h1v1h-1zm30 0h1v1h-1zm13 0h1v1h-1zm1 0h1v1h-1zm1 0h1v1h-1zm1 0h1v1h-1zm1 0h17v3h-17zm18 0h1v1h-1zm12 0h1v1h-1zm17 0h1v1h-1zm152 0h1v1h-1zm1 0h1v1h-1zm1 0h14v1h-14zm15 0h1v1h-1zm1 0h1v1h-1zm75 0h1v1h-1zm104 0h1v1h-1zm1 0h1v1h-1zm1 0h16v1h-16zm17 0h1v1h-1zm8 0h1v1h-1zm16 0h1v19h-1zm1 0h1v1h-1zm-562 1h1v1h-1z"/><path d="M325 154h17v1h-17zm17 0h1v18h-1zm1 0h1v1h-1zm36 0h1v1h-1zm1 0h1v1h-1zm18 0h1v1h-1zm31 0h34v2h-34zm34 0h1v1h-1zm1 0h1v1h-1zm12 0h1v1h-1zm1 0h15v1h-15zm16 0h1v1h-1zm153 0h1v1h-1zm1 0h15v1h-15zm15 0h1v20h-1zm1 0h1v1h-1zm75 0h1v19h-1zm106 0h1v1h-1zm1 0h1v1h-1zm1 0h14v1h-14zm15 0h1v3h-1zm8 0h1v1h-1zm17 0h1v1h-1zm-562 1h1v1h-1zm1 0h17v1h-17zm18 0h1v1h-1zm1 0h1v1h-1zm34 0h1v1h-1zm1 0h1v1h-1zm1 0h17v2h-17zm17 0h1v1h-1zm1 0h1v1h-1zm65 0h1v1h-1zm1 0h1v1h-1zm13 0h1v1h-1zm1 0h15v2h-15zm15 0h1v17h-1zm1 0h1v1h-1zm153 0h1v1h-1z"/><path d="M648 155h15v1h-15zm15 0h1v19h-1zm1 0h1v1h-1zm75 0h1v1h-1zm106 0h1v1h-1zm1 0h14v1h-14zm23 0h1v1h-1zm1 0h16v1h-16zm16 0h1v17h-1zm1 0h1v1h-1zm-562 1h1v1h-1zm1 0h17v1h-17zm17 0h1v16h-1zm1 0h1v1h-1zm1 0h1v1h-1zm32 0h1v1h-1zm1 0h1v1h-1zm1 0h17v3h-17zm18 0h1v1h-1zm32 0h33v1h-33zm33 0h1v1h-1zm1 0h1v1h-1zm14 0h1v1h-1zm17 0h1v1h-1zm153 0h1v1h-1zm1 0h1v1h-1zm16 0h1v18h-1zm1 0h1v1h-1zm74 0h1v1h-1zm107 0h1v1h-1zm2 0h12v7h-12zm22 0h1v1h-1zm1 0h15v2h-15zm16 0h1v1h-1zm-562 1h1v1h-1z"/><path d="M326 157h18v1h-18zm18 0h1v15h-1zm1 0h1v1h-1zm1 0h1v1h-1zm30 0h1v1h-1zm1 0h1v1h-1zm1 0h18v2h-18zm18 0h1v1h-1zm1 0h1v1h-1zm32 0h32v1h-32zm32 0h1v1h-1zm1 0h1v1h-1zm15 0h1v1h-1zm1 0h16v1h-16zm16 0h1v15h-1zm1 0h1v1h-1zm153 0h1v1h-1zm1 0h15v1h-15zm16 0h1v1h-1zm1 0h1v1h-1zm57 0h1v1h-1zm16 0h1v17h-1zm1 0h1v1h-1zm106 0h1v1h-1zm15 0h1v1h-1zm9 0h1v1h-1zm17 0h1v15h-1zm1 0h1v1h-1zm-562 1h1v1h-1z"/><path d="M327 158h19v1h-19zm19 0h1v15h-1zm1 0h1v1h-1zm28 0h1v1h-1zm1 0h19v2h-19zm20 0h1v1h-1zm33 0h31v2h-31zm31 0h1v1h-1zm1 0h1v1h-1zm1 0h1v1h-1zm16 0h1v1h-1zm1 0h16v2h-16zm16 0h1v15h-1zm1 0h1v1h-1zm153 0h1v1h-1zm1 0h15v1h-15zm15 0h1v16h-1zm1 0h1v1h-1zm57 0h1v1h-1zm17 0h1v1h-1zm1 0h1v1h-1zm104 0h1v1h-1zm1 0h14v5h-14zm15 0h1v1h-1zm9 0h1v1h-1zm1 0h17v1h-17zm17 0h1v15h-1zm1 0h1v1h-1zm-563 1h1v1h-1z"/><path d="M327 159h20v1h-20zm20 0h1v14h-1zm1 0h1v1h-1zm1 0h1v1h-1zm24 0h1v1h-1zm1 0h1v1h-1zm1 0h20v1h-20zm20 0h1v1h-1zm1 0h1v1h-1zm64 0h1v1h-1zm1 0h1v1h-1zm17 0h1v1h-1zm18 0h1v14h-1zm1 0h1v1h-1zm1 0h1v1h-1zm152 0h1v1h-1zm1 0h15v1h-15zm15 0h1v15h-1zm1 0h1v1h-1zm56 0h1v1h-1zm1 0h16v1h-16zm16 0h1v15h-1zm1 0h1v1h-1zm1 0h1v1h-1zm103 0h1v1h-1zm16 0h1v1h-1zm10 0h1v1h-1zm1 0h17v1h-17zm17 0h1v14h-1zm1 0h1v1h-1zm1 0h1v1h-1zm-564 1h1v1h-1z"/><path d="M328 160h21v1h-21zm21 0h1v14h-1zm1 0h1v1h-1zm1 0h1v1h-1zm20 0h1v1h-1zm1 0h1v1h-1zm1 0h21v2h-21zm21 0h1v1h-1zm1 0h1v1h-1zm34 0h30v1h-30zm30 0h1v1h-1zm1 0h1v1h-1zm18 0h1v1h-1zm1 0h18v1h-18zm18 0h1v13h-1zm1 0h1v1h-1zm1 0h1v1h-1zm1 0h1v1h-1zm150 0h1v1h-1zm1 0h1v1h-1zm16 0h1v14h-1zm1 0h1v1h-1zm56 0h1v1h-1zm1 0h16v2h-16zm16 0h1v14h-1zm1 0h1v1h-1zm1 0h1v1h-1zm101 0h1v1h-1zm1 0h15v3h-15zm15 0h1v1h-1zm1 0h1v1h-1zm10 0h1v1h-1zm1 0h18v1h-18zm18 0h1v13h-1zm1 0h1v1h-1zm1 0h1v1h-1zm1 0h1v1h-1zm-566 1h1v1h-1zm1 0h1v1h-1z"/><path d="M329 161h22v1h-22zm22 0h1v13h-1zm1 0h1v1h-1zm1 0h1v1h-1zm1 0h1v1h-1zm14 0h1v1h-1zm1 0h1v1h-1zm1 0h1v1h-1zm1 0h22v2h-22zm23 0h1v1h-1zm1 0h1v1h-1zm34 0h28v1h-28zm28 0h1v1h-1zm1 0h1v1h-1zm1 0h1v1h-1zm20 0h1v1h-1zm1 0h20v1h-20zm20 0h1v13h-1zm1 0h1v1h-1zm1 0h1v1h-1zm1 0h1v1h-1zm1 0h1v1h-1zm147 0h1v1h-1zm1 0h15v1h-15zm16 0h1v1h-1zm1 0h1v1h-1zm55 0h1v1h-1zm18 0h1v13h-1zm1 0h1v13h-1zm1 0h1v1h-1zm1 0h1v1h-1zm1 0h1v1h-1zm1 0h1v1h-1zm11 0h1v1h-1zm83 0h1v1h-1zm1 0h1v1h-1zm1 0h1v1h-1zm1 0h15v3h-15zm16 0h1v1h-1zm12 0h1v1h-1zm1 0h20v1h-20zm20 0h1v13h-1zm1 0h1v1h-1zm1 0h1v1h-1zm1 0h1v1h-1zm1 0h1v1h-1zm-569 1h1v1h-1z"/><path d="M329 162h26v1h-26zm26 0h1v13h-1zm1 0h1v1h-1zm1 0h1v1h-1zm1 0h1v1h-1zm1 0h1v1h-1zm1 0h1v1h-1zm1 0h1v1h-1zm1 0h1v1h-1zm1 0h1v1h-1zm1 0h1v1h-1zm1 0h1v1h-1zm1 0h1v1h-1zm1 0h26v1h-26zm26 0h1v1h-1zm1 0h1v1h-1zm35 0h27v1h-27zm27 0h1v1h-1zm1 0h1v1h-1zm1 0h1v1h-1zm21 0h1v1h-1zm1 0h1v1h-1zm1 0h46v1h-46zm46 0h1v12h-1zm125 0h1v1h-1zm1 0h15v1h-15zm15 0h1v12h-1zm1 0h1v1h-1zm55 0h1v1h-1zm1 0h47v1h-47zm94 0h1v12h-1zm1 0h39v2h-39zm40 0h1v1h-1zm12 0h1v1h-1zm1 0h46v1h-46zm46 0h1v12h-1zm1 0h1v12h-1zm-591 1h1v1h-1z"/><path d="M330 163h62v1h-62zm62 0h1v1h-1zm1 0h1v1h-1zm36 0h26v1h-26zm26 0h1v1h-1zm1 0h1v1h-1zm24 0h1v1h-1zm1 0h46v1h-46zm171 0h1v1h-1zm1 0h1v1h-1zm16 0h1v11h-1zm1 0h1v1h-1zm55 0h1v1h-1zm1 0h46v1h-46zm133 0h1v1h-1zm1 0h1v1h-1zm13 0h1v1h-1zm1 0h45v1h-45zm-544 1h1v1h-1zm1 0h60v1h-60zm60 0h1v1h-1zm1 0h1v1h-1zm37 0h24v1h-24zm24 0h1v1h-1zm1 0h1v1h-1zm1 0h1v1h-1zm26 0h1v1h-1zm1 0h45v1h-45zm171 0h1v1h-1zm1 0h15v1h-15zm16 0h1v1h-1zm1 0h1v1h-1zm54 0h1v1h-1zm1 0h46v1h-46zm94 0h38v2h-38zm38 0h1v1h-1zm1 0h1v1h-1zm14 0h1v1h-1zm1 0h1v1h-1zm1 0h44v1h-44zm-545 1h1v1h-1zm1 0h1v1h-1zm1 0h58v1h-58zm58 0h1v1h-1zm1 0h1v1h-1zm38 0h21v1h-21zm21 0h1v1h-1zm1 0h1v1h-1zm1 0h1v1h-1zm1 0h1v1h-1zm28 0h1v1h-1zm1 0h1v1h-1zm1 0h44v1h-44zm171 0h1v1h-1z"/><path d="M655 165h15v1h-15zm15 0h1v9h-1zm1 0h1v1h-1zm1 0h1v1h-1zm54 0h1v1h-1zm1 0h45v1h-45zm131 0h1v1h-1zm1 0h1v1h-1zm15 0h1v1h-1zm1 0h44v1h-44zm-544 1h1v1h-1zm1 0h1v1h-1zm1 0h56v1h-56zm56 0h1v1h-1zm1 0h1v1h-1zm1 0h1v1h-1zm38 0h17v1h-17zm17 0h1v1h-1zm1 0h1v1h-1zm1 0h1v1h-1zm1 0h1v1h-1zm1 0h1v1h-1zm32 0h1v1h-1zm1 0h1v1h-1zm1 0h43v1h-43zm171 0h1v1h-1z"/><path d="M656 166h15v1h-15zm15 0h1v8h-1zm1 0h1v1h-1zm54 0h1v1h-1zm1 0h45v1h-45zm93 0h37v1h-37zm37 0h1v1h-1zm1 0h1v1h-1zm17 0h1v1h-1zm1 0h43v1h-43zm-543 1h1v1h-1zm1 0h54v1h-54zm54 0h1v1h-1zm1 0h1v1h-1zm40 0h1v1h-1zm1 0h11v1h-11zm11 0h1v1h-1zm1 0h1v1h-1zm1 0h1v1h-1zm1 0h1v1h-1zm1 0h1v1h-1zm38 0h1v1h-1zm1 0h1v1h-1zm1 0h42v1h-42zm170 0h1v1h-1zm1 0h1v1h-1zm16 0h1v7h-1zm1 0h1v1h-1zm54 0h1v1h-1zm1 0h44v1h-44zm92 0h36v1h-36zm36 0h1v1h-1zm1 0h1v1h-1zm19 0h1v1h-1zm1 0h42v1h-42zm-543 1h1v1h-1zm1 0h52v1h-52zm52 0h1v1h-1zm1 0h1v1h-1zm41 0h1v30h-1zm55 0h1v1h-1zm1 0h1v1h-1zm1 0h41v1h-41zm170 0h1v1h-1z"/><path d="M657 168h15v1h-15zm16 0h1v1h-1zm1 0h1v1h-1zm54 0h1v1h-1zm1 0h43v1h-43zm91 0h35v1h-35zm35 0h1v1h-1zm1 0h1v1h-1zm1 0h1v1h-1zm20 0h1v1h-1zm1 0h41v1h-41zm-543 1h1v1h-1zm1 0h1v1h-1zm1 0h48v1h-48zm48 0h1v1h-1zm1 0h1v1h-1zm1 0h1v1h-1zm98 0h1v1h-1zm1 0h1v1h-1zm1 0h40v1h-40zm170 0h1v1h-1zm1 0h15v1h-15zm15 0h1v5h-1zm1 0h1v1h-1zm1 0h1v1h-1zm54 0h1v1h-1zm1 0h42v1h-42zm90 0h34v1h-34zm34 0h1v1h-1zm1 0h1v1h-1zm1 0h1v1h-1zm22 0h1v1h-1zm1 0h1v1h-1zm1 0h39v1h-39zm-544 1h1v1h-1zm1 0h1v1h-1zm1 0h46v1h-46zm46 0h1v1h-1zm1 0h1v1h-1zm1 0h1v1h-1zm101 0h1v1h-1zm1 0h39v1h-39zm169 0h1v1h-1zm1 0h1v1h-1zm16 0h1v4h-1zm1 0h1v1h-1zm55 0h1v1h-1zm1 0h41v1h-41zm89 0h33v1h-33zm33 0h1v1h-1zm1 0h1v1h-1zm25 0h1v1h-1zm1 0h1v1h-1zm1 0h38v1h-38zm-543 1h1v1h-1zm1 0h1v1h-1zm1 0h42v1h-42zm42 0h1v1h-1zm1 0h1v1h-1zm1 0h1v1h-1zm104 0h1v1h-1zm1 0h1v1h-1zm1 0h37v1h-37zm168 0h1v1h-1z"/><path d="M659 171h16v1h-16zm16 0h1v3h-1zm1 0h1v1h-1zm55 0h1v1h-1zm1 0h1v1h-1zm1 0h39v1h-39zm87 0h31v1h-31zm31 0h1v1h-1zm1 0h1v1h-1zm1 0h1v1h-1zm28 0h1v1h-1zm1 0h1v1h-1zm1 0h36v1h-36zm-543 1h1v1h-1zm1 0h1v1h-1zm1 0h38v1h-38zm38 0h1v1h-1zm1 0h1v1h-1zm1 0h1v1h-1zm108 0h1v1h-1zm1 0h1v1h-1zm1 0h35v1h-35zm167 0h1v1h-1zm1 0h15v1h-15zm16 0h1v1h-1zm1 0h1v1h-1zm55 0h1v1h-1zm1 0h1v1h-1zm1 0h38v1h-38zm86 0h30v1h-30zm30 0h1v1h-1zm1 0h1v1h-1zm1 0h1v1h-1zm31 0h1v1h-1zm1 0h1v1h-1zm1 0h34v1h-34zm-543 1h1v1h-1zm1 0h1v1h-1zm1 0h1v1h-1zm1 0h32v1h-32zm32 0h1v1h-1zm1 0h1v1h-1zm1 0h1v1h-1zm1 0h1v1h-1zm112 0h1v1h-1zm1 0h1v1h-1zm1 0h1v1h-1zm1 0h32v1h-32zm165 0h1v1h-1z"/><path d="M661 173h15v1h-15zm15 0h1v1h-1zm1 0h1v1h-1zm57 0h1v1h-1zm1 0h1v1h-1zm1 0h36v1h-36zm84 0h27v1h-27zm27 0h1v1h-1zm1 0h1v1h-1zm1 0h1v1h-1zm1 0h1v1h-1zm35 0h1v1h-1zm1 0h1v1h-1zm1 0h1v1h-1zm1 0h31v1h-31zm-543 1h1v1h-1zm1 0h1v1h-1zm1 0h1v1h-1zm1 0h26v1h-26zm26 0h1v1h-1zm1 0h1v1h-1zm1 0h1v1h-1zm1 0h1v1h-1zm118 0h1v1h-1zm1 0h1v1h-1zm1 0h1v1h-1zm1 0h1v1h-1zm1 0h1v1h-1zm1 0h27v1h-27zm27 0h1v1h-1zm21 0h1v1h-1zm1 0h14v1h-14zm14 0h1v1h-1zm20 0h1v1h-1zm1 0h13v1h-13zm13 0h1v1h-1zm1 0h1v1h-1zm18 0h1v1h-1zm1 0h13v1h-13zm13 0h1v1h-1zm1 0h1v1h-1zm29 0h1v1h-1zm1 0h1v1h-1zm1 0h15v1h-15zm15 0h1v1h-1zm1 0h1v1h-1zm3 0h1v1h-1zm1 0h14v1h-14zm14 0h1v1h-1zm1 0h1v1h-1zm39 0h1v1h-1zm1 0h1v1h-1zm1 0h1v1h-1zm1 0h33v1h-33zm33 0h1v1h-1zm1 0h1v1h-1zm15 0h1v1h-1zm1 0h14v1h-14zm14 0h1v1h-1zm16 0h1v1h-1zm1 0h24v1h-24zm24 0h1v1h-1zm1 0h1v1h-1zm1 0h1v1h-1zm1 0h1v1h-1zm41 0h1v1h-1zm1 0h1v1h-1zm1 0h1v1h-1zm1 0h1v1h-1zm1 0h1v1h-1zm1 0h26v1h-26zm26 0h1v1h-1zm1 0h1v1h-1zm-572 1h1v1h-1zm1 0h1v1h-1zm1 0h1v1h-1zm1 0h1v1h-1zm1 0h1v1h-1zm1 0h16v1h-16zm16 0h1v1h-1zm1 0h1v1h-1zm1 0h1v1h-1zm1 0h1v1h-1zm1 0h1v1h-1zm1 0h1v1h-1zm127 0h1v1h-1zm1 0h25v1h-25zm25 0h1v1h-1zm21 0h1v1h-1zm1 0h14v1h-14zm14 0h1v1h-1zm20 0h1v1h-1zm1 0h13v1h-13zm13 0h1v1h-1zm1 0h1v1h-1zm18 0h1v1h-1zm1 0h13v1h-13zm13 0h1v1h-1zm1 0h1v1h-1zm30 0h1v1h-1zm1 0h16v1h-16zm16 0h1v1h-1zm3 0h1v1h-1zm1 0h14v1h-14zm14 0h1v1h-1zm1 0h1v1h-1zm43 0h1v1h-1zm1 0h31v1h-31zm31 0h1v1h-1zm1 0h1v1h-1zm15 0h1v1h-1zm1 0h14v1h-14zm14 0h1v1h-1zm16 0h1v1h-1zm1 0h22v1h-22zm22 0h1v1h-1zm1 0h1v1h-1zm51 0h1v1h-1zm1 0h24v1h-24zm24 0h1v1h-1zm1 0h1v1h-1zm-566 1h1v1h-1zm1 0h1v1h-1zm1 0h1v1h-1zm1 0h8v1h-8zm8 0h1v1h-1zm1 0h1v1h-1zm1 0h1v1h-1zm1 0h1v1h-1zm46 22h14v1h-14zm14 0h1v1h-1zm1 0h1v1h-1zm-15 1h14v1h-14zm14 0h1v1h-1zm1 0h1v1h-1z"/></g><path d="M172 108h51v1h-51zm51 0h1v1h-1zm-51 1h51v1h-51zm51 0h1v1h-1z" fill="#b8b9b9"/><path d="M106 159h1v1h-1zm100 0h1v1h-1zm-68 6h1v1h-1zm52 7h1v1h-1z" fill="#8f8f8f"/><path d="M110 162h1v1h-1zm1 3h1v1h-1zm87 1h1v1h-1zm-83 2h80v1h-80zm80 0h1v1h-1zm-78 1h76v1h-76zm76 0h1v1h-1zm-75 1h74v1h-74zm74 0h1v1h-1z" fill="#9d9e9e"/><path d="M150 44h1v1h-1zm46 13h1v1h-1zm5 4h1v1h-1zm6 6h1v1h-1zm-46 10h1v1h-1zm-77 29h1v1h-1zm-20 29h1v1h-1z" fill="#656363"/><path fill="#6f6d6d" d="M176 47h1v1h-1z"/><path d="M159 71h50v1h-50zm50 0h1v1h-1zm-50 1h50v1h-50zm50 0h1v1h-1z" fill="#c9c9ca"/><path d="M116 91h1v1h-1zm-10 6h1v1h-1zm118 12h1v1h-1zm-131 5h1v1h-1zm-18 2h1v1h-1zm148 9h1v1h-1zM94 143h1v1h-1zm101 34h1v1h-1zm-131 3h1v1h-1zm129 3h1v1h-1zm-24 31h1v1h-1z" fill="#7d7c7c"/><path d="M164 79h50v1h-50zm50 0h1v1h-1z" fill="#c5c6c6"/><path d="M105 94h1v1h-1zm6 0h1v1h-1zm58 1h1v1h-1zm-74 15h1v1h-1zm-1 2h1v1h-1zm-3 17h1v1h-1zm78 2h1v1h-1zm28 37h1v1h-1zm-24 43h1v1h-1zm-74 9h1v1h-1zm14 5h1v1h-1zm5 1h1v1h-1z" fill="#797878"/><g fill="#9e9f9f"><path d="M212 151h1v1h-1zm-61 9h1v1h-1zm-41 4h1v1h-1zm4 0h1v3h-1zm27 1h1v2h-1z"/><path d="M113 166h7v1h-7zm7 0h1v1h-1zm9 0h1v1h-1zm1 0h1v1h-1zm8 0h59v1h-59zm59 0h1v1h-1zm-83 1h82v1h-82zm82 0h1v1h-1z"/></g><path fill="#7a7a7a" d="M187 195h1v1h-1z"/><path d="M164 45h1v1h-1zm-22 11h1v1h-1zm63 10h1v1h-1zm-37 21h50v1h-50zm50 0h1v1h-1zm-50 1h50v1h-50zm50 0h1v1h-1z" fill="#c2c2c3"/><path d="M195 57h1v1h-1zm-30 26h1v1h-1z" fill="#aeadae"/><path fill="#605e5f" d="M146 60h1v1h-1z"/><path fill="#aaa" d="M199 60h1v1h-1z"/><path d="M212 74h1v1h-1zm-41 30h1v1h-1z" fill="#8d8c8c"/><path fill="#858686" d="M145 181h1v1h-1z"/><path d="M163 77h50v1h-50zm50 0h1v1h-1z" fill="#c6c7c7"/><path d="M218 86h1v1h-1zm-48 9h51v1h-51zm51 0h1v1h-1z" fill="#bebfbf"/><path fill="#989798" d="M169 94h1v1h-1z"/><path d="M154 67h1v1h-1zm55 3h1v1h-1z" fill="#939293"/><path fill="#8c8b8c" d="M162 78h1v1h-1z"/><path d="M112 92h1v1h-1zm112 23h1v1h-1zM65 134h1v1h-1zm38 22h1v1h-1zm5 4h1v1h-1zm-34 39h1v1h-1zm5 6h1v1h-1zm3 3h1v1h-1zm93 1h1v1h-1z" fill="#828282"/><path d="M69 124h1v1h-1zm42 101h1v1h-1z" fill="#605f5f"/><path d="M166 45h1v1h-1zm23 8h1v1h-1zm-22 35h1v1h-1z" fill="#9b9a9b"/><path d="M135 52h1v1h-1zm76 21h1v1h-1zm-42 61h51v1h-51zm51 0h1v1h-1z" fill="#adadae"/><path fill="#a2a1a2" d="M187 52h1v1h-1z"/><path fill="#a3a2a2" d="M143 57h1v1h-1z"/><path d="M63 140h1v1h-1zm63 26h1v1h-1zm68 14h1v1h-1zm-75 46h1v1h-1z" fill="gray"/><path fill="#c4c5c5" d="M212 75h1v1h-1z"/><path fill="#a1a0a1" d="M216 81h1v1h-1z"/><path d="M171 101h1v1h-1zm1 5h51v1h-51zm51 0h1v1h-1z" fill="#b9baba"/><path d="M223 121h1v1h-1zm-51 3h50v1h-50zm50 0h1v1h-1z" fill="#b1b2b2"/><path d="M135 47h1v1h-1zm15 16h1v1h-1zm-40 102h1v1h-1zm11 8h1v1h-1z" fill="#898888"/><path d="M182 50h1v1h-1zm-37 8h1v1h-1zm12 11h50v1h-50zm50 0h1v1h-1zm-49 1h50v1h-50zm50 0h1v1h-1z" fill="#cacacb"/><path d="M193 55h1v1h-1zm-73 35h1v1h-1zm3 0h1v1h-1zm47 10h1v1h-1zm0 26h1v1h-1zm53 0h1v1h-1zM63 178h1v1h-1zm123 19h1v1h-1z" fill="#6b6a6a"/><path fill="#bdbdbd" d="M146 59h1v1h-1z"/></svg>