<svg xmlns="http://www.w3.org/2000/svg" role="img" viewBox="73.78 48.78 1051.44 401.44"><title>Open 3D Engine Project (O3DE) logo</title><style>svg {enable-background:new 0 0 1200 500}</style><style>.st1{fill:#4b8def}.st3{fill:#a5c6f7}.st4{fill:#78a9f3}</style><path d="M457.5 391.2c14.6 0 24.2 8.5 24.2 19.6s-9.6 19.6-24.2 19.6-24.2-8.5-24.2-19.6 9.5-19.6 24.2-19.6zm0 3c-12.1 0-19.7 7-19.7 16.6 0 9.5 7.6 16.6 19.7 16.6 12 0 19.7-7.1 19.7-16.6 0-9.6-7.8-16.6-19.7-16.6zm42.2-2.3h18.7c9.6 0 15 5.1 15 11.1s-5.5 11.1-15 11.1H504v15.7h-4.3v-37.9zm18.2 2.9h-14V411h14c6.6 0 11-3.3 11-8.1 0-4.7-4.4-8.1-11-8.1zm31.9-2.9h31.6v2.9h-27.3v14h26.8v2.9h-26.8v15h27.3v2.9h-31.6v-37.7zm53.9 5.1v32.7h-4.3v-37.8h4.3l31.2 32.2v-32.2h4.3v37.8H635L603.7 397zm81.3 25.1c2.8 3 7.6 5.3 14 5.3 7.7 0 12.5-3.1 12.5-8.1 0-5.4-5.9-7.7-13.4-7.7-2 0-3.9 0-4.6.1v-3.1c.7.1 2.6.1 4.6.1 6.6 0 12.6-2.2 12.6-7.2 0-4.7-5.5-7.3-12-7.3-5.7 0-9.7 1.7-13.4 4.8l-2.7-2c3.4-3.2 9-5.7 16.3-5.7 8.7 0 16.1 3.6 16.1 10 0 5.8-6.4 8.3-10.7 8.8 4.3.3 11.4 3.2 11.4 9.4s-6.2 10.8-16.8 10.8c-8.1 0-14.1-2.9-17-6.3l3.1-1.9zm49-30.2h15.9c15.5 0 25.2 8.6 25.2 18.9 0 10.5-9.7 18.9-25.2 18.9H734v-37.8zm15.9 34.8c13.1 0 20.7-7.1 20.7-15.9s-7.5-16-20.7-16h-11.7v31.9h11.7zm70.1-34.8h31.6v2.9h-27.3v14h26.8v2.9h-26.8v15h27.3v2.9H820v-37.7zm53.9 5.1v32.7h-4.3v-37.8h4.3l31.2 32.2v-32.2h4.3v37.8h-4.2L873.9 397zm78.8-5.8c8.2 0 14.2 2.5 18.7 6.5l-3.2 1.8c-3.5-3.2-9.2-5.3-15.5-5.3-11.7 0-20.8 6.7-20.8 16.6 0 9.8 9 16.7 20.8 16.7 6.6 0 11.9-2.5 14.6-4.6v-9h-18.9V411h23.2v13.2c-4.5 3.7-11.1 6.3-18.9 6.3-14 0-25.2-7.9-25.2-19.6-.1-11.8 11.1-19.7 25.2-19.7zm37.2.7h4.3v37.8h-4.3v-37.8zm28.4 5.1v32.7h-4.3v-37.8h4.3l31.2 32.2v-32.2h4.3v37.8h-4.2l-31.3-32.7zm55.4-5.1h31.6v2.9H1078v14h26.8v2.9H1078v15h27.3v2.9h-31.6v-37.7z" id="Subtitle"/><g id="Gem"><path fill="#1e70eb" d="M370.8 300.3l8 24.7 8.1 24.9c15.6-17.3 27.6-37.8 35-60.5l-25.6 5.4-25.5 5.5zm-82.6 60l-13 22.5-13.1 22.7c24.3 0 47.5-5.2 68.3-14.5l-21.2-15.4-21-15.3zm47.6-21.2l-2.7 25.9-2.7 26c21.6-9.6 40.8-23.7 56.5-41.1l-25.6-5.4-25.5-5.4z"/><path d="M153.4 300.3l-25.5-5.4-25.6-5.4c7.4 22.6 19.4 43.2 35 60.5l8.1-24.9 8-24.8zm233.5-49.6l17.4 19.3 17.5 19.5c5.3-16.3 8.2-33.8 8.2-51.9 0-5.9-.3-11.8-.9-17.6l-21.2 15.4-21 15.3zm-5.5-51.9l23.8 10.6 23.9 10.6c-2.5-24-10-46.5-21.6-66.4l-13.1 22.7-13 22.5z" class="st1"/><path d="M188.3 339.1l-25.5 5.4-25.6 5.4c15.6 17.4 34.9 31.4 56.5 41.1l-2.7-26-2.7-25.9z" class="st1"/><path d="M236 360.3l-21.1 15.3-21.2 15.4c20.9 9.3 44 14.5 68.3 14.5l-13-22.6-13-22.6zm52.2 0l21 15.3 21.2 15.4 2.7-26 2.7-25.9c-14 10.1-30.1 17.5-47.6 21.2zm82.6-60c-8.8 15.2-20.8 28.4-34.9 38.7v.1l25.5 5.4 25.6 5.4-8.1-24.9-8.1-24.7z" class="st1"/><path fill="#d2e2fb" d="M313.1 122.9l-8-24.8-8.1-24.9-17.5 19.4-17.4 19.4c18.2.1 35.4 3.9 51 10.9zM262 112.1l-17.4-19.4-17.5-19.4-8.1 24.9-8 24.7c15.6-6.9 32.9-10.8 51-10.8zm-93.2 41.5c11.7-13 26.1-23.5 42.2-30.7l-23.8-10.6-23.9-10.6 2.7 26 2.8 25.9zm0 0l-26-.1h-26.2l13.1 22.7 13 22.5c5.5-16.9 14.5-32.2 26.1-45.1zM95 220l21.2 15.4 21.1 15.3c-.4-4.3-.7-8.7-.7-13.1 0-13.5 2.2-26.6 6.1-38.8l-23.8 10.6L95 220z"/><g><path d="M168.8 153.6l-2.7-25.9-2.7-26c-19 13.8-34.9 31.5-46.7 51.9H168.8zm-49.9 55.7l23.8-10.6-13-22.5-13.1-22.6C105.1 173.5 97.5 196 95 220l23.9-10.7z" class="st3"/><path d="M211 122.9l8-24.7 8.1-24.9c-23.4 5-45.1 14.8-63.8 28.4l23.9 10.6 23.8 10.6zm51.1-10.9l17.4-19.3L297 73.2c-11.3-2.4-22.9-3.6-34.9-3.6s-23.7 1.3-34.9 3.6l17.5 19.5 17.4 19.3zm119.3 86.8l13-22.5 13.1-22.7h-52.2v.1c11.7 12.8 20.6 28.2 26.1 45.1zm-68.3-75.9c16.1 7.2 30.5 17.7 42.2 30.7h.1l2.7-25.9 2.7-26-23.9 10.6-23.8 10.6zM137.3 250.7L119.8 270l-17.5 19.4 25.6 5.4 25.5 5.4c-8.6-14.8-14.3-31.6-16.1-49.5zm51 88.4c-14.2-10.4-26.1-23.6-34.9-38.8l-8 24.7-8.1 24.9 25.6-5.4 25.4-5.4z" class="st3"/></g><g><path d="M137.2 250.7l-21.1-15.3L95 220c-.6 5.8-.9 11.6-.9 17.6 0 18.1 2.9 35.6 8.2 51.9l17.5-19.5 17.4-19.3zm218.1-97.1h52.2c-11.8-20.4-27.8-38.1-46.7-51.9l-2.7 26-2.8 25.9z" class="st4"/><path d="M313.1 122.9l23.8-10.6 23.9-10.6C342.1 88 320.4 78.2 297 73.2l8.1 24.9 8 24.8zm-24.9 237.4c-8.4 1.8-17.2 2.7-26.1 2.7s-17.7-.9-26.1-2.7l13 22.5 13.1 22.7 13.1-22.7 13-22.5zm82.6-60l25.5-5.4 25.6-5.4-17.6-19.5-17.4-19.3c-1.9 17.9-7.5 34.7-16.1 49.6zm16.7-62.7c0 4.4-.2 8.8-.7 13.1l21.1-15.3 21.2-15.4-23.9-10.6-23.8-10.6c4 12.2 6.1 25.2 6.1 38.8zM188.3 339.1L191 365l2.7 26 21.2-15.4 21.1-15.3c-17.5-3.7-33.7-11.1-47.7-21.2z" class="st4"/></g></g><g id="Letters"><path d="M641.5 112.6h98.3c78.1 0 132.4 49.7 132.4 124.9S817.9 362 739.8 362h-98.3V112.6zM739.4 317c50.5 0 79.9-36.3 79.9-79.5 0-45.1-27.5-79.9-79.9-79.9h-46.3V317h46.3z"/><path d="M907.4 112.6h198.5v45.6H960.5v54.2h145.4V258H960.5v58h145.4v46H907.4V112.6z"/><path d="M589.5 248.2c-9.5-8.4-23.1-14.1-40.5-17 14.4-4.3 25.9-11.1 34.4-20.3 10.1-10.8 15.1-24.2 15.1-39.6 0-18.6-8.1-33.3-24.1-43.7-15.7-10.2-37.3-15.4-64.2-15.4-27.4 0-51.9 5.7-73 16.8 8.3 13.3 15 27.6 20.1 42.7 8.6-4.9 16.6-8.5 23.9-10.6 8.5-2.6 17-3.8 25.2-3.8 23.2 0 34.5 8.2 34.5 25.1 0 11.1-4.2 18.6-12.7 23.2-8.9 4.7-23.2 7.1-42.7 7.1h-18.9c1 8.1 1.5 16.4 1.5 24.8 0 6.1-.3 12.2-.8 18.1h17.8c21.2 0 36.7 2.3 46.2 6.8 9.2 4.4 13.6 11.6 13.6 22.1 0 11.9-3.9 20.3-11.9 25.6-8.2 5.4-21.2 8.2-38.6 8.2-11.5 0-23.3-1.5-35-4.4-1.8-.5-3.6-.9-5.4-1.4-5.5 14.1-12.6 27.5-20.9 39.9 19.9 6.8 42.4 10.2 67.2 10.2 33.6 0 59.9-6.6 78.1-19.6 18.4-13.2 27.8-31.9 27.8-55.5 0-16.3-5.6-29.6-16.7-39.3zM262.1 112c-69.3 0-125.5 56.2-125.5 125.5S192.8 363 262.1 363s125.5-56.2 125.5-125.5S331.4 112 262.1 112zm0 206.9c-44.9 0-81.4-36.4-81.4-81.4s36.4-81.4 81.4-81.4 81.4 36.4 81.4 81.4-36.5 81.4-81.4 81.4z"/></g></svg>