<svg xmlns="http://www.w3.org/2000/svg" role="img" xmlns:xlink="http://www.w3.org/1999/xlink" viewBox="-2.33 1.17 264.16 65.66"><title>OpenELB logo</title><defs><path d="M2.89844-20.91797c0-7.1289 1.91406-12.71094 5.74218-16.74219 3.82813-4.03515 8.77344-6.05078 14.82813-6.05078 3.96484 0 7.53906.94532 10.71875 2.84375 3.1836 1.89453 5.61328 4.53516 7.28125 7.92188 1.67188 3.39062 2.50781 7.23437 2.50781 11.53125 0 4.35547-.88281 8.25-2.64062 11.6875-1.75782 3.4375-4.2461 6.03906-7.46875 7.8086C30.64453-.15235 27.16797.73436 23.4375.73436c-4.04297 0-7.65625-.97656-10.83984-2.92968-3.1836-1.95313-5.59766-4.6211-7.23828-8-1.64063-3.3789-2.46094-6.95313-2.46094-10.72266zm5.85937.08985c0 5.17578 1.39453 9.25 4.17578 12.23046 2.78516 2.97657 6.27735 4.46485 10.47266 4.46485 4.27734 0 7.80078-1.5 10.5625-4.50781 2.76563-3.00782 4.14844-7.27735 4.14844-12.8047 0-3.49609-.59375-6.54687-1.77344-9.15624-1.1836-2.60547-2.91016-4.6289-5.1875-6.0625-2.27344-1.4375-4.82813-2.15625-7.66016-2.15625-4.02343 0-7.48437 1.38281-10.38671 4.14843-2.89844 2.76172-4.35157 7.375-4.35157 13.84376zm0 0" id="a"/><path d="M3.95313 11.92188v-43.03516H8.7578v4.04297c1.13282-1.58203 2.41407-2.76953 3.83985-3.5586 1.42578-.79296 3.15234-1.1875 5.18359-1.1875 2.65625 0 5 .6836 7.03125 2.05079 2.03125 1.36718 3.5664 3.29687 4.60156 5.78515 1.03516 2.49219 1.55469 5.22266 1.55469 8.1914 0 3.1836-.57422 6.04688-1.71484 8.59766-1.14454 2.54688-2.8047 4.5-4.98047 5.85938C22.09375.02344 19.80469.70313 17.40234.70313c-1.7578 0-3.33593-.3711-4.73046-1.11329-1.39844-.74218-2.54688-1.67968-3.44532-2.8125v15.14454zm4.77734-27.3047c0 4.00391.8086 6.96485 2.4336 8.87891 1.62109 1.91407 3.58202 2.8711 5.88671 2.8711 2.34375 0 4.35156-.99219 6.01953-2.97266 1.67188-1.98437 2.50782-5.05469 2.50782-9.21484 0-3.96485-.81641-6.9336-2.44922-8.90625-1.62891-1.97266-3.57813-2.96094-5.84375-2.96094-2.2461 0-4.23438 1.05078-5.96094 3.15234-1.73047 2.09766-2.59375 5.15235-2.59375 9.15235zm0 0" id="b"/><path d="M25.2539-10.01953l5.44922.67578c-.85937 3.1836-2.45312 5.65234-4.77343 7.41016C23.60547-.1758 20.6328.70312 17.02344.70312 12.47266.70313 8.86328-.69921 6.1953-3.5c-2.66406-2.80469-4-6.73438-4-11.79297 0-5.23437 1.35156-9.29687 4.04688-12.1875 2.69531-2.89062 6.1875-4.33594 10.48437-4.33594 4.16016 0 7.5625 1.41797 10.19532 4.2461C29.55859-24.73828 30.8789-20.75 30.8789-15.6172c0 .3125-.01172.78125-.02735 1.40625H7.64844c.19531 3.41797 1.16015 6.03907 2.89844 7.85157 1.73828 1.8164 3.90625 2.72656 6.5039 2.72656 1.9336 0 3.58203-.50781 4.94922-1.52344 1.36719-1.01563 2.45313-2.63672 3.2539-4.86328zM7.9375-18.54688h17.375c-.23438-2.61718-.89844-4.57812-1.99219-5.88671-1.67968-2.03125-3.85937-3.04688-6.53125-3.04688-2.42187 0-4.46093.8086-6.10937 2.4336-1.65235 1.62109-2.5625 3.78906-2.74219 6.5zm0 0" id="c"/><path d="M3.95313 0v-31.11328h4.75v4.42578c2.28515-3.41797 5.58593-5.1289 9.89843-5.1289 1.875 0 3.60157.33593 5.17188 1.01171 1.57422.67188 2.75 1.55469 3.53125 2.64844s1.32812 2.39453 1.64062 3.89844c.19532.97656.29297 2.6875.29297 5.125V0h-5.27344v-18.92578c0-2.14844-.20703-3.7539-.61328-4.82031-.41015-1.0625-1.14062-1.91407-2.1836-2.54688-1.04687-.63672-2.26952-.95312-3.67577-.95312-2.2461 0-4.1875.71484-5.8164 2.13671-1.63282 1.42579-2.44923 4.13282-2.44923 8.1172V0zm0 0" id="d"/><path d="M4.7461 0v-42.94922h31.05468v5.0664h-25.3711v13.15626H34.1875v5.03906H10.42969v14.61719h26.36718V0zm0 0" id="e"/><path d="M4.39453 0v-42.94922h5.6836v37.8789h21.15234V0zm0 0" id="f"/><path d="M4.39453 0v-42.94922h16.11328c3.28125 0 5.91407.4336 7.89453 1.30469 1.98438.86719 3.53516 2.20703 4.66016 4.01172 1.1211 1.8086 1.6836 3.69531 1.6836 5.67187 0 1.83594-.4961 3.5625-1.4961 5.1836-.9961 1.62109-2.5 2.92968-4.50781 3.92578 2.59765.76172 4.59375 2.0625 5.98828 3.89843 1.39844 1.83594 2.09766 4 2.09766 6.5 0 2.01172-.42579 3.88282-1.27735 5.61329-.84766 1.72656-1.89844 3.05859-3.14844 3.99609s-2.8164 1.64844-4.70312 2.125C25.8164-.23828 23.50782 0 20.77344 0zm5.6836-24.90234h9.28906c2.51953 0 4.32422-.16797 5.41797-.4961 1.4453-.42968 2.53515-1.14453 3.26562-2.14062.73438-.9961 1.09766-2.2461 1.09766-3.75 0-1.42578-.33985-2.67969-1.02344-3.76563-.6836-1.08203-1.66016-1.82422-2.92969-2.22656-1.26953-.39844-3.44531-.60156-6.53125-.60156h-8.58593zm0 19.83203h10.6953c1.83594 0 3.125-.0664 3.8672-.20313 1.30859-.23437 2.39843-.625 3.28124-1.17187.87891-.54688 1.60157-1.34375 2.16407-2.38672.5664-1.04688.85156-2.2539.85156-3.6211 0-1.60156-.41016-2.99218-1.23047-4.17187-.82031-1.1836-1.95703-2.01172-3.41406-2.49219-1.45313-.47656-3.55078-.71875-6.28516-.71875h-9.92968zm0 0" id="g"/></defs><use y="50" xlink:href="#a"/><use x="46.67" y="50" xlink:href="#b"/><use x="80.039" y="50" xlink:href="#c"/><use x="113.408" y="50" xlink:href="#d"/><use x="146.777" y="50" xlink:href="#e"/><use x="186.797" y="50" xlink:href="#f"/><use x="220.166" y="50" xlink:href="#g"/></svg>