<svg xmlns="http://www.w3.org/2000/svg" role="img" viewBox="44.50 53.50 702.00 148.00"><title>OpenTEAM logo</title><style>svg {enable-background:new 0 0 792 255.45}</style><path fill="#4e4e4e" d="M101.6 161.11c-6.43 0-12.32-1.32-17.67-3.98-5.35-2.65-9.93-6.17-13.76-10.56-3.83-4.39-6.78-9.41-8.87-15.06-2.09-5.65-3.13-11.43-3.13-17.34 0-6.17 1.11-12.08 3.33-17.73 2.22-5.65 5.28-10.65 9.19-15 3.91-4.35 8.52-7.8 13.82-10.37 5.3-2.56 11.04-3.85 17.21-3.85 6.43 0 12.32 1.37 17.67 4.11 5.35 2.74 9.91 6.32 13.69 10.76 3.78 4.43 6.72 9.45 8.8 15.06 2.09 5.61 3.13 11.33 3.13 17.15 0 6.17-1.11 12.08-3.33 17.73-2.22 5.65-5.26 10.63-9.13 14.93-3.87 4.3-8.46 7.74-13.76 10.3-5.28 2.57-11.02 3.85-17.19 3.85zm-34.29-46.95c0 5.04.83 9.89 2.48 14.54 1.65 4.65 4 8.78 7.04 12.39 3.04 3.61 6.65 6.48 10.82 8.61 4.17 2.13 8.82 3.2 13.95 3.2 5.22 0 9.95-1.13 14.21-3.39 4.26-2.26 7.87-5.22 10.82-8.87 2.95-3.65 5.24-7.78 6.85-12.39 1.61-4.61 2.41-9.3 2.41-14.08 0-5.04-.85-9.89-2.54-14.54-1.7-4.65-4.07-8.76-7.11-12.32-3.04-3.56-6.65-6.41-10.82-8.54-4.17-2.13-8.78-3.2-13.82-3.2-5.22 0-9.96 1.11-14.21 3.33-4.26 2.22-7.87 5.15-10.82 8.8-2.96 3.65-5.24 7.78-6.85 12.39-1.61 4.6-2.41 9.29-2.41 14.07zm127.92 47.6c-5.74 0-10.82-1.45-15.26-4.37-4.43-2.91-8-6.59-10.69-11.02v41.86h-8.87V92.52h7.95v13.17c2.78-4.26 6.39-7.71 10.82-10.37 4.43-2.65 9.26-3.98 14.48-3.98 4.69 0 9.02.98 12.97 2.93 3.96 1.96 7.37 4.56 10.24 7.82 2.87 3.26 5.11 7.02 6.72 11.28 1.61 4.26 2.41 8.65 2.41 13.17 0 4.78-.74 9.3-2.22 13.56-1.48 4.26-3.59 8-6.32 11.21-2.74 3.22-6 5.76-9.78 7.63-3.78 1.88-7.93 2.82-12.45 2.82zm-2.48-7.82c3.65 0 6.95-.78 9.91-2.35 2.95-1.56 5.5-3.63 7.63-6.19 2.13-2.56 3.76-5.48 4.89-8.74s1.7-6.63 1.7-10.11c0-3.65-.65-7.13-1.96-10.43-1.3-3.3-3.09-6.21-5.35-8.74-2.26-2.52-4.93-4.52-8.02-6-3.09-1.48-6.41-2.22-9.98-2.22-2.26 0-4.61.46-7.04 1.37-2.44.91-4.74 2.13-6.91 3.65s-4.02 3.3-5.54 5.35c-1.52 2.04-2.46 4.2-2.8 6.46v20.86c1.04 2.44 2.37 4.7 3.98 6.78 1.61 2.09 3.43 3.89 5.48 5.41 2.04 1.52 4.26 2.72 6.65 3.59 2.39.87 4.84 1.31 7.36 1.31zm77.59 7.82c-4.96 0-9.52-.94-13.69-2.8-4.17-1.87-7.78-4.43-10.82-7.69-3.04-3.26-5.41-7.02-7.11-11.28-1.7-4.26-2.54-8.82-2.54-13.69 0-4.78.85-9.28 2.54-13.5 1.7-4.22 4.06-7.91 7.11-11.08 3.04-3.17 6.63-5.69 10.76-7.56 4.13-1.87 8.67-2.8 13.63-2.8 4.96 0 9.5.94 13.63 2.8 4.13 1.87 7.67 4.41 10.63 7.63 2.95 3.22 5.26 6.91 6.91 11.08 1.65 4.17 2.48 8.61 2.48 13.3 0 .7-.02 1.39-.06 2.09-.05.7-.11 1.17-.2 1.43h-58.03c.26 3.65 1.11 7.02 2.54 10.11s3.26 5.76 5.48 8.02c2.22 2.26 4.78 4.02 7.69 5.28 2.91 1.26 6.02 1.89 9.32 1.89 2.26 0 4.48-.3 6.65-.91 2.17-.61 4.17-1.43 6-2.48 1.83-1.04 3.46-2.32 4.89-3.85 1.43-1.52 2.54-3.2 3.33-5.02l7.69 2.09c-1.04 2.52-2.52 4.8-4.43 6.85-1.91 2.04-4.13 3.83-6.65 5.35-2.52 1.52-5.3 2.7-8.35 3.52-3.05.81-6.18 1.22-9.4 1.22zm25.04-38.86c-.26-3.65-1.11-6.98-2.54-9.98s-3.26-5.58-5.48-7.76c-2.22-2.17-4.8-3.87-7.76-5.09-2.96-1.22-6.09-1.83-9.39-1.83-3.3 0-6.43.61-9.39 1.83-2.96 1.22-5.54 2.91-7.76 5.09-2.22 2.17-4 4.78-5.35 7.82-1.35 3.04-2.15 6.35-2.41 9.91h50.08zm78.89 37.56h-8.87v-37.95c0-8.08-1.17-13.95-3.52-17.6-2.35-3.65-6-5.48-10.95-5.48-2.61 0-5.22.48-7.82 1.43-2.61.96-5.04 2.3-7.3 4.04-2.26 1.74-4.24 3.8-5.93 6.19-1.7 2.39-2.98 4.98-3.85 7.76v41.6h-8.87V92.52h8.09v15.39c1.39-2.43 3.11-4.67 5.15-6.72 2.04-2.04 4.32-3.8 6.85-5.28 2.52-1.48 5.19-2.61 8.02-3.39 2.82-.78 5.76-1.17 8.8-1.17 3.82 0 7.02.7 9.58 2.09 2.56 1.39 4.63 3.35 6.19 5.87 1.56 2.52 2.69 5.61 3.39 9.26.7 3.65 1.04 7.69 1.04 12.13v39.76z"/><path fill="#3db54a" d="M462.03 83.65h-29.6v76.81h-17.86V83.65h-29.6V67.87h77.07v15.78zm75.77 61.03v15.78h-64.29V67.87h63.11v15.78H491.5v22.3h38.99v14.61H491.5v24.13h46.3zm40.42-76.81h15.91l35.21 92.59h-18.52l-8.61-23.08h-32.34l-8.48 23.08h-18.52l35.35-92.59zm20.74 56.86l-12.78-36.38-13.3 36.38h26.08zm116.05 35.73V99.17l-23.86 45.64h-9.78l-23.86-45.64v61.29h-18V67.87h19.3l27.38 52.68 27.65-52.68h19.17v92.59h-18z"/></svg>