<svg xmlns="http://www.w3.org/2000/svg" role="img" xmlns:xlink="http://www.w3.org/1999/xlink" viewBox="-8.53 -4.03 521.56 76.56"><title>openqquantify.com (member) logo</title><defs><path d="M16.32031-3.39844c3.4961 0 5.89063-1.32422 7.1914-3.96875 1.29688-2.64844 1.94923-5.59375 1.94923-8.83594 0-2.92968-.46875-5.3125-1.40625-7.14843C22.5703-26.2422 20.0078-27.6875 16.375-27.6875c-3.22266 0-5.5625 1.23438-7.03125 3.69531-1.46484 2.46094-2.19531 5.42969-2.19531 8.90625 0 3.33985.73437 6.1211 2.19531 8.34766 1.46484 2.22656 3.78906 3.33984 6.97656 3.33984zm.20313-28.88672c4.04297 0 7.46093 1.34766 10.2539 4.04297 2.79297 2.69532 4.19141 6.66016 4.19141 11.89453 0 5.0586-1.23438 9.23829-3.69531 12.53907C24.8125-.50781 20.99609 1.14063 15.8203 1.14063c-4.3164 0-7.74218-1.45704-10.28125-4.37891C3-6.15625 1.72656-10.07813 1.72656-15c0-5.27344 1.33985-9.47266 4.01563-12.59766 2.67578-3.125 6.26953-4.6875 10.78125-4.6875zm0 0" id="a"/><path d="M17.10938-3.54688c2.46093 0 4.5078-1.02734 6.13671-3.08984 1.63282-2.0586 2.44922-5.14062 2.44922-9.24219 0-2.5-.36328-4.64843-1.08593-6.4453-1.3672-3.45704-3.8672-5.1836-7.5-5.1836-3.65235 0-6.15235 1.82422-7.5 5.47656-.72266 1.95313-1.08594 4.4336-1.08594 7.4414 0 2.42188.36328 4.48048 1.08593 6.1836 1.3672 3.24219 3.8672 4.85938 7.5 4.85938zM3.45702-31.23046h5.1289v4.16016c1.0547-1.42578 2.20313-2.53125 3.45313-3.3125 1.77735-1.17188 3.86719-1.75782 6.27344-1.75782 3.55469 0 6.57031 1.36329 9.05078 4.08985 2.48047 2.72265 3.72266 6.61328 3.72266 11.67578 0 6.83594-1.78907 11.71875-5.36328 14.64844C23.45703.1289 20.8203 1.05469 17.8125 1.05469c-2.36328 0-4.34375-.51563-5.94531-1.55469-.9375-.58594-1.98438-1.58984-3.13672-3.01563v16.02344H3.45703zm0 0" id="b"/><path d="M16.9336-32.07813c2.22656 0 4.38671.51954 6.47265 1.56641 2.08984 1.04297 3.6836 2.39453 4.77734 4.0586 1.0547 1.58203 1.75782 3.42578 2.10938 5.53515.3125 1.44531.46875 3.75.46875 6.91406H7.76562c.09766 3.1836.84766 5.73828 2.25391 7.66016 1.40625 1.92578 3.58203 2.88672 6.53516 2.88672 2.7539 0 4.94922-.91016 6.58984-2.72266.9375-1.05469 1.60156-2.27734 1.99219-3.66406h5.1836c-.13673 1.15234-.58985 2.4375-1.35938 3.85156-.77344 1.41797-1.63672 2.57422-2.59375 3.47266C24.76562-.95703 22.78125.09766 20.42187.64453c-1.26953.3125-2.70703.46875-4.30859.46875-3.90625 0-7.21484-1.42187-9.9336-4.26172-2.71484-2.84375-4.0703-6.82031-4.0703-11.9375 0-5.03906 1.36718-9.13281 4.10156-12.27734 2.73437-3.14453 6.3086-4.71485 10.72265-4.71485zm8.41015 13.88282c-.21484-2.28516-.71484-4.10938-1.4961-5.47657-1.4453-2.53906-3.85546-3.80859-7.23828-3.80859-2.42187 0-4.45312.875-6.09374 2.6211-1.64063 1.75-2.50782 3.96874-2.60547 6.66406zm0 0" id="c"/><path d="M3.86719-31.375H8.875v4.45313c1.48438-1.83594 3.0586-3.15626 4.71875-3.95704 1.66016-.80078 3.50781-1.19921 5.53906-1.19921 4.45313 0 7.46094 1.55078 9.02344 4.65624.85938 1.69922 1.28906 4.13282 1.28906 7.29688V0h-5.36328v-19.77344c0-1.91406-.28515-3.46093-.84765-4.63281-.9375-1.95313-2.64063-2.92969-5.10157-2.92969-1.25 0-2.27343.1289-3.07422.38282-1.4453.42968-2.71484 1.28906-3.80859 2.57812-.8789 1.03516-1.44922 2.10547-1.71484 3.20703-.26172 1.10547-.39453 2.6836-.39453 4.73047V0H3.86719zm0 0" id="d"/><path d="M7.26563-15.26563c0 2.71485.3828 4.9922 1.14062 6.82813 1.34766 3.26172 3.76172 4.89063 7.23828 4.89063 3.67188 0 6.19922-1.71875 7.58985-5.15625.76171-1.89454 1.14062-4.3125 1.14062-7.26563 0-2.71484-.42188-4.97656-1.25781-6.79688-1.42578-3.10546-3.9375-4.65624-7.53125-4.65624-2.28516 0-4.24219.99218-5.875 2.97265-1.6289 1.98438-2.44532 5.04297-2.44532 9.1836zm7.79296-16.8125c2.59766 0 4.78516.65235 6.5625 1.96094.97657.70313 1.91407 1.73828 2.8125 3.10547V-31.375h5.01172v43.88281h-5.30468V-3.60156C23.26171-2.19531 22.04687-1.07812 20.49218-.25 18.9414.58203 17 .9961 14.67969.9961c-3.33985 0-6.32813-1.3086-8.96875-3.92579C3.07422-5.54688 1.7578-9.53125 1.7578-14.8828c0-5.01953 1.23438-9.14063 3.70703-12.36328 2.46875-3.22266 5.66797-4.83204 9.59375-4.83204zm0 0" id="e"/><path d="M9.14063-31.375v20.82813c0 1.60156.2539 2.91015.76171 3.92578.9375 1.875 2.6836 2.8125 5.2461 2.8125 3.67187 0 6.17187-1.64063 7.5-4.92188.72265-1.75781 1.08203-4.16797 1.08203-7.23828V-31.375h5.27344V0h-4.98047l.0586-4.6289c-.6836 1.1914-1.53516 2.19921-2.55079 3.01952C19.51953.03126 17.07812.85156 14.21094.85156c-4.47266 0-7.52344-1.4961-9.14063-4.48437C4.19141-5.23437 3.75-7.375 3.75-10.04688V-31.375zm0 0" id="f"/><path d="M7.91016-8.35156c0 1.52343.55859 2.72656 1.66796 3.60547 1.11329.8789 2.4336 1.3164 3.95704 1.3164 1.85547 0 3.65234-.42969 5.39062-1.28906 2.92969-1.42578 4.39453-3.75781 4.39453-7v-4.25c-.64453.41016-1.47656.7539-2.49218 1.02734-1.01563.27344-2.00782.46875-2.98438.58594l-3.19531.41016c-1.91407.2539-3.35157.65625-4.30469 1.20312-1.6211.91797-2.4336 2.38282-2.4336 4.39063zm12.77343-10.66407c1.21094-.15624 2.01954-.66406 2.4336-1.52343.23437-.46875.35156-1.14063.35156-2.01953 0-1.79688-.64063-3.10157-1.92188-3.91016-1.27734-.8125-3.10937-1.21875-5.49218-1.21875-2.7539 0-4.70703.74219-5.85938 2.22656-.64453.82032-1.0625 2.04297-1.25781 3.66407H4.01562c.09766-3.8672 1.35157-6.5586 3.76172-8.07032 2.41407-1.51562 5.21094-2.27343 8.39454-2.27343 3.6914 0 6.6875.70312 8.99218 2.10937 2.28516 1.40625 3.42969 3.59375 3.42969 6.5625v18.07813c0 .54687.11328.98437.33594 1.3203.22656.33204.69922.4961 1.42187.4961.23438 0 .5-.01562.78907-.04297.29296-.03125.60937-.07422.9375-.13281V.14844c-.82032.23437-1.44532.3789-1.875.4375-.4297.0586-1.01563.08593-1.75782.08593-1.8164 0-3.13281-.64062-3.95312-1.92968-.42969-.6836-.73438-1.65235-.90625-2.90235C22.51172-2.7539 20.96875-1.53125 18.95312-.5 16.94141.53516 14.72657 1.05469 12.3047 1.05469c-2.91016 0-5.28907-.88281-7.13282-2.65235-1.84765-1.76562-2.76953-3.98046-2.76953-6.63671 0-2.91016.91016-5.16407 2.72266-6.76563 1.8164-1.60156 4.20313-2.58594 7.14844-2.96094zm0 0" id="g"/><path d="M4.92188-40.13672h5.33203v8.76172h5.01172v4.30469H10.2539v20.47656c0 1.09375.37109 1.82813 1.11328 2.19922.41015.21484 1.09375.32422 2.05078.32422.2539 0 .52734-.00781.82031-.01563.29297-.01172.63672-.03515 1.02735-.07422V0c-.60547.17578-1.23829.30469-1.89063.38281C12.71875.46094 12.01172.5 11.25.5 8.78906.5 7.11719-.13281 6.24219-1.39063c-.8789-1.26171-1.32031-2.89843-1.32031-4.90625V-27.0703h-4.25V-31.375h4.25zm0 0" id="h"/><path d="M3.86719-31.23047h5.35937V0H3.8672zm0-11.8086h5.35937v5.97657H3.8672zm0 0" id="i"/><path d="M5.1875-36.15234c.07813-2.1875.45703-3.78907 1.14063-4.8047 1.23046-1.79687 3.60156-2.6953 7.11718-2.6953.33203 0 .67578.01172 1.02735.02734.35156.01953.7539.05078 1.19922.08984v4.8047c-.54688-.03907-.94141-.0625-1.1836-.07423-.2461-.00781-.47265-.01562-.6914-.01562-1.60157 0-2.5547.41797-2.8672 1.2461-.3125.83202-.46874 2.9453-.46874 6.34374h5.21093v4.16016h-5.27343V0H5.1875v-27.07031H.82031v-4.16016H5.1875zm0 0" id="j"/><path d="M23.46875-31.375h5.82813c-.7422 2.01172-2.39063 6.60156-4.95313 13.76563-1.91406 5.39062-3.51563 9.78906-4.80469 13.1875-3.04687 8.0078-5.19531 12.89062-6.44531 14.64843-1.25 1.75782-3.39844 2.63282-6.44531 2.63282-.74219 0-1.3125-.02735-1.71094-.08594-.40234-.0586-.89453-.16407-1.48047-.32032V7.64844c.91797.2539 1.58203.40625 1.99219.46875.41015.0586.76953.08593 1.08203.08593.97656 0 1.69531-.16015 2.15625-.48437.45703-.32031.84375-.71875 1.15625-1.1875.09766-.15625.44922-.95313 1.05469-2.39844.60547-1.44531 1.04687-2.52344 1.32031-3.22656L.61719-31.375h5.97656L15-5.82812zm0 0" id="k"/><path d="M5.125-6.38672h6.125V0H5.125zm0 0" id="l"/><path d="M15.96875-32.28516c3.53516 0 6.41016.85938 8.625 2.57813 2.21875 1.71875 3.55078 4.67578 4 8.8789h-5.125c-.3125-1.93359-1.02734-3.54296-2.14063-4.8203-1.11328-1.28126-2.89843-1.92188-5.35937-1.92188-3.35938 0-5.76563 1.64062-7.21094 4.92187-.9375 2.1289-1.40625 4.75782-1.40625 7.88282 0 3.14453.66406 5.78906 1.99219 7.9375 1.32813 2.14843 3.42188 3.22656 6.27344 3.22656 2.1875 0 3.91797-.67188 5.19922-2.00781 1.27734-1.33985 2.16015-3.17188 2.65234-5.4922h5.125c-.58594 4.16016-2.05078 7.19923-4.39453 9.125C21.85547-.05468 18.85937.90626 15.20312.90626c-4.10156 0-7.37109-1.4961-9.8125-4.4961-2.4414-2.99609-3.66406-6.74218-3.66406-11.23437 0-5.50781 1.33985-9.79297 4.01563-12.86328 2.67578-3.0664 6.08594-4.59766 10.22656-4.59766zm0 0" id="m"/><path d="M3.86719-31.375h5.21484v4.45313c1.25-1.54297 2.38281-2.66797 3.39844-3.3711 1.73828-1.1914 3.71094-1.78515 5.91797-1.78515 2.5 0 4.51172.61328 6.03515 1.84374.85938.70313 1.64063 1.73829 2.34375 3.10547 1.17188-1.67968 2.55079-2.92578 4.12891-3.73437 1.58203-.8125 3.35938-1.21485 5.33594-1.21485 4.21875 0 7.08593 1.52344 8.60937 4.57032.82032 1.64062 1.23438 3.84375 1.23438 6.61718V0h-5.48047v-21.79688c0-2.08984-.52344-3.52343-1.5664-4.30468-1.04688-.78125-2.32032-1.17188-3.82423-1.17188-2.0703 0-3.85156.6914-5.34765 2.07813C28.375-23.8086 27.625-21.4922 27.625-18.25V0h-5.35938v-20.47656c0-2.1289-.2539-3.6836-.76171-4.66016-.80079-1.46484-2.29297-2.19922-4.48047-2.19922-1.99219 0-3.80469.77344-5.4375 2.3164-1.6289 1.54298-2.44532 4.33595-2.44532 8.37891V0H3.8672zm0 0" id="n"/></defs><use y="50" xlink:href="#a"/><use x="33.369" y="50" xlink:href="#b"/><use x="66.738" y="50" xlink:href="#c"/><use x="100.107" y="50" xlink:href="#d"/><use x="133.477" y="50" xlink:href="#e"/><use x="166.846" y="50" xlink:href="#e"/><use x="200.215" y="50" xlink:href="#f"/><use x="233.584" y="50" xlink:href="#g"/><use x="266.953" y="50" xlink:href="#d"/><use x="300.322" y="50" xlink:href="#h"/><use x="316.992" y="50" xlink:href="#i"/><use x="330.322" y="50" xlink:href="#j"/><use x="346.992" y="50" xlink:href="#k"/><use x="376.992" y="50" xlink:href="#l"/><use x="393.662" y="50" xlink:href="#m"/><use x="423.662" y="50" xlink:href="#a"/><use x="457.031" y="50" xlink:href="#n"/></svg>