<svg xmlns="http://www.w3.org/2000/svg" role="img" viewBox="-0.93 -0.87 44.17 44.98"><title>OpenColorIO logo</title><defs><style>.cls-1{fill:#cc1e68}</style></defs><g id="Layer_2" data-name="Layer 2"><g id="Layer_1-2" data-name="Layer 1"><path d="M30 18l11.14-3.71v-.14a21.4 21.4 0 0 0-2-4.12l-.08-.12-10 6.45A9.15 9.15 0 0 1 30 18zm12.31 1.35v-.14l-11.56 1.47a9.11 9.11 0 0 1 0 1.92l11.55 1.47v-.14a21.72 21.72 0 0 0 0-4.57zM29.07 27l9.88 6.55.08-.12a21.42 21.42 0 0 0 2-4.1v-.14L30 25.35a9.15 9.15 0 0 1-.93 1.65z" class="cls-1"/><circle cx="21.63" cy="21.63" r="5" class="cls-1"/><path d="M30.47 32a13.6 13.6 0 1 1 .12-20.55l5.92-5.46a21.63 21.63 0 1 0-.11 31.47z" class="cls-1"/></g></g></svg>