<svg xmlns="http://www.w3.org/2000/svg" role="img" viewBox="-14.78 -14.78 1028.56 253.56"><title>OPNFV logo</title><style>svg {enable-background:new 0 0 1000 224.47}</style><style>.st57{fill:#373a36}</style><path d="M758.83 72.41v40.43l58.12-15.48v41.06l-58.12 15.48v57.8h-39.48V72.41c0-27.48 21.79-50.22 49.9-50.22h66.33v39.48h-66.33c-5.68 0-10.42 5.06-10.42 10.74z" class="st57"/><path d="M938.85 211.7h-40.74L841.88 22.2h42.01l34.43 119.07L953.06 22.2h42.01l-56.22 189.5z" class="st57"/><path d="M403.82 72.41v89.38c0 27.48-22.42 49.91-49.9 49.91h-36.01c-27.16 0-49.9-22.43-49.9-49.91V72.41c0-27.48 22.74-50.22 49.9-50.22h36.01c27.47 0 49.9 22.74 49.9 50.22zm-39.48 0c0-5.69-4.74-10.42-10.42-10.42h-36.01c-5.69 0-10.42 4.74-10.42 10.42v89.38c0 5.69 4.74 10.42 10.42 10.42h36.01c5.69 0 10.42-4.74 10.42-10.42V72.41z" class="st57"/><path d="M555.98 72.41V90.1c0 23.69-17.37 43.27-39.17 48.96l-60.64 15.79v57.17h-39.48V22.19h89.07c27.8 0 50.22 22.43 50.22 50.22zm-39.48 0c0-5.69-5.05-10.42-10.74-10.42h-49.59v51.48l54.64-14.21c3.16-1.9 5.69-5.37 5.69-9.16V72.41z" class="st57"/><path d="M703.73 72.42V211.7h-39.48V72.42c0-5.69-4.42-10.74-10.11-10.74h-47.38V211.7h-39.48V22.2h86.86c26.85 0 49.59 22.74 49.59 50.22z" class="st57"/><g fill-rule="evenodd" clip-rule="evenodd"><path fill="#c7e6b4" d="M112.99 33.41c17.25 11.92 17.7 38.54 0 50.26-18.07-12.1-18.78-39.39 0-50.26z"/><path fill="#5a9891" d="M57.35 55.79c20.62-3.77 39.77 14.73 35.52 35.53-21.3 4.22-41.1-14.56-35.52-35.53z"/><path fill="#127870" d="M33.84 110.96c11.92-17.25 38.55-17.71 50.26 0-12.1 18.05-39.38 18.78-50.26 0z"/><path fill="#5ccfd5" d="M56.23 166.6c-3.78-20.63 14.74-39.78 35.53-35.54 4.21 21.32-14.57 41.13-35.53 35.54z"/><path fill="#acd5cd" d="M167.03 167.72c-20.62 3.78-39.78-14.73-35.54-35.53 21.32-4.22 41.13 14.55 35.54 35.53z"/><path fill="#b5ecc9" d="M190.54 112.56c-11.92 17.25-38.54 17.69-50.25 0 12.09-18.06 39.38-18.78 50.25 0z"/><path fill="#a1d683" d="M168.15 56.91c3.77 20.62-14.73 39.78-35.52 35.53-4.23-21.3 14.54-41.1 35.52-35.53z"/><path fill="#def0d3" d="M158.66 5.64c10.68 18.05-.05 42.42-21.02 45.64-11.35-18.53-.58-43.61 21.02-45.64z"/><path fill="#91b9b4" d="M68.71 4.99C89.11 9.81 99.23 34.44 87 51.78 65.79 47.1 55.17 21.96 68.71 4.99z"/><path fill="#006860" d="M7.23 65.93C25.21 55.15 49.66 65.72 53 86.68c-18.45 11.45-43.61.85-45.77-20.75z"/><path fill="#00adbb" d="M4.93 150.29c5.76-20.16 30.83-29.13 47.6-16.11-5.67 20.97-31.28 30.42-47.6 16.11z"/><path fill="#b4e7e9" d="M69.54 217.43c-11.09-17.8-.9-42.4 20-46.1 11.73 18.28 1.54 43.59-20 46.1z"/><path fill="#007565" d="M150.88 219.47c-20.09-6-28.75-31.17-15.54-47.78 20.89 5.92 30.03 31.63 15.54 47.78z"/><path fill="#00ce7c" d="M217.24 159.15c-18.28 10.28-42.41-1-45.15-22.06 18.78-10.91 43.62.42 45.15 22.06z"/><path fill="#5fd896" d="M220.58 70.93c-5.6 20.21-30.61 29.37-47.46 16.49 5.48-21.02 31.02-30.65 47.46-16.49z"/></g></svg>