<svg xmlns="http://www.w3.org/2000/svg" role="img" viewBox="-6.99 -6.99 363.74 363.74"><title>Orange S.A. logo</title><path fill="#f60" d="M350 350H0V0h350v350z"/><path fill="#fff" d="M43.07789 321.77478c-12.67353 0-24.10688-8.06959-24.10688-25.70382 0-17.63421 11.43335-25.7038 24.10688-25.7038s24.0899 8.06959 24.0899 25.7038c0 17.63422-11.41637 25.70382-24.0899 25.70382m0-40.56887c-9.5816 0-11.33142 8.63023-11.33142 14.86505 0 6.23485 1.74983 14.88207 11.33142 14.88207 9.5816 0 11.33142-8.64722 11.33142-14.88207 0-6.23482-1.74983-14.86505-11.33142-14.86505m32.88169-9.55425h12.19784v5.72518c2.32744-3.09194 8.05262-6.72751 13.42103-6.72751.50966 0 1.13824 0 1.66489.068v12.04495h-.62858c-5.57228 0-11.6712.86642-13.64188 5.19853v32.39734h-13.0133v-48.70644zm61.34428 44.46608c-4.96068 3.26181-10.32909 4.84176-16.10523 4.84176-9.08892 0-14.47432-6.04795-14.47432-14.16853 0-10.9067 10.0233-16.66585 30.68149-18.9933v-2.71819c0-3.53364-2.68421-5.60624-7.64489-5.60624-4.96069 0-8.98699 1.97068-11.89205 5.60624l-8.64722-4.9267c4.53597-6.35375 11.45034-9.53062 20.74313-9.53062 12.70751 0 19.84274 5.50432 19.84274 14.45732 0 0-.017 35.21747 0 35.3024H138.4421l-1.13824-4.26414zm-17.95699-10.26115c0 3.27881 2.05563 6.33676 5.77614 6.33676 4.02631 0 7.95068-1.66487 11.87506-5.13056v-11.53528c-11.97699 1.47801-17.6512 4.56993-17.6512 10.32909m40.59096-32.907l10.6179-1.46103 1.17222 5.77615c5.98-4.38307 10.73682-6.71052 16.71682-6.71052 10.0233 0 15.20483 5.31745 15.20483 15.85039v33.90934h-12.82642v-31.68381c0-5.96302-1.54596-8.64723-6.18386-8.64723-3.82245 0-7.64489 1.73284-12.01097 5.4024v34.92864h-12.69052V272.9496zm75.0847 36.93993c9.7175-.0679 10.54995-9.97234 10.54995-16.41103 0-7.64489-3.72052-13.81176-10.63489-13.81176-4.60393 0-9.75148 3.36374-9.75148 14.33841 0 5.99699.42471 15.96931 9.83642 15.88438m22.86671-38.41132v46.12416c0 8.12057-.64557 21.55859-23.83506 21.67751-9.5816.068-18.46666-3.77148-20.23348-12.12989l12.63955-2.03864c.52665 2.3954 2.00466 4.77381 9.17387 4.77381 6.64256 0 9.83642-3.17687 9.83642-10.78779v-5.6742l-.16988-.16989c-2.03864 3.65256-5.13057 7.10125-12.5716 7.10125-11.3654 0-20.30142-7.88273-20.30142-24.34472 0-16.29211 9.22483-25.41501 19.57091-25.432 9.73449-.017 13.3191 4.41705 14.16853 6.74449l-.16989-.017 1.07029-5.8271h10.82176zm30.65091 49.76823c-14.3554 0-22.91768-9.24183-22.91768-25.26212 0-16.20717 8.66421-25.432 22.71382-25.432 14.0496 0 22.40802 8.95302 22.40802 24.78643 0 .84943-.10194 1.68188-.10194 2.51432h-32.43131c.0849 9.24182 3.92437 13.89671 11.46733 13.89671 4.84176 0 8.05262-1.95369 11.0596-6.23483l9.37774 5.19852c-4.12824 6.91438-11.56927 10.53296-21.57558 10.53296m9.61557-31.70081c0-6.50665-3.7375-10.34608-9.81943-10.34608-5.79313 0-9.41171 3.75449-9.92137 10.34608h19.7408zm34.53456-36.37585l-4.72284 12.21483-4.80779-12.21483h-4.11125V269.275h2.66722v-13.43801h.0679l5.28347 13.43801h1.69886l5.24949-13.43801h.0849V269.275h2.65023v-16.10523h-4.06029zm-29.64518 0v2.14057h5.02864V269.275h2.66721v-13.96466h5.04563v-2.14057H303.0451z"/></svg>