<svg xmlns="http://www.w3.org/2000/svg" role="img" viewBox="75.72 -1.77 248.30 248.30"><title>Orange S.A. logo</title><style>svg {enable-background:new 0 0 400 245}</style><g fill-rule="evenodd" clip-rule="evenodd"><path fill="#f8a03a" d="M80.67 3.17h238.66v238.66H80.67V3.17z"/><path fill="#fff" d="M173.66 213.72c-3.23 2.12-6.74 3.16-10.5 3.16-5.92 0-9.43-3.93-9.43-9.21 0-7.09 6.53-10.85 19.99-12.36v-1.77c0-2.31-1.75-3.64-4.98-3.64-3.23 0-5.86 1.27-7.74 3.64l-5.65-3.21c2.96-4.12 7.47-6.18 13.53-6.18 8.28 0 12.92 3.58 12.92 9.39 0 0-.01 22.92.01 22.97h-7.41l-.74-2.79zm-11.71-6.65c0 2.12 1.35 4.11 3.77 4.11 2.63 0 5.19-1.09 7.74-3.34v-7.5c-7.81.96-11.51 2.97-11.51 6.73zm26.46-21.52l6.92-.95.76 3.75c3.9-2.85 7-4.36 10.9-4.36 6.53 0 9.9 3.45 9.9 10.31v22.06h-8.35v-20.61c0-3.88-1.01-5.63-4.04-5.63-2.49 0-4.98 1.15-7.81 3.52v22.73h-8.28v-30.82zm83.81 31.42c-9.36 0-14.94-6-14.94-16.44 0-10.55 5.66-16.55 14.82-16.55 9.15 0 14.6 5.81 14.6 16.12 0 .55-.07 1.09-.07 1.64H265.5c.07 6 2.57 9.04 7.47 9.04 3.16 0 5.25-1.27 7.2-4.06l6.12 3.39c-2.7 4.5-7.54 6.86-14.07 6.86zm6.26-20.61c0-4.25-2.42-6.73-6.39-6.73-3.78 0-6.13 2.42-6.47 6.73h12.86zm-166.23 20.96c-8.26 0-15.7-5.26-15.7-16.73s7.45-16.72 15.7-16.72c8.26 0 15.71 5.25 15.71 16.72 0 11.47-7.45 16.73-15.71 16.73zm0-26.4c-6.24 0-7.39 5.62-7.39 9.68s1.16 9.68 7.39 9.68c6.24 0 7.39-5.62 7.39-9.68 0-4.07-1.15-9.68-7.39-9.68zm21.44-6.22h7.94v3.73c1.51-2.01 5.25-4.37 8.75-4.37.33 0 .74 0 1.07.06v7.82h-.4c-3.63 0-7.61.56-8.88 3.38v22.32h-8.49V184.7h.01zm103.65 24.89c6.34-.06 6.88-6.49 6.88-10.69 0-4.95-2.42-8.98-6.93-8.98-3.01 0-6.35 2.19-6.35 9.32-.01 3.92.27 10.39 6.4 10.35zm14.9-25.01v30.02c0 5.29-.4 14-15.53 14.11-6.24.04-12.03-2.46-13.18-7.89l8.24-1.32c.35 1.55 1.3 3.1 5.98 3.1 4.33 0 6.4-2.07 6.4-7.02v-3.68l-.11-.12c-1.33 2.36-3.35 4.6-8.2 4.6-7.39 0-13.22-5.12-13.22-15.83 0-10.6 6-16.53 12.76-16.54 6.33-.02 8.69 2.87 9.22 4.39l-.1-.02.69-3.79h7.05v-.01zm39.07-12.41h-3.97v10.98h-2.09v-10.98h-3.97v-1.69h10.04v1.69h-.01zm16.55 10.97h-2.1v-10.58h-.06l-4.16 10.58h-1.33l-4.15-10.58H296v10.58h-2.09v-12.67h3.23l3.79 9.62 3.72-9.62h3.21v12.67z"/></g></svg>