<svg xmlns="http://www.w3.org/2000/svg" role="img" viewBox="-4.67 -4.67 242.84 45.09"><title>Osaka NDS Co., Ltd. logo</title><defs><style>.cls-1,.cls-2{fill:#221815}.cls-1,.cls-3{fill-rule:evenodd}.cls-3,.cls-4{fill:#009ea7}</style></defs><g id="グループ化_207" data-name="グループ化 207"><g id="グループ化_206" data-name="グループ化 206"><g id="グループ化_204" data-name="グループ化 204"><path id="パス_410" d="M68.38 24.9h1.7v1.33a3.28 3.28 0 0 0 1.85-1.82h1.13v2.12h-3.37v.85l-1.31-1.08zM78 28.44v-1.91h-3v-2.12h2.8v-1.9H75V20h-1.95v2.48h-.66v-2.13h-1.71v1.77a3.31 3.31 0 0 1-.6 1.95V23h-1.7v-3h-1.94v3h-1.8v1.9h1.78a8.12 8.12 0 0 1-1.81 3.43v2.84a7 7 0 0 0 1.83-2.27v7h1.94v-7.18L70 30.13v-1.69h2.29a11.16 11.16 0 0 1-2.84 4.28v2.41a9.54 9.54 0 0 0 3.57-4v4.8H75v-4.72a8.18 8.18 0 0 0 3.09 3.71v-2.4a9.45 9.45 0 0 1-2.37-4.08z" class="cls-1" data-name="パス 410"/><path id="パス_411" d="M84.25 28.44h2.63v-1.9h-7.15v1.9h2.6v4.84l-2.9.54v1.93l7.86-1.48v-1.93l-3 .57z" class="cls-2" data-name="パス 411"/><path id="パス_412" d="M91.22 22.51h-1.58V20h-1.95v2.48h-8.23v1.9h8.26c0 1.76 0 3.7.1 5.1a7.08 7.08 0 0 0 4.6 6.43v-2.08a5 5 0 0 1-2.67-4.38c0-1.39-.08-3.3-.1-5h2.57v-1.87H93v-2.23h-1.78z" class="cls-2" data-name="パス 412"/><path id="長方形_54" d="M96.07 25.25h8.66v1.9h-8.66z" class="cls-2" data-name="長方形 54"/><path id="パス_413" d="M119 34v-7.2h2.26v-1.9H119V20h-1.93v4.9h-2.24v1.9h2.24V34h-3.36v1.9h7.84V34z" class="cls-2" data-name="パス 413"/><path id="パス_414" d="M114.86 31.4v-2.2l-1.6-.91a6.18 6.18 0 0 0 1.27-3.7v-2.26h-2.12V20h-1.93v2.3h-2v1.9h4.17v.37a4 4 0 0 1-4 4h-.25v1.9h.25a6.41 6.41 0 0 0 1.84-.28v5.69h1.94v-6z" class="cls-2" data-name="パス 414"/><path id="パス_415" d="M93.8 30.58h2.65l-.6 3.42h-1.92v1.9h10.21a2.21 2.21 0 0 0 2.34-2.06v-.28a8.06 8.06 0 0 0-.58-2.15h-2.1a12.07 12.07 0 0 1 .71 2.1.49.49 0 0 1-.51.49h-6.19l.6-3.43H107v-1.9H93.8z" class="cls-2" data-name="パス 415"/><path id="パス_416" d="M102.08 20.35h-3.36c-1.21 1.73-2.74 3.25-4.93 3.42v1.9a8 8 0 0 0 5.89-3.43h1.45a8 8 0 0 0 5.87 3.43v-1.9c-2.18-.17-3.7-1.69-4.92-3.42z" class="cls-2" data-name="パス 416"/></g><g id="グループ化_205" data-name="グループ化 205"><path id="パス_417" d="M162.55 22.81h4.87v-2.46h-12.3v2.46H160v10.62h-5.09v2.47h12.72v-2.47h-5.08z" class="cls-2" data-name="パス 417"/><path id="パス_418" d="M215 22.81h4.88v-2.46h-12.36v2.46h4.88v10.62h-5.09v2.47H220v-2.47h-5z" class="cls-2" data-name="パス 418"/><path id="パス_419" d="M182.3 27.31h6.77v2.38a3.75 3.75 0 0 1-3.72 3.72c-1.45.06-2 0-2 0v2.49h2.08a6.27 6.27 0 0 0 6.18-6.18v-2.38h3.68v-2.5h-13z" class="cls-2" data-name="パス 419"/><path id="パス_420" d="M232.81 32a5.52 5.52 0 0 0-1.19-2 9.51 9.51 0 0 0 .72-3.53c.07-5.18 0-6.15 0-6.15H221.6v2.47h8.19s.06 1.1 0 3.68a7.08 7.08 0 0 1-6.94 6.93 11.21 11.21 0 0 1-1.42 0v2.5H223a9.55 9.55 0 0 0 7.32-3.58 4.1 4.1 0 0 1 .21.48c.13.39.45 1.78.74 3.1h2.52c-.33-1.29-.79-3.26-.98-3.9z" class="cls-2" data-name="パス 420"/><path id="パス_421" d="M180.26 26.5c.07-5.18 0-6.15 0-6.15h-10.81v2.46h8.26s.06 1.1 0 3.69a7.59 7.59 0 0 1-.42 2.22 12.23 12.23 0 0 0-5.7-3.62v2.59A10.18 10.18 0 0 1 176 31a7.16 7.16 0 0 1-5.22 2.44h-1.74v2.46h1.84a9.62 9.62 0 0 0 6.55-2.72 19.19 19.19 0 0 1 1.21 2.7h2.66a20.51 20.51 0 0 0-2.25-4.88 9.59 9.59 0 0 0 1.21-4.5z" class="cls-2" data-name="パス 421"/><path id="長方形_55" d="M196.91 19.71h1.84v3.1h-1.84z" class="cls-2" data-name="長方形 55"/><path id="パス_422" d="M194.31 21.92h-.72v-1.57h-11.3v2.45h13.85v-3.1h-1.84z" class="cls-2" data-name="パス 422"/><path id="長方形_56" d="M196.49 26.69h12.4v2.46h-12.4z" class="cls-2" data-name="長方形 56"/><path id="パス_423" d="M132.22 25.53h5.46v-2.3h-5.58V20h-2.55v3.2H124v2.3h5.45a8.93 8.93 0 0 1-5.5 7.94V36a11.77 11.77 0 0 0 6.89-6.48 11.84 11.84 0 0 0 6.9 6.48v-2.53a9 9 0 0 1-5.52-7.94z" class="cls-2" data-name="パス 423"/><path id="パス_424" d="M147.41 27.69v-1.17h3.13v2.72a7.6 7.6 0 0 1-.34 2.37 7.36 7.36 0 0 1-.95-3.78h-1.84zm5.24 1.55V24.5h-5.24v-2.16h5.36v-2h-13.54v15.55h2.16V22.34h1.27L141.58 26l.29.4c1.13 1.62 1.25 2.9 1 3.46 0 .09-.23.33-.77.33h-.19v2.15h.19a2.9 2.9 0 0 0 2.56-1.55c.68-1.3.28-3.15-1-5.12l1.66-5.2v7.2c0 3.61-.36 6.1-1.59 8.2h2.37a18 18 0 0 0 1.33-7.47 9.23 9.23 0 0 0 1.47 5 2.84 2.84 0 0 1-1.56.4v2.08a4.84 4.84 0 0 0 3-1 5.06 5.06 0 0 0 2.9 1v-2.2a2.88 2.88 0 0 1-1.48-.47 8.4 8.4 0 0 0 .89-3.97z" class="cls-1" data-name="パス 424"/></g></g></g><g id="グループ化_210" data-name="グループ化 210"><g id="グループ化_209" data-name="グループ化 209"><path id="パス_425" d="M0 0h9.1l4.08 19h.08V0h5.25v27.4h-8.45L5.32 5.47h-.08V27.4H0z" class="cls-3" data-name="パス 425"/><path id="パス_426" d="M16.79 35.89h7.56c8 0 10.2-3.08 11.28-8.28l2-9.76c1.7-8.2-.49-9.36-7.62-9.36h-7.52zm11.27-23.46c4.18 0 4.16.81 3.4 4.46l-2.34 11.26C28.59 30.76 28.07 32 24 32z" class="cls-3" data-name="パス 426"/><g id="グループ化_208" data-name="グループ化 208"><path id="パス_427" d="M36 28.44h6.4l.6-1.39h-6.4z" class="cls-4" data-name="パス 427"/><path id="パス_428" d="M45.6 28.44h6.56a13.11 13.11 0 0 0 .42-1.39h-6.91a5 5 0 0 1-.07 1.39z" class="cls-4" data-name="パス 428"/><path id="パス_429" d="M41.64 30.29l.14-.33.34-.82h-6.4l-.48 1.15z" class="cls-4" data-name="パス 429"/><path id="パス_430" d="M51.34 30.29c.18-.36.36-.75.54-1.15h-6.45c-.08.26-.17.53-.29.82l-.16.33z" class="cls-4" data-name="パス 430"/><path id="パス_431" d="M52.68 26.59c1.13-6.47-6.19-7.94-4.46-12.12.56-1.35 1.18-2.12 2.56-2.12s1.36.77.8 2.12L50 18.31h6.4L58.17 14c1.9-4.57-1.17-6-5.46-6-4.92 0-9 1.88-11 6.84-2.7 6.49 3.13 7.8 3.92 11.77z" class="cls-4" data-name="パス 431"/><path id="パス_432" d="M45.22 35.88a9.18 9.18 0 0 0 1.27-.47H36.13a5 5 0 0 0 1 .47z" class="cls-4" data-name="パス 432"/><path id="パス_433" d="M43.19 26.59l.56-1.36h-6.4l-.56 1.36z" class="cls-4" data-name="パス 433"/><path id="パス_434" d="M48.63 34a9.25 9.25 0 0 0 .7-.7H34.71a3.31 3.31 0 0 0 .2.7z" class="cls-4" data-name="パス 434"/><path id="パス_435" d="M50.24 32.16c.21-.29.4-.6.6-.93H44.4a2.22 2.22 0 0 1-1.8.8c-.79 0-1.18-.2-1.17-.8h-6.52a7.72 7.72 0 0 0-.2.93z" class="cls-4" data-name="パス 435"/></g></g></g></svg>