<svg xmlns="http://www.w3.org/2000/svg" role="img" viewBox="288.86 62.86 501.28 325.78"><title>Ownera (member) logo</title><path fill="#022547" d="M375.73 340.43a42 42 0 0 1-2.73 15.41 36.59 36.59 0 0 1-7.8 12.28 35.42 35.42 0 0 1-12.09 8.08 43.62 43.62 0 0 1-31.33 0 35.63 35.63 0 0 1-12.14-8.08 36.35 36.35 0 0 1-7.83-12.28 44.28 44.28 0 0 1 0-30.83 36.31 36.31 0 0 1 7.83-12.27 35.51 35.51 0 0 1 12.14-8.09 41.15 41.15 0 0 1 15.68-2.9 40.55 40.55 0 0 1 15.65 2.93 35.73 35.73 0 0 1 12.09 8.09A36.22 36.22 0 0 1 373 325a42 42 0 0 1 2.73 15.43zm-14.44 0a35.27 35.27 0 0 0-1.65-11.18 23.76 23.76 0 0 0-4.74-8.4 20.53 20.53 0 0 0-7.51-5.29 28.16 28.16 0 0 0-20 0 20.72 20.72 0 0 0-7.56 5.29 23.7 23.7 0 0 0-4.79 8.4 38 38 0 0 0 0 22.35 23.35 23.35 0 0 0 4.79 8.38 20.77 20.77 0 0 0 7.56 5.26 28.16 28.16 0 0 0 20 0 20.58 20.58 0 0 0 7.51-5.24 23.41 23.41 0 0 0 4.74-8.38 35.16 35.16 0 0 0 1.65-11.19zm20.62-37.84h11.83a5.16 5.16 0 0 1 3.06.86 4.14 4.14 0 0 1 1.65 2.33l12.87 45.27c.32 1.12.6 2.33.86 3.64s.52 2.7.76 4.16c.28-1.46.59-2.85.92-4.16s.69-2.52 1.07-3.64l14.87-45.27a5 5 0 0 1 1.65-2.2 4.64 4.64 0 0 1 3-1h4.13a5.08 5.08 0 0 1 3 .86 4.42 4.42 0 0 1 1.67 2.33l14.76 45.27a60 60 0 0 1 2 7.44c.24-1.37.5-2.67.76-3.93s.53-2.43.81-3.51l12.88-45.27a4.2 4.2 0 0 1 1.62-2.25 4.9 4.9 0 0 1 3-.94h11.12l-23.5 75.68H454l-16.54-51.71c-.21-.67-.43-1.38-.65-2.15s-.45-1.59-.66-2.46c-.21.87-.43 1.69-.65 2.46s-.45 1.48-.66 2.15l-16.69 51.71h-12.74zm127.6.07a3.83 3.83 0 0 1 1.13.32 3.65 3.65 0 0 1 1 .68 11.2 11.2 0 0 1 1 1.18l39.73 50.61c-.14-1.22-.24-2.42-.29-3.59s-.08-2.25-.08-3.27v-46h12.41v75.68h-7.28a6.43 6.43 0 0 1-2.77-.52 6.23 6.23 0 0 1-2.15-1.89l-39.57-50.4c.11 1.11.19 2.22.24 3.32s.08 2.1.08 3v46.48h-12.4v-75.67h7.38a13.76 13.76 0 0 1 1.57.07zm120.02-.07v11.2H596v21h26.43v10.84H596V367h33.55v11.25h-47.76v-75.66zm28.84 46.11v29.57h-14.08v-75.68h23.08a48.42 48.42 0 0 1 13.27 1.59 25.31 25.31 0 0 1 9.05 4.48 17.23 17.23 0 0 1 5.18 6.88 24.14 24.14 0 0 1 .53 16 20.76 20.76 0 0 1-3.25 6.18 22 22 0 0 1-5.23 4.87 27.44 27.44 0 0 1-7.09 3.34 14.07 14.07 0 0 1 4.6 4.35l19 27.95h-12.72a6.14 6.14 0 0 1-3.11-.73 6.3 6.3 0 0 1-2.17-2.1l-15.92-24.23a5.56 5.56 0 0 0-2-1.94 6.91 6.91 0 0 0-3.16-.57zm0-10.1h8.79a21.66 21.66 0 0 0 6.94-1 13.3 13.3 0 0 0 4.86-2.75 10.84 10.84 0 0 0 2.85-4.16 14.29 14.29 0 0 0 1-5.28q0-5.76-3.8-8.85t-11.59-3.09h-9zM781 378.27h-10.89a4.72 4.72 0 0 1-3-.92 5.21 5.21 0 0 1-1.7-2.27l-5.65-15.44H728.4l-5.65 15.44a4.94 4.94 0 0 1-1.65 2.19 4.63 4.63 0 0 1-3 1h-10.95l29.73-75.68h14.39zm-49-28.58h24.13l-9.21-25.17c-.42-1.12-.88-2.44-1.39-4s-1-3.16-1.49-4.94q-.74 2.67-1.44 5c-.47 1.54-.94 2.88-1.39 4z"/><path fill="#3cb9ef" d="M637.38 126.35l-7-3.84L590 100.32l-6.47-3.56-43.39-23.87-44.52 23-6.62 3.46-18.78 9.72-23.93-14.82-57.06 28.33 46.87 32 27.84-15 19.64 12.8-52.74 29.42 46.37 33.08 7 5 51.41 36.67L588.85 221l7.23-4.82 41.58-27.69 6.64-4.42 44.36-29.55zm-53.54-22.56l40.39 22.43-38.44 23.18-40.4-24zm-4.71 49.63l-41.61 25.09-40.31-25.94 41.53-23.38zm-39.13-74l37.4 20.78-38.44 21.41-37.36-22.14zm-137.7 43.29l42.84-21.48 35.51 22.25-43.14 23zm68.84 13.06l22.58-12.16-17.52-10.85 18.8-9.82 37.3 22.37-41.5 23.11zM445 182l45-25.33 40.28 26.25-45.22 27.27zm90.81 63.93l-43.79-30.83 45.24-27.62 43.91 28.62zm52.6-34.59L544.52 183l41.62-25.4L630 183.94zm48.24-31.72l-43.88-26 38.42-23.45L675 154.41z"/></svg>