<svg xmlns="http://www.w3.org/2000/svg" role="img" xmlns:xlink="http://www.w3.org/1999/xlink" viewBox="1.87 3.49 143.52 49.90"><title>PaSh logo</title><defs><path d="M4.6289 0v-42.94922h16.19922c2.85157 0 5.03126.13672 6.53516.41016 2.10938.35156 3.8789 1.01953 5.30078 2.00781 1.42578.98438 2.57422 2.36719 3.44532 4.14453.86718 1.77734 1.30468 3.73047 1.30468 5.85938 0 3.65234-1.16406 6.74218-3.48828 9.27343-2.32422 2.52735-6.52344 3.79297-12.59766 3.79297H10.3125V0zm5.6836-22.53125h11.10156c3.67188 0 6.28125-.67969 7.82422-2.04688 1.54297-1.36718 2.3164-3.29296 2.3164-5.77343 0-1.79688-.45702-3.33594-1.36327-4.61328-.91016-1.28125-2.10547-2.125-3.58985-2.53516-.95703-.2539-2.72656-.38281-5.30468-.38281H10.3125zm0 0" id="a"/><path d="M24.25781-3.83594C22.3047-2.17578 20.42578-1.0078 18.6172-.3203 16.8125.36329 14.875.70313 12.80469.70313c-3.41797 0-6.04688-.83594-7.88282-2.50391-1.83593-1.67188-2.7539-3.80469-2.7539-6.40235 0-1.52343.34766-2.91406 1.03906-4.17578.69531-1.2578 1.60156-2.26953 2.72656-3.03125 1.1211-.76172 2.38672-1.33984 3.79297-1.73047 1.03516-.27343 2.59766-.53515 4.6875-.78906 4.25782-.50781 7.39063-1.11328 9.40625-1.8164.01953-.72266.02735-1.1836.02735-1.37891 0-2.14844-.4961-3.66016-1.4961-4.53906-1.34765-1.1914-3.34765-1.78907-6.0039-1.78907-2.48047 0-4.3125.4375-5.4922 1.3047-1.18359.87109-2.05859 2.40624-2.62109 4.61718l-5.15625-.70313c.46875-2.20703 1.23829-3.99218 2.3125-5.34765 1.07422-1.35938 2.625-2.40235 4.65625-3.13672 2.03125-.73047 4.38672-1.09766 7.0625-1.09766 2.65626 0 4.8125.3125 6.47657.9375 1.66015.625 2.8789 1.41016 3.66015 2.35938.78125.94531 1.32813 2.14453 1.64063 3.58984.17578.89844.26172 2.51563.26172 4.85938v7.03125c0 4.90234.11328 8.0039.33984 9.30468C29.71094-2.4375 30.15625-1.1914 30.82031 0H25.3125c-.54688-1.09375-.89844-2.375-1.05469-3.83594zm-.4375-11.78125c-1.91406.78125-4.78906 1.44532-8.61718 1.99219-2.16797.3125-3.69922.66406-4.59766 1.05469-.89844.39062-1.58985.96484-2.08203 1.71484-.48828.7539-.73047 1.58985-.73047 2.5039 0 1.40626.53125 2.57813 1.59765 3.51563 1.0625.9375 2.6211 1.40625 4.67188 1.40625 2.03125 0 3.83594-.4414 5.42188-1.33203 1.58203-.88672 2.74218-2.10547 3.48437-3.64453.5664-1.1914.85156-2.95313.85156-5.27344zm0 0" id="b"/><path d="M2.69531-13.79688l5.35938-.46875c.2539 2.14844.84765 3.91016 1.77343 5.28516.9297 1.3789 2.3672 2.49219 4.32032 3.33985 1.95312.85156 4.15234 1.27343 6.59375 1.27343 2.16797 0 4.08203-.32031 5.74218-.96484 1.66016-.64453 2.89454-1.52735 3.70704-2.65235.80859-1.12109 1.21484-2.34765 1.21484-3.67578 0-1.34765-.39063-2.52343-1.17188-3.53125-.78124-1.0039-2.0703-1.84765-3.86718-2.53515-1.15235-.44922-3.70313-1.14453-7.64844-2.09375-3.94531-.94532-6.70703-1.83985-8.28906-2.67969-2.05078-1.07422-3.57813-2.40625-4.58594-4-1.0039-1.58984-1.50781-3.375-1.50781-5.34375 0-2.16797.61719-4.19531 1.84375-6.08203 1.23047-1.88281 3.03125-3.3164 5.39062-4.29297 2.36328-.97656 4.99219-1.46094 7.88282-1.46094 3.18359 0 5.99218.51172 8.42187 1.53516 2.4336 1.02734 4.30469 2.53516 5.60938 4.52734 1.30859 1.99219 2.01562 4.25 2.10937 6.76563l-5.44531.41406c-.29297-2.71484-1.28516-4.76563-2.97657-6.15625-1.6875-1.38672-4.18359-2.07813-7.48437-2.07813-3.4375 0-5.9414.62891-7.51563 1.89063-1.5703 1.25781-2.35937 2.77734-2.35937 4.55469 0 1.54297.5586 2.8125 1.67188 3.8086 1.09375.99609 3.94921 2.01562 8.5703 3.0625 4.6172 1.04296 7.78907 1.95702 9.50782 2.73827 2.5 1.15235 4.34375 2.61328 5.53516 4.3789 1.1914 1.76954 1.78515 3.8047 1.78515 6.10938 0 2.28516-.65234 4.4375-1.96093 6.46094-1.3086 2.01953-3.1875 3.59375-5.64063 4.71485-2.44922 1.125-5.21094 1.6875-8.27344 1.6875-3.88672 0-7.14453-.57032-9.77343-1.70313-2.625-1.13281-4.6875-2.83594-6.1797-5.10938-1.49609-2.27734-2.28124-4.85156-2.35937-7.71875zm0 0" id="c"/><path d="M3.95313 0v-42.94922h5.27343v15.41016c2.46094-2.85157 5.57032-4.27735 9.32032-4.27735 2.30468 0 4.30468.45313 6.0039 1.36329 1.69922.90624 2.91406 2.16406 3.64844 3.76562.73047 1.60156 1.09765 3.92188 1.09765 6.96875V0h-5.27343v-19.71875c0-2.63672-.57032-4.55469-1.71485-5.7539-1.14062-1.20313-2.7578-1.80079-4.84765-1.80079-1.5625 0-3.03125.40235-4.41016 1.21485-1.375.80859-2.35547 1.91015-2.9414 3.29296-.58594 1.38672-.88282 3.3047-.88282 5.7422V0zm0 0" id="d"/></defs><use y="50" xlink:href="#a"/><use x="40.02" y="50" xlink:href="#b"/><use x="73.389" y="50" xlink:href="#c"/><use x="113.408" y="50" xlink:href="#d"/></svg>