<svg xmlns="http://www.w3.org/2000/svg" role="img" viewBox="4.01 4.01 259.74 179.74"><title>Penn State logo</title><path d="M145 9h1v1h-1zm-34 1h1v1h-1zm51 1h1v1h-1zm10 2h1v1h-1zm20 6h1v1h-1zM72 20h1v1h-1zm-9 4h1v1h-1zm51 0h1v1h-1zm-53 1h1v1h-1zm29 8h1v1h-1zm64 2h1v1h-1zm-69 1h1v1h-1zm-46 3h1v1h-1zm37 3h1v1h-1zm100 0h1v1h-1zm8 3h1v1h-1zm-83 1h1v1h-1zm-34 3h1v1h-1zm70 3h1v1h-1zm-93 1h1v1h-1zm55 2h1v1h-1zm6 1h1v1h-1zm64 9h1v1h-1zm11 1h1v1h-1zm71 0h1v1h-1zm1 2h1v1h-1zm-69 4h1v1h-1zM12 76h1v1h-1zm179 6h1v1h-1zm66 1h1v1h-1zM22 84h1v1h-1zm19 1h1v1h-1zm-20 3h1v1h-1zm237 3h1v1h-1zm0 5h1v1h-1zm-24 5h1v1h-1zm-9 1h1v1h-1zm-187 7h1v1h-1zm187 0h1v2h-1zm31 0h1v1h-1zm-31 2h1v1h-1zM40 122h1v1h-1zm211 0h1v1h-1zm-55 4h1v1h-1zm-6 3h1v1h-1zm-165 1h1v1h-1zm59 0h1v1h-1zm119 1h1v1h-1zm14 1h1v1h-1zm-36 6h1v1h-1zm-133 3h1v1h-1zm37 1h1v1h-1zm127 0h1v1h-1zm-58 1h1v1h-1zm-12 2h1v1h-1zm-24 1h1v1h-1zm14 0h1v1h-1zm13 2h1v1h-1zm34 0h1v1h-1zm-124 2h1v1h-1zm4 4h1v1h-1zm183 0h1v2h-1zm1 0h1v2h-1zm4 1h1v1h-1zm-5 1h1v1h-1zm1 0h1v1h-1zm6 5h1v1h-1zm-171 6h1v1h-1zm107 4h1v1h-1zm-60 7h1v1h-1zm21 0h1v1h-1z" fill="#959aa8"/><path d="M129 31h1v1h-1zm112 128h1v1h-1zm0 1h1v1h-1z" fill="#00002e"/><path d="M120 9h1v1h-1zm26 0h1v1h-1zm10 1h1v1h-1zm-38 4h1v1h-1zm-32 1h1v1h-1zm-9 3h1v1h-1zm35 0h1v1h-1zm92 6h1v1h-1zM57 27h1v1h-1zm153 0h1v1h-1zm-74 4h1v1h-1zm-48 1h1v1h-1zm34 4h1v1h-1zm45 3h1v1h-1zM65 40h1v1h-1zm105 0h1v1h-1zm-58 6h1v1h-1zm55 3h1v1h-1zm1 0h3v1h-3zm3 0h1v1h-1zM48 50h1v1h-1zm102 0h1v1h-1zm91 1h1v1h-1zm-113 3h1v1h-1zm68 3h1v1h-1zm-80 1h1v1h-1zm83 7h1v1h-1zm-32 1h1v1h-1zm13 1h1v1h-1zm0 1h1v1h-1zm27 2h1v1h-1zm46 0h1v1h-1zm-98 2h1v1h-1zm3 0h1v1h-1zm60 0h1v1h-1zM26 74h1v1h-1zm145 0h1v1h-1zM45 75h1v1h-1zm148 0h1v1h-1zM11 79h1v1h-1zm216 5h1v1h-1zm-31 1h1v1h-1zm16 0h1v1h-1zm-4 12h1v1h-1zm-170 3h1v1h-1zm-28 7h1v1h-1zm200 6h1v1h-1zm-189 4h1v1h-1zm18 1h1v1h-1zm182 0h1v1h-1zm-2 7h1v2h-1zm-5 2h1v1h-1zm5 0h1v1h-1zm28 2h1v1h-1zm-41 1h1v1h-1zm-184 2h1v1h-1zm5 2h1v1h-1zm165 1h1v1h-1zm-109 1h1v1h-1zm130 4h1v1h-1zm-52 1h1v1h-1zm-61 1h1v1h-1zm58 0h1v1h-1zm-9 2h1v1h-1zm-39 1h1v1h-1zm7 1h1v1h-1zm35 0h1v1h-1zm-98 3h1v1h-1zm87 0h1v1h-1zm45 0h1v1h-1zm62 9h1v1h-1zm-12 1h1v1h-1zm1 2h1v1h-1zm-155 8h1v1h-1zm100 3h1v1h-1zm-59 6h1v1h-1zm24 0h1v1h-1z" fill="#aeb2bc"/><path d="M140 9h1v1h-1zm13 1h1v1h-1zm-53 2h1v1h-1zm66 0h1v1h-1zm47 17h1v1h-1zm-48 9h1v1h-1zm62 0h1v1h-1zm-110 2h1v1h-1zm54 0h1v1h-1zm-55 1h1v1h-1zm119 4h1v1h-1zM71 46h1v1h-1zm165 0h1v1h-1zm1 1h1v1h-1zm-131 1h1v1h-1zm-84 9h1v1h-1zm224 1h1v1h-1zM55 61h1v1h-1zm145 5h1v1h-1zm-36 1h1v1h-1zM15 69h1v1h-1zm217 13h1v1h-1zm3 3h1v1h-1zm-5 2h1v1h-1zm1 1h1v1h-1zM9 94h1v2H9zm0 2h1v1H9zm247 12h1v1h-1zm-217 8h1v1h-1zm167 3h1v1h-1zm4 5h1v1h-1zm-6 3h1v1h-1zm-122 2h1v1h-1zm3 2h1v1h-1zm98 1h1v1h-1zm10 0h1v1h-1zm-7 3h1v1h-1zm-29 7h1v1h-1zm-45 3h1v1h-1zm-23 3h1v1h-1zm11 6h1v1h-1zm139 1h1v1h-1zm9 8h1v1h-1zm-175 1h1v1h-1zm166 1h1v1h-1zm-137 10h1v1h-1zm60 1h1v1h-1zm-31 2h1v1h-1zm8 0h1v1h-1z" fill="#49536f"/><path d="M119 9h1v1h-1zm-16 2h1v1h-1zm60 0h1v1h-1zm-36 8h1v1h-1zm68 1h1v1h-1zm-87 5h1v1h-1zm104 3h1v1h-1zM88 34h1v1h-1zm-10 1h1v1h-1zm152 5h1v1h-1zm-123 2h1v1h-1zm-1 4h1v1h-1zm-77 2h1v1h-1zm39 0h1v1h-1zm81 2h1v1h-1zm35 1h1v1h-1zm-48 1h1v1h-1zm56 0h1v1h-1zm-85 1h1v1h-1zm-64 1h1v1h-1zm56 2h1v1h-1zm99 3h1v1h-1zm-22 3h1v1h-1zm26 0h1v1h-1zm-6 1h1v1h-1zM32 65h1v1h-1zm133 2h1v1h-1zM29 69h1v1h-1zm192 5h1v1h-1zm-46 1h1v1h-1zm40 0h1v1h-1zm3 2h1v1h-1zm-16 2h1v1h-1zm26 0h1v1h-1zm-35 4h1v1h-1zM9 88h1v1H9zm29 11h1v1h-1zm186 0h1v1h-1zM9 102h1v1H9zm5 17h1v1h-1zm203 1h1v1h-1zm-2 1h1v1h-1zm-174 5h1v1h-1zm168 3h1v1h-1zm36 3h1v1h-1zm-201 2h1v1h-1zm133 1h1v1h-1zm-5 2h1v1h-1zm-144 2h2v1h-2zm2 0h1v1h-1zm1 3h1v1h-1zm130 3h1v1h-1zm-13 2h1v1h-1zm60 0h1v1h-1zm-15 3h1v1h-1zm-95 3h1v1h-1zm17 1h1v1h-1zm122 5h1v1h-1zm5 1h1v1h-1zm-32 1h1v1h-1zm26 0h1v1h-1zm-28 1h1v1h-1zm-2 1h1v1h-1zm-101 13h1v1h-1z" fill="#c0c3cb"/><path d="M105 55h1v1h-1zm136 103h1v1h-1zm0 3h1v1h-1z" fill="#000028"/><path d="M117 10h1v1h-1zm32 0h2v1h-2zm2 0h1v1h-1zm-44 1h1v1h-1zm1 0h1v1h-1zm50 0h1v1h-1zm-56 1h1v1h-1zm62 0h1v1h-1zm1 0h1v1h-1zm-69 1h1v1h-1zm1 0h1v1h-1zm72 0h1v1h-1zm-53 1h1v1h-1zm-28 1h1v1h-1zm26 0h1v1h-1zm64 0h1v1h-1zm-53 1h1v1h-1zm-14 2h1v1h-1zm79 1h1v1h-1zm-81 2h1v1h-1zm-40 1h1v1h-1zm39 1h1v1h-1zm92 0h1v1h-1zm-87 4h1v1h-1zm-7 1h1v1h-1zm106 1h1v1h-1zM89 31h1v1h-1zm50 0h1v1h-1zm1 0h1v1h-1zm-55 1h1v1h-1zm40 1h1v1h-1zm23 0h1v1h-1zM47 34h1v1h-1zm32 0h1v1h-1zm73 0h1v1h-1zm-76 1h1v1h-1zm12 0h1v1h-1zm22 0h1v1h-1zm12 0h1v1h-1zm38 1h1v1h-1zm-90 1h1v1h-1zm33 0h1v1h-1zm-62 1h1v1h-1zm68 0h1v1h-1zm69 4h1v1h-1zm53 0h1v1h-1zM35 43h1v1h-1zm19 2h1v1h-1zm57 1h1v1h-1zm-63 3h1v1h-1zm61 0h1v1h-1zm-42 1h1v1h-1zm39 0h2v1h-2zm2 0h1v1h-1zm53 0h1v1h-1zm14 0h2v1h-2zm2 0h1v1h-1zm-31 1h1v1h-1zm1 0h1v1h-1zm35 0h1v1h-1zm-83 1h1v1h-1zm85 0h1v1h-1zm2 1h1v1h-1zm-55 1h1v1h-1zm57 1h1v1h-1zm7 0h1v1h-1zm-97 2h1v1h-1zm147 0h1v1h-1zM98 58h1v1h-1zm20 0h1v1h-1zm72 0h1v1h-1zm-75 1h1v1h-1zm132 1h1v1h-1zm-136 1h1v1h-1zm66 0h1v1h-1zM19 62h1v1h-1zm90 0h1v1h-1zm65 0h1v1h-1zm5 0h1v1h-1zm69 0h1v1h-1zM97 63h1v1h-1zm108 0h1v1h-1zM97 64h1v1h-1zm83 0h1v1h-1zm16 0h1v1h-1zm-93 1h1v1h-1zm95 0h1v1h-1zM17 66h1v1h-1zm234 1h1v1h-1zM16 68h1v1h-1zm197 0h1v1h-1zM28 69h1v1h-1zm131 0h1v1h-1zM27 71h1v1h-1zm158 1h1v1h-1zm68 0h1v1h-1zm-92 1h1v1h-1zm60 0h1v1h-1zm-29 1h1v1h-1zm62 0h1v1h-1zm-82 1h1v1h-1zm52 0h1v1h-1zm-27 1h1v1h-1zm18 0h1v1h-1zm10 0h1v1h-1zm30 1h1v1h-1zm-53 1h1v1h-1zM44 79h1v1h-1zm-33 2h1v1h-1zm196 0h1v1h-1zm15 0h1v1h-1zM11 82h1v1h-1zm179 0h1v1h-1zm3 2h1v1h-1zm19 0h1v1h-1zM21 85h1v1h-1zm0 1h1v1h-1zm175 0h1v1h-1zM10 87h1v1h-1zm247 0h1v1h-1zm-57 2h1v1h-1zm32 1h1v1h-1zm8 2h1v1h-1zM19 97h1v1h-1zm20 0h1v1h-1zm-20 1h1v3h-1zm221 0h1v1h-1zm-6 1h1v1h-1zm6 0h1v1h-1zm-15 1h1v1h-1zm32 0h1v1h-1zm-238 1h1v1h-1zm190 0h1v1h-1zm-199 2h1v1h-1zm0 1h1v1h-1zm9 1h1v3h-1zm191 0h1v1h-1zm-199 3h1v1h-1zm8 0h1v1h-1zm191 2h1v1h-1zm24 0h1v1h-1zm21 0h1v1h-1zm-45 1h1v1h-1zm-171 2h1v1h-1zm170 1h1v1h-1zm-196 1h1v1h-1zm27 4h1v1h-1zm0 1h1v1h-1zm175 2h1v1h-1zm-198 1h1v1h-1zm196 0h1v1h-1zm-2 1h1v1h-1zm6 1h1v1h-1zm3 1h1v1h-1zm-178 1h1v1h-1zm151 0h1v1h-1zm12 0h1v1h-1zm-14 1h1v1h-1zm12 0h1v1h-1zm44 0h1v1h-1zm-1 1h1v1h-1zm-203 1h1v1h-1zm141 1h1v1h-1zm17 0h1v1h-1zm-178 1h1v1h-1zm59 2h1v1h-1zm107 0h1v1h-1zm-107 1h1v1h-1zm-56 1h1v1h-1zm159 0h1v1h-1zm-93 1h1v1h-1zm91 0h1v1h-1zm-136 1h1v1h-1zm47 0h1v1h-1zm73 0h1v1h-1zm48 0h1v1h-1zm24 0h1v1h-1zm-137 4h1v1h-1zm3 1h1v1h-1zm3 1h1v1h-1zm1 0h1v1h-1zm27 1h2v1h-2zm2 0h1v1h-1zm94 0h1v1h-1zm-77 1h1v1h-1zm7 0h1v1h-1zm-109 1h1v1h-1zm98 0h1v1h-1zm24 1h1v1h-1zm6 1h1v1h-1zm-125 1h1v1h-1zm132 0h1v1h-1zm1 0h1v1h-1zm-132 1h1v1h-1zm137 0h2v1h-2zm2 0h1v1h-1zm5 0h1v1h-1zm-143 1h1v1h-1zm1 1h1v1h-1zm62 1h1v1h-1zm1 0h1v1h-1zm-18 1h1v1h-1zm1 0h1v1h-1zm6 0h2v1h-2zm2 0h1v1h-1zm-51 1h1v1h-1zm148 4h1v1h-1zm-6 3h1v1h-1zm-130 1h1v1h-1zm123 2h1v1h-1zm-113 3h1v1h-1zm105 0h1v1h-1zm-3 1h1v1h-1zm-97 1h1v1h-1zm3 1h1v1h-1zm84 1h1v1h-1zm-77 1h1v1h-1zm72 0h1v1h-1zm-67 1h1v1h-1zm14 2h2v1h-2zm2 0h1v1h-1zm31 0h1v1h-1z" fill="#000041"/><path d="M116 9h1v1h-1zm34 0h1v1h-1zM71 20h1v1h-1zm53 2h1v1h-1zm-11 3h1v1h-1zm-3 7h1v1h-1zm-69 5h1v1h-1zm32 0h1v1h-1zm-5 2h1v1h-1zm98 0h1v1h-1zm-63 1h1v1h-1zm66 0h1v1h-1zm-95 3h1v1h-1zm40 1h1v1h-1zm-8 1h1v1h-1zm54 4h1v1h-1zm16 0h1v1h-1zm-29 1h1v1h-1zM26 51h1v1h-1zm165 0h1v1h-1zm52 2h1v1h-1zM61 54h1v1h-1zm-1 1h1v1h-1zm46 0h1v1h-1zm88 0h1v1h-1zM22 56h1v1h-1zm19 0h1v1h-1zm18 0h1v1h-1zm-1 1h1v1h-1zm188 0h1v1h-1zm-53 3h1v1h-1zm55 0h1v1h-1zm-53 2h1v1h-1zm-33 10h1v1h-1zm6 1h1v1h-1zm57 4h1v1h-1zM42 81h1v1h-1zm215 0h1v1h-1zM23 82h1v1h-1zm172 2h1v1h-1zM40 87h1v1h-1zm-19 3h1v1h-1zm18 1h1v1h-1zm181 2h1v1h-1zm15 0h1v1h-1zm23 8h1v1h-1zm-238 6h1v1h-1zm204 9h1v1h-1zm-202 4h1v1h-1zm3 9h1v1h-1zm171 1h1v1h-1zm-6 6h1v1h-1zm-98 2h1v1h-1zm67 4h1v1h-1zm-3 1h1v1h-1zm55 0h1v1h-1zm-97 3h1v1h-1zm23 0h1v1h-1zm-46 3h1v1h-1zm45 1h1v1h-1zm-40 2h1v1h-1zm148 1h1v1h-1zm-139 1h1v1h-1zm6 0h1v1h-1zm137 10h1v1h-1zm-7 1h1v1h-1zm-155 6h1v1h-1zm74 6h1v1h-1z" fill="#eeeff1"/><path d="M132 9h1v1h-1zm11 1h1v1h-1zm-44 3h1v1h-1zm68 0h1v1h-1zm-43 2h1v1h-1zm62 3h1v1h-1zm3 1h1v1h-1zM58 27h1v1h-1zm68 0h1v1h-1zm83 0h1v1h-1zm-72 3h1v1h-1zm5 1h1v1h-1zm73 0h1v1h-1zm-92 3h1v1h-1zm-6 5h1v1h-1zm-2 2h1v1h-1zm-7 2h1v1h-1zm-56 3h1v1h-1zm-3 2h1v1h-1zm1 0h1v1h-1zm141 1h1v1h-1zm-92 1h1v1h-1zm-54 1h1v1h-1zm108 0h1v1h-1zm-88 1h1v1h-1zm60 4h1v1h-1zm-3 1h1v1h-1zm67 0h1v1h-1zM37 58h1v1h-1zm-1 1h1v1h-1zm78 1h1v1h-1zm-58 1h1v1h-1zm-37 2h1v1h-1zm152 0h1v1h-1zm9 0h1v1h-1zm27 1h1v1h-1zm-103 1h1v1h-1zm77 4h1v1h-1zm72 4h1v1h-1zm-57 2h1v1h-1zm17 0h1v1h-1zm3 2h1v1h-1zM23 78h1v1h-1zm232 1h1v1h-1zm-23 2h1v1h-1zm-43 1h1v1h-1zm47 3h1v1h-1zm-22 1h1v1h-1zm2 1h1v1h-1zM10 91h1v1h-1zm210 0h1v1h-1zM10 99h1v1h-1zm199 3h1v1h-1zm22 3h1v1h-1zm-192 2h1v1h-1zm0 1h1v1h-1zm188 1h1v1h-1zm26 6h1v1h-1zm-213 2h1v1h-1zm-18 8h1v1h-1zm189 2h1v1h-1zm-11 4h1v1h-1zm-19 1h1v1h-1zm-33 11h1v1h-1zm-37 1h1v1h-1zm30 0h1v1h-1zm-89 1h1v1h-1zm67 0h1v1h-1zm1 0h1v1h-1zm11 0h1v1h-1zm41 3h1v1h-1zm13 2h1v1h-1zm13 1h1v1h-1zm5 0h1v1h-1zm-69 1h1v1h-1zm81 5h1v1h-1zm-27 12h1v1h-1zm-25 6h1v1h-1zm-7 1h1v1h-1zm-30 1h1v1h-1zm18 0h1v1h-1z" fill="#001c4b"/><g fill="#162952"><path d="M130 9h1v11h-1zm2 1h2v13h-2zm2 0h1v16h-1zm18 0h1v22h-1z"/><path d="M116 11h35v1h-35zm35 0h1v21h-1z"/><path d="M107 12h52v1h-52zm52 0h1v22h-1zm-57 1h13v1h-13zm13 0h1v1h-1z"/><path d="M121 13h43v1h-43zm43 0h1v23h-1zm-67 1h17v1H97zm17 0h1v1h-1z"/><path d="M124 14h46v1h-46zm46 0h1v24h-1zm-78 1h21v1H92zm21 0h1v1h-1z"/><path d="M125 15h49v1h-49zm49 0h1v24h-1zm-85 1h22v2H89zm22 0h1v1h-1z"/><path d="M126 16h51v1h-51zm51 0h1v24h-1zm-92 1h26v1H85zm26 0h1v1h-1z"/><path d="M127 17h54v1h-54zm54 0h1v25h-1zm-99 1h28v1H82zm28 0h1v1h-1z"/><path d="M129 18h55v1h-55zm55 0h1v25h-1zM79 19h30v2H79zm30 0h1v1h-1z"/><path d="M129 19h58v1h-58zm58 0h1v25h-1zM76 20h32v3H76z"/><path d="M130 20h60v1h-60zm60 0h1v27h-1zM74 21h34v2H74zm34 0h1v1h-1zm10 0h1v16h-1zm1 0h1v15h-1z"/><path d="M131 21h62v1h-62zm62 0h1v30h-1zM71 22h36v3H71zm46 0h4v13h-4zm4 0h1v12h-1z"/><path d="M135 22h60v5h-60zm60 0h1v31h-1zM69 23h38v2H69zm38 0h1v1h-1zm15 0h1v11h-1z"/><path d="M132 23h66v1h-66zm66 0h1v34h-1zM67 24h39v3H67zm49 0h7v10h-7zm7 0h1v9h-1z"/><path d="M133 24h67v1h-67zm67 0h1v34h-1zm3 0h1v36h-1zM65 25h41v2H65zm41 0h1v1h-1zm9 0h9v8h-9zm9 0h1v7h-1z"/><path d="M196 25h6v29h-6zm6 0h1v35h-1zM62 26h43v3H62zm45 0h1v1h-1z"/><path d="M134 26h70v1h-70zm70 0h1v35h-1zM60 27h45v2H60zm45 0h1v1h-1zm9 0h11v5h-11zm11 0h1v5h-1z"/><path d="M135 27h71v1h-71zm71 0h1v35h-1zM59 28h45v1H59zm67 0h1v3h-1z"/><path d="M136 28h72v1h-72zm72 0h1v36h-1zM57 29h47v1H57zm47 0h1v2h-1zm23 0h1v2h-1z"/><path d="M136 29h74v1h-74zm74 0h1v36h-1zM55 30h34v1H55zm34 0h1v1h-1zm5 0h10v3H94zm19 0h14v1h-14zm16 0h1v1h-1z"/><path d="M140 30h72v1h-72zm72 0h1v36h-1zM53 31h33v1H53zm33 0h1v1h-1zm18 0h1v1h-1zm9 0h14v1h-14zm14 0h1v1h-1z"/><path d="M144 31h70v1h-70zm70 0h1v36h-1zM52 32h30v1H52zm30 0h1v1h-1zm30 0h13v1h-13zm13 0h1v1h-1z"/><path d="M149 32h67v1h-67zm67 0h1v37h-1zM50 33h29v1H50zm29 0h1v1h-1zm14 0h10v3H93zm10 0h1v1h-1zm9 0h11v1h-11zm11 0h1v1h-1z"/><path d="M153 33h64v1h-64zm64 0h1v36h-1zM49 34h26v1H49zm26 0h1v1h-1zm17 0h10v6H92zm20 0h10v1h-10zm10 0h1v1h-1z"/><path d="M156 34h63v1h-63zm63 0h2v37h-2zm2 0h1v38h-1zM47 35h26v1H47zm26 0h1v1h-1zm17 0h12v5H90zm21 0h9v1h-9zm9 0h1v1h-1z"/><path d="M160 35h60v1h-60zM46 36h24v1H46zm24 0h1v1h-1zm18 0h14v4H88zm14 0h1v1h-1zm9 0h8v1h-8zm8 0h1v1h-1zm44 0h59v1h-59zm59 0h1v36h-1zM44 37h24v1H44zm24 0h1v1h-1z"/><path d="M87 37h14v7H87zm24 0h7v1h-7zm7 0h1v1h-1zm48 0h57v1h-57zm57 0h1v36h-1zM43 38h23v1H43zm23 0h1v1h-1z"/><path d="M85 38h16v6H85zm25 0h7v1h-7zm7 0h1v1h-1zm52 0h56v1h-56zm56 0h1v37h-1zM42 39h21v1H42zm21 0h1v1h-1z"/><path d="M83 39h18v5H83zm27 0h6v1h-6zm6 0h1v1h-1zm56 0h54v1h-54zm54 0h1v36h-1zM40 40h21v1H40zm21 0h1v1h-1zm3 0h1v1h-1z"/><path d="M82 40h19v4H82zm19 0h1v1h-1zm9 0h5v1h-5zm5 0h1v1h-1zm60 0h52v1h-52zm52 0h1v36h-1zM39 41h20v1H39zm20 0h1v1h-1z"/><path d="M78 41h22v7H78zm31 0h5v1h-5zm5 0h1v1h-1zm64 0h50v1h-50zm50 0h1v36h-1zM38 42h19v1H38zm19 0h1v1h-1zm3 0h1v1h-1zm49 0h4v1h-4zm4 0h1v1h-1zm64 0h1v1h-1z"/><path d="M180 42h50v1h-50zm50 0h1v36h-1zM37 43h19v1H37zm19 0h1v1h-1zm21 0h23v5H77zm32 0h3v2h-3zm3 0h1v1h-1z"/><path d="M183 43h48v1h-48zm48 0h1v36h-1zM36 44h18v1H36zm18 0h1v1h-1zm22 0h24v4H76zm24 0h1v1h-1z"/><path d="M186 44h46v1h-46zm46 0h1v36h-1zM34 45h18v1H34zm18 0h1v1h-1zm23 0h24v8H75zm33 0h3v1h-3zm3 0h1v1h-1z"/><path d="M188 45h45v1h-45zm45 0h1v36h-1zM33 46h18v1H33zm18 0h1v1h-1zm22 0h26v7H73zm35 0h2v1h-2zm2 0h1v1h-1z"/><path d="M189 46h45v1h-45zm45 0h1v36h-1zM32 47h17v1H32zm17 0h1v1h-1zm23 0h27v6H72zm36 0h1v2h-1zm1 0h1v1h-1z"/><path d="M190 47h45v1h-45zm45 0h1v36h-1zM31 48h17v1H31zm17 0h1v1h-1zm23 0h28v5H71zm28 0h1v1h-1z"/><path d="M191 48h45v1h-45zm45 0h1v36h-1zM31 49h15v1H31zm15 0h1v1h-1zm23 0h29v8H69zm38 0h1v1h-1zm1 0h1v1h-1z"/><path d="M192 49h45v1h-45zm45 0h1v36h-1zM29 50h16v1H29zm16 0h1v1h-1zm23 0h30v7H68z"/><path d="M194 50h44v2h-44zm44 0h1v36h-1zM29 51h15v1H29zm15 0h1v1h-1zm23 0h31v6H67zm91 0h19v9h-19zm19 0h1v9h-1z"/><path d="M193 51h46v1h-46zm46 0h1v37h-1zM28 52h15v1H28zm15 0h1v1h-1zm23 0h32v5H66zm81 0h34v8h-34zm34 0h1v12h-1z"/><path d="M194 52h46v1h-46zm46 0h1v37h-1zM27 53h15v1H27zm15 0h1v1h-1zm23 0h33v4H65zm33 0h1v1h-1zm42 0h44v7h-44zm44 0h1v17h-1zm11 0h45v1h-45zM26 54h14v1H26zm14 0h1v1h-1z"/><path d="M64 54h33v10H64zm71 0h50v6h-50zm50 0h1v16h-1zm11 0h45v1h-45zm45 0h1v39h-1zM25 55h14v1H25zm14 0h1v1h-1z"/><path d="M63 55h34v9H63zm67 0h56v5h-56zm56 0h1v16h-1zm11 0h45v1h-45zm45 0h1v78h-1zM25 56h13v1H25zm13 0h1v1h-1z"/><path d="M62 56h35v8H62zm65 0h60v4h-60zm60 0h1v15h-1zm10 0h46v1h-46zm46 0h1v76h-1zM24 57h13v1H24zm13 0h1v1h-1z"/><path d="M61 57h36v7H61zm36 0h1v1h-1zm26 0h65v3h-65zm65 0h1v14h-1zm10 0h46v1h-46zm46 0h1v73h-1zM23 58h13v1H23zm13 0h1v1h-1z"/><path d="M58 58h38v69H58zm63 0h68v2h-68zm68 0h1v14h-1zm10 0h45v1h-45zM22 59h13v1H22zm13 0h1v1h-1z"/><path d="M118 59h72v1h-72zm72 0h1v13h-1zm11 0h44v1h-44zm44 0h1v70h-1zM22 60h12v1H22zm12 0h1v1h-1zm81 0h75v1h-75z"/><path d="M202 60h44v1h-44zm44 0h1v68h-1zM21 61h12v1H21zm12 0h1v1h-1zm24 0h39v66H57zm56 0h61v1h-61zm61 0h1v1h-1zm5 0h12v1h-12zm12 0h1v11h-1zm13 0h42v1h-42zM20 62h12v1H20zm12 0h1v1h-1z"/><path d="M56 62h40v65H56zm55 0h61v1h-61zm61 0h1v1h-1zm8 0h12v1h-12zm12 0h1v10h-1zm13 0h42v1h-42zm42 0h1v64h-1zM20 63h11v2H20zm11 0h1v1h-1z"/><path d="M55 63h41v64H55zm54 0h61v1h-61zm61 0h1v1h-1zm12 0h11v7h-11zm11 0h1v10h-1zm14 0h40v1h-40zM19 64h11v2H19z"/><path d="M54 64h42v63H54zm42 0h1v1h-1zm11 0h60v1h-60zm60 0h1v1h-1zm14 0h13v1h-13zm13 0h1v9h-1zm14 0h40v1h-40zm40 0h1v60h-1zM30 65h1v1h-1zm75 0h60v1h-60zm60 0h1v1h-1zm30 0h1v9h-1zm1 0h1v9h-1z"/><path d="M210 65h39v1h-39zm39 0h1v57h-1zM18 66h11v1H18zm11 0h1v1h-1zm24 0h42v61H53zm50 0h60v1h-60zm60 0h1v1h-1zm34 0h1v9h-1zm1 0h1v9h-1zm11 0h40v1h-40zM18 67h10v2H18zm10 0h1v1h-1z"/><path d="M52 67h43v60H52zm50 0h59v1h-59zm59 0h1v1h-1zm38 0h1v8h-1zm14 0h37v1h-37zm37 0h1v54h-1zM17 68h10v3H17z"/><path d="M51 68h44v59H51zm49 0h58v1h-58zm58 0h1v1h-1zm42 0h1v8h-1zm1 0h1v8h-1zm14 0h35v1h-35zM27 69h1v1h-1zm69 0h1v69h-1zm3 0h57v1H99zm57 0h1v1h-1zm46 0h1v8h-1zm14 0h34v1h-34zM16 70h10v2H16z"/><path d="M50 70h104v1H50zm104 0h1v1h-1zm28 0h22v1h-22zm22 0h1v8h-1zm14 0h33v1h-33zm33 0h1v48h-1zM26 71h1v1h-1zm23 0h104v56H49zm104 0h1v70h-1z"/><path d="M186 71h20v1h-20zm20 0h1v8h-1zm13 0h32v1h-32zM15 72h10v2H15zm10 0h1v1h-1z"/><path d="M189 72h18v1h-18zm18 0h1v8h-1zm14 0h31v1h-31zm31 0h1v44h-1zM48 73h105v54H48z"/><path d="M193 73h16v1h-16zm16 0h2v8h-2zm2 0h1v9h-1zm12 0h29v1h-29zM15 74h9v3h-9zm9 0h1v1h-1zm130 0h8v65h-8zm8 0h1v65h-1z"/><path d="M195 74h15v1h-15zm29 0h29v1h-29zm29 0h1v40h-1zM14 75h9v4h-9zm33 0h121v52H47zm121 0h1v61h-1zm29 0h15v1h-15zm15 0h1v8h-1zm13 0h28v1h-28zm-56 1h3v59h-3zm3 0h1v59h-1z"/><path d="M200 76h13v1h-13zm13 0h1v7h-1zm14 0h26v1h-26zM23 77h1v1h-1zm23 0h130v50H46zm130 0h1v56h-1z"/><path d="M202 77h13v1h-13zm13 0h1v8h-1zm13 0h26v1h-26zm26 0h1v34h-1zM13 78h9v4h-9zm164 0h2v54h-2zm2 0h1v54h-1z"/><path d="M204 78h12v1h-12zm12 0h1v8h-1zm13 0h25v1h-25zM22 79h1v1h-1zm23 0h137v48H45zm137 0h1v52h-1z"/><path d="M206 79h12v1h-12zm12 0h2v9h-2zm2 0h1v11h-1zm11 0h23v1h-23zm-48 1h1v50h-1zm1 0h1v50h-1z"/><path d="M205 80h14v1h-14zm27 0h22v1h-22zM44 81h142v46H44zm142 0h1v48h-1zm23 0h12v1h-12zm12 0h1v10h-1zm12 0h22v1h-22zm22 0h1v26h-1zM12 82h9v4h-9zm9 0h1v1h-1zm166 0h1v46h-1zm1 0h1v46h-1z"/><path d="M211 82h11v1h-11zm11 0h1v10h-1zm12 0h21v1h-21zm-45 1h1v45h-1zm1 0h1v44h-1z"/><path d="M212 83h11v1h-11zm11 0h1v11h-1zm12 0h20v1h-20zM43 84h148v42H43zm148 0h1v43h-1z"/><path d="M214 84h10v1h-10zm10 0h1v11h-1zm12 0h19v1h-19zm-44 1h1v41h-1zm1 0h1v41h-1z"/><path d="M215 85h11v1h-11zm11 0h1v14h-1zm11 0h18v1h-18zM11 86h9v4h-9zm9 0h1v1h-1zm174 0h1v39h-1zm1 0h1v39h-1z"/><path d="M216 86h11v1h-11zm11 0h1v22h-1zm11 0h18v1h-18zm18 0h1v16h-1zM42 87h154v37H42zm154 0h1v37h-1z"/><path d="M217 87h11v1h-11zm11 0h1v20h-1zm-31 1h1v35h-1z"/><path d="M218 88h11v1h-11zm11 0h1v19h-1zm10 0h17v1h-17zm-41 1h1v34h-1zm1 0h1v33h-1z"/><path d="M219 89h11v1h-11zm11 0h1v16h-1zm10 0h16v1h-16zM11 90h8v11h-8zm8 0h1v1h-1zm181 0h1v32h-1z"/><path d="M220 90h11v1h-11zm11 0h1v14h-1zM41 91h160v28H41zm160 0h1v30h-1zm20 0h10v1h-10zm-19 1h1v29h-1z"/><path d="M222 92h10v1h-10zm10 0h1v10h-1zm-29 1h1v27h-1z"/><path d="M225 93h8v4h-8zm8 0h1v6h-1zm8 0h15v1h-15zm-37 1h1v25h-1z"/><path d="M223 94h10v1h-10zm1 1h9v1h-9zM40 96h165v19H40zm165 0h1v22h-1zm1 1h1v20h-1zm19 0h8v1h-8zm-18 2h1v16h-1zm19 0h7v1h-7zm7 0h1v1h-1zm8 0h15v8h-15zm-32 1h1v1h-1zm-198 1h7v3h-7zm7 0h1v1h-1zm190 0h1v13h-1zm24 1h1v1h-1z"/><path d="M240 102h16v5h-16zm16 0h1v1h-1zm-245 2h7v1h-7zm7 0h1v19h-1zm191 0h1v6h-1zm22 0h1v1h-1z"/><path d="M239 104h16v7h-16zm-227 1h6v4h-6zm218 0h1v1h-1z"/><path d="M238 106h17v5h-17zm-10 1h1v1h-1zm1 0h1v1h-1zm26 0h1v1h-1zm-28 1h1v1h-1z"/><path d="M237 108h17v6h-17zm-225 1h6v1h-6z"/><path d="M236 109h18v5h-18zm-223 1h5v2h-5zm196 0h1v1h-1z"/><path d="M235 110h19v4h-19z"/><path d="M234 111h20v3h-20zm20 0h1v1h-1zm-241 1h5v1h-5z"/><path d="M233 112h20v4h-20zm-219 1h4v1h-4z"/><path d="M232 113h21v3h-21zm-218 1h4v1h-4zm6 0h1v1h-1zm188 0h1v1h-1z"/><path d="M231 114h22v2h-22zm22 0h1v1h-1zm-238 1h4v2h-4zm4 0h1v10h-1zm21 0h167v1H40zm167 0h1v1h-1z"/><path d="M229 115h23v3h-23z"/><path d="M228 116h24v2h-24zm24 0h1v1h-1zm-237 1h4v1h-4zm191 0h1v1h-1z"/><path d="M226 117h25v4h-25zm-210 1h3v1h-3zm189 0h1v1h-1z"/><path d="M225 118h26v3h-26zm26 0h1v1h-1zm-235 1h3v1h-3zm5 0h1v1h-1zm20 0h163v1H41zm163 0h1v1h-1zm16 0h1v4h-1z"/><path d="M223 119h27v3h-27zm-206 1h3v1h-3zm3 0h1v6h-1zm183 0h1v1h-1z"/><path d="M221 120h29v2h-29zm-204 1h3v1h-3zm184 0h1v1h-1zm1 0h1v1h-1z"/><path d="M219 121h31v1h-31zm31 0h1v1h-1zm-51 1h1v1h-1zm1 0h1v1h-1zm17 0h32v1h-32zm32 0h1v1h-1zm-231 1h3v1h-3zm3 0h1v5h-1zm176 0h1v1h-1zm1 0h1v1h-1zm17 0h33v1h-33zm-173 1h154v1H42zm154 0h1v1h-1zm17 0h4v1h-4zm4 0h1v1h-1zm4 0h27v2h-27zm27 0h1v1h-1zm-229 1h2v1h-2zm175 0h1v1h-1zm1 0h1v1h-1zm16 0h3v1h-3zm3 0h1v1h-1zm-194 1h1v1h-1zm23 0h150v1H43zm150 0h1v1h-1zm16 0h3v1h-3zm3 0h1v1h-1zm9 0h26v2h-26zm26 0h1v1h-1z"/><path d="M19 127h3v1h-3zm3 0h1v2h-1zm22 0h147v1H44zm147 0h1v1h-1zm16 0h2v1h-2zm2 0h1v1h-1zm-188 1h1v1h-1zm23 0h37v2H44zm37 0h1v1h-1zm3 0h105v1H84zm105 0h1v1h-1zm16 0h2v1h-2zm2 0h1v1h-1zm14 0h25v1h-25zm25 0h1v1h-1zm-224 1h1v1h-1zm1 0h1v1h-1zm62 0h101v1H85zm101 0h1v1h-1zm17 0h1v1h-1zm1 0h1v1h-1zm16 0h25v1h-25zm25 0h1v1h-1zm-222 1h1v1h-1zm21 0h36v1H44zm36 0h1v36h-1zm6 0h98v1H86zm98 0h1v1h-1zm36 0h24v2h-24zm24 0h1v1h-1zm-199 1h35v1H45zm42 0h95v1H87zm95 0h1v1h-1zm16 0h1v1h-1zm-174 1h1v1h-1zm21 0h35v1H45zm43 0h92v1H88zm92 0h1v1h-1zm39 0h24v1h-24zm24 0h1v1h-1zm-197 1h34v1H46zm43 0h88v1H89zm88 0h1v1h-1zm42 0h23v1h-23zm23 0h1v1h-1z"/><path d="M46 134h35v1H46zm35 0h1v32h-1zm9 0h85v1H90zm85 0h1v1h-1zm43 0h23v1h-23zm23 0h1v1h-1zm-194 1h34v1H47zm44 0h81v1H91zm81 0h1v1h-1zm46 0h22v2h-22zm22 0h1v1h-1zm-193 1h34v1H47zm45 0h78v1H92zm78 0h1v1h-1z"/><path d="M217 136h22v2h-22zm-169 1h33v1H48zm46 0h73v1H94zm73 0h1v1h-1zm72 0h1v1h-1zm-191 1h34v1H48zm34 0h1v29h-1zm14 0h69v1H96zm69 0h1v1h-1zm3 0h1v1h-1zm14 0h1v1h-1zm34 0h22v1h-22zm22 0h1v1h-1zm-189 1h33v1H49zm49 0h64v1H98zm64 0h1v1h-1zm54 0h21v1h-21zm21 0h1v1h-1zm-188 1h33v1H49zm50 0h60v1H99zm60 0h1v1h-1zm56 0h21v1h-21zm21 0h1v1h-1zm-186 1h32v1H50zm52 0h54v1h-54zm54 0h1v1h-1zm59 0h20v1h-20zm20 0h1v1h-1z"/><path d="M51 142h32v1H51zm32 0h1v25h-1zm22 0h46v1h-46zm46 0h1v1h-1zm63 0h20v1h-20zm20 0h1v1h-1z"/><path d="M51 143h33v1H51zm33 0h1v25h-1zm20 0h1v1h-1zm5 0h36v1h-36zm36 0h1v1h-1zm7 0h1v1h-1zm62 0h19v1h-19zm19 0h1v1h-1zm-181 1h32v1H52zm61 0h25v1h-25zm25 0h1v1h-1zm75 0h19v1h-19zm19 0h1v1h-1z"/><path d="M53 145h32v1H53zm32 0h1v23h-1zm127 0h19v1h-19zm19 0h1v1h-1zm-179 1h33v1H52zm159 0h18v1h-18zm18 0h1v1h-1z"/><path d="M54 147h32v1H54zm32 0h1v22h-1zm68 0h9v27h-9zm9 0h1v27h-1zm48 0h17v1h-17zm17 0h1v1h-1z"/><path d="M55 148h32v1H55zm32 0h1v21h-1zm64 0h18v25h-18zm18 0h1v25h-1zm41 0h17v1h-17zm17 0h1v1h-1z"/><path d="M56 149h32v1H56zm32 0h1v20h-1zm59 0h29v23h-29zm29 0h1v23h-1zm32 0h18v1h-18zm18 0h1v1h-1z"/><path d="M57 150h32v1H57zm32 0h1v20h-1zm54 0h39v20h-39zm39 0h1v20h-1zm25 0h18v1h-18zm18 0h1v1h-1z"/><path d="M58 151h32v1H58zm32 0h1v19h-1zm50 0h49v17h-49zm49 0h1v17h-1zm15 0h19v1h-19zm19 0h1v1h-1z"/><path d="M59 152h33v1H59zm33 0h1v19h-1zm44 0h86v1h-86zm86 0h1v1h-1z"/><path d="M60 153h33v1H60zm33 0h1v18h-1zm39 0h88v1h-88zm88 0h1v1h-1z"/><path d="M61 154h35v1H61zm35 0h1v18h-1zm31 0h92v1h-92zm92 0h2v1h-2zm2 0h1v1h-1z"/><path d="M63 155h36v1H63zm36 0h1v18h-1zm22 0h96v1h-96zm96 0h1v1h-1z"/><path d="M64 156h152v1H64zm152 0h1v1h-1zm-151 1h149v1H65zm149 0h1v1h-1zm-148 1h146v1H66zm146 0h1v1h-1zm-144 1h142v1H68zm142 0h1v1h-1zm-143 1h141v1H67zm141 0h1v1h-1zm-137 1h135v1H71zm135 0h1v1h-1zm-134 1h132v1H72zm132 0h1v1h-1zm-130 1h128v1H74zm128 0h1v1h-1zm-126 1h123v1H76zm123 0h1v1h-1zm-121 1h119v1H78zm119 0h1v1h-1zm-118 1h116v1H79zm116 0h1v1h-1zm-113 1h110v1H82zm110 0h1v1h-1zm-108 1h105v1H84zm105 0h1v1h-1zm-103 1h100v1H86zm100 0h1v1h-1zm-97 1h94v1H89zm94 0h1v1h-1zm-91 1h88v1H92zm88 0h1v1h-1zm-85 1h81v1H95zm81 0h1v1h-1zm-77 1h73v1H99zm73 0h1v1h-1zm-69 1h64v1h-64zm64 0h1v1h-1zm-58 1h52v1h-52zm52 0h1v1h-1zm-43 1h35v1h-35zm35 0h1v1h-1z"/></g><path d="M108 10h1v1h-1zm50 0h1v1h-1zm-73 5h1v1h-1zm-6 2h1v1h-1zm114 2h1v1h-1zm-70 2h1v1h-1zm75 0h1v1h-1zM53 29h1v1h-1zm76 3h1v1h-1zm-2 1h1v1h-1zm-41 2h1v1h-1zm77 3h1v1h-1zm9 3h1v1h-1zM35 42h1v1h-1zm21 3h1v1h-1zm127 0h1v1h-1zm-73 4h1v1h-1zm51 0h1v1h-1zM47 51h1v1h-1zm53 1h1v1h-1zm35 0h1v1h-1zm51 0h1v1h-1zm3 3h1v1h-1zm10 5h1v1h-1zM34 63h1v1h-1zm64 0h1v1h-1zm74 1h1v1h-1zm29 2h1v1h-1zm10 2h1v1h-1zm-50 1h1v1h-1zM11 78h1v1h-1zm173 0h1v1h-1zm4 2h1v1h-1zm46 11h1v1h-1zm5 1h1v1h-1zm-32 3h1v1h-1zM38 97h1v1h-1zm-18 1h1v1h-1zm214 4h1v1h-1zm3 2h1v1h-1zm-11 7h1v1h-1zM25 136h1v1h-1zm150 0h1v1h-1zm7 0h1v1h-1zm-153 1h1v1h-1zm158 0h1v1h-1zm-17 1h1v1h-1zm14 0h1v1h-1zm-137 2h1v1h-1zm5 7h1v1h-1zm123 0h1v1h-1zm-35 2h1v1h-1zm48 0h1v1h-1zm-56 2h1v1h-1zm93 1h1v1h-1zm-121 2h1v1h-1zm8 0h1v1h-1zm-50 3h1v1h-1zm186 3h1v1h-1zm-9 4h1v1h-1zm8 1h1v1h-1zm-64 7h1v1h-1zm-88 2h1v1h-1zm4 1h1v1h-1zm72 0h1v1h-1zm-5 1h1v1h-1zm-47 2h1v1h-1zm32 0h1v1h-1z" fill="#ebecef"/><path d="M127 10h1v1h-1zm12 0h1v1h-1zm1 0h1v1h-1zm13 1h1v1h-1zm-53 2h1v1h-1zm66 0h1v1h-1zm9 2h1v1h-1zm-91 2h1v1h-1zm-6 2h1v1h-1zm-5 1h1v1h-1zm35 2h1v1h-1zm14 0h1v1h-1zm-56 1h2v1h-2zm2 0h1v1h-1zm39 1h1v1h-1zm94 0h1v1h-1zm-63 6h1v1h-1zm-55 2h1v1h-1zm135 1h1v1h-1zm-63 1h1v1h-1zm10 3h1v1h-1zm-84 2h1v1h-1zm90 0h1v1h-1zm-62 1h1v1h-1zm65 0h1v1h-1zm-61 3h1v1h-1zm-6 5h2v1h-2zm2 0h1v1h-1zm-10 1h1v1h-1zm-53 1h1v1h-1zm146 0h1v1h-1zm-36 1h1v1h-1zm-51 3h1v1h-1zm-65 1h1v1h-1zm22 0h1v1h-1zm-1 1h1v1h-1zm127 0h1v1h-1zM60 57h1v1h-1zm37 2h1v1h-1zm103 0h1v1h-1zM21 60h1v1h-1zm154 1h1v1h-1zm17 0h1v1h-1zM33 62h1v1h-1zm77 0h1v1h-1zm-2 1h1v1h-1zm86 0h1v1h-1zM18 65h1v1h-1zm34 1h1v1h-1zm112 0h1v1h-1zM17 67h1v1h-1zm84 0h1v1h-1zm-85 2h1v1h-1zm82 0h1v1h-1zm82 1h1v1h-1zm37 0h1v1h-1zM48 72h1v1h-1zm160 0h1v1h-1zM26 73h1v1h-1zm128 0h1v1h-1zm40 1h1v1h-1zM25 75h1v1h-1zm176 2h1v1h-1zm2 1h1v1h-1zM22 80h1v1h-1zm-1 3h1v1h-1zm171 0h1v1h-1zM19 92h1v1h-1zm-9 2h1v2h-1zm231 0h1v1h-1zM10 96h1v1h-1zm214 0h1v1h-1zm10 0h1v1h-1zm0 1h1v1h-1zm7 0h1v1h-1zm-1 4h1v1h-1zm16 2h1v1h-1zm-1 5h1v1h-1zm-25 5h1v1h-1zm-190 3h1v1h-1zm212 1h1v1h-1zm-237 1h1v1h-1zm186 4h1v1h-1zm15 0h1v1h-1zm-2 1h1v1h-1zm-2 1h1v1h-1zm1 2h1v1h-1zm-9 2h1v1h-1zm16 0h1v1h-1zm-139 1h1v2h-1zm124 0h1v1h-1zm-183 1h1v1h-1zm59 1h1v1h-1zm-36 2h1v1h-1zm-20 2h1v1h-1zm191 2h1v1h-1zm-59 4h1v1h-1zm-107 1h1v1h-1zm62 2h1v1h-1zm46 2h1v1h-1zm13 2h1v1h-1zm-25 1h1v1h-1zm44 2h1v1h-1zm34 0h1v1h-1zm-124 4h1v1h-1zm118 0h1v1h-1zm-155 1h1v1h-1zm148 3h1v1h-1zm-141 3h1v1h-1zm135 0h1v1h-1zm-130 3h1v1h-1zm118 2h1v1h-1zm-91 7h1v1h-1zm6 1h1v1h-1zm54 0h1v1h-1zm-46 1h1v1h-1zm15 1h8v1h-8zm8 0h1v1h-1z" fill="#0e244f"/><path fill="#002" d="M243 160h1v1h-1z"/><path d="M122 9h1v1h-1zm22 0h1v1h-1zm11 1h1v1h-1zm-61 3h1v1h-1zm-4 1h1v1h-1zm29 0h1v1h-1zm57 0h1v1h-1zm7 2h1v1h-1zm14 5h1v1h-1zM52 30h1v1h-1zm83 0h1v1h-1zm-26 6h1v1h-1zm52 1h1v1h-1zm-94 2h1v1h-1zm35 3h1v1h-1zm4 5h1v1h-1zm46 3h1v1h-1zm-9 1h1v1h-1zm-38 1h1v1h-1zm-81 2h1v1h-1zm7 12h1v1h-1zm68 1h1v1h-1zm103 0h1v1h-1zm8 0h1v1h-1zM9 90h1v1H9zm249 2h1v3h-1zm-36 3h1v1h-1zm36 0h1v1h-1zM9 100h1v1H9zm29 2h1v1h-1zm171 13h1v1h-1zm14 2h1v1h-1zm-20 5h1v1h-1zm-9 5h1v1h-1zm-2 1h1v1h-1zm5 2h1v1h-1zm-169 6h1v1h-1zm146 0h1v1h-1zm9 0h1v1h-1zm-87 4h1v1h-1zm2 1h1v1h-1zm5 2h1v1h-1zm-17 1h1v1h-1zm80 2h1v1h-1zm41 2h1v1h-1zm-112 4h1v1h-1zm6 2h1v1h-1zm140 9h1v1h-1zm-1 2h1v1h-1zm-49 4h1v1h-1zm-98 4h1v1h-1zm76 2h1v1h-1zm-24 3h1v1h-1z" fill="#8e93a2"/><path d="M124 9h1v1h-1zm30 1h1v1h-1zm-49 1h1v1h-1zm6 8h1v1h-1zm14 5h1v1h-1zm33 12h1v1h-1zM52 47h1v1h-1zm14 3h1v1h-1zM14 71h1v1h-1zm156 3h1v1h-1zm13 4h1v1h-1zm36 0h1v1h-1zm19 25h1v1h-1zm-228 3h1v1h-1zm217 4h1v1h-1zM22 122h1v1h-1zm19 3h1v1h-1zm175 1h1v1h-1zm-21 5h1v1h-1zm-172 2h1v1h-1zm60 4h1v1h-1zm1 3h1v1h-1zm-53 1h1v1h-1zm94 12h1v1h-1zm-28 21h1v1h-1zm30 4h1v1h-1zm16 0h1v1h-1z" fill="#70778b"/><path fill="#00001d" d="M241 157h1v1h-1z"/><path d="M126 9h1v1h-1zm-13 1h1v1h-1zm-18 3h1v1h-1zm25 1h1v1h-1zm74 6h1v1h-1zm-26 19h1v1h-1zm14 5h1v1h-1zm52 0h1v1h-1zM55 45h1v1h-1zm46 0h1v1h-1zm87 2h1v1h-1zM65 51h1v1h-1zm41 12h1v1h-1zm-76 4h1v1h-1zm182 1h1v1h-1zm-58 4h1v1h-1zm30 0h1v1h-1zm32 16h1v1h-1zm3 3h1v1h-1zM20 92h1v1h-1zm220 2h1v1h-1zm-30 18h1v1h-1zm-198 1h1v1h-1zm28 8h1v1h-1zm-23 3h1v1h-1zm65 6h1v1h-1zm164 0h1v1h-1zm-164 1h1v1h-1zm7 4h1v1h-1zm87 0h1v1h-1zm15 0h1v1h-1zm-98 3h1v1h-1zm-46 1h1v1h-1zm113 2h1v1h-1zm-13 3h1v1h-1zm-7 1h1v1h-1zm17 0h1v1h-1zm-33 1h2v1h-2zm2 0h1v1h-1zm45 1h1v1h-1zm69 7h1v1h-1zm-2 2h1v1h-1zm-1 6h1v1h-1zm-60 11h1v1h-1zm-9 2h1v1h-1zm-38 3h1v1h-1zm10 0h1v1h-1z" fill="#4f5974"/><path d="M137 9h1v1h-1zm-23 1h1v1h-1zm68 6h1v1h-1zm9 3h1v1h-1zm-76 4h1v1h-1zm96 5h1v1h-1zm13 8h1v1h-1zM71 37h1v1h-1zm13 0h1v1h-1zm25 0h1v1h-1zm-47 4h1v1h-1zm52 2h1v1h-1zm43 7h1v1h-1zM46 51h1v1h-1zm17 2h1v1h-1zm63 2h1v1h-1zm63 1h1v1h-1zm4 5h1v1h-1zm1 1h1v1h-1zm55 1h1v1h-1zM97 65h1v1h-1zm-46 1h1v1h-1zm115 0h1v1h-1zm37 2h1v1h-1zM44 78h1v1h-1zm-34 7h1v1h-1zm30 5h1v1h-1zm199 0h1v1h-1zm-5 10h1v1h-1zm2 7h1v1h-1zM15 120h1v1h-1zm203 5h1v1h-1zm31 0h1v1h-1zm-167 3h1v1h-1zm-61 2h1v1h-1zm164 1h1v1h-1zm-159 2h1v1h-1zm165 0h1v1h-1zm-146 2h1v1h-1zm169 4h1v1h-1zm-8 10h1v1h-1zm-86 5h1v1h-1zm-57 3h1v1h-1zm181 2h1v1h-1zm-46 7h1v1h-1z" fill="#203157"/><path d="M131 9h1v1h-1zm4 0h1v1h-1zm-10 1h1v1h-1zm1 0h1v1h-1zm15 0h1v1h-1zm-28 1h1v1h-1zm7 2h1v1h-1zm-25 1h1v1h-1zm76 0h1v1h-1zm-84 2h1v1h-1zm92 0h1v1h-1zM75 20h1v1h-1zm35 0h1v1h-1zm84 1h1v1h-1zm-64 1h1v1h-1zm-7 1h1v1h-1zm76 0h1v1h-1zM54 30h1v1h-1zm37 0h2v1h-2zm2 0h1v1h-1zm120 0h1v1h-1zm-101 1h1v1h-1zm14 1h1v1h-1zm21 0h1v1h-1zm4 1h1v1h-1zm-27 1h1v1h-1zm-50 1h1v1h-1zm13 1h1v1h-1zm32 1h1v1h-1zm-77 1h1v1h-1zm60 0h1v1h-1zm66 0h1v1h-1zM36 42h1v1h-1zm1 0h1v1h-1zm145 1h1v1h-1zM55 44h1v1h-1zm20 0h1v1h-1zm25 1h1v1h-1zm-30 2h1v1h-1zm85 4h1v1h-1zM27 52h1v1h-1zm117 0h1v1h-1zm39 0h1v1h-1zm-49 1h1v1h-1zm4 0h1v1h-1zm47 0h1v1h-1zM63 54h1v1h-1zm35 0h1v1h-1zm97 0h1v1h-1zm47 0h1v1h-1zm-113 1h1v1h-1zm-90 1h1v1h-1zm-16 1h1v1h-1zm36 0h1v1h-1zm186 1h1v1h-1zM34 61h1v1h-1zm78 0h1v1h-1zm61 1h1v1h-1zm20 0h1v1h-1zm-87 2h1v1h-1zm75 1h1v1h-1zm-85 1h1v1h-1zm104 1h1v1h-1zm12 0h1v1h-1zm-58 4h1v1h-1zm30 0h1v1h-1zm4 1h1v1h-1zm-19 2h1v1h-1zm57 2h1v1h-1zm-49 1h1v1h-1zm3 1h1v1h-1zM12 80h1v1h-1zm32 0h1v1h-1zm186 0h1v1h-1zm1 0h1v1h-1zm-7 3h1v1h-1zm32 1h1v1h-1zm-62 1h1v1h-1zm21 1h1v1h-1zm22 0h1v1h-1zM20 87h1v1h-1zm-10 5h1v1h-1zm211 0h1v1h-1zM10 93h1v1h-1zm231 2h1v1h-1zm-35 1h1v1h-1zm35 0h1v1h-1zM10 97h1v1h-1zm0 1h1v1h-1zm215 0h1v1h-1zm1 3h1v1h-1zm6 2h1v1h-1zm-23 9h1v1h-1zm-196 1h1v1h-1zm6 0h1v1h-1zm22 8h1v1h-1zm-23 3h1v1h-1zm192 1h1v1h-1zm-2 1h1v2h-1zm-2 1h1v1h-1zm-183 1h1v1h-1zm20 0h1v1h-1zm40 0h1v1h-1zm125 0h1v1h-1zm-25 3h1v1h-1zm-96 1h1v1h-1zm106 1h1v1h-1zm1 0h1v1h-1zm-18 1h1v1h-1zm66 0h1v1h-1zm-216 1h1v1h-1zm145 1h1v1h-1zm-78 1h1v1h-1zm-45 2h1v1h-1zm115 0h1v1h-1zm-3 1h1v1h-1zm-7 2h1v1h-1zm-46 1h1v1h-1zm40 0h1v1h-1zm-7 1h1v1h-1zm72 0h1v1h-1zm-91 1h3v1h-3zm3 0h4v1h-4zm4 0h1v1h-1zm29 1h1v1h-1zm-70 1h1v1h-1zm66 0h1v1h-1zm12 0h1v1h-1zm63 1h1v1h-1zm-138 2h1v1h-1zm52 0h1v1h-1zm42 0h1v1h-1zm-53 2h1v1h-1zm-34 2h1v1h-1zm22 1h1v1h-1zm94 3h1v1h-1zm-140 5h1v1h-1zm130 0h1v1h-1zm-7 3h1v1h-1zm-111 3h1v1h-1zm96 2h1v1h-1zm-4 1h1v1h-1zm-4 1h1v1h-1zm-75 1h1v1h-1zm70 0h1v1h-1zm-53 2h1v1h-1zm40 0h1v1h-1zm-38 1h1v1h-1zm12 0h1v1h-1zm1 0h1v1h-1zm10 0h2v1h-2zm2 0h1v1h-1z" fill="#08214e"/><path d="M141 9h1v1h-1zm30 4h1v1h-1zm-84 2h1v1h-1zm92 0h1v1h-1zM54 29h1v1h-1zm57 2h1v1h-1zm15 2h1v1h-1zm21 0h1v1h-1zm4 1h1v1h-1zm-64 1h1v1h-1zm-13 1h1v1h-1zm164 12h1v1h-1zm-48 1h1v1h-1zm-35 1h1v1h-1zm28 1h1v1h-1zM25 53h1v1h-1zm74 1h1v1h-1zm7 0h1v1h-1zm6 6h1v1h-1zm136 1h1v1h-1zm-44 2h1v1h-1zm-24 2h1v1h-1zm40 8h1v1h-1zm-43 3h1v1h-1zm3 1h1v1h-1zM43 80h1v1h-1zm190 3h1v1h-1zm-39 1h1v1h-1zm40 0h1v1h-1zm23 0h1v1h-1zm-60 2h1v1h-1zm32 0h1v1h-1zM21 87h1v1h-1zm181 3h1v1h-1zm1 1h1v1h-1zM9 93h1v1H9zm0 4h1v1H9zm215 1h1v1h-1zm1 3h1v1h-1zM20 113h1v1h-1zm184 8h1v1h-1zm2 5h1v1h-1zm-12 8h1v1h-1zm-23 3h1v1h-1zm-142 1h1v1h-1zm207 4h1v1h-1zm-129 2h1v1h-1zm104 0h1v1h-1zm-160 1h1v1h-1zm72 1h1v1h-1zm4 0h1v1h-1zm57 3h1v1h-1zm-65 5h1v1h-1zm122 0h1v1h-1zm4 3h1v1h-1zm-181 1h1v1h-1zm149 1h1v1h-1zm-10 5h1v1h-1zm-48 13h1v1h-1zm-14 1h1v1h-1z" fill="#576079"/><path d="M92 13h1v1h-1zm82 0h1v1h-1zm-58 2h1v1h-1zm5 0h1v1h-1zm-45 3h1v1h-1zm51 8h1v1h-1zm-15 1h1v1h-1zm-5 1h1v1h-1zm109 2h1v1h-1zM48 32h1v1h-1zm96 1h1v1h-1zm-99 1h1v1h-1zm37 0h1v1h-1zm74 2h1v1h-1zm-36 2h1v1h-1zm108 0h1v1h-1zM36 41h1v1h-1zm71 0h1v1h-1zm80 6h1v1h-1zm-47 4h1v1h-1zm-77 1h1v1h-1zm45 0h1v1h-1zm-46 1h1v1h-1zm42 2h1v1h-1zm-64 2h1v1h-1zm17 1h1v1h-1zm58 0h1v1h-1zm79 3h1v1h-1zM18 62h1v1h-1zm17 0h1v1h-1zm142 0h1v1h-1zm26 1h1v1h-1zm-100 1h1v1h-1zm76 0h1v1h-1zm19 0h1v1h-1zm-28 1h1v1h-1zm36 0h1v1h-1zm46 2h1v1h-1zM30 68h1v1h-1zm176 1h1v1h-1zm-47 1h1v1h-1zM28 71h1v1h-1zm-15 1h1v1h-1zm206 1h1v1h-1zm-27 2h1v1h-1zm30 0h1v1h-1zm-43 1h1v1h-1zm38 0h1v1h-1zm-35 1h1v1h-1zm15 0h1v1h-1zm-7 4h1v1h-1zm40 0h1v1h-1zm-23 1h1v1h-1zm18 0h1v1h-1zM9 86h1v1H9zm189 0h1v1h-1zm60 0h1v1h-1zm-44 1h1v1h-1zm22 0h1v1h-1zM20 99h1v1h-1zm191 5h1v1h-1zm-191 2h1v1h-1zm212 0h1v1h-1zm-4 4h1v1h-1zm-217 2h1v1h-1zm27 2h1v1h-1zm172 0h1v1h-1zm-189 1h1v1h-1zm174 12h1v1h-1zm20 0h1v1h-1zm-22 1h1v1h-1zm55 0h1v1h-1zm-57 1h1v1h-1zm16 1h1v1h-1zm10 1h1v1h-1zm29 0h1v1h-1zm-160 2h1v1h-1zm-3 1h1v1h-1zm4 0h1v1h-1zm93 0h1v1h-1zm-156 1h1v1h-1zm169 0h1v1h-1zm50 0h1v1h-1zm-158 6h1v1h-1zm12 0h1v1h-1zm65 0h1v1h-1zm-11 3h1v1h-1zm-6 1h1v1h-1zm-57 1h1v1h-1zm81 0h1v1h-1zm-22 1h1v1h-1zm35 1h1v1h-1zm47 1h1v1h-1zm-34 1h1v1h-1zm5 0h1v1h-1zm-106 1h1v1h-1zm33 1h1v1h-1zm114 1h1v1h-1zm-135 1h4v1h-4zm4 0h1v1h-1zm130 1h1v7h-1zm2 2h1v1h-1zm-26 1h1v1h-1zm26 0h1v1h-1zm3 3h1v1h-1zm-9 1h1v1h-1zm4 0h2v1h-2zm2 0h1v1h-1zm5 1h1v1h-1zm-9 2h1v1h-1zm6 0h1v1h-1zm-44 1h1v1h-1zm-5 2h1v1h-1zm-85 9h1v1h-1z" fill="#f6f7f8"/><path d="M92 14h1v1h-1zm82 0h1v1h-1zm-89 2h1v1h-1zm28 0h1v1h-1zm-34 2h1v1h-1zm48 0h1v1h-1zm-51 1h1v1h-1zm44 1h1v1h-1zm73 0h1v1h-1zM71 21h1v1h-1zm127 1h1v1h-1zm-67 1h1v1h-1zm-6 2h1v1h-1zm8 1h1v1h-1zm-80 4h1v1h-1zm83 0h1v1h-1zm78 0h1v1h-1zm-103 2h1v1h-1zm16 0h1v1h-1zm17 0h1v1h-1zm-62 1h1v1h-1zm74 2h1v1h-1zm66 0h1v1h-1zM73 36h1v1h-1zm13 0h1v1h-1zm35 0h1v1h-1zm104 1h1v1h-1zM68 38h1v1h-1zm98 0h1v1h-1zm-86 2h1v1h-1zm22 0h1v1h-1zm70 0h1v1h-1zm57 0h1v1h-1zm-54 1h1v1h-1zM34 44h1v1h-1zm22 0h1v1h-1zm127 0h1v1h-1zm-76 1h1v1h-1zm5 0h1v1h-1zm-61 2h1v1h-1zm18 1h1v1h-1zm31 0h1v1h-1zm59 2h1v1h-1zm-19 2h1v1h-1zm53 0h1v1h-1zM43 53h1v1h-1zm-1 1h1v1h-1zm-21 5h1v1h-1zm92 1h1v1h-1zm89 1h1v1h-1zm-30 2h1v1h-1zM18 64h1v1h-1zm14 0h1v1h-1zm21 0h1v1h-1zm52 0h1v1h-1zm65 0h1v1h-1zM31 65h1v1h-1zm21 0h1v1h-1zm156 0h1v1h-1zm3 2h1v1h-1zM50 68h1v1h-1zm154 1h1v1h-1zm8 5h1v1h-1zm-36 2h1v1h-1zm3 1h1v1h-1zm49 1h1v1h-1zm-44 1h1v1h-1zm45 0h1v1h-1zm-43 1h1v1h-1zM43 81h1v1h-1zm213 0h1v1h-1zM22 82h1v1h-1zm191 3h1v1h-1zM41 87h1v1h-1zm-1 4h1v1h-1zm193 0h1v1h-1zm-11 3h1v1h-1zm-16 1h1v1h-1zM39 96h1v1h-1zm194 6h1v1h-1zm-23 2h1v1h-1zm28 0h1v1h-1zm18 3h1v1h-1zm-21 2h1v1h-1zm-2 2h1v1h-1zm-221 1h1v1h-1zm27 2h1v1h-1zm-19 1h1v1h-1zm204 2h1v1h-1zm-206 8h1v1h-1zm191 0h1v1h-1zm-2 1h1v1h-1zm-187 2h1v1h-1zm4 1h1v1h-1zm183 0h1v1h-1zm-3 1h1v1h-1zm-8 1h1v1h-1zm-14 1h1v1h-1zm12 0h1v1h-1zm50 0h1v1h-1zm-64 1h1v1h-1zm13 1h1v1h-1zm-18 1h1v1h-1zm12 0h1v1h-1zm3 0h1v1h-1zm-99 1h1v1h-1zm96 0h1v1h-1zm-160 1h1v1h-1zm1 0h1v1h-1zm142 0h1v1h-1zm14 0h1v1h-1zm56 0h1v1h-1zm-192 3h1v1h-1zm111 1h1v1h-1zm53 2h1v1h-1zm-67 1h1v1h-1zm-59 1h1v1h-1zm77 1h1v1h-1zm47 0h1v1h-1zm-1 1h1v1h-1zm21 0h1v1h-1zm-83 1h1v1h-1zm61 0h1v1h-1zm-153 1h1v1h-1zm81 2h1v1h-1zm-40 2h1v1h-1zm31 0h1v1h-1zm-67 1h1v1h-1zm9 7h1v1h-1zm3 2h1v1h-1zm130 1h1v1h-1zm-7 3h1v1h-1zm-109 3h1v1h-1zm97 1h1v1h-1zm-88 2h1v1h-1zm57 4h1v1h-1z" fill="#00003e"/><path d="M118 9h1v1h-1zm30 0h1v1h-1zm-39 1h1v1h-1zm48 0h1v1h-1zm16 3h1v1h-1zm4 1h1v1h-1zm7 2h1v1h-1zm3 1h1v1h-1zm-68 2h1v1h-1zm-50 2h1v1h-1zm46 1h1v1h-1zm85 0h1v1h-1zm-91 1h1v1h-1zm21 0h1v1h-1zm2 3h1v1h-1zm-3 3h1v1h-1zm5 0h1v1h-1zm-29 4h1v1h-1zm40 0h1v1h-1zm77 1h1v1h-1zM44 35h1v1h-1zm109 0h1v1h-1zm-70 2h1v1h-1zm77 0h1v1h-1zm-90 1h1v1h-1zm10 1h1v1h-1zm-46 4h1v1h-1zm68 0h1v1h-1zm76 0h1v1h-1zm-77 4h1v1h-1zm-73 2h1v1h-1zm135 0h1v1h-1zm11 0h1v1h-1zm7 1h1v1h-1zm-40 1h1v1h-1zm101 1h1v1h-1zm-55 1h1v1h-1zm1 1h1v1h-1zm-64 1h1v1h-1zm71 1h1v1h-1zm-84 4h1v1h-1zm-4 2h1v1h-1zm67 1h1v1h-1zm30 5h1v1h-1zm-22 4h1v1h-1zm72 0h1v1h-1zm-42 1h1v1h-1zm-13 14h1v1h-1zm22 7h1v1h-1zM20 96h1v1h-1zm190 5h1v1h-1zm15 3h1v1h-1zm11 2h1v1h-1zm21 0h1v1h-1zm-32 1h1v1h-1zm6 0h1v1h-1zm-211 2h1v1h-1zm209 0h1v1h-1zm5 0h1v1h-1zm22 1h1v1h-1zm-27 3h1v1h-1zM40 123h1v1h-1zm162 0h1v1h-1zm9 0h1v1h-1zm-188 1h1v1h-1zm182 2h1v1h-1zm12 0h1v1h-1zm-198 2h1v1h-1zm182 4h1v1h-1zm-117 7h1v1h-1zm83 0h1v1h-1zm-135 3h1v1h-1zm118 2h1v1h-1zm-6 4h1v1h-1zm43 1h1v1h-1zm-59 3h1v1h-1zm115 1h1v1h-1zm-129 1h1v1h-1zm108 0h1v1h-1zm24 0h1v1h-1zm-185 2h1v1h-1zm181 3h1v1h-1zm-30 1h1v1h-1zm36 1h1v1h-1zm-10 2h1v1h-1zm-34 1h1v1h-1zm-15 6h1v1h-1zm-10 3h1v1h-1zm-4 1h1v1h-1zm-54 4h1v1h-1z" fill="#d0d2d8"/><path d="M129 9h1v1h-1zm-5 14h1v1h-1zm-68 5h1v1h-1zm54 6h1v1h-1zm52 3h1v1h-1zm-43 1h1v1h-1zm-12 6h1v1h-1zm-81 8h1v1h-1zm174 8h1v1h-1zM35 61h1v1h-1zm4 34h1v1h-1zm-29 10h1v1h-1zm77 28h1v1h-1zm-41 4h1v1h-1zm118 9h1v1h-1zm-29 5h1v1h-1zm-9 2h1v1h-1zm119 9h1v1h-1zm-7 2h1v1h-1zm9 0h1v1h-1zm-164 5h1v1h-1zm5 2h1v1h-1z" fill="#29385c"/><path d="M64 24h1v1h-1zm140 1h1v1h-1zm-63 6h1v1h-1zm-60 2h1v1h-1zm77 17h1v1h-1zm14 0h1v1h-1zm-30 2h1v1h-1zm25 13h1v1h-1zm-8 8h1v1h-1zm22 5h1v1h-1zM41 88h1v1h-1zm-22 7h1v1h-1zm238 7h1v1h-1zm-31 6h1v1h-1zm-214 3h1v1h-1zm27 0h1v1h-1zm170 2h1v1h-1zm-196 1h1v1h-1zm8 7h1v1h-1zm177 3h1v1h-1zM90 135h1v1h-1zm-63 1h1v1h-1zm56 2h1v1h-1zm154 2h1v1h-1zm-188 1h1v1h-1zm51 0h1v1h-1zm34 4h1v1h-1zm70 5h1v1h-1zm-2 1h1v1h-1zm-100 4h1v1h-1zm-6 18h1v1h-1zm52 4h1v1h-1z" fill="#001146"/><path d="M143 9h1v1h-1zm-31 1h1v1h-1zm12 6h1v1h-1zm-7 4h1v1h-1zm16 7h1v1h-1zm82 3h1v1h-1zM92 32h1v1h-1zm36 0h1v1h-1zm-24 3h1v1h-1zm-22 3h1v1h-1zm-3 2h1v1h-1zm153 2h1v1h-1zm-53 1h1v1h-1zm-68 4h1v1h-1zm133 8h1v1h-1zm-122 1h1v1h-1zm-24 4h1v1h-1zm103 1h1v1h-1zm-97 3h1v1h-1zm-54 3h1v1h-1zm-2 3h1v1h-1zm206 3h1v1h-1zm-65 8h1v1h-1zM40 89h1v1h-1zm161 0h1v1h-1zM9 91h1v1H9zm0 8h1v1H9zm248 5h1v1h-1zm-2 8h1v1h-1zm-242 4h1v1h-1zm8 2h1v1h-1zm186 0h1v1h-1zm11 12h1v1h-1zm-175 1h1v1h-1zm138 2h1v1h-1zm-15 6h1v1h-1zm-25 6h1v1h-1zm18 0h1v1h-1zm-39 1h1v1h-1zm10 0h1v1h-1zm61 4h1v1h-1zm12 0h1v1h-1zm24 0h1v1h-1zm-12 8h1v1h-1zm34 2h1v1h-1zm-181 1h1v1h-1zm169 2h1v1h-1zm-36 2h1v1h-1zm-94 11h1v1h-1zm56 0h1v1h-1z" fill="#777e91"/><path d="M110 10h1v1h-1zm-12 2h1v1h-1zm70 0h1v1h-1zm-54 4h1v1h-1zm11 1h1v1h-1zm16 15h1v1h-1zm-38 7h1v1h-1zm-40 2h1v1h-1zm-2 1h1v1h-1zm-30 4h1v1h-1zm135 3h1v1h-1zm6 0h1v1h-1zm-63 1h1v1h-1zm33 1h1v1h-1zM46 73h1v1h-1zm132 3h1v1h-1zM44 77h1v1h-1zm137 0h1v1h-1zM40 88h1v1h-1zm218 1h1v1h-1zm-52 5h1v1h-1zM20 95h1v1h-1zm238 3h1v1h-1zM11 111h1v1h-1zm27 0h1v1h-1zm-26 3h1v1h-1zm241 4h1v1h-1zm-53 6h1v1h-1zm1 4h1v1h-1zm-15 3h1v1h-1zm-160 1h1v1h-1zm19 4h1v1h-1zm49 3h1v1h-1zm40 7h1v1h-1zm33 0h1v1h-1zm38 3h1v1h-1zm-89 5h1v1h-1zm-56 1h1v1h-1zm188 1h1v1h-1zm-4 2h1v1h-1zm-1 3h1v1h-1zM96 174h1v1h-1z" fill="#b2b5bf"/><path d="M226 110h1v1h-1zM30 140h1v1h-1z" fill="#000037"/><path d="M115 10h1v1h-1zm-14 2h1v1h-1zm69 1h1v1h-1zm17 5h1v1h-1zM74 20h1v1h-1zm45 0h1v1h-1zm10 0h1v1h-1zm-12 1h1v1h-1zm-55 4h1v1h-1zm45 0h1v1h-1zm20 3h1v1h-1zm-15 2h1v1h-1zm104 1h1v1h-1zm-112 2h1v1h-1zm45 0h1v1h-1zm4 1h1v1h-1zM39 40h1v1h-1zm141 3h1v1h-1zm-18 7h1v1h-1zm-14 1h1v1h-1zm33 0h1v1h-1zm11 0h1v1h-1zm-51 1h1v1h-1zm-11 2h1v1h-1zm-6 2h1v1h-1zm-3 1h1v1h-1zm125 2h1v1h-1zm-81 7h1v1h-1zm34 0h1v1h-1zm-13 6h1v1h-1zm33 0h1v1h-1zM47 73h1v1h-1zm157 6h1v1h-1zM39 98h1v1h-1zm-20 6h1v1h-1zm207 1h1v1h-1zm0 1h1v1h-1zm30 0h1v1h-1zm-24 6h1v1h-1zm-212 4h1v1h-1zm-5 3h1v1h-1zm1 2h1v1h-1zm201 0h1v1h-1zm-176 2h1v1h-1zm159 0h1v1h-1zm-178 1h1v1h-1zm173 2h1v1h-1zm3 4h1v1h-1zm-6 3h1v1h-1zm-109 6h1v1h-1zm67 4h1v1h-1zm-99 1h1v1h-1zm93 0h1v1h-1zm-29 1h1v1h-1zm96 0h1v1h-1zm-43 2h1v1h-1zm-24 2h1v1h-1zm-16 4h1v1h-1zm-25 2h1v1h-1zm11 0h1v1h-1zm-49 3h1v1h-1zm143 3h1v1h-1zm-2 1h1v1h-1zm-127 5h1v1h-1zm100 5h1v1h-1zm-4 1h1v1h-1zm-72 2h1v1h-1zm8 1h1v1h-1zm48 0h2v1h-2zm2 0h1v1h-1zm-11 1h1v1h-1z" fill="#000743"/><path d="M116 10h1v1h-1zm43 1h1v1h-1zm-38 3h1v1h-1zm60 2h1v1h-1zm-99 1h1v1h-1zM55 29h1v1h-1zm-5 3h1v1h-1zm41 1h1v1h-1zm72 4h1v1h-1zm-62 7h1v1h-1zm5 5h1v1h-1zm-78 1h1v1h-1zm19 0h1v1h-1zm113 0h1v1h-1zm80 1h1v1h-1zm-105 2h1v1h-1zm-8 2h1v1h-1zm117 1h1v1h-1zm-45 3h1v1h-1zm-92 4h1v1h-1zm56 4h1v1h-1zM15 70h1v1h-1zm166 1h1v1h-1zM14 72h1v1h-1zm148 1h1v1h-1zm6 1h1v1h-1zM13 75h1v1h-1zm182 0h1v1h-1zM12 78h1v1h-1zm206 0h1v1h-1zM23 79h1v1h-1zm186 3h1v1h-1zM42 84h1v1h-1zm153 1h1v1h-1zm32 0h1v1h-1zM10 86h1v1h-1zm247 0h1v1h-1zM20 90h1v1h-1zm185 4h1v1h-1zm19 3h1v1h-1zm33 4h1v1h-1zm-18 1h1v1h-1zm-2 4h1v1h-1zm-11 10h1v1h-1zm27 0h1v1h-1zm-239 1h1v1h-1zm193 0h1v1h-1zm-186 3h1v1h-1zm194 6h1v1h-1zm33 0h1v1h-1zm-36 1h1v1h-1zm7 2h1v1h-1zm-1 2h1v1h-1zm-174 1h1v1h-1zm152 1h1v1h-1zm-99 7h1v1h-1zm-13 1h1v1h-1zm67 2h1v1h-1zm-37 2h1v1h-1zm55 2h1v1h-1zm7 1h1v1h-1zm6 1h1v1h-1zm-42 1h1v1h-1zm86 0h1v1h-1zm-134 1h1v1h-1zm108 0h1v1h-1zm25 0h1v1h-1zm-131 1h1v1h-1zm38 0h1v1h-1zm-33 2h1v1h-1zm7 1h4v1h-4zm4 0h1v1h-1zm102 4h1v1h-1zm-12 6h1v1h-1zm-8 3h1v1h-1zm-26 7h1v1h-1zm-56 1h1v1h-1z" fill="#00003f"/><path d="M134 9h1v1h-1zm-12 1h1v1h-1zm22 0h1v1h-1zm-25 3h1v1h-1zm-29 2h1v1h-1zm93 2h2v1h-2zm2 0h1v1h-1zm-75 2h1v1h-1zm86 2h1v1h-1zm1 1h1v1h-1zm8 3h1v1h-1zm-91 1h1v1h-1zm20 1h1v1h-1zm20 7h1v1h-1zM45 35h1v1h-1zm65 1h1v1h-1zm-43 2h1v1h-1zm15 1h1v1h-1zm34 1h1v1h-1zm-78 1h1v1h-1zm138 0h1v1h-1zm-75 1h1v1h-1zm133 3h1v1h-1zm1 1h1v1h-1zm-128 1h1v1h-1zm129 0h1v1h-1zm-84 4h1v1h-1zm-9 1h1v1h-1zM26 53h1v1h-1zm72 2h1v1h-1zm-38 1h1v1h-1zm59 2h1v1h-1zm62 8h1v1h-1zm-85 1h1v1h-1zm64 1h1v1h-1zM49 69h1v1h-1zm165 0h1v1h-1zM49 70h1v1h-1zm108 0h1v1h-1zm53 13h1v1h-1zm46 0h1v1h-1zm-26 5h1v1h-1zM10 90h1v1h-1zm10 1h1v1h-1zm237 2h1v1h-1zm0 1h1v1h-1zm-218 8h1v1h-1zm0 1h1v1h-1zm187 6h1v1h-1zm-207 3h1v1h-1zm186 7h1v1h-1zm-1 1h1v1h-1zM24 130h1v1h-1zm179 0h1v1h-1zm-6 1h1v1h-1zm-108 3h1v1h-1zm85 1h1v1h-1zm10 1h1v1h-1zm-86 4h1v1h-1zm115 1h1v1h-1zm-110 1h1v1h-1zm43 2h1v1h-1zm-14 1h1v1h-1zm34 2h1v1h-1zm4 0h1v1h-1zm-82 1h1v1h-1zm109 3h1v1h-1zm-102 2h1v1h-1zm6 2h1v1h-1zm-37 2h1v1h-1zm127 11h1v1h-1zm-6 2h1v1h-1zm-95 1h1v1h-1zm11 3h1v1h-1zm68 0h1v1h-1zm-55 2h1v1h-1zm11 1h1v1h-1zm20 0h1v1h-1z" fill="#001a4a"/><path d="M121 10h1v1h-1zm-17 2h1v1h-1zm18 2h1v1h-1zm1 1h1v1h-1zm57 1h1v1h-1zm-97 1h1v1h-1zm105 1h1v1h-1zM63 25h1v1h-1zm-2 1h1v1h-1zm45 1h1v1h-1zm7 1h1v1h-1zm-61 3h1v1h-1zm32 1h1v1h-1zm9 0h1v1h-1zm11 2h1v1h-1zm-32 2h1v1h-1zm87 0h1v1h-1zm64 0h1v1h-1zm-59 1h1v1h-1zm-55 2h1v1h-1zm64 1h1v1h-1zm60 4h1v1h-1zM53 46h1v1h-1zm57 1h1v1h-1zm79 0h1v1h-1zm1 1h1v1h-1zM27 51h1v1h-1zm153 0h1v1h-1zm-81 2h1v1h-1zm95 0h1v1h-1zm-62 1h1v1h-1zm111 1h1v1h-1zm-51 5h1v1h-1zm9 0h1v1h-1zM97 61h1v1h-1zm81 0h1v1h-1zm-10 4h1v1h-1zm13 3h1v1h-1zm70 0h1v1h-1zm-93 1h1v1h-1zm29 3h1v1h-1zm-32 1h2v1h-2zm2 0h1v1h-1zm9 1h1v1h-1zm56 0h1v1h-1zm-24 2h1v1h-1zM22 81h1v1h-1zm201 1h1v1h-1zM11 83h1v1h-1zm187 4h1v1h-1zm19 1h1v1h-1zM10 89h1v1h-1zm247 1h1v1h-1zm-55 1h1v1h-1zm38 0h1v1h-1zm-37 1h1v1h-1zM19 94h1v1h-1zm215 0h1v1h-1zm23 3h1v1h-1zm-17 3h1v1h-1zm-230 1h1v1h-1zm226 7h1v1h-1zm-197 2h1v1h-1zm-20 1h1v1h-1zm209 4h1v1h-1zm23 5h1v1h-1zm-1 2h1v1h-1zm-31 2h1v1h-1zm-23 1h1v1h-1zm-177 1h1v1h-1zm191 2h1v1h-1zm-189 1h1v1h-1zm197 3h1v1h-1zm-194 1h1v1h-1zm193 0h1v1h-1zm-44 3h1v1h-1zm-4 1h1v1h-1zm-73 2h1v1h-1zm140 2h1v1h-1zm-152 1h1v1h-1zm129 0h1v1h-1zm22 0h1v1h-1zm-102 3h1v1h-1zm40 3h1v1h-1zm34 1h1v1h-1zm20 0h1v1h-1zm-35 2h1v1h-1zm-63 2h1v1h-1zm-58 9h1v1h-1zm128 3h1v1h-1zm-121 1h1v1h-1zm2 1h1v1h-1zm114 0h1v1h-1zm-107 3h1v1h-1zm87 3h1v1h-1zm-2 1h1v1h-1zm-8 1h1v1h-1zm3 0h1v1h-1zm-54 1h1v1h-1zm44 0h1v1h-1z" fill="#001648"/><path d="M28 138h1v1h-1zm216 23h1v1h-1z" fill="#000034"/><path d="M128 9h1v1h-1zm-22 2h1v1h-1zm-22 5h1v1h-1zm-6 2h1v1h-1zm-10 4h1v1h-1zm133 1h1v1h-1zm-58 9h1v1h-1zm75 0h1v1h-1zM42 37h1v1h-1zm-5 4h1v1h-1zm137 0h1v1h-1zm-59 1h1v1h-1zm-5 6h1v1h-1zm46 2h1v1h-1zm-92 2h1v1h-1zm130 2h1v1h-1zM38 58h1v1h-1zm-1 1h1v1h-1zm-17 1h1v1h-1zm16 0h1v1h-1zm20 0h1v1h-1zm45 6h1v1h-1zm-85 1h1v1h-1zm139 4h1v1h-1zm25 0h1v1h-1zm37 0h1v1h-1zM47 72h1v1h-1zm117 1h1v1h-1zm30 2h1v1h-1zM23 80h1v1h-1zm192 7h1v1h-1zm-8 9h1v1h-1zm28 0h1v1h-1zm18 21h1v1h-1zm-39 5h1v1h-1zm-13 1h1v1h-1zm11 0h1v1h-1zm1 4h1v1h-1zm-131 5h1v1h-1zm99 5h1v1h-1zm4 0h1v1h-1zm43 12h1v1h-1zm-4 3h1v1h-1zm-13 8h1v1h-1zm-6 3h1v1h-1zm-12 5h1v1h-1zm-77 9h1v1h-1zm18 1h3v1h-3zm3 0h1v1h-1z" fill="#3a4666"/><path d="M123 10h1v1h-1zm1 0h1v1h-1zm18 0h1v1h-1zm-30 1h1v1h-1zm42 0h1v1h-1zm-49 1h1v1h-1zm56 0h1v1h-1zm-44 1h1v1h-1zm-2 1h1v1h-1zm15 7h1v1h-1zm-60 1h1v1h-1zm64 6h1v1h-1zm-29 1h1v1h-1zm-18 2h1v1h-1zm41 0h1v1h-1zm-24 1h1v1h-1zm-55 1h1v1h-1zm31 0h1v1h-1zm12 0h1v1h-1zm-15 1h1v1h-1zm-31 1h1v1h-1zm57 0h1v1h-1zm55 0h1v1h-1zm-89 2h1v1h-1zm49 1h1v1h-1zm109 1h1v1h-1zm1 0h1v1h-1zm-114 3h1v1h-1zm65 0h1v1h-1zm9 4h1v1h-1zM71 47h1v1h-1zm36 4h1v1h-1zm47 0h1v1h-1zm25 0h1v1h-1zM64 53h1v1h-1zm69 1h1v1h-1zm-72 1h1v1h-1zm-23 2h1v1h-1zm-3 3h1v1h-1zm22 0h1v1h-1zm40 0h1v1h-1zm150 1h1v1h-1zm-43 1h1v1h-1zm-7 3h1v1h-1zM29 67h1v1h-1zm133 0h1v1h-1zm-66 1h1v1h-1zm1 1h1v1h-1zm-70 1h1v1h-1zm178 0h1v1h-1zM15 71h1v1h-1zm205 1h1v1h-1zm-29 1h1v1h-1zm-26 1h1v1h-1zm58 0h1v1h-1zm-53 1h1v1h-1zM45 76h1v1h-1zm129 0h1v1h-1zm80 0h1v1h-1zm-71 3h1v1h-1zm2 1h1v1h-1zm2 1h1v1h-1zm21 0h1v1h-1zm3 2h1v1h-1zM11 84h1v1h-1zm246 1h1v1h-1zm-60 2h1v1h-1zM41 89h1v1h-1zm192 3h1v1h-1zM19 93h1v1h-1zm21 1h1v1h-1zm194 1h1v1h-1zm5 8h1v1h-1zm-200 1h1v2h-1zm217 0h1v1h-1zm-18 1h1v1h-1zm-227 1h1v1h-1zm28 0h1v1h-1zm-27 4h1v1h-1zm242 2h1v1h-1zm-23 1h1v1h-1zm-217 3h1v1h-1zm211 1h1v1h-1zm-205 1h1v1h-1zm1 4h1v1h-1zm21 3h1v1h-1zm174 0h1v1h-1zm31 2h1v1h-1zm-60 3h1v1h-1zm32 0h1v1h-1zm26 0h1v1h-1zm-201 1h1v1h-1zm42 0h1v1h-1zm109 1h2v1h-2zm2 0h1v1h-1zm-115 1h1v1h-1zm6 0h1v1h-1zm-63 1h1v1h-1zm2 1h1v1h-1zm55 2h1v1h-1zm84 1h1v1h-1zm-83 2h1v1h-1zm46 5h1v1h-1zm1 0h1v1h-1zm29 1h1v1h-1zm-10 2h1v1h-1zm-60 1h1v1h-1zm89 0h1v1h-1zm-40 2h1v1h-1zm53 0h1v1h-1zm-98 1h1v1h-1zm37 1h1v1h-1zm-5 1h1v1h-1zm-7 1h1v1h-1zm83 9h1v1h-1zm-104 9h1v1h-1zm10 2h1v1h-1zm20 2h1v1h-1zm1 0h1v1h-1zm15 0h1v1h-1z" fill="#001e4c"/><path d="M93 13h1v1h-1zm-4 1h1v1h-1zm24 3h1v1h-1zm13 1h1v1h-1zm-52 1h1v1h-1zm52 6h1v1h-1zm-71 3h1v1h-1zm51 2h1v1h-1zm5 0h1v1h-1zm-61 1h1v1h-1zm75 3h1v1h-1zm-21 2h1v1h-1zm-64 2h1v1h-1zm-7 6h1v1h-1zm40 0h1v1h-1zm-22 4h1v1h-1zm113 1h1v1h-1zM23 55h1v1h-1zm98 1h1v1h-1zm-12 5h1v1h-1zm-11 1h1v1h-1zm151 0h1v1h-1zM16 66h1v1h-1zm192 0h1v1h-1zM15 68h1v1h-1zm34 0h1v1h-1zm111 4h1v1h-1zm7 1h1v1h-1zm23 1h1v1h-1zm66 4h1v1h-1zM43 79h1v1h-1zm214 3h1v1h-1zm-48 1h1v1h-1zm49 5h1v1h-1zM21 89h1v1h-1zm18 3h1v1h-1zm219 7h1v1h-1zm-47 7h1v1h-1zm0 3h1v1h-1zm22 1h1v1h-1zm-195 2h1v1h-1zm217 1h1v1h-1zm-29 2h1v1h-1zm-13 7h1v1h-1zm-197 1h1v1h-1zm233 3h1v1h-1zm-225 1h1v1h-1zm179 0h1v1h-1zm-19 5h1v1h-1zm8 0h1v1h-1zm6 1h1v1h-1zm-171 5h1v1h-1zm19 0h1v1h-1zm168 0h1v1h-1zm-59 5h1v1h-1zm-39 3h1v1h-1zm19 0h1v1h-1zm74 0h1v1h-1zm-35 1h1v1h-1zm-121 1h1v1h-1zm39 2h1v1h-1zm31 3h1v1h-1zm114 7h1v1h-1zm-168 2h1v1h-1zm171 4h1v1h-1zm-43 1h1v1h-1zm-113 3h1v1h-1zm81 6h1v1h-1zm-16 2h1v1h-1z" fill="#c5c8cf"/><path d="M117 9h1v1h-1zm32 0h1v1h-1zm-47 2h1v1h-1zm62 0h1v1h-1zm-67 1h1v1h-1zm72 0h1v1h-1zm12 3h1v1h-1zm-99 1h1v1h-1zm132 13h1v1h-1zM89 32h1v1h-1zm51 0h1v1h-1zm79 0h1v1h-1zm-110 3h1v1h-1zm116 1h1v1h-1zm-117 2h1v1h-1zm121 1h1v1h-1zm-54 3h1v1h-1zM69 47h1v1h-1zm-42 3h1v1h-1zm78 0h1v1h-1zm22 4h1v1h-1zm-28 3h1v1h-1zm5 0h1v1h-1zm-84 2h1v1h-1zm93 0h1v1h-1zm-8 4h1v1h-1zm-54 2h1v1h-1zm49 1h1v1h-1zm109 5h1v1h-1zm7 0h1v1h-1zm-44 3h1v1h-1zM12 75h1v1h-1zm12 4h1v1h-1zm162 0h1v1h-1zm43 1h1v1h-1zM41 84h1v1h-1zm172 2h1v1h-1zM9 87h1v1H9zm11 10h1v1h-1zm215 2h1v1h-1zm4 0h1v1h-1zm-1 3h1v1h-1zM9 103h1v1H9zm224 1h1v1h-1zm-213 4h1v1h-1zm191 2h1v1h-1zm-173 3h1v1h-1zm-21 12h1v1h-1zm190 0h1v1h-1zm5 3h1v1h-1zm6 1h1v1h-1zm-197 2h1v1h-1zm173 0h1v1h-1zm10 0h1v1h-1zm-22 2h1v1h-1zm5 1h1v1h-1zm-138 9h1v1h-1zm56 1h1v1h-1zm57 1h1v1h-1zm-11 1h1v1h-1zm43 4h1v1h-1zm7 0h1v1h-1zm-79 3h1v1h-1zm-9 1h1v1h-1zm126 0h1v1h-1zm-25 5h1v1h-1zm34 0h1v1h-1zm-176 5h1v1h-1zm130 1h1v1h-1zm-10 4h1v1h-1zm-88 7h1v1h-1zm16 2h1v1h-1z" fill="#dee0e4"/><path d="M123 9h1v1h-1zm-6 5h1v1h-1zm69 3h1v1h-1zm3 1h1v1h-1zm-73 3h1v1h-1zm15 3h1v1h-1zm6 7h1v1h-1zm-32 1h1v1h-1zm37 0h1v1h-1zm81 3h1v1h-1zm-116 8h1v1h-1zm46 7h1v1h-1zm40 3h1v1h-1zm-79 6h1v1h-1zm65 4h1v1h-1zm-8 1h1v1h-1zm-74 4h1v1h-1zm63 1h1v1h-1zm55 1h1v1h-1zm-41 5h1v1h-1zm22 1h1v1h-1zm32 9h1v1h-1zM20 93h1v1h-1zm185 0h1v1h-1zM38 104h1v3h-1zm0 3h1v1h-1zm190 7h1v1h-1zm26 1h1v1h-1zm-215 2h1v1h-1zm-19 12h1v1h-1zm180 3h1v1h-1zm44 1h1v1h-1zm-56 1h1v1h-1zm-98 2h1v1h-1zm149 3h1v1h-1zm-128 6h1v1h-1zm122 0h1v1h-1zm-84 2h1v1h-1zm23 0h1v1h-1zm-34 3h1v1h-1zm-4 1h1v1h-1zm-16 3h1v1h-1zm123 2h1v1h-1zm6 0h1v1h-1zm-3 1h1v1h-1zm-7 1h1v1h-1zm11 4h1v1h-1zm-92 15h1v1h-1zm-12 1h1v1h-1z" fill="#7e8496"/><path d="M118 10h1v1h-1zm30 0h1v1h-1zm-39 1h1v1h-1zm48 0h1v1h-1zm-64 3h1v1h-1zm80 0h1v1h-1zm-84 1h1v1h-1zm88 0h1v1h-1zm18 6h1v1h-1zm7 3h1v1h-1zM57 28h1v1h-1zm153 0h1v1h-1zm-105 2h1v1h-1zm40 2h1v1h-1zm72 0h1v1h-1zM78 34h1v1h-1zm25 2h1v1h-1zm123 2h1v1h-1zM61 41h1v1h-1zm40 2h1v1h-1zm-27 1h1v1h-1zm26 3h1v1h-1zm63 3h1v1h-1zm1 0h1v1h-1zm10 0h1v1h-1zm65 0h1v1h-1zM44 52h1v1h-1zm198 1h1v1h-1zM25 54h1v1h-1zm-2 2h1v1h-1zm100 0h1v1h-1zM20 61h1v1h-1zm77 1h1v1h-1zm-43 1h1v1h-1zm196 2h1v1h-1zM30 66h1v1h-1zm72 0h1v1h-1zm104 4h1v1h-1zm-24 1h1v1h-1zm25 0h1v1h-1zm11 0h1v1h-1zm-58 2h1v1h-1zm3 0h1v1h-1zm26 0h1v1h-1zm1 0h1v1h-1zm-23 1h1v1h-1zm8 2h1v1h-1zM24 77h1v1h-1zm176 0h1v1h-1zm55 1h1v1h-1zm1 4h1v1h-1zm1 6h1v1h-1zM20 89h1v1h-1zm20 3h1v1h-1zm-21 4h1v1h-1zm188 1h1v1h-1zm18 2h1v1h-1zm32 0h1v1h-1zm-238 3h1v1h-1zm0 1h1v1h-1zm207 1h1v1h-1zm-16 2h1v1h-1zm16 1h1v1h-1zm-207 2h1v1h-1zm191 0h1v1h-1zm18 0h1v1h-1zm-189 3h1v1h-1zm215 1h1v1h-1zm0 1h1v1h-1zm-35 6h1v1h-1zm-16 1h1v1h-1zm48 0h1v1h-1zm-210 3h1v1h-1zm1 2h1v1h-1zm-19 1h1v1h-1zm186 1h1v1h-1zm-20 1h1v1h-1zm56 2h1v1h-1zm-47 1h1v1h-1zm-172 2h1v1h-1zm19 0h1v1h-1zm132 0h1v1h-1zm-131 2h1v1h-1zm126 0h1v1h-1zm14 0h1v1h-1zm30 0h1v1h-1zm-52 3h1v1h-1zm1 0h1v1h-1zm73 0h1v1h-1zm-139 2h1v1h-1zm56 1h1v1h-1zm78 2h1v1h-1zm-117 1h1v1h-1zm19 0h1v1h-1zm19 1h1v1h-1zm20 2h1v1h-1zm-31 1h1v1h-1zm44 1h1v1h-1zm-64 4h1v1h-1zm94 2h1v1h-1zm-1 1h1v1h-1zm-36 15h1v1h-1zm-15 3h1v1h-1zm-56 1h1v1h-1zm12 1h1v1h-1zm28 0h1v1h-1z" fill="#000a44"/><path d="M122 15h1v1h-1zm58 0h1v1h-1zM65 23h1v1h-1zm141 2h1v1h-1zm2 1h1v1h-1zm-101 1h1v1h-1zm21 1h1v1h-1zm89 3h1v1h-1zM72 37h1v1h-1zm92 1h1v1h-1zm9 3h1v1h-1zM59 43h1v1h-1zm73 10h1v1h-1zm59 5h1v1h-1zm6 0h1v1h-1zm50 1h1v1h-1zM19 61h1v1h-1zm79 0h1v1h-1zm152 3h1v1h-1zm-148 1h1v1h-1zm54 7h1v1h-1zm1 0h1v1h-1zM13 73h1v1h-1zm174 0h1v1h-1zM25 76h1v1h-1zm173 1h1v1h-1zM23 81h1v1h-1zm-13 2h1v1h-1zm190 5h1v1h-1zM9 89h1v1H9zm229 0h1v1h-1zm-5 1h1v1h-1zm25 0h1v1h-1zm-19 1h1v1h-1zm-4 3h1v1h-1zm23 3h1v1h-1zm-49 2h1v1h-1zm30 1h1v1h-1zM9 101h1v1H9zm248 4h1v1h-1zm-219 5h1v1h-1zm-18 1h1v1h-1zm230 13h1v1h-1zm-52 1h1v1h-1zm1 4h1v1h-1zm-11 1h1v1h-1zm2 3h1v1h-1zm26 1h1v1h-1zm-27 2h1v1h-1zm-3 1h1v1h-1zm-136 7h1v1h-1zm160 1h1v1h-1zm-77 1h1v1h-1zm40 1h1v1h-1zm-44 5h1v1h-1zm88 5h1v1h-1zm19 3h1v1h-1zm6 3h1v1h-1zm3 2h1v1h-1zm-169 1h1v1h-1zm123 0h1v1h-1zm-5 2h1v1h-1zm-30 8h1v1h-1zm-51 1h1v1h-1z" fill="#a3a7b3"/><path d="M127 9h1v1h-1zm12 0h1v1h-1zm36 5h1v1h-1zm-66 8h1v1h-1zm-1 2h1v1h-1zm30 7h1v1h-1zm-55 2h1v1h-1zm72 2h1v1h-1zm-37 4h1v1h-1zm-10 1h1v1h-1zm-33 3h1v1h-1zm25 6h1v1h-1zm85 3h1v1h-1zm-87 7h1v1h-1zm12 2h1v1h-1zm-2 1h1v1h-1zm67 0h1v1h-1zM17 65h1v1h-1zm81 3h1v1h-1zm110 3h1v1h-1zm18 6h1v1h-1zm-2 5h1v1h-1zM22 83h1v1h-1zm213 14h1v1h-1zm5 0h1v1h-1zm-1 4h1v1h-1zm18 2h1v1h-1zM14 118h1v1h-1zm191 2h1v1h-1zm15 5h1v1h-1zm-1 3h1v1h-1zm-14 2h1v1h-1zm-161 3h1v1h-1zm-20 1h1v1h-1zm219 0h1v1h-1zm-55 2h1v1h-1zm-30 9h1v1h-1zm-70 2h1v1h-1zm58 1h1v1h-1zm44 2h1v1h-1zm55 4h1v1h-1zm-137 22h1v1h-1zm24 2h1v1h-1zm1 0h1v1h-1zm5 0h1v1h-1z" fill="#3d4968"/><path d="M142 9h1v1h-1zm19 2h1v1h-1zm-46 4h1v1h-1zm-45 6h1v1h-1zm36 8h1v1h-1zm-15 2h2v1h-2zm2 0h1v1h-1zm-6 1h1v1h-1zm-7 2h1v1h-1zm-3 1h1v1h-1zm46 0h1v1h-1zm-54 3h1v1h-1zm170 11h1v1h-1zm-85 1h1v1h-1zm25 0h1v1h-1zm-46 3h1v1h-1zM18 63h1v1h-1zm189 2h1v1h-1zm-2 4h1v1h-1zm-40 4h1v1h-1zm26 1h1v1h-1zm22 0h1v1h-1zm42 2h1v1h-1zm-70 3h1v1h-1zm2 1h1v1h-1zm36 1h1v1h-1zM10 84h1v1h-1zm-1 8h1v1H9zm225 0h1v1h-1zM39 94h1v1h-1zm196 1h1v1h-1zm5 0h1v1h-1zM9 98h1v1H9zm223 7h1v1h-1zm-221 5h1v1h-1zm186 23h1v1h-1zm41 7h1v1h-1zm-4 4h1v1h-1zm-113 2h1v1h-1zm8 0h1v1h-1zm49 2h1v1h-1zm-85 3h1v1h-1zm37 1h1v1h-1zm116 3h1v1h-1zm-2 7h1v1h-1zm-3 4h1v1h-1zm-113 12h1v1h-1z" fill="#6a7287"/><path d="M190 18h1v1h-1zm-72 1h1v1h-1zM85 33h1v1h-1zm64 1h1v1h-1zm-28 3h1v1h-1zm-44 4h1v1h-1zm36 4h1v1h-1zm49 4h1v1h-1zm13 0h1v1h-1zm-27 1h1v1h-1zm-17 3h1v1h-1zm-89 2h1v1h-1zm62 1h1v1h-1zm14 1h1v1h-1zm74 2h1v1h-1zM17 64h1v1h-1zm16 0h1v1h-1zm130 4h1v1h-1zM14 70h1v1h-1zm33 1h1v1h-1zm114 1h1v1h-1zm25 1h1v1h-1zm9 3h1v1h-1zm26 3h1v1h-1zM10 82h1v1h-1zm216 1h1v1h-1zM22 85h1v1h-1zm236 2h1v1h-1zm-21 1h1v1h-1zm-14 9h1v1h-1zM38 98h1v1h-1zm220 2h1v1h-1zm-47 5h1v1h-1zm14 0h1v1h-1zm0 1h1v1h-1zm-215 2h1v1h-1zm11 8h1v1h-1zm233 0h1v1h-1zm-241 1h1v1h-1zm26 2h1v1h-1zm170 5h1v1h-1zm-126 5h1v1h-1zm-40 3h1v1h-1zm40 3h1v1h-1zm159 1h1v1h-1zm-216 1h1v1h-1zm76 6h1v1h-1zm-15 2h1v1h-1zm22 0h1v1h-1zm35 0h1v1h-1zm11 0h1v1h-1zm-40 1h1v1h-1zm21 0h1v1h-1zm32 0h1v1h-1zm13 2h1v1h-1zm49 0h1v1h-1zm12 5h1v1h-1zm-139 1h1v1h-1zm116 2h1v1h-1zm18 0h1v1h-1zm-1 2h1v1h-1zm9 1h1v1h-1zm-179 1h1v1h-1zm178 0h1v1h-1zm5 2h1v1h-1zm-63 9h1v1h-1zm-97 1h1v1h-1zm3 1h1v1h-1zm19 4h1v1h-1zm48 0h1v1h-1zm-9 1h1v1h-1z" fill="#d9dbe0"/><path d="M121 9h1v1h-1zm-17 2h1v1h-1zm-21 5h1v1h-1zm-3 1h1v1h-1zm48 3h1v1h-1zm-69 6h1v1h-1zm53 2h1v1h-1zm-28 5h1v1h-1zm26 0h1v1h-1zm36 0h1v1h-1zm4 1h1v1h-1zm76 3h1v1h-1zm-118 2h1v1h-1zm123 2h1v1h-1zm-80 9h1v1h-1zm29 0h1v1h-1zM21 58h1v1h-1zm157 4h1v1h-1zm-20 8h1v1h-1zM27 72h1v1h-1zm139 1h1v1h-1zm56 7h1v1h-1zm-16 1h1v1h-1zM42 82h1v1h-1zm-3 11h1v1h-1zm-19 1h1v1h-1zm215 4h1v1h-1zm-197 3h1v1h-1zm194 10h1v1h-1zm20 9h1v1h-1zm-73 14h1v1h-1zm-10 4h1v1h-1zm14 0h1v1h-1zm57 0h1v1h-1zm-134 6h1v1h-1zm50 1h1v1h-1zm4 0h1v1h-1zm72 1h1v1h-1zm-40 4h1v1h-1zm-68 3h1v1h-1zm-7 1h1v1h-1zm127 2h1v1h-1zm-179 3h1v1h-1zm175 4h1v1h-1zm-160 5h1v1h-1zm7 3h1v1h-1zm91 2h1v1h-1zm-4 1h1v1h-1zm-68 2h1v1h-1zm51 1h1v1h-1zm-33 1h1v1h-1z" fill="#9da1ae"/><path d="M125 9h1v1h-1zM75 19h1v1h-1zm54 2h1v1h-1zm70 1h1v1h-1zm-72 5h1v1h-1zm-78 5h1v1h-1zm-3 2h1v1h-1zm57 4h1v1h-1zm-65 2h1v1h-1zm195 3h1v1h-1zm-44 5h1v1h-1zM49 49h1v1h-1zm59 2h1v1h-1zm36 0h1v1h-1zm-99 1h1v1h-1zm93 0h1v1h-1zm-33 1h1v1h-1zm24 1h1v1h-1zm61 3h1v1h-1zM54 62h1v1h-1zm119 1h1v1h-1zm24 1h1v1h-1zM97 66h1v1h-1zm65 2h1v1h-1zM28 70h1v1h-1zm160 3h1v1h-1zm35 2h1v1h-1zm-7 1h1v1h-1zM11 80h1v1h-1zm197 2h1v1h-1zm3 2h1v1h-1zm6 5h1v1h-1zm15 0h1v1h-1zm-14 1h1v1h-1zm-14 2h1v1h-1zm36 4h1v1h-1zm-7 7h1v1h-1zm4 2h1v1h-1zm-6 7h1v1h-1zm-6 4h1v1h-1zm-17 9h1v1h-1zm40 2h1v1h-1zm-224 1h1v1h-1zm18 0h1v1h-1zm166 1h1v1h-1zm-45 11h1v1h-1zm74 1h1v1h-1zm-84 2h1v1h-1zm82 0h1v1h-1zm-113 3h1v1h-1zm6 0h1v1h-1zm25 0h1v1h-1zm12 0h1v1h-1zm-23 3h1v1h-1zm-45 4h1v1h-1zm147 1h1v1h-1zm0 12h1v1h-1zm-48 1h1v1h-1zm-111 3h1v1h-1zm96 2h1v1h-1zm-8 2h1v1h-1zm-58 3h1v1h-1zm14 1h1v1h-1zm13 0h1v1h-1z" fill="#626a81"/><path d="M112 17h1v1h-1zm14 0h1v1h-1zm2 2h1v1h-1zm-10 1h1v1h-1zm-2 2h1v1h-1zm-2 3h1v1h-1zm14 4h1v1h-1zm7 0h1v1h-1zm84 4h1v1h-1zM44 36h1v1h-1zm39 2h1v1h-1zm-43 1h1v1h-1zm129 0h1v1h-1zm-61 2h1v1h-1zm122 0h1v1h-1zM77 42h1v1h-1zm-44 3h1v1h-1zm40 0h1v1h-1zm-41 1h1v1h-1zm-1 1h1v1h-1zm-1 1h1v1h-1zm-1 1h1v1h-1zm39 0h1v1h-1zm173 3h1v1h-1zm-135 1h1v1h-1zm81 1h1v1h-1zM24 55h1v1h-1zm172 1h1v1h-1zm1 1h1v1h-1zm1 1h1v1h-1zm-7 1h1v1h-1zm-91 8h1v1h-1zm101 0h1v1h-1zm-40 1h1v1h-1zm55 2h1v1h-1zM48 71h1v1h-1zm161 1h1v1h-1zm-27 6h1v1h-1zm39 2h1v1h-1zm-33 1h1v1h-1zm38 3h1v1h-1zm-27 4h1v1h-1zm39 0h1v1h-1zm-4 5h1v1h-1zm-2 11h1v1h-1zm-2 3h1v1h-1zm-1 1h1v1h-1zm0 6h1v1h-1zm-27 8h1v1h-1zm-118 7h1v1h-1zm-62 2h1v1h-1zm219 5h1v1h-1zm-59 1h1v1h-1zm-20 3h1v1h-1zm-6 2h1v1h-1zm-106 1h1v1h-1zm181 3h1v1h-1zm-177 2h1v1h-1zm168 5h1v1h-1zm-161 2h1v1h-1zm158 0h1v1h-1zm-5 3h1v1h-1zm-148 1h1v1h-1z" fill="#00003c"/><path d="M120 10h1v1h-1zm26 0h1v1h-1zm-36 1h1v1h-1zm46 0h1v1h-1zm-58 2h1v1h-1zm20 0h1v1h-1zm50 0h1v1h-1zm-82 3h1v1h-1zm-9 3h1v1h-1zm-12 5h1v1h-1zm50 0h1v1h-1zm91 2h1v1h-1zM59 27h1v1h-1zm149 0h1v1h-1zM88 31h1v1h-1zm-2 1h1v1h-1zm-43 5h1v1h-1zm42 0h1v1h-1zm82 1h1v1h-1zM65 39h1v1h-1zm37 0h1v1h-1zm68 0h1v1h-1zM58 43h1v1h-1zm180 6h1v1h-1zm-72 1h2v1h-2zm2 0h3v1h-3zm3 0h1v1h-1zM66 51h1v1h-1zm84 0h1v1h-1zm-43 1h1v1h-1zm21 3h1v1h-1zm-12 4h1v1h-1zm65 8h1v1h-1zM29 68h1v1h-1zm70 0h1v1h-1zm103 0h1v1h-1zm50 1h1v1h-1zM26 72h1v1h-1zm-12 1h1v1h-1zm144 0h1v1h-1zm35 1h1v1h-1zm-22 1h1v1h-1zM24 76h1v1h-1zm154 1h1v1h-1zm39 0h1v1h-1zm10 0h1v1h-1zM12 79h1v1h-1zm179 4h1v1h-1zm27 6h1v1h-1zm39 0h1v1h-1zm-34 6h1v1h-1zm34 3h1v1h-1zm-49 1h1v1h-1zm-169 1h1v1h-1zm217 5h1v1h-1zm-25 1h1v1h-1zm-220 1h1v1h-1zm244 4h1v1h-1zm-235 6h1v1h-1zm20 1h1v1h-1zm166 0h1v1h-1zm-184 5h1v1h-1zm228 0h1v1h-1zm-53 2h1v1h-1zm17 1h1v1h-1zm6 1h1v1h-1zm-32 2h1v1h-1zm18 0h1v1h-1zm-7 1h1v2h-1zm0 2h1v1h-1zm44 1h1v1h-1zm-53 1h2v1h-2zm2 0h1v1h-1zm25 0h1v1h-1zm-29 1h1v1h-1zm1 0h1v1h-1zm-107 1h1v1h-1zm79 4h1v1h-1zm-3 1h1v1h-1zm-9 2h1v1h-1zm85 0h1v1h-1zm-124 1h1v1h-1zm7 1h1v1h-1zm35 2h1v1h-1zm15 0h1v1h-1zm-26 3h1v1h-1zm45 0h1v1h-1zm37 2h1v1h-1zm-107 3h1v1h-1zm-40 10h1v1h-1zm106 6h1v1h-1zm-59 6h1v1h-1zm24 0h1v1h-1z" fill="#001347"/><path d="M129 10h2v1h-2zm2 0h1v1h-1zm4 0h2v1h-2zm2 0h1v1h-1zm-23 1h1v1h-1zm1 0h1v1h-1zm-14 2h1v1h-1zm15 0h1v1h-1zm49 0h1v1h-1zm-69 1h1v1h-1zm27 0h1v1h-1zm-35 2h1v1h-1zm24 0h1v1h-1zm66 0h1v1h-1zm4 1h1v1h-1zm-54 1h1v1h-1zm57 0h1v1h-1zm3 1h1v1h-1zm-79 1h1v1h-1zm82 0h1v1h-1zM73 21h1v1h-1zm47 0h2v1h-2zm2 0h1v1h-1zm9 1h1v1h-1zm65 0h1v1h-1zM66 24h1v1h-1zm-2 1h1v1h-1zm68 0h1v1h-1zm1 0h1v1h-1zm-27 1h1v1h-1zm19 0h1v1h-1zm80 0h1v1h-1zm2 1h1v1h-1zM58 28h1v1h-1zm47 0h1v1h-1zm30 0h1v1h-1zm74 0h1v1h-1zm-96 1h1v1h-1zm-23 1h1v1h-1zm49 0h1v1h-1zm-88 2h1v1h-1zm97 0h1v1h-1zm4 1h1v1h-1zM48 34h1v1h-1zm28 0h1v1h-1zm13 0h2v1h-2zm2 0h1v1h-1zm12 0h1v1h-1zm-14 1h1v1h-1zm32 0h1v1h-1zm38 0h1v1h-1zM45 36h1v1h-1zm75 0h1v1h-1zm-34 1h1v1h-1zm16 0h1v1h-1zm8 0h1v1h-1zm-69 2h1v1h-1zm23 0h1v1h-1zm17 1h1v1h-1zm147 0h1v1h-1zM60 41h1v1h-1zm117 0h1v1h-1zm52 0h1v1h-1zM58 42h1v1h-1zm-23 2h1v1h-1zm77 0h1v1h-1zm73 0h1v1h-1zM53 45h1v1h-1zm21 0h1v1h-1zm111 0h2v1h-2zm2 0h1v1h-1zM50 47h1v1h-1zm-20 2h1v1h-1zm17 0h1v1h-1zm-19 2h1v1h-1zm129 0h1v1h-1zm-11 1h1v1h-1zm36 0h1v1h-1zm-43 1h1v1h-1zm102 0h1v1h-1zM41 54h1v1h-1zm21 0h1v1h-1zm72 0h1v1h-1zm52 0h1v1h-1zm1 1h1v1h-1zm9 0h1v1h-1zM24 56h1v1h-1zm16 0h1v1h-1zm86 0h1v1h-1zm-29 2h1v1h-1zm23 0h1v1h-1zm71 2h1v1h-1zm12 1h1v1h-1zM34 62h1v1h-1zm172 1h1v1h-1zm42 0h1v1h-1zM31 64h1v1h-1zm137 0h1v1h-1zm27 0h1v1h-1zM53 65h1v1h-1zm43 0h1v1h-1zm70 0h1v1h-1zm43 0h1v1h-1zM28 68h1v1h-1zm131 0h1v1h-1zm55 0h1v1h-1zM50 69h1v1h-1zm107 0h1v1h-1zm94 0h1v1h-1zm-70 1h1v1h-1zm4 1h1v1h-1zM25 73h1v1h-1zm167 0h1v1h-1zm30 0h1v1h-1zM47 74h1v1h-1zm116 0h1v1h-1zM24 75h1v1h-1zm145 0h1v1h-1zm4 0h1v1h-1zM46 76h1v1h-1zm127 0h1v1h-1zm26 0h1v1h-1zm15 0h1v1h-1zm-15 1h1v1h-1zm18 1h1v1h-1zm-12 1h1v1h-1zM12 81h1v1h-1zm198 1h1v1h-1zm-18 2h1v1h-1zm21 0h1v1h-1zm12 0h1v1h-1zM11 85h1v1h-1zm203 0h1v1h-1zm42 0h1v1h-1zm-18 2h1v1h-1zm-40 1h1v1h-1zM41 90h1v1h-1zm199 0h1v1h-1zM19 91h1v1h-1zm213 0h1v1h-1zm-10 2h1v1h-1zm-17 2h1v1h-1zm2 3h1v1h-1zm34 0h1v1h-1zm-33 2h1v1h-1zm18 0h1v1h-1zm7 0h1v1h-1zm-215 2h1v1h-1zm0 1h1v1h-1zm212 3h1v1h-1zm-2 2h1v1h-1zm-19 3h1v1h-1zm-190 3h1v1h-1zm211 0h1v1h-1zm-216 1h1v1h-1zm213 0h1v1h-1zm-20 1h1v1h-1zm20 0h1v1h-1zm-3 2h1v1h-1zm-204 1h1v1h-1zm202 0h1v1h-1zm29 0h1v1h-1zm-210 1h1v1h-1zm158 3h1v1h-1zm50 0h1v1h-1zm-52 1h1v1h-1zm21 0h1v1h-1zm-3 1h1v1h-1zm-193 1h1v1h-1zm21 1h1v1h-1zm167 0h1v1h-1zm-23 2h1v1h-1zm13 1h2v1h-2zm2 0h1v1h-1zm-179 1h1v1h-1zm1 0h1v1h-1zm178 0h1v1h-1zm17 0h1v1h-1zm25 0h1v1h-1zm-163 2h1v1h-1zm97 0h1v1h-1zm40 0h1v1h-1zm-45 2h1v1h-1zm43 0h1v1h-1zm1 0h1v1h-1zm24 0h1v1h-1zm-1 1h1v1h-1zm-72 1h1v1h-1zm-73 1h1v1h-1zm2 1h1v1h-1zm-14 2h1v1h-1zm131 0h1v1h-1zm-110 1h1v1h-1zm48 0h1v1h-1zm-44 1h1v1h-1zm38 0h1v1h-1zm67 0h1v1h-1zm-74 1h1v1h-1zm0 1h1v1h-1zm-53 1h1v1h-1zm144 0h1v1h-1zm-80 1h1v1h-1zm14 0h1v1h-1zm46 0h1v1h-1zm19 0h1v1h-1zm-79 1h1v1h-1zm20 0h1v1h-1zm39 0h1v1h-1zm-26 2h1v1h-1zm23 0h1v1h-1zm-115 1h1v1h-1zm48 0h1v1h-1zm-45 2h1v1h-1zm37 0h1v1h-1zm-69 2h1v1h-1zm58 0h1v1h-1zm-50 6h1v1h-1zm5 3h1v1h-1zm125 0h1v1h-1zm-123 1h1v1h-1zm121 0h1v1h-1zm-117 2h1v1h-1zm109 1h1v1h-1zm-3 1h1v1h-1zm0 1h1v1h-1zm-89 3h1v1h-1zm19 3h1v1h-1z" fill="#132751"/><path d="M136 9h1v1h-1zm-8 1h1v1h-1zm10 0h1v1h-1zm-32 2h1v1h-1zm54 0h1v1h-1zm-69 3h1v1h-1zm-10 3h1v1h-1zm35 5h1v1h-1zm-60 6h1v1h-1zm56 0h1v1h-1zm99 0h1v1h-1zm-83 1h1v1h-1zm-77 1h1v1h-1zm92 0h1v1h-1zm-19 2h1v1h-1zm-13 1h1v1h-1zm-40 2h1v1h-1zm91 0h1v1h-1zm62 1h1v1h-1zM84 38h1v1h-1zm-22 2h1v1h-1zm39 1h1v1h-1zm-65 2h1v1h-1zm72 1h1v1h-1zm-38 4h1v1h-1zm108 3h1v1h-1zm-39 1h1v1h-1zm6 0h1v1h-1zm-28 7h1v1h-1zm-85 4h1v1h-1zm171 6h1v1h-1zm-48 1h1v1h-1zm97 1h1v1h-1zM14 74h1v1h-1zm32 0h1v1h-1zm118 0h1v1h-1zM13 77h1v1h-1zm32 1h1v1h-1zm185 1h1v1h-1zm25 1h1v1h-1zM43 83h1v1h-1zm-1 3h1v1h-1zm-2 9h1v1h-1zm169 8h1v1h-1zm-198 2h1v1h-1zm226 2h1v1h-1zM16 120h1v1h-1zm202 1h1v1h-1zm-201 1h1v1h-1zm182 2h1v1h-1zm21 0h1v1h-1zm28 1h1v1h-1zm-48 4h2v1h-2zm2 0h1v1h-1zm-17 1h1v1h-1zm-104 2h1v1h-1zm-56 1h1v1h-1zm153 1h1v1h-1zm-132 1h1v1h-1zm1 2h1v1h-1zm168 2h1v1h-1zm-114 2h1v1h-1zm-14 5h1v1h-1zm90 3h1v1h-1zm6 0h1v1h-1zm-44 1h1v1h-1zm-4 2h1v1h-1zm86 1h1v1h-1zm-95 1h1v1h-1zm-59 5h1v1h-1zm142 1h1v1h-1zm-2 1h1v1h-1zm-124 7h1v1h-1zm107 1h1v1h-1zm-102 1h1v1h-1zm96 0h1v1h-1zm-93 1h1v1h-1zm0 1h1v1h-1zm3 0h1v1h-1zm60 4h1v1h-1z" fill="#102550"/><path d="M138 9h1v1h-1zm22 2h1v1h-1zm-69 3h1v1h-1zm-10 3h1v1h-1zm21 24h1v1h-1zm76 9h1v1h-1zm13 0h1v1h-1zm-46 1h1v1h-1zm98 3h1v1h-1zM39 57h1v1h-1zm78 1h1v1h-1zm-60 1h1v1h-1zm196 12h1v1h-1zM13 74h1v1h-1zm-1 3h1v1h-1zm189 1h1v1h-1zm2 1h1v1h-1zm53 1h1v1h-1zm-25 1h1v1h-1zM42 83h1v1h-1zm-1 3h1v1h-1zm195 0h1v1h-1zm-16 6h1v1h-1zm3 4h1v1h-1zm-13 7h1v1h-1zm8 17h1v1h-1zm-2 1h1v1h-1zm-200 1h1v1h-1zm186 6h1v1h-1zm-116 4h1v1h-1zm2 2h1v1h-1zm127 3h1v1h-1zm-166 5h1v1h-1zm52 0h1v1h-1zm76 6h1v1h-1zm-87 1h1v1h-1zm128 7h1v1h-1zm27 2h1v1h-1zm-36 3h1v1h-1zm-2 1h1v1h-1zm-23 9h1v1h-1zm-90 2h1v1h-1zm60 4h1v1h-1z" fill="#2c3a5e"/><path d="M147 9h1v1h-1zm-37 12h1v1h-1zm-43 1h1v1h-1zm135 1h1v1h-1zM47 33h1v1h-1zm34 1h1v1h-1zm-6 2h1v1h-1zm82 0h1v1h-1zm24 8h1v1h-1zM32 45h1v1h-1zm22 1h1v1h-1zm132 0h1v1h-1zM30 47h1v1h-1zm135 2h1v1h-1zm8 0h1v1h-1zm-73 2h1v1h-1zm5 0h1v1h-1zm140 5h1v1h-1zM52 64h1v1h-1zm153 0h1v1h-1zm8 5h1v1h-1zm-57 2h1v1h-1zm3 1h1v1h-1zm96 3h1v1h-1zm-31 1h1v1h-1zm-24 2h1v1h-1zm4 2h1v1h-1zm21 23h1v1h-1zm-14 4h1v1h-1zm0 1h1v1h-1zm14 0h1v1h-1zm5 0h1v1h-1zm-210 2h1v1h-1zm188 7h1v1h-1zm11 2h1v1h-1zm-204 2h1v1h-1zm7 0h1v1h-1zm20 8h1v1h-1zm153 5h1v1h-1zm-10 1h1v1h-1zm30 1h1v1h-1zm-124 1h1v1h-1zm150 0h1v1h-1zm-212 3h1v1h-1zm135 0h1v1h-1zm-134 1h1v1h-1zm113 4h1v1h-1zm88 2h1v1h-1zm-51 1h1v1h-1zm-43 2h1v1h-1zm65 0h1v1h-1zm-69 1h1v1h-1zm93 0h1v1h-1zm-124 3h1v1h-1zm136 1h1v1h-1zm11 3h1v1h-1zm-6 1h1v1h-1zm-169 6h1v1h-1zm171 1h1v1h-1zm-145 9h1v1h-1zm70 0h1v1h-1zm-58 2h1v1h-1zm46 0h1v1h-1zm-36 1h1v1h-1zm26 0h1v1h-1z" fill="#babdc6"/><path d="M119 10h1v1h-1zm28 0h1v1h-1zm-44 2h1v1h-1zm60 0h1v1h-1zM60 26h1v1h-1zm45 5h1v1h-1zm-57 2h1v1h-1zm27 2h1v1h-1zm82 0h1v1h-1zm-91 4h1v1h-1zm-3 1h1v1h-1zm-4 2h1v1h-1zm49 0h1v1h-1zm-32 1h1v1h-1zm105 0h1v1h-1zm51 0h1v1h-1zm-119 1h1v1h-1zm-41 2h1v1h-1zm35 0h1v1h-1zm58 4h1v1h-1zm8 0h1v1h-1zm-74 1h1v1h-1zm7 0h1v1h-1zm43 0h1v1h-1zm-13 2h1v1h-1zm-95 2h1v1h-1zm57 1h1v1h-1zm-76 2h1v1h-1zm154 3h1v1h-1zm27 1h1v1h-1zM33 63h1v1h-1zm162 0h1v1h-1zm11 1h1v1h-1zm43 0h1v1h-1zm-93 6h1v1h-1zm96 0h1v1h-1zM25 74h1v1h-1zm21 1h1v1h-1zm208 0h1v1h-1zM45 77h1v1h-1zm183 9h1v1h-1zM10 88h1v1h-1zm229 1h1v1h-1zm-38 1h1v1h-1zm3 3h1v1h-1zm17 0h1v1h-1zM39 99h1v1h-1zm-29 3h1v1h-1zm216 1h1v1h-1zm-16 4h1v1h-1zm0 1h1v1h-1zm-199 1h1v1h-1zm8 1h1v1h-1zm20 5h1v1h-1zm169 1h1v1h-1zm44 2h1v1h-1zm-31 1h1v1h-1zm28 5h1v1h-1zm-206 5h1v1h-1zm42 1h1v1h-1zm101 0h1v1h-1zm-161 2h1v1h-1zm170 1h1v1h-1zm19 7h1v1h-1zm-129 3h1v1h-1zm58 1h1v1h-1zm-30 1h1v1h-1zm48 1h1v1h-1zm-13 2h1v1h-1zm32 1h1v1h-1zm-89 1h1v1h-1zm114 0h1v1h-1zm-68 1h1v1h-1zm56 0h1v1h-1zm6 0h1v1h-1zm-66 1h1v1h-1zm-35 2h1v1h-1zm17 1h1v1h-1zm-38 11h1v1h-1zm5 2h1v1h-1zm18 6h1v1h-1zm70 0h1v1h-1zm-65 1h1v1h-1zm7 1h1v1h-1zm46 0h1v1h-1zm-36 1h1v1h-1z" fill="#001046"/><path d="M99 12h1v1h-1zm68 0h1v1h-1zm-46 8h1v1h-1zm-8 6h1v1h-1zm107 7h1v1h-1zM43 36h1v1h-1zm14 8h1v1h-1zm15 1h1v1h-1zm28 5h1v1h-1zm140 0h1v1h-1zm-115 5h1v1h-1zm-6 2h1v1h-1zm-66 6h1v1h-1zm44 4h1v1h-1zm83 2h1v1h-1zm30 3h1v1h-1zM24 78h1v1h-1zm203 0h1v1h-1zm29 1h1v1h-1zm-46 23h1v1h-1zm-172 1h1v1h-1zm0 5h1v1h-1zm197 0h1v1h-1zm-215 4h1v1h-1zm3 13h1v1h-1zm-5 1h1v1h-1zm193 2h1v1h-1zm-63 16h1v1h-1zm-29 2h1v1h-1zm12 0h1v1h-1zm54 3h1v1h-1zm-129 2h1v1h-1zm1 1h1v1h-1zm1 1h1v1h-1zm165 0h1v1h-1zm-3 2h1v1h-1zm29 4h1v1h-1zm-178 4h1v1h-1zm174 0h1v1h-1zm-57 7h1v1h-1zm-98 2h1v1h-1zm11 3h1v1h-1zm13 2h1v1h-1zm12 1h1v1h-1z" fill="#858b9b"/><g fill="#fff"><path d="M0 0h267v8H0zm267 0h1v187h-1zM0 8h267v1H0zm0 1h115v1H0zm115 0h1v1h-1zm36 0h116v1H151zM0 10h107v1H0zm107 0h1v1h-1zm52 0h108v1H159zM0 11h101v1H0zm101 0h1v1h-1zm64 0h102v1H165zM0 12h96v1H0zm96 0h1v1h-1zm74 0h97v1h-97zM0 13h91v1H0zm91 0h1v1h-1zm84 0h92v1h-92zM0 14h88v1H0zm88 0h1v1h-1zm90 0h89v1h-89zM0 15h84v1H0zm84 0h1v1h-1zm33 0h3v3h-3zm3 0h1v4h-1zm62 0h85v1h-85zM0 16h81v1H0zm81 0h1v1h-1z"/><path d="M115 16h8v2h-8zm8 0h1v4h-1zm62 0h82v1h-82zM0 17h78v1H0zm78 0h1v1h-1z"/><path d="M114 17h10v1h-10zm10 0h1v4h-1zm64 0h79v1h-79zM0 18h75v1H0zm75 0h1v1h-1z"/><path d="M113 18h12v1h-12zm12 0h1v5h-1zm66 0h76v1h-76zM0 19h73v1H0zm73 0h1v1h-1zm39 0h5v1h-5zm5 0h1v1h-1z"/><path d="M120 19h6v1h-6zm6 0h1v5h-1zm68 0h73v1h-73zM0 20h70v1H0zm70 0h1v1h-1zm41 0h5v1h-5zm5 0h1v1h-1z"/><path d="M122 20h5v1h-5zm5 0h1v5h-1zm69 0h71v1h-71zM0 21h68v1H0zm68 0h1v1h-1zm43 0h4v2h-4zm4 0h1v1h-1z"/><path d="M124 21h4v1h-4zm4 0h1v6h-1zm71 0h68v1h-68zM0 22h66v1H0zm66 0h1v1h-1zm44 0h4v2h-4zm19 0h1v6h-1zm72 0h66v1h-66zM0 23h64v1H0zm64 0h1v1h-1zm50 0h1v1h-1z"/><path d="M125 23h4v1h-4zm78 0h64v1h-64zM0 24h62v1H0zm62 0h1v1h-1zm47 0h4v2h-4zm4 0h1v1h-1zm13 0h4v1h-4zm4 0h1v6h-1zm75 0h62v1h-62zM0 25h60v1H0zm60 0h1v1h-1z"/><path d="M127 25h4v1h-4zm4 0h1v27h-1zm76 0h60v1h-60zM0 26h58v1H0zm58 0h1v1h-1zm50 0h4v3h-4zm4 0h1v1h-1zm97 0h58v1h-58zM0 27h56v1H0zm56 0h1v1h-1z"/><path d="M128 27h4v1h-4zm4 0h1v25h-1zm79 0h56v1h-56zM0 28h54v1H0zm54 0h1v1h-1z"/><path d="M129 28h4v1h-4zm4 0h1v24h-1zm80 0h54v1h-54zM0 29h52v1H0zm52 0h1v1h-1zm55 0h4v2h-4zm4 0h1v1h-1zm104 0h52v1h-52zM0 30h51v1H0zm51 0h1v1h-1z"/><path d="M130 30h4v22h-4zm4 0h1v22h-1zm83 0h50v1h-50zM0 31h49v1H0zm49 0h1v1h-1zm57 0h4v3h-4zm4 0h1v1h-1zm25 0h1v20h-1zm83 0h49v1h-49zM0 32h47v1H0zm47 0h1v1h-1zm43 0h1v1h-1zm1 0h1v1h-1zm45 0h3v19h-3zm3 0h1v19h-1zm81 0h47v1h-47zM0 33h46v1H0zm46 0h1v1h-1zm40 0h3v1h-3zm3 0h1v1h-1z"/><path d="M128 33h15v17h-15zm15 0h1v17h-1zm78 0h46v1h-46zM0 34h44v1H0zm44 0h1v1h-1zm39 0h4v1h-4zm4 0h1v1h-1zm18 0h4v3h-4zm4 0h1v1h-1z"/><path d="M126 34h22v15h-22zm22 0h1v15h-1zm75 0h44v1h-44zM0 35h43v1H0zm43 0h1v1h-1zm36 0h6v1h-6zm6 0h1v1h-1z"/><path d="M124 35h28v14h-28zm28 0h1v14h-1zm72 0h43v1h-43zM0 36h42v1H0zm42 0h1v1h-1zm34 0h8v1h-8zm8 0h1v1h-1z"/><path d="M123 36h32v13h-32zm32 0h1v13h-1zm71 0h41v1h-41zM0 37h40v1H0zm40 0h1v1h-1zm34 0h8v1h-8zm8 0h1v1h-1zm22 0h4v3h-4zm4 0h1v1h-1z"/><path d="M122 37h37v12h-37zm37 0h1v12h-1zm68 0h40v1h-40zM0 38h39v1H0zm39 0h1v1h-1zm32 0h10v1H71zm10 0h1v1h-1z"/><path d="M121 38h41v10h-41zm41 0h1v10h-1zm67 0h38v1h-38zM0 39h38v1H0zm38 0h1v1h-1zm31 0h10v1H69zm10 0h1v1h-1z"/><path d="M119 39h46v9h-46zm46 0h1v9h-1zm65 0h37v1h-37zM0 40h37v1H0zm37 0h1v1h-1zm29 0h12v1H66zm12 0h1v1h-1zm26 0h3v4h-3zm3 0h1v1h-1z"/><path d="M118 40h50v8h-50zm50 0h1v8h-1zm63 0h36v1h-36zM0 41h35v1H0zm35 0h1v1h-1zm29 0h12v1H64zm12 0h1v1h-1zm27 0h3v8h-3z"/><path d="M117 41h54v7h-54zm54 0h1v7h-1zm61 0h35v1h-35zM0 42h34v1H0zm34 0h1v1h-1zm28 0h13v1H62zm13 0h1v1h-1z"/><path d="M116 42h58v6h-58zm58 0h1v6h-1zm59 0h34v1h-34zM0 43h33v1H0zm33 0h1v1h-1zm27 0h13v1H60zm13 0h1v1h-1z"/><path d="M115 43h62v5h-62zm62 0h1v6h-1zm57 0h33v1h-33zM0 44h32v1H0zm32 0h1v1h-1zm26 0h14v1H58zm14 0h1v1h-1zm30 0h4v5h-4zm4 0h1v1h-1zm72 0h2v5h-2zm2 0h1v5h-1zm55 0h32v1h-32zM0 45h31v1H0zm31 0h1v1h-1zm26 0h14v1H57zm14 0h1v1h-1z"/><path d="M114 45h68v3h-68zm68 0h1v5h-1zm54 0h31v1h-31zM0 46h30v1H0zm30 0h1v1h-1zm25 0h15v1H55zm15 0h1v1h-1z"/><path d="M113 46h72v2h-72zm72 0h1v5h-1zm52 0h30v1h-30zM0 47h29v1H0zm29 0h1v1h-1zm24 0h15v1H53zm15 0h1v1h-1z"/><path d="M112 47h74v1h-74zm74 0h1v4h-1zm52 0h29v1h-29zM0 48h28v1H0zm28 0h1v1h-1zm24 0h15v1H52zm15 0h1v1h-1zm34 0h4v6h-4z"/><path d="M111 48h77v1h-77zm77 0h1v5h-1zm51 0h28v1h-28zM0 49h27v1H0zm27 0h1v1h-1zm23 0h16v1H50zm16 0h1v1h-1zm39 0h1v1h-1zm6 0h48v1h-48zm48 0h1v1h-1z"/><path d="M177 49h12v1h-12zm12 0h1v5h-1zm51 0h27v1h-27zM0 50h26v2H0zm26 0h1v1h-1zm23 0h16v1H49zm16 0h1v1h-1zm45 0h36v1h-36zm36 0h1v1h-1z"/><path d="M182 50h8v1h-8zm8 0h1v6h-1zm51 0h26v1h-26zM48 51h16v1H48zm16 0h1v1h-1zm45 0h30v1h-30zm30 0h1v1h-1zm46 0h5v1h-5zm57 0h25v1h-25zM0 52h25v1H0zm25 0h1v1h-1zm21 0h16v1H46zm16 0h1v1h-1zm47 0h25v1h-25zm25 0h1v1h-1z"/><path d="M187 52h4v1h-4zm4 0h1v5h-1zm52 0h24v1h-24zM0 53h24v1H0zm24 0h1v1h-1zm21 0h16v1H45zm16 0h1v1h-1zm39 0h4v10h-4zm8 0h22v1h-22zm22 0h1v1h-1z"/><path d="M188 53h4v1h-4zm4 0h1v5h-1zm52 0h23v1h-23zM0 54h23v1H0zm23 0h1v1h-1zm21 0h16v1H44zm16 0h1v1h-1zm44 0h1v1h-1zm3 0h19v1h-19zm19 0h1v1h-1z"/><path d="M189 54h4v1h-4zm4 0h1v5h-1zm51 0h23v1h-23zM0 55h22v2H0zm22 0h1v1h-1zm21 0h16v1H43zm16 0h1v1h-1zm48 0h16v1h-16zm16 0h1v1h-1zm122 0h22v1h-22zM42 56h16v1H42zm16 0h1v1h-1zm48 0h14v1h-14zm14 0h1v1h-1z"/><path d="M190 56h4v1h-4zm4 0h1v4h-1zm52 0h21v1h-21zM0 57h21v1H0zm21 0h1v1h-1zm20 0h16v2H41zm16 0h1v1h-1zm48 0h12v1h-12zm12 0h1v1h-1z"/><path d="M191 57h4v1h-4zm4 0h1v4h-1zm52 0h20v1h-20zM0 58h20v2H0zm20 0h1v1h-1zm19 0h17v2H39zm60 0h15v1H99zm15 0h1v1h-1z"/><path d="M192 58h4v1h-4zm4 0h1v4h-1zm51 0h20v1h-20zM38 59h18v1H38zm18 0h1v1h-1zm43 0h13v1H99zm13 0h1v1h-1z"/><path d="M193 59h4v1h-4zm4 0h1v4h-1zm51 0h19v1h-19zM0 60h19v1H0zm19 0h1v1h-1zm18 0h18v1H37zm18 0h1v1h-1zm44 0h11v1H99zm11 0h1v1h-1z"/><path d="M194 60h4v1h-4zm4 0h1v3h-1zm51 0h18v1h-18zM0 61h18v2H0zm18 0h1v1h-1zm18 0h18v1H36zm18 0h1v1h-1zm45 0h9v1h-9zm9 0h1v1h-1z"/><path d="M195 61h5v1h-5zm5 0h1v4h-1zm49 0h18v1h-18zM36 62h17v1H36zm17 0h1v1h-1zm46 0h7v1h-7zm7 0h1v1h-1z"/><path d="M196 62h5v1h-5zm5 0h1v3h-1zm49 0h17v1h-17zM0 63h17v2H0zm17 0h1v1h-1zm18 0h17v1H35zm17 0h1v1h-1zm47 0h5v1h-5zm5 0h1v1h-1zm71 0h3v11h-3zm3 0h1v12h-1z"/><path d="M197 63h5v1h-5zm5 0h1v3h-1zm48 0h17v1h-17zM34 64h17v2H34zm17 0h1v1h-1zm47 0h4v1h-4zm4 0h1v1h-1zm71 0h5v10h-5z"/><path d="M199 64h5v1h-5zm5 0h1v3h-1zm47 0h16v1h-16zM0 65h16v2H0zm16 0h1v1h-1zm17 0h17v2H33zm65 0h3v1h-3zm3 0h1v1h-1zm70 0h8v8h-8zm8 0h1v5h-1z"/><path d="M200 65h5v1h-5zm5 0h1v3h-1zm46 0h16v1h-16zM32 66h18v1H32zm18 0h1v1h-1zm48 0h1v1h-1zm1 0h1v1h-1zm69 0h11v6h-11z"/><path d="M202 66h5v1h-5zm5 0h1v3h-1zm45 0h15v1h-15zM0 67h15v2H0zm15 0h1v1h-1zm16 0h18v2H31zm18 0h1v1h-1zm49 0h1v1h-1zm68 0h13v5h-13z"/><path d="M203 67h6v1h-6zm6 0h1v3h-1zm44 0h14v2h-14zm-89 1h15v4h-15z"/><path d="M205 68h5v1h-5zm5 0h1v3h-1zM0 69h14v2H0zm14 0h1v1h-1zm16 0h18v1H30zm18 0h1v1h-1zm114 0h17v2h-17z"/><path d="M207 69h5v1h-5zm5 0h1v3h-1zm41 0h14v1h-14zM29 70h18v2H29zm18 0h1v1h-1zm113 0h19v1h-19zm19 0h1v5h-1z"/><path d="M208 70h6v1h-6zm6 0h1v4h-1zm40 0h13v1h-13zM0 71h13v3H0zm13 0h1v1h-1zm144 0h21v1h-21z"/><path d="M210 71h5v1h-5zm5 0h1v3h-1zm39 0h13v1h-13zM28 72h18v2H28zm18 0h1v1h-1zm117 0h18v1h-18zm18 0h1v4h-1z"/><path d="M211 72h6v1h-6zm6 0h1v3h-1zm38 0h12v2h-12zM27 73h18v3H27zm142 0h16v1h-16zm16 0h1v5h-1z"/><path d="M213 73h5v1h-5zm5 0h1v3h-1zM0 74h12v3H0zm12 0h1v1h-1zm33 0h1v1h-1zm128 0h16v1h-16zm16 0h1v6h-1z"/><path d="M214 74h6v1h-6zm6 0h1v4h-1zm35 0h12v1h-12zM26 75h18v3H26zm150 0h15v1h-15zm15 0h1v6h-1z"/><path d="M216 75h5v1h-5zm5 0h1v3h-1zm35 0h11v2h-11zM44 76h1v1h-1zm136 0h14v1h-14zm14 0h1v7h-1z"/><path d="M218 76h5v1h-5zm5 0h1v4h-1zM0 77h11v4H0zm11 0h1v1h-1zm14 0h18v3H25zm158 0h13v1h-13zm13 0h1v7h-1z"/><path d="M219 77h5v1h-5zm5 0h1v4h-1zm32 0h11v1h-11zM43 78h1v1h-1zm142 0h14v1h-14zm14 0h1v8h-1z"/><path d="M220 78h6v1h-6zm6 0h1v4h-1zm31 0h10v2h-10zm-70 1h14v1h-14zm14 0h1v9h-1z"/><path d="M222 79h5v1h-5zm5 0h1v4h-1zM24 80h18v3H24zm18 0h1v1h-1zm147 0h14v1h-14zm14 0h1v10h-1z"/><path d="M223 80h5v1h-5zm5 0h1v4h-1zm29 0h10v1h-10zM0 81h10v4H0zm10 0h1v1h-1zm181 0h14v1h-14zm14 0h1v11h-1z"/><path d="M224 81h5v1h-5zm5 0h1v4h-1zm29 0h9v4h-9zm-66 1h14v1h-14zm14 0h1v11h-1z"/><path d="M226 82h5v1h-5zm5 0h1v5h-1zM23 83h18v3H23zm18 0h1v1h-1zm153 0h14v1h-14zm14 0h1v13h-1z"/><path d="M227 83h5v1h-5zm5 0h1v5h-1zm-36 1h14v1h-14zm14 0h1v16h-1z"/><path d="M228 84h5v1h-5zm5 0h1v5h-1zM0 85h9v102H0zm9 0h1v1H9zm188 0h14v1h-14zm14 0h1v18h-1z"/><path d="M229 85h5v1h-5zm5 0h1v5h-1zm24 0h9v1h-9zM22 86h18v4H22zm18 0h1v1h-1zm159 0h13v1h-13zm13 0h1v36h-1z"/><path d="M230 86h5v1h-5zm5 0h1v6h-1zm24 0h8v101h-8zm-59 1h13v1h-13zm13 0h1v34h-1zm18 0h4v1h-4z"/><path d="M201 88h14v1h-14zm14 0h1v32h-1zm17 0h4v1h-4zm4 0h1v17h-1z"/><path d="M202 89h14v1h-14zm14 0h1v31h-1zm17 0h4v1h-4zm4 0h1v14h-1zM22 90h17v6H22zm17 0h1v1h-1z"/><path d="M203 90h14v1h-14zm14 0h1v29h-1zm17 0h4v1h-4zm4 0h1v11h-1zM21 91h17v23H21z"/><path d="M204 91h14v1h-14zm14 0h1v28h-1z"/><path d="M205 92h14v1h-14zm14 0h1v26h-1zm16 0h3v1h-3zm-29 1h13v1h-13zm33 0h1v5h-1z"/><path d="M207 94h13v1h-13zm13 0h1v24h-1z"/><path d="M209 95h12v3h-12zm12 0h1v22h-1zM38 96h1v1h-1z"/><path d="M208 96h14v1h-14zm14 0h1v21h-1z"/><path d="M209 98h14v1h-14zm14 0h1v18h-1zm16 0h1v1h-1zm-25 1h9v18h-9zm-194 1h17v5H20z"/><path d="M210 100h14v1h-14zm14 0h1v15h-1zm11 0h3v3h-3zm3 1h1v1h-1zm20 1h9v85h-9zm-47 1h13v1h-13zm23 0h3v2h-3zm3 0h1v1h-1zM9 104h1v83H9zm11 1h17v1H20zm213 0h3v2h-3zm3 0h1v1h-1zm-4 2h3v1h-3zm3 0h1v1h-1z"/><path d="M257 107h10v80h-10zm-26 1h3v1h-3zm3 0h1v1h-1zm-224 1h1v78h-1zm220 0h3v1h-3zm3 0h1v1h-1zm-4 1h3v1h-3zm3 0h1v1h-1zm-21 1h13v5h-13zm16 0h4v1h-4zm4 0h1v1h-1z"/><path d="M256 111h11v76h-11zm-31 1h5v1h-5zm5 0h1v1h-1zm-219 1h1v74h-1zm214 0h3v1h-3zm3 0h1v1h-1zm-207 1h16v1H21zm16 0h1v73h-1zm188 0h2v1h-2zm2 0h1v1h-1z"/><path d="M255 114h12v73h-12zm-243 1h1v72h-1zm10 0h16v4H22zm16 0h1v72h-1zm172 0h15v1h-15zm15 0h1v1h-1zm-16 1h14v1h-14zm14 0h1v1h-1zm-14 1h13v1h-13zm13 0h1v1h-1z"/><path d="M254 117h13v70h-13zm-241 1h1v69h-1zm195 0h12v1h-12zm12 0h1v1h-1zm-198 1h16v1H22zm185 0h11v1h-11zm11 0h1v1h-1z"/><path d="M253 119h14v68h-14zm-239 1h1v67h-1zm9 0h16v3H23zm16 0h1v67h-1zm167 0h10v1h-10zm10 0h1v1h-1zm-11 1h9v1h-9zm9 0h1v1h-1z"/><path d="M252 121h15v66h-15zm-237 1h1v65h-1zm189 0h8v1h-8zm8 0h1v1h-1zm-189 1h16v1H23zm180 0h7v1h-7zm7 0h1v1h-1z"/><path d="M251 123h16v64h-16zm-235 1h1v63h-1zm8 0h16v2H24zm16 0h1v63h-1zm161 0h7v1h-7zm7 0h1v1h-1zm-9 1h7v1h-7zm7 0h1v1h-1z"/><path d="M250 125h17v62h-17zm-233 1h1v61h-1zm7 0h16v1H24zm173 0h7v1h-7zm7 0h1v1h-1zm14 0h1v2h-1zm-200 1h1v60h-1zm7 0h16v1H25zm16 0h1v60h-1zm155 0h6v1h-6zm6 0h1v1h-1zm14 0h2v3h-2z"/><path d="M249 127h18v30h-18zm-224 1h16v1H25zm169 0h6v1h-6zm6 0h1v1h-1zm13 0h5v2h-5zm5 0h1v1h-1zm-199 1h1v58h-1zm7 0h15v2H26zm166 0h6v1h-6zm6 0h1v1h-1z"/><path d="M210 129h7v4h-7zm38 0h19v26h-19zm-228 1h1v57h-1zm22 0h1v57h-1zm41 0h1v3h-1zm106 0h6v1h-6zm6 0h1v1h-1z"/><path d="M208 130h9v3h-9zm9 0h1v1h-1zm30 0h20v24h-20zm-221 1h16v1H26zm58 0h1v7h-1zm103 0h6v1h-6zm6 0h1v1h-1z"/><path d="M205 131h11v4h-11zm-184 1h1v55h-1zm6 0h15v1H27zm58 0h1v8h-1zm100 0h6v1h-6zm6 0h1v1h-1z"/><path d="M202 132h14v3h-14zm44 0h21v21h-21zm-224 1h1v54h-1zm5 0h16v1H27zm16 0h1v54h-1zm40 0h2v1h-2zm100 0h6v1h-6zm6 0h1v1h-1z"/><path d="M199 133h17v2h-17zm17 0h1v1h-1zm29 0h22v20h-22zm-222 1h1v53h-1zm5 0h15v1H28zm58 0h1v9h-1zm95 0h5v1h-5zm5 0h1v1h-1z"/><path d="M196 134h19v3h-19zm48 0h23v18h-23zm-216 1h16v1H28zm16 0h1v52h-1zm43 0h1v9h-1zm1 0h1v10h-1zm90 0h6v1h-6zm6 0h1v1h-1z"/><path d="M194 135h21v2h-21zm21 0h1v1h-1zm-191 1h1v51h-1zm5 0h15v1H29zm60 0h1v11h-1zm87 0h5v11h-5zm5 0h1v1h-1z"/><path d="M191 136h23v3h-23zm52 0h24v16h-24zm-218 1h1v50h-1zm5 0h15v1H30zm15 0h1v50h-1zm45 0h1v11h-1zm83 0h6v9h-6z"/><path d="M188 137h26v2h-26zm26 0h1v1h-1zm28 0h25v15h-25zm-216 1h1v49h-1zm4 0h15v1H30zm54 0h7v1h-7zm7 0h1v10h-1zm80 0h9v8h-9z"/><path d="M185 138h28v3h-28zm56 0h26v14h-26zm-214 1h1v48h-1zm4 0h15v1H31zm15 0h1v48h-1zm46 0h1v10h-1zm1 0h1v11h-1z"/><path d="M168 139h45v2h-45zm45 0h1v1h-1zm27 0h27v13h-27zm-212 1h1v47h-1zm3 0h15v1H31zm54 0h10v1H85zm10 0h1v11h-1z"/><path d="M165 140h47v2h-47zm74 0h28v12h-28zm-210 1h1v46h-1zm3 0h15v1H32zm15 0h1v46h-1zm47 0h2v9h-2zm2 0h1v10h-1z"/><path d="M163 141h49v1h-49zm49 0h1v1h-1zm26 0h29v11h-29zm-208 1h1v45h-1zm3 0h15v45H33zm15 0h1v45h-1zm49 0h2v10h-2zm2 0h1v11h-1zm61 0h51v2h-51zm51 0h1v1h-1z"/><path d="M237 142h30v10h-30zm-206 1h17v44H31zm55 0h15v1H86zm15 0h1v10h-1zm56 0h53v1h-53z"/><path d="M236 143h31v9h-31zm-187 1h1v43h-1zm38 0h17v1H87zm17 0h1v9h-1zm48 0h58v1h-58zm58 0h1v1h-1z"/><path d="M235 144h32v8h-32zm-185 1h1v42h-1zm38 0h20v1H88zm20 0h1v8h-1zm38 0h8v1h-8zm8 0h1v1h-1zm9 0h46v1h-46zm46 0h1v1h-1z"/><path d="M234 145h33v7h-33zm-183 1h1v41h-1zm49 0h13v7h-13zm13 0h1v7h-1zm25 0h12v1h-12zm12 0h1v1h-1zm20 0h38v1h-38zm38 0h1v1h-1z"/><path d="M233 146h34v6h-34zm-144 1h57v1H89zm57 0h1v1h-1zm30 0h31v1h-31zm31 0h1v1h-1z"/><path d="M232 147h35v5h-35zm-180 1h1v39h-1zm38 0h53v1H90zm53 0h1v1h-1zm40 0h23v1h-23zm23 0h1v1h-1z"/><path d="M231 148h36v4h-36zm-178 1h1v38h-1zm39 0h47v1H92zm47 0h1v1h-1zm50 0h15v1h-15zm15 0h1v1h-1z"/><path d="M230 149h37v3h-37zm-176 1h1v37h-1zm39 0h42v1H93zm42 0h1v1h-1zm61 0h3v1h-3zm3 0h1v1h-1z"/><path d="M228 150h39v2h-39zm-173 1h1v36h-1zm40 0h36v1H95zm36 0h1v1h-1z"/><path d="M227 151h40v1h-40zm-171 1h1v35h-1zm41 0h29v1H97zm29 0h1v1h-1zm100 0h41v1h-41zm-169 1h1v34h-1zm42 0h22v1H99zm22 0h1v1h-1zm103 0h16v1h-16zm16 0h1v1h-1zm5 0h22v1h-22zm-187 1h1v33h-1zm165 0h15v1h-15zm15 0h1v1h-1zm9 0h20v1h-20zm-188 1h1v32h-1zm162 0h16v2h-16zm16 0h1v1h-1zm4 0h4v1h-4zm4 0h1v1h-1zm3 0h19v1h-19zm-188 1h1v31h-1z"/><path d="M220 156h16v31h-16zm19 0h1v7h-1zm6 0h1v1h-1zm1 0h1v6h-1zm-185 1h1v30h-1z"/><path d="M218 157h18v30h-18zm18 0h3v1h-3zm7 0h1v1h-1zm4 0h20v1h-20zm-185 1h1v29h-1zm1 0h1v29h-1z"/><path d="M217 158h18v29h-18zm21 0h1v4h-1zm5 0h1v1h-1zm4 0h1v4h-1zm-183 1h1v28h-1z"/><path d="M215 159h20v28h-20zm-150 1h1v27h-1z"/><path d="M213 160h22v27h-22zm32 0h2v1h-2zm-179 1h1v26h-1zm1 0h1v26h-1z"/><path d="M211 161h24v26h-24zm31 0h1v1h-1zm-174 1h1v25h-1z"/><path d="M209 162h26v25h-26zm29 0h1v1h-1zm5 0h1v3h-1zm3 0h1v2h-1zm1 0h1v1h-1zm-178 1h1v24h-1zm1 0h1v24h-1z"/><path d="M207 163h29v24h-29zm29 0h1v24h-1zm3 0h1v1h-1zm5 0h1v1h-1zm5 0h18v24h-18zm-178 1h1v23h-1z"/><path d="M205 164h32v23h-32zm32 0h1v23h-1zm3 0h6v1h-6zm6 0h1v23h-1zm-174 1h1v22h-1zm1 0h1v22h-1z"/><path d="M203 165h34v22h-34zm39 0h1v22h-1zm1 0h1v22h-1zm5 0h19v22h-19zm-174 1h1v21h-1zm1 0h1v21h-1z"/><path d="M201 166h38v21h-38zm38 0h1v21h-1zm8 0h20v21h-20zm-171 1h1v20h-1zm1 0h1v20h-1z"/><path d="M198 167h69v20h-69zm-120 1h1v19h-1zm1 0h1v19h-1z"/><path d="M196 168h71v19h-71zm-116 1h1v18h-1zm1 0h1v18h-1z"/><path d="M193 169h74v18h-74zm-111 1h1v17h-1zm1 0h1v17h-1z"/><path d="M190 170h77v17h-77zm-106 1h1v16h-1zm1 0h1v16h-1z"/><path d="M187 171h80v16h-80zm-101 1h2v15h-2zm2 0h1v15h-1z"/><path d="M184 172h83v15h-83zm-95 1h2v14h-2zm2 0h1v14h-1z"/><path d="M180 173h87v14h-87zm-88 1h2v13h-2zm2 0h1v13h-1z"/><path d="M176 174h91v13h-91zm-81 1h3v12h-3zm3 0h1v12h-1z"/><path d="M172 175h95v12h-95zm-73 1h4v11h-4zm4 0h1v11h-1z"/><path d="M167 176h100v11H167zm-63 1h5v10h-5zm5 0h1v10h-1z"/><path d="M161 177h106v10H161zm-51 1h8v9h-8zm8 0h1v9h-1z"/><path d="M152 178h115v9H152z"/><path d="M119 179h148v8H119zM0 187h267v1H0zm267 0h1v1h-1z"/></g><path d="M133 9h1v1h-1zm12 1h1v1h-1zm-34 1h1v1h-1zm44 0h1v1h-1zm7 1h1v1h-1zm-68 2h1v1h-1zm78 0h1v1h-1zm4 1h1v1h-1zm-96 3h1v1h-1zm112 2h1v1h-1zM72 21h1v1h-1zm51 1h1v1h-1zm1 2h1v1h-1zm8 0h1v1h-1zm-6 2h1v1h-1zm81 0h1v1h-1zM90 31h1v1h-1zm56 1h1v1h-1zm-35 1h1v1h-1zm39 0h1v1h-1zm11 3h1v1h-1zm-41 1h1v1h-1zm-63 6h1v1h-1zm127 1h1v1h-1zm-84 2h1v1h-1zm87 0h1v1h-1zm50 2h1v1h-1zm-86 3h1v1h-1zm-45 1h1v1h-1zm31 1h1v1h-1zm-17 4h1v1h-1zm-65 5h1v1h-1zm114 2h1v1h-1zm81 2h1v1h-1zM51 67h1v1h-1zm164 2h1v1h-1zm-32 2h1v1h-1zm31 4h1v1h-1zM13 76h1v1h-1zm30 6h1v1h-1zm190 0h1v1h-1zm-8 1h1v1h-1zm9 0h1v1h-1zM21 84h1v1h-1zm214 0h1v1h-1zM42 85h1v1h-1zm187 2h1v1h-1zm8 0h1v1h-1zM20 88h1v1h-1zm211 1h1v1h-1zm-12 1h1v1h-1zm38 1h1v1h-1zm0 1h1v1h-1zM40 93h1v1h-1zm200 0h1v1h-1zm17 2h1v1h-1zm0 1h1v1h-1zm-49 2h1v1h-1zm26 0h1v1h-1zm-224 2h1v1h-1zm29 1h1v1h-1zm194 0h1v1h-1zm-7 1h1v1h-1zm-187 7h1v1h-1zm216 0h1v1h-1zm-47 6h1v1h-1zm14 3h1v1h-1zm1 0h1v1h-1zm29 1h1v1h-1zm-211 3h1v1h-1zm-18 4h1v1h-1zm171 0h1v1h-1zm-2 1h1v1h-1zm-2 1h1v1h-1zm-165 3h1v1h-1zm154 2h1v1h-1zm63 2h1v1h-1zm-147 4h1v1h-1zm59 3h1v1h-1zm-48 1h1v1h-1zm-21 1h1v1h-1zm57 0h1v1h-1zm-24 1h1v1h-1zm38 1h1v1h-1zm4 0h1v1h-1zm69 2h1v1h-1zm-84 1h1v1h-1zm34 0h1v1h-1zm-55 5h1v1h-1zm-7 1h1v1h-1zm-36 13h1v1h-1zm12 4h1v1h-1zm85 0h1v1h-1zm-72 3h1v1h-1zm18 2h1v1h-1zm22 0h1v1h-1zm7 0h1v1h-1z" fill="#001849"/></svg>