<svg xmlns="http://www.w3.org/2000/svg" role="img" viewBox="-24.62 -24.62 1280.24 314.24"><title>Peridio logo</title><path d="M392.79 169.03c44.479 0 84.915-15.4 84.915-63.491 0-36.4729-33.697-56.7358-80.602-56.7358h-56.879c-9.165 0-15.096 1.621-15.096 8.6455 0 8.9156 14.018 9.456 14.018 20.8032V203.071c0 11.348-14.018 11.618-14.018 20.804 0 7.024 6.2 8.645 15.096 8.645h38.009c8.896 0 15.096-1.621 15.096-8.645 0-9.186-14.017-9.456-14.017-20.804V169.03h13.478zm-4.582-101.3148h4.582c23.992 0 40.975 18.6419 40.975 44.5788 0 28.368-20.218 38.094-41.783 38.094h-12.67V78.7922c0-6.7543 1.887-11.077 8.896-11.077zm219.21 120.4968c-2.695 0-4.852 1.081-7.548 3.782-9.704 9.997-18.33 14.59-31 14.59-23.992 0-40.166-16.481-43.671-42.688h70.089c13.209 0 19.139-5.673 19.139-18.912 0-27.827-20.218-51.0621-57.149-51.0621-41.783 0-70.088 30.7991-70.088 73.2161 0 41.607 28.575 69.164 72.245 69.164 26.687 0 45.827-14.589 53.105-31.88 1.078-2.972 1.617-5.673 1.617-8.375 0-4.863-2.965-7.835-6.739-7.835zm-54.453-77.539c18.061 0 24.531 13.508 24.531 31.069 0 2.162-.27 5.404-.809 7.295h-52.296c1.078-22.424 12.4-38.364 28.574-38.364zm94.379 121.847h38.009c8.357 0 14.018-1.621 14.018-8.105 0-8.375-13.479-8.916-13.479-19.723v-47.82c0-19.723 6.74-24.045 14.557-24.045 7.279 0 9.705 2.161 16.714 2.161 12.13 0 20.487-7.024 20.487-21.073 0-11.888-6.739-20.5335-21.027-20.5335-11.591 0-25.609 8.3755-32.887 26.2065h-1.078V107.16c-.27-9.4557-2.696-13.5083-12.131-13.5083-12.4 0-39.896 9.9963-39.896 17.8313 0 5.674 4.043 7.025 11.322 11.347 2.695 1.891 5.121 5.134 4.852 11.888v69.974c0 10.807-13.479 11.348-13.479 19.723 0 6.484 5.661 8.105 14.018 8.105zM780.96 78.5221c14.018 0 24.531-8.6455 24.531-22.4243 0-13.7788-10.513-22.4243-24.531-22.4243-13.748 0-24.531 8.6455-24.531 22.4243 0 13.7788 10.783 22.4243 24.531 22.4243zM763.438 232.52h38.009c8.357 0 14.018-1.621 14.018-8.105 0-8.375-13.479-8.916-13.479-19.723V107.43c-.269-8.3749-4.043-13.7783-15.635-13.7783-12.13 0-39.626 7.8353-39.626 16.4803 0 5.404 3.504 6.214 9.704 10.807 4.044 2.972 6.47 6.484 6.47 14.589v69.164c0 10.807-13.479 11.348-13.479 19.723 0 6.484 5.661 8.105 14.018 8.105zm130.105 4.053c18.601 0 33.427-8.916 41.784-21.614h1.078v3.512c0 15.13 1.887 18.102 11.052 18.102 15.905 0 39.896-9.186 39.896-18.102 0-5.133-3.504-6.754-9.704-9.186-4.583-1.621-6.739-4.863-6.739-11.077V44.4804c-.27-8.9156-4.583-13.7787-14.288-13.7787-12.4 0-40.974 8.3753-40.974 16.4804 0 4.3228 1.887 5.6737 8.896 9.9964 4.852 3.2421 7.548 7.0245 7.548 15.9401v29.7194c-8.896-5.9442-19.409-9.4565-33.697-9.4565-40.974 0-67.392 30.2595-67.392 72.9465s27.227 70.245 62.54 70.245zm13.479-23.505c-21.835 0-36.123-32.961-35.853-62.68.269-25.667 10.244-38.905 26.687-38.905 18.331 0 33.966 22.424 33.966 50.792v16.751c0 19.723-9.974 34.042-24.8 34.042zM1033.16 78.5221c14.01 0 24.53-8.6455 24.53-22.4243 0-13.7788-10.52-22.4243-24.53-22.4243-13.75 0-24.54 8.6455-24.54 22.4243 0 13.7788 10.79 22.4243 24.54 22.4243zM1015.63 232.52h38.01c8.36 0 14.02-1.621 14.02-8.105 0-8.375-13.48-8.916-13.48-19.723V107.43c-.27-8.3749-4.04-13.7783-15.63-13.7783-12.13 0-39.63 7.8353-39.63 16.4803 0 5.404 3.5 6.214 9.7 10.807 4.05 2.972 6.47 6.484 6.47 14.589v69.164c0 10.807-13.47 11.348-13.47 19.723 0 6.484 5.66 8.105 14.01 8.105zm140.89 4.053c43.13 0 75.48-29.989 75.48-73.757s-32.35-69.1643-73.05-69.1643c-41.79 0-75.75 29.7193-76.02 73.7573.27 42.146 31.27 69.164 73.59 69.164zm7.28-18.102c-25.88 0-39.09-40.526-39.09-70.245 0-22.424 8.9-36.743 26.42-36.743 25.88 0 39.09 40.526 39.09 69.704 0 22.965-9.44 37.284-26.42 37.284z"/><path fill="#3424EE" fill-rule="evenodd" d="M132.409 265.409c73.128 0 132.408-59.413 132.408-132.704C264.817 59.4139 205.537 0 132.409 0 59.2814 0 0 59.4139 0 132.705c0 52.737 30.6944 98.29 75.155 119.691.2242-.426.4811-.839.7711-1.241 14.3846-19.853 24.0081-39.142 30.7419-60.045-27.7999-9.518-44.0543-29.36-53.2895-47.344-5.2397-10.203-8.2934-19.911-10.0438-27.06-.8783-3.587-1.4375-6.566-1.7812-8.688-.1146-.708-.2772-1.889-.4878-3.543l-.0027-.027a.99407.99407 0 0 0-.0022-.021c-.55-5.6254 3.554-10.6321 9.1664-11.1835 5.6045-.5504 10.5942 3.5505 11.1558 9.1635.1302 1.005.2397 1.783.3286 2.332.2676 1.651.7226 4.092 1.4565 7.089 1.4743 6.02 4.0379 14.139 8.3685 22.572 3.5718 6.955 8.2938 14.052 14.5786 20.38-1.0311-4.848-1.734-9.742-2.2129-14.434-1.1197-10.97-1.0842-21.596-.7828-29.411.1516-3.926.3719-7.188.5565-9.485.0616-.767.1729-1.9806.3339-3.6421l.0068-.061.0028-.0268c.6301-5.622 5.6833-9.6639 11.2875-9.0331 5.602.6306 9.634 5.6922 9.008 11.3069v.0051l-.003.021c-.131 1.363-.225 2.386-.28 3.071-.165 2.058-.367 5.033-.506 8.635-.279 7.243-.297 16.841.692 26.538 1.004 9.834 2.977 19.041 6.271 25.91.741 1.545 1.512 2.904 2.313 4.091 2.681-12.149 4.702-25.004 6.363-38.918.671-5.612 5.753-9.616 11.353-8.945 5.599.672 9.595 5.766 8.925 11.378-1.72 14.399-3.835 27.893-6.676 40.785 1.28-.807 2.604-1.806 3.98-3.015 5.719-5.024 11.137-12.717 15.908-21.37 4.705-8.53 8.445-17.367 11.022-24.139 1.281-3.368 2.26-6.184 2.913-8.142.218-.652.532-1.63.944-2.935l.007-.021c1.621-5.415 7.311-8.487 12.712-6.865 5.402 1.623 8.469 7.327 6.85 12.741-.001.002-.001.004-.002.005l-.007.026c-.514 1.631-.893 2.811-1.136 3.54-.729 2.186-1.803 5.273-3.2 8.945-2.781 7.307-6.906 17.095-12.229 26.747-2.593 4.701-5.555 9.528-8.887 14.087 9.679-3.379 17.899-8.616 24.695-14.265 7.283-6.056 12.819-12.517 16.53-17.475 1.849-2.468 3.221-4.534 4.113-5.948.297-.471.699-1.136 1.205-1.996l.011-.019c2.712-4.944 8.908-6.755 13.848-4.046 4.948 2.714 6.763 8.932 4.055 13.891-.856 1.467-1.475 2.504-1.858 3.11-1.146 1.817-2.826 4.337-5.038 7.292-4.407 5.887-11.016 13.617-19.828 20.944-16.44 13.667-40.926 26.158-72.744 22.077-6.961 22.155-16.944 42.965-31.8836 64.231 11.9366 3.543 24.5776 5.444 37.6616 5.444z" clip-rule="evenodd"/></svg>