<svg xmlns="http://www.w3.org/2000/svg" role="img" viewBox="-4.69 -7.19 815.88 264.38"><title>Pluribus Networks logo</title><defs><style>.cls-1{fill:#595959}.cls-2{fill:#8ec341}</style></defs><path d="M302.90527 169.56179h8.37513l13.32592 17.12042v-17.12042h8.88394v32.39h-7.82052l-13.88052-17.76789v17.76789h-8.884zm66.39553 0h26.04889v7.589h-17.16494v4.95079h15.5469v7.08019h-15.5469v5.13523h17.39645v7.6348h-26.2804zm68.89128 7.86631h-9.67261v-7.86631h28.364v7.86631h-9.71586v24.52371h-8.97553zm50.52553-7.86631h9.48439l5.64532 18.73973 6.24568-18.83132h7.72893l6.24573 18.83132 5.64533-18.73973h9.30117l-10.82762 32.62153H520.366l-6.47724-18.64687-6.52558 18.64687h-7.818zm81.01385 16.28721v-.09159c0-9.30117 7.49741-16.84311 17.49058-16.84311 9.99571 0 17.399 7.45035 17.399 16.75025v.09286c0 9.29991-7.49742 16.84185-17.49059 16.84185-9.99571.00002-17.39899-7.44906-17.39899-16.75026zm25.68 0v-.09159c0-4.71927-3.33021-8.74529-8.281-8.74529s-8.23774 3.979-8.23774 8.65243v.09286c0 4.67349 3.37854 8.7453 8.32933 8.7453 4.90495.00002 8.1894-3.98021 8.1894-8.65371zm43.90835-16.28721h15.3154c4.95079 0 8.37512 1.29621 10.54777 3.4714a10.10939 10.10939 0 0 1 2.86973 7.54194v.09159a10.26411 10.26411 0 0 1-6.663 9.99571l7.72639 11.28938h-10.31623l-6.52558-9.80872h-3.97894v9.80872h-8.97554zm14.944 15.5469c3.00711 0 4.81341-1.48066 4.81341-3.84029v-.09159c0-2.59115-1.89789-3.88736-4.8592-3.88736h-5.92263v7.81924zm48.39482-15.5469h8.97553v13.14147l11.19652-13.14147h10.59611l-12.25994 13.8818 12.67715 18.50822h-10.736l-8.18941-12.02971-3.28441 3.60879v8.42092h-8.97553zm60.93592 27.57788l4.99659-5.96842a16.78014 16.78014 0 0 0 10.502 3.88609c2.4525 0 3.75-.83319 3.75-2.221v-.09286c0-1.3878-1.066-2.08106-5.50794-3.14576-6.89448-1.57352-12.21416-3.5172-12.21416-10.13309v-.09286c0-6.01549 4.76507-10.3646 12.5398-10.3646 5.5054 0 9.80745 1.48065 13.32592 4.30336l-4.49031 6.33855a15.90107 15.90107 0 0 0-9.06712-3.19283c-2.1752 0-3.23862.88025-3.23862 2.08233v.09286c0 1.48066 1.10922 2.12813 5.64532 3.147 7.40329 1.61931 12.02844 4.02475 12.02844 10.086v.09286c0 6.61716-5.2281 10.55032-13.09441 10.55032a22.70587 22.70587 0 0 1-15.17551-5.36795z" class="cls-1"/><path d="M370.73821 85.16177c0 19.40628-12.29811 30.613-33.75492 30.613h-17.63051v29.92989h-16.39917V54.54879h34.02968c21.45681 0 33.75492 11.2067 33.75492 30.61298zm-16.26179 0c0-9.29355-3.27933-15.4426-18.72447-15.4426h-16.39917v31.15995H335.752c15.44509 0 18.72442-6.2877 18.72442-15.71735zm33.63026 60.54286V51.543h16.39917v94.16168zm99.634-68.19547v37.309c0 20.08936-11.47891 31.97915-30.88519 31.97915-19.27144 0-30.75036-11.88979-30.75036-31.97915v-37.309h16.53656v39.49565c0 10.9332 4.09852 15.44387 14.2138 15.44387 10.25012 0 14.34864-4.51067 14.34864-15.44387V77.50916zm52.6244-1.09396V90.629a67.927 67.927 0 0 0-17.63051 2.32275v52.75287H506.3354V83.65821a92.12809 92.12809 0 0 1 34.02968-7.24301zm15.59015-8.19958v-15.033H572.764v15.033zm.27222 77.489V77.50916h16.39917v68.19547zm97.31125-34.85014c0 32.39-21.45681 35.94284-30.613 35.94284-21.1846 0-28.69982-11.88979-28.69982-22.9591V51.40557h16.39917v26.10359a60.98427 60.98427 0 0 1 11.20669-1.094c20.36289.00004 31.70696 12.16331 31.70696 34.43932zm-16.53655-.81919c0-16.127-6.28643-20.63635-15.71736-20.63635a46.51824 46.51824 0 0 0-10.65971 1.09268v34.85015c0 5.73946 5.05764 7.37912 12.30065 7.37912 10.52234 0 14.07642-7.10563 14.07642-22.6856zm94.71502-32.52613v37.309c0 20.08936-11.47892 31.97915-30.8852 31.97915-19.27017 0-30.74908-11.88979-30.74908-31.97915v-37.309h16.53655v39.49565c0 10.9332 4.09852 15.44387 14.21253 15.44387 10.25012 0 14.34864-4.51067 14.34864-15.44387V77.50916zm64.24323 49.33617c0 11.3428-9.84052 19.952-25.4205 19.952a43.14642 43.14642 0 0 1-21.59419-5.60208v-14.6234a34.6952 34.6952 0 0 0 19.27144 6.01294c10.52234 0 11.34154-2.86972 11.34154-6.55992 0-11.20669-32.52613-4.64677-32.52613-28.29023 0-14.34863 11.75367-21.31943 25.28312-21.31943a36.84831 36.84831 0 0 1 18.58708 4.92026v12.43675a36.77162 36.77162 0 0 0-15.71736-3.2806c-6.83341 0-11.75367 1.36745-11.75367 5.74073 0 10.52234 32.52867 2.73235 32.52867 30.61298z" class="cls-2"/><path d="M114.52243 163.68012v28.53553h15.45625v-27.281c0-15.73515 6.267-19.07829 15.73677-19.07829 9.60686 0 16.01261 3.34314 16.01261 19.07829V192.214h15.17881v-28.53388c0-21.86185-11.41957-34.39429-31.19142-34.39429-19.77507 0-31.19302 12.53244-31.19302 34.39429z" class="cls-1"/><path d="M144.63735 56.724h-31.09524v15.45625h29.842c15.73533 0 19.07841 6.26688 19.07841 15.73676 0 9.60853-3.34308 16.01263-19.07841 16.01263h-29.842v15.17881h31.09524c21.86339 0 34.39571-11.41817 34.39571-31.19144 0-19.77501-12.53232-31.19301-34.39571-31.19301zm-57.36735 0h15.524v135.492H87.27z" class="cls-2"/><path d="M235.80807 81.63809a24.23673 24.23673 0 0 0-26.95317-40.19345 116.428 116.428 0 0 0-185.0078 135.9687 24.23091 24.23091 0 0 0 29.94068 37.509A116.33985 116.33985 0 0 0 235.80807 81.63809zm-9.01375-32.61075a14.45683 14.45683 0 1 1-18.95963 7.65055 14.47414 14.47414 0 0 1 18.95963-7.65055zM35.82921 207.351a14.45776 14.45776 0 1 1 18.96038-7.65232 14.47415 14.47415 0 0 1-18.96038 7.65232zm50.47767 15.61115a105.76814 105.76814 0 0 1-24.94746-14.99725 24.255 24.255 0 0 0-28.99717-36.39579A106.19157 106.19157 0 0 1 201.30142 48.36423a24.22747 24.22747 0 0 0 25.3031 37.57916A106.2228 106.2228 0 0 1 86.30688 222.96217z" class="cls-2"/></svg>