<svg xmlns="http://www.w3.org/2000/svg" role="img" viewBox="-19.70 -16.70 1388.40 307.40"><title>Polycephaly logo</title><style>svg {enable-background:new 0 0 1350 275}</style><style>.st0{fill:#2a7de1}.st1{fill:#0033a1}</style><path d="M799.7 46h7.6c2.4-.2 4.7.5 6.6 1.9 1.5 1.3 2.4 3.3 2.3 5.3.1 2.1-.8 4-2.3 5.4-2 1.5-4.4 2.2-6.8 2h-5.2v12.8h-2.1V46zm2.1 1.8v11.1h5.1c1.9.1 3.7-.4 5.2-1.5 1.2-1 1.9-2.5 1.8-4.1.1-1.5-.6-3-1.7-4-1.4-1.1-3.2-1.6-5-1.5h-5.4zm21.6-1.8h7c2.4-.2 4.8.5 6.7 1.9 1.5 1.3 2.4 3.2 2.3 5.2 0 3.2-2.1 5.9-5.2 6.7 1.5 1.1 2.8 2.5 3.6 4.2l6.2 9.5h-2.5l-4.8-7.5c-1-1.8-2.2-3.3-3.7-4.7-1.2-.7-2.5-1-3.9-.9h-3.7v13.1h-2.1V46zm2.1 1.8v10.7h4.6c1.9.1 3.7-.4 5.3-1.4 1.2-.9 1.9-2.4 1.8-4 .1-1.5-.6-3-1.9-3.9-1.6-1-3.5-1.5-5.4-1.4h-4.4zm36.9-2.2c3.8-.1 7.6 1.4 10.3 4.1 2.8 2.6 4.3 6.2 4.2 10 .1 3.8-1.5 7.4-4.2 10-5.8 5.5-14.8 5.5-20.6 0-2.7-2.6-4.3-6.2-4.2-10-.1-3.8 1.5-7.4 4.2-10 2.7-2.7 6.4-4.1 10.3-4.1zm0 26.2c3.2.1 6.4-1.2 8.6-3.5 2.3-2.2 3.6-5.4 3.5-8.6.1-3.2-1.2-6.3-3.5-8.6s-5.4-3.6-8.6-3.5c-3.3-.1-6.4 1.2-8.7 3.5-2.3 2.2-3.6 5.4-3.6 8.6-.1 3.2 1.2 6.3 3.6 8.6 2.3 2.3 5.5 3.6 8.7 3.5zM887.6 46v27.4c.2 2.2-.4 4.5-1.7 6.3-1 1.1-2.5 1.7-4 1.7-.4 0-.9 0-1.3-.1l-.2-2c.4.1.8.2 1.3.2 2.6 0 3.8-1.8 3.8-5.5V46h2.1zm24.3 0v1.8H899v11h12.5v1.8H899v11.1h13.1v1.8h-15.3V46h15.1zm30.7 1.9v2.3c-3-1.7-6.3-2.6-9.8-2.6-3.2-.1-6.3 1.2-8.5 3.5-2.3 2.3-3.5 5.4-3.4 8.7-.1 3.2 1.1 6.4 3.5 8.7 2.4 2.3 5.5 3.5 8.8 3.4 3.4-.1 6.8-1.1 9.7-2.8v2.2c-3 1.6-6.3 2.5-9.7 2.6-3.9.1-7.6-1.3-10.4-4-2.7-2.6-4.3-6.2-4.2-10-.1-3.8 1.5-7.5 4.3-10.1 2.7-2.6 6.4-4.1 10.1-4 3.3-.1 6.6.7 9.6 2.1zm27.3-1.9v1.8h-10.3v25.6h-2.1V47.8h-10.3V46h22.7zM514.8 75.3h-9.2V57.7l-8.3 10.2h-.7l-8.3-10.2v17.6h-8.9V45h8.3l9.3 11.4 9.4-11.4h8.3l.1 30.3zm41 0h-9.4l-2.5-6.2h-13.2l-2.5 6.2h-9.4L532.3 45h10.1l13.4 30.3zm-14-11.4l-4.4-11.1-4.5 11.1h8.9zM569 75.3h-9.2V45h9.2v30.3zm40.7 0h-8.2l-15.8-16.9v16.9h-9.1V45h8.1l15.7 16.8V45h9.1l.2 30.3zM639.1 63h-12.6v12.3h-9.2V45h21.8v6.1h-12.6V57h12.6v6zm35.5 12.3h-9.8l-2.4-5.4c-.6-1.5-1.4-3-2.4-4.3-.5-.8-1.2-1.4-2-1.8-.8-.3-1.7-.4-2.6-.4h-1v11.9h-9.2V45h15.6c2.2-.1 4.3.4 6.2 1.5 1.5.9 2.7 2.2 3.5 3.7.7 1.3 1 2.7 1.1 4.2 0 1.4-.3 2.7-.9 3.9-.5.9-1.1 1.7-1.9 2.3-.7.5-1.4 1-2.2 1.4.9.5 1.7 1.2 2.4 2 1 1.5 1.9 3.1 2.6 4.7l3 6.6zm-12.4-20.7c.1-1.2-.4-2.3-1.4-2.9-1.4-.7-2.9-.9-4.5-.8h-1.9v7.3h2c1.6.1 3.1-.1 4.6-.7.8-.8 1.3-1.8 1.2-2.9zm49.9 20.7h-9.4l-2.5-6.2H687l-2.5 6.2h-9.4L688.6 45h10.1l13.4 30.3zm-13.9-11.4l-4.4-11.1-4.5 11.1h8.9zm53.3 11.4h-9.2V57.7L734 67.9h-.7L725 57.7v17.6h-8.9V45h8.3l9.3 11.4 9.4-11.4h8.3v30.3zm30.5 0h-22.9V45h22.5v6.1h-13.4v5.6H781v6.1h-12.8v6.5H782v6zM365.8 46c4.3-.1 8.4 1.6 11.5 4.6 3.1 2.9 4.8 6.9 4.7 11.1.1 4.2-1.6 8.2-4.7 11.1-6.5 6.1-16.5 6.1-23 0-3.1-2.9-4.8-6.9-4.7-11.1-.1-4.2 1.6-8.3 4.7-11.1 3-3.1 7.2-4.7 11.5-4.6zm.1 29.2c3.6.1 7.1-1.3 9.7-3.9 2.6-2.5 4-6 3.9-9.6.1-3.6-1.3-7.1-3.9-9.6-2.5-2.6-6-4-9.7-3.9-3.6-.1-7.1 1.3-9.7 3.9-2.6 2.5-4.1 6-4 9.6-.1 3.6 1.4 7.1 4 9.6 2.5 2.5 6 4 9.7 3.9zm21.9-28.8h8.4c2.7-.2 5.3.6 7.4 2.2 1.7 1.5 2.7 3.7 2.6 5.9.1 2.3-.9 4.5-2.6 6-2.2 1.6-4.9 2.4-7.6 2.2h-5.8V77h-2.4V46.4zm2.3 1.9v12.4h5.7c2.1.1 4.1-.4 5.8-1.6 1.4-1.1 2.1-2.8 2-4.6.1-1.7-.6-3.4-1.9-4.5-1.6-1.2-3.6-1.8-5.6-1.7h-6zm37.3-1.9v2h-14.3v12.2h14v2h-14V75h14.7v2h-17V46.4h16.6zm32.8 0V77h-1.9L435 50.2V77h-2.4V46.4h2l23.2 26.8V46.4h2.4z" class="st0"/><path d="M349 107.2h48.6c28.4 0 45.5 16.8 45.5 41.1v.3c0 27.5-21.4 41.8-48 41.8h-19.9v35.7H349V107.2zm46.8 60c13.1 0 20.7-7.8 20.7-18v-.3c0-11.7-8.2-18-21.2-18h-20.2v36.3h20.7zm55.2 13.9v-.3c0-26.1 21.1-47.4 49.4-47.4 28.2 0 49.1 20.9 49.1 47v.3c0 26.1-21.1 47.4-49.4 47.4-28.2 0-49.1-20.9-49.1-47zm73 0v-.3c0-13.4-9.7-25.1-23.9-25.1-14.8 0-23.6 11.4-23.6 24.8v.3c0 13.4 9.7 25.1 23.9 25.1 14.8 0 23.6-11.4 23.6-24.8zm41.9-79h25.8V226h-25.8V102.1zm106.5 33h26.8l-35 93.2c-7 18.5-14.4 25.5-29.9 25.5-9.3 0-16.3-2.4-22.9-6.3l8.7-18.7c3.4 2 7.6 3.6 11 3.6 4.4 0 6.8-1.4 9-5.9l-35.7-91.3h27.3l20.7 62 20-62.1zm29.2 46v-.3c0-26 19.9-47.4 47.7-47.4 17.1 0 27.8 5.8 36.3 15.3l-15.8 17c-5.8-6.1-11.5-10-20.7-10-12.9 0-22.1 11.4-22.1 24.8v.3c0 13.9 9 25.1 23.1 25.1 8.7 0 14.6-3.7 20.9-9.7l15.1 15.3c-8.8 9.7-19 16.6-37.2 16.6-27.3 0-47.3-21-47.3-47zm91 0v-.3c0-26 18.5-47.4 45-47.4 30.4 0 44.3 23.6 44.3 49.4 0 2-.2 4.4-.3 6.8h-63.3c2.5 11.7 10.7 17.8 22.2 17.8 8.7 0 14.9-2.7 22.1-9.3l14.8 13.1c-8.5 10.5-20.7 17-37.2 17-27.4-.1-47.6-19.3-47.6-47.1zm64.2-7.7c-1.5-11.5-8.3-19.4-19.2-19.4-10.7 0-17.7 7.6-19.7 19.4h38.9zm40.9-38.3h25.8v13.1c6.3-8.5 14.9-14.8 28.4-14.8 21.2 0 41.4 16.6 41.4 47v.3c0 30.4-19.9 47-41.4 47-13.8 0-22.2-6.3-28.4-13.6v39.1h-25.8V135.1zm69.7 45.6v-.3c0-15.1-10.2-25.1-22.2-25.1-12.1 0-22.1 10-22.1 25.1v.3c0 15.1 10 25.1 22.1 25.1 12.1.1 22.2-9.8 22.2-25.1zm41.5-78.6h25.8V148c5.9-7.6 13.6-14.6 26.7-14.6 19.5 0 30.9 12.9 30.9 33.8v58.9h-25.8v-50.8c0-12.2-5.8-18.5-15.6-18.5s-16.1 6.3-16.1 18.5v50.8H1009v-124zm96.9 97.8v-.3c0-19.9 15.1-29 36.7-29 9.2 0 15.8 1.5 22.2 3.7v-1.5c0-10.7-6.6-16.6-19.5-16.6-9.8 0-16.8 1.9-25.1 4.9l-6.5-19.7c10-4.4 19.9-7.3 35.3-7.3 14.1 0 24.3 3.7 30.7 10.2 6.8 6.8 9.8 16.8 9.8 29v52.8h-25v-9.8c-6.3 7-14.9 11.5-27.5 11.5-17 0-31.1-9.9-31.1-27.9zm59.3-5.9v-4.6c-4.4-2-10.2-3.4-16.5-3.4-11 0-17.8 4.4-17.8 12.6v.3c0 7 5.8 11 14.1 11 12 0 20.2-6.6 20.2-15.9zm44.4-91.9h25.8V226h-25.8V102.1zm106.5 33h26.8l-35 93.2c-7 18.5-14.4 25.5-29.9 25.5-9.3 0-16.3-2.4-22.9-6.3l8.7-18.7c3.4 2 7.6 3.6 11 3.6 4.4 0 6.8-1.4 9-5.9l-35.7-91.3h27.3l20.7 62 20-62.1z" class="st1"/><path d="M338.5 29.3c-.4-1.4-1.9-2.3-3.3-1.9-2.4.6-3.7-.1-6.1-1.6 1.7-2.9 5.9-3.6 5.9-3.6 1.5-.2 2.5-1.5 2.3-3-.2-1.5-1.5-2.6-3-2.4-.3 0-7.3.9-10.2 6.6-1.6-.4-3.4-.5-5.5 0-4.8 1.3-6.5 4.6-7.9 7.2-1.3 2.5-2.1 3.9-4.5 4.5-.5.1-.9.2-1.3.2.8 1.3 1.4 2.6 1.8 4 .1.4.1.7.2 1.1.2 0 .5-.1.7-.1 4.8-1.3 6.5-4.6 7.9-7.2 1.3-2.5 2.1-3.9 4.5-4.5 2.4-.6 3.7.1 6.1 1.6 2.5 1.6 5.7 3.6 10.4 2.3 1.6-.3 2.4-1.7 2-3.2zM48.3 31.1c-.8-1.9-2.1-3.8-4.6-5.3-4.2-2.5-7.8-1.4-10.6-.6-2.7.8-4.2 1.2-6.4 0-2.1-1.2-2.5-2.7-3.1-5.5-.6-2.9-1.4-6.5-5.7-9-1.3-.8-2.9-.3-3.7 1-.8 1.3-.3 2.9 1 3.7 2.1 1.2 2.5 2.7 3.1 5.5-3.2.9-6.6-1.7-6.7-1.7-1.2-.9-2.9-.7-3.8.4-.9 1.2-.7 2.9.4 3.8.2.2 4 3.1 8.7 3.1 1 0 2.1-.1 3.1-.5.8 1.4 2 2.8 3.9 3.9 4.2 2.5 7.8 1.4 10.6.6 2.7-.8 4.2-1.2 6.4 0 2.1 1.2 2.5 2.7 3.1 5.5v.1c1.2-1.9 2.6-3.6 4.3-5z" class="st0"/><path d="M305 35.4c-6.5-10.3-25.9-14.4-47.2-9.6-1.5-.9-3.2-1.5-5-1.5-1 0-1.9.1-2.9.4-2.5.8-4.5 2.4-5.6 4.7-.1.2-.2.4-.3.7-6.1 2.5-11.4 5.6-15.9 9-1.1.1-2.3.3-3.4.5-15.4 2.5-28.3 8.9-38.4 18.5C172.5 46 151 39.7 121.8 39.4c-2.5-2-5.3-3.9-8.5-5.6-.2-.9-.4-1.7-.9-2.5-1.2-2.3-3.2-4-5.6-4.7-.9-.3-1.9-.4-2.9-.4-1.9 0-3.6.6-5.1 1.5-1.2-.4-2.4-.8-3.7-1.1-19.4-5.2-37.6-3-46.8 4.5-1.8 1.4-3.2 3.1-4.2 4.9-.6 1.1-1.1 2.2-1.4 3.4C39 53.3 56.4 70 81.7 76.7l2.4.6c1.2 1.6 2.9 2.9 4.8 3.5.9.3 1.9.4 2.9.4 2.1 0 4.1-.7 5.7-1.9 10.2.7 19.3-.8 26-4 26.7.5 36.5 7.1 39.8 10.4 2.6 2.7 3 5.3 3 6.4l-.2 2.3c-1 15.1-3.7 16.4-18.8 16.4h-7.9c-26 0-47.2 21.2-47.2 47.2 0 26 21.2 47.2 47.2 47.2h119.9c6.2 0 11.3 5.1 11.3 11.3v1c0 6.2-5.1 11.3-11.3 11.3h-118c-39.5 0-71.6-32.1-71.6-71.6 0-9.9-8.1-18-18-18s-18 8.1-18 18c0 59.3 48.2 107.5 107.5 107.5h118c26 0 47.2-21.2 47.2-47.2v-1c0-26-21.2-47.2-47.2-47.2H139.4c-6.2 0-11.3-5.1-11.3-11.3s5.1-11.3 11.3-11.3h7.9c12.4 0 49.6 0 54.4-46.4 4.6-15.1 14.9-21.8 25.2-24.6 8.5 3.8 20.6 4.9 33.7 2.5 1.3.7 2.8 1 4.4 1 1 0 1.9-.1 2.9-.4 2.1-.6 3.8-1.9 5-3.7 21.9-7.3 36.6-22 34.2-34.7-.1-.4-.1-.7-.2-1.1-.5-1.3-1.1-2.7-1.9-3.9zm-201-5.2c.6 0 1.1.1 1.7.3 2.9.9 4.6 4 3.7 7-.3.8-.7 1.5-1.2 2.1-.5-1.3-2.1-2.7-4.2-3.3-2.1-.7-4.2-.5-5.4.3-.1-.8-.1-1.6.2-2.4.6-2.5 2.8-4 5.2-4zm-6.9 43.1c-.7 2.4-2.9 3.9-5.3 3.9-.6 0-1.1-.1-1.7-.3-2.9-.9-4.6-4-3.7-7 .2-.8.7-1.5 1.2-2 .5 1.4 2.1 2.7 4.2 3.4 2.2.7 4.2.5 5.4-.4.2.8.1 1.6-.1 2.4zm161.1-38.6c-1.2-.8-3.2-1-5.4-.3-2.1.7-3.7 2-4.2 3.3-.5-.6-1-1.3-1.2-2.1-.9-2.9.7-6.1 3.7-7 .6-.2 1.1-.3 1.7-.3 2.4 0 4.6 1.5 5.3 3.9.2.9.2 1.7.1 2.5zm8.4 40.4c-.6.2-1.1.3-1.7.3-2.4 0-4.6-1.5-5.3-3.9-.2-.8-.3-1.6-.2-2.3 1.2.8 3.3 1 5.4.4 2.2-.7 3.8-2 4.2-3.4.5.6.9 1.3 1.2 2 .9 2.8-.7 5.9-3.6 6.9z" class="st1"/><path fill="#9dc5f5" d="M252.7 28.3c-.6 0-1.1.1-1.7.3-2.9.9-4.6 4-3.7 7 .3.8.7 1.5 1.2 2.1.5-1.3 2.1-2.7 4.2-3.3 2.1-.7 4.2-.5 5.4.3.1-.8.1-1.6-.2-2.4-.6-2.4-2.8-4-5.2-4zM269.1 66c-.5 1.4-2.1 2.7-4.2 3.4-2.2.7-4.2.5-5.4-.4-.1.8 0 1.6.2 2.3.7 2.4 2.9 3.9 5.3 3.9.6 0 1.1-.1 1.7-.3 2.9-.9 4.6-4 3.7-7-.4-.6-.8-1.3-1.3-1.9zM98.5 36.6c1.2-.8 3.2-1 5.4-.3 2.1.7 3.7 2 4.2 3.3.5-.6 1-1.3 1.2-2.1.9-2.9-.7-6.1-3.7-7-.6-.2-1.1-.3-1.7-.3-2.4 0-4.6 1.5-5.3 3.9-.2.8-.3 1.7-.1 2.5zm-6.6 34.7c-2.2-.7-3.8-2-4.2-3.4-.5.6-.9 1.3-1.2 2-.9 2.9.7 6.1 3.7 7 .6.2 1.1.3 1.7.3 2.4 0 4.6-1.5 5.3-3.9.2-.8.3-1.6.2-2.3-1.3.8-3.4 1-5.5.3z"/></svg>