<svg xmlns="http://www.w3.org/2000/svg" role="img" viewBox="140.58 130.58 1425.84 1341.84"><title>Pravici LLC logo</title><defs><linearGradient id="a" x1="0" x2="1" y1="0" y2="0" gradientTransform="matrix(0 92.8585 92.8585 0 257.962 227.633)" gradientUnits="userSpaceOnUse" spreadMethod="pad"><stop offset="0" stop-color="#9ccccd"/><stop offset=".295" stop-color="#4c7f8e"/><stop offset=".49" stop-color="#4c7f8e"/><stop offset=".561" stop-color="#4c7f8e"/><stop offset="1" stop-color="#9ccccd"/></linearGradient><linearGradient id="b" x1="0" x2="1" y1="0" y2="0" gradientTransform="matrix(0 79.01755 79.01755 0 439.685 243.428)" gradientUnits="userSpaceOnUse" spreadMethod="pad"><stop offset="0" stop-color="#9ccccd"/><stop offset=".295" stop-color="#4c7f8e"/><stop offset=".49" stop-color="#4c7f8e"/><stop offset=".561" stop-color="#4c7f8e"/><stop offset="1" stop-color="#9ccccd"/></linearGradient><linearGradient id="c" x1="0" x2="1" y1="0" y2="0" gradientTransform="matrix(0 175.69141 175.69141 0 550.086 140.83)" gradientUnits="userSpaceOnUse" spreadMethod="pad"><stop offset="0" stop-color="#9ccccd"/><stop offset=".295" stop-color="#4c7f8e"/><stop offset=".49" stop-color="#4c7f8e"/><stop offset=".561" stop-color="#4c7f8e"/><stop offset="1" stop-color="#9ccccd"/></linearGradient><linearGradient id="d" x1="0" x2="1" y1="0" y2="0" gradientTransform="matrix(0 185.43782 185.43782 0 762.06 162.976)" gradientUnits="userSpaceOnUse" spreadMethod="pad"><stop offset="0" stop-color="#9ccccd"/><stop offset=".602" stop-color="#4c7f8e"/><stop offset="1" stop-color="#4c7f8e"/></linearGradient><linearGradient id="e" x1="0" x2="1" y1="0" y2="0" gradientTransform="matrix(0 170.25812 170.25812 0 874.049 151.412)" gradientUnits="userSpaceOnUse" spreadMethod="pad"><stop offset="0" stop-color="#9ccccd"/><stop offset=".602" stop-color="#4c7f8e"/><stop offset="1" stop-color="#4c7f8e"/></linearGradient><linearGradient id="f" x1="0" x2="1" y1="0" y2="0" gradientTransform="rotate(90 497.766 649.702) scale(169.19318)" gradientUnits="userSpaceOnUse" spreadMethod="pad"><stop offset="0" stop-color="#9ccccd"/><stop offset=".602" stop-color="#4c7f8e"/><stop offset="1" stop-color="#4c7f8e"/></linearGradient><linearGradient id="g" x1="0" x2="1" y1="0" y2="0" gradientTransform="matrix(0 165.46729 165.46729 0 994.613 164.61)" gradientUnits="userSpaceOnUse" spreadMethod="pad"><stop offset="0" stop-color="#4c7f8e"/><stop offset=".505" stop-color="#9ccccd"/><stop offset=".585" stop-color="#9ccccd"/><stop offset="1" stop-color="#9ccccd"/></linearGradient><linearGradient id="h" x1="0" x2="1" y1="0" y2="0" gradientTransform="matrix(126.86781 0 0 -126.86781 936.167 249.122)" gradientUnits="userSpaceOnUse" spreadMethod="pad"><stop offset="0" stop-color="#324b79"/><stop offset=".578" stop-color="#324b79"/><stop offset=".604" stop-color="#3f6e81"/><stop offset="1" stop-color="#3f6e81"/></linearGradient><linearGradient id="j" x1="0" x2="1" y1="0" y2="0" gradientTransform="translate(-31.164 1254.199) scale(159.625)" gradientUnits="userSpaceOnUse" spreadMethod="pad"><stop offset="0" stop-color="#324b79"/><stop offset=".251" stop-color="#324b79"/><stop offset=".816" stop-color="#3f6e81"/><stop offset="1" stop-color="#3f6e81"/></linearGradient><linearGradient id="k" x1="0" x2="1" y1="0" y2="0" gradientTransform="scale(-217.62008 217.62008) rotate(87.663 -.852 -.22)" gradientUnits="userSpaceOnUse" spreadMethod="pad"><stop offset="0" stop-color="#324b79"/><stop offset=".334" stop-color="#324b79"/><stop offset=".604" stop-color="#3f6e81"/><stop offset="1" stop-color="#3f6e81"/></linearGradient><linearGradient id="m" x1="0" x2="1" y1="0" y2="0" gradientTransform="translate(-134.54 1285.99) scale(172.007)" gradientUnits="userSpaceOnUse" spreadMethod="pad"><stop offset="0" stop-color="#3f6e81"/><stop offset=".272" stop-color="#324b79"/><stop offset=".764" stop-color="#3f6e81"/><stop offset="1" stop-color="#3f6e81"/></linearGradient><linearGradient id="n" x1="0" x2="1" y1="0" y2="0" gradientTransform="matrix(116.54185 0 0 -116.54185 675.21 240.677)" gradientUnits="userSpaceOnUse" spreadMethod="pad"><stop offset="0" stop-color="#324b79"/><stop offset=".578" stop-color="#324b79"/><stop offset=".604" stop-color="#3f6e81"/><stop offset="1" stop-color="#3f6e81"/></linearGradient><linearGradient id="p" x1="0" x2="1" y1="0" y2="0" gradientTransform="translate(-120.987 1278.489) scale(135.234)" gradientUnits="userSpaceOnUse" spreadMethod="pad"><stop offset="0" stop-color="#324b79"/><stop offset=".251" stop-color="#324b79"/><stop offset=".816" stop-color="#3f6e81"/><stop offset="1" stop-color="#3f6e81"/></linearGradient><linearGradient id="q" x1="0" x2="1" y1="0" y2="0" gradientTransform="matrix(138.45708 0 0 -138.45708 330.059 250.785)" gradientUnits="userSpaceOnUse" spreadMethod="pad"><stop offset="0" stop-color="#324b79"/><stop offset=".578" stop-color="#324b79"/><stop offset=".604" stop-color="#3f6e81"/><stop offset="1" stop-color="#3f6e81"/></linearGradient><linearGradient id="s" x1="0" x2="1" y1="0" y2="0" gradientTransform="translate(-56.428 1204.576) scale(170.494)" gradientUnits="userSpaceOnUse" spreadMethod="pad"><stop offset="0" stop-color="#324b79"/><stop offset=".251" stop-color="#324b79"/><stop offset=".816" stop-color="#3f6e81"/><stop offset="1" stop-color="#3f6e81"/></linearGradient><linearGradient id="t" x1="0" x2="1" y1="0" y2="0" gradientTransform="matrix(13.50095 0 0 -13.50095 853.156 248.33)" gradientUnits="userSpaceOnUse" spreadMethod="pad"><stop offset="0" stop-color="#324b79"/><stop offset=".578" stop-color="#324b79"/><stop offset=".604" stop-color="#3f6e81"/><stop offset="1" stop-color="#3f6e81"/></linearGradient><linearGradient id="v" x1="0" x2="1" y1="0" y2="0" gradientTransform="translate(-22.287 1271.743) scale(31.084)" gradientUnits="userSpaceOnUse" spreadMethod="pad"><stop offset="0" stop-color="#324b79"/><stop offset=".251" stop-color="#324b79"/><stop offset=".816" stop-color="#3f6e81"/><stop offset="1" stop-color="#3f6e81"/></linearGradient><linearGradient id="w" x1="0" x2="1" y1="0" y2="0" gradientTransform="matrix(13.50095 0 0 -13.50095 1125.968 248.33)" gradientUnits="userSpaceOnUse" spreadMethod="pad"><stop offset="0" stop-color="#324b79"/><stop offset=".578" stop-color="#324b79"/><stop offset=".604" stop-color="#3f6e81"/><stop offset="1" stop-color="#3f6e81"/></linearGradient><linearGradient id="y" x1="0" x2="1" y1="0" y2="0" gradientTransform="translate(-22.29 1271.743) scale(31.084)" gradientUnits="userSpaceOnUse" spreadMethod="pad"><stop offset="0" stop-color="#324b79"/><stop offset=".251" stop-color="#324b79"/><stop offset=".816" stop-color="#3f6e81"/><stop offset="1" stop-color="#3f6e81"/></linearGradient><linearGradient id="z" x1="0" x2="1" y1="0" y2="0" gradientTransform="matrix(122.27715 0 0 -122.27715 515.211 252.063)" gradientUnits="userSpaceOnUse" spreadMethod="pad"><stop offset="0" stop-color="#324b79"/><stop offset=".578" stop-color="#324b79"/><stop offset=".604" stop-color="#3f6e81"/><stop offset="1" stop-color="#3f6e81"/></linearGradient><linearGradient id="B" x1="0" x2="1" y1="0" y2="0" gradientTransform="translate(-102.651 1184) scale(140.649)" gradientUnits="userSpaceOnUse" spreadMethod="pad"><stop offset="0" stop-color="#324b79"/><stop offset=".251" stop-color="#324b79"/><stop offset=".816" stop-color="#3f6e81"/><stop offset="1" stop-color="#3f6e81"/></linearGradient><linearGradient id="C" x1="0" x2="1" y1="0" y2="0" gradientTransform="matrix(614.03363 0 0 -614.03363 329.678 760.594)" gradientUnits="userSpaceOnUse" spreadMethod="pad"><stop offset="0" stop-color="#ddeff0"/><stop offset=".163" stop-color="#ddeff0"/><stop offset=".645" stop-color="#ddf0f0"/><stop offset=".899" stop-color="#ddf0f0"/><stop offset=".997" stop-color="#ddf0f0"/><stop offset="1" stop-color="#ddf0f0"/></linearGradient><linearGradient id="E" x1="0" x2="1" y1="0" y2="0" gradientTransform="scale(537.21326 -537.21326) rotate(58.954 2.1 -.11)" gradientUnits="userSpaceOnUse" spreadMethod="pad"><stop offset="0" stop-color="#a9d9e0"/><stop offset=".975" stop-color="#c0e6e0"/><stop offset="1" stop-color="#c0e6e0"/></linearGradient><linearGradient id="H" x1="0" x2="1" y1="0" y2="0" gradientTransform="scale(514.56408 -514.56408) rotate(45 2.653 .151)" gradientUnits="userSpaceOnUse" spreadMethod="pad"><stop offset="0" stop-color="#bed8ec"/><stop offset=".079" stop-color="#bed8ec"/><stop offset=".194" stop-color="#b7d0e3"/><stop offset=".322" stop-color="#b7d0e3"/><stop offset=".51" stop-color="#cadee3"/><stop offset=".668" stop-color="#cadee3"/><stop offset=".899" stop-color="#e2e5e6"/><stop offset=".94" stop-color="#e2e5e6"/><stop offset="1" stop-color="#e2e5e6"/></linearGradient><linearGradient id="L" x1="0" x2="1" y1="0" y2="0" gradientTransform="matrix(68.93633 0 0 -68.93633 530.405 840.06)" gradientUnits="userSpaceOnUse" spreadMethod="pad"><stop offset="0" stop-color="#51869d"/><stop offset=".137" stop-color="#51869d"/><stop offset=".487" stop-color="#51869d"/><stop offset="1" stop-color="#3a617b"/></linearGradient><linearGradient id="M" x1="0" x2="1" y1="0" y2="0" gradientTransform="matrix(68.93633 0 0 -68.93633 530.405 653.508)" gradientUnits="userSpaceOnUse" spreadMethod="pad"><stop offset="0" stop-color="#559dc7"/><stop offset=".405" stop-color="#559dc7"/><stop offset="1" stop-color="#53747e"/></linearGradient><linearGradient id="O" x1="0" x2="1" y1="0" y2="0" gradientTransform="matrix(68.93626 0 0 -68.93626 530.405 568.38)" gradientUnits="userSpaceOnUse" spreadMethod="pad"><stop offset="0" stop-color="#559dc7"/><stop offset=".405" stop-color="#559dc7"/><stop offset="1" stop-color="#53747e"/></linearGradient><linearGradient id="P" x1="0" x2="1" y1="0" y2="0" gradientTransform="matrix(44.40552 0 0 -44.40552 602.92 576.696)" gradientUnits="userSpaceOnUse" spreadMethod="pad"><stop offset="0" stop-color="#60a4b8"/><stop offset=".405" stop-color="#60a4b8"/><stop offset="1" stop-color="#5a8e9d"/></linearGradient><clipPath id="i" clipPathUnits="userSpaceOnUse"><path d="M 0,1203.142 H 1281.266 V 0 H 0 Z"/></clipPath><clipPath id="l" clipPathUnits="userSpaceOnUse"><path d="M 0,1203.142 H 1281.266 V 0 H 0 Z"/></clipPath><clipPath id="o" clipPathUnits="userSpaceOnUse"><path d="M 0,1203.142 H 1281.266 V 0 H 0 Z"/></clipPath><clipPath id="r" clipPathUnits="userSpaceOnUse"><path d="M 0,1203.142 H 1281.266 V 0 H 0 Z"/></clipPath><clipPath id="u" clipPathUnits="userSpaceOnUse"><path d="M 0,1203.142 H 1281.266 V 0 H 0 Z"/></clipPath><clipPath id="x" clipPathUnits="userSpaceOnUse"><path d="M 0,1203.142 H 1281.266 V 0 H 0 Z"/></clipPath><clipPath id="A" clipPathUnits="userSpaceOnUse"><path d="M 0,1203.142 H 1281.266 V 0 H 0 Z"/></clipPath><clipPath id="F" clipPathUnits="userSpaceOnUse"><path d="M 0,1203.142 H 1281.266 V 0 H 0 Z"/></clipPath><clipPath id="G" clipPathUnits="userSpaceOnUse"><path d="M 374.42,1022.87 H 898.969 V 498.319 H 374.42 Z"/></clipPath><clipPath id="I" clipPathUnits="userSpaceOnUse"><path d="M 0,1203.142 H 1281.266 V 0 H 0 Z"/></clipPath><clipPath id="N" clipPathUnits="userSpaceOnUse"><path d="M 0,1203.142 H 1281.266 V 0 H 0 Z"/></clipPath><clipPath id="Q" clipPathUnits="userSpaceOnUse"><path d="M 652.886,891.334 V 748.993 c 0,-1.974 3.404,-4.486 6.115,-1.566 v 0 c 0,0 62.542,66.503 98.602,120.347 v 0 c 1.035,2.142 1.049,3.696 -1.776,6.129 v 0 c -16.167,10.772 -59.301,26.753 -88.362,28.094 v 0 c -10.132,0 -14.579,-3.091 -14.579,-10.663"/></clipPath><clipPath id="R" clipPathUnits="userSpaceOnUse"><path d="M 0,1203.142 H 1281.266 V 0 H 0 Z"/></clipPath><radialGradient id="D" cx="0" cy="0" r="1" fx="0" fy="0" gradientTransform="scale(559.68616 -559.68616) rotate(56.31 2.084 -.098)" gradientUnits="userSpaceOnUse" spreadMethod="pad"><stop offset="0" stop-color="#ddedf0"/><stop offset=".049" stop-color="#ddedf0"/><stop offset=".127" stop-color="#ddedf0"/><stop offset=".241" stop-color="#b3d2e5"/><stop offset=".504" stop-color="#b3d2e5"/><stop offset=".891" stop-color="#dbeded"/><stop offset=".935" stop-color="#dbeded"/><stop offset="1" stop-color="#dbeded"/></radialGradient><radialGradient id="J" cx="0" cy="0" r="1" fx="0" fy="0" gradientTransform="scale(-258.0879 258.0879) rotate(60.809 -3.885 -1)" gradientUnits="userSpaceOnUse" spreadMethod="pad"><stop offset="0" stop-color="#92c5cb"/><stop offset=".77" stop-color="#357191"/><stop offset="1" stop-color="#357191"/></radialGradient><radialGradient id="K" cx="0" cy="0" r="1" fx="0" fy="0" gradientTransform="scale(-271.28388 271.28388) rotate(60.809 -3.727 -.955)" gradientUnits="userSpaceOnUse" spreadMethod="pad"><stop offset="0" stop-color="#92c5cb"/><stop offset=".77" stop-color="#357191"/><stop offset="1" stop-color="#357191"/></radialGradient></defs><g><g><g><g><g><path fill="url(#a)" d="m 258.162,273.773 c -0.254,-10.265 -3.611,-18.457 -9.299,-26.972 v 0 c -4.318,-6.465 -12.896,-12.025 -15.824,-19.166 v 0 c 7.662,-0.095 19.687,3.501 26.465,6.865 v 0 c 11.433,5.674 18.816,20.89 22.034,32.741 v 0 c 2.936,10.813 0.9,22.376 -4.43,32.261 v 0 c -6.443,11.947 -16.194,16.374 -28.426,20.434 v 0 l -6.672,0.555 c 10.084,-14.442 16.607,-28.314 16.152,-46.718" transform="matrix(1.33333 0 0 -1.33333 0 1604.187)"/></g></g></g></g><g><g><g><g><path fill="url(#b)" d="m 429.917,320.491 -8.339,0.556 c 10.925,-8.191 18.072,-18.193 19.162,-32.568 v 0 c 1.237,-16.335 -9.64,-35.609 -22.306,-45.039 v 0 c 19.255,-0.584 42.453,20.271 42.502,39.913 v 0 c 0.022,8.969 -2.991,18.773 -7.94,26.216 v 0 c -2.287,3.441 -13.437,12.876 -19.619,12.877 v 0 c -1.525,0 -2.747,-0.575 -3.46,-1.955" transform="matrix(1.33333 0 0 -1.33333 0 1604.187)"/></g></g></g></g><g><g><g><g><path fill="url(#c)" d="m 557.346,279.76 c -8.512,-20.201 -18.695,-40.921 -23.957,-62.279 v 0 c 0.045,0.95 0.089,1.899 0.134,2.847 v 0 l -13.899,-79.499 c 14.123,23.55 26.964,47.687 35.94,73.682 v 0 c 9.018,26.12 15.21,53.097 21.151,80.047 v 0 c 1.295,5.872 6.657,16.499 1.901,21.963 v 0 c -8.872,-10.696 -15.867,-23.937 -21.27,-36.761" transform="matrix(1.33333 0 0 -1.33333 0 1604.187)"/></g></g></g></g><g><g><g><g><path fill="url(#d)" d="m 778.263,337.573 c -3.272,-5.683 -6.409,-11.444 -9.406,-17.277 v 0 c -5.995,-11.667 -11.434,-23.618 -16.298,-35.8 v 0 c -9.725,-24.363 -17.147,-49.648 -22.096,-75.411 v 0 c -1.069,-5.566 -2.145,-11.114 -2.488,-16.757 v 0 c -0.458,-7.562 -0.065,-24.115 6.614,-29.352 v 0 c 4.57,2.719 6.01,13.038 7.294,17.112 v 0 c 2.248,7.123 4.994,14.069 7.344,21.157 v 0 c 5.793,17.482 11.753,34.679 18.142,51.956 v 0 c 5.249,14.189 10.84,28.238 15.652,42.585 v 0 c 1.46,4.359 2.598,12.525 5.029,16.566 v 0 c 0.991,1.648 7.875,6.168 8.23,6.471 v 0 l -10.35,29.59 c -2.596,-3.061 -5.069,-6.33 -7.667,-10.84" transform="matrix(1.33333 0 0 -1.33333 0 1604.187)"/></g></g></g></g><g><g><g><g><path fill="url(#e)" d="m 866.771,254.801 c 2.222,-34.567 2.881,-69.065 6.421,-103.389 v 0 c 5.928,18.857 7.031,41.196 7.711,61.584 v 0 c 0.645,19.361 0.47,38.822 0.018,58.196 v 0 c -0.241,10.312 -0.9,20.209 -2.694,30.222 v 0 c -0.909,5.081 -1.638,17.724 -5.304,20.256 v 0 z" transform="matrix(1.33333 0 0 -1.33333 0 1604.187)"/></g></g></g></g><g><g><g><g><path fill="url(#f)" d="m 1140.106,254.686 c 2.221,-34.351 2.88,-68.633 6.419,-102.742 v 0 c 5.93,18.741 7.033,40.939 7.712,61.199 v 0 c 0.646,19.24 0.471,38.58 0.018,57.833 v 0 c -0.241,10.247 -0.901,20.081 -2.692,30.032 v 0 c -0.91,5.05 -1.639,17.614 -5.305,20.13 v 0 z" transform="matrix(1.33333 0 0 -1.33333 0 1604.187)"/></g></g></g></g><g><g><g><g><path fill="url(#g)" d="M 975.041,320.248 C 953.28,304.764 936.542,277.37 936.802,251.033 v 0 c 0.197,-20.01 9.672,-44.719 22.562,-60.313 v 0 c 10.813,-13.084 30.127,-28.319 48.291,-25.843 v 0 c 0.06,1.177 -0.587,2.033 -1.942,2.566 v 0 l 46.713,18.081 c -26.871,-3.135 -55.186,-8.642 -74.677,15.298 v 0 c -8.295,10.188 -12.382,23.22 -14.313,36.215 v 0 c -2.798,18.817 -1.238,38.818 7.878,55.516 v 0 c 5.285,9.679 13.313,17.973 22.969,23.334 v 0 c 4.765,2.646 9.941,4.575 15.314,5.522 v 0 c 4.635,0.817 11.392,-0.005 15.496,2.568 v 0 c -3.211,4.428 -9.294,6.1 -16.228,6.1 v 0 c -12.399,10e-4 -27.521,-5.344 -33.824,-9.829" transform="matrix(1.33333 0 0 -1.33333 0 1604.187)"/></g></g></g></g><g><g><g><g><path fill="url(#h)" d="m 993.218,338.913 c -16.268,-4.034 -29.983,-11.44 -39.532,-25.825 v 0 c -2.409,-4.885 -5.152,-9.635 -7.171,-14.676 v 0 c -14.402,-35.952 -14.518,-71.955 4.384,-105.957 v 0 c 23.66,-42.558 83.639,-46.333 112.136,-6.516 v 0 c -7.114,-2.673 -18.76,-6.561 -18.76,-6.561 v 0 c -0.677,-0.627 -1.356,-1.254 -2.035,-1.882 v 0 c -23.894,-16.256 -58.744,-11.331 -76.725,10.845 v 0 c -22.489,27.732 -25.733,79.791 -6.97,111.84 v 0 c 11.093,22.32 36.838,34.577 60.799,29.577 v 0 c -0.074,-0.066 20.327,1.212 20.327,1.212 v 0 c 0,0 -17.666,9.088 -35.936,9.087 v 0 c -3.524,0 -7.07,-0.338 -10.517,-1.144" transform="matrix(1.33333 0 0 -1.33333 0 1604.187)"/></g></g></g></g><g><g clip-path="url(#i)" transform="matrix(1.33333 0 0 -1.33333 0 1604.187)"><g><path fill="none" stroke="url(#j)" stroke-miterlimit="10" stroke-width="17.572" d="m 0,0 c -18.763,-32.049 -15.519,-84.107 6.97,-111.84 17.981,-22.176 52.832,-27.101 76.725,-10.845 0.679,0.628 1.358,1.255 2.035,1.882 0,0 11.647,3.888 18.76,6.562 -28.497,-39.818 -88.476,-36.043 -112.136,6.515 -18.902,34.002 -18.786,70.005 -4.384,105.957 2.019,5.041 4.762,9.791 7.171,14.676 9.549,14.385 23.264,21.791 39.533,25.825 21.314,4.988 46.452,-7.942 46.452,-7.942 0,0 -20.401,-1.279 -20.327,-1.213 C 36.838,34.577 11.093,22.32 0,0 Z" transform="translate(958.545 300.18)"/></g></g></g><g><g><g><g><path fill="url(#k)" d="m 147.858,339.753 8.578,-8.405 c 0,0 1.952,0.068 3.324,0.065 v 0 c 13.165,-0.025 9.414,-0.191 9.409,-13.427 v 0 c -0.009,-28.872 0.02,-57.745 -0.044,-86.617 v 0 c -0.058,-26.089 -0.218,-52.177 -0.335,-78.267 v 0 c 3.331,-3.778 9.993,-11.332 9.993,-11.332 v 0 c 0,0 0.737,52.417 0.086,62.903 v 0 c -0.49,7.871 2.404,9.604 9.87,9.614 v 0 c 17.677,0.022 35.353,1.131 53.029,1.8 v 0 c 31.909,8.522 47.172,34.313 48.014,57.856 v 0 c 1.277,35.796 -24.836,64.291 -60.837,65.733 v 0 c -7.38,0.295 -19.743,0.39 -32.622,0.39 v 0 c -23.384,0 -48.465,-0.313 -48.465,-0.313 m 54.062,-9.266 c 15.56,0.423 31.07,0.845 46.122,-5.321 v 0 c 4.728,-1.937 8.754,-5.587 13.103,-8.447 v 0 c 16.582,-14.263 22.061,-32.477 16.631,-53.15 v 0 c -5.757,-21.92 -20.969,-35.56 -43.308,-38.434 v 0 c -17.237,-2.218 -53.554,-0.824 -54.158,-0.365 v 0 105.786 c 3.26,-0.209 6.526,-0.282 9.796,-0.282 v 0 c 3.937,0 7.877,0.106 11.814,0.213" transform="matrix(1.33333 0 0 -1.33333 0 1604.187)"/></g></g></g></g><g><g clip-path="url(#l)" transform="matrix(1.33333 0 0 -1.33333 0 1604.187)"><g><path fill="none" stroke="url(#m)" stroke-miterlimit="10" stroke-width="17.572" d="m 0,0 c -4.349,2.86 -8.375,6.51 -13.104,8.447 -22.021,9.023 -45.026,3.94 -67.731,5.39 V -91.949 c 0.605,-0.459 36.921,-1.854 54.158,0.365 22.339,2.874 37.551,16.515 43.308,38.435 C 22.061,-32.478 16.582,-14.263 0,0 Z m -92.354,-163.617 c 0.115,26.09 0.276,52.179 0.334,78.267 0.064,28.872 0.035,57.746 0.044,86.618 0.005,13.235 3.756,13.401 -9.409,13.426 -1.371,0.003 -3.323,-0.064 -3.323,-0.064 l -8.579,8.404 c 0,0 60.309,0.754 81.087,-0.077 36,-1.441 62.115,-29.937 60.837,-65.733 -0.841,-23.543 -16.104,-49.333 -48.014,-57.856 -17.676,-0.669 -35.352,-1.778 -53.029,-1.8 -7.465,-0.009 -10.36,-1.743 -9.87,-9.614 0.651,-10.486 -0.086,-62.903 -0.086,-62.903 0,0 -6.661,7.554 -9.992,11.332 z" transform="translate(261.145 316.719)"/></g></g></g><g><g><g><g><path fill="url(#n)" d="m 675.209,312.13 c 0,0 34.245,-98.145 51.399,-147.207 v 0 c 1.206,-3.45 3.134,-10.412 6.567,-10.452 v 0 c 4.033,1.826 4.382,4.545 5.162,6.997 v 0 c 0.793,2.93 53.414,153.807 53.414,153.807 v 0 l -4.778,10.284 c 0,0 -35.852,-96.971 -53.678,-148.84 v 0 c -3.939,11.41 -7.1,20.443 -10.177,29.503 v 0 c -13.881,40.86 -43.595,120.662 -43.595,120.662 v 0 z" transform="matrix(1.33333 0 0 -1.33333 0 1604.187)"/></g></g></g></g><g><g clip-path="url(#o)" transform="matrix(1.33333 0 0 -1.33333 0 1604.187)"><g><path fill="none" stroke="url(#p)" stroke-miterlimit="10" stroke-width="17.572" d="m 0,0 4.778,-10.283 c 0,0 -52.62,-150.877 -53.413,-153.808 -0.78,-2.452 -1.13,-5.171 -5.163,-6.997 -3.433,0.04 -5.361,7.002 -6.567,10.452 -17.154,49.062 -51.399,147.207 -51.399,147.207 l 4.315,14.754 c 0,0 29.714,-79.802 43.594,-120.661 3.077,-9.06 6.239,-18.094 10.177,-29.503 C -35.852,-96.971 0,0 0,0 Z" transform="translate(786.973 325.559)"/></g></g></g><g><g><g><g><path fill="url(#q)" d="m 330.059,339.682 10.038,-8.775 h 10.402 V 164.398 l 10.107,15.376 c 0,0 0.041,28.834 0.152,43.255 v 0 9.315 c 9.217,0 17.49,0.035 25.762,-0.007 v 0 c 25.64,-0.128 36.389,-7.589 45.379,-31.764 v 0 c 4.777,-12.849 9.286,-25.798 13.917,-38.702 v 0 c 2.037,7.432 5.348,15.637 3.148,21.907 v 0 c -5.169,14.74 -12.971,28.556 -19.707,42.745 v 0 c -2.546,2.399 -5.092,4.798 -7.28,6.859 v 0 c 8.2,4.014 16.378,7.008 23.458,11.669 v 0 c 22.334,14.702 29.454,42.011 16.965,64.077 v 0 c -9.353,16.524 -24.283,27.198 -42.566,28.619 v 0 c -22.528,1.752 -63.715,1.952 -81.372,1.952 v 0 c -5.234,0 -8.403,-0.017 -8.403,-0.017 m 33.176,-97.642 c -0.96,1.657 -2.747,3.309 -2.757,4.972 v 0 c -0.174,27.404 -0.123,54.811 -0.123,82.774 v 0 c 17.15,0 33.891,0.522 50.581,-0.157 v 0 c 14.534,-0.591 26.148,-8.32 36.549,-17.946 v 0 c 15.446,-16.371 13.886,-40.296 -3.551,-55.152 v 0 c -11.749,-10.008 -25.78,-14.047 -40.743,-14.648 v 0 c -4.025,-0.162 -8.054,-0.22 -12.085,-0.22 v 0 c -9.285,0 -18.583,0.31 -27.871,0.377" transform="matrix(1.33333 0 0 -1.33333 0 1604.187)"/></g></g></g></g><g><g clip-path="url(#r)" transform="matrix(1.33333 0 0 -1.33333 0 1604.187)"><g><path fill="none" stroke="url(#s)" stroke-miterlimit="10" stroke-width="17.572" d="M 0,0 C 13.321,-0.097 26.661,-0.692 39.957,-0.157 54.919,0.444 68.95,4.482 80.699,14.491 98.136,29.347 99.696,53.272 84.251,69.643 73.849,79.269 62.235,86.998 47.702,87.589 31.011,88.268 14.271,87.746 -2.88,87.746 -2.88,59.783 -2.93,32.376 -2.757,4.972 -2.747,3.309 -0.96,1.657 0,0 Z m 66.022,-15.518 c 6.737,-14.188 14.539,-28.004 19.707,-42.744 2.2,-6.27 -1.111,-14.474 -3.148,-21.907 -4.63,12.903 -9.139,25.853 -13.917,38.702 -8.99,24.175 -19.739,31.636 -45.379,31.764 -8.272,0.042 -16.545,0.007 -25.762,0.007 v -9.315 c -0.11,-14.421 -0.152,-43.255 -0.152,-43.255 L -12.736,-77.643 V 88.866 h -10.401 l -10.039,8.776 c 0,0 60.57,0.337 89.775,-1.935 C 74.883,94.285 89.813,83.612 99.166,67.088 111.655,45.022 104.534,17.713 82.2,3.011 75.12,-1.65 66.942,-4.645 58.742,-8.658 c 2.188,-2.062 4.734,-4.46 7.28,-6.86 z" transform="translate(363.235 242.04)"/></g></g></g><g><g><g><g><path fill="url(#t)" d="m 853.156,176.341 13.045,-10.296 0.456,151.96 -13.501,12.61 z" transform="matrix(1.33333 0 0 -1.33333 0 1604.187)"/></g></g></g></g><g><g clip-path="url(#u)" transform="matrix(1.33333 0 0 -1.33333 0 1604.187)"><g><path fill="none" stroke="url(#v)" stroke-miterlimit="10" stroke-width="17.572" d="m 0,0 -0.457,-151.96 -13.044,10.296 V 12.61 Z" transform="translate(866.657 318.005)"/></g></g></g><g><g><g><g><path fill="url(#w)" d="m 1125.968,176.341 13.045,-10.296 0.456,151.96 -13.501,12.61 z" transform="matrix(1.33333 0 0 -1.33333 0 1604.187)"/></g></g></g></g><g><g clip-path="url(#x)" transform="matrix(1.33333 0 0 -1.33333 0 1604.187)"><g><path fill="none" stroke="url(#y)" stroke-miterlimit="10" stroke-width="17.572" d="m 0,0 -0.457,-151.96 -13.044,10.296 V 12.61 Z" transform="translate(1139.47 318.005)"/></g></g></g><g><g><g><g><path fill="url(#z)" d="M 570.86,333.37 C 552.095,282.225 515.211,179.698 515.211,179.698 v 0 l 4.902,-15.986 c 0,0 10.718,29.014 15.734,43.638 v 0 c 1.58,4.605 3.78,6.592 8.87,6.533 v 0 c 21.616,-0.253 43.239,-0.25 64.857,-0.01 v 0 c 5.008,0.056 7.434,-1.747 8.967,-6.4 v 0 c 3.809,-11.555 15.192,-39.607 15.192,-39.607 v 0 l 3.755,17.222 c 0,0 -34.711,98.744 -52.254,148.049 v 0 c -1.014,2.85 -2.944,7.277 -6.62,7.277 v 0 c -4.724,0 -6.687,-4.139 -7.754,-7.044 m -6.184,-46.682 c 3.865,11.133 7.73,22.265 12.415,35.757 v 0 c 4.341,-11.93 7.829,-21.38 11.222,-30.863 v 0 c 7.37,-20.598 14.76,-41.19 21.917,-61.862 v 0 c 0.639,-1.848 4.891,-5.748 -1.625,-6.129 v 0 h -66.812 c 7.733,21.323 15.308,42.21 22.883,63.097" transform="matrix(1.33333 0 0 -1.33333 0 1604.187)"/></g></g></g></g><g><g clip-path="url(#A)" transform="matrix(1.33333 0 0 -1.33333 0 1604.187)"><g><path fill="none" stroke="url(#B)" stroke-miterlimit="10" stroke-width="17.572" d="M 0,0 C 6.516,0.38 2.264,4.28 1.625,6.128 -5.532,26.8 -12.922,47.392 -20.292,67.99 -23.685,77.474 -27.173,86.924 -31.514,98.853 -36.199,85.361 -40.064,74.229 -43.929,63.096 -51.504,42.209 -59.079,21.322 -66.812,0 Z m -29.992,116.822 c 3.678,0 5.607,-4.426 6.621,-7.277 C -5.828,60.24 28.883,-38.504 28.883,-38.504 l -3.755,-17.222 c 0,0 -11.383,28.052 -15.192,39.607 -1.534,4.652 -3.958,6.456 -8.968,6.4 -21.617,-0.24 -43.239,-0.243 -64.856,0.01 -5.09,0.059 -7.29,-1.928 -8.87,-6.533 -5.016,-14.624 -15.734,-43.638 -15.734,-43.638 l -4.902,15.985 c 0,0 36.884,102.528 55.649,153.673 1.066,2.906 3.03,7.044 7.753,7.044 z" transform="translate(608.605 223.592)"/></g><g><path fill="#fff" d="m 0,0 c -18.763,-32.049 -15.519,-84.107 6.97,-111.84 17.981,-22.176 52.832,-27.101 76.725,-10.844 0.679,0.627 1.358,1.254 2.035,1.881 0,0 11.647,3.888 18.76,6.562 -28.497,-39.817 -88.476,-36.043 -112.136,6.515 -18.902,34.003 -18.786,70.006 -4.384,105.958 2.019,5.04 4.762,9.791 7.171,14.676 9.549,14.384 23.264,21.79 39.533,25.825 21.314,4.987 46.452,-7.943 46.452,-7.943 0,0 -20.401,-1.279 -20.327,-1.213 C 36.838,34.577 11.093,22.32 0,0" transform="translate(958.545 300.018)"/></g><g><path fill="#fff" d="m 0,0 c -4.349,2.86 -8.375,6.509 -13.104,8.446 -22.021,9.024 -44.633,5.39 -67.731,5.39 V -91.95 c 0.605,-0.458 36.921,-1.853 54.158,0.365 22.339,2.874 37.551,16.515 43.308,38.436 C 22.061,-32.478 16.582,-14.264 0,0 m -92.354,-163.617 c 0.115,26.089 0.276,52.178 0.334,78.266 0.064,28.873 0.035,57.746 0.044,86.619 0.005,13.234 -0.165,13.425 -0.165,13.425 l -12.567,-0.064 -8.498,8.404 c 0,0 60.228,0.755 81.006,-0.077 36,-1.441 62.115,-29.937 60.837,-65.732 -0.841,-23.543 -16.104,-49.334 -48.014,-57.856 -16.238,-1.632 -35.352,-1.778 -53.029,-1.801 -7.465,-0.009 -10.36,-1.743 -9.87,-9.614 0.651,-10.486 -0.086,-62.903 -0.086,-62.903 0,0 -6.661,7.555 -9.992,11.333" transform="translate(261.145 316.557)"/></g><g><path fill="#fff" d="m 0,0 6.021,-11.182 c 0,0 -52.621,-150.877 -53.414,-153.807 -0.78,-2.451 -1.129,-5.171 -5.163,-6.997 -3.433,0.041 -5.361,7.002 -6.567,10.452 -17.153,49.062 -51.398,147.208 -51.398,147.208 l 5.269,18.053 c 0,0 28.759,-83.102 42.639,-123.96 3.077,-9.062 6.239,-18.094 10.177,-29.503 C -34.609,-97.869 0,0 0,0" transform="translate(785.73 326.294)"/></g><g><path fill="#fff" d="M 0,0 C 13.321,-0.097 26.661,-0.691 39.957,-0.157 54.919,0.444 68.95,4.482 80.699,14.491 98.136,29.347 99.696,53.273 84.251,69.644 73.849,79.27 62.235,86.998 47.702,87.589 31.011,88.269 14.271,87.747 -2.88,87.747 -2.88,59.783 -2.93,32.377 -2.757,4.972 -2.747,3.309 -0.96,1.657 0,0 m 66.022,-15.517 c 6.737,-14.189 14.539,-28.005 19.707,-42.744 2.2,-6.271 -1.111,-14.474 -3.148,-21.908 -4.63,12.904 -9.139,25.854 -13.917,38.702 -8.99,24.175 -19.739,31.636 -45.379,31.765 -8.272,0.041 -16.545,0.006 -25.762,0.006 v -9.315 c -0.11,-14.421 -0.152,-43.255 -0.152,-43.255 L -12.736,-77.642 V 88.866 h -10.401 l -10.039,8.776 c 0,0 60.57,0.338 89.775,-1.935 C 74.883,94.285 89.813,83.612 99.166,67.089 111.655,45.023 104.534,17.713 82.2,3.011 75.12,-1.65 66.942,-4.645 58.742,-8.658 c 2.188,-2.062 4.734,-4.46 7.28,-6.859" transform="translate(363.235 241.877)"/></g><g><path fill="#fff" d="m 0,0 -0.457,-151.96 -13.044,10.295 V 12.609 Z" transform="translate(866.657 317.843)"/></g><g><path fill="#fff" d="m 0,0 -0.457,-151.96 -13.044,10.295 V 12.609 Z" transform="translate(1139.47 317.843)"/></g><g><path fill="#fff" d="M 0,0 C 6.516,0.381 2.264,4.28 1.625,6.128 -5.532,26.801 -12.922,47.393 -20.292,67.99 -23.685,77.475 -27.173,86.925 -31.514,98.853 -36.199,85.361 -40.064,74.229 -43.929,63.097 -51.504,42.21 -59.079,21.323 -66.812,0 Z m -29.992,116.822 c 3.678,0 5.607,-4.426 6.621,-7.276 17.543,-49.306 52.254,-148.05 52.254,-148.05 l -3.755,-17.221 c 0,0 -11.383,28.052 -15.192,39.606 -1.534,4.653 -3.958,6.456 -8.968,6.4 -21.617,-0.24 -43.239,-0.242 -64.856,0.01 -5.09,0.06 -7.29,-1.928 -8.87,-6.532 -5.016,-14.625 -15.734,-43.639 -15.734,-43.639 l -4.902,15.986 c 0,0 36.884,102.528 55.649,153.672 1.066,2.906 3.03,7.044 7.753,7.044" transform="translate(608.605 223.429)"/></g></g></g><g><g><g><g><path fill="url(#C)" d="M 419.601,977.687 C 299.704,857.79 299.704,663.397 419.601,543.5 v 0 c 119.898,-119.897 314.29,-119.897 434.187,0 v 0 c 119.898,119.897 119.898,314.29 0,434.187 v 0 c -59.949,59.949 -138.521,89.923 -217.093,89.923 v 0 c -78.573,0 -157.145,-29.974 -217.094,-89.923" transform="matrix(1.33333 0 0 -1.33333 0 1604.187)"/></g></g></g></g><g><g><g><g><path fill="url(#D)" d="M 433.101,964.187 C 320.659,851.746 320.659,669.442 433.101,557 v 0 c 112.441,-112.441 294.746,-112.441 407.187,0 v 0 c 112.441,112.442 112.441,294.746 0,407.187 v 0 c -56.221,56.221 -129.907,84.331 -203.593,84.331 v 0 c -73.687,0 -147.374,-28.11 -203.594,-84.331" transform="matrix(1.33333 0 0 -1.33333 0 1604.187)"/></g></g></g></g><g><g><g><g><path fill="url(#E)" d="M 445.864,951.425 C 340.47,846.031 340.47,675.156 445.864,569.762 v 0 c 105.392,-105.393 276.269,-105.393 381.663,0 v 0 c 105.392,105.394 105.392,276.269 0,381.663 v 0 c -52.697,52.696 -121.765,79.045 -190.832,79.045 v 0 c -69.068,0 -138.135,-26.349 -190.831,-79.045" transform="matrix(1.33333 0 0 -1.33333 0 1604.187)"/></g></g></g></g><g><g clip-path="url(#F)" transform="matrix(1.33333 0 0 -1.33333 0 1604.187)"><g><g><g clip-path="url(#G)" opacity=".15"><g><path fill="#758d8e" d="m 0,0 c -102.425,-102.425 -268.487,-102.425 -370.912,0 -102.424,102.424 -102.424,268.487 0,370.912 102.425,102.424 268.487,102.424 370.912,0 C 102.425,268.487 102.425,102.424 0,0" transform="translate(822.15 575.138)"/></g></g></g></g></g></g><g><g><g><g><path fill="url(#H)" d="m 454.768,942.52 c -100.474,-100.476 -100.474,-263.377 0,-363.852 v 0 c 100.475,-100.475 263.377,-100.475 363.852,0 v 0 c 100.475,100.475 100.475,263.376 0,363.852 v 0 c -50.237,50.237 -116.082,75.355 -181.926,75.355 v 0 c -65.844,0 -131.688,-25.118 -181.926,-75.355" transform="matrix(1.33333 0 0 -1.33333 0 1604.187)"/></g></g></g></g><g><g clip-path="url(#I)" transform="matrix(1.33333 0 0 -1.33333 0 1604.187)"><g><path fill="#fff" d="M 0,0 63.597,-23.039 2.067,30.5 Z m 101.727,-36.853 4.736,-1.714 10.656,28.861 -88.348,79.984 z m 1.604,-2.354 1.878,-2.758 0.677,1.832 z m -31.888,11.552 29.555,-25.717 3.502,9.486 -3.848,5.649 z m 30.9,-26.888 23.104,-20.103 -19.794,29.067 z m 43.17,1.828 1.22,-0.441 c 0.133,-0.048 0.251,-0.129 0.344,-0.235 l 42.098,-48.113 -29.488,56.478 -36.387,29.907 22.74,-35.593 c 0.156,-0.244 0.174,-0.551 0.048,-0.811 z m 32.563,-47.608 12.867,-5.734 -44.98,51.406 -1.178,0.426 -12.709,-26.338 0.019,0.026 c 0.236,0.308 0.651,0.412 1.004,0.256 l 43.923,-19.573 c 0.309,0.109 0.667,0.031 0.9,-0.226 0.066,-0.074 0.118,-0.156 0.154,-0.243 m -49.634,12.229 -36.764,-76.187 83.784,63.297 -42.44,18.912 z m -26.717,31.879 -46.072,-124.797 71.36,93.795 16.195,33.563 -35.755,12.954 -1.091,-2.958 24.098,-35.386 c 0.236,-0.347 0.178,-0.815 -0.135,-1.093 -0.315,-0.279 -0.784,-0.28 -1.101,-0.005 z m -48.048,-130.148 -3.393,-9.19 38.48,29.071 34.614,71.733 z m -3.454,-4.539 -8.404,-11.046 5.999,4.532 z M 90.09,-167.57 64,-221.639 170.276,-106.993 Z m -29.256,-59.545 c -0.163,0 -0.326,0.047 -0.469,0.145 -0.342,0.233 -0.461,0.679 -0.282,1.052 l 27.094,56.146 -37.964,-28.68 -0.939,-2.545 c -0.158,-0.431 -0.639,-0.653 -1.071,-0.494 -0.432,0.16 -0.653,0.64 -0.494,1.073 l 0.04,0.104 -8.762,-6.619 c -0.331,-0.25 -0.799,-0.218 -1.092,0.077 -0.294,0.295 -0.326,0.762 -0.074,1.094 l 15.378,20.211 48.181,130.506 -33.291,28.966 -68.248,24.725 c -0.349,0.126 -0.573,0.469 -0.548,0.84 l 2.224,32.8 c 0.022,0.316 0.22,0.593 0.512,0.714 0.292,0.119 0.628,0.068 0.867,-0.142 L 67.95,-24.616 99.048,-35.882 23.454,75.124 c -0.238,0.349 -0.178,0.821 0.141,1.098 0.317,0.277 0.794,0.274 1.107,-0.011 l 93.954,-85.058 c 0.252,-0.228 0.34,-0.588 0.223,-0.907 l -10.847,-29.382 35.905,-13.008 0.447,0.926 -25.323,39.636 c -0.221,0.345 -0.157,0.801 0.149,1.073 0.307,0.272 0.766,0.282 1.083,0.02 l 40.584,-33.356 c 0.086,-0.071 0.158,-0.159 0.21,-0.259 l 32.8,-62.82 c 0.196,-0.375 0.08,-0.836 -0.268,-1.075 -0.249,-0.171 -0.558,-0.189 -0.817,-0.07 -0.233,-0.266 -0.622,-0.366 -0.967,-0.211 l -14.492,6.457 -115.897,-125.025 c -0.163,-0.176 -0.387,-0.267 -0.612,-0.267" transform="translate(332.428 813.25)"/></g><g><path fill="#fff" d="M 0,0 53.158,-19.088 81.092,-3.3 Z m 55.23,-19.833 45.864,-16.469 -14.486,32.778 -2.354,0.095 z M -0.995,-1.415 10.102,-43.151 c 0.023,-0.087 0.031,-0.174 0.027,-0.259 l 41.112,23.238 z m 54.308,-19.502 -40.291,-22.773 89.151,4.947 -0.149,0.334 z m 49.949,-16.163 72.121,-25.899 -86.735,58.964 z m -189.24,-43.915 h 0.016 z m -2.602,-1.489 0.092,-16.562 96.814,56.083 -10.967,41.244 -82.758,-79.877 c -0.107,-0.102 -0.239,-0.175 -0.383,-0.21 z m -0.733,-18.838 c -0.144,0 -0.287,0.037 -0.415,0.11 -0.258,0.149 -0.418,0.422 -0.419,0.719 l -0.105,18.659 c -0.002,0.387 0.262,0.724 0.638,0.814 l 3.219,0.782 83.264,80.363 -0.158,0.597 c -0.068,0.255 -0.01,0.529 0.155,0.736 0.165,0.207 0.423,0.333 0.685,0.311 l 86.296,-3.512 1.966,1.111 c 0.277,0.157 0.619,0.143 0.879,-0.036 l 95.066,-64.628 c 0.346,-0.235 0.465,-0.693 0.274,-1.068 -0.19,-0.373 -0.626,-0.55 -1.025,-0.407 l -76.816,27.585 c 0.105,-0.248 0.083,-0.53 -0.057,-0.758 -0.143,-0.234 -0.392,-0.382 -0.664,-0.397 L 9.551,-45.553 c -0.379,-0.028 -0.738,0.226 -0.847,0.598 -0.025,0.088 -0.036,0.177 -0.033,0.264 l -97.567,-56.519 c -0.128,-0.074 -0.273,-0.112 -0.417,-0.112" transform="translate(728.995 675.192)"/></g><g><path fill="#fff" d="M 0,0 51.839,-7.926 -12.188,57.558 Z M 53.021,-9.793 34.012,-27.359 87.965,-8.403 55.013,-9.094 c 0.006,-0.141 -0.024,-0.283 -0.091,-0.415 -0.164,-0.318 -0.514,-0.496 -0.868,-0.443 z m -52.652,8.049 7.377,-34.844 22.3,7.835 20.866,19.282 z m 7.726,-36.489 1.914,-9.035 16.951,15.664 z m -52.991,43.41 5.096,-58.469 45.96,16.147 -7.553,35.67 z m 4.358,-60.447 c -0.158,0 -0.316,0.045 -0.452,0.134 -0.216,0.139 -0.357,0.371 -0.378,0.627 l -5.281,60.598 c -0.023,0.255 0.074,0.506 0.26,0.681 0.187,0.174 0.438,0.257 0.697,0.215 L -1.762,0.269 -14.132,58.692 -68.893,21.096 -85.504,2.547 c -0.244,-0.272 -0.637,-0.354 -0.969,-0.202 -0.332,0.153 -0.526,0.504 -0.478,0.866 l 16.678,128.144 c 0.059,0.457 0.476,0.783 0.934,0.719 0.456,-0.059 0.778,-0.477 0.719,-0.934 L -84.95,5.665 -70.068,22.283 c 0.045,0.05 0.094,0.094 0.149,0.132 l 55.528,38.124 -25.163,52.767 c -0.198,0.416 -0.021,0.914 0.394,1.112 0.416,0.199 0.916,0.021 1.112,-0.394 l 25.722,-53.94 66.035,-67.537 39.438,0.828 c 0.396,-0.003 0.765,-0.283 0.838,-0.686 0.074,-0.403 -0.157,-0.799 -0.544,-0.935 L 30.925,-30.211 10.063,-49.489 c -0.221,-0.202 -0.536,-0.272 -0.82,-0.182 -0.286,0.091 -0.5,0.329 -0.562,0.622 l -2.172,10.258 -46.771,-16.432 c -0.09,-0.031 -0.183,-0.047 -0.276,-0.047" transform="translate(765.417 952.174)"/></g></g></g><g><g><g><g><path fill="url(#J)" d="m 602.852,599.755 40.721,29.256 -40.721,12.3 z" transform="matrix(1.33333 0 0 -1.33333 0 1604.187)"/></g></g></g></g><g><g><g><g><path fill="url(#K)" d="M 602.852,984.469 V 697.6 l 51.424,48.506 c 0.334,0.316 4.995,2.221 5.31,1.888 v 0 c 0.317,-0.336 0.303,-0.864 -0.031,-1.18 v 0 L 602.852,693.03 v -49.018 l 43.992,-13.579 2.151,1.567 c 20.568,13.342 120.636,106.184 169.004,199.581 v 0 c 11.118,20.014 5.642,51.747 -16.679,72.828 v 0 c -70.048,66.156 -181.712,90.223 -181.712,90.223 v 0 c -1.455,0.462 -2.933,0.679 -4.377,0.679 v 0 c -6.531,10e-4 -12.379,-4.444 -12.379,-10.842" transform="matrix(1.33333 0 0 -1.33333 0 1604.187)"/></g></g></g></g><g><g><g><g><path fill="url(#L)" d="m 546.173,934.877 c -9.709,-9.156 -15.768,-21.91 -15.768,-35.255 v 0 -204.523 h 68.936 V 985.02 Z" transform="matrix(1.33333 0 0 -1.33333 0 1604.187)"/></g></g></g></g><g><g><g><g><path fill="url(#M)" d="m 530.405,691.416 v -76.095 l 68.936,28.631 v 47.741 z" transform="matrix(1.33333 0 0 -1.33333 0 1604.187)"/></g></g></g></g><g><g clip-path="url(#N)" transform="matrix(1.33333 0 0 -1.33333 0 1604.187)"><g><path fill="#99d9eb" d="M 0,0 68.936,-13.481 V 27.797 Z" transform="translate(530.405 613.098)"/></g></g></g><g><g><g><g><path fill="url(#O)" d="m 530.417,602.299 c 0.035,-26.015 13.609,-46.046 38.946,-60.369 v 0 l 29.978,-15.976 v 69.979 l -68.936,14.872 z" transform="matrix(1.33333 0 0 -1.33333 0 1604.187)"/></g></g></g></g><g><g><g><g><path fill="url(#P)" d="m 602.921,596.124 v -71.142 c 0,0 25.225,-0.626 43.988,3.961 v 0 c 0,11.257 0.417,99.495 0.417,99.495 v 0 z" transform="matrix(1.33333 0 0 -1.33333 0 1604.187)"/></g></g></g></g><g><g clip-path="url(#Q)" transform="matrix(1.33333 0 0 -1.33333 0 1604.187)"><g><path fill="#325d74" d="m 0,0 h -105.768 v -157.49 h 1.815 l 3.708,3.517 c 0.334,0.316 0.863,0.302 1.179,-0.031 0.317,-0.335 0.302,-0.863 -0.032,-1.179 l -2.43,-2.307 H 0 Z" transform="translate(758.652 901.997)"/></g><g><path fill="#325d74" d="m 0,0 c -0.315,0.333 -0.845,0.347 -1.179,0.031 l -3.708,-3.517 h 2.425 l 2.431,2.307 C 0.303,-0.863 0.317,-0.335 0,0" transform="translate(659.586 747.993)"/></g><g><path fill="#325d74" d="m 0,0 v -15.958 h 5.709 c -18.178,-2.305 -42.571,-1.411 -68.872,3.227 -13.15,2.318 -25.532,5.354 -36.663,8.857 -5.566,1.751 -10.819,3.62 -15.698,5.575 h 6.421 v 48.558 h -5.419 c 2.458,0.187 5.004,0.323 7.631,0.407 5.254,0.167 10.829,0.127 16.659,-0.13 11.658,-0.515 24.332,-1.898 37.481,-4.217 13.15,-2.319 25.533,-5.354 36.664,-8.857 5.566,-1.752 10.818,-3.621 15.698,-5.575 2.44,-0.977 4.786,-1.976 7.033,-2.992 l -6.644,0 z" transform="translate(760.32 820.069)"/></g><g><path fill="#325e75" d="m 0,0 v -15.376 h 3.37 c -17.514,-2.22 -41.016,-1.359 -66.356,3.109 -12.671,2.235 -24.601,5.159 -35.326,8.535 -5.362,1.687 -10.423,3.487 -15.125,5.371 h 4.334 v 46.099 h -10.209 c 17.514,2.22 41.017,1.358 66.357,-3.11 C -27.614,40.16 -5.234,32.931 10.464,24.854 H 0 Z" transform="translate(760.32 820.684)"/></g><g><path fill="#335f76" d="m 0,0 v -14.793 h 1.032 c -16.85,-2.136 -39.463,-1.308 -63.843,2.991 -12.19,2.15 -23.668,4.963 -33.986,8.211 -5.16,1.623 -10.029,3.355 -14.553,5.167 h 2.247 v 44.353 h -7.899 c 16.851,2.135 39.463,1.307 63.843,-2.992 C -28.778,38.638 -7.246,31.683 7.857,23.913 H 0 Z" transform="translate(760.32 821.299)"/></g><g><path fill="#336077" d="m 0,0 v -9.059 -3.087 h 9.736 c -3.295,-0.861 -6.995,-1.552 -11.042,-2.065 -16.186,-2.052 -37.909,-1.256 -61.329,2.874 -11.71,2.065 -22.736,4.768 -32.648,7.887 -4.956,1.56 -9.634,3.224 -13.979,4.964 h 0.159 V 44.12 h -5.588 c 16.186,2.052 37.908,1.256 61.329,-2.874 C -29.942,37.117 -9.259,30.435 5.25,22.971 H 0 Z" transform="translate(760.32 821.914)"/></g><g><path fill="#346178" d="m 0,0 v -8.687 -2.961 h 6.946 c -3.16,-0.826 -6.709,-1.488 -10.59,-1.98 -15.523,-1.968 -36.355,-1.205 -58.815,2.756 -22.46,3.96 -42.296,10.368 -56.21,17.526 h 9.566 v 35.658 h -3.279 c 15.524,1.967 36.355,1.204 58.816,-2.756 22.46,-3.961 42.295,-10.369 56.21,-17.526 L 0,22.03 Z" transform="translate(760.32 822.528)"/></g><g><path fill="#346279" d="m 0,0 v -8.316 -2.834 h 4.155 c -3.025,-0.791 -6.423,-1.425 -10.137,-1.896 -14.86,-1.883 -34.8,-1.153 -56.3,2.638 -21.5,3.791 -40.489,9.925 -53.808,16.777 h 6.987 v 34.133 h -0.968 c 14.859,1.884 34.8,1.153 56.3,-2.638 21.5,-3.791 40.488,-9.925 53.808,-16.777 l -0.037,0 z" transform="translate(760.32 823.144)"/></g><g><path fill="#35637b" d="m 0,0 v -7.945 h 8.913 c -4.251,-2.095 -10.135,-3.618 -17.233,-4.518 -14.197,-1.8 -33.246,-1.101 -53.786,2.52 -20.54,3.622 -38.681,9.482 -51.406,16.028 h 4.409 v 30.798 h -8.343 c 2.889,0.755 6.135,1.361 9.684,1.811 14.197,1.799 33.247,1.101 53.787,-2.52 20.539,-3.622 38.68,-9.482 51.405,-16.028 3.181,-1.637 6.023,-3.316 8.48,-5.014 l -5.91,0 z" transform="translate(760.32 823.758)"/></g><g><path fill="#35647c" d="m 0,0 v -7.573 h 5.77 c -4.052,-1.997 -9.662,-3.45 -16.428,-4.307 -13.532,-1.716 -31.693,-1.05 -51.273,2.402 -19.58,3.453 -36.872,9.039 -49.002,15.278 h 1.83 v 29.359 h -5.581 c 2.755,0.72 5.849,1.298 9.233,1.727 13.532,1.715 31.692,1.05 51.272,-2.403 C -34.6,31.03 -17.307,25.445 -5.177,19.205 0.888,16.084 5.662,12.801 8.786,9.539 H 0 Z" transform="translate(760.32 824.373)"/></g><g><path fill="#36657d" d="m 0,0 c -2.035,-11.544 -33.874,-15.58 -71.113,-9.014 -18.619,3.284 -35.064,8.596 -46.599,14.53 -2.884,1.484 -5.461,3.006 -7.688,4.545 h 6.939 V 30.98 h -9.661 c 3.853,1.899 9.187,3.281 15.622,4.097 12.869,1.631 30.139,0.998 48.759,-2.285 C -26.502,26.226 2.036,11.544 0,0" transform="translate(769.679 824.988)"/></g><g><path fill="#36667e" d="m 0,0 c -1.931,-10.949 -32.128,-14.776 -67.446,-8.548 -17.66,3.113 -33.257,8.152 -44.197,13.779 -5.47,2.814 -9.776,5.776 -12.594,8.719 h 9.266 v 15.433 h -6.545 c 3.655,1.801 8.714,3.112 14.817,3.885 12.205,1.547 28.584,0.947 46.244,-2.167 C -25.137,24.874 1.931,10.949 0,0" transform="translate(766.188 825.603)"/></g><g><path fill="#37677f" d="m 0,0 c -1.825,-10.354 -30.381,-13.973 -63.779,-8.083 -33.4,5.889 -58.995,19.056 -57.169,29.41 1.826,10.353 30.381,13.972 63.78,8.083 C -23.77,23.521 1.826,10.354 0,0" transform="translate(762.697 826.218)"/></g><g><path fill="#37677f" d="m 0,0 c -1.721,-9.758 -28.634,-13.169 -60.113,-7.619 -31.479,5.551 -55.603,17.961 -53.882,27.719 1.721,9.759 28.635,13.17 60.113,7.619 C -22.403,22.168 1.721,9.758 0,0" transform="translate(759.22 826.831)"/></g><g><path fill="#37677f" d="m 0,0 c -1.686,-9.559 -28.05,-12.901 -58.886,-7.463 -30.836,5.437 -54.468,17.594 -52.782,27.153 1.686,9.56 28.05,12.901 58.886,7.464 C -21.945,21.716 1.686,9.559 0,0" transform="translate(758.053 827.037)"/></g><g><path fill="#376880" d="m 0,0 c -1.65,-9.36 -27.466,-12.632 -57.659,-7.308 -30.195,5.324 -53.333,17.228 -51.683,26.588 1.651,9.36 27.465,12.632 57.659,7.308 C -21.489,21.264 1.65,9.36 0,0" transform="translate(756.886 827.242)"/></g><g><path fill="#386880" d="m 0,0 c -1.615,-9.161 -26.881,-12.363 -56.433,-7.152 -29.55,5.211 -52.198,16.861 -50.583,26.022 1.617,9.161 26.882,12.363 56.433,7.152 C -21.031,20.812 1.615,9.161 0,0" transform="translate(755.718 827.448)"/></g><g><path fill="#386981" d="m 0,0 c -1.581,-8.962 -26.297,-12.095 -55.206,-6.997 -28.909,5.097 -51.064,16.495 -49.483,25.456 1.58,8.962 26.296,12.095 55.206,6.998 C -20.574,20.359 1.58,8.962 0,0" transform="translate(754.55 827.654)"/></g><g><path fill="#386982" d="m 0,0 c -1.545,-8.763 -25.712,-11.826 -53.979,-6.842 -28.266,4.985 -49.928,16.129 -48.383,24.891 1.545,8.763 25.712,11.826 53.978,6.842 C -20.117,19.907 1.545,8.763 0,0" transform="translate(753.383 827.86)"/></g><g><path fill="#386a82" d="m 0,0 c -1.51,-8.563 -25.128,-11.557 -52.752,-6.686 -27.624,4.871 -48.794,15.762 -47.284,24.325 1.511,8.564 25.128,11.557 52.753,6.686 C -19.659,19.454 1.511,8.563 0,0" transform="translate(752.215 828.065)"/></g><g><path fill="#396b83" d="m 0,0 c -1.475,-8.364 -24.544,-11.288 -51.525,-6.53 -26.982,4.757 -47.66,15.395 -46.185,23.759 1.475,8.364 24.544,11.288 51.525,6.531 C -19.203,19.002 1.475,8.365 0,0" transform="translate(751.048 828.27)"/></g><g><path fill="#396b84" d="m 0,0 c -1.439,-8.166 -23.959,-11.02 -50.298,-6.375 -26.34,4.644 -46.525,15.028 -45.085,23.193 1.44,8.166 23.959,11.02 50.298,6.375 C -18.745,18.549 1.44,8.165 0,0" transform="translate(749.88 828.477)"/></g><g><path fill="#396c85" d="m 0,0 c -1.405,-7.966 -23.375,-10.75 -49.072,-6.22 -25.697,4.532 -45.39,14.662 -43.986,22.628 1.406,7.967 23.375,10.751 49.073,6.22 C -18.288,18.097 1.404,7.966 0,0" transform="translate(748.713 828.682)"/></g><g><path fill="#396d85" d="M 0,0 C -1.369,-7.767 -22.79,-10.482 -47.845,-6.064 -72.899,-1.646 -92.1,8.231 -90.73,15.999 c 1.369,7.766 22.79,10.481 47.844,6.063 C -17.831,17.645 1.369,7.767 0,0" transform="translate(747.545 828.888)"/></g><g><path fill="#3a6e86" d="m 0,0 c -1.334,-7.567 -22.206,-10.213 -46.618,-5.908 -24.412,4.304 -43.12,13.929 -41.785,21.496 1.334,7.568 22.206,10.213 46.618,5.909 C -17.373,17.192 1.335,7.568 0,0" transform="translate(746.377 829.093)"/></g><g><path fill="#3a6e87" d="m 0,0 c -1.3,-7.369 -21.622,-9.944 -45.392,-5.753 -23.769,4.191 -41.985,13.562 -40.686,20.931 1.3,7.368 21.622,9.944 45.391,5.753 C -16.917,16.74 1.299,7.369 0,0" transform="translate(745.21 829.3)"/></g><g><path fill="#3a6f88" d="m 0,0 c -1.264,-7.169 -21.037,-9.676 -44.164,-5.598 -23.128,4.078 -40.851,13.196 -39.587,20.366 1.265,7.169 21.037,9.675 44.165,5.597 C -16.459,16.287 1.265,7.169 0,0" transform="translate(744.042 829.505)"/></g><g><path fill="#3b7089" d="m 0,0 c -1.229,-6.97 -20.453,-9.407 -42.938,-5.442 -22.485,3.964 -39.716,12.829 -38.487,19.799 1.229,6.971 20.453,9.407 42.938,5.443 C -16.003,15.835 1.229,6.97 0,0" transform="translate(742.875 829.71)"/></g><g><path fill="#3b718a" d="m 0,0 c -1.193,-6.771 -19.868,-9.138 -41.711,-5.287 -21.843,3.852 -38.581,12.463 -37.388,19.234 1.195,6.771 19.87,9.138 41.711,5.287 C -15.545,15.383 1.194,6.771 0,0" transform="translate(741.707 829.916)"/></g><g><path fill="#3c728b" d="m 0,0 c -1.159,-6.572 -19.285,-8.87 -40.484,-5.131 -21.201,3.738 -37.448,12.096 -36.288,18.668 1.159,6.572 19.284,8.869 40.484,5.131 C -15.088,14.93 1.158,6.572 0,0" transform="translate(740.54 830.122)"/></g><g><path fill="#3c738c" d="m 0,0 c -1.124,-6.373 -18.7,-8.601 -39.258,-4.976 -20.557,3.625 -36.311,11.73 -35.187,18.102 1.123,6.374 18.699,8.601 39.257,4.977 C -14.631,14.478 1.124,6.373 0,0" transform="translate(739.372 830.328)"/></g><g><path fill="#3c748d" d="m 0,0 c -1.088,-6.174 -18.115,-8.332 -38.03,-4.82 -19.915,3.511 -35.177,11.363 -34.089,17.536 1.089,6.174 18.116,8.332 38.031,4.821 C -14.173,14.025 1.089,6.174 0,0" transform="translate(738.204 830.533)"/></g><g><path fill="#3d748e" d="m 0,0 c -1.054,-5.975 -17.531,-8.063 -36.804,-4.665 -19.273,3.399 -34.043,10.997 -32.989,16.972 1.054,5.974 17.531,8.063 36.804,4.664 C -13.717,13.573 1.054,5.975 0,0" transform="translate(737.037 830.739)"/></g><g><path fill="#3d758f" d="m 0,0 c -1.019,-5.775 -16.946,-7.794 -35.577,-4.509 -18.63,3.285 -32.907,10.63 -31.889,16.405 1.019,5.776 16.946,7.794 35.577,4.51 C -13.259,13.121 1.019,5.775 0,0" transform="translate(735.87 830.944)"/></g><g><path fill="#3d7690" d="m 0,0 c -0.983,-5.576 -16.362,-7.525 -34.351,-4.354 -17.988,3.172 -31.772,10.264 -30.79,15.84 0.984,5.576 16.363,7.525 34.351,4.353 C -12.802,12.668 0.982,5.576 0,0" transform="translate(734.702 831.15)"/></g><g><path fill="#3e7791" d="m 0,0 c -0.948,-5.377 -15.778,-7.257 -33.123,-4.198 -17.346,3.058 -30.639,9.897 -29.69,15.274 0.948,5.377 15.778,7.257 33.123,4.198 C -12.345,12.215 0.948,5.377 0,0" transform="translate(733.534 831.356)"/></g><g><path fill="#3e7892" d="m 0,0 c -0.913,-5.178 -15.193,-6.988 -31.896,-4.042 -16.704,2.944 -29.503,9.53 -28.59,14.708 0.913,5.178 15.193,6.987 31.896,4.042 C -11.887,11.763 0.913,5.178 0,0" transform="translate(732.366 831.562)"/></g><g><path fill="#3f7993" d="m 0,0 c -0.878,-4.979 -14.609,-6.719 -30.67,-3.887 -16.06,2.832 -28.369,9.164 -27.491,14.142 0.878,4.979 14.609,6.72 30.67,3.888 C -11.431,11.311 0.878,4.979 0,0" transform="translate(731.2 831.767)"/></g><g><path fill="#3f7a94" d="m 0,0 c -0.843,-4.78 -14.024,-6.451 -29.442,-3.732 -15.419,2.719 -27.235,8.797 -26.392,13.577 0.843,4.78 14.025,6.45 29.443,3.732 C -10.973,10.858 0.843,4.779 0,0" transform="translate(730.031 831.973)"/></g><g><path fill="#407b95" d="m 0,0 c -0.808,-4.581 -13.44,-6.182 -28.217,-3.576 -14.775,2.605 -26.098,8.43 -25.291,13.011 0.808,4.58 13.441,6.181 28.216,3.576 C -10.516,10.406 0.808,4.581 0,0" transform="translate(728.864 832.179)"/></g><g><path fill="#407c96" d="m 0,0 c -0.772,-4.381 -12.856,-5.913 -26.989,-3.421 -14.134,2.492 -24.965,8.065 -24.193,12.446 0.773,4.381 12.857,5.913 26.991,3.42 C -10.059,9.954 0.772,4.381 0,0" transform="translate(727.696 832.384)"/></g><g><path fill="#407d97" d="m 0,0 c -0.737,-4.182 -12.271,-5.644 -25.763,-3.265 -13.49,2.379 -23.829,7.698 -23.091,11.88 0.737,4.182 12.271,5.644 25.762,3.265 C -9.601,9.501 0.738,4.182 0,0" transform="translate(726.528 832.59)"/></g><g><path fill="#417e98" d="m 0,0 c -0.702,-3.983 -11.688,-5.375 -24.536,-3.11 -12.849,2.266 -22.694,7.331 -21.992,11.314 0.702,3.983 11.687,5.376 24.535,3.11 C -9.145,9.048 0.702,3.983 0,0" transform="translate(725.361 832.796)"/></g><g><path fill="#417f9a" d="m 0,0 c -0.667,-3.784 -11.103,-5.106 -23.309,-2.955 -12.206,2.153 -21.56,6.965 -20.893,10.749 0.668,3.784 11.103,5.106 23.309,2.954 C -8.687,8.596 0.667,3.784 0,0" transform="translate(724.193 833.001)"/></g><g><path fill="#42809b" d="m 0,0 c -0.633,-3.584 -10.519,-4.838 -22.083,-2.799 -11.563,2.039 -20.425,6.598 -19.793,10.183 0.632,3.585 10.519,4.838 22.082,2.799 C -8.23,8.144 0.632,3.585 0,0" transform="translate(723.026 833.207)"/></g><g><path fill="#42829c" d="m 0,0 c -0.597,-3.385 -9.935,-4.569 -20.855,-2.643 -10.921,1.926 -19.291,6.231 -18.694,9.617 0.597,3.385 9.934,4.569 20.856,2.643 C -7.772,7.691 0.597,3.386 0,0" transform="translate(721.858 833.413)"/></g><g><path fill="#43839d" d="m 0,0 c -0.562,-3.187 -9.35,-4.3 -19.628,-2.488 -10.279,1.812 -18.156,5.865 -17.595,9.051 0.563,3.187 9.351,4.3 19.629,2.488 C -7.314,7.239 0.562,3.186 0,0" transform="translate(720.69 833.619)"/></g><g><path fill="#43849e" d="m 0,0 c -0.526,-2.987 -8.766,-4.032 -18.402,-2.333 -9.636,1.7 -17.021,5.499 -16.494,8.486 0.526,2.987 8.765,4.032 18.402,2.332 C -6.858,6.786 0.526,2.987 0,0" transform="translate(719.523 833.824)"/></g><g><path fill="#4485a0" d="m 0,0 c -0.491,-2.788 -8.181,-3.763 -17.175,-2.177 -8.994,1.586 -15.887,5.132 -15.394,7.92 0.491,2.788 8.18,3.763 17.174,2.177 C -6.4,6.334 0.492,2.788 0,0" transform="translate(718.356 834.03)"/></g><g><path fill="#4486a1" d="m 0,0 c -0.457,-2.589 -7.597,-3.494 -15.948,-2.021 -8.352,1.472 -14.752,4.765 -14.296,7.354 0.457,2.589 7.598,3.494 15.948,2.021 C -5.944,5.882 0.456,2.589 0,0" transform="translate(717.188 834.235)"/></g><g><path fill="#4587a2" d="m 0,0 c -0.421,-2.39 -7.013,-3.225 -14.722,-1.866 -7.709,1.36 -13.616,4.399 -13.195,6.789 0.422,2.389 7.013,3.225 14.722,1.866 C -5.486,5.429 0.422,2.39 0,0" transform="translate(716.02 834.441)"/></g><g><path fill="#4588a3" d="m 0,0 c -0.387,-2.191 -6.429,-2.957 -13.495,-1.71 -7.067,1.246 -12.483,4.031 -12.096,6.222 0.386,2.191 6.428,2.957 13.494,1.711 C -5.029,4.977 0.386,2.19 0,0" transform="translate(714.854 834.647)"/></g><g><path fill="#4689a4" d="m 0,0 c -0.352,-1.992 -5.844,-2.688 -12.268,-1.555 -6.424,1.133 -11.347,3.665 -10.997,5.657 0.352,1.992 5.844,2.688 12.269,1.555 C -4.572,4.524 0.352,1.992 0,0" transform="translate(713.686 834.853)"/></g><g><path fill="#468ba6" d="m 0,0 c -0.315,-1.792 -5.259,-2.419 -11.041,-1.399 -5.781,1.019 -10.213,3.298 -9.896,5.091 0.316,1.792 5.259,2.419 11.041,1.399 C -4.114,4.072 0.316,1.792 0,0" transform="translate(712.518 835.058)"/></g><g><path fill="#468ca7" d="m 0,0 c -0.281,-1.593 -4.675,-2.15 -9.814,-1.244 -5.14,0.907 -9.079,2.932 -8.797,4.526 0.28,1.593 4.674,2.15 9.814,1.244 C -3.658,3.62 0.28,1.593 0,0" transform="translate(711.35 835.264)"/></g><g><path fill="#478da8" d="m 0,0 c -0.246,-1.394 -4.091,-1.881 -8.588,-1.088 -4.496,0.792 -7.942,2.565 -7.697,3.959 0.246,1.394 4.091,1.881 8.588,1.089 C -3.2,3.167 0.246,1.394 0,0" transform="translate(710.183 835.47)"/></g><g><path fill="#478ea9" d="m 0,0 c -0.211,-1.195 -3.507,-1.613 -7.361,-0.933 -3.855,0.68 -6.809,2.199 -6.598,3.394 0.211,1.195 3.506,1.613 7.36,0.933 C -2.744,2.714 0.21,1.195 0,0" transform="translate(709.016 835.675)"/></g><g><path fill="#488fab" d="m 0,0 c -0.176,-0.996 -2.922,-1.344 -6.134,-0.777 -3.212,0.566 -5.674,1.832 -5.498,2.828 0.175,0.996 2.922,1.344 6.134,0.778 C -2.286,2.262 0.176,0.996 0,0" transform="translate(707.848 835.88)"/></g><g><path fill="#4890ac" d="m 0,0 c -0.14,-0.796 -2.337,-1.075 -4.907,-0.622 -2.57,0.454 -4.538,1.466 -4.399,2.263 0.141,0.797 2.338,1.075 4.908,0.622 C -1.828,1.81 0.141,0.797 0,0" transform="translate(706.68 836.087)"/></g><g><path fill="#4992ad" d="m 0,0 c -0.105,-0.598 -1.753,-0.807 -3.681,-0.467 -1.926,0.34 -3.404,1.1 -3.298,1.697 0.105,0.598 1.752,0.807 3.68,0.467 C -1.372,1.357 0.105,0.597 0,0" transform="translate(705.513 836.293)"/></g><g><path fill="#4993af" d="m 0,0 c -0.07,-0.398 -1.169,-0.538 -2.453,-0.311 -1.285,0.227 -2.27,0.733 -2.199,1.131 0.07,0.399 1.168,0.538 2.453,0.311 C -0.914,0.905 0.07,0.398 0,0" transform="translate(704.345 836.498)"/></g><g><path fill="#4a94b0" d="M 0,0 C -0.035,-0.199 -0.585,-0.269 -1.228,-0.155 -1.869,-0.042 -2.362,0.211 -2.327,0.41 -2.292,0.609 -1.742,0.679 -1.1,0.566 -0.458,0.453 0.035,0.199 0,0" transform="translate(703.178 836.704)"/></g></g></g><g><g clip-path="url(#R)" transform="matrix(1.33333 0 0 -1.33333 0 1604.187)"><g><path fill="#e5eff1" d="m 0,0 c -15.497,10.324 -58.812,26.851 -88.825,28.234 -10.66,0 -15.413,-3.545 -15.413,-11.497 v -142.34 c 0,-1.383 1.124,-2.829 2.672,-3.436 0.278,-0.109 0.558,-0.183 0.837,-0.232 l 2.346,2.225 c -1.058,-0.828 -2.044,-0.647 -2.573,-0.441 -0.997,0.392 -1.614,1.283 -1.614,1.884 v 142.34 c 0,6.982 3.982,9.83 13.707,9.83 29.696,-1.369 72.595,-17.733 87.856,-27.893 2.667,-2.297 2.372,-3.471 1.626,-5.032 -35.277,-52.678 -96.732,-118.338 -98.475,-120.198 0.335,0.293 0.843,0.278 1.152,-0.047 0.317,-0.335 0.303,-0.863 -0.031,-1.179 l -0.163,-0.156 c 0.071,0.07 0.147,0.122 0.216,0.196 0.626,0.666 63.003,67.171 98.745,120.557 C 3.204,-4.824 3.271,-2.809 0,0" transform="translate(756.29 874.596)"/></g><g><path fill="#e5eff1" d="M 0,0 C -0.309,0.325 -0.816,0.34 -1.152,0.047 -1.169,0.03 -1.19,0.007 -1.196,0 -1.357,-0.173 -1.519,-0.318 -1.679,-0.443 l -2.345,-2.225 c 0.234,-0.041 0.467,-0.068 0.7,-0.068 1.117,0 2.199,0.492 3.13,1.402 l 0.163,0.155 C 0.303,-0.863 0.317,-0.335 0,0" transform="translate(659.586 747.993)"/></g><g><path fill="#c3dae6" d="m 0,0 0.14,62.219 c 0,3.24 -0.053,3.677 -0.053,5.032 5.282,-0.574 15.823,-7.882 18.762,-12.491 0.513,-1.041 0.51,-1.706 0.323,-2.623 C 12.618,29.097 1.217,1.911 1.217,1.911 0.724,0.662 0,0 0,0" transform="translate(653.65 798.017)"/></g></g></g></g></svg>