<svg xmlns="http://www.w3.org/2000/svg" role="img" viewBox="-19.14 -19.14 1047.28 349.28"><title>Qumulo (member) logo</title><path fill="#2c2c4c" fill-rule="evenodd" d="M628.77 137.37c8.4-7.66 19.58-12.33 31.85-12.33 26.12 0 47.29 21.17 47.29 47.29v49.19c0 8.53-6.91 15.44-15.44 15.44s-15.44-6.91-15.44-15.44v-49.2c0-9.06-7.35-16.41-16.41-16.41s-16.41 7.35-16.41 16.41v49.2c0 8.53-6.91 15.44-15.44 15.44s-15.44-6.91-15.44-15.44v-49.2c0-9.06-7.35-16.41-16.41-16.41s-16.41 7.35-16.41 16.41v49.2c0 8.53-6.91 15.44-15.44 15.44s-15.44-6.91-15.44-15.44v-49.19c0-26.12 21.17-47.29 47.29-47.29 12.27 0 23.44 4.67 31.85 12.33zm-110.02-12.33c8.53 0 15.44 6.91 15.44 15.44v43.4c0 29.31-23.76 53.08-53.08 53.08s-53.08-23.76-53.08-53.08v-43.4c0-8.53 6.91-15.44 15.44-15.44s15.44 6.91 15.44 15.44v43.41c0 12.26 9.94 22.2 22.2 22.2s22.2-9.94 22.2-22.2v-43.41c0-8.53 6.91-15.44 15.44-15.44zm295.31 0c8.53 0 15.44 6.91 15.44 15.44v43.4c0 29.31-23.76 53.08-53.08 53.08s-53.08-23.76-53.08-53.08v-43.4c0-8.53 6.91-15.44 15.44-15.44s15.44 6.91 15.44 15.44v43.41c0 12.26 9.94 22.2 22.2 22.2s22.2-9.94 22.2-22.2v-43.41c0-8.53 6.91-15.44 15.44-15.44zM860.38 65c8.53 0 15.44 6.91 15.44 15.44v141.08c0 8.53-6.91 15.44-15.44 15.44s-15.44-6.91-15.44-15.44V80.44c0-8.53 6.91-15.44 15.44-15.44zm88.79 56.18c-33.05 0-59.83 26.78-59.83 59.82s26.79 59.82 59.83 59.82S1009 214.04 1009 181s-26.79-59.82-59.83-59.82zm0 90.69c-17.06 0-30.88-13.82-30.88-30.87s13.83-30.87 30.88-30.87 30.88 13.82 30.88 30.87-13.83 30.87-30.88 30.87zm-533.71 9.48l-19.67-19.67s.05-.07.07-.1c2.94-4.39 5.45-9.07 7.47-13.96 2.02-4.88 3.56-9.95 4.6-15.17 1.02-5.15 1.54-10.41 1.54-15.74 0-44.58-36.15-80.72-80.73-80.72s-80.73 36.14-80.73 80.72c0 5.32.52 10.58 1.54 15.74 1.03 5.21 2.57 10.29 4.6 15.17 2.03 4.89 4.53 9.56 7.47 13.96 2.94 4.39 6.3 8.48 10.04 12.22 3.74 3.74 7.83 7.1 12.22 10.04 4.39 2.94 9.07 5.45 13.96 7.47 4.88 2.02 9.96 3.56 15.17 4.59 5.15 1.02 10.42 1.54 15.74 1.54s10.59-.52 15.74-1.54c5.21-1.03 10.29-2.57 15.17-4.59 4.89-2.03 9.57-4.53 13.96-7.47.04-.02.07-.05.11-.07l19.67 19.67c6.1 6.1 15.99 6.1 22.09 0s6.1-15.98 0-22.08zm-38.4-55c-.63 3.17-1.56 6.25-2.79 9.22-1.23 2.98-2.76 5.83-4.56 8.51-1.8 2.68-3.86 5.19-6.14 7.47-2.29 2.29-4.79 4.34-7.48 6.14-2.68 1.79-5.53 3.32-8.51 4.56-2.97 1.23-6.05 2.17-9.22 2.79-3.14.62-6.36.94-9.63.94s-6.49-.32-9.63-.94c-3.17-.63-6.26-1.56-9.22-2.79-2.98-1.23-5.83-2.76-8.51-4.56-2.68-1.8-5.19-3.85-7.48-6.14-2.29-2.29-4.34-4.79-6.14-7.47-1.79-2.68-3.32-5.53-4.56-8.51-1.23-2.97-2.17-6.05-2.79-9.22-.62-3.14-.94-6.36-.94-9.63 0-27.2 22.06-49.25 49.26-49.25s49.26 22.05 49.26 49.25c0 3.27-.32 6.49-.94 9.63z"/><path fill="#00a3ca" fill-rule="evenodd" d="M158.12 61H83.71c-12.55 0-22.72-10.17-22.72-22.72V14.15C60.99 6.89 55.1 1 47.84 1H14.15C6.89 1 1 6.89 1 14.15v33.7C1 55.11 6.89 61 14.15 61H37c13.25 0 24 10.75 24 24v36h37.12c18.16 0 32.88 14.72 32.88 32.88V191h27.12c18.16 0 32.88-14.72 32.88-32.88V93.87c0-18.16-14.72-32.88-32.88-32.88z"/><path fill="#007cac" d="M177.85 251H155c-13.25 0-24-10.75-24-24v-8.54V191H93.88C75.72 191 61 176.28 61 158.12V121H33.88C15.72 121 1 135.72 1 153.88v64.25c0 18.16 14.72 32.88 32.88 32.88h74.41c12.55 0 22.72 10.17 22.72 22.72v24.13c0 7.26 5.89 13.15 13.15 13.15h33.7c7.26 0 13.15-5.89 13.15-13.15v-33.7c0-7.26-5.89-13.15-13.15-13.15z"/><path fill="#015a92" d="M93.88 191H131v-37.12c0-18.16-14.72-32.88-32.88-32.88H61v37.12C61 176.28 75.72 191 93.88 191z"/></svg>