<svg xmlns="http://www.w3.org/2000/svg" role="img" viewBox="-13.74 -4.74 1026.48 631.48"><title>R Consortium logo</title><style>svg {enable-background:new 0 0 1000 622.59}</style><style>.st267{fill:#212322}.st268{fill:#0047ba}.st269{fill:#969cde}</style><g id="XMLID_1688_"><path id="XMLID_1941_" d="M20.52 594.24c-9.65-8.04-14.48-18.5-14.48-31.37v-9.65c0-12.87 4.83-23.32 14.48-31.37 9.65-8.04 20.94-12.07 33.88-12.07 15.44 0 28.28 5.47 38.51 16.41L73.6 540.67c-5.79-5.79-12.23-8.69-19.3-8.69-6.43 0-12.07 2.57-16.89 7.72-4.83 5.15-7.24 11.26-7.24 18.34s2.25 13.19 6.76 18.34c4.5 5.15 10.29 7.72 17.37 7.72 7.08 0 13.51-2.9 19.3-8.69l19.31 14.48c-10.3 10.94-23.17 16.41-38.61 16.41-12.87.01-24.13-4.01-33.78-12.06z" class="st267"/><path id="XMLID_1938_" d="M120.71 593.13c-9.4-9.43-14.09-21.12-14.09-35.09 0-14.03 4.7-25.74 14.09-35.14 9.39-9.39 21.11-14.09 35.13-14.09 14.03 0 25.74 4.7 35.13 14.09 9.4 9.4 14.09 21.11 14.09 35.14 0 14.03-4.7 25.74-14.09 35.14-9.4 9.39-21.11 14.09-35.13 14.09-14.02 0-25.73-4.71-35.13-14.14zm35.04-9.22c7.34 0 13.29-2.46 17.86-7.38s6.85-11.05 6.85-18.39-2.29-13.48-6.85-18.44c-4.57-4.96-10.55-7.43-17.95-7.43-7.27 0-13.19 2.48-17.76 7.43-4.57 4.96-6.85 11.1-6.85 18.44s2.28 13.47 6.85 18.39c4.56 4.92 10.51 7.38 17.85 7.38z" class="st267"/><path id="XMLID_1936_" d="M250.44 544.92v61.39h-27.03v-93.72l27.03-2.9v8.78c6.5-5.79 14.22-8.69 23.17-8.69 12.22 0 21.56 3.7 27.99 11.1 6.43 7.4 9.65 15.93 9.65 25.58v59.85h-27.03v-53.09c0-6.43-1.61-11.42-4.83-14.96-3.22-3.54-8.08-5.41-14.57-5.6-5.6.39-10.39 4.48-14.38 12.26z" class="st267"/><path id="XMLID_1934_" d="M388.47 512.49c5.02 2.19 9.71 5.44 14.09 9.75l-15.06 16.99c-4.38-5.21-9.85-7.82-16.41-7.82-6.5 0-10.84 1.21-13.03 3.62-2.19 2.42-2.19 4.6 0 6.56s6.53 3.59 13.03 4.88c9.59.9 17.44 3.64 23.55 8.21 6.11 4.57 9.17 12.52 9.17 23.84 0 9.14-3.6 16.22-10.81 21.24-7.21 5.02-15.61 7.53-25.19 7.53-9.14 0-16.75-1.3-22.83-3.91-6.08-2.61-11.31-6.1-15.68-10.47L344.26 576c4.38 5.21 11.16 8.24 20.37 9.08 7.4 0 12.18-1.21 14.33-3.62 2.16-2.41 2.48-4.83.96-7.24-1.51-2.42-6.61-4.04-15.3-4.88-7.85-.9-15.04-3.31-21.57-7.24-6.53-3.93-9.8-11.32-9.8-22.2 0-9.97 3.72-17.58 11.15-22.83 7.43-5.24 15.07-7.87 22.92-7.87 9.08.01 16.13 1.1 21.15 3.29z" class="st267"/><path id="XMLID_1931_" d="M432 593.13c-9.4-9.43-14.09-21.12-14.09-35.09 0-14.03 4.7-25.74 14.09-35.14 9.39-9.39 21.11-14.09 35.14-14.09 14.03 0 25.74 4.7 35.13 14.09 9.39 9.4 14.09 21.11 14.09 35.14 0 14.03-4.7 25.74-14.09 35.14-9.39 9.39-21.11 14.09-35.13 14.09-14.03 0-25.75-4.71-35.14-14.14zm35.04-9.22c7.34 0 13.29-2.46 17.86-7.38s6.85-11.05 6.85-18.39-2.29-13.48-6.85-18.44c-4.57-4.96-10.55-7.43-17.95-7.43-7.27 0-13.19 2.48-17.76 7.43-4.57 4.96-6.85 11.1-6.85 18.44s2.28 13.47 6.85 18.39c4.56 4.92 10.51 7.38 17.85 7.38z" class="st267"/><path id="XMLID_1929_" d="M559.6 520.4c6.89-7.08 15.28-10.62 25.19-10.62 3.15 0 6.14.26 8.98.77l-4.25 26.64c-3.15-2.83-7.66-4.35-13.51-4.54-6.56.45-12.03 5.21-16.41 14.28v59.36h-27.02v-93.72l27.02-2.9v10.73z" class="st267"/><path id="XMLID_1927_" d="M655.16 606.31c-10.94 0-19.63-3.06-26.06-9.17-6.43-6.11-9.65-14-9.65-23.65v-41.8h-14.48v-21.81h14.48v-26.16l27.12-2.9v29.05h14.48v21.81h-14.48v37.94c0 5.15 1.08 8.77 3.24 10.86s4.94 3.14 8.35 3.14c1.03 0 3.44-.42 7.24-1.25l5.7 19.4c-4.65 3.03-9.95 4.54-15.94 4.54z" class="st267"/><path id="XMLID_1901_" d="M690.39 476.92c2.57-2.61 6.05-3.91 10.43-3.91 4.63 0 8.24 1.3 10.81 3.91 2.57 2.61 3.86 5.84 3.86 9.7 0 3.86-1.29 7.08-3.86 9.65-2.57 2.57-6.12 3.86-10.62 3.86s-8.04-1.29-10.62-3.86c-2.57-2.57-3.86-5.79-3.86-9.65 0-3.86 1.29-7.09 3.86-9.7zm24.13 129.39v-96.62H687.5v96.62h27.02z" class="st267"/><path id="XMLID_1899_" d="M796.28 572.04v-62.35h27.03v96.62h-27.03v-8.78c-6.5 5.79-14.22 8.69-23.17 8.69-12.22 0-21.56-3.7-27.99-11.1-6.43-7.4-9.65-15.93-9.65-25.58v-59.85h27.03v53.09c0 6.43 1.61 11.42 4.83 14.96 3.22 3.54 8.07 5.41 14.57 5.6 5.59-.39 10.39-4.16 14.38-11.3z" class="st267"/><path id="XMLID_1897_" d="M873.3 544.53v61.78h-27.03v-93.72l27.03-2.9v8.59c6.05-5.66 13.77-8.49 23.16-8.49 12.23 0 21.56 3.7 27.99 11.1 7.08-7.4 17.69-11.1 31.85-11.1 12.22 0 21.56 3.7 27.99 11.1 6.43 7.4 9.65 15.93 9.65 25.58v59.85h-27.03v-53.09c0-6.43-1.45-11.42-4.34-14.96-2.9-3.54-7.6-5.41-14.09-5.6-5.34.38-9.98 3.93-13.9 10.62-.33 2-.49 4.02-.49 6.08v56.95h-27.02v-53.09c0-6.43-1.45-11.42-4.35-14.96-2.9-3.54-7.59-5.41-14.09-5.6-5.9.38-11.02 4.33-15.33 11.86z" class="st267"/></g><g id="XMLID_1670_"><g id="XMLID_1684_"><path id="XMLID_1685_" d="M573.23 183.63c0 26.12-10.34 43-31.02 50.62l41.29 58.31h-44.79l-36.15-52.02h-25.19v52.02h-36.39V129.51h61.81c25.35 0 43.42 4.28 54.23 12.83 10.81 8.56 16.21 22.32 16.21 41.29zm-43.85 19.36c4.51-4.04 6.77-10.46 6.77-19.24 0-8.78-2.34-14.81-7-18.08-4.66-3.27-12.83-4.9-24.49-4.9h-27.29v48.28h26.59c12.44 0 20.91-2.02 25.42-6.06z" class="st268"/></g><path id="XMLID_1676_" d="M405.28 369.66c-9.68-5.62-13.06-18.01-7.44-27.76 5.62-9.68 18.01-13 27.76-7.45 9.69 5.62 13.07 18.01 7.45 27.76-3.8 6.5-10.63 10.16-17.61 10.16-3.45.01-6.97-.88-10.16-2.71zm162.02-7.58c-5.62-9.68-2.31-22.14 7.44-27.76 9.68-5.62 22.07-2.3 27.69 7.38 5.62 9.68 2.3 22.14-7.38 27.76-3.18 1.89-6.7 2.78-10.16 2.78-6.97 0-13.8-3.66-17.59-10.16zm-231.54-61.74c-5.62-9.68-2.3-22.14 7.38-27.76 9.68-5.62 22.07-2.3 27.76 7.38 5.62 9.68 2.37 22.14-7.38 27.76-3.18 1.83-6.7 2.71-10.16 2.71-7.05-.01-13.82-3.59-17.6-10.09zm313.46-95.06v-.81c-.07-11.24 9-20.31 20.24-20.38 11.17-.07 20.31 9 20.38 20.24V205.15c0 11.17-9.07 20.24-20.31 20.24-11.18 0-20.25-9-20.31-20.11zm-306.36-66.95c-9.75-5.62-13.06-18.01-7.52-27.76 5.62-9.75 18.01-13.06 27.76-7.44 9.75 5.55 13.06 18.01 7.44 27.69h.07c-3.79 6.57-10.62 10.22-17.67 10.22-3.45-.01-6.9-.89-10.08-2.71zm231.28-62.69c-9.69-5.62-13.07-18.01-7.52-27.76 5.62-9.75 18.08-13.07 27.76-7.51 9.75 5.55 13.06 18.01 7.51 27.76-3.72 6.5-10.56 10.16-17.67 10.16-3.38-.02-6.9-.83-10.08-2.65zm-74.62-19.71c-11.24 0-20.31-9.07-20.38-20.31 0-11.17 9.07-20.31 20.24-20.31 11.24-.07 20.38 9 20.38 20.24.07 11.18-9 20.32-20.24 20.38z" class="st268"/><path id="XMLID_1675_" d="M479.89 374.68c0-11.24 9.07-20.31 20.31-20.31 11.17-.07 20.31 9 20.31 20.24 0 11.24-9.07 20.31-20.31 20.38-11.23 0-20.31-9.14-20.31-20.31z" class="st269"/><path id="XMLID_1674_" d="M636.69 307.45c-9.69-5.62-13-18.08-7.39-27.76 5.62-9.75 18.01-13.06 27.76-7.44 9.68 5.62 13 18.08 7.38 27.76-3.72 6.5-10.56 10.16-17.6 10.16-3.45-.02-6.9-.9-10.15-2.72z" class="st269"/><path id="XMLID_1673_" d="M310.16 205.49c0-11.17 9.07-20.31 20.24-20.31 11.24-.07 20.38 9 20.38 20.24 0 11.24-9.07 20.31-20.24 20.38-11.24 0-20.31-9.07-20.38-20.31z" class="st269"/><path id="XMLID_1672_" d="M628.97 130c-5.62-9.68-2.37-22.07 7.31-27.76 9.68-5.62 22.14-2.37 27.76 7.31 5.69 9.68 2.37 22.14-7.31 27.76-3.19 1.89-6.7 2.78-10.16 2.78-7.03 0-13.8-3.59-17.6-10.09z" class="st269"/><path id="XMLID_1671_" d="M397.3 68.73c-5.69-9.68-2.37-22.14 7.31-27.76 9.68-5.69 22.14-2.37 27.76 7.31 5.69 9.68 2.37 22.14-7.31 27.76-3.18 1.89-6.7 2.77-10.22 2.77-6.99.01-13.76-3.58-17.54-10.08z" class="st269"/></g></svg>