<svg xmlns="http://www.w3.org/2000/svg" role="img" viewBox="33.87 -5.63 332.02 256.02"><title>R3 LLC logo</title><style>svg {enable-background:new 0 0 400 245}</style><style/><circle cx="339.21" cy="141.87" r="20.35" fill="#ec1c24"/><path d="M238.47 81.76l27.59-40.17V.9h-87.9l-27.95 40.7h66.33l-34.15 49.7 20.34 35.24c6.06-3.51 13.1-5.51 20.6-5.51 22.75 0 41.19 18.44 41.19 41.19s-18.44 41.19-41.19 41.19-41.19-18.44-41.19-41.19h-40.68c0 45.22 36.66 81.88 81.88 81.88s81.88-36.66 81.88-81.88c-.01-40.05-28.76-73.36-66.75-80.46zM122.22.9c-14.95 0-28.95 4.03-41 11.03V.9H40.44v161.31h40.77V82.68h.03c0-22.63 18.34-40.97 40.97-40.97l13.66-.12L163.83.9h-41.61z"/></svg>