<svg xmlns="http://www.w3.org/2000/svg" role="img" viewBox="-15.80 -12.80 1029.60 400.60"><title>Real-Time Linux logo</title><style>svg {enable-background:new 0 0 1000 376.19}</style><style>.st90{fill:#003e52}.st91{fill:#3f96b4}</style><path d="M295.25 84.98l-18.66-18.66c-.88-.88-2.31-.88-3.19 0l-41.17 41.17c-.88.88-.88 2.31 0 3.19l18.66 18.66c.88.88 2.31.88 3.19 0l41.17-41.17c.88-.88.88-2.31 0-3.19z" class="st90"/><path d="M377.54 127.1v41.93h-6.72V72.79h22.91c11.94 0 20.76 2.21 26.46 6.62 5.71 4.41 8.56 11.05 8.56 19.91 0 6.45-1.7 11.89-5.1 16.33-3.4 4.43-8.57 7.62-15.5 9.55l26.13 43.84h-8.03l-24.82-41.93h-23.89zm0-5.79h18.37c8.12 0 14.42-1.81 18.89-5.43 4.48-3.62 6.72-8.96 6.72-16.03 0-7.33-2.19-12.66-6.58-16-4.39-3.33-11.54-5-21.46-5h-15.93v42.46zm97.95 49.04c-10.4 0-18.51-3.2-24.32-9.61-5.81-6.41-8.72-15.38-8.72-26.93 0-11.41 2.81-20.55 8.43-27.42 5.62-6.87 13.19-10.3 22.71-10.3 8.43 0 15.08 2.94 19.95 8.82 4.87 5.88 7.31 13.87 7.31 23.96v5.27H449.3c.09 9.83 2.38 17.34 6.88 22.51 4.5 5.18 10.94 7.77 19.32 7.77 4.08 0 7.67-.28 10.77-.86 3.09-.57 7.01-1.8 11.75-3.69v5.92c-4.04 1.76-7.77 2.95-11.19 3.59-3.44.65-7.21.97-11.34.97zm-1.9-68.46c-6.89 0-12.42 2.27-16.59 6.81-4.17 4.54-6.61 11.09-7.31 19.65h44.24c0-8.29-1.8-14.78-5.4-19.45-3.6-4.68-8.58-7.01-14.94-7.01zm87.75 67.15l-1.65-11.32h-.53c-3.6 4.61-7.3 7.87-11.09 9.78-3.79 1.91-8.28 2.86-13.46 2.86-7.02 0-12.49-1.8-16.39-5.4-3.91-3.6-5.86-8.58-5.86-14.94 0-6.98 2.91-12.4 8.72-16.26 5.81-3.86 14.23-5.9 25.25-6.12l13.63-.39v-4.74c0-6.8-1.38-11.94-4.15-15.4-2.76-3.47-7.22-5.2-13.36-5.2-6.63 0-13.5 1.84-20.61 5.53l-2.43-5.66c7.85-3.69 15.62-5.53 23.3-5.53 7.85 0 13.73 2.04 17.61 6.12 3.89 4.08 5.83 10.44 5.83 19.09v47.6h-4.81zm-26.33-4.61c7.64 0 13.66-2.18 18.07-6.55 4.41-4.37 6.62-10.43 6.62-18.2v-7.04l-12.51.53c-10.05.48-17.21 2.05-21.49 4.71-4.28 2.66-6.42 6.79-6.42 12.41 0 4.48 1.37 7.96 4.11 10.43 2.74 2.47 6.62 3.71 11.62 3.71zm58.13 4.61h-6.51V66.6h6.51v102.44zm15.34-33.71v-5.4h31.27v5.4h-31.27zm59.86 33.71h-6.78V79.11h-31.27v-6.32h69.32v6.32h-31.27v89.93zm40.29-91.45c0-4.21 1.39-6.32 4.15-6.32 1.36 0 2.42.55 3.19 1.65.77 1.1 1.15 2.66 1.15 4.67 0 1.98-.38 3.53-1.15 4.67-.77 1.14-1.83 1.71-3.19 1.71-2.77.01-4.15-2.12-4.15-6.38zm7.44 91.45h-6.51V97.48h6.51v71.56zm110.66 0V122.1c0-6.98-1.36-12.07-4.08-15.27-2.72-3.2-6.89-4.81-12.51-4.81-7.33 0-12.75 2.02-16.26 6.06-3.51 4.04-5.27 10.38-5.27 19.03v41.93h-6.65v-48.91c0-12.07-5.53-18.1-16.59-18.1-7.5 0-12.97 2.18-16.39 6.55-3.42 4.37-5.14 11.36-5.14 20.97v39.5h-6.51V97.48h5.4l1.38 9.81h.39c1.98-3.56 4.78-6.31 8.43-8.26 3.64-1.95 7.66-2.93 12.05-2.93 11.28 0 18.52 4.24 21.72 12.7h.26c2.33-4.08 5.45-7.22 9.38-9.41s8.39-3.29 13.4-3.29c7.81 0 13.67 2.08 17.58 6.25 3.91 4.17 5.86 10.8 5.86 19.88v46.81h-6.45zm55.83 1.31c-10.4 0-18.51-3.2-24.32-9.61-5.81-6.41-8.72-15.38-8.72-26.93 0-11.41 2.81-20.55 8.43-27.42 5.62-6.87 13.19-10.3 22.71-10.3 8.43 0 15.08 2.94 19.95 8.82 4.87 5.88 7.31 13.87 7.31 23.96v5.27h-51.55c.09 9.83 2.38 17.34 6.88 22.51 4.5 5.18 10.94 7.77 19.32 7.77 4.08 0 7.67-.28 10.77-.86 3.09-.57 7.01-1.8 11.75-3.69v5.92c-4.04 1.76-7.77 2.95-11.19 3.59-3.44.65-7.21.97-11.34.97zm-1.91-68.46c-6.89 0-12.42 2.27-16.59 6.81-4.17 4.54-6.61 11.09-7.31 19.65h44.24c0-8.29-1.8-14.78-5.4-19.45-3.59-4.68-8.58-7.01-14.94-7.01z" class="st91"/><path d="M370.97 349.19V198.76h31.9v124.09h61.02v26.34h-92.92zm114.83 0V198.76h31.9v150.43h-31.9zm199 0h-40.54l-65.44-113.8h-.92c1.3 20.1 1.95 34.43 1.95 43.01v70.79h-28.5V198.76h40.23l65.34 112.67h.72c-1.03-19.55-1.54-33.37-1.54-41.47v-71.2h28.71v150.43zm156.1-150.43v97.34c0 11.11-2.49 20.85-7.46 29.22-4.97 8.37-12.16 14.78-21.56 19.24-9.4 4.46-20.51 6.69-33.34 6.69-19.35 0-34.37-4.96-45.07-14.87-10.7-9.91-16.05-23.48-16.05-40.69v-96.93h31.79v92.09c0 11.59 2.33 20.1 6.99 25.52 4.67 5.42 12.38 8.13 23.15 8.13 10.43 0 17.99-2.73 22.69-8.18 4.7-5.45 7.05-14.01 7.05-25.67v-91.88h31.81zm154.24 150.43h-36.43l-34.98-56.9-34.98 56.9h-34.16l49.9-77.58-46.71-72.85h35.19l32.41 54.12 31.79-54.12h34.37l-47.23 74.6 50.83 75.83z" class="st90"/><path d="M155.31 369.01c-82.96 0-150.45-67.49-150.45-150.45S72.35 68.1 155.31 68.1s150.45 67.49 150.45 150.45-67.49 150.46-150.45 150.46zm0-273.11c-67.63 0-122.65 55.02-122.65 122.65S87.68 341.2 155.31 341.2s122.65-55.02 122.65-122.65S222.94 95.9 155.31 95.9z" class="st90"/><path d="M205.48 7.18H105.15c-4.74 0-8.59 3.85-8.59 8.59v10.52c0 3.2 1.78 6.14 4.63 7.62l35.71 18.57c.41.21 1.49.38 2.97.52v18.11h30.9V52.48c.21-.06.44-.11.56-.17l37.99-19c2.91-1.46 4.75-4.43 4.75-7.68v-9.85c0-4.75-3.84-8.6-8.59-8.6z" class="st90"/><path fill="#b9dbe5" d="M155.99 120.77c-.23 0-.45-.02-.68-.02-54.02 0-97.81 43.79-97.81 97.81s43.79 97.81 97.81 97.81c25.93 0 49.48-10.11 66.98-26.57l-66.3-66.3V120.77z"/><path d="M155.99 120.75v.02c.33 0 .66.02.99.02-.33-.01-.65-.03-.99-.04z" class="st91"/><path d="M156.98 120.79c-.33-.01-.66-.02-.99-.02V223.5l66.3 66.3c18.85-17.73 30.67-42.83 30.81-70.72 0-.17.01-.35.01-.52.01-53.46-42.88-96.87-96.13-97.77z" class="st91"/></svg>