<svg xmlns="http://www.w3.org/2000/svg" role="img" xmlns:xlink="http://www.w3.org/1999/xlink" viewBox="-0.07 1.68 250.64 123.64"><title>Reality Defender (member) logo</title><defs><symbol overflow="visible"><path d="M2 0v-39.98438h15.9375V0zm1.98438-2H15.9375v-36H3.98437zm0 0"/></symbol><symbol id="a" overflow="visible"><path d="M34.10938 0L23.375-17.14063H10.51562V0H4.92188v-41.28125h19.42188c2.34375 0 4.41406.27344 6.21875.8125 1.8125.53125 3.33203 1.3086 4.5625 2.32813 1.22656 1.01171 2.16406 2.25 2.8125 3.71874.64453 1.46094.96875 3.10938.96875 4.95313 0 1.30469-.19531 2.58984-.57813 3.85938-.375 1.27343-.97656 2.4375-1.79687 3.5-.82422 1.05468-1.8711 1.96093-3.14063 2.71874-1.26171.76172-2.78124 1.29688-4.5625 1.60938L40.54689 0zm-.82813-29.42188c0-1.25-.21484-2.33203-.64063-3.25-.42968-.91406-1.05468-1.67968-1.875-2.29687-.82421-.61328-1.82421-1.07031-3-1.375-1.16796-.30078-2.49218-.45313-3.96874-.45313H10.51562v15.23438h13.51563c1.59375 0 2.97266-.19531 4.14063-.59375 1.17578-.40625 2.14062-.95703 2.89062-1.65625.75781-.70703 1.3164-1.53906 1.67188-2.5.36328-.95703.54687-1.99219.54687-3.10938zm0 0"/></symbol><symbol id="b" overflow="visible"><path d="M8.09375-14.73438c0 1.65625.16406 3.1836.5 4.57813.34375 1.39844.86719 2.60156 1.57813 3.60938.71875 1 1.6328 1.78125 2.75 2.34375 1.11328.55468 2.45312.82812 4.01562.82812 2.28125 0 4.10938-.45703 5.48438-1.375 1.3828-.91406 2.3164-2.07813 2.79687-3.48438l4.64063 1.3125c-.33594.88672-.8047 1.77344-1.40626 2.65625-.59374.88672-1.39062 1.6875-2.39062 2.40625-.99219.71094-2.23438 1.29688-3.73438 1.76563-1.49218.45703-3.28906.6875-5.39062.6875-4.6875 0-8.26172-1.39453-10.71875-4.1875-2.44922-2.80078-3.67188-6.95703-3.67188-12.46875 0-2.96875.3672-5.47656 1.10938-7.53125.75-2.0625 1.76563-3.73828 3.04688-5.03125 1.28906-1.28906 2.79687-2.22266 4.51562-2.79688 1.71875-.5703 3.55469-.85937 5.51563-.85937 2.65624 0 4.875.4336 6.65624 1.29688 1.78907.85546 3.22657 2.03906 4.3125 3.54687 1.08204 1.51172 1.85157 3.29297 2.3125 5.34375.45704 2.05469.6875 4.27344.6875 6.65625v.70313zM25.25-18.78124c-.29297-3.34375-1.14063-5.78125-2.54688-7.3125-1.40624-1.53125-3.42968-2.29688-6.0625-2.29688-.875 0-1.79687.14063-2.76562.42188-.96875.28125-1.86719.78906-2.6875 1.51563-.8125.71874-1.50781 1.69921-2.07813 2.9375-.5625 1.24218-.88671 2.8203-.96875 4.73437zm0 0"/></symbol><symbol id="c" overflow="visible"><path d="M12.125.59375c-3.17969 0-5.57031-.83594-7.17188-2.51563-1.60546-1.6875-2.40625-3.99218-2.40625-6.92187 0-2.09375.39454-3.80469 1.1875-5.14063.78907-1.34375 1.82813-2.39453 3.10938-3.15625 1.28125-.7578 2.73828-1.28515 4.375-1.57812 1.64453-.28906 3.3164-.45703 5.01563-.5l7.10937-.125v-1.71875c0-1.3125-.13672-2.42578-.40625-3.34375-.27344-.91406-.69531-1.65625-1.26563-2.21875-.5625-.57031-1.27343-.98828-2.125-1.25-.84374-.25781-1.84374-.39063-3-.39063-1.01171 0-1.92968.07422-2.75.21876-.82421.14843-1.53906.41406-2.14062.79687-.60547.375-1.09375.89063-1.46875 1.54688-.36719.64843-.60547 1.46874-.71875 2.46874l-5.51563-.5c.19532-1.25.56641-2.39453 1.10938-3.4375.55078-1.03906 1.32813-1.9414 2.32813-2.70312 1.0078-.76953 2.26953-1.36328 3.78125-1.78125 1.51953-.41406 3.35156-.625 5.5-.625 3.97656 0 6.97265.91406 8.98437 2.73438 2.01953 1.82421 3.03125 4.46484 3.03125 7.92187v13.65625c0 1.5625.20313 2.74219.60938 3.53125.40624.79297 1.1875 1.1875 2.34374 1.1875.28907 0 .58204-.01953.875-.0625.28907-.03906.57813-.08594.85938-.14063v3.28125c-.66797.15626-1.32813.26954-1.98438.34376-.65624.08203-1.35546.125-2.09374.125-1 0-1.85547-.13282-2.5625-.39063-.71094-.26953-1.29297-.67188-1.75-1.20313-.44922-.53906-.79297-1.20703-1.03126-2-.23046-.78906-.37109-1.71093-.42187-2.76562h-.1875c-.5625 1.01172-1.1836 1.92969-1.85938 2.75-.66796.82422-1.45312 1.52344-2.35937 2.09375-.89844.57422-1.91797 1.01563-3.0625 1.32813-1.13672.3203-2.44922.48437-3.9375.48437zM13.32813-3.375c1.67578 0 3.14453-.30469 4.40625-.92188 1.2578-.61328 2.30468-1.39843 3.14062-2.35937.83203-.95703 1.45313-2 1.85938-3.125.40624-1.13281.60937-2.21875.60937-3.25v-2.60938l-5.76563.10938c-1.29296.02344-2.52343.11719-3.6875.28125-1.15625.16797-2.17968.4961-3.0625.98438-.875.49218-1.57421 1.17187-2.09375 2.04687-.51171.875-.76562 2.02734-.76562 3.45313 0 1.71875.46094 3.04687 1.39063 3.98437.92578.9375 2.25 1.40625 3.96875 1.40625zm0 0"/></symbol><symbol id="d" overflow="visible"><path d="M4.04688 0v-43.48438H9.3125V0zm0 0"/></symbol><symbol id="e" overflow="visible"><path d="M4.01563-38.4375v-5.04688h5.26562v5.04688zm0 38.4375v-31.70313h5.26562V0zm0 0"/></symbol><symbol id="f" overflow="visible"><path d="M16.23438-.23438c-.8047.21876-1.6211.39063-2.45313.51563-.82422.125-1.78125.1875-2.875.1875-4.21875 0-6.32813-2.39063-6.32813-7.17188v-21.15624H.90625v-3.84376h3.875l1.54688-7.09374h3.51562v7.09374h5.85938v3.84376H9.84375v20c0 1.53125.25 2.60546.75 3.21875.5.61718 1.36328.92187 2.59375.92187.50781 0 1-.03516 1.46875-.10938a51.98793 51.98793 0 0 0 1.57813-.29687zm0 0"/></symbol><symbol id="g" overflow="visible"><path d="M17.70313 0c-.75 1.91406-1.51172 3.64063-2.28126 5.17188-.77343 1.53125-1.63671 2.83593-2.59375 3.92187-.96093 1.08203-2.02734 1.91016-3.20312 2.48438-1.16797.58203-2.51172.875-4.03125.875-.66797 0-1.28125-.02344-1.84375-.0625-.5625-.04297-1.15625-.13282-1.78125-.26563V8.17187c.36328.0625.78125.10157 1.25.125.46875.03125.86719.04688 1.20313.04688 1.53906 0 2.97265-.57813 4.29687-1.73438 1.33203-1.14843 2.5-2.98046 3.5-5.5l.5-1.25L.14062-31.70313h5.625l6.6875 17.51563c.19532.53125.44532 1.24219.75 2.125.30079.875.60157 1.75781.90625 2.64063.30079.875.56641 1.66796.79688 2.375.23828.69921.3789 1.1328.42188 1.29687.05078-.20703.1875-.6289.40625-1.26563.22656-.6328.48437-1.34375.76562-2.125.28906-.78125.58203-1.5703.875-2.375.28906-.80078.53516-1.49218.73438-2.07812l6.20312-18.10938h5.57813zm0 0"/></symbol><symbol id="h" overflow="visible"><path d="M40.45313-21.0625c0 3.4375-.51563 6.46875-1.54688 9.09375s-2.44922 4.82422-4.25 6.59375c-1.79297 1.77344-3.91797 3.10938-6.375 4.01563C25.83203-.45313 23.19141 0 20.35937 0H4.92188v-41.28125h13.65625c3.17579 0 6.10938.39844 8.79688 1.1875 2.6875.79297 4.99219 2.01563 6.92188 3.67188 1.9375 1.64843 3.4453 3.74218 4.53124 6.28124 1.08204 2.53126 1.625 5.5586 1.625 9.07813zm-5.625 0c0-2.78906-.40235-5.17578-1.20313-7.15625-.79297-1.98828-1.91406-3.61719-3.35938-4.89063-1.44921-1.26953-3.17968-2.20312-5.1875-2.79687-2.01171-.59375-4.21874-.89063-6.625-.89063h-7.9375v32.3125h9.20313c2.16406 0 4.17188-.34765 6.01563-1.04687 1.84374-.70703 3.4375-1.7539 4.78124-3.14063 1.35157-1.3828 2.41016-3.11328 3.17188-5.1875.75781-2.0703 1.14063-4.47265 1.14063-7.20312zm0 0"/></symbol><symbol id="i" overflow="visible"><path d="M10.57813-27.85938V0H5.29688v-27.85938H.84375v-3.84374h4.45313v-3.57813c0-1.14453.10937-2.21094.32812-3.20313.21875-.98828.61328-1.84765 1.1875-2.57812.57031-.72656 1.35938-1.30078 2.35938-1.71875 1-.42578 2.28515-.64063 3.85937-.64063.625 0 1.27344.03126 1.95313.09376.67578.05468 1.26953.14062 1.78125.26562v4.01563c-.33594-.0625-.72657-.11329-1.17188-.15626-.4375-.05078-.82813-.07812-1.17188-.07812-.78125 0-1.42187.10938-1.92187.32813-.5.21093-.89063.51562-1.17188.92187-.28125.39844-.48046.88672-.59375 1.46875-.10546.58594-.15625 1.25781-.15625 2.01563v2.84374h6.1875v3.84376zm0 0"/></symbol><symbol id="j" overflow="visible"><path d="M24.17188 0v-20.09375c0-1.53906-.1172-2.82813-.34376-3.85938-.21874-1.03906-.58593-1.8789-1.09374-2.51562-.51172-.63281-1.1836-1.08203-2.01563-1.34375-.82422-.26953-1.85156-.40625-3.07813-.40625-1.25 0-2.3828.22656-3.39062.67188-1 .4375-1.85938 1.07421-2.57813 1.90624-.71093.82422-1.26171 1.84376-1.65625 3.0625-.38671 1.21876-.57812 2.6211-.57812 4.20313V0H4.15625v-24.9375c0-.65625-.00781-1.34766-.01563-2.07813-.01171-.73828-.02734-1.4375-.04687-2.09374-.01172-.65626-.02734-1.21876-.04688-1.6875-.02343-.46876-.04296-.76954-.0625-.90626h4.98438c.01953.10547.03516.3711.04688.79688.01953.42969.04687.92188.07812 1.48438.03125.55468.05469 1.12109.07813 1.70312.01953.57422.03125 1.05469.03125 1.4375h.07812c.50781-.91406 1.0664-1.74219 1.67188-2.48438.60156-.75 1.30468-1.3789 2.10937-1.89062.80078-.51953 1.71875-.92188 2.75-1.20313 1.03906-.28124 2.24219-.42187 3.60938-.42187 1.7578 0 3.27343.21484 4.54687.64063 1.26953.42968 2.3125 1.09374 3.125 2 .82031.89843 1.42188 2.05468 1.79688 3.46874.3828 1.41797.57812 3.10157.57812 5.04688V0zm0 0"/></symbol><symbol id="k" overflow="visible"><path d="M24.04688-5.09375c-.96876 2.03125-2.26172 3.49219-3.875 4.375-1.6172.875-3.60938 1.3125-5.98438 1.3125-4.01172 0-6.96094-1.34766-8.84375-4.04688-1.88672-2.6953-2.82813-6.78125-2.82813-12.25 0-11.05078 3.89063-16.57812 11.67188-16.57812 2.39453 0 4.39453.4375 6 1.3125 1.60156.875 2.89063 2.27344 3.85938 4.1875h.0625c0-.19531-.00782-.5039-.01563-.92188-.01172-.41406-.02344-.85156-.03125-1.3125-.01172-.45703-.01563-.89062-.01563-1.29687v-13.17187h5.28126v36.95312c0 .76172.0039 1.4961.01562 2.20313.00781.69921.02344 1.33984.04688 1.92187.01953.58594.03515 1.08984.04687 1.51563.01953.41796.03906.71484.0625.89062h-5.03125c-.04297-.19531-.07813-.47266-.10938-.82813-.03124-.36328-.0625-.78124-.09374-1.25-.02344-.46875-.04297-.96093-.0625-1.48437-.02344-.51953-.03126-1.03125-.03126-1.53125zM8.0625-15.875c0 2.1875.13281 4.0625.40625 5.625.26953 1.5625.70703 2.85156 1.3125 3.85938.60156 1 1.375 1.73437 2.3125 2.20312.9375.46875 2.08203.70313 3.4375.70313 1.38281 0 2.60938-.22266 3.67188-.67188 1.0625-.44531 1.9453-1.17578 2.65624-2.1875.71876-1.00781 1.25782-2.32031 1.625-3.9375.375-1.625.5625-3.60938.5625-5.95313 0-2.23828-.1875-4.1328-.5625-5.6875-.36718-1.5625-.91406-2.8164-1.64062-3.76562-.71875-.95703-1.60156-1.64453-2.64063-2.0625-1.04296-.42578-2.24609-.64063-3.60937-.64063-1.29297 0-2.40625.22657-3.34375.67188-.9375.44922-1.71875 1.17188-2.34375 2.17188-.625 1-1.08984 2.29687-1.39063 3.89062-.30468 1.58594-.45312 3.51172-.45312 5.78125zm0 0"/></symbol><symbol id="l" overflow="visible"><path d="M4.15625 0v-24.3125c0-.66406-.00781-1.34375-.01563-2.03125-.01171-.69531-.02734-1.36719-.04687-2.01563-.01172-.64453-.02734-1.25-.04688-1.8125-.02343-.5703-.04296-1.08203-.0625-1.53124h4.98438c.01953.44921.03906.96484.0625 1.54687.03125.57422.0625 1.16406.09375 1.76563.03125.60546.05078 1.1875.0625 1.75.00781.55468.01563 1.02734.01563 1.42187h.10937c.375-1.21875.76953-2.26953 1.1875-3.15625.42578-.88281.92188-1.61328 1.48438-2.1875.5625-.58203 1.23437-1.01563 2.01562-1.29688.78125-.28124 1.72656-.42187 2.84375-.42187.42578 0 .83203.03906 1.21875.10938.39453.0625.70313.12109.92188.17187v4.84375c-.35547-.10156-.76563-.17578-1.23438-.21875-.46875-.05078-.9961-.07813-1.57813-.07813-1.21093 0-2.24218.27735-3.09374.82813-.84375.54297-1.53907 1.29688-2.07813 2.26563-.53125.96874-.92969 2.125-1.1875 3.46874-.25 1.33594-.375 2.78907-.375 4.35938V0zm0 0"/></symbol></defs><use y="50" xlink:href="#a"/><use x="43.33" y="50" xlink:href="#b"/><use x="76.699" y="50" xlink:href="#c"/><use x="110.068" y="50" xlink:href="#d"/><use x="123.398" y="50" xlink:href="#e"/><use x="136.729" y="50" xlink:href="#f"/><use x="153.398" y="50" xlink:href="#g"/><g><use y="120" xlink:href="#h"/><use x="43.33" y="120" xlink:href="#b"/><use x="76.699" y="120" xlink:href="#i"/><use x="93.369" y="120" xlink:href="#b"/><use x="126.738" y="120" xlink:href="#j"/><use x="160.107" y="120" xlink:href="#k"/><use x="193.477" y="120" xlink:href="#b"/><use x="226.846" y="120" xlink:href="#l"/></g></svg>