<svg xmlns="http://www.w3.org/2000/svg" role="img" viewBox="103.16 -3.34 193.42 251.42"><title>Rend-o-matic logo</title><style>svg {enable-background:new 0 0 400 245}</style><style>.st0{fill:#010101}</style><g><path d="M108.1,1.7v214.1c0.6,0.1,1.1,0.1,1.7,0.1c60.7,0,121.5,0,182.2,0V1.7H108.1z M274.5,198.2 c-49.6,0-99.1,0-148.7,0c0-59.6,0-119.2,0-178.9c49.6,0,99.1,0,148.7,0C274.5,79,274.5,138.6,274.5,198.2z" class="st0"/><path d="M139.2 31.7c12.2 0 24.5 0 36.7 0 0 27.9 0 55.7 0 83.6-12.2 0-24.5 0-36.7 0C139.2 87.4 139.2 59.5 139.2 31.7L139.2 31.7zM186.5 31.7c6.8 0 13.7 0 20.6 0 5.9 0 11.8.7 17.5 2.4 3.6 1.1 7.1 2.7 10.3 4.7 4.5 2.8 8.3 6.5 11.3 10.9 4.6 6.7 7 14.8 7.4 22.9.2 5.7-.2 11.4-1.8 17-1.7 6.1-5 11.7-9.7 16-5 4.6-11.3 7.5-17.9 9.2-.5.1-.9.2-1.3.5-.5.1-1 0-1.4 0-11.6 0-23.2 0-34.9 0 0-6.8 0-13.6 0-20.5 2.4 0 4.8 0 7.2 0 4 0 8.2-.5 12-2 3-1.2 5.8-3.1 7.6-5.8 2-2.8 2.7-6.2 2.7-9.6 0-3.3-.7-6.6-2.5-9.4-1.9-2.9-4.8-4.9-8-6.1-4.2-1.6-8.9-2-13.4-1.9-1.8-.1-3.7 0-5.5-.1C186.5 50.5 186.5 41.1 186.5 31.7L186.5 31.7zM176 127c0 19.2 0 38.4 0 57.7-12.2 0-24.5 0-36.7 0 0-19.2 0-38.4 0-57.6C151.5 127 163.7 127.1 176 127L176 127zM186.5 127.1c12.2 0 24.4 0 36.6 0 14.7 19.2 29.5 38.4 44.2 57.6-15.2 0-30.5 0-45.7 0-11.2-17.4-22.4-34.8-33.7-52.1-.5-.7-.9-1.4-1.4-2.1C186.5 129.3 186.5 128.2 186.5 127.1L186.5 127.1z" class="st0"/><g><path d="M173.7 220.2c-.1 3.3 0 6.7 0 10-2.3-2.5-6.4-2.3-8.9-.1-2.7 2.3-3.2 6.5-1.5 9.6 1.2 2.2 3.5 3.6 5.9 3.6 1.8 0 3.3-.6 4.4-1.9 0 .5 0 1 0 1.5 1.7.1 3.3 0 5 0 0-7.5 0-15.1 0-22.6C177 220.2 175.4 220.2 173.7 220.2zM173.5 237.3c-.6 1.2-2 1.9-3.4 1.6-1.3-.2-2.3-1.3-2.5-2.5-.3-1.5.7-3.2 2.2-3.6.9-.2 1.8-.1 2.5.3C173.7 234 174.3 235.9 173.5 237.3zM274.7 220.8c-1.2.4-2 1.5-2 2.7-.1 1.8 1.8 3.1 3.5 2.6 1.6-.4 2.4-2.2 1.9-3.7C277.6 221.1 276.1 220.4 274.7 220.8zM122.5 232.4c.9-1.2 1.2-2.7 1.1-4.1-.1-1.7-.8-3.4-2.1-4.6-1.3-1.1-3.1-1.5-4.8-1.5-2.7 0-5.4 0-8.1 0l-.1 0c0 6.8 0 13.7 0 20.5 1.8 0 3.6 0 5.3 0 0-2.6 0-5.3 0-7.9 1.7 2.6 3.4 5.3 5.1 7.9 2.2 0 4.4 0 6.7 0-2.1-2.8-4.3-5.6-6.4-8.4C120.5 234.1 121.7 233.5 122.5 232.4zM117.1 230.9c-1 .6-2.1.5-3.2.5 0-1.7 0-3.4 0-5 1.1 0 2.2-.1 3.2.5C118.5 227.7 118.5 230.1 117.1 230.9zM268 228.8c-.1-1.4 0-2.8 0-4.2-1.6 0-3.3 0-4.9 0 0 1.4 0 2.8 0 4.2-.5 0-1.1 0-1.6 0 0 1.4 0 2.8 0 4.1.5 0 1.1 0 1.6 0 .1 3.3 0 6.6 0 9.9 1.6 0 3.3 0 4.9 0 0-3.3-.1-6.6.1-9.9.9 0 1.8 0 2.8 0 0-1.4 0-2.8 0-4.1C269.8 228.8 268.9 228.8 268 228.8zM135.8 228.4c-1.9-.3-4-.1-5.7.8-1.2.6-2.2 1.6-2.8 2.8-.8 1.5-1 3.3-.8 4.9.2 1.8 1.1 3.4 2.4 4.6 1.6 1.3 3.6 1.8 5.6 1.8 1.8 0 3.6-.4 5-1.5 1.1-.8 1.7-2 2.1-3.3-1.6 0-3.2 0-4.8 0-.4.6-1 1.1-1.7 1.2-1 .2-2.3 0-3-.8-.6-.7-.7-1.5-.7-2.3 3.5 0 6.9 0 10.4 0 0-1.9-.2-3.8-1.3-5.4C139.4 229.6 137.7 228.7 135.8 228.4zM131.6 233.8c.1-.9.7-1.7 1.6-2.1 1-.4 2.4-.2 3.2.6.5.4.7.9.9 1.5C135.4 233.8 133.5 233.8 131.6 233.8zM195.7 228.5c-1.9.4-3.8 1.4-5 3-1.8 2.4-1.9 5.9-.2 8.4.9 1.4 2.2 2.4 3.7 2.9 1.6.6 3.3.7 4.9.5 2.2-.3 4.3-1.3 5.6-3.1 2-2.7 1.8-6.9-.6-9.3C201.9 228.6 198.6 228 195.7 228.5zM200.5 237.2c-.6 1.3-2.1 2-3.5 1.7-1.5-.3-2.5-1.7-2.5-3.2 0-1.5 1.2-3 2.8-3.1.8-.1 1.6.1 2.3.6C200.7 234.1 201.2 235.8 200.5 237.2zM155 228.6c-1.1-.1-2.2-.1-3.3.4-.8.4-1.4.9-2 1.6 0-.6 0-1.2 0-1.7-1.7 0-3.3 0-5 0 0 4.7 0 9.3 0 14 1.7.1 3.3 0 5 0 0-2.6 0-5.1 0-7.7 0-1 .4-1.9 1.3-2.4.9-.4 2.3-.4 3 .4.5.5.6 1.3.6 2 0 2.6 0 5.1 0 7.7 1.6 0 3.3 0 4.9 0 0-2.8 0-5.7 0-8.5 0-1.1 0-2.3-.6-3.3C158.2 229.6 156.6 228.7 155 228.6zM259.3 228.8c-1.7 0-3.3 0-4.9 0-.1.5 0 .9 0 1.3-.9-.8-1.8-1.4-2.9-1.6-2.2-.5-4.6.2-6.2 1.8-2.7 2.7-2.9 7.4-.6 10.4 1.7 2.2 4.8 3.1 7.4 2.2.9-.3 1.7-.9 2.3-1.6 0 .5-.1 1 .1 1.5 1.6 0 3.2 0 4.9 0C259.3 238.2 259.2 233.5 259.3 228.8zM254.4 236.2c-.2 1.6-1.6 2.9-3.2 2.8-1.6 0-2.9-1.2-3.1-2.8-.2-1.5.7-2.9 2.1-3.4.5-.2 1.2-.2 1.7-.1C253.5 233.1 254.6 234.6 254.4 236.2zM288.8 232.5c1.2-.1 2.1.3 3.1.9v-4.1c-.5-.4-1.2-.6-1.9-.7-2.6-.5-5.5.3-7.3 2.2-2.4 2.5-2.7 6.7-.6 9.4 1.7 2.4 4.9 3.5 7.7 2.9.7-.1 1.4-.4 2-.6 0-1.4 0-2.8 0-4.2-1.2.9-2.7 1.3-4.1.6-1.4-.6-2.1-2.3-1.8-3.7C286.2 233.7 287.4 232.7 288.8 232.5zM236.9 228.7c-1.3-.3-2.8-.2-4 .5-.9.5-1.5 1.2-2 2-1-1.6-2.6-2.6-4.5-2.6-1.8-.1-3.5.7-4.8 1.9 0-.6 0-1.1 0-1.7-1.6 0-3.3 0-4.9 0 0 4.7 0 9.3 0 14 1.6 0 3.3 0 4.9 0 0-2.4 0-4.9 0-7.3.1-1 .2-2.3 1.1-2.9.6-.4 1.8-.4 2.4 0 .7.6.8 1.8.9 2.7 0 2.5 0 5 0 7.5 1.6 0 3.3 0 4.9 0 .1-2.5 0-5 .1-7.5.1-.9.3-2 1.1-2.6.8-.5 2.2-.5 2.8.5.4.7.5 1.5.5 2.3 0 2.4 0 4.8 0 7.2l.1.1c1.6 0 3.2 0 4.9 0 0-3 0-6 0-8.9 0-1.3-.2-2.6-1-3.7C238.8 229.4 237.9 228.9 236.9 228.7zM273 228.8c0 4.5 0 9 0 13.5 0 .2 0 .3.1.4 1.6 0 3.2 0 4.9 0 0-4.7 0-9.3 0-14C276.3 228.8 274.6 228.8 273 228.8zM180.2 233.5c0 1.4 0 2.7 0 4.1 2.6 0 5.2 0 7.8 0 0-1.4 0-2.7 0-4.1C185.4 233.5 182.8 233.5 180.2 233.5zM207 233.5c0 1.4 0 2.7 0 4.1 2.6 0 5.2 0 7.8 0 0-1.4 0-2.7 0-4.1C212.2 233.5 209.6 233.4 207 233.5z" class="st0"/></g></g></svg>