<svg xmlns="http://www.w3.org/2000/svg" role="img" viewBox="-9.44 -10.44 542.88 150.38"><title>resolve.ai (member) logo</title><path fill="#222" d="M510.325 36.28c-3.06 0-5.44-1.87-5.44-4.845 0-3.74 3.91-7.82 9.01-7.82 3.06 0 5.61 1.955 5.61 5.015 0 3.74-4.165 7.65-9.18 7.65zm-5.185 50.575c-1.7 0-2.38-1.02-2.38-2.04 0-3.315 5.185-1.19 5.185-7.735V57.7c0-5.355-5.865-2.72-5.865-6.29 0-1.53 1.785-2.635 7.055-5.015 4.93-2.295 5.95-2.55 6.715-2.55 1.7 0 2.295 1.36 2.295 3.485v29.75c0 6.545 5.27 4.42 5.27 7.735 0 .935-.765 2.04-2.38 2.04-1.955 0-4.335-.255-7.99-.255-3.655 0-5.95.255-7.905.255zm-5.964-6.3751c.935.17 1.445.68 1.445 1.53 0 1.955-3.57 5.27-8.925 5.27-3.655 0-6.885-2.04-8.5-6.12-3.23 3.485-8.755 6.375-15.555 6.375-9.095 0-14.875-5.27-14.875-12.835 0-7.565 6.46-13.6 17.595-13.6 3.825 0 7.055.595 9.945 1.445l-.17-1.02c-1.19-8.33-4.505-11.135-9.775-11.135-3.74 0-7.055 1.785-9.86 4.08-1.105.68-1.955 1.105-2.72 1.105-.935 0-1.955-.765-1.955-2.04 0-1.19 1.02-2.38 2.04-3.485 3.06-3.655 9.095-6.63 15.895-6.63 10.795 0 14.875 6.46 16.15 15.3l1.955 14.11c.85 6.035 2.805 6.8 7.31 7.65zm-27.54.85c4.25 0 8.33-2.465 10.455-5.185l-1.105-8.585c-2.465-.935-5.015-1.36-7.735-1.36-6.205 0-9.775 2.72-9.775 7.48 0 4.59 3.315 7.65 8.16 7.65zM440.52 75.38c3.91 0 6.63 2.125 6.63 5.695 0 3.485-3.145 6.29-7.565 6.29-3.91 0-6.545-2.125-6.545-5.695 0-3.485 3.145-6.29 7.48-6.29zm-14.604-.425c1.19 0 1.955 1.105 1.955 2.125 0 .595-.255 1.275-.85 2.125-2.975 4.42-10.54 9.01-19.38 9.01-12.41 0-22.185-8.415-22.185-22.44 0-13.77 10.37-22.95 22.27-22.95 11.22 0 18.445 8.33 18.445 16.66 0 2.125-.68 2.635-2.125 3.06l-26.435 7.99c2.55 6.12 7.735 10.625 14.365 10.625 4.59 0 8.5-1.955 11.475-4.76 1.105-1.02 1.7-1.445 2.465-1.445zM406.281 48.52c-5.95 0-10.37 5.185-10.37 13.345 0 1.275.085 2.465.255 3.655l17.255-5.44c1.445-.425 1.955-.935 1.955-2.465 0-4.08-3.74-9.095-9.095-9.095zm-23.846-4.3349c1.36 0 2.38.68 2.38 1.955 0 2.89-4.25 1.955-6.375 6.97l-12.92 30.855c-.85 2.125-1.7 3.145-5.44 3.145-3.655 0-4.59-.935-5.525-3.23l-13.005-30.685c-2.21-5.185-6.29-4.165-6.29-7.055 0-1.275 1.02-1.955 2.295-1.955 2.21 0 4.675.255 8.84.255 3.74 0 6.29-.255 8.33-.255 1.7 0 2.72.68 2.72 2.04 0 2.975-4.59 1.955-4.59 5.865 0 1.02.425 2.72 1.36 5.015l8.16 20.655 8.075-20.655c.85-2.465 1.445-3.91 1.445-5.27 0-3.4-4.76-2.635-4.76-5.61 0-1.36.935-2.04 2.635-2.04 1.785 0 3.91.255 6.205.255s4.505-.255 6.46-.255zM315.614 86.855c-1.785 0-2.465-1.02-2.465-2.04 0-3.315 5.185-1.19 5.185-7.735V35.855c0-5.27-5.865-2.635-5.865-6.205 0-1.615 1.87-2.635 7.055-5.1 4.93-2.295 5.95-2.55 6.8-2.55 1.7 0 2.21 1.445 2.21 3.57v51.51c0 6.545 5.27 4.42 5.27 7.735 0 .935-.765 2.04-2.38 2.04-1.955 0-4.335-.255-7.99-.255-3.655 0-5.95.255-7.82.255zm-31.794 1.36c-14.11 0-23.29-9.435-23.29-22.27 0-13.26 10.37-23.12 24.565-23.12 14.025 0 23.205 9.435 23.205 22.355 0 13.345-10.54 23.035-24.48 23.035zm2.04-5.525c7.225 0 11.475-5.78 11.475-14.28 0-9.605-5.695-20.06-14.28-20.06-7.225 0-11.475 5.78-11.475 14.365 0 9.52 5.61 19.975 14.28 19.975zm-63.331 5.355c-1.615 0-2.38-1.785-3.06-3.23l-2.72-5.78c-1.36-2.89-2.21-4.25-2.21-5.61 0-1.36.85-2.125 1.955-2.125.935 0 1.87.765 2.975 1.785 5.27 5.185 11.39 9.265 18.02 9.265 5.1 0 8.16-2.72 8.16-5.95 0-4.335-4.845-5.185-12.07-6.885-8.67-1.955-18.02-5.015-18.02-13.685 0-7.055 6.375-12.325 15.3-12.325 4.845 0 8.585 1.53 10.03 1.53 1.53 0 1.53-1.7 3.315-1.7 1.615 0 2.465 1.445 3.57 3.06l2.975 4.76c1.02 1.7 1.955 3.485 1.955 4.59 0 1.19-.85 1.955-1.785 1.955-1.02 0-1.955-.935-2.975-1.785-4.505-3.995-10.455-7.31-15.81-7.31-3.995 0-6.46 1.955-6.46 4.76 0 3.825 4.165 4.675 11.815 6.63 9.265 2.125 18.19 4.93 18.19 14.195 0 8.33-7.735 13.345-18.02 13.345-5.865 0-9.605-1.7-11.05-1.7-1.955 0-2.125 2.21-4.08 2.21zm-14.093-13.09c1.19 0 1.955 1.105 1.955 2.125 0 .595-.255 1.275-.85 2.125-2.975 4.42-10.54 9.01-19.38 9.01-12.41 0-22.185-8.415-22.185-22.44 0-13.77 10.37-22.95 22.27-22.95 11.22 0 18.445 8.33 18.445 16.66 0 2.125-.68 2.635-2.125 3.06l-26.435 7.99c2.55 6.12 7.735 10.625 14.365 10.625 4.59 0 8.5-1.955 11.475-4.76 1.105-1.02 1.7-1.445 2.465-1.445zM188.801 48.52c-5.95 0-10.37 5.185-10.37 13.345 0 1.275.085 2.465.255 3.655l17.255-5.44c1.445-.425 1.955-.935 1.955-2.465 0-4.08-3.74-9.095-9.095-9.095zm-32.346 27.455c5.015 6.46 9.605 5.44 9.605 8.925 0 1.19-.85 1.955-2.295 1.955-1.87 0-5.865-.255-9.775-.255-3.655 0-7.055.255-9.265.255-1.955 0-2.975-.68-2.975-2.125 0-2.89 4.25-1.87 4.25-4.845 0-1.275-.935-2.55-1.87-3.825l-7.055-9.35c-1.275-1.53-2.38-2.125-3.91-2.04-2.38.085-4.845.085-7.31 0-1.53-.085-2.04.51-2.04 1.87v10.88c0 5.865 5.61 3.91 5.61 7.395 0 1.02-.68 2.04-2.55 2.04-2.04 0-4.76-.255-8.755-.255-3.995 0-6.375.255-8.415.255-1.87 0-2.55-1.02-2.55-2.04 0-3.485 5.44-1.53 5.44-7.395V35.43c0-5.865-5.44-3.91-5.44-7.395 0-1.02.68-2.04 2.805-2.04 1.615 0 4.59.255 7.735.255 3.57 0 9.265-.51 13.94-.51 19.295 0 28.9 8.16 28.9 19.975 0 8.755-5.355 15.13-13.685 17.51l9.605 12.75zm-25.075-16.49c9.86 0 16.745-2.89 16.745-13.685 0-9.52-7.14-14.28-16.915-14.28-5.185 0-7.395.85-7.395 4.165V56.51c0 2.38 1.615 2.975 7.565 2.975z"/><path fill="#D9F400" d="M33 0H1v62l63.0005 68L64 58H48.2426C57.6503 52.6775 64 42.5803 64 31 64 13.8792 50.1208 0 33 0z"/><path fill="#222" fill-rule="evenodd" d="M1 0h32c17.1208 0 31 13.8792 31 31 0 11.5803-6.3497 21.6775-15.7574 27H64l.0005 72L1 62V0zm4 4h28c14.9117 0 27 12.0883 27 27S47.9117 58 33 58H5V4zm1.45287 58l53.54753 57.797L60 62H6.45287z" clip-rule="evenodd"/></svg>