<svg xmlns="http://www.w3.org/2000/svg" role="img" viewBox="-6.17 68.08 412.10 108.60"><title>Revelry Labs logo</title><style>svg {enable-background:new 0 0 400 245}</style><path fill="#faab18" d="M30.38 76.2c-.07-.08-.17-.13-.28-.13H14.02c-.18 0-.33.13-.36.31L1.85 150.9c-.02.1.01.21.08.29.07.08.17.13.28.13H18.3c.18 0 .33-.13.36-.31l11.81-74.52c.01-.1-.02-.21-.09-.29z"/><path fill="#323232" d="M246.34 93.58c-15.67 0-27.49 12.41-27.49 28.87v.2c0 16.61 12.2 28.67 29 28.67 9.5 0 17.13-3.49 22.68-10.36.24-.3.21-.74-.08-1l-8.79-7.77c-.14-.12-.31-.18-.48-.18-.18 0-.35.06-.49.19-4.16 3.85-7.7 5.35-12.64 5.35-6.36 0-10.7-3.24-12.31-9.14h36.75c.38 0 .7-.29.72-.67.1-1.4.2-2.84.2-4.09 0-8.17-2.33-15.59-6.56-20.88-4.79-6.01-11.88-9.19-20.51-9.19zm10.57 23.81h-21.4c1.38-6.4 5.29-10.05 10.83-10.05 5.56 0 9.47 3.74 10.57 10.05zm38.64-40.46h-15.89c-.19 0-.38.08-.51.21-.14.14-.21.32-.21.51l.18 72.89c0 .4.33.72.73.72h15.89c.19 0 .38-.08.51-.21.14-.14.21-.32.21-.51l-.18-72.89c-.01-.4-.33-.72-.73-.72zm101.88 16.59h-16.52c-.32 0-.59.2-.69.5l-11.55 36.04-12.05-36.05c-.1-.3-.38-.5-.69-.5H339.1c-.24 0-.46.12-.6.32-.14.2-.16.45-.08.67l21.84 55.94c-1.38 2.76-2.74 3.84-4.81 3.84l-8.38.03c-.23 0-.45.11-.59.3-.14.19-.17.43-.1.65l4.4 13.16c.1.3.38.5.69.5l5.97-.02c10.6 0 15.18-6.51 19.14-17.02l21.51-57.33c.05-.1.07-.2.07-.31 0-.4-.33-.72-.73-.72zm-260.38-.04c-15.67 0-27.49 12.41-27.49 28.87v.2c0 16.61 12.2 28.67 29 28.67 9.5 0 17.13-3.49 22.68-10.36.24-.3.21-.74-.08-1l-8.79-7.77c-.14-.12-.31-.18-.48-.18-.18 0-.35.06-.49.19-4.16 3.85-7.7 5.36-12.64 5.36-6.36 0-10.7-3.24-12.31-9.14h36.75c.38 0 .7-.29.72-.67.1-1.4.2-2.84.2-4.09 0-8.17-2.33-15.59-6.56-20.88-4.79-6.02-11.88-9.2-20.51-9.2zm10.57 23.81h-21.4c1.38-6.4 5.29-10.05 10.83-10.05 5.56 0 9.46 3.74 10.57 10.05zM221.81 94c0-.4-.32-.73-.72-.73h-16.53c-.31 0-.59.2-.69.49l-11.96 35.48-11.86-35.48c-.1-.3-.38-.5-.69-.5h-16.83c-.24 0-.46.12-.6.32-.14.2-.16.45-.08.67l22.06 56.45c.11.28.38.46.68.46h14.43c.3 0 .57-.18.68-.46l22.03-56.39c.05-.08.08-.19.08-.31zm111.03 2.29l-.75-1.92c-.11-.28-.38-.46-.68-.46h-1.6c-.01 0-.2-.01-.51-.01-.39 0-.8.02-1.21.06-3.02.13-5.93.64-8.62 1.53v-1.13c0-.4-.33-.73-.73-.73H302.8c-.4 0-.73.32-.73.73v56.26c0 .4.32.73.73.73h15.95c.4 0 .73-.33.73-.73V116.5c0-.03 0-.06-.01-.09 0-.02-.24-2.23 1.35-4.02 1.45-1.63 3.95-2.46 7.42-2.46l.27-.01c.24-.01.48-.03.73-.03h7.83c.24 0 .46-.12.6-.32.14-.2.16-.45.08-.67l-4.91-12.61zM92.02 124.75c9.87-3.99 15.29-12.14 15.29-23.03v-.21c0-7.04-2.24-13-6.49-17.24-4.99-4.99-12.54-7.63-21.84-7.63H45.81c-.05-.01-.1-.02-.16-.02h-8.76c-.36 0-.66.26-.72.61l-.12.76-2.18 13.76c-.03.21.03.42.16.58.14.16.34.25.55.25H44.8v57.95c0 .4.33.73.73.73h16.1c.4 0 .73-.33.73-.73v-22.69H73.9l15.46 23.09c.13.2.36.32.6.32h18.82c.27 0 .52-.15.64-.39.13-.24.11-.53-.04-.75l-17.36-25.36zm-2.46-22.4v.21c0 5.94-4.45 9.62-11.61 9.62H62.36V92.62h15.27c7.69 0 11.93 3.46 11.93 9.73z"/></svg>