<svg xmlns="http://www.w3.org/2000/svg" role="img" viewBox="-5.13 57.87 410.02 129.02"><title>Ripple Labs Inc. logo</title><style>svg {enable-background:new 0 0 400 245}</style><path fill="#434c55" d="M146.57 108.61c-1.04-.35-3.24-.58-5.44-.58-6.6 0-13.66 5.34-13.66 11.94v31.46h-15.05V95.3h14.47v5.67c3.36-4.17 9.49-6.83 16.32-6.83 2.2 0 3.47.23 5.09.46l-1.73 14.01zm17.01-42.82c5.44 0 9.84 4.17 9.84 9.61 0 5.44-4.4 9.61-9.84 9.61-5.44 0-9.84-4.17-9.84-9.61.01-5.44 4.4-9.61 9.84-9.61zm7.53 85.65h-15.05V95.3h15.05v56.14zm44.44-57.3c-6.37 0-12.04 2.09-16.43 5.68V95.3h-14.47v83.91h15.05V147.5c4.52 3.47 9.38 5.09 15.05 5.09 8.33 0 16.32-3.71 21.29-9.49 4.4-5.09 7.06-12.03 7.06-19.67-.01-16.55-12.28-29.29-27.55-29.29zm-1.83 44.79c-9.35 0-15.49-6.45-15.49-15.46s6.14-15.46 15.49-15.46c7.98 0 14.45 6.92 14.45 15.46 0 8.54-6.47 15.46-14.45 15.46zm120.69 12.51h-15.05V69.26h15.05v82.18zm61.34-8.92c-5.44 6.48-14.35 10.07-23.03 10.07-16.78 0-29.4-11.57-29.4-29.17 0-15.62 10.65-29.28 27.31-29.28 15.51 0 26.5 13.08 26.5 28.7 0 1.5-.12 3.01-.35 4.28H357.9c.81 7.87 7.18 13.31 15.16 13.31 6.36 0 11.46-3.59 14.12-6.48l8.57 8.57zm-14.01-26.38c-.46-4.98-4.98-9.84-11.11-9.84-6.25 0-11.34 4.75-12.04 9.84h23.15zm-98.83-22c-6.37 0-12.04 2.09-16.43 5.68V95.3h-14.47v83.91h15.05V147.5c4.52 3.47 9.38 5.09 15.05 5.09 8.33 0 16.32-3.71 21.29-9.49 4.4-5.09 7.06-12.03 7.06-19.67-.01-16.55-12.28-29.29-27.55-29.29zm-1.83 44.79c-9.35 0-15.49-6.45-15.49-15.46s6.14-15.46 15.49-15.46c7.98 0 14.45 6.92 14.45 15.46 0 8.54-6.47 15.46-14.45 15.46z"/><linearGradient id="SVGID_2_" x1="27.845" x2="94.435" y1="87.096" y2="153.686" gradientUnits="userSpaceOnUse"><stop offset="0" stop-color="#0ca8e1"/><stop offset="1" stop-color="#006096"/></linearGradient><path fill="url(#SVGID_2_)" d="M81.41 130.99c-3.4-1.96-7.22-2.53-11.01-2.66-3.18-.11-7.92-2.15-7.92-7.93 0-4.31 3.49-7.78 7.92-7.93 3.79-.13 7.61-.7 11.01-2.66 6.21-3.58 10.03-10.21 10.03-17.38 0-7.17-3.82-13.79-10.03-17.38-6.21-3.58-13.86-3.58-20.07 0-6.21 3.58-10.03 10.21-10.03 17.38 0 3.89 1.38 7.47 3.15 10.78 1.48 2.79 2.23 7.97-2.85 10.91-3.79 2.19-8.51.8-10.87-2.98-1.99-3.19-4.4-6.18-7.77-8.13-6.21-3.58-13.86-3.58-20.07 0-6.21 3.58-10.03 10.21-10.03 17.38 0 7.17 3.82 13.79 10.03 17.38 6.21 3.59 13.86 3.59 20.07 0 3.37-1.94 5.78-4.93 7.77-8.12 1.64-2.62 5.72-5.96 10.87-2.98 3.78 2.18 4.95 6.97 2.85 10.91-1.76 3.32-3.15 6.9-3.15 10.78 0 7.17 3.82 13.79 10.03 17.38 6.21 3.58 13.86 3.59 20.07 0 6.21-3.58 10.03-10.21 10.03-17.38.01-7.17-3.82-13.79-10.03-17.37z"/></svg>