<svg xmlns="http://www.w3.org/2000/svg" role="img" xmlns:xlink="http://www.w3.org/1999/xlink" viewBox="0.76 2.51 220.74 122.74"><title>Riverine Plains (member) logo</title><defs><path d="M24.57813-23.32031c2.73437 0 4.89843-.54688 6.49218-1.64063 1.58985-1.09375 2.38672-3.0664 2.38672-5.91797 0-3.0664-1.11328-5.15625-3.33984-6.26953-1.1914-.58593-2.78125-.8789-4.77344-.8789H11.10156v14.70703zM5.27342-43.03906h19.92188c3.28125 0 5.98438.48047 8.11719 1.4375 4.04297 1.83593 6.0625 5.22656 6.0625 10.16406 0 2.57813-.53125 4.6875-1.59766 6.32813-1.0625 1.64062-2.55078 2.96093-4.46484 3.95703 1.67969.68359 2.9414 1.58203 3.79297 2.6953.84766 1.11329 1.32422 2.91798 1.41797 5.41798l.20703 5.77343c.0586 1.64063.19531 2.85938.41016 3.66407.35156 1.36719.97656 2.24219 1.875 2.63281V0h-7.14844c-.19532-.3711-.35157-.85156-.46875-1.4375-.11719-.58594-.21485-1.71875-.29297-3.39844l-.35156-7.17578c-.13672-2.8125-1.1836-4.69922-3.13672-5.65234-1.11328-.52735-2.85938-.79297-5.24219-.79297H11.10156V0H5.27344zm0 0" id="a"/><path d="M3.86719-31.23047h5.35937V0H3.8672zm0-11.8086h5.35937v5.97657H3.8672zm0 0" id="b"/><path d="M6.44531-31.375l8.3789 25.54688L23.58595-31.375h5.76953L17.51953 0h-5.625L.32031-31.375zm0 0" id="c"/><path d="M16.9336-32.07813c2.22656 0 4.38671.51954 6.47265 1.56641 2.08984 1.04297 3.6836 2.39453 4.77734 4.0586 1.0547 1.58203 1.75782 3.42578 2.10938 5.53515.3125 1.44531.46875 3.75.46875 6.91406H7.76562c.09766 3.1836.84766 5.73828 2.25391 7.66016 1.40625 1.92578 3.58203 2.88672 6.53516 2.88672 2.7539 0 4.94922-.91016 6.58984-2.72266.9375-1.05469 1.60156-2.27734 1.99219-3.66406h5.1836c-.13673 1.15234-.58985 2.4375-1.35938 3.85156-.77344 1.41797-1.63672 2.57422-2.59375 3.47266C24.76562-.95703 22.78125.09766 20.42187.64453c-1.26953.3125-2.70703.46875-4.30859.46875-3.90625 0-7.21484-1.42187-9.9336-4.26172-2.71484-2.84375-4.0703-6.82031-4.0703-11.9375 0-5.03906 1.36718-9.13281 4.10156-12.27734 2.73437-3.14453 6.3086-4.71485 10.72265-4.71485zm8.41015 13.88282c-.21484-2.28516-.71484-4.10938-1.4961-5.47657-1.4453-2.53906-3.85546-3.80859-7.23828-3.80859-2.42187 0-4.45312.875-6.09374 2.6211-1.64063 1.75-2.50782 3.96874-2.60547 6.66406zm0 0" id="d"/><path d="M4.01563-31.375h5.0078v5.41797c.41016-1.05469 1.41407-2.33985 3.01563-3.85156 1.60157-1.51563 3.44922-2.26954 5.53907-2.26954.09765 0 .26562.00782.5.02735.23437.01953.6328.0586 1.19921.11719v5.5664c-.3125-.0586-.60156-.09765-.86328-.11718-.26562-.01954-.55468-.03126-.86718-.03126-2.65626 0-4.69532.85547-6.1211 2.56641C10-22.24219 9.28906-20.27344 9.28906-18.04687V0H4.01563zm0 0" id="e"/><path d="M3.86719-31.375H8.875v4.45313c1.48438-1.83594 3.0586-3.15626 4.71875-3.95704 1.66016-.80078 3.50781-1.19921 5.53906-1.19921 4.45313 0 7.46094 1.55078 9.02344 4.65624.85938 1.69922 1.28906 4.13282 1.28906 7.29688V0h-5.36328v-19.77344c0-1.91406-.28515-3.46093-.84765-4.63281-.9375-1.95313-2.64063-2.92969-5.10157-2.92969-1.25 0-2.27343.1289-3.07422.38282-1.4453.42968-2.71484 1.28906-3.80859 2.57812-.8789 1.03516-1.44922 2.10547-1.71484 3.20703-.26172 1.10547-.39453 2.6836-.39453 4.73047V0H3.86719zm0 0" id="f"/><path d="M5.125-43.03906h19.36719c3.82812 0 6.91406 1.08203 9.25781 3.23828 2.34375 2.16016 3.51563 5.1914 3.51563 9.09766 0 3.35937-1.04688 6.28515-3.13282 8.77343-2.08984 2.49219-5.30468 3.73438-9.64062 3.73438H10.95703V0H5.125zm26.25 12.36718c0-3.16406-1.17188-5.3125-3.51563-6.4453-1.28906-.60548-3.05468-.91016-5.30078-.91016H10.95703v14.91015H22.5586c2.6172 0 4.7422-.55468 6.3711-1.66797 1.63281-1.11328 2.44531-3.07421 2.44531-5.88671zm0 0" id="g"/><path d="M4.01563-43.03906h5.27343V0H4.01563zm0 0" id="h"/><path d="M7.91016-8.35156c0 1.52343.55859 2.72656 1.66796 3.60547 1.11329.8789 2.4336 1.3164 3.95704 1.3164 1.85547 0 3.65234-.42969 5.39062-1.28906 2.92969-1.42578 4.39453-3.75781 4.39453-7v-4.25c-.64453.41016-1.47656.7539-2.49218 1.02734-1.01563.27344-2.00782.46875-2.98438.58594l-3.19531.41016c-1.91407.2539-3.35157.65625-4.30469 1.20312-1.6211.91797-2.4336 2.38282-2.4336 4.39063zm12.77343-10.66407c1.21094-.15624 2.01954-.66406 2.4336-1.52343.23437-.46875.35156-1.14063.35156-2.01953 0-1.79688-.64063-3.10157-1.92188-3.91016-1.27734-.8125-3.10937-1.21875-5.49218-1.21875-2.7539 0-4.70703.74219-5.85938 2.22656-.64453.82032-1.0625 2.04297-1.25781 3.66407H4.01562c.09766-3.8672 1.35157-6.5586 3.76172-8.07032 2.41407-1.51562 5.21094-2.27343 8.39454-2.27343 3.6914 0 6.6875.70312 8.99218 2.10937 2.28516 1.40625 3.42969 3.59375 3.42969 6.5625v18.07813c0 .54687.11328.98437.33594 1.3203.22656.33204.69922.4961 1.42187.4961.23438 0 .5-.01562.78907-.04297.29296-.03125.60937-.07422.9375-.13281V.14844c-.82032.23437-1.44532.3789-1.875.4375-.4297.0586-1.01563.08593-1.75782.08593-1.8164 0-3.13281-.64062-3.95312-1.92968-.42969-.6836-.73438-1.65235-.90625-2.90235C22.51172-2.7539 20.96875-1.53125 18.95312-.5 16.94141.53516 14.72657 1.05469 12.3047 1.05469c-2.91016 0-5.28907-.88281-7.13282-2.65235-1.84765-1.76562-2.76953-3.98046-2.76953-6.63671 0-2.91016.91016-5.16407 2.72266-6.76563 1.8164-1.60156 4.20313-2.58594 7.14844-2.96094zm0 0" id="i"/><path d="M7-9.84375c.15625 1.75781.59766 3.10547 1.32031 4.04297C9.64844-4.10156 11.95313-3.25 15.23438-3.25c1.95312 0 3.67187-.42578 5.15625-1.27734C21.875-5.375 22.61718-6.6875 22.61718-8.46875c0-1.34766-.59375-2.3711-1.78907-3.07422-.76171-.42969-2.26562-.92578-4.5078-1.4961l-4.19141-1.05468C9.45313-14.75781 7.48047-15.5 6.21094-16.32031 3.9453-17.7461 2.8125-19.71875 2.8125-22.23438c0-2.96874 1.07031-5.375 3.20703-7.21093 2.14063-1.83594 5.01563-2.75 8.6289-2.75 4.72657 0 8.13282 1.38281 10.22657 4.15625 1.3086 1.75781 1.9414 3.65625 1.90234 5.6875h-4.98046c-.09766-1.1914-.51563-2.27735-1.25782-3.2539-1.21093-1.38673-3.3125-2.08204-6.30078-2.08204-1.99219 0-3.5.38281-4.52734 1.14453-1.02344.76172-1.53907 1.76953-1.53907 3.01953 0 1.36719.67579 2.46094 2.02344 3.28125.78125.48828 1.9336.91407 3.45703 1.28907l3.48828.84765c3.78907.91797 6.32813 1.8086 7.6172 2.66797 2.05077 1.34766 3.07421 3.46484 3.07421 6.35547 0 2.79297-1.0586 5.20703-3.17969 7.23828C22.53516.1875 19.3047 1.20313 14.96875 1.20313c-4.66797 0-7.97266-1.0625-9.91406-3.1797-1.94531-2.12109-2.98438-4.74218-3.1211-7.86718zm0 0" id="j"/></defs><use y="50" xlink:href="#a"/><use x="43.33" y="50" xlink:href="#b"/><use x="56.66" y="50" xlink:href="#c"/><use x="86.66" y="50" xlink:href="#d"/><use x="120.029" y="50" xlink:href="#e"/><use x="140.01" y="50" xlink:href="#b"/><use x="153.34" y="50" xlink:href="#f"/><use x="186.709" y="50" xlink:href="#d"/><g><use y="120" xlink:href="#g"/><use x="40.02" y="120" xlink:href="#h"/><use x="53.35" y="120" xlink:href="#i"/><use x="86.719" y="120" xlink:href="#b"/><use x="100.049" y="120" xlink:href="#f"/><use x="133.418" y="120" xlink:href="#j"/></g></svg>