<svg xmlns="http://www.w3.org/2000/svg" role="img" viewBox="-1.85 -2.35 291.20 82.95"><title>Rocket Software, Inc. logo</title><style>svg {enable-background:new 0 0 288 77}</style><path d="M70.9 22.9l-4.3-.6v-2.5h19.7c10.2 0 21.6 2.1 21.6 14.4 0 6.7-6.3 11.5-12.3 12.5l12.8 24.2 4.3.6V74H99.5L85.6 47.1h-5.3v23.7l4.3.6v2.5h-18v-2.5l4.3-.6V22.9zm9.4 21.8h3.5c10.1 0 13.9-3.9 13.9-11.3 0-8.2-5.8-11.1-12.3-11.1-1.5 0-3.3.2-5.1.4v22zm32.9 10.7c0-10.4 6.7-19.7 16.6-19.7 10 0 16.6 9.2 16.6 19.7 0 8.9-6.4 19.6-16.6 19.6-10.2 0-16.6-8.3-16.6-19.6zm24.5 0c0-11.1-2.2-16.9-7.8-16.9s-7.8 5.7-7.8 16.9c0 10.4 1.6 16.9 7.8 16.9 6.1 0 7.8-10.1 7.8-16.9zm41.7 12.5c-4.2 4.8-8.4 7.1-12.6 7.1-10.1 0-16.3-7.6-16.3-17.9 0-12.2 7.4-21.4 18.1-21.4 3.5 0 8.7 1.4 8.7 6.3 0 2.2-2.1 3.8-4.3 3.8-5.7 0-4.1-7.4-6.5-7.4-4.3 0-8.4 4.5-8.4 14.7 0 7 4.2 16 12.1 16 2.9 0 4.9-1.1 7-3l2.2 1.8zm22.9 6v-2.1l4.3-.8-9.3-16.3-3.6 5.7V71l3.7.8v2.1h-15.7v-2.1l4.3-.8V24.9c0-2.6-1.5-3.3-4.3-3.3v-2.1l12-4.6v40h.2l4.3-6.7c3.8-6 9.1-12.3 13.2-12.3 2.2 0 4.4 1.8 4.4 4.3 0 3.6-2.9 4.9-4.7 4.9-1.9 0-3.3-1.7-4.6-1.7-1.5 0-3.8 3.6-4.4 4.7l12.9 23 3.7.8V74h-16.4zm24.5-17.7c.2 6.2 3.6 13 10.8 13 4.7 0 6-2.3 8.5-5.1l2.1 1.6c-3.8 5.5-7.7 9.3-14.9 9.3-9.1 0-14.2-8.8-14.2-18 0-9.7 5-21.3 15.6-21.3 8.2 0 13.4 7.3 13.5 14.7l-21.4 5.8zm8.2-5.6c3.1-.8 4.3-2.5 4.3-6.2 0-3.9-2.3-6-5.8-6-5.3 0-7.4 6.7-7.4 14.5l8.9-2.3zm16-10.3v-3.5h4.3V26.2l7.7-4.4v15.1h8.7v3.5H263v26c0 2.5 1.9 3.6 4.1 3.6 2 0 3.7-1.2 5.5-2.6l1.2 2.1c-2.3 2.7-6.3 5.5-10.1 5.5-6.8 0-8.4-5.2-8.4-8.7v-26H251z"/><path d="M284 72.1c0 1.7-1.4 3.1-3.2 3.1-1.8 0-3.2-1.4-3.2-3.1s1.4-3.1 3.2-3.1c1.8 0 3.2 1.4 3.2 3.1zm-5.5 0c0 1.4 1 2.5 2.4 2.5 1.3 0 2.3-1.1 2.3-2.4 0-1.4-1-2.5-2.4-2.5-1.3-.1-2.3 1-2.3 2.4zm1.9 1.6h-.7v-3.1c.3 0 .7-.1 1.2-.1.6 0 .8.1 1.1.2.2.1.3.4.3.7 0 .4-.3.6-.6.7.3.1.5.3.5.8.1.5.2.6.2.8h-.8c-.1-.1-.1-.4-.2-.8-.1-.3-.2-.5-.6-.5h-.3v1.3zm0-1.8h.3c.4 0 .7-.1.7-.5 0-.3-.2-.5-.7-.5h-.4v1z"/><path fill="#000f9f" d="M32.8 15l2.6-11.6-6.1 10.2h.3c1.3-.1 2.4.5 3.2 1.4z"/><path d="M58.9 64.1V19.9H31.6L25.7 46l-12.6-5.9 12.2-20.2H3.9V74H59v-9.9z"/></svg>