<svg xmlns="http://www.w3.org/2000/svg" role="img" viewBox="-8.25 30.00 416.00 184.75"><title>RTE (Reseau de Transport d&apos;Electricite) logo</title><style>svg {enable-background:new 0 0 400 245}</style><style>.st0{fill:#00a6d9}</style><circle cx="84.4" cy="122.5" r="84.4" class="st0" transform="rotate(-45.001 84.368 122.502)"/><path fill="#fff" d="M133.9 137.7h-13.4c-6.2 0-11.1-4.8-11.1-11.5h25.3c2.1 0 3.8-2 3.8-4.1.1-11-8.2-18.9-18.2-18.9-9.2 0-17.1 7-18.2 15.9H88.2v-12.3c0-2-1.7-3.6-3.6-3.6-2 0-3.6 1.6-3.6 3.6V119H65.9c2-2.3 3.2-5.8 3.2-9.2 0-9.1-7.3-16.4-16.4-16.4H38.4c-2 0-3.6 1.6-3.6 3.6v44.5c0 2 1.6 3.6 3.6 3.6s3.6-1.6 3.6-3.6v-15.3h13.4l12.5 17.3c.7 1 1.8 1.5 2.9 1.5.7 0 1.5-.2 2.1-.7 1.6-1.2 2-3.4.8-5l-9.5-13.2H81v8.4c0 6.2 4.5 10.4 10.4 10.4h2.1c2 0 3.6-1.6 3.6-3.6s-1.6-3.6-3.6-3.6h-2.1c-1.7 0-3.1-1.5-3.1-3.3v-8.2H102c0 10.6 8.4 18.8 18.5 18.8h13.4c2 0 3.7-1.6 3.7-3.6-.1-2.1-1.7-3.7-3.7-3.7zm-13.6-27.4c5.3 0 10.1 3.7 10.9 8.7h-21.5c.7-4.7 5.3-8.7 10.6-8.7zM52.7 119H42.1v-18.5h10.7c5.1 0 9.3 4.1 9.3 9.3-.1 5.1-4.3 9.2-9.4 9.2z"/><g><path d="M201.8 89.5V66.6c0-1.1.8-1.9 1.9-1.9 1.1 0 1.9.8 1.9 1.9v21.2h12.7c1 0 1.8.8 1.8 1.7 0 1-.8 1.8-1.8 1.8h-14.5c-1.3.1-2-.7-2-1.8zm36.3-6.6c0 .6-.4 1.3-1.4 1.3h-11.9c.2 2.7 2.1 4.8 5.4 4.8 2.1 0 3.3-.7 4.6-1.9.3-.3.8-.6 1.2-.6.8 0 1.5.6 1.5 1.5 0 .4-.2.8-.5 1.1-1.5 1.7-4.2 2.9-7.1 2.9-5.9 0-9-4.1-9-9.1 0-5.2 3.8-9.1 8.9-9.1 5.1-.1 8.3 4 8.3 9.1zm-8.2-6.2c-2.7 0-4.6 1.9-5 4.4h9.8c-.3-2.4-2.1-4.4-4.8-4.4zm29 .6c-3.1 0-5 2.1-5 6.1v6.5c0 1-.8 1.9-1.9 1.9-1.2 0-1.9-.8-1.9-1.9V75.8c0-1.1.8-1.9 1.9-1.9 1.1 0 1.8.8 1.8 1.9v1.7c.7-2.3 2.5-3.7 5-3.7 1.1 0 1.7.8 1.7 1.7.2 1.1-.6 1.8-1.6 1.8zm19.4 5.6c0 .6-.4 1.3-1.4 1.3H265c.2 2.7 2.1 4.8 5.4 4.8 2.1 0 3.3-.7 4.6-1.9.3-.3.8-.6 1.2-.6.8 0 1.5.6 1.5 1.5 0 .4-.2.8-.5 1.1-1.5 1.7-4.2 2.9-7.1 2.9-5.9 0-9-4.1-9-9.1 0-5.2 3.8-9.1 8.9-9.1 5.1-.1 8.3 4 8.3 9.1zm-8.2-6.2c-2.7 0-4.6 1.9-5 4.4h9.8c-.3-2.4-2.1-4.4-4.8-4.4zm-2-7.8l2.2-3.1c.3-.4.7-.7 1.3-.7.8 0 1.5.6 1.5 1.5 0 .4-.2.8-.4 1l-2.2 3c-.3.4-.8.7-1.3.7-.8 0-1.5-.7-1.5-1.5 0-.3.2-.7.4-.9zm20.2 23c-2.5 0-4.7-.8-6.3-2-.6-.4-.8-1-.8-1.5 0-.8.6-1.3 1.4-1.3.6 0 1 .2 1.5.6 1.1.8 2.6 1.5 4.5 1.5 2.1 0 3.3-.8 3.3-2 0-1.3-1.1-1.9-3.9-2.6-4.9-1.3-6.7-3-6.7-5.8 0-3 2.7-4.9 7-4.9 1.6 0 3.5.4 4.9 1.1 1.1.5 1.8 1.2 1.8 1.9s-.4 1.4-1.4 1.4c-.5 0-1-.2-1.6-.6-1.1-.6-2.3-.9-3.8-.9-2 0-3.3.5-3.3 1.9 0 1.3 1.2 1.8 4 2.6 4.3 1.2 6.5 2.4 6.5 5.6.1 2.9-2.3 5-7.1 5zm26.7-9c0 .6-.4 1.3-1.4 1.3h-11.9c.2 2.7 2.1 4.8 5.4 4.8 2.1 0 3.3-.7 4.6-1.9.3-.3.8-.6 1.2-.6.8 0 1.5.6 1.5 1.5 0 .4-.2.8-.5 1.1-1.5 1.7-4.2 2.9-7.1 2.9-5.9 0-9-4.1-9-9.1 0-5.2 3.8-9.1 8.9-9.1 5-.1 8.3 4 8.3 9.1zm-8.3-6.2c-2.7 0-4.6 1.9-5 4.4h9.8c-.3-2.4-2.1-4.4-4.8-4.4zm25 15c-1.1 0-1.8-.8-1.8-1.9v-.4c-1.2 1.5-3.1 2.4-5.6 2.4-3.8 0-6.6-2.2-6.6-5.4 0-3.5 2.9-5.4 6.7-5.4 2.2 0 4.1.8 5.4 2v-1.7c0-3.1-1.3-4.6-4.8-4.6-1.7 0-2.8.3-3.9.7-.4.1-.8.3-1.2.3-1 0-1.6-.7-1.6-1.5 0-.9.8-1.4 1.7-1.8 1.4-.6 3.5-.9 5.3-.9 5.2 0 8.2 2.7 8.2 7.5v8.6c0 1.3-.6 2.1-1.8 2.1zm-6.2-8c-2.5 0-4.1 1-4.1 2.8 0 1.8 1.7 2.8 4 2.8s4.3-1.2 4.3-2.8c.1-1.7-2.1-2.8-4.2-2.8zm14.2-9.8c1.1 0 1.9.8 1.9 1.9v7.9c0 2.8 1.5 4.8 4.5 4.8s4.7-2.2 4.7-4.9v-7.9c0-1 .8-1.9 1.9-1.9 1.1 0 1.9.8 1.9 1.9v14.1c0 1.2-.8 1.9-1.9 1.9-1 0-1.9-.6-1.9-1.9v-1.3c-1.1 2.1-3.1 3.3-5.7 3.3-4.6 0-7.2-3.4-7.2-8.1v-8.1c-.1-.8.6-1.7 1.8-1.7zm-131.4 39.5c2.7 0 4.8 1.4 6.1 3.4v-10.6c0-1 .8-1.9 1.9-1.9 1.1 0 1.9.8 1.9 1.9v23.3c0 1-.6 1.9-1.8 1.9-1.2 0-1.8-.9-1.8-1.9v-1.3c-1.2 2.1-3.6 3.4-6.2 3.4-4.6 0-8.3-3.8-8.3-9.1-.1-5.5 3.7-9.1 8.2-9.1zm.8 15.1c3.2 0 5.4-2.8 5.4-6s-2.1-6-5.4-6c-3.2 0-5.3 2.4-5.3 6s2.1 6 5.3 6zm29.9-6c0 .6-.4 1.3-1.4 1.3h-11.9c.2 2.7 2.1 4.8 5.4 4.8 2.1 0 3.3-.7 4.6-1.9.3-.3.8-.6 1.2-.6.8 0 1.5.6 1.5 1.5 0 .4-.2.8-.5 1.1-1.5 1.7-4.2 2.9-7.1 2.9-5.9 0-9-4.1-9-9.1 0-5.2 3.8-9.1 8.9-9.1 5 0 8.3 4.1 8.3 9.1zm-8.3-6.1c-2.7 0-4.6 1.9-5 4.4h9.8c-.3-2.4-2.1-4.4-4.8-4.4zm24.2 15c-1.1 0-1.9-.8-1.9-1.9V117h-3c-.9 0-1.5-.7-1.5-1.5 0-.9.7-1.5 1.5-1.5h3v-5.2c0-1 .8-1.9 1.9-1.9 1.1 0 1.9.8 1.9 1.9v5.2h3.4c.9 0 1.5.7 1.5 1.5 0 .9-.7 1.5-1.5 1.5h-3.4v12.6c0 1-.7 1.8-1.9 1.8zm17.4-14.4c-3.1 0-5 2.1-5 6.1v6.5c0 1-.8 1.9-1.9 1.9-1.2 0-1.9-.8-1.9-1.9v-14.1c0-1.1.8-1.9 1.9-1.9 1.1 0 1.8.8 1.8 1.9v1.7c.7-2.3 2.5-3.7 5-3.7 1.1 0 1.7.8 1.7 1.7.2 1-.6 1.8-1.6 1.8zm16.9 14.4c-1.1 0-1.8-.8-1.8-1.9v-.4c-1.2 1.5-3.1 2.4-5.6 2.4-3.8 0-6.6-2.2-6.6-5.4 0-3.5 2.9-5.4 6.7-5.4 2.2 0 4.1.8 5.4 2V121c0-3.1-1.3-4.6-4.8-4.6-1.7 0-2.8.3-3.9.7-.4.1-.8.3-1.2.3-1 0-1.6-.7-1.6-1.5 0-.9.8-1.4 1.7-1.8 1.4-.6 3.5-.9 5.3-.9 5.2 0 8.2 2.7 8.2 7.5v8.6c0 1.3-.6 2.1-1.8 2.1zm-6.1-8c-2.5 0-4.1 1-4.1 2.8 0 1.8 1.7 2.8 4 2.8s4.3-1.2 4.3-2.8c0-1.8-2.1-2.8-4.2-2.8zm27.2 8c-1.1 0-1.9-.8-1.9-1.9v-7.9c0-2.8-1.5-4.8-4.5-4.8s-4.7 2.2-4.7 4.9v7.9c0 1-.8 1.9-1.9 1.9-1.1 0-1.9-.8-1.9-1.9v-14.1c0-1.2.8-1.9 1.9-1.9 1 0 1.9.6 1.9 1.9v1.3c1.1-2.1 3.1-3.3 5.7-3.3 4.6 0 7.2 3.4 7.2 8.1v8.1c0 .8-.6 1.7-1.8 1.7zm12.9.2c-2.5 0-4.7-.8-6.3-2-.6-.4-.8-1-.8-1.5 0-.8.6-1.3 1.4-1.3.6 0 1 .2 1.5.6 1.1.8 2.6 1.5 4.5 1.5 2.1 0 3.3-.8 3.3-2 0-1.3-1.1-1.9-3.9-2.6-4.9-1.3-6.7-3-6.7-5.8 0-3 2.7-4.9 7-4.9 1.6 0 3.5.4 4.9 1.1 1.1.5 1.8 1.2 1.8 1.9s-.4 1.4-1.4 1.4c-.5 0-1-.2-1.6-.6-1.1-.6-2.3-.9-3.8-.9-2 0-3.3.5-3.3 1.9 0 1.3 1.2 1.8 4 2.6 4.3 1.2 6.5 2.4 6.5 5.6.1 2.8-2.4 5-7.1 5zm20.5 0c-2.7 0-4.8-1.4-6.1-3.4v8.8c0 1-.8 1.9-1.9 1.9-1.1 0-1.9-.8-1.9-1.9v-21.5c0-1 .6-1.9 1.8-1.9s1.8.9 1.8 1.9v1.3c1.2-2.1 3.6-3.4 6.2-3.4 4.6 0 8.3 3.8 8.3 9.1.1 5.5-3.7 9.1-8.2 9.1zm-.8-15.1c-3.2 0-5.4 2.8-5.4 6s2.1 6 5.4 6c3.2 0 5.3-2.4 5.3-6s-2.1-6-5.3-6zm20.7 15.1c-5.5 0-9.1-4.1-9.1-9.1s3.6-9.1 9.1-9.1 9.1 4.1 9.1 9.1-3.6 9.1-9.1 9.1zm0-15c-3.5 0-5.4 2.7-5.4 5.9s1.9 5.9 5.4 5.9c3.5 0 5.4-2.7 5.4-5.9-.1-3.2-1.9-5.9-5.4-5.9zm21.5.4c-3.1 0-5 2.1-5 6.1v6.5c0 1-.8 1.9-1.9 1.9-1.2 0-1.9-.8-1.9-1.9v-14.1c0-1.1.8-1.9 1.9-1.9 1.1 0 1.8.8 1.8 1.9v1.7c.7-2.3 2.5-3.7 5-3.7 1.1 0 1.7.8 1.7 1.7.1 1-.6 1.8-1.6 1.8zm8.1 14.4c-1.1 0-1.9-.8-1.9-1.9V117h-3c-.9 0-1.5-.7-1.5-1.5 0-.9.7-1.5 1.5-1.5h3v-5.2c0-1 .8-1.9 1.9-1.9 1.1 0 1.9.8 1.9 1.9v5.2h3.4c.9 0 1.5.7 1.5 1.5 0 .9-.7 1.5-1.5 1.5H395v12.6c0 1-.7 1.8-1.8 1.8zm-184.9 21.7c2.7 0 4.8 1.4 6.1 3.4v-10.6c0-1 .8-1.9 1.9-1.9 1.1 0 1.9.8 1.9 1.9v23.3c0 1-.6 1.9-1.8 1.9-1.2 0-1.8-.9-1.8-1.9v-1.3c-1.2 2.1-3.6 3.4-6.2 3.4-4.6 0-8.3-3.8-8.3-9.1-.1-5.5 3.7-9.1 8.2-9.1zm.8 15c3.2 0 5.4-2.8 5.4-6s-2.1-6-5.4-6c-3.2 0-5.3 2.4-5.3 6s2.1 6 5.3 6zm16.7-14.1c-.3.6-.7 1.2-1.6 1.2-1.1 0-1.6-.7-1.6-1.3 0-.4.2-.8.4-1.2.7-1.5 1-3.3 1-4.9v-2.1c0-1 .6-1.7 1.6-1.7s1.6.8 1.6 1.7v1.6c0 2.1-.3 4.5-1.4 6.7zm20 8.2c0 .6-.4 1.3-1.4 1.3h-11.9c.2 2.7 2.1 4.8 5.4 4.8 2.1 0 3.3-.7 4.6-1.9.3-.3.8-.6 1.2-.6.8 0 1.5.6 1.5 1.5 0 .4-.2.8-.5 1.1-1.5 1.7-4.2 2.9-7.1 2.9-5.9 0-9-4.1-9-9.1 0-5.2 3.8-9.1 8.9-9.1 5 0 8.3 4 8.3 9.1zm-8.3-6.2c-2.7 0-4.6 1.9-5 4.4h9.8c-.3-2.3-2.1-4.4-4.8-4.4zm-2-7.8l2.2-3.1c.3-.4.7-.7 1.3-.7.8 0 1.5.6 1.5 1.5 0 .4-.2.8-.4 1l-2.2 3c-.3.4-.8.7-1.3.7-.8 0-1.5-.7-1.5-1.5.1-.2.3-.6.4-.9zm15.8 22.9c-1.1 0-1.9-.8-1.9-1.9v-23.3c0-1 .8-1.9 1.9-1.9 1.1 0 1.9.8 1.9 1.9v23.3c0 1-.8 1.9-1.9 1.9zm22.7-8.9c0 .6-.4 1.3-1.4 1.3h-11.9c.2 2.7 2.1 4.8 5.4 4.8 2.1 0 3.3-.7 4.6-1.9.3-.3.8-.6 1.2-.6.8 0 1.5.6 1.5 1.5 0 .4-.2.8-.5 1.1-1.5 1.7-4.2 2.9-7.1 2.9-5.9 0-9-4.1-9-9.1 0-5.2 3.8-9.1 8.9-9.1 5 0 8.3 4 8.3 9.1zm-8.3-6.2c-2.7 0-4.6 1.9-5 4.4h9.8c-.3-2.3-2.1-4.4-4.8-4.4zm26.3-.4c.3.4.6.7.6 1.3 0 .8-.6 1.5-1.7 1.5-.7 0-1.1-.6-1.6-1-.9-.8-2.1-1.2-3.4-1.2-3.7 0-5.6 2.8-5.6 6s1.9 6 5.6 6c1.3 0 2.5-.4 3.4-1.2.5-.4.9-1 1.6-1 1.1 0 1.7.7 1.7 1.5 0 .6-.2 1-.6 1.3-1.2 1.4-3.6 2.5-6.1 2.5-5.8 0-9.3-4-9.3-9.1s3.5-9.1 9.3-9.1c2.5 0 4.9 1 6.1 2.5zm8.3 15.5c-1.1 0-1.9-.8-1.9-1.9v-12.6h-3c-.9 0-1.5-.7-1.5-1.5 0-.9.7-1.5 1.5-1.5h3v-5.2c0-1 .8-1.9 1.9-1.9s1.9.8 1.9 1.9v5.2h3.4c.9 0 1.5.7 1.5 1.5 0 .9-.7 1.5-1.5 1.5h-3.4v12.6c0 1-.8 1.9-1.9 1.9zm17.4-14.5c-3.1 0-5 2.1-5 6.1v6.5c0 1-.8 1.9-1.9 1.9-1.2 0-1.9-.8-1.9-1.9v-14.1c0-1.1.8-1.9 1.9-1.9 1.1 0 1.8.8 1.8 1.9v1.7c.7-2.3 2.5-3.7 5-3.7 1.1 0 1.7.8 1.7 1.7.1 1.1-.6 1.8-1.6 1.8zm5.9-10.4c1.2 0 2.2 1 2.2 2.2 0 1.2-1 2.2-2.2 2.2-1.2 0-2.2-1-2.2-2.2 0-1.2 1-2.2 2.2-2.2zm0 24.9c-1.1 0-1.9-.8-1.9-1.9v-14.1c0-1 .8-1.9 1.9-1.9 1.1 0 1.9.8 1.9 1.9v14.1c-.1 1-.8 1.9-1.9 1.9zm21-15.5c.3.4.6.7.6 1.3 0 .8-.6 1.5-1.7 1.5-.7 0-1.1-.6-1.6-1-.9-.8-2.1-1.2-3.4-1.2-3.7 0-5.6 2.8-5.6 6s1.9 6 5.6 6c1.3 0 2.5-.4 3.4-1.2.5-.4.9-1 1.6-1 1.1 0 1.7.7 1.7 1.5 0 .6-.2 1-.6 1.3-1.2 1.4-3.6 2.5-6.1 2.5-5.8 0-9.3-4-9.3-9.1s3.5-9.1 9.3-9.1c2.4 0 4.9 1 6.1 2.5zm6.1-9.4c1.2 0 2.2 1 2.2 2.2 0 1.2-1 2.2-2.2 2.2-1.2 0-2.2-1-2.2-2.2.1-1.2 1.1-2.2 2.2-2.2zm0 24.9c-1.1 0-1.9-.8-1.9-1.9v-14.1c0-1 .8-1.9 1.9-1.9 1.1 0 1.9.8 1.9 1.9v14.1c0 1-.7 1.9-1.9 1.9zm10.6 0c-1.1 0-1.9-.8-1.9-1.9v-12.6h-3c-.9 0-1.5-.7-1.5-1.5 0-.9.7-1.5 1.5-1.5h3v-5.2c0-1 .8-1.9 1.9-1.9 1.1 0 1.9.8 1.9 1.9v5.2h3.4c.9 0 1.5.7 1.5 1.5 0 .9-.7 1.5-1.5 1.5h-3.4v12.6c0 1-.8 1.9-1.9 1.9zm24.2-8.9c0 .6-.4 1.3-1.4 1.3h-11.9c.2 2.7 2.1 4.8 5.4 4.8 2.1 0 3.3-.7 4.6-1.9.3-.3.8-.6 1.2-.6.8 0 1.5.6 1.5 1.5 0 .4-.2.8-.5 1.1-1.5 1.7-4.2 2.9-7.1 2.9-5.9 0-9-4.1-9-9.1 0-5.2 3.8-9.1 8.9-9.1 5 0 8.3 4 8.3 9.1zm-8.3-6.2c-2.7 0-4.6 1.9-5 4.4h9.8c-.3-2.3-2.1-4.4-4.8-4.4zm-2-7.8l2.2-3.1c.3-.4.7-.7 1.3-.7.8 0 1.5.6 1.5 1.5 0 .4-.2.8-.4 1l-2.2 3c-.3.4-.8.7-1.3.7-.8 0-1.5-.7-1.5-1.5 0-.2.2-.6.4-.9z" class="st0"/></g></svg>