<svg xmlns="http://www.w3.org/2000/svg" role="img" viewBox="354.77 44.77 687.96 213.96"><title>runc logo</title><path fill="#aaa" d="M936 104h1v1h-1z"/><path d="M1000 104h1v1h-1zm7 2h1v1h-1zm-110 27h1v1h-1zm51 7h1v1h-1zm-158 19h1v1h-1zm-253 22h1v1h-1zm283 2h1v1h-1zm182 16h1v1h-1z" fill="#828282"/><path d="M1016 111h1v1h-1zm-1 26h13v1h-13zm13 0h1v1h-1zm-287 2h1v1h-1zm-38 6h21v1h-21zm21 0h1v1h-1zm1 0h1v1h-1zm14 35h1v1h-1zm249 20h1v1h-1z" fill="#818181"/><path fill="#13134e" d="M391 166h1v1h-1z"/><path d="M447 78h1v1h-1zm33 10h144v1H480zm144 0h1v1h-1zm-62 17h1v1h-1zm0 44h1v48h-1zm17 7h1v1h-1zm-17 41h1v1h-1z" fill="#221d5d"/><path d="M995 103h1v1h-1zm-15 1h1v1h-1zm-244 1h1v1h-1zm287 12h1v1h-1zm-322 4h1v1h-1zm191 4h1v1h-1zm136 1h1v1h-1zm-149 11h1v1h-1zm-120 3h1v1h-1zm129 10h1v1h-1zm2 3h1v1h-1zm-380 18h1v1h-1zm245 2h1v1h-1zm273 4h1v1h-1z" fill="#7a7a7a"/><path fill="#7a857a" d="M954 123h1v1h-1z"/><path d="M967 138h1v1h-1zm-49 26h1v1h-1z" fill="#7f6a7f"/><path d="M848 162h1v1h-1zm-4 21h1v1h-1z" fill="#787887"/><path fill="#221d62" d="M380 225h1v1h-1z"/><path d="M739 141h1v1h-1zm-6 27h1v1h-1zm218 7h1v1h-1zm-175 8h1v1h-1zm42 0h1v1h-1zm170 1h1v1h-1zm-245 9h1v1h-1zm222 0h1v1h-1zm-48 1h1v1h-1zm2 3h1v1h-1zm-235 2h1v1h-1zm112 0h1v1h-1z" fill="#5f5f5f"/><path d="M516 179h1v1h-1zm308 20h1v1h-1z" fill="#73737f"/><path fill="#231b5f" d="M580 183h1v1h-1z"/><path d="M448 59h1v1h-1zm0 19h1v1h-1zm29 9h1v1h-1zm2 0h146v1H479zm146 0h1v1h-1zm-11 18h1v1h-1zm0 2h1v11h-1zm-152 1h1v1h-1zm152 10h1v1h-1zm-1 1h1v1h-1zm-35 1h1v1h-1zm-15 28h1v1h-1zm-116 18h1v1h-1zm131 17h1v1h-1zm3 1h31v1h-31zm31 0h1v1h-1zm1 0h1v1h-1zm1 1h1v1h-1zm0 1h1v11h-1zm-233 10h1v1h-1zm233 1h1v1h-1zm-233 27h1v1h-1zm66 0h1v1h-1zm1 0h1v1h-1z" fill="#242161"/><path fill="#767f76" d="M848 106h1v1h-1z"/><path d="M701 122h1v1h-1zm197 12h1v1h-1zm-50 27h1v1h-1zm101 8h1v1h-1zm21 4h1v1h-1zm-152 27h1v1h-1z" fill="#797986"/><path fill="#251f60" d="M394 137h1v1h-1z"/><path d="M392 140h1v24h-1zm0 24h1v1h-1z" fill="#251f5f"/><path fill="#7f797f" d="M747 159h1v1h-1z"/><path fill="#007f7f" d="M744 197h1v1h-1z"/><path d="M449 58h206v1H449zm206 0h1v1h-1zM379 195h1v1h-1z" fill="#1a1a5e"/><path d="M847 109h1v49h-1zm0 49h1v1h-1z" fill="#828384"/><path d="M950 173h1v1h-1zm-177 1h1v1h-1z" fill="#00007f"/><path fill="#17175d" d="M615 199h1v1h-1z"/><path d="M988 103h1v1h-1zm2 0h1v1h-1zm-217 2h1v1h-1z" fill="#7b8484"/><path d="M735 105h1v1h-1zm185 2h1v1h-1zm48 2h1v1h-1zm-213 7h1v1h-1zm229 4h1v1h-1zm-242 11h1v1h-1zm6 29h1v1h-1zm-215 15h1v1h-1zm262 4h1v1h-1zm6 4h1v1h-1zm223 2h1v1h-1zm-11 10h1v1h-1z" fill="#78787f"/><path d="M744 107h1v1h-1zm266 0h1v1h-1zm-12 13h1v1h-1zm-256 12h1v1h-1zm0 1h1v1h-1zm270 2h1v1h-1zm-201 49h1v1h-1zm1 0h1v1h-1zm-52 3h1v1h-1z" fill="#77777f"/><path d="M491 107h1v90h-1zm458 41h1v1h-1zm0 1h1v1h-1zm-458 48h1v1h-1z" fill="#838488"/><path d="M881 108h1v1h-1zm-129 4h1v1h-1zm219 17h1v1h-1zm-57 29h1v1h-1zm111 26h1v1h-1z" fill="#6a6a6a"/><path d="M1019 114h1v1h-1zm-132 33h1v1h-1zm-364 15h1v1h-1zm267 4h1v1h-1zm-106 31h1v1h-1zm291 0h1v1h-1z" fill="#7f8084"/><path d="M564 200h49v1h-49zm49 0h1v1h-1z" fill="#001c55"/><path d="M492 104h54v1h-54zm54 0h2v1h-2zm2 0h1v1h-1zm242 59h1v1h-1zm128 2h1v1h-1zm41 22h1v1h-1z" fill="#7f7f86"/><path fill="#7a7a7f" d="M1029 165h1v1h-1z"/><path d="M394 166h1v1h-1zm185 17h1v1h-1zm-199 13h1v1h-1zm68 49h1v1h-1z" fill="#252060"/><path fill="#7d8286" d="M815 200h1v1h-1z"/><path d="M565 104h48v1h-48zm48 0h1v1h-1z" fill="#23205f"/><path fill="#241f60" d="M369 108h1v1h-1z"/><path d="M754 115h1v1h-1zm-23 50h1v1h-1z" fill="#7d7d86"/><path d="M613 121h1v1h-1zm-152 15h1v1h-1zm-70 2h1v1h-1z" fill="#1a1a50"/><path fill="#7e7e83" d="M759 127h1v1h-1z"/><path fill="#966" d="M970 131h1v1h-1z"/><path fill="#251f61" d="M392 139h1v1h-1z"/><path d="M449 60h1v18h-1zm0 18h1v1h-1zm-80 3h1v25h-1zm0 25h1v1h-1zm195 1h1v90h-1zm-115 60h1v28h-1zm0 28h1v1h-1zm115 2h1v1h-1zm-115 28h1v19h-1zm0 19h1v1h-1z" fill="#262263"/><path d="M655 60h1v184h-1zm-42 46h1v1h-1zm42 138h1v1h-1z" fill="#252163"/><path d="M921 105h1v1h-1zm-59 1h1v1h-1zm27 45h1v1h-1z" fill="#7b7f7f"/><path d="M947 157h1v1h-1zm-117 8h1v1h-1z" fill="#757f7f"/><path d="M790 168h1v1h-1zm-263 24h1v1h-1z" fill="#7f8186"/><path fill="#3f3f7f" d="M846 178h1v1h-1z"/><path fill="#737f7f" d="M764 198h1v1h-1z"/><path fill="#232160" d="M477 89h1v1h-1z"/><path d="M1004 105h1v1h-1zm-264 1h1v1h-1zm122 2h1v88h-1zm-356 15h1v15h-1zm385 1h1v1h-1zm8 12h1v1h-1zm-393 2h1v1h-1zm459 9h1v1h-1zm-78 1h1v1h-1zm-137 5h1v1h-1zm145 7h1v1h-1zm-145 3h1v1h-1zm-244 4h1v1h-1zm414 0h1v1h-1zm-414 2h1v28h-1zm397 3h1v1h-1zm68 3h1v1h-1zm-17 5h1v1h-1zm27 3h1v1h-1zm44 0h1v1h-1zm-63 7h1v1h-1zm-435 3h1v1h-1zm335 3h1v1h-1zm-356 1h1v1h-1zm317 2h1v1h-1zm157 0h1v1h-1z" fill="#7d8282"/><path d="M864 107h1v1h-1zm71 0h1v1h-1zm14 39h1v1h-1zm0 1h1v1h-1zm0 8h1v2h-1zm0 2h1v1h-1z" fill="#848588"/><path fill="#828184" d="M743 131h1v1h-1z"/><path d="M448 60h1v17h-1zm0 17h1v1h-1zm-80 3h1v1h-1zm80 0h1v1h-1zm1 0h1v1h-1zm27 6h1v1h-1zm1 0h1v1h-1zm150 0h1v1h-1zm1 0h1v1h-1zm-1 1h1v1h-1zm1 0h1v1h-1zm-152 1h1v1h-1zm151 0h1v1h-1zm-151 1h1v125h-1zm-107 18h1v1h-1zm92 0h1v1h-1zm2 0h1v1h-1zm150 0h1v11h-1zm-150 1h1v1h-1zm150 10h1v1h-1zm-36 1h1v1h-1zm37 0h1v1h-1zm-33 1h31v1h-31zm31 0h1v1h-1zm-150 16h1v1h-1zm-67 2h65v1h-65zm65 0h1v1h-1zm2 0h1v1h-1zm1 0h1v2h-1zm-70 1h1v1h-1zm0 1h1v24h-1zm70 0h1v1h-1zm-70 24h1v1h-1zm1 1h1v1h-1zm54 0h1v1h-1zm0 3h1v26h-1zm129 16h1v1h-1zm3 0h1v1h-1zm33 2h1v11h-1zm-165 8h1v1h-1zm1 2h1v1h-1zm-67 1h66v1h-66zm66 0h1v1h-1zm1 0h1v1h-1zm164 0h1v1h-1zm0 1h1v1h-1zm-137 16h1v1h-1zm151 1h1v1h-1zm1 1h1v1h-1zm-152 1h1v1h-1zm-1 1h1v1h-1zm-93 6h64v1h-64zm64 0h1v1h-1zm3 0h1v1h-1zm-1 1h1v1h-1zm0 1h1v18h-1zm0 18h1v1h-1z" fill="#252161"/><path d="M986 103h1v1h-1zm16 1h1v1h-1zm-118 9h1v1h-1zm-352 8h1v1h-1zm362 7h1v1h-1zm135 1h1v1h-1zm-269 1h1v1h-1zm-22 12h1v1h-1zm20 1h1v1h-1zm189 3h1v1h-1zm-61 1h1v1h-1zm24 5h1v1h-1zm-181 12h1v1h-1zm-222 3h1v1h-1zm393 1h1v1h-1zm-127 2h1v1h-1zm-260 5h1v1h-1zm460 2h1v1h-1zm-174 5h1v1h-1zm111 1h1v1h-1zm72 0h1v1h-1zm4 1h1v1h-1zm-74 2h1v1h-1zm2 3h1v1h-1zm-152 3h1v1h-1zm-214 4h1v1h-1z" fill="#797979"/><path d="M491 104h1v1h-1zm468 13h1v1h-1zm-65 12h1v1h-1zm54 13h1v1h-1zm-220 3h1v1h-1zm28 1h1v1h-1zm17 13h1v1h-1zm0 1h1v1h-1zm235 37h1v1h-1zm-213 1h1v1h-1zm14 2h1v1h-1z" fill="#7e7e84"/><path d="M983 105h1v1h-1zm-297 1h38v1h-38zm38 0h1v1h-1zm2 0h1v1h-1zm50 0h11v1h-11zm11 0h1v1h-1zm45 0h1v1h-1zm1 0h12v1h-12zm12 0h1v1h-1zm20 0h11v1h-11zm11 0h1v1h-1zm48 0h10v1h-10zm10 0h1v1h-1zm67 0h1v1h-1zm-256 3h1v1h-1zm118 0h1v87h-1zm17 1h1v1h-1zm133 0h1v1h-1zm-260 5h1v1h-1zm207 2h1v1h-1zm32 1h1v1h-1zm2 0h1v1h-1zm2 0h1v1h-1zm-293 1h23v1h-23zm23 0h1v1h-1zm233 0h1v1h-1zm23 0h1v1h-1zm-226 1h1v1h-1zm131 0h1v1h-1zm-353 1h1v1h-1zm223 2h1v1h-1zm252 2h1v1h-1zm-267 1h1v1h-1zm1 4h1v1h-1zm209 0h1v1h-1zm0 2h1v1h-1zm-1 1h1v1h-1zm64 3h12v1h-12zm12 0h1v1h-1zm-522 3h1v1h-1zm29 0h1v1h-1zm208 0h1v1h-1zm16 0h1v1h-1zm-253 1h1v1h-1zm397 4h1v1h-1zm-201 2h1v1h-1zm204 1h1v1h-1zm-152 2h1v1h-1zm-1 1h1v1h-1zm139 2h1v1h-1zm18 1h1v1h-1zm-162 1h1v1h-1zm-2 1h1v1h-1zm150 3h1v1h-1zm-374 2h1v1h-1zm200 0h1v1h-1zm1 0h1v1h-1zm4 1h1v1h-1zm22 1h1v1h-1zm201 0h1v1h-1zm-160 1h1v1h-1zm176 1h1v1h-1zm-215 1h1v1h-1zm167 0h1v1h-1zm-412 1h1v1h-1zm510 0h13v1h-13zm13 0h1v1h-1zm-254 1h1v1h-1zm-22 2h1v1h-1zm22 0h1v1h-1zm57 0h1v1h-1zm-78 3h1v1h-1zm215 0h1v1h-1zm-63 1h1v1h-1zm63 0h1v1h-1zm-454 1h1v1h-1zm224 0h1v1h-1zm16 0h1v1h-1zm37 0h1v1h-1zm116 2h1v1h-1zm-390 2h1v1h-1zm392 1h1v1h-1zm64 0h1v1h-1zm53 0h1v1h-1zm-491 1h1v1h-1zm490 1h1v1h-1zm-201 1h1v1h-1zm-303 1h1v1h-1zm287 2h1v1h-1zm-285 1h1v1h-1zm16 0h1v1h-1zm203 0h1v1h-1zm98 0h1v1h-1zm-300 1h1v1h-1zm240 0h1v1h-1zm184 2h1v1h-1zm55 0h1v1h-1zm-55 1h1v1h-1zm1 1h1v1h-1zm3 2h1v1h-1zm-439 1h1v1h-1zm390 0h1v1h-1zm-56 2h1v1h-1zm-332 1h1v1h-1zm16 0h1v1h-1zm374 0h1v1h-1zm-118 2h1v1h-1zm13 0h1v1h-1zm1 0h1v1h-1zm169 0h1v1h-1zm1 0h1v1h-1zm9 0h1v1h-1z" fill="#808185"/><path d="M848 107h1v50h-1zm-100 2h1v1h-1zm208 11h1v1h-1zm-108 37h1v1h-1zm0 2h1v1h-1zm-322 6h1v1h-1zm304 1h1v1h-1zm17 6h1v1h-1zm-55 1h1v1h-1zm-36 3h1v1h-1zm40 4h1v1h-1zm13 4h1v1h-1zm1 0h1v1h-1zm-66 11h1v1h-1z" fill="#7b7b7b"/><path d="M964 112h1v1h-1zm26 7h1v1h-1z" fill="#7f7b84"/><path d="M757 120h1v1h-1zm198 2h1v1h-1zm-213 7h1v1h-1zm-16 16h1v1h-1zm27 24h1v1h-1zm73 10h1v1h-1zm-302 10h1v1h-1zm220 5h1v1h-1z" fill="#7e7e85"/><path fill="#7f8386" d="M726 105h1v1h-1z"/><path d="M394 167h51v1h-51zm51 0h1v1h-1z" fill="#1f1555"/><path fill="#007f00" d="M968 136h1v1h-1z"/><path d="M985 103h1v1h-1zm-496 1h1v1h-1zm393 6h1v1h-1zm79 4h1v1h-1zm63 4h1v1h-1zm-47 5h1v1h-1zm50 0h1v1h-1zm-123 20h1v1h-1zm-151 8h1v1h-1zm159 4h1v1h-1zm-166 1h1v1h-1zm201 3h1v1h-1zm-99 1h1v1h-1zm-95 8h1v1h-1zm94 5h1v1h-1zm-68 15h1v1h-1zm243 0h1v1h-1zm-476 5h1v1h-1zm-18 2h1v1h-1zm335 4h1v1h-1zm73 0h1v1h-1z" fill="#767676"/><path d="M492 105h1v1h-1zm1 0h53v1h-53zm53 0h1v1h-1zm1 0h1v1h-1zm1 0h1v1h-1zm451 0h1v1h-1zm-272 1h1v1h-1zm1 0h1v1h-1zm1 0h1v1h-1zm1 0h1v1h-1zm44 0h1v1h-1zm148 0h1v1h-1zm-133 1h1v1h-1zm-46 1h1v1h-1zm104 0h1v1h-1zm32 0h1v1h-1zm130 0h1v1h-1zm-38 1h1v1h-1zm-224 1h1v1h-1zm222 0h1v1h-1zm-88 1h1v1h-1zm86 0h1v1h-1zm-217 1h1v1h-1zm216 0h1v1h-1zm-214 2h1v1h-1zm267 1h1v1h-1zm-292 4h1v1h-1zm1 0h1v1h-1zm1 0h1v1h-1zm271 0h1v1h-1zm-266 1h1v1h-1zm-229 1h1v1h-1zm233 0h1v1h-1zm239 0h1v1h-1zm-443 1h1v16h-1zm223 0h1v1h-1zm199 0h1v1h-1zm72 8h1v1h-1zm0 1h1v1h-1zm-15 2h1v1h-1zm0 1h1v1h-1zm16 1h1v1h-1zm-79 1h1v1h-1zm0 1h1v1h-1zm-416 1h1v1h-1zm348 0h1v1h-1zm68 0h1v1h-1zm-67 1h1v1h-1zm18 2h1v1h-1zm48 1h1v1h-1zm-46 2h1v1h-1zm61 0h1v1h-1zm-230 1h1v1h-1zm230 0h1v1h-1zm-261 1h19v1h-19zm19 0h2v1h-2zm2 0h1v1h-1zm1 0h1v1h-1zm162 0h1v1h-1zm1 1h1v1h-1zm18 1h1v1h-1zm42 0h1v1h-1zm-41 2h1v1h-1zm1 1h1v1h-1zm-159 1h1v1h-1zm-201 3h1v1h-1zm1 0h1v1h-1zm344 0h1v1h-1zm71 3h1v1h-1zm-51 1h1v1h-1zm-139 1h1v1h-1zm15 0h1v1h-1zm-15 1h1v1h-1zm73 0h1v1h-1zm50 0h1v1h-1zm52 0h1v1h-1zm-160 1h1v1h-1zm126 0h1v1h-1zm1 1h1v1h-1zm-142 1h1v1h-1zm125 0h1v1h-1zm-166 1h1v1h-1zm217 0h1v1h-1zm15 0h1v1h-1zm64 1h1v1h-1zm-15 1h1v1h-1zm-279 1h1v1h-1zm39 0h1v1h-1zm192 0h1v1h-1zm47 0h1v1h-1zm-503 1h1v1h-1zm336 0h1v1h-1zm73 0h1v1h-1zm-391 1h1v1h-1zm375 0h1v1h-1zm64 0h1v1h-1zm61 2h1v1h-1zm-515 1h1v1h-1zm440 2h1v1h-1zm-108 1h1v1h-1zm165 1h1v1h-1zm-166 2h1v1h-1zm111 0h1v1h-1zm-45 1h1v1h-1zm-115 1h1v1h-1zm30 0h1v1h-1zm86 0h1v1h-1zm64 0h1v1h-1zm-177 2h1v1h-1zm25 0h1v1h-1zm134 0h1v1h-1zm-216 1h1v1h-1zm282 0h1v1h-1zm-244 1h1v1h-1zm26 0h1v1h-1zm9 0h1v1h-1zm2 0h1v1h-1zm97 0h1v1h-1zm-132 3h1v1h-1zm134 0h1v1h-1zm-374 1h1v1h-1zm202 0h1v1h-1zm39 0h1v1h-1zm-256 1h1v1h-1zm17 1h1v1h-1zm201 0h1v1h-1zm40 0h1v1h-1zm133 0h1v1h-1zm-373 2h1v1h-1zm217 0h1v1h-1zm253 0h1v1h-1zm-253 1h1v1h-1zm27 0h1v1h-1zm-242 1h1v1h-1zm216 0h1v1h-1zm69 0h1v1h-1zm89 0h1v1h-1zm52 0h1v1h-1zm-210 1h1v1h-1zm30 0h1v1h-1zm2 1h1v1h-1zm69 0h1v1h-1zm-65 1h1v1h-1zm25 0h1v1h-1zm100 0h1v1h-1zm79 0h1v1h-1zm-17 1h1v1h-1zm12 0h1v1h-1z" fill="#818284"/><path d="M564 105h1v1h-1zm50 94h1v1h-1z" fill="#242162"/><path d="M684 105h1v1h-1zm109 71h1v1h-1zm126 20h1v1h-1zm-389 1h1v1h-1z" fill="#7d7d7d"/><path d="M981 106h1v1h-1zm21 0h1v1h-1zm-26 1h1v1h-1zm-246 13h1v1h-1zm28 5h1v1h-1zm254 6h1v1h-1zm-266 24h1v1h-1zm-198 1h1v1h-1zm351 9h1v1h-1zm2 3h1v1h-1zm1 1h1v1h-1zm127 1h1v1h-1zm-17 3h1v1h-1zm-40 4h1v1h-1zm-145 2h1v1h-1zm147 0h1v1h-1zm-59 10h1v1h-1zm105 0h1v1h-1zm-230 6h1v1h-1zm30 4h1v1h-1z" fill="#818385"/><path fill="#181861" d="M461 109h1v1h-1z"/><path fill="#745d74" d="M1009 127h1v1h-1z"/><path fill="#857a85" d="M751 164h1v1h-1z"/><path d="M564 103h49v1h-49zm49 0h1v1h-1zm2 17h1v1h-1zm-223 16h1v1h-1zm1 0h66v1h-66zm66 0h1v1h-1zm198 109h1v1h-1z" fill="#005"/><path d="M992 104h1v1h-1zm1 0h1v1h-1zm-12 1h1v1h-1zm-134 1h1v1h-1zm130 0h1v1h-1zm-428 1h1v47h-1zm192 0h1v1h-1zm138 0h1v1h-1zm-131 3h1v1h-1zm215 4h1v1h-1zm-208 4h1v1h-1zm-54 1h1v1h-1zm31 1h1v1h-1zm249 0h1v1h-1zm25 2h1v1h-1zm-247 7h1v1h-1zm269 0h1v1h-1zm-60 3h1v1h-1zm-211 11h1v1h-1zm128 0h1v1h-1zm63 4h1v1h-1zm16 1h1v1h-1zm0 3h1v1h-1zm0 2h1v1h-1zm-415 1h1v1h-1zm415 0h1v1h-1zm-220 2h1v1h-1zm204 0h1v1h-1zm0 1h1v1h-1zm-247 3h1v1h-1zm-179 1h1v1h-1zm427 3h1v1h-1zm-217 1h1v1h-1zm189 1h1v2h-1zm29 1h1v1h-1zm-198 1h1v1h-1zm169 0h1v1h-1zm108 0h1v1h-1zm-275 5h1v1h-1zm274 1h1v1h-1zm-58 1h1v1h-1zm-16 3h1v1h-1zm55 0h1v1h-1zm-1 1h1v1h-1zm-209 4h1v1h-1zm112 0h1v1h-1zm-390 1h1v1h-1zm237 0h1v1h-1zm20 0h1v1h-1zm24 0h1v1h-1zm17 0h1v1h-1zm-77 1h1v1h-1zm99 1h1v1h-1zm-54 8h1v1h-1zm-254 5h1v1h-1z" fill="#7f8184"/><path d="M1014 137h1v1h-1zm15 35h1v1h-1zm-77 4h1v1h-1zm-173 11h1v1h-1z" fill="#817e81"/><path d="M978 106h1v1h-1zm1 0h1v1h-1zm-43 1h1v1h-1zm-251 1h1v88h-1zm195 1h1v1h-1zm88 2h1v1h-1zm-86 1h1v1h-1zm134 0h1v1h-1zm-1 1h1v1h-1zm1 0h1v1h-1zm-132 3h1v1h-1zm100 2h1v1h-1zm2 0h1v1h-1zm2 0h1v1h-1zm-484 1h1v1h-1zm1 0h1v1h-1zm250 0h1v1h-1zm226 0h1v1h-1zm20 0h1v1h-1zm22 0h1v1h-1zm-137 1h1v1h-1zm91 0h1v1h-1zm1 0h1v1h-1zm2 0h1v1h-1zm22 0h1v1h-1zm1 0h1v1h-1zm-303 1h1v22h-1zm56 0h1v1h-1zm131 0h1v1h-1zm91 0h1v1h-1zm27 0h1v1h-1zm-30 2h1v1h-1zm32 0h1v1h-1zm1 0h1v1h-1zm1 1h1v1h-1zm-119 1h1v1h-1zm120 0h1v1h-1zm-39 2h1v1h-1zm40 0h1v1h-1zm-253 1h1v1h-1zm269 0h1v1h-1zm-269 1h1v1h-1zm254 0h1v1h-1zm1 3h1v1h-1zm-117 2h1v1h-1zm132 0h1v1h-1zm-148 1h1v1h-1zm133 0h1v1h-1zm-255 1h1v1h-1zm-15 1h1v1h-1zm15 0h1v1h-1zm-15 1h1v1h-1zm0 1h1v1h-1zm141 2h1v1h-1zm65 0h1v1h-1zm-208 1h1v1h-1zm1 0h1v1h-1zm-42 1h1v1h-1zm40 0h1v1h-1zm16 0h1v1h-1zm0 1h1v1h-1zm-29 2h1v1h-1zm237 0h1v1h-1zm0 1h1v1h-1zm-76 1h1v1h-1zm1 0h1v1h-1zm17 1h1v1h-1zm-155 2h1v1h-1zm141 3h1v1h-1zm-372 1h1v1h-1zm224 0h1v1h-1zm-225 1h1v1h-1zm445 0h1v1h-1zm-447 2h1v1h-1zm226 0h1v1h-1zm46 1h1v1h-1zm-87 1h1v1h-1zm22 0h1v1h-1zm5 2h1v1h-1zm-224 1h1v1h-1zm18 0h1v1h-1zm177 0h1v33h-1zm215 0h1v1h-1zm-410 1h1v1h-1zm228 0h1v1h-1zm-229 1h1v1h-1zm285 0h1v1h-1zm57 0h1v1h-1zm54 0h1v1h-1zm-150 1h1v1h-1zm81 0h1v1h-1zm15 0h1v1h-1zm71 0h1v1h-1zm-408 1h1v1h-1zm393 0h1v1h-1zm111 0h1v1h-1zm15 0h1v1h-1zm-239 1h1v1h-1zm239 0h1v1h-1zm-517 2h1v1h-1zm225 0h1v1h-1zm215 1h1v1h-1zm-438 1h1v1h-1zm317 0h1v1h-1zm183 0h1v1h-1zm1 0h1v1h-1zm-484 1h1v1h-1zm422 0h1v1h-1zm60 1h1v1h-1zm-496 1h1v1h-1zm329 0h1v1h-1zm166 0h1v1h-1zm-479 1h1v1h-1zm297 0h1v1h-1zm124 0h1v1h-1zm-436 1h1v1h-1zm275 0h1v1h-1zm37 0h1v1h-1zm125 0h1v1h-1zm17 0h1v1h-1zm-231 1h1v1h-1zm89 0h1v1h-1zm-73 1h1v1h-1zm253 0h1v1h-1zm-182 1h1v1h-1zm181 0h1v1h-1zm-267 1h1v1h-1zm85 0h1v1h-1zm1 0h1v1h-1zm129 0h1v1h-1zm52 0h1v1h-1zm-267 1h1v1h-1zm1 0h1v1h-1zm53 0h1v1h-1zm1 0h1v1h-1zm30 0h1v1h-1zm180 0h1v1h-1zm-211 1h1v1h-1zm163 0h1v1h-1zm17 0h1v1h-1zm4 0h1v1h-1zm26 0h1v1h-1zm-263 1h1v1h-1zm56 0h1v1h-1zm25 0h1v1h-1zm156 0h1v1h-1zm-457 1h1v1h-1zm281 0h1v1h-1zm6 0h1v1h-1zm3 0h1v1h-1zm147 0h1v1h-1zm39 0h1v1h-1zm-474 1h1v1h-1zm219 0h1v1h-1zm245 0h1v1h-1zm-464 1h1v1h-1zm234 0h1v1h-1zm-15 1h1v1h-1zm219 0h1v1h-1zm-436 1h1v1h-1zm258 0h1v1h-1zm132 0h1v1h-1zm-388 1h1v1h-1zm231 0h1v1h-1zm24 0h1v1h-1zm-23 1h1v1h-1zm256 0h1v1h-1zm1 0h1v1h-1zm-257 1h1v1h-1zm26 0h1v1h-1zm132 0h1v1h-1zm97 0h1v1h-1zm-472 1h1v1h-1zm289 0h1v1h-1zm-302 1h1v1h-1zm259 0h1v1h-1zm43 0h1v1h-1zm1 0h1v1h-1zm178 0h1v1h-1zm-1 1h1v1h-1zm-479 1h1v1h-1zm15 0h1v1h-1zm139 0h1v1h-1zm15 0h1v1h-1zm128 0h1v1h-1zm-143 1h1v1h-1zm77 0h1v1h-1zm35 0h1v1h-1zm179 0h1v1h-1zm2 0h1v1h-1zm25 0h1v1h-1zm3 0h1v1h-1zm-459 1h1v1h-1zm1 0h1v1h-1zm249 0h1v1h-1zm4 0h1v1h-1zm19 0h1v1h-1zm163 0h1v1h-1zm16 0h1v1h-1zm-186 1h1v1h-1z" fill="#808184"/><path fill="#181855" d="M478 215h1v1h-1z"/><path d="M492 103h56v1h-56zm56 0h1v1h-1zm347 26h1v1h-1zm53 37h1v1h-1zm-193 6h1v1h-1zm22 13h1v1h-1z" fill="#55557f"/><path d="M368 109h1v1h-1zm195 91h1v1h-1zm51 0h1v1h-1z" fill="#000049"/><path fill="#00002a" d="M460 136h1v1h-1z"/><path fill="#7f717f" d="M1012 136h1v1h-1z"/><path d="M728 144h1v1h-1zm-216 30h1v1h-1z" fill="#669"/><path d="M991 104h1v1h-1zm-42 35h1v1h-1zm-64 5h1v1h-1zm-153 1h1v1h-1zm-214 35h1v1h-1zm505 5h1v1h-1z" fill="#808283"/><path d="M993 119h1v1h-1zm-146 51h1v1h-1z" fill="#817e85"/><path fill="#0f0" d="M750 154h1v1h-1z"/><path d="M450 59h204v1H450zm204 0h1v1h-1z" fill="#282468"/><path d="M976 105h1v1h-1zm-16 10h1v1h-1zm25 5h1v1h-1zm18 2h1v1h-1zm-90 35h1v1h-1zm-159 13h1v1h-1zm-220 6h1v1h-1zm418 1h1v1h-1zm-177 3h1v1h-1zm203 1h1v1h-1zm22 2h1v1h-1zm-157 2h1v1h-1zm-13 12h1v1h-1zm168 3h1v1h-1z" fill="#777"/><path fill="#23195c" d="M579 182h1v1h-1z"/><path d="M448 58h1v1h-1zm-56 109h1v1h-1z" fill="#131362"/><path d="M727 104h1v1h-1zm1 0h1v1h-1zm119 0h1v1h-1zm74 0h1v1h-1zm57 0h1v1h-1zm-235 2h1v1h-1zm139 3h1v1h-1zm85 0h1v1h-1zm49 1h1v1h-1zm-261 5h1v1h-1zm202 3h1v1h-1zm39 2h1v1h-1zm-259 3h1v1h-1zm271 3h1v1h-1zm-36 2h1v1h-1zm-71 10h1v1h-1zm113 0h15v1h-15zm15 0h1v1h-1zm-148 2h1v1h-1zm66 2h1v1h-1zm-213 1h1v1h-1zm14 12h1v1h-1zm165 1h1v1h-1zm2 3h1v1h-1zm-14 11h1v1h-1zm48 0h1v1h-1zm-102 4h1v1h-1zm124 0h1v1h-1zm-197 4h1v1h-1zm50 2h1v1h-1zm-307 1h1v1h-1zm328 0h1v1h-1zm-41 2h1v1h-1zm13 0h1v1h-1zm175 1h1v1h-1zm-81 1h1v1h-1zm-151 1h1v1h-1zm-218 1h1v1h-1zm373 4h1v1h-1zm102 2h1v1h-1zm-254 1h1v1h-1zm1 5h1v1h-1zm173 0h1v1h-1zm-117 1h1v1h-1zm163 0h1v1h-1z" fill="#555"/><path d="M491 106h1v1h-1zm341 1h1v1h-1z" fill="#858689"/><path d="M883 143h1v1h-1zm128 28h1v1h-1z" fill="#7f7f00"/><path fill="#262264" d="M564 106h1v1h-1z"/><path fill="#7f7c7f" d="M745 156h1v1h-1z"/><path d="M449 79h1v1h-1zm-79 1h77v1h-77zm77 0h1v1h-1zm-79 1h1v1h-1zm0 1h1v24h-1zm110 4h148v1H478zm148 0h1v1h-1zm-150 1h1v1h-1zm152 2h1v125h-1zm-260 17h1v1h-1zm94 1h1v1h-1zm116 12h1v1h-1zm1 0h1v1h-1zm1 0h32v1h-32zm32 0h1v1h-1zm-35 1h1v1h-1zm-115 17h1v1h-1zm1 0h1v1h-1zm-70 1h1v1h-1zm1 0h1v1h-1zm67 0h1v1h-1zm102 8h1v1h-1zm15 11h1v25h-1zm-183 8h52v1h-52zm52 0h1v1h-1zm1 1h1v1h-1zm1 0h1v1h-1zm129 16h1v1h-1zm35 3h1v1h-1zm-49 13h1v1h-1zm50 0h1v1h-1zm14 16h1v1h-1zm-152 2h1v1h-1zm151 0h1v1h-1zm-148 1h146v1H479zm146 0h2v1h-2zm2 0h1v1h-1z" fill="#252162"/><g fill="#818285"><path d="M491 105h1v1h-1zm493 0h1v1h-1zm1 0h1v1h-1zm1 0h1v1h-1zm1 0h1v1h-1zm8 0h1v11h-1zm1 0h1v1h-1zm1 0h1v1h-1zm1 0h1v1h-1zm-273 1h1v1h-1zm50 0h1v1h-1zm71 0h1v1h-1zm18 0h1v1h-1zm13 0h1v1h-1zm46 0h1v1h-1zm57 0h1v1h-1z"/><path d="M986 106h10v10h-10zm10 0h1v10h-1zm7 0h1v1h-1zm1 0h1v1h-1zm-512 1h55v11h-55zm55 0h1v47h-1zm1 0h1v47h-1zm137 0h1v1h-1zm49 0h1v11h-1zm1 0h1v11h-1zm1 0h1v1h-1zm1 0h1v1h-1zm37 0h1v1h-1zm104 0h1v1h-1zm99 0h1v1h-1zm3 0h4v10h-4z"/><path d="M984 107h12v9h-12zm13 0h1v1h-1zm1 0h3v10h-3zm3 0h1v11h-1zm4 0h1v1h-1zm1 0h1v1h-1zm-320 1h51v9h-51zm51 0h1v11h-1zm3 0h1v13h-1zm2 0h1v1h-1zm32 0h1v51h-1zm1 0h13v51h-13zm13 0h1v64h-1zm1 0h1v1h-1zm44 0h12v59h-12zm12 0h1v62h-1zm1 0h1v51h-1zm19 0h12v88h-12zm12 0h1v1h-1zm45 0h12v60h-12zm12 0h1v88h-1zm2 0h1v1h-1zm37 0h1v1h-1zm1 0h1v1h-1zm2 0h4v10h-4z"/><path d="M997 108h3v8h-3zm5 0h3v10h-3zm3 0h2v11h-2zm2 0h1v1h-1zm1 0h1v1h-1zm-270 1h5v11h-5zm5 0h1v17h-1zm1 0h1v1h-1zm134 0h1v1h-1zm1 0h1v23h-1zm93 0h1v1h-1zm1 0h3v12h-3zm34 0h2v12h-2zm2 0h1v1h-1zm1 0h1v1h-1zm1 0h1v1h-1zm-267 1h1v29h-1zm1 0h1v1h-1zm1 0h1v1h-1zm131 0h1v1h-1zm1 0h1v22h-1zm92 0h1v1h-1zm1 0h2v13h-2zm38 0h2v13h-2zm2 0h1v1h-1zm1 0h1v1h-1zm-267 1h1v42h-1zm1 0h1v42h-1zm1 0h1v1h-1zm1 0h1v1h-1zm1 0h1v1h-1z"/><path d="M877 111h3v21h-3zm3 0h1v1h-1zm89 0h1v1h-1zm1 0h1v15h-1zm41 0h1v14h-1zm1 0h1v16h-1zm1 0h1v1h-1zm1 0h1v1h-1zm-267 1h1v40h-1zm1 0h1v40h-1zm1 0h1v1h-1zm131 0h1v21h-1zm1 0h1v2h-1zm86 0h1v2h-1z"/><path d="M968 112h42v4h-42zm45 0h1v16h-1zm1 0h1v1h-1zm1 0h1v1h-1zm-266 1h1v38h-1zm1 0h1v1h-1zm1 0h1v1h-1zm131 0h1v1h-1zm82 0h1v1h-1zm1 0h1v1h-1zm1 0h1v19h-1zm48 0h1v1h-1zm3 0h1v1h-1zm-267 1h1v36h-1zm131 0h1v21h-1zm1 0h1v1h-1zm1 0h1v1h-1zm81 0h1v1h-1zm1 0h1v20h-1zm2 0h1v1h-1zm47 0h3v16h-3zm3 0h1v1h-1zm1 0h1v1h-1zm-267 1h1v34h-1zm131 0h1v22h-1zm1 0h1v1h-1z"/><path d="M964 115h51v1h-51zm53 0h1v20h-1zm1 0h1v1h-1zm-266 1h1v1h-1zm1 0h1v2h-1zm130 0h1v1h-1zm78 0h1v1h-1zm2 0h53v1h-53zm55 0h1v19h-1zm2 0h1v1h-1zm-334 1h65v1h-65zm198 0h1v1h-1zm1 0h1v1h-1zm77 0h23v1h-23zm23 0h1v1h-1zm1 0h2v1h-2zm2 0h1v1h-1zm1 0h4v1h-4zm4 0h1v1h-1zm1 0h1v1h-1zm1 0h2v1h-2zm2 0h1v1h-1zm1 0h19v1h-19zm21 0h1v18h-1zm2 0h1v1h-1zm-529 1h55v1h-55zm194 0h13v78h-13zm13 0h1v28h-1zm1 0h29v1h-29zm29 0h1v1h-1zm1 0h21v1h-21zm22 0h1v1h-1zm1 0h1v29h-1zm130 0h1v1h-1zm1 0h1v21h-1zm1 0h1v1h-1zm74 0h1v1h-1zm2 0h20v1h-20zm20 0h1v1h-1zm1 0h1v1h-1zm1 0h1v1h-1zm2 0h1v1h-1zm4 0h1v1h-1zm8 0h1v1h-1zm1 0h1v1h-1zm1 0h1v1h-1zm1 0h1v1h-1z"/><path d="M1001 118h17v1h-17zm19 0h1v17h-1zm-528 1h11v78h-11zm11 0h1v21h-1zm3 0h1v1h-1zm1 0h25v1h-25zm25 0h1v1h-1zm1 0h1v1h-1zm1 0h1v1h-1zm1 0h12v1h-12zm165 0h1v1h-1zm2 0h1v1h-1zm28 0h1v1h-1zm1 0h1v1h-1zm1 0h1v1h-1zm1 0h1v1h-1zm1 0h1v1h-1zm1 0h1v1h-1zm1 0h16v1h-16zm16 0h2v28h-2zm2 0h1v1h-1zm129 0h2v19h-2zm2 0h1v1h-1zm1 0h1v1h-1zm74 0h18v1h-18zm18 0h1v1h-1zm1 0h1v1h-1zm1 0h1v1h-1zm22 0h1v1h-1zm1 0h1v1h-1zm1 0h15v1h-15zm17 0h1v1h-1zm-517 1h1v21h-1zm1 0h1v1h-1zm28 0h1v1h-1zm1 0h1v1h-1zm1 0h12v1h-12zm165 0h1v1h-1zm35 0h1v1h-1zm1 0h1v1h-1zm1 0h1v1h-1z"/><path d="M738 120h17v1h-17zm17 0h1v2h-1zm130 0h1v1h-1zm74 0h17v1h-17zm17 0h1v1h-1zm28 0h1v1h-1zm1 0h1v1h-1zm1 0h14v1h-14zm15 0h1v1h-1zm1 0h1v1h-1zm1 0h1v1h-1zm-487 1h11v19h-11zm203 0h1v1h-1zm1 0h13v1h-13zm14 0h1v1h-1zm131 0h1v1h-1zm1 0h1v1h-1zm72 0h1v1h-1zm1 0h16v1h-16zm16 0h1v1h-1zm1 0h1v1h-1zm30 0h1v1h-1zm1 0h13v1h-13zm14 0h1v1h-1zm1 0h1v14h-1zm2 0h1v1h-1zm-285 1h1v1h-1zm1 0h1v1h-1zm1 0h15v1h-15zm15 0h1v20h-1zm129 0h2v1h-2zm2 0h1v2h-1zm1 0h1v1h-1zm69 0h2v1h-2zm2 0h1v1h-1zm1 0h14v1h-14zm14 0h1v1h-1zm1 0h1v1h-1zm1 0h1v1h-1zm31 0h1v1h-1zm1 0h13v1h-13z"/><path d="M1021 122h2v13h-2zm2 0h1v1h-1zm-518 1h1v15h-1zm236 0h1v1h-1zm1 0h12v1h-12zm12 0h2v21h-2zm131 0h2v17h-2zm3 0h1v1h-1zm68 0h1v1h-1zm1 0h15v2h-15zm15 0h1v1h-1zm1 0h1v1h-1zm1 0h1v1h-1z"/><path d="M1009 123h15v1h-15zm15 0h1v2h-1zm1 0h1v1h-1zm-284 1h1v1h-1zm1 0h1v1h-1zm15 0h1v1h-1zm130 0h1v20h-1zm1 0h1v22h-1zm1 0h1v1h-1zm1 0h1v1h-1zm66 0h1v1h-1zm16 0h1v1h-1zm1 0h1v1h-1zm37 0h12v1h-12zm13 0h1v1h-1zm-281 1h1v1h-1zm15 0h1v1h-1zm132 0h1v1h-1zm66 0h1v1h-1zm1 0h15v1h-15zm15 0h1v1h-1zm1 0h1v1h-1zm39 0h14v1h-14zm14 0h1v1h-1zm1 0h1v1h-1zm-283 1h14v1h-14zm14 0h1v4h-1zm1 0h1v1h-1zm131 0h1v21h-1zm1 0h1v2h-1zm1 0h1v1h-1zm63 0h1v1h-1zm1 0h15v2h-15zm15 0h1v1h-1zm1 0h1v1h-1zm39 0h1v1h-1zm1 0h1v1h-1zm12 0h3v9h-3zm3 0h1v4h-1zm-283 1h1v1h-1zm15 0h1v1h-1zm134 0h1v1h-1zm62 0h1v1h-1z"/><path d="M1012 127h12v1h-12zm-269 1h1v1h-1zm147 0h1v21h-1zm1 0h1v1h-1zm1 0h1v1h-1zm61 0h1v1h-1zm1 0h15v2h-15zm15 0h1v1h-1zm1 0h1v1h-1zm42 0h1v1h-1zm1 0h13v1h-13zm-270 1h1v1h-1zm148 0h1v22h-1zm62 0h1v1h-1zm16 0h1v1h-1zm44 0h1v1h-1zm14 0h1v6h-1zm-270 1h1v9h-1zm1 0h1v1h-1zm134 0h1v1h-1zm61 0h15v1h-15zm15 0h1v1h-1zm44 0h1v1h-1zm1 0h1v1h-1zm1 0h13v1h-13zm-256 1h1v3h-1zm136 0h1v1h-1zm58 0h1v1h-1zm1 0h14v1h-14zm14 0h1v1h-1zm1 0h1v1h-1zm45 0h1v1h-1zm1 0h1v4h-1zm1 0h10v4h-10zm11 0h1v1h-1z"/><path d="M877 132h14v1h-14zm15 0h1v1h-1zm1 0h1v22h-1zm60 0h14v1h-14zm14 0h1v1h-1zm59 0h1v3h-1zm2 0h1v1h-1zm-151 1h1v1h-1zm1 0h1v1h-1zm1 0h1v1h-1zm1 0h12v1h-12z"/><path d="M892 133h2v18h-2zm2 0h1v1h-1zm59 0h12v1h-12zm14 0h1v1h-1zm61 0h1v1h-1zm-270 1h1v1h-1zm119 0h1v62h-1zm1 0h1v1h-1zm1 0h1v1h-1zm1 0h1v1h-1zm14 0h1v1h-1zm1 0h1v1h-1zm56 0h1v1h-1zm1 0h13v4h-13zm13 0h1v1h-1zm-207 1h1v1h-1zm120 0h1v1h-1z"/><path d="M881 135h12v1h-12zm13 0h1v1h-1zm1 0h1v21h-1zm2 0h1v1h-1zm54 0h1v1h-1zm15 0h1v1h-1zm48 0h1v1h-1zm1 0h13v1h-13zm13 0h1v1h-1zm-285 1h1v1h-1zm137 0h1v1h-1zm1 0h1v1h-1z"/><path d="M894 136h3v1h-3zm3 0h1v2h-1zm132 0h1v1h-1zm-147 1h13v1h-13zm14 0h1v1h-1zm2 0h1v1h-1zm67 0h1v1h-1zm-460 1h1v1h-1zm253 0h1v1h-1zm125 0h12v1h-12zm13 0h1v1h-1zm1 0h1v21h-1zm1 0h1v22h-1zm1 0h1v1h-1zm52 0h13v3h-13zm13 0h1v1h-1zm1 0h1v1h-1zm-221 1h13v3h-13zm13 0h1v1h-1zm125 0h1v1h-1zm2 0h12v1h-12z"/><path d="M896 139h2v19h-2zm3 0h1v1h-1zm51 0h1v1h-1zm15 0h1v1h-1zm-462 1h1v57h-1zm31 0h1v1h-1zm1 0h12v1h-12zm207 0h1v1h-1zm1 0h13v4h-13zm14 0h1v1h-1zm126 0h1v1h-1zm1 0h1v1h-1z"/><path d="M885 140h14v1h-14zm14 0h1v21h-1zm1 0h1v1h-1zm-396 1h1v21h-1zm1 0h1v1h-1zm1 0h1v1h-1zm1 0h25v1h-25zm25 0h1v1h-1zm1 0h1v1h-1zm1 0h2v1h-2zm2 0h1v1h-1zm1 0h10v13h-10zm204 0h1v1h-1zm1 0h1v1h-1zm15 0h1v1h-1zm128 0h1v1h-1zm1 0h12v1h-12zm14 0h1v22h-1zm51 0h12v18h-12zm12 0h1v1h-1zm-458 1h29v12h-29z"/><path d="M534 142h13v12h-13zm206 0h1v1h-1zm16 0h1v1h-1zm129 0h1v1h-1zm1 0h13v1h-13zm15 0h1v1h-1zm62 0h1v1h-1zm1 0h1v1h-1zm-225 1h1v1h-1zm2 0h14v3h-14zm145 0h1v1h-1zm8 0h7v12h-7zm7 0h1v1h-1zm1 0h1v1h-1zm62 0h1v1h-1zm-264 1h1v1h-1zm38 0h1v2h-1zm1 0h1v30h-1zm1 0h1v33h-1zm15 0h1v1h-1zm131 0h1v1h-1z"/><path d="M887 144h14v1h-14zm14 0h1v1h-1zm48 0h1v1h-1zm1 0h12v15h-12zm-215 1h1v1h-1zm20 0h1v1h-1zm132 0h1v1h-1zm14 0h1v1h-1zm1 0h1v1h-1zm1 0h1v1h-1zm-204 1h1v50h-1zm1 0h1v1h-1zm2 0h1v1h-1zm24 0h1v1h-1zm2 0h1v1h-1zm2 0h1v1h-1zm1 0h1v16h-1zm5 0h1v21h-1zm1 0h17v1h-17zm17 0h1v1h-1zm1 0h1v1h-1zm133 0h12v1h-12zm13 0h1v1h-1zm1 0h1v20h-1zm1 0h1v1h-1zm-203 1h1v11h-1z"/><path d="M730 147h4v14h-4zm4 0h19v1h-19zm19 0h1v1h-1zm136 0h12v1h-12zm12 0h3v1h-3zm3 0h1v2h-1z"/><path d="M701 148h51v1h-51zm51 0h1v1h-1zm1 0h1v1h-1zm148 0h1v18h-1zm2 0h1v1h-1zm2 0h1v1h-1zm-204 1h50v1h-50zm50 0h1v1h-1zm1 0h1v1h-1zm137 0h1v1h-1z"/><path d="M890 149h12v1h-12zm13 0h1v1h-1zm1 0h1v20h-1zm1 0h1v1h-1zm58 0h1v5h-1zm-262 1h49v1h-49zm49 0h1v1h-1zm1 0h1v1h-1zm139 0h1v1h-1z"/><path d="M903 150h2v18h-2zm2 0h1v1h-1zm43 0h1v1h-1zm-247 1h48v1h-48zm48 0h1v1h-1zm1 0h1v1h-1z"/><path d="M891 151h13v1h-13zm14 0h1v1h-1zm1 0h1v1h-1zm1 0h1v1h-1zm-206 1h47v1h-47zm47 0h1v1h-1zm2 0h1v1h-1zm155 0h1v1h-1zm1 0h1v21h-1zm2 0h1v1h-1zm-207 1h45v1h-45zm45 0h1v1h-1zm1 0h1v1h-1zm1 0h1v1h-1zm144 0h1v1h-1z"/><path d="M905 153h3v19h-3zm3 0h1v23h-1zm-403 1h42v1h-42zm42 0h1v1h-1zm1 0h1v1h-1zm153 0h43v1h-43zm43 0h1v1h-1zm1 0h1v1h-1zm1 0h1v1h-1z"/><path d="M893 154h15v1h-15zm70 0h1v1h-1zm-458 1h12v1h-12zm12 0h1v2h-1zm1 0h1v1h-1zm1 0h1v1h-1zm2 0h25v1h-25zm25 0h1v1h-1zm1 0h1v1h-1zm154 0h41v3h-41zm41 0h1v2h-1zm1 0h1v1h-1zm151 0h14v1h-14zm16 0h1v1h-1zm-405 1h12v6h-12zm13 0h1v1h-1zm225 0h1v1h-1zm151 0h1v1h-1zm1 0h14v1h-14zm14 0h1v21h-1zm2 0h1v1h-1zm-394 1h1v1h-1zm225 0h1v1h-1zm1 0h1v1h-1zm151 0h1v1h-1zm1 0h1v1h-1zm15 0h1v22h-1zm-392 1h1v1h-1zm1 0h1v1h-1zm181 0h41v1h-41zm41 0h1v21h-1zm3 0h1v1h-1zm45 0h1v1h-1zm107 0h13v1h-13zm15 0h1v1h-1zm-394 1h1v1h-1zm1 0h1v19h-1zm182 0h24v1h-24zm24 0h1v1h-1zm1 0h16v1h-16zm17 0h1v1h-1zm1 0h1v26h-1zm1 0h1v1h-1zm1 0h1v1h-1zm29 0h1v1h-1zm1 0h13v1h-13zm71 0h1v1h-1zm50 0h1v1h-1z"/><path d="M897 159h15v1h-15zm15 0h1v1h-1zm37 0h1v1h-1zm1 0h12v1h-12zm12 0h1v28h-1zm2 0h1v1h-1zm-447 1h2v16h-2zm2 0h1v1h-1zm181 0h1v1h-1zm23 0h1v1h-1zm2 0h1v1h-1zm1 0h1v1h-1zm1 0h1v1h-1zm1 0h14v1h-14zm14 0h3v21h-3zm3 0h1v1h-1zm1 0h1v1h-1zm30 0h12v13h-12zm70 0h1v2h-1zm1 0h1v1h-1zm49 0h1v1h-1zm1 0h1v1h-1zm1 0h12v1h-12zm13 0h2v1h-2zm2 0h1v1h-1zm36 0h1v1h-1zm2 0h10v6h-10zm10 0h1v26h-1zm3 0h1v1h-1zm-445 1h1v1h-1zm1 0h1v1h-1zm1 0h1v1h-1zm206 0h1v1h-1zm1 0h1v1h-1z"/><path d="M729 161h14v1h-14zm16 0h1v1h-1zm1 0h1v1h-1zm1 0h1v1h-1zm42 0h1v1h-1zm109 0h1v1h-1zm1 0h12v1h-12zm12 0h2v19h-2zm2 0h1v1h-1zm1 0h1v1h-1zm49 0h1v4h-1zm1 0h1v1h-1zm-460 1h14v1h-14zm15 0h1v1h-1zm1 0h1v19h-1zm2 0h1v1h-1zm178 0h1v1h-1zm30 0h1v1h-1zm1 0h13v1h-13zm15 0h1v1h-1zm1 0h1v2h-1zm27 0h1v1h-1zm72 0h1v1h-1zm52 0h1v1h-1zm1 0h1v1h-1zm14 0h1v21h-1zm1 0h1v1h-1zm-410 1h1v1h-1zm2 0h1v1h-1zm1 0h1v1h-1zm1 0h11v1h-11z"/><path d="M519 163h2v16h-2zm2 0h1v1h-1zm209 0h1v1h-1zm1 0h1v1h-1zm1 0h12v1h-12zm13 0h1v1h-1zm3 0h1v1h-1zm26 0h1v1h-1zm72 0h1v1h-1zm52 0h1v1h-1zm1 0h1v1h-1zm1 0h12v1h-12zm14 0h1v1h-1zm-410 1h1v1h-1zm3 0h1v1h-1z"/><path d="M508 164h12v1h-12zm14 0h1v1h-1zm210 0h1v1h-1zm2 0h11v1h-11zm11 0h3v28h-3zm3 0h1v1h-1zm1 0h1v1h-1zm40 0h1v1h-1zm57 0h1v1h-1zm54 0h1v1h-1zm15 0h1v1h-1zm1 0h1v1h-1zm-409 1h1v1h-1zm1 0h1v1h-1zm1 0h11v1h-11zm12 0h1v1h-1zm1 0h1v18h-1zm1 0h1v1h-1zm1 0h1v1h-1z"/><path d="M734 165h12v1h-12zm14 0h1v1h-1zm26 0h1v1h-1zm1 0h13v1h-13zm139 0h2v1h-2zm2 0h1v1h-1zm47 0h1v23h-1zm-459 1h1v31h-1zm4 0h1v1h-1zm1 0h12v1h-12zm12 0h2v16h-2zm2 0h1v18h-1zm2 0h1v1h-1zm209 0h1v1h-1zm1 0h12v1h-12zm13 0h1v1h-1zm1 0h1v30h-1zm26 0h13v1h-13zm14 0h1v1h-1zm112 0h15v1h-15zm15 0h1v22h-1zm35 0h11v1h-11zm13 0h1v22h-1zm1 0h1v1h-1zm49 0h1v1h-1zm-509 1h1v30h-1z"/><path d="M510 167h12v1h-12zm14 0h1v1h-1zm1 0h1v20h-1zm210 0h12v1h-12zm13 0h1v1h-1zm41 0h1v1h-1zm44 0h12v7h-12zm13 0h1v1h-1zm55 0h1v1h-1zm13 0h3v17h-3zm3 0h1v2h-1zm35 0h12v3h-12zm63 0h12v1h-12zm12 0h1v1h-1zm-517 1h1v1h-1zm1 0h14v1h-14zm15 0h1v1h-1zm211 0h13v1h-13zm13 0h1v1h-1zm1 0h1v1h-1zm80 0h1v1h-1zm71 0h1v1h-1z"/><path d="M903 168h14v1h-14zm15 0h1v1h-1zm4 0h12v1h-12zm92 0h1v3h-1zm1 0h12v9h-12zm12 0h1v6h-1zm-516 1h1v1h-1zm1 0h11v1h-11zm14 0h1v1h-1zm1 0h1v1h-1zm209 0h1v1h-1zm1 0h13v1h-13zm13 0h1v27h-1zm39 0h1v1h-1zm43 0h13v3h-13zm72 0h14v1h-14zm14 0h1v1h-1zm4 0h1v1h-1zm1 0h11v1h-11zm28 0h1v1h-1zm14 0h1v1h-1zm48 0h1v1h-1zm15 0h1v1h-1zm-516 1h1v1h-1zm1 0h14v1h-14zm14 0h1v1h-1zm211 0h11v2h-11zm13 0h1v2h-1zm1 0h1v1h-1zm37 0h1v5h-1zm1 0h1v1h-1zm41 0h1v1h-1zm14 0h1v1h-1zm1 0h1v1h-1zm71 0h1v1h-1zm1 0h1v21h-1zm2 0h1v1h-1zm1 0h1v1h-1zm1 0h1v1h-1zm1 0h11v26h-11zm29 0h13v1h-13zm13 0h1v19h-1zm48 0h1v1h-1zm-501 1h1v1h-1zm1 0h1v1h-1zm1 0h1v1h-1zm1 0h10v2h-10zm11 0h2v1h-2zm2 0h1v1h-1z"/><path d="M831 171h13v1h-13zm14 0h1v1h-1zm59 0h1v1h-1zm13 0h5v19h-5zm5 0h12v25h-12zm31 0h11v2h-11zm13 0h1v1h-1zm1 0h1v1h-1zm46 0h1v1h-1zm1 0h1v1h-1zm14 0h1v1h-1zm-514 1h1v1h-1zm12 0h2v16h-2zm2 0h1v1h-1zm1 0h1v1h-1zm209 0h14v1h-14zm14 0h1v2h-1zm36 0h1v20h-1zm2 0h1v1h-1zm42 0h12v4h-12zm13 0h1v1h-1zm59 0h1v1h-1z"/><path d="M905 172h29v1h-29zm47 0h1v1h-1zm14 0h1v18h-1zm-452 1h1v1h-1zm1 0h12v1h-12zm14 0h1v1h-1zm209 0h1v1h-1zm10 0h2v23h-2zm3 0h1v1h-1zm24 0h1v1h-1zm1 0h11v1h-11zm11 0h2v19h-2zm3 0h1v1h-1zm40 0h1v1h-1zm1 0h13v2h-13zm14 0h1v1h-1zm61 0h28v1h-28zm47 0h12v1h-12zm14 0h1v1h-1zm46 0h1v1h-1zm1 0h13v2h-13zm-499 1h1v1h-1zm1 0h11v1h-11zm12 0h1v1h-1zm1 0h1v1h-1zm1 0h1v1h-1z"/><path d="M739 174h13v1h-13zm13 0h1v22h-1zm23 0h1v1h-1zm2 0h13v1h-13zm13 0h1v4h-1zm54 0h1v1h-1zm1 0h1v1h-1zm62 0h27v1h-27zm46 0h1v1h-1zm1 0h12v1h-12zm13 0h1v1h-1zm46 0h14v1h-14zm14 0h1v1h-1zm-512 1h1v1h-1zm9 0h6v10h-6zm6 0h1v1h-1zm1 0h1v1h-1zm208 0h1v1h-1z"/><path d="M751 175h2v21h-2zm2 0h1v2h-1zm1 0h1v1h-1zm21 0h1v1h-1zm2 0h13v2h-13zm14 0h1v1h-1zm39 0h13v3h-13zm14 0h1v1h-1zm62 0h1v1h-1zm1 0h1v1h-1zm47 0h12v1h-12zm13 0h1v1h-1zm1 0h1v1h-1zm1 0h1v2h-1zm43 0h1v1h-1zm1 0h13v1h-13zm14 0h1v1h-1zm-511 1h1v1h-1zm1 0h11v1h-11zm13 0h1v1h-1zm1 0h1v2h-1zm208 0h1v1h-1zm52 0h1v3h-1zm1 0h1v1h-1zm51 0h1v1h-1zm1 0h1v1h-1zm64 0h26v1h-26zm46 0h1v1h-1zm1 0h12v1h-12zm12 0h2v15h-2zm3 0h1v1h-1zm41 0h1v1h-1zm1 0h1v2h-1zm1 0h13v1h-13zm14 0h1v1h-1z"/><path d="M530 177h2v1h-2zm2 0h1v1h-1zm207 0h1v1h-1zm1 0h14v1h-14zm14 0h1v3h-1zm22 0h1v1h-1zm1 0h14v1h-14zm66 0h1v2h-1zm1 0h1v1h-1zm64 0h1v1h-1zm1 0h25v1h-25zm46 0h12v1h-12zm14 0h1v14h-1zm1 0h1v1h-1zm41 0h1v1h-1zm3 0h12v1h-12zm12 0h1v1h-1zm-508 1h11v1h-11zm12 0h1v1h-1zm1 0h1v17h-1zm1 0h1v1h-1zm1 0h1v1h-1zm220 0h1v1h-1zm2 0h1v1h-1zm21 0h1v1h-1zm2 0h13v2h-13zm14 0h1v1h-1zm1 0h1v1h-1zm35 0h1v1h-1zm2 0h12v6h-12zm12 0h1v4h-1zm2 0h1v1h-1zm65 0h1v1h-1zm46 0h1v1h-1zm1 0h12v1h-12zm14 0h1v14h-1zm1 0h1v1h-1zm1 0h1v1h-1zm38 0h1v1h-1zm1 0h1v1h-1zm1 0h13v2h-13zm13 0h1v1h-1zm-507 1h1v1h-1zm1 0h11v1h-11z"/><path d="M530 179h3v1h-3zm3 0h1v2h-1zm1 0h1v1h-1zm206 0h1v1h-1zm1 0h14v1h-14zm14 0h1v3h-1zm36 0h1v15h-1zm1 0h1v1h-1zm36 0h1v1h-1zm1 0h13v5h-13zm14 0h1v1h-1zm67 0h24v1h-24zm46 0h13v1h-13zm15 0h1v14h-1zm1 0h1v1h-1zm38 0h1v1h-1zm1 0h13v1h-13zm-492 1h1v1h-1zm11 0h1v13h-1zm4 0h1v2h-1zm207 0h1v1h-1zm12 0h2v16h-2zm3 0h1v1h-1zm21 0h1v1h-1zm1 0h12v2h-12z"/><path d="M790 180h3v1h-3zm3 0h1v1h-1zm1 0h1v1h-1zm34 0h14v4h-14zm15 0h1v1h-1zm1 0h1v1h-1zm67 0h23v1h-23zm45 0h1v1h-1zm1 0h1v1h-1zm1 0h12v2h-12zm14 0h1v14h-1zm1 0h1v1h-1zm36 0h1v14h-1zm1 0h14v1h-14zm14 0h1v1h-1zm1 0h1v1h-1zm-505 1h11v1h-11zm12 0h1v1h-1zm1 0h1v16h-1zm2 0h1v1h-1zm207 0h11v1h-11zm14 0h1v1h-1zm21 0h1v1h-1zm13 0h1v13h-1zm3 0h1v1h-1zm1 0h1v14h-1zm49 0h1v1h-1zm67 0h1v1h-1zm2 0h22v1h-22zm45 0h1v1h-1zm16 0h1v1h-1zm1 0h1v1h-1zm32 0h1v1h-1zm1 0h1v1h-1zm4 0h1v1h-1zm1 0h11v3h-11zm11 0h1v1h-1zm-502 1h11v1h-11z"/><path d="M532 182h3v15h-3zm3 0h1v1h-1zm1 0h1v1h-1zm208 0h12v7h-12zm12 0h1v2h-1zm1 0h1v1h-1zm21 0h13v1h-13zm14 0h1v1h-1zm33 0h1v1h-1zm2 0h15v2h-15zm15 0h1v1h-1zm1 0h1v1h-1zm68 0h1v1h-1zm46 0h1v1h-1zm1 0h16v1h-16zm16 0h1v13h-1zm1 0h1v1h-1zm1 0h1v1h-1zm1 0h1v1h-1zm28 0h1v1h-1zm2 0h2v13h-2zm3 0h1v1h-1zm1 0h12v2h-12zm12 0h1v1h-1zm1 0h1v1h-1z"/><path d="M522 183h11v1h-11zm13 0h1v14h-1zm2 0h1v1h-1zm204 0h1v1h-1zm1 0h1v1h-1zm15 0h1v1h-1zm23 0h12v2h-12zm12 0h2v12h-2zm4 0h1v13h-1zm1 0h1v1h-1zm27 0h1v2h-1zm1 0h16v2h-16zm17 0h1v1h-1zm70 0h1v1h-1zm1 0h21v1h-21zm46 0h13v1h-13zm17 0h1v12h-1zm2 0h1v1h-1zm26 0h1v1h-1zm2 0h1v12h-1zm4 0h12v2h-12zm-488 1h1v1h-1zm1 0h11v1h-11zm13 0h1v13h-1zm220 0h1v12h-1zm1 0h1v1h-1z"/><path d="M779 184h16v1h-16zm16 0h2v12h-2zm2 0h1v12h-1zm2 0h1v1h-1zm1 0h1v1h-1zm20 0h1v1h-1zm2 0h1v1h-1zm19 0h1v1h-1zm1 0h1v1h-1zm71 0h1v1h-1zm1 0h20v1h-20zm45 0h16v1h-16zm16 0h1v11h-1zm2 0h1v1h-1zm1 0h1v12h-1zm2 0h1v1h-1zm21 0h1v1h-1zm2 0h1v12h-1zm1 0h1v12h-1zm18 0h1v1h-1zm-499 1h1v1h-1zm1 0h11v1h-11zm13 0h1v1h-1zm1 0h1v2h-1zm205 0h12v1h-12zm14 0h1v2h-1z"/><path d="M780 185h16v1h-16zm18 0h3v11h-3zm3 0h1v12h-1zm3 0h1v1h-1zm6 0h1v1h-1zm3 0h1v1h-1zm2 0h1v1h-1zm2 0h1v1h-1zm1 0h5v12h-5zm5 0h17v2h-17zm17 0h1v1h-1zm1 0h1v1h-1zm73 0h1v1h-1zm1 0h19v1h-19zm45 0h17v1h-17zm17 0h5v11h-5zm5 0h1v12h-1zm1 0h1v1h-1zm1 0h1v1h-1zm15 0h1v1h-1zm1 0h3v11h-3zm5 0h16v1h-16zm16 0h1v1h-1zm1 0h1v1h-1zm-494 1h8v3h-8zm230 0h1v1h-1zm22 0h1v1h-1z"/><path d="M781 186h24v1h-24zm24 0h1v11h-1zm11 0h4v11h-4zm98 0h1v1h-1zm1 0h19v1h-19zm45 0h1v1h-1zm1 0h18v1h-18zm22 0h1v11h-1zm6 0h1v1h-1zm1 0h1v1h-1zm1 0h1v1h-1zm2 0h1v1h-1zm1 0h1v1h-1zm4 0h2v11h-2zm7 0h15v1h-15zm15 0h1v1h-1zm1 0h1v1h-1zm1 0h1v1h-1zm-497 1h11v1h-11zm12 0h1v1h-1zm1 0h1v10h-1zm205 0h1v1h-1zm14 0h1v9h-1zm24 0h1v1h-1zm1 0h23v1h-23zm24 0h1v1h-1z"/><path d="M807 187h32v1h-32zm32 0h1v1h-1zm1 0h1v1h-1zm75 0h1v1h-1zm46 0h1v1h-1zm1 0h21v1h-21zm22 0h1v1h-1zm1 0h13v10h-13zm20 0h14v1h-14zm14 0h1v1h-1zm1 0h1v1h-1zm-495 1h1v1h-1zm1 0h11v1h-11zm11 0h3v1h-3zm3 0h1v2h-1zm218 0h1v1h-1zm24 0h1v1h-1zm1 0h55v1h-55zm55 0h1v1h-1zm1 0h1v1h-1zm77 0h18v1h-18z"/><path d="M963 188h55v1h-55zm55 0h1v1h-1zm1 0h1v1h-1zm1 0h1v1h-1zm-495 1h1v1h-1zm2 0h11v1h-11zm217 0h14v1h-14zm14 0h1v3h-1zm1 0h1v1h-1zm24 0h1v1h-1zm2 0h52v1h-52zm52 0h1v1h-1zm1 0h1v1h-1zm125 0h1v1h-1zm2 0h52v1h-52zm52 0h1v1h-1zm1 0h1v1h-1zm-491 1h1v1h-1zm2 0h9v2h-9zm10 0h1v1h-1zm1 0h1v7h-1zm2 0h1v1h-1zm202 0h1v1h-1zm11 0h3v6h-3zm5 0h1v1h-1zm24 0h1v1h-1zm1 0h1v1h-1zm1 0h50v1h-50zm50 0h1v1h-1zm1 0h1v1h-1zm79 0h1v1h-1zm1 0h17v1h-17zm48 0h1v1h-1zm1 0h49v1h-49zm49 0h1v1h-1zm2 0h1v1h-1zm-490 1h1v1h-1zm1 0h1v1h-1z"/><path d="M539 191h3v6h-3zm3 0h1v1h-1zm217 0h1v4h-1zm26 0h1v1h-1zm1 0h49v1h-49zm49 0h1v1h-1zm1 0h1v1h-1zm82 0h16v1h-16zm48 0h1v1h-1zm1 0h47v1h-47zm47 0h1v1h-1zm1 0h1v1h-1zm-487 1h1v1h-1z"/><path d="M529 192h11v1h-11zm13 0h1v1h-1zm1 0h1v1h-1zm201 0h1v1h-1zm1 0h14v1h-14zm40 0h1v1h-1zm2 0h47v1h-47zm47 0h1v1h-1zm1 0h1v1h-1zm84 0h15v1h-15zm49 0h1v1h-1zm1 0h1v1h-1zm1 0h43v1h-43zm43 0h1v1h-1zm1 0h1v1h-1zm-485 1h1v1h-1zm1 0h11v1h-11zm12 0h1v1h-1zm203 0h1v1h-1zm1 0h11v1h-11zm12 0h2v1h-2zm2 0h1v1h-1zm26 0h1v1h-1zm1 0h1v1h-1zm1 0h1v1h-1zm1 0h42v1h-42zm42 0h1v1h-1zm2 0h1v1h-1zm1 0h1v1h-1zm84 0h1v1h-1zm1 0h15v1h-15zm50 0h1v1h-1zm1 0h1v1h-1zm1 0h41v1h-41zm41 0h1v1h-1zm1 0h1v1h-1zm-476 1h4v3h-4zm5 0h2v1h-2zm2 0h1v1h-1zm1 0h1v1h-1zm200 0h1v1h-1zm2 0h13v1h-13zm13 0h1v2h-1zm30 0h39v1h-39zm39 0h1v1h-1zm1 0h1v1h-1zm1 0h1v1h-1zm90 0h13v2h-13zm49 0h1v1h-1zm1 0h1v1h-1zm1 0h38v1h-38zm38 0h1v1h-1zm2 0h1v1h-1zm-482 1h1v1h-1z"/><path d="M531 195h13v1h-13zm13 0h1v2h-1zm1 0h1v1h-1zm202 0h13v1h-13zm14 0h1v1h-1zm30 0h1v1h-1zm1 0h36v1h-36zm36 0h1v1h-1zm1 0h1v1h-1zm1 0h1v1h-1zm141 0h1v1h-1zm2 0h1v1h-1zm1 0h34v1h-34zm34 0h1v1h-1zm1 0h1v1h-1z"/><path d="M542 196h3v1h-3zm3 0h1v1h-1zm141 0h13v1h-13zm13 0h1v1h-1zm47 0h1v1h-1zm1 0h11v1h-11zm11 0h3v1h-3zm3 0h1v1h-1zm32 0h1v1h-1zm1 0h1v1h-1zm1 0h31v1h-31zm31 0h1v1h-1zm1 0h1v1h-1zm2 0h1v1h-1zm36 0h11v1h-11zm11 0h1v1h-1zm1 0h1v1h-1zm44 0h13v1h-13zm13 0h1v1h-1zm40 0h1v1h-1zm1 0h1v1h-1zm1 0h1v1h-1zm1 0h28v1h-28zm28 0h1v1h-1zm1 0h1v1h-1zm1 0h1v1h-1zm1 0h1v1h-1zm-516 1h12v1h-12zm12 0h1v1h-1zm1 0h1v1h-1zm27 0h14v1h-14zm14 0h1v1h-1zm140 0h12v1h-12zm12 0h1v1h-1zm1 0h1v1h-1zm1 0h1v1h-1zm48 0h12v1h-12zm12 0h1v1h-1zm1 0h1v1h-1zm34 0h1v1h-1zm1 0h1v1h-1zm2 0h1v1h-1zm1 0h23v1h-23zm23 0h1v1h-1zm1 0h1v1h-1zm1 0h1v1h-1zm1 0h1v1h-1zm1 0h1v1h-1zm1 0h1v1h-1zm37 0h1v1h-1zm1 0h11v1h-11zm11 0h1v1h-1zm1 0h1v1h-1zm45 0h1v1h-1zm1 0h11v1h-11zm11 0h1v1h-1zm1 0h1v1h-1zm1 0h1v1h-1zm41 0h1v1h-1zm2 0h1v1h-1zm1 0h21v1h-21zm21 0h1v1h-1zm1 0h1v1h-1zm2 0h1v1h-1zm1 0h1v1h-1zm-513 1h12v1h-12zm12 0h1v1h-1zm1 0h1v1h-1zm28 0h1v1h-1zm1 0h12v1h-12zm12 0h1v1h-1zm153 0h1v1h-1zm48 0h1v1h-1zm52 0h1v1h-1zm1 0h1v1h-1zm2 0h1v1h-1zm1 0h14v1h-14zm14 0h1v1h-1zm1 0h1v1h-1zm3 0h1v1h-1zm1 0h1v1h-1zm100 0h1v1h-1zm59 0h1v1h-1zm1 0h1v1h-1zm2 0h1v1h-1zm1 0h12v1h-12zm12 0h1v1h-1zm1 0h1v1h-1zm2 0h1v1h-1zm1 0h1v1h-1zm-199 1h1v1h-1zm6 0h1v1h-1zm1 0h1v1h-1zm1 0h1v1h-1zm1 0h1v1h-1zm1 0h1v1h-1zm2 0h1v1h-1zm1 0h1v1h-1zm3 0h1v1h-1zm172 0h1v1h-1zm1 0h1v1h-1zm1 0h1v1h-1zm1 0h1v1h-1zm1 0h1v1h-1zm1 0h1v1h-1z"/></g><path d="M862 105h1v1h-1zm24 11h1v1h-1zm-378 5h1v1h-1zm23 0h1v1h-1zm465 63h1v1h-1zm-32 8h1v1h-1zm51 2h1v1h-1z" fill="#737373"/><path d="M994 105h1v1h-1zm-309 1h1v1h-1zm300 0h1v1h-1zm-10 1h1v1h-1zm27 0h1v1h-1zm-261 1h1v1h-1zm278 8h1v1h-1zm-133 2h1v1h-1zm-146 5h1v1h-1zm215 1h1v1h-1zm-64 3h1v1h-1zm79 0h1v1h-1zm-77 3h1v1h-1zm0 1h1v1h-1zm2 2h1v1h-1zm-159 12h1v1h-1zm170 5h1v1h-1zm57 5h1v1h-1zm-53 1h1v1h-1zm1 1h1v1h-1zm-391 3h1v1h-1zm255 0h1v1h-1zm-75 1h1v1h-1zm329 6h1v1h-1zm-63 2h1v1h-1zm-229 1h1v1h-1zm291 0h1v1h-1zm-198 4h1v1h-1zm144 6h1v1h-1zm-16 4h1v1h-1zm44 0h1v1h-1zm-18 2h1v1h-1zm-452 12h1v1h-1zm274 1h1v1h-1zm1 0h1v1h-1zm182 0h1v1h-1z" fill="#818286"/><path d="M733 121h1v1h-1zm9 14h1v1h-1zm165 13h1v1h-1zm58 0h1v1h-1zm-64 21h1v1h-1zm100 14h1v1h-1z" fill="#7a7f7f"/><path d="M819 183h1v1h-1zm-79 1h1v1h-1z" fill="#7f7f73"/><path fill="#7f8484" d="M549 198h1v1h-1z"/><path d="M626 88h1v1h-1zm-64 18h1v1h-1zm0 40h1v1h-1z" fill="#1f1f5f"/><path d="M982 104h1v1h-1zm15 0h1v1h-1zm-264 1h1v1h-1zm145 0h1v1h-1zm128 1h1v1h-1zm-69 2h1v88h-1zm-188 2h1v1h-1zm7 8h1v1h-1zm235 1h1v1h-1zm1 0h1v1h-1zm-291 1h1v1h-1zm298 0h1v1h-1zm-466 2h1v1h-1zm471 0h1v1h-1zm-30 3h1v1h-1zm54 3h1v1h-1zm-62 10h1v1h-1zm-207 1h1v1h-1zm207 1h1v1h-1zm-18 4h1v1h-1zm17 2h1v1h-1zm-218 9h1v1h-1zm146 2h1v1h-1zm72 0h1v1h-1zm-52 1h1v1h-1zm-392 1h1v1h-1zm199 2h1v1h-1zm1 0h1v1h-1zm194 0h1v1h-1zm-187 2h1v1h-1zm169 0h1v1h-1zm52 3h1v1h-1zm-422 1h1v1h-1zm-21 1h1v1h-1zm341 0h1v1h-1zm-112 2h1v1h-1zm215 1h1v1h-1zm19 1h1v1h-1zm-18 1h1v1h-1zm-196 1h1v1h-1zm-222 2h1v1h-1zm475 2h1v1h-1zm19 0h1v1h-1zm-118 3h1v1h-1zm-370 3h1v1h-1zm264 0h1v1h-1zm187 1h1v1h-1zm1 0h1v1h-1zm2 0h1v1h-1zm-252 1h1v1h-1zm-198 4h1v1h-1zm476 0h1v1h-1zm-257 3h1v1h-1zm72 1h1v1h-1zm-1 1h1v1h-1zm-88 1h1v1h-1zm192 0h1v1h-1zm-108 1h1v1h-1zm-323 1h1v1h-1zm415 0h1v1h-1zm-123 1h1v1h-1zm202 0h1v1h-1zm-195 1h1v1h-1zm182 0h1v1h-1z" fill="#7f7f84"/><path d="M463 109h1v27h-1zm0 27h1v1h-1zm14 81h1v1h-1z" fill="#262161"/><path d="M968 135h1v1h-1zm-138 26h1v1h-1z" fill="#6a7f7f"/><path fill="#251d5f" d="M447 225h1v1h-1z"/><path d="M979 105h1v1h-1zm-295 1h1v1h-1zm61 2h1v1h-1zm135 0h1v1h-1zm91 0h1v1h-1zm-224 1h1v1h-1zm267 1h1v1h-1zm3 2h1v1h-1zm6 6h1v1h-1zm-295 2h1v1h-1zm1 0h1v1h-1zm28 1h1v1h-1zm270 4h1v1h-1zm-58 6h1v1h-1zm-210 1h1v1h-1zm121 5h1v1h-1zm2 3h1v1h-1zm-152 5h1v1h-1zm18 9h1v1h-1zm163 1h1v1h-1zm-188 6h1v1h-1zm67 3h1v1h-1zm176 1h1v1h-1zm-231 4h1v1h-1zm294 2h1v1h-1zm-255 1h1v1h-1zm-243 1h1v1h-1zm375 3h1v1h-1zm-113 1h1v1h-1zm-277 1h1v1h-1zm392 1h1v1h-1zm-132 1h1v1h-1zm-36 2h1v1h-1zm170 0h1v1h-1zm115 0h1v1h-1zm-36 3h1v1h-1zm-467 1h1v1h-1zm442 5h1v1h-1zm54 0h1v1h-1zm-8 5h1v1h-1zm-132 2h1v1h-1zm-346 1h1v1h-1zm268 0h1v1h-1zm21 0h1v1h-1zm161 0h1v1h-1z" fill="#818183"/><path d="M614 106h1v1h-1zm-152 3h1v1h-1zm116 47h1v1h-1zm-130 39h1v1h-1zm117 4h48v1h-48zm48 0h1v1h-1z" fill="#242062"/><path fill="#1c0038" d="M369 109h1v1h-1z"/><path d="M370 109h89v1h-89zm89 0h1v1h-1z" fill="#1f003f"/><path fill="#7f7b7f" d="M891 154h1v1h-1z"/><path d="M864 105h1v1h-1zm46 48h1v1h-1zm104 41h1v1h-1zm-201 6h1v1h-1z" fill="#7f8383"/><path d="M370 108h89v1h-89zm89 0h1v1h-1zm1 0h1v1h-1zm2 2h1v1h-1zm-83 87h1v26h-1zm0 26h1v1h-1z" fill="#241f5f"/><path d="M1019 113h1v1h-1zm-274 44h1v1h-1zm230 22h1v1h-1zm-134 9h1v1h-1z" fill="#76767f"/><path d="M477 90h1v124h-1zm150 0h1v124h-1zm-179 77h1v1h-1zm29 47h1v1h-1zm150 0h1v1h-1z" fill="#232161"/><path d="M789 104h1v1h-1zm224 4h1v1h-1zm-50 4h1v1h-1zm44 13h1v1h-1zm22 3h1v1h-1zm-132 36h1v1h-1zm-145 1h1v1h-1zm258 9h1v1h-1zm-475 3h1v1h-1zm263 4h1v1h-1zm156 0h1v1h-1zm-45 1h1v1h-1zm90 1h1v1h-1zm-213 12h1v1h-1zm76 4h1v1h-1z" fill="#3f3f3f"/><path d="M615 106h1v12h-1zm0 12h1v1h-1zm0 67h1v13h-1zm0 13h1v1h-1z" fill="#1f0f5f"/><path d="M580 121h1v1h-1zm34 0h1v1h-1z" fill="#215"/><path fill="#74748b" d="M527 166h1v1h-1z"/><path fill="#232060" d="M627 89h1v1h-1z"/><path d="M615 105h1v1h-1zm0 79h1v1h-1z" fill="#12125b"/><path fill="#241e60" d="M368 108h1v1h-1z"/><path d="M883 112h1v1h-1zm122 11h1v1h-1zm-245 8h1v1h-1zm144 43h1v1h-1zm99 8h1v1h-1zm-197 2h1v1h-1zm-263 5h1v1h-1zm202 9h1v1h-1zm82 0h1v1h-1zm152 1h1v1h-1z" fill="#7a7a85"/><path fill="#808186" d="M1027 127h1v1h-1z"/><path fill="#888" d="M832 196h1v1h-1z"/><path fill="#242261" d="M626 87h1v1h-1z"/><path d="M626 90h1v124h-1zm-12 13h1v1h-1zm1 1h1v1h-1zm11 110h1v1h-1z" fill="#003"/><path d="M997 103h1v1h-1zm-262 19h1v1h-1zm6 65h1v1h-1z" fill="#6a6a7f"/><path d="M729 105h1v1h-1zm134 0h1v1h-1zm119 0h1v1h-1zm18 0h1v1h-1zm2 0h1v1h-1zm-512 1h1v1h-1zm242 0h1v1h-1zm1 0h1v1h-1zm130 0h1v1h-1zm112 0h1v1h-1zm1 0h1v1h-1zm29 0h1v1h-1zm-266 1h1v1h-1zm268 0h1v1h-1zm-261 2h1v1h-1zm43 0h1v48h-1zm147 0h1v87h-1zm34 0h1v1h-1zm-4 2h1v1h-1zm-212 6h1v1h-1zm1 0h1v1h-1zm235 1h1v1h-1zm3 0h1v1h-1zm-237 1h1v1h-1zm202 0h1v1h-1zm25 0h1v1h-1zm6 0h1v1h-1zm7 0h1v1h-1zm3 0h1v1h-1zm-264 2h1v1h-1zm2 0h1v1h-1zm151 0h1v1h-1zm91 0h1v1h-1zm24 0h1v1h-1zm23 3h1v1h-1zm-15 4h1v1h-1zm-41 1h1v1h-1zm41 0h1v1h-1zm-42 1h1v1h-1zm-226 2h1v1h-1zm152 0h1v1h-1zm-152 1h1v1h-1zm16 0h1v1h-1zm-16 1h1v1h-1zm285 2h1v1h-1zm-520 4h24v1h-24zm24 0h1v1h-1zm226 0h1v1h-1zm207 0h1v1h-1zm-207 2h1v1h-1zm144 0h1v1h-1zm47 1h1v1h-1zm16 0h1v1h-1zm-228 1h1v1h-1zm-37 1h1v1h-1zm186 0h1v1h-1zm62 9h1v1h-1zm-55 2h1v1h-1zm19 0h1v1h-1zm-393 1h1v1h-1zm270 0h1v1h-1zm175 0h1v1h-1zm-50 2h1v1h-1zm34 0h1v1h-1zm-245 1h16v1h-16zm16 0h1v1h-1zm1 0h1v1h-1zm194 0h1v1h-1zm-190 1h1v1h-1zm224 1h1v1h-1zm1 1h1v1h-1zm-443 1h1v1h-1zm225 0h1v1h-1zm100 0h1v1h-1zm-325 2h1v1h-1zm20 1h1v1h-1zm208 0h1v1h-1zm17 0h1v1h-1zm80 0h1v1h-1zm135 0h1v1h-1zm-457 1h1v1h-1zm410 0h1v1h-1zm-391 1h1v1h-1zm1 1h1v1h-1zm421 0h1v1h-1zm-197 1h1v1h-1zm21 0h1v1h-1zm-244 1h1v1h-1zm207 0h1v1h-1zm-206 2h1v1h-1zm243 0h1v1h-1zm178 0h1v1h-1zm-197 1h1v1h-1zm37 0h1v1h-1zm236 0h1v1h-1zm-290 1h1v1h-1zm272 0h1v1h-1zm-494 1h1v1h-1zm17 0h1v1h-1zm223 0h1v1h-1zm89 0h1v1h-1zm182 0h1v1h-1zm-492 2h1v1h-1zm420 1h1v1h-1zm-436 1h1v1h-1zm1 1h1v1h-1zm303 0h1v1h-1zm181 0h1v1h-1zm-226 1h1v1h-1zm43 0h1v1h-1zm-283 1h1v1h-1zm267 0h1v1h-1zm11 0h1v1h-1zm165 0h1v1h-1zm18 0h1v1h-1zm-193 1h1v1h-1zm1 0h1v1h-1zm151 0h1v1h-1zm27 0h1v1h-1zm2 0h1v1h-1zm8 0h1v1h-1zm2 0h1v1h-1zm-238 2h1v1h-1zm155 0h1v1h-1zm-134 1h1v1h-1zm241 0h1v1h-1zm-278 2h1v1h-1zm275 0h1v1h-1zm-492 1h1v1h-1zm440 1h1v1h-1zm51 0h1v1h-1zm-488 3h1v1h-1zm303 0h1v1h-1zm104 1h1v1h-1zm73 0h1v1h-1zm-263 1h1v1h-1zm79 1h1v1h-1zm154 0h1v1h-1zm1 0h1v1h-1zm23 0h1v1h-1zm-498 1h1v1h-1zm300 0h1v1h-1zm183 0h1v1h-1zm6 1h1v1h-1z" fill="#818185"/><path fill="#557171" d="M891 155h1v1h-1z"/><path fill="#231f5e" d="M446 225h1v1h-1z"/><path d="M774 105h1v1h-1zm15 0h1v1h-1zm189 0h1v1h-1zm-235 2h1v1h-1zm224 3h1v1h-1zm-434 11h1v1h-1zm419 7h1v1h-1zm-1 2h1v1h-1zm-3 11h1v1h-1zm-247 4h1v1h-1zm0 16h1v1h-1zm89 0h1v1h-1zm126 1h1v1h-1zm-392 1h1v1h-1zm305 10h1v1h-1zm-37 1h1v1h-1zm54 2h1v1h-1zm-108 1h1v1h-1zm239 4h1v1h-1zm-185 16h1v1h-1z" fill="#7e8181"/><path d="M1022 116h1v1h-1zm-74 23h1v1h-1zm-1 17h1v1h-1zm-27 9h1v1h-1zm0 1h1v1h-1zm-382 16h1v1h-1zm447 18h1v1h-1zm12 0h1v1h-1z" fill="#777f7f"/><path d="M1011 131h1v1h-1zm-462 69h1v1h-1z" fill="#7f7f55"/><path d="M547 195h1v1h-1zm439 5h1v1h-1z" fill="#7f7a7f"/><path d="M563 105h1v1h-1zm0 2h1v38h-1zm16 13h1v1h-1zm-16 25h1v1h-1zm0 4h1v48h-1zm0 48h1v1h-1z" fill="#252160"/><path d="M790 158h1v1h-1zm-87 3h15v1h-15zm15 0h1v1h-1z" fill="#827d82"/><path d="M565 106h47v1h-47zm47 0h1v1h-1zm-231 91h1v1h-1zm95 18h1v1h-1zm2 2h1v1h-1z" fill="#262162"/><path d="M490 107h1v1h-1zm431 1h1v1h-1zm-39 3h1v1h-1zm-131 1h1v1h-1zm1 1h1v1h-1zm248 7h1v1h-1zm-46 4h1v1h-1zm-62 2h1v1h-1zm-143 37h1v1h-1zm82 2h1v1h-1zm73 8h1v1h-1zm-76 3h1v1h-1zm196 7h1v1h-1zm-207 1h1v1h-1zm-75 4h1v1h-1zm172 0h1v1h-1zm58 8h1v1h-1zm29 3h1v1h-1zm-191 1h1v1h-1z" fill="#7f8285"/><path fill="#828287" d="M1026 122h1v1h-1z"/><path d="M740 140h1v1h-1zm-39 22h1v1h-1z" fill="#717f7f"/><path d="M1008 177h1v1h-1zm-233 4h1v1h-1zm50 18h1v1h-1z" fill="#7f007f"/><path fill="#1b1b5b" d="M368 78h1v1h-1z"/><path d="M563 104h1v1h-1zm-1 43h1v1h-1zm-116 48h1v1h-1z" fill="#1f1f5e"/><path fill="#282369" d="M655 59h1v1h-1z"/><path d="M368 79h1v1h-1zm94 32h1v24h-1zm0 24h1v1h-1zm-67 2h64v1h-64zm64 0h1v1h-1zm2 0h1v1h-1zm19 79h144v1H480zm144 0h1v1h-1z" fill="#231f61"/><path d="M490 103h1v1h-1zm1 0h1v1h-1zm58 0h1v1h-1zm433 0h1v1h-1zm1 0h1v1h-1zm4 0h1v1h-1zm2 0h1v1h-1zm3 0h1v1h-1zm1 0h1v1h-1zm1 0h1v1h-1zm2 0h1v1h-1zm3 0h1v1h-1zm1 0h1v1h-1zm-450 1h1v1h-1zm134 0h1v1h-1zm1 0h41v1h-41zm41 0h1v1h-1zm3 0h1v1h-1zm45 0h14v1h-14zm14 0h1v1h-1zm43 0h1v1h-1zm2 0h13v1h-13zm13 0h1v1h-1zm17 0h14v1h-14zm14 0h1v1h-1zm1 0h1v1h-1zm44 0h12v1h-12zm12 0h1v1h-1zm47 0h1v1h-1zm20 0h1v1h-1zm2 0h1v1h-1zm-514 1h1v1h-1zm248 0h1v1h-1zm2 0h1v1h-1zm91 0h1v1h-1zm107 0h1v1h-1zm68 0h1v1h-1zm2 0h1v1h-1zm-265 1h1v1h-1zm178 0h1v1h-1zm88 0h1v1h-1zm-263 1h1v1h-1zm45 0h1v1h-1zm72 0h1v1h-1zm18 0h1v1h-1zm91 0h1v1h-1zm43 2h1v1h-1zm7 6h1v1h-1zm-62 1h1v1h-1zm-203 1h1v1h-1zm1 2h1v1h-1zm131 0h1v1h-1zm69 0h1v1h-1zm-228 2h1v1h-1zm1 0h1v1h-1zm1 0h1v1h-1zm1 0h1v1h-1zm249 0h1v1h-1zm1 0h1v1h-1zm-92 1h1v1h-1zm89 0h1v1h-1zm-88 1h1v1h-1zm84 2h1v1h-1zm-234 2h1v1h-1zm211 0h1v1h-1zm-56 4h1v1h-1zm1 1h1v1h-1zm1 1h1v1h-1zm71 0h1v1h-1zm-209 1h1v1h-1zm208 0h1v1h-1zm44 0h1v1h-1zm-64 3h1v1h-1zm19 0h1v1h-1zm46 0h1v1h-1zm-65 1h1v1h-1zm65 0h1v1h-1zm-481 1h1v1h-1zm349 0h1v1h-1zm85 3h1v1h-1zm-231 1h1v1h-1zm1 0h1v1h-1zm230 0h1v1h-1zm-264 1h1v1h-1zm1 0h23v1h-23zm23 0h1v1h-1zm5 0h1v1h-1zm3 0h1v1h-1zm24 0h1v1h-1zm208 0h1v1h-1zm-209 1h1v1h-1zm190 0h1v1h-1zm-41 1h1v1h-1zm-150 1h1v1h-1zm151 0h1v1h-1zm58 2h1v1h-1zm-211 1h1v1h-1zm155 1h1v1h-1zm56 1h1v1h-1zm0 1h1v1h-1zm-54 1h1v1h-1zm36 0h1v1h-1zm18 1h1v1h-1zm-73 1h1v1h-1zm-372 1h1v1h-1zm1 1h1v1h-1zm226 0h1v1h-1zm101 0h1v1h-1zm-18 1h1v1h-1zm-40 1h1v1h-1zm125 0h1v1h-1zm-392 1h1v1h-1zm179 0h1v1h-1zm47 0h1v1h-1zm167 0h1v1h-1zm50 0h1v1h-1zm-442 1h1v1h-1zm372 0h1v1h-1zm-66 1h1v1h-1zm18 0h1v1h-1zm69 0h1v1h-1zm-391 1h1v1h-1zm304 0h1v1h-1zm68 1h1v1h-1zm50 0h1v1h-1zm64 0h1v1h-1zm-113 1h1v1h-1zm20 0h1v1h-1zm48 0h1v1h-1zm-439 1h1v1h-1zm439 0h1v1h-1zm45 0h1v1h-1zm-504 1h1v1h-1zm283 0h1v1h-1zm-37 1h1v1h-1zm19 0h1v1h-1zm195 0h1v1h-1zm44 0h1v1h-1zm-183 1h1v1h-1zm140 0h1v1h-1zm-196 1h1v1h-1zm56 0h1v1h-1zm18 0h1v1h-1zm-111 1h1v1h-1zm214 0h1v1h-1zm20 0h1v1h-1zm-438 1h1v1h-1zm224 1h1v1h-1zm273 0h1v1h-1zm-273 1h1v1h-1zm18 0h1v1h-1zm54 0h1v1h-1zm201 0h1v1h-1zm-124 1h1v1h-1zm67 0h1v1h-1zm-178 1h1v1h-1zm33 0h1v1h-1zm19 0h1v1h-1zm60 0h1v1h-1zm-391 1h1v1h-1zm392 0h1v1h-1zm67 0h1v1h-1zm54 0h1v1h-1zm-492 1h1v1h-1zm239 0h1v1h-1zm50 0h1v1h-1zm182 0h1v1h-1zm-490 1h1v1h-1zm391 0h1v1h-1zm97 0h1v1h-1zm22 0h1v1h-1zm-230 1h1v1h-1zm207 0h1v1h-1zm23 0h1v1h-1zm-509 1h1v1h-1zm240 0h1v1h-1zm18 0h1v1h-1zm46 0h1v1h-1zm180 0h1v1h-1zm-462 2h1v1h-1zm237 0h1v1h-1zm31 0h1v1h-1zm148 0h1v1h-1zm31 0h1v1h-1zm6 0h1v1h-1zm1 0h1v1h-1zm-454 1h1v1h-1zm1 1h1v1h-1zm417 0h1v1h-1zm65 0h1v1h-1zm-501 1h1v1h-1zm501 0h1v1h-1zm-481 1h1v1h-1zm479 1h1v1h-1zm-477 1h1v1h-1zm217 0h1v1h-1zm79 0h1v1h-1zm180 0h1v1h-1zm-237 2h1v1h-1zm133 0h1v1h-1zm102 0h1v1h-1zm-234 1h1v1h-1zm53 0h1v1h-1zm-310 1h1v1h-1zm258 0h1v1h-1zm50 0h1v1h-1zm132 0h1v1h-1zm-180 1h1v1h-1zm47 0h1v1h-1zm84 0h1v1h-1zm-389 1h1v1h-1zm259 0h1v1h-1zm182 0h1v1h-1zm-421 1h1v1h-1zm424 0h1v1h-1zm36 0h1v1h-1zm-479 1h1v1h-1zm171 0h1v1h-1zm219 0h1v1h-1zm17 0h1v1h-1zm69 0h1v1h-1zm-517 1h1v1h-1zm211 0h1v1h-1zm63 0h1v1h-1zm215 0h1v1h-1zm26 0h1v1h-1zm-514 1h1v1h-1zm42 0h1v1h-1zm270 0h1v1h-1zm17 0h1v1h-1z" fill="#7f7f7f"/><path d="M832 105h1v1h-1zm14 0h1v1h-1zm116 9h1v1h-1zm33 5h1v1h-1zm-24 9h1v1h-1zm-71 10h1v1h-1zm65 6h1v1h-1zm-59 3h1v1h-1zm-155 5h1v1h-1zm1 15h1v1h-1zm95 2h1v1h-1zm-93 3h1v1h-1zm216 2h1v1h-1zm-125 5h1v1h-1zm-88 1h1v1h-1zm248 1h1v1h-1zm-205 2h1v1h-1zm-40 5h1v1h-1zm158 6h1v1h-1zm-234 4h1v1h-1zm309 2h1v1h-1z" fill="#7e8184"/><path d="M965 112h1v1h-1zm-4 3h1v1h-1zm-4 5h1v1h-1zm-215 18h1v1h-1zm170 19h1v1h-1zm-93 42h1v1h-1z" fill="#828285"/><path fill="#231e5f" d="M562 148h1v1h-1z"/><path d="M998 103h1v1h-1zm-168 3h1v1h-1zm-83 2h1v1h-1zm219 2h1v1h-1zm-212 4h1v1h-1zm145 21h1v1h-1zm-139 1h1v1h-1zm119 2h1v1h-1zm68 5h1v1h-1zm-218 1h1v1h-1zm158 5h1v1h-1zm-136 4h1v1h-1zm79 9h1v1h-1zm138 6h1v1h-1zm-459 2h1v1h-1zm319 4h1v1h-1zm-2 4h1v1h-1zm81 1h1v1h-1zm-149 2h1v1h-1zm44 2h1v1h-1zm187 1h1v1h-1zm-468 2h1v1h-1zm318 5h1v1h-1zm-1 1h1v1h-1zm174 4h1v1h-1zm-248 1h1v1h-1zm-233 2h1v1h-1zm-26 1h1v1h-1zm494 0h1v1h-1z" fill="#6d6d6d"/><path d="M727 105h1v1h-1zm1 0h1v1h-1zm281 2h1v1h-1zm-34 17h1v1h-1zm32 0h1v1h-1zm-280 21h1v1h-1zm238 0h1v1h-1zm-211 4h1v1h-1zm19 12h1v1h-1zm195 9h1v1h-1zm60 6h1v1h-1zm-203 4h1v1h-1zm-27 2h1v1h-1zm186 2h1v1h-1zm-225 1h1v1h-1zm72 11h1v1h-1z" fill="#7e7e81"/><path fill="#211659" d="M393 167h1v1h-1z"/><path d="M479 216h1v1h-1zm146 0h1v1h-1z" fill="#231f62"/><path d="M479 88h1v1h-1zm146 0h1v1h-1z" fill="#1e1e5f"/><path d="M751 111h1v1h-1zm7 10h1v1h-1z" fill="#7f7f66"/><path fill="#7e8385" d="M828 197h1v1h-1z"/><path fill="#715571" d="M491 200h1v1h-1z"/><path d="M478 88h1v1h-1zm101 35h1v32h-1zm0 32h1v1h-1z" fill="#211c5e"/><path d="M479 215h1v1h-1zm146 0h1v1h-1z" fill="#1e0f4b"/><path d="M447 60h1v17h-1zm0 17h1v1h-1zm0 91h1v25h-1zm0 25h1v1h-1zm0 33h1v18h-1zm0 18h1v1h-1z" fill="#1a1a58"/><path fill="#201d5f" d="M614 104h1v1h-1z"/><path d="M996 104h1v1h-1zm-16 1h1v1h-1zm-296 2h1v1h-1zm147 0h1v1h-1zm177 0h1v1h-1zm-324 2h1v87h-1zm331 2h1v1h-1zm-38 11h1v1h-1zm-237 2h1v1h-1zm234 0h1v1h-1zm-232 3h1v1h-1zm209 4h1v1h-1zm-54 3h1v1h-1zm-138 3h1v1h-1zm122 1h1v1h-1zm68 0h1v1h-1zm16 4h1v1h-1zm-234 3h1v1h-1zm25 0h1v1h-1zm151 4h1v1h-1zm-16 4h1v1h-1zm-147 4h1v1h-1zm204 1h1v1h-1zm-117 2h1v1h-1zm-83 1h1v1h-1zm-242 4h1v1h-1zm443 0h1v1h-1zm-159 2h1v1h-1zm160 1h1v1h-1zm-197 2h1v1h-1zm-242 1h1v1h-1zm458 2h1v1h-1zm-123 1h1v1h-1zm59 0h1v1h-1zm-60 4h1v1h-1zm109 1h1v1h-1zm-45 1h1v1h-1zm-91 4h1v1h-1zm24 1h1v1h-1zm-300 4h1v1h-1zm247 6h1v1h-1zm-105 1h1v1h-1zm79 1h1v1h-1zm244 0h1v1h-1zm-261 1h1v1h-1zm55 1h1v1h-1z" fill="#808084"/><path d="M735 106h1v1h-1zm9 2h1v1h-1zm47 65h1v1h-1zm-252 12h1v1h-1zm374 1h1v1h-1zm-365 13h1v1h-1z" fill="#818186"/><path d="M726 120h1v1h-1zm280 3h1v1h-1zm-277 22h1v1h-1zm8 29h1v1h-1zm6 17h1v1h-1zm68 9h1v1h-1z" fill="#7d7f82"/><path d="M581 121h31v1h-31zm31 0h1v1h-1zm-221 16h1v1h-1zm89 78h144v1H480zm144 0h1v1h-1zm-177 30h1v1h-1z" fill="#1c1c55"/><path d="M382 195h63v1h-63zm63 0h1v1h-1z" fill="#231e5c"/><path d="M447 58h1v1h-1zm179 31h1v1h-1zm-148 1h1v123h-1zm84 13h1v1h-1zm168 1h1v1h-1zm43 0h1v1h-1zm17 0h1v1h-1zm72 0h1v1h-1zm75 0h1v1h-1zm67 0h1v1h-1zm-264 1h1v1h-1zm32 1h1v58h-1zm108 0h1v1h-1zm92 0h1v1h-1zm-2 1h1v1h-1zm-6 4h1v1h-1zm-80 1h1v1h-1zm2 3h1v1h-1zm-130 1h1v1h-1zm1 2h1v1h-1zm199 1h1v1h-1zm-341 2h1v1h-1zm113 0h1v1h-1zm6 1h1v1h-1zm246 0h1v1h-1zm47 0h1v1h-1zm-495 1h1v15h-1zm446 0h1v1h-1zm26 0h1v1h-1zm24 1h1v1h-1zm-268 4h1v1h-1zm136 2h1v1h-1zm4 6h1v1h-1zm-368 2h1v1h-1zm-25 1h1v1h-1zm460 0h1v1h-1zm-208 2h1v1h-1zm-22 1h1v1h-1zm-4 1h1v1h-1zm172 1h1v1h-1zm-148 2h1v1h-1zm128 0h1v1h-1zm-129 2h1v1h-1zm132 3h1v1h-1zm2 3h1v1h-1zm-142 5h1v1h-1zm218 0h1v1h-1zm-49 3h1v1h-1zm30 0h1v1h-1zm-175 2h1v1h-1zm-381 3h1v1h-1zm457 0h1v1h-1zm-19 2h1v1h-1zm71 0h1v1h-1zm-370 1h1v1h-1zm372 2h1v1h-1zm2 3h1v1h-1zm68 0h1v1h-1zm-145 1h1v1h-1zm-313 1h1v1h-1zm243 0h1v1h-1zm38 1h1v1h-1zm211 1h1v1h-1zm-490 1h1v1h-1zm242 0h1v1h-1zm39 0h1v1h-1zm180 0h1v1h-1zm26 1h1v1h-1zm-264 1h1v1h-1zm61 0h1v1h-1zm201 0h1v1h-1zm-386 1h1v1h-1zm201 0h1v1h-1zm168 0h1v1h-1zm42 0h1v1h-1zm-485 2h1v1h-1zm302 1h1v1h-1zm-300 2h1v1h-1zm370 0h1v1h-1zm46 0h1v1h-1zm-118 1h1v1h-1zm119 0h1v1h-1zm1 1h1v1h-1zm-45 3h1v1h-1zm-369 1h1v1h-1zm196 0h1v1h-1zm93 0h1v1h-1zm130 0h1v1h-1zm-133 2h1v1h-1zm85 0h1v1h-1zm-389 1h1v1h-1zm302 0h1v1h-1zm-130 2h1v1h-1zm44 0h1v1h-1zm134 0h1v1h-1zm-390 1h1v1h-1zm73 0h1v1h-1zm420 0h1v1h-1zm18 0h1v1h-1zm-522 13h1v1h-1zm0 1h1v1h-1z"/><path d="M369 78h76v1h-76zm76 0h1v1h-1z" fill="#1d1d5f"/><path d="M984 103h1v1h-1zm-225 21h1v1h-1zm-35 38h1v1h-1zm251 36h1v1h-1z" fill="#6d6d92"/><path fill="#6f6f6f" d="M507 121h1v1h-1z"/><path d="M879 140h1v57h-1zm0 57h1v1h-1z" fill="#6f7f7f"/><path fill="#837f87" d="M826 198h1v1h-1z"/><path fill="#252261" d="M449 245h1v1h-1z"/><path fill="#7f6d6d" d="M1012 166h1v1h-1z"/><path fill="#667f7f" d="M973 106h1v1h-1z"/><path d="M614 120h1v1h-1zm-36 3h1v32h-1zm-185 14h1v1h-1zm185 18h1v1h-1zm-15 44h1v1h-1zm-85 17h1v1h-1zm148 0h1v1h-1z" fill="#242060"/><path d="M1028 127h1v1h-1zm-506 33h1v1h-1z" fill="#7c7f7f"/><path d="M760 132h1v1h-1zm3 63h1v1h-1z" fill="#848484"/><path d="M741 138h1v1h-1zm-56 61h14v1h-14zm14 0h1v1h-1zm49 0h13v1h-13zm13 0h1v1h-1zm104 0h12v1h-12zm12 0h1v1h-1zm45 0h12v1h-12zm12 0h1v1h-1z" fill="#778"/><path fill="#211e5f" d="M379 196h1v1h-1z"/><path fill="#282469" d="M449 59h1v1h-1z"/><path d="M657 60h1v184h-1zm-266 79h1v26h-1zm0 26h1v1h-1zm266 79h1v1h-1z" fill="#19194c"/><path d="M977 105h1v1h-1zm-76 34h1v1h-1zm2 3h1v1h-1zm44 11h1v1h-1zm-205 36h1v1h-1z" fill="#797f7f"/><path fill="#22175d" d="M446 167h1v1h-1z"/><path fill="#827f85" d="M548 197h1v1h-1z"/><path d="M369 79h1v1h-1zm195 25h1v1h-1z" fill="#232061"/><path d="M962 113h1v1h-1zm-232 52h1v1h-1zm237 0h1v1h-1zm-64 8h1v1h-1zm-366 7h1v1h-1zm13 19h1v1h-1zm371 0h1v1h-1zm-429 1h11v1h-11zm11 0h1v1h-1zm31 0h13v1h-13zm13 0h1v1h-1z" fill="#5f5f7f"/><path d="M727 163h1v1h-1zm-202 28h1v1h-1z" fill="#7f6f7f"/><path fill="#7f8286" d="M973 178h1v1h-1z"/><path d="M447 195h1v1h-1zm-65 30h63v1h-63zm63 0h1v1h-1z" fill="#221f60"/><path d="M972 126h1v1h-1zm-236 18h1v1h-1zm229 18h1v1h-1zm-438 6h1v1h-1zm316 15h1v1h-1z" fill="#808083"/><path fill="#221f5e" d="M379 224h1v1h-1z"/><path d="M989 105h4v1h-4zm4 0h1v1h-1zm-11 1h1v1h-1zm17 0h1v1h-1zm1 0h1v1h-1zm-225 1h1v1h-1zm102 0h1v1h-1zm-45 1h1v53h-1zm32 0h1v88h-1zm-329 14h1v17h-1zm0 17h1v1h-1zm166 8h25v1h-25zm25 0h1v1h-1zm223 3h1v4h-1zm0 4h1v1h-1zm14 3h1v1h-1zm-14 1h1v1h-1zm14 0h1v1h-1zm-131 3h1v1h-1zm-80 10h1v1h-1zm234 15h1v1h-1zm-240 9h1v1h-1zm118 1h1v1h-1z" fill="#838487"/><path d="M773 106h1v1h-1zm-20 8h1v1h-1zm255 11h1v1h-1zm-249 1h1v1h-1zm71 42h1v1h-1zm-318 5h1v1h-1zm497 4h1v1h-1zm-185 4h1v1h-1zm-79 16h1v1h-1z" fill="#7c7f83"/><path fill="#115" d="M615 119h1v1h-1z"/><path fill="#7f747f" d="M908 149h1v1h-1z"/><path fill="#1e1e5a" d="M446 78h1v1h-1z"/><path d="M738 105h1v1h-1zm110 0h1v1h-1zm158 0h1v1h-1zm-176 2h1v51h-1zm139 1h1v1h-1zm-86 3h1v1h-1zm134 0h1v1h-1zm-62 10h1v1h-1zm-66 31h1v1h-1zm-59 6h1v1h-1zm117 0h1v1h-1zm0 2h1v1h-1zm-197 2h1v1h-1zm-221 7h1v1h-1zm244 3h1v1h-1zm20 3h1v1h-1zm-56 1h1v1h-1zm20 2h1v1h-1zm66 3h1v1h-1zm203 1h1v1h-1zm-184 5h1v1h-1zm-81 2h1v1h-1zm32 9h1v1h-1zm-260 2h1v1h-1zm15 0h1v1h-1z" fill="#717171"/><path fill="#221f61" d="M392 166h1v1h-1z"/><path d="M579 184h1v1h-1zm-102 31h1v1h-1z" fill="#262061"/><path fill="#71718e" d="M878 199h1v1h-1z"/><path fill="#0f0f4f" d="M562 104h1v1h-1z"/><path fill="#251a61" d="M613 183h1v1h-1z"/><path fill="#7f7a85" d="M996 200h1v1h-1z"/><path d="M490 105h1v1h-1zm520 3h1v1h-1zm-256 8h1v1h-1zm230 3h1v1h-1zm40 1h1v1h-1zm-265 10h1v1h-1zm0 5h1v1h-1zm207 2h1v1h-1zm-221 21h1v1h-1zm6 8h1v1h-1zm216 3h1v1h-1zm-190 13h1v1h-1zm219 3h1v1h-1zm-214 5h1v1h-1zm-238 2h1v1h-1z" fill="#808085"/><path fill="#5d7474" d="M735 171h1v1h-1z"/><g fill="#262262"><path d="M450 60h204v20H450zm204 0h1v184h-1zM450 80h204v5H450zm-80 1h78v25h-78zm78 0h1v25h-1zm1 0h1v1h-1z"/><path d="M449 82h205v3H449zm0 3h205v1H449zm0 1h26v20h-26zm26 0h1v130h-1zm154 0h25v130h-25zm-259 20h105v1H370zm94 1h11v31h-11zm101 0h47v11h-47zm47 0h1v11h-1zm-47 11h47v1h-47zm47 0h1v1h-1zm-47 1h11v78h-11zm11 0h1v65h-1zm1 2h1v61h-1zm-113 17h11v106h-11zm-70 1h67v25h-67zm67 0h2v105h-2z"/><path d="M463 141h12v103h-12z"/><path d="M394 164h81v1h-81zm55 1h26v1h-26zm1 1h25v78h-25zm127 16h1v1h-1zm-1 2h1v13h-1zm1 1h1v1h-1zm1 0h34v12h-34zm34 0h1v12h-1z"/><path d="M577 186h35v11h-35zm-12 11h47v1h-47zm47 0h1v1h-1zm-231 1h94v25h-94zm94 18h1v1h-1zm154 0h25v28h-25zm-154 1h1v1h-1z"/><path d="M628 217h26v27h-26z"/><path d="M476 218h178v26H476z"/><path d="M475 219h179v25H475z"/><path d="M381 223h273v1H381zm69 21h204v1H450zm204 0h1v1h-1z"/></g><path d="M549 104h1v1h-1zm182 1h1v1h-1zm1 0h1v1h-1zm2 0h1v1h-1zm113 0h1v1h-1zm-57 1h1v1h-1zm147 0h1v1h-1zm0 1h1v1h-1zm35 0h1v1h-1zm-182 1h1v49h-1zm180 0h1v1h-1zm-89 1h1v1h-1zm4 6h1v1h-1zm2 3h1v1h-1zm-381 4h1v1h-1zm232 1h1v1h-1zm289 1h1v1h-1zm-134 3h1v1h-1zm-151 3h1v1h-1zm-236 9h1v1h-1zm377 3h1v1h-1zm22 3h1v1h-1zm60 9h1v1h-1zm0 2h1v1h-1zm-175 1h1v1h-1zm-71 4h1v1h-1zm229 2h1v1h-1zm18 0h1v1h-1zm-441 1h1v1h-1zm489 1h14v1h-14zm14 0h1v1h-1zm-296 1h1v1h-1zm41 0h1v1h-1zm0 1h1v1h-1zm57 0h1v1h-1zm-39 3h1v1h-1zm-37 1h1v1h-1zm-243 1h1v1h-1zm500 1h1v1h-1zm-1 2h1v1h-1zm-216 3h1v1h-1zm233 1h1v1h-1zm-51 1h1v1h-1zm30 0h1v1h-1zm-488 1h1v1h-1zm461 1h1v1h-1zm-239 1h1v1h-1zm74 1h1v1h-1zm97 0h1v1h-1zm-69 2h1v1h-1zm118 2h1v1h-1zm-120 1h1v1h-1zm121 0h1v1h-1zm-46 1h1v1h-1zm-133 1h1v1h-1zm54 2h1v1h-1zm130 0h1v1h-1zm-104 4h1v1h-1zm75 0h1v1h-1zm-75 1h1v1h-1z" fill="#7d7d82"/><path d="M832 104h1v1h-1zm103 0h1v1h-1zm-15 1h1v1h-1zm89 1h1v1h-1zm2 1h1v1h-1zm-261 3h1v1h-1zm135 4h1v1h-1zm2 3h1v1h-1zm138 2h1v1h-1zm-136 1h1v1h-1zm97 0h1v1h-1zm-10 4h1v1h-1zm30 0h1v1h-1zm22 1h1v1h-1zm-16 12h1v1h-1zm-504 2h23v1h-23zm23 0h1v1h-1zm196 5h1v1h-1zm28 5h1v1h-1zm154 1h1v1h-1zm2 3h1v1h-1zm-388 7h1v1h-1zm443 0h1v1h-1zm-19 1h1v1h-1zm-422 2h1v1h-1zm206 3h1v1h-1zm117 0h1v1h-1zm-116 1h1v1h-1zm21 0h1v1h-1zm38 0h1v1h-1zm1 5h1v1h-1zm-19 1h1v1h-1zm-35 6h1v1h-1zm83 3h1v1h-1zm-18 1h1v1h-1zm180 0h1v1h-1zm7 1h1v1h-1zm1 0h1v1h-1zm-467 6h1v1h-1zm444 5h1v1h-1zm46 0h1v1h-1zm-270 1h1v1h-1zm46 1h1v1h-1zm182 0h1v1h-1zm38 0h1v1h-1zm-182 1h1v1h-1zm179 0h1v1h-1zm-261 1h1v1h-1zm55 1h1v1h-1z" fill="#666"/><path d="M741 106h1v1h-1zm19 27h1v1h-1zm-59 11h1v1h-1zm79 45h1v1h-1zm11 8h1v1h-1zm212 2h1v1h-1z" fill="#767f7f"/><path d="M702 120h1v1h-1zm307 6h1v1h-1zm-113 6h1v1h-1zm116 0h1v1h-1zm-128 11h1v1h-1zm4 6h1v1h-1zm60 12h1v1h-1zm-199 1h1v1h-1zm263 8h1v1h-1zm-221 1h1v1h-1zm-33 12h1v1h-1zm-212 11h1v1h-1zm444 6h1v1h-1z" fill="#7f8282"/><path fill="#6f7f6f" d="M879 139h1v1h-1z"/><path d="M848 165h1v1h-1zm-344 35h1v1h-1z" fill="#7f5f7f"/><path d="M739 124h1v1h-1zm143 17h1v1h-1zm-150 3h1v1h-1zm71 56h1v1h-1z" fill="#75757f"/><path d="M656 59h1v1h-1zm-78 62h1v1h-1zm0 1h1v1h-1zm-186 16h1v1h-1zm171 9h1v1h-1zm15 37h1v1h-1zm36 0h1v1h-1zm-49 14h47v1h-47zm47 0h1v1h-1zm-232 26h1v1h-1z" fill="#242061"/><path d="M991 103h1v1h-1zm19 25h1v1h-1zm-258 38h1v1h-1zm93 14h1v1h-1zm-32 4h1v1h-1zm172 0h1v1h-1zm12 0h1v1h-1zm-474 4h1v1h-1zm220 4h1v1h-1zm228 4h1v1h-1zm40 0h1v1h-1zm-522 2h1v1h-1zm17 1h1v1h-1zm311 1h1v1h-1z" fill="#7c7c7c"/><path d="M490 104h1v1h-1zm493 0h1v1h-1zm3 0h1v1h-1zm13 0h1v1h-1zm-269 1h1v1h-1zm45 0h1v1h-1zm160 0h1v1h-1zm-196 1h1v1h-1zm140 0h1v1h-1zm-195 2h1v1h-1zm329 1h1v1h-1zm-263 2h1v1h-1zm213 2h1v1h-1zm-5 5h1v1h-1zm30 1h1v1h-1zm6 0h1v1h-1zm30 0h1v1h-1zm-41 1h1v1h-1zm-477 1h1v1h-1zm228 0h1v1h-1zm246 0h1v1h-1zm22 0h1v1h-1zm-24 1h1v1h-1zm-445 1h1v15h-1zm208 3h1v1h-1zm154 5h1v1h-1zm55 2h1v1h-1zm62 0h1v1h-1zm-270 3h1v1h-1zm137 0h1v1h-1zm70 0h1v1h-1zm18 0h1v1h-1zm62 1h1v1h-1zm-496 1h1v1h-1zm433 1h1v1h-1zm-65 1h1v1h-1zm-143 1h1v1h-1zm-21 2h1v1h-1zm-35 2h1v1h-1zm263 13h1v1h-1zm-243 3h1v1h-1zm4 1h1v1h-1zm47 0h1v1h-1zm17 0h1v1h-1zm-17 1h1v1h-1zm0 1h1v1h-1zm193 0h1v1h-1zm-215 1h1v1h-1zm-18 2h1v1h-1zm216 0h1v1h-1zm-434 10h1v1h-1zm19 0h1v1h-1zm241 1h1v1h-1zm178 0h1v1h-1zm-177 3h1v1h-1zm68 1h1v1h-1zm154 2h1v1h-1zm-477 1h1v1h-1zm20 2h1v1h-1zm298 3h1v1h-1zm-295 1h1v1h-1zm294 0h1v1h-1zm-1 1h1v1h-1zm-51 2h1v1h-1zm182 0h1v1h-1zm-146 5h1v1h-1zm-16 1h1v1h-1zm2 0h1v1h-1zm6 0h1v1h-1zm175 0h1v1h-1zm6 0h1v1h-1z" fill="#7f7f83"/><path d="M550 105h1v1h-1zm-61 2h1v90h-1zm431 1h1v56h-1zm95 2h1v1h-1zm-50 1h1v1h-1zm60 9h1v1h-1zm-14 10h1v1h-1zm-62 5h1v1h-1zm17 6h1v1h-1zm-19 7h1v1h-1zm0 1h1v1h-1zm0 1h1v1h-1zm18 0h1v1h-1zm-18 1h1v1h-1zm18 0h1v1h-1zm-415 4h1v1h-1zm196 3h1v1h-1zm174 6h1v1h-1zm28 0h1v1h-1zm-175 4h1v1h-1zm239 0h1v1h-1zm-482 3h1v1h-1zm299 1h1v1h-1zm200 1h1v1h-1zm-292 2h1v1h-1zm-223 1h1v1h-1zm243 3h1v1h-1zm269 2h1v1h-1zm-506 3h1v1h-1zm287 0h1v1h-1zm-29 2h1v1h-1zm3 4h1v1h-1zm-236 2h1v1h-1zm424 3h1v1h-1zm-180 1h1v1h-1zm-300 1h1v1h-1zm487 1h1v1h-1zm-172 2h1v1h-1z" fill="#7c7c83"/><path d="M746 108h1v1h-1zm204 24h1v1h-1zm-217 12h1v1h-1zm230 47h1v1h-1z" fill="#838383"/><path fill="#25215f" d="M580 120h1v1h-1z"/><path fill="#1d1d5d" d="M579 122h1v1h-1z"/><path d="M393 166h1v1h-1zm263 79h1v1h-1z" fill="#241f62"/><path fill="#877887" d="M531 172h1v1h-1z"/><path d="M790 105h1v1h-1zm228 7h1v1h-1zm-118 25h1v1h-1zm-350 19h1v1h-1zm419 15h1v1h-1zm42 1h1v1h-1z" fill="#787878"/><path d="M550 106h1v1h-1zm470 8h1v1h-1zm-261 11h1v1h-1zm194 0h1v1h-1z" fill="#7f7f87"/><path d="M509 121h21v1h-21zm21 0h1v1h-1zm354 23h1v1h-1z" fill="#7f7373"/><path fill="#557f7f" d="M893 158h1v1h-1z"/><path fill="#7a8585" d="M955 182h1v1h-1z"/><path fill="#3f7f7f" d="M895 161h1v1h-1z"/><path d="M370 79h76v1h-76zm76 0h1v1h-1zm167 41h1v1h-1z" fill="#242160"/><path d="M477 88h1v1h-1zm151 0h1v1h-1zm-260 19h1v1h-1zm2 0h90v1h-90zm90 0h1v1h-1zm-78 89h64v1h-64zm64 0h1v1h-1zm209 49h1v1h-1z" fill="#252062"/><path d="M979 104h1v1h-1zm-100 1h1v1h-1zm-126 8h1v1h-1zm205 4h1v1h-1zm43 4h1v1h-1zm25 0h1v1h-1zm-76 10h1v1h-1zm-1 3h1v1h-1zm-47 6h1v1h-1zm-172 4h1v1h-1zm217 0h1v1h-1zm-195 8h1v1h-1zm78 8h1v1h-1zm18 4h1v1h-1zm161 12h1v1h-1zm-235 1h1v1h-1zm179 2h1v1h-1zm27 3h1v1h-1zm-441 1h1v1h-1zm456 1h1v1h-1zm-253 6h1v1h-1zm137 8h1v1h-1z" fill="#747474"/><path d="M831 105h1v1h-1zm139 25h1v1h-1zm-228 4h1v1h-1zm205 18h1v1h-1zm0 3h1v1h-1z" fill="#7c8383"/><path fill="#6a7f6a" d="M997 120h1v1h-1z"/><path fill="#211e5e" d="M392 137h1v1h-1z"/><path d="M522 159h1v1h-1zm462 41h1v1h-1z" fill="#767689"/><path fill="#161659" d="M626 215h1v1h-1z"/><path d="M549 105h1v1h-1zm136 0h1v1h-1zm1 0h39v1h-39zm39 0h1v1h-1zm51 0h12v1h-12zm12 0h1v1h-1zm45 0h12v1h-12zm12 0h1v1h-1zm20 0h12v1h-12zm12 0h1v1h-1zm45 0h12v1h-12zm12 0h1v1h-1zm69 0h1v1h-1zm-272 1h1v1h-1zm205 0h1v1h-1zm-198 1h1v1h-1zm183 0h1v1h-1zm-148 1h1v50h-1zm238 0h1v1h-1zm-127 6h1v1h-1zm2 3h1v1h-1zm101 1h1v1h-1zm8 0h1v1h-1zm27 0h1v1h-1zm-24 1h1v1h-1zm-295 1h22v1h-22zm22 0h1v1h-1zm254 0h1v1h-1zm-22 1h1v1h-1zm-220 1h1v1h-1zm288 0h1v1h-1zm-136 1h1v1h-1zm66 0h1v1h-1zm-62 6h1v1h-1zm136 2h1v1h-1zm-79 4h1v1h-1zm16 1h1v1h-1zm47 0h1v1h-1zm1 0h1v1h-1zm-133 1h1v1h-1zm21 4h1v1h-1zm-18 1h1v1h-1zm20 2h1v1h-1zm4 6h1v1h-1zm-388 8h1v1h-1zm253 0h1v1h-1zm-253 1h1v1h-1zm375 0h1v1h-1zm-148 1h1v1h-1zm-19 2h1v1h-1zm169 0h1v1h-1zm-66 1h1v1h-1zm-307 1h1v1h-1zm-19 1h1v1h-1zm269 1h1v1h-1zm176 0h1v1h-1zm-50 1h1v1h-1zm18 0h1v1h-1zm-72 1h1v1h-1zm-337 1h1v1h-1zm321 0h1v1h-1zm72 1h1v1h-1zm49 0h1v1h-1zm-214 1h1v1h-1zm93 0h1v1h-1zm16 0h1v1h-1zm105 1h1v1h-1zm77 1h1v1h-1zm-496 2h1v1h-1zm223 1h1v1h-1zm20 0h1v1h-1zm-20 1h1v1h-1zm-15 3h1v1h-1zm17 1h1v1h-1zm40 1h1v1h-1zm4 2h1v1h-1zm42 0h1v1h-1zm-85 1h1v1h-1zm263 2h1v1h-1zm-480 1h1v1h-1zm298 1h1v1h-1zm128 3h1v1h-1zm49 0h1v1h-1zm-47 2h1v1h-1zm-181 1h1v1h-1zm-25 1h1v1h-1zm28 0h1v1h-1zm-301 2h1v1h-1zm271 0h1v1h-1zm58 0h1v1h-1zm-272 1h1v1h-1zm434 0h1v1h-1zm-169 1h1v1h-1zm180 0h1v1h-1z" fill="#818184"/><path d="M974 106h1v1h-1zm-424 1h1v47h-1zm0 47h1v1h-1zm175 8h1v1h-1zm288 3h1v1h-1zm-275 13h1v1h-1zm56 20h1v1h-1z" fill="#787f7f"/><path d="M1012 108h1v1h-1zm-272 17h1v1h-1zm229 7h1v1h-1zm-22 15h1v1h-1zm-198 7h1v1h-1zm145 5h1v1h-1zm72 3h1v1h-1zm-193 3h1v1h-1zm-245 3h1v1h-1zm263 1h1v1h-1zm6 30h1v1h-1z" fill="#7b7b84"/><path fill="#808282" d="M520 156h1v1h-1z"/><path d="M579 157h1v24h-1zm0 24h1v1h-1z" fill="#241a5e"/><path fill="#211b5e" d="M380 195h1v1h-1z"/><path fill="#21185a" d="M447 59h1v1h-1z"/><path d="M563 103h1v1h-1zm-103 6h1v1h-1z" fill="#00003f"/><path d="M988 104h1v1h-1zm1 0h1v1h-1zm1 0h1v1h-1zm-256 2h1v1h-1zm54 0h1v1h-1zm90 0h1v1h-1zm-15 1h1v1h-1zm0 1h1v1h-1zm149 1h1v1h-1zm-44 1h1v1h-1zm-6 5h1v1h-1zm-4 5h1v1h-1zm-222 1h1v1h-1zm2 1h1v1h-1zm20 2h1v1h-1zm-17 1h1v1h-1zm232 0h1v1h-1zm-21 4h1v1h-1zm77 5h1v1h-1zm-286 1h1v1h-1zm136 0h1v1h-1zm-373 5h1v1h-1zm27 0h1v1h-1zm350 1h1v1h-1zm82 0h1v1h-1zm-227 2h1v1h-1zm-9 3h1v1h-1zm25 1h1v1h-1zm0 1h1v1h-1zm210 4h1v1h-1zm-54 2h1v1h-1zm38 1h1v1h-1zm-430 2h1v1h-1zm394 1h1v1h-1zm-166 1h1v1h-1zm-21 2h1v1h-1zm122 2h1v1h-1zm0 1h1v1h-1zm-114 2h1v1h-1zm185 0h1v1h-1zm94 6h1v1h-1zm-166 1h1v1h-1zm-331 3h1v1h-1zm511 2h1v1h-1zm-233 1h1v1h-1zm214 1h1v1h-1zm-51 2h1v1h-1zm26 2h1v1h-1zm18 0h1v1h-1zm-14 1h1v1h-1zm-207 1h1v1h-1zm213 0h1v1h-1zm-250 1h1v1h-1zm218 0h1v1h-1zm1 1h1v1h-1zm-200 4h1v1h-1zm75 0h1v1h-1zm137 4h1v1h-1zm-226 1h1v1h-1zm-62 1h1v1h-1zm1 0h12v1h-12zm12 0h1v1h-1zm50 0h12v1h-12zm12 0h1v1h-1zm36 0h1v1h-1zm28 0h1v1h-1zm41 0h10v1h-10zm10 0h2v1h-2zm2 0h1v1h-1zm47 0h10v1h-10zm10 0h1v1h-1zm1 0h1v1h-1zm69 0h1v1h-1zm-512 1h12v1h-12zm12 0h1v1h-1zm30 0h12v1h-12zm12 0h1v1h-1zm453 0h1v1h-1z" fill="#808285"/><path d="M701 123h1v20h-1zm179 15h1v1h-1zm-179 5h1v1h-1zm0 20h1v34h-1zm33 6h1v1h-1zm5 12h1v1h-1zm-38 16h1v1h-1z" fill="#74747f"/><path fill="#5d5d74" d="M760 129h1v1h-1z"/><path d="M581 183h31v1h-31zm31 0h1v1h-1z" fill="#221a5f"/><path d="M995 104h1v1h-1zm-446 2h1v1h-1zm240 0h1v1h-1zm-49 1h1v1h-1zm-250 1h1v89h-1zm341 0h1v50h-1zm52 5h1v1h-1zm2 3h1v1h-1zm106 2h1v1h-1zm-104 1h1v1h-1zm-381 1h1v1h-1zm225 0h1v1h-1zm270 0h1v1h-1zm-496 2h1v1h-1zm500 0h1v1h-1zm-266 1h1v1h-1zm288 3h1v1h-1zm-74 1h1v1h-1zm57 0h1v1h-1zm-117 1h1v1h-1zm136 5h1v1h-1zm-79 1h1v1h-1zm-51 3h1v1h-1zm-144 10h1v1h-1zm154 5h1v1h-1zm-78 6h1v1h-1zm-102 5h1v1h-1zm21 1h1v1h-1zm150 2h1v1h-1zm113 0h1v1h-1zm-92 3h1v1h-1zm-147 1h1v1h-1zm55 5h1v1h-1zm124 2h1v1h-1zm-197 1h1v1h-1zm38 1h1v1h-1zm181 1h1v1h-1zm51 0h1v1h-1zm-46 3h1v1h-1zm-220 6h1v1h-1zm77 2h1v1h-1zm-53 1h1v1h-1zm133 0h1v1h-1zm-389 1h1v1h-1zm17 0h1v1h-1zm290 0h1v1h-1zm176 2h1v1h-1zm-521 2h1v1h-1zm388 0h1v1h-1zm-15 1h1v1h-1z" fill="#7f8185"/><path fill="#7f7f3f" d="M975 105h1v1h-1z"/><path d="M974 107h1v1h-1zm-225 46h1v1h-1zm171 16h1v1h-1zm42 20h1v1h-1zm-179 2h1v1h-1zm230 3h1v1h-1zm-483 2h1v1h-1zm274 3h1v1h-1z" fill="#818384"/><path d="M986 119h1v1h-1zm40 4h1v1h-1zm-73 3h1v1h-1zm-420 13h1v1h-1zm-23 31h1v1h-1zm464 27h1v1h-1zm-167 3h1v1h-1z" fill="#7e8185"/><path d="M987 104h1v1h-1zm-106 6h1v1h-1zm139 5h1v1h-1zm1 1h1v1h-1zm1 1h1v1h-1zm-25 2h1v1h-1zm-490 1h1v1h-1zm25 0h1v1h-1zm227 16h1v1h-1zm146 10h1v1h-1zm43 6h1v1h-1zm-117 7h1v1h-1zm0 2h1v1h-1zm16 5h1v1h-1zm0 1h1v1h-1zm121 4h1v1h-1zm-139 3h1v1h-1zm-315 1h1v1h-1zm438 0h1v1h-1zm-435 4h1v1h-1zm278 1h1v1h-1zm1 1h1v1h-1zm-276 2h1v1h-1zm483 0h1v1h-1zm-40 7h1v1h-1zm4 3h1v1h-1zm48 0h1v1h-1zm-315 5h1v1h-1zm-210 1h1v1h-1zm508 0h1v1h-1z" fill="#7f8183"/><path d="M994 104h1v1h-1zm-258 2h1v1h-1zm185 0h1v1h-1zm51 2h1v1h-1zm13 11h1v1h-1zm-477 1h23v1h-23zm23 0h1v1h-1zm202 0h1v1h-1zm271 1h1v1h-1zm-115 1h1v1h-1zm119 2h1v1h-1zm-117 1h1v1h-1zm63 0h1v1h-1zm-60 5h1v1h-1zm-135 1h1v1h-1zm137 2h1v1h-1zm-137 1h1v1h-1zm208 0h1v1h-1zm-89 2h1v60h-1zm20 0h1v1h-1zm2 3h1v1h-1zm-159 1h1v1h-1zm208 0h1v1h-1zm-192 2h1v1h-1zm146 1h1v1h-1zm-170 2h1v1h-1zm171 0h1v1h-1zm44 0h1v1h-1zm-44 1h1v1h-1zm44 3h1v1h-1zm16 0h1v1h-1zm-75 1h1v1h-1zm75 0h1v1h-1zm-74 1h1v1h-1zm58 0h1v1h-1zm0 2h1v1h-1zm16 2h1v1h-1zm-117 4h1v1h-1zm118 2h1v1h-1zm-238 1h1v1h-1zm104 0h1v1h-1zm16 0h1v1h-1zm-324 2h1v1h-1zm394 0h1v1h-1zm-70 1h1v1h-1zm119 1h1v1h-1zm-458 1h1v1h-1zm282 2h1v1h-1zm160 0h1v1h-1zm79 0h1v1h-1zm-500 2h1v1h-1zm374 0h1v1h-1zm-391 1h1v1h-1zm225 1h1v1h-1zm169 1h1v1h-1zm-168 1h1v1h-1zm233 1h1v1h-1zm-143 1h1v1h-1zm79 0h1v1h-1zm-168 1h1v1h-1zm169 0h1v1h-1zm-132 1h1v1h-1zm50 1h1v1h-1zm-86 1h1v1h-1zm104 0h1v1h-1zm132 0h1v1h-1zm-439 1h1v1h-1zm441 0h1v1h-1zm10 3h1v1h-1zm-229 1h1v1h-1zm-236 1h1v1h-1zm236 1h1v1h-1zm81 0h1v1h-1zm-59 1h1v1h-1zm57 1h1v1h-1zm81 5h1v1h-1zm-41 1h1v1h-1zm42 0h1v1h-1zm16 2h1v1h-1zm-445 1h1v1h-1zm492 0h1v1h-1z" fill="#808284"/><path d="M489 106h1v1h-1zm247 16h1v1h-1zm22 0h1v1h-1z" fill="#79797f"/><path fill="#231f5f" d="M460 137h1v1h-1z"/><path d="M369 80h1v1h-1zm208 103h1v1h-1z" fill="#252262"/><path d="M984 104h1v1h-1zm-246 2h1v1h-1zm35 1h1v1h-1zm214 12h1v1h-1zm-260 1h1v1h-1zm298 1h1v1h-1zm-135 2h1v1h-1zm86 0h1v1h-1zm-8 10h1v1h-1zm-70 2h1v1h-1zm-12 11h1v1h-1zm-133 4h1v1h-1zm-1 1h1v1h-1zm138 1h1v1h-1zm75 7h1v1h-1zm-191 14h1v1h-1zm30 11h1v1h-1zm188 1h1v1h-1zm30 2h1v1h-1zm-106 4h1v1h-1zm49 1h1v1h-1zm-437 2h1v1h-1zm392 3h1v1h-1zm-389 1h1v1h-1zm446 0h1v1h-1zm28 0h1v1h-1zm-456 1h1v1h-1zm250 0h1v1h-1z" fill="#7f7f82"/><path d="M1001 105h1v1h-1zm-80 4h1v56h-1zm0 56h1v1h-1z" fill="#7f8384"/><path d="M831 106h1v1h-1zm134 57h1v1h-1zm59 21h1v1h-1zm-40 15h1v1h-1z" fill="#828284"/><path d="M1018 113h1v1h-1zm-279 66h1v1h-1z" fill="#817f83"/><path fill="#7f7887" d="M526 192h1v1h-1z"/><path fill="#211d60" d="M579 121h1v1h-1z"/><path d="M1000 121h1v1h-1zm-48 5h1v1h-1z" fill="#7f0000"/><path fill="#1b1b59" d="M562 199h1v1h-1z"/><path d="M988 105h1v1h-1zm-496 1h56v1h-56zm56 0h1v1h-1zm435 0h1v1h-1zm1 0h1v1h-1zm13 0h1v1h-1zm1 0h1v1h-1zm-312 1h47v1h-47zm47 0h1v1h-1zm43 0h12v1h-12zm12 0h1v1h-1zm45 0h13v1h-13zm13 0h1v1h-1zm19 0h11v1h-11zm11 0h1v1h-1zm47 0h11v1h-11zm11 0h1v1h-1zm44 0h1v1h-1zm1 0h1v1h-1zm24 0h1v1h-1zm-265 1h1v1h-1zm1 0h1v1h-1zm139 0h1v1h-1zm57 0h1v88h-1zm40 0h1v1h-1zm-98 1h1v1h-1zm-126 5h1v1h-1zm1 1h1v1h-1zm211 0h1v1h-1zm-1 1h1v1h-1zm-210 1h1v1h-1zm131 0h1v1h-1zm78 0h1v1h-1zm59 0h1v1h-1zm-266 1h1v1h-1zm206 0h1v1h-1zm61 0h1v1h-1zm1 1h1v1h-1zm-487 2h1v1h-1zm488 0h1v1h-1zm1 1h1v1h-1zm1 2h1v1h-1zm-133 5h1v1h-1zm0 2h1v1h-1zm2 1h1v1h-1zm58 1h1v1h-1zm14 0h1v1h-1zm0 1h1v1h-1zm-70 1h1v1h-1zm69 0h1v1h-1zm-14 1h1v1h-1zm14 0h1v1h-1zm-14 1h1v1h-1zm13 2h1v2h-1zm-14 1h1v1h-1zm0 1h1v2h-1zm14 0h1v1h-1zm-14 2h1v1h-1zm13 0h1v2h-1zm-226 2h1v1h-1zm212 0h1v1h-1zm14 0h1v3h-1zm-231 1h3v1h-3zm3 0h1v1h-1zm-8 1h2v1h-2zm2 0h1v1h-1zm234 1h1v1h-1zm-71 4h1v1h-1zm15 0h1v1h-1zm2 2h1v1h-1zm0 1h1v1h-1zm54 1h1v1h-1zm-221 2h1v1h-1zm-223 1h1v1h-1zm444 0h1v1h-1zm-13 1h1v4h-1zm13 0h1v1h-1zm-188 1h1v3h-1zm-254 1h1v1h-1zm224 0h1v1h-1zm-223 1h1v1h-1zm224 0h1v1h-1zm218 0h1v2h-1zm-443 1h1v1h-1zm254 0h1v1h-1zm57 0h1v4h-1zm82 0h1v1h-1zm36 0h1v1h-1zm-201 1h1v1h-1zm215 0h1v1h-1zm-440 1h1v1h-1zm226 1h1v1h-1zm25 0h1v5h-1zm176 0h1v1h-1zm14 0h1v1h-1zm-229 1h1v1h-1zm96 0h1v1h-1zm119 0h1v1h-1zm14 0h1v1h-1zm-441 1h1v1h-1zm227 0h1v1h-1zm152 0h1v1h-1zm1 1h1v1h-1zm15 0h1v1h-1zm47 0h1v1h-1zm-14 1h1v1h-1zm-177 1h1v1h-1zm56 0h1v1h-1zm136 0h1v1h-1zm-439 1h1v1h-1zm225 0h1v1h-1zm0 1h1v1h-1zm23 0h1v2h-1zm192 0h1v1h-1zm-214 2h1v1h-1zm22 0h1v1h-1zm237 1h1v1h-1zm-236 1h1v1h-1zm0 1h1v1h-1zm248 0h1v1h-1zm-493 1h1v1h-1zm260 1h1v1h-1zm218 0h1v1h-1zm14 0h1v1h-1zm-231 1h1v1h-1zm119 0h1v1h-1zm-376 1h1v1h-1zm243 0h1v1h-1zm43 0h1v1h-1zm151 0h1v1h-1zm4 0h1v1h-1zm46 0h1v1h-1zm-486 1h1v1h-1zm284 0h1v1h-1zm184 0h1v1h-1zm-203 1h1v1h-1zm-265 1h1v1h-1zm269 0h9v1h-9zm9 0h1v1h-1zm170 0h1v1h-1zm10 0h2v1h-2zm2 0h1v1h-1zm-458 1h1v1h-1zm0 2h1v1h-1zm207 5h1v1h-1zm174 0h1v1h-1zm15 2h1v1h-1zm-444 2h1v1h-1z" fill="#828386"/><path d="M893 126h1v1h-1zm6 41h1v1h-1z" fill="#7f3f3f"/><path d="M760 135h1v1h-1zm-24 38h1v1h-1zm23 11h1v1h-1zm198 1h1v1h-1zm62 6h1v1h-1zm-272 8h1v1h-1zm15 0h1v1h-1zm102 0h1v1h-1zm71 0h1v1h-1z" fill="#6f6f7f"/><path d="M985 104h1v1h-1zm-16 5h1v1h-1zm-81 11h1v1h-1zm94 0h1v1h-1zm-33 17h1v1h-1zm-190 1h1v1h-1zm-24 6h1v1h-1zm22 0h1v1h-1zm135 11h1v1h-1zm-371 1h1v1h-1zm373 2h1v1h-1zm54 2h1v1h-1zm-52 1h1v1h-1zm2 3h1v1h-1zm-108 1h1v1h-1zm-283 1h1v1h-1zm460 2h1v1h-1zm-176 4h1v1h-1zm-278 2h1v1h-1zm442 7h1v1h-1zm47 2h1v1h-1zm-90 2h1v1h-1zm-71 2h1v1h-1zm-80 4h1v1h-1zm1 3h1v1h-1zm208 1h1v1h-1zm42 0h1v1h-1zm-249 3h1v1h-1z" fill="#7e8183"/><path d="M936 105h1v1h-1zm36 22h1v1h-1zm-465 13h1v1h-1zm505 31h1v1h-1zm-480 3h1v1h-1zm2 4h1v1h-1zm422 5h1v1h-1z" fill="#828286"/><path fill="#262261" d="M563 106h1v1h-1z"/><path d="M562 107h1v38h-1zm0 38h1v1h-1z" fill="#1f1f5a"/><path d="M847 107h1v1h-1zm-1 65h1v1h-1zm-310 9h1v1h-1zm376 3h1v1h-1z" fill="#818283"/><path fill="#808385" d="M884 115h1v1h-1z"/><path d="M951 129h1v1h-1zm-49 42h1v1h-1zm-383 12h1v1h-1z" fill="#747f7f"/><path d="M759 128h1v1h-1zm192 4h1v1h-1zm-3 14h1v1h-1zm-423 19h1v1h-1zm286 20h1v1h-1zm-66 10h1v1h-1zm-198 1h1v1h-1zm283 0h1v1h-1zm-37 1h1v1h-1zm185 1h1v1h-1z" fill="#808286"/><path fill="#23195f" d="M562 198h1v1h-1z"/><path fill="#757575" d="M774 176h1v1h-1z"/><path fill="#171745" d="M657 59h1v1h-1z"/><path d="M656 60h1v184h-1zM447 79h1v1h-1zm1 0h1v1h-1zm30 8h1v1h-1zm87 18h47v1h-47zm47 0h1v1h-1zm1 0h1v1h-1zm-221 60h1v1h-1zm1 0h1v1h-1zm2 1h51v1h-51zm51 0h1v1h-1zm168 17h1v1h-1zm-167 13h1v1h-1zm1 0h1v1h-1zm-68 1h1v26h-1zm183 1h1v1h-1zm1 1h1v1h-1zm64 16h1v1h-1zm-151 1h1v1h-1zm-97 7h1v1h-1zm276 21h1v1h-1zm-206 1h204v1H450zm204 0h1v1h-1z" fill="#252061"/><path d="M737 106h1v1h-1zm198 0h1v1h-1zm-193 1h1v1h-1zm231 0h1v1h-1zm-17 14h1v1h-1zm-214 7h1v1h-1zm287 4h1v1h-1zm-62 3h1v1h-1zm-225 2h1v1h-1zm-2 4h1v1h-1zm-1 1h1v1h-1zm-217 14h25v1h-25zm25 0h1v1h-1zm418 4h1v1h-1zm-439 6h1v1h-1zm393 1h1v1h-1zm1 1h1v1h-1zm-90 2h1v1h-1zm-94 1h1v1h-1zm54 0h1v1h-1zm179 3h1v1h-1zm42 0h1v1h-1zm-236 3h1v1h-1zm52 1h1v1h-1zm-289 5h1v1h-1zm445 1h1v1h-1zm-242 1h1v1h-1zm37 0h1v1h-1zm-238 1h1v1h-1zm245 7h1v1h-1zm79 5h1v1h-1z" fill="#7f8284"/><path d="M922 107h1v1h-1zm-90 55h1v1h-1zm0 1h1v1h-1z" fill="#828387"/><path d="M1004 107h1v1h-1zm-40 55h1v1h-1zm-5 24h1v1h-1zm28 0h1v1h-1zm-463 2h1v1h-1zm17 2h1v1h-1zm475 0h1v1h-1zm-254 8h1v1h-1z" fill="#818386"/><path d="M889 121h1v1h-1zm-4 24h1v1h-1zm20 30h1v1h-1zm-90 9h1v1h-1zm98 3h1v1h-1z" fill="#7b7f84"/><path fill="#231961" d="M447 167h1v1h-1z"/><path d="M656 58h1v1h-1zm-195 52h1v25h-1zm0 25h1v1h-1z" fill="#151555"/><path d="M998 104h1v1h-1zm-38 12h1v1h-1zm-202 7h1v1h-1zm215 3h1v1h-1zm-78 4h1v1h-1zm134 0h1v1h-1zm-81 13h1v1h-1zm-193 5h1v1h-1zm-206 8h1v1h-1zm181 8h1v1h-1zm4 4h1v1h-1zm215 0h1v1h-1zm2 6h1v1h-1zm-105 1h1v1h-1zm-311 3h1v1h-1zm1 2h1v1h-1zm-17 2h1v1h-1zm258 1h1v1h-1zm180 1h1v1h-1zm37 1h1v1h-1zm-469 5h1v1h-1zm219 3h1v1h-1zm173 0h1v1h-1zm99 0h1v1h-1zm-226 3h1v1h-1zm26 4h1v1h-1zm175 0h1v1h-1z" fill="#7f7f85"/><path fill="#241f61" d="M461 108h1v1h-1z"/><path fill="#19195d" d="M447 194h1v1h-1z"/><path fill="#231e5a" d="M381 195h1v1h-1z"/><path fill="#ff0" d="M506 200h1v1h-1z"/><path fill="#1e1e5c" d="M379 225h1v1h-1z"/><path fill="#221e5f" d="M381 225h1v1h-1z"/></svg>