<svg xmlns="http://www.w3.org/2000/svg" role="img" viewBox="33.29 30.29 426.92 136.42"><title>Salience Labs logo</title><path d="M211.53 65.5c-10.79-1.63-12.71-4.29-12.71-9.46 0-5.17 3.77-8.57 11.01-8.57s11.16 2.73 12.41 9.39H228c-1.04-9.39-7.61-14.56-18.18-14.56-9.98 0-17 6.21-17 14.34 0 9.39 6.58 12.86 17.66 14.56 10.05 1.63 12.79 4.14 12.79 10.12 0 5.98-5.25 9.98-12.05 9.98-10.64 0-13.15-5.32-13.97-11.6h-6.21c.96 9.02 6.06 16.78 20.17 16.78 10.49 0 18.25-6.72 18.25-15.59 0-9.98-6.21-13.52-17.96-15.37zm39.2-9.02c-7.46 0-14.48 3.25-15.3 12.05h6.13c.59-4.73 3.55-6.95 8.87-6.95 5.91 0 8.28 2.59 8.28 8.72v2.81h-5.54c-9.9 0-19.36 3.03-19.36 11.97 0 7.91 5.69 11.38 12.86 11.38 5.69 0 9.16-1.92 12.05-5.54v4.88h6.13V70.3c0-10.79-6.72-13.82-14.11-13.82zm7.98 25.79c0 5.99-4.95 9.31-11.46 9.31-5.39 0-7.32-2.51-7.32-6.5 0-5.69 5.69-7.61 13.45-7.61h5.32v4.8zm14.26-43.6h6.21v57.12h-6.21zm17.8 10.42c2.22 0 4.07-1.85 4.07-4.06 0-2.21-1.85-4.06-4.07-4.06s-4.06 1.85-4.06 4.06c0 2.21 1.85 4.06 4.06 4.06zm-2.95 8.06h6.13V95.8h-6.13zm29.85-.67c-10.64 0-18.11 8.13-18.11 19.81v.59c0 11.9 7.76 19.58 18.7 19.58 8.72 0 15.15-4.06 16.48-11.82h-6.13c-.81 4.51-4.29 6.72-10.27 6.72-7.91 0-12.12-4.88-12.42-13.67h29.12v-2c0-13.82-8.42-19.21-17.37-19.21zm-11.53 16.26c1.04-6.87 5.25-11.16 11.53-11.16 6.28 0 10.49 3.18 11.08 11.16h-22.61zm52.79-16.26c-6.36 0-10.64 3.18-12.41 6.8v-6.13h-6.13V95.8h6.13V72.37c0-6.95 5.1-10.57 10.79-10.57 6.21 0 9.09 3.03 9.09 9.83V95.8h6.13V72.08c0-11.23-5.62-15.59-13.6-15.59zm37.66 34.88c-7.46 0-12.64-5.03-12.64-14.48v-.59c0-9.09 5.4-14.71 12.42-14.71 5.32 0 9.75 2.29 10.71 8.42h6.06c-1.18-9.83-8.72-13.52-16.78-13.52-10.35 0-18.77 7.98-18.77 19.81v.59c0 11.97 8.13 19.58 18.92 19.58 9.31 0 16.04-6.21 16.85-14.56h-5.69c-.66 6.28-5.62 9.46-11.08 9.46zm55.56-15.66c0-13.82-8.42-19.21-17.37-19.21-10.64 0-18.11 8.13-18.11 19.81v.59c0 11.9 7.76 19.58 18.7 19.58 8.72 0 15.15-4.06 16.48-11.82h-6.13c-.81 4.51-4.29 6.72-10.27 6.72-7.91 0-12.12-4.88-12.41-13.67h29.12v-2zm-28.89-2.96c1.04-6.87 5.25-11.16 11.53-11.16 6.28 0 10.49 3.18 11.08 11.16h-22.61zm-222.67 32.49h-6.43v52.84h30.59v-5.25h-24.16v-47.59zm45.35 13.52c-7.46 0-14.48 3.25-15.3 12.05h6.13c.59-4.73 3.55-6.95 8.87-6.95 5.91 0 8.28 2.59 8.28 8.72v2.81h-5.54c-9.9 0-19.36 3.03-19.36 11.97 0 7.91 5.69 11.38 12.86 11.38 5.69 0 9.16-1.92 12.04-5.54v4.88h6.13v-25.5c0-10.79-6.72-13.82-14.11-13.82zm7.98 25.79c0 5.99-4.95 9.31-11.45 9.31-5.39 0-7.32-2.51-7.32-6.5 0-5.69 5.69-7.61 13.45-7.61h5.32v4.8zm33.34-25.79c-5.62 0-10.86 3.4-13.08 7.17v-24.98h-6.13v57.12h6.13v-6.36c2.22 3.84 6.8 7.02 13.08 7.02 10.64 0 17.59-8.13 17.59-19.95v-.59c0-12.05-7.46-19.44-17.59-19.44zm11.23 20.32c0 9.39-4.14 14.56-11.82 14.56-7.68 0-12.71-4.66-12.71-14.56v-.59c0-9.9 5.47-14.63 12.64-14.63 6.5 0 11.9 4.88 11.9 14.63v.59zm25.38-3.54c-7.09-1.26-9.02-2.66-9.02-6.13 0-3.47 2.88-5.54 7.32-5.54 4.88 0 7.24 1.85 8.13 6.06h5.91c-1.03-8.35-7.02-11.16-13.97-11.16-6.06 0-13.08 3.7-13.08 10.86 0 6.72 3.4 9.53 13.45 11.38 5.99 1.11 9.02 2.44 9.02 6.5 0 4.06-2.59 6.13-8.42 6.13-6.21 0-8.65-2.88-9.09-7.46h-5.99c.37 7.91 5.91 12.56 15.15 12.56s14.19-4.73 14.19-11.75c0-8.2-5.62-9.98-13.6-11.45zm25.67 10.25c-3.59 0-6.43 2.84-6.43 6.37 0 3.53 2.87 6.32 6.43 6.32 3.56 0 6.43-2.76 6.43-6.35s-2.78-6.35-6.43-6.35zm0 11.66c-2.95 0-5.27-2.12-5.27-5.28s2.2-5.34 5.27-5.34c3.07 0 5.27 2.18 5.27 5.31 0 3.13-2.29 5.31-5.27 5.31z"/><path d="M352.01 150.84v-.03c0-1.29-.96-1.9-2.43-1.9h-2.23v6.29h1.39v-2.44h.67l1.54 2.44h1.45l-1.68-2.67c.75-.23 1.3-.75 1.3-1.69zm-1.36.06c0 .6-.38.92-1.1.92h-.81v-1.84h.81c.7 0 1.1.23 1.1.89v.03zM87.73 109.01l-46.09 45.58v3.88h2.7l46.69-46.17-3.3-3.29zm-15.11 49.46h5.05l17.6-41.92-3.55-3.56-19.1 45.48zm10.67-53.91l-41.65 17.47v5.05l45.21-18.96-3.56-3.56zm7.85-16.21l-46.8-46.29h-2.7v3.88l46.21 45.7 3.29-3.29zm-4.21 4.2L41.64 73.56v5.05l41.74 17.5 3.55-3.56zm-7.82 7.83l2.23-2.23h-39.7v4.66h39.89l-2.42-2.43zm-5.78-58.32L92.29 87.2l3.55-3.55-17.46-41.59h-5.05zm84.74 60.75v-4.66h-39.48l2.23 2.23-2.42 2.43h39.67zm-41.83-7.02l41.82-17.54V73.2l-45.38 19.04 3.56 3.55zm-18.6 23.12v39.56h4.65v-39.56l-2.32 2.33-2.33-2.33zm15.13-10.47l45.29 19v-5.05l-41.74-17.51-3.55 3.56zm-4.06-20.18l3.29 3.3L158.06 46v-3.94h-2.64l-46.71 46.2zm-11.07-6.41l2.33-2.33 2.32 2.33V42.06h-4.65v39.79zm28.92-39.79h-5.06l-17.45 41.55 3.56 3.56 18.95-45.11zm-17.74 70.32l46.6 46.09h2.64v-3.94l-45.94-45.44-3.3 3.29zm-4.2 4.2l17.6 41.89h5.05l-19.09-45.44-3.56 3.55z"/></svg>