<svg xmlns="http://www.w3.org/2000/svg" role="img" viewBox="19.49 17.99 494.52 77.02"><title>Samsung Electronics Co. Ltd. logo</title><path fill="#142ca4" fill-rule="evenodd" d="M41.275 28.914c-7.122 1.818-10.918 6.037-11.833 13.151C28.559 48.924 31.88 54.461 40 59.669c10.861 6.967 12 8.093 12 11.872C52 74.976 49.985 77 46.566 77 44.002 77 41 73.224 41 70v-3H29v4.852c0 10.007 6.519 14.726 19.169 13.875 11.968-.805 17.263-6.176 16.583-16.82-.472-7.398-2.553-10.046-12.838-16.344-5.883-3.603-8.684-5.967-9.365-7.904-1.249-3.55.242-6.051 3.862-6.481 3.551-.423 5.589 1.38 5.589 4.944 0 2.851.057 2.878 6 2.878h6v-4.05c0-5.264-2.264-9.518-6.129-11.517-3.68-1.903-12.083-2.672-16.596-1.519m41.329.836C80.41 36.988 68 82.263 68 83.031c0 .533 2.683.969 5.961.969h5.962l1.098-4.25c.604-2.338 1.327-5.037 1.606-6 .424-1.461 1.717-1.75 7.833-1.75h7.324l1.4 5.75 1.4 5.75 6.791.298c6.144.269 6.738.126 6.238-1.5-.464-1.513-9.814-36.033-13.555-50.048L98.923 28h-7.894c-6.65 0-7.978.276-8.425 1.75M118 56v28h12l.093-18.25.093-18.25 3.897 16c2.144 8.8 4.135 17.013 4.426 18.25.476 2.023 1.132 2.25 6.491 2.25 5.669 0 5.996-.135 6.657-2.75.383-1.513 2.601-10.175 4.929-19.25l4.232-16.5.091 19.25L161 84h12V28h-18.762l-4.45 17.75-4.45 17.75-3.256-14c-1.791-7.7-3.685-15.687-4.208-17.75l-.951-3.75H118v28m73.313-26.901c-10.455 2.481-14.789 16.429-7.716 24.834 1.385 1.645 5.304 4.654 8.71 6.685 3.406 2.031 7.205 4.601 8.443 5.712 3.998 3.587 2.125 10.67-2.821 10.67-2.885 0-5.929-3.594-5.929-7v-3h-13.272l.631 4.604c.816 5.951 2.465 9.216 5.964 11.806 2.357 1.745 4.258 2.089 11.5 2.081 13.817-.013 18.578-3.886 18.642-15.164.049-8.642-1.952-11.077-16.965-20.641-3.77-2.403-5.079-3.877-5.322-5.996-.418-3.64 1.351-5.69 4.909-5.69 3.024 0 4.913 2.281 4.913 5.934 0 1.858.603 2.066 6 2.066h6v-4.05c0-5.178-2.251-9.512-5.931-11.414-3.817-1.974-12.523-2.678-17.756-1.437m31.056.382c-.313.815-.411 11.052-.219 22.75.331 20.102.476 21.471 2.638 24.948 6.569 10.564 27.544 10.453 33.689-.179 1.839-3.182 2.052-5.572 2.341-26.299l.318-22.8-6.318.3-6.318.299-.5 22.332c-.462 20.632-.648 22.441-2.441 23.75-2.097 1.532-5.393 1.832-7.159.653-2.928-1.955-3.4-5.585-3.4-26.169V28h-6.031c-4.405 0-6.185.399-6.6 1.481M269 55.96V84h11.954l.273-17.75.273-17.75 6.5 17.733 6.5 17.733 8.25.017L311 84V28h-11.954l-.273 17.459-.273 17.459-6.592-17.209-6.593-17.209-8.157-.29-8.158-.291V55.96m63.123-27.013c-4.444 1.121-8.159 3.975-10.623 8.158-1.788 3.036-2 5.193-2 20.395 0 15.297.204 17.347 2.035 20.465 3.547 6.037 7.435 7.538 19.465 7.515 5.775-.011 11.75-.36 13.277-.776l2.778-.756-.278-14.224L356.5 55.5l-9.25-.288-9.25-.287v5.037c0 4.949.054 5.038 3.05 5.038h3.05l-.3 5.75-.3 5.75-3.693.307c-5.434.452-7.461-2.064-8.35-10.362-1.03-9.624-.028-22.924 1.956-25.952 1.217-1.858 2.51-2.493 5.075-2.493 3.788 0 5.512 2.012 5.512 6.434 0 2.495.182 2.566 6.588 2.566h6.588l-.694-4.25c-1.446-8.863-6.651-13.432-16.233-14.25-2.612-.223-6.269-.021-8.126.447m59.997.206c-7.629 2.194-11.12 6.86-11.12 14.865 0 7.334 3.735 11.856 15.832 19.167 6.31 3.813 8.524 7.442 6.498 10.653-3.285 5.208-9.608 3.263-10.14-3.119L392.879 67h-13.133l.487 5.074C381.1 81.097 387.006 86 397 85.993c10.971-.008 16.999-3.562 19.066-11.239 2.444-9.074-1.516-16.111-12.529-22.27-8.067-4.512-9.76-6.437-9.357-10.64.304-3.181.515-3.344 4.32-3.344 3.791 0 4.048.196 4.926 3.75l.927 3.75h11.901l-.489-5.093c-.378-3.932-1.168-5.771-3.465-8.069-4.382-4.382-12.564-5.876-20.18-3.685M424 55.977v28.178l13.431-.328c15.602-.38 17.422-1.171 21.569-9.379 2.304-4.56 2.498-6.006 2.474-18.453-.024-12.331-.241-13.938-2.5-18.484-3.813-7.671-6.821-8.938-22.224-9.361L424 27.799v28.178m56.275-27.065C472.821 30.819 469 35.937 469 44.018c0 7.251 3.622 11.769 14.755 18.405 8.343 4.972 10.469 9.254 6.416 12.922-4.063 3.677-9.171.939-9.171-4.916V67h-13.254l.487 5.074C469.1 81.097 475.006 86 485 85.993c11.096-.008 17.289-3.882 19.102-11.951 1.96-8.722-2.107-15.71-12.536-21.542-8.803-4.923-11.085-7.897-9.444-12.311.722-1.943 1.458-2.261 4.618-2 3.426.283 3.842.644 4.686 4.061l.927 3.75H504l-.002-3.25c-.002-4.101-2.749-9.563-5.998-11.926-2.875-2.091-12.827-3.164-17.725-1.912M436 56.445V75h2.935c8.287 0 10.051-3.42 10.058-19.5.003-7.525-.429-10.866-1.745-13.5-1.585-3.173-2.192-3.529-6.498-3.805L436 37.89v18.555M89.713 44.5C88.625 48.01 86 60.071 86 61.562 86 62.602 87.259 63 90.545 63h4.546l-.66-3.516c-1.782-9.499-4.118-16.918-4.718-14.984"/></svg>