<svg xmlns="http://www.w3.org/2000/svg" role="img" xmlns:xlink="http://www.w3.org/1999/xlink" viewBox="0.32 0.82 184.99 53.49"><title>Sanofi (member) logo</title><defs><path d="M32.10938-42.3125v5.78125c-2.25-1.07031-4.3711-1.875-6.35938-2.40625-1.99219-.53125-3.91406-.79688-5.76563-.79688-3.23046 0-5.71874.625-7.46874 1.875-1.7422 1.25-2.60938 3.03126-2.60938 5.34376 0 1.92968.57813 3.38671 1.73438 4.375 1.16406.99218 3.36718 1.78906 6.60937 2.39062l3.57813.73438c4.41406.83593 7.67187 2.3125 9.76562 4.4375 2.10156 2.11718 3.15625 4.94921 3.15625 8.5 0 4.24218-1.42188 7.45312-4.26563 9.64062C27.64063-.25 23.47266.84375 17.98438.84375c-2.0625 0-4.26562-.23438-6.60937-.70313-2.33594-.46874-4.75-1.16015-7.25-2.07812v-6.09375c2.40625 1.35547 4.75781 2.375 7.0625 3.0625 2.3125.67969 4.57813 1.01563 6.79688 1.01563 3.3828 0 5.99218-.66016 7.82812-1.98438 1.83203-1.33203 2.75-3.22656 2.75-5.6875 0-2.15625-.66406-3.83594-1.98438-5.04688-1.3125-1.20703-3.47656-2.11328-6.48437-2.71874L16.5-20.09376c-4.41797-.88281-7.61719-2.26563-9.59375-4.14063-1.96875-1.875-2.95313-4.47656-2.95313-7.8125 0-3.875 1.35938-6.92187 4.07813-9.14062 2.72656-2.22656 6.48828-3.34375 11.28125-3.34375 2.05078 0 4.14063.1875 6.26563.5625 2.125.36719 4.30078.91797 6.53124 1.65625zm0 0" id="a"/><path d="M20.5625-16.5c-4.35547 0-7.3711.5-9.04688 1.5C9.83595-14 9-12.30078 9-9.90625c0 1.91797.6289 3.4375 1.89063 4.5625 1.2578 1.125 2.97265 1.6875 5.14062 1.6875 2.98828 0 5.38281-1.05469 7.1875-3.17188 1.80078-2.125 2.70313-4.9453 2.70313-8.46875V-16.5zm10.75-2.21875V0h-5.39063v-4.98438c-1.23046 1.9922-2.76171 3.46094-4.59374 4.40625C19.49218.3672 17.25.84376 14.59375.84376c-3.36719 0-6.03906-.9414-8.01563-2.82813-1.98046-1.8828-2.96875-4.40625-2.96875-7.5625 0-3.6953 1.23438-6.48437 3.70313-8.35937s6.15625-2.8125 11.0625-2.8125h7.54688v-.51563c0-2.48828-.82032-4.41015-2.45313-5.76562-1.625-1.35156-3.91406-2.03125-6.85938-2.03125-1.875 0-3.70312.22656-5.48437.67188-1.77344.44921-3.48047 1.12109-5.125 2.01562v-4.96875c1.97656-.76953 3.89453-1.34375 5.75-1.71875 1.85156-.38281 3.66016-.57813 5.42188-.57813 4.73828 0 8.28124 1.23438 10.625 3.70313 2.34374 2.46094 3.51562 6.1875 3.51562 11.1875zm0 0" id="b"/><path d="M32.9375-19.8125V0h-5.39063v-19.625c0-3.10156-.60937-5.42578-1.82812-6.96875-1.21094-1.55078-3.02344-2.32813-5.4375-2.32813-2.91797 0-5.21484.9336-6.89063 2.79688-1.67968 1.85547-2.51562 4.38281-2.51562 7.57813V0H5.45312v-32.8125H10.875v5.09375c1.28125-1.96875 2.79688-3.4414 4.54688-4.42188 1.75-.97656 3.76562-1.46874 6.04687-1.46874 3.76953 0 6.625 1.16796 8.5625 3.5 1.9375 2.33593 2.90625 5.76562 2.90625 10.29687zm0 0" id="c"/><path d="M18.375-29.03125c-2.89844 0-5.1836 1.13281-6.85938 3.39063C9.83595-23.39063 9-20.30079 9-16.375c0 3.92969.83203 7.02344 2.5 9.28125 1.66406 2.25 3.95703 3.375 6.875 3.375 2.86328 0 5.13281-1.1289 6.8125-3.39063 1.6875-2.26953 2.53125-5.35937 2.53125-9.26562 0-3.88281-.84375-6.96094-2.53125-9.23438-1.67969-2.28124-3.94922-3.42187-6.8125-3.42187zm0-4.57813c4.6875 0 8.36328 1.52735 11.03125 4.57813 2.67578 3.04297 4.01563 7.26172 4.01563 12.65625 0 5.36719-1.33985 9.57813-4.01563 12.64063C26.73828-.6797 23.0625.84375 18.375.84375c-4.71094 0-8.39844-1.52344-11.0625-4.57813-2.66797-3.0625-4-7.27343-4-12.64062 0-5.39453 1.33203-9.61328 4-12.65625 2.66406-3.05078 6.35156-4.57813 11.0625-4.57813zm0 0" id="d"/><path d="M22.26563-45.59375v4.48438h-5.15626c-1.9375 0-3.28124.39062-4.03124 1.17187-.75.78125-1.125 2.1875-1.125 4.21875v2.90625h8.875v4.1875h-8.875V0H6.53125v-28.625H1.375v-4.1875h5.15625v-2.28125c0-3.65625.84766-6.3164 2.54688-7.98438 1.6953-1.67578 4.39453-2.51562 8.09375-2.51562zm0 0" id="e"/><path d="M5.65625-32.8125h5.39063V0H5.65625zm0-12.78125h5.39063v6.82813H5.65625zm0 0" id="f"/></defs><use y="50" xlink:href="#a"/><use x="38.086" y="50" xlink:href="#b"/><use x="74.854" y="50" xlink:href="#c"/><use x="112.881" y="50" xlink:href="#d"/><use x="149.59" y="50" xlink:href="#e"/><use x="170.713" y="50" xlink:href="#f"/></svg>