<svg xmlns="http://www.w3.org/2000/svg" role="img" viewBox="-6.73 -7.73 635.96 215.96"><title>Santer Reply SPA logo</title><defs><style>.cls-2{fill:#df0433}</style></defs><path fill="#fefdfd" d="M109.985 41.92058c-11.97688 12.89409-23.83417 24.6506-34.44087 37.444-6.7281 8.11516-14.47716 11.43086-24.62577 12.34-13.9059 1.2457-27.6955 3.785-41.53784 5.74945-2.34265.33246-4.59319.8526-3.482 3.96011 1.52251 4.25782 8.32 8.55408 13.01291 8.48847 13.66148-.191 27.3346-.80553 40.98073-.43274 10.55023.28819 20.15174-1.43916 28.45775-8.23818 2.27578-1.86288 4.07508-1.78715 6.46245.19748 7.81134 6.49367 15.80887 12.76728 23.83548 18.99575a9.9347 9.9347 0 0 1 3.92256 7.14479c1.49666 11.72169 3.3182 23.4033 4.70452 35.137.4815 4.0755 1.93159 6.038 6.24661 5.80794 4.647-.24779 4.69392-3.40331 4.71108-6.68068.068-12.99684.037-25.9946.188-38.99033a16.56364 16.56364 0 0 0-3.49267-10.64174c-7.22374-9.56807-14.22606-19.30371-21.48346-28.84569-1.58756-2.0873-1.69607-3.42019-.0353-5.52484q8.04452-10.19469 15.68384-20.708c11.57833-15.86954 11.1941-9.55029 1.277-26.63233-2.13084-3.67033-4.81251-4.8769-8.94231-4.79523-15.82374.31294-31.65335.32979-47.48078.45591-2.16589.01726-4.342-.099-6.49512.074-2.52486.20285-2.88993 1.80868-1.1843 3.25789 2.99063 2.541 5.72194 5.39782 10.04806 6.12259 10.95025 1.83442 21.83391 4.06605 33.66943 6.31438zm58.83106-21.129a16.3178 16.3178 0 0 0-32.6356.00448 16.32044 16.32044 0 1 0 32.6356-.00448z"/><path d="M109.985 41.92058c-11.83556-2.24833-22.71922-4.48-33.66942-6.31444-4.32612-.72477-7.05743-3.58159-10.04806-6.12259-1.70563-1.44921-1.34056-3.055 1.1843-3.25789 2.15311-.173 4.32923-.05675 6.49512-.074 15.82743-.12612 31.657-.143 47.48078-.45591 4.1298-.08167 6.81147 1.1249 8.94231 4.79523 9.91712 17.082 10.30135 10.76279-1.277 26.63233q-7.65492 10.492-15.68384 20.708c-1.66077 2.10465-1.55226 3.43754.0353 5.52484 7.2574 9.542 14.25972 19.27762 21.48346 28.84569a16.56364 16.56364 0 0 1 3.49267 10.64174c-.151 12.99573-.12 25.99349-.188 38.99033-.01716 3.27737-.06409 6.43289-4.71108 6.68068-4.315.23007-5.76511-1.73244-6.24661-5.80794-1.38632-11.73366-3.20786-23.41527-4.70452-35.137a9.9347 9.9347 0 0 0-3.92256-7.14479c-8.02661-6.22847-16.02414-12.50208-23.83548-18.99575-2.38737-1.98463-4.18667-2.06036-6.46245-.19748-8.306 6.799-17.90752 8.52637-28.45775 8.23818-13.64613-.37279-27.31925.24179-40.98073.43274-4.693.06561-11.4904-4.23065-13.01291-8.48847-1.11118-3.10751 1.13936-3.62765 3.482-3.96011C23.2229 95.4895 37.0125 92.95021 50.9184 91.70451c10.14861-.90912 17.89767-4.22482 24.62577-12.34 10.6067-12.79333 22.46399-24.54984 34.44083-37.44393zm58.8311-21.12903a16.32044 16.32044 0 1 1-32.6356.00448 16.3178 16.3178 0 0 1 32.6356-.00448z" class="cls-2"/><path fill="#03434b" d="M202.88187 33.57885h43.22265c12.021 0 21.34082 3.377 27.5542 9.59034 5.26758 5.26757 8.104 12.69677 8.104 21.61132v.27c0 15.26319-8.23926 24.853-20.26026 29.31055l23.09717 33.76758h-24.313L240.02591 97.8728h-16.34326v30.25586h-20.80078zm41.87158 45.92432c10.13037 0 15.93848-5.40283 15.93848-13.37207v-.27c0-8.91455-6.21338-13.50732-16.34375-13.50732h-20.66553v27.14939zm52.40381-45.92432h71.31738v18.50489h-50.65137v19.18017h44.57324v18.5044h-44.57324v19.85547h51.32715v18.50488h-71.99316zm87.11816 0h38.63086c22.55664 0 36.19824 13.37207 36.19824 32.6875v.27c0 21.88135-17.01855 33.22754-38.22461 33.22754H405.0762v28.36475h-20.80078zM421.55569 81.259c10.4004 0 16.47852-6.21338 16.47852-14.31738v-.27c0-9.32032-6.4834-14.31787-16.88379-14.31787H405.0762V81.259zm49.56836-47.68015h20.80079v75.63965h47.13964v18.91016h-67.94043zm89.28028 57.27051l-36.334-57.27051h24.3125l22.55664 37.95508 22.96193-37.95508h23.63769l-36.334 56.86524v37.68457h-20.80076z"/><path d="M202.91458 175.55249v-.11426c0-11.39649 8.53272-20.73047 20.67285-20.73047a20.89558 20.89558 0 0 1 15.69092 6.24224l-4.52392 5.21094c-3.207-2.97754-6.64307-4.98243-11.22413-4.98243-7.67382 0-13.22851 6.29981-13.22851 14.14551v.11426c0 7.8457 5.55469 14.25879 13.22851 14.25879 4.92481 0 8.07422-2.00391 11.51026-5.21094l4.52441 4.58106c-4.18066 4.35253-8.76172 7.10156-16.26367 7.10156-11.68262-.00005-20.38672-9.10552-20.38672-20.61626zm39.68506 0v-.11426a20.53879 20.53879 0 0 1 21.0166-20.73047c12.312 0 20.90186 9.334 20.90186 20.61621v.11426a20.53879 20.53879 0 0 1-21.0166 20.73047c-12.31202 0-20.90186-9.33496-20.90186-20.61621zm34.53125 0v-.11426c0-7.78809-5.66943-14.25977-13.62939-14.25977s-13.51465 6.35645-13.51465 14.14551v.11426c0 7.78808 5.66943 14.25879 13.62939 14.25879s13.51465-6.35645 13.51465-14.14453zm14.4873-20.15723h6.52832l21.47461 27.7168v-27.7168h6.92969v40.08594h-5.89844l-22.105-28.51856v28.51856h-6.9292zm42.03321 20.15723v-.11426c0-11.39649 8.53222-20.73047 20.67285-20.73047a20.896 20.896 0 0 1 15.69141 6.24224l-4.52442 5.21094c-3.207-2.97754-6.64258-4.98243-11.22461-4.98243-7.67285 0-13.22851 6.29981-13.22851 14.14551v.11426c0 7.8457 5.55566 14.25879 13.22851 14.25879 4.92578 0 8.0752-2.00391 11.51074-5.21094l4.52442 4.58106c-4.18067 4.35253-8.76172 7.10156-16.26367 7.10156-11.68262-.00005-20.38672-9.10552-20.38672-20.61626zm42.60449-20.15723h29.7207v6.29883h-22.67773v10.42285h20.10058v6.29883h-20.10058v10.7666h22.96387v6.29883h-30.00684zm36.93652 0h15.80469c9.335 0 15.2334 5.3252 15.2334 13.39941v.11524c0 8.99023-7.21582 13.68652-16.03418 13.68652h-7.96094v12.88477h-7.043zM428.42484 176.24c5.32617 0 8.64746-2.97852 8.64746-7.15821v-.11523c0-4.69531-3.37891-7.1582-8.64746-7.1582h-8.18946V176.24zm31.43847-14.31642h-12.71289v-6.52832h32.52637v6.52832H466.9639v33.55762h-7.10059z" class="cls-2"/></svg>