<svg xmlns="http://www.w3.org/2000/svg" role="img" viewBox="4.80 9.80 4430.40 815.40"><title>SAPEON (member) logo</title><path d="M3108.5 97.1c-32.5 2.6-60.3 15.2-84 38.1-20.6 19.8-33.2 42.7-39.7 72.1l-2.3 10.2v406l2.3 10.2c6.5 29.4 19.5 52.9 40.1 72.6 20.3 19.3 45.1 31.6 72.6 36.1 9.1 1.5 28.8 1.7 213 1.4 224-.4 205.6.1 225.5-6.4 40.7-13.4 74.7-47.7 87.3-87.9 6.7-21.3 6.1-1.9 6.4-224 .4-224.8.8-212.3-6.7-234.6-6-18.2-13.3-31.2-25.6-46-19.5-23.4-48.7-40.2-80.9-46.6-8.4-1.6-21.7-1.7-203.5-1.9-107-.1-199 .2-204.5.7zm379.7 98c20.5 4.3 38.9 22.8 43.4 43.8 2.1 10 2.1 353.4-.1 363.4-4.3 20.5-21.8 38.3-42.6 43.2-9.6 2.2-356.1 2.2-365.7 0-19.9-4.7-36.5-20.9-41.8-40.9-2.1-7.8-2-360.7.1-368.5 4.2-15.9 14.9-28.9 30.1-36.5 11.5-5.8.6-5.5 193.6-5.5 125.3-.1 179.3.2 183 1zm-2549.5-97c-60.4 7-104.4 44.1-118.7 100-5.1 19.9-5 11.1-5 285.2v255.8l2.5 2.4 2.4 2.5h88l2-2.6 2.1-2.7V450h453l.2 145.1.3 145.1 2.4 1.9c2.2 1.8 4.5 1.9 46 1.9h43.8l2.1-2.3 2.2-2.4-.3-264.4-.2-264.4-2.8-12.1c-5-22.6-12.1-39.2-22.9-53.5-20.4-27.1-51.6-42.6-94.2-46.8-12.9-1.3-391.9-1.3-402.9 0zm387.4 94.3c14.2 3.1 26 11.6 32.2 23.4 6.5 12.3 6.7 15.1 6.7 81.2v59H912v-56.3c0-62.8.2-64.3 6.7-77.6 7-14.1 21.5-26.1 35.8-29.7 7.9-1.9 362.4-1.9 371.6 0zM3832 97.6c-1.4.2-5.9.9-10 1.5-9.8 1.4-27.5 7.1-37.5 12.1-25.9 12.9-48.3 34.7-61.4 59.8-5.6 10.7-11.2 26.6-13.8 39.4-1.6 7.4-1.7 29-2 267.1-.2 142.4-.1 260 .2 261.2 1.3 5.4 0 5.3 48.4 5.3 44.3 0 44.8 0 46.7-2.1 1.9-2.1 1.9-8.1 2.4-257.3l.5-255.2 3.9-8c6.9-13.8 19.6-23.7 34-26.3 8.3-1.5 362.8-1.5 371.2 0 19.3 3.5 35.9 19.5 39.9 38.6 1.3 5.8 1.5 43.5 1.5 256.9 0 241 .1 250.2 1.8 251.7s6.4 1.7 47 1.7h45.2l1.5-2.3c1.4-2.2 1.5-29.9 1.2-264.3l-.2-261.9-2.7-10.5c-14.4-57.7-57.9-98-115.1-106.4-9.2-1.4-34-1.6-205.3-1.5-107.2.1-196 .3-197.4.5zM237 99.1c-64.7 8.3-114.3 49.1-133.4 109.8-6.6 20.8-9.6 41.9-9.6 66.7 0 37.1 5.8 64.2 19.6 91.4 20.1 39.5 55.2 66.1 102.9 77.9 23.2 5.8 13.5 5.5 207 6.1 162.8.5 178.5.7 183.5 2.2 20.7 6.4 33.8 19.9 38.5 39.9 2.2 9.5 2.2 108.7 0 117.4-4.6 17.5-18.6 31.1-38.5 37.3-5.1 1.5-23.7 1.7-244.8 2.2l-239.4.5-1.9 2.4c-1.9 2.3-2 4.1-1.7 44.7.3 39.1.4 42.5 2.1 44.1 1.7 1.7 13 1.8 242 2.1 243.2.3 257.8.1 277.9-3.3 52-9 82.6-36.8 94.2-85.6 5-20.8 5.1-22.9 5.1-111.4 0-91.7.2-89.1-6.6-109.7-14.4-44.3-52.6-70.5-110.4-75.8-6.9-.6-76.3-1-187.6-1-194.3 0-186 .3-201.7-6.1-21-8.4-36.3-25.2-43.1-47.1-4.7-15.4-4.7-38.9-.1-55.6 8.7-31.2 31.8-52.5 61.2-56.2 5.5-.7 82.5-1 229.3-1 121.5 0 221.5-.4 222.1-.8 3.2-2.1 3.4-5.3 3.4-46 0-39.9-.1-41-2.1-43.6l-2-2.6-229.7.1c-126.3.1-232.6.5-236.2 1zm1382.5-.5c-21.5 4.4-38.3 13.3-52.1 27.6-12.9 13.3-20.8 27.8-25 46.3-1.8 7.7-1.9 18.8-1.9 287.1 0 273.1 0 279.2 1.9 281.3 1.9 2.1 2.5 2.1 44.6 2.1s42.7 0 44.6-2.1c1.8-2.1 1.9-6.1 2.2-147l.2-144.9h186.8c114.7 0 192.1-.4 200.6-1 44.3-3.2 81.5-19.5 112.4-49.4 47.8-46 64.6-114.2 44.1-178.1-4.1-12.5-15.6-35.2-23.6-46.4-24.8-34.5-62.4-60.2-103.1-70.6-22.9-5.7-12.4-5.5-229.7-5.4-110 .1-200.9.3-202 .5zm411.5 95.2c30.5 9.4 52.6 31.8 60 60.6 2.8 10.9 2.8 28.3 0 39.2-7.2 28.2-28 49.6-57.2 58.6l-7.3 2.3-196.2.3-196.3.2V198.8l3.9-3.9 3.9-3.9 190.8.2 190.9.3 7.5 2.3zm336.5-94.7c-53.1 7.7-94.6 48-103.9 100.9-1.6 8.7-1.7 26.8-1.4 220.5l.3 211 3.2 11.5c7.3 26.5 18.3 45.1 37.5 63.5 15 14.5 31.4 24.3 50.4 30.3 21 6.6.4 6.2 286 6.2H2899l3.2-2.9 3.3-2.9V656l-2.8-2.7-2.7-2.8-248.3-.5c-238.7-.5-248.4-.6-253.7-2.4-17.5-5.9-30.1-17.7-36.2-34.1l-2.3-6-.3-78.8-.3-78.7H2853v-94h-494.1l.3-66.8.3-66.7 3.7-7.8c6.2-12.9 18-22.1 31.7-24.7 3.5-.7 91.8-1 254.5-1 224.2 0 249.4-.2 251.4-1.6 5.1-3.5 5.2-4.6 5.2-43.9 0-40.2-.1-41-6-44-2.6-1.3-32.5-1.5-264.7-1.4-144 .1-264.5.5-267.8 1z"/></svg>