<svg xmlns="http://www.w3.org/2000/svg" role="img" viewBox="32.97 39.97 157.82 143.82"><title>Sartura logo</title><path d="M90 53h1v1h-1zm-5 1h1v1h-1zm0 10h1v1h-1zm-16 1h1v1h-1zm89 5h1v1h-1zm22 2h1v1h-1zM65 95h1v1h-1zm27 11h1v1h-1zm-15 6h1v1h-1zm13 4h1v1h-1zm48 2h1v1h-1zm20 16h1v9h-1zm0 9h1v1h-1zm-118 9h1v1h-1zm-3 3h1v1h-1zm104 4h1v1h-1zm3 10h1v1h-1z" fill="#ece7e6"/><path d="M75 59h1v1h-1zm13 4h1v1h-1zm-8 4h1v1h-1zm56 40h1v1h-1zm12 32h1v1h-1zm0 6h1v1h-1zm-88 6h1v1h-1z" fill="#deb8b2"/><path d="M186 66h1v1h-1zM65 78h1v1h-1zm0 12h1v1h-1zm78 19h1v1h-1zm6 4h1v1h-1zm-3 41h1v1h-1zm-6 16h1v1h-1z" fill="#e5a39a"/><path d="M75 74h1v1h-1zm73 59h1v1h-1z" fill="#d6968b"/><path d="M91 106h1v1h-1zm43 11h1v1h-1zm23 10h1v1h-1z" fill="#e1d9d7"/><path d="M161 43h1v1h-1zm20 0h1v1h-1zm5 5h1v1h-1zM81 66h1v1h-1zm-13 2h1v1h-1zm10 1h1v1h-1zm-13 8h1v1h-1zm17 37h1v1h-1zm10 2h1v1h-1zm-48 35h1v1h-1zm101 17h1v1h-1zm-108 7h1v1h-1z" fill="#edb8ad"/><path d="M91 53h1v1h-1zm-9 2h1v1h-1zm55 52h1v1h-1zm9 17h1v1h-1zm1 2h1v1h-1zm0 25h1v1h-1zm-79 11h1v1h-1z" fill="#e8e3e1"/><path d="M93 53h1v1h-1zm1 0h1v1h-1zm61 0h1v1h-1zm-75 3h1v1h-1zm105 13h1v1h-1zM65 75h1v1h-1zm0 19h1v1h-1zm4 10h1v1h-1zm75 5h1v1h-1zm-63 5h1v1h-1zm-42 39h1v1h-1zm106 2h1v1h-1zM38 177h1v1h-1z" fill="#fcddd7"/><path d="M79 57h1v1h-1zm80 13h1v1h-1zm-85 8h1v1h-1zm10 27h1v1h-1zm-1 9h1v1h-1zm57 4h1v1h-1zm15 4h1v1h-1zm-89 33h1v1h-1zm76 4h1v1h-1z" fill="#e38e7f"/><path d="M73 61h1v1h-1zm81 97h1v1h-1zM43 180h1v1h-1z" fill="#f4ada0"/><path d="M156 63h1v1h-1zm-23 44h1v1h-1zm-37 9h1v1h-1z" fill="#f58a73"/><path d="M69 66h1v1h-1zm10 2h1v1h-1zm2 35h1v1h-1zm76 47h1v1h-1zm-6 13h1v1h-1zm-17 8h1v1h-1z" fill="#e8c2bc"/><path d="M77 70h1v1h-1zm70 41h1v1h-1zm1 24h1v1h-1zm7 21h1v1h-1z" fill="#e0aba1"/><path d="M186 50h1v14h-1zm0 14h1v1h-1zM74 90h1v1h-1zm74 41h1v1h-1zm0 17h1v1h-1zM37 158h1v1h-1zm0 15h1v1h-1z" fill="#d17e70"/><path fill="#d0c2be" d="M43 151h1v1h-1z"/><path d="M157 68h1v1h-1zM76 98h1v1h-1zm-1 12h1v1h-1zm73 2h1v1h-1zm-1 13h1v1h-1zM41 152h1v1h-1zm102 6h1v1h-1z" fill="#eba093"/><path d="M158 69h1v1h-1zm-1 65h1v9h-1zm0 9h1v1h-1zm-93 10h1v1h-1zm-26 2h1v1h-1zm0 21h1v1h-1z" fill="#e17867"/><path d="M157 128h1v1h-1zm-25 34h1v1h-1z" fill="#fcc6bd"/><path fill="#f76e57" d="M67 171h1v1h-1z"/><path d="M156 53h1v1h-1zM69 67h1v1h-1zm7 4h1v1h-1zm-2 6h1v1h-1zm-7 22h1v1h-1zm30 17h1v1h-1zm45 3h1v1h-1z" fill="#f38169"/><path d="M95 62h60v1H95zm60 0h1v1h-1zm30 5h1v1h-1zM75 97h1v1h-1zm13 10h1v1h-1zm58 15h1v1h-1zm10 7h1v1h-1zm-1 26h1v1h-1zm-18 7h1v1h-1zm10 4h1v1h-1z" fill="#ef522f"/><path d="M186 65h1v1h-1zM74 79h1v1h-1zm-9 1h1v7h-1zm0 7h1v1h-1zm9 2h1v1h-1zm-37 85h1v1h-1z" fill="#db9085"/><path d="M186 49h1v1h-1zM65 79h1v1h-1zm9 1h1v8h-1zm-9 8h1v1h-1zm9 0h1v1h-1zm-9 1h1v1h-1zm-28 68h1v1h-1z" fill="#df978d"/><path d="M162 43h1v1h-1zm18 0h1v1h-1zm-85 73h1v1h-1zm57 0h1v1h-1zm-85 46h1v1h-1z" fill="#f58f7d"/><path d="M156 50h1v1h-1zm-67 4h1v1h-1zm96 14h1v1h-1zm-2 2h1v1h-1zM74 91h1v1h-1zm-4 14h1v1h-1zm64 2h1v1h-1zm-60 2h1v1h-1zm13 6h1v1h-1zm67 5h1v1h-1zm-8 3h1v1h-1zm11 23h1v1h-1zm-22 16h1v1h-1z" fill="#ed8f7e"/><path d="M95 53h59v1H95zm59 0h1v1h-1zm-76 4h1v1h-1zM66 72h1v1h-1zm-1 21h1v1h-1zm74 25h1v1h-1zm15 1h1v1h-1zm-5 46h1v1h-1z" fill="#fbd5cf"/><path d="M93 54h1v1h-1zM66 75h1v1h-1zm8 17h1v1h-1zm-7 6h1v1h-1zm4 8h1v1h-1zm19 1h1v1h-1zm1 0h1v1h-1zm-12 5h1v1h-1zm55 4h1v1h-1zm13 8h1v1h-1zm9 3h1v1h-1zm0 24h1v1h-1zm-3 8h1v1h-1zm-85 4h62v1H68zm62 0h1v1h-1z" fill="#e96149"/><path d="M75 96h1v1h-1zm73 34h1v1h-1zM37 159h1v13h-1zm0 13h1v1h-1z" fill="#cc7465"/><path d="M160 43h1v1h-1zm22 0h1v1h-1zm-26 4h1v1h-1zm31 2h1v1h-1zm-98 4h1v1h-1zm-10 3h1v1h-1zm-2 1h1v1h-1zm110 8h1v1h-1zM82 66h1v1h-1zm74 2h1v1h-1zm-89 1h1v1h-1zm-1 2h1v1h-1zm93 0h1v1h-1zm24 0h1v1h-1zM64 78h1v12h-1zm11 0h1v11h-1zm0 11h1v1h-1zm-11 1h1v1h-1zm12 7h1v1h-1zm8 7h1v1h-1zm10 2h1v1h-1zm49 2h1v1h-1zm-60 7h1v1h-1zm49 2h1v1h-1zm8 2h1v1h-1zm15 1h1v1h-1zm-10 3h1v1h-1zm12 3h1v1h-1zm1 20h1v1h-1zm-96 5h1v1h-1zm5 4h1v1h-1zm-31 2h1v1h-1zm106 1h1v1h-1zm-4 2h1v1h-1zm-3 1h1v1h-1zm5 10h1v1h-1zm-104 3h1v1h-1zm31 2h1v1h-1z" fill="#f9f8f8"/><path d="M66 96h1v1h-1zm12 16h1v1h-1zm2 1h1v1h-1zm77 18h1v1h-1zm0 16h1v1h-1zm-1 6h1v1h-1zm-12 4h1v1h-1zm-6 4h1v1h-1zm-72 15h1v1h-1z" fill="#ef9689"/><path d="M157 47h1v1h-1zm-67 7h1v1h-1zM66 74h1v1h-1zm87 44h1v1h-1zm4 14h1v1h-1zm0 1h1v1h-1zm0 11h1v1h-1zm0 1h1v1h-1zm-94 7h1v1h-1zm77 8h1v1h-1zm-1 10h1v1h-1z" fill="#e58372"/><path d="M184 45h1v1h-1zm-2 26h1v1h-1zm-29 46h1v1h-1zm-9 4h1v1h-1zM37 156h1v1h-1zm100 5h1v1h-1zm13 3h1v1h-1zm-9 6h1v1h-1z" fill="#f2c2bb"/><path d="M183 44h1v1h-1zm-25 1h1v1h-1zm27 1h1v1h-1zm-99 8h1v1h-1zM70 64h1v1h-1zm2 44h1v1h-1zm-34 46h1v1h-1z" fill="#efcbc6"/><path d="M84 64h1v1h-1zm59 56h1v1h-1z" fill="#deaca2"/><path d="M150 114h1v1h-1zm-56 2h1v1h-1zm-27 43h1v2h-1zm0 2h1v1h-1zm0 11h1v1h-1z" fill="#f79a8d"/><g fill="#fff"><path d="M0 0h223v42H0zm223 0h1v223h-1zM0 42h223v1H0zm0 1h159v1H0zm159 0h1v1h-1zm24 0h40v1h-40zM0 44h158v1H0zm158 0h1v1h-1zm26 0h39v1h-39zM0 45h157v1H0zm157 0h1v1h-1zm28 0h38v1h-38zM0 46h156v6H0zm156 0h1v1h-1zm30 0h37v1h-37zm1 1h36v1h-36zm0 1h36v1h-36zm1 1h35v174h-35zM0 52h155v1H0zm155 0h1v1h-1zM0 53h88v1H0zm88 0h1v1h-1zM0 54h84v1H0zm84 0h1v1h-1zM0 55h81v1H0zm81 0h1v1h-1zM0 56h78v1H0zm78 0h1v1h-1zM0 57h76v1H0zm76 0h1v1h-1zM0 58h75v1H0zm75 0h1v1h-1zM0 59h74v1H0zm74 0h1v1h-1zM0 60h73v1H0zm73 0h1v1h-1zM0 61h72v1H0zm72 0h1v1h-1zM0 62h71v1H0zm71 0h1v1h-1zM0 63h70v1H0zm70 0h1v1h-1zM0 64h69v2H0zm69 0h1v1h-1zm17 0h69v40H86zm69 0h1v55h-1z"/><path d="M84 65h71v38H84zM0 66h68v2H0zm68 0h1v1h-1z"/><path d="M83 66h72v37H83zm104 0h36v157h-36z"/><path d="M81 67h74v35H81zM0 68h67v2H0zm67 0h1v1h-1z"/><path d="M80 68h75v33H80z"/><path d="M79 69h77v31H79zm77 0h1v54h-1zm30 0h37v154h-37zM0 70h66v3H0zm66 0h1v1h-1z"/><path d="M78 70h79v29H78zm79 0h1v55h-1zm28 0h38v153h-38z"/><path d="M77 71h81v27H77zm81 0h1v60h-1zm26 0h39v152h-39zm-25 1h2v151h-2zm2 0h1v151h-1z"/><path d="M181 72h42v151h-42zM0 73h65v4H0zm65 0h1v1h-1z"/><path d="M76 73h147v23H76zM0 77h64v73H0zm64 0h1v1h-1zm0 14h1v60h-1zm1 5h1v56h-1zm11 0h147v1H76zm86 1h61v126h-61z"/><path d="M77 98h146v1H77zm-11 1h1v54h-1zm12 0h145v1H78zm1 1h144v1H79zm-12 1h1v53h-1zm13 0h143v1H80zm1 1h142v1H81zm1 1h141v1H82zm-14 1h1v57h-1zm17 0h138v1H85zm2 1h136v1H87zm-18 1h1v55h-1zm26 0h128v1H95zm-25 1h1v54h-1zm68 0h85v1h-85zm-67 1h1v53h-1zm73 0h79v1h-79zm-72 1h1v52h-1zm73 0h78v1h-78zm-72 1h1v51h-1zm74 0h76v1h-76zm-73 1h1v50h-1zm1 0h1v50h-1zm73 0h75v1h-75zm-72 1h1v49h-1zm73 0h74v1h-74zm-72 1h1v48h-1zm1 0h1v48h-1zm73 0h72v1h-72zm-72 1h1v47h-1zm1 0h1v47h-1zm72 0h71v1h-71zm-71 1h1v46h-1zm1 0h1v46h-1zm70 0h71v1h-71zm-69 1h6v45h-6zm6 0h1v45h-1zm64 0h70v1h-70zm-63 1h41v44H90zm41 0h1v44h-1zm23 0h69v1h-69zm-22 1h5v42h-5zm5 0h1v42h-1zm1 1h1v40h-1zm1 0h1v40h-1zm16 0h68v1h-68zm-15 1h2v38h-2zm2 0h1v37h-1zm1 1h1v36h-1zm1 1h1v33h-1zm12 1h67v1h-67zm-11 1h1v30h-1zm1 1h1v27h-1zm11 0h66v1h-66zm-10 2h1v23h-1zm11 4h65v1h-65zm0 16h65v76h-65z"/><path d="M0 150h147v1H0zm147 0h1v1h-1zM0 151h41v1H0zm41 0h1v1h-1zm22 0h83v1H63zm-63 1h39v1H0zm39 0h1v1h-1zm26 0h81v1H65zm81 0h1v1h-1zm11 0h66v71h-66zM0 153h38v1H0zm38 0h1v1h-1zm28 0h79v1H66zm-66 1h37v2H0zm37 0h1v1h-1zm30 0h78v1H67zm78 0h1v1h-1zm-1 1h1v1h-1z"/><path d="M156 155h67v68h-67zM0 156h36v67H0zm36 0h1v1h-1zm106 1h1v1h-1zm1 0h1v1h-1zm-3 1h1v1h-1zm1 0h1v1h-1z"/><path d="M155 158h68v65h-68zm-17 1h2v1h-2zm2 0h1v1h-1zm-8 1h5v1h-5zm5 0h1v1h-1z"/><path d="M154 160h69v63h-69zm-86 1h66v1H68zm66 0h1v1h-1z"/><path d="M153 162h70v61h-70z"/><path d="M152 163h71v60h-71z"/><path d="M151 164h72v59h-72z"/><path d="M150 165h73v58h-73z"/><path d="M149 166h74v57h-74z"/><path d="M148 167h75v56h-75z"/><path d="M146 168h77v55h-77z"/><path d="M145 169h78v54h-78z"/><path d="M143 170h80v53h-80z"/><path d="M141 171h82v52h-82z"/><path d="M68 172h155v51H68zm-32 3h1v48h-1zm1 2h1v46h-1z"/><path d="M67 177h156v46H67zm-29 1h1v45h-1z"/><path d="M66 178h157v45H66zm-27 1h1v44h-1z"/><path d="M65 179h158v44H65zm-25 1h1v43h-1zm1 0h1v43h-1z"/><path d="M63 180h160v43H63z"/><path d="M42 181h181v42H42zM0 223h223v1H0zm223 0h1v1h-1z"/></g><path d="M156 48h1v1h-1zM76 58h1v1h-1zm-5 5h1v1h-1zm18 0h1v1h-1zM75 75h1v1h-1zm0 19h1v1h-1zm3 6h1v1h-1zm-7 7h1v1h-1zm64 10h1v1h-1zm19 42h1v1h-1zM39 178h1v1h-1z" fill="#edcfcb"/><path d="M91 54h1v1h-1zM70 65h1v1h-1zm-4 30h1v1h-1zm16 9h1v1h-1zm56 13h1v1h-1zm7 39h1v1h-1zM41 179h1v1h-1z" fill="#dd7260"/><path d="M155 63h1v1h-1zm-87 4h1v1h-1zm7 10h1v1h-1zm0 14h1v1h-1zm-7 12h1v1h-1zm74 5h1v1h-1zm8 5h1v1h-1zm-66 2h1v1h-1zm62 38h1v1h-1zm-2 3h1v1h-1zm-6 15h1v1h-1z" fill="#fcf3f1"/><path d="M71 64h1v1h-1zm5 6h1v1h-1zm85 1h1v1h-1zM66 93h1v1h-1zm2 8h1v1h-1zm84 16h1v1h-1zm4 11h1v1h-1zm-89 35h1v1h-1zm65 0h1v1h-1zm5 7h1v1h-1zm-74 9h1v1h-1z" fill="#f25c3b"/><path d="M184 69h1v1h-1zm-42 40h1v1h-1zm6 40h1v1h-1zm-108 4h1v1h-1zm106 14h1v1h-1zm-8 3h1v1h-1z" fill="#df6953"/><path d="M163 72h16v1h-16zm16 0h1v1h-1zm-88 44h1v1h-1zm65 8h1v1h-1zm-95 27h1v1h-1zm70 11h1v1h-1zm-89 18h1v1h-1z" fill="#d8cbc8"/><path d="M182 44h1v1h-1zM94 54h1v1h-1zm1 0h1v1h-1zm-17 4h1v1h-1zm8 5h1v1h-1zm-19 9h1v1h-1zm7 4h1v1h-1zm-8 18h1v1h-1zm7 14h1v1h-1zm71 2h1v1h-1zm2 1h1v1h-1zm-65 2h1v1h-1zm7 2h1v1h-1zm47 1h1v1h-1zm-96 38h1v1h-1zm107 1h1v1h-1zm8 2h1v1h-1zm-23 6h1v1h-1zm-92 14h1v1h-1z" fill="#f26346"/><path d="M92 54h1v1h-1zM67 71h1v1h-1zm26 36h1v1h-1zm1 0h1v1h-1zm38 9h1v1h-1zm1 0h1v1h-1zm15 13h1v1h-1zm-1 24h1v1h-1zm-11 9h1v1h-1zm12 3h1v1h-1zm-6 4h1v1h-1z" fill="#ee6d59"/><path d="M83 55h1v1h-1zM67 70h1v1h-1zm-2 21h1v1h-1zm1 6h1v1h-1zm2 5h1v1h-1zm8 9h1v1h-1zm69 11h1v1h-1zm8 38h1v1h-1zm-92 20h1v1h-1z" fill="#f0afa4"/><path d="M157 46h1v1h-1zm-65 7h1v1h-1zm-2 10h1v1h-1zm-11 38h1v1h-1zm4 3h1v1h-1zm-13 2h1v1h-1zm3 3h1v1h-1zm73 1h1v1h-1zm-5 9h1v1h-1zm14 2h1v1h-1zm-89 33h1v1h-1zm86 8h1v1h-1zm-5 5h1v1h-1zm-5 3h1v1h-1zm-7 1h1v1h-1zm-68 4h1v1h-1zm-2 3h1v1h-1zm-25 1h1v1h-1z" fill="#f8e0dc"/><path d="M161 44h1v1h-1zM83 56h1v1h-1zm5 6h1v1h-1zm-4 1h1v1h-1zm101 3h1v1h-1zm-2 3h1v1h-1zM68 70h1v1h-1zm114 0h1v1h-1zM66 91h1v1h-1zm0 1h1v1h-1zm8 3h1v1h-1zm1 3h1v1h-1zm8 7h1v1h-1zm53 3h1v1h-1zm4 1h1v1h-1zm3 1h1v1h-1zm-66 1h1v1h-1zm5 2h1v1h-1zm4 1h1v1h-1zm6 1h1v1h-1zm59 1h1v1h-1zm-8 3h1v1h-1zm6 17h1v3h-1zm0 3h1v1h-1zm0 6h1v1h-1zm0 1h1v1h-1zm-107 6h18v1H42zm18 0h1v1h-1zm-19 1h1v1h-1zm22 0h1v1h-1zm3 3h1v1h-1zm88 0h1v1h-1zm-88 1h1v1h-1zm79 0h1v1h-1zm-1 1h1v1h-1zm9 0h1v1h-1zm-21 12h1v1h-1zm1 0h1v1h-1zm3 0h1v1h-1zm-70 4h1v1h-1zm-23 5h1v1h-1zm18 0h1v1h-1z" fill="#ee4621"/><g fill="#ef5132"><path d="M161 45h20v24h-20zm20 0h1v24h-1z"/><path d="M160 46h22v23h-22zm22 0h1v23h-1z"/><path d="M159 47h24v21h-24zm24 0h1v21h-1z"/><path d="M158 48h26v18h-26zm26 0h1v18h-1z"/><path d="M156 54h28v8h-28z"/><path d="M87 56h97v5H87z"/><path d="M82 57h102v4H82z"/><path d="M80 58h104v3H80z"/><path d="M79 59h105v2H79z"/><path d="M77 60h107v1H77zm-3 1h110v1H74zm-1 1h12v1H73zm12 0h1v1h-1zm71 0h28v1h-28zm-82 1h8v1h-8zm8 0h1v1h-1zm-9 1h7v1h-7zm7 0h1v2h-1zm-8 1h7v1h-7zm7 0h1v1h-1zm-9 1h8v1h-8zm8 0h2v1h-2zm2 0h1v1h-1zm78 0h26v1h-26zm26 0h1v1h-1zM71 67h6v1h-6zm6 0h1v1h-1zm-7 1h6v1h-6zm6 0h2v1h-2zm2 0h1v1h-1zm81 0h24v1h-24zm24 0h1v1h-1zM70 69h5v3h-5zm5 0h1v1h-1zm85 0h22v1h-22zm22 0h1v1h-1z"/><path d="M69 70h5v5h-5zm93 0h18v1h-18zm18 0h1v1h-1zM74 72h1v1h-1z"/><path d="M68 73h5v24h-5zm5 2h1v1h-1z"/><path d="M67 76h5v16h-5zm0 16h5v1h-5zm6 1h1v13h-1zm-6 4h6v1h-6z"/><path d="M69 98h5v2h-5zm5 0h1v9h-1z"/><path d="M69 100h6v1h-6zm6 0h1v8h-1z"/><path d="M70 101h6v1h-6zm6 0h1v8h-1z"/><path d="M70 102h7v1h-7zm7 0h1v8h-1z"/><path d="M71 103h7v1h-7zm7 0h1v7h-1z"/><path d="M72 104h7v1h-7zm7 0h1v6h-1z"/><path d="M72 105h9v1h-9zm9 0h1v6h-1z"/><path d="M73 106h10v1H73zm10 0h2v6h-2zm2 0h1v7h-1z"/><path d="M74 107h11v1H74zm1 1h13v1H75zm13 0h1v5h-1z"/><path d="M76 109h62v1H76zm62 0h1v6h-1z"/><path d="M77 110h64v1H77zm64 0h1v6h-1z"/><path d="M80 111h63v1H80zm63 0h1v7h-1z"/><path d="M82 112h63v1H82zm63 0h1v7h-1z"/><path d="M85 113h63v1H85zm63 0h1v10h-1zm-59 1h58v1H89z"/><path d="M147 114h2v7h-2zm2 0h1v13h-1z"/><path d="M136 115h12v1h-12zm0 1h1v1h-1zm4 0h10v1h-10zm10 0h1v45h-1zm-11 1h1v1h-1zm3 0h8v1h-8z"/><path d="M141 118h10v1h-10zm10 0h1v42h-1zm-6 1h6v1h-6z"/><path d="M144 120h8v1h-8zm8 0h1v38h-1z"/><path d="M147 121h6v1h-6zm6 0h1v35h-1zm-5 2h5v1h-5zm6 1h1v30h-1z"/><path d="M149 127h5v1h-5zm6 2h1v20h-1zm0 20h1v1h-1zm1 0h1v1h-1zm-7 1h5v6h-5zm-107 3h20v25H42zm20 0h1v25h-1z"/><path d="M41 154h22v23H41zm22 0h1v23h-1zm84 0h7v2h-7zm7 0h1v1h-1z"/><path d="M40 155h24v21H40zm24 0h1v21h-1z"/><path d="M39 156h26v19H39zm26 0h1v19h-1zm82 0h6v2h-6zm6 0h1v1h-1z"/><path d="M146 157h6v3h-6z"/><path d="M145 158h7v2h-7zm7 0h1v1h-1z"/><path d="M143 159h8v2h-8zm8 1h1v1h-1zm-12 1h11v1h-11zm11 0h1v1h-1zm-10 1h9v1h-9zm9 0h1v1h-1zm-83 1h1v7h-1zm67 0h1v6h-1zm4 0h11v1h-11zm11 0h1v1h-1zm-81 1h1v5h-1zm67 0h13v1h-13zm13 0h1v1h-1z"/><path d="M68 165h78v1H68zm78 0h1v1h-1zm-78 1h77v1H68zm77 0h1v1h-1zm-77 1h75v1H68zm75 0h1v1h-1zm-75 1h73v1H68zm73 0h1v1h-1zm-74 1h69v1H67zm69 0h1v1h-1zm-70 1h1v1h-1zm-27 5h26v1H39zm26 0h1v1h-1zm-25 1h24v1H40zm24 0h1v1h-1zm-23 1h22v1H41zm22 0h1v1h-1zm-21 1h20v1H42zm20 0h1v1h-1z"/></g><path fill="#c79085" d="M131 171h1v1h-1z"/><path d="M159 44h1v1h-1zm-92 56h1v1h-1zm19 15h1v1h-1zm62 25h1v4h-1zm0 4h1v1h-1z" fill="#e1c4c0"/><path d="M87 54h1v1h-1zm-13 6h1v1h-1zm-2 2h1v1h-1zm16 44h1v1h-1zm48 11h1v1h-1zm21 12h1v1h-1zm0 20h1v1h-1zm-112 2h14v1H45zm14 0h1v1h-1zm74 11h1v1h-1z" fill="#fdbab0"/><path d="M87 63h1v1h-1zm69 2h1v1h-1zm-8 67h1v1h-1zm-81 41h1v1h-1z" fill="#cf8d81"/><path d="M66 98h1v1h-1zm24 8h1v1h-1zm-11 7h1v1h-1zm78 38h1v1h-1zm-1 3h1v1h-1zm-87 8h61v1H69zm61 0h1v1h-1zm18 4h1v1h-1zm-84 13h1v1h-1zm-2 1h1v1h-1z" fill="#e2d9d7"/><path d="M67 158h1v1h-1zm65 13h1v1h-1zm-65 3h1v1h-1z" fill="#d09f96"/><path d="M186 47h1v1h-1zm-30 20h1v1h-1zm1 2h1v1h-1zm27 1h1v1h-1zM80 102h1v1h-1zm6 3h1v1h-1zm55 3h1v1h-1zm-76 45h1v1h-1zm2 3h1v1h-1zm69 5h1v1h-1zm-70 16h1v1h-1z" fill="#fae7e4"/><path d="M181 44h1v1h-1zm2 1h1v1h-1zm2 3h1v1h-1zM80 57h1v1h-1zm9 5h2v1h-2zm2 0h1v1h-1zm72 9h16v1h-16zm16 0h1v1h-1zM74 94h1v1h-1zm-6 6h1v1h-1zm1 2h1v1h-1zm12 2h1v1h-1zm10 11h1v1h-1zm64 9h1v1h-1zm-7 3h1v1h-1zm1 13h1v4h-1zm0 4h1v1h-1zm-88 8h1v1h-1zm1 0h1v1h-1zm88 11h1v1h-1zm-5 4h1v1h-1zm-11 3h1v1h-1zm-96 5h1v1h-1z" fill="#f0441c"/><path d="M158 47h1v1h-1zm27 3h1v15h-1zM79 58h1v1h-1zm8 4h1v1h-1zm70 3h1v2h-1zm28 0h1v1h-1zm-28 2h1v1h-1zm-90 7h1v1h-1zm6 4h1v1h-1zm0 1h1v1h-1zm-7 1h1v7h-1zm0 7h1v1h-1zm7 2h1v1h-1zm0 1h1v1h-1zm4 11h1v1h-1zm6 12h1v1h-1zm69 5h1v1h-1zm3 5h1v1h-1zm-6 8h1v1h-1zm0 1h1v1h-1zm0 16h1v1h-1zm-1 2h1v1h-1zm-108 4h1v1h-1zm-2 4h1v1h-1zm108 8h1v1h-1zm-78 4h63v1H68zm63 0h1v1h-1zm-65 3h1v1h-1zm-1 3h1v1h-1zm-24 2h1v1h-1z" fill="#f24c29"/><path d="M187 50h1v14h-1zm0 14h1v1h-1zM83 65h1v1h-1zm103 3h1v1h-1zM76 72h1v1h-1zm86 0h1v1h-1zm-97 2h1v1h-1zm10 16h1v1h-1zm-6 15h1v1h-1zm24 1h1v1h-1zm-19 4h1v1h-1zm77 4h1v1h-1zm-18 3h1v1h-1zm21 1h1v1h-1zm4 14h1v1h-1zm0 1h1v1h-1zm0 11h1v1h-1zm0 1h1v1h-1zm-116 6h1v1h-1zm22 1h1v1h-1zm-28 6h1v15h-1zm117 3h1v1h-1zm-14 10h1v1h-1zm-103 2h1v1h-1z" fill="#f4f2f1"/><path d="M88 54h1v1h-1zm-11 4h1v1h-1zm5 7h1v1h-1zm5 41h1v1h-1zm48 1h1v1h-1zm10 3h1v1h-1zm-52 6h1v1h-1zm44 1h1v1h-1zm19 8h1v1h-1zm-9 27h1v1h-1zM44 180h16v1H44zm16 0h1v1h-1z" fill="#f6a192"/><path d="M186 67h1v1h-1zM65 76h1v1h-1zm0 16h1v1h-1zm12 7h1v1h-1zm8 6h1v1h-1zm4 1h1v1h-1z" fill="#f9cac4"/><path d="M160 44h1v1h-1zm-3 4h1v1h-1zm-75 8h1v1h-1zm3 7h1v1h-1zm-6 4h1v1h-1zm83 4h1v1h-1zm18 0h1v1h-1zM72 107h1v1h-1zm65 1h1v1h-1zm-61 2h1v1h-1zm71 2h1v1h-1zm-57 3h1v1h-1zm-28 64h1v1h-1z" fill="#f03f12"/><path d="M164 43h15v1h-15zm15 0h1v1h-1zM81 56h1v1h-1zm14 51h35v1H95zm35 0h1v1h-1zm9 1h1v1h-1zm12 7h1v1h-1zm-20 1h1v1h-1zm25 10h1v1h-1zm0 26h1v1h-1zm-91 2h1v1h-1z" fill="#f27663"/><path d="M156 49h1v1h-1zm4 22h1v1h-1zm-12 63h1v1h-1zm0 13h1v1h-1z" fill="#d4998f"/><path d="M156 51h1v1h-1zm0 1h1v1h-1zm0 12h1v1h-1z" fill="#f6917a"/><path d="M69 68h1v1h-1zm91 2h1v1h-1zm-85 2h1v1h-1zm-1 3h1v1h-1zm15 40h1v1h-1zm59 11h1v1h-1zm0 25h1v1h-1zm7 3h1v1h-1zm-14 6h1v1h-1zm-6 10h1v1h-1zm-69 5h1v1h-1zm-24 4h1v1h-1z" fill="#ef4219"/><path d="M163 43h1v1h-1zm22 4h1v1h-1zM84 55h1v1h-1zm-6 46h1v1h-1zm-9 2h1v1h-1zm17 3h1v1h-1zm45 1h1v1h-1zm1 0h1v1h-1zm-34 9h32v1H98zm32 0h1v1h-1zm22 45h1v1h-1zm-87 16h1v1h-1z" fill="#f27966"/><path d="M160 45h1v1h-1zm23 1h1v1h-1zm-96 9h1v1h-1zm5 0h63v1H92zm63 0h1v1h-1zm-70 1h1v1h-1zm1 0h1v1h-1zm-8 3h1v1h-1zm-2 1h1v1h-1zm10 2h1v1h-1zm-13 1h1v1h-1zm-1 1h1v1h-1zm9 0h1v1h-1zm1 0h1v1h-1zm-4 3h1v1h-1zm80 0h1v1h-1zm26 0h1v1h-1zM69 69h1v1h-1zm7 0h1v1h-1zm-1 1h1v1h-1zm86 0h1v1h-1zm20 0h1v1h-1zM68 72h1v1h-1zm6 1h1v1h-1zm-7 2h1v1h-1zm6 1h1v1h-1zm0 16h1v1h-1zm-6 1h1v1h-1zm0 1h1v1h-1zm7 3h1v1h-1zm-6 1h1v1h-1zm7 1h1v1h-1zm-6 2h1v1h-1zm2 3h1v1h-1zm1 2h1v1h-1zm1 1h1v1h-1zm16 1h3v1h-3zm3 0h1v1h-1zm-17 1h1v1h-1zm4 2h1v1h-1zm65 0h1v1h-1zm-63 1h1v1h-1zm65 0h1v1h-1zm-58 2h1v1h-1zm45 1h2v1h-2zm2 0h1v1h-1zm15 0h1v1h-1zm-11 1h1v1h-1zm2 1h1v1h-1zm10 0h1v1h-1zm-7 2h1v1h-1zm8 0h1v1h-1zm-6 2h1v1h-1zm1 1h1v1h-1zm7 1h1v1h-1zm-6 1h1v1h-1zm7 3h1v1h-1zm-6 1h1v1h-1zm6 0h1v1h-1zm0 22h1v1h-1zm0 1h1v1h-1zm-1 4h1v1h-1zm-1 2h1v1h-1zm-14 5h1v1h-1zm11 0h1v1h-1zm-1 1h1v1h-1zm-81 1h64v1H68zm64 0h1v1h-1zm5 5h1v1h-1zm-70 1h1v1h-1zm-1 1h1v1h-1z" fill="#ef4f2f"/><path d="M91 63h63v1H91zm63 0h1v1h-1zM75 76h1v1h-1zm0 16h1v1h-1zm0 1h1v1h-1zm10 22h1v1h-1zm70 42h1v1h-1zm-16 3h1v1h-1zm-3 11h1v1h-1zm1 0h1v1h-1zm-100 5h1v1h-1z" fill="#fdecea"/><path d="M156 66h1v1h-1zM75 95h1v1h-1zm65 13h1v1h-1zm8 28h1v2h-1zm0 2h1v1h-1zm0 8h1v1h-1zm-81 11h1v1h-1zm66 14h1v1h-1z" fill="#d3aea8"/><path d="M66 73h1v1h-1zm91 57h1v1h-1zm0 18h1v1h-1zm-23 14h1v1h-1zm9 7h1v1h-1z" fill="#f6a79c"/><path d="M163 44h16v1h-16zm16 0h1v1h-1zm3 1h1v1h-1zm-23 1h1v1h-1zm25 1h1v1h-1zm-27 6h1v1h-1zm-67 2h1v1h-1zm1 0h1v1h-1zm-7 1h1v1h-1zm-3 1h1v1h-1zm-4 2h1v1h-1zm-2 1h1v1h-1zm18 2h1v1h-1zm1 0h1v1h-1zm-22 1h1v1h-1zm11 0h1v1h-1zm74 0h1v1h-1zm-87 4h1v1h-1zm89 2h1v1h-1zm-91 2h1v1h-1zm7 0h1v1h-1zm-2 6h1v1h-1zm1 16h1v1h-1zm-7 2h1v1h-1zm7 1h1v1h-1zm-6 3h1v1h-1zm8 1h1v1h-1zm4 4h1v1h-1zm-9 1h1v1h-1zm11 0h1v1h-1zm4 2h1v1h-1zm-12 1h1v1h-1zm19 0h40v1H93zm40 0h1v1h-1zm6 1h1v1h-1zm3 1h1v1h-1zm3 1h1v1h-1zm-61 2h1v1h-1zm1 1h1v1h-1zm11 1h36v1H96zm36 0h1v1h-1zm6 1h1v1h-1zm17 10h1v1h-1zm-6 3h1v1h-1zm0 1h1v1h-1zm7 3h1v10h-1zm0 10h1v2h-1zm0 2h1v1h-1zm0 3h1v1h-1zm-7 1h1v1h-1zm6 3h1v1h-1zm-7 1h1v1h-1zm-84 1h1v1h-1zm-26 5h1v14h-1zm114 0h1v1h-1zm0 1h1v1h-1zm-86 2h1v1h-1zm70 1h1v1h-1zm12 1h1v1h-1zm-1 1h1v1h-1zm-3 2h1v1h-1zm-2 1h1v1h-1zm1 0h1v1h-1zm-5 1h1v1h-1zm1 0h1v1h-1zm-101 4h1v1h-1zm1 3h1v1h-1zm1 1h1v1h-1zm24 0h1v1h-1zm-24 1h1v1h-1zm23 0h1v1h-1z" fill="#ef4d2c"/><path d="M159 45h1v1h-1zm25 1h1v1h-1zm-88 8h59v1H96zm59 0h1v1h-1zm-69 1h1v1h-1zm-10 4h1v1h-1zm5 6h1v1h-1zm-13 4h1v1h-1zm9 0h1v1h-1zm104 2h1v1h-1zM76 99h1v1h-1zm-6 5h1v1h-1zm19 3h1v1h-1zm64 12h1v1h-1zm-8 2h1v1h-1zm3 7h1v1h-1zm8 22h1v1h-1zm-7 14h1v1h-1z" fill="#f05d3e"/><path d="M158 46h1v1h-1zm-73 9h1v1h-1zm-2 9h1v1h-1zm-8 9h1v1h-1zm2 27h1v1h-1zm2 2h1v1h-1zm1 1h1v1h-1zm12 4h1v1h-1zm-8 7h1v1h-1zm60 54h1v1h-1zm-80 10h1v1h-1z" fill="#f06b54"/><path d="M68 171h62v1H68zm62 0h1v1h-1z" fill="#c08377"/><path d="M162 44h1v1h-1zm18 0h1v1h-1zm-23 5h1v1h-1zm28 0h1v1h-1zm-28 1h1v2h-1zm0 2h1v1h-1zm-69 3h1v1h-1zm1 0h1v1h-1zm3 7h1v1h-1zm65 2h1v1h-1zm-86 1h1v1h-1zm87 3h1v1h-1zm26 0h1v1h-1zM67 73h1v1h-1zm7 1h1v1h-1zm-8 2h1v3h-1zm0 3h1v1h-1zm7 1h1v8h-1zm-7 8h1v2h-1zm7 0h1v1h-1zm-7 2h1v1h-1zm7 1h1v1h-1zm-6 5h1v1h-1zm11 6h1v1h-1zm-8 1h1v1h-1zm9 0h1v1h-1zm8 4h1v1h-1zm47 1h1v1h-1zm1 0h1v1h-1zm3 0h1v1h-1zm3 1h1v1h-1zm-63 2h1v1h-1zm2 1h1v1h-1zm7 2h1v1h-1zm6 1h2v1h-2zm2 0h1v1h-1zm42 1h1v1h-1zm3 1h1v1h-1zm13 3h1v1h-1zm1 1h1v1h-1zm0 1h1v1h-1zm-7 1h1v1h-1zm1 2h1v1h-1zm7 0h1v1h-1zm1 5h1v2h-1zm0 2h1v1h-1zm-7 1h1v2h-1zm0 2h1v1h-1zm7 11h1v1h-1zm-7 1h1v1h-1zm7 0h1v1h-1zm-8 5h1v1h-1zm7 1h1v1h-1zm-116 2h1v1h-1zm26 0h1v1h-1zm-27 1h1v1h-1zm108 0h1v1h-1zm-108 1h1v1h-1zm28 1h1v3h-1zm76 2h1v1h-1zm-76 1h1v1h-1zm85 0h1v1h-1zm-13 1h1v1h-1zm13 0h1v1h-1zm-17 1h1v1h-1zm1 0h1v1h-1zm5 6h1v1h-1zm1 0h1v1h-1zm-75 3h1v1h-1zm-28 2h1v1h-1zm6 5h16v1H44zm16 0h1v1h-1z" fill="#ee4926"/></svg>