<svg xmlns="http://www.w3.org/2000/svg" role="img" xmlns:xlink="http://www.w3.org/1999/xlink" viewBox="-0.96 -0.46 244.92 55.92"><title>ScaleUP (member) logo</title><defs><path d="M32.10938-42.3125v5.78125c-2.25-1.07031-4.3711-1.875-6.35938-2.40625-1.99219-.53125-3.91406-.79688-5.76563-.79688-3.23046 0-5.71874.625-7.46874 1.875-1.7422 1.25-2.60938 3.03126-2.60938 5.34376 0 1.92968.57813 3.38671 1.73438 4.375 1.16406.99218 3.36718 1.78906 6.60937 2.39062l3.57813.73438c4.41406.83593 7.67187 2.3125 9.76562 4.4375 2.10156 2.11718 3.15625 4.94921 3.15625 8.5 0 4.24218-1.42188 7.45312-4.26563 9.64062C27.64063-.25 23.47266.84375 17.98438.84375c-2.0625 0-4.26562-.23438-6.60937-.70313-2.33594-.46874-4.75-1.16015-7.25-2.07812v-6.09375c2.40625 1.35547 4.75781 2.375 7.0625 3.0625 2.3125.67969 4.57813 1.01563 6.79688 1.01563 3.3828 0 5.99218-.66016 7.82812-1.98438 1.83203-1.33203 2.75-3.22656 2.75-5.6875 0-2.15625-.66406-3.83594-1.98438-5.04688-1.3125-1.20703-3.47656-2.11328-6.48437-2.71874L16.5-20.09376c-4.41797-.88281-7.61719-2.26563-9.59375-4.14063-1.96875-1.875-2.95313-4.47656-2.95313-7.8125 0-3.875 1.35938-6.92187 4.07813-9.14062 2.72656-2.22656 6.48828-3.34375 11.28125-3.34375 2.05078 0 4.14063.1875 6.26563.5625 2.125.36719 4.30078.91797 6.53124 1.65625zm0 0" id="a"/><path d="M29.26563-31.54688v5.03126c-1.52344-.84376-3.04688-1.47266-4.57813-1.89063-1.53125-.41406-3.07813-.625-4.64063-.625-3.5 0-6.21874 1.10938-8.15624 3.32813C9.96092-23.4922 9-20.38283 9-16.375c0 4 .96094 7.10938 2.89063 9.32813 1.9375 2.21875 4.65625 3.32812 8.15625 3.32812 1.5625 0 3.10937-.20703 4.64062-.625 1.53125-.42578 3.05469-1.05469 4.57813-1.89063v4.96875c-1.5.71094-3.0586 1.23438-4.67188 1.57813-1.61719.35156-3.32813.53125-5.14063.53125-4.9375 0-8.86718-1.55078-11.78124-4.65625C4.76563-6.91406 3.3125-11.10156 3.3125-16.375c0-5.35156 1.46875-9.5625 4.40625-12.625 2.9375-3.07031 6.96875-4.60938 12.09375-4.60938 1.65625 0 3.27344.17188 4.85938.51563 1.58203.34375 3.11328.85938 4.59374 1.54688zm0 0" id="b"/><path d="M20.5625-16.5c-4.35547 0-7.3711.5-9.04688 1.5C9.83595-14 9-12.30078 9-9.90625c0 1.91797.6289 3.4375 1.89063 4.5625 1.2578 1.125 2.97265 1.6875 5.14062 1.6875 2.98828 0 5.38281-1.05469 7.1875-3.17188 1.80078-2.125 2.70313-4.9453 2.70313-8.46875V-16.5zm10.75-2.21875V0h-5.39063v-4.98438c-1.23046 1.9922-2.76171 3.46094-4.59374 4.40625C19.49218.3672 17.25.84376 14.59375.84376c-3.36719 0-6.03906-.9414-8.01563-2.82813-1.98046-1.8828-2.96875-4.40625-2.96875-7.5625 0-3.6953 1.23438-6.48437 3.70313-8.35937s6.15625-2.8125 11.0625-2.8125h7.54688v-.51563c0-2.48828-.82032-4.41015-2.45313-5.76562-1.625-1.35156-3.91406-2.03125-6.85938-2.03125-1.875 0-3.70312.22656-5.48437.67188-1.77344.44921-3.48047 1.12109-5.125 2.01562v-4.96875c1.97656-.76953 3.89453-1.34375 5.75-1.71875 1.85156-.38281 3.66016-.57813 5.42188-.57813 4.73828 0 8.28124 1.23438 10.625 3.70313 2.34374 2.46094 3.51562 6.1875 3.51562 11.1875zm0 0" id="c"/><path d="M5.65625-45.59375h5.39063V0H5.65625zm0 0" id="d"/><path d="M33.71875-17.75v2.625H8.9375c.22656 3.71875 1.34375 6.55469 3.34375 8.5 2.00781 1.9375 4.80078 2.90625 8.375 2.90625 2.07031 0 4.07813-.2539 6.01563-.76563 1.9453-.5078 3.8789-1.26953 5.79687-2.28125v5.09375c-1.9375.82422-3.92188 1.44922-5.95313 1.875-2.03124.42579-4.09374.64063-6.1875.64063-5.23046 0-9.375-1.51953-12.4375-4.5625C4.83595-6.76953 3.3125-10.89063 3.3125-16.07813c0-5.375 1.44531-9.64062 4.34375-12.79687 2.90625-3.15625 6.8164-4.73438 11.73438-4.73438 4.41406 0 7.90624 1.42188 10.46874 4.26563C32.4297-26.5 33.71876-22.63281 33.71876-17.75zm-5.39063-1.59375c-.04296-2.94531-.87109-5.29688-2.48437-7.04688-1.60547-1.7578-3.73438-2.64062-6.39063-2.64062-3.01171 0-5.42187.85156-7.23437 2.54688-1.80469 1.69921-2.83984 4.08984-3.10938 7.17187zm0 0" id="e"/><path d="M5.21875-43.73438h5.9375v26.5625c0 4.6875.84766 8.0625 2.54688 10.125 1.70703 2.0625 4.46093 3.09375 8.26562 3.09375 3.78906 0 6.53516-1.03125 8.23438-3.09375 1.6953-2.0625 2.54687-5.4375 2.54687-10.125v-26.5625h5.95313v27.29688c0 5.71094-1.41407 10.01563-4.23438 12.92188-2.82422 2.90625-6.99219 4.35937-12.5 4.35937-5.52344 0-9.69531-1.45313-12.51563-4.35938-2.82421-2.90625-4.23437-7.21093-4.23437-12.92187zm0 0" id="f"/><path d="M11.8125-38.875v16.4375H19.25c2.75 0 4.875-.71094 6.375-2.14063 1.50781-1.42578 2.26563-3.45703 2.26563-6.09374 0-2.61329-.75782-4.63282-2.26563-6.0625C24.125-38.16016 22-38.875 19.25-38.875zm-5.92188-4.85938H19.25c4.90625 0 8.60938 1.10938 11.10938 3.32813 2.5078 2.21094 3.76562 5.45313 3.76562 9.73438 0 4.3125-1.25781 7.57421-3.76563 9.78124-2.5 2.21094-6.20312 3.3125-11.10937 3.3125h-7.4375V0H5.89062zm0 0" id="g"/></defs><use y="50" xlink:href="#a"/><use x="38.086" y="50" xlink:href="#b"/><use x="71.074" y="50" xlink:href="#c"/><use x="107.842" y="50" xlink:href="#d"/><use x="124.512" y="50" xlink:href="#e"/><use x="161.426" y="50" xlink:href="#f"/><use x="205.342" y="50" xlink:href="#g"/></svg>