<svg xmlns="http://www.w3.org/2000/svg" role="img" viewBox="-9.93 -9.93 620.36 183.86"><title>Semios (member) logo</title><defs><style>.cls-3{stroke-width:0;fill:#259dc8}</style></defs><path d="M136.23 63.45l-13.48-.1c.09-12.7-4.78-24.67-13.69-33.71-8.92-9.04-20.82-14.07-33.52-14.15-6.65-.05-13.09 1.25-19.14 3.86-5.84 2.52-11.06 6.14-15.49 10.76l-9.73-9.34c5.68-5.92 12.37-10.56 19.88-13.8C58.83 3.62 67.11 1.95 75.63 2c16.3.11 31.58 6.57 43.03 18.17 11.45 11.61 17.69 26.98 17.58 43.28z" class="cls-3"/><path d="M115.48 63.31l-13.49-.1c.05-7.15-2.69-13.36-7.71-18.45s-11.73-7.44-18.89-7.44h-.18c-7.44 0-14.59 2.58-19.65 8.05l-9.89-9.44c7.61-8.21 18.37-13.04 29.54-13.04.09 0 .18-.07.28-.07 10.75.07 20.84 4.3 28.39 11.96 7.55 7.66 11.67 17.77 11.6 28.52z" class="cls-3"/><path d="M90.23 63.14c-.06 8.3-6.83 14.98-15.13 14.92-8.3-.06-14.98-6.83-14.92-15.13.05-8.3 6.83-14.98 15.13-14.92 8.3.06 14.98 6.83 14.92 15.13z" class="cls-3"/><g stroke-width="0"><path fill="#8dc341" d="M36.28 56.89H2.13v34.22c0 21.26 12.89 42.81 34.15 42.81h28.69v28.57l14.18-14.18v-57.2c0-21.26-21.61-34.22-42.88-34.22zm-13.61 55.2c-4.06-5.54-6.35-13.19-6.35-20.99V71.06h19.97c7.8 0 15.49 2.33 21.02 6.39 5.06 3.71 7.67 8.3 7.67 13.65v17.94c-.96-1.26-2.01-2.49-3.12-3.65-.92-.96-1.9-1.88-2.91-2.72-1.01-.85-2.06-1.62-3.12-2.33-1.07-.7-2.15-1.33-3.23-1.87s-2.15-1.01-3.18-1.39c-2.06-.77-3.97-1.22-5.4-1.44-.36-.06-.68-.11-.97-.13-.14-.02-.28-.03-.4-.05-.13 0-.24-.02-.34-.03-.41-.03-.65-.03-.65-.03l-.17.17s0 .24.03.65c0 .1.02.22.03.34.01.12.03.26.05.4.03.29.08.61.13.97.22 1.43.67 3.34 1.44 5.4.38 1.03.85 2.1 1.39 3.18.54 1.08 1.17 2.16 1.87 3.23.7 1.06 1.48 2.12 2.33 3.12.85 1.01 1.76 1.98 2.72 2.91 1.51 1.45 3.13 2.79 4.8 3.97H36.27c-5.34 0-9.9-2.57-13.61-7.64z"/><path fill="#8bc142" d="M116.17 125.35H96.16c1.67-1.17 3.29-2.51 4.8-3.97.96-.92 1.88-1.9 2.72-2.91.85-1.01 1.62-2.06 2.33-3.12.7-1.07 1.33-2.15 1.87-3.23s1.01-2.15 1.39-3.18c.77-2.06 1.22-3.97 1.44-5.4.05-.36.11-.68.13-.97.02-.14.03-.28.05-.4 0-.13.02-.24.03-.34.03-.41.03-.65.03-.65l-.17-.17s-.24 0-.65.03c-.1 0-.22.02-.34.03-.12.01-.26.03-.4.05-.29.03-.61.08-.97.13-1.43.22-3.34.67-5.4 1.44-1.03.38-2.1.85-3.18 1.39-1.08.54-2.16 1.17-3.23 1.87-1.06.7-2.12 1.48-3.12 2.33-1.01.85-1.98 1.76-2.91 2.72-1.12 1.16-2.16 2.38-3.12 3.65V96.71c0-5.34 2.61-9.93 7.67-13.65 5.54-4.06 13.23-6.39 21.02-6.39h19.97v20.04c0 7.8-2.29 15.45-6.35 20.99-3.72 5.07-8.27 7.64-13.61 7.64z"/></g><path fill="#6e7071" stroke-width="0" d="M236.81 100.97c0 13.43-9.93 20.14-29.8 20.14-7.25 0-13.58-.78-19-2.35l2.28-13.22c5.59 2.01 11.16 3.02 16.71 3.02s9.09-.45 11.18-1.34c2.08-.89 3.12-2.39 3.12-4.5 0-3.27-3.76-6.38-11.28-9.33-6.58-2.59-11.37-5.14-14.37-7.65-4.12-3.49-6.17-7.76-6.17-12.82 0-5.95 2.21-10.74 6.65-14.36 4.43-3.62 10.87-5.44 19.33-5.44 7.92 0 14.14.69 18.66 2.08l-2.28 13.29c-5.06-1.97-10.52-2.95-16.38-2.95-7.16 0-10.74 1.84-10.74 5.5 0 1.88.76 3.39 2.28 4.53 1.52 1.14 4.63 2.58 9.33 4.33 6.49 2.37 11.21 4.81 14.16 7.32 4.21 3.58 6.31 8.17 6.31 13.76zm57.83-40.48c4.61 5.15 6.91 11.84 6.91 20.07 0 2.28-.13 5.26-.4 8.93l-43.23.74c.62 5.06 2.8 9.26 6.51 12.62 3.72 3.36 8.59 5.03 14.63 5.03 6.71 0 13.85-1.01 21.41-3.02l-1.34 13.02c-6.18 2.24-13.83 3.35-22.96 3.35-11.54 0-20.39-3.24-26.55-9.73-6.15-6.49-9.23-14.3-9.23-23.43s2.92-17.8 8.76-24.8 13.95-10.51 24.33-10.51c9.48 0 16.54 2.57 21.14 7.72zm-8.79 19.47c0-10.29-4.39-15.44-13.16-15.44s-13.33 5.33-14.9 15.98l28.06-.54zm124.46-3.83c0-8.64-1.93-14.6-5.81-17.89-3.87-3.29-9.61-4.93-17.21-4.93-6.49 0-13.05 2.64-19.67 7.92h-1.08c-3.72-5.28-10.14-7.92-19.26-7.92-7.3 0-13.85 2.64-19.67 7.92h-1.07l-1.14-7.11L308.21 56c2.19 9.71 3.29 19.8 3.29 30.27 0 8.06-.4 19.06-1.21 33.02h18.06c0-13.96-.11-29.8-.33-47.52 3.22-3.27 7.27-4.9 12.15-4.9 5.28 0 8.76 1.27 10.44 3.83 1.68 2.55 2.52 6.83 2.52 12.82 0 11.59-.49 23.52-1.47 35.78h17.99c-.27-14.81-.4-25.95-.4-33.43 0-4.43.09-9.44.26-15.03 4.03-2.64 7.86-3.96 11.48-3.96 4.52 0 7.81 1.23 9.87 3.69 2.06 2.46 3.09 7.7 3.09 15.71 0 10.7-.47 21.7-1.41 33.02h17.79c-.18-14.81-.27-25.95-.27-33.43 0-.85.04-2.47.14-4.87.09-2.39.13-4.02.13-4.87zm28.28-21.95l-19.33 1.95c1.52 8.95 2.28 19.38 2.28 31.28s-.31 22.62-.94 31.89h18.06c-.63-9.75-.94-20.38-.94-31.89 0-13.47.29-24.54.87-33.23zm-6.77-28.86c-3.76 0-6.68 1.12-8.76 3.36-2.08 2.24-3.12 4.88-3.12 7.92 0 2.78.88 5.15 2.65 7.12 1.77 1.97 4.21 2.95 7.35 2.95 3.72 0 6.61-1.14 8.69-3.42 2.08-2.28 3.12-4.94 3.12-7.99 0-2.73-.86-5.07-2.58-7.01-1.72-1.95-4.17-2.92-7.35-2.92zm71.54 36.01c6.38 5.84 9.56 14.04 9.56 24.6 0 11.28-3.47 20.09-10.4 26.45-6.94 6.36-15.1 9.53-24.5 9.53s-16.63-2.9-23.02-8.69c-6.4-5.8-9.6-13.95-9.6-24.47 0-11.32 3.49-20.18 10.47-26.58 6.98-6.4 15.17-9.6 24.56-9.6 8.91 0 16.55 2.92 22.93 8.76zm-7.95 26.62c0-6.49-1.52-11.94-4.57-16.35-3.04-4.41-7-6.61-11.88-6.61s-8.6 2.06-11.58 6.18c-2.97 4.12-4.46 9.26-4.46 15.44 0 6.49 1.52 11.94 4.57 16.35 3.04 4.41 7 6.61 11.88 6.61s8.6-2.06 11.58-6.18c2.98-4.12 4.46-9.26 4.46-15.44zm63.33-.74c-2.95-2.51-7.67-4.94-14.16-7.32-4.7-1.75-7.81-3.19-9.33-4.33-1.52-1.14-2.28-2.65-2.28-4.53 0-3.67 3.58-5.5 10.74-5.5 5.86 0 11.32.99 16.38 2.95l2.28-13.29c-4.52-1.39-10.74-2.08-18.66-2.08-8.46 0-14.9 1.81-19.33 5.44-4.43 3.62-6.65 8.41-6.65 14.36 0 5.06 2.06 9.33 6.18 12.82 3 2.51 7.79 5.06 14.36 7.65 7.52 2.95 11.28 6.06 11.28 9.33 0 2.1-1.04 3.6-3.12 4.5-2.08.9-5.81 1.34-11.18 1.34s-11.12-1.01-16.71-3.02l-2.28 13.22c5.42 1.57 11.75 2.35 19 2.35 19.87 0 29.8-6.71 29.8-20.14 0-5.59-2.1-10.18-6.31-13.76zm39.83-37.44c0 1.55-.4 3.05-1.19 4.48-.79 1.43-1.9 2.55-3.33 3.34-1.43.79-2.93 1.19-4.49 1.19s-3.06-.4-4.49-1.19c-1.43-.79-2.54-1.91-3.34-3.34-.8-1.43-1.19-2.93-1.19-4.48s.4-3.08 1.21-4.52 1.93-2.56 3.38-3.33c1.44-.78 2.92-1.16 4.43-1.16s2.99.39 4.43 1.16c1.44.78 2.56 1.89 3.37 3.33s1.21 2.95 1.21 4.52zm-1.49 0c0-1.31-.34-2.56-1.01-3.77-.67-1.21-1.61-2.13-2.81-2.78-1.2-.65-2.43-.97-3.69-.97s-2.5.32-3.7.97c-1.2.65-2.14 1.58-2.81 2.78-.68 1.21-1.02 2.46-1.02 3.77s.33 2.54 1 3.73c.66 1.19 1.59 2.12 2.79 2.78 1.2.67 2.44 1 3.74 1s2.54-.33 3.74-1c1.19-.66 2.12-1.59 2.78-2.78.66-1.19.99-2.44.99-3.73zm-4.51 3.08l1.18 1.9h-1.91l-.86-1.53c-.68-1.2-1.22-1.96-1.64-2.26-.29-.22-.71-.33-1.25-.33h-.92v4.12h-1.57v-9.7h3.33c1.14 0 1.96.09 2.47.27s.92.49 1.22.94c.3.45.45.92.45 1.42 0 .71-.25 1.33-.76 1.85s-1.18.82-2.01.88c.34.14.62.31.82.51.39.38.87 1.02 1.43 1.92zm-1.64-3.97c.33-.27.5-.63.5-1.08 0-.29-.08-.54-.24-.77-.16-.23-.38-.4-.66-.51-.28-.11-.81-.17-1.57-.17h-1.78v2.93h1.9c.91 0 1.53-.14 1.86-.41z"/></svg>