<svg xmlns="http://www.w3.org/2000/svg" role="img" viewBox="705.21 432.71 509.08 129.58"><title>Shanghai Yunsilicon Technology Co.,Ltd. (member) logo</title><style>svg {enable-background:new 0 0 1920 1080}</style><style>.st2{fill:#263146}</style><path fill="#2796d4" d="M768.06 449.2h51.59c1.79 0 3.25-1.45 3.25-3.25 0-1.79-1.45-3.25-3.25-3.25h-51.59c-1.79 0-3.25 1.45-3.25 3.25s1.45 3.25 3.25 3.25zm-8.63 103.66h51.59c1.79 0 3.25-1.45 3.25-3.25 0-1.79-1.45-3.25-3.25-3.25h-51.59c-1.79 0-3.25 1.45-3.25 3.25s1.45 3.25 3.25 3.25zm-22.81-77.74h51.59c1.79 0 3.25-1.45 3.25-3.25 0-1.79-1.45-3.25-3.25-3.25h-51.59c-1.79 0-3.25 1.45-3.25 3.25 0 1.79 1.45 3.25 3.25 3.25zm51.77 51.83h51.59c1.79 0 3.25-1.45 3.25-3.25 0-1.79-1.45-3.25-3.25-3.25h-51.59c-1.79 0-3.25 1.45-3.25 3.25 0 1.79 1.46 3.25 3.25 3.25zm-33.18-64.79h35.11c1.79 0 3.25-1.45 3.25-3.25 0-1.79-1.45-3.25-3.25-3.25h-35.11c-1.79 0-3.25 1.45-3.25 3.25 0 1.79 1.46 3.25 3.25 3.25zm31.5 77.75h35.11c1.79 0 3.25-1.45 3.25-3.25 0-1.79-1.45-3.25-3.25-3.25h-35.11c-1.79 0-3.25 1.45-3.25 3.25 0 1.79 1.46 3.25 3.25 3.25zm-27.28-51.84h45.75c1.79 0 3.25-1.45 3.25-3.25 0-1.79-1.45-3.25-3.25-3.25h-45.75c-1.79 0-3.25 1.45-3.25 3.25s1.45 3.25 3.25 3.25zm13.81 25.92h45.75c1.79 0 3.25-1.45 3.25-3.25s-1.45-3.25-3.25-3.25h-45.75c-1.79 0-3.25 1.45-3.25 3.25s1.45 3.25 3.25 3.25zm-24.45-12.96h78.71c1.79 0 3.25-1.45 3.25-3.25s-1.45-3.25-3.25-3.25h-78.71c-1.79 0-3.25 1.45-3.25 3.25s1.46 3.25 3.25 3.25zm79.83-51.41c1.79 0 3.25-1.45 3.25-3.25 0-1.79-1.45-3.25-3.25-3.25-1.79 0-3.25 1.45-3.25 3.25.01 1.8 1.46 3.25 3.25 3.25zm-29.26 12.54c1.79 0 3.25-1.45 3.25-3.25 0-1.79-1.45-3.25-3.25-3.25-1.79 0-3.25 1.45-3.25 3.25 0 1.79 1.46 3.25 3.25 3.25zm29.26 51.72c1.79 0 3.25-1.45 3.25-3.25 0-1.79-1.45-3.25-3.25-3.25-1.79 0-3.25 1.45-3.25 3.25.01 1.8 1.46 3.25 3.25 3.25zm21.3 13.07c1.79 0 3.25-1.45 3.25-3.25 0-1.79-1.45-3.25-3.25-3.25-1.79 0-3.25 1.45-3.25 3.25 0 1.79 1.46 3.25 3.25 3.25z"/><path fill="#0f71b6" d="M759.87 449.2h51.59c1.79 0 3.25-1.45 3.25-3.25 0-1.79-1.45-3.25-3.25-3.25h-51.59c-1.79 0-3.25 1.45-3.25 3.25.01 1.8 1.46 3.25 3.25 3.25zm-8.62 103.66h51.59c1.79 0 3.25-1.45 3.25-3.25 0-1.79-1.45-3.25-3.25-3.25h-51.59c-1.79 0-3.25 1.45-3.25 3.25s1.45 3.25 3.25 3.25zm-22.82-77.74h51.59c1.79 0 3.25-1.45 3.25-3.25 0-1.79-1.45-3.25-3.25-3.25h-51.59c-1.79 0-3.25 1.45-3.25 3.25 0 1.79 1.46 3.25 3.25 3.25zm51.78 51.83h51.59c1.79 0 3.25-1.45 3.25-3.25 0-1.79-1.45-3.25-3.25-3.25h-51.59c-1.79 0-3.25 1.45-3.25 3.25 0 1.79 1.46 3.25 3.25 3.25zm-33.18-64.79h35.11c1.79 0 3.25-1.45 3.25-3.25 0-1.79-1.45-3.25-3.25-3.25h-35.11c-1.79 0-3.25 1.45-3.25 3.25 0 1.79 1.46 3.25 3.25 3.25zm31.5 77.75h35.11c1.79 0 3.25-1.45 3.25-3.25 0-1.79-1.45-3.25-3.25-3.25h-35.11c-1.79 0-3.25 1.45-3.25 3.25 0 1.79 1.46 3.25 3.25 3.25zm-27.28-51.84H797c1.79 0 3.25-1.45 3.25-3.25 0-1.79-1.45-3.25-3.25-3.25h-45.75c-1.79 0-3.25 1.45-3.25 3.25s1.45 3.25 3.25 3.25zm13.81 25.92h45.75c1.79 0 3.25-1.45 3.25-3.25s-1.45-3.25-3.25-3.25h-45.75c-1.79 0-3.25 1.45-3.25 3.25s1.45 3.25 3.25 3.25zm-24.45-12.96h78.71c1.79 0 3.25-1.45 3.25-3.25s-1.45-3.25-3.25-3.25h-78.71c-1.79 0-3.25 1.45-3.25 3.25s1.46 3.25 3.25 3.25zm1.78-12.96c1.79 0 3.25-1.45 3.25-3.25 0-1.79-1.45-3.25-3.25-3.25-1.79 0-3.25 1.45-3.25 3.25s1.46 3.25 3.25 3.25zm-23.72-12.95c1.79 0 3.25-1.45 3.25-3.25 0-1.79-1.45-3.25-3.25-3.25s-3.25 1.45-3.25 3.25c0 1.79 1.46 3.25 3.25 3.25zm50.76 64.79c1.79 0 3.25-1.45 3.25-3.25 0-1.79-1.45-3.25-3.25-3.25-1.79 0-3.25 1.45-3.25 3.25 0 1.79 1.46 3.25 3.25 3.25zm-27.04 13.06c1.79 0 3.25-1.45 3.25-3.25 0-1.79-1.45-3.25-3.25-3.25-1.79 0-3.25 1.45-3.25 3.25s1.46 3.25 3.25 3.25z"/><g><path d="M890.86 509.87c-.93.05-1.71-.1-2.34-.45-.63-.35-1.12-.83-1.47-1.43-.35-.61-.55-1.3-.59-2.1-.05-.79.05-1.61.28-2.45l7.55-32.47h-9.57v-3.91h62.74v3.91h-42.13l-7.76 33.1c-.09.37-.07.69.07.94.14.26.4.36.77.31H936l-5.38-22.99h11.04l7.2 27.53h-58zm54.15-59.95h-57.78v-3.91h57.78v3.91zm43.74-5.02c1.21 0 2.22.41 3.04 1.22.81.81 1.22 1.83 1.22 3.04v56.38c0 1.21-.41 2.22-1.22 3.04-.82.81-1.83 1.22-3.04 1.22h-6.36l-2.1-3.91h2.24c.28 0 .52-.1.73-.32.21-.21.31-.45.31-.73v-19.42h-3.49v15.37c0 .93-.23 1.77-.7 2.51-.47.74-1.09 1.35-1.89 1.82l-8.94 4.89v-4.05l1.19-.63c.28-.14.5-.36.66-.66.16-.3.24-.62.24-.94v-54.57c0-1.21.41-2.22 1.22-3.04.81-.81 1.83-1.22 3.04-1.22h13.85zm-7.62 3.91c-.28 0-.52.1-.73.31-.21.21-.31.45-.31.73v13.35h3.49v-13.35c0-.28-.1-.52-.31-.73-.21-.21-.45-.31-.73-.31h-1.41zm2.45 32.7v-14.39h-3.49v14.39h3.49zm22.08 14.74c-.14 1.03-.42 1.98-.84 2.86-.42.88-1.03 1.65-1.82 2.31l-8.87 8.24v-4.68l1.68-1.89c.19-.23.34-.47.45-.7.12-.23.22-.54.31-.91l3.56-26.83c.05-.37-.03-.69-.24-.94-.21-.26-.5-.38-.87-.38h-4.54v-3.91h9.71c1.49 0 2.65.51 3.49 1.54.84 1.02 1.16 2.28.98 3.77l-3 21.52zm10.06-38.49c1.21 0 2.22.41 3.04 1.22.81.82 1.22 1.83 1.22 3.04v42.83c0 1.21-.41 2.22-1.22 3.04-.81.81-1.83 1.22-3.04 1.22h-10.55l-2.1-3.91h5.31c.28 0 .52-.1.73-.31.21-.21.31-.45.31-.73v-41.43c0-.28-.1-.52-.31-.73-.21-.21-.46-.31-.73-.31h-12.16v-3.91h19.5zm16.28-5.8l-33.96-1.33v-3.91l33.96 1.4v3.84zm2.09 51.35v4.68l-9.36-8.73c-.79-.7-1.42-1.49-1.89-2.38-.47-.88-.75-1.86-.84-2.93l-1.4-16.28h8.38l2.1 21.66c.05.56.3 1.09.77 1.61l2.24 2.37zm-8.87-45.55h8.59l-4.54 16.21h-8.59l4.54-16.21zm28.72-7.18h65.54v3.91h-65.54z" class="st2"/><path d="M1057.06 466.21h10.76v43.67h-10.76zm48.77 0h10.76v43.67h-10.76z" class="st2"/><path d="M1083.25 504.92c0 .28.1.52.31.73.21.21.46.32.73.32h14.86l2.28 3.91h-24.97c-1.21 0-2.23-.41-3.04-1.22-.82-.82-1.22-1.83-1.22-3.04v-39.41h11.04v38.71z" class="st2"/><path d="M1088.47 466.21h10.69v37.52h-10.69z" class="st2"/><path d="M1166.85 493.67l2.59-.35v3.98l-2.59.35v12.23h-10.34v-10.76l-17.47 2.38v-3.91l2.59-.35V449.1h-2.24v-3.91h29.69v3.91h-2.24v44.57zm-14.89-44.58v12.86h4.54v-12.86h-4.54zm0 29.63h4.54v-12.86h-4.54v12.86zm4.55 16.49v-12.58h-4.54v13.21l4.54-.63zm48.07 10.97v3.91l-9.85-1.61c-.93-.14-1.81-.48-2.62-1.02-.82-.54-1.32-1.23-1.5-2.07l-2.66-11.43-3.56 11.87c-.23.7-.71 1.27-1.43 1.71-.72.44-1.48.73-2.27.87l-10.27 1.68v-3.91l2.24-.42c.23-.05.48-.14.73-.28.26-.14.43-.33.52-.56l6.92-23.96h-10.41v-3.91h11.04v-17.68h-10.34v-3.91h3.77l-3-10.9h10.34l3 10.9h3.56l3-10.9h10.34l-3 10.9h3.98v3.91h-10.62v17.68h11.32v3.91h-12.02l-1.26 4.33h6.36l4.47 19.56c.09.28.28.49.56.63s.56.26.84.35l1.82.35z" class="st2"/><g><path d="M1108.71 442.72h-10.29l-4.33 19.64h10.29zm-44.01 0h10.29l4.34 19.64h-10.29z" class="st2"/></g><g><path d="M884.84 527.62h3.64l6.19 12.71 6.19-12.71h3.64l-8.17 15.62v9.47h-3.28v-9.47l-8.21-15.62zm35.1 0h3.28v15.87c0 4.61 2.48 6.59 6.19 6.59 3.71 0 6.16-1.98 6.16-6.59v-15.87h3.28v15.84c0 6.52-4.28 9.5-9.47 9.5-5.18 0-9.43-2.99-9.43-9.5v-15.84zm56.16-.04v25.12h-3.28l-13.17-19.98v19.98h-3.28v-25.12h3.28l13.17 19.94v-19.94h3.28zm26.24 25.38c-5.44 0-9.68-2.7-9.86-7.81h6.55c.18 1.94 1.4 2.88 3.13 2.88 1.8 0 2.95-.9 2.95-2.38 0-4.68-12.63-2.16-12.56-11.12 0-4.79 3.92-7.45 9.21-7.45 5.51 0 9.21 2.74 9.47 7.56h-6.66c-.11-1.62-1.26-2.59-2.92-2.63-1.48-.04-2.59.72-2.59 2.3 0 4.39 12.49 2.41 12.49 10.87.01 4.25-3.3 7.78-9.21 7.78zm25.06-25.52h6.16v25.27h-6.16v-25.27zm28.84 0v20.52h8.06v4.75h-14.22v-25.27h6.16zm23.07 0h6.16v25.27h-6.16v-25.27zm34.35-.29c6.01 0 10.55 3.38 11.99 8.85h-6.77c-1.04-2.16-2.95-3.24-5.29-3.24-3.78 0-6.37 2.81-6.37 7.27 0 4.46 2.59 7.27 6.37 7.27 2.34 0 4.25-1.08 5.29-3.24h6.77c-1.44 5.47-5.98 8.82-11.99 8.82-7.45 0-12.71-5.29-12.71-12.85 0-7.55 5.25-12.88 12.71-12.88zm39.77 25.81c-7.16 0-13-5.36-13-12.96 0-7.6 5.83-12.92 13-12.92 7.2 0 12.92 5.33 12.92 12.92.01 7.6-5.75 12.96-12.92 12.96zm0-5.62c4.03 0 6.66-2.92 6.66-7.34 0-4.5-2.63-7.34-6.66-7.34-4.1 0-6.7 2.84-6.7 7.34.01 4.43 2.6 7.34 6.7 7.34zm51.02-19.9v25.27h-6.16L1188 537.12v15.59h-6.16v-25.27h6.16l10.29 15.66v-15.66h6.16z" class="st2"/></g></g></svg>