<svg xmlns="http://www.w3.org/2000/svg" role="img" viewBox="-2.68 -1.68 139.23 31.23"><title>Shenzhen Goodix Technology Co.,Ltd. logo</title><path fill="#2c5289" d="M82 1h1v1h-1z"/><path fill="#3e5d8d" d="M40 4h1v1h-1z"/><path fill="#314e78" d="M41 16h1v1h-1z"/><path fill="#163f7b" d="M88 23h1v1h-1z"/><path fill="#5678a7" d="M112 18h1v1h-1z"/><path fill="#5875a4" d="M92 19h1v1h-1z"/><path fill="#b72c24" d="M95 26h1v1h-1z"/><path d="M100 10h1v1h-1zm-1 5h1v1h-1z" fill="#bb251e"/><path fill="#244c88" d="M6 21h1v1H6z"/><path fill="#889ec3" d="M44 7h1v1h-1z"/><path fill="#5779aa" d="M62 19h1v1h-1z"/><path fill="#395989" d="M79 1h1v1h-1z"/><path fill="#164281" d="M45 3h1v1h-1z"/><path fill="#1d4784" d="M7 4h1v1H7z"/><path fill="#365a8c" d="M48 26h1v1h-1z"/><path d="M79 2h1v1h-1zM33 5h1v1h-1z" fill="#103f81"/><path fill="#cb6763" d="M98 7h1v1h-1z"/><path fill="#1e4a89" d="M128 25h1v1h-1z"/><path d="M57 1h1v1h-1zm37 12h1v1h-1zM4 14h1v1H4zm17 4h1v1h-1zm105 5h1v1h-1zm-75 3h1v1h-1zm3 0h1v1h-1z" fill="#184483"/><path d="M13 3h1v1h-1zm48 0h1v1h-1zM48 5h1v1h-1zm3 5h1v1h-1zm23 0h1v1h-1zm-44 7h1v1h-1zm91 2h1v1h-1zM9 25h1v1H9z" fill="#103d80"/><path fill="#2b5591" d="M46 6h1v1h-1z"/><path fill="#295186" d="M77 26h1v1h-1z"/><path d="M77 8h1v1h-1zm-1 6h1v1h-1z" fill="#194684"/><path fill="#2f548b" d="M60 21h1v1h-1z"/><path fill="#55719b" d="M126 3h1v1h-1z"/><path d="M80 4h1v1h-1zm-31 8h1v1h-1z" fill="#264f88"/><path d="M47 6h1v1h-1zm17 12h1v1h-1zm27 0h1v1h-1zm-63 2h1v1h-1zm21 0h1v1h-1z" fill="#0c3a7d"/><path fill="#244b84" d="M44 25h1v1h-1z"/><path fill="#355689" d="M17 4h1v1h-1z"/><path d="M22 5h1v1h-1zm35 18h1v1h-1z" fill="#204984"/><path fill="#c03d3a" d="M101 15h1v1h-1z"/><path fill="#4d6c9a" d="M26 15h1v1h-1z"/><path fill="#667fa7" d="M71 17h1v1h-1z"/><path fill="#5f7daa" d="M124 17h1v1h-1z"/><path fill="#6989b0" d="M110 20h1v1h-1z"/><path fill="#b9231b" d="M96 24h1v1h-1z"/><path d="M7 8h1v1H7zm62 3h1v1h-1z" fill="#1a4584"/><path d="M53 11h1v1h-1zM4 12h1v1H4zm49 0h1v1h-1zm38 7h1v1h-1zm-17 2h1v1h-1zm14 1h1v1h-1z" fill="#0d3c7e"/><path fill="#466e9e" d="M95 12h1v1h-1z"/><path fill="#2a518b" d="M19 4h1v1h-1z"/><path fill="#647a9c" d="M78 9h1v1h-1z"/><path fill="#bc413d" d="M99 25h1v1h-1z"/><path fill="#244c85" d="M79 5h1v1h-1z"/><path fill="#35598e" d="M77 11h1v1h-1z"/><path fill="#1d4885" d="M0 15h1v1H0z"/><path fill="#426496" d="M88 18h1v1h-1z"/><path d="M35 23h1v1h-1zm5 3h1v1h-1z" fill="#204985"/><path fill="#385b8f" d="M7 26h1v1H7z"/><path fill="#45628d" d="M21 5h1v1h-1z"/><path fill="#5c75a6" d="M64 9h1v1h-1z"/><path fill="#506e9a" d="M53 16h1v1h-1z"/><path d="M53 5h1v1h-1zm-4 9h1v1h-1z" fill="#3f6293"/><path fill="#57749d" d="M73 7h1v1h-1z"/><path fill="#325892" d="M124 10h1v1h-1z"/><path d="M12 2h1v1h-1zm8 2h1v1h-1zm59 0h1v1h-1z" fill="#1f4884"/><path fill="#375889" d="M8 3h1v1H8z"/><path fill="#3f6095" d="M24 4h1v1h-1z"/><path fill="#748db9" d="M6 20h1v1H6z"/><path fill="#3b5f95" d="M120 20h1v1h-1z"/><path fill="#526e94" d="M130 25h1v1h-1z"/><path fill="#2d528a" d="M57 26h1v1h-1z"/><path fill="#3a5a8c" d="M10 6h1v1h-1z"/><path fill="#486895" d="M41 15h1v1h-1z"/><path fill="#7991b8" d="M53 17h1v1h-1z"/><path d="M69 9h1v1h-1zm-26 2h1v1h-1z" fill="#1a4585"/><path d="M42 1h1v1h-1zM4 18h1v1H4z" fill="#194583"/><path fill="#6682a9" d="M3 7h1v1H3z"/><path fill="#5674a2" d="M122 7h1v1h-1z"/><path fill="#26508a" d="M88 19h1v1h-1z"/><path fill="#103f7f" d="M75 24h1v1h-1z"/><path fill="#416190" d="M31 26h1v1h-1z"/><path fill="#687d96" d="M112 6h1v1h-1z"/><path fill="#5978a1" d="M1 10h1v1H1z"/><path fill="#355b92" d="M51 19h1v1h-1z"/><path d="M64 6h1v1h-1zM20 23h1v1h-1zM6 25h1v1H6z" fill="#154181"/><path fill="#274e89" d="M89 17h1v1h-1z"/><path fill="#234d87" d="M9 26h1v1H9z"/><path fill="#516f9c" d="M71 18h1v1h-1z"/><path fill="#46658f" d="M59 21h1v1h-1z"/><path fill="#2e5385" d="M34 22h1v1h-1z"/><path d="M56 2h1v1h-1zm19 3h1v1h-1zm-7 2h1v1h-1zm-40 5h1v1h-1zm89 0h1v1h-1zm-99 2h1v1h-1zm49 2h1v1h-1zm51 0h1v1h-1zm6 4h1v1h-1zm-52 1h1v1h-1z" fill="#0d3c7f"/><path fill="#bd3731" d="M99 10h1v1h-1z"/><path fill="#3a5f91" d="M17 18h1v1h-1z"/><path fill="#cc6e6e" d="M100 3h1v1h-1z"/><path fill="#3c5b8a" d="M23 6h1v1h-1z"/><path fill="#315892" d="M113 22h1v1h-1z"/><path fill="#748eb9" d="M113 23h1v1h-1z"/><path fill="#2c5288" d="M86 25h1v1h-1z"/><path fill="#406092" d="M85 26h1v1h-1z"/><path d="M15 1h1v1h-1zm49 0h1v1h-1z" fill="#2c5187"/><path d="M15 2h1v1h-1zm68 0h1v1h-1zM14 3h1v1h-1zm5 0h1v1h-1zm45 0h1v1h-1zm15 0h1v1h-1zM4 13h1v1H4zm14 8h1v1h-1zm94 0h1v1h-1zM9 24h1v1H9zm32 0h1v1h-1zm10 0h1v1h-1zm1 0h1v1h-1zM8 25h1v1H8zm49 0h1v1h-1zm24 0h1v1h-1z" fill="#0f3e80"/><path fill="#0e3e80" d="M40 2h1v1h-1z"/><path fill="#1c4584" d="M42 17h1v1h-1z"/><path fill="#4a699a" d="M69 25h1v1h-1z"/><path d="M10 26h1v1h-1zm98 0h1v1h-1z" fill="#194685"/><path d="M16 2h1v1h-1zm29 0h1v1h-1zm37 0h1v1h-1zm46 0h1v1h-1zM15 3h1v1h-1zm3 0h1v1h-1zm16 1h1v1h-1zm82 0h1v1h-1zM64 5h1v1h-1zm52 0h1v1h-1zm11 1h1v1h-1zM7 7h1v1H7zm58 0h1v1h-1zM45 9h1v1h-1zM3 10h1v1H3zm73 0h1v1h-1zm-47 1h1v1h-1zm14 2h1v1h-1zm-15 1h1v1h-1zm15 0h1v1h-1zm7 0h1v1h-1zm-29 1h1v1h-1zm96 0h1v1h-1zm-1 2h1v1h-1zm4 0h1v1h-1zm-45 1h1v1h-1zm-55 1h1v1h-1zm11 0h1v1h-1zm12 1h1v1h-1zm31 0h1v1h-1zm-12 1h1v1h-1zm-14 1h1v1h-1zm38 0h1v1h-1zm-12 1h1v1h-1zm-19 1h1v1h-1zm4 0h1v1h-1zm12 0h1v1h-1zm-55 1h1v1h-1zm3 0h1v1h-1z" fill="#0f3d7f"/><path d="M76 3h1v1h-1zm53 0h1v1h-1zM65 4h1v1h-1zM47 7h1v1h-1zm2 1h1v1h-1zm70 3h1v1h-1zm-98 3h1v1h-1zm44 0h1v1h-1zm2 1h1v1h-1zM1 16h1v1H1zm42 0h1v1h-1zm-23 1h1v1h-1zm30 0h1v1h-1zM2 20h1v1H2zm17 2h1v1h-1zm-1 1h1v1h-1zm42 0h1v1h-1zm-2 1h1v1h-1zm0 1h1v1h-1z" fill="#124081"/><path fill="#6b88ad" d="M8 8h1v1H8z"/><path fill="#164280" d="M60 3h1v1h-1z"/><path fill="#325a93" d="M123 7h1v1h-1z"/><path fill="#1b3c68" d="M22 13h1v1h-1z"/><path fill="#396197" d="M125 9h1v1h-1z"/><path fill="#526f96" d="M115 11h1v1h-1z"/><path d="M78 2h1v1h-1zM50 3h1v1h-1zm78 0h1v1h-1zM10 5h1v1h-1zm82 0h1v1h-1zm35 0h1v1h-1zM75 8h1v1h-1zm-9 1h2v1h-2zm2 0h1v1h-1zm23 1h1v1h-1zm0 1h1v1h-1zm-40 2h1v1h-1zM3 14h1v1H3zm115 0h2v1h-2zm2 0h1v1h-1zm-47 1h1v1h-1zm18 0h1v1h-1zm26 1h1v1h-1zM3 17h1v1H3zm40 0h1v1h-1zM3 18h1v1H3zm87 0h1v1h-1zm-18 1h1v1h-1zm41 1h1v1h-1zm-84 1h1v1h-1zm15 0h1v1h-1zm78 0h1v1h-1zM18 22h1v1h-1zm54 0h1v1h-1zm-29 2h1v1h-1zm-8 1h1v1h-1z" fill="#113f80"/><path fill="#819cc5" d="M123 6h1v1h-1z"/><path d="M74 8h1v1h-1zm-27 3h1v1h-1z" fill="#174383"/><path fill="#234c88" d="M71 21h1v1h-1z"/><path fill="#bb2a22" d="M99 21h1v1h-1z"/><path fill="#44618f" d="M69 26h1v1h-1z"/><path fill="#385e93" d="M92 3h1v1h-1z"/><path fill="#194482" d="M47 5h1v1h-1z"/><path fill="#476a99" d="M128 7h1v1h-1z"/><path d="M68 6h1v1h-1zM53 7h1v1h-1zm41 1h1v1h-1zM47 9h1v1h-1zm76 0h1v1h-1zm-29 2h1v1h-1zm-64 3h1v1h-1zm-12 1h1v1h-1zm25 3h1v1h-1zm73 0h1v1h-1zm-68 3h1v1h-1zM3 22h1v1H3zm108 0h1v1h-1zm-2 1h1v1h-1zm-36 2h1v1h-1z" fill="#103d7f"/><path fill="#6f88af" d="M95 6h1v1h-1z"/><path fill="#486a98" d="M55 9h1v1h-1z"/><path d="M54 13h1v1h-1zm22 7h1v1h-1z" fill="#436696"/><path fill="#224c87" d="M16 26h1v1h-1z"/><path fill="#355b93" d="M30 7h1v1h-1z"/><path fill="#5774a2" d="M89 14h1v1h-1z"/><path fill="#5978a4" d="M1 22h1v1H1z"/><path d="M126 5h1v1h-1zM31 7h1v1h-1zm-2 3h1v1h-1zm15 0h1v1h-1zm49 5h1v1h-1zm29 7h1v1h-1zM3 23h1v1H3z" fill="#0b3a7d"/><path fill="#607ca6" d="M72 13h1v1h-1z"/><path fill="#3c5c8e" d="M24 1h1v1h-1z"/><path fill="#54729c" d="M108 1h1v1h-1z"/><path fill="#173f79" d="M114 1h1v1h-1z"/><path d="M77 9h1v1h-1zm46 8h1v1h-1z" fill="#234c86"/><path fill="#7386a2" d="M16 13h1v1h-1z"/><path fill="#88a5cb" d="M127 8h1v1h-1z"/><path fill="#50709c" d="M50 21h1v1h-1z"/><path fill="#234d80" d="M77 23h1v1h-1z"/><path fill="#2f588f" d="M74 2h1v1h-1z"/><path fill="#103c7e" d="M128 5h1v1h-1z"/><path d="M102 8h1v1h-1zm-3 4h1v1h-1z" fill="#bb2923"/><path fill="#446293" d="M74 1h1v1h-1z"/><path fill="#51709c" d="M24 6h1v1h-1z"/><path fill="#28528d" d="M94 14h1v1h-1z"/><path fill="#3b5b8d" d="M42 26h1v1h-1z"/><path d="M93 4h1v1h-1zM32 20h1v1h-1z" fill="#2d548c"/><path fill="#244d8b" d="M114 17h1v1h-1z"/><path fill="#33558d" d="M80 23h1v1h-1z"/><path fill="#1f4984" d="M61 1h1v1h-1z"/><path fill="#4d6b99" d="M32 15h1v1h-1z"/><path fill="#1b4686" d="M69 10h1v1h-1z"/><path fill="#3c6094" d="M17 16h1v1h-1z"/><path fill="#30558a" d="M132 3h1v1h-1z"/><path fill="#c45352" d="M96 21h1v1h-1z"/><path fill="#91aace" d="M115 21h1v1h-1z"/><path fill="#254a7f" d="M61 20h1v1h-1z"/><path fill="#bc2d26" d="M100 17h1v1h-1z"/><path d="M41 2h1v1h-1zM11 3h1v1h-1zm41 2h1v1h-1zM8 6h1v1H8zM6 8h1v1H6zm70 3h1v1h-1zm44 0h1v1h-1zM1 13h1v1H1zm51 1h1v1h-1zm16 0h1v1h-1zm-3 1h1v1h-1zm25 1h1v1h-1zm-15 1h1v1h-1zm-32 2h1v1h-1zm-23 1h1v1h-1zm16 4h1v1h-1zm49 0h1v1h-1zm-8 1h1v1h-1z" fill="#0e3c7f"/><path fill="#c95f5e" d="M98 11h1v1h-1z"/><path fill="#5d7ca7" d="M68 17h1v1h-1z"/><path fill="#365e96" d="M84 4h1v1h-1z"/><path fill="#2b518b" d="M69 13h1v1h-1z"/><path fill="#28508a" d="M112 23h1v1h-1z"/><path fill="#46679b" d="M5 13h1v1H5z"/><path fill="#345b95" d="M64 22h1v1h-1z"/><path d="M101 1h1v1h-1zm-1 8h1v1h-1z" fill="#bb231c"/><path fill="#32568d" d="M74 5h1v1h-1z"/><path fill="#2e5388" d="M114 8h1v1h-1z"/><path fill="#446692" d="M38 5h1v1h-1z"/><path fill="#476592" d="M83 26h1v1h-1z"/><path fill="#0d3a7e" d="M53 8h1v1h-1z"/><path d="M30 9h1v1h-1zM4 20h1v1H4z" fill="#0f3c7e"/><path d="M77 10h1v1h-1zm46 15h1v1h-1z" fill="#29518b"/><path fill="#436391" d="M41 17h1v1h-1z"/><path fill="#284c80" d="M88 24h1v1h-1z"/><path fill="#bd3631" d="M101 4h1v1h-1z"/><path fill="#2f5488" d="M22 6h1v1h-1z"/><path fill="#123e81" d="M91 7h1v1h-1z"/><path fill="#42679f" d="M5 19h1v1H5z"/><path fill="#627da0" d="M0 21h1v1H0z"/><path fill="#36598f" d="M59 26h1v1h-1z"/><path fill="#2e538d" d="M81 26h1v1h-1z"/><path d="M48 9h1v1h-1zm-20 2h1v1h-1zm44 7h1v1h-1zm-55 4h1v1h-1z" fill="#1c4785"/><path fill="#154384" d="M2 10h1v1H2z"/><path fill="#446393" d="M123 16h1v1h-1z"/><path fill="#3c6096" d="M72 15h1v1h-1z"/><path fill="#c56865" d="M97 15h1v1h-1z"/><path fill="#bb2c25" d="M101 8h1v1h-1z"/><path fill="#09377a" d="M123 10h1v1h-1z"/><path fill="#8da5cc" d="M116 20h1v1h-1z"/><path fill="#b84b48" d="M99 26h1v1h-1z"/><path fill="#c3554f" d="M101 5h1v1h-1z"/><path fill="#c75e5d" d="M102 14h1v1h-1z"/><path fill="#5a7aa5" d="M111 19h1v1h-1z"/><path fill="#5572a0" d="M63 17h1v1h-1z"/><path fill="#27508a" d="M75 21h1v1h-1z"/><path fill="#38598e" d="M36 23h1v1h-1z"/><path fill="#456798" d="M63 6h1v1h-1z"/><path fill="#31568c" d="M27 13h1v1h-1z"/><path fill="#688ab3" d="M116 14h1v1h-1z"/><path d="M90 13h1v1h-1zm-59 2h1v1h-1zm45 0h1v1h-1z" fill="#234c87"/><path fill="#2e548a" d="M52 23h1v1h-1z"/><path fill="#0b3a7f" d="M15 25h1v1h-1z"/><path fill="#254d87" d="M40 1h1v1h-1z"/><path fill="#7691bb" d="M1 9h1v1H1z"/><path fill="#5e7ba6" d="M6 11h1v1H6z"/><path fill="#5272a2" d="M70 10h1v1h-1z"/><path fill="#0b3b7d" d="M125 22h1v1h-1z"/><path fill="#bb2922" d="M97 24h1v1h-1z"/><path d="M86 1h1v1h-1zM74 26h1v1h-1z" fill="#1f4a88"/><path fill="#09387b" d="M91 3h1v1h-1z"/><path fill="#09397d" d="M66 4h1v1h-1z"/><path fill="#123e80" d="M94 12h1v1h-1z"/><path fill="#567199" d="M86 20h1v1h-1z"/><path fill="#bc241d" d="M96 25h1v1h-1z"/><path fill="#2c5284" d="M15 26h1v1h-1z"/><path fill="#3a5f99" d="M2 9h1v1H2z"/><path fill="#103e7e" d="M122 9h1v1h-1z"/><path fill="#2f5f99" d="M95 11h1v1h-1z"/><path fill="#113f7f" d="M4 24h1v1H4z"/><path fill="#b93c36" d="M101 7h1v1h-1z"/><path fill="#416498" d="M89 16h1v1h-1z"/><path fill="#c04946" d="M101 16h1v1h-1z"/><path fill="#2e538a" d="M56 23h1v1h-1z"/><path fill="#284f88" d="M73 26h1v1h-1z"/><path d="M22 1h1v1h-1zm20 3h1v1h-1z" fill="#295189"/><path fill="#cf5e5f" d="M105 1h1v1h-1z"/><path fill="#8fa6c3" d="M66 21h1v1h-1z"/><path fill="#637eaa" d="M112 24h1v1h-1z"/><path fill="#244d87" d="M19 26h1v1h-1z"/><path fill="#355687" d="M54 1h1v1h-1z"/><path fill="#113e7f" d="M90 7h1v1h-1z"/><path fill="#5176a7" d="M121 9h1v1h-1z"/><path fill="#ba241c" d="M97 21h1v1h-1z"/><path fill="#c8625d" d="M100 22h1v1h-1z"/><path fill="#35588b" d="M36 2h1v1h-1z"/><path fill="#234980" d="M130 4h1v1h-1z"/><path fill="#506f99" d="M47 17h1v1h-1z"/><path fill="#51739f" d="M35 7h1v1h-1z"/><path d="M3 24h1v1H3zm79 2h1v1h-1z" fill="#35588c"/><path fill="#3c5e90" d="M13 1h1v1h-1z"/><path d="M21 2h1v1h-1zm63 0h2v1h-2zm2 0h1v1h-1zm3 0h1v1h-1zM35 6h1v1h-1zm56 2h1v1h-1zM6 9h1v1H6zm60 3h2v1h-2zm2 0h1v1h-1zm23 2h1v1h-1zm-61 2h1v1h-1zm-2 3h1v1h-1zm21 6h1v1h-1z" fill="#103e7f"/><path fill="#0f3c80" d="M36 5h1v1h-1z"/><path fill="#244d89" d="M31 6h1v1h-1z"/><path fill="#5c78a3" d="M48 11h1v1h-1z"/><path fill="#ce7c79" d="M103 11h1v1h-1z"/><path fill="#829dbc" d="M113 17h1v1h-1z"/><path fill="#395e94" d="M129 25h1v1h-1z"/><path fill="#516c93" d="M111 4h1v1h-1z"/><path fill="#849ebe" d="M125 4h1v1h-1z"/><path fill="#154180" d="M117 14h1v1h-1z"/><path fill="#4f72a7" d="M124 18h1v1h-1z"/><path fill="#1b4783" d="M124 19h1v1h-1z"/><path fill="#1f4b89" d="M84 1h1v1h-1z"/><path fill="#32578f" d="M24 3h1v1h-1z"/><path fill="#274e8b" d="M74 6h1v1h-1z"/><path fill="#44669b" d="M33 21h1v1h-1z"/><path d="M63 1h1v1h-1zM34 3h1v1h-1z" fill="#39598b"/><path fill="#325387" d="M14 5h1v1h-1z"/><path fill="#51719e" d="M54 7h1v1h-1z"/><path fill="#194582" d="M7 22h1v1H7z"/><path d="M36 6h1v1h-1zm36 10h1v1h-1z" fill="#34588f"/><path fill="#325891" d="M45 7h1v1h-1z"/><path fill="#5f7ba3" d="M33 20h1v1h-1z"/><path fill="#798fb7" d="M34 9h1v1h-1z"/><path fill="#2e558d" d="M75 1h1v1h-1z"/><path d="M35 3h1v1h-1zm21 0h1v1h-1zm60 0h1v1h-1zM39 26h1v1h-1z" fill="#1a4583"/><path fill="#385c90" d="M68 5h1v1h-1z"/><path fill="#466799" d="M76 21h1v1h-1z"/><path fill="#7592ac" d="M21 26h1v1h-1z"/><path fill="#ba332c" d="M103 7h1v1h-1z"/><path fill="#234370" d="M20 13h1v1h-1z"/><path fill="#1e4985" d="M42 3h1v1h-1z"/><path fill="#4a6890" d="M112 5h1v1h-1z"/><path fill="#2c528b" d="M33 4h1v1h-1z"/><path fill="#30558c" d="M60 25h1v1h-1z"/><path fill="#456390" d="M43 26h1v1h-1z"/><path fill="#456493" d="M77 1h1v1h-1z"/><path d="M48 2h1v1h-1zm27 1h1v1h-1zm55 0h1v1h-1zM35 5h1v1h-1zm-1 1h1v1h-1zM5 7h1v2H5zm47 0h1v1h-1zm42 0h1v1h-1zm20 0h1v1h-1zM5 9h1v1H5zm63 1h1v1h-1zm54 0h1v1h-1zm-71 1h1v1h-1zm0 1h1v1h-1zm1 1h1v1h-1zm22 0h1v1h-1zm19 0h1v1h-1zM1 15h2v1H1zm2 0h1v1H3zm25 0h1v1h-1zm-1 1h1v2h-1zm0 2h1v1h-1zm88 0h1v1h-1zm-42 1h1v1h-1zm1 0h1v1h-1zm16 0h1v1h-1zm-58 3h1v1h-1zm39 0h1v1h-1zM8 23h1v1H8zm25 0h1v1h-1zm16 0h1v1h-1zm-12 1h1v1h-1zm16 0h1v1h-1zm1 0h1v1h-1zm3 0h1v1h-1zm51 0h2v1h-2zm2 0h1v1h-1zm-72 1h1v1h-1zm1 0h1v1h-1zm35 0h1v1h-1zm34 0h1v1h-1z" fill="#113e80"/><path fill="#36578a" d="M10 23h1v1h-1z"/><path fill="#244c87" d="M13 26h1v1h-1z"/><path fill="#bb2a21" d="M102 1h1v1h-1z"/><path d="M131 4h1v1h-1zM39 5h1v1h-1z" fill="#36588b"/><path fill="#2f528a" d="M6 26h1v1H6z"/><path fill="#476898" d="M0 13h1v1H0z"/><path fill="#6381a4" d="M41 14h1v1h-1z"/><path fill="#4a6795" d="M83 22h1v1h-1z"/><path fill="#234e8b" d="M65 11h1v1h-1z"/><path d="M116 16h1v1h-1zm-66 3h1v1h-1zm15 1h1v1h-1zm47 0h1v1h-1zm-25 1h1v1h-1zm23 4h1v1h-1z" fill="#0b397c"/><path fill="#4b6da3" d="M116 19h1v1h-1z"/><path fill="#708099" d="M68 26h1v1h-1z"/><path fill="#3b5784" d="M55 10h1v1h-1z"/><path fill="#395c91" d="M1 11h1v1H1z"/><path fill="#55729d" d="M26 14h1v1h-1z"/><path fill="#2c548f" d="M52 17h1v1h-1z"/><path fill="#486998" d="M76 18h1v1h-1z"/><path d="M85 1h1v1h-1zm46 0h1v1h-1zm1 0h1v1h-1zm-19 1h1v1h-1z" fill="#124082"/><path fill="#b92019" d="M103 2h1v1h-1z"/><path fill="#43638e" d="M111 3h1v1h-1z"/><path d="M41 23h1v1h-1zm38 3h1v1h-1z" fill="#284f86"/><path fill="#c55854" d="M95 24h1v1h-1z"/><path fill="#325488" d="M53 23h1v1h-1z"/><path fill="#486796" d="M62 5h1v1h-1z"/><path fill="#6d85a6" d="M69 16h1v1h-1z"/><path fill="#1f4787" d="M93 16h1v1h-1z"/><path fill="#2b528b" d="M28 22h1v1h-1z"/><path fill="#35568c" d="M79 23h1v1h-1z"/><path fill="#305489" d="M87 24h1v1h-1z"/><path d="M23 3h1v1h-1zm0 1h1v1h-1zm92 4h1v1h-1zm-87 5h1v1h-1z" fill="#0b3b7e"/><path fill="#07367a" d="M46 7h1v1h-1z"/><path fill="#bd3832" d="M98 15h1v1h-1z"/><path fill="#3b5e8d" d="M26 16h1v1h-1z"/><path fill="#2a5087" d="M14 23h1v1h-1z"/><path fill="#164485" d="M106 26h1v1h-1z"/><path fill="#4a6693" d="M33 3h1v1h-1z"/><path fill="#456896" d="M47 15h1v1h-1z"/><path fill="#264b81" d="M76 26h1v1h-1z"/><path d="M22 14h1v1h-1zm30 1h1v1h-1zM12 25h1v1h-1zm1 0h1v1h-1z" fill="#0c3b7f"/><path d="M64 2h1v1h-1zM41 3h1v1h-1zm24 7h1v1h-1zm-23 5h1v1h-1zm-11 3h1v1h-1zm16 7h1v1h-1zm37 0h1v1h-1z" fill="#1c4784"/><path fill="#829db9" d="M68 4h1v1h-1z"/><path fill="#46668e" d="M9 7h1v1H9z"/><path fill="#406295" d="M77 12h1v1h-1z"/><path fill="#184383" d="M120 19h1v1h-1z"/><path d="M23 2h1v1h-1zm52 0h1v1h-1zm17 2h1v1h-1zM2 11h1v1H2zm121 13h1v1h-1z" fill="#0a397d"/><path d="M84 3h1v1h-1zm-9 3h1v1h-1zm18 0h1v1h-1zm-19 5h1v1h-1zm-1 5h1v1h-1zm-24 1h1v1h-1zm76 6h1v1h-1z" fill="#0f3c7f"/><path fill="#c2322b" d="M102 4h1v1h-1z"/><path fill="#224c86" d="M11 5h1v1h-1z"/><path fill="#134180" d="M50 13h1v1h-1z"/><path fill="#2e5287" d="M70 26h1v1h-1z"/><path fill="#2e5389" d="M71 26h1v1h-1z"/><path fill="#b72f29" d="M97 26h1v1h-1z"/><path d="M51 3h1v1h-1zm37 1h1v1h-1zm27 3h1v1h-1zm-69 4h1v1h-1zm71 0h1v1h-1zm2 5h2v1h-2zm2 0h1v1h-1zM20 18h1v1h-1zM6 24h1v1H6zm36 0h1v1h-1z" fill="#113f81"/><path fill="#2a518a" d="M90 12h1v1h-1z"/><path fill="#254e8b" d="M89 22h1v1h-1z"/><path fill="#7591b2" d="M35 8h1v1h-1z"/><path fill="#4f6f99" d="M27 21h1v1h-1z"/><path fill="#3a5f97" d="M114 21h1v1h-1z"/><path fill="#274e85" d="M107 24h1v1h-1z"/><path fill="#bd423c" d="M100 1h1v1h-1z"/><path fill="#3a5f93" d="M15 4h1v1h-1z"/><path fill="#2e548b" d="M64 7h1v1h-1z"/><path fill="#46628f" d="M20 5h1v1h-1z"/><path fill="#5977a0" d="M64 10h1v1h-1z"/><path fill="#7a93b5" d="M109 21h1v1h-1z"/><path fill="#395c90" d="M84 26h1v1h-1z"/><path d="M10 2h1v1h-1zm121 1h1v1h-1zM31 25h1v1h-1z" fill="#30548a"/><path fill="#15407c" d="M32 5h1v1h-1z"/><path d="M114 6h1v1h-1zm3 1h1v1h-1zm1 1h1v1h-1zM1 14h1v1H1zm74 2h1v1h-1zM1 19h1v1H1zm120 1h1v1h-1zm-90 4h1v1h-1zm76 1h1v1h-1z" fill="#0d3b7f"/><path d="M93 5h1v1h-1zM52 6h1v1h-1zm1 3h1v1h-1zm-22 3h1v1h-1zm19 3h1v1h-1zm71 0h1v1h-1zm-70 2h1v1h-1zm72 1h1v1h-1zM1 20h1v1H1zm4 1h1v1H5zm23 0h1v1h-1zm4 0h1v1h-1zm78 1h1v1h-1zm-80 1h1v1h-1zm81 0h1v1h-1zm15 1h1v1h-1zM14 25h1v1h-1z" fill="#0d3b7e"/><path fill="#be3a35" d="M97 19h1v1h-1z"/><path d="M42 23h1v1h-1zm-12 1h1v1h-1z" fill="#184380"/><path d="M50 11h1v1h-1zm71 2h1v1h-1zM20 24h1v1h-1zm32 2h1v1h-1z" fill="#154282"/><path fill="#375f92" d="M76 17h1v1h-1z"/><path fill="#54709b" d="M73 8h1v1h-1z"/><path fill="#cf7573" d="M104 9h1v1h-1z"/><path d="M102 10h1v1h-1zm-1 1h1v2h-1zm0 2h1v1h-1zm-2 5h1v1h-1zm0 1h1v1h-1z" fill="#ba251d"/><path d="M48 18h1v1h-1zm19 0h1v1h-1z" fill="#30568e"/><path fill="#5d7aa2" d="M69 5h1v1h-1z"/><path fill="#b9211a" d="M102 9h1v1h-1z"/><path fill="#586fa2" d="M70 12h1v1h-1z"/><path fill="#6b84ab" d="M120 21h1v1h-1z"/><path fill="#2e5081" d="M18 26h1v1h-1z"/><path fill="#5575a1" d="M26 20h1v1h-1z"/><path fill="#4c6a9a" d="M78 7h1v1h-1z"/><path fill="#4a6b9f" d="M44 8h1v1h-1z"/><path fill="#486897" d="M27 11h1v1h-1z"/><path fill="#244b86" d="M34 26h1v1h-1z"/><path fill="#6f8ab3" d="M121 23h1v1h-1z"/><path d="M52 2h1v1h-1zm4 24h1v1h-1z" fill="#264e86"/><path fill="#d07874" d="M104 3h1v1h-1z"/><path fill="#43669b" d="M129 5h1v1h-1z"/><path fill="#5370a1" d="M77 13h1v1h-1z"/><path fill="#224982" d="M20 1h1v1h-1z"/><path fill="#4a6c96" d="M21 22h1v1h-1z"/><path d="M43 3h1v1h-1zm64 23h1v1h-1z" fill="#194686"/><path fill="#456598" d="M42 12h1v1h-1z"/><path fill="#486591" d="M35 22h1v1h-1z"/><path fill="#2c5088" d="M91 2h1v1h-1z"/><path d="M66 11h1v1h-1zm-15 7h1v1h-1zm12 2h1v1h-1zm-46 5h1v1h-1z" fill="#0f3d7e"/><path fill="#ba2821" d="M100 11h1v1h-1z"/><path d="M73 12h1v1h-1zm-1 5h1v1h-1z" fill="#27508b"/><path fill="#7a97c0" d="M94 17h1v1h-1z"/><path fill="#33568b" d="M62 24h1v1h-1z"/><path fill="#385a8d" d="M41 4h1v1h-1z"/><path fill="#476590" d="M113 7h1v1h-1z"/><path d="M126 7h1v1h-1zM33 8h1v1h-1zm30 11h1v1h-1z" fill="#0c3a7c"/><path fill="#7d99bb" d="M122 25h1v1h-1z"/><path fill="#0e3b7f" d="M75 4h1v1h-1z"/><path fill="#2b538d" d="M53 6h1v1h-1z"/><path fill="#0e3d81" d="M53 10h1v1h-1z"/><path fill="#6f89ae" d="M2 8h1v1H2z"/><path d="M58 1h1v1h-1zM10 3h1v1h-1zm56 2h1v1h-1zM6 7h1v1H6zm71 0h1v1h-1zM50 8h1v1h-1zM4 10h1v1H4zm71 1h1v1h-1zm42 2h1v1h-1zm-51 3h1v1h-1zm-47 4h1v1h-1zm58 4h1v1h-1z" fill="#144181"/><path fill="#1c4683" d="M13 4h1v1h-1z"/><path fill="#3e6095" d="M73 6h1v1h-1z"/><path fill="#3b5e94" d="M71 20h1v1h-1z"/><path d="M82 4h1v1h-1zm-7 19h1v1h-1z" fill="#2c538c"/><path d="M53 13h1v1h-1zm9 9h1v1h-1z" fill="#133f81"/><path fill="#5579ad" d="M95 13h1v1h-1z"/><path fill="#bb261e" d="M98 23h1v1h-1z"/><path fill="#5b779e" d="M94 4h1v1h-1z"/><path fill="#486391" d="M13 5h1v1h-1z"/><path fill="#5b79a1" d="M16 22h1v1h-1z"/><path fill="#3a5a8b" d="M48 1h1v1h-1z"/><path fill="#b94c48" d="M99 7h1v1h-1z"/><path fill="#c23f3b" d="M103 9h1v1h-1z"/><path fill="#0f3f82" d="M112 2h1v1h-1z"/><path fill="#426596" d="M73 10h1v1h-1z"/><path fill="#5b77a1" d="M69 15h1v1h-1z"/><path fill="#6381a8" d="M117 3h1v1h-1z"/><path fill="#6283af" d="M17 13h1v1h-1z"/><path fill="#c3524f" d="M100 21h1v1h-1z"/><path fill="#396098" d="M124 6h1v1h-1z"/><path d="M112 1h1v1h-1zm1 0h1v1h-1z" fill="#19417a"/><path fill="#c5524d" d="M104 2h1v1h-1z"/><path d="M94 6h1v1h-1zM78 26h1v1h-1z" fill="#204a88"/><path d="M127 1h1v1h-1zM20 2h1v1h-1zm92 1h1v1h-1zM9 5h1v1H9z" fill="#103e81"/><path d="M132 2h1v1h-1zM5 25h1v1H5z" fill="#254c85"/><path fill="#c1413d" d="M102 12h1v1h-1z"/><path fill="#3d5f8e" d="M50 2h1v1h-1z"/><path d="M57 22h1v1h-1zm-11 3h1v1h-1z" fill="#355a8e"/><path fill="#0e3b7d" d="M19 2h1v1h-1z"/><path fill="#3b5f8f" d="M17 17h1v1h-1z"/><path fill="#204b86" d="M31 17h1v1h-1z"/><path fill="#28508b" d="M21 19h1v1h-1z"/><path fill="#6481af" d="M116 1h1v1h-1z"/><path fill="#08387b" d="M3 9h1v1H3z"/><path fill="#617da4" d="M23 15h1v1h-1z"/><path fill="#103d81" d="M14 2h1v1h-1z"/><path fill="#be3831" d="M99 9h1v1h-1z"/><path fill="#6988b1" d="M93 3h1v1h-1z"/><path fill="#446595" d="M22 17h1v1h-1z"/><path fill="#5775a3" d="M128 24h1v1h-1z"/><path fill="#b9221b" d="M100 15h1v1h-1z"/><path d="M92 18h1v1h-1zm-10 5h1v1h-1zm-68 1h1v1h-1zm36 2h1v1h-1z" fill="#1e4884"/><path fill="#2d538a" d="M23 1h1v1h-1z"/><path fill="#31568b" d="M81 1h1v1h-1z"/><path fill="#345991" d="M47 12h1v1h-1z"/><path d="M57 2h1v1h-1zm31 0h1v1h-1zM36 3h1v1h-1zm10 0h1v1h-1zM5 6h1v1H5zm41 6h1v1h-1zm0 1h1v1h-1zm22 0h1v1h-1zm7 2h1v1h-1zm47 1h1v1h-1zm-49 1h1v1h-1zm17 0h1v1h-1zm-72 3h1v1h-1zm26 2h1v1h-1zm16 2h1v1h-1zM7 25h1v1H7z" fill="#0e3d7f"/><path d="M91 4h1v1h-1zM74 9h1v1h-1z" fill="#124080"/><path fill="#3e5f8f" d="M12 5h1v1h-1z"/><path fill="#466696" d="M125 20h1v1h-1z"/><path fill="#37577f" d="M130 26h1v1h-1z"/><path fill="#2f548a" d="M11 2h1v1h-1z"/><path fill="#325589" d="M45 4h1v1h-1z"/><path fill="#446592" d="M32 18h1v1h-1z"/><path fill="#2f568f" d="M5 12h1v1H5z"/><path fill="#4f6c97" d="M54 5h1v1h-1z"/><path fill="#36598b" d="M45 25h1v1h-1z"/><path d="M57 3h1v1h-1zm65 20h1v1h-1z" fill="#1f4985"/><path fill="#58759d" d="M5 15h1v1H5z"/><path fill="#264f8a" d="M64 16h1v1h-1z"/><path fill="#416493" d="M23 14h1v1h-1z"/><path fill="#315485" d="M16 4h1v1h-1z"/><path fill="#92b1d8" d="M126 9h1v1h-1z"/><path fill="#4d6c96" d="M123 26h1v1h-1z"/><path fill="#5f7da9" d="M30 6h1v1h-1z"/><path fill="#728bb1" d="M6 12h1v1H6z"/><path fill="#1f4a87" d="M29 23h1v1h-1z"/><path fill="#486a95" d="M32 17h1v1h-1z"/><path fill="#194584" d="M49 21h1v1h-1z"/><path fill="#6d87ac" d="M126 21h1v1h-1z"/><path fill="#274f88" d="M8 26h1v1H8z"/><path fill="#37588b" d="M37 6h1v1h-1z"/><path fill="#6581ad" d="M28 9h1v1h-1z"/><path fill="#bc2f2a" d="M102 11h1v1h-1z"/><path fill="#be504b" d="M99 1h1v1h-1z"/><path d="M99 14h1v1h-1zm-2 9h1v1h-1z" fill="#ba251e"/><path fill="#2a5189" d="M21 24h1v1h-1z"/><path d="M63 18h1v1h-1zM0 19h1v1H0z" fill="#2f558d"/><path fill="#224c85" d="M112 4h1v1h-1z"/><path fill="#85a3ca" d="M45 6h1v1h-1z"/><path fill="#365a8e" d="M17 14h1v1h-1z"/><path fill="#1d4986" d="M111 24h1v1h-1z"/><path fill="#1b4681" d="M115 16h1v1h-1z"/><path fill="#09397c" d="M64 21h1v1h-1z"/><path fill="#264c85" d="M51 23h1v1h-1z"/><path fill="#6e8ab9" d="M2 24h1v1H2z"/><path fill="#ba4743" d="M94 26h1v1h-1z"/><path d="M118 6h1v1h-1zm-54 9h1v1h-1z" fill="#406395"/><path fill="#637fa9" d="M49 10h1v1h-1z"/><path d="M121 12h1v1h-1zm4 13h1v1h-1zm1 0h1v1h-1z" fill="#0d3b7d"/><path d="M55 1h1v1h-1zm60 9h1v1h-1zM84 22h1v1h-1zm-3 1h1v1h-1zm-40 3h1v1h-1z" fill="#2b5188"/><path fill="#114082" d="M114 2h1v1h-1z"/><path fill="#0d3a7d" d="M4 8h1v1H4z"/><path d="M11 1h1v1h-1zm14 0h1v1h-1z" fill="#446291"/><path fill="#3c5e91" d="M21 21h1v1h-1z"/><path fill="#284e88" d="M11 23h1v1h-1z"/><path fill="#416496" d="M117 4h1v1h-1z"/><path fill="#bb302b" d="M101 14h1v1h-1z"/><path fill="#c04642" d="M100 20h1v1h-1z"/><path fill="#6e83ab" d="M69 24h1v1h-1z"/><path fill="#365d9b" d="M58 4h1v1h-1z"/><path fill="#2d548d" d="M17 20h1v1h-1z"/><path fill="#3f5e90" d="M58 26h1v1h-1z"/><path d="M59 1h1v1h-1zM13 2h1v1h-1zm74 2h1v1h-1zm-37 6h1v1h-1zm-19 3h1v1h-1z" fill="#134082"/><path fill="#3c6298" d="M78 1h1v1h-1z"/><path d="M57 4h1v1h-1zm23 1h1v1h-1zm-4 11h1v1h-1z" fill="#2d548b"/><path fill="#5677a2" d="M92 2h1v1h-1z"/><path fill="#54729a" d="M22 18h1v1h-1z"/><path fill="#4e6994" d="M7 21h1v1H7z"/><path fill="#4b6a9b" d="M88 6h1v1h-1z"/><path fill="#194480" d="M8 7h1v1H8z"/><path fill="#0e3e81" d="M18 25h1v1h-1z"/><path fill="#446697" d="M111 26h1v1h-1z"/><path fill="#264f8b" d="M89 6h1v1h-1z"/><path fill="#bc2f28" d="M103 8h1v1h-1z"/><path fill="#365b90" d="M40 23h1v1h-1z"/><path d="M117 17h1v1h-1zm2 0h1v1h-1zm-58 7h1v1h-1z" fill="#1c4684"/><path fill="#23508d" d="M11 26h1v1h-1z"/><path fill="#33578a" d="M52 1h1v1h-1z"/><path d="M33 9h1v1h-1zm-1 2h1v1h-1zm17 5h1v1h-1z" fill="#214a87"/><path d="M69 14h1v1h-1zm-3 6h1v1h-1z" fill="#3a5f95"/><path fill="#506f9c" d="M69 6h1v1h-1z"/><path fill="#08377a" d="M45 8h1v1h-1z"/><path fill="#42608e" d="M39 23h1v1h-1z"/><path d="M55 4h1v1h-1zm-1 19h1v1h-1z" fill="#33558a"/><path fill="#31578d" d="M127 7h1v1h-1z"/><path fill="#496fa0" d="M94 15h1v1h-1z"/><path fill="#506b9a" d="M70 22h1v1h-1z"/><path d="M45 1h1v1h-1zM35 26h1v1h-1z" fill="#1b4684"/><path fill="#3a5b88" d="M51 2h1v1h-1z"/><path fill="#234b82" d="M44 4h1v1h-1z"/><path fill="#184584" d="M125 21h1v1h-1z"/><path fill="#284e8a" d="M49 26h1v1h-1z"/><path d="M128 1h1v1h-1zM63 21h1v1h-1z" fill="#144182"/><path fill="#31578b" d="M73 11h1v1h-1z"/><path fill="#c55654" d="M102 13h1v1h-1z"/><path d="M89 20h1v1h-1zm-1 1h1v1h-1z" fill="#134181"/><path d="M115 1h1v1h-1zM75 26h1v1h-1z" fill="#2a5085"/><path fill="#3f6597" d="M128 6h1v1h-1z"/><path fill="#b8413d" d="M100 7h1v1h-1z"/><path fill="#2e5286" d="M85 4h1v1h-1z"/><path fill="#7e97c2" d="M114 22h1v1h-1z"/><path fill="#40628f" d="M76 23h1v1h-1z"/><path fill="#6c88b2" d="M67 3h1v1h-1z"/><path fill="#45679b" d="M117 18h1v1h-1z"/><path fill="#1d467f" d="M63 23h1v1h-1z"/><path fill="#4c6a91" d="M9 22h1v1H9z"/><path fill="#0f3e81" d="M44 2h1v1h-1z"/><path fill="#4b6a96" d="M26 13h1v1h-1z"/><path fill="#456699" d="M42 20h1v1h-1z"/><path fill="#5d7ca8" d="M122 13h1v1h-1z"/><path fill="#244d88" d="M118 7h1v1h-1z"/><path fill="#2a528b" d="M90 9h1v1h-1z"/><path fill="#607bad" d="M64 12h1v1h-1z"/><path fill="#bb251f" d="M100 16h1v1h-1z"/><path fill="#647da7" d="M63 16h1v1h-1z"/><path fill="#ba231c" d="M98 19h1v1h-1z"/><path fill="#c03e3a" d="M100 19h1v1h-1z"/><path fill="#31578e" d="M43 22h1v1h-1z"/><path fill="#5d7798" d="M38 23h1v1h-1z"/><path fill="#b93630" d="M102 7h1v1h-1z"/><path fill="#44649c" d="M70 11h1v1h-1z"/><path fill="#486a99" d="M54 14h1v1h-1z"/><path fill="#2d518c" d="M59 4h1v1h-1z"/><path fill="#4c6d9d" d="M73 9h1v1h-1z"/><path d="M5 26h1v1H5zm39 0h1v1h-1z" fill="#315386"/><path fill="#234b86" d="M46 1h1v1h-1z"/><path fill="#51729c" d="M48 15h1v1h-1z"/><path fill="#c4605f" d="M96 20h1v1h-1z"/><path fill="#1f4885" d="M31 14h1v1h-1z"/><path fill="#234f8c" d="M14 26h1v1h-1z"/><path d="M111 2h1v1h-1zm16 0h1v1h-1zM47 4h1v1h-1zm18 5h1v1h-1zM0 16h1v1H0z" fill="#164383"/><path fill="#133f7d" d="M88 5h1v1h-1z"/><path fill="#55719c" d="M78 8h1v1h-1z"/><path fill="#174482" d="M85 22h1v1h-1z"/><path fill="#bd342e" d="M100 18h1v1h-1z"/><path d="M115 19h1v1h-1zm-2 2h1v1h-1z" fill="#09387a"/><path fill="#1b4785" d="M75 20h1v1h-1z"/><path fill="#103d7e" d="M129 4h1v1h-1z"/><path fill="#c03e37" d="M99 24h1v1h-1z"/><path fill="#264c82" d="M12 26h1v1h-1z"/><path d="M5 5h1v1H5zm82 0h1v1h-1z" fill="#3f5f8e"/><path d="M95 7h1v1h-1zm-47 3h1v1h-1z" fill="#406597"/><path d="M122 15h1v1h-1zM12 23h1v1h-1z" fill="#284f89"/><path fill="#657a9f" d="M123 15h1v1h-1z"/><path fill="#677eaa" d="M42 21h1v1h-1z"/><path fill="#375787" d="M9 2h1v1H9z"/><path fill="#184282" d="M53 2h1v1h-1z"/><path fill="#204883" d="M9 3h1v1H9z"/><path fill="#bc2e27" d="M99 22h1v1h-1z"/><path d="M42 18h1v1h-1zM1 21h1v1H1z" fill="#224b87"/><path fill="#365c96" d="M112 19h1v1h-1z"/><path fill="#2d558f" d="M27 20h1v1h-1z"/><path d="M88 20h1v1h-1zm23 1h1v1h-1z" fill="#0b3a7c"/><path fill="#204882" d="M17 1h1v1h-1z"/><path fill="#0e3c80" d="M90 3h1v1h-1z"/><path fill="#3a5e92" d="M54 12h1v1h-1z"/><path d="M18 1h1v1h-1zm68 3h1v1h-1zM59 22h1v1h-1z" fill="#234b84"/><path fill="#4d6f9d" d="M122 24h1v1h-1z"/><path fill="#2a528c" d="M123 11h1v1h-1z"/><path d="M113 19h1v1h-1zm-84 3h1v1h-1z" fill="#0b397d"/><path fill="#244f8d" d="M105 26h1v1h-1z"/><path fill="#264e8b" d="M15 23h1v1h-1z"/><path fill="#5979a0" d="M104 26h1v1h-1z"/><path d="M101 2h1v1h-1zm-1 12h1v1h-1zm-1 2h1v1h-1zm0 1h1v1h-1zm-1 3h1v1h-1zm0 4h1v1h-1z" fill="#ba241d"/><path fill="#214c89" d="M122 12h1v1h-1z"/><path fill="#486c9e" d="M110 21h1v1h-1z"/><path fill="#86a1c4" d="M90 22h1v1h-1z"/><path fill="#1d457f" d="M66 3h1v1h-1z"/><path fill="#164182" d="M44 9h1v1h-1z"/><path fill="#8da4c6" d="M62 18h1v1h-1z"/><path fill="#486795" d="M109 1h1v1h-1z"/><path d="M110 2h1v1h-1zM17 19h1v1h-1z" fill="#30578b"/><path fill="#7590b9" d="M7 10h1v1H7z"/><path fill="#214b84" d="M9 23h1v1H9z"/><path fill="#6480a3" d="M116 13h1v1h-1z"/><path fill="#7993b5" d="M68 18h1v1h-1z"/><path fill="#4a6a97" d="M32 19h1v1h-1z"/><path fill="#133f7f" d="M61 21h1v1h-1z"/><path fill="#c65a58" d="M103 10h1v1h-1z"/><path fill="#3d5f92" d="M32 12h1v1h-1z"/><path fill="#184280" d="M42 16h1v1h-1z"/><path fill="#33558c" d="M61 25h1v1h-1z"/><path d="M47 1h1v1h-1zm-8 3h1v1h-1z" fill="#2a5088"/><path fill="#2f538b" d="M65 2h1v1h-1z"/><path fill="#5e7daa" d="M52 18h1v1h-1z"/><path fill="#6785ad" d="M46 5h1v1h-1z"/><path fill="#265089" d="M119 9h1v1h-1z"/><path fill="#385989" d="M37 23h1v1h-1z"/><path fill="#1a4784" d="M4 16h1v1H4z"/><path fill="#2e5893" d="M125 26h1v1h-1z"/><path fill="#db8a8b" d="M105 2h1v1h-1z"/><path fill="#6f8ab2" d="M93 18h1v1h-1z"/><path fill="#ba221b" d="M97 22h1v1h-1z"/><path fill="#bc2e28" d="M99 11h1v1h-1z"/><path fill="#1e4886" d="M73 13h1v1h-1z"/><path fill="#43628e" d="M106 24h1v1h-1z"/><g fill="#134081"><path d="M38 2h1v1h-1zm91 0h2v1h-2zm2 0h1v1h-1zM21 3h1v1h-1zm1 0h1v1h-1zm26 0h1v1h-1zm15 0h1v1h-1zm24 0h1v1h-1zm1 0h1v1h-1zm25 0h1v1h-1zm1 0h1v2h-1zM52 4h1v1h-1zm12 0h1v1h-1zm12 0h1v3h-1zm1 0h1v1h-1zm12 0h1v1h-1zm1 0h1v1h-1zm25 0h1v2h-1zM49 5h1v1h-1zm1 0h1v2h-1zm15 0h1v1h-1zm25 0h1v1h-1zm1 0h1v1h-1zm23 0h1v1h-1zM7 6h1v1H7zm26 0h1v1h-1z"/><path d="M48 6h3v1h-3zm3 0h1v2h-1zm40 0h1v1h-1zm1 0h1v9h-1zm23 0h1v1h-1zM48 7h3v1h-3zm18 0h1v1h-1zm1 0h1v7h-1zm9 0h1v1h-1zm17 0h1v5h-1zM31 8h1v1h-1zm16 0h1v1h-1zm4 0h1v1h-1zm1 0h1v4h-1zm14 0h1v1h-1zM4 9h1v1H4zm42 1h1v1h-1zm71 0h1v1h-1zm-72 1h1v3h-1zm71 0h1v1h-1zm2 0h1v1h-1zm-74 1h1v8h-1zm8 0h1v1h-1zm23 0h1v1h-1zm18 0h1v1h-1zm25 0h2v1h-2zm2 0h1v1h-1zM2 13h1v6H2zm117 0h1v2h-1zM19 14h1v1h-1zm1 0h1v1h-1zm9 0h1v6h-1zm16 0h1v1h-1zm21 0h1v1h-1zm1 0h1v1h-1zm-48 1h1v3h-1zm1 0h1v1h-1zm46 0h1v1h-1zm2 0h1v1h-1zm6 0h1v2h-1zm18 0h1v1h-1zm26 0h2v1h-2zm2 0h1v1h-1zM20 16h1v1h-1zm8 0h1v1h-1zm63 0h1v1h-1zm-63 1h1v1h-1zm17 0h1v5h-1zm29 0h1v1h-1zm-55 1h1v1h-1zm31 0h1v1h-1zm15 0h1v1h-1zm56 0h1v1h-1zM2 19h1v1H2zm64 0h1v1h-1zm9 0h1v1h-1zm47 0h1v1h-1zM3 20h1v1H3zm26 0h1v1h-1zm1 0h1v2h-1z"/><path d="M44 20h2v1h-2zm2 0h2v3h-2zm2 0h1v1h-1zm16 0h1v1h-1zm9 0h1v4h-1zm49 0h1v1h-1zm1 0h1v1h-1zM4 21h1v1H4zm15 0h1v1h-1zm104 0h1v1h-1zM4 22h1v1H4zm1 0h1v1H5zm25 0h1v1h-1zm1 0h1v1h-1z"/><path d="M45 22h2v1h-2zm15 0h1v1h-1zm64 0h1v1h-1zM5 23h1v1H5zm1 0h1v1H6zm25 0h1v1h-1zm1 0h1v1h-1zm12 0h4v1h-4zm4 0h1v1h-1zm10 0h1v1h-1zm14 0h1v1h-1zM7 24h1v1H7zm1 0h1v1H8zm10 0h1v1h-1zm1 0h1v1h-1zm29 0h1v1h-1zm1 0h1v1h-1zm23 0h1v1h-1zm1 0h1v1h-1zm5 0h1v1h-1zm47 0h1v1h-1zm-42 1h1v1h-1z"/></g><path fill="#114081" d="M40 3h1v1h-1z"/><path fill="#386096" d="M91 20h1v1h-1z"/><path fill="#6d87b0" d="M42 11h1v1h-1z"/><path fill="#365a8d" d="M85 21h1v1h-1z"/><path fill="#294f86" d="M86 21h1v1h-1z"/><path fill="#be6e6f" d="M93 26h1v1h-1z"/><path fill="#4d6672" d="M131 26h1v1h-1z"/><path fill="#3e69a6" d="M83 4h1v1h-1z"/><path fill="#6e86b4" d="M27 10h1v1h-1z"/><path fill="#ca6a68" d="M95 23h1v1h-1z"/><path fill="#32558e" d="M88 1h1v1h-1z"/><path d="M103 1h1v1h-1zm-3 12h1v1h-1zm-1 7h1v1h-1zm-1 2h1v1h-1z" fill="#bb261f"/><path d="M62 3h1v1h-1zm16 0h1v1h-1zM12 4h1v1h-1zm41 0h1v1h-1zm24 1h1v1h-1zM65 6h2v1h-2zm2 0h1v1h-1zm10 0h1v1h-1zm39 0h1v1h-1zM46 8h1v1h-1zm30 0h1v1h-1zm41 0h1v1h-1zm1 2h1v1h-1zm-50 1h1v1h-1zm53 0h1v1h-1zm-55 2h1v1h-1zm9 0h1v1h-1zm43 0h1v1h-1zm-72 1h1v1h-1zm-1 2h1v1h-1zm7 0h1v1h-1zM1 17h1v1H1zm20 0h1v1h-1zm44 0h1v1h-1zm1 0h1v1h-1zm56 1h1v1h-1zM3 19h1v1H3zm27 0h1v1h-1zm16 0h1v1h-1zm18 0h1v1h-1zm50 0h1v1h-1zm-94 3h1v1h-1zm67 0h1v1h-1zm-68 1h1v1h-1zm43 0h1v1h-1zm-12 1h1v1h-1zm26 0h1v1h-1zm48 0h1v1h-1zM10 25h1v1h-1zm99 0h1v1h-1z" fill="#123f80"/><path fill="#4d6b98" d="M122 14h1v1h-1z"/><path fill="#466c9f" d="M115 20h1v1h-1z"/><path fill="#5573a0" d="M109 22h1v1h-1z"/><path fill="#294e87" d="M72 26h1v1h-1z"/><path fill="#2f578e" d="M25 2h1v1h-1z"/><path d="M126 4h1v1h-1zM42 14h1v1h-1z" fill="#264f89"/><path fill="#6f88a9" d="M43 9h1v1h-1z"/><path fill="#284d82" d="M63 24h1v1h-1z"/><path fill="#33598f" d="M49 15h1v1h-1z"/><path fill="#8ca6c6" d="M91 21h1v1h-1z"/><path fill="#6b84b1" d="M89 23h1v1h-1z"/><path d="M24 5h1v1h-1zm23 11h1v1h-1z" fill="#4b6d9b"/><path fill="#5e7aa3" d="M5 18h1v1H5z"/><path fill="#385c8d" d="M70 23h1v1h-1z"/><path fill="#18427d" d="M110 1h1v1h-1z"/><path fill="#3e5e8a" d="M60 4h1v1h-1z"/><path d="M61 4h1v1h-1zm55 8h1v1h-1z" fill="#2e5489"/><path fill="#375b8b" d="M35 2h1v1h-1z"/><path d="M78 4h1v1h-1zM32 7h1v1h-1zm84 0h1v1h-1zM32 8h1v1h-1zm84 0h1v1h-1zM31 9h1v1h-1zm15 0h1v1h-1zm69 0h1v1h-1zm2 0h1v1h-1zm-72 1h1v1h-1zm30 0h1v1h-1zM3 11h1v1H3zm27 0h1v1h-1zM3 12h1v1H3zm26 1h1v1h-1zm-2 2h1v1h-1zm19 0h1v1h-1zm75 2h1v1h-1zM19 19h1v1h-1zm30 0h1v1h-1zM3 21h1v1H3zm30 1h1v1h-1zm90 0h1v1h-1zm-73 1h1v1h-1zm74 0h1v1h-1zm-91 1h1v1h-1zm41 0h1v1h-1z" fill="#144081"/><path d="M125 8h1v1h-1zm-11 12h1v1h-1z" fill="#0a397b"/><path fill="#c75b58" d="M100 2h1v1h-1z"/><path fill="#33598e" d="M74 4h1v1h-1z"/><path fill="#3f6092" d="M73 5h1v1h-1z"/><path fill="#b72e28" d="M96 26h1v1h-1z"/><path fill="#5b75a1" d="M88 17h1v1h-1z"/><path d="M119 18h1v1h-1zm-54 3h1v1h-1z" fill="#3b6094"/><path fill="#224d86" d="M21 1h1v1h-1z"/><path d="M122 8h1v1h-1zm-4 9h1v1h-1z" fill="#486999"/><path fill="#204987" d="M69 12h1v1h-1z"/><path fill="#34598e" d="M53 15h1v1h-1z"/><path fill="#25508f" d="M20 26h1v1h-1z"/><path fill="#1c4989" d="M110 26h1v1h-1z"/><path fill="#4a6999" d="M25 3h1v1h-1z"/><path fill="#31558d" d="M19 5h1v1h-1z"/><path fill="#385c92" d="M69 7h1v1h-1z"/><path fill="#496890" d="M114 9h1v1h-1z"/><path fill="#57769f" d="M120 9h1v1h-1z"/><path fill="#274f8a" d="M16 1h1v1h-1z"/><path d="M102 2h1v1h-1zm-1 7h1v1h-1zm-2 4h1v1h-1zm-1 8h1v1h-1z" fill="#bb2720"/><path fill="#264d86" d="M56 4h1v1h-1z"/><path fill="#22426f" d="M21 13h1v1h-1z"/><path d="M2 21h1v1H2zm4 1h1v1H6zm117 1h1v1h-1z" fill="#0c3b7d"/><path fill="#bc221a" d="M98 25h1v1h-1z"/><path fill="#385a8b" d="M7 3h1v1H7z"/><path fill="#91adcf" d="M124 5h1v1h-1z"/><path fill="#5576a8" d="M7 9h1v1H7z"/><path fill="#bd312b" d="M95 25h1v1h-1z"/><path fill="#ce736f" d="M104 8h1v1h-1z"/><path fill="#637da1" d="M0 11h1v1H0z"/><path fill="#33568a" d="M108 23h1v1h-1z"/><path fill="#2f5287" d="M32 4h1v1h-1z"/><path d="M9 6h1v1H9zm64 8h1v1h-1zm-56 9h1v1h-1z" fill="#164382"/><path fill="#446aa1" d="M126 8h1v1h-1z"/><path fill="#1a4684" d="M50 12h1v1h-1z"/><path fill="#3f5f8b" d="M78 23h1v1h-1z"/><path d="M39 1h1v1h-1zm51 0h1v1h-1zm-9 21h1v1h-1z" fill="#34578c"/><path fill="#3f6498" d="M126 1h1v1h-1z"/><path d="M133 1h1v1h-1zM47 26h1v1h-1z" fill="#295088"/><path d="M94 5h1v1h-1zM0 20h1v1H0z" fill="#4c6d99"/><path fill="#bd5455" d="M104 7h1v1h-1z"/><path fill="#08387d" d="M70 25h1v1h-1z"/><path fill="#6081ac" d="M94 16h1v1h-1z"/><path fill="#5b76a0" d="M41 18h1v1h-1z"/><path fill="#3a5986" d="M66 2h1v1h-1z"/><path fill="#35598d" d="M46 4h1v1h-1z"/><path fill="#385d94" d="M6 10h1v1H6z"/><path fill="#3c6295" d="M111 20h1v1h-1z"/><path fill="#47699a" d="M121 22h1v1h-1z"/><path fill="#2b518a" d="M62 1h1v1h-1z"/><path fill="#4e6a95" d="M0 12h1v1H0z"/><path d="M64 13h1v1h-1zm-22 9h1v1h-1z" fill="#506b96"/><path d="M115 2h1v1h-1zm-83 8h1v1h-1zm88 8h1v1h-1zm7 7h1v1h-1z" fill="#0b3a7e"/><path fill="#355c91" d="M125 5h1v1h-1z"/><path fill="#526f99" d="M50 22h1v1h-1z"/><path fill="#2b5088" d="M37 1h1v1h-1z"/><path fill="#436397" d="M64 8h1v1h-1z"/><path fill="#c6544f" d="M98 12h1v1h-1z"/><path fill="#2d5189" d="M82 22h1v1h-1z"/><path fill="#234e8d" d="M58 3h1v1h-1z"/><path fill="#2b4f86" d="M14 4h1v1h-1z"/><path fill="#6e89ae" d="M115 15h1v1h-1z"/><path fill="#bb2d26" d="M97 20h1v1h-1z"/><path fill="#0f3d81" d="M76 25h1v1h-1z"/><path fill="#b92d26" d="M98 26h1v1h-1z"/><path fill="#0e3b7c" d="M83 3h1v1h-1z"/><path fill="#3b6098" d="M28 10h1v1h-1z"/><path d="M120 10h1v1h-1zM21 25h1v1h-1z" fill="#395e92"/><path fill="#c24843" d="M98 13h1v1h-1z"/><path fill="#3b5d90" d="M16 23h1v1h-1z"/><path fill="#bd352e" d="M99 23h1v1h-1z"/><path d="M127 4h1v1h-1zM90 6h1v1h-1zM32 9h1v1h-1zm-1 2h1v1h-1zm62 3h1v1h-1zm-72 2h1v1h-1zm29 0h1v1h-1zm42 0h1v1h-1zm-46 2h1v1h-1zm19 1h1v1h-1zM2 22h1v1H2zm72 0h1v1h-1z" fill="#0e3c7e"/><path fill="#1b4786" d="M63 5h1v1h-1z"/><path fill="#275693" d="M95 8h1v1h-1z"/><path fill="#1f4883" d="M55 26h1v1h-1z"/><path fill="#214c8a" d="M31 16h1v1h-1z"/><path fill="#ba2720" d="M98 17h1v1h-1z"/><path fill="#c65958" d="M101 18h1v1h-1z"/><path fill="#c64d49" d="M97 17h1v1h-1z"/><path fill="#154081" d="M16 24h1v1h-1z"/><path fill="#5f77a1" d="M118 5h1v1h-1z"/><path d="M98 14h1v1h-1zm-2 8h1v1h-1z" fill="#c0423c"/><path fill="#c25351" d="M97 16h1v1h-1z"/><path fill="#6985ac" d="M67 19h1v1h-1z"/><path d="M43 2h1v1h-1zM16 3h1v1h-1zm111 0h1v1h-1zM8 4h1v1H8zm102 19h1v1h-1zm-78 1h1v1h-1zm47 0h1v1h-1zm-29 1h1v1h-1z" fill="#113e81"/><path d="M76 2h1v1h-1zm1 0h1v1h-1zM47 3h1v1h-1zm30 0h1v1h-1zm12 0h1v1h-1zM48 4h3v1h-3zm3 0h1v1h-1zm77 0h1v1h-1zM8 5h1v1H8zm26 0h1v1h-1zm17 0h1v1h-1zM33 7h1v1h-1zm15 1h1v1h-1zm-17 2h1v1h-1zm88 0h1v1h-1zm-90 2h1v1h-1zm1 0h1v1h-1zM3 13h1v1H3zm48 1h1v2h-1zm23 0h1v1h-1zm47 0h1v1h-1zm-76 1h1v1h-1zM3 16h1v1H3zm48 0h1v1h-1zm13 1h1v1h-1zm27 0h1v1h-1zm-63 1h1v1h-1zm46 0h1v1h-1zm-43 3h1v1h-1zm30 1h1v1h-1zm-44 2h1v1h-1zm19 1h1v1h-1zm1 0h1v1h-1zm14 0h2v1h-2zm2 0h1v1h-1z" fill="#123f81"/><path d="M116 15h1v1h-1zm-89 4h1v1h-1z" fill="#184484"/><path fill="#204372" d="M18 13h1v1h-1z"/><path fill="#2d558a" d="M113 18h1v1h-1z"/><path fill="#2f5893" d="M126 26h1v1h-1z"/><path fill="#3a5b8a" d="M107 23h1v1h-1z"/><path fill="#295087" d="M83 1h1v1h-1z"/><path fill="#bc2b25" d="M101 3h1v1h-1z"/><path d="M62 4h1v1h-1zM37 26h1v1h-1z" fill="#154281"/><path fill="#274f89" d="M17 21h1v1h-1z"/><path fill="#1e4782" d="M54 4h1v1h-1z"/><path fill="#1c4885" d="M27 14h1v1h-1z"/><path fill="#c04b47" d="M101 17h1v1h-1z"/><path fill="#345990" d="M22 16h1v1h-1z"/><path fill="#7b92b9" d="M87 19h1v1h-1z"/><path fill="#4d70a0" d="M29 8h1v1h-1z"/><path fill="#2e538b" d="M42 13h1v1h-1z"/><path fill="#325a90" d="M0 14h1v1H0z"/><path fill="#3c5f94" d="M78 6h1v1h-1z"/><path fill="#3c557b" d="M23 13h1v1h-1z"/><path fill="#174484" d="M62 20h1v1h-1z"/><path fill="#627faa" d="M28 23h1v1h-1z"/><path fill="#0e3c7d" d="M58 2h1v1h-1z"/><path fill="#405c8f" d="M6 4h1v1H6z"/><path fill="#294f87" d="M113 6h1v1h-1z"/><path fill="#5d769f" d="M70 21h1v1h-1z"/><path fill="#164283" d="M36 26h1v1h-1z"/><path fill="#214b87" d="M53 14h1v1h-1z"/><path d="M4 15h1v1H4zm-4 3h1v1H0z" fill="#1f4986"/><path fill="#1c4786" d="M22 15h1v1h-1z"/><path d="M22 2h1v1h-1zm20 0h1v1h-1zm38 0h1v1h-1zm1 0h1v1h-1zm6 0h1v1h-1zM37 3h2v1h-2zm2 0h1v1h-1zm10 0h1v1h-1zm3 0h1v1h-1zm33 0h1v1h-1zM9 4h1v1H9zm54 0h1v1h-1zm50 0h1v1h-1zM7 5h1v1H7zm82 0h1v1h-1zm24 0h1v1h-1zm4 1h1v1h-1zm9 0h1v1h-1zM4 7h1v1H4zm120 1h1v1h-1zM91 9h1v1h-1zm-48 3h1v1h-1zm33 0h1v1h-1zm15 0h1v1h-1zm-61 3h1v1h-1zm35 1h1v1h-1zm-19 1h1v1h-1zm-28 1h1v1h-1zm12 0h1v1h-1zm43 0h1v1h-1zm-55 1h1v1h-1zm105 0h1v1h-1zm-62 4h1v1h-1zm26 0h1v1h-1zm-77 1h1v1h-1zm46 0h1v1h-1zm25 0h1v1h-1zm-40 1h1v1h-1zm1 0h1v1h-1zm29 0h1v1h-1zm4 0h1v1h-1zm3 0h2v1h-2zm2 0h1v1h-1z" fill="#0f3d80"/><path fill="#214b88" d="M24 2h1v1h-1z"/><path fill="#446897" d="M17 15h1v1h-1z"/><path fill="#1d4887" d="M43 21h1v1h-1z"/><path fill="#34578a" d="M41 22h1v1h-1z"/><path fill="#274d86" d="M37 5h1v1h-1z"/><path fill="#597596" d="M113 8h1v1h-1z"/><path fill="#20406e" d="M19 13h1v1h-1z"/><path fill="#859ec3" d="M124 11h1v1h-1z"/><path d="M4 17h1v1H4zm8 7h1v1h-1zm47 1h1v1h-1z" fill="#1e4885"/><path fill="#5e779d" d="M125 19h1v1h-1z"/><path d="M14 1h1v1h-1zm37 21h1v1h-1z" fill="#35578a"/><path fill="#405c8e" d="M89 1h1v1h-1z"/><path fill="#274c83" d="M54 10h1v1h-1z"/><path fill="#55749f" d="M48 17h1v1h-1z"/><path fill="#c75e5e" d="M96 19h1v1h-1z"/><path fill="#406291" d="M58 22h1v1h-1z"/><path fill="#0d3c7d" d="M63 22h1v1h-1z"/><path fill="#30548b" d="M13 23h1v1h-1z"/><path d="M6 5h1v1H6zm84 10h1v1h-1zm-7 8h1v1h-1z" fill="#164181"/><path fill="#ba2b25" d="M100 8h1v1h-1z"/><path fill="#54729e" d="M5 14h1v1H5z"/><path fill="#3b5d91" d="M29 24h1v1h-1z"/><path fill="#15417f" d="M43 1h1v1h-1z"/><path fill="#3f6599" d="M73 2h1v1h-1z"/><path fill="#4c6b9d" d="M64 14h1v1h-1z"/><path d="M101 10h1v1h-1zm-1 2h1v1h-1z" fill="#bb2821"/><path d="M60 1h1v1h-1zm5 12h1v1h-1zm21 11h1v1h-1z" fill="#184382"/><path fill="#1d4884" d="M3 8h1v1H3z"/><path fill="#bc3c36" d="M99 8h1v1h-1z"/><path d="M12 1h1v1h-1zm41 0h1v1h-1z" fill="#2b5087"/><path fill="#b81e17" d="M102 3h1v1h-1z"/><path fill="#6e88af" d="M51 20h1v1h-1z"/><path fill="#395b8b" d="M8 22h1v1H8z"/><path fill="#2f548c" d="M85 25h1v1h-1z"/><path fill="#1a4786" d="M109 26h1v1h-1z"/><path fill="#5f7ba2" d="M33 10h1v1h-1z"/><path fill="#3f6195" d="M47 13h1v1h-1z"/><path fill="#2e538c" d="M42 19h1v1h-1z"/><path fill="#33598d" d="M55 23h1v1h-1z"/><path fill="#114080" d="M54 25h1v1h-1z"/><path fill="#7d95b8" d="M29 7h1v1h-1z"/><path fill="#2a5288" d="M95 9h1v1h-1z"/><path fill="#7f99bf" d="M1 23h1v1H1z"/><path fill="#415f8d" d="M105 25h1v1h-1z"/><path fill="#bc2d27" d="M96 23h1v1h-1z"/><path fill="#4c6c97" d="M119 8h1v1h-1z"/><path fill="#5a77a0" d="M33 11h1v1h-1z"/><path fill="#466694" d="M32 14h1v1h-1z"/><path fill="#1d4783" d="M44 3h1v1h-1z"/><path fill="#778cb5" d="M92 20h1v1h-1z"/><path fill="#6b85aa" d="M54 6h1v1h-1z"/><path fill="#7996ba" d="M123 12h1v1h-1z"/><path d="M125 6h1v1h-1zM5 10h1v1H5zm84 11h1v1h-1z" fill="#0a397c"/><path fill="#3c6197" d="M34 8h1v1h-1z"/><path fill="#c56967" d="M98 10h1v1h-1z"/><path fill="#bc2720" d="M97 25h1v1h-1z"/><path d="M17 2h1v1h-1zm1 0h1v1h-1zm28 0h1v1h-1zm1 0h1v1h-1zm7 0h1v1h-1zm6 0h1v1h-1zm1 0h2v1h-2zm2 0h1v1h-1zM12 3h1v1h-1zm5 0h1v1h-1zm3 0h1v1h-1zm33 0h2v1h-2zm2 0h1v1h-1zm25 0h2v1h-2zm2 0h1v1h-1zm4 0h1v1h-1zm29 0h1v1h-1zM10 4h1v1h-1zm1 0h1v1h-1zm11 0h1v1h-1zm13 0h2v1h-2zm2 0h1v1h-1zM6 6h1v1H6zm28 1h1v1h-1zm41 0h1v1h-1zm50 0h1v1h-1zM65 8h1v1h-1zM51 9h1v1h-1zm25 0h1v1h-1zm18 0h1v1h-1zm22 0h1v1h-1zm-50 1h1v1h-1zm28 0h1v1h-1zM4 11h1v1H4zm-2 1h1v1H2zm72 0h1v1h-1zm-44 1h1v1h-1zm61 0h1v1h-1zm29 0h1v1h-1zm-45 1h1v1h-1zm-32 1h1v1h-1zm-25 2h1v1h-1zM1 18h1v1H1zm19 3h1v1h-1zm104 0h1v1h-1zM4 23h1v1H4zm30 0h1v2h-1zm25 0h1v1h-1zm25 0h2v1h-2zm2 0h1v1h-1zm-51 1h1v1h-1zm3 0h2v1h-2zm2 0h1v1h-1zm5 0h2v1h-2zm2 0h1v1h-1zm35 0h2v1h-2zm2 0h1v1h-1zm-50 1h1v1h-1zm6 0h1v1h-1zm15 0h1v1h-1zm1 0h1v1h-1zm16 0h1v1h-1zm10 0h1v1h-1z" fill="#103e80"/><path d="M59 2h1v1h-1zm9 6h1v1h-1zm12 16h1v1h-1zm-32 1h1v1h-1z" fill="#0f3e7f"/><path fill="#1e4b8a" d="M43 4h1v1h-1z"/><path fill="#577797" d="M77 14h1v1h-1z"/><path fill="#5877a9" d="M95 14h1v1h-1z"/><path d="M129 1h1v1h-1zm1 0h1v1h-1z" fill="#154283"/><path fill="#607caa" d="M126 2h1v1h-1z"/><path fill="#0d3b80" d="M123 8h1v1h-1z"/><path fill="#375c91" d="M21 20h1v1h-1z"/><path fill="#2c558a" d="M111 25h1v1h-1z"/><path d="M44 11h1v1h-1zM7 23h1v1H7z" fill="#103f80"/><path fill="#486997" d="M55 11h1v1h-1z"/><path fill="#687f9e" d="M115 12h1v1h-1z"/><path fill="#3c5f90" d="M77 16h1v1h-1z"/><path fill="#1a417a" d="M129 26h1v1h-1z"/><path fill="#7a96c2" d="M64 11h1v1h-1z"/><path d="M15 24h1v1h-1zm55 0h1v1h-1z" fill="#1e4786"/><path fill="#33568c" d="M32 26h1v1h-1z"/><path fill="#0e3b7e" d="M11 25h1v1h-1z"/><path d="M56 1h1v1h-1zm-7 21h1v1h-1z" fill="#214a86"/><path fill="#53729e" d="M4 6h1v1H4z"/><path fill="#6d7c98" d="M24 13h1v1h-1z"/><path fill="#496794" d="M133 2h1v1h-1z"/><path d="M49 9h1v1h-1zm-6 1h1v1h-1zm4 8h1v1h-1z" fill="#3d6194"/><path fill="#c64743" d="M97 18h1v1h-1z"/><path fill="#637ea8" d="M119 19h1v1h-1z"/><path fill="#bf443d" d="M103 3h1v1h-1z"/><path fill="#4e6d9c" d="M72 14h1v1h-1z"/><path fill="#7a93bd" d="M114 16h1v1h-1z"/><path fill="#4e6b9a" d="M32 13h1v1h-1z"/><path fill="#416193" d="M49 13h1v1h-1z"/><path fill="#335892" d="M75 22h1v1h-1z"/><path fill="#4c6a9f" d="M71 19h1v1h-1z"/><path fill="#2c548c" d="M127 24h1v1h-1z"/><path fill="#1c427e" d="M127 26h1v1h-1z"/><path fill="#496895" d="M27 12h1v1h-1z"/><path fill="#53749d" d="M26 19h1v1h-1z"/><path fill="#617fa5" d="M127 23h1v1h-1z"/><path fill="#91abd0" d="M125 10h1v1h-1z"/><path fill="#0e3d7d" d="M4 19h1v1H4z"/><path fill="#285087" d="M87 1h1v1h-1z"/><path d="M39 2h1v1h-1zm16 0h1v1h-1zm10 1h1v1h-1zm2 14h1v1h-1zM5 24h1v1H5zm39 0h1v1h-1zm-11 1h1v1h-1z" fill="#0e3d80"/><path fill="#0d3b7b" d="M124 7h1v1h-1z"/><path fill="#2a5188" d="M80 26h1v1h-1z"/><path fill="#4c668d" d="M109 2h1v1h-1z"/><path d="M74 7h1v1h-1zm16 7h1v1h-1z" fill="#1d4886"/><path fill="#6581a8" d="M89 8h1v1h-1z"/><path fill="#456894" d="M47 14h1v1h-1z"/><path fill="#6f88a5" d="M27 22h1v1h-1z"/><path fill="#456b9a" d="M49 11h1v1h-1z"/><path fill="#3b5b8a" d="M26 17h1v1h-1z"/><path fill="#b9231c" d="M98 18h1v1h-1z"/><path fill="#4f6b98" d="M73 1h1v1h-1z"/><path fill="#4167a0" d="M32 16h1v1h-1z"/><path fill="#09387d" d="M124 25h1v1h-1z"/><path fill="#c47370" d="M94 25h1v1h-1z"/><path fill="#214982" d="M124 26h1v1h-1z"/><path fill="#385a8e" d="M31 5h1v1h-1z"/><path fill="#e17776" d="M102 5h1v1h-1z"/><path d="M31 20h1v1h-1zm40 3h1v1h-1z" fill="#0c3a7e"/><path d="M41 1h1v1h-1zm49 1h1v1h-1zm27 3h1v1h-1zM13 24h1v1h-1z" fill="#204986"/><path fill="#194483" d="M121 21h1v1h-1z"/><path fill="#21508a" d="M95 10h1v1h-1z"/><path fill="#345688" d="M30 25h1v1h-1z"/><path fill="#2e5892" d="M19 1h1v1h-1z"/><path fill="#315589" d="M86 5h1v1h-1z"/><path fill="#34578b" d="M11 6h1v1h-1z"/><path fill="#34588e" d="M80 1h1v1h-1z"/><path fill="#c96361" d="M103 12h1v1h-1z"/><path fill="#ca716d" d="M100 23h1v1h-1z"/><path fill="#4d6fa2" d="M93 17h1v1h-1z"/><path fill="#244e89" d="M78 5h1v1h-1z"/><path fill="#667da2" d="M70 8h1v1h-1z"/><path d="M90 11h1v1h-1zm-40 9h1v1h-1z" fill="#1f4b88"/><path fill="#133f82" d="M48 19h1v1h-1z"/><path fill="#36598d" d="M56 22h1v1h-1z"/><path fill="#c6645e" d="M103 4h1v1h-1z"/><path fill="#5876a2" d="M89 7h1v1h-1z"/><path fill="#5d799f" d="M119 7h1v1h-1z"/><path fill="#3d6596" d="M54 8h1v1h-1z"/><path fill="#0a387b" d="M92 17h1v1h-1z"/><path fill="#365788" d="M76 1h1v1h-1z"/><path fill="#143d77" d="M111 1h1v1h-1z"/><path fill="#275088" d="M74 3h1v1h-1z"/><path fill="#30558b" d="M81 4h1v1h-1z"/><path d="M38 4h1v1h-1zM5 11h1v1H5zm-5 6h1v1H0zm11 7h1v1h-1zm32 1h1v1h-1zm-5 1h1v1h-1zm15 0h1v1h-1z" fill="#164282"/><path fill="#1e4986" d="M65 12h1v1h-1z"/><path fill="#c35754" d="M95 22h1v1h-1z"/><path fill="#b8221b" d="M104 1h1v1h-1z"/><path fill="#3f5d8c" d="M4 25h1v1H4z"/><path d="M75 9h1v1h-1zm-45 1h1v1h-1zm-12 6h1v1h-1z" fill="#133f80"/><path fill="#2a508a" d="M68 16h1v1h-1z"/><path fill="#506e99" d="M76 19h1v1h-1z"/><path fill="#3f5e8d" d="M49 1h1v1h-1z"/><path fill="#46679d" d="M70 9h1v1h-1z"/><path fill="#406498" d="M126 22h1v1h-1z"/><path fill="#3c5f8e" d="M38 1h1v1h-1z"/><path fill="#4e6c9a" d="M5 17h1v1H5z"/><path fill="#c85c5c" d="M102 15h1v1h-1z"/><path fill="#3d6097" d="M87 20h1v1h-1z"/><path fill="#7189b2" d="M64 23h1v1h-1z"/><path fill="#486ca5" d="M2 23h1v1H2z"/><path fill="#c46b68" d="M98 8h1v1h-1z"/><path fill="#0c3c80" d="M116 10h1v1h-1z"/><path fill="#bc2f29" d="M98 16h1v1h-1z"/><path fill="#1e4785" d="M49 2h1v1h-1z"/><path d="M89 15h1v1h-1zm-41 1h1v1h-1z" fill="#51719c"/><path fill="#1d4888" d="M5 20h1v1H5z"/><path fill="#2c5692" d="M17 26h1v1h-1z"/><path fill="#325489" d="M33 26h1v1h-1z"/><path fill="#133c77" d="M128 26h1v1h-1z"/><path fill="#496b9f" d="M116 2h1v1h-1z"/><path fill="#204886" d="M59 3h1v1h-1z"/><path d="M29 9h1v1h-1zm21 0h1v1h-1zm71 1h1v1h-1zM1 12h1v1H1zm46 7h1v1h-1zm-15 6h1v1h-1z" fill="#174382"/><path d="M90 8h1v1h-1zm0 2h1v1h-1z" fill="#204a87"/><path fill="#637c98" d="M114 10h1v1h-1z"/><path fill="#214a84" d="M106 25h1v1h-1z"/><path fill="#214985" d="M37 2h1v1h-1z"/><path d="M32 6h1v1h-1zm86 3h1v1h-1zm-71 1h1v1h-1zm75 7h1v1h-1zm-73 1h1v1h-1zm40 1h1v1h-1zm-17 1h1v1h-1z" fill="#0c3b7e"/><path fill="#4f6f9b" d="M21 23h1v1h-1z"/><path d="M30 8h1v1h-1zm94 1h1v1h-1zm-2 2h1v1h-1zm-8 7h1v1h-1zm-2 4h1v1h-1z" fill="#0a387c"/><path fill="#234d86" d="M69 8h1v1h-1z"/><path fill="#123f7f" d="M89 18h1v1h-1z"/><path fill="#2b548d" d="M90 21h1v1h-1z"/><path fill="#355a90" d="M18 4h1v1h-1z"/><path fill="#264f8c" d="M67 4h1v1h-1z"/><path d="M67 5h1v1h-1zm48 12h1v1h-1zm-49 1h1v1h-1zm24 2h1v1h-1z" fill="#09387c"/><path d="M54 9h1v1h-1zm0 2h1v1h-1z" fill="#2e568d"/><path fill="#4b6b92" d="M77 15h1v1h-1z"/><path fill="#446593" d="M26 18h1v1h-1z"/><path fill="#96acd2" d="M65 22h1v1h-1z"/><path fill="#174380" d="M44 1h1v1h-1z"/><path d="M21 4h1v1h-1zm2 1h1v1h-1zm53 8h1v1h-1zm-30 3h1v1h-1zm-3 7h1v1h-1zm-23 2h1v1h-1z" fill="#134080"/><path fill="#c86362" d="M100 4h1v1h-1z"/></svg>