<svg xmlns="http://www.w3.org/2000/svg" role="img" viewBox="-2.95 -2.95 153.53 26.78"><title>Shutterstock, Inc. logo</title><style>svg {enable-background:new 0 0 147.6 20.9}</style><path fill="#fc3441" d="M88.1 11.6c-.2 0-1-.2-1.2-.2-1.2-.2-2.2-.5-2.2-1.7 0-1 1.1-1.5 2.4-1.5 2 0 3.7.9 3.9 1l1.1-2.9c-.4-.2-2.2-1.2-5-1.2-2.6 0-5.7 1.3-5.7 4.7 0 3 2.1 3.9 4.2 4.3.3.1 1.2.2 1.4.2 1.4.2 2.1.7 2.1 1.7 0 1.1-1.1 1.7-2.7 1.7-2.6 0-4.2-.8-4.6-1l-1.2 2.8c.4.2 2.2 1.2 5.6 1.2 3.4 0 6.1-1.7 6.1-4.8.2-2.7-1.8-3.8-4.2-4.3M98.4 0l-3.2 1.8v3.8h-1.7v3.1h1.7v6.6c0 2.8 1.2 5.4 5.3 5.4h1.3v-3.1h-.5c-2 0-2.9-1.2-2.9-2.7V8.6h3.7V5.5h-3.7V0m25.1 8.3c1.2 0 2.5.6 2.9 1.9l2.9-1.1c-.8-2.9-3.5-4-5.8-4-4.2 0-5.9 2.6-5.9 5.2v5.3c0 2.5 1.7 5.2 5.9 5.2 2.4 0 5-1.1 5.8-4l-2.9-1.1c-.4 1.4-1.7 1.9-2.9 1.9-2.2 0-2.8-1.2-2.8-2.5v-4.3c0-1.3.6-2.5 2.8-2.5m13.6 4l6-6.8h-3.9l-5.2 5.9V0h-3.2v20.6h3.2v-4.8l1.1-1.2 4.6 6h3.8l-6.4-8.3m-26-3.5h-3.3c-.5 0-1 .4-1 1v3.6h-3.3V9.8c0-2.3 1.9-4.2 4.2-4.2h3.3v3.2m-2.6 8.5h3.3c.5 0 1-.4 1-1v-3.6h3.3v3.6c0 2.3-1.9 4.2-4.2 4.2h-3.3v-3.2M54.1 5.5h3.7v3.1h-3.7v6.2c0 1.6.8 2.7 2.9 2.7h.5v3.1h-1.3c-4.1 0-5.3-2.5-5.3-5.4V8.6h-5.4v6.2c0 1.6.8 2.7 2.9 2.7h.5v3.1h-1.3c-4.1 0-5.3-2.5-5.3-5.4V8.6h-1.6V5.5h1.6V1.8L45.5 0v5.5h5.4V1.8L54.1 0v5.5m-34.6-.3c-1 0-2 .2-3 .6V0h-3.2v20.6h3.2V8.8c.6-.4 1.6-.6 2.5-.6 2 0 3 1.1 3 2.8v9.6h3.2V10.5c0-3-2.2-5.3-5.7-5.3m16.3 12.4c-.6.3-1.4.5-2.1.5-2.4 0-3.3-1.2-3.3-2.9V5.5h-3.2v9.7c0 3.8 2.2 5.6 6.1 5.6 1.9 0 3.9-.5 5.7-1.3v-14h-3.2v12.1m-28.4-6c-.2 0-1-.2-1.2-.2C5 11.2 4 11 4 9.8c0-1 1.1-1.5 2.4-1.5 2 0 3.7.9 3.9 1l1.1-2.9c-.4-.2-2.2-1.2-5-1.2C3.8 5.2.7 6.5.7 9.9c0 3 2.1 3.9 4.2 4.3.3.1 1.2.2 1.4.2 1.4.2 2.1.7 2.1 1.7 0 1.1-1.1 1.7-2.7 1.7-2.6 0-4.2-.8-4.6-1L0 19.7c.4.2 2.2 1.2 5.6 1.2 3.4 0 6.1-1.7 6.1-4.8 0-2.9-1.9-4-4.3-4.5M71 10.4c0-2.8-2.1-5.2-5.9-5.2-4.3 0-5.9 2.7-5.9 5.2v5c0 3.5 2.2 5.5 5.9 5.5 3.3 0 5-1.9 5.5-3l-2.7-1.6c-.2.7-1.3 1.6-2.8 1.6-2 0-2.7-1.1-2.7-2.5v-.8H71v-4.2m-3.2 1.5h-5.4v-1.1c0-1.2.6-2.5 2.7-2.5 2 0 2.7 1.3 2.7 2.5v1.1zm5.2-1.5v10.2h3.2v-9.9c0-.9.5-2.3 2.8-2.3.4 0 1.2.1 1.5.2V5.4c-.3-.1-.9-.2-1.6-.2-4.1 0-5.9 2.6-5.9 5.2m73.1-2.2c-.9 0-1.6-.7-1.6-1.5s.7-1.6 1.6-1.6c.9 0 1.6.7 1.6 1.6-.1.9-.8 1.5-1.6 1.5m0-2.7c-.7 0-1.2.5-1.2 1.2 0 .6.5 1.2 1.2 1.2s1.2-.5 1.2-1.2c-.1-.7-.6-1.2-1.2-1.2zm.2 1.9l-.3-.5h-.2v.5h-.3V5.9h.6c.4 0 .6.3.6.5s-.1.4-.3.5l.3.5h-.4zm.1-1c0-.1-.1-.2-.3-.2h-.2v.5h.2c.2 0 .3-.1.3-.3z"/></svg>