<svg xmlns="http://www.w3.org/2000/svg" role="img" viewBox="-12.45 -12.45 647.40 224.90"><title>Simba Innovation logo</title><style>svg {enable-background:new 0 0 622.8 200.2}</style><style>.st0{fill-rule:evenodd;clip-rule:evenodd;fill:#156ab2}</style><path d="M102.2 0h65.1c7 0 13.8 1 19.9 4.9 11.2 7 17.2 17.1 17.3 30.3.1 43.2 0 86.3.1 129.5.2 9.3-3.3 18.3-9.8 24.9-6.6 6.9-15.7 10.8-25.3 10.6H35.2c-9.5.2-18.6-3.6-25.1-10.4C3.2 182.9 0 174.3 0 164.5V35.7C0 25.8 3.4 17 10.6 10 17.9 2.8 26.9 0 37.1 0c21.7.1 43.4 0 65.1 0zm-.1 196h67.4c16.7.2 30.4-13.1 30.6-29.8v-.8V35.2c.1-4.7-.9-9.3-2.9-13.6-6-11.8-15.9-17.4-29-17.4h-132c-2.6 0-5.3.2-7.9.7C13.9 8.1 4.4 20 4.3 35.2c-.1 43.2-.1 86.5 0 129.7-.2 7.9 2.7 15.5 8.1 21.2 6.4 6.9 14.4 9.9 23.8 9.9h65.9zM418.5 50.2c7.6-7.5 14.7-10 21.8-.1.5-.6 1.1-1.1 1.6-1.7 3.7-4.8 11.6-6.1 16.6-2.6 2.8 2 3.9 5.1 4 8.3.3 7.5.2 15.1.2 22.6 0 1.3-.6 1.8-1.9 1.8h-.2c-7.6.4-7.6.4-7.6-7.2V59.9c0-1.5-.2-2.9-.5-4.4-.4-2.1-1.6-3.8-3.9-4.1-2.5-.4-5-.2-6.3 2.3-.9 1.7-1.5 3.5-1.6 5.4-.2 5.7-.1 11.3 0 17 0 1.9-.6 2.5-2.4 2.4-1.7-.1-3.4-.1-5.1 0-2 .2-2.5-.7-2.5-2.6.1-5.6.1-11.2 0-16.8 0-1.2-.1-2.5-.4-3.7-.6-2.3-1.8-4-4.4-4.2-3.3-.3-5.3.5-6.4 3.1-.8 2-1.2 4.2-1.2 6.3-.2 5.2-.1 10.4 0 15.6 0 1.6-.5 2.2-2.1 2.2-2-.1-4 0-6.1 0-1.3 0-1.8-.5-1.8-1.8V46.3c0-1.3.5-1.8 1.8-1.8 1.9.1 3.9.1 5.8 0 1.9-.2 2.5.6 2.3 2.4.2 1.1.3 2.2.3 3.3zm64.1 24.6c-.8 3.7-.8 3.7-4.4 3.7-5.9 0-5.9 0-5.9-5.9 0-14 0-28-.1-42 0-2.3.7-3.1 2.9-2.8 1.5.1 3.1.1 4.6 0 1.8-.2 2.5.5 2.4 2.4-.1 5.5 0 11 0 16.6v3.1c.8-.5 1.6-1.1 2.4-1.8 7.5-7.3 18.3-5.1 21.7 4.8 2.4 6.9 2 13.9-2.1 20.2-4.8 7.3-13.6 8.4-20.1 2.8-.3-.6-.8-.9-1.4-1.1zm15.1-13.2c-.2-1.6-.2-2.7-.4-3.8-1-4.9-3.3-6.8-8-6.6-3.8.2-6.6 2.9-7 7.3-.2 2.2-.2 4.5 0 6.7.1 3.5 2.8 6.4 6.3 6.7 3.5.6 6.9-1.6 7.9-5 .5-1.7.9-3.5 1.2-5.3zm-149.4 5.7c5.6 3.4 11 5.1 17.1 3.8 2.2-.5 4-1.6 4.5-3.9.5-2.1-.4-4.4-2.3-5.4-2.8-1.7-5.7-3.1-8.7-4.4-3.5-1.6-6.8-3.6-8.8-6.9-3.7-5.9-1.9-13.7 4-17.3.3-.2.7-.4 1-.6 7-3.6 14.4-3.1 21.8-1.3.7.3 1.2 1 1.4 1.8.2 2.3.1 4.6.1 6.6-3.9-.6-7.6-1.4-11.4-1.8-1.5-.1-3 .1-4.4.6-2 .6-3.6 1.9-3.8 4.2-.2 2.1.9 4.1 2.8 5 2.2 1.2 4.6 2.2 6.9 3.4 2.6 1.4 5.4 2.6 7.6 4.5 7.7 6.6 5.6 18.4-4.1 22-7.2 2.6-15 2.5-22.1-.3-.8-.5-1.4-1.3-1.5-2.3-.3-2.5-.1-4.9-.1-7.7zm214.5 95.9c-9.7 0-16.5-5-17.9-13.9-1.8-11.5 4.3-20.6 16.2-21.4 5.1-.4 9.8.3 14 3.6 4.9 3.9 6.6 9.2 6.1 15.1-1 10.7-7.7 16.6-18.4 16.6zm-8.3-18c.1 1.3.2 2.7.4 4 .9 4.5 4 6.9 8.4 6.7s6.9-2.4 7.5-7.1c.3-2.3.3-4.6 0-6.9-.6-4.5-2.7-6.6-6.6-6.8-5-.3-7.9 1.6-9.2 6-.2 1.4-.4 2.8-.5 4.1zm-141.1.1c-.1 11.2-7.4 18-19 17.9-10.5-.1-17.8-7.4-17.5-17.6.2-11.1 7.4-17.9 18.6-17.9 11 .1 18 7 17.9 17.6zm-17.9-10.1c-3.9 0-6.4 1.4-7.6 4.6-1.5 3.8-1.5 8 0 11.8 1.1 2.9 3.9 4.5 7.5 4.5 3.7-.1 6.1-1.6 7.2-4.7 1.1-3.4 1.3-7.1.4-10.5-.9-3.9-3.5-5.7-7.5-5.7zm-49-1.5c.5-.6 1-1.1 1.4-1.6 4.2-5.2 13.2-5.9 17.4-1.2 2 2.4 3.1 5.5 3.1 8.6.1 6.9 0 13.8.1 20.8 0 1.4-.4 2.2-2 2.1-2-.1-4-.1-6.1 0-1.6.1-2-.7-2-2.1.1-6.3.1-12.6 0-18.9 0-2.5-.9-4.7-3.3-5.7-2.2-1.1-4.7-.8-6.6.6-2.3 1.7-2.9 4.3-3 7 0 5.4-.1 10.9 0 16.3.1 2.2-.6 2.9-2.8 2.8-1.8-.1-3.6-.1-5.4 0-1.4 0-1.9-.6-1.9-2 0-10 .1-19.9 0-29.9 0-1.7.6-2.2 2.2-2.1 1.8.1 3.6.1 5.4 0 1.8-.1 2.6.4 2.4 2.3 0 .9 0 1.8.1 2.7l1 .3zm-42.6.8c.2-.8.5-1.6 1-2.3 4.3-4.9 11.3-5.9 16.1-2.3 2.6 1.9 3.6 4.8 4 7.9.3 2.1.4 4.2.4 6.3V160c0 1.9-.5 2.7-2.5 2.6-1.8-.1-3.6-.1-5.4 0-1.6.1-2.2-.5-2.1-2.2.1-5.5 0-11 0-16.6 0-1.1 0-2.2-.2-3.2-.5-3.2-2.2-5-4.8-5.2-3.5-.4-6.2 1-7.3 4.1-.4 1.2-.7 2.6-.6 3.9-.1 5.7-.1 11.4 0 17 0 1.8-.6 2.4-2.3 2.3-1.8-.1-3.6-.1-5.4 0-1.9.1-2.4-.7-2.3-2.5.1-9.7.1-19.4 0-29.2 0-1.7.4-2.4 2.2-2.3 1.9.1 3.7.1 5.6 0 1.6-.1 2.3.5 2.2 2.1-.1 1 0 1.9 0 2.9l1.4.8zm296.8-.6c.9-1 1.8-2.1 2.7-3 4.1-3.7 10.2-4.1 14.8-1 2.6 1.9 3.6 4.8 4 7.9.3 2.5.4 4.9.4 7.4.1 5 0 10.1 0 15.1 0 1.6-.5 2.4-2.1 2.2h-.2c-2.4-.1-5.6.7-6.9-.5s-.6-4.5-.6-6.9c-.1-3.9 0-7.8 0-11.6 0-1.2-.1-2.3-.4-3.5-.7-3.1-2.2-4.6-4.9-4.7-3.7-.2-6 1-7 4.1-.4 1.3-.6 2.6-.6 3.9-.1 5.7-.1 11.4 0 17 0 1.8-.6 2.4-2.3 2.3-1.8-.1-3.6-.1-5.3 0-1.9.1-2.3-.7-2.3-2.5.1-9.7.1-19.4 0-29.1 0-1.9.6-2.5 2.4-2.3 1.7.1 3.4.1 5.1 0 2-.2 2.7.7 2.4 2.6v2.5l.8.1zm-67.3-60.8c-.9 1-1.4 1.5-1.8 2.1-3.6 4.3-10.9 5.4-15.2 2.3s-5.3-9.5-2.1-14.4c1.7-2.5 4.4-4.1 7.3-4.5 3.2-.6 6.4-1 9.7-1.4 2.5-.4 3.2-1.5 2-3.8-.9-1.8-2.7-3-4.7-3-3.7-.2-7.3.5-10.7 2l-2.1.9c0-2.1-.1-3.9.1-5.7.2-.6.7-1.2 1.3-1.4 5.2-1.8 10.5-3 16-1.8 6 1.3 9.7 5.8 9.8 12.2.1 6.6 0 13.2.1 19.8 0 1.7-.6 2.2-2.2 2.2-1.4-.1-2.8-.1-4.2 0-2 .2-3.1-.4-2.9-2.7-.1-1-.2-1.9-.4-2.8zm-.2-10.7c-.7-.1-1.5-.1-2.2 0-1.8.2-3.5.5-5.2.9-3.1.7-4.8 3.1-4.1 5.7s3.6 4 6.5 3.2c4.2-1.1 6-4.6 5-9.8zm-72.6 74.5c0-2-.1-3.8.1-5.6.2-.6.6-1 1.1-1.3 5.3-1.8 10.6-2.9 16.2-1.7s9.2 5.2 9.4 10.9c.3 7.1.1 14.1.2 21.2 0 1.4-.5 2-1.9 1.9-1.5-.1-3.1-.1-4.6 0-2.1.2-2.9-.6-2.6-2.6 0-.8-.1-1.6-.3-2.4-1.3 1.2-2.3 2-3.1 2.9-3.5 3.5-7.6 3.6-11.9 2.1-4-1.4-5.9-4.8-6-8.9-.1-4.3 1.6-8.2 5.9-9.7 4-1.4 8.3-1.8 12.4-2.8 1-.3 2-.7 3-1.2-.6-1.5-.8-3.5-1.9-4.4-2.5-2-5.6-1.5-8.5-.9-2.7.8-5.1 1.6-7.5 2.5zm18.3 11.6c-.5-.8-1.1-2.4-1.6-2.3-2.8.2-5.5.6-8.2 1.3-2.4.9-3.6 3.6-2.6 6 .6 1.7 2.2 2.8 4 2.9 4.7.6 7.9-2.4 8.4-7.9zm-197.8 5.9c3.9.7 3.9.7 3.9 4.8 0 3.3 0 3.3-3.3 3.3h-12.6c-1.6 0-2.3-.6-2.2-2.2v-1.6c0-3.7 0-3.7 3.8-4.2 0-.8.1-1.6.1-2.4v-27c0-1.9-.4-2.5-2.4-2.9-3.1-.7-1-3.6-1.5-5.5-.3-1.2.1-2.1 1.7-2 4.9.1 9.8 0 14.7 0 .2 0 .5-.1.7 0 2.1 1.7.6 4 .9 6 .1.4-1 1.5-1.4 1.5-2.4-.2-2.6 1.1-2.6 3 .1 8.9 0 17.7 0 26.6 0 .8.2 1.7.2 2.6zm137.4-25.9c2.9 0 5.7.1 8.5 0 1.7 0 1.9 1.1 2.1 2.2 2.1 7.6 4.2 15.3 6.3 22.9.2.7.5 1.3 1 1.8.3-.7.6-1.5.8-2.2 2.1-7.6 4.3-15.1 6.3-22.7.5-1.7 1.3-2.2 2.9-2.1 2.5.1 4.9 0 7.7 0-1.6 4.5-3.1 8.6-4.6 12.7-2.4 6.3-4.8 12.6-7.1 19-.6 1.6-1.3 2.2-3 2.2-2.5-.1-5 .1-7.5-.1-1-.1-1.8-.7-2.3-1.6-3.8-10.4-7.5-20.9-11.2-31.4.1-.1.1-.4.1-.7zm91.8-10v8c0 1.5.5 2.2 2 2.1h.9c5.2 0 5.2 0 5 5.3 0 1.2-.4 1.9-1.7 1.8h-.5c-5.7.1-5.7.1-5.7 5.8 0 3-.1 6.1.1 9.1.2 4.4 2.2 5.9 6.6 5.2h1.2c0 1.8.1 3.6 0 5.4-.2.6-.6 1.2-1.2 1.5-4 1.9-11.1.7-13.8-2.7-1.3-1.8-2.1-3.9-2.3-6.1-.3-5.1-.2-10.3-.2-15.4 0-2.1-.6-2.9-2.8-2.8-3.1.2-3.1 0-3.1-3.2v-1.6c-.2-1.7.5-2.3 2.2-2.3 3.6 0 3.6 0 3.7-3.6 0-3.8 0-3.8 3.6-4.9 1.7-.5 3.4-1 5.2-1.5.2-.1.5-.1.8-.1zM388.8 61.4c0-4.9.1-9.8 0-14.7 0-1.7.5-2.4 2.3-2.2 1.8.1 3.6.1 5.4 0 1.7-.1 2.1.6 2.1 2.2v29.5c0 1.6-.6 2.2-2.2 2.2-1.7-.1-3.4-.1-5.1 0-1.8.1-2.5-.5-2.4-2.4 0-4.8-.1-9.7-.1-14.6zM526 145.5c0-4.7.1-9.5 0-14.2-.1-2 .4-3.1 2.7-2.8 1.5.2 2.9.2 4.4 0 2-.2 2.7.5 2.7 2.6-.1 8.4 0 16.8 0 25.1 0 6.2 0 6.2-6.3 6.2-3.4 0-3.4 0-3.4-3.4l-.1-13.5zM393.8 28.2c3.4 0 5.6 2 5.6 4.9s-2.3 5.1-5.5 5.1-5.9-2.3-5.9-5.2c-.1-2.5 2.7-4.8 5.8-4.8zM531 122.1c-3.3 0-5.8-2.2-5.9-5.1-.1-2.6 2.6-4.9 5.7-4.9 3.3 0 5.6 1.9 5.7 4.9-.1 2.9-2.5 5.2-5.5 5.1.1 0 0 0 0 0z" class="st0"/><path d="M132.4 62.1c-4.4-1.5-8.6-3.4-13-4.5-8-1.9-16.2-2.1-24.2.3-6.3 2-11.5 5.4-12.9 12.4s.3 13.5 6.5 17.7c5.2 3.5 10.9 6.4 16.4 9.7 6.5 3.8 13.3 7.1 19.3 11.6 11.1 8.3 15.7 18.6 11 33.4-2.7 8.4-9.2 13.7-17.4 16.7-10.3 3.8-21 4.3-31.7 2.5-4.9-.8-9.8-2.4-14.6-3.7-2.5-.7-3.8-2.1-3.6-5 .3-3.5.1-7.1.1-11 1.2.8 2.1 1.3 3 1.8 12.8 7.1 26.2 9.9 40.6 5.9 14.1-3.9 15.4-21.3 6.8-29-3.8-3.2-7.9-6-12.2-8.4-8.5-5-17.5-9.2-25.6-14.7-12.7-8.6-15.5-22.8-9.2-35.3 3.8-7.6 10.7-12.1 18.5-14.7 13-4.2 26.1-3.8 39.2-.2 2.3.6 3.1 1.8 2.9 4.2-.1 3.6.1 7.1.1 10.3z" class="st0"/></svg>