<svg xmlns="http://www.w3.org/2000/svg" role="img" viewBox="-56.40 -56.40 2932.80 747.80"><title>Smart Block Laboratory logo</title><style>svg {enable-background:new 0 0 2822.2 637.4}</style><linearGradient id="a" x1="219.691" x2="219.691" y1="622.882" y2="7.162" gradientUnits="userSpaceOnUse"><stop offset="0" stop-color="#005bf4"/><stop offset="1" stop-color="#008dfb"/></linearGradient><path fill="url(#a)" d="M304.2 5.7c28.2-10.7 60.9-5.9 86.3 9.9 3.5 1.8 6.8 4.1 9.7 6.7 3.7 2 6.2 5.5 9.2 8.3 3.1 3.5 7.2 6.2 9.4 10.4 1.4 1.5 2.7 3.1 3.8 4.9 1.1 1.5 2 3.1 2.9 4.7 4.4 6.8 7.2 14.6 9.5 22.3 2.3 9.8 4.5 19.8 4.3 30 .2 15.9-4.4 31.5-11.8 45.5-1.5 2.7-3.5 5.2-4.5 8.2l-1-.5-1.2 4.2-1.2-.5c-.3 2.7-3.1 4.1-4 6.5-3.5 4-7.5 7.5-11.1 11.4-1.3 1.3-2.6 3-4.6 3.1l.5.9c-1.8 1.1-4.1 1.9-5.3 3.7-2.3 1.6-4.7 3-7.1 4.2-13.5 8.8-29.9 12.9-45.9 13.2-11 1.9-22.1-1.1-32.6-4.2-18.6-6.6-36.7-16.1-56.9-16.6-5.7.6-11.5 1-17 2.9-4 1.1-7.5 3.5-11.6 4.6-1.9 1.4-3.8 2.6-6 3.5-2.2 1.1-4 3-6.5 3.5l.4.9c-1.3.6-2.5 1.5-3.6 2.3-3.4 1.9-5.8 5.1-8.6 7.7-2.6 2.8-5.7 5.2-7.8 8.5h-.7c-.7 2.5-3.2 4-4.2 6.4-.6.7-1.2 1.4-1.7 2.1-11.4 17.9-17.9 39-17.4 60.3.4 14.6 5 28.6 9.9 42.2l.9-.2c.3 2.8 2.3 4.8 3.5 7.3.7 1.2 1.5 2.4 2.2 3.5 2.6 3.7 5.2 7.6 8.6 10.7.5 1.3.9 2.7 2.5 3 .8 1.6 2 2.9 3.6 3.7 4.6 4.3 9.5 8.7 15 12.2l-.3.8c4.7 1.8 8.3 5.6 12.7 7.9 1.2 1.2 2.6 1.9 4.2 2.1l.1.8c3.1.8 5.3 3.6 8.5 4.1v1.3c.6-.1 1.7-.4 2.3-.5l.1 1.3c12.9 6.7 27.9 7.8 42.1 5.3 18.4-2.2 36.8-9 55.4-5.2 8.4 1.5 15.8 6 23.1 10.1l-.2.7c3.5 1.1 5.3 4.7 8.3 6.7 3.8 4.4 8.3 8.5 10.3 14.2.3.1 1 .3 1.3.4l-.4 1.5c5.4 8.6 7.2 19.1 8.2 29.1.5 15.3-3.5 31.1-12.4 43.6-1.8 2.4-4.4 4.1-5.6 6.9l-1-.2.1 1c-3.8 2-6 6-9.8 8.1-1.2.8-2.3 1.7-3.7 2.2l-.1 1.2c-.6-.1-1.8-.4-2.4-.5l.2 1.9c-.6-.2-1.9-.6-2.5-.9l.1 1.4c-18.9 8-40.4 6.2-59.7.4-18.8-6.1-39.9-3-56.9 6.7-1.7 1-3.3 2.1-5 3.1-1.2.9-2.2 2-3.7 2.2l.1.7c-1.7 1-3.2 2.3-4.6 3.7-1.4.5-2.9 1.1-2.8 3l-1.3-.4.4 1.3c-.4.2-1.3.4-1.7.6-4.2 5.8-9.3 11.2-12.1 17.9l-1.4-.3c.2.6.7 1.8 1 2.5l-1.5-.1c-.3 2-1.1 3.9-2 5.8-5.2 13.2-8 27.3-13 40.6l-1.4-.1c.2.6.6 1.9.8 2.5l-1.9-.1.4 2.4-1.1.2c-3.2 5.2-8 9.7-13.4 12.5-16 10-38.1 9.6-53.8-1.1-8.5-6-15.3-14.7-18.6-24.6-5.2-14.1-2.5-30.3 5.5-42.8 2.2-4.4 6.1-7.4 9.4-10.9 2.1-2.2 4.5-4.2 7.5-5l.1-1.2c.6.1 1.7.4 2.3.5l.2-1.3c7.5-3.1 15.6-2.6 23.5-3.2 10.1.8 20.3.6 30.4.7 7.8.2 15.6-1 23-3.1 3.2-.8 6-2.9 9.4-3.2l-.4-.9c1.2-.6 2.4-1.1 3.6-1.6 1.2-.7 2.5-1.3 3.7-2 3.5-2.1 7-4.4 10.3-6.9 5.2-5.2 10.5-10.2 14.5-16.5.8-1.2 1.5-2.3 2.3-3.5 6.2-11 10.3-23.3 10.7-36 .6-14.4-2.8-29-9.5-41.8-3.2-5.2-6.8-10.2-10.6-15.1-8-8.7-17.6-15.5-27.2-22.3-1.3-.6-2.6-1.2-3.9-1.7l.3-1c-4.2-1-7.5-4-11.2-5.9-9.6-4.5-18.9-10.6-29.7-11.7-23.7-3.8-46.5 5.8-69.6 9.1-12.1 2.2-24.8 1.6-36.3-2.7-9-2.6-17.7-6.8-25-12.8-6.4-5.3-12.6-11.2-17-18.2l-.9-.5-1.2-3.6-1 .1c-.9-2-1.9-3.9-2.9-5.9C2 306-1.4 288.9.5 272.4c1.6-10.7 4.1-21.4 9.2-31 1.7-4 4.7-7.2 6.6-11l.9.5c.1-2.1 1.8-3.3 3.1-4.6 5.7-5.3 10.6-11.7 17.6-15.5 2.6-1.9 5.4-3.4 8.3-4.7 14.5-7.6 31.4-10.3 47.5-7.4 19.2 2.6 38.3 7.3 57.8 6.7 9.8.2 19.7-1.4 29-4.7 2.8-1 5.3-2.5 8.3-3l-.2-.9c4-.7 7.3-3.1 10.9-4.8 1.6-1 3.3-2.1 4.9-3l2.1-1.8c1.9-.8 3.4-2.2 4.8-3.6 1.3-.5 2.5-1.1 3.1-2.4 5.7-4.5 9.6-10.7 13.6-16.6 9.2-14 11.2-31.5 8.2-47.7-2.9-20.9 1.3-42.6 10.9-61.3 3.5-7.5 9-13.9 13.4-20.9l.9.6c.2-2.4 2.3-3.7 3.7-5.3 2.4-2.2 4.4-5 7.5-6.4 1.9-1.8 3.6-4 6.1-4.9.6-.6 1.3-1.2 1.9-1.7 2.6-1.3 4.8-3.6 7.8-4.1l-.1-1.4c.6.1 1.9.4 2.5.6l-.1-1.4c4.9-1 8.8-3.9 13.5-5z"/><path fill="#28324d" d="M570.8 8.1C585.9-.6 603.9 0 620.7.3c28.1.1 56.3-.2 84.4.1 9.6.1 19.9 2.6 26.8 9.8 2.2 2.1 3.1 5.1 4.1 7.9 2.1 6.2 2.7 12.6 3.6 19.1-11.2 1.5-22.3 3.7-33.2 6.5.1-5.3.1-10.5.2-15.8-36-.3-72-.1-108-.2 0 10.7-.1 21.5-.1 32.2 41.9 2 84.2-2.9 125.9 3.4 6.5 1.7 10.3 7.8 15 12.2 1.3 21 1.4 42-.1 63-3.2 5.1-8.4 8.7-13.8 11.2-7.6 3.5-16.1 4.1-24.3 4-31.7.2-63.3.1-95 .1-7.1.1-14.2-.3-21.2-.9-7.9-.9-16.5-3.5-21-10.6-5.7-8.6-5.4-19.4-6.2-29.4 11.9-1.4 23.6-3.6 35.4-5.5 0 5.8-.1 11.6-.2 17.4 37.9-.4 75.9 0 113.8-.3-.2-11.3-.3-22.6-.3-33.9-38.3-1.5-76.7 1.1-115-1.5-8.4-.8-17.4-3.9-22.4-11.2-3.6-5.1-3.2-11.7-3.9-17.6-1.5-17.5-1.8-35.9 5.6-52.2zM805.6.3c10.3 0 20.6 0 31-.1 24.8 30.8 50.9 60.5 75.6 91.4 26-30 50.8-61.1 76.5-91.3h30.1c-.1 51.2 0 102.3 0 153.5H984c-.1-35.2.1-70.4-.1-105.5-24.7 29.4-47.6 60.4-72.6 89.7-21-21.6-40.2-44.9-59-68.5-5.5-6.8-10.6-13.8-16.3-20.4.7 34.9.3 69.9.3 104.8-10.2-.1-20.4 0-30.6-.1-.2-51.3-.1-102.4-.1-153.5zm352.2 0c11.9 0 23.8 0 35.8.2 31.4 50.9 62.4 102.2 93.7 153.2-13.9.1-27.8.1-41.7.2-6.9-11.2-14-22.4-20.1-34.2-34.2-.2-68.4.3-102.6-.3-6.6 10.6-13 21.4-18.2 32.8-12.9 2.5-26.2 1.6-39.3 1.4 31-51 61.3-102.5 92.4-153.3zm15.9 28.8c-12.3 21-23.8 42.3-36.7 63 24.4.4 48.8.4 73.2 0-13-20.5-23-42.8-36.5-63zM1325.9.3c49 .2 98-.4 147 .4 9.7-.1 19.2 4.7 24.8 12.6 2.6 3.9 5.2 8.3 4.8 13.1-.4 13.6.2 27.2-.6 40.8-.3 4.2.2 8.7-1.9 12.5-3.2 6.2-8.5 11.1-14.4 14.7-13.4 1.5-27 1.5-40.4 1.8 23.5 20 48.2 38.6 72.7 57.3-17.9.1-35.7 1-53.6-.3-22.9-17.7-43.3-38.4-65.2-57.4-12.3 0-24.6.1-37 0 .1 19.3 0 38.7 0 58h-36.3c.1-51.2.2-102.4.1-153.5zm36.9 27.6c-.8 13.4-.6 26.9-.7 40.3 30.1 3.3 60.4.5 90.5 1.8 3.7-.7 7-2.6 10.5-3.9.9-.6 2.5-.8 2.9-2 1.5-10.5 1.8-21.3-.3-31.8-6.9-5.8-16.4-4.5-24.8-4.8-26 .3-52-.2-78.1.4zM1545.9.2c62.5.1 125 0 187.5.1-.1 9.1 0 18.3.1 27.4-24.9 0-49.8-.1-74.7-.1v126.1c-12.7-.1-25.4-.1-38-.1-.1-41.9 0-83.9 0-125.8-24.9-.3-49.9-.3-74.8-.1-.2-9.1-.1-18.3-.1-27.5zM557.7 239.7c41 .1 82 0 123.1 0 7.8.1 15.6-.2 23.3.2 10.1.8 21.1 4.8 26.4 14 3.1 9.8 2.6 20.2 2.4 30.3-.4 5.5.3 11.5-2.7 16.4-3.3 5.2-8.9 8.6-14.6 10.7-2 .8-4.4 1.2-6 2.7 11.5 3.2 22.5 12 24.2 24.4.6 12.2 2.3 24.9-2.1 36.7-1.4 4.5-5.4 7.5-9.1 10.1-10.4 6.6-23 7.8-35 8.1H557.8c-.1-51.2 0-102.4-.1-153.6zm36.3 25c.4 12.5.3 25 .2 37.5 30.8-.7 61.6.6 92.4-.6 4.1.3 7.9-2.6 9-6.5 1.8-6.4-.2-13 .4-19.5.3-2.6-.1-5.5-2.3-7.2-4.4-3.8-10.6-3.4-16-3.4-27.8-.3-55.8.2-83.7-.3zm.3 62.1c-.1 13.1 0 26.2-.1 39.3 29.5-.5 58.9.6 88.4-.5 2.6-.2 5.6 0 7.9-1.6 2.9-1.9 5.3-4.6 7.9-7-.1-4.6-.2-9.1-.2-13.7.1-4.4-1.6-8.5-2.6-12.6-4.2-1.7-8.3-3.8-12.9-3.9-29.5-.1-58.9 0-88.4 0zm203.2-87c12.7 0 25.4 0 38.1.4-.2 41.4.1 82.8-.2 124.1 40.6-.3 81.2-.2 121.8-.2.2 9.7 0 19.5.2 29.2H797.6c-.1-51.2 0-102.4-.1-153.5zm228.8.4c12.5-.8 25-.2 37.5-.4 34.2.2 68.5-.5 102.8.4 8.2.1 16.7 3 22.5 8.9 3.7 3.6 6 8.6 6.3 13.7 2.1 28.8.5 57.6 1 86.4.3 11.7.4 24.7-7.2 34.4-3.2 4-8 6.4-12.9 7.6-8.3 2.1-16.8 2.2-25.3 2.1-41.7-.4-83.5.5-125.2-.5-7.7-.2-15.6-2.5-21.7-7.3-4.5-3.6-7.3-9.2-7.5-14.9-3-31.9-.5-64-1.4-96-.2-9.5 1.8-19.9 8.6-26.9 5.9-6 14.7-6.5 22.5-7.5zm7 28.6c.2 31.8.2 63.6 0 95.4 41.9-.3 83.8-.2 125.6-.2v-95c-41.9 0-83.7.1-125.6-.2zm245.7-27.3c7.9-2 16.1-1.4 24.2-1.7 27.2-.2 54.3 0 81.5-.1 9.1.2 18.4-.9 27.3 1.5 8.5 2.1 16.9 6.8 21.5 14.5.6 12 1.4 24 1.2 36-12.2 1.9-24.4 3.5-36.7 4.6-.1-9.2-.1-18.3.2-27.4-35 .1-69.9.1-104.9 0 .4 31.7.5 63.4 0 95.1 34.9-.1 69.9 0 104.8 0-.2-10.8-.6-21.6.2-32.4 12.3 1.4 24.1 5.8 36.3 7.5-.1 10.5-.3 20.9-.4 31.4-.1 1.8.1 3.7-.8 5.2-3.9 7-10.1 12.9-17.8 15.3-5 1.7-10.3 1.5-15.5 1.6-30.4 1.3-60.8.1-91.2.5-8.6.1-17.2 0-25.7-1-7.9-1.1-16.3-4.1-21-10.8-6.3-12.3-5.1-26.5-5-39.9-.2-9.4.2-18.8 0-28.2-.2-15.2-.8-30.4.6-45.6.4-5.3.7-10.9 3.8-15.4 4-5.8 10.7-9.1 17.4-10.7zm217.7-1.5c12.7-.3 25.5-.2 38.2-.3-.1 21.1 0 42.1 0 63.2 28.1-20.8 57-40.4 86.4-59.3 2.4-1.4 4.6-3.8 7.7-3.5 17.2-.7 34.4-.2 51.6-.1-35.6 23.7-72.4 45.5-106.4 71.5 39 27.7 78.3 54.8 118.1 81.3-18.2.5-36.3.7-54.5.4-5 0-9.3-2.7-13.2-5.5-29.8-21.5-60.1-42.3-89.7-64.1-.1 23.2 0 46.5 0 69.7-12.7-.2-25.4 0-38.1-.3-.1-51 0-102-.1-153zM562.4 483.7c12.7 0 25.5-.1 38.2 0-.2 41.5.3 83-.3 124.5 40.7-.5 81.4-.2 122.1-.3.3 9.5-1.3 20.2 5.1 28.1 30.1-50.9 61.3-101.1 90.9-152.4 12.6 1 25.8-2.7 37.9 2 30.8 50.5 61.3 101.1 92.6 151.2-14.2.2-28.4.3-42.6.2-6.7-11.1-13.1-22.5-19-34.1-34.4-.3-68.8 0-103.3-.2-6.7 11.3-13.1 22.8-19.6 34.2-67.4-.6-134.7.3-202.1-.1.1-50.9.2-102 .1-153.1zm270.5 33.4c-11.8 19.3-23 39-34.3 58.7 24.3 0 48.6.1 72.9-.2-11.2-19.9-22.2-39.9-34.1-59.3-1.6.2-3.1.5-4.5.8zm153.8-33.4c43.7 0 87.4-.1 131.1 0 8.7.2 17.6-.8 26 2 8.6 2.6 16.9 8.9 18.8 18.2 1.6 11.1 1.5 22.5.3 33.7-1 6.7-6.1 12.1-11.8 15.2-3.8 2.2-8.2 3.2-12.2 4.8 11.4 3.9 23.6 11.9 25.2 24.8.3 10.7 2.1 21.6-.5 32.2-1.5 6.3-5.8 11.7-11.5 14.8-10 6.1-21.9 7.5-33.3 7.8-43.9.1-87.8-.1-131.8-.1-.6-51.1-.2-102.2-.3-153.4zm37.7 24.9c.5 12.5.4 25 .3 37.5 28.4-.3 56.8 0 85.2-.1 5.6.1 10.7-2.3 15.9-4.1 0-9.3.2-18.6.1-27.9-4.6-1.9-8.8-5.1-14-4.9-29.2-.7-58.4.1-87.5-.5zm.4 62.1c-.1 13.1 0 26.3-.1 39.4 25.8-.2 51.6-.1 77.4 0 8 0 16.7.1 23.5-4.9.7-7.9 2.8-16 1-23.9-.8-3.9-3.3-7.3-6.5-9.7-31.7-2-63.5-.5-95.3-.9zm238.7-86.6c26.3-1.4 52.7-.2 79.1-.2 10.7.2 21.4-.3 32.1-.1 11.8.1 24.3-1.1 35.4 4 5.1 2.6 10.3 6.5 11.7 12.3 4.2 12.8 3.6 26.5 3.1 39.7-.1 12.3-.2 24.5 0 36.8.5 13.7 1 27.7-2.4 41.2-1.1 5.1-4 10-8.4 12.9-6.6 4.8-15 6.2-23 6.2-43.3.4-86.7.2-130 .1-8.1-.1-16.5-.9-23.8-4.6-4.2-2-7.9-5.2-9.9-9.5-2-3.8-2-8.3-2.4-12.5-2.1-26.4-.6-53-.7-79.5 0-10-1.3-20.4 2.3-30 2.4-7.1 8-13.5 15.6-15 7-.9 14.2-1.2 21.3-1.8zm-3.3 28.8c.3 31.7.4 63.4 0 95.1h127.2v-95c-42.3-.1-84.8-.1-127.2-.1zm229-29.2c42.6.1 85.2 0 127.8 0 9.9.1 20-.7 29.6 2.3 5.2 1.7 10.4 4.3 13.7 8.8 5.1 7.8 5.2 17.6 5 26.6-.5 12 .7 24-.9 35.9-.9 7.4-5 14.9-12.1 17.9-13.7 6.3-29 3.3-43.5 4.3 23.5 19.9 47.5 39.3 72.9 56.8-18.5 1.1-37.1 1.2-55.7.3-20.1-19.4-41.9-36.9-62.2-56.1-1.5-1.9-3.9-1.2-5.9-1.3-10.6.1-21.1.1-31.7-.2.1 19.4 0 38.7.1 58.1h-37c-.1-51.1 0-102.3-.1-153.4zm37 27.2c.2 14.1-.1 28.3-.1 42.4 33.7-1.6 67.8 3.2 101.2-3.2 1.9-6.2 4.3-12.5 3.4-19.1-.4-5.5-.9-11.2-3.4-16.2-5.4-4.2-12.6-3.6-19-3.9-27.3.1-54.7.3-82.1 0zm264.8-27.2c12-.1 24.1 0 36.2.2 31 51.1 62.3 102.1 93.5 153.2-14.2-.7-28.7 1.8-42.7-1.5-7.1-10.6-13.1-21.9-19.5-33-34.1.5-68.2.5-102.2 0-7.6 11-12 24.1-21.3 33.9-11.9 1.2-23.9.4-35.9.4 30.3-51.2 61.2-102.1 91.9-153.2zm11.3 36.9c-10.7 18.3-20.6 37.1-32 55 24.4.3 48.8.3 73.1 0-2-4.4-4.9-8.3-7.2-12.5-9.7-16.8-18.8-33.9-28.6-50.6-2.2 2.3-3.6 5.3-5.3 8.1zm111.5-37c62.5.1 125 0 187.6 0-.1 9.1 0 18.3 0 27.4-25-.1-50-.1-75 0-.1 42 0 84 0 126-12.6.1-25.2-.1-37.8-.5.8-25.2-.9-50.4.5-75.6.2-4.8 1.2-9.6.8-14.4-1.9-11.7-1.2-23.7-1.1-35.5-25-.1-50-.1-75 0-.1-9 .2-18.2 0-27.4zm262.2.6c8.9-.8 17.8-.4 26.7-.5 32 0 64-.1 96 0 9.8.3 20-.9 29.5 2.3 7.7 2.3 15 7.9 17 16 2.1 9.9 2 20 2.1 30.1-.4 11.9-.2 23.9-.3 35.8-.1 13.8.9 27.5-.5 41.3-.6 4.7-1 9.6-3.4 13.8-4.7 8.6-14.6 13.3-24.1 13.6-42.3 1.1-84.7.2-127 .5-11.4-.5-23.6.3-33.9-5.4-6.9-3.5-10-11.3-11.1-18.5-1.3-10.5-.9-21.1-.9-31.7.1-22.6-.5-45.3.4-67.9-.3-8.4 2.6-17.2 9.1-22.9 5.6-4.9 13.3-5.6 20.4-6.5zm8 28.6c.2 31.8.3 63.6 0 95.4 41.9-.3 83.8-.2 125.7-.2 0-31.7-.1-63.3 0-95-41.9-.1-83.8 0-125.7-.2zm227.6-29.1h129.5c8.8.1 17.7-.6 26.3 1.8 6.8 1.8 13.5 5.6 17 11.9 2.9 8.3 3.3 17.2 3.7 25.9-.1 7.4.5 14.9-.6 22.3-.9 6.5-1.4 12.9-2 19.4 0 1.7-1.5 2.8-2.5 4-4.5 4.5-10.4 7.3-16.6 8.7-11.7 2.7-23.7 1.1-35.5 1.7 23.7 19.9 48.3 38.7 72.9 57.5-18.5-.7-37.2 2.3-55.5-1.4-21.6-18.2-42.5-37.2-63.2-56.4-12.3.2-24.6.1-36.9 0 .1 19.3.1 38.7.1 58-12.2-.1-24.5-.1-36.7-.1-.1-51.1.1-102.2 0-153.3zm36.7 27.3c0 14.1 0 28.1-.1 42.2 34.6-1.6 69.8 3.7 104-3.7-.5-9.1 2.2-18.1.8-27.2-.7-5.4-5.2-10.2-10.8-10.6-31.3-1.6-62.6-.1-93.9-.7zm166.3-27.2c15.6.9 31.3-1.8 46.8.6 2.2.5 4.9.5 6.6 2.4 18.2 17.6 35.4 36.3 53.4 54.1 18.9-19.1 37.8-38.2 56.9-57.2h44c-28.6 28.4-57.5 56.4-85.3 85.4.1 22.7.3 45.4 0 68.1-12.6-.1-25.1 0-37.7-.4.1-23.1 0-46.2.1-69.2-28.1-28.2-56-56.5-84.8-83.8z"/></svg>