<svg xmlns="http://www.w3.org/2000/svg" role="img" viewBox="75.72 -1.77 248.30 248.30"><title>Software Engineering Lab of Zhejiang University logo</title><style>svg {enable-background:new 0 0 400 245}</style><style>.st20,.st21{fill:#004687}.st21{fill-rule:evenodd;clip-rule:evenodd}</style><path d="M200 3.21c65.7 0 119.29 53.59 119.29 119.29S265.7 241.79 200 241.79 80.71 188.2 80.71 122.5 134.3 3.21 200 3.21m0 4.76c-63.08 0-114.53 51.45-114.53 114.53S136.92 237.03 200 237.03s114.53-51.45 114.53-114.53S263.08 7.97 200 7.97" class="st20"/><path d="M158.1 173.34c-7.46-6.18-13.57-13.95-17.75-22.8-4.03-8.52-6.28-18.03-6.28-28.04 0-36.31 29.62-65.93 65.93-65.93s65.93 29.62 65.93 65.93c0 10.02-2.26 19.52-6.29 28.04-4.18 8.85-10.28 16.62-17.75 22.8l-1.51-1.83c7.21-5.95 13.08-13.45 17.12-21.98 3.87-8.2 6.05-17.37 6.05-27.03 0-35-28.55-63.56-63.55-63.56s-63.55 28.55-63.55 63.56c0 9.66 2.17 18.83 6.05 27.03 4.03 8.53 9.91 16.03 17.12 21.98l-1.52 1.83z" class="st20"/><path d="M97.85 162.32l-4.5-12.07 2.46-.86 20.62 3.14-3.15-8.46 2.45-.85 4.12 11.05-2.46.85-20.61-3.13 3.52 9.47zm7.85 16.45l-1.24-2.4 9.7-4.99-3.08-5.98-9.69 4.98-1.25-2.41 20.73-10.66 1.24 2.41-8.73 4.49 3.07 5.98 8.74-4.48 1.24 2.41zm9.83 13.14l-7.37-10.29 19.44-12.07 7.02 9.78-2.16 1.34-5.35-7.46-6.03 3.75 4.91 6.85-2.16 1.34-4.91-6.86-6.93 4.31 5.7 7.97zm16.52 16.16l-2.46-2.08 14.31-17.58 2.47 2.08zm11.09 7.74l2.93-6.23-3.56-2.58-5.28 5.15-2.43-1.87 16.78-16.57 3.36 2.05-8.93 21.67-2.87-1.62zm4.28-9.27l3.5-8.04-.32-.27-6.04 6.16 2.86 2.15zm12.53 17.4l-3.03-1.41 1.77-16.16-6.63 13.59-3.02-1.39 10.51-20.81 2.74 1.26-1.27 15.36 6.83-12.68 2.54 1.05zm15.65 4.68l-1.96-.64.18-1.83c-.45.4-1.06.65-1.81.76-.76.12-1.52.05-2.28-.2-1.62-.53-2.8-1.79-3.58-3.8-.78-2-.62-4.78.46-8.3 1.18-3.84 2.65-6.52 4.38-8.03 1.73-1.5 4.36-2.34 6.69-1.6 2.51.8 4.13 3.88 3.42 8.15l-2.99-.25c.51-1.82.25-4.67-1.54-5.25-1.45-.47-3.06-.02-4.1 1.13-1.03 1.15-2.03 3.31-3.02 6.52-.93 3.02-1.2 5.24-.78 6.63.41 1.4 1.12 2.26 2.12 2.59 1 .32 1.9.19 2.72-.41.82-.57 1.48-1.71 1.98-3.34l.42-1.35-3.58-1.15.73-2.33 5.87 1.91-3.33 10.79zm31.01-5.14c-.07 2.1-.63 3.74-1.68 4.94-1.05 1.18-2.67 1.73-4.86 1.65-2.19-.08-3.77-.75-4.75-2.02-.96-1.26-1.42-2.94-1.36-5.04l.52-15.88 2.79.11-.52 15.87c-.05 1.5.25 2.6.87 3.32.63.73 1.46 1.11 2.52 1.15 1.05.04 1.92-.29 2.59-.96.67-.68 1.03-1.75 1.08-3.24l.51-15.87 2.8.1-.51 15.87zm15.92 4.23l-2.49.39-7.87-15.16 1.2 16.27-2.97.43-1.74-22.82 3.42-.32 6.49 10.63-1.21-11.44 2.48-.42zm8.52-2.38l-2.92.88-6.09-21.59 2.93-.89zm7.9-27.37l3.69 23.84-2.88 1.42-12.63-20.24 2.77-1.17 8.78 13.81-2.43-16.49zm23.45 13.51l-10.66 5.77-11.6-19.93 10.13-5.47 1.29 2.2-7.73 4.19 3.59 6.17 7.11-3.83 1.29 2.21-7.11 3.84 4.15 7.11 8.25-4.47zm12.14-8.51l-2.34 2-8.26-6.84-2.14 1.93 5.58 7.59-2.34 2.45-13.67-19.19 4.36-3.12c1.39-1 3.22-1.71 4.87-1.52 4.26.51 6.07 3.38 5.88 6.71-.06 1.06-.12 2.08-.54 3.13l8.6 6.86zm-14.73-13.52c-1.73-.47-3.11.87-4.36 1.83l4.54 6.01c1.39-1 2.04-1.21 3.09-3.03.46-2.17-.51-4.06-3.27-4.81" class="st21"/><path d="M281.91 184.43c4.76 2.88 3.65 10.99-2.61 11.94-1.69.25-3.67-.26-4.52-.79l1.07-2.43c1.04.23 2.08.6 3.06.41 4.06-.77 3.88-4.99 1.52-6.73-.82-.62-2-.69-2.98-.57-2.73.3-4.49 2.34-7.54 2.53-3.33.21-5.65-1.82-6.2-5.07-.29-1.71.12-3.37.98-4.72 1.76-2.76 5.5-3.14 8.23-1.53l-1.06 2.51c-1.47-.78-4.09-.78-5.07.76-.52.8-.7 1.62-.54 2.47.34 1.83 1.59 2.9 3.35 2.68 2.96-.36 4.96-2.79 7.87-2.7 1.39.05 3.04.39 4.44 1.24m10.05-2.96l-1.71 2.11-19.65-12.33 1.72-2.1zm-9.91-24.85l-2.17 4.03 18.55 10.91-1.24 2.32-18.57-10.91-2.17 4.02-2.31-1.36 5.59-10.38zm3.4-15.34l11.32 10.12 7.56 3.24-.92 2.55-7-2.72-16.13-.37.78-2.58 11.25.18-7.97-7.33zm-155.13 56.64c-2 2-3.86 3.02-5.61 3.09-1.73.06-3.3-.63-4.72-2.07-1.28-1.31-1.92-2.83-1.91-4.58.01-.89.27-1.79.77-2.73l2.55 1.56c-.23.44-.34.85-.34 1.26-.02.95.26 1.74.87 2.36.86.87 1.77 1.27 2.71 1.19.95-.08 2.1-.79 3.45-2.14l11.34-11.22 2.12 2.15-11.23 11.13zm38.55-3.93l-7.94-4.92.72-1.24 2.95 1.83 4.72-8.23-2.95-1.83.64-1.11c1.12.69 2.01 1.08 2.67 1.16.66.1 1.22-.17 1.67-.79l1.7 1.05-6.35 11.05 2.88 1.79-.71 1.24zm23.69-5.01c.13-.63-.09-1.2-.66-1.72-.57-.51-1.45-.84-2.6-1-1.06-.15-1.97-.08-2.73.2s-1.2.74-1.33 1.39c-.1.46 0 .88.29 1.25.27.37.73.74 1.38 1.09.27.15.7.37 1.28.64.59.28 1.12.49 1.62.68.93-.3 1.59-.66 1.98-1.07.4-.41.65-.9.77-1.46m-1.03 7.1c.12-.58.04-1.07-.24-1.45-.29-.4-.9-.83-1.83-1.32-.3-.16-.72-.35-1.24-.57-.52-.22-1.12-.47-1.77-.75-.88.24-1.59.56-2.12 1.03-.53.45-.86.99-1 1.64-.18.86.09 1.61.77 2.27.68.67 1.62 1.08 2.82 1.25 1.23.17 2.26.06 3.1-.31.84-.37 1.34-.97 1.51-1.79m-4.93 3.5c-1.08-.15-2.05-.39-2.9-.72-.85-.33-1.54-.74-2.09-1.21-.53-.47-.9-.99-1.13-1.55-.2-.56-.24-1.13-.14-1.72.16-.76.62-1.42 1.38-1.97.75-.55 1.77-.93 3.04-1.14l.02-.06c-.99-.56-1.69-1.1-2.12-1.65-.42-.55-.55-1.18-.41-1.9.21-1.07 1.01-1.86 2.4-2.39 1.38-.53 3.02-.67 4.92-.4 1.99.28 3.51.83 4.57 1.67 1.06.83 1.48 1.78 1.27 2.82-.13.64-.54 1.22-1.24 1.76s-1.62.9-2.77 1.1l-.01.05c1.19.57 2.06 1.17 2.6 1.81.54.64.73 1.39.56 2.25-.25 1.21-1.13 2.12-2.64 2.75-1.51.61-3.28.78-5.31.5m27.48-8.71c0-.97-.13-1.76-.4-2.37-.28-.61-.64-1.08-1.11-1.41-.42-.31-.84-.51-1.28-.64-.43-.11-.9-.16-1.42-.16-1.19 0-2.12.28-2.81.85-.71.56-1.05 1.37-1.05 2.44 0 .6.1 1.1.33 1.49.23.39.61.72 1.13 1 .36.19.78.33 1.24.4.46.07.95.1 1.48.1.62 0 1.28-.07 1.99-.21.71-.15 1.33-.34 1.85-.57.01-.1.03-.22.04-.38 0-.16.01-.34.01-.54m-11-1.22c0-.74.18-1.41.54-2.01.37-.61.86-1.14 1.48-1.58.59-.42 1.32-.75 2.18-.98.86-.24 1.73-.36 2.61-.36.98 0 1.88.12 2.68.34.8.22 1.49.54 2.08.96.74.52 1.31 1.21 1.72 2.05.4.85.61 1.93.61 3.23 0 1.18-.2 2.3-.6 3.36-.4 1.06-.98 1.94-1.75 2.64-.83.74-1.82 1.31-2.97 1.7-1.16.38-2.58.58-4.28.58-.38 0-.79-.02-1.22-.03-.43-.04-.84-.09-1.21-.16v-1.84h.15c.24.09.61.19 1.12.26.5.08 1.02.12 1.55.12 1.88 0 3.36-.41 4.43-1.24 1.07-.82 1.68-2 1.82-3.54-.76.35-1.5.6-2.19.76-.69.16-1.45.24-2.27.24-.8 0-1.51-.06-2.16-.17-.65-.12-1.31-.34-1.97-.67-.78-.38-1.35-.88-1.74-1.48-.41-.62-.61-1.34-.61-2.18m31.14-12.21l-.53 14.72-2.25 1.42.2-13.92-8.6 4.17-.76-1.65 10.81-5.62 1.13.88z" class="st21"/><path d="M238.91 58.31c-1.73-.83-.51-1.14-.41-2.77.08-1.4-.82-3.01-.54-4 .75-2.65 4.15-1.65 6.03-.28.33.24.63.9.88 1.55.61 1.61 1.24 3.88-.6 5.03-1.6 1.01-3.86 1.2-5.36.47m-20.02-7.84c-.05-.04-.11-.08-.16-.12.06-.21.12-.4.18-.57.62-.07 6.36-2.1 6.37-2.23 1.74-.79 3.33-1.76 4.19-3.5-3.83.28-7.82 2.06-11.56 1.43-1.61-.84-2.55-2.05-3.62-2.86.02-.08.03-.14.04-.2-1.64-1.75-1.41-3.42.91-3.61 3.49 1.73 9.8.47 13.61 0 .87-.16 3.31-.41 4.1-.98 2.01-4.68 2.67-9.7 4.09-14.3 2.02-3.08 3.56-.28 5.24 1.92.07.31.47.74.75 1.48.06.01.11.02.2.04.55 1.62.64 2.32-1.06 3.31-1.48 2.06-2.55 4.48-3.08 7.17 2.62.26 4.71-1.59 7.66-.92.37 1.54.01 2.68-1.57 3.49-2.4.51-4.96.86-7.66 1.38-1.16 2.33-2.88 5.1-5.11 6.68-.32.24-1.87 1.09-2.21 1.2-1.8.53-3.49 1.29-5.33 1.36-5.09.16-5.09-.09-5.98-.17" class="st21"/><path d="M160.78 67.46c-2.12-.12-4.59-1.65-6.09-2.62-.02-.54-.06-1.09-.04-1.62 2.98-4.82 6-9.42 8.35-14.68.45-2.24 1.23-4.7 1.79-6.95.04-.06.1-.12.19-.16-.04-.08-.07-.13-.09-.19.75-1.26 1.11-1.67 2.58-.65.53 1.13-1.07 3.19-1.29 4.53 0 2.39-.09 4.85-.31 7.37-.18.51-.18.51-.66 3.26-.8 1.31-1.4 4.23-1.49 5.86-1.03 1.3-.67 3.88-1.96 5.33-.36.16-.67.34-.98.52m19.11-24.62c-2.65.91-4.04-.47-6.06-1.42-.32-.68-.06-1.25-.19-1.74.59-.41.59-.41.89-.82 1.04-.57 1.45-.68 2.61-1.21 1.36-.93 4.17-5.09 5.9-4.46 1.44 3.08-.76 7.64-3.15 9.65m-21.98 2.87c-1.34-.48-3.11-4.42-3.69-5.67-.15-2.54 2.08-3.51 4.54-2.8 2.28 1.39 3.62 1.8 2.96 4.73-1.16 2.24-1.92 2.66-3.81 3.74m18.54-9.55c-.75-1.11-.09-4.4-.82-4.85-.6.35-1.15.84-1.8 1.14-1.87-.14-4.34-1.38-4.29-3.1.64-1.77.33-1.26 2.09-2.09 1.42-1.44 2.85-2.86 4.3-4.3 2.71-1.68 4.69-.62 5.99 2.18.21 2.06-.45 4-1.09 5.94-1.22 1.45-2.25 2.94-3.3 4.42-.38.21-.73.44-1.08.66m-19.25-1.99c-.82-.3-.68-.69-.57-1.37-.55-1.18-1.66-1.87-2.19-3-.45-2.28-1.16-2.9.2-4.6 1.61.06 7.33.63 7.24 3.75-.64 2.17-2.87 4.25-4.68 5.22" class="st21"/><path d="M127.87 112.8c-2.47 1.71-8.43.58-7.64-2.98-.34-.34-.53-.97-.41-1.38-.08-.05-.13-.08-.18-.1-.63-3.74-2.65-7.29-3.75-10.81-.58-1.11-1.27-1.97-.83-3.18.82-.21 1.73.68 2.42 1.37.36-.08.77-.99.94-1.57-.27-2.47-.07-5.32-.41-7.85-.64-.54-1.27-1.11-1.87-1.67-.49 1.27-2.1 5.41-3.52 3.18.39-1.7.63-4.52-.32-6.23-1.23-1.34-2.99-2.27-3.53-3.73.25-2.04 3.37-2.51 5.19-1.7 1.47.12 1.45-2.65 3.12 1.94.04.75.76 1.21 1.58 1.64.13-.16.27-.32.39-.49-.04-1.95-.07-4.08.1-6.16-1.83-1.84-3.36-3.38-4.44-5.62 0-2.14 2.43-3.38 4.54-4.01.68-1.15.69-2.14.65-3.62.14-.47.14-.47.65-1.2.73.06 1.33.32 2.15.8 1.67 2.18-1.85 8.81 1.46 9.34.67-1.12-.26-2.3-.76-3.22.19-1.65 2.73-3.71 4.52-4.34 2.65-.23 2.49 1.26 2.51 3.54.12.32.25.63.38.92 3.36 2.45 3.36 2.45 8.04 5.61.89 1.4 1.24 2.2 1.59 3.86.05.02.11.06.15.09-.04.08-.07.12-.11.18.63 1.31.66 3.47-.92 3.67-3.83-2.6-7.63-5.54-11.36-7.91-.04.08-.07.17-.07.24 1.67 1.55 3.88 5.81 3.94 8.19-.92 1.53-2.61 2.16-4.15 1.74-.27-.41-.17-.76-.22-1.24-1.13-1.99-4.42-3.89-6.08-5.02-.64 1.31.67 5.17 1.07 6.75.07.93.12 1.88.2 2.79 1.13 1.4 2.3 2.68 3.56 4.09.46.79.93 1.6 1.42 2.41-.04.07-.08.12-.1.18.55 1.19 1.77 4.69-.51 4.71-.23-.13-.42-.26-.62-.41-.71-1.81-2.1-3.77-3.59-4.84-.53 1.79.15 3.68-.77 5.2-.75.73-1.59 1.39-2.26 1.76-.08-.05-.12-.08-.18-.1-.46.2-1.04.34-1.1.61.64.83 1.31 1.68 1.99 2.51 2.11 3.68 4.46 6.91 7.25 10.27.2.87.15 1.12-.11 1.79m-16.19-15.35c-.97 0-1.46-1.15-2.2-1.69-2.65-.76-4.65-1.29-5.52-3.93.11-.24.25-.48.38-.71 1.39-.51 3.96-.83 5.69-.91 3.3.73 2.18 4.86 1.65 7.24m-6.93-7.8c-.56.42-.67.32-.94.3-.35-.62-.49-1.08-1.1-1.34-2.93-.07-5.96-2.27-5.42-5.25.53-.61 1.11-.24 2.23.09 2.47-.49 6.15-2.03 6.3 1.93-.25 1.43-.7 2.9-1.07 4.27" class="st21"/><path d="M256 93.41l-29-.02c-8.46 0-12.8 8.29-16.01 15.8l-4.89-11.01 8.21-3.03c-4.81-4.55-19.78-7.03-21.75-.18l-3.53 14.21c-2.79-6.4-6.72-15.76-15.59-15.77h-29.43c3.83 6.77 7.48 9.2 21.02 8.62l1.77 4.66-14.84.08c4.38 8.08 6.91 8.42 18.86 8.08l2.53 5.58-11.67.42c2.51 5.71 5.14 8.16 15.16 7.7l1.95 4.95-9.29.05c3.49 5.75 5.21 8.39 12.57 7.74l1.98 5.39h-6.44c2.78 6.21 6.02 6.47 9.97 7.09 3.55.55 4.06 7.21-.08 9.34l12.5 20.27 12.5-20.27c-4.16-2.14-3.64-8.79-.08-9.34 3.96-.62 7.19-.87 9.96-7.09h-6.42l1.97-5.39c7.35.65 9.08-1.99 12.57-7.73l-9.28-.06 1.95-4.95c10.02.47 12.66-1.99 15.16-7.7l-11.67-.41 2.53-5.58c11.95.33 14.48 0 18.86-8.09l-14.85-.06 1.78-4.67c13.52.56 17.18-1.87 21.02-8.63m44.18-13.89l.11-.26c.42-1.04.4-1.47.3-1.65-.13-.25-.59-.38-1.31-.56-.19-.05-.41-.09-.66-.12l-.4-.06-.13-.29c-.14-.15-.28-.3-.46-.43l-.56-.19-.13-.06.73-.55c.51-.39 1.09-.58 1.74-.79l.06-.16.28.11c1.03-.89 1.7-2.19 1.8-3.54-.31-.43-.84-.63-1.63-.63-1.02.02-2.26.41-3.36.75-.68.21-1.52.48-2.26.62l-.26-.12c-1.86-.89-1.93-.93-5.81-2.97-.27.18-.5.46-.62.77-.23.56-.2 1.19.11 1.78l.36.28.03.03.01.01-.92.49c-.21.12-.26.14-.23.14h.01l-.27.25c.03.1.09.28.23.52l.07.41c-.02.36-.08.51-.38.85l-.11.44-.02.05h-.01l-.57-.45c-.74-.58-.81-.64-1.36-1.15-.15-.03-.29-.04-.46-.04-.42.02-.76.15-.91.35-.16.23-.14.52.03.93l-.06.22c-.13.56-.6 1.5-2.32 1.52l-.89-.02c-.17 0-.34.01-.62.14-.01 1.17.5 1.26 1.74 1.45.46.07.96.15 1.62.31.12-.05.23-.06.35-.06.26 0 .47.11.72.23l.92.36.32.09.15.07-1.12.55c-.43.21-.71.36-1.13.8-.08.32-.24.63-.51.95l-.04.26-.46-.11c-.83-.2-1.66-.42-2.5-.63l-1.28-.34c-2.28-.59-5.11-1.34-7.77-1.8-.63-.23-1.24-.34-1.86-.46l-1.26-.15-.06.36c.31.24.72.55 1.36.95l.08.21c.36.87.95 1.97 2.34 2.74.91.16 1.87.27 3.01.4 3.32.39 6.75.78 9.45 2.8l.7.36.17-.01.03.01-1 .5c-.25.13-.48.27-.79.54l-.31-.07c-3.2-.7-3.2-.7-4.35-1.07-1.15-.74-1.72-.97-2.32-.97-.46.01-1.01.21-1.93.75-.06.03-.09.04-.14.07l-.05.04c-.03.02-.05.03-.08.05l-.32-.13c-.35-.13-.37-.13-1.33-.27-.89-.31-1.8-.61-2.78-.93-2.76-.9-5.62-1.84-8-3.41-.7-.58-1.17-1.12-1.55-1.58-.12-.15-.21-.24-.28-.24h-.03l-.23-.3c-.18.06-.47.32-.95.84-.51 1.57.91 5.32 2.19 6.41.9.39 1.85.57 2.86.76 1.68.32 3.42.64 5.08 2.03l.45.11.04.02v.01l-.42.57c-.55.71-1.18 1.31-1.9 1.96l-.32.27c-.21.17-.42.35-.57.54l-.32.03c-.23.04-.44.06-.73.07-1.23 0-2.3-.6-3.23-1.12-.31-.17-.61-.34-1.04-.44l-.17.32c1.28 2.21 3.05 4.23 5.38 6.17l.2.32c.28.15.57.23.87.23h.04c1.67-.03 3.49-2.34 4.83-4.03.29-.37.56-.7.86-1.03l.33-.25c1.27-.93 1.35-1.01 1.31-1.02l.31.09c1.07.29 1.75.7 2.77 1.27 1-.43 2.01-1.45 1.92-2.53l-.41-.38c-.6-.55-1.19-1.1-1.81-1.65l-.33-.03.21-.51c.22-.54.55-.86.98-1.29l.04-.21.42.1c1.8.41 3.41.91 5.38 1.51l1.72.56.43.32c.99.74 1.7 1.27 2.82 1.27.18 0 .34-.02.63-.11 1.06-1.09 1.66-1.82 2.08-2.66v-.01c.01-.03.03-.04.04-.06-.33-.48-.48-.62-.54-.63l.31-.37c.1-.12.21-.21.51-.39 2.92-.93 6.08-2.07 8.4-2.91 1.4-.88 1.54-.97 1.05-2.27-.07-.21-.18-.47-.35-.82m-11.35 1.73l.47-.43c.65-.6.94-.89 1.01-1.18-.03-.12-.16-.26-.46-.47l-.15-.03c-.09.01-.18.03-.31.03-.52 0-.84-.25-1.02-.46l-.22-.17.02-.25.19-.59-.11-.04.64-.21c2.13-.7 2.13-.7 2.49-.91l.16-.28.42.35c.45.38 1.94 1.75 2.17 3.47l-.21.25c-1.14 1.36-2.68 1.6-4.18 1.65l-.4.09-.21-.63-.28-.18-.02-.01z" class="st20"/><path d="M276.44 76.13c-.65 0-1.25-.19-1.8-.59-.35-1.38.68-2.87 1.43-3.96.26-.37.46-.66.61-.91l.12-.32.25-.48c.3-.59.59-1.17.88-1.82.11-.34.19-.66.27-.97.46-1.8.8-2.94 1.71-3.26.7.12 1.05.22 1.22.47.17.26.11.63-.03 1.31l-.12.25c.1.24.14.54.19.85.2 1.07.25 2.17.14 3.18l-.05.41c-.06.39-.17.72-.28 1.07-.42 1.29-.88 2.75-1.83 3.6l-.39.35-.25.15c-.64.42-1.34.64-2.01.65h-.06z" class="st20"/><path d="M276.44 76.08h.06c.66-.02 1.35-.24 1.98-.65l.25-.15.39-.35c.93-.84 1.39-2.28 1.81-3.57.11-.34.22-.67.28-1.06l.05-.4c.12-1.11.05-2.2-.14-3.17-.04-.31-.08-.61-.13-.9l-.05.01.12-.23c.13-.65.2-1.03.04-1.27-.16-.23-.49-.34-1.15-.46-.88.32-1.21 1.41-1.64 3.11-.09.35-.18.7-.31 1.09-.28.66-.58 1.23-.88 1.82l-.26.47-.12.33c-.15.26-.35.55-.6.91-.75 1.08-1.77 2.56-1.45 3.88.52.39 1.11.59 1.75.59m-6.39-1.59c-.32 0-.72-.18-1.46-.65-.98-2.22 2.53-4.71 2.93-4.99.57.13.89.44 1.09.98.4 1.12.11 2.7-.65 3.61-1.07.73-1.51 1.03-1.91 1.04z" class="st20"/><path d="M270.05 74.43h.01c.38-.01.83-.31 1.86-1.02.75-.89 1.03-2.45.64-3.54-.19-.52-.49-.83-1-.97-.4.28-3.87 2.76-2.93 4.89.71.46 1.11.64 1.42.64" class="st20"/></svg>