<svg xmlns="http://www.w3.org/2000/svg" role="img" viewBox="4.38 11.38 187.98 61.98"><title>Sollers College logo</title><path d="M86 54h1v1h-1zm20 0h1v1h-1zm15 0h1v1h-1zm29 0h1v1h-1zm17 0h1v1h-1zm2 0h1v1h-1zm14 0h1v1h-1zm-99 1h1v1h-1zm5 0h1v1h-1zm15 0h1v1h-1zm28 0h1v1h-1zm32 0h1v1h-1zm3 0h1v1h-1zm3 0h1v1h-1zm-88 1h1v1h-1zm2 0h1v1h-1zm18 0h1v1h-1zm53 0h1v1h-1zm32 0h1v1h-1zM83 57h1v1h-1zm35 0h1v1h-1zm31 0h1v1h-1zm32 0h1v1h-1zm-98 1h1v1h-1zm28 0h1v1h-1zm-1 1h1v1h-1zm37 0h1v1h-1zm2 0h1v1h-1zm11 0h1v1h-1zm19 0h1v1h-1zm2 0h1v1h-1zm-63 1h1v1h-1zm17 0h1v1h-1zm19 0h1v1h-1zm-72 1h1v1h-1zm36 0h1v1h-1zm32 0h1v1h-1zm29 0h1v1h-1zm5 0h1v1h-1zM80 62h1v1h-1zm2 0h1v1h-1zm36 0h1v1h-1zm44 0h1v1h-1zm8 0h1v1h-1zm3 0h1v1h-1zm11 0h1v1h-1zm-72 1h1v1h-1zm41 0h1v1h-1zm20 0h1v1h-1zm8 0h1v1h-1zM80 64h1v1h-1zm2 0h1v1h-1zm28 0h1v1h-1zm2 0h1v1h-1zm37 0h1v1h-1zm-37 1h1v1h-1zm59 0h1v1h-1zm8 0h1v1h-1zm-78 1h1v1h-1zm48 0h1v1h-1zm-39 1h1v1h-1zm39 0h1v1h-1zm7 0h1v1h-1zm6 0h1v1h-1zm19 0h1v1h-1zm6 0h1v1h-1zm-94 1h1v1h-1zm7 0h1v1h-1zm3 0h1v1h-1zm6 0h1v1h-1zm26 0h1v1h-1zm3 0h1v1h-1zm3 0h1v1h-1zm22 0h1v1h-1zm7 0h1v1h-1zm13 0h1v1h-1zm3 0h1v1h-1zm-95 1h1v1h-1zm16 0h1v1h-1zm12 0h1v1h-1zm1 0h1v1h-1zm1 0h1v1h-1zm1 0h2v1h-2zm2 0h1v1h-1zm9 0h1v1h-1zm1 0h1v1h-1zm2 0h2v1h-2zm2 0h1v1h-1zm2 0h1v1h-1zm7 0h1v1h-1zm8 0h1v1h-1zm9 0h1v1h-1zm15 0h1v1h-1zm8 0h1v1h-1z" fill="#686868"/><path d="M91 54h1v1h-1zm54 0h1v1h-1zm20 0h1v1h-1zm-48 1h1v1h-1zM84 66h1v1h-1z" fill="#626262"/><path fill="#717171" d="M82 68h1v1h-1z"/><path d="M13 15h1v1h-1zm92 9h1v1h-1zm-56 1h1v1h-1zm83 1h1v1h-1zM32 27h1v1h-1zm116 3h1v1h-1zM35 31h1v1h-1zm23 0h1v1h-1zm-29 7h1v1h-1zm21 10h1v1h-1z" fill="#ff2b2b"/><path d="M86 24h1v1h-1zm-74 6h1v1h-1zm93 14h1v1h-1zm-28 3h1v1h-1zm49 1h1v1h-1zm13 4h1v1h-1z" fill="#e61a33"/><path d="M14 18h1v1h-1zm47 3h1v1h-1zm71 1h1v1h-1zm-80 1h1v1h-1zm53 0h1v1h-1zm30 1h1v1h-1zm-31 1h1v1h-1zm-19 4h1v1h-1zm16 0h1v1h-1zm-70 1h1v1h-1zm112 0h1v1h-1zm5 1h1v1h-1zM23 32h1v1h-1zm78 0h1v1h-1zm30 1h1v1h-1zm-30 1h1v1h-1zm26 3h1v1h-1zm1 1h1v1h-1zM24 40h1v1h-1zm61 1h1v1h-1zm-23 1h1v1h-1zm35 1h1v1h-1zm46 0h1v1h-1zm15 0h1v1h-1zM8 44h1v1H8zm93 0h1v1h-1zm-88 2h1v1h-1zm73 0h1v1h-1zM9 47h1v1H9zm33 0h1v1h-1zm82 0h1v1h-1zm-75 1h1v1h-1zm23 0h1v1h-1zm20 0h1v1h-1zm31 0h1v1h-1zm30 0h1v1h-1zm-8 5h1v1h-1z" fill="#ec2026"/><path d="M46 21h1v1h-1zm17 0h2v1h-2zm2 0h1v1h-1zm18 0h2v1h-2zm2 0h1v1h-1zm24 0h1v1h-1zm15 5h1v1h-1zm31 1h1v1h-1zm-41 8h1v1h-1zM8 40h1v1H8zm142 9h1v1h-1z" fill="#f01e2d"/><path d="M114 33h1v1h-1zm-56 5h1v1h-1zm-3 6h1v1h-1z" fill="#ed1e2a"/><path d="M20 35h1v1h-1zm137 2h1v1h-1zm-3 3h1v1h-1zM53 41h1v1h-1zm-29 1h1v1h-1zm112 1h1v1h-1zm-18 1h1v1h-1zm-95 4h1v1h-1z" fill="#eb1f29"/><path d="M118 54h1v1h-1zm1 0h1v1h-1zm14 0h1v1h-1zm1 0h1v1h-1zm12 0h1v1h-1zm1 0h1v1h-1zm1 0h1v1h-1zm1 0h1v1h-1zm3 0h1v1h-1zm1 0h1v1h-1zm26 0h1v1h-1zm2 0h1v1h-1zm3 0h1v1h-1zm1 0h1v1h-1zM83 55h1v1h-1zm80 0h1v1h-1zm-78 1h1v1h-1zm78 2h1v1h-1zm-28 5h1v1h-1zm51 0h1v1h-1zm-51 2h1v1h-1zm-43 2h1v1h-1zm60 1h1v1h-1zm1 0h1v1h-1zm31 0h1v1h-1z" fill="#696969"/><path d="M23 15h1v1h-1zm95 33h1v1h-1z" fill="#eb1f28"/><path d="M26 17h1v1h-1zm40 6h1v1h-1zm62 0h1v1h-1zm22 0h1v1h-1zM38 25h1v1h-1zm77 0h1v1h-1zm-97 3h1v1h-1zm36 5h1v1h-1zm4 2h1v1h-1zm100 4h1v1h-1zm-29 1h1v1h-1zm-73 2h1v1h-1zm86 0h1v1h-1zM12 45h1v1h-1zm-4 1h1v1H8zm130 0h1v1h-1zm-67 1h1v1h-1zm20 0h1v1h-1zm58 0h1v1h-1zm-2 5h1v1h-1z" fill="#eb2028"/><path d="M149 21h1v1h-1zm7 6h1v1h-1zM52 28h1v1h-1zm81 11h1v1h-1z" fill="#ee2228"/><path d="M10 18h1v1h-1zm3 4h1v1h-1zm27 2h1v1h-1zm73 0h1v1h-1zm11 0h1v1h-1zM10 27h1v1h-1zm44 8h1v1h-1zm-16 9h1v1h-1zm-11 1h1v1h-1zm70 1h1v1h-1zm49 0h1v1h-1z" fill="#ed1f28"/><path d="M98 21h1v1h-1zm16 0h1v1h-1zm-16 1h1v1h-1zm-17 4h1v1h-1zm-66 6h1v1h-1zm3 2h1v1h-1zm3 2h1v1h-1zm93 1h1v1h-1zm-84 1h1v1h-1zm1 3h1v1h-1zm-9 4h1v1h-1zm39 0h1v1h-1zm6 1h1v1h-1zm66 0h1v1h-1zm-54 2h1v1h-1zm37 0h1v1h-1zm-99 1h1v1h-1z" fill="#ed2424"/><path d="M66 21h1v1h-1zm-32 4h1v1h-1zm112 2h1v1h-1zm8 18h1v1h-1zM25 47h1v1h-1zm12 0h1v1h-1z" fill="#eb2228"/><path fill="#ed2029" d="M115 22h1v1h-1z"/><path d="M100 55h1v1h-1zm74 8h1v1h-1zm11 0h1v1h-1zm-54 6h1v1h-1zm14 0h1v1h-1z" fill="#555"/><path d="M14 15h1v1h-1zm-3 2h1v1h-1zm10 0h1v1h-1zm78 5h1v1h-1zm22 0h1v1h-1zm1 0h1v1h-1zm-61 1h1v1h-1zm84 0h1v1h-1zm-30 1h1v1h-1zm-30 2h1v1h-1zm-49 1h1v1h-1zm111 3h1v1h-1zm-82 2h1v1h-1zm-39 2h1v1h-1zm36 1h1v1h-1zm62 0h2v1h-2zm2 0h1v1h-1zm0 1h1v1h-1zm5 1h1v1h-1zM10 43h1v1h-1zm14 0h1v1h-1zm93 0h1v1h-1zm7 3h1v1h-1zM19 47h1v1h-1zm89 0h1v1h-1zm-95 1h1v1h-1zm27 0h1v1h-1zm20 0h1v1h-1zm6 0h1v1h-1zm20 0h1v1h-1zm35 0h1v1h-1zm1 0h1v1h-1z" fill="#ec2127"/><path d="M45 21h1v1h-1zm36 0h1v1h-1zm5 0h1v1h-1zm60 4h1v1h-1zM37 26h1v1h-1zm83 1h1v1h-1zm-55 1h1v1h-1zm-46 1h1v1h-1zm114 1h1v1h-1zm-29 2h1v1h-1zm47 5h1v1h-1zm-19 1h1v1h-1zM31 40h1v1h-1zM9 41h1v1H9zm48 0h1v1h-1zm86 1h1v1h-1zm-57 3h1v1h-1zm66 2h1v1h-1zm-27 1h1v1h-1zm16 1h1v1h-1z" fill="#eb2127"/><path d="M26 19h1v1h-1zm0 1h1v1h-1zm60 2h1v1h-1zm17 0h1v1h-1zm1 0h1v1h-1zM9 23h1v1H9zm32 0h1v1h-1zm115 2h1v1h-1zm-52 1h1v1h-1zm52 0h1v1h-1zm-23 1h1v1h-1zM32 28h1v1h-1zm24 0h1v1h-1zm29 5h1v1h-1zm22 1h2v1h-2zm2 0h1v1h-1zm-27 2h1v3h-1zm3 0h1v1h-1zm-57 1h1v1h-1zm37 1h1v1h-1zm17 1h1v1h-1zm-20 2h1v1h-1zm96 1h1v1h-1zM11 44h1v1h-1zm125 0h1v1h-1zm19 0h1v1h-1zM52 46h1v1h-1zm-5 1h1v1h-1zm18 1h1v1h-1zm3 0h1v1h-1zm5 0h1v1h-1zm1 0h1v1h-1zm14 0h1v1h-1zm5 0h1v1h-1zm45 2h1v1h-1zm6 2h1v1h-1zm2 0h1v1h-1z" fill="#ed2027"/><path d="M67 21h1v1h-1zM41 46h1v1h-1z" fill="#ef2129"/><path d="M110 21h1v1h-1zM35 38h1v1h-1zm121 9h1v1h-1zm-19 3h1v1h-1z" fill="#f01f27"/><path d="M38 22h1v1h-1zm43 5h1v1h-1zm66 2h1v1h-1zm-15 2h1v1h-1zm20 2h1v1h-1zM27 34h1v1h-1zm100 4h1v1h-1zm-30 9h1v1h-1zm50 6h1v1h-1z" fill="#db2424"/><path d="M14 24h1v1h-1zm6 5h1v1h-1zm138 9h1v1h-1zM33 44h1v1h-1zm112 1h1v1h-1z" fill="#e22"/><path fill="#eb1f25" d="M131 36h1v1h-1z"/><path d="M14 17h1v1h-1zm29 4h1v1h-1zm6 1h1v1h-1zm103 0h1v1h-1zM51 23h1v1h-1zm98 0h1v1h-1zm-68 1h1v1h-1zm-67 1h1v1h-1zm106 1h1v1h-1zm13 0h1v1h-1zm-77 1h1v1h-1zm9 0h1v1h-1zm-12 1h1v1h-1zm9 1h1v1h-1zm20 1h1v1h-1zm-25 1h1v1h-1zm63 1h1v1h-1zm-86 2h1v1h-1zm70 0h1v1h-1zm43 0h1v1h-1zm-24 3h1v1h-1zm34 1h1v1h-1zm-2 2h1v1h-1zm-25 1h1v1h-1zm4 0h1v1h-1zm-69 1h1v1h-1zm90 1h1v1h-1zm2 2h1v1h-1zm-63 1h1v1h-1zm60 0h1v1h-1zM17 47h1v1h-1zm51 0h1v1h-1zm5 0h1v1h-1zm15 0h1v1h-1zm19 0h1v1h-1zm-87 1h1v1h-1zm42 0h1v1h-1zm14 0h1v1h-1zm43 0h1v1h-1zm20 0h1v1h-1zm13 0h1v1h-1zm-9 3h1v1h-1zm0 2h1v1h-1z" fill="#ec1f27"/><path d="M16 17h1v1h-1zm128 6h1v1h-1zM9 40h1v1H9zm10 9h1v1h-1z" fill="#ef2020"/><path d="M85 54h1v1h-1zm18 0h1v1h-1zm79 0h1v1h-1zm-47 7h1v1h-1z" fill="#6b6b6b"/><path d="M105 54h1v1h-1zm27 0h1v1h-1zm3 0h1v1h-1zm19 0h1v1h-1zm24 0h1v1h-1zm-86 3h1v1h-1zm43 0h1v1h-1zm14 1h1v1h-1zm-39 4h1v1h-1zm25 2h1v1h-1zm-52 1h1v1h-1zm26 1h1v1h-1zm-1 1h1v1h-1zm19 0h1v1h-1zm-38 1h1v1h-1zm96 0h1v1h-1zm-14 1h1v1h-1z" fill="#656565"/><path d="M15 17h1v1h-1zm11 4h1v1h-1zm54 1h1v1h-1zm6 1h1v1h-1zm20 0h1v1h-1zm37 2h1v1h-1zm-86 4h1v1h-1zM21 46h1v1h-1zm119 2h1v1h-1zm4 0h1v1h-1z" fill="#ed2127"/><path d="M9 19h1v1H9zm92 2h1v1h-1zm44 1h1v1h-1zM36 23h1v1h-1zm99 0h1v1h-1zm-88 1h1v1h-1zm89 0h1v1h-1zm7 0h1v1h-1zm9 0h1v1h-1zM15 25h1v1h-1zm24 0h1v1h-1zm16 0h1v1h-1zm99 1h1v1h-1zM51 27h1v1h-1zm10 0h1v1h-1zm81 0h1v2h-1zm-85 1h1v1h-1zm24 0h1v1h-1zm43 0h1v1h-1zm18 1h1v1h-1zm-89 2h1v1h-1zm59 1h1v1h-1zm-86 1h1v1h-1zm104 0h1v1h-1zm14 0h1v1h-1zm4 3h1v1h-1zM22 37h1v1h-1zm90 0h1v1h-1zm-75 5h1v1h-1zm41 0h1v1h-1zm20 0h1v1h-1zm-66 1h1v1h-1zm34 1h1v1h-1zm49 0h1v1h-1zm17 1h1v1h-1zm6 0h1v1h-1zm20 0h1v1h-1zM16 46h1v1h-1zm109 1h1v1h-1zm-87 1h1v1h-1zm117 0h1v1h-1zm-4 1h1v1h-1z" fill="red"/><path d="M62 21h1v1h-1zm20 0h1v1h-1zm5 1h1v1h-1zm-6 3h1v1h-1zM29 39h1v1h-1z" fill="#ec1c26"/><path d="M87 21h1v1h-1zm-20 1h1v1h-1zm69 11h1v1h-1zm11 2h1v1h-1z" fill="#ee222b"/><path d="M108 21h1v1h-1zm-8 4h1v1h-1zM29 40h1v1h-1zm6 6h1v1h-1zm24 2h1v1h-1z" fill="#ea2b2b"/><path d="M118 22h1v1h-1zm30 1h1v1h-1zM9 25h1v1H9zm26 14h1v1h-1zm-3 3h1v1h-1zm44 2h1v1h-1zm41 1h1v1h-1zm-11 1h1v1h-1zm36 4h1v1h-1z" fill="#ed1f27"/><path d="M15 15h1v1h-1zm1 0h1v1h-1zm9 0h1v1h-1zm128 7h1v1h-1zm-26 1h1v1h-1zm-74 1h1v1h-1zm91 0h1v1h-1zm-59 1h1v1h-1zm-51 1h1v1h-1zm19 3h1v1h-1zm67 0h1v1h-1zm-98 2h1v1h-1zm63 0h1v1h-1zm-69 1h1v1h-1zm38 0h1v1h-1zm31 0h1v1h-1zm51 0h1v1h-1zm-9 3h1v1h-1zm28 1h1v1h-1zM54 38h1v1h-1zm50 1h1v1h-1zm-22 1h1v1h-1zm3 2h1v1h-1zm-8 1h1v1h-1zm-15 1h1v1h-1zm-27 1h1v1h-1zm42 0h1v1h-1zm38 0h1v1h-1zm18 0h1v1h-1zm4 0h1v1h-1zm5 0h1v1h-1zM22 46h1v1h-1zm27 0h1v1h-1zm-11 1h1v1h-1zm112 0h1v1h-1zM14 48h1v1h-1zm61 0h1v1h-1zm20 0h1v1h-1zm19 0h1v1h-1z" fill="#eb2027"/><path d="M13 16h1v1h-1zm13 2h1v1h-1zm-3 1h1v1h-1zm1 1h1v1h-1zm36 2h1v1h-1zm-25 3h1v1h-1zm19 0h1v1h-1zm83 3h1v1h-1zm-80 2h1v1h-1zm44 1h1v1h-1zm-16 3h1v1h-1zm-55 2h1v1h-1zm28 0h1v1h-1zm-34 3h1v1h-1zm30 0h1v1h-1zm66 0h1v1h-1zm-67 3h1v1h-1zm-27 4h1v1h-1zm127 0h1v1h-1zm-44 1h1v1h-1zm26 0h1v1h-1zM12 48h1v1h-1zm49 0h1v1h-1zm20 0h1v1h-1z" fill="#ec1f26"/><path d="M180 54h1v1h-1zm-79 15h1v1h-1z" fill="#636363"/><path d="M112 58h1v1h-1zm-10 9h1v1h-1z" fill="#5d5d5d"/><path d="M99 23h1v1h-1zm-38 3h1v1h-1zm15 17h1v1h-1z" fill="#df2020"/><path fill="#ee1f26" d="M48 24h1v1h-1z"/><path fill="#ec1e26" d="M152 38h1v1h-1z"/><path fill="#ee2329" d="M66 45h1v1h-1z"/><path d="M87 54h1v1h-1zm2 0h1v1h-1zm1 0h1v1h-1zm27 0h1v1h-1zm49 0h1v1h-1zm4 0h1v1h-1zm16 0h1v1h-1zm-83 1h1v1h-1zm18 0h1v1h-1zm25 0h1v1h-1zm41 0h1v1h-1zm-96 1h1v1h-1zm80 0h1v1h-1zm15 0h1v1h-1zM81 57h1v1h-1zm17 0h1v1h-1zm3 0h1v1h-1zm7 0h1v1h-1zm3 0h1v1h-1zm9 0h1v1h-1zm41 0h1v1h-1zm12 0h1v1h-1zm-93 1h1v1h-1zm18 0h1v1h-1zm81 0h1v1h-1zm2 0h1v1h-1zM80 59h1v1h-1zm17 0h1v1h-1zm23 0h1v1h-1zm13 1h1v1h-1zm16 0h1v1h-1zm37 0h1v1h-1zm-74 1h1v1h-1zm8 0h1v1h-1zm33 0h1v1h-1zm-33 1h1v1h-1zm15 0h1v1h-1zm19 0h1v1h-1zm17 0h1v1h-1zm1 0h1v1h-1zm7 0h1v1h-1zm-82 1h1v1h-1zm21 0h1v1h-1zm29 0h1v1h-1zm7 0h1v1h-1zm8 0h1v1h-1zm-65 1h1v1h-1zm21 0h1v1h-1zm2 0h1v1h-1zm27 0h1v1h-1zm24 0h1v1h-1zm10 0h1v1h-1zm-83 1h1v1h-1zm2 0h1v1h-1zm49 0h1v1h-1zm11 0h1v1h-1zm-79 1h1v1h-1zm12 0h1v1h-1zm1 0h1v1h-1zm33 0h1v1h-1zm15 0h1v1h-1zm29 0h1v1h-1zm10 0h1v1h-1zM81 67h1v1h-1zm4 0h1v1h-1zm26 0h1v1h-1zm24 0h1v1h-1zm6 0h1v1h-1zm14 0h1v1h-1zm6 0h1v1h-1zm18 0h1v1h-1zm-91 1h1v1h-1zm2 0h1v1h-1zm14 0h1v1h-1zm1 0h1v1h-1zm18 0h1v1h-1zm1 0h1v1h-1zm15 0h1v1h-1zm15 0h1v1h-1zm12 0h1v1h-1zm7 0h1v1h-1zm9 0h1v1h-1zm6 0h1v1h-1zM84 69h1v1h-1zm1 0h1v1h-1zm7 0h1v1h-1zm10 0h1v1h-1zm6 0h1v1h-1zm9 0h1v1h-1zm37 0h1v1h-1zm11 0h1v1h-1zm13 0h1v1h-1z" fill="#666"/><path d="M107 54h1v1h-1zm-8 2h1v1h-1zm-15 1h1v1h-1zm80 0h1v1h-1zm-4 1h1v1h-1zm-43 10h1v1h-1z" fill="#6d6d6d"/><path fill="#ea1f26" d="M100 24h1v1h-1z"/><path d="M53 30h1v1h-1zm90 1h1v1h-1zm-8 11h1v1h-1zm-96 3h1v1h-1zm11 0h1v1h-1zm104 3h1v1h-1z" fill="#ed2129"/><path d="M44 21h1v1h-1zm17 3h1v1h-1zm-26 6h1v1h-1zm23 2h1v1h-1zm92 0h1v1h-1z" fill="#ee2226"/><path d="M115 23h1v1h-1zm21 2h1v1h-1zm-82 9h1v1h-1zm65 13h1v1h-1z" fill="#eb2126"/><path d="M151 23h1v1h-1zM81 46h1v1h-1zm70 1h1v1h-1z" fill="#ed1f26"/><path d="M128 34h1v1h-1zm1 7h1v1h-1zM13 45h1v1h-1zm39 2h1v1h-1zm92 4h1v1h-1z" fill="#f33"/><path d="M12 16h1v1h-1zm135 8h1v1h-1zm-10 3h1v1h-1zm-83 9h1v1h-1z" fill="#ec2226"/><path d="M146 22h1v1h-1zM37 23h1v1h-1zm72 0h1v1h-1zm-95 8h1v1h-1zm132 3h1v1h-1zM28 43h1v1h-1zm17 4h1v1h-1zm94 0h1v1h-1z" fill="#ec2126"/><path d="M66 24h1v1h-1zm53 0h1v1h-1zm36 11h1v1h-1zM87 46h1v1h-1zm6 0h1v1h-1zm56 3h1v1h-1z" fill="#eb2727"/><path d="M111 33h1v1h-1zm24 1h1v1h-1zM78 44h1v1h-1zm-33 5h1v1h-1z" fill="#ea2229"/><path d="M51 44h1v1h-1zm-3 2h1v1h-1z" fill="#ed1e24"/><path fill="#ea202b" d="M8 47h1v1H8z"/><path d="M136 54h1v1h-1zm-4 2h1v1h-1zm30 12h1v1h-1zm5 0h1v1h-1zm5 1h1v1h-1z" fill="#606060"/><path d="M151 21h1v1h-1zM31 29h1v1h-1zm-8 2h1v1h-1zm91 5h1v1h-1zM10 48h1v1h-1z" fill="#f22626"/><path d="M39 22h1v1h-1zm38 24h1v1h-1zm69 7h1v1h-1z" fill="#eb2026"/><path d="M42 23h1v1h-1zm114 0h1v1h-1zM35 29h1v1h-1zm78 3h1v1h-1zm0 5h1v1h-1zm7 3h1v1h-1zm-42 3h1v1h-1zm-38 3h1v1h-1zm21 0h1v1h-1z" fill="#ec2128"/><path d="M146 26h1v1h-1zM17 27h1v1h-1zm120 4h1v1h-1zm1 20h1v1h-1z" fill="#e91d24"/><path d="M156 36h1v1h-1zm-3 3h1v1h-1zm-55 5h1v1h-1zm-45 2h1v1h-1z" fill="#ef2028"/><path d="M50 22h1v1h-1zm64 10h1v1h-1zm-78 9h1v1h-1zm100 8h1v1h-1z" fill="#ee2127"/><path d="M156 22h1v1h-1zM13 23h1v1h-1zm140 1h1v1h-1zm3 0h1v1h-1zM13 30h1v1h-1zm45 4h1v1h-1zm-31 1h1v1h-1zm3 0h1v1h-1zm124 0h1v1h-1zM23 37h1v1h-1zm132 5h1v1h-1zm-35 1h1v1h-1zm-6 3h1v1h-1zm-45 1h1v1h-1zm20 0h1v1h-1zm14 1h1v1h-1zm1 0h1v1h-1z" fill="#ed2026"/><path d="M88 54h1v1h-1zm16 0h1v1h-1zm16 0h1v1h-1zm31 0h1v1h-1zm17 0h1v1h-1zm-83 1h1v1h-1zm1 0h1v1h-1zm1 0h1v1h-1zm1 0h1v1h-1zm2 0h1v1h-1zm1 0h1v1h-1zm1 0h1v1h-1zm1 0h1v1h-1zm8 0h1v1h-1zm1 0h1v1h-1zm3 0h1v1h-1zm1 0h1v1h-1zm1 0h1v1h-1zm1 0h1v1h-1zm10 0h1v1h-1zm1 0h1v13h-1zm1 0h1v1h-1zm13 0h1v1h-1zm1 0h1v13h-1zm1 0h1v1h-1zm12 0h1v1h-1zm1 0h1v13h-1zm1 0h1v1h-1zm1 0h2v1h-2zm2 0h1v1h-1zm1 0h1v1h-1zm1 0h1v1h-1zm11 0h1v1h-1zm1 0h1v1h-1zm2 0h1v1h-1zm1 0h1v1h-1zm2 0h1v1h-1zm1 0h1v1h-1zm1 0h1v1h-1zm5 0h1v1h-1zm1 0h1v1h-1zm1 0h1v13h-1zm1 0h1v1h-1zm1 0h1v1h-1zm1 0h1v1h-1zm1 0h1v1h-1zm1 0h1v1h-1zm1 0h1v1h-1zM83 56h1v1h-1zm9 0h1v1h-1zm1 0h1v1h-1zm7 0h1v1h-1zm1 0h1v1h-1zm6 0h1v1h-1zm1 0h1v1h-1zm1 0h1v1h-1zm1 0h1v1h-1zm8 0h1v1h-1zm2 0h1v1h-1zm13 0h1v1h-1zm2 0h1v1h-1zm12 0h1v1h-1zm2 0h1v1h-1zm5 0h1v1h-1zm8 0h1v1h-1zm1 0h1v1h-1zm1 0h1v1h-1zm8 0h1v1h-1zm1 0h1v1h-1zm6 0h1v1h-1zm2 0h1v1h-1zm-99 1h1v1h-1zm11 0h1v1h-1zm6 0h1v1h-1zm1 0h1v1h-1zm9 0h1v1h-1zm1 0h1v1h-1zm23 0h1v1h-1zm14 0h1v1h-1zm15 0h1v1h-1zm1 0h1v1h-1zm9 0h1v1h-1zm7 0h1v1h-1zm-98 1h1v1h-1zm1 0h1v1h-1zm17 0h1v1h-1zm1 0h1v1h-1zm9 0h1v1h-1zm1 0h1v1h-1zm8 0h1v1h-1zm2 0h1v1h-1zm13 0h1v1h-1zm2 0h1v1h-1zm12 0h1v1h-1zm14 0h1v1h-1zm1 0h1v1h-1zm-81 1h1v5h-1zm1 0h1v1h-1zm16 0h1v1h-1zm1 0h1v1h-1zm12 0h1v5h-1zm1 0h1v1h-1zm6 0h1v1h-1zm15 0h1v1h-1zm28 0h1v5h-1zm1 0h1v1h-1zm-82 1h1v1h-1zm2 0h1v1h-1zm15 0h1v1h-1zm1 0h1v4h-1zm1 0h1v1h-1zm11 0h1v1h-1zm2 0h1v1h-1zm8 0h1v1h-1zm27 0h1v1h-1zm13 0h1v1h-1zm2 0h1v1h-1zm17 0h1v1h-1zm2 0h1v1h-1zM80 61h1v1h-1zm17 0h1v1h-1zm2 0h1v1h-1zm11 0h1v1h-1zm23 0h1v1h-1zm14 0h1v1h-1zm2 0h1v1h-1zm2 0h1v1h-1zm1 0h1v1h-1zm2 0h1v1h-1zm6 0h1v1h-1zm2 0h1v1h-1zm19 0h1v1h-1zm1 0h1v1h-1zm1 0h1v1h-1zm2 0h1v1h-1zm1 0h1v1h-1zm-89 1h1v1h-1zm2 0h1v1h-1zm13 0h1v1h-1zm21 0h1v1h-1zm14 0h1v1h-1zm2 0h1v1h-1zm1 0h1v1h-1zm1 0h1v1h-1zm1 0h1v1h-1zm1 0h1v1h-1zm7 0h1v1h-1zm21 0h1v1h-1zm1 0h1v1h-1zm1 0h1v1h-1zm2 0h1v1h-1zm1 0h1v1h-1zM80 63h1v1h-1zm2 0h1v1h-1zm17 0h1v1h-1zm11 0h1v1h-1zm10 0h1v1h-1zm13 0h1v1h-1zm16 0h1v1h-1zm11 0h1v1h-1zm11 0h1v1h-1zm1 0h1v4h-1zm7 0h1v1h-1zm-98 1h1v1h-1zm17 0h1v1h-1zm1 0h1v1h-1zm12 0h1v1h-1zm22 0h1v1h-1zm27 0h1v1h-1zm1 0h1v1h-1zm1 0h1v1h-1zm11 0h1v1h-1zm6 0h1v1h-1zm-99 1h1v1h-1zm1 0h1v1h-1zm1 0h1v1h-1zm17 0h1v1h-1zm11 0h1v1h-1zm1 0h1v1h-1zm7 0h1v1h-1zm2 0h1v1h-1zm13 0h1v1h-1zm14 0h1v1h-1zm14 0h1v1h-1zm1 0h1v1h-1zm11 0h1v1h-1zm8 0h1v1h-1zm-99 1h1v1h-1zm1 0h1v1h-1zm15 0h1v1h-1zm1 0h1v1h-1zm1 0h1v1h-1zm10 0h1v1h-1zm1 0h1v1h-1zm7 0h1v1h-1zm2 0h1v1h-1zm13 0h1v1h-1zm2 0h1v1h-1zm6 0h1v1h-1zm6 0h1v1h-1zm14 0h1v1h-1zm1 0h1v1h-1zm1 0h1v1h-1zm10 0h1v1h-1zm6 0h1v1h-1zm-97 1h1v1h-1zm1 0h1v1h-1zm1 0h1v1h-1zm9 0h1v1h-1zm6 0h1v1h-1zm1 0h1v1h-1zm1 0h1v1h-1zm8 0h1v1h-1zm9 0h1v1h-1zm2 0h1v1h-1zm6 0h1v1h-1zm7 0h1v1h-1zm7 0h1v1h-1zm7 0h1v1h-1zm16 0h1v1h-1zm1 0h1v1h-1zm7 0h1v1h-1zm1 0h1v1h-1zm1 0h1v1h-1zm15 0h1v1h-1zM83 68h1v1h-1zm1 0h1v1h-1zm1 0h1v1h-1zm1 0h1v1h-1zm5 0h1v1h-1zm1 0h1v1h-1zm9 0h1v1h-1zm1 0h1v1h-1zm4 0h1v1h-1zm1 0h1v1h-1zm1 0h1v1h-1zm10 0h1v1h-1zm1 0h1v1h-1zm1 0h1v1h-1zm1 0h1v1h-1zm4 0h1v1h-1zm1 0h1v1h-1zm6 0h1v1h-1zm1 0h1v1h-1zm1 0h1v1h-1zm6 0h1v1h-1zm6 0h1v1h-1zm1 0h1v1h-1zm1 0h1v1h-1zm1 0h1v1h-1zm1 0h1v1h-1zm1 0h1v1h-1zm4 0h1v1h-1zm9 0h1v1h-1zm1 0h1v1h-1zm4 0h1v1h-1zm2 0h1v1h-1zm1 0h1v1h-1zm7 0h1v1h-1zm1 0h1v1h-1zm1 0h1v1h-1zm6 0h1v1h-1zM86 69h1v1h-1zm1 0h1v1h-1zm1 0h1v1h-1zm1 0h1v1h-1zm1 0h1v1h-1zm13 0h1v1h-1zm1 0h1v1h-1zm1 0h1v1h-1zm1 0h1v1h-1zm12 0h1v1h-1zm7 0h1v1h-1zm1 0h1v1h-1zm6 0h1v1h-1zm3 0h1v1h-1zm4 0h1v1h-1zm7 0h1v1h-1zm2 0h1v1h-1zm1 0h4v1h-4zm4 0h1v1h-1zm13 0h1v1h-1zm1 0h1v1h-1zm1 0h1v1h-1zm1 0h1v1h-1zm1 0h1v1h-1zm10 0h1v1h-1zm1 0h5v1h-5zm5 0h1v1h-1z" fill="#676767"/><path d="M153 56h1v1h-1zm-26 12h1v1h-1zm41 0h1v1h-1z"/><path d="M108 23h1v1h-1zM44 49h1v1h-1z" fill="#eb1e28"/><path d="M30 32h1v1h-1zm84 2h1v1h-1zm10 7h1v1h-1zm-44 6h1v1h-1zm18 1h1v1h-1zm45 0h1v1h-1z" fill="#eb1d27"/><path d="M13 20h1v1h-1zm41 25h1v1h-1zm42 3h1v1h-1z" fill="#ea2125"/><path d="M13 21h1v1h-1zm98 0h2v1h-2zm2 0h1v1h-1zm11 21h1v1h-1zm33 4h1v1h-1zm-22 2h1v1h-1zM18 49h1v1h-1zm123 4h1v1h-1z" fill="#e91e26"/><path d="M41 21h1v1h-1zm96 5h1v1h-1zm-3 9h1v1h-1zm-2 2h1v1h-1zm-8 1h1v1h-1zm10 2h1v1h-1zm-57 2h1v1h-1zm20 0h1v1h-1zm19 1h1v1h-1zm-88 1h1v1h-1zm-8 2h1v1h-1z" fill="#ff0040"/><path d="M100 21h1v1h-1zm33 1h1v1h-1zM24 41h1v1h-1zm36 6h1v1h-1z" fill="#e82323"/><path fill="#e9212c" d="M134 47h1v1h-1z"/><path d="M109 55h1v1h-1zm56 1h1v1h-1zm-65 3h1v1h-1zm53 1h1v1h-1zm21 2h1v1h-1zm-11 3h1v1h-1zm-37 1h1v1h-1zm30 0h1v1h-1zm32 0h1v1h-1zM87 68h1v1h-1zm23 0h1v1h-1zm46 0h1v1h-1zm22 0h1v1h-1z" fill="#6a6a6a"/><g fill="#ec2027"><path d="M17 15h1v1h-1zm1 0h1v1h-1zm1 0h1v1h-1zm2 0h1v1h-1zm1 0h1v1h-1zm-8 1h1v1h-1zm1 0h1v1h-1zm1 0h1v1h-1zm1 0h1v1h-1zm1 0h1v1h-1zm1 0h1v1h-1zm1 0h5v1h-5zm5 0h1v4h-1zm-13 1h1v1h-1zm1 0h1v1h-1zm9 0h3v1h-3zm-11 1h1v1h-1zm1 0h1v10h-1zm1 0h1v1h-1zm10 0h1v1h-1zm1 0h1v1h-1zm-14 1h1v1h-1zm1 0h1v8h-1zm2 0h1v1h-1zm11 0h1v1h-1z"/><path d="M10 20h2v5h-2zm15 0h1v1h-1zM9 21h1v1H9zm16 0h1v1h-1zM9 22h1v1H9zm32 0h1v1h-1zm1 0h4v1h-4zm4 0h1v1h-1zm1 0h1v1h-1zm1 0h1v1h-1zm13 0h1v1h-1zm1 0h3v5h-3zm3 0h1v1h-1zm1 0h1v1h-1zm15 0h1v1h-1zm1 0h3v5h-3zm3 0h1v1h-1zm15 0h1v1h-1zm1 0h1v3h-1zm1 0h1v1h-1zm3 0h1v1h-1zm1 0h1v1h-1zm1 0h1v1h-1zm1 0h5v1h-5zm5 0h1v1h-1zm1 0h1v1h-1zm5 0h1v1h-1zm1 0h1v1h-1zm3 0h1v1h-1zm1 0h1v1h-1zm1 0h1v1h-1zm1 0h1v1h-1zm1 0h1v1h-1zm1 0h1v1h-1zm1 0h1v1h-1zm1 0h1v1h-1zm17 0h1v1h-1zm1 0h1v1h-1zm1 0h2v1h-2zm2 0h1v1h-1zm3 0h1v1h-1zm1 0h1v1h-1zM38 23h1v1h-1zm1 0h1v1h-1zm1 0h1v1h-1zm3 0h1v1h-1zm3 0h1v1h-1zm1 0h1v1h-1zm1 0h1v1h-1zm1 0h1v1h-1zm1 0h1v1h-1zm15 0h1v1h-1zm20 0h1v1h-1zm15 0h1v1h-1zm2 0h2v24h-2zm2 0h1v1h-1zm7 0h1v1h-1zm1 0h1v1h-1zm1 0h1v1h-1zm1 0h1v1h-1zm5 0h1v1h-1zm1 0h3v1h-3zm3 0h1v5h-1zm1 0h1v1h-1zm2 0h1v1h-1zm3 0h1v1h-1zm1 0h1v1h-1zm1 0h1v1h-1zm1 0h1v1h-1zm1 0h1v1h-1zm13 0h1v1h-1zm1 0h1v1h-1zm6 0h2v1h-2zm2 0h1v2h-1zM13 24h1v1h-1zm23 0h1v1h-1zm1 0h1v1h-1zm1 0h1v1h-1zm11 0h1v1h-1zm1 0h1v1h-1zm1 0h1v1h-1zm1 0h1v1h-1zm13 0h1v1h-1zm20 0h1v1h-1zm19 0h1v1h-1zm10 0h1v1h-1zm6 0h1v1h-1zm1 0h2v23h-2zm11 0h2v1h-2zm2 0h1v9h-1zm11 0h1v8h-1zm1 0h1v1h-1zm8 0h1v1h-1zM10 25h3v1h-3zm3 0h1v4h-1zm23 0h1v1h-1zm1 0h1v1h-1zm13 0h1v1h-1zm1 0h2v1h-2zm2 0h1v2h-1zm12 0h1v1h-1z"/><path d="M101 25h2v1h-2zm19 0h1v1h-1zm13 0h2v1h-2zm2 0h1v7h-1zm9 0h1v6h-1zm10 0h1v1h-1zm1 0h1v1h-1zM10 26h1v1h-1zm4 0h1v4h-1zm1 0h1v1h-1zm20 0h1v1h-1zm1 0h1v1h-1zm15 0h1v1h-1zm1 0h2v1h-2zm2 0h1v4h-1zm1 0h1v1h-1zm10 0h1v1h-1zm36 0h1v1h-1zm35 0h1v1h-1z"/><path d="M11 27h4v1h-4zm4 0h1v3h-1zm1 0h1v1h-1zm18 0h1v3h-1zm1 0h1v1h-1zm18 0h1v1h-1zm2 0h1v1h-1zm7 0h2v1h-2zm2 0h1v20h-1zm18 0h2v1h-2zm2 0h1v20h-1zm1 0h1v1h-1zm16 0h1v1h-1zm35 0h1v4h-1zm7 0h1v1h-1zM11 28h1v1h-1z"/><path d="M12 28h4v1h-4zm4 0h1v3h-1zm1 0h1v1h-1zm16 0h1v14h-1zm2 0h1v1h-1zm20 0h1v14h-1zm7 0h1v1h-1zm1 0h1v19h-1zm19 0h1v1h-1zm1 0h1v19h-1zm2 0h1v1h-1zm16 0h1v1h-1zm3 0h1v1h-1zm16 0h1v1h-1zm3 0h1v1h-1zm20 0h2v1h-2zM12 29h1v1h-1z"/><path d="M13 29h5v1h-5zm5 0h1v3h-1zm14 0h1v1h-1zm24 0h1v11h-1zm9 0h1v1h-1zm17 0h1v1h-1zm22 0h1v1h-1zm19 0h1v5h-1zm10 0h1v1h-1zm4 0h1v1h-1zm6 0h1v1h-1zm3 0h1v1h-1z"/><path d="M14 30h5v1h-5zm5 0h1v3h-1zm1 0h1v1h-1zm1 0h1v1h-1zm11 0h2v10h-2zm2 0h1v1h-1zm20 0h2v1h-2zm8 0h1v1h-1zm3 0h1v1h-1zm20 0h1v1h-1zm16 0h1v1h-1zm19 0h1v1h-1zm26 0h1v3h-1zM15 31h1v1h-1z"/><path d="M16 31h5v1h-5zm5 0h1v3h-1zm10 0h1v1h-1zm3 0h1v1h-1zm20 0h1v1h-1zm8 0h1v1h-1zm3 0h1v1h-1zm17 0h1v1h-1zm22 0h1v1h-1zm16 0h1v1h-1zm13 0h1v1h-1zm3 0h1v1h-1zm8 0h3v1h-3zm3 0h1v2h-1z"/><path d="M17 32h5v1h-5zm5 0h1v3h-1zm2 0h1v1h-1zm7 0h1v1h-1zm3 0h1v1h-1zm23 0h1v6h-1zm5 0h1v1h-1zm20 0h1v1h-1zm50 0h1v1h-1zm1 0h2v1h-2zm2 0h1v1h-1zm9 0h1v1h-1zm1 0h3v1h-3zm3 0h1v2h-1zm1 0h1v1h-1zM18 33h1v1h-1z"/><path d="M19 33h5v1h-5zm5 0h1v4h-1zm1 0h1v1h-1zm6 0h2v4h-2zm31 0h1v1h-1zm20 0h1v1h-1zm31 0h1v3h-1zm7 0h1v1h-1zm12 0h1v1h-1zm1 0h1v1h-1zm1 0h1v1h-1zm1 0h1v1h-1zm10 0h1v1h-1zm1 0h3v1h-3zm3 0h1v2h-1zm1 0h1v1h-1zm1 0h1v1h-1zM19 34h1v1h-1zm1 0h1v1h-1z"/><path d="M21 34h4v1h-4zm4 0h1v11h-1zm5 0h1v1h-1zm32 0h1v1h-1zm3 0h1v1h-1zm17 0h1v1h-1zm23 0h1v1h-1zm1 0h1v1h-1zm4 0h1v1h-1zm1 0h2v1h-2zm9 0h1v1h-1zm3 0h1v1h-1zm7 0h1v1h-1zm1 0h2v1h-2zm2 0h1v1h-1zm1 0h1v1h-1zm14 0h3v1h-3zm3 0h1v2h-1zm1 0h1v1h-1zM21 35h1v1h-1z"/><path d="M22 35h4v1h-4zm4 0h1v9h-1zm39 0h1v1h-1zm17 0h1v1h-1zm3 0h1v1h-1zm20 0h3v1h-3zm3 0h1v1h-1zm2 0h1v1h-1zm1 0h1v1h-1zm1 0h1v1h-1zm8 0h1v2h-1zm3 0h1v1h-1zm5 0h1v1h-1zm1 0h1v3h-1zm1 0h1v5h-1zm1 0h1v1h-1zm17 0h1v1h-1zm1 0h3v1h-3zm3 0h1v1h-1zm1 0h1v1h-1z"/><path d="M23 36h4v1h-4zm4 0h1v7h-1zm35 0h1v3h-1zm39 0h1v3h-1zm3 0h1v1h-1zm9 0h1v1h-1zm10 0h1v1h-1zm4 0h1v1h-1zm1 0h2v1h-2zm21 0h1v1h-1zm1 0h1v1h-1zm1 0h3v1h-3zm3 0h1v2h-1zM24 37h3v1h-3zm6 0h1v1h-1zm1 0h2v1h-2zm3 0h1v1h-1zm31 0h1v1h-1zm20 0h1v1h-1zm19 0h1v1h-1zm16 0h1v1h-1zm8 0h2v1h-2zm24 0h1v1h-1z"/><path d="M153 37h2v1h-2zm2 0h1v2h-1zm1 0h1v1h-1zM24 38h1v1h-1zm4 0h1v1h-1zm3 0h1v1h-1zm3 0h1v5h-1zm23 0h1v1h-1zm28 0h1v1h-1zm19 0h1v1h-1zm16 0h1v1h-1zm3 0h1v9h-1zm6 0h2v1h-2zm2 0h1v3h-1z"/><path d="M154 38h2v1h-2zm2 0h1v7h-1zM28 39h1v1h-1zm3 0h1v1h-1zm26 0h1v1h-1zm5 0h1v1h-1zm3 0h1v1h-1zm36 0h1v1h-1zm28 0h1v1h-1zm3 0h1v1h-1zm22 0h1v1h-1z"/><path d="M155 39h2v1h-2zm2 0h1v5h-1zM28 40h1v1h-1zm4 0h2v1h-2zm22 0h1v1h-1zm2 0h1v1h-1zm1 0h1v1h-1zm5 0h1v1h-1zm3 0h1v1h-1zm36 0h1v1h-1zm3 0h1v1h-1zm26 0h2v1h-2zm2 0h1v3h-1zm26 0h1v1h-1zM8 41h1v1H8zm20 0h1v1h-1zm4 0h1v1h-1zm3 0h1v3h-1zm19 0h1v2h-1zm2 0h1v1h-1zm9 0h1v1h-1zm36 0h1v1h-1zm3 0h1v1h-1zm16 0h1v1h-1z"/><path d="M131 41h2v1h-2zm2 0h1v3h-1zm25 0h1v1h-1zM8 42h1v1H8zm1 0h1v4H9zm19 0h1v1h-1zm5 0h2v1h-2zm22 0h1v1h-1zm27 0h1v1h-1zm19 0h1v1h-1zm3 0h1v1h-1zm16 0h1v1h-1zm11 0h1v1h-1zm3 0h1v1h-1zM8 43h1v1H8zm19 0h1v1h-1zm6 0h1v1h-1zm1 0h2v1h-2zm2 0h1v2h-1zm16 0h1v1h-1zm1 0h1v1h-1zm1 0h1v1h-1zm1 0h1v1h-1zm7 0h1v1h-1zm3 0h1v1h-1zm17 0h1v1h-1zm3 0h1v1h-1zm19 0h1v1h-1z"/><path d="M132 43h2v1h-2zm2 0h1v2h-1zm1 0h1v1h-1zm7 0h1v1h-1zM10 44h1v2h-1zm16 0h1v1h-1zm1 0h1v1h-1zm7 0h1v1h-1zm1 0h1v1h-1zm2 0h1v1h-1zm15 0h1v1h-1zm1 0h1v1h-1zm1 0h1v1h-1zm11 0h1v1h-1zm12 0h1v1h-1zm5 0h1v1h-1zm3 0h1v1h-1zm11 0h1v1h-1zm1 0h1v1h-1zm7 0h1v3h-1zm13 0h1v1h-1z"/><path d="M133 44h2v1h-2zm2 0h1v2h-1zm7 0h1v1h-1zm1 0h1v1h-1zm14 0h1v1h-1zM11 45h1v1h-1zm12 0h1v1h-1zm1 0h1v1h-1zm1 0h1v1h-1zm1 0h1v1h-1zm10 0h1v1h-1zm1 0h1v1h-1zm14 0h1v1h-1zm1 0h1v1h-1zm10 0h1v1h-1zm3 0h1v2h-1zm11 0h1v1h-1zm6 0h1v1h-1zm3 0h1v2h-1zm11 0h1v1h-1zm1 0h1v1h-1zm4 0h1v1h-1zm15 0h1v1h-1zm4 0h1v1h-1z"/><path d="M134 45h2v1h-2zm2 0h1v2h-1zm7 0h1v1h-1zm1 0h1v1h-1zm11 0h1v1h-1zm1 0h1v1h-1zM9 46h3v1H9zm3 0h1v1h-1zm2 0h1v1h-1zm9 0h1v1h-1zm1 0h1v1h-1zm1 0h1v1h-1zm12 0h1v1h-1zm1 0h1v1h-1zm1 0h1v1h-1zm11 0h1v1h-1zm1 0h1v1h-1zm11 0h3v1h-3zm4 0h1v1h-1zm8 0h1v1h-1zm1 0h1v1h-1zm1 0h1v1h-1zm6 0h3v1h-3zm13 0h1v1h-1zm1 0h1v1h-1zm4 0h1v1h-1zm1 0h3v1h-3zm4 0h1v1h-1zm10 0h1v1h-1zm1 0h1v1h-1zm18 0h1v1h-1z"/><path d="M135 46h2v1h-2zm2 0h1v2h-1zm5 0h1v1h-1zm1 0h1v1h-1zm1 0h1v1h-1zm1 0h1v1h-1zm10 0h1v1h-1zM10 47h1v1h-1zm1 0h4v1h-4zm4 0h1v1h-1zm1 0h1v1h-1zm2 0h1v1h-1zm2 0h1v1h-1zm1 0h2v1h-2zm2 0h1v1h-1zm16 0h1v1h-1zm1 0h1v1h-1zm1 0h1v1h-1zm2 0h1v1h-1zm1 0h1v1h-1zm4 0h1v1h-1zm1 0h1v1h-1zm1 0h1v1h-1zm11 0h1v1h-1zm1 0h4v1h-4zm4 0h1v1h-1zm1 0h1v1h-1zm3 0h1v1h-1zm2 0h1v1h-1zm2 0h1v1h-1zm1 0h1v1h-1zm1 0h1v1h-1zm6 0h4v1h-4zm4 0h1v1h-1zm1 0h1v1h-1zm3 0h1v1h-1zm2 0h1v1h-1zm1 0h1v1h-1zm1 0h1v1h-1zm1 0h1v1h-1zm5 0h1v1h-1zm1 0h5v1h-5zm5 0h1v1h-1zm4 0h1v1h-1zm1 0h1v1h-1zm1 0h1v1h-1zm1 0h1v1h-1zm1 0h1v1h-1zm1 0h1v1h-1zm1 0h1v1h-1zm4 0h3v1h-3zm3 0h1v1h-1zm13 0h1v1h-1zm2 0h1v1h-1zm5 0h1v1h-1zm1 0h2v1h-2zm2 0h1v1h-1zm1 0h1v1h-1zm6 0h1v1h-1zm1 0h1v1h-1zM15 48h1v1h-1zm1 0h3v1h-3zm3 0h1v1h-1zm2 0h1v1h-1zm20 0h1v1h-1zm1 0h4v1h-4zm4 0h1v1h-1zm1 0h1v1h-1zm1 0h1v1h-1zm19 0h1v1h-1zm3 0h1v1h-1zm1 0h1v1h-1zm9 0h1v1h-1zm2 0h1v1h-1zm5 0h1v1h-1zm3 0h1v1h-1zm1 0h1v1h-1zm8 0h1v1h-1zm1 0h1v1h-1zm1 0h1v1h-1zm1 0h1v1h-1zm4 0h7v1h-7zm7 0h1v1h-1zm2 0h1v1h-1zm5 0h1v1h-1zm4 0h1v1h-1zm12 0h1v1h-1zm1 0h1v1h-1zm1 0h1v1h-1zm7 0h1v1h-1zm2 0h1v1h-1zm1 0h1v1h-1zm1 0h2v1h-2zm2 0h1v1h-1zm-13 1h1v1h-1zm1 0h1v1h-1zm1 0h1v1h-1zm-1 1h1v1h-1zm1 0h1v1h-1zm1 0h1v1h-1zm-2 1h1v1h-1zm1 0h1v1h-1zm1 0h1v1h-1zm1 0h1v1h-1zm-2 1h1v1h-1zm1 0h1v1h-1zm1 0h1v1h-1zm1 0h1v1h-1zm1 1h1v1h-1z"/></g><path d="M20 15h1v1h-1zm61 8h1v1h-1zm26 0h1v1h-1zm-74 4h1v1h-1zm25 6h1v1h-1zm46 0h1v1h-1zm0 2h1v1h-1zm28 0h1v1h-1zm-20 1h1v1h-1zm41 2h1v1h-1zM35 40h1v1h-1zm1 2h1v1h-1zm95 1h1v1h-1zM24 44h1v1h-1zm96 0h1v1h-1zm-82 1h1v1h-1zm15 0h1v1h-1zm103 1h1v1h-1zm-75 1h1v1h-1zm15 0h1v1h-1zm-27 1h1v1h-1zm16 0h1v1h-1zm4 0h1v1h-1zm16 0h1v1h-1zm32 1h1v1h-1zm5 4h1v1h-1z" fill="#eb1f27"/><path d="M155 55h1v1h-1zm-20 4h1v1h-1zm1 9h1v1h-1z" fill="#646464"/><path d="M99 21h1v1h-1zm25 22h1v1h-1z" fill="#ec1f25"/><path d="M153 34h1v1h-1zm-35 9h1v1h-1zm6 1h1v1h-1zm-25 3h1v1h-1zm-56 2h1v1h-1z" fill="#ea1f24"/><path d="M19 17h1v1h-1zm111 7h1v1h-1zm-6 15h1v1h-1zm13 5h1v1h-1zm-37 1h1v1h-1zm-27 1h1v1h-1zm34 0h1v1h-1zm-61 3h1v1h-1z" fill="#e8172e"/><path d="M20 17h1v1h-1zm111 5h1v1h-1zM9 24h1v1H9zm105 1h1v1h-1zm29 1h1v1h-1zm-78 7h1v1h-1zm-37 3h1v1h-1zm37 0h1v1h-1zm59 0h1v1h-1zm1 0h1v1h-1zm-71 1h1v1h-1zm4 0h1v1h-1zm37 8h1v1h-1zm10 0h1v1h-1zm-81 2h1v1h-1zm-13 1h1v1h-1zm52 0h1v1h-1zm1 0h1v1h-1zm19 0h1v1h-1zm1 0h1v1h-1zm62 0h1v1h-1z" fill="#ec1f28"/><path d="M22 18h1v1h-1zm22 5h1v1h-1zm1 0h1v1h-1zm86 1h1v1h-1zm2 4h1v1h-1zM17 33h1v1h-1zm13 0h1v1h-1zm99 1h1v1h-1zm-31 9h1v1h-1zm60 1h1v1h-1zm-83 1h1v1h-1zm-24 2h1v1h-1zm-29 1h1v1h-1z" fill="#eb2128"/><path d="M148 21h1v1h-1zm-87 4h1v1h-1zm-28 1h1v1h-1zm3 2h1v1h-1zM23 44h1v1h-1z" fill="#e72424"/><path d="M40 22h1v1h-1zm115 4h1v1h-1zm-54 9h1v1h-1zm-67 1h1v1h-1zm51 3h1v1h-1zm31 5h1v1h-1zm32 3h1v1h-1z" fill="#ed2028"/><path d="M35 24h1v1h-1zm114 7h1v1h-1zm1 6h1v1h-1zm-26 3h1v1h-1zm-68 3h1v1h-1zm25 2h1v1h-1zm32 1h1v1h-1zm4 0h1v1h-1zm-75 3h1v1h-1z" fill="#f21b28"/><path d="M16 26h1v1h-1zm108 1h1v1h-1zM10 28h1v1h-1zm13 10h1v1h-1zm73 5h1v1h-1zm-80 6h1v1h-1z" fill="#e31c1c"/><path fill="#ee1e27" d="M124 45h1v1h-1z"/><path d="M24 15h1v1h-1zm109 20h1v1h-1z" fill="#ed2126"/><path d="M26 16h1v1h-1zm34 5h1v1h-1zm90 0h1v1h-1zM9 26h1v1H9zm119 13h1v1h-1zM15 46h1v1h-1z" fill="#e92126"/><path d="M24 21h1v1h-1zm100 4h1v1h-1zm6 17h1v1h-1zm14 2h1v1h-1zM34 45h1v1h-1z" fill="#ed2323"/><path fill="#ea232b" d="M42 21h1v1h-1z"/><path d="M80 21h1v1h-1zM10 42h1v1h-1z" fill="#ea2025"/><path d="M125 23h1v1h-1zm9 0h1v1h-1zm18 0h1v1h-1zM39 24h1v1h-1zm93 1h1v1h-1zm-80 2h1v1h-1zm52 0h1v1h-1zm42 1h1v1h-1zm-42 2h1v1h-1zm33 0h1v1h-1zm-36 3h1v1h-1zm11 0h1v1h-1zm-78 2h1v1h-1zm75 0h1v1h-1zm-24 5h1v1h-1zm48 0h1v1h-1zm-51 1h1v1h-1zm-45 2h1v1h-1zm64 0h1v1h-1zm31 1h1v1h-1zM8 45h1v1H8zm28 1h1v1h-1zm84 0h1v1h-1zm-74 1h1v1h-1zm96 0h1v1h-1zm13 0h1v1h-1zm-61 1h1v1h-1zm51 4h1v1h-1z" fill="#ec2028"/><path d="M171 54h1v1h-1zm6 0h1v1h-1zm10 0h1v1h-1zm-41 2h1v1h-1zm39 4h1v1h-1zm-88 5h1v1h-1zm67 1h1v1h-1zm-39 1h1v1h-1zm17 0h1v1h-1zm23 0h1v1h-1zm-43 1h1v1h-1z" fill="gray"/><path d="M100 64h1v1h-1zm41 5h1v1h-1z" fill="#616161"/><path d="M26 15h1v1h-1zM11 29h1v1h-1zm100 7h1v1h-1z" fill="#f11c2b"/><path d="M9 20h1v1H9zm101 3h1v1h-1zM34 33h1v1h-1zm-12 3h1v1h-1zm133 5h1v1h-1zM39 48h1v1h-1z" fill="#ed2128"/></svg>