<svg xmlns="http://www.w3.org/2000/svg" role="img" xmlns:xlink="http://www.w3.org/1999/xlink" viewBox="-2.57 0.43 276.64 137.64"><title>Southeast University (member) logo</title><defs><path d="M8.3789-13.88672c.13673 2.4414.71485 4.42578 1.73048 5.94922 1.93359 2.85156 5.33984 4.27344 10.22265 4.27344 2.1875 0 4.17969-.3125 5.97656-.9375 3.47657-1.21094 5.21485-3.375 5.21485-6.5 0-2.34375-.73438-4.01563-2.19532-5.01172-1.48437-.97656-3.8125-1.82422-6.97656-2.55078l-5.82812-1.3164c-3.8086-.85938-6.5039-1.8086-8.08594-2.83985-2.73438-1.79688-4.10156-4.48438-4.10156-8.0586 0-3.86718 1.33594-7.04296 4.01562-9.51953 2.67578-2.48047 6.46094-3.72265 11.36719-3.72265 4.51172 0 8.34375 1.08984 11.4961 3.26562 3.15624 2.17969 4.73046 5.66016 4.73046 10.44531h-5.47656c-.29297-2.30468-.91797-4.07421-1.875-5.30078-1.77734-2.2461-4.79688-3.3711-9.05469-3.3711-3.4375 0-5.90625.72266-7.41015 2.16798C10.625-35.46875 9.875-33.78906 9.875-31.875c0 2.10938.875 3.65234 2.63281 4.6289 1.15235.625 3.76172 1.40626 7.82422 2.34376l6.03516 1.3789c2.91015.66407 5.15625 1.57032 6.73828 2.72266 2.73437 2.01172 4.10156 4.9336 4.10156 8.76172 0 4.76562-1.73437 8.17187-5.19922 10.22265-3.46875 2.05079-7.4961 3.07422-12.08593 3.07422-5.35157 0-9.53907-1.36719-12.57032-4.10156-3.02734-2.71484-4.50781-6.39453-4.45312-11.04297zm0 0" id="a"/><path d="M16.32031-3.39844c3.4961 0 5.89063-1.32422 7.1914-3.96875 1.29688-2.64844 1.94923-5.59375 1.94923-8.83594 0-2.92968-.46875-5.3125-1.40625-7.14843C22.5703-26.2422 20.0078-27.6875 16.375-27.6875c-3.22266 0-5.5625 1.23438-7.03125 3.69531-1.46484 2.46094-2.19531 5.42969-2.19531 8.90625 0 3.33985.73437 6.1211 2.19531 8.34766 1.46484 2.22656 3.78906 3.33984 6.97656 3.33984zm.20313-28.88672c4.04297 0 7.46093 1.34766 10.2539 4.04297 2.79297 2.69532 4.19141 6.66016 4.19141 11.89453 0 5.0586-1.23438 9.23829-3.69531 12.53907C24.8125-.50781 20.99609 1.14063 15.8203 1.14063c-4.3164 0-7.74218-1.45704-10.28125-4.37891C3-6.15625 1.72656-10.07813 1.72656-15c0-5.27344 1.33985-9.47266 4.01563-12.59766 2.67578-3.125 6.26953-4.6875 10.78125-4.6875zm0 0" id="b"/><path d="M9.14063-31.375v20.82813c0 1.60156.2539 2.91015.76171 3.92578.9375 1.875 2.6836 2.8125 5.2461 2.8125 3.67187 0 6.17187-1.64063 7.5-4.92188.72265-1.75781 1.08203-4.16797 1.08203-7.23828V-31.375h5.27344V0h-4.98047l.0586-4.6289c-.6836 1.1914-1.53516 2.19921-2.55079 3.01952C19.51953.03126 17.07812.85156 14.21094.85156c-4.47266 0-7.52344-1.4961-9.14063-4.48437C4.19141-5.23437 3.75-7.375 3.75-10.04688V-31.375zm0 0" id="c"/><path d="M4.92188-40.13672h5.33203v8.76172h5.01172v4.30469H10.2539v20.47656c0 1.09375.37109 1.82813 1.11328 2.19922.41015.21484 1.09375.32422 2.05078.32422.2539 0 .52734-.00781.82031-.01563.29297-.01172.63672-.03515 1.02735-.07422V0c-.60547.17578-1.23829.30469-1.89063.38281C12.71875.46094 12.01172.5 11.25.5 8.78906.5 7.11719-.13281 6.24219-1.39063c-.8789-1.26171-1.32031-2.89843-1.32031-4.90625V-27.0703h-4.25V-31.375h4.25zm0 0" id="d"/><path d="M3.86719-43.1836h5.27343v16.0547c1.25-1.58204 2.375-2.69532 3.3672-3.33985 1.69921-1.11328 3.8203-1.67188 6.35937-1.67188 4.55078 0 7.63672 1.59376 9.25781 4.77735.8789 1.73828 1.32031 4.15234 1.32031 7.23828V0h-5.42187v-19.77344c0-2.30468-.29297-3.9961-.8789-5.07031-.95704-1.71875-2.75391-2.57813-5.39063-2.57813-2.1875 0-4.16797.75-5.94922 2.25782-1.77735 1.5039-2.66407 4.34375-2.66407 8.52343V0H3.8672zm0 0" id="e"/><path d="M16.9336-32.07813c2.22656 0 4.38671.51954 6.47265 1.56641 2.08984 1.04297 3.6836 2.39453 4.77734 4.0586 1.0547 1.58203 1.75782 3.42578 2.10938 5.53515.3125 1.44531.46875 3.75.46875 6.91406H7.76562c.09766 3.1836.84766 5.73828 2.25391 7.66016 1.40625 1.92578 3.58203 2.88672 6.53516 2.88672 2.7539 0 4.94922-.91016 6.58984-2.72266.9375-1.05469 1.60156-2.27734 1.99219-3.66406h5.1836c-.13673 1.15234-.58985 2.4375-1.35938 3.85156-.77344 1.41797-1.63672 2.57422-2.59375 3.47266C24.76562-.95703 22.78125.09766 20.42187.64453c-1.26953.3125-2.70703.46875-4.30859.46875-3.90625 0-7.21484-1.42187-9.9336-4.26172-2.71484-2.84375-4.0703-6.82031-4.0703-11.9375 0-5.03906 1.36718-9.13281 4.10156-12.27734 2.73437-3.14453 6.3086-4.71485 10.72265-4.71485zm8.41015 13.88282c-.21484-2.28516-.71484-4.10938-1.4961-5.47657-1.4453-2.53906-3.85546-3.80859-7.23828-3.80859-2.42187 0-4.45312.875-6.09374 2.6211-1.64063 1.75-2.50782 3.96874-2.60547 6.66406zm0 0" id="f"/><path d="M7.91016-8.35156c0 1.52343.55859 2.72656 1.66796 3.60547 1.11329.8789 2.4336 1.3164 3.95704 1.3164 1.85547 0 3.65234-.42969 5.39062-1.28906 2.92969-1.42578 4.39453-3.75781 4.39453-7v-4.25c-.64453.41016-1.47656.7539-2.49218 1.02734-1.01563.27344-2.00782.46875-2.98438.58594l-3.19531.41016c-1.91407.2539-3.35157.65625-4.30469 1.20312-1.6211.91797-2.4336 2.38282-2.4336 4.39063zm12.77343-10.66407c1.21094-.15624 2.01954-.66406 2.4336-1.52343.23437-.46875.35156-1.14063.35156-2.01953 0-1.79688-.64063-3.10157-1.92188-3.91016-1.27734-.8125-3.10937-1.21875-5.49218-1.21875-2.7539 0-4.70703.74219-5.85938 2.22656-.64453.82032-1.0625 2.04297-1.25781 3.66407H4.01562c.09766-3.8672 1.35157-6.5586 3.76172-8.07032 2.41407-1.51562 5.21094-2.27343 8.39454-2.27343 3.6914 0 6.6875.70312 8.99218 2.10937 2.28516 1.40625 3.42969 3.59375 3.42969 6.5625v18.07813c0 .54687.11328.98437.33594 1.3203.22656.33204.69922.4961 1.42187.4961.23438 0 .5-.01562.78907-.04297.29296-.03125.60937-.07422.9375-.13281V.14844c-.82032.23437-1.44532.3789-1.875.4375-.4297.0586-1.01563.08593-1.75782.08593-1.8164 0-3.13281-.64062-3.95312-1.92968-.42969-.6836-.73438-1.65235-.90625-2.90235C22.51172-2.7539 20.96875-1.53125 18.95312-.5 16.94141.53516 14.72657 1.05469 12.3047 1.05469c-2.91016 0-5.28907-.88281-7.13282-2.65235-1.84765-1.76562-2.76953-3.98046-2.76953-6.63671 0-2.91016.91016-5.16407 2.72266-6.76563 1.8164-1.60156 4.20313-2.58594 7.14844-2.96094zm0 0" id="g"/><path d="M7-9.84375c.15625 1.75781.59766 3.10547 1.32031 4.04297C9.64844-4.10156 11.95313-3.25 15.23438-3.25c1.95312 0 3.67187-.42578 5.15625-1.27734C21.875-5.375 22.61718-6.6875 22.61718-8.46875c0-1.34766-.59375-2.3711-1.78907-3.07422-.76171-.42969-2.26562-.92578-4.5078-1.4961l-4.19141-1.05468C9.45313-14.75781 7.48047-15.5 6.21094-16.32031 3.9453-17.7461 2.8125-19.71875 2.8125-22.23438c0-2.96874 1.07031-5.375 3.20703-7.21093 2.14063-1.83594 5.01563-2.75 8.6289-2.75 4.72657 0 8.13282 1.38281 10.22657 4.15625 1.3086 1.75781 1.9414 3.65625 1.90234 5.6875h-4.98046c-.09766-1.1914-.51563-2.27735-1.25782-3.2539-1.21093-1.38673-3.3125-2.08204-6.30078-2.08204-1.99219 0-3.5.38281-4.52734 1.14453-1.02344.76172-1.53907 1.76953-1.53907 3.01953 0 1.36719.67579 2.46094 2.02344 3.28125.78125.48828 1.9336.91407 3.45703 1.28907l3.48828.84765c3.78907.91797 6.32813 1.8086 7.6172 2.66797 2.05077 1.34766 3.07421 3.46484 3.07421 6.35547 0 2.79297-1.0586 5.20703-3.17969 7.23828C22.53516.1875 19.3047 1.20313 14.96875 1.20313c-4.66797 0-7.97266-1.0625-9.91406-3.1797-1.94531-2.12109-2.98438-4.74218-3.1211-7.86718zm0 0" id="h"/><path d="M10.89844-43.03906v26.60156c0 3.125.58593 5.72656 1.75781 7.79688 1.73828 3.125 4.66797 4.6875 8.78906 4.6875 4.9414 0 8.30078-1.69141 10.07813-5.07032.95703-1.83593 1.4375-4.30468 1.4375-7.41406v-26.60156H38.875v24.17187c0 5.29297-.71094 9.36719-2.13672 12.21875-2.61719 5.19531-7.5586 7.78906-14.82422 7.78906S9.71875-1.45313 7.1172-6.64844C5.6914-9.5 4.98047-13.57422 4.98047-18.86719v-24.17187zm0 0" id="i"/><path d="M3.86719-31.375H8.875v4.45313c1.48438-1.83594 3.0586-3.15626 4.71875-3.95704 1.66016-.80078 3.50781-1.19921 5.53906-1.19921 4.45313 0 7.46094 1.55078 9.02344 4.65624.85938 1.69922 1.28906 4.13282 1.28906 7.29688V0h-5.36328v-19.77344c0-1.91406-.28515-3.46093-.84765-4.63281-.9375-1.95313-2.64063-2.92969-5.10157-2.92969-1.25 0-2.27343.1289-3.07422.38282-1.4453.42968-2.71484 1.28906-3.80859 2.57812-.8789 1.03516-1.44922 2.10547-1.71484 3.20703-.26172 1.10547-.39453 2.6836-.39453 4.73047V0H3.86719zm0 0" id="j"/><path d="M3.86719-31.23047h5.35937V0H3.8672zm0-11.8086h5.35937v5.97657H3.8672zm0 0" id="k"/><path d="M6.44531-31.375l8.3789 25.54688L23.58595-31.375h5.76953L17.51953 0h-5.625L.32031-31.375zm0 0" id="l"/><path d="M4.01563-31.375h5.0078v5.41797c.41016-1.05469 1.41407-2.33985 3.01563-3.85156 1.60157-1.51563 3.44922-2.26954 5.53907-2.26954.09765 0 .26562.00782.5.02735.23437.01953.6328.0586 1.19921.11719v5.5664c-.3125-.0586-.60156-.09765-.86328-.11718-.26562-.01954-.55468-.03126-.86718-.03126-2.65626 0-4.69532.85547-6.1211 2.56641C10-22.24219 9.28906-20.27344 9.28906-18.04687V0H4.01563zm0 0" id="m"/><path d="M23.46875-31.375h5.82813c-.7422 2.01172-2.39063 6.60156-4.95313 13.76563-1.91406 5.39062-3.51563 9.78906-4.80469 13.1875-3.04687 8.0078-5.19531 12.89062-6.44531 14.64843-1.25 1.75782-3.39844 2.63282-6.44531 2.63282-.74219 0-1.3125-.02735-1.71094-.08594-.40234-.0586-.89453-.16407-1.48047-.32032V7.64844c.91797.2539 1.58203.40625 1.99219.46875.41015.0586.76953.08593 1.08203.08593.97656 0 1.69531-.16015 2.15625-.48437.45703-.32031.84375-.71875 1.15625-1.1875.09766-.15625.44922-.95313 1.05469-2.39844.60547-1.44531 1.04687-2.52344 1.32031-3.22656L.61719-31.375h5.97656L15-5.82812zm0 0" id="n"/></defs><use y="50" xlink:href="#a"/><use x="40.02" y="50" xlink:href="#b"/><use x="73.389" y="50" xlink:href="#c"/><use x="106.758" y="50" xlink:href="#d"/><use x="123.428" y="50" xlink:href="#e"/><use x="156.797" y="50" xlink:href="#f"/><use x="190.166" y="50" xlink:href="#g"/><use x="223.535" y="50" xlink:href="#h"/><use x="253.535" y="50" xlink:href="#d"/><g><use y="120" xlink:href="#i"/><use x="43.33" y="120" xlink:href="#j"/><use x="76.699" y="120" xlink:href="#k"/><use x="90.029" y="120" xlink:href="#l"/><use x="120.029" y="120" xlink:href="#f"/><use x="153.398" y="120" xlink:href="#m"/><use x="173.379" y="120" xlink:href="#h"/><use x="203.379" y="120" xlink:href="#k"/><use x="216.709" y="120" xlink:href="#d"/><use x="233.379" y="120" xlink:href="#n"/></g></svg>