<svg xmlns="http://www.w3.org/2000/svg" role="img" viewBox="-7.67 -7.42 437.84 150.59"><title>SpacemiT (Hangzhou) Technology Co. Ltd (member) logo</title><path fill="#646464" fill-rule="evenodd" d="M240.671 27.251c-1.54 1.127-1.684 3.452-1.441 23.25l.27 21.999 19.25.272 19.25.271V64h-31V36h31V26h-17.809c-12.679 0-18.302.36-19.52 1.251m42.376.661c-.576 1.076-1.047 3.346-1.047 5.043v3.087l19.75-.271 19.75-.271v-9l-18.703-.272c-17.689-.257-18.76-.166-19.75 1.684M326 49.5V73h7.944l.278-13.664.278-13.664 4.571 8.914c4.086 7.97 4.864 8.914 7.338 8.914 2.485 0 3.266-.968 7.663-9.5l4.897-9.5.015 14.25L359 73h8V26h-3.34c-3.187 0-3.554.408-7.967 8.838-2.544 4.861-5.713 10.754-7.042 13.094l-2.418 4.256-3.366-6.384c-1.852-3.511-4.937-9.403-6.856-13.094-3.222-6.195-3.74-6.71-6.75-6.71H326v23.5m45 0v23.615l4.25-.308 4.25-.307v-46l-4.25-.307-4.25-.308V49.5m12.398-22.095c-.296.772-.395 2.91-.218 4.75l.32 3.345 7.75.292 7.75.292V73h8V36h15V26h-19.031c-15.421 0-19.134.266-19.571 1.405m-278.307.986c-.771.929-1.061 5.491-.873 13.75L104.5 54.5l16.75.274 16.75.274v8.904l-16.75.274-16.75.274-.307 4.25-.308 4.25h20.358c14.5 0 20.702-.345 21.557-1.2.808-.808 1.2-5.378 1.2-14V45h-34v-9h34v-9h-20.378c-16.181 0-20.615.286-21.531 1.391M151 31.5V36h34v9h-34v28h8V55.05l16.25-.275 16.25-.275.278-13.75.278-13.75H151v4.5m57.066-2.25c-1.851 4.674-6.008 15.554-9.076 23.75-3.366 8.996-4.067 10.824-5.865 15.297-1.724 4.288-1.448 4.703 3.13 4.703h4.255l2.329-6.25c10.543-28.294 11.997-31.869 12.096-29.75.039.825 2.265 7.125 4.948 14l4.877 12.5-5.38.3-5.38.3V73h11.5c6.325 0 11.5-.282 11.5-.626 0-.549-5.676-15.426-7.965-20.874-.462-1.1-1.784-4.587-2.938-7.75-1.153-3.163-3.049-8.225-4.213-11.25l-2.116-5.5h-5.406c-4.674 0-5.525.304-6.296 2.25M282 57.418c0 6.83.273 13.13.607 14 .525 1.367 3.239 1.582 20 1.582H322v-9h-32V54h32v-9h-40v12.418M107 94c0 3.6.25 4 2.5 4s2.5-.4 2.5-4-.25-4-2.5-4-2.5.4-2.5 4m16-2c0 1.672-.667 2-4.066 2-3.847 0-4.05.149-3.75 2.75.274 2.388.81 2.791 4.066 3.06 3.724.309 3.75.342 3.75 4.75V109h-4.066c-3.847 0-4.05.149-3.75 2.75.248 2.16.906 2.818 3.066 3.066 3.478.401 3.445.872-.332 4.769-2.758 2.846-2.943 3.402-1.759 5.297.727 1.165 1.603 2.118 1.947 2.118 1.646 0 6.16-4.6 7.942-8.095 1.864-3.653 2.279-3.905 6.425-3.905h4.432l.297 6.25c.268 5.614.527 6.283 2.548 6.57 2.137.303 2.25-.01 2.25-6.25V115h3c2.667 0 3-.333 3-3s-.333-3-3-3c-2.889 0-3-.167-3-4.5s.111-4.5 3-4.5c2.667 0 3-.333 3-3s-.333-3-3-3c-2.333 0-3-.444-3-2 0-1.467-.667-2-2.5-2s-2.5.533-2.5 2c0 1.704-.667 2-4.5 2s-4.5-.296-4.5-2c0-1.467-.667-2-2.5-2s-2.5.533-2.5 2m32.39-.573c-1.229 3.203.053 6.066 2.86 6.389 2.601.3 2.75.097 2.75-3.75 0-3.684-.238-4.066-2.531-4.066-1.393 0-2.778.642-3.079 1.427m8.805 3.323l.305 4.75 6.25.298c6.188.294 6.25.327 6.25 3.25V106h-13v3c0 2.998.003 3 5.969 3 7.299 0 7.212 1.089-.478 6-5.625 3.592-6.248 4.718-4.459 8.059.996 1.862 1.175 1.836 5.25-.759 2.32-1.477 5.477-3.829 7.015-5.225 1.984-1.801 3.012-2.193 3.535-1.346.406.656 3.495 2.975 6.865 5.153l6.126 3.96 1.248-3.013c.811-1.957.899-3.244.252-3.671-.548-.362-3.32-2.167-6.16-4.012-2.84-1.845-5.163-3.758-5.163-4.25 0-.493 2.7-.896 6-.896h6v-6h-13v-6h13v-6h-6.5c-5.833 0-6.5-.205-6.5-2 0-1.556-.667-2-3-2s-3 .444-3 2c0 1.667-.667 2-4 2s-4-.333-4-2c0-1.478-.667-2-2.555-2-2.424 0-2.539.243-2.25 4.75M237 92c0 1.795-.667 2-6.5 2H224v6h13v4c0 3.955-.042 4-3.75 4.005-2.062.002-8.812.296-15 .652l-11.25.649V97h10v4.5c0 4.154.196 4.5 2.544 4.5 2.518 0 2.541-.073 2.25-7.25l-.294-7.25h-19l-.27 21.274c-.237 18.646-.074 21.348 1.314 21.881.87.334 5.267.211 9.769-.274l8.187-.881.29-8.25c.291-8.245.289-8.25-2.25-8.25-2.438 0-2.54.241-2.54 6v6h-10v-14h30v14h-4.5c-4.133 0-4.5.204-4.5 2.5 0 2.402.247 2.5 6.3 2.5 3.567 0 6.821-.521 7.5-1.2.832-.832 1.2-6.044 1.2-17 0-13.378.23-15.8 1.5-15.8 1 0 1.5-1 1.5-3s-.5-3-1.5-3c-.833 0-1.5-.889-1.5-2 0-1.556-.667-2-3-2s-3 .444-3 2m31.29 0c-.474 1.81-1.364 2-9.388 2-8.521 0-8.887.093-9.466 2.398-1.133 4.514-.161 7.076 2.814 7.418 2.151.248 2.75-.099 2.75-1.593 0-1.771 1.137-1.957 15.615-2.554 8.589-.355 16.014-.398 16.5-.098.487.301.885 1.42.885 2.488 0 1.404.692 1.941 2.5 1.941 2.179 0 2.5-.439 2.5-3.418 0-6.377-.315-6.582-10.107-6.582-8.226 0-8.893-.15-8.893-2 0-1.486-.667-2-2.594-2-1.752 0-2.763.649-3.116 2M128 104.5v4.5h9v-9h-9v4.5m-24 0c0 1.556.567 2.5 1.5 2.5 1.242 0 1.5 1.877 1.5 10.893 0 8.76-.294 11.006-1.5 11.469-.825.316-1.5 1.714-1.5 3.107V135H149.133l-.317-2.75-.316-2.75-18.25-.273-18.25-.272V102h-4c-3.6 0-4 .25-4 2.5m49-.06c0 1.408.45 2.56 1 2.56.606 0 1 4.314 1 10.941 0 6.215-.432 11.208-1 11.559-.55.34-1 1.716-1 3.059V135H197.133l-.317-2.75-.316-2.75-17.721-.273-17.721-.273-.279-13.227-.279-13.227-3.75-.31c-3.438-.285-3.75-.098-3.75 2.25m103.782 2.982c-1.805 2.432-4.069 4.64-5.032 4.907-1.092.302-1.75 1.458-1.75 3.077V118h18v10.922l-8.75.289c-8.211.271-8.77.428-9.07 2.539l-.319 2.25H292v-2.5c0-2.481-.067-2.5-9-2.5h-9v-11h9c8.963 0 9-.01 9-2.531 0-1.393-.608-2.765-1.352-3.05-.743-.286-2.852-2.522-4.686-4.969-2.564-3.423-3.983-4.45-6.148-4.45-3.137 0-3.752 1.976-1.259 4.045.855.71 1.995 2.115 2.535 3.123.923 1.725.331 1.832-10.128 1.832h-11.108l3.073-3.728c3.815-4.628 3.828-5.272.105-5.272-2.349 0-3.653.923-6.25 4.422"/><path fill="#bde552" fill-rule="evenodd" d="M71.5 4.034c-2.75 1.645-8.806 5.573-13.457 8.728-10.306 6.992-10.338 7.083-9.879 27.807.356 16.041 1.032 18.432 5.208 18.43 1.912 0 23.541-13.028 27.878-16.791C82.797 40.866 83 38.575 83 22.416c0-15.279-.258-18.531-1.571-19.845C79.194.337 77.189.632 71.5 4.034M57.398 64.423c-9.124 6.022-9.409 6.598-9.383 18.952.015 7.603 1.479 11.904 4.23 12.434 1.797.346 15.389-7.876 17.505-10.589 1.548-1.985 1.721-21.472.215-24.286-1.574-2.94-3.737-2.34-12.567 3.489M5 63.694c-3.711 1.326-4 3.204-4 25.997 0 25.227-.476 23.637 8.648 28.909 2.669 1.542 5.077 3.072 5.352 3.4.275.328 2.542 1.775 5.039 3.216 2.496 1.441 6.986 4.232 9.977 6.202 5.884 3.876 8.522 4.37 11.543 2.164 1.799-1.314 1.963-2.982 2.244-22.794.18-12.624-.105-22.453-.696-24.006-.582-1.531-3.278-4.021-6.45-5.956-2.997-1.829-8.083-4.956-11.303-6.948-13.577-8.4-17.767-10.874-18.295-10.799-.308.043-1.234.32-2.059.615"/></svg>