<svg xmlns="http://www.w3.org/2000/svg" role="img" viewBox="-24.94 -24.94 1296.88 288.88"><title>Stacklok logo</title><defs id="defs1"><style id="style1">.cls-1{fill:#002a3e}.cls-2{fill:#00bbbe}.cls-4{fill:#59cfa8}</style></defs><path id="path6" d="M799.15 96.83c.6-5.76 2.65-24.4 2.65-24.4-9.4-3.73-19.51-5.6-29.42-5.6-10.93 0-21.61 2.26-30.79 6.79-18.48 9.11-29.5 28.44-29.48 51.72-.02 23.29 10.99 42.62 29.48 51.73 17.49 8.61 40.44 9.04 60.2 1.19 0 0-2.05-18.64-2.65-24.4-12.59 3.39-24.01 5.56-35.3 1.12-11.45-4.5-17.8-15.02-17.89-29.63.09-14.63 6.44-25.15 17.89-29.65 11.29-4.43 22.71-2.26 35.3 1.12z" class="cls-1" transform="translate(-5.67 -5.67)"/><path id="polygon7" d="M982.47 180.34V35.38l-34.38 9.45v135.51z" class="cls-1" transform="translate(-5.67 -5.67)"/><path id="polygon8" d="M854.23 117.88v-82.5l-34.38 9.46v135.5h34.38V153.6l13.48-16.55 29.57 43.29h36.8l-46.37-67.86 34.49-42.35h-29.09z" class="cls-1" transform="translate(-5.67 -5.67)"/><path id="polygon9" d="M1206.55 112.48l34.49-42.35h-29.09l-38.89 47.74V35.38l-34.38 9.46v135.5h34.38V153.6l13.49-16.55 29.57 43.29h36.79z" class="cls-1" transform="translate(-5.67 -5.67)"/><path id="path9" d="M1061.27 66.48c-23.97 0-38.23 9.23-45.97 16.98-9.24 9.26-14.53 21.8-14.52 34.41v14.82c-.01 12.62 5.28 25.16 14.52 34.41 7.74 7.75 22 16.98 45.97 16.98s38.22-9.23 45.95-16.98c9.24-9.26 14.54-21.79 14.52-34.41v-14.82c.01-12.62-5.28-25.16-14.52-34.41-7.73-7.75-21.99-16.98-45.95-16.98zm17.01 87.13c-4.24 4.25-9.96 6.4-17.01 6.4-7.05 0-12.78-2.16-17.02-6.41-5.79-5.8-8.7-15.33-8.67-28.33-.03-12.99 2.89-22.52 8.67-28.32 4.24-4.25 9.97-6.41 17.02-6.41 7.05 0 12.77 2.16 17.01 6.4 5.79 5.8 8.7 15.33 8.67 28.33.03 12.99-2.89 22.53-8.67 28.32z" class="cls-1" transform="translate(-5.67 -5.67)"/><path id="path10" d="M573.93 70.12h-31.45V35.38l-34.38 9.46v96.07c0 20.95 9.91 36.18 26.5 40.74 11.79 3.24 24.81 2.95 39.33-.76v-23.97c-4.53.94-9.3 1.39-14.83 1.27-8.38-.22-16.3-8.58-16.3-17.22l-.33-48.63h31.46z" class="cls-1" transform="translate(-5.67 -5.67)"/><path id="path11" d="M485.34 126.56c-12.25-13.13-35.46-11.88-51.54-17.32-5.08-1.72-11.47-6.1-8.05-12.23 2.51-4.5 8.45-5.5 13.15-5.84 16.71-1.22 32.73 2.77 47.02 6.57l2.48-22.62c-26.27-8.4-69.39-16.39-90.44 7.47-10.34 11.72-10.57 30.71-.5 41.47 12.26 13.1 35.46 11.86 51.52 17.3 4.37 1.48 9.57 4.37 8.93 9.74-.76 6.45-8.74 7.94-14.03 8.33-16.7 1.24-32.72-2.76-47.02-6.57l-2.48 22.62c26.28 8.41 69.38 16.4 90.44-7.47 10.33-11.71 10.58-30.67.53-41.44z" class="cls-1" transform="translate(-5.67 -5.67)"/><path id="path12" d="M694.8 102.62c0-7.31-2.86-14.77-7.85-20.48C678.09 72 663 66.8 642.11 66.67c-13.33-.07-29.73 2.8-45.6 7.93l2.48 22.85c12.49-3.36 26.3-6.86 40.74-6.86 6.2 0 15.39.34 19.45 5.93 4.28 5.89-3.1 10.85-8.08 12.55-11.92 4.08-24.53 5.98-36.74 9.02-14.58 3.63-25.74 18.98-25.44 34.95.17 9.06 4.21 17.65 10.8 22.99 16.69 13.51 45.72 8.79 62.31-7.88l2.23 12.18h30.79l-.25-77.72zm-32.82 48.42c-8.76 7.95-20.18 11.55-31.8 8.87-6.21-1.43-10.07-7.66-8.97-14.5 1.52-9.54 11.79-12.2 16.72-13.48l24.1-6.06-.05 25.17z" class="cls-1" transform="translate(-5.67 -5.67)"/><path id="polygon1" d="M325.59 187.26l-57.54 57.55H166.11L325.59 85.32z" class="cls-4" transform="translate(-5.67 -5.67)"/><path id="polygon2" d="M5.67 63.21L63.21 5.67h101.94L5.67 165.15z" class="cls-4" transform="translate(-5.67 -5.67)"/><path id="polygon3" d="M245.85 5.67l-79.66 79.65h159.4l-.08-79.65z" class="cls-2" transform="translate(-5.67 -5.67)"/><path id="polygon4" d="M85.41 244.81l79.66-79.66H5.67l.09 79.66z" class="cls-2" transform="translate(-5.67 -5.67)"/><path id="polygon5" d="M325.59 85.32l-79.74 79.74V85.32z" class="cls-1" transform="translate(-5.67 -5.67)"/><path id="polygon6" d="M5.67 165.15l79.74-79.74v79.74z" class="cls-1" transform="translate(-5.67 -5.67)"/></svg>