<svg xmlns="http://www.w3.org/2000/svg" role="img" viewBox="-13.92 -13.42 749.84 216.34"><title>Staubli Corporation logo</title><path fill="#FFF" d="M722 62v127c-208.35535 0-416.7107 0-625.32677-.34625 7.03246-2.16106 14.57843-3.30869 21.55747-5.95272 9.59904-3.63667 18.58323-8.85676 25.26213-16.89588 7.46177-8.98144 11.9459-19.31853 13.80427-31.06658 2.01413-12.73265-.17137-24.27929-8.88678-33.49922-7.38072-7.80798-16.1421-14.33668-24.47414-21.21131-6.59068-5.4379-13.9629-10.01744-20.07973-15.91951-8.66966-8.36527-7.68527-18.27708 1.4031-25.93465 7.67358-6.4655 17.08717-8.25782 26.3444-7.85196 8.87362.38905 17.79478 2.81902 26.39523 5.3649 7.4173 2.19565 14.41282 5.81626 21.75749 8.87462l14.17543-28.63678c-10.27478-3.50444-19.6085-7.04082-29.15993-9.83237C157.32177 3.91478 149.60075 2.6631 142 1h580c0 18.4244 0 36.74522-.46863 55.53302-10.28595.46722-20.10742.3259-29.91626.61326-1.55414.04553-3.88287 1.70491-4.44049 3.15976-3.63366 9.4797-6.84058 19.12208-10.25708 28.6862-5.56616 15.58167-11.2309 31.1282-16.76306 46.72184-2.55005 7.1878-4.88464 14.45201-7.51648 22.2746 11.21826 0 21.68048.10863 32.133-.1589 1.11169-.02845 2.6646-2.07879 3.1751-3.49346 10.7303-29.7335 21.33039-59.514 32.0102-89.2658.40326-1.12329 1.3501-2.05145 2.0437-3.07052m-257.32779 96c21.16287 0 42.3295.22134 63.4863-.13818 6.15314-.10456 12.46063-1.24794 18.38232-2.98754 19.13892-5.62239 25.0268-27.84656 17.72687-40.02055-1.93237-3.22265-4.98425-5.77403-7.4226-8.52153 10.86217-3.19863 18.67333-10.42139 20.62255-22.4589 1.84924-11.41943 1.0254-19.7151-11.92987-24.9782-2.10028-.85321-4.3761-1.78881-6.57611-1.80228-21.8081-.13356-43.61731-.08086-65.3776-.08086C481.63954 90.67768 469.8118 124.01414 457.7537 158h6.91852m-110.80377-11.48062c4.39438 7.04913 11.28274 10.6249 18.92892 12.37236 14.69818 3.35905 29.4368 2.09431 43.97342-1.3136 15.3018-3.58728 25.51047-13.07846 30.8551-27.81602 6.09617-16.80985 12.20112-33.61677 18.20875-50.45832 2.5649-7.19032 4.89303-14.4651 7.52966-22.29828-11.08148 0-21.39255-.10722-31.69498.14124-1.23132.02969-3.0509 1.7674-3.527 3.09689-7.13495 19.92334-14.1268 39.89833-21.0698 59.88983-2.96259 8.53045-8.05103 14.2609-17.44714 16.15248-9.25241 1.86265-20.30826-2.80508-15.856-15.74929 3.30485-9.60838 6.55744-19.23492 9.90406-28.8287 3.99329-11.44764 8.06207-22.86897 12.24155-34.70785-9.91803 0-19.24256.11146-28.56174-.0622-3.13953-.0585-4.45895.91257-5.5407 4.03643-6.27992 18.1348-13.23377 36.04062-19.29191 54.2461-3.36392 10.10896-4.8125 20.62902 1.3478 31.29893M283.50019 136h21.08576c.45218 7.79137.8587 14.79596 1.25943 21.70128h33.1357c0-1.75353.073-3.22534-.01162-4.68802-.63904-11.04244-1.51196-22.07558-1.91934-33.1261-.5379-14.58948-.61365-29.19565-1.10162-43.7875-.20816-6.22384-.95649-12.4296-1.4954-19.08935-15.49289 0-30.9408-.05023-46.3866.10623-1.10033.01114-2.4886 1.32743-3.23156 2.39334-9.7598 14.00232-19.46323 28.04433-29.10876 42.12573-10.6662 15.57144-21.24929 31.1998-31.89064 46.7883-1.98273 2.90444-4.06983 5.73765-6.8005 9.57609 8.97254 0 16.61094-.4521 24.1646.15323 5.35725.42932 8.43108-1.48104 11.08414-5.83136 3.32478-5.45174 6.13508-12.5774 11.1548-15.25551 5.09375-2.7176 12.6079-.89854 20.06161-1.06636m-94.99385-47.00754c-8.01492 22.74755-16.02986 45.4951-24.31178 69.0004 11.66307 0 21.96466.08974 32.25995-.12425 1.16379-.02417 2.88876-1.5358 3.34103-2.73845 3.23047-8.59009 6.18042-17.2853 9.25324-25.93512 5.80467-16.33997 11.63196-32.6719 17.51686-49.1953 8.64532 0 17.12535.07605 25.60129-.07607 1.38629-.02489 3.55644-.6935 4.00209-1.68 3.09063-6.84116 5.82098-13.84509 8.84915-21.24184-31.86808 0-62.99736-.02034-94.1263.0741-1.25034.00379-3.24638.79155-3.62537 1.72792-2.6231 6.48083-4.90924 13.09807-7.48104 20.15875h31.85432c-.99193 3.35472-1.87442 6.3394-3.13344 10.02986m435.6058 16.73856L641.57073 57c-8.02942 0-15.16052-.0464-22.29053.01822-3.9751.03603-8.703-.99965-11.68445.79085-2.39495 1.43826-2.6444 6.41195-3.90203 9.79598-.68586 1.84553-1.56275 3.62105-2.22669 5.4736-7.13891 19.91837-14.29132 39.8321-21.35437 59.77741-2.88067 8.13445-5.55261 16.34278-8.52826 25.13404 23.58838 0 46.38696.01332 69.18524-.05635.78339-.00238 2.0127-.65494 2.27668-1.3098 2.53192-6.281 4.90081-12.6277 7.6272-19.76978h-36.30665c-.15039-.8332-.34118-1.20253-.24829-1.47532 3.2765-9.62574 6.57971-19.24236 9.99353-29.64783M353.96228 41.58548c2.0048-1.69515 4.30322-3.14438 5.96414-5.12754 7.68637-9.17754 4.03418-23.33443-6.64947-26.28778-10.3158-2.85165-21.97052 1.94332-27.09629 11.52693-4.89663 9.15514-.90951 20.61207 9.10422 22.81295 6.06116 1.33216 12.49118 1.46905 18.6774-2.92456m-51.82733-25.09731c-.9303-1.12297-1.66739-2.52443-2.82132-3.32516-9.84918-6.83445-28.51102-3.64343-33.33588 11.3609-2.58526 8.03964-.20569 15.43564 7.16565 18.79633 3.27002 1.49086 7.35584 1.53346 11.08478 1.61463 12.72922.27713 26.11667-15.14067 17.90677-28.4467z"/><path fill="#8E9398" d="M141.53134 1c8.06941 1.6631 15.79042 2.91478 23.24083 5.09229 9.55142 2.79155 18.88515 6.32793 29.15993 9.83237l-14.17543 28.63678c-7.34467-3.05836-14.34018-6.67897-21.7575-8.87462-8.60044-2.54588-17.5216-4.97585-26.39523-5.3649-9.25722-.40586-18.67081 1.38645-26.34439 7.85196-9.08837 7.65757-10.07276 17.56938-1.4031 25.93465 6.11684 5.90207 13.48905 10.48161 20.07973 15.9195 8.33204 6.87464 17.09342 13.40334 24.47414 21.21132 8.71541 9.21993 10.90091 20.76657 8.88678 33.49922-1.85836 11.74805-6.3425 22.08514-13.80427 31.06658-6.6789 8.03912-15.6631 13.25921-25.26213 16.89588-6.97904 2.64403-14.52501 3.79166-22.02446 5.95272C83.9791 189 71.95821 189 59.25658 188.65068c-10.31329-2.67328-20.165-4.34708-29.51828-7.49965C19.91022 177.83841 10.5594 173.10983 1 169c0-1.38888 0-2.77779.36187-4.60443 1.35714-1.86716 2.47752-3.22634 3.32618-4.73804 3.8514-6.86047 7.62617-13.76395 11.44585-20.68335 7.26106 3.66613 14.0318 7.27652 20.96412 10.54415 13.65998 6.43875 28.08242 9.77916 43.16877 8.33892 8.5852-.81958 17.07318-3.47325 22.74864-10.53462 8.84783-11.00838 9.65993-18.22589 1.0073-27.49413-4.41692-4.73118-10.35226-8.03364-15.54631-12.0529-9.36522-7.24701-19.1483-14.04206-27.88746-21.98269-7.21138-6.55245-11.28004-15.42904-11.54276-25.42946C48.4069 36.02974 64.32697 16.1872 85.74364 8.05659 93.29972 5.18801 101.23684 3.32314 109 1h32.53134z"/><path fill="#FFF" d="M108.53134 1c-7.2945 2.32314-15.23162 4.188-22.7877 7.0566C64.32697 16.1872 48.4069 36.02973 49.0462 60.36344c.26272 10.00042 4.33138 18.87701 11.54276 25.42946 8.73916 7.94063 18.52224 14.73568 27.88746 21.98269 5.19405 4.01926 11.1294 7.32172 15.54632 12.0529 8.65262 9.26824 7.84052 16.48575-1.0073 27.49413-5.67547 7.06137-14.16346 9.71504-22.74865 10.53462-15.08635 1.44024-29.50879-1.90017-43.16877-8.33892-6.93231-3.26763-13.70306-6.87802-20.96411-10.54415-3.81969 6.9194-7.59447 13.82288-11.44586 20.68335-.84866 1.5117-1.96904 2.87088-3.32617 4.32138C1 109.7545 1 55.509 1 1h107.53134z"/><path fill="#8E9398" d="M722 61.58333c-.6936 1.43574-1.64044 2.3639-2.0437 3.48718-10.67981 29.7518-21.2799 59.53231-32.0102 89.2658-.5105 1.41468-2.06341 3.46502-3.1751 3.49348-10.45252.26752-20.91474.15889-32.133.15889 2.63184-7.82259 4.96643-15.0868 7.51648-22.2746 5.53217-15.59363 11.1969-31.14017 16.76306-46.72183 3.4165-9.56413 6.62342-19.2065 10.25708-28.6862.55762-1.45486 2.88635-3.11424 4.4405-3.15977 9.80883-.28735 19.6303-.14604 29.91625-.14628C722 58.38889 722 59.77778 722 61.58333z"/><path fill="#FFF" d="M1 169.46904c9.55939 3.6408 18.91022 8.36937 28.7383 11.682 9.35328 3.15256 19.205 4.82636 29.04963 7.49964C39.77595 189 20.5519 189 1 189v-19.53096z"/><path fill="#8E9398" d="M464.20233 158h-6.44864c12.0581-33.98586 23.88584-67.32232 35.83039-100.98804 21.76028 0 43.56948-.0527 65.37759.08086 2.20001.01347 4.47583.94907 6.57611 1.80228 12.95526 5.2631 13.77912 13.55877 11.92987 24.9782-1.94922 12.03751-9.76038 19.26027-20.62256 22.4589 2.43836 2.7475 5.49024 5.29888 7.42261 8.52153 7.29993 12.17399 1.41205 34.39816-17.72687 40.02055-5.92169 1.7396-12.22918 2.88298-18.38232 2.98754-21.1568.35952-42.32343.13818-63.95618.13818m33.92264-24.34055l-.54245 3.82483c9.54498-.51878 18.65259-.78769 27.71216-1.59567 4.99725-.44568 9.89422-7.31665 9.4967-12.34187-.43115-5.45076-4.14721-8.4691-10.6499-8.5354-5.33234-.05439-10.67633-.19433-15.99118.11532-1.38742.08084-3.3585 1.40396-3.9058 2.66008-2.15868 4.95464-3.85742 10.10968-6.11953 15.87271m18.879-37.6484c4.98724-.00408 9.97766.1031 14.96094-.03993 6.4749-.18585 11.88452-4.98474 12.98016-11.27577.87152-5.00474-1.8081-8.5382-6.83331-8.6617-5.6488-.13881-11.30713-.13645-16.95307.05183-1.19965.04-3.09985.88672-3.42486 1.80506-2.15363 6.08428-3.96589 12.28938-6.17807 19.38111 2.19528-.58 3.37905-.89277 5.4482-1.2606zm-163.354 50.20497c-5.94184-10.36655-4.49326-20.8866-1.12934-30.99557 6.05814-18.20548 13.012-36.1113 19.2919-54.2461 1.08176-3.12386 2.40118-4.09493 5.54071-4.03643 9.31918.17366 18.6437.0622 28.56174.0622-4.17948 11.83888-8.24826 23.26021-12.24155 34.70785-3.34662 9.59378-6.59921 19.22032-9.90405 28.8287-4.45227 12.94421 6.60357 17.61194 15.85599 15.7493 9.39611-1.8916 14.48455-7.62204 17.44714-16.1525 6.943-19.99149 13.93484-39.96648 21.0698-59.88983.4761-1.32948 2.29568-3.0672 3.527-3.09688 10.30243-.24846 20.6135-.14124 31.69498-.14124-2.63663 7.83317-4.96475 15.10796-7.52966 22.29828-6.00763 16.84155-12.11258 33.64847-18.20875 50.45831-5.34463 14.73757-15.5533 24.22875-30.8551 27.81603-14.53662 3.40791-29.27524 4.67265-43.97342 1.3136-7.64618-1.74745-14.53454-5.32323-19.1474-12.67572zM283.00036 136c-6.9539.16782-14.46805-1.65124-19.5618 1.06636-5.01972 2.67812-7.83002 9.80377-11.1548 15.2555-2.65306 4.35034-5.72689 6.26069-11.08414 5.83137-7.55366-.60533-15.19206-.15323-24.1646-.15323 2.73067-3.83844 4.81777-6.67165 6.8005-9.5761 10.64135-15.58848 21.22444-31.21685 31.89064-46.78829 9.64553-14.0814 19.34896-28.12341 29.10876-42.12573.74295-1.06591 2.13123-2.3822 3.23157-2.39334 15.4458-.15646 30.8937-.10623 46.3866-.10623.5389 6.65975 1.28723 12.86551 1.49539 19.08935.48797 14.59185.56372 29.19802 1.10162 43.7875.40738 11.05052 1.2803 22.08366 1.91934 33.1261.08463 1.46268.01163 2.9345.01163 4.68802h-33.13571c-.40073-6.90532-.80725-13.90991-1.25943-21.70128h-21.58557m14.40573-24h5.69363V80.59698l-1.35681-.27852L280.03549 112h17.3706zM188.69458 88.63957c1.07077-3.33758 1.95326-6.32225 2.9452-9.67697h-31.85433c2.5718-7.06068 4.85794-13.67792 7.48104-20.15875.37899-.93637 2.37503-1.72413 3.62537-1.72792 31.12894-.09444 62.25822-.0741 94.1263-.0741-3.02817 7.39675-5.75852 14.40068-8.84915 21.24184-.44565.9865-2.6158 1.65511-4.0021 1.68-8.47593.15212-16.95596.07607-25.60128.07607-5.8849 16.5234-11.7122 32.85533-17.51686 49.1953-3.07282 8.64982-6.02277 17.34503-9.25324 25.93512-.45227 1.20265-2.17724 2.71428-3.34103 2.73845-10.29529.21399-20.59688.12425-32.25995.12425 8.28192-23.5053 16.29686-46.25286 24.50003-69.3533zm435.36035 17.48522c-3.35663 10.0117-6.65985 19.62832-9.93634 29.25406-.0929.2728.0979.64212.2483 1.47532h36.30663c-2.72638 7.14208-5.09527 13.48879-7.6272 19.76978-.26397.65486-1.49328 1.30742-2.27667 1.3098-22.79827.06967-45.59686.05635-69.18524.05635 2.97565-8.79126 5.64758-16.9996 8.52826-25.13404 7.06305-19.9453 14.21546-39.85904 21.35437-59.77742.66394-1.85253 1.54083-3.62806 2.22669-5.4736 1.25763-3.38402 1.50708-8.35771 3.90203-9.79597 2.98145-1.7905 7.70935-.75482 11.68445-.79085 7.13-.06462 14.26111-.01822 22.29053-.01822-5.98938 16.71774-11.724 32.72438-17.5158 49.12479zM353.6767 41.83453c-5.90064 4.14456-12.33066 4.00767-18.39182 2.6755-10.01373-2.20087-14.00085-13.6578-9.10422-22.81294 5.12577-9.5836 16.7805-14.37858 27.09629-11.52693 10.68365 2.95335 14.33584 17.11024 6.64947 26.28778-1.66092 1.98316-3.95935 3.43239-6.24972 5.37659zm-51.31714-25.03648c7.98529 12.99615-5.40216 28.41395-18.13138 28.13682-3.72894-.08117-7.81476-.12377-11.08478-1.61463-7.37134-3.36069-9.75091-10.75669-7.16565-18.79633 4.82486-15.00433 23.4867-18.19535 33.33588-11.3609 1.15393.80073 1.89102 2.20219 3.04593 3.63504z"/><path fill="#FFF" d="M498.32135 133.31828c2.06574-5.42186 3.76447-10.5769 5.92316-15.53154.5473-1.25612 2.51837-2.57924 3.90579-2.66008 5.31485-.30965 10.65884-.1697 15.99118-.11532 6.50269.0663 10.21875 3.08464 10.6499 8.5354.39752 5.02522-4.49945 11.8962-9.4967 12.34187-9.05957.80798-18.16718 1.07689-27.71216 1.59567.24484-1.7264.39365-2.7756.73883-4.166zm18.23993-37.2797c-1.62647.3403-2.81024.65307-5.00552 1.23307 2.21218-7.09173 4.02444-13.29683 6.17807-19.3811.325-.91835 2.22521-1.76506 3.42486-1.80507 5.64594-.18828 11.30426-.19064 16.95307-.05183 5.0252.1235 7.70483 3.65696 6.8333 8.6617-1.09563 6.29103-6.50524 11.08992-12.98015 11.27576-4.98328.14304-9.9737.03586-15.40363.06747zM296.91705 112H280.0355l21.70743-31.68154 1.35681.27852V112h-6.18268z"/></svg>