<svg xmlns="http://www.w3.org/2000/svg" role="img" viewBox="-6.16 53.84 411.06 140.81"><title>Styra logo</title><style>svg {enable-background:new 0 0 400 245}</style><path fill="#24b6e0" d="M64.54 61.81C30 61.81 2 89.81 2 124.35s28 62.54 62.54 62.54 62.54-28 62.54-62.54-28-62.54-62.54-62.54zm33.61 63.44c1.51 3.97 2.33 14.5 2.33 18.99 0 19.85-.56 3.78-35.94 3.78-34.72 0-35.94 16.07-35.94-3.78 0-4.49.83-15.03 2.33-18.99-8.89-6.74-16-17.64-5.25-33.31 1.24-1.81 3.88-.47 3.43 1.73-1.27 6.13-.66 15.28 9.76 19.19 6.52-6.66 15.62-10.8 25.68-10.8s19.15 4.13 25.68 10.8c10.41-3.92 11.03-13.06 9.76-19.19-.46-2.2 2.18-3.54 3.43-1.73 10.73 15.67 3.61 26.57-5.27 33.31zm289.79 17.44v3.48c0 1.24.48 2.41 1.36 3.28.88.88 2.04 1.36 3.28 1.36 2.56 0 4.64-2.08 4.65-4.64l.02-18.79c.01-7.52-2.43-13.94-7.07-18.54-4.6-4.57-10.97-7-18.42-7.01l-.02-.39h-.02v.39c-14.88 0-25.69 10.55-25.71 25.09-.01 7.8 2.57 14.35 7.47 18.93 4.22 3.95 10.06 6.22 16.02 6.22 7.8.01 15.76-3.14 18.44-9.38m-5.16-26.94c2.7 2.81 4.18 6.8 4.18 11.23-.01 9.19-6.28 15.62-15.23 15.62h-.02c-9.03-.01-15.33-6.45-15.32-15.66.01-9.19 6.32-15.62 15.33-15.62 4.47.01 8.29 1.54 11.06 4.43zm-218.39-14.57h.02l.02.39c6.42.01 11.82 2.05 15.2 5.75 1.31 1.43 1.63 3.43.85 5.21-.79 1.8-2.51 2.92-4.48 2.92h-.51c-1.31 0-2.54-.7-3.36-1.92-1.39-2.05-4.05-3.18-7.53-3.18-4.18 0-8.64 1.7-8.65 6.46-.01 4.12 4.86 4.8 10.49 5.6 8.39 1.19 17.9 2.53 17.88 14.07-.01 9.17-7.97 15.33-19.86 15.33-7.11-.01-12.96-2.22-16.47-6.23-1.27-1.45-1.56-3.44-.77-5.2.8-1.76 2.49-2.86 4.43-2.86 1.72 0 3.3.81 4.11 2.1.97 1.54 3.24 3.39 8.54 3.4 8.37 0 9.63-4.11 9.63-6.55.01-4.1-4.81-4.72-10.38-5.44-8.44-1.09-18.01-2.33-17.99-14.23.01-9.11 7.58-15.23 18.82-15.23v-.39zm39.74.95v.79h.79l20.03.03c2.53 0 4.59 2.07 4.59 4.6s-2.06 4.59-4.6 4.59l-20.03-.03h-.79v.79l-.03 19.53c0 3.26.91 5.9 2.65 7.64 1.52 1.53 3.62 2.33 6.05 2.33.12 0 .25 0 .36-.01 5.9-.09 8.02-3.56 8.76-6.45.61-2.36 2.67-4.01 5.02-4.01 1.56 0 3.01.69 3.99 1.91.99 1.22 1.37 2.8 1.04 4.34-1.88 8.83-8.55 13.69-18.84 13.69-5.86-.01-10.7-1.67-14-4.8-3.53-3.36-5.32-8.29-5.31-14.67l.05-46.17c0-2.83 2.31-5.13 5.14-5.13h.01c2.83 0 5.14 2.31 5.13 5.15l-.01 15.88zm115.93-.75h.02l.02.39c10.66.01 17.75 5.2 19.96 14.6.36 1.54.01 3.12-.97 4.35-.96 1.22-2.41 1.91-3.96 1.91h-.11c-2.3 0-4.33-1.61-4.94-3.92-1.27-4.81-4.82-7.46-10.01-7.47-6.89 0-10.54 4.02-10.55 11.64l-.03 22.67c0 2.83-2.31 5.13-5.15 5.13-1.37 0-2.66-.54-3.63-1.51s-1.5-2.26-1.5-3.64l.03-22.67c.02-13.41 7.61-21.11 20.82-21.11v-.37zm-43.11 43.13c-2.86 4.82-9.41 6.83-15.45 6.83-5.81-.01-11.05-2.02-14.76-5.67-4.29-4.22-6.55-10.61-6.54-18.48l.02-19.08c0-2.83 2.31-5.13 5.14-5.13h.01c1.37 0 2.66.54 3.63 1.51.97.97 1.5 2.26 1.5 3.64l-.03 19.08c-.01 4.75 1.21 8.44 3.63 10.99 2.27 2.4 5.59 3.66 9.62 3.67 8.16 0 13.23-5.6 13.24-14.62l.02-19.08c0-2.83 2.31-5.13 5.15-5.13 2.83 0 5.14 2.31 5.13 5.15l-.05 41.6c-.01 7.85-2.32 13.84-6.87 17.82-4.03 3.52-9.85 5.38-16.88 5.38-8.14-.01-14.63-2.67-18.76-7.69-1.16-1.42-1.39-3.26-.59-4.94.8-1.7 2.46-2.76 4.33-2.76 1.52 0 2.93.71 3.78 1.89 2.32 3.23 6 4.8 11.29 4.81 8.9 0 13.42-4.79 13.43-14.22l.01-4.73V144.51z"/></svg>