<svg xmlns="http://www.w3.org/2000/svg" role="img" viewBox="2.30 -3.70 192.40 48.15"><title>Synyega logo</title><defs><linearGradient id="a" x1="0" x2="25.246" y1="12.623" y2="12.623" gradientTransform="scale(1.40258 .71297)" gradientUnits="userSpaceOnUse"><stop offset="0" stop-color="#0082ff"/><stop offset=".143" stop-color="#0081fe" stop-opacity=".984"/><stop offset=".271" stop-color="#0281fb" stop-opacity=".945"/><stop offset=".393" stop-color="#0481f7" stop-opacity=".871"/><stop offset=".512" stop-color="#0881f1" stop-opacity=".773"/><stop offset=".628" stop-color="#0d81e9" stop-opacity=".643"/><stop offset=".742" stop-color="#1381e0" stop-opacity=".482"/><stop offset=".854" stop-color="#1a81d5" stop-opacity=".294"/><stop offset=".963" stop-color="#2281c8" stop-opacity=".078"/><stop offset="1" stop-color="#2581c4" stop-opacity="0"/></linearGradient><linearGradient id="b" x1="0" x2="25.246" y1="12.623" y2="12.623" gradientTransform="scale(1.40258 .71297)" gradientUnits="userSpaceOnUse"><stop offset="0" stop-color="#2581c4" stop-opacity="0"/><stop offset=".064" stop-color="#2081ca" stop-opacity=".11"/><stop offset=".21" stop-color="#1881d8" stop-opacity=".341"/><stop offset=".357" stop-color="#1081e4" stop-opacity=".545"/><stop offset=".499" stop-color="#0a81ed" stop-opacity=".706"/><stop offset=".637" stop-color="#0681f5" stop-opacity=".835"/><stop offset=".769" stop-color="#0281fa" stop-opacity=".925"/><stop offset=".893" stop-color="#0081fd" stop-opacity=".98"/><stop offset="1" stop-color="#0082ff"/></linearGradient><linearGradient id="c" x1="13.264" x2="34.381" y1="80.786" y2="80.786" gradientTransform="scale(1.56428 .63927)" gradientUnits="userSpaceOnUse"><stop offset="0" stop-color="#b400ff"/><stop offset="1" stop-color="#0081ff"/></linearGradient><linearGradient id="e" x1="15.418" x2="36.536" y1="70.785" y2="70.785" gradientTransform="scale(1.5643 .63926)" gradientUnits="userSpaceOnUse"><stop offset="0" stop-color="#0081ff"/><stop offset="1" stop-color="#b400ff"/></linearGradient><filter id="d" width="58.547" height="39.012" x="0" y="7.583" filterUnits="userSpaceOnUse"><feOffset dx="-5.669" dy="11.339"/><feGaussianBlur result="blur" stdDeviation="4.252"/><feFlood flood-opacity=".302"/><feComposite in2="blur" operator="in"/><feComposite in="SourceGraphic"/></filter></defs><g transform="translate(16.05)"><ellipse cx="17.705" cy="9" fill="url(#a)" rx="17.705" ry="9"/><ellipse cx="17.705" cy="9" fill="url(#b)" rx="17.705" ry="9" transform="translate(0 18)"/><path fill="url(#c)" d="M38.452 49.394c-6.552 0-12.269-1.81-15.33-4.5a6.085 6.085 0 0 0-2.374 4.5 6.084 6.084 0 0 0 2.374 4.5c3.061 2.69 8.778 4.5 15.33 4.5s12.269-1.811 15.33-4.5c-3.061-2.694-8.782-4.5-15.33-4.5z" transform="translate(-20.747 -31.394)"/><g filter="url(#d)" transform="translate(-16.05)"><path fill="url(#e)" d="M54.78 43c-3.061-2.689-8.778-4.5-15.33-4.5S27.18 40.314 24.119 43c3.061 2.69 8.778 4.5 15.33 4.5S51.718 49.314 54.78 52a6.084 6.084 0 0 0 2.374-4.5A6.085 6.085 0 0 0 54.78 43z" transform="translate(-5.69 -29.5)"/></g><path d="M55.902 15.205a3.284 3.284 0 0 0-1.764-1.858 10.533 10.533 0 0 0-7.1.015 1.9 1.9 0 0 0-1.311 1.686 1.724 1.724 0 0 0 .921 1.592 10.907 10.907 0 0 0 3.45.905l2.061.313a19.791 19.791 0 0 1 4.2.983 4.31 4.31 0 0 1 2.061 1.484 4.117 4.117 0 0 1 .609 2.342q0 4.933-7.993 4.933a11.473 11.473 0 0 1-5.963-1.3 5.484 5.484 0 0 1-2.595-3.916h2.779q.905 2.9 5.713 2.9a9.409 9.409 0 0 0 3.919-.656 2.048 2.048 0 0 0 1.389-1.873 1.708 1.708 0 0 0-1-1.593 13.044 13.044 0 0 0-3.716-.936l-1.9-.281a18.134 18.134 0 0 1-4.043-1 3.709 3.709 0 0 1-2.607-3.84 3.824 3.824 0 0 1 2.014-3.419 10.661 10.661 0 0 1 5.573-1.234 11.423 11.423 0 0 1 5.386 1.031 5.463 5.463 0 0 1 2.607 3.372zm11.616 11.49L59.4 10.959h3.434l6.276 12.676 5.713-12.676h3.278l-8.555 17.953a9.723 9.723 0 0 1-2.545 3.575 5.475 5.475 0 0 1-3.418 1.015 7.2 7.2 0 0 1-1.5-.14 9 9 0 0 1-1.436-.453l.53-2.248a5.992 5.992 0 0 0 2.061.375 3.356 3.356 0 0 0 2.045-.608 4.757 4.757 0 0 0 1.421-1.92zm26.632.405v-9.865a4.307 4.307 0 0 0-1.077-3.263 4.972 4.972 0 0 0-3.481-1.015 7.071 7.071 0 0 0-2.545.484 6.365 6.365 0 0 0-2.17 1.358 5 5 0 0 0-1.186 1.608 4.419 4.419 0 0 0-.406 1.857V27.1H80.35V10.959h2.9v3a8.45 8.45 0 0 1 7.087-3.5 7.177 7.177 0 0 1 5.042 1.577 6.055 6.055 0 0 1 1.7 4.668v10.4zm12.708-.405L98.74 10.959h3.434l6.276 12.676 5.708-12.676h3.278l-8.555 17.953a9.723 9.723 0 0 1-2.545 3.575 5.475 5.475 0 0 1-3.418 1.015 7.2 7.2 0 0 1-1.5-.14 9 9 0 0 1-1.436-.453l.53-2.248a5.992 5.992 0 0 0 2.061.375 3.356 3.356 0 0 0 2.045-.608 4.757 4.757 0 0 0 1.421-1.92zm13.798-6.838a5.292 5.292 0 0 0 1.67 3.966 6.166 6.166 0 0 0 4.324 1.467q4.528 0 5.558-2.716h2.81q-1.311 5.026-8.492 5.027a8.948 8.948 0 0 1-6.463-2.248 8.165 8.165 0 0 1-2.342-6.182 9.213 9.213 0 0 1 1.077-4.5 7.72 7.72 0 0 1 3.107-3.091 9.562 9.562 0 0 1 4.714-1.124 8.946 8.946 0 0 1 6.369 2.139 7.8 7.8 0 0 1 2.279 5.979v1.279zm11.74-2.217a4.592 4.592 0 0 0-1.53-3.622 6.4 6.4 0 0 0-4.277-1.28 6.076 6.076 0 0 0-4 1.312 5.293 5.293 0 0 0-1.874 3.59zm20.325 5.932a7.5 7.5 0 0 1-2.966 2.389 9.9 9.9 0 0 1-4.152.827 8.906 8.906 0 0 1-4.231-.984 7.143 7.143 0 0 1-2.919-2.857 8.652 8.652 0 0 1-1.062-4.34 8.193 8.193 0 0 1 1.046-4.121 7.671 7.671 0 0 1 3-2.935 9.01 9.01 0 0 1 4.48-1.093 9.64 9.64 0 0 1 4 .75 7.644 7.644 0 0 1 2.9 2.373v-2.622h2.841v13.3q0 4.839-2.076 7.04-2.076 2.201-6.7 2.2a12.775 12.775 0 0 1-6.182-1.2 4.94 4.94 0 0 1-2.529-3.7h2.9a3.248 3.248 0 0 0 1.811 1.982 9.989 9.989 0 0 0 3.966.609 6.2 6.2 0 0 0 4.448-1.374 5.762 5.762 0 0 0 1.421-4.308zm.031-5.308a5.3 5.3 0 0 0-1.655-3.871 5.917 5.917 0 0 0-4.371-1.53 6.577 6.577 0 0 0-4.606 1.5 5.426 5.426 0 0 0-1.639 4.215 5.613 5.613 0 0 0 1.624 4.246 6.082 6.082 0 0 0 4.4 1.561 7.8 7.8 0 0 0 2.654-.437 5.367 5.367 0 0 0 3.59-5zm19.576 8.836v-2.529a9.174 9.174 0 0 1-3.231 2.233 10.959 10.959 0 0 1-4.075.7 7.882 7.882 0 0 1-4.839-1.28 4.314 4.314 0 0 1-1.686-3.653 4.147 4.147 0 0 1 2.232-3.856q2.232-1.264 7.009-1.389l4.527-.125v-.563a3.58 3.58 0 0 0-1.171-2.95 5.721 5.721 0 0 0-3.637-.953 9.306 9.306 0 0 0-3.606.563 3 3 0 0 0-1.732 1.779l-2.685-.344q.967-4.276 8.149-4.277 3.809 0 5.667 1.53a5.719 5.719 0 0 1 1.857 4.684V27.1zm-.062-7.806l-4.5.125a13.038 13.038 0 0 0-4.746.78 2.243 2.243 0 0 0-1.5 2.124 2.347 2.347 0 0 0 1.093 2.092 5.747 5.747 0 0 0 3.154.717 8.607 8.607 0 0 0 2.794-.452 7.092 7.092 0 0 0 2.295-1.265 3.545 3.545 0 0 0 1.405-2.841z"/></g></svg>