<svg xmlns="http://www.w3.org/2000/svg" role="img" viewBox="8.36 6.36 228.54 179.29"><title>SysEleven Gmbh logo</title><path fill="none" d="M0 0h245v196H0z" pointer-events="none"/><path fill="#fff" d="M-59.068-49.792h364.46897v293.12582H-59.068V-49.792z" class="a"/><path fill="#171920" d="M121.30296 170.65628h3.566c-.23006-2.66875-.29908-9.84678-.29908-13.57383 0-10.88208 0-18.4052.25307-22.56938h-7.03998c.29908 4.34823.29908 11.6643.29908 22.75343 0 3.26692 0 10.83606-.3451 13.32076h3.56601m8.39737-11.50325c0-8.55841 5.49856-14.70115 12.49253-14.70115 5.88967 0 10.55999 4.39424 10.55999 11.50325v3.40496l-16.49566.27608c.18405 3.77307 2.46169 6.18875 7.61515 6.18875a14.5401 14.5401 0 006.90195-1.72549h.29908a42.00987 42.00987 0 00.48314 4.41725 14.21802 14.21802 0 01-9.2026 3.01385 12.0554 12.0554 0 01-12.67658-12.3775m6.3958-3.75006h10.35293c-.20706-4.07215-1.72549-5.75162-5.06143-5.75162s-5.13045 2.18562-5.2915 5.75162m37.45458-10.03083a39.75523 39.75523 0 01-2.1166 8.21332 88.1379 88.1379 0 00-2.92182 9.50169h-.20706c-.3911-1.67948-.7362-2.62275-2.87581-9.2026-1.4494-4.30222-2.18562-6.90195-2.62274-8.60444h-7.27005c1.0813 3.08288 2.57672 6.90195 4.78535 12.76861 1.97856 5.08444 3.65803 9.5707 4.80836 12.63057h5.77463c1.03529-3.05986 2.78378-7.52313 4.76234-12.63057 2.18562-5.72862 3.45098-9.34064 4.6013-12.7686h-6.83293m58.98867 16.79474v-8.42038c-.29909-5.54457-3.38196-9.2026-8.35136-9.2026-2.43869 0-4.6013 1.17333-7.73018 4.6013h-.16105a18.65827 18.65827 0 00-.6902-3.8651h-5.42953c.29909 3.08288.3451 9.84679.3451 14.26404 0 3.70404 0 7.63816-.25307 11.13514h7.03999c-.16105-2.96783-.25308-6.90195-.25308-9.98482v-7.68417a5.88966 5.88966 0 014.69333-2.4847c2.66875 0 3.95712 1.10431 4.21019 4.30222 0 1.24235.16104 3.86509.16104 5.54456 0 3.33594 0 7.52313-.23006 10.44495h6.97097c-.18405-3.12888-.25307-6.0277-.25307-8.60443m-27.37774-6.18875v3.40497l-16.42664.3451c.18405 3.77306 2.4617 6.18874 7.61515 6.18874a14.60913 14.60913 0 006.90195-1.72549h.29909a44.08045 44.08045 0 00.50614 4.41725 14.19501 14.19501 0 01-9.2026 3.01385 12.0324 12.0324 0 01-12.67658-12.3775c0-8.55841 5.49855-14.70115 12.46952-14.70115 5.88967 0 10.55999 4.39424 10.55999 11.50325m-6.28078-.50614c-.20706-4.07215-1.72549-5.75163-5.03842-5.75163s-5.15346 2.18562-5.2915 5.75163zm-87.24065 12.21645a21.81016 21.81016 0 010-2.57673H97.0081v-9.15658h12.97566v-5.2915H97.05411v-8.12129h14.8392v-5.59058H90.17516c0 3.31293.25307 9.2026.25307 16.93278 0 6.3728 0 12.07841-.18405 16.2426h21.44205v-3.05987" class="b"/><path fill="#a6ce38" d="M28.77082 152.27409l-4.6013-1.49542c-3.1519-1.0353-4.2102-1.93255-4.2102-3.8651 0-2.30064 1.47242-3.9111 6.53385-3.9111a18.63527 18.63527 0 017.68417 1.93255 39.11105 39.11105 0 01.6902-5.6826 14.40207 14.40207 0 00-8.07528-2.53072c-7.98326 0-13.8039 5.01541-13.8039 11.20416a8.09829 8.09829 0 006.16574 7.73019l4.6013 1.61045c3.61202 1.15033 4.85437 2.30065 4.85437 4.11816 0 2.57673-1.7715 4.04915-6.14273 4.04915a18.12912 18.12912 0 01-8.42038-2.30065 55.49168 55.49168 0 01-.50615 5.88966 14.95423 14.95423 0 008.62744 2.66876c8.35136 0 13.55083-5.49856 13.55083-11.04312.11503-3.52-1.70248-6.62588-6.94796-8.37437zm27.86087-6.90195c-.50614 2.4847-1.3804 5.61359-2.57673 9.45567-.89725 2.87581-1.7715 5.6826-2.30065 7.56914h-.25307c-1.28836-3.22091-4.9464-12.7686-6.28078-17.04782h-7.4771c.78221 2.18562 7.77619 18.4052 10.58298 24.80101 0 .25307-.6902 2.02457-.94326 2.71477-.73621 2.1166-1.3804 2.57672-3.31294 2.57672a21.28101 21.28101 0 01-3.8651-.25307c0 1.63346 0 3.95712-.25306 5.24549a10.90508 10.90508 0 004.14117.89725c4.2562 0 7.63815-2.30065 9.66273-8.32835 1.0813-3.26693 2.78378-8.16731 4.2562-12.46953 1.84052-5.36051 3.72705-10.85907 5.36051-15.2073h-3.2209c-.92027 0-2.7838.02301-3.52-.023zm21.78715 10.9971l-3.566-1.19633c-2.30065-.7362-2.87582-1.28837-2.87582-2.62274s.94327-2.4387 4.30222-2.4387a13.04469 13.04469 0 016.07372 1.49543h.25307a27.03264 27.03264 0 01.64418-4.9464 10.69802 10.69802 0 00-6.90195-2.1396c-6.64888 0-10.9971 4.21019-10.9971 8.90351a6.11973 6.11973 0 004.85436 5.88967l3.9111 1.28836c2.30066.78222 3.22092 1.51843 3.22092 2.78379 0 1.72549-1.24235 2.62274-4.2562 2.62274a15.06926 15.06926 0 01-6.46483-1.84052h-.25307a37.8687 37.8687 0 01-.59817 5.15346 12.56155 12.56155 0 007.17803 2.1396c6.90195 0 10.9971-4.16418 10.9971-8.8805 0-2.69177-1.4264-4.9004-5.52156-6.30379zM107.292 58.03948l12.0094 12.17043-12.17044 12.0324-12.05541-12.19344zm28.27499-34.9929l-12.0324-12.19344-12.19344 12.0324 12.0324 12.21645zM103.749 54.42745L91.7166 42.234 79.52316 54.2434l12.0324 12.19344zm35.19995-3.543l12.19344-12.0324-12.0324-12.19344-12.19344 12.0094zm-3.61202 3.543L123.32753 42.234 111.1801 54.2664l12.0324 12.19344zM119.76153 38.645l-12.0324-12.19345-12.19345 12.0094 12.0324 12.19344zm6.90194 31.38086L138.7879 82.2423l12.19345-12.0324-12.19345-12.19344zm27.99892-27.6078l-12.21646 12.0324 12.0324 12.19345 12.19345-12.0324zm-60.02396 59.21873l11.94037 12.17044 12.19345-12.0094-12.0094-12.19344zm16.10455-15.80546l11.94037 12.19344 12.19345-12.07841-12.0094-12.17044zM91.44052 73.98297L79.24708 85.94635l12.0094 12.19344 12.19344-12.00939z" class="c"/></svg>