<svg xmlns="http://www.w3.org/2000/svg" role="img" xmlns:xlink="http://www.w3.org/1999/xlink" viewBox="-2.43 -2.31 119.99 40.74"><title>SYSGO GmbH logo</title><path fill="#575756" d="M104.139.067c-6.145 0-11.146 5.337-11.146 11.899h.002c0 6.561 5 11.896 11.145 11.896 6.146 0 11.145-5.335 11.145-11.896-.002-6.563-5-11.899-11.146-11.899zm0 20.227c-4.301 0-7.803-3.736-7.803-8.327 0-4.595 3.502-8.331 7.803-8.331 4.303 0 7.801 3.736 7.801 8.331-.001 4.591-3.499 8.327-7.801 8.327z"/><path fill="#575756" d="M22.436 10.019s-18.655.003-18.85.003c.81-3.758 4.023-6.472 7.7-6.472 3.04 0 5.759 1.786 7.098 4.662l.059.124 3.073-1.59-.054-.113C19.595 2.604 15.6 0 11.286 0 5.063 0 0 5.323 0 11.868c0 .466.026.938.078 1.396l.014.117s18.539-.003 18.851-.003c-.685 3.95-3.877 6.808-7.657 6.808-3.101 0-5.93-1.941-7.205-4.946l-.054-.125-3.101 1.534.049.113c1.81 4.235 5.857 6.971 10.311 6.971 6.224 0 11.286-5.323 11.286-11.865 0-.582-.04-1.167-.121-1.739l-.015-.11zm43.963 0s-18.657.003-18.852.003c.811-3.758 4.023-6.472 7.7-6.472 3.039 0 5.759 1.786 7.097 4.662l.059.124 3.074-1.59-.053-.113C63.556 2.604 59.562 0 55.248 0c-6.224 0-11.287 5.323-11.287 11.868 0 .469.026.94.077 1.396l.014.117s18.54-.003 18.852-.003c-.684 3.95-3.879 6.808-7.656 6.808-3.103 0-5.931-1.941-7.207-4.946l-.053-.125-3.101 1.534.049.113c1.81 4.235 5.857 6.971 10.313 6.971 6.222 0 11.287-5.323 11.287-11.865 0-.578-.039-1.163-.121-1.739l-.016-.11zm24.689.159l-.02-.107H79.635v3.312s7.666-.007 7.967-.007c-.643 3.957-3.965 6.925-7.797 6.925-4.366 0-7.917-3.739-7.917-8.333 0-4.598 3.551-8.337 7.917-8.337 3.014 0 5.723 1.739 7.068 4.539l.059.122 3.029-1.569-.053-.115C87.967 2.575 84.095.069 79.804.069c-6.243 0-11.319 5.337-11.319 11.899 0 6.561 5.076 11.898 11.319 11.898 6.24 0 11.316-5.338 11.316-11.898l.016-.582c.014-.394.03-.734-.048-1.208zM33.24 12.766c6.213 0 11.267-5.313 11.267-11.847l-.003-.337h-3.396l-.001.337c0 4.568-3.53 8.285-7.867 8.285-4.338 0-7.867-3.717-7.867-8.285l-.001-.337h-3.396l-.001.337c-.001 6.533 5.052 11.847 11.265 11.847z"/><radialGradient id="a" cx="-336.038" cy="172.575" r="3.704" gradientTransform="translate(560.265 -248.615) scale(1.5681)" gradientUnits="userSpaceOnUse"><stop offset=".35" stop-color="#575756"/><stop offset="1" stop-color="#fff"/></radialGradient><path fill="url(#a)" d="M39.402 22.162c0-3.206-2.602-5.81-5.809-5.81-3.205 0-5.807 2.604-5.807 5.81 0 3.204 2.602 5.808 5.807 5.808 3.207 0 5.809-2.604 5.809-5.808"/><g><defs><path id="b" d="M28.154 20.615c0-2.683 2.176-4.86 4.86-4.86s4.861 2.178 4.861 4.86c0 2.687-2.176 4.861-4.861 4.861s-4.86-2.174-4.86-4.861z"/></defs><clipPath id="c"><use overflow="visible" xlink:href="#b"/></clipPath><path fill="#005497" d="M28.154 20.615c0-2.683 2.176-4.86 4.86-4.86s4.861 2.178 4.861 4.86c0 2.687-2.176 4.861-4.861 4.861s-4.86-2.174-4.86-4.861z" clip-path="url(#c)"/><radialGradient id="d" cx="-337.161" cy="171.216" r="2.425" gradientTransform="translate(560.265 -248.615) scale(1.5681)" gradientUnits="userSpaceOnUse"><stop offset="0" stop-color="#fff"/><stop offset="1" stop-color="#005497"/></radialGradient><path fill="url(#d)" d="M35.637 20.03c0-2.101-1.705-3.804-3.804-3.804S28.03 17.93 28.03 20.03c0 2.099 1.703 3.802 3.802 3.802s3.805-1.703 3.805-3.802" clip-path="url(#c)"/></g><g fill="#005497"><path d="M.948 36.051v-6.399h3.561v.834H1.981v1.83H4.11v.822H1.981v2.079h2.714v.834H.948zm9.552 0v-4.606l-1.506 4.208h-.958l-1.469-4.221v4.619h-.934v-6.399h1.345l1.631 4.682 1.668-4.682h1.208v6.399H10.5zm4.637 0h-2.204v-6.399h1.83c.884 0 1.793.474 1.793 1.469 0 .697-.461 1.333-1.083 1.632.785.161 1.32.759 1.32 1.581-.001.92-.723 1.717-1.656 1.717zm-.797-5.566h-.361v1.905h.211c.685 0 1.345-.286 1.345-1.083 0-.684-.622-.822-1.195-.822zm-.361 2.627v2.079c.211.013.423.025.647.025.61 0 1.096-.225 1.096-.909 0-.92-.996-1.182-1.743-1.195zm3.913 2.939v-6.399h3.561v.834h-2.527v1.83h2.129v.822h-2.129v2.079h2.714v.834h-3.748zm7.013 0h-2.328v-6.399h2.328c1.905 0 2.926 1.208 2.926 3.063 0 1.805-.984 3.336-2.926 3.336zm-.299-5.566h-.996v4.731h1.257c1.419 0 1.88-1.208 1.88-2.428.001-1.406-.659-2.303-2.141-2.303zm6.626 5.566h-2.328v-6.399h2.328c1.905 0 2.926 1.208 2.926 3.063 0 1.805-.984 3.336-2.926 3.336zm-.299-5.566h-.996v4.731h1.257c1.419 0 1.88-1.208 1.88-2.428 0-1.406-.659-2.303-2.141-2.303zm3.751 5.566v-.834h1.308v-4.719h-1.308v-.847h3.586v.847h-1.295v4.719h1.295v.834h-3.586zm8.457 0l-2.988-4.743c.05.622.05 1.245.063 1.867 0 .959.012 1.917.012 2.876h-.934v-6.399h.996l2.913 4.644v-4.644h.934v6.399h-.996zm4.994.162c-1.955 0-2.926-1.544-2.926-3.35 0-1.805.958-3.374 2.926-3.374.66 0 1.32.125 1.955.262l-.274.896c-.548-.187-1.108-.323-1.681-.323-1.432 0-1.855 1.344-1.855 2.539 0 1.183.436 2.516 1.855 2.516.386 0 .772-.013 1.146-.138v-2.315h1.021v2.926c-.71.236-1.42.361-2.167.361zm6.013-.162v-.834h1.308v-4.719h-1.308v-.847h3.586v.847h-1.295v4.719h1.295v.834h-3.586zm8.456 0l-2.988-4.743c.049.622.049 1.245.063 1.867 0 .959.012 1.917.012 2.876h-.934v-6.399h.996l2.914 4.644v-4.644h.934v6.399h-.997zm6.286 0l-2.988-4.743c.051.622.051 1.245.063 1.867 0 .959.012 1.917.012 2.876h-.934v-6.399h.996l2.914 4.644v-4.644h.934v6.399h-.997zm4.982.162c-1.941 0-2.912-1.544-2.912-3.35 0-1.805.957-3.374 2.912-3.374 1.967 0 2.914 1.569 2.914 3.374 0 1.793-.959 3.35-2.914 3.35zm0-5.889c-1.418 0-1.842 1.356-1.842 2.539s.436 2.516 1.842 2.516c1.408 0 1.844-1.333 1.844-2.516s-.424-2.539-1.844-2.539zm6.435 5.727h-.972l-2.377-6.399h1.096l1.817 4.918 1.768-4.918h.934l-2.266 6.399zm6.597 0l-.684-1.756h-2.527l-.623 1.756h-.996l2.49-6.399h.945l2.479 6.399h-1.084zm-1.941-5.304l-.996 2.727h1.979l-.983-2.727zm5.418-.262v5.565h-1.008v-5.565H87.33v-.834h5.08v.834h-2.029zm2.685 5.566v-.834h1.309v-4.719h-1.309v-.847h3.586v.847h-1.295v4.719h1.295v.834h-3.586zm7.02.162c-1.941 0-2.912-1.544-2.912-3.35 0-1.805.957-3.374 2.912-3.374 1.967 0 2.914 1.569 2.914 3.374 0 1.793-.959 3.35-2.914 3.35zm0-5.889c-1.418 0-1.842 1.356-1.842 2.539s.436 2.516 1.842 2.516c1.408 0 1.844-1.333 1.844-2.516s-.424-2.539-1.844-2.539zm7.853 5.727l-2.988-4.743c.051.622.051 1.245.063 1.867 0 .959.012 1.917.012 2.876h-.934v-6.399h.996l2.914 4.644v-4.644h.934v6.399h-.997zm5.807-.984c-.373.81-1.158 1.146-2.018 1.146-.584 0-1.156-.138-1.717-.324l.285-.946c.486.225 1.01.437 1.557.437.535 0 1.033-.324 1.033-.896 0-1.407-2.813-1.395-2.813-3.225 0-.225.049-.436.137-.635.299-.772.996-1.134 1.793-1.134.535 0 1.057.112 1.543.312l-.248.884c-.412-.174-.848-.36-1.309-.36-.447 0-.945.286-.945.784 0 1.17 2.863 1.307 2.863 3.236.001.248-.061.497-.161.721z"/></g></svg>