<svg xmlns="http://www.w3.org/2000/svg" role="img" viewBox="-1.88 -1.75 91.00 26.38"><title>Telecom Italia Mobile (TIM) S.p.A. logo</title><g fill="none" fill-rule="evenodd"><path fill="#EB0028" d="M11 17.99916H1.32153c-.36585 0-.6965.15086-.93542.39505C.1472 18.63732 0 18.97268 0 19.34385v2.31062c0 .37009.14612.70545.38291.94747.24.24528.5717.39722.93862.39722H11v-5zm16.61708.3983c-.23892-.24419-.5717-.3983-.93862-.3983H17v5h9.67846c.36692 0 .69863-.15194.93862-.3983.2368-.24203.38292-.57739.38292-.9464v-2.3106c0-.369-.14613-.70328-.38292-.9464zm0-8.99908c-.23892-.24626-.5717-.39922-.93862-.39922H17v5h9.67846c.36692 0 .69863-.15404.93862-.39922.2368-.243.38292-.57713.38292-.94597v-2.3107c0-.36776-.14613-.70189-.38292-.94489zM11 8.99916l-9.67847.00109c-.36585 0-.6965.15079-.93542.39488C.1472 9.63813 0 9.97334 0 10.34327v2.3107c0 .36884.14612.70405.38291.94706.24.24517.5717.39813.93862.39813H11v-5zm15.65446-4H1.34554c-.37358 0-.71133-.15194-.95567-.39722C.14877 4.35884 0 4.02456 0 3.65447V1.34385C0 .97268.14986.63732.39204.39421c.24435-.2442.581-.39505.9535-.39505h25.30892c.37358 0 .7124.15194.95567.3983.24109.24312.38987.5774.38987.9464v2.3106c0 .36901-.14878.70329-.38987.9464-.24435.24636-.5821.3983-.95567.3983z"/><path fill="#004691" d="M85.239 0h-1.51575c-1.93873 0-2.06109.21457-2.21087.55191l-2.99986 7.29873c-.99995 2.42223-2.03155 5.02915-2.425 6.3785-.3639-1.34935-1.02948-3.15882-2.42393-6.50127L70.66478.55191C70.4823.12277 69.72495 0 68.08789 0h-1.69612c-1.6666 0-2.00097.15372-2.00097.49107v22.01786c0 .39926.33438.49107 2.0611.49107h.93982c1.69613 0 2.18028-.0918 2.18028-.49107V9.44553h.12236s.15084.61277.3945 1.16468l3.45448 8.18798c.15084.3683.33332.5231 1.93873.5231h1.03054c1.63495 0 1.7573-.12384 1.9092-.5231l3.14964-7.88053c.30378-.7366.5158-1.47213.5158-1.47213h.1213v13.0634c0 .39926.33227.49107 2.12121.49107h.90924c1.6666 0 2.1518-.0918 2.1518-.49107V.49107C87.3908.15372 86.9056 0 85.239 0zM59.3908.49107C59.3908.15372 58.92247 0 57.31485 0h-.93667c-1.6962 0-1.98738.15372-1.98738.49107v22.01786c0 .39926.29119.49107 1.98738.49107h.93667c1.60864 0 2.07595-.0918 2.07595-.49107V.49107zM50.8315 0c.4641 0 .5593.06192.5593 1.6867V3.1898c0 1.56393-.1244 1.74755-.5593 1.74755h-5.2837v17.5716c0 .39925-.49765.49106-2.26862.49106h-.93254c-1.80234 0-2.11283-.0918-2.11283-.49107V4.93734h-5.2837c-.43598 0-.5593-.12277-.5593-1.74755V1.6867C34.3908 0 34.48383 0 34.9501 0H50.8315z"/></g></svg>