<svg xmlns="http://www.w3.org/2000/svg" role="img" viewBox="-1.67 -1.67 190.71 29.59"><title>TensorWorks logo</title><g fill-opacity="1" stroke="none" transform="translate(-9.07 -100.068)"><g fill-rule="nonzero" transform="translate(-23.547 23.067) scale(.30293)"><path fill="#3f3f3f" d="M171.92578 314.30469l-5.97266-17.03516-7.66015 21.85156 5.3789 15.34375h16.50391l19.27734-54.99609h-15.3164zm0 0"/><path fill="#3f3f3f" d="M129.94141 279.46875H114.625l17.03516 48.59375 7.65625-21.85156zm0 0"/><path fill="#007aff" d="M205.46484 260.78906h-86.10156l-5.08984 14.55078h40l-20.73047 59.14453h15.3164l20.58985-59.14453h30.92187zm0 0"/></g><g fill="#000" stroke-width=".265"><path fill="#007bff" d="M60.9227 104.25671v2.0701h-5.8801v16.129h-2.4638v-16.129h-5.9055v-2.0701z"/><path fill="#007bff" d="M65.58352 109.38751q1.1557 0 2.1336.3937.9779.381 1.6891 1.1176.7112.7239 1.1049 1.8034.4064 1.0668.4064 2.4384 0 .5334-.1143.7112-.1143.1778-.4318.1778h-8.5598q.0254 1.2192.3302 2.1209.3048.9017.8382 1.5113.5334.5969 1.27.9017.7366.2921 1.651.2921.8509 0 1.4605-.1905.6223-.2032 1.0668-.4318.4445-.2286.7366-.4191.3048-.2032.5207-.2032.2794 0 .4318.2159l.635.8255q-.4191.508-1.0033.889-.5842.3683-1.2573.6096-.6604.2413-1.3716.3556-.7112.127-1.4097.127-1.3335 0-2.4638-.4445-1.1176-.4572-1.9431-1.3208-.8128-.8763-1.27-2.159-.4572-1.2827-.4572-2.9464 0-1.3462.4064-2.5146.4191-1.1684 1.1938-2.0193.7747-.8636 1.8923-1.3462 1.1176-.4953 2.5146-.4953zm.0508 1.6637q-1.6383 0-2.5781.9525-.9398.9398-1.1684 2.6162h6.9977q0-.7874-.2159-1.4351-.2159-.6604-.635-1.1303-.4191-.4826-1.0287-.7366-.5969-.2667-1.3716-.2667z"/><path fill="#007bff" d="M73.80038 122.45581v-12.8651h1.3462q.4826 0 .6096.4699l.1778 1.397q.8382-.9271 1.8669-1.4986 1.0414-.5715 2.4003-.5715 1.0541 0 1.8542.3556.8128.3429 1.3462.9906.5461.635.8255 1.5367t.2794 1.9939v8.1915h-2.2606v-8.1915q0-1.4605-.6731-2.2606-.6604-.8128-2.032-.8128-1.0033 0-1.8796.4826-.8636.4826-1.6002 1.3081v9.4742z"/><path fill="#007bff" d="M95.28878 111.71161q-.1524.2794-.4699.2794-.1905 0-.4318-.1397-.2413-.1397-.5969-.3048-.3429-.1778-.8255-.3175-.4826-.1524-1.143-.1524-.5715 0-1.0287.1524-.4572.1397-.7874.3937-.3175.254-.4953.5969-.1651.3302-.1651.7239 0 .4953.2794.8255.2921.3302.762.5715.4699.2413 1.0668.4318.5969.1778 1.2192.3937.635.2032 1.2319.4572t1.0668.635q.4699.381.7493.9398.2921.5461.2921 1.3208 0 .889-.3175 1.651-.3175.7493-.9398 1.3081-.6223.5461-1.524.8636-.9017.3175-2.0828.3175-1.3462 0-2.4384-.4318-1.0922-.4445-1.8542-1.1303l.5334-.8636q.1016-.1651.2413-.254t.3683-.0889q.2286 0 .4826.1778t.6096.3937q.3683.2159.8763.3937.5207.1778 1.2954.1778.6604 0 1.1557-.1651.4953-.1778.8255-.4699.3302-.2921.4826-.6731.1651-.381.1651-.8128 0-.5334-.2921-.8763-.2794-.3556-.7493-.5969-.4699-.254-1.0795-.4318-.5969-.1905-1.2319-.3937-.6223-.2032-1.2319-.4572-.5969-.2667-1.0668-.6604t-.762-.9652q-.2794-.5842-.2794-1.4097 0-.7366.3048-1.4097.3048-.6858.889-1.1938.5842-.5207 1.4351-.8255.8509-.3048 1.9431-.3048 1.27 0 2.2733.4064 1.016.3937 1.7526 1.0922z"/><path fill="#007bff" d="M104.15333 109.38751q1.4097 0 2.54.4699 1.143.4699 1.9304 1.3335.8001.8636 1.2192 2.0955.4318 1.2192.4318 2.7305 0 1.524-.4318 2.7432-.4191 1.2192-1.2192 2.0828-.7874.8636-1.9304 1.3335-1.1303.4572-2.54.4572t-2.5527-.4572q-1.1303-.4699-1.9304-1.3335-.8001-.8636-1.2319-2.0828-.4318-1.2192-.4318-2.7432 0-1.5113.4318-2.7305.4318-1.2319 1.2319-2.0955.8001-.8636 1.9304-1.3335 1.143-.4699 2.5527-.4699zm0 11.4808q1.905 0 2.8448-1.27.9398-1.2827.9398-3.5687 0-2.2987-.9398-3.5814-.9398-1.2827-2.8448-1.2827-.9652 0-1.6764.3302-.7112.3302-1.1938.9525-.4699.6223-.7112 1.5367-.2286.9017-.2286 2.0447 0 1.143.2286 2.0447.2413.9017.7112 1.524.4826.6096 1.1938.9398.7112.3302 1.6764.3302z"/><path fill="#007bff" d="M113.06872 122.45581v-12.8651h1.2954q.3683 0 .508.1397t.1905.4826l.1524 2.0066q.6604-1.3462 1.6256-2.0955.9779-.762 2.286-.762.5334 0 .9652.127.4318.1143.8001.3302l-.2921 1.6891q-.0889.3175-.3937.3175-.1778 0-.5461-.1143-.3683-.127-1.0287-.127-1.1811 0-1.9812.6858-.7874.6858-1.3208 1.9939v8.1915z"/><path fill="#404041" d="M121.62852 104.25671h2.0447q.3302 0 .5461.1651.2159.1651.2921.4191l3.7592 12.6492q.1016.3429.1778.7366.0889.3937.1651.8255.0889-.4318.1778-.8255.0889-.4064.2032-.7366l4.2799-12.6492q.0762-.2159.2921-.3937.2286-.1905.5461-.1905h.7112q.3302 0 .5334.1651.2159.1651.3048.4191l4.2545 12.6492q.2286.6604.4064 1.5113.0762-.4191.1397-.8001.0635-.381.1651-.7112l3.7719-12.6492q.0635-.2286.2794-.4064.2286-.1778.5461-.1778h1.9177l-5.6769 18.1991h-2.2098l-4.6101-13.8811q-.1397-.3937-.254-.9144-.0635.254-.127.4953-.0508.2286-.1143.4191l-4.6355 13.8811h-2.2098z"/><path fill="#404041" d="M153.98808 109.38751q1.4097 0 2.54.4699 1.143.4699 1.9304 1.3335.8001.8636 1.2192 2.0955.4318 1.2192.4318 2.7305 0 1.524-.4318 2.7432-.4191 1.2192-1.2192 2.0828-.7874.8636-1.9304 1.3335-1.1303.4572-2.54.4572t-2.5527-.4572q-1.1303-.4699-1.9304-1.3335-.8001-.8636-1.2319-2.0828-.4318-1.2192-.4318-2.7432 0-1.5113.4318-2.7305.4318-1.2319 1.2319-2.0955.8001-.8636 1.9304-1.3335 1.143-.4699 2.5527-.4699zm0 11.4808q1.905 0 2.8448-1.27.9398-1.2827.9398-3.5687 0-2.2987-.9398-3.5814-.9398-1.2827-2.8448-1.2827-.9652 0-1.6764.3302-.7112.3302-1.1938.9525-.4699.6223-.7112 1.5367-.2286.9017-.2286 2.0447 0 1.143.2286 2.0447.2413.9017.7112 1.524.4826.6096 1.1938.9398.7112.3302 1.6764.3302z"/><path fill="#404041" d="M162.90347 122.45581v-12.8651h1.2954q.3683 0 .508.1397t.1905.4826l.1524 2.0066q.6604-1.3462 1.6256-2.0955.9779-.762 2.286-.762.5334 0 .9652.127.4318.1143.8001.3302l-.2921 1.6891q-.0889.3175-.3937.3175-.1778 0-.5461-.1143-.3683-.127-1.0287-.127-1.1811 0-1.9812.6858-.7874.6858-1.3208 1.9939v8.1915z"/><path fill="#404041" d="M175.48917 103.74871v11.0109h.5842q.254 0 .4191-.0635.1651-.0762.3683-.2921l4.064-4.3561q.1905-.2032.381-.3302t.508-.127h2.0574l-4.7371 5.0419q-.1778.2159-.3556.381-.1651.1651-.381.2921.2286.1524.4064.3556.1905.1905.3556.4445l5.0292 6.35h-2.032q-.2794 0-.4826-.1016-.1905-.1143-.3683-.3429l-4.2291-5.2705q-.1905-.2667-.381-.3429-.1905-.0889-.5715-.0889h-.635v6.1468h-2.2733v-18.7071z"/><path fill="#404041" d="M193.81522 111.71161q-.1524.2794-.4699.2794-.1905 0-.4318-.1397-.2413-.1397-.5969-.3048-.3429-.1778-.8255-.3175-.4826-.1524-1.143-.1524-.5715 0-1.0287.1524-.4572.1397-.7874.3937-.3175.254-.4953.5969-.1651.3302-.1651.7239 0 .4953.2794.8255.2921.3302.762.5715.4699.2413 1.0668.4318.5969.1778 1.2192.3937.635.2032 1.2319.4572t1.0668.635q.4699.381.7493.9398.2921.5461.2921 1.3208 0 .889-.3175 1.651-.3175.7493-.9398 1.3081-.6223.5461-1.524.8636-.9017.3175-2.0828.3175-1.3462 0-2.4384-.4318-1.0922-.4445-1.8542-1.1303l.5334-.8636q.1016-.1651.2413-.254t.3683-.0889q.2286 0 .4826.1778t.6096.3937q.3683.2159.8763.3937.5207.1778 1.2954.1778.6604 0 1.1557-.1651.4953-.1778.8255-.4699.3302-.2921.4826-.6731.1651-.381.1651-.8128 0-.5334-.2921-.8763-.2794-.3556-.7493-.5969-.4699-.254-1.0795-.4318-.5969-.1905-1.2319-.3937-.6223-.2032-1.2319-.4572-.5969-.2667-1.0668-.6604t-.762-.9652q-.2794-.5842-.2794-1.4097 0-.7366.3048-1.4097.3048-.6858.889-1.1938.5842-.5207 1.4351-.8255.8509-.3048 1.9431-.3048 1.27 0 2.2733.4064 1.016.3937 1.7526 1.0922z"/></g></g></svg>