<svg xmlns="http://www.w3.org/2000/svg" role="img" viewBox="35.50 51.50 129.74 97.74"><title>The Qt Company Oy logo</title><path d="M65 119h1v1h-1zm5 5h1v1h-1z" fill="#3ed140"/><path fill="#1cca1e" d="M102 119h1v1h-1z"/><path fill="#2ecd30" d="M99 136h1v1h-1z"/><path fill="#82e283" d="M48 61h1v1h-1z"/><path d="M101 77h1v1h-1zm-10 2h1v1h-1zm-17 35h1v1h-1z" fill="#b9efba"/><path d="M136 89h1v1h-1zm-56 29h1v1h-1z" fill="#c5f1c5"/><path d="M107 100h1v1h-1zm0 1h1v2h-1zm0 2h1v1h-1zm26 13h1v1h-1z" fill="#23cc26"/><path d="M122 124h1v1h-1zm36 8h1v1h-1z" fill="#5ed95f"/><path fill="#fcfefd" d="M100 133h1v1h-1z"/><path d="M45 64h1v1h-1zm-1 1h1v1h-1zm84 52h1v1h-1zm-29 8h1v1h-1z" fill="#89e38a"/><path d="M90 80h1v1h-1zm37 3h1v1h-1zm9 10h1v1h-1zm-64 9h1v1h-1zm59 24h1v1h-1z" fill="#2dcd2f"/><path d="M97 104h1v1h-1zm21 14h1v1h-1z" fill="#dcf7dd"/><path fill="#b0ecb1" d="M63 108h1v1h-1z"/><path d="M84 126h1v1h-1zm-46 19h1v1h-1z" fill="#71de73"/><path d="M52 57h1v1h-1zm77 68h1v1h-1z" fill="#7ee180"/><path fill="#a0e9a2" d="M124 73h1v1h-1z"/><path fill="#8de48e" d="M62 98h1v1h-1z"/><path fill="#6ddd6f" d="M106 103h1v1h-1z"/><path fill="#3cd13d" d="M109 89h1v1h-1z"/><path fill="#18c91b" d="M75 114h1v1h-1z"/><path d="M132 119h1v1h-1zm0 3h1v1h-1z" fill="#fdfffe"/><path d="M101 129h1v1h-1zm51 10h1v1h-1z" fill="#e7fae7"/><path fill="#50d651" d="M96 72h1v1h-1z"/><path d="M99 75h1v1h-1zm59 58h1v1h-1z" fill="#ecfaec"/><path d="M100 75h1v1h-1zM63 85h1v1h-1z" fill="#3fd240"/><path d="M82 78h1v1h-1zm29 14h1v1h-1zm-6 19h1v1h-1z" fill="#54d756"/><path fill="#62da63" d="M64 114h1v1h-1z"/><path fill="#21ca23" d="M81 69h1v1h-1z"/><path fill="#bcefbc" d="M65 81h1v1h-1z"/><path d="M113 84h2v1h-2zm2 0h1v1h-1zm12 0h7v1h-7zm7 0h1v1h-1zm21 51h1v1h-1z" fill="#58d85a"/><path d="M105 85h1v1h-1zm-64 60h101v1H41zm101 0h1v1h-1z" fill="#43d345"/><path d="M71 103h1v1h-1zm26 0h1v1h-1zm8 4h1v1h-1zm-1 5h1v1h-1z" fill="#d7f6d7"/><path d="M75 69h1v1h-1zm18 0h1v1h-1zm-22 2h1v1h-1zm-3 2h1v1h-1zm32 0h1v1h-1zm-33 1h1v1h-1zm35 1h1v1h-1zm2 3h1v1h-1zm-41 2h1v1h-1zm43 26h1v1h-1zm-14 8h1v1h-1zm-29 2h1v1h-1zm40 3h1v1h-1zm-37 2h1v1h-1zm1 1h1v1h-1zm21 6h1v1h-1zm1 1h1v1h-1zm16 2h1v1h-1zm-13 3h1v1h-1z" fill="#41d243"/><path fill="#85e287" d="M125 73h1v1h-1z"/><path d="M94 82h1v1h-1zm-1 50h1v1h-1z" fill="#b1edb1"/><path d="M105 87h1v1h-1zm-29 29h1v1h-1z" fill="#9ee89f"/><path d="M58 54h101v1H58zm101 0h1v1h-1z" fill="#66db68"/><path fill="#13c816" d="M92 81h1v1h-1z"/><path fill="#baefbb" d="M100 127h1v1h-1z"/><path fill="#a1e9a2" d="M63 88h1v1h-1z"/><path d="M72 89h1v1h-1zm58 36h1v1h-1z" fill="#6fdd70"/><path d="M66 117h1v1h-1zm11 0h1v1h-1zm20 19h1v1h-1z" fill="#def7de"/><path d="M78 69h1v1h-1zm-6 25h1v1h-1zm-5 27h1v1h-1z" fill="#2dce30"/><path fill="#1dca20" d="M71 72h1v1h-1z"/><path fill="#42d243" d="M101 74h1v1h-1z"/><path fill="#9ee8a0" d="M67 77h1v1h-1z"/><path fill="#45d447" d="M84 78h1v1h-1z"/><path d="M87 78h1v1h-1zm-1 48h1v1h-1z" fill="#67dc69"/><path d="M106 91h1v1h-1zm-43 20h1v1h-1z" fill="#4cd54e"/><path d="M117 92h1v1h-1zm-22 43h1v1h-1z" fill="#d3f5d3"/><path fill="#81e182" d="M50 59h1v1h-1z"/><path fill="#45d346" d="M72 72h1v1h-1z"/><path d="M120 75h2v1h-2zm2 0h1v1h-1zm-42 1h1v1h-1zm-2 2h1v1h-1zm22 1h1v1h-1zm19 5h1v1h-1zm-6 2h1v1h-1zm6 6h1v1h-1zm-55 10h1v1h-1zm34 7h1v1h-1zm4 3h1v1h-1zm17 2h1v1h-1zm5 2h1v1h-1zm-53 5h1v1h-1zm2 1h1v1h-1zm24 0h1v1h-1zm27 0h1v1h-1zm-25 4h1v1h-1zm-2 8h1v1h-1z" fill="#fdfefd"/><path fill="#cff4cf" d="M68 76h1v1h-1z"/><path d="M116 94h1v1h-1zm-47 28h1v1h-1z" fill="#2cce2f"/><path fill="#c0f1c1" d="M117 112h1v1h-1z"/><path fill="#c8f2c8" d="M117 111h1v1h-1z"/><path fill="#7ee17f" d="M65 116h1v1h-1z"/><path fill="#80e282" d="M94 134h1v1h-1z"/><path fill="#57d758" d="M146 144h1v1h-1z"/><path d="M75 70h1v1h-1zm18 0h1v1h-1zm25 2h1v1h-1zm-45 36h1v1h-1zm-11 2h1v1h-1z" fill="#22cb25"/><path fill="#7be07d" d="M105 86h1v1h-1z"/><path d="M71 92h1v1h-1zm26 13h1v1h-1zm-34 1h1v1h-1zm73 16h1v1h-1z" fill="#e2f8e2"/><path fill="#f0fcf1" d="M63 105h1v1h-1z"/><path d="M89 78h1v1h-1zm-18 23h1v1h-1zm20 16h1v1h-1z" fill="#cbf3cb"/><path d="M105 84h1v1h-1zm32 3h1v1h-1zm-23 6h1v1h-1zm-53 1h1v1h-1zm35 2h1v1h-1zm0 4h1v1h-1zm-23 9h1v1h-1zm8 18h1v1h-1z" fill="#27cc2a"/><path d="M62 101h1v1h-1zm29 28h1v1h-1z" fill="#83e284"/><path fill="#d6f6d6" d="M102 117h1v1h-1z"/><path d="M160 54h1v1h-1zM38 72h1v1h-1z" fill="#67db69"/><path d="M57 56h101v1H57zm101 0h1v1h-1zM55 57h1v1h-1zm105 0h1v70h-1zM53 59h1v1h-1zm-2 2h1v1h-1zm-2 2h1v1h-1zm-2 2h1v1h-1zm-2 2h1v1h-1zm-2 2h1v1h-1zm49 0h1v1h-1zm-50 1h1v1h-1zm-1 1h1v1h-1zm29 0h1v1h-1zm29 3h1v1h-1zm15 0h1v7h-1zm-52 7h1v1h-1zm17 0h1v1h-1zm26 0h1v1h-1zm9 0h1v1h-1zm-38 1h1v1h-1zm15 0h1v1h-1zm19 1h1v1h-1zm27 0h1v1h-1zm-30 1h1v1h-1zm-34 2h1v1h-1zm20 0h1v1h-1zm16 0h1v2h-1zm-34 1h1v1h-1zm34 1h1v1h-1zm-49 1h1v1h-1zm47 0h1v1h-1zm1 0h1v1h-1zm-34 3h1v1h-1zm0 1h1v1h-1zm20 2h1v7h-1zm-21 1h1v1h-1zm0 4h1v1h-1zm0 1h1v1h-1zm21 1h1v1h-1zm-20 2h1v1h-1zm0 1h1v1h-1zm-14 2h1v1h-1zm15 2h1v1h-1zm53 3h1v1h-1zm-66 3h1v1h-1zm1 2h1v1h-1zm42 0h1v1h-1zm33 0h1v1h-1zm0 1h1v1h-1zm1 0h1v1h-1zm0 1h1v1h-1zm-37 1h1v1h-1zm1 0h1v1h-1zm36 4h1v1h-1zm-1 1h1v1h-1zm-66 1h1v1h-1zm2 1h1v1h-1zm60 0h1v1h-1zm26 0h1v1h-1zm-81 1h1v1h-1zm10 2h1v1h-1zm17 2h1v1h-1zm-14 3h1v1h-1zm12 0h1v1h-1zm-5 3h1v1h-1zm-60 7h1v1h-1z" fill="#3cd13e"/><path d="M41 68h1v1h-1zm34 13h1v1h-1z" fill="#8be48d"/><path fill="#9ae79b" d="M82 70h1v1h-1z"/><path d="M135 117h1v1h-1zm-48 1h1v1h-1z" fill="#98e799"/><path fill="#37d038" d="M137 122h1v1h-1z"/><path d="M64 83h1v1h-1zm-2 16h1v1h-1zm1 10h1v1h-1zm19 9h1v1h-1zm4 0h1v1h-1z" fill="#8ce48d"/><path d="M96 86h1v1h-1zm-17 39h1v1h-1zm72 15h1v1h-1z" fill="#e8fae8"/><path d="M62 92h1v1h-1zm44 13h1v1h-1zm20 9h1v1h-1z" fill="#51d653"/><path fill="#d3f5d4" d="M103 132h1v1h-1z"/><path fill="#2ece2f" d="M69 74h1v1h-1z"/><path d="M117 76h1v5h-1zm0 5h1v1h-1zm0 14h1v14h-1zm0 14h1v1h-1z" fill="#c8f2c9"/><path fill="#52d754" d="M86 78h1v1h-1z"/><path d="M76 80h1v1h-1zm-1 35h1v1h-1z" fill="#91e592"/><path d="M110 87h1v3h-1zm27 1h1v2h-1zm-27 2h1v1h-1zm27 0h1v1h-1zm-24 3h1v1h-1zm17 0h4v1h-4zm4 0h1v1h-1zm-38 4h1v2h-1zm0 2h1v1h-1zm-24 1h1v1h-1zm35 4h1v1h-1zm-44 8h1v1h-1zm53 0h1v1h-1zm11 14h1v1h-1zm-36 5h1v1h-1z" fill="#27cc29"/><path d="M96 101h1v1h-1zm-2 35h1v1h-1z" fill="#28cd2b"/><path fill="#4ad44c" d="M117 117h1v1h-1z"/><path fill="#81e283" d="M117 73h1v1h-1z"/><path d="M102 78h1v1h-1zm-12 39h1v1h-1zm-5 9h1v1h-1z" fill="#71de72"/><path d="M77 80h1v1h-1zm-2 2h1v1h-1zm52 33h1v1h-1z" fill="#1ac91c"/><path d="M103 81h1v1h-1zm-6 20h1v1h-1zm39 18h1v1h-1z" fill="#ccf3cc"/><path fill="#68db69" d="M104 114h1v1h-1z"/><path fill="#bef0bf" d="M121 123h1v1h-1z"/><path fill="#42d244" d="M100 126h1v1h-1z"/><path fill="#26cc27" d="M91 130h1v1h-1z"/><path d="M119 75h1v1h-1zm-34 2h1v1h-1z" fill="#fafefa"/><path fill="#4fd652" d="M64 82h1v1h-1z"/><path fill="#67dc68" d="M63 86h1v1h-1z"/><path d="M71 105h1v1h-1zm85 30h1v1h-1z" fill="#ecfbed"/><path fill="#59d85a" d="M157 133h1v1h-1z"/><path d="M113 85h1v1h-1zm21 0h1v1h-1zm-16 32h1v1h-1z" fill="#f9fef9"/><path d="M136 85h1v1h-1zm0 3h1v1h-1z" fill="#c5f1c6"/><path fill="#e7fae8" d="M72 110h1v1h-1z"/><path fill="#2bce2e" d="M72 124h1v1h-1z"/><path d="M94 71h1v1h-1zm34 44h1v1h-1z" fill="#46d448"/><path fill="#4ad54c" d="M83 78h1v1h-1z"/><path fill="#16c919" d="M91 80h1v1h-1z"/><path d="M110 84h1v1h-1zm27 0h1v1h-1z" fill="#38d13a"/><path fill="#baefba" d="M135 124h1v1h-1z"/><path d="M98 73h1v1h-1zm28 1h1v7h-1zm0 7h1v1h-1zm-51 2h1v1h-1zm-2 4h1v1h-1zm-12 6h1v1h-1zm65 2h1v14h-1zm-30 7h1v1h-1zm30 7h1v1h-1zm-21 3h1v1h-1zm-28 4h1v1h-1zm42 7h1v1h-1zm-18 3h1v1h-1zm25 0h1v1h-1z" fill="#2bcd2d"/><path d="M78 79h1v1h-1zm58 13h1v1h-1zm13 49h1v1h-1z" fill="#55d757"/><path d="M104 82h1v1h-1zm-17 44h1v1h-1z" fill="#5dd95f"/><path fill="#6cdd6e" d="M73 85h1v1h-1z"/><path d="M80 69h1v1h-1zm8 0h1v1h-1zm1 10h1v1h-1zm16 4h1v1h-1zm-31 1h1v1h-1zm-12 3h1v1h-1zm-1 10h1v2h-1zm0 2h1v1h-1zm34 9h1v1h-1zm10 5h1v1h-1zm30 3h1v1h-1zm-49 1h2v1h-2zm2 0h1v1h-1zm-12 9h1v1h-1zm1 0h1v1h-1zm25 9h1v1h-1zm-2 1h1v1h-1zm-2 1h1v1h-1z" fill="#22cb24"/><path fill="#7ee17e" d="M89 70h1v1h-1z"/><path d="M91 71h1v1h-1zm8 64h1v1h-1z" fill="#e3f8e3"/><path d="M72 73h1v1h-1zm-8 12h1v1h-1zm33 5h1v1h-1zm8 16h1v1h-1z" fill="#f3fcf3"/><path d="M112 92h1v1h-1zm23 0h1v1h-1z" fill="#62da64"/><path fill="#fcfefb" d="M63 104h1v1h-1z"/><path fill="#3ed23f" d="M77 82h1v1h-1z"/><path d="M125 84h1v1h-1zm-22 31h1v1h-1zm33 5h1v1h-1z" fill="#d4f5d5"/><path d="M72 86h1v1h-1zm88 45h1v1h-1z" fill="#edfbed"/><path d="M106 93h1v1h-1zm-24 33h1v1h-1z" fill="#68dc6a"/><path fill="#8ae38b" d="M55 54h1v1h-1z"/><path d="M51 59h1v1h-1zM41 69h1v1h-1zm70 14h1v1h-1zm34 61h1v1h-1z" fill="#31cf34"/><path d="M49 60h1v1h-1zm54 20h1v1h-1zm-40 7h1v1h-1zm33 21h1v1h-1zm2 14h1v1h-1z" fill="#84e285"/><path d="M100 74h1v1h-1zm1 1h1v1h-1zm15 0h1v1h-1zM62 89h1v1h-1zm45 3h1v1h-1zm9 18h1v1h-1zm0 1h1v1h-1z" fill="#28cd2a"/><path fill="#69dc6b" d="M62 103h1v1h-1z"/><path fill="#35d038" d="M79 127h1v1h-1z"/><path d="M96 71h1v1h-1zm-28 3h1v1h-1zm47 9h1v1h-1zm-20 24h1v1h-1zm-1 4h1v1h-1zm42 5h1v1h-1zm1 4h1v1h-1zm-69 2h1v1h-1z" fill="#2cce2e"/><path fill="#f4fcf4" d="M94 72h1v1h-1z"/><path d="M65 79h1v1h-1zm15 0h1v1h-1zm-18 9h1v1h-1zm45 5h1v1h-1zm-46 2h1v1h-1zm76 23h1v1h-1zm-64 7h1v1h-1zm55 1h1v1h-1z" fill="#24cc27"/><path d="M97 94h1v1h-1zm28 17h1v1h-1z" fill="#d4f5d4"/><path fill="#33cf34" d="M97 137h1v1h-1z"/><path d="M91 69h1v1h-1zm-52 3h1v1h-1zm0 1h1v1h-1zm29 2h1v1h-1zm27 30h1v1h-1zm1 0h1v1h-1zm-35 1h1v1h-1zm1 0h1v1h-1zm31 7h1v1h-1zm10 16h1v1h-1zm49 8h1v1h-1zm-2 2h1v1h-1zm-2 2h1v1h-1zm-109 2h1v1h-1zm107 0h1v1h-1z" fill="#34cf36"/><path fill="#6bdc6c" d="M81 78h1v1h-1z"/><path d="M125 93h1v1h-1zm-53 16h1v1h-1z" fill="#c7f2c8"/><path d="M62 102h1v1h-1zm36 34h1v1h-1z" fill="#78df79"/><path d="M161 56h1v1h-1zM98 72h1v1h-1zm3 4h1v1h-1zm-7 10h1v1h-1zm-22 6h1v1h-1zm1 0h1v1h-1zm37 0h1v1h-1zm27 0h1v1h-1zm-42 2h1v1h-1zm0 9h1v1h-1zm11 9h1v1h-1zm-42 5h1v1h-1zm74 3h1v1h-1zm-66 5h1v1h-1zm27 12h1v1h-1z" fill="#37d039"/><path d="M124 72h1v1h-1zm-17 22h1v2h-1zm0 2h1v1h-1zm-1 14h1v1h-1zm24 6h2v1h-2zm2 0h1v1h-1z" fill="#23cc25"/><path d="M77 79h1v1h-1zm34 12h1v1h-1z" fill="#c7f2c7"/><path fill="#2fcf32" d="M95 110h1v1h-1z"/><path d="M53 57h1v1h-1zm-4 4h1v1h-1zm-1 1h1v1h-1zm-2 2h1v1h-1zm-2 2h1v1h-1zm-1 1h1v1h-1zm-1 1h1v1h-1zm-2 2h1v1h-1zm-1 1h1v1h-1zm30 2h1v1h-1zm47 0h1v1h-1zm-32 6h1v1h-1zm52 4h1v1h-1zm-40 21h1v1h-1zm29 22h1v1h-1zm7 0h1v1h-1zm28 3h1v1h-1zM39 144h1v1h-1z" fill="#31cf33"/><path d="M67 76h1v1h-1zm11 4h1v1h-1zm17 9h1v1h-1zm11 0h1v1h-1zm-10 6h1v1h-1zm-22 16h1v1h-1zm63 8h1v1h-1z" fill="#29cd2b"/><path d="M104 80h1v1h-1zm-4 41h1v1h-1z" fill="#1fcb21"/><path fill="#19c91b" d="M103 130h1v1h-1z"/><path fill="#94e695" d="M101 119h1v1h-1z"/><path d="M73 69h1v1h-1zm22 0h1v1h-1zm-26 2h1v1h-1zm30 0h1v1h-1zm-31 1h1v1h-1zm32 0h1v1h-1zm-33 1h1v1h-1zm34 0h1v1h-1zm-35 1h1v1h-1zm36 0h1v1h-1zm-37 1h1v1h-1zm38 0h1v1h-1zm2 3h1v1h-1zm-43 2h1v1h-1zm17 0h1v1h-1zm-1 2h1v1h-1zm12 0h1v1h-1zm17 0h1v1h-1zm-30 1h1v1h-1zm14 0h1v1h-1zm-15 1h1v1h-1zm-15 5h1v1h-1zm48 4h1v1h-1zm-36 1h1v1h-1zm36 0h1v1h-1zm3 1h1v1h-1zm1 0h2v1h-2zm2 0h1v1h-1zm12 0h8v1h-8zm8 0h1v1h-1zm-40 6h1v1h-1zm14 1h1v2h-1zm0 2h1v1h-1zm-2 3h1v1h-1zm-33 2h1v1h-1zm20 1h1v1h-1zm33 1h1v1h-1zm-51 1h1v1h-1zm1 1h1v1h-1zm1 1h1v1h-1zm12 0h1v1h-1zm39 0h1v1h-1zm-38 1h1v1h-1zm14 0h1v1h-1zm-43 1h1v1h-1zm42 1h1v2h-1zm-41 1h1v1h-1zm42 0h1v1h-1zm11 0h1v1h-1zm-12 1h1v1h-1zm34 0h1v1h-1zm-73 2h1v1h-1zm38 0h1v1h-1zm-37 1h1v1h-1zm36 0h1v1h-1zm-35 1h1v1h-1zm50 0h1v1h-1zm-49 1h1v1h-1zm50 0h1v1h-1zm-16 1h1v1h-1zm17 0h1v1h-1zm18 0h1v1h-1zm-66 1h1v1h-1zm8 0h1v1h-1zm43 1h1v1h-1zm-18 1h1v1h-1zm-23 1h5v1h-5zm5 0h2v1h-2zm2 0h1v1h-1zm17 1h1v1h-1zm-16 1h1v1h-1zm17 0h1v1h-1zm-15 3h1v1h-1zm12 0h1v1h-1zm-10 1h1v1h-1zm-1 1h1v1h-1zm12 0h1v1h-1zm-4 2h1v1h-1zm-2 1h1v1h-1zm-58 5h1v1h-1zm104 0h1v1h-1z" fill="#3ad13c"/><path d="M64 84h1v1h-1zm59 40h1v1h-1z" fill="#b8eeb8"/><path fill="#b4edb5" d="M117 113h1v1h-1z"/><path d="M126 115h1v1h-1zm-48 2h1v1h-1zm52 0h1v1h-1z" fill="#7ae07c"/><path d="M95 95h1v1h-1zm-22 8h1v1h-1zm28 20h1v1h-1zm-27 3h1v1h-1zm31 6h1v1h-1z" fill="#39d13b"/><path d="M106 95h1v1h-1zm-3 21h1v1h-1z" fill="#81e282"/><path fill="#e1f8e1" d="M127 117h1v1h-1z"/><path d="M40 69h1v1h-1zm48 1h1v1h-1zM62 97h1v1h-1zm44 3h1v1h-1zm-1 10h1v1h-1zm29 7h1v1h-1zm-58 8h1v1h-1z" fill="#8be48c"/><path d="M74 70h1v1h-1zm0 16h1v1h-1zm-2 7h1v1h-1zm17 23h1v1h-1zm-23 4h1v1h-1zm54 4h1v1h-1zm-18 5h1v1h-1zm56 2h1v1h-1zm-2 2h1v1h-1zm-2 2h1v1h-1z" fill="#32cf34"/><path d="M86 70h1v1h-1zm34 3h2v1h-2zm2 0h1v1h-1z" fill="#9ce89d"/><path d="M104 79h1v1h-1zm-30 8h1v1h-1zm21 15h1v1h-1zm-34 5h1v1h-1zm66 5h1v1h-1zm-26 9h1v1h-1zm-1 1h1v1h-1zm38 2h1v1h-1z" fill="#38d03a"/><path d="M78 71h1v1h-1zm12 7h1v1h-1zm-52 68h1v1h-1z" fill="#f8fdf8"/><path d="M117 82h1v1h-1zm0 12h1v1h-1z" fill="#c9f3ca"/><path fill="#6ddd6e" d="M96 89h1v1h-1z"/><path fill="#36d039" d="M96 91h1v1h-1z"/><path d="M84 77h1v1h-1zm-45 69h104v1H39zm104 0h1v1h-1z" fill="#f7fdf7"/><path fill="#49d44a" d="M85 78h1v1h-1z"/><path fill="#2bce2d" d="M116 82h1v1h-1z"/><path fill="#adecae" d="M105 88h1v1h-1z"/><g fill="#3bd13d"><path d="M56 57h103v10H56zm103 0h1v71h-1z"/><path d="M54 58h105v9H54z"/><path d="M52 60h107v7H52z"/><path d="M50 62h109v5H50z"/><path d="M48 64h111v3H48z"/><path d="M46 66h113v1H46zm0 1h113v1H46zm-2 1h30v1H44zm30 0h2v1h-2zm2 0h1v1h-1zm16 0h67v1H92zm-48 1h28v1H44zm28 0h1v1h-1zm24 0h63v1H96zm-53 1h28v1H43zm28 0h1v1h-1zm26 0h62v1H97zm-55 1h26v1H42zm26 0h1v1h-1zm32 0h16v1h-16zm16 0h1v1h-1zm10 0h33v1h-33zm-85 1h26v1H41zm26 0h1v1h-1zm3 0h1v1h-1zm31 0h14v1h-14zm14 0h1v1h-1zm12 0h32v9h-32zm-86 1h25v1H41zm25 0h1v1h-1zm36 0h13v1h-13zm13 0h1v7h-1zm-74 1h24v3H41zm24 0h1v1h-1zm38 0h10v1h-10zm10 0h1v7h-1zm-9 1h9v2h-9zm-63 2h23v2H41zm23 0h1v2h-1zm40 0h9v1h-9zm2 1h7v1h-7zm-65 1h23v1H41zm23 0h1v1h-1zm42 0h7v2h-7zm-65 1h20v5H41zm20 0h1v4h-1zm28 0h1v34h-1zm26 0h1v1h-1zm-35 1h6v34h-6zm6 0h2v34h-2zm2 0h1v33h-1zm18 0h7v1h-7zm7 0h1v1h-1zm14 0h32v1h-32z"/><path d="M79 82h10v32H79zm29 0h2v2h-2zm2 0h1v1h-1zm27 0h22v1h-22z"/><path d="M78 83h12v30H78zm12 0h1v30h-1zm17 0h2v1h-2zm31 0h21v1h-21zm-77 1h1v1h-1z"/><path d="M77 84h15v28H77zm15 0h1v26h-1zm16 0h1v4h-1zm1 0h1v1h-1zm29 0h21v1h-21zm-97 1h19v58H41zm19 0h1v3h-1z"/><path d="M76 85h15v26H76zm33 0h1v1h-1zm29 0h21v1h-21zm0 1h21v1h-21zm-45 1h1v23h-1zm45 0h21v1h-21zm-78 1h1v1h-1z"/><path d="M75 88h18v18H75zm33 0h1v1h-1zm30 0h21v1h-21zm0 1h21v1h-21zm-32 1h1v1h-1zm3 0h1v2h-1zm29 0h21v26h-21zm-29 2h1v1h-1z"/><path d="M74 94h19v9H74zm36 0h1v49h-1zm27 0h22v21h-22z"/><path d="M73 95h20v1H73zm36 0h2v6h-2zm2 0h1v48h-1zm25 0h23v19h-23zm-41 1h1v1h-1zm17 0h1v47h-1zm1 0h2v1h-2zm2 0h1v16h-1z"/><path d="M127 96h32v14h-32zm-32 1h1v3h-1zm18 0h2v1h-2zm0 1h2v1h-2zm0 1h2v1h-2zm-18 1h1v1h-1zm18 0h2v1h-2zm-4 1h4v1h-4zm4 0h2v1h-2zm-40 1h20v1H73zm40 0h2v1h-2zm-39 1h19v1H74zm39 0h2v1h-2zm0 1h2v1h-2zm-4 1h4v38h-4zm4 0h2v1h-2zm-38 1h18v2H75zm38 0h2v1h-2z"/><path d="M108 107h5v36h-5zm5 0h2v1h-2zm-53 1h1v1h-1zm15 0h18v1H75zm38 0h2v1h-2zm-53 1h1v34h-1zm53 0h2v1h-2zm-21 1h1v2h-1zm1 0h1v1h-1zm20 0h2v1h-2zm14 0h32v1h-32zm-51 1h15v1H76zm37 0h2v4h-2zm15 0h31v1h-31zm-67 1h1v31h-1zm16 0h15v1H77zm15 0h1v1h-1zm23 0h1v1h-1zm14 0h30v1h-30zm-51 1h13v1H78zm13 0h1v1h-1z"/><path d="M107 113h7v30h-7zm22 0h30v1h-30zm-53 1h1v1h-1zm3 0h10v1H79zm10 0h1v1h-1zm41 0h29v1h-29zm-50 1h7v1h-7zm7 0h1v1h-1z"/><path d="M106 115h8v15h-8zm8 0h1v28h-1zm23 0h22v1h-22zm1 1h21v1h-21zm-76 1h1v26h-1zm77 0h20v1h-20zm-24 1h1v25h-1zm25 0h19v11h-19zm-77 1h1v24h-1zm1 0h1v24h-1z"/><path d="M105 119h10v10h-10z"/><path d="M104 120h11v7h-11zm12 1h1v22h-1zm-51 1h1v21h-1z"/><path d="M103 122h13v3h-13zm-37 1h1v20h-1z"/><path d="M102 123h14v1h-14zm-35 1h1v19h-1zm35 0h15v1h-15zm15 0h1v19h-1zm-49 1h2v18h-2zm2 0h1v18h-1z"/><path d="M103 125h15v2h-15zm15 0h1v18h-1zm21 0h20v4h-20zm-20 1h2v17h-2zm2 0h1v17h-1z"/><path d="M137 126h22v3h-22zm-66 1h2v16h-2zm2 0h1v16h-1zm5 0h1v16h-1zm25 0h18v1h-18zm20 0h1v16h-1z"/><path d="M135 127h24v2h-24zm-61 1h4v15h-4z"/><path d="M122 128h37v1h-37zm37 0h1v1h-1zm-80 1h1v14h-1zm1 0h1v14h-1zm25 0h53v1h-53zm53 0h1v1h-1zm-77 1h7v13h-7zm7 0h1v13h-1zm18 0h51v1h-51zm51 0h1v1h-1zm-35 1h34v1h-34zm34 0h1v1h-1zm-67 1h1v11h-1zm1 0h1v11h-1zm32 0h33v1h-33zm33 0h1v1h-1zm-33 1h32v1h-32zm32 0h1v1h-1zm-48 1h47v1h-47zm47 0h1v1h-1zm-62 1h1v8h-1zm14 0h47v1h-47zm47 0h1v1h-1zm-47 1h46v1h-46zm46 0h1v1h-1zm-59 1h1v6h-1zm1 0h1v6h-1zm9 0h48v1h-48zm48 0h1v1h-1zm-56 1h1v5h-1zm7 0h48v1h-48zm48 0h1v1h-1zm-54 1h1v4h-1zm4 0h49v1H99zm49 0h1v1h-1zm-52 1h51v1H96zm51 0h1v1h-1zm-51 1h50v1H96zm50 0h1v1h-1zm-50 1h49v1H96zm49 0h1v1h-1zm-104 1h103v1H41zm103 0h1v1h-1z"/></g><path fill="#dcf6dc" d="M125 74h1v1h-1z"/><path fill="#d8f6d8" d="M69 75h1v1h-1z"/><path d="M125 76h1v5h-1zm0 5h1v1h-1zm0 15h1v11h-1zm0 11h1v2h-1zm0 2h1v1h-1z" fill="#cdf3cd"/><path fill="#cbf3cc" d="M136 118h1v1h-1z"/><path fill="#26cb28" d="M110 91h1v1h-1z"/><path fill="#dff7e0" d="M71 104h1v1h-1z"/><path fill="#79e07a" d="M129 117h1v1h-1z"/><path d="M161 54h1v1h-1zm0 75h1v1h-1z" fill="#61da63"/><path d="M162 54h1v1h-1zm-85 71h1v1h-1z" fill="#b8eeb9"/><path fill="#acebad" d="M162 56h1v1h-1z"/><path d="M52 58h1v1h-1zm-2 2h1v1h-1zm27 10h1v1h-1zm8 9h1v1h-1z" fill="#2fce32"/><path fill="#29cc2b" d="M122 125h1v1h-1z"/><path fill="#a3e9a4" d="M162 128h1v1h-1z"/><path fill="#5bd85d" d="M159 131h1v1h-1z"/><path d="M54 56h1v1h-1zm-9 9h1v1h-1zm27 6h1v1h-1zm21 12h1v1h-1zm13 2h1v1h-1zm-44 5h1v1h-1zm33 0h1v1h-1zm31 4h1v1h-1zm-65 11h1v1h-1zm4 12h1v1h-1zm52 1h1v1h-1zm20 3h1v1h-1zm1 2h1v1h-1zm-63 3h1v1h-1zm86 2h1v1h-1zm-69 5h1v1h-1zm11 2h1v1h-1z" fill="#30ce32"/><path d="M73 70h1v1h-1zm22 0h1v1h-1zm2 1h1v1h-1zm2 1h1v1h-1zm-33 3h1v1h-1zm-1 2h1v1h-1zm16 3h1v1h-1zm24 0h1v1h-1zm-27 1h1v1h-1zm13 0h1v1h-1zm1 1h1v1h-1zm-16 1h1v1h-1zm30 0h1v1h-1zm-13 2h1v1h-1zm-32 1h1v1h-1zm0 1h1v1h-1zm47 6h1v10h-1zm4 1h2v1h-2zm2 0h1v1h-1zm21 0h1v1h-1zm-27 9h1v1h-1zm-34 4h1v1h-1zm0 1h1v1h-1zm-13 1h1v1h-1zm0 1h1v1h-1zm32 2h1v1h-1zm-17 1h1v1h-1zm50 0h1v1h-1zm-20 1h1v1h-1zm9 1h1v1h-1zm14 0h6v1h-6zm6 0h1v1h-1zm-30 1h1v1h-1zm10 0h1v1h-1zm-47 7h1v1h-1zm50 0h1v1h-1zm19 0h1v1h-1zm-18 1h1v1h-1zm-48 1h1v1h-1zm2 1h1v1h-1zm63 0h1v1h-1zm-54 2h4v1h-4zm4 0h1v1h-1zm4 3h1v1h-1zm3 5h1v1h-1zm7 1h1v1h-1zm-2 1h1v1h-1zm46 7h1v1h-1z" fill="#40d242"/><path d="M104 85h1v1h-1zm-15 33h1v1h-1zm-14 6h1v1h-1z" fill="#f2fcf2"/><path d="M71 95h1v1h-1zm54 0h1v1h-1z" fill="#ccf3cd"/><path d="M116 84h1v1h-1zm-41 41h1v1h-1z" fill="#48d449"/><path d="M117 84h1v1h-1zm-46 18h1v1h-1z" fill="#d1f4d1"/><path d="M111 86h1v1h-1zm-15 1h1v1h-1zm1 12h1v1h-1z" fill="#c1f1c2"/><path d="M116 95h1v1h-1zm-11 38h1v1h-1z" fill="#27cd29"/><path d="M79 70h1v1h-1zm-8 53h1v1h-1z" fill="#77df79"/><path d="M97 73h1v1h-1zm5 61h1v1h-1z" fill="#97e798"/><path fill="#9be79c" d="M119 73h1v1h-1z"/><path d="M94 83h1v1h-1zm12 1h1v1h-1zm-33 9h1v1h-1zm47 30h1v1h-1zm14 3h1v1h-1zm-44 4h1v1h-1zm-49 14h102v1H41zm102 0h1v1h-1z" fill="#39d03b"/><path d="M131 125h1v1h-1zm-39 6h1v1h-1z" fill="#58d859"/><path fill="#abebab" d="M162 126h1v1h-1z"/><path fill="#acebac" d="M104 113h1v1h-1z"/><path d="M90 69h1v1h-1zm23 14h1v1h-1zm15 0h6v1h-6zm6 0h1v1h-1zm-23 10h1v1h-1zm-15 10h1v1h-1zm-35 1h1v1h-1zm12 2h1v1h-1zm53 4h1v1h-1zm-64 1h1v1h-1zm44 0h1v1h-1zm-31 2h1v1h-1zm49 12h1v1h-1zm-36 1h1v1h-1zm-8 1h1v1h-1z" fill="#2dce2f"/><path d="M66 78h1v1h-1zm79 67h1v1h-1z" fill="#59d85b"/><path d="M87 79h1v1h-1zm-23 1h1v1h-1zm70 36h1v1h-1z" fill="#24cb26"/><path d="M73 84h1v1h-1zm38 1h1v1h-1zm6 8h1v1h-1z" fill="#c2f1c3"/><path fill="#a3eaa4" d="M105 109h1v1h-1z"/><path d="M95 113h1v1h-1zm67 16h1v1h-1zm-7 7h1v1h-1zm-6 6h1v1h-1z" fill="#eafaea"/><path fill="#8fe590" d="M39 70h1v1h-1z"/><path fill="#3bd13c" d="M115 81h1v1h-1z"/><path d="M112 83h1v1h-1zm23 0h1v1h-1zm-41 30h1v1h-1zm33 1h1v1h-1zm-49 12h1v1h-1zm18 12h1v1h-1z" fill="#2ccd2e"/><path fill="#1cc91e" d="M126 83h1v1h-1z"/><path d="M55 55h1v1h-1zm17 48h1v1h-1zm65 14h1v1h-1z" fill="#31ce33"/><path fill="#d6f6d7" d="M98 74h1v1h-1z"/><path d="M74 113h1v1h-1zm-10 5h1v1h-1z" fill="#41d343"/><path fill="#71dd72" d="M38 144h1v1h-1z"/><path d="M79 116h1v1h-1zm37 1h1v1h-1z" fill="#2ece31"/><path fill="#f6fdf6" d="M144 146h1v1h-1z"/><path d="M47 63h1v1h-1zm47 7h1v1h-1zm-11 9h1v1h-1zm43 3h1v1h-1zM96 93h1v1h-1zm30 18h1v1h-1zm7 14h1v1h-1zm-29 7h1v1h-1z" fill="#2fce31"/><path fill="#3ed13f" d="M116 72h1v1h-1z"/><path d="M102 77h1v1h-1zm-39 36h1v1h-1zm18 4h1v1h-1zm18 5h1v1h-1zm1 3h1v1h-1zm2 3h1v1h-1zm-10 4h1v1h-1z" fill="#1eca20"/><path d="M113 92h2v1h-2zm2 0h1v1h-1zm19 0h1v1h-1zm-28 12h1v1h-1z" fill="#60da61"/><path fill="#89e48a" d="M42 67h1v1h-1z"/><path d="M64 93h1v1h-1zm3 21h1v1h-1z" fill="#feffff"/><path d="M72 101h1v1h-1zm-11 2h1v1h-1zm56 17h1v1h-1z" fill="#29cd2c"/><path fill="#7fe180" d="M131 117h1v1h-1z"/><path fill="#3ad13d" d="M88 115h1v1h-1z"/><path fill="#21cb24" d="M82 117h1v1h-1z"/><path d="M160 130h1v1h-1zm-64 7h1v1h-1z" fill="#5ed960"/><path d="M162 55h1v1h-1zm-44 18h1v1h-1z" fill="#a2e9a3"/><path d="M80 78h1v1h-1zm24 5h1v1h-1zm-32 5h1v1h-1z" fill="#a0e9a1"/><path fill="#d2f5d3" d="M71 94h1v1h-1z"/><path fill="#a0e8a1" d="M117 114h1v1h-1z"/><path d="M124 124h1v1h-1zm-32 6h1v1h-1z" fill="#daf6da"/><path fill="#42d345" d="M125 125h1v1h-1z"/><path d="M54 52h1v1h-1zm1 0h1v1h-1zM36 70h1v1h-1zm0 1h1v1h-1zm42 5h1v1h-1zm3 0h1v1h-1zm6 0h1v1h-1zm3 0h1v1h-1zm-4 1h1v1h-1zm-17 1h1v1h-1zm6 0h1v1h-1zm18 0h1v1h-1zm-19 1h1v1h-1zm1 0h1v1h-1zm27 6h1v1h-1zm15 0h1v1h-1zm8 0h1v1h-1zm8 2h1v1h-1zm-68 6h1v1h-1zm39 0h1v2h-1zm0 2h1v1h-1zm0 7h1v1h-1zm0 1h1v1h-1zm1 2h1v1h-1zm-7 5h1v1h-1zm-28 1h1v1h-1zm1 0h1v1h-1zm31 0h1v1h-1zm-36 3h1v1h-1zm35 1h1v1h-1zm-27 2h1v1h-1zm20 0h1v1h-1zm5 1h1v1h-1zm30 1h2v1h-2zm2 0h1v1h-1zm-10 1h1v1h-1zm-46 2h1v1h-1zm50 0h1v1h-1zm1 0h1v1h-1zm5 0h1v1h-1zm-53 1h1v1h-1zm1 0h1v1h-1zm9 0h1v1h-1zm1 0h1v1h-1zm-6 1h2v1h-2zm2 0h1v1h-1zm14 5h1v1h-1zm2 2h1v1h-1zm-2 2h1v1h-1zm4 0h1v1h-1z" fill="#fefffe"/><path d="M100 76h1v1h-1zm47 68h1v1h-1z" fill="#e7f9e7"/><path fill="#c1f0c2" d="M71 97h1v1h-1z"/><path fill="#6adc6c" d="M66 118h1v1h-1z"/><path d="M43 66h1v1h-1zm19 30h1v1h-1zm71 21h1v1h-1zm-50 1h1v1h-1z" fill="#88e389"/><path d="M89 69h1v1h-1zm3 1h1v1h-1zm3 17h1v1h-1zm-33 21h1v1h-1zm54 6h1v1h-1zm13 2h1v1h-1zm-49 1h1v1h-1zm23 1h1v1h-1zm-4 5h1v1h-1zm24 2h1v1h-1zm13 0h1v1h-1zm-7 1h1v1h-1zm-43 1h1v1h-1z" fill="#25cc27"/><path fill="#20cb23" d="M94 84h1v1h-1z"/><path d="M83 70h2v1h-2zm2 0h1v1h-1z" fill="#a4eaa5"/><path d="M94 85h1v1h-1zm43 0h1v1h-1zm-27 1h1v1h-1zm27 0h1v1h-1zm0 5h1v1h-1zm-22 2h1v1h-1zm12 0h2v1h-2zm2 0h1v1h-1zm-68 9h1v1h-1z" fill="#26cc29"/><path fill="#d6f5d7" d="M125 92h1v1h-1z"/><path d="M112 84h1v1h-1zm23 0h1v1h-1zm-29 8h1v1h-1zm-4 26h1v1h-1z" fill="#5ad85c"/><path d="M71 91h1v1h-1zm54 22h1v1h-1z" fill="#f1fcf1"/><path fill="#cef3ce" d="M125 94h1v1h-1z"/><path fill="#8fe490" d="M106 99h1v1h-1z"/><path d="M57 55h102v1H57zm102 0h1v1h-1zm2 2h1v69h-1zM77 69h1v1h-1zM61 90h1v1h-1zm46 0h1v1h-1zm-12 14h1v1h-1zm-18 11h1v1h-1zm61 6h1v1h-1zm23 5h1v1h-1zm-73 1h1v1h-1zm16 7h1v1h-1zm-7 4h1v1h-1z" fill="#35d037"/><path d="M91 70h1v1h-1zm35 3h1v1h-1zm-87 1h1v68h-1zm23 11h1v1h-1zm11 6h1v1h-1zm22 0h1v1h-1zm1 1h1v1h-1zm11 14h1v1h-1zm-33 4h1v1h-1zm53 3h1v1h-1zm-9 9h1v1h-1zm41 8h1v1h-1zm-2 2h1v1h-1zm-56 4h1v1h-1zm52 0h1v1h-1zm-58 1h1v1h-1zm56 1h1v1h-1zm-112 4h1v1h-1zm108 0h1v1h-1z" fill="#33cf35"/><path d="M38 71h1v1h-1zm35 1h1v1h-1zm15 6h1v1h-1z" fill="#99e79a"/><path fill="#9be79d" d="M123 73h1v1h-1z"/><path fill="#61da62" d="M126 125h1v1h-1z"/><path fill="#9fe89f" d="M102 130h1v1h-1z"/><path fill="#c6f2c6" d="M97 100h1v1h-1z"/><path fill="#44d347" d="M62 105h1v1h-1z"/><path d="M96 110h1v1h-1zm-28 10h1v1h-1z" fill="#dbf7dc"/><path d="M125 110h1v1h-1zm-47 15h1v1h-1z" fill="#cff4d0"/><path fill="#b1edb2" d="M67 119h1v1h-1z"/><path fill="#e9faea" d="M101 134h1v1h-1z"/><path d="M56 56h1v1h-1zm103 0h1v1h-1zM52 59h1v1h-1zm-1 1h1v1h-1zm-2 2h1v1h-1zm-2 2h1v1h-1zm-1 1h1v1h-1zm-1 1h1v1h-1zm-1 1h1v1h-1zm-1 1h1v1h-1zm34 0h1v1h-1zm-35 1h1v1h-1zm32 0h1v1h-1zm-33 1h1v1h-1zm-1 1h1v72h-1zm58 0h1v1h-1zm28 1h1v1h-1zm-21 7h1v1h-1zm-42 2h1v1h-1zm14 0h1v1h-1zm-16 4h1v1h-1zm33 2h1v1h-1zm-34 3h1v1h-1zm48 0h1v1h-1zm-34 1h1v1h-1zm20 1h1v2h-1zm0 2h1v1h-1zm-21 3h1v2h-1zm0 2h1v1h-1zm21 4h1v1h-1zm0 1h1v1h-1zm14 2h1v1h-1zm-46 6h1v1h-1zm45 0h1v1h-1zm8 1h1v1h-1zm13 0h1v1h-1zm-37 1h1v1h-1zm-2 1h1v1h-1zm50 5h1v1h-1zm0 1h1v1h-1zm-38 3h1v1h-1zm22 2h1v1h-1zm12 0h1v1h-1zm-11 1h1v1h-1zm9 0h1v1h-1zm-29 2h1v1h-1zm-10 8h1v1h-1zm1 1h1v1h-1zm2 1h1v1h-1zm-57 4h1v1h-1z" fill="#3dd13f"/><path d="M78 70h1v1h-1zm69 73h1v1h-1z" fill="#52d654"/><path d="M63 90h1v1h-1zm35 34h1v1h-1z" fill="#ddf7dd"/><path fill="#8de48f" d="M106 97h1v1h-1z"/><path d="M97 91h1v1h-1zm51 52h1v1h-1zm-2 2h1v1h-1z" fill="#e5f9e5"/><path fill="#2fcf31" d="M106 107h1v1h-1z"/><path d="M159 132h1v1h-1zm-5 5h1v1h-1zm-1 1h1v1h-1z" fill="#ebfaeb"/><path fill="#6edd70" d="M104 133h1v1h-1z"/><g fill="#fff"><path d="M0 0h199v51H0zm199 0h1v199h-1zM0 51h199v1H0zm0 1h53v1H0zm53 0h1v3h-1zm3 0h143v1H56zM0 53h52v1H0z"/><path d="M52 53h3v1h-3zm3 0h1v1h-1zm107 0h37v1h-37zM0 54h51v1H0zm51 0h3v1h-3zm3 0h1v1h-1zm109 0h36v1h-36zM0 55h50v1H0zm50 0h3v1h-3zm3 0h1v1h-1zm110 0h36v1h-36zM0 56h49v1H0zm49 0h3v1h-3zm3 0h1v1h-1zm111 0h36v1h-36zM0 57h48v1H0zm48 0h3v1h-3zm3 0h1v1h-1zm112 0h36v1h-36zM0 58h47v1H0zm47 0h3v1h-3zm3 0h1v1h-1zm113 0h36v1h-36zM0 59h46v1H0zm46 0h3v1h-3zm3 0h1v1h-1zm114 0h36v1h-36zM0 60h45v1H0zm45 0h3v1h-3zm3 0h1v1h-1zm115 0h36v1h-36zM0 61h44v1H0zm44 0h3v1h-3zm3 0h1v1h-1zm116 0h36v1h-36zM0 62h43v1H0zm43 0h3v1h-3zm3 0h1v1h-1zm117 0h36v1h-36zM0 63h42v1H0zm42 0h3v1h-3zm3 0h1v1h-1zm118 0h36v1h-36zM0 64h41v1H0zm41 0h3v1h-3zm3 0h1v1h-1zm119 0h36v1h-36zM0 65h40v1H0zm40 0h3v1h-3zm3 0h1v1h-1zm120 0h36v1h-36zM0 66h39v1H0zm39 0h3v1h-3zm3 0h1v1h-1zm121 0h36v1h-36zM0 67h38v1H0zm38 0h3v1h-3zm3 0h1v1h-1zm122 0h36v1h-36zM0 68h37v1H0zm37 0h3v1h-3zm3 0h1v1h-1zm123 0h36v1h-36zM0 69h36v130H0zm36 0h3v1h-3zm3 0h1v1h-1zm124 0h36v1h-36zM37 70h1v1h-1zm1 0h1v1h-1zm125 0h36v1h-36zM37 71h1v73h-1zm42 0h10v4H79zm10 0h1v4h-1zm74 0h36v1h-36zM36 72h1v127h-1zm39 0h3v4h-3zm3 0h1v3h-1zm12 0h3v3h-3zm3 0h1v5h-1zm70 0h36v1h-36zm-90 1h1v7h-1zm1 0h1v5h-1zm20 0h1v5h-1zm1 0h1v6h-1zm68 0h36v1h-36zm-92 1h1v9h-1zm1 0h1v7h-1zm24 0h1v7h-1zm1 0h1v8h-1zm21 0h6v1h-6zm6 0h1v40h-1zm39 0h36v1h-36zm-93 1h1v10h-1z"/><path d="M78 75h17v1H78zm20 0h1v10h-1zm20 0h1v41h-1zm45 0h36v1h-36zm-94 1h8v1h-8zm8 0h1v2h-1zm5 0h4v1h-4zm4 0h1v1h-1zm5 0h6v1h-6zm8 0h1v13h-1zm21 0h2v41h-2zm2 0h2v1h-2zm41 0h36v1h-36zm-95 1h8v1h-8z"/><path d="M76 77h6v1h-6zm6 0h1v1h-1zm5 0h3v1h-3zm3 0h8v1h-8zm10 0h1v1h-1zm22 0h2v1h-2zm41 0h36v1h-36zm-96 1h1v1h-1zm7 0h1v1h-1zm3 0h1v1h-1zm14 0h1v1h-1zm3 0h5v1h-5zm7 0h1v1h-1zm21 0h2v1h-2zm41 0h36v1h-36zm-96 1h6v1h-6zm9 0h1v1h-1zm16 0h1v1h-1zm1 0h6v1h-6zm8 0h1v1h-1zm21 0h2v1h-2zm41 0h36v1h-36zm-97 1h7v1h-7zm7 0h2v1h-2zm2 0h1v1h-1zm18 0h1v1h-1zm1 0h6v1h-6zm6 0h2v34h-2zm2 0h1v2h-1zm20 0h2v1h-2zm41 0h36v1h-36zm-97 1h6v1h-6zm6 0h2v2h-2zm2 0h1v1h-1zm20 0h6v1h-6zm28 0h2v1h-2zm41 0h36v1h-36zm-97 1h5v1h-5z"/><path d="M95 82h8v1h-8zm8 0h1v3h-1zm19 0h2v1h-2zm41 0h36v1h-36zm-98 1h8v1h-8zm8 0h1v1h-1zm23 0h5v2h-5zm26 0h2v8h-2zm41 0h36v1h-36zm-98 1h5v1h-5zm7 0h1v1h-1zm91 0h36v1h-36zm-98 1h5v1h-5zm5 0h2v1h-2zm2 0h1v1h-1zm24 0h5v1h-5zm7 0h1v1h-1zm9 0h1v6h-1z"/><path d="M119 85h5v6h-5zm16 0h1v6h-1zm28 0h36v1h-36zm-99 1h5v1h-5zm5 0h2v1h-2zm2 0h1v4h-1zm26 0h5v1h-5zm5 0h2v1h-2zm2 0h1v6h-1z"/><path d="M114 86h19v5h-19zm19 0h2v1h-2zm30 0h36v1h-36zm-99 1h5v1h-5zm5 0h2v1h-2zm28 0h5v1h-5zm5 0h2v1h-2zm61 0h36v1h-36zm-99 1h5v1h-5zm5 0h2v2h-2zm28 0h5v1h-5zm5 0h2v1h-2zm31 0h2v1h-2zm30 0h36v1h-36zm-99 1h5v1h-5zm33 0h5v1h-5zm5 0h2v16h-2zm31 0h2v2h-2zm30 0h36v1h-36zm-99 1h7v1h-7zm7 0h1v1h-1zm27 0h4v1h-4zm65 0h36v1h-36zm-99 1h4v1h-4zm4 0h2v1h-2zm2 0h1v16h-1z"/><path d="M98 91h6v1h-6zm14 0h23v1h-23zm23 0h1v1h-1zm28 0h36v1h-36zm-99 1h4v1h-4zm4 0h2v1h-2zm30 0h7v1h-7zm7 0h1v12h-1zm17 0h2v1h-2zm41 0h36v1h-36zM63 93h1v10h-1zm3 0h2v18h-2zm2 0h2v1h-2zm30 0h5v1h-5zm24 0h2v1h-2zm41 0h36v1h-36z"/><path d="M65 94h3v9h-3zm3 0h2v1h-2zm30 0h5v1h-5zm24 0h2v1h-2zm41 0h36v1h-36zm-95 1h2v1h-2zm30 0h5v1h-5zm24 0h2v1h-2zm41 0h36v1h-36zm-95 1h2v1h-2zm30 0h5v1h-5zm24 0h2v1h-2zm41 0h36v1h-36zm-95 1h2v1h-2zm30 0h5v1h-5zm24 0h2v1h-2zm41 0h36v1h-36zm-95 1h2v1h-2zm30 0h5v1h-5zm24 0h2v1h-2zm41 0h36v1h-36zm-95 1h2v1h-2zm30 0h5v1h-5zm24 0h2v1h-2zm41 0h36v1h-36zm-95 1h2v1h-2zm30 0h5v1h-5zm24 0h2v1h-2zm41 0h36v1h-36zm-95 1h2v1h-2zm30 0h5v1h-5zm24 0h2v1h-2zm41 0h36v1h-36zm-95 1h2v1h-2zm30 0h5v1h-5zm24 0h2v1h-2zm41 0h36v1h-36zm-100 1h5v1h-5zm5 0h2v1h-2zm30 0h5v1h-5zm24 0h2v1h-2zm41 0h36v1h-36zm-99 1h4v1h-4zm4 0h2v12h-2zm30 0h7v1h-7zm7 0h1v1h-1zm17 0h2v1h-2zm41 0h36v1h-36zm-99 1h4v1h-4zm34 0h6v1h-6zm6 0h1v5h-1zm18 0h2v1h-2zm41 0h36v1h-36z"/><path d="M64 106h6v1h-6zm34 0h4v1h-4zm4 0h2v1h-2zm20 0h2v1h-2zm41 0h36v1h-36zm-99 1h7v1h-7zm7 0h1v3h-1zm26 0h1v4h-1zm1 0h4v1h-4zm4 0h2v1h-2zm20 0h2v1h-2zm41 0h36v1h-36zm-99 1h5v1h-5zm35 0h3v6h-3zm3 0h2v1h-2zm20 0h2v1h-2zm41 0h36v1h-36zm-99 1h5v1h-5zm38 0h2v1h-2zm20 0h2v1h-2zm41 0h36v1h-36zm-99 1h5v1h-5zm7 0h1v1h-1zm31 0h2v1h-2zm2 0h1v1h-1zm18 0h2v1h-2zm41 0h36v1h-36zm-98 1h4v1h-4zm7 0h1v2h-1z"/><path d="M97 111h4v1h-4zm6 0h1v3h-1zm19 0h2v1h-2zm41 0h36v1h-36zm-98 1h5v1h-5zm5 0h2v7h-2zm26 0h5v1h-5zm26 0h2v9h-2zm41 0h36v1h-36z"/><path d="M65 113h7v1h-7zm7 0h1v7h-1zm24 0h5v3h-5zm67 0h36v1h-36zm-98 1h1v1h-1z"/><path d="M95 114h6v1h-6zm6 0h2v1h-2zm2 0h1v1h-1zm21 0h1v1h-1zm1 0h1v2h-1zm38 0h36v1h-36zm-97 1h6v1h-6zm8 0h1v1h-1zm20 0h6v1h-6zm8 0h1v1h-1zm61 0h36v1h-36zm-97 1h9v1h-9zm9 0h1v5h-1zm18 0h1v11h-1zm1 0h6v1h-6zm6 0h2v1h-2zm2 0h1v1h-1zm16 0h5v1h-5zm7 0h1v5h-1zm38 0h36v1h-36zm-96 1h6v1h-6zm6 0h1v4h-1zm3 0h1v5h-1zm16 0h1v9h-1zm3 0h4v2h-4zm4 0h2v1h-2zm2 0h1v1h-1zm18 0h5v1h-5z"/><path d="M124 117h2v4h-2zm2 0h1v4h-1zm37 0h36v1h-36zm-96 1h8v1h-8zm10 0h1v4h-1zm1 0h1v4h-1zm12 0h1v5h-1zm1 0h7v3h-7zm10 0h1v1h-1z"/><path d="M119 118h6v1h-6zm8 0h8v1h-8zm8 0h1v5h-1zm28 0h36v1h-36zm-95 1h8v1h-8zm11 0h10v3H79zm10 0h1v3h-1zm9 0h2v1h-2zm2 0h1v1h-1zm19 0h7v1h-7zm44 0h36v1h-36zm-94 1h10v1H69zm30 0h1v1h-1zm20 0h1v1h-1zm8 0h6v1h-6zm6 0h2v1h-2zm30 0h36v1h-36zm-93 1h1v1h-1z"/><path d="M73 121h25v1H73zm25 0h1v1h-1zm22 0h13v1h-13zm13 0h2v2h-2zm30 0h36v1h-36zm-92 1h1v1h-1zm1 0h1v1h-1zm4 0h20v1H76zm20 0h1v1h-1zm25 0h1v1h-1zm6 0h3v2h-3zm3 0h1v2h-1zm33 0h36v1h-36zm-90 1h2v1h-2zm2 0h1v1h-1zm5 0h7v1h-7zm7 0h1v2h-1zm3 0h7v2h-7zm7 0h1v1h-1zm25 0h4v1h-4zm4 0h1v1h-1zm5 0h4v1h-4zm4 0h1v1h-1zm28 0h36v1h-36zm-87 1h6v1h-6zm6 0h1v1h-1z"/><path d="M86 124h3v1h-3zm3 0h6v1h-6zm8 0h1v9h-1zm29 0h4v1h-4zm4 0h1v1h-1zm33 0h36v1h-36zm-82 1h6v1h-6zm6 0h1v1h-1zm3 0h6v1h-6z"/><path d="M96 125h2v7h-2zm2 0h1v1h-1zm65 0h36v1h-36z"/><path d="M90 126h8v1h-8zm8 0h1v7h-1zm65 0h36v1h-36zm-72 1h6v1h-6zm8 0h1v1h-1zm64 0h36v1h-36zm-71 1h6v1h-6zm8 0h1v1h-1zm63 0h36v1h-36zm-71 1h6v1h-6zm8 0h1v1h-1zm63 0h36v70h-36z"/><path d="M93 130h6v1h-6zm6 0h2v2h-2zm2 0h1v1h-1zm61 0h37v69h-37zm-69 1h1v1h-1zm1 0h5v1h-5zm8 0h1v2h-1z"/><path d="M161 131h38v68h-38zm-67 1h6v1h-6zm6 0h2v1h-2z"/><path d="M160 132h39v67h-39zm-65 1h3v1h-3zm3 0h1v2h-1zm3 0h1v1h-1zm1 0h1v1h-1z"/><path d="M159 133h40v66h-40zm-64 1h1v1h-1zm4 0h1v1h-1zm1 0h1v1h-1z"/><path d="M158 134h41v65h-41zm-62 1h2v1h-2zm2 0h1v1h-1z"/><path d="M157 135h42v64h-42zm-61 1h1v1h-1z"/><path d="M156 136h43v63h-43z"/><path d="M155 137h44v62h-44z"/><path d="M154 138h45v61h-45z"/><path d="M153 139h46v60h-46z"/><path d="M152 140h47v59h-47z"/><path d="M151 141h48v58h-48z"/><path d="M150 142h49v57h-49z"/><path d="M149 143h50v56h-50zm-112 1h1v55h-1z"/><path d="M148 144h51v55h-51z"/><path d="M147 145h52v54h-52z"/><path d="M146 146h53v53h-53zm-108 1h107v52H38z"/><path d="M145 147h54v52h-54zM0 199h199v1H0zm199 0h1v1h-1z"/></g><path d="M74 72h1v1h-1zM63 91h1v1h-1zm69 33h1v1h-1zm-44 1h1v1h-1z" fill="#ecfbec"/><path fill="#6bdc6d" d="M65 80h1v1h-1z"/><path d="M63 84h1v1h-1zm43 24h1v1h-1zm-42 8h1v1h-1zm26 0h1v1h-1zm27 3h1v1h-1zm-23 16h1v1h-1z" fill="#21cb23"/><path fill="#d3f4d3" d="M72 87h1v1h-1z"/><path d="M95 92h1v1h-1zm-22 13h1v1h-1zm53 7h1v1h-1z" fill="#35cf37"/><path d="M97 93h1v1h-1zm29 23h1v1h-1zm-57 5h1v1h-1z" fill="#d9f6d9"/><path fill="#84e286" d="M84 118h1v1h-1z"/><path fill="#c6f1c6" d="M71 96h1v1h-1z"/><path fill="#c3f1c3" d="M97 97h1v1h-1z"/><path d="M71 98h1v1h-1zm26 0h1v1h-1z" fill="#c0f0c0"/><path fill="#76df78" d="M93 115h1v1h-1z"/><path d="M55 56h1v1h-1zm105 0h1v1h-1zM54 57h1v1h-1zm-1 1h1v1h-1zm-3 3h1v1h-1zm-2 2h1v1h-1zm43 5h1v1h-1zm-26 8h1v1h-1zm38 1h1v1h-1zm-19 3h1v1h-1zm1 0h1v1h-1zm26 2h1v1h-1zm25 0h1v1h-1zm-42 9h1v1h-1zm16 2h1v1h-1zm27 0h1v1h-1zm-43 12h1v1h-1zm-34 1h1v1h-1zm1 2h1v1h-1zm14 2h1v1h-1zm61 5h1v1h-1zm-56 1h1v1h-1zm59 6h1v1h-1zm-70 2h1v1h-1zm8 3h1v1h-1zm80 4h1v1h-1zm-2 2h1v1h-1zm-50 1h1v1h-1zm48 1h1v1h-1zm-52 2h1v1h-1zm50 0h1v1h-1zm-2 2h1v1h-1zm-2 2h1v1h-1zm-2 2h1v1h-1z" fill="#3dd23f"/><path d="M117 75h1v1h-1zm19 11h1v1h-1z" fill="#c6f2c7"/><path d="M72 91h1v1h-1zm17 26h1v1h-1z" fill="#41d242"/><path d="M63 92h1v1h-1zm31 41h1v1h-1z" fill="#f8fef8"/><path fill="#83e285" d="M132 117h1v1h-1z"/><path fill="#bbefbc" d="M88 118h1v1h-1z"/><path fill="#15c817" d="M76 115h1v1h-1z"/><path fill="#6fde71" d="M83 126h1v1h-1z"/><path fill="#5bd85c" d="M152 138h1v1h-1z"/><path d="M82 69h1v1h-1zm1 0h4v1h-4zm4 0h1v1h-1zM64 81h1v1h-1zm-1 2h1v1h-1zm32 26h1v1h-1zm-21 3h1v1h-1zm20 0h1v1h-1zm-29 6h1v1h-1zm56 6h1v1h-1zm-28 10h1v1h-1z" fill="#20cb22"/><path d="M75 71h1v1h-1zM62 94h1v1h-1z" fill="#73de75"/><path d="M103 78h1v1h-1zm-2 49h1v1h-1z" fill="#1fcb22"/><path d="M97 96h1v1h-1zm20 14h1v1h-1z" fill="#c9f2c9"/><path fill="#5bd95d" d="M118 120h1v1h-1z"/><path d="M103 131h1v1h-1zm45 11h1v1h-1z" fill="#56d858"/><path fill="#11c813" d="M116 93h1v1h-1z"/><path d="M106 94h1v1h-1zm21 31h1v1h-1z" fill="#75df77"/><path d="M73 104h1v1h-1zm27 20h1v1h-1z" fill="#37d03a"/><path d="M73 111h1v1h-1zm83 23h1v1h-1zm-2 2h1v1h-1z" fill="#5dd95e"/><path d="M106 98h1v1h-1zm-34 10h1v1h-1z" fill="#90e591"/><path d="M125 124h1v1h-1zm-36 1h1v1h-1z" fill="#eefbee"/><path d="M56 53h1v1h-1zm40 20h1v1h-1zm-17 3h1v1h-1zm10 0h1v1h-1zm30 0h1v7h-1zm-43 2h1v1h-1zm24 0h1v1h-1zm2 5h1v1h-1zm17 0h1v1h-1zm-17 1h1v1h-1zm12 1h1v1h-1zm14 0h5v1h-5zm5 0h1v1h-1zm-20 3h1v2h-1zm0 2h1v1h-1zm-8 1h1v1h-1zm14 2h1v20h-1zm-55 2h1v6h-1zm0 6h1v1h-1zm34 7h1v1h-1zm6 3h1v1h-1zm-2 2h1v1h-1zm17 0h1v1h-1zm-45 9h1v1h-1zm49 0h1v1h-1zm-47 1h1v1h-1zm55 1h1v1h-1zm-32 4h1v1h-1zm-3 6h1v1h-1zm49 12h1v1h-1z" fill="#fcfefc"/><path fill="#82e284" d="M53 56h1v1h-1z"/><path d="M117 74h1v1h-1zm-20 28h1v1h-1z" fill="#d1f4d2"/><path fill="#cdf3ce" d="M125 82h1v1h-1z"/><path fill="#13c715" d="M76 81h1v1h-1z"/><path fill="#f3fcf4" d="M95 83h1v1h-1z"/><path fill="#4dd64f" d="M72 106h1v1h-1z"/><path d="M138 122h1v1h-1zm17 12h1v1h-1z" fill="#33cf36"/><path d="M47 62h1v1h-1zm33 8h1v1h-1z" fill="#8ae48b"/><path d="M79 69h1v1h-1zm37 5h1v1h-1zm-51 4h1v1h-1zm9 7h1v1h-1zm36 0h1v1h-1zm-4 1h1v1h-1zM72 97h1v2h-1zm0 2h1v1h-1zm44 14h1v1h-1zm-52 2h1v1h-1zm40 0h1v1h-1zm-30 10h1v1h-1z" fill="#26cc28"/><path d="M90 70h1v1h-1zm-28 34h1v1h-1zm88 36h1v1h-1z" fill="#57d859"/><path d="M79 79h1v1h-1zm28 18h1v2h-1zm0 2h1v1h-1z" fill="#23cb26"/><path fill="#1eca21" d="M78 116h1v1h-1z"/><path fill="#77df78" d="M136 117h1v1h-1z"/><path d="M92 71h1v1h-1zm13 37h1v1h-1z" fill="#b6eeb7"/><path fill="#86e288" d="M71 73h1v1h-1z"/><path d="M117 83h1v1h-1zm19 4h1v1h-1z" fill="#c4f1c5"/><path fill="#7ae07b" d="M106 102h1v1h-1z"/><path d="M79 118h1v1h-1zm12 10h1v1h-1z" fill="#f9fdf9"/><path fill="#aeecaf" d="M100 120h1v1h-1z"/><path fill="#47d449" d="M98 123h1v1h-1z"/><path fill="#3ad13b" d="M93 133h1v1h-1z"/><path d="M70 74h1v1h-1zm41 13h1v1h-1z" fill="#bff0c0"/><path d="M104 84h1v1h-1zm-7 11h1v1h-1z" fill="#cef4cf"/><path fill="#65db67" d="M72 107h1v1h-1z"/><path fill="#88e38a" d="M92 116h1v1h-1z"/><path d="M105 89h1v1h-1zm-41 23h1v1h-1z" fill="#caf3cb"/><path fill="#caf3ca" d="M136 91h1v1h-1z"/><path fill="#3cd23f" d="M72 105h1v1h-1z"/><path fill="#e6f9e7" d="M150 141h1v1h-1z"/><path d="M51 58h1v1h-1zm66 57h1v1h-1z" fill="#85e387"/><path d="M78 68h1v1h-1zm5 0h2v1h-2zm2 0h1v1h-1zm5 0h1v1h-1zm-14 1h1v1h-1zm18 0h1v1h-1zm-22 1h1v1h-1zm24 0h1v1h-1zm21 1h1v1h-1zm8 0h1v1h-1zm-45 9h1v1h-1zm3 0h1v1h-1zm-21 2h1v2h-1zm50 0h1v1h-1zm1 0h2v1h-2zm2 0h1v1h-1zm12 0h8v1h-8zm8 0h1v1h-1zm-73 2h1v1h-1zm13 0h1v2h-1zm18 0h1v1h-1zm14 1h1v1h-1zm-32 1h1v1h-1zm32 2h1v1h-1zm-13 2h1v1h-1zm-34 1h2v1h-2zm2 0h1v1h-1zm-2 1h1v1h-1zm0 1h1v1h-1zm51 1h1v1h-1zm25 0h1v1h-1zm-76 9h1v2h-1zm0 2h1v1h-1zm48 0h1v1h-1zm-34 1h1v1h-1zm20 0h2v1h-2zm2 0h1v1h-1zm-2 1h1v2h-1zm13 1h1v1h-1zm-13 1h1v1h-1zm-33 2h1v1h-1zm46 0h1v1h-1zm-15 2h1v1h-1zm-30 1h1v1h-1zm66 0h1v1h-1zm-49 1h1v1h-1zm9 1h1v1h-1zm49 0h1v1h-1zm-22 1h1v1h-1zm1 2h1v1h-1zm-51 1h1v1h-1zm37 1h1v1h-1zm15 0h1v1h-1zm-16 1h1v1h-1zm16 0h1v1h-1zm22 1h1v1h-1zm-19 2h1v1h-1zm1 0h1v1h-1zm-46 2h1v1h-1zm27 0h1v1h-1zm23 0h1v1h-1zm1 0h1v1h-1zm5 0h1v1h-1zm1 0h1v1h-1zm-52 1h1v1h-1zm80 0h1v1h-1zm-1 1h1v1h-1zm-1 1h1v1h-1zm-67 2h1v1h-1zm65 0h1v1h-1zm-65 1h1v1h-1zm63 1h1v1h-1zm-51 2h1v1h-1zm49 0h1v1h-1zm-2 2h1v1h-1zm-54 1h1v1h-1zm52 1h1v1h-1zm-2 2h1v1h-1z" fill="#3ed240"/><path fill="#25cc26" d="M88 79h1v1h-1z"/><path d="M102 79h1v1h-1zm34 42h1v1h-1z" fill="#dcf7dc"/><path d="M78 115h1v1h-1zm12 0h1v1h-1zm11 10h1v1h-1zm2 3h1v1h-1zm1 2h1v1h-1z" fill="#42d344"/><path d="M90 71h1v1h-1zm33 4h1v1h-1zm-40 2h1v1h-1zm-18 5h1v1h-1zm51 3h1v1h-1zm18 2h1v1h-1zm-38 24h1v1h-1zm38 8h1v1h-1zm-36 1h1v1h-1z" fill="#fbfefb"/><path fill="#30cf32" d="M102 76h1v1h-1z"/><path d="M74 83h1v1h-1zm52 1h1v1h-1z" fill="#4bd54d"/><path d="M95 112h1v1h-1zm-14 6h1v1h-1z" fill="#9be89c"/><path fill="#d9f6da" d="M71 93h1v1h-1z"/><path d="M162 57h1v68h-1zm0 68h1v1h-1z" fill="#aaebab"/><path d="M79 78h1v1h-1zm-5 46h1v1h-1zm60 0h1v1h-1z" fill="#d0f4d1"/><path d="M74 82h1v1h-1zm37 6h1v2h-1zm0 2h1v1h-1zm-40 9h1v1h-1z" fill="#c0f0c1"/><path d="M95 88h1v1h-1zm11 21h1v1h-1zm-2 7h1v1h-1zm-38 3h1v1h-1zm35 1h1v1h-1zm-11 9h1v1h-1z" fill="#1fca21"/><path fill="#bbefbb" d="M119 121h1v1h-1z"/><path fill="#23cb24" d="M70 73h1v1h-1z"/><path fill="#50d652" d="M116 92h1v1h-1z"/><path d="M130 94h3v1h-3zm3 0h1v1h-1zm-11 32h1v1h-1z" fill="#40d241"/><path fill="#13c815" d="M92 115h1v1h-1z"/><path d="M112 93h1v1h-1zm23 0h1v1h-1zm-30 21h1v1h-1zm30 11h1v1h-1zm-53 2h1v1h-1z" fill="#25cc28"/><path fill="#c4f1c4" d="M71 100h1v1h-1z"/><path fill="#d2f4d2" d="M63 107h1v1h-1z"/><path d="M63 115h1v1h-1zm74 9h1v1h-1z" fill="#3ad03c"/><path d="M46 63h1v1h-1zm54 72h1v1h-1z" fill="#86e388"/><path d="M125 75h1v1h-1zm-59 4h1v1h-1z" fill="#caf2cb"/><path d="M95 84h1v1h-1zm-5 43h1v1h-1z" fill="#b5eeb5"/><path fill="#54d655" d="M126 92h1v1h-1z"/><path fill="#5fda61" d="M89 126h1v1h-1z"/><path d="M73 88h1v1h-1zm0 1h1v1h-1zm-12 7h1v1h-1zm0 4h1v1h-1zm1 9h1v1h-1zm54 6h1v1h-1zm-25 1h1v1h-1zm-8 1h2v1h-2zm2 0h1v1h-1zm-14 7h1v1h-1zm33 7h1v1h-1z" fill="#23cb25"/><path d="M126 93h1v1h-1zm-33 21h1v1h-1z" fill="#16c818"/><path fill="#85e286" d="M106 101h1v1h-1z"/><path fill="#96e797" d="M64 113h1v1h-1z"/><path fill="#c5f2c6" d="M136 90h1v1h-1z"/><path d="M97 92h1v1h-1zm28 20h1v1h-1z" fill="#def7df"/><path d="M106 96h1v1h-1zm-44 4h1v1h-1z" fill="#89e38b"/><path d="M101 135h1v1h-1zm48 5h1v1h-1z" fill="#32cf35"/><path d="M76 70h1v1h-1zm43 2h4v1h-4zm4 0h1v1h-1zm-42 7h1v1h-1zm23 2h1v1h-1zm-42 5h1v1h-1zm-1 15h1v1h-1zm12 6h1v1h-1zm43 9h1v1h-1zm-33 11h2v1h-2zm2 0h1v1h-1z" fill="#24cc26"/><path d="M117 72h1v1h-1zm8 0h1v1h-1zm-26 1h1v1h-1zm-17 6h1v1h-1zm4 0h1v1h-1zM73 90h1v1h-1zm-1 5h1v1h-1zm-10 12h1v1h-1zm1 7h1v1h-1zm40 3h1v1h-1zm-4 7h1v1h-1zm35 1h1v1h-1z" fill="#2acd2c"/><path d="M93 82h1v1h-1zm23 1h1v1h-1z" fill="#18c91a"/><path d="M72 90h1v1h-1zm23 46h1v1h-1zm56 3h1v1h-1z" fill="#53d755"/><path fill="#56d757" d="M153 137h1v1h-1z"/><path fill="#4fd650" d="M111 84h1v1h-1z"/><path d="M106 87h1v1h-1zm0 1h1v1h-1z" fill="#1fca22"/><path d="M105 90h1v1h-1zm56 40h1v1h-1z" fill="#eafaeb"/><path fill="#ebfbec" d="M97 106h1v1h-1z"/><path d="M56 55h1v1h-1zm104 0h1v1h-1zM66 76h1v1h-1zm29 10h1v1h-1zm0 7h1v1h-1zm-23 11h1v1h-1zm1 6h1v1h-1zm-5 11h1v1h-1zm51 1h1v1h-1zm-50 1h1v1h-1zm55 3h1v1h-1zm9 0h1v1h-1zm28 1h1v1h-1z" fill="#36d038"/><path d="M79 68h3v1h-3zm3 0h1v1h-1zm4 0h3v1h-3zm3 0h1v1h-1zm-15 3h1v1h-1zm44 0h6v1h-6zm6 0h1v1h-1zm-55 1h1v1h-1zm34 4h1v1h-1zm-21 4h1v1h-1zm4 0h2v1h-2zm2 0h1v1h-1zm2 1h1v1h-1zm16 1h1v1h-1zm-14 1h1v1h-1zm15 3h1v1h-1zm0 1h1v1h-1zm-46 1h1v1h-1zm13 0h1v2h-1zm20 0h1v1h-1zm0 1h1v1h-1zm-20 1h1v1h-1zm34 1h1v1h-1zm0 1h1v1h-1zm-48 2h1v8h-1zm55 0h1v1h-1zm12 0h2v1h-2zm2 0h1v1h-1zm5 0h1v1h-1zm-74 8h1v1h-1zm48 2h1v1h-1zm-1 5h1v1h-1zm0 1h1v1h-1zm-32 1h1v1h-1zm18 0h1v1h-1zm-18 1h1v1h-1zm-13 1h1v1h-1zm44 0h1v1h-1zm-29 1h1v1h-1zm38 0h1v1h-1zm-34 2h6v1h-6zm6 0h1v1h-1zm29 4h1v1h-1zm16 5h1v1h-1zm-30 1h1v1h-1zm-26 1h1v1h-1zm51 0h3v1h-3zm3 0h1v1h-1zm-49 1h1v1h-1zm6 0h1v1h-1zm3 0h1v1h-1zm16 5h1v1h-1zm-4 3h1v1h-1z" fill="#3fd241"/><path d="M38 75h1v68h-1zm25 35h1v1h-1zm-25 33h1v1h-1z" fill="#73de74"/><path fill="#79df7b" d="M93 81h1v1h-1z"/><path fill="#4fd651" d="M136 84h1v1h-1z"/><path d="M96 94h1v1h-1zm11 11h1v1h-1zm-40 15h1v1h-1z" fill="#2bcd2e"/><path fill="#87e388" d="M85 118h1v1h-1z"/><path fill="#f8fdf9" d="M136 123h1v1h-1z"/><path d="M56 54h1v1h-1zm71 38h6v1h-6zm6 0h1v1h-1z" fill="#60da62"/><path fill="#92e694" d="M87 70h1v1h-1z"/><path d="M95 71h1v1h-1zm2 1h1v1h-1zm-31 5h1v1h-1zm52 44h1v1h-1zm-48 2h1v1h-1z" fill="#1dca1f"/><path d="M105 82h1v1h-1zM72 96h1v1h-1zm58 30h1v1h-1zm-43 1h1v1h-1z" fill="#28cc2a"/><path fill="#4ed54f" d="M80 126h1v1h-1z"/><path d="M96 90h1v1h-1zm-1 21h1v1h-1zm-16 6h1v1h-1z" fill="#48d44a"/><path fill="#afecaf" d="M96 109h1v1h-1z"/><path d="M73 112h1v1h-1zm-3 10h1v1h-1z" fill="#b4eeb5"/><path fill="#e1f8e2" d="M120 122h1v1h-1z"/><path d="M57 53h104v1H57zm104 0h1v1h-1zM88 76h1v1h-1zm-20 2h1v1h-1zm24 0h1v1h-1zm-21 6h1v1h-1zm-7 10h1v1h-1zm40 2h1v5h-1zm0 5h1v1h-1zm-33 5h1v1h-1zm-1 2h1v2h-1zm0 2h1v1h-1zm-6 1h1v1h-1zm9 2h1v2h-1zm0 2h1v1h-1zm46 0h1v1h-1zm5 0h1v1h-1zm-24 3h1v1h-1zm27 1h1v1h-1zm1 0h1v1h-1zm5 0h1v1h-1zm-13 1h1v1h-1zm-48 1h1v1h-1zm50 1h1v1h-1zm-45 1h1v1h-1zm3 2h1v1h-1z" fill="#fdfffd"/><path d="M54 55h1v1h-1zm8 40h1v1h-1zm74 29h1v1h-1zm-8 1h1v1h-1z" fill="#80e181"/><path fill="#75de76" d="M38 73h1v1h-1z"/><path fill="#4dd54f" d="M90 79h1v1h-1z"/><path fill="#aaebaa" d="M162 127h1v1h-1z"/><path d="M96 107h1v1h-1zm-15 19h1v1h-1z" fill="#5cd95d"/><path fill="#1ecb21" d="M89 127h1v1h-1z"/><path fill="#95e696" d="M96 88h1v1h-1z"/><path fill="#cdf4ce" d="M65 115h1v1h-1z"/><path fill="#b3edb3" d="M118 119h1v1h-1z"/><path d="M57 54h1v1h-1zm60 62h1v1h-1z" fill="#68dc69"/><path d="M73 71h1v1h-1zm55 45h1v1h-1z" fill="#1cca1f"/><path d="M76 71h1v1h-1zm23 50h1v1h-1z" fill="#acecad"/><path d="M116 76h1v5h-1zm0 5h1v1h-1zm0 15h1v13h-1zm0 13h1v1h-1z" fill="#27cd2a"/><path d="M161 55h1v1h-1zM67 75h1v1h-1zm36 4h1v1h-1zm-40 3h1v1h-1zm51 1h1v1h-1zm-7 8h1v1h-1zm-46 1h1v1h-1zm66 24h1v1h-1zm-38 12h1v1h-1z" fill="#2ece30"/><path d="M100 123h1v1h-1zm-60 22h1v1h-1zm103 0h1v1h-1z" fill="#44d346"/><path fill="#daf6db" d="M133 124h1v1h-1z"/><path d="M38 74h1v1h-1zm63 54h1v1h-1z" fill="#72de74"/><path d="M125 83h1v1h-1zm-62 6h1v1h-1z" fill="#c9f2ca"/><path fill="#5cd95e" d="M95 85h1v1h-1z"/><path fill="#80e182" d="M73 124h1v1h-1z"/><path fill="#e9fae9" d="M157 134h1v1h-1z"/><path fill="#a5eaa6" d="M95 72h1v1h-1z"/><path d="M115 85h1v1h-1zm11 0h1v1h-1zm1 0h1v1h-1zm-14 2h1v1h-1z" fill="#fbfefc"/><path fill="#63da65" d="M62 93h1v1h-1z"/><path fill="#a1e9a3" d="M94 114h1v1h-1z"/><path fill="#92e593" d="M81 70h1v1h-1z"/><path d="M77 71h1v1h-1zm-5 52h1v1h-1z" fill="#dff7df"/><path d="M93 71h1v1h-1zm-1 9h1v1h-1z" fill="#7be07c"/></svg>