<svg xmlns="http://www.w3.org/2000/svg" role="img" viewBox="-4.67 -4.67 243.10 225.10"><title>The Mifos Initiative logo</title><path d="M5 178h1v1H5zm21 0h1v1h-1zm108 0h1v1h-1zm59 0h1v1h-1zm-50 1h1v1h-1zm8 0h1v1h-1zm0 1h1v1h-1zm-123 1h1v1h-1zm-24 2h2v1H4zm2 0h1v1H6zm3 2h1v1H9zm20 1h1v1h-1zm31 0h1v1h-1zm9 0h1v1h-1zm45 0h1v1h-1zm-32 1h1v1h-1zm111 0h1v16h-1zm20 1h1v1h-1zm-133 1h1v1h-1zm37 0h1v1h-1zm10 0h1v1h-1zm-71 1h1v1h-1zm22 0h1v1h-1zm121 0h1v1h-1zm-169 1h1v1h-1zm86 1h1v1h-1zm86 0h1v1h-1zM4 193h1v1H4zm68 0h1v1h-1zm138 2h1v1h-1zm-179 1h1v1h-1zm24 1h1v1h-1zm152 0h1v1h-1zm-128 3h1v1h-1zm153 0h1v1h-1zm-163 1h1v1h-1zm-69 1h2v1H0zm2 0h1v1H2zm65 0h1v2h-1zm-49 1h1v1h-1zm175 0h1v1h-1zm36 0h1v1h-1zm-162 1h1v1h-1zm18 0h1v1h-1zm80 0h1v1h-1z" fill="#c2c2c3"/><path d="M108 1h1v1h-1zm33 0h1v1h-1zM93 5h1v1h-1zm43 2h1v1h-1zm23 3h1v1h-1zm-29 1h1v1h-1zm27 2h1v1h-1zm19 2h1v1h-1zm4 3h1v1h-1zm-61 1h1v1h-1zm34 1h1v1h-1zm44 16h1v1h-1zm2 3h1v1h-1zm-48 25h1v1h-1zM40 65h1v1h-1zm115 0h1v1h-1zM44 67h1v1h-1zm159 0h1v1h-1zM62 91h1v1h-1zm-21 4h1v1h-1zm16 9h1v1h-1zm-5 15h1v1h-1zm88 9h1v1h-1zm33 0h3v1h-3zm3 0h1v1h-1zm4 0h2v1h-2zm2 0h1v1h-1zm3 5h1v1h-1zm-43 5h1v1h-1zm6 15h1v1h-1z" fill="#cfe9d0"/><g fill="#22b24c"><path d="M161 9h1v56h-1zm1 0h1v55h-1z"/><path d="M160 10h5v54h-5zm5 0h1v54h-1zm1 1h1v54h-1zm1 1h1v54h-1zm1 0h1v53h-1z"/><path d="M159 13h10v51h-10zm10 0h1v52h-1zm1 1h1v51h-1zm1 0h1v51h-1z"/><path d="M158 15h16v48h-16zm16 0h1v50h-1z"/><path d="M157 16h17v47h-17zm18 1h2v48h-2zm2 0h1v48h-1z"/><path d="M156 18h21v45h-21zm22 1h1v46h-1z"/><path d="M155 20h25v43h-25zm25 0h1v46h-1zm1 1h1v45h-1z"/><path d="M154 22h28v41h-28zm28 0h1v44h-1zm1 1h1v43h-1zm1 0h1v43h-1z"/><path d="M153 24h32v39h-32zm32 0h1v42h-1z"/><path d="M152 26h34v37h-34zm34 0h1v40h-1zm1 1h1v39h-1zm1 0h1v39h-1z"/><path d="M151 28h37v35h-37zm38 1h1v37h-1z"/><path d="M150 30h40v33h-40zm40 0h1v36h-1zm1 1h1v35h-1z"/><path d="M149 32h43v30h-43zm43 0h1v34h-1zm1 1h1v32h-1z"/><path d="M148 34h45v27h-45zm46 1h1v30h-1zm1 0h1v30h-1z"/><path d="M147 38h49v23h-49zm49 0h1v27h-1zm1 1h1v26h-1zm1 1h1v25h-1z"/><path d="M146 41h52v20h-52z"/><path d="M145 42h54v1h-54zm54 0h1v23h-1zm1 2h1v21h-1z"/><path d="M145 45h55v15h-55zm56 1h1v19h-1zm1 1h1v18h-1z"/><path d="M144 48h58v12h-58zm59 3h1v14h-1z"/><path d="M143 52h60v8h-60zm61 1h1v12h-1zm1 1h1v11h-1z"/><path d="M142 57h63v3h-63zm64 2h1v6h-1zm-64 1h64v1h-64zm4 1h60v1h-60zm3 1h57v1h-57z"/><path d="M150 63h57v1h-57zm57 0h1v2h-1zm-50 1h50v1h-50zm4 1h1v1h-1zm5 0h41v1h-41zm41 0h1v1h-1zM42 66h1v28h-1zm125 0h1v1h-1zm12 0h13v1h-13zm13 0h1v1h-1zM43 69h1v27h-1zm1 0h1v30h-1zm1 1h1v32h-1z"/><path d="M41 71h3v14h-3zm5 1h1v33h-1zm1 2h1v33h-1zm1 2h1v33h-1zm1 1h1v35h-1zm1 1h1v35h-1zm1 1h1v37h-1zm1 2h1v34h-1zm1 1h1v29h-1zm1 1h1v25h-1zm1 0h1v22h-1zm1 1h1v20h-1z"/><path d="M41 85h15v1H41zm16 1h1v13h-1zm1 1h1v9h-1zm1 0h1v7h-1zm1 1h1v4h-1z"/><path d="M41 89h19v1H41zm19 3h1v1h-1zm-18 2h17v1H42zm17 0h1v1h-1zm-16 2h15v1H43zm15 0h1v1h-1zm-14 3h13v2H44zm13 0h1v1h-1zm-13 2h12v1H44zm1 1h11v1H45zm11 2h1v1h-1zm-10 1h9v2h-9zm9 0h1v1h-1zm-9 2h8v1h-8zm8 1h1v2h-1zm-6 1h5v1h-5zm6 1h1v1h-1zm-1 1h1v2h-1zm-4 1h3v1h-3zm1 1h3v1h-3zm3 0h1v1h-1zm-1 2h1v1h-1zm-1 1h1v1h-1z"/></g><path d="M147 14h1v1h-1zm-14 6h1v1h-1zm11 0h1v1h-1zm-14 2h1v1h-1zm-18 14h1v1h-1zm-1 1h1v1h-1zm-1 1h1v1h-1zm-9 12h1v1h-1zm15 0h1v1h-1zm17 0h1v1h-1zm-28 3h1v1h-1zm18 1h1v1h-1zm4 2h1v1h-1zm-16 1h1v1h-1zm5 3h1v1h-1zm2 1h1v1h-1zm-32 4h1v1h-1zm-4 6h1v1h-1zm-1 2h1v1h-1zm48 1h1v1h-1zm-53 8h1v1h-1zm52 7h1v2h-1zm0 2h1v1h-1zm-46 2h1v1h-1zm46 2h1v2h-1zm80 0h1v1h-1zM71 96h1v1h-1zm57 1h1v1h-1zm-53 2h1v1h-1zm-7 2h1v1h-1zm13 2h1v1h-1zm-14 1h1v1h-1zm33 0h1v1h-1zm-14 2h1v1h-1zm-21 4h1v1h-1zm55 2h1v1h-1zm7 2h1v1h-1zm-20 2h1v1h-1zm-44 1h1v1h-1zm94 2h1v1h-1zm1 0h1v1h-1zm24 0h1v1h-1zm1 0h1v1h-1zm-61 2h1v1h-1zm7 2h1v1h-1zm-68 1h1v1h-1zm70 5h1v1h-1zm-61 9h1v1h-1zm1 1h1v1h-1zm62 0h1v1h-1zm-59 2h1v1h-1zm3 2h1v1h-1zm58 5h1v1h-1zm-44 2h1v1h-1zm9 3h1v1h-1zm4 1h1v1h-1zm16 2h1v1h-1zm9 0h1v1h-1z" fill="#d8e9f4"/><path d="M145 15h1v1h-1zm-1 1h1v1h-1zm-8 4h1v1h-1zm-3 2h1v1h-1zm-3 2h1v1h-1zm-12 9h1v1h-1zm18 1h1v1h-1zm-1 3h1v1h-1zm-23 1h1v1h-1zm-2 2h1v1h-1zm-1 1h1v2h-1zm7 7h1v1h-1zm15 2h1v1h-1zm-33 2h1v1h-1zm25 0h1v1h-1zm-21 1h1v1h-1zm23 0h1v1h-1zm-29 2h1v1h-1zm-1 1h1v1h-1zm12 0h1v1h-1zm5 3h1v1h-1zm-20 1h1v1h-1zm20 0h1v1h-1zm-21 1h1v1h-1zm23 0h1v1h-1zm5 2h1v1h-1zm-31 1h1v1h-1zm1 0h1v1h-1zm31 0h1v1h-1zm-32 1h1v1h-1zm36 1h1v1h-1zm-37 1h1v1h-1zm39 0h1v1h-1zm1 6h1v1h-1zm0 1h1v1h-1zm-46 1h1v1h-1zm1 0h1v1h-1zm-3 5h1v1h-1zm48 1h1v5h-1zm-49 1h1v1h-1zm-1 1h1v1h-1zm49 2h1v16h-1zm1 1h1v1h-1zm-46 4h1v1h-1zm1 1h1v1h-1zm2 1h1v1h-1zm0 1h1v1h-1zm1 0h1v1h-1zm3 2h1v1h-1zm2 1h1v1h-1zm0 1h1v1h-1zm1 0h1v1h-1zm0 1h1v1h-1zm-20 1h1v1h-1zm1 0h1v1h-1zm23 0h1v1h-1zm0 1h1v1h-1zm-25 1h1v1h-1zm28 0h1v1h-1zm28 0h1v1h-1zm1 0h1v4h-1zm-27 1h1v1h-1zm1 1h1v1h-1zm3 1h1v1h-1zm3 1h1v1h-1zm20 0h1v1h-1zm-18 1h1v1h-1zm-25 1h1v1h-1zm2 1h1v1h-1zm28 0h1v1h-1zm3 1h1v1h-1zm1 0h1v1h-1zm-51 1h1v1h-1zm0 1h1v1h-1zm56 0h1v1h-1zm-57 2h1v1h-1zm0 1h1v1h-1zm34 1h1v1h-1zm2 1h1v1h-1zm2 1h1v1h-1zm3 1h1v1h-1zm3 1h1v1h-1zm-46 1h1v1h-1zm52 1h1v1h-1zm-53 1h1v1h-1zm56 0h1v1h-1zm2 1h1v1h-1zm1 0h2v1h-2zm2 0h1v1h-1zm2 1h1v1h-1zm-64 2h1v2h-1zm0 2h1v1h-1zm6 6h1v1h-1zm62 0h1v2h-1zm-61 1h1v1h-1zm1 1h1v1h-1zm60 0h1v1h-1zm-58 2h1v1h-1zm4 2h1v1h-1zm55 0h1v1h-1zm-55 1h1v1h-1zm7 3h1v1h-1zm49 0h1v1h-1zm1 3h1v1h-1zm-42 1h1v1h-1zm42 0h1v1h-1zm1 0h1v1h-1zm-37 2h1v1h-1zm3 1h1v1h-1zm1 0h1v1h-1zm3 1h1v1h-1zm1 0h1v1h-1zm30 1h1v1h-1zm-19 1h4v1h-4zm4 0h1v1h-1zm10 0h3v1h-3zm3 0h1v1h-1zm-14 1h1v1h-1zm11 0h1v1h-1z" fill="#0072bb"/><path d="M48 175h1v1h-1zm-42 1h1v1H6zm21 1h1v1h-1zm156 3h1v5h-1zm1 0h1v5h-1zM6 181h2v1H6zm2 0h1v1H8zm16 3h1v1h-1zm5 0h1v1h-1zm-24 1h1v1H5zm178 0h1v1h-1zm1 0h1v1h-1zm-134 1h2v1h-2zm2 0h1v1h-1zm72 0h1v1h-1zm11 0h1v1h-1zm7 0h1v1h-1zm3 0h2v1h-2zm2 0h1v1h-1zm34 0h1v1h-1zm1 0h1v1h-1zm3 0h2v1h-2zm2 0h1v1h-1zm11 0h1v1h-1zm15 0h1v1h-1zm14 0h1v1h-1zm-146 1h1v1h-1zm62 0h1v1h-1zm9 0h1v16h-1zm1 0h1v15h-1zm68 0h1v1h-1zm6 0h1v1h-1zm-197 1h1v1h-1zm28 0h1v1h-1zm13 0h1v1h-1zm9 0h1v1h-1zm36 0h1v1h-1zm45 0h1v1h-1zm23 0h1v15h-1zm34 0h1v1h-1zM4 189h1v1H4zm179 0h1v14h-1zM3 190h1v1H3zm54 1h1v1h-1zm16 0h1v1h-1zm53 0h1v1h-1zm0 1h1v1h-1zm34 0h1v1h-1zm72 0h1v1h-1zm-201 1h1v1h-1zm1 1h1v1h-1zm143 1h1v1h-1zm-155 2h1v1h-1zm139 0h1v1h-1zm-102 1h1v1h-1zm15 0h1v2h-1zm144 0h1v1h-1zm1 0h1v2h-1zM2 200h1v1H2zm15 0h1v1h-1zm55 0h1v1h-1zm133 0h1v1h-1zm12 0h1v1h-1zm-158 2h1v1h-1zm94 0h1v1h-1zm11 0h1v1h-1zm-124 1h1v1h-1zm25 0h1v1h-1zm17 0h1v1h-1zm4 0h1v1h-1zm40 0h1v1h-1zm26 0h1v1h-1zm16 0h1v1h-1zm3 0h1v1h-1zm12 0h1v1h-1zm1 0h1v1h-1zm41 0h1v1h-1z" fill="#797a7b"/><path d="M7 174h1v1H7zm40 0h1v1h-1zm3 0h1v1h-1zm58 0h1v1h-1zm-79 1h1v1h-1zm-24 1h1v1H5zm149 2h1v1h-1zM9 179h1v1H9zm21 0h1v1h-1zm-5 1h1v1h-1zm157 0h1v4h-1zM6 184h1v1H6zm5 0h1v1h-1zm171 0h1v1h-1zm-143 1h1v1h-1zm1 0h1v1h-1zm6 0h1v1h-1zm100 0h1v1h-1zm6 0h1v1h-1zm1 0h1v1h-1zm11 0h1v1h-1zm11 0h1v1h-1zm6 0h1v1h-1zm4 0h1v1h-1zm1 0h1v1h-1zm35 0h1v1h-1zm6 0h1v1h-1zm-111 1h1v1h-1zm32 0h1v1h-1zm6 0h1v1h-1zm43 0h1v1h-1zm-156 1h1v16h-1zm13 0h1v1h-1zm157 0h1v1h-1zm-201 1h1v1h-1zm19 0h1v1h-1zm49 0h1v1h-1zm10 0h1v1h-1zm36 0h1v1h-1zm40 0h1v1h-1zm18 1h1v14h-1zm28 0h1v1h-1zm-48 1h1v1h-1zM2 191h1v1H2zm123 1h1v11h-1zm-40 1h1v1h-1zm89 0h1v1h-1zm-141 1h1v1h-1zm-32 1h1v1H1zm200 0h1v1h-1zm-185 1h1v1h-1zm69 0h1v1h-1zm73 0h1v1h-1zm16 0h1v1h-1zm-13 1h1v1h-1zm54 0h1v1h-1zm-201 1h1v1h-1zm41 0h1v1h-1zm3 0h1v1h-1zm147 0h1v1h-1zm-32 1h1v1h-1zm30 1h1v1h-1zm-188 1h1v1h-1zm17 1h1v1h-1zm142 0h1v1h-1zm52 0h1v1h-1zm-210 1h1v1h-1zm25 0h1v1h-1zm84 0h1v1h-1zm37 0h1v1h-1zm20 0h1v1h-1zm-133 1h1v1h-1zm37 0h1v1h-1zm20 0h1v1h-1zm8 0h1v1h-1zm20 0h1v1h-1zm37 0h1v1h-1zm57 0h1v1h-1z" fill="#e7e7e7"/><path d="M28 175h1v1h-1zm-22 2h1v1H6zm23 3h1v1h-1zm-24 1h1v1H5zm20 3h1v1h-1zm5 0h1v1h-1zm16 2h1v1h-1zm1 0h2v1h-2zm2 0h1v1h-1zm18 0h1v1h-1zm14 0h1v1h-1zm4 0h1v1h-1zm30 0h1v1h-1zm4 0h1v1h-1zm51 0h1v1h-1zm22 0h1v1h-1zm-169 1h1v2h-1zm1 0h1v1h-1zm37 0h1v1h-1zm63 0h1v1h-1zm51 0h1v1h-1zm37 0h1v1h-1zm17 0h1v1h-1zm-112 1h1v1h-1zm8 0h1v1h-1zm-102 1h1v1h-1zm138 1h1v1h-1zm-148 1h1v2h-1zm43 0h1v1h-1zm16 0h1v1h-1zm145 0h1v1h-1zm-204 2h1v1h-1zm162 0h1v1h-1zm26 0h1v1h-1zm-116 1h1v1h-1zm2 1h1v1h-1zm-85 1h1v1H2zm173 0h1v1h-1zm-119 2h1v1h-1zm17 0h1v1h-1zm-55 1h1v2h-1zm15 0h1v1h-1zm-32 1h1v1H1zm57 0h1v1h-1zm160 0h1v1h-1zm-200 1h1v1h-1zm41 0h1v1h-1zm11 0h1v1h-1zm18 0h1v1h-1zm73 0h1v1h-1zm14 0h1v2h-1zm44 0h1v1h-1zm-151 1h2v1h-2zm2 0h1v1h-1zm135 0h1v1h-1zm14 0h1v1h-1zm-186 1h1v1h-1zm30 0h1v1h-1zm21 0h1v1h-1zm69 0h1v1h-1zm13 0h1v1h-1zm9 0h1v1h-1zm48 0h1v1h-1z" fill="#6f7172"/><path d="M113 0h1v1h-1zm23 0h1v1h-1zm-30 1h1v1h-1zm37 0h1v1h-1zM95 4h1v1h-1zm67 3h1v1h-1zM85 8h1v1h-1zm81 1h1v1h-1zm-37 3h1v1h-1zm44 1h1v1h-1zm-92 3h1v1h-1zm41 1h1v1h-1zm-38 3h1v1h-1zm34 0h1v1h-1zm68 3h1v1h-1zm-98 2h1v1h-1zm101 1h1v1h-1zm-40 2h1v1h-1zm-42 1h1v1h-1zm-1 1h1v1h-1zm-10 4h1v1h-1zm108 14h1v1h-1zm3 8h1v1h-1zm-65 6h1v1h-1zm4 1h1v1h-1zM40 64h1v1h-1zm114 1h1v1h-1zm6 1h1v1h-1zm44 1h1v1h-1zM49 74h1v1h-1zm-10 1h1v5h-1zm14 4h1v1h-1zm-14 1h1v1h-1zm4 22h1v1h-1zm15 0h1v1h-1zm-12 7h1v1h-1zm9 2h1v1h-1zm-4 7h2v1h-2zm2 0h1v1h-1zm92 8h1v1h-1zm-5 3h1v1h-1zm1 5h1v1h-1zm1 5h1v1h-1zm33 2h1v1h-1zm-3 2h1v1h-1zm-29 1h1v1h-1zm1 4h1v1h-1zm14 2h1v1h-1z" fill="#e2f2e3"/><path d="M116 0h1v1h-1zm17 0h1v1h-1zM79 12h1v1h-1zm92 0h1v1h-1zm-44 1h1v1h-1zm-47 1h1v1h-1zm44 1h1v1h-1zm-39 6h1v1h-1zm25 5h1v1h-1zm-1 1h1v1h-1zm-18 1h1v1h-1zm102 3h1v1h-1zm15 30h1v1h-1zM41 63h1v1h-1zm115 2h1v1h-1zM51 77h1v1h-1zM40 89h1v1h-1zm102 37h1v1h-1zm10 1h1v1h-1zm15 1h2v1h-2zm2 0h1v1h-1zm16 0h1v1h-1zm1 0h1v1h-1zm-45 4h1v1h-1zm39 5h1v1h-1zm-4 3h1v1h-1zm-3 2h1v1h-1zm-7 4h1v1h-1zm-22 1h1v1h-1zm20 0h1v1h-1zm-18 6h1v1h-1zm1 0h1v1h-1z" fill="#b9e0bb"/><path d="M84 36h1v1h-1zm7 7h1v1h-1zm-4 5h1v1h-1zm-3 4h1v1h-1zm120 52h1v1h-1z" fill="#00a4e0"/><path d="M49 171h1v1h-1zm-43 2h1v1H6zm23 1h1v1h-1zm-21 2h1v1H8zm22 2h1v1h-1zm121 0h1v1h-1zm-126 1h1v1h-1zm157 0h1v1h-1zm-40 1h1v4h-1zm3 0h1v4h-1zm-118 2h1v1h-1zm4 1h1v1h-1zm-8 1h1v1h-1zm119 0h1v1h-1zm3 0h1v1h-1zm-100 1h1v1h-1zm69 0h1v1h-1zm22 0h1v1h-1zm35 0h1v1h-1zm22 0h1v1h-1zm4 0h1v1h-1zm17 0h1v2h-1zM6 186h1v1H6zm81 0h1v1h-1zm113 0h1v1h-1zm14 1h1v1h-1zm-201 1h1v1h-1zm48 0h1v1h-1zm12 1h1v1h-1zm69 0h1v14h-1zm3 0h1v14h-1zm68 0h1v1h-1zm20 2h1v1h-1zm-210 1h1v1h-1zm192 0h1v1h-1zm-54 1h1v1h-1zm42 0h1v1h-1zM1 194h1v1H1zm210 0h1v1h-1zM4 195h1v1H4zm200 0h1v1h-1zm-191 1h1v1h-1zm5 0h1v1h-1zm143 0h1v1h-1zm-127 1h1v1h-1zm52 0h1v1h-1zm-55 1h1v1h-1zm171 0h1v1h-1zm4 0h1v1h-1zM0 199h1v1H0zm162 0h1v1h-1zm-76 1h1v1h-1zm143 0h1v1h-1zm-58 1h1v1h-1zm37 0h1v1h-1zm24 0h1v1h-1zm-90 2h1v1h-1zm3 0h1v1h-1zm28 0h1v1h-1zM2 204h1v1H2zm16 0h1v1h-1zm29 0h1v1h-1zm22 0h1v1h-1zm39 0h1v1h-1zm8 0h1v1h-1zm38 0h1v1h-1zm9 0h1v1h-1zm28 0h1v1h-1z" fill="#f5f5f5"/><path d="M51 172h1v1h-1zm-11 7h1v1h-1zm95 0h1v1h-1zm18 0h1v1h-1zm39 0h1v1h-1zM8 180h1v1H8zm31 0h1v1h-1zm1 0h1v1h-1zm95 0h1v1h-1zm9 0h1v4h-1zm9 0h1v1h-1zM9 182h1v1H9zm16 1h1v1h-1zm119 1h1v1h-1zm-114 1h1v1h-1zm-6 1h1v1h-1zm39 0h1v1h-1zm19 0h1v1h-1zm38 0h1v1h-1zm46 0h1v1h-1zm3 0h1v1h-1zm-83 1h1v1h-1zm29 0h1v1h-1zm-104 1h1v1h-1zm133 0h1v14h-1zm18 0h1v1h-1zm11 0h1v1h-1zm26 0h1v1h-1zm-128 1h1v1h-1zm45 0h1v1h-1zm45 0h1v1h-1zm-149 1h1v1h-1zm10 0h1v1h-1zm9 0h1v1h-1zm26 0h1v1h-1zm15 0h1v1h-1zm145 0h1v1h-1zm-102 1h1v1h-1zm60 0h1v1h-1zm-95 1h1v1h-1zm121 0h1v1h-1zm-128 1h1v1h-1zm8 0h1v1h-1zm151 1h1v1h-1zm-146 1h1v1h-1zm116 0h1v1h-1zm-182 1h1v1h-1zm12 0h1v2h-1zm171 1h1v1h-1zm-184 1h1v1h-1zm13 0h1v1h-1zm176 0h1v1h-1zm-48 1h1v1h-1zm44 0h1v1h-1zm-43 1h1v1h-1zm13 0h1v1h-1zm57 0h1v1h-1zM1 201h1v1H1zm229 0h1v1h-1zm-144 1h1v1h-1zm58 0h1v1h-1zm19 0h1v1h-1zm9 0h1v1h-1zm48 0h1v1h-1zm-158 1h1v1h-1zm19 0h1v1h-1zm4 0h1v1h-1zm22 0h1v1h-1zm28 0h1v1h-1zm30 0h1v1h-1zm57 0h1v1h-1zm5 0h1v1h-1z" fill="#595b5c"/><path d="M115 0h1v1h-1zm19 0h1v1h-1zm-31 2h1v1h-1zm-4 1h1v1h-1zm43 0h1v1h-1zM96 4h1v1h-1zm43 1h1v1h-1zM88 7h1v1h-1zm-2 1h1v1h-1zm-2 1h1v1h-1zm49 0h1v1h-1zm-51 1h1v1h-1zm-2 1h1v1h-1zm43 5h1v1h-1zm-41 1h1v1h-1zm72 1h1v1h-1zm-39 4h1v1h-1zm37 0h1v1h-1zm-1 2h1v1h-1zm-62 2h1v1h-1zm61 0h1v1h-1zm44 6h1v1h-1zm-95 4h1v1h-1zm47 0h1v1h-1zm-2 6h1v1h-1zm61 9h1v1h-1zm1 3h1v1h-1zm1 3h1v1h-1zm-67 1h1v1h-1zm3 4h1v1h-1zm66 3h1v1h-1zM40 66h1v1h-1zm122 0h1v1h-1zm8 1h1v1h-1zm32 0h1v1h-1zM48 73h1v1h-1zm4 5h1v1h-1zM40 90h1v1h-1zm21 3h1v1h-1zm-19 5h1v1h-1zm1 3h1v1h-1zm15 0h1v1h-1zm-3 9h1v1h-1zm-1 4h1v1h-1zm-4 2h1v1h-1zm90 10h1v1h-1zm3 0h1v1h-1zm-3 1h1v1h-1zm13 0h1v1h-1zm17 1h2v1h-2zm2 0h1v1h-1zm11 0h1v1h-1zm1 0h1v1h-1zm5 1h1v1h-1zm-1 1h1v1h-1zm-1 1h1v1h-1zm-1 1h1v1h-1zm-45 1h1v1h-1zm2 10h1v1h-1zm25 2h1v1h-1zm-11 5h1v1h-1zm-12 1h1v1h-1zm6 1h1v1h-1z" fill="#c9e7cb"/><path d="M28 174h1v1h-1zm21 2h1v1h-1zm86 2h1v1h-1zm57 0h1v1h-1zm-151 1h1v1h-1zm-33 3h1v1H8zm-4 2h1v1H4zm45 1h1v1h-1zm150 1h1v1h-1zm-189 1h1v1h-1zm36 0h1v1h-1zm5 0h2v1h-2zm2 0h1v1h-1zm14 0h1v1h-1zm75 0h1v1h-1zm3 0h2v1h-2zm2 0h1v1h-1zm39 0h1v1h-1zm1 0h1v1h-1zm-118 1h1v1h-1zm131 0h1v1h-1zm-40 1h1v1h-1zm-137 1h1v1h-1zm7 0h1v1h-1zm188 0h1v1h-1zm-59 1h1v1h-1zm-127 1h1v1h-1zm25 0h1v1h-1zm22 0h1v1h-1zm138 0h1v1h-1zm-8 1h1v1h-1zm-135 1h1v1h-1zm-59 1h1v1h-1zm6 0h1v1h-1zm53 0h1v1h-1zm143 0h1v2h-1zm-184 2h1v1h-1zm184 0h1v1h-1zm14 4h1v1h-1zM0 203h1v1H0zm60 0h1v1h-1zm9 0h1v1h-1zm65 0h1v1h-1zm29 0h1v1h-1zm-100 1h1v1h-1zm3 0h1v1h-1zm100 0h1v1h-1z" fill="#a0a1a2"/><path d="M162 8h1v1h-1zm4 2h1v1h-1zm2 1h1v1h-1zm3 2h1v1h-1zm-16 5h1v1h-1zm25 1h1v1h-1zm-26 1h1v1h-1zm27 0h1v1h-1zm-29 4h1v1h-1zm35 1h1v1h-1zm-36 1h1v1h-1zm-1 2h1v1h-1zm42 3h1v1h-1zm-45 5h1v1h-1zm52 5h1v1h-1zm2 3h1v1h-1zm-58 5h1v1h-1zm62 4h1v1h-1zm1 4h1v1h-1zm-65 1h1v1h-1zm0 1h1v1h-1zm66 1h1v1h-1zm-64 1h1v1h-1zm13 3h1v1h-1zM41 65h1v1h-1zm0 1h1v1h-1zm165 0h1v1h-1zM47 73h1v1h-1zm-7 1h1v7h-1zm8 0h1v1h-1zm2 3h1v1h-1zm1 1h1v1h-1zm1 1h1v1h-1zm-12 2h1v1h-1zm18 5h1v1h-1zm-17 4h1v1h-1zm19 3h1v1h-1zm-18 2h1v1h-1zm17 1h1v1h-1zm-16 3h1v1h-1zm14 2h1v1h-1zm-12 3h1v1h-1zm11 1h1v1h-1zm-9 4h1v1h-1zm6 5h1v1h-1z" fill="#23b551"/><path d="M146 11h1v1h-1zm-6 4h1v1h-1zm6 1h1v1h-1zm-82 6h1v1h-1zm10 0h1v1h-1zm69 0h1v1h-1zm-1 2h1v1h-1zm-82 2h1v1h-1zm17 0h1v1h-1zm63 3h1v1h-1zm-86 4h1v1h-1zm-2 3h1v1h-1zm85 1h1v1h-1zm-1 3h1v1h-1zm-30 3h1v1h-1zm-59 1h1v1h-1zm-1 2h1v1h-1zm88 0h1v1h-1zm-1 5h1v1h-1zm-37 1h1v1h-1zm-1 1h1v1h-1zm26 0h1v1h-1zm-38 2h1v1h-1zm25 0h1v1h-1zm21 2h1v1h-1zm-38 1h1v1h-1zm29 4h1v1h-1zm2 1h1v1h-1zm2 1h1v1h-1zm-48 1h1v1h-1zm-18 6h1v1h-1zm85 0h1v1h-1zm-5 1h1v1h-1zm9 0h1v1h-1zm-76 1h1v1h-1zm58 2h1v1h-1zm79 0h1v1h-1zm-37 1h1v1h-1zm28 0h1v1h-1zM78 78h1v1h-1zm-11 2h1v1h-1zm8 4h1v1h-1zm62 2h1v1h-1zm0 1h1v1h-1zm-58 4h1v1h-1zm49 1h1v2h-1zm0 2h1v1h-1zm-58 2h1v1h-1zm138 0h1v1h-1zm-71 1h1v1h-1zm-68 1h1v1h-1zm20 0h1v1h-1zm48 0h1v1h-1zm-46 1h1v1h-1zm-13 2h1v1h-1zm24 4h1v1h-1zm-36 2h1v1h-1zm22 0h1v1h-1zm23 2h1v1h-1zm91 2h1v1h-1zm-83 1h1v1h-1zm10 0h1v2h-1zm-65 1h1v1h-1zm36 0h1v1h-1zm23 0h1v1h-1zm15 0h1v1h-1zm-9 1h1v1h-1zm-19 3h1v1h-1zm3 1h1v1h-1zm33 0h1v1h-1zm49 0h1v1h-1zm-41 1h1v1h-1zm1 0h1v1h-1zm31 0h1v1h-1zm1 0h1v1h-1zm-125 1h1v1h-1zm57 0h1v1h-1zm7 2h1v1h-1zm-66 7h1v1h-1zm72 5h1v1h-1zm-65 2h1v1h-1zm67 8h1v1h-1zm-50 3h1v1h-1zm13 5h1v1h-1zm12 3h1v1h-1zm10 1h1v1h-1zm11 0h1v1h-1z" fill="#e6f1f8"/><path d="M143 21h1v1h-1zm-5 12h1v1h-1zm-29 6h1v1h-1zm25 6h1v1h-1zm-16 6h1v1h-1zm-15 1h1v1h-1zm28 5h1v1h-1zM80 75h1v1h-1zm48 10h1v1h-1zm-47 7h1v1h-1zm-12 7h1v1h-1zm59 2h1v1h-1zm-31 1h1v1h-1zm-31 6h1v1h-1zm25 1h1v1h-1zm21 0h1v1h-1zm-17 2h1v1h-1zm-33 10h1v1h-1zm66 2h1v1h-1zm-67 7h1v1h-1zm71 5h1v1h-1zm-51 10h1v1h-1zm54 4h1v1h-1zm-37 3h1v1h-1z" fill="#add1e8"/><path d="M39 179h1v1h-1zm-9 7h1v1h-1zm34 0h1v1h-1zm1 0h1v1h-1zm18 0h1v1h-1zm1 0h1v1h-1zm37 0h1v1h-1zm1 0h1v1h-1zm45 0h1v1h-1zm1 0h1v1h-1zm55 0h2v1h-2zm2 0h1v1h-1zM4 187h1v1H4zm188 0h1v16h-1zm-113 2h1v1h-1zm47 0h1v1h-1zm-47 1h1v1h-1zm121 0h1v1h-1zm-127 2h1v1h-1zm42 0h1v11h-1zm-42 5h1v1h-1zm-40 4h1v1h-1zm45 0h1v1h-1zm-18 1h1v1h-1zm55 1h1v1h-1zm29 0h1v1h-1zm26 0h1v1h-1zm22 0h1v1h-1z" fill="#535556"/><path d="M117 0h1v1h-1zm15 0h1v1h-1zm-23 1h1v1h-1zm31 0h1v1h-1zM91 6h1v1h-1zm43 2h1v1h-1zM83 18h1v1h-1zm37 0h1v1h-1zm-34 4h1v1h-1zm4 5h1v1h-1zm10 8h1v1h-1zm65 93h1v1h-1zm1 0h1v1h-1zm21 0h1v1h-1zm-45 9h1v1h-1zm1 5h1v1h-1zm16 7h1v1h-1zm-5 2h1v1h-1z" fill="#b3deb5"/><path d="M118 0h1v1h-1zm13 0h1v1h-1zm-27 2h1v1h-1zm-4 1h1v1h-1zm40 1h1v1h-1zM94 5h1v1h-1zm69 3h1v1h-1zm-35 4h1v1h-1zm-12 9h1v1h-1zm-5 4h1v1h-1zm-19 4h1v1h-1zm11 3h1v1h-1zm-1 1h1v1h-1zm-1 1h1v1h-1zm97 4h1v1h-1zm-55 8h1v1h-1zm60 1h1v1h-1zm-59 15h1v1h-1zm-99 7h1v1h-1zm15 18h1v1h-1zm-20 1h1v1h-1zm14 25h1v1h-1zm87 13h1v1h-1zm10 1h1v1h-1zm12 1h1v1h-1zm1 0h1v1h-1zm24 0h1v1h-1zm-47 3h1v1h-1zm40 5h1v1h-1zm-10 7h1v1h-1zm-27 3h1v1h-1zm1 4h1v1h-1zm11 0h1v1h-1z" fill="#aadaac"/><path d="M113 1h1v1h-1zm5 0h2v1h-2zm2 0h1v1h-1zm9 0h2v1h-2zm2 0h1v1h-1zm5 0h1v1h-1zm-26 1h1v1h-1zm1 0h1v1h-1zm27 0h1v2h-1zm1 0h2v1h-2zm2 0h1v1h-1zm-37 1h2v1h-2zm2 0h1v1h-1zm34 0h1v1h-1zM98 4h3v1h-3zm3 0h1v1h-1zm37 0h1v1h-1zM97 5h1v1h-1zm-3 1h1v1h-1zm1 0h1v1h-1zm40 0h1v1h-1zM92 7h1v1h-1zm42 0h1v1h-1zM89 8h1v1h-1zm-3 1h1v1h-1zm1 0h1v1h-1zm44 0h1v1h-1zm-2 1h1v1h-1zm1 0h1v1h-1zm-47 1h1v1h-1zm45 0h1v1h-1zm-47 1h1v2h-1zm0 2h1v1h-1zm43 0h1v1h-1zm-42 1h1v1h-1zm1 1h1v1h-1zm0 1h1v1h-1zm37 0h1v1h-1zm-36 1h1v1h-1zm34 0h1v1h-1zm-33 1h1v1h-1zm32 0h1v1h-1zm-31 2h1v1h-1zm1 1h1v1h-1zm26 0h1v1h-1zm-25 1h1v1h-1zm1 1h1v1h-1zm18 3h1v1h-1zm1 0h1v1h-1zm-2 1h1v1h-1zm-12 2h1v1h-1zm7 3h1v1h-1zm-3 1h1v1h-1zm1 1h1v1h-1zm42 92h1v1h-1zm1 0h1v1h-1zm5 1h3v1h-3zm3 0h1v1h-1zm8 1h5v1h-5zm5 0h1v1h-1zm13 0h3v1h-3zm3 0h1v1h-1zm-37 1h1v1h-1zm0 1h1v1h-1zm42 1h1v1h-1zm-2 2h1v1h-1zm-40 1h1v1h-1zm39 0h1v1h-1zm-38 1h1v1h-1zm35 1h1v1h-1zm1 0h1v1h-1zm-2 1h1v1h-1zm-1 1h1v1h-1zm-32 1h1v1h-1zm0 1h1v1h-1zm28 0h1v1h-1zm1 0h1v1h-1zm-2 1h1v1h-1zm-26 2h1v3h-1zm22 0h1v1h-1zm-2 1h1v1h-1zm1 0h1v1h-1zm-3 1h1v1h-1zm1 0h1v1h-1zm-19 1h1v1h-1zm16 0h1v1h-1zm-3 1h2v1h-2zm2 0h1v1h-1zm-14 1h1v1h-1zm7 1h1v1h-1zm-3 1h1v1h-1zm-4 1h1v1h-1zm1 0h1v1h-1z" fill="#73c377"/><path d="M160 9h1v1h-1zm7 1h1v1h-1zm-9 2h1v1h-1zm16 2h1v1h-1zm-19 3h1v1h-1zm27 3h1v1h-1zm-32 7h1v1h-1zm46 8h1v1h-1zm-50 2h1v1h-1zm56 8h1v1h-1zm-61 10h1v1h-1zm66 3h1v1h-1zm-67 2h1v1h-1zm1 1h1v1h-1zm11 3h1v1h-1zM43 66h1v1h-1zm121 0h1v1h-1zm9 1h1v1h-1zm25 0h1v1h-1zm1 0h1v1h-1zM40 68h1v1h-1zm7 4h1v1h-1zm3 4h1v1h-1zm7 8h1v1h-1zm1 1h1v1h-1zm1 1h1v1h-1zm2 2h1v1h-1zm1 1h1v1h-1zm0 1h1v1h-1zm-21 3h1v1h-1zm17 7h1v1h-1zm-11 10h1v1h-1zm2 4h1v1h-1z" fill="#97d8a8"/><path d="M50 172h1v1h-1zm3 0h1v1h-1zm-4 1h1v1h-1zm58 2h1v1h-1zm-79 2h1v1h-1zm-21 1h1v1H7zm21 0h1v1h-1zm-22 1h1v1H6zm146 0h1v1h-1zm0 1h1v1h-1zm40 0h1v1h-1zm-166 1h1v1h-1zm3 0h1v2h-1zm-24 1h1v1H5zm4 1h1v1H9zm20 0h1v1h-1zm-19 1h1v1h-1zm134 1h1v2h-1zm-21 1h1v1h-1zm103 0h1v1h-1zm-166 1h1v1h-1zm9 0h1v1h-1zm11 0h1v1h-1zm45 0h1v1h-1zm19 0h1v1h-1zm19 0h1v1h-1zm57 0h1v1h-1zm8 0h1v1h-1zM4 188h1v1H4zm55 0h1v1h-1zm11 0h1v1h-1zm45 0h1v2h-1zm97 0h1v1h-1zm7 0h1v1h-1zm-45 1h1v1h-1zm44 0h1v1h-1zm12 0h1v1h-1zm-115 1h1v1h-1zm11 0h1v1h-1zm34 0h1v1h-1zm14 0h1v1h-1zm1 0h1v1h-1zm36 0h1v1h-1zm20 0h1v1h-1zm-200 1h1v1h-1zm48 0h1v1h-1zm81 0h1v1h-1zm50 1h1v1h-1zm6 0h1v2h-1zm-160 1h1v3h-1zm27 1h1v1h-1zm126 0h1v1h-1zm7 0h1v3h-1zm-7 1h1v1h-1zm-153 1h1v1h-1zm17 0h1v1h-1zm14 0h1v1h-1zm-85 1h1v2H2zm13 0h1v1h-1zm73 0h1v1h-1zm87 0h1v3h-1zm33 0h1v1h-1zm8 0h1v1h-1zm-12 1h1v1h-1zM2 199h1v1H2zm14 0h1v1h-1zm41 0h1v1h-1zm150 0h1v1h-1zm-174 1h1v1h-1zm38 0h1v1h-1zm7 0h1v1h-1zm10 0h1v1h-1zm87 0h1v1h-1zm-158 1h1v1h-1zm145 0h1v1h-1zm43 0h1v1h-1zm1 0h1v1h-1zm-189 1h1v1h-1zm62 0h1v1h-1zm150 0h1v1h-1zM1 203h1v1H1zm220 0h1v1h-1z" fill="#5f6162"/><path d="M71 18h1v1h-1zm2 3h1v1h-1zm3 4h1v1h-1zm-20 6h1v1h-1zm-1 1h1v1h-1zm-6 9h1v1h-1zm42 4h1v1h-1zm-1 1h1v1h-1zm-45 3h1v1h-1zm40 3h1v1h-1zm-38 4h1v1h-1zm35 0h1v1h-1zm-33 3h1v1h-1zm30 1h1v1h-1zm-27 3h1v1h-1zm3 4h1v1h-1zm17 4h1v1h-1zm70 0h1v1h-1zm-82 2h1v1h-1zm1 1h1v1h-1zm77 0h1v1h-1zm22 1h1v1h-1zm8 1h1v1h-1zm1 0h1v1h-1zm33 0h1v1h-1zM68 78h1v1h-1zm142 5h1v1h-1zm-1 7h1v1h-1zm-6 19h1v1h-1zm-65 2h1v1h-1zm10 7h1v1h-1zm45 0h1v1h-1zm-34 1h1v1h-1zm1 0h1v1h-1zm20 0h1v1h-1zm1 0h1v1h-1z" fill="#c5e7f6"/><path d="M69 19h1v1h-1zm-1 1h1v1h-1zm4 1h1v1h-1zm3 4h1v1h-1zm4 5h1v1h-1zm-26 6h1v1h-1zm33 2h1v1h-1zm-35 1h1v1h-1zm38 2h1v1h-1zm2 3h1v1h-1zm-1 1h1v1h-1zm-43 1h1v1h-1zm42 0h1v1h-1zm-44 5h1v1h-1zm3 5h1v1h-1zm31 3h1v1h-1zm-1 1h1v1h-1zm-26 2h1v1h-1zm25 0h1v1h-1zm-22 4h1v1h-1zm1 1h1v1h-1zm17 1h1v1h-1zm-2 3h1v1h-1zm69 0h1v1h-1zm-80 1h1v1h-1zm83 0h1v1h-1zm3 1h1v1h-1zm-84 1h1v1h-1zm89 0h1v1h-1zm-88 1h1v1h-1zm98 1h1v1h-1zm48 0h1v1h-1zm-41 1h3v1h-3zm3 0h1v1h-1zm28 0h4v1h-4zm4 0h1v1h-1zm-65 4h1v1h-1zm71 2h1v1h-1zm0 1h1v1h-1zm-1 8h1v1h-1zm-2 7h1v1h-1zm-68 3h1v1h-1zm0 1h1v1h-1zm66 2h1v1h-1zm-1 2h1v1h-1zm-1 2h1v1h-1zm-2 4h1v1h-1zm-61 1h1v1h-1zm8 3h1v1h-1zm1 0h1v1h-1zm45 0h1v1h-1zm1 0h1v1h-1zm-38 1h2v1h-2zm2 0h1v1h-1zm25 0h2v1h-2zm2 0h1v1h-1z" fill="#3ab4e5"/><path d="M119 0h1v1h-1zm11 0h1v1h-1zm13 2h1v1h-1zM97 4h1v1h-1zm34 6h1v1h-1zm-6 4h1v1h-1zm-4 3h1v1h-1zm-34 6h1v1h-1zm6 7h1v1h-1zm2 2h1v1h-1zm55 95h1v1h-1zm11 1h1v1h-1zm1 0h1v1h-1zm27 0h1v1h-1zm-12 11h1v1h-1zm-34 2h1v1h-1zm31 0h1v1h-1zm-24 11h1v1h-1z" fill="#9ad39d"/><path d="M147 11h1v1h-1zm-6 4h1v1h-1zm-6 4h1v1h-1zm7 4h1v1h-1zm-14 1h1v1h-1zm13 1h1v1h-1zm-17 2h1v1h-1zm13 8h1v1h-1zm-5 17h1v1h-1zm-8 2h1v1h-1zm-36 9h1v1h-1zm35 1h1v1h-1zm-39 5h1v1h-1zm44 10h1v1h-1zM80 91h1v1h-1zm12 8h1v1h-1zm-23 1h1v1h-1zm59 7h1v1h-1zm-63 5h1v1h-1zm36 2h1v1h-1zm16 6h1v1h-1zm3 1h1v1h-1zm10 5h1v1h-1zm1 6h1v1h-1zm-63 4h1v1h-1zm64 1h1v1h-1zm2 9h1v1h-1zm-44 3h1v1h-1zm17 5h1v1h-1z" fill="#7fb2d8"/><path d="M144 13h1v1h-1zm2 2h1v1h-1zm-8 2h1v1h-1zm7 0h1v1h-1zm-25 13h1v1h-1zm16 8h1v1h-1zm-1 3h1v1h-1zm-27 3h1v1h-1zm12 8h1v1h-1zm2 1h1v1h-1zm-28 2h1v1h-1zm13 0h1v1h-1zm23 2h1v1h-1zm-40 3h1v1h-1zm27 1h1v1h-1zm2 1h1v1h-1zm6 3h1v1h-1zm4 5h1v1h-1zm-47 2h1v1h-1zm46 8h1v1h-1zm-51 1h1v1h-1zm51 0h1v1h-1zm-52 2h1v1h-1zm0 5h1v1h-1zm11 8h1v1h-1zm-17 1h1v1h-1zm20 1h1v1h-1zm9 5h1v1h-1zm4 2h1v1h-1zm25 0h1v1h-1zm0 1h1v1h-1zm-41 1h1v1h-1zm-23 8h1v1h-1zm42 1h1v1h-1zm5 2h1v1h-1zm3 1h1v1h-1zm-52 3h1v1h-1zm71 19h1v1h-1zm2 9h1v1h-1zm-40 1h1v1h-1zm17 4h1v1h-1zm24 0h1v1h-1z" fill="#85b6db"/><path d="M146 13h1v1h-1zm-2 1h1v1h-1zm0 3h1v1h-1zm-6 1h1v1h-1zm-6 4h1v1h-1zm-4 3h1v1h-1zm-9 7h1v1h-1zm18 1h1v1h-1zm-23 3h1v1h-1zm-4 3h1v1h-1zm-3 3h1v1h-1zm4 3h1v1h-1zm22 0h1v1h-1zm-18 3h1v1h-1zm-16 2h1v1h-1zm23 2h1v1h-1zm-26 2h1v1h-1zm8 0h1v1h-1zm24 1h1v1h-1zm2 1h1v1h-1zm-21 1h1v1h-1zm-17 2h1v1h-1zm-3 4h1v1h-1zm32 1h1v1h-1zm2 1h1v1h-1zm-37 2h1v1h-1zm-4 7h1v1h-1zm-4 7h1v1h-1zm3 10h1v1h-1zm4 3h1v1h-1zm7 4h1v1h-1zm-19 1h1v1h-1zm24 2h1v1h-1zm-17 3h1v1h-1zm23 0h1v1h-1zm-35 1h1v1h-1zm37 0h1v1h-1zm-21 1h1v1h-1zm26 1h1v1h-1zm2 1h1v1h-1zm-21 2h1v1h-1zm30 1h1v1h-1zm-22 3h1v1h-1zm-35 3h1v1h-1zm42 0h1v1h-1zm1 0h1v1h-1zm-43 1h1v1h-1zm45 0h1v1h-1zm8 3h1v1h-1zm1 0h1v1h-1zm2 1h1v1h-1zm8 2h1v1h-1zm1 0h1v2h-1zm0 2h1v1h-1zm1 3h1v2h-1zm0 2h1v1h-1zm2 10h1v1h-1zm-54 1h1v1h-1zm3 2h1v1h-1zm52 1h1v1h-1zm0 1h1v1h-1zm-46 1h1v1h-1zm8 3h1v1h-1zm15 4h2v1h-2zm2 0h1v1h-1zm23 0h1v1h-1z" fill="#006cb8"/><path d="M70 18h1v1h-1zm3 4h1v1h-1zm-11 3h1v1h-1zm18 6h1v1h-1zm1 1h1v1h-1zM46 48h1v1h-1zm39 3h1v1h-1zm-3 4h1v1h-1zm-7 10h1v1h-1zm72 8h1v1h-1zm-78 2h1v1h-1zm87 0h1v1h-1zm6 1h1v1h-1zm46 0h1v1h-1zm-36 1h1v1h-1zm1 0h1v1h-1zm23 0h2v1h-2zm2 0h1v1h-1zm-60 3h1v1h-1zm71 5h1v1h-1zm-2 11h1v1h-1zm-69 8h1v1h-1zm1 11h1v1h-1zm60 0h1v1h-1zm-53 2h1v1h-1zm49 0h1v1h-1zm-41 1h1v1h-1zm1 0h1v1h-1zm31 0h1v1h-1zm1 0h1v1h-1z" fill="#54bbe7"/><path d="M48 174h1v1h-1zm-42 1h1v1H6zm1 1h1v1H7zm1 3h1v1H8zm21 0h1v1h-1zm162 0h1v1h-1zm-55 1h1v1h-1zm55 0h1v1h-1zM9 181h1v1H9zm-5 4h1v1H4zm139 0h1v1h-1zm-132 1h1v1h-1zm42 0h1v1h-1zm8 0h1v1h-1zm103 0h1v1h-1zm11 0h1v1h-1zm46 0h1v1h-1zm-182 1h1v16h-1zm1 0h1v15h-1zm9 0h1v1h-1zm21 0h1v1h-1zm15 0h1v1h-1zm32 0h1v1h-1zm45 0h1v1h-1zm51 0h1v1h-1zm6 0h1v1h-1zm-188 1h1v1h-1zm56 0h1v1h-1zm96 0h1v1h-1zm-172 1h1v1h-1zm46 0h1v1h-1zm154 0h1v1h-1zM4 190h1v1H4zm8 1h1v1h-1zm68 0h1v1h-1zm136 0h1v1h-1zm-135 1h1v1h-1zm78 0h1v1h-1zm-127 1h1v1h-1zm94 0h1v9h-1zm76 0h1v1h-1zm-182 1h1v1h-1zm155 0h1v1h-1zM2 195h1v1H2zm83 0h1v1h-1zm-70 1h1v1h-1zm73 0h1v1h-1zm114 0h1v1h-1zm6 0h1v1h-1zm1 0h1v1h-1zm-49 1h1v1h-1zm-144 1h1v1h-1zm17 0h1v1h-1zm-32 1h1v1H1zm18 0h1v1h-1zm13 0h1v1h-1zm199 0h1v1h-1zm-27 1h1v1h-1zm26 0h1v1h-1zm-214 1h1v1h-1zm63 0h1v1h-1zm95 0h1v1h-1zm-140 1h1v1h-1zm6 0h1v1h-1zm21 0h1v1h-1zm65 0h1v1h-1zm36 0h1v1h-1zm-123 1h1v1h-1zm25 0h1v1h-1zm19 0h1v1h-1zm84 0h1v1h-1zm39 0h1v1h-1zm14 0h1v1h-1zm4 0h1v1h-1zm4 0h1v1h-1z" fill="#808283"/><path d="M111 0h1v1h-1zm1 0h1v1h-1zm25 0h1v1h-1zm-32 1h1v1h-1zm-3 1h1v1h-1zm42 0h1v1h-1zM98 3h1v1h-1zm43 1h1v1h-1zM92 5h1v1h-1zm-2 1h1v1h-1zm48 0h1v1h-1zm-3 2h1v1h-1zm25 0h1v1h-1zM83 9h1v1h-1zm49 1h1v1h-1zm36 0h1v1h-1zm-10 1h1v1h-1zm12 0h1v1h-1zm-44 3h1v1h-1zm30 0h1v1h-1zm-1 2h1v1h-1zm24 1h1v1h-1zm-96 2h1v1h-1zm102 3h1v1h-1zm-99 1h1v1h-1zm1 1h1v1h-1zm26 0h1v1h-1zm75 1h1v1h-1zm2 2h1v1h-1zm1 1h1v1h-1zm-98 3h1v1h-1zm12 0h1v1h-1zm-11 1h1v1h-1zm1 1h1v1h-1zm100 0h1v1h-1zm-98 2h1v1h-1zm49 0h1v1h-1zm-48 1h1v1h-1zm103 6h1v1h-1zm-58 2h1v1h-1zm-1 4h1v1h-1zm-2 9h1v1h-1zm68 2h1v1h-1zm-58 5h1v1h-1zm59 0h1v1h-1zm-50 2h1v1h-1zm9 1h1v1h-1zm37 0h1v1h-1zM45 68h1v1h-1zm-6 3h1v3h-1zm8 0h1v1h-1zm-8 3h1v1h-1zm15 6h1v1h-1zm-15 1h1v4h-1zm16 0h1v1h-1zm-16 4h1v1h-1zm21 11h1v1h-1zm-1 3h1v1h-1zm-15 6h1v1h-1zm1 2h1v1h-1zm3 6h1v1h-1zm1 2h1v1h-1zm97 11h1v1h-1zm9 1h1v1h-1zm28 8h1v1h-1zm-1 1h1v1h-1zm-4 3h1v1h-1zm-36 1h1v1h-1zm23 7h1v1h-1zm-20 5h1v1h-1zm7 0h1v1h-1zm-3 1h1v1h-1z" fill="#edf7ee"/><path d="M163 9h1v1h-1zm4 2h1v1h-1zm-8 1h1v1h-1zm10 0h1v1h-1zm1 1h1v1h-1zm-12 1h1v1h-1zm14 0h1v1h-1zm1 0h1v1h-1zm-16 1h1v1h-1zm18 1h1v1h-1zm-19 1h1v1h-1zm22 1h1v1h-1zm-23 1h1v1h-1zm24 0h1v1h-1zm-25 2h1v1h-1zm28 0h1v1h-1zm-29 1h1v1h-1zm30 0h1v1h-1zm-30 1h1v1h-1zm-1 2h1v1h-1zm34 0h1v1h-1zm1 1h1v1h-1zm-36 1h1v1h-1zm38 1h1v1h-1zm-39 1h1v1h-1zm40 0h1v1h-1zm1 1h1v1h-1zm-42 1h1v1h-1zm44 1h1v1h-1zm1 2h1v1h-1zm-47 3h1v1h-1zm49 0h1v1h-1zm1 1h1v1h-1zm-51 1h1v1h-1zm52 0h1v1h-1zm-52 1h1v1h-1zm-1 3h1v1h-1zm55 0h1v1h-1zm-55 1h1v1h-1zm56 1h1v1h-1zm-57 1h1v1h-1zm0 1h1v1h-1zm59 2h1v1h-1zm-60 1h1v1h-1zm60 0h1v1h-1zm-60 1h1v1h-1zm61 0h1v1h-1zm0 1h1v1h-1zm-62 1h1v3h-1zm0 3h1v1h-1zm64 2h1v1h-1zm-65 2h1v1h-1zm3 1h1v1h-1zm1 0h1v1h-1zm62 0h1v1h-1zm-61 1h2v1h-2zm2 0h1v1h-1zm59 0h1v1h-1zm1 2h1v1h-1zm-46 1h3v1h-3zm3 0h1v1h-1zm43 0h1v1h-1zm-40 1h10v1h-10zm10 0h1v1h-1zm15 0h12v1h-12zm12 0h1v1h-1zM41 67h1v3h-1zm2 1h1v1h-1zm-2 2h1v1h-1zm7 5h1v1h-1zm1 1h1v1h-1zm3 4h1v1h-1zm1 1h1v1h-1zm1 1h1v1h-1zm3 3h1v1h-1zm-16 1h1v2h-1zm0 2h1v1h-1zm20 1h1v1h-1zm0 1h1v1h-1zm-2 5h1v1h-1zm-16 2h1v1h-1zm15 0h1v1h-1zm-15 1h1v1h-1zm15 0h1v1h-1zm-1 2h1v1h-1zm-12 3h1v1h-1zm10 3h1v1h-1zm0 1h1v1h-1zm-8 1h1v1h-1zm1 2h1v1h-1zm2 4h1v1h-1zm2 2h1v1h-1zm0 1h1v1h-1z" fill="#09ae41"/><path d="M146 12h1v1h-1zm-6 4h1v1h-1zm-6 4h1v1h-1zm-3 2h1v1h-1zm8 7h1v1h-1zm-1 3h1v1h-1zm-25 4h1v1h-1zm-1 1h1v1h-1zm24 0h1v1h-1zm-1 3h1v1h-1zm-28 3h1v1h-1zm7 5h1v1h-1zm5 3h1v1h-1zm13 0h1v1h-1zm-28 2h1v1h-1zm24 3h1v1h-1zm-15 3h1v1h-1zm16 9h1v1h-1zm-49 8h1v1h-1zm48 0h1v1h-1zm-52 8h1v1h-1zm3 6h1v1h-1zm4 3h1v1h-1zm6 4h1v1h-1zm-21 6h1v1h-1zm12 0h1v1h-1zm3 2h1v1h-1zm7 4h1v1h-1zm23 0h1v1h-1zm3 1h1v1h-1zm12 0h1v1h-1zm-34 1h1v1h-1zm25 0h1v1h-1zm9 0h1v1h-1zm-32 1h1v1h-1zm26 0h1v1h-1zm-14 5h1v1h-1zm15 5h1v1h-1zm7 5h1v1h-1zm1 6h1v1h-1zm-64 2h1v1h-1zm65 3h1v1h-1zm-57 3h1v1h-1zm9 5h1v1h-1zm4 2h1v1h-1zm47 3h1v1h-1zm-36 1h1v1h-1zm4 1h1v1h-1zm5 1h1v1h-1zm6 1h1v1h-1zm21 0h1v1h-1z" fill="#5a9bce"/><path d="M172 13h1v1h-1zm11 8h1v1h-1zm-32 4h1v1h-1zm44 9h1v1h-1zm4 6h1v1h-1zm-56 7h1v1h-1zm-2 9h1v1h-1zm7 7h1v1h-1zm17 3h1v1h-1zm11 1h1v1h-1zm1 0h1v1h-1zm17 0h1v1h-1zm1 0h1v1h-1zM44 68h1v1h-1zm10 13h1v1h-1zm1 1h1v1h-1zm-15 4h1v1h-1zm1 6h1v1h-1zm20 0h1v1h-1zm-18 8h1v1h-1zm11 12h1v1h-1z" fill="#78cd8f"/><path d="M145 40h1v1h-1zm60 12h1v1h-1zm1 3h1v1h-1zm-48 10h1v1h-1zm17 2h1v1h-1zm21 0h1v1h-1zM40 69h1v1h-1zm16 37h1v1h-1zm-1 3h1v1h-1z" fill="#82d399"/><path d="M110 0h1v1h-1zm28 0h1v1h-1zm1 0h1v1h-1zm5 1h1v1h-1zm-1 2h1v1h-1zM94 4h1v1h-1zm-7 3h1v1h-1zm-8 4h1v1h-1zm93 1h1v1h-1zm-44 1h1v1h-1zm47 1h1v1h-1zm-95 1h1v1h-1zm45 0h1v1h-1zm-43 3h1v1h-1zm71 1h1v1h-1zm31 2h1v1h-1zm-72 4h1v1h-1zm38 0h1v1h-1zm-39 1h1v1h-1zm81 3h1v1h-1zM92 30h1v1h-1zm101 0h1v1h-1zm-89 2h1v1h-1zm-1 1h1v1h-1zm-1 1h1v1h-1zm94 0h1v1h-1zm2 3h1v1h-1zm-53 1h1v1h-1zm55 2h1v1h-1zm2 4h1v1h-1zm-60 3h1v1h-1zm63 3h1v1h-1zm1 3h1v1h-1zM40 63h1v1h-1zm105 0h1v1h-1zM43 65h1v1h-1zm110 0h1v1h-1zm5 1h1v1h-1zm9 1h1v1h-1zm39 0h1v1h-1zM39 69h1v1h-1zm0 1h1v1h-1zm9 2h1v1h-1zm2 3h1v1h-1zm6 7h1v1h-1zm-17 4h1v1h-1zm0 1h1v1h-1zm23 1h1v1h-1zm-22 4h1v1h-1zm22 0h1v1h-1zm-1 2h1v1h-1zm-20 2h1v1h-1zm1 3h1v1h-1zm1 4h1v1h-1zm14 2h1v1h-1zm-1 3h1v1h-1zm0 1h1v1h-1zm-1 3h1v1h-1zm-1 3h1v1h-1zm-4 2h1v1h-1zm3 2h1v1h-1zm94 7h1v1h-1zm9 1h2v1h-2zm2 0h1v1h-1zm31 0h1v1h-1zm-48 8h1v1h-1zm40 2h1v1h-1zm-4 3h1v1h-1zm-35 1h1v1h-1zm29 3h1v1h-1zm-28 1h1v1h-1zm24 1h1v1h-1zm-4 2h1v1h-1zm-7 3h1v1h-1z" fill="#f6fcf8"/><path d="M121 0h1v1h-1zm7 0h1v1h-1zm1 0h1v1h-1zm-18 1h1v1h-1zm27 0h1v1h-1zm-32 1h1v1h-1zm-5 1h1v1h-1zm37 2h1v1h-1zM92 6h1v1h-1zm-3 1h1v1h-1zm-4 2h1v1h-1zm47 0h1v1h-1zm-49 1h1v1h-1zm46 1h1v1h-1zm-7 5h1v1h-1zm-4 3h1v1h-1zm-5 4h1v1h-1zm-25 1h1v1h-1zm19 4h1v1h-1zm-1 1h1v1h-1zm-1 1h1v1h-1zm43 97h1v1h-1zm10 1h1v1h-1zm1 0h1v1h-1zm19 10h1v1h-1zm-35 2h1v1h-1zm29 2h1v1h-1zm-28 2h1v1h-1zm19 3h1v1h-1zm-5 2h1v1h-1zm-9 3h1v1h-1z" fill="#85ca89"/><path d="M122 0h5v1h-5zm5 0h1v1h-1zm-15 1h1v1h-1zm25 0h1v1h-1zm-30 1h1v1h-1zm-5 1h1v1h-1zm39 0h1v1h-1zm-2 1h1v1h-1zM95 5h1v1h-1zm-2 1h1v1h-1zm-12 5h1v1h-1zm-1 2h1v1h-1zm2 3h1v1h-1zm37 2h1v1h-1zm-5 4h1v1h-1zm-24 4h1v1h-1zm56 101h1v1h-1zm1 0h1v1h-1zm-6 1h1v1h-1zm16 0h1v1h-1zm-16 1h1v1h-1zm44 3h1v1h-1zm-2 2h1v1h-1zm-14 10h1v1h-1zm-21 8h1v1h-1z" fill="#7dc781"/><path d="M7 175h1v1H7zm176 4h1v1h-1zm1 0h1v1h-1zM9 180h1v1H9zm21 2h1v1h-1zm-4 1h1v1h-1zm99 3h1v1h-1zm-11 1h1v16h-1zm9 0h1v1h-1zm3 0h1v1h-1zm15 0h1v1h-1zm85 0h1v1h-1zm-204 1h2v1h-2zm2 0h1v1h-1zm196 0h1v1h-1zm8 0h1v1h-1zm-169 1h1v1h-1zm11 0h1v1h-1zm149 0h1v1h-1zm10 0h1v1h-1zm-216 1h1v1h-1zm60 0h1v1h-1zm-41 1h1v1h-1zm142 0h1v1h-1zm26 1h1v1h-1zm-180 1h2v1h-2zm2 0h1v1h-1zm33 0h1v1h-1zm29 0h1v2h-1zm0 2h1v1h-1zm-51 1h1v1h-1zm22 0h1v1h-1zm-52 1h1v1H3zm84 1h1v1h-1zm-29 1h1v1h-1zm29 0h1v1h-1zm116 0h1v1h-1zm13 0h2v1h-2zm2 0h1v1h-1zm-184 2h1v1h-1zm129 0h1v1h-1zm-147 1h1v1h-1zm154 0h1v1h-1zm-91 1h1v1h-1zm35 0h1v1h-1zm58 0h1v1h-1zm-110 1h1v1h-1zm19 0h1v1h-1zm125 0h1v1h-1zm16 0h1v1h-1z" fill="#b8b9b9"/><path d="M148 10h1v2h-1zm1 0h1v1h-1zm-1 2h1v1h-1zm-22 13h1v1h-1zm15 1h1v1h-1zm-19 2h1v1h-1zm17 3h1v1h-1zm-26 17h1v1h-1zm-14 1h1v1h-1zm-2 2h1v1h-1zm28 4h1v1h-1zm-33 2h1v1h-1zm22 2h1v1h-1zm12 6h1v1h-1zm3 8h1v1h-1zm-1 14h1v1h-1zm0 1h1v1h-1zm-50 2h1v1h-1zm7 5h1v1h-1zm3 2h1v1h-1zm40 1h1v1h-1zm0 1h1v1h-1zm-19 9h1v1h-1zm8 3h1v1h-1zm-53 3h1v1h-1zm38 0h1v1h-1zm13 5h1v1h-1zm-54 6h1v1h-1zm4 9h1v1h-1zm22 14h1v1h-1zm2 1h1v1h-1zm5 2h1v1h-1zm16 4h1v1h-1zm11 1h7v1h-7zm7 0h1v1h-1z" fill="#c7e1f0"/><g fill="#28ace2"><path d="M70 19h1v54h-1z"/><path d="M69 20h2v53h-2zm2 0h1v50h-1z"/><path d="M67 21h4v52h-4z"/><path d="M66 22h6v48h-6zm6 0h1v47h-1z"/><path d="M65 23h8v46h-8zm8 0h1v44h-1z"/><path d="M64 24h10v43H64zm10 0h1v42h-1z"/><path d="M63 25h11v42H63z"/><path d="M62 26h13v40H62zm13 0h1v38h-1z"/><path d="M61 27h15v37H61zm15 0h1v36h-1z"/><path d="M60 28h17v35H60zm17 0h1v33h-1z"/><path d="M59 29h19v32H59zm19 0h1v30h-1z"/><path d="M58 30h20v31H58z"/><path d="M57 31h22v28H57zm22 0h1v27h-1z"/><path d="M56 32h24v26H56zm24 0h1v25h-1zm1 1h1v23h-1z"/><path d="M55 34h27v22H55zm27 0h1v20h-1z"/><path d="M54 35h29v19H54zm29 0h1v18h-1z"/><path d="M53 37h32v14H53zm32 0h1v13h-1z"/><path d="M52 38h33v13H52zm34 1h1v10h-1zm1 0h1v8h-1z"/><path d="M51 40h37v7H51zm37 0h1v7h-1z"/><path d="M50 41h38v6H50zm39 1h1v3h-1zm1 0h1v2h-1z"/><path d="M49 43h41v2H49zm41 1h1v1h-1zm-42 1h41v2H48zm41 0h1v1h-1zm-42 2h41v1H47zm41 0h1v1h-1zm-41 1h39v2H47z"/><path d="M46 49h40v1H46zm40 0h1v1h-1zm-40 1h39v1H46zm39 0h1v1h-1zm-39 1h38v2H46zm38 0h1v1h-1zm-38 2h37v1H46zm37 0h1v1h-1zm-36 1h35v1H47zm35 0h1v1h-1zm-34 1h33v1H48zm1 1h32v1H49zm32 0h1v1h-1zm-32 1h31v1H49zm31 0h1v1h-1zm-30 1h29v1H50zm29 0h1v1h-1zm-29 1h28v1H50zm28 0h1v1h-1zm-27 1h26v1H51zm1 1h25v1H52zm25 0h1v1h-1zm-24 1h23v1H53zm0 1h23v1H53zm23 0h1v1h-1zm-22 1h21v1H54zm21 0h1v1h-1zm-20 1h19v1H55zm1 1h18v1H56zm18 0h1v1h-1zm-17 1h16v1H57zm16 0h1v1h-1zm-16 1h15v1H57zm1 1h14v1H58zm14 0h1v1h-1zm-13 1h12v1H59zm12 0h1v1h-1zm-11 1h10v1H60zm79 0h1v42h-1zm-78 1h9v1h-9zm79 0h2v44h-2zm2 0h1v44h-1zm-81 1h9v1h-9zm9 0h1v1h-1zm73 0h2v43h-2zm2 0h1v43h-1zm-82 1h6v1h-6zm6 0h1v1h-1zm77 0h4v42h-4zm4 0h1v43h-1zm-86 1h4v1h-4zm4 0h1v1h-1zm83 0h4v42h-4zm4 0h1v42h-1zm-91 1h4v1h-4zm4 0h1v1h-1zm88 0h4v41h-4zm4 0h1v42h-1zm-95 1h2v1h-2zm2 0h1v1h-1zm94 0h6v41h-6zm6 0h1v41h-1zm37 0h5v12h-5zm5 0h1v5h-1zM66 78h1v1h-1zm1 0h1v1h-1z"/><path d="M168 78h41v11h-41z"/><path d="M138 82h71v7h-71zm71 0h1v1h-1zm-71 7h70v6h-70zm70 0h1v2h-1zm0 2h1v1h-1zm-70 4h69v3h-69zm69 0h1v1h-1zm-69 3h68v3h-68zm68 0h1v1h-1zm-68 3h67v1h-67zm67 0h1v1h-1zm-37 1h37v1h-37zm37 0h1v1h-1zm-37 1h36v3h-36zm36 0h1v1h-1zm-36 3h35v2h-35zm35 0h1v1h-1zm-35 2h34v3h-34zm34 0h1v1h-1zm-34 3h33v1h-33zm33 0h1v1h-1zm-33 1h32v2h-32zm32 0h1v1h-1z"/><path d="M139 113h60v1h-60zm29 1h31v2h-31zm31 0h1v1h-1zm-59 2h58v1h-58zm58 0h1v1h-1zm-49 1h43v1h-43zm43 0h1v1h-1zm-33 1h23v1h-23zm23 0h1v1h-1z"/></g><path d="M54 171h1v1h-1zm83 8h1v1h-1zM4 180h1v1H4zm133 0h1v1h-1zm-96 1h1v1h-1zm113 0h1v1h-1zm-126 2h1v1h-1zm-20 1h1v1H8zm23 0h1v1h-1zm-25 1h1v1H6zm44 0h1v1h-1zm11 0h1v1h-1zm7 0h1v1h-1zm66 0h1v1h-1zm7 0h1v1h-1zm35 0h1v1h-1zm23 0h1v1h-1zm13 0h1v1h-1zm-200 1h1v1h-1zm29 0h1v1h-1zm133 0h1v1h-1zm55 0h1v1h-1zm-158 1h1v1h-1zm77 0h1v1h-1zm26 0h1v1h-1zm-106 1h1v1h-1zm13 0h1v1h-1zm46 0h1v1h-1zm55 0h1v1h-1zm-158 1h1v1h-1zm5 0h1v1h-1zm57 0h1v1h-1zm1 0h1v1h-1zm85 0h1v1h-1zm60 0h1v1h-1zM5 190h1v1H5zm6 1h1v1h-1zm44 0h1v1h-1zm26 0h1v1h-1zm118 0h1v1h-1zm13 0h1v1h-1zm18 0h1v1h-1zm-210 1h1v1h-1zm63 0h1v1h-1zm150 0h1v2h-1zm-203 1h1v1h-1zm49 0h1v1h-1zm79 0h1v1h-1zm-139 1h1v1h-1zm68 0h1v1h-1zm87 0h1v1h-1zm34 0h1v1h-1zm25 0h1v1h-1zm-59 1h1v1h-1zm33 1h1v1h-1zm3 0h1v1h-1zm-176 2h1v1h-1zm37 0h1v1h-1zm138 0h1v1h-1zM3 199h1v1H3zm17 0h1v1h-1zm59 0h1v1h-1zm-79 1h1v1H0zm56 0h1v1h-1zm160 0h1v1h-1zm-136 1h1v1h-1zm148 0h1v1h-1zm-165 1h3v1h-3zm3 0h1v1h-1zm16 0h2v1h-2zm2 0h1v1h-1zm82 0h3v1h-3zm3 0h1v1h-1zm54 0h2v1h-2zm2 0h1v1h-1zm-193 1h1v1h-1zm142 0h1v1h-1zm33 0h1v1h-1zm-71 1h1v1h-1zm57 0h1v1h-1zm27 0h1v1h-1z" fill="#efefef"/><path d="M49 172h1v1h-1zm-43 2h1v1H6zm43 3h1v1h-1zm-41 1h1v1H8zm32 0h1v1h-1zm104 1h1v1h-1zm10 1h1v1h-1zm-114 1h1v1h-1zm-17 5h1v1h-1zm95 0h1v1h-1zm58 0h1v1h-1zm36 0h1v1h-1zm8 0h1v1h-1zm8 0h1v1h-1zm-197 1h1v1h-1zm19 0h1v1h-1zm69 0h1v1h-1zm15 0h1v15h-1zm31 0h1v1h-1zm16 0h1v1h-1zm4 0h1v1h-1zm-127 3h1v1h-1zm69 0h1v1h-1zm-55 2h1v1h-1zm139 0h1v1h-1zm-180 3h1v1h-1zm177 0h1v1h-1zm-134 1h1v1h-1zm12 0h1v1h-1zm73 2h1v1h-1zm-103 1h1v1h-1zm15 0h2v1h-2zm2 0h1v1h-1zm135 0h1v1h-1zm-189 1h1v1h-1zm153 1h1v1h-1zm-94 1h1v1h-1zm7 0h1v1h-1zm49 0h1v1h-1zm93 0h1v1h-1zm3 0h1v1h-1zm-61 2h1v1h-1z" fill="#a5a5a6"/><path d="M26 179h1v1h-1zm1 1h1v1h-1zm14 0h1v1h-1zm-16 1h1v1h-1zm110 0h1v1h-1zm57 0h1v1h-1zm-167 4h1v1h-1zm4 0h1v1h-1zm10 1h1v1h-1zm102 0h1v1h-1zm30 0h1v1h-1zm-124 1h1v1h-1zm123 0h1v1h-1zm6 0h1v16h-1zm6 0h1v1h-1zm-96 1h1v1h-1zm77 0h1v1h-1zm11 0h2v1h-2zM4 191h1v1H4zm206 0h1v1h-1zm22 0h1v1h-1zm-210 1h1v1h-1zm209 0h1v1h-1zm-151 1h1v1h-1zm137 0h1v1h-1zm14 0h1v1h-1zm-218 1h1v1h-1zm73 0h1v1h-1zm74 0h1v1h-1zm0 1h1v1h-1zm43 0h1v1h-1zm-184 1h1v1h-1zm-4 3h1v1h-1zm72 1h1v1h-1zm73 0h1v1h-1zm13 0h1v2h-1zm-155 2h1v1h-1zm155 0h1v1h-1zm3 1h1v1h-1zm29 0h1v1h-1zm-141 1h1v1h-1zm1 0h1v1h-1zm17 0h2v1h-2zm2 0h1v1h-1zm83 0h1v1h-1zm1 0h1v1h-1zm55 0h2v1h-2zm2 0h1v1h-1z" fill="#98999a"/><g fill="#76c47a"><path d="M121 1h7v10h-7zm7 0h1v9h-1zm-20 1h1v24h-1z"/><path d="M112 2h25v3h-25zm25 0h1v2h-1zm5 0h1v1h-1zm-39 1h1v27h-1z"/><path d="M107 3h32v1h-32zm32 0h1v1h-1zm-37 1h35v1h-35zm35 0h1v1h-1zM98 5h38v1H98zm38 0h1v1h-1zM96 6h38v1H96zm38 0h1v1h-1zM93 7h40v1H93zm40 0h1v1h-1zM90 8h41v1H90zm41 0h2v1h-2zm2 0h1v1h-1zM88 9h42v1H88zm42 0h1v1h-1zm-46 1h44v1H84zm44 0h1v1h-1zm-44 1h43v1H84zm43 0h1v1h-1zm-45 1h44v1H82zm44 0h1v1h-1zm-44 1h42v1H82zm42 0h2v1h-2zm2 0h1v1h-1zm-44 1h41v1H82zm41 0h1v1h-1zm-40 1h38v1H83zm38 0h2v1h-2zm2 0h1v1h-1zm-39 1h36v1H84zm36 0h1v1h-1zm-36 1h35v1H84zm35 0h1v1h-1zm-34 1h32v1H85zm32 0h1v1h-1zm-31 1h30v1H86zm30 0h1v1h-1zm-30 1h29v1H86zm29 0h1v1h-1zm-28 1h26v1H87zm26 0h2v1h-2zm2 0h1v1h-1zm-27 1h24v1H88zm24 0h1v1h-1zm-23 1h22v1H89zm22 0h1v1h-1zm-21 1h20v1H90zm20 0h1v1h-1zm-21 1h21v1H89zm21 0h1v1h-1zm-19 1h18v1H91zm18 0h1v1h-1zm-17 1h14v1H92zm14 0h1v1h-1zm-13 1h12v1H93zm12 0h1v1h-1zm-11 1h10v1H94zm10 0h1v1h-1zm-9 1h8v1h-8zm8 0h1v1h-1zm-7 1h6v1h-6zm6 0h1v1h-1zm-5 1h4v1h-4zm4 0h1v1h-1zm-3 1h2v1h-2zm2 0h1v1h-1zm-1 1h1v1h-1zm44 93h2v8h-2zm2 0h1v16h-1z"/><path d="M142 128h4v1h-4zm4 0h1v20h-1zm10 0h1v20h-1z"/><path d="M142 129h15v1h-15zm15 0h1v20h-1zm31 0h1v1h-1z"/><path d="M147 130h39v1h-39zm39 0h1v1h-1zm-39 1h37v1h-37zm37 0h2v1h-2zm2 0h1v1h-1zm-39 1h36v1h-36zm36 0h1v1h-1zm-36 1h35v1h-35zm35 0h2v1h-2zm2 0h1v1h-1zm-37 1h34v1h-34zm34 0h1v1h-1zm-38 1h37v1h-37zm37 0h1v1h-1zm-36 1h35v1h-35zm35 0h1v1h-1zm-35 1h33v1h-33zm33 0h1v1h-1zm-33 1h32v1h-32zm32 0h1v1h-1zm-33 1h32v1h-32zm32 0h1v1h-1zm-28 1h26v1h-26zm26 0h2v1h-2zm2 0h1v1h-1zm-28 1h24v1h-24zm24 0h1v1h-1zm-24 1h23v1h-23zm23 0h1v1h-1zm-26 1h24v1h-24zm24 0h2v1h-2zm2 0h1v1h-1zm-23 1h19v1h-19zm19 0h1v1h-1zm-19 1h17v1h-17zm17 0h1v1h-1zm-17 1h15v1h-15zm15 0h1v1h-1zm-15 1h13v1h-13zm13 0h1v1h-1zm-15 1h12v1h-12zm2 1h8v1h-8zm8 0h2v1h-2zm2 0h1v1h-1zm-10 1h5v1h-5zm5 0h1v1h-1zm3 0h1v1h-1zm-8 1h2v1h-2zm2 0h1v1h-1z"/></g><path d="M170 12h1v1h-1zm5 3h1v1h-1zm-22 6h1v1h-1zm31 1h1v1h-1zm1 1h1v1h-1zm4 4h1v1h-1zm2 2h1v1h-1zm-47 15h1v1h-1zm1 18h1v1h-1zm8 2h1v1h-1zm55 2h1v1h-1zm-30 1h1v1h-1zm1 0h1v1h-1zm13 0h1v1h-1zm1 0h1v1h-1zM40 70h1v1h-1zm9 5h1v1h-1zm4 5h1v1h-1zm-13 5h1v1h-1zm19 12h1v1h-1z" fill="#64c77f"/><path d="M145 13h1v1h-1zm-2 1h1v1h-1zm-4 3h1v1h-1zm-3 2h1v1h-1zm-3 2h1v1h-1zm-4 3h1v1h-1zm12 0h1v1h-1zm-19 5h1v1h-1zm16 2h1v1h-1zm-21 2h1v1h-1zm-1 1h1v1h-1zm21 0h1v1h-1zm-2 5h1v1h-1zm-26 1h1v1h-1zm-1 1h1v1h-1zm26 2h1v1h-1zm-24 2h1v1h-1zm8 5h1v1h-1zm-16 2h1v1h-1zm23 2h1v1h-1zm6 0h1v1h-1zm-4 1h1v1h-1zm-33 1h1v1h-1zm35 0h1v1h-1zm-39 5h1v1h-1zm26 0h1v1h-1zm-32 9h1v1h-1zm44 2h1v1h-1zm-48 5h1v1h-1zm-2 3h1v1h-1zm0 9h1v1h-1zm4 3h1v1h-1zm-10 6h1v1h-1zm-2 1h1v1h-1zm23 0h1v1h-1zm-18 1h1v1h-1zm11 7h1v1h-1zm31 3h1v1h-1zm-51 1h1v1h-1zm54 0h1v1h-1zm-20 3h1v1h-1zm2 1h1v1h-1zm2 1h1v1h-1zm8 3h1v1h-1zm7 2h1v1h-1zm6 2h1v1h-1zm-63 2h1v1h-1zm-1 4h1v1h-1zm1 1h1v1h-1zm1 1h1v1h-1zm1 1h1v1h-1zm1 1h1v1h-1zm66 2h1v1h-1zm1 5h1v1h-1zm-53 3h1v1h-1zm15 7h1v1h-1zm6 2h1v1h-1zm35 0h1v1h-1zm-26 2h1v1h-1zm7 1h1v1h-1zm17 0h1v1h-1z" fill="#127bbe"/><path d="M68 19h1v1h-1zm11 10h1v1h-1zm7 8h1v1h-1zm-35 1h1v1h-1zm36 0h1v1h-1zm2 2h1v1h-1zm1 1h1v1h-1zm-42 2h1v1h-1zm-1 2h1v1h-1zm-1 2h1v1h-1zm43 0h1v1h-1zM50 60h1v1h-1zm27 3h1v1h-1zm-2 3h1v1h-1zm-19 2h1v1h-1zm89 4h1v1h-1zm4 1h1v1h-1zm5 1h1v1h-1zm-92 1h1v1h-1zm76 0h1v1h-1zm21 0h1v1h-1zm8 1h1v1h-1zm36 0h1v1h-1zm1 0h1v1h-1zm6 0h1v1h-1zm0 4h1v2h-1zm0 2h1v1h-1zm-3 16h1v1h-1zm-69 12h1v1h-1zm23 9h1v1h-1z" fill="#b7e2f5"/><path d="M51 171h2v1h-2zm2 0h1v1h-1zm-5 2h1v1h-1zm59 1h1v1h-1zm-1 1h1v28h-1zm-79 1h1v1h-1zm2 1h1v1h-1zm10 1h1v1h-1zm10 0h1v6h-1zm103 0h1v1h-1zm1 0h1v1h-1zM5 179h1v1H5zm149 0h1v1h-1zM7 180h1v1H7zm32 1h1v1h-1zm113 0h1v1h-1zm1 0h1v1h-1zm-104 3h1v1h-1zm-38 1h1v1h-1zm69 1h1v1h-1zm6 0h1v1h-1zm48 0h1v1h-1zm29 0h1v1h-1zM5 187h1v1H5zm57 0h1v1h-1zm17 0h1v1h-1zm94 0h1v1h-1zm49 0h1v1h-1zM3 188h1v1H3zm46 0h1v15h-1zm11 0h1v1h-1zm151 0h1v1h-1zm-86 1h1v1h-1zm76 1h1v1h-1zm11 0h1v1h-1zm-96 1h1v1h-1zM4 192h1v1H4zm8 0h1v1h-1zm-10 1h1v1H2zm72 0h1v1h-1zm-19 1h1v1h-1zm146 0h1v1h-1zm-146 1h1v1h-1zm-41 2h1v1h-1zm43 0h1v1h-1zm15 0h1v1h-1zm132 0h1v1h-1zm5 0h1v1h-1zM1 198h1v1H1zm17 0h1v1h-1zm156 0h1v1h-1zm-96 1h1v1h-1zm127 0h1v1h-1zm-173 1h1v1h-1zm130 0h1v1h-1zm42 1h1v1h-1zm-155 2h1v1h-1zm57 0h1v1h-1zm-89 1h1v1h-1zm209 0h1v1h-1z" fill="#acadae"/><path d="M146 14h1v1h-1zm-2 4h1v1h-1zm-1 2h1v1h-1zm-1 2h1v1h-1zm-12 1h1v1h-1zm-3 2h1v1h-1zm-4 3h1v1h-1zm-12 10h1v1h-1zm22 9h1v1h-1zm-1 3h1v1h-1zm-31 1h1v1h-1zm-4 1h1v1h-1zm34 3h1v1h-1zm-23 1h1v1h-1zm-16 2h1v1h-1zm23 2h1v1h-1zm3 2h1v1h-1zm-31 3h1v1h-1zm-4 6h1v1h-1zm45 3h1v1h-1zm0 1h1v1h-1zm-49 3h1v1h-1zm7 17h1v1h-1zm-15 2h1v1h-1zm-1 1h1v1h-1zm4 1h1v1h-1zm26 4h1v1h-1zm2 1h1v1h-1zm-35 2h1v1h-1zm39 0h1v1h-1zm-18 2h1v1h-1zm23 0h1v1h-1zm17 4h1v1h-1zm-30 1h1v1h-1zm28 0h2v1h-2zm2 0h1v1h-1zm-64 3h1v1h-1zm41 0h1v1h-1zm8 3h1v1h-1zm-51 5h1v1h-1zm4 10h1v1h-1zm66 5h1v1h-1zm-55 3h1v1h-1zm56 1h1v1h-1zm-53 1h1v1h-1zm2 1h1v1h-1zm4 2h1v1h-1zm5 2h1v1h-1zm5 2h1v1h-1zm19 4h1v1h-1zm19 0h1v1h-1z" fill="#398bc6"/><path d="M157 14h1v1h-1zm-5 9h1v1h-1zm36 3h1v1h-1zm-40 6h1v1h-1zm-1 3h1v1h-1zm50 2h1v1h-1zm3 5h1v1h-1zm3 6h1v1h-1zm1 2h1v1h-1zm3 9h1v1h-1zm-27 8h2v1h-2zm2 0h1v1h-1zm7 0h2v1h-2zm2 0h1v1h-1zM40 71h1v1h-1zm18 28h1v1h-1zm-13 6h1v1h-1zm8 10h1v1h-1z" fill="#5ec57a"/><path d="M156 15h1v1h-1zm21 1h1v1h-1zm4 3h1v1h-1zm-33 12h1v1h-1zm-1 3h1v1h-1zm-2 5h1v1h-1zm55 2h1v1h-1zm4 8h1v1h-1zm-62 1h1v1h-1zm-1 4h1v1h-1zm-1 5h1v1h-1zm7 4h1v1h-1zM42 64h1v1h-1zm115 1h1v1h-1zm6 1h1v1h-1zM40 67h1v1h-1zm131 0h1v1h-1zm1 0h1v1h-1zm28 0h1v1h-1zm1 0h1v1h-1zM41 94h1v1h-1zm18 4h1v1h-1zm-15 6h1v1h-1zm1 2h1v1h-1zm8 11h1v1h-1z" fill="#b0e2bd"/><path d="M120 0h1v1h-1zm-10 1h1v1h-1zm29 0h1v1h-1zm-34 1h1v1h-1zm32 4h1v1h-1zm-2 1h1v1h-1zM87 8h1v1h-1zm-6 7h1v1h-1zm3 4h1v1h-1zm33 1h1v1h-1zm-5 4h1v1h-1zm-18 7h1v1h-1zm10 0h1v1h-1zm-8 2h1v1h-1zm1 1h1v1h-1zm1 1h1v1h-1zm51 92h1v1h-1zm11 1h1v1h-1zm-19 2h1v1h-1zm41 5h1v1h-1zm-40 1h1v1h-1zm2 9h1v1h-1zm23 0h1v1h-1zm-2 1h1v1h-1zm-4 2h1v1h-1zm-16 1h1v1h-1zm8 2h1v1h-1z" fill="#95d198"/><path d="M165 9h1v1h-1zm4 2h1v1h-1zm9 6h1v1h-1zm-24 2h1v1h-1zm-5 10h1v1h-1zm43 1h1v1h-1zm-48 13h1v1h-1zm57 0h1v1h-1zm-59 8h1v1h-1zm66 11h1v1h-1zm-34 5h1v1h-1zm23 0h1v1h-1zM56 83h1v1h-1zm-16 4h1v1h-1zm20 8h1v1h-1zm-18 2h1v1h-1zm2 6h1v1h-1zm13 0h1v1h-1zm-11 5h1v1h-1zm2 4h1v1h-1zm5 4h1v1h-1zm-2 1h1v1h-1z" fill="#89d49e"/><path d="M145 12h1v1h-1zm-3 2h1v1h-1zm-3 2h1v1h-1zm-3 2h1v1h-1zm-7 5h1v1h-1zm11 5h1v1h-1zm-23 4h1v1h-1zm-1 1h1v1h-1zm21 3h1v1h-1zm-1 3h1v1h-1zm-30 3h1v1h-1zm29 0h1v1h-1zm-26 3h1v1h-1zm-11 5h1v1h-1zm4 1h1v1h-1zm4 3h1v1h-1zm26 0h1v1h-1zm-39 2h1v1h-1zm16 0h1v1h-1zm-20 5h1v1h-1zm39 5h1v1h-1zm-45 4h1v1h-1zm46 2h1v1h-1zm-50 5h1v1h-1zm49 9h1v1h-1zm-51 3h1v1h-1zm-5 8h1v1h-1zm21 3h1v1h-1zm35 0h1v1h-1zm-44 5h1v1h-1zm21 1h1v1h-1zm2 1h1v1h-1zm-14 3h1v1h-1zm-28 1h1v1h-1zm39 4h1v1h-1zm5 2h1v1h-1zm3 1h1v1h-1zm6 2h1v1h-1zm3 1h1v1h-1zm4 1h1v1h-1zm5 2h1v1h-1zm-69 2h1v1h-1zm70 4h1v1h-1zm-69 1h1v1h-1zm1 1h1v1h-1zm1 1h1v1h-1zm69 7h1v1h-1zm-54 4h1v1h-1zm55 1h1v1h-1zm2 7h1v1h-1zm-35 1h1v1h-1zm4 1h1v1h-1z" fill="#b8d5e9"/><path d="M143 13h1v1h-1zm5 0h1v1h-1zm-11 4h1v1h-1zm8 1h1v1h-1zm-73 1h1v1h-1zm62 0h1v1h-1zm-69 2h1v1h-1zm66 0h1v1h-1zm-68 2h1v1h-1zm64 1h1v1h-1zm-68 3h1v1h-1zm-1 1h1v1h-1zm61 2h1v1h-1zm-38 1h1v1h-1zm37 0h1v1h-1zm-36 1h1v1h-1zm1 1h1v1h-1zm30 2h1v1h-1zm-62 2h1v1h-1zm84 6h1v1h-1zm-28 1h1v1h-1zm3 2h1v1h-1zm24 1h1v1h-1zm-46 2h1v1h-1zm12 0h1v1h-1zm14 0h1v1h-1zm-27 1h1v1h-1zm32 2h1v1h-1zm-25 2h1v1h-1zm-48 1h1v1h-1zm86 0h1v1h-1zm-19 3h1v1h-1zm-23 1h1v1h-1zm-40 2h1v1h-1zm28 1h1v1h-1zm10 0h1v1h-1zm-35 3h1v1h-1zm77 2h1v2h-1zm-56 1h1v1h-1zm10 0h1v1h-1zm46 1h1v1h-1zm-73 1h1v1h-1zm16 0h1v1h-1zm65 1h1v1h-1zm6 0h1v1h-1zm12 3h1v1h-1zm-86 1h1v1h-1zm93 0h1v1h-1zm44 0h1v1h-1zm3 0h1v1h-1zM79 76h1v1h-1zm50 0h1v1h-1zm43 0h1v1h-1zm1 0h1v1h-1zm24 0h1v1h-1zm1 0h1v1h-1zM69 77h1v1h-1zm8 3h1v1h-1zm60 4h1v1h-1zm0 1h1v1h-1zm73 0h1v1h-1zM74 86h1v1h-1zm1 2h1v1h-1zm8 6h1v1h-1zm3 2h1v1h-1zm122 1h1v1h-1zm-71 2h1v2h-1zm-60 1h1v1h-1zm130 0h1v1h-1zm-113 1h1v1h-1zm43 0h1v1h-1zm-41 1h1v1h-1zm110 0h1v1h-1zm-108 1h1v1h-1zm-15 1h1v1h-1zm122 1h1v1h-1zm-115 3h1v1h-1zm18 0h1v1h-1zm-14 2h1v1h-1zm20 0h1v1h-1zm15 0h1v1h-1zm-33 1h1v1h-1zm20 0h1v1h-1zm13 0h1v1h-1zm-26 3h1v1h-1zm35 0h1v1h-1zm-33 1h1v1h-1zm33 0h1v1h-1zm7 3h1v1h-1zm51 0h1v1h-1zm-44 1h1v1h-1zm1 0h1v1h-1zm35 0h1v1h-1zm1 0h1v1h-1zm-66 2h1v1h-1zm-62 2h1v1h-1zm-1 4h1v1h-1zm0 1h1v1h-1zm6 7h1v1h-1zm2 2h1v1h-1zm65 1h1v1h-1zm-61 2h1v1h-1zm62 2h1v1h-1zm0 1h1v1h-1zm-56 1h1v1h-1zm4 2h1v1h-1zm4 2h1v1h-1zm7 3h1v1h-1zm43 0h1v1h-1zm-33 3h1v1h-1zm34 0h1v1h-1zm-29 1h1v1h-1zm29 0h1v1h-1zm-19 1h1v1h-1zm13 0h1v1h-1z" fill="#f1f7fb"/><path d="M145 14h1v1h-1zm-4 2h1v1h-1zm2 3h1v1h-1zm-9 2h1v1h-1zm-3 2h1v1h-1zm10 0h1v1h-1zm-14 3h1v1h-1zm-3 2h1v1h-1zm-1 1h1v1h-1zm14 3h1v1h-1zm-22 3h1v1h-1zm21 0h1v1h-1zm-23 2h1v1h-1zm22 1h1v1h-1zm-2 6h1v1h-1zm-19 3h1v1h-1zm18 1h1v1h-1zm-15 1h1v1h-1zm15 0h1v1h-1zm-13 1h1v1h-1zm-19 1h1v1h-1zm20 0h1v1h-1zm11 0h1v1h-1zm-10 1h1v1h-1zm10 0h1v1h-1zm-34 1h1v1h-1zm6 0h1v1h-1zm21 0h1v1h-1zm2 1h1v1h-1zm-16 4h1v1h-1zm4 2h1v1h-1zm1 1h1v1h-1zm-25 1h1v1h-1zm27 0h1v1h-1zm-30 4h1v1h-1zm40 1h1v1h-1zm1 0h1v3h-1zm0 3h1v1h-1zm-44 1h1v1h-1zm-1 1h1v1h-1zm-3 6h1v1h-1zm-1 1h1v1h-1zm-3 7h1v1h-1zm0 1h1v1h-1zm4 3h1v1h-1zm6 4h1v1h-1zm3 2h1v1h-1zm-18 2h1v1h-1zm3 2h1v1h-1zm-5 2h1v1h-1zm30 0h1v1h-1zm-30 1h1v1h-1zm10 0h1v1h-1zm6 4h1v1h-1zm2 1h1v1h-1zm26 0h1v1h-1zm2 1h1v1h-1zm-25 1h1v1h-1zm32 1h1v1h-1zm-56 1h1v1h-1zm28 0h1v1h-1zm29 0h2v1h-2zm2 0h2v1h-2zm2 0h1v1h-1zm-26 3h1v1h-1zm2 1h1v1h-1zm5 2h1v1h-1zm-44 1h1v1h-1zm-1 4h1v1h-1zm64 1h1v1h-1zm2 3h1v1h-1zm1 5h1v1h-1zm-64 1h1v1h-1zm64 0h1v1h-1zm-63 1h1v1h-1zm8 6h1v1h-1zm57 2h1v1h-1zm-47 4h1v1h-1zm3 1h1v1h-1zm1 1h1v1h-1zm4 1h1v1h-1zm4 2h2v1h-2zm2 0h1v1h-1zm4 1h1v1h-1zm3 1h2v1h-2zm2 0h1v1h-1zm5 1h1v1h-1zm1 0h1v1h-1zm7 1h8v1h-8zm8 0h1v1h-1z" fill="#006fb9"/><path d="M65 22h1v1h-1zm9 1h1v1h-1zm3 4h1v1h-1zm-19 2h1v1h-1zm24 4h1v1h-1zm2 2h1v1h-1zm-32 2h1v1h-1zm-2 3h1v1h-1zm38 8h1v1h-1zm-1 1h1v1h-1zm-42 1h1v1h-1zm38 4h1v1h-1zm-3 4h1v1h-1zm-29 3h1v1h-1zm23 6h1v1h-1zm-16 3h1v1h-1zm14 0h1v1h-1zm72 2h1v1h-1zm4 1h1v1h-1zm9 2h1v1h-1zm50 1h1v1h-1zm-31 1h1v1h-1zm1 0h1v1h-1zm15 0h1v1h-1zm1 0h1v1h-1zM67 79h1v1h-1zm71 0h1v1h-1zm71 8h1v1h-1zm-1 6h1v1h-1zm-1 4h1v1h-1zm-69 9h1v1h-1zm64 4h1v1h-1zm-63 6h1v1h-1zm5 1h1v1h-1zm7 1h1v1h-1zm1 0h1v1h-1zm37 0h1v1h-1zm1 0h1v1h-1zm-25 1h3v1h-3zm3 0h1v1h-1zm5 0h3v1h-3zm3 0h1v1h-1z" fill="#7ecaec"/><path d="M147 13h1v1h-1zm-7 14h1v1h-1zm-26 8h1v1h-1zm20 9h1v1h-1zm-23 2h1v1h-1zm-11 4h1v1h-1zm17 0h1v1h-1zm-22 4h1v1h-1zm36 2h1v1h-1zm-21 1h1v1h-1zm17 9h1v1h-1zm2 1h1v1h-1zm-48 7h1v1h-1zm47 3h1v1h-1zm-34 23h1v1h-1zm-9 6h1v1h-1zm-19 3h1v1h-1zm62 0h1v1h-1zm-3 4h1v1h-1zm2 10h1v1h-1zm-66 4h1v1h-1zm72 15h1v1h-1zm-40 8h1v1h-1zm20 5h1v1h-1z" fill="#66a2d0"/><path d="M145 16h1v1h-1zm-8 2h1v1h-1zm-11 8h1v1h-1zm-8 6h1v1h-1zm-5 15h1v1h-1zm3 2h1v1h-1zm-18 2h1v1h-1zm-2 2h1v1h-1zm27 0h1v1h-1zm-18 1h1v1h-1zm6 4h1v1h-1zm-22 4h1v1h-1zm31 1h1v1h-1zm4 2h1v1h-1zm2 1h1v1h-1zm2 7h1v1h-1zm-51 9h1v1h-1zm-2 4h1v1h-1zm13 10h1v1h-1zm-19 5h1v1h-1zm27 0h1v1h-1zm-18 1h1v1h-1zm20 0h1v1h-1zm-17 2h1v1h-1zm23 1h1v1h-1zm5 2h1v1h-1zm-43 3h1v1h-1zm26 0h1v1h-1zm-27 3h1v1h-1zm45 5h1v1h-1zm-47 2h1v1h-1zm53 0h1v1h-1zm6 2h1v1h-1zm4 1h1v1h-1zm-65 5h1v1h-1zm70 6h1v1h-1zm-60 4h1v1h-1zm63 9h1v1h-1zm-30 6h1v1h-1z" fill="#2985c4"/><path d="M140 17h1v1h-1zm3 1h1v1h-1zm-6 1h1v1h-1zm-2 1h1v1h-1zm6 2h1v1h-1zm-24 12h1v1h-1zm-6 5h1v1h-1zm23 1h1v2h-1zm-26 2h1v1h-1zm26 0h1v1h-1zm-2 5h1v1h-1zm-33 4h1v1h-1zm2 1h1v1h-1zm-6 3h1v1h-1zm35 0h1v1h-1zm-22 2h1v1h-1zm3 2h1v1h-1zm-20 1h1v1h-1zm22 0h1v1h-1zm5 3h1v1h-1zm7 3h1v1h-1zm2 9h1v5h-1zm-46 1h1v1h-1zm46 4h1v1h-1zm-50 4h1v1h-1zm-1 1h1v1h-1zm3 4h1v1h-1zm4 3h1v1h-1zm4 3h1v1h-1zm7 4h1v1h-1zm-24 1h1v1h-1zm26 0h1v1h-1zm-19 2h1v1h-1zm1 1h1v1h-1zm24 0h1v1h-1zm4 2h1v1h-1zm-38 1h1v1h-1zm15 0h1v1h-1zm25 0h1v1h-1zm19 0h1v2h-1zm-16 1h1v1h-1zm16 1h1v3h-1zm-60 1h1v1h-1zm49 0h1v1h-1zm11 2h1v1h-1zm-31 2h1v1h-1zm1 0h1v1h-1zm-32 1h1v2h-1zm33 0h1v1h-1zm-33 2h1v1h-1zm40 1h1v1h-1zm6 2h1v1h-1zm2 1h1v1h-1zm1 0h1v1h-1zm7 2h1v1h-1zm-58 2h1v1h-1zm-1 5h1v1h-1zm1 1h1v1h-1zm1 1h1v1h-1zm1 1h1v1h-1zm3 3h1v1h-1zm1 1h1v1h-1zm62 1h1v2h-1zm0 2h1v1h-1zm-54 2h1v1h-1zm3 2h1v1h-1zm52 0h1v1h-1zm-50 1h1v1h-1zm4 2h1v1h-1zm4 2h1v1h-1zm2 1h1v1h-1zm42 0h1v2h-1zm-38 1h1v1h-1zm38 1h1v1h-1zm-19 3h1v1h-1zm19 0h1v1h-1zm-14 1h1v1h-1z" fill="#0070ba"/><path d="M52 172h1v1h-1zm55 4h1v26h-1zM6 178h1v1H6zm21 0h1v1h-1zm-20 1h1v1H7zm20 0h1v1h-1zm1 0h1v1h-1zm165 0h1v1h-1zm0 1h1v1h-1zm-168 2h1v1h-1zm-20 2h1v1H5zm5 1h1v1h-1zm14 0h1v1h-1zm159 1h1v1h-1zm1 0h1v1h-1zm38 0h1v1h-1zm-211 1h1v1h-1zm19 0h1v1h-1zm18 0h1v1h-1zm87 0h1v15h-1zm36 0h1v1h-1zm1 0h1v1h-1zm27 0h1v1h-1zm-120 1h1v1h-1zm47 0h1v1h-1zm103 0h1v1h-1zm1 0h1v1h-1zm-218 1h1v1h-1zm46 0h1v1h-1zm117 0h1v1h-1zm-59 1h1v1h-1zm85 1h1v1h-1zm10 0h1v1h-1zm20 0h1v1h-1zM3 192h1v2H3zm18 0h1v1h-1zm35 0h1v1h-1zm119 0h1v1h-1zm-93 1h1v1h-1zm150 0h1v1h-1zM3 194h1v1H3zm70 0h1v1h-1zm86 0h1v1h-1zm43 0h1v1h-1zm15 0h12v1h-12zm12 0h2v1h-2zm2 0h1v1h-1zm-211 1h1v1h-1zm53 0h1v1h-1zm86 0h1v1h-1zm-103 2h1v1h-1zm-41 1h1v1h-1zm73 0h1v1h-1zm72 0h1v1h-1zm-72 1h1v1h-1zm-31 1h1v1h-1zm150 0h1v1h-1zm-149 1h1v1h-1zm13 0h1v1h-1zm16 0h1v1h-1zm131 0h1v1h-1zm-185 1h1v1h-1zm54 0h1v1h-1zm20 0h1v1h-1zm28 0h1v1h-1zm93 0h1v1h-1zm-194 1h1v1h-1zm14 0h1v1h-1zm13 0h1v1h-1zm103 0h1v1h-1zm62 0h1v1h-1z" fill="#636566"/><path d="M50 173h1v1h-1zm-1 2h1v1h-1zm-20 3h1v1h-1zm107 1h1v1h-1zM5 180h1v1H5zm23 0h1v1h-1zm115 0h1v4h-1zM6 182h1v1H6zm20 0h1v1h-1zm-16 1h1v1h-1zm20 0h1v1h-1zm-21 1h1v1H9zm134 0h1v1h-1zM5 186h1v1H5zm35 0h1v1h-1zm28 0h1v1h-1zm84 0h1v1h-1zm1 0h1v1h-1zm-94 1h1v1h-1zm28 0h1v1h-1zm111 0h1v1h-1zm-186 1h1v1h-1zm131 0h1v15h-1zm29 0h1v1h-1zM3 189h1v1H3zm19 0h1v1h-1zm8 0h1v1h-1zm42 0h1v1h-1zm90 0h1v1h-1zm11 0h1v1h-1zm26 0h1v1h-1zm18 0h1v1h-1zm14 0h1v1h-1zm-160 1h1v1h-1zm159 0h1v1h-1zm-209 1h1v1h-1zm106 0h1v12h-1zm73 0h1v1h-1zm-186 2h1v1h-1zm69 0h1v1h-1zm77 0h1v1h-1zM2 194h1v1H2zm29 0h1v1h-1zm51 0h1v1h-1zm128 0h1v1h-1zM3 196h1v1H3zm157 0h1v1h-1zm-73 1h1v1h-1zm116 1h1v1h-1zm4 0h1v1h-1zm-46 1h1v1h-1zm-84 1h1v1h-1zm129 0h1v1h-1zM2 201h1v1H2zm205 0h1v1h-1zm22 0h1v1h-1zm-8 1h1v1h-1zm-94 1h1v1h-1zm16 0h1v1h-1z" fill="#8f9191"/><path d="M114 1h3v1h-3zm3 0h1v1h-1zm15 0h3v1h-3zm3 0h1v1h-1zm-26 1h1v1h-1zM96 5h1v1h-1zm41 0h1v1h-1zm-1 1h1v1h-1zM90 7h1v1h-1zm1 0h1v1h-1zm-3 1h1v1h-1zm-6 3h1v1h-1zm-2 1h1v1h-1zm47 0h1v1h-1zm-6 4h1v1h-1zm-36 4h1v1h-1zm31 0h1v1h-1zm-4 3h1v1h-1zm-1 1h1v1h-1zm-20 3h1v1h-1zm1 1h1v1h-1zm1 1h1v1h-1zm12 0h1v1h-1zm-1 1h1v1h-1zm-9 1h1v1h-1zm8 0h1v1h-1zm-7 1h1v1h-1zm6 0h1v1h-1zm-5 1h1v1h-1zm3 1h1v1h-1zm51 94h4v1h-4zm4 0h1v1h-1zm9 1h11v1h-11zm11 0h1v1h-1zm5 0h7v1h-7zm7 0h1v1h-1zm0 1h1v1h-1zm-45 2h1v2h-1zm0 2h1v1h-1zm38 2h1v1h-1zm-37 1h1v1h-1zm0 1h1v1h-1zm1 4h1v1h-1zm24 2h1v1h-1zm-6 3h1v1h-1zm-16 3h1v1h-1zm8 0h1v1h-1zm-8 1h1v1h-1zm5 0h1v1h-1zm1 0h1v1h-1z" fill="#70c274"/><path d="M69 18h1v1h-1zm-7 6h1v1h-1zm-1 1h1v1h-1zm19 5h1v1h-1zm-30 9h1v1h-1zm42 5h1v1h-1zm-6 7h1v1h-1zm-41 2h1v1h-1zm35 6h1v1h-1zm-29 3h1v1h-1zm3 4h1v1h-1zm5 6h1v1h-1zm87 0h1v1h-1zm-8 1h1v1h-1zm12 0h1v1h-1zm5 1h1v1h-1zm6 1h1v1h-1zm1 0h1v1h-1zm47 0h1v1h-1zm-39 1h1v1h-1zm30 0h1v1h-1zm1 0h1v1h-1zm9 8h1v1h-1zm-73 4h1v8h-1zm72 3h1v1h-1zm-72 5h1v1h-1zm70 3h1v1h-1zm-3 8h1v1h-1zm-66 5h1v1h-1zm63 1h1v1h-1zm-1 2h1v1h-1zm-59 2h1v1h-1zm6 1h1v1h-1zm47 0h1v1h-1zm-38 1h1v1h-1zm28 0h1v1h-1zm1 0h1v1h-1z" fill="#d9f2fa"/><path d="M71 19h1v1h-1zm-7 4h1v1h-1zm-1 1h1v1h-1zm-2 2h1v1h-1zm15 0h1v1h-1zm-16 1h1v1h-1zm-1 1h1v1h-1zm-4 5h1v1h-1zm-6 9h1v1h-1zm-1 2h1v1h-1zm38 6h1v1h-1zm-41 2h1v1h-1zm2 3h1v1h-1zm2 3h1v1h-1zm5 7h1v1h-1zm5 6h1v1h-1zm93 3h1v1h-1zm11 2h1v1h-1zm-95 1h1v1h-1zm106 0h1v1h-1zm1 0h1v1h-1zm19 0h1v1h-1zm1 0h1v1h-1zm14 9h1v1h-1zm-3 14h1v1h-1zm-1 3h1v1h-1zm-67 2h1v1h-1zm63 7h1v1h-1zm-56 5h1v1h-1zm51 0h1v1h-1zm1 0h1v1h-1zm-44 1h1v1h-1zm35 0h1v1h-1zm-19 1h3v1h-3zm3 0h1v1h-1z" fill="#66c0e9"/><path d="M144 19h1v1h-1zm-12 2h1v1h-1zm-7 5h1v1h-1zm-4 3h1v1h-1zm18 1h1v1h-1zm-24 4h1v1h-1zm-7 6h1v1h-1zm-1 1h1v1h-1zm5 6h1v1h-1zm3 2h1v1h-1zm18 0h1v1h-1zm-1 4h1v1h-1zm-20 5h1v1h-1zm9 5h1v1h-1zm-34 1h1v1h-1zm-2 3h1v1h-1zm44 4h1v1h-1zm-51 8h1v1h-1zm50 3h1v2h-1zm0 2h1v1h-1zm-53 1h1v1h-1zm9 9h1v1h-1zm-11 4h1v1h-1zm3 2h1v1h-1zm19 1h1v1h-1zm-27 1h1v1h-1zm11 0h1v1h-1zm49 0h1v2h-1zm-46 2h1v1h-1zm19 0h1v1h-1zm27 0h1v1h-1zm-61 1h1v1h-1zm22 3h1v1h-1zm21 0h1v1h-1zm5 2h1v1h-1zm3 1h1v1h-1zm-21 1h1v1h-1zm24 0h1v1h-1zm-22 1h1v1h-1zm25 0h1v1h-1zm4 1h1v1h-1zm-65 4h1v1h-1zm61 4h1v1h-1zm6 3h1v1h-1zm1 6h1v1h-1zm1 5h1v1h-1zm-63 1h1v1h-1zm4 3h1v1h-1zm3 2h1v1h-1zm7 4h1v1h-1zm2 1h1v1h-1zm7 3h1v1h-1zm10 3h1v1h-1zm34 0h1v1h-1zm-30 1h1v1h-1zm5 1h1v1h-1z" fill="#a1c6e2"/><path d="M50 171h1v1h-1zm-42 6h1v1H8zm126 4h1v1h-1zm59 0h1v1h-1zM8 183h1v1H8zm16 0h1v1h-1zm23 2h1v1h-1zm16 0h3v1h-3zm3 0h1v2h-1zm16 0h2v1h-2zm2 0h1v1h-1zm36 0h2v1h-2zm2 0h1v1h-1zm44 0h2v1h-2zm2 0h1v1h-1zm55 0h2v1h-2zm2 0h1v1h-1zm-194 1h1v1h-1zm162 0h1v1h-1zm-181 1h1v1h-1zm54 0h1v1h-1zm70 0h1v16h-1zm33 0h1v1h-1zM5 188h1v1H5zm73 1h1v1h-1zm-67 1h1v1h-1zm69 0h1v1h-1zm45 0h1v1h-1zm107 0h1v1h-1zm-71 1h1v1h-1zm-147 1h1v1h-1zm41 0h1v1h-1zm2 1h1v1h-1zm146 1h1v1h-1zm-190 1h1v1h-1zm6 0h1v1h-1zm199 0h14v1h-14zm14 0h1v1h-1zm-160 1h1v1h-1zm-56 1h1v1h-1zm58 0h1v1h-1zm128 0h1v1h-1zm-182 1h1v1h-1zm69 0h1v1h-1zm72 0h1v1h-1zm-72 1h1v1h-1zm143 0h1v1h-1zm-200 2h1v1h-1zm25 0h1v1h-1zm15 0h1v1h-1zm5 0h1v1h-1zm9 0h1v1h-1zm131 0h1v1h-1zm-136 1h1v1h-1zm84 0h1v1h-1zm53 0h1v1h-1zm-131 1h1v1h-1zm49 0h1v1h-1zm34 1h1v1h-1z" fill="#c9cacb"/><path d="M54 172h1v1h-1zm52 2h1v1h-1zm2 1h1v28h-1zm-79 1h1v1h-1zm-24 1h1v1H5zm131 1h1v1h-1zm-98 1h1v1h-1zm0 1h1v1h-1zm-8 1h1v1h-1zm-26 1h1v1H4zm6 0h1v1h-1zm18 0h1v1h-1zm-5 3h1v1h-1zm100 0h1v1h-1zm46 0h1v1h-1zm13 0h1v1h-1zm40 0h1v1h-1zm4 0h1v1h-1zm-201 1h1v1h-1zm20 0h1v1h-1zm91 0h1v1h-1zm-73 1h1v1h-1zm21 0h1v1h-1zm36 0h1v1h-1zm46 0h1v1h-1zm34 0h1v1h-1zm23 0h2v1h-2zm2 0h1v1h-1zm-15 3h1v1h-1zm6 0h1v1h-1zM2 192h1v1H2zm80 0h1v1h-1zm34 1h1v1h-1zm102 0h12v1h-12zm12 0h1v1h-1zm-158 1h1v1h-1zm143 0h1v1h-1zm-182 1h1v1h-1zm39 0h1v1h-1zm143 0h1v1h-1zm-158 1h1v1h-1zm-56 1h1v1H1zm16 2h1v1h-1zm60 0h1v1h-1zm-62 1h1v1h-1zm44 0h1v1h-1zm11 0h1v1h-1zm149 0h1v1h-1zm-159 1h1v1h-1zm-2 1h1v1h-1zm4 0h1v1h-1zm160 0h1v1h-1zm-114 1h1v1h-1zm83 0h1v1h-1zM1 204h1v1H1zm33 0h1v1h-1zm14 0h1v1h-1zm59 0h1v1h-1zm8 0h1v1h-1zm20 0h1v1h-1zm9 0h1v1h-1zm48 0h1v1h-1zm13 0h1v1h-1zm16 0h1v1h-1zm6 0h1v1h-1z" fill="#d3d3d3"/><path d="M51 173h1v1h-1zm-4 2h1v1h-1zm-21 2h1v1h-1zm15 1h1v1h-1zm92 1h1v1h-1zm61 0h1v1h-1zm-164 1h1v1h-1zm164 0h1v1h-1zM4 181h1v1H4zm187 0h1v1h-1zm-165 3h1v1h-1zm5 1h1v1h-1zm20 0h2v1h-2zm2 0h1v1h-1zm28 0h1v1h-1zm4 0h1v1h-1zm30 0h1v1h-1zm4 0h1v1h-1zm5 0h1v1h-1zm11 0h1v1h-1zm12 0h1v1h-1zm23 0h1v1h-1zm17 0h1v1h-1zm5 0h1v1h-1zm6 0h1v1h-1zm15 0h1v1h-1zM9 186h1v1H9zm13 1h1v1h-1zm23 0h1v1h-1zm13 0h1v1h-1zm6 0h1v1h-1zm57 0h1v1h-1zm33 0h1v16h-1zm7 0h1v1h-1zm6 0h1v1h-1zm51 0h1v1h-1zm-171 1h1v1h-1zm10 0h1v1h-1zm15 0h1v1h-1zm88 0h1v1h-1zm57 0h1v1h-1zM5 189h1v1H5zm16 1h1v1h-1zm11 0h1v1h-1zm141 0h1v1h-1zm-115 1h1v1h-1zm13 0h1v1h-1zm7 0h1v1h-1zm47 0h1v1h-1zm93 0h1v1h-1zm-57 1h1v1h-1zm39 1h1v1h-1zm-185 1h1v1h-1zm7 0h1v1h-1zm35 0h1v1h-1zm0 1h1v1h-1zm26 0h1v1h-1zm33 0h1v8h-1zm-95 1h1v1h-1zm-3 1h1v1h-1zm71 0h1v1h-1zm129 1h1v1h-1zm-184 1h1v1h-1zm39 1h1v1h-1zm-73 1h1v1H0zm160 0h1v1h-1zm60 0h1v1h-1zm-16 1h1v1h-1zm-145 1h1v1h-1zm57 0h1v1h-1zm38 0h1v1h-1zM0 204h1v1H0zm68 0h1v1h-1zm12 0h1v1h-1zm63 0h1v1h-1zm33 0h1v1h-1z" fill="#e2e3e3"/><g fill="#fff"><path d="M0 0h109v1H0zm109 0h1v1h-1zm31 0h93v1h-93zm93 0h1v190h-1zM0 1h104v1H0zm104 0h1v1h-1zm41 0h88v5h-88zM0 2h101v1H0zm101 0h1v1h-1zM0 3h97v1H0zm97 0h1v1h-1z"/><path d="M144 3h89v3h-89zM0 4h93v1H0zm93 0h1v1h-1z"/><path d="M142 4h91v2h-91zM0 5h91v1H0zm91 0h1v1h-1z"/><path d="M141 5h92v1h-92zM0 6h89v1H0zm89 0h1v1h-1zm50 0h94v1h-94zM0 7h86v1H0zm86 0h1v1h-1zm51 0h23v2h-23zm23 0h1v1h-1zm3 0h70v1h-70zM0 8h84v1H0zm84 0h1v1h-1z"/><path d="M136 8h23v1h-23zm29 0h68v1h-68zM0 9h82v1H0zm82 0h1v1h-1zm52 0h25v1h-25zm25 0h1v1h-1zm8 0h66v1h-66zM0 10h80v1H0zm80 0h1v1h-1zm53 0h14v1h-14zm14 0h1v1h-1zm3 0h8v2h-8zm8 0h1v1h-1zm11 0h64v1h-64zM0 11h78v6H0zm78 0h1v16h-1zm53 0h14v1h-14zm14 0h1v1h-1zm26 0h62v1h-62zm-41 1h14v1h-14zm14 0h1v1h-1zm5 0h8v1h-8zm8 0h1v1h-1zm16 0h60v1h-60zm-44 1h13v1h-13zm13 0h1v1h-1zm7 0h7v2h-7zm7 0h1v1h-1zm18 0h59v1h-59zm-95 1h1v14h-1zm48 0h13v1h-13zm13 0h1v1h-1z"/><path d="M148 14h7v3h-7zm28 0h57v1h-57zm-50 1h13v1h-13zm13 0h1v1h-1z"/><path d="M147 15h8v2h-8zm8 0h1v1h-1zm22 0h56v1h-56zm-97 1h1v13h-1zm44 0h14v1h-14zm14 0h1v1h-1zm40 0h55v1h-55z"/><path d="M0 17h81v1H0zm81 0h1v13h-1zm42 0h13v1h-13zm13 0h1v1h-1zm10 0h8v1h-8zm8 0h1v1h-1zm26 0h53v1h-53zM0 18h68v1H0zm68 0h1v1h-1zm4 0h9v1h-9zm49 0h13v1h-13zm13 0h1v1h-1zm12 0h7v2h-7zm7 0h1v1h-1zm28 0h52v1h-52zM0 19h67v1H0zm67 0h1v1h-1z"/><path d="M73 19h9v1h-9zm9 0h1v12h-1zm38 0h13v1h-13zm13 0h1v1h-1zm12 0h7v4h-7zm37 0h51v1h-51zM0 20h66v1H0zm66 0h1v1h-1z"/><path d="M73 20h10v1H73zm10 0h1v12h-1zm36 0h13v1h-13zm13 0h1v1h-1zm20 0h1v1h-1zm31 0h50v1h-50zM0 21h64v1H0zm64 0h1v1h-1z"/><path d="M74 21h10v1H74zm10 0h1v13h-1zm34 0h12v1h-12zm12 0h1v1h-1zm14 0h7v3h-7zm41 0h48v1h-48zM0 22h63v1H0zm63 0h1v1h-1z"/><path d="M75 22h10v1H75zm10 0h1v13h-1zm31 0h13v1h-13zm13 0h1v1h-1zm57 0h47v1h-47zM0 23h62v1H0zm62 0h1v1h-1zm13 0h10v1H75zm40 0h13v1h-13zm13 0h1v1h-1zm15 0h8v1h-8zm8 0h1v1h-1zm36 0h46v1h-46zM0 24h61v1H0zm61 0h1v1h-1z"/><path d="M76 24h10v1H76zm10 0h1v12h-1zm28 0h12v1h-12zm12 0h1v1h-1zm17 0h7v3h-7zm7 0h1v1h-1zm38 0h45v1h-45zM0 25h60v1H0zm60 0h1v1h-1z"/><path d="M77 25h10v1H77zm10 0h1v12h-1zm26 0h12v1h-12zm12 0h1v1h-1zm17 0h7v5h-7zm47 0h44v1h-44zM0 26h59v1H0zm59 0h1v1h-1zm29 0h1v12h-1zm24 0h11v1h-11zm11 0h1v1h-1zm67 0h43v1h-43zM0 27h58v1H0zm58 0h1v1h-1z"/><path d="M78 27h10v1H78zm32 0h13v1h-13zm13 0h1v1h-1zm26 0h1v1h-1zm42 0h42v1h-42zM0 28h57v2H0zm57 0h1v1h-1zm22 0h11v1H79zm11 0h1v12h-1zm19 0h12v1h-12zm12 0h1v1h-1zm20 0h7v4h-7zm51 0h41v1h-41z"/><path d="M80 29h11v1H80zm11 0h1v12h-1zm17 0h12v1h-12zm12 0h1v1h-1zm73 0h40v1h-40zM0 30h56v1H0zm56 0h1v1h-1zm25 0h10v1H81zm26 0h11v1h-11zm11 0h1v1h-1zm22 0h8v2h-8zm8 0h1v1h-1zm46 0h39v1h-39zM0 31h55v1H0zm55 0h1v1h-1z"/><path d="M82 31h10v1H82zm10 0h1v11h-1zm14 0h11v1h-11zm11 0h1v1h-1zm77 0h39v1h-39zM0 32h54v2H0zm54 0h1v1h-1z"/><path d="M83 32h10v1H83zm10 0h1v22h-1zm12 0h11v1h-11zm11 0h1v1h-1zm23 0h8v2h-8zm8 0h1v1h-1zm48 0h38v1h-38z"/><path d="M89 33h5v6h-5zm5 0h1v20h-1zm10 0h11v1h-11zm11 0h1v1h-1zm81 0h37v1h-37zM0 34h53v1H0zm53 0h1v1h-1z"/><path d="M84 34h11v1H84zm11 0h1v18h-1zm8 0h10v1h-10zm10 0h1v1h-1zm26 0h7v3h-7zm7 0h1v1h-1zm51 0h36v1h-36zM0 35h52v1H0zm52 0h1v1h-1z"/><path d="M85 35h11v1H85zm11 0h1v16h-1zm5 0h11v1h-11zm11 0h1v1h-1zm26 0h7v6h-7zm59 0h36v1h-36zM0 36h51v2H0zm51 0h1v1h-1z"/><path d="M86 36h11v1H86zm11 0h1v14h-1zm4 0h10v1h-10zm10 0h1v1h-1zm87 0h35v1h-35z"/><path d="M87 37h23v1H87zm23 0h1v1h-1zm35 0h1v1h-1zm54 0h34v1h-34zM0 38h50v2H0zm50 0h1v1h-1zm38 0h21v1H88zm21 0h1v1h-1zm28 0h7v5h-7zm62 0h34v1h-34zM89 39h19v1H89zm19 0h1v1h-1zm92 0h33v1h-33zM0 40h49v2H0zm49 0h1v1h-1zm41 0h17v1H90zm17 0h1v1h-1zm94 0h32v1h-32zM91 41h15v1H91zm15 0h1v1h-1z"/><path d="M136 41h8v2h-8zm8 0h1v1h-1zm57 0h32v1h-32zM0 42h48v1H0zm48 0h1v1h-1zm44 0h13v1H92zm13 0h1v10h-1zm97 0h31v1h-31zM0 43h47v2H0zm47 0h1v1h-1zm51 0h7v5h-7zm38 0h7v3h-7zm7 0h1v1h-1zm59 0h31v1h-31zm-96 1h1v9h-1z"/><path d="M135 44h7v8h-7zm68 0h30v1h-30zM0 45h46v3H0zm46 0h1v1h-1zm46 0h15v3H92zm15 0h1v8h-1zm96 0h30v1h-30z"/><path d="M91 46h18v2H91zm18 0h1v9h-1zm33 0h1v1h-1zm62 0h29v1h-29z"/><path d="M90 47h20v1H90zm20 0h1v9h-1zm94 0h29v1h-29zM0 48h45v1H0zm45 0h1v1h-1z"/><path d="M89 48h23v1H89zm23 0h1v9h-1zm93 0h28v1h-28zM0 49h44v13H0zm44 0h1v1h-1zm45 0h9v1h-9zm9 0h1v1h-1z"/><path d="M101 49h12v1h-12zm12 0h1v8h-1zm21 0h7v7h-7zm71 0h28v1h-28zM88 50h9v1h-9zm9 0h1v1h-1z"/><path d="M102 50h13v1h-13zm13 0h1v9h-1zm91 0h27v2h-27zM87 51h9v1h-9zm9 0h1v1h-1z"/><path d="M103 51h13v1h-13zm13 0h1v8h-1zm-30 1h9v1h-9zm9 0h1v1h-1z"/><path d="M104 52h14v1h-14zm14 0h1v8h-1zm15 0h8v4h-8zm8 0h1v1h-1zm65 0h27v1h-27zM44 53h1v13h-1zm41 0h9v1h-9zm9 0h1v1h-1z"/><path d="M106 53h14v1h-14zm14 0h1v8h-1zm87 0h26v2h-26zM45 54h1v13h-1zm40 0h8v2h-8zm8 0h1v1h-1z"/><path d="M108 54h14v1h-14zm14 0h1v8h-1zm-38 1h8v2h-8z"/><path d="M109 55h15v1h-15zm15 0h1v8h-1zm83 0h26v1h-26zM46 56h1v13h-1zm37 0h9v1h-9zm9 0h1v1h-1z"/><path d="M110 56h15v1h-15zm15 0h1v7h-1zm7 0h8v13h-8zm8 0h1v1h-1zm68 0h25v2h-25zM47 57h1v13h-1zm35 0h9v1h-9zm9 0h1v1h-1z"/><path d="M112 57h16v1h-16zm16 0h1v8h-1zm-46 1h8v1h-8zm8 0h1v1h-1z"/><path d="M114 58h25v1h-25zm94 0h25v1h-25zM48 59h1v12h-1zm33 0h8v2h-8zm8 0h1v1h-1zm26 0h24v1h-24zm94 0h24v4h-24zM49 60h1v13h-1z"/><path d="M80 60h8v3h-8zm37 0h22v1h-22z"/><path d="M79 61h9v2h-9zm9 0h1v1h-1zm31 0h20v1h-20zM0 62h50v1H0zm50 0h1v12h-1zm71 0h20v1h-20zm20 0h1v8h-1zM0 63h39v109H0zm39 0h1v5h-1z"/><path d="M43 63h8v1h-8zm8 0h1v13h-1zm27 0h9v1h-9zm9 0h1v1h-1zm36 0h21v1h-21zm21 0h1v7h-1zm65 0h24v1h-24z"/><path d="M43 64h9v1h-9zm9 0h1v13h-1zm25 0h9v1h-9zm9 0h1v1h-1zm40 0h23v1h-23zm23 0h1v8h-1zm61 0h23v10h-23zM77 65h8v2h-8zm8 0h1v1h-1z"/><path d="M127 65h25v1h-25zm25 0h1v8h-1zM44 66h9v1h-9zm9 0h1v12h-1zm23 0h8v2h-8z"/><path d="M129 66h28v1h-28zm28 0h1v7h-1zM45 67h9v1h-9zm9 0h1v12h-1zm21 0h9v1h-9zm9 0h1v1h-1z"/><path d="M131 67h35v2h-35zm35 0h1v8h-1zm41 0h26v7h-26zM39 68h1v1h-1zm16 0h1v12h-1zm20 0h8v2h-8zm8 0h1v1h-1z"/><path d="M167 68h66v6h-66zM46 69h10v1H46zm10 0h1v12h-1zm18 0h8v3h-8z"/><path d="M131 69h102v1H131zm-84 1h9v1h-9zm35 0h1v1h-1zm48 0h7v53h-7zm7 0h1v12h-1zm4 0h92v1h-92zm-93 1h9v1h-9zm9 0h1v12h-1zm16 0h8v3h-8zm72 0h88v1h-88zm-87 1h1v12h-1z"/><path d="M72 72h9v2h-9zm9 0h1v1h-1zm67 0h85v1h-85zm-99 1h10v1H49zm10 0h1v12h-1zm92 0h82v1h-82z"/><path d="M50 74h10v1H50zm10 0h1v12h-1zm11 0h9v1h-9zm9 0h1v1h-1zm78 0h75v1h-75zm-97 1h1v12h-1zm10 0h8v2h-8zm8 0h1v1h-1zm85 0h42v1h-42zm42 0h1v1h-1zm5 0h22v109h-22z"/><path d="M51 76h11v1H51zm11 0h1v11h-1zm8 0h8v3h-8zm104 0h22v1h-22zm22 0h1v1h-1z"/><path d="M52 77h11v1H52zm11 0h1v39h-1zm15 0h1v1h-1z"/><path d="M53 78h11v1H53zm11 0h1v33h-1zm5 0h8v3h-8zm60 0h8v31h-8zm-75 1h10v1H54z"/><path d="M68 79h9v2h-9zm9 0h1v1h-1zm-22 1h10v1H55zm10 0h1v28h-1z"/><path d="M56 81h20v1H56zm20 0h1v1h-1zm-10 1h9v3h-9zm9 0h1v1h-1zm62 0h1v1h-1z"/><path d="M57 83h18v1H57zm18 0h1v1h-1zm-17 1h16v1H58zm1 1h15v1H59zm15 0h1v1h-1zm-14 1h13v1H60zm13 0h1v11h-1zm137 0h23v98h-23zM61 87h12v1H61zm-22 1h1v88h-1z"/><path d="M66 88h8v7h-8zm8 0h1v10h-1zm1 1h1v9h-1zm1 0h1v10h-1zm1 1h1v9h-1zm1 1h1v9h-1zm1 1h1v9h-1zm1 0h1v9h-1zm129 0h24v92h-24zM40 93h1v83h-1z"/><path d="M62 93h19v2H62zm19 0h1v9h-1zm1 1h1v9h-1z"/><path d="M61 95h23v1H61zm23 0h1v9h-1zm-23 1h8v3h-8zm8 0h1v1h-1z"/><path d="M72 96h13v1H72zm13 0h1v9h-1zm-44 1h1v80h-1zm19 0h9v2h-9zm9 0h1v1h-1z"/><path d="M73 97h14v1H73zm14 0h1v9h-1z"/><path d="M74 98h14v1H74zm14 0h1v8h-1zm120 0h25v86h-25zM60 99h8v3h-8zm8 0h1v1h-1z"/><path d="M76 99h14v1H76zm14 0h1v8h-1zm-48 1h1v78h-1zm17 0h8v6h-8z"/><path d="M78 100h14v1H78zm14 0h1v9h-1z"/><path d="M79 101h14v1H79zm14 0h1v8h-1zm114 0h26v83h-26zm-140 1h1v1h-1z"/><path d="M81 102h14v1H81zm14 0h1v8h-1zm42 0h1v51h-1zm-79 1h8v5h-8z"/><path d="M82 103h15v1H82zm15 0h1v8h-1zm109 0h27v81h-27zm-163 1h1v111h-1z"/><path d="M84 104h15v1H84zm15 0h1v8h-1z"/><path d="M85 105h16v1H85zm16 0h1v7h-1zm-57 1h1v109h-1zm13 0h9v2h-9zm9 0h1v1h-1z"/><path d="M87 106h16v1H87zm16 0h1v7h-1zm102 0h28v78h-28z"/><path d="M89 107h16v1H89zm16 0h1v7h-1zm-60 1h1v76h-1zm12 0h8v3h-8zm8 0h1v1h-1z"/><path d="M91 108h16v1H91zm16 0h1v7h-1z"/><path d="M92 109h18v1H92zm18 0h1v7h-1zm19 0h8v1h-8zm75 0h29v75h-29zm-158 1h1v74h-1zm10 0h8v6h-8z"/><path d="M95 110h18v1H95zm18 0h1v7h-1zm90 0h30v74h-30zm-139 1h1v1h-1z"/><path d="M97 111h18v1H97zm18 0h1v7h-1zm-68 1h1v61h-1z"/><path d="M98 112h20v1H98zm20 0h1v7h-1zm84 0h31v72h-31zm-147 1h8v6h-8z"/><path d="M102 113h20v1h-20zm20 0h1v7h-1zm-74 1h1v58h-1z"/><path d="M104 114h21v1h-21zm21 0h1v7h-1zm76 0h32v70h-32z"/><path d="M106 115h31v1h-31zm-57 1h1v54h-1zm5 0h9v3h-9zm9 0h1v1h-1zm45 0h29v1h-29zm92 0h33v68h-33zm-88 1h28v1h-28zm28 0h1v7h-1z"/><path d="M199 117h34v67h-34zm-149 1h1v52h-1zm64 0h30v1h-30zm30 0h1v7h-1z"/><path d="M197 118h36v66h-36zm-146 1h1v50h-1zm3 0h8v3h-8zm8 0h1v1h-1zm54 0h34v1h-34zm34 0h1v7h-1z"/><path d="M191 119h42v57h-42zm-139 1h9v6h-9z"/><path d="M120 120h113v1H120zm4 1h109v1H124zm-63 1h1v1h-1zm66 0h106v1H127zm3 1h103v1H130zm1 1h102v1H131zm0 1h8v2h-8zm8 0h94v1h-94zm-87 1h8v43h-8zm8 0h1v1h-1zm79 0h1v89h-1zm9 0h85v1h-85zm-17 1h8v1h-8zm30 0h27v1h-27zm27 0h1v1h-1zm-56 1h7v5h-7zm-72 2h1v55h-1zm129 0h44v46h-44zm-128 1h1v53h-1zm79 0h1v84h-1z"/><path d="M188 131h45v45h-45zm-126 1h1v52h-1z"/><path d="M187 132h46v44h-46zm-124 1h1v51h-1zm69 0h8v1h-8z"/><path d="M186 133h47v43h-47zm-122 1h1v50h-1zm69 0h7v3h-7z"/><path d="M185 134h48v42h-48zm-120 1h1v49h-1z"/><path d="M184 135h49v41h-49zm-118 1h1v48h-1zm75 0h1v48h-1z"/><path d="M183 136h50v40h-50zm-116 1h1v47h-1zm66 0h8v1h-8z"/><path d="M182 137h51v39h-51zm-114 1h1v46h-1zm1 0h1v47h-1zm65 0h7v3h-7z"/><path d="M180 138h53v38h-53zm-110 1h1v46h-1z"/><path d="M179 139h54v37h-54zm-108 1h1v46h-1z"/><path d="M178 140h55v36h-55zm-106 1h1v46h-1zm1 0h1v47h-1zm61 0h7v1h-7z"/><path d="M176 141h57v35h-57zm-102 1h1v48h-1zm1 0h1v73h-1zm60 0h6v5h-6z"/><path d="M174 142h59v34h-59zm-98 1h1v72h-1zm66 0h1v35h-1z"/><path d="M173 143h60v33h-60zm-96 1h1v54h-1z"/><path d="M172 144h61v32h-61zm-94 1h2v40h-2zm2 0h1v39h-1z"/><path d="M170 145h63v31h-63zm-89 1h1v38h-1zm62 0h1v32h-1z"/><path d="M168 146h65v30h-65zm-86 1h1v37h-1zm1 0h1v37h-1zm52 0h8v1h-8z"/><path d="M166 147h67v29h-67zm-82 1h1v36h-1zm1 0h1v36h-1zm51 0h7v2h-7z"/><path d="M164 148h69v28h-69zm-78 1h2v35h-2zm2 0h1v37h-1zm56 0h1v29h-1z"/><path d="M161 149h72v27h-72zm-72 1h1v46h-1zm1 0h1v65h-1zm46 0h8v1h-8z"/><path d="M159 150h74v26h-74zm-68 1h1v64h-1zm1 0h1v64h-1zm46 0h6v27h-6z"/><path d="M157 151h76v25h-76zm-64 1h3v63h-3zm3 0h1v63h-1z"/><path d="M153 152h80v24h-80zm-56 1h2v62h-2zm2 0h1v62h-1zm38 0h8v1h-8zm8 0h1v25h-1z"/><path d="M150 153h83v23h-83zm-50 1h2v61h-2zm2 0h1v61h-1z"/><path d="M147 154h86v22h-86zm-44 1h3v60h-3zm3 0h1v18h-1z"/><path d="M146 155h87v21h-87zm-39 1h9v17h-9zm9 0h1v28h-1z"/><path d="M132 156h101v20H132z"/><path d="M117 157h116v19H117z"/><path d="M51 169h182v1H51zm-2 1h1v1h-1zm1 0h1v1h-1zm4 0h179v1H54zm1 1h178v2H55zm-55 1h48v1H0zm48 0h1v1h-1zm-48 1h5v6H0zm5 0h1v1H5zm3 0h19v2H8zm19 0h20v1H27zm20 0h1v1h-1zm8 0h178v1H55zm-50 1h1v1H5zm22 0h1v1h-1zm3 0h16v2H30zm21 0h54v10H51zm58 0h124v2H109zM8 175h18v1H8zm18 0h1v1h-1z"/><path d="M50 175h55v9H50zm-41 1h17v1H9zm17 0h1v1h-1zm4 0h16v1H30zm79 0h124v1H109zM9 177h16v1H9zm16 0h1v1h-1zm5 0h8v1h-8zm8 0h1v1h-1zm3 0h5v1h-5zm68 0h25v1h-25zm25 0h17v1h-17zm17 0h1v1h-1zm3 0h37v1h-37zm37 0h42v1h-42zm-181 1h15v2H10zm15 0h1v1h-1zm6 0h7v4h-7zm7 0h1v1h-1zm4 0h4v1h-4zm67 0h24v6h-24zm24 0h1v1h-1zm4 0h13v1h-13zm13 0h1v37h-1zm5 0h35v1h-35zm35 0h1v37h-1zm5 0h38v6h-38zM0 179h4v6H0zm4 0h1v1H4zm134 0h3v36h-3zm8 0h4v5h-4zm10 0h25v5h-25zm25 0h1v5h-1zm4 0h5v5h-5zm-175 1h14v1H10zm14 0h1v1h-1zm-13 1h13v2H11zm13 0h1v1h-1zm14 0h1v34h-1zm4 0h4v3h-4zm91 0h1v34h-1z"/><path d="M137 181h4v34h-4zm18 0h26v3h-26zm39 0h39v3h-39zM7 182h1v33H7zm24 0h15v1H31z"/><path d="M134 182h7v2h-7zm17 0h30v2h-30zm40 0h42v2h-42zm-180 1h12v1H11zm12 0h1v1h-1zm4 0h1v32h-1zm5 0h14v1H32zm-20 1h10v1H12zm10 0h1v2h-1zm10 0h14v1H32zm14 0h1v1h-1zm4 0h55v1H50zm59 0h32v1h-32zm32 0h1v1h-1zm5 0h35v1h-35zm35 0h1v1h-1zm4 0h48v1h-48zM0 185h3v5H0zm3 0h1v1H3zm5 0h1v30H8zm4 0h10v1H12zm20 0h6v4h-6zm10 0h2v30h-2zm13 0h5v1h-5zm5 0h1v1h-1zm9 0h10v1H69zm10 0h1v1h-1zm8 0h18v1H87zm22 0h4v30h-4zm4 0h1v30h-1zm12 0h8v1h-8zm24 0h2v30h-2zm2 0h1v30h-1zm4 0h8v1h-8zm8 0h1v1h-1zm9 0h1v1h-1zm1 0h1v1h-1zm4 0h3v30h-3zm3 0h1v30h-1zm8 0h2v30h-2zm6 0h2v30h-2zm2 0h1v30h-1zm4 0h11v1h-11zm11 0h1v1h-1zm4 0h5v1h-5zm5 0h1v1h-1zm9 0h4v1h-4zm-216 1h9v1h-9zm9 0h1v1h-1z"/><path d="M26 186h2v29h-2zm2 0h1v29h-1zm27 0h4v1h-4zm4 0h1v1h-1zm12 0h7v1h-7zm7 0h1v1h-1zm10 0h17v1H88zm39 0h6v1h-6zm28 0h6v1h-6zm6 0h1v1h-1zm12 0h1v1h-1zm28 0h10v1h-10zm10 0h1v1h-1zm4 0h3v1h-3zm3 0h1v1h-1zm12 0h3v1h-3zM9 187h1v28H9zm4 0h8v1h-8zm8 0h1v1h-1z"/><path d="M25 187h3v28h-3zm30 0h2v1h-2zm2 0h1v1h-1zm15 0h5v1h-5zm55 0h6v1h-6zm28 0h5v2h-5zm5 0h1v1h-1zm37 0h1v28h-1zm4 0h9v1h-9zm9 0h1v1h-1zm5 0h2v1h-2zm2 0h1v1h-1zm14 0h2v1h-2zM6 188h3v27H6zm8 0h7v3h-7zm7 0h1v1h-1zm24 0h1v27h-1zm1 0h1v27h-1zm4 0h6v2h-6zm6 0h1v1h-1zm6 0h5v13h-5zm5 0h1v13h-1zm6 0h4v1h-4zm9 0h2v3h-2zm2 0h1v4h-1zm35 0h4v27h-4zm4 0h1v27h-1zm5 0h5v27h-5zm13 0h1v27h-1zm5 0h5v27h-5zm19 0h5v13h-5zm5 0h1v13h-1zm11 0h1v27h-1zm4 0h5v27h-5zm17 0h8v2h-8zm8 0h1v1h-1zm4 0h2v3h-2zm2 0h1v1h-1zm6 0h5v4h-5zm5 0h1v4h-1zm5 0h1v1h-1zm-222 1h1v26h-1zm22 0h6v1h-6z"/><path d="M60 189h8v11h-8zm8 0h1v12h-1zm13 0h4v1h-4zm4 0h1v3h-1zm3 0h17v5H88zm30 0h5v26h-5zm37 0h4v3h-4zm4 0h1v1h-1zm5 0h7v12h-7zm7 0h1v11h-1zm27 0h1v26h-1zm22 0h8v3h-8zm8 0h1v3h-1zM0 190h2v3H0zm2 0h1v1H2zm31 0h5v2h-5zm17 0h5v25h-5zm5 0h1v1h-1zm14 0h1v10h-1zm1 0h1v9h-1zm4 0h3v1h-3z"/><path d="M81 190h24v1H81zm43 0h1v25h-1zm39 0h9v10h-9zm9 0h1v9h-1zm30 0h7v1h-7zm7 0h1v1h-1zm4 0h2v25h-2zm16 0h1v2h-1zm4 0h1v1h-1zM5 191h5v24H5zm9 0h6v1h-6zm6 0h1v1h-1zm4 0h5v24h-5zm5 0h1v24h-1zm30 0h11v8H59zm23 0h23v1H82zm35 0h7v24h-7z"/><path d="M162 191h11v7h-11zm11 0h1v7h-1zm30 0h5v1h-5zm5 0h1v2h-1zm7 0h1v1h-1zm4 0h10v1h-10zm-204 1h4v1h-4zm4 0h1v1h-1zm14 0h5v1h-5zm25 0h12v5H58zm26 0h21v1H84zm71 0h3v23h-3zm3 0h1v1h-1zm41 0h1v23h-1zm4 0h5v1h-5zm15 0h12v1h-12zm12 0h1v1h-1zM0 193h1v4H0zm1 0h1v1H1zm10 0h1v22h-1zm4 0h4v1h-4zm4 0h1v1h-1zm4 0h6v22h-6zm11 0h4v3h-4zm37 0h1v4h-1zm7 0h1v4h-1zm8 0h19v1H86zm118 0h4v1h-4zm4 0h1v1h-1zm4 0h2v22h-2zm-200 1h1v21h-1zm4 0h2v1h-2zm2 0h1v1h-1zm12 0h1v21h-1zm49 0h1v4h-1zm9 0h17v1H88z"/><path d="M161 194h12v1h-12zm39 0h1v21h-1zm4 0h3v1h-3zm3 0h1v1h-1zm-190 1h1v2h-1zm1 0h1v1h-1zm4 0h8v20h-8zm58 0h2v5h-2zm2 0h1v6h-1zm79 0h12v1h-12zm44 0h2v2h-2zm2 0h1v1h-1zm4 0h3v20h-3zM4 196h8v19H4zm30 0h4v1h-4zm49 0h1v5h-1zm1 0h1v5h-1zm5 0h16v1H89zm112 0h1v19h-1zm17 0h15v1h-15zm15 0h1v19h-1zM0 197h1v1H0zm13 0h1v18h-1zm4 0h1v1h-1z"/><path d="M21 197h9v18h-9zm14 0h3v4h-3zm23 0h13v1H58zm13 0h1v1h-1zm7 0h7v1h-7zm7 0h1v4h-1zm73 0h1v18h-1zm47 0h1v1h-1zm1 0h1v1h-1zm4 0h4v18h-4zm8 0h15v1h-15z"/><path d="M77 198h9v1h-9zm9 0h1v1h-1zm76 0h11v1h-11zm11 0h1v1h-1zm42 0h1v17h-1zm4 0h11v1h-11zm11 0h3v1h-3zm-199 1h1v16h-1zm24 0h1v16h-1zm4 0h11v1H59zm11 0h1v1h-1zm4 0h2v16h-2zm12 0h1v1h-1zm86 0h1v1h-1zm30 0h1v16h-1zm7 0h6v16h-6zm10 0h10v1h-10zm10 0h1v1h-1zm-215 1h1v15h-1zm46 0h9v1h-9zm9 0h1v1h-1zm11 0h5v1h-5zm83 0h8v1h-8zm8 0h1v1h-1zm49 0h8v1h-8zm8 0h1v1h-1zm-208 1h11v14H20zm15 0h3v1h-3zm21 0h1v14h-1zm5 0h7v1h-7zm7 0h1v1h-1z"/><path d="M73 201h3v14h-3zm8 0h4v1h-4zm4 0h1v1h-1zm74 0h1v14h-1zm5 0h6v1h-6zm6 0h1v1h-1zm33 0h1v14h-1zm13 0h1v14h-1zm5 0h6v1h-6zm6 0h1v1h-1zM3 202h12v13H3zm12 0h1v13h-1zm4 0h12v13H19zm17 0h2v13h-2zm21 0h1v13h-1z"/><path d="M72 202h5v13h-5zm5 0h1v13h-1zm12 0h16v13H89zm71 0h1v13h-1zm48 0h9v13h-9zm9 0h1v13h-1zm14 0h2v13h-2zm-173 1h1v12h-1z"/><path d="M71 203h6v12h-6zm17 0h17v12H88zm73 0h1v12h-1zm43 0h1v12h-1zm14 0h1v12h-1zm-202 1h1v11h-1zm43 0h1v11h-1z"/><path d="M70 204h8v11h-8zm8 0h1v11h-1zm9 0h18v11H87zm75 0h1v11h-1zm10 0h1v11h-1zm1 0h1v11h-1zm34 0h12v11h-12zm12 0h1v11h-1zm10 0h4v11h-4z"/><path d="M0 205h233v10H0zm0 10h233v1H0zm233 0h1v1h-1z"/></g><path d="M114 0h1v1h-1zm21 0h1v1h-1zm-28 1h1v1h-1zm35 0h1v1h-1zm19 6h1v1h-1zm3 1h1v1h-1zm-85 5h1v1h-1zm35 10h1v1h-1zm73 1h1v1h-1zm-79 4h1v1h-1zm39 5h1v1h-1zm-4 12h1v1h-1zm60 1h1v1h-1zm-61 3h1v1h-1zm-1 4h1v1h-1zm67 7h1v1h-1zm-68 1h1v1h-1zm21 5h1v1h-1zm48 0h1v1h-1zm-40 1h1v1h-1zM46 70h1v1h-1zm-6 21h1v1h-1zm16 16h1v1h-1zm-9 4h1v1h-1zm97 15h1v1h-1zm10 1h1v1h-1zm23 1h2v1h-2zm2 0h1v1h-1zm5 6h1v1h-1zm-5 4h1v1h-1zm-9 6h1v1h-1zm-8 4h1v1h-1zm-2 1h1v1h-1zm-5 2h1v1h-1z" fill="#daefdb"/><path d="M140 5h1v1h-1zm-59 5h1v1h-1zm68 1h1v1h-1zm-8 3h1v1h-1zm-6 4h1v1h-1zm-18 3h1v1h-1zm35 0h1v1h-1zm-28 5h1v1h-1zm-35 1h1v1h-1zm52 0h1v1h-1zm-84 2h1v1h-1zm57 5h1v1h-1zm24 0h1v1h-1zm-38 2h1v1h-1zm8 9h1v1h-1zm3 2h1v1h-1zm23 1h1v1h-1zm-90 2h1v2h-1zm73 1h1v1h-1zm-73 1h1v1h-1zm40 2h1v1h-1zm23 0h1v1h-1zm-14 1h1v1h-1zm33 1h1v1h-1zm-78 2h1v1h-1zm33 0h1v1h-1zm8 2h1v1h-1zm-47 3h1v1h-1zm83 1h1v1h-1zm-40 2h1v1h-1zm-2 3h1v1h-1zm55 1h2v1h-2zm2 0h1v1h-1zm17 4h1v1h-1zm-28 3h1v1h-1zm-64 2h1v1h-1zm1 1h1v1h-1zm71 3h1v1h-1zm-63 4h1v1h-1zm-6 13h1v1h-1zm12 2h1v1h-1zm-13 1h1v1h-1zm37 3h1v1h-1zm2 1h1v1h-1zm98 1h1v1h-1zm-139 1h1v1h-1zm-1 3h1v1h-1zm37 1h1v1h-1zm25 1h1v1h-1zm12 2h1v1h-1zm-27 1h1v1h-1zm40 2h1v1h-1zm39 0h1v1h-1zm-31 8h1v1h-1zm1 0h1v1h-1zm30 0h1v2h-1zm-59 1h1v1h-1zm59 1h1v1h-1zm-50 1h1v1h-1zm2 12h1v1h-1zm27 3h1v1h-1zm-23 9h1v1h-1zm-39 1h1v1h-1zm10 1h1v1h-1zm-66 14h2v1h-2zm2 0h1v1h-1zm-46 3h1v1H7zm45 0h2v1h-2zm2 0h1v1h-1zm-49 2h1v1H5zm34 2h1v1h-1zm1 0h1v1h-1zm112 0h1v1h-1zm1 0h1v1h-1zM9 178h1v1H9zm185 0h1v1h-1zm-152 1h1v1h-1zm100 0h1v1h-1zm3 0h1v1h-1zm10 0h1v1h-1zm-113 1h1v1h-1zm113 0h1v1h-1zm-145 1h1v1h-1zm141 0h1v1h-1zm-127 1h1v1h-1zm4 2h1v1h-1zm-2 1h2v1h-2zm2 0h1v1h-1zm13 0h1v1h-1zm13 0h1v1h-1zm26 0h1v1h-1zm6 0h1v1h-1zm30 0h2v1h-2zm2 0h1v1h-1zm30 0h1v1h-1zm6 0h1v1h-1zm20 0h1v1h-1zm17 0h1v1h-1zm37 0h1v1h-1zM3 186h1v1H3zm67 0h1v1h-1zm9 0h1v1h-1zm38 0h1v1h-1zm9 0h1v1h-1zm36 0h1v1h-1zm57 0h1v1h-1zM6 187h1v1H6zm72 0h1v1h-1zm10 0h1v1h-1zm-3 1h1v1h-1zm57 0h1v1h-1zm3 0h1v1h-1zm56 0h1v1h-1zm20 0h1v1h-1zm-200 1h1v1h-1zm35 0h1v1h-1zm13 0h1v1h-1zm55 0h1v1h-1zm39 0h1v1h-1zm53 0h1v1h-1zm-192 1h1v1h-1zm5 0h1v1h-1zm30 0h1v1h-1zm58 0h1v1h-1zm102 0h1v1h-1zm-145 1h1v1h-1zm128 0h1v1h-1zm7 0h1v1h-1zm-198 1h1v1h-1zm60 0h1v1h-1zm7 0h1v1h-1zm134 0h1v1h-1zm-179 1h1v1h-1zm47 1h1v1h-1zm-64 1h1v1h-1zm217 0h1v1h-1zM0 198h1v1H0zm17 0h1v1h-1zm57 0h1v1h-1zm-60 1h1v1h-1zm-11 1h1v1H3zm17 0h1v1h-1zm139 0h1v1h-1zm13 0h1v1h-1zM3 201h1v1H3zm86 0h1v1h-1zm-54 1h1v2h-1zm43 1h1v1h-1zm152 0h1v1h-1zm-198 1h1v1h-1zm3 0h1v1h-1zm6 0h1v1h-1zm19 0h1v1h-1zm19 0h1v1h-1zm46 0h1v1h-1zm17 0h1v1h-1zm3 0h1v1h-1zm29 0h1v1h-1zm8 0h1v1h-1z" fill="#fbfbfb"/><path d="M67 20h1v1h-1zm5 0h1v1h-1zm3 4h1v1h-1zm-18 6h1v1h-1zm28 6h1v1h-1zm3 3h1v1h-1zm3 3h1v1h-1zm1 1h1v1h-1zM46 54h1v1h-1zm2 3h1v1h-1zm33 0h1v1h-1zm-5 7h1v1h-1zm-3 5h1v1h-1zm-10 7h1v1h-1zm6 0h1v1h-1zm69 0h1v1h-1zm27 0h1v1h-1zm1 0h1v1h-1zm39 0h1v1h-1zm-24 1h5v1h-5zm5 0h1v1h-1zm24 0h1v2h-1zM65 78h1v1h-1zm145 1h1v1h-1zm-1 10h1v1h-1zm-1 5h1v1h-1zm-2 7h1v1h-1zm-1 3h1v1h-1zm-1 2h1v1h-1zm-66 2h1v1h-1zm0 1h1v1h-1zm61 7h1v1h-1zm-57 1h1v1h-1zm7 1h1v1h-1zm43 0h1v1h-1zm-30 1h1v1h-1zm17 0h1v1h-1z" fill="#aadef3"/><path d="M119 31h1v1h-1zm14 17h1v1h-1zm-7 7h1v1h-1zm-35 4h1v1h-1zm-5 7h1v1h-1zm43 3h1v1h-1zm-1 9h1v1h-1zm-53 9h1v1h-1zm2 14h1v1h-1zm31 6h1v1h-1zm20 1h1v1h-1zm-25 7h1v1h-1zm-40 4h1v1h-1zm-1 4h1v1h-1zm10 16h1v1h-1zm6 4h1v1h-1zm58 11h1v1h-1z" fill="#71a6d2"/><path d="M49 174h1v1h-1zm-21 2h1v1h-1zm20 0h1v9h-1zm-41 1h1v1H7zm127 2h1v1h-1zM6 180h1v1H6zm20 0h1v1h-1zm108 0h1v1h-1zm-86 5h1v1h-1zm-44 1h1v1H4zm6 0h1v1h-1zm52 0h1v1h-1zm81 0h1v1h-1zm22 0h1v1h-1zm-97 1h1v1h-1zm50 0h1v1h-1zm46 0h1v1h-1zm19 0h1v1h-1zm1 0h1v1h-1zm-136 1h1v14h-1zm-17 1h1v1h-1zm169 0h1v1h-1zm12 0h1v1h-1zM3 191h1v1H3zm19 0h1v1h-1zm9 1h1v1h-1zm128 1h1v1h-1zm51 0h1v1h-1zm-196 1h1v2h-1zm7 0h1v1h-1zm-18 1h1v1H3zm29 0h1v1h-1zm-18 1h1v1h-1zm145 0h1v1h-1zm44 0h1v1h-1zm-184 1h1v1h-1zm155 2h1v1h-1zm-158 1h1v1h-1zm32 2h1v1h-1zm32 0h1v1h-1zm91 0h1v1h-1zm35 0h1v1h-1zm-189 1h1v1h-1zm49 0h2v1h-2zm2 0h1v1h-1zm12 0h1v1h-1zm89 0h1v1h-1z" fill="#6a6c6d"/><path d="M27 175h1v1h-1zm20 1h1v8h-1zm144 2h1v1h-1zm-58 2h1v1h-1zm-106 1h1v1h-1zm109 0h1v1h-1zm-89 3h1v1h-1zm15 1h1v1h-1zm5 0h1v1h-1zm75 0h1v1h-1zm3 0h1v1h-1zm20 0h1v1h-1zm-111 1h1v1h-1zm118 0h1v1h-1zm19 0h1v16h-1zM3 187h1v1H3zm26 0h1v1h-1zm36 0h1v1h-1zm18 0h1v1h-1zm33 0h1v1h-1zm6 0h1v1h-1zm46 0h1v1h-1zm62 0h1v1h-1zm-112 1h1v1h-1zm53 0h1v1h-1zm27 0h1v1h-1zm33 0h1v1h-1zm-218 1h1v1h-1zm34 0h1v14h-1zm154 0h1v1h-1zm-42 1h1v1h-1zm-136 1h1v1h-1zm7 1h1v1h-1zm44 0h1v1h-1zm100 0h1v1h-1zm35 0h1v1h-1zm-197 1h1v1h-1zm199 0h1v1h-1zm4 0h1v1h-1zM4 194h1v1H4zm77 0h1v1h-1zm35 0h1v1h-1zm42 0h1v1h-1zm-70 1h1v1h-1zm70 0h1v1h-1zM1 196h1v1H1zm203 0h1v1h-1zm11 0h1v1h-1zm-184 1h1v1h-1zm143 0h1v1h-1zM3 198h1v1H3zm156 1h1v1h-1zm47 0h1v1h-1zm24 0h1v1h-1zm-196 1h1v1h-1zm55 0h1v1h-1zm119 0h1v1h-1zm-189 1h1v1h-1zm52 1h1v1h-1zm17 0h1v1h-1zm73 0h1v1h-1zm30 0h1v1h-1zm16 0h1v1h-1zM2 203h1v1H2zm45 0h1v1h-1zm23 0h1v1h-1zm149 0h1v1h-1zm-186 1h1v1h-1zm6 0h1v1h-1zm1 0h1v1h-1zm21 0h1v1h-1zm65 0h1v1h-1zm1 0h1v1h-1zm25 0h1v1h-1zm1 0h1v1h-1zm11 0h1v1h-1zm11 0h1v1h-1zm8 0h1v1h-1zm1 0h1v1h-1z" fill="#dadbdb"/><path d="M161 8h1v1h-1zm-2 3h1v1h-1zm27 13h1v1h-1zm4 4h1v1h-1zm-44 10h1v1h-1zm-3 10h1v1h-1zm63 8h1v1h-1zm-65 1h1v1h-1zm1 4h1v1h-1zm66 2h1v1h-1zm-54 1h1v1h-1zm5 1h1v1h-1zm7 1h1v1h-1zm41 0h1v1h-1zm-24 1h5v1h-5zm5 0h1v1h-1zM46 71h1v1h-1zm-6 1h1v1h-1zm0 12h1v1h-1zm20 10h1v1h-1zm-16 8h1v1h-1zm13 0h1v1h-1zm-2 6h1v1h-1zm-1 3h1v1h-1zm-4 4h1v1h-1z" fill="#50bf6d"/><path d="M164 9h1v1h-1zm-6 4h1v1h-1zm-2 3h1v1h-1zm20 0h1v1h-1zm3 2h1v1h-1zm-30 12h1v1h-1zm-1 3h1v1h-1zm46 0h1v1h-1zm2 3h1v1h-1zm-51 5h1v1h-1zm-1 4h1v1h-1zm58 1h1v1h-1zm-60 6h1v1h-1zm7 11h1v1h-1zM41 64h1v1h-1zm114 0h1v1h-1zM42 65h1v1h-1zm118 0h1v1h-1zM43 67h1v1h-1zm-3 6h1v1h-1zm0 9h1v1h-1zm0 1h1v1h-1zm1 8h1v1h-1zm20 0h1v1h-1zm-19 5h1v1h-1zm6 15h1v1h-1zm1 2h1v1h-1z" fill="#42bb63"/><g fill="#0773bb"><path d="M147 12h1v1h-1zm-5 3h2v2h-2zm2 0h1v1h-1zm-3 2h2v2h-2zm2 0h1v1h-1z"/><path d="M139 18h3v3h-3z"/><path d="M138 19h4v2h-4zm4 0h1v2h-1z"/><path d="M137 20h4v4h-4z"/><path d="M135 21h7v1h-7zm7 0h1v1h-1zm-8 1h6v4h-6z"/><path d="M132 23h8v3h-8z"/><path d="M131 24h9v2h-9zm9 0h1v2h-1z"/><path d="M129 25h10v3h-10z"/><path d="M128 26h12v2h-12zm12 0h1v1h-1z"/><path d="M125 27h13v4h-13zm13 1h1v2h-1zm1 0h1v1h-1z"/><path d="M124 29h13v4h-13z"/><path d="M121 30h17v1h-17zm17 0h1v1h-1zm-18 1h17v2h-17zm17 0h1v1h-1zm-18 2h17v3h-17zm17 0h1v1h-1z"/><path d="M118 34h17v5h-17z"/><path d="M116 35h19v4h-19z"/><path d="M115 36h21v1h-21zm21 0h1v1h-1zm-22 1h20v6h-20z"/><path d="M113 38h21v5h-21z"/><path d="M112 39h22v4h-22zm22 0h1v1h-1z"/><path d="M111 40h22v4h-22z"/><path d="M110 41h23v2h-23zm-2 2h25v1h-25zm25 0h1v1h-1zm-24 1h23v1h-23zm23 0h1v2h-1zm-20 1h20v1h-20zm0 1h21v1h-21zm21 0h1v1h-1zm-18 1h16v1h-16zm16 0h1v2h-1zm-14 1h14v1h-14zm1 1h13v1h-13zm13 0h1v1h-1zm-11 1h10v1h-10zm10 0h1v4h-1zm-9 1h9v1h-9zm-22 1h1v49h-1zm1 0h1v49h-1zm24 0h6v1h-6z"/><path d="M98 53h3v47h-3zm3 0h1v49h-1zm25 0h5v1h-5zm5 0h1v1h-1z"/><path d="M97 54h6v46h-6zm6 0h1v49h-1zm24 0h3v1h-3zm3 0h1v1h-1zm-26 1h2v48h-2zm2 0h1v49h-1zm23 0h1v1h-1z"/><path d="M96 56h9v43h-9z"/><path d="M93 57h14v41H93zm14 0h1v47h-1zm1 1h1v47h-1zm1 0h1v47h-1zm1 1h1v47h-1zm1 1h1v46h-1z"/><path d="M92 61h21v36H92zm21 0h1v46h-1z"/><path d="M91 62h25v34H91zm25 0h1v46h-1z"/><path d="M90 63h27v32H90zm27 0h1v45h-1zm1 1h1v44h-1zm1 0h1v45h-1zm3 0h1v46h-1z"/><path d="M89 65h33v30H89z"/><path d="M88 66h35v28H88zm35 0h1v44h-1zm1 1h1v44h-1zm1 0h1v44h-1z"/><path d="M85 68h42v16H85zm42 0h1v4h-1zm1 3h1v1h-1z"/><path d="M84 72h43v12H84zm43 0h1v1h-1z"/><path d="M82 73h44v1H82zm1 1h43v17H83z"/><path d="M82 76h44v14H82z"/><path d="M81 77h45v12H81z"/><path d="M80 79h46v10H80z"/><path d="M79 81h47v7H79z"/><path d="M78 83h48v4H78zm48 1h1v1h-1z"/><path d="M77 85h48v2H77zm0 2h48v1H77zm50 0h1v4h-1zm-50 1h48v1H77zm3 1h45v1H80zm2 1h43v1H82zm1 1h42v1H83zm44 0h1v9h-1zm-42 1h40v1H85zm1 1h39v1H86zm1 1h38v1H87zm2 1h36v1H89zm2 1h34v1H91zm1 1h33v1H92zm1 1h32v1H93zm3 1h29v1H96zm-25 1h2v36h-2zm2 0h1v39h-1zm24 0h28v1H97zm30 0h1v1h-1zm-53 1h2v37h-2zm2 0h1v38h-1zm23 0h26v1H99z"/><path d="M70 102h5v33h-5zm31 0h25v1h-25zm25 0h1v9h-1zm-49 1h1v37h-1zm26 0h23v1h-23z"/><path d="M68 104h11v1H68zm11 0h1v38h-1zm26 0h21v1h-21z"/><path d="M69 105h11v29H69zm11 0h2v37h-2zm2 0h1v38h-1zm26 0h18v1h-18zm-1 1h1v1h-1zm3 0h16v1h-16z"/><path d="M67 107h16v1H67zm16 0h1v36h-1zm29 0h14v1h-14z"/><path d="M67 108h18v1H67zm18 0h1v37h-1zm30 0h11v1h-11z"/><path d="M68 109h19v24H68zm19 0h2v37h-2zm2 0h1v38h-1zm25 0h1v1h-1zm5 0h7v1h-7zm-1 1h8v1h-8zm-28 1h1v36h-1zm1 0h2v36h-2zm2 0h1v37h-1zm31 0h2v1h-2zm2 0h1v1h-1z"/><path d="M67 112h25v21H67zm28 0h1v37h-1zm-1 1h1v36h-1zm2 1h1v35h-1zm1 0h1v35h-1z"/><path d="M66 115h33v17H66zm33 0h1v35h-1zm1 1h1v34h-1zm1 0h1v34h-1z"/><path d="M65 117h38v14H65zm38 0h1v34h-1zm1 1h2v33h-2zm2 0h1v34h-1zm1 1h2v33h-2zm2 0h1v34h-1zm1 1h2v33h-2zm2 0h1v33h-1zm3 0h1v33h-1z"/><path d="M63 121h51v1H63zm51 0h1v32h-1z"/><path d="M64 122h54v8H64zm54 0h1v31h-1zm1 1h1v30h-1zm1 0h1v30h-1zm1 1h4v30h-4zm4 0h1v30h-1z"/><path d="M63 125h65v4H63zm65 0h1v29h-1zm1 3h1v26h-1zm1 0h1v1h-1z"/><path d="M63 129h66v1H63zm1 1h65v1H64zm1 1h64v1H65zm1 1h63v1H66zm1 1h62v1H67zm2 1h60v1H69zm1 1h59v1H70zm1 1h58v1H71zm60 0h1v1h-1zm-61 1h60v1H70zm60 0h1v16h-1zm-56 1h56v1H74zm-1 1h57v1H73zm1 1h1v1h-1zm3 0h53v1H77z"/><path d="M78 141h53v1H78zm53 0h1v12h-1zm-52 1h52v1H79zm2 1h50v1H81zm3 1h47v1H84zm49 0h1v1h-1z"/><path d="M83 145h49v1H83zm49 0h1v8h-1zm-45 1h45v1H87zm2 1h43v1H89zm3 1h40v1H92z"/><path d="M94 149h39v1H94zm39 0h1v4h-1zm-35 1h35v1H98zm4 1h31v1h-31zm-1 1h1v1h-1zm1 0h1v1h-1z"/><path d="M106 152h28v1h-28zm28 0h1v1h-1zm-29 1h1v1h-1zm4 0h25v1h-25zm25 0h1v1h-1zm-13 1h8v1h-8zm8 0h1v1h-1zm-12 1h1v1h-1zm1 0h1v1h-1zm13 0h1v1h-1zm1 0h1v1h-1z"/></g><path d="M66 21h1v1h-1zm12 7h1v1h-1zm-24 6h1v1h-1zm29 0h1v1h-1zm-30 1h1v1h-1zm31 18h1v1h-1zm-6 8h1v1h-1zm-25 3h1v1h-1zm4 5h1v1h-1zm84 2h1v1h-1zm-70 1h1v1h-1zm-1 2h1v1h-1zm83 0h1v1h-1zm5 1h1v1h-1zm6 1h1v1h-1zm42 0h1v1h-1zM64 77h1v1h-1zm74 0h1v1h-1zm40 0h2v1h-2zm2 0h1v1h-1zm7 0h4v1h-4zm4 0h1v1h-1zm-53 1h1v1h-1zm-72 1h1v1h-1zm143 9h1v1h-1zm-71 19h1v1h-1zm65 1h1v1h-1zm-3 6h1v1h-1zm-57 3h1v1h-1zm55 0h1v1h-1zm-48 1h1v1h-1zm41 0h1v1h-1zm-28 1h1v1h-1zm1 0h1v1h-1zm13 0h1v1h-1zm1 0h1v1h-1z" fill="#91d2ef"/></svg>