<svg xmlns="http://www.w3.org/2000/svg" role="img" viewBox="41.56 45.06 334.88 199.88"><title>The Green Web Foundation logo</title><path fill="#fff" d="M0 0h482v283H0z"/><path fill="#CECCCA" d="M51.86 52.188c-2.106 0-3.888 1.782-3.888 3.888 0 2.187 1.782 3.888 3.888 3.888h6.642v42.768c0 2.187 1.782 3.888 3.888 3.888 2.187 0 3.888-1.701 3.888-3.888V59.964h6.642c2.187 0 3.888-1.701 3.888-3.888 0-2.106-1.701-3.888-3.888-3.888H51.86zm50.373 3.564v18.792H90.5685V55.752c0-2.106-1.701-3.888-3.888-3.888-2.106 0-3.888 1.782-3.888 3.888v46.98c0 2.187 1.782 3.888 3.888 3.888 2.187 0 3.888-1.701 3.888-3.888V82.32h11.6645v20.412c0 2.187 1.782 3.888 3.888 3.888 2.187 0 3.888-1.701 3.888-3.888v-46.98c0-2.106-1.701-3.888-3.888-3.888-2.106 0-3.888 1.782-3.888 3.888zm17.044.324v46.332c0 2.187 1.782 3.888 3.888 3.888h16.2c2.187 0 3.888-1.701 3.888-3.888 0-2.106-1.701-3.888-3.888-3.888h-12.312v-16.2h10.692c2.187 0 3.888-1.701 3.888-3.888 0-2.106-1.701-3.888-3.888-3.888h-10.692v-14.58h12.312c2.187 0 3.888-1.701 3.888-3.888 0-2.106-1.701-3.888-3.888-3.888h-16.2c-2.106 0-3.888 1.782-3.888 3.888zM55.1 238.296c2.187 0 3.888-1.701 3.888-3.888V214.32H69.68c2.187 0 3.888-1.701 3.888-3.888 0-2.106-1.701-3.888-3.888-3.888H58.988v-14.58H71.3c2.187 0 3.888-1.701 3.888-3.888 0-2.106-1.701-3.888-3.888-3.888H55.1c-2.106 0-3.888 1.782-3.888 3.888v46.332c0 2.187 1.782 3.888 3.888 3.888zm38.7465.324c7.5325 0 13.6075-6.075 13.6075-13.608v-27.54c0-7.533-6.075-13.608-13.6075-13.608-7.533 0-13.608 6.075-13.608 13.608v27.54c0 7.533 6.075 13.608 13.608 13.608zm0-46.98c3.24 0 5.832 2.592 5.832 5.832v27.54c0 3.24-2.592 5.832-5.832 5.832-3.24 0-5.832-2.592-5.832-5.832v-27.54c0-3.24 2.592-5.832 5.832-5.832zm28.9995 33.372v-37.26c0-2.106-1.782-3.888-3.888-3.888-2.187 0-3.888 1.782-3.888 3.888v37.26c0 7.533 6.075 13.608 13.608 13.608 7.452 0 13.608-6.075 13.608-13.608v-37.26c0-2.106-1.782-3.888-3.888-3.888-2.187 0-3.888 1.782-3.888 3.888v37.26c0 3.24-2.673 5.832-5.832 5.832-3.24 0-5.832-2.592-5.832-5.832zm55.471 13.527c1.701-.405 2.997-2.025 2.997-3.807v-46.98c0-2.106-1.782-3.888-3.888-3.888-2.187 0-3.888 1.782-3.888 3.888v29.97c-6.723-13.932-15.309-31.671-15.309-31.671-.81-1.62-2.592-2.511-4.374-2.106-1.782.405-2.997 2.025-2.997 3.807v46.98c0 2.187 1.701 3.888 3.888 3.888 2.106 0 3.888-1.701 3.888-3.888v-29.97c6.723 13.932 15.309 31.671 15.309 31.671.729 1.62 2.592 2.511 4.374 2.106zm16.157-54.351c-2.187 0-3.888 1.782-3.888 3.888v46.332c0 2.187 1.701 3.888 3.888 3.888h9.72c7.533 0 13.608-6.075 13.608-13.608v-26.892c0-7.533-6.075-13.608-13.608-13.608h-9.72zm15.552 13.608v26.892c0 3.24-2.592 5.832-5.832 5.832h-5.832v-38.556h5.832c3.24 0 5.832 2.592 5.832 5.832zm32.235-11.097c-.405-1.701-1.944-2.835-3.726-2.835s-3.321 1.134-3.726 2.835l-12.96 46.98c-.567 2.106.648 4.212 2.673 4.779 2.106.567 4.212-.648 4.779-2.673 0 0 .972-3.483 2.349-8.505h13.77c1.377 5.022 2.349 8.505 2.349 8.505.567 2.025 2.673 3.24 4.779 2.673 2.025-.567 3.24-2.673 2.673-4.779l-12.96-46.98zm-8.424 32.805c1.539-5.589 3.24-11.826 4.698-17.091 1.458 5.265 3.159 11.502 4.698 17.091h-9.396zm23.801-35.316c-2.106 0-3.888 1.782-3.888 3.888 0 2.187 1.782 3.888 3.888 3.888h6.642v42.768c0 2.187 1.782 3.888 3.888 3.888 2.187 0 3.888-1.701 3.888-3.888v-42.768h6.642c2.187 0 3.888-1.701 3.888-3.888 0-2.106-1.701-3.888-3.888-3.888h-21.06zm34.82 54.432c2.187 0 3.888-1.701 3.888-3.888v-46.98c0-2.106-1.701-3.888-3.888-3.888-2.106 0-3.888 1.782-3.888 3.888v46.98c0 2.187 1.782 3.888 3.888 3.888zm25.774 0c7.533 0 13.608-6.075 13.608-13.608v-27.54c0-7.533-6.075-13.608-13.608-13.608s-13.608 6.075-13.608 13.608v27.54c0 7.533 6.075 13.608 13.608 13.608zm0-46.98c3.24 0 5.832 2.592 5.832 5.832v27.54c0 3.24-2.592 5.832-5.832 5.832-3.24 0-5.832-2.592-5.832-5.832v-27.54c0-3.24 2.592-5.832 5.832-5.832zm49.331 46.899c1.701-.405 2.997-2.025 2.997-3.807v-46.98c0-2.106-1.782-3.888-3.888-3.888-2.187 0-3.888 1.782-3.888 3.888v29.97c-6.723-13.932-15.309-31.671-15.309-31.671-.81-1.62-2.592-2.511-4.374-2.106-1.782.405-2.997 2.025-2.997 3.807v46.98c0 2.187 1.701 3.888 3.888 3.888 2.106 0 3.888-1.701 3.888-3.888v-29.97c6.723 13.932 15.309 31.671 15.309 31.671.729 1.62 2.592 2.511 4.374 2.106z"/><path fill="#65B54C" d="M73.568 142.164h-8.1c-2.106 0-3.888 1.782-3.888 3.888 0 2.187 1.782 3.888 3.888 3.888h4.212v9.072c0 3.24-2.592 5.832-5.832 5.832-3.159 0-5.832-2.592-5.832-5.832v-27.54c0-2.592 1.782-4.941 4.374-5.589 2.511-.729 5.184.405 6.561 2.673 1.053 1.863 3.402 2.511 5.265 1.458 1.863-1.134 2.511-3.483 1.458-5.346-3.078-5.346-9.396-7.938-15.309-6.318-5.994 1.539-10.125 6.966-10.125 13.122v27.54c0 7.533 6.156 13.608 13.608 13.608 7.533 0 13.608-6.075 13.608-13.608v-12.96c0-2.106-1.701-3.888-3.888-3.888zm39.051-5.832v-4.536c0-7.533-6.075-13.608-13.6081-13.608h-9.72c-2.106 0-3.888 1.782-3.888 3.888v46.656c0 2.187 1.782 3.888 3.888 3.888 2.187 0 3.888-1.701 3.888-3.888V149.94h4.374l7.5331 20.169c.81 2.025 2.997 2.997 5.022 2.268 2.025-.729 3.078-2.997 2.268-5.022l-7.047-18.954c4.374-2.268 7.29-6.804 7.29-12.069zm-19.4401-10.368h5.832c3.2401 0 5.8321 2.592 5.8321 5.832v4.536c0 3.24-2.592 5.832-5.8321 5.832h-5.832v-16.2zm26.7311-3.888v46.332c0 2.187 1.782 3.888 3.888 3.888h16.2c2.187 0 3.888-1.701 3.888-3.888 0-2.106-1.701-3.888-3.888-3.888h-12.312v-16.2h10.692c2.187 0 3.888-1.701 3.888-3.888 0-2.106-1.701-3.888-3.888-3.888h-10.692v-14.58h12.312c2.187 0 3.888-1.701 3.888-3.888 0-2.106-1.701-3.888-3.888-3.888h-16.2c-2.106 0-3.888 1.782-3.888 3.888zm30.631 0v46.332c0 2.187 1.782 3.888 3.888 3.888h16.2c2.187 0 3.888-1.701 3.888-3.888 0-2.106-1.701-3.888-3.888-3.888h-12.312v-16.2h10.692c2.187 0 3.888-1.701 3.888-3.888 0-2.106-1.701-3.888-3.888-3.888h-10.692v-14.58h12.312c2.187 0 3.888-1.701 3.888-3.888 0-2.106-1.701-3.888-3.888-3.888h-16.2c-2.106 0-3.888 1.782-3.888 3.888zm58.091 50.463c1.701-.405 2.997-2.025 2.997-3.807v-46.98c0-2.106-1.782-3.888-3.888-3.888-2.187 0-3.888 1.782-3.888 3.888v29.97c-6.723-13.932-15.309-31.671-15.309-31.671-.81-1.62-2.592-2.511-4.374-2.106-1.782.405-2.997 2.025-2.997 3.807v46.98c0 2.187 1.701 3.888 3.888 3.888 2.106 0 3.888-1.701 3.888-3.888v-29.97c6.723 13.932 15.309 31.671 15.309 31.671.729 1.62 2.592 2.511 4.374 2.106zm29.067-54.594c-2.025.567-3.321 2.673-2.835 4.698l11.34 46.98c.405 1.782 2.025 2.997 3.807 2.997s3.321-1.215 3.726-2.997c0 0 4.212-17.415 7.614-31.266 3.321 13.851 7.533 31.266 7.533 31.266.405 1.782 2.025 2.997 3.807 2.997s3.321-1.215 3.726-2.997l11.34-46.98c.567-2.025-.729-4.131-2.835-4.698-2.106-.486-4.212.81-4.698 2.916 0 0-4.212 17.415-7.533 31.266-3.402-13.851-7.614-31.266-7.614-31.266-.405-1.782-1.944-2.997-3.726-2.997s-3.402 1.215-3.807 2.997c0 0-4.212 17.415-7.533 31.266-3.402-13.851-7.614-31.266-7.614-31.266-.486-2.106-2.592-3.402-4.698-2.916zm56.962 4.131v46.332c0 2.187 1.782 3.888 3.888 3.888h16.2c2.187 0 3.888-1.701 3.888-3.888 0-2.106-1.701-3.888-3.888-3.888h-12.312v-16.2h10.692c2.187 0 3.888-1.701 3.888-3.888 0-2.106-1.701-3.888-3.888-3.888h-10.692v-14.58h12.312c2.187 0 3.888-1.701 3.888-3.888 0-2.106-1.701-3.888-3.888-3.888h-16.2c-2.106 0-3.888 1.782-3.888 3.888zm57.848 12.636v-2.916c0-7.533-6.156-13.608-13.608-13.608h-9.72c-2.187 0-3.888 1.782-3.888 3.888v46.332c0 2.187 1.701 3.888 3.888 3.888h9.72c7.452 0 13.608-6.075 13.608-13.608v-4.536c0-3.807-1.62-7.209-4.131-9.72 2.511-2.43 4.131-5.913 4.131-9.72zm-7.776 19.44v4.536c0 3.24-2.592 5.832-5.832 5.832h-5.832v-16.2h5.832c3.24 0 5.832 2.592 5.832 5.832zm-11.664-13.608v-14.58h5.832c3.24 0 5.832 2.592 5.832 5.832v2.916c0 3.24-2.592 5.832-5.832 5.832h-5.832z"/></svg>