<svg xmlns="http://www.w3.org/2000/svg" role="img" xmlns:xlink="http://www.w3.org/1999/xlink" viewBox="-6.06 -0.31 244.12 380.12"><title>Trace Machina - Simulate Robotic Systems logo</title><defs><path d="M15.55469 0v-37.88281H1.40625v-5.0664h34.04297v5.0664H21.24219V0zm0 0" id="a"/><path d="M3.89844 0v-31.11328h4.74218v4.71484c1.21094-2.20703 2.33204-3.66015 3.35547-4.36328 1.02735-.70312 2.15235-1.05469 3.38672-1.05469 1.77735 0 3.58203.56641 5.41797 1.69922l-1.8164 4.89063c-1.28907-.76172-2.57813-1.14063-3.8672-1.14063-1.15234 0-2.1875.34766-3.10546 1.03907-.91797.6953-1.57422 1.65624-1.96485 2.88671-.58593 1.875-.875 3.92579-.875 6.15235V0zm0 0" id="b"/><path d="M24.25781-3.83594C22.3047-2.17578 20.42578-1.0078 18.6172-.3203 16.8125.36329 14.875.70313 12.80469.70313c-3.41797 0-6.04688-.83594-7.88282-2.50391-1.83593-1.67188-2.7539-3.80469-2.7539-6.40235 0-1.52343.34766-2.91406 1.03906-4.17578.69531-1.2578 1.60156-2.26953 2.72656-3.03125 1.1211-.76172 2.38672-1.33984 3.79297-1.73047 1.03516-.27343 2.59766-.53515 4.6875-.78906 4.25782-.50781 7.39063-1.11328 9.40625-1.8164.01953-.72266.02735-1.1836.02735-1.37891 0-2.14844-.4961-3.66016-1.4961-4.53906-1.34765-1.1914-3.34765-1.78907-6.0039-1.78907-2.48047 0-4.3125.4375-5.4922 1.3047-1.18359.87109-2.05859 2.40624-2.62109 4.61718l-5.15625-.70313c.46875-2.20703 1.23829-3.99218 2.3125-5.34765 1.07422-1.35938 2.625-2.40235 4.65625-3.13672 2.03125-.73047 4.38672-1.09766 7.0625-1.09766 2.65626 0 4.8125.3125 6.47657.9375 1.66015.625 2.8789 1.41016 3.66015 2.35938.78125.94531 1.32813 2.14453 1.64063 3.58984.17578.89844.26172 2.51563.26172 4.85938v7.03125c0 4.90234.11328 8.0039.33984 9.30468C29.71094-2.4375 30.15625-1.1914 30.82031 0H25.3125c-.54688-1.09375-.89844-2.375-1.05469-3.83594zm-.4375-11.78125c-1.91406.78125-4.78906 1.44532-8.61718 1.99219-2.16797.3125-3.69922.66406-4.59766 1.05469-.89844.39062-1.58985.96484-2.08203 1.71484-.48828.7539-.73047 1.58985-.73047 2.5039 0 1.40626.53125 2.57813 1.59765 3.51563 1.0625.9375 2.6211 1.40625 4.67188 1.40625 2.03125 0 3.83594-.4414 5.42188-1.33203 1.58203-.88672 2.74218-2.10547 3.48437-3.64453.5664-1.1914.85156-2.95313.85156-5.27344zm0 0" id="c"/><path d="M24.25781-11.39844l5.1875.67578c-.5664 3.57422-2.01953 6.3711-4.35156 8.39453C22.75781-.30858 19.89062.70313 16.49219.70313c-4.25782 0-7.67969-1.39062-10.26563-4.17578C3.63672-6.2539 2.34375-10.24219 2.34375-15.4375c0-3.35938.55469-6.30078 1.67188-8.82031 1.11328-2.51953 2.80468-4.41016 5.08203-5.66797 2.27343-1.26172 4.75-1.89063 7.42578-1.89063 3.3789 0 6.14062.85547 8.28906 2.5625 2.14844 1.71094 3.52734 4.13672 4.13281 7.28125l-5.125.79297c-.48828-2.08984-1.35547-3.66406-2.59375-4.71875-1.24218-1.05468-2.74218-1.58203-4.5-1.58203-2.65625 0-4.8125.95313-6.47265 2.85547-1.66016 1.90625-2.48828 4.91797-2.48828 9.03906 0 4.17969.79687 7.21875 2.39843 9.10938 1.60157 1.89453 3.69532 2.84375 6.27344 2.84375 2.07031 0 3.79688-.63281 5.1836-1.90625 1.38671-1.26953 2.26562-3.21875 2.63671-5.85938zm0 0" id="d"/><path d="M25.2539-10.01953l5.44922.67578c-.85937 3.1836-2.45312 5.65234-4.77343 7.41016C23.60547-.1758 20.6328.70312 17.02344.70312 12.47266.70313 8.86328-.69921 6.1953-3.5c-2.66406-2.80469-4-6.73438-4-11.79297 0-5.23437 1.35156-9.29687 4.04688-12.1875 2.69531-2.89062 6.1875-4.33594 10.48437-4.33594 4.16016 0 7.5625 1.41797 10.19532 4.2461C29.55859-24.73828 30.8789-20.75 30.8789-15.6172c0 .3125-.01172.78125-.02735 1.40625H7.64844c.19531 3.41797 1.16015 6.03907 2.89844 7.85157 1.73828 1.8164 3.90625 2.72656 6.5039 2.72656 1.9336 0 3.58203-.50781 4.94922-1.52344 1.36719-1.01563 2.45313-2.63672 3.2539-4.86328zM7.9375-18.54688h17.375c-.23438-2.61718-.89844-4.57812-1.99219-5.88671-1.67968-2.03125-3.85937-3.04688-6.53125-3.04688-2.42187 0-4.46093.8086-6.10937 2.4336-1.65235 1.62109-2.5625 3.78906-2.74219 6.5zm0 0" id="e"/><path d="M4.45313 0v-42.94922h8.55468l10.16407 30.41016c.9375 2.83203 1.625 4.95312 2.05468 6.35937.48828-1.5625 1.25-3.85937 2.28125-6.88672l10.28516-29.8828h7.64453V0h-5.47656v-35.94531L27.48047 0h-5.1289L9.92968-36.5625V0zm0 0" id="f"/><path d="M3.95313 0v-42.94922h5.27343v15.41016c2.46094-2.85157 5.57032-4.27735 9.32032-4.27735 2.30468 0 4.30468.45313 6.0039 1.36329 1.69922.90624 2.91406 2.16406 3.64844 3.76562.73047 1.60156 1.09765 3.92188 1.09765 6.96875V0h-5.27343v-19.71875c0-2.63672-.57032-4.55469-1.71485-5.7539-1.14062-1.20313-2.7578-1.80079-4.84765-1.80079-1.5625 0-3.03125.40235-4.41016 1.21485-1.375.80859-2.35547 1.91015-2.9414 3.29296-.58594 1.38672-.88282 3.3047-.88282 5.7422V0zm0 0" id="g"/><path d="M3.98438-36.88281v-6.0664H9.2578v6.0664zM3.98438 0v-31.11328H9.2578V0zm0 0" id="h"/><path d="M3.95313 0v-31.11328h4.75v4.42578c2.28515-3.41797 5.58593-5.1289 9.89843-5.1289 1.875 0 3.60157.33593 5.17188 1.01171 1.57422.67188 2.75 1.55469 3.53125 2.64844s1.32812 2.39453 1.64062 3.89844c.19532.97656.29297 2.6875.29297 5.125V0h-5.27344v-18.92578c0-2.14844-.20703-3.7539-.61328-4.82031-.41015-1.0625-1.14062-1.91407-2.1836-2.54688-1.04687-.63672-2.26952-.95312-3.67577-.95312-2.2461 0-4.1875.71484-5.8164 2.13671-1.63282 1.42579-2.44923 4.13282-2.44923 8.1172V0zm0 0" id="i"/><path d="M1.90625-12.89063v-5.30468h16.19922v5.30468zm0 0" id="j"/><path d="M2.69531-13.79688l5.35938-.46875c.2539 2.14844.84765 3.91016 1.77343 5.28516.9297 1.3789 2.3672 2.49219 4.32032 3.33985 1.95312.85156 4.15234 1.27343 6.59375 1.27343 2.16797 0 4.08203-.32031 5.74218-.96484 1.66016-.64453 2.89454-1.52735 3.70704-2.65235.80859-1.12109 1.21484-2.34765 1.21484-3.67578 0-1.34765-.39063-2.52343-1.17188-3.53125-.78124-1.0039-2.0703-1.84765-3.86718-2.53515-1.15235-.44922-3.70313-1.14453-7.64844-2.09375-3.94531-.94532-6.70703-1.83985-8.28906-2.67969-2.05078-1.07422-3.57813-2.40625-4.58594-4-1.0039-1.58984-1.50781-3.375-1.50781-5.34375 0-2.16797.61719-4.19531 1.84375-6.08203 1.23047-1.88281 3.03125-3.3164 5.39062-4.29297 2.36328-.97656 4.99219-1.46094 7.88282-1.46094 3.18359 0 5.99218.51172 8.42187 1.53516 2.4336 1.02734 4.30469 2.53516 5.60938 4.52734 1.30859 1.99219 2.01562 4.25 2.10937 6.76563l-5.44531.41406c-.29297-2.71484-1.28516-4.76563-2.97657-6.15625-1.6875-1.38672-4.18359-2.07813-7.48437-2.07813-3.4375 0-5.9414.62891-7.51563 1.89063-1.5703 1.25781-2.35937 2.77734-2.35937 4.55469 0 1.54297.5586 2.8125 1.67188 3.8086 1.09375.99609 3.94921 2.01562 8.5703 3.0625 4.6172 1.04296 7.78907 1.95702 9.50782 2.73827 2.5 1.15235 4.34375 2.61328 5.53516 4.3789 1.1914 1.76954 1.78515 3.8047 1.78515 6.10938 0 2.28516-.65234 4.4375-1.96093 6.46094-1.3086 2.01953-3.1875 3.59375-5.64063 4.71485-2.44922 1.125-5.21094 1.6875-8.27344 1.6875-3.88672 0-7.14453-.57032-9.77343-1.70313-2.625-1.13281-4.6875-2.83594-6.1797-5.10938-1.49609-2.27734-2.28124-4.85156-2.35937-7.71875zm0 0" id="k"/><path d="M3.95313 0v-31.11328h4.71875V-26.75c.97656-1.52344 2.27343-2.7461 3.89843-3.67578 1.6211-.92578 3.46485-1.39063 5.53516-1.39063 2.30469 0 4.19531.48047 5.66797 1.4336 1.47656.95703 2.51562 2.29687 3.1211 4.01562C29.35546-30 32.55858-31.8164 36.5039-31.8164c3.08593 0 5.45703.85547 7.12109 2.5625 1.66016 1.71094 2.48828 4.33985 2.48828 7.89454V0h-5.2461v-19.60156c0-2.10938-.16796-3.625-.51171-4.55469-.33984-.92578-.96094-1.67188-1.85938-2.24219-.89843-.5664-1.95312-.84765-3.16406-.84765-2.1875 0-4.0039.72656-5.44922 2.18359-1.44531 1.45313-2.16797 3.78125-2.16797 6.98438V0h-5.27343v-20.21484c0-2.34375-.4297-4.10157-1.28907-5.27344-.85937-1.17188-2.26562-1.75781-4.21875-1.75781-1.48437 0-2.85546.39062-4.11718 1.17187-1.25782.78125-2.17188 1.92578-2.73828 3.42578-.56641 1.5039-.85157 3.67188-.85157 6.50782V0zm0 0" id="l"/><path d="M24.34375 0v-4.57031C21.92187-1.0547 18.63281.70313 14.47265.70313c-1.83593 0-3.55077-.35157-5.14062-1.0547C7.73828-1.05468 6.5586-1.9375 5.78516-3.0039c-.76954-1.0625-1.3125-2.36718-1.625-3.91015-.21485-1.03516-.32422-2.67578-.32422-4.92188v-19.27734h5.27343v17.2539c0 2.75391.10938 4.60938.32422 5.57032.33203 1.38672 1.03516 2.47265 2.10938 3.26562 1.07422.78906 2.40234 1.1875 3.98437 1.1875s3.06641-.40625 4.45313-1.21875c1.38672-.8086 2.36719-1.91406 2.94531-3.3086.57422-1.39843.86328-3.42577.86328-6.08202v-16.66797h5.27344V0zm0 0" id="m"/><path d="M3.83594 0v-42.94922h5.27343V0zm0 0" id="n"/><path d="M15.46875-4.71875l.76172 4.66016c-1.48438.3125-2.8125.46875-3.98438.46875-1.91406 0-3.39843-.30079-4.45312-.91016-1.05469-.60547-1.79688-1.39844-2.22656-2.38672-.4297-.98437-.64454-3.0586-.64454-6.22266v-17.90234H1.0547v-4.10156h3.86719v-7.70703l5.24218-3.16407v10.8711h5.30469v4.10156h-5.30469v18.1914c0 1.50391.09375 2.47266.28125 2.90235.1836.42969.48828.76953.90625 1.02735.42188.2539 1.02344.3789 1.80469.3789.58594 0 1.35547-.0664 2.3125-.20703zm0 0" id="o"/><path d="M4.71875 0v-42.94922h19.03906c3.82813 0 6.74219.38672 8.73438 1.15625 1.99218.77344 3.58203 2.13672 4.77343 4.08984 1.19141 1.95313 1.78907 4.10938 1.78907 6.47266 0 3.04688-.98828 5.61328-2.96094 7.70703-1.97266 2.08985-5.01953 3.41407-9.14063 3.98438 1.50391.72265 2.64844 1.4336 3.4297 2.13672 1.66015 1.52343 3.23046 3.42578 4.71484 5.71484L42.5703 0h-7.14843l-5.6875-8.9375c-1.66016-2.57813-3.02344-4.54688-4.10157-5.91406-1.07422-1.36719-2.03515-2.32813-2.88281-2.875-.85156-.54688-1.71484-.92578-2.59375-1.14063-.64453-.13672-1.69922-.20312-3.16406-.20312h-6.59375V0zm5.67969-23.99219h12.21875c2.59765 0 4.6289-.26953 6.09375-.8086 1.46484-.53515 2.57812-1.39452 3.33984-2.57812.76172-1.17968 1.14453-2.46484 1.14453-3.85156 0-2.03125-.73828-3.69922-2.21484-5.01172-1.47266-1.3086-3.80078-1.96093-6.98828-1.96093H10.39844zm0 0" id="p"/><path d="M1.99219-15.55469c0-5.76172 1.60156-10.03125 4.80468-12.80468 2.67579-2.3047 5.9375-3.45704 9.78516-3.45704 4.27735 0 7.77344 1.40235 10.48828 4.20313 2.71485 2.80469 4.07032 6.67578 4.07032 11.61719 0 4.0039-.59766 7.15234-1.80079 9.44922-1.19921 2.29296-2.94921 4.07812-5.24218 5.34375C21.80078.0664 19.29687.70311 16.58203.70311c-4.35547 0-7.875-1.39843-10.5625-4.1875-2.6836-2.79296-4.02734-6.8203-4.02734-12.0703zm5.42187 0c0 3.98438.86719 6.96485 2.60547 8.94922 1.73828 1.98047 3.92578 2.97266 6.5625 2.97266 2.61719 0 4.79297-.9961 6.53516-2.98828 1.73828-1.9922 2.60547-5.02735 2.60547-9.11329 0-3.84765-.875-6.76171-2.6211-8.74218-1.75-1.98438-3.92187-2.97657-6.51953-2.97657-2.63672 0-4.82422.98829-6.5625 2.96094-1.73828 1.97266-2.60547 4.95313-2.60547 8.9375zm0 0" id="q"/><path d="M8.82031 0H3.92578v-42.94922h5.27344V-27.625c2.22656-2.79297 5.0664-4.1914 8.52734-4.1914 1.91407 0 3.72266.38671 5.4336 1.15624 1.70703.77344 3.11328 1.85547 4.21875 3.25391 1.10156 1.39453 1.96484 3.07813 2.58984 5.05469.625 1.97265.9375 4.07812.9375 6.32812 0 5.33203-1.3164 9.45313-3.95313 12.35938C24.31641-.75391 21.15235.70313 17.46095.70313c-3.67188 0-6.55469-1.53126-8.64063-4.60157zm-.0625-15.78906c0 3.73047.50782 6.42187 1.52344 8.08593 1.66016 2.71485 3.90625 4.07032 6.74219 4.07032 2.30468 0 4.29687-1 5.97656-3.0039 1.67969-2 2.51563-4.98438 2.51563-8.94923 0-4.0625-.8047-7.0625-2.41407-8.99218-1.61328-1.9336-3.5625-2.90235-5.84375-2.90235-2.30468 0-4.29687 1-5.97656 3.0039-1.67969 2-2.52344 4.89844-2.52344 8.6875zm0 0" id="r"/><path d="M3.71875 11.98438l-.58594-4.95313C4.28516 7.34375 5.29297 7.5 6.15234 7.5c1.17188 0 2.10938-.19531 2.8125-.58594.70313-.39062 1.27735-.9375 1.73047-1.64062.33203-.52735.86719-1.83594 1.60938-3.92578.09765-.29297.2539-.72266.46875-1.28907L.96875-31.11328h5.67969L13.125-13.09375c.83984 2.28516 1.59375 4.6875 2.25781 7.20313.60547-2.42188 1.32813-4.78125 2.16407-7.08594l6.65234-18.13672h5.27344L17.63672.52734c-1.26953 3.41797-2.2539 5.76954-2.95703 7.0586-.9375 1.73828-2.01563 3.01562-3.22657 3.82422-1.21093.8125-2.65625 1.21484-4.33593 1.21484-1.01563 0-2.14844-.21094-3.39844-.64063zm0 0" id="s"/><path d="M1.84375-9.28906l5.21875-.82032c.29297 2.08985 1.10547 3.69532 2.44531 4.8047 1.33594 1.11327 3.20703 1.67187 5.60938 1.67187 2.42187 0 4.21875-.49219 5.39062-1.48047 1.17188-.98438 1.75782-2.14453 1.75782-3.47266 0-1.1914-.51563-2.125-1.5547-2.8125-.72265-.46875-2.51562-1.0625-5.39062-1.78515-3.86718-.97657-6.54687-1.82032-8.03906-2.53516-1.4961-.71094-2.6289-1.69922-3.39844-2.95703-.77344-1.26172-1.15625-2.65235-1.15625-4.17578 0-1.38672.3164-2.67188.94922-3.85157.63672-1.18359 1.5-2.16406 2.59375-2.9453.82031-.60548 1.9375-1.1172 3.35547-1.53907 1.41406-.41797 2.9336-.6289 4.55469-.6289 2.4414 0 4.58593.35156 6.42968 1.05468 1.84766.70313 3.21094 1.65625 4.08594 2.85547.8789 1.20313 1.48438 2.8086 1.82032 4.82031l-5.15626.70313c-.23437-1.60157-.91406-2.85157-2.03906-3.75-1.1211-.89844-2.71093-1.34766-4.75781-1.34766-2.42188 0-4.15234.40235-5.1875 1.19922-1.03516.80078-1.55469 1.74219-1.55469 2.8125 0 .6836.21875 1.30078.64844 1.84766.42969.5664 1.10156 1.03515 2.01953 1.40625.52735.1953 2.08203.64453 4.66016 1.34765 3.73047.9961 6.33203 1.8125 7.80468 2.44532 1.47657.63671 2.63282 1.55859 3.47266 2.76953.83985 1.21093 1.26172 2.71484 1.26172 4.51172 0 1.7578-.51563 3.41406-1.53906 4.96484-1.02735 1.55469-2.50782 2.7539-4.4375 3.60547-1.9336.84765-4.125 1.27344-6.5625 1.27344-4.04297 0-7.125-.83985-9.2461-2.51954C3.78516-3.49609 2.4297-5.98437 1.84375-9.28906zm0 0" id="t"/></defs><use y="50" xlink:href="#a"/><use x="36.65" y="50" xlink:href="#b"/><use x="56.631" y="50" xlink:href="#c"/><use x="90" y="50" xlink:href="#d"/><use x="120" y="50" xlink:href="#e"/><use y="120" xlink:href="#f"/><use x="49.98" y="120" xlink:href="#c"/><use x="83.35" y="120" xlink:href="#d"/><use x="113.35" y="120" xlink:href="#g"/><use x="146.719" y="120" xlink:href="#h"/><use x="160.049" y="120" xlink:href="#i"/><use x="193.418" y="120" xlink:href="#c"/><g><use y="180" xlink:href="#j"/></g><g><use y="240" xlink:href="#k"/><use x="40.02" y="240" xlink:href="#h"/><use x="53.35" y="240" xlink:href="#l"/><use x="103.33" y="240" xlink:href="#m"/><use x="136.699" y="240" xlink:href="#n"/><use x="150.029" y="240" xlink:href="#c"/><use x="183.398" y="240" xlink:href="#o"/><use x="200.068" y="240" xlink:href="#e"/></g><g><use y="300" xlink:href="#p"/><use x="43.33" y="300" xlink:href="#q"/><use x="76.699" y="300" xlink:href="#r"/><use x="110.068" y="300" xlink:href="#q"/><use x="143.438" y="300" xlink:href="#o"/><use x="160.107" y="300" xlink:href="#h"/><use x="173.438" y="300" xlink:href="#d"/></g><g><use y="360" xlink:href="#k"/><use x="40.02" y="360" xlink:href="#s"/><use x="70.02" y="360" xlink:href="#t"/><use x="100.02" y="360" xlink:href="#o"/><use x="116.689" y="360" xlink:href="#e"/><use x="150.059" y="360" xlink:href="#l"/><use x="200.039" y="360" xlink:href="#t"/></g></svg>