<svg xmlns="http://www.w3.org/2000/svg" role="img" viewBox="-7.99 -7.99 415.74 95.74"><title>Traefik Labs SAS logo</title><path d="M23.61328.496c1.18523-.66131 2.63346-.66134 3.8187-.00005l33.13487 18.487c.461.25722 1.00269.33402 1.51813.21523.72377-.1668 1.32062-.25082 1.79411-.25082 3.46632 0 6.30273 2.24098 6.30273 5.03702 0 2.79595-2.83646 5.03702-6.30273 5.03702-.50508 0-1.14093-.09524-1.91133-.28428-.52322-.1284-1.07624-.0542-1.54603.20745L13.02137 55.34303c-.2234.12444-.37424.34527-.40641.57647l-.00926.12706c0 .32781.1785.6302.46706.79122l30.54852 17.04413c.64466.35968 1.4324.35968 2.07706 0L57.0172 67.5667c.43976-.24536.59527-.79701.34742-1.2322-.08192-.14384-.20206-.26275-.3474-.34385L43.2941 58.33357c-1.2931-.72151-1.75046-2.34406-1.02145-3.62401.24092-.42299.5942-.77264 1.02154-1.01106l13.95724-7.787c.1746-.09741.29244-.2701.31716-.44672l.00765-.10347c0-2.79594 2.83656-5.03702 6.30285-5.03702 3.46627 0 6.30273 2.24106 6.30273 5.03702 0 1.7184-1.07135 3.22714-2.70184 4.13487l-.16772.09023c-.98937.51404-2.1694.81192-3.43317.81192-.52335 0-1.1815-.102-1.97829-.30449-.52852-.13428-1.08902-.0612-1.56434.20396l-8.83702 4.92972c-.43977.24533-.59532.79697-.3475 1.23218.08193.14387.2021.26281.34747.34392l13.72374 7.65648c1.29314.72145 1.75058 2.34397 1.02164 3.62396-.2409.423-.59415.77266-1.02148 1.0111l-18.65408 10.4088c-1.18527.66137-2.63357.66139-3.81885.00004L9.65431 61.03743c-.46346-.25857-1.00836-.33477-1.52605-.2134-.73623.1726-1.3435.25955-1.82541.25955C2.83655 61.08358 0 58.8425 0 56.04656c0-2.79602 2.8365-5.03702 6.30285-5.03702.49672 0 1.1223.0922 1.88047.27524.52104.1258 1.07093.05096 1.53833-.20937l47.46967-26.43954c.20688-.11523.34655-.31972.3762-.53242l.00872-.11907c0-.34655-.1887-.66622-.49376-.83643L26.5607 6.11817c-.64468-.3597-1.43244-.3597-2.07711 0l-11.31406 6.31271c-.43976.24537-.59526.79702-.3474 1.2322.08191.14384.20205.26275.3474.34384l13.72543 7.65831c1.2931.72151 1.75046 2.34406 1.02145 3.62401-.24087.42293-.59408.77254-1.02135 1.01096l-13.95252 7.78585c-.18106.10104-.30327.28014-.32898.46403l-.00786.1066c0 2.79594-2.83656 5.03702-6.30285 5.03702-1.62483 0-3.11128-.49242-4.23207-1.3036l-.14725-.11003C.73899 37.36632 0 36.08377 0 34.65668c0-2.79602 2.8365-5.03702 6.30285-5.03702.51918 0 1.17222.10044 1.96297.2998.52747.13297 1.08641.05955 1.56055-.20497l8.86119-4.94365c.43976-.24534.59529-.79699.34745-1.23219-.08192-.14386-.20208-.26278-.34744-.34388l-13.7247-7.65723c-1.29314-.72146-1.75056-2.34399-1.0216-3.62397.2409-.423.59416-.77266 1.0215-1.0111zm71.24157 12.5949c.892 0 1.66347.28892 2.31441.86675.67502.6019 1.01256 1.40844 1.01256 2.41964l-.00046 8.34962 8.00046.00036c1.1526 0 2.09644.89374 2.17634 2.026l.00548.15582c0 1.1526-.89374 2.09645-2.026 2.17634l-.15582.00548h-8.00046l.00046 21.28506.0012.45346c.01041 1.9351.08864 3.48144.23467 4.63904.18344 1.27308.3538 2.5324.82555 3.19554.49794.68956 1.0614 1.19563 1.69042 1.38135.56608.19092 1.33384.29595 2.30329.31508l.33062.0032h3.77395c1.37416.03751 2.47666 1.16273 2.47666 2.54545 0 1.29335-.96459 2.36141-2.21362 2.52402l-.16447.01602-.06.00242.00075.003h-5.2285l-.40185-.00448c-3.3206-.07455-5.9385-1.081-7.85368-3.0192-1.92757-1.92514-2.92243-5.1419-2.98461-9.65028l-.0031-.45515-.00074-23.23453h-5.09018c-1.1526 0-2.09644-.89374-2.17634-2.026l-.00548-.15582c0-1.1526.89374-2.09644 2.026-2.17634l.15582-.00548 5.24118-.00036.577-8.34962c0-1.05935.31341-1.87793.94024-2.45576.6268-.55375 1.38623-.83062 2.27825-.83062zm150.29633-5.81817c.96433 0 1.79473.32197 2.49121.9658.67158.5979 1.03137 1.40396 1.07935 2.41818l.00553.23775v31.80488l18.28369-16.49157c.59063-.50211 1.22156-.75322 1.8928-.75322.85911 0 1.61087.3304 2.25526.99108.67117.66075 1.00677 1.40076 1.0068 2.22002-.00002.67837-.27075 1.3012-.81216 1.86846l-.15437.15334-14.61889 12.88404 15.98816 16.57086c.59062.60787.88599 1.29502.88599 2.06145 0 .84573-.34907 1.59894-1.04708 2.25966-.67125.66072-1.44985.99109-2.3358.99109-.86744 0-1.62047-.31527-2.25908-.94581l-.15727-.1642-18.92805-19.8216v17.26964c0 1.12676-.37503 2.02548-1.12506 2.69617-.72327.64386-1.58046.9658-2.57157.9658-.99114 0-1.83494-.30852-2.5314-.92555-.64672-.59788-.99317-1.42707-1.03936-2.48758l-.00534-.24884V10.89446c0-1.12673.36163-2.01204 1.08489-2.65594.75003-.64382 1.62061-.9658 2.61175-.9658zm-14.54546 17.45454c.96433 0 1.79474.3339 2.49122 1.00157.67158.62005 1.03137 1.45597 1.07934 2.50775l.00554.24655v33.1738c0 1.1685-.37504 2.10051-1.12506 2.79604-.72327.66771-1.58046 1.00157-2.57157 1.00157-.99114 0-1.83494-.31995-2.5314-.95983-.64672-.62002-.99318-1.47992-1.03937-2.57971l-.00533-.25806v-33.1738c0-1.16846.36162-2.08656 1.08488-2.75431.75004-.66767 1.62062-1.00157 2.61175-1.00157zm51.75792-17.45454c.46753 0 .85714.1763 1.16883.52892.27273.30854.42613.68977.46023 1.14368L284 9.1443v54.43865l-.0073.19899c-.0341.4539-.1875.83513-.46023 1.14367-.3117.35262-.7013.52893-1.16883.52893-.51948 0-.92208-.16275-1.2078-.48824-.25396-.28933-.39506-.68582-.42328-1.18946l-.00529-.19389V9.14431l.0053-.19389c.02821-.50364.1693-.90013.42327-1.18945.28572-.3255.68832-.48824 1.2078-.48824zm-61.52826 0l-.00074.003.06.00241c1.3278.08618 2.37809 1.19046 2.37809 2.54004 0 1.38272-1.1025 2.50794-2.47639 2.54454l-.00027.00092h-3.77396c-1.12696.00005-2.00493.10614-2.6339.31828-.62902.18571-1.19249.69178-1.69042 1.38134-.47176.66313-.64211 1.92247-.82556 3.19554-.14603 1.1576-.22425 2.70395-.23467 4.63904l-.0012.45346-.00072 2.37543 6.54618.00054c1.20498 0 2.18182.97684 2.18182 2.18182 0 1.20499-.97684 2.18182-2.18182 2.18182l-6.54618-.00018.00072 32.70185c0 1.04628-.32337 1.89593-.97008 2.54896l-.15498.14721c-.72327.64386-1.58046.9658-2.57157.9658-.99113 0-1.83494-.30852-2.53139-.92555-.64673-.59788-.99318-1.42707-1.03937-2.48758l-.00533-.24884V29.09073l-5.81818.00018c-1.20499 0-2.18182-.97683-2.18182-2.18182 0-1.20498.97683-2.18182 2.18182-2.18182l5.81718-.00054.001-4.3249c0-4.74765.99589-8.11612 2.98771-10.10543 1.91519-1.9382 4.53308-2.94465 7.85368-3.0192l.40185-.00447h5.2285zm86.76184 17.45454c8.87423 0 13.3713 4.70145 13.49122 14.10434l.00247.38907v24.12868l-.00549.19292c-.02926.50114-.17556.89566-.43891 1.18355-.29627.32387-.71374.4858-1.25241.4858s-.9696-.17542-1.29281-.52629c-.2828-.307-.44188-.68633-.47723-1.13799l-.00757-.198v-5.6678l-.19149.38735c-1.17507 2.29583-2.82152 4.08297-4.93935 5.36143-2.23548 1.34948-4.7807 2.02422-7.63565 2.02422-2.47788 0-4.7403-.5128-6.78724-1.53841-2.04695-1.0256-3.67643-2.41557-4.88843-4.16989-1.21201-1.75432-1.84495-3.71107-1.89882-5.87023-.05386-2.96886.67334-5.26297 2.18162-6.88235 1.50827-1.61937 4.04002-2.77992 7.59525-3.48165 3.43263-.67753 8.19598-1.02798 14.29007-1.05134l.65803-.00125h1.616v-3.4007l-.00315-.42155c-.05476-3.61646-.8213-6.26936-2.29966-7.9587-1.5352-1.75433-3.94576-2.63149-7.23165-2.63149-2.58561 0-4.88843.33737-6.90844 1.01211-2.02002.67474-3.62256 1.44394-4.80763 2.3076-.21547.16195-.65987.47233-1.33321.93115s-1.22548.68823-1.65641.68823c-.37707 0-.71374-.14844-1.01-.44532-.29628-.29689-.44441-.66125-.44441-1.09308 0-1.0256.94267-2.10519 2.82802-3.23875 1.88534-1.13356 3.94576-1.99723 6.18124-2.591 2.23548-.59377 4.4575-.89066 6.66604-.89066zm-175.25534 0c.90613 0 1.61406.32584 2.1238.97739.538.65163.80705 1.41182.80705 2.28056 0 .81453-.24073 1.52042-.7221 2.11767-.48142.57018-1.1752.85525-2.08132.85521-3.82287.00004-6.43255.95028-8.55633 2.85071-2.05274 1.86172-3.14383 4.33564-3.1857 7.42178v20.42636c0 1.1685-.37505 2.1005-1.12507 2.79603-.72327.66771-1.58046 1.00157-2.57157 1.00157-.99113 0-1.83494-.31995-2.5314-.95983-.66968-.64203-1.0174-1.54128-1.04315-2.69776l-.00155-.14001v-33.1738c0-1.16846.36163-2.08656 1.08489-2.75431.75003-.66767 1.62061-1.00157 2.61175-1.00157.96433 0 1.79473.3339 2.49121 1.00157.69431.64104 1.05537 1.5128 1.08315 2.61529l.00173.13901v5.12205c.70792-2.52488 2.12379-4.62897 4.2476-6.31228 2.1521-1.71038 4.36535-2.56564 7.36701-2.56564zm253.78284 0c2.0015 0 3.92186.2699 5.76108.80969 1.83922.5398 3.46206 1.2955 4.86852 2.26712 1.0278.75571 1.7716 1.41696 2.2314 1.98374.45981.56678.68971 1.14706.68971 1.74083 0 .37785-.13524.71522-.4057 1.0121-.27048.2969-.59505.44533-.97371.44533-.43276 0-1.13599-.40484-2.1097-1.21453-1.40646-1.07958-2.88054-1.97024-4.42223-2.67197-1.5417-.70172-3.47559-1.05259-5.80166-1.05259-3.0293 0-5.47708.71522-7.34335 2.14567-1.86626 1.43045-2.7994 3.30623-2.7994 5.62733 0 1.40346.29753 2.55051.89257 3.44117s1.60931 1.65986 3.04282 2.3076c1.43351.64776 3.47558 1.26852 6.12622 1.86229 3.73253.91765 6.59955 1.84879 8.60105 2.79342 2.0015.94464 3.4215 2.0782 4.25996 3.40069C399.58077 50.94765 400 52.6345 400 54.6857c0 3.23875-1.33884 5.84325-4.01653 7.81349-2.67768 1.97024-6.2344 2.95536-10.67017 2.95536-2.1097 0-4.21939-.31038-6.32908-.93115-2.10969-.62076-4.003-1.47093-5.67994-2.55051-1.0819-.70173-1.81217-1.282-2.19083-1.74083-.37866-.45882-.568-.98512-.568-1.57889 0-.37785.13524-.71522.40571-1.0121.27048-.2969.59505-.44534.9737-.44534.27048 0 .63562.14845 1.09542.44533.45981.29689.77085.49931.93314.60727 1.56874 1.13356 3.2051 2.0647 4.90909 2.79342 1.70398.72872 3.85424 1.09308 6.45079 1.09308 3.51615 0 6.22088-.64775 8.1142-1.94325 1.89331-1.2955 2.83997-3.1308 2.83997-5.50588 0-1.40345-.3381-2.564-1.01428-3.48165-.67618-.91765-1.78512-1.71384-3.32682-2.38858-1.5417-.67474-3.74605-1.33598-6.61307-1.98373-4.76033-1.07959-8.1683-2.45605-10.2239-4.1294-2.0556-1.67336-3.08339-3.8865-3.08339-6.63944 0-3.34671 1.3118-6.07266 3.93539-8.17785 2.62359-2.10518 6.01803-3.15778 10.18332-3.15778zM330.07647 7.27273c.54375 0 .96516.16229 1.26423.48687.26583.28852.41352.6839.44306 1.18614l.00554.19335v23.93813l.18382-.40107c1.19198-2.51053 2.9115-4.4596 5.15857-5.8472 2.36534-1.46062 5.20646-2.19094 8.52337-2.19094 3.48003 0 6.55225.83851 9.21665 2.51553 2.6644 1.67703 4.73067 4.03026 6.1988 7.05972 1.46815 3.02946 2.20222 6.57284 2.20222 10.63015 0 4.11141-.73407 7.72242-2.20221 10.83302s-3.53441 5.51794-6.19881 7.22201c-2.6644 1.70407-5.73662 2.5561-9.21666 2.5561-3.3169 0-6.15802-.73031-8.52336-2.19094-2.2527-1.39108-3.9752-3.37097-5.16752-5.93968l-.17488-.38972v6.41054l-.00428.18197c-.05424 1.12293-.62375 1.6844-1.70854 1.6844-.54376 0-.96517-.1623-1.26424-.48688-.26583-.28852-.41352-.6839-.44306-1.18614l-.00553-.19335V9.1391l.00428-.18197c.05424-1.12293.62375-1.6844 1.70855-1.6844zM177.8775 24.72728c3.7891 0 7.3111.97642 9.93649 2.74928 2.08237 1.4062 3.77403 3.57242 4.45742 5.70786.39239 1.2261.45204 1.67917.45576 3.46003.002 1.1081-.02795 1.85552-.08874 2.20183-.61442 3.50016-2.07793 5.925-4.61816 7.65163-2.0436 1.38903-4.61016 2.20181-7.96691 2.52286-1.68976.1616-4.78034.14634-6.78247-.03357-1.6992-.15264-3.7857-.42123-4.6758-.60184-.74504-.15121-3.2964-.58425-3.3174-.56305-.00925.0095-.13065.7851-.26974 1.72399-.22208 1.49908-.25354 1.87313-.2582 3.0701l.00023.58761c.00567.72166.0389.94817.15625 1.4045.46447 1.80603 1.48804 3.01412 3.34506 3.94808 1.8268.91877 3.74187 1.31635 6.6355 1.37764 1.2811.0274 1.93716.0083 2.73863-.07794 1.94294-.20943 2.8283-.4392 5.40963-1.40386.64293-.2403 1.29906-.45894 1.45809-.4859.34079-.05776.97636.06152 1.34679.25282.6686.34519 1.23035 1.2658 1.22685 2.01053-.00382.87005-.29255 1.39704-1.1399 2.08238-2.02607 1.63867-4.61297 2.6436-7.70101 2.99164-1.10116.12414-3.61528.14242-4.82966.03522-3.41989-.30195-5.79425-.89656-7.96415-1.99431-1.69312-.85657-2.98491-1.91921-3.94973-3.24914-.23707-.32679-.43844-.6023-.4475-.61238-.00907-.01003-.16663.17873-.35019.4194-.81136 1.06393-2.0521 2.20749-3.2646 3.00891-1.75044 1.15698-4.26338 2.03961-6.80613 2.39062-.7583.10463-3.27426.19096-3.91942.13443-4.45635-.39054-7.8616-1.757-10.33838-4.1486-2.51991-2.43334-3.60117-5.60576-3.17445-9.314.49105-4.26734 2.48591-7.28084 5.98343-9.03889 2.69561-1.35498 5.38477-1.8704 9.76416-1.87145 3.11153-.00134 5.71881.25767 9.6954.96097.9833.1739 1.8346.31627 1.8918.3164.08318 0 .14915-.31813.32957-1.59003.32643-2.30124.38494-3.0953.296-4.01714-.10351-1.07303-.2386-1.58413-.63851-2.41572-1.03178-2.14551-3.48106-3.45822-7.41418-3.97364-1.12483-.1474-3.72089-.16802-4.8477-.03858-1.88785.21697-2.94134.49343-5.29082 1.38832-1.37457.52357-1.38086.5252-1.92916.49247-.94258-.05614-1.58605-.48996-1.99877-1.34748-.16998-.35314-.19986-.49891-.19987-.97474 0-.7143.183-1.0935.82022-1.69944 1.42894-1.35884 3.83355-2.51603 6.2605-3.01288 1.554-.31813 2.31897-.38501 4.36637-.38181 2.11854.00561 3.47318.1249 5.35585.48078 3.13145.59185 5.5092 1.63509 7.30217 3.20373.532.46543 1.3342 1.3815 1.67795 1.91604.10506.1634.2133.2971.2405.2971.02724 0 .20103-.19634.38625-.43623 2.71494-3.51678 7.28752-5.50735 12.64468-5.50455zm139.94067 20.72727h-1.54087l-.60307.00087c-5.38107.01573-9.50531.24383-12.37274.6843-2.97362.45679-5.05515 1.236-6.2446 2.33766s-1.78417 2.72728-1.78417 4.87685c0 2.47201.91912 4.50067 2.75735 6.08599 1.83824 1.5853 4.16307 2.37796 6.9745 2.37796 2.43296 0 4.62263-.5777 6.569-1.7331 1.94637-1.15539 3.47373-2.75414 4.58208-4.79623 1.03907-1.91447 1.59108-4.06509 1.65603-6.45187l.0065-.4805v-2.90193zm27.55508-17.81819c-4.3893 0-7.77611 1.48852-10.16043 4.46556-2.38431 2.97704-3.57647 7.17196-3.57647 12.58476 0 5.46692 1.19216 9.6889 3.57647 12.66594 2.38432 2.97704 5.79822 4.46556 10.24171 4.46556 4.33512 0 7.72193-1.51558 10.16043-4.54675 2.4385-3.03117 3.65776-7.28021 3.65776-12.74714 0-5.35867-1.21925-9.51299-3.65776-12.46296-2.4385-2.94998-5.8524-4.42497-10.2417-4.42497zM149.51028 46.392c-2.70765.15534-3.81146.39744-5.43712 1.19259-.83283.40733-1.40764.84937-1.86246 1.43217-.6525.8362-1.04635 1.66715-1.32088 2.78682-.19978.81477-.22016 2.94816-.03474 3.63553.31234 1.15787.68313 1.8132 1.5169 2.68094 1.14168 1.18817 2.64671 1.9808 4.51356 2.37714.65314.13868.84617.18155 1.41491.1869l.29222.00002c.21665-.00148.48105-.00567.81754-.01086 1.15975-.01803 1.59367-.05138 2.0681-.15896 2.01416-.45717 3.80907-1.48763 5.1121-2.93477 1.18858-1.32 2.16347-3.29752 2.7-5.47673.11471-.46597.25824-1.2471.38615-2.0411l.06794-.43256c.17564-1.1472.3011-2.20537.23962-2.24427-.04398-.02788-.30966-.07188-.59032-.0979-.28068-.02624-1.08072-.12276-1.77787-.2151-4.141-.54851-6.68144-.76163-8.10565-.67986zm25.25582-16.40539c-1.47467.27697-2.7212.78182-3.8206 1.54726-2.03114 1.4142-3.43291 3.54599-4.2135 6.40776-.3066 1.12408-.38834 1.55555-.6617 3.49317l-.25217 1.78739.33778.0383c1.02019.11644 3.32068.40317 4.6567.58046.1401.01858.2855.03738.43248.05595l.44202.05464c.36614.04426.71902.08447 1.00059.11394l.29994.02977a10.7953 10.7953 0 0 0 .11734.0102c1.21495.09818 3.39322.08904 4.58469-.01914 1.67774-.152 2.70935-.42013 3.97684-1.0331 1.05417-.50985 1.66687-1.03094 2.24668-1.91076.85361-1.29535 1.186-2.5212 1.17764-4.34252-.00627-1.29814-.11314-1.83815-.54849-2.77012-.9727-2.08226-3.25773-3.57377-6.25465-4.08261-.74784-.12694-2.75505-.1044-3.5216.03941zm55.81665-22.71388c1.29292 0 2.3372.3571 3.13287 1.07116.79564.69112 1.19347 1.61255 1.19347 2.7643 0 1.1288-.39783 2.05023-1.19347 2.76429-.79566.69112-1.85238 1.03661-3.17016 1.03661-1.3178 0-2.37453-.3455-3.17017-1.03661-.79565-.71406-1.19347-1.6355-1.19347-2.7643 0-1.1287.39782-2.05013 1.19347-2.76429.8205-.71406 1.88966-1.07116 3.20746-1.07116z" fill="#000" fill-rule="nonzero"/></svg>