<svg xmlns="http://www.w3.org/2000/svg" role="img" xmlns:xlink="http://www.w3.org/1999/xlink" viewBox="-5.01 -0.01 325.52 56.77"><title>TrestleGRC logo</title><defs><path d="M15.55469 0v-37.88281H1.40625v-5.0664h34.04297v5.0664H21.24219V0zm0 0" id="a"/><path d="M3.89844 0v-31.11328h4.74218v4.71484c1.21094-2.20703 2.33204-3.66015 3.35547-4.36328 1.02735-.70312 2.15235-1.05469 3.38672-1.05469 1.77735 0 3.58203.56641 5.41797 1.69922l-1.8164 4.89063c-1.28907-.76172-2.57813-1.14063-3.8672-1.14063-1.15234 0-2.1875.34766-3.10546 1.03907-.91797.6953-1.57422 1.65624-1.96485 2.88671-.58593 1.875-.875 3.92579-.875 6.15235V0zm0 0" id="b"/><path d="M25.2539-10.01953l5.44922.67578c-.85937 3.1836-2.45312 5.65234-4.77343 7.41016C23.60547-.1758 20.6328.70312 17.02344.70312 12.47266.70313 8.86328-.69921 6.1953-3.5c-2.66406-2.80469-4-6.73438-4-11.79297 0-5.23437 1.35156-9.29687 4.04688-12.1875 2.69531-2.89062 6.1875-4.33594 10.48437-4.33594 4.16016 0 7.5625 1.41797 10.19532 4.2461C29.55859-24.73828 30.8789-20.75 30.8789-15.6172c0 .3125-.01172.78125-.02735 1.40625H7.64844c.19531 3.41797 1.16015 6.03907 2.89844 7.85157 1.73828 1.8164 3.90625 2.72656 6.5039 2.72656 1.9336 0 3.58203-.50781 4.94922-1.52344 1.36719-1.01563 2.45313-2.63672 3.2539-4.86328zM7.9375-18.54688h17.375c-.23438-2.61718-.89844-4.57812-1.99219-5.88671-1.67968-2.03125-3.85937-3.04688-6.53125-3.04688-2.42187 0-4.46093.8086-6.10937 2.4336-1.65235 1.62109-2.5625 3.78906-2.74219 6.5zm0 0" id="c"/><path d="M1.84375-9.28906l5.21875-.82032c.29297 2.08985 1.10547 3.69532 2.44531 4.8047 1.33594 1.11327 3.20703 1.67187 5.60938 1.67187 2.42187 0 4.21875-.49219 5.39062-1.48047 1.17188-.98438 1.75782-2.14453 1.75782-3.47266 0-1.1914-.51563-2.125-1.5547-2.8125-.72265-.46875-2.51562-1.0625-5.39062-1.78515-3.86718-.97657-6.54687-1.82032-8.03906-2.53516-1.4961-.71094-2.6289-1.69922-3.39844-2.95703-.77344-1.26172-1.15625-2.65235-1.15625-4.17578 0-1.38672.3164-2.67188.94922-3.85157.63672-1.18359 1.5-2.16406 2.59375-2.9453.82031-.60548 1.9375-1.1172 3.35547-1.53907 1.41406-.41797 2.9336-.6289 4.55469-.6289 2.4414 0 4.58593.35156 6.42968 1.05468 1.84766.70313 3.21094 1.65625 4.08594 2.85547.8789 1.20313 1.48438 2.8086 1.82032 4.82031l-5.15626.70313c-.23437-1.60157-.91406-2.85157-2.03906-3.75-1.1211-.89844-2.71093-1.34766-4.75781-1.34766-2.42188 0-4.15234.40235-5.1875 1.19922-1.03516.80078-1.55469 1.74219-1.55469 2.8125 0 .6836.21875 1.30078.64844 1.84766.42969.5664 1.10156 1.03515 2.01953 1.40625.52735.1953 2.08203.64453 4.66016 1.34765 3.73047.9961 6.33203 1.8125 7.80468 2.44532 1.47657.63671 2.63282 1.55859 3.47266 2.76953.83985 1.21093 1.26172 2.71484 1.26172 4.51172 0 1.7578-.51563 3.41406-1.53906 4.96484-1.02735 1.55469-2.50782 2.7539-4.4375 3.60547-1.9336.84765-4.125 1.27344-6.5625 1.27344-4.04297 0-7.125-.83985-9.2461-2.51954C3.78516-3.49609 2.4297-5.98437 1.84375-9.28906zm0 0" id="d"/><path d="M15.46875-4.71875l.76172 4.66016c-1.48438.3125-2.8125.46875-3.98438.46875-1.91406 0-3.39843-.30079-4.45312-.91016-1.05469-.60547-1.79688-1.39844-2.22656-2.38672-.4297-.98437-.64454-3.0586-.64454-6.22266v-17.90234H1.0547v-4.10156h3.86719v-7.70703l5.24218-3.16407v10.8711h5.30469v4.10156h-5.30469v18.1914c0 1.50391.09375 2.47266.28125 2.90235.1836.42969.48828.76953.90625 1.02735.42188.2539 1.02344.3789 1.80469.3789.58594 0 1.35547-.0664 2.3125-.20703zm0 0" id="e"/><path d="M3.83594 0v-42.94922h5.27343V0zm0 0" id="f"/><path d="M24.72656-16.84375v-5.03906l18.19532-.03125v15.9375C40.1289-3.75 37.24609-2.07422 34.27734-.95312 31.3086.17188 28.26172.73438 25.13672.73438c-4.21875 0-8.05078-.90626-11.5-2.71094-3.44531-1.8086-6.05078-4.42188-7.8086-7.83594-1.7578-3.41797-2.6328-7.23828-2.6328-11.45703 0-4.17969.87109-8.08203 2.62109-11.70313 1.74609-3.625 4.26171-6.3164 7.54296-8.07422 3.28125-1.7578 7.0625-2.6328 11.33594-2.6328 3.10547 0 5.91407.5 8.42578 1.5078 2.50782 1.00391 4.47657 2.40626 5.90235 4.20313 1.42578 1.79688 2.50781 4.14063 3.25 7.03125l-5.125 1.40625c-.64453-2.1875-1.44532-3.90625-2.40235-5.15625-.95703-1.25-2.32422-2.25-4.10156-3.0039-1.77734-.75-3.75-1.12891-5.91797-1.12891-2.59765 0-4.84375.39843-6.73828 1.1875-1.89453.79297-3.42187 1.83203-4.58594 3.1211-1.16015 1.28905-2.0664 2.70702-2.70703 4.24609-1.09375 2.65624-1.64062 5.53906-1.64062 8.64453 0 3.82812.65625 7.03125 1.97656 9.60937 1.3164 2.57813 3.23438 4.49219 5.75781 5.74219 2.51953 1.25 5.19532 1.875 8.02344 1.875 2.46094 0 4.86719-.47266 7.21094-1.42188 2.34375-.9453 4.11718-1.95703 5.32812-3.03125v-7.99609zm0 0" id="g"/><path d="M4.71875 0v-42.94922h19.03906c3.82813 0 6.74219.38672 8.73438 1.15625 1.99218.77344 3.58203 2.13672 4.77343 4.08984 1.19141 1.95313 1.78907 4.10938 1.78907 6.47266 0 3.04688-.98828 5.61328-2.96094 7.70703-1.97266 2.08985-5.01953 3.41407-9.14063 3.98438 1.50391.72265 2.64844 1.4336 3.4297 2.13672 1.66015 1.52343 3.23046 3.42578 4.71484 5.71484L42.5703 0h-7.14843l-5.6875-8.9375c-1.66016-2.57813-3.02344-4.54688-4.10157-5.91406-1.07422-1.36719-2.03515-2.32813-2.88281-2.875-.85156-.54688-1.71484-.92578-2.59375-1.14063-.64453-.13672-1.69922-.20312-3.16406-.20312h-6.59375V0zm5.67969-23.99219h12.21875c2.59765 0 4.6289-.26953 6.09375-.8086 1.46484-.53515 2.57812-1.39452 3.33984-2.57812.76172-1.17968 1.14453-2.46484 1.14453-3.85156 0-2.03125-.73828-3.69922-2.21484-5.01172-1.47266-1.3086-3.80078-1.96093-6.98828-1.96093H10.39844zm0 0" id="h"/><path d="M35.27344-15.0586l5.6836 1.4336c-1.19141 4.66797-3.33595 8.23047-6.4297 10.67969C31.4297-.4922 27.64844.73438 23.17187.73438c-4.6289 0-8.39062-.94532-11.29296-2.82813-2.89844-1.88672-5.10547-4.61719-6.6211-8.1875-1.51172-3.57422-2.26953-7.41406-2.26953-11.51563 0-4.47265.85547-8.375 2.5625-11.70312 1.71094-3.33203 4.14063-5.85938 7.29688-7.58984C16-42.81641 19.47266-43.6797 23.26172-43.6797c4.29687 0 7.91015 1.09375 10.83984 3.28125 2.92969 2.1875 4.96875 5.26172 6.125 9.22657l-5.59765 1.3203c-.9961-3.125-2.44141-5.40234-4.33594-6.82812-1.89453-1.42578-4.27735-2.14062-7.14844-2.14062-3.30078 0-6.0586.79297-8.27734 2.375-2.21485 1.58203-3.77344 3.70703-4.67188 6.3711-.89843 2.66796-1.34765 5.41796-1.34765 8.24609 0 3.65234.53125 6.84374 1.59765 9.5664 1.0625 2.72656 2.71875 4.76172 4.96485 6.10938 2.24609 1.34765 4.67578 2.01953 7.29297 2.01953 3.18359 0 5.8828-.91406 8.08593-2.75 2.20703-1.83594 3.70313-4.5625 4.48438-8.17578zm0 0" id="i"/></defs><use y="50" xlink:href="#a"/><use x="36.65" y="50" xlink:href="#b"/><use x="56.631" y="50" xlink:href="#c"/><use x="90" y="50" xlink:href="#d"/><use x="120" y="50" xlink:href="#e"/><use x="136.67" y="50" xlink:href="#f"/><use x="150" y="50" xlink:href="#c"/><use x="183.369" y="50" xlink:href="#g"/><use x="230.039" y="50" xlink:href="#h"/><use x="273.369" y="50" xlink:href="#i"/></svg>