<svg xmlns="http://www.w3.org/2000/svg" role="img" xmlns:xlink="http://www.w3.org/1999/xlink" viewBox="78.18 -3.07 243.39 250.64"><title>Truffle Blockchain Group, Inc. logo</title><style>svg {enable-background:new 0 0 400 245}</style><style/><g id="Layer_2_1_"><defs><path id="SVGID_4_" d="M83 1.8h234.1v241.4H83z"/></defs><clipPath id="SVGID_2_"><use overflow="visible" xlink:href="#SVGID_4_"/></clipPath><path fill="#5f474e" d="M83 208.9v6.3h5.9v27.2h6.4v-27.2h6.1v-6.3z" clip-path="url(#SVGID_2_)"/><g clip-path="url(#SVGID_2_)"><defs><path id="SVGID_6_" d="M83 1.8h234.1v241.4H83z"/></defs><clipPath id="SVGID_3_"><use overflow="visible" xlink:href="#SVGID_6_"/></clipPath><path fill="#5f474e" d="M123.8 222h3.8c2 0 3.4-.3 4.2-.8.8-.6 1.2-1.6 1.1-2.6 0-.7-.2-1.3-.6-1.9-.4-.5-.9-.9-1.5-1.2-1.2-.3-2.3-.4-3.5-.4h-3.5v6.9zm-6.4-13.1h8.5c3.7 0 6.3.3 7.9 1 1.6.7 2.9 1.8 3.8 3.3 1 1.6 1.5 3.5 1.4 5.4.1 2-.5 3.9-1.6 5.5-1.2 1.6-2.9 2.8-4.8 3.4l7.9 14.9h-7l-7.5-14.2h-2.4v14.2h-6.4v-33.5zm39.4 0h6.4v21.6c-.1 1.3.1 2.7.5 4 .3.8.9 1.4 1.6 1.8.8.5 1.8.7 2.7.7 1 0 2-.2 2.9-.8.8-.5 1.4-1.1 1.7-2 .4-1.5.6-3 .5-4.6v-20.8h6.4v19.9c.1 2.3-.1 4.7-.6 7-.4 1.4-1.2 2.7-2.2 3.8-1 1.2-2.3 2.1-3.7 2.6-1.5.6-3.2.9-4.9.9-2.2.1-4.4-.5-6.3-1.7-1.7-1-3-2.4-3.9-4.2-.8-1.7-1.2-4.5-1.2-8.5l.1-19.7zm42 0h16.6v6.2h-10.3v6.1h10.3v6.1h-10.3v15.1h-6.3zm34.2 0h16.6v6.2h-10.3v6.1h10.3v6.1h-10.3v15.1H233zm34.1 0h6.4v27.4h9.3v6.1h-15.7zm31.7 0H317v6.3h-11.9v6H317v6.1h-11.9v8.8H317v6.3h-18.2z" clip-path="url(#SVGID_3_)"/><path fill="#5e464d" d="M199.9 1.8c47.9 0 86.7 39.3 86.7 87.7s-38.8 87.7-86.7 87.7-86.7-39.3-86.7-87.7S152 1.8 199.9 1.8" clip-path="url(#SVGID_3_)"/><path fill="#fff" d="M172.6 167.3c3.5 1.2 15.5 5.1 16 1.3.3-2.1-6-4.2-14.5-8.7-12.1-6.4-23.2-14.6-32.9-24.3-14.1-13.8-22.2-32.7-22.6-52.4-.7-26.5 9.7-48 26.7-61.8-20.9 16.1-33.4 40.7-34 67.1-.5 19.2 4.9 35.4 14.9 50.1 3.1 4 6.8 7.6 10.9 10.7 9.7 7.2 23.8 14 35.5 18" clip-path="url(#SVGID_3_)"/><path fill="#fff" d="M288.1 69.3c-5.4-25.3-22.1-43-44.4-55.5 17.1 12.2 41.1 38 27 60.9-12 18.3-41.3 14.7-57.2 6-18.9-10.3-42.8-33.5-19.3-56.2 15.2-14.7 63.6 1.8 55 23.7-5 12.7-24.3 9.9-33 3.7-6.4-4.6-11.8-12.5-8.9-20.7.9-2.6.8-6.7-2.9-3.7-2.8 2.2-4.1 5.9-4.6 9.3-4 28.6 46.8 50.7 62 23.1 7.8-14.4-4.9-35.2-20.9-43.7-12-6.4-24.5-11-39.9-9.9-24.5 1.8-45.1 17.1-47.6 42.1-2.6 24.9 14.1 47.3 33.7 60.7 20.6 14.1 48.3 23.4 73.7 15 22.6-7.4 31.9-33.5 27.3-54.8" clip-path="url(#SVGID_3_)"/><path fill="#3fe0c5" d="M255.8 50c2.4-16.4-12.3-27.6-26-32.7-16.1-6-37.4-3.4-49.2 10-8.6 9.8-8 24.1-3.6 35.6 6.7 17.4 21.8 30 39.4 35.4 12.5 3.9 27.6 5.5 40.3 1.5 18.5-5.9 24.5-25.2 20.7-42.9-.8-3.8-2.1-7.5-3.7-11.1-2.3-4.9-9.5-14.8.4-2.7 1 1.3 2 2.8 2.8 4.2 2 3.3 3.6 6.9 4.8 10.7 5.4 16.5 1.2 35.7-13.8 45.7-11.5 7.6-26 8.5-39.2 6.6-17.8-2.5-34.5-11.2-46.2-25C171.8 72.6 164.6 54.5 169 38c3.2-12.1 13-21.1 24.8-24.9 14.9-4.8 31.3-2.6 44.7 5.2 6.7 3.9 12.9 9.3 16.3 16.4 1.6 3.2 2.4 6.7 2.5 10.2 0 1.4-.1 2.9-.3 4.3-.3.5-1.4 2-1.2.8" clip-path="url(#SVGID_3_)"/></g></g></svg>