<svg xmlns="http://www.w3.org/2000/svg" role="img" viewBox="285.02 365.02 1350.96 350.96"><title>Tsavorite Scalable Intelligence, inc (member) logo</title><path fill="#FFF" d="M1223 1081H1.00016c-.00005-359.99988-.00005-719.99973-.0001-1079.9997 640.333-.0001 1280.66608-.0001 1920.99945-.0002.00012 359.99956.00012 719.99923.00025 1079.99941C1689.16663 1081 1456.33337 1081 1223 1081M371.17578 560.33289c-10.19086-9.8462-18.67901-20.76117-22.26886-34.8531-.23654-.92852-1.68964-2.1947-2.59213-2.20733-10.93979-.15259-21.88242-.099-32.72742-.099-4.60684 20.6571.30246 37.8208 15.35977 51.9369 7.40793 6.94488 14.97559 13.73101 22.15958 20.90093 27.2371 27.18414 54.29965 54.5431 81.55264 81.71118 4.35953 4.34601 9.3587 8.0503 14.62012 12.52582V464.6922h-95.3818v-33.86908h226.59396v74.06094h36.31671V391.51434H313.72653v115.6745h92.72131V593.498c-11.51782-10.82026-23.14553-21.74378-35.27206-33.1651M481.1593 645.5v45.16565c1.86734-1.49335 3.06705-2.28906 4.07257-3.2815 16.35446-16.14153 32.64032-32.35272 49.0304-48.45794 22.80652-22.41034 45.67804-44.75464 68.53906-67.1095 13.99518-13.6853 15.37396-30.50299 12.40015-48.81958-10.74341 0-21.22455-.12152-31.69507.15845-1.26459.03381-3.08795 2.01776-3.60602 3.47095-3.81476 10.69873-9.44006 20.3366-17.80676 27.93963-9.7187 8.8316-20.04334 16.99823-30.14203 25.409-3.74591 3.11975-7.59705 6.11316-12.27704 9.86761V467.21741H481.1593V645.5m783.83533-144.0318v10.4638h22.14563v-31.05868c4.1875 0 7.86633.22763 11.50305-.06647 3.38208-.27346 5.42786.90452 7.24951 3.78782 5.2378 8.29104 10.74634 16.4135 16.2682 24.52053.85265 1.2516 2.30773 2.91336 3.53405 2.95603 7.75158.2699 15.51721.1369 24.02917.1369-8.17639-12.07584-15.85168-23.4115-23.61157-34.8722 1.11035-.59374 1.83106-.99453 2.56519-1.36923 13.46643-6.87371 19.75354-18.95855 17.77575-34.17501-1.9309-14.85593-10.23742-25.1818-25.8828-26.6182-18.27223-1.67758-36.81654-.39197-55.57618-.39197v86.68668m-31.95117-52.9873c-8.71411-28.23984-37.47058-42.97043-66.49305-34.0614-27.104 8.32006-41.87841 36.97872-33.32617 64.64385 8.13172 26.30399 36.80591 40.69898 65.27234 32.76786 26.5763-7.40448 41.72315-34.67917 34.54688-63.35031m349.45605-15.25977h27.45288v-19.04346h-73.28466v97.8324h74.06323v-19.401h-52.43506V472.3786h45.37024v-19.6513h-45.39466v-19.50632c7.9187 0 15.57325 0 24.22803.00015m-646.42786 69.4755c1.72217-4.12638 3.4444-8.25275 5.21418-12.49326 12.83123 0 25.48883-.0853 38.14135.12921 1.2945.02197 3.13148 1.57346 3.73615 2.87186 2.45294 5.26709 4.41254 10.76263 6.81671 16.05456.5556 1.22272 2.11676 2.76468 3.27002 2.81162 6.60217.26873 13.22089.13055 20.4665.13055-.87708-2.2938-1.46601-3.98486-2.16175-5.63083-11.12146-26.31036-22.24707-52.61899-33.39685-78.91739-2.00543-4.72995-2.91748-11.27484-6.51923-13.60614-3.79669-2.45749-10.23443-.62857-15.4737-1.13504-3.5548-.34368-4.898 1.26285-6.12884 4.2229-7.84369 18.86243-15.86071 37.65274-23.80511 56.47336-5.3487 12.67118-10.67182 25.35315-16.2436 38.59418 4.5329 0 8.4961-.00006 12.45936 0 9.72668 0 9.72668.00006 13.62482-9.50559M814.99608 499.293c6.99872 5.84546 14.86219 10.096 23.72107 12.26486 13.4422 3.29102 26.6189 3.4779 39.18933-3.6123 16.008-9.0292 19.80011-39.19577-1.6236-48.8855-5.4154-2.44937-11.19146-4.11469-16.83648-6.03867-4.86493-1.65805-9.83246-3.02597-14.6543-4.79568-3.74896-1.37595-6.10064-4.0637-5.76513-8.36295.3374-4.32507 3.26282-7.00485 7.03992-7.24862 5.18615-.33487 10.67065-.16535 15.62951 1.21606 5.2962 1.47537 10.12982 4.61182 15.45087 7.15985 3.5996-5.2537 7.23297-10.55655 11.1164-16.2244-15.70405-11.3454-32.43672-15.88207-50.97822-10.05566-12.69684 3.98978-19.94458 14.42374-20.1449 27.39957-.1994 12.91845 5.66223 21.11615 19.00354 26.2211 3.86475 1.47885 7.91224 2.47555 11.85895 3.74618 5.2088 1.67697 10.4696 3.22583 15.57709 5.1732 3.68622 1.4055 5.9591 4.06438 5.57092 8.45226-.3855 4.35837-3.10602 7.13394-6.89313 7.35364-6.17864.3584-12.72009.60818-18.56128-1.03787-6.20526-1.74866-11.77325-5.75858-18.07617-9.0171-3.48596 4.17582-7.44757 8.85944-11.29498 13.6351-.3487.43287.03766 1.45786.6706 2.65693m238.05859 4.18255c4.03674 9.52848 4.03674 9.52848 14.35632 9.52842 1.16602 0 2.3556-.15076 3.49377.02734 3.86158.60425 5.72437-.83087 7.22852-4.6778 11.72925-29.99835 23.77307-59.8738 35.70264-89.79397.53894-1.35156.91406-2.76834 1.56347-4.76315-6.75305 0-13.03527.14532-19.30554-.06403-2.93994-.09817-4.31872.79633-5.3512 3.68698-5.41442 15.16086-11.10131 30.22437-16.69567 45.32096-2.28345 6.16214-4.57227 12.32235-7.21619 19.44735-.9469-2.42718-1.48926-3.75525-1.98608-5.10013-7.30408-19.77313-14.56092-39.56393-21.9806-59.29351-.58166-1.54636-2.23278-3.74622-3.48193-3.81116-7.0824-.36804-14.19385-.1781-22.06134-.1781 12.03449 30.12405 23.78034 59.5256 35.73383 89.6708m-321.56653-69.4703h12.1554v77.9862h21.73016v-78.1983h29.21576V414.029h-80.6419v19.97626h17.54058m760.02295-.00058h17.27405v-20.02338h-80.43225v20.20297h29.6687v77.72986h21.71325v-77.90945h11.77625m-113.5177-18.05753v95.90632h21.39746v-98.0813c-6.01636 0-11.80676-.07367-17.59229.05774-1.2683.0288-2.51977.7878-3.80517 2.11724m-2.55127 242.0611c17.95886-.59699 25.55102-8.47986 25.56543-26.55103.00537-6.66607.0011-13.33221.0011-19.99829.00012-5.76477 0-11.52954 0-17.15887h-10.87476c-.1222 2.06073-.22607 3.81189-.34106 5.75299-13.72827-9.36963-25.5326-9.1289-33.62769.46167-7.44665 8.82227-7.15173 23.44989.63867 31.68133 8.69715 9.1894 20.4563 8.909 32.78931-.78198 1.93823 16.92896-10.77856 21.98914-32.46301 12.67768-1.2478 2.62964-2.49951 5.2672-3.82825 8.0675 6.7434 4.154 13.77686 5.68897 22.14026 5.849m-399.93085-62.06103c-1.86523 1.47949-3.73047 2.95892-6.35394 5.03985v-24.78113h-10.7854v66.49353h10.59619c.21228-1.97595.39075-3.63757.60712-5.6521 9.81012 6.77588 14.0932 8.0478 20.79693 6.42902 16.24402-3.9226 23.47803-25.22192 13.67224-40.25562-6.35815-9.74786-17.42407-12.78393-28.53314-7.27355M730.6687 627.05993c-1.75915 2.13232-3.51837 4.26464-5.22626 6.33483 9.41278 9.61579 26.22602 13.32624 37.83441 8.55121 7.31586-3.00927 11.284-8.56262 11.70704-16.4804.42212-7.90021-3.22425-13.46296-10.36286-16.57831-3.63513-1.5863-7.51825-2.6029-11.28503-3.88953-3.45221-1.1792-7.20282-1.87994-10.2373-3.7434-1.91547-1.17621-3.90656-4.17426-3.77631-6.2223.14783-2.32367 2.19812-5.80175 4.18457-6.45422 3.57849-1.1753 7.88806-1.37884 11.59222-.58637 4.22601.90412 8.12433 3.33991 12.36804 5.19904l5.55036-8.13617c-8.88666-6.68951-18.36267-9.3982-28.92017-7.37286-9.87054 1.89361-15.73279 8.17651-16.26337 16.89312-.58196 9.56122 3.37049 15.1006 13.74671 18.70777 5.0158 1.74371 10.22241 2.93176 15.27374 4.58215 4.0401 1.31995 7.41944 3.60626 6.84448 8.5177-.58453 4.99286-4.38183 6.83802-8.78301 7.38281-7.29413.90302-13.75385-1.37573-19.66144-5.61053-1.17151-.83978-2.74-1.12586-4.58582-1.09454m711.15015 5.78558c-11.26367 4.58801-20.44483.44476-21.72461-10.42859h35.08337c1.12476-14.52167-5.13818-25.39221-15.94812-28.4298-10.88452-3.05854-21.4464 1.04235-27.14477 10.53972-5.95789 9.92933-4.6189 23.95691 3.05517 32.0099 10.25867 10.76513 29.73584 9.82238 37.82068-2.0453-2.05762-1.7918-4.13708-3.6026-6.1372-5.34435-1.6991 1.2818-3.02454 2.28173-5.00452 3.69842m-400.7898-28.22723c-3.45263 6.02423-4.31592 12.47442-3.16626 19.2553 1.72034 10.14625 8.9629 17.49757 19.35743 19.64911 9.80249 2.029 20.03881-1.68829 24.70373-9.12786a814659.16488 814659.16488 0 0 0-6.17334-5.2887c-6.08472 5.45477-12.45032 7.45825-19.6803 4.18262-4.3385-1.96546-6.72241-5.47962-7.09362-10.92865h35.09191c1.4419-13.02118-4.0891-23.84253-13.83227-27.68396-10.76758-4.24536-21.5061-.77832-29.20728 9.94214m222.24-8.5066c-12.93824-6.36254-26.11976-2.61193-32.66395 9.29407-6.67346 12.14142-2.92969 28.03546 8.20984 34.85346 11.10755 6.79846 26.4071 4.21997 33.13892-5.77118-2.0509-1.80097-4.11939-3.61737-6.19348-5.43866-5.96875 5.54211-12.36707 7.45178-19.59522 4.29107-4.38025-1.91534-6.78479-5.4757-7.20972-10.9148h35.44263c.41284-10.6295-1.69946-19.60467-11.12903-26.31396m315.91187 35.37305c-1.6211-2.65747-3.24231-5.31494-5.53955-9.0808h36.3634c1.7804-13.8838-4.87854-25.4375-16.05408-28.46913-15.62414-4.23828-29.2495 6.10755-30.52636 23.17878-.84766 11.33282 5.38049 21.36785 15.65344 25.2215 10.63513 3.98962 22.27868.98882 28.98767-7.74982-2.047-1.79786-4.11804-3.61689-6.20728-5.45179-6.93713 5.8578-14.06848 8.00013-22.67724 2.35126m-631.17304 8.8122c-.00079-9.15906.1637-18.32209-.0531-27.47602-.18396-7.76574-2.69256-14.60266-10.50665-17.75262-9.85779-3.97394-19.46222-2.16358-29.17602 2.00818 1.06866 3.1955 1.99469 5.9643 2.91546 8.71759 18.29444-5.1836 26.93195-2.04138 25.4325 7.6565-6.29291 0-12.46564-.64503-18.44837.14635-9.75409 1.29023-14.95788 7.94336-14.14386 16.66932.75672 8.1106 7.48072 14.13818 16.82367 13.523 5.45728-.35937 10.77143-2.8922 16.03778-4.41473.05646.47357.23908 2.00482.43341 3.63416 2.2262 0 4.0871.22754 5.86164-.06623 1.65289-.27362 3.2138-1.10205 4.82354-2.6455m-117.2879-6.85248c1.56793 5.05212 5.13007 8.07635 10.03699 9.55633 8.10742 2.44525 15.3449.61457 22.04553-5.47589.14386 2.22064.24268 3.74549.33527 5.17468h10.80835c0-10.617.28875-20.93682-.09381-31.23168-.29181-7.8537-3.66358-14.3003-11.66333-16.92438-9.4651-3.10468-18.64289-1.64972-27.90217 2.5987 1.04572 3.15997 1.99463 6.02752 2.953 8.92358 18.73963-7.46338 27.43287.17279 25.55549 7.4771-6.56268 0-12.92066-.73376-19.03961.16322-10.52411 1.54284-14.89905 8.37213-13.0357 19.73834m633.27733-17.94434v27.24439h11.1853c0-2.3769-.00024-4.50684 0-6.63684.00086-7.15271-.17883-14.31134.0536-21.45655.23388-7.18542 4.6162-11.48547 11.14038-11.46814 6.10632.01624 9.9502 3.98816 10.401 10.96015.182 2.81634.04285 5.65368.0437 8.4815.0022 6.73438.00073 13.4687.00073 20.07093h11.13757c0-11.09693.24122-21.89466-.08544-32.67524-.21412-7.06835-3.09314-13.05773-10.20667-15.73034-7.31616-2.74878-14.05396-1.46015-19.83252 4.00555-.63354.59918-1.29968 1.16382-2.46875 2.20648-.1377-2.56799-.23205-4.32794-.33252-6.19976h-11.03638v21.19787m-309.08862-4.66748c2.61267-5.96692 6.78052-8.51141 12.38404-7.56073 4.97668.84436 8.07568 4.70294 8.48461 10.80322.1665 2.4856.03711 4.99115.0376 7.48768.00147 7.07617.00061 14.15228.00061 21.14947h11.1073c0-11.2478.2865-22.21625-.10254-33.1607-.25183-7.08747-3.39831-12.9259-10.60364-15.42804-7.21179-2.5044-13.75683-1.1286-19.3844 4.16137-.7202.67694-1.50146 1.289-2.74707 2.35126v-6.32501h-10.7771v48.41443h10.87647c0-2.24335-.03296-4.21253.00574-6.18024.16345-8.3006.34826-16.60077.71838-25.7127m402.16248-6.51386c.8302-.95319 1.6604-1.90644 2.4624-2.82727-9.7406-11.07673-27.22876-11.31543-37.44104-.732-10.1217 10.48914-9.24683 28.23773 1.84424 37.41876 11.00976 9.11377 27.93213 7.44196 35.31701-2.8048-1.90637-2.46222-3.71826-4.8025-5.48413-7.08332-9.38684 7.206-17.39697 7.68622-23.1527 1.68811-5.61256-5.84857-6.04127-16.388-.40089-22.31604 2.03797-2.14178 5.09778-3.84619 7.9817-4.53546 5.78613-1.38293 10.58178 1.41998 14.82763 5.79773 1.41064-1.58105 2.50488-2.80737 4.04578-4.60571m-737.9444 24.57849c-1.35107.73419-2.78314 1.3515-4.03967 2.2221-6.69385 4.63807-14.99762 3.9983-19.88806-1.60028-5.4137-6.19757-5.26355-16.40673.32965-22.41064 5.15728-5.53613 13.1449-5.77918 19.79126-.59888.8703.67829 1.72888 1.37177 2.737 2.17273 2.36407-2.55774 4.46539-4.8313 6.5407-7.07666-9.41766-10.99078-26.78991-11.48108-37.06823-1.28119-10.37994 10.30072-9.94836 27.93683.917 37.4676 10.78942 9.46423 27.79467 8.04894 36.91918-3.8058-1.80365-1.49712-3.70831-3.07812-6.23883-5.08898m386.94916 13.89544c2.11206.40229 4.2135 1.07795 6.33789 1.16004 9.6178.37146 11.64184-1.83038 10.29993-10.90106-2.10364.3142-4.19837.78088-6.31348.90844-3.5442.21369-5.9812-1.51861-6.07276-5.10144-.2113-8.27502-.06713-16.55908-.06713-25.41906h12.56286v-9.56311h-12.64746v-12.5005h-11.34302v12.35389c-2.12988.2168-4.02221.40936-5.75878.58606v8.86993c2.01733.2013 3.79931.3791 5.92456.59113 0 8.74914-.07093 17.38257.02648 26.0141.05835 5.182 1.17945 9.95465 7.0509 13.00158m109.26612.2057c2.89441.44036 2.67578-1.49201 2.67053-3.39515-.0282-10.30304-.01318-20.6062-.01306-30.90936v-32.34772h-10.84936v66.65344c2.6261 0 4.9309 0 8.1919-.00122m-419.34235-3.669v-63.0583h-10.93805v66.72413c3.01599 0 5.82849.21423 8.57281-.1242.88068-.10859 1.58136-1.67695 2.36523-3.54163m124.60163-63.32764c-3.82099-.4403-2.74658 2.41248-2.75122 4.29755-.0484 19.60925-.03626 39.21869-.01416 58.82806.0014 1.24628.22516 2.49231.32763 3.55402h10.56202V576.0006c-2.56763 0-4.86518 0-8.12427.00116m263.2201 56.4809v10.2589h10.96898V576.341h-10.96899v56.14167M1118.99976 616.5v26.2539h10.97485V578.333h-10.97485V616.5m210.8203 0v26.26746h10.8191V594.3175h-10.8191V616.5m5.61451-40.51257h-5.89221v10.69275h11.43152v-10.69275h-5.53931z"/><path fill="#1B02F2" d="M371.42517 560.58179c11.87714 11.17242 23.50485 22.09594 35.02267 32.9162v-86.30915h-92.7213v-115.6745h301.08181v113.36972h-36.31671v-74.06094H351.89768v33.86908h95.3818v225.5561c-5.26141-4.47553-10.26059-8.17982-14.62012-12.52583-27.25299-27.16809-54.31555-54.52704-81.55264-81.71118-7.184-7.16992-14.75165-13.95605-22.15958-20.90094-15.0573-14.11609-19.96661-31.27978-15.35977-51.93689 10.845 0 21.78763-.05359 32.72742.099.9025.01263 2.35559 1.27881 2.59213 2.20734 3.58984 14.09192 12.078 25.0069 22.51825 35.10199z"/><path fill="#1C03F2" d="M481.1593 645V467.2174h38.51526v122.62537c4.68-3.75445 8.53113-6.74786 12.27704-9.86761 10.0987-8.41077 20.42334-16.5774 30.14203-25.409 8.3667-7.60303 13.992-17.2409 17.80676-27.93963.51807-1.45319 2.34143-3.43714 3.60602-3.47095 10.47052-.27997 20.95166-.15845 31.69507-.15845 2.97381 18.3166 1.59503 35.13428-12.40015 48.81958-22.86102 22.35486-45.73254 44.69916-68.53906 67.1095-16.39008 16.10522-32.67594 32.3164-49.0304 48.45794-1.00552.99244-2.20523 1.78815-4.07257 3.2815V645z"/><path fill="#1A8928" d="M1264.99463 500.97363v-86.1921c18.75964 0 37.30395-1.28562 55.57617.39196 15.64539 1.4364 23.9519 11.76227 25.88281 26.6182 1.97779 15.21646-4.30932 27.3013-17.77575 34.17501-.73413.3747-1.45484.77549-2.56519 1.36924 7.75989 11.4607 15.43518 22.79635 23.61157 34.87219-8.51196 0-16.27759.133-24.02917-.1369-1.22632-.04267-2.6814-1.70444-3.53406-2.95603-5.52185-8.10702-11.0304-16.22949-16.26819-24.52053-1.82165-2.8833-3.86743-4.06128-7.2495-3.78782-3.63673.2941-7.31556.06647-11.50306.06647v31.05869h-22.14563v-10.95838m21.87451-47.5044v7.55412c9.06348 0 17.40088.43399 25.67017-.13016 7.30017-.49802 12.16967-6.46836 12.15576-13.44272-.0144-7.24545-4.5619-12.83783-12.12354-13.35666-8.38256-.57516-16.83496-.13153-25.70239-.13153v19.50696zm-53.72974-4.58983c7.08033 28.27264-8.06652 55.54733-34.64282 62.9518-28.46643 7.93113-57.14062-6.46386-65.27234-32.76785-8.55224-27.66513 6.22217-56.32379 33.32617-64.64386 29.02247-8.90902 57.77894 5.82157 66.589 34.4599m-75.95264-.9986c-.88123 2.499-1.97852 4.94477-2.60926 7.50544-4.83679 19.63681 9.53968 38.74081 28.83191 38.41138 14.38343-.2456 26.05127-10.60678 28.4336-25.24945 2.42334-14.89337-5.55628-29.574-18.71997-34.44074-13.7467-5.08227-27.79407.1087-35.93628 13.77338zm424.81274-14.65972c-8.15478-.0001-15.80932-.0001-23.72803-.0001v19.50633h45.39466v19.6513h-45.37024v20.23047h52.43506v19.401h-74.06324v-97.8324h73.28467v19.04346c-9.2229 0-18.33789 0-27.95288-.00006z"/><path fill="#198927" d="M935.97156 503.0705c-3.79804 9.13177-3.79804 9.1317-13.52472 9.1317-3.96326-.00005-7.92645 0-12.45935 0 5.57178-13.24102 10.8949-25.923 16.24359-38.59417 7.9444-18.82061 15.96142-37.61093 23.80511-56.47336 1.23084-2.96005 2.57404-4.56659 6.12885-4.2229 5.23926.50647 11.677-1.32245 15.4737 1.13504 3.60174 2.3313 4.51379 8.8762 6.51922 13.60614 11.14978 26.2984 22.27539 52.60703 33.39685 78.9174.69574 1.64596 1.28467 3.33703 2.16174 5.63082-7.2456 0-13.86432.13818-20.46649-.13055-1.15326-.04694-2.71441-1.5889-3.27002-2.81162-2.40417-5.29193-4.36377-10.78747-6.81671-16.05456-.60467-1.2984-2.44165-2.84989-3.73614-2.87186-12.65253-.2145-25.31012-.12921-38.14136-.12921-1.76978 4.2405-3.492 8.36688-5.31427 12.86713m27.00952-60.3096c-.46722-.77845-.93439-1.55689-1.58008-2.6327-3.98675 9.91178-7.82464 19.44031-11.63855 28.97846-.17303.43286-.12951.95233-.18402 1.40774h24.66937c-3.81885-9.31835-7.45209-18.1839-11.26672-27.7535z"/><path fill="#1A8928" d="M814.70209 499.06848c-.33893-.97455-.72528-1.99954-.37659-2.4324 3.84741-4.77567 7.80902-9.4593 11.29498-13.6351 6.30292 3.25851 11.87091 7.26843 18.07617 9.01709 5.8412 1.64605 12.38264 1.39627 18.56128 1.03787 3.78711-.2197 6.50763-2.99527 6.89313-7.35364.38819-4.38788-1.8847-7.04675-5.57092-8.45227-5.10748-1.94736-10.36829-3.49622-15.57709-5.17319-3.94672-1.27063-7.9942-2.26733-11.85895-3.74618-13.3413-5.10495-19.20294-13.30265-19.00354-26.2211.20032-12.97583 7.44806-23.4098 20.1449-27.39957 18.5415-5.82641 35.27417-1.28973 50.97821 10.05567-3.88342 5.66784-7.51678 10.9707-11.1164 16.2244-5.32104-2.54804-10.15466-5.68449-15.45086-7.15986-4.95886-1.3814-10.44336-1.55093-15.62951-1.21606-3.7771.24377-6.70252 2.92355-7.03992 7.24862-.33551 4.29926 2.01617 6.987 5.76513 8.36295 4.82184 1.76971 9.78937 3.13763 14.6543 4.79568 5.64502 1.92398 11.42108 3.5893 16.83649 6.03867 21.4237 9.68973 17.63159 39.8563 1.6236 48.8855-12.57044 7.0902-25.74714 6.90332-39.18934 3.6123-8.85888-2.16885-16.72235-6.4194-24.01507-12.48938z"/><path fill="#198927" d="M1052.95093 503.1037c-11.84973-29.77335-23.59558-59.1749-35.63007-89.29895 7.8675 0 14.97895-.18994 22.06134.1781 1.24915.06494 2.90027 2.2648 3.48194 3.81116 7.41967 19.72958 14.6765 39.52038 21.98059 59.29351.49682 1.34488 1.03918 2.67295 1.98608 5.10013 2.64392-7.125 4.93274-13.28521 7.21619-19.44736 5.59436-15.09658 11.28125-30.16009 16.69568-45.32095 1.03247-2.89065 2.41125-3.78515 5.3512-3.68698 6.27026.20935 12.55248.06403 19.30553.06403-.64941 1.9948-1.02453 3.41159-1.56347 4.76315-11.92957 29.92017-23.9734 59.79562-35.70264 89.79398-1.50415 3.84692-3.36694 5.28204-7.22852 4.6778-1.13818-.17811-2.32775-.02735-3.49377-.02735-10.31958.00006-10.31958.00006-14.46008-9.90027z"/><path fill="#1A8928" d="M730.99103 434.00525h-17.04346v-19.97626h80.6419v19.76416h-29.21575v78.1983h-21.73017v-77.9862h-12.65252z"/><path fill="#198928" d="M1491.01318 434.00467h-11.27832v77.90945h-21.71325v-77.72986h-29.6687V413.9813h80.43225v20.02338h-17.77198z"/><path fill="#1C8A2A" d="M1378.00647 415.4938c1.27234-.8761 2.5238-1.6351 3.79211-1.6639 5.78553-.13141 11.57593-.05774 17.59229-.05774v98.0813h-21.39746c0-32.0112 0-63.95878.01306-96.35965z"/><path fill="#1F05F3" d="M1374.9707 658.00824c-7.89197-.16003-14.92541-1.695-21.66882-5.849 1.32874-2.8003 2.58044-5.43786 3.82825-8.0675 21.68445 9.31146 34.40124 4.25128 32.46301-12.67768-12.333 9.69098-24.09216 9.97138-32.7893.78199-7.79041-8.23145-8.08533-22.85907-.63868-31.68134 8.0951-9.59058 19.89942-9.8313 33.62769-.46167.11499-1.9411.21887-3.69226.34106-5.753h10.87476c0 5.62934.00012 11.39411 0 17.15888 0 6.66608.00427 13.33222-.0011 19.9983-.0144 18.07116-7.60657 25.95403-26.03687 26.55102m-2.5315-55.17914c-8.24914 2.7165-12.00915 9.00568-9.98168 16.69568 1.8114 6.86981 8.4491 11.0149 15.6792 9.79114 7.97851-1.35047 12.65344-7.30762 11.83118-15.07587-.81629-7.71167-7.40503-12.26459-17.5287-11.41095zm-396.5941-7.06769c10.77526-5.32458 21.84118-2.28851 28.19933 7.45935 9.80579 15.0337 2.57178 36.33301-13.67224 40.25562-6.70373 1.61877-10.98681.34686-20.79693-6.42902a198760.8329 198760.8329 0 0 1-.60712 5.6521h-10.5962v-66.49353h10.7854v24.78113c2.62348-2.08093 4.48872-3.56036 6.68775-5.22565m13.8869 36.85108c1.13324-.96186 2.44532-1.77777 3.36957-2.91022 4.52137-5.53973 5.00763-11.78607 2.51923-18.24176-1.93299-5.01483-5.70783-8.07684-11.18775-8.59259-5.9829-.56323-11.21722 2.35016-13.69604 7.86127-2.94806 6.55432-2.56018 12.94482 2.06372 18.67956 3.91748 4.85858 9.20563 5.9181 16.93128 3.20374z"/><path fill="#1F06F3" d="M730.89893 626.77356c1.6156.25507 3.18408.54114 4.35559 1.38092 5.90759 4.2348 12.3673 6.51355 19.66144 5.61053 4.40118-.5448 8.19848-2.38995 8.78301-7.3828.57496-4.91145-2.80438-7.19776-6.84448-8.5177-5.05133-1.6504-10.25793-2.83845-15.27374-4.58216-10.37622-3.60718-14.32867-9.14655-13.7467-18.70776.53057-8.71662 6.39282-14.99952 16.26336-16.89313 10.5575-2.02533 20.03351.68335 28.92017 7.37286-1.93677 2.83905-3.75397 5.50287-5.55036 8.13617-4.2437-1.85913-8.14202-4.29492-12.36804-5.19903-3.70416-.79248-8.01373-.58893-11.59222.58636-1.98645.65247-4.03674 4.13055-4.18457 6.45422-.13025 2.04804 1.86084 5.04608 3.7763 6.2223 3.03449 1.86346 6.7851 2.5642 10.2373 3.7434 3.7668 1.28662 7.64991 2.30322 11.28504 3.88953 7.13861 3.11536 10.78498 8.6781 10.36286 16.5783-.42304 7.9178-4.39118 13.47114-11.70704 16.48041-11.6084 4.77503-28.42162 1.06458-37.8344-8.5512 1.70788-2.0702 3.4671-4.20252 5.45648-6.62122zm711.24719 5.86359c1.6527-1.20832 2.97815-2.20826 4.67724-3.49005 2.00013 1.74176 4.0796 3.55255 6.13721 5.34435-8.08484 11.86768-27.56201 12.81043-37.82068 2.0453-7.67407-8.05299-9.01306-22.08057-3.05517-32.0099 5.69836-9.49737 16.26025-13.59826 27.14477-10.53973 10.80994 3.0376 17.07288 13.90814 15.94812 28.42981h-35.08337c1.27978 10.87335 10.46094 15.0166 22.05188 10.22022m-1.45276-26.78443c-3.97827-3.9945-8.75354-4.86065-13.6803-2.53051-4.59912 2.1751-6.9187 6.2182-7.23144 11.49908h25.22558c-1.44568-3.15155-2.64355-5.763-4.31384-8.96857zm-399.479-1.55047c7.51587-10.40442 18.25439-13.87146 29.02197-9.6261 9.74316 3.84143 15.27417 14.66278 13.83227 27.68396h-35.09191c.37121 5.44903 2.75512 8.9632 7.09362 10.92865 7.22998 3.27563 13.59558 1.27215 19.6803-4.18262 2.0354 1.74371 4.11597 3.52612 6.17334 5.2887-4.66492 7.43957-14.90125 11.15686-24.70374 9.12786-10.39453-2.15154-17.63708-9.50286-19.35742-19.6491-1.14965-6.78089-.28637-13.23108 3.35157-19.57135m22.25402 10.69708h9.45984c-.2638-7.81507-5.03698-12.8576-11.87036-12.8191-6.75024.0381-11.66601 5.16657-12.02392 12.81904 4.4906 0 8.97021 0 14.43444.00006zm200.10413-18.67682c9.1261 6.49847 11.2384 15.47363 10.82556 26.10315h-35.44263c.42493 5.43909 2.82947 8.99945 7.20972 10.9148 7.22815 3.1607 13.62647 1.25103 19.59522-4.29108 2.0741 1.82129 4.14257 3.6377 6.19348 5.43866-6.73181 9.99115-22.03138 12.56964-33.13892 5.77118-11.13953-6.818-14.8833-22.71204-8.20984-34.85346 6.5442-11.906 19.72571-15.65661 32.96741-9.08325m-9.80164 6.11621c-9.04943-.74225-14.64782 3.9859-14.59485 12.40051h24.13868c-.71045-5.89154-3.00342-10.2517-9.54383-12.4005zm325.72059 29.28589c8.29821 5.409 15.42956 3.26666 22.3667-2.59113 2.08923 1.8349 4.16027 3.65394 6.20727 5.45179-6.70899 8.73864-18.35254 11.73944-28.98767 7.74981-10.27295-3.85363-16.5011-13.88867-15.65344-25.2215 1.27685-17.07122 14.90222-27.41705 30.52636-23.17877 11.17554 3.03162 17.83448 14.58533 16.05408 28.46912h-36.3634c2.29724 3.76587 3.91845 6.42334 5.8501 9.32068m1.87915-28.13995c-3.98658 2.58953-6.30689 6.1419-6.53895 11.14324h24.1958c-.89099-10.01812-7.3125-14.2788-17.65685-11.14324z"/><path fill="#1F05F3" d="M948.00372 640.77661c-1.60559 1.06378-3.1665 1.89221-4.8194 2.16583-1.77453.29377-3.63543.06623-5.86163.06623-.19433-1.62934-.37695-3.16059-.4334-3.63416-5.26636 1.52252-10.58051 4.05536-16.03779 4.41474-9.34295.61517-16.06695-5.41242-16.82367-13.52301-.81402-8.72596 4.38977-15.3791 14.14386-16.66932 5.98273-.79138 12.15546-.14636 18.44837-.14636 1.49945-9.69787-7.13806-12.84009-25.4325-7.6565-.92077-2.75329-1.8468-5.52209-2.91546-8.71758 9.7138-4.17176 19.31823-5.98212 29.17602-2.00818 7.81409 3.14996 10.3227 9.98688 10.50665 17.75262.2168 9.15393.05231 18.31696.04895 27.9557m-17.99505-20.35969c-3.4441.30151-7.25086-.1886-10.21198 1.16748-2.1742.99579-4.36914 4.36878-4.4585 6.76062-.07745 2.07282 2.34418 5.17664 4.45081 6.20123 4.61676 2.2453 9.8725 1.61383 13.50311-1.93615 2.18085-2.13251 2.95667-5.97492 3.54816-9.19855.10193-.55524-3.88495-1.86072-6.8316-2.99463zm-99.40985 12.63873c-1.7422-10.97741 2.63275-17.8067 13.15686-19.34954 6.11895-.89698 12.47693-.16321 19.0396-.16321 1.87739-7.30432-6.81585-14.9405-25.55547-7.47711-.95838-2.89606-1.90729-5.76361-2.953-8.92359 9.25927-4.24841 18.43707-5.70337 27.90216-2.5987 7.99975 2.6241 11.37152 9.07069 11.66332 16.92439.38257 10.29486.09382 20.61468.09382 31.23168h-10.80835c-.0926-1.4292-.19141-2.95404-.33527-5.17468-6.70062 6.09046-13.93811 7.92115-22.04553 5.4759-4.90692-1.47999-8.46906-4.50422-10.15814-9.94514m13.99243-11.15002c-4.01538 3.64807-4.74896 7.49823-2.03449 10.67786 2.54352 2.97937 8.49555 3.96276 13.45783 2.08282 4.19519-1.5893 6.78528-4.46234 7.20202-9.16138.23554-2.65673-.70794-4.31256-3.32641-4.34039-4.87097-.05194-9.74536.21228-15.29895.74109z"/><path fill="#1C03F2" d="M1463.99731 615.00012v-20.69787h11.03638c.10046 1.87182.19483 3.63177.33252 6.19976 1.16907-1.04266 1.8352-1.6073 2.46875-2.20648 5.77857-5.4657 12.51636-6.75433 19.83252-4.00555 7.11353 2.6726 9.99255 8.66198 10.20667 15.73034.32666 10.78058.08544 21.57831.08544 32.67524h-11.13757c0-6.60224.00147-13.33655-.00073-20.07093-.00086-2.82782.1383-5.66516-.0437-8.4815-.4508-6.97199-4.29468-10.94391-10.401-10.96015-6.52417-.01733-10.9065 4.28272-11.14038 11.46814-.23243 7.1452-.05274 14.30384-.0536 21.45655-.00024 2.13 0 4.25995 0 6.63684h-11.1853v-27.74439zm-309.18518-3.76166c-.27356 8.70612-.45837 17.0063-.62182 25.30689-.0387 1.96771-.00574 3.93689-.00574 6.18024h-10.87646v-48.41443h10.7771v6.325c1.2456-1.06225 2.02685-1.6743 2.74707-2.35125 5.62756-5.28998 12.1726-6.66577 19.3844-4.16138 7.20532 2.50214 10.3518 8.34058 10.60363 15.42804.38904 10.94446.10254 21.9129.10254 33.16071h-11.1073c0-6.9972.00086-14.0733-.0006-21.14947-.0005-2.49653.1289-5.00208-.0376-7.48768-.40894-6.10028-3.50794-9.95886-8.48463-10.80322-5.60351-.95068-9.77136 1.59381-12.48059 7.96655z"/><path fill="#2108F3" d="M1556.84778 604.6048c-1.3175 1.51233-2.41175 2.73865-3.82239 4.3197-4.24585-4.37775-9.0415-7.18066-14.82764-5.79773-2.8839.68927-5.94372 2.39368-7.98169 4.53546-5.64038 5.92804-5.21167 16.46747.40088 22.31604 5.75574 5.9981 13.76587 5.51789 23.15271-1.6881 1.76587 2.28081 3.57776 4.62108 5.48413 7.0833-7.38488 10.24677-24.30725 11.91858-35.31701 2.80481-11.09107-9.18103-11.96594-26.92962-1.84424-37.41876 10.21228-10.58343 27.70044-10.34472 37.44104.732-.802.92083-1.6322 1.87408-2.6858 3.11328zM819.4397 629.11218c2.21759 1.79596 4.12225 3.37696 5.9259 4.87409-9.12451 11.85473-26.12976 13.27002-36.91919 3.80578-10.86536-9.53076-11.29693-27.16687-.917-37.46759 10.27833-10.19989 27.65058-9.7096 37.06825 1.2812-2.07532 2.24535-4.17664 4.51891-6.54071 7.07665-1.00812-.80096-1.8667-1.49444-2.737-2.17273-6.64637-5.1803-14.63398-4.93725-19.79126.59888-5.5932 6.0039-5.74335 16.21307-.32965 22.41064 4.89044 5.59858 13.19421 6.23835 19.88806 1.60028 1.25653-.8706 2.6886-1.48791 4.3526-2.0072z"/><path fill="#1C03F2" d="M1205.73791 642.59106c-5.53344-2.84527-6.65454-7.61791-6.71289-12.79992-.0974-8.63153-.02649-17.26496-.02649-26.0141-2.12524-.21204-3.90722-.38983-5.92456-.59113v-8.86993c1.73658-.1767 3.62891-.36926 5.7588-.58606v-12.35388h11.34301v12.50049h12.64746v9.5631h-12.56286c0 8.86-.14417 17.14405.06714 25.41907.09155 3.58283 2.52856 5.31513 6.07275 5.10144 2.11511-.12756 4.20984-.59423 6.31347-.90844 1.34192 9.07068-.68212 11.27252-10.29992 10.90106-2.1244-.0821-4.22583-.75775-6.6759-1.3617z"/><path fill="#1B01F2" d="M1314.86401 642.99902c-2.78295.00061-5.08776.00061-7.71386.00061V576.3462h10.84936v32.34772c-.00012 10.30316-.01514 20.60632.01306 30.90936.00525 1.90314.22388 3.83551-3.14856 3.39575zm-418.86474-3.18762c-.78345 1.3827-1.48413 2.95105-2.36481 3.05963-2.74432.33844-5.55682.1242-8.57281.1242v-66.72411h10.93804c0 20.98865 0 42.02344-.00042 63.54028zm125.08276-63.81018c2.77838-.00061 5.07593-.00061 7.64356-.00061v66.68079h-10.56202c-.10247-1.06171-.32623-2.30774-.32763-3.55402-.0221-19.60938-.03424-39.21881.01416-58.82806.00464-1.88507-1.06977-4.73786 3.23193-4.2981zm262.73938 55.9831V576.341h10.969v66.40058h-10.969V631.9843zM1118.99976 616v-37.667h10.97485v64.4209h-10.97485V616zm210.8203 0v-21.6825h10.8191v48.44996h-10.8191V616z"/><path fill="#2108F3" d="M1335.89477 575.98743h5.0791v10.69275h-11.43151v-10.69275h6.35242z"/><path fill="#FDFEFD" d="M1286.86914 452.97382v-19.01154c8.86743 0 17.31983-.44363 25.7024.13153 7.56164.51883 12.10912 6.1112 12.12353 13.35666.01391 6.97436-4.8556 12.9447-12.15576 13.44272-8.26929.56415-16.6067.13016-25.67017.13016v-8.04953zm-129.48437-5.41309c7.9442-13.3446 21.99157-18.53558 35.73828-13.4533 13.1637 4.86672 21.1433 19.54735 18.71997 34.44073-2.38233 14.64267-14.05017 25.00384-28.4336 25.24945-19.29223.32943-33.6687-18.77457-28.8319-38.41138.63073-2.56067 1.72802-5.00644 2.80725-7.8255z"/><path fill="#F6FBF7" d="M963.07178 443.11295c3.72393 9.21756 7.35717 18.0831 11.17602 27.40145h-24.66937c.0545-.45541.01099-.97488.18402-1.40774 3.8139-9.53815 7.6518-19.06668 11.63855-28.97846.6457 1.07581 1.11286 1.85425 1.67078 2.98475z"/><path fill="#FAFAFF" d="M1372.81995 602.74145c9.74292-.76599 16.33166 3.78693 17.14795 11.4986.82226 7.76825-3.85267 13.7254-11.83118 15.07587-7.2301 1.22375-13.8678-2.92133-15.6792-9.79114-2.02747-7.69 1.73254-13.97919 10.36243-16.78332z"/><path fill="#FCFCFF" d="M989.37744 632.78357c-7.3711 2.54327-12.65924 1.48376-16.57672-3.37482-4.6239-5.73474-5.01178-12.12524-2.06372-18.67956 2.47882-5.51111 7.71313-8.4245 13.69604-7.86127 5.47992.51575 9.25477 3.57776 11.18775 8.59259 2.4884 6.45569 2.00213 12.70203-2.51923 18.24176-.92425 1.13245-2.23633 1.94836-3.72412 3.0813z"/><path fill="#FAFAFF" d="M1440.92956 606.14978c1.43409 2.9085 2.63196 5.51996 4.07764 8.6715h-25.22558c.31274-5.28088 2.63232-9.32397 7.23144-11.49907 4.92676-2.33015 9.70203-1.464 13.9165 2.82757zm-377.95349 8.84949h-13.94213c.3579-7.65247 5.27368-12.78095 12.02392-12.81903 6.83338-.03852 11.60657 5.00402 11.87036 12.81909-3.15832 0-6.30908 0-9.95215-.00006zm191.17188-12.44104c6.16333 2.0293 8.4563 6.38946 9.16675 12.281h-24.13867c-.05298-8.4146 5.5454-13.14276 14.97192-12.281zm327.5548.83276c10.01222-2.9419 16.43373 1.31879 17.32472 11.33691h-24.1958c.23205-5.00134 2.55236-8.5537 6.87109-11.3369z"/><path fill="#F7F6FE" d="M930.43292 620.5044c2.5224 1.04644 6.50928 2.35192 6.40735 2.90716-.5915 3.22363-1.3673 7.06604-3.54816 9.19855-3.63061 3.54998-8.88635 4.18146-13.5031 1.93615-2.10664-1.0246-4.52827-4.12841-4.45081-6.20123.08935-2.39184 2.2843-5.76483 4.4585-6.76062 2.96111-1.35608 6.76788-.86597 10.63622-1.08002zm-85.50134 1.20312c5.21326-.33069 10.08765-.59491 14.95862-.54297 2.61847.02783 3.56195 1.68366 3.32641 4.3404-.41674 4.69903-3.00683 7.57208-7.20202 9.16137-4.96228 1.87994-10.9143.89655-13.45783-2.08282-2.71448-3.17963-1.9809-7.02979 2.37482-10.87598z"/></svg>