<svg xmlns="http://www.w3.org/2000/svg" role="img" viewBox="3.05 3.05 621.40 154.40"><title>umoci logo</title><path d="M587 18h1v1h-1zm-3 3h1v1h-1zm28 8h1v1h-1zM466 57h1v1h-1zm52 2h1v1h-1zm-125 2h1v1h-1zm17 20h1v1h-1zm-86 2h1v1h-1zm116 28h1v1h-1zm104 2h1v1h-1zm31 2h1v1h-1zm-160 5h1v1h-1zm70 1h1v1h-1zm-277 12h1v1h-1zm314 1h1v1h-1zm-286 1h1v1h-1zm201 0h1v1h-1zm-213 2h1v1h-1z" fill="#1a1a1a"/><path d="M76 40h1v1h-1zm1 0h1v1h-1zm1 0h1v1h-1zm1 0h1v1h-1zm1 0h1v1h-1zm1 0h1v1h-1zm1 0h69v9H82zm69 0h1v9h-1zm1 0h1v1h-1zm1 0h1v1h-1zm1 0h1v1h-1zm1 0h1v1h-1zm1 0h1v1h-1zm1 0h1v1h-1zm-83 1h1v1h-1zm1 0h1v1h-1zm1 0h1v1h-1z"/><path d="M77 41h79v8H77zm79 0h1v9h-1zm1 0h1v1h-1zm1 0h1v1h-1zm1 0h1v1h-1zm-87 1h1v1h-1zm1 0h1v1h-1z"/><path d="M74 42h85v7H74zm85 0h1v11h-1zm1 0h1v1h-1zm1 0h1v1h-1zm-91 1h1v1h-1zm1 0h1v1h-1z"/><path d="M72 43h89v6H72zm89 0h1v99h-1zm1 0h1v1h-1zm1 0h1v1h-1zm-94 1h1v1h-1zm1 0h1v1h-1z"/><path d="M71 44h91v5H71zm91 0h1v97h-1zm1 0h1v1h-1zm1 0h1v1h-1zm-96 1h1v1h-1zm1 0h1v1h-1z"/><path d="M70 45h93v4H70zm93 0h1v95h-1zm1 0h1v1h-1zm1 0h1v1h-1zm-98 1h1v1h-1zm1 0h1v1h-1z"/><path d="M69 46h95v3H69zm95 0h1v93h-1zm1 0h1v1h-1zm1 0h1v1h-1zm-99 1h1v1h-1z"/><path d="M68 47h97v2H68zm97 0h1v91h-1zm1 0h1v1h-1zM66 48h1v1h-1z"/><path d="M67 48h99v1H67zm99 0h1v89h-1zm1 0h1v1h-1zM66 49h1v1h-1zm1 0h99v1H67zm100 0h1v1h-1zM65 50h1v1h-1zm1 0h11v1H66zm11 0h1v1h-1zm1 0h1v1h-1zm1 0h1v1h-1zm1 0h1v1h-1zm1 0h1v1h-1zm71 0h1v1h-1zm1 0h1v1h-1zm1 0h1v1h-1zm1 0h1v1h-1z"/><path d="M156 50h11v1h-11zm11 0h1v85h-1zm1 0h1v1h-1zM65 51h1v1h-1zm1 0h9v2h-9zm9 0h1v1h-1zm1 0h1v1h-1zm1 0h1v1h-1zm1 0h1v1h-1zm77 0h1v1h-1zm1 0h1v1h-1zm1 0h1v1h-1zm1 0h9v1h-9zm10 0h1v1h-1zM64 52h1v1h-1zm1 0h1v1h-1zm10 0h1v1h-1zm1 0h1v1h-1zm81 0h1v1h-1zm1 0h1v1h-1zm2 0h7v85h-7zm8 0h1v1h-1zm1 0h1v1h-1zM64 53h1v1h-1zm1 0h9v15h-9zm9 0h1v1h-1zm1 0h1v1h-1zm83 0h1v1h-1z"/><path d="M159 53h9v1h-9zm9 0h1v79h-1zm1 0h1v1h-1zM64 54h1v1h-1zm10 0h1v1h-1zm1 0h1v1h-1zm83 0h1v1h-1zm1 0h1v1h-1zm10 0h1v1h-1zM64 55h1v1h-1zm10 0h1v1h-1zm85 0h1v1h-1zm10 0h1v1h-1zM64 56h1v1h-1zm10 0h1v1h-1zm85 0h1v1h-1zm10 0h1v1h-1zM64 57h1v1h-1zm10 0h1v1h-1zm85 0h1v1h-1zm10 0h1v1h-1zM64 58h9v10h-9zm105 0h1v69h-1zM41 61h1v1h-1zm1 0h1v1h-1zm1 0h1v1h-1zm1 0h1v1h-1zm1 0h1v1h-1zm1 0h1v1h-1zm1 0h1v1h-1zm1 0h1v1h-1zm1 0h1v1h-1zm1 0h1v1h-1zm46 0h1v1h-1zm1 0h1v1h-1zm1 0h1v1h-1zm1 0h1v1h-1zm1 0h1v1h-1zm1 0h1v1h-1zm1 0h1v1h-1zm1 0h1v1h-1zm1 0h1v1h-1zm1 0h1v1h-1zm-65 1h1v1h-1zm1 0h1v1h-1zm1 0h8v6h-8zm8 0h1v20h-1zm1 0h1v1h-1zm1 0h1v1h-1zm42 0h1v1h-1zm1 0h1v1h-1zm1 0h8v6h-8zm8 0h1v20h-1zm1 0h1v1h-1zm1 0h1v1h-1zm-68 1h1v1h-1zm1 0h1v1h-1z"/><path d="M40 63h11v5H40zm11 0h1v18h-1zm1 0h1v1h-1zm1 0h1v1h-1zm40 0h1v1h-1zm1 0h1v1h-1zm1 0h11v5H95zm11 0h1v18h-1zm1 0h1v1h-1zm1 0h1v1h-1zm-71 1h1v1h-1zm1 0h1v1h-1z"/><path d="M39 64h14v4H39zm14 0h1v16h-1zm1 0h1v1h-1zm38 0h1v1h-1zm1 0h14v4H93zm14 0h1v16h-1zm1 0h1v1h-1zm1 0h1v1h-1zm-72 1h1v1h-1z"/><path d="M38 65h15v3H38zm16 0h1v1h-1zm1 0h1v1h-1zm36 0h1v1h-1zm1 0h1v1h-1zm16 0h1v14h-1zm1 0h1v1h-1zm-73 1h1v1h-1z"/><path d="M37 66h17v2H37zm17 0h1v12h-1zm1 0h1v1h-1zm1 0h1v1h-1zm34 0h1v1h-1zm1 0h1v1h-1zm1 0h17v2H92zm17 0h1v12h-1zm1 0h1v1h-1zm-75 1h1v1h-1zm1 0h1v1h-1zm19 0h1v10h-1zm1 0h1v1h-1zm34 0h1v1h-1z"/><path d="M91 67h18v1H91zm19 0h1v1h-1zm1 0h1v1h-1zm-76 1h1v1h-1zm1 0h19v1H36zm20 0h1v1h-1zm1 0h1v1h-1zm7 0h9v1h-9zm9 0h1v1h-1zm16 0h1v1h-1zm1 0h1v1h-1zm1 0h19v1H91zm19 0h1v8h-1zm1 0h1v1h-1zm-76 1h1v1h-1zm1 0h7v7h-7zm7 0h1v1h-1zm1 0h1v1h-1zm1 0h1v1h-1zm1 0h1v1h-1zm1 0h1v1h-1zm1 0h1v1h-1zm1 0h7v1h-7zm7 0h1v7h-1zm34 0h7v7h-7zm7 0h1v1h-1zm1 0h1v1h-1zm1 0h1v1h-1zm1 0h1v1h-1zm1 0h1v1h-1zm1 0h1v1h-1zm1 0h7v1h-7zm8 0h1v1h-1zm-76 1h1v1h-1zm8 0h1v1h-1zm5 0h1v1h-1zm1 0h1v1h-1zm3 0h4v7h-4zm45 0h1v1h-1zm1 0h1v1h-1zm5 0h1v1h-1zm2 0h5v8h-5zm6 0h1v1h-1zm-76 1h1v2h-1zm8 0h1v2h-1zm6 0h1v1h-1zm48 0h1v2h-1zm6 0h1v2h-1zm8 0h1v2h-1zm-62 1h1v1h-1zm-14 1h1v1h-1zm8 0h1v1h-1zm6 0h1v1h-1zm48 0h1v1h-1zm6 0h1v1h-1zm8 0h1v1h-1zm-76 1h1v1h-1zm8 0h1v1h-1zm5 0h1v1h-1zm1 0h1v1h-1zm48 0h1v1h-1zm1 0h1v1h-1zm5 0h1v1h-1zm8 0h1v1h-1zm-76 1h1v1h-1zm8 0h1v7h-1zm1 0h1v1h-1zm1 0h1v1h-1zm1 0h1v1h-1zm1 0h1v1h-1zm1 0h1v1h-1z"/><path d="M49 75h7v2h-7zm48 0h1v7h-1zm1 0h1v1h-1zm1 0h1v1h-1zm1 0h1v1h-1zm1 0h1v1h-1zm1 0h1v1h-1zm1 0h7v3h-7zm8 0h1v1h-1zm-76 1h1v1h-1z"/><path d="M36 76h20v1H36zm20 0h1v1h-1zm34 0h20v1H90zm20 0h1v1h-1zm1 0h1v1h-1zm-76 1h1v1h-1zm1 0h1v1h-1zm1 0h18v1H37zm18 0h1v1h-1zm1 0h1v1h-1zm8 0h9v13h-9zm9 0h1v13h-1zm17 0h1v1h-1zm1 0h18v1H91zm19 0h1v1h-1zm1 0h1v1h-1zm-75 1h1v1h-1zm1 0h17v1H37zm17 0h1v1h-1zm1 0h1v1h-1zm1 0h1v1h-1zm34 0h1v1h-1zm1 0h1v1h-1zm1 0h17v1H92zm17 0h1v1h-1zm1 0h1v1h-1zm-73 1h1v1h-1zm1 0h15v1H38zm16 0h1v1h-1zm1 0h1v1h-1zm36 0h1v1h-1zm1 0h1v1h-1zm1 0h15v1H93zm15 0h1v1h-1zm1 0h1v1h-1zm-72 1h1v1h-1zm1 0h1v1h-1zm1 0h14v1H39zm14 0h1v1h-1zm1 0h1v1h-1zm38 0h1v1h-1zm1 0h14v1H93zm14 0h1v1h-1zm1 0h1v1h-1zm1 0h1v1h-1zm-71 1h1v1h-1zm1 0h1v1h-1zm1 0h11v1H40zm11 0h1v1h-1zm1 0h1v1h-1zm1 0h1v1h-1zm40 0h1v1h-1zm1 0h1v1h-1zm1 0h11v1H95zm11 0h1v1h-1zm1 0h1v1h-1zm1 0h1v1h-1zm-68 1h1v1h-1zm1 0h1v1h-1zm1 0h8v1h-8zm8 0h1v1h-1zm1 0h1v1h-1zm1 0h1v1h-1zm42 0h1v1h-1zm1 0h1v1h-1zm1 0h8v1h-8zm8 0h1v1h-1zm1 0h1v1h-1zm1 0h1v1h-1zm-85 1h1v1h-1zm1 0h1v1h-1zm1 0h1v1h-1zm1 0h1v1h-1zm1 0h1v1h-1zm1 0h1v1h-1zm1 0h1v1h-1zm1 0h1v1h-1zm1 0h1v1h-1zm1 0h1v1h-1zm1 0h1v1h-1zm10 0h1v1h-1zm1 0h1v1h-1zm1 0h1v1h-1zm1 0h1v1h-1zm1 0h1v1h-1zm1 0h1v1h-1zm1 0h1v1h-1zm1 0h1v1h-1zm1 0h1v1h-1zm1 0h1v1h-1zm46 0h1v1h-1zm1 0h1v1h-1zm1 0h1v1h-1zm1 0h1v1h-1zm1 0h1v1h-1zm1 0h1v1h-1zm1 0h1v1h-1zm1 0h1v1h-1zm1 0h1v1h-1zm1 0h1v1h-1zm20 0h1v1h-1zm1 0h1v1h-1zm1 0h1v1h-1zm1 0h1v1h-1zm1 0h1v1h-1zm1 0h1v1h-1zm1 0h1v1h-1zm1 0h1v1h-1zm1 0h1v1h-1zm1 0h1v1h-1zm1 0h1v1h-1zM20 84h1v1h-1zm1 0h1v1h-1zm1 0h8v6h-8zm8 0h1v20h-1zm1 0h1v1h-1zm1 0h1v1h-1zm92 0h1v1h-1zm1 0h1v1h-1zm1 0h8v6h-8zm8 0h1v20h-1zm1 0h1v1h-1zm1 0h1v1h-1zM18 85h1v1h-1zm1 0h1v1h-1z"/><path d="M20 85h12v5H20zm12 0h1v18h-1zm1 0h1v1h-1zm1 0h1v1h-1zm88 0h1v1h-1zm1 0h1v1h-1zm1 0h12v5h-12zm12 0h1v18h-1zm1 0h1v1h-1zm1 0h1v1h-1zM17 86h1v1h-1zm1 0h1v1h-1z"/><path d="M19 86h14v4H19zm14 0h1v16h-1zm1 0h1v1h-1zm1 0h1v1h-1zm86 0h1v1h-1zm1 0h1v1h-1zm1 0h14v4h-14zm14 0h1v16h-1zm1 0h1v1h-1zm1 0h1v1h-1zM17 87h1v1h-1z"/><path d="M18 87h16v3H18zm16 0h1v14h-1zm1 0h1v1h-1zm86 0h1v1h-1zm1 0h16v3h-16zm16 0h1v14h-1zm1 0h1v1h-1zM16 88h1v1h-1z"/><path d="M17 88h18v2H17zm18 0h1v12h-1zm1 0h1v1h-1zm84 0h1v1h-1zm1 0h18v2h-18zm18 0h1v12h-1zm1 0h1v1h-1zM15 89h1v1h-1zm1 0h1v1h-1zm20 0h1v1h-1zm84 0h1v1h-1zm20 0h1v1h-1zm1 0h1v1h-1zM15 90h1v1h-1z"/><path d="M16 90h20v1H16zm20 0h1v8h-1zm1 0h1v1h-1zm27 0h9v1h-9zm9 0h1v1h-1zm46 0h1v1h-1zm1 0h20v1h-20zm20 0h1v8h-1zm1 0h1v1h-1zM15 91h1v1h-1zm1 0h7v7h-7zm7 0h1v1h-1zm1 0h1v1h-1zm1 0h1v1h-1zm1 0h1v1h-1zm1 0h1v1h-1zm1 0h1v1h-1zm1 0h7v1h-7zm91 0h7v7h-7zm7 0h1v1h-1zm1 0h1v1h-1zm1 0h1v1h-1zm1 0h1v1h-1zm1 0h1v1h-1zm1 0h1v1h-1zm1 0h7v1h-7zm8 0h1v1h-1zM15 92h1v1h-1zm8 0h1v1h-1zm6 0h1v1h-1zm2 0h5v8h-5zm96 0h1v1h-1zm6 0h1v1h-1zm2 0h5v8h-5zm6 0h1v1h-1zM15 93h1v2h-1zm8 0h1v2h-1zm6 0h1v2h-1zm98 0h1v2h-1zm6 0h1v2h-1zm8 0h1v2h-1zM15 95h1v1h-1zm8 0h1v1h-1zm6 0h1v1h-1zm98 0h1v1h-1zm6 0h1v1h-1zm8 0h1v1h-1zM15 96h1v1h-1zm8 0h1v1h-1zm6 0h1v1h-1zm98 0h1v1h-1zm6 0h1v1h-1zm8 0h1v1h-1zM15 97h1v1h-1zm8 0h1v7h-1zm1 0h1v1h-1zm1 0h1v1h-1zm1 0h1v1h-1zm1 0h1v1h-1zm1 0h1v1h-1z"/><path d="M29 97h7v3h-7zm98 0h1v7h-1zm1 0h1v1h-1zm1 0h1v1h-1zm1 0h1v1h-1zm1 0h1v1h-1zm1 0h1v1h-1zm1 0h7v3h-7zm8 0h1v1h-1zM15 98h1v1h-1z"/><path d="M16 98h20v1H16zm20 0h1v1h-1zm84 0h20v1h-20zm20 0h1v1h-1zm1 0h1v1h-1zM15 99h1v1h-1zm1 0h1v1h-1zm1 0h18v1H17zm19 0h1v1h-1zm28 0h9v13h-9zm9 0h1v13h-1zm47 0h1v1h-1zm1 0h18v1h-18zm19 0h1v1h-1zm1 0h1v1h-1zm-125 1h1v1h-1zm1 0h18v1H17zm18 0h1v1h-1zm1 0h1v1h-1zm84 0h1v1h-1zm1 0h18v1h-18zm18 0h1v1h-1zm1 0h1v1h-1zm-123 1h1v1h-1zm1 0h16v1H18zm16 0h1v1h-1zm1 0h1v1h-1zm86 0h1v1h-1zm1 0h16v1h-16zm16 0h1v1h-1zm1 0h1v1h-1zm-122 1h1v1h-1zm1 0h1v1h-1zm1 0h14v1H19zm14 0h1v1h-1zm1 0h1v1h-1zm1 0h1v1h-1zm86 0h1v1h-1zm1 0h1v1h-1zm1 0h14v1h-14zm14 0h1v1h-1zm1 0h1v1h-1zm1 0h1v1h-1zm-121 1h1v1h-1zm1 0h1v1h-1zm1 0h12v1H20zm12 0h1v1h-1zm1 0h1v1h-1zm1 0h1v1h-1zm88 0h1v1h-1zm1 0h1v1h-1zm1 0h12v1h-12zm12 0h1v1h-1zm1 0h1v1h-1zm1 0h1v1h-1zm-118 1h1v1h-1zm1 0h1v1h-1zm1 0h8v1h-8zm8 0h1v1h-1zm1 0h1v1h-1zm1 0h1v1h-1zm92 0h1v1h-1zm1 0h1v1h-1zm1 0h8v1h-8zm8 0h1v1h-1zm1 0h1v1h-1zm1 0h1v1h-1zm-115 1h1v1h-1zm1 0h1v1h-1zm1 0h1v1h-1zm1 0h1v1h-1zm1 0h1v1h-1zm1 0h1v1h-1zm1 0h1v1h-1zm1 0h1v1h-1zm1 0h1v1h-1zm1 0h1v1h-1zm1 0h1v1h-1zm10 0h1v1h-1zm1 0h1v1h-1zm1 0h1v1h-1zm1 0h1v1h-1zm1 0h1v1h-1zm1 0h1v1h-1zm1 0h1v1h-1zm1 0h1v1h-1zm1 0h1v1h-1zm1 0h1v1h-1zm46 0h1v1h-1zm1 0h1v1h-1zm1 0h1v1h-1zm1 0h1v1h-1zm1 0h1v1h-1zm1 0h1v1h-1zm1 0h1v1h-1zm1 0h1v1h-1zm1 0h1v1h-1zm1 0h1v1h-1zm20 0h1v1h-1zm1 0h1v1h-1zm1 0h1v1h-1zm1 0h1v1h-1zm1 0h1v1h-1zm1 0h1v1h-1zm1 0h1v1h-1zm1 0h1v1h-1zm1 0h1v1h-1zm1 0h1v1h-1zm1 0h1v1h-1zm-95 1h1v1h-1zm1 0h1v1h-1zm1 0h8v6h-8zm8 0h1v20h-1zm1 0h1v1h-1zm1 0h1v1h-1zm42 0h1v1h-1zm1 0h1v1h-1zm1 0h8v6h-8zm8 0h1v20h-1zm1 0h1v1h-1zm1 0h1v1h-1zm-68 1h1v1h-1zm1 0h1v1h-1z"/><path d="M40 107h11v5H40zm11 0h1v18h-1zm1 0h1v1h-1zm1 0h1v1h-1zm40 0h1v1h-1zm1 0h1v1h-1zm1 0h11v5H95zm11 0h1v18h-1zm1 0h1v1h-1zm1 0h1v1h-1zm-71 1h1v1h-1zm1 0h1v1h-1z"/><path d="M39 108h14v4H39zm14 0h1v16h-1zm1 0h1v1h-1zm38 0h1v1h-1zm1 0h14v4H93zm14 0h1v16h-1zm1 0h1v1h-1zm1 0h1v1h-1zm-72 1h1v1h-1z"/><path d="M38 109h15v3H38zm16 0h1v1h-1zm1 0h1v1h-1zm36 0h1v1h-1zm1 0h1v1h-1zm16 0h1v14h-1zm1 0h1v1h-1zm-73 1h1v1h-1z"/><path d="M37 110h17v2H37zm17 0h1v12h-1zm1 0h1v1h-1zm1 0h1v1h-1zm34 0h1v1h-1zm1 0h1v1h-1zm1 0h17v2H92zm17 0h1v12h-1zm1 0h1v1h-1zm-75 1h1v1h-1zm1 0h1v1h-1zm19 0h1v10h-1zm1 0h1v1h-1zm34 0h1v1h-1z"/><path d="M91 111h18v1H91zm19 0h1v1h-1zm1 0h1v1h-1zm-76 1h1v1h-1zm1 0h19v1H36zm20 0h1v1h-1zm1 0h1v1h-1zm7 0h9v1h-9zm9 0h1v1h-1zm16 0h1v1h-1zm1 0h1v1h-1zm1 0h19v1H91zm19 0h1v8h-1zm1 0h1v1h-1zm-76 1h1v1h-1zm1 0h7v7h-7zm7 0h1v1h-1zm1 0h1v1h-1zm1 0h1v1h-1zm1 0h1v1h-1zm1 0h1v1h-1zm1 0h1v1h-1zm1 0h7v1h-7zm7 0h1v7h-1zm34 0h7v7h-7zm7 0h1v1h-1zm1 0h1v1h-1zm1 0h1v1h-1zm1 0h1v1h-1zm1 0h1v1h-1zm1 0h1v1h-1zm1 0h7v1h-7zm8 0h1v1h-1zm-76 1h1v1h-1zm8 0h1v1h-1zm5 0h1v1h-1zm1 0h1v1h-1zm3 0h4v7h-4zm45 0h1v1h-1zm1 0h1v1h-1zm5 0h1v1h-1zm2 0h5v8h-5zm6 0h1v1h-1zm-76 1h1v2h-1zm8 0h1v2h-1zm6 0h1v1h-1zm48 0h1v2h-1zm6 0h1v2h-1zm8 0h1v2h-1zm-62 1h1v1h-1zm-14 1h1v1h-1zm8 0h1v1h-1zm6 0h1v1h-1zm48 0h1v1h-1zm6 0h1v1h-1zm8 0h1v1h-1zm-76 1h1v1h-1zm8 0h1v1h-1zm5 0h1v1h-1zm1 0h1v1h-1zm48 0h1v1h-1zm1 0h1v1h-1zm5 0h1v1h-1zm8 0h1v1h-1zm-76 1h1v1h-1zm8 0h1v7h-1zm1 0h1v1h-1zm1 0h1v1h-1zm1 0h1v1h-1zm1 0h1v1h-1zm1 0h1v1h-1z"/><path d="M49 119h7v2h-7zm48 0h1v7h-1zm1 0h1v1h-1zm1 0h1v1h-1zm1 0h1v1h-1zm1 0h1v1h-1zm1 0h1v1h-1zm1 0h7v3h-7zm8 0h1v1h-1zm-76 1h1v1h-1z"/><path d="M36 120h20v1H36zm20 0h1v1h-1zm34 0h20v1H90zm20 0h1v1h-1zm1 0h1v1h-1zm-76 1h1v1h-1zm1 0h1v1h-1zm1 0h18v1H37zm18 0h1v1h-1zm1 0h1v1h-1zm8 0h9v6h-9zm9 0h1v21h-1zm17 0h1v1h-1zm1 0h18v1H91zm19 0h1v1h-1zm1 0h1v1h-1zm-75 1h1v1h-1zm1 0h17v1H37zm17 0h1v1h-1zm1 0h1v1h-1zm1 0h1v1h-1zm34 0h1v1h-1zm1 0h1v1h-1zm1 0h17v1H92zm17 0h1v1h-1zm1 0h1v1h-1zm-73 1h1v1h-1zm1 0h15v1H38zm16 0h1v1h-1zm1 0h1v1h-1zm36 0h1v1h-1zm1 0h1v1h-1zm1 0h15v1H93zm15 0h1v1h-1zm1 0h1v1h-1zm-72 1h1v1h-1zm1 0h1v1h-1zm1 0h14v1H39zm14 0h1v1h-1zm1 0h1v1h-1zm38 0h1v1h-1zm1 0h14v1H93zm14 0h1v1h-1zm1 0h1v1h-1zm1 0h1v1h-1zm-71 1h1v1h-1zm1 0h1v1h-1zm1 0h11v1H40zm11 0h1v1h-1zm1 0h1v1h-1zm1 0h1v1h-1zm40 0h1v1h-1zm1 0h1v1h-1zm1 0h11v1H95zm11 0h1v1h-1zm1 0h1v1h-1zm1 0h1v1h-1zm-68 1h1v1h-1zm1 0h1v1h-1zm1 0h8v1h-8zm8 0h1v1h-1zm1 0h1v1h-1zm1 0h1v1h-1zm42 0h1v1h-1zm1 0h1v1h-1zm1 0h8v1h-8zm8 0h1v1h-1zm1 0h1v1h-1zm1 0h1v1h-1zm-65 1h1v1h-1zm1 0h1v1h-1zm1 0h1v1h-1zm1 0h1v1h-1zm1 0h1v1h-1zm1 0h1v1h-1zm1 0h1v1h-1zm1 0h1v1h-1zm1 0h1v1h-1zm1 0h1v1h-1zm14 0h9v1h-9zm32 0h1v1h-1zm1 0h1v1h-1zm1 0h1v1h-1zm1 0h1v1h-1zm1 0h1v1h-1zm1 0h1v1h-1zm1 0h1v1h-1zm1 0h1v1h-1zm1 0h1v1h-1zm1 0h1v1h-1zm64 0h1v1h-1zm-105 1h1v1h-1zm1 0h8v4h-8zm9 0h1v1h-1zm85 0h1v1h-1zm10 0h1v1h-1zm-105 1h1v1h-1zm10 0h1v1h-1zm85 0h1v1h-1zm10 0h1v1h-1zm-105 1h1v1h-1zm10 0h1v1h-1zm85 0h1v1h-1zm10 0h1v1h-1zm-105 1h1v1h-1zm10 0h1v1h-1zm1 0h1v1h-1zm83 0h1v1h-1zm1 0h1v1h-1zm10 0h1v1h-1zm-105 1h1v1h-1z"/><path d="M65 132h9v1h-9zm9 0h1v11h-1zm1 0h1v1h-1zm83 0h1v1h-1zm1 0h9v3h-9zm9 0h1v1h-1zm1 0h1v1h-1zm-105 1h1v1h-1zm1 0h1v1h-1zm1 0h8v2h-8zm9 0h1v1h-1zm1 0h1v1h-1zm81 0h1v1h-1zm1 0h1v1h-1zm10 0h1v1h-1zm1 0h1v1h-1zm-104 1h1v1h-1zm10 0h1v9h-1zm1 0h1v1h-1zm1 0h1v1h-1zm1 0h1v1h-1zm77 0h1v1h-1zm1 0h1v1h-1zm1 0h1v1h-1z"/><path d="M158 134h9v3h-9zm10 0h1v1h-1zm-103 1h1v1h-1zm1 0h11v1H66zm11 0h1v9h-1zm1 0h1v1h-1zm1 0h1v1h-1zm1 0h1v1h-1zm1 0h1v1h-1zm71 0h1v1h-1zm1 0h1v1h-1zm1 0h1v1h-1zm1 0h1v1h-1z"/><path d="M156 135h11v2h-11zm11 0h1v1h-1zm1 0h1v1h-1zm-102 1h1v1h-1z"/><path d="M67 136h99v1H67zm100 0h1v1h-1zm-101 1h1v1h-1zm1 0h99v1H67zm99 0h1v1h-1zm1 0h1v1h-1zm-100 1h1v1h-1zm1 0h97v1H68zm97 0h1v1h-1zm1 0h1v1h-1zm-99 1h1v1h-1zm1 0h1v1h-1zm1 0h95v1H69zm95 0h1v1h-1zm1 0h1v1h-1zm1 0h1v1h-1zm-98 1h1v1h-1zm1 0h1v1h-1zm1 0h93v1H70zm93 0h1v1h-1zm1 0h1v1h-1zm1 0h1v1h-1zm-96 1h1v1h-1zm1 0h1v1h-1zm1 0h91v1H71zm91 0h1v1h-1zm1 0h1v1h-1zm1 0h1v1h-1zm-94 1h1v1h-1zm1 0h1v1h-1zm1 0h89v1H72zm89 0h1v1h-1zm1 0h1v1h-1zm1 0h1v1h-1zm-91 1h1v1h-1zm1 0h1v1h-1zm1 0h85v1H74zm85 0h1v1h-1zm1 0h1v1h-1zm1 0h1v1h-1zm-87 1h1v1h-1zm1 0h1v1h-1zm1 0h1v1h-1zm1 0h79v1H77zm79 0h1v1h-1zm1 0h1v1h-1zm1 0h1v1h-1zm1 0h1v1h-1zm-83 1h1v1h-1zm1 0h1v1h-1zm1 0h1v1h-1zm1 0h1v1h-1zm1 0h1v1h-1zm1 0h1v1h-1zm1 0h69v1H82zm69 0h1v1h-1zm1 0h1v1h-1zm1 0h1v1h-1zm1 0h1v1h-1zm1 0h1v1h-1zm1 0h1v1h-1zm1 0h1v1h-1z"/><g fill="#040404"><path d="M57 70h1v1h-1zm32 0h1v1h-1zm-32 4h1v1h-1zm32 0h1v1h-1zM37 91h1v1h-1zm82 0h1v1h-1zm-82 6h1v1h-1zm82 0h1v1h-1zm-62 17h1v1h-1zm32 0h1v1h-1zm-32 4h1v1h-1zm32 0h1v1h-1z"/></g><g fill="gray"><path d="M596 15h1v1h-1zm1 0h1v1h-1zm-15 9h1v1h-1zm6 19h1v1h-1zM392 60h1v1h-1zm34 1h1v1h-1zm-79 2h1v1h-1zm-2 1h1v1h-1zm221 0h1v1h-1zm-62 6h1v1h-1zm-188 9h1v1h-1zm93 5h1v1h-1zm55 0h1v1h-1zm87 0h1v1h-1zm-27 1h1v1h-1zm-89 2h1v1h-1zm32 3h1v1h-1zm-276 13h1v1h-1zm382 16h1v1h-1z"/></g><g fill="#111"><path d="M602 16h1v1h-1zm7 5h1v1h-1zm-26 2h1v1h-1zm-1 2h1v1h-1zm-1 5h1v1h-1zm4 10h1v1h-1zm1 1h1v1h-1zM316 55h1v1h-1zm10 0h1v1h-1zm217 0h1v1h-1zm-231 1h1v1h-1zm-36 1h1v1h-1zm33 0h1v1h-1zm156 0h1v1h-1zm-158 1h1v1h-1zm303 0h1v76h-1zm-306 2h1v1h-1zm125 0h1v1h-1zm45 1h1v1h-1zm39 1h1v1h-1zm-118 1h1v1h-1zm83 1h1v1h-1zm93 6h1v1h-1zm-121 7h1v1h-1zm1 0h1v1h-1zm88 0h1v1h-1zm-6 1h1v1h-1zm-122 1h1v1h-1zm135 0h1v1h-1zm-174 1h1v1h-1zm88 0h1v1h-1zm-83 5h1v1h-1zm32 0h1v1h-1zm143 0h1v1h-1zm-226 1h1v1h-1zm197 0h1v1h-1zm-169 3h1v1h-1zm142 0h1v1h-1zm58 0h1v1h-1zm1 0h22v1h-22zm22 0h1v1h-1zm1 0h1v1h-1zm-224 2h1v43h-1zm139 0h1v1h-1zm28 2h1v1h-1zm-53 1h1v1h-1zm0 3h1v1h-1zm-60 4h1v1h-1zm88 0h1v1h-1zm-29 2h1v1h-1zm55 0h1v1h-1zm-30 3h1v1h-1zm32 1h1v1h-1zm26 2h1v1h-1zm27 0h1v1h-1zm-385 1h1v1h-1zm357 0h1v1h-1zm-95 4h1v1h-1zm-40 4h1v1h-1zm73 0h1v1h-1zm15 0h1v1h-1zm-307 1h1v1h-1zm1 2h1v1h-1zm222 2h1v1h-1zm64 1h1v1h-1zm27 2h1v1h-1zm54 3h1v1h-1zm-137 1h1v1h-1zm49 0h1v1h-1zm-47 1h1v1h-1zm45 0h1v1h-1zm87 0h1v1h-1zm-130 1h1v1h-1zm41 0h1v1h-1zm-39 1h1v1h-1zm-222 1h1v1h-1zm144 0h1v1h-1zm256 0h1v1h-1zm-172 1h1v1h-1z"/></g><g fill="#fff"><path d="M611 24h1v1h-1zm-30 4h1v1h-1zm31 0h1v1h-1zm-7 15h1v1h-1zm-2 1h1v1h-1zm-73 11h1v1h-1zm-198 1h1v1h-1zm25 1h1v1h-1zm-20 1h1v1h-1zm18 0h1v1h-1zm114 0h1v1h-1zm-116 1h1v1h-1zm118 0h1v1h-1zm-120 1h1v1h-1zm216 5h1v1h-1zm-68 13h1v1h-1zm-135 1h1v1h-1zm9 2h1v1h-1zm-70 4h1v1h-1zm51 1h1v1h-1zm169 1h1v1h-1zm-90 8h1v1h-1zm5 14h1v1h-1zm-211 3h1v1h-1zm263 1h1v1h-1zm86 0h1v1h-1zm-127 1h1v1h-1zm3 0h1v1h-1zm34 6h1v1h-1zm-274 15h1v1h-1zm313 0h1v1h-1z"/></g><g fill="#1c1c1c"><path d="M550 56h1v1h-1zm-34 4h1v1h-1zm-80 25h1v1h-1zm90 24h1v1h-1zm12 5h1v1h-1zm-27 14h1v1h-1zm40 7h1v1h-1z"/></g><g fill="#131313"><path d="M589 17h1v1h-1zm-4 3h1v1h-1zm26 5h1v1h-1zm-2 14h1v1h-1zM378 55h1v1h-1zm61 1h1v1h-1zm-248 2h1v42h-1zm81 0h1v48h-1zm234 10h1v1h-1zM307 81h1v1h-1zm218 2h1v1h-1zm-32 7h1v1h-1zm-60 3h1v1h-1zm35 3h1v1h-1zm-35 2h1v1h-1zm-242 2h1v1h-1zm217 2h1v1h-1zm-136 4h1v1h-1zm0 1h1v22h-1zm276 4h1v1h-1zm-69 16h1v1h-1zm-207 2h1v1h-1zm0 1h1v4h-1zm0 4h1v1h-1zm282 0h1v1h-1zm-322 2h1v1h-1z"/></g><g fill="#181818"><path d="M581 29h1v1h-1zM365 55h1v1h-1zm-15 6h1v1h-1zm13 18h1v1h-1zm129 6h1v1h-1zm-274 16h1v1h-1zm359 9h1v1h-1zm-9 15h1v1h-1z"/></g><g fill="#171717"><path d="M582 36h1v1h-1zM383 56h1v1h-1zm137 2h1v1h-1zm40 2h1v1h-1zm-214 4h1v1h-1zm159 5h1v1h-1zm-17 6h1v1h-1zm-168 5h1v1h-1zm2 1h1v1h-1zm200 8h1v1h-1zm-55 13h1v1h-1zm55 0h1v1h-1zm8 10h1v1h-1zm-73 1h1v1h-1zm47 8h1v1h-1z"/></g><g fill="#202020"><path d="M611 36h1v1h-1zm-65 19h1v1h-1zm-32 6h1v1h-1zm58 10h1v1h-1zm-131 9h1v1h-1zm-118 2h1v1h-1zm82 1h1v1h-1zm91 5h1v1h-1zm-57 22h1v1h-1zm-201 1h1v1h-1zm265 9h1v1h-1zm-278 17h1v1h-1z"/></g><g fill="#010101"><path d="M37 93h1v2h-1zm82 0h1v2h-1zm-82 2h1v1h-1zm82 0h1v1h-1z"/></g><g fill="#0e0e0e"><path d="M592 16h1v1h-1zm1 0h1v1h-1zm2 0h1v1h-1zm1 0h1v1h-1zm1 0h1v1h-1zm1 0h1v1h-1zm2 0h1v1h-1zm-9 1h1v1h-1zm1 0h9v26h-9zm9 0h1v26h-1zm1 0h1v1h-1zm-13 1h1v1h-1z"/><path d="M590 18h13v24h-13zm13 0h1v24h-1zm1 0h1v1h-1zm1 0h1v1h-1zm-19 1h1v1h-1z"/><path d="M588 19h17v22h-17zm17 0h1v22h-1z"/><path d="M587 20h19v20h-19zm19 0h1v20h-1zm1 0h1v1h-1z"/><path d="M586 21h21v18h-21zm21 0h1v18h-1zm1 0h1v1h-1z"/><path d="M585 22h23v16h-23zm23 0h1v16h-1z"/><path d="M584 23h25v14h-25zm25 0h1v14h-1zm-26 1h1v1h-1z"/><path d="M583 25h27v10h-27zm27 0h1v10h-1zm-28 2h1v1h-1zm29 0h1v1h-1zm-29 1h1v1h-1zm29 0h1v1h-1z"/><path d="M582 29h29v2h-29zm29 0h1v2h-1zm-29 2h29v1h-29zm29 0h1v1h-1zm-29 1h1v1h-1zm29 0h1v1h-1zm-29 1h1v1h-1zm29 0h1v1h-1zm-29 1h1v1h-1zm29 0h1v1h-1zm-28 1h27v1h-27zm27 0h1v1h-1zm0 1h1v1h-1zm-26 1h25v1h-25zm25 0h1v1h-1zm-25 1h1v1h-1zm1 0h23v1h-23zm23 0h1v1h-1zm-22 1h21v1h-21zm21 0h1v1h-1zm-21 1h1v1h-1zm1 0h19v1h-19zm19 0h1v1h-1zm1 0h1v1h-1zm-19 1h17v1h-17zm17 0h1v1h-1zm1 0h1v1h-1zm-17 1h15v1h-15zm15 0h1v1h-1zm1 0h1v1h-1zm-16 1h1v1h-1zm1 0h1v1h-1zm1 0h11v1h-11zm11 0h1v1h-1zm-10 1h1v1h-1zm1 0h1v1h-1zm1 0h1v1h-1zm1 0h3v1h-3zm3 0h1v1h-1zm1 0h1v1h-1zM322 55h1v1h-1zm5 0h1v1h-1zm48 0h1v1h-1zm69 0h1v1h-1zm1 0h1v1h-1zm3 0h1v1h-1zm5 0h1v1h-1zm3 0h1v1h-1zm1 0h1v1h-1zm1 0h1v1h-1zm76 0h1v1h-1zm3 0h1v1h-1zm-222 1h13v21h-13zm13 0h1v33h-1zm1 0h1v1h-1zm2 0h1v1h-1zm33 0h1v1h-1zm1 0h14v21h-14zm14 0h1v32h-1zm64 0h15v20h-15zm15 0h1v21h-1zm2 0h1v1h-1zm1 0h1v1h-1zm68 0h1v1h-1zm1 0h1v1h-1zm1 0h14v20h-14zm14 0h1v21h-1zm1 0h1v1h-1zm1 0h1v1h-1z"/><path d="M311 57h20v20h-20zm20 0h1v77h-1zm1 0h1v1h-1zm2 0h1v1h-1zm27 0h1v1h-1zm1 0h20v20h-20zm20 0h1v77h-1zm1 0h1v1h-1zm2 0h1v1h-1zm54 0h23v19h-23zm23 0h1v23h-1zm65 0h22v19h-22zm22 0h1v22h-1zm1 0h1v1h-1zm2 0h1v1h-1zm58 0h1v1h-1zm-418 1h24v44h-24zm24 0h1v76h-1zm1 0h1v38h-1zm29 0h1v47h-1zm1 0h24v76h-24zm24 0h1v76h-1zm6 0h24v76h-24zm24 0h1v76h-1zm7 0h1v1h-1z"/><path d="M309 58h25v19h-25zm25 0h1v76h-1zm2 0h1v1h-1zm22 0h27v19h-27zm27 0h1v76h-1zm1 0h1v1h-1zm49 0h1v1h-1zm1 0h29v18h-29zm29 0h1v25h-1zm1 0h1v1h-1zm57 0h1v1h-1zm1 0h29v18h-29zm29 0h1v27h-1zm32 0h24v76h-24zm24 0h1v76h-1z"/><path d="M307 59h29v18h-29zm29 0h1v75h-1zm1 0h1v1h-1zm19 0h31v18h-31zm31 0h1v75h-1zm46 0h35v17h-35zm35 0h1v30h-1zm52 0h1v1h-1zm1 0h34v17h-34zm34 0h1v29h-1zm-250 1h1v1h-1z"/><path d="M306 60h32v17h-32zm32 0h1v74h-1zm16 0h35v17h-35zm35 0h1v74h-1zm41 0h1v1h-1zm1 0h39v16h-39zm39 0h1v71h-1zm48 0h1v1h-1zm1 0h38v16h-38zm38 0h1v28h-1zm-255 1h1v1h-1zm1 0h1v1h-1z"/><path d="M304 61h35v16h-35zm35 0h1v73h-1zm13 0h39v16h-39zm39 0h1v73h-1zm36 0h1v1h-1zm1 0h1v1h-1zm1 0h43v15h-43zm43 0h1v69h-1zm44 0h1v1h-1zm1 0h42v15h-42zm42 0h1v27h-1zm1 0h1v1h-1z"/><path d="M302 62h38v15h-38zm38 0h1v72h-1zm1 0h1v1h-1zm1 0h1v1h-1zm8 0h1v1h-1zm1 0h41v15h-41zm41 0h1v72h-1zm34 0h1v1h-1zm1 0h47v14h-47zm47 0h1v67h-1zm1 0h1v1h-1zm39 0h1v1h-1zm1 0h46v14h-46zm46 0h1v26h-1zm-220 1h1v71h-1zm1 0h1v71h-1zm6 0h1v1h-1zm1 0h1v1h-1z"/><path d="M350 63h43v14h-43zm43 0h1v71h-1zm32 0h1v1h-1zm1 0h49v13h-49zm49 0h1v65h-1zm37 0h1v1h-1zm2 0h48v13h-48zm48 0h1v25h-1zm-219 1h1v70h-1z"/><path d="M348 64h46v13h-46zm46 0h1v70h-1zm30 0h1v1h-1zm1 0h51v12h-51zm51 0h1v64h-1zm35 0h1v1h-1zm1 0h51v12h-51zm51 0h1v24h-1zm1 0h1v1h-1zm-220 1h1v69h-1zm2 0h1v1h-1z"/><path d="M347 65h48v12h-48zm48 0h1v69h-1zm28 0h55v11h-55zm55 0h1v61h-1zm32 0h1v1h-1zm1 0h54v11h-54zm54 0h1v23h-1z"/><path d="M345 66h51v11h-51zm51 0h1v68h-1zm25 0h1v1h-1zm1 0h57v10h-57zm57 0h1v59h-1zm1 0h1v1h-1zm29 0h1v1h-1zm1 0h56v10h-56zm56 0h1v22h-1zm-169 1h1v67h-1zm23 0h1v1h-1z"/><path d="M421 67h59v9h-59zm59 0h1v57h-1zm1 0h1v1h-1zm28 0h58v9h-58zm58 0h1v21h-1zm1 0h1v1h-1zm-170 1h1v66h-1zm21 0h1v1h-1z"/><path d="M420 68h61v8h-61zm61 0h1v55h-1zm27 0h60v8h-60zm60 0h1v20h-1zm-168 1h1v1h-1z"/><path d="M419 69h63v7h-63zm63 0h1v53h-1zm25 0h62v7h-62zm62 0h1v19h-1zm1 0h1v1h-1zm-171 1h1v64h-1z"/><path d="M418 70h65v6h-65zm65 0h1v51h-1zm22 0h1v1h-1zm1 0h63v6h-63zm64 0h1v1h-1zm-170 1h1v1h-1zm1 0h1v1h-1z"/><path d="M417 71h66v5h-66zm67 0h1v1h-1zm21 0h65v5h-65zm65 0h1v17h-1zm1 0h1v1h-1zm-171 1h1v62h-1zm16 0h1v1h-1zm68 0h1v48h-1zm2 0h1v1h-1z"/><path d="M504 72h67v4h-67zm67 0h1v16h-1zm-170 1h1v1h-1zm13 0h1v1h-1zm2 0h69v3h-69zm69 0h1v46h-1zm1 0h1v1h-1zm86 0h1v1h-1zm-171 1h1v60h-1zm13 0h1v1h-1z"/><path d="M415 74h71v2h-71zm71 0h1v43h-1zm17 0h69v2h-69zm69 0h1v14h-1zm-158 1h1v1h-1zm73 0h1v1h-1zm15 0h1v1h-1zm71 0h1v13h-1zm-171 1h1v58h-1zm1 0h1v1h-1z"/><path d="M414 76h73v1h-73zm73 0h1v39h-1zm1 0h1v1h-1zm13 0h1v1h-1zm1 0h71v1h-71zm-200 1h100v1H302zm111 0h1v1h-1zm1 0h31v1h-31zm31 0h1v1h-1zm3 0h1v1h-1zm5 0h1v1h-1zm2 0h1v1h-1zm1 0h31v1h-31zm45 0h31v1h-31zm31 0h1v1h-1zm1 0h1v1h-1zm2 0h1v1h-1zm8 0h1v1h-1zm1 0h30v1h-30zm30 0h1v11h-1zm-272 1h10v1h-10zm10 0h1v1h-1zm3 0h1v1h-1zm1 0h1v1h-1zm1 0h46v1h-46zm46 0h1v1h-1zm1 0h1v1h-1zm2 0h1v1h-1zm1 0h1v1h-1zm1 0h34v1h-34zm45 0h29v1h-29zm29 0h1v1h-1zm16 0h1v1h-1z"/><path d="M459 78h29v1h-29zm29 0h1v36h-1zm13 0h28v1h-28zm28 0h1v1h-1zm1 0h1v1h-1zm2 0h1v1h-1zm14 0h28v1h-28zm29 0h1v1h-1zm-273 1h6v1h-6zm6 0h1v1h-1zm1 0h1v1h-1zm1 0h1v1h-1zm8 0h1v1h-1zm2 0h1v1h-1zm1 0h38v1h-38zm38 0h1v1h-1zm13 0h31v1h-31zm31 0h1v55h-1zm9 0h28v1h-28zm28 0h1v1h-1zm2 0h1v1h-1zm18 0h1v1h-1zm1 0h27v1h-27zm28 0h1v1h-1zm11 0h28v1h-28zm28 0h1v1h-1zm19 0h1v1h-1zm1 0h26v1h-26zm27 0h1v1h-1zm-273 1h4v1h-4zm4 0h1v1h-1zm16 0h1v1h-1zm1 0h34v1h-34zm34 0h1v1h-1zm17 0h29v1h-29zm37 0h1v1h-1zm1 0h27v1h-27zm27 0h1v1h-1z"/><path d="M462 80h27v1h-27zm27 0h1v32h-1zm11 0h26v1h-26zm26 0h1v1h-1zm24 0h25v1h-25zm25 0h1v8h-1zm-273 1h3v1h-3zm3 0h1v1h-1zm18 0h1v1h-1zm1 0h32v1h-32zm32 0h1v1h-1zm1 0h1v1h-1zm18 0h28v1h-28zm29 0h1v1h-1zm8 0h25v2h-25zm25 0h1v1h-1zm1 0h1v1h-1zm25 0h26v1h-26zm27 0h1v1h-1zm9 0h1v1h-1zm1 0h25v1h-25zm25 0h1v1h-1zm1 0h1v1h-1zm24 0h1v1h-1zm1 0h24v1h-24zm25 0h1v1h-1zm-274 1h2v1h-2zm2 0h1v1h-1zm21 0h30v1h-30zm30 0h1v1h-1zm21 0h1v1h-1zm1 0h26v1h-26z"/><path d="M411 82h25v2h-25zm53 0h1v1h-1zm2 0h24v2h-24zm24 0h1v27h-1zm9 0h25v2h-25zm25 0h1v1h-1zm27 0h25v1h-25zm25 0h1v6h-1zm-274 1h1v1h-1zm1 0h1v1h-1zm22 0h1v1h-1zm1 0h28v1h-28zm28 0h1v1h-1zm1 0h1v1h-1zm22 0h27v1h-27zm27 0h1v51h-1zm32 0h1v1h-1zm1 0h1v1h-1zm27 0h1v1h-1z"/><path d="M465 83h25v1h-25zm33 0h1v1h-1zm26 0h1v1h-1zm27 0h1v1h-1zm1 0h24v1h-24zm25 0h1v1h-1zm-275 1h1v1h-1zm24 0h1v1h-1zm1 0h26v2h-26zm26 0h1v1h-1zm1 0h1v1h-1zm23 0h1v1h-1zm1 0h26v1h-26zm32 0h1v1h-1zm1 0h24v2h-24zm24 0h1v1h-1zm31 0h24v1h-24zm25 0h1v1h-1zm8 0h24v2h-24zm24 0h1v1h-1zm31 0h22v4h-22zm-252 1h1v1h-1zm76 0h26v1h-26z"/><path d="M410 85h24v3h-24zm25 0h1v1h-1zm32 0h23v1h-23zm24 0h1v1h-1zm7 0h24v4h-24zm25 0h1v1h-1zm30 0h23v1h-23zm-226 1h25v1h-25zm25 0h1v48h-1zm1 0h1v1h-1zm27 0h24v48h-24zm54 0h1v1h-1zm1 0h1v1h-1zm31 0h1v1h-1zm1 0h24v1h-24zm24 0h1v20h-1zm6 0h1v1h-1zm25 0h1v1h-1zm31 0h1v1h-1zm24 0h1v1h-1z"/><path d="M329 87h24v47h-24zm24 0h1v47h-1zm52 0h1v1h-1zm4 0h1v1h-1zm25 0h1v1h-1zm32 0h1v1h-1zm3 0h22v22h-22zm28 0h1v1h-1zm25 0h1v1h-1zm55 0h1v1h-1zm-198 1h25v1h-25zm26 0h1v1h-1zm4 0h1v1h-1zm1 0h23v6h-23zm23 0h1v1h-1zm64 0h1v1h-1zm57 0h23v1h-23zm23 0h1v1h-1z"/><path d="M328 89h25v1h-25zm51 0h1v1h-1zm30 0h23v14h-23zm24 0h1v1h-1zm35 0h23v1h-23zm24 0h1v1h-1zm5 0h24v14h-24zm24 0h1v1h-1zm-193 1h1v1h-1zm105 0h1v1h-1zm35 0h1v1h-1zm24 0h1v12h-1zm29 0h1v1h-1zm-193 1h1v1h-1zm0 1h1v1h-1zm140 0h1v1h-1zm-140 1h1v1h-1zm0 1h1v1h-1zm51 0h1v1h-1zm53 0h1v1h-1zm1 0h1v1h-1zm88 0h1v1h-1zm-113 1h1v1h-1zm24 0h1v1h-1zm64 0h1v1h-1zm-279 1h1v1h-1zm191 0h1v1h-1zm88 0h1v1h-1zm-279 1h1v1h-1zm215 0h1v35h-1zm61 0h1v1h-1zm-276 1h1v1h-1zm0 1h1v1h-1zm191 0h1v1h-1zm60 0h1v1h-1zm28 0h1v1h-1zm25 0h1v1h-1zm-304 1h1v1h-1zm191 0h1v1h-1zm60 0h1v1h-1zm28 0h1v1h-1zm-279 1h1v34h-1zm304 0h1v1h-1zm-330 1h1v1h-1zm1 0h25v1h-25zm276 0h1v1h-1zm24 0h1v1h-1zm4 0h1v1h-1zm25 0h1v1h-1zm-329 1h1v1h-1zm1 0h24v7h-24z"/><path d="M409 103h24v1h-24zm24 0h1v29h-1zm35 0h23v6h-23zm24 0h1v1h-1zm5 0h24v1h-24zm24 0h1v29h-1zm33 0h1v1h-1zm1 0h22v1h-22zm22 0h1v1h-1zm-385 1h1v1h-1zm26 0h1v1h-1zm191 0h1v1h-1zm1 0h23v2h-23zm57 0h1v1h-1zm30 0h1v1h-1zm1 0h23v2h-23zm56 0h23v5h-23zm23 0h1v1h-1zm-385 1h1v1h-1zm26 0h1v30h-1zm28 0h1v1h-1z"/><path d="M467 105h24v4h-24zm25 0h1v1h-1zm30 0h1v27h-1zm55 0h1v1h-1zm1 0h1v1h-1zm-386 1h1v1h-1zm27 0h1v1h-1zm26 0h1v1h-1zm165 0h24v1h-24zm24 0h1v27h-1zm57 0h1v1h-1zm7 0h24v1h-24zm-279 1h1v1h-1zm1 0h1v1h-1zm25 0h1v1h-1zm1 0h25v21h-25zm164 0h1v1h-1zm1 0h23v3h-23zm54 0h1v1h-1zm1 0h1v1h-1zm32 0h1v1h-1z"/><path d="M499 107h24v3h-24zm24 0h1v26h-1zm30 0h23v5h-23zm-334 1h1v27h-1zm24 0h1v1h-1zm1 0h1v1h-1zm1 0h26v20h-26zm190 0h1v25h-1zm1 0h1v1h-1zm29 0h1v1h-1zm1 0h24v4h-24zm58 0h1v1h-1zm28 0h1v1h-1zm25 0h1v1h-1zm-357 1h1v26h-1zm23 0h1v1h-1z"/><path d="M244 109h27v19h-27zm166 0h1v1h-1zm26 0h1v24h-1zm28 0h1v1h-1zm1 0h25v3h-25zm25 0h1v1h-1zm8 0h1v1h-1zm26 0h1v24h-1zm28 0h24v3h-24zm24 0h1v1h-1zm-383 1h28v1h-28zm28 0h1v25h-1zm20 0h1v1h-1z"/><path d="M242 110h29v18h-29zm169 0h26v1h-26zm26 0h1v23h-1zm25 0h1v1h-1zm2 0h25v4h-25zm35 0h26v1h-26zm26 0h1v23h-1zm1 0h1v1h-1zm1 0h1v1h-1zm23 0h1v1h-1zm1 0h24v4h-24zm25 0h1v1h-1zm-382 1h28v3h-28zm28 0h1v24h-1z"/><path d="M241 111h30v17h-30zm171 0h26v1h-26zm26 0h1v23h-1zm1 0h1v1h-1zm23 0h1v1h-1zm1 0h26v3h-26zm37 0h26v1h-26zm26 0h1v23h-1zm1 0h1v1h-1zm22 0h1v1h-1zm1 0h25v3h-25zm-327 1h1v23h-1zm1 0h1v1h-1zm1 0h1v1h-1zm13 0h1v1h-1z"/><path d="M239 112h32v16h-32zm173 0h27v1h-27zm27 0h1v22h-1zm1 0h1v1h-1zm22 0h27v2h-27zm27 0h1v1h-1zm11 0h27v1h-27zm27 0h1v22h-1zm22 0h26v2h-26zm26 0h1v1h-1zm-351 1h2v23h-2zm2 0h1v22h-1zm1 0h1v1h-1zm5 0h1v1h-1zm1 0h1v1h-1zm1 0h1v1h-1zm1 0h1v1h-1zm1 0h1v1h-1z"/><path d="M237 113h34v15h-34zm175 0h1v1h-1zm1 0h28v1h-28zm28 0h1v22h-1zm1 0h1v1h-1zm18 0h28v2h-28zm40 0h1v1h-1zm1 0h28v1h-28zm28 0h1v21h-1zm1 0h1v1h-1zm17 0h27v3h-27zm-354 1h1v1h-1z"/><path d="M194 114h77v1h-77zm218 0h1v1h-1zm1 0h30v1h-30zm30 0h1v21h-1zm13 0h1v1h-1zm1 0h1v1h-1zm1 0h30v1h-30zm30 0h1v1h-1zm13 0h31v1h-31zm31 0h1v21h-1zm2 0h1v1h-1zm7 0h1v1h-1zm1 0h1v1h-1zm2 0h1v1h-1zm1 0h29v2h-29zm29 0h1v1h-1zm-379 1h76v2h-76z"/><path d="M414 115h34v1h-34zm34 0h1v20h-1zm1 0h1v1h-1zm3 0h1v1h-1zm1 0h34v2h-34zm34 0h1v1h-1zm14 0h1v1h-1zm1 0h71v1h-71zm72 0h1v1h-1z"/><path d="M414 116h72v1h-72zm73 0h1v1h-1zm15 0h71v1h-71zm71 0h1v1h-1zm-378 1h76v1h-76zm219 0h1v1h-1zm1 0h71v1h-71zm71 0h1v1h-1zm1 0h1v1h-1zm15 0h1v1h-1zm1 0h69v1h-69zm69 0h1v1h-1zm-377 1h1v1h-1zm1 0h75v1h-75zm219 0h70v1h-70zm71 0h1v1h-1zm17 0h69v1h-69zm69 0h1v1h-1zm-376 1h75v1h-75zm220 0h69v1h-69zm69 0h1v1h-1zm18 0h1v1h-1zm1 0h67v1h-67zm67 0h1v1h-1zm1 0h1v1h-1zm-376 1h1v1h-1zm1 0h74v1h-74zm220 0h67v1h-67zm67 0h1v1h-1zm20 0h1v1h-1zm1 0h65v1h-65zm65 0h1v1h-1zm1 0h1v1h-1zm-374 1h74v1h-74zm221 0h65v1h-65zm65 0h1v1h-1zm23 0h64v1h-64zm64 0h1v1h-1zm-373 1h1v1h-1zm1 0h73v1h-73zm221 0h63v1h-63zm63 0h1v1h-1zm25 0h62v1h-62zm62 0h1v1h-1zm1 0h1v1h-1zm-372 1h1v1h-1zm1 0h72v1h-72zm220 0h1v1h-1zm1 0h61v1h-61zm61 0h1v1h-1zm26 0h1v1h-1zm1 0h60v1h-60zm60 0h1v1h-1zm-370 1h1v1h-1zm1 0h1v1h-1zm1 0h71v1h-71zm220 0h60v1h-60zm60 0h1v1h-1zm1 0h1v1h-1zm27 0h59v1h-59zm59 0h1v1h-1zm-367 1h71v1h-71zm221 0h58v1h-58zm58 0h1v1h-1zm1 0h1v1h-1zm29 0h1v1h-1zm1 0h56v1h-56zm56 0h1v1h-1zm1 0h1v1h-1zm-366 1h70v1h-70zm222 0h55v1h-55zm55 0h1v1h-1zm1 0h1v1h-1zm32 0h54v1h-54zm54 0h1v1h-1zm1 0h1v1h-1zm-365 1h1v1h-1zm1 0h69v1h-69zm221 0h1v1h-1zm1 0h53v1h-53zm53 0h1v1h-1zm1 0h1v1h-1zm34 0h52v1h-52zm52 0h1v1h-1zm-363 1h1v1h-1zm2 0h68v1h-68zm222 0h51v1h-51zm51 0h1v1h-1zm36 0h1v1h-1zm1 0h49v1h-49zm49 0h1v1h-1zm1 0h1v1h-1zm-360 1h1v1h-1zm1 0h40v1h-40zm40 0h1v1h-1zm2 0h1v1h-1zm180 0h1v1h-1zm1 0h47v1h-47zm47 0h1v1h-1zm39 0h1v1h-1zm1 0h1v1h-1zm1 0h46v1h-46zm46 0h1v1h-1zm-356 1h1v1h-1zm1 0h37v1h-37zm37 0h1v1h-1zm3 0h1v4h-1zm182 0h45v1h-45zm45 0h1v1h-1zm43 0h44v1h-44zm44 0h1v1h-1zm-354 1h1v1h-1zm1 0h34v1h-34zm34 0h1v1h-1zm189 0h41v1h-41zm41 0h1v1h-1zm47 0h40v1h-40zm40 0h1v1h-1zm-351 1h1v1h-1zm2 0h31v1h-31zm31 0h1v1h-1zm1 0h1v1h-1zm191 0h37v1h-37zm37 0h1v1h-1zm51 0h36v1h-36zm36 0h1v1h-1zm2 0h1v1h-1zm-349 1h1v1h-1zm1 0h1v1h-1zm1 0h26v1h-26zm26 0h1v1h-1zm1 0h1v1h-1zm196 0h33v1h-33zm33 0h1v1h-1zm55 0h1v1h-1zm1 0h30v1h-30zm30 0h1v1h-1zm1 0h1v1h-1zm1 0h1v1h-1zm-343 1h1v1h-1zm1 0h22v1h-22zm22 0h1v1h-1zm1 0h1v1h-1zm10 0h1v1h-1zm1 0h24v1h-24zm24 0h1v1h-1zm6 0h24v1h-24zm24 0h1v1h-1zm28 0h24v1h-24zm24 0h1v1h-1zm27 0h24v1h-24zm24 0h1v1h-1zm33 0h1v1h-1zm1 0h25v1h-25zm25 0h1v1h-1zm2 0h1v1h-1zm1 0h1v1h-1zm57 0h1v1h-1zm1 0h1v1h-1zm1 0h1v1h-1zm1 0h24v1h-24zm24 0h1v1h-1zm1 0h1v1h-1zm2 0h1v1h-1zm32 0h24v1h-24zm24 0h1v1h-1zm-394 1h1v1h-1zm1 0h1v1h-1zm1 0h15v1h-15zm15 0h1v1h-1zm2 0h1v1h-1zm1 0h1v1h-1zm204 0h1v1h-1zm1 0h1v1h-1zm1 0h19v1h-19zm19 0h1v1h-1zm1 0h1v1h-1zm68 0h1v1h-1zm1 0h16v1h-16zm16 0h1v1h-1zm1 0h1v1h-1zm1 0h1v1h-1zm-327 1h1v1h-1zm3 0h1v1h-1zm1 0h1v1h-1zm3 0h1v1h-1zm1 0h1v1h-1zm2 0h1v1h-1zm211 0h1v1h-1zm6 0h1v1h-1zm1 0h3v1h-3zm3 0h1v1h-1zm1 0h1v1h-1zm1 0h1v1h-1zm77 0h1v1h-1zm1 0h1v1h-1zm1 0h1v1h-1zm2 0h1v1h-1zm3 0h1v1h-1zm1 0h1v1h-1zm1 0h1v1h-1zm1 0h1v1h-1z"/></g><g fill="#242424"><path d="M398 66h1v1h-1zm-38 14h1v1h-1zm48 8h1v1h-1zm55 21h1v1h-1zm-4 3h1v1h-1zm-15 1h1v1h-1zm20 22h1v1h-1z"/></g><g fill="#060606"><path d="M57 69h1v1h-1zm32 0h1v1h-1zm-32 6h1v1h-1zm32 0h1v1h-1zm-32 38h1v1h-1zm32 0h1v1h-1zm-32 6h1v1h-1zm32 0h1v1h-1z"/></g><g fill="#020202"><path d="M37 92h1v1h-1zm82 0h1v1h-1zm-82 4h1v1h-1zm82 0h1v1h-1z"/></g><g fill="#161616"><path d="M489 77h1v1h-1zm63 29h1v1h-1zm15 20h1v1h-1zm-367 1h1v1h-1z"/></g><g fill="#1b1b1b"><path d="M591 16h1v1h-1zM443 55h1v1h-1zm-82 1h1v1h-1zm74 49h1v1h-1zm13 9h1v1h-1zm5 0h1v1h-1zm116 10h1v1h-1z"/></g><g fill="#151515"><path d="M328 55h1v1h-1zm-137 2h1v1h-1zm81 0h1v1h-1zm33 2h1v1h-1zm89 3h1v1h-1zm169 0h1v1h-1zm-54 3h1v1h-1zM327 90h1v1h-1zm141 5h1v1h-1zm-277 6h1v1h-1zm246 7h1v1h-1zm-201 4h1v1h-1zm263 1h1v1h-1zm63 17h1v1h-1zm-324 4h1v1h-1zm229 0h1v1h-1zm80 2h1v1h-1z"/></g><g fill="#090909"><path d="M58 69h30v7H58zm30 0h1v7h-1zm-30 7h30v1H58zm30 0h1v1h-1zM38 91h80v7H38zm80 0h1v7h-1zm-80 7h80v1H38zm80 0h1v1h-1zm-60 15h30v7H58zm30 0h1v7h-1zm-30 7h30v1H58zm30 0h1v1h-1z"/></g><g fill="#080808"><path d="M57 76h1v1h-1zm32 0h1v1h-1zm-32 44h1v1h-1zm32 0h1v1h-1z"/></g><g fill="#141414"><path d="M595 45h1v1h-1zm3 0h1v1h-1zM386 57h1v1h-1zm49 0h1v1h-1zm88 0h1v1h-1zm-102 8h1v1h-1zm60 1h1v1h-1zm-79 7h1v1h-1zm100 0h1v1h-1zm-46 5h1v1h-1zm34 1h1v1h-1zm8 2h1v1h-1zm-7 1h1v1h-1zm-26 3h1v1h-1zm60 23h1v1h-1zm-285 2h1v1h-1zm171 3h1v1h-1zm128 1h1v1h-1zm33 6h1v1h-1zm-156 1h1v1h-1zm68 1h1v1h-1zm82 5h1v1h-1zm-143 1h1v1h-1zm-217 4h1v1h-1zm323 4h1v1h-1z"/></g><g fill="#070707"><path d="M37 98h1v1h-1zm82 0h1v1h-1z"/></g><g fill="#0f0f0f"><path d="M594 16h1v1h-1zm5 0h1v1h-1zm2 0h1v1h-1zm-11 1h1v1h-1zm13 0h1v1h-1zm1 0h1v1h-1zm-16 1h1v1h-1zm-1 1h1v1h-1zm19 0h1v1h-1zm-20 1h1v1h-1zm-1 1h1v1h-1zm-1 1h1v1h-1zm25 0h1v1h-1zm1 1h1v1h-1zm0 1h1v1h-1zm-28 2h1v1h-1zm29 0h1v1h-1zm-28 10h1v1h-1zm27 1h1v1h-1zm-1 1h1v1h-1zm-24 1h1v1h-1zm23 0h1v1h-1zm-21 2h1v1h-1zm20 0h1v1h-1zm-20 1h1v1h-1zm1 0h1v1h-1zm15 1h1v1h-1zm-12 1h1v1h-1zm9 0h1v1h-1zm1 0h1v1h-1zM321 55h1v1h-1zm2 0h1v1h-1zm2 0h1v1h-1zm44 0h1v1h-1zm1 0h1v1h-1zm1 0h1v1h-1zm1 0h1v1h-1zm1 0h1v1h-1zm1 0h1v1h-1zm2 0h1v1h-1zm70 0h1v1h-1zm1 0h1v1h-1zm2 0h1v1h-1zm1 0h1v1h-1zm1 0h1v1h-1zm1 0h1v1h-1zm2 0h1v1h-1zm1 0h1v1h-1zm80 0h1v1h-1zm1 0h1v1h-1zm2 0h1v1h-1zm1 0h1v1h-1zm1 0h1v1h-1zm4 0h1v1h-1zm-231 1h1v1h-1zm1 0h1v1h-1zm16 0h1v1h-1zm32 0h1v1h-1zm1 0h1v1h-1zm17 0h1v1h-1zm1 0h1v1h-1zm60 0h1v1h-1zm1 0h1v1h-1zm17 0h1v1h-1zm3 0h1v1h-1zm86 0h1v1h-1zm1 0h1v1h-1zm-357 1h24v1h-24zm24 0h1v1h-1zm1 0h1v1h-1zm29 0h1v1h-1zm1 0h24v1h-24zm24 0h1v1h-1zm6 0h24v1h-24zm24 0h1v1h-1zm1 0h1v1h-1zm8 0h1v1h-1zm23 0h1v1h-1zm25 0h1v1h-1zm1 0h1v1h-1zm1 0h1v1h-1zm24 0h1v1h-1zm53 0h1v1h-1zm1 0h1v1h-1zm25 0h1v1h-1zm62 0h1v1h-1zm1 0h1v1h-1zm25 0h1v1h-1zm33 0h1v1h-1zm1 0h24v1h-24zm24 0h1v1h-1zm-333 1h1v76h-1zm26 0h1v2h-1zm33 0h1v1h-1zm22 0h1v1h-1zm30 0h1v1h-1zm47 0h1v1h-1zm33 0h1v1h-1zm1 0h1v1h-1zm53 0h1v1h-1zm1 0h1v1h-1zm32 0h1v1h-1zm30 0h1v76h-1zm-278 1h1v1h-1zm48 0h1v1h-1zm1 0h1v1h-1zm33 0h1v1h-1zm1 0h1v1h-1zm1 0h1v1h-1zm42 0h1v1h-1zm37 0h1v1h-1zm50 0h1v1h-1zm37 0h1v1h-1zm-254 1h1v1h-1zm37 0h1v1h-1zm13 0h1v1h-1zm1 0h1v1h-1zm37 0h1v1h-1zm81 0h1v1h-1zm87 0h1v1h-1zm1 0h1v1h-1zm-219 1h1v1h-1zm1 0h1v1h-1zm10 0h1v1h-1zm41 0h1v1h-1zm81 0h1v1h-1zm-80 1h1v1h-1zm169 0h1v1h-1zm-168 1h1v1h-1zm30 0h1v1h-1zm52 0h1v1h-1zm37 0h1v1h-1zm50 0h1v1h-1zm-219 1h1v1h-1zm3 0h1v1h-1zm48 0h1v1h-1zm1 0h1v1h-1zm27 0h1v1h-1zm54 0h1v1h-1zm-132 1h1v1h-1zm51 0h1v1h-1zm1 0h1v1h-1zm25 0h1v1h-1zm144 0h1v1h-1zm-169 1h1v1h-1zm170 0h1v1h-1zm-169 1h1v1h-1zm21 0h1v1h-1zm63 0h1v1h-1zm26 0h1v1h-1zm-109 1h1v1h-1zm19 0h1v1h-1zm64 0h1v1h-1zm25 0h1v1h-1zm62 0h1v1h-1zm-170 1h1v1h-1zm19 0h1v1h-1zm65 0h1v1h-1zm23 0h1v1h-1zm-106 1h1v1h-1zm17 0h1v1h-1zm67 0h1v1h-1zm-68 1h1v1h-1zm69 0h1v1h-1zm19 0h1v1h-1zm-103 1h1v1h-1zm14 0h1v1h-1zm70 0h1v1h-1zm18 0h1v1h-1zm69 0h1v1h-1zm-157 1h1v1h-1zm88 0h1v1h-1zm70 0h1v1h-1zm-171 1h1v1h-1zm85 0h1v1h-1zm15 0h1v1h-1zm71 0h1v1h-1zm-171 1h1v1h-1zm1 0h1v1h-1zm10 0h1v1h-1zm161 0h1v1h-1zm-161 1h1v1h-1zm161 0h1v1h-1zm-171 1h1v1h-1zm9 0h1v1h-1zm34 0h1v1h-1zm1 0h1v1h-1zm2 0h1v1h-1zm3 0h1v1h-1zm2 0h1v1h-1zm34 0h1v1h-1zm46 0h1v1h-1zm2 0h1v1h-1zm2 0h1v1h-1zm3 0h1v1h-1zm1 0h1v1h-1zm-229 1h1v1h-1zm1 0h1v1h-1zm51 0h1v1h-1zm38 0h1v1h-1zm9 0h1v1h-1zm31 0h1v1h-1zm2 0h1v1h-1zm12 0h1v1h-1zm32 0h1v1h-1zm11 0h1v1h-1zm31 0h1v1h-1zm14 0h1v1h-1zm-233 1h1v1h-1zm7 0h1v1h-1zm41 0h1v1h-1zm1 0h1v1h-1zm1 0h1v1h-1zm7 0h1v1h-1zm1 0h1v1h-1zm1 0h1v1h-1zm70 0h1v1h-1zm18 0h1v1h-1zm40 0h1v1h-1zm30 0h1v1h-1zm-222 1h1v1h-1zm14 0h1v1h-1zm37 0h1v1h-1zm1 0h1v1h-1zm14 0h1v1h-1zm67 0h1v1h-1zm21 0h1v1h-1zm29 0h1v1h-1zm9 0h1v1h-1zm28 0h1v1h-1zm1 0h1v1h-1zm21 0h1v1h-1zm-243 1h1v1h-1zm105 0h1v1h-1zm51 0h1v1h-1zm65 0h1v1h-1zm-203 1h1v1h-1zm32 0h1v1h-1zm48 0h1v1h-1zm33 0h1v1h-1zm1 0h1v1h-1zm60 0h1v1h-1zm27 0h1v1h-1zm1 0h1v1h-1zm-222 1h1v1h-1zm72 0h1v1h-1zm34 0h1v1h-1zm81 0h1v1h-1zm-55 1h1v1h-1zm29 0h1v1h-1zm33 0h1v1h-1zm26 0h1v1h-1zm28 0h1v1h-1zm25 0h1v1h-1zm-251 1h1v1h-1zm27 0h1v1h-1zm113 0h1v1h-1zm111 0h1v1h-1zm-275 1h1v48h-1zm76 0h1v1h-1zm27 0h1v1h-1zm4 0h1v1h-1zm-82 1h1v1h-1zm51 0h1v1h-1zm89 0h1v1h-1zm25 0h1v1h-1zm-165 1h1v1h-1zm140 0h1v1h-1zm25 0h1v1h-1zm30 0h1v1h-1zm-195 1h1v1h-1zm140 0h1v1h-1zm-88 1h1v1h-1zm0 1h1v1h-1zm26 0h1v43h-1zm3 0h1v1h-1zm60 0h1v1h-1zm28 0h1v1h-1zm-117 1h1v1h-1zm29 0h1v1h-1zm25 0h1v1h-1zm63 0h1v1h-1zm-117 1h1v1h-1zm29 0h1v1h-1zm88 0h1v1h-1zm-3 1h1v1h-1zm-165 1h1v39h-1zm165 0h1v1h-1zm28 0h1v1h-1zm-89 1h1v1h-1zm61 0h1v1h-1zm-85 1h1v1h-1zm88 0h1v1h-1zm-88 1h1v1h-1zm60 0h1v1h-1zm28 0h1v1h-1zm25 0h1v1h-1zm-28 1h1v1h-1zm-60 1h1v1h-1zm60 0h1v1h-1zm28 0h1v1h-1zm-88 1h1v1h-1zm35 0h1v1h-1zm25 0h1v1h-1zm-60 1h1v1h-1zm-215 1h1v1h-1zm190 0h1v1h-1zm26 0h1v1h-1zm62 0h1v1h-1zm57 0h1v1h-1zm-119 1h1v1h-1zm58 0h1v1h-1zm30 0h1v1h-1zm31 0h1v1h-1zm25 0h1v1h-1zm-169 1h1v1h-1zm25 0h1v1h-1zm119 0h1v1h-1zm-307 1h1v1h-1zm163 0h1v1h-1zm57 0h1v1h-1zm31 0h1v1h-1zm26 0h1v1h-1zm30 0h1v1h-1zm24 0h1v1h-1zm-385 1h1v1h-1zm243 0h1v1h-1zm56 0h1v1h-1zm61 0h1v1h-1zm25 0h1v1h-1zm-385 1h1v1h-1zm28 0h1v1h-1zm190 0h1v1h-1zm88 0h1v1h-1zm53 0h1v1h-1zm-359 1h1v1h-1zm50 0h1v1h-1zm195 0h1v1h-1zm54 0h1v1h-1zm34 0h1v1h-1zm26 0h1v1h-1zm-329 1h1v1h-1zm216 0h1v1h-1zm25 0h1v1h-1zm27 0h1v1h-1zm-297 1h1v1h-1zm30 0h1v1h-1zm17 0h1v1h-1zm171 0h1v1h-1zm50 0h1v1h-1zm29 0h1v1h-1zm9 0h1v1h-1zm77 0h1v1h-1zm-383 1h1v1h-1zm33 0h1v1h-1zm11 0h1v1h-1zm174 0h1v1h-1zm30 0h1v1h-1zm19 0h1v1h-1zm1 0h1v1h-1zm29 0h1v1h-1zm9 0h1v1h-1zm29 0h1v1h-1zm18 0h1v1h-1zm1 0h1v1h-1zm1 0h1v1h-1zm28 0h1v1h-1zm-383 1h1v1h-1zm35 0h1v1h-1zm1 0h1v1h-1zm1 0h1v1h-1zm213 0h1v1h-1zm16 0h1v1h-1zm30 0h1v1h-1zm56 0h1v1h-1zm1 0h1v1h-1zm29 0h1v1h-1zm-131 1h1v1h-1zm1 0h1v1h-1zm10 0h1v1h-1zm34 0h1v1h-1zm11 0h1v1h-1zm33 0h1v1h-1zm10 0h1v1h-1zm32 0h1v1h-1zm-381 1h1v1h-1zm219 0h1v1h-1zm37 0h1v1h-1zm1 0h1v1h-1zm37 0h1v1h-1zm-75 1h1v1h-1zm161 0h1v1h-1zm-1 1h1v1h-1zm1 0h1v1h-1zm-159 2h1v1h-1zm1 1h1v1h-1zm69 0h1v1h-1zm-68 1h1v1h-1zm67 0h1v1h-1zm21 0h1v1h-1zm66 0h1v1h-1zm-153 1h1v1h-1zm65 0h1v1h-1zm23 0h1v1h-1zm-24 1h1v1h-1zm24 0h1v1h-1zm63 0h1v1h-1zm1 0h1v1h-1zm-63 1h1v1h-1zm61 0h1v1h-1zm-148 1h1v1h-1zm61 0h1v1h-1zm27 0h1v1h-1zm-308 1h1v1h-1zm221 0h1v1h-1zm1 0h1v1h-1zm88 0h1v1h-1zm0 1h1v1h-1zm1 0h1v1h-1zm54 0h1v1h-1zm-363 1h1v1h-1zm222 0h1v1h-1zm140 0h1v1h-1zm-319 1h1v1h-1zm180 0h1v1h-1zm50 0h1v1h-1zm87 0h1v1h-1zm-358 1h1v1h-1zm40 0h1v1h-1zm183 0h1v1h-1zm47 0h1v1h-1zm41 0h1v1h-1zm46 0h1v1h-1zm-356 1h1v1h-1zm37 0h1v1h-1zm1 0h1v1h-1zm186 0h1v1h-1zm43 0h1v1h-1zm45 0h1v1h-1zm42 0h1v1h-1zm-351 1h1v1h-1zm223 0h1v1h-1zm39 0h1v1h-1zm49 0h1v1h-1zm38 0h1v1h-1zm-318 1h1v1h-1zm1 0h1v1h-1zm193 0h1v1h-1zm35 0h1v1h-1zm53 0h1v1h-1zm-310 1h1v1h-1zm26 0h1v1h-1zm39 0h1v1h-1zm26 0h1v1h-1zm26 0h1v1h-1zm77 0h1v1h-1zm31 0h1v1h-1zm28 0h1v1h-1zm88 0h1v1h-1zm32 0h1v1h-1zm-370 1h1v1h-1zm19 0h1v1h-1zm229 0h1v1h-1zm1 0h1v1h-1zm64 0h1v1h-1zm1 0h1v1h-1zm21 0h1v1h-1zm1 0h1v1h-1zm-334 1h1v1h-1zm1 0h1v1h-1zm2 0h1v1h-1zm1 0h1v1h-1zm2 0h1v1h-1zm1 0h1v1h-1zm3 0h1v1h-1zm1 0h1v1h-1zm3 0h1v1h-1zm213 0h1v1h-1zm1 0h1v1h-1zm1 0h1v1h-1zm1 0h1v1h-1zm1 0h1v1h-1zm8 0h1v1h-1zm1 0h1v1h-1zm1 0h1v1h-1zm1 0h1v1h-1zm1 0h1v1h-1zm75 0h1v1h-1zm2 0h1v1h-1zm1 0h1v1h-1zm5 0h1v1h-1zm1 0h1v1h-1zm3 0h1v1h-1z"/></g><g fill="#2b2b2b"><path d="M606 18h1v1h-1zM335 57h1v1h-1zm-26 23h1v1h-1zm124 17h1v1h-1zm-212 11h1v1h-1zm-19 21h1v1h-1z"/></g><g fill="#121212"><path d="M607 19h1v1h-1zm5 11h1v1h-1zm-31 1h1v1h-1zm31 0h1v1h-1zm-6 11h1v1h-1zM315 55h1v1h-1zm51 0h1v1h-1zm165 0h1v1h-1zm-220 1h1v1h-1zm216 0h1v1h-1zm26 1h1v1h-1zm-165 1h1v1h-1zm-50 1h1v1h-1zm220 0h1v1h-1zm-218 1h1v1h-1zm85 2h1v1h-1zm139 1h1v1h-1zm-144 3h1v1h-1zm88 0h1v1h-1zm-7 9h1v1h-1zm43 3h1v1h-1zm-233 1h1v1h-1zm6 0h1v1h-1zm51 0h1v1h-1zm-10 2h1v1h-1zm219 1h1v1h-1zm-172 2h1v1h-1zm-51 3h1v1h-1zm0 1h1v1h-1zm199 0h1v1h-1zm-145 1h1v1h-1zm26 0h1v1h-1zm-80 1h1v1h-1zm167 6h1v1h-1zm-28 6h1v1h-1zm-84 5h1v1h-1zm27 0h1v1h-1zm61 0h1v1h-1zm-33 1h1v1h-1zm-240 3h1v1h-1zm308 2h1v1h-1zm-85 1h1v1h-1zm89 0h1v1h-1zm-31 8h1v1h-1zm-308 1h1v1h-1zm225 4h1v1h-1zm-177 3h1v1h-1zm271 1h1v1h-1zm-274 1h1v1h-1zm276 0h1v1h-1zm2 1h1v1h-1zm-86 1h1v1h-1zm26 2h1v1h-1zm70 0h1v1h-1zm-80 1h1v1h-1zm1 0h1v1h-1z"/></g><g fill="#333"><path d="M581 32h1v1h-1zm2 6h1v1h-1zM380 55h1v1h-1zm176 3h1v1h-1zm-76 7h1v1h-1zm3 3h1v1h-1zm-66 1h1v1h-1zm157 5h1v1h-1zm4 12h1v1h-1zm-85 3h1v1h-1zm-270 21h1v1h-1zm268 0h1v1h-1zm-299 1h1v1h-1zm220 4h1v1h-1zm66 13h1v1h-1zm87 0h1v1h-1z"/></g><g fill="#030303"><path d="M57 71h1v2h-1zm32 0h1v2h-1zm-32 2h1v1h-1zm32 0h1v1h-1zm-32 42h1v2h-1zm32 0h1v2h-1zm-32 2h1v1h-1zm32 0h1v1h-1z"/></g><g fill="#101010"><path d="M608 20h1v1h-1zm-26 15h1v1h-1zm29 0h1v1h-1zm-28 2h1v1h-1zm1 2h1v1h-1zm24 1h1v1h-1zm-4 3h1v1h-1zm-2 1h1v1h-1zm-6 1h1v1h-1zm1 0h1v1h-1zM317 55h1v1h-1zm1 0h1v1h-1zm1 0h1v1h-1zm1 0h1v1h-1zm4 0h1v1h-1zm43 0h1v1h-1zm1 0h1v1h-1zm9 0h1v1h-1zm2 0h1v1h-1zm153 0h1v1h-1zm1 0h1v1h-1zm8 0h1v1h-1zm1 0h1v1h-1zm3 0h1v1h-1zm-163 1h1v1h-1zm58 0h1v1h-1zm88 0h1v1h-1zm-92 1h1v1h-1zm28 0h1v1h-1zm60 0h1v1h-1zm-168 1h1v1h-1zm77 0h1v1h-1zm122 0h1v1h-1zm-124 1h1v1h-1zm39 0h1v1h-1zm87 0h1v1h-1zm-166 1h1v1h-1zm81 0h1v1h-1zm45 0h1v1h-1zm-2 1h1v1h-1zm46 0h1v1h-1zm-212 1h1v1h-1zm127 0h1v1h-1zm-133 1h1v1h-1zm134 0h1v1h-1zm88 1h1v1h-1zm-86 1h1v1h-1zm28 2h1v1h-1zm-7 10h1v1h-1zm37 0h1v1h-1zm3 0h1v1h-1zm35 0h1v1h-1zm-131 1h1v1h-1zm-40 1h1v1h-1zm126 0h1v1h-1zm46 0h1v1h-1zm-268 1h1v1h-1zm96 0h1v1h-1zm144 0h1v1h-1zm28 0h1v1h-1zm-202 1h1v1h-1zm65 0h1v1h-1zm110 0h1v1h-1zm-244 1h1v1h-1zm70 0h1v1h-1zm35 0h1v1h-1zm53 0h1v1h-1zm87 0h1v1h-1zm-247 2h1v1h-1zm22 0h1v1h-1zm80 1h1v1h-1zm92 0h1v1h-1zm-5 1h1v1h-1zm61 1h1v1h-1zm25 0h1v1h-1zm-200 1h1v1h-1zm56 0h1v1h-1zm144 0h1v1h-1zm-173 1h1v1h-1zm0 1h1v1h-1zm3 0h1v1h-1zm88 0h1v1h-1zm-63 1h1v1h-1zm88 0h1v1h-1zm-28 1h1v1h-1zm28 0h1v1h-1zm-53 1h1v1h-1zm25 0h1v1h-1zm-85 1h1v1h-1zm88 0h1v1h-1zm-117 1h1v39h-1zm142 2h1v1h-1zm-28 1h1v1h-1zm-60 1h1v1h-1zm-215 3h1v1h-1zm360 1h1v1h-1zm-359 2h1v1h-1zm247 0h1v1h-1zm31 0h1v1h-1zm26 0h1v1h-1zm-88 1h1v1h-1zm-191 1h1v1h-1zm247 1h1v1h-1zm-270 1h1v1h-1zm189 1h1v1h-1zm88 0h1v1h-1zm-259 1h1v1h-1zm289 0h1v1h-1zm1 1h1v1h-1zm-298 1h1v1h-1zm227 0h1v1h-1zm73 0h1v1h-1zm-85 1h1v1h-1zm89 0h1v1h-1zm2 0h1v1h-1zm3 0h1v1h-1zm-346 2h1v1h-1zm294 0h1v1h-1zm13 0h1v1h-1zm-307 1h1v1h-1zm379 1h1v1h-1zm-87 1h1v1h-1zm-69 3h1v1h-1zm66 1h1v1h-1zm-64 1h1v1h-1zm-220 1h1v1h-1zm281 1h1v1h-1zm-3 2h1v1h-1zm-1 1h1v1h-1zm38 1h1v1h-1zm-45 3h1v1h-1zm87 0h1v1h-1zm-177 1h1v1h-1zm56 0h1v1h-1zm-222 1h1v1h-1zm313 0h1v1h-1zm-308 1h1v1h-1zm223 0h1v1h-1zm103 0h1v1h-1zm1 0h1v1h-1z"/></g><g fill="#404040"><path d="M612 32h1v1h-1zm-18 13h1v1h-1zm-84 19h1v1h-1zm67 17h1v1h-1zm-201 3h1v1h-1zm121 0h1v1h-1zm3 31h1v1h-1z"/></g><g fill="#555"><path d="M610 38h1v1h-1zm-20 6h1v1h-1zm9 1h1v1h-1zm-73 11h1v1h-1zm-94 2h1v1h-1zm-2 1h1v1h-1zm-2 1h1v1h-1zm59 13h1v1h-1zm88 3h1v1h-1zm-117 3h1v1h-1zm89 1h1v1h-1zm-306 29h1v1h-1zm201 3h1v1h-1zm-249 3h1v1h-1zm378 7h1v1h-1zm-372 4h1v1h-1zm250 11h1v1h-1zm3 0h1v1h-1z"/></g></svg>