<svg xmlns="http://www.w3.org/2000/svg" role="img" viewBox="-0.84 -0.84 43.62 29.61"><title>unSkript, Inc. logo</title><path fill="url(#paint0_linear_11825_111864)" d="M36.8145 12.4088c.1213-.6266.1828-1.2658.1828-1.9094C36.9973 4.70972 32.0297 0 25.9231 0c-3.8979 0-7.5111 1.96867-9.4961 5.09702-2.6796-.82361-5.4288-.47045-7.69384 1.00942-2.26499 1.4787-3.61684 3.8199-3.72619 6.37986C2.0294 13.8271.00195 16.6821.00195 19.8322c0 .5468.1397 1.08.24658 1.5973l.00123.0011c.79552 3.8063 4.34862 6.5679 8.44731 6.5679H33.3058c4.7488 0 8.6952-3.664 8.6952-8.1663 0-3.1842-2.0551-6.0506-5.1865-7.4234z"/><mask id="a" style="mask-type:alpha" width="42" height="28" x="0" y="0" maskUnits="userSpaceOnUse"><path fill="url(#paint1_linear_11825_111864)" d="M36.8125 12.4088c.1214-.6266.1828-1.2658.1828-1.9094C36.9953 4.70972 32.0277 0 25.9212 0c-3.898 0-7.5111 1.96867-9.4961 5.09702-2.6796-.82361-5.4289-.47045-7.69389 1.00942-2.26499 1.4787-3.61684 3.8199-3.72619 6.37986C2.02744 13.8271 0 16.6821 0 19.8322c0 .5468.1397 1.08.24658 1.5973l.00123.0011c.79552 3.8063 4.34861 6.5679 8.44731 6.5679H33.3039c4.7488 0 8.6951-3.664 8.6951-8.1663 0-3.1842-2.055-6.0506-5.1865-7.4234z"/></mask><g mask="url(#a)"><path fill="#fff" fill-rule="evenodd" d="M21.002-.19531h1.1666V9.944h3.3055c1.396 0 2.5277 1.07299 2.5277 2.39659v2.9496h2.5277c.4295 0 .7778.3302.7778.7374v4.0557c0 .4072-.3483.7374-.7778.7374h-6.2221c-.4295 0-.7777-.3302-.7777-.7374v-4.0557c0-.4072.3482-.7374.7777-.7374h2.5277v-2.9496c0-.7127-.6093-1.2905-1.361-1.2905h-7.791c-.7517 0-1.3611.5778-1.3611 1.2905v2.9496h2.5411c.4296 0 .7778.3302.7778.7374v4.0557c0 .4072-.3482.7374-.7778.7374H12.641c-.4295 0-.7777-.3302-.7777-.7374v-4.0557c0-.4072.3482-.7374.7777-.7374h2.5144v-2.9496c0-1.3236 1.1317-2.39659 2.5277-2.39659h3.3189V-.19531z" clip-rule="evenodd"/></g><defs><linearGradient id="paint0_linear_11825_111864" x1=".002" x2="40.493" y1="-.012" y2="30.041" gradientUnits="userSpaceOnUse"><stop stop-color="#FD7860"/><stop offset="1" stop-color="#E73827"/></linearGradient><linearGradient id="paint1_linear_11825_111864" x1="0" x2="40.491" y1="-.012" y2="30.041" gradientUnits="userSpaceOnUse"><stop stop-color="#6C94FF"/><stop offset="1" stop-color="#3C62E5"/></linearGradient></defs></svg>