<svg xmlns="http://www.w3.org/2000/svg" role="img" xmlns:xlink="http://www.w3.org/1999/xlink" viewBox="-3.42 0.58 334.10 198.35"><title>UniMatrix Governance Project logo</title><defs><path d="M32.8125-42.94922h5.6836v24.8164c0 4.31641-.48829 7.7422-1.46485 10.28126-.97656 2.53906-2.73828 4.60547-5.28906 6.19531C29.1953-.0625 25.85156.73438 21.71094.73438c-4.02344 0-7.3164-.69532-9.875-2.08204-2.5586-1.38671-4.38282-3.39453-5.47657-6.01953-1.09375-2.6289-1.64062-6.21875-1.64062-10.76562v-24.8164h5.67969v24.78515c0 3.73047.34765 6.48047 1.04297 8.2461.6914 1.76952 1.8828 3.1289 3.57422 4.08984 1.6875.95703 3.7539 1.43359 6.1953 1.43359 4.1797 0 7.15626-.94922 8.9375-2.83985 1.77735-1.89453 2.66407-5.53906 2.66407-10.92968zm0 0" id="a"/><path d="M3.95313 0v-31.11328h4.75v4.42578c2.28515-3.41797 5.58593-5.1289 9.89843-5.1289 1.875 0 3.60157.33593 5.17188 1.01171 1.57422.67188 2.75 1.55469 3.53125 2.64844s1.32812 2.39453 1.64062 3.89844c.19532.97656.29297 2.6875.29297 5.125V0h-5.27344v-18.92578c0-2.14844-.20703-3.7539-.61328-4.82031-.41015-1.0625-1.14062-1.91407-2.1836-2.54688-1.04687-.63672-2.26952-.95312-3.67577-.95312-2.2461 0-4.1875.71484-5.8164 2.13671-1.63282 1.42579-2.44923 4.13282-2.44923 8.1172V0zm0 0" id="b"/><path d="M3.98438-36.88281v-6.0664H9.2578v6.0664zM3.98438 0v-31.11328H9.2578V0zm0 0" id="c"/><path d="M4.45313 0v-42.94922h8.55468l10.16407 30.41016c.9375 2.83203 1.625 4.95312 2.05468 6.35937.48828-1.5625 1.25-3.85937 2.28125-6.88672l10.28516-29.8828h7.64453V0h-5.47656v-35.94531L27.48047 0h-5.1289L9.92968-36.5625V0zm0 0" id="d"/><path d="M24.25781-3.83594C22.3047-2.17578 20.42578-1.0078 18.6172-.3203 16.8125.36329 14.875.70313 12.80469.70313c-3.41797 0-6.04688-.83594-7.88282-2.50391-1.83593-1.67188-2.7539-3.80469-2.7539-6.40235 0-1.52343.34766-2.91406 1.03906-4.17578.69531-1.2578 1.60156-2.26953 2.72656-3.03125 1.1211-.76172 2.38672-1.33984 3.79297-1.73047 1.03516-.27343 2.59766-.53515 4.6875-.78906 4.25782-.50781 7.39063-1.11328 9.40625-1.8164.01953-.72266.02735-1.1836.02735-1.37891 0-2.14844-.4961-3.66016-1.4961-4.53906-1.34765-1.1914-3.34765-1.78907-6.0039-1.78907-2.48047 0-4.3125.4375-5.4922 1.3047-1.18359.87109-2.05859 2.40624-2.62109 4.61718l-5.15625-.70313c.46875-2.20703 1.23829-3.99218 2.3125-5.34765 1.07422-1.35938 2.625-2.40235 4.65625-3.13672 2.03125-.73047 4.38672-1.09766 7.0625-1.09766 2.65626 0 4.8125.3125 6.47657.9375 1.66015.625 2.8789 1.41016 3.66015 2.35938.78125.94531 1.32813 2.14453 1.64063 3.58984.17578.89844.26172 2.51563.26172 4.85938v7.03125c0 4.90234.11328 8.0039.33984 9.30468C29.71094-2.4375 30.15625-1.1914 30.82031 0H25.3125c-.54688-1.09375-.89844-2.375-1.05469-3.83594zm-.4375-11.78125c-1.91406.78125-4.78906 1.44532-8.61718 1.99219-2.16797.3125-3.69922.66406-4.59766 1.05469-.89844.39062-1.58985.96484-2.08203 1.71484-.48828.7539-.73047 1.58985-.73047 2.5039 0 1.40626.53125 2.57813 1.59765 3.51563 1.0625.9375 2.6211 1.40625 4.67188 1.40625 2.03125 0 3.83594-.4414 5.42188-1.33203 1.58203-.88672 2.74218-2.10547 3.48437-3.64453.5664-1.1914.85156-2.95313.85156-5.27344zm0 0" id="e"/><path d="M15.46875-4.71875l.76172 4.66016c-1.48438.3125-2.8125.46875-3.98438.46875-1.91406 0-3.39843-.30079-4.45312-.91016-1.05469-.60547-1.79688-1.39844-2.22656-2.38672-.4297-.98437-.64454-3.0586-.64454-6.22266v-17.90234H1.0547v-4.10156h3.86719v-7.70703l5.24218-3.16407v10.8711h5.30469v4.10156h-5.30469v18.1914c0 1.50391.09375 2.47266.28125 2.90235.1836.42969.48828.76953.90625 1.02735.42188.2539 1.02344.3789 1.80469.3789.58594 0 1.35547-.0664 2.3125-.20703zm0 0" id="f"/><path d="M3.89844 0v-31.11328h4.74218v4.71484c1.21094-2.20703 2.33204-3.66015 3.35547-4.36328 1.02735-.70312 2.15235-1.05469 3.38672-1.05469 1.77735 0 3.58203.56641 5.41797 1.69922l-1.8164 4.89063c-1.28907-.76172-2.57813-1.14063-3.8672-1.14063-1.15234 0-2.1875.34766-3.10546 1.03907-.91797.6953-1.57422 1.65624-1.96485 2.88671-.58593 1.875-.875 3.92579-.875 6.15235V0zm0 0" id="g"/><path d="M.4375 0l11.36719-16.17188-10.51563-14.9414h6.59375l4.77344 7.29297c.89844 1.38672 1.6211 2.55078 2.16797 3.48828.85937-1.28906 1.65234-2.4336 2.3711-3.42578l5.24609-7.35547h6.30078l-10.7539 14.64844L29.5625 0h-6.47656l-6.38672-9.66797L15-12.27344 6.82812 0zm0 0" id="h"/><path d="M24.72656-16.84375v-5.03906l18.19532-.03125v15.9375C40.1289-3.75 37.24609-2.07422 34.27734-.95312 31.3086.17188 28.26172.73438 25.13672.73438c-4.21875 0-8.05078-.90626-11.5-2.71094-3.44531-1.8086-6.05078-4.42188-7.8086-7.83594-1.7578-3.41797-2.6328-7.23828-2.6328-11.45703 0-4.17969.87109-8.08203 2.62109-11.70313 1.74609-3.625 4.26171-6.3164 7.54296-8.07422 3.28125-1.7578 7.0625-2.6328 11.33594-2.6328 3.10547 0 5.91407.5 8.42578 1.5078 2.50782 1.00391 4.47657 2.40626 5.90235 4.20313 1.42578 1.79688 2.50781 4.14063 3.25 7.03125l-5.125 1.40625c-.64453-2.1875-1.44532-3.90625-2.40235-5.15625-.95703-1.25-2.32422-2.25-4.10156-3.0039-1.77734-.75-3.75-1.12891-5.91797-1.12891-2.59765 0-4.84375.39843-6.73828 1.1875-1.89453.79297-3.42187 1.83203-4.58594 3.1211-1.16015 1.28905-2.0664 2.70702-2.70703 4.24609-1.09375 2.65624-1.64062 5.53906-1.64062 8.64453 0 3.82812.65625 7.03125 1.97656 9.60937 1.3164 2.57813 3.23438 4.49219 5.75781 5.74219 2.51953 1.25 5.19532 1.875 8.02344 1.875 2.46094 0 4.86719-.47266 7.21094-1.42188 2.34375-.9453 4.11718-1.95703 5.32812-3.03125v-7.99609zm0 0" id="i"/><path d="M1.99219-15.55469c0-5.76172 1.60156-10.03125 4.80468-12.80468 2.67579-2.3047 5.9375-3.45704 9.78516-3.45704 4.27735 0 7.77344 1.40235 10.48828 4.20313 2.71485 2.80469 4.07032 6.67578 4.07032 11.61719 0 4.0039-.59766 7.15234-1.80079 9.44922-1.19921 2.29296-2.94921 4.07812-5.24218 5.34375C21.80078.0664 19.29687.70311 16.58203.70311c-4.35547 0-7.875-1.39843-10.5625-4.1875-2.6836-2.79296-4.02734-6.8203-4.02734-12.0703zm5.42187 0c0 3.98438.86719 6.96485 2.60547 8.94922 1.73828 1.98047 3.92578 2.97266 6.5625 2.97266 2.61719 0 4.79297-.9961 6.53516-2.98828 1.73828-1.9922 2.60547-5.02735 2.60547-9.11329 0-3.84765-.875-6.76171-2.6211-8.74218-1.75-1.98438-3.92187-2.97657-6.51953-2.97657-2.63672 0-4.82422.98829-6.5625 2.96094-1.73828 1.97266-2.60547 4.95313-2.60547 8.9375zm0 0" id="j"/><path d="M12.59766 0L.76172-31.11328h5.5664l6.6797 18.63281C13.73046-10.46875 14.39452-8.3789 15-6.21094c.46875-1.64062 1.125-3.61328 1.96094-5.91797L23.875-31.11328h5.42188L17.51953 0zm0 0" id="k"/><path d="M25.2539-10.01953l5.44922.67578c-.85937 3.1836-2.45312 5.65234-4.77343 7.41016C23.60547-.1758 20.6328.70312 17.02344.70312 12.47266.70313 8.86328-.69921 6.1953-3.5c-2.66406-2.80469-4-6.73438-4-11.79297 0-5.23437 1.35156-9.29687 4.04688-12.1875 2.69531-2.89062 6.1875-4.33594 10.48437-4.33594 4.16016 0 7.5625 1.41797 10.19532 4.2461C29.55859-24.73828 30.8789-20.75 30.8789-15.6172c0 .3125-.01172.78125-.02735 1.40625H7.64844c.19531 3.41797 1.16015 6.03907 2.89844 7.85157 1.73828 1.8164 3.90625 2.72656 6.5039 2.72656 1.9336 0 3.58203-.50781 4.94922-1.52344 1.36719-1.01563 2.45313-2.63672 3.2539-4.86328zM7.9375-18.54688h17.375c-.23438-2.61718-.89844-4.57812-1.99219-5.88671-1.67968-2.03125-3.85937-3.04688-6.53125-3.04688-2.42187 0-4.46093.8086-6.10937 2.4336-1.65235 1.62109-2.5625 3.78906-2.74219 6.5zm0 0" id="l"/><path d="M24.25781-11.39844l5.1875.67578c-.5664 3.57422-2.01953 6.3711-4.35156 8.39453C22.75781-.30858 19.89062.70313 16.49219.70313c-4.25782 0-7.67969-1.39062-10.26563-4.17578C3.63672-6.2539 2.34375-10.24219 2.34375-15.4375c0-3.35938.55469-6.30078 1.67188-8.82031 1.11328-2.51953 2.80468-4.41016 5.08203-5.66797 2.27343-1.26172 4.75-1.89063 7.42578-1.89063 3.3789 0 6.14062.85547 8.28906 2.5625 2.14844 1.71094 3.52734 4.13672 4.13281 7.28125l-5.125.79297c-.48828-2.08984-1.35547-3.66406-2.59375-4.71875-1.24218-1.05468-2.74218-1.58203-4.5-1.58203-2.65625 0-4.8125.95313-6.47265 2.85547-1.66016 1.90625-2.48828 4.91797-2.48828 9.03906 0 4.17969.79687 7.21875 2.39843 9.10938 1.60157 1.89453 3.69532 2.84375 6.27344 2.84375 2.07031 0 3.79688-.63281 5.1836-1.90625 1.38671-1.26953 2.26562-3.21875 2.63671-5.85938zm0 0" id="m"/><path d="M4.6289 0v-42.94922h16.19922c2.85157 0 5.03126.13672 6.53516.41016 2.10938.35156 3.8789 1.01953 5.30078 2.00781 1.42578.98438 2.57422 2.36719 3.44532 4.14453.86718 1.77734 1.30468 3.73047 1.30468 5.85938 0 3.65234-1.16406 6.74218-3.48828 9.27343-2.32422 2.52735-6.52344 3.79297-12.59766 3.79297H10.3125V0zm5.6836-22.53125h11.10156c3.67188 0 6.28125-.67969 7.82422-2.04688 1.54297-1.36718 2.3164-3.29296 2.3164-5.77343 0-1.79688-.45702-3.33594-1.36327-4.61328-.91016-1.28125-2.10547-2.125-3.58985-2.53516-.95703-.2539-2.72656-.38281-5.30468-.38281H10.3125zm0 0" id="n"/><path d="M3.92578-36.82813v-6.12109h5.27344v6.1211zM-2.7539 12.07032l.9961-4.48437C-.70312 7.85938.125 8 .73438 8c1.07421 0 1.875-.35938 2.39843-1.07031.52735-.71485.79297-2.4961.79297-5.34766v-32.69531h5.27344v32.8125c0 3.82812-.4961 6.4961-1.4961 7.9961C6.4336 11.64843 4.32813 12.625 1.375 12.625c-1.42578 0-2.80078-.1836-4.1289-.55469zm0 0" id="o"/></defs><use y="50" xlink:href="#a"/><use x="43.33" y="50" xlink:href="#b"/><use x="76.699" y="50" xlink:href="#c"/><use x="90.029" y="50" xlink:href="#d"/><use x="140.01" y="50" xlink:href="#e"/><use x="173.379" y="50" xlink:href="#f"/><use x="190.049" y="50" xlink:href="#g"/><use x="210.029" y="50" xlink:href="#c"/><use x="223.359" y="50" xlink:href="#h"/><g><use y="120" xlink:href="#i"/><use x="46.67" y="120" xlink:href="#j"/><use x="80.039" y="120" xlink:href="#k"/><use x="110.039" y="120" xlink:href="#l"/><use x="143.408" y="120" xlink:href="#g"/><use x="163.389" y="120" xlink:href="#b"/><use x="196.758" y="120" xlink:href="#e"/><use x="230.127" y="120" xlink:href="#b"/><use x="263.496" y="120" xlink:href="#m"/><use x="293.496" y="120" xlink:href="#l"/></g><g><use y="180" xlink:href="#n"/><use x="40.02" y="180" xlink:href="#g"/><use x="60" y="180" xlink:href="#j"/><use x="93.369" y="180" xlink:href="#o"/><use x="106.699" y="180" xlink:href="#l"/><use x="140.068" y="180" xlink:href="#m"/><use x="170.068" y="180" xlink:href="#f"/></g></svg>