<svg xmlns="http://www.w3.org/2000/svg" role="img" viewBox="88.38 248.38 1072.24 335.24"><title>UnionTech Software Technology Co., Ltd. logo</title><g id="#ffffffff" fill="#fff"><path d="M 0.00 0.00 L 1250.00 0.00 L 1250.00 834.00 L 0.00 834.00 L 0.00 0.00 M 229.97 272.09 C 197.50 277.79 167.29 295.02 145.60 319.81 C 184.87 359.09 224.17 398.35 263.42 437.65 C 270.86 445.07 272.14 457.63 266.36 466.40 C 260.88 475.36 249.00 479.59 239.09 476.05 C 233.55 474.35 229.50 470.02 225.61 465.96 C 204.37 487.09 183.27 508.37 162.00 529.48 C 194.55 557.10 239.57 568.90 281.53 561.33 C 316.33 555.38 348.48 536.12 370.56 508.63 C 336.24 474.24 301.86 439.92 267.51 405.56 C 264.38 402.33 260.77 399.39 258.72 395.30 C 255.06 388.45 255.18 379.77 259.03 373.04 C 261.11 369.26 264.42 366.42 267.41 363.38 C 290.54 340.25 313.67 317.13 336.80 293.99 C 305.74 273.33 266.65 265.40 229.97 272.09 M 831.63 303.14 C 825.83 303.18 820.04 303.16 814.25 303.17 C 814.25 308.53 814.23 313.90 814.27 319.27 C 819.00 319.24 823.73 319.24 828.46 319.26 C 825.62 332.08 821.33 344.51 816.64 356.75 C 815.77 362.13 816.50 367.64 816.15 373.07 C 825.46 373.10 834.77 373.07 844.08 373.08 C 844.03 379.21 844.21 385.34 843.95 391.46 C 833.85 391.77 823.76 392.24 813.65 392.53 C 813.67 398.52 813.66 404.52 813.67 410.52 C 823.81 410.45 833.97 410.24 844.08 409.39 C 844.08 419.29 844.07 429.20 844.09 439.11 C 851.87 439.43 859.80 435.34 863.21 428.19 C 866.55 421.40 864.83 413.59 865.25 406.32 C 871.18 404.93 877.09 403.42 882.99 401.85 C 883.00 396.72 882.99 391.59 883.00 386.47 C 877.09 387.37 871.17 388.25 865.25 389.03 C 865.25 383.72 865.25 378.40 865.24 373.09 C 870.28 373.08 875.32 373.06 880.36 373.11 C 880.45 367.87 880.43 362.64 880.38 357.40 C 883.43 355.41 886.57 353.56 889.67 351.64 C 901.22 344.31 910.51 333.37 915.26 320.48 C 925.23 320.54 935.20 320.45 945.18 320.53 C 945.12 329.20 945.21 337.86 945.13 346.53 C 955.43 347.51 965.58 339.29 966.21 328.87 C 966.51 320.53 966.24 312.18 966.33 303.83 C 950.69 303.86 935.05 303.77 919.41 303.88 C 920.36 299.47 921.10 295.00 921.58 290.51 C 913.84 290.47 906.11 290.54 898.38 290.47 C 898.26 307.94 893.29 326.02 881.19 339.05 C 881.11 343.74 881.20 348.43 881.19 353.11 C 881.40 354.37 880.80 355.51 880.29 356.61 C 875.28 356.09 870.25 356.42 865.23 356.32 C 865.27 346.82 865.24 337.33 865.25 327.84 C 858.97 327.83 852.70 327.83 846.42 327.84 C 847.32 324.98 848.18 322.12 849.03 319.25 C 855.34 319.15 861.65 319.46 867.95 319.12 C 875.68 318.39 881.16 310.71 880.53 303.18 C 871.33 303.14 862.13 303.18 852.94 303.16 C 853.77 298.72 854.62 294.28 855.46 289.84 C 848.24 289.90 841.01 289.70 833.79 289.90 C 832.46 294.16 832.43 298.75 831.63 303.14 M 1079.83 289.84 C 1079.83 298.28 1079.83 306.72 1079.83 315.16 C 1075.88 315.16 1071.94 315.16 1068.00 315.16 C 1069.17 309.54 1069.76 303.81 1070.05 298.08 C 1062.77 298.08 1055.49 298.09 1048.21 298.08 C 1048.17 314.27 1043.81 331.46 1031.66 342.89 C 1031.67 348.00 1031.65 353.12 1031.67 358.24 C 1044.13 353.04 1055.74 344.65 1062.32 332.61 C 1068.16 332.56 1074.00 332.57 1079.85 332.61 C 1079.80 345.60 1079.85 358.60 1079.83 371.59 C 1064.01 371.56 1048.19 371.63 1032.38 371.55 C 1032.31 377.16 1032.29 382.76 1032.39 388.36 C 1048.20 388.29 1064.01 388.36 1079.83 388.33 C 1079.82 405.42 1079.86 422.51 1079.81 439.60 C 1092.50 440.80 1104.53 429.72 1104.15 416.94 C 1104.21 407.40 1104.14 397.87 1104.17 388.33 C 1116.39 388.34 1128.61 388.33 1140.84 388.33 C 1140.83 382.75 1140.83 377.17 1140.84 371.59 C 1128.62 371.58 1116.39 371.58 1104.18 371.59 C 1104.15 358.59 1104.17 345.59 1104.17 332.59 C 1110.61 332.43 1117.08 332.91 1123.51 332.33 C 1131.55 331.15 1137.20 323.12 1136.52 315.17 C 1125.73 315.15 1114.94 315.18 1104.16 315.15 C 1104.17 306.71 1104.16 298.27 1104.17 289.84 C 1096.05 289.83 1087.94 289.83 1079.83 289.84 M 496.54 290.49 C 493.40 306.70 487.05 322.32 477.68 335.94 C 476.93 337.18 475.82 338.39 475.94 339.94 C 475.82 344.63 475.97 349.33 475.92 354.02 C 483.47 354.54 491.06 354.32 498.61 353.79 C 493.15 362.93 486.44 371.27 479.08 378.95 C 479.07 384.37 479.11 389.79 479.04 395.21 C 495.68 395.29 512.48 394.77 528.77 391.13 C 528.73 385.51 528.75 379.90 528.75 374.28 C 520.00 376.49 511.01 377.56 502.01 377.88 C 516.84 361.67 527.45 341.89 533.87 320.94 C 526.95 320.89 520.04 320.92 513.12 320.92 C 511.48 326.29 509.57 331.57 507.58 336.82 C 503.88 337.16 500.18 337.29 496.48 337.37 C 506.89 323.42 514.14 307.30 518.58 290.51 C 511.24 290.49 503.89 290.51 496.54 290.49 M 570.08 290.50 C 570.08 294.72 570.08 298.94 570.08 303.16 C 557.61 303.17 545.14 303.16 532.67 303.16 C 532.66 308.75 532.66 314.33 532.67 319.92 C 541.62 319.93 550.58 319.90 559.54 319.93 C 553.54 331.60 545.10 341.81 535.84 351.04 C 535.82 356.69 535.83 362.34 535.83 368.00 C 541.33 368.00 546.83 368.00 552.33 368.00 C 552.11 378.59 553.59 389.57 549.68 399.71 C 546.02 410.36 537.35 418.41 527.64 423.65 C 527.69 429.22 527.65 434.79 527.67 440.36 C 535.59 437.54 543.35 434.05 550.24 429.17 C 560.90 421.84 569.10 410.75 572.00 398.05 C 574.60 388.04 573.24 377.66 573.49 367.46 C 576.35 367.33 579.21 367.16 582.08 366.99 C 582.09 383.66 582.07 400.33 582.09 417.00 C 581.95 422.91 584.22 429.37 589.64 432.37 C 597.06 436.58 605.91 434.77 614.03 435.19 C 620.50 435.49 628.10 433.53 631.16 427.24 C 634.38 420.32 632.64 412.44 633.08 405.08 C 627.69 405.08 622.30 405.08 616.91 405.08 C 616.80 408.91 617.31 412.83 616.47 416.60 C 615.44 420.43 610.43 421.14 607.30 419.63 C 604.42 418.31 603.03 415.06 603.25 412.02 C 603.25 396.45 603.24 380.88 603.26 365.31 C 605.25 365.06 607.25 364.83 609.26 364.63 C 610.06 367.26 610.87 369.88 611.68 372.50 C 618.58 372.50 625.48 372.51 632.39 372.49 C 628.08 357.60 622.64 343.00 615.44 329.25 C 608.82 329.07 602.20 329.20 595.59 329.17 C 598.80 335.41 601.52 341.89 603.99 348.46 C 589.99 349.62 575.92 349.93 561.88 349.99 C 571.22 341.32 579.12 331.13 585.37 320.02 C 596.20 319.69 607.04 320.16 617.87 319.79 C 626.02 319.12 631.87 311.11 631.29 303.18 C 618.99 303.09 606.68 303.29 594.38 303.07 C 594.42 298.88 594.42 294.69 594.41 290.50 C 586.30 290.50 578.19 290.49 570.08 290.50 M 644.17 336.97 C 644.16 342.30 644.16 347.62 644.17 352.95 C 649.35 351.14 654.44 349.06 659.34 346.57 C 659.32 377.40 659.34 408.24 659.33 439.08 C 666.09 439.32 673.05 436.58 677.11 431.02 C 679.96 427.34 681.31 422.66 681.18 418.03 C 681.14 387.67 681.20 357.30 681.15 326.93 C 680.85 323.96 682.90 321.58 684.01 319.01 C 688.23 309.94 690.72 300.21 693.05 290.52 C 685.29 290.47 677.53 290.51 669.78 290.50 C 667.23 308.34 659.40 326.45 644.17 336.97 M 735.08 290.50 C 735.08 294.50 735.08 298.50 735.08 302.50 C 721.58 302.51 708.08 302.48 694.58 302.51 C 694.59 308.09 694.58 313.67 694.59 319.25 C 725.72 319.21 756.85 319.33 787.98 319.19 C 796.39 318.92 802.74 310.67 802.00 302.49 C 788.25 302.50 774.50 302.50 760.75 302.50 C 760.76 298.48 760.78 294.46 760.67 290.44 C 752.14 290.57 743.61 290.46 735.08 290.50 M 1010.04 291.16 C 1006.83 310.49 998.40 330.49 981.26 341.35 C 981.24 346.25 981.25 351.15 981.25 356.05 C 986.85 354.29 992.28 352.06 997.66 349.71 C 997.68 379.51 997.66 409.31 997.67 439.11 C 1000.94 438.92 1004.31 438.77 1007.38 437.45 C 1014.84 434.52 1020.37 427.06 1020.70 419.01 C 1020.93 388.36 1020.48 357.69 1020.93 327.05 C 1026.74 315.69 1031.03 303.60 1033.94 291.17 C 1025.97 291.16 1018.00 291.17 1010.04 291.16 M 312.50 384.54 C 339.89 411.52 367.09 438.69 394.37 465.76 C 403.20 441.27 405.14 414.39 400.24 388.84 C 395.93 366.05 385.91 344.46 371.72 326.15 C 351.90 345.53 332.18 365.02 312.50 384.54 M 700.88 328.56 C 700.95 333.91 700.87 339.26 700.97 344.60 C 732.10 344.54 763.22 344.64 794.35 344.55 C 794.32 339.21 794.33 333.86 794.34 328.51 C 763.19 328.53 732.03 328.42 700.88 328.56 M 912.90 330.39 C 912.75 344.22 913.51 358.24 910.29 371.83 C 906.26 391.49 895.53 409.53 880.45 422.72 C 880.55 428.54 880.46 434.36 880.51 440.18 C 899.52 430.41 916.15 414.93 924.61 395.05 C 927.15 399.60 929.56 404.25 932.69 408.44 C 942.47 422.01 956.11 432.34 970.75 440.19 C 970.65 434.17 970.93 428.14 970.65 422.14 C 968.81 419.75 966.25 418.04 964.21 415.85 C 950.30 402.23 940.72 384.19 937.78 364.91 C 935.75 353.51 936.79 341.92 936.58 330.42 C 928.68 330.40 920.79 330.45 912.90 330.39 M 700.92 353.83 C 700.91 359.19 700.91 364.55 700.92 369.92 C 732.05 369.92 763.19 369.92 794.33 369.92 C 794.33 364.56 794.33 359.20 794.33 353.84 C 763.19 353.83 732.06 353.83 700.92 353.83 M 120.19 360.60 C 112.89 378.44 109.02 397.71 109.15 417.00 C 109.07 444.12 116.90 471.14 131.20 494.16 C 151.65 473.75 172.06 453.30 192.50 432.88 C 168.40 408.78 144.33 384.66 120.19 360.60 M 700.99 380.39 C 700.82 398.65 700.96 416.91 700.92 435.17 C 724.96 435.17 749.00 435.16 773.04 435.17 C 778.65 435.18 784.72 433.93 788.83 429.83 C 793.00 425.74 794.28 419.65 794.32 414.01 C 794.37 402.83 794.29 391.64 794.36 380.46 C 763.24 380.35 732.11 380.47 700.99 380.39 M 475.92 406.99 C 475.91 412.57 475.90 418.16 475.93 423.74 C 488.70 424.06 501.52 423.59 514.15 421.58 C 518.56 421.04 522.91 419.23 525.93 415.87 C 529.64 412.09 530.91 406.67 530.77 401.50 C 512.87 405.98 494.33 407.55 475.92 406.99 M 702.40 476.65 C 692.59 477.88 682.95 483.00 677.76 491.62 C 673.03 499.48 672.28 509.28 674.24 518.11 C 676.25 527.21 683.15 534.75 691.65 538.33 C 699.86 541.88 709.09 542.31 717.88 541.29 C 726.70 540.19 735.44 536.19 740.96 529.05 C 747.16 521.17 748.25 510.35 746.28 500.77 C 744.61 492.55 739.15 485.31 731.87 481.21 C 723.00 476.15 712.34 475.44 702.40 476.65 M 1006.33 481.29 C 999.22 485.56 994.13 492.90 992.60 501.04 C 990.82 510.56 991.82 521.23 997.84 529.14 C 1003.23 536.42 1012.03 540.52 1020.91 541.43 C 1031.41 542.55 1042.92 541.18 1051.39 534.36 C 1056.46 530.49 1059.45 524.52 1060.56 518.33 C 1055.19 518.18 1049.82 518.28 1044.46 518.24 C 1043.66 520.90 1042.78 523.69 1040.67 525.64 C 1035.31 530.88 1026.80 531.45 1019.95 529.26 C 1013.13 526.98 1009.05 519.98 1008.48 513.09 C 1007.70 505.83 1008.78 497.58 1014.26 492.27 C 1019.78 486.84 1028.53 486.50 1035.54 488.76 C 1039.98 490.18 1043.40 493.87 1044.50 498.40 C 1049.84 498.42 1055.19 498.43 1060.54 498.39 C 1059.65 494.47 1058.33 490.53 1055.70 487.40 C 1050.22 480.65 1041.57 477.29 1033.11 476.44 C 1024.00 475.56 1014.29 476.43 1006.33 481.29 M 475.92 477.83 C 475.93 490.87 475.88 503.90 475.94 516.94 C 475.94 523.76 477.96 531.11 483.48 535.53 C 490.05 540.76 498.83 541.71 506.94 541.77 C 514.70 541.69 523.01 541.09 529.69 536.71 C 535.77 532.65 537.98 524.96 537.99 518.00 C 538.02 504.61 537.99 491.22 538.00 477.83 C 532.64 477.83 527.28 477.83 521.92 477.83 C 521.88 491.23 521.97 504.64 521.88 518.04 C 521.87 522.30 520.26 527.24 515.92 528.88 C 510.79 530.81 504.93 530.83 499.71 529.28 C 494.93 527.83 492.02 522.92 492.12 518.08 C 492.02 504.66 492.12 491.25 492.08 477.84 C 486.69 477.83 481.30 477.83 475.92 477.83 M 558.25 477.84 C 558.25 498.58 558.26 519.32 558.24 540.07 C 563.27 540.09 568.30 540.08 573.33 540.08 C 573.34 525.29 573.32 510.49 573.34 495.70 C 584.13 510.29 594.33 525.33 604.90 540.08 C 610.26 540.08 615.63 540.08 621.00 540.08 C 621.00 519.33 621.00 498.58 621.00 477.83 C 615.97 477.83 610.94 477.83 605.92 477.83 C 605.90 492.30 605.95 506.76 605.89 521.23 C 595.50 506.86 585.42 492.27 575.14 477.83 C 569.51 477.83 563.88 477.83 558.25 477.84 M 640.31 477.88 C 640.36 498.60 640.34 519.32 640.32 540.04 C 645.68 540.11 651.05 540.08 656.41 540.08 C 656.42 519.33 656.42 498.58 656.41 477.84 C 651.04 477.84 645.67 477.79 640.31 477.88 M 764.51 540.08 C 769.55 540.06 774.59 540.17 779.63 539.96 C 779.56 525.22 779.53 510.47 779.65 495.72 C 790.36 510.36 800.61 525.32 811.14 540.08 C 816.48 540.08 821.82 540.08 827.17 540.08 C 827.17 519.33 827.17 498.58 827.17 477.84 C 822.16 477.83 817.16 477.83 812.16 477.84 C 812.13 492.31 812.23 506.78 812.11 521.25 C 801.74 506.83 791.68 492.18 781.27 477.79 C 775.69 477.87 770.12 477.83 764.54 477.81 C 764.45 498.57 764.51 519.33 764.51 540.08 M 841.24 477.86 C 841.25 481.54 841.25 485.22 841.24 488.90 C 848.96 488.93 856.68 488.91 864.41 488.92 C 864.41 505.96 864.44 522.99 864.40 540.03 C 869.80 540.11 875.20 540.12 880.61 540.02 C 880.56 522.99 880.59 505.95 880.59 488.92 C 888.31 488.91 896.03 488.92 903.75 488.91 C 903.74 485.22 903.74 481.53 903.75 477.84 C 882.91 477.85 862.07 477.79 841.24 477.86 M 918.59 477.83 C 918.58 498.58 918.58 519.33 918.59 540.08 C 938.03 540.08 957.47 540.08 976.92 540.08 C 976.91 536.39 976.91 532.69 976.92 529.01 C 962.84 528.99 948.75 529.00 934.67 529.00 C 934.66 523.61 934.66 518.22 934.67 512.84 C 947.19 512.83 959.72 512.83 972.25 512.84 C 972.25 509.25 972.25 505.66 972.25 502.08 C 959.72 502.08 947.19 502.08 934.67 502.08 C 934.66 497.69 934.66 493.30 934.67 488.92 C 948.17 488.91 961.66 488.92 975.16 488.92 C 975.16 485.22 975.16 481.53 975.17 477.83 C 956.30 477.83 937.45 477.83 918.59 477.83 M 1077.31 477.87 C 1077.34 498.58 1077.35 519.29 1077.31 540.00 C 1082.67 540.15 1088.04 540.06 1093.41 540.08 C 1093.38 530.74 1093.49 521.40 1093.35 512.06 C 1103.37 511.74 1113.39 512.00 1123.41 511.92 C 1123.41 521.29 1123.43 530.65 1123.40 540.02 C 1128.77 540.11 1134.15 540.14 1139.53 539.99 C 1139.40 519.40 1139.64 498.80 1139.41 478.21 C 1134.28 477.30 1128.68 478.04 1123.38 477.91 C 1123.45 485.66 1123.40 493.41 1123.41 501.16 C 1113.40 501.11 1103.39 501.28 1093.38 501.07 C 1093.45 493.33 1093.40 485.58 1093.41 477.84 C 1088.04 477.84 1082.68 477.80 1077.31 477.87 Z"/><path d="M843.84 335.64C844.35 342.52 843.96 349.43 844.08 356.33 841.29 356.33 838.51 356.33 835.74 356.33 838.59 349.49 841.18 342.55 843.84 335.64zM723.33 397.17C739.5 397.16 755.66 397.17 771.83 397.16 771.71 403.02 772.07 408.9 771.67 414.75 771.49 417.58 768.91 419.77 766.11 419.62 751.85 419.74 737.59 419.63 723.33 419.67 723.33 412.17 723.34 404.67 723.33 397.17zM705.43 487.64C712.3 486.51 720.2 487.62 725.24 492.84 730.73 498.34 731.71 506.79 730.65 514.16 729.81 520.43 725.83 526.36 719.9 528.83 714.18 531.17 707.59 531.23 701.75 529.33 695.89 527.37 691.46 522.11 690.16 516.13 688.8 509.81 689.05 502.85 692.07 497.03 694.68 491.97 699.84 488.51 705.43 487.64z"/></g><g id="#0037c3ff" fill="#0037c3"><path d="M229.97 272.09C266.65 265.4 305.74 273.33 336.8 293.99 313.67 317.13 290.54 340.25 267.41 363.38 264.42 366.42 261.11 369.26 259.03 373.04 255.18 379.77 255.06 388.45 258.72 395.3 260.77 399.39 264.38 402.33 267.51 405.56 301.86 439.92 336.24 474.24 370.56 508.63 348.48 536.12 316.33 555.38 281.53 561.33 239.57 568.9 194.55 557.1 162 529.48 183.27 508.37 204.37 487.09 225.61 465.96 229.5 470.02 233.55 474.35 239.09 476.05 249 479.59 260.88 475.36 266.36 466.4 272.14 457.63 270.86 445.07 263.42 437.65 224.17 398.35 184.87 359.09 145.6 319.81 167.29 295.02 197.5 277.79 229.97 272.09zM831.63 303.14C832.43 298.75 832.46 294.16 833.79 289.9 841.01 289.7 848.24 289.9 855.46 289.84 854.62 294.28 853.77 298.72 852.94 303.16 862.13 303.18 871.33 303.14 880.53 303.18 881.16 310.71 875.68 318.39 867.95 319.12 861.65 319.46 855.34 319.15 849.03 319.25 848.18 322.12 847.32 324.98 846.42 327.84 852.7 327.83 858.97 327.83 865.25 327.84 865.24 337.33 865.27 346.82 865.23 356.32 870.25 356.42 875.28 356.09 880.29 356.61 880.8 355.51 881.4 354.37 881.19 353.11 881.2 348.43 881.11 343.74 881.19 339.05 893.29 326.02 898.26 307.94 898.38 290.47 906.11 290.54 913.84 290.47 921.58 290.51 921.1 295 920.36 299.47 919.41 303.88 935.05 303.77 950.69 303.86 966.33 303.83 966.24 312.18 966.51 320.53 966.21 328.87 965.58 339.29 955.43 347.51 945.13 346.53 945.21 337.86 945.12 329.2 945.18 320.53 935.2 320.45 925.23 320.54 915.26 320.48 910.51 333.37 901.22 344.31 889.67 351.64 886.57 353.56 883.43 355.41 880.38 357.4 880.43 362.64 880.45 367.87 880.36 373.11 875.32 373.06 870.28 373.08 865.24 373.09 865.25 378.4 865.25 383.72 865.25 389.03 871.17 388.25 877.09 387.37 883 386.47 882.99 391.59 883 396.72 882.99 401.85 877.09 403.42 871.18 404.93 865.25 406.32 864.83 413.59 866.55 421.4 863.21 428.19 859.8 435.34 851.87 439.43 844.09 439.11 844.07 429.2 844.08 419.29 844.08 409.39 833.97 410.24 823.81 410.45 813.67 410.52 813.66 404.52 813.67 398.52 813.65 392.53 823.76 392.24 833.85 391.77 843.95 391.46 844.21 385.34 844.03 379.21 844.08 373.08 834.77 373.07 825.46 373.1 816.15 373.07 816.5 367.64 815.77 362.13 816.64 356.75 821.33 344.51 825.62 332.08 828.46 319.26 823.73 319.24 819 319.24 814.27 319.27 814.23 313.9 814.25 308.53 814.25 303.17 820.04 303.16 825.83 303.18 831.63 303.14M843.84 335.64C841.18 342.55 838.59 349.49 835.74 356.33 838.51 356.33 841.29 356.33 844.08 356.33 843.96 349.43 844.35 342.52 843.84 335.64zM1079.83 289.84C1087.94 289.83 1096.05 289.83 1104.17 289.84 1104.16 298.27 1104.17 306.71 1104.16 315.15 1114.94 315.18 1125.73 315.15 1136.52 315.17 1137.2 323.12 1131.55 331.15 1123.51 332.33 1117.08 332.91 1110.61 332.43 1104.17 332.59 1104.17 345.59 1104.15 358.59 1104.18 371.59 1116.39 371.58 1128.62 371.58 1140.84 371.59 1140.83 377.17 1140.83 382.75 1140.84 388.33 1128.61 388.33 1116.39 388.34 1104.17 388.33 1104.14 397.87 1104.21 407.4 1104.15 416.94 1104.53 429.72 1092.5 440.8 1079.81 439.6 1079.86 422.51 1079.82 405.42 1079.83 388.33 1064.01 388.36 1048.2 388.29 1032.39 388.36 1032.29 382.76 1032.31 377.16 1032.38 371.55 1048.19 371.63 1064.01 371.56 1079.83 371.59 1079.85 358.6 1079.8 345.6 1079.85 332.61 1074 332.57 1068.16 332.56 1062.32 332.61 1055.74 344.65 1044.13 353.04 1031.67 358.24 1031.65 353.12 1031.67 348 1031.66 342.89 1043.81 331.46 1048.17 314.27 1048.21 298.08 1055.49 298.09 1062.77 298.08 1070.05 298.08 1069.76 303.81 1069.17 309.54 1068 315.16 1071.94 315.16 1075.88 315.16 1079.83 315.16 1079.83 306.72 1079.83 298.28 1079.83 289.84zM496.54 290.49C503.89 290.51 511.24 290.49 518.58 290.51 514.14 307.3 506.89 323.42 496.48 337.37 500.18 337.29 503.88 337.16 507.58 336.82 509.57 331.57 511.48 326.29 513.12 320.92 520.04 320.92 526.95 320.89 533.87 320.94 527.45 341.89 516.84 361.67 502.01 377.88 511.01 377.56 520 376.49 528.75 374.28 528.75 379.9 528.73 385.51 528.77 391.13 512.48 394.77 495.68 395.29 479.04 395.21 479.11 389.79 479.07 384.37 479.08 378.95 486.44 371.27 493.15 362.93 498.61 353.79 491.06 354.32 483.47 354.54 475.92 354.02 475.97 349.33 475.82 344.63 475.94 339.94 475.82 338.39 476.93 337.18 477.68 335.94 487.05 322.32 493.4 306.7 496.54 290.49z"/><path d="M570.08 290.5C578.19 290.49 586.3 290.5 594.41 290.5 594.42 294.69 594.42 298.88 594.38 303.07 606.68 303.29 618.99 303.09 631.29 303.18 631.87 311.11 626.02 319.12 617.87 319.79 607.04 320.16 596.2 319.69 585.37 320.02 579.12 331.13 571.22 341.32 561.88 349.99 575.92 349.93 589.99 349.62 603.99 348.46 601.52 341.89 598.8 335.41 595.59 329.17 602.2 329.2 608.82 329.07 615.44 329.25 622.64 343 628.08 357.6 632.39 372.49 625.48 372.51 618.58 372.5 611.68 372.5 610.87 369.88 610.06 367.26 609.26 364.63 607.25 364.83 605.25 365.06 603.26 365.31 603.24 380.88 603.25 396.45 603.25 412.02 603.03 415.06 604.42 418.31 607.3 419.63 610.43 421.14 615.44 420.43 616.47 416.6 617.31 412.83 616.8 408.91 616.91 405.08 622.3 405.08 627.69 405.08 633.08 405.08 632.64 412.44 634.38 420.32 631.16 427.24 628.1 433.53 620.5 435.49 614.03 435.19 605.91 434.77 597.06 436.58 589.64 432.37 584.22 429.37 581.95 422.91 582.09 417 582.07 400.33 582.09 383.66 582.08 366.99 579.21 367.16 576.35 367.33 573.49 367.46 573.24 377.66 574.6 388.04 572 398.05 569.1 410.75 560.9 421.84 550.24 429.17 543.35 434.05 535.59 437.54 527.67 440.36 527.65 434.79 527.69 429.22 527.64 423.65 537.35 418.41 546.02 410.36 549.68 399.71 553.59 389.57 552.11 378.59 552.33 368 546.83 368 541.33 368 535.83 368 535.83 362.34 535.82 356.69 535.84 351.04 545.1 341.81 553.54 331.6 559.54 319.93 550.58 319.9 541.62 319.93 532.67 319.92 532.66 314.33 532.66 308.75 532.67 303.16 545.14 303.16 557.61 303.17 570.08 303.16 570.08 298.94 570.08 294.72 570.08 290.5zM644.17 336.97C659.4 326.45 667.23 308.34 669.78 290.5 677.53 290.51 685.29 290.47 693.05 290.52 690.72 300.21 688.23 309.94 684.01 319.01 682.9 321.58 680.85 323.96 681.15 326.93 681.2 357.3 681.14 387.67 681.18 418.03 681.31 422.66 679.96 427.34 677.11 431.02 673.05 436.58 666.09 439.32 659.33 439.08 659.34 408.24 659.32 377.4 659.34 346.57 654.44 349.06 649.35 351.14 644.17 352.95 644.16 347.62 644.16 342.3 644.17 336.97zM735.08 290.5C743.61 290.46 752.14 290.57 760.67 290.44 760.78 294.46 760.76 298.48 760.75 302.5 774.5 302.5 788.25 302.5 802 302.49 802.74 310.67 796.39 318.92 787.98 319.19 756.85 319.33 725.72 319.21 694.59 319.25 694.58 313.67 694.59 308.09 694.58 302.51 708.08 302.48 721.58 302.51 735.08 302.5 735.08 298.5 735.08 294.5 735.08 290.5zM1010.04 291.16C1018 291.17 1025.97 291.16 1033.94 291.17 1031.03 303.6 1026.74 315.69 1020.93 327.05 1020.48 357.69 1020.93 388.36 1020.7 419.01 1020.37 427.06 1014.84 434.52 1007.38 437.45 1004.31 438.77 1000.94 438.92 997.67 439.11 997.66 409.31 997.68 379.51 997.66 349.71 992.28 352.06 986.85 354.29 981.25 356.05 981.25 351.15 981.24 346.25 981.26 341.35 998.4 330.49 1006.83 310.49 1010.04 291.16zM700.88 328.56C732.03 328.42 763.19 328.53 794.34 328.51 794.33 333.86 794.32 339.21 794.35 344.55 763.22 344.64 732.1 344.54 700.97 344.6 700.87 339.26 700.95 333.91 700.88 328.56zM912.9 330.39C920.79 330.45 928.68 330.4 936.58 330.42 936.79 341.92 935.75 353.51 937.78 364.91 940.72 384.19 950.3 402.23 964.21 415.85 966.25 418.04 968.81 419.75 970.65 422.14 970.93 428.14 970.65 434.17 970.75 440.19 956.11 432.34 942.47 422.01 932.69 408.44 929.56 404.25 927.15 399.6 924.61 395.05 916.15 414.93 899.52 430.41 880.51 440.18 880.46 434.36 880.55 428.54 880.45 422.72 895.53 409.53 906.26 391.49 910.29 371.83 913.51 358.24 912.75 344.22 912.9 330.39zM700.92 353.83C732.06 353.83 763.19 353.83 794.33 353.84 794.33 359.2 794.33 364.56 794.33 369.92 763.19 369.92 732.05 369.92 700.92 369.92 700.91 364.55 700.91 359.19 700.92 353.83zM120.19 360.6C144.33 384.66 168.4 408.78 192.5 432.88 172.06 453.3 151.65 473.75 131.2 494.16 116.9 471.14 109.07 444.12 109.15 417 109.02 397.71 112.89 378.44 120.19 360.6zM700.99 380.39C732.11 380.47 763.24 380.35 794.36 380.46 794.29 391.64 794.37 402.83 794.32 414.01 794.28 419.65 793 425.74 788.83 429.83 784.72 433.93 778.65 435.18 773.04 435.17 749 435.16 724.96 435.17 700.92 435.17 700.96 416.91 700.82 398.65 700.99 380.39M723.33 397.17C723.34 404.67 723.33 412.17 723.33 419.67 737.59 419.63 751.85 419.74 766.11 419.62 768.91 419.77 771.49 417.58 771.67 414.75 772.07 408.9 771.71 403.02 771.83 397.16 755.66 397.17 739.5 397.16 723.33 397.17z"/><path d="M475.92 406.99C494.33 407.55 512.87 405.98 530.77 401.5 530.91 406.67 529.64 412.09 525.93 415.87 522.91 419.23 518.56 421.04 514.15 421.58 501.52 423.59 488.7 424.06 475.93 423.74 475.9 418.16 475.91 412.57 475.92 406.99zM702.4 476.65C712.34 475.44 723 476.15 731.87 481.21 739.15 485.31 744.61 492.55 746.28 500.77 748.25 510.35 747.16 521.17 740.96 529.05 735.44 536.19 726.7 540.19 717.88 541.29 709.09 542.31 699.86 541.88 691.65 538.33 683.15 534.75 676.25 527.21 674.24 518.11 672.28 509.28 673.03 499.48 677.76 491.62 682.95 483 692.59 477.88 702.4 476.65M705.43 487.64C699.84 488.51 694.68 491.97 692.07 497.03 689.05 502.85 688.8 509.81 690.16 516.13 691.46 522.11 695.89 527.37 701.75 529.33 707.59 531.23 714.18 531.17 719.9 528.83 725.83 526.36 729.81 520.43 730.65 514.16 731.71 506.79 730.73 498.34 725.24 492.84 720.2 487.62 712.3 486.51 705.43 487.64zM1006.33 481.29C1014.29 476.43 1024 475.56 1033.11 476.44 1041.57 477.29 1050.22 480.65 1055.7 487.4 1058.33 490.53 1059.65 494.47 1060.54 498.39 1055.19 498.43 1049.84 498.42 1044.5 498.4 1043.4 493.87 1039.98 490.18 1035.54 488.76 1028.53 486.5 1019.78 486.84 1014.26 492.27 1008.78 497.58 1007.7 505.83 1008.48 513.09 1009.05 519.98 1013.13 526.98 1019.95 529.26 1026.8 531.45 1035.31 530.88 1040.67 525.64 1042.78 523.69 1043.66 520.9 1044.46 518.24 1049.82 518.28 1055.19 518.18 1060.56 518.33 1059.45 524.52 1056.46 530.49 1051.39 534.36 1042.92 541.18 1031.41 542.55 1020.91 541.43 1012.03 540.52 1003.23 536.42 997.84 529.14 991.82 521.23 990.82 510.56 992.6 501.04 994.13 492.9 999.22 485.56 1006.33 481.29zM475.92 477.83C481.3 477.83 486.69 477.83 492.08 477.84 492.12 491.25 492.02 504.66 492.12 518.08 492.02 522.92 494.93 527.83 499.71 529.28 504.93 530.83 510.79 530.81 515.92 528.88 520.26 527.24 521.87 522.3 521.88 518.04 521.97 504.64 521.88 491.23 521.92 477.83 527.28 477.83 532.64 477.83 538 477.83 537.99 491.22 538.02 504.61 537.99 518 537.98 524.96 535.77 532.65 529.69 536.71 523.01 541.09 514.7 541.69 506.94 541.77 498.83 541.71 490.05 540.76 483.48 535.53 477.96 531.11 475.94 523.76 475.94 516.94 475.88 503.9 475.93 490.87 475.92 477.83zM558.25 477.84C563.88 477.83 569.51 477.83 575.14 477.83 585.42 492.27 595.5 506.86 605.89 521.23 605.95 506.76 605.9 492.3 605.92 477.83 610.94 477.83 615.97 477.83 621 477.83 621 498.58 621 519.33 621 540.08 615.63 540.08 610.26 540.08 604.9 540.08 594.33 525.33 584.13 510.29 573.34 495.7 573.32 510.49 573.34 525.29 573.33 540.08 568.3 540.08 563.27 540.09 558.24 540.07 558.26 519.32 558.25 498.58 558.25 477.84zM640.31 477.88C645.67 477.79 651.04 477.84 656.41 477.84 656.42 498.58 656.42 519.33 656.41 540.08 651.05 540.08 645.68 540.11 640.32 540.04 640.34 519.32 640.36 498.6 640.31 477.88zM764.51 540.08C764.51 519.33 764.45 498.57 764.54 477.81 770.12 477.83 775.69 477.87 781.27 477.79 791.68 492.18 801.74 506.83 812.11 521.25 812.23 506.78 812.13 492.31 812.16 477.84 817.16 477.83 822.16 477.83 827.17 477.84 827.17 498.58 827.17 519.33 827.17 540.08 821.82 540.08 816.48 540.08 811.14 540.08 800.61 525.32 790.36 510.36 779.65 495.72 779.53 510.47 779.56 525.22 779.63 539.96 774.59 540.17 769.55 540.06 764.51 540.08zM841.24 477.86C862.07 477.79 882.91 477.85 903.75 477.84 903.74 481.53 903.74 485.22 903.75 488.91 896.03 488.92 888.31 488.91 880.59 488.92 880.59 505.95 880.56 522.99 880.61 540.02 875.2 540.12 869.8 540.11 864.4 540.03 864.44 522.99 864.41 505.96 864.41 488.92 856.68 488.91 848.96 488.93 841.24 488.9 841.25 485.22 841.25 481.54 841.24 477.86zM918.59 477.83C937.45 477.83 956.3 477.83 975.17 477.83 975.16 481.53 975.16 485.22 975.16 488.92 961.66 488.92 948.17 488.91 934.67 488.92 934.66 493.3 934.66 497.69 934.67 502.08 947.19 502.08 959.72 502.08 972.25 502.08 972.25 505.66 972.25 509.25 972.25 512.84 959.72 512.83 947.19 512.83 934.67 512.84 934.66 518.22 934.66 523.61 934.67 529 948.75 529 962.84 528.99 976.92 529.01 976.91 532.69 976.91 536.39 976.92 540.08 957.47 540.08 938.03 540.08 918.59 540.08 918.58 519.33 918.58 498.58 918.59 477.83zM1077.31 477.87C1082.68 477.8 1088.04 477.84 1093.41 477.84 1093.4 485.58 1093.45 493.33 1093.38 501.07 1103.39 501.28 1113.4 501.11 1123.41 501.16 1123.4 493.41 1123.45 485.66 1123.38 477.91 1128.68 478.04 1134.28 477.3 1139.41 478.21 1139.64 498.8 1139.4 519.4 1139.53 539.99 1134.15 540.14 1128.77 540.11 1123.4 540.02 1123.43 530.65 1123.41 521.29 1123.41 511.92 1113.39 512 1103.37 511.74 1093.35 512.06 1093.49 521.4 1093.38 530.74 1093.41 540.08 1088.04 540.06 1082.67 540.15 1077.31 540 1077.35 519.29 1077.34 498.58 1077.31 477.87z"/></g><g id="#f49700ff"><path fill="#f49700" d="M 312.50 384.54 C 332.18 365.02 351.90 345.53 371.72 326.15 C 385.91 344.46 395.93 366.05 400.24 388.84 C 405.14 414.39 403.20 441.27 394.37 465.76 C 367.09 438.69 339.89 411.52 312.50 384.54 Z"/></g></svg>