<svg xmlns="http://www.w3.org/2000/svg" role="img" viewBox="-5.67 -5.67 295.10 188.10"><title>University of Minnesota (member) logo</title><g fill="#ffcc32"><path d="M120 15h18v8h-18zm18 0h1v8h-1zm7 0h18v8h-18zm18 0h1v8h-1zm-43 8h18v1h-18zm18 0h1v1h-1zm7 0h18v1h-18zm18 0h1v1h-1zm-40 1h12v9h-12zm12 0h1v24h-1zm12 0h13v1h-13zm13 0h1v18h-1zm-12 1h12v8h-12z"/><path d="M122 27h15v6h-15zm15 0h1v21h-1zm10 0h15v6h-15zm15 0h1v18h-1z"/><path d="M146 28h15v5h-15zm-25 1h16v4h-16z"/><path d="M120 30h18v3h-18zm18 0h1v18h-1zm7 0h18v3h-18zm18 0h1v25h-1z"/><path d="M143 31h20v2h-20zm-24 1h20v1h-20zm20 0h1v16h-1zm25 0h1v23h-1z"/><path d="M118 33h23v1h-23zm23 0h24v1h-24zm24 0h1v22h-1zm-48 1h11v2h-11zm11 0h25v1h-25z"/><path d="M153 34h13v1h-13zm13 0h1v21h-1zm-34 1h19v1h-19zm19 0h1v1h-1zm5 0h10v1h-10zm-39 1h10v2h-10zm10 0h1v1h-1zm5 0h20v1h-20zm20 0h1v1h-1zm5 0h9v2h-9z"/><path d="M115 37h10v3h-10zm18 0h17v11h-17zm17 0h1v11h-1zm17 0h1v18h-1zm1 0h1v18h-1zm-43 1h1v1h-1zm1 0h1v1h-1zm31 0h10v1h-10z"/><path d="M159 39h9v1h-9zm-45 1h10v1h-10zm10 0h1v1h-1zm8 0h19v8h-19zm19 0h2v8h-2zm2 0h1v1h-1zm6 0h10v1h-10zm10 0h1v15h-1zm-55 1h9v2h-9zm9 0h1v1h-1z"/><path d="M130 41h22v7h-22zm31 0h8v2h-8zm-48 1h9v3h-9z"/><path d="M160 42h10v1h-10zm10 0h1v13h-1zm-59 1h11v2h-11zm11 0h1v1h-1z"/><path d="M161 43h10v2h-10zm10 0h1v12h-1zm-60 2h10v10h-10zm10 0h1v10h-1z"/><path d="M161 45h12v1h-12zm12 0h1v10h-1zm-63 1h10v9h-10zm62 0h1v9h-1z"/><path d="M109 47h12v8h-12zm53 0h12v8h-12zm12 0h1v8h-1z"/><path d="M106 48h18v7h-18zm18 0h1v7h-1zm6 0h22v1h-22zm22 0h1v1h-1zm7 0h18v7h-18zm18 0h1v7h-1zm-71 7h18v1h-18zm18 0h1v1h-1zm35 0h18v1h-18zm18 0h1v1h-1zM57 150h1v1h-1zm18 0h1v1h-1zm1 0h1v1h-1zm79 1h1v1h-1zm11 0h1v1h-1zm-106 1h1v1h-1zm105 0h1v1h-1zm-106 1h1v1h-1zm64 2h1v1h-1zm1 0h1v1h-1zm34 0h1v1h-1zm8 0h1v1h-1zm39 0h1v1h-1zm22 0h1v1h-1zm3 0h1v1h-1zm-163 1h1v1h-1zm1 0h1v1h-1zm36 0h1v5h-1zm1 0h1v1h-1zm5 0h1v1h-1zm1 0h1v1h-1zm12 0h1v1h-1zm15 0h1v1h-1zm66 0h1v1h-1zm1 0h1v1h-1zm4 0h1v2h-1zm1 0h1v1h-1zm5 0h1v1h-1zm13 0h1v1h-1zm1 0h1v1h-1zm-162 1h1v1h-1zm16 0h1v1h-1zm3 0h1v1h-1zm85 0h1v1h-1zm11 0h1v1h-1zm11 0h1v1h-1zm-20 1h1v1h-1zm25 0h1v1h-1zm11 0h1v1h-1zm13 0h1v1h-1zm-163 1h1v2h-1zm26 0h1v1h-1zm121 0h1v1h-1zm9 0h1v1h-1zm-155 1h1v1h-1zm32 0h1v1h-1zm90 0h1v1h-1zm11 0h1v1h-1zm-141 1h4v1h-4zm4 0h1v1h-1zm3 0h1v1h-1zm25 0h1v1h-1zm10 0h1v1h-1zm10 0h1v1h-1zm32 0h1v1h-1zm15 0h4v1h-4zm4 0h1v1h-1zm20 0h1v1h-1zm6 0h1v1h-1zm5 0h1v1h-1zm-134 1h3v1h-3zm3 0h1v1h-1zm43 0h1v1h-1zm7 0h1v1h-1zm5 0h1v1h-1zm1 0h1v1h-1zm13 0h1v1h-1zm12 0h1v1h-1zm14 0h3v1h-3zm3 0h1v1h-1zm12 0h1v1h-1zm7 0h1v1h-1zm3 0h1v1h-1zm11 0h1v1h-1zm8 0h1v1h-1zm3 0h1v1h-1zm20 0h1v1h-1zm3 0h1v1h-1zm8 0h1v1h-1z"/></g><path d="M145 27h1v1h-1zm19 2h1v1h-1zm-11 7h1v1h-1zm-26 2h1v1h-1zm43 1h1v1h-1zm-59 3h1v1h-1zm68 5h1v9h-1zm0 9h1v1h-1zm-22 1h1v1h-1zM52 149h3v1h-3zm3 0h1v1h-1zm95 0h4v1h-4zm4 0h1v1h-1zm-94 2h1v1h-1zm17 0h1v1h-1zm163 1h1v1h-1zm1 1h1v1h-1zm-6 1h1v1h-1zm4 0h1v1h-1zm3 0h1v1h-1zm-183 1h1v1h-1zm62 0h1v1h-1zm43 0h1v7h-1zm65 0h1v1h-1zm-170 1h1v1h-1zm144 0h1v1h-1zm29 0h1v1h-1zm-38 1h1v1h-1zm44 0h1v1h-1zm-108 1h1v1h-1zm93 0h1v1h-1zm-165 1h1v1h-1zm42 0h1v1h-1zm30 0h1v1h-1zm7 0h1v1h-1zm-43 1h1v1h-1zm89 0h1v1h-1zm8 0h1v1h-1zm-64 1h1v1h-1zm47 0h1v1h-1zm3 0h1v1h-1zm-20 1h1v1h-1zm7 0h1v1h-1zm-28 1h1v1h-1zm39 0h1v1h-1zm45 0h1v1h-1z" fill="#cf8829"/><path d="M141 31h1v1h-1zm13 20h1v1h-1zm59 107h1v1h-1zm0 1h1v1h-1zm23 0h1v1h-1zm-136 1h1v1h-1zm139 0h1v1h-1z" fill="#83201b"/><path d="M129 36h1v1h-1zm25 0h1v1h-1zm84 115h1v1h-1zm2 2h1v1h-1zm-154 1h1v1h-1zm71 0h1v1h-1zm55 0h1v1h-1zm29 0h1v1h-1zm-35 1h1v1h-1zm-26 1h1v1h-1zm-54 1h1v1h-1zm9 0h1v1h-1zm61 0h1v1h-1zm7 0h1v1h-1zm-90 1h1v4h-1zm48 0h1v1h-1zm-5 1h1v1h-1zm-102 1h1v1h-1zm1 0h1v1h-1zm98 0h1v1h-1zm67 0h1v1h-1zm-40 1h1v1h-1zm-97 1h1v1h-1zm30 0h1v1h-1zm10 1h1v1h-1zm33 0h1v1h-1zm26 0h1v1h-1z" fill="#8e141c"/><path d="M169 82h1v1h-1zm-55 1h1v1h-1zm33 0h1v1h-1zm37 0h1v1h-1zm2 1h1v1h-1zm-43 2h1v1h-1zm39 0h1v9h-1zm-11 4h1v1h-1zm-17 4h1v1h-1zm28 1h1v1h-1zM82 96h1v1h-1zm-9 1h1v1h-1zm7 1h1v1h-1zm98 0h1v1h-1zm34 0h1v1h-1zm-41 1h1v1h-1zm-77 12h1v1h-1zm2 5h1v1h-1zm64 0h1v1h-1zm31 1h1v1h-1zm25 0h1v1h-1zm-68 1h1v1h-1zm6 1h1v6h-1zm73 0h1v1h-1zm-129 2h1v1h-1zm127 0h1v1h-1zm-129 3h1v1h-1zm58 1h1v1h-1zm27 0h1v1h-1zm-131 1h1v1h-1zm82 0h1v1h-1zm-68 2h1v1h-1zm37 1h1v1h-1zm90 1h1v1h-1zm-102 2h1v1h-1zm16 0h1v1h-1zm93 0h1v1h-1z" fill="#a76570"/><path d="M156 83h1v1h-1zm-35 8h1v1h-1zm-24 2h1v1h-1zm-15 2h1v1h-1zm16 3h1v1h-1zm72 0h1v1h-1zM58 116h1v1h-1zm149 1h1v1h-1zm-45 1h1v11h-1zm-25 9h1v4h-1zm55 1h1v1h-1zm-101 1h1v1h-1zm71 0h1v1h-1zm-25 2h1v1h-1zm44 1h1v1h-1z" fill="#d0b9bb"/><path d="M199 83h1v1h-1zM98 85h1v8h-1zm0 8h1v1h-1zm-9 3h1v1h-1zm2 17h1v1h-1zm14 5h1v1h-1zm120 2h1v1h-1zm-48 1h1v1h-1zm24 1h1v1h-1zm0 3h1v1h-1z" fill="#c6abad"/><g fill="#7a0019"><path d="M0 0h283v11H0zm283 0h1v176h-1zM0 11h283v1H0zm0 1h117v19H0zm117 0h1v1h-1zm24 0h1v18h-1zm1 0h1v1h-1zm24 0h117v1H166zm1 1h116v18H167zm-50 12h1v4h-1zm25 0h1v5h-1z"/><path d="M166 25h117v4H166zm-48 1h1v3h-1zm1 0h1v1h-1zm21 0h3v2h-3zm3 0h1v2h-1z"/><path d="M164 26h119v1H164zm0 1h119v1H164zm-24 1h3v1h-3zm3 0h1v1h-1zm22 0h118v1H165zm-48 1h1v1h-1zm1 0h1v1h-1zm48 0h117v2H166zm-25 1h1v1h-1zm1 0h1v1h-1zM0 31h116v1H0zm116 0h1v1h-1zm50 0h117v1H166zM0 32h115v2H0zm115 0h1v1h-1zm53 0h115v2H168zM0 34h114v1H0zm114 0h1v1h-1zm54 0h115v1H168zM0 35h113v2H0zm113 0h1v2h-1zm57 0h113v2H170zM0 37h113v1H0zm113 0h1v1h-1zm57 0h113v1H170zM0 38h111v3H0zm111 0h1v2h-1zm43 0h1v1h-1zm18 0h111v2H172zm-61 2h1v1h-1zm61 0h111v1H172zM0 41h110v1H0zm110 0h1v1h-1zm46 0h1v4h-1zm1 0h1v3h-1zm16 0h110v1H173zM0 42h109v2H0zm109 0h1v1h-1zm65 0h109v1H174zm-49 1h2v1h-2zm2 0h1v2h-1zm48 0h108v1H175zM0 44h108v1H0zm108 0h1v1h-1zm17 0h2v1h-2zm32 0h1v1h-1zm1 0h1v1h-1zm17 0h108v1H175zM0 45h103v30H0zm103 0h1v1h-1zm53 0h1v1h-1zm24 0h103v1H180zm1 1h102v34H181zm-53 5h1v29h-1zm27 0h1v29h-1zm-26 1h1v28h-1zm25 0h1v28h-1z"/><path d="M130 53h25v27h-25z"/><path d="M127 58h29v22h-29zm29 0h1v23h-1zm-53 1h1v22h-1zm1 0h1v23h-1z"/><path d="M126 59h31v21h-31zm31 0h1v22h-1zm22 0h104v21H179z"/><path d="M105 60h178v20H105z"/><path d="M0 75h283v1H0zm0 1h63v37H0zm63 0h1v1h-1zm11 0h4v1h-4zm4 0h1v1h-1zm8 0h197v1H86zm-22 1h1v1h-1zm11 0h2v19h-2zm2 0h1v19h-1zm9 0h197v1H86zm0 1h197v2H86zm-23 1h1v36h-1z"/><path d="M74 79h4v16h-4zm4 0h1v16h-1zm-14 1h1v36h-1zm1 0h1v37h-1z"/><path d="M72 80h7v14h-7zm7 0h1v14h-1zm6 0h198v1H85zm0 1h1v1h-1zm6 0h4v1h-4zm4 0h1v5h-1zm7 0h2v1h-2zm10 0h1v1h-1zm1 0h1v1h-1zm8 0h3v1h-3zm3 0h1v1h-1zm20 0h2v1h-2zm2 0h1v1h-1zm10 0h9v1h-9zm9 0h1v1h-1zm9 0h2v1h-2zm2 0h1v1h-1zm33 0h2v1h-2zm2 0h1v1h-1zm7 0h65v1h-65zM92 82h3v1h-3zm12 0h1v14h-1zm18 0h1v6h-1zm1 0h1v6h-1zm7 0h1v1h-1zm1 0h1v1h-1zm13 0h1v1h-1zm1 0h1v1h-1zm13 0h6v1h-6zm6 0h1v1h-1zm11 0h1v10h-1zm11 0h1v1h-1zm15 0h1v32h-1zm18 0h64v31h-64zM93 83h2v1h-2zm66 0h4v1h-4zm4 0h1v1h-1zm47 0h1v3h-1zM93 84h2v1h-2zm10 0h1v13h-1zm8 0h1v1h-1zm26 0h1v1h-1zm10 0h1v12h-1zm13 0h3v1h-3zm3 0h1v1h-1zm6 0h1v2h-1zm7 0h1v13h-1zm1 0h1v12h-1zm7 0h1v12h-1z"/><path d="M217 84h66v29h-66zM85 85h2v1h-2zm2 0h1v1h-1zm7 0h1v1h-1zm8 0h2v12h-2zm10 0h1v12h-1zm1 0h1v24h-1zm8 0h3v1h-3zm3 0h1v1h-1zm6 0h1v12h-1zm1 0h1v11h-1zm15 0h1v8h-1zm15 0h1v11h-1zm1 0h1v8h-1zm47 0h2v1h-2zm2 0h1v1h-1zM85 86h1v11h-1zm8 0h3v1h-3zm3 0h1v2h-1zm18 0h1v27h-1zm7 0h3v1h-3zm3 0h1v1h-1z"/><path d="M129 86h3v10h-3zm3 0h1v10h-1zm6 0h2v2h-2zm2 0h1v1h-1zm13 0h1v2h-1zm1 0h1v2h-1zm15 0h1v1h-1zm1 0h1v1h-1zm18 0h1v11h-1zm8 0h1v10h-1zm6 0h1v29h-1zm8 0h1v1h-1zm6 0h67v27h-67zm-101 1h1v26h-1zm25 0h1v1h-1zm5 0h2v5h-2zm25 0h1v1h-1zm19 0h1v9h-1zm14 0h1v29h-1z"/><path d="M215 87h68v26h-68zM96 88h1v1h-1zm26 0h1v1h-1zm1 0h1v1h-1zm15 0h1v1h-1zm1 0h1v1h-1zm5 0h3v4h-3zm9 0h1v1h-1zm1 0h1v1h-1zm17 0h1v1h-1zm14 0h1v9h-1zm12 0h1v9h-1zm3 0h3v25h-3zm-72 1h4v7h-4zm35 0h1v4h-1zm11 0h3v1h-3zm12 0h3v8h-3z"/><path d="M198 89h6v24h-6zm6 0h1v9h-1zm10 0h69v8h-69zm-98 1h1v23h-1zm44 0h3v3h-3zm14 0h3v1h-3zm32 0h1v1h-1z"/><path d="M159 91h5v2h-5zm46 0h1v8h-1zm8 0h70v5h-70zM91 92h1v4h-1zm36 0h5v4h-5zm17 0h3v1h-3z"/><path d="M158 92h5v1h-5zm17 0h2v1h-2zm-83 1h1v4h-1zm25 0h1v20h-1zm21 0h1v3h-1zm1 0h1v3h-1zm7 0h1v1h-1zm13 0h4v1h-4zm4 0h1v1h-1zm4 0h1v2h-1zm39 0h1v3h-1zM72 94h7v1h-7zm7 0h1v1h-1zm61 0h1v2h-1zm1 0h1v1h-1zm19 0h1v1h-1z"/><path d="M165 94h3v1h-3zm3 0h1v2h-1zM66 95h1v19h-1zm7 0h5v1h-5zm5 0h1v1h-1zm15 0h1v12h-1zm25 0h1v18h-1zm23 0h1v1h-1zm19 0h2v1h-2zm2 0h1v1h-1z"/><path d="M167 95h2v1h-2zm2 0h1v1h-1zm-94 1h2v1h-2zm2 0h1v1h-1zm7 0h1v59h-1zm7 0h2v1h-2zm13 0h1v1h-1zm22 0h6v1h-6zm6 0h1v1h-1zm6 0h2v1h-2zm2 0h1v1h-1zm7 0h1v1h-1zm6 0h1v1h-1zm8 0h1v1h-1zm1 0h1v1h-1zm6 0h1v1h-1zm1 0h1v1h-1zm8 0h1v1h-1zm7 0h5v1h-5zm5 0h1v3h-1zm7 0h10v1h-10zm10 0h1v1h-1zm7 0h70v1h-70zM67 97h1v16h-1zm18 0h1v1h-1zm7 0h2v1h-2zm2 0h2v11h-2zm2 0h1v15h-1zm6 0h1v19h-1zm1 0h1v1h-1zm9 0h6v1h-6zm14 0h4v16h-4zm4 0h1v1h-1zm45 0h1v19h-1zm1 0h1v1h-1zm9 0h3v1h-3zm3 0h1v1h-1zm9 0h8v1h-8zm17 0h69v1h-69zM81 98h3v54h-3zm38 0h1v15h-1z"/><path d="M125 98h4v15h-4zm29 0h1v1h-1zm32 0h1v16h-1zm1 0h2v17h-2zm17 0h1v17h-1zM68 99h1v14h-1zm106 0h1v27h-1zm15 0h1v17h-1zm16 0h1v15h-1zm-136 1h1v13h-1zm1 0h1v13h-1zm15 0h1v54h-1zm7 0h5v7h-5zm5 0h1v14h-1zm4 0h2v16h-2zm2 0h1v14h-1zm9 0h8v7h-8zm8 0h1v13h-1z"/><path d="M124 100h6v13h-6zm6 0h1v15h-1zm15 0h1v13h-1zm1 0h1v13h-1zm9 0h1v13h-1zm1 0h1v13h-1zm7 0h1v13h-1zm10 0h3v14h-3zm3 0h1v15h-1zm9 0h3v13h-3zm12 0h7v13h-7zm17 0h69v13h-69z"/><path d="M71 101h212v6H71zm0 6h212v1H71zm0 1h17v1H71zm17 0h1v1h-1zm6 0h12v1H94zm12 0h1v1h-1zm15 0h162v5H121zm-50 1h18v1H71zm18 0h1v1h-1zm6 0h10v1H95zm10 0h1v1h-1z"/><path d="M111 109h172v1H111zm-40 1h15v3H71zm15 0h1v43h-1zm12 0h6v4h-6zm6 0h1v2h-1zm-17 2h1v18h-1z"/><path d="M96 112h8v1h-8zm8 0h1v1h-1zm9 0h170v1H113zM0 113h89v1H0zm89 0h1v16h-1zm23 0h171v1H112zM0 114h53v1H0zm53 0h1v1h-1zm9 0h4v1h-4zm4 0h1v1h-1zm14 0h9v1h-9zm17 0h6v1h-6zm6 0h1v1h-1zm9 0h1v1h-1zm1 0h1v1h-1zm8 0h2v1h-2zm2 0h1v1h-1zm6 0h4v1h-4zm4 0h1v1h-1zm7 0h1v1h-1zm1 0h1v1h-1zm6 0h4v1h-4zm4 0h1v1h-1zm7 0h1v1h-1zm1 0h1v2h-1zm14 0h4v1h-4zm4 0h1v1h-1zm9 0h6v1h-6zm6 0h1v1h-1zm9 0h4v1h-4zm4 0h1v1h-1zm14 0h4v1h-4zm4 0h1v1h-1zm4 0h56v1h-56zM0 115h52v1H0zm52 0h1v1h-1zm11 0h2v1h-2zm25 0h1v14h-1zm10 0h4v1h-4zm6 0h1v1h-1zm8 0h1v14h-1zm1 0h1v1h-1zm8 0h1v1h-1zm1 0h1v15h-1zm6 0h4v1h-4zm4 0h1v3h-1zm8 0h1v1h-1zm8 0h2v1h-2zm2 0h1v2h-1zm8 0h1v1h-1zm18 0h1v1h-1zm11 0h3v1h-3zm3 0h1v1h-1zm9 0h1v1h-1zm3 0h2v1h-2zm2 0h1v1h-1zm15 0h3v1h-3zm3 0h1v1h-1zm6 0h55v1h-55zM0 116h51v1H0zm51 0h1v1h-1zm13 0h1v1h-1zm34 0h4v1h-4zm4 0h1v1h-1zm29 0h1v1h-1zm18 0h1v1h-1zm10 0h1v33h-1zm16 0h1v1h-1zm13 0h1v2h-1zm1 0h1v1h-1zm14 0h1v2h-1zm18 0h1v3h-1zm1 0h1v1h-1zm6 0h55v1h-55zM0 117h50v1H0zm50 0h1v1h-1zm15 0h1v1h-1zm1 0h1v2h-1zm33 0h2v2h-2zm2 0h1v2h-1zm22 0h1v13h-1zm10 0h1v2h-1zm8 0h1v13h-1zm7 0h3v1h-3zm3 0h1v2h-1zm76 0h56v1h-56zM0 118h49v58H0zm49 0h1v1h-1zm8 0h1v11h-1zm1 0h1v11h-1zm9 0h1v11h-1zm26 0h1v1h-1zm20 0h1v11h-1zm1 0h1v11h-1z"/><path d="M120 118h4v11h-4zm4 0h1v11h-1zm8 0h1v2h-1zm8 0h2v12h-2zm2 0h1v10h-1zm10 0h1v3h-1zm6 0h2v30h-2zm2 0h1v11h-1zm21 0h1v1h-1zm7 0h1v1h-1zm8 0h1v11h-1zm1 0h1v11h-1zm6 0h1v1h-1zm26 0h54v1h-54zm-173 1h3v9h-3zm3 0h1v9h-1zm7 0h1v1h-1zm7 0h3v2h-3zm3 0h1v1h-1zm23 0h2v1h-2zm2 0h1v1h-1zm32 0h1v1h-1zm18 0h1v1h-1zm16 0h2v1h-2zm2 0h1v1h-1zm12 0h1v1h-1zm1 0h1v1h-1z"/><path d="M195 119h3v9h-3zm3 0h1v9h-1zm10 0h1v10h-1zm7 0h1v10h-1zm6 0h1v1h-1zm9 0h53v3h-53zm-176 1h6v1h-6zm6 0h1v7h-1zm40 0h1v1h-1zm32 0h1v1h-1zm35 0h1v1h-1zm1 0h1v1h-1zm5 0h1v5h-1zm7 0h2v1h-2zm2 0h1v1h-1z"/><path d="M194 120h4v7h-4zm11 0h1v1h-1zm11 0h1v10h-1zm1 0h1v9h-1zm11 0h55v1h-55zm-173 1h5v5h-5zm18 0h2v1h-2zm2 0h1v1h-1zm5 0h9v8h-9zm20 0h1v1h-1zm52 0h1v1h-1zm31 0h1v1h-1zm1 0h1v1h-1zm23 0h1v9h-1zm-32 1h1v4h-1zm12 0h1v2h-1zm12 0h1v3h-1z"/><path d="M206 122h2v8h-2zm12 0h1v5h-1zm1 0h1v3h-1zm11 0h53v1h-53zm-84 1h1v5h-1zm30 0h1v1h-1zm55 0h52v1h-52zm-55 1h1v1h-1zm1 0h1v2h-1zm10 0h1v1h-1zm44 0h52v1h-52zm-131 1h1v1h-1zm29 0h1v4h-1zm40 0h1v3h-1zm4 0h2v1h-2zm5 0h1v1h-1zm21 0h1v1h-1zm20 0h1v1h-1zm13 0h51v2h-51zm-177 1h5v1h-5zm18 0h2v2h-2zm2 0h1v4h-1zm21 0h1v1h-1zm8 0h1v3h-1zm26 0h1v4h-1zm18 0h1v3h-1zm19 0h1v2h-1zm1 0h1v2h-1zm6 0h1v1h-1zm1 0h2v1h-2zm2 0h2v1h-2zm2 0h1v1h-1zm-125 1h6v1h-6zm6 0h1v1h-1zm16 0h1v20h-1zm3 0h10v2H79zm16 0h1v2h-1zm84 0h1v1h-1zm1 0h1v1h-1zm14 0h4v1h-4z"/><path d="M204 127h4v1h-4zm14 0h1v1h-1zm14 0h51v1h-51zm-176 1h3v1h-3zm3 0h1v1h-1zm7 0h1v2h-1zm7 0h16v1H73zm58 0h1v26h-1zm11 0h1v1h-1zm4 0h3v1h-3zm3 0h2v2h-2zm2 0h1v19h-1zm16 0h3v1h-3zm8 0h1v1h-1zm5 0h1v1h-1zm1 0h1v1h-1zm14 0h3v1h-3zm3 0h1v1h-1zm7 0h3v2h-3zm28 0h50v1h-50zm-184 1h1v19h-1zm8 0h1v1h-1zm1 0h1v1h-1zm9 0h1v1h-1zm7 0h15v1H74zm15 0h1v1h-1zm6 0h1v1h-1zm8 0h1v1h-1zm1 0h1v1h-1zm8 0h2v1h-2zm2 0h1v1h-1zm6 0h4v1h-4zm4 0h1v1h-1z"/><path d="M129 129h3v1h-3zm3 0h1v24h-1zm16 0h2v1h-2zm12 0h1v1h-1zm21 0h1v1h-1zm7 0h1v25h-1zm8 0h1v1h-1zm1 0h1v1h-1zm6 0h5v1h-5zm5 0h1v1h-1zm7 0h2v1h-2zm2 0h1v1h-1zm6 0h3v1h-3zm3 0h1v1h-1zm7 0h50v1h-50zm-183 1h1v17h-1zm15 0h1v22h-1zm1 0h1v1h-1zm9 0h12v1H75zm12 0h1v1h-1zm9 0h1v1h-1zm7 0h1v1h-1zm19 0h1v1h-1zm1 0h1v1h-1z"/><path d="M130 130h3v1h-3zm3 0h1v22h-1zm7 0h1v25h-1zm1 0h1v1h-1zm8 0h2v1h-2zm24 0h1v1h-1zm31 0h3v22h-3zm3 0h1v1h-1zm9 0h1v1h-1zm7 0h3v1h-3zm3 0h1v1h-1zm8 0h49v1h-49zm-183 1h1v16h-1zm13 0h1v22h-1zm13 0h9v17h-9zm36 0h1v1h-1zm8 0h1v1h-1zm27 0h4v1h-4zm4 0h1v16h-1zm35 0h2v22h-2zm2 0h1v24h-1z"/><path d="M203 131h3v21h-3zm21 0h1v25h-1zm1 0h1v22h-1zm10 0h48v19h-48zm-183 1h1v15h-1zm11 0h2v21h-2zm34 0h1v20h-1zm5 0h1v24h-1zm11 0h1v22h-1zm8 0h1v17h-1zm13 0h1v20h-1zm4 0h2v21h-2zm12 0h2v15h-2zm24 0h1v20h-1zm12 0h5v20h-5zm5 0h1v22h-1z"/><path d="M202 132h4v20h-4zm-149 1h1v14h-1zm1 0h1v14h-1zm8 0h4v19h-4zm4 0h1v19h-1zm9 0h12v14H75zm12 0h1v19h-1zm9 0h2v19h-2zm2 0h1v20h-1zm3 0h2v23h-2zm2 0h1v20h-1zm19 0h1v15h-1zm1 0h1v14h-1zm7 0h5v19h-5zm5 0h1v19h-1zm6 0h1v24h-1zm8 0h4v14h-4zm4 0h1v14h-1zm4 0h2v15h-2zm16 0h2v19h-2zm2 0h1v19h-1zm10 0h7v19h-7zm7 0h1v21h-1z"/><path d="M200 133h7v19h-7zm7 0h1v21h-1zm9 0h1v20h-1zm7 0h3v20h-3zm3 0h1v20h-1zm8 0h49v17h-49z"/><path d="M55 134h228v13H55zm-5 13h233v1H50zm-1 1h1v1h-1zm10 0h15v1H59zm15 0h1v1h-1zm3 0h45v1H77zm45 0h1v1h-1zm3 0h23v1h-23zm23 0h1v1h-1zm7 0h9v1h-9zm9 0h1v1h-1zm3 0h116v1H167zm-108 1h14v1H59zm14 0h1v1h-1zm5 0h43v1H78zm43 0h1v1h-1zm5 0h21v1h-21zm21 0h1v27h-1zm12 0h4v1h-4zm4 0h1v2h-1zm5 0h115v1H168zm-107 1h11v1H61zm11 0h1v4h-1zm6 0h42v2H78zm42 0h1v3h-1zm7 0h20v2h-20zm33 0h3v1h-3zm9 0h114v1H169zm-102 1h5v1h-5zm94 0h2v1h-2zm2 0h1v2h-1zm6 0h67v1h-67zm67 0h1v1h-1zm4 0h43v1h-43z"/><path d="M62 152h11v1H62zm11 0h1v2h-1zm5 0h42v1H78zm49 0h20v1h-20zm42 0h65v1h-65zm65 0h1v1h-1zm8 0h41v1h-41zm-188 1h1v1h-1zm1 0h2v5h-2zm2 0h1v4h-1zm6 0h1v1h-1zm1 0h1v1h-1zm10 0h1v1h-1zm3 0h2v1h-2zm2 0h1v1h-1zm4 0h3v1h-3zm3 0h1v1h-1zm4 0h3v1h-3zm3 0h1v1h-1zm5 0h5v1h-5zm5 0h1v1h-1zm8 0h9v1h-9zm9 0h1v1h-1zm8 0h4v1h-4zm4 0h1v1h-1zm5 0h10v1h-10zm17 0h1v5h-1zm8 0h2v1h-2zm2 0h1v1h-1zm3 0h4v1h-4zm4 0h1v1h-1zm5 0h6v1h-6zm6 0h1v1h-1zm5 0h6v1h-6zm6 0h1v1h-1zm5 0h4v1h-4zm4 0h1v1h-1zm4 0h2v1h-2zm2 0h1v1h-1zm4 0h4v1h-4zm4 0h1v1h-1zm5 0h5v1h-5zm5 0h1v1h-1zm7 0h1v1h-1zm1 0h1v1h-1zm9 0h40v1h-40zm-171 1h1v1h-1zm1 0h1v1h-1zm5 0h1v22h-1zm7 0h1v1h-1zm5 0h2v1h-2zm2 0h1v1h-1zm7 0h3v1h-3zm13 0h7v1h-7zm7 0h1v22h-1zm10 0h2v1h-2zm2 0h1v1h-1zm8 0h8v1h-8zm16 0h1v4h-1zm7 0h1v1h-1zm6 0h2v1h-2zm2 0h1v1h-1zm8 0h3v1h-3zm3 0h1v1h-1zm7 0h4v1h-4zm4 0h1v1h-1zm7 0h2v1h-2zm2 0h1v1h-1zm6 0h1v1h-1zm1 0h1v1h-1zm5 0h2v1h-2zm2 0h1v1h-1zm7 0h2v1h-2zm22 0h39v22h-39zm-186 1h1v1h-1zm26 0h1v1h-1zm7 0h1v1h-1zm23 0h5v21h-5zm15 0h1v1h-1zm1 0h1v1h-1zm10 0h7v1h-7zm16 0h1v2h-1zm13 0h1v1h-1zm9 0h1v4h-1zm1 0h1v1h-1zm10 0h1v6h-1zm1 0h1v1h-1zm10 0h1v1h-1zm13 0h1v1h-1zm-134 1h1v20h-1zm22 0h1v1h-1zm1 0h1v1h-1zm27 0h1v3h-1zm13 0h5v20h-5zm37 0h1v1h-1zm11 0h1v1h-1zm22 0h1v20h-1zm1 0h1v1h-1zm11 0h1v1h-1zm-167 1h1v1h-1zm15 0h1v19h-1zm48 0h1v19h-1zm8 0h1v3h-1z"/><path d="M141 157h6v1h-6zm15 0h1v1h-1zm1 0h1v1h-1zm31 0h1v2h-1zm45 0h1v19h-1zm-178 1h1v1h-1zm1 0h1v1h-1zm15 0h1v18h-1zm17 0h1v18h-1zm1 0h1v18h-1zm38 0h2v2h-2zm27 0h1v1h-1zm1 0h1v1h-1zm7 0h1v18h-1z"/><path d="M186 158h3v1h-3zm16 0h1v18h-1zm9 0h1v18h-1zm21 0h2v18h-2zm2 0h1v18h-1zm9 0h40v18h-40zm-189 1h1v1h-1zm16 0h2v17h-2zm10 0h1v17h-1zm1 0h1v17h-1zm9 0h1v1h-1zm18 0h1v17h-1zm21 0h1v17h-1zm6 0h1v1h-1zm34 0h1v2h-1zm9 0h1v1h-1zm10 0h1v1h-1zm8 0h1v1h-1zm7 0h1v17h-1z"/><path d="M231 159h3v17h-3zm-169 1h1v16h-1zm1 0h1v16h-1zm32 0h1v1h-1zm7 0h1v16h-1zm25 0h1v1h-1zm1 0h1v1h-1zm13 0h6v16h-6zm20 0h1v16h-1zm57 0h1v1h-1zm6 0h1v16h-1zm11 0h2v16h-2zm2 0h1v16h-1zm4 0h42v16h-42z"/><path d="M61 161h2v15h-2zm8 0h3v15h-3zm32 0h1v15h-1zm39 0h7v15h-7zm29 0h1v15h-1zm20 0h1v15h-1zm15 0h1v15h-1zm6 0h3v15h-3zm3 0h1v15h-1zm25 0h45v15h-45zm-156 1h1v14h-1zm4 0h4v14h-4zm4 0h1v14h-1zm31 0h1v14h-1zm37 0h4v14h-4zm21 0h1v14h-1zm11 0h1v14h-1zm1 0h1v14h-1z"/><path d="M201 162h4v14h-4zm4 0h1v14h-1zm18 0h1v14h-1zm-165 1h5v13h-5zm15 0h1v13h-1zm18 0h1v13h-1zm9 0h2v13h-2zm30 0h1v13h-1zm8 0h9v13h-9zm30 0h1v13h-1zm10 0h2v13h-2zm2 0h1v13h-1z"/><path d="M200 163h5v13h-5zm9 0h6v13h-6zm6 0h1v13h-1zm7 0h2v13h-2zm-173 1h1v12h-1zm15 0h1v12h-1zm4 0h5v12h-5zm15 0h10v12H83zm10 0h1v12h-1zm6 0h4v12h-4zm4 0h1v12h-1zm4 0h2v12h-2zm2 0h1v12h-1zm4 0h10v12h-10zm10 0h1v12h-1zm5 0h4v12h-4zm4 0h1v12h-1zm16 0h1v12h-1zm8 0h7v12h-7zm7 0h1v12h-1zm4 0h3v12h-3zm3 0h1v12h-1zm7 0h5v12h-5zm5 0h1v12h-1zm6 0h4v12h-4zm4 0h1v12h-1z"/><path d="M199 164h7v12h-7zm7 0h9v12h-9zm19 0h1v12h-1zm5 0h53v12h-53z"/><path d="M50 165h233v11H50zM0 176h283v1H0zm283 0h1v1h-1z"/></g><path d="M87 84h1v1h-1zm10 0h1v1h-1zm45 3h1v1h-1zm-61 2h1v3h-1zm77 1h1v1h-1zm49 1h1v1h-1zM81 92h1v1h-1zm38 1h1v1h-1zm33 23h1v1h-1zm-100 1h1v1h-1zm138 1h1v1h-1zm33 0h1v1h-1zm-120 1h1v1h-1zm73 0h1v1h-1zm-6 1h1v1h-1zm-71 3h1v1h-1zm1 3h1v1h-1zm83 3h1v1h-1zm7 0h1v1h-1zm-44 1h1v1h-1zm33 0h1v1h-1zm-112 2h1v1h-1zm109 0h1v1h-1z" fill="#913f4b"/><path d="M165 13h1v1h-1zm-47 17h1v1h-1zm8 10h1v1h-1zm32 2h1v1h-1zm16 3h1v1h-1zm-17 1h1v1h-1zm-5 107h1v6h-1zm-87 1h2v1h-2zm2 0h1v1h-1zm22 0h1v1h-1zm5 0h1v1h-1zm89 0h1v1h-1zm22 0h1v1h-1zm15 0h1v1h-1zm-32 1h1v1h-1zm-117 1h1v1h-1zm-2 1h1v1h-1zm19 0h1v1h-1zm86 0h1v1h-1zm57 0h1v1h-1zm-48 1h1v1h-1zm55 0h1v1h-1zm-105 1h1v1h-1zm19 0h1v1h-1zm-60 3h1v1h-1zm75 0h1v1h-1zm-30 1h1v1h-1zm84 0h1v1h-1zm5 0h1v1h-1z" fill="#ab4a23"/><path d="M121 24h1v1h-1zm16 0h1v2h-1zm9 0h1v2h-1zm-9 2h1v1h-1zm9 0h1v1h-1zm-15 11h1v1h-1zm21 0h1v1h-1zm17 1h1v1h-1zm-57 3h1v1h-1zm-2 3h1v1h-1zm50 0h1v1h-1zm1 2h1v1h-1zm-4 1h1v9h-1zm-27 3h22v1h-22zm22 0h1v1h-1zm5 6h1v1h-1zm-32 1h1v1h-1zm53 0h1v1h-1zm-54 93h1v1h-1zm25 0h1v11h-1zm3 1h2v1h-2zm2 0h1v1h-1zm5 1h1v1h-1zm-98 1h1v1h-1zm6 2h1v1h-1zm1 0h1v1h-1zm25 0h1v1h-1zm13 0h1v1h-1zm1 0h1v1h-1zm53 0h1v2h-1zm22 0h1v1h-1zm11 0h1v1h-1zm42 0h1v1h-1zm-143 1h1v1h-1zm92 0h1v1h-1zm54 0h1v1h-1zm-99 1h1v1h-1zm21 0h1v1h-1zm-78 1h1v1h-1zm3 0h1v1h-1zm27 0h1v4h-1zm81 0h1v1h-1zm-126 1h1v1h-1zm27 0h1v1h-1zm63 0h1v1h-1zm23 0h1v1h-1zm13 0h1v1h-1zm24 0h1v1h-1zm-134 1h1v1h-1zm56 0h1v1h-1zm75 0h1v1h-1zm-122 1h1v1h-1zm57 0h1v1h-1zm46 0h1v1h-1zm1 0h1v1h-1zm10 0h1v1h-1zm-122 1h1v1h-1zm9 0h1v1h-1zm19 0h1v1h-1zm20 0h1v1h-1z" fill="#ecae2e"/><path d="M66 78h1v1h-1zm18 0h1v1h-1zm82 5h1v1h-1zm17 0h1v1h-1zm24 0h1v1h-1zm8 1h1v1h-1zm-106 1h1v11h-1zm40 0h1v1h-1zm38 0h1v1h-1zm12 1h1v1h-1zM89 87h1v1h-1zm1 0h1v1h-1zm-8 1h1v3h-1zm60 0h1v1h-1zm69 2h1v1h-1zM82 91h1v1h-1zm0 3h1v1h-1zm27 2h1v1h-1zm-3 2h1v1h-1zm4 0h1v1h-1zm42 0h1v1h-1zm20 0h1v1h-1zm-97 1h1v1h-1zm1 0h1v1h-1zm93 0h1v1h-1zm-79 12h1v1h-1zm16 2h1v1h-1zm-49 3h1v1h-1zm22 0h1v1h-1zm26 0h1v1h-1zm88 0h1v1h-1zm25 0h1v1h-1zm-156 1h1v1h-1zm7 0h1v1h-1zm10 0h1v1h-1zm106 0h1v1h-1zm33 0h1v1h-1zm-54 1h1v4h-1zm-34 1h1v1h-1zm25 0h1v7h-1zm24 1h1v1h-1zm48 0h1v1h-1zm-150 1h1v1h-1zm70 0h1v1h-1zm54 0h2v1h-2zm2 0h1v1h-1zm-39 1h1v1h-1zm-33 2h1v1h-1zm21 0h1v1h-1zm17 0h1v1h-1zm-19 1h1v1h-1zm14 0h1v4h-1zm21 0h1v1h-1zm-30 1h1v1h-1zm46 0h1v1h-1zm-67 2h1v1h-1zm94 0h1v1h-1zm-75 1h1v1h-1zm11 0h1v1h-1zm36 0h1v1h-1zm-15 1h1v1h-1zm-131 1h2v1h-2zm2 0h1v1h-1zm59 0h1v1h-1zm4 0h1v1h-1zm36 0h1v1h-1zm27 0h1v1h-1zm13 0h1v1h-1zm37 0h1v1h-1z" fill="#d8b3bb"/><path d="M70 80h1v1h-1zm62 3h1v1h-1zm23 1h1v1h-1zm42 0h1v1h-1zm-57 7h1v1h-1zm32 0h1v1h-1zm-53 1h1v1h-1zm-46 7h1v1h-1zm116 23h1v1h-1zm39 0h1v1h-1zm-39 3h1v1h-1zm-87 1h1v1h-1zm-44 5h1v1h-1zm10 0h1v1h-1zm129 0h1v1h-1z" fill="#c08692"/><path d="M88 82h1v1h-1zm8 0h3v1h-3zm3 0h1v1h-1zm6 0h4v1h-4zm4 0h1v1h-1zm7 0h2v1h-2zm2 0h1v1h-1zm8 0h3v1h-3zm3 0h1v1h-1zm4 0h10v1h-10zm10 0h1v1h-1zm6 0h4v1h-4zm4 0h1v1h-1zm17 0h1v1h-1zm42 0h1v1h-1zm-68 2h1v1h-1zm8 0h1v1h-1zm43 0h1v1h-1zm-36 1h1v1h-1zm20 0h1v1h-1zm29 1h1v1h-1zm-44 1h1v1h-1zm-23 5h1v1h-1zm-74 1h1v1h-1zm11 4h1v1h-1zm82 0h1v1h-1zm-65 16h1v1h-1zm19 2h1v1h-1zm6 0h1v1h-1zm4 0h1v1h-1zm3 0h1v1h-1zm12 0h1v1h-1zm67 0h1v1h-1zm12 0h1v1h-1zm-3 2h1v1h-1zm-154 2h1v1h-1zm156 0h1v1h-1zm-152 2h1v1h-1zm127 2h1v1h-1zm0 1h1v1h-1zm31 0h1v1h-1zm8 4h1v1h-1zm-10 1h1v1h-1zm-11 1h1v1h-1zm7 1h1v1h-1zm5 0h1v1h-1z" fill="#8b1a33"/><path d="M89 82h1v1h-1zm65 0h1v1h-1zm29 0h1v1h-1zm19 0h1v1h-1zm5 0h1v1h-1zm6 0h1v1h-1zm3 0h1v1h-1zm-72 1h1v1h-1zm-16 2h1v1h-1zm-12 1h1v1h-1zm-23 6h1v1h-1zm4 0h1v1h-1zm-25 4h1v1h-1zm107 0h1v1h-1zm-73 1h1v1h-1zm107 2h1v1h-1zm-107 18h1v1h-1zm92 0h1v1h-1zm11 0h1v1h-1zm-2 1h1v1h-1zm-109 2h1v1h-1zm6 2h1v1h-1zm43 0h1v1h-1zm5 1h1v1h-1zm-80 7h1v1h-1z" fill="#89062b"/><path d="M114 82h1v1h-1zm26 2h1v1h-1zm14 0h1v1h-1zm33 3h1v1h-1zm-30 4h1v2h-1zm0 2h1v1h-1zm-62 2h1v1h-1zm78 3h1v1h-1zm4 0h1v1h-1zm-98 1h1v1h-1zm87 0h1v1h-1zm-78 11h1v1h-1zm0 1h1v1h-1zm-26 5h1v1h-1zm115 0h1v1h-1zm28 0h1v3h-1zm14 0h1v1h-1zm-17 1h1v1h-1zm-19 1h1v1h-1zm-129 1h1v1h-1zm77 0h1v1h-1zm74 0h1v1h-1zm-112 1h1v8h-1zm78 0h1v1h-1zm51 0h1v1h-1zm-18 2h1v1h-1zm17 1h1v1h-1zm-35 2h1v1h-1zm18 0h1v1h-1zm-126 1h1v1h-1zm111 1h1v1h-1zm-135 1h1v1h-1zm39 0h1v1h-1zm59 1h1v1h-1zm47 0h1v1h-1zm-111 2h1v1h-1zm16 0h1v1h-1zm-16 1h1v1h-1zm68 0h1v1h-1z" fill="#83212f"/><path d="M118 12h1v1h-1zm22 0h1v1h-1zm3 0h1v1h-1zm22 0h1v1h-1zm-48 1h1v1h-1zm49 0h1v11h-1zm-49 11h1v1h-1zm49 0h1v1h-1zm-48 1h1v1h-1zm22 0h1v1h-1zm3 0h1v1h-1zm22 0h1v1h-1zm-26 1h1v1h-1zm5 0h1v1h-1zm21 3h1v1h-1zm-49 3h1v1h-1zm51 0h1v1h-1zm-52 1h1v1h-1zm-1 2h1v1h-1zm55 0h1v1h-1zm-57 3h1v1h-1zm59 0h1v1h-1zm-43 1h1v11h-1zm27 0h1v11h-1zm-29 2h2v1h-2zm-16 1h1v1h-1zm16 0h2v1h-2zm47 0h1v1h-1zm-64 1h1v1h-1zm65 0h1v1h-1zm-70 2h3v1h-3zm3 0h1v1h-1zm18 0h1v1h-1zm1 0h2v1h-2zm31 0h2v1h-2zm2 0h1v1h-1zm17 0h3v1h-3zm3 0h1v1h-1zm-52 1h1v1h-1zm29 0h1v1h-1zm-28 4h1v1h-1zm27 0h1v1h-1zm-25 2h23v1h-23zm23 0h1v1h-1zm-48 7h20v1h-20zm20 0h1v1h-1zm33 0h20v1h-20zm20 0h1v1h-1zm-36 27h1v1h-1zm-85 62h1v1h-1zm1 0h1v1h-1zm17 0h1v1h-1zm1 0h1v1h-1zm47 0h1v1h-1zm1 0h1v1h-1zm41 0h1v1h-1zm1 0h1v1h-1zm-117 1h1v14h-1zm72 1h1v2h-1zm5 0h1v2h-1zm33 0h1v1h-1zm9 0h1v2h-1zm-47 2h1v1h-1zm5 0h1v1h-1zm35 0h2v1h-2zm7 0h1v1h-1zm67 0h1v1h-1zm-170 1h2v1h-2zm2 0h2v1h-2zm2 0h2v1h-2zm2 0h1v1h-1zm9 0h2v1h-2zm2 0h1v1h-1zm5 0h2v1h-2zm2 0h1v1h-1zm5 0h1v1h-1zm3 0h1v1h-1zm7 0h2v1h-2zm2 0h2v1h-2zm2 0h2v1h-2zm2 0h1v1h-1zm17 0h1v1h-1zm6 0h1v1h-1zm3 0h1v1h-1zm19 0h1v1h-1zm1 0h1v1h-1zm5 0h1v1h-1zm11 0h1v1h-1zm3 0h1v1h-1zm8 0h1v1h-1zm3 0h1v1h-1zm8 0h1v1h-1zm3 0h1v1h-1zm6 0h2v1h-2zm2 0h1v1h-1zm4 0h2v1h-2zm2 0h1v1h-1zm6 0h1v1h-1zm3 0h1v1h-1zm7 0h1v1h-1zm1 0h2v1h-2zm2 0h2v1h-2zm2 0h1v1h-1zm-169 1h1v1h-1zm65 0h1v1h-1zm25 0h1v4h-1zm3 0h1v1h-1zm7 0h1v1h-1zm43 0h1v1h-1zm19 0h1v1h-1zm-152 1h1v7h-1zm17 0h1v2h-1zm23 0h1v1h-1zm49 0h1v2h-1zm6 0h1v7h-1zm12 0h1v1h-1zm21 0h1v1h-1zm6 0h1v1h-1zm16 0h1v1h-1zm-165 1h1v1h-1zm14 0h1v1h-1zm41 0h1v1h-1zm88 0h1v1h-1zm40 0h1v1h-1zm-152 1h1v1h-1zm1 0h1v1h-1zm12 0h1v2h-1zm60 0h1v1h-1zm15 0h1v1h-1zm25 0h1v1h-1zm22 0h1v1h-1zm10 0h1v1h-1zm-177 1h1v1h-1zm6 0h1v1h-1zm7 0h1v1h-1zm10 0h1v1h-1zm28 0h1v1h-1zm27 0h1v1h-1zm6 0h1v1h-1zm12 0h1v1h-1zm16 0h1v1h-1zm16 0h1v1h-1zm11 0h1v1h-1zm35 0h1v1h-1zm-176 1h1v1h-1zm8 0h1v1h-1zm6 0h1v1h-1zm33 0h1v1h-1zm19 0h1v2h-1zm5 0h1v1h-1zm8 0h1v1h-1zm7 0h1v1h-1zm13 0h1v1h-1zm7 0h1v1h-1zm23 0h3v1h-3zm3 0h1v1h-1zm43 0h1v4h-1zm5 0h1v1h-1zm-166 1h1v1h-1zm101 0h1v1h-1zm14 0h1v1h-1zm4 0h1v1h-1zm22 0h1v1h-1zm-128 1h1v1h-1zm5 0h1v1h-1zm3 0h1v1h-1zm31 0h1v1h-1zm39 0h1v1h-1zm19 0h1v1h-1zm11 0h1v1h-1zm11 0h1v1h-1zm22 0h1v1h-1zm-163 1h1v1h-1zm13 0h1v1h-1zm57 0h1v1h-1zm38 0h1v1h-1zm10 0h1v1h-1zm-129 1h1v1h-1zm43 0h1v1h-1zm30 0h1v1h-1zm9 0h1v1h-1zm17 0h1v1h-1zm15 0h1v1h-1zm7 0h1v1h-1zm7 0h1v1h-1zm4 0h1v1h-1zm7 0h1v1h-1zm4 0h1v1h-1zm33 0h1v1h-1zm5 0h1v1h-1zm-180 1h1v1h-1zm6 0h1v1h-1zm1 0h1v1h-1zm8 0h2v1h-2zm2 0h1v1h-1zm7 0h1v1h-1zm3 0h1v1h-1zm29 0h1v1h-1zm6 0h1v1h-1zm15 0h1v1h-1zm6 0h1v1h-1zm4 0h1v1h-1zm12 0h1v1h-1zm6 0h1v1h-1zm9 0h1v1h-1zm7 0h1v1h-1zm5 0h1v1h-1zm11 0h1v1h-1zm6 0h1v1h-1zm5 0h1v1h-1zm18 0h1v1h-1zm5 0h1v1h-1zm5 0h1v1h-1zm3 0h1v1h-1z" fill="#750018"/><path d="M165 84h1v1h-1zm-77 1h1v1h-1zm125 0h1v1h-1zM88 86h1v1h-1zm61 0h1v9h-1zm24 1h1v1h-1zm-81 3h1v1h-1zm77 2h1v1h-1zm-70 1h1v1h-1zm-4 1h1v1h-1zm25 0h1v1h-1zm29 1h1v1h-1zm-61 1h1v1h-1zm35 1h1v1h-1zm41 0h1v1h-1zm9 0h1v1h-1zm-83 1h1v1h-1zm9 0h1v1h-1zm49 0h1v1h-1zm20 1h1v1h-1zm-76 18h1v10h-1zm12 1h1v1h-1zm22 0h1v9h-1zm92 0h1v1h-1zm-28 1h1v1h-1zm33 1h1v1h-1zm-127 3h1v1h-1zm37 0h1v1h-1zm56 0h1v1h-1zm0 1h1v1h-1zm-97 3h1v1h-1zm8 0h1v1h-1zm26 0h1v1h-1zm64 1h1v1h-1zm-62 3h1v1h-1zm33 0h1v1h-1zm53 0h1v1h-1zm7 0h1v1h-1zm7 0h1v1h-1z" fill="#cfa1ab"/><path d="M72 78h1v1h-1zm-2 3h1v10h-1zm16 2h1v1h-1zm15 0h1v1h-1zm4 0h1v1h-1zm107 0h1v1h-1zm-30 2h1v1h-1zm16 0h1v1h-1zm-39 1h1v1h-1zm-89 5h1v1h-1zm67 0h2v1h-2zm2 0h1v1h-1zm43 5h1v1h-1zm-13 2h1v1h-1zm21 0h1v1h-1zM87 99h3v1h-3zm3 0h1v1h-1zm16 0h4v1h-4zm4 0h1v1h-1zm23 0h7v1h-7zm7 0h1v1h-1zm3 0h1v1h-1zm5 0h4v1h-4zm4 0h1v1h-1zm7 0h1v1h-1zm1 0h1v1h-1zm5 0h1v1h-1zm14 0h4v1h-4zm4 0h1v1h-1zm7 0h5v1h-5zm5 0h1v1h-1zm12 0h5v1h-5zm5 0h1v1h-1zM89 110h1v1h-1zm-32 5h1v1h-1zm1 0h1v1h-1zm139 0h1v1h-1zm-102 6h1v1h-1zm54 3h1v1h-1zm71 3h1v1h-1zm-47 1h1v1h-1zm-119 1h1v1h-1zm40 2h1v1h-1zm11 0h1v1h-1zm76 0h1v1h-1z" fill="#b67381"/><path d="M96 83h1v1h-1zm112 0h1v1h-1zm-19 1h1v1h-1zm-44 11h1v1h-1zm20 0h1v1h-1zm6 0h1v1h-1zm0 1h1v1h-1zm-85 2h1v1h-1zm19 0h1v1h-1zm48 0h1v1h-1zm-48 1h1v1h-1zm42 0h1v1h-1zm6 0h1v1h-1zm11 0h1v1h-1zm42 0h1v1h-1zM56 115h1v1h-1zm86 1h1v1h-1zm66 1h1v1h-1zm-76 4h1v1h-1zm-70 1h1v1h-1zm115 0h1v1h-1zm44 2h1v1h-1zm-159 1h1v1h-1zm31 5h1v1h-1zm27 1h1v1h-1zm4 0h1v1h-1zm23 0h1v1h-1zm-33 1h1v1h-1zm95 0h1v1h-1zm6 0h1v1h-1z" fill="#a24f5f"/><path d="M119 12h20v1h-20zm20 0h1v1h-1zm5 0h20v1h-20zm20 0h1v1h-1zm-45 13h1v1h-1zm1 0h1v1h-1zm18 0h1v1h-1zm1 0h1v1h-1zm5 0h1v1h-1zm1 0h1v1h-1zm18 0h1v1h-1zm1 0h1v1h-1zm-35 12h1v1h-1zm24 1h1v1h-1zm21 6h1v1h-1zm-66 1h1v1h-1zm67 0h1v1h-1zm-48 2h1v9h-1zm29 0h1v10h-1zm-29 9h1v1h-1zm29 1h1v1h-1zm-8 93h1v12h-1zm-27 3h1v1h-1zm5 0h1v1h-1zm108 1h1v2h-1zm-162 1h1v1h-1zm13 0h1v1h-1zm43 0h1v1h-1zm35 0h1v6h-1zm-35 1h1v1h-1zm29 0h1v1h-1zm77 0h1v1h-1zm-125 2h1v4h-1zm70 0h1v2h-1zm51 0h1v1h-1zm-75 1h1v1h-1zm-29 1h1v1h-1zm8 0h1v1h-1zm1 0h1v1h-1zm44 0h1v1h-1zm6 0h1v1h-1zm11 0h1v1h-1zm-68 1h1v1h-1zm35 0h1v1h-1zm-54 1h1v1h-1zm39 0h1v1h-1zm9 1h1v1h-1zm-62 1h2v1h-2zm2 0h1v1h-1zm28 0h1v1h-1zm1 0h1v1h-1zm8 0h1v1h-1zm1 0h1v1h-1zm38 0h1v1h-1zm1 0h1v1h-1zm10 0h1v1h-1zm1 0h1v1h-1zm10 0h1v1h-1zm1 0h1v1h-1zm22 0h2v1h-2zm2 0h1v1h-1z" fill="#700017"/><path d="M119 15h1v8h-1zm20 0h1v8h-1zm5 0h1v8h-1zm20 0h1v7h-1zm0 7h1v1h-1zm-45 1h1v1h-1zm20 0h1v1h-1zm5 0h1v1h-1zm17 3h1v1h-1zm-41 3h1v1h-1zm43 0h1v1h-1zm-44 1h1v1h-1zm20 0h1v1h-1zm5 0h1v1h-1zm20 0h1v1h-1zm-24 2h1v1h-1zm-26 7h1v1h-1zm55 0h1v1h-1zm-39 1h1v1h-1zm1 0h1v1h-1zm27 0h1v1h-1zm-34 1h1v1h-1zm-12 1h1v1h-1zm59 0h1v1h-1zm-48 1h1v1h-1zm37 0h1v1h-1zm12 1h1v1h-1zm-66 3h2v1h-2zm2 0h1v1h-1zm15 0h1v1h-1zm1 0h1v1h-1zm35 0h1v1h-1zm1 0h1v1h-1zm15 0h2v1h-2zm2 0h1v1h-1zm1 1h1v8h-1zm-73 8h1v1h-1zm20 0h1v1h-1zm33 0h1v1h-1zm20 0h1v1h-1zM53 150h3v1h-3zm3 0h1v1h-1zm94 0h2v1h-2zm2 0h3v1h-3zm3 0h1v1h-1zm-104 1h1v10h-1zm6 0h1v1h-1zm1 0h1v1h-1zm17 0h1v1h-1zm1 0h1v1h-1zm80 0h1v1h-1zm1 0h1v1h-1zm-105 1h1v8h-1zm72 0h1v1h-1zm0 1h1v1h-1zm-63 2h1v3h-1zm48 0h1v1h-1zm1 0h1v1h-1zm15 0h1v1h-1zm8 0h1v1h-1zm39 0h1v3h-1zm-97 1h1v5h-1zm1 0h1v5h-1zm6 0h1v1h-1zm100 0h1v1h-1zm11 0h1v1h-1zm-111 1h1v1h-1zm11 0h1v1h-1zm6 0h1v1h-1zm25 0h1v3h-1zm14 0h1v1h-1zm54 0h1v3h-1zm6 0h1v1h-1zm17 0h1v1h-1zm6 0h1v1h-1zm-160 1h1v1h-1zm5 0h1v3h-1zm17 0h1v1h-1zm16 0h1v1h-1zm33 0h1v1h-1zm40 0h1v1h-1zm49 0h1v1h-1zm-161 1h1v1h-1zm71 0h1v1h-1zm1 0h1v2h-1zm7 0h1v1h-1zm34 0h2v1h-2zm2 0h1v1h-1zm39 0h1v1h-1zm14 0h1v2h-1zm-176 1h1v1h-1zm33 0h1v1h-1zm8 0h1v1h-1zm31 0h1v1h-1zm52 0h1v1h-1zm16 0h1v1h-1zm6 0h1v1h-1zm1 0h1v1h-1zm-148 1h1v1h-1zm15 0h1v1h-1zm9 0h1v1h-1zm1 0h1v1h-1zm9 0h1v1h-1zm20 0h1v1h-1zm27 0h1v1h-1zm6 0h1v1h-1zm38 0h1v1h-1zm31 0h1v1h-1zm8 0h1v1h-1zm13 0h1v1h-1zm-55 1h1v1h-1zm1 0h1v1h-1zm45 0h1v1h-1z" fill="#ffd233"/><path d="M113 38h1v1h-1zm16 12h1v1h-1zm25 0h1v1h-1zm4 100h1v1h-1zm-74 7h1v1h-1zm146 0h1v1h-1zm-53 5h1v1h-1zm31 0h1v1h-1z" fill="#a65621"/><path d="M65 77h1v1h-1zm14 0h1v1h-1zm6 0h1v1h-1zm87 5h1v1h-1zm-15 1h1v1h-1zm-42 1h1v1h-1zm18 0h1v1h-1zm8 0h1v1h-1zm55 0h1v1h-1zm-77 1h1v1h-1zm25 0h1v1h-1zm20 1h1v1h-1zm48 0h1v1h-1zm-95 2h1v1h-1zm39 0h1v1h-1zm-32 2h1v1h-1zm-57 2h1v1h-1zm107 3h1v1h-1zm-30 4h1v1h-1zm52 0h1v1h-1zm-84 11h1v1h-1zm39 12h1v1h-1zm-89 1h1v1h-1zm16 0h1v2h-1zm100 0h1v1h-1zm-116 1h1v1h-1zm164 0h1v1h-1zm-148 1h1v1h-1zm114 0h1v1h-1zm-10 1h1v1h-1zm48 0h1v1h-1zm-11 3h1v1h-1zm-167 1h1v1h-1zm3 0h1v1h-1zm55 0h1v1h-1zm19 1h1v1h-1zm31 0h1v1h-1zm-65 1h1v1h-1zm47 0h1v1h-1zm30 0h1v1h-1zm7 0h1v1h-1zm48 0h1v1h-1z" fill="#963046"/><path d="M83 81h1v11h-1zm0 11h1v1h-1zm61 26h1v1h-1zm79 1h1v1h-1zm-124 5h1v1h-1zm125 1h1v1h-1zm1 0h1v1h-1zm-49 5h1v1h-1z" fill="#a8787c"/><path d="M98 83h1v1h-1zm1 0h1v1h-1zm8 0h2v1h-2zm2 0h1v1h-1zm7 0h2v1h-2zm2 0h1v1h-1zm16 0h2v1h-2zm2 0h1v1h-1zm6 0h1v1h-1zm7 0h3v1h-3zm3 0h3v1h-3zm3 0h1v1h-1zm12 0h1v1h-1zm3 0h2v1h-2zm2 0h1v2h-1zm8 0h2v1h-2zm2 0h1v1h-1zm6 0h1v1h-1zm4 0h2v1h-2zm2 0h1v1h-1zm3 0h1v1h-1zm1 0h1v1h-1zm5 0h2v1h-2zm2 0h1v1h-1zm9 0h1v1h-1zm1 0h1v1h-1zM99 84h1v1h-1zm50 0h1v1h-1zm38 0h1v1h-1zm-60 1h1v1h-1zm8 0h1v1h-1zm31 0h1v1h-1zm6 0h1v1h-1zm8 0h1v12h-1zm26 0h1v1h-1zm-89 1h1v1h-1zm49 0h1v1h-1zm-47 1h1v1h-1zm7 1h1v1h-1zm39 0h2v1h-2zm2 0h1v1h-1zm45 0h1v1h-1zM92 89h1v1h-1zm43 0h1v1h-1zm33 0h1v1h-1zm39 0h1v1h-1zm-87 1h1v1h-1zm16 0h1v1h-1zm73 0h1v1h-1zM95 91h1v1h-1zm24 0h1v1h-1zm34 0h1v1h-1zm-29 1h1v1h-1zm0 1h1v1h-1zm47 0h2v1h-2zm2 0h1v1h-1zm-76 1h1v1h-1zm1 0h1v1h-1zm74 1h1v1h-1zm-14 1h1v1h-1zm14 0h1v1h-1zM70 97h1v1h-1zm87 0h1v1h-1zm23 0h1v1h-1zm12 0h1v1h-1zM78 98h1v1h-1zm116 0h1v1h-1zm14 0h1v1h-1zM95 115h1v1h-1zm-39 1h1v1h-1zm3 0h1v1h-1zm123 0h2v1h-2zm2 0h1v1h-1zm-90 1h1v1h-1zm34 0h1v1h-1zm19 1h1v2h-1zm31 0h1v1h-1zm14 0h1v1h-1zm14 0h1v1h-1zm-61 1h1v1h-1zm56 0h1v1h-1zm1 0h1v1h-1zm-55 1h1v1h-1zm-16 1h1v1h-1zm95 0h1v1h-1zm-162 1h1v4h-1zm86 0h1v1h-1zm31 0h1v2h-1zm-109 1h1v1h-1zm98 1h1v1h-1zm11 0h1v1h-1zm41 0h1v1h-1zm5 0h1v1h-1zm-125 1h1v1h-1zm32 0h1v1h-1zm18 0h1v2h-1zm51 0h1v1h-1zm19 0h1v1h-1zm5 0h1v1h-1zm-163 1h1v1h-1zm69 0h1v1h-1zm52 0h1v1h-1zm-87 1h1v1h-1zm3 0h1v1h-1zm35 0h1v1h-1zm16 0h2v1h-2zm2 0h1v1h-1zm30 0h1v1h-1zm37 0h1v1h-1zm-159 1h1v1h-1zm139 0h1v1h-1zm1 0h1v1h-1zm-25 1h1v1h-1zm15 0h1v1h-1zm38 0h1v1h-1zm-130 1h1v1h-1zm92 0h1v1h-1zm-123 1h1v1h-1zm24 0h1v1h-1zm17 0h1v1h-1zm6 0h1v1h-1zm11 0h1v1h-1zm35 0h1v1h-1zm3 0h1v1h-1zm4 0h1v1h-1zm10 0h1v1h-1zm20 0h1v1h-1zm20 0h1v1h-1z" fill="#f5eff0"/><path d="M119 13h20v1h-20zm20 0h1v1h-1zm5 0h20v1h-20zm20 0h1v1h-1zm-45 11h1v1h-1zm1 0h1v1h-1zm18 0h1v1h-1zm1 0h1v1h-1zm5 0h1v1h-1zm1 0h1v1h-1zm17 0h2v1h-2zm2 0h1v1h-1zm-52 133h1v1h-1zm13 6h1v1h-1z" fill="#e3ac2d"/><path d="M173 43h1v1h-1zm-69 15h1v1h-1zm133 95h1v1h-1zm-160 1h1v1h-1zm21 0h1v1h-1zm63 0h1v1h-1zm6 0h1v1h-1zm62 0h1v1h-1zm-117 1h1v1h-1zm-21 1h1v1h-1zm43 1h1v1h-1zm51 0h1v1h-1zm10 0h1v1h-1zm12 0h1v1h-1zm32 1h1v1h-1zm-152 1h1v1h-1zm114 0h1v1h-1zm-103 1h1v1h-1zm56 0h1v1h-1zm33 0h1v1h-1zm-28 1h1v1h-1zm-31 1h1v1h-1zm-71 1h1v1h-1zm136 0h1v1h-1zm5 0h1v1h-1z" fill="#972a1f"/><path d="M65 76h1v1h-1zm14 0h1v1h-1zm6 0h1v1h-1zm-7 1h1v1h-1zm9 4h1v1h-1zm1 0h1v1h-1zm9 0h3v1h-3zm3 0h1v1h-1zm6 0h4v1h-4zm4 0h1v1h-1zm5 0h4v1h-4zm4 0h1v1h-1zm7 0h2v1h-2zm2 0h1v1h-1zm5 0h9v1h-9zm9 0h1v1h-1zm6 0h5v1h-5zm5 0h1v1h-1zm17 0h1v1h-1zm-80 1h1v1h-1zm86 1h1v1h-1zm-75 1h1v1h-1zm44 0h1v2h-1zm23 0h1v1h-1zm34 0h1v1h-1zm-101 1h1v1h-1zm53 0h1v1h-1zm6 0h1v1h-1zm-45 1h1v1h-1zm30 0h1v1h-1zm58 0h1v1h-1zm6 0h1v1h-1zm-88 1h1v1h-1zm23 0h1v1h-1zm19 0h1v1h-1zm8 0h1v1h-1zm14 0h1v1h-1zm15 0h1v1h-1zm-14 1h1v1h-1zm28 0h1v1h-1zM91 91h1v1h-1zm77 2h1v1h-1zm7 1h1v1h-1zm-81 1h1v1h-1zm31 0h1v1h-1zm-58 1h1v1h-1zm15 1h1v1h-1zm102 0h1v1h-1zm-10 1h1v1h-1zm11 0h1v1h-1zM80 99h1v1h-1zm44 0h1v1h-1zm21 0h1v1h-1zm28 0h1v1h-1zm-82 1h1v1h-1zm7 0h1v1h-1zm25 0h1v1h-1zm21 0h1v1h-1zm22 0h1v1h-1zm18 0h1v1h-1zm12 0h1v1h-1zm-83 10h1v1h-1zm0 1h1v1h-1zm-1 1h1v1h-1zm-8 1h1v1h-1zm-36 1h10v1H68zm10 0h1v1h-1zm37 0h4v1h-4zm4 0h1v1h-1zm6 0h2v1h-2zm2 0h1v1h-1zm8 0h3v1h-3zm3 0h1v1h-1zm5 0h2v1h-2zm2 0h1v1h-1zm9 0h2v1h-2zm2 0h1v1h-1zm5 0h10v1h-10zm10 0h1v1h-1zm23 0h1v1h-1zm12 0h11v1h-11zm11 0h1v1h-1zm-164 1h1v1h-1zm9 0h1v1h-1zm85 0h1v1h-1zm46 0h1v1h-1zm-35 1h1v1h-1zm18 0h1v1h-1zm26 0h1v1h-1zm-138 1h1v1h-1zm8 0h1v1h-1zm132 0h1v1h-1zm19 0h1v1h-1zm-173 1h1v1h-1zm119 0h1v1h-1zm4 0h2v1h-2zm2 0h1v2h-1zm14 0h1v1h-1zm-134 1h1v1h-1zm80 0h1v1h-1zm22 0h1v12h-1zm30 0h1v1h-1zm-138 1h1v1h-1zm27 0h1v1h-1zm99 0h1v1h-1zm12 0h1v1h-1zm20 0h1v1h-1zm-141 1h1v1h-1zm115 0h1v1h-1zm25 0h1v1h-1zm-101 1h1v1h-1zm29 0h1v1h-1zm12 0h1v1h-1zm38 0h1v1h-1zm9 0h1v1h-1zm12 0h1v3h-1zm16 0h1v1h-1zm-127 1h1v1h-1zm41 0h1v1h-1zm70 2h1v1h-1zm-139 1h1v1h-1zm83 0h1v1h-1zm51 0h1v1h-1zm20 0h1v1h-1zm-171 1h1v1h-1zm125 0h1v1h-1zm14 0h1v1h-1zm-133 1h1v1h-1zm5 0h1v1h-1zm36 0h1v1h-1zm6 0h1v1h-1zm91 0h1v1h-1zm39 0h1v2h-1zm-138 1h1v1h-1zm128 0h1v1h-1zm-158 1h1v1h-1zm65 0h1v1h-1zm74 0h1v1h-1zm12 0h1v1h-1zm12 0h1v1h-1zm5 0h1v1h-1zm-179 1h1v1h-1zm13 0h1v1h-1zm57 0h1v1h-1zm7 0h1v1h-1zm11 0h1v1h-1zm16 0h1v1h-1zm16 0h1v1h-1zm29 0h1v1h-1zm24 0h1v1h-1zm8 0h1v1h-1zm-168 1h1v1h-1zm30 0h1v1h-1zm27 0h1v1h-1zm7 0h1v1h-1zm5 0h1v1h-1zm6 0h1v1h-1zm34 0h1v1h-1zm51 0h1v1h-1zm-166 1h1v1h-1zm7 0h1v1h-1zm28 0h1v1h-1zm17 0h1v1h-1zm17 0h1v1h-1zm13 0h1v1h-1zm18 0h1v1h-1zm12 0h1v1h-1zm55 0h1v1h-1z" fill="#780013"/><path d="M73 77h1v1h-1zm0 1h1v1h-1zm104 4h5v1h-5zm5 0h1v1h-1zm5 0h12v1h-12zm12 0h1v1h-1zm4 0h3v1h-3zm3 0h1v1h-1zm8 0h1v1h-1zm1 0h1v1h-1zm-84 1h1v1h-1zm-12 1h1v1h-1zm88 0h1v1h-1zm-107 2h1v12h-1zm79 0h1v9h-1zm25 0h1v1h-1zm-79 1h1v1h-1zm44 1h1v1h-1zm36 0h1v1h-1zm8 0h1v1h-1zm-92 1h1v1h-1zm34 0h1v1h-1zm4 0h1v1h-1zm-67 2h1v1h-1zm76 1h1v1h-1zm-85 3h1v1h-1zm96 0h1v1h-1zm-24 1h1v1h-1zm-55 2h1v1h-1zm31 0h1v1h-1zm31 0h1v1h-1zm51 0h1v1h-1zm-82 1h1v1h-1zm41 16h1v1h-1zm-51 1h1v1h-1zm-28 1h1v1h-1zm22 0h1v1h-1zm54 0h1v1h-1zm13 0h1v1h-1zm11 2h1v1h-1zm-47 2h1v1h-1zm79 1h1v1h-1zm-164 6h1v1h-1zm45 1h1v1h-1zm40 0h1v1h-1zm53 3h1v1h-1z" fill="#840022"/><path d="M66 79h1v1h-1zm14 0h1v1h-1zm-9 1h1v13h-1zm13 0h1v1h-1zm0 1h1v1h-1zm71 1h1v1h-1zm11 0h1v1h-1zm-75 1h1v1h-1zm74 0h1v1h-1zm20 0h1v1h-1zm-26 1h1v1h-1zm15 0h1v1h-1zm-77 1h1v5h-1zm28 0h1v1h-1zm12 0h1v3h-1zm33 0h1v1h-1zm4 0h1v2h-1zm9 0h1v1h-1zm12 0h2v1h-2zm2 0h1v1h-1zm11 0h1v1h-1zm7 0h1v1h-1zm-95 1h1v1h-1zm47 0h1v1h-1zm33 0h1v1h-1zm-57 1h1v1h-1zm13 0h1v1h-1zm4 0h1v1h-1zm8 0h1v1h-1zm6 0h1v1h-1zm30 0h1v1h-1zm7 0h1v1h-1zm3 0h1v1h-1zm-93 1h1v1h-1zm3 0h1v1h-1zm3 0h1v1h-1zm10 0h1v1h-1zm4 0h1v1h-1zm23 0h1v1h-1zm-69 1h2v1h-2zm22 0h1v1h-1zm7 0h1v1h-1zm16 0h1v1h-1zm24 0h1v1h-1zm7 0h1v1h-1zm42 0h1v1h-1zM97 90h1v1h-1zm25 0h1v1h-1zm-32 1h1v6h-1zm36 0h1v1h-1zm47 0h1v1h-1zm-50 1h1v1h-1zm17 0h1v1h-1zm67 0h1v4h-1zM71 93h1v1h-1zm22 0h1v1h-1zm44 0h1v3h-1zm6 0h1v1h-1zm26 0h1v1h-1zm5 0h1v1h-1zM67 94h1v1h-1zm27 0h1v1h-1zm48 0h1v2h-1zm11 0h1v1h-1zm5 0h1v1h-1zm-91 1h1v1h-1zm87 0h1v1h-1zm5 0h1v1h-1zm4 0h1v3h-1zm-90 1h1v1h-1zm6 0h1v1h-1zm58 0h1v1h-1zm5 0h1v1h-1zm18 0h1v1h-1zm6 0h1v1h-1zm17 0h1v1h-1zm24 0h1v1h-1zM90 97h1v1h-1zm20 0h1v1h-1zm23 0h1v1h-1zm8 0h1v1h-1zm26 0h3v1h-3zm3 0h1v1h-1zm4 0h1v1h-1zm4 0h1v1h-1zm12 0h1v1h-1zm22 0h1v1h-1zm-67 1h1v1h-1zm11 0h1v1h-1zm7 0h1v1h-1zm-90 2h1v1h-1zm1 0h1v1h-1zm3 0h1v1h-1zm32 0h1v1h-1zm32 0h1v1h-1zm1 0h1v1h-1zm17 0h1v1h-1zm9 0h2v1h-2zm2 0h1v1h-1zm10 0h1v1h-1zm1 0h1v1h-1zm-86 11h1v1h-1zm-6 1h1v1h-1zm16 0h1v1h-1zm6 0h1v1h-1zm-21 1h1v16h-1zm90 1h1v1h-1zm1 0h1v1h-1zm15 0h1v1h-1zm-100 1h1v1h-1zm27 1h1v1h-1zm-67 1h1v1h-1zm41 0h1v1h-1zm17 0h1v1h-1zm5 0h1v1h-1zm1 0h1v1h-1zm4 0h1v1h-1zm1 0h1v1h-1zm14 0h1v1h-1zm14 0h1v1h-1zm27 0h1v1h-1zm15 0h1v1h-1zm15 0h1v12h-1zm-150 1h1v1h-1zm8 0h1v11h-1zm9 0h1v1h-1zm66 0h1v1h-1zm10 0h1v1h-1zm8 0h1v1h-1zm33 0h1v1h-1zm14 0h2v1h-2zm-110 1h1v1h-1zm8 0h1v9h-1zm108 0h1v10h-1zm-149 1h1v1h-1zm29 0h1v1h-1zm31 0h1v7h-1zm25 0h1v1h-1zm43 0h1v1h-1zm-132 1h1v1h-1zm44 0h1v1h-1zm64 0h1v1h-1zm-120 1h1v3h-1zm50 0h1v1h-1zm89 0h1v3h-1zm12 0h1v3h-1zm29 0h1v1h-1zm-128 1h1v1h-1zm27 0h1v6h-1zm1 0h1v1h-1zm5 0h1v1h-1zm19 0h1v1h-1zm24 0h1v1h-1zm47 0h1v1h-1zm5 0h1v1h-1zm-129 1h1v1h-1zm1 0h1v1h-1zm34 0h1v1h-1zm44 0h1v1h-1zm45 0h1v1h-1zm1 0h1v1h-1zm-176 1h1v1h-1zm27 0h1v1h-1zm27 0h1v1h-1zm65 0h1v1h-1zm20 0h1v1h-1zm12 0h1v1h-1zm20 0h1v1h-1zm10 0h1v1h-1zm-169 1h1v1h-1zm42 0h1v1h-1zm28 0h1v1h-1zm50 0h1v1h-1zm-116 1h1v1h-1zm60 0h1v1h-1zm7 0h1v1h-1zm61 0h1v1h-1zm26 0h1v1h-1zm12 0h1v1h-1zm-166 1h1v1h-1zm41 0h1v1h-1zm27 0h1v1h-1zm38 0h1v1h-1zm28 0h1v1h-1zm-144 1h1v1h-1zm13 0h1v1h-1zm22 0h1v1h-1zm7 0h1v1h-1zm13 0h1v1h-1zm18 0h1v1h-1zm33 0h1v1h-1zm14 0h1v1h-1zm4 0h1v1h-1zm15 0h1v1h-1zm16 0h1v1h-1zm4 0h1v1h-1zm-155 1h1v1h-1zm35 0h1v1h-1zm11 0h1v1h-1zm6 0h1v1h-1zm54 0h3v1h-3zm3 0h1v1h-1zm7 0h1v1h-1zm5 0h2v1h-2zm2 0h1v1h-1zm13 0h2v1h-2zm2 0h1v1h-1zm31 0h1v1h-1zm-75 1h1v1h-1zm38 0h1v1h-1zm10 0h1v1h-1zm-140 1h1v1h-1zm132 0h1v1h-1zm7 0h1v1h-1zm-144 1h3v1h-3zm3 0h1v1h-1zm121 0h2v1h-2zm2 0h1v1h-1zm13 0h2v1h-2zm2 0h1v1h-1z" fill="#740000"/><path d="M68 80h1v1h-1zm14 0h1v1h-1zm5 3h2v1h-2zm2 0h1v1h-1zm37 0h2v1h-2zm2 0h1v1h-1zm5 0h1v1h-1zm46 0h1v1h-1zm27 0h1v1h-1zM88 84h2v1h-2zm2 0h1v1h-1zm26 0h1v1h-1zm35 0h1v6h-1zm20 0h1v1h-1zm35 0h1v1h-1zM93 88h1v1h-1zm49 1h1v1h-1zm69 0h1v1h-1zm-74 1h3v1h-3zm3 0h1v1h-1zm11 0h1v7h-1zm-55 2h1v1h-1zm46 0h1v1h-1zm13 2h1v1h-1zm9 1h1v1h-1zm-67 1h1v1h-1zm26 0h1v1h-1zm-43 1h1v1h-1zm71 0h1v1h-1zm59 0h1v1h-1zM74 98h1v1h-1zm3 0h1v1h-1zm64 0h1v1h-1zm-34 13h1v1h-1zm2 2h1v1h-1zm-2 1h1v1h-1zm-47 2h1v1h-1zm55 0h1v1h-1zm4 0h1v1h-1zm6 0h1v1h-1zm13 0h1v1h-1zm61 0h1v1h-1zm-73 1h1v1h-1zm66 0h1v1h-1zm1 0h1v1h-1zm18 0h1v13h-1zm-115 1h1v1h-1zm50 1h1v1h-1zm79 0h1v1h-1zm-161 2h1v1h-1zm33 0h1v1h-1zm94 0h1v1h-1zm-61 1h1v1h-1zm18 0h1v1h-1zm30 0h1v1h-1zm25 0h1v1h-1zm-52 1h1v1h-1zm14 0h2v1h-2zm2 0h1v1h-1zm-116 3h1v1h-1zm48 0h1v1h-1zm92 0h1v1h-1zm-56 3h1v1h-1zm37 0h1v1h-1zm19 0h1v1h-1zm-138 1h1v1h-1zm158 0h1v1h-1zm-34 1h1v1h-1z" fill="#ebe1e2"/><path d="M172 86h1v1h-1zm-84 1h1v8h-1zm38 2h1v1h-1zm-38 6h1v1h-1zm94 2h1v1h-1zm-90 18h1v1h-1zm0 1h1v1h-1zm35 4h1v1h-1zm-25 3h1v1h-1zm52 3h1v1h-1zm67 2h1v1h-1zm-8 1h1v1h-1zm-70 2h1v1h-1zm37 0h1v1h-1zm38 0h1v1h-1zm-21 1h1v1h-1z" fill="#cd9ca6"/><path d="M121 26h1v1h-1zm23 3h1v1h-1zm-29 7h1v1h-1zm40 0h1v1h-1zm3 5h1v1h-1zm13 0h1v1h-1zm-48 3h1v1h-1zm-1 2h1v1h-1zm31 4h1v1h-1zm-48 7h19v1h-19zm19 0h1v1h-1zm34 0h19v1h-19zm19 0h1v1h-1zM58 150h1v1h-1zm65 0h1v1h-1zm113 3h1v1h-1zm-76 1h1v1h-1zm-89 1h1v1h-1zm100 0h1v1h-1zm38 0h1v1h-1zm12 0h1v1h-1zm-95 1h1v1h-1zm8 0h1v1h-1zm1 0h1v1h-1zm40 0h1v1h-1zm10 0h1v1h-1zm10 0h1v1h-1zm1 0h1v1h-1zm26 0h1v1h-1zm13 0h1v1h-1zm-102 1h1v1h-1zm81 0h1v1h-1zm-155 1h1v1h-1zm38 0h1v1h-1zm3 0h1v1h-1zm60 0h1v1h-1zm20 0h1v1h-1zm40 0h1v1h-1zm-125 1h4v1h-4zm4 0h1v1h-1zm119 0h2v1h-2zm2 0h2v1h-2zm2 0h1v1h-1zm-155 1h1v2h-1zm59 1h1v2h-1zm5 0h1v1h-1zm4 0h1v2h-1zm83 0h1v1h-1zm-160 1h1v1h-1zm9 0h1v1h-1zm82 0h1v1h-1zm-53 1h1v1h-1zm30 0h1v1h-1zm9 0h1v1h-1zm39 0h1v1h-1zm45 0h1v1h-1z" fill="#e7a82e"/><path d="M66 77h5v1h-5zm5 0h1v1h-1zm9 0h2v1h-2zm2 0h2v1h-2zm2 0h1v1h-1zm-19 1h1v1h-1zm14 0h1v1h-1zm107 5h1v1h-1zm27 1h1v1h-1zm1 2h1v1h-1zm-87 1h1v1h-1zm26 3h1v1h-1zm-57 1h1v1h-1zm0 5h1v1h-1zm63 0h1v1h-1zm-48 2h1v1h-1zm50 0h1v1h-1zm-83 1h1v1h-1zm8 0h1v1h-1zm36 0h1v1h-1zm39 0h1v1h-1zm-27 17h1v1h-1zm-29 3h1v1h-1zm84 2h1v1h-1zm3 0h1v1h-1zm-127 1h1v1h-1zm8 2h1v1h-1zm1 0h1v1h-1zm92 0h1v1h-1zm1 0h1v1h-1zm-102 1h1v1h-1zm124 1h1v1h-1zm3 0h1v1h-1zm-19 3h1v1h-1zm-100 2h1v1h-1zm136 0h1v1h-1zm-140 1h2v1h-2zm2 0h2v1h-2zm2 0h1v1h-1zm18 0h2v1h-2zm2 0h1v1h-1zm13 0h4v1h-4zm4 0h1v1h-1zm6 0h2v1h-2zm2 0h2v1h-2zm2 0h1v1h-1zm4 0h3v1h-3zm3 0h1v1h-1zm17 0h1v1h-1zm1 0h1v1h-1zm10 0h1v1h-1zm7 0h9v1h-9zm9 0h1v1h-1zm40 0h2v1h-2zm2 0h1v1h-1zm5 0h2v1h-2zm2 0h1v1h-1zm9 0h2v1h-2zm2 0h1v1h-1z" fill="#a35262"/><g fill="#fff"><path d="M68 78h2v1h-2zm2 0h1v1h-1zm12 0h1v1h-1zm1 0h1v1h-1zm-14 1h1v15h-1zm13 0h1v1h-1zm26 5h1v14h-1zm9 0h1v1h-1zm1 0h1v4h-1zm9 0h1v1h-1zm7 0h1v1h-1zm1 0h1v1h-1zm15 0h1v14h-1zm7 0h1v5h-1zm9 0h1v1h-1zm15 0h1v14h-1zm12 0h1v14h-1zm5 0h1v1h-1zm6 0h1v1h-1zm1 0h1v1h-1zm9 0h1v1h-1zM89 85h1v1h-1zm1 0h1v1h-1zm44 0h1v1h-1zm31 0h1v2h-1zm40 0h1v1h-1zM91 86h1v1h-1zm115 0h1v1h-1zm7 0h1v1h-1zM91 87h1v1h-1zm35 0h1v1h-1zm39 0h1v1h-1zm41 0h1v1h-1zM92 88h1v1h-1zm26 0h1v1h-1zm89 0h1v1h-1zM93 89h1v1h-1zm26 0h1v1h-1zm38 0h1v1h-1zm9 0h1v1h-1zm1 0h1v1h-1zm41 0h1v1h-1zM93 90h1v1h-1zm1 0h1v1h-1zm25 0h1v1h-1zm6 0h1v1h-1zm10 0h1v1h-1zm21 0h1v1h-1zm52 0h1v1h-1zM94 91h1v1h-1zm26 0h1v1h-1zm34 0h1v1h-1zm15 0h1v1h-1zm1 0h1v1h-1zm39 0h1v7h-1zM95 92h1v1h-1zm25 0h1v1h-1zm34 0h1v1h-1zm17 0h1v1h-1zm1 0h1v1h-1zm-77 1h1v1h-1zm1 0h1v1h-1zm25 0h1v1h-1zm34 0h1v1h-1zm-86 1h1v1h-1zm27 0h1v1h-1zm25 0h1v1h-1zm35 0h1v1h-1zm17 0h1v2h-1zM70 95h1v1h-1zm27 0h1v1h-1zm1 0h1v1h-1zm24 0h1v2h-1zm1 0h1v1h-1zm33 0h1v1h-1zm1 0h1v1h-1zm-87 1h1v1h-1zm28 0h1v1h-1zm36 0h1v2h-1zm23 0h1v1h-1zm16 0h1v1h-1zM71 97h1v1h-1zm51 0h1v1h-1zm36 0h1v1h-1zm7 0h1v1h-1zm7 0h1v1h-1zM72 98h1v1h-1zm16 0h1v1h-1zm19 0h2v1h-2zm2 0h1v1h-1zm25 0h1v1h-1zm1 0h1v1h-1zm8 0h1v1h-1zm6 0h2v1h-2zm2 0h1v1h-1zm7 0h1v1h-1zm1 0h1v1h-1zm6 0h1v1h-1zm6 0h1v1h-1zm9 0h1v1h-1zm1 0h1v1h-1zm11 0h1v1h-1zm1 0h1v1h-1zm16 0h1v1h-1zm1 0h1v1h-1zM92 111h1v2h-1zm1 0h1v2h-1zm15 0h1v19h-1zm1 0h1v1h-1z"/><path d="M107 112h2v1h-2zm2 0h1v1h-1zm-17 1h2v1h-2zm2 0h1v3h-1zm13 0h1v1h-1zm-38 3h2v1h-2zm2 0h1v1h-1zm7 0h1v1h-1zm16 0h1v1h-1zm22 0h2v1h-2zm2 0h1v1h-1zm8 0h1v1h-1zm1 0h1v2h-1zm9 0h1v1h-1zm1 0h1v1h-1zm7 0h1v1h-1zm1 0h1v2h-1zm9 0h2v1h-2zm2 0h1v1h-1zm6 0h2v1h-2zm2 0h1v1h-1zm6 0h1v1h-1zm1 0h1v1h-1zm35 0h1v1h-1zm1 0h1v1h-1zm4 0h2v1h-2zm2 0h1v1h-1zm3 0h1v1h-1zm1 0h1v1h-1zm-156 1h1v1h-1zm9 0h1v13h-1zm25 0h1v2h-1zm22 0h1v13h-1zm29 0h1v1h-1zm9 0h1v1h-1zm8 0h1v13h-1zm15 0h1v1h-1zm6 0h1v1h-1zm22 0h1v1h-1zm6 0h1v13h-1zm13 0h1v1h-1zm-172 1h1v1h-1zm74 0h1v1h-1zm1 0h1v1h-1zm17 0h1v1h-1zm1 0h1v1h-1zm55 0h1v1h-1zm24 0h1v1h-1zm-162 1h1v9h-1zm32 0h1v1h-1zm34 0h1v1h-1zm62 0h1v1h-1zm35 0h1v1h-1zm-174 1h1v2h-1zm44 0h1v1h-1zm33 0h1v1h-1zm19 0h1v1h-1zm30 0h1v1h-1zm24 0h1v7h-1zm24 0h1v1h-1zm-130 1h1v1h-1zm34 0h1v1h-1zm18 0h1v1h-1zm1 0h1v1h-1zm29 0h1v1h-1zm12 0h1v6h-1zm37 0h1v2h-1zm-175 1h1v1h-1zm45 0h1v2h-1zm6 0h1v1h-1zm28 0h1v1h-1zm18 0h1v1h-1zm30 0h1v1h-1zm1 0h1v1h-1zm-129 1h1v1h-1zm25 0h1v1h-1zm1 0h1v1h-1zm55 0h1v1h-1zm18 0h1v1h-1zm30 0h2v1h-2zm2 0h1v1h-1zm21 0h1v1h-1zm24 0h1v1h-1zm-176 1h1v1h-1zm26 0h1v1h-1zm20 0h1v1h-1zm35 0h1v1h-1zm1 0h1v1h-1zm17 0h1v1h-1zm1 0h1v1h-1zm31 0h1v1h-1zm1 0h1v1h-1zm20 0h1v1h-1zm25 0h1v2h-1zm-176 1h1v3h-1zm46 0h1v1h-1zm35 0h1v1h-1zm18 0h1v1h-1zm32 0h1v1h-1zm1 0h1v1h-1zm-86 1h1v1h-1zm36 0h1v1h-1zm50 0h1v1h-1zm44 0h1v1h-1zm-129 1h1v2h-1zm35 0h1v1h-1zm51 0h1v1h-1zm5 0h1v1h-1zm12 0h1v1h-1zm27 0h1v4h-1zm-177 1h1v1h-1zm11 0h1v1h-1zm72 0h1v1h-1zm1 0h1v2h-1zm18 0h1v1h-1zm31 0h1v1h-1zm6 0h1v1h-1zm-138 1h1v1h-1zm9 0h1v1h-1zm37 0h1v1h-1zm1 0h1v1h-1zm54 0h1v1h-1zm47 0h1v1h-1zm19 0h1v2h-1zm-166 1h1v1h-1zm16 0h1v1h-1zm22 0h1v1h-1zm16 0h1v1h-1zm9 0h1v1h-1zm19 0h1v1h-1zm27 0h1v1h-1zm9 0h1v1h-1zm5 0h1v1h-1zm7 0h1v1h-1zm16 0h1v1h-1zm12 0h1v1h-1zm18 0h1v1h-1zm-139 1h1v1h-1zm16 0h1v1h-1zm37 0h1v1h-1zm1 0h1v1h-1zm25 0h1v1h-1zm1 0h1v1h-1zm12 0h1v1h-1zm37 0h1v1h-1zm9 0h1v1h-1z"/></g><path d="M85 78h1v1h-1zm35 5h1v1h-1zm53 0h1v1h-1zm-47 1h1v1h-1zm32 0h1v1h-1zm-32 1h1v1h-1zm81 0h1v1h-1zm-20 1h1v1h-1zm-28 2h1v1h-1zm-41 2h1v1h-1zm55 2h1v1h-1zm-79 1h1v1h-1zm29 0h1v1h-1zm21 2h1v1h-1zm-2 2h1v1h-1zm-10 1h1v1h-1zm25 0h1v1h-1zm-46 1h1v1h-1zm21 0h1v1h-1zm26 0h1v1h-1zm9 0h1v1h-1zm11 0h1v1h-1zm17 16h1v1h-1zm-102 1h1v1h-1zm79 0h1v2h-1zm-16 1h1v1h-1zm38 0h1v1h-1zm-22 1h1v1h-1zm-108 1h1v1h-1zm121 1h1v1h-1zm-110 4h1v1h-1zm59 0h1v1h-1zm31 0h1v1h-1zm3 0h1v1h-1zm61 0h1v1h-1zm-128 1h1v1h-1zm75 2h1v1h-1zm-87 4h1v1h-1zm22 0h1v1h-1zm-43 1h1v1h-1zm22 0h1v1h-1zm4 0h1v1h-1zm17 0h1v1h-1zm4 0h1v1h-1zm13 0h1v1h-1zm15 0h1v1h-1zm3 0h1v1h-1zm15 0h1v1h-1zm16 0h1v1h-1zm6 0h1v1h-1zm27 0h1v1h-1zm4 0h1v1h-1zm7 0h1v1h-1zm7 0h1v1h-1zm4 0h1v1h-1z" fill="#ad5f6f"/><path d="M194 84h1v1h-1zm-73 13h1v1h-1zm3 19h1v1h-1zm78 2h1v1h-1zm-151 1h1v1h-1zm85 0h1v5h-1zm56 1h1v1h-1zm-142 3h1v1h-1zm80 0h1v1h-1zm93 0h1v1h-1zm-173 1h1v1h-1zm86 0h1v1h-1zm50 3h1v1h-1zm6 0h1v1h-1zm-40 1h1v1h-1zm34 0h1v1h-1zm-42 1h1v1h-1zm32 0h1v1h-1z" fill="#b6898f"/><path d="M165 30h1v1h-1zm2 3h1v1h-1zm-14 4h1v1h-1zm-43 6h1v1h-1zm129 110h1v1h-1zm-118 1h1v1h-1zm16 0h1v1h-1zm65 0h1v1h-1zm34 0h1v1h-1zm-128 3h1v1h-1zm76 0h1v1h-1zm-93 4h1v1h-1zm40 1h1v1h-1zm36 1h1v1h-1zm4 0h1v1h-1zm16 0h1v1h-1zm29 0h1v1h-1zm13 0h1v1h-1z" fill="#9c321f"/><path d="M165 24h1v1h-1zm-37 13h1v1h-1zm-24 9h1v1h-1zm22 0h1v1h-1zm53 0h1v1h-1zm-12 106h1v1h-1zm71 1h1v1h-1zm-176 1h1v1h-1zm44 0h1v1h-1zm27 0h1v1h-1zm31 0h1v1h-1zm11 3h1v1h-1zm-18 1h1v1h-1zm26 1h1v1h-1zm-12 1h1v1h-1zm50 0h1v1h-1zm-33 1h1v1h-1zm34 0h1v1h-1zm-41 1h1v1h-1z" fill="#a33d21"/><path d="M138 26h1v1h-1zm-22 7h1v1h-1zm14 4h1v1h-1zm0 14h23v1h-23zm23 0h1v1h-1zm-30 98h1v1h-1zm32 3h1v1h-1zm54 2h1v1h-1zm-48 1h1v2h-1zm20 0h1v1h-1zm-101 1h1v1h-1zm81 1h1v1h-1zm-80 1h1v1h-1zm59 0h1v1h-1zm54 0h1v1h-1zm-126 1h1v1h-1zm72 0h1v1h-1zm54 0h1v1h-1zm-58 1h1v1h-1zm-77 2h1v1h-1zm41 0h1v1h-1zm-50 1h1v1h-1z" fill="#983f1f"/><path d="M64 78h1v1h-1zm120 4h1v1h-1zm24 0h1v1h-1zm9 0h1v1h-1zm-87 1h1v1h-1zm-20 1h1v1h-1zm28 0h1v1h-1zm1 0h1v1h-1zm14 0h1v1h-1zm63 0h1v1h-1zm-116 1h1v1h-1zm42 0h1v1h-1zm46 0h1v1h-1zM87 86h1v11h-1zm111 1h1v1h-1zm14 3h1v1h-1zm-94 1h1v1h-1zm46 2h1v1h-1zm-45 1h1v1h-1zm6 0h1v1h-1zm19 0h1v1h-1zm1 0h1v1h-1zm-65 1h1v1h-1zm63 0h1v1h-1zm-56 2h1v1h-1zm37 0h1v1h-1zm-27 1h1v1h-1zm7 0h1v1h-1zm-33 1h1v1h-1zm29 0h1v1h-1zm4 0h1v1h-1zm17 0h1v1h-1zm33 0h1v1h-1zm8 0h1v1h-1zm10 0h1v1h-1zm-78 11h1v1h-1zm12 0h1v1h-1zm-16 2h1v1h-1zm-35 3h1v1h-1zm5 0h1v1h-1zm7 0h1v1h-1zm12 0h1v1h-1zm55 0h1v1h-1zm8 0h1v1h-1zm4 0h1v1h-1zm6 0h1v1h-1zm8 0h1v1h-1zm64 0h2v1h-2zm2 0h1v1h-1zm-113 1h1v1h-1zm27 0h1v1h-1zm61 0h1v1h-1zm-138 1h1v1h-1zm72 0h1v1h-1zm51 0h1v1h-1zm-83 1h1v1h-1zm-10 1h1v1h-1zm-15 1h1v1h-1zm111 0h1v1h-1zm30 0h1v1h-1zm-34 1h1v1h-1zm1 0h1v1h-1zm18 0h1v1h-1zm-71 1h1v1h-1zm-38 1h1v1h-1zm89 0h1v1h-1zm20 3h1v1h-1zm-29 1h1v1h-1zm-32 3h1v1h-1zm43 0h1v1h-1zm16 0h1v1h-1zm-128 1h1v1h-1zm27 0h1v1h-1zm107 0h1v1h-1zm-134 1h1v1h-1zm74 0h1v1h-1zm60 0h1v1h-1z" fill="#7f1626"/><path d="M71 78h1v1h-1zm136 8h1v1h-1zm-87 3h1v1h-1zm2 5h1v1h-1zm-26 1h1v1h-1zm68 1h1v1h-1zm-57 1h1v1h-1zm37 0h1v1h-1zm15 0h1v1h-1zm-83 1h1v1h-1zm62 0h1v1h-1zm1 0h1v1h-1zm21 0h1v1h-1zm31 0h1v1h-1zm-10 18h1v1h-1zm-65 2h1v11h-1zm-52 2h1v1h-1zm165 5h1v1h-1zm-128 1h1v1h-1zm82 0h1v1h-1zm-119 1h1v1h-1zm52 2h1v1h-1zm-25 1h1v1h-1zm36 0h1v1h-1zm66 1h1v1h-1z" fill="#decbcd"/><path d="M143 14h1v9h-1zm0 9h1v1h-1zm-26 9h1v1h-1zm24 0h1v1h-1zm18 11h1v1h-1zm-55 14h1v1h-1zm-51 95h1v1h-1zm17 2h1v1h-1zm26 0h1v1h-1zm13 0h1v1h-1zm26 0h1v1h-1zm38 0h1v1h-1zm23 0h1v1h-1zm22 0h1v1h-1zm22 0h1v1h-1zm-154 1h1v1h-1zm120 1h1v1h-1zm33 0h1v1h-1zm-145 1h1v1h-1zm6 0h1v1h-1zm91 0h1v1h-1zm6 0h1v1h-1zm45 0h1v1h-1zm-158 1h1v1h-1zm145 0h1v1h-1zm-49 2h1v1h-1zm-7 1h1v1h-1zm-88 1h1v1h-1zm53 0h1v1h-1zm-34 1h1v1h-1zm6 0h1v1h-1zm40 0h1v1h-1zm47 0h1v1h-1zm20 0h1v1h-1z" fill="#ce8029"/><path d="M80 78h1v1h-1zm122 5h1v1h-1zm-74 1h1v1h-1zm-29 1h1v1h-1zm0 1h1v6h-1zm20 0h1v1h-1zm54 0h1v1h-1zm-56 1h1v1h-1zm96 0h1v1h-1zm-44 2h1v1h-1zm40 0h1v1h-1zm-73 2h1v1h-1zm-54 1h1v1h-1zm17 0h1v1h-1zm-17 1h1v1h-1zm42 1h1v1h-1zm33 0h1v1h-1zm-8 2h1v1h-1zm-70 1h1v1h-1zm92 0h1v1h-1zm-97 2h1v1h-1zm96 0h1v1h-1zm-64 16h1v1h-1zm51 1h1v1h-1zm21 0h1v1h-1zm7 0h1v1h-1zm11 0h1v1h-1zm-52 1h1v1h-1zm39 0h1v1h-1zm16 0h2v1h-2zm2 0h1v1h-1zm-140 1h2v1h-2zm2 0h1v1h-1zm108 0h1v1h-1zm14 1h1v1h-1zm21 0h1v1h-1zm18 1h1v1h-1zm-41 3h1v1h-1zm-107 1h1v1h-1zm104 0h1v1h-1zm-81 1h1v1h-1zm71 0h1v1h-1zm51 0h1v1h-1zm9 2h1v1h-1zm-138 1h1v1h-1zm34 0h1v1h-1zm51 0h1v1h-1zm-108 2h1v1h-1zm75 0h1v1h-1zm57 0h1v1h-1zm-140 1h1v1h-1zm-4 1h1v1h-1zm1 0h1v1h-1zm124 0h1v1h-1zm14 0h1v1h-1z" fill="#d3adb4"/><path d="M186 87h1v1h-1zm-16 2h1v1h-1zm41 3h1v4h-1zm-86 1h1v1h-1zm-5 3h1v1h-1zm91 0h1v1h-1zM98 99h1v1h-1zm25 0h1v1h-1zm-11 12h1v1h-1zm-2 1h1v1h-1zm74 3h1v1h-1zm43 3h1v1h-1zm-71 1h1v12h-1zm30 0h1v1h-1zm0 1h1v1h-1zm20 0h1v1h-1zm-111 2h1v1h-1zm90 2h1v1h-1zm-89 1h1v1h-1zm127 2h3v1h-3zm3 0h1v1h-1zm-43 1h1v1h-1zm-82 2h1v1h-1zm55 1h1v1h-1z" fill="#8b3842"/><path fill="#620000" d="M72 122h1v1h-1z"/><path d="M119 29h1v1h-1zm20 0h1v1h-1zm3 3h1v1h-1zm25 2h1v1h-1zm-37 2h1v1h-1zm26 2h1v1h-1zm-43 1h1v1h-1zm13 8h1v9h-1zm-22 1h1v8h-1zm0 8h1v1h-1zm22 0h1v1h-1zm-75 93h1v1h-1zm113 1h1v1h-1zm-90 1h1v1h-1zm93 0h1v1h-1zm-11 1h1v1h-1zm81 0h1v1h-1zm-77 1h1v1h-1zm-38 1h1v1h-1zm3 0h1v1h-1zm-45 1h1v1h-1zm-15 1h1v2h-1zm47 0h1v1h-1zm15 0h1v1h-1zm46 0h1v1h-1zm69 0h1v1h-1zm-183 1h1v1h-1zm9 0h1v1h-1zm115 0h1v1h-1zm17 0h1v1h-1zm8 0h1v1h-1zm12 0h1v1h-1zm-155 1h1v2h-1zm22 0h1v1h-1zm4 0h1v1h-1zm15 0h1v4h-1zm31 0h1v1h-1zm-46 1h1v1h-1zm118 0h1v1h-1zm-144 1h1v2h-1zm21 0h1v1h-1zm91 0h1v1h-1zm31 1h1v1h-1zm11 0h1v1h-1zm-154 1h1v1h-1zm41 0h1v1h-1zm17 0h1v1h-1zm-26 1h1v1h-1z" fill="#de992c"/><path d="M208 92h1v4h-1zm0 4h1v1h-1zM93 110h1v1h-1zm17 0h1v1h-1zm-4 2h1v1h-1zm71 5h1v1h-1zm-80 2h1v1h-1zm-46 9h1v1h-1zm47 1h1v1h-1z" fill="#be989c"/><path d="M68 81h1v11h-1zm119 2h1v1h-1zm26 0h1v1h-1zm-106 1h1v1h-1zm85 0h1v12h-1zm7 1h1v1h-1zm15 0h1v1h-1zM91 88h1v1h-1zm117 0h1v1h-1zm-83 1h1v1h-1zm17 1h1v1h-1zm13 0h1v1h-1zm15 0h1v1h-1zm-77 1h1v1h-1zm49 0h1v1h-1zm-74 1h1v1h-1zm53 0h1v1h-1zm35 1h1v1h-1zm-87 3h1v1h-1zm123 0h1v1h-1zM88 97h1v1h-1zm21 0h1v1h-1zm34 0h1v1h-1zm-68 1h1v1h-1zm62 0h1v1h-1zm3 0h1v1h-1zm27 0h1v1h-1zm12 0h1v1h-1zm-44 18h1v1h-1zm8 0h1v1h-1zm18 0h1v1h-1zm19 0h1v1h-1zm15 0h1v1h-1zm-117 1h1v1h-1zm38 0h1v1h-1zm21 0h1v1h-1zm80 0h1v1h-1zm-88 1h1v1h-1zm62 0h1v1h-1zm35 0h1v1h-1zm-173 1h1v1h-1zm51 0h1v1h-1zm23 0h1v1h-1zm21 0h1v1h-1zm76 0h1v1h-1zm-120 1h1v1h-1zm-53 1h1v1h-1zm140 1h1v3h-1zm32 0h1v1h-1zm3 0h1v1h-1zm-47 1h1v1h-1zm3 2h1v1h-1zm9 0h1v1h-1zm-38 1h1v1h-1zm-100 2h1v1h-1zm167 0h1v1h-1zm10 0h1v1h-1zm-168 2h1v1h-1zm37 0h1v1h-1zm8 0h1v1h-1zm9 0h1v1h-1zm29 0h1v1h-1zm9 0h1v1h-1zm39 0h1v1h-1zm5 1h1v1h-1z" fill="#e8d8da"/><path d="M138 27h1v1h-1zm-24 10h1v1h-1zm17 1h1v1h-1zM56 149h1v1h-1zm18 6h1v1h-1zm7 2h1v1h-1zm89 0h1v1h-1zm-88 2h1v1h-1zm78 0h1v1h-1zm-69 1h1v1h-1zm-8 1h1v1h-1zm-32 2h1v1h-1zm24 0h1v1h-1zm1 0h1v1h-1zm29 0h1v1h-1zm6 0h1v1h-1zm13 0h1v1h-1zm62 0h1v1h-1zm42 0h1v1h-1z" fill="#c68327"/><path d="M144 27h1v1h-1zm27 12h1v1h-1zm-68 8h1v10h-1zm77 0h1v9h-1zm0 9h1v1h-1zm-77 1h1v1h-1zm-52 91h4v1h-4zm4 0h1v1h-1zm94 0h4v1h-4zm4 0h1v1h-1zm-76 1h1v1h-1zm80 0h1v1h-1zm-97 1h1v1h-1zm1 1h1v1h-1zm12 0h1v1h-1zm166 0h1v1h-1zm-177 2h1v1h-1zm103 0h1v1h-1zm-107 1h1v1h-1zm35 0h1v1h-1zm10 0h1v1h-1zm8 0h1v1h-1zm21 0h1v1h-1zm39 0h1v1h-1zm5 0h1v1h-1zm6 0h1v1h-1zm11 0h1v1h-1zm5 0h1v1h-1zm23 0h1v1h-1zm-142 1h1v1h-1zm41 0h1v1h-1zm19 0h1v1h-1zm73 0h1v1h-1zm21 1h1v1h-1zm-132 1h1v1h-1zm26 0h1v1h-1zm86 0h1v1h-1zm-77 1h1v1h-1zm41 0h1v1h-1zm-115 1h1v1h-1zm45 0h1v4h-1zm29 0h1v1h-1zm-39 1h1v1h-1zm63 0h1v1h-1zm12 0h1v1h-1zm18 0h1v1h-1zm23 0h1v1h-1zm9 0h1v1h-1zm1 0h1v1h-1zm15 0h1v1h-1zm-152 1h1v1h-1zm53 1h1v1h-1zm-75 1h1v1h-1zm35 0h1v1h-1zm4 0h1v1h-1zm4 0h1v1h-1z" fill="#831c1b"/><path d="M129 40h1v9h-1zm0 9h1v1h-1zm36 100h1v1h-1zm-115 1h1v12h-1zm72 1h1v1h-1zm-39 4h1v1h-1zm87 1h1v1h-1zm-40 1h1v1h-1zm56 0h1v1h-1zm-10 1h1v1h-1zm1 1h1v1h-1zm-127 3h1v1h-1z" fill="#b67324"/><path d="M72 77h1v1h-1zm-5 4h1v10h-1zm100 1h1v1h-1zm-61 2h1v1h-1zm64 0h1v1h-1zm29 3h1v1h-1zM67 91h1v1h-1zm16 3h1v1h-1zm62 2h1v1h-1zm34 1h1v1h-1zm-32 1h1v1h-1zm37 0h1v1h-1zm22 0h1v1h-1zM72 99h1v1h-1zm19 0h1v1h-1zm8 0h1v1h-1zm85 0h1v1h-1zM59 115h1v1h-1zm120 0h1v1h-1zm3 0h1v1h-1zm3 0h1v1h-1zm13 0h1v1h-1zm-6 1h1v1h-1zm-115 1h1v1h-1zm1 1h1v1h-1zm19 0h1v1h-1zm75 1h1v1h-1zm-95 1h1v1h-1zm-1 2h2v1h-2zm2 0h1v1h-1zm104 0h1v1h-1zm-110 2h1v1h-1zm31 0h1v1h-1zm32 1h1v1h-1zm92 2h1v1h-1zm1 2h1v1h-1zm-75 1h1v1h-1zm-39 1h1v1h-1zm78 0h1v1h-1zm23 0h1v1h-1zm-116 1h1v1h-1zm30 0h1v1h-1zm8 0h1v1h-1zm10 0h1v1h-1zm13 0h1v1h-1zm34 0h1v1h-1z" fill="#974150"/><path d="M97 83h1v1h-1zm22 0h1v1h-1zm29 0h1v1h-1zm68 0h1v1h-1zM82 84h1v3h-1zm100 0h1v1h-1zm17 0h1v1h-1zM91 85h1v1h-1zm16 0h1v11h-1zm97 0h1v1h-1zm-78 1h1v1h-1zm1 0h1v1h-1zm-45 1h1v1h-1zm124 1h1v1h-1zM94 89h1v1h-1zm62 0h1v1h-1zm1 1h1v1h-1zm-2 1h1v1h-1zm-1 2h1v1h-1zm-86 1h1v1h-1zm3 2h1v1h-1zm36 0h1v1h-1zm14 0h1v1h-1zm23 0h1v1h-1zm12 0h1v1h-1zm-84 1h1v1h-1zm17 0h1v1h-1zm-2 1h1v1h-1zm46 0h1v1h-1zm78 0h1v1h-1zM91 112h1v1h-1zm15 2h1v1h-1zm1 1h1v14h-1zm-39 1h1v1h-1zm78 0h1v1h-1zm7 0h1v1h-1zm44 0h1v1h-1zm-101 1h1v1h-1zm40 0h1v1h-1zm26 0h1v1h-1zm-110 1h1v1h-1zm85 0h1v8h-1zm40 0h1v2h-1zm7 0h1v1h-1zm1 0h1v1h-1zm15 0h1v1h-1zm-82 1h1v8h-1zm74 0h1v1h-1zm-141 1h1v1h-1zm11 0h1v1h-1zm35 0h1v1h-1zm48 0h1v9h-1zm4 0h1v1h-1zm28 0h1v1h-1zm24 0h1v1h-1zm-21 1h1v1h-1zm-77 2h1v1h-1zm119 0h1v1h-1zm-87 3h2v1h-2zm2 0h1v1h-1zm66 0h1v1h-1zm-152 1h1v1h-1zm11 0h1v1h-1zm56 0h1v2h-1zm37 0h1v1h-1zm46 0h1v1h-1zm-103 1h1v1h-1zm3 0h1v1h-1zm-38 1h1v1h-1zm44 0h1v1h-1zm11 0h1v1h-1zm8 0h1v1h-1zm19 0h1v1h-1zm17 1h1v1h-1zm57 0h1v1h-1zm12 0h1v1h-1zm-141 1h1v1h-1zm9 0h1v1h-1zm26 0h1v1h-1zm21 0h1v1h-1zm26 0h1v1h-1zm12 0h1v1h-1z" fill="#d9c2c5"/><path d="M129 83h1v1h-1zm49 0h1v1h-1zm25 1h1v1h-1zm-30 1h1v1h-1zm35 2h1v1h-1zm-88 1h1v1h-1zm-25 2h1v1h-1zm59 0h1v1h-1zm-84 3h1v1h-1zm72 0h1v1h-1zm-74 2h1v1h-1zm87 0h1v1h-1zm-19 2h1v1h-1zm58 0h1v1h-1zm1 1h1v1h-1zm12 0h1v1h-1zM77 99h1v1h-1zm13 11h2v1h-2zm2 0h1v1h-1zm16 0h1v1h-1zm1 0h1v1h-1zm-14 4h1v1h-1zm-41 2h1v2h-1zm6 1h1v1h-1zm87 0h1v1h-1zm66 0h1v11h-1zm13 0h1v1h-1zm-172 1h1v1h-1zm40 0h1v1h-1zm42 0h1v1h-1zm-83 2h1v1h-1zm74 1h1v8h-1zm-30 5h1v1h-1zm79 2h1v1h-1zm37 0h1v1h-1zm-86 1h1v1h-1zm75 0h1v1h-1zm-3 1h1v1h-1zm-99 1h1v1h-1zm80 1h1v1h-1z" fill="#c5929c"/><path d="M171 121h1v4h-1zm-118 1h1v1h-1zm0 3h1v1h-1zm118 0h1v1h-1z" fill="#9b5d63"/><path d="M120 14h18v1h-18zm18 0h1v1h-1zm7 0h18v1h-18zm18 0h1v1h-1zm-27 12h1v1h-1zm11 0h1v1h-1zm-26 1h1v1h-1zm25 0h1v1h-1zm-25 1h1v1h-1zm-2 3h1v1h-1zm20 0h1v1h-1zm25 0h1v1h-1zm-33 4h1v1h-1zm21 0h1v1h-1zm-36 1h1v1h-1zm15 0h1v1h-1zm25 0h1v1h-1zm11 0h1v1h-1zm-35 1h1v1h-1zm19 0h1v1h-1zm-26 2h1v1h-1zm33 0h1v1h-1zm-45 1h1v1h-1zm0 1h1v1h-1zm10 1h1v1h-1zm-13 3h1v1h-1zm52 1h1v1h-1zm-40 1h1v1h-1zm39 0h1v1h-1zm-3 1h1v7h-1zm-28 1h22v1h-22zm22 0h1v1h-1zm6 6h1v1h-1zm-52 1h18v1h-18zm18 0h1v1h-1zm35 0h18v1h-18zm18 0h1v1h-1zm-12 94h1v1h-1zm-113 1h1v1h-1zm98 0h1v1h-1zm-91 1h1v1h-1zm98 0h1v1h-1zm1 0h1v1h-1zm1 1h1v4h-1zm-93 3h1v1h-1zm21 0h1v1h-1zm37 0h1v1h-1zm8 0h1v1h-1zm1 0h1v1h-1zm32 0h1v5h-1zm-60 1h1v1h-1zm5 0h1v4h-1zm1 0h1v4h-1zm47 0h1v3h-1zm1 0h1v1h-1zm40 0h1v2h-1zm29 0h1v1h-1zm-168 1h1v1h-1zm33 0h1v1h-1zm46 0h1v1h-1zm42 0h1v2h-1zm33 0h1v1h-1zm1 0h1v1h-1zm-132 1h1v1h-1zm10 0h1v1h-1zm106 0h1v1h-1zm-42 1h1v1h-1zm1 0h1v1h-1zm23 0h1v1h-1zm26 0h1v1h-1zm-150 1h1v1h-1zm1 0h1v1h-1zm40 0h1v1h-1zm12 0h1v1h-1zm1 0h1v1h-1zm13 0h1v1h-1zm9 0h1v1h-1zm4 0h1v1h-1zm13 0h1v1h-1zm6 0h1v1h-1zm9 0h1v1h-1zm17 0h1v1h-1zm1 0h1v1h-1zm10 0h1v1h-1zm1 0h1v1h-1zm3 0h1v1h-1zm1 0h1v1h-1zm18 0h1v1h-1zm-165 1h1v1h-1zm15 0h1v1h-1zm9 0h1v1h-1zm1 0h1v1h-1zm19 0h2v1h-2zm2 0h1v1h-1zm37 0h1v1h-1zm50 0h1v1h-1zm1 0h1v1h-1zm10 0h1v1h-1z" fill="#ffcf32"/><path d="M117 14h1v9h-1zm0 9h1v1h-1zm0 7h1v1h-1zm37 7h1v1h-1zm-26 1h2v1h-2zm2 0h1v1h-1zm25 0h1v1h-1zm-28 2h1v1h-1zm29 0h1v1h-1zm-47 4h1v1h-1zm15 1h1v1h-1zm3 12h1v1h-1zm21 92h1v1h-1zm10 0h1v1h-1zm2 2h1v1h-1zm77 0h1v1h-1zm-142 2h1v1h-1zm1 0h1v1h-1zm38 0h1v1h-1zm1 0h1v1h-1zm18 0h1v1h-1zm20 0h1v1h-1zm1 0h1v1h-1zm10 0h1v1h-1zm1 0h1v1h-1zm10 0h1v1h-1zm1 0h1v1h-1zm22 0h1v1h-1zm1 0h1v1h-1zm-156 2h1v2h-1zm94 0h1v1h-1zm68 0h1v7h-1zm-56 1h1v1h-1zm33 0h1v1h-1zm5 0h1v1h-1zm-144 1h1v1h-1zm106 0h1v1h-1zm10 0h1v1h-1zm-110 1h1v1h-1zm52 0h1v1h-1zm5 0h1v1h-1zm8 0h1v1h-1zm22 0h1v1h-1zm28 0h1v1h-1zm11 0h1v2h-1zm8 0h1v1h-1zm21 0h1v1h-1zm-168 1h1v1h-1zm97 0h1v1h-1zm71 0h1v1h-1zm-137 1h1v1h-1zm3 0h1v1h-1zm105 0h1v1h-1zm9 0h1v1h-1zm-113 2h1v1h-1zm72 0h1v1h-1zm17 0h1v1h-1zm20 0h1v1h-1zm9 0h1v1h-1zm16 0h1v1h-1zm-142 1h1v1h-1zm26 0h1v1h-1zm90 0h1v1h-1zm-148 1h4v1h-4zm4 0h1v1h-1zm20 0h1v1h-1zm1 0h1v1h-1zm18 0h1v1h-1zm4 0h1v1h-1zm6 0h1v1h-1zm1 0h1v1h-1zm5 0h1v1h-1zm1 0h1v1h-1zm13 0h1v1h-1zm12 0h1v1h-1zm14 0h4v1h-4zm4 0h1v1h-1zm11 0h1v1h-1zm1 0h1v1h-1zm6 0h1v1h-1zm3 0h1v1h-1zm8 0h1v1h-1zm3 0h1v1h-1zm8 0h1v1h-1zm3 0h1v1h-1zm20 0h1v1h-1zm10 0h1v1h-1zm1 0h1v1h-1z" fill="#740018"/><path d="M119 14h1v1h-1zm20 0h1v1h-1zm5 0h1v1h-1zm20 0h1v1h-1zm0 9h1v1h-1zm-59 24h1v1h-1zm20 0h1v1h-1zm33 0h1v1h-1zm20 0h1v1h-1zM51 150h1v1h-1zm73 1h1v1h-1zm-63 3h1v1h-1zm97 0h1v1h-1zm-92 1h1v1h-1zm4 0h1v1h-1zm5 0h1v1h-1zm1 0h1v1h-1zm5 0h1v1h-1zm6 0h1v1h-1zm7 0h3v1h-3zm3 0h1v1h-1zm8 0h1v1h-1zm3 0h1v1h-1zm14 0h1v1h-1zm4 0h1v1h-1zm8 0h2v1h-2zm2 0h1v1h-1zm29 0h1v1h-1zm8 0h2v1h-2zm2 0h1v1h-1zm8 0h3v1h-3zm3 0h1v1h-1zm8 0h3v1h-3zm3 0h1v1h-1zm7 0h1v1h-1zm6 0h1v1h-1zm7 0h3v1h-3zm3 0h1v1h-1zm8 0h1v1h-1zm3 0h1v1h-1zm-26 3h1v1h-1zm-119 1h1v1h-1zm120 1h1v1h-1z" fill="#ffd533"/><path d="M165 14h1v9h-1zm0 9h1v1h-1zm-10 14h1v1h-1zm-49 9h2v1h-2zm2 0h1v1h-1zm16 0h1v1h-1zm35 0h1v1h-1zm16 0h2v1h-2zm2 0h1v1h-1zM77 152h1v1h-1zm165 1h1v1h-1zm-173 1h1v1h-1zm13 0h1v1h-1zm45 0h1v1h-1zm45 0h1v1h-1zm3 0h1v1h-1zm19 0h1v1h-1zm3 0h1v1h-1zm-30 1h1v2h-1zm-105 2h1v1h-1zm105 0h1v2h-1zm-34 1h1v1h-1zm34 1h1v2h-1zm70 0h1v1h-1zm3 0h1v1h-1zm-184 1h1v1h-1zm96 0h1v1h-1zm34 0h1v1h-1zm-19 1h1v1h-1zm39 1h1v1h-1zm23 0h1v1h-1zm-74 1h1v1h-1zm9 0h1v1h-1z" fill="#ae5122"/><path d="M67 78h1v1h-1zm14 0h1v1h-1zm-13 1h1v1h-1zm69 4h4v1h-4zm4 0h1v1h-1zm48 0h2v1h-2zm2 0h1v1h-1zm4 0h1v1h-1zm1 0h1v1h-1zm-87 1h1v1h-1zm47 0h1v1h-1zm24 0h1v1h-1zm-63 1h1v1h-1zm41 0h1v1h-1zm-69 1h1v1h-1zm1 0h1v1h-1zm44 0h1v9h-1zm1 0h1v2h-1zm23 0h1v2h-1zm47 0h1v1h-1zM92 87h1v1h-1zm74 0h1v1h-1zm41 0h1v1h-1zm-88 1h1v1h-1zm16 0h1v1h-1zm23 0h1v1h-1zm-17 2h1v1h-1zm26 0h2v1h-2zm2 0h1v1h-1zm-34 1h1v4h-1zm6 0h1v1h-1zm30 0h1v1h-1zm-77 1h1v1h-1zm61 0h1v1h-1zm15 0h1v1h-1zm-50 1h1v1h-1zm52 1h1v1h-1zM69 95h1v1h-1zm52 0h1v1h-1zm13 0h1v1h-1zm1 0h1v2h-1zm-37 2h1v1h-1zm37 0h1v1h-1zm-62 1h1v1h-1zm16 0h1v1h-1zm47 0h1v1h-1zm6 0h1v1h-1zm24 0h1v1h-1zm16 0h1v1h-1zm-91 13h1v1h-1zm2 3h1v1h-1zm-38 2h1v1h-1zm17 0h5v1h-5zm5 0h1v1h-1zm18 0h1v1h-1zm70 0h4v1h-4zm4 0h1v1h-1zm10 0h1v1h-1zm15 0h1v1h-1zm4 0h1v1h-1zm10 0h2v1h-2zm2 0h1v1h-1zm4 0h1v1h-1zm1 0h1v1h-1zm-144 1h1v5h-1zm47 0h1v1h-1zm53 0h1v1h-1zm-119 2h1v1h-1zm10 0h1v1h-1zm34 0h1v1h-1zm32 0h1v1h-1zm50 0h1v1h-1zm-48 1h1v1h-1zm60 0h1v1h-1zm1 0h1v1h-1zm-12 1h1v1h-1zm-128 1h1v1h-1zm20 0h1v9h-1zm25 0h1v1h-1zm-44 1h1v1h-1zm21 0h2v1h-2zm2 0h1v1h-1zm56 0h1v1h-1zm18 0h1v1h-1zm15 0h1v1h-1zm4 0h2v1h-2zm2 0h1v1h-1zm58 0h1v1h-1zm-176 1h1v1h-1zm46 0h1v1h-1zm4 0h1v1h-1zm-51 1h1v1h-1zm170 1h1v1h-1zm8 0h1v1h-1zm-94 1h1v1h-1zm56 0h1v1h-1zm37 0h1v1h-1zm-128 1h1v1h-1zm53 0h1v1h-1zm-44 1h1v2h-1zm76 0h1v1h-1zm-124 1h1v1h-1zm57 0h1v1h-1zm8 0h1v1h-1zm-66 1h1v1h-1zm10 0h1v1h-1zm1 0h1v1h-1zm21 0h1v1h-1zm16 0h1v1h-1zm1 0h1v1h-1zm8 0h1v1h-1zm1 0h1v1h-1zm8 0h1v1h-1zm37 0h1v1h-1zm1 0h1v1h-1zm14 0h1v1h-1zm16 0h1v1h-1zm17 0h2v1h-2zm2 0h1v1h-1zm17 0h1v1h-1zm1 0h1v1h-1z" fill="#fbf7f8"/><path d="M86 82h1v1h-1zm1 0h1v1h-1zm13 0h1v1h-1zm1 0h1v1h-1zm9 0h1v1h-1zm1 0h1v1h-1zm4 0h1v1h-1zm4 0h1v1h-1zm1 0h1v1h-1zm5 0h1v1h-1zm7 0h1v1h-1zm15 0h1v1h-1zm1 0h1v1h-1zm25 0h1v1h-1zm17 2h1v1h-1zm-19 1h1v1h-1zm-51 2h1v1h-1zm52 0h1v1h-1zm38 2h1v1h-1zm-84 1h1v1h-1zm26 0h1v1h-1zm1 3h1v1h-1zm21 1h1v1h-1zM71 95h1v1h-1zm-3 1h1v1h-1zm128 2h1v1h-1zm-19 1h1v1h-1zm-72 14h1v1h-1zm-37 2h1v1h-1zm1 0h9v1h-9zm9 0h1v1h-1zm37 0h1v1h-1zm1 0h3v1h-3zm3 0h1v1h-1zm6 0h1v1h-1zm1 0h1v1h-1zm9 0h3v1h-3zm3 0h1v1h-1zm5 0h2v1h-2zm2 0h1v1h-1zm8 0h4v1h-4zm4 0h1v1h-1zm4 0h1v1h-1zm1 0h9v1h-9zm9 0h1v1h-1zm23 0h1v1h-1zm13 0h4v1h-4zm4 0h6v1h-6zm6 0h1v1h-1zm-70 1h1v1h-1zm-96 2h1v1h-1zm125 0h1v1h-1zm10 0h1v1h-1zm-92 1h1v1h-1zm55 0h1v1h-1zm-99 1h1v1h-1zm178 1h1v1h-1zm-126 1h1v1h-1zm90 0h1v1h-1zm-44 1h1v1h-1zm-83 3h1v1h-1zm85 0h1v1h-1zm-48 1h1v1h-1zm-5 1h1v1h-1zm-46 1h1v1h-1zm39 1h1v1h-1zm80 0h1v1h-1zm-75 1h1v1h-1zm17 0h1v1h-1zm30 0h1v1h-1zm43 0h1v1h-1zm42 0h1v1h-1zm-172 1h1v1h-1zm5 0h1v1h-1zm40 0h1v1h-1zm117 0h1v1h-1z" fill="#8d273b"/><path d="M118 13h1v1h-1zm22 0h1v1h-1zm-22 11h1v1h-1zm22 0h1v1h-1zm-19 1h1v1h-1zm23 3h1v1h-1zm-4 2h1v1h-1zm-10 9h1v1h-1zm23 0h1v1h-1zm18 1h1v1h-1zm-66 6h1v1h-1zm20 0h1v1h-1zm33 0h1v1h-1zm20 0h1v1h-1zm-53 104h1v1h-1zm-64 2h1v1h-1zm91 0h1v1h-1zm89 0h1v1h-1zm-170 2h1v1h-1zm4 0h1v1h-1zm5 0h1v1h-1zm8 0h1v1h-1zm9 0h1v1h-1zm7 0h1v1h-1zm4 0h1v1h-1zm18 0h1v1h-1zm39 0h1v1h-1zm1 0h1v1h-1zm20 0h1v1h-1zm17 0h1v1h-1zm14 0h1v1h-1zm10 0h1v1h-1zm-165 1h1v1h-1zm15 0h1v7h-1zm115 0h1v1h-1zm7 0h1v1h-1zm12 1h1v1h-1zm3 0h1v1h-1zm3 1h1v1h-1zm6 0h1v1h-1zm16 0h1v1h-1zm1 0h1v1h-1zm-69 2h1v1h-1zm58 0h1v2h-1zm9 0h1v1h-1zm-33 1h1v1h-1zm12 0h1v1h-1zm-17 1h1v1h-1zm14 0h1v1h-1zm15 0h1v1h-1zm-152 1h1v1h-1zm29 1h1v1h-1z" fill="#b05923"/><path d="M162 26h1v1h-1zm-46 8h1v1h-1zm38 1h1v1h-1zm-26 1h1v1h-1zm40 0h1v1h-1zm-43 5h1v1h-1zm48 3h1v1h-1zm-69 3h1v1h-1zm53 103h1v1h-1zm-103 1h1v1h-1zm1 0h1v1h-1zm102 2h1v1h-1zm-98 1h1v1h-1zm6 1h1v1h-1zm67 0h1v1h-1zm44 0h1v1h-1zm62 0h1v1h-1zm4 0h1v1h-1zm-159 1h1v1h-1zm5 0h1v1h-1zm7 0h1v2h-1zm1 0h1v2h-1zm35 0h1v1h-1zm43 0h1v1h-1zm44 0h1v2h-1zm1 0h1v2h-1zm-9 1h1v1h-1zm-116 1h2v1h-2zm2 0h1v1h-1zm79 0h1v1h-1zm16 0h1v1h-1zm9 0h1v2h-1zm17 0h2v1h-2zm2 0h1v1h-1zm-158 1h1v1h-1zm111 0h1v1h-1zm19 0h1v1h-1zm-134 1h1v1h-1zm76 0h1v1h-1zm67 0h1v1h-1zm22 2h1v1h-1zm-127 1h1v1h-1zm39 0h1v1h-1zm39 0h1v1h-1zm11 0h1v1h-1zm1 0h1v1h-1zm10 0h1v1h-1zm1 0h1v1h-1zm22 0h1v1h-1z" fill="#df9f2c"/><path d="M120 27h1v1h-1zm6 30h1v1h-1zm23 92h1v1h-1zm-75 1h1v1h-1zm164 2h1v1h-1zm-143 2h1v1h-1zm39 0h1v1h-1zm40 0h1v1h-1zm10 0h1v1h-1zm1 0h1v1h-1zm10 0h1v1h-1zm24 0h1v1h-1zm-94 3h1v1h-1zm55 0h1v1h-1zm56 1h1v1h-1zm-183 2h1v1h-1zm2 3h1v1h-1zm111 0h1v1h-1zm28 0h1v1h-1z" fill="#c97728"/><path d="M70 79h1v1h-1zm12 2h1v2h-1zm0 2h1v1h-1zm18 0h1v1h-1zm6 0h1v1h-1zm4 0h1v1h-1zm5 0h1v1h-1zm28 0h1v2h-1zm25 0h1v1h-1zm1 0h1v1h-1zm-71 1h1v1h-1zm44 0h1v1h-1zm46 0h1v1h-1zm-45 1h1v1h-1zm69 2h1v1h-1zm-94 2h1v1h-1zm40 0h1v1h-1zm52 1h1v6h-1zm-85 1h1v1h-1zm27 0h1v1h-1zm16 0h1v1h-1zm40 0h1v1h-1zM68 93h1v1h-1zm2 1h1v1h-1zm53 0h1v1h-1zm-42 2h1v1h-1zm84 0h1v1h-1zm45 0h1v1h-1zm-61 1h1v1h-1zm-78 1h1v1h-1zm8 0h1v1h-1zm43 0h1v1h-1zm-12 13h1v1h-1zm-16 1h1v1h-1zm-2 2h1v1h-1zm17 0h1v14h-1zm-16 1h1v1h-1zm-40 2h1v1h-1zm52 0h1v1h-1zm59 0h1v1h-1zm-85 1h1v1h-1zm39 0h1v1h-1zm37 0h1v1h-1zm69 0h1v1h-1zm-129 2h1v1h-1zm8 1h1v1h-1zm26 0h1v1h-1zm3 1h1v1h-1zm38 0h1v1h-1zm-72 1h1v1h-1zm66 1h1v1h-1zm20 0h1v1h-1zm-107 1h1v1h-1zm20 0h1v1h-1zm35 0h1v1h-1zm19 1h1v1h-1zm71 0h5v1h-5zm5 0h1v1h-1zm-118 2h1v1h-1zm46 0h1v2h-1zm29 0h1v1h-1zm-132 1h1v1h-1zm40 0h1v1h-1zm92 0h1v1h-1zm-29 1h1v1h-1zm9 0h1v1h-1zm7 0h1v1h-1zm7 0h1v1h-1zm35 0h1v1h-1zm-154 1h1v1h-1zm13 0h1v1h-1zm34 0h1v1h-1zm60 0h2v1h-2zm2 0h1v1h-1zm42 0h1v1h-1z" fill="#e8d0d5"/><path d="M72 79h1v1h-1zm12 0h1v1h-1zm1 0h1v1h-1zm84 2h1v1h-1zm-84 2h1v1h-1zm89 0h1v1h-1zm-45 1h1v1h-1zm54 0h1v1h-1zm-42 1h1v1h-1zm74 1h1v1h-1zm-87 1h1v1h-1zm27 1h1v1h-1zm5 0h1v1h-1zm12 2h1v1h-1zm-50 1h1v1h-1zm45 1h1v1h-1zm-83 1h1v1h-1zm-4 1h1v1h-1zm-8 1h1v1h-1zm94 0h1v1h-1zm4 1h1v1h-1zm-84 1h1v1h-1zm19 0h1v1h-1zm27 0h1v1h-1zm13 0h1v1h-1zm8 0h1v1h-1zm42 0h1v1h-1zm-71 1h1v1h-1zm-34 2h1v1h-1zm16 0h1v1h-1zm4 0h1v1h-1zm38 0h1v1h-1zm4 0h1v1h-1zm6 0h1v1h-1zm9 0h1v1h-1zm4 0h1v1h-1zm12 0h1v1h-1zm7 0h1v1h-1zm5 0h1v1h-1zm12 0h1v1h-1zm5 0h1v1h-1zm-17 14h1v1h-1zm-122 3h2v1h-2zm2 0h1v1h-1zm55 0h1v1h-1zm12 0h1v1h-1zm24 0h2v1h-2zm2 0h1v1h-1zm46 0h1v1h-1zm-34 1h1v1h-1zm-115 1h1v1h-1zm13 0h1v1h-1zm60 0h1v1h-1zm5 0h1v9h-1zm10 0h1v3h-1zm27 0h1v1h-1zm42 0h1v1h-1zm-34 2h1v1h-1zm-134 1h1v1h-1zm99 0h1v1h-1zm19 0h1v2h-1zm0 2h1v1h-1zm-99 1h1v1h-1zm1 0h1v1h-1zm91 0h2v1h-2zm2 0h1v1h-1zm-118 1h1v1h-1zm27 0h1v1h-1zm111 0h1v1h-1zm1 0h1v1h-1zm-111 1h1v1h-1zm19 0h1v1h-1zm86 0h1v1h-1zm5 0h1v1h-1zm-137 1h1v1h-1zm93 0h1v1h-1zm-86 2h1v1h-1zm1 0h1v1h-1zm15 0h1v1h-1zm136 0h1v1h-1zm-157 1h1v1h-1zm123 0h1v1h-1zm3 1h1v1h-1zm5 1h1v1h-1zm15 0h1v1h-1z" fill="#76000a"/><path d="M81 79h1v1h-1zm35 6h1v1h-1zm43 2h1v1h-1zm46 0h1v1h-1zm-37 1h1v1h-1zm-27 1h1v1h-1zm25 1h1v1h-1zm-2 4h1v1h-1zm-83 3h1v1h-1zm87 1h1v1h-1zm15 0h1v1h-1zM61 116h1v1h-1zm53 0h1v1h-1zm6 0h1v1h-1zm50 1h1v1h-1zm9 0h1v1h-1zm-110 1h1v11h-1zm10 1h1v1h-1zm52 1h1v1h-1zm15 0h1v1h-1zm57 0h1v1h-1zm-99 1h1v1h-1zm46 0h1v1h-1zm72 1h1v1h-1zm-69 3h1v1h-1zm-100 2h1v1h-1zm80 0h1v1h-1zm70 0h1v1h-1zm-134 2h1v1h-1zm67 2h1v1h-1zm64 0h1v1h-1zm-144 1h1v1h-1zm139 0h1v1h-1z" fill="#bc858f"/><path d="M217 83h1v1h-1zM81 84h1v4h-1zm110 1h1v11h-1zm7 1h1v1h-1zM81 88h1v1h-1zm9 0h1v1h-1zm66 4h1v1h-1zm-75 1h1v1h-1zm43 3h1v1h-1zm67 0h1v1h-1zM70 98h1v1h-1zm34 18h1v1h-1zm34 1h1v1h-1zm-8 1h1v1h-1zm41 1h1v1h-1zm32 0h1v1h-1zm0 9h1v1h-1zm-105 2h1v1h-1zm8 0h1v1h-1zm88 0h1v1h-1z" fill="#944953"/><path d="M142 13h1v11h-1zm0 11h1v1h-1zm-23 3h1v1h-1zm-2 4h1v1h-1zm10 8h1v1h-1zm29 0h1v1h-1zm2 4h1v1h-1zm-55 3h1v1h-1zm77 0h1v1h-1zm-77 12h1v1h-1zm77 0h1v1h-1zM64 76h1v1h-1zm9 0h1v1h-1zm-10 1h1v1h-1zm11 0h1v1h-1zm-11 1h1v1h-1zm11 0h1v1h-1zm-10 1h1v1h-1zm9 0h1v1h-1zm17 2h1v1h-1zm6 0h1v1h-1zm18 0h1v1h-1zm16 0h1v1h-1zm1 0h1v1h-1zm24 0h1v1h-1zm11 0h1v1h-1zm5 0h1v1h-1zm6 0h1v1h-1zm7 0h2v1h-2zm2 0h1v1h-1zm13 0h2v1h-2zm2 0h1v1h-1zm7 0h1v1h-1zm4 0h1v1h-1zm5 0h1v1h-1zM91 82h1v1h-1zm11 0h1v2h-1zm1 0h1v1h-1zm10 0h1v2h-1zm63 0h1v1h-1zm33 0h2v1h-2zm2 0h1v2h-1zm7 0h1v2h-1zM92 83h1v1h-1zm11 0h1v1h-1zm61 0h1v1h-1zm-79 1h1v1h-1zm17 0h1v1h-1zm10 0h2v1h-2zm2 0h1v1h-1zm6 0h1v1h-1zm1 0h1v1h-1zm3 0h1v1h-1zm6 0h2v1h-2zm2 0h1v1h-1zm14 0h1v1h-1zm62 0h1v1h-1zm1 0h2v1h-2zm2 0h1v1h-1zM96 85h1v1h-1zm18 0h1v1h-1zm18 0h1v1h-1zm-46 1h1v9h-1zm15 0h1v13h-1zm4 0h1v10h-1zm6 0h1v10h-1zm30 0h1v1h-1zm15 0h1v1h-1zm33 0h1v1h-1zm-94 1h1v1h-1zm60 0h1v1h-1zm42 0h1v1h-1zm-69 1h1v1h-1zm35 0h1v1h-1zm35 0h1v1h-1zm-82 1h1v1h-1zm7 0h1v1h-1zm49 0h1v1h-1zm-8 1h1v2h-1zm9 0h1v1h-1zm-46 1h1v1h-1zm47 0h1v1h-1zm-57 1h1v1h-1zm47 0h2v1h-2zm2 0h1v2h-1zm40 0h1v1h-1zm-66 1h1v1h-1zm4 0h1v1h-1zm1 0h1v1h-1zm20 0h1v1h-1zm10 0h1v1h-1zM66 94h1v1h-1zm27 0h1v1h-1zm50 0h1v1h-1zm3 0h1v1h-1zm13 0h1v1h-1zm3 0h1v1h-1zm7 0h1v1h-1zm-85 1h2v1h-2zm2 0h1v1h-1zm40 0h1v1h-1zm27 0h1v1h-1zm-59 1h1v1h-1zm11 0h1v1h-1zm6 0h1v1h-1zm30 0h1v1h-1zm34 0h1v1h-1zm-92 1h1v1h-1zm21 0h1v1h-1zm15 0h1v1h-1zm12 0h1v1h-1zm23 0h1v1h-1zm8 0h1v1h-1zm15 0h1v1h-1zm36 0h1v1h-1zM68 98h1v1h-1zm35 0h1v1h-1zm27 0h1v1h-1zm25 0h1v1h-1zm59 0h1v1h-1zM69 99h1v1h-1zm23 0h1v1h-1zm9 0h2v1h-2zm2 0h1v1h-1zm17 0h1v1h-1zm10 0h1v1h-1zm25 0h1v1h-1zm1 0h1v1h-1zm58 0h1v1h-1zm-134 1h1v1h-1zm20 0h1v1h-1zm4 0h1v1h-1zm17 0h1v1h-1zm10 0h1v1h-1zm23 0h1v1h-1zm3 0h1v1h-1zm5 0h1v1h-1zm51 0h1v1h-1zm-124 8h4v1h-4zm4 0h1v1h-1zm14 0h5v1h-5zm5 0h1v1h-1zm-22 1h1v1h-1zm16 0h1v1h-1zm-1 1h1v1h-1zm6 3h1v1h-1zm-57 1h1v1h-1zm7 0h1v1h-1zm6 0h1v1h-1zm61 0h1v1h-1zm6 0h1v1h-1zm8 0h1v1h-1zm10 0h1v1h-1zm8 0h1v1h-1zm12 0h1v1h-1zm6 0h1v1h-1zm15 0h1v1h-1zm7 0h1v1h-1zm24 0h2v1h-2zm2 0h1v1h-1zm-160 1h1v1h-1zm31 0h1v1h-1zm6 0h1v1h-1zm30 0h1v1h-1zm8 0h1v1h-1zm10 0h1v1h-1zm22 0h1v1h-1zm18 0h1v1h-1zm14 0h1v1h-1zm18 0h1v1h-1zm4 0h1v1h-1zm-97 1h1v1h-1zm57 0h1v1h-1zm3 0h1v1h-1zm1 0h1v1h-1zm-93 1h1v1h-1zm4 0h1v1h-1zm11 0h1v1h-1zm8 0h1v1h-1zm10 0h1v1h-1zm9 0h1v1h-1zm3 0h1v1h-1zm15 0h1v1h-1zm3 0h1v1h-1zm4 0h1v4h-1zm10 0h1v1h-1zm14 0h1v1h-1zm33 0h1v1h-1zm-166 1h1v1h-1zm9 0h1v1h-1zm8 0h2v1h-2zm2 0h1v1h-1zm59 0h1v3h-1zm1 0h1v1h-1zm3 0h1v1h-1zm1 0h1v14h-1zm11 0h1v1h-1zm17 0h1v1h-1zm1 0h1v1h-1zm27 0h1v1h-1zm-146 1h1v1h-1zm117 0h1v2h-1zm7 0h1v1h-1zm15 0h1v1h-1zm21 0h1v10h-1zm20 0h1v1h-1zm-163 1h1v1h-1zm14 0h1v1h-1zm21 0h1v1h-1zm32 0h1v1h-1zm18 0h1v1h-1zm53 0h1v1h-1zm16 0h1v2h-1zm-86 1h1v1h-1zm31 0h1v1h-1zm1 0h2v1h-2zm2 0h1v1h-1zm7 0h1v1h-1zm1 0h1v1h-1zm11 0h1v1h-1zm12 0h1v1h-1zm20 0h1v1h-1zm-119 1h1v1h-1zm85 0h1v1h-1zm1 0h1v1h-1zm34 0h1v1h-1zm-115 1h1v5h-1zm81 0h1v1h-1zm44 0h1v1h-1zm-83 1h1v4h-1zm-43 1h1v1h-1zm44 0h1v1h-1zm28 0h1v1h-1zm55 0h1v1h-1zm-136 1h1v1h-1zm70 0h1v2h-1zm1 0h1v3h-1zm14 0h1v1h-1zm19 0h1v1h-1zm-133 1h1v1h-1zm65 0h1v1h-1zm18 0h1v1h-1zm23 0h1v1h-1zm9 0h1v1h-1zm-132 1h1v1h-1zm54 0h2v1h-2zm2 0h1v1h-1zm27 0h1v1h-1zm33 0h1v1h-1zm14 0h1v1h-1zm9 0h1v1h-1zm6 0h1v1h-1zm24 0h1v1h-1zm-162 1h1v1h-1zm3 0h1v1h-1zm6 0h1v1h-1zm8 0h1v1h-1zm23 0h1v1h-1zm15 0h1v1h-1zm31 0h1v1h-1zm24 0h3v1h-3zm3 0h1v1h-1zm11 0h1v1h-1zm15 0h1v1h-1zm14 0h1v1h-1zm-146 1h1v1h-1zm11 0h1v1h-1zm14 0h1v1h-1zm16 0h1v1h-1zm9 0h1v1h-1zm8 0h1v1h-1zm27 0h1v1h-1zm41 0h1v1h-1zm19 0h1v1h-1zm-133 1h1v1h-1zm12 0h1v1h-1zm10 0h1v1h-1zm5 0h1v1h-1zm1 0h1v1h-1zm19 0h1v1h-1zm12 0h1v1h-1zm40 0h1v1h-1zm16 0h1v1h-1zm17 0h1v1h-1zm-132 1h1v1h-1zm28 0h1v1h-1zm19 0h1v1h-1zm27 0h1v1h-1zm4 0h1v1h-1zm4 0h1v1h-1zm16 0h1v1h-1zm28 0h1v1h-1zm6 0h1v1h-1zm-146 1h1v1h-1zm13 0h1v1h-1zm74 0h1v1h-1zm6 0h1v1h-1zm30 0h1v1h-1zm9 0h1v1h-1zm15 0h1v1h-1zM56 148h1v1h-1zm180 4h1v1h-1zm-1 1h1v1h-1zm-181 1h1v4h-1zm66 0h1v1h-1zm18 0h1v1h-1zm39 0h1v2h-1zm59 1h1v1h-1zm-151 1h1v1h-1zm4 0h1v1h-1zm51 0h1v1h-1zm37 0h1v1h-1zm-119 1h1v1h-1zm13 0h1v1h-1zm42 0h1v1h-1zm8 0h1v1h-1zm55 0h1v1h-1zm25 0h1v1h-1zm-147 1h1v1h-1zm36 0h1v1h-1zm80 1h1v1h-1zm27 0h1v1h-1zm7 0h1v1h-1zm-103 1h1v1h-1zm100 0h1v1h-1zm-101 1h1v1h-1zm78 0h1v1h-1zm31 0h1v1h-1zm-87 1h1v1h-1zm92 0h1v1h-1zm-121 1h1v1h-1zm20 0h1v1h-1zm19 0h1v1h-1zm76 0h1v1h-1z" fill="#7a0018"/><path d="M120 26h1v1h-1zm-1 2h1v1h-1zm-5 8h1v1h-1zm11 6h1v1h-1zm34 2h1v1h-1zm-54 14h20v1h-20zm20 0h1v1h-1zm33 0h20v1h-20zm20 0h1v1h-1zM58 149h1v1h-1zm-2 3h1v1h-1zm104 0h1v1h-1zm-86 2h1v1h-1zm152 0h1v1h-1zm4 0h1v1h-1zm7 0h1v2h-1zm-145 1h1v1h-1zm39 0h1v1h-1zm71 0h1v1h-1zm35 1h1v1h-1zm-5 1h1v1h-1zm9 0h1v2h-1zm-183 1h1v1h-1zm4 0h1v1h-1zm180 0h1v1h-1zm-1 1h1v1h-1zm-173 1h1v2h-1zm14 0h1v1h-1zm-14 2h1v1h-1zm9 1h1v1h-1zm99 0h1v1h-1z" fill="#973a1e"/><path d="M72 76h1v1h-1zm6 2h1v1h-1zm-12 3h1v11h-1zm101 0h1v1h-1zm5 0h1v1h-1zm-15 1h1v1h-1zm52 1h1v1h-1zm-84 1h1v1h-1zm53 0h1v1h-1zm34 0h1v1h-1zM80 85h1v8h-1zm13 0h1v1h-1zm13 0h1v1h-1zm23 0h1v1h-1zm35 0h1v1h-1zm14 0h1v1h-1zm38 0h1v1h-1zm-53 1h1v1h-1zm27 0h1v9h-1zm7 0h1v1h-1zm-56 1h1v1h-1zm-25 1h1v1h-1zm56 0h2v1h-2zm2 0h1v1h-1zm25 0h1v1h-1zm-26 1h1v1h-1zm32 0h1v1h-1zm-82 1h1v1h-1zm4 0h1v1h-1zm79 1h1v1h-1zM66 92h1v1h-1zm52 0h1v1h-1zm94 0h1v4h-1zM80 93h1v1h-1zm38 0h1v1h-1zm8 0h1v1h-1zm32 0h1v1h-1zm-74 1h1v1h-1zm62 1h1v1h-1zm29 0h1v1h-1zm15 0h1v1h-1zM78 96h1v1h-1zm17 0h1v1h-1zm24 0h1v1h-1zm27 0h1v3h-1zm66 0h1v1h-1zM74 97h1v1h-1zm17 0h1v1h-1zm29 0h1v1h-1zm27 0h1v1h-1zm49 0h1v1h-1zm10 0h1v1h-1zM85 98h1v1h-1zm12 1h1v1h-1zm49 0h1v1h-1zm39 0h1v1h-1zm-86 1h1v1h-1zm6 0h1v1h-1zm42 0h1v1h-1zm6 0h1v1h-1zm8 0h1v1h-1zm3 0h1v1h-1zm42 0h1v1h-1zM96 113h1v1h-1zm83 1h1v1h-1zm3 0h3v1h-3zm3 0h1v1h-1zm13 0h1v1h-1zm-144 1h1v1h-1zm7 0h1v1h-1zm117 0h1v1h-1zm14 0h1v1h-1zm8 0h1v1h-1zm-97 1h1v1h-1zm45 0h1v1h-1zm3 0h1v1h-1zm22 0h1v1h-1zm-114 1h1v1h-1zm44 0h1v1h-1zm49 0h1v1h-1zm21 0h1v1h-1zm-75 1h1v1h-1zm51 0h1v1h-1zm8 0h1v1h-1zm47 0h1v1h-1zm18 0h1v1h-1zm6 0h1v1h-1zm-168 1h1v1h-1zm17 0h1v1h-1zm25 0h1v1h-1zm48 0h1v1h-1zm78 0h1v1h-1zm-149 1h1v5h-1zm23 0h1v1h-1zm67 0h1v1h-1zm30 0h1v1h-1zm-145 1h1v1h-1zm175 0h1v1h-1zm-128 1h1v1h-1zm-40 1h1v1h-1zm39 0h1v1h-1zm85 0h1v1h-1zm-124 1h1v1h-1zm69 0h1v1h-1zm23 0h1v1h-1zm33 0h1v1h-1zm-107 1h1v1h-1zm16 0h1v1h-1zm98 0h1v1h-1zm-21 1h1v1h-1zm59 0h1v1h-1zm-128 1h1v1h-1zm47 0h1v1h-1zm21 0h1v1h-1zm28 0h1v1h-1zm-17 1h1v1h-1zm22 0h1v1h-1zm19 0h3v1h-3zm3 0h1v1h-1zm-176 1h1v1h-1zm52 0h1v1h-1zm87 0h1v1h-1zm9 0h1v1h-1zm-96 1h1v1h-1zm12 0h1v1h-1zm6 0h1v1h-1zm4 0h1v1h-1zm18 0h1v1h-1zm18 0h1v1h-1zm30 0h1v1h-1zm8 0h1v1h-1zm35 0h1v1h-1zm-171 1h1v1h-1zm1 0h1v1h-1zm72 0h1v1h-1zm3 0h1v1h-1zm78 0h1v1h-1zm-118 1h1v1h-1zm87 0h1v1h-1zm31 0h1v1h-1zm-161 1h1v1h-1zm18 0h1v1h-1zm26 0h1v1h-1zm15 0h1v1h-1zm6 0h1v1h-1zm4 0h1v1h-1zm13 0h1v1h-1zm10 0h1v1h-1zm29 0h1v1h-1zm3 0h1v1h-1zm15 0h1v1h-1zm15 0h1v1h-1zm6 0h1v1h-1z" fill="#780012"/><path d="M67 80h1v1h-1zm14 1h1v2h-1zm0 2h1v1h-1zm10 1h1v1h-1zm9 0h1v1h-1zm91 0h1v1h-1zm18 4h1v1h-1zm-3 1h1v1h-1zm-50 2h1v1h-1zm11 0h1v1h-1zm44 0h1v1h-1zm-89 1h1v1h-1zm21 4h1v1h-1zm-74 1h1v1h-1zm122 0h1v1h-1zm-70 1h1v1h-1zm-15 13h1v1h-1zm-39 5h1v1h-1zm112 2h1v1h-1zm0 1h1v1h-1zm-129 2h1v1h-1zm172 0h2v1h-2zm2 0h1v1h-1zm-55 1h1v1h-1zm-116 1h1v1h-1zm0 1h1v1h-1zm98 3h1v1h-1zm26 0h1v1h-1zm6 0h1v1h-1zm-5 2h1v1h-1zm-43 1h1v1h-1z" fill="#9b565f"/><path d="M118 14h1v9h-1zm22 2h1v1h-1zm0 1h1v2h-1zm0 2h1v2h-1zm0 2h1v1h-1zm-22 2h1v1h-1zm25 1h1v1h-1zm0 6h1v1h-1zm-12 9h1v1h-1zm29 7h1v1h-1zM77 150h1v1h-1zm48 1h1v2h-1zm39 1h1v1h-1zm-39 1h1v1h-1zm107 1h1v1h-1zm8 1h1v1h-1zm-119 1h1v1h-1zm-36 1h1v1h-1zm150 0h1v1h-1zm-110 1h1v2h-1zm79 0h1v1h-1zm36 0h1v1h-1zm-115 2h1v1h-1zm63 2h1v1h-1zm-94 1h1v1h-1zm4 0h1v1h-1zm29 0h1v1h-1zm22 0h1v1h-1z" fill="#c06926"/><path d="M168 35h1v1h-1zm-16 4h1v1h-1zm5 1h1v1h-1zm-48 5h1v1h-1zm14 1h1v1h-1zm-1 104h1v1h-1zm45 0h1v1h-1zm-93 2h1v1h-1zm2 2h1v1h-1zm5 0h1v1h-1zm6 0h1v1h-1zm18 0h1v1h-1zm5 0h1v1h-1zm26 0h1v1h-1zm68 0h1v1h-1zm6 0h1v1h-1zm1 0h1v1h-1zm17 0h1v1h-1zm-166 2h1v1h-1zm35 1h1v1h-1zm12 0h1v1h-1zm27 0h1v1h-1zm51 0h1v1h-1zm49 0h1v1h-1zm-26 1h1v1h-1zm29 1h1v1h-1zm-65 1h1v1h-1zm23 0h1v1h-1zm-137 1h1v1h-1zm132 1h1v1h-1zm-136 1h1v1h-1zm9 0h2v1h-2zm2 0h1v1h-1zm66 0h1v1h-1zm74 0h1v1h-1z" fill="#b76224"/><path d="M169 37h1v1h-1zm-14 112h1v1h-1zm-17 6h1v1h-1zm88 0h1v6h-1zm-152 1h1v6h-1zm102 0h1v1h-1zm64 0h1v1h-1zm-149 1h1v1h-1zm132 2h1v1h-1zm-93 1h1v1h-1zm-31 1h1v1h-1zm71 0h1v1h-1zm56 0h1v1h-1zm-152 1h1v1h-1zm96 0h1v1h-1zm-118 1h2v1h-2zm2 0h1v1h-1zm97 0h2v1h-2zm2 0h1v1h-1zm12 0h1v1h-1zm7 0h1v1h-1zm55 0h1v1h-1z" fill="#c07c26"/><path d="M112 40h1v1h-1zm42 0h1v9h-1zm-31 5h1v1h-1zm37 0h1v1h-1zm-6 4h1v1h-1zM57 149h1v1h-1zm18 0h1v1h-1zm1 0h1v1h-1zm80 0h1v1h-1zm10 0h1v1h-1zm-7 2h1v1h-1zm-37 1h1v1h-1zm0 1h1v1h-1zm-33 2h1v1h-1zm10 0h1v1h-1zm23 3h1v2h-1zm0 2h1v1h-1zm87 0h1v1h-1zm-97 3h1v1h-1z" fill="#af6623"/><path d="M71 79h1v1h-1zm85 3h1v1h-1zm15 0h1v1h-1zm-13 1h1v1h-1zm42 0h1v2h-1zm-36 1h1v1h-1zm-49 1h1v1h-1zm18 0h1v11h-1zm15 0h1v12h-1zm4 0h1v4h-1zm3 0h1v1h-1zm12 0h1v1h-1zm33 0h1v1h-1zm3 0h1v1h-1zm9 0h1v1h-1zm-87 1h1v1h-1zm3 0h1v1h-1zm43 0h1v1h-1zm-55 1h1v1h-1zm27 1h1v4h-1zm67 0h1v1h-1zM90 89h1v1h-1zm37 0h1v1h-1zm10 0h2v1h-2zm2 0h1v1h-1zm13 0h2v1h-2zm2 0h1v1h-1zm-64 1h1v1h-1zm6 0h1v1h-1zm1 1h1v1h-1zm26 0h1v1h-1zm14 1h1v1h-1zm6 0h1v1h-1zm9 0h1v4h-1zm-11 1h1v1h-1zm-70 1h1v1h-1zm99 0h1v1h-1zm-37 2h1v1h-1zm19 0h1v1h-1zm-77 1h2v1h-2zm2 0h1v1h-1zm60 0h3v1h-3zm3 0h1v1h-1zm8 0h1v1h-1zm35 0h1v1h-1zm-108 3h1v1h-1zm1 0h1v1h-1zm19 12h1v1h-1zm1 2h1v1h-1zm-16 2h1v2h-1zm-23 1h1v1h-1zm1 0h1v1h-1zm10 0h1v1h-1zm89 0h1v1h-1zm24 0h1v1h-1zm15 0h1v1h-1zm1 0h1v1h-1zm-142 1h1v1h-1zm17 0h1v3h-1zm8 0h1v1h-1zm26 0h1v1h-1zm9 0h1v11h-1zm4 0h1v12h-1zm6 0h1v1h-1zm45 0h1v1h-1zm44 0h2v1h-2zm2 0h1v1h-1zm-91 1h1v1h-1zm36 0h1v9h-1zm46 0h1v1h-1zm-146 1h1v1h-1zm11 1h1v1h-1zm4 0h1v1h-1zm75 0h1v1h-1zm-78 1h2v1h-2zm2 0h1v1h-1zm53 0h1v1h-1zm37 0h3v1h-3zm3 0h1v1h-1zm15 0h1v1h-1zm-79 1h1v1h-1zm121 0h1v1h-1zm-77 1h1v1h-1zm-76 1h1v4h-1zm77 0h1v1h-1zm31 0h1v1h-1zm-119 2h1v1h-1zm64 1h1v2h-1zm36 0h1v1h-1zm58 0h1v1h-1zm3 0h1v1h-1zm5 0h1v1h-1zm-167 1h1v1h-1zm12 0h1v1h-1zm43 0h1v1h-1zm-59 1h1v1h-1zm12 0h1v1h-1zm51 0h1v1h-1zm6 0h1v1h-1zm3 0h1v1h-1zm41 0h1v1h-1zm45 0h1v1h-1zm4 0h1v1h-1zm3 0h1v1h-1zm-167 2h1v1h-1z" fill="#720000"/><path d="M66 80h1v1h-1zm14 0h1v1h-1zm88 1h1v1h-1zm-84 1h1v10h-1zm28 1h1v1h-1zm12 0h1v1h-1zm-32 1h1v1h-1zm93 0h1v2h-1zm-75 1h1v1h-1zm79 0h1v1h-1zm1 0h1v1h-1zm-30 1h1v1h-1zm23 0h2v1h-2zm2 0h1v1h-1zm10 0h1v10h-1zm-12 1h1v8h-1zm-66 3h1v1h-1zm-33 2h1v1h-1zm42 0h1v1h-1zm48 0h1v1h-1zm9 3h1v1h-1zM83 96h1v1h-1zm112 0h1v1h-1zM68 97h1v1h-1zm93 0h1v1h-1zm46 0h1v1h-1zm-120 3h2v1h-2zm2 0h1v1h-1zm18 0h1v1h-1zm1 0h1v1h-1zm25 0h2v1h-2zm2 0h5v1h-5zm5 0h1v1h-1zm3 0h1v1h-1zm6 0h2v1h-2zm2 0h1v1h-1zm9 0h1v1h-1zm5 0h1v1h-1zm14 0h1v1h-1zm3 0h1v1h-1zm9 0h3v1h-3zm3 0h1v1h-1zm14 0h3v1h-3zm3 0h1v1h-1zm-101 13h1v1h-1zm-53 1h1v1h-1zm1 0h1v1h-1zm46 0h1v1h-1zm93 0h1v1h-1zm-100 2h1v1h-1zm126 0h1v1h-1zm-89 1h1v1h-1zm26 0h1v1h-1zm-96 1h1v1h-1zm-14 1h1v1h-1zm30 0h1v1h-1zm90 0h1v1h-1zm13 0h1v1h-1zm16 0h1v1h-1zm-105 2h1v1h-1zm5 0h1v1h-1zm83 0h1v1h-1zm-30 1h1v1h-1zm-86 1h1v1h-1zm81 0h1v1h-1zm-81 1h1v1h-1zm164 0h1v1h-1zm-155 1h1v1h-1zm99 3h1v1h-1zm13 0h1v1h-1zm-123 1h1v1h-1zm123 0h1v1h-1zm-98 1h1v1h-1zm26 0h1v1h-1zm32 0h1v1h-1zm-49 1h1v1h-1zm56 1h1v1h-1z" fill="#750006"/><path d="M111 83h1v1h-1zm14 0h1v1h-1zm42 1h1v1h-1zm6 0h1v1h-1zm6 0h1v1h-1zm-23 1h1v1h-1zm-31 3h1v1h-1zm40 1h1v1h-1zm47 0h1v1h-1zM70 92h1v1h-1zm55 0h1v1h-1zm39 6h1v1h-1zm-23 1h1v1h-1zm1 0h1v1h-1zm38 16h1v1h-1zm1 0h1v1h-1zm15 0h1v1h-1zm-57 1h1v1h-1zm-84 1h1v1h-1zm163 2h1v1h-1zm-115 1h1v1h-1zm-41 1h1v1h-1zm0 5h1v1h-1zm-5 5h1v1h-1zm139 0h1v1h-1z" fill="#b77684"/><path d="M143 13h1v1h-1zm-3 1h1v1h-1zm0 1h1v1h-1zm0 7h1v1h-1zm0 1h1v1h-1zm23 4h1v1h-1zm3 5h1v1h-1zm-51 3h1v1h-1zm37 3h1v1h-1zm20 4h1v1h-1zm-48 1h1v1h-1zm55 14h1v1h-1zM59 150h1v1h-1zm-2 2h1v1h-1zm182 0h1v1h-1zm-186 1h1v6h-1zm5 0h1v1h-1zm173 1h1v1h-1zm-16 1h1v1h-1zm-76 1h1v1h-1zm49 0h1v1h-1zm20 0h1v1h-1zm-101 1h1v1h-1zm15 0h1v1h-1zm51 0h1v1h-1zm64 1h1v1h-1zm-184 1h1v1h-1zm102 1h1v1h-1zm39 0h1v1h-1zm-55 1h1v1h-1zm60 1h1v1h-1zm16 0h1v1h-1zm11 0h1v1h-1zm-142 1h1v1h-1zm70 0h1v1h-1zm29 0h1v1h-1z" fill="#c27226"/><path d="M162 25h1v1h-1zm-17 1h1v1h-1zm-6 2h1v1h-1zm31 10h1v1h-1zM50 149h1v1h-1zm74 0h1v1h-1zm109 6h1v1h-1zm-133 1h1v1h-1zm91 0h1v1h-1zm9 0h1v1h-1zm-130 1h1v1h-1zm-2 1h1v1h-1zm102 0h1v1h-1zm-109 2h1v1h-1zm61 1h1v1h-1zm69 0h1v1h-1zm-117 2h1v1h-1z" fill="#a15020"/><path d="M163 26h1v1h-1zm-23 3h1v1h-1zm3 0h1v1h-1zm-1 2h1v1h-1zm27 5h1v1h-1zm-57 3h1v1h-1zm60 2h1v1h-1zm-43 10h1v1h-1zm-3 7h1v1h-1zm53 0h1v1h-1zm-57 91h1v1h-1zm3 0h1v1h-1zm39 0h1v1h-1zm-110 3h1v1h-1zm1 0h1v1h-1zm98 0h1v1h-1zm-85 2h1v1h-1zm15 0h1v1h-1zm24 0h1v1h-1zm80 0h1v1h-1zm-123 1h1v7h-1zm106 0h1v1h-1zm71 0h1v1h-1zm-111 1h1v1h-1zm81 1h1v1h-1zm26 0h1v1h-1zm6 0h1v1h-1zm-142 1h1v1h-1zm6 0h1v1h-1zm83 0h1v1h-1zm11 0h1v1h-1zm-100 1h1v1h-1zm89 0h1v1h-1zm20 0h1v1h-1zm-111 1h1v1h-1zm31 1h1v1h-1zm-66 1h1v1h-1zm4 1h1v1h-1zm17 0h1v1h-1zm121 0h1v1h-1z" fill="#88261c"/><path d="M139 27h1v1h-1zm-24 7h1v1h-1zm65 23h1v1h-1zM86 81h1v1h-1zm3 0h1v1h-1zm12 0h1v1h-1zm4 0h1v1h-1zm6 0h1v1h-1zm9 0h1v1h-1zm5 0h1v1h-1zm4 0h1v1h-1zm3 0h1v1h-1zm11 0h1v1h-1zm4 0h1v1h-1zm7 0h1v1h-1zm19 0h1v1h-1zm5 0h5v1h-5zm5 0h1v1h-1zm4 0h11v1h-11zm11 0h1v1h-1zm4 0h5v1h-5zm5 0h1v1h-1zm6 0h3v1h-3zm3 0h1v1h-1zM85 82h1v1h-1zm27 0h1v1h-1zm9 0h1v1h-1zm3 0h1v1h-1zm22 0h1v1h-1zm19 0h1v1h-1zm9 0h1v1h-1zm11 0h1v1h-1zm15 0h1v1h-1zm-55 1h1v1h-1zm-59 1h1v1h-1zm10 0h1v1h-1zm9 0h1v1h-1zm0 1h1v1h-1zm6 0h1v1h-1zm27 0h2v1h-2zm2 0h1v1h-1zm13 0h1v1h-1zm10 0h1v1h-1zm5 0h1v1h-1zm34 0h1v1h-1zm-47 1h1v1h-1zm13 0h1v1h-1zm10 0h1v10h-1zm-54 1h1v1h-1zm45 0h1v1h-1zm41 0h1v1h-1zm-70 1h1v1h-1zm47 0h1v1h-1zm17 0h1v1h-1zm-82 1h1v1h-1zm38 0h1v1h-1zm-69 1h1v1h-1zm74 0h1v1h-1zm40 0h1v1h-1zm8 0h1v1h-1zm-96 1h1v1h-1zm48 0h1v1h-1zm1 0h1v1h-1zM66 93h1v1h-1zm52 1h1v1h-1zm8 0h1v1h-1zm37 0h1v1h-1zm-84 1h1v1h-1zm-5 1h1v1h-1zm12 0h1v1h-1zm68 0h1v1h-1zm13 0h1v1h-1zm11 0h1v1h-1zm-53 1h1v1h-1zm-33 1h1v1h-1zm84 0h1v1h-1zm21 0h1v1h-1zm-21 1h1v1h-1zm21 0h1v1h-1zm-126 1h1v1h-1zm8 0h1v1h-1zm93 0h1v1h-1zm5 0h1v1h-1zm-86 9h1v1h-1zm1 0h2v1h-2zm2 0h1v1h-1zm13 0h3v1h-3zm3 0h1v1h-1zm-23 1h1v1h-1zm8 0h1v1h-1zm-8 1h1v1h-1zm1 1h1v1h-1zm-33 2h1v1h-1zm5 0h1v1h-1zm19 0h1v1h-1zm32 0h1v1h-1zm3 0h1v1h-1zm6 0h1v1h-1zm4 0h1v1h-1zm15 0h1v1h-1zm7 0h1v1h-1zm7 0h1v1h-1zm4 0h1v1h-1zm42 0h1v1h-1zm19 0h1v1h-1zm-138 1h1v1h-1zm31 0h1v9h-1zm12 0h1v1h-1zm54 0h1v1h-1zm6 0h1v1h-1zm3 0h1v1h-1zm15 0h1v1h-1zm-15 1h1v1h-1zm18 0h1v1h-1zm16 0h1v1h-1zm-144 1h1v1h-1zm111 0h1v1h-1zm3 0h1v1h-1zm30 0h1v2h-1zm-161 1h1v1h-1zm17 0h1v1h-1zm26 0h1v1h-1zm64 0h1v1h-1zm21 0h1v1h-1zm2 1h1v1h-1zm5 0h1v1h-1zm22 0h1v1h-1zm4 0h1v1h-1zm-121 1h1v1h-1zm36 0h1v2h-1zm37 0h1v1h-1zm11 0h1v1h-1zm5 0h1v1h-1zm33 0h1v1h-1zm-120 1h1v1h-1zm99 0h1v1h-1zm5 0h1v1h-1zm13 0h1v1h-1zm-83 1h1v1h-1zm58 1h1v1h-1zm27 0h1v1h-1zm-126 1h1v4h-1zm17 0h1v4h-1zm18 0h1v1h-1zm64 0h1v1h-1zm-14 1h1v1h-1zm8 0h1v1h-1zm-108 1h1v1h-1zm94 0h1v1h-1zm32 0h1v1h-1zm14 0h1v1h-1zm-141 1h1v1h-1zm16 1h1v1h-1zm17 0h1v1h-1zm78 0h1v1h-1zm-84 1h1v1h-1zm42 0h1v1h-1zm18 0h1v1h-1zm-98 1h1v1h-1zm28 0h1v1h-1zm17 0h1v1h-1zm62 0h1v1h-1zm13 0h1v1h-1zm30 0h1v1h-1zm5 0h1v1h-1zm-126 1h1v1h-1zm127 0h1v1h-1zm-170 1h1v1h-1zm9 0h1v1h-1zm25 0h1v1h-1zm14 0h1v1h-1zm122 0h1v1h-1zm11 0h1v1h-1zm-146 1h1v1h-1zm12 0h1v1h-1zm4 0h1v1h-1zm32 0h1v1h-1zm20 0h1v1h-1zm22 0h1v1h-1zm21 0h1v1h-1zm18 0h1v1h-1zm5 0h1v1h-1zm11 0h1v1h-1zM50 148h1v1h-1zm104 0h1v1h-1zm13 1h1v1h-1zm-94 1h1v1h-1zm2 3h1v1h-1zm1 0h1v1h-1zm90 0h1v1h-1zm-102 1h1v1h-1zm15 0h1v1h-1zm21 1h1v1h-1zm91 0h1v1h-1zm23 0h1v1h-1zm-94 1h1v1h-1zm103 0h1v1h-1zm13 0h1v1h-1zm-156 1h1v1h-1zm110 0h1v1h-1zm7 1h1v1h-1zm38 0h1v1h-1zm-178 1h1v1h-1zm185 0h1v1h-1zm-146 1h1v1h-1zm82 0h1v1h-1zm41 0h1v1h-1zm21 0h1v1h-1zm-35 1h1v1h-1zm-77 2h1v1h-1z" fill="#790016"/><path d="M164 28h1v1h-1zm-35 11h1v1h-1zm25 0h1v1h-1zm-43 2h1v1h-1zm13 3h1v1h-1zm33 14h1v1h-1zm-83 91h1v1h-1zm80 3h1v1h-1zm62 2h1v1h-1zm17 0h1v1h-1zm10 0h1v2h-1zm-140 1h1v7h-1zm105 0h1v1h-1zm14 0h1v1h-1zm17 0h1v1h-1zm-155 1h1v1h-1zm159 0h1v1h-1zm-103 1h1v1h-1zm0 3h1v1h-1zm33 0h1v1h-1zm-70 2h1v1h-1z" fill="#8b301c"/><path d="M66 76h5v1h-5zm5 0h1v1h-1zm9 0h4v1h-4zm4 0h1v1h-1zm-19 3h1v1h-1zm14 0h1v1h-1zm1 2h1v3h-1zm41 2h1v1h-1zm25 0h1v1h-1zm-66 1h1v1h-1zm68 0h1v1h-1zm-28 1h1v1h-1zm-14 1h1v10h-1zm4 0h1v10h-1zm101 0h1v1h-1zM94 87h1v1h-1zm115 0h1v1h-1zM95 88h1v1h-1zm75 0h1v1h-1zm-11 2h1v1h-1zm-1 1h1v1h-1zm54 0h1v1h-1zM92 92h1v1h-1zm46 0h1v1h-1zm1 0h1v1h-1zm-20 3h1v1h-1zm51 0h1v1h-1zm-64 1h1v1h-1zm4 0h1v1h-1zm15 0h1v1h-1zm49 0h1v1h-1zm16 0h1v1h-1zm-79 1h1v1h-1zm41 0h1v1h-1zm3 0h1v1h-1zm-86 1h1v1h-1zm43 0h1v1h-1zm8 0h1v1h-1zm-50 1h1v1h-1zm15 0h1v1h-1zm27 0h1v1h-1zm45 0h1v1h-1zm6 0h1v1h-1zm-91 1h1v1h-1zm6 0h1v1h-1zm8 0h1v1h-1zm25 0h1v1h-1zm11 0h1v1h-1zm10 0h1v1h-1zm46 0h1v1h-1zm-73 11h1v1h-1zm-49 3h1v1h-1zm3 0h1v1h-1zm51 0h1v14h-1zm-58 2h1v1h-1zm11 0h1v1h-1zm3 0h1v1h-1zm63 0h1v1h-1zm4 0h1v1h-1zm8 0h1v1h-1zm86 0h1v1h-1zm-176 1h1v1h-1zm16 0h1v1h-1zm109 0h1v1h-1zm-45 1h1v1h-1zm51 0h1v1h-1zm16 0h1v1h-1zm6 1h1v1h-1zm-99 1h1v1h-1zm33 0h1v10h-1zm-89 1h1v1h-1zm53 0h1v1h-1zm31 0h1v1h-1zm39 0h1v1h-1zm21 0h1v1h-1zm28 0h1v1h-1zm-160 1h1v1h-1zm5 0h1v1h-1zm28 0h1v1h-1zm82 0h1v1h-1zm48 0h1v1h-1zm-170 1h1v3h-1zm41 1h1v1h-1zm9 0h1v1h-1zm74 0h1v1h-1zm42 0h1v1h-1zm-159 1h1v1h-1zm5 0h1v1h-1zm64 0h1v1h-1zm42 0h1v1h-1zm-118 1h1v1h-1zm139 0h1v1h-1zm-23 1h1v2h-1zm8 0h1v1h-1zm-68 1h1v1h-1zm68 0h1v1h-1zm-45 1h1v1h-1zm10 0h1v1h-1zm27 0h1v1h-1zm1 0h1v1h-1zm3 0h1v1h-1zm8 0h1v1h-1zm36 0h1v1h-1zm9 0h1v1h-1zm-176 1h1v1h-1zm46 0h1v1h-1zm37 0h1v1h-1zm4 0h1v1h-1zm14 0h1v1h-1zm9 0h1v1h-1zm25 1h1v1h-1zm-2 1h1v1h-1zm8 0h1v1h-1zm-124 1h4v1h-4zm4 0h1v1h-1zm17 0h5v1h-5zm5 0h1v1h-1zm11 0h6v1h-6zm6 0h1v1h-1zm4 0h4v1h-4zm4 0h1v1h-1zm6 0h3v1h-3zm3 0h1v1h-1zm15 0h3v1h-3zm3 0h1v1h-1zm9 0h1v1h-1zm6 0h10v1h-10zm10 0h1v1h-1zm6 0h1v1h-1zm33 0h4v1h-4zm4 0h1v1h-1zm4 0h3v1h-3zm3 0h1v1h-1zm7 0h4v1h-4zm4 0h1v1h-1z" fill="#76000c"/><path d="M83 80h1v1h-1zm7 3h1v1h-1zm104 2h1v11h-1zm0 11h1v1h-1zm-97 1h1v1h-1zm26 1h1v1h-1zm-12 13h1v1h-1zm33 8h1v9h-1zm-94 3h1v1h-1zm0 3h1v1h-1zm86 0h1v1h-1zm8 3h1v1h-1z" fill="#b3848a"/><path d="M168 82h1v1h-1zm-32 3h1v4h-1zm50 0h1v1h-1zm0 1h1v1h-1zm-93 1h1v1h-1zm74 0h1v1h-1zm44 1h1v1h-1zM91 89h1v1h-1zm45 0h1v1h-1zm-15 1h1v1h-1zm15 2h1v4h-1zm34 1h1v1h-1zm-46 2h1v1h-1zm34 0h1v1h-1zm-78 1h1v1h-1zm56 0h1v1h-1zm-29 14h1v1h-1zm4 0h1v1h-1zm-22 1h1v1h-1zm16 3h1v1h-1zm1 2h1v1h-1zm94 0h1v1h-1zm-96 1h1v1h-1zm50 1h1v1h-1zm39 0h1v1h-1zm-9 1h1v1h-1zm16 0h1v1h-1zm0 9h1v1h-1zm-14 1h1v1h-1zm45 0h1v1h-1zm-171 1h1v1h-1zm123 0h1v1h-1zm-29 1h1v1h-1zm-95 1h1v1h-1z" fill="#ae737c"/><path d="M122 25h1v1h-1zm39 0h1v1h-1zm-23 3h1v1h-1zm25 0h1v1h-1zm2 3h1v1h-1zm-37 4h2v1h-2zm2 0h1v1h-1zm23 0h1v1h-1zm-39 3h1v1h-1zm12 1h1v1h-1zm6 0h1v1h-1zm19 0h1v1h-1zm-27 3h1v1h-1zm50 4h1v1h-1zM53 151h1v1h-1zm3 0h1v1h-1zm102 0h1v1h-1zm-83 1h1v1h-1zm1 0h1v1h-1zm75 0h1v8h-1zm15 0h1v1h-1zm72 2h1v1h-1zm-140 1h1v2h-1zm13 0h1v1h-1zm76 0h1v1h-1zm11 0h1v1h-1zm5 0h1v1h-1zm8 0h1v1h-1zm5 0h1v3h-1zm16 0h1v1h-1zm-163 1h1v1h-1zm1 0h1v1h-1zm11 0h1v1h-1zm16 0h1v1h-1zm10 0h2v1h-2zm2 0h1v1h-1zm13 0h1v1h-1zm3 0h1v1h-1zm11 0h1v1h-1zm22 0h2v1h-2zm23 0h1v1h-1zm11 0h1v1h-1zm7 0h1v1h-1zm18 0h1v1h-1zm13 0h1v1h-1zm1 0h1v1h-1zm-133 1h1v1h-1zm8 0h1v1h-1zm31 0h1v1h-1zm67 0h2v1h-2zm2 0h1v1h-1zm23 0h1v1h-1zm-162 1h1v1h-1zm104 0h1v1h-1zm3 0h1v1h-1zm32 0h2v1h-2zm2 0h1v1h-1zm8 0h1v2h-1zm-132 1h1v1h-1zm121 0h1v1h-1zm-68 1h1v1h-1zm14 0h1v1h-1zm5 0h1v1h-1zm3 0h1v1h-1zm57 0h1v1h-1zm-121 1h2v1h-2zm2 0h1v1h-1zm26 0h1v1h-1zm11 0h1v1h-1zm24 0h1v1h-1zm14 0h1v1h-1zm13 0h1v1h-1zm14 0h1v1h-1zm-100 1h1v1h-1zm28 0h1v1h-1zm44 0h1v1h-1zm5 0h1v1h-1zm17 0h1v1h-1zm5 0h1v1h-1zm9 0h1v1h-1z" fill="#f4bc30"/><path d="M122 26h1v1h-1zm16 3h1v1h-1zm7 0h1v1h-1zm-27 3h1v1h-1zm47 0h1v1h-1zm-40 8h1v1h-1zm34 1h1v1h-1zm11 0h1v1h-1zm-48 3h1v1h-1zm-17 4h1v7h-1zm20 0h1v7h-1zm-20 7h1v1h-1zm20 0h1v1h-1zm-73 95h1v1h-1zm113 1h1v1h-1zm-15 1h1v8h-1zm-90 1h1v4h-1zm98 0h1v1h-1zm-34 1h1v1h-1zm-55 1h1v1h-1zm13 0h1v1h-1zm22 0h1v1h-1zm-11 1h1v1h-1zm13 0h1v1h-1zm31 0h1v1h-1zm61 0h1v1h-1zm23 0h1v1h-1zm-161 1h1v1h-1zm6 0h1v1h-1zm66 0h1v1h-1zm49 0h1v1h-1zm-95 1h1v1h-1zm6 0h1v1h-1zm13 0h1v2h-1zm26 0h1v1h-1zm7 0h1v2h-1zm21 0h1v1h-1zm69 0h1v1h-1zm-136 1h1v1h-1zm106 0h1v1h-1zm10 0h1v1h-1zm-124 1h1v1h-1zm21 0h1v1h-1zm33 0h1v1h-1zm12 0h1v1h-1zm65 0h1v1h-1zm-122 1h1v1h-1zm64 0h1v1h-1zm-32 1h1v1h-1zm71 0h1v1h-1zm22 0h1v1h-1z" fill="#ffd033"/><path d="M67 79h1v1h-1zm16 0h1v1h-1zm53 5h1v1h-1zm-44 2h1v1h-1zm-3 2h1v7h-1zm118 2h1v1h-1zm-83 1h1v1h-1zm29 1h1v1h-1zm-31 1h1v1h-1zm-23 1h1v3h-1zm72 0h1v1h-1zm-90 1h1v1h-1zm8 0h1v1h-1zm10 2h1v1h-1zm67 0h1v1h-1zm42 0h1v1h-1zm-64 1h1v1h-1zm-53 16h1v14h-1zm14 1h1v1h-1zm23 1h1v1h-1zm26 1h1v1h-1zm70 0h1v1h-1zm-96 3h1v1h-1zm42 1h1v1h-1zm-72 1h1v1h-1zm103 1h1v1h-1zm25 0h1v1h-1zm-25 1h1v1h-1zm-110 4h1v1h-1zm-30 1h1v1h-1z" fill="#c29ca1"/><path d="M81 80h1v1h-1zm2 13h1v1h-1zm-2 1h1v1h-1zm39 1h1v1h-1zm104 21h2v1h-2zm2 0h1v1h-1zm-97 1h1v1h-1zm88 1h1v1h-1zm-164 3h1v1h-1zm76 1h1v1h-1zm-64 1h1v1h-1zm0 1h1v1h-1zm158 1h1v1h-1zm3 0h1v1h-1zm-173 1h1v1h-1zm24 0h1v1h-1zm93 0h1v1h-1zm16 0h1v1h-1zm-89 1h1v1h-1zm75 1h1v1h-1zm21 1h1v1h-1zm-17 2h1v1h-1z" fill="#a76972"/><path d="M177 83h1v1h-1zm-85 2h1v1h-1zm52 1h1v1h-1zm-50 2h1v1h-1zm62 9h1v1h-1zm-65 1h1v1h-1zm-38 18h1v1h-1zm166 1h1v2h-1zm-20 1h1v1h-1zm20 1h1v1h-1zm-43 1h1v1h-1zm8 0h1v1h-1zm16 0h1v1h-1zm18 0h1v1h-1zm-140 1h1v1h-1zm50 0h1v1h-1zm76 2h1v1h-1zm0 1h1v1h-1zm-73 1h1v1h-1zm-81 2h1v1h-1zm123 0h1v1h-1zm27 0h1v1h-1zm22 0h1v1h-1zm-129 2h1v1h-1zm41 0h1v1h-1zm-67 2h1v1h-1zm166 0h1v1h-1zm-129 1h1v1h-1zm8 0h1v1h-1zm24 0h1v1h-1zm86 0h1v1h-1zm11 0h1v1h-1z" fill="#8a2d3c"/><path d="M211 97h1v1h-1zm-55 21h1v1h-1zm15 8h1v1h-1z" fill="#8c3e46"/><path d="M122 24h1v1h-1zm14 0h1v1h-1zm25 0h1v1h-1zm-25 1h1v1h-1zm11 0h1v1h-1zm-27 3h1v1h-1zm25 0h1v1h-1zm-27 3h1v1h-1zm22 0h1v1h-1zm-23 2h1v1h-1zm49 0h1v1h-1zm-50 2h1v1h-1zm39 0h1v1h-1zm12 0h1v1h-1zm-40 2h1v1h-1zm29 0h1v1h-1zm-24 1h1v1h-1zm19 0h1v1h-1zm6 1h1v1h-1zm13 1h1v1h-1zm-17 1h1v8h-1zm6 1h1v1h-1zm13 1h1v1h-1zm-50 2h1v1h-1zm-13 1h1v1h-1zm44 3h1v1h-1zm3 101h1v1h-1zm10 0h1v1h-1zm-107 1h1v1h-1zm64 0h1v3h-1zm28 0h1v1h-1zm13 0h1v1h-1zm-106 1h1v1h-1zm65 2h1v1h-1zm-35 1h1v1h-1zm39 0h1v1h-1zm10 0h1v1h-1zm-51 1h1v1h-1zm8 0h1v1h-1zm5 0h1v1h-1zm67 0h1v6h-1zm5 0h1v1h-1zm12 0h1v1h-1zm3 0h1v1h-1zm1 0h1v1h-1zm7 0h1v1h-1zm3 0h1v1h-1zm23 0h1v1h-1zm7 0h1v6h-1zm-140 1h1v1h-1zm5 0h1v1h-1zm31 0h1v3h-1zm8 0h1v1h-1zm91 0h1v1h-1zm-124 1h1v1h-1zm84 0h1v1h-1zm-23 1h1v1h-1zm17 0h1v1h-1zm6 0h1v1h-1zm25 0h1v1h-1zm-149 1h1v1h-1zm65 0h1v1h-1zm8 0h1v1h-1zm44 0h1v1h-1zm33 0h1v1h-1zm-83 1h1v1h-1zm46 0h1v1h-1zm13 0h1v1h-1zm3 0h1v1h-1zm5 0h1v1h-1zm25 0h1v1h-1zm3 0h1v1h-1zm1 0h1v1h-1zm-165 1h1v1h-1zm1 0h1v1h-1zm37 0h1v1h-1zm10 0h1v1h-1zm29 0h1v1h-1zm4 0h1v1h-1zm17 0h2v1h-2zm2 0h1v1h-1zm10 0h1v1h-1zm16 0h1v1h-1zm1 0h1v1h-1zm4 0h1v1h-1zm29 0h1v1h-1zm5 0h1v1h-1zm6 0h1v1h-1z" fill="#fac531"/></svg>