<svg xmlns="http://www.w3.org/2000/svg" role="img" viewBox="-5.63 -5.63 293.02 58.02"><title>University of Nicosia logo</title><path d="M39 31h1v1h-1zM3 34h1v1H3zm2 3h1v1H5zm31 0h1v1h-1zm-1 1h1v1h-1zm-2 2h1v1h-1zM9 41h1v1H9zm21 1h1v1h-1zm-2 1h1v1h-1zm-3 1h1v1h-1z" fill="#c1303f"/><g fill="#fff"><path d="M0 0h41v1H0zm41 0h1v1h-1zM0 1h1v27H0zm16 0h3v21h-3zm3 0h1v24h-1zm22 0h1v26h-1zM1 3h1v4H1zm1 1h1v4H2zm1 1h1v4H3zm1 1h1v4H4z"/><path d="M1 7h4v1H1zm4 0h1v4H5z"/><path d="M2 8h4v1H2zm4 0h1v4H6z"/><path d="M3 9h4v1H3zm4 0h1v4H7z"/><path d="M4 10h4v1H4zm4 0h1v4H8z"/><path d="M5 11h4v1H5zm4 0h1v4H9z"/><path d="M6 12h4v1H6zm4 0h1v4h-1z"/><path d="M7 13h4v1H7zm4 0h1v4h-1zm177 0h1v1h-1zm1 0h1v1h-1zm1 0h1v1h-1zm1 0h1v1h-1z"/><path d="M8 14h4v1H8zm4 0h1v4h-1zm174 0h1v1h-1zm1 0h2v1h-2zm2 0h1v1h-1zm1 0h1v1h-1zm1 0h1v1h-1z"/><path d="M9 15h4v1H9zm4 0h1v4h-1zm56 0h1v1h-1zm117 0h1v1h-1zm1 0h1v1h-1zm1 0h1v1h-1zm2 0h1v1h-1zm1 0h1v1h-1zm4 0h1v1h-1z"/><path d="M10 16h9v1h-9zm44 0h1v1h-1zm1 0h1v1h-1zm1 0h1v1h-1zm7 0h2v1h-2zm2 0h1v1h-1zm4 0h1v14h-1zm1 0h1v1h-1zm10 0h1v1h-1zm1 0h1v1h-1zm1 0h1v1h-1zm4 0h1v1h-1zm1 0h1v1h-1zm1 0h1v1h-1zm3 0h1v2h-1zm1 0h1v1h-1zm1 0h1v1h-1zm8 0h1v1h-1zm1 0h1v1h-1zm1 0h1v1h-1zm1 0h2v1h-2zm2 0h1v1h-1zm1 0h6v1h-6zm6 0h1v1h-1zm1 0h1v1h-1zm4 0h1v1h-1zm1 0h2v1h-2zm2 0h1v1h-1zm1 0h1v1h-1zm10 0h1v1h-1zm1 0h1v1h-1zm1 0h1v1h-1zm1 0h1v1h-1zm1 0h1v1h-1zm6 0h1v1h-1zm1 0h1v1h-1zm1 0h1v1h-1zm3 0h8v1h-8zm8 0h1v1h-1zm2 0h1v1h-1zm1 0h1v1h-1zm1 0h1v1h-1zm7 0h1v1h-1zm1 0h1v1h-1zm1 0h1v2h-1zm17 0h1v1h-1zm1 0h1v1h-1zm1 0h1v1h-1zm3 0h1v1h-1zm1 0h1v1h-1zm4 0h1v14h-1zm1 0h1v1h-1zm10 0h2v1h-2zm2 0h1v1h-1zm4 0h1v1h-1zm1 0h1v1h-1zm1 0h1v1h-1zm1 0h1v1h-1zm8 0h1v1h-1zm1 0h1v1h-1zm1 0h1v1h-1zm1 0h1v1h-1zm1 0h1v1h-1zm1 0h1v1h-1zm10 0h1v1h-1zm1 0h1v1h-1zm1 0h1v1h-1zm1 0h1v1h-1zm1 0h1v1h-1zm11 0h1v1h-1zm1 0h1v1h-1zm1 0h1v1h-1zm1 0h1v1h-1zm1 0h1v1h-1zm6 0h1v1h-1zm1 0h1v1h-1zm1 0h1v1h-1zm9 0h1v1h-1zm1 0h1v1h-1zM11 17h8v1h-8zm43 0h1v9h-1zm1 0h1v10h-1zm1 0h1v12h-1zm7 0h1v8h-1zm1 0h1v11h-1zm1 0h1v10h-1zm5 0h1v13h-1zm1 0h1v1h-1zm9 0h1v12h-1zm1 0h1v13h-1zm1 0h1v14h-1zm4 0h1v13h-1zm1 0h1v13h-1zm1 0h1v13h-1zm4 0h1v1h-1zm1 0h1v3h-1zm1 0h1v1h-1zm7 0h1v1h-1zm1 0h1v2h-1zm1 0h1v1h-1zm1 0h1v1h-1zm2 0h1v13h-1zm1 0h6v1h-6zm6 0h1v1h-1zm1 0h1v1h-1zm4 0h1v13h-1zm1 0h3v1h-3zm3 0h1v1h-1zm1 0h1v1h-1zm1 0h1v1h-1zm1 0h1v1h-1zm6 0h1v1h-1zm1 0h4v1h-4zm4 0h1v1h-1zm1 0h1v1h-1zm5 0h1v13h-1zm1 0h1v13h-1zm1 0h1v13h-1zm3 0h8v1h-8zm8 0h1v1h-1zm2 0h1v1h-1zm1 0h1v1h-1zm1 0h1v2h-1zm1 0h1v1h-1zm5 0h1v1h-1zm1 0h1v2h-1zm1 0h1v1h-1zm18 0h1v1h-1zm1 0h1v1h-1zm10 0h1v13h-1zm1 0h1v1h-1zm9 0h2v1h-2zm2 0h1v14h-1zm4 0h1v13h-1zm1 0h1v13h-1zm1 0h1v13h-1zm1 0h1v13h-1zm6 0h1v1h-1zm1 0h1v1h-1zm1 0h5v1h-5zm5 0h1v1h-1zm1 0h1v1h-1zm6 0h1v1h-1zm1 0h1v1h-1zm1 0h1v1h-1zm1 0h4v1h-4zm4 0h1v1h-1zm1 0h1v1h-1zm1 0h1v1h-1zm8 0h1v1h-1zm1 0h4v1h-4zm4 0h1v1h-1zm1 0h1v1h-1zm5 0h1v13h-1zm1 0h1v13h-1zm1 0h1v13h-1zm9 0h1v1h-1zm1 0h1v1h-1zm1 0h1v1h-1zM12 18h7v1h-7zm59 0h1v12h-1zm1 0h1v1h-1zm19 0h1v1h-1zm1 0h1v1h-1zm2 0h1v1h-1zm6 0h1v1h-1zm1 0h1v1h-1zm2 0h1v1h-1zm4 0h6v1h-6zm6 0h1v1h-1zm1 0h1v1h-1zm5 0h5v1h-5zm5 0h1v1h-1zm1 0h1v1h-1zm5 0h1v1h-1zm1 0h2v1h-2zm2 0h4v1h-4zm4 0h1v1h-1zm1 0h1v1h-1zm9 0h8v1h-8zm8 0h1v1h-1zm2 0h1v1h-1z"/><path d="M158 18h2v1h-2zm2 0h1v1h-1zm1 0h1v1h-1zm4 0h1v1h-1zm2 0h1v1h-1zm1 0h1v1h-1zm16 0h1v1h-1zm1 0h1v2h-1zm1 0h1v3h-1zm11 0h1v12h-1zm1 0h1v1h-1zm8 0h2v1h-2zm14 0h1v1h-1zm1 0h1v1h-1zm1 0h2v1h-2zm2 0h1v1h-1zm1 0h1v1h-1zm1 0h1v1h-1zm1 0h2v1h-2zm2 0h1v1h-1zm5 0h1v1h-1zm1 0h1v1h-1zm1 0h2v1h-2zm2 0h1v1h-1zm1 0h1v1h-1zm1 0h1v1h-1zm1 0h3v1h-3zm3 0h1v1h-1zm1 0h1v1h-1zm6 0h1v1h-1zm1 0h2v1h-2zm2 0h4v1h-4zm4 0h1v1h-1zm1 0h1v1h-1zm14 0h1v1h-1zm1 0h1v2h-1zm1 0h1v2h-1zm1 0h1v1h-1zM13 19h6v1h-6zm59 0h1v1h-1zm1 0h1v1h-1zm19 0h1v1h-1zm2 0h1v1h-1zm1 0h1v1h-1zm5 0h1v1h-1zm1 0h1v2h-1zm1 0h1v1h-1zm1 0h1v1h-1zm4 0h1v11h-1zm1 0h1v11h-1zm11 0h1v11h-1zm1 0h1v3h-1zm1 0h1v1h-1zm1 0h1v1h-1zm1 0h1v1h-1zm1 0h1v1h-1zm1 0h1v3h-1zm1 0h1v1h-1zm4 0h1v2h-1zm1 0h1v3h-1zm1 0h1v2h-1zm1 0h2v1h-2zm2 0h1v1h-1zm1 0h1v1h-1zm1 0h1v1h-1zm1 0h1v1h-1zm12 0h2v1h-2zm2 0h1v11h-1zm6 0h1v1h-1zm1 0h1v1h-1zm1 0h1v2h-1zm1 0h1v1h-1zm3 0h1v1h-1zm1 0h1v2h-1zm1 0h1v1h-1zm1 0h1v1h-1zm17 0h1v1h-1zm14 0h1v1h-1zm1 0h1v1h-1zm7 0h2v1h-2zm13 0h1v1h-1zm1 0h1v1h-1zm1 0h1v1h-1zm1 0h1v1h-1zm1 0h1v1h-1zm1 0h1v1h-1zm3 0h1v1h-1zm1 0h1v1h-1zm1 0h1v1h-1zm4 0h1v1h-1zm1 0h1v1h-1zm1 0h1v1h-1zm1 0h1v1h-1zm1 0h1v1h-1zm1 0h1v1h-1zm4 0h1v1h-1zm1 0h1v1h-1zm1 0h1v1h-1zm1 0h1v2h-1zm1 0h1v1h-1zm5 0h1v2h-1zm1 0h1v3h-1zm1 0h1v2h-1zm1 0h2v1h-2zm2 0h1v1h-1zm1 0h1v1h-1zm1 0h1v1h-1zm1 0h1v1h-1zm14 0h1v1h-1zm3 0h1v1h-1zM14 20h5v1h-5zm58 0h1v1h-1zm1 0h1v1h-1zm1 0h1v1h-1zm18 0h1v1h-1zm1 0h1v1h-1zm1 0h1v3h-1zm1 0h1v1h-1z"/><path d="M100 20h2v1h-2zm2 0h1v1h-1zm22 0h1v1h-1zm2 0h1v1h-1zm10 0h1v1h-1zm14 0h2v1h-2zm9 0h1v1h-1zm2 0h1v2h-1zm1 0h1v1h-1zm2 0h1v1h-1zm2 0h1v1h-1zm1 0h1v1h-1zm9 0h1v1h-1zm1 0h1v1h-1zm1 0h1v1h-1zm1 0h1v1h-1zm3 0h1v1h-1zm1 0h1v2h-1zm1 0h1v3h-1zm1 0h1v1h-1zm2 0h1v1h-1zm1 0h1v1h-1zm10 0h1v1h-1zm1 0h1v1h-1zm1 0h1v1h-1zm6 0h2v1h-2zm13 0h1v1h-1zm1 0h1v3h-1zm1 0h1v1h-1zm1 0h1v1h-1zm7 0h1v1h-1zm4 0h1v1h-1zm1 0h1v7h-1zm1 0h1v1h-1zm1 0h1v1h-1zm7 0h1v1h-1zm1 0h2v1h-2zm2 0h1v1h-1zm1 0h1v1h-1zm10 0h1v1h-1zm15 0h1v1h-1zm1 0h3v1h-3zm3 0h1v2h-1zm1 0h1v1h-1zM15 21h4v1h-4zm57 0h1v1h-1zm1 0h1v1h-1zm1 0h1v1h-1zm1 0h1v1h-1zm18 0h1v1h-1zm2 0h1v1h-1zm4 0h1v1h-1zm1 0h1v3h-1zm1 0h1v1h-1zm1 0h1v1h-1zm22 0h1v1h-1zm2 0h1v1h-1zm4 0h1v1h-1zm2 0h1v2h-1zm1 0h1v1h-1zm17 0h2v1h-2zm9 0h1v1h-1zm1 0h1v1h-1zm2 0h1v1h-1zm1 0h1v1h-1zm1 0h1v2h-1zm1 0h1v1h-1zm1 0h1v1h-1zm8 0h1v1h-1zm1 0h1v2h-1zm1 0h1v1h-1zm1 0h1v1h-1zm1 0h1v1h-1zm1 0h1v3h-1zm1 0h1v1h-1zm2 0h1v1h-1zm3 0h1v1h-1zm1 0h1v1h-1zm1 0h1v1h-1zm1 0h1v1h-1zm10 0h1v1h-1zm1 0h1v1h-1zm1 0h1v1h-1zm1 0h1v1h-1zm5 0h2v1h-2zm12 0h1v1h-1zm1 0h1v5h-1zm2 0h1v1h-1zm12 0h1v1h-1zm2 0h1v1h-1zm9 0h1v1h-1zm1 0h1v1h-1zm1 0h1v5h-1zm1 0h1v1h-1zm4 0h1v1h-1zm2 0h1v2h-1zm1 0h1v1h-1zm18 0h1v1h-1zm1 0h1v2h-1zm1 0h1v1h-1z"/><path d="M275 21h2v1h-2zm2 0h1v1h-1zM16 22h3v1h-3zm56 0h1v1h-1zm1 0h2v1h-2zm2 0h1v2h-1zm1 0h1v1h-1zm17 0h1v1h-1zm2 0h1v3h-1zm1 0h1v1h-1zm3 0h1v1h-1zm2 0h1v1h-1zm1 0h1v1h-1zm7 0h4v1h-4zm4 0h1v1h-1zm1 0h1v1h-1zm6 0h1v1h-1zm3 0h1v1h-1zm1 0h1v1h-1zm1 0h1v1h-1zm1 0h1v1h-1zm4 0h1v1h-1zm1 0h2v1h-2zm2 0h1v1h-1zm1 0h1v1h-1zm1 0h1v1h-1zm15 0h2v1h-2zm10 0h1v1h-1zm1 0h1v1h-1zm1 0h2v8h-2zm3 0h1v1h-1zm9 0h1v1h-1zm2 0h2v1h-2zm2 0h1v1h-1zm2 0h1v1h-1zm3 0h1v1h-1zm2 0h1v1h-1zm13 0h1v8h-1zm1 0h1v1h-1zm1 0h1v1h-1zm1 0h1v1h-1zm1 0h1v1h-1zm4 0h2v1h-2zm12 0h1v3h-1zm3 0h1v1h-1zm11 0h1v1h-1zm1 0h1v4h-1zm2 0h1v1h-1zm10 0h1v1h-1zm2 0h1v1h-1zm4 0h1v1h-1zm1 0h2v1h-2zm2 0h1v1h-1zm1 0h1v1h-1zm1 0h1v1h-1zm15 0h1v1h-1zm1 0h1v1h-1zm2 0h1v1h-1zm1 0h1v1h-1zm1 0h1v1h-1zm1 0h1v5h-1zm1 0h1v1h-1zM17 23h2v1h-2zm56 0h1v1h-1z"/><path d="M74 23h2v1h-2zm2 0h1v1h-1zm1 0h1v1h-1zm16 0h1v1h-1zm1 0h1v1h-1zm2 0h1v1h-1zm2 0h1v1h-1zm1 0h1v3h-1zm2 0h1v1h-1zm8 0h4v1h-4zm4 0h1v1h-1zm1 0h1v1h-1zm6 0h1v2h-1zm1 0h1v1h-1zm1 0h1v1h-1zm1 0h1v1h-1zm1 0h1v1h-1zm1 0h1v1h-1zm1 0h1v1h-1zm5 0h1v1h-1zm1 0h1v1h-1zm1 0h2v1h-2zm2 0h1v1h-1zm1 0h1v1h-1zm1 0h1v1h-1zm13 0h2v1h-2zm10 0h1v1h-1zm1 0h1v1h-1zm3 0h1v1h-1zm1 0h1v1h-1zm8 0h1v1h-1zm1 0h1v1h-1zm1 0h1v1h-1zm3 0h2v1h-2zm2 0h1v1h-1zm3 0h1v1h-1zm1 0h1v1h-1zm15 0h1v1h-1zm1 0h1v1h-1zm1 0h1v1h-1zm1 0h1v1h-1zm1 0h1v1h-1zm3 0h2v1h-2zm14 0h1v5h-1zm12 0h1v1h-1zm3 0h1v1h-1zm10 0h1v1h-1zm2 0h1v2h-1zm5 0h1v1h-1zm1 0h1v1h-1zm1 0h2v1h-2zm2 0h1v1h-1zm1 0h1v1h-1zm1 0h1v1h-1zm13 0h1v1h-1zm1 0h1v4h-1zm1 0h1v1h-1zm1 0h1v1h-1zm2 0h1v1h-1zm2 0h1v1h-1zM18 24h1v1h-1zm56 0h1v1h-1zm1 0h2v1h-2zm2 0h1v1h-1zm1 0h1v1h-1zm16 0h1v1h-1zm2 0h1v1h-1zm1 0h1v1h-1zm1 0h1v1h-1zm2 0h1v1h-1zm1 0h1v1h-1zm8 0h4v1h-4zm4 0h1v1h-1zm1 0h1v1h-1zm7 0h2v1h-2zm2 0h1v3h-1zm1 0h1v1h-1zm1 0h1v1h-1zm8 0h1v1h-1zm1 0h1v1h-1zm1 0h1v1h-1zm1 0h1v1h-1zm1 0h1v1h-1zm1 0h1v1h-1zm12 0h2v1h-2zm11 0h1v1h-1zm3 0h1v1h-1zm9 0h1v1h-1zm1 0h1v1h-1zm1 0h1v1h-1zm3 0h1v1h-1zm1 0h1v1h-1zm1 0h1v1h-1zm2 0h1v1h-1zm1 0h1v2h-1zm1 0h1v1h-1zm16 0h1v1h-1zm1 0h1v1h-1zm1 0h1v1h-1zm1 0h1v1h-1zm1 0h1v1h-1zm2 0h2v1h-2zm26 0h1v1h-1zm13 0h1v1h-1zm9 0h1v1h-1zm1 0h1v1h-1zm1 0h1v1h-1zm1 0h1v1h-1zm1 0h1v1h-1zm1 0h1v1h-1zm11 0h1v1h-1zm1 0h1v1h-1zm2 0h1v1h-1zm3 0h1v1h-1zm2 0h1v3h-1zm1 0h1v1h-1zM19 25h1v1h-1zm38 0h1v1h-1zm6 0h1v1h-1zm12 0h1v1h-1zm1 0h1v1h-1zm1 0h1v1h-1zm1 0h1v1h-1zm1 0h1v1h-1zm15 0h1v1h-1zm1 0h1v1h-1zm1 0h1v2h-1zm1 0h1v1h-1zm1 0h1v1h-1zm2 0h1v1h-1zm20 0h1v1h-1zm1 0h1v1h-1zm1 0h1v1h-1zm13 0h1v1h-1zm1 0h1v1h-1zm1 0h1v4h-1zm1 0h1v1h-1zm12 0h2v1h-2zm14 0h1v5h-1zm9 0h1v2h-1zm1 0h1v1h-1zm3 0h1v1h-1zm1 0h1v1h-1zm1 0h1v1h-1zm3 0h1v1h-1zm2 0h1v1h-1zm17 0h1v1h-1zm1 0h1v1h-1zm1 0h1v1h-1zm1 0h1v1h-1zm1 0h1v1h-1zm1 0h2v1h-2zm12 0h1v1h-1zm3 0h1v1h-1zm11 0h1v1h-1zm3 0h1v1h-1zm10 0h2v1h-2zm2 0h1v1h-1zm9 0h1v1h-1zm1 0h1v1h-1zm1 0h1v4h-1zm1 0h1v1h-1zm11 0h1v1h-1zm1 0h1v2h-1zm2 0h1v1h-1zm1 0h2v1h-2zm2 0h1v1h-1zm3 0h1v1h-1zM54 26h1v1h-1zm3 0h1v1h-1zm6 0h1v1h-1zm13 0h1v1h-1zm1 0h1v1h-1zm1 0h3v1h-3z"/><path d="M95 26h2v1h-2zm2 0h1v1h-1zm1 0h1v3h-1zm1 0h1v1h-1zm1 0h1v1h-1zm20 0h1v4h-1zm1 0h1v1h-1zm1 0h1v1h-1zm2 0h1v1h-1zm6 0h1v1h-1zm1 0h1v1h-1zm5 0h1v1h-1zm2 0h1v1h-1zm12 0h2v1h-2zm22 0h1v1h-1zm2 0h1v1h-1zm3 0h1v1h-1zm1 0h1v1h-1zm1 0h1v1h-1zm3 0h1v1h-1zm1 0h1v1h-1zm1 0h1v1h-1zm18 0h1v1h-1zm1 0h1v1h-1zm1 0h1v1h-1zm1 0h2v1h-2zm2 0h1v4h-1zm11 0h1v1h-1zm1 0h1v1h-1zm2 0h1v1h-1zm11 0h1v1h-1zm1 0h1v1h-1zm2 0h1v1h-1zm9 0h1v1h-1zm1 0h1v2h-1zm1 0h1v1h-1zm1 0h1v1h-1zm4 0h1v1h-1zm1 0h1v1h-1zm5 0h1v1h-1zm2 0h1v1h-1zm11 0h1v1h-1zm3 0h6v1h-6zm6 0h1v3h-1zm1 0h1v1h-1zM41 27h1v1h-1zm13 0h1v1h-1zm1 0h1v1h-1zm2 0h1v1h-1zm5 0h1v1h-1zm1 0h1v2h-1zm2 0h1v1h-1zm12 0h1v1h-1zm1 0h3v1h-3zm17 0h1v1h-1zm1 0h2v1h-2zm3 0h1v1h-1zm23 0h1v1h-1zm1 0h1v1h-1zm1 0h1v2h-1zm1 0h1v1h-1zm4 0h1v1h-1zm1 0h1v1h-1zm1 0h1v2h-1zm1 0h1v1h-1zm4 0h1v1h-1zm2 0h1v1h-1zm12 0h2v1h-2zm22 0h1v1h-1zm1 0h1v1h-1zm1 0h1v1h-1zm2 0h1v1h-1zm1 0h1v1h-1zm1 0h1v1h-1zm4 0h1v1h-1zm1 0h1v1h-1zm20 0h1v1h-1zm1 0h1v1h-1zm1 0h2v1h-2zm14 0h1v1h-1zm2 0h1v1h-1zm1 0h1v1h-1zm7 0h1v1h-1zm4 0h1v1h-1zm1 0h1v1h-1zm1 0h1v1h-1zm1 0h1v1h-1zm7 0h1v1h-1zm1 0h1v1h-1zm2 0h1v1h-1zm1 0h1v1h-1zm3 0h1v1h-1zm1 0h1v1h-1zm1 0h1v2h-1zm1 0h1v1h-1zm4 0h1v1h-1zm2 0h1v1h-1zm10 0h1v1h-1zm1 0h9v1h-9zm10 0h1v1h-1zM0 28h1v1H0zm41 0h1v1h-1zm14 0h2v1h-2zm2 0h1v2h-1zm1 0h1v1h-1zm3 0h1v1h-1zm1 0h1v1h-1zm2 0h1v1h-1zm1 0h1v1h-1zm13 0h1v1h-1zm1 0h2v1h-2zm16 0h1v1h-1zm1 0h1v1h-1zm1 0h1v2h-1zm2 0h1v1h-1zm23 0h1v1h-1z"/><path d="M123 28h2v1h-2zm2 0h1v1h-1zm1 0h1v1h-1zm3 0h1v1h-1zm1 0h1v1h-1zm2 0h1v1h-1zm3 0h1v1h-1zm1 0h1v1h-1zm2 0h1v1h-1zm12 0h2v1h-2zm23 0h2v1h-2zm2 0h1v1h-1zm1 0h1v1h-1zm1 0h1v1h-1zm4 0h1v1h-1zm1 0h1v2h-1zm1 0h1v1h-1zm21 0h1v1h-1zm1 0h1v1h-1zm1 0h1v1h-1zm13 0h1v1h-1zm1 0h1v1h-1zm1 0h1v1h-1zm1 0h1v2h-1zm1 0h1v1h-1zm5 0h1v1h-1zm1 0h1v2h-1zm4 0h1v1h-1zm1 0h1v1h-1zm1 0h1v1h-1zm1 0h1v1h-1zm1 0h1v1h-1zm5 0h1v1h-1zm1 0h1v1h-1zm1 0h1v1h-1zm1 0h1v1h-1zm1 0h1v1h-1zm4 0h1v1h-1zm1 0h1v1h-1zm2 0h1v1h-1zm3 0h1v1h-1zm1 0h1v1h-1zm2 0h1v1h-1zm10 0h2v1h-2zm2 0h1v1h-1zm7 0h1v1h-1zm2 0h1v1h-1zM0 29h1v1H0zm41 0h1v1h-1zm14 0h1v1h-1zm1 0h2v1h-2zm2 0h1v1h-1zm1 0h1v1h-1zm1 0h1v2h-1zm1 0h1v1h-1zm1 0h1v1h-1zm1 0h1v1h-1zm1 0h1v1h-1zm15 0h1v1h-1zm1 0h1v1h-1zm16 0h1v1h-1zm2 0h1v1h-1zm1 0h1v1h-1zm10 0h4v1h-4zm4 0h1v1h-1zm1 0h1v1h-1zm9 0h1v1h-1zm1 0h1v1h-1zm1 0h1v1h-1zm1 0h1v1h-1zm4 0h1v1h-1zm1 0h1v1h-1zm1 0h1v1h-1zm1 0h1v1h-1zm1 0h1v2h-1zm1 0h1v1h-1zm1 0h1v1h-1zm1 0h1v1h-1zm1 0h1v1h-1zm12 0h2v1h-2zm24 0h1v1h-1zm1 0h1v1h-1zm1 0h1v1h-1z"/><path d="M181 29h2v1h-2zm2 0h1v1h-1zm22 0h1v1h-1zm1 0h1v1h-1zm14 0h1v1h-1zm1 0h2v1h-2zm2 0h1v1h-1zm1 0h1v1h-1zm1 0h1v1h-1zm1 0h1v1h-1zm1 0h1v1h-1zm1 0h1v1h-1zm6 0h1v1h-1zm1 0h1v1h-1zm1 0h1v1h-1zm1 0h1v1h-1zm1 0h1v1h-1zm1 0h2v1h-2zm2 0h1v1h-1zm1 0h2v1h-2zm2 0h1v1h-1zm1 0h1v1h-1zm6 0h1v1h-1zm1 0h1v1h-1zm1 0h1v1h-1zm1 0h1v1h-1zm1 0h1v2h-1zm1 0h1v1h-1zm1 0h1v1h-1zm1 0h1v1h-1zm1 0h1v1h-1zm9 0h1v1h-1zm1 0h1v1h-1zm1 0h1v1h-1zm1 0h1v1h-1zm7 0h1v1h-1zm1 0h1v1h-1zm1 0h1v1h-1zm1 0h1v1h-1zM0 30h1v1H0zm41 0h1v1h-1zm15 0h1v1h-1zm1 0h1v1h-1zm1 0h4v1h-4zm4 0h1v1h-1zm1 0h1v1h-1zm6 0h1v1h-1zm1 0h1v1h-1zm1 0h1v1h-1zm9 0h1v1h-1zm1 0h1v1h-1zm5 0h1v1h-1zm1 0h1v1h-1zm1 0h1v1h-1zm8 0h1v1h-1zm1 0h1v1h-1zm1 0h1v1h-1zm8 0h1v1h-1zm1 0h6v1h-6zm6 0h1v1h-1zm1 0h1v1h-1zm4 0h2v1h-2zm2 0h1v1h-1zm4 0h1v1h-1zm1 0h1v1h-1zm1 0h1v1h-1zm1 0h1v1h-1zm3 0h1v1h-1zm1 0h1v1h-1zm1 0h4v1h-4zm4 0h1v1h-1zm1 0h1v1h-1zm5 0h1v1h-1zm1 0h1v1h-1zm1 0h1v1h-1zm6 0h2v1h-2zm2 0h1v1h-1zm10 0h1v1h-1zm1 0h1v1h-1zm1 0h1v1h-1zm17 0h1v1h-1zm1 0h1v1h-1zm1 0h1v1h-1zm12 0h1v1h-1zm1 0h1v1h-1zm1 0h1v1h-1zm1 0h1v1h-1zm8 0h1v1h-1zm1 0h1v1h-1zm5 0h1v1h-1zm1 0h1v1h-1zm1 0h1v1h-1zm1 0h1v1h-1zm6 0h1v1h-1zm1 0h1v1h-1zm1 0h5v1h-5zm5 0h1v1h-1zm1 0h1v1h-1zm6 0h1v1h-1zm1 0h1v1h-1zm1 0h5v1h-5zm5 0h1v1h-1zm1 0h1v1h-1zm1 0h1v1h-1zm7 0h1v1h-1zm1 0h1v1h-1z"/><path d="M253 30h4v1h-4zm4 0h1v1h-1zm1 0h1v1h-1zm5 0h1v1h-1zm1 0h1v1h-1zm1 0h1v1h-1zm3 0h1v1h-1zm1 0h1v1h-1zm1 0h1v1h-1zm9 0h2v1h-2zm2 0h1v1h-1zM0 31h1v1H0zm1 0h1v1H1zm39 0h1v1h-1zm1 0h1v1h-1zm16 0h1v1h-1zm1 0h1v1h-1zm1 0h1v1h-1zm1 0h1v1h-1zm1 0h1v1h-1zm1 0h1v1h-1zm7 0h1v1h-1zm1 0h1v1h-1zm1 0h1v1h-1zm10 0h1v1h-1zm1 0h1v1h-1zm4 0h1v1h-1zm1 0h1v1h-1zm1 0h1v1h-1zm9 0h1v1h-1zm1 0h1v1h-1zm8 0h1v1h-1zm1 0h6v1h-6zm6 0h1v1h-1zm1 0h1v1h-1zm4 0h2v1h-2zm2 0h1v1h-1zm4 0h1v1h-1zm1 0h1v1h-1zm1 0h1v1h-1zm1 0h1v1h-1zm4 0h1v1h-1zm1 0h1v1h-1zm1 0h1v1h-1zm1 0h1v1h-1zm1 0h1v1h-1zm1 0h1v1h-1zm6 0h1v1h-1zm1 0h1v1h-1zm1 0h1v1h-1zm6 0h2v1h-2zm2 0h1v1h-1zm10 0h1v1h-1zm1 0h1v1h-1zm1 0h1v1h-1zm17 0h1v1h-1zm1 0h1v1h-1zm13 0h1v1h-1zm1 0h1v1h-1zm1 0h1v1h-1zm1 0h1v1h-1zm9 0h1v1h-1zm1 0h1v1h-1zm4 0h1v1h-1zm1 0h1v1h-1zm1 0h1v1h-1zm1 0h1v1h-1zm8 0h1v1h-1zm1 0h1v1h-1zm1 0h1v1h-1zm1 0h1v1h-1zm1 0h1v1h-1zm1 0h1v1h-1zm9 0h1v1h-1zm1 0h1v1h-1zm1 0h1v1h-1zm1 0h1v1h-1zm1 0h1v1h-1zm1 0h1v1h-1zm1 0h1v1h-1zm9 0h1v1h-1zm1 0h1v1h-1zm1 0h1v1h-1zm1 0h1v1h-1zm1 0h1v1h-1zm1 0h1v1h-1zm6 0h1v1h-1zm1 0h1v1h-1zm1 0h1v1h-1zm3 0h1v1h-1zm1 0h1v1h-1zm1 0h1v1h-1zm9 0h1v1h-1zm1 0h1v1h-1zm1 0h1v1h-1zM0 32h1v1H0zm1 0h1v1H1zm39 0h1v1h-1zm1 0h1v1h-1zm41 0h1v1h-1zm15 0h1v1h-1zm80 0h1v2h-1zm1 0h2v1h-2zm2 0h2v1h-2zm2 0h1v1h-1zm26 0h1v1h-1zM1 33h1v1H1zm39 0h1v1h-1zm138 0h1v1h-1zm1 0h2v1h-2zm2 0h1v1h-1zM1 34h1v1H1zm1 0h1v1H2zm37 0h1v1h-1zm1 0h1v1h-1zm137 0h1v1h-1zm1 0h1v1h-1zm1 0h1v1h-1zm1 0h1v1h-1zM1 35h1v1H1zm1 0h1v1H2zm37 0h1v1h-1zM2 36h1v1H2zm1 0h1v1H3zm35 0h1v1h-1zm1 0h1v1h-1zM3 37h1v1H3zm34 0h1v1h-1zm1 0h1v1h-1zM3 38h1v1H3zm1 0h1v1H4zm33 0h1v1h-1zm1 0h1v1h-1zM4 39h1v1H4zm1 0h1v1H5zm31 0h1v1h-1zm1 0h1v1h-1zM5 40h1v1H5zm1 0h1v1H6zm29 0h1v1h-1zm1 0h1v1h-1zM6 41h1v1H6zm1 0h1v1H7zm27 0h1v1h-1zm1 0h1v1h-1zM7 42h1v1H7zm1 0h1v1H8zm1 0h1v1H9zm23 0h1v1h-1zm1 0h1v1h-1zm1 0h1v1h-1zM8 43h1v1H8zm1 0h1v1H9zm1 0h1v1h-1zm21 0h1v1h-1zm1 0h1v1h-1zm1 0h1v1h-1zm-23 1h1v1h-1zm1 0h1v1h-1zm1 0h1v1h-1zm1 0h1v1h-1zm15 0h1v1h-1zm1 0h1v1h-1zm1 0h1v1h-1zm1 0h1v1h-1zm-19 1h1v1h-1zm1 0h1v1h-1zm1 0h1v1h-1zm1 0h1v1h-1zm1 0h1v1h-1zm9 0h1v1h-1zm1 0h1v1h-1zm1 0h1v1h-1zm1 0h1v1h-1zm1 0h1v1h-1zm-14 1h1v1h-1zm1 0h1v1h-1zm1 0h1v1h-1zm1 0h5v1h-5zm5 0h1v1h-1zm1 0h1v1h-1zm1 0h1v1h-1zm1 0h1v1h-1z"/></g><path d="M1 1h1v1H1zm19 0h1v25h-1zm20 0h1v1h-1zM1 2h1v1H1zm1 1h1v1H2zm1 1h1v1H3zm1 1h1v1H4zm1 1h1v1H5zm1 1h1v1H6zM1 8h1v1H1zm6 0h1v1H7zm1 1h1v1H8zm1 1h1v1H9zm1 1h1v1h-1zm1 1h1v1h-1zm1 1h1v1h-1zm1 1h1v1h-1zm1 1h1v1h-1zm6 11h1v1h-1zm20 3h1v1h-1zM1 30h1v1H1zm39 0h1v1h-1zm-1 3h1v1h-1zm-1 2h1v1h-1zM4 37h1v1H4zm32 1h1v1h-1zm-1 1h1v1h-1zm-1 1h1v1h-1zM8 41h1v1H8zm25 0h1v1h-1zm-22 2h1v1h-1zm19 0h1v1h-1zm-13 2h1v1h-1zm1 0h1v1h-1zm4 0h2v1h-2zm2 0h1v1h-1z" fill="#ebcfd2"/><path d="M2 1h13v1H2zm13 0h1v1h-1zm6 0h18v1H21zm18 0h1v1h-1zm1 1h1v26h-1zM2 9h1v1H2zm1 1h1v1H3zm1 1h1v1H4zm1 1h1v1H5zm1 1h1v1H6zm1 1h1v1H7zm1 1h1v1H8zm1 1h1v1H9zm1 1h1v1h-1zm1 1h1v1h-1zm1 1h1v1h-1zm1 1h1v1h-1zm1 1h1v1h-1zm1 1h1v1h-1zm1 1h1v1h-1zm1 1h1v1h-1zm1 1h1v1h-1zm1 1h1v1h-1zM1 28h1v1H1zm39 0h1v1h-1zM1 29h1v1H1zm38 3h1v1h-1zM2 33h1v1H2zm1 2h1v1H3zm2 3h1v1H5zm1 1h1v1H6zm1 1h1v1H7zm3 2h1v1h-1zm21 0h1v1h-1zm-2 1h1v1h-1zm-15 1h1v1h-1zm13 0h1v1h-1zm-8 1h2v1h-2zm2 0h1v1h-1z" fill="#d899a0"/><path d="M2 2h13v1H2zm13 0h1v13h-1zM3 3h12v1H3zm1 1h11v1H4zm1 1h10v1H5zm1 1h9v1H6zm1 1h8v1H7zm1 1h7v1H8zm1 1h6v1H9zm1 1h5v1h-5zm1 1h4v1h-4zm1 1h3v1h-3zm1 1h2v1h-2zm1 1h1v1h-1zm1 1h1v1h-1z" fill="#59595c"/><g fill="#bc1d2d"><path d="M21 2h18v31H21zm18 0h1v28h-1zM2 10h1v21H2zm1 1h1v22H3zm1 1h1v23H4zm1 1h1v23H5zm1 1h1v24H6zm1 1h1v24H7zm1 1h1v24H8zm1 1h1v23H9zm1 1h1v23h-1zm1 1h1v23h-1zm1 1h1v22h-1zm1 1h1v22h-1zm1 1h1v21h-1zm1 1h1v20h-1zm1 1h1v20h-1zm1 1h1v19h-1zm1 1h1v18h-1z"/><path d="M19 27h20v6H19zm20 3h1v1h-1z"/><path d="M2 31h36v1H2zm1 2h35v1H3zm35 0h1v1h-1zm-19 1h18v2H19zm18 0h1v1h-1z"/><path d="M4 35h33v1H4zm33 0h1v1h-1zM5 36h31v1H5zm31 0h1v1h-1zm-17 1h16v2H19zm16 0h1v1h-1z"/><path d="M6 38h28v1H6zm1 1h27v1H7zm27 0h1v1h-1zM8 40h24v1H8zm24 0h1v1h-1zm-22 1h21v1H10zm21 0h1v1h-1zm-20 1h18v1H11zm18 0h1v1h-1zm-16 1h14v1H13zm14 0h1v1h-1zm-11 1h8v1h-8zm8 0h1v1h-1z"/></g><path d="M1 9h1v18H1zm0 18h1v1H1zm1 5h1v1H2zm36 2h1v1h-1zM4 36h1v1H4zm33 0h1v1h-1zm-5 5h1v1h-1zm-20 2h1v1h-1zm3 1h1v1h-1zm11 0h1v1h-1z" fill="#cd5865"/></svg>