<svg xmlns="http://www.w3.org/2000/svg" role="img" viewBox="-2.08 -2.08 108.03 26.03"><title>Unravel (member) logo</title><g fill="none" fill-rule="evenodd"><path fill="#41345f" d="M67.41754 17.75847L62.6416 5.01087h-4.1099l6.32574 16.5696h5.14176l5.9998-16.5696h-3.84086zM36.56636 4.49485c-2.06073 0-2.97515.59938-4.07456 1.69175-.07288-.31484-.20214-.87143-.27268-1.17651H29l.00013 16.57026c1.15046-.00026 2.30132.00039 3.45191 0-.00415 0 0-7.82373 0-8.61232 0-.38584-.0122-.77195.03625-1.15506.10366-.81993.35854-1.57692.86207-2.24196.45441-.60029 1.06823-1.08457 1.76882-1.36339.31373-.12497.64422-.20794.98042-.24136.97223-.09636 1.93874.19299 2.86122.51524.41038-1.04153 1.07486-2.14314 1.61424-2.75474a.36724.36724 0 0 0-.00949-.00572c-1.23464-.74554-2.35718-1.22619-3.99921-1.22619zm15.15518 12.80261c-.7897.90784-1.80455 1.39993-3.03984 1.48537-.1286.00897-.25735.01782-.39076.01782-1.32454 0-2.42305-.51836-3.29486-1.5556-.1199-.14486-.22773-.2987-.33022-.45619-.19915-.30625-.36868-.6337-.50496-.98496-.19278-.49663-.32074-1.03931-.38582-1.62698-.03001-.27244-.04794-.55347-.05028-.84568-.00013-.02419-.00234-.04695-.00234-.0714 0-.11157.00832-.21834.01313-.32719.0048-.10676.00805-.2147.0174-.31886.00351-.03915.01-.07673.0143-.11561.01415-.1333.02714-.26711.0487-.39638.02755-.16815.06418-.33148.10484-.49248a5.92267 5.92267 0 0 1 .09653-.33811c.04962-.15528.10314-.3082.16485-.45659a5.50184 5.50184 0 0 1 .38102-.74892c.10912-.17908.23188-.35047.36296-.51719.03508-.04435.06742-.09025.10393-.13382.02858-.03316.05846-.0628.08756-.09493.28748-.3177.59614-.58468.9278-.79717.14238-.09142.28865-.17361.43922-.24565.1781-.08492.36296-.15359.55237-.21159.0391-.0121.07703-.02679.11678-.03771.13186-.0359.26748-.0632.40506-.08635.18485-.03108.37452-.05085.56925-.05865.06535-.0026.1303-.00598.19681-.00598 1.39262 0 2.52463.50678 3.39657 1.52048.87182 1.03736 1.30766 2.35393 1.30766 3.9501 0 1.59668-.43584 2.91325-1.30766 3.95022zm1.13917-11.08264c-1.00133-1.03307-2.42421-1.45064-3.4966-1.61866a9.55073 9.55073 0 0 0-.35465-.04877c-.1824-.02132-.35127-.03641-.4982-.04564-.14783-.0095-.65162-.01496-.65162-.01496-.21577 0-.42675.01067-.63525.02718-1.60865.12822-3.0023.74893-4.17991 1.86627-.16265.15436-.53393.55672-.5629.59027-.03611.04174-.36582.45216-.46364.58728-.1581.21821-.48014.74867-.50092.78534-.202.35632-.38115.72604-.53146 1.1124-.00909.0234-.0174.04746-.02637.071-.08924.23577-.16745.47779-.2376.7246-.08587.30262-.15875.61278-.2159.93204-.04456.24877-.12498.94048-.12589.95075-.02052.23616-.04624.93645-.04624 1.04608 0 .21093.00688.4177.01727.62265.0165.32797.0443.64918.08587.96259.0026.02055.00546.0411.00819.06164.04287.31068.10003.61316.16797.90901.22877.99497.59848 1.90723 1.11292 2.7347.22487.36179.47624.7081.7558 1.03789 1.39625 1.60254 3.14741 2.4317 5.25998 2.48359h.1998c.00571 0 .54548-.0117.80581-.03472.52392-.04591 1.03706-.14253 1.53941-.3056.89845-.25984 1.81196-.69887 2.52645-1.49955l.32815 1.42815h3.20327V5.01009h-3.20587zm28.6517 3.72902c.19422-.45411.4565-.85608.78089-1.19237.32035-.33162.70916-.5947 1.15527-.78209.87623-.36724 2.06735-.39325 2.93955.02289.43143.20742.80322.48064 1.10461.8116.30282.33396.54587.7341.72346 1.19004.14186.3649.23955.74776.29359 1.14088h-7.30005c.0417-.41913.14342-.81863.30269-1.19095zm6.59258 6.75971c-.80465 1.23998-1.78325 1.74936-2.5996 1.869-.189.0277-.38738.03212-.59523.03212-.6724 0-1.25491-.11951-1.72933-.3562-.4769-.23641-.8765-.5588-1.18788-.95608-.31542-.40352-.5551-.88-.71203-1.41683-.13354-.45243-.2124-.92696-.23539-1.4119H92.4026l.0313-.26671c.14265-1.231.0651-2.44198-.23227-3.60015-.2997-1.15818-.78464-2.2001-1.44483-3.09636-.66318-.90017-1.50862-1.6327-2.51216-2.17811-1.01017-.54905-2.16219-.82748-3.42528-.82748-1.19905 0-2.29223.2398-3.24978.71343-.95379.47154-1.77844 1.11799-2.4511 1.92075-.67215.80134-1.19503 1.74104-1.55422 2.79375-.35998 1.05323-.54133 2.1772-.54133 3.3398 0 1.26572.17135 2.44548.50898 3.50573.3436 1.07157.85934 2.00477 1.53161 2.77333.67579.77494 1.51343 1.38523 2.48774 1.81321.97275.42798 2.10295.64515 3.3589.64515.86181 0 1.70322-.12445 2.50125-.3692.79776-.24747 1.52888-.61797 2.17323-1.10121.6437-.48182 1.20346-1.08652 1.66256-1.79774.4348-.67649.74684-1.44752.93741-2.29203h-3.28537c-.48663 0-.70748.1688-.79425.26373zm7.3233 4.87693h3.71536V0H95.4283zm8.26279-20.02216l-.05742-.91655c-.00559-.12042-.00559-.2692-.01117-.43526h-.01715c-.04014.1372-.08574.32043-.13134.46374l-.2806.86518h-.32048l-.2806-.88807c-.02845-.12042-.07405-.30365-.10848-.44085h-.01727c0 .1433-.00559.29208-.01118.43526l-.05728.91655h-.29775L102.21494 0h.46312l.2693.76206c.03403.12042.063.23473.10301.39507h.00559c.04014-.14317.07457-.27465.1086-.38948L103.43386 0h.44636L104 1.55832zM102.00903 0v.25788h-.49807v1.30044h-.30892V.25788h-.4982V0z"/><path fill="#62d3f2" d="M25.99895 12.0523c-.00722-1.35824-.41175-2.62538-1.10694-3.70098-.15498-.24006-.3248-.47014-.50777-.68974-.80709-.96972-1.87305-1.73033-3.09741-2.18607-.80079-.29818-1.66856-.46572-2.57639-.47532a23.25066 23.25066 0 0 0-.1626 0c-1.39668.0144-2.69787.40545-3.80481 1.06815-.0377.02249-.07697.0427-.11414.06582l-.2938-.63237-3.07483-.00101v.00114l-.00329 6.58753v2.82893c-.0042 2.06112-1.74197 3.73068-3.88546 3.73068-2.1461 0-3.88585-1.6736-3.88585-3.73813L3.47082 5.4985 0 5.49787v9.41306c0 .0125.00092.02489.00105.03727.00722 1.35812.41162 2.62539 1.10681 3.70086.15511.24019.32494.47027.50777.68986.80722.96972 1.87305 1.73034 3.09754 2.18607.07605.02843.1555.04966.23287.07556h.0004c.73537.24676 1.52079.39054 2.34167.39926.02732.00019.13555.00019.1626 0 .82377-.0086 1.613-.15099 2.35074-.39926h.00316c.51222-.1726.99858-.39673 1.4521-.66813.0377-.02261.0771-.04283.1144-.06608l.29328.73421h3.07864v-9.51742c.00367-2.06162 1.7417-3.73181 3.88546-3.73181 2.1461 0 3.88585 1.67373 3.88585 3.73813l.01471 9.5111h3.47069L26 12.08945c0-.01238-.00092-.02476-.00105-.03715"/></g></svg>