<svg xmlns="http://www.w3.org/2000/svg" role="img" xmlns:xlink="http://www.w3.org/1999/xlink" viewBox="-7.77 -1.27 391.30 249.30"><title>US General Services Administration (member) logo</title><defs><path d="M32.8125-42.94922h5.6836v24.8164c0 4.31641-.48829 7.7422-1.46485 10.28126-.97656 2.53906-2.73828 4.60547-5.28906 6.19531C29.1953-.0625 25.85156.73438 21.71094.73438c-4.02344 0-7.3164-.69532-9.875-2.08204-2.5586-1.38671-4.38282-3.39453-5.47657-6.01953-1.09375-2.6289-1.64062-6.21875-1.64062-10.76562v-24.8164h5.67969v24.78515c0 3.73047.34765 6.48047 1.04297 8.2461.6914 1.76952 1.8828 3.1289 3.57422 4.08984 1.6875.95703 3.7539 1.43359 6.1953 1.43359 4.1797 0 7.15626-.94922 8.9375-2.83985 1.77735-1.89453 2.66407-5.53906 2.66407-10.92968zm0 0" id="a"/><path d="M2.69531-13.79688l5.35938-.46875c.2539 2.14844.84765 3.91016 1.77343 5.28516.9297 1.3789 2.3672 2.49219 4.32032 3.33985 1.95312.85156 4.15234 1.27343 6.59375 1.27343 2.16797 0 4.08203-.32031 5.74218-.96484 1.66016-.64453 2.89454-1.52735 3.70704-2.65235.80859-1.12109 1.21484-2.34765 1.21484-3.67578 0-1.34765-.39063-2.52343-1.17188-3.53125-.78124-1.0039-2.0703-1.84765-3.86718-2.53515-1.15235-.44922-3.70313-1.14453-7.64844-2.09375-3.94531-.94532-6.70703-1.83985-8.28906-2.67969-2.05078-1.07422-3.57813-2.40625-4.58594-4-1.0039-1.58984-1.50781-3.375-1.50781-5.34375 0-2.16797.61719-4.19531 1.84375-6.08203 1.23047-1.88281 3.03125-3.3164 5.39062-4.29297 2.36328-.97656 4.99219-1.46094 7.88282-1.46094 3.18359 0 5.99218.51172 8.42187 1.53516 2.4336 1.02734 4.30469 2.53516 5.60938 4.52734 1.30859 1.99219 2.01562 4.25 2.10937 6.76563l-5.44531.41406c-.29297-2.71484-1.28516-4.76563-2.97657-6.15625-1.6875-1.38672-4.18359-2.07813-7.48437-2.07813-3.4375 0-5.9414.62891-7.51563 1.89063-1.5703 1.25781-2.35937 2.77734-2.35937 4.55469 0 1.54297.5586 2.8125 1.67188 3.8086 1.09375.99609 3.94921 2.01562 8.5703 3.0625 4.6172 1.04296 7.78907 1.95702 9.50782 2.73827 2.5 1.15235 4.34375 2.61328 5.53516 4.3789 1.1914 1.76954 1.78515 3.8047 1.78515 6.10938 0 2.28516-.65234 4.4375-1.96093 6.46094-1.3086 2.01953-3.1875 3.59375-5.64063 4.71485-2.44922 1.125-5.21094 1.6875-8.27344 1.6875-3.88672 0-7.14453-.57032-9.77343-1.70313-2.625-1.13281-4.6875-2.83594-6.1797-5.10938-1.49609-2.27734-2.28124-4.85156-2.35937-7.71875zm0 0" id="b"/><path d="M24.72656-16.84375v-5.03906l18.19532-.03125v15.9375C40.1289-3.75 37.24609-2.07422 34.27734-.95312 31.3086.17188 28.26172.73438 25.13672.73438c-4.21875 0-8.05078-.90626-11.5-2.71094-3.44531-1.8086-6.05078-4.42188-7.8086-7.83594-1.7578-3.41797-2.6328-7.23828-2.6328-11.45703 0-4.17969.87109-8.08203 2.62109-11.70313 1.74609-3.625 4.26171-6.3164 7.54296-8.07422 3.28125-1.7578 7.0625-2.6328 11.33594-2.6328 3.10547 0 5.91407.5 8.42578 1.5078 2.50782 1.00391 4.47657 2.40626 5.90235 4.20313 1.42578 1.79688 2.50781 4.14063 3.25 7.03125l-5.125 1.40625c-.64453-2.1875-1.44532-3.90625-2.40235-5.15625-.95703-1.25-2.32422-2.25-4.10156-3.0039-1.77734-.75-3.75-1.12891-5.91797-1.12891-2.59765 0-4.84375.39843-6.73828 1.1875-1.89453.79297-3.42187 1.83203-4.58594 3.1211-1.16015 1.28905-2.0664 2.70702-2.70703 4.24609-1.09375 2.65624-1.64062 5.53906-1.64062 8.64453 0 3.82812.65625 7.03125 1.97656 9.60937 1.3164 2.57813 3.23438 4.49219 5.75781 5.74219 2.51953 1.25 5.19532 1.875 8.02344 1.875 2.46094 0 4.86719-.47266 7.21094-1.42188 2.34375-.9453 4.11718-1.95703 5.32812-3.03125v-7.99609zm0 0" id="c"/><path d="M25.2539-10.01953l5.44922.67578c-.85937 3.1836-2.45312 5.65234-4.77343 7.41016C23.60547-.1758 20.6328.70312 17.02344.70312 12.47266.70313 8.86328-.69921 6.1953-3.5c-2.66406-2.80469-4-6.73438-4-11.79297 0-5.23437 1.35156-9.29687 4.04688-12.1875 2.69531-2.89062 6.1875-4.33594 10.48437-4.33594 4.16016 0 7.5625 1.41797 10.19532 4.2461C29.55859-24.73828 30.8789-20.75 30.8789-15.6172c0 .3125-.01172.78125-.02735 1.40625H7.64844c.19531 3.41797 1.16015 6.03907 2.89844 7.85157 1.73828 1.8164 3.90625 2.72656 6.5039 2.72656 1.9336 0 3.58203-.50781 4.94922-1.52344 1.36719-1.01563 2.45313-2.63672 3.2539-4.86328zM7.9375-18.54688h17.375c-.23438-2.61718-.89844-4.57812-1.99219-5.88671-1.67968-2.03125-3.85937-3.04688-6.53125-3.04688-2.42187 0-4.46093.8086-6.10937 2.4336-1.65235 1.62109-2.5625 3.78906-2.74219 6.5zm0 0" id="d"/><path d="M3.95313 0v-31.11328h4.75v4.42578c2.28515-3.41797 5.58593-5.1289 9.89843-5.1289 1.875 0 3.60157.33593 5.17188 1.01171 1.57422.67188 2.75 1.55469 3.53125 2.64844s1.32812 2.39453 1.64062 3.89844c.19532.97656.29297 2.6875.29297 5.125V0h-5.27344v-18.92578c0-2.14844-.20703-3.7539-.61328-4.82031-.41015-1.0625-1.14062-1.91407-2.1836-2.54688-1.04687-.63672-2.26952-.95312-3.67577-.95312-2.2461 0-4.1875.71484-5.8164 2.13671-1.63282 1.42579-2.44923 4.13282-2.44923 8.1172V0zm0 0" id="e"/><path d="M3.89844 0v-31.11328h4.74218v4.71484c1.21094-2.20703 2.33204-3.66015 3.35547-4.36328 1.02735-.70312 2.15235-1.05469 3.38672-1.05469 1.77735 0 3.58203.56641 5.41797 1.69922l-1.8164 4.89063c-1.28907-.76172-2.57813-1.14063-3.8672-1.14063-1.15234 0-2.1875.34766-3.10546 1.03907-.91797.6953-1.57422 1.65624-1.96485 2.88671-.58593 1.875-.875 3.92579-.875 6.15235V0zm0 0" id="f"/><path d="M24.25781-3.83594C22.3047-2.17578 20.42578-1.0078 18.6172-.3203 16.8125.36329 14.875.70313 12.80469.70313c-3.41797 0-6.04688-.83594-7.88282-2.50391-1.83593-1.67188-2.7539-3.80469-2.7539-6.40235 0-1.52343.34766-2.91406 1.03906-4.17578.69531-1.2578 1.60156-2.26953 2.72656-3.03125 1.1211-.76172 2.38672-1.33984 3.79297-1.73047 1.03516-.27343 2.59766-.53515 4.6875-.78906 4.25782-.50781 7.39063-1.11328 9.40625-1.8164.01953-.72266.02735-1.1836.02735-1.37891 0-2.14844-.4961-3.66016-1.4961-4.53906-1.34765-1.1914-3.34765-1.78907-6.0039-1.78907-2.48047 0-4.3125.4375-5.4922 1.3047-1.18359.87109-2.05859 2.40624-2.62109 4.61718l-5.15625-.70313c.46875-2.20703 1.23829-3.99218 2.3125-5.34765 1.07422-1.35938 2.625-2.40235 4.65625-3.13672 2.03125-.73047 4.38672-1.09766 7.0625-1.09766 2.65626 0 4.8125.3125 6.47657.9375 1.66015.625 2.8789 1.41016 3.66015 2.35938.78125.94531 1.32813 2.14453 1.64063 3.58984.17578.89844.26172 2.51563.26172 4.85938v7.03125c0 4.90234.11328 8.0039.33984 9.30468C29.71094-2.4375 30.15625-1.1914 30.82031 0H25.3125c-.54688-1.09375-.89844-2.375-1.05469-3.83594zm-.4375-11.78125c-1.91406.78125-4.78906 1.44532-8.61718 1.99219-2.16797.3125-3.69922.66406-4.59766 1.05469-.89844.39062-1.58985.96484-2.08203 1.71484-.48828.7539-.73047 1.58985-.73047 2.5039 0 1.40626.53125 2.57813 1.59765 3.51563 1.0625.9375 2.6211 1.40625 4.67188 1.40625 2.03125 0 3.83594-.4414 5.42188-1.33203 1.58203-.88672 2.74218-2.10547 3.48437-3.64453.5664-1.1914.85156-2.95313.85156-5.27344zm0 0" id="g"/><path d="M3.83594 0v-42.94922h5.27343V0zm0 0" id="h"/><path d="M12.59766 0L.76172-31.11328h5.5664l6.6797 18.63281C13.73046-10.46875 14.39452-8.3789 15-6.21094c.46875-1.64062 1.125-3.61328 1.96094-5.91797L23.875-31.11328h5.42188L17.51953 0zm0 0" id="i"/><path d="M3.98438-36.88281v-6.0664H9.2578v6.0664zM3.98438 0v-31.11328H9.2578V0zm0 0" id="j"/><path d="M24.25781-11.39844l5.1875.67578c-.5664 3.57422-2.01953 6.3711-4.35156 8.39453C22.75781-.30858 19.89062.70313 16.49219.70313c-4.25782 0-7.67969-1.39062-10.26563-4.17578C3.63672-6.2539 2.34375-10.24219 2.34375-15.4375c0-3.35938.55469-6.30078 1.67188-8.82031 1.11328-2.51953 2.80468-4.41016 5.08203-5.66797 2.27343-1.26172 4.75-1.89063 7.42578-1.89063 3.3789 0 6.14062.85547 8.28906 2.5625 2.14844 1.71094 3.52734 4.13672 4.13281 7.28125l-5.125.79297c-.48828-2.08984-1.35547-3.66406-2.59375-4.71875-1.24218-1.05468-2.74218-1.58203-4.5-1.58203-2.65625 0-4.8125.95313-6.47265 2.85547-1.66016 1.90625-2.48828 4.91797-2.48828 9.03906 0 4.17969.79687 7.21875 2.39843 9.10938 1.60157 1.89453 3.69532 2.84375 6.27344 2.84375 2.07031 0 3.79688-.63281 5.1836-1.90625 1.38671-1.26953 2.26562-3.21875 2.63671-5.85938zm0 0" id="k"/><path d="M1.84375-9.28906l5.21875-.82032c.29297 2.08985 1.10547 3.69532 2.44531 4.8047 1.33594 1.11327 3.20703 1.67187 5.60938 1.67187 2.42187 0 4.21875-.49219 5.39062-1.48047 1.17188-.98438 1.75782-2.14453 1.75782-3.47266 0-1.1914-.51563-2.125-1.5547-2.8125-.72265-.46875-2.51562-1.0625-5.39062-1.78515-3.86718-.97657-6.54687-1.82032-8.03906-2.53516-1.4961-.71094-2.6289-1.69922-3.39844-2.95703-.77344-1.26172-1.15625-2.65235-1.15625-4.17578 0-1.38672.3164-2.67188.94922-3.85157.63672-1.18359 1.5-2.16406 2.59375-2.9453.82031-.60548 1.9375-1.1172 3.35547-1.53907 1.41406-.41797 2.9336-.6289 4.55469-.6289 2.4414 0 4.58593.35156 6.42968 1.05468 1.84766.70313 3.21094 1.65625 4.08594 2.85547.8789 1.20313 1.48438 2.8086 1.82032 4.82031l-5.15626.70313c-.23437-1.60157-.91406-2.85157-2.03906-3.75-1.1211-.89844-2.71093-1.34766-4.75781-1.34766-2.42188 0-4.15234.40235-5.1875 1.19922-1.03516.80078-1.55469 1.74219-1.55469 2.8125 0 .6836.21875 1.30078.64844 1.84766.42969.5664 1.10156 1.03515 2.01953 1.40625.52735.1953 2.08203.64453 4.66016 1.34765 3.73047.9961 6.33203 1.8125 7.80468 2.44532 1.47657.63671 2.63282 1.55859 3.47266 2.76953.83985 1.21093 1.26172 2.71484 1.26172 4.51172 0 1.7578-.51563 3.41406-1.53906 4.96484-1.02735 1.55469-2.50782 2.7539-4.4375 3.60547-1.9336.84765-4.125 1.27344-6.5625 1.27344-4.04297 0-7.125-.83985-9.2461-2.51954C3.78516-3.49609 2.4297-5.98437 1.84375-9.28906zm0 0" id="l"/><path d="M-.08594 0l16.49219-42.94922h6.125L40.10938 0H33.6328L28.625-13.00781H10.66406L5.94531 0zM12.3047-17.63672h14.5625L22.3828-29.53125C21.01563-33.14453 20-36.11328 19.33594-38.4375c-.54688 2.7539-1.32032 5.48828-2.3125 8.20313zm0 0" id="m"/><path d="M24.14063 0v-3.92578c-1.97266 3.08594-4.875 4.6289-8.70313 4.6289-2.48047 0-4.75781-.68359-6.83984-2.05078C6.51953-2.71484 4.90625-4.625 3.76563-7.07422c-1.14454-2.45312-1.71485-5.26953-1.71485-8.45312 0-3.10547.51953-5.92188 1.55078-8.45313 1.03516-2.52734 2.58985-4.46484 4.66016-5.8164 2.07031-1.34766 4.38672-2.01954 6.9414-2.01954 1.875 0 3.54688.39454 5.01172 1.1875 1.46485.78907 2.65625 1.82032 3.57422 3.08985v-15.41016h5.24219V0zM7.46874-15.52734c0 3.98437.84375 6.96484 2.52344 8.93359 1.67968 1.97266 3.66015 2.96094 5.94531 2.96094 2.30469 0 4.26172-.9414 5.875-2.82813 1.60938-1.88281 2.41406-4.75781 2.41406-8.625 0-4.25781-.82031-7.38281-2.46093-9.375-1.64063-1.99218-3.66016-2.99218-6.0625-2.99218-2.34375 0-4.30079.96093-5.875 2.875-1.57032 1.91406-2.35938 4.92968-2.35938 9.05078zm0 0" id="n"/><path d="M3.95313 0v-31.11328h4.71875V-26.75c.97656-1.52344 2.27343-2.7461 3.89843-3.67578 1.6211-.92578 3.46485-1.39063 5.53516-1.39063 2.30469 0 4.19531.48047 5.66797 1.4336 1.47656.95703 2.51562 2.29687 3.1211 4.01562C29.35546-30 32.55858-31.8164 36.5039-31.8164c3.08593 0 5.45703.85547 7.12109 2.5625 1.66016 1.71094 2.48828 4.33985 2.48828 7.89454V0h-5.2461v-19.60156c0-2.10938-.16796-3.625-.51171-4.55469-.33984-.92578-.96094-1.67188-1.85938-2.24219-.89843-.5664-1.95312-.84765-3.16406-.84765-2.1875 0-4.0039.72656-5.44922 2.18359-1.44531 1.45313-2.16797 3.78125-2.16797 6.98438V0h-5.27343v-20.21484c0-2.34375-.4297-4.10157-1.28907-5.27344-.85937-1.17188-2.26562-1.75781-4.21875-1.75781-1.48437 0-2.85546.39062-4.11718 1.17187-1.25782.78125-2.17188 1.92578-2.73828 3.42578-.56641 1.5039-.85157 3.67188-.85157 6.50782V0zm0 0" id="o"/><path d="M15.46875-4.71875l.76172 4.66016c-1.48438.3125-2.8125.46875-3.98438.46875-1.91406 0-3.39843-.30079-4.45312-.91016-1.05469-.60547-1.79688-1.39844-2.22656-2.38672-.4297-.98437-.64454-3.0586-.64454-6.22266v-17.90234H1.0547v-4.10156h3.86719v-7.70703l5.24218-3.16407v10.8711h5.30469v4.10156h-5.30469v18.1914c0 1.50391.09375 2.47266.28125 2.90235.1836.42969.48828.76953.90625 1.02735.42188.2539 1.02344.3789 1.80469.3789.58594 0 1.35547-.0664 2.3125-.20703zm0 0" id="p"/><path d="M1.99219-15.55469c0-5.76172 1.60156-10.03125 4.80468-12.80468 2.67579-2.3047 5.9375-3.45704 9.78516-3.45704 4.27735 0 7.77344 1.40235 10.48828 4.20313 2.71485 2.80469 4.07032 6.67578 4.07032 11.61719 0 4.0039-.59766 7.15234-1.80079 9.44922-1.19921 2.29296-2.94921 4.07812-5.24218 5.34375C21.80078.0664 19.29687.70311 16.58203.70311c-4.35547 0-7.875-1.39843-10.5625-4.1875-2.6836-2.79296-4.02734-6.8203-4.02734-12.0703zm5.42187 0c0 3.98438.86719 6.96485 2.60547 8.94922 1.73828 1.98047 3.92578 2.97266 6.5625 2.97266 2.61719 0 4.79297-.9961 6.53516-2.98828 1.73828-1.9922 2.60547-5.02735 2.60547-9.11329 0-3.84765-.875-6.76171-2.6211-8.74218-1.75-1.98438-3.92187-2.97657-6.51953-2.97657-2.63672 0-4.82422.98829-6.5625 2.96094-1.73828 1.97266-2.60547 4.95313-2.60547 8.9375zm0 0" id="q"/></defs><use y="50" xlink:href="#a"/><use x="43.33" y="50" xlink:href="#b"/><use y="120" xlink:href="#c"/><use x="46.67" y="120" xlink:href="#d"/><use x="80.039" y="120" xlink:href="#e"/><use x="113.408" y="120" xlink:href="#d"/><use x="146.777" y="120" xlink:href="#f"/><use x="166.758" y="120" xlink:href="#g"/><use x="200.127" y="120" xlink:href="#h"/><g><use y="180" xlink:href="#b"/><use x="40.02" y="180" xlink:href="#d"/><use x="73.389" y="180" xlink:href="#f"/><use x="93.369" y="180" xlink:href="#i"/><use x="123.369" y="180" xlink:href="#j"/><use x="136.699" y="180" xlink:href="#k"/><use x="166.699" y="180" xlink:href="#d"/><use x="200.068" y="180" xlink:href="#l"/></g><g><use y="240" xlink:href="#m"/><use x="40.195" y="240" xlink:href="#n"/><use x="73.564" y="240" xlink:href="#o"/><use x="123.545" y="240" xlink:href="#j"/><use x="136.875" y="240" xlink:href="#e"/><use x="170.244" y="240" xlink:href="#j"/><use x="183.574" y="240" xlink:href="#l"/><use x="213.574" y="240" xlink:href="#p"/><use x="230.244" y="240" xlink:href="#f"/><use x="250.225" y="240" xlink:href="#g"/><use x="283.594" y="240" xlink:href="#p"/><use x="300.264" y="240" xlink:href="#j"/><use x="313.594" y="240" xlink:href="#q"/><use x="346.963" y="240" xlink:href="#e"/></g></svg>