<svg xmlns="http://www.w3.org/2000/svg" role="img" viewBox="-16.51 -16.51 832.52 359.52"><title>USU GMBH (member) logo</title><path fill="#004F9F" d="M557 0h80l.04419 19.91309c.05033 21.70915.11677 43.41824.19152 65.12733.04493 13.16246.08436 26.3249.11073 39.48741.023 11.47502.05642 22.94994.10226 34.4249.0239 6.07354.04265 12.147.04891 18.2206.00607 5.72259.02612 11.44496.05667 17.16746.00875 2.0945.0125 4.18902.01073 6.28353-.0083 14.32164.35957 27.007 8.43499 39.37568l1.6875 2.6875c8.24304 8.24304 18.84442 11.38636 30.25 11.6875 12.8468-.33733 22.8058-3.68338 31.8125-13 7.32367-8.8395 9.3953-19.21183 9.40822-30.32832l.01496-2.73532c.01536-3.02476.02373-6.0495.03214-9.0743.00958-2.1682.0196-4.3364.03-6.5046.02705-5.88793.04806-11.77587.068-17.66383.02187-6.15263.04925-12.30523.07606-18.45784.04992-11.65167.09486-23.30336.13802-34.95506.04938-13.26469.1043-26.52936.15968-39.79402C719.7909 54.57449 719.897 27.28726 720 0h80c.0884 28.45063.16217 56.90115.20426 85.35189.005 3.36903.01018 6.73806.01547 10.1071l.00318 2.03221c.01734 10.81797.04884 21.63585.0857 32.45377.03758 11.12393.05936 22.24782.06774 33.37181.0052 6.2382.01729 12.4762.04657 18.71434.0274 5.88674.03547 11.7732.02951 17.66.00109 2.146.0089 4.292.0244 6.43793.22834 33.28282-9.47053 62.04485-32.60183 86.49595-13.21796 12.77178-29.57761 21.74117-46.875 27.6875l-2.00732.69849c-13.22369 4.2775-26.43217 5.54255-40.24268 5.42651l-2.3075-.0082C664.24437 326.36368 652.76965 325.40125 641 322l-3.86328-1.02734c-28.49196-8.45432-53.04233-28.02156-67.27393-54.05274C564.80081 257.29618 561.18593 247.68078 559 237l-.50657-2.22749c-2.10877-10.52264-1.75867-21.10914-1.72048-31.78911.00056-2.2185.00025-4.43698-.00089-6.65547-.00057-5.99294.01115-11.98579.02515-17.9787.01254-6.27402.01368-12.54804.01605-18.82207.0055-10.52095.01798-21.04187.03586-31.5628.0184-10.83106.03253-21.6621.04102-32.49317l.00159-2.02703c.0026-3.35617.00514-6.71234.00762-10.0685C556.92023 55.58373 556.9569 27.79187 557 0z"/><path fill="#004F9F" d="M0 0h79l.06006 19.4541c.0669 21.21022.14444 42.4204.22747 63.63056.05007 12.85979.09652 25.71957.13434 38.5794.033 11.21131.07286 22.42257.12092 33.63383.0252 5.9338.047 11.86758.06055 17.80142.01288 5.59122.035 11.18233.06404 16.77349a1806.3176 1806.3176 0 0 1 .01683 6.1384c.02108 17.62828.06417 35.55456 13.0775 49.08255C102.94 253.76215 115.14764 254.84344 128 254c9.86782-1.4978 19.46476-5.95273 25.6914-13.96094 6.4604-10.06663 8.6151-20.67317 8.58707-32.47976l.01756-2.71114c.01686-2.96782.01986-5.93548.02282-8.90334.0093-2.13938.01947-4.27876.03044-6.41813.02722-5.7864.04243-11.57279.05543-17.35924.01566-6.05519.04244-12.11032.06803-18.16547.04673-11.45671.0835-22.91343.11667-34.3702.03826-13.04717.08766-26.09429.13798-39.14142.10324-26.83009.19106-53.6602.2726-80.49036h80c.06784 28.63433.12306 57.2686.15544 85.903.01543 13.29685.03646 26.59363.07088 39.89046.03 11.59588.04928 23.19171.05595 34.78763.00389 6.13414.01298 12.26817.03492 18.40227.02053 5.78657.02661 11.57298.02213 17.35958.00082 2.11135.00669 4.2227.0183 6.33402.08214 15.72708-.69326 31.40215-5.98262 46.38554l-.76025 2.20508C232.12483 263.71603 225.82393 275.11378 217 285l-2.04297 2.47266C209.08485 294.39306 202.38663 299.81609 195 305l-3.01953 2.125C163.72987 325.69279 124.95209 331.21365 92 324.4375c-3.04028-.69872-6.01838-1.52159-9-2.4375l-2.4004-.73145C64.81615 316.2853 50.47277 308.95897 38 298l-2.4414-2.00781C18.37524 281.41727 7.70392 261.59673 2 240l-.54587-2.05437c-2.26337-10.25027-1.71777-20.78136-1.68118-31.2159.00056-2.25775.00025-4.5155-.00089-6.77325-.00057-6.10456.01116-12.20904.02515-18.31358.01253-6.3888.01368-12.7776.01605-19.16641.0055-10.71525.01798-21.43045.03586-32.14568.01839-11.0319.03253-22.0638.04102-33.0957l.00159-2.06404c.0026-3.41737.00514-6.83475.00762-10.25213C-.07995 56.61261-.04309 28.30631 0 0z"/><path fill="#004F9F" d="M397.277-.304c3.65677.01898 7.31356.02053 10.97037.02408 6.89857.00926 13.79699.03378 20.6955.06404 9.34039.04007 18.68082.05605 28.02128.07351 14.67874.02806 29.35718.08787 44.0359.14255v66l-24.76952.14844c-5.8514.0399-11.70279.08103-17.55416.1239-7.57104.0553-15.14206.10778-22.71318.14954-6.6396.03663-13.27907.08338-19.91855.13619-2.52799.01847-5.056.0336-7.58402.04528-3.55184.01698-7.1034.04604-10.65514.0778l-3.13875.00655c-11.0278.12527-23.22705 1.086-31.5534 9.13652-6.30238 7.76735-6.93451 16.4951-6.11327 26.17578 1.10212 5.51061 2.61715 9.52745 6 14v2c2.8156 1.43667 5.64975 2.77156 8.5625 4l2.3164 1c9.06996 2.90602 18.1294 3.30516 27.59806 3.46277 33.91256.60541 66.66094 5.18072 91.52304 30.53723 18.77273 19.75049 22.67273 46.67143 22.25 72.85547-.7932 25.80656-10.5872 49.52564-29.5 67.33203-13.64814 11.56662-30.26329 18.59494-47.75 21.8125l-2.71292.51456c-12.88487 2.07017-25.8306 1.7444-38.8472 1.68823-3.43524-.01265-6.87048-.01369-10.30574-.01605-6.48066-.00617-12.96125-.02253-19.44187-.0427-8.11551-.0247-16.23103-.03553-24.34657-.04638-14.44862-.01938-28.8971-.05946-43.3457-.09766v-66l22.11718-.14844c4.65757-.03543 9.31512-.07142 13.97266-.10937 7.37286-.06002 14.7457-.11814 22.11865-.16406 5.95235-.0372 11.90456-.08366 17.85679-.1362a2311.90272 2311.90272 0 0 1 6.7712-.04527c27.53802.88169 27.53802.88169 52.53852-8.64666 6.79267-7.11613 7.95329-15.06464 7.83593-24.61719-.4729-7.0235-2.30208-13.38875-7.20312-18.59765-7.11585-5.44072-16.05626-7.57232-24.84766-7.78125l-3.43872-.09522-3.65893-.09619c-35.23299-1.11561-68.93925-4.4863-95.0625-30.5625l-1.88672-1.85156c-7.8771-8.31962-12.85633-18.52887-16.48828-29.27344l-.7229-2.13037c-3.579-11.27121-4.30996-22.5395-4.2771-34.30713.0002-.70138.00042-1.40276.00064-2.1254.03446-11.483.96122-22.2985 4.37436-33.3121l1.0625-3.53906c7.1715-20.8671 22.6036-36.6183 41.875-46.77344C353.3931.62773 373.99219-.44558 397.277-.304z"/></svg>