<svg xmlns="http://www.w3.org/2000/svg" role="img" xmlns:xlink="http://www.w3.org/1999/xlink" viewBox="-19.98 -19.98 1038.96 333.96"><title>UTMStack logo</title><defs><linearGradient id="c" x1=".01" x2="111.21" y1="134.72" y2="134.72" gradientUnits="userSpaceOnUse"><stop offset="0" stop-color="#1ecad3"/><stop offset="1" stop-color="#3a8dde"/></linearGradient><linearGradient id="a" x1="111.21" x2="222.42" y1="147.19" y2="147.19" gradientUnits="userSpaceOnUse"><stop offset="0" stop-color="#3a8dde"/><stop offset="1" stop-color="#655dc6"/></linearGradient><linearGradient id="d" x2="222.42" y1="54.35" y2="54.35" gradientUnits="userSpaceOnUse"><stop offset="0" stop-color="#655dc6"/><stop offset="1" stop-color="#3a8dde"/></linearGradient><linearGradient id="b" x1=".01" x2="222.42" y1="233.64" y2="233.64" gradientUnits="userSpaceOnUse"><stop offset="0" stop-color="#3a8dde"/><stop offset="1" stop-color="#1ecad3"/></linearGradient><linearGradient id="e" x1="111.21" x2="222.42" y1="192.73" y2="192.73" xlink:href="#a"/><linearGradient id="f" x1=".01" x2="222.42" y1="192.73" y2="192.73" xlink:href="#b"/></defs><g data-name="Capa 2"><g data-name="Capa 1"><path fill="url(#c)" d="M11.11 89.42l-.25-.16A21.92 21.92 0 0 1 0 70.88v50.64a22.22 22.22 0 0 0 11.13 19.26l11.11 6.41 44.46 25.69 44.48 25.67v-51.36l-89-51.34z"/><path fill="url(#a)" d="M211.5 192l.19-.11a22 22 0 0 0 10.73-19 22 22 0 0 0-11.12-19.25l-11.14-6.44-44.48-25.67-44.47-25.7v51.36l44.47 25.69 44.48 25.67 8.91-5.13 2.21-1.27z"/><path fill="url(#d)" d="M10.86 89.26l.25.16 11.14 6.43L89 57.33a44.46 44.46 0 0 1 44.48 0l66.71 38.52 22.26 12.84V57.33L133.45 6A44.46 44.46 0 0 0 89 6L11.13 50.91a22.22 22.22 0 0 0-.27 38.35zM0 70.88z"/><path fill="url(#b)" d="M211.69 191.92l-.19.11-.2.12-2.21 1.27-8.91 5.13-66.73 38.54a44.51 44.51 0 0 1-44.48 0l-66.74-38.54L0 185.73v51.34l89 51.37a44.56 44.56 0 0 0 44.48 0l77.82-44.94a22.23 22.23 0 0 0 11.12-19.27V172.9a22 22 0 0 1-10.73 19.02z"/><path fill="url(#e)" d="M211.5 192l-.2.12-2.21 1.27 2.21-1.27z"/><path fill="url(#f)" d="M211.5 192l-.2.12-2.21 1.27 2.21-1.27z"/><path fill="#2d2a26" d="M329 99.29v62.24q0 10.23 5.33 15.63t15 5.4q9.79 0 15.12-5.4t5.33-15.63V99.29h20.31v62.09q0 12.83-5.54 21.68a35.17 35.17 0 0 1-14.84 13.33 47 47 0 0 1-20.71 4.46 45.84 45.84 0 0 1-20.39-4.46 34 34 0 0 1-14.47-13.33q-5.34-8.85-5.33-21.68V99.29zm144.28 0v16.28h-26.79v84.28h-20.17v-84.28h-26.79V99.29zm119.27 0v100.56h-20.17v-65.41l-26.94 65.41h-15.27l-27.08-65.41v65.41h-20.17V99.29h22.9l32 74.77 32-74.77zm33.89 97.96a31.08 31.08 0 0 1-13.33-10.37 27.36 27.36 0 0 1-5-16h21.61a14 14 0 0 0 4.4 9.8q3.95 3.6 10.87 3.6T656 180.9a11 11 0 0 0 4-8.86 10.25 10.25 0 0 0-2.74-7.34 19.14 19.14 0 0 0-6.84-4.54 116.12 116.12 0 0 0-11.31-3.68 121.54 121.54 0 0 1-15.92-5.68 27.84 27.84 0 0 1-10.51-8.51q-4.39-5.68-4.4-15.19a27.15 27.15 0 0 1 4.47-15.56 28.39 28.39 0 0 1 12.53-10.16 45.67 45.67 0 0 1 18.44-3.53q15.56 0 25.28 7.57t10.73 21.1h-22.1a11.51 11.51 0 0 0-4.4-8.57q-4.1-3.39-10.87-3.39-5.91 0-9.44 3t-3.53 8.79a9.08 9.08 0 0 0 2.67 6.7 20.37 20.37 0 0 0 6.63 4.32c2.63 1.1 6.36 2.37 11.16 3.81a118.59 118.59 0 0 1 16 5.77 28.73 28.73 0 0 1 10.66 8.64q4.47 5.76 4.47 15.13a28.49 28.49 0 0 1-4.18 15 29.54 29.54 0 0 1-12.25 11q-8.07 4.09-19.16 4.1a47.77 47.77 0 0 1-18.95-3.57zm91.68-60.64v38.6q0 4 1.94 5.84c1.3 1.2 3.48 1.8 6.56 1.8H736v17h-12.7q-25.49 0-25.49-24.78v-38.46h-9.51V120h9.51v-19.7h20.31V120H736v16.57zm28.98 1.58a35.35 35.35 0 0 1 13.11-14.41 34.9 34.9 0 0 1 18.51-5 32.55 32.55 0 0 1 15.63 3.6 31.88 31.88 0 0 1 10.73 9.08V120h20.31v79.81h-20.31v-11.63a30 30 0 0 1-10.73 9.29 32.81 32.81 0 0 1-15.77 3.67 34 34 0 0 1-18.37-5.14 36.2 36.2 0 0 1-13.11-14.62 46.94 46.94 0 0 1-4.83-21.69 46.15 46.15 0 0 1 4.83-21.5zm55.1 9.15a20.24 20.24 0 0 0-7.78-8.07 20.81 20.81 0 0 0-10.52-2.81 20.38 20.38 0 0 0-10.37 2.74 20.61 20.61 0 0 0-7.71 8 25.15 25.15 0 0 0-3 12.46 26 26 0 0 0 3 12.61 21.32 21.32 0 0 0 7.78 8.28 19.77 19.77 0 0 0 10.3 2.88 20.71 20.71 0 0 0 10.52-2.81 20.28 20.28 0 0 0 7.78-8.06 29 29 0 0 0 0-25.21zm40.62-9.08a36 36 0 0 1 14-14.4 40.4 40.4 0 0 1 20.45-5.12q14.84 0 24.56 7.42t13 20.82H893.1a15.88 15.88 0 0 0-5.84-8.14 16.91 16.91 0 0 0-10.15-3q-8.64 0-13.69 6.27t-5 17.79q0 11.38 5 17.65t13.69 6.26q12.24 0 16-10.94h21.75a36.83 36.83 0 0 1-13.11 20.6q-9.79 7.63-24.49 7.63a40.39 40.39 0 0 1-20.46-5.1 36 36 0 0 1-14-14.41q-5-9.28-5-21.68t5.02-21.65zm130.96 61.59l-27.08-34v34h-20.17V93.24h20.17v60.65L973.49 120h26.22l-35.15 40.05 35.44 39.8z"/></g></g></svg>