<svg xmlns="http://www.w3.org/2000/svg" role="img" viewBox="-2.00 -2.00 103.87 30.87"><title>Vantage (member) logo</title><path fill="#9C24C7" fill-rule="evenodd" d="M5.94572 2.27516C8.14577.79176 10.7323 0 13.3783 0c1.757-.00049 3.4969.34837 5.1202 1.02663 1.6234.67827 3.0984 1.67265 4.3408 2.92634 1.2424 1.25368 2.2278 2.74211 2.8999 4.38023.6722 1.63811 1.0179 3.3938 1.0174 5.1668 0 2.67-.7846 5.2801-2.2547 7.5002-1.47 2.2201-3.5594 3.9504-6.004 4.9722-2.4445 1.0217-5.1345 1.2891-7.7296.7682-2.59512-.5209-4.97889-1.8067-6.84988-3.6947-1.87099-1.888-3.14515-4.2934-3.66135-6.9122-.5162-2.6187-.25127-5.3331.7613-7.79992 1.01257-2.46681 2.7273-4.57522 4.92735-6.05862zM3.75977 11.668l4.01386 4.0541a.42622.42622 0 0 0 .14043.0975.42305.42305 0 0 0 .16704.0344.42314.42314 0 0 0 .16706-.0344.42601.42601 0 0 0 .14043-.0975l4.00651-4.0541c.08-.0808.125-.1904.125-.3047a.4335.4335 0 0 0-.125-.3047L8.37754 7.00826c-.08011-.08078-.1887-.12616-.30194-.12616-.11325 0-.22187.04538-.30197.12616L3.75977 11.0586c-.08006.0809-.12501.1905-.12501.3047 0 .1143.04495.2239.12501.3047zm9.92053 9.4013l4.0138-4.0503c.0801-.0808.125-.1904.125-.3047 0-.1143-.0449-.2239-.125-.3047l-4.0138-4.0541c-.0801-.0808-.1888-.1262-.302-.1262-.1133 0-.2219.0454-.302.1262l-4.0175 4.0541c-.08005.0808-.12503.1904-.12503.3047 0 .1143.04498.2239.12503.3047l4.0175 4.0503c.0801.0808.1887.1262.302.1262.1132 0 .2219-.0454.302-.1262zm5.299-5.3472l4.0138-4.0541a.4263.4263 0 0 0 .0937-.1395.4313.4313 0 0 0 0-.3304.42735.42735 0 0 0-.0937-.1395l-4.0138-4.05034c-.0801-.08078-.1887-.12616-.302-.12616-.1132 0-.2218.04538-.3019.12616l-4.0176 4.05034a.4335.4335 0 0 0-.125.3047c0 .1143.045.2239.125.3047l4.0176 4.0541c.0801.0808.1887.1262.3019.1262.1133 0 .2219-.0454.302-.1262z" clip-rule="evenodd"/><path fill="#9C24C7" d="M31.3301 5.89531l4.2053 13.99049c.0217.0864.0734.1621.1457.2133.0723.0511.1605.0744.2483.0654h2.5151a.33301.33301 0 0 0 .2391-.0654c.0685-.0519.1147-.1282.1292-.2133l4.1575-13.99049c.0589-.17836-.0184-.31957-.1989-.31957H40.875a.3661.3661 0 0 0-.2281.06679.37136.37136 0 0 0-.1402.19333l-2.1284 7.39474c-.4088 1.3934-.8691 3.0693-1.1453 4.3216h-.0589c-.2578-1.2337-.7107-2.9096-1.1047-4.2845l-2.1727-7.43184a.30834.30834 0 0 0-.1158-.19795.30359.30359 0 0 0-.2193-.06217h-2.0548a.2009.2009 0 0 0-.1079.02549.2027.2027 0 0 0-.0785.07905.20576.20576 0 0 0-.0255.10891.20533.20533 0 0 0 .0352.10612z"/><path fill="#9C24C7" fill-rule="evenodd" d="M51.6718 12.5728v7.313a.25646.25646 0 0 1-.0127.1113.2545.2545 0 0 1-.0592.0949.25102.25102 0 0 1-.094.0597.24928.24928 0 0 1-.1103.0128h-1.7381a.24956.24956 0 0 1-.1104-.0128.25181.25181 0 0 1-.094-.0597.253.253 0 0 1-.0591-.0949.25349.25349 0 0 1-.0127-.1113v-1.3043c-.3195.5478-.7754 1.0017-1.3226 1.3166-.5472.3149-1.1665.4797-1.7964.4782-2.0548 0-3.3584-1.3563-3.3584-3.3444 0-1.988 1.3036-3.1474 4.1464-3.3443a16.61936 16.61936 0 0 1 2.2316-.0186v-.9996c0-1.2337-.6702-1.7316-1.7971-1.7316-1.1268 0-1.5392.4162-1.8228 1.1965-.081.2193-.1583.2564-.3682.197l-1.7197-.4385c-.1768-.0595-.2357-.1598-.1768-.3196.3167-1.5532 1.7197-2.63085 4.187-2.63085 2.5482 0 4.0875 1.21885 4.0875 3.63045zm-2.3899 4.043v-1.3526a16.79394 16.79394 0 0 0-2.0327.0371c-1.2852.1412-2.0143.5797-2.0143 1.6164 0 .8956.6112 1.4864 1.6571 1.4864 1.1084-.0111 1.9553-.6688 2.3899-1.7873z" clip-rule="evenodd"/><path fill="#9C24C7" d="M56.4552 19.8858v-6.7779c.3941-1.1333 1.2631-1.9137 2.3163-1.9137 1.1047 0 1.6608.7209 1.6608 1.9137v6.7779c0 .1784.0957.2787.2946.2787h1.878a.2375.2375 0 0 0 .1129-.0079.23987.23987 0 0 0 .0966-.0594.24222.24222 0 0 0 .0588-.0975.24416.24416 0 0 0 .0079-.1139v-7.1755c0-2.2332-1.1268-3.74934-3.2-3.74934-.6529.00695-1.294.17644-1.8663.49343-.5724.31698-1.0584.77161-1.4148 1.32371V9.42174a.25037.25037 0 0 0-.0176-.10622.24938.24938 0 0 0-.0604-.08876.24673.24673 0 0 0-.092-.05472.24438.24438 0 0 0-.1062-.01042h-1.8412a.2447.2447 0 0 0-.1074.00912.24612.24612 0 0 0-.0932.05442.24708.24708 0 0 0-.0614.08934.25198.25198 0 0 0-.0179.10724V19.8858c0 .1784.0995.2787.2983.2787h1.8781a.24928.24928 0 0 0 .1103-.0128.25102.25102 0 0 0 .094-.0597.2545.2545 0 0 0 .0592-.0949.25475.25475 0 0 0 .0126-.1113zM68.2466 6.73124v2.51197h2.1726c.1584 0 .2578.10033.2578.29728v1.43811c0 .1969-.0994.2786-.2578.2786h-2.1726v5.5405c0 .7952.4345 1.1928 1.322 1.1928h.8322a.2408.2408 0 0 1 .113.0098.2436.2436 0 0 1 .0964.0604c.0269.0276.047.0612.0586.098a.24828.24828 0 0 1 .0082.1142v1.6128a.24374.24374 0 0 1-.0079.1138.24222.24222 0 0 1-.0588.0975.23914.23914 0 0 1-.0967.0594.237.237 0 0 1-.1128.0079h-1.2263c-2.2094 0-3.3142-1.1965-3.3142-3.0284v-5.8787h-1.3624a.24034.24034 0 0 1-.112-.0096.24272.24272 0 0 1-.0957-.0595.24508.24508 0 0 1-.0589-.0966.24683.24683 0 0 1-.0096-.1129V9.54049c0-.19695.0994-.29728.2762-.29728h1.3809V6.73124a.2616.2616 0 0 1 .0154-.10985.25932.25932 0 0 1 .0594-.09338.25686.25686 0 0 1 .0925-.05991.2554.2554 0 0 1 .1088-.01556h1.8192a.24815.24815 0 0 1 .1091.01412.25048.25048 0 0 1 .0927.05998.25504.25504 0 0 1 .0582.09426.25511.25511 0 0 1 .0125.11034z"/><path fill="#9C24C7" fill-rule="evenodd" d="M80.5718 19.8858v-7.313c0-2.4116-1.5393-3.63045-4.0875-3.63045-2.4673 0-3.874 1.09245-4.187 2.63085-.0589.1598 0 .2601.1768.3196l1.7234.4385c.2099.0594.2909.0223.3682-.197.2799-.7803.6923-1.1965 1.8191-1.1965 1.1268 0 1.7971.4979 1.7971 1.7316v.9996a16.61936 16.61936 0 0 0-2.2316.0186c-2.8465.1969-4.1464 1.3563-4.1464 3.3443 0 1.9881 1.2999 3.3444 3.3547 3.3444.6304.0018 1.2504-.1629 1.7982-.4778.5478-.3148 1.0044-.7689 1.3245-1.317v1.3043a.25349.25349 0 0 0 .0127.1113.253.253 0 0 0 .0591.0949.25181.25181 0 0 0 .094.0597.24956.24956 0 0 0 .1104.0128h1.7381a.24928.24928 0 0 0 .1103-.0128.25102.25102 0 0 0 .094-.0597.2545.2545 0 0 0 .0592-.0949.25646.25646 0 0 0 .0127-.1113zm-2.3899-4.6226v1.3526c-.4346 1.1185-1.2852 1.7762-2.3899 1.7873-1.0459 0-1.6608-.5908-1.6608-1.4864 0-1.0367.7328-1.4752 2.0143-1.6164a16.85469 16.85469 0 0 1 2.0364-.0371zm13.7684 5.6592c0 1.8579-1.3846 3.4261-5.1149 3.4261-3.3805 0-4.662-1.1929-4.662-2.9468 0-.9364.5524-1.8134 1.6792-2.2927-.2285-.1691-.4166-.3877-.5505-.6398-.1338-.252-.2099-.5312-.2228-.8169.0017-.3475.1084-.6863.3057-.9711.1974-.2848.4761-.5021.7991-.623-.5367-.3078-.9789-.7588-1.2784-1.3035-.2994-.5447-.4445-1.1621-.4193-1.7844 0-2.1924 1.3405-3.80887 4.2459-3.80887h4.8976a.23008.23008 0 0 1 .0906.02435.23316.23316 0 0 1 .0736.0585.23645.23645 0 0 1 .0447.0831.23598.23598 0 0 1 .0084.09416v1.39716a.26557.26557 0 0 1-.0167.1092.26306.26306 0 0 1-.0594.0927.26094.26094 0 0 1-.0919.06.25774.25774 0 0 1-.1082.0168h-1.7197c.3177.2739.5698.6167.7375 1.0028.1677.3861.2467.8055.231 1.2268 0 1.8951-1.322 3.3443-4.0507 3.3443h-.6923c-.6518 0-.9279.2824-.9279.6578 0 .3753.2982.6205.9279.6205h2.2537c2.5519.0223 3.6198 1.2783 3.6198 2.9728zm-2.331.2192c0-.6391-.3682-1.2374-1.6387-1.2374h-1.9958c-1.1674 0-1.5798.6206-1.5798 1.256 0 .9178.7365 1.5161 2.5777 1.5161 1.8412 0 2.6366-.6577 2.6366-1.5347zm-4.9234-8.1713c0 1.1965.6923 1.9917 2.0364 1.9917 1.2631 0 1.9738-.7172 1.9738-1.9732 0-1.1965-.6518-1.9731-1.9959-1.9731s-2.0143.7172-2.0143 1.9546zm10.6499 3.0881v-.6355h6.1572c.375 0 .497-.1597.497-.4793v-1.6759c0-2.4674-1.499-4.32535-4.4189-4.32535-3.0417 0-4.5847 1.87655-4.5847 4.36625v2.7089c0 2.5528 1.6019 4.3662 4.6215 4.3662 2.0732 0 3.5941-.8769 4.2461-2.3299.121-.2415.099-.4013-.177-.5388l-1.245-.6391c-.257-.1189-.353-.0781-.5115.1783-.3756.7395-.8175 1.3155-2.2905 1.3155-1.5577-.0186-2.2942-.8956-2.2942-2.3113zm0-2.2705v-.5797c0-1.3526.7034-2.2518 2.1764-2.2518 1.4729 0 2.2094.8992 2.2094 2.2518v.5797h-4.3858z" clip-rule="evenodd"/></svg>