<svg xmlns="http://www.w3.org/2000/svg" role="img" xmlns:xlink="http://www.w3.org/1999/xlink" viewBox="-2.66 2.59 216.06 52.56"><title>VDURA (member) logo</title><defs><path d="M7.96875-43.03906L20.33203-6.38672l12.21485-36.65234h6.53515L23.37891 0h-6.1836L1.52344-43.03906zm0 0" id="a"/><path d="M21.09375-4.98047c1.97266 0 3.59375-.20703 4.86328-.61328 2.26563-.76172 4.1211-2.22656 5.5664-4.39844 1.15235-1.73828 1.98438-3.96093 2.4922-6.67968.29296-1.6211.4375-3.125.4375-4.50782 0-5.33203-1.0586-9.47656-3.1797-12.42187-2.11718-2.94922-5.53124-4.42578-10.23827-4.42578H10.6953v33.04687zM4.83594-43.03907h17.42968c5.91797 0 10.50782 2.10157 13.76954 6.30079 2.91015 3.78906 4.36328 8.64453 4.36328 14.5586 0 4.5703-.85938 8.70312-2.57813 12.39452C34.79297-3.26172 29.58984 0 22.20703 0H4.83593zm0 0" id="b"/><path d="M10.89844-43.03906v26.60156c0 3.125.58593 5.72656 1.75781 7.79688 1.73828 3.125 4.66797 4.6875 8.78906 4.6875 4.9414 0 8.30078-1.69141 10.07813-5.07032.95703-1.83593 1.4375-4.30468 1.4375-7.41406v-26.60156H38.875v24.17187c0 5.29297-.71094 9.36719-2.13672 12.21875-2.61719 5.19531-7.5586 7.78906-14.82422 7.78906S9.71875-1.45313 7.1172-6.64844C5.6914-9.5 4.98047-13.57422 4.98047-18.86719v-24.17187zm0 0" id="c"/><path d="M24.57813-23.32031c2.73437 0 4.89843-.54688 6.49218-1.64063 1.58985-1.09375 2.38672-3.0664 2.38672-5.91797 0-3.0664-1.11328-5.15625-3.33984-6.26953-1.1914-.58593-2.78125-.8789-4.77344-.8789H11.10156v14.70703zM5.27342-43.03906h19.92188c3.28125 0 5.98438.48047 8.11719 1.4375 4.04297 1.83593 6.0625 5.22656 6.0625 10.16406 0 2.57813-.53125 4.6875-1.59766 6.32813-1.0625 1.64062-2.55078 2.96093-4.46484 3.95703 1.67969.68359 2.9414 1.58203 3.79297 2.6953.84766 1.11329 1.32422 2.91798 1.41797 5.41798l.20703 5.77343c.0586 1.64063.19531 2.85938.41016 3.66407.35156 1.36719.97656 2.24219 1.875 2.63281V0h-7.14844c-.19532-.3711-.35157-.85156-.46875-1.4375-.11719-.58594-.21485-1.71875-.29297-3.39844l-.35156-7.17578c-.13672-2.8125-1.1836-4.69922-3.13672-5.65234-1.11328-.52735-2.85938-.79297-5.24219-.79297H11.10156V0H5.27344zm0 0" id="d"/><path d="M26.66016-17.63672L20.125-36.64844l-6.9414 19.01172zm-9.58204-25.40234h6.59376L39.28905 0h-6.39062l-4.36328-12.89063H11.51562L6.85548 0H.8789zm0 0" id="e"/></defs><use y="50" xlink:href="#a"/><use x="40.02" y="50" xlink:href="#b"/><use x="83.35" y="50" xlink:href="#c"/><use x="126.68" y="50" xlink:href="#d"/><use x="170.01" y="50" xlink:href="#e"/></svg>