<svg xmlns="http://www.w3.org/2000/svg" role="img" viewBox="36.71 36.71 691.08 226.08"><title>Vertice logo</title><defs><linearGradient id="a" x1="50" x2="175" y1="150" y2="150" gradientUnits="userSpaceOnUse"><stop offset="0" stop-color="#003ebf"/><stop offset="1" stop-color="#8940ff"/></linearGradient></defs><path fill="#fff" d="M0 0h765v300H0z"/><path fill="#1e293b" d="M293.33 122l-33.68 88h-25.77L200 122h29.43l18.32 57.85L266.07 122h27.26zm84.07 41.72c0-26.41-15.06-44.72-42.14-44.72-31.16 0-45.07 20.65-45.07 47.39 0 28.9 15.87 46.57 48.88 46.61 10.74 0 22.16-1.77 32.21-6.89l2.15-22.29c-9.42 4.36-19.69 6.56-30.06 6.44-13.12 0-21.28-3.07-24.18-14.3h57.55c.34-3.26.69-8.87.67-12.24zm-58.91-4.79c1.03-11.58 5.46-17.39 16.34-17.36 9.53 0 15.16 5.96 15.33 17.36h-31.68zM430.67 119c-6.98 0-15.53 4.48-19.61 14.88L409.3 122h-23.98v88.01h27.92v-57.04c2.9-6.83 8.7-10.39 17.54-10.39 3.08.02 6.1.89 8.98 2l2.76-21.41c-3.54-2.07-7.75-4.22-11.85-4.16zm85.81-6h27.92V90.07h-27.92V113zm0 97h27.92v-88h-27.92v88zm83.83 3c7.26-.04 14.44-1.84 21.11-4.72l2.11-22.78c-6.45 2.78-13.42 4.17-20.44 4.08-10.57 0-21.8-6.44-21.8-23.15s10.39-22.86 22.48-22.86c6.19-.12 12.34.75 18.06 3.12l2.15-21.63c-7.29-3.41-15.37-6.23-23.42-6.07-29.64 0-47.86 19.15-47.86 47.41s18 46.61 47.61 46.59zm-120.9-37.04v-33.39h24.63l1.77-20.57h-26.4l.1-32s-24.87.06-28.8 17.24c-.41 1.88-.6 3.79-.58 5.71v66.57c0 21.28 12.61 32.68 34.75 32.68 6.16 0 12.25-.52 18.17-2.21l1.91-21.97c-4.31 1.27-8.79 1.84-13.27 1.7-8.87-.17-12.28-4.6-12.28-13.77zM715 163.72c0-26.41-15.06-44.72-42.14-44.72-31.16 0-45.07 20.65-45.07 47.39 0 28.9 15.87 46.57 48.88 46.61 10.74 0 22.16-1.77 32.21-6.89l2.15-22.29c-9.42 4.36-19.69 6.56-30.06 6.44-13.12 0-21.28-3.07-24.18-14.3h57.55c.34-3.26.69-8.87.67-12.24zm-58.91-4.79c1.03-11.58 5.46-17.39 16.34-17.36 9.53 0 15.16 5.96 15.33 17.36h-31.68z"/><path fill="url(#a)" d="M164.86 51.19c-3.51-1.38-7.27-1.61-10.56-.41-1.55.57-3.74 1.48-5.77 3.19l-58.05 48.3c7.7 9.25 19.17 14.69 31.24 14.78l-27.88 70.76c-10.73-31.15-23.65-68.67-23.65-68.67l-6.84 5.69c-11.42 9.25-16.44 24.99-11.37 39.69l25.75 74.7c1.48 4.26 4.72 7.88 9.25 9.66 8.22 3.24 17.51-.8 20.75-9.02l66.15-167.93c3.24-8.22-.8-17.51-9.02-20.75z"/></svg>