<svg xmlns="http://www.w3.org/2000/svg" role="img" viewBox="21.41 39.41 316.68 281.93"><title>Virtual Power Systems logo</title><style>svg {enable-background:new 0 0 360 360}</style><style>.st0{fill:#6b4c9f}</style><path d="M215.9 62.2c33.7 0 62.8 24.5 62.8 71.2 0 0 33.7 8.9 33.7 46.7 0 33.2-33.2 43.5-33.2 43.5l-109.4.2-22-59.7h19.1s.6 7 5.6 12c5.1 5.1 9.8 6.6 9.9 6.2 0-.1.1-.1.2-.1h35.8l-.1-12h29.1v-7.7l-29.2-.1V149h29.4v-7.9h-29.4v-13.3h-32.9s-8.2.1-13 5.6c-4.7 5.4-5.5 12.9-5.5 12.9h-32.9s-8.4.5-8.2 9.4c.2 12.2 30.6 85 30.6 85H284s48.2-12.2 48.2-61.3c0-40.7-36-57.4-36-57.4s3.3-25.4-22.4-52.8c-13.8-14.7-37.9-23.7-58.4-23.7-18.4 0-49.4 6.9-64 35.2 0 0-20.6-4.2-39.8 8.4-22.3 14.6-23 27.6-23 27.6s-61-2.3-61 62.8c0 54.6 54.1 61.3 54.1 61.3h44.4s3.8-1.1 3.8-8.1c0-7.6-5.3-9.6-5.3-9.6H83.4s-36.8-6.9-36.8-43.7c0-32.2 25.1-47.8 53.4-45.3 0 0-.6-11.2 17.2-26.2 17.7-15 42.8-7.4 42.8-7.4s17.6-38.3 55.9-38.3z" class="st0"/><path d="M110.5 257.3h9.4l19.3 47 19.3-47h9.2l-24.3 57.3h-8.6l-24.3-57.3zm61.2 0H194c2.5 0 4.8.4 6.9 1.3 2.1.9 4 2.1 5.5 3.6 1.6 1.6 2.8 3.4 3.7 5.5.9 2.1 1.4 4.4 1.4 6.8 0 2.4-.5 4.6-1.4 6.7-.9 2.1-2.1 3.9-3.7 5.4-1.6 1.5-3.4 2.7-5.5 3.6-2.1.9-4.4 1.4-6.9 1.4h-13.7v23h-8.6v-57.3zm8.6 7.5v19.4h13c1.4 0 2.7-.2 3.8-.7 1.1-.5 2.1-1.2 2.9-2 .8-.9 1.5-1.9 1.9-3.1.5-1.2.7-2.4.7-3.8s-.2-2.6-.7-3.8c-.5-1.2-1.1-2.2-1.9-3.1-.8-.9-1.8-1.6-2.9-2s-2.4-.7-3.8-.7h-13zm45.2 32.3c.5 3.5 2 6.2 4.3 8.2 2.3 1.9 5.4 2.9 9.3 2.9 3.5 0 6.3-.8 8.2-2.3 1.9-1.6 2.9-3.6 2.9-6.2 0-4.1-2.9-7-8.6-8.6l-9.5-2.6c-9.6-2.6-14.4-7.8-14.4-15.6 0-2.5.5-4.7 1.4-6.8 1-2 2.3-3.8 3.9-5.2 1.7-1.4 3.6-2.5 5.9-3.3 2.3-.8 4.8-1.2 7.5-1.2 2.8 0 5.5.4 7.9 1.3 2.4.9 4.5 2.1 6.3 3.7 1.8 1.6 3.3 3.5 4.5 5.7 1.2 2.2 1.9 4.7 2.3 7.4H249c-.6-3.4-2-6.1-4.1-8s-5-2.8-8.5-2.8c-2.9 0-5.4.8-7.3 2.3-1.9 1.5-2.9 3.6-2.9 6.2 0 2.1.7 3.8 2.1 5.2 1.4 1.4 3.5 2.4 6.1 3.2l9.7 2.6c5.1 1.4 8.8 3.4 11.1 5.9 2.3 2.5 3.5 5.7 3.5 9.8 0 2.4-.5 4.6-1.4 6.6-.9 2-2.2 3.8-3.9 5.2-1.7 1.5-3.8 2.6-6.2 3.5-2.4.8-5.1 1.3-8.1 1.3-3.1 0-5.9-.4-8.4-1.3-2.6-.9-4.8-2.1-6.7-3.7-1.9-1.6-3.5-3.5-4.7-5.8s-1.9-4.8-2.1-7.5h8.3z" class="st0"/></svg>