<svg xmlns="http://www.w3.org/2000/svg" role="img" viewBox="4.22 6.22 144.43 68.43"><title>VitalHub Corp. logo</title><path d="M133 20h3v1h-3zm3 0h1v1h-1zm-2 1h1v1h-1z" fill="#36b2b8"/><path fill="#36fbff" d="M128 22h1v1h-1z"/><path d="M121 23h1v1h-1zm4 11h1v1h-1z" fill="#4ff9ff"/><path fill="#38b1b7" d="M134 22h1v1h-1z"/><path fill="#626262" d="M144 22h1v1h-1z"/><path fill="#31fbff" d="M127 23h1v1h-1z"/><path fill="#20b2bc" d="M130 24h1v1h-1z"/><path fill="#4cd0d7" d="M128 28h1v1h-1z"/><path fill="#7b6665" d="M135 25h1v1h-1z"/><path d="M137 17h1v1h-1zm1 0h1v1h-1zm-7 1h1v1h-1zm-4 7h1v1h-1z" fill="#4fffff"/><path fill="#2ff1ff" d="M128 19h1v1h-1z"/><path fill="#24adb6" d="M130 23h1v1h-1z"/><path fill="#4bf5fc" d="M122 18h1v1h-1z"/><path fill="#22b8c1" d="M133 24h1v1h-1z"/><path fill="#4cc0c5" d="M128 27h1v1h-1z"/><path fill="#52f7fe" d="M134 10h1v1h-1z"/><path d="M135 16h2v1h-2zm2 0h1v1h-1zm-16 8h1v1h-1zm5 2h1v1h-1zm-5 2h1v1h-1z" fill="#4bf8ff"/><path fill="#747474" d="M142 20h1v1h-1z"/><path d="M143 21h1v1h-1zm0 2h1v1h-1zm-2 8h1v1h-1z" fill="#6f6f6f"/><path d="M137 22h1v1h-1zm-4 8h1v1h-1z" fill="#6f7474"/><path d="M139 22h1v1h-1zm-1 1h1v1h-1zm-2 2h1v1h-1zm-2 2h1v1h-1z" fill="#707272"/><path fill="#3bc4ca" d="M136 18h1v1h-1z"/><path fill="#548485" d="M129 26h1v1h-1z"/><path fill="#4d9597" d="M130 29h1v1h-1z"/><path fill="#4bc5cb" d="M130 32h1v1h-1z"/><path d="M123 13h1v1h-1zm2 5h1v1h-1z" fill="#47f6ff"/><path fill="#4dfeff" d="M136 17h1v1h-1z"/><path fill="#39b2b8" d="M133 21h1v1h-1z"/><path fill="#1ab3be" d="M132 24h1v1h-1z"/><path d="M144 24h1v1h-1zm-1 2h1v1h-1zm1 0h1v1h-1zm0 2h1v1h-1zm-4 4h1v1h-1zm-5 2h1v1h-1z" fill="#707070"/><path d="M70 28h1v1h-1zm0 1h1v1h-1zm0 1h1v1h-1zm0 1h1v22h-1zm0 22h1v1h-1zm0 1h1v1h-1zm0 1h1v1h-1z" fill="#00f2ff"/><path fill="#45f7ff" d="M120 30h1v1h-1z"/><path fill="#45f3fb" d="M122 15h1v1h-1z"/><path d="M126 17h2v1h-2zm2 0h1v1h-1zm2 1h1v1h-1zm-6 5h1v1h-1z" fill="#4ff8ff"/><path d="M134 26h1v1h-1zm1 0h1v1h-1z" fill="#726f6f"/><path fill="#32f5ff" d="M129 19h1v1h-1z"/><path fill="#61ffff" d="M122 33h1v1h-1z"/><path fill="#4d8789" d="M129 27h1v1h-1z"/><path fill="#746e6d" d="M134 28h1v1h-1z"/><path fill="#32a4aa" d="M134 19h1v1h-1z"/><path d="M126 20h2v1h-2zm2 0h1v1h-1z" fill="#34f3ff"/><path fill="#559193" d="M133 28h1v1h-1z"/><path fill="#48f5fb" d="M139 13h1v1h-1z"/><path d="M141 19h1v1h-1zm-1 1h1v1h-1z" fill="#717373"/><path d="M132 27h1v1h-1zm0 3h1v1h-1z" fill="#4a9ca0"/><path d="M129 9h1v1h-1zm1 0h1v1h-1zm2 0h1v1h-1zm-4 1h1v1h-1zm3 0h1v1h-1zm1 0h1v1h-1zm4 1h1v1h-1zm-13 1h1v1h-1zm1 0h1v1h-1zm-1 5h1v1h-1zm0 15h1v1h-1z" fill="#4cf7ff"/><path fill="#36a6ac" d="M132 20h1v1h-1z"/><path fill="#28c2c9" d="M137 20h1v1h-1z"/><path fill="#36feff" d="M128 21h1v1h-1z"/><path d="M130 28h1v1h-1zm1 0h1v1h-1zm0 1h1v1h-1z" fill="#4d999c"/><path fill="#4af7fe" d="M138 13h1v1h-1z"/><path fill="#4cdee5" d="M129 31h1v1h-1z"/><path fill="#56faff" d="M121 32h1v1h-1z"/><path fill="#7a605f" d="M131 33h1v1h-1z"/><path fill="#35a4ab" d="M138 19h1v1h-1z"/><path fill="#33f3ff" d="M125 20h1v1h-1z"/><path fill="#20a8b2" d="M131 21h1v1h-1z"/><path fill="#27bbc5" d="M129 22h1v1h-1z"/><path fill="#4ff" d="M129 33h1v1h-1z"/><path fill="#3fccd3" d="M137 18h1v1h-1z"/><path fill="#46f6ff" d="M125 23h1v1h-1z"/><path fill="#4ae8ec" d="M131 19h1v1h-1z"/><path fill="#32a6ac" d="M133 19h1v1h-1z"/><path fill="#21a1aa" d="M130 21h1v1h-1z"/><path fill="#37b0b6" d="M135 21h1v1h-1z"/><path fill="#4ff7ff" d="M123 22h1v1h-1z"/><path d="M139 19h1v1h-1zm1 0h1v1h-1z" fill="#776060"/><path d="M142 21h1v1h-1zm1 3h1v1h-1zm-10 10h1v1h-1z" fill="#737373"/><path fill="#27b0b8" d="M132 22h1v1h-1z"/><path d="M142 22h1v1h-1zm1 3h1v1h-1zm-1 3h1v1h-1zm-1 2h1v1h-1zm-2 1h1v1h-1zm0 1h1v1h-1zm-2 1h1v1h-1zm-3 1h1v1h-1zm2 0h1v1h-1z" fill="#727272"/><path fill="#2fb9c0" d="M135 23h1v1h-1z"/><path fill="#589091" d="M133 26h1v1h-1z"/><path d="M121 35h1v1h-1zm2 1h1v1h-1zm2 1h1v1h-1z" fill="#00efff"/><path fill="#4df8ff" d="M124 11h1v1h-1z"/><path d="M144 23h1v1h-1zm0 4h1v1h-1z" fill="#7a7a7a"/><path fill="#4d9598" d="M129 29h1v1h-1z"/><path fill="#756d6d" d="M134 30h1v1h-1z"/><path fill="#3be7eb" d="M138 18h1v1h-1z"/><path fill="#45f5ff" d="M123 20h1v1h-1z"/><path fill="#2ac0c7" d="M136 21h1v1h-1z"/><path fill="#2dbcc3" d="M135 22h1v1h-1z"/><path fill="#1aa6b0" d="M129 24h1v1h-1z"/><path fill="#5f5f5f" d="M145 24h1v1h-1z"/><path fill="#6d6d6d" d="M143 27h1v1h-1z"/><path fill="#29d7e1" d="M130 20h1v1h-1z"/><path fill="#32b1b8" d="M133 23h1v1h-1z"/><path d="M131 26h1v1h-1zm0 1h1v1h-1z" fill="#4f989b"/><path fill="#44a0a4" d="M131 31h1v1h-1z"/><path fill="#706c6c" d="M132 34h1v1h-1z"/><path fill="#509598" d="M133 27h1v1h-1z"/><path fill="#6a6a6a" d="M142 30h1v1h-1z"/><path fill="#707171" d="M133 33h1v1h-1z"/><path d="M133 17h2v1h-2zm2 0h1v1h-1z" fill="#4effff"/><path d="M122 23h1v1h-1zm-1 3h1v1h-1z" fill="#49f6ff"/><path fill="#52b9bd" d="M128 26h1v1h-1z"/><path fill="#45e3e9" d="M133 18h1v1h-1z"/><path fill="#7c6564" d="M137 23h1v1h-1z"/><path fill="#4ef9ff" d="M120 26h1v1h-1z"/><path d="M124 18h1v1h-1zm1 6h1v1h-1z" fill="#50f8ff"/><path d="M120 24h1v1h-1zm8 8h1v1h-1z" fill="#4bf9ff"/><path fill="#20b2bb" d="M131 24h1v1h-1z"/><path fill="#588c8f" d="M138 20h1v1h-1z"/><path fill="#30e3ed" d="M129 21h1v1h-1z"/><path fill="#687b7c" d="M136 23h1v1h-1z"/><path fill="#33979d" d="M129 25h1v1h-1z"/><path fill="#32b2b9" d="M132 21h1v1h-1z"/><path fill="#25afb8" d="M131 23h1v1h-1z"/><path fill="#40abb0" d="M134 24h1v1h-1z"/><path fill="#3cf2fb" d="M122 14h1v1h-1z"/><path fill="#2baeb4" d="M137 19h1v1h-1z"/><path fill="#51f7fe" d="M127 9h1v1h-1z"/><path fill="#4af6fe" d="M133 10h1v1h-1z"/><path d="M125 11h1v1h-1zm10 0h1v1h-1zm1 1h1v1h-1zm2 2h1v1h-1zm0 1h1v1h-1zm-16 1h1v1h-1zm-2 9h1v1h-1zm4 8h1v1h-1zm2 1h1v1h-1z" fill="#4af7ff"/><path fill="#45f6ff" d="M122 17h1v1h-1z"/><path fill="#4dfdff" d="M132 18h1v1h-1z"/><path fill="#479fa3" d="M132 28h1v1h-1z"/><path fill="#45ffff" d="M130 19h1v1h-1z"/><path d="M134 29h1v1h-1zm-1 2h1v1h-1zm-1 1h1v1h-1z" fill="#786a69"/><path fill="#4df7fe" d="M138 12h1v1h-1z"/><path fill="#4fbcbe" d="M139 18h1v1h-1z"/><path d="M125 19h1v1h-1zm1 3h1v1h-1z" fill="#31f3ff"/><path fill="#33a8ad" d="M136 19h1v1h-1z"/><path fill="#24a9b2" d="M129 23h1v1h-1z"/><path fill="#46a1a5" d="M132 29h1v1h-1z"/><path fill="#4e888a" d="M130 30h1v1h-1z"/><path d="M137 12h1v1h-1zm-13 1h1v1h-1zm1 4h1v1h-1zm4 0h1v1h-1z" fill="#4ef7ff"/><path fill="#4bfaff" d="M127 30h1v1h-1z"/><path fill="#35f3ff" d="M126 21h1v1h-1z"/><path fill="#838383" d="M145 23h1v1h-1z"/><path fill="#3bffff" d="M127 24h1v1h-1z"/><g fill="#00f0ff"><path d="M71 28h1v1h-1zm1 0h1v1h-1zm1 0h1v1h-1zm37 0h1v1h-1zm1 0h1v1h-1zm1 0h1v1h-1zm1 0h1v1h-1zm-42 1h1v25h-1zm1 0h1v25h-1zm1 0h1v1h-1zm37 0h1v1h-1zm1 0h1v25h-1zm1 0h1v22h-1zm1 0h1v1h-1zm-40 1h1v1h-1zm37 0h1v1h-1zm3 0h1v1h-1zm-40 1h1v4h-1zm37 0h1v21h-1zm3 0h1v3h-1zm0 3h1v1h-1zm-40 1h1v1h-1zm4 0h1v1h-1zm1 0h1v1h-1zm1 0h1v1h-1zm1 0h1v1h-1zm1 0h1v1h-1zm1 0h1v1h-1zm1 0h1v1h-1zm7 0h1v1h-1zm1 0h1v1h-1zm1 0h1v1h-1zm1 0h1v1h-1zm10 0h1v1h-1zm1 0h1v1h-1zm1 0h1v1h-1zm1 0h1v1h-1zm7 0h1v1h-1zm3 0h1v1h-1zm1 0h1v1h-1zm1 0h1v1h-1zm1 0h1v1h-1zm1 0h1v1h-1zm-47 1h1v1h-1zm2 0h1v1h-1zm1 0h1v1h-1zm1 0h5v1h-5zm5 0h1v2h-1zm1 0h1v1h-1zm1 0h1v1h-1zm6 0h1v1h-1zm1 0h1v15h-1zm1 0h1v17h-1zm1 0h1v1h-1zm10 0h1v1h-1zm1 0h1v14h-1zm1 0h1v18h-1zm1 0h1v1h-1zm7 0h1v1h-1zm2 0h1v1h-1zm1 0h1v1h-1zm1 0h5v1h-5zm5 0h1v2h-1zm-49 1h1v1h-1zm1 0h1v1h-1zm1 0h1v1h-1zm1 0h1v1h-1zm1 0h1v1h-1zm1 0h1v1h-1zm1 0h1v1h-1zm1 0h1v1h-1z"/><path d="M81 37h3v1h-3zm3 0h1v17h-1zm1 0h1v1h-1zm5 0h1v1h-1zm3 0h1v1h-1zm10 0h1v1h-1zm3 0h1v1h-1zm7 0h1v1h-1zm1 0h1v1h-1zm1 0h2v1h-2zm2 0h1v1h-1zm1 0h1v1h-1zm1 0h1v1h-1zm1 0h3v1h-3zm3 0h1v2h-1zm1 0h1v1h-1zm-51 1h1v1h-1zm1 0h1v1h-1zm1 0h1v1h-1zm1 0h1v1h-1zm1 0h1v1h-1zm1 0h1v1h-1zm2 0h1v1h-1zm1 0h1v1h-1zm1 0h2v1h-2zm3 0h1v1h-1zm5 0h1v9h-1zm3 0h1v9h-1zm10 0h1v7h-1zm3 0h1v15h-1zm7 0h1v1h-1zm1 0h1v1h-1zm1 0h1v1h-1zm1 0h1v1h-1zm1 0h1v1h-1zm3 0h1v1h-1zm1 0h1v1h-1z"/><path d="M122 38h2v1h-2zm2 0h1v4h-1zm1 0h1v1h-1zm-52 1h1v1h-1zm1 0h1v1h-1zm1 0h1v1h-1zm7 0h1v1h-1zm1 0h2v1h-2zm2 0h1v15h-1zm1 0h1v1h-1zm27 0h1v1h-1zm1 0h1v1h-1zm1 0h1v1h-1zm7 0h1v1h-1z"/><path d="M123 39h2v1h-2zm2 0h1v12h-1zm1 0h1v1h-1zm-53 1h1v2h-1zm1 0h1v1h-1zm1 0h1v1h-1zm8 0h1v1h-1zm3 0h1v1h-1zm27 0h1v1h-1zm1 0h1v1h-1zm9 0h1v1h-1zm3 0h1v1h-1zm-52 1h1v1h-1zm9 0h1v1h-1zm3 0h1v1h-1zm27 0h1v1h-1zm1 0h1v1h-1zm9 0h1v1h-1zm3 0h1v8h-1zm1 0h1v1h-1zm-54 1h1v1h-1zm1 0h1v1h-1zm9 0h1v1h-1zm3 0h1v1h-1zm27 0h1v1h-1zm10 0h1v1h-1z"/><path d="M124 42h2v1h-2zm3 0h1v1h-1zm-54 1h1v1h-1zm10 0h1v1h-1zm3 0h1v1h-1zm27 0h1v1h-1zm11 0h1v1h-1zm3 0h1v1h-1zm-54 1h1v1h-1zm10 0h1v1h-1zm3 0h1v9h-1zm27 0h1v1h-1zm11 0h1v1h-1zm3 0h1v1h-1zm-54 1h1v8h-1zm10 0h1v8h-1zm20 0h1v1h-1zm10 0h1v1h-1zm11 0h1v1h-1zm3 0h1v1h-1zm-24 1h1v1h-1zm10 0h1v1h-1zm11 0h1v1h-1zm3 0h1v1h-1zm-37 1h1v1h-1zm3 0h1v2h-1zm10 0h1v1h-1zm10 0h1v1h-1zm11 0h1v1h-1zm3 0h1v1h-1zm-37 1h1v1h-1zm13 0h1v1h-1zm10 0h1v1h-1zm11 0h1v1h-1zm3 0h1v1h-1zm-37 1h1v1h-1zm3 0h1v1h-1zm9 0h1v1h-1zm1 0h1v1h-1zm10 0h1v1h-1zm10 0h1v1h-1zm1 0h2v2h-2zm2 0h1v1h-1zm1 0h1v1h-1zm-37 1h1v1h-1zm3 0h1v1h-1zm9 0h1v1h-1zm1 0h2v1h-2zm10 0h1v1h-1zm1 0h1v1h-1zm9 0h1v1h-1zm3 0h1v1h-1zm-36 1h1v1h-1zm1 0h2v1h-2zm2 0h1v3h-1zm1 0h1v1h-1zm7 0h1v1h-1zm1 0h1v1h-1zm1 0h2v1h-2zm9 0h1v1h-1zm1 0h1v1h-1zm1 0h1v1h-1zm8 0h1v1h-1zm1 0h2v2h-2zm2 0h1v1h-1zm1 0h1v1h-1zm-35 1h1v1h-1zm3 0h1v1h-1zm1 0h1v1h-1zm5 0h1v1h-1zm1 0h1v1h-1zm1 0h1v1h-1zm1 0h1v1h-1zm1 0h1v1h-1zm6 0h1v1h-1zm2 0h1v1h-1zm1 0h1v1h-1zm1 0h1v1h-1zm1 0h1v1h-1zm1 0h1v1h-1zm5 0h1v1h-1zm1 0h1v1h-1zm3 0h1v1h-1zm-52 1h1v1h-1zm10 0h1v1h-1zm3 0h1v1h-1zm5 0h1v1h-1z"/><path d="M92 53h2v1h-2zm2 0h1v1h-1zm1 0h1v1h-1zm1 0h1v1h-1zm1 0h1v1h-1zm1 0h1v1h-1zm1 0h1v1h-1zm1 0h1v1h-1zm1 0h1v1h-1zm1 0h1v1h-1zm1 0h1v1h-1zm1 0h1v1h-1zm2 0h1v1h-1zm4 0h1v1h-1zm2 0h1v1h-1zm1 0h1v1h-1zm1 0h1v1h-1zm1 0h1v1h-1zm1 0h1v1h-1zm1 0h1v1h-1zm1 0h1v1h-1zm1 0h1v1h-1zm1 0h1v1h-1zm1 0h1v1h-1zm1 0h2v1h-2zm2 0h1v1h-1zm1 0h1v1h-1zm-54 1h1v1h-1zm1 0h1v1h-1zm1 0h1v1h-1zm10 0h1v1h-1zm1 0h1v1h-1zm1 0h1v1h-1zm1 0h1v1h-1zm6 0h1v1h-1zm1 0h7v1h-7zm7 0h1v1h-1zm1 0h1v1h-1zm2 0h1v1h-1zm1 0h1v1h-1zm1 0h1v1h-1zm1 0h1v1h-1zm4 0h1v1h-1zm1 0h1v1h-1zm1 0h1v1h-1zm2 0h1v1h-1zm1 0h8v1h-8zm8 0h1v1h-1zm1 0h1v1h-1zm-53 1h1v1h-1zm1 0h1v1h-1zm1 0h1v1h-1zm10 0h1v1h-1zm1 0h1v1h-1zm1 0h1v1h-1zm1 0h1v1h-1zm7 0h1v1h-1zm1 0h1v1h-1zm1 0h3v1h-3zm3 0h1v1h-1zm1 0h1v1h-1zm1 0h1v1h-1zm3 0h1v1h-1zm1 0h1v1h-1zm1 0h1v1h-1zm1 0h1v1h-1zm4 0h1v1h-1zm1 0h1v1h-1zm1 0h1v1h-1zm3 0h1v1h-1zm1 0h1v1h-1zm1 0h3v1h-3zm3 0h1v1h-1zm1 0h1v1h-1zm1 0h1v1h-1zm1 0h1v1h-1zm-28 1h1v1h-1zm1 0h1v1h-1zm1 0h1v1h-1zm1 0h1v1h-1zm1 0h1v1h-1zm18 0h1v1h-1zm1 0h1v1h-1zm1 0h1v1h-1zm1 0h1v1h-1zm1 0h1v1h-1zm-77 5h1v1h-1zm1 0h1v1h-1zm1 0h1v1h-1zm1 0h1v1h-1zm1 0h1v1h-1zm1 0h1v1h-1zm27 0h5v1h-5zm5 0h1v1h-1zm1 0h1v1h-1zm16 0h1v1h-1zm1 0h1v1h-1zm21 0h2v1h-2zm2 0h1v1h-1zm-79 1h1v1h-1zm1 0h1v1h-1zm1 0h1v1h-1zm1 0h1v1h-1zm1 0h1v1h-1zm1 0h1v1h-1zm1 0h1v1h-1zm1 0h1v1h-1zm26 0h1v8h-1zm1 0h1v1h-1zm1 0h3v1h-3zm3 0h1v1h-1zm1 0h1v1h-1zm16 0h1v8h-1zm1 0h1v8h-1zm21 0h2v1h-2zm2 0h1v8h-1zm-79 1h1v1h-1zm1 0h1v1h-1zm1 0h1v1h-1zm3 0h1v1h-1zm1 0h1v1h-1zm1 0h1v1h-1zm4 0h1v1h-1zm1 0h1v1h-1zm7 0h1v1h-1zm1 0h1v2h-1zm3 0h1v1h-1zm1 0h1v1h-1zm10 0h1v1h-1zm16 0h1v1h-1zm1 0h1v1h-1zm17 0h1v1h-1zm1 0h1v1h-1zm6 0h1v1h-1zm2 0h2v1h-2zm-78 1h1v1h-1zm1 0h1v4h-1zm1 0h1v1h-1zm5 0h1v1h-1zm1 0h1v1h-1zm2 0h1v1h-1zm1 0h1v1h-1zm1 0h2v1h-2zm2 0h1v1h-1zm1 0h1v1h-1zm2 0h1v6h-1zm1 0h2v1h-2zm2 0h1v1h-1zm3 0h1v1h-1zm1 0h1v1h-1zm1 0h1v1h-1zm1 0h1v1h-1zm1 0h1v1h-1zm8 0h1v1h-1zm6 0h1v1h-1zm1 0h1v1h-1zm4 0h1v2h-1zm1 0h1v1h-1zm2 0h1v1h-1zm1 0h1v1h-1zm1 0h1v1h-1zm1 0h1v1h-1zm1 0h1v1h-1zm1 0h1v1h-1zm5 0h1v1h-1zm1 0h1v1h-1zm3 0h1v1h-1zm1 0h1v1h-1zm1 0h1v1h-1zm2 0h1v1h-1zm1 0h2v1h-2zm2 0h1v1h-1zm1 0h1v1h-1zm3 0h1v1h-1zm1 0h1v1h-1zm1 0h1v1h-1zm1 0h1v1h-1zm1 0h1v1h-1zm1 0h1v6h-1zm-79 1h1v1h-1zm10 0h1v1h-1zm1 0h1v1h-1zm1 0h1v1h-1zm1 0h1v1h-1zm1 0h1v1h-1zm1 0h1v4h-1zm3 0h1v5h-1zm1 0h1v1h-1zm1 0h1v1h-1zm1 0h1v1h-1zm1 0h1v1h-1zm1 0h1v2h-1zm1 0h1v1h-1zm1 0h1v1h-1zm1 0h1v1h-1zm1 0h1v2h-1zm1 0h1v1h-1zm7 0h1v1h-1zm1 0h3v1h-3zm3 0h1v1h-1zm1 0h1v1h-1zm1 0h1v1h-1zm1 0h1v1h-1zm1 0h1v1h-1zm2 0h1v1h-1zm2 0h1v1h-1zm1 0h1v1h-1zm1 0h1v1h-1zm1 0h1v1h-1zm1 0h1v1h-1zm1 0h1v1h-1zm1 0h1v1h-1zm1 0h1v1h-1zm5 0h1v1h-1zm1 0h1v1h-1zm1 0h1v1h-1zm2 0h1v1h-1zm1 0h1v1h-1zm1 0h1v1h-1zm1 0h1v1h-1zm1 0h1v2h-1zm1 0h2v1h-2zm2 0h1v1h-1zm1 0h1v2h-1zm1 0h1v1h-1zm1 0h1v1h-1zm1 0h1v1h-1zm1 0h1v1h-1zm1 0h1v1h-1zm1 0h1v1h-1zm1 0h1v1h-1zm-78 1h1v1h-1zm10 0h2v1h-2zm2 0h1v1h-1zm1 0h1v1h-1zm1 0h1v1h-1zm5 0h1v1h-1zm3 0h1v1h-1zm2 0h2v1h-2zm2 0h1v1h-1zm2 0h1v1h-1zm7 0h1v1h-1zm1 0h3v1h-3zm3 0h1v1h-1zm1 0h1v1h-1zm2 0h1v1h-1zm1 0h1v1h-1zm2 0h1v1h-1zm1 0h1v1h-1zm2 0h1v2h-1zm1 0h1v3h-1zm1 0h1v2h-1zm3 0h1v2h-1zm1 0h1v2h-1zm1 0h1v2h-1zm4 0h1v1h-1zm1 0h1v1h-1zm1 0h1v1h-1zm2 0h1v1h-1zm1 0h2v1h-2zm2 0h1v1h-1zm2 0h2v1h-2zm2 0h1v1h-1zm2 0h1v1h-1zm1 0h1v2h-1zm1 0h1v2h-1zm1 0h1v2h-1zm3 0h1v2h-1zm-78 1h1v1h-1zm2 0h1v1h-1zm5 0h1v1h-1zm1 0h1v1h-1zm2 0h1v1h-1zm1 0h1v1h-1zm1 0h1v1h-1zm1 0h1v1h-1zm1 0h1v1h-1zm5 0h1v1h-1zm3 0h5v1h-5zm5 0h1v2h-1zm1 0h1v1h-1zm7 0h1v1h-1zm7 0h1v1h-1zm1 0h1v1h-1zm2 0h1v1h-1zm1 0h1v1h-1zm14 0h1v1h-1zm1 0h1v1h-1zm1 0h1v1h-1zm1 0h1v1h-1zm1 0h1v1h-1zm2 0h1v1h-1zm1 0h4v1h-4zm4 0h1v2h-1zm1 0h1v1h-1zm-72 1h1v1h-1zm1 0h1v1h-1zm1 0h1v1h-1zm5 0h1v1h-1zm1 0h1v1h-1zm2 0h1v1h-1zm1 0h1v1h-1zm1 0h1v1h-1zm2 0h1v2h-1zm8 0h1v1h-1zm1 0h1v1h-1zm3 0h1v1h-1zm2 0h1v1h-1zm7 0h1v1h-1zm7 0h1v1h-1zm1 0h2v1h-2zm2 0h1v1h-1zm1 0h1v1h-1zm2 0h1v1h-1zm2 0h1v1h-1zm3 0h1v1h-1zm1 0h1v1h-1zm1 0h1v1h-1zm5 0h1v1h-1zm1 0h1v1h-1zm1 0h1v1h-1zm1 0h1v1h-1zm3 0h1v1h-1zm1 0h1v1h-1zm5 0h1v1h-1zm1 0h1v1h-1zm1 0h1v1h-1zm1 0h1v1h-1zm3 0h1v1h-1zm-77 1h1v1h-1zm1 0h1v1h-1zm1 0h1v1h-1zm1 0h1v1h-1zm1 0h1v1h-1zm1 0h1v1h-1zm1 0h1v1h-1zm1 0h1v1h-1zm2 0h1v1h-1zm1 0h1v1h-1zm1 0h1v1h-1zm1 0h1v1h-1zm2 0h1v1h-1zm1 0h1v1h-1zm6 0h1v1h-1zm1 0h1v1h-1zm1 0h1v1h-1zm1 0h1v1h-1zm1 0h1v1h-1zm1 0h1v1h-1zm1 0h1v1h-1zm7 0h1v1h-1zm1 0h3v1h-3zm3 0h1v1h-1zm1 0h1v1h-1zm3 0h1v1h-1zm1 0h1v1h-1zm1 0h1v1h-1zm3 0h1v1h-1zm1 0h1v1h-1zm1 0h1v1h-1zm1 0h1v1h-1zm1 0h1v1h-1zm1 0h1v1h-1zm1 0h1v1h-1zm7 0h1v1h-1zm1 0h1v1h-1zm1 0h1v1h-1zm3 0h1v1h-1zm1 0h1v1h-1zm1 0h1v1h-1zm1 0h1v1h-1zm1 0h1v1h-1zm1 0h1v1h-1zm1 0h1v1h-1zm1 0h1v1h-1zm1 0h1v1h-1zm1 0h1v1h-1zm1 0h1v1h-1zm1 0h1v1h-1zm1 0h1v1h-1zm4 0h1v1h-1zm1 0h1v1h-1zm-81 1h1v1h-1zm1 0h2v1h-2zm2 0h1v1h-1zm1 0h1v1h-1zm1 0h1v1h-1zm3 0h1v1h-1zm1 0h1v1h-1zm1 0h1v1h-1zm1 0h1v1h-1zm1 0h1v1h-1zm1 0h1v1h-1zm1 0h1v1h-1zm1 0h1v1h-1zm1 0h1v1h-1zm5 0h1v1h-1zm1 0h2v1h-2zm2 0h1v1h-1zm1 0h1v1h-1zm7 0h5v1h-5zm5 0h1v1h-1zm1 0h1v1h-1zm3 0h2v1h-2zm2 0h1v1h-1zm4 0h1v1h-1zm1 0h1v1h-1zm1 0h1v1h-1zm1 0h1v1h-1zm1 0h1v1h-1zm1 0h1v1h-1zm2 0h1v1h-1zm1 0h1v1h-1zm4 0h1v1h-1zm1 0h1v1h-1zm1 0h1v1h-1zm4 0h1v1h-1zm1 0h2v1h-2zm2 0h1v1h-1zm1 0h1v1h-1zm3 0h1v1h-1zm1 0h1v1h-1zm1 0h1v1h-1zm1 0h1v1h-1zm1 0h1v1h-1zm1 0h1v1h-1zm1 0h1v1h-1zm2 0h1v1h-1zm1 0h1v1h-1zm-79 1h1v1h-1zm1 0h1v1h-1zm7 0h1v1h-1zm3 0h1v1h-1zm10 0h1v1h-1zm26 0h1v1h-1zm18 0h1v1h-1zm7 0h1v1h-1z"/></g><path d="M129 18h1v1h-1zm-9 11h1v1h-1zm2 3h1v1h-1z" fill="#48f6ff"/><path fill="#31b8be" d="M136 22h1v1h-1z"/><path fill="#52f6ff" d="M123 33h1v1h-1z"/><path fill="#49f6fe" d="M126 10h1v1h-1z"/><path d="M139 16h1v1h-1zm-17 6h1v1h-1zm-2 5h1v1h-1z" fill="#4af6ff"/><path fill="#39bac0" d="M132 19h1v1h-1z"/><path fill="#34f2ff" d="M127 21h1v1h-1z"/><path d="M124 22h1v1h-1zm2 2h1v1h-1z" fill="#49f7ff"/><path fill="#50999c" d="M132 26h1v1h-1z"/><path fill="#4cedf6" d="M128 29h1v1h-1z"/><path fill="#53dfe5" d="M130 33h1v1h-1z"/><path fill="#35ffff" d="M129 20h1v1h-1z"/><path fill="#32e7f4" d="M128 23h1v1h-1z"/><path fill="#717272" d="M137 24h1v1h-1z"/><path fill="#3ef5ff" d="M126 18h1v1h-1z"/><path fill="#29a2aa" d="M131 20h1v1h-1z"/><path fill="#786b69" d="M134 25h1v1h-1z"/><path fill="#3dc8ce" d="M135 18h1v1h-1z"/><g fill="#717171"><path d="M141 20h1v1h-1zm-1 1h1v1h-1zm1 0h1v1h-1zm-1 1h1v6h-1zm1 0h1v1h-1zm2 0h1v1h-1z"/><path d="M139 23h2v5h-2zm2 0h1v4h-1zm1 0h1v1h-1z"/><path d="M138 24h4v3h-4zm4 0h1v2h-1z"/><path d="M137 25h5v2h-5zm7 0h1v1h-1z"/><path d="M136 26h6v1h-6zm6 0h1v1h-1zm-6 1h5v1h-5zm5 0h1v1h-1zm1 0h1v1h-1zM26 28h1v1h-1zm1 0h1v1h-1zm1 0h1v1h-1zm1 0h1v1h-1zm34 0h1v1h-1zm1 0h1v1h-1zm1 0h1v1h-1zm1 0h1v1h-1zm70 0h4v1h-4zm4 0h1v1h-1zm1 0h1v1h-1zM26 29h1v1h-1zm1 0h1v2h-1zm1 0h1v2h-1zm1 0h1v1h-1zm34 0h1v1h-1zm1 0h1v25h-1zm1 0h1v25h-1zm1 0h1v1h-1zm69 0h4v1h-4zm4 0h1v1h-1zm1 0h1v1h-1zm1 0h1v1h-1zM26 30h1v1h-1zm3 0h1v1h-1zm5 0h1v1h-1zm1 0h1v1h-1zm1 0h1v1h-1zm1 0h1v1h-1zm26 0h1v1h-1zm3 0h1v1h-1zm69 0h3v1h-3zm3 0h1v1h-1zm1 0h1v1h-1zm1 0h1v1h-1zM26 31h1v1h-1zm1 0h1v1h-1zm1 0h1v1h-1zm1 0h1v1h-1zm5 0h1v1h-1zm1 0h1v22h-1zm1 0h1v23h-1zm1 0h1v1h-1zm26 0h1v22h-1zm3 0h1v22h-1zm68 0h1v1h-1zm1 0h1v1h-1zm1 0h1v1h-1zm1 0h1v1h-1zm1 0h1v1h-1zm2 0h1v1h-1zM26 32h1v1h-1zm1 0h1v1h-1zm1 0h1v1h-1zm1 0h1v1h-1zm5 0h1v1h-1zm3 0h1v1h-1zm97 0h1v1h-1zm1 0h1v1h-1zm1 0h1v1h-1zm1 0h1v1h-1zm1 0h1v1h-1zM34 33h1v1h-1zm3 0h1v1h-1zm97 0h1v1h-1zm1 0h1v1h-1zm1 0h1v1h-1zm2 0h1v1h-1zM34 34h1v1h-1zm3 0h1v1h-1zM7 35h1v1H7zm1 0h1v1H8zm1 0h1v1H9zm1 0h1v1h-1zm1 0h1v1h-1zm11 0h1v1h-1zm1 0h1v1h-1zm1 0h1v1h-1zm2 0h1v1h-1zm1 0h1v1h-1zm1 0h1v1h-1zm1 0h1v1h-1zm1 0h1v1h-1zm1 0h1v1h-1zm1 0h1v1h-1zm1 0h1v1h-1zm1 0h1v1h-1zm3 0h1v1h-1zm1 0h1v1h-1zm1 0h1v1h-1zm1 0h1v1h-1zm1 0h1v1h-1zm6 0h1v1h-1zm1 0h1v1h-1zm1 0h1v1h-1zm1 0h1v1h-1zm1 0h1v1h-1zm1 0h1v1h-1zm1 0h1v1h-1zm1 0h1v1h-1zm1 0h1v1h-1zM7 36h1v1H7zm1 0h2v1H8zm2 0h1v6h-1zm1 0h1v1h-1zm10 0h1v1h-1zm1 0h1v4h-1zm1 0h1v1h-1zm1 0h1v1h-1zm2 0h1v1h-1zm1 0h1v18h-1zm1 0h1v18h-1zm1 0h1v1h-1zm1 0h1v1h-1z"/><path d="M31 36h9v1h-9zm9 0h1v1h-1zm1 0h1v1h-1zm4 0h1v1h-1zm1 0h1v1h-1zm1 0h8v1h-8zm8 0h1v1h-1zm1 0h1v1h-1zm1 0h1v1h-1zM8 37h1v1H8zm1 0h1v2H9zm2 0h1v1h-1zm10 0h1v1h-1zm2 0h1v1h-1zm1 0h1v1h-1zm2 0h1v1h-1zm3 0h1v1h-1zm1 0h1v1h-1zm1 0h9v1h-9zm9 0h1v1h-1zm1 0h1v1h-1zm3 0h1v1h-1zm1 0h3v1h-3zm3 0h1v1h-1zm1 0h1v1h-1zm1 0h1v1h-1zm1 0h1v1h-1zm1 0h1v1h-1zm1 0h1v1h-1zm1 0h2v1h-2zm2 0h1v2h-1zm1 0h1v1h-1zm1 0h1v1h-1zM8 38h1v1H8zm3 0h1v1h-1zm1 0h1v1h-1zm9 0h1v1h-1zm2 0h1v1h-1zm1 0h1v1h-1zm2 0h1v15h-1zm3 0h1v1h-1zm1 0h1v1h-1zm1 0h1v1h-1zm1 0h1v1h-1zm1 0h1v1h-1zm1 0h1v1h-1zm3 0h1v1h-1zm1 0h1v1h-1zm1 0h1v1h-1zm1 0h1v1h-1zm1 0h1v1h-1zm2 0h1v1h-1zm1 0h2v1h-2zm2 0h1v1h-1zm1 0h1v1h-1zm1 0h1v1h-1zm5 0h1v1h-1zm1 0h1v1h-1zm1 0h1v1h-1zm2 0h1v16h-1zm1 0h1v1h-1zM8 39h1v1H8zm1 0h2v1H9zm2 0h1v5h-1zm1 0h1v1h-1zm8 0h1v1h-1zm1 0h1v4h-1zm2 0h1v1h-1zm6 0h1v1h-1zm5 0h1v1h-1zm3 0h1v1h-1zm5 0h1v1h-1zm1 0h1v1h-1zm1 0h1v1h-1zm1 0h1v1h-1zm1 0h1v1h-1zm9 0h1v1h-1zm1 0h1v1h-1zm2 0h1v1h-1zm1 0h1v1h-1zM9 40h1v1H9zm3 0h1v1h-1zm8 0h1v1h-1zm2 0h1v1h-1zm1 0h1v1h-1zm6 0h1v13h-1zm5 0h1v8h-1zm3 0h1v8h-1zm5 0h1v1h-1zm1 0h1v1h-1zm1 0h1v1h-1zm1 0h1v1h-1zm1 0h1v1h-1zm10 0h1v1h-1zm2 0h1v14h-1zm1 0h1v1h-1zM9 41h1v1H9zm3 0h1v1h-1zm1 0h1v1h-1zm6 0h1v1h-1zm1 0h1v1h-1zm2 0h1v1h-1zm22 0h1v1h-1zm1 0h1v1h-1zm11 0h1v1h-1zm3 0h1v1h-1zM9 42h1v1H9z"/><path d="M10 42h2v1h-2zm2 0h1v5h-1zm1 0h1v1h-1zm6 0h1v1h-1zm1 0h1v4h-1zm2 0h1v1h-1zm34 0h1v1h-1zm3 0h1v1h-1zm-49 1h1v1h-1zm3 0h1v1h-1zm6 0h1v1h-1zm2 0h1v1h-1zm1 0h1v1h-1zm25 0h1v1h-1zm1 0h1v1h-1zm1 0h1v1h-1zm1 0h1v1h-1zm1 0h1v1h-1zm1 0h1v1h-1zm1 0h1v1h-1zm1 0h1v1h-1zm1 0h1v1h-1zm1 0h1v1h-1zm3 0h1v1h-1zm-49 1h1v1h-1zm1 0h1v1h-1zm2 0h1v1h-1zm1 0h1v1h-1zm5 0h1v1h-1zm2 0h1v1h-1zm1 0h1v1h-1zm23 0h1v1h-1zm1 0h1v1h-1zm1 0h1v1h-1zm1 0h10v1H48zm11 0h1v6h-1zm-49 1h1v1h-1zm1 0h1v1h-1zm2 0h1v5h-1zm1 0h1v1h-1zm4 0h1v1h-1zm1 0h1v4h-1zm2 0h1v1h-1zm23 0h1v1h-1zm1 0h4v1h-4zm4 0h1v1h-1zm1 0h1v1h-1zm1 0h1v1h-1zm1 0h1v1h-1zm1 0h1v1h-1zm1 0h1v1h-1zm1 0h1v1h-1zm1 0h1v1h-1zm-45 1h1v1h-1zm3 0h1v1h-1zm4 0h1v1h-1zm2 0h1v1h-1zm1 0h1v1h-1zm22 0h1v1h-1zm1 0h2v2h-2zm2 0h1v1h-1zm1 0h1v1h-1zm1 0h1v1h-1zm1 0h1v1h-1zm1 0h1v1h-1zm6 0h1v1h-1zm-45 1h1v1h-1z"/><path d="M12 47h2v1h-2zm2 0h1v6h-1zm1 0h1v1h-1zm3 0h1v1h-1zm2 0h1v1h-1zm22 0h1v1h-1zm1 0h2v5h-2zm3 0h1v1h-1zm1 0h1v1h-1zm9 0h1v1h-1zm-44 1h1v1h-1zm3 0h1v1h-1zm2 0h1v1h-1zm1 0h1v4h-1zm2 0h1v1h-1zm14 0h1v1h-1zm3 0h1v1h-1zm5 0h1v1h-1zm3 0h1v1h-1zm1 0h1v1h-1zm10 0h1v1h-1zm-44 1h1v1h-1zm3 0h1v1h-1zm2 0h1v1h-1zm2 0h1v1h-1zm1 0h1v1h-1zm14 0h1v1h-1zm3 0h1v1h-1zm5 0h1v1h-1zm3 0h1v1h-1zm10 0h1v1h-1zm1 0h1v1h-1zm-44 1h1v1h-1zm1 0h1v1h-1zm2 0h1v1h-1zm1 0h1v1h-1zm1 0h1v1h-1zm2 0h1v1h-1zm15 0h1v1h-1zm3 0h1v1h-1zm5 0h1v1h-1zm3 0h1v1h-1zm10 0h1v1h-1zm1 0h2v1h-2zm3 0h1v1h-1zm-46 1h1v1h-1zm2 0h1v3h-1zm1 0h1v1h-1zm1 0h1v1h-1zm2 0h1v1h-1zm15 0h1v1h-1zm3 0h1v1h-1zm5 0h1v1h-1zm3 0h1v1h-1zm9 0h1v1h-1zm1 0h3v1h-3zm4 0h1v1h-1zm-46 1h1v1h-1zm3 0h2v2h-2zm2 0h1v1h-1zm1 0h1v1h-1zm15 0h1v1h-1zm3 0h1v1h-1zm5 0h1v1h-1zm1 0h2v1h-2zm2 0h1v2h-1zm1 0h1v1h-1zm7 0h1v1h-1zm1 0h1v1h-1zm1 0h3v1h-3zm4 0h1v1h-1zm-46 1h1v1h-1z"/><path d="M14 53h3v1h-3zm4 0h1v1h-1zm8 0h1v1h-1zm3 0h1v1h-1zm5 0h1v1h-1zm1 0h2v1h-2zm2 0h1v1h-1zm1 0h1v1h-1zm1 0h1v1h-1zm1 0h1v1h-1zm1 0h1v1h-1zm1 0h1v1h-1zm1 0h1v1h-1zm1 0h2v1h-2zm2 0h1v1h-1zm1 0h1v1h-1zm1 0h1v1h-1zm1 0h1v1h-1zm1 0h1v1h-1zm1 0h1v1h-1zm1 0h1v1h-1zm1 0h1v1h-1zm1 0h1v1h-1zm1 0h1v1h-1zm1 0h1v1h-1zm3 0h1v1h-1zm4 0h1v1h-1zm3 0h1v1h-1zm-52 1h1v1h-1zm1 0h2v1h-2zm2 0h1v1h-1zm1 0h1v1h-1zm8 0h1v1h-1zm1 0h1v1h-1zm1 0h1v1h-1zm1 0h1v1h-1zm6 0h1v1h-1zm1 0h5v1h-5zm5 0h1v1h-1zm1 0h1v1h-1zm2 0h1v1h-1zm1 0h8v1h-8zm8 0h1v1h-1zm1 0h1v1h-1zm2 0h1v1h-1zm1 0h1v1h-1zm1 0h1v1h-1zm1 0h1v1h-1zm4 0h1v1h-1zm1 0h1v1h-1zm1 0h1v1h-1zm1 0h1v1h-1zm-52 1h1v1h-1zm1 0h1v1h-1zm1 0h1v1h-1zm1 0h1v1h-1zm1 0h1v1h-1zm8 0h1v1h-1zm1 0h1v1h-1zm1 0h1v1h-1zm1 0h1v1h-1zm7 0h1v1h-1zm1 0h1v1h-1zm1 0h3v1h-3zm3 0h1v1h-1zm1 0h1v1h-1zm3 0h1v1h-1zm1 0h1v1h-1zm1 0h4v1h-4zm4 0h1v1h-1zm1 0h1v1h-1zm1 0h1v1h-1zm3 0h1v1h-1zm1 0h1v1h-1zm1 0h1v1h-1zm1 0h1v1h-1zm4 0h1v1h-1zm1 0h1v1h-1zm1 0h1v1h-1zm1 0h1v1h-1zm-29 1h1v1h-1zm1 0h1v1h-1zm1 0h1v1h-1zm1 0h1v1h-1zm1 0h1v1h-1zm1 0h1v1h-1zm5 0h1v1h-1zm1 0h1v1h-1zm1 0h1v1h-1zm1 0h1v1h-1zm1 0h1v1h-1z"/></g><path fill="#4efcff" d="M121 22h1v1h-1z"/><path fill="#449ca0" d="M133 25h1v1h-1z"/><path fill="#33a7ad" d="M135 19h1v1h-1z"/><path fill="#23a3ab" d="M130 22h1v1h-1z"/><path fill="#23aeb7" d="M132 23h1v1h-1z"/><path d="M135 28h1v1h-1zm-2 4h1v1h-1z" fill="#727070"/><path fill="#2ff2ff" d="M126 19h1v1h-1z"/><path d="M125 22h1v1h-1zm1 1h1v1h-1z" fill="#31f2ff"/><path fill="#2ebfc6" d="M134 23h1v1h-1z"/><path fill="#40c2c9" d="M128 25h1v1h-1z"/><path fill="#00edff" d="M122 35h1v1h-1z"/><path fill="#4cf7fe" d="M139 15h1v1h-1z"/><path fill="#6b7879" d="M135 24h1v1h-1z"/><path fill="#7b7b7b" d="M145 26h1v1h-1z"/><path fill="#5e8688" d="M133 29h1v1h-1z"/><path fill="#499ea2" d="M131 30h1v1h-1z"/><path fill="#638182" d="M132 31h1v1h-1z"/><path fill="#2bf1ff" d="M124 20h1v1h-1z"/><path fill="#27d5e0" d="M128 24h1v1h-1z"/><path fill="#646464" d="M145 25h1v1h-1z"/><path fill="#4d898b" d="M129 28h1v1h-1z"/><path fill="#35f5ff" d="M127 22h1v1h-1z"/><path fill="#2dabb3" d="M130 25h1v1h-1z"/><path d="M127 19h1v1h-1zm-2 2h1v1h-1z" fill="#30f2ff"/><path d="M123 21h1v1h-1zm-3 7h1v1h-1zm8 5h1v1h-1z" fill="#4cf6ff"/><path fill="#7a6766" d="M138 22h1v1h-1z"/><path fill="#4b8a8c" d="M130 31h1v1h-1z"/><path fill="#7e6261" d="M139 20h1v1h-1z"/><path fill="#48faff" d="M122 21h1v1h-1z"/><path fill="#38b2b8" d="M133 22h1v1h-1z"/><path fill="#2cabb3" d="M131 25h1v1h-1z"/><path fill="#4ef7fe" d="M127 10h1v1h-1z"/><path fill="#42a5aa" d="M137 21h1v1h-1z"/><path d="M143 28h1v1h-1zm-1 1h1v1h-1z" fill="#6e6e6e"/><path fill="#52f8ff" d="M139 14h1v1h-1z"/><path fill="#4affff" d="M129 32h1v1h-1z"/><path fill="#736d6c" d="M132 33h1v1h-1z"/><path d="M127 18h1v1h-1zm-3 1h1v1h-1z" fill="#3cf5ff"/><path fill="#23b0b9" d="M131 22h1v1h-1z"/><path fill="#2eacb4" d="M132 25h1v1h-1z"/><path fill="#4cf8ff" d="M121 27h1v1h-1z"/><path fill="#4bfcff" d="M120 31h1v1h-1z"/><g fill="#4bf7ff"><path d="M129 10h1v1h-1zm1 0h1v1h-1zm-4 1h8v5h-8zm8 0h1v5h-1z"/><path d="M125 12h10v4h-10zm10 0h1v3h-1zm1 1h1v2h-1zm1 0h1v2h-1z"/><path d="M124 14h13v1h-13zm0 1h13v1h-13zm13 0h1v1h-1zm-14 1h11v1h-11zm11 0h1v1h-1zm-10 1h1v1h-1zm6 0h1v1h-1zm-7 1h1v1h-1zm0 5h1v1h-1zm-1 1h1v1h-1zm1 0h1v6h-1zm1 0h1v1h-1zm-3 1h1v1h-1zm1 0h1v1h-1zm2 0h1v1h-1zm1 0h1v1h-1z"/><path d="M122 26h3v2h-3zm3 0h1v5h-1zm1 1h1v4h-1z"/><path d="M122 28h4v2h-4zm0 2h4v1h-4zm1 1h1v1h-1zm1 0h2v1h-2zm2 0h1v1h-1zm-2 1h1v1h-1zm1 0h2v1h-2zm2 0h1v1h-1zm-2 1h1v1h-1zm1 0h1v1h-1zm1 0h1v1h-1zm1 1h1v1h-1z"/></g><path d="M139 21h1v1h-1zm-4 6h1v1h-1z" fill="#736e6e"/><path d="M127 26h1v1h-1zm0 1h1v1h-1zm0 1h1v1h-1zm0 1h1v1h-1zm1 1h1v1h-1zm0 1h1v1h-1z" fill="#4bffff"/><path fill="#617575" d="M131 32h1v1h-1z"/><path fill="#0ef" d="M124 36h1v1h-1z"/><path fill="#3ff5ff" d="M128 18h1v1h-1z"/><path fill="#41d5db" d="M134 18h1v1h-1z"/><path fill="#50989a" d="M130 26h1v1h-1z"/><path d="M131 17h1v1h-1zm-9 14h1v1h-1zm5 0h1v1h-1zm0 3h1v1h-1z" fill="#4bf6ff"/><path fill="#37f3ff" d="M124 21h1v1h-1z"/><path fill="#7a6867" d="M138 21h1v1h-1z"/><path fill="#4dabaf" d="M129 30h1v1h-1z"/><path d="M123 14h1v1h-1zm0 1h1v1h-1zm0 4h1v1h-1zm3 6h1v1h-1z" fill="#4ef8ff"/><path fill="#4cfaff" d="M132 17h1v1h-1z"/><path fill="#797979" d="M143 29h1v1h-1z"/><path d="M128 9h1v1h-1zm3 0h1v1h-1zm7 7h1v1h-1zm-17 13h1v1h-1zm0 1h1v1h-1zm0 1h1v1h-1z" fill="#4df7ff"/><path fill="#42ffff" d="M139 17h1v1h-1z"/><path fill="#7d6563" d="M136 24h1v1h-1z"/><path fill="#4e999b" d="M130 27h1v1h-1z"/></svg>