<svg xmlns="http://www.w3.org/2000/svg" role="img" viewBox="-5.91 60.84 411.58 123.08"><title>Volterra Inc logo</title><style>svg {enable-background:new 0 0 400 245}</style><style>.st317{fill:#34daa6}</style><path d="M55.61 68.91c-29.57 0-53.59 24.02-53.59 53.59s24.02 53.59 53.59 53.59 53.59-24.02 53.59-53.59-24.03-53.59-53.59-53.59zm3.95 76.56h-8.18L33.7 101.65h3.43c4.22 0 7.92 2.64 9.77 6.6l8.45 21.38 8.45-21.38c1.58-3.96 5.28-6.6 9.77-6.6H77l-17.44 43.82z" class="st317"/><path d="M170.96 85.28h9.77l-15.57 46.2H154.6l-15.84-46.2h9.77l8.71 27.45c.53 1.58 1.06 3.43 1.58 5.54.53 2.11.79 3.7 1.06 4.49.26-1.85 1.06-5.28 2.38-10.3l8.7-27.18zm45.67 28.51c0 5.81-1.58 10.3-4.49 13.46-2.9 3.17-7.13 4.75-12.67 4.75-3.43 0-6.34-.79-8.98-2.11-2.64-1.58-4.49-3.7-6.07-6.34-1.32-2.9-2.11-6.07-2.11-9.77 0-5.81 1.58-10.3 4.49-13.46s7.13-4.75 12.67-4.75c3.43 0 6.34.79 8.98 2.11 2.64 1.58 4.49 3.7 6.07 6.34 1.32 2.91 2.11 6.07 2.11 9.77zm-24.29 0c0 3.43.53 6.07 1.85 7.92 1.06 1.85 2.9 2.64 5.54 2.64s4.49-.79 5.54-2.64 1.58-4.49 1.58-7.92c0-3.43-.53-6.07-1.58-7.92-1.06-1.85-2.9-2.64-5.54-2.64s-4.49.79-5.54 2.64c-1.32 1.85-1.85 4.49-1.85 7.92zm41.98 17.69h-9.5v-49.1h9.5v49.1zm24.81-7.13c1.58 0 3.7-.26 6.07-1.06v7.13c-2.38 1.06-5.28 1.58-8.71 1.58-3.96 0-6.6-1.06-8.45-2.9-1.85-1.85-2.64-4.75-2.64-8.71V103.5h-4.49v-3.96l5.28-3.17 2.9-7.39h6.07v7.39h9.77v7.13h-9.77v16.89c0 1.32.26 2.38 1.06 2.9.8.79 1.59 1.06 2.91 1.06zm29.3 7.65c-5.81 0-10.03-1.58-13.2-4.75s-4.75-7.66-4.75-13.2c0-5.81 1.58-10.56 4.49-13.73 2.9-3.17 7.13-4.75 12.14-4.75 5.02 0 8.98 1.32 11.61 4.22 2.64 2.9 4.22 6.86 4.22 11.88v4.75h-22.7c0 2.64.79 4.75 2.38 6.34 1.58 1.58 3.7 2.38 6.34 2.38 2.11 0 4.22-.26 6.07-.79 1.85-.53 3.96-1.06 5.81-2.11v7.39c-1.58.79-3.43 1.58-5.28 1.85-1.85.26-4.49.52-7.13.52zm-1.32-29.56c-2.11 0-3.7.53-4.75 1.85-1.06 1.32-1.85 3.17-2.11 5.54h13.46c0-2.38-.79-4.22-1.85-5.54-1.05-1.32-2.9-1.85-4.75-1.85zm43.29-6.87c1.32 0 2.38 0 3.17.26l-.79 8.98c-.79-.26-1.85-.26-2.9-.26-3.17 0-5.54.79-7.13 2.38-1.85 1.58-2.64 3.7-2.64 6.6v17.95h-9.5V96.1H318l1.32 5.81h.53c1.06-1.85 2.64-3.7 4.49-4.75 1.84-1.06 3.69-1.59 6.06-1.59zm29.31 0c1.32 0 2.38 0 3.17.26l-.79 8.98c-.79-.26-1.85-.26-2.9-.26-3.17 0-5.54.79-7.13 2.38-1.85 1.58-2.64 3.7-2.64 6.6v17.95h-9.5V96.1h7.39l1.32 5.81h.53c1.06-1.85 2.64-3.7 4.49-4.75 1.83-1.06 3.94-1.59 6.06-1.59zm30.88 35.91l-1.85-4.75h-.26c-1.58 2.11-3.17 3.43-5.02 4.22-1.85.79-3.96 1.06-6.6 1.06-3.43 0-6.07-1.06-7.92-2.9-1.85-1.85-2.9-4.75-2.9-8.18 0-3.7 1.32-6.6 3.96-8.18 2.64-1.85 6.6-2.64 11.88-2.9l6.07-.26v-1.58c0-3.7-1.85-5.28-5.54-5.28-2.9 0-6.07.79-10.03 2.64l-3.17-6.6c3.96-2.11 8.45-3.17 13.46-3.17 4.75 0 8.45 1.06 10.82 3.17 2.64 2.11 3.7 5.28 3.7 9.5v23.49h-6.6v-.28zm-2.9-16.37h-3.7c-2.9 0-5.02.53-6.34 1.58s-2.11 2.38-2.11 4.22c0 2.64 1.58 3.96 4.75 3.96 2.11 0 3.96-.53 5.28-1.85 1.32-1.32 2.11-2.9 2.11-5.02l.01-2.89z" class="st317"/><path fill="#878e9c" d="M157.24 165.26h-9.77v-16.89h9.77v2.9h-6.07v3.7h5.81v2.9h-5.81v4.49h6.07v2.9zm24.02-8.71c0 2.9-.79 5.02-2.38 6.34-1.58 1.58-3.96 2.11-6.86 2.11h-4.75v-16.89h5.28c2.64 0 5.02.79 6.34 2.11 1.58 1.58 2.37 3.69 2.37 6.33zm-3.7 0c0-3.7-1.58-5.54-4.75-5.54h-1.85v11.09h1.58c3.17.26 5.02-1.59 5.02-5.55zm18.48-.79h6.6v8.71c-1.06.26-2.11.53-3.17.79s-1.85.26-2.9.26c-2.64 0-4.49-.79-5.81-2.38-1.32-1.58-2.11-3.7-2.11-6.6 0-2.64.79-4.75 2.38-6.34s3.7-2.38 6.6-2.38c1.85 0 3.43.26 5.02 1.06l-1.32 2.9c-1.32-.53-2.64-1.06-3.96-1.06-1.58 0-2.9.53-3.7 1.58-.79 1.06-1.32 2.38-1.32 4.22s.26 3.17 1.06 4.22c.79 1.06 1.85 1.58 3.17 1.58.79 0 1.58 0 2.38-.26v-3.43h-3.17v-2.9h.25zm26.93 9.5h-9.77v-16.89h9.77v2.9h-6.07v3.7h5.81v2.9h-5.81v4.49h6.07v2.9zm34.05-4.75c0 1.58-.53 2.64-1.58 3.7-1.06.79-2.64 1.32-4.49 1.32s-3.43-.26-4.75-1.06v-3.43c1.06.53 2.11.79 2.9 1.06.79.26 1.58.26 2.11.26.79 0 1.32-.26 1.85-.53s.53-.79.53-1.32c0-.26 0-.53-.26-.79l-.79-.79c-.26-.26-1.06-.53-2.11-1.06s-1.85-1.06-2.38-1.32c-.53-.26-1.06-1.06-1.32-1.58-.26-.53-.53-1.32-.53-2.11 0-1.58.53-2.64 1.58-3.43 1.06-.79 2.38-1.32 4.22-1.32.79 0 1.85 0 2.64.26s1.58.53 2.64.79l-1.06 2.9c-.79-.26-1.58-.53-2.38-.79-.53-.26-1.06-.26-1.85-.26s-1.32.26-1.58.53c-.26.26-.53.79-.53 1.32 0 .26 0 .53.26.79s.26.53.79.79c.26.26 1.06.53 2.38 1.32 1.58.79 2.64 1.58 3.17 2.38.27.26.54 1.32.54 2.37zm19.8 4.75h-9.77v-16.89h9.77v2.9h-6.07v3.7h5.81v2.9h-5.81v4.49h6.07v2.9zm14.52-6.6v6.6h-3.7v-16.89h5.02c2.38 0 3.96.53 5.02 1.32 1.06.79 1.58 2.11 1.58 3.7 0 1.06-.26 1.85-.79 2.64s-1.32 1.32-2.38 1.85c2.64 3.7 4.22 6.34 5.02 7.39h-3.96l-3.96-6.6h-1.85zm0-2.9h1.06c1.06 0 1.85-.26 2.64-.53.53-.26.79-1.06.79-1.85s-.26-1.32-.79-1.85c-.53-.26-1.32-.53-2.64-.53h-1.06v4.76zm27.71-7.39h3.7l-5.81 16.89h-3.96l-5.81-16.89h3.7l3.17 10.03c.26.53.26 1.32.53 2.11.26.79.26 1.32.26 1.58 0-.79.26-1.85.79-3.7l3.43-10.02zm12.67 16.89v-16.89h3.7v16.89h-3.7zm21.39-14.25c-1.32 0-2.38.53-3.17 1.58s-1.06 2.38-1.06 4.22c0 3.7 1.32 5.54 4.22 5.54 1.32 0 2.64-.26 4.22-.79v2.9c-1.32.53-2.9.79-4.75.79-2.38 0-4.22-.79-5.54-2.38-1.32-1.58-1.85-3.7-1.85-6.34 0-1.85.26-3.43 1.06-4.75.53-1.32 1.58-2.38 2.64-3.17 1.32-.79 2.64-1.06 4.22-1.06 1.58 0 3.43.53 5.02 1.32l-1.06 2.9c-.53-.26-1.32-.53-1.85-.79-.52-.23-1.58.03-2.1.03zm24.55 14.25h-9.77v-16.89h9.77v2.9h-6.07v3.7h5.81v2.9h-5.81v4.49h6.07v2.9zm20.06-4.75c0 1.58-.53 2.64-1.58 3.7-1.06.79-2.64 1.32-4.49 1.32s-3.43-.26-4.75-1.06v-3.43c1.06.53 2.11.79 2.9 1.06s1.58.26 2.11.26c.79 0 1.32-.26 1.85-.53s.53-.79.53-1.32c0-.26 0-.53-.26-.79l-.79-.79c-.26-.26-1.06-.53-2.11-1.06-1.06-.53-1.85-1.06-2.38-1.32-.53-.26-1.06-1.06-1.32-1.58-.26-.53-.53-1.32-.53-2.11 0-1.58.53-2.64 1.58-3.43 1.06-.79 2.38-1.32 4.22-1.32.79 0 1.85 0 2.64.26s1.58.53 2.64.79l-1.06 2.9c-.79-.26-1.58-.53-2.38-.79-.53-.26-1.06-.26-1.85-.26s-1.32.26-1.58.53c-.26.26-.53.79-.53 1.32 0 .26 0 .53.26.79s.26.53.79.79c.26.26 1.06.53 2.38 1.32 1.58.79 2.64 1.58 3.17 2.38.27.26.54 1.32.54 2.37z"/></svg>