<svg xmlns="http://www.w3.org/2000/svg" role="img" xmlns:xlink="http://www.w3.org/1999/xlink" viewBox="-5.84 0.16 316.42 246.42"><title>VS Code Kubernetes Tools logo</title><defs><path d="M16.90625 0L.26562-42.94922h6.14844L17.57812-11.75c.89844 2.5 1.64844 4.84375 2.25782 7.03125.66406-2.34375 1.4336-4.6875 2.3125-7.03125L33.75-42.94922h5.80078L22.73438 0zm0 0" id="a"/><path d="M2.69531-13.79688l5.35938-.46875c.2539 2.14844.84765 3.91016 1.77343 5.28516.9297 1.3789 2.3672 2.49219 4.32032 3.33985 1.95312.85156 4.15234 1.27343 6.59375 1.27343 2.16797 0 4.08203-.32031 5.74218-.96484 1.66016-.64453 2.89454-1.52735 3.70704-2.65235.80859-1.12109 1.21484-2.34765 1.21484-3.67578 0-1.34765-.39063-2.52343-1.17188-3.53125-.78124-1.0039-2.0703-1.84765-3.86718-2.53515-1.15235-.44922-3.70313-1.14453-7.64844-2.09375-3.94531-.94532-6.70703-1.83985-8.28906-2.67969-2.05078-1.07422-3.57813-2.40625-4.58594-4-1.0039-1.58984-1.50781-3.375-1.50781-5.34375 0-2.16797.61719-4.19531 1.84375-6.08203 1.23047-1.88281 3.03125-3.3164 5.39062-4.29297 2.36328-.97656 4.99219-1.46094 7.88282-1.46094 3.18359 0 5.99218.51172 8.42187 1.53516 2.4336 1.02734 4.30469 2.53516 5.60938 4.52734 1.30859 1.99219 2.01562 4.25 2.10937 6.76563l-5.44531.41406c-.29297-2.71484-1.28516-4.76563-2.97657-6.15625-1.6875-1.38672-4.18359-2.07813-7.48437-2.07813-3.4375 0-5.9414.62891-7.51563 1.89063-1.5703 1.25781-2.35937 2.77734-2.35937 4.55469 0 1.54297.5586 2.8125 1.67188 3.8086 1.09375.99609 3.94921 2.01562 8.5703 3.0625 4.6172 1.04296 7.78907 1.95702 9.50782 2.73827 2.5 1.15235 4.34375 2.61328 5.53516 4.3789 1.1914 1.76954 1.78515 3.8047 1.78515 6.10938 0 2.28516-.65234 4.4375-1.96093 6.46094-1.3086 2.01953-3.1875 3.59375-5.64063 4.71485-2.44922 1.125-5.21094 1.6875-8.27344 1.6875-3.88672 0-7.14453-.57032-9.77343-1.70313-2.625-1.13281-4.6875-2.83594-6.1797-5.10938-1.49609-2.27734-2.28124-4.85156-2.35937-7.71875zm0 0" id="b"/><path d="M35.27344-15.0586l5.6836 1.4336c-1.19141 4.66797-3.33595 8.23047-6.4297 10.67969C31.4297-.4922 27.64844.73438 23.17187.73438c-4.6289 0-8.39062-.94532-11.29296-2.82813-2.89844-1.88672-5.10547-4.61719-6.6211-8.1875-1.51172-3.57422-2.26953-7.41406-2.26953-11.51563 0-4.47265.85547-8.375 2.5625-11.70312 1.71094-3.33203 4.14063-5.85938 7.29688-7.58984C16-42.81641 19.47266-43.6797 23.26172-43.6797c4.29687 0 7.91015 1.09375 10.83984 3.28125 2.92969 2.1875 4.96875 5.26172 6.125 9.22657l-5.59765 1.3203c-.9961-3.125-2.44141-5.40234-4.33594-6.82812-1.89453-1.42578-4.27735-2.14062-7.14844-2.14062-3.30078 0-6.0586.79297-8.27734 2.375-2.21485 1.58203-3.77344 3.70703-4.67188 6.3711-.89843 2.66796-1.34765 5.41796-1.34765 8.24609 0 3.65234.53125 6.84374 1.59765 9.5664 1.0625 2.72656 2.71875 4.76172 4.96485 6.10938 2.24609 1.34765 4.67578 2.01953 7.29297 2.01953 3.18359 0 5.8828-.91406 8.08593-2.75 2.20703-1.83594 3.70313-4.5625 4.48438-8.17578zm0 0" id="c"/><path d="M1.99219-15.55469c0-5.76172 1.60156-10.03125 4.80468-12.80468 2.67579-2.3047 5.9375-3.45704 9.78516-3.45704 4.27735 0 7.77344 1.40235 10.48828 4.20313 2.71485 2.80469 4.07032 6.67578 4.07032 11.61719 0 4.0039-.59766 7.15234-1.80079 9.44922-1.19921 2.29296-2.94921 4.07812-5.24218 5.34375C21.80078.0664 19.29687.70311 16.58203.70311c-4.35547 0-7.875-1.39843-10.5625-4.1875-2.6836-2.79296-4.02734-6.8203-4.02734-12.0703zm5.42187 0c0 3.98438.86719 6.96485 2.60547 8.94922 1.73828 1.98047 3.92578 2.97266 6.5625 2.97266 2.61719 0 4.79297-.9961 6.53516-2.98828 1.73828-1.9922 2.60547-5.02735 2.60547-9.11329 0-3.84765-.875-6.76171-2.6211-8.74218-1.75-1.98438-3.92187-2.97657-6.51953-2.97657-2.63672 0-4.82422.98829-6.5625 2.96094-1.73828 1.97266-2.60547 4.95313-2.60547 8.9375zm0 0" id="d"/><path d="M24.14063 0v-3.92578c-1.97266 3.08594-4.875 4.6289-8.70313 4.6289-2.48047 0-4.75781-.68359-6.83984-2.05078C6.51953-2.71484 4.90625-4.625 3.76563-7.07422c-1.14454-2.45312-1.71485-5.26953-1.71485-8.45312 0-3.10547.51953-5.92188 1.55078-8.45313 1.03516-2.52734 2.58985-4.46484 4.66016-5.8164 2.07031-1.34766 4.38672-2.01954 6.9414-2.01954 1.875 0 3.54688.39454 5.01172 1.1875 1.46485.78907 2.65625 1.82032 3.57422 3.08985v-15.41016h5.24219V0zM7.46874-15.52734c0 3.98437.84375 6.96484 2.52344 8.93359 1.67968 1.97266 3.66015 2.96094 5.94531 2.96094 2.30469 0 4.26172-.9414 5.875-2.82813 1.60938-1.88281 2.41406-4.75781 2.41406-8.625 0-4.25781-.82031-7.38281-2.46093-9.375-1.64063-1.99218-3.66016-2.99218-6.0625-2.99218-2.34375 0-4.30079.96093-5.875 2.875-1.57032 1.91406-2.35938 4.92968-2.35938 9.05078zm0 0" id="e"/><path d="M25.2539-10.01953l5.44922.67578c-.85937 3.1836-2.45312 5.65234-4.77343 7.41016C23.60547-.1758 20.6328.70312 17.02344.70312 12.47266.70313 8.86328-.69921 6.1953-3.5c-2.66406-2.80469-4-6.73438-4-11.79297 0-5.23437 1.35156-9.29687 4.04688-12.1875 2.69531-2.89062 6.1875-4.33594 10.48437-4.33594 4.16016 0 7.5625 1.41797 10.19532 4.2461C29.55859-24.73828 30.8789-20.75 30.8789-15.6172c0 .3125-.01172.78125-.02735 1.40625H7.64844c.19531 3.41797 1.16015 6.03907 2.89844 7.85157 1.73828 1.8164 3.90625 2.72656 6.5039 2.72656 1.9336 0 3.58203-.50781 4.94922-1.52344 1.36719-1.01563 2.45313-2.63672 3.2539-4.86328zM7.9375-18.54688h17.375c-.23438-2.61718-.89844-4.57812-1.99219-5.88671-1.67968-2.03125-3.85937-3.04688-6.53125-3.04688-2.42187 0-4.46093.8086-6.10937 2.4336-1.65235 1.62109-2.5625 3.78906-2.74219 6.5zm0 0" id="f"/><path d="M4.39453 0v-42.94922h5.6836v21.30078l21.32812-21.30078h7.70313L21.09374-25.54688 39.90235 0h-7.5L17.10937-21.73828l-7.03126 6.85547V0zm0 0" id="g"/><path d="M24.34375 0v-4.57031C21.92187-1.0547 18.63281.70313 14.47265.70313c-1.83593 0-3.55077-.35157-5.14062-1.0547C7.73828-1.05468 6.5586-1.9375 5.78516-3.0039c-.76954-1.0625-1.3125-2.36718-1.625-3.91015-.21485-1.03516-.32422-2.67578-.32422-4.92188v-19.27734h5.27343v17.2539c0 2.75391.10938 4.60938.32422 5.57032.33203 1.38672 1.03516 2.47265 2.10938 3.26562 1.07422.78906 2.40234 1.1875 3.98437 1.1875s3.06641-.40625 4.45313-1.21875c1.38672-.8086 2.36719-1.91406 2.94531-3.3086.57422-1.39843.86328-3.42577.86328-6.08202v-16.66797h5.27344V0zm0 0" id="h"/><path d="M8.82031 0H3.92578v-42.94922h5.27344V-27.625c2.22656-2.79297 5.0664-4.1914 8.52734-4.1914 1.91407 0 3.72266.38671 5.4336 1.15624 1.70703.77344 3.11328 1.85547 4.21875 3.25391 1.10156 1.39453 1.96484 3.07813 2.58984 5.05469.625 1.97265.9375 4.07812.9375 6.32812 0 5.33203-1.3164 9.45313-3.95313 12.35938C24.31641-.75391 21.15235.70313 17.46095.70313c-3.67188 0-6.55469-1.53126-8.64063-4.60157zm-.0625-15.78906c0 3.73047.50782 6.42187 1.52344 8.08593 1.66016 2.71485 3.90625 4.07032 6.74219 4.07032 2.30468 0 4.29687-1 5.97656-3.0039 1.67969-2 2.51563-4.98438 2.51563-8.94923 0-4.0625-.8047-7.0625-2.41407-8.99218-1.61328-1.9336-3.5625-2.90235-5.84375-2.90235-2.30468 0-4.29687 1-5.97656 3.0039-1.67969 2-2.52344 4.89844-2.52344 8.6875zm0 0" id="i"/><path d="M3.89844 0v-31.11328h4.74218v4.71484c1.21094-2.20703 2.33204-3.66015 3.35547-4.36328 1.02735-.70312 2.15235-1.05469 3.38672-1.05469 1.77735 0 3.58203.56641 5.41797 1.69922l-1.8164 4.89063c-1.28907-.76172-2.57813-1.14063-3.8672-1.14063-1.15234 0-2.1875.34766-3.10546 1.03907-.91797.6953-1.57422 1.65624-1.96485 2.88671-.58593 1.875-.875 3.92579-.875 6.15235V0zm0 0" id="j"/><path d="M3.95313 0v-31.11328h4.75v4.42578c2.28515-3.41797 5.58593-5.1289 9.89843-5.1289 1.875 0 3.60157.33593 5.17188 1.01171 1.57422.67188 2.75 1.55469 3.53125 2.64844s1.32812 2.39453 1.64062 3.89844c.19532.97656.29297 2.6875.29297 5.125V0h-5.27344v-18.92578c0-2.14844-.20703-3.7539-.61328-4.82031-.41015-1.0625-1.14062-1.91407-2.1836-2.54688-1.04687-.63672-2.26952-.95312-3.67577-.95312-2.2461 0-4.1875.71484-5.8164 2.13671-1.63282 1.42579-2.44923 4.13282-2.44923 8.1172V0zm0 0" id="k"/><path d="M15.46875-4.71875l.76172 4.66016c-1.48438.3125-2.8125.46875-3.98438.46875-1.91406 0-3.39843-.30079-4.45312-.91016-1.05469-.60547-1.79688-1.39844-2.22656-2.38672-.4297-.98437-.64454-3.0586-.64454-6.22266v-17.90234H1.0547v-4.10156h3.86719v-7.70703l5.24218-3.16407v10.8711h5.30469v4.10156h-5.30469v18.1914c0 1.50391.09375 2.47266.28125 2.90235.1836.42969.48828.76953.90625 1.02735.42188.2539 1.02344.3789 1.80469.3789.58594 0 1.35547-.0664 2.3125-.20703zm0 0" id="l"/><path d="M1.84375-9.28906l5.21875-.82032c.29297 2.08985 1.10547 3.69532 2.44531 4.8047 1.33594 1.11327 3.20703 1.67187 5.60938 1.67187 2.42187 0 4.21875-.49219 5.39062-1.48047 1.17188-.98438 1.75782-2.14453 1.75782-3.47266 0-1.1914-.51563-2.125-1.5547-2.8125-.72265-.46875-2.51562-1.0625-5.39062-1.78515-3.86718-.97657-6.54687-1.82032-8.03906-2.53516-1.4961-.71094-2.6289-1.69922-3.39844-2.95703-.77344-1.26172-1.15625-2.65235-1.15625-4.17578 0-1.38672.3164-2.67188.94922-3.85157.63672-1.18359 1.5-2.16406 2.59375-2.9453.82031-.60548 1.9375-1.1172 3.35547-1.53907 1.41406-.41797 2.9336-.6289 4.55469-.6289 2.4414 0 4.58593.35156 6.42968 1.05468 1.84766.70313 3.21094 1.65625 4.08594 2.85547.8789 1.20313 1.48438 2.8086 1.82032 4.82031l-5.15626.70313c-.23437-1.60157-.91406-2.85157-2.03906-3.75-1.1211-.89844-2.71093-1.34766-4.75781-1.34766-2.42188 0-4.15234.40235-5.1875 1.19922-1.03516.80078-1.55469 1.74219-1.55469 2.8125 0 .6836.21875 1.30078.64844 1.84766.42969.5664 1.10156 1.03515 2.01953 1.40625.52735.1953 2.08203.64453 4.66016 1.34765 3.73047.9961 6.33203 1.8125 7.80468 2.44532 1.47657.63671 2.63282 1.55859 3.47266 2.76953.83985 1.21093 1.26172 2.71484 1.26172 4.51172 0 1.7578-.51563 3.41406-1.53906 4.96484-1.02735 1.55469-2.50782 2.7539-4.4375 3.60547-1.9336.84765-4.125 1.27344-6.5625 1.27344-4.04297 0-7.125-.83985-9.2461-2.51954C3.78516-3.49609 2.4297-5.98437 1.84375-9.28906zm0 0" id="m"/><path d="M15.55469 0v-37.88281H1.40625v-5.0664h34.04297v5.0664H21.24219V0zm0 0" id="n"/><path d="M3.83594 0v-42.94922h5.27343V0zm0 0" id="o"/></defs><use y="50" xlink:href="#a"/><use x="40.02" y="50" xlink:href="#b"/><use y="120" xlink:href="#c"/><use x="43.33" y="120" xlink:href="#d"/><use x="76.699" y="120" xlink:href="#e"/><use x="110.068" y="120" xlink:href="#f"/><g><use y="180" xlink:href="#g"/><use x="40.02" y="180" xlink:href="#h"/><use x="73.389" y="180" xlink:href="#i"/><use x="106.758" y="180" xlink:href="#f"/><use x="140.127" y="180" xlink:href="#j"/><use x="160.107" y="180" xlink:href="#k"/><use x="193.477" y="180" xlink:href="#f"/><use x="226.846" y="180" xlink:href="#l"/><use x="243.516" y="180" xlink:href="#f"/><use x="276.885" y="180" xlink:href="#m"/></g><g><use y="240" xlink:href="#n"/><use x="36.65" y="240" xlink:href="#d"/><use x="70.02" y="240" xlink:href="#d"/><use x="103.389" y="240" xlink:href="#o"/><use x="116.719" y="240" xlink:href="#m"/></g></svg>