<svg xmlns="http://www.w3.org/2000/svg" role="img" viewBox="-6.95 65.05 413.66 114.66"><title>We.Trade Innovation DAC logo</title><style>svg {enable-background:new 0 0 400 245}</style><style>.st3{fill:#d1d700}.st5{fill:#82cde3}</style><circle cx="50.74" cy="122.5" r="49.5" fill="#2a2676"/><path d="M40.67 144.58c2.53 0 4.94-1.49 5.99-3.97l13.21-31.13c1.4-3.31-.14-7.13-3.45-8.53-3.31-1.4-7.13.14-8.53 3.45l-13.21 31.13c-1.4 3.31.14 7.13 3.45 8.53.82.35 1.69.52 2.54.52z" class="st3"/><path fill="#fff" d="M60.93 144.58c2.53 0 4.94-1.49 5.99-3.97l13.21-31.13c1.4-3.31-.14-7.13-3.45-8.53-3.31-1.4-7.13.14-8.53 3.45l-13.21 31.13c-1.4 3.31.14 7.13 3.45 8.53.83.35 1.69.52 2.54.52z"/><path d="M40.54 144.58c-2.53 0-4.94-1.49-5.99-3.97l-13.21-31.13c-1.4-3.31.14-7.13 3.45-8.53 3.31-1.4 7.13.14 8.53 3.45l13.21 31.13c1.4 3.31-.14 7.13-3.45 8.53-.83.35-1.69.52-2.54.52z" class="st3"/><path d="M60.93 144.58c-2.53 0-4.94-1.49-5.99-3.97l-13.21-31.13c-1.4-3.31.14-7.13 3.45-8.53 3.31-1.4 7.13.14 8.53 3.45l13.21 31.13c1.4 3.31-.14 7.13-3.45 8.53-.83.35-1.69.52-2.54.52z" class="st5"/><path fill="#2c2582" d="M50.8 130.86l7.07-16.66-4.16-9.81c-.6-1.42-1.65-2.51-2.91-3.18-1.26.68-2.31 1.77-2.91 3.18l-4.16 9.81 7.07 16.66z"/><path fill="#44b4e4" d="M50.8 130.86l7.07-16.66-4.16-9.81c-.6-1.42-1.65-2.51-2.91-3.18-1.26.68-2.31 1.77-2.91 3.18l-4.16 9.81 7.07 16.66z"/><path d="M218.07 129.65c3.89 0 6.93 3.04 6.93 6.93 0 3.72-3.04 6.76-6.93 6.76-3.72 0-6.76-3.04-6.76-6.76 0-3.89 3.04-6.93 6.76-6.93z" class="st5"/><path fill="#201f1e" d="M153.21 141.86c-.35 1.15-1.14 1.86-2.28 1.86s-1.84-.71-2.19-1.86l-9.3-34.03-9.21 34.03c-.35 1.15-1.23 1.86-2.37 1.86-1.14 0-2.02-.71-2.37-1.86l-10.53-38.99c-.09-.26-.18-.62-.18-.88 0-1.42.96-2.39 2.19-2.39 1.05 0 1.93.53 2.19 1.5l8.86 34.56 8.86-34.03c.35-1.24 1.32-2.04 2.55-2.04s2.28.8 2.63 2.04l8.86 34.03 8.86-34.56c.26-.97 1.05-1.5 2.11-1.5 1.23 0 2.1.97 2.1 2.39 0 .27-.09.62-.18.88l-10.6 38.99zm50.57-11.79c-.35 7.89-6.32 13.25-15.53 13.25-9.39 0-15.79-5.88-15.79-15.44v-11.93c0-10.09 6.4-16.32 15.79-16.32 9.21 0 15.53 6.23 15.53 16.32v4.03c0 1.32-.88 2.19-2.2 2.19h-24.74v6.05c0 6.4 4.12 11.41 11.41 11.41 7.54 0 11.23-4.48 11.41-9.56 0-1.23.79-2.11 2.02-2.11s2.19.88 2.1 2.11zm-26.94-11.75h22.81v-2.72c0-6.93-4.12-12.28-11.41-12.28-7.28 0-11.41 5.35-11.41 12.28v2.72zm49.36-18.69h7.72V90.6c0-1.31.88-2.19 2.19-2.19s2.19.88 2.19 2.19v9.03h7.72c1.05 0 1.75.7 1.75 1.75s-.7 1.93-1.75 1.93h-7.72v38.08c0 1.31-.88 2.19-2.19 2.19s-2.19-.88-2.19-2.19v-38.08h-7.72c-1.05 0-1.75-.7-1.75-1.75s.7-1.93 1.75-1.93zm34.06 6.53c2.63-4.21 6.93-6.58 12.28-6.58 1.4 0 2.19.88 2.19 2.19 0 1.14-.7 2.02-1.75 1.93-7.63-.44-12.28 4.38-12.28 11.31v26.5c0 1.31-.88 2.19-2.19 2.19s-2.19-.88-2.19-2.19v-39.74c0-1.14.53-1.75 1.67-1.75.79 0 1.49.35 1.67 1.75l.6 4.39zm47.83 31.81c-2.63 3.95-7.02 6.23-12.19 6.23-9.21 0-15-5.88-15-15.44v-13.69c0-9.56 5.79-15.44 15-15.44 5.26 0 9.56 2.19 12.19 6.14l.61-3.95c.18-1.4.88-1.75 1.67-1.75 1.14 0 1.67.61 1.67 1.75V142c0 1.14-.53 1.75-1.67 1.75-.79 0-1.49-.35-1.67-1.75l-.61-4.03zm-.44-9.74V115.6c0-6.75-4.3-12.02-11.49-12.02s-10.88 4.91-10.88 11.14v14.39c0 6.23 3.69 11.14 10.88 11.14s11.49-5.26 11.49-12.02zm47.75 13.81c0 1.14-.53 1.75-1.67 1.75-.79 0-1.49-.35-1.67-1.75l-.61-4.04c-2.63 3.95-7.02 6.23-12.19 6.23-9.21 0-15-5.88-15-15.44V115.1c0-9.56 5.79-15.44 15-15.44 4.91 0 9.13 2.02 11.76 5.7V85.72c0-1.31.88-2.19 2.19-2.19 1.32 0 2.2.88 2.2 2.19v56.32zm-4.39-13.77v-12.63c0-6.75-4.3-12.02-11.49-12.02s-10.88 4.91-10.88 11.14v14.39c0 6.23 3.69 11.14 10.88 11.14s11.49-5.27 11.49-12.02zm47.75 1.8c-.35 7.89-6.32 13.25-15.53 13.25-9.39 0-15.79-5.88-15.79-15.44v-11.93c0-10.09 6.4-16.32 15.79-16.32 9.21 0 15.53 6.23 15.53 16.32v4.03c0 1.32-.88 2.19-2.2 2.19h-24.74v6.05c0 6.4 4.12 11.41 11.4 11.41 7.54 0 11.23-4.48 11.41-9.56 0-1.23.79-2.11 2.02-2.11s2.2.88 2.11 2.11zm-26.93-11.75h22.81v-2.72c0-6.93-4.12-12.28-11.41-12.28-7.28 0-11.4 5.35-11.4 12.28v2.72z"/></svg>