<svg xmlns="http://www.w3.org/2000/svg" role="img" viewBox="-4.80 -4.80 249.34 54.34"><title>Whitestack LLC logo</title><path fill="#e6e6eb" d="M73 29h1v1h-1z"/><path fill="#fffffd" d="M176 33h1v1h-1z"/><path d="M13 44h4v1h-4zm4 0h3v1h-3zm3 0h13v1H20zm13 0h1v1h-1zm2 0h1v1h-1z" fill="#f3f5f9"/><path d="M111 15h1v1h-1zm-14 8h1v1h-1z" fill="#dddde3"/><path d="M218 18h1v1h-1zm0 12h1v1h-1z" fill="#dde3e8"/><path d="M6 1h1v1H6zm36 2h1v1h-1zm177 2h1v1h-1zM44 7h1v1h-1zm0 1h1v1h-1zm65 1h1v1h-1zm-86 1h1v1h-1zm2 1h1v1h-1zm5 2h1v1h-1zm126 1h1v1h-1zm28 0h1v1h-1zm6 0h1v1h-1zm-84 1h1v1h-1zm6 0h1v1h-1zm18 0h1v1h-1zm-50 1h1v1h-1zm56 0h1v1h-1zm94 0h1v1h-1zM22 17h1v1h-1zm30 0h1v1h-1zm12 0h1v1h-1zm4 0h1v1h-1zm38 0h1v1h-1zm74 0h1v1h-1zM55 18h1v1h-1zm11 0h1v1h-1zm116 0h1v1h-1zm26 1h1v1h-1zm20 0h1v1h-1zM53 20h1v1h-1zm34 0h1v1h-1zm65 0h1v1h-1zM8 21h1v1H8zm9 0h1v1h-1zm189 0h1v1h-1zM98 22h1v1h-1zm49 0h1v1h-1zm37 0h1v1h-1zM62 23h1v1h-1zm2 0h1v1h-1zm66 0h1v1h-1zm1 0h1v1h-1zm6 0h1v1h-1zm2 0h1v1h-1zm18 0h1v1h-1zm68 0h1v1h-1zM37 24h1v1h-1zm1 1h1v1h-1zm122 0h1v1h-1zm19 0h1v1h-1zm-54 1h1v1h-1zM10 27h1v1h-1zm45 0h1v1h-1zm14 0h1v1h-1zm2 0h1v1h-1zm100 0h1v1h-1zM17 28h1v1h-1zm189 0h1v1h-1zM26 29h1v1h-1zm36 0h1v1h-1zm116 0h1v1h-1zM36 30h1v1h-1zm20 0h1v1h-1zm62 0h1v1h-1zm8 0h1v1h-1zm110 0h1v1h-1zM72 31h1v1h-1zm113 0h1v1h-1zm27 0h1v1h-1zM75 32h1v1h-1zm23 0h1v1h-1zm98 0h1v1h-1zm6 0h1v1h-1zM7 33h1v1H7zm91 0h1v1h-1zm18 0h1v1h-1zm18 0h1v1h-1zm2 0h1v1h-1zm1 0h1v1h-1zm59 0h1v1h-1zm42 0h1v1h-1zM71 34h1v1h-1zm59 0h1v1h-1zm75 0h1v1h-1zm-83 1h1v1h-1zm49 0h1v1h-1zm13 0h1v1h-1zm1 0h1v1h-1zm27 0h1v1h-1zM7 36h1v1H7zm-5 3h1v1H2zm5 4h1v1H7z" fill="#fcfcfd"/><path d="M42 2h1v1h-1zm114 11h1v1h-1zm4 11h1v1h-1z" fill="#ebebf0"/><path d="M216 6h1v4h-1zm0 4h1v1h-1zm-7 1h1v1h-1zm4 0h1v1h-1zm-5 2h1v1h-1zm31 0h1v1h-1zM22 14h1v1h-1zm121 2h1v1h-1zm-7 4h1v1h-1zm80 2h1v5h-1zm-42 5h1v1h-1zm42 0h1v1h-1zm-6 1h1v1h-1zm-88 2h1v1h-1z" fill="#bfbfbf"/><path d="M165 10h1v1h-1zm0 3h1v1h-1z" fill="#e8e8eb"/><path d="M115 12h1v1h-1zm22 5h1v1h-1zm-48 1h1v1h-1zm-32 6h1v1h-1zm90 6h1v1h-1zm6 1h1v1h-1zm61 4h1v1h-1z" fill="#f7f9fa"/><path d="M210 13h1v1h-1zm-58 14h1v1h-1z" fill="#e9eeee"/><path d="M36 0h1v1h-1zm154 21h1v1h-1z" fill="#f8f9fa"/><path d="M5 1h1v1H5zm201 34h1v1h-1z" fill="#f6f8f8"/><path fill="#f4f7f9" d="M56 32h1v1h-1z"/><path fill="#e6e6ee" d="M137 32h1v1h-1z"/><path fill="#e1e1e5" d="M45 34h1v1h-1z"/><path fill="#edf1f1" d="M150 14h1v1h-1z"/><path fill="#ccf" d="M59 22h1v1h-1z"/><path d="M0 12h1v20H0zm0 20h1v1H0z" fill="#eff4f4"/><path d="M115 13h1v1h-1zm31 7h1v1h-1zm-3 5h1v1h-1zM71 35h1v1h-1zm105 0h1v1h-1z" fill="#f7f7fa"/><path d="M79 14h1v1h-1zm43 0h1v1h-1zm75 20h1v1h-1z" fill="#f3f3f7"/><path fill="#e8e8e8" d="M162 19h1v1h-1z"/><path fill="#e6ebf0" d="M146 22h1v1h-1z"/><path fill="#eef1f5" d="M228 29h1v1h-1z"/><path fill="#f2f4f7" d="M84 4h1v1h-1z"/><path d="M10 7h1v1h-1zm9 2h1v1h-1zm72 5h1v1h-1zm56 3h1v1h-1zm-18 3h1v1h-1zm-76 2h1v1h-1zm8 2h1v1h-1zm7 2h1v1h-1zm-38 3h1v1h-1zm25 0h1v1h-1zm71 2h1v1h-1zm50 1h1v1h-1zm54 0h1v1h-1zm-101 2h1v1h-1zm87 0h1v1h-1zm-76 1h1v1h-1zm-97 5h1v1h-1z" fill="#f5f5f7"/><path d="M65 22h1v1h-1zm-37 1h1v1h-1z" fill="#f3f6f6"/><path fill="#c3c3d2" d="M138 22h1v1h-1z"/><path fill="#f0f4f8" d="M36 37h1v1h-1z"/><path fill="#dce2e2" d="M218 6h1v1h-1z"/><path d="M68 15h1v1h-1zm-49 7h1v1h-1zm8 1h1v1h-1z" fill="#f2f5f5"/><path d="M170 8h1v1h-1zm57 11h1v1h-1z" fill="#ededf3"/><path d="M68 14h1v1h-1zm61 14h1v1h-1zM1 39h1v1H1z" fill="#ebebeb"/><path fill="#edeff2" d="M120 17h1v1h-1z"/><path fill="#e9eded" d="M232 22h1v1h-1z"/><path d="M10 26h1v1h-1zm208 9h1v1h-1zm-84 1h1v1h-1z" fill="#e2e2eb"/><path fill="#dae0e6" d="M32 32h1v1h-1z"/><path d="M40 1h1v1h-1zM12 6h1v1h-1zm175 12h1v1h-1zM69 19h1v1h-1zm-39 1h1v1h-1zm153 2h1v1h-1zm16 2h1v1h-1zM61 25h1v1h-1zm138 2h1v1h-1zm7 0h1v1h-1zM21 28h1v1h-1zm193 2h1v1h-1zM38 34h1v1h-1zM7 35h1v1H7zm35 6h1v1h-1z" fill="#f7f9f9"/><path d="M45 7h1v1h-1zm-30 6h1v1h-1zm196 0h1v1h-1zm-70 3h1v1h-1zM17 22h1v1h-1zm180 0h1v1h-1z" fill="#e4e4ed"/><path fill="#4080bf" d="M142 32h1v1h-1z"/><path fill="#004080" d="M213 36h1v1h-1z"/><path fill="#eaeeee" d="M105 7h1v1h-1z"/><path d="M106 10h1v1h-1zm-54 9h1v1h-1zm147 3h1v1h-1zM57 23h1v1h-1zm58 9h1v1h-1z" fill="#f3f5f5"/><path d="M172 11h1v1h-1zm13 19h1v1h-1z" fill="#dce3ea"/><path d="M55 16h1v1h-1zm15 6h1v1h-1zm6 8h1v1h-1zM41 42h1v1h-1z" fill="#f6f8fa"/><path fill="#f6f6fa" d="M10 21h1v1h-1z"/><path d="M146 21h1v1h-1zM87 35h1v1h-1z" fill="#f7f7f7"/><path d="M18 6h1v1h-1zm204 1h1v1h-1zM84 8h1v1h-1zM1 9h1v1H1zm5 0h1v1H6zm78 0h1v2h-1zm34 0h1v1h-1zM1 11h1v1H1zm83 0h1v1h-1zm-49 2h1v1h-1zm59 1h1v1h-1zm24 0h1v1h-1zm16 0h1v1h-1zm-2 2h1v1h-1zm26 0h1v1h-1zm15 0h1v1h-1zm16 0h1v1h-1zm22 0h1v1h-1zm4 0h1v1h-1zm19 0h1v1h-1zM16 17h1v1h-1zm176 0h1v1h-1zm16 0h1v1h-1zM65 18h1v1h-1zm99 0h1v1h-1zm1 0h1v1h-1zm3 0h1v1h-1zm27 0h1v1h-1zm11 0h1v1h-1zm26 0h1v1h-1zm-10 1h1v1h-1zM67 20h1v1h-1zm83 0h1v1h-1zm-66 2h1v1h-1zm138 0h1v1h-1zm5 2h1v1h-1zM84 25h1v1h-1zm99 0h1v1h-1zm3 0h1v1h-1zM41 26h1v1h-1zm43 0h1v1h-1zm98 0h1v1h-1zm-2 1h1v1h-1zm14 0h1v1h-1zm38 1h1v1h-1zM24 29h1v1h-1zm137 0h1v1h-1zm7 0h1v1h-1zM33 30h1v1h-1zm126 0h1v1h-1zm13 0h1v1h-1zM1 31h1v1H1zm57 0h1v1h-1zm164 0h1v1h-1zM1 32h1v1H1zm72 0h1v1h-1zm68 1h1v1h-1zm9 0h1v1h-1zm1 0h1v1h-1zm23 0h1v1h-1zm35 0h1v1h-1zM42 34h1v1h-1zM1 35h1v1H1zm41 0h1v1h-1zm93 0h1v1h-1zm-96 3h1v1h-1zm-1 1h1v1h-1z" fill="#fefefe"/><path d="M44 6h1v1h-1zm-33 6h1v1h-1zm185 12h1v1h-1zm0 1h1v1h-1zM74 27h1v1h-1zm-54 1h1v1h-1zm126 5h1v1h-1zm34 1h1v1h-1zm-48 1h1v1h-1zm87 0h1v1h-1z" fill="#f9fbfb"/><path d="M197 21h1v1h-1zM24 32h1v1h-1zm1 0h2v1h-2zm2 0h1v1h-1z" fill="#dbdbe7"/><path fill="#dcdce3" d="M172 25h1v1h-1z"/><path fill="#e5e5e9" d="M124 14h1v1h-1z"/><path fill="#f8f8f8" d="M38 27h1v1h-1z"/><path fill="#f3f3f4" d="M215 30h1v1h-1z"/><path fill="navy" d="M102 35h1v1h-1z"/><path fill="#699" d="M110 35h1v1h-1z"/><path fill="#f6f8fb" d="M36 44h1v1h-1z"/><path d="M39 0h1v1h-1zm100 22h1v1h-1z" fill="#e9e9ef"/><path d="M16 8h1v1h-1zm81 14h1v1h-1zm27 11h1v1h-1z" fill="#e7eded"/><path d="M11 26h1v1h-1zm122 10h1v1h-1z" fill="#c4c4d8"/><path fill="#d9dfe6" d="M34 32h1v1h-1z"/><path d="M43 4h1v1h-1zm72 7h1v1h-1zm36 3h1v1h-1zm8 0h1v1h-1zM36 16h1v1h-1zm92 0h1v1h-1zm6 0h1v1h-1zm7 1h1v1h-1zm-26 1h1v1h-1zm39 0h1v1h-1zM38 19h1v1h-1zm18 1h1v1h-1zm45 0h1v1h-1zm-81 2h1v1h-1zm135 0h1v1h-1zm44 1h1v1h-1zM60 28h1v1h-1zm95 2h1v1h-1zm-28 2h1v1h-1zm1 1h1v1h-1zm-84 5h1v1h-1z" fill="#f8f8fa"/><path fill="#8080ff" d="M162 21h1v1h-1z"/><path d="M165 11h1v1h-1zm0 1h1v1h-1z" fill="#ededef"/><path d="M189 13h1v1h-1zm-7 6h1v1h-1zm2 17h1v1h-1z" fill="#e6e6ec"/><path d="M172 20h1v1h-1zm-21 16h1v1h-1z" fill="#d1d1dc"/><path fill="#fafbfd" d="M78 23h1v1h-1z"/><path d="M11 32h1v1h-1zm19 0h1v1h-1zm1 0h1v1h-1z" fill="#dbe1e7"/><path d="M2 4h1v1H2zm15 4h1v1h-1zm151 1h1v1h-1zM22 10h1v1h-1zm9 4h1v1h-1zm145 0h1v1h-1zm6 0h1v1h-1zM51 15h1v1h-1zm13 0h1v1h-1zm17 0h1v1h-1zm75 3h1v1h-1zm45 0h1v1h-1zM28 19h1v1h-1zm48 0h1v1h-1zm21 1h1v1h-1zm-84 1h1v1h-1zm112 0h1v1h-1zm61 0h1v1h-1zm1 0h1v1h-1zM21 22h1v1h-1zm122 0h1v1h-1zm4 1h1v1h-1zm-69 1h1v1h-1zm-7 1h1v1h-1zm3 1h1v1h-1zm87 0h1v1h-1zM14 27h1v1h-1zm139 0h1v1h-1zm-98 1h1v1h-1zm100 0h1v1h-1zm-86 1h1v1h-1zm131 1h1v1h-1zm29 0h1v1h-1zm-114 1h1v1h-1zm72 0h1v1h-1zm-48 4h1v1h-1z" fill="#f7f7f9"/><path d="M13 7h1v1h-1zm123 6h1v1h-1z" fill="#555580"/><path d="M218 14h1v1h-1zm0 3h1v1h-1zm0 14h1v1h-1z" fill="#e3e3e9"/><path fill="#d7dde4" d="M111 16h1v1h-1z"/><path fill="#dfe7e7" d="M8 33h1v1H8z"/><path fill="#e6e6e6" d="M172 8h1v1h-1z"/><path d="M106 14h1v1h-1zm18 2h1v1h-1zm-11 1h1v1h-1z" fill="#f0f2f4"/><path d="M109 10h1v1h-1zm125 16h1v1h-1z" fill="#efeff2"/><path d="M41 1h1v1h-1zm142 35h1v1h-1z" fill="#dedee9"/><path d="M166 9h1v1h-1zm-20 9h1v1h-1zm1 6h1v1h-1zm31 1h1v1h-1zM54 27h1v1h-1zm108 0h1v1h-1zm-15 2h1v1h-1zm-32 4h1v1h-1zm-18 2h1v1h-1z" fill="#dcdce8"/><path d="M17 14h1v1h-1zm39 19h1v1h-1z" fill="#ecf1f1"/><path d="M161 15h1v1h-1zm-29 7h4v1h-4zm4 0h1v1h-1zM62 32h1v1h-1z" fill="#dddde6"/><path d="M216 16h1v1h-1zM97 21h1v1h-1zm52 9h1v1h-1z" fill="#f0f4f4"/><path d="M24 23h1v1h-1zm173 0h1v1h-1zM77 29h1v1h-1zm97 7h1v1h-1z" fill="#d8d8d8"/><path fill="#b9d1d1" d="M230 33h1v1h-1z"/><path d="M225 5h1v1h-1zM106 6h1v1h-1zm4 2h1v1h-1zm21 6h1v1h-1zM19 15h1v1h-1zm36 0h1v1h-1zm14 3h1v1h-1zm93 0h1v1h-1zm53 1h1v1h-1zm10 0h1v1h-1zM60 27h1v1h-1zm12 1h1v1h-1zm53 1h1v1h-1zM8 44h1v1H8z" fill="#f3f3f6"/><path d="M153 13h1v1h-1zm32 0h1v1h-1zM29 19h1v1h-1zm151 4h1v1h-1z" fill="#e4e4eb"/><path d="M218 16h1v1h-1zM37 25h1v1h-1z" fill="#e4e4ea"/><path d="M229 16h1v1h-1zm-71 3h1v1h-1zm-39 10h1v1h-1zm52 7h1v1h-1z" fill="#e9e9e9"/><path d="M25 28h1v1h-1zm105 2h1v1h-1zm-9 2h1v1h-1z" fill="#e9efef"/><path fill="#f3f6f9" d="M210 30h1v1h-1z"/><path fill="#e1e9f0" d="M239 33h1v1h-1z"/><path d="M87 13h1v1h-1zm77 1h1v1h-1zm21 4h1v1h-1zm-76 17h1v1h-1z" fill="#f6f6f9"/><path d="M55 14h1v1h-1zm-4 3h1v1h-1zm99 13h1v1h-1z" fill="#dfdfea"/><path d="M107 11h1v1h-1zm102 2h1v1h-1zm4 0h1v1h-1zm-108 1h1v1h-1zm105 5h1v1h-1zm-90 17h1v1h-1zm32 0h1v1h-1zm1 0h1v1h-1zm57 0h1v1h-1zM38 44h1v1h-1z" fill="#ededed"/><path fill="#d3dede" d="M130 14h1v1h-1z"/><path fill="#f0f0f2" d="M124 15h1v1h-1z"/><path fill="#efefff" d="M105 35h1v1h-1z"/><path fill="#fdfdff" d="M106 35h1v1h-1z"/><path d="M7 0h1v1H7zm80 6h1v1h-1zm-77 5h1v1h-1zm77 3h1v1h-1zm87 0h1v1h-1zm1 0h1v1h-1zm58 0h1v1h-1zm1 0h1v1h-1zM87 15h1v1h-1zm62 0h1v1h-1zm89 0h1v1h-1zM87 17h1v1h-1zm149 0h1v1h-1zM63 18h1v1h-1zm75 0h1v1h-1zm22 0h1v1h-1zm36 1h1v1h-1zm-40 3h1v1h-1zm-89 1h1v1h-1zm91 0h1v1h-1zm-15 1h1v1h-1zm-89 1h1v1h-1zm179 0h1v1h-1zM58 27h1v1h-1zm19 0h1v1h-1zm107 1h1v1h-1zm-38 4h1v1h-1zm-15 3h1v1h-1zM9 44h1v1H9z" fill="#f6f6f8"/><path d="M116 8h1v1h-1zM13 12h1v1h-1zm122 5h1v1h-1z" fill="#9f9fbf"/><path d="M44 9h1v26h-1zm125 2h1v1h-1zm-57 5h1v1h-1zm6 1h1v1h-1zm49 1h1v1h-1zm37 0h1v1h-1zM42 19h1v5h-1zm180 2h1v1h-1zm-38 3h1v1h-1zm21 0h1v1h-1zM42 26h1v2h-1zm42 1h1v1h-1zm-8 1h1v1h-1zm8 0h1v1h-1zm-25 4h1v1h-1zm111 1h1v1h-1zm-72 1h1v1h-1zm-54 1h1v1h-1z" fill="#fefeff"/><path d="M171 9h1v1h-1zm-70 18h1v4h-1zm-85 4h1v1h-1zm5 0h1v1h-1zm3 0h1v1h-1zm2 0h1v1h-1zm5 0h1v1h-1zm70 0h1v1h-1z" fill="#fafbfc"/><path d="M1 10h1v1H1zm106 0h1v1h-1zm-79 2h1v1h-1zm107 2h1v1h-1zm19 0h1v1h-1zm58 0h1v1h-1zM17 15h1v1h-1zm18 0h1v1h-1zm115 0h1v1h-1zm31 0h1v1h-1zM37 16h1v1h-1zm52 0h1v1h-1zm17 0h1v1h-1zm-82 2h1v1h-1zm149 0h1v1h-1zm1 0h1v1h-1zm15 0h1v1h-1zm-37 1h1v1h-1zm38 0h1v1h-1zM31 21h1v1h-1zm38 0h1v1h-1zm-44 1h1v1h-1zm1 0h1v1h-1zm30 0h1v1h-1zm22 0h1v1h-1zm62 0h1v1h-1zm45 0h1v1h-1zM54 23h1v1h-1zm23 2h1v1h-1zm128 0h1v1h-1zM57 26h1v1h-1zm6 0h1v1h-1zm-5 4h1v1h-1zm103 0h1v1h-1zM35 31h1v1h-1zm95 0h1v1h-1zm-24 1h1v1h-1zm109 0h1v1h-1zm-109 1h1v1h-1zm16 0h1v1h-1zM1 34h1v1H1zm146 0h1v1h-1zM44 36h1v1h-1z" fill="#fdfdfe"/><path fill="#d5d5d5" d="M12 10h1v1h-1z"/><path d="M32 15h1v1h-1zm201 9h1v1h-1z" fill="#bfbfd5"/><path d="M199 21h1v1h-1zM68 27h1v1h-1z" fill="#ebf0f0"/><path fill="#0ff" d="M105 4h1v1h-1z"/><path d="M109 6h1v1h-1zm-88 4h1v1h-1zm49 23h1v1h-1z" fill="#f0f0f4"/><path fill="#d5d5ea" d="M74 24h1v1h-1z"/><path d="M178 26h1v1h-1zm-91 7h1v1h-1z" fill="#f6f6f7"/><path fill="#b3cccc" d="M16 22h1v1h-1z"/><path d="M165 22h1v1h-1zm0 5h1v1h-1z" fill="#ebebee"/><path d="M16 14h1v1h-1zm7 3h1v1h-1zm179 0h1v1h-1zm-21 2h1v1h-1zm23 15h1v1h-1z" fill="#f7f8fa"/><path fill="#ebeef1" d="M81 14h1v1h-1z"/><path d="M165 14h1v1h-1zm50 0h1v1h-1zm-76 1h1v1h-1zm-30 1h1v1h-1zm39 0h1v1h-1zm55 0h1v1h-1zm-72 1h1v1h-1zm64 0h1v1h-1zm34 0h1v1h-1zm-120 1h1v1h-1zm126 0h1v1h-1zm-45 2h1v1h-1zM87 22h1v1h-1zm119 0h1v1h-1zM29 23h1v1h-1zm35 1h1v1h-1zm125 1h1v1h-1zm10 0h1v1h-1zm-90 4h1v1h-1zm43 2h1v1h-1zm9 0h1v1h-1zm76 0h1v1h-1zM70 32h1v1h-1zm39 0h1v1h-1zm0 1h1v1h-1zm81 0h1v1h-1z" fill="#f8f8f9"/><path fill="#f0f2f5" d="M225 21h1v1h-1z"/><path d="M16 27h1v1h-1zm60 4h1v1h-1z" fill="#f1f5f5"/><path d="M225 29h1v1h-1zm0 2h1v1h-1z" fill="#f2f2f6"/><path d="M118 8h1v1h-1zm-97 8h1v1h-1zm80 3h1v1h-1zm80 16h1v1h-1z" fill="#f4f7f7"/><path d="M115 9h1v1h-1zm-2 5h1v1h-1zm-13 3h1v1h-1zm89 4h1v1h-1zm-60 8h1v1h-1zm55 0h1v1h-1zm-9 1h1v1h-1zM12 44h1v1h-1z" fill="#f3f5f7"/><path fill="#8ba2b9" d="M37 33h1v1h-1z"/><path d="M132 14h1v1h-1zM18 15h1v1h-1zm170 3h1v1h-1zm-79 1h1v1h-1zm0 4h1v1h-1zm72 0h1v1h-1zm15 0h1v1h-1zm-87 1h1v1h-1zm76 2h1v1h-1zM63 27h1v1h-1zm133 0h1v1h-1zm-87 1h1v1h-1zm63 1h1v1h-1zm-63 2h1v1h-1zm57 1h1v1h-1z" fill="#f8f9f9"/><path d="M129 21h1v1h-1zm-97 3h1v1h-1zm105 12h1v1h-1z" fill="#ddd"/><path fill="#f0f1f4" d="M225 22h1v1h-1z"/><path d="M139 32h1v1h-1zm-64 2h1v1h-1z" fill="#f0f3f3"/><path fill="#f1f3f3" d="M37 44h1v1h-1z"/><path fill="#c4d8d8" d="M93 13h1v1h-1z"/><path fill="#edeff1" d="M112 14h1v1h-1z"/><path d="M148 15h1v1h-1zm78 13h1v1h-1z" fill="#99c"/><path d="M143 23h1v1h-1zm-24 8h1v1h-1zm1 1h1v1h-1zm58 0h1v1h-1zm-30 3h1v1h-1z" fill="#f4f6f8"/><path fill="#f5f6f7" d="M59 31h1v1h-1z"/><path d="M225 8h1v1h-1zm-106 6h1v1h-1zm43 1h1v1h-1zM11 21h1v1h-1zm66 7h1v1h-1zm148 4h1v1h-1zm0 1h1v1h-1z" fill="#f4f4f8"/><path d="M135 13h1v1h-1zM59 23h1v1h-1zm65 3h1v1h-1zm12 6h1v1h-1z" fill="#e3e3e3"/><path d="M70 20h1v1h-1zm-34 9h1v1h-1z" fill="#cfcfdf"/><path fill="#eaeaec" d="M165 20h1v1h-1z"/><path fill="#eaf1f1" d="M64 26h1v1h-1z"/><path fill="#e4eaea" d="M117 35h1v1h-1z"/><path d="M4 1h1v1H4zm148 12h1v1h-1zm-28 14h1v1h-1zm53 0h1v1h-1z" fill="#b3b3cc"/><path fill="#b9b9b9" d="M20 15h1v1h-1z"/><path fill="#e0e6eb" d="M164 19h1v1h-1z"/><path d="M57 25h1v1h-1zm85 0h1v1h-1zm-84 4h1v1h-1z" fill="#fbfdfd"/><path d="M87 7h1v1h-1zm0 1h1v4h-1zm0 4h1v1h-1zm86 2h1v1h-1zm-86 9h1v9h-1zm0 9h1v1h-1z" fill="#f5f6f8"/><path d="M235 14h1v1h-1zm-126 6h1v2h-1zm0 2h1v1h-1zm0 3h1v2h-1zm0 2h1v1h-1zm0 3h1v1h-1zm32 2h1v1h-1zM3 41h1v1H3z" fill="#f6f8f9"/><path d="M153 20h1v1h-1zm44 8h1v1h-1z" fill="#d3d3dc"/><path fill="#e6ebeb" d="M177 29h1v1h-1z"/><path fill="#eaedef" d="M59 30h1v1h-1z"/><path fill="#d6e0e0" d="M173 36h1v1h-1z"/><path d="M12 0h21v1H12zm21 0h1v1h-1z" fill="#f3f4f5"/><path d="M95 17h1v1h-1zM70 31h1v1h-1zm70 1h1v1h-1zm-79 1h1v1h-1zm178 1h1v1h-1zm-83 1h1v1h-1z" fill="#f9fafa"/><path fill="#eaecee" d="M109 14h1v1h-1z"/><path d="M76 17h1v1h-1zm35 0h1v1h-1zm77 13h1v1h-1zm12 1h1v1h-1zm-81 5h1v1h-1zm67 0h1v1h-1z" fill="#c8c8db"/><path d="M71 23h1v1h-1zm-2 8h1v1h-1z" fill="#b6b6db"/><path d="M218 8h1v4h-1zm0 4h1v1h-1zm0 8h1v9h-1zm0 9h1v1h-1z" fill="#dce2e8"/><path d="M158 13h1v1h-1zM56 17h1v1h-1zm131 9h1v1h-1zM56 34h1v1h-1zm99 2h1v1h-1z" fill="#669"/><path fill="#5580aa" d="M114 19h1v1h-1z"/><path fill="#e2e2e8" d="M218 19h1v1h-1z"/><path fill="#eeeef1" d="M123 32h1v1h-1z"/><path fill="#aaaad5" d="M150 36h1v1h-1z"/><path d="M105 8h1v1h-1zm62 1h1v1h-1zm-89 5h1v1h-1zm43 0h1v1h-1zm-29 3h1v1h-1zm27 0h1v1h-1zm87 6h1v1h-1zm-34 5h1v1h-1zm27 0h1v1h-1zM9 32h1v1H9zm124 0h1v1h-1zm-17 2h1v1h-1z" fill="#f1f1f5"/><path d="M196 18h1v1h-1zm-58 14h1v1h-1z" fill="#efefef"/><path fill="#dfe4ea" d="M218 33h1v1h-1z"/><path d="M171 14h1v1h-1zm-94 4h1v1h-1zm49 2h1v1h-1zM18 21h1v1h-1zm15 2h1v1h-1zM1 33h1v1H1zm171 2h1v1h-1z" fill="#fdfefe"/><path d="M121 17h1v1h-1zm1 0h1v1h-1zm43 11h1v1h-1z" fill="#eef0f2"/><path d="M193 15h1v1h-1zM52 18h1v1h-1zm49 3h1v1h-1zM39 43h1v1h-1z" fill="#f8f9fb"/><path fill="#edeff3" d="M123 17h1v1h-1z"/><path d="M211 19h1v1h-1zm-14 5h1v1h-1zm0 1h1v1h-1zm0 5h1v1h-1z" fill="#d5d5df"/><path fill="#edf0f3" d="M8 22h1v1H8z"/><path fill="#e3e3f1" d="M124 32h1v1h-1z"/><path fill="#d2d2d2" d="M127 33h1v1h-1z"/><path d="M87 4h1v1h-1zm88 15h1v1h-1z" fill="#e8ecf0"/><path fill="#dde" d="M190 13h1v1h-1z"/><path fill="#e5e5ec" d="M45 9h1v1h-1z"/><path fill="#d8d8e2" d="M195 16h1v1h-1z"/><path d="M218 7h1v1h-1zm0 6h1v1h-1z" fill="#dcdce2"/><path d="M83 16h1v1h-1zm123 8h1v1h-1zm-15 11h1v1h-1zM1 37h1v1H1z" fill="#fafafa"/><path d="M110 18h1v1h-1zm44 10h1v1h-1z" fill="#8e8eaa"/><path d="M52 20h1v1h-1zm181 1h1v1h-1z" fill="#e6ecec"/><path fill="#d3d3de" d="M234 20h1v1h-1z"/><path fill="#f3f5f8" d="M64 25h1v1h-1z"/><path d="M39 1h1v1h-1zm180 3h1v1h-1zm0 2h1v1h-1zM18 8h1v1h-1zM9 9h1v1H9zm162 1h1v1h-1zm-18 4h1v1h-1zm66 2h1v1h-1zM38 17h1v1h-1zm138 1h1v1h-1zM67 21h1v1h-1zm9 0h1v1h-1zm-42 1h1v1h-1zm64 1h1v1h-1zm27 1h1v1h-1zm-64 2h1v1h-1zm37 0h1v5h-1zm-24 2h1v1h-1zm24 3h1v1h-1zm-37 1h1v1h-1zm142 1h1v1h-1zm-86 1h1v1h-1zm51 0h1v1h-1zm-48 1h1v1h-1zM1 36h1v1H1z" fill="#fcfcfc"/><path d="M83 4h1v1h-1zm11 9h1v1h-1z" fill="#f2f2f2"/><path fill="#f5f7fb" d="M10 44h1v1h-1z"/><path fill="#dfe6ec" d="M97 34h1v1h-1z"/><path fill="#ccd" d="M122 36h1v1h-1z"/><path d="M216 5h1v1h-1zm-59 6h1v1h-1zm51 15h1v1h-1z" fill="#bfbfff"/><path d="M11 6h1v1h-1zm105 3h1v1h-1zm-84 5h1v1h-1zm120 0h1v1h-1zm-19 2h1v1h-1zm-53 1h1v1h-1zm100 1h1v1h-1zm-83 1h1v1h-1zm45 0h1v1h-1zm54 1h1v1h-1zm31 0h1v1h-1zM16 21h1v1h-1zm16 0h1v1h-1zm21 0h1v1h-1zm34 0h1v1h-1zm14 5h1v1h-1zm-66 4h1v1h-1zm-23 1h1v1h-1zm1 0h2v1h-2zm2 0h1v1h-1zm8 0h1v1h-1zm33 0h1v1h-1zm98 0h1v1h-1zm77 2h1v1h-1zm-112 2h1v1h-1zm36 0h1v1h-1zm15 0h1v1h-1z" fill="#fafbfb"/><path fill="#eef4f4" d="M0 9h1v1H0z"/><path fill="#c6c6c6" d="M108 11h1v1h-1z"/><path d="M12 12h1v1h-1zm85 2h1v1h-1zm103 5h1v1h-1z" fill="#eff2f2"/><path fill="#d2e1e1" d="M184 13h1v1h-1z"/><path d="M3 2h1v1H3zm102 14h1v1h-1zm0 17h1v1h-1z" fill="#ededf6"/><path d="M90 5h1v1h-1zm86 6h1v1h-1zm-66 1h1v1h-1zM67 32h1v1h-1zm23 2h1v1h-1z" fill="#00f"/><path fill="#dce5e5" d="M125 30h1v1h-1z"/><path fill="#d6d6dd" d="M35 32h1v1h-1z"/><path d="M160 16h1v1h-1zM8 26h1v1H8zm226 1h1v1h-1zm-83 8h1v1h-1zm3 0h1v1h-1z" fill="#fafcfc"/><path fill="#d7dfe7" d="M207 21h1v1h-1z"/><path fill="#e7efef" d="M168 35h1v1h-1z"/><path fill="#e1e4e8" d="M45 10h1v1h-1z"/><path d="M205 14h1v1h-1zM90 18h1v1h-1zm68 17h1v1h-1z" fill="#bcc"/><path d="M130 19h1v1h-1zm8 0h1v1h-1z" fill="#6d6d92"/><path fill="#ccd9d9" d="M159 23h1v1h-1z"/><path fill="#e4e4e8" d="M45 33h1v1h-1z"/><path d="M112 11h1v1h-1zm91 2h1v1h-1zm-69 6h1v1h-1zm1 0h1v1h-1zM22 25h1v1h-1zm10 1h1v1h-1zm22 8h1v1h-1z" fill="gray"/><path d="M79 23h1v1h-1zm-6 5h1v1h-1z" fill="#006"/><path d="M44 5h1v1h-1zm162 9h1v1h-1zM70 21h1v1h-1zm112 1h1v1h-1zM24 28h1v1h-1zm7 1h1v1h-1zm205 0h1v1h-1zm-23 1h1v1h-1zm-37 1h1v1h-1z" fill="#f1f1f4"/><path d="M235 19h1v1h-1zM126 32h1v1h-1z" fill="#8080aa"/><path d="M61 23h1v1h-1zM7 44h1v1H7z" fill="#e2e9e9"/><path fill="#dfdfe7" d="M177 30h1v1h-1z"/><path fill="#aac6c6" d="M141 31h1v1h-1z"/><path fill="#e1e1ed" d="M12 32h1v1h-1z"/><g fill="#fff"><path d="M3 0h1v1H3zm39 0h1v1h-1zM2 1h1v1H2zm5 0h31v2H7zm31 0h1v13h-1zm5 0h1v1h-1zM1 2h1v1H1zm4 0h1v1H5zm1 0h1v6H6zm33 0h1v13h-1zm1 0h1v3h-1zm4 0h1v1h-1zm39 0h1v1h-1zm1 0h2v1h-2zm2 0h1v1h-1zm1 0h1v1h-1zm131 0h1v1h-1zm1 0h5v1h-5zm5 0h1v1h-1zm1 0h1v1h-1zM0 3h1v1H0zm4 0h1v1H4zm1 0h1v1H5zm2 0h31v1H7zm34 0h1v1h-1zm4 0h1v1h-1zm37 0h1v1h-1zm6 0h1v1h-1zm19 0h1v1h-1zm1 0h1v1h-1zm109 0h1v1h-1zm9 0h1v1h-1zM0 4h1v1H0zm3 0h1v1H3zm1 0h1v1H4zm1 0h1v1H5zm2 0h2v1H7zm2 0h1v3H9zm1 0h1v1h-1zm1 0h2v1h-2zm2 0h1v1h-1zm1 0h1v1h-1z"/><path d="M15 4h25v1H15zm26 0h1v1h-1zm1 0h1v1h-1zm4 0h1v1h-1zm35 0h1v1h-1zm25 0h1v1h-1zm3 0h1v1h-1zm107 0h1v1h-1zm4 0h1v1h-1zm1 0h1v1h-1zm1 0h1v1h-1zm1 0h1v1h-1zm1 0h1v1h-1zm3 0h1v1h-1zM3 5h5v1H3zm5 0h1v6H8zm2 0h1v1h-1zm1 0h3v1h-3zm3 0h1v1h-1zm1 0h1v1h-1zm1 0h1v1h-1zm1 0h23v1H17zm23 0h1v11h-1zm1 0h1v1h-1zm1 0h1v2h-1zm1 0h1v33h-1zm3 0h1v1h-1zm35 0h1v6h-1zm2 0h1v1h-1zm1 0h2v1h-2zm2 0h1v12h-1zm3 0h1v6h-1zm21 0h1v1h-1zm110 0h4v1h-4zm4 0h1v17h-1zm3 0h1v8h-1zM2 6h5v1H2z"/><path d="M7 6h3v1H7zm3 0h1v1h-1zm4 0h2v1h-2zm2 0h1v1h-1zm1 0h1v1h-1zm2 0h1v1h-1zm1 0h19v1H20zm21 0h2v1h-2zm6 0h1v1h-1zm36 0h1v8h-1zm1 0h1v1h-1zm1 0h1v26h-1zm18 0h1v1h-1zm8 0h1v1h-1zm5 0h1v1h-1zm1 0h1v1h-1zm1 0h1v1h-1zm51 0h1v1h-1zm1 0h1v1h-1zm1 0h1v1h-1zm1 0h1v1h-1zm48 0h1v28h-1zm1 0h1v1h-1zm1 0h1v1h-1zm1 0h1v1h-1zM2 7h4v1H2zm5 0h1v1H7zm2 0h1v1H9zm8 0h1v1h-1zm1 0h1v1h-1zm1 0h2v1h-2zm2 0h1v1h-1zm1 0h19v1H22zm19 0h2v1h-2zm6 0h1v1h-1zm37 0h1v1h-1zm19 0h1v2h-1zm3 0h2v2h-2zm2 0h1v2h-1zm4 0h1v1h-1zm3 0h1v1h-1zm5 0h1v1h-1zm45 0h1v1h-1zm1 0h1v1h-1zm1 0h1v1h-1zm1 0h1v1h-1zm5 0h1v1h-1zm48 0h1v1h-1zm2 0h1v1h-1zM2 8h4v1H2zm4 0h2v1H6zm6 0h1v1h-1zm7 0h2v1h-2zm2 0h1v1h-1zm1 0h1v1h-1zm1 0h1v1h-1zm1 0h17v1H24zm17 0h2v1h-2zm6 0h1v28h-1zm62 0h1v1h-1zm3 0h1v2h-1zm7 0h1v1h-1zm2 0h1v1h-1zm53 0h1v1h-1zm47 0h1v24h-1zm1 0h2v1h-2zM2 9h3v1H2zm3 0h1v10H5zm2 0h1v1H7zm4 0h1v1h-1zm2 0h1v1h-1zm1 0h1v2h-1zm7 0h2v1h-2zm2 0h1v1h-1zm1 0h1v1h-1zm1 0h1v1h-1zm1 0h1v1h-1zm1 0h14v1H27zm14 0h2v1h-2zm62 0h1v1h-1zm3 0h2v1h-2zm2 0h1v1h-1zm9 0h1v5h-1zm2 0h1v1h-1zm2 0h1v1h-1zm53 0h1v1h-1zm48 0h2v1h-2z"/><path d="M2 10h4v1H2zm4 0h2v9H6zm7 0h1v1h-1zm2 0h1v1h-1zm1 0h1v2h-1zm1 0h1v1h-1zm7 0h1v1h-1zm1 0h1v1h-1zm1 0h2v1h-2zm2 0h1v1h-1zm1 0h12v1H29zm12 0h2v1h-2zm62 0h1v1h-1zm9 0h1v1h-1zm4 0h1v4h-1zm2 0h1v1h-1zm1 0h1v1h-1zm2 0h1v1h-1zm42 0h1v1h-1zm4 0h3v1h-3zm3 0h1v4h-1zm4 0h1v2h-1zm48 0h2v1h-2zM2 11h4v1H2zm6 0h1v7H8zm1 0h1v1H9zm5 0h1v1h-1zm1 0h1v1h-1zm3 0h1v1h-1zm1 0h1v1h-1zm7 0h2v1h-2zm2 0h1v1h-1zm1 0h1v1h-1zm1 0h1v1h-1zm1 0h10v1H31zm10 0h2v1h-2zm40 0h1v1h-1zm8 0h1v1h-1zm3 0h1v1h-1zm2 0h1v1h-1zm1 0h1v1h-1zm9 0h1v2h-1zm14 0h1v1h-1zm1 0h1v1h-1zm2 0h1v1h-1zm11 0h1v1h-1zm1 0h1v1h-1zm1 0h1v1h-1zm1 0h1v1h-1zm1 0h1v1h-1zm16 0h1v1h-1zm1 0h3v1h-3zm3 0h1v1h-1zm2 0h1v1h-1zm5 0h1v1h-1zm3 0h1v3h-1zm1 0h1v2h-1zm1 0h1v1h-1zm15 0h1v1h-1zm1 0h1v1h-1zm1 0h4v1h-4zm4 0h1v1h-1zm1 0h1v1h-1zm18 0h1v1h-1zm2 0h2v1h-2zm2 0h1v1h-1zm2 0h1v1h-1zm2 0h1v1h-1zm6 0h2v1h-2zm10 0h6v1h-6zm6 0h1v1h-1z"/><path d="M2 12h5v1H2zm7 0h1v5H9zm1 0h1v1h-1zm6 0h1v1h-1zm1 0h1v1h-1zm1 0h2v1h-2zm2 0h1v1h-1zm1 0h1v1h-1zm8 0h1v1h-1zm1 0h1v1h-1zm1 0h1v1h-1zm1 0h1v1h-1zm1 0h1v1h-1zm1 0h7v1h-7zm7 0h2v1h-2zm10 0h1v1h-1zm1 0h2v1h-2zm2 0h1v1h-1zm1 0h1v1h-1zm9 0h1v1h-1zm1 0h2v1h-2zm2 0h1v1h-1zm1 0h1v1h-1zm9 0h1v1h-1zm1 0h2v1h-2zm2 0h1v1h-1zm1 0h1v1h-1zm3 0h1v1h-1zm7 0h1v1h-1zm5 0h2v1h-2zm2 0h1v1h-1zm7 0h1v1h-1zm1 0h1v1h-1zm3 0h1v1h-1zm3 0h1v1h-1zm1 0h1v1h-1zm5 0h1v1h-1zm1 0h1v1h-1zm2 0h1v1h-1zm1 0h1v1h-1zm1 0h1v1h-1zm1 0h1v1h-1zm7 0h1v1h-1zm6 0h1v1h-1zm2 0h1v1h-1zm11 0h1v1h-1zm1 0h1v1h-1zm8 0h1v1h-1zm1 0h1v1h-1zm1 0h1v1h-1zm2 0h1v1h-1zm5 0h2v1h-2zm6 0h1v1h-1zm6 0h1v1h-1zm1 0h1v1h-1zm1 0h1v1h-1zm9 0h2v1h-2zm2 0h1v1h-1zm12 0h2v1h-2zm2 0h1v1h-1zm8 0h1v1h-1zm1 0h1v1h-1zm6 0h2v1h-2zm8 0h1v1h-1zm1 0h1v1h-1zm6 0h1v1h-1zM2 13h6v1H2zm8 0h2v4h-2zm2 0h1v1h-1zm7 0h1v1h-1zm1 0h1v1h-1zm2 0h1v1h-1zm1 0h1v2h-1zm1 0h1v1h-1zm7 0h1v1h-1zm1 0h1v1h-1zm1 0h1v1h-1zm1 0h1v1h-1zm2 0h5v1h-5zm5 0h2v1h-2zm15 0h1v1h-1zm7 0h1v1h-1zm6 0h1v1h-1zm7 0h1v1h-1zm8 0h1v5h-1zm5 0h1v1h-1zm10 0h1v1h-1zm5 0h1v1h-1zm14 0h1v1h-1zm7 0h1v1h-1zm3 0h1v1h-1zm1 0h1v1h-1zm11 0h1v1h-1zm8 0h1v1h-1zm1 0h1v1h-1zm6 0h1v1h-1zm12 0h1v1h-1zm1 0h2v4h-2zm11 0h1v1h-1zm8 0h1v1h-1zm7 0h1v1h-1zm10 0h1v1h-1zm18 0h2v1h-2zm5 0h1v1h-1zm2 0h1v1h-1zM2 14h7v1H2zm10 0h1v1h-1zm1 0h1v3h-1zm1 0h1v1h-1zm7 0h1v1h-1zm4 0h1v1h-1zm1 0h1v1h-1zm7 0h2v1h-2zm2 0h1v1h-1zm1 0h1v1h-1zm1 0h1v1h-1zm1 0h3v1h-3zm3 0h2v1h-2zm16 0h1v1h-1zm5 0h1v1h-1zm8 0h1v1h-1zm5 0h1v2h-1zm8 0h1v1h-1zm17 0h1v1h-1zm3 0h1v1h-1zm13 0h1v1h-1zm1 0h1v1h-1zm9 0h1v2h-1zm1 0h1v1h-1zm14 0h1v1h-1zm6 0h1v1h-1zm8 0h1v1h-1zm11 0h2v2h-2zm4 0h1v14h-1zm17 0h1v1h-1zm8 0h1v1h-1zm7 0h1v1h-1zm20 0h2v1h-2zm5 0h1v1h-1zm1 0h1v1h-1z"/><path d="M2 15h9v1H2zm10 0h1v1h-1zm2 0h1v1h-1zm1 0h1v3h-1zm1 0h1v1h-1zm7 0h1v1h-1zm1 0h1v1h-1zm1 0h2v1h-2zm2 0h2v1h-2zm2 0h1v1h-1zm7 0h1v1h-1zm1 0h4v1h-4zm4 0h2v1h-2zm8 0h1v1h-1zm3 0h2v1h-2zm2 0h1v3h-1zm3 0h1v1h-1zm5 0h1v1h-1zm3 0h2v1h-2zm2 0h1v4h-1zm3 0h1v1h-1zm8 0h2v2h-2zm2 0h1v1h-1zm3 0h1v1h-1zm8 0h6v1h-6zm6 0h1v1h-1zm4 0h2v1h-2zm2 0h1v2h-1zm4 0h1v17h-1zm1 0h1v19h-1zm5 0h2v1h-2zm2 0h1v1h-1zm1 0h1v1h-1zm1 0h1v1h-1zm1 0h5v1h-5zm5 0h1v1h-1zm8 0h7v1h-7zm7 0h1v2h-1zm4 0h1v1h-1zm9 0h8v1h-8zm8 0h1v3h-1zm4 0h2v2h-2zm2 0h4v1h-4zm6 0h4v1h-4zm4 0h1v3h-1zm1 0h1v1h-1zm6 0h10v1h-10zm10 0h1v1h-1zm4 0h1v1h-1zm5 0h1v1h-1zm5 0h9v1h-9zm9 0h1v1h-1zm7 0h2v1h-2zm5 0h1v1h-1zm1 0h1v1h-1zm3 0h6v1h-6zm6 0h1v1h-1zM2 16h11v1H2zm12 0h1v1h-1zm2 0h1v1h-1zm1 0h2v2h-2zm2 0h1v1h-1zm7 0h1v1h-1zm1 0h1v1h-1zm3 0h1v1h-1zm1 0h1v1h-1zm7 0h3v1h-3zm3 0h2v1h-2zm8 0h1v1h-1zm3 0h2v1h-2zm5 0h1v1h-1zm1 0h1v1h-1zm3 0h1v1h-1zm4 0h2v1h-2zm6 0h1v1h-1zm4 0h1v1h-1zm15 0h2v1h-2zm2 0h3v1h-3zm3 0h1v1h-1zm1 0h1v1h-1zm1 0h1v1h-1zm1 0h1v1h-1zm4 0h1v1h-1zm11 0h2v1h-2zm2 0h1v1h-1zm1 0h1v1h-1zm1 0h1v1h-1zm1 0h5v1h-5zm5 0h1v1h-1zm3 0h1v1h-1zm3 0h2v1h-2zm2 0h1v1h-1z"/><path d="M137 16h2v1h-2zm2 0h1v2h-1zm6 0h1v1h-1zm4 0h1v1h-1zm1 0h1v2h-1zm1 0h1v1h-1zm1 0h1v1h-1zm1 0h3v1h-3zm3 0h1v1h-1zm1 0h1v1h-1zm8 0h1v1h-1zm1 0h4v1h-4zm5 0h1v2h-1zm1 0h1v1h-1zm2 0h1v1h-1zm2 0h1v1h-1zm1 0h1v1h-1zm3 0h1v1h-1zm1 0h1v2h-1zm1 0h1v1h-1zm1 0h1v1h-1zm1 0h1v1h-1zm1 0h2v1h-2zm2 0h1v1h-1zm1 0h1v1h-1zm2 0h2v1h-2zm2 0h1v1h-1zm1 0h1v1h-1zm4 0h1v1h-1zm3 0h1v1h-1zm4 0h1v1h-1zm1 0h1v2h-1zm1 0h1v1h-1zm1 0h2v1h-2zm2 0h1v1h-1zm1 0h1v1h-1zm2 0h1v1h-1zm1 0h1v1h-1zm1 0h1v1h-1zm8 0h2v1h-2zm5 0h1v1h-1zm4 0h1v1h-1zm1 0h1v1h-1zm1 0h1v1h-1zm2 0h1v1h-1zm1 0h1v1h-1zM2 17h13v1H2zm17 0h1v2h-1zm1 0h1v1h-1zm1 0h1v1h-1zm7 0h1v1h-1zm1 0h1v1h-1zm3 0h1v1h-1zm1 0h1v1h-1zm6 0h2v1h-2zm2 0h2v1h-2zm8 0h1v1h-1zm4 0h1v2h-1zm5 0h1v1h-1zm3 0h1v1h-1zm4 0h2v1h-2zm13 0h1v4h-1zm1 0h1v1h-1zm4 0h1v1h-1zm3 0h1v1h-1zm3 0h1v1h-1zm7 0h1v1h-1zm1 0h1v1h-1zm1 0h1v1h-1zm1 0h1v1h-1zm3 0h1v1h-1zm1 0h1v1h-1zm13 0h1v15h-1zm1 0h1v13h-1zm11 0h2v1h-2zm2 0h1v1h-1z"/><path d="M138 17h2v1h-2zm2 0h1v4h-1zm4 0h1v2h-1zm1 0h1v1h-1zm3 0h1v1h-1zm1 0h1v1h-1zm2 0h8v1h-8zm12 0h2v1h-2zm2 0h8v1h-8zm8 0h2v1h-2zm3 0h1v1h-1zm6 0h7v1h-7zm7 0h2v1h-2zm2 0h1v4h-1zm2 0h1v1h-1zm1 0h1v1h-1zm4 0h1v1h-1zm1 0h1v1h-1zm4 0h1v1h-1zm1 0h1v1h-1zm2 0h1v1h-1zm1 0h1v2h-1zm2 0h1v1h-1zm1 0h4v1h-4zm4 0h1v1h-1zm8 0h2v1h-2zm5 0h1v1h-1zm3 0h2v1h-2zm2 0h1v1h-1zm1 0h1v1h-1zm1 0h1v1h-1zm1 0h1v1h-1zm4 0h1v1h-1zM2 18h6v1H2zm6 0h1v2H8zm1 0h4v1H9zm4 0h1v1h-1zm1 0h4v2h-4zm4 0h1v2h-1zm2 0h1v1h-1zm1 0h1v2h-1zm1 0h1v1h-1zm1 0h1v1h-1zm7 0h1v1h-1zm2 0h2v1h-2zm2 0h1v1h-1zm1 0h1v1h-1zm1 0h1v1h-1zm3 0h2v1h-2zm2 0h2v1h-2zm8 0h1v1h-1zm5 0h1v4h-1zm4 0h1v1h-1zm3 0h1v1h-1zm3 0h1v4h-1zm4 0h1v5h-1zm3 0h1v1h-1zm3 0h1v1h-1zm5 0h1v1h-1zm4 0h1v14h-1zm1 0h1v1h-1zm2 0h1v1h-1zm1 0h1v1h-1zm1 0h1v1h-1zm9 0h2v1h-2zm2 0h1v1h-1zm4 0h1v1h-1zm16 0h1v1h-1zm8 0h2v1h-2zm2 0h1v1h-1z"/><path d="M139 18h2v1h-2zm2 0h1v2h-1zm7 0h2v1h-2zm2 0h2v1h-2zm2 0h1v1h-1zm7 0h1v1h-1zm4 0h1v1h-1zm3 0h1v12h-1zm3 0h1v1h-1zm2 0h1v1h-1zm4 0h1v1h-1zm6 0h1v1h-1zm9 0h2v1h-2zm2 0h2v1h-2zm2 0h1v1h-1zm4 0h1v1h-1zm4 0h1v1h-1zm1 0h1v1h-1zm2 0h1v1h-1zm3 0h1v1h-1zm1 0h1v1h-1zm5 0h1v1h-1zm8 0h2v1h-2zm7 0h1v1h-1zm1 0h1v1h-1zm1 0h1v1h-1zm2 0h1v1h-1zm1 0h1v1h-1zm4 0h1v1h-1zM2 19h5v1H2zm5 0h1v3H7zm2 0h1v1H9zm1 0h1v1h-1zm1 0h1v1h-1zm1 0h1v1h-1zm1 0h1v1h-1zm6 0h1v1h-1zm1 0h1v1h-1zm2 0h1v1h-1zm1 0h1v1h-1zm1 0h2v2h-2zm2 0h1v2h-1zm7 0h1v1h-1zm3 0h1v1h-1zm3 0h1v2h-1zm1 0h1v1h-1zm1 0h1v1h-1zm9 0h1v1h-1zm3 0h2v1h-2zm2 0h1v7h-1zm3 0h1v1h-1zm2 0h1v1h-1zm7 0h1v1h-1zm4 0h1v1h-1zm3 0h1v1h-1zm3 0h1v5h-1zm7 0h1v2h-1zm2 0h1v1h-1zm1 0h1v1h-1zm4 0h1v1h-1zm1 0h1v1h-1zm1 0h1v1h-1zm1 0h1v1h-1zm4 0h2v1h-2zm2 0h1v15h-1zm3 0h1v1h-1zm9 0h1v1h-1zm6 0h1v8h-1zm1 0h1v1h-1zm2 0h1v1h-1zm1 0h1v1h-1zm1 0h1v2h-1zm4 0h1v3h-1zm1 0h1v1h-1zm4 0h1v1h-1zm1 0h1v1h-1zm3 0h1v1h-1zm8 0h1v1h-1zm3 0h1v2h-1zm1 0h1v1h-1zm1 0h1v2h-1zm1 0h1v1h-1zm1 0h1v1h-1zm16 0h1v1h-1zm1 0h2v1h-2zm10 0h1v1h-1zm14 0h1v2h-1zm1 0h2v1h-2zm2 0h1v15h-1zm3 0h1v1h-1zm3 0h1v2h-1zm1 0h1v1h-1zm1 0h1v1h-1zm1 0h1v1h-1zm1 0h1v1h-1zm1 0h1v1h-1zm1 0h1v1h-1zm16 0h1v2h-1zm6 0h2v1h-2zm2 0h2v1h-2zm2 0h1v1h-1zm4 0h1v1h-1zM2 20h2v1H2zm2 0h2v1H4z"/><path d="M6 20h3v1H6zm3 0h10v1H9zm10 0h1v1h-1zm1 0h1v1h-1zm1 0h1v1h-1zm1 0h1v1h-1zm1 0h1v1h-1zm4 0h1v2h-1zm1 0h1v2h-1zm7 0h1v1h-1zm5 0h1v1h-1zm1 0h2v1h-2zm9 0h1v1h-1zm8 0h1v1h-1zm2 0h1v1h-1zm13 0h1v1h-1zm13 0h1v14h-1zm4 0h1v1h-1zm5 0h1v1h-1zm3 0h2v1h-2zm5 0h1v1h-1zm16 0h1v8h-1zm2 0h1v2h-1zm7 0h1v1h-1zm3 0h1v1h-1zm2 0h2v1h-2zm2 0h1v1h-1zm2 0h1v1h-1zm4 0h1v1h-1zm7 0h1v1h-1zm3 0h1v1h-1zm4 0h1v1h-1zm1 0h1v1h-1zm1 0h1v1h-1zm4 0h1v1h-1zm6 0h1v8h-1zm1 0h2v1h-2zm25 0h2v1h-2zm9 0h1v1h-1zm1 0h1v2h-1zm1 0h2v1h-2zm2 0h1v1h-1zm16 0h2v1h-2zm6 0h2v1h-2zm2 0h2v1h-2zm2 0h1v1h-1zm4 0h1v1h-1zM2 21h3v1H2zm3 0h2v1H5zm14 0h7v1h-7zm7 0h1v1h-1zm3 0h1v1h-1zm1 0h1v1h-1zm8 0h1v1h-1zm1 0h2v2h-2zm2 0h2v1h-2zm9 0h1v1h-1zm9 0h1v1h-1zm1 0h1v1h-1zm3 0h1v4h-1zm9 0h1v1h-1zm1 0h1v1h-1zm5 0h1v1h-1zm3 0h1v2h-1zm3 0h1v1h-1zm6 0h1v1h-1zm5 0h1v13h-1zm3 0h2v1h-2zm5 0h1v1h-1zm20 0h1v1h-1zm3 0h1v8h-1zm14 0h2v1h-2zm2 0h1v3h-1zm5 0h1v1h-1zm1 0h1v1h-1zm1 0h1v1h-1zm1 0h1v1h-1zm1 0h1v1h-1zm1 0h1v2h-1zm6 0h1v1h-1zm5 0h1v1h-1zm5 0h2v1h-2zm6 0h1v1h-1zm1 0h1v1h-1zm1 0h1v1h-1zm4 0h1v1h-1zm11 0h2v1h-2zm2 0h2v1h-2zm8 0h2v1h-2zm3 0h1v1h-1zm1 0h1v2h-1zm4 0h1v1h-1zm1 0h1v1h-1zm1 0h1v1h-1zm1 0h1v1h-1zm1 0h1v1h-1zm1 0h1v1h-1zm1 0h1v1h-1zm1 0h1v1h-1zm7 0h1v1h-1zm4 0h1v1h-1zm1 0h1v1h-1zm1 0h1v1h-1zm1 0h1v1h-1zm1 0h1v1h-1zm4 0h1v1h-1zM2 22h2v1H2zm2 0h3v1H4zm3 0h1v1H7zm20 0h6v1h-6zm6 0h1v1h-1zm4 0h1v1h-1z"/><path d="M38 22h3v1h-3zm3 0h2v1h-2zm10 0h1v1h-1zm3 0h1v1h-1zm10 0h1v1h-1zm5 0h1v4h-1zm3 0h1v1h-1zm1 0h1v1h-1zm3 0h1v5h-1zm13 0h1v12h-1zm10 0h1v10h-1zm4 0h1v1h-1zm18 0h1v1h-1zm1 0h1v1h-1zm5 0h1v1h-1zm14 0h1v1h-1zm7 0h2v1h-2zm2 0h1v1h-1zm1 0h1v1h-1zm2 0h1v2h-1zm7 0h1v1h-1zm3 0h1v2h-1zm5 0h2v1h-2zm6 0h1v1h-1zm5 0h1v1h-1zm7 0h4v2h-4zm4 0h3v1h-3zm3 0h2v1h-2zm7 0h1v6h-1zm1 0h1v1h-1zm1 0h1v1h-1zm1 0h2v1h-2zm5 0h1v1h-1zm15 0h1v1h-1zm1 0h1v3h-1zm3 0h1v1h-1zm1 0h1v1h-1zm1 0h1v1h-1zm1 0h1v1h-1zm4 0h1v1h-1zM2 23h2v1H2zm2 0h2v1H4zm2 0h1v2H6zm5 0h2v1h-2zm2 0h1v1h-1zm1 0h1v2h-1zm20 0h3v1h-3zm3 0h4v1h-4zm4 0h2v1h-2zm10 0h1v1h-1zm5 0h1v6h-1zm12 0h1v1h-1zm5 0h1v1h-1zm8 0h1v1h-1zm3 0h1v1h-1zm37 0h1v4h-1zm6 0h1v1h-1zm13 0h1v1h-1zm1 0h1v1h-1zm4 0h1v2h-1zm3 0h1v1h-1zm1 0h1v1h-1zm1 0h1v1h-1zm1 0h1v2h-1z"/><path d="M152 23h4v1h-4zm4 0h1v1h-1zm5 0h2v1h-2zm7 0h2v1h-2zm6 0h1v3h-1zm4 0h1v1h-1zm4 0h3v1h-3zm3 0h1v2h-1zm5 0h1v1h-1zm1 0h2v1h-2zm2 0h2v1h-2zm8 0h1v1h-1zm1 0h1v3h-1zm1 0h1v1h-1zm1 0h1v1h-1zm1 0h1v1h-1zm3 0h1v2h-1zm14 0h1v7h-1zm1 0h1v3h-1zm3 0h2v1h-2zm2 0h2v1h-2zm2 0h1v3h-1zm4 0h1v1h-1zM2 24h2v1H2zm2 0h2v2H4zm7 0h1v1h-1zm4 0h1v1h-1zm1 0h1v1h-1zm1 0h1v1h-1zm1 0h2v1h-2zm2 0h1v1h-1zm1 0h1v1h-1zm17 0h3v1h-3zm3 0h2v1h-2zm10 0h1v1h-1zm8 0h1v1h-1zm3 0h1v4h-1zm15 0h1v1h-1zm3 0h1v1h-1zm42 0h1v2h-1zm5 0h1v1h-1zm1 0h14v1h-14zm14 0h1v1h-1zm7 0h1v1h-1zm1 0h2v1h-2zm2 0h2v1h-2zm2 0h2v1h-2zm2 0h1v1h-1zm1 0h1v2h-1zm1 0h1v3h-1zm4 0h1v1h-1zm1 0h1v1h-1zm5 0h2v1h-2zm9 0h1v1h-1zm4 0h1v1h-1zm1 0h1v1h-1zm1 0h1v1h-1zm3 0h4v1h-4zm4 0h3v1h-3zm3 0h2v1h-2zm8 0h1v1h-1zm2 0h1v1h-1zm1 0h1v1h-1zm21 0h1v3h-1zm1 0h1v1h-1zm2 0h1v3h-1z"/><path d="M229 24h2v1h-2zm2 0h1v1h-1zm4 0h1v1h-1zM2 25h2v1H2zm4 0h1v6H6zm7 0h1v1h-1zm1 0h1v1h-1zm1 0h2v1h-2zm2 0h1v1h-1zm1 0h2v1h-2zm2 0h1v1h-1zm1 0h1v1h-1zm2 0h2v1h-2zm2 0h1v1h-1zm1 0h2v1h-2zm2 0h1v1h-1zm1 0h1v1h-1zm1 0h1v1h-1zm9 0h2v1h-2zm2 0h2v1h-2zm11 0h1v1h-1zm11 0h1v1h-1zm3 0h1v1h-1zm4 0h1v4h-1zm10 0h1v1h-1zm1 0h1v1h-1zm46 0h1v3h-1zm18 0h1v1h-1zm1 0h1v1h-1zm4 0h2v1h-2zm2 0h1v1h-1zm1 0h1v1h-1zm1 0h1v1h-1zm1 0h1v2h-1zm1 0h1v2h-1zm3 0h1v1h-1zm4 0h1v1h-1zm5 0h2v1h-2zm8 0h1v1h-1zm4 0h1v1h-1zm1 0h1v1h-1zm1 0h1v1h-1zm2 0h1v1h-1zm1 0h1v1h-1zm6 0h2v1h-2zm2 0h2v1h-2zm8 0h1v1h-1zm2 0h1v1h-1zm1 0h1v1h-1zm4 0h1v1h-1zm16 0h1v1h-1zm2 0h2v1h-2zm3 0h1v1h-1zm2 0h1v1h-1zm1 0h1v1h-1zm3 0h1v1h-1zM2 26h3v1H2z"/><path d="M5 26h2v5H5zm2 0h1v4H7zm14 0h1v1h-1zm1 0h1v1h-1zm1 0h2v1h-2zm2 0h1v1h-1zm1 0h1v1h-1zm1 0h1v1h-1zm1 0h1v1h-1zm3 0h1v1h-1zm2 0h1v1h-1zm1 0h1v1h-1zm1 0h1v1h-1zm1 0h1v1h-1zm3 0h1v2h-1zm1 0h1v1h-1zm12 0h1v1h-1zm3 0h1v1h-1zm11 0h1v1h-1zm3 0h1v1h-1zm6 0h1v5h-1zm5 0h1v1h-1zm1 0h1v8h-1zm41 0h1v1h-1zm25 0h1v1h-1zm6 0h1v1h-1zm1 0h1v1h-1zm3 0h1v1h-1zm2 0h1v1h-1zm1 0h1v6h-1zm3 0h1v1h-1zm5 0h2v1h-2zm6 0h1v1h-1zm2 0h1v1h-1zm3 0h1v6h-1zm1 0h1v1h-1zm1 0h1v3h-1zm2 0h1v1h-1zm1 0h1v1h-1zm7 0h1v3h-1zm1 0h1v1h-1zm1 0h1v1h-1zm1 0h1v1h-1zm7 0h1v1h-1zm1 0h1v1h-1zm1 0h1v1h-1zm1 0h1v2h-1zm1 0h1v2h-1zm18 0h3v1h-3zm3 0h2v1h-2zm3 0h1v1h-1zm1 0h3v1h-3zm3 0h1v1h-1zm3 0h1v1h-1zM2 27h2v1H2z"/><path d="M4 27h2v5H4zm4 0h1v2H8zm1 0h1v1H9zm20 0h1v1h-1zm1 0h2v1h-2zm2 0h1v1h-1zm1 0h1v1h-1zm1 0h1v1h-1zm2 0h1v1h-1zm4 0h1v1h-1zm1 0h1v1h-1zm11 0h1v1h-1zm5 0h1v5h-1zm4 0h1v4h-1zm5 0h1v1h-1zm10 0h1v1h-1zm3 0h1v1h-1zm39 0h1v1h-1zm3 0h1v2h-1zm1 0h1v1h-1zm25 0h1v1h-1zm1 0h1v1h-1zm7 0h1v1h-1zm1 0h1v1h-1zm1 0h1v1h-1zm1 0h2v1h-2zm10 0h2v1h-2zm7 0h1v1h-1zm7 0h1v1h-1zm1 0h1v3h-1zm5 0h1v1h-1zm4 0h1v1h-1zm1 0h1v1h-1zm8 0h1v1h-1zm1 0h1v1h-1zm1 0h2v3h-2zm5 0h1v1h-1zm1 0h1v1h-1zm14 0h1v1h-1zm1 0h1v1h-1zm1 0h1v1h-1zm3 0h1v1h-1zm1 0h1v1h-1zm1 0h1v1h-1zm1 0h2v1h-2zm2 0h1v1h-1zm4 0h1v1h-1z"/><path d="M2 28h5v1H2zm7 0h7v2H9zm7 0h1v2h-1zm23 0h2v1h-2zm2 0h2v1h-2zm11 0h1v1h-1zm10 0h1v1h-1zm3 0h1v1h-1zm1 0h1v1h-1zm5 0h1v4h-1zm8 0h1v1h-1zm39 0h1v1h-1zm1 0h1v1h-1zm4 0h1v1h-1zm4 0h1v3h-1zm4 0h1v1h-1zm1 0h1v1h-1zm1 0h9v1h-9zm9 0h1v1h-1zm1 0h1v1h-1zm6 0h1v1h-1zm1 0h1v1h-1zm1 0h1v1h-1zm5 0h1v3h-1zm1 0h2v1h-2zm2 0h1v1h-1zm8 0h1v1h-1zm1 0h2v1h-2zm2 0h1v1h-1zm4 0h1v1h-1zm1 0h1v1h-1zm5 0h2v1h-2zm2 0h1v1h-1zm4 0h2v1h-2zm2 0h1v1h-1zm4 0h1v1h-1zm1 0h2v1h-2zm7 0h1v1h-1zm1 0h2v1h-2zm4 0h1v3h-1zm4 0h1v1h-1zm2 0h3v1h-3zm3 0h2v1h-2zm2 0h1v1h-1zm7 0h1v4h-1zm1 0h1v6h-1zm5 0h2v1h-2zm2 0h1v1h-1zm2 0h1v1h-1zm1 0h1v1h-1zm4 0h1v1h-1zM2 29h6v1H2zm6 0h1v2H8zm9 0h6v1h-6zm6 0h1v1h-1zm15 0h1v1h-1zm1 0h1v1h-1zm1 0h2v1h-2zm2 0h1v1h-1zm11 0h1v1h-1zm3 0h1v1h-1zm9 0h2v1h-2zm2 0h1v1h-1zm3 0h1v1h-1zm14 0h1v2h-1zm28 0h1v1h-1zm9 0h1v1h-1zm2 0h1v1h-1z"/><path d="M126 29h2v1h-2zm2 0h1v1h-1zm3 0h1v1h-1zm10 0h1v1h-1zm5 0h1v1h-1zm6 0h1v1h-1zm1 0h1v1h-1zm4 0h1v1h-1zm1 0h1v1h-1zm1 0h1v1h-1zm8 0h1v1h-1zm2 0h1v1h-1zm1 0h1v1h-1zm1 0h1v1h-1zm10 0h1v1h-1zm1 0h1v1h-1zm4 0h1v1h-1zm1 0h1v1h-1zm4 0h2v1h-2zm2 0h2v1h-2zm8 0h3v1h-3zm5 0h1v3h-1zm10 0h1v1h-1zm13 0h1v1h-1zm1 0h2v1h-2zm2 0h1v1h-1zm1 0h1v1h-1zm1 0h1v1h-1zm1 0h1v1h-1zm3 0h1v1h-1zM2 30h5v1H2zm5 0h25v1H7zm25 0h1v1h-1zm5 0h1v1h-1zm1 0h3v1h-3zm3 0h2v1h-2zm12 0h1v1h-1zm12 0h1v1h-1zm2 0h1v1h-1zm7 0h1v4h-1zm4 0h1v1h-1zm1 0h1v1h-1zm33 0h1v1h-1zm5 0h1v1h-1zm4 0h1v1h-1zm2 0h1v1h-1zm5 0h1v2h-1zm4 0h1v1h-1zm1 0h1v1h-1zm1 0h1v1h-1zm1 0h1v1h-1zm1 0h1v1h-1zm1 0h1v1h-1zm1 0h1v1h-1zm1 0h1v1h-1zm1 0h1v1h-1zm4 0h1v1h-1zm13 0h1v1h-1zm1 0h1v1h-1zm8 0h1v1h-1zm1 0h1v1h-1zm1 0h1v1h-1zm1 0h2v2h-2zm2 0h1v2h-1zm9 0h1v1h-1zm1 0h2v1h-2zm2 0h1v2h-1zm7 0h1v2h-1zm1 0h1v1h-1zm1 0h1v2h-1zm1 0h2v1h-2zm8 0h4v1h-4zm6 0h1v2h-1zm15 0h2v1h-2zm5 0h1v1h-1zm3 0h3v1h-3zm3 0h2v2h-2zm2 0h1v1h-1zm4 0h1v1h-1zM2 31h4v1H2zm4 0h3v1H6zm3 0h1v1H9zm27 0h1v1h-1zm1 0h4v1h-4zm4 0h2v1h-2zm12 0h1v1h-1zm8 0h1v1h-1zm3 0h1v1h-1zm3 0h1v1h-1zm8 0h1v1h-1zm3 0h1v1h-1zm6 0h1v1h-1zm28 0h1v1h-1zm5 0h1v1h-1zm1 0h1v1h-1z"/><path d="M127 31h2v1h-2zm2 0h1v2h-1zm13 0h1v1h-1zm2 0h1v2h-1zm3 0h2v1h-2zm2 0h1v1h-1zm6 0h1v1h-1zm1 0h2v1h-2zm2 0h2v2h-2zm5 0h1v1h-1zm4 0h3v1h-3zm5 0h3v1h-3zm3 0h1v3h-1zm5 0h1v1h-1zm1 0h1v1h-1zm1 0h2v1h-2zm2 0h1v1h-1zm5 0h1v2h-1zm2 0h1v1h-1zm2 0h2v1h-2zm3 0h1v1h-1zm1 0h1v1h-1zm5 0h4v1h-4zm6 0h2v1h-2zm2 0h1v1h-1zm3 0h1v1h-1zm1 0h1v1h-1zm13 0h1v1h-1zm4 0h3v1h-3zm4 0h1v2h-1zm1 0h1v1h-1zM2 32h3v1H2zm3 0h2v1H5zm2 0h1v1H7zm31 0h1v1h-1zm1 0h1v1h-1zm1 0h2v1h-2zm2 0h1v1h-1zm12 0h1v1h-1zm3 0h1v1h-1zm1 0h1v1h-1zm2 0h1v2h-1zm4 0h1v1h-1zm4 0h1v2h-1zm3 0h1v1h-1zm1 0h1v1h-1zm6 0h1v1h-1zm5 0h1v1h-1zm1 0h1v1h-1zm1 0h1v2h-1zm14 0h1v2h-1zm8 0h1v2h-1zm5 0h1v1h-1zm1 0h1v1h-1zm3 0h2v1h-2zm2 0h1v2h-1z"/><path d="M128 32h2v1h-2zm2 0h1v1h-1zm17 0h8v1h-8zm8 0h2v2h-2zm2 0h3v1h-3zm3 0h1v1h-1zm3 0h1v1h-1zm4 0h4v1h-4zm4 0h1v2h-1zm1 0h1v1h-1zm1 0h1v1h-1zm1 0h1v1h-1zm5 0h1v1h-1zm1 0h1v1h-1zm1 0h1v1h-1zm1 0h1v2h-1zm1 0h5v2h-5zm5 0h3v1h-3zm3 0h2v1h-2zm2 0h2v2h-2zm6 0h1v1h-1zm4 0h1v1h-1zm1 0h1v1h-1zm1 0h1v1h-1zm1 0h1v2h-1zm1 0h1v2h-1zm1 0h2v1h-2zm2 0h1v1h-1zm1 0h1v2h-1zm1 0h1v2h-1zm1 0h1v1h-1zm1 0h1v1h-1zm7 0h1v1h-1zm1 0h2v2h-2zm5 0h1v1h-1zm1 0h1v1h-1zm3 0h3v1h-3zm3 0h1v2h-1zm2 0h1v1h-1zm1 0h1v2h-1zM2 33h2v1H2zm2 0h2v1H4zm2 0h1v3H6zm33 0h2v1h-2zm2 0h2v1h-2zm13 0h1v1h-1zm4 0h1v1h-1zm1 0h1v1h-1zm5 0h1v1h-1zm8 0h1v1h-1zm1 0h1v1h-1zm4 0h1v2h-1zm6 0h1v1h-1zm1 0h1v1h-1zm28 0h1v1h-1zm1 0h1v1h-1zm4 0h3v1h-3zm3 0h1v1h-1zm9 0h1v1h-1zm1 0h3v1h-3zm3 0h1v1h-1zm6 0h1v1h-1zm1 0h1v1h-1zm4 0h1v1h-1zm3 0h1v1h-1zm1 0h1v1h-1zm1 0h1v1h-1zm3 0h2v1h-2zm2 0h1v1h-1zm3 0h1v1h-1zm1 0h1v1h-1zm1 0h1v1h-1zm3 0h1v1h-1zm2 0h1v1h-1zm4 0h1v1h-1zm1 0h1v1h-1zm3 0h1v1h-1zm1 0h1v1h-1zm7 0h1v1h-1zm1 0h1v1h-1zm7 0h1v1h-1zm1 0h1v1h-1zm3 0h1v1h-1zm7 0h1v1h-1zm1 0h1v1h-1zm4 0h1v1h-1zm1 0h1v1h-1zm3 0h1v1h-1zm2 0h1v1h-1zm3 0h1v1h-1zm1 0h1v1h-1zm1 0h1v1h-1zm6 0h1v1h-1zm6 0h1v1h-1zm1 0h1v1h-1zm4 0h1v1h-1zm1 0h1v1h-1zm2 0h1v1h-1zM2 34h2v1H2zm2 0h2v1H4zm5 0h1v1H9zm3 0h22v1H12zm22 0h1v1h-1zm1 0h1v1h-1zm1 0h1v1h-1zm3 0h1v2h-1zm1 0h1v2h-1zm1 0h1v1h-1zm17 0h2v1h-2zm2 0h1v1h-1zm3 0h1v1h-1zm5 0h1v1h-1zm4 0h2v1h-2zm2 0h1v1h-1zm7 0h1v1h-1zm2 0h1v1h-1zm1 0h2v1h-2zm2 0h1v1h-1zm3 0h1v1h-1zm6 0h1v1h-1zm4 0h1v1h-1zm1 0h1v1h-1zm7 0h1v1h-1zm1 0h1v1h-1zm6 0h1v1h-1zm4 0h5v1h-5zm5 0h1v1h-1zm3 0h1v1h-1zm5 0h9v1h-9zm9 0h1v1h-1zm4 0h1v1h-1zm4 0h9v1h-9zm9 0h1v1h-1zm5 0h1v1h-1zm3 0h1v1h-1zm4 0h6v1h-6zm6 0h1v1h-1zm1 0h1v1h-1zm5 0h7v1h-7zm7 0h1v1h-1zm4 0h4v1h-4zm4 0h1v1h-1zm3 0h2v1h-2zm2 0h1v1h-1zm5 0h9v1h-9zm9 0h1v1h-1zm4 0h5v1h-5zm5 0h1v1h-1zm3 0h2v1h-2zm2 0h1v1h-1zm3 0h6v1h-6zm6 0h1v1h-1zM2 35h2v1H2zm2 0h2v2H4zm5 0h26v1H9zm26 0h1v1h-1zm1 0h1v1h-1zm5 0h1v1h-1zm14 0h1v1h-1zm3 0h1v1h-1zm1 0h1v1h-1zm4 0h1v1h-1zm6 0h1v1h-1zm3 0h1v1h-1zm1 0h1v1h-1zm4 0h1v1h-1zm4 0h1v1h-1zm2 0h1v1h-1zm1 0h1v1h-1zm1 0h1v1h-1zm1 0h1v1h-1zm9 0h1v1h-1zm4 0h1v1h-1zm1 0h1v1h-1zm7 0h1v1h-1zm1 0h1v1h-1zm4 0h1v1h-1zm3 0h1v1h-1zm11 0h1v1h-1zm1 0h1v1h-1zm17 0h1v1h-1zm16 0h1v1h-1zm1 0h1v1h-1zm5 0h1v1h-1zm12 0h1v1h-1zm14 0h1v1h-1zm1 0h1v1h-1zm1 0h1v1h-1zm1 0h1v1h-1zm4 0h1v1h-1zm3 0h1v1h-1zm18 0h1v1h-1zm1 0h2v1h-2zm2 0h1v1h-1zm1 0h1v1h-1zm3 0h1v1h-1zm2 0h1v1h-1zm4 0h1v1h-1zm1 0h1v1h-1zm1 0h2v1h-2zm2 0h1v1h-1zm1 0h1v1h-1zm1 0h1v1h-1zM2 36h2v1H2zm4 0h1v4H6zm33 0h2v1h-2zm2 0h2v1h-2zm6 0h1v1h-1zm9 0h1v1h-1zm6 0h1v1h-1zm8 0h1v1h-1zm6 0h1v1h-1zm6 0h1v1h-1zm6 0h1v1h-1zm8 0h1v1h-1zm20 0h1v1h-1zm9 0h1v1h-1zm3 0h1v1h-1zm1 0h1v1h-1zm30 0h1v1h-1zm1 0h1v1h-1zm7 0h1v1h-1zm10 0h1v1h-1zm2 0h1v1h-1zm11 0h1v1h-1zm8 0h1v1h-1zm5 0h1v1h-1zm1 0h1v1h-1zm13 0h1v1h-1zm9 0h1v1h-1zm4 0h1v1h-1zM2 37h3v1H2z"/><path d="M5 37h2v2H5zm2 0h1v3H7zm3 0h1v1h-1zm1 0h22v1H11zm22 0h1v1h-1zm1 0h1v1h-1zm1 0h1v1h-1zm3 0h1v1h-1zm1 0h1v1h-1zm1 0h1v1h-1zm1 0h2v1h-2zm6 0h1v1h-1zm10 0h3v1h-3zm3 0h1v1h-1zm1 0h1v1h-1zm10 0h3v1h-3zm3 0h1v1h-1zm1 0h1v1h-1zm9 0h2v1h-2zm2 0h1v1h-1zm1 0h1v1h-1zm11 0h3v1h-3zm3 0h1v1h-1zm5 0h3v1h-3zm3 0h1v1h-1zm8 0h1v1h-1zm1 0h1v1h-1zm6 0h1v1h-1zm6 0h1v1h-1zm1 0h1v1h-1zm8 0h1v1h-1zm1 0h1v1h-1zm1 0h1v1h-1zm1 0h1v1h-1zm4 0h1v1h-1zm1 0h1v1h-1zm1 0h1v1h-1zm8 0h1v1h-1zm1 0h1v1h-1zm1 0h1v1h-1zm10 0h1v1h-1zm1 0h1v1h-1zm7 0h1v1h-1zm4 0h1v1h-1zm1 0h1v1h-1zm7 0h1v1h-1zm1 0h1v1h-1zm2 0h5v1h-5zm5 0h1v1h-1zm8 0h1v1h-1zm1 0h1v1h-1zm1 0h1v1h-1zm8 0h1v1h-1zm1 0h1v1h-1zm1 0h1v1h-1zm3 0h5v1h-5zm5 0h1v1h-1zm1 0h1v1h-1zm6 0h1v1h-1zm1 0h7v1h-7zm7 0h1v1h-1zM2 38h1v1H2zm1 0h1v1H3zm1 0h1v1H4zm4 0h1v2H8zm1 0h1v1H9zm1 0h24v1H10zm24 0h1v1h-1zm1 0h1v1h-1zm1 0h1v1h-1zm1 0h1v2h-1zm1 0h1v1h-1zm2 0h1v1h-1zm1 0h2v1h-2zm2 0h1v1h-1zm3 0h1v1h-1zm72 0h1v1h-1zm1 0h1v1h-1zm1 0h1v1h-1zm1 0h1v1h-1zm1 0h1v1h-1zm1 0h1v1h-1zm9 0h1v1h-1zm1 0h1v1h-1zm4 0h1v1h-1zm1 0h1v1h-1zm11 0h1v1h-1zm1 0h1v1h-1zm1 0h1v1h-1zm1 0h1v1h-1zm1 0h1v1h-1zm1 0h1v1h-1zm1 0h1v1h-1zm1 0h1v1h-1zm14 0h1v1h-1zm1 0h1v1h-1zm1 0h1v1h-1zm2 0h1v1h-1zm1 0h1v1h-1zm7 0h1v1h-1zm1 0h1v1h-1zm1 0h1v1h-1zm1 0h1v1h-1zm1 0h1v1h-1zm1 0h1v1h-1zm20 0h1v1h-1zm1 0h1v1h-1zm4 0h1v1h-1zm1 0h1v1h-1zm1 0h1v1h-1zM3 39h4v1H3zm6 0h27v2H9zm27 0h1v2h-1zm3 0h1v1h-1zm1 0h2v2h-2zm2 0h1v1h-1zm4 0h1v1h-1zM0 40h1v1H0zm3 0h1v1H3zm1 0h4v1H4zm4 0h1v1H8zm29 0h2v1h-2zm2 0h1v2h-1zm3 0h1v1h-1zm3 0h1v1h-1zm1 0h1v1h-1zM0 41h1v1H0zm4 0h1v1H4zm1 0h1v1H5zm1 0h1v1H6zm1 0h1v1H7zm1 0h1v1H8zm1 0h27v2H9zm27 0h1v2h-1zm1 0h1v1h-1zm1 0h1v1h-1zm2 0h1v1h-1zm1 0h1v1h-1zm4 0h1v1h-1zM1 42h1v1H1zm5 0h1v1H6zm1 0h1v1H7zm1 0h1v1H8zm29 0h1v1h-1zm1 0h2v1h-2zm2 0h1v1h-1zm4 0h1v1h-1zM2 43h1v1H2zm6 0h29v1H8zm29 0h1v1h-1zm6 0h1v1h-1zM3 44h1v1H3zm1 0h1v1H4zm37 0h1v1h-1zm1 0h1v1h-1z"/></g><path d="M10 0h1v1h-1zm1 0h1v1h-1z" fill="#f3f4f7"/><path fill="#e8eded" d="M216 32h1v1h-1z"/><path d="M138 12h1v1h-1zm-5 5h1v1h-1zM31 18h1v1h-1zm81 2h1v8h-1zm104 0h1v1h-1zM10 24h1v1h-1zm9 3h1v1h-1zm93 1h1v1h-1zm96 8h1v1h-1zM45 37h1v1h-1z" fill="#ccc"/><path d="M81 16h1v1h-1zm62 4h1v1h-1zm-1 13h1v1h-1z" fill="#e8e8ee"/><path fill="#369" d="M178 33h1v1h-1z"/><path d="M214 13h1v1h-1zM57 21h1v1h-1zm-4 3h1v1h-1z" fill="#aaaac6"/><path d="M53 14h1v1h-1zm67 0h1v1h-1z" fill="#f1f3f5"/><path d="M2 3h1v1H2zm109 11h1v1h-1zm73 7h1v1h-1zM34 29h1v1h-1zm42 3h1v1h-1zm59 0h1v1h-1zm77 4h1v1h-1z" fill="#d5d5e3"/><path d="M172 21h1v1h-1zm57 10h1v1h-1zM10 32h1v1h-1zm187 1h1v1h-1z" fill="#e5e5eb"/><path d="M13 32h10v1H13zm10 0h1v1h-1zm5 0h1v1h-1zm1 0h1v1h-1z" fill="#e1e1e7"/><path d="M34 0h1v1h-1zm-8 12h1v1h-1zm153 3h1v1h-1zm58 1h1v1h-1zM26 18h1v1h-1zm30 1h1v1h-1zm158 0h1v1h-1zm-75 2h1v1h-1zm4 0h1v1h-1zm-68 1h1v1h-1zm115 6h1v1h-1zm26 5h1v1h-1zM61 34h1v1h-1zm96 1h1v1h-1z" fill="#f4f4f7"/><path d="M41 2h1v1h-1zm74 12h1v1h-1zm90 1h1v1h-1zM88 17h1v1h-1zm71 7h1v1h-1zM13 27h1v1h-1zm175 4h1v1h-1zm-53 2h1v1h-1zm-91 4h1v1h-1z" fill="#fafafc"/><path d="M37 0h1v1h-1zM1 7h1v1H1zm94 7h1v1h-1zm124 1h1v1h-1zm-90 4h1v1h-1zm-60 1h1v1h-1zM7 24h1v1H7zm47 0h1v1h-1zm21 0h1v1h-1zm60 1h1v1h-1zm1 0h1v1h-1zM11 27h1v1h-1zm49 2h1v1h-1zm130 0h1v1h-1zm6 1h1v1h-1zm-45 1h1v1h-1z" fill="#fbfbfb"/><path d="M45 8h1v1h-1zm108 11h1v1h-1zm32 2h1v1h-1zM53 23h1v1h-1zm179 0h1v1h-1zm-66 10h1v1h-1z" fill="#ededf2"/><path d="M186 13h1v1h-1zm-24 1h1v1h-1zm11 5h1v1h-1zm-85 1h1v1h-1zm66 1h1v1h-1zM26 23h1v1h-1zm45 1h1v1h-1z" fill="#ececf1"/><path fill="#fefffe" d="M118 18h1v1h-1z"/><path d="M172 22h1v1h-1zm0 4h1v1h-1z" fill="#dbe2e9"/><path d="M101 24h1v1h-1zm0 8h1v1h-1zm0 1h1v1h-1z" fill="#f9fafb"/><path d="M8 0h1v1H8zm100 6h1v1h-1zm-16 8h1v1h-1zm99 0h1v1h-1zm-93 1h1v1h-1zm-30 1h1v1h-1zm89 2h1v1h-1zM38 20h1v1h-1zm24 2h1v1h-1zm5 0h1v1h-1zm84 4h1v1h-1zm45 0h1v1h-1zm-71 2h1v1h-1zm71 0h1v1h-1zM28 29h1v1h-1zm168 0h1v1h-1zm-73 6h1v1h-1zm26 0h1v1h-1zm58 0h1v1h-1zM1 38h1v1H1z" fill="#f9f9fb"/><path d="M9 0h1v1H9zm6 7h1v1h-1zm100 3h1v1h-1zm-86 3h1v1h-1zm67 1h1v1h-1zm41 0h1v1h-1zm70 0h1v1h-1zM77 16h1v1h-1zm117 0h1v1h-1zm-79 1h1v1h-1zm45 0h1v1h-1zm-45 2h1v1h-1zm0 1h1v8h-1zM14 21h1v1h-1zm8 1h1v1h-1zm8 1h1v1h-1zm119 2h1v1h-1zm39 0h1v1h-1zm-60 1h1v1h-1zm-70 2h1v1h-1zm57 0h1v1h-1zm120 0h1v1h-1zm-87 2h1v1h-1zm61 0h1v1h-1zm-23 1h1v1h-1zm-54 1h1v1h-1zm-57 1h1v1h-1zm83 1h1v1h-1zm31 0h1v1h-1zm-2 1h1v1h-1zM6 43h1v1H6z" fill="#f9f9fa"/><path fill="#fffeff" d="M60 31h1v1h-1z"/><path fill="#b6b6c8" d="M202 16h1v1h-1z"/><path d="M24 17h1v1h-1zM8 25h1v1H8zm66 0h1v1h-1zm-16 1h1v1h-1zm92 0h1v1h-1zm-81 4h1v1h-1zm142 0h1v1h-1zm1 0h1v1h-1zm-81 1h1v1h-1zm-95 1h1v1h-1zm166 1h1v1h-1zm-60 1h1v1h-1z" fill="#eeeef2"/><path d="M126 18h1v1h-1zm35 14h1v1h-1z" fill="#ecf0f0"/><path d="M183 19h1v1h-1zm-81 4h1v1h-1zm68 13h1v1h-1z" fill="#005"/><path fill="#cecedb" d="M208 20h1v1h-1z"/><path d="M197 27h1v1h-1zm14 9h1v1h-1z" fill="#d9d9e3"/><path fill="#dbe2e2" d="M172 10h1v1h-1z"/><path d="M77 14h1v1h-1zM26 28h1v1h-1zm177 6h1v1h-1zM0 36h1v1H0z" fill="#e0e0eb"/><path fill="#dde3e3" d="M97 33h1v1h-1z"/><path d="M225 9h1v8h-1zM14 13h1v1h-1zm66 1h1v1h-1zm-47 1h1v1h-1zm146 1h1v1h-1zm46 1h1v1h-1zM80 18h1v1h-1zm75 0h1v1h-1zm25 1h1v1h-1zm45 1h1v1h-1zM9 21h1v1H9zm28 0h1v1h-1zm153 6h1v1h-1zM37 29h1v1h-1z" fill="#f4f4f6"/><path d="M51 14h1v1h-1zm16 10h1v1h-1z" fill="#eeeef3"/><path fill="#f2f5f7" d="M230 15h1v1h-1z"/><path fill="#ced8e2" d="M212 19h1v1h-1z"/><path fill="#d9d9d9" d="M235 27h1v1h-1z"/><path fill="#e6efef" d="M105 34h1v1h-1z"/><path d="M3 3h1v1H3zm105 7h1v1h-1zm-15 4h1v1h-1zm65 0h1v1h-1zm50 0h1v1h-1zm6 0h1v1h-1zM27 19h1v1h-1zm29 2h1v1h-1zm140 0h1v1h-1zM24 22h1v1h-1zm202 0h1v1h-1zm-101 1h1v1h-1zm-48 3h1v1h-1zm48 1h1v1h-1zm29 0h1v1h-1zm24 0h1v1h-1zm22 2h1v1h-1zm-22 2h1v1h-1zm-80 4h1v1h-1zm3 0h1v1h-1zm32 0h1v1h-1zm4 0h1v1h-1zm13 0h1v1h-1zm24 0h1v1h-1zm34 0h1v1h-1zm24 0h1v1h-1zM38 36h1v1h-1z" fill="#fbfbfd"/><path d="M0 7h1v1H0zm90 7h1v1h-1zm111 3h1v1h-1zM70 34h1v1h-1z" fill="#b9b9d1"/><path d="M38 35h1v1h-1zm19 0h1v1h-1z" fill="#f9f9f9"/><path fill="#a2b9b9" d="M133 13h1v1h-1z"/><path d="M80 19h1v1h-1zm-23 3h1v1h-1zm129 4h1v1h-1zm-62 8h1v1h-1z" fill="#eaefef"/><path fill="#e7ecec" d="M201 32h1v1h-1z"/><path fill="#f4f4f9" d="M197 35h1v1h-1z"/><path fill="#e9ecf0" d="M112 17h1v1h-1z"/><path d="M197 26h1v1h-1zm12 10h1v1h-1z" fill="#d6d6e0"/><path d="M171 21h1v1h-1zM34 31h1v1h-1z" fill="#fbfcfd"/><path fill="#e8e8ec" d="M45 35h1v1h-1z"/><path fill="#cedbdb" d="M154 36h1v1h-1z"/><path d="M107 6h1v1h-1zm2 1h1v1h-1zm110 0h1v1h-1zM9 8h1v1H9zm210 1h1v5h-1zm-48 2h1v1h-1zm0 2h1v1h-1zm40 1h1v1h-1zm8 0h1v1h-1zm-84 2h1v1h-1zm-80 1h1v1h-1zm164 0h1v15h-1zm-72 1h1v1h-1zm36 0h1v1h-1zm28 0h1v1h-1zm-40 1h1v1h-1zM65 20h1v1h-1zm14 0h1v1h-1zm92 0h1v1h-1zM15 21h1v1h-1zm8 1h1v1h-1zm148 0h1v1h-1zm25 0h1v1h-1zm-95 1h1v1h-1zm28 0h1v1h-1zm9 0h1v1h-1zm42 1h1v1h-1zm-55 1h1v1h-1zm4 0h1v1h-1zm1 0h2v1h-2zm2 0h2v1h-2zm2 0h1v1h-1zm3 0h2v1h-2zm2 0h1v1h-1zm32 1h1v1h-1zm-43 1h1v1h-1zm-13 3h1v1h-1zM10 31h1v1h-1zm7 0h3v1h-3zm3 0h1v1h-1zm10 0h1v1h-1zm2 0h1v1h-1zm1 0h1v1h-1zm186 1h1v1h-1zm-96 1h1v1h-1zm44 0h1v1h-1zm52 0h1v1h-1zm-78 1h1v1h-1zm-20 1h1v1h-1zm15 0h1v1h-1zm37 0h1v1h-1zm38 0h1v1h-1zm2 0h1v1h-1z" fill="#fbfbfc"/><path fill="#ebebef" d="M174 19h1v1h-1z"/><path d="M0 8h1v1H0zm179 26h1v1h-1z" fill="#e7e7e7"/><path d="M24 11h1v1h-1zm192 4h1v1h-1zm-89 2h1v1h-1zm12 3h1v1h-1zM36 24h1v1h-1zm-14 4h1v1h-1z" fill="#f5f7f7"/><path fill="#f5f5f9" d="M162 17h1v1h-1z"/><path fill="#55718e" d="M110 19h1v1h-1z"/><path fill="#c6d5d5" d="M199 29h1v1h-1z"/><path d="M16 7h1v1h-1zm197 7h1v1h-1zm2 3h1v1h-1zm-109 1h1v1h-1zm-27 1h1v1h-1zm-50 1h1v1h-1zm99 1h1v1h-1zm-22 1h1v3h-1zm-36 2h1v1h-1zm36 1h1v1h-1zm46 1h1v1h-1zm26 2h1v1h-1zm-60 1h1v1h-1zm60 1h1v1h-1zm-12 1h1v1h-1zm45 0h1v1h-1zm4 0h1v1h-1zm15 0h1v1h-1zm-99 1h1v1h-1zm-10 1h1v1h-1zm70 0h1v1h-1zm-85 1h1v1h-1z" fill="#fcfdfd"/><path d="M110 7h1v1h-1zm-88 9h1v1h-1zm139 9h1v1h-1z" fill="#e7e7ef"/><path fill="#dae1e1" d="M124 25h1v1h-1z"/><path d="M157 13h1v1h-1zM25 23h1v1h-1zm38 6h1v1h-1zm99 1h1v1h-1zm54 5h1v1h-1z" fill="#e6e6ef"/><path fill="#f1f4f8" d="M162 16h1v1h-1z"/><path fill="#bfc8d1" d="M172 13h1v1h-1z"/><path fill="#e9eef4" d="M176 19h1v1h-1z"/><path fill="#eaecf0" d="M114 17h1v1h-1z"/><path fill="#eff1f4" d="M142 18h1v1h-1z"/><path fill="#f4f4fa" d="M162 28h1v1h-1z"/><path fill="#e2e2e6" d="M218 34h1v1h-1z"/><path fill="#f6f7f7" d="M118 35h1v1h-1z"/><path d="M219 8h1v1h-1zm-48 4h1v1h-1zM15 14h1v1h-1zm145 1h1v1h-1zm-60 3h1v1h-1zm112 0h1v1h-1zm20 3h1v1h-1zM35 22h1v1h-1zm97 1h4v1h-4zm4 0h1v1h-1zm35 0h1v2h-1zm-73 1h1v1h-1zm0 1h1v1h-1zm42 0h1v1h-1zm1 0h1v1h-1zm30 0h1v1h-1zm-10 2h1v1h-1zm46 2h1v1h-1zm-57 2h1v1h-1zm-16 4h1v1h-1zm75 0h1v1h-1z" fill="#fbfcfc"/><path fill="#d6d6de" d="M239 14h1v1h-1z"/><path fill="#eeeef7" d="M105 15h1v1h-1z"/><path d="M35 16h1v1h-1zm97 1h1v1h-1zm14 14h1v1h-1z" fill="#edf2f2"/><path d="M218 4h1v1h-1zm-72 26h1v1h-1z" fill="#e1e1e1"/><path d="M2 5h1v1H2zm82 19h1v1h-1zm96 5h1v1h-1zm56 4h1v1h-1z" fill="#feffff"/><path d="M216 14h1v1h-1zM93 17h1v1h-1z" fill="#ededf0"/><path fill="#d5e3e3" d="M99 15h1v1h-1z"/><path fill="#e9e9ec" d="M88 16h1v1h-1z"/><path d="M75 35h1v1h-1zM5 43h1v1H5z" fill="#f1f1f1"/><path d="M110 9h1v1h-1zM0 10h1v1H0zm0 1h1v1H0zm0 22h1v1H0zm0 1h1v1H0zm45 2h1v1h-1z" fill="#efeff4"/><path d="M114 12h1v1h-1zm-14 4h1v1h-1zM27 28h1v1h-1zm101 6h1v1h-1z" fill="#9292b6"/><path fill="#f0f0f1" d="M165 19h1v1h-1z"/><path fill="#d2d2e1" d="M34 21h1v1h-1z"/><path fill="#60609f" d="M66 21h1v1h-1z"/><path fill="#dedee6" d="M131 22h1v1h-1z"/><path d="M14 7h1v1h-1zm37 9h1v1h-1zm111 13h1v1h-1z" fill="#f5f5f5"/><path fill="#f6f7f8" d="M172 14h1v1h-1z"/><path fill="#f0f0f5" d="M18 22h1v1h-1z"/><path d="M54 14h1v1h-1zm11 0h1v1h-1z" fill="#f1f1f3"/><path d="M75 21h1v1h-1zm97 2h1v1h-1zm0 1h1v1h-1zM8 36h1v1H8z" fill="#e2e2e9"/><path d="M1 6h1v1H1zm74 17h1v1h-1zm-46 6h1v1h-1zm144 1h1v1h-1z" fill="#f7f8f8"/><path d="M105 9h1v1h-1zm33 5h1v1h-1zm100 0h1v1h-1zm-109 1h1v1h-1zm-63 4h1v1h-1zm80 0h1v1h-1zm13 0h1v1h-1zM35 24h1v1h-1zm19 2h1v1h-1zm111 4h1v1h-1zm9 0h1v1h-1zm57 4h1v1h-1zm-43 1h1v1h-1zm37 0h1v1h-1z" fill="#f2f2f5"/><path d="M93 11h1v1h-1zm-3 1h1v1h-1zm40 0h1v1h-1zm16 3h1v1h-1zm-75 2h1v1h-1zm1 3h1v1h-1zm50 3h1v1h-1zm-43 6h1v1h-1zm-68 5h1v1h-1zm101 0h1v1h-1zm22 4h2v1h-2zm2 0h1v1h-1zm37 0h1v1h-1zm36 0h2v1h-2zm2 0h1v1h-1z" fill="#aaa"/><path fill="#cccce6" d="M95 13h1v1h-1z"/><path fill="#eaeef1" d="M37 17h1v1h-1z"/><path fill="#ececec" d="M160 19h1v1h-1z"/><path d="M38 0h1v1h-1zm58 18h1v1h-1zm34 0h1v1h-1zm-51 3h1v1h-1zm90 14h1v1h-1zM4 42h1v1H4zm7 2h1v1h-1zm23 0h1v1h-1z" fill="#f5f7f9"/><path fill="#dee3e3" d="M218 5h1v1h-1z"/><path d="M236 14h1v1h-1zM94 17h1v1h-1zm115 2h1v1h-1zM12 21h1v1h-1zm3 6h1v1h-1zm150 2h1v1h-1z" fill="#f5f5f8"/><path d="M136 17h1v1h-1zm43 0h1v1h-1zM56 18h1v1h-1zm6 2h1v1h-1z" fill="#ececf3"/><path fill="#f3f3f3" d="M125 20h1v1h-1z"/><path fill="#c8c8d1" d="M129 22h1v1h-1z"/><path fill="#d0d0d9" d="M197 29h1v1h-1z"/><path d="M6 0h1v1H6zm37 3h1v1h-1zm29 24h1v1h-1zm-17 3h1v1h-1z" fill="#eaeaf1"/><path fill="#eef2f2" d="M117 8h1v1h-1z"/><path d="M232 14h1v1h-1zm-123 1h1v1h-1zm-71 3h1v1h-1zm188 9h1v1h-1zm-37 3h1v1h-1zM7 34h1v1H7zm80 0h1v1h-1zm59 0h1v1h-1z" fill="#f7f7f8"/><path d="M99 16h1v1h-1zm-11 3h1v1h-1zm146 0h1v1h-1zm-44 6h1v1h-1zM12 27h1v1h-1zm172 0h1v1h-1zm-9 8h1v1h-1z" fill="#f8fafb"/><path fill="#dce5ed" d="M130 22h1v1h-1z"/><path d="M87 5h1v1h-1zm76 9h1v1h-1zm-76 2h1v1h-1z" fill="#f4f5f7"/><path d="M212 13h1v1h-1zm-65 22h1v1h-1z" fill="#eeeef4"/><path fill="#eef1f1" d="M160 14h1v1h-1z"/><path d="M140 15h1v1h-1zm-16 2h1v1h-1zm-23 1h1v1h-1zm20 18h1v1h-1z" fill="#e3e3ec"/><path d="M74 17h1v1h-1zm-40 2h1v1h-1zm98 1h1v1h-1z" fill="#aaf"/><path fill="#ecf0f3" d="M163 19h1v1h-1z"/><path d="M165 23h1v1h-1zm0 1h1v2h-1zm0 2h1v1h-1z" fill="#ebeeee"/><path fill="#eaeaee" d="M207 28h1v1h-1z"/><path d="M154 13h1v1h-1zm34 0h1v1h-1zM34 24h1v1h-1zm88 8h1v1h-1z" fill="#f1f1f6"/><path d="M123 14h1v1h-1zm-46 1h1v1h-1zm150 12h1v1h-1zM73 30h1v1h-1z" fill="#f2f2f4"/><path fill="#e8e8f0" d="M197 32h1v1h-1z"/><path fill="#dfdfe4" d="M218 32h1v1h-1z"/><path fill="#b1c4c4" d="M37 36h1v1h-1z"/><path fill="#d1d1d1" d="M216 30h1v1h-1z"/><path fill="#f6f7f9" d="M73 31h1v1h-1z"/><path fill="#e8ebf1" d="M172 19h1v1h-1z"/><path fill="#dbdbff" d="M10 23h1v1h-1z"/><path d="M25 12h1v1h-1zm99 11h1v1h-1zm-66 2h1v1h-1z" fill="#cdd"/><path d="M69 17h1v1h-1zm67 19h1v1h-1z" fill="#e2e2e2"/><path fill="#e0e5e5" d="M218 15h1v1h-1z"/><path d="M63 17h1v1h-1zM17 27h1v1h-1zm191 2h1v1h-1zM44 39h1v1h-1z" fill="#eaeaef"/><path d="M66 20h1v1h-1zm13 2h1v1h-1zm100 2h1v1h-1zM40 43h1v1h-1z" fill="#ededf1"/><path fill="#c6c6e3" d="M78 26h1v1h-1z"/><path d="M18 27h1v1h-1zm198 4h1v1h-1z" fill="#e3ecec"/><path d="M1 5h1v1H1zm27 8h1v1h-1zm153 1h1v1h-1zm-92 1h1v1h-1zm-13 3h1v1h-1zm-45 2h1v1h-1zm47 5h1v1h-1z" fill="#efeff3"/><path d="M1 8h1v1H1zm169 1h1v1h-1zM1 12h1v10H1zm156 2h1v1h-1zm28 0h1v1h-1zm1 0h1v1h-1zm2 0h1v1h-1zm1 0h1v1h-1zm20 0h1v1h-1zm1 0h1v1h-1zm-57 4h1v1h-1zm5 0h1v1h-1zm14 0h1v1h-1zm38 0h1v1h-1zm3 0h1v1h-1zM65 19h1v1h-1zm41 0h1v2h-1zm-43 1h1v1h-1zm79 0h1v1h-1zm-36 1h1v1h-1zm94 0h1v1h-1zM1 22h1v2H1zm153 0h1v1h-1zm77 0h1v1h-1zm-103 1h1v1h-1zm103 0h1v1h-1zM1 24h1v6H1zm67 0h1v1h-1zM7 25h1v1H7zm68 0h1v1h-1zm53 0h1v1h-1zm-22 1h1v5h-1zm-88 2h1v1h-1zm110 0h1v1h-1zm33 0h1v1h-1zm10 0h1v1h-1zM25 29h1v1h-1zm49 0h1v1h-1zM1 30h1v1H1zm33 0h1v1h-1zm26 0h1v1h-1zm10 0h1v1h-1zm59 0h1v1h-1zm79 0h1v1h-1zm-102 1h1v1h-1zm13 1h1v1h-1zm-62 1h1v1h-1zm14 0h1v1h-1zm67 0h1v1h-1zm-78 2h1v1h-1zm14 0h1v1h-1zm78 0h1v1h-1zm1 0h1v1h-1zm30 0h1v1h-1zm13 0h1v1h-1zm14 0h1v1h-1zM43 39h1v1h-1zM5 42h1v1H5zm33 1h1v1h-1z" fill="#fdfdfd"/><path fill="#dcdce5" d="M194 15h1v1h-1z"/><path d="M189 19h1v1h-1zM9 26h1v1H9zm197 0h1v1h-1zm-47 8h1v1h-1zm8 0h1v1h-1z" fill="#f0f0f3"/><path d="M110 20h1v12h-1zm0 12h1v2h-1zm0 2h1v1h-1z" fill="#71718e"/><path d="M35 0h1v1h-1zm31 14h1v1h-1zm41 0h1v1h-1zm1 0h1v1h-1zm96 1h1v1h-1zm-18 3h1v1h-1zm42 0h1v1h-1zm10 14h1v1h-1zm-13 2h1v1h-1zM2 40h1v1H2z" fill="#f3f3f5"/><path d="M90 6h1v5h-1zm24 4h1v1h-1zm-24 1h1v1h-1zm6 0h1v1h-1zm18 0h1v1h-1zm77 0h1v1h-1zM50 14h1v1h-1zm130 0h1v1h-1zM63 16h1v1h-1zm84 0h1v1h-1zm-66 1h1v1h-1zm29 0h1v1h-1zm24 0h1v1h-1zm-39 1h1v1h-1zm84 0h1v1h-1zm37 0h1v1h-1zM80 20h1v1h-1zm34 0h1v8h-1zm66 0h1v1h-1zm17 0h1v1h-1zM88 21h1v1h-1zm2 1h1v11h-1zM8 23h1v1H8zm4 1h2v1h-2zm224 1h1v1h-1zm-105 1h1v1h-1zm54 1h1v1h-1zM68 28h1v1h-1zm46 0h1v1h-1zm8 0h1v1h-1zm-87 1h1v1h-1zm79 0h1v1h-1zm-24 4h1v1h-1zm52 2h1v1h-1zm-4 1h1v1h-1zm-9 1h1v1h-1zm10 1h1v1h-1zm-97 4h1v1h-1z"/><path fill="#c5c5d1" d="M59 29h1v1h-1z"/><path d="M155 29h1v1h-1zm21 1h1v1h-1z" fill="#e9e9ed"/><path fill="#f0f0f0" d="M124 35h1v1h-1z"/><path d="M33 21h1v1h-1zm29 10h1v1h-1z" fill="#f2f4f4"/><path fill="#f5f7fa" d="M23 28h1v1h-1z"/><path d="M172 12h1v1h-1zM64 14h1v1h-1zm33 11h1v6h-1zm75 2h1v1h-1zm-75 4h1v1h-1z" fill="#e3e3ea"/><path d="M67 14h1v1h-1zm47 0h1v1h-1z" fill="#eff1f3"/><path d="M105 17h1v15h-1zm0 15h1v1h-1z" fill="#e5eded"/><path d="M216 17h1v1h-1zm21 13h1v1h-1z" fill="#dde6e6"/><path d="M62 21h1v1h-1zm153 14h1v1h-1z" fill="#f3f6f8"/><path fill="#fcfcfe" d="M101 22h1v1h-1z"/><path d="M86 4h1v1h-1zm104 22h1v1h-1z" fill="#f3f3f8"/><path d="M172 9h1v1h-1zM97 24h1v1h-1zm0 8h1v1h-1z" fill="#dddde4"/><path fill="#f9fbfc" d="M62 30h1v1h-1z"/><path fill="#f1f1ff" d="M134 13h1v1h-1z"/><path d="M25 18h1v1h-1zm159 0h1v1h-1zM63 19h1v1h-1zm63 0h1v1h-1zm-61 2h1v1h-1zm123 0h1v1h-1zm-60 1h1v1h-1zm71 4h1v1h-1z" fill="#f8fafa"/><path fill="#9999b3" d="M96 19h1v1h-1z"/><path d="M102 24h1v10h-1zm0 10h1v1h-1z" fill="#000040"/><path fill="#dadae6" d="M33 32h1v1h-1z"/><path d="M225 6h1v1h-1zm0 1h1v1h-1zm6 7h1v1h-1zm-6 4h1v1h-1zm0 12h1v1h-1zm-65 3h1v1h-1z" fill="#f2f4f6"/><path fill="#eef1f4" d="M171 8h1v1h-1z"/><path d="M27 18h1v1h-1zm132 3h1v1h-1z" fill="#dbdbdb"/><path d="M157 22h1v1h-1zm-33 2h1v1h-1zm-64 2h1v1h-1z" fill="#e5e5ed"/><path d="M81 24h1v1h-1zM10 34h1v1h-1z" fill="#bfffff"/><path fill="#ebeff3" d="M32 29h1v1h-1z"/><path d="M23 11h1v1h-1zm154 17h1v1h-1zM33 29h1v1h-1zm86 1h1v1h-1zm86 5h1v1h-1z" fill="#ebebf2"/><path fill="#f7f9fb" d="M91 17h1v1h-1z"/><path d="M18 9h1v1h-1zm130 16h1v1h-1z" fill="#d7d7e4"/><path fill="#f4f4f5" d="M52 14h1v1h-1z"/><path d="M237 14h1v1h-1zm-128 3h1v1h-1zm0 17h1v1h-1z" fill="#f7f8f9"/><path fill="#a6a6bf" d="M190 34h1v1h-1z"/><path fill="#f2f2f9" d="M0 35h1v1H0z"/><path fill="#eff2f5" d="M85 4h1v1h-1z"/><path d="M225 4h1v1h-1zm-19 21h1v1h-1zm-71 11h1v1h-1zm37 0h1v1h-1z" fill="#f6f6f6"/><path d="M30 14h1v1h-1zm183 5h1v1h-1zM65 23h1v1h-1zm-32 1h1v1h-1zm132 7h1v1h-1zm-31 1h1v1h-1zm-4 3h1v1h-1zm11 0h1v1h-1zm44 1h1v1h-1z" fill="#e9e9f0"/><path d="M192 14h1v1h-1zm34 7h1v1h-1zM9 37h1v1H9z" fill="#f0f3f6"/><path fill="#ececee" d="M165 21h1v1h-1z"/><path fill="#05a" d="M72 26h1v1h-1z"/><path fill="#f0f3f5" d="M63 28h1v1h-1z"/><path fill="#e8e8f3" d="M61 35h1v1h-1z"/><path d="M4 2h1v1H4zm9 4h1v1h-1zm7 3h1v1h-1zm149 0h1v1h-1zM9 10h1v1H9zm157 0h1v1h-1zM27 12h1v1h-1zm-14 1h1v1h-1zm120 1h1v1h-1zm3 0h1v1h-1zm47 0h1v1h-1zM34 15h1v1h-1zm56 0h1v1h-1zm90 0h1v1h-1zM20 16h1v1h-1zm44 0h1v1h-1zm76 0h1v1h-1zm-63 1h1v1h-1zm13 0h1v1h-1zm125 1h1v1h-1zm-76 1h1v1h-1zm-63 1h1v1h-1zm124 0h1v1h-1zm7 0h1v1h-1zm26 0h1v1h-1zm-80 1h1v1h-1zM36 22h1v1h-1zm89 0h1v1h-1zM7 23h1v1H7zm24 0h1v1h-1zm1 0h1v1h-1zm38 0h1v1h-1zm78 1h1v1h-1zm84 0h1v1h-1zM68 25h1v1h-1zm33 0h1v1h-1zm86 0h1v1h-1zM38 26h1v1h-1zm33 0h1v1h-1zm-52 2h1v1h-1zm19 0h1v1h-1zm31 0h1v1h-1zm156 0h1v1h-1zm3 0h1v1h-1zM27 29h1v1h-1zm45 0h1v1h-1zm4 0h1v1h-1zm39 0h1v1h-1zm-43 1h1v1h-1zm112 0h1v1h-1zM11 31h1v1h-1zm11 0h1v1h-1zm3 0h1v1h-1zm2 0h2v1h-2zm2 0h1v1h-1zm172 0h1v1h-1zM8 32h1v1H8zm29 0h1v1h-1zm1 1h1v1h-1zm141 0h1v1h-1zM57 34h1v1h-1zm44 0h1v1h-1zm90 0h1v1h-1zm-53 1h1v1h-1zm44 0h1v1h-1zm4 0h1v1h-1zM8 37h1v1H8zm29 0h1v1h-1z" fill="#fafafb"/><path d="M45 11h1v2h-1zm0 2h1v15h-1zm92 9h1v1h-1zm-92 6h1v2h-1zm0 2h1v2h-1zm0 2h1v1h-1z" fill="#e1e1e9"/></svg>