<svg xmlns="http://www.w3.org/2000/svg" role="img" viewBox="6.83 -4.92 386.10 209.35"><title>Xcalibyte logo</title><g fill-rule="evenodd" stroke="none"><path fill="#ec3744" d="M223.648 3.597c-.196.315-.248 16.375-.248 76.996v76.599l.45.111c.247.061 2.115.085 4.15.054l3.7-.057.058-1.85c.031-1.017.144-1.85.25-1.85.105 0 .192.138.192.306 0 .169.135.358.3.422.165.063.3.224.3.357 0 .818 3.41 3.115 4.626 3.115.407 0 .774.099.814.221.123.369 5.048.431 5.904.074.387-.162 1.014-.295 1.392-.295.408 0 .637-.081.564-.2-.111-.179.67-.314 1.2-.207.11.022.135-.025.055-.104-.079-.08.263-.404.762-.72 1.414-.897 2.599-2.007 2.797-2.619.062-.192.187-.35.277-.35.09 0 .416-.607.724-1.35.307-.742.635-1.453.729-1.578.093-.126.212-.568.265-.983.054-.416.186-.863.295-.994.326-.392.262-90.505-.064-91.003-.142-.216-.285-.707-.319-1.092-.034-.385-.12-.745-.191-.8-.224-.172-.63-.983-.63-1.257 0-.145-.112-.376-.25-.513-.137-.137-.25-.326-.25-.418 0-.234-2.015-2.412-2.231-2.412-.097 0-.507-.225-.912-.5s-.921-.5-1.146-.5c-.226 0-.411-.07-.411-.156s-.247-.177-.55-.202c-.303-.025-.82-.169-1.15-.321-1.366-.628-5.912-.325-7.547.503-.191.097-.531.176-.754.176-.224 0-.788.24-1.253.534-.465.294-.869.518-.898.498-.128-.089-2.257 2.082-2.36 2.406-.431 1.358-.488-1.527-.488-24.722 0-13.796-.055-25.226-.121-25.4-.209-.542-7.689-.467-8.031.081M367.2 49.494c-.275.16-.837.295-1.25.299-.412.004-.75.097-.75.207 0 .11-.315.2-.7.2-.385 0-.7.081-.7.18 0 .099-.45.342-1 .539-.55.198-1 .432-1 .521 0 .088-.112.16-.25.16-.305.001-2.95 2.466-2.95 2.749 0 .111-.135.314-.3.451-.165.137-.3.418-.3.624 0 .207-.083.376-.184.376-.101 0-.244.27-.316.6-.072.33-.205.6-.294.6-.214 0-.4 1.114-.534 3.2-.06.935-.19 1.786-.29 1.89-.25.261-.243 82.823.007 83.289.104.194.206 1.088.228 1.987.022.899.117 1.634.211 1.634.095 0 .172.212.172.47 0 .259.225.894.5 1.411s.501 1.048.503 1.18c.004.363 1.39 1.93 2.827 3.196.792.697 3.477 2.143 3.98 2.143.171 0 .431.113.579.25.219.203.238.194.102-.05-.134-.24-.11-.255.121-.074.158.125.603.279.988.342s1.195.202 1.8.308c1.461.256 5.954.15 6.252-.148.125-.125.615-.228 1.088-.228.473 0 .86-.07.86-.156s.215-.175.478-.196c.262-.022 1.085-.357 1.828-.744.743-.387 1.473-.704 1.622-.704.15 0 .272-.135.272-.3 0-.165.135-.3.3-.3.165 0 .3-.09.3-.2 0-.11.15-.2.333-.2.184 0 .286-.048.228-.106-.058-.058.315-.531.83-1.05.514-.519 1.064-1.236 1.221-1.594.157-.357.354-.65.437-.65.083 0 .151-.218.151-.483 0-.266.087-.514.194-.55.106-.037.25-.427.32-.867.069-.44.208-.851.307-.913.107-.066.161-5.766.13-13.8L385.5 121.3l-3.874-.054c-2.709-.038-3.958.015-4.153.176-.233.193-.277 2.332-.27 13.039.005 8.515-.061 12.877-.197 13.013-.113.113-.206.372-.206.575 0 .203-.225.611-.5.908-.275.296-.5.652-.5.791s-.18.252-.4.252c-.22 0-.4.088-.4.196 0 .108-.225.253-.5.322s-.5.19-.5.268c0 .078-.471.164-1.046.19-.575.026-1.104.144-1.177.261-.08.13-.43.16-.904.078-.425-.073-1.178-.184-1.673-.245-.495-.061-1.035-.218-1.2-.349-.165-.131-.547-.362-.85-.513-.302-.152-.55-.356-.55-.454 0-.098-.09-.122-.2-.054-.11.068-.2-.009-.2-.172 0-.162-.072-.325-.159-.361-.088-.037-.374-.517-.636-1.067l-.476-1-.015-20.4c-.009-11.22.017-20.557.058-20.748.069-.325.767-.352 10.301-.4l10.227-.052.048-23.55c.031-15.406-.021-23.55-.15-23.55-.109 0-.198-.226-.198-.503 0-.276-.084-.659-.187-.85-.103-.191-.425-.857-.716-1.481-.539-1.156-3.092-3.966-3.604-3.966-.143 0-.29-.067-.326-.15-.037-.083-.427-.317-.867-.522-.44-.205-.956-.452-1.147-.55-.191-.098-.568-.178-.838-.178s-.547-.09-.615-.2c-.068-.11-.463-.2-.878-.2-.416 0-.818-.063-.894-.139-.459-.459-7.187-.601-7.928-.167m-95.615.756c-.133.432-.125.889.019 1.158.099.185.195 1.001.213 1.814.018.813.12 1.645.226 1.848.106.204.239 1.149.296 2.1.057.952.184 1.815.282 1.92.098.104.179.964.179 1.91s.079 1.806.176 1.91c.097.105.225.955.285 1.89.06.935.201 1.94.313 2.234.112.294.221 1.194.241 2 .021.806.107 1.556.193 1.666.085.11.179.965.208 1.9.03.935.122 1.792.206 1.905.084.113.201 1.006.26 1.985.06.979.201 1.873.313 1.985.113.113.205 1.002.205 1.977 0 1.13.072 1.727.2 1.648.178-.11.324 2.25.208 3.362-.02.199.048.469.151.6.104.131.237 1.045.296 2.032.061 1.032.199 1.824.326 1.866.137.046.219.737.219 1.845 0 .974.09 1.827.2 1.895.11.068.202.681.205 1.362.002.681.098 1.598.212 2.038.115.44.249 1.43.3 2.2.05.77.179 1.661.287 1.98.108.319.196 1.268.196 2.11 0 .841.085 1.616.188 1.72.104.105.204.775.223 1.49.019.715.117 1.692.218 2.172.1.479.218 1.542.262 2.361.043.82.171 1.6.283 1.735.112.135.219 1.007.239 1.939.02.931.108 1.784.196 1.895.088.11.183.875.212 1.7.03.824.126 1.705.215 1.958.089.253.219 1.198.289 2.1.07.902.199 1.78.287 1.951.088.171.178 1.071.2 2 .022.929.11 1.779.197 1.889.129.164.328 1.929.401 3.546.008.19.1.398.203.462.103.064.187.92.187 1.904 0 1.059.082 1.788.2 1.788.118 0 .2.728.2 1.783 0 .981.084 1.814.186 1.85.102.037.24.92.305 1.962.066 1.043.207 1.983.314 2.09.107.107.195.982.195 1.943 0 .962.09 1.804.2 1.872.11.068.2.823.2 1.678 0 .856.063 1.618.139 1.694.178.178.233.513.368 2.228.139 1.779.183 2.057.354 2.228.233.232.162 5.369-.077 5.608-.119.119-.251.895-.293 1.724-.042.829-.17 2.078-.283 2.774-.113.696-.206 1.778-.206 2.404-.001.626-.092 1.194-.202 1.262-.11.068-.2.832-.2 1.699 0 .866-.095 1.824-.211 2.129-.115.305-.254 1.32-.308 2.256-.053.936-.174 1.75-.268 1.809-.094.059-.182.959-.196 2.001-.013 1.041-.113 1.982-.221 2.09-.108.108-.196.97-.196 1.916s-.095 1.815-.212 1.932c-.117.117-.258 1.012-.313 1.99-.056.978-.172 2.003-.259 2.278-.086.275-.177 1.263-.2 2.196-.024.933-.117 1.788-.206 1.9-.202.254-.414 2.461-.272 2.831.083.216.806.273 3.435.273h3.33l.273-.85c.151-.467.312-1.47.357-2.228.046-.758.158-1.523.25-1.7.092-.177.182-1.042.2-1.922.018-.88.119-1.63.225-1.667.106-.036.192-.83.192-1.763 0-.933.09-1.864.199-2.068.11-.205.255-1.076.324-1.936.068-.86.203-1.773.301-2.028.097-.255.176-1.128.176-1.939 0-.812.077-1.523.171-1.581.093-.058.188-.761.209-1.562.047-1.745.077-1.969.313-2.348.101-.161.215-1.061.255-2 .04-.939.158-1.738.262-1.775.105-.036.19-.851.19-1.81 0-.958.087-1.83.194-1.937.107-.107.231-.966.276-1.909.046-.943.189-1.914.319-2.157.13-.243.221-.639.202-.881-.086-1.073.024-2.553.183-2.455.095.059.19-.72.211-1.731.02-1.011.113-1.932.207-2.046.093-.114.218-.995.277-1.957.059-.963.159-1.833.221-1.934.063-.101.168-.889.234-1.75s.2-1.718.298-1.903c.098-.185.178-1.057.178-1.938s.071-1.645.158-1.699c.167-.104.277-1.005.312-2.576.012-.522.096-.95.187-.95.092 0 .115-.084.052-.186-.064-.103-.024-.243.088-.312.112-.069.203-.835.203-1.702s.09-1.632.2-1.7c.11-.068.2-.921.2-1.895s.088-1.802.195-1.838c.107-.037.25-.877.318-1.867.069-.99.206-1.886.306-1.99.099-.105.181-.977.181-1.938 0-.962.09-1.804.2-1.872.11-.068.201-.771.203-1.562.002-.791.133-1.798.291-2.238.159-.44.292-1.402.297-2.138.005-.736.088-1.387.185-1.447.097-.06.19-.898.206-1.862.016-.964.117-1.783.224-1.82.107-.036.194-.851.194-1.81 0-.959.094-1.837.209-1.952.115-.115.26-.966.323-1.89.062-.925.182-1.771.266-1.881.084-.11.169-.962.189-1.893.02-.932.115-1.789.213-1.906.097-.118.217-.931.268-1.807.05-.877.174-1.819.275-2.094.101-.275.208-1.219.237-2.098.028-.879.122-1.644.207-1.7.085-.056.174-.819.198-1.694.024-.876.092-1.67.15-1.765.147-.238.665-4.115.793-5.943.058-.825.178-1.59.266-1.7.088-.11.174-1.007.192-1.994.017-.986.122-1.849.232-1.917.11-.068.228-.795.262-1.615s.155-1.667.27-1.883c.114-.215.218-1.153.231-2.083.013-.931.113-1.782.221-1.89.109-.109.198-.945.198-1.858 0-.913.075-1.66.167-1.66.091 0 .178-.112.191-.25.014-.138.078-.88.142-1.65.064-.77.203-1.889.309-2.487.105-.597.191-1.61.191-2.25 0-.642.09-1.163.2-1.163.117 0 .2-.671.2-1.613 0-.887.091-1.784.203-1.993.112-.209.253-1.123.313-2.032.06-.908.179-1.744.264-1.857.085-.113.147-.7.137-1.305l-.017-1.1h-8.2l-.064.896c-.035.493-.17 1.028-.3 1.188-.192.238-.18.26.064.116.241-.142.255-.12.073.112-.134.168-.242 1.198-.262 2.484-.019 1.207-.121 2.248-.226 2.313-.106.066-.232 1.148-.282 2.405-.05 1.257-.152 2.511-.226 2.786-.075.275-.176 1.445-.225 2.6-.049 1.155-.161 2.19-.249 2.3-.088.11-.174 1.188-.192 2.395-.017 1.207-.108 2.242-.2 2.3-.093.058-.222 1.14-.286 2.405-.065 1.265-.207 2.66-.317 3.1-.109.44-.201 1.627-.203 2.638-.003 1.011-.095 1.894-.205 1.962-.114.071-.2 1.091-.2 2.378 0 1.241-.063 2.318-.139 2.394-.213.213-.266.654-.346 2.883-.041 1.131-.168 2.168-.282 2.306-.115.137-.258 1.327-.319 2.644-.275 5.958-.353 7.001-.538 7.223-.108.131-.241 1.213-.296 2.405-.055 1.192-.174 2.395-.265 2.674-.09.279-.18 1.449-.2 2.6-.02 1.151-.121 2.178-.225 2.283-.105.104-.19 1.244-.19 2.533 0 1.428-.08 2.37-.206 2.412-.115.039-.256 1.074-.321 2.367-.063 1.264-.12 2.411-.127 2.548-.007.138-.088.25-.179.25-.092 0-.167 1.062-.167 2.36 0 1.298-.085 2.445-.189 2.55-.104.104-.204 1.225-.224 2.49-.019 1.265-.121 2.355-.226 2.422-.106.066-.241 1.146-.3 2.4-.059 1.253-.188 2.379-.287 2.501-.098.123-.163.393-.145.6.066.727-.03 4.143-.114 4.059-.046-.047-.106-.804-.133-1.683-.027-.88-.118-1.74-.203-1.913-.085-.172-.176-1.252-.202-2.4-.026-1.147-.123-2.241-.216-2.43-.093-.189-.202-1.3-.244-2.469-.042-1.176-.175-2.225-.297-2.347-.133-.133-.22-1.078-.22-2.393 0-1.195-.086-2.334-.191-2.53-.105-.196-.21-1.292-.233-2.436-.024-1.145-.118-2.132-.211-2.194-.092-.062-.222-1.187-.288-2.5-.067-1.313-.201-2.539-.299-2.724-.098-.185-.178-1.114-.178-2.063 0-.949-.08-1.878-.177-2.063-.098-.185-.232-1.372-.297-2.637-.066-1.265-.168-2.615-.226-3-.059-.385-.147-1.42-.196-2.3-.049-.88-.123-1.735-.165-1.9-.042-.165-.132-.525-.2-.8s-.169-1.265-.225-2.2c-.055-.935-.146-2.15-.201-2.7-.055-.55-.147-1.72-.205-2.6-.058-.88-.153-1.87-.211-2.2-.058-.33-.144-1.344-.191-2.252-.047-.909-.157-1.764-.244-1.9-.087-.137-.219-1.238-.293-2.448-.106-1.747-.345-4.8-.614-7.85-.012-.137-.097-.25-.188-.25-.092 0-.167-.861-.167-1.913s-.086-2.074-.192-2.271c-.105-.197-.205-1.294-.222-2.437-.016-1.143-.085-2.169-.152-2.279-.174-.284-.201-.536-.317-2.984-.058-1.201-.197-2.276-.311-2.39-.116-.116-.206-1.15-.206-2.366 0-1.188-.079-2.16-.175-2.16-.097 0-.194-.877-.216-1.95-.045-2.203-.113-2.933-.302-3.239-.111-.179-8.268-.337-8.322-.161M239.7 56.4c.068.11.48.2.916.2 1.187 0 3.57 1.697 3.581 2.55.002.138.093.25.203.25.11 0 .2.225.2.5s.09.5.2.5c.133 0 .2 14.563.2 43.288 0 28.643-.068 43.33-.2 43.412-.11.068-.2.343-.2.612 0 .268-.09.488-.2.488-.11 0-.2.135-.2.3 0 .786-1.942 2.267-3.2 2.441-.385.053-.785.178-.89.278-.256.244-1.256.231-1.41-.019-.068-.11-.512-.2-.987-.2-.524 0-.962-.118-1.113-.3-.137-.165-.382-.3-.544-.3-.162 0-.578-.202-.925-.45-.347-.247-.682-.45-.745-.45-.319-.001-1.786-1.962-1.786-2.387 0-.172-.072-.313-.16-.313-.636 0-1.074-82.108-.44-82.5.11-.068.2-.563.2-1.1 0-.537.09-1.032.2-1.1.11-.068.2-.305.2-.526 0-.221.136-.538.302-.704.166-.166.25-.386.187-.488-.063-.101.026-.239.198-.305.172-.066.313-.27.313-.454s.279-.579.621-.878c.341-.3.559-.545.485-.545-.074 0 0-.135.165-.3.165-.165.397-.3.515-.3s.214-.08.214-.178c0-.098.225-.235.5-.304s.5-.214.5-.322c0-.108.31-.196.688-.196.379 0 .744-.09.812-.2.068-.11.428-.2.8-.2.372 0 .732.09.8.2m132.1 0c0 .11.462.2 1.027.2.844 0 1.111.091 1.5.51.26.281.473.405.473.276 0-.458 1.957 1.826 2.112 2.465.087.357.188 9.221.225 19.699l.067 19.05h-12.318l.024-19.05.024-19.05.461-.9c.881-1.717 2.541-3 3.883-3 .384 0 .754-.09.822-.2.068-.11.478-.2.912-.2.433 0 .788.09.788.2"/><path fill="#141c24" d="M330.4 2.96c-.275.187-.53.407-.567.49-.036.083-.194.15-.35.15-.19 0-.283.229-.283.7 0 .385.1.7.223.7.246 0 1.577 1.383 1.577 1.639 0 .089.135.161.3.161.256 0 .3.533.3 3.6s-.044 3.6-.3 3.6c-.217 0-.3.223-.3.806 0 .532.102.846.3.922.165.063.3.195.3.293 0 .099-.135.179-.3.179-.209 0-.3.21-.3.688 0 .379-.09.744-.2.812-.38.235-.205 1.15.312 1.629.465.43.484.504.2.787-.26.26-.312.915-.312 3.898 0 2.257-.074 3.586-.2 3.586-.123 0-.2 1-.2 2.6s-.077 2.6-.2 2.6c-.124 0-.2 1.067-.2 2.8v2.8h-3.8c-2.4 0-3.8.074-3.8.2 0 .121-.833.2-2.1.2-1.733 0-2.1.052-2.1.3 0 .238-.289.3-1.4.3-.8 0-1.4.086-1.4.2 0 .111-.533.2-1.2.2-.667 0-1.2.089-1.2.2 0 .11-.315.2-.7.2-.489 0-.7.09-.7.3 0 .187-.189.3-.5.3-.367 0-.5.107-.5.4 0 .222.133.4.3.4.165 0 .3.135.3.3 0 .167.178.3.4.3.22 0 .4.09.4.2 0 .11.225.2.5.2s.5.09.5.2c0 .11.215.2.479.2.263 0 .53.135.593.3.068.175.367.3.722.3.333 0 .606.09.606.2 0 .11.366.2.814.2.786 0 1.386-.34 1.386-.786 0-.118.135-.214.3-.214.165 0 .3-.09.3-.2 0-.11.18-.2.4-.2.22 0 .4-.09.4-.2 0-.11.219-.2.486-.2s.62-.135.785-.3c.165-.165.572-.3.903-.3.331 0 .658-.09.726-.2.068-.11.788-.2 1.6-.2s1.532-.09 1.6-.2c.072-.117 1.202-.2 2.712-.2h2.588v1.1c0 .605-.09 1.1-.2 1.1-.11 0-.2.186-.2.414 0 .228-.135.55-.3.715-.264.264-.3 4.243-.3 33.392 0 29.23.035 33.105.3 33.207.265.101.3 4.164.3 34.893 0 23.053.067 34.779.2 34.779.127 0 .2 1.467.2 4s.073 4 .2 4c.11 0 .2.498.2 1.106 0 .799.083 1.139.3 1.222.185.071.3.375.3.793 0 .374.09.679.2.679.11 0 .2.315.2.7 0 .489.09.7.3.7s.3.211.3.7c0 .385.09.7.2.7.11 0 .2.315.2.7 0 .385.09.7.2.7.11 0 .2.141.2.313 0 .702 1.293.263 1.363-.463.034-.358.147-.65.25-.65.103 0 .187-.215.187-.479 0-.263.135-.53.3-.593.174-.067.3-.366.3-.71 0-.327.09-.65.2-.718.11-.068.2-.523.2-1.012 0-.656.078-.888.3-.888.222 0 .3-.233.3-.9 0-.495.09-.9.2-.9.117 0 .2-.667.2-1.6s.083-1.6.2-1.6c.132 0 .2-8.038.2-23.714 0-20.813.037-23.751.3-24.015.264-.264.3-4.409.3-34.885 0-22.924.067-34.586.2-34.586.131 0 .2-4.133.2-12s-.069-12-.2-12c-.11 0-.2-.219-.2-.486s-.135-.62-.3-.785c-.165-.165-.3-.577-.3-.915 0-.338-.09-.614-.2-.614-.11 0-.2-.315-.2-.7v-.7h2.8c1.733 0 2.8.076 2.8.2 0 .116.633.2 1.5.2s1.5.084 1.5.2c0 .11.405.2.9.2.667 0 .9.078.9.3 0 .187.189.3.5.3.275 0 .5.09.5.2 0 .11.18.2.4.2.22 0 .4.09.4.2 0 .11.225.2.5.2s.5.096.5.214c0 .446.6.786 1.386.786.448 0 .814-.09.814-.2 0-.11.225-.2.5-.2.311 0 .5-.113.5-.3s.189-.3.5-.3c.275 0 .5-.09.5-.2 0-.11.225-.2.5-.2s.5-.09.5-.2c0-.11.173-.2.384-.2.728 0 1.016-.233 1.016-.821 0-.362-.105-.579-.279-.579-.153 0-.33-.135-.393-.3-.076-.198-.39-.3-.922-.3-.443 0-.806-.09-.806-.2 0-.11-.45-.2-1-.2s-1-.09-1-.2c0-.114-.593-.2-1.379-.2-1.041 0-1.406-.073-1.493-.3-.093-.242-.545-.3-2.322-.3-1.337 0-2.206-.079-2.206-.2 0-.126-1.4-.2-3.8-.2h-3.8v-3.5c0-2.2-.074-3.5-.2-3.5-.127 0-.2-1.52-.2-4.16 0-2.288-.083-4.245-.185-4.35-.303-.311-.361-3.741-.065-3.84.166-.055.25-.519.25-1.373 0-.847-.086-1.322-.25-1.385-.182-.07-.231-.587-.18-1.894.06-1.544.025-1.798-.25-1.798-.278 0-.32-.359-.32-2.7 0-2.267.048-2.7.3-2.7.167 0 .3-.178.3-.4 0-.22.09-.4.2-.4.11 0 .2-.096.2-.214 0-.277.509-.786.786-.786.118 0 .214-.08.214-.177 0-.097.18-.223.4-.281.772-.202-.188-1.942-1.072-1.942-.18 0-.328-.09-.328-.2 0-.38-6.22-.233-6.8.16m-169.067.173c-.073.074-.133 34.814-.133 77.2V157.4h8.4V3h-4.067c-2.236 0-4.126.06-4.2.133M194.672 33.9c-.063.165-.289.3-.502.3-.409 0-1.37.835-1.37 1.191 0 .115-.135.209-.3.209-.167 0-.3.178-.3.4 0 .22-.09.4-.2.4-.121 0-.2.867-.2 2.2 0 1.333.079 2.2.2 2.2.11 0 .2.18.2.4 0 .222.133.4.3.4.165 0 .3.102.3.227 0 .322 1.036 1.172 1.429 1.173.18 0 .38.135.443.3.09.234.49.3 1.828.3s1.738-.066 1.828-.3c.063-.165.285-.3.493-.3.209 0 .379-.09.379-.2 0-.11.096-.2.214-.2.277 0 .786-.509.786-.786 0-.118.096-.214.214-.214.406 0 .786-.573.786-1.186 0-.338.09-.614.2-.614.111 0 .2-.533.2-1.2 0-.667-.089-1.2-.2-1.2-.11 0-.2-.276-.2-.614 0-.338-.112-.733-.25-.878-.137-.145-.42-.499-.628-.786-.208-.287-.545-.522-.75-.522-.205 0-.372-.09-.372-.2 0-.11-.17-.2-.379-.2-.208 0-.43-.135-.493-.3-.09-.234-.49-.3-1.828-.3s-1.738.066-1.828.3M72.8 49.4c0 .11-.408.2-.906.2-.621 0-.943.094-1.022.3-.071.185-.375.3-.793.3-.374 0-.679.09-.679.2 0 .11-.18.2-.4.2-.22 0-.4.09-.4.2 0 .11-.183.2-.406.2-.224 0-.458.135-.522.3-.063.165-.202.3-.308.3-.216 0-.764.502-.764.7 0 .167-.533.7-.7.7-.208 0-.7.553-.7.786 0 .118-.09.214-.2.214-.11 0-.2.18-.2.4 0 .222-.133.4-.3.4-.187 0-.3.189-.3.5 0 .275-.09.5-.2.5-.11 0-.2.315-.2.7 0 .385-.09.7-.2.7-.116 0-.2.66-.2 1.579 0 1.218-.068 1.604-.3 1.693-.457.176-.457 86.28 0 86.456.227.087.3.452.3 1.493 0 .786.086 1.379.2 1.379.11 0 .2.315.2.7 0 .385.09.7.2.7.11 0 .2.225.2.5 0 .311.113.5.3.5s.3.189.3.5c0 .275.09.5.2.5.11 0 .2.141.2.313 0 .407 2.08 2.487 2.487 2.487.172 0 .313.09.313.2 0 .11.225.2.5.2.311 0 .5.113.5.3s.189.3.5.3c.275 0 .5.09.5.2 0 .11.175.2.388.2.214 0 .444.09.512.2.068.11.613.2 1.212.2.834 0 1.088.07 1.088.3 0 .257.59.3 4.106.3 3.466 0 4.125-.047 4.222-.3.08-.21.408-.3 1.093-.3.539 0 .979-.09.979-.2 0-.11.211-.2.469-.2.559 0 1.731-.552 1.731-.815 0-.102.135-.185.3-.185.165 0 .3-.09.3-.2 0-.11.137-.2.304-.2.422 0 2.496-2.046 2.496-2.461 0-.187.09-.339.2-.339.11 0 .2-.135.2-.3 0-.165.068-.301.15-.301.252-.002.85-1.201.85-1.703 0-.26.09-.528.2-.596.11-.068.2-.694.2-1.39 0-.945.077-1.297.301-1.383.266-.102.296-1.713.25-13.371L91.5 120.9l-4.45-.054-4.45-.054v13.604c0 8.936-.069 13.604-.2 13.604-.11 0-.2.169-.2.376 0 .507-1.499 2.024-2 2.024-.22 0-.4.09-.4.2 0 .11-.405.2-.9.2-.667 0-.9.078-.9.3 0 .183-.187.3-.479.3-.263 0-.53-.135-.593-.3-.083-.217-.423-.3-1.222-.3-.608 0-1.106-.09-1.106-.2 0-.11-.186-.2-.414-.2-.392 0-.986-.422-.986-.7 0-.071-.112-.254-.25-.407-.638-.712-.75-.903-.75-1.285 0-.224-.09-.408-.2-.408-.133 0-.2-14.667-.2-43.6s.067-43.6.2-43.6c.11 0 .2-.315.2-.7 0-.391.101-.7.228-.7.307 0 .758-.618.766-1.05.004-.215.161-.35.406-.35.22 0 .4-.09.4-.2 0-.11.135-.2.3-.2.165 0 .3-.09.3-.2 0-.11.498-.2 1.106-.2.799 0 1.139-.083 1.222-.3.063-.165.33-.3.593-.3.292 0 .479.117.479.3 0 .222.233.3.9.3.495 0 .9.09.9.2 0 .11.186.2.414.2.392 0 .986.422.986.7 0 .208.553.7.786.7.118 0 .214.315.214.7 0 .385.09.7.2.7.131 0 .2 4.201.2 12.204v12.204l4.45-.054 4.45-.054.052-12.256c.045-10.769.015-12.269-.25-12.371-.222-.085-.302-.429-.302-1.294 0-.653-.089-1.179-.2-1.179-.11 0-.2-.315-.2-.7 0-.385-.09-.7-.2-.7-.11 0-.2-.183-.2-.406 0-.224-.135-.458-.3-.522-.165-.063-.3-.285-.3-.493 0-.209-.09-.379-.2-.379-.11 0-.2-.096-.2-.214s-.112-.333-.25-.478c-.137-.145-.42-.499-.628-.786-.208-.287-.524-.522-.703-.522-.178 0-.493-.225-.7-.5-.206-.275-.542-.5-.747-.5-.205 0-.372-.09-.372-.2 0-.11-.18-.2-.4-.2-.22 0-.4-.09-.4-.2 0-.11-.305-.2-.679-.2-.418 0-.722-.115-.793-.3-.079-.206-.401-.3-1.022-.3-.498 0-.906-.09-.906-.2 0-.127-1.6-.2-4.4-.2-2.8 0-4.4.073-4.4.2m48 0c0 .111-.533.2-1.2.2-.933 0-1.2.067-1.2.3 0 .222-.233.3-.9.3-.495 0-.9.09-.9.2 0 .11-.225.2-.5.2s-.5.09-.5.2c0 .11-.131.2-.291.2-.16 0-.516.225-.791.5s-.594.5-.709.5c-.115 0-.209.094-.209.209 0 .272-.919 1.191-1.191 1.191-.115 0-.209.135-.209.3 0 .165-.09.3-.2.3-.11 0-.2.18-.2.4 0 .22-.09.4-.2.4-.11 0-.2.225-.2.5 0 .311-.113.5-.3.5-.227 0-.3.244-.3 1 0 .55-.09 1-.2 1-.131 0-.2 4.033-.2 11.7v11.7h8.4v-9.7c0-6.333.069-9.7.2-9.7.11 0 .2-.495.2-1.1 0-.844.07-1.1.3-1.1.168 0 .3-.179.3-.407 0-.465 1.067-1.593 1.507-1.593.161 0 .293-.09.293-.2 0-.11.225-.2.5-.2s.5-.09.5-.2c0-.11.498-.2 1.106-.2.799 0 1.139-.083 1.222-.3.063-.165.292-.3.508-.3.216 0 .528.135.693.3.176.176.665.3 1.185.3.487 0 .886.09.886.2 0 .11.225.2.5.2s.5.09.5.2c0 .11.096.2.214.2.256 0 .786.501.786.742 0 .093.18.299.4.458.26.187.4.518.4.944 0 .45.094.656.3.656.264 0 .3 1.922.3 16.1v16.1h-4c-2.533 0-4 .073-4 .2 0 .114-.6.2-1.4.2-.8 0-1.4.086-1.4.2 0 .11-.408.2-.906.2-.621 0-.943.094-1.022.3-.063.165-.285.3-.493.3-.209 0-.379.09-.379.2 0 .11-.225.2-.5.2s-.5.09-.5.2c0 .11-.225.2-.5.2-.311 0-.5.113-.5.3 0 .167-.178.3-.4.3-.22 0-.4.09-.4.2 0 .11-.096.2-.214.2-.277 0-.786.509-.786.786 0 .118-.102.214-.227.214-.33 0-1.172 1.041-1.173 1.45 0 .192-.135.35-.3.35-.187 0-.3.189-.3.5 0 .275-.09.5-.2.5-.11 0-.2.225-.2.5s-.09.5-.2.5c-.11 0-.2.315-.2.7 0 .489-.09.7-.3.7-.23 0-.3.254-.3 1.088 0 .599-.09 1.144-.2 1.212-.131.081-.2 8.069-.2 23.312 0 15.325.068 23.188.2 23.188.11 0 .2.408.2.906 0 .621.094.943.3 1.022.171.065.3.364.3.693 0 .319.09.579.2.579.11 0 .2.135.2.3 0 .165.09.3.2.3.11 0 .2.18.2.4 0 .222.133.4.3.4.165 0 .3.096.3.214 0 .353.543.786.986.786.235 0 .414.13.414.3 0 .167.178.3.4.3.22 0 .4.09.4.2 0 .11.225.2.5.2s.5.09.5.2c0 .11.45.2 1 .2.756 0 1 .073 1 .3 0 .255.522.3 3.5.3 2.978 0 3.5-.045 3.5-.3 0-.222.233-.3.9-.3.495 0 .9-.09.9-.2 0-.11.225-.2.5-.2s.5-.09.5-.2c0-.11.18-.2.4-.2.222 0 .4-.133.4-.3 0-.165.094-.3.21-.3.382 0 2.19-1.974 2.19-2.39 0-.231.131-.41.3-.41.246 0 .3.344.3 1.9v1.9h8.4v-50.3c0-33.4-.067-50.3-.2-50.3-.11 0-.2-.315-.2-.7 0-.489-.09-.7-.3-.7-.187 0-.3-.189-.3-.5 0-.275-.09-.5-.2-.5-.11 0-.2-.169-.2-.375s-.315-.643-.7-.972c-.385-.329-.7-.668-.7-.753 0-.247-.666-.687-1.05-.694-.192-.003-.35-.141-.35-.306s-.135-.3-.3-.3c-.165 0-.3-.09-.3-.2 0-.11-.315-.2-.7-.2-.385 0-.7-.09-.7-.2 0-.11-.315-.2-.7-.2-.489 0-.7-.09-.7-.3 0-.222-.233-.3-.9-.3-.495 0-.9-.09-.9-.2 0-.128-1.767-.2-4.9-.2-3.133 0-4.9.072-4.9.2M14.4 51.6c0 .8.086 1.4.2 1.4.11 0 .2.495.2 1.1 0 .844.07 1.1.3 1.1.227 0 .3.244.3 1 0 .55.09 1 .2 1 .111 0 .2.533.2 1.2 0 .667.089 1.2.2 1.2.11 0 .2.453.2 1.006 0 .71.088 1.04.3 1.122.21.08.3.408.3 1.093 0 .539.09.979.2.979.11 0 .2.495.2 1.1 0 .605.09 1.1.2 1.1.11 0 .2.45.2 1 0 .756.073 1 .3 1 .233 0 .3.267.3 1.2 0 .667.089 1.2.2 1.2.11 0 .2.405.2.9s.09.9.2.9c.11 0 .2.498.2 1.106 0 .799.083 1.139.3 1.222.215.082.3.418.3 1.182 0 .586.09 1.122.2 1.19.11.068.2.523.2 1.012 0 .656.078.888.3.888.233 0 .3.267.3 1.2 0 .667.089 1.2.2 1.2.11 0 .2.405.2.9s.09.9.2.9c.111 0 .2.533.2 1.2 0 .933.067 1.2.3 1.2.233 0 .3.267.3 1.2 0 .667.089 1.2.2 1.2.11 0 .2.405.2.9s.09.9.2.9c.11 0 .2.498.2 1.106 0 .799.083 1.139.3 1.222.204.078.3.397.3.993 0 .484.09.879.2.879.111 0 .2.533.2 1.2 0 .667.089 1.2.2 1.2.11 0 .2.408.2.906 0 .621.094.943.3 1.022.215.082.3.419.3 1.193 0 .594.09 1.079.2 1.079.118 0 .2.7.2 1.7s-.082 1.7-.2 1.7c-.111 0-.2.533-.2 1.2 0 .933-.067 1.2-.3 1.2-.233 0-.3.267-.3 1.2 0 .667-.089 1.2-.2 1.2-.11 0-.2.495-.2 1.1 0 .605-.09 1.1-.2 1.1-.111 0-.2.533-.2 1.2 0 .933-.067 1.2-.3 1.2-.227 0-.3.244-.3 1 0 .55-.09 1-.2 1-.11 0-.2.49-.2 1.088 0 .599-.09 1.144-.2 1.212-.11.068-.2.613-.2 1.212 0 .834-.07 1.088-.3 1.088-.233 0-.3.267-.3 1.2 0 .667-.089 1.2-.2 1.2-.11 0-.2.495-.2 1.1 0 .605-.09 1.1-.2 1.1-.111 0-.2.533-.2 1.2 0 .933-.067 1.2-.3 1.2-.233 0-.3.267-.3 1.2 0 .667-.089 1.2-.2 1.2-.111 0-.2.533-.2 1.2 0 .933-.067 1.2-.3 1.2-.222 0-.3.232-.3.888 0 .489-.09.944-.2 1.012-.11.068-.2.613-.2 1.212 0 .598-.09 1.088-.2 1.088-.11 0-.2.501-.2 1.114 0 .724-.105 1.22-.3 1.415-.175.175-.3.663-.3 1.173 0 .481-.09.93-.2.998-.11.068-.2.613-.2 1.212 0 .598-.09 1.088-.2 1.088-.111 0-.2.533-.2 1.2 0 .933-.067 1.2-.3 1.2-.233 0-.3.267-.3 1.2 0 .667-.089 1.2-.2 1.2-.111 0-.2.533-.2 1.2 0 .667-.089 1.2-.2 1.2-.11 0-.2.495-.2 1.1 0 .844-.07 1.1-.3 1.1-.227 0-.3.244-.3 1 0 .55-.09 1-.2 1-.117 0-.2.667-.2 1.6v1.6h7v-.5c0-.275.09-.5.2-.5.11 0 .2-.485.2-1.079 0-.774.085-1.111.3-1.193.217-.083.3-.423.3-1.222 0-.608.09-1.106.2-1.106.111 0 .2-.533.2-1.2 0-.667.089-1.2.2-1.2.111 0 .2-.533.2-1.2 0-.933.067-1.2.3-1.2.233 0 .3-.267.3-1.2 0-.667.089-1.2.2-1.2.11 0 .2-.456.2-1.014 0-.635.112-1.127.3-1.315.199-.198.3-.697.3-1.473 0-.646.09-1.23.2-1.298.11-.068.2-.613.2-1.212 0-.598.09-1.088.2-1.088.111 0 .2-.533.2-1.2 0-.933.067-1.2.3-1.2.233 0 .3-.267.3-1.2 0-.667.089-1.2.2-1.2.11 0 .2-.495.2-1.1 0-.605.09-1.1.2-1.1.111 0 .2-.533.2-1.2 0-.933.067-1.2.3-1.2.233 0 .3-.267.3-1.2 0-.667.089-1.2.2-1.2.111 0 .2-.533.2-1.2 0-.667.089-1.2.2-1.2.11 0 .2-.485.2-1.079 0-.774.085-1.111.3-1.193.216-.083.3-.422.3-1.21 0-.602.09-1.15.2-1.218.11-.068.2-.613.2-1.212 0-.598.09-1.088.2-1.088.111 0 .2-.526.2-1.179 0-.863.08-1.209.3-1.293.224-.086.3-.445.3-1.422 0-.737.087-1.306.2-1.306.11 0 .2-.225.2-.5 0-.311.113-.5.3-.5.238 0 .3.289.3 1.4 0 .8.086 1.4.2 1.4.111 0 .2.533.2 1.2 0 .667.089 1.2.2 1.2.114 0 .2.6.2 1.4 0 1.111.062 1.4.3 1.4s.3.288.3 1.388c0 .764.09 1.444.2 1.512.11.068.2.613.2 1.212 0 .598.09 1.088.2 1.088.114 0 .2.6.2 1.4 0 1.111.062 1.4.3 1.4s.3.288.3 1.388c0 .764.09 1.444.2 1.512.11.068.2.703.2 1.412 0 .725.087 1.288.2 1.288.111 0 .2.533.2 1.2 0 .933.067 1.2.3 1.2.238 0 .3.288.3 1.388 0 .764.09 1.444.2 1.512.11.068.2.694.2 1.39 0 .942.077 1.297.3 1.382.217.083.3.423.3 1.222 0 .608.09 1.106.2 1.106.114 0 .2.596.2 1.388 0 .764.09 1.444.2 1.512.11.068.2.706.2 1.418 0 .966.076 1.324.3 1.41.223.085.3.44.3 1.382 0 .696.09 1.322.2 1.39.11.068.2.608.2 1.2s.09 1.132.2 1.2c.11.068.2.706.2 1.418 0 .966.076 1.324.3 1.41.204.078.3.397.3.993v.879h4.4c4.222 0 4.4-.016 4.4-.388 0-.214-.09-.444-.2-.512-.11-.068-.2-.613-.2-1.212 0-.834-.07-1.088-.3-1.088-.227 0-.3-.244-.3-1 0-.55-.09-1-.2-1-.11 0-.2-.495-.2-1.1 0-.605-.09-1.1-.2-1.1-.11 0-.2-.498-.2-1.106 0-.799-.083-1.139-.3-1.222-.21-.08-.3-.408-.3-1.093 0-.539-.09-.979-.2-.979-.11 0-.2-.495-.2-1.1 0-.605-.09-1.1-.2-1.1-.111 0-.2-.533-.2-1.2 0-.933-.067-1.2-.3-1.2-.233 0-.3-.267-.3-1.2 0-.667-.089-1.2-.2-1.2-.11 0-.2-.405-.2-.9s-.09-.9-.2-.9c-.111 0-.2-.533-.2-1.2 0-.933-.067-1.2-.3-1.2-.233 0-.3-.267-.3-1.2 0-.667-.089-1.2-.2-1.2-.11 0-.2-.405-.2-.9s-.09-.9-.2-.9c-.11 0-.2-.498-.2-1.106 0-.799-.083-1.139-.3-1.222-.22-.084-.3-.43-.3-1.293 0-.653-.089-1.179-.2-1.179-.11 0-.2-.405-.2-.9s-.09-.9-.2-.9c-.11 0-.2-.498-.2-1.106 0-.799-.083-1.139-.3-1.222-.22-.084-.3-.43-.3-1.293 0-.653-.089-1.179-.2-1.179-.11 0-.2-.495-.2-1.1 0-.844-.07-1.1-.3-1.1-.227 0-.3-.244-.3-1 0-.55-.09-1-.2-1-.111 0-.2-.533-.2-1.2 0-.667-.089-1.2-.2-1.2-.11 0-.2-.453-.2-1.006 0-.71-.088-1.04-.3-1.122-.21-.08-.3-.408-.3-1.093 0-.539-.09-.979-.2-.979-.11 0-.2-.49-.2-1.088 0-.599-.09-1.144-.2-1.212-.11-.068-.2-.613-.2-1.212 0-.834-.07-1.088-.3-1.088-.24 0-.3-.3-.3-1.5s.06-1.5.3-1.5c.222 0 .3-.233.3-.9 0-.495.09-.9.2-.9.111 0 .2-.533.2-1.2 0-.667.089-1.2.2-1.2.111 0 .2-.533.2-1.2 0-.933.067-1.2.3-1.2.23 0 .3-.256.3-1.1 0-.605.09-1.1.2-1.1.111 0 .2-.533.2-1.2 0-.667.089-1.2.2-1.2.111 0 .2-.533.2-1.2 0-.933.067-1.2.3-1.2.233 0 .3-.267.3-1.2 0-.667.089-1.2.2-1.2.11 0 .2-.366.2-.814 0-.457.132-.946.3-1.115.185-.184.3-.674.3-1.273 0-.536.09-1.03.2-1.098.11-.068.2-.613.2-1.212 0-.598.09-1.088.2-1.088.11 0 .2-.485.2-1.079 0-.774.085-1.111.3-1.193.217-.083.3-.423.3-1.222 0-.608.09-1.106.2-1.106.111 0 .2-.533.2-1.2 0-.667.089-1.2.2-1.2.111 0 .2-.533.2-1.2 0-.933.067-1.2.3-1.2.222 0 .3-.232.3-.888 0-.489.09-.944.2-1.012.11-.068.2-.613.2-1.212 0-.598.09-1.088.2-1.088.111 0 .2-.533.2-1.2 0-.933.067-1.2.3-1.2.23 0 .3-.256.3-1.1 0-.605.09-1.1.2-1.1.111 0 .2-.533.2-1.2 0-.667.089-1.2.2-1.2.111 0 .2-.533.2-1.2 0-.933.067-1.2.3-1.2.233 0 .3-.267.3-1.2 0-.667.089-1.2.2-1.2.11 0 .2-.495.2-1.1v-1.1h-3.414c-3.981 0-3.986.002-3.986 1.686 0 .857-.069 1.114-.3 1.114-.233 0-.3.267-.3 1.2 0 .667-.089 1.2-.2 1.2-.11 0-.2.495-.2 1.1 0 .605-.09 1.1-.2 1.1-.111 0-.2.533-.2 1.2 0 .933-.067 1.2-.3 1.2-.233 0-.3.267-.3 1.2 0 .667-.089 1.2-.2 1.2-.111 0-.2.533-.2 1.2 0 .667-.089 1.2-.2 1.2-.11 0-.2.485-.2 1.079 0 .774-.085 1.111-.3 1.193-.217.083-.3.423-.3 1.222 0 .608-.09 1.106-.2 1.106-.111 0-.2.526-.2 1.179 0 .863-.08 1.209-.3 1.293-.217.083-.3.423-.3 1.222 0 .608-.09 1.106-.2 1.106-.11 0-.2.49-.2 1.088 0 .599-.09 1.144-.2 1.212-.11.068-.2.604-.2 1.19 0 .764-.085 1.1-.3 1.182-.217.083-.3.423-.3 1.222 0 .608-.09 1.106-.2 1.106-.111 0-.2.533-.2 1.2 0 .667-.089 1.2-.2 1.2-.111 0-.2.533-.2 1.2 0 .933-.067 1.2-.3 1.2-.23 0-.3.256-.3 1.1 0 .605-.09 1.1-.2 1.1-.111 0-.2.533-.2 1.2 0 .667-.089 1.2-.2 1.2-.111 0-.2.533-.2 1.2 0 .933-.067 1.2-.3 1.2-.21 0-.3-.211-.3-.7 0-.385-.09-.7-.2-.7-.111 0-.2-.533-.2-1.2 0-.933-.067-1.2-.3-1.2-.238 0-.3-.289-.3-1.4 0-.8-.086-1.4-.2-1.4-.111 0-.2-.533-.2-1.2 0-.667-.089-1.2-.2-1.2-.11 0-.2-.498-.2-1.106 0-.799-.083-1.139-.3-1.222-.215-.082-.3-.419-.3-1.193 0-.594-.09-1.079-.2-1.079-.114 0-.2-.596-.2-1.388 0-.764-.09-1.444-.2-1.512-.11-.068-.2-.613-.2-1.212 0-.834-.07-1.088-.3-1.088-.233 0-.3-.267-.3-1.2 0-.667-.089-1.2-.2-1.2-.114 0-.2-.6-.2-1.4 0-.8-.086-1.4-.2-1.4-.11 0-.2-.498-.2-1.106 0-.799-.083-1.139-.3-1.222-.22-.084-.3-.43-.3-1.293 0-.653-.089-1.179-.2-1.179-.11 0-.2-.495-.2-1.1 0-.605-.09-1.1-.2-1.1-.111 0-.2-.529-.2-1.186 0-.787-.101-1.286-.3-1.485-.195-.195-.3-.691-.3-1.415 0-.613-.09-1.114-.2-1.114-.111 0-.2-.533-.2-1.2 0-.933-.067-1.2-.3-1.2-.233 0-.3-.267-.3-1.2 0-.667-.089-1.2-.2-1.2-.11 0-.2-.405-.2-.9v-.9h-8.4v1.4m177.4 52.2v53.6h8.4V50.2h-8.4v53.6m-60.2 17.4c0 18.711-.035 21.2-.3 21.2-.222 0-.3.232-.3.888 0 .489-.09.944-.2 1.012-.11.068-.2.383-.2.7 0 .317-.09.632-.2.7-.11.068-.2.298-.2.512 0 .213-.088.388-.196.388-.108 0-.253.225-.322.5s-.206.5-.304.5-.178.18-.178.4c0 .22-.09.4-.2.4-.11 0-.2.135-.2.3 0 .165-.096.3-.214.3-.277 0-.786.509-.786.786 0 .118-.163.214-.362.214-.2 0-.556.18-.792.4-.282.263-.706.4-1.238.4-.585 0-.808.083-.808.3 0 .165-.125.3-.279.3-.153 0-.33-.135-.393-.3-.083-.217-.423-.3-1.222-.3-.608 0-1.106-.09-1.106-.2 0-.11-.18-.2-.4-.2-.22 0-.4-.09-.4-.2 0-.11-.135-.2-.3-.2-.165 0-.3-.135-.3-.3 0-.165-.09-.3-.2-.3-.11 0-.2-.17-.2-.379 0-.208-.135-.43-.3-.493-.188-.073-.3-.378-.3-.822 0-.388-.09-.706-.2-.706-.132 0-.2-6.567-.2-19.3s.068-19.3.2-19.3c.117 0 .2-.667.2-1.6 0-1.289.058-1.6.3-1.6.187 0 .3-.189.3-.5 0-.275.09-.5.2-.5.11 0 .2-.19.2-.421 0-.232.225-.598.5-.815.275-.216.5-.566.5-.779 0-.252.138-.385.4-.385.22 0 .4-.09.4-.2 0-.11.135-.2.3-.2.165 0 .3-.09.3-.2 0-.11.225-.2.5-.2.311 0 .5-.113.5-.3 0-.21.211-.3.7-.3.385 0 .7-.09.7-.2 0-.125 1.233-.2 3.3-.2h3.3v21.2"/><path fill="#f02c34" d="M223.537 3.129c-.075.076-.134.28-.131.454.006.273.043.269.272-.033.311-.41 7.792-.545 7.99-.145.056.113.079.09.05-.05-.056-.278-7.912-.494-8.181-.226M238.5 49.4c-.068.11-.383.2-.7.2-.317 0-.636.096-.708.213-.198.32.079.496.351.224.131-.13.389-.237.574-.237.185 0 .64-.131 1.01-.292.657-.286.66-.293.135-.3-.296-.004-.594.082-.662.192m6.544.086c.299.156.794.313 1.1.348.306.036.619.152.695.259.185.259.439-.005.269-.28-.072-.117-.486-.213-.92-.213-.433 0-.788-.09-.788-.2 0-.11-.203-.199-.45-.199-.423.001-.417.018.094.285M366.9 49.4c-.068.11-.471.2-.895.2-.875 0-1.405.159-1.405.421 0 .099.135.179.3.179.165 0 .3-.09.3-.2 0-.11.338-.203.75-.207.75-.007 2.109-.571 1.412-.586-.186-.004-.394.083-.462.193m7.49-.01c.16.101.356.143.437.094.08-.05.202.001.271.113s.475.203.902.203c.427 0 .832.09.9.2.068.11.264.2.436.2.256 0 .267-.055.064-.3-.159-.192-.601-.3-1.224-.3-.537 0-.976-.09-.976-.2 0-.11-.247-.199-.55-.197-.412.002-.477.049-.26.187M235.6 50.4c0 .11-.135.2-.3.2-.165 0-.3.09-.3.2 0 .11-.18.2-.4.2-.249 0-.399.132-.397.35.002.268.043.288.172.083.094-.147.226-.262.294-.255.158.015 1.531-.79 1.531-.898 0-.044-.135-.08-.3-.08-.165 0-.3.09-.3.2m127.7 0c-.068.11-.343.2-.612.2-.268 0-.488.09-.488.2 0 .11-.113.2-.252.2s-.495.225-.791.5c-.297.275-.633.5-.748.5-.115 0-.209.152-.209.337 0 .269.114.229.561-.2.308-.295.668-.537.8-.537.131 0 .239-.072.239-.16 0-.089.45-.323 1-.521.55-.197 1-.44 1-.539 0-.243-.346-.229-.5.02m15 0c.068.11.253.2.412.2.158 0 .288-.09.288-.2 0-.11-.185-.2-.412-.2-.226 0-.356.09-.288.2m-129.612.506c.498.377.73.375.584-.006-.063-.165-.308-.297-.543-.294-.42.007-.421.013-.041.3m130.8 0c.214.162.506.294.65.294.144 0 .262.09.262.2 0 .11.124.2.276.2.151 0 .387.135.524.3.137.165.342.3.456.3.277 0-.862-.972-1.306-1.115-.192-.061-.35-.196-.35-.298 0-.103-.202-.184-.45-.181-.439.007-.44.014-.062.3m-146.038.993c-.329.374-.316.514.035.379.3-.115.604-.683.359-.67-.079.004-.256.135-.394.291m16.55-.151c0 .044.129.21.288.368.25.251.284.24.26-.081-.023-.297-.548-.573-.548-.287m55.346.973c-.08.08-.146.284-.146.452 0 .225.059.248.223.085.122-.123.188-.326.145-.453-.042-.127-.142-.164-.222-.084m76.854.041c0 .212.772.937.874.82.04-.045-.141-.288-.401-.539-.26-.251-.473-.378-.473-.281m-150.152.635c-.291.467-.309.603-.08.603.092 0 .27-.225.396-.5.27-.595.038-.67-.316-.103m19.326-.129c.122.148.176.315.119.372-.056.057.035.217.202.356.248.206.304.202.299-.022-.008-.321-.47-.974-.691-.974-.083 0-.052.121.071.268m106.876 1.043c-.386.42-.318.843.073.452.178-.178.29-.414.25-.524-.042-.116-.178-.085-.323.072m25.486.216c.19.29.38.426.421.302.041-.124-.061-.361-.227-.527-.472-.473-.574-.355-.194.225M252 54.676c0 .165.09.356.2.424.11.068.2-.011.2-.176 0-.165-.09-.356-.2-.424-.11-.068-.2.011-.2.176m19.803.574c-.002.303.087.55.197.55.253 0 .253-.409 0-.8-.151-.234-.195-.179-.197.25m8.453-.039c.016.214.1.389.187.389.086 0 .157.972.157 2.16 0 1.188.084 2.245.187 2.35.102.105.222.55.266.99.073.728.083.707.113-.233.019-.569-.052-1.064-.157-1.1-.105-.037-.205-1.119-.222-2.404-.024-1.73-.1-2.364-.296-2.439-.168-.064-.254.04-.235.287m-27.856.372c0 .12.084.217.187.217s.227.293.276.65c.073.542.084.519.062-.135-.021-.662-.525-1.365-.525-.732m52.529.417c-.095.385-.214 1.488-.265 2.45-.051.963-.176 1.75-.278 1.75-.102 0-.186.177-.186.394 0 .268.096.357.3.278.235-.09.3-.495.3-1.877 0-1.072.084-1.79.214-1.833.122-.041.186-.453.15-.967l-.064-.895-.171.7m52.471-.212c0 .214-.09.444-.2.512-.251.155-.264.7-.016.7.101 0 .244-.27.316-.6.072-.33.215-.6.316-.6s.184-.09.184-.2c0-.11-.135-.2-.3-.2-.165 0-.3.175-.3.388m26.998-.038c.111.192.294.61.408.928.313.88.447.486.154-.453-.142-.454-.371-.825-.51-.825-.185 0-.199.095-.052.35m-146.29.637c-.072.117-.403.213-.734.213-.331 0-.738.135-.903.3-.266.267-.266.3.003.3.166 0 .358-.09.426-.2.068-.11.383-.2.7-.2.54 0 .964-.302.74-.527-.055-.055-.159-.004-.232.114m1.292.073c0 .269.186.34.888.34.489 0 .944.09 1.012.2.068.11.291.2.495.2.204 0 .406.103.448.23.043.127.2.189.35.139.476-.159-1.167-.969-1.964-.969-.412 0-.857-.108-.989-.24-.187-.187-.24-.164-.24.1m130.709-.074c-.137.221.178.46.363.275.19-.19.155-.461-.06-.461-.104 0-.24.084-.303.186m-2.259.563c-.686.342-.853.651-.35.651.165 0 .3-.09.3-.2 0-.11.18-.2.4-.2.22 0 .4-.084.4-.187s.293-.224.65-.268l.65-.081-.7-.019c-.385-.011-.993.126-1.35.304m4.65-.21c.33.043.735.133.9.2.736.298 1.049.282.73-.038-.196-.195-.64-.29-1.266-.271-.637.02-.761.057-.364.109m-100.263 1.299c-.021.773.053 1.394.176 1.47.317.196.477-.058.227-.359-.119-.144-.25-.753-.291-1.355-.075-1.09-.075-1.089-.112.244m24.213-1.091c-.163.056-.238.447-.216 1.12.03.941.04.962.115.236.044-.439.175-.856.29-.927.284-.176.124-.538-.189-.429m-60.85.453c0 .11-.096.2-.214.2s-.35.135-.515.3c-.165.165-.243.3-.173.3s-.166.268-.524.595c-.358.327-.592.654-.519.727.147.146 1.345-1.054 1.345-1.347 0-.101.225-.286.5-.411.499-.228.678-.564.3-.564-.11 0-.2.09-.2.2m17.441.191c.276.442.47.387.29-.082-.065-.17-.212-.309-.326-.309-.132 0-.119.143.036.391m103.573.759c.013.487.034.504.186.15.235-.546.235-.7 0-.7-.11 0-.194.248-.186.55m19.586.594c0 .238.096.492.213.564.378.233.437-.068.107-.54l-.32-.457v.433m-132.184.206c-.011.302.099.449.334.447.216-.002.266-.059.13-.15-.121-.081-.271-.282-.334-.447-.077-.2-.12-.151-.13.15m121.211.651c-.015.056-.116.412-.225.791-.18.627-.169.661.118.374.18-.18.276-.518.225-.79-.05-.262-.103-.43-.118-.375m11.576.749c-.002.248.087.45.197.45.251 0 .251-.212 0-.6-.157-.243-.194-.214-.197.15M244.6 60.7c0 .165.09.3.2.3.11 0 .2-.135.2-.3 0-.165-.09-.3-.2-.3-.11 0-.2.135-.2.3m-11.75.211c-.137.15-.25.412-.25.583 0 .171-.109.486-.242.7-.134.213-.174.457-.09.541.204.204.525-.324.529-.868.002-.239.103-.467.226-.508.122-.041.19-.219.15-.397-.061-.27-.114-.278-.323-.051m62.95 1.822c0 .861.132.821.292-.089.067-.377.029-.644-.089-.644-.112 0-.203.33-.203.733M356 103.8c0 22.99.068 41.8.15 41.8.083 0 .15-18.81.15-41.8s-.067-41.8-.15-41.8c-.082 0-.15 18.81-.15 41.8m-51.969-40.4c-.02.275-.092.725-.161 1-.096.384-.068.448.116.276.14-.129.208-.551.161-1-.045-.439-.096-.559-.116-.276m-72.085.921c-.08.08-.143.333-.14.562.006.385.022.39.214.059.224-.384.167-.862-.074-.621m49.333.773c.072.493.321.601.321.139 0-.238-.082-.433-.182-.433-.101 0-.163.132-.139.294m-8.066 1.344c-.007.406.077.794.187.862.11.068.2.923.2 1.9 0 1.042.088 1.831.213 1.908.31.192.479-.055.242-.353-.111-.14-.22-.885-.242-1.655-.047-1.629-.575-3.978-.6-2.662m30.363.912c-.013.193-.013.417 0 .5.013.083-.066.15-.176.15-.11 0-.2.09-.2.2 0 .11.135.2.3.2.21 0 .3-.211.3-.7 0-.71-.18-.992-.224-.35m-21.865 2.497c.087.249.193 1.376.237 2.503.043 1.128.144 2.05.224 2.05.08 0 .169.334.196.742.073 1.077.232 1.082.232.008 0-.504-.086-.947-.191-.983-.105-.037-.205-1.074-.223-2.304-.026-1.787-.093-2.261-.333-2.353-.238-.092-.268-.021-.142.337m83.156 1.953c0 .825.036 1.163.079.75.043-.412.043-1.087 0-1.5-.043-.412-.079-.075-.079.75m-61.961-.141c-.085.197-.099.414-.031.483.203.203.367-.082.274-.476-.083-.35-.094-.35-.243-.007m-8.022.411c-.057.148-.072.891-.033 1.65l.071 1.38.039-1.45c.022-.807.128-1.45.239-1.45.11 0 .2-.09.2-.2 0-.296-.396-.243-.516.07m7.557 3.62c-.185.407-.174.472.068.379.16-.061.291-.282.291-.49 0-.506-.091-.478-.359.111m62.409 1.01c.003.44.044.596.091.348.048-.249.046-.609-.004-.8-.05-.192-.089.012-.087.452m-70.45.9c0 .33.035.6.077.6.043 0 .117-.27.166-.6.048-.33.013-.6-.078-.6s-.165.27-.165.6m-19.784.55c-.009.358.074.65.184.65.114 0 .217.71.24 1.65l.04 1.65.069-1.596c.038-.878-.018-1.778-.125-2-.107-.222-.239-.539-.294-.704-.054-.165-.106-.007-.114.35m27.584.333c0 .266-.106.519-.236.562-.136.046-.179.228-.101.43.074.193.207.305.296.251.18-.112.32-1.726.149-1.726-.059 0-.108.218-.108.483m62.664 1.917c0 .715.036 1.008.081.65.044-.358.044-.942 0-1.3-.045-.358-.081-.065-.081.65m-82.113-.5c.053.275.13.5.172.5.042 0 .077-.225.077-.5s-.078-.5-.172-.5c-.095 0-.13.225-.077.5m-7.522 2.281c-.202.125-.211.206-.037.314.274.17.48.019.379-.276-.042-.121-.183-.137-.342-.038m7.78 1.875c.005.024.134.494.286 1.044l.278 1 .014-.929c.009-.65-.077-.963-.287-1.043-.165-.064-.296-.096-.291-.072m81.855 2.144c0 .715.036 1.008.081.65.044-.357.044-.942 0-1.3-.045-.358-.081-.065-.081.65m-63.726.274c-.087.315-.108.623-.048.683.209.209.34-.123.273-.689l-.068-.568-.157.574m-7.605.459c-.073.074-.133.539-.133 1.034 0 1.039.134 1.06.22.033.033-.385.142-.812.244-.95.194-.263-.086-.362-.331-.117m7.306 2.004c-.022.46-.132 1.08-.245 1.378-.224.59-.109.88.22.551.116-.116.175-.769.135-1.486-.047-.844-.085-.995-.11-.443m-17.119.03c-.057.092-.025.43.071.75.174.579.175.578.192-.167.017-.739-.06-.91-.263-.583m-7.648.718c.026.729.528 1.331.528.632 0-.175-.084-.317-.187-.317-.102 0-.227-.248-.277-.55-.057-.344-.081-.256-.064.235m88.785.415c.002.55.041.751.087.447.045-.304.044-.754-.003-1-.048-.246-.085.003-.084.553M293 92.024c0 .354.05.384.298.178.301-.25.237-.602-.11-.602-.103 0-.188.191-.188.424m-16.4 1.852c0 .165.09.356.2.424.11.068.2-.011.2-.176 0-.165-.09-.356-.2-.424-.11-.068-.2.011-.2.176m7.505.551c.125.646.295.708.295.106 0-.293-.085-.533-.189-.533-.103 0-.151.192-.106.427M300 94.4c0 .22.09.4.2.4.11 0 .2-.18.2-.4 0-.22-.09-.4-.2-.4-.11 0-.2.18-.2.4m-22.98 2.826c-.012.458.104.826.317 1 .301.244.32.23.176-.126-.089-.22-.232-.67-.317-1l-.155-.6-.021.726m15.583.024c.003.364.04.393.197.15.251-.388.251-.6 0-.6-.11 0-.199.202-.197.45m72.254.45c.002.55.041.751.087.447.045-.304.044-.754-.003-1-.048-.246-.085.003-.084.553m-65.199.385c-.218.708-.212.754.067.475.17-.17.279-.523.242-.784-.056-.401-.105-.352-.309.309m-15.166.701c.081.131.191.526.246.876.152.974.298.942.226-.049-.038-.529-.175-.918-.342-.973-.175-.058-.223-.004-.13.146m-7.066 1.664c-.021 1.101.032 1.35.286 1.35.183 0 .253-.094.17-.228-.077-.126-.206-.734-.285-1.35l-.145-1.122-.026 1.35m21.974.338c0 .434-.09.844-.2.912-.3.185-.241.703.066.585.257-.098.491-2.285.244-2.285-.06 0-.11.355-.11.788M292 102.7c0 .385.035.7.078.7s.115-.315.16-.7c.045-.385.01-.7-.078-.7s-.16.315-.16.7m-6.913.963c-.056.145-.014.482.093.75.179.449.196.428.207-.263.013-.759-.116-.968-.3-.487m6.527 3.487c.013.487.034.504.186.15.235-.546.235-.7 0-.7-.11 0-.194.247-.186.55M278.4 108.8c0 .33.074.6.165.6.091 0 .126-.27.078-.6-.049-.33-.123-.6-.166-.6-.042 0-.077.27-.077.6m20.03-.162c-.017.296-.12.594-.23.662-.11.068-.2.921-.2 1.895 0 1.011-.088 1.815-.205 1.873-.113.056-.09.079.05.051.178-.036.273-.586.313-1.829.033-.977.152-1.835.266-1.905.115-.071.169-.389.122-.707l-.086-.578-.03.538m-13.027.212c.007.571.391.863.394.3.002-.303-.087-.55-.197-.55-.11 0-.199.113-.197.25m-6.576 3.6c-.02.57.051.75.297.75.236 0 .269-.068.12-.25-.113-.137-.247-.475-.298-.75-.067-.369-.099-.303-.119.25m12.306-.517c-.073.074-.133 1.154-.133 2.4 0 1.378-.078 2.267-.2 2.267-.11 0-.186.383-.168.85.028.737.043.763.113.2.044-.357.165-.65.268-.65.106 0 .187-1.026.187-2.36 0-1.569.08-2.44.24-2.6.144-.144.157-.24.033-.24-.113 0-.266.06-.34.133m-5.211 1.491c.098.152.233.906.3 1.676l.123 1.4-.023-1.584c-.016-1.159-.097-1.609-.3-1.676-.196-.065-.225-.011-.1.184m-6.522 3.564c0 .227.09.412.2.412.11 0 .2-.13.2-.288 0-.159-.09-.344-.2-.412-.11-.068-.2.062-.2.288m7 1.412c0 .22.09.4.2.4.11 0 .2-.18.2-.4 0-.22-.09-.4-.2-.4-.11 0-.2.18-.2.4m78.464 1.2c0 .715.036 1.008.081.65.044-.358.044-.942 0-1.3-.045-.357-.081-.065-.081.65m-68.014.779c-.137.448-.25 1.428-.25 2.178 0 .793-.1 1.463-.24 1.603-.187.187-.164.24.1.24.294 0 .34-.237.34-1.76 0-.998.094-1.854.217-1.977.119-.119.187-.415.15-.657-.052-.341-.123-.257-.317.373m-17.036.171c-.008.358.076.65.186.65.237 0 .237-.347 0-.9-.144-.335-.174-.295-.186.25m.415 2.879c-.023 1.055.037 1.354.293 1.452.25.096.287.044.167-.229-.086-.193-.218-.847-.293-1.452l-.137-1.1-.03 1.329m9.492 3.287c-.066.174-.121 1.344-.121 2.6 0 1.389-.078 2.284-.2 2.284-.11 0-.186.383-.168.85.028.737.043.763.113.2.044-.358.154-.65.245-.65s.18-1.057.197-2.35c.018-1.292.118-2.435.223-2.54.24-.24.248-.71.011-.71-.098 0-.233.142-.3.316m-2.521 1.244c0 .088.082.246.183.35.101.105.223.415.273.69.057.32.099.194.117-.35.02-.634-.049-.85-.273-.85-.165 0-.3.072-.3.16m77.65 1.54c.003.44.044.596.091.348.048-.249.046-.609-.004-.8-.05-.192-.089.012-.087.452m-69.223 1.633c-.015.349-.139.679-.277.735-.196.079-.194.104.006.116.33.021.5-.428.387-1.019-.069-.363-.094-.327-.116.168m-14.424.617c-.002.358.087.65.197.65.115 0 .217.744.241 1.75l.04 1.75.068-1.669c.042-1.043-.017-1.772-.158-1.942-.124-.149-.179-.347-.121-.44.057-.092.021-.299-.08-.459-.134-.211-.185-.113-.187.36m6.6 1c.009.438.391.729.394.3.002-.247-.087-.45-.197-.45-.11 0-.199.067-.197.15m77.047.95c.003.44.044.596.091.348.048-.249.046-.609-.004-.8-.05-.192-.089.012-.087.452m0 3.2c.003.44.044.596.091.348.048-.249.046-.609-.004-.8-.05-.192-.089.012-.087.452m-76.516 1c.109.22.221 1.119.248 1.999.066 2.155.218 2.19.218.051 0-.945.03-1.837.067-1.984.037-.146.028-.195-.019-.108-.048.087-.228.042-.4-.1-.273-.225-.288-.207-.114.142m6.174 1.087c-.072.117-.059.214.03.216.089.002.027.09-.138.197-.21.136-.223.195-.044.197.141.002.31-.136.375-.306.141-.368-.035-.609-.223-.304M282.2 140c0 .22.09.4.2.4.11 0 .2-.18.2-.4 0-.22-.09-.4-.2-.4-.11 0-.2.18-.2.4m82.65 1.7c.003.44.044.596.091.348.048-.249.046-.609-.004-.8-.05-.192-.089.012-.087.452m-70.675.1c-.032.769-.049.849-.24 1.15-.102.161-.048.25.153.25.241 0 .312-.228.312-1 0-1.072-.183-1.398-.225-.4m-11.548 1.35c-.015.468.063.85.173.85.114 0 .217.71.24 1.65l.04 1.65.069-1.596c.038-.878-.021-1.778-.131-2-.111-.222-.238-.629-.282-.904-.049-.296-.093-.154-.109.35m-50.676 2.15c.053.275.13.5.172.5.042 0 .077-.225.077-.5s-.078-.5-.172-.5c-.095 0-.13.225-.077.5m.444 1.432c.113.056.205.235.205.398 0 .279.699 1.324 1.425 2.13.29.323.337.327.447.04.068-.176.051-.276-.039-.221-.157.098-.833-.558-.833-.808 0-.068-.169-.271-.376-.45-.207-.18-.41-.498-.45-.707-.041-.21-.189-.404-.329-.432-.14-.029-.163-.006-.05.05m50.724.837c-.069.112-.028.264.091.337.308.19.506-.07.249-.327-.143-.143-.255-.147-.34-.01m-39.103.881c.01.301.053.35.13.15.063-.165.213-.366.334-.447.136-.091.086-.148-.13-.15-.235-.002-.345.145-.334.447m132.317-.317c-.073.074-.133.279-.133.456 0 .178-.18.452-.4.611-.419.302-.543.8-.2.8.11 0 .2-.113.2-.252s.225-.495.5-.791c.605-.653.637-1.427.033-.824m-123.241.767c-.084.22-.197.49-.251.6-.054.11.061.051.254-.13.193-.182.306-.452.251-.6-.07-.19-.145-.152-.254.13m132.108.2c0 .165.09.3.2.3.11 0 .2-.135.2-.3 0-.165-.09-.3-.2-.3-.11 0-.2.135-.2.3m-141.6.1c0 .11-.135.2-.3.2-.165 0-.3.128-.3.283 0 .156-.112.324-.25.373-.137.049-.203.141-.145.205.058.064.408-.194.778-.573.37-.378.571-.688.445-.688-.125 0-.228.09-.228.2m122.35-.068c.138.056.25.234.25.396 0 .163.082.245.183.183.101-.063.228 0 .284.138.078.193.105.19.117-.013.021-.341-.479-.841-.82-.82-.201.012-.205.039-.014.116m-72.802.85c-.083.375-.105.728-.049.783.208.209.327-.148.265-.796l-.064-.669-.152.682m91.875.268c-.013.192-.113.35-.223.35s-.2.217-.2.483-.112.529-.25.585c-.149.06-.109.107.1.116.241.011.35-.134.35-.467 0-.266.1-.517.223-.558.122-.041.178-.251.123-.467-.083-.326-.103-.333-.123-.042M357 150.5c0 .165.09.3.2.3.11 0 .2.225.2.5 0 .297.115.5.282.5.225 0 .204-.161-.105-.8-.409-.846-.577-.992-.577-.5m-120.4.2c.149.179.586.3 1.084.3.46 0 .942.107 1.073.237.272.272.549.096.351-.224-.072-.117-.576-.213-1.12-.213-.543 0-.988-.09-.988-.2 0-.11-.146-.2-.324-.2-.266 0-.28.054-.076.3m4.926.005c-.095.248-.044.265.279.093.463-.249.507-.398.116-.398-.153 0-.331.137-.395.305M368 150.7c.144.174.581.3 1.038.3.433 0 .973.099 1.198.219.324.174.392.163.321-.05-.057-.173-.493-.29-1.223-.329-.624-.033-1.134-.145-1.134-.25 0-.104-.101-.19-.224-.19-.156 0-.148.093.024.3m-128.2.424c0 .236.068.269.25.12.138-.113.475-.247.75-.298.369-.067.303-.099-.25-.119-.57-.02-.75.051-.75.297m43.8.143c0 .293.089.533.199.533.109 0 .171-.178.138-.395-.095-.626-.337-.725-.337-.138m88.003-.117c.002.233.053.271.153.114.083-.13.554-.272 1.047-.315l.897-.079-1.05-.035c-.881-.029-1.05.021-1.047.315m-119.464.529c-.081.208-.101.425-.044.483.183.182.343-.117.267-.496-.07-.348-.081-.348-.223.013m40.661 1.309c0 .544-.09 1.044-.2 1.112-.302.187-.24.5.1.5.236 0 .3-.278.3-1.3 0-.715-.045-1.3-.1-1.3-.055 0-.1.445-.1.988m90.945-.288c-.176.33-.681.935-1.123 1.344-.442.409-.719.796-.615.861.217.134 1.047-.635 1.246-1.156.074-.192.227-.349.341-.349.113 0 .206-.127.206-.283 0-.156.104-.318.23-.36.127-.042.186-.208.132-.367-.067-.201-.196-.106-.417.31m-132.095.171c-.33.723-.315.823.065.443.173-.173.285-.467.249-.653-.049-.253-.127-.201-.314.21m106.35-.388c0 .211.602.781.711.673.05-.051-.089-.255-.31-.455-.22-.2-.401-.298-.401-.218m.8 1.13c0 .11.135.251.3.315.165.063.3.207.3.32 0 .216 1.003 1.151 1.236 1.152.074 0 .277.141.45.314.173.173.314.216.314.096s-.404-.503-.898-.851c-.494-.349-.948-.789-1.008-.978-.121-.381-.694-.685-.694-.368m-74.8.942c0 .452.088.876.195.942.122.076.152-.201.078-.738-.155-1.134-.273-1.223-.273-.204m-33.565.076c-.256.313-.427.569-.381.569.214 0 .978-.801.916-.96-.039-.098-.279.078-.535.391m-17.635.535c0 .267.948 1.234 1.209 1.234.105 0 .191.14.191.312 0 .171.083.26.184.198.101-.063.32.022.486.188.166.166.465.296.666.289.327-.011.323-.03-.036-.181-.22-.093-.767-.515-1.216-.937-1.218-1.147-1.484-1.345-1.484-1.103m148.6.034c0 .11-.135.2-.3.2-.165 0-.299.158-.297.35.002.211.062.265.15.135.081-.118.304-.272.497-.343.373-.138.485-.542.15-.542-.11 0-.2.09-.2.2m-132.319.7c-.324.279-.459.5-.304.5.234 0 1.023-.717 1.023-.931 0-.146-.158-.052-.719.431m113.519.818c0 .165.201.282.483.282.266 0 .518.104.56.23.043.126.208.186.367.131.183-.062-.023-.251-.56-.512-.669-.325-.85-.353-.85-.131m15.939.13c-.795.413-.875.781-.089.404.248-.119.608-.266.8-.328.193-.061.35-.204.35-.318 0-.268-.144-.235-1.061.242m-130.989.066c-.627.341-.674.419-.25.419.165 0 .3-.075.3-.166 0-.092.135-.167.3-.167.165 0 .3-.09.3-.2 0-.246.02-.249-.65.114m44.583.819c-.199.199-.161.667.055.667.103 0 .174-.18.157-.4-.034-.452-.031-.448-.212-.267m-54.624.253c-.16.258.062.338.991.357.534.011.617-.014.25-.077-.303-.051-.55-.177-.55-.279 0-.243-.542-.243-.691-.001m6.591.13l-.6.284.685-.05c.376-.028.721-.162.766-.3.102-.311-.085-.296-.851.066m122.739-.098c.064.196.455.291 1.277.311 1.153.028 1.16.025.284-.119-.495-.082-1.07-.222-1.277-.311-.281-.121-.354-.09-.284.119m7.851-.033c-.104.101-.46.226-.79.277-.373.057-.265.082.284.065.51-.016.92-.133.967-.277.096-.292-.186-.332-.461-.065m-90.553 2.345c-.076.075-.125.504-.11.953.019.554.057.656.119.317.051-.275.188-.616.305-.758.228-.279-.067-.759-.314-.512m7.497 1.258c-.168.483-.154.569.081.479.157-.061.285-.325.285-.588 0-.639-.117-.604-.366.109m-.234 2.9c0 .379-.09.744-.2.812-.302.187-.24.5.1.5.227 0 .3-.244.3-1 0-.55-.045-1-.1-1-.055 0-.1.31-.1.688m-7.667.045c-.073.074-.122.501-.108.95l.025.817.15-.9c.158-.952.148-1.081-.067-.867M283 170.7c0 1.133-.081 1.9-.2 1.9-.11 0-.194.383-.187.85l.014.85.278-1c.152-.55.281-1.68.286-2.51.005-.896.107-1.608.249-1.75.187-.187.164-.24-.1-.24-.296 0-.34.245-.34 1.9m7.6-1.4c0 .165.09.3.2.3.11 0 .2-.135.2-.3 0-.165-.09-.3-.2-.3-.11 0-.2.135-.2.3m-.318 3.443c-.12.196-.239 1.029-.265 1.85-.026.821-.09 1.564-.144 1.65-.053.086-.001.157.115.157.13 0 .212-.566.212-1.46 0-.803.098-1.558.219-1.679.12-.12.188-.366.15-.546-.062-.294-.092-.291-.287.028m-.94 7.657c-.057.22-.023.45.077.512.099.061.181-.119.181-.4 0-.613-.114-.663-.258-.112m-7.609.333c-.073.074-.133 1.019-.133 2.1 0 1.178-.08 1.967-.2 1.967-.11 0-.188.293-.173.65.023.545.042.569.117.15.05-.275.172-.586.273-.69.101-.105.183-.977.183-1.938 0-.962.09-1.804.2-1.872.11-.068.2-.208.2-.312 0-.217-.272-.249-.467-.055m7.193 2.867c-.093.385-.211 1.509-.263 2.498-.054 1.034-.191 1.857-.323 1.939-.125.078-.17.2-.098.272.357.357.558-.269.558-1.734 0-.881.095-1.78.212-1.997.117-.218.183-.685.147-1.037l-.064-.641-.169.7m-8.112 5.55c.013.487.034.504.186.15.235-.546.235-.7 0-.7-.11 0-.194.247-.186.55m-.58 4.8c.027.934.048 1 .113.35.044-.44.164-.885.266-.99.277-.282.227-.51-.113-.51-.236 0-.293.246-.266 1.15m7.312 1c-.055.193-.165.508-.245.7-.102.248-.05.35.178.35.234 0 .321-.19.321-.7 0-.764-.097-.897-.254-.35"/></g></svg>