<svg xmlns="http://www.w3.org/2000/svg" role="img" viewBox="-2.92 -2.92 151.71 41.71"><title>XSKY (Beijing) Data Technology Corporation Limited logo</title><g fill="#ffc300"><path d="M31 1h4v4h-4zm4 0h1v4h-1z"/><path d="M30 3h5v2h-5z"/><path d="M29 4h6v1h-6zm-1 1h7v1h-7zm7 0h1v1h-1zm-8 1h5v1h-5zm5 0h1v1h-1zm-6 1h5v1h-5zm5 0h1v1h-1zm-6 1h5v1h-5zm5 0h1v1h-1zm-6 1h5v1h-5zm5 0h1v1h-1zm-6 1h5v1h-5zm5 0h1v1h-1zm-6 1h5v1h-5zm5 0h1v1h-1zm-6 1h5v1h-5zm5 0h1v1h-1zm-6 1h5v1h-5zm5 0h1v1h-1zm-5 1h4v1h-4zm4 0h1v1h-1zm-5 1h4v1h-4zm4 0h1v1h-1zm-5 1h4v1h-4zm4 0h1v1h-1zm-5 1h4v1h-4zm4 0h1v1h-1zm-5 1h4v1h-4zm4 0h1v1h-1zm-5 1h4v1h-4zm4 0h1v1h-1zm-5 1h4v1h-4zm4 0h1v1h-1zm-5 1h4v1h-4zm4 0h1v1h-1zm-5 1h4v1h-4zm4 0h1v1h-1zm-5 1h4v1h-4zm4 0h1v1h-1zm-5 1h4v1h-4zm4 0h1v1h-1zm-5 1h4v1H9zm4 0h1v1h-1zm-5 1h4v1H8zm4 0h1v1h-1zm-5 1h4v1H7zm4 0h1v1h-1zm-5 1h4v1H6zm4 0h1v1h-1zm-5 1h4v1H5zm4 0h1v1H9zm-5 1h4v1H4zm4 0h1v1H8zm-5 1h4v1H3zm4 0h1v1H7zm-5 1h4v1H2zm4 0h1v1H6zm-5 1h4v1H1zm4 0h1v1H5zm-3 1h2v1H2zm2 0h1v1H4z"/></g><path d="M25 7h1v1h-1zm8 0h1v1h-1zm3 0h1v1h-1zM24 8h1v1h-1zm8 0h1v1h-1zm-9 1h1v1h-1zm8 0h1v1h-1zm-9 1h1v1h-1zm8 0h1v1h-1zm-1 1h1v1h-1zm-1 1h1v1h-1zm-1 1h1v1h-1zm-1 1h1v1h-1zm-1 1h1v1h-1zm-1 1h1v1h-1zm-1 1h1v1h-1zm-1 1h1v1h-1zm-1 1h1v1h-1zm-1 1h1v1h-1zm-9 1h1v1h-1zm8 0h1v1h-1zm-9 1h1v1h-1zm8 0h1v1h-1zm-9 1h1v1H9zm8 0h1v1h-1zm-9 1h1v1H8zm8 0h1v1h-1zm-9 1h1v1H7zm8 0h1v1h-1zm-9 1h1v1H6zm8 0h1v1h-1zm-9 1h1v1H5zm8 0h1v1h-1zm-9 1h1v1H4zm8 0h1v1h-1zm-9 1h1v1H3zm8 0h1v1h-1zm-9 1h1v1H2zm8 0h1v1h-1zm-9 1h1v1H1zm-1 1h1v1H0zm2 3h1v1H2zm3 0h1v1H5z" fill="#ffc500"/><g fill="#fff"><path d="M2 0h1v1H2zm1 0h1v1H3zm1 0h1v1H4zm1 0h1v1H5zm42 0h1v1h-1zm1 0h1v1h-1zm1 0h1v1h-1zm1 0h21v1H50zm21 0h1v1h-1zm1 0h1v1h-1zm6 0h1v1h-1zm1 0h1v1h-1zm1 0h1v1h-1zm1 0h1v1h-1zm1 0h1v1h-1zm19 0h1v1h-1zm1 0h1v1h-1zm1 0h1v1h-1zm1 0h1v1h-1zm6 0h1v1h-1zm1 0h1v1h-1zm1 0h1v1h-1zm1 0h1v1h-1zm24 0h1v1h-1zm1 0h1v1h-1zm1 0h1v1h-1zm1 0h1v1h-1zM1 1h1v1H1zm1 0h1v1H2zm1 0h1v4H3zm1 0h1v5H4zm1 0h1v1H5zm1 0h1v1H6zm39 0h1v1h-1zm1 0h1v1h-1zm1 0h1v1h-1zm1 0h23v3H48zm23 0h1v2h-1zm1 0h1v1h-1zm5 0h1v1h-1zm1 0h1v1h-1zm1 0h2v33h-2zm2 0h1v33h-1zm1 0h1v15h-1zm18 0h1v1h-1zm1 0h1v1h-1zm1 0h2v4h-2zm2 0h1v3h-1zm1 0h1v1h-1zm1 0h1v1h-1zm2 0h1v1h-1zm1 0h1v1h-1zm1 0h2v3h-2zm2 0h1v5h-1zm1 0h1v1h-1zm1 0h1v1h-1zm22 0h1v1h-1zm1 0h1v1h-1zm1 0h2v4h-2zm2 0h1v3h-1zm1 0h1v1h-1zm1 0h1v1h-1zM0 2h1v1H0zm1 0h1v1H1z"/><path d="M2 2h3v2H2zm3 0h1v5H5zm1 0h1v1H6zm1 0h1v1H7zm37 0h1v1h-1zm1 0h1v1h-1zm1 0h25v2H46zm26 0h1v1h-1zm5 0h1v1h-1zm1 0h3v32h-3zm21 0h1v1h-1zm1 0h1v1h-1zm1 0h4v2h-4zm4 0h1v1h-1zm1 0h1v1h-1zm1 0h1v1h-1zm1 0h1v1h-1zm1 0h4v1h-4zm4 0h1v5h-1zm1 0h1v1h-1zm1 0h1v1h-1zm20 0h1v1h-1zm1 0h1v1h-1zm1 0h4v2h-4zm4 0h1v1h-1zm1 0h1v1h-1zm1 0h1v1h-1zM0 3h1v1H0z"/><path d="M1 3h5v1H1zm5 0h1v5H6zm1 0h1v1H7zm1 0h1v1H8zm35 0h1v1h-1zm1 0h1v1h-1zm1 0h26v1H45zm26 0h1v1h-1zm1 0h1v1h-1zm5 0h1v1h-1zm21 0h1v1h-1zm1 0h1v1h-1zm1 0h5v1h-5zm5 0h1v1h-1zm1 0h2v1h-2zm2 0h1v1h-1zm1 0h5v1h-5zm5 0h1v5h-1zm1 0h1v1h-1zm1 0h1v1h-1zm18 0h1v1h-1zm1 0h1v1h-1zm1 0h5v1h-5zm5 0h1v1h-1zm1 0h1v1h-1zm1 0h1v1h-1zM0 4h1v1H0zm1 0h1v1H1z"/><path d="M2 4h5v1H2zm5 0h1v5H7zm1 0h1v1H8zm1 0h1v1H9zm33 0h1v1h-1zm1 0h1v1h-1zm1 0h26v1H44zm26 0h1v1h-1zm1 0h1v1h-1zm1 0h1v1h-1zm5 0h1v30h-1zm20 0h1v1h-1zm1 0h6v1h-6zm6 0h1v1h-1zm1 0h1v1h-1zm1 0h1v1h-1zm2 0h1v1h-1zm1 0h1v1h-1zm1 0h5v1h-5zm5 0h1v5h-1zm1 0h1v1h-1zm1 0h1v1h-1zm16 0h1v1h-1zm1 0h1v1h-1zm1 0h5v1h-5zm5 0h1v1h-1zm1 0h1v1h-1zm1 0h1v1h-1zM1 5h1v1H1zm1 0h1v1H2z"/><path d="M3 5h5v1H3zm5 0h1v5H8zm1 0h1v1H9zm1 0h1v1h-1zm32 0h1v1h-1zm1 0h6v1h-6zm6 0h1v1h-1zm1 0h1v1h-1zm1 0h1v1h-1zm1 0h1v1h-1zm1 0h6v1h-6zm6 0h1v1h-1zm1 0h2v1h-2zm2 0h1v1h-1zm1 0h5v1h-5zm5 0h1v1h-1zm1 0h1v1h-1zm1 0h1v1h-1zm1 0h1v1h-1zm24 0h1v1h-1zm1 0h1v1h-1zm1 0h6v1h-6zm6 0h1v1h-1zm1 0h1v1h-1zm5 0h1v1h-1zm1 0h1v1h-1zm1 0h5v1h-5zm5 0h1v5h-1zm1 0h1v1h-1zm1 0h1v1h-1zm14 0h1v1h-1zm1 0h1v1h-1zm1 0h5v1h-5zm5 0h1v1h-1zm1 0h1v1h-1zm1 0h1v1h-1zM2 6h1v1H2zm1 0h1v1H3z"/><path d="M4 6h5v1H4zm5 0h1v5H9zm1 0h1v1h-1zm1 0h1v1h-1zm30 0h1v1h-1zm1 0h1v1h-1zm1 0h3v7h-3zm3 0h1v1h-1zm1 0h1v1h-1zm1 0h1v1h-1zm1 0h1v1h-1zm45 0h1v1h-1zm1 0h1v1h-1zm1 0h5v1h-5zm5 0h1v1h-1zm1 0h1v1h-1zm1 0h1v1h-1zm7 0h1v1h-1zm1 0h1v1h-1zm1 0h5v1h-5zm5 0h1v5h-1zm1 0h1v1h-1zm1 0h1v1h-1zm12 0h1v1h-1zm1 0h1v1h-1zm1 0h5v1h-5zm5 0h1v1h-1zm1 0h1v1h-1zm1 0h1v1h-1zM3 7h1v1H3zm1 0h1v1H4z"/><path d="M5 7h5v1H5zm5 0h1v5h-1zm1 0h1v1h-1zm1 0h1v1h-1zm29 0h1v1h-1zm1 0h4v4h-4zm4 0h1v1h-1zm1 0h1v1h-1zm46 0h1v1h-1zm1 0h1v1h-1zm1 0h5v1h-5zm5 0h1v1h-1zm1 0h1v1h-1zm1 0h1v1h-1zm9 0h1v1h-1zm1 0h1v1h-1zm1 0h5v1h-5zm5 0h1v5h-1zm1 0h1v1h-1zm1 0h1v1h-1zm10 0h1v1h-1zm1 0h1v1h-1zm1 0h5v1h-5zm5 0h1v1h-1zm1 0h1v1h-1zm1 0h1v1h-1zM4 8h1v1H4zm1 0h1v1H5z"/><path d="M6 8h5v1H6zm5 0h1v5h-1zm1 0h1v1h-1zm1 0h1v1h-1zm28 0h1v1h-1zm5 0h1v2h-1zm1 0h1v1h-1zm45 0h1v1h-1zm1 0h1v1h-1zm1 0h5v1h-5zm5 0h1v1h-1zm1 0h1v1h-1zm1 0h1v1h-1zm11 0h1v1h-1zm1 0h1v1h-1zm1 0h5v1h-5zm5 0h1v5h-1zm1 0h1v1h-1zm1 0h1v1h-1zm8 0h1v1h-1zm1 0h1v1h-1zm1 0h5v1h-5zm5 0h1v1h-1zm1 0h1v1h-1zm1 0h1v1h-1zM5 9h1v1H5zm1 0h1v1H6z"/><path d="M7 9h5v1H7zm5 0h1v5h-1zm1 0h1v1h-1zm1 0h1v1h-1zm27 0h1v1h-1zm50 0h1v1h-1zm1 0h1v1h-1zm1 0h5v1h-5zm5 0h1v1h-1zm1 0h1v1h-1zm1 0h1v1h-1zm13 0h1v1h-1zm1 0h1v1h-1zm1 0h5v1h-5zm5 0h1v5h-1zm1 0h1v1h-1zm1 0h1v1h-1zm6 0h1v1h-1zm1 0h1v1h-1zm1 0h5v1h-5zm5 0h1v1h-1zm1 0h1v1h-1zm1 0h1v1h-1zM6 10h1v1H6zm1 0h1v1H7z"/><path d="M8 10h5v1H8zm5 0h1v4h-1zm1 0h1v1h-1zm27 0h1v1h-1zm5 0h1v1h-1zm1 0h1v1h-1zm43 0h1v1h-1zm1 0h1v1h-1zm1 0h5v1h-5zm5 0h1v1h-1zm1 0h1v1h-1zm1 0h1v1h-1zm15 0h1v1h-1zm1 0h1v1h-1zm1 0h5v1h-5zm5 0h1v5h-1zm1 0h1v1h-1zm1 0h1v1h-1zm4 0h1v1h-1zm1 0h1v1h-1zm1 0h5v1h-5zm5 0h1v1h-1zm1 0h1v1h-1zm1 0h1v1h-1zM7 11h1v1H7zm1 0h1v1H8z"/><path d="M9 11h5v1H9zm5 0h1v2h-1zm1 0h1v1h-1zm26 0h1v1h-1zm1 0h4v1h-4zm4 0h1v5h-1zm1 0h1v1h-1zm42 0h1v1h-1zm1 0h1v1h-1zm1 0h5v1h-5zm5 0h1v1h-1zm1 0h1v1h-1zm1 0h1v1h-1zm17 0h1v1h-1zm1 0h1v1h-1zm1 0h5v1h-5zm5 0h1v5h-1zm1 0h1v1h-1zm1 0h1v1h-1zm2 0h1v1h-1zm1 0h1v1h-1zm1 0h5v1h-5zm5 0h1v1h-1zm1 0h1v1h-1zm1 0h1v1h-1zM8 12h1v1H8zm1 0h1v1H9z"/><path d="M10 12h5v1h-5zm5 0h1v1h-1zm1 0h1v1h-1zm25 0h1v1h-1zm1 0h1v1h-1zm5 0h1v4h-1zm1 0h1v1h-1zm1 0h1v1h-1zm39 0h1v1h-1zm1 0h6v1h-6zm6 0h1v1h-1zm1 0h1v1h-1zm1 0h1v1h-1zm19 0h1v1h-1zm1 0h1v1h-1zm1 0h5v1h-5zm5 0h1v22h-1zm1 0h1v1h-1zm1 0h1v1h-1zm1 0h1v1h-1zm1 0h5v1h-5zm5 0h1v1h-1zm1 0h1v1h-1zm1 0h1v1h-1zM9 13h1v1H9zm1 0h1v1h-1zm1 0h3v1h-3zm3 0h1v1h-1zm1 0h1v1h-1zm1 0h1v1h-1zm26 0h1v1h-1z"/><path d="M43 13h5v1h-5zm5 0h1v4h-1zm1 0h1v1h-1zm1 0h1v1h-1zm1 0h1v1h-1zm1 0h1v1h-1zm34 0h1v1h-1zm1 0h1v1h-1zm1 0h5v1h-5zm5 0h1v1h-1zm1 0h1v1h-1zm1 0h1v1h-1zm22 0h1v1h-1zm1 0h1v1h-1zm1 0h5v1h-5zm5 0h7v1h-7zm7 0h1v1h-1zm1 0h1v1h-1zm1 0h1v1h-1zM10 14h1v1h-1zm1 0h1v1h-1zm1 0h1v1h-1zm1 0h1v1h-1zm1 0h1v1h-1zm1 0h1v1h-1zm27 0h1v1h-1zm1 0h1v1h-1z"/><path d="M44 14h8v1h-8zm8 0h1v4h-1zm1 0h1v1h-1zm1 0h1v1h-1zm1 0h1v1h-1zm30 0h1v1h-1zm1 0h1v1h-1zm1 0h5v1h-5zm5 0h1v1h-1zm1 0h1v1h-1zm1 0h1v1h-1zm24 0h1v1h-1zm1 0h1v1h-1zm1 0h10v1h-10zm10 0h1v1h-1zm1 0h1v1h-1zm1 0h1v1h-1zM11 15h1v1h-1zm1 0h1v1h-1zm1 0h1v1h-1zm1 0h1v1h-1zm29 0h1v1h-1zm1 0h1v1h-1z"/><path d="M45 15h10v1H45zm10 0h1v4h-1zm1 0h1v1h-1zm1 0h1v1h-1zm1 0h1v1h-1zm26 0h1v1h-1zm1 0h1v1h-1zm1 0h5v1h-5zm5 0h1v1h-1zm1 0h1v1h-1zm1 0h1v1h-1zm26 0h1v1h-1zm1 0h1v1h-1zm1 0h8v1h-8zm8 0h1v1h-1zm1 0h1v1h-1zm1 0h1v1h-1zM12 16h1v1h-1zm1 0h1v1h-1zm31 0h1v1h-1zm1 0h1v1h-1z"/><path d="M46 16h12v1H46zm12 0h1v4h-1zm1 0h1v1h-1zm1 0h1v1h-1zm1 0h1v1h-1zm21 0h1v1h-1zm1 0h1v1h-1zm1 0h1v1h-1zm1 0h5v3h-5zm5 0h1v1h-1zm1 0h1v1h-1zm1 0h1v1h-1zm28 0h1v1h-1zm1 0h1v1h-1zm1 0h6v1h-6zm6 0h1v1h-1zm1 0h1v1h-1zm1 0h1v1h-1zm-85 1h1v1h-1zm1 0h1v1h-1zm1 0h1v1h-1z"/><path d="M48 17h13v1H48zm13 0h1v4h-1zm1 0h1v1h-1zm1 0h1v1h-1zm1 0h1v1h-1zm1 0h1v1h-1zm17 0h1v1h-1zm1 0h1v1h-1zm1 0h5v1h-5zm6 0h1v1h-1zm1 0h1v1h-1zm30 0h1v1h-1zm1 0h1v1h-1zm2 0h3v17h-3zm3 0h1v17h-1zm1 0h1v1h-1zm1 0h1v1h-1zm-82 1h1v1h-1zm1 0h1v1h-1zm1 0h1v1h-1zm1 0h1v1h-1z"/><path d="M51 18h13v1H51zm13 0h1v4h-1zm1 0h1v1h-1zm1 0h1v1h-1zm1 0h1v1h-1zm15 0h1v1h-1zm1 0h6v1h-6zm7 0h1v1h-1zm32 0h1v1h-1zm6 0h1v1h-1zm-78 1h1v1h-1zm1 0h1v1h-1zm1 0h1v1h-1zm1 0h1v1h-1z"/><path d="M54 19h12v1H54zm12 0h1v4h-1zm1 0h1v1h-1zm1 0h1v1h-1zm1 0h1v1h-1zm13 0h1v15h-1zm1 0h1v1h-1zm1 0h1v1h-1zm1 0h5v1h-5zm5 0h1v5h-1zm1 0h1v1h-1zm1 0h1v1h-1zm30 0h1v15h-1zm6 0h1v4h-1zM23 20h1v1h-1zm1 0h1v1h-1zm29 0h1v1h-1zm1 0h1v1h-1zm1 0h1v1h-1zm1 0h1v1h-1z"/><path d="M57 20h11v1H57zm11 0h1v12h-1zm1 0h1v1h-1zm1 0h1v1h-1zm14 0h1v1h-1zm1 0h1v1h-1zm1 0h5v1h-5zm5 0h1v5h-1zm1 0h1v1h-1zm1 0h1v1h-1zm-71 1h1v1h-1zm1 0h1v5h-1zm1 0h1v1h-1zm1 0h1v1h-1zm32 0h1v1h-1zm1 0h1v1h-1zm1 0h1v1h-1z"/><path d="M60 21h9v1h-9zm9 0h1v11h-1zm1 0h1v1h-1zm15 0h1v1h-1zm1 0h1v1h-1zm1 0h5v1h-5zm5 0h1v5h-1zm1 0h1v1h-1zm1 0h1v1h-1zm-73 1h1v1h-1zm1 0h2v3h-2zm2 0h1v5h-1zm1 0h1v1h-1zm1 0h1v1h-1zm34 0h1v1h-1zm1 0h1v1h-1zm1 0h1v1h-1z"/><path d="M63 22h7v1h-7zm7 0h1v8h-1zm1 0h1v1h-1zm15 0h1v1h-1zm1 0h1v1h-1zm1 0h5v1h-5zm5 0h1v4h-1zm1 0h1v1h-1zm1 0h1v1h-1zm-75 1h1v1h-1zm1 0h4v1h-4zm4 0h1v5h-1zm1 0h1v1h-1zm1 0h1v1h-1zm36 0h1v1h-1zm1 0h1v1h-1zm1 0h1v1h-1zm1 0h4v1h-4zm5 0h1v1h-1zm16 0h1v1h-1zm1 0h1v1h-1z"/><path d="M89 23h5v1h-5zm5 0h1v4h-1zm1 0h1v1h-1zm1 0h1v1h-1zm32 0h1v1h-1zM20 24h1v1h-1zm1 0h5v1h-5zm5 0h1v5h-1zm1 0h1v1h-1zm1 0h1v1h-1zm37 0h1v1h-1zm1 0h1v1h-1zm1 0h3v8h-3zm4 0h1v1h-1zm1 0h1v1h-1zm16 0h1v1h-1zm1 0h1v1h-1z"/><path d="M90 24h5v1h-5zm5 0h1v4h-1zm1 0h1v1h-1zm1 0h1v1h-1zm31 0h1v10h-1zM21 25h1v1h-1zm1 0h5v1h-5zm5 0h1v5h-1zm1 0h1v1h-1zm1 0h1v1h-1zm37 0h1v1h-1zm5 0h1v3h-1zm1 0h1v1h-1zm17 0h1v1h-1zm1 0h1v1h-1z"/><path d="M91 25h6v1h-6zm6 0h1v5h-1zm1 0h1v1h-1zm-76 1h1v1h-1zm1 0h5v1h-5zm5 0h1v5h-1zm1 0h1v1h-1zm1 0h1v1h-1zm36 0h1v1h-1zm6 0h1v1h-1zm19 0h1v1h-1z"/><path d="M92 26h6v1h-6zm6 0h1v5h-1zm1 0h1v1h-1zm1 0h1v1h-1zm-78 1h1v1h-1zm1 0h1v1h-1zm1 0h5v1h-5zm5 0h1v5h-1zm1 0h1v1h-1zm1 0h1v1h-1zm35 0h1v1h-1zm6 0h1v1h-1zm20 0h1v1h-1zm1 0h1v1h-1z"/><path d="M94 27h5v1h-5zm5 0h1v5h-1zm1 0h1v1h-1zm1 0h1v1h-1zm38 0h1v1h-1zm1 0h1v2h-1zm1 0h1v1h-1zm1 0h1v1h-1zm1 0h1v1h-1zM23 28h1v1h-1zm1 0h1v1h-1zm1 0h5v1h-5zm5 0h1v5h-1zm1 0h1v1h-1zm1 0h1v1h-1zm34 0h1v1h-1zm5 0h1v1h-1zm1 0h1v1h-1zm21 0h1v1h-1zm1 0h1v1h-1z"/><path d="M95 28h5v1h-5zm5 0h1v5h-1zm1 0h1v1h-1zm1 0h1v1h-1zm36 0h1v1h-1zm1 0h1v1h-1zm2 0h1v1h-1zm1 0h1v1h-1zm1 0h1v1h-1zm1 0h1v1h-1zM24 29h1v1h-1zm1 0h1v1h-1zm1 0h5v1h-5zm5 0h1v5h-1zm1 0h1v1h-1zm1 0h1v1h-1zm32 0h1v1h-1zm1 0h1v1h-1zm5 0h1v1h-1zm1 0h1v1h-1zm22 0h1v1h-1zm1 0h1v1h-1z"/><path d="M96 29h5v1h-5zm5 0h1v4h-1zm1 0h1v1h-1zm1 0h1v1h-1zm34 0h1v1h-1zm1 0h1v1h-1zm1 0h1v1h-1zm1 0h1v1h-1zm1 0h1v1h-1zm1 0h1v1h-1zm1 0h1v1h-1zm1 0h1v1h-1zm1 0h1v1h-1zM25 30h1v1h-1zm1 0h1v1h-1zm1 0h5v1h-5zm5 0h1v4h-1zm1 0h1v1h-1zm1 0h1v1h-1zm8 0h1v1h-1zm1 0h1v1h-1zm1 0h10v1H44zm10 0h1v1h-1zm1 0h7v1h-7zm7 0h1v1h-1zm1 0h1v1h-1zm1 0h1v1h-1zm1 0h5v2h-5zm5 0h1v1h-1zm1 0h1v1h-1zm24 0h1v1h-1zm1 0h1v1h-1z"/><path d="M97 30h5v1h-5zm5 0h1v4h-1zm1 0h1v1h-1zm1 0h1v1h-1zm33 0h1v1h-1zm1 0h1v1h-1zm1 0h1v2h-1zm1 0h1v1h-1zm1 0h1v2h-1zm1 0h1v1h-1zm1 0h1v1h-1zm1 0h1v1h-1zm1 0h1v1h-1zM26 31h1v1h-1zm1 0h1v1h-1zm1 0h5v1h-5zm5 0h1v3h-1zm1 0h1v1h-1zm1 0h1v1h-1zm6 0h1v1h-1zm1 0h1v1h-1zm1 0h26v1H43zm27 0h1v1h-1zm1 0h1v1h-1zm25 0h1v1h-1zm1 0h1v1h-1z"/><path d="M98 31h5v1h-5zm5 0h1v3h-1zm1 0h1v1h-1zm1 0h1v1h-1zm32 0h1v1h-1zm1 0h1v1h-1zm2 0h1v1h-1zm2 0h1v1h-1zm1 0h1v1h-1zm1 0h1v1h-1zm1 0h1v1h-1zM27 32h1v1h-1zm1 0h1v1h-1zm1 0h5v1h-5zm5 0h1v1h-1zm1 0h1v1h-1zm1 0h1v1h-1zm5 0h1v1h-1zm1 0h27v1H42zm27 0h1v1h-1zm1 0h1v1h-1zm27 0h1v1h-1zm1 0h1v1h-1z"/><path d="M99 32h5v1h-5zm5 0h1v2h-1zm1 0h1v1h-1zm1 0h1v1h-1zm31 0h1v1h-1zm1 0h1v1h-1zm1 0h1v1h-1zm1 0h1v1h-1zm1 0h1v1h-1zm1 0h1v1h-1zm2 0h1v1h-1zm1 0h1v1h-1zM28 33h1v1h-1zm1 0h1v1h-1zm1 0h4v1h-4zm4 0h1v1h-1zm1 0h1v1h-1zm1 0h1v1h-1zm5 0h1v1h-1zm1 0h25v1H42zm25 0h1v1h-1zm1 0h1v1h-1zm1 0h1v1h-1zm29 0h1v1h-1zm1 0h1v1h-1z"/><path d="M100 33h5v1h-5zm5 0h1v1h-1zm1 0h1v1h-1zm1 0h1v1h-1zm30 0h1v1h-1zm1 0h1v1h-1zm1 0h1v1h-1zm1 0h1v1h-1zm1 0h1v1h-1zm1 0h1v1h-1zm1 0h1v1h-1zm1 0h1v1h-1zm1 0h1v1h-1zM29 34h1v1h-1zm1 0h1v1h-1zm1 0h2v1h-2zm2 0h1v1h-1zm1 0h1v1h-1zm1 0h1v1h-1zm6 0h1v1h-1zm1 0h24v1H42zm24 0h1v1h-1zm1 0h1v1h-1zm1 0h1v1h-1zm9 0h1v1h-1zm1 0h3v1h-3zm3 0h1v1h-1zm1 0h1v1h-1zm18 0h1v1h-1zm1 0h1v1h-1zm1 0h2v1h-2zm2 0h1v1h-1zm1 0h1v1h-1zm1 0h1v1h-1zm16 0h1v1h-1zm1 0h4v1h-4zm4 0h1v1h-1zm1 0h1v1h-1zm10 0h1v1h-1zm1 0h1v1h-1zm1 0h1v1h-1zm2 0h1v1h-1zm1 0h1v1h-1zm1 0h1v1h-1zM30 35h1v1h-1zm1 0h1v1h-1zm1 0h1v1h-1zm1 0h1v1h-1zm1 0h1v1h-1zm7 0h1v1h-1zm1 0h20v1H42zm20 0h1v1h-1zm1 0h1v1h-1zm1 0h1v1h-1zm1 0h1v1h-1zm1 0h1v1h-1zm1 0h1v1h-1zm10 0h1v1h-1zm1 0h3v1h-3zm3 0h1v1h-1zm1 0h1v1h-1zm19 0h1v1h-1zm1 0h1v1h-1zm1 0h1v1h-1zm1 0h1v1h-1zm1 0h1v1h-1zm17 0h1v1h-1zm1 0h4v1h-4zm4 0h1v1h-1zm1 0h1v1h-1zm11 0h1v1h-1zm1 0h1v1h-1zm1 0h1v1h-1zm1 0h1v1h-1zm1 0h1v1h-1z"/></g><path d="M29 0h1v1h-1zm1 0h5v1h-5zm5 0h1v1h-1zm-6 1h1v1h-1zm1 0h1v1h-1zm6 0h1v5h-1zm-6 1h1v1h-1zm-1 1h1v1h-1zm-1 1h1v1h-1zm-1 1h1v1h-1zm-1 1h1v1h-1zm7 0h1v1h-1zm1 0h2v1h-2zm2 0h1v1h-1zm-4 1h1v1h-1zm3 0h1v1h-1zm-4 1h1v1h-1zm-1 1h1v1h-1zm-1 1h1v1h-1zm-8 1h1v1h-1zm7 0h1v1h-1zm-8 1h1v1h-1zm7 0h1v1h-1zm-8 1h1v1h-1zm7 0h1v1h-1zm-8 1h1v1h-1zm1 0h1v1h-1zm6 0h1v1h-1zm-8 1h1v1h-1zm1 0h1v1h-1zm6 0h1v1h-1zm-8 1h1v1h-1zm1 0h1v1h-1zm6 0h1v1h-1zm-8 1h1v1h-1zm1 0h1v1h-1zm6 0h1v1h-1zm-8 1h1v1h-1zm1 0h1v1h-1zm6 0h1v1h-1zm-8 1h1v1h-1zm1 0h1v1h-1zm6 0h1v1h-1zm-8 1h1v1h-1zm1 0h1v1h-1zm6 0h1v1h-1zm-7 1h1v1h-1zm6 0h1v1h-1zm-7 1h1v1h-1zm6 0h1v1h-1zm-7 1h1v1h-1zm6 0h1v1h-1zm-7 1h1v1H9zm6 0h1v1h-1zm-7 1h1v1H8zm6 0h1v1h-1zm-7 1h1v1H7zm6 0h1v1h-1zm-7 1h1v1H6zm6 0h1v1h-1zm-7 1h1v1H5zm6 0h1v1h-1zm-7 1h1v1H4zm6 0h1v1h-1zm-7 1h1v1H3zm6 0h1v1H9zm-7 1h1v1H2zm6 0h1v1H8zm1 0h1v1H9zm-8 1h1v1H1zm6 0h1v1H7zm1 0h1v1H8zm-8 1h1v1H0zm6 0h1v1H6zm1 0h1v1H7zm-6 1h1v1H1zm4 0h1v1H5zm1 0h1v1H6zm-3 1h1v1H3zm1 0h1v1H4z" fill="#ffc400"/><path fill="#ffc700" d="M36 0h1v1h-1z"/></svg>