<svg xmlns="http://www.w3.org/2000/svg" role="img" xmlns:xlink="http://www.w3.org/1999/xlink" viewBox="-4.88 -0.13 240.76 55.51"><title>YäRKEN (member) logo</title><defs><path d="M-.125-43.73438h6.35938L18.375-25.75l12.03125-17.98438h6.35938L21.29687-20.82812V0h-5.9375v-20.82813zm0 0" id="a"/><path d="M20.5625-16.5c-4.35547 0-7.3711.5-9.04688 1.5C9.83595-14 9-12.30078 9-9.90625c0 1.91797.6289 3.4375 1.89063 4.5625 1.2578 1.125 2.97265 1.6875 5.14062 1.6875 2.98828 0 5.38281-1.05469 7.1875-3.17188 1.80078-2.125 2.70313-4.9453 2.70313-8.46875V-16.5zm10.75-2.21875V0h-5.39063v-4.98438c-1.23046 1.9922-2.76171 3.46094-4.59374 4.40625C19.49218.3672 17.25.84376 14.59375.84376c-3.36719 0-6.03906-.9414-8.01563-2.82813-1.98046-1.8828-2.96875-4.40625-2.96875-7.5625 0-3.6953 1.23438-6.48437 3.70313-8.35937s6.15625-2.8125 11.0625-2.8125h7.54688v-.51563c0-2.48828-.82032-4.41015-2.45313-5.76562-1.625-1.35156-3.91406-2.03125-6.85938-2.03125-1.875 0-3.70312.22656-5.48437.67188-1.77344.44921-3.48047 1.12109-5.125 2.01562v-4.96875c1.97656-.76953 3.89453-1.34375 5.75-1.71875 1.85156-.38281 3.66016-.57813 5.42188-.57813 4.73828 0 8.28124 1.23438 10.625 3.70313 2.34374 2.46094 3.51562 6.1875 3.51562 11.1875zm-11.15625-26.75h5.95313v5.92188h-5.95313zm-11.45313 0h5.95313v5.92188H8.70312zm0 0" id="b"/><path d="M26.625-20.51563c1.26953.4375 2.5039 1.35938 3.70313 2.76563 1.20703 1.40625 2.41406 3.33984 3.625 5.79688L39.96874 0h-6.35938l-5.59374-11.21875c-1.44922-2.92578-2.85547-4.86719-4.21876-5.82813-1.35546-.95703-3.20312-1.4375-5.54687-1.4375h-6.4375V0H5.89062v-43.73438H19.25c5 0 8.72656 1.04688 11.1875 3.14063 2.45703 2.08594 3.6875 5.23438 3.6875 9.45313 0 2.75-.64063 5.03906-1.92188 6.85937-1.27343 1.8125-3.1328 3.07031-5.57812 3.76563zM11.8125-38.875v15.53125H19.25c2.85156 0 5.0039-.66016 6.45313-1.98438 1.45703-1.3203 2.1875-3.2578 2.1875-5.8125 0-2.5625-.73047-4.48828-2.1875-5.78124C24.2539-38.22266 22.10156-38.875 19.25-38.875zm0 0" id="c"/><path d="M5.89063-43.73438h5.92187V-25.25l19.625-18.48438h7.60938L17.34374-23.34374 40.60938 0H32.8125l-21-21.0625V0H5.89062zm0 0" id="d"/><path d="M5.89063-43.73438h27.65624v4.96876H11.8125v12.95312h20.82813v4.98438H11.8125v15.84374h22.26563V0H5.89063zm0 0" id="e"/><path d="M5.89063-43.73438h7.96875L33.25-7.15624v-36.57813H39V0h-7.96875L11.625-36.59375V0H5.89062zm0 0" id="f"/></defs><use y="50" xlink:href="#a"/><use x="36.65" y="50" xlink:href="#b"/><use x="73.418" y="50" xlink:href="#c"/><use x="115.107" y="50" xlink:href="#d"/><use x="154.453" y="50" xlink:href="#e"/><use x="192.363" y="50" xlink:href="#f"/></svg>