<svg xmlns="http://www.w3.org/2000/svg" role="img" xmlns:xlink="http://www.w3.org/1999/xlink" viewBox="-3.43 2.07 243.36 53.61"><title>YäRKEN (member) logo</title><defs><path d="M1.23047-43.03906h6.79687l12.36328 20.6875 12.36329-20.6875h6.82422L23.3203-17.34375V0H17.4922v-17.34375zm0 0" id="a"/><path d="M7.91016-8.35156c0 1.52343.55859 2.72656 1.66796 3.60547 1.11329.8789 2.4336 1.3164 3.95704 1.3164 1.85547 0 3.65234-.42969 5.39062-1.28906 2.92969-1.42578 4.39453-3.75781 4.39453-7v-4.25c-.64453.41016-1.47656.7539-2.49218 1.02734-1.01563.27344-2.00782.46875-2.98438.58594l-3.19531.41016c-1.91407.2539-3.35157.65625-4.30469 1.20312-1.6211.91797-2.4336 2.38282-2.4336 4.39063zm12.77343-10.66407c1.21094-.15624 2.01954-.66406 2.4336-1.52343.23437-.46875.35156-1.14063.35156-2.01953 0-1.79688-.64063-3.10157-1.92188-3.91016-1.27734-.8125-3.10937-1.21875-5.49218-1.21875-2.7539 0-4.70703.74219-5.85938 2.22656-.64453.82032-1.0625 2.04297-1.25781 3.66407H4.01562c.09766-3.8672 1.35157-6.5586 3.76172-8.07032 2.41407-1.51562 5.21094-2.27343 8.39454-2.27343 3.6914 0 6.6875.70312 8.99218 2.10937 2.28516 1.40625 3.42969 3.59375 3.42969 6.5625v18.07813c0 .54687.11328.98437.33594 1.3203.22656.33204.69922.4961 1.42187.4961.23438 0 .5-.01562.78907-.04297.29296-.03125.60937-.07422.9375-.13281V.14844c-.82032.23437-1.44532.3789-1.875.4375-.4297.0586-1.01563.08593-1.75782.08593-1.8164 0-3.13281-.64062-3.95312-1.92968-.42969-.6836-.73438-1.65235-.90625-2.90235C22.51172-2.7539 20.96875-1.53125 18.95312-.5 16.94141.53516 14.72657 1.05469 12.3047 1.05469c-2.91016 0-5.28907-.88281-7.13282-2.65235-1.84765-1.76562-2.76953-3.98046-2.76953-6.63671 0-2.91016.91016-5.16407 2.72266-6.76563 1.8164-1.60156 4.20313-2.58594 7.14844-2.96094zm-1.61328-23.3203h5.48047v6.09374h-5.48047zm-9.66406 0h5.47656v6.09374H9.40625zm0 0" id="b"/><path d="M24.57813-23.32031c2.73437 0 4.89843-.54688 6.49218-1.64063 1.58985-1.09375 2.38672-3.0664 2.38672-5.91797 0-3.0664-1.11328-5.15625-3.33984-6.26953-1.1914-.58593-2.78125-.8789-4.77344-.8789H11.10156v14.70703zM5.27342-43.03906h19.92188c3.28125 0 5.98438.48047 8.11719 1.4375 4.04297 1.83593 6.0625 5.22656 6.0625 10.16406 0 2.57813-.53125 4.6875-1.59766 6.32813-1.0625 1.64062-2.55078 2.96093-4.46484 3.95703 1.67969.68359 2.9414 1.58203 3.79297 2.6953.84766 1.11329 1.32422 2.91798 1.41797 5.41798l.20703 5.77343c.0586 1.64063.19531 2.85938.41016 3.66407.35156 1.36719.97656 2.24219 1.875 2.63281V0h-7.14844c-.19532-.3711-.35157-.85156-.46875-1.4375-.11719-.58594-.21485-1.71875-.29297-3.39844l-.35156-7.17578c-.13672-2.8125-1.1836-4.69922-3.13672-5.65234-1.11328-.52735-2.85938-.79297-5.24219-.79297H11.10156V0H5.27344zm0 0" id="c"/><path d="M4.57031-43.03906h5.6836v20.97656l20.97656-20.97656h8.0586L21.38671-25.69531 39.78516 0H32.1953L17.14063-21.59375 10.2539-15V0H4.5703zm0 0" id="d"/><path d="M5.125-43.03906h31.3789v5.27343H10.8125v13.07032h23.75781v4.97656H10.8125V-5.125h26.13281V0H5.125zm0 0" id="e"/><path d="M4.57031-43.03906h6.88281l21.7422 34.86718v-34.86718h5.53515V0H32.1953l-22.0586-34.83594V0h-5.5664zm0 0" id="f"/></defs><use y="50" xlink:href="#a"/><use x="40.02" y="50" xlink:href="#b"/><use x="73.389" y="50" xlink:href="#c"/><use x="116.719" y="50" xlink:href="#d"/><use x="156.738" y="50" xlink:href="#e"/><use x="196.758" y="50" xlink:href="#f"/></svg>