<svg xmlns="http://www.w3.org/2000/svg" role="img" viewBox="-2.58 -2.58 134.03 29.03"><title>ZEDEDA, Inc. logo</title><path d="M15 4h1v1h-1zm5 0h1v1h-1z" fill="#99272b"/><path d="M16 4h3v1h-3zm3 0h1v1h-1zm-6 1h1v1h-1zm1 0h1v1h-1zm1 0h3v1h-3zm3 0h1v1h-1zm1 0h1v1h-1zm1 0h1v1h-1zm-8 1h1v1h-1zm1 0h1v1h-1zm1 0h3v1h-3zm3 0h1v1h-1zm1 0h1v1h-1zm1 0h1v1h-1zm-8 1h1v1h-1zm1 0h1v1h-1zm1 0h3v1h-3zm3 0h1v1h-1zm1 0h1v1h-1zm1 0h1v1h-1zm-8 1h1v1h-1zm1 0h1v1h-1zm1 0h3v1h-3zm3 0h1v1h-1zm1 0h1v1h-1zm1 0h1v1h-1zM9 9h1v1H9zm1 0h1v1h-1zm1 0h3v1h-3zm3 0h1v1h-1zm1 0h1v1h-1zm1 0h1v1h-1zm-8 1h1v1H8zm1 0h1v1H9zm1 0h3v1h-3zm3 0h1v1h-1zm1 0h1v1h-1zm1 0h1v1h-1zm-8 1h1v1H7zm1 0h1v1H8zm1 0h3v1H9zm3 0h1v1h-1zm1 0h1v1h-1zm1 0h1v1h-1zm-8 1h1v1H6zm1 0h1v1H7zm1 0h3v1H8zm3 0h1v1h-1zm1 0h1v1h-1zm1 0h1v1h-1zm-8 1h1v1H5zm1 0h1v1H6zm1 0h3v1H7zm3 0h1v1h-1zm1 0h1v1h-1zm1 0h1v1h-1zm-8 1h1v1H4zm1 0h1v1H5zm1 0h3v1H6zm3 0h1v1H9zm1 0h1v1h-1zm1 0h1v1h-1zm-8 1h1v1H3zm1 0h1v1H4zm1 0h3v1H5zm3 0h1v1H8zm1 0h1v1H9zm1 0h1v1h-1zm-8 1h1v1H2zm1 0h1v1H3zm1 0h3v1H4zm3 0h1v1H7zm1 0h1v1H8zm1 0h1v1H9zm-8 1h1v1H1zm1 0h1v1H2zm1 0h3v1H3zm3 0h1v1H6zm1 0h1v1H7zm1 0h1v1H8zm-8 1h1v1H0zm1 0h1v1H1zm1 0h3v1H2zm3 0h1v1H5zm1 0h1v1H6zm1 0h1v1H7zm-6 1h3v1H1zm3 0h1v1H4zm1 0h1v1H5z" fill="#97262c"/><path fill="#b4321f" d="M21 4h1v1h-1z"/><path fill="#9b282a" d="M0 19h1v1H0z"/><path fill="#ae2f22" d="M6 19h1v1H6z"/><g fill="#fc5000"><path d="M0 0h20v3H0zm20 0h1v3h-1zm1 0h1v3h-1zm4 0h1v3h-1zm1 0h16v3H26zm16 0h1v3h-1zm1 0h1v3h-1zm4 0h1v3h-1zm1 0h5v3h-5zm5 0h1v3h-1zm1 0h1v1h-1zm1 0h1v1h-1zm1 0h1v1h-1zm1 0h1v1h-1zm1 0h1v1h-1zm6 0h1v1h-1zm1 0h1v1h-1zm1 0h15v1H66zm15 0h1v3h-1zm1 0h1v3h-1zm4 0h1v3h-1zm1 0h5v3h-5zm5 0h1v3h-1zm1 0h1v1h-1zm1 0h1v1h-1zm1 0h1v1h-1zm1 0h1v1h-1zm1 0h1v1h-1zm19 0h1v1h-1zm1 0h1v1h-1zM54 1h3v2h-3zm3 0h1v2h-1zm1 0h1v1h-1zm1 0h1v1h-1zm1 0h1v1h-1zm5 0h1v1h-1zm1 0h15v1H66zm27 0h3v2h-3zm3 0h1v2h-1zm1 0h1v1h-1zm1 0h1v1h-1zm1 0h1v1h-1zm16 0h1v1h-1zm1 0h1v1h-1zm1 0h1v1h-1zM58 2h1v2h-1zm1 0h1v3h-1zm1 0h1v1h-1zm1 0h1v1h-1zm5 0h1v1h-1zm1 0h14v1H67zm30 0h1v2h-1zm1 0h1v3h-1zm1 0h1v1h-1zm1 0h1v1h-1zm15 0h1v1h-1zm1 0h1v5h-1zm1 0h1v5h-1zm1 0h1v1h-1zM0 3h20v1H0zm20 0h1v1h-1zm1 0h1v1h-1zm4 0h1v1h-1zm1 0h16v1H26zm16 0h1v1h-1zm1 0h1v1h-1zm4 0h1v1h-1z"/><path d="M48 3h12v1H48zm12 0h1v3h-1zm1 0h1v1h-1zm1 0h1v1h-1zm4 0h1v1h-1zm1 0h1v1h-1zm1 0h13v1H68zm13 0h1v1h-1zm1 0h1v1h-1zm4 0h1v1h-1zm1 0h12v1H87zm12 0h1v3h-1zm1 0h1v1h-1zm1 0h1v1h-1zm13 0h1v1h-1zm1 0h1v1h-1zm3 0h1v1h-1zM0 4h13v1H0zm13 0h1v1h-1zm12 0h1v1h-1zm1 0h16v1H26zm16 0h1v1h-1zm1 0h1v1h-1zm4 0h1v1h-1zm1 0h4v1h-4zm4 0h1v1h-1zm1 0h1v1h-1zm1 0h1v1h-1zm1 0h1v1h-1zm1 0h1v1h-1zm1 0h1v1h-1z"/><path d="M58 4h3v1h-3zm3 0h1v4h-1zm1 0h1v1h-1zm1 0h1v1h-1zm4 0h1v1h-1zm1 0h13v1H68zm13 0h1v1h-1zm1 0h1v1h-1zm4 0h1v1h-1zm1 0h4v1h-4zm4 0h1v1h-1zm1 0h1v1h-1zm1 0h1v1h-1zm1 0h1v1h-1zm1 0h1v1h-1zm1 0h1v1h-1zm1 0h3v1h-3zm3 0h1v4h-1zm1 0h1v1h-1zm1 0h1v1h-1zm12 0h1v1h-1zm1 0h3v3h-3zm3 0h1v5h-1zm1 0h1v1h-1zM57 5h1v1h-1zm1 0h1v1h-1z"/><path d="M59 5h3v1h-3zm3 0h1v13h-1zm1 0h1v1h-1zm1 0h1v1h-1zm32 0h1v1h-1zm1 0h1v1h-1zm1 0h3v1h-3zm3 0h1v13h-1zm1 0h1v1h-1zm1 0h1v1h-1zm10 0h1v1h-1zm1 0h1v1h-1zm5 0h1v1h-1zM58 6h1v1h-1zm1 0h1v1h-1z"/><path d="M60 6h3v1h-3zm3 0h1v11h-1zm1 0h1v1h-1zm33 0h1v1h-1zm1 0h1v1h-1zm1 0h3v1h-3zm3 0h1v11h-1zm1 0h1v1h-1zm10 0h1v1h-1zm1 0h5v1h-5zm5 0h1v5h-1zm1 0h1v1h-1zM59 7h1v1h-1zm1 0h1v1h-1zm4 0h1v1h-1zm34 0h1v1h-1zm1 0h1v1h-1zm4 0h1v1h-1zm9 0h1v1h-1zm1 0h1v1h-1zm1 0h5v1h-5zm6 0h1v1h-1zM60 8h1v1h-1z"/><path d="M61 8h3v1h-3zm3 0h1v7h-1zm1 0h1v1h-1zm34 0h1v1h-1zm1 0h3v1h-3zm3 0h1v7h-1zm1 0h1v1h-1zm8 0h1v1h-1zm1 0h2v3h-2zm2 0h1v1h-1zm1 0h1v1h-1zm1 0h1v1h-1zm3 0h1v5h-1zm1 0h1v1h-1zM25 9h1v1h-1zm1 0h16v1H26zm16 0h1v1h-1zm1 0h1v1h-1zm17 0h1v1h-1zm1 0h1v1h-1zm4 0h1v1h-1zm4 0h1v1h-1zm1 0h11v1H70zm11 0h1v1h-1zm1 0h1v1h-1zm17 0h1v1h-1zm1 0h1v1h-1zm4 0h1v1h-1zm7 0h1v1h-1zm1 0h1v1h-1zm3 0h1v1h-1zm1 0h1v1h-1zm1 0h1v1h-1zm1 0h2v1h-2zm3 0h1v1h-1zm-96 1h1v3h-1zm1 0h16v3H26zm16 0h1v3h-1zm1 0h1v3h-1zm18 0h1v1h-1zm4 0h1v1h-1zm4 0h1v1h-1zm1 0h11v3H70zm11 0h1v3h-1zm1 0h1v3h-1zm18 0h1v1h-1zm4 0h1v1h-1zm7 0h1v1h-1z"/><path d="M112 10h2v3h-2zm3 0h1v1h-1zm1 0h1v1h-1zm1 0h1v1h-1zm1 0h1v1h-1zm3 0h1v6h-1zm1 0h1v1h-1zm-61 1h1v1h-1zm4 0h1v1h-1zm4 0h1v1h-1zm31 0h1v1h-1zm4 0h1v1h-1zm6 0h1v1h-1zm1 0h1v1h-1zm3 0h1v1h-1zm1 0h1v1h-1zm3 0h1v1h-1zm1 0h2v1h-2zm3 0h1v1h-1zm-61 1h1v1h-1zm4 0h1v1h-1zm4 0h1v1h-1zm31 0h1v1h-1zm4 0h1v1h-1zm6 0h1v1h-1z"/><path d="M111 12h2v3h-2zm3 0h1v1h-1zm1 0h1v1h-1zm3 0h1v1h-1zm1 0h1v1h-1zm3 0h1v6h-1zm1 0h1v1h-1zm-98 1h1v1h-1zm1 0h16v1H26zm16 0h1v1h-1zm1 0h1v1h-1zm18 0h1v1h-1zm4 0h1v1h-1zm4 0h1v1h-1zm1 0h11v1H70zm11 0h1v1h-1zm1 0h1v1h-1zm18 0h1v1h-1zm4 0h1v1h-1zm5 0h1v1h-1zm1 0h1v1h-1zm3 0h1v1h-1zm1 0h1v1h-1zm5 0h1v1h-1zm1 0h2v1h-2zm3 0h1v1h-1zm-98 1h1v1h-1zm1 0h16v1H26zm16 0h1v1h-1zm1 0h1v1h-1zm17 0h1v1h-1zm1 0h1v1h-1zm4 0h1v1h-1zm4 0h1v1h-1zm1 0h11v1H70zm11 0h1v1h-1zm1 0h1v1h-1zm17 0h1v1h-1zm1 0h1v1h-1zm4 0h1v1h-1zm5 0h1v1h-1z"/><path d="M110 14h2v3h-2zm3 0h1v1h-1zm1 0h1v1h-1zm5 0h1v1h-1zm1 0h1v1h-1zm3 0h1v6h-1zm1 0h1v1h-1zm-64 1h1v1h-1zm1 0h3v2h-3zm3 0h1v1h-1zm1 0h1v1h-1zm34 0h1v1h-1zm1 0h3v2h-3zm3 0h1v1h-1zm1 0h1v1h-1zm4 0h1v1h-1zm1 0h1v1h-1zm3 0h1v1h-1zm1 0h1v1h-1zm7 0h1v1h-1zm4 0h1v1h-1zm-65 1h1v1h-1zm1 0h1v1h-1zm4 0h1v1h-1zm34 0h1v1h-1zm1 0h1v1h-1zm4 0h1v1h-1zm5 0h1v1h-1z"/><path d="M109 16h2v3h-2zm3 0h1v1h-1zm1 0h1v1h-1zm7 0h1v1h-1zm1 0h3v1h-3zm3 0h1v6h-1zm1 0h1v1h-1zm-67 1h1v1h-1zm1 0h1v1h-1zm1 0h3v1h-3zm3 0h1v1h-1zm1 0h1v1h-1zm33 0h1v1h-1zm1 0h1v1h-1zm1 0h3v1h-3zm3 0h1v1h-1zm1 0h1v1h-1zm4 0h1v1h-1zm1 0h1v1h-1zm3 0h1v1h-1zm1 0h1v1h-1zm9 0h1v1h-1zm4 0h1v1h-1zm-68 1h1v1h-1zm1 0h1v1h-1zm1 0h3v1h-3zm3 0h1v1h-1zm1 0h1v1h-1zm1 0h1v1h-1zm32 0h1v1h-1zm1 0h1v1h-1zm1 0h3v1h-3zm3 0h1v1h-1zm1 0h1v1h-1zm1 0h1v1h-1zm4 0h1v1h-1z"/><path d="M108 18h2v3h-2zm3 0h1v1h-1zm1 0h1v1h-1zm9 0h1v1h-1zm1 0h3v1h-3zm3 0h1v5h-1zm1 0h1v1h-1zM7 19h13v1H7zm13 0h1v1h-1zm1 0h1v1h-1zm4 0h1v1h-1zm1 0h16v1H26zm16 0h1v1h-1zm1 0h1v1h-1zm4 0h1v1h-1zm1 0h4v1h-4zm4 0h1v1h-1zm1 0h1v1h-1zm1 0h1v1h-1zm1 0h1v1h-1zm1 0h1v1h-1zm1 0h1v1h-1zm1 0h3v1h-3zm3 0h1v1h-1zm1 0h1v1h-1zm1 0h1v1h-1zm4 0h1v1h-1zm1 0h13v1H68zm13 0h1v1h-1zm1 0h1v1h-1zm4 0h1v1h-1zm1 0h4v1h-4zm4 0h1v1h-1zm1 0h1v1h-1zm1 0h1v1h-1zm1 0h1v1h-1zm1 0h1v1h-1zm1 0h1v1h-1zm1 0h3v1h-3zm3 0h1v1h-1zm1 0h1v1h-1zm1 0h1v1h-1zm4 0h1v1h-1zm1 0h1v1h-1zm3 0h1v1h-1zm1 0h1v1h-1zm11 0h1v1h-1zm4 0h1v1h-1zM0 20h20v3H0zm20 0h1v3h-1zm1 0h1v3h-1zm4 0h1v3h-1zm1 0h16v3H26zm16 0h1v3h-1zm1 0h1v3h-1zm4 0h1v3h-1zm1 0h12v1H48zm12 0h1v1h-1zm1 0h1v1h-1zm1 0h1v1h-1zm4 0h1v1h-1zm1 0h1v1h-1zm1 0h13v3H68zm13 0h1v3h-1zm1 0h1v3h-1zm4 0h1v3h-1zm1 0h12v1H87zm12 0h1v1h-1zm1 0h1v1h-1zm1 0h1v1h-1zm5 0h1v1h-1z"/><path d="M107 20h2v3h-2zm3 0h1v1h-1zm1 0h1v1h-1zm11 0h1v1h-1zm1 0h3v1h-3zm3 0h1v3h-1zm1 0h1v1h-1zm-79 1h11v1H48zm11 0h1v1h-1zm1 0h1v1h-1zm1 0h1v1h-1zm5 0h1v1h-1zm1 0h14v2H67zm20 0h11v1H87zm11 0h1v1h-1zm1 0h1v1h-1zm1 0h1v1h-1zm5 0h1v1h-1zm1 0h1v1h-1zm3 0h1v1h-1zm1 0h1v1h-1zm13 0h1v1h-1zm4 0h1v1h-1zm-79 1h9v1h-9zm9 0h1v1h-1zm1 0h1v1h-1zm1 0h1v1h-1zm1 0h1v1h-1zm5 0h1v1h-1z"/><path d="M66 22h15v1H66zm21 0h9v1h-9zm9 0h1v1h-1zm1 0h1v1h-1zm1 0h1v1h-1zm1 0h1v1h-1zm6 0h1v1h-1zm1 0h2v1h-2zm3 0h1v1h-1zm1 0h1v1h-1zm13 0h1v1h-1zm1 0h3v1h-3zm3 0h1v1h-1zm1 0h1v1h-1zM0 23h20v1H0zm20 0h1v1h-1zm1 0h1v1h-1zm4 0h1v1h-1zm1 0h16v1H26zm16 0h1v1h-1zm1 0h1v1h-1zm4 0h1v1h-1zm1 0h5v1h-5zm5 0h1v1h-1zm1 0h1v1h-1zm1 0h1v1h-1zm1 0h1v1h-1zm1 0h1v1h-1zm1 0h1v1h-1zm6 0h1v1h-1zm1 0h1v1h-1zm1 0h15v1H66zm15 0h1v1h-1zm1 0h1v1h-1zm4 0h1v1h-1zm1 0h5v1h-5zm5 0h1v1h-1zm1 0h1v1h-1zm1 0h1v1h-1zm1 0h1v1h-1zm1 0h1v1h-1zm1 0h1v1h-1zm7 0h1v1h-1zm1 0h1v1h-1zm1 0h2v1h-2zm2 0h1v1h-1zm1 0h1v1h-1zm14 0h1v1h-1zm1 0h1v1h-1zm1 0h2v1h-2zm2 0h1v1h-1zm1 0h1v1h-1z"/></g><path fill="#c1371a" d="M14 4h1v1h-1z"/></svg>