<svg xmlns="http://www.w3.org/2000/svg" role="img" xmlns:xlink="http://www.w3.org/1999/xlink" viewBox="-2.05 -0.30 236.34 55.59"><title>Zenosic (member) logo</title><defs><path d="M3.375-43.73438h34.35938v4.5l-27.65626 34.25h28.32813V0H2.70312v-4.51563l27.65626-34.25H3.375zm0 0" id="a"/><path d="M33.71875-17.75v2.625H8.9375c.22656 3.71875 1.34375 6.55469 3.34375 8.5 2.00781 1.9375 4.80078 2.90625 8.375 2.90625 2.07031 0 4.07813-.2539 6.01563-.76563 1.9453-.5078 3.8789-1.26953 5.79687-2.28125v5.09375c-1.9375.82422-3.92188 1.44922-5.95313 1.875-2.03124.42579-4.09374.64063-6.1875.64063-5.23046 0-9.375-1.51953-12.4375-4.5625C4.83595-6.76953 3.3125-10.89063 3.3125-16.07813c0-5.375 1.44531-9.64062 4.34375-12.79687 2.90625-3.15625 6.8164-4.73438 11.73438-4.73438 4.41406 0 7.90624 1.42188 10.46874 4.26563C32.4297-26.5 33.71876-22.63281 33.71876-17.75zm-5.39063-1.59375c-.04296-2.94531-.87109-5.29688-2.48437-7.04688-1.60547-1.7578-3.73438-2.64062-6.39063-2.64062-3.01171 0-5.42187.85156-7.23437 2.54688-1.80469 1.69921-2.83984 4.08984-3.10938 7.17187zm0 0" id="b"/><path d="M32.9375-19.8125V0h-5.39063v-19.625c0-3.10156-.60937-5.42578-1.82812-6.96875-1.21094-1.55078-3.02344-2.32813-5.4375-2.32813-2.91797 0-5.21484.9336-6.89063 2.79688-1.67968 1.85547-2.51562 4.38281-2.51562 7.57813V0H5.45312v-32.8125H10.875v5.09375c1.28125-1.96875 2.79688-3.4414 4.54688-4.42188 1.75-.97656 3.76562-1.46874 6.04687-1.46874 3.76953 0 6.625 1.16796 8.5625 3.5 1.9375 2.33593 2.90625 5.76562 2.90625 10.29687zm0 0" id="c"/><path d="M18.375-29.03125c-2.89844 0-5.1836 1.13281-6.85938 3.39063C9.83595-23.39063 9-20.30079 9-16.375c0 3.92969.83203 7.02344 2.5 9.28125 1.66406 2.25 3.95703 3.375 6.875 3.375 2.86328 0 5.13281-1.1289 6.8125-3.39063 1.6875-2.26953 2.53125-5.35937 2.53125-9.26562 0-3.88281-.84375-6.96094-2.53125-9.23438-1.67969-2.28124-3.94922-3.42187-6.8125-3.42187zm0-4.57813c4.6875 0 8.36328 1.52735 11.03125 4.57813 2.67578 3.04297 4.01563 7.26172 4.01563 12.65625 0 5.36719-1.33985 9.57813-4.01563 12.64063C26.73828-.6797 23.0625.84375 18.375.84375c-4.71094 0-8.39844-1.52344-11.0625-4.57813-2.66797-3.0625-4-7.27343-4-12.64062 0-5.39453 1.33203-9.61328 4-12.65625 2.66406-3.05078 6.35156-4.57813 11.0625-4.57813zm0 0" id="d"/><path d="M26.57813-31.84375V-26.75c-1.53126-.78125-3.1211-1.36328-4.76563-1.75-1.63672-.39453-3.32813-.59375-5.07813-.59375-2.67968 0-4.6875.41406-6.03124 1.23438-1.33594.82421-2 2.05468-2 3.6875 0 1.25.47656 2.23437 1.4375 2.95312.95703.71094 2.8789 1.38672 5.76562 2.03125l1.84375.40625c3.83203.82422 6.55078 1.98438 8.15625 3.48438 1.61328 1.49218 2.42188 3.57421 2.42188 6.25 0 3.04296-1.21094 5.45312-3.625 7.23437C22.29687-.03906 18.98437.84375 14.76563.84375c-1.76172 0-3.59375-.17188-5.5-.51563C7.36719-.0039 5.36327-.51562 3.25-1.20311v-5.5625C5.23828-5.73438 7.20313-4.95704 9.14063-4.4375c1.9375.52344 3.85156.78125 5.75.78125 2.53125 0 4.47656-.42969 5.84375-1.29688 1.375-.875 2.0625-2.10156 2.0625-3.6875 0-1.46875-.4961-2.59375-1.48438-3.375-.99219-.78125-3.15234-1.53125-6.48438-2.25l-1.875-.4375c-3.34375-.70703-5.76171-1.78515-7.25-3.23437-1.48046-1.45703-2.21875-3.45703-2.21875-6 0-3.08203 1.09375-5.46094 3.28125-7.14063 2.1875-1.6875 5.28907-2.53124 9.3125-2.53124 2 0 3.875.15234 5.625.45312 1.75782.29297 3.38282.73047 4.875 1.3125zm0 0" id="e"/><path d="M5.65625-32.8125h5.39063V0H5.65625zm0-12.78125h5.39063v6.82813H5.65625zm0 0" id="f"/><path d="M29.26563-31.54688v5.03126c-1.52344-.84376-3.04688-1.47266-4.57813-1.89063-1.53125-.41406-3.07813-.625-4.64063-.625-3.5 0-6.21874 1.10938-8.15624 3.32813C9.96092-23.4922 9-20.38283 9-16.375c0 4 .96094 7.10938 2.89063 9.32813 1.9375 2.21875 4.65625 3.32812 8.15625 3.32812 1.5625 0 3.10937-.20703 4.64062-.625 1.53125-.42578 3.05469-1.05469 4.57813-1.89063v4.96875c-1.5.71094-3.0586 1.23438-4.67188 1.57813-1.61719.35156-3.32813.53125-5.14063.53125-4.9375 0-8.86718-1.55078-11.78124-4.65625C4.76563-6.91406 3.3125-11.10156 3.3125-16.375c0-5.35156 1.46875-9.5625 4.40625-12.625 2.9375-3.07031 6.96875-4.60938 12.09375-4.60938 1.65625 0 3.27344.17188 4.85938.51563 1.58203.34375 3.11328.85938 4.59374 1.54688zm0 0" id="g"/></defs><use y="50" xlink:href="#a"/><use x="41.104" y="50" xlink:href="#b"/><use x="78.018" y="50" xlink:href="#c"/><use x="116.045" y="50" xlink:href="#d"/><use x="152.754" y="50" xlink:href="#e"/><use x="184.014" y="50" xlink:href="#f"/><use x="200.684" y="50" xlink:href="#g"/></svg>